<svg xmlns="http://www.w3.org/2000/svg" width="24" height="24" viewBox="0 0 24 24" fill="none" stroke="currentColor" stroke-width="2" stroke-linecap="round" stroke-linejoin="round"><path d="M11.220 1.026 C 9.272 1.184,7.485 1.799,5.900 2.858 C 4.179 4.007,2.806 5.623,1.982 7.469 C 0.675 10.397,0.675 13.603,1.982 16.531 C 2.329 17.309,2.781 18.056,3.353 18.800 C 3.688 19.236,4.760 20.307,5.200 20.646 C 6.772 21.858,8.446 22.575,10.436 22.889 C 10.880 22.959,11.160 22.975,11.960 22.976 C 12.991 22.978,13.324 22.948,14.200 22.773 C 15.558 22.501,16.863 21.960,18.046 21.180 C 18.909 20.612,19.058 20.429,19.058 19.940 C 19.058 19.609,18.970 19.411,18.728 19.192 C 18.523 19.006,18.335 18.948,18.004 18.967 C 17.737 18.982,17.728 18.986,17.117 19.396 C 14.677 21.032,11.843 21.432,9.127 20.522 C 6.859 19.764,4.961 18.093,3.920 15.942 C 3.492 15.058,3.258 14.308,3.094 13.300 C 2.986 12.637,2.995 11.272,3.111 10.600 C 3.554 8.030,4.908 5.925,7.029 4.507 C 8.585 3.468,10.447 2.942,12.320 3.013 C 14.610 3.099,16.748 4.030,18.359 5.641 C 19.084 6.365,19.625 7.126,20.079 8.060 C 20.505 8.934,20.750 9.715,20.901 10.680 C 20.989 11.242,21.029 13.022,20.962 13.370 C 20.781 14.299,19.938 15.000,19.000 15.000 C 18.080 15.000,17.232 14.310,17.044 13.408 C 17.014 13.266,17.000 12.321,17.000 10.525 C 17.000 7.511,17.009 7.607,16.701 7.299 C 16.310 6.908,15.690 6.908,15.299 7.299 C 15.143 7.455,15.000 7.754,15.000 7.923 C 15.000 7.978,14.943 7.955,14.730 7.814 C 14.220 7.478,13.623 7.234,12.960 7.093 C 12.489 6.993,11.511 6.993,11.040 7.093 C 10.006 7.313,9.216 7.740,8.478 8.478 C 7.485 9.470,7.021 10.593,7.021 12.000 C 7.021 12.446,7.041 12.715,7.093 12.960 C 7.313 13.995,7.741 14.786,8.478 15.521 C 9.222 16.262,10.007 16.687,11.040 16.907 C 11.511 17.007,12.489 17.007,12.960 16.907 C 13.923 16.702,14.733 16.284,15.413 15.640 L 15.742 15.328 15.950 15.582 C 16.467 16.214,17.278 16.704,18.140 16.905 C 18.604 17.014,19.459 17.007,19.920 16.891 C 21.400 16.518,22.505 15.420,22.888 13.940 C 22.957 13.673,22.974 13.459,22.989 12.646 C 23.010 11.602,22.968 10.925,22.837 10.147 C 22.448 7.844,21.339 5.750,19.636 4.100 C 18.051 2.566,16.119 1.573,13.960 1.185 C 13.064 1.023,12.009 0.962,11.220 1.026 M12.592 9.063 C 14.213 9.396,15.267 10.981,14.937 12.592 C 14.604 14.213,13.017 15.268,11.408 14.936 C 9.556 14.555,8.508 12.579,9.235 10.839 C 9.781 9.535,11.208 8.780,12.592 9.063 " stroke="none" fill="black" fill-rule="evenodd"></path></svg>