<svg xmlns="http://www.w3.org/2000/svg" width="24" height="24" viewBox="0 0 24 24" fill="none" stroke="currentColor" stroke-width="2" stroke-linecap="round" stroke-linejoin="round"><path d="M11.100 1.062 C 8.724 1.383,6.725 2.830,5.698 4.973 C 5.218 5.974,5.001 6.952,5.000 8.120 C 4.998 10.532,4.551 12.776,3.755 14.371 C 3.402 15.079,3.090 15.519,2.579 16.026 C 2.223 16.379,2.117 16.511,2.065 16.663 C 1.936 17.043,2.021 17.423,2.299 17.701 C 2.625 18.027,1.736 18.000,12.000 18.000 C 22.264 18.000,21.375 18.027,21.701 17.701 C 21.979 17.423,22.064 17.043,21.935 16.663 C 21.883 16.511,21.777 16.379,21.421 16.026 C 20.919 15.527,20.600 15.083,20.263 14.409 C 19.454 12.795,19.092 11.041,19.001 8.293 C 18.955 6.917,18.861 6.346,18.543 5.523 C 17.896 3.848,16.722 2.549,15.140 1.760 C 13.836 1.109,12.483 0.875,11.100 1.062 M12.980 3.099 C 13.996 3.312,14.786 3.741,15.522 4.477 C 16.103 5.060,16.493 5.678,16.734 6.401 C 16.924 6.969,16.962 7.252,17.001 8.380 C 17.043 9.601,17.087 10.168,17.202 10.992 C 17.450 12.758,17.880 14.169,18.578 15.507 L 18.836 16.000 12.000 16.000 L 5.164 16.000 5.422 15.507 C 6.116 14.176,6.545 12.774,6.795 11.014 C 6.907 10.231,6.957 9.578,7.000 8.360 C 7.038 7.254,7.077 6.967,7.266 6.400 C 7.777 4.863,9.129 3.587,10.680 3.178 C 11.392 2.991,12.314 2.959,12.980 3.099 M10.000 20.035 C 9.557 20.179,9.283 20.549,9.281 21.004 C 9.280 21.349,9.453 21.660,9.897 22.104 C 10.204 22.413,10.318 22.497,10.640 22.654 C 11.164 22.910,11.442 22.976,12.000 22.976 C 12.558 22.976,12.836 22.910,13.360 22.654 C 13.682 22.497,13.796 22.413,14.103 22.104 C 14.689 21.518,14.848 21.067,14.637 20.600 C 14.461 20.212,14.170 20.024,13.740 20.022 C 13.319 20.019,13.125 20.136,12.789 20.598 C 12.412 21.114,11.588 21.114,11.211 20.598 C 11.008 20.319,10.866 20.181,10.696 20.100 C 10.525 20.018,10.158 19.984,10.000 20.035 " stroke="none" fill="black" fill-rule="evenodd"></path></svg>