<svg xmlns="http://www.w3.org/2000/svg" width="24" height="24" viewBox="0 0 24 24" fill="none" stroke="currentColor" stroke-width="2" stroke-linecap="round" stroke-linejoin="round"><path d="M6.620 2.025 C 6.212 2.105,6.087 2.139,5.870 2.227 C 5.164 2.514,4.528 3.137,4.250 3.815 C 4.003 4.417,4.023 3.668,4.010 12.798 C 3.997 22.164,3.972 21.374,4.298 21.700 C 4.572 21.974,4.964 22.066,5.321 21.939 C 5.418 21.905,6.909 20.868,8.749 19.554 L 12.005 17.228 12.112 17.306 C 14.345 18.925,18.558 21.897,18.682 21.941 C 19.036 22.066,19.429 21.973,19.702 21.700 C 20.028 21.374,20.003 22.164,19.990 12.798 C 19.977 3.710,19.995 4.423,19.763 3.845 C 19.396 2.929,18.476 2.204,17.480 2.043 C 17.234 2.003,6.818 1.986,6.620 2.025 M17.340 4.066 C 17.456 4.106,17.603 4.201,17.702 4.300 C 18.025 4.623,18.001 3.988,17.990 11.951 L 17.980 19.040 15.220 17.069 C 13.468 15.818,12.400 15.080,12.295 15.049 C 12.087 14.987,11.913 14.987,11.705 15.049 C 11.600 15.080,10.546 15.808,8.819 17.041 C 7.323 18.110,6.076 18.998,6.049 19.015 C 6.009 19.039,6.001 17.566,6.010 11.873 L 6.020 4.700 6.131 4.511 C 6.256 4.298,6.449 4.136,6.670 4.057 C 6.792 4.013,7.774 4.003,11.983 4.002 C 16.686 4.000,17.163 4.006,17.340 4.066 " stroke="none" fill="black" fill-rule="evenodd"></path></svg>