<svg xmlns="http://www.w3.org/2000/svg" width="24" height="24" viewBox="0 0 24 24" fill="none" stroke="currentColor" stroke-width="2" stroke-linecap="round" stroke-linejoin="round"><path d="M11.495 1.041 C 11.021 1.127,10.624 1.335,6.982 3.413 L 3.260 5.536 2.868 5.928 C 2.466 6.329,2.323 6.557,2.144 7.091 C 2.004 7.509,1.997 7.767,2.009 12.180 L 2.020 16.540 2.152 16.920 C 2.328 17.425,2.571 17.804,2.949 18.164 C 3.243 18.443,3.471 18.580,6.880 20.527 C 8.871 21.664,10.590 22.639,10.700 22.694 C 10.944 22.816,11.832 23.080,11.997 23.080 C 12.140 23.080,12.764 22.910,13.106 22.778 C 13.335 22.690,20.080 18.865,20.624 18.515 C 20.931 18.318,21.380 17.854,21.571 17.538 C 21.651 17.405,21.776 17.126,21.848 16.918 L 21.980 16.540 21.980 12.020 L 21.980 7.500 21.886 7.200 C 21.762 6.805,21.588 6.425,21.458 6.267 C 21.229 5.989,20.889 5.663,20.680 5.522 C 20.559 5.441,18.847 4.453,16.877 3.328 C 12.846 1.028,12.883 1.046,12.125 1.019 C 11.891 1.011,11.608 1.020,11.495 1.041 M12.305 3.056 C 12.390 3.087,13.923 3.948,15.710 4.970 L 18.961 6.829 15.510 8.824 C 13.613 9.922,12.032 10.819,11.997 10.818 C 11.963 10.816,10.523 9.999,8.797 9.001 C 7.072 8.003,5.520 7.106,5.350 7.008 L 5.039 6.829 8.290 4.970 C 10.077 3.948,11.603 3.088,11.680 3.058 C 11.866 2.988,12.114 2.987,12.305 3.056 M7.537 10.580 L 10.998 12.580 10.999 16.570 C 11.000 18.765,10.993 20.560,10.985 20.560 C 10.976 20.560,9.487 19.714,7.675 18.679 C 5.342 17.348,4.343 16.757,4.252 16.656 C 3.989 16.360,4.000 16.541,4.000 12.350 C 4.000 9.999,4.014 8.558,4.038 8.567 C 4.058 8.574,5.633 9.480,7.537 10.580 M20.000 12.353 C 20.000 16.541,20.011 16.360,19.748 16.656 C 19.657 16.757,18.658 17.348,16.325 18.679 C 14.513 19.714,13.024 20.560,13.015 20.560 C 13.007 20.560,13.001 18.765,13.001 16.570 L 13.003 12.580 13.511 12.289 C 13.791 12.129,15.352 11.226,16.980 10.282 C 18.608 9.338,19.953 8.565,19.970 8.563 C 19.987 8.561,20.000 10.267,20.000 12.353 " stroke="none" fill="black" fill-rule="evenodd"></path></svg>