<svg xmlns="http://www.w3.org/2000/svg" width="24" height="24" viewBox="0 0 24 24" fill="none" stroke="currentColor" stroke-width="2" stroke-linecap="round" stroke-linejoin="round"><path d="M3.620 3.025 C 3.212 3.105,3.087 3.139,2.870 3.227 C 2.164 3.514,1.528 4.137,1.250 4.815 C 1.033 5.344,1.029 5.377,1.011 6.790 C 0.991 8.321,1.004 8.406,1.298 8.700 C 1.778 9.180,2.590 9.052,2.886 8.450 C 2.977 8.266,2.981 8.221,3.000 6.980 L 3.020 5.700 3.131 5.511 C 3.256 5.298,3.449 5.136,3.670 5.057 C 3.793 5.013,5.268 5.003,11.983 5.002 C 21.146 5.000,20.376 4.974,20.701 5.299 C 21.023 5.621,21.000 5.097,21.000 12.000 C 21.000 18.903,21.023 18.379,20.701 18.701 C 20.390 19.013,20.544 19.000,17.000 19.000 C 13.456 19.000,13.610 18.987,13.299 19.299 C 12.908 19.690,12.908 20.310,13.299 20.701 C 13.611 21.013,13.451 21.000,17.037 21.000 C 19.033 21.000,20.315 20.984,20.474 20.958 C 21.660 20.766,22.621 19.872,22.924 18.680 C 23.007 18.353,23.008 5.647,22.924 5.323 C 22.617 4.126,21.660 3.233,20.480 3.043 C 20.234 3.003,3.820 2.986,3.620 3.025 M1.773 11.078 C 1.034 11.254,0.756 12.175,1.275 12.734 C 1.449 12.922,1.659 13.000,2.253 13.100 C 3.957 13.386,5.389 14.103,6.581 15.266 C 7.843 16.498,8.626 18.028,8.914 19.824 C 9.019 20.475,9.146 20.707,9.495 20.887 C 10.086 21.191,10.819 20.818,10.936 20.153 C 11.006 19.760,10.681 18.290,10.317 17.358 C 9.017 14.022,5.992 11.621,2.435 11.102 C 1.972 11.034,1.959 11.034,1.773 11.078 M1.617 15.174 C 1.049 15.434,0.832 16.145,1.170 16.640 C 1.340 16.890,1.529 17.003,1.985 17.127 C 3.431 17.520,4.488 18.569,4.864 19.986 C 4.988 20.451,5.030 20.539,5.207 20.706 C 5.429 20.915,5.589 20.978,5.900 20.978 C 6.231 20.978,6.429 20.890,6.648 20.648 C 6.840 20.436,6.894 20.252,6.869 19.905 C 6.839 19.493,6.674 18.974,6.383 18.380 C 5.786 17.162,4.888 16.248,3.702 15.652 C 2.842 15.219,1.960 15.017,1.617 15.174 M1.643 19.066 C 1.288 19.197,1.000 19.615,1.000 20.000 C 1.000 20.729,1.814 21.222,2.465 20.887 C 3.176 20.522,3.173 19.477,2.461 19.111 C 2.250 19.002,1.873 18.982,1.643 19.066 " stroke="none" fill="black" fill-rule="evenodd"></path></svg>