<svg xmlns="http://www.w3.org/2000/svg" width="24" height="24" viewBox="0 0 24 24" fill="none" stroke="currentColor" stroke-width="2" stroke-linecap="round" stroke-linejoin="round"><path d="M14.640 5.068 C 14.484 5.121,14.037 5.551,11.329 8.255 C 9.071 10.508,8.174 11.429,8.113 11.556 C 7.994 11.800,7.976 12.065,8.060 12.326 C 8.126 12.529,8.290 12.701,11.255 15.671 C 13.508 17.929,14.429 18.826,14.556 18.887 C 14.947 19.078,15.398 19.005,15.700 18.702 C 15.979 18.423,16.064 18.047,15.935 17.657 C 15.876 17.478,15.623 17.212,13.146 14.730 L 10.421 12.000 13.146 9.270 C 15.623 6.788,15.876 6.522,15.935 6.343 C 16.064 5.953,15.979 5.577,15.701 5.299 C 15.424 5.021,15.028 4.935,14.640 5.068 " stroke="none" fill="black" fill-rule="evenodd"></path></svg>