<svg xmlns="http://www.w3.org/2000/svg" width="24" height="24" viewBox="0 0 24 24" fill="none" stroke="currentColor" stroke-width="2" stroke-linecap="round" stroke-linejoin="round"><path d="M8.643 5.069 C 8.291 5.193,8.000 5.614,8.000 6.000 C 8.000 6.080,8.029 6.234,8.065 6.343 C 8.124 6.522,8.377 6.788,10.854 9.270 L 13.579 12.000 10.854 14.730 C 8.377 17.212,8.124 17.478,8.065 17.657 C 7.936 18.047,8.021 18.423,8.300 18.702 C 8.602 19.005,9.053 19.078,9.444 18.887 C 9.571 18.826,10.492 17.929,12.745 15.671 C 15.710 12.701,15.874 12.529,15.940 12.326 C 16.024 12.065,16.006 11.800,15.887 11.556 C 15.826 11.429,14.929 10.509,12.671 8.255 C 9.816 5.405,9.523 5.124,9.343 5.065 C 9.101 4.985,8.876 4.987,8.643 5.069 " stroke="none" fill="black" fill-rule="evenodd"></path></svg>