<svg xmlns="http://www.w3.org/2000/svg" width="24" height="24" viewBox="0 0 24 24" fill="none" stroke="currentColor" stroke-width="2" stroke-linecap="round" stroke-linejoin="round"><path d="M10.640 6.068 C 10.485 6.121,10.095 6.494,7.829 8.755 C 5.942 10.637,5.174 11.430,5.113 11.556 C 4.994 11.800,4.976 12.065,5.060 12.326 C 5.126 12.528,5.274 12.685,7.755 15.171 C 9.637 17.058,10.430 17.826,10.556 17.887 C 10.947 18.078,11.398 18.005,11.700 17.702 C 11.979 17.423,12.064 17.047,11.935 16.657 C 11.876 16.479,11.657 16.247,9.646 14.230 L 7.422 12.000 9.646 9.770 C 11.657 7.753,11.876 7.521,11.935 7.343 C 12.064 6.953,11.979 6.577,11.701 6.299 C 11.424 6.021,11.028 5.935,10.640 6.068 M17.640 6.068 C 17.485 6.121,17.095 6.494,14.829 8.755 C 12.942 10.637,12.174 11.430,12.113 11.556 C 11.994 11.800,11.976 12.065,12.060 12.326 C 12.126 12.528,12.274 12.685,14.755 15.171 C 16.637 17.058,17.430 17.826,17.556 17.887 C 17.947 18.078,18.398 18.005,18.700 17.702 C 18.979 17.423,19.064 17.047,18.935 16.657 C 18.876 16.479,18.657 16.247,16.646 14.230 L 14.422 12.000 16.646 9.770 C 18.657 7.753,18.876 7.521,18.935 7.343 C 19.064 6.953,18.979 6.577,18.701 6.299 C 18.424 6.021,18.028 5.935,17.640 6.068 " stroke="none" fill="black" fill-rule="evenodd"></path></svg>