<svg xmlns="http://www.w3.org/2000/svg" width="24" height="24" viewBox="0 0 24 24" fill="none" stroke="currentColor" stroke-width="2" stroke-linecap="round" stroke-linejoin="round"><path d="M8.643 0.069 C 8.407 0.152,8.149 0.416,8.066 0.660 C 8.011 0.822,8.000 1.033,8.000 1.924 L 8.000 2.993 6.730 3.011 C 5.397 3.029,5.348 3.035,4.845 3.237 C 4.173 3.506,3.523 4.149,3.250 4.815 C 3.034 5.340,3.029 5.383,3.011 6.730 L 2.993 8.000 1.924 8.000 C 0.692 8.000,0.577 8.021,0.299 8.299 C -0.092 8.690,-0.092 9.310,0.299 9.701 C 0.577 9.979,0.692 10.000,1.927 10.000 L 3.000 10.000 3.000 11.500 L 3.000 13.000 1.927 13.000 C 0.692 13.000,0.577 13.021,0.299 13.299 C -0.092 13.690,-0.092 14.310,0.299 14.701 C 0.577 14.979,0.692 15.000,1.925 15.000 L 2.995 15.000 3.010 16.770 C 3.023 18.225,3.037 18.576,3.088 18.740 C 3.436 19.860,4.156 20.580,5.260 20.912 C 5.414 20.958,5.755 20.976,6.730 20.989 L 8.000 21.007 8.000 22.076 C 8.000 23.308,8.021 23.423,8.299 23.701 C 8.690 24.092,9.310 24.092,9.701 23.701 C 9.979 23.423,10.000 23.308,10.000 22.073 L 10.000 21.000 12.000 21.000 L 14.000 21.000 14.000 22.073 C 14.000 23.308,14.021 23.423,14.299 23.701 C 14.690 24.092,15.310 24.092,15.701 23.701 C 15.979 23.423,16.000 23.308,16.000 22.073 L 16.000 21.000 17.110 21.000 C 17.721 21.000,18.335 20.981,18.476 20.958 C 19.479 20.795,20.362 20.100,20.759 19.160 C 20.973 18.652,20.973 18.657,20.990 16.770 L 21.005 15.000 22.075 15.000 C 23.308 15.000,23.423 14.979,23.701 14.701 C 24.092 14.310,24.092 13.690,23.701 13.299 C 23.423 13.021,23.308 13.000,22.073 13.000 L 21.000 13.000 21.000 11.500 L 21.000 10.000 22.073 10.000 C 23.308 10.000,23.423 9.979,23.701 9.701 C 24.092 9.310,24.092 8.690,23.701 8.299 C 23.423 8.021,23.308 8.000,22.076 8.000 L 21.007 8.000 20.989 6.730 C 20.971 5.397,20.965 5.348,20.763 4.845 C 20.472 4.119,19.754 3.436,19.010 3.178 C 18.576 3.028,18.286 3.001,17.110 3.000 L 16.000 3.000 16.000 1.927 C 16.000 1.033,15.989 0.822,15.934 0.660 C 15.808 0.291,15.396 0.000,15.000 0.000 C 14.604 0.000,14.192 0.291,14.066 0.660 C 14.011 0.822,14.000 1.033,14.000 1.927 L 14.000 3.000 12.000 3.000 L 10.000 3.000 10.000 1.927 C 10.000 0.692,9.979 0.577,9.701 0.299 C 9.424 0.021,9.024 -0.066,8.643 0.069 M18.340 5.066 C 18.455 5.105,18.603 5.201,18.701 5.299 C 19.023 5.621,19.000 5.097,19.000 12.000 C 19.000 18.903,19.023 18.379,18.701 18.701 C 18.379 19.023,18.903 19.000,12.000 19.000 C 5.095 19.000,5.621 19.024,5.298 18.700 C 4.975 18.377,4.998 18.908,5.010 11.918 L 5.020 5.700 5.131 5.511 C 5.256 5.298,5.449 5.136,5.670 5.057 C 5.793 5.013,6.939 5.003,11.983 5.002 C 17.617 5.000,18.162 5.006,18.340 5.066 M8.643 8.069 C 8.546 8.103,8.392 8.206,8.300 8.298 C 7.987 8.611,8.000 8.455,8.000 12.000 C 8.000 15.544,7.987 15.390,8.299 15.701 C 8.610 16.013,8.456 16.000,12.000 16.000 C 15.544 16.000,15.390 16.013,15.701 15.701 C 16.013 15.390,16.000 15.544,16.000 12.000 C 16.000 8.456,16.013 8.610,15.701 8.299 C 15.389 7.987,15.547 8.000,11.983 8.003 C 9.226 8.006,8.797 8.014,8.643 8.069 M14.000 12.000 L 14.000 14.000 12.000 14.000 L 10.000 14.000 10.000 12.000 L 10.000 10.000 12.000 10.000 L 14.000 10.000 14.000 12.000 " stroke="none" fill="black" fill-rule="evenodd"></path></svg>