<svg xmlns="http://www.w3.org/2000/svg" width="24" height="24" viewBox="0 0 24 24" fill="none" stroke="currentColor" stroke-width="2" stroke-linecap="round" stroke-linejoin="round"><path d="M11.643 0.069 C 11.407 0.152,11.149 0.416,11.066 0.660 C 11.009 0.828,11.000 1.068,11.000 2.423 L 11.000 3.992 9.910 4.010 C 8.901 4.027,8.791 4.036,8.437 4.130 C 6.752 4.578,5.581 5.749,5.129 7.437 C 5.038 7.777,5.027 7.897,5.027 8.500 C 5.027 9.103,5.038 9.223,5.129 9.563 C 5.581 11.250,6.753 12.422,8.437 12.870 C 8.791 12.964,8.901 12.973,9.910 12.990 L 11.000 13.008 11.000 15.504 L 11.000 18.000 8.427 18.000 C 5.523 18.000,5.606 17.992,5.299 18.299 C 4.908 18.690,4.908 19.310,5.299 19.701 C 5.606 20.008,5.523 20.000,8.427 20.000 L 11.000 20.000 11.000 21.573 C 11.000 23.362,11.006 23.409,11.299 23.701 C 11.690 24.092,12.310 24.092,12.701 23.701 C 12.994 23.409,13.000 23.362,13.000 21.573 L 13.000 20.000 13.897 20.000 C 14.882 20.000,15.237 19.965,15.755 19.814 C 17.882 19.198,19.261 17.081,18.957 14.897 C 18.713 13.140,17.451 11.677,15.755 11.186 C 15.237 11.035,14.882 11.000,13.897 11.000 L 13.000 11.000 13.000 8.500 L 13.000 6.000 15.073 6.000 C 17.419 6.000,17.400 6.002,17.701 5.701 C 18.092 5.310,18.092 4.690,17.701 4.299 C 17.400 3.998,17.419 4.000,15.073 4.000 L 13.000 4.000 13.000 2.427 C 13.000 0.638,12.994 0.591,12.701 0.299 C 12.424 0.021,12.024 -0.066,11.643 0.069 M11.000 8.500 L 11.000 11.000 10.130 10.999 C 9.108 10.998,8.855 10.958,8.362 10.715 C 7.550 10.315,7.001 9.421,7.001 8.500 C 7.001 7.579,7.550 6.686,8.362 6.285 C 8.853 6.043,9.074 6.007,10.110 6.003 L 11.000 6.000 11.000 8.500 M15.020 13.060 C 16.355 13.339,17.222 14.675,16.940 16.020 C 16.790 16.736,16.280 17.398,15.633 17.718 C 15.146 17.958,14.890 17.998,13.870 17.999 L 13.000 18.000 13.000 15.500 L 13.000 13.000 13.870 13.001 C 14.477 13.001,14.824 13.019,15.020 13.060 " stroke="none" fill="black" fill-rule="evenodd"></path></svg>