<svg xmlns="http://www.w3.org/2000/svg" width="24" height="24" viewBox="0 0 24 24" fill="none" stroke="currentColor" stroke-width="2" stroke-linecap="round" stroke-linejoin="round"><path d="M15.100 1.046 C 14.424 1.131,13.483 1.419,12.861 1.730 C 12.543 1.890,12.052 2.196,11.748 2.426 C 11.389 2.695,4.213 9.867,4.107 10.060 L 4.020 10.220 4.009 14.400 L 3.999 18.579 2.565 20.020 C 1.290 21.301,1.124 21.482,1.065 21.657 C 0.936 22.046,1.021 22.423,1.299 22.701 C 1.577 22.979,1.954 23.064,2.343 22.935 C 2.518 22.876,2.699 22.710,3.980 21.435 L 5.421 20.001 9.600 19.991 L 13.780 19.980 13.940 19.893 C 14.163 19.772,21.239 12.672,21.549 12.259 C 23.030 10.285,23.401 7.744,22.535 5.503 C 21.606 3.095,19.462 1.396,16.928 1.059 C 16.460 0.996,15.542 0.990,15.100 1.046 M16.787 3.060 C 18.364 3.316,19.756 4.334,20.459 5.747 C 20.837 6.505,20.978 7.118,20.978 8.000 C 20.978 8.865,20.835 9.489,20.470 10.220 C 20.153 10.854,19.956 11.087,18.483 12.570 L 17.064 14.000 14.242 14.000 L 11.421 14.000 14.146 11.270 C 16.623 8.788,16.876 8.522,16.935 8.343 C 17.064 7.953,16.979 7.577,16.701 7.299 C 16.423 7.021,16.047 6.937,15.657 7.065 C 15.476 7.124,15.074 7.515,10.730 11.854 L 6.000 16.579 6.000 13.739 L 6.000 10.898 9.350 7.555 C 11.193 5.717,12.808 4.132,12.940 4.034 C 13.635 3.514,14.466 3.161,15.266 3.044 C 15.647 2.988,16.394 2.996,16.787 3.060 M14.859 16.210 C 14.750 16.325,14.310 16.776,13.881 17.210 L 13.101 18.000 10.261 18.000 L 7.421 18.000 8.420 17.000 L 9.419 16.000 12.238 16.000 L 15.057 16.000 14.859 16.210 " stroke="none" fill="black" fill-rule="evenodd"></path></svg>