<svg xmlns="http://www.w3.org/2000/svg" width="24" height="24" viewBox="0 0 24 24" fill="none" stroke="currentColor" stroke-width="2" stroke-linecap="round" stroke-linejoin="round"><path d="M11.260 7.056 C 9.695 7.319,8.419 8.197,7.650 9.540 C 7.457 9.878,7.226 10.455,7.157 10.770 L 7.107 11.000 4.000 11.000 C 1.749 11.000,0.854 11.013,0.756 11.046 C 0.153 11.252,-0.119 11.925,0.180 12.474 C 0.301 12.696,0.510 12.870,0.756 12.954 C 0.854 12.987,1.749 13.000,4.000 13.000 L 7.107 13.000 7.157 13.230 C 7.185 13.357,7.271 13.620,7.348 13.816 C 7.980 15.415,9.327 16.543,11.040 16.907 C 11.511 17.007,12.489 17.007,12.960 16.907 C 14.204 16.642,15.269 15.970,16.006 14.984 C 16.315 14.570,16.694 13.800,16.809 13.350 L 16.899 13.000 20.003 13.000 C 23.499 13.000,23.350 13.012,23.661 12.701 C 24.052 12.310,24.052 11.690,23.661 11.299 C 23.350 10.988,23.500 11.000,19.999 11.000 L 16.893 11.000 16.843 10.770 C 16.815 10.643,16.729 10.380,16.652 10.184 C 16.021 8.588,14.671 7.454,12.980 7.099 C 12.554 7.009,11.670 6.988,11.260 7.056 M12.592 9.063 C 14.213 9.396,15.267 10.981,14.937 12.592 C 14.604 14.213,13.017 15.268,11.408 14.936 C 9.556 14.555,8.508 12.579,9.235 10.839 C 9.781 9.535,11.208 8.780,12.592 9.063 " stroke="none" fill="black" fill-rule="evenodd"></path></svg>