<svg xmlns="http://www.w3.org/2000/svg" width="24" height="24" viewBox="0 0 24 24" fill="none" stroke="currentColor" stroke-width="2" stroke-linecap="round" stroke-linejoin="round"><path d="M4.803 0.047 C 4.525 0.127,4.331 0.303,4.184 0.611 C 4.023 0.950,3.872 1.437,3.773 1.940 C 3.667 2.476,3.676 3.604,3.790 4.131 L 3.874 4.522 3.613 4.911 C 3.104 5.672,2.748 6.555,2.598 7.433 C 2.539 7.779,2.520 8.078,2.520 8.682 C 2.520 11.142,3.176 12.982,4.537 14.343 C 5.403 15.208,6.405 15.761,7.837 16.163 C 8.066 16.227,8.261 16.288,8.271 16.297 C 8.280 16.307,8.249 16.433,8.201 16.578 C 8.073 16.962,8.003 17.407,8.001 17.846 L 8.000 18.232 7.656 18.281 C 7.176 18.349,6.452 18.313,6.117 18.206 C 5.812 18.107,5.439 17.877,5.154 17.611 C 5.044 17.507,4.702 17.112,4.394 16.733 C 3.769 15.961,3.392 15.590,2.994 15.354 C 2.677 15.165,2.214 15.000,2.003 15.000 C 1.604 15.000,1.192 15.290,1.066 15.660 C 0.877 16.215,1.144 16.747,1.718 16.956 C 2.037 17.073,2.262 17.279,2.811 17.959 C 3.776 19.155,4.309 19.615,5.138 19.970 C 5.669 20.197,6.116 20.287,6.820 20.308 C 7.172 20.319,7.582 20.311,7.730 20.291 L 8.000 20.254 8.000 21.200 C 8.000 22.295,8.027 22.429,8.299 22.701 C 8.690 23.092,9.310 23.092,9.701 22.701 C 10.005 22.397,10.000 22.444,10.000 19.861 C 10.000 17.334,9.999 17.348,10.259 16.820 C 10.335 16.666,10.489 16.434,10.600 16.305 C 10.855 16.010,10.920 15.854,10.919 15.545 C 10.918 15.258,10.830 15.036,10.642 14.848 C 10.439 14.645,10.316 14.601,9.666 14.499 C 8.051 14.246,7.114 13.891,6.236 13.200 C 5.414 12.552,4.889 11.575,4.632 10.211 C 4.556 9.807,4.543 9.600,4.542 8.760 C 4.540 7.857,4.547 7.753,4.633 7.441 C 4.821 6.750,5.136 6.142,5.555 5.660 C 6.014 5.131,6.080 4.881,5.904 4.326 C 5.767 3.893,5.680 3.382,5.680 3.016 C 5.680 2.695,5.749 2.163,5.801 2.078 C 5.885 1.942,7.101 2.475,8.070 3.073 C 8.826 3.540,8.843 3.543,9.606 3.363 C 11.556 2.903,13.466 2.901,15.380 3.358 C 15.660 3.425,15.947 3.480,16.019 3.480 C 16.228 3.480,16.433 3.389,16.946 3.067 C 17.685 2.604,18.635 2.153,19.067 2.062 C 19.212 2.031,19.214 2.035,19.278 2.440 C 19.368 3.008,19.305 3.665,19.096 4.326 C 19.016 4.577,18.996 4.709,19.012 4.864 C 19.036 5.093,19.146 5.339,19.279 5.459 C 19.442 5.606,19.804 6.119,19.980 6.451 C 20.352 7.153,20.480 7.720,20.480 8.675 C 20.480 10.935,19.795 12.541,18.444 13.445 C 17.693 13.948,16.762 14.261,15.417 14.462 C 14.708 14.568,14.542 14.627,14.332 14.846 C 14.156 15.030,14.080 15.234,14.080 15.520 C 14.080 15.829,14.141 15.970,14.419 16.307 C 14.543 16.457,14.697 16.688,14.761 16.820 C 14.999 17.308,15.000 17.321,15.000 19.841 C 15.000 22.446,14.995 22.397,15.299 22.701 C 15.690 23.092,16.310 23.092,16.701 22.701 C 17.006 22.396,17.000 22.453,16.999 19.783 C 16.997 17.275,16.986 17.100,16.799 16.538 C 16.751 16.393,16.718 16.271,16.726 16.266 C 16.734 16.261,16.875 16.224,17.040 16.184 C 17.917 15.969,18.873 15.558,19.580 15.090 C 20.121 14.733,20.853 13.999,21.212 13.457 C 21.709 12.706,22.096 11.754,22.275 10.840 C 22.439 9.998,22.460 9.757,22.459 8.680 C 22.459 7.733,22.449 7.578,22.371 7.230 C 22.176 6.367,21.854 5.608,21.387 4.911 L 21.126 4.522 21.210 4.131 C 21.324 3.604,21.333 2.476,21.227 1.940 C 21.128 1.437,20.977 0.950,20.816 0.611 C 20.665 0.295,20.476 0.127,20.179 0.045 C 19.947 -0.020,19.205 -0.010,18.848 0.063 C 18.127 0.210,17.053 0.660,16.205 1.172 L 15.830 1.399 15.345 1.301 C 13.489 0.926,11.515 0.927,9.666 1.301 L 9.173 1.401 8.797 1.173 C 7.959 0.668,6.861 0.206,6.152 0.062 C 5.809 -0.007,5.022 -0.016,4.803 0.047 " stroke="none" fill="black" fill-rule="evenodd"></path></svg>