<svg xmlns="http://www.w3.org/2000/svg" width="24" height="24" viewBox="0 0 24 24" fill="none" stroke="currentColor" stroke-width="2" stroke-linecap="round" stroke-linejoin="round"><path d="M6.738 3.043 C 5.957 3.176,5.154 3.705,4.730 4.367 C 4.655 4.484,3.784 6.197,2.795 8.174 L 0.997 11.768 1.010 15.154 C 1.022 18.109,1.032 18.565,1.087 18.740 C 1.444 19.867,2.136 20.559,3.260 20.915 C 3.439 20.972,4.326 20.980,11.820 20.990 C 17.509 20.998,20.267 20.989,20.453 20.960 C 21.467 20.805,22.358 20.109,22.759 19.160 C 22.987 18.621,22.975 18.814,22.990 15.154 L 23.003 11.768 21.218 8.196 C 20.236 6.232,19.370 4.525,19.293 4.402 C 19.004 3.944,18.464 3.476,17.979 3.261 C 17.402 3.006,17.813 3.023,12.120 3.015 C 9.271 3.012,6.849 3.024,6.738 3.043 M17.096 5.065 C 17.478 5.195,17.480 5.198,18.975 8.190 C 19.737 9.713,20.360 10.969,20.360 10.980 C 20.360 10.991,19.345 11.000,18.105 11.000 C 15.671 11.000,15.664 11.001,15.383 11.215 C 15.315 11.267,14.857 11.914,14.364 12.654 L 13.467 14.000 12.000 14.000 L 10.533 14.000 9.636 12.654 C 9.143 11.914,8.685 11.267,8.617 11.215 C 8.336 11.001,8.329 11.000,5.895 11.000 C 4.655 11.000,3.641 10.987,3.642 10.970 C 3.643 10.954,4.278 9.681,5.052 8.141 C 6.564 5.136,6.530 5.192,6.905 5.059 C 7.034 5.013,7.901 5.003,11.983 5.002 C 16.424 5.000,16.924 5.006,17.096 5.065 M8.364 14.346 C 8.857 15.086,9.315 15.733,9.383 15.785 C 9.663 15.999,9.680 16.000,12.000 16.000 C 14.320 16.000,14.337 15.999,14.617 15.785 C 14.685 15.733,15.143 15.086,15.636 14.346 L 16.533 13.000 18.766 13.000 L 21.000 13.000 21.000 15.573 C 21.000 18.477,21.008 18.394,20.701 18.701 C 20.376 19.026,21.144 19.000,12.000 19.000 C 2.856 19.000,3.624 19.026,3.299 18.701 C 2.992 18.394,3.000 18.477,3.000 15.573 L 3.000 13.000 5.234 13.000 L 7.467 13.000 8.364 14.346 " stroke="none" fill="black" fill-rule="evenodd"></path></svg>