<svg xmlns="http://www.w3.org/2000/svg" width="24" height="24" viewBox="0 0 24 24" fill="none" stroke="currentColor" stroke-width="2" stroke-linecap="round" stroke-linejoin="round"><path d="M11.160 1.025 C 9.599 1.172,8.162 1.588,6.889 2.261 C 4.029 3.775,1.954 6.483,1.265 9.600 C 1.070 10.487,1.023 10.948,1.023 12.000 C 1.023 13.052,1.070 13.513,1.265 14.400 C 2.176 18.525,5.468 21.815,9.606 22.735 C 10.477 22.929,10.947 22.976,12.000 22.976 C 13.053 22.976,13.523 22.929,14.394 22.735 C 18.537 21.814,21.814 18.537,22.735 14.394 C 22.929 13.523,22.976 13.053,22.976 12.000 C 22.976 10.947,22.929 10.477,22.735 9.606 C 21.831 5.541,18.676 2.319,14.620 1.318 C 13.811 1.118,13.154 1.038,12.200 1.022 C 11.727 1.015,11.259 1.016,11.160 1.025 M12.863 3.043 C 13.919 3.145,15.019 3.459,15.963 3.926 C 16.489 4.186,17.384 4.747,17.529 4.907 C 17.595 4.980,17.546 5.035,16.178 6.402 L 14.759 7.820 14.570 7.708 C 13.764 7.232,12.974 7.021,12.000 7.021 C 11.000 7.021,10.282 7.219,9.371 7.745 L 9.241 7.820 7.822 6.402 C 6.486 5.066,6.407 4.979,6.468 4.912 C 6.617 4.746,7.531 4.175,8.055 3.919 C 9.553 3.187,11.223 2.883,12.863 3.043 M7.744 9.370 C 7.225 10.259,7.021 11.002,7.021 12.000 C 7.021 13.000,7.219 13.718,7.745 14.629 L 7.820 14.759 6.402 16.178 C 5.035 17.546,4.980 17.595,4.907 17.529 C 4.742 17.380,4.177 16.474,3.917 15.942 C 2.697 13.443,2.697 10.552,3.917 8.060 C 4.188 7.506,4.557 6.903,4.831 6.566 L 4.972 6.392 6.396 7.816 L 7.820 9.241 7.744 9.370 M19.489 7.018 C 21.257 9.662,21.484 13.076,20.083 15.942 C 19.823 16.475,19.258 17.380,19.093 17.529 C 19.020 17.595,18.965 17.546,17.603 16.183 L 16.190 14.769 16.455 14.235 C 17.245 12.638,17.176 10.966,16.255 9.371 L 16.180 9.241 17.598 7.822 C 18.965 6.454,19.020 6.405,19.093 6.471 C 19.135 6.509,19.313 6.755,19.489 7.018 M12.591 9.064 C 13.195 9.188,13.602 9.406,14.069 9.854 C 14.543 10.309,14.807 10.782,14.936 11.409 C 15.088 12.141,14.943 12.957,14.552 13.576 C 14.369 13.866,13.910 14.331,13.622 14.519 C 12.631 15.165,11.306 15.152,10.331 14.487 C 10.052 14.297,9.625 13.856,9.448 13.576 C 9.057 12.957,8.912 12.141,9.064 11.409 C 9.187 10.813,9.405 10.401,9.839 9.945 C 10.569 9.178,11.579 8.854,12.591 9.064 M9.551 16.352 C 10.773 17.044,12.250 17.184,13.595 16.736 C 13.868 16.645,14.322 16.434,14.629 16.255 L 14.759 16.180 16.178 17.598 C 17.546 18.965,17.595 19.020,17.529 19.093 C 17.380 19.258,16.475 19.823,15.942 20.083 C 13.441 21.306,10.544 21.302,8.042 20.072 C 7.512 19.812,6.712 19.315,6.489 19.108 L 6.397 19.023 7.808 17.612 C 8.585 16.835,9.234 16.200,9.251 16.200 C 9.268 16.200,9.403 16.268,9.551 16.352 " stroke="none" fill="black" fill-rule="evenodd"></path></svg>