<svg xmlns="http://www.w3.org/2000/svg" width="24" height="24" viewBox="0 0 24 24" fill="none" stroke="currentColor" stroke-width="2" stroke-linecap="round" stroke-linejoin="round"><path d="M3.620 1.025 C 3.212 1.105,3.087 1.139,2.870 1.227 C 1.989 1.585,1.319 2.366,1.077 3.320 C 1.004 3.605,1.004 4.394,1.076 4.677 C 1.269 5.436,1.737 6.099,2.360 6.499 C 2.836 6.804,3.253 6.945,3.800 6.985 C 5.241 7.090,6.561 6.116,6.924 4.680 C 6.996 4.395,6.996 3.605,6.924 3.323 C 6.620 2.129,5.660 1.233,4.480 1.043 C 4.228 1.002,3.783 0.993,3.620 1.025 M4.340 3.066 C 4.709 3.192,5.000 3.604,5.000 4.000 C 5.000 4.527,4.527 5.000,4.000 5.000 C 3.593 5.000,3.189 4.708,3.060 4.321 C 2.794 3.520,3.536 2.792,4.340 3.066 M15.100 7.062 C 14.567 7.134,14.062 7.258,13.600 7.429 C 11.076 8.366,9.349 10.575,9.042 13.260 C 9.016 13.482,9.001 15.066,9.000 17.383 C 9.000 21.618,8.984 21.386,9.299 21.701 C 9.601 22.003,9.573 22.000,12.000 22.000 C 14.427 22.000,14.399 22.003,14.701 21.701 C 15.015 21.387,15.000 21.605,15.002 17.483 C 15.003 14.528,15.014 13.791,15.057 13.670 C 15.303 12.982,16.184 12.782,16.700 13.298 C 17.016 13.613,17.000 13.395,17.000 17.500 C 17.000 21.604,16.985 21.387,17.299 21.701 C 17.601 22.003,17.573 22.000,20.000 22.000 C 22.427 22.000,22.399 22.003,22.701 21.701 C 23.016 21.386,23.000 21.618,23.000 17.383 C 22.999 15.066,22.984 13.482,22.958 13.260 C 22.727 11.241,21.695 9.478,20.048 8.290 C 19.608 7.973,18.706 7.521,18.160 7.344 C 17.170 7.025,16.106 6.926,15.100 7.062 M1.643 8.069 C 1.546 8.103,1.392 8.206,1.300 8.298 C 0.976 8.621,1.000 8.096,1.000 15.000 C 1.000 21.903,0.977 21.379,1.299 21.701 C 1.601 22.003,1.573 22.000,4.000 22.000 C 6.427 22.000,6.399 22.003,6.701 21.701 C 7.023 21.379,7.000 21.903,7.000 15.000 C 7.000 8.097,7.023 8.621,6.701 8.299 C 6.398 7.996,6.430 8.000,3.983 8.003 C 2.132 8.006,1.795 8.015,1.643 8.069 M16.980 9.099 C 17.996 9.312,18.786 9.741,19.522 10.477 C 20.245 11.202,20.659 11.956,20.905 13.000 C 20.968 13.271,20.977 13.618,20.989 16.650 L 21.003 20.000 20.003 20.000 L 19.003 20.000 18.990 16.730 C 18.975 13.203,18.987 13.402,18.763 12.845 C 18.426 12.003,17.604 11.305,16.680 11.076 C 16.394 11.004,15.603 11.005,15.323 11.076 C 14.391 11.313,13.591 11.984,13.250 12.815 C 13.012 13.395,13.025 13.182,13.010 16.730 L 12.997 20.000 11.997 20.000 L 10.997 20.000 11.011 16.650 C 11.026 12.993,11.017 13.150,11.266 12.400 C 11.777 10.863,13.129 9.587,14.680 9.178 C 15.392 8.991,16.314 8.959,16.980 9.099 M5.000 15.000 L 5.000 20.000 4.000 20.000 L 3.000 20.000 3.000 15.000 L 3.000 10.000 4.000 10.000 L 5.000 10.000 5.000 15.000 " stroke="none" fill="black" fill-rule="evenodd"></path></svg>