<svg xmlns="http://www.w3.org/2000/svg" width="24" height="24" viewBox="0 0 24 24" fill="none" stroke="currentColor" stroke-width="2" stroke-linecap="round" stroke-linejoin="round"><path d="M2.643 5.066 C 2.288 5.197,2.000 5.615,2.000 6.000 C 2.000 6.729,2.814 7.222,3.465 6.887 C 4.176 6.522,4.173 5.477,3.461 5.111 C 3.250 5.002,2.873 4.982,2.643 5.066 M7.643 5.069 C 7.291 5.193,7.000 5.614,7.000 6.000 C 7.000 6.242,7.119 6.521,7.299 6.701 C 7.622 7.024,7.037 7.000,14.500 7.000 C 21.963 7.000,21.378 7.024,21.701 6.701 C 21.881 6.521,22.000 6.242,22.000 6.000 C 22.000 5.758,21.881 5.479,21.701 5.299 C 21.378 4.975,21.966 5.000,14.483 5.003 C 8.555 5.006,7.801 5.013,7.643 5.069 M2.643 11.066 C 2.288 11.197,2.000 11.615,2.000 12.000 C 2.000 12.729,2.814 13.222,3.465 12.887 C 4.176 12.522,4.173 11.477,3.461 11.111 C 3.250 11.002,2.873 10.982,2.643 11.066 M7.643 11.069 C 7.291 11.193,7.000 11.614,7.000 12.000 C 7.000 12.242,7.119 12.521,7.299 12.701 C 7.622 13.024,7.037 13.000,14.500 13.000 C 21.963 13.000,21.378 13.024,21.701 12.701 C 22.092 12.310,22.092 11.690,21.701 11.299 C 21.378 10.975,21.966 11.000,14.483 11.003 C 8.555 11.006,7.801 11.013,7.643 11.069 M2.643 17.066 C 2.288 17.197,2.000 17.615,2.000 18.000 C 2.000 18.729,2.814 19.222,3.465 18.887 C 4.176 18.522,4.173 17.477,3.461 17.111 C 3.250 17.002,2.873 16.982,2.643 17.066 M7.643 17.069 C 7.291 17.193,7.000 17.614,7.000 18.000 C 7.000 18.242,7.119 18.521,7.299 18.701 C 7.622 19.024,7.037 19.000,14.500 19.000 C 21.963 19.000,21.378 19.024,21.701 18.701 C 22.092 18.310,22.092 17.690,21.701 17.299 C 21.378 16.975,21.966 17.000,14.483 17.003 C 8.555 17.006,7.801 17.013,7.643 17.069 " stroke="none" fill="black" fill-rule="evenodd"></path></svg>