<svg xmlns="http://www.w3.org/2000/svg" width="24" height="24" viewBox="0 0 24 24" fill="none" stroke="currentColor" stroke-width="2" stroke-linecap="round" stroke-linejoin="round"><path d="M14.643 2.069 C 14.291 2.193,14.000 2.614,14.000 3.000 C 14.000 3.242,14.119 3.521,14.299 3.701 C 14.601 4.003,14.573 4.000,17.000 4.000 C 19.427 4.000,19.399 3.997,19.701 4.299 C 20.025 4.623,20.000 3.977,20.000 12.000 C 20.000 20.023,20.025 19.377,19.701 19.701 C 19.399 20.003,19.427 20.000,17.000 20.000 C 14.573 20.000,14.601 19.997,14.299 20.299 C 13.908 20.690,13.908 21.310,14.299 21.701 C 14.602 22.004,14.568 22.000,17.037 22.000 C 18.345 22.000,19.322 21.983,19.474 21.958 C 20.660 21.766,21.621 20.872,21.924 19.680 C 22.007 19.352,22.008 4.648,21.924 4.323 C 21.617 3.126,20.660 2.234,19.476 2.042 C 19.320 2.017,18.365 2.002,17.020 2.003 C 15.135 2.006,14.795 2.015,14.643 2.069 M9.643 6.069 C 9.291 6.193,9.000 6.614,9.000 7.000 C 9.000 7.080,9.029 7.234,9.065 7.343 C 9.124 7.520,9.309 7.719,10.854 9.270 L 12.578 11.000 7.716 11.000 C 2.251 11.000,2.618 10.980,2.299 11.299 C 1.908 11.690,1.908 12.310,2.299 12.701 C 2.618 13.020,2.251 13.000,7.716 13.000 L 12.578 13.000 10.854 14.730 C 9.309 16.281,9.124 16.480,9.065 16.657 C 8.936 17.046,9.021 17.423,9.299 17.701 C 9.577 17.979,9.953 18.064,10.343 17.935 C 10.522 17.876,10.783 17.628,13.174 15.245 C 16.038 12.391,15.999 12.436,15.999 12.000 C 15.999 11.564,16.038 11.609,13.174 8.755 C 10.783 6.372,10.522 6.124,10.343 6.065 C 10.101 5.985,9.876 5.986,9.643 6.069 " stroke="none" fill="black" fill-rule="evenodd"></path></svg>