<svg xmlns="http://www.w3.org/2000/svg" width="24" height="24" viewBox="0 0 24 24" fill="none" stroke="currentColor" stroke-width="2" stroke-linecap="round" stroke-linejoin="round"><path d="M22.640 0.068 C 22.482 0.121,21.115 1.473,11.329 11.254 C 3.131 19.448,0.176 22.426,0.113 22.556 C -0.078 22.947,-0.005 23.397,0.298 23.700 C 0.577 23.979,0.953 24.064,1.343 23.935 C 1.523 23.876,1.818 23.593,4.708 20.707 L 7.876 17.545 8.148 17.785 C 9.611 19.075,11.550 20.324,13.365 21.143 C 15.184 21.964,17.111 22.525,19.051 22.797 C 20.095 22.944,20.661 22.895,21.260 22.606 C 21.912 22.290,22.387 21.827,22.680 21.220 C 22.983 20.592,22.980 20.623,22.980 18.380 C 22.980 16.133,22.983 16.161,22.677 15.537 C 22.329 14.829,21.721 14.295,20.963 14.034 C 20.843 13.993,20.473 13.913,20.142 13.857 C 19.362 13.726,18.895 13.608,18.060 13.332 C 17.417 13.119,17.354 13.106,16.893 13.089 C 16.314 13.067,15.959 13.132,15.524 13.341 C 15.094 13.547,14.906 13.688,14.394 14.190 L 13.928 14.648 13.573 14.409 C 13.228 14.177,12.570 13.678,12.275 13.424 L 12.131 13.300 18.001 7.420 C 23.404 2.007,23.876 1.524,23.935 1.343 C 24.063 0.953,23.979 0.577,23.701 0.299 C 23.424 0.022,23.028 -0.065,22.640 0.068 M3.520 1.061 C 2.723 1.237,2.019 1.716,1.595 2.372 C 1.413 2.654,1.224 3.130,1.164 3.457 C 1.077 3.926,1.130 4.591,1.344 5.760 C 1.803 8.260,2.661 10.534,3.992 12.779 C 4.472 13.588,4.729 13.800,5.227 13.800 C 5.809 13.800,6.286 13.216,6.168 12.649 C 6.137 12.501,5.996 12.224,5.700 11.729 C 4.555 9.813,3.762 7.744,3.345 5.580 C 3.219 4.926,3.120 4.215,3.120 3.966 C 3.120 3.573,3.454 3.144,3.842 3.039 C 3.946 3.011,4.587 3.001,5.710 3.008 C 7.374 3.020,7.424 3.022,7.580 3.106 C 7.949 3.306,8.055 3.510,8.184 4.272 C 8.309 5.014,8.510 5.815,8.740 6.495 C 8.939 7.079,8.967 7.357,8.856 7.625 C 8.814 7.726,8.517 8.058,8.000 8.581 C 7.274 9.315,7.203 9.399,7.144 9.598 C 7.064 9.868,7.064 9.932,7.144 10.203 C 7.233 10.501,7.499 10.767,7.797 10.856 C 8.068 10.936,8.132 10.936,8.403 10.856 C 8.601 10.797,8.684 10.728,9.373 10.046 C 10.220 9.208,10.424 8.960,10.646 8.500 C 10.863 8.049,10.931 7.690,10.910 7.100 C 10.894 6.646,10.881 6.583,10.668 5.940 C 10.392 5.105,10.274 4.638,10.143 3.858 C 10.087 3.527,10.007 3.157,9.966 3.037 C 9.705 2.279,9.171 1.670,8.463 1.323 C 7.850 1.023,7.889 1.027,5.720 1.015 C 4.154 1.006,3.730 1.015,3.520 1.061 M11.090 15.031 C 11.638 15.491,12.033 15.784,12.680 16.210 C 13.717 16.893,13.957 16.985,14.385 16.860 C 14.605 16.796,14.661 16.749,15.422 15.997 C 15.915 15.509,16.283 15.178,16.372 15.141 C 16.632 15.032,16.925 15.063,17.505 15.260 C 18.185 15.490,18.986 15.691,19.728 15.816 C 20.490 15.945,20.694 16.051,20.894 16.420 C 20.978 16.577,20.980 16.612,20.980 18.380 C 20.980 20.156,20.979 20.182,20.892 20.344 C 20.788 20.538,20.561 20.747,20.363 20.830 C 19.932 21.011,17.730 20.604,15.980 20.020 C 14.059 19.379,12.202 18.399,10.542 17.150 C 10.044 16.776,9.383 16.229,9.336 16.154 C 9.322 16.130,9.618 15.803,10.004 15.416 C 10.387 15.033,10.704 14.720,10.709 14.720 C 10.715 14.720,10.886 14.860,11.090 15.031 " stroke="none" fill="black" fill-rule="evenodd"></path></svg>