<svg xmlns="http://www.w3.org/2000/svg" width="24" height="24" viewBox="0 0 24 24" fill="none" stroke="currentColor" stroke-width="2" stroke-linecap="round" stroke-linejoin="round"><path d="M18.643 0.069 C 18.291 0.193,18.000 0.614,18.000 1.000 C 18.000 1.080,18.030 1.234,18.066 1.343 C 18.123 1.517,18.276 1.685,19.354 2.770 L 20.577 4.000 17.716 4.000 C 14.489 4.000,14.608 3.990,14.299 4.299 C 13.908 4.690,13.908 5.310,14.299 5.701 C 14.608 6.010,14.489 6.000,17.716 6.000 L 20.577 6.000 19.354 7.230 C 18.276 8.315,18.123 8.483,18.066 8.657 C 17.936 9.046,18.021 9.423,18.299 9.701 C 18.577 9.979,18.953 10.064,19.343 9.935 C 19.521 9.876,19.748 9.662,21.674 7.745 C 23.999 5.431,23.999 5.430,23.999 5.000 C 23.999 4.570,23.999 4.569,21.674 2.255 C 19.748 0.338,19.521 0.124,19.343 0.065 C 19.101 -0.015,18.876 -0.014,18.643 0.069 M3.520 1.061 C 2.723 1.237,2.019 1.716,1.595 2.372 C 1.403 2.670,1.219 3.142,1.157 3.500 C 1.007 4.362,1.435 6.728,2.098 8.700 C 3.444 12.706,6.003 16.274,9.314 18.760 C 11.045 20.059,13.021 21.127,14.992 21.828 C 16.780 22.464,19.171 22.961,20.180 22.908 C 21.274 22.850,22.214 22.220,22.699 21.220 C 22.981 20.637,22.980 20.647,22.980 18.400 C 22.980 16.131,22.983 16.162,22.677 15.537 C 22.329 14.829,21.721 14.295,20.963 14.034 C 20.843 13.993,20.473 13.913,20.142 13.857 C 19.362 13.726,18.895 13.608,18.060 13.332 C 17.417 13.119,17.354 13.106,16.893 13.089 C 16.314 13.067,15.959 13.132,15.524 13.341 C 15.094 13.547,14.906 13.688,14.394 14.191 L 13.927 14.649 13.514 14.367 C 12.021 13.348,10.589 11.910,9.591 10.427 L 9.353 10.073 9.809 9.607 C 10.315 9.088,10.460 8.895,10.662 8.468 C 10.864 8.043,10.931 7.677,10.910 7.100 C 10.894 6.646,10.881 6.583,10.668 5.940 C 10.392 5.105,10.274 4.638,10.143 3.858 C 10.087 3.527,10.007 3.157,9.966 3.037 C 9.705 2.279,9.171 1.670,8.463 1.323 C 7.850 1.023,7.889 1.027,5.720 1.015 C 4.154 1.006,3.730 1.015,3.520 1.061 M7.580 3.106 C 7.949 3.306,8.055 3.510,8.184 4.272 C 8.309 5.014,8.510 5.815,8.740 6.495 C 8.939 7.079,8.967 7.357,8.856 7.625 C 8.814 7.726,8.516 8.058,7.999 8.581 C 7.245 9.345,7.204 9.394,7.138 9.621 C 7.014 10.045,7.131 10.339,7.852 11.420 C 9.083 13.263,10.661 14.852,12.480 16.077 C 13.658 16.871,13.944 16.989,14.379 16.862 C 14.606 16.796,14.655 16.756,15.422 15.997 C 15.915 15.509,16.283 15.178,16.372 15.141 C 16.632 15.032,16.925 15.063,17.505 15.260 C 18.184 15.490,18.986 15.691,19.727 15.816 C 20.491 15.945,20.701 16.057,20.905 16.440 C 20.974 16.569,20.981 16.712,20.992 18.310 C 20.999 19.446,20.989 20.094,20.961 20.198 C 20.856 20.586,20.427 20.920,20.034 20.920 C 19.785 20.920,19.074 20.821,18.420 20.695 C 13.534 19.753,9.101 16.850,6.362 12.800 C 5.044 10.849,4.181 8.972,3.623 6.838 C 3.370 5.869,3.122 4.458,3.121 3.977 C 3.120 3.722,3.281 3.391,3.485 3.229 C 3.771 3.002,3.785 3.001,5.680 3.011 C 7.378 3.020,7.424 3.022,7.580 3.106 " stroke="none" fill="black" fill-rule="evenodd"></path></svg>