<svg xmlns="http://www.w3.org/2000/svg" width="24" height="24" viewBox="0 0 24 24" fill="none" stroke="currentColor" stroke-width="2" stroke-linecap="round" stroke-linejoin="round"><path d="M11.643 1.066 C 11.546 1.102,11.392 1.206,11.300 1.298 C 10.979 1.619,11.000 1.216,11.000 7.000 C 11.000 12.783,10.979 12.381,11.299 12.701 C 11.619 13.021,11.217 13.000,17.000 13.000 C 22.784 13.000,22.381 13.021,22.702 12.700 C 22.968 12.434,23.017 12.228,22.985 11.521 C 22.881 9.209,22.092 7.077,20.647 5.200 C 20.259 4.697,19.173 3.633,18.637 3.231 C 16.798 1.853,14.656 1.089,12.440 1.020 C 11.930 1.004,11.789 1.012,11.643 1.066 M7.477 1.973 C 5.700 2.749,3.977 4.208,2.860 5.883 C 1.953 7.244,1.369 8.756,1.114 10.406 C 1.042 10.876,1.025 11.158,1.023 11.960 C 1.021 12.565,1.040 13.078,1.072 13.300 C 1.336 15.140,1.910 16.685,2.854 18.100 C 3.682 19.341,4.929 20.548,6.200 21.339 C 9.442 23.357,13.555 23.534,16.966 21.805 C 19.168 20.688,21.003 18.780,22.008 16.560 C 22.162 16.219,22.180 16.149,22.180 15.877 C 22.180 15.609,22.166 15.551,22.059 15.378 C 21.815 14.983,21.380 14.810,20.948 14.936 C 20.580 15.043,20.445 15.196,20.103 15.896 C 18.763 18.635,16.303 20.436,13.260 20.906 C 12.712 20.991,11.423 21.002,10.880 20.927 C 6.437 20.312,3.176 16.737,3.012 12.300 C 2.905 9.403,4.264 6.547,6.563 4.835 C 7.148 4.399,7.410 4.238,8.110 3.883 C 8.721 3.574,8.843 3.462,8.959 3.104 C 9.061 2.791,8.943 2.348,8.694 2.112 C 8.376 1.812,7.957 1.764,7.477 1.973 M13.994 3.225 C 15.927 3.654,17.757 4.801,19.015 6.371 C 20.017 7.622,20.713 9.227,20.914 10.750 L 20.947 11.000 16.973 11.000 L 13.000 11.000 13.000 7.027 L 13.000 3.054 13.270 3.089 C 13.418 3.108,13.744 3.169,13.994 3.225 " stroke="none" fill="black" fill-rule="evenodd"></path></svg>