<svg xmlns="http://www.w3.org/2000/svg" width="24" height="24" viewBox="0 0 24 24" fill="none" stroke="currentColor" stroke-width="2" stroke-linecap="round" stroke-linejoin="round"><path d="M11.280 2.026 C 9.390 2.207,7.926 2.711,6.467 3.681 C 4.938 4.698,3.770 6.043,2.977 7.700 C 2.512 8.672,2.434 9.026,2.603 9.400 C 2.869 9.987,3.541 10.171,4.090 9.808 C 4.272 9.688,4.358 9.554,4.537 9.111 C 4.963 8.054,5.487 7.243,6.259 6.446 C 7.494 5.169,8.956 4.409,10.782 4.094 C 11.334 3.999,12.663 3.998,13.220 4.094 C 14.573 4.325,15.702 4.803,16.780 5.599 C 17.081 5.822,18.944 7.535,20.140 8.689 L 20.460 8.998 18.657 8.999 C 16.612 9.000,16.596 9.002,16.299 9.299 C 15.908 9.690,15.908 10.310,16.299 10.701 C 16.611 11.013,16.451 11.000,20.037 11.000 L 23.220 10.999 23.420 10.905 C 23.660 10.791,23.807 10.642,23.917 10.400 C 23.997 10.224,23.998 10.153,23.999 7.037 C 24.000 3.451,24.013 3.611,23.701 3.299 C 23.222 2.820,22.410 2.949,22.114 3.550 C 22.020 3.740,22.020 3.745,22.000 5.704 L 21.980 7.668 20.480 6.252 C 18.832 4.697,18.295 4.218,17.808 3.868 C 16.663 3.045,15.273 2.451,13.854 2.177 C 13.128 2.037,11.911 1.966,11.280 2.026 M0.580 13.095 C 0.340 13.209,0.193 13.358,0.083 13.600 C 0.003 13.776,0.002 13.847,0.001 16.963 C -0.000 20.549,-0.013 20.389,0.299 20.701 C 0.778 21.180,1.590 21.051,1.886 20.450 C 1.980 20.260,1.980 20.255,2.000 18.295 L 2.020 16.330 3.520 17.745 C 5.239 19.367,5.732 19.806,6.233 20.159 C 7.530 21.075,9.047 21.674,10.660 21.906 C 11.251 21.992,12.686 22.003,13.220 21.927 C 14.883 21.690,16.238 21.182,17.560 20.301 C 19.065 19.298,20.236 17.946,21.023 16.300 C 21.488 15.328,21.566 14.974,21.397 14.600 C 21.131 14.013,20.459 13.829,19.910 14.192 C 19.728 14.312,19.642 14.446,19.463 14.889 C 19.037 15.946,18.513 16.757,17.741 17.554 C 16.506 18.831,15.044 19.591,13.218 19.906 C 12.666 20.001,11.337 20.002,10.780 19.906 C 9.342 19.660,8.001 19.060,6.954 18.193 C 6.814 18.077,5.991 17.316,5.124 16.501 L 3.548 15.020 5.404 15.000 C 7.250 14.980,7.261 14.979,7.450 14.886 C 8.051 14.590,8.180 13.778,7.701 13.299 C 7.389 12.987,7.549 13.000,3.963 13.000 L 0.780 13.001 0.580 13.095 " stroke="none" fill="black" fill-rule="evenodd"></path></svg>