<svg xmlns="http://www.w3.org/2000/svg" width="24" height="24" viewBox="0 0 24 24" fill="none" stroke="currentColor" stroke-width="2" stroke-linecap="round" stroke-linejoin="round"><path d="M10.660 4.064 C 10.563 4.099,8.680 5.538,5.862 7.731 C 0.659 11.780,1.020 11.462,1.020 12.000 C 1.020 12.538,0.659 12.220,5.862 16.269 C 9.108 18.795,10.553 19.897,10.677 19.939 C 11.042 20.064,11.427 19.975,11.701 19.701 C 12.014 19.388,12.000 19.583,12.003 15.663 C 12.006 12.552,12.013 12.198,12.065 12.345 C 12.097 12.436,12.181 12.574,12.252 12.651 C 12.422 12.838,21.376 19.796,21.574 19.895 C 21.940 20.079,22.403 19.999,22.700 19.702 C 23.025 19.377,23.000 20.025,23.000 12.000 C 23.000 3.975,23.025 4.623,22.700 4.298 C 22.403 4.001,21.940 3.921,21.574 4.105 C 21.376 4.204,12.422 11.162,12.252 11.349 C 12.181 11.426,12.097 11.564,12.065 11.655 C 12.013 11.802,12.006 11.448,12.003 8.337 C 12.000 4.417,12.014 4.612,11.701 4.299 C 11.428 4.026,11.021 3.934,10.660 4.064 M10.000 12.003 C 10.000 14.843,9.985 16.921,9.965 16.913 C 9.909 16.892,3.645 12.022,3.645 12.000 C 3.645 11.973,9.932 7.086,9.970 7.083 C 9.986 7.081,10.000 9.296,10.000 12.003 M21.000 12.003 C 21.000 14.843,20.985 16.921,20.965 16.913 C 20.909 16.892,14.645 12.022,14.645 12.000 C 14.645 11.973,20.932 7.086,20.970 7.083 C 20.987 7.081,21.000 9.296,21.000 12.003 " stroke="none" fill="black" fill-rule="evenodd"></path></svg>