<svg xmlns="http://www.w3.org/2000/svg" width="24" height="24" viewBox="0 0 24 24" fill="none" stroke="currentColor" stroke-width="2" stroke-linecap="round" stroke-linejoin="round"><path d="M5.310 2.063 C 4.040 2.293,2.951 3.116,2.402 4.260 C 1.823 5.466,1.884 6.897,2.564 8.042 C 3.624 9.828,5.903 10.503,7.766 9.584 L 8.033 9.452 9.306 10.726 L 10.580 12.000 9.306 13.274 L 8.033 14.548 7.766 14.416 C 6.561 13.822,5.114 13.878,3.958 14.564 C 3.017 15.123,2.350 16.044,2.095 17.140 C 1.992 17.581,1.992 18.419,2.095 18.860 C 2.454 20.399,3.601 21.546,5.140 21.905 C 5.604 22.014,6.459 22.007,6.920 21.891 C 8.401 21.518,9.522 20.402,9.884 18.940 C 10.102 18.061,9.985 17.019,9.581 16.230 L 9.452 15.980 15.161 10.260 C 20.415 4.996,20.876 4.524,20.935 4.343 C 21.063 3.953,20.979 3.577,20.701 3.299 C 20.423 3.021,20.047 2.937,19.657 3.065 C 19.477 3.124,19.143 3.446,15.730 6.855 L 12.000 10.579 10.726 9.306 L 9.452 8.033 9.584 7.766 C 10.179 6.559,10.122 5.114,9.433 3.952 C 8.596 2.543,6.915 1.773,5.310 2.063 M6.408 4.044 C 7.310 4.232,8.000 5.080,8.000 6.000 C 8.000 7.080,7.080 8.000,6.000 8.000 C 4.920 8.000,4.000 7.080,4.000 6.000 C 4.000 5.102,4.657 4.269,5.534 4.057 C 5.797 3.993,6.138 3.988,6.408 4.044 M14.200 13.515 C 13.758 13.659,13.482 14.030,13.481 14.480 C 13.480 14.918,13.420 14.849,16.566 17.985 C 19.199 20.610,19.478 20.876,19.657 20.935 C 20.047 21.064,20.423 20.979,20.702 20.700 C 21.005 20.398,21.078 19.947,20.887 19.556 C 20.770 19.314,15.132 13.685,14.900 13.579 C 14.724 13.498,14.356 13.464,14.200 13.515 M6.408 16.044 C 7.310 16.232,8.000 17.080,8.000 18.000 C 8.000 19.080,7.080 20.000,6.000 20.000 C 4.920 20.000,4.000 19.080,4.000 18.000 C 4.000 17.102,4.657 16.269,5.534 16.057 C 5.797 15.993,6.138 15.988,6.408 16.044 " stroke="none" fill="black" fill-rule="evenodd"></path></svg>