<svg xmlns="http://www.w3.org/2000/svg" width="24" height="24" viewBox="0 0 24 24" fill="none" stroke="currentColor" stroke-width="2" stroke-linecap="round" stroke-linejoin="round"><path d="M17.310 1.063 C 16.478 1.214,15.777 1.581,15.179 2.179 C 14.563 2.795,14.211 3.480,14.056 4.367 C 13.982 4.791,13.999 5.462,14.094 5.852 C 14.149 6.076,14.148 6.086,14.065 6.138 C 13.845 6.277,8.883 9.160,8.865 9.160 C 8.853 9.160,8.691 9.037,8.504 8.888 C 7.737 8.272,6.788 7.963,5.820 8.014 C 3.986 8.110,2.514 9.345,2.095 11.140 C 1.992 11.581,1.992 12.419,2.095 12.860 C 2.454 14.399,3.601 15.546,5.140 15.905 C 5.581 16.008,6.419 16.008,6.860 15.905 C 7.500 15.756,8.091 15.461,8.604 15.034 C 8.732 14.927,8.848 14.840,8.861 14.840 C 8.887 14.840,14.030 17.827,14.105 17.886 C 14.137 17.911,14.132 17.989,14.087 18.170 C 13.995 18.541,13.999 19.449,14.095 19.860 C 14.454 21.399,15.601 22.546,17.140 22.905 C 17.604 23.014,18.459 23.007,18.920 22.891 C 20.409 22.516,21.516 21.409,21.891 19.920 C 22.007 19.459,22.014 18.604,21.905 18.140 C 21.458 16.221,19.748 14.913,17.820 15.014 C 16.903 15.062,16.170 15.344,15.447 15.929 C 15.286 16.059,15.133 16.157,15.107 16.146 C 14.872 16.045,9.862 13.077,9.870 13.044 C 10.015 12.406,10.029 11.654,9.906 11.150 L 9.850 10.919 10.175 10.725 C 10.820 10.338,15.121 7.840,15.141 7.840 C 15.152 7.840,15.291 7.946,15.451 8.075 C 15.963 8.490,16.507 8.758,17.140 8.905 C 17.604 9.014,18.459 9.007,18.920 8.891 C 20.409 8.516,21.516 7.409,21.891 5.920 C 22.007 5.459,22.014 4.604,21.905 4.140 C 21.415 2.038,19.395 0.686,17.310 1.063 M18.408 3.044 C 19.310 3.232,20.000 4.080,20.000 5.000 C 20.000 6.080,19.080 7.000,18.000 7.000 C 16.923 7.000,16.000 6.077,16.000 5.000 C 16.000 4.102,16.657 3.269,17.534 3.057 C 17.797 2.993,18.138 2.988,18.408 3.044 M6.408 10.044 C 7.307 10.232,8.000 11.083,8.000 12.000 C 8.000 13.077,7.077 14.000,6.000 14.000 C 4.920 14.000,4.000 13.080,4.000 12.000 C 4.000 11.102,4.657 10.269,5.534 10.057 C 5.797 9.993,6.138 9.988,6.408 10.044 M18.408 17.044 C 19.310 17.232,20.000 18.080,20.000 19.000 C 20.000 20.080,19.080 21.000,18.000 21.000 C 16.920 21.000,16.000 20.080,16.000 19.000 C 16.000 18.108,16.663 17.268,17.534 17.057 C 17.797 16.993,18.138 16.988,18.408 17.044 " stroke="none" fill="black" fill-rule="evenodd"></path></svg>