<svg xmlns="http://www.w3.org/2000/svg" width="24" height="24" viewBox="0 0 24 24" fill="none" stroke="currentColor" stroke-width="2" stroke-linecap="round" stroke-linejoin="round"><path d="M7.040 4.061 C 4.684 4.353,2.584 5.665,1.281 7.660 C 0.975 8.128,0.583 8.951,0.405 9.500 C -0.131 11.144,-0.131 12.856,0.405 14.500 C 1.374 17.479,4.083 19.649,7.217 19.957 C 7.810 20.015,16.196 20.016,16.766 19.958 C 17.374 19.895,17.953 19.775,18.498 19.597 C 20.525 18.935,22.232 17.444,23.179 15.508 C 24.267 13.287,24.269 10.714,23.183 8.500 C 21.953 5.990,19.586 4.340,16.792 4.041 C 16.186 3.977,7.579 3.994,7.040 4.061 M17.164 6.109 C 17.740 6.235,18.245 6.417,18.761 6.684 C 20.401 7.532,21.542 9.075,21.907 10.940 C 22.015 11.490,22.004 12.603,21.885 13.160 C 21.756 13.764,21.589 14.233,21.316 14.759 C 20.463 16.405,18.899 17.561,17.060 17.905 C 16.684 17.976,16.382 17.980,12.000 17.980 C 7.618 17.980,7.316 17.976,6.940 17.905 C 4.467 17.443,2.557 15.533,2.095 13.060 C 1.994 12.522,1.994 11.454,2.093 10.940 C 2.208 10.351,2.389 9.824,2.662 9.287 C 3.238 8.152,4.115 7.267,5.246 6.681 C 5.918 6.333,6.589 6.130,7.420 6.026 C 7.486 6.017,9.619 6.014,12.160 6.018 C 16.695 6.025,16.787 6.026,17.164 6.109 M7.310 8.063 C 6.478 8.214,5.777 8.581,5.179 9.179 C 4.367 9.990,3.955 11.053,4.014 12.180 C 4.110 14.013,5.346 15.487,7.140 15.905 C 7.604 16.014,8.459 16.007,8.920 15.891 C 10.409 15.516,11.516 14.409,11.891 12.920 C 12.007 12.459,12.014 11.604,11.905 11.140 C 11.415 9.038,9.395 7.686,7.310 8.063 M8.408 10.044 C 9.310 10.232,10.000 11.080,10.000 12.000 C 10.000 13.080,9.080 14.000,8.000 14.000 C 6.920 14.000,6.000 13.080,6.000 12.000 C 6.000 11.102,6.657 10.269,7.534 10.057 C 7.797 9.993,8.138 9.988,8.408 10.044 " stroke="none" fill="black" fill-rule="evenodd"></path></svg>