<svg xmlns="http://www.w3.org/2000/svg" width="24" height="24" viewBox="0 0 24 24" fill="none" stroke="currentColor" stroke-width="2" stroke-linecap="round" stroke-linejoin="round"><path d="M0.643 5.069 C 0.291 5.193,-0.000 5.614,0.000 6.000 C 0.000 6.080,0.029 6.234,0.065 6.343 C 0.124 6.523,0.456 6.867,3.995 10.411 C 6.989 13.410,7.905 14.304,8.058 14.381 C 8.311 14.508,8.659 14.514,8.920 14.397 C 9.057 14.336,9.620 13.797,11.300 12.118 L 13.500 9.920 17.040 13.460 L 20.580 17.000 18.717 17.000 C 16.605 17.000,16.597 17.001,16.299 17.299 C 15.908 17.690,15.908 18.310,16.299 18.701 C 16.611 19.013,16.451 19.000,20.037 18.999 C 23.153 18.998,23.224 18.997,23.400 18.917 C 23.642 18.807,23.791 18.660,23.905 18.420 L 23.999 18.220 24.000 15.037 C 24.000 11.451,24.013 11.611,23.701 11.299 C 23.310 10.908,22.690 10.908,22.299 11.299 C 22.001 11.597,22.000 11.605,22.000 13.717 L 22.000 15.580 18.050 11.632 C 14.977 8.560,14.060 7.665,13.920 7.602 C 13.659 7.486,13.311 7.492,13.058 7.619 C 12.908 7.694,12.330 8.248,10.680 9.899 L 8.501 12.080 5.020 8.605 C 1.839 5.429,1.523 5.124,1.343 5.065 C 1.101 4.985,0.876 4.987,0.643 5.069 " stroke="none" fill="black" fill-rule="evenodd"></path></svg>