<svg xmlns="http://www.w3.org/2000/svg" width="24" height="24" viewBox="0 0 24 24" fill="none" stroke="currentColor" stroke-width="2" stroke-linecap="round" stroke-linejoin="round"><path d="M11.646 1.925 C 11.287 1.966,10.756 2.145,10.455 2.325 C 10.151 2.509,9.747 2.885,9.564 3.156 C 9.379 3.429,0.964 17.474,0.849 17.700 C 0.650 18.094,0.580 18.432,0.580 19.000 C 0.580 19.454,0.595 19.588,0.674 19.840 C 0.994 20.867,1.766 21.617,2.800 21.907 C 3.048 21.977,3.471 21.980,12.000 21.980 C 22.049 21.980,21.106 22.009,21.781 21.678 C 22.529 21.311,23.064 20.674,23.326 19.839 C 23.405 19.587,23.420 19.455,23.420 19.000 C 23.420 18.432,23.350 18.095,23.151 17.700 C 23.106 17.612,21.126 14.296,18.751 10.331 C 15.327 4.617,14.382 3.069,14.194 2.863 C 13.558 2.169,12.598 1.816,11.646 1.925 M12.420 3.999 C 12.508 4.038,12.637 4.131,12.707 4.205 C 12.831 4.337,21.218 18.302,21.365 18.620 C 21.596 19.123,21.270 19.808,20.729 19.958 C 20.521 20.016,3.479 20.016,3.271 19.958 C 2.730 19.808,2.404 19.123,2.635 18.620 C 2.783 18.298,11.170 4.336,11.293 4.207 C 11.592 3.893,12.008 3.816,12.420 3.999 " stroke="none" fill="black" fill-rule="evenodd"></path></svg>