<svg xmlns="http://www.w3.org/2000/svg" width="24" height="24" viewBox="0 0 24 24" fill="none" stroke="currentColor" stroke-width="2" stroke-linecap="round" stroke-linejoin="round"><path d="M7.960 2.025 C 5.713 2.311,4.001 3.912,3.583 6.117 C 3.500 6.554,3.500 7.446,3.583 7.883 C 3.967 9.905,5.432 11.420,7.460 11.890 C 7.953 12.005,8.983 12.012,9.480 11.904 C 11.523 11.463,13.030 9.924,13.417 7.883 C 13.500 7.446,13.500 6.554,13.417 6.117 C 13.035 4.103,11.558 2.570,9.560 2.116 C 9.226 2.040,8.269 1.986,7.960 2.025 M9.340 4.122 C 10.305 4.423,11.014 5.108,11.347 6.060 C 11.451 6.357,11.459 6.424,11.459 7.000 C 11.459 7.576,11.451 7.643,11.347 7.940 C 11.184 8.408,10.949 8.779,10.602 9.120 C 9.874 9.835,8.923 10.129,7.945 9.942 C 7.338 9.826,6.856 9.570,6.398 9.120 C 6.051 8.779,5.816 8.408,5.653 7.940 C 5.549 7.643,5.541 7.576,5.541 7.000 C 5.541 6.424,5.549 6.357,5.653 6.060 C 6.023 5.001,6.907 4.237,7.991 4.039 C 8.312 3.980,9.026 4.024,9.340 4.122 M19.643 7.069 C 19.407 7.152,19.149 7.416,19.066 7.660 C 19.011 7.822,19.000 8.033,19.000 8.927 L 19.000 10.000 17.927 10.000 C 16.692 10.000,16.577 10.021,16.299 10.299 C 15.908 10.690,15.908 11.310,16.299 11.701 C 16.577 11.979,16.692 12.000,17.927 12.000 L 19.000 12.000 19.000 13.073 C 19.000 13.967,19.011 14.178,19.066 14.340 C 19.192 14.709,19.604 15.000,20.000 15.000 C 20.396 15.000,20.808 14.709,20.934 14.340 C 20.989 14.178,21.000 13.967,21.000 13.073 L 21.000 12.000 22.073 12.000 C 23.308 12.000,23.423 11.979,23.701 11.701 C 24.092 11.310,24.092 10.690,23.701 10.299 C 23.423 10.021,23.308 10.000,22.073 10.000 L 21.000 10.000 21.000 8.927 C 21.000 7.692,20.979 7.577,20.701 7.299 C 20.424 7.021,20.024 6.934,19.643 7.069 M4.260 14.058 C 2.385 14.361,0.851 15.645,0.266 17.401 C 0.046 18.060,0.030 18.203,0.011 19.709 C -0.010 21.329,0.001 21.403,0.298 21.700 C 0.690 22.092,1.309 22.093,1.701 21.701 C 1.984 21.418,2.000 21.323,2.000 19.931 C 2.000 18.981,2.014 18.650,2.063 18.408 C 2.306 17.225,3.224 16.308,4.408 16.064 C 4.677 16.008,5.200 16.000,8.500 16.000 C 12.637 16.000,12.592 15.998,13.161 16.235 C 13.853 16.525,14.475 17.147,14.765 17.839 C 14.969 18.329,15.000 18.601,15.000 19.931 C 15.000 21.323,15.016 21.418,15.299 21.701 C 15.691 22.093,16.310 22.092,16.702 21.700 C 16.999 21.403,17.010 21.329,16.989 19.709 C 16.974 18.570,16.958 18.242,16.902 18.000 C 16.668 16.974,16.249 16.209,15.521 15.477 C 14.798 14.752,14.056 14.345,13.000 14.095 C 12.724 14.030,12.370 14.023,8.640 14.015 C 5.475 14.008,4.509 14.018,4.260 14.058 " stroke="none" fill="black" fill-rule="evenodd"></path></svg>