<svg xmlns="http://www.w3.org/2000/svg" width="24" height="24" viewBox="0 0 24 24" fill="none" stroke="currentColor" stroke-width="2" stroke-linecap="round" stroke-linejoin="round"><path d="M7.960 2.025 C 5.713 2.311,4.001 3.912,3.583 6.117 C 3.500 6.554,3.500 7.446,3.583 7.883 C 3.967 9.905,5.432 11.420,7.460 11.890 C 7.953 12.005,8.983 12.012,9.480 11.904 C 11.523 11.463,13.030 9.924,13.417 7.883 C 13.500 7.446,13.500 6.554,13.417 6.117 C 13.035 4.103,11.558 2.570,9.560 2.116 C 9.226 2.040,8.269 1.986,7.960 2.025 M9.340 4.122 C 10.305 4.423,11.014 5.108,11.347 6.060 C 11.451 6.357,11.459 6.424,11.459 7.000 C 11.459 7.576,11.451 7.643,11.347 7.940 C 11.184 8.408,10.949 8.779,10.602 9.120 C 9.874 9.835,8.923 10.129,7.945 9.942 C 7.338 9.826,6.856 9.570,6.398 9.120 C 6.051 8.779,5.816 8.408,5.653 7.940 C 5.549 7.643,5.541 7.576,5.541 7.000 C 5.541 6.424,5.549 6.357,5.653 6.060 C 6.023 5.001,6.907 4.237,7.991 4.039 C 8.312 3.980,9.026 4.024,9.340 4.122 M17.643 7.069 C 17.257 7.205,16.969 7.663,17.009 8.078 C 17.043 8.431,17.151 8.573,18.138 9.559 L 19.079 10.498 18.105 11.479 C 17.259 12.332,17.123 12.486,17.066 12.657 C 16.982 12.907,16.983 13.095,17.066 13.340 C 17.203 13.743,17.653 14.032,18.078 13.991 C 18.431 13.957,18.573 13.849,19.559 12.862 L 20.498 11.921 21.479 12.895 C 22.332 13.741,22.486 13.877,22.657 13.934 C 23.045 14.064,23.422 13.980,23.701 13.701 C 23.980 13.422,24.064 13.045,23.934 12.657 C 23.877 12.486,23.741 12.332,22.895 11.479 L 21.921 10.498 22.862 9.559 C 23.485 8.937,23.831 8.561,23.887 8.444 C 24.305 7.586,23.414 6.695,22.556 7.113 C 22.439 7.169,22.063 7.515,21.441 8.138 L 20.502 9.079 19.521 8.105 C 18.668 7.259,18.514 7.123,18.343 7.066 C 18.102 6.985,17.877 6.986,17.643 7.069 M4.260 14.058 C 2.385 14.361,0.851 15.645,0.266 17.401 C 0.046 18.060,0.030 18.203,0.011 19.709 C -0.010 21.329,0.001 21.403,0.298 21.700 C 0.690 22.092,1.309 22.093,1.701 21.701 C 1.984 21.418,2.000 21.323,2.000 19.931 C 2.000 18.981,2.014 18.650,2.063 18.408 C 2.306 17.225,3.224 16.308,4.408 16.064 C 4.677 16.008,5.200 16.000,8.500 16.000 C 12.637 16.000,12.592 15.998,13.161 16.235 C 13.853 16.525,14.475 17.147,14.765 17.839 C 14.969 18.329,15.000 18.601,15.000 19.931 C 15.000 21.323,15.016 21.418,15.299 21.701 C 15.691 22.093,16.310 22.092,16.702 21.700 C 16.999 21.403,17.010 21.329,16.989 19.709 C 16.974 18.570,16.958 18.242,16.902 18.000 C 16.668 16.974,16.249 16.209,15.521 15.477 C 14.798 14.752,14.056 14.345,13.000 14.095 C 12.724 14.030,12.370 14.023,8.640 14.015 C 5.475 14.008,4.509 14.018,4.260 14.058 " stroke="none" fill="black" fill-rule="evenodd"></path></svg>