<svg xmlns="http://www.w3.org/2000/svg" width="24" height="24" viewBox="0 0 24 24" fill="none" stroke="currentColor" stroke-width="2" stroke-linecap="round" stroke-linejoin="round"><path d="M9.240 0.061 C 8.133 0.302,7.294 1.069,6.963 2.140 C 6.897 2.354,6.835 2.861,6.702 4.293 L 6.528 6.166 6.213 6.493 C 4.992 7.757,4.234 9.404,4.041 11.208 C 3.797 13.497,4.628 15.884,6.245 17.540 L 6.519 17.821 6.680 19.580 C 6.768 20.548,6.859 21.443,6.882 21.570 C 7.076 22.644,7.906 23.552,9.001 23.886 C 9.297 23.976,9.328 23.977,11.819 23.990 C 13.498 23.999,14.431 23.989,14.618 23.960 C 15.741 23.786,16.680 22.982,17.023 21.902 C 17.108 21.633,17.151 21.289,17.297 19.707 L 17.471 17.831 17.749 17.546 C 19.377 15.873,20.187 13.552,19.957 11.217 C 19.781 9.430,19.006 7.753,17.758 6.460 L 17.488 6.180 17.323 4.360 C 17.233 3.359,17.132 2.428,17.100 2.290 C 16.907 1.471,16.299 0.709,15.542 0.338 C 14.871 0.009,15.026 0.024,12.100 0.014 C 9.982 0.006,9.452 0.015,9.240 0.061 M14.604 2.092 C 14.684 2.131,14.807 2.220,14.878 2.290 C 15.127 2.533,15.155 2.641,15.257 3.712 C 15.309 4.255,15.347 4.704,15.343 4.710 C 15.338 4.715,15.182 4.658,14.997 4.584 C 13.072 3.809,10.866 3.814,8.965 4.598 C 8.744 4.689,8.680 4.702,8.680 4.658 C 8.680 4.626,8.717 4.190,8.762 3.690 C 8.855 2.668,8.920 2.455,9.205 2.229 C 9.497 1.998,9.448 2.002,12.060 2.011 C 14.279 2.019,14.471 2.025,14.604 2.092 M13.164 6.116 C 13.718 6.228,14.232 6.411,14.761 6.684 C 16.401 7.532,17.542 9.075,17.907 10.940 C 18.015 11.490,18.004 12.603,17.885 13.160 C 17.764 13.728,17.602 14.198,17.366 14.668 C 16.511 16.372,14.938 17.554,13.060 17.905 C 12.508 18.008,11.492 18.008,10.940 17.905 C 8.467 17.443,6.557 15.533,6.095 13.060 C 5.992 12.508,5.992 11.492,6.095 10.940 C 6.446 9.062,7.630 7.488,9.335 6.632 C 9.956 6.321,10.543 6.149,11.420 6.024 C 11.701 5.983,12.794 6.041,13.164 6.116 M11.643 8.069 C 11.407 8.152,11.149 8.416,11.066 8.660 C 11.009 8.828,11.000 9.073,11.000 10.500 C 11.000 11.922,11.009 12.173,11.066 12.343 C 11.123 12.513,11.252 12.661,11.995 13.411 C 12.965 14.390,13.092 14.480,13.498 14.480 C 14.075 14.479,14.481 14.069,14.479 13.491 C 14.478 13.111,14.387 12.972,13.658 12.239 L 13.000 11.577 13.000 10.216 C 13.000 8.661,12.988 8.586,12.701 8.299 C 12.424 8.021,12.024 7.934,11.643 8.069 M9.575 19.623 C 11.330 20.178,13.360 20.097,15.030 19.405 C 15.254 19.312,15.320 19.298,15.320 19.342 C 15.320 19.374,15.283 19.810,15.238 20.310 C 15.164 21.122,15.144 21.244,15.048 21.440 C 14.926 21.689,14.686 21.894,14.440 21.960 C 14.335 21.988,13.487 21.999,11.911 21.991 C 9.558 21.980,9.539 21.979,9.376 21.892 C 9.186 21.791,8.973 21.562,8.895 21.375 C 8.847 21.260,8.681 19.745,8.680 19.412 L 8.680 19.285 8.965 19.402 C 9.122 19.467,9.397 19.566,9.575 19.623 " stroke="none" fill="black" fill-rule="evenodd"></path></svg>