<svg xmlns="http://www.w3.org/2000/svg" width="24" height="24" viewBox="0 0 24 24" fill="none" stroke="currentColor" stroke-width="2" stroke-linecap="round" stroke-linejoin="round"><path d="M0.643 0.069 C 0.291 0.193,-0.000 0.614,0.000 1.000 C 0.000 1.080,0.029 1.234,0.065 1.343 C 0.124 1.521,0.336 1.746,2.253 3.669 C 3.421 4.840,4.368 5.805,4.358 5.814 C 4.348 5.823,4.241 5.880,4.120 5.940 C 3.130 6.436,1.477 7.572,0.785 8.234 C 0.531 8.477,0.442 8.673,0.441 8.991 C 0.439 9.400,0.620 9.701,0.980 9.892 C 1.173 9.994,1.590 10.010,1.795 9.923 C 1.870 9.892,2.158 9.679,2.435 9.451 C 3.354 8.697,4.234 8.123,5.274 7.600 C 5.581 7.446,5.847 7.320,5.866 7.320 C 5.885 7.320,6.418 7.838,7.051 8.471 L 8.202 9.622 7.651 9.837 C 6.224 10.392,4.382 11.566,4.114 12.091 C 3.870 12.571,4.053 13.162,4.526 13.420 C 4.701 13.515,4.787 13.536,5.000 13.535 C 5.307 13.534,5.459 13.466,5.840 13.158 C 6.781 12.398,8.072 11.738,9.318 11.380 L 9.817 11.237 11.208 12.628 L 12.600 14.020 12.129 14.007 C 10.940 13.974,9.602 14.316,8.541 14.924 C 7.823 15.336,7.637 15.525,7.553 15.927 C 7.413 16.593,8.050 17.226,8.718 17.086 C 8.854 17.058,9.037 16.974,9.204 16.863 C 10.253 16.166,11.523 15.875,12.720 16.059 C 13.472 16.174,14.021 16.380,14.731 16.811 C 15.153 17.068,15.479 17.175,15.603 17.098 C 15.631 17.081,16.949 18.368,19.054 20.470 C 22.166 23.576,22.477 23.876,22.657 23.935 C 23.047 24.064,23.423 23.979,23.702 23.700 C 24.005 23.397,24.078 22.947,23.887 22.556 C 23.824 22.426,20.869 19.449,12.671 11.255 C 2.368 0.957,1.525 0.125,1.343 0.065 C 1.101 -0.015,0.876 -0.013,0.643 0.069 M10.817 4.036 C 10.402 4.070,10.143 4.174,9.975 4.373 C 9.614 4.801,9.631 5.354,10.019 5.741 C 10.310 6.033,10.374 6.045,11.505 6.015 C 12.916 5.978,14.071 6.089,15.360 6.386 C 17.639 6.911,19.787 7.976,21.600 9.480 C 22.150 9.936,22.232 9.978,22.580 9.978 C 22.899 9.978,23.095 9.895,23.308 9.674 C 23.486 9.488,23.560 9.286,23.559 8.991 C 23.558 8.541,23.432 8.377,22.560 7.680 C 22.052 7.275,20.942 6.526,20.376 6.206 C 18.389 5.085,16.196 4.378,13.840 4.099 C 13.236 4.027,11.393 3.989,10.817 4.036 M16.337 10.137 C 16.154 10.216,15.927 10.431,15.829 10.616 C 15.764 10.739,15.742 10.850,15.742 11.060 C 15.742 11.546,15.921 11.772,16.580 12.117 C 17.045 12.361,17.739 12.817,18.140 13.140 C 18.544 13.467,18.690 13.534,19.000 13.535 C 19.595 13.537,20.048 13.041,19.988 12.454 C 19.956 12.150,19.824 11.941,19.480 11.650 C 19.051 11.288,18.020 10.606,17.471 10.323 C 17.030 10.095,16.985 10.080,16.731 10.082 C 16.582 10.082,16.405 10.107,16.337 10.137 M11.643 19.066 C 11.288 19.197,11.000 19.615,11.000 20.000 C 11.000 20.729,11.814 21.222,12.465 20.887 C 13.176 20.522,13.173 19.477,12.461 19.111 C 12.250 19.002,11.873 18.982,11.643 19.066 " stroke="none" fill="black" fill-rule="evenodd"></path></svg>