<svg role="img" viewBox="0 0 24 24" xmlns="http://www.w3.org/2000/svg"><path d="M3.360 12.000 L 3.360 24.000 12.000 24.000 L 20.640 24.000 20.640 12.000 L 20.640 0.000 12.000 0.000 L 3.360 0.000 3.360 12.000 M11.162 11.581 C 11.260 11.632,11.545 11.644,12.890 11.655 C 14.521 11.668,14.806 11.688,15.600 11.846 C 17.306 12.185,18.513 13.065,19.185 14.460 C 20.115 16.391,19.693 18.899,18.183 20.419 C 17.283 21.325,15.887 21.895,14.211 22.043 C 13.775 22.081,13.360 22.080,12.220 22.039 C 11.413 22.011,10.213 21.997,9.490 22.008 C 8.122 22.029,8.040 22.020,8.040 21.843 C 8.040 21.723,8.118 21.696,8.607 21.649 C 9.341 21.579,9.427 21.498,9.483 20.823 C 9.501 20.601,9.517 18.980,9.518 17.220 L 9.519 14.020 9.309 14.259 C 9.194 14.391,8.559 15.111,7.899 15.859 C 7.238 16.608,6.503 17.445,6.265 17.720 L 5.832 18.220 7.456 18.230 L 9.080 18.241 9.080 18.760 L 9.080 19.280 6.789 19.280 C 4.780 19.280,4.487 19.272,4.409 19.218 C 4.296 19.138,4.296 19.002,4.409 18.855 C 4.634 18.564,10.505 11.803,10.648 11.670 C 10.828 11.504,10.966 11.480,11.162 11.581 M11.620 12.320 C 11.483 12.345,11.391 12.389,11.330 12.461 L 11.239 12.565 11.250 15.393 L 11.260 18.220 11.820 18.220 C 12.264 18.219,12.425 18.204,12.597 18.144 C 12.807 18.071,12.815 18.071,12.867 18.143 C 12.930 18.229,12.911 18.368,12.776 18.802 C 12.630 19.268,12.617 19.276,11.879 19.289 L 11.260 19.300 11.271 19.720 C 11.294 20.556,11.387 20.904,11.634 21.068 C 12.051 21.346,12.675 21.457,13.640 21.426 C 14.712 21.391,15.456 21.203,16.105 20.801 C 17.278 20.076,17.766 18.996,17.767 17.120 C 17.768 15.987,17.551 15.192,17.017 14.368 C 16.368 13.369,15.257 12.677,13.848 12.397 C 13.370 12.302,11.988 12.254,11.620 12.320 " stroke="none" fill="black" fill-rule="evenodd"></path></svg>