<svg role="img" viewBox="0 0 24 24" xmlns="http://www.w3.org/2000/svg"><path d="M4.284 1.962 C 3.833 2.018,3.264 2.183,2.862 2.374 C 2.402 2.593,0.186 4.015,0.099 4.147 C -0.135 4.504,0.115 4.959,0.545 4.960 C 0.722 4.960,0.624 5.018,2.360 3.894 C 3.463 3.181,3.816 3.046,4.663 3.011 C 5.264 2.987,5.656 3.048,6.168 3.245 C 6.671 3.440,6.998 3.688,7.773 4.468 L 8.485 5.186 7.363 6.077 C 6.745 6.568,6.240 6.980,6.241 6.994 C 6.242 7.025,12.360 9.254,12.381 9.232 C 12.398 9.216,11.811 2.637,11.791 2.618 C 11.785 2.611,11.230 3.035,10.560 3.559 L 9.340 4.513 8.560 3.743 C 7.740 2.935,7.456 2.706,6.940 2.443 C 6.158 2.043,5.130 1.857,4.284 1.962 M14.400 3.396 L 14.400 3.911 14.810 3.939 C 16.676 4.063,18.337 4.690,19.720 5.794 C 20.070 6.074,20.717 6.715,21.007 7.069 C 21.614 7.811,22.173 8.826,22.475 9.735 C 23.198 11.909,23.043 14.207,22.037 16.237 C 20.685 18.964,18.067 20.721,14.990 20.965 C 12.939 21.127,10.719 20.436,9.080 19.124 C 8.728 18.842,8.083 18.204,7.793 17.851 C 6.995 16.877,6.344 15.534,6.075 14.308 C 5.972 13.840,5.880 13.102,5.880 12.752 L 5.880 12.480 5.334 12.480 L 4.788 12.480 4.814 12.940 C 4.928 14.934,5.587 16.714,6.813 18.340 C 7.147 18.784,8.142 19.767,8.605 20.112 C 9.716 20.939,10.983 21.528,12.280 21.821 C 13.597 22.119,15.203 22.119,16.520 21.821 C 20.021 21.030,22.813 18.309,23.698 14.826 C 23.918 13.960,23.978 13.457,23.978 12.460 C 23.978 11.463,23.918 10.960,23.698 10.094 C 22.891 6.920,20.502 4.365,17.380 3.339 C 16.511 3.053,15.530 2.880,14.778 2.880 L 14.400 2.880 14.400 3.396 M13.620 9.358 C 12.490 9.655,11.635 10.496,11.312 11.628 C 11.240 11.879,11.223 12.042,11.223 12.460 C 11.223 12.878,11.240 13.041,11.312 13.292 C 11.611 14.340,12.359 15.131,13.391 15.492 C 13.691 15.597,13.812 15.617,14.252 15.632 C 14.833 15.652,15.110 15.610,15.566 15.435 C 16.491 15.079,17.205 14.283,17.488 13.292 C 17.615 12.847,17.615 12.073,17.488 11.628 C 17.163 10.488,16.303 9.647,15.167 9.357 C 14.764 9.254,14.015 9.254,13.620 9.358 " stroke="none" fill="black" fill-rule="evenodd"></path></svg>