<svg role="img" viewBox="0 0 24 24" xmlns="http://www.w3.org/2000/svg"><path d="M0.000 12.000 L 0.000 17.600 0.800 17.600 L 1.600 17.600 1.600 12.000 L 1.600 6.400 0.800 6.400 L 0.000 6.400 0.000 12.000 M3.200 12.000 L 3.200 17.600 4.000 17.600 L 4.800 17.600 4.800 12.000 L 4.800 6.400 4.000 6.400 L 3.200 6.400 3.200 12.000 M6.400 12.000 L 6.400 17.600 7.200 17.600 L 8.000 17.600 8.000 12.000 L 8.000 6.400 7.200 6.400 L 6.400 6.400 6.400 12.000 M9.600 12.000 L 9.600 17.600 10.400 17.600 L 11.200 17.600 11.200 12.000 L 11.200 6.400 10.400 6.400 L 9.600 6.400 9.600 12.000 M12.800 7.200 L 12.800 8.000 18.400 8.000 L 24.000 8.000 24.000 7.200 L 24.000 6.400 18.400 6.400 L 12.800 6.400 12.800 7.200 M12.800 10.400 L 12.800 11.200 18.400 11.200 L 24.000 11.200 24.000 10.400 L 24.000 9.600 18.400 9.600 L 12.800 9.600 12.800 10.400 M12.800 13.600 L 12.800 14.400 18.400 14.400 L 24.000 14.400 24.000 13.600 L 24.000 12.800 18.400 12.800 L 12.800 12.800 12.800 13.600 M12.800 16.800 L 12.800 17.600 18.400 17.600 L 24.000 17.600 24.000 16.800 L 24.000 16.000 18.400 16.000 L 12.800 16.000 12.800 16.800 " stroke="none" fill="black" fill-rule="evenodd"></path></svg>