<svg role="img" viewBox="0 0 24 24" xmlns="http://www.w3.org/2000/svg"><path d="M7.880 0.459 C 7.880 0.470,8.114 1.064,8.400 1.779 L 8.919 3.079 5.359 12.190 C 3.401 17.200,1.759 21.381,1.709 21.480 C 1.482 21.936,1.026 22.187,0.150 22.338 L 0.000 22.364 -0.000 22.962 L -0.000 23.560 3.410 23.550 L 6.820 23.540 6.831 22.954 L 6.842 22.368 6.551 22.341 C 5.148 22.211,4.598 21.941,4.481 21.324 C 4.411 20.954,4.520 20.453,4.801 19.858 C 4.948 19.548,5.357 18.474,5.807 17.220 L 6.022 16.620 10.225 16.610 L 14.428 16.600 15.014 18.095 C 15.602 19.598,15.757 20.071,15.840 20.619 C 15.944 21.308,15.700 21.785,15.100 22.063 C 14.763 22.220,14.308 22.311,13.694 22.346 L 13.238 22.372 13.249 22.956 L 13.260 23.540 18.630 23.550 L 24.000 23.560 24.000 22.962 L 24.000 22.364 23.850 22.339 C 23.144 22.221,22.708 22.032,22.380 21.702 L 22.140 21.460 17.955 10.960 L 13.770 0.460 10.825 0.450 C 9.205 0.444,7.880 0.448,7.880 0.459 M11.830 10.150 L 13.512 14.360 10.176 14.360 C 8.341 14.360,6.840 14.348,6.840 14.334 C 6.840 14.320,7.100 13.650,7.417 12.844 C 8.202 10.851,8.654 9.679,9.401 7.700 C 9.749 6.776,10.047 5.987,10.062 5.947 C 10.078 5.907,10.104 5.889,10.119 5.907 C 10.135 5.925,10.905 7.834,11.830 10.150 " stroke="none" fill="black" fill-rule="evenodd"></path></svg>