<svg role="img" viewBox="0 0 24 24" xmlns="http://www.w3.org/2000/svg"><path d="M9.542 4.230 C 9.132 4.240,9.008 4.256,8.952 4.307 C 8.847 4.403,8.863 4.528,9.011 4.746 C 9.121 4.908,14.129 11.313,17.263 15.300 C 18.315 16.639,18.480 16.800,18.797 16.800 C 18.973 16.800,19.120 16.744,21.119 15.919 C 23.462 14.953,23.605 14.890,23.695 14.802 C 23.810 14.688,23.751 14.492,23.501 14.153 C 23.042 13.533,15.453 4.502,15.300 4.394 C 15.187 4.315,15.058 4.270,14.860 4.242 C 14.606 4.205,10.896 4.197,9.542 4.230 M9.798 9.467 C 9.557 9.586,9.735 9.414,4.620 14.456 C 0.295 18.719,-0.000 19.015,-0.000 19.092 C -0.000 19.134,0.032 19.160,0.083 19.160 C 0.164 19.160,1.058 18.887,2.900 18.300 C 3.406 18.139,4.087 17.923,4.413 17.821 L 5.005 17.634 5.000 17.067 C 4.997 16.755,4.996 16.467,4.997 16.428 C 5.001 16.332,5.053 16.310,7.028 15.586 L 8.712 14.969 10.067 13.714 C 10.812 13.025,11.573 12.322,11.757 12.153 C 12.073 11.864,12.090 11.840,12.037 11.762 C 12.005 11.716,11.575 11.158,11.080 10.522 C 10.433 9.690,10.157 9.364,10.098 9.362 C 10.053 9.361,9.918 9.408,9.798 9.467 M11.660 14.458 C 11.364 14.539,5.508 16.681,5.450 16.729 C 5.390 16.778,5.384 16.905,5.439 16.940 C 5.538 17.001,17.612 19.690,18.110 19.762 C 18.505 19.819,18.795 19.789,19.062 19.663 C 19.171 19.612,20.142 19.026,21.220 18.360 C 22.298 17.694,23.357 17.040,23.574 16.906 C 23.791 16.773,23.979 16.638,23.991 16.606 C 24.035 16.490,23.847 16.414,23.195 16.287 C 22.835 16.216,22.495 16.156,22.440 16.153 C 22.385 16.151,21.431 16.549,20.320 17.039 C 17.507 18.278,17.670 18.220,17.307 18.111 C 17.032 18.029,16.704 17.668,15.582 16.213 C 14.991 15.447,14.496 14.806,14.481 14.789 C 14.453 14.757,12.515 14.459,12.100 14.423 C 11.955 14.411,11.781 14.424,11.660 14.458 " stroke="none" fill="black" fill-rule="evenodd"></path></svg>