<svg role="img" viewBox="0 0 24 24" xmlns="http://www.w3.org/2000/svg"><path d="M5.983 5.997 L -0.013 11.993 5.993 17.987 L 12.000 23.980 18.007 17.987 L 24.013 11.993 18.017 5.997 C 14.719 2.699,12.011 -0.000,12.000 -0.000 C 11.989 0.000,9.281 2.699,5.983 5.997 M12.726 4.682 C 13.634 4.775,14.475 5.022,15.306 5.440 C 17.522 6.556,19.012 8.689,19.301 11.160 C 19.375 11.791,19.375 12.209,19.301 12.840 C 18.904 16.239,16.239 18.904,12.840 19.301 C 12.209 19.375,11.791 19.375,11.157 19.301 C 8.617 19.004,6.430 17.427,5.338 15.103 C 4.657 13.656,4.472 11.975,4.821 10.417 C 4.967 9.769,5.116 9.355,5.441 8.700 C 6.784 5.994,9.718 4.375,12.726 4.682 M11.520 5.403 C 9.907 5.517,8.438 6.199,7.291 7.365 C 6.388 8.284,5.837 9.292,5.535 10.580 C 5.428 11.035,5.422 11.109,5.422 12.000 C 5.422 12.891,5.428 12.965,5.535 13.420 C 5.854 14.781,6.444 15.817,7.450 16.785 C 8.343 17.645,9.395 18.198,10.684 18.487 C 11.055 18.570,11.200 18.580,12.020 18.579 C 12.886 18.578,12.968 18.571,13.420 18.465 C 14.762 18.150,15.813 17.555,16.764 16.571 C 17.621 15.684,18.174 14.660,18.465 13.420 C 18.572 12.965,18.578 12.891,18.578 12.000 C 18.578 11.109,18.572 11.035,18.465 10.580 C 18.128 9.145,17.457 8.011,16.363 7.027 C 15.391 6.152,13.960 5.525,12.700 5.421 C 12.134 5.374,11.971 5.371,11.520 5.403 M8.482 10.473 C 8.604 10.521,8.769 10.627,8.850 10.710 C 9.115 10.982,9.120 11.015,9.120 12.399 L 9.120 13.640 8.640 13.640 L 8.160 13.640 8.160 13.480 C 8.160 13.392,8.150 13.320,8.137 13.320 C 8.125 13.320,8.056 13.364,7.985 13.419 C 7.731 13.612,7.482 13.696,7.160 13.696 C 6.803 13.696,6.602 13.608,6.391 13.362 C 6.076 12.994,6.075 12.382,6.390 12.034 C 6.641 11.756,6.877 11.670,7.636 11.580 C 7.909 11.547,8.141 11.513,8.150 11.503 C 8.196 11.457,8.081 11.251,7.965 11.173 C 7.711 11.001,7.277 11.004,6.753 11.183 C 6.595 11.236,6.460 11.280,6.453 11.280 C 6.446 11.280,6.440 11.102,6.440 10.884 L 6.440 10.487 6.750 10.426 C 7.224 10.331,8.187 10.358,8.482 10.473 M11.860 10.415 C 11.970 10.445,12.127 10.498,12.210 10.532 L 12.360 10.596 12.360 11.018 C 12.360 11.509,12.350 11.517,12.039 11.303 C 11.769 11.117,11.600 11.069,11.285 11.086 C 10.953 11.105,10.807 11.200,10.663 11.488 C 10.577 11.661,10.560 11.751,10.560 12.029 C 10.560 12.685,10.814 12.977,11.380 12.973 C 11.690 12.971,11.858 12.913,12.096 12.724 C 12.346 12.524,12.360 12.540,12.360 13.035 L 12.360 13.469 12.030 13.579 C 11.254 13.838,10.373 13.668,9.919 13.172 C 9.628 12.853,9.546 12.604,9.544 12.040 C 9.543 11.651,9.557 11.544,9.636 11.346 C 9.820 10.881,10.188 10.557,10.680 10.424 C 10.959 10.350,11.599 10.344,11.860 10.415 M15.133 10.409 C 15.292 10.456,15.548 10.667,15.629 10.816 C 15.668 10.888,15.686 10.881,15.905 10.711 C 16.280 10.420,16.378 10.381,16.740 10.381 C 17.116 10.380,17.266 10.448,17.466 10.710 C 17.656 10.960,17.680 11.154,17.680 12.462 L 17.680 13.640 17.180 13.640 L 16.680 13.640 16.680 12.579 C 16.680 11.370,16.664 11.280,16.428 11.203 C 16.241 11.141,15.881 11.239,15.791 11.376 C 15.774 11.400,15.761 11.920,15.761 12.530 L 15.760 13.640 15.280 13.640 L 14.800 13.640 14.800 12.730 C 14.800 11.724,14.763 11.385,14.642 11.264 C 14.534 11.156,14.223 11.156,14.037 11.265 L 13.900 11.344 13.889 12.492 L 13.879 13.640 13.379 13.640 L 12.880 13.640 12.880 12.040 L 12.880 10.440 13.378 10.440 L 13.875 10.440 13.888 10.598 L 13.900 10.755 14.134 10.598 C 14.484 10.362,14.786 10.305,15.133 10.409 M7.770 12.181 C 7.405 12.235,7.257 12.310,7.195 12.472 C 7.137 12.624,7.181 12.847,7.288 12.934 C 7.420 13.042,7.852 13.014,8.031 12.886 C 8.158 12.796,8.160 12.789,8.160 12.480 C 8.160 12.306,8.146 12.157,8.130 12.149 C 8.114 12.140,7.952 12.154,7.770 12.181 " stroke="none" fill="black" fill-rule="evenodd"></path></svg>