<svg role="img" xmlns="http://www.w3.org/2000/svg" viewBox="0 0 24 24"><path d="M8.498 2.590 C 8.019 3.421,7.620 4.114,7.611 4.131 C 7.602 4.148,7.759 4.448,7.960 4.798 C 8.317 5.418,8.324 5.436,8.267 5.547 C 8.113 5.842,4.668 11.786,4.627 11.826 C 4.601 11.852,4.092 12.153,3.496 12.497 L 2.411 13.122 1.220 15.191 C 0.564 16.329,0.023 17.270,0.016 17.283 C 0.009 17.296,0.425 18.034,0.939 18.923 L 1.873 20.540 2.207 20.551 L 2.540 20.563 2.800 21.021 L 3.060 21.480 8.200 21.481 L 13.340 21.483 13.753 22.202 L 14.165 22.920 14.345 22.920 C 14.444 22.920,14.517 22.907,14.508 22.890 C 14.498 22.873,14.317 22.560,14.105 22.193 C 13.893 21.826,13.720 21.516,13.720 21.503 C 13.720 21.491,15.577 21.476,17.846 21.470 L 21.972 21.460 22.986 19.732 L 24.000 18.005 19.277 9.823 L 14.553 1.642 14.007 1.631 L 13.461 1.620 13.306 1.350 L 13.150 1.080 11.259 1.080 L 9.368 1.080 8.498 2.590 M14.518 11.787 L 17.385 16.740 13.994 16.760 L 10.604 16.780 10.947 17.372 C 11.135 17.697,11.281 17.972,11.271 17.982 C 11.261 17.992,9.865 17.996,8.168 17.990 L 5.083 17.980 8.329 12.370 C 10.366 8.849,11.589 6.773,11.613 6.797 C 11.634 6.818,12.941 9.064,14.518 11.787 " stroke="none" fill="black" fill-rule="evenodd"></path></svg>