<svg role="img" viewBox="0 0 24 24" xmlns="http://www.w3.org/2000/svg"><path d="M11.353 0.041 C 10.056 0.246,9.098 0.979,8.236 2.428 C 7.723 3.289,4.549 9.687,2.911 13.160 C 0.984 17.245,0.794 17.799,0.853 19.160 C 0.927 20.873,1.837 22.373,3.343 23.263 C 4.725 24.080,6.490 24.208,8.016 23.602 C 9.161 23.147,10.191 22.433,11.390 21.264 L 12.001 20.668 12.610 21.265 C 13.626 22.259,14.465 22.879,15.420 23.344 C 16.384 23.814,17.021 23.968,18.000 23.971 C 18.893 23.974,19.557 23.821,20.335 23.436 C 20.851 23.180,21.195 22.928,21.666 22.462 C 22.416 21.718,22.841 20.944,23.066 19.912 C 23.167 19.451,23.166 18.397,23.065 17.920 C 22.919 17.237,22.647 16.491,22.151 15.421 C 20.174 11.151,17.354 5.423,15.910 2.740 C 15.032 1.110,14.205 0.361,12.985 0.094 C 12.650 0.021,11.678 -0.011,11.353 0.041 M12.810 1.689 C 13.501 1.948,13.841 2.261,14.342 3.100 C 14.700 3.698,17.952 10.149,18.953 12.245 C 20.438 15.356,21.264 17.188,21.459 17.805 C 21.662 18.447,21.669 19.275,21.478 19.900 C 20.999 21.461,19.457 22.544,17.820 22.469 C 16.801 22.423,15.828 21.996,14.700 21.103 C 14.255 20.751,13.040 19.574,13.040 19.495 C 13.040 19.467,13.210 19.222,13.417 18.949 C 14.770 17.170,15.630 15.476,15.949 13.961 C 16.037 13.540,16.054 13.357,16.054 12.820 C 16.054 12.119,16.011 11.851,15.805 11.286 C 15.432 10.265,14.583 9.411,13.573 9.042 C 12.663 8.710,11.456 8.702,10.521 9.020 C 8.378 9.748,7.416 12.160,8.240 14.733 C 8.645 15.999,9.435 17.424,10.570 18.936 C 10.766 19.198,10.937 19.437,10.948 19.467 C 10.975 19.537,10.254 20.275,9.640 20.806 C 8.311 21.955,7.193 22.447,5.900 22.454 C 4.226 22.462,2.820 21.308,2.450 19.621 C 2.357 19.197,2.369 18.463,2.476 18.022 C 2.640 17.341,3.300 15.849,5.021 12.260 C 5.857 10.517,9.265 3.715,9.582 3.157 C 9.897 2.603,10.093 2.355,10.440 2.076 C 10.940 1.674,11.316 1.557,12.040 1.575 C 12.456 1.586,12.585 1.605,12.810 1.689 M12.754 10.384 C 13.707 10.627,14.442 11.515,14.539 12.540 C 14.626 13.458,14.161 14.936,13.355 16.306 C 12.970 16.960,12.072 18.240,11.998 18.240 C 11.963 18.240,11.294 17.345,11.012 16.920 C 10.005 15.403,9.467 13.974,9.463 12.800 C 9.461 12.224,9.539 11.902,9.776 11.509 C 10.193 10.818,10.778 10.430,11.566 10.321 C 11.881 10.277,12.455 10.308,12.754 10.384 " stroke="none" fill="black" fill-rule="evenodd"></path></svg>