<svg role="img" xmlns="http://www.w3.org/2000/svg" viewBox="0 0 24 24"><path d="M0.310 1.169 C 0.218 1.222,0.128 1.320,0.080 1.421 C 0.001 1.584,0.000 1.681,0.000 12.027 L 0.000 22.468 0.090 22.600 C 0.140 22.673,0.231 22.770,0.293 22.816 C 0.406 22.900,0.413 22.900,4.733 22.910 C 9.565 22.922,9.231 22.941,9.429 22.644 C 9.517 22.512,9.520 22.479,9.520 21.566 C 9.520 21.025,9.535 20.640,9.555 20.662 C 9.574 20.683,9.730 21.123,9.901 21.640 C 10.072 22.157,10.239 22.622,10.272 22.672 C 10.305 22.723,10.401 22.800,10.485 22.842 C 10.632 22.917,10.750 22.920,14.136 22.920 C 16.517 22.920,17.671 22.906,17.747 22.877 C 17.896 22.821,18.039 22.687,18.099 22.546 L 18.148 22.432 18.228 22.586 C 18.274 22.675,18.373 22.778,18.464 22.830 L 18.620 22.920 21.107 22.910 C 23.549 22.900,23.596 22.898,23.705 22.818 C 23.765 22.772,23.852 22.685,23.898 22.625 L 23.980 22.514 23.990 15.267 C 24.000 8.268,23.998 8.015,23.926 7.881 C 23.885 7.805,23.805 7.708,23.748 7.665 C 23.612 7.563,19.276 6.320,19.057 6.320 C 18.863 6.320,18.658 6.442,18.555 6.620 C 18.516 6.686,18.077 7.802,17.579 9.100 C 17.080 10.398,16.656 11.487,16.637 11.520 C 16.617 11.554,16.602 10.356,16.601 8.719 L 16.600 5.859 16.504 5.717 C 16.451 5.639,16.339 5.545,16.254 5.509 C 15.956 5.379,12.764 4.480,12.601 4.480 C 12.393 4.480,12.232 4.562,12.113 4.729 L 12.020 4.860 12.000 8.020 L 11.980 11.180 11.869 10.880 C 11.808 10.715,11.171 9.018,10.453 7.110 C 9.114 3.548,9.088 3.487,8.846 3.395 C 8.550 3.282,0.689 1.080,0.585 1.081 C 0.516 1.081,0.392 1.121,0.310 1.169 M4.740 3.500 C 6.588 4.023,8.114 4.464,8.132 4.479 C 8.149 4.495,9.044 6.855,10.120 9.724 C 11.892 14.446,12.090 14.952,12.213 15.066 C 12.508 15.338,12.965 15.248,13.150 14.882 L 13.240 14.703 13.240 10.312 C 13.240 7.271,13.253 5.920,13.282 5.920 C 13.318 5.920,13.843 6.069,15.130 6.445 L 15.400 6.523 15.400 10.804 C 15.400 15.436,15.388 15.184,15.614 15.395 C 15.740 15.513,15.933 15.555,16.140 15.510 C 16.329 15.469,16.485 15.331,16.575 15.127 C 16.611 15.046,17.268 13.345,18.036 11.348 C 18.803 9.350,19.440 7.707,19.451 7.696 C 19.461 7.686,20.210 7.888,21.115 8.147 L 22.760 8.617 22.760 15.148 L 22.760 21.680 21.080 21.680 L 19.400 21.680 19.400 21.084 L 19.400 20.488 20.093 20.474 C 20.768 20.460,20.790 20.457,20.949 20.352 C 21.259 20.147,21.244 20.369,21.231 16.233 C 21.220 12.583,21.220 12.565,21.136 12.453 C 20.925 12.167,20.620 12.087,20.322 12.239 C 20.205 12.299,20.142 12.371,20.068 12.529 C 20.014 12.645,19.324 14.751,18.535 17.209 L 17.100 21.678 14.153 21.679 L 11.207 21.680 8.957 14.930 C 7.720 11.217,6.682 8.140,6.650 8.092 C 6.582 7.987,6.294 7.840,6.156 7.840 C 5.990 7.840,5.708 8.009,5.621 8.160 C 5.541 8.299,5.540 8.351,5.540 14.000 C 5.540 19.649,5.541 19.701,5.621 19.840 C 5.669 19.923,5.774 20.017,5.879 20.070 C 6.051 20.157,6.094 20.160,7.188 20.160 L 8.320 20.160 8.320 20.920 L 8.320 21.680 4.780 21.680 L 1.240 21.680 1.240 12.095 C 1.240 2.987,1.243 2.512,1.310 2.529 C 1.349 2.540,2.892 2.976,4.740 3.500 M7.898 15.635 L 8.994 18.920 7.877 18.920 L 6.760 18.920 6.760 15.613 C 6.760 13.795,6.770 12.316,6.782 12.328 C 6.793 12.340,7.296 13.828,7.898 15.635 M20.000 18.000 L 20.000 19.240 19.600 19.240 C 19.380 19.240,19.199 19.227,19.199 19.210 C 19.197 19.168,19.972 16.760,19.987 16.760 C 19.994 16.760,20.000 17.318,20.000 18.000 " stroke="none" fill="black" fill-rule="evenodd"></path></svg>