<svg role="img" xmlns="http://www.w3.org/2000/svg" viewBox="0 0 24 24"><path d="M5.928 1.730 C 5.885 1.801,4.533 4.141,2.924 6.930 L -0.001 12.000 2.995 17.190 L 5.991 22.380 12.000 22.380 L 18.009 22.380 21.005 17.190 L 24.000 12.000 21.005 6.810 L 18.009 1.620 12.008 1.610 L 6.007 1.600 5.928 1.730 M14.007 11.212 C 15.456 12.660,16.633 13.859,16.622 13.877 C 16.581 13.943,16.038 14.243,15.753 14.357 C 15.217 14.572,14.632 14.613,14.272 14.463 C 14.170 14.420,13.476 13.749,12.056 12.320 C 10.918 11.176,9.965 10.240,9.938 10.240 C 9.911 10.240,8.936 11.183,7.771 12.337 C 5.408 14.677,5.585 14.537,4.980 14.537 C 4.609 14.537,4.217 14.430,3.785 14.212 C 3.464 14.051,3.200 13.883,3.200 13.840 C 3.200 13.824,4.721 12.306,6.580 10.467 L 9.960 7.123 10.666 7.851 C 11.055 8.252,12.558 9.764,14.007 11.212 M17.674 10.894 L 20.648 13.868 20.320 14.060 C 19.503 14.539,18.749 14.678,18.226 14.447 C 18.094 14.389,17.618 13.941,16.363 12.698 L 14.677 11.026 14.521 11.179 L 14.364 11.332 13.972 10.969 C 13.756 10.769,13.400 10.424,13.181 10.203 L 12.781 9.800 13.720 8.860 C 14.237 8.343,14.669 7.920,14.680 7.920 C 14.691 7.920,16.038 9.258,17.674 10.894 M8.720 13.304 L 8.720 14.568 8.510 14.540 C 8.175 14.495,7.704 14.324,7.328 14.110 C 7.137 14.001,6.963 13.895,6.941 13.875 C 6.917 13.852,7.236 13.504,7.801 12.939 C 8.295 12.445,8.704 12.040,8.710 12.040 C 8.715 12.040,8.720 12.609,8.720 13.304 " stroke="none" fill="black" fill-rule="evenodd"></path></svg>