<svg role="img" viewBox="0 0 24 24" xmlns="http://www.w3.org/2000/svg"><path d="M17.458 9.778 C 17.159 10.077,17.599 10.501,17.935 10.237 C 18.016 10.173,18.040 10.119,18.040 10.000 C 18.040 9.881,18.016 9.827,17.935 9.763 C 17.788 9.648,17.582 9.654,17.458 9.778 M0.559 10.659 C 0.329 10.733,0.125 10.941,0.093 11.133 C 0.070 11.278,0.071 11.280,0.205 11.281 C 0.279 11.281,0.380 11.292,0.429 11.305 C 0.498 11.324,0.527 11.307,0.555 11.233 C 0.609 11.091,0.710 11.024,0.868 11.024 C 1.036 11.024,1.120 11.117,1.120 11.303 L 1.120 11.430 0.813 11.476 C 0.410 11.536,0.205 11.650,0.090 11.878 C -0.177 12.408,0.224 12.915,0.790 12.763 C 0.881 12.738,1.011 12.672,1.078 12.616 L 1.200 12.513 1.303 12.637 C 1.360 12.704,1.429 12.760,1.456 12.760 C 1.483 12.760,1.581 12.695,1.674 12.616 L 1.842 12.472 1.765 12.346 C 1.702 12.241,1.686 12.121,1.672 11.637 C 1.653 10.969,1.606 10.833,1.348 10.706 C 1.148 10.608,0.786 10.586,0.559 10.659 M5.581 10.656 C 5.363 10.717,5.141 10.921,5.096 11.101 C 5.062 11.235,5.097 11.264,5.329 11.294 C 5.510 11.317,5.522 11.313,5.581 11.197 C 5.653 11.059,5.801 10.989,5.944 11.025 C 6.061 11.054,6.120 11.151,6.120 11.313 C 6.120 11.429,6.116 11.431,5.812 11.476 C 5.416 11.535,5.196 11.661,5.084 11.892 C 4.828 12.420,5.231 12.913,5.794 12.762 C 5.883 12.738,6.011 12.672,6.078 12.616 L 6.200 12.513 6.303 12.637 C 6.360 12.704,6.433 12.760,6.465 12.760 C 6.497 12.760,6.599 12.690,6.691 12.603 L 6.859 12.447 6.779 12.359 C 6.709 12.282,6.697 12.196,6.679 11.637 C 6.660 11.083,6.647 10.988,6.576 10.891 C 6.402 10.654,5.962 10.550,5.581 10.656 M14.031 10.714 C 13.815 10.828,13.814 10.828,13.777 10.744 C 13.746 10.673,13.705 10.660,13.520 10.660 L 13.300 10.660 13.290 12.130 L 13.279 13.600 13.580 13.600 L 13.880 13.600 13.880 13.105 L 13.880 12.611 14.070 12.708 C 14.323 12.838,14.679 12.825,14.896 12.678 C 15.507 12.264,15.499 11.018,14.884 10.693 C 14.627 10.557,14.315 10.565,14.031 10.714 M19.434 10.659 C 19.353 10.689,19.241 10.744,19.184 10.781 C 19.083 10.847,19.080 10.846,19.041 10.742 C 19.003 10.642,18.987 10.637,18.770 10.648 L 18.540 10.660 18.540 11.700 L 18.540 12.740 18.820 12.740 L 19.100 12.740 19.120 11.941 L 19.140 11.142 19.300 11.094 C 19.518 11.029,19.650 11.029,19.742 11.097 C 19.813 11.149,19.822 11.221,19.840 11.947 L 19.860 12.740 20.140 12.740 L 20.420 12.740 20.431 11.951 C 20.443 11.059,20.424 11.106,20.783 11.058 C 20.955 11.036,20.991 11.044,21.060 11.120 C 21.133 11.201,21.141 11.275,21.152 11.984 L 21.165 12.760 21.438 12.760 C 21.650 12.760,21.717 12.746,21.736 12.697 C 21.774 12.597,21.762 11.198,21.722 11.024 C 21.702 10.937,21.630 10.811,21.562 10.744 C 21.444 10.626,21.424 10.620,21.109 10.620 C 20.827 10.620,20.749 10.636,20.563 10.732 C 20.374 10.829,20.341 10.836,20.311 10.782 C 20.214 10.609,19.748 10.544,19.434 10.659 M22.766 10.646 C 22.555 10.707,22.258 11.031,22.183 11.282 C 22.102 11.554,22.103 11.887,22.184 12.163 C 22.264 12.435,22.518 12.695,22.769 12.763 C 23.106 12.854,23.770 12.792,23.881 12.659 C 23.905 12.630,23.920 12.537,23.913 12.453 C 23.901 12.317,23.889 12.301,23.800 12.309 C 23.176 12.368,23.095 12.368,22.949 12.306 C 22.842 12.262,22.780 12.201,22.739 12.103 C 22.639 11.864,22.645 11.859,23.015 11.873 C 23.432 11.889,23.644 11.834,23.833 11.661 C 23.973 11.533,23.980 11.513,23.980 11.273 C 23.980 10.966,23.875 10.790,23.624 10.676 C 23.443 10.594,23.000 10.578,22.766 10.646 M2.848 10.694 C 2.797 10.722,2.720 10.798,2.678 10.863 L 2.601 10.980 2.600 10.830 L 2.600 10.680 2.360 10.680 L 2.120 10.680 2.120 11.030 C 2.120 11.223,2.132 11.691,2.146 12.072 L 2.173 12.764 2.396 12.752 L 2.620 12.740 2.640 11.996 C 2.662 11.186,2.680 11.120,2.884 11.120 C 3.067 11.120,3.108 11.235,3.137 11.820 C 3.151 12.106,3.173 12.434,3.186 12.550 L 3.209 12.760 3.421 12.760 L 3.634 12.760 3.647 12.016 C 3.660 11.291,3.662 11.271,3.754 11.196 C 3.996 11.001,4.160 11.155,4.160 11.579 C 4.160 11.734,4.172 12.063,4.186 12.312 L 4.212 12.764 4.436 12.752 L 4.660 12.740 4.671 11.911 C 4.683 10.978,4.659 10.859,4.432 10.721 C 4.348 10.669,4.230 10.640,4.105 10.640 C 3.933 10.640,3.893 10.658,3.759 10.791 L 3.608 10.942 3.471 10.791 C 3.347 10.655,3.315 10.640,3.137 10.641 C 3.029 10.642,2.898 10.666,2.848 10.694 M9.232 10.719 C 8.908 10.895,8.739 11.289,8.768 11.797 C 8.802 12.386,9.077 12.748,9.522 12.791 C 9.936 12.831,10.299 12.563,10.426 12.124 C 10.572 11.624,10.405 10.990,10.070 10.769 C 9.852 10.624,9.451 10.601,9.232 10.719 M11.529 10.689 C 11.479 10.713,11.399 10.797,11.350 10.876 L 11.262 11.018 11.228 10.847 L 11.195 10.676 10.987 10.688 L 10.780 10.700 10.789 11.100 C 10.795 11.320,10.810 11.784,10.824 12.132 L 10.849 12.764 11.054 12.752 L 11.260 12.740 11.281 12.060 C 11.306 11.264,11.352 11.122,11.587 11.121 C 11.749 11.119,11.787 11.210,11.815 11.667 C 11.830 11.905,11.853 12.248,11.867 12.430 L 11.891 12.760 12.108 12.760 L 12.324 12.760 12.312 11.837 L 12.300 10.914 12.151 10.777 C 12.023 10.660,11.974 10.640,11.811 10.643 C 11.706 10.644,11.579 10.665,11.529 10.689 M15.778 10.691 C 15.767 10.719,15.763 11.191,15.769 11.741 L 15.780 12.740 16.060 12.740 L 16.340 12.740 16.351 11.995 L 16.362 11.251 16.588 11.205 C 16.712 11.180,16.883 11.160,16.969 11.160 L 17.124 11.160 17.112 10.910 C 17.101 10.681,17.092 10.659,17.005 10.647 C 16.824 10.621,16.635 10.685,16.482 10.823 L 16.329 10.961 16.301 10.851 C 16.286 10.790,16.255 10.718,16.232 10.690 C 16.176 10.623,15.804 10.624,15.778 10.691 M17.419 10.689 C 17.408 10.718,17.403 11.191,17.409 11.741 L 17.420 12.740 17.700 12.740 L 17.980 12.740 17.980 11.700 L 17.980 10.660 17.709 10.648 C 17.514 10.640,17.433 10.651,17.419 10.689 M7.460 10.717 L 7.140 10.740 7.140 10.900 L 7.140 11.060 7.490 11.072 C 7.683 11.078,7.840 11.090,7.840 11.099 C 7.840 11.108,7.669 11.360,7.460 11.659 L 7.080 12.203 7.080 12.461 C 7.080 12.604,7.085 12.720,7.090 12.720 C 7.095 12.720,7.195 12.684,7.310 12.640 C 7.588 12.535,8.007 12.534,8.303 12.638 C 8.557 12.727,8.573 12.714,8.553 12.435 C 8.541 12.279,8.525 12.252,8.395 12.189 C 8.316 12.150,8.149 12.105,8.024 12.089 L 7.798 12.060 8.159 11.543 C 8.479 11.086,8.520 11.007,8.520 10.853 L 8.520 10.680 8.150 10.687 C 7.947 10.691,7.636 10.705,7.460 10.717 M23.351 11.062 C 23.453 11.134,23.469 11.305,23.384 11.421 C 23.341 11.480,23.268 11.500,23.054 11.510 C 22.702 11.527,22.655 11.498,22.719 11.302 C 22.804 11.045,23.143 10.917,23.351 11.062 M9.829 11.148 C 9.886 11.235,9.900 11.343,9.900 11.705 C 9.900 12.099,9.890 12.168,9.816 12.267 C 9.702 12.420,9.538 12.420,9.424 12.267 C 9.350 12.168,9.340 12.100,9.340 11.706 C 9.340 11.166,9.393 11.040,9.620 11.040 C 9.726 11.040,9.775 11.065,9.829 11.148 M14.496 11.086 C 14.651 11.156,14.720 11.349,14.720 11.710 C 14.720 11.975,14.705 12.051,14.629 12.164 C 14.510 12.341,14.320 12.393,14.076 12.316 L 13.900 12.260 13.889 11.709 L 13.878 11.157 14.009 11.100 C 14.169 11.030,14.363 11.025,14.496 11.086 M1.120 11.922 C 1.120 12.198,0.970 12.400,0.765 12.400 C 0.665 12.400,0.560 12.256,0.560 12.120 C 0.560 11.912,0.733 11.768,0.990 11.763 C 1.116 11.760,1.120 11.765,1.120 11.922 M6.120 11.957 C 6.120 12.204,5.978 12.400,5.799 12.400 C 5.590 12.400,5.488 12.121,5.624 11.926 C 5.701 11.816,5.814 11.766,5.990 11.763 C 6.119 11.760,6.120 11.761,6.120 11.957 M7.525 12.881 C 7.328 12.922,7.060 13.050,7.060 13.102 C 7.060 13.121,7.226 13.132,7.428 13.125 C 7.631 13.119,7.833 13.125,7.878 13.139 C 7.991 13.175,7.985 13.352,7.860 13.720 C 7.742 14.066,7.746 14.040,7.815 14.040 C 7.958 14.040,8.224 13.531,8.265 13.181 C 8.288 12.989,8.281 12.964,8.202 12.921 C 8.081 12.856,7.738 12.836,7.525 12.881 M1.751 13.062 C 1.810 13.168,2.403 13.592,2.728 13.762 C 3.413 14.119,3.994 14.271,4.800 14.305 C 5.707 14.344,6.649 14.124,7.332 13.713 C 7.690 13.498,7.742 13.445,7.667 13.370 C 7.626 13.329,7.567 13.339,7.366 13.421 C 7.010 13.566,6.287 13.744,5.825 13.802 C 5.284 13.869,4.300 13.830,3.780 13.720 C 3.237 13.605,2.643 13.402,2.205 13.183 C 1.820 12.989,1.691 12.955,1.751 13.062 " stroke="none" fill="black" fill-rule="evenodd"></path></svg>