<svg role="img" xmlns="http://www.w3.org/2000/svg" viewBox="0 0 24 24"><path d="M10.960 0.044 C 6.881 0.399,3.275 2.809,1.354 6.462 C 0.328 8.414,-0.146 10.765,0.041 12.980 C 0.427 17.534,3.316 21.443,7.557 23.147 C 8.347 23.465,9.533 23.790,10.172 23.864 L 10.405 23.892 10.392 22.496 L 10.380 21.100 10.253 20.833 C 10.026 20.353,9.744 20.121,9.119 19.898 C 7.776 19.421,6.368 18.414,5.480 17.297 C 3.866 15.265,3.271 12.802,3.781 10.260 C 4.358 7.380,6.532 4.950,9.360 4.024 C 11.201 3.420,13.226 3.471,15.021 4.164 C 18.137 5.368,20.255 8.319,20.388 11.640 C 20.478 13.919,19.675 16.123,17.984 18.239 C 17.523 18.815,16.326 20.030,15.740 20.517 C 14.325 21.692,12.630 22.798,11.000 23.611 L 10.420 23.900 10.620 23.927 C 10.730 23.942,11.162 23.967,11.580 23.983 C 16.041 24.148,20.201 21.828,22.429 17.934 C 25.418 12.709,24.034 6.051,19.200 2.404 C 16.860 0.639,13.892 -0.211,10.960 0.044 " stroke="none" fill="black" fill-rule="evenodd"></path></svg>