<svg role="img" viewBox="0 0 24 24" xmlns="http://www.w3.org/2000/svg"><path d="M0.048 0.327 C 0.081 0.378,1.203 2.211,2.540 4.400 C 3.877 6.589,5.049 8.481,5.143 8.604 C 5.696 9.323,6.225 9.565,7.420 9.642 C 8.003 9.680,12.400 9.695,12.400 9.660 C 12.400 9.648,11.882 8.987,11.248 8.190 C 10.615 7.392,9.496 5.975,8.761 5.040 C 6.722 2.445,6.175 1.775,5.749 1.352 C 5.143 0.748,4.733 0.488,4.145 0.332 C 3.939 0.277,3.588 0.264,1.944 0.251 L -0.013 0.235 0.048 0.327 M12.460 10.104 C 11.048 10.190,10.240 10.292,9.492 10.480 C 8.734 10.670,8.051 11.051,7.782 11.434 C 7.671 11.591,7.659 11.640,7.646 11.978 C 7.631 12.388,7.697 12.724,7.854 13.035 C 7.905 13.137,8.703 14.471,9.626 16.000 C 10.550 17.529,11.754 19.524,12.303 20.433 C 13.085 21.730,13.359 22.151,13.574 22.384 C 14.186 23.048,14.856 23.417,15.868 23.646 C 16.256 23.734,16.299 23.736,20.136 23.750 L 24.013 23.764 23.833 23.552 C 23.735 23.435,21.912 21.228,19.783 18.647 C 17.284 15.618,15.874 13.940,15.806 13.914 C 15.666 13.860,14.739 13.935,14.273 14.038 C 12.290 14.477,10.597 15.804,10.443 17.040 L 10.415 17.260 10.363 17.100 C 10.334 17.012,10.302 16.706,10.291 16.420 C 10.275 15.985,10.285 15.843,10.355 15.552 C 10.515 14.881,10.803 14.387,11.356 13.840 C 12.257 12.948,13.612 12.372,15.320 12.153 C 15.917 12.076,17.265 12.096,17.684 12.187 C 18.084 12.274,18.074 12.292,17.878 11.853 C 17.451 10.898,16.640 10.399,15.149 10.177 C 14.755 10.118,13.012 10.071,12.460 10.104 " stroke="none" fill="black" fill-rule="evenodd"></path></svg>