<svg role="img" viewBox="0 0 24 24" xmlns="http://www.w3.org/2000/svg"><path d="M16.878 7.191 C 16.313 7.765,15.958 8.040,15.783 8.040 C 15.651 8.040,15.653 8.010,15.805 7.710 C 15.999 7.326,16.206 6.849,16.130 6.960 C 15.979 7.182,15.546 7.595,15.356 7.698 C 15.144 7.814,14.680 7.890,14.680 7.810 C 14.680 7.787,14.745 7.672,14.824 7.554 C 14.961 7.351,15.240 6.830,15.240 6.777 C 15.240 6.764,15.160 6.851,15.061 6.972 C 14.656 7.470,14.083 7.731,13.650 7.615 C 13.527 7.582,13.533 7.434,13.667 7.205 L 13.774 7.022 13.613 7.150 C 13.001 7.635,12.494 7.561,12.661 7.011 C 12.693 6.906,12.719 6.812,12.720 6.803 C 12.720 6.793,12.628 6.919,12.517 7.083 C 12.262 7.455,12.047 7.680,11.946 7.680 C 11.875 7.680,11.870 7.659,11.894 7.430 C 11.907 7.293,11.931 7.135,11.945 7.080 C 11.963 7.014,11.911 7.061,11.791 7.220 C 11.526 7.572,11.363 7.711,11.200 7.727 L 11.060 7.740 11.060 7.393 L 11.060 7.046 10.957 7.273 C 10.830 7.551,10.659 7.760,10.557 7.760 C 10.462 7.760,10.359 7.604,10.299 7.368 L 10.252 7.185 10.168 7.463 C 10.052 7.846,9.997 7.894,9.582 7.976 C 8.696 8.152,7.192 8.661,6.213 9.116 C 4.649 9.842,3.171 10.837,1.640 12.192 C 0.990 12.767,0.318 13.414,0.420 13.366 C 0.813 13.180,1.791 12.531,2.973 11.672 C 3.453 11.323,4.056 10.897,4.313 10.725 C 6.508 9.256,8.628 8.601,11.711 8.439 C 13.458 8.347,15.067 8.542,16.575 9.028 C 17.332 9.271,17.804 9.477,18.968 10.072 C 19.902 10.549,19.972 10.578,20.228 10.593 C 20.556 10.611,21.139 10.516,21.527 10.380 C 22.275 10.119,23.078 9.539,23.642 8.852 L 23.899 8.540 23.646 8.760 C 22.828 9.471,22.332 9.725,21.765 9.724 C 21.602 9.723,21.463 9.716,21.455 9.708 C 21.447 9.700,21.540 9.625,21.661 9.541 C 21.986 9.317,22.443 8.811,22.777 8.305 C 22.938 8.060,23.065 7.853,23.057 7.845 C 23.050 7.837,22.911 7.952,22.748 8.100 C 21.873 8.892,20.894 9.400,20.242 9.400 L 19.973 9.400 20.317 9.050 C 20.687 8.673,21.041 8.182,21.333 7.640 C 21.520 7.293,21.654 7.000,21.625 7.000 C 21.616 7.000,21.497 7.155,21.360 7.344 C 20.721 8.223,20.052 8.908,19.610 9.135 C 19.270 9.310,19.266 9.286,19.576 8.956 C 19.745 8.777,19.992 8.466,20.125 8.265 C 20.357 7.915,20.784 7.091,20.751 7.058 C 20.743 7.049,20.667 7.134,20.584 7.245 C 20.117 7.871,19.470 8.489,19.051 8.709 C 18.606 8.944,18.596 8.916,18.981 8.515 C 19.351 8.130,19.663 7.701,19.796 7.394 C 19.950 7.039,19.935 7.018,19.717 7.281 C 19.160 7.952,18.402 8.655,18.028 8.846 C 17.877 8.923,17.859 8.925,17.758 8.865 C 17.658 8.806,17.646 8.807,17.579 8.881 C 17.540 8.924,17.492 8.960,17.473 8.960 C 17.453 8.960,17.553 8.820,17.693 8.650 C 17.987 8.294,18.433 7.637,18.678 7.200 C 18.871 6.856,18.873 6.854,18.457 7.360 C 18.030 7.879,17.532 8.366,17.322 8.470 C 17.163 8.549,17.138 8.551,17.034 8.497 L 16.920 8.438 17.025 8.229 C 17.083 8.114,17.193 7.923,17.268 7.805 L 17.405 7.591 17.172 7.773 C 16.880 8.002,16.504 8.200,16.366 8.199 L 16.260 8.197 16.360 8.108 C 16.534 7.953,16.862 7.550,17.067 7.240 C 17.305 6.879,17.451 6.640,17.433 6.640 C 17.426 6.641,17.176 6.888,16.878 7.191 M11.575 8.720 C 11.047 8.748,10.992 8.759,10.755 8.879 C 10.615 8.950,10.434 9.057,10.354 9.116 L 10.208 9.223 10.631 9.711 C 10.864 9.979,11.062 10.191,11.071 10.182 C 11.080 10.173,11.022 9.935,10.942 9.653 C 10.862 9.371,10.787 9.104,10.775 9.060 C 10.763 9.016,10.886 9.213,11.047 9.497 C 11.208 9.781,11.362 10.021,11.389 10.030 C 11.427 10.042,11.432 9.912,11.413 9.453 C 11.400 9.127,11.400 8.870,11.413 8.882 C 11.427 8.894,11.512 9.119,11.602 9.382 C 11.692 9.645,11.779 9.874,11.795 9.890 C 11.811 9.907,11.922 9.682,12.042 9.390 L 12.260 8.860 12.280 9.480 L 12.300 10.100 12.634 9.628 C 12.818 9.368,12.975 9.162,12.982 9.169 C 12.989 9.176,12.923 9.421,12.834 9.714 C 12.746 10.007,12.682 10.256,12.693 10.266 C 12.704 10.277,12.933 10.139,13.201 9.959 C 13.470 9.779,13.675 9.656,13.656 9.686 C 13.638 9.716,13.486 9.929,13.319 10.160 C 13.152 10.391,13.002 10.602,12.986 10.628 C 12.958 10.676,13.832 10.382,13.891 10.324 C 13.909 10.307,13.904 10.243,13.880 10.181 C 13.792 9.949,14.012 9.641,14.266 9.640 C 14.313 9.640,14.364 9.609,14.380 9.570 C 14.434 9.436,14.600 8.946,14.600 8.918 C 14.600 8.903,14.470 8.871,14.310 8.846 C 13.507 8.723,12.439 8.674,11.575 8.720 M9.920 8.867 C 8.483 9.100,8.480 9.101,8.480 9.174 C 8.481 9.252,8.738 9.809,8.868 10.016 L 8.992 10.213 9.081 10.036 C 9.131 9.939,9.222 9.786,9.283 9.696 C 9.357 9.588,9.388 9.502,9.373 9.446 C 9.361 9.398,9.373 9.305,9.401 9.238 C 9.477 9.053,9.622 8.960,9.835 8.959 C 9.937 8.958,10.055 8.931,10.098 8.899 C 10.175 8.841,10.175 8.840,10.098 8.845 C 10.055 8.848,9.975 8.858,9.920 8.867 M14.658 9.109 C 14.644 9.192,14.606 9.372,14.573 9.509 C 14.520 9.733,14.520 9.767,14.577 9.848 C 14.740 10.080,14.540 10.440,14.247 10.440 C 14.204 10.440,14.126 10.505,14.066 10.591 C 14.008 10.675,13.888 10.814,13.798 10.901 L 13.635 11.060 13.948 11.080 L 14.260 11.100 13.780 11.214 C 13.516 11.277,13.286 11.342,13.268 11.358 C 13.251 11.374,13.359 11.418,13.508 11.454 C 13.831 11.534,14.300 11.749,14.567 11.941 L 14.759 12.079 14.874 11.850 C 15.173 11.251,15.333 10.393,15.240 9.882 C 15.187 9.589,15.083 9.363,14.908 9.160 C 14.721 8.943,14.688 8.936,14.658 9.109 M7.885 9.270 L 7.509 9.374 7.405 9.597 C 7.311 9.799,7.302 9.862,7.309 10.260 C 7.321 11.001,7.563 11.751,8.003 12.408 C 8.248 12.773,8.810 13.307,9.183 13.528 C 9.634 13.796,9.691 13.810,9.508 13.605 C 9.424 13.512,9.294 13.339,9.219 13.221 C 9.099 13.034,9.062 13.004,8.916 12.979 C 8.667 12.937,8.478 12.747,8.451 12.511 C 8.423 12.264,8.455 12.154,8.595 12.015 C 8.706 11.904,8.711 11.883,8.732 11.420 C 8.744 11.156,8.780 10.843,8.812 10.724 C 8.871 10.509,8.871 10.506,8.757 10.321 C 8.619 10.097,8.468 9.706,8.398 9.390 C 8.370 9.264,8.328 9.161,8.304 9.163 C 8.280 9.165,8.091 9.213,7.885 9.270 M16.016 9.270 C 16.161 9.740,16.180 9.883,16.177 10.500 C 16.175 11.022,16.159 11.197,16.089 11.447 C 15.831 12.385,15.294 13.195,14.546 13.775 C 13.586 14.519,12.527 14.877,11.280 14.879 C 9.873 14.881,8.587 14.361,7.637 13.405 C 6.902 12.665,6.524 11.901,6.399 10.900 C 6.358 10.577,6.372 10.055,6.425 9.870 C 6.437 9.828,6.424 9.800,6.392 9.800 C 6.306 9.800,5.133 10.405,4.724 10.660 C 4.400 10.863,4.338 10.920,4.268 11.077 C 4.139 11.368,4.081 11.639,4.080 11.946 C 4.079 12.825,4.696 13.603,5.900 14.242 C 6.076 14.335,6.166 14.398,6.100 14.382 C 5.175 14.155,4.448 14.133,2.790 14.279 C 1.734 14.373,0.993 14.296,0.302 14.020 L 0.060 13.924 0.180 14.023 C 0.355 14.168,0.824 14.390,1.100 14.459 C 1.554 14.572,1.903 14.598,2.940 14.600 C 4.344 14.601,4.914 14.673,4.985 14.858 C 5.044 15.012,4.882 15.283,4.412 15.820 L 4.104 16.171 4.442 15.912 C 5.159 15.362,5.802 14.986,6.110 14.937 C 6.474 14.879,6.495 15.206,6.170 15.847 L 5.970 16.242 6.315 15.886 C 6.888 15.295,7.328 15.078,7.717 15.194 C 7.908 15.251,8.160 15.486,8.160 15.606 C 8.160 15.770,7.904 16.206,7.505 16.720 L 7.304 16.980 7.542 16.767 C 8.000 16.357,8.502 15.945,8.678 15.833 C 9.029 15.610,9.104 15.703,9.065 16.318 C 9.050 16.550,9.027 16.794,9.015 16.860 C 9.002 16.926,9.101 16.763,9.235 16.498 C 9.567 15.841,9.880 15.489,9.880 15.774 C 9.880 16.013,9.591 16.922,9.171 18.000 C 9.073 18.253,8.983 18.487,8.971 18.520 C 8.959 18.553,9.146 18.238,9.387 17.820 C 9.915 16.904,10.271 16.331,10.528 15.981 C 10.686 15.766,10.739 15.720,10.834 15.720 C 10.968 15.720,11.036 15.789,11.170 16.060 C 11.291 16.306,11.387 16.589,11.506 17.060 C 11.577 17.339,11.593 17.374,11.576 17.217 C 11.564 17.105,11.552 16.770,11.548 16.473 C 11.541 15.840,11.574 15.752,11.846 15.678 C 12.168 15.592,12.396 15.716,12.545 16.060 C 12.698 16.410,12.656 17.666,12.460 18.600 C 12.430 18.742,12.412 18.866,12.420 18.873 C 12.449 18.903,12.835 17.644,12.920 17.240 C 13.032 16.710,13.045 16.088,12.949 15.868 L 12.883 15.716 12.998 15.799 C 13.192 15.937,13.592 16.360,13.742 16.585 C 14.095 17.117,14.331 17.829,14.386 18.529 L 14.416 18.900 14.449 18.680 C 14.540 18.074,14.215 16.829,13.695 15.791 C 13.540 15.482,13.539 15.480,13.622 15.480 C 13.919 15.480,14.570 16.139,15.148 17.026 C 15.175 17.067,15.128 16.947,15.043 16.760 C 14.821 16.270,14.714 15.934,14.691 15.660 C 14.674 15.459,14.684 15.404,14.752 15.320 C 14.824 15.232,14.861 15.221,15.072 15.227 C 15.670 15.244,16.157 15.764,16.451 16.700 C 16.550 17.017,16.679 17.678,16.681 17.877 C 16.681 17.958,16.689 17.967,16.720 17.920 C 16.741 17.887,16.759 17.722,16.759 17.553 C 16.760 17.054,16.496 16.159,16.042 15.125 C 15.975 14.972,15.920 14.827,15.920 14.803 C 15.920 14.778,16.000 14.760,16.110 14.760 C 16.249 14.761,16.359 14.794,16.520 14.886 C 16.836 15.067,17.476 15.731,17.958 16.380 C 18.355 16.914,18.479 17.071,18.431 16.980 C 18.419 16.958,18.293 16.733,18.150 16.480 C 17.794 15.852,17.343 14.950,17.221 14.626 C 17.106 14.320,17.093 14.168,17.180 14.134 C 17.301 14.088,17.676 14.324,18.062 14.690 L 18.449 15.056 18.270 14.778 C 18.024 14.398,17.880 14.102,17.880 13.981 C 17.880 13.926,17.893 13.880,17.910 13.880 C 18.044 13.881,18.767 14.525,19.557 15.346 L 20.128 15.940 19.789 15.500 C 19.065 14.561,18.665 13.896,18.688 13.667 C 18.700 13.542,18.704 13.540,18.905 13.541 C 19.058 13.543,19.184 13.579,19.395 13.684 C 19.552 13.762,19.680 13.822,19.680 13.818 C 19.680 13.814,19.546 13.708,19.381 13.582 C 19.061 13.337,18.640 12.907,18.640 12.826 C 18.640 12.722,18.742 12.680,18.992 12.680 C 19.315 12.680,19.802 12.839,20.368 13.128 C 20.594 13.244,20.794 13.345,20.811 13.353 C 20.828 13.361,20.731 13.262,20.596 13.134 C 20.168 12.725,20.004 12.467,20.140 12.414 C 20.241 12.376,20.554 12.541,21.196 12.969 C 21.517 13.184,21.717 13.304,21.640 13.236 C 20.745 12.441,20.388 12.073,20.408 11.966 C 20.431 11.843,20.774 11.861,21.480 12.023 C 21.535 12.036,21.398 11.949,21.176 11.829 C 20.380 11.403,20.101 11.203,20.184 11.120 C 20.228 11.076,20.601 11.156,20.923 11.278 L 21.140 11.361 21.020 11.260 C 20.833 11.104,20.395 10.887,20.126 10.819 C 19.693 10.708,19.536 10.796,19.243 11.317 C 19.168 11.450,19.101 11.554,19.094 11.547 C 19.087 11.540,19.099 11.473,19.121 11.398 C 19.142 11.322,19.160 11.112,19.160 10.930 C 19.160 10.654,19.147 10.587,19.080 10.520 C 18.879 10.319,17.101 9.515,16.346 9.284 C 16.013 9.182,15.989 9.181,16.016 9.270 M10.054 9.723 C 9.998 9.779,9.914 9.809,9.796 9.813 C 9.621 9.820,9.619 9.821,9.450 10.120 C 9.357 10.284,9.280 10.450,9.280 10.488 C 9.280 10.525,9.359 10.622,9.456 10.703 L 9.631 10.850 10.085 10.843 C 10.334 10.839,10.542 10.831,10.548 10.826 C 10.553 10.820,10.333 10.648,10.059 10.444 C 9.784 10.239,9.560 10.067,9.560 10.061 C 9.560 10.054,9.830 10.149,10.161 10.271 C 10.491 10.392,10.772 10.482,10.785 10.469 C 10.803 10.450,10.180 9.640,10.147 9.640 C 10.142 9.640,10.100 9.678,10.054 9.723 M13.400 10.785 C 13.178 10.958,13.056 11.083,13.220 10.969 C 13.364 10.869,13.628 10.643,13.600 10.644 C 13.589 10.644,13.499 10.707,13.400 10.785 M9.105 11.066 C 9.091 11.168,9.080 11.382,9.080 11.542 L 9.080 11.832 9.230 11.909 C 9.356 11.974,9.447 12.091,9.545 12.312 C 9.548 12.319,9.753 12.194,10.000 12.035 C 10.585 11.658,10.592 11.666,9.540 11.575 L 9.220 11.548 9.517 11.482 L 9.814 11.417 9.617 11.272 C 9.509 11.192,9.367 11.071,9.303 11.003 C 9.238 10.936,9.173 10.880,9.158 10.880 C 9.143 10.880,9.119 10.964,9.105 11.066 M10.080 11.139 C 10.080 11.175,10.316 11.280,10.398 11.280 C 10.543 11.280,10.486 11.211,10.302 11.165 C 10.103 11.115,10.080 11.112,10.080 11.139 M13.520 12.201 C 13.773 12.441,13.971 12.638,13.960 12.639 C 13.949 12.639,13.689 12.541,13.383 12.421 C 13.076 12.300,12.821 12.206,12.815 12.211 C 12.810 12.217,12.946 12.437,13.118 12.701 C 13.290 12.964,13.426 13.186,13.420 13.192 C 13.414 13.199,13.187 13.033,12.916 12.824 C 12.646 12.614,12.420 12.447,12.415 12.451 C 12.411 12.456,12.477 12.720,12.562 13.038 C 12.648 13.356,12.714 13.620,12.709 13.624 C 12.704 13.629,12.583 13.411,12.441 13.139 C 12.298 12.867,12.170 12.664,12.155 12.687 C 12.141 12.711,12.116 12.971,12.100 13.265 C 12.085 13.559,12.059 13.800,12.043 13.800 C 12.027 13.800,11.936 13.538,11.841 13.218 C 11.746 12.898,11.653 12.651,11.636 12.668 C 11.619 12.686,11.514 12.943,11.404 13.240 C 11.185 13.830,11.176 13.821,11.243 13.077 C 11.267 12.815,11.280 12.580,11.271 12.554 C 11.263 12.528,11.081 12.756,10.868 13.060 C 10.655 13.364,10.480 13.606,10.480 13.596 C 10.480 13.587,10.542 13.348,10.618 13.065 L 10.755 12.550 10.634 12.665 C 10.453 12.837,10.265 13.107,10.107 13.420 L 9.965 13.700 10.108 13.847 C 10.312 14.058,10.521 14.101,11.320 14.097 C 11.916 14.094,12.014 14.083,12.331 13.987 C 13.003 13.782,13.531 13.488,13.990 13.063 C 14.229 12.841,14.600 12.389,14.600 12.318 C 14.600 12.197,13.508 11.758,13.214 11.762 L 13.060 11.763 13.520 12.201 M10.061 12.178 C 9.602 12.343,9.580 12.356,9.555 12.479 C 9.540 12.550,9.497 12.666,9.458 12.738 C 9.390 12.866,9.390 12.871,9.496 13.064 C 9.555 13.172,9.634 13.301,9.672 13.351 L 9.742 13.442 9.895 13.131 C 10.045 12.827,10.046 12.822,9.938 12.920 C 9.803 13.041,9.843 12.962,10.039 12.720 C 10.420 12.247,10.604 12.000,10.573 12.003 C 10.555 12.004,10.324 12.083,10.061 12.178 " stroke="none" fill="black" fill-rule="evenodd"></path></svg>