<svg role="img" viewBox="0 0 24 24" xmlns="http://www.w3.org/2000/svg"><path d="M5.990 5.990 L 0.000 11.980 6.010 17.990 L 12.020 24.000 18.010 18.010 L 24.000 12.020 17.990 6.010 L 11.980 -0.000 5.990 5.990 M5.909 9.007 C 6.098 9.095,6.242 9.249,6.368 9.495 C 6.415 9.586,6.738 10.515,7.086 11.560 C 7.765 13.593,7.794 13.722,7.646 13.999 C 7.496 14.279,7.112 14.364,6.766 14.192 C 6.531 14.076,6.424 13.914,6.296 13.483 C 6.241 13.294,6.188 13.117,6.179 13.090 C 6.166 13.052,5.975 13.040,5.401 13.040 C 4.983 13.040,4.640 13.047,4.640 13.055 C 4.640 13.113,4.383 13.916,4.335 14.010 C 4.260 14.155,3.978 14.287,3.741 14.287 C 3.305 14.287,3.045 13.937,3.121 13.454 C 3.138 13.348,3.270 12.900,3.413 12.460 C 3.557 12.020,3.813 11.228,3.983 10.700 C 4.153 10.172,4.324 9.665,4.363 9.573 C 4.448 9.374,4.689 9.098,4.850 9.015 C 5.134 8.868,5.605 8.864,5.909 9.007 M15.112 9.028 C 15.467 9.195,15.517 9.304,16.247 11.460 C 16.847 13.234,16.896 13.402,16.898 13.673 C 16.900 13.960,16.897 13.969,16.754 14.100 C 16.551 14.286,16.369 14.330,16.118 14.256 C 15.744 14.145,15.611 13.957,15.421 13.270 L 15.358 13.040 14.602 13.040 L 13.846 13.040 13.787 13.230 C 13.754 13.335,13.690 13.546,13.645 13.701 C 13.554 14.012,13.458 14.140,13.247 14.228 C 12.923 14.363,12.534 14.259,12.380 13.996 C 12.215 13.715,12.250 13.550,12.894 11.560 C 13.218 10.559,13.525 9.650,13.575 9.540 C 13.734 9.192,14.003 8.979,14.356 8.922 C 14.621 8.878,14.870 8.913,15.112 9.028 M18.324 9.011 C 18.399 9.060,18.496 9.173,18.540 9.261 C 18.616 9.412,18.621 9.514,18.633 11.247 L 18.645 13.073 19.533 13.087 C 20.328 13.099,20.433 13.108,20.549 13.178 C 20.728 13.286,20.814 13.482,20.790 13.729 C 20.769 13.954,20.672 14.104,20.476 14.220 C 20.347 14.296,20.268 14.300,19.020 14.300 C 17.550 14.300,17.504 14.293,17.350 14.045 L 17.260 13.900 17.249 11.729 C 17.241 10.291,17.252 9.505,17.280 9.401 C 17.327 9.224,17.491 9.010,17.617 8.959 C 17.663 8.940,17.810 8.924,17.944 8.923 C 18.134 8.921,18.218 8.940,18.324 9.011 M10.943 9.043 C 11.259 9.101,11.518 9.248,11.763 9.506 C 12.063 9.824,12.173 10.095,12.192 10.560 C 12.205 10.873,12.193 10.985,12.121 11.197 C 11.969 11.647,11.717 11.923,11.350 12.039 C 11.268 12.065,11.200 12.095,11.200 12.105 C 11.200 12.124,11.584 12.743,11.885 13.211 C 12.126 13.586,12.123 13.880,11.875 14.108 C 11.675 14.292,11.189 14.317,10.982 14.155 C 10.878 14.073,10.638 13.681,10.183 12.850 L 9.914 12.360 9.599 12.360 L 9.285 12.360 9.272 13.183 L 9.260 14.006 9.117 14.138 C 8.788 14.438,8.224 14.329,8.055 13.931 C 7.980 13.757,7.978 9.576,8.052 9.362 C 8.111 9.193,8.271 9.094,8.562 9.045 C 8.877 8.993,10.661 8.992,10.943 9.043 M5.161 10.970 C 5.043 11.459,4.939 11.883,4.929 11.910 C 4.916 11.948,5.026 11.960,5.396 11.960 C 5.662 11.960,5.880 11.947,5.880 11.930 C 5.881 11.866,5.427 10.138,5.402 10.110 C 5.387 10.093,5.279 10.480,5.161 10.970 M14.564 10.226 C 14.428 10.738,14.160 11.864,14.160 11.926 C 14.160 11.994,14.201 12.000,14.643 12.000 C 15.084 12.000,15.124 11.994,15.105 11.930 C 15.094 11.892,14.983 11.464,14.858 10.980 C 14.734 10.496,14.626 10.094,14.619 10.086 C 14.611 10.078,14.587 10.141,14.564 10.226 M9.280 10.700 L 9.280 11.280 9.870 11.278 C 10.521 11.275,10.689 11.238,10.814 11.071 C 10.928 10.916,10.948 10.546,10.852 10.360 C 10.749 10.160,10.607 10.125,9.890 10.122 L 9.280 10.120 9.280 10.700 " stroke="none" fill="black" fill-rule="evenodd"></path></svg>