<svg role="img" viewBox="0 0 24 24" xmlns="http://www.w3.org/2000/svg"><path d="M16.146 2.162 C 13.181 2.507,9.813 5.110,6.292 9.780 C 4.275 12.456,2.010 16.125,0.409 19.314 L 0.020 20.088 0.021 20.454 C 0.023 20.770,0.038 20.851,0.133 21.046 C 0.282 21.355,0.516 21.583,0.834 21.733 C 1.062 21.841,1.145 21.859,1.421 21.859 C 1.703 21.860,1.774 21.844,2.006 21.730 C 2.151 21.658,2.340 21.524,2.426 21.430 C 2.518 21.331,2.751 20.934,2.986 20.480 C 4.149 18.229,5.589 15.774,6.893 13.820 C 9.816 9.437,12.467 6.654,14.780 5.537 C 15.741 5.074,16.319 4.939,17.200 4.972 C 18.141 5.007,18.779 5.257,19.412 5.840 C 20.424 6.771,21.005 8.309,21.155 10.452 C 21.187 10.906,21.205 10.993,21.317 11.220 C 21.462 11.515,21.679 11.722,22.000 11.874 C 22.182 11.960,22.279 11.978,22.561 11.979 C 22.866 11.980,22.929 11.966,23.168 11.849 C 23.494 11.688,23.763 11.403,23.878 11.097 C 24.079 10.559,23.893 8.832,23.482 7.433 C 22.951 5.625,22.079 4.269,20.851 3.342 C 20.450 3.039,19.619 2.615,19.131 2.464 C 18.220 2.182,17.022 2.061,16.146 2.162 M22.112 13.592 C 21.376 13.859,21.004 14.673,21.281 15.412 C 21.393 15.713,21.697 16.044,21.992 16.187 C 22.188 16.281,22.271 16.297,22.580 16.298 C 22.889 16.300,22.973 16.285,23.168 16.193 C 23.459 16.057,23.738 15.778,23.872 15.488 C 23.960 15.299,23.978 15.202,23.979 14.920 C 23.980 14.628,23.964 14.545,23.864 14.328 C 23.718 14.012,23.408 13.719,23.098 13.603 C 22.822 13.499,22.380 13.494,22.112 13.592 " stroke="none" fill="black" fill-rule="evenodd"></path></svg>