<svg role="img" xmlns="http://www.w3.org/2000/svg" viewBox="0 0 24 24"><path d="M14.279 3.921 C 13.356 4.029,12.602 4.392,11.958 5.037 C 11.386 5.610,11.064 6.180,10.870 6.960 C 10.744 7.469,10.753 8.280,10.891 8.805 C 11.188 9.932,11.905 10.834,12.900 11.331 C 13.556 11.658,14.193 11.782,15.055 11.749 C 16.188 11.706,17.101 11.328,17.843 10.597 C 18.322 10.125,18.660 9.524,18.844 8.818 C 18.925 8.510,18.937 8.367,18.936 7.800 C 18.933 7.043,18.875 6.757,18.605 6.182 C 18.405 5.755,18.256 5.539,17.906 5.171 C 17.039 4.258,15.609 3.765,14.279 3.921 M0.070 4.121 C -0.026 4.180,-0.018 4.267,0.090 4.336 C 0.140 4.368,0.441 4.471,0.760 4.565 C 1.935 4.910,3.969 6.050,5.612 7.285 C 7.348 8.591,9.283 10.454,11.310 12.770 L 11.680 13.193 11.490 13.263 C 9.573 13.962,8.029 14.742,5.479 16.300 C 4.875 16.669,4.317 17.009,4.240 17.055 L 4.100 17.139 4.174 17.025 C 4.358 16.742,4.733 16.030,4.899 15.651 C 5.405 14.496,5.705 13.298,6.076 10.940 C 6.324 9.373,6.423 8.539,6.383 8.378 C 6.352 8.253,6.222 8.249,6.145 8.370 C 6.114 8.420,5.995 8.919,5.880 9.480 C 4.928 14.152,4.543 15.102,2.479 17.880 C 2.111 18.375,1.781 18.838,1.745 18.908 C 1.709 18.978,1.680 19.111,1.680 19.203 C 1.680 19.343,1.705 19.394,1.835 19.525 C 1.964 19.654,2.018 19.680,2.152 19.680 C 2.360 19.680,2.682 19.513,3.280 19.094 C 3.941 18.631,4.209 18.465,5.040 18.001 C 6.554 17.156,8.293 16.304,9.709 15.715 C 10.628 15.333,12.623 14.600,12.745 14.600 C 12.796 14.600,14.408 16.431,14.961 17.117 C 15.158 17.362,15.385 17.596,15.501 17.674 C 15.688 17.800,15.717 17.807,15.986 17.793 C 16.202 17.782,16.295 17.759,16.361 17.699 C 16.567 17.513,16.723 17.032,16.840 16.220 C 16.928 15.609,17.238 14.496,17.488 13.890 C 17.594 13.633,17.619 13.600,17.714 13.600 C 17.772 13.600,18.162 13.619,18.580 13.642 C 20.020 13.720,20.667 13.940,20.804 14.398 C 20.843 14.529,20.836 14.570,20.740 14.761 C 20.611 15.014,20.247 15.409,20.020 15.542 C 19.932 15.593,19.680 15.684,19.460 15.745 C 18.973 15.879,18.800 16.015,18.800 16.266 C 18.800 16.605,19.024 16.783,19.807 17.068 C 21.047 17.518,21.592 17.983,21.497 18.508 C 21.377 19.167,20.612 19.601,19.572 19.599 C 18.722 19.598,17.859 19.264,17.254 18.703 C 16.897 18.372,16.760 18.320,16.760 18.514 C 16.760 18.657,16.919 18.879,17.217 19.150 C 17.647 19.543,18.276 19.850,18.972 20.008 C 19.489 20.124,20.259 20.123,20.693 20.006 C 21.672 19.742,22.250 19.026,22.193 18.145 C 22.157 17.581,21.773 17.172,20.657 16.507 L 20.467 16.394 20.684 16.272 C 21.016 16.084,21.517 15.554,21.690 15.210 C 22.003 14.583,21.988 14.050,21.641 13.531 C 21.217 12.896,20.249 12.491,18.783 12.337 C 18.476 12.304,18.219 12.272,18.212 12.265 C 18.189 12.243,18.479 11.632,18.690 11.260 C 19.346 10.099,20.511 8.607,21.364 7.836 C 22.057 7.210,22.931 6.567,23.511 6.257 C 23.867 6.067,24.019 5.921,23.981 5.804 C 23.961 5.741,23.921 5.720,23.820 5.720 C 23.465 5.720,21.693 6.805,20.672 7.648 C 20.287 7.966,19.431 8.813,19.043 9.262 C 18.364 10.046,17.716 10.968,17.257 11.800 C 17.130 12.031,17.020 12.228,17.012 12.238 C 17.004 12.247,16.751 12.269,16.449 12.287 C 15.439 12.345,14.277 12.502,13.614 12.671 L 13.328 12.744 12.799 12.191 C 12.243 11.607,11.406 10.810,10.539 10.037 C 7.156 7.017,3.823 4.965,1.160 4.263 C 0.559 4.104,0.177 4.054,0.070 4.121 M15.500 5.045 C 16.003 5.133,16.601 5.450,16.989 5.835 C 17.787 6.627,18.030 7.718,17.659 8.840 C 17.526 9.242,17.369 9.505,17.077 9.817 C 16.684 10.237,16.137 10.533,15.505 10.667 C 15.150 10.742,14.367 10.719,14.021 10.623 C 12.726 10.263,11.906 9.069,11.971 7.640 C 12.051 5.893,13.646 4.720,15.500 5.045 M16.217 13.870 C 16.095 14.155,15.891 14.701,15.781 15.040 C 15.720 15.227,15.657 15.395,15.641 15.412 C 15.625 15.430,15.487 15.277,15.336 15.073 C 15.184 14.868,14.946 14.560,14.806 14.387 C 14.667 14.215,14.559 14.069,14.566 14.062 C 14.617 14.016,15.989 13.733,16.211 13.723 C 16.277 13.720,16.277 13.729,16.217 13.870 " stroke="none" fill="black" fill-rule="evenodd"></path></svg>