<svg role="img" viewBox="0 0 24 24" xmlns="http://www.w3.org/2000/svg"><path d="M5.109 0.061 C 3.025 0.348,1.205 1.780,0.422 3.752 C 0.224 4.250,0.092 4.789,0.039 5.310 C 0.009 5.608,-0.000 7.744,0.010 12.280 C 0.026 19.563,0.006 19.028,0.304 19.920 C 0.995 21.987,2.725 23.492,4.887 23.908 C 5.237 23.975,5.683 23.980,12.000 23.980 C 19.524 23.980,19.018 23.998,19.910 23.699 C 20.858 23.382,21.513 22.973,22.243 22.243 C 22.962 21.523,23.400 20.822,23.695 19.917 C 23.998 18.984,23.980 19.496,23.980 11.980 C 23.980 5.687,23.975 5.236,23.908 4.880 C 23.505 2.742,21.974 0.985,19.920 0.303 C 19.022 0.005,19.579 0.026,12.160 0.016 C 6.765 0.009,5.426 0.017,5.109 0.061 M12.921 4.550 C 13.022 4.641,13.541 5.869,15.984 11.800 C 17.602 15.726,18.935 18.986,18.946 19.042 C 18.977 19.195,18.863 19.427,18.712 19.519 C 18.463 19.671,18.141 19.593,18.014 19.349 C 17.977 19.278,16.755 16.325,15.299 12.788 C 13.843 9.250,12.637 6.355,12.620 6.355 C 12.596 6.355,10.240 11.930,10.240 11.985 C 10.240 11.991,10.637 12.001,11.123 12.008 L 12.006 12.020 12.143 12.169 C 12.252 12.288,12.280 12.352,12.280 12.481 C 12.280 12.690,12.190 12.862,12.041 12.939 C 11.869 13.029,5.856 13.031,5.684 12.942 C 5.336 12.762,5.358 12.247,5.722 12.059 C 5.817 12.010,6.108 12.000,7.488 12.000 L 9.140 12.000 10.660 8.315 C 11.879 5.360,12.202 4.612,12.293 4.535 C 12.461 4.394,12.756 4.401,12.921 4.550 M10.956 14.458 C 11.018 14.490,11.098 14.561,11.134 14.617 C 11.219 14.747,11.219 15.053,11.134 15.183 C 11.000 15.388,10.925 15.400,9.822 15.400 C 9.260 15.400,8.800 15.405,8.800 15.412 C 8.800 15.418,8.431 16.314,7.980 17.402 C 7.404 18.793,7.131 19.406,7.060 19.468 C 6.748 19.743,6.238 19.501,6.241 19.080 C 6.242 18.991,6.509 18.302,6.977 17.180 L 7.712 15.420 6.173 15.400 L 4.634 15.380 4.492 15.226 C 4.362 15.083,4.352 15.056,4.370 14.874 C 4.389 14.670,4.500 14.505,4.660 14.438 C 4.704 14.420,6.113 14.404,7.792 14.403 C 10.382 14.400,10.861 14.409,10.956 14.458 " stroke="none" fill="black" fill-rule="evenodd"></path></svg>