<svg role="img" viewBox="0 0 24 24" xmlns="http://www.w3.org/2000/svg"><path d="M3.300 9.577 C 3.234 9.606,3.132 9.682,3.074 9.745 C 2.954 9.876,2.408 10.652,2.374 10.741 C 2.354 10.793,2.920 10.800,7.036 10.800 L 11.720 10.800 11.720 10.158 L 11.720 9.517 9.390 9.528 C 7.077 9.540,7.058 9.541,6.837 9.630 C 6.449 9.787,6.165 10.086,6.026 10.483 C 5.964 10.658,5.964 10.655,5.962 10.090 L 5.960 9.520 4.690 9.522 C 3.718 9.523,3.392 9.536,3.300 9.577 M11.960 10.160 L 11.960 10.800 12.660 10.800 L 13.360 10.800 13.360 10.160 L 13.360 9.520 12.660 9.520 L 11.960 9.520 11.960 10.160 M16.400 10.160 L 16.400 10.800 20.150 10.790 L 23.900 10.780 23.911 10.148 L 23.922 9.517 21.371 9.528 C 18.856 9.540,18.817 9.541,18.608 9.627 C 18.219 9.787,17.962 10.054,17.827 10.440 L 17.764 10.620 17.762 10.070 L 17.760 9.520 17.080 9.520 L 16.400 9.520 16.400 10.160 M1.154 12.687 L 0.012 14.460 0.834 14.471 C 1.458 14.479,1.667 14.469,1.703 14.431 C 1.729 14.403,2.205 13.645,2.761 12.746 C 3.428 11.669,3.757 11.103,3.726 11.084 C 3.701 11.068,3.442 11.033,3.150 11.006 C 2.859 10.979,2.547 10.947,2.458 10.935 L 2.295 10.913 1.154 12.687 M11.957 11.826 L 11.954 12.740 11.883 12.491 C 11.733 11.967,11.402 11.694,10.760 11.565 C 10.554 11.524,6.540 11.240,6.163 11.240 L 5.990 11.240 6.016 11.404 C 6.090 11.866,6.455 12.209,6.991 12.320 C 7.095 12.342,7.904 12.432,8.789 12.520 C 9.674 12.609,10.444 12.702,10.500 12.727 C 10.604 12.775,10.658 12.896,10.633 13.026 C 10.601 13.193,10.525 13.199,8.191 13.199 L 5.961 13.200 5.951 12.210 L 5.940 11.220 5.520 11.194 C 5.289 11.179,4.979 11.158,4.830 11.146 L 4.560 11.125 4.560 12.802 L 4.560 14.480 7.490 14.480 C 9.333 14.480,10.516 14.464,10.680 14.438 C 11.300 14.338,11.695 14.034,11.866 13.525 C 11.950 13.278,11.956 13.270,11.983 13.382 C 12.063 13.714,12.308 14.029,12.607 14.184 C 13.098 14.437,13.582 14.493,15.103 14.470 C 16.444 14.450,16.726 14.406,17.154 14.149 C 17.409 13.996,17.534 13.844,17.663 13.531 L 17.758 13.300 17.759 13.892 L 17.760 14.484 20.230 14.470 C 22.409 14.458,22.727 14.448,22.931 14.388 C 23.434 14.241,23.732 13.997,23.886 13.607 C 23.960 13.421,23.976 13.300,23.977 12.940 C 23.978 12.563,23.965 12.470,23.884 12.290 C 23.774 12.044,23.586 11.866,23.296 11.733 C 22.898 11.551,22.623 11.523,19.440 11.341 C 18.857 11.308,18.258 11.270,18.110 11.258 L 17.840 11.235 17.840 11.373 C 17.840 11.797,18.156 12.188,18.620 12.336 C 18.751 12.378,19.413 12.446,20.543 12.535 C 21.490 12.609,22.303 12.690,22.350 12.715 C 22.513 12.802,22.512 13.036,22.347 13.130 C 22.281 13.168,21.718 13.183,20.010 13.192 L 17.760 13.203 17.760 12.226 L 17.760 11.249 17.310 11.223 C 17.063 11.209,16.757 11.187,16.630 11.175 L 16.400 11.152 16.400 11.957 C 16.400 13.224,16.457 13.175,14.980 13.193 C 13.804 13.207,13.667 13.187,13.479 12.973 L 13.360 12.837 13.360 11.942 L 13.360 11.046 13.250 11.026 C 13.190 11.014,12.960 10.994,12.740 10.981 C 12.520 10.968,12.255 10.948,12.150 10.935 L 11.960 10.912 11.957 11.826 " stroke="none" fill="black" fill-rule="evenodd"></path></svg>