<svg role="img" xmlns="http://www.w3.org/2000/svg" viewBox="0 0 24 24"><path d="M11.858 0.091 C 11.534 0.285,11.297 0.597,10.844 1.432 C 9.933 3.114,9.335 5.002,9.093 6.960 C 8.992 7.776,8.993 9.669,9.094 10.460 C 9.319 12.220,9.690 13.500,10.509 15.340 C 11.393 17.326,14.414 23.295,14.676 23.573 C 14.755 23.658,14.910 23.775,15.020 23.833 L 15.220 23.940 19.149 23.951 C 22.504 23.960,23.120 23.953,23.364 23.902 C 23.883 23.794,24.064 23.548,23.961 23.090 C 23.926 22.931,22.201 19.442,18.350 11.740 C 15.292 5.624,12.737 0.543,12.672 0.448 C 12.435 0.104,12.091 -0.047,11.858 0.091 M6.379 10.796 C 6.120 10.907,6.035 11.065,3.059 16.993 C 1.443 20.212,0.091 22.946,0.056 23.068 C -0.057 23.457,0.038 23.708,0.353 23.854 L 0.540 23.940 4.740 23.940 L 8.940 23.940 9.169 23.833 C 9.345 23.750,9.426 23.681,9.518 23.537 C 9.781 23.122,10.094 21.868,10.245 20.620 C 10.310 20.085,10.310 18.607,10.245 18.060 C 9.942 15.507,8.989 13.311,7.338 11.359 C 6.920 10.864,6.624 10.691,6.379 10.796 " stroke="none" fill="black" fill-rule="evenodd"></path></svg>