<svg role="img" viewBox="0 0 24 24" xmlns="http://www.w3.org/2000/svg"><path d="M3.610 7.883 C 3.199 7.936,2.764 8.071,2.340 8.278 C 0.259 9.291,-0.589 11.790,0.447 13.858 C 0.658 14.278,0.797 14.474,1.137 14.833 C 1.518 15.235,1.861 15.489,2.341 15.724 C 3.665 16.372,5.227 16.270,6.444 15.455 L 6.771 15.236 7.000 15.396 C 8.386 16.369,10.227 16.397,11.654 15.467 L 11.999 15.242 12.370 15.482 C 12.943 15.853,13.500 16.047,14.226 16.127 C 15.152 16.230,16.208 15.952,17.000 15.396 L 17.229 15.236 17.556 15.455 C 18.739 16.247,20.292 16.368,21.570 15.769 C 22.048 15.545,22.315 15.364,22.682 15.013 C 23.079 14.634,23.320 14.317,23.530 13.900 C 24.150 12.668,24.152 11.317,23.537 10.108 C 23.333 9.708,23.191 9.512,22.845 9.149 C 22.452 8.738,22.151 8.516,21.660 8.276 C 20.310 7.617,18.742 7.731,17.502 8.580 L 17.231 8.765 17.002 8.604 C 15.623 7.638,13.783 7.603,12.370 8.518 L 11.999 8.758 11.654 8.533 C 10.227 7.602,8.387 7.631,6.998 8.604 L 6.769 8.765 6.494 8.576 C 5.667 8.007,4.611 7.753,3.610 7.883 M5.060 8.920 C 5.445 9.043,6.080 9.370,6.080 9.446 C 6.080 9.460,5.982 9.628,5.861 9.820 C 5.631 10.186,5.458 10.594,5.336 11.060 C 5.231 11.459,5.231 12.541,5.336 12.940 C 5.458 13.406,5.631 13.814,5.861 14.180 C 5.982 14.372,6.080 14.540,6.080 14.554 C 6.080 14.630,5.444 14.958,5.060 15.080 C 4.637 15.214,3.893 15.236,3.436 15.127 C 2.243 14.841,1.347 13.964,1.039 12.780 C 0.923 12.338,0.923 11.662,1.039 11.220 C 1.342 10.055,2.227 9.175,3.392 8.879 C 3.823 8.770,4.654 8.790,5.060 8.920 M10.220 8.895 C 10.499 8.970,11.162 9.292,11.259 9.399 C 11.321 9.468,11.317 9.484,11.183 9.671 C 10.979 9.954,10.701 10.562,10.594 10.960 C 10.514 11.254,10.501 11.394,10.501 12.000 C 10.501 12.606,10.514 12.746,10.594 13.040 C 10.701 13.438,10.979 14.046,11.183 14.329 C 11.317 14.516,11.321 14.532,11.259 14.601 C 11.159 14.712,10.494 15.031,10.200 15.110 C 9.833 15.209,8.920 15.208,8.560 15.108 C 8.261 15.026,7.711 14.766,7.551 14.632 L 7.441 14.540 7.625 14.260 C 8.504 12.921,8.522 11.132,7.669 9.809 C 7.574 9.661,7.482 9.518,7.466 9.490 C 7.398 9.378,8.179 8.978,8.697 8.859 C 9.017 8.786,9.893 8.807,10.220 8.895 M15.460 8.897 C 15.742 8.975,16.293 9.237,16.451 9.368 L 16.562 9.460 16.423 9.654 C 16.217 9.942,15.976 10.455,15.864 10.846 C 15.529 12.012,15.715 13.255,16.375 14.260 L 16.559 14.540 16.449 14.632 C 16.290 14.766,15.741 15.024,15.440 15.106 C 15.074 15.206,14.162 15.208,13.800 15.109 C 13.499 15.027,12.841 14.712,12.742 14.603 C 12.678 14.532,12.682 14.517,12.817 14.329 C 13.015 14.054,13.292 13.447,13.405 13.040 C 13.489 12.738,13.500 12.619,13.498 11.980 C 13.496 11.314,13.487 11.233,13.386 10.900 C 13.256 10.471,13.010 9.939,12.815 9.668 C 12.683 9.483,12.678 9.468,12.741 9.398 C 12.890 9.234,13.580 8.930,14.003 8.841 C 14.274 8.785,15.181 8.819,15.460 8.897 M20.589 8.879 C 21.174 9.020,21.611 9.258,22.055 9.678 C 22.713 10.301,23.045 11.080,23.045 12.000 C 23.045 12.921,22.714 13.696,22.052 14.326 C 21.622 14.735,21.159 14.984,20.564 15.127 C 20.107 15.236,19.363 15.214,18.940 15.080 C 18.548 14.955,17.920 14.630,17.920 14.551 C 17.920 14.535,18.003 14.395,18.104 14.238 C 18.348 13.861,18.501 13.516,18.631 13.047 C 18.728 12.699,18.739 12.594,18.739 12.000 C 18.739 11.406,18.728 11.301,18.631 10.953 C 18.501 10.484,18.348 10.139,18.104 9.762 C 18.003 9.605,17.920 9.465,17.920 9.449 C 17.920 9.379,18.529 9.054,18.863 8.945 C 19.369 8.779,20.061 8.753,20.589 8.879 M6.988 10.503 C 7.251 10.998,7.337 11.360,7.339 11.980 C 7.340 12.360,7.320 12.579,7.265 12.791 C 7.186 13.102,6.852 13.806,6.772 13.830 C 6.705 13.851,6.343 13.085,6.256 12.740 C 6.209 12.553,6.186 12.307,6.186 12.000 C 6.186 11.693,6.209 11.447,6.256 11.260 C 6.343 10.915,6.706 10.149,6.772 10.171 C 6.798 10.179,6.895 10.329,6.988 10.503 M12.168 10.410 C 12.623 11.198,12.718 12.199,12.417 13.046 C 12.316 13.330,12.048 13.840,12.000 13.840 C 11.987 13.840,11.912 13.728,11.832 13.590 C 11.367 12.785,11.281 11.788,11.600 10.914 C 11.713 10.603,11.949 10.160,12.000 10.160 C 12.013 10.160,12.088 10.273,12.168 10.410 M17.476 10.570 C 17.584 10.796,17.705 11.106,17.744 11.260 C 17.839 11.638,17.839 12.362,17.744 12.740 C 17.657 13.085,17.294 13.851,17.228 13.829 C 17.146 13.802,16.847 13.193,16.752 12.860 C 16.622 12.403,16.622 11.596,16.751 11.148 C 16.869 10.738,17.157 10.160,17.244 10.160 C 17.263 10.160,17.367 10.345,17.476 10.570 " stroke="none" fill="black" fill-rule="evenodd"></path></svg>