<svg role="img" viewBox="0 0 24 24" xmlns="http://www.w3.org/2000/svg"><path d="M11.340 4.603 C 9.065 4.726,6.810 5.595,4.987 7.052 C 4.249 7.642,3.387 8.561,2.821 9.360 C 2.692 9.542,2.743 9.501,3.123 9.118 C 4.747 7.478,7.122 6.363,9.512 6.117 C 10.099 6.056,11.643 6.091,12.172 6.177 C 13.361 6.370,14.282 6.662,15.340 7.181 C 16.907 7.950,18.282 9.077,19.284 10.416 C 19.464 10.657,19.560 10.754,19.609 10.743 C 19.647 10.735,20.065 10.489,20.537 10.198 C 21.307 9.723,21.392 9.660,21.356 9.592 C 21.333 9.550,21.151 9.296,20.950 9.028 C 20.465 8.381,19.414 7.328,18.780 6.855 C 16.595 5.225,14.057 4.456,11.340 4.603 M10.918 8.058 C 8.791 8.368,6.880 9.534,5.707 11.238 L 5.583 11.419 5.882 11.175 C 6.821 10.407,8.008 9.834,9.140 9.603 C 11.608 9.097,14.141 9.873,15.964 11.693 C 16.144 11.873,16.390 12.141,16.510 12.290 C 16.640 12.450,16.747 12.548,16.774 12.532 C 16.815 12.508,17.362 12.158,18.211 11.613 L 18.483 11.439 18.355 11.253 C 18.285 11.151,18.118 10.940,17.984 10.784 C 16.700 9.289,14.998 8.345,13.075 8.062 C 12.566 7.988,11.420 7.986,10.918 8.058 M0.000 10.892 L 0.000 11.913 5.953 15.635 C 9.227 17.682,11.935 19.368,11.971 19.382 C 12.015 19.399,13.369 18.572,16.048 16.894 C 18.255 15.512,20.942 13.829,22.020 13.154 L 23.980 11.927 23.991 10.906 L 24.001 9.885 22.351 10.914 C 21.443 11.480,18.745 13.162,16.355 14.652 L 12.010 17.362 9.075 15.535 C 2.401 11.383,0.097 9.947,0.050 9.910 C 0.010 9.878,0.000 10.080,0.000 10.892 M11.550 11.483 C 10.753 11.568,10.011 11.867,9.330 12.379 C 9.083 12.564,8.520 13.138,8.520 13.204 C 8.520 13.223,8.617 13.177,8.737 13.100 C 9.248 12.773,9.906 12.595,10.599 12.595 C 11.555 12.595,12.315 12.882,13.092 13.535 C 13.268 13.683,13.638 14.089,13.777 14.287 C 13.832 14.366,13.858 14.353,14.647 13.862 C 15.094 13.583,15.466 13.338,15.474 13.316 C 15.494 13.260,15.209 12.895,14.935 12.625 C 14.281 11.980,13.439 11.591,12.460 11.481 C 12.060 11.436,11.995 11.436,11.550 11.483 " stroke="none" fill="black" fill-rule="evenodd"></path></svg>