<svg role="img" viewBox="0 0 24 24" xmlns="http://www.w3.org/2000/svg"><path d="M0.000 12.000 L 0.000 24.000 12.000 24.000 L 24.000 24.000 24.000 15.780 C 24.000 11.259,23.991 7.560,23.980 7.560 C 23.969 7.560,22.609 8.471,20.957 9.585 C 18.359 11.337,17.955 11.622,17.971 11.695 C 17.981 11.742,18.588 13.283,19.320 15.120 C 20.052 16.957,20.660 18.491,20.670 18.530 C 20.688 18.596,20.568 18.600,18.549 18.600 L 16.408 18.600 16.250 18.190 C 16.163 17.965,15.754 16.903,15.341 15.831 C 14.813 14.463,14.575 13.891,14.542 13.911 C 14.515 13.927,12.312 15.412,9.645 17.212 C 6.978 19.012,4.773 20.493,4.745 20.504 C 4.710 20.517,4.116 19.283,2.881 16.632 C 1.884 14.491,1.052 12.709,1.033 12.670 C 1.000 12.606,1.030 12.600,1.409 12.601 L 1.820 12.602 3.980 14.285 C 5.168 15.210,6.160 15.976,6.185 15.986 C 6.225 16.003,13.687 11.966,13.774 11.881 C 13.793 11.863,13.569 11.225,13.275 10.465 C 12.982 9.704,12.730 9.095,12.714 9.111 C 12.698 9.127,12.431 9.680,12.121 10.340 L 11.556 11.540 9.108 12.885 C 7.762 13.626,6.655 14.227,6.649 14.221 C 6.643 14.216,7.414 12.170,8.364 9.676 C 9.313 7.181,10.107 5.090,10.128 5.030 L 10.168 4.920 12.714 4.920 L 15.260 4.920 16.260 7.439 C 16.810 8.825,17.278 9.958,17.300 9.958 C 17.322 9.957,18.834 9.141,20.660 8.144 L 23.980 6.331 23.990 3.165 L 24.000 0.000 12.000 0.000 L 0.000 0.000 0.000 12.000 " stroke="none" fill="black" fill-rule="evenodd"></path></svg>