<svg role="img" viewBox="0 0 24 24" xmlns="http://www.w3.org/2000/svg"><path d="M10.940 0.046 C 6.260 0.450,2.189 3.634,0.659 8.086 C -0.838 12.440,0.267 17.227,3.520 20.480 C 6.775 23.736,11.548 24.836,15.919 23.339 C 20.059 21.921,23.121 18.293,23.836 13.960 C 24.678 8.851,22.168 3.802,17.580 1.376 C 15.589 0.323,13.221 -0.152,10.940 0.046 M12.168 6.044 C 13.293 6.165,14.112 6.552,14.645 7.214 C 14.888 7.516,15.048 7.819,15.196 8.262 C 15.454 9.032,15.454 9.027,15.478 12.500 C 15.499 15.483,15.504 15.668,15.575 15.811 C 15.616 15.894,15.700 15.997,15.762 16.041 C 16.056 16.251,16.725 16.206,17.235 15.942 L 17.360 15.878 17.360 16.213 C 17.360 16.589,17.260 17.038,17.102 17.372 C 17.008 17.571,16.978 17.598,16.730 17.711 C 16.253 17.929,16.027 17.977,15.480 17.979 C 15.094 17.980,14.930 17.963,14.760 17.905 C 14.479 17.810,14.197 17.632,14.036 17.449 C 13.901 17.295,13.680 16.863,13.680 16.752 C 13.680 16.598,13.577 16.644,13.286 16.930 C 13.118 17.094,12.894 17.287,12.789 17.357 C 11.697 18.089,9.782 18.214,8.436 17.641 C 7.626 17.296,7.000 16.578,6.762 15.719 C 6.576 15.047,6.567 14.121,6.740 13.462 C 7.113 12.045,8.185 11.172,9.940 10.856 C 10.508 10.754,11.935 10.754,12.500 10.856 C 12.839 10.918,13.249 11.024,13.465 11.107 C 13.586 11.154,13.504 9.803,13.355 9.300 C 13.195 8.763,12.974 8.445,12.586 8.194 C 12.270 7.990,11.926 7.888,11.398 7.842 C 10.217 7.738,8.780 8.071,7.670 8.705 C 7.566 8.765,7.470 8.804,7.459 8.792 C 7.447 8.780,7.421 8.629,7.402 8.455 C 7.343 7.927,7.464 7.193,7.661 6.893 C 7.733 6.784,7.925 6.681,8.398 6.501 C 9.454 6.098,10.965 5.915,12.168 6.044 M10.620 12.461 C 9.469 12.673,8.769 13.277,8.636 14.175 C 8.501 15.082,8.964 15.783,9.880 16.057 C 10.413 16.217,11.293 16.208,11.918 16.038 C 12.453 15.892,12.851 15.671,13.205 15.322 L 13.520 15.012 13.520 13.872 L 13.520 12.732 13.230 12.646 C 12.641 12.471,12.388 12.434,11.660 12.418 C 11.137 12.406,10.852 12.418,10.620 12.461 " stroke="none" fill="black" fill-rule="evenodd"></path></svg>