<svg role="img" viewBox="0 0 24 24" xmlns="http://www.w3.org/2000/svg"><path d="M10.940 0.046 C 6.260 0.450,2.189 3.634,0.659 8.086 C -1.484 14.319,1.792 21.115,7.997 23.309 C 12.365 24.853,17.202 23.757,20.480 20.480 C 24.710 16.252,25.180 9.567,21.584 4.785 C 19.301 1.748,15.709 -0.028,11.920 0.006 C 11.601 0.009,11.160 0.027,10.940 0.046 M12.642 2.742 C 12.866 2.981,12.705 3.360,12.381 3.360 C 12.120 3.360,11.954 3.150,12.016 2.901 C 12.083 2.637,12.454 2.542,12.642 2.742 M10.676 3.403 C 11.064 3.492,11.259 3.766,11.233 4.182 C 11.205 4.615,10.942 4.857,10.500 4.857 C 10.058 4.857,9.795 4.615,9.767 4.182 C 9.738 3.717,9.978 3.441,10.480 3.365 C 10.491 3.363,10.579 3.380,10.676 3.403 M15.313 5.697 C 15.510 5.798,15.535 5.899,15.503 6.486 C 15.487 6.777,15.453 7.064,15.427 7.123 C 15.401 7.183,15.128 7.503,14.821 7.836 L 14.261 8.440 12.391 8.440 C 10.573 8.440,10.518 8.442,10.440 8.520 C 10.396 8.564,10.360 8.622,10.360 8.650 C 10.360 8.678,10.947 9.843,11.665 11.240 C 12.414 12.700,12.977 13.843,12.989 13.929 C 13.008 14.059,12.993 14.095,12.873 14.215 C 12.751 14.337,12.706 14.355,12.458 14.376 C 11.575 14.454,11.009 14.751,10.753 15.271 C 10.621 15.539,10.622 16.023,10.756 16.280 C 10.962 16.678,11.474 17.024,12.030 17.141 C 13.426 17.437,14.748 16.574,14.523 15.513 C 14.493 15.372,14.033 14.436,13.159 12.733 C 12.433 11.321,11.840 10.139,11.840 10.106 C 11.840 9.993,11.890 9.917,12.003 9.859 C 12.157 9.779,14.567 9.771,14.630 9.850 C 14.688 9.923,17.806 15.942,17.898 16.158 C 17.955 16.293,17.976 16.438,17.978 16.720 C 17.980 17.059,17.968 17.125,17.866 17.332 C 17.629 17.814,17.134 18.214,16.648 18.316 C 16.500 18.347,15.090 18.360,11.986 18.360 C 7.129 18.360,7.306 18.368,6.870 18.131 C 6.616 17.992,6.278 17.626,6.134 17.332 C 6.032 17.125,6.020 17.059,6.022 16.720 C 6.023 16.388,6.038 16.306,6.142 16.074 C 6.207 15.928,7.046 14.281,8.007 12.414 C 9.833 8.867,9.857 8.813,9.749 8.531 C 9.722 8.460,9.466 8.148,9.181 7.837 C 8.895 7.526,8.639 7.240,8.612 7.201 C 8.563 7.131,8.480 6.428,8.480 6.086 C 8.480 5.941,8.503 5.889,8.616 5.776 L 8.752 5.640 11.978 5.640 C 14.681 5.640,15.222 5.649,15.313 5.697 " stroke="none" fill="black" fill-rule="evenodd"></path></svg>