<svg role="img" viewBox="0 0 24 24" xmlns="http://www.w3.org/2000/svg"><path d="M4.320 9.362 C 3.247 9.594,2.183 10.117,1.534 10.733 L 1.260 10.994 1.336 11.137 C 1.378 11.216,1.429 11.280,1.448 11.280 C 1.468 11.280,1.613 11.193,1.772 11.086 C 2.073 10.882,2.557 10.623,2.584 10.651 C 2.610 10.677,1.816 12.456,1.530 13.013 C 1.192 13.671,1.111 13.760,0.854 13.759 C 0.644 13.758,0.398 13.663,0.185 13.501 L 0.051 13.399 0.026 13.585 C -0.024 13.948,-0.018 13.965,0.251 14.166 C 0.754 14.541,1.128 14.662,1.691 14.633 C 1.975 14.618,2.078 14.592,2.301 14.482 C 2.972 14.152,3.434 13.430,4.236 11.460 C 4.836 9.986,4.873 9.904,4.948 9.874 C 5.075 9.824,5.480 9.838,5.593 9.897 C 5.841 10.024,5.891 10.424,5.706 10.789 C 5.536 11.124,5.274 11.271,4.766 11.317 L 4.512 11.340 4.436 11.540 C 4.394 11.650,4.360 11.745,4.360 11.750 C 4.360 11.755,4.446 11.760,4.550 11.761 C 5.041 11.763,5.264 12.039,5.232 12.604 C 5.193 13.264,4.702 13.876,4.209 13.879 C 4.050 13.880,3.813 13.786,3.695 13.675 L 3.608 13.594 3.484 13.774 C 3.416 13.873,3.360 13.972,3.360 13.994 C 3.360 14.055,3.836 14.400,4.067 14.507 C 4.385 14.655,4.812 14.731,5.148 14.702 C 5.620 14.661,5.891 14.565,6.974 14.054 C 7.322 13.889,7.613 13.760,7.619 13.767 C 7.625 13.774,7.667 13.852,7.712 13.940 C 7.827 14.167,8.061 14.378,8.340 14.507 C 8.550 14.605,8.627 14.619,8.960 14.619 C 9.475 14.618,9.963 14.446,10.403 14.111 C 10.679 13.901,10.672 13.902,10.740 14.066 C 10.903 14.457,11.168 14.638,11.579 14.639 C 11.847 14.640,12.660 14.382,13.470 14.039 L 13.920 13.848 13.920 14.058 C 13.920 14.209,13.945 14.306,14.010 14.404 C 14.123 14.573,14.405 14.720,14.618 14.720 C 15.023 14.719,15.754 14.472,16.749 13.999 C 17.204 13.782,17.264 13.763,17.300 13.822 C 17.484 14.129,17.601 14.266,17.776 14.382 C 18.005 14.533,18.364 14.640,18.642 14.640 C 19.083 14.640,19.748 14.381,20.152 14.051 C 20.247 13.974,20.330 13.918,20.337 13.926 C 20.344 13.933,20.388 14.014,20.433 14.105 C 20.637 14.510,20.962 14.720,21.385 14.720 C 21.928 14.720,22.855 14.287,23.669 13.654 C 23.983 13.409,23.995 13.393,23.956 13.289 C 23.933 13.229,23.869 13.132,23.813 13.073 L 23.710 12.966 23.422 13.217 C 22.972 13.609,22.622 13.783,22.522 13.663 C 22.485 13.618,22.575 13.362,22.958 12.421 C 23.224 11.768,23.431 11.218,23.418 11.197 C 23.384 11.142,23.156 11.152,22.808 11.224 C 22.616 11.264,22.425 11.278,22.300 11.263 C 21.641 11.180,21.689 11.175,21.518 11.342 L 21.361 11.495 21.270 11.409 C 21.010 11.165,20.379 11.037,19.819 11.116 C 18.634 11.281,17.695 11.958,17.437 12.832 C 17.392 12.985,17.354 13.023,17.112 13.164 C 16.573 13.479,16.248 13.591,16.182 13.483 C 16.170 13.463,16.310 13.054,16.495 12.573 L 16.830 11.700 17.172 11.680 C 17.548 11.658,17.708 11.581,17.776 11.391 C 17.847 11.191,17.797 11.160,17.401 11.160 C 17.203 11.160,17.040 11.146,17.040 11.129 C 17.040 11.112,17.157 10.806,17.300 10.449 C 17.443 10.092,17.560 9.793,17.560 9.783 C 17.560 9.721,17.413 9.640,17.300 9.640 C 17.086 9.640,16.971 9.705,16.857 9.888 C 16.690 10.158,16.398 10.438,16.241 10.478 C 16.163 10.498,15.992 10.527,15.860 10.542 C 15.504 10.582,15.373 10.658,15.233 10.906 L 15.112 11.120 14.739 11.120 L 14.366 11.120 14.318 11.349 C 14.292 11.475,14.262 11.601,14.251 11.629 C 14.236 11.668,14.309 11.680,14.556 11.680 C 14.790 11.680,14.879 11.694,14.878 11.730 C 14.876 11.758,14.728 12.077,14.548 12.440 L 14.220 13.100 13.780 13.329 C 13.244 13.609,12.940 13.716,12.872 13.648 C 12.836 13.612,12.934 13.327,13.296 12.422 C 13.555 11.773,13.755 11.224,13.741 11.201 C 13.704 11.142,13.510 11.150,13.123 11.227 C 12.839 11.283,12.742 11.286,12.512 11.247 C 12.063 11.170,11.997 11.180,11.856 11.348 L 11.732 11.495 11.537 11.366 C 11.258 11.182,10.966 11.107,10.520 11.105 C 9.655 11.102,8.715 11.489,8.219 12.052 C 8.013 12.287,7.781 12.720,7.741 12.948 C 7.715 13.091,7.695 13.108,7.405 13.244 L 7.096 13.389 7.113 13.037 C 7.128 12.711,7.121 12.666,7.010 12.432 C 6.876 12.149,6.627 11.848,6.419 11.719 C 6.279 11.633,6.267 11.560,6.392 11.560 C 6.512 11.560,6.947 11.332,7.113 11.181 C 7.791 10.569,7.363 9.735,6.200 9.399 C 5.749 9.269,4.836 9.251,4.320 9.362 M11.196 11.658 C 11.362 11.744,11.424 11.922,11.361 12.132 C 11.184 12.725,10.546 13.529,10.161 13.644 C 9.810 13.750,9.628 13.556,9.648 13.100 C 9.664 12.734,9.800 12.456,10.142 12.087 C 10.536 11.662,10.909 11.510,11.196 11.658 M20.917 11.704 C 21.016 11.787,21.040 11.838,21.040 11.963 C 21.040 12.419,20.414 13.346,19.951 13.577 C 19.687 13.709,19.581 13.707,19.442 13.568 C 19.127 13.253,19.321 12.563,19.880 12.004 C 20.272 11.612,20.671 11.496,20.917 11.704 " stroke="none" fill="black" fill-rule="evenodd"></path></svg>