<svg role="img" xmlns="http://www.w3.org/2000/svg" viewBox="0 0 24 24"><path d="M10.131 0.058 C 9.856 0.144,9.623 0.303,9.374 0.574 C 8.756 1.249,8.390 2.325,8.270 3.816 L 8.220 4.445 8.045 4.178 C 7.818 3.833,7.467 3.476,7.243 3.361 C 7.145 3.312,6.962 3.262,6.834 3.250 C 6.369 3.208,5.968 3.525,5.658 4.180 C 5.361 4.807,5.200 5.662,5.200 6.618 L 5.200 7.080 4.910 7.080 C 3.942 7.080,1.873 7.330,0.963 7.557 C 0.598 7.648,0.243 7.809,0.120 7.940 L 0.036 8.029 0.248 7.973 C 0.517 7.902,1.329 7.777,1.900 7.719 C 2.142 7.695,2.991 7.665,3.787 7.652 L 5.234 7.630 5.256 7.765 C 5.377 8.535,5.418 8.762,5.506 9.160 C 5.651 9.814,5.886 10.558,6.183 11.308 C 6.324 11.665,6.440 11.965,6.440 11.974 C 6.440 11.984,6.281 12.259,6.086 12.586 C 4.106 15.911,3.575 18.123,4.508 19.160 C 4.835 19.524,5.310 19.684,6.060 19.683 C 6.941 19.682,7.919 19.399,9.017 18.829 C 9.206 18.731,9.360 18.658,9.360 18.667 C 9.360 18.675,9.300 18.803,9.226 18.951 C 8.876 19.650,8.810 20.170,9.021 20.556 C 9.224 20.927,9.563 21.080,10.176 21.079 C 10.924 21.078,11.793 20.791,12.828 20.203 L 13.116 20.039 13.532 20.670 C 14.526 22.176,15.688 23.582,16.160 23.850 C 16.530 24.060,16.559 24.032,16.280 23.735 C 15.636 23.048,14.681 21.641,13.869 20.180 C 13.747 19.960,13.641 19.760,13.633 19.737 C 13.626 19.713,13.809 19.543,14.040 19.360 C 14.812 18.745,15.794 17.732,16.473 16.847 L 16.759 16.474 18.009 16.460 C 19.681 16.443,20.651 16.353,21.558 16.133 C 22.390 15.931,23.023 15.642,23.404 15.290 C 23.862 14.866,24.046 14.411,23.967 13.900 C 23.810 12.884,22.856 11.740,21.392 10.813 L 21.024 10.580 21.422 10.554 C 22.266 10.500,22.758 10.261,22.945 9.814 C 23.030 9.610,23.013 9.216,22.907 8.960 C 22.623 8.271,21.867 7.531,20.810 6.909 C 20.584 6.776,20.400 6.655,20.400 6.639 C 20.400 6.623,20.579 6.244,20.797 5.795 C 21.313 4.735,21.636 3.971,21.901 3.180 C 22.129 2.498,22.186 2.194,22.141 1.893 L 22.113 1.705 21.983 2.102 C 21.655 3.109,21.016 4.423,20.152 5.870 L 19.836 6.399 19.688 6.336 C 18.969 6.026,17.940 5.705,17.151 5.544 C 16.723 5.456,15.621 5.281,15.495 5.280 C 15.471 5.280,15.255 4.934,15.015 4.511 C 13.989 2.699,12.991 1.374,12.157 0.714 C 11.402 0.117,10.686 -0.115,10.131 0.058 M12.125 2.775 C 12.670 3.035,13.232 3.599,13.944 4.600 L 14.356 5.180 13.588 5.206 C 12.208 5.252,11.305 5.457,10.370 5.937 C 10.135 6.057,9.937 6.150,9.930 6.143 C 9.902 6.115,10.010 5.198,10.085 4.821 C 10.242 4.041,10.480 3.503,10.845 3.105 C 11.154 2.767,11.422 2.627,11.705 2.654 C 11.818 2.664,12.007 2.719,12.125 2.775 M7.782 4.823 C 7.869 4.879,8.006 5.014,8.087 5.123 C 8.221 5.304,8.235 5.350,8.259 5.670 C 8.273 5.863,8.309 6.254,8.338 6.540 C 8.368 6.826,8.387 7.065,8.381 7.072 C 8.375 7.078,7.925 7.071,7.382 7.056 L 6.394 7.027 6.421 6.724 C 6.456 6.316,6.572 5.749,6.676 5.480 C 6.922 4.843,7.387 4.566,7.782 4.823 M14.680 6.019 C 16.179 6.221,17.582 6.621,18.848 7.209 L 19.197 7.370 19.071 7.555 C 19.001 7.657,18.757 7.997,18.529 8.311 L 18.113 8.883 17.878 8.526 C 17.386 7.780,16.678 7.149,16.080 6.923 L 15.860 6.840 15.999 6.950 C 16.811 7.593,17.113 7.924,17.522 8.618 C 17.651 8.838,17.751 9.023,17.744 9.029 C 17.737 9.036,17.409 8.933,17.016 8.799 C 15.603 8.318,14.133 7.924,12.706 7.642 C 11.714 7.447,10.551 7.275,10.507 7.318 C 10.474 7.350,10.383 8.196,10.409 8.223 C 10.418 8.231,10.693 8.293,11.022 8.361 C 13.449 8.864,16.083 9.768,17.820 10.695 L 18.220 10.908 18.216 11.324 C 18.198 12.930,17.184 14.859,15.381 16.713 C 14.721 17.391,14.273 17.790,13.647 18.254 C 13.033 18.710,13.107 18.710,12.892 18.252 C 12.790 18.037,12.621 17.662,12.516 17.420 L 12.325 16.980 12.852 16.930 C 13.143 16.902,13.560 16.834,13.780 16.778 C 14.258 16.656,14.839 16.386,15.060 16.184 L 15.220 16.038 15.060 16.104 C 14.597 16.294,14.132 16.442,13.834 16.495 C 13.398 16.573,12.788 16.609,12.555 16.571 L 12.370 16.540 12.951 16.040 C 13.680 15.412,15.224 13.883,15.899 13.120 C 16.389 12.566,17.280 11.479,17.421 11.265 C 17.457 11.209,17.477 11.147,17.464 11.127 C 17.451 11.106,17.281 10.980,17.086 10.846 L 16.730 10.603 16.375 11.011 C 14.888 12.722,12.700 14.640,10.984 15.737 L 10.508 16.041 10.324 15.934 C 9.753 15.603,8.996 14.878,8.509 14.198 C 7.986 13.468,7.291 11.929,6.947 10.740 C 6.690 9.852,6.480 8.719,6.428 7.946 L 6.413 7.711 6.636 7.734 C 7.643 7.835,8.182 7.894,8.195 7.904 C 8.203 7.911,8.127 8.084,8.026 8.288 C 7.690 8.971,7.517 9.641,7.518 10.255 C 7.518 10.456,7.534 10.674,7.553 10.740 C 7.586 10.853,7.590 10.847,7.616 10.640 C 7.711 9.904,7.828 9.472,8.077 8.938 C 8.231 8.607,8.512 8.139,8.540 8.167 C 8.549 8.175,8.620 8.511,8.700 8.913 C 8.972 10.296,9.383 11.833,9.834 13.160 C 10.155 14.104,10.604 15.244,10.664 15.267 C 10.712 15.285,11.254 15.052,11.428 14.938 C 11.510 14.885,11.512 14.871,11.462 14.750 C 11.346 14.473,10.950 13.163,10.761 12.429 C 10.303 10.656,10.016 8.875,9.937 7.317 L 9.910 6.774 10.094 6.666 C 10.575 6.384,11.448 6.098,12.120 6.002 C 12.285 5.979,12.474 5.952,12.540 5.943 C 12.788 5.908,14.238 5.960,14.680 6.019 M20.094 7.910 C 20.479 8.165,21.079 8.766,21.200 9.019 C 21.324 9.276,21.352 9.622,21.264 9.793 C 21.155 10.004,20.921 10.097,20.500 10.099 L 20.140 10.100 19.590 9.835 C 19.288 9.688,18.969 9.540,18.882 9.505 L 18.723 9.442 19.031 8.951 C 19.201 8.681,19.438 8.293,19.559 8.090 C 19.679 7.886,19.784 7.720,19.793 7.720 C 19.801 7.720,19.936 7.805,20.094 7.910 M19.417 11.687 C 19.890 12.042,20.517 12.685,20.720 13.023 C 20.917 13.351,21.038 13.732,21.039 14.027 C 21.040 14.331,21.004 14.431,20.818 14.637 C 20.418 15.079,19.520 15.358,18.042 15.498 C 17.701 15.530,17.416 15.550,17.408 15.542 C 17.400 15.533,17.496 15.352,17.621 15.140 C 18.335 13.927,18.756 12.576,18.759 11.488 L 18.760 11.235 18.883 11.308 C 18.951 11.347,19.191 11.518,19.417 11.687 M7.717 14.245 C 8.271 15.024,8.885 15.629,9.594 16.094 L 9.969 16.340 9.534 16.548 C 8.721 16.936,8.023 17.125,7.380 17.132 C 6.723 17.139,6.254 16.955,6.053 16.612 C 5.834 16.238,5.889 15.464,6.197 14.606 C 6.344 14.195,6.624 13.547,6.827 13.147 L 6.925 12.954 7.192 13.418 C 7.340 13.673,7.576 14.046,7.717 14.245 M11.798 17.730 C 11.940 18.000,12.151 18.389,12.268 18.595 C 12.384 18.801,12.480 18.977,12.480 18.985 C 12.480 19.023,11.875 19.297,11.548 19.406 C 11.121 19.549,10.639 19.596,10.361 19.521 C 10.250 19.490,10.124 19.414,10.027 19.316 C 9.875 19.164,9.871 19.153,9.888 18.930 C 9.898 18.796,9.952 18.595,10.018 18.449 C 10.128 18.207,10.151 18.185,10.636 17.852 C 10.913 17.662,11.219 17.447,11.316 17.373 C 11.412 17.300,11.502 17.240,11.516 17.240 C 11.529 17.241,11.656 17.461,11.798 17.730 " stroke="none" fill="black" fill-rule="evenodd"></path></svg>