<svg role="img" viewBox="0 0 24 24" xmlns="http://www.w3.org/2000/svg"><path d="M11.020 0.046 C 7.398 0.362,4.048 2.356,2.056 5.380 C 1.074 6.872,0.509 8.362,0.138 10.440 C 0.038 11.000,0.028 11.149,0.029 11.980 C 0.030 12.732,0.046 12.995,0.116 13.420 C 0.515 15.817,1.310 17.704,2.648 19.433 C 3.075 19.984,4.148 21.057,4.660 21.446 C 6.784 23.056,9.117 23.901,11.680 23.987 C 14.232 24.072,16.647 23.382,18.780 21.958 C 19.482 21.489,19.924 21.123,20.562 20.484 C 21.506 19.537,22.120 18.667,22.724 17.420 C 23.478 15.863,23.864 14.309,23.977 12.370 L 23.999 12.000 20.926 12.000 L 17.852 12.000 17.828 11.230 C 17.763 9.224,17.401 7.734,16.732 6.725 L 16.543 6.440 11.792 6.440 L 7.040 6.440 7.040 11.980 L 7.040 17.520 11.797 17.520 L 16.553 17.520 16.773 17.090 C 17.221 16.212,17.459 15.524,17.541 14.869 L 17.568 14.653 19.289 14.625 C 20.236 14.610,21.018 14.605,21.027 14.614 C 21.058 14.645,20.746 15.428,20.499 15.940 C 19.471 18.068,17.752 19.665,15.743 20.357 C 14.772 20.692,13.377 20.984,12.266 21.084 C 11.559 21.148,10.373 21.109,9.893 21.006 C 8.236 20.650,6.169 19.259,4.895 17.640 C 4.067 16.588,3.440 15.061,3.163 13.420 C 2.758 11.017,3.169 9.017,4.465 7.090 C 4.907 6.433,5.207 6.068,5.758 5.519 C 7.144 4.136,8.755 3.287,10.620 2.955 C 11.072 2.875,11.275 2.863,12.180 2.862 C 12.839 2.861,13.359 2.880,13.600 2.913 C 14.336 3.017,15.024 3.168,15.380 3.305 C 17.272 4.034,19.374 6.006,20.436 8.047 C 20.566 8.296,20.731 8.658,20.803 8.851 L 20.935 9.203 22.297 9.176 C 23.047 9.161,23.668 9.142,23.677 9.134 C 23.715 9.101,23.585 8.556,23.423 8.064 C 22.890 6.449,21.909 4.909,20.541 3.538 C 18.701 1.694,16.543 0.574,14.040 0.164 C 13.073 0.006,11.974 -0.037,11.020 0.046 M14.467 9.130 C 14.872 9.558,15.040 9.937,15.040 10.416 C 15.039 10.915,14.885 11.312,14.491 11.831 L 14.270 12.123 14.431 12.314 C 15.077 13.079,15.197 13.671,14.848 14.371 C 14.758 14.552,14.597 14.808,14.491 14.940 L 14.297 15.180 14.028 15.179 C 13.881 15.178,12.842 15.174,11.720 15.169 L 9.680 15.160 9.680 12.067 C 9.680 10.365,9.692 8.961,9.707 8.947 C 9.721 8.932,10.754 8.920,12.001 8.920 L 14.268 8.920 14.467 9.130 " stroke="none" fill="black" fill-rule="evenodd"></path></svg>