<svg role="img" viewBox="0 0 24 24" xmlns="http://www.w3.org/2000/svg"><path d="M10.940 0.046 C 6.260 0.450,2.189 3.634,0.659 8.086 C -1.484 14.319,1.792 21.115,7.997 23.309 C 12.365 24.853,17.202 23.757,20.480 20.480 C 24.710 16.252,25.180 9.567,21.584 4.785 C 19.301 1.748,15.709 -0.028,11.920 0.006 C 11.601 0.009,11.160 0.027,10.940 0.046 M7.898 9.142 C 7.970 9.176,8.049 9.249,8.074 9.304 C 8.104 9.369,8.120 9.722,8.120 10.327 C 8.120 11.364,8.084 11.273,8.440 11.136 C 8.716 11.030,9.306 11.039,9.647 11.154 C 10.422 11.416,10.841 12.086,10.839 13.058 C 10.838 13.746,10.656 14.261,10.278 14.638 C 9.891 15.026,9.367 15.211,8.660 15.211 C 7.850 15.211,7.222 14.971,7.006 14.580 C 6.947 14.473,6.939 14.200,6.929 11.998 C 6.916 9.256,6.914 9.273,7.160 9.150 C 7.336 9.062,7.721 9.058,7.898 9.142 M12.776 9.274 C 13.239 9.538,13.188 10.299,12.693 10.505 C 12.388 10.633,11.957 10.515,11.800 10.260 C 11.550 9.855,11.759 9.307,12.205 9.199 C 12.379 9.157,12.628 9.190,12.776 9.274 M15.528 9.944 C 15.696 10.031,15.720 10.117,15.720 10.633 L 15.720 11.112 16.210 11.127 C 16.867 11.147,16.960 11.213,16.960 11.660 C 16.960 11.830,16.940 11.899,16.864 11.988 C 16.769 12.098,16.756 12.100,16.254 12.120 L 15.740 12.140 15.729 12.798 C 15.715 13.660,15.759 13.988,15.906 14.115 C 16.006 14.201,16.037 14.207,16.258 14.180 C 16.682 14.127,16.790 14.136,16.894 14.235 C 17.009 14.343,17.100 14.633,17.059 14.766 C 16.978 15.034,16.572 15.204,16.000 15.211 C 15.352 15.218,14.963 15.018,14.727 14.556 C 14.567 14.243,14.524 13.875,14.521 12.810 L 14.520 12.120 14.257 12.120 C 14.019 12.120,13.982 12.109,13.877 12.003 C 13.765 11.891,13.738 11.792,13.755 11.560 C 13.777 11.265,13.960 11.120,14.311 11.120 L 14.510 11.120 14.528 10.650 C 14.537 10.392,14.567 10.140,14.593 10.091 C 14.718 9.861,15.217 9.783,15.528 9.944 M12.798 11.152 C 12.998 11.301,12.999 11.306,12.999 13.111 C 13.000 15.008,12.997 15.035,12.743 15.141 C 12.429 15.273,11.960 15.177,11.851 14.960 C 11.814 14.885,11.801 14.432,11.801 13.128 C 11.800 11.653,11.809 11.379,11.861 11.278 C 11.895 11.213,11.926 11.160,11.931 11.159 C 11.936 11.159,12.012 11.132,12.100 11.099 C 12.305 11.022,12.659 11.049,12.798 11.152 M8.520 12.040 C 8.443 12.054,8.322 12.096,8.250 12.134 L 8.120 12.202 8.120 13.162 L 8.120 14.122 8.230 14.167 C 8.396 14.236,8.853 14.255,9.017 14.201 C 9.465 14.053,9.705 13.503,9.598 12.870 C 9.498 12.277,9.062 11.941,8.520 12.040 " stroke="none" fill="black" fill-rule="evenodd"></path></svg>