<svg role="img" viewBox="0 0 24 24" xmlns="http://www.w3.org/2000/svg"><path d="M11.160 0.027 C 9.634 0.176,8.517 0.448,7.313 0.963 C 3.504 2.592,0.843 5.989,0.163 10.090 C -0.743 15.561,2.306 21.010,7.440 23.094 C 9.209 23.813,11.141 24.114,12.980 23.959 C 16.646 23.649,19.959 21.693,21.988 18.640 C 24.145 15.394,24.592 11.247,23.173 7.642 C 21.342 2.989,16.865 -0.043,11.900 0.007 C 11.570 0.010,11.237 0.019,11.160 0.027 M12.170 4.344 C 12.484 4.424,12.754 4.502,12.772 4.518 C 12.796 4.540,12.427 6.132,12.297 6.566 C 12.281 6.620,12.355 6.650,12.729 6.737 C 12.977 6.795,13.218 6.852,13.264 6.864 C 13.344 6.885,13.363 6.831,13.600 5.873 C 13.738 5.316,13.865 4.844,13.882 4.825 C 13.930 4.773,15.160 5.085,15.160 5.150 C 15.160 5.193,14.718 7.001,14.659 7.200 C 14.646 7.245,14.713 7.287,14.910 7.357 C 15.701 7.638,16.548 8.189,16.887 8.640 C 17.308 9.202,17.410 9.775,17.222 10.530 C 17.013 11.371,16.530 11.937,15.847 12.141 L 15.612 12.212 15.964 12.447 C 16.984 13.129,17.253 14.049,16.816 15.360 C 16.635 15.905,16.415 16.273,16.064 16.621 C 15.758 16.923,15.380 17.139,14.940 17.261 C 14.435 17.402,13.266 17.381,12.296 17.214 L 12.172 17.193 11.901 18.276 C 11.752 18.872,11.614 19.360,11.594 19.360 C 11.516 19.360,10.378 19.067,10.346 19.039 C 10.328 19.022,10.422 18.547,10.556 17.983 C 10.690 17.418,10.800 16.942,10.800 16.924 C 10.800 16.886,9.803 16.623,9.773 16.654 C 9.761 16.665,9.636 17.138,9.494 17.705 C 9.352 18.271,9.228 18.746,9.219 18.761 C 9.199 18.795,7.920 18.479,7.920 18.440 C 7.920 18.424,8.036 17.936,8.178 17.355 C 8.320 16.775,8.424 16.289,8.408 16.275 C 8.393 16.262,7.867 16.121,7.240 15.963 C 6.613 15.804,6.034 15.658,5.954 15.637 L 5.807 15.599 6.125 14.872 C 6.299 14.472,6.451 14.136,6.461 14.125 C 6.472 14.115,6.725 14.167,7.023 14.241 C 7.535 14.368,7.574 14.373,7.731 14.318 C 7.836 14.281,7.921 14.217,7.966 14.140 C 8.039 14.014,9.521 8.147,9.519 7.990 C 9.519 7.941,9.484 7.825,9.443 7.734 C 9.337 7.502,9.116 7.385,8.496 7.234 C 8.212 7.165,7.973 7.103,7.965 7.096 C 7.927 7.064,8.293 5.720,8.340 5.720 C 8.367 5.720,8.940 5.855,9.613 6.020 C 10.286 6.185,10.864 6.320,10.897 6.320 C 10.966 6.320,10.964 6.325,11.240 5.180 C 11.488 4.151,11.473 4.200,11.543 4.200 C 11.575 4.200,11.857 4.265,12.170 4.344 M11.618 9.470 C 11.448 10.168,11.302 10.759,11.294 10.781 C 11.278 10.824,12.117 11.042,12.614 11.124 C 12.765 11.149,13.098 11.162,13.354 11.153 C 13.746 11.138,13.855 11.120,14.040 11.034 C 14.465 10.838,14.679 10.512,14.711 10.014 C 14.727 9.770,14.715 9.697,14.628 9.507 C 14.379 8.963,13.718 8.593,12.470 8.301 C 12.234 8.245,12.015 8.200,11.984 8.200 C 11.943 8.200,11.843 8.548,11.618 9.470 M10.589 13.588 C 10.322 14.679,10.252 15.022,10.290 15.046 C 10.317 15.063,10.568 15.132,10.846 15.200 C 12.182 15.523,13.019 15.560,13.578 15.321 C 13.831 15.213,14.095 14.955,14.204 14.709 C 14.277 14.547,14.298 14.428,14.299 14.180 C 14.300 13.899,14.286 13.834,14.182 13.646 C 13.862 13.069,13.086 12.661,11.626 12.301 C 11.312 12.223,11.029 12.160,10.997 12.160 C 10.953 12.160,10.849 12.524,10.589 13.588 " stroke="none" fill="black" fill-rule="evenodd"></path></svg>