<svg role="img" viewBox="0 0 24 24" xmlns="http://www.w3.org/2000/svg"><path d="M10.880 0.041 C 7.196 0.390,4.018 2.296,1.997 5.371 C 1.629 5.933,1.120 6.919,0.865 7.568 C 0.503 8.486,0.203 9.706,0.074 10.780 C -0.005 11.437,0.006 13.021,0.094 13.620 C 0.398 15.683,1.229 17.601,2.562 19.320 C 2.937 19.803,3.872 20.760,4.342 21.143 C 4.809 21.522,5.072 21.645,5.418 21.645 C 6.033 21.645,6.396 21.243,6.284 20.685 C 6.217 20.352,6.085 20.169,5.495 19.592 C 3.776 17.912,2.739 16.018,2.314 13.780 C 2.197 13.160,2.167 11.848,2.256 11.174 C 2.653 8.154,4.642 5.390,7.487 3.905 C 8.407 3.424,9.351 3.106,10.427 2.914 C 10.873 2.834,11.073 2.822,11.960 2.821 C 12.740 2.821,13.088 2.838,13.440 2.892 C 15.147 3.156,16.541 3.737,17.858 4.732 C 18.242 5.022,19.139 5.907,19.447 6.300 C 20.513 7.658,21.197 9.241,21.469 10.978 C 21.564 11.588,21.562 12.889,21.465 13.512 C 21.110 15.793,20.057 17.930,18.483 19.572 C 18.275 19.788,18.075 19.982,18.037 20.002 C 17.973 20.036,17.974 20.024,18.042 19.845 C 18.154 19.551,18.268 19.069,18.342 18.580 C 18.423 18.042,18.435 16.834,18.365 16.380 C 18.056 14.396,16.929 13.050,15.199 12.602 C 14.713 12.477,13.886 12.449,13.280 12.537 C 12.481 12.654,11.754 12.940,11.148 13.376 C 10.976 13.499,10.828 13.600,10.819 13.600 C 10.810 13.600,10.806 12.597,10.811 11.370 C 10.820 9.172,10.819 9.135,10.731 8.828 C 10.416 7.721,9.721 7.189,8.517 7.131 C 7.664 7.090,7.090 7.297,6.559 7.835 C 6.325 8.073,6.215 8.227,6.059 8.534 C 5.876 8.898,5.860 8.951,5.860 9.214 C 5.860 9.559,5.963 9.759,6.202 9.881 C 6.535 10.051,6.928 9.939,7.264 9.579 C 7.423 9.408,7.494 9.360,7.588 9.360 C 7.764 9.360,7.842 9.474,7.881 9.787 C 7.961 10.440,8.007 12.894,8.005 16.481 C 8.002 20.738,7.997 20.655,8.279 21.332 C 9.010 23.088,10.951 24.094,13.400 23.987 C 14.558 23.937,15.405 23.697,16.680 23.060 C 18.266 22.268,19.460 21.422,20.586 20.293 C 22.471 18.404,23.603 16.097,23.928 13.480 C 24.004 12.863,23.992 11.265,23.906 10.640 C 23.567 8.180,22.669 6.105,21.169 4.320 C 20.749 3.819,19.875 2.971,19.400 2.602 C 18.469 1.879,17.180 1.148,16.200 0.786 C 15.309 0.458,14.385 0.225,13.475 0.100 C 12.931 0.025,11.413 -0.009,10.880 0.041 M14.654 15.413 C 15.011 15.589,15.194 15.782,15.383 16.180 C 15.569 16.572,15.640 16.971,15.640 17.623 C 15.640 19.574,14.913 20.887,13.670 21.180 C 13.340 21.258,12.469 21.257,12.101 21.180 C 11.780 21.112,11.309 20.896,11.153 20.745 C 10.812 20.417,10.701 20.118,10.660 19.420 C 10.625 18.824,10.687 18.162,10.823 17.693 C 11.099 16.740,11.759 15.923,12.580 15.517 C 13.018 15.300,13.318 15.239,13.886 15.253 C 14.333 15.264,14.365 15.270,14.654 15.413 " stroke="none" fill="black" fill-rule="evenodd"></path></svg>