<svg role="img" viewBox="0 0 24 24" xmlns="http://www.w3.org/2000/svg"><path d="M10.940 0.046 C 6.260 0.450,2.189 3.634,0.659 8.086 C -1.484 14.319,1.792 21.115,7.997 23.309 C 12.364 24.853,17.204 23.756,20.480 20.480 C 25.166 15.794,25.166 8.207,20.480 3.520 C 17.967 1.006,14.487 -0.261,10.940 0.046 M13.462 1.217 C 15.466 1.511,17.255 2.278,18.800 3.506 C 19.237 3.853,20.147 4.763,20.494 5.200 C 21.743 6.772,22.522 8.619,22.805 10.680 C 22.873 11.172,22.874 12.780,22.808 13.280 C 22.530 15.363,21.741 17.229,20.455 18.840 C 20.107 19.276,19.277 20.106,18.840 20.455 C 17.723 21.347,16.308 22.083,14.980 22.461 C 14.128 22.703,13.294 22.832,12.340 22.867 C 8.202 23.020,4.273 20.722,2.360 17.030 C 1.745 15.842,1.386 14.700,1.195 13.320 C 1.115 12.747,1.127 11.140,1.215 10.540 C 1.349 9.621,1.591 8.712,1.906 7.940 C 3.479 4.086,7.021 1.490,11.180 1.145 C 11.577 1.112,13.069 1.159,13.462 1.217 M6.605 4.820 C 4.973 6.050,3.795 7.818,3.297 9.786 C 3.096 10.579,3.027 11.147,3.027 12.000 C 3.027 12.853,3.096 13.421,3.297 14.214 C 3.795 16.185,4.987 17.971,6.611 19.182 L 7.010 19.480 7.445 19.480 L 7.880 19.480 7.880 17.440 L 7.880 15.400 12.000 15.400 L 16.120 15.400 16.120 17.440 L 16.120 19.480 16.555 19.480 L 16.990 19.480 17.402 19.173 C 18.189 18.586,18.981 17.740,19.530 16.900 C 19.809 16.474,20.267 15.559,20.442 15.080 C 20.798 14.107,20.973 13.090,20.973 12.000 C 20.973 10.912,20.810 9.949,20.462 8.980 C 20.275 8.457,19.826 7.553,19.530 7.100 C 18.981 6.260,18.189 5.414,17.402 4.827 L 16.990 4.520 16.555 4.520 L 16.120 4.520 16.120 6.560 L 16.120 8.600 12.000 8.600 L 7.880 8.600 7.880 6.560 L 7.880 4.520 7.442 4.520 L 7.003 4.520 6.605 4.820 M6.760 12.000 C 6.760 15.212,6.745 17.840,6.726 17.840 C 6.657 17.840,5.962 17.083,5.671 16.692 C 3.593 13.899,3.598 10.075,5.685 7.282 C 5.945 6.934,6.662 6.160,6.725 6.160 C 6.745 6.160,6.760 8.677,6.760 12.000 M17.654 6.521 C 19.098 8.038,19.853 9.912,19.852 11.980 C 19.852 13.149,19.659 14.090,19.208 15.120 C 18.795 16.064,18.250 16.863,17.544 17.559 L 17.240 17.858 17.240 12.009 C 17.240 8.636,17.255 6.160,17.275 6.160 C 17.295 6.160,17.465 6.322,17.654 6.521 M16.120 11.980 L 16.120 14.240 12.000 14.240 L 7.880 14.240 7.880 12.007 C 7.880 10.778,7.892 9.761,7.907 9.747 C 7.921 9.732,9.775 9.720,12.027 9.720 L 16.120 9.720 16.120 11.980 " stroke="none" fill="black" fill-rule="evenodd"></path></svg>