<svg role="img" viewBox="0 0 24 24" xmlns="http://www.w3.org/2000/svg"><path d="M8.440 1.043 C 5.724 1.343,3.209 2.875,1.669 5.169 C -0.209 7.968,-0.516 11.723,0.840 15.340 C 1.711 17.665,3.274 19.740,4.679 20.438 C 5.105 20.649,5.297 20.693,5.717 20.673 C 6.039 20.657,6.109 20.639,6.413 20.488 C 6.792 20.300,7.126 19.999,7.283 19.703 C 7.336 19.602,7.390 19.520,7.403 19.520 C 7.415 19.520,7.577 19.929,7.763 20.428 C 7.948 20.927,8.147 21.410,8.204 21.500 C 8.488 21.948,9.253 22.176,9.690 21.943 L 9.872 21.846 10.126 21.949 C 10.322 22.029,10.471 22.057,10.780 22.070 C 11.300 22.093,11.563 22.005,11.866 21.704 L 12.072 21.500 12.526 21.500 C 12.903 21.500,13.021 21.484,13.220 21.408 C 13.704 21.223,14.031 20.894,14.148 20.475 C 14.204 20.274,14.225 20.245,14.332 20.224 C 14.399 20.210,14.520 20.129,14.602 20.042 C 14.803 19.832,14.897 19.543,14.896 19.140 C 14.896 18.865,14.878 18.778,14.764 18.520 C 14.557 18.053,13.934 16.931,13.570 16.369 L 13.500 16.261 13.684 16.369 C 14.150 16.641,14.932 16.796,15.465 16.722 C 15.817 16.673,16.037 16.570,16.184 16.385 L 16.292 16.251 16.456 16.361 C 17.093 16.789,18.187 16.853,18.877 16.501 C 19.091 16.392,19.353 16.142,19.384 16.017 C 19.404 15.939,19.421 15.933,19.553 15.964 C 19.634 15.983,19.891 15.999,20.124 15.999 C 20.798 16.001,21.431 15.801,21.827 15.462 C 22.075 15.250,22.171 15.069,22.197 14.766 L 22.220 14.505 22.507 14.457 C 22.665 14.430,22.894 14.363,23.017 14.306 C 23.291 14.181,23.631 13.866,23.772 13.607 C 24.164 12.887,24.022 11.755,23.479 11.266 C 22.678 10.546,19.661 9.819,15.320 9.300 C 14.438 9.195,14.200 9.162,14.201 9.148 C 14.201 9.144,14.254 8.987,14.319 8.800 L 14.438 8.460 14.844 8.307 C 15.068 8.223,15.263 8.169,15.278 8.187 C 15.293 8.205,15.357 8.346,15.419 8.500 C 15.589 8.921,15.545 8.902,16.209 8.847 C 16.997 8.781,17.498 8.649,17.998 8.375 C 18.620 8.033,19.010 7.615,19.340 6.940 C 19.601 6.404,19.679 6.130,19.863 5.100 C 19.942 4.660,20.042 4.192,20.086 4.060 C 20.267 3.519,20.560 3.029,21.045 2.455 C 21.196 2.276,21.320 2.121,21.320 2.109 C 21.320 2.045,20.694 1.991,20.200 2.012 C 19.638 2.036,19.317 2.101,18.760 2.302 C 17.452 2.774,16.207 3.833,15.643 4.954 C 15.498 5.242,15.558 5.232,14.980 5.068 C 14.782 5.012,14.574 4.956,14.518 4.944 C 14.433 4.926,14.402 4.877,14.328 4.648 C 13.922 3.386,12.877 2.138,11.748 1.569 C 11.339 1.362,10.817 1.182,10.383 1.097 C 9.993 1.021,8.910 0.991,8.440 1.043 M10.085 2.099 C 11.428 2.334,12.536 3.194,13.160 4.486 C 13.339 4.855,13.357 4.771,13.006 5.203 C 12.200 6.196,12.108 7.670,12.767 9.028 L 12.926 9.355 12.768 9.588 C 12.284 10.297,11.494 10.929,10.500 11.404 C 10.089 11.600,9.344 11.870,8.968 11.959 C 8.851 11.986,8.765 12.018,8.776 12.029 C 8.807 12.060,9.957 11.964,10.320 11.900 C 11.666 11.663,12.707 11.129,13.343 10.349 L 13.532 10.117 13.756 10.139 C 16.253 10.381,18.920 10.814,20.820 11.284 C 21.648 11.489,21.922 11.593,22.086 11.763 C 22.222 11.905,22.396 12.257,22.351 12.302 C 22.340 12.313,21.973 12.277,21.536 12.222 C 19.996 12.028,15.730 11.634,15.286 11.644 L 15.100 11.649 15.300 11.686 C 18.340 12.247,21.700 12.902,22.050 13.001 L 22.200 13.044 22.114 13.159 C 21.828 13.546,21.186 13.761,20.554 13.682 C 20.393 13.662,20.258 13.649,20.253 13.653 C 20.249 13.658,20.272 13.744,20.305 13.846 C 20.481 14.380,19.957 14.865,19.154 14.911 C 18.844 14.929,18.442 14.884,18.251 14.811 C 18.202 14.792,18.196 14.811,18.219 14.914 C 18.282 15.204,18.044 15.509,17.634 15.661 C 17.221 15.814,16.344 15.752,15.920 15.540 C 15.703 15.432,15.640 15.428,15.640 15.523 C 15.640 15.670,15.395 15.862,15.105 15.940 C 14.902 15.995,14.752 16.006,14.432 15.989 C 13.958 15.965,13.625 15.865,13.311 15.654 C 13.199 15.579,13.091 15.507,13.072 15.495 C 13.052 15.483,13.065 15.542,13.101 15.626 C 13.201 15.865,13.117 16.340,12.865 16.956 C 12.498 17.855,11.647 18.680,10.720 19.037 C 10.227 19.227,9.848 19.290,9.215 19.286 C 5.584 19.265,2.314 16.727,1.340 13.175 C 1.108 12.331,1.060 11.936,1.060 10.860 C 1.061 9.807,1.105 9.406,1.319 8.533 C 1.749 6.768,2.735 5.140,4.063 3.997 C 5.253 2.973,6.715 2.310,8.240 2.100 C 8.768 2.028,9.676 2.027,10.085 2.099 M20.054 2.810 C 19.687 3.208,19.491 3.723,19.241 4.940 C 19.044 5.901,18.882 6.451,18.693 6.800 C 18.467 7.219,18.489 7.215,18.132 6.895 C 17.890 6.679,17.288 6.184,17.207 6.136 C 17.187 6.124,17.460 5.596,17.685 5.213 C 18.016 4.648,18.394 4.125,18.714 3.791 C 18.877 3.620,18.992 3.480,18.969 3.480 C 18.946 3.480,18.792 3.570,18.628 3.680 C 18.072 4.052,17.414 4.842,17.015 5.617 L 16.867 5.905 16.523 5.713 C 16.334 5.607,16.162 5.514,16.140 5.505 C 16.077 5.482,16.335 5.012,16.619 4.635 C 17.233 3.817,18.211 3.125,19.158 2.838 C 19.443 2.751,19.941 2.650,20.115 2.644 C 20.205 2.640,20.201 2.650,20.054 2.810 M8.940 5.213 C 8.668 5.304,8.537 5.389,8.349 5.599 C 8.133 5.838,8.040 6.086,8.040 6.417 C 8.040 6.739,8.142 7.011,8.352 7.245 C 8.946 7.906,9.978 7.759,10.408 6.952 C 10.484 6.809,10.499 6.718,10.499 6.420 C 10.499 6.016,10.436 5.849,10.175 5.559 C 9.891 5.246,9.323 5.086,8.940 5.213 M9.590 5.461 C 9.827 5.531,10.000 5.708,10.000 5.879 C 10.000 6.128,9.574 6.349,9.175 6.308 C 8.479 6.237,8.336 5.656,8.965 5.460 C 9.197 5.387,9.344 5.388,9.590 5.461 M14.696 5.638 C 15.431 5.824,16.166 6.180,16.860 6.683 C 17.239 6.958,17.574 7.258,17.460 7.219 C 17.144 7.112,16.415 6.956,16.072 6.922 C 15.566 6.871,15.366 6.900,14.690 7.126 C 14.216 7.285,14.149 7.297,13.740 7.298 C 13.498 7.299,13.228 7.286,13.140 7.269 L 12.980 7.237 13.080 7.319 C 13.363 7.549,13.935 7.573,14.651 7.383 C 14.865 7.326,15.060 7.280,15.083 7.280 C 15.106 7.280,15.119 7.336,15.113 7.405 C 15.101 7.524,15.083 7.536,14.760 7.643 C 14.573 7.705,14.160 7.888,13.841 8.048 C 13.523 8.209,13.249 8.346,13.233 8.353 C 13.146 8.390,12.960 7.637,12.960 7.252 C 12.961 6.717,13.143 6.100,13.424 5.685 L 13.569 5.470 13.910 5.497 C 14.098 5.513,14.452 5.576,14.696 5.638 M16.143 7.206 L 16.449 7.251 16.431 7.466 C 16.421 7.583,16.420 7.680,16.429 7.680 C 16.438 7.680,16.481 7.597,16.526 7.495 L 16.608 7.311 16.804 7.337 C 17.011 7.364,17.589 7.523,17.807 7.612 L 17.935 7.664 17.751 7.771 C 17.379 7.989,16.568 8.200,16.100 8.200 C 15.972 8.200,15.963 8.191,15.885 7.950 C 15.816 7.736,15.720 7.297,15.720 7.193 C 15.720 7.150,15.779 7.151,16.143 7.206 " stroke="none" fill="black" fill-rule="evenodd"></path></svg>