<svg role="img" viewBox="0 0 24 24" xmlns="http://www.w3.org/2000/svg"><path d="M11.280 0.027 C 9.430 0.159,7.734 0.649,6.220 1.489 C 1.132 4.309,-1.201 10.263,0.618 15.780 C 1.828 19.447,4.787 22.348,8.447 23.455 C 10.867 24.187,13.444 24.159,15.796 23.374 C 17.739 22.726,19.398 21.645,20.850 20.080 C 22.867 17.906,24.000 14.967,24.000 11.904 C 24.000 11.438,23.984 11.260,23.855 10.300 C 23.627 8.598,22.956 6.835,21.983 5.383 C 21.510 4.676,21.178 4.262,20.620 3.685 C 18.994 2.003,17.032 0.879,14.780 0.339 C 13.652 0.068,12.337 -0.049,11.280 0.027 M11.163 1.885 C 11.397 1.986,11.654 2.253,11.765 2.511 C 11.973 2.998,11.972 2.978,11.999 6.100 L 12.024 9.020 12.129 9.409 C 12.411 10.449,12.973 11.365,13.604 11.815 C 13.731 11.906,13.837 11.989,13.838 12.000 C 13.839 12.011,13.763 12.069,13.669 12.128 C 13.420 12.285,12.920 12.814,12.703 13.151 C 12.498 13.468,12.367 13.743,12.236 14.131 C 12.030 14.742,12.030 14.750,12.002 17.880 C 11.977 20.719,11.973 20.831,11.890 21.127 C 11.669 21.920,11.304 22.223,10.580 22.216 C 9.935 22.210,8.526 21.800,7.571 21.341 C 6.434 20.794,5.593 20.197,4.698 19.302 C 3.134 17.738,2.154 15.855,1.802 13.736 C 1.405 11.348,1.828 8.938,3.001 6.893 C 3.483 6.054,3.923 5.475,4.615 4.766 C 6.108 3.241,7.878 2.286,10.040 1.840 C 10.494 1.747,10.877 1.762,11.163 1.885 " stroke="none" fill="black" fill-rule="evenodd"></path></svg>