<svg role="img" viewBox="0 0 24 24" xmlns="http://www.w3.org/2000/svg"><path d="M0.000 12.000 L 0.000 23.280 9.800 23.280 L 19.600 23.280 19.600 21.800 L 19.600 20.320 11.300 20.320 L 3.000 20.320 3.000 12.000 L 3.000 3.680 11.300 3.680 L 19.600 3.680 19.600 9.140 L 19.600 14.600 18.890 14.600 L 18.180 14.600 19.620 16.040 C 20.412 16.832,21.080 17.480,21.105 17.480 C 21.130 17.480,21.785 16.832,22.560 16.040 L 23.970 14.600 23.285 14.600 L 22.600 14.600 22.600 7.660 L 22.600 0.720 11.300 0.720 L 0.000 0.720 0.000 12.000 M9.174 5.360 C 8.637 5.392,7.974 5.457,7.690 5.506 L 7.560 5.529 7.560 11.997 L 7.560 18.466 8.250 18.535 C 10.422 18.753,12.420 18.701,13.619 18.395 C 14.888 18.072,15.819 17.316,16.196 16.303 C 16.487 15.520,16.512 14.410,16.256 13.644 C 16.022 12.946,15.440 12.252,14.820 11.933 C 14.502 11.769,13.907 11.560,13.758 11.560 C 13.715 11.560,13.680 11.542,13.680 11.520 C 13.680 11.498,13.712 11.480,13.750 11.480 C 13.874 11.480,14.294 11.257,14.526 11.067 C 14.818 10.828,15.094 10.461,15.285 10.056 C 15.549 9.497,15.642 8.890,15.562 8.240 C 15.465 7.436,15.271 7.026,14.742 6.499 C 14.132 5.890,13.454 5.602,12.200 5.418 C 11.695 5.344,9.991 5.311,9.174 5.360 M11.736 7.338 C 12.160 7.419,12.367 7.522,12.623 7.777 C 12.888 8.043,12.987 8.252,13.049 8.679 C 13.139 9.291,12.971 9.911,12.621 10.261 C 12.254 10.628,11.781 10.758,10.810 10.759 L 10.160 10.760 10.160 9.043 L 10.160 7.325 10.270 7.309 C 10.550 7.266,11.455 7.284,11.736 7.338 M12.465 12.886 C 13.031 13.059,13.359 13.332,13.589 13.823 C 13.694 14.048,13.700 14.090,13.700 14.640 C 13.700 15.194,13.695 15.231,13.585 15.468 C 13.449 15.764,13.116 16.100,12.804 16.258 C 12.379 16.473,12.051 16.532,11.260 16.535 C 10.864 16.536,10.455 16.523,10.350 16.506 L 10.160 16.475 10.160 14.614 L 10.160 12.752 11.150 12.770 C 12.060 12.786,12.166 12.795,12.465 12.886 " stroke="none" fill="black" fill-rule="evenodd"></path></svg>