<svg role="img" viewBox="0 0 24 24" xmlns="http://www.w3.org/2000/svg"><path d="M11.320 0.042 C 9.290 0.223,7.294 0.918,5.639 2.020 C 4.914 2.503,4.403 2.920,3.801 3.520 C -0.164 7.473,-0.856 13.635,2.131 18.400 C 3.008 19.799,4.281 21.097,5.680 22.019 C 8.326 23.764,11.655 24.394,14.763 23.738 C 17.432 23.174,19.780 21.749,21.554 19.614 L 21.725 19.409 21.619 19.014 C 21.560 18.798,21.499 18.606,21.482 18.588 C 21.465 18.570,21.202 18.619,20.896 18.695 C 18.670 19.254,16.442 19.381,14.220 19.077 C 13.447 18.971,12.758 18.830,12.480 18.721 C 11.807 18.456,11.261 17.970,10.908 17.320 C 10.382 16.351,10.465 15.063,11.110 14.195 C 11.615 13.516,12.309 13.091,13.132 12.959 C 13.727 12.863,14.296 12.961,14.920 13.267 C 15.243 13.425,15.354 13.508,15.660 13.817 C 16.191 14.353,16.393 14.799,16.743 16.210 L 16.810 16.480 17.176 16.480 C 19.815 16.480,22.284 14.793,23.260 12.325 C 23.914 10.670,23.862 8.652,23.113 6.620 C 22.187 4.109,20.044 1.998,17.330 0.925 C 15.518 0.209,13.224 -0.129,11.320 0.042 M13.900 1.219 C 17.085 1.599,19.662 3.065,21.218 5.380 C 22.386 7.119,22.872 9.482,22.424 11.249 C 22.167 12.262,21.693 13.068,20.911 13.825 C 20.322 14.395,19.621 14.821,18.853 15.077 C 18.451 15.211,17.801 15.344,17.713 15.311 C 17.680 15.298,17.615 15.142,17.563 14.954 C 17.438 14.496,17.087 13.515,16.848 12.960 C 15.858 10.651,14.289 8.425,12.483 6.768 C 11.144 5.539,9.457 4.396,7.880 3.650 C 7.495 3.468,6.581 3.082,6.304 2.985 C 6.243 2.963,6.294 2.916,6.564 2.746 C 8.014 1.830,9.648 1.300,11.500 1.145 C 11.894 1.112,13.390 1.158,13.900 1.219 M5.646 3.944 C 9.169 5.168,12.269 7.567,14.348 10.680 C 14.597 11.053,15.205 12.089,15.185 12.108 C 15.178 12.116,15.011 12.069,14.816 12.004 C 14.414 11.870,13.298 11.673,12.423 11.581 C 9.010 11.223,5.413 11.882,2.271 13.441 C 1.684 13.732,1.560 13.781,1.544 13.726 C 1.411 13.270,1.382 11.416,1.494 10.600 C 1.771 8.586,2.558 6.750,3.824 5.160 C 4.156 4.743,5.092 3.800,5.173 3.800 C 5.206 3.800,5.418 3.865,5.646 3.944 M11.040 12.621 C 11.040 12.632,10.913 12.761,10.758 12.908 C 10.028 13.596,8.935 15.062,8.199 16.340 C 7.869 16.913,7.260 18.172,7.019 18.780 C 6.800 19.334,6.432 20.444,6.357 20.776 C 6.329 20.901,6.291 21.013,6.272 21.025 C 6.174 21.086,4.923 20.053,4.363 19.449 C 3.248 18.245,2.507 17.008,1.978 15.470 L 1.803 14.960 2.012 14.839 C 4.147 13.605,6.811 12.813,9.400 12.644 C 9.986 12.606,11.040 12.591,11.040 12.621 M9.497 16.647 C 9.560 17.124,10.093 18.540,10.600 19.580 C 11.107 20.619,11.758 21.693,12.395 22.540 L 12.635 22.860 12.287 22.872 C 11.519 22.900,10.306 22.742,9.420 22.499 C 8.480 22.242,7.261 21.727,7.297 21.603 C 7.308 21.569,7.353 21.392,7.399 21.211 C 7.654 20.194,8.123 18.917,8.596 17.956 C 8.884 17.369,9.404 16.440,9.445 16.440 C 9.459 16.440,9.482 16.533,9.497 16.647 M12.340 19.861 C 12.889 20.038,14.195 20.238,15.360 20.323 C 16.441 20.402,18.252 20.329,19.269 20.166 C 19.383 20.147,19.468 20.147,19.457 20.165 C 19.424 20.218,18.881 20.653,18.580 20.866 C 17.830 21.398,16.836 21.921,15.980 22.232 C 15.499 22.407,14.513 22.666,14.179 22.705 L 13.968 22.730 13.622 22.295 C 13.040 21.562,12.519 20.788,12.041 19.943 C 11.929 19.746,11.919 19.712,11.983 19.738 C 12.025 19.756,12.186 19.811,12.340 19.861 " stroke="none" fill="black" fill-rule="evenodd"></path></svg>