<svg role="img" viewBox="0 0 24 24" xmlns="http://www.w3.org/2000/svg"><path d="M0.000 10.840 L 0.000 14.640 0.475 14.640 L 0.950 14.640 0.975 14.515 C 0.989 14.446,1.000 14.338,1.000 14.275 C 1.000 14.162,1.052 14.122,1.099 14.199 C 1.147 14.276,1.653 14.533,1.953 14.632 C 2.216 14.719,2.332 14.733,2.760 14.733 C 3.193 14.733,3.303 14.719,3.580 14.628 C 4.025 14.481,4.371 14.268,4.699 13.939 C 5.028 13.611,5.241 13.265,5.388 12.820 C 5.479 12.543,5.493 12.433,5.493 12.000 C 5.493 11.568,5.479 11.457,5.388 11.180 C 5.139 10.423,4.654 9.867,3.940 9.521 C 3.154 9.139,2.331 9.151,1.510 9.556 L 1.120 9.748 1.120 8.394 L 1.120 7.040 0.560 7.040 L 0.000 7.040 0.000 10.840 M14.640 9.267 C 14.423 9.303,14.009 9.453,13.800 9.571 C 13.499 9.741,13.044 10.205,12.867 10.524 C 12.580 11.039,12.560 11.203,12.560 13.026 L 12.560 14.640 13.100 14.640 L 13.640 14.640 13.641 13.150 C 13.641 11.481,13.666 11.261,13.889 10.888 C 14.147 10.459,14.552 10.225,15.040 10.223 C 15.288 10.221,15.379 10.240,15.565 10.331 C 15.842 10.467,16.131 10.768,16.273 11.071 L 16.380 11.300 16.400 12.960 L 16.420 14.620 16.960 14.620 L 17.500 14.620 17.510 13.070 C 17.522 11.297,17.506 11.153,17.235 10.602 C 16.830 9.780,15.922 9.229,15.000 9.246 C 14.857 9.249,14.695 9.258,14.640 9.267 M20.660 9.303 C 20.506 9.337,20.210 9.447,20.001 9.547 C 19.041 10.011,18.421 11.084,18.492 12.159 C 18.537 12.840,18.815 13.454,19.301 13.939 C 19.629 14.268,19.974 14.480,20.420 14.629 C 20.699 14.722,20.803 14.735,21.240 14.734 C 21.670 14.733,21.785 14.718,22.060 14.628 C 22.236 14.570,22.486 14.459,22.615 14.381 C 22.744 14.304,22.857 14.240,22.865 14.240 C 22.873 14.240,22.880 14.852,22.880 15.600 L 22.880 16.960 23.440 16.960 L 24.000 16.960 24.000 13.180 L 24.000 9.400 23.525 9.400 C 22.996 9.400,23.002 9.396,23.001 9.710 C 23.000 9.781,22.990 9.840,22.977 9.840 C 22.965 9.840,22.879 9.788,22.787 9.725 C 22.192 9.318,21.351 9.150,20.660 9.303 M6.508 9.386 C 6.492 9.401,6.480 10.108,6.481 10.957 C 6.481 12.715,6.498 12.856,6.765 13.398 C 7.380 14.646,8.968 15.123,10.200 14.429 C 10.501 14.260,10.956 13.795,11.133 13.476 C 11.419 12.962,11.440 12.795,11.440 10.994 L 11.440 9.400 10.900 9.400 L 10.360 9.400 10.359 10.870 C 10.359 12.517,10.334 12.740,10.111 13.112 C 9.959 13.365,9.735 13.562,9.457 13.687 C 9.186 13.809,8.737 13.811,8.470 13.690 C 8.188 13.563,7.871 13.243,7.735 12.949 L 7.620 12.700 7.600 11.040 L 7.580 9.380 7.058 9.369 C 6.771 9.363,6.523 9.370,6.508 9.386 M3.005 10.241 C 4.227 10.471,4.805 11.956,4.090 13.032 C 3.731 13.574,3.037 13.881,2.430 13.768 C 1.478 13.591,0.830 12.664,0.993 11.713 C 1.061 11.315,1.241 10.969,1.516 10.707 C 1.954 10.289,2.446 10.135,3.005 10.241 M21.699 10.261 C 22.040 10.350,22.297 10.505,22.539 10.766 C 23.202 11.482,23.199 12.521,22.533 13.241 C 21.922 13.900,20.965 13.971,20.257 13.410 C 19.844 13.082,19.600 12.560,19.600 12.000 C 19.600 10.836,20.630 9.983,21.699 10.261 " stroke="none" fill="black" fill-rule="evenodd"></path></svg>