<svg role="img" viewBox="0 0 24 24" xmlns="http://www.w3.org/2000/svg"><path d="M10.220 1.760 L 8.460 3.520 5.990 3.520 L 3.520 3.520 3.520 5.990 L 3.520 8.460 1.760 10.220 L 0.000 11.980 1.760 13.742 L 3.520 15.503 3.520 17.991 L 3.520 20.480 6.009 20.480 L 8.499 20.480 10.249 22.231 L 12.000 23.982 13.751 22.231 L 15.501 20.480 17.991 20.480 L 20.480 20.480 20.480 17.991 L 20.480 15.503 22.240 13.742 L 24.000 11.980 22.240 10.220 L 20.480 8.460 20.480 5.990 L 20.480 3.520 18.010 3.520 L 15.540 3.520 13.780 1.760 C 12.812 0.792,12.011 0.000,12.000 0.000 C 11.989 0.000,11.188 0.792,10.220 1.760 M13.520 3.220 L 15.020 4.720 17.150 4.720 L 19.280 4.720 19.280 6.850 L 19.280 8.980 20.790 10.490 L 22.300 12.000 20.790 13.510 L 19.280 15.020 19.280 17.150 L 19.280 19.280 17.150 19.280 L 15.020 19.280 13.510 20.790 L 12.000 22.300 10.490 20.790 L 8.980 19.280 6.850 19.280 L 4.720 19.280 4.720 17.150 L 4.720 15.020 3.210 13.510 L 1.700 12.000 3.210 10.490 L 4.720 8.980 4.720 6.850 L 4.720 4.720 6.850 4.720 L 8.980 4.720 10.480 3.220 C 11.305 2.395,11.989 1.720,12.000 1.720 C 12.011 1.720,12.695 2.395,13.520 3.220 M10.769 4.590 L 10.780 5.020 11.210 5.031 L 11.640 5.043 11.640 4.601 L 11.640 4.160 11.199 4.160 L 10.757 4.160 10.769 4.590 M12.400 4.600 L 12.400 5.040 12.840 5.040 L 13.280 5.040 13.280 4.600 L 13.280 4.160 12.840 4.160 L 12.400 4.160 12.400 4.600 M5.160 6.500 L 5.160 7.800 6.340 7.800 L 7.520 7.800 7.520 8.200 L 7.520 8.600 6.340 8.600 L 5.160 8.600 5.160 9.020 L 5.160 9.440 6.760 9.440 L 8.360 9.440 8.360 7.320 L 8.360 5.200 6.760 5.200 L 5.160 5.200 5.160 6.500 M9.640 6.900 L 9.640 8.600 9.100 8.600 L 8.560 8.600 8.560 9.020 L 8.560 9.440 9.500 9.440 L 10.440 9.440 10.440 8.640 L 10.440 7.840 11.940 7.840 L 13.440 7.840 13.440 8.640 L 13.440 9.440 16.160 9.440 L 18.880 9.440 18.880 7.320 L 18.880 5.200 17.280 5.200 L 15.680 5.200 15.680 6.900 L 15.680 8.600 14.980 8.600 L 14.280 8.600 14.280 6.900 L 14.280 5.200 13.860 5.200 L 13.440 5.200 13.440 6.080 L 13.440 6.960 11.960 6.960 L 10.480 6.960 10.480 6.080 L 10.480 5.200 10.060 5.200 L 9.640 5.200 9.640 6.900 M7.520 6.500 L 7.520 6.960 6.760 6.960 L 6.000 6.960 6.000 6.500 L 6.000 6.040 6.760 6.040 L 7.520 6.040 7.520 6.500 M18.040 7.320 L 18.040 8.600 17.280 8.600 L 16.520 8.600 16.520 7.320 L 16.520 6.040 17.280 6.040 L 18.040 6.040 18.040 7.320 M4.880 14.420 L 4.880 19.120 6.960 19.120 L 9.039 19.120 9.050 17.418 L 9.060 15.716 10.513 17.218 C 11.313 18.044,11.981 18.720,11.998 18.720 C 12.016 18.720,12.685 18.042,13.485 17.213 L 14.940 15.706 14.950 17.413 L 14.961 19.120 17.040 19.120 L 19.120 19.120 19.120 14.420 L 19.120 9.720 17.050 9.721 L 14.980 9.721 13.500 11.199 L 12.020 12.676 10.540 11.198 L 9.060 9.720 6.970 9.720 L 4.880 9.720 4.880 14.420 " stroke="none" fill="black" fill-rule="evenodd"></path></svg>