<svg role="img" viewBox="0 0 24 24" xmlns="http://www.w3.org/2000/svg"><path d="M8.260 0.075 C 8.063 0.166,7.890 0.335,7.804 0.520 C 7.747 0.644,7.739 1.006,7.729 3.711 C 7.720 6.161,7.728 6.765,7.769 6.781 C 7.797 6.792,11.329 6.796,15.618 6.790 L 23.416 6.780 19.848 3.390 L 16.280 -0.000 12.350 0.001 C 8.624 0.002,8.412 0.006,8.260 0.075 M3.390 4.150 L 0.000 7.718 -0.000 11.654 L -0.000 15.591 0.112 15.805 C 0.193 15.961,0.277 16.052,0.419 16.139 L 0.614 16.260 3.688 16.271 C 6.156 16.280,6.765 16.272,6.781 16.231 C 6.792 16.203,6.796 12.670,6.790 8.381 L 6.780 0.582 3.390 4.150 M17.200 15.583 C 17.200 19.886,17.214 23.401,17.232 23.393 C 17.250 23.386,18.780 21.782,20.632 19.830 L 24.000 16.280 24.000 12.348 L 24.000 8.416 23.899 8.212 C 23.835 8.085,23.735 7.966,23.632 7.895 L 23.467 7.780 20.333 7.769 L 17.200 7.759 17.200 15.583 M0.600 17.217 C 0.600 17.227,2.203 18.757,4.162 20.617 L 7.723 24.000 11.654 24.000 L 15.584 24.000 15.788 23.899 C 16.030 23.778,16.180 23.579,16.239 23.300 C 16.267 23.167,16.278 22.116,16.271 20.160 L 16.260 17.220 8.430 17.210 C 4.123 17.204,0.600 17.208,0.600 17.217 " stroke="none" fill="black" fill-rule="evenodd"></path></svg>