<svg role="img" viewBox="0 0 24 24" xmlns="http://www.w3.org/2000/svg"><path d="M11.000 0.041 C 9.161 0.216,7.452 0.766,5.894 1.686 C 4.202 2.683,2.706 4.177,1.684 5.889 C 1.455 6.273,0.899 7.402,0.861 7.560 C 0.838 7.657,0.863 7.670,1.777 8.038 C 2.294 8.246,2.724 8.408,2.732 8.398 C 2.740 8.388,2.787 8.281,2.838 8.160 C 3.452 6.685,4.513 5.269,5.773 4.244 C 6.894 3.333,8.454 2.581,9.880 2.265 C 11.222 1.967,12.798 1.959,14.100 2.242 C 15.293 2.502,16.545 3.028,17.552 3.693 L 17.995 3.985 18.558 3.215 C 18.868 2.791,19.131 2.419,19.143 2.387 C 19.184 2.281,18.208 1.658,17.316 1.221 C 16.162 0.656,15.068 0.319,13.740 0.121 C 13.097 0.024,11.625 -0.018,11.000 0.041 M10.780 2.383 C 9.152 2.604,7.528 3.261,6.246 4.218 C 5.167 5.024,4.356 5.923,3.663 7.082 C 3.389 7.540,2.925 8.504,2.964 8.533 C 3.000 8.560,4.783 9.200,4.820 9.200 C 4.842 9.199,4.967 8.973,5.098 8.696 C 5.856 7.088,7.080 5.856,8.689 5.080 C 9.655 4.613,10.863 4.320,11.818 4.320 L 12.040 4.320 12.040 3.320 L 12.040 2.320 11.610 2.324 C 11.373 2.326,11.000 2.353,10.780 2.383 M15.204 3.948 C 14.995 4.472,14.845 4.900,14.865 4.919 C 14.884 4.937,15.032 5.006,15.193 5.073 C 16.760 5.724,18.170 7.074,18.944 8.666 C 19.169 9.127,19.431 9.876,19.520 10.310 L 19.571 10.560 20.605 10.560 C 21.535 10.560,21.640 10.553,21.640 10.495 C 21.640 10.459,21.593 10.220,21.536 9.965 C 21.220 8.545,20.528 7.102,19.615 5.960 C 18.990 5.179,17.969 4.285,17.110 3.766 C 16.812 3.586,15.830 3.095,15.640 3.030 C 15.593 3.014,15.494 3.222,15.204 3.948 M11.240 4.642 C 9.820 4.815,8.503 5.363,7.400 6.241 C 5.962 7.385,5.008 9.043,4.697 10.940 C 4.618 11.422,4.606 12.510,4.675 13.000 C 5.023 15.487,6.527 17.592,8.747 18.697 C 11.407 20.021,14.569 19.636,16.867 17.706 C 17.999 16.756,18.847 15.419,19.234 13.970 L 19.354 13.520 18.304 13.520 L 17.255 13.520 17.183 13.750 C 16.898 14.663,16.138 15.700,15.284 16.342 C 14.655 16.814,13.811 17.188,13.014 17.346 C 12.517 17.445,11.466 17.445,11.001 17.346 C 9.897 17.111,9.051 16.671,8.278 15.931 C 7.458 15.146,6.896 14.101,6.691 12.982 C 6.647 12.743,6.625 12.410,6.626 12.000 C 6.628 11.303,6.707 10.831,6.925 10.212 C 7.576 8.367,9.179 7.023,11.115 6.699 C 11.723 6.597,12.746 6.633,13.313 6.776 C 15.086 7.223,16.495 8.489,17.102 10.180 L 17.231 10.540 18.256 10.551 C 19.172 10.560,19.280 10.555,19.280 10.497 C 19.280 10.462,19.244 10.292,19.200 10.119 C 18.564 7.630,16.664 5.651,14.191 4.905 C 13.943 4.830,13.569 4.738,13.360 4.700 C 12.917 4.620,11.698 4.587,11.240 4.642 M21.373 6.233 C 20.929 6.513,20.554 6.752,20.541 6.766 C 20.527 6.780,20.633 6.995,20.776 7.245 C 21.255 8.083,21.629 9.076,21.821 10.025 C 21.876 10.292,21.920 10.521,21.920 10.535 C 21.920 10.549,22.388 10.560,22.960 10.560 C 23.550 10.560,24.000 10.544,24.000 10.524 C 24.000 10.504,23.964 10.275,23.919 10.014 C 23.813 9.388,23.602 8.595,23.376 7.968 C 23.080 7.147,22.349 5.716,22.229 5.723 C 22.202 5.724,21.817 5.954,21.373 6.233 M11.240 6.899 C 10.109 7.091,9.167 7.580,8.360 8.397 C 7.615 9.151,7.139 10.057,6.934 11.113 C 6.842 11.585,6.843 12.499,6.936 12.980 C 7.015 13.389,7.233 14.080,7.283 14.080 C 7.302 14.080,7.747 13.890,8.273 13.657 L 9.230 13.234 9.139 12.965 C 8.870 12.171,8.936 11.379,9.333 10.620 C 9.532 10.240,10.084 9.660,10.453 9.443 C 10.806 9.236,11.293 9.076,11.650 9.051 L 11.960 9.029 11.960 7.934 L 11.960 6.840 11.750 6.844 C 11.635 6.846,11.405 6.871,11.240 6.899 M13.860 7.290 C 13.850 7.317,13.705 7.700,13.537 8.140 C 13.369 8.580,13.208 9.007,13.178 9.089 L 13.125 9.237 13.372 9.363 C 13.822 9.591,14.273 9.988,14.538 10.390 L 14.651 10.560 15.785 10.560 C 16.708 10.560,16.920 10.550,16.920 10.506 C 16.920 10.302,16.540 9.497,16.237 9.060 C 15.723 8.319,14.947 7.676,14.145 7.325 C 13.919 7.226,13.884 7.222,13.860 7.290 M0.015 12.590 C 0.068 13.660,0.294 14.852,0.632 15.840 C 0.796 16.321,0.987 16.799,1.036 16.850 C 1.052 16.867,1.462 16.699,1.948 16.476 L 2.832 16.073 2.711 15.746 C 2.299 14.635,2.040 13.349,2.040 12.411 L 2.040 12.040 1.014 12.040 L -0.012 12.040 0.015 12.590 M2.320 12.382 C 2.320 13.856,2.883 15.735,3.737 17.112 C 4.487 18.322,5.531 19.392,6.720 20.170 C 7.098 20.417,8.132 20.957,8.343 21.017 C 8.420 21.039,8.458 20.961,8.797 20.098 C 9.001 19.579,9.158 19.145,9.145 19.132 C 9.133 19.120,8.956 19.034,8.751 18.941 C 6.222 17.794,4.518 15.292,4.335 12.453 L 4.308 12.040 3.314 12.040 L 2.320 12.040 2.320 12.382 M14.460 13.724 C 14.216 14.136,13.634 14.637,13.254 14.762 C 13.148 14.797,13.121 14.824,13.141 14.874 C 13.156 14.910,13.330 15.366,13.528 15.887 L 13.889 16.835 13.994 16.795 C 14.959 16.428,15.964 15.542,16.499 14.585 C 16.658 14.301,16.859 13.829,16.899 13.645 L 16.926 13.520 15.753 13.521 L 14.580 13.522 14.460 13.724 M19.461 13.950 C 18.680 16.966,16.155 19.222,13.067 19.661 C 12.843 19.692,12.521 19.719,12.350 19.719 L 12.040 19.720 12.040 20.740 L 12.040 21.760 12.250 21.760 C 12.585 21.760,13.303 21.685,13.780 21.600 C 16.612 21.098,19.153 19.272,20.545 16.740 C 21.051 15.820,21.475 14.616,21.620 13.690 L 21.647 13.520 20.610 13.520 L 19.572 13.520 19.461 13.950 M21.903 13.610 C 21.893 13.660,21.855 13.844,21.819 14.020 C 21.124 17.422,18.587 20.306,15.275 21.460 C 14.178 21.842,13.192 22.009,12.020 22.012 C 10.924 22.015,10.003 21.873,9.000 21.547 C 7.622 21.100,6.189 20.245,5.159 19.255 L 4.978 19.081 4.266 19.794 L 3.554 20.507 3.867 20.800 C 4.677 21.558,5.599 22.194,6.640 22.715 C 7.903 23.346,9.062 23.701,10.520 23.905 C 11.224 24.003,12.903 24.004,13.600 23.907 C 16.936 23.441,19.765 21.781,21.737 19.133 C 22.928 17.534,23.635 15.807,23.983 13.650 L 24.004 13.520 22.963 13.520 L 21.922 13.520 21.903 13.610 M9.137 14.925 L 8.380 15.685 8.612 15.902 C 9.407 16.649,10.756 17.200,11.787 17.200 L 12.040 17.200 12.040 16.125 L 12.040 15.050 11.678 15.004 C 11.080 14.927,10.522 14.688,10.077 14.317 L 9.895 14.165 9.137 14.925 " stroke="none" fill="black" fill-rule="evenodd"></path></svg>