<svg xmlns="http://www.w3.org/2000/svg" viewBox="0 0 24 24" role="img"><path d="M5.982 5.756 C 5.730 5.927,5.741 5.790,5.728 8.840 C 5.721 10.369,5.727 11.696,5.740 11.790 C 5.810 12.271,6.406 12.434,6.669 12.044 L 6.760 11.908 6.760 8.953 L 6.760 5.999 6.628 5.854 C 6.517 5.734,6.462 5.707,6.298 5.693 C 6.146 5.680,6.073 5.694,5.982 5.756 M17.540 5.718 C 17.496 5.736,17.415 5.800,17.360 5.859 L 17.260 5.966 17.249 8.947 L 17.238 11.928 17.395 12.084 C 17.528 12.218,17.575 12.240,17.725 12.240 C 17.830 12.240,17.953 12.207,18.032 12.159 C 18.290 12.002,18.283 12.100,18.271 8.909 C 18.260 6.147,18.257 6.015,18.184 5.908 C 18.049 5.709,17.765 5.625,17.540 5.718 M3.171 7.699 C 3.100 7.730,3.005 7.815,2.961 7.888 C 2.884 8.014,2.880 8.087,2.880 9.420 C 2.880 10.738,2.885 10.827,2.958 10.948 C 3.109 11.195,3.424 11.270,3.672 11.119 C 3.911 10.974,3.920 10.910,3.920 9.411 C 3.920 7.898,3.914 7.861,3.638 7.713 C 3.476 7.627,3.347 7.623,3.171 7.699 M8.895 7.717 C 8.633 7.876,8.640 7.832,8.640 9.411 C 8.640 10.584,8.651 10.864,8.698 10.956 C 8.873 11.294,9.372 11.303,9.589 10.971 C 9.654 10.873,9.660 10.733,9.660 9.440 C 9.660 7.860,9.664 7.887,9.388 7.718 C 9.226 7.620,9.055 7.619,8.895 7.717 M14.691 7.699 C 14.620 7.730,14.525 7.815,14.480 7.888 C 14.402 8.015,14.399 8.072,14.409 9.473 L 14.420 10.926 14.569 11.063 C 14.697 11.180,14.748 11.200,14.914 11.200 C 15.054 11.200,15.141 11.175,15.219 11.113 C 15.431 10.947,15.440 10.879,15.440 9.411 C 15.440 7.898,15.434 7.861,15.158 7.713 C 14.996 7.627,14.867 7.623,14.691 7.699 M20.502 7.669 C 20.363 7.704,20.248 7.801,20.183 7.938 C 20.129 8.052,20.120 8.275,20.120 9.450 C 20.120 10.818,20.121 10.829,20.211 10.964 C 20.374 11.206,20.663 11.271,20.908 11.122 C 21.162 10.967,21.164 10.951,21.151 9.382 L 21.140 7.966 21.040 7.858 C 20.882 7.687,20.693 7.621,20.502 7.669 M0.252 9.158 C 0.027 9.296,0.000 9.400,0.000 10.140 C 0.000 10.880,0.027 10.984,0.252 11.122 C 0.501 11.274,0.846 11.180,0.978 10.924 C 1.027 10.830,1.040 10.661,1.040 10.132 C 1.040 9.536,1.031 9.446,0.962 9.332 C 0.812 9.087,0.496 9.010,0.252 9.158 M11.765 9.146 C 11.534 9.264,11.482 9.443,11.481 10.131 C 11.480 10.545,11.497 10.761,11.535 10.851 C 11.670 11.169,12.017 11.291,12.279 11.112 C 12.503 10.960,12.519 10.896,12.519 10.109 L 12.520 9.399 12.389 9.255 C 12.227 9.079,11.981 9.036,11.765 9.146 M23.212 9.158 C 22.977 9.302,22.954 9.401,22.968 10.200 L 22.980 10.915 23.098 11.038 C 23.162 11.105,23.275 11.177,23.348 11.197 C 23.528 11.247,23.718 11.188,23.862 11.038 L 23.980 10.915 23.992 10.200 C 24.003 9.604,23.994 9.465,23.941 9.361 C 23.858 9.202,23.659 9.080,23.480 9.080 C 23.403 9.080,23.282 9.115,23.212 9.158 M4.020 14.025 C 3.295 14.138,2.710 14.550,2.402 15.166 C 2.203 15.564,2.145 15.846,2.170 16.300 C 2.239 17.533,3.238 18.380,4.540 18.308 C 4.738 18.297,4.995 18.265,5.110 18.237 L 5.320 18.186 5.320 17.629 C 5.320 17.114,5.315 17.074,5.250 17.101 C 4.448 17.434,3.721 17.262,3.424 16.668 C 3.260 16.339,3.260 15.973,3.425 15.651 C 3.706 15.101,4.350 14.907,5.064 15.158 C 5.192 15.203,5.303 15.240,5.310 15.240 C 5.317 15.240,5.317 14.994,5.311 14.693 L 5.300 14.145 5.100 14.092 C 4.887 14.036,4.219 13.994,4.020 14.025 M10.330 14.040 C 9.902 14.131,9.510 14.426,9.353 14.776 C 9.217 15.079,9.225 15.544,9.371 15.826 C 9.539 16.152,9.828 16.359,10.342 16.522 C 10.679 16.629,10.888 16.739,10.954 16.845 C 10.995 16.911,10.990 16.946,10.924 17.053 C 10.881 17.124,10.797 17.226,10.739 17.281 C 10.639 17.374,10.609 17.380,10.207 17.375 C 9.972 17.373,9.668 17.344,9.531 17.311 C 9.394 17.278,9.273 17.261,9.261 17.272 C 9.249 17.284,9.240 17.497,9.240 17.746 C 9.240 18.267,9.185 18.211,9.759 18.280 C 10.452 18.362,11.018 18.295,11.438 18.081 C 12.118 17.734,12.335 16.766,11.859 16.210 C 11.649 15.965,11.516 15.883,11.023 15.700 L 10.580 15.535 10.594 15.338 C 10.623 14.902,10.764 14.831,11.384 14.936 C 11.594 14.971,11.783 15.000,11.804 15.000 C 11.827 15.000,11.838 14.829,11.831 14.573 L 11.820 14.145 11.620 14.091 C 11.370 14.024,10.557 13.991,10.330 14.040 M15.020 14.025 C 14.192 14.154,13.540 14.675,13.278 15.420 C 13.170 15.724,13.133 16.275,13.197 16.609 C 13.357 17.439,14.009 18.080,14.880 18.265 C 15.222 18.337,15.822 18.320,16.120 18.231 L 16.300 18.177 16.311 17.624 C 16.322 17.107,16.318 17.072,16.251 17.100 C 15.986 17.210,15.778 17.251,15.460 17.254 C 15.145 17.257,15.075 17.245,14.900 17.153 C 14.507 16.946,14.306 16.610,14.304 16.157 C 14.304 15.944,14.326 15.848,14.422 15.657 C 14.700 15.100,15.347 14.906,16.074 15.162 C 16.197 15.205,16.303 15.240,16.310 15.240 C 16.317 15.240,16.317 14.994,16.311 14.693 L 16.300 14.145 16.100 14.092 C 15.887 14.036,15.219 13.994,15.020 14.025 M19.180 14.047 C 18.873 14.104,18.367 14.368,18.133 14.594 C 17.698 15.012,17.480 15.473,17.449 16.042 C 17.428 16.446,17.481 16.737,17.635 17.063 C 18.283 18.424,20.127 18.740,21.195 17.673 C 22.065 16.802,22.024 15.394,21.103 14.573 C 20.583 14.109,19.876 13.916,19.180 14.047 M6.800 16.160 L 6.800 18.240 7.320 18.240 L 7.840 18.240 7.840 16.160 L 7.840 14.080 7.320 14.080 L 6.800 14.080 6.800 16.160 M20.080 15.163 C 20.745 15.464,20.934 16.311,20.462 16.871 C 20.067 17.339,19.336 17.364,18.885 16.925 C 18.640 16.686,18.541 16.417,18.570 16.063 C 18.616 15.481,19.052 15.082,19.640 15.082 C 19.816 15.082,19.958 15.108,20.080 15.163 " stroke="none" fill="black" fill-rule="evenodd"></path></svg>