<svg role="img" xmlns="http://www.w3.org/2000/svg" viewBox="0 0 24 24"><path d="M11.084 0.029 C 11.000 0.045,11.761 0.821,16.964 6.024 L 22.940 12.000 16.966 17.974 C 11.039 23.901,10.993 23.949,11.121 23.974 C 11.310 24.012,11.992 24.005,12.520 23.960 C 16.066 23.657,19.245 21.862,21.303 19.000 C 23.575 15.840,24.167 11.785,22.898 8.078 C 21.470 3.910,17.743 0.795,13.400 0.142 C 12.592 0.021,11.429 -0.036,11.084 0.029 M9.500 2.424 C 8.384 2.508,7.374 2.734,6.460 3.106 C 4.250 4.005,2.504 5.627,1.441 7.766 C -1.035 12.750,1.270 18.778,6.460 20.894 C 7.352 21.258,8.319 21.479,9.382 21.561 C 9.939 21.605,10.560 21.587,10.560 21.527 C 10.560 21.512,8.423 19.363,5.810 16.750 L 1.060 12.000 5.818 7.242 C 8.435 4.625,10.567 2.474,10.555 2.462 C 10.526 2.433,9.752 2.405,9.500 2.424 M10.285 4.908 C 10.250 4.922,11.496 6.196,13.765 8.465 L 17.300 12.000 13.763 15.537 C 10.374 18.927,10.230 19.076,10.338 19.103 C 10.509 19.146,11.618 19.094,12.001 19.025 C 14.581 18.558,16.730 16.694,17.540 14.220 C 18.004 12.806,18.005 11.194,17.544 9.789 C 16.586 6.874,13.822 4.862,10.801 4.883 C 10.547 4.885,10.315 4.896,10.285 4.908 M9.506 7.384 C 7.655 7.718,6.142 9.207,5.763 11.066 C 5.650 11.622,5.650 12.378,5.763 12.934 C 5.990 14.050,6.639 15.068,7.580 15.782 C 7.931 16.049,8.711 16.419,9.180 16.543 C 9.490 16.625,9.711 16.653,10.167 16.669 C 10.490 16.681,10.786 16.678,10.825 16.664 C 10.882 16.642,10.419 16.159,8.578 14.318 L 6.260 12.000 8.572 9.688 C 9.843 8.417,10.870 7.364,10.855 7.348 C 10.806 7.299,9.833 7.325,9.506 7.384 " stroke="none" fill="black" fill-rule="evenodd"></path></svg>