<svg role="img" xmlns="http://www.w3.org/2000/svg" viewBox="0 0 24 24"><path d="M7.336 4.065 C 4.742 6.299,2.580 8.166,2.532 8.214 L 2.443 8.300 3.945 10.040 C 4.770 10.997,5.460 11.780,5.478 11.780 C 5.495 11.780,6.972 10.520,8.759 8.980 C 10.546 7.440,12.023 6.180,12.041 6.180 C 12.060 6.180,13.475 7.397,15.187 8.884 C 16.899 10.372,18.357 11.636,18.426 11.694 L 18.552 11.800 19.986 10.151 C 20.775 9.244,21.460 8.455,21.508 8.397 L 21.597 8.292 16.948 4.252 C 14.392 2.029,12.244 0.164,12.176 0.107 L 12.052 0.003 7.336 4.065 M3.896 16.984 C 2.930 17.723,2.110 18.357,2.074 18.394 C 2.012 18.455,2.025 18.482,2.266 18.780 C 3.017 19.707,4.003 20.708,4.780 21.334 C 6.181 22.462,7.884 23.319,9.471 23.697 C 11.212 24.111,13.114 24.091,14.854 23.642 C 16.893 23.115,19.002 21.806,20.611 20.068 C 21.119 19.518,21.426 19.158,21.752 18.731 L 22.001 18.404 21.710 18.189 C 21.551 18.071,20.727 17.465,19.880 16.842 C 19.033 16.219,18.322 15.695,18.299 15.678 C 18.274 15.658,18.140 15.798,17.959 16.032 C 17.596 16.502,16.691 17.439,16.280 17.771 C 14.837 18.937,13.212 19.470,11.549 19.324 C 10.152 19.202,9.002 18.729,7.760 17.766 C 7.319 17.425,6.464 16.571,6.041 16.050 C 5.858 15.825,5.696 15.640,5.681 15.640 C 5.665 15.640,4.862 16.245,3.896 16.984 " stroke="none" fill="black" fill-rule="evenodd"></path></svg>