<svg role="img" viewBox="0 0 24 24" xmlns="http://www.w3.org/2000/svg"><path d="M17.680 4.282 C 14.721 5.247,12.277 6.037,12.250 6.038 C 12.211 6.040,12.200 5.666,12.200 4.296 C 12.200 2.917,12.190 2.555,12.150 2.570 C 12.123 2.580,9.467 3.441,6.250 4.484 L 0.400 6.379 0.400 11.472 L 0.400 16.565 0.490 16.537 C 0.540 16.522,2.820 15.783,5.558 14.895 C 8.296 14.007,10.551 13.280,10.568 13.280 C 10.585 13.280,10.604 14.060,10.610 15.013 L 10.620 16.746 17.280 14.589 C 20.943 13.402,23.948 12.424,23.958 12.414 C 23.968 12.405,23.165 11.583,22.174 10.588 L 20.371 8.780 21.765 5.662 C 22.532 3.948,23.160 2.539,23.160 2.532 C 23.160 2.499,22.705 2.644,17.680 4.282 M10.588 11.506 C 10.578 11.515,5.384 13.204,2.110 14.263 C 2.044 14.284,2.040 14.108,2.041 10.933 L 2.042 7.580 6.311 6.198 L 10.580 4.817 10.590 8.155 C 10.596 9.991,10.595 11.499,10.588 11.506 M20.240 5.227 C 20.240 5.242,19.835 6.122,19.340 7.183 C 18.845 8.244,18.440 9.125,18.440 9.141 C 18.440 9.158,19.009 9.731,19.704 10.415 L 20.969 11.660 16.614 13.071 C 14.219 13.847,12.247 14.481,12.230 14.481 C 12.197 14.480,12.187 7.800,12.220 7.800 C 12.241 7.800,16.560 6.396,18.860 5.641 C 20.283 5.174,20.240 5.187,20.240 5.227 M1.348 18.004 C 0.901 18.109,0.424 18.477,0.224 18.871 C -0.252 19.811,0.078 20.858,0.994 21.311 C 1.265 21.445,1.333 21.461,1.666 21.474 C 1.941 21.484,2.091 21.470,2.248 21.418 C 2.978 21.178,3.482 20.482,3.479 19.722 C 3.474 18.596,2.425 17.750,1.348 18.004 " stroke="none" fill="black" fill-rule="evenodd"></path></svg>