<svg role="img" viewBox="0 0 24 24" xmlns="http://www.w3.org/2000/svg"><path d="M5.240 0.044 C 4.385 0.131,3.312 0.404,2.768 0.673 C 1.998 1.053,1.383 1.765,1.122 2.579 C 0.658 4.029,0.606 5.795,0.980 7.454 C 1.240 8.614,2.020 9.575,3.029 9.982 C 3.982 10.366,5.481 10.571,6.686 10.482 C 7.924 10.390,9.159 10.099,9.730 9.763 C 10.570 9.271,11.031 8.601,11.326 7.446 C 11.336 7.410,10.839 7.159,9.802 6.677 C 8.957 6.284,8.261 5.966,8.257 5.971 C 8.252 5.976,8.219 6.097,8.183 6.240 C 8.036 6.816,7.758 7.204,7.329 7.431 C 7.015 7.597,6.708 7.653,6.120 7.651 C 4.903 7.647,4.391 7.297,4.113 6.280 C 4.032 5.983,4.020 5.852,4.022 5.240 C 4.024 4.595,4.033 4.512,4.134 4.185 C 4.309 3.613,4.556 3.304,5.024 3.067 C 5.327 2.915,5.685 2.867,6.315 2.892 C 6.995 2.920,7.180 2.965,7.492 3.174 C 7.951 3.482,8.137 3.888,8.246 4.820 L 8.294 5.240 9.925 5.240 C 10.822 5.240,11.562 5.226,11.571 5.210 C 11.579 5.193,11.572 4.946,11.555 4.660 C 11.516 4.024,11.359 3.151,11.193 2.652 C 10.880 1.708,10.093 0.866,9.208 0.528 C 8.807 0.375,8.030 0.182,7.480 0.099 C 6.964 0.022,5.753 -0.008,5.240 0.044 M17.100 0.027 C 16.384 0.090,15.394 0.301,14.801 0.517 C 13.734 0.907,13.043 1.672,12.741 2.800 C 12.341 4.291,12.325 6.011,12.696 7.520 C 12.949 8.547,13.616 9.409,14.500 9.850 C 15.015 10.108,15.996 10.354,16.860 10.442 C 18.057 10.565,20.010 10.323,20.998 9.931 C 21.762 9.627,22.376 9.048,22.726 8.300 C 22.978 7.762,23.218 6.566,23.264 5.619 C 23.318 4.518,23.080 3.002,22.742 2.291 C 22.271 1.299,21.552 0.700,20.453 0.384 C 19.359 0.069,18.126 -0.062,17.100 0.027 M18.431 2.881 C 18.825 2.945,19.099 3.066,19.332 3.279 C 19.746 3.658,19.936 4.286,19.938 5.280 C 19.939 5.950,19.871 6.304,19.664 6.712 C 19.448 7.139,19.007 7.470,18.530 7.565 C 18.202 7.630,17.388 7.631,17.060 7.566 C 16.558 7.468,16.140 7.161,15.947 6.750 C 15.748 6.325,15.663 5.874,15.664 5.240 C 15.665 4.154,15.928 3.497,16.512 3.126 C 16.694 3.011,17.011 2.901,17.260 2.868 C 17.512 2.834,18.191 2.842,18.431 2.881 M4.980 11.340 C 4.033 11.475,2.991 11.773,2.561 12.034 C 1.839 12.470,1.366 13.057,1.122 13.820 C 0.751 14.978,0.636 16.509,0.820 17.825 C 1.010 19.185,1.339 19.923,2.046 20.578 C 2.549 21.043,3.020 21.268,3.980 21.502 C 5.221 21.804,6.603 21.837,7.864 21.597 C 9.243 21.333,10.028 20.936,10.605 20.211 C 11.059 19.639,11.288 19.021,11.467 17.880 C 11.569 17.234,11.568 15.761,11.466 15.140 C 11.247 13.806,10.972 13.170,10.342 12.541 C 9.744 11.942,9.049 11.645,7.660 11.392 C 7.074 11.286,5.569 11.257,4.980 11.340 M17.060 11.425 C 16.000 11.535,14.687 11.876,14.127 12.187 C 13.417 12.581,12.853 13.373,12.623 14.300 C 12.341 15.436,12.321 15.841,12.320 20.270 L 12.320 24.000 13.979 24.000 L 15.637 24.000 15.650 19.970 C 15.663 15.963,15.663 15.938,15.751 15.610 C 15.908 15.019,16.150 14.670,16.573 14.422 C 16.884 14.240,17.159 14.185,17.780 14.184 C 18.423 14.182,18.719 14.235,19.053 14.411 C 19.453 14.622,19.672 14.947,19.847 15.584 C 19.974 16.048,19.974 17.080,19.847 17.538 C 19.728 17.969,19.628 18.163,19.393 18.420 C 19.145 18.691,18.809 18.862,18.400 18.924 C 18.035 18.980,17.267 18.947,16.962 18.863 C 16.842 18.830,16.741 18.807,16.738 18.811 C 16.735 18.816,16.981 19.504,17.284 20.340 L 17.835 21.860 18.208 21.850 C 18.697 21.837,19.191 21.776,19.780 21.654 C 21.054 21.390,21.577 21.148,22.123 20.574 C 22.562 20.110,22.773 19.713,22.957 19.000 C 23.179 18.139,23.220 17.763,23.219 16.620 C 23.219 15.709,23.207 15.516,23.126 15.062 C 22.999 14.353,22.867 13.920,22.659 13.529 C 22.030 12.344,21.137 11.819,19.200 11.498 C 18.834 11.437,17.409 11.388,17.060 11.425 M7.002 14.200 C 7.403 14.307,7.777 14.600,7.953 14.946 C 8.159 15.352,8.306 16.210,8.264 16.760 C 8.187 17.764,7.862 18.387,7.264 18.680 C 6.917 18.850,6.632 18.892,5.960 18.869 C 5.087 18.841,4.708 18.684,4.373 18.213 C 4.008 17.700,3.858 16.561,4.039 15.682 C 4.200 14.904,4.569 14.431,5.183 14.220 C 5.558 14.091,6.551 14.080,7.002 14.200 " stroke="none" fill="black" fill-rule="evenodd"></path></svg>