<svg viewBox="0 0 24 24" role="img" xmlns="http://www.w3.org/2000/svg"><path d="M7.235 2.996 L 2.020 5.989 2.020 12.000 L 2.020 18.011 7.235 21.004 C 11.829 23.640,12.461 23.992,12.535 23.952 C 12.582 23.928,13.817 23.221,15.280 22.381 C 16.743 21.541,19.080 20.201,20.472 19.402 L 23.005 17.950 22.977 14.625 C 22.962 12.796,22.939 10.106,22.925 8.646 L 22.900 5.992 21.560 5.223 C 14.858 1.377,12.608 0.086,12.535 0.048 C 12.461 0.008,11.832 0.358,7.235 2.996 M10.775 5.337 L 12.477 6.314 14.182 5.341 L 15.887 4.369 16.356 4.634 C 19.173 6.229,19.718 6.544,19.710 6.570 C 19.704 6.587,18.071 7.529,16.081 8.665 C 13.049 10.393,12.447 10.723,12.372 10.694 C 12.242 10.644,5.162 6.624,5.162 6.600 C 5.162 6.577,9.005 4.362,9.047 4.361 C 9.061 4.360,9.839 4.800,10.775 5.337 M7.840 10.610 L 11.380 12.623 11.390 16.755 C 11.397 19.451,11.387 20.882,11.361 20.873 C 11.339 20.866,10.449 20.356,9.382 19.740 L 7.441 18.620 7.441 16.860 L 7.440 15.100 5.760 14.167 L 4.080 13.233 4.080 10.856 L 4.080 8.478 4.190 8.537 C 4.251 8.570,5.893 9.502,7.840 10.610 M20.840 10.857 L 20.840 13.233 19.160 14.167 L 17.480 15.100 17.479 16.860 L 17.479 18.620 15.538 19.740 C 14.470 20.356,13.579 20.866,13.558 20.873 C 13.534 20.882,13.523 19.395,13.530 16.755 L 13.540 12.623 17.180 10.553 C 19.182 9.414,20.824 8.482,20.830 8.481 C 20.836 8.481,20.840 9.550,20.840 10.857 " stroke="none" fill="black" fill-rule="evenodd"></path></svg>