<svg role="img" xmlns="http://www.w3.org/2000/svg" viewBox="0 0 24 24"><path d="M10.940 0.046 C 6.260 0.450,2.189 3.634,0.659 8.086 C -0.838 12.440,0.267 17.227,3.520 20.480 C 6.775 23.735,11.549 24.836,15.919 23.339 C 20.058 21.921,23.121 18.292,23.836 13.960 C 24.678 8.851,22.168 3.802,17.580 1.376 C 15.589 0.323,13.221 -0.152,10.940 0.046 M15.751 6.953 C 18.308 8.659,19.263 9.316,19.321 9.411 C 19.397 9.536,19.400 9.623,19.400 12.000 C 19.400 14.377,19.397 14.464,19.321 14.589 C 19.263 14.684,18.306 15.343,15.751 17.049 L 12.260 19.380 12.000 19.380 L 11.740 19.380 8.249 17.049 C 5.694 15.343,4.737 14.684,4.679 14.589 C 4.603 14.464,4.600 14.377,4.600 12.000 C 4.600 9.623,4.603 9.536,4.679 9.411 C 4.737 9.316,5.686 8.663,8.229 6.967 C 10.138 5.695,11.727 4.642,11.760 4.628 C 11.793 4.614,11.919 4.607,12.040 4.613 C 12.258 4.625,12.288 4.644,15.751 6.953 M8.845 8.086 C 6.812 9.445,6.399 9.736,6.445 9.778 C 6.475 9.806,6.972 10.144,7.548 10.529 L 8.596 11.229 9.978 10.308 L 11.360 9.387 11.360 7.914 C 11.360 7.103,11.347 6.441,11.330 6.443 C 11.313 6.444,10.195 7.184,8.845 8.086 M12.640 7.914 L 12.640 9.387 14.027 10.311 L 15.413 11.235 16.457 10.532 C 17.031 10.146,17.525 9.806,17.555 9.778 C 17.601 9.736,17.186 9.444,15.145 8.084 C 13.790 7.180,12.671 6.440,12.660 6.440 C 12.649 6.440,12.640 7.103,12.640 7.914 M10.851 11.252 C 10.252 11.652,9.762 11.989,9.762 12.000 C 9.762 12.042,11.935 13.460,12.000 13.460 C 12.065 13.460,14.238 12.042,14.238 12.000 C 14.238 11.964,12.073 10.540,12.005 10.532 C 11.969 10.527,11.450 10.851,10.851 11.252 M5.840 12.000 C 5.840 12.572,5.853 13.040,5.869 13.040 C 5.908 13.040,7.438 12.026,7.438 12.000 C 7.438 11.974,5.908 10.960,5.869 10.960 C 5.853 10.960,5.840 11.428,5.840 12.000 M17.347 11.465 C 16.936 11.743,16.600 11.984,16.600 12.000 C 16.600 12.031,17.992 12.984,18.097 13.024 C 18.153 13.046,18.160 12.941,18.160 12.004 C 18.160 11.430,18.145 10.960,18.127 10.960 C 18.109 10.960,17.758 11.187,17.347 11.465 M7.523 13.485 C 6.942 13.877,6.449 14.215,6.428 14.236 C 6.405 14.259,7.311 14.887,8.855 15.917 C 10.211 16.821,11.329 17.560,11.340 17.560 C 11.351 17.560,11.360 16.897,11.360 16.086 L 11.360 14.613 10.070 13.754 C 9.361 13.281,8.735 12.867,8.680 12.833 C 8.582 12.774,8.555 12.789,7.523 13.485 M14.024 13.690 L 12.640 14.613 12.640 16.086 C 12.640 16.897,12.649 17.560,12.660 17.560 C 12.671 17.560,13.790 16.820,15.145 15.916 C 17.180 14.560,17.600 14.264,17.555 14.222 C 17.525 14.194,17.029 13.856,16.454 13.470 L 15.409 12.768 14.024 13.690 " stroke="none" fill="black" fill-rule="evenodd"></path></svg>