<svg role="img" xmlns="http://www.w3.org/2000/svg" viewBox="0 0 24 24"><path d="M10.243 0.455 C 10.005 0.680,9.847 0.800,9.788 0.800 C 9.738 0.800,9.598 0.765,9.476 0.722 C 9.186 0.620,8.508 0.572,8.297 0.639 C 8.190 0.672,8.038 0.791,7.820 1.011 C 7.556 1.277,7.395 1.393,6.902 1.677 C 6.218 2.069,6.092 2.198,5.962 2.632 C 5.873 2.932,5.722 3.108,5.391 3.298 C 5.287 3.358,5.114 3.503,5.006 3.621 C 4.848 3.793,4.796 3.889,4.739 4.108 C 4.645 4.462,4.620 4.509,4.467 4.602 C 4.367 4.663,4.266 4.680,3.996 4.680 C 3.807 4.680,3.565 4.707,3.456 4.740 C 3.348 4.772,3.254 4.799,3.246 4.800 C 3.239 4.800,3.154 4.719,3.058 4.620 C 2.779 4.333,2.635 4.399,2.780 4.746 C 2.896 5.025,2.867 5.124,2.556 5.487 C 2.195 5.911,2.170 5.930,2.010 5.900 C 1.886 5.877,1.880 5.882,1.880 6.003 C 1.880 6.176,1.760 6.358,1.542 6.514 C 1.268 6.711,1.161 6.926,1.120 7.362 C 1.086 7.727,1.019 7.880,0.895 7.880 C 0.809 7.880,0.564 8.118,0.448 8.315 C 0.352 8.479,0.341 8.537,0.347 8.827 C 0.351 9.013,0.389 9.285,0.436 9.456 C 0.527 9.788,0.524 9.806,0.332 10.097 C 0.153 10.367,0.080 10.631,0.081 10.997 C 0.083 11.498,0.288 11.904,0.661 12.142 L 0.871 12.276 0.850 12.975 C 0.830 13.638,0.833 13.682,0.914 13.819 C 1.017 13.993,1.021 14.072,0.936 14.193 C 0.853 14.312,0.884 14.379,1.059 14.462 C 1.241 14.549,1.360 14.699,1.360 14.844 C 1.360 14.927,1.318 14.990,1.199 15.085 C 0.973 15.267,0.935 15.421,1.015 15.823 C 1.050 15.997,1.097 16.328,1.119 16.559 C 1.162 16.988,1.161 16.986,1.429 17.357 C 1.485 17.435,1.500 17.540,1.502 17.877 C 1.504 18.359,1.546 18.477,1.789 18.678 C 1.872 18.746,2.042 18.840,2.167 18.885 C 2.486 19.002,2.548 19.084,2.617 19.473 C 2.731 20.129,3.066 20.452,3.800 20.617 C 4.177 20.702,4.326 20.790,4.591 21.082 C 4.888 21.410,5.151 21.530,5.622 21.552 C 5.873 21.564,6.060 21.549,6.235 21.504 C 6.573 21.418,6.607 21.421,6.737 21.557 C 6.888 21.715,6.967 21.741,7.635 21.861 C 7.951 21.917,8.275 21.997,8.355 22.038 C 8.573 22.151,8.892 22.401,9.226 22.720 C 9.563 23.043,9.711 23.120,9.996 23.120 C 10.264 23.120,10.368 23.166,10.570 23.372 C 10.724 23.530,10.772 23.554,11.077 23.619 C 11.305 23.667,11.491 23.682,11.650 23.665 C 11.820 23.648,11.925 23.658,12.032 23.704 C 12.684 23.982,13.371 23.922,13.746 23.554 C 13.928 23.375,13.913 23.377,14.400 23.482 C 14.692 23.544,15.184 23.509,15.410 23.409 C 15.593 23.328,15.741 23.154,15.910 22.820 C 16.039 22.566,16.104 22.528,16.460 22.500 C 16.636 22.486,16.900 22.439,17.046 22.397 C 17.270 22.332,17.341 22.289,17.490 22.122 C 17.771 21.810,17.997 21.405,18.041 21.136 C 18.111 20.700,18.135 20.672,18.472 20.619 C 18.677 20.587,18.926 20.408,19.110 20.159 C 19.371 19.807,19.380 19.800,19.578 19.800 C 19.760 19.800,19.764 19.797,19.842 19.615 C 19.886 19.513,19.973 19.364,20.036 19.285 C 20.098 19.205,20.188 19.064,20.235 18.971 C 20.282 18.879,20.355 18.784,20.398 18.761 C 20.440 18.739,20.615 18.719,20.787 18.718 C 21.271 18.714,21.343 18.675,21.515 18.320 C 21.632 18.078,21.702 17.989,21.876 17.860 C 22.191 17.627,22.596 17.212,22.620 17.098 C 22.631 17.044,22.649 16.955,22.661 16.900 C 22.674 16.835,22.758 16.749,22.897 16.657 C 23.059 16.549,23.145 16.453,23.246 16.267 C 23.379 16.021,23.380 16.018,23.380 15.472 L 23.380 14.924 23.607 14.721 C 24.020 14.354,24.094 13.926,23.857 13.288 L 23.750 12.998 23.821 12.661 C 23.952 12.034,23.832 11.395,23.525 11.088 C 23.443 11.007,23.288 10.867,23.180 10.777 L 22.982 10.614 22.956 10.017 C 22.926 9.355,22.904 9.272,22.708 9.052 C 22.530 8.854,22.496 8.781,22.465 8.537 C 22.443 8.366,22.455 8.304,22.540 8.145 C 22.668 7.902,22.678 7.562,22.560 7.370 C 22.517 7.298,22.462 7.240,22.439 7.240 C 22.415 7.240,22.372 7.182,22.342 7.110 C 22.297 7.001,22.298 6.916,22.345 6.580 C 22.376 6.360,22.391 6.135,22.378 6.081 C 22.365 6.027,22.280 5.914,22.190 5.831 C 22.052 5.703,22.022 5.647,21.998 5.468 C 21.965 5.228,21.618 4.460,21.492 4.349 C 21.447 4.310,21.315 4.266,21.197 4.252 C 20.925 4.220,20.800 4.107,20.799 3.892 C 20.798 3.679,20.676 3.434,20.468 3.226 C 20.156 2.914,20.131 2.905,19.510 2.881 C 18.976 2.860,18.949 2.855,18.874 2.760 C 18.356 2.105,18.301 2.063,17.860 1.979 C 17.472 1.904,17.160 1.905,16.880 1.980 C 16.579 2.061,16.498 2.056,16.135 1.935 C 15.871 1.846,15.720 1.825,15.206 1.804 L 14.591 1.779 14.186 1.355 C 13.844 0.998,13.748 0.920,13.576 0.864 C 13.349 0.790,13.220 0.675,13.179 0.512 C 13.134 0.332,13.070 0.309,12.919 0.421 C 12.774 0.527,12.623 0.544,12.400 0.479 C 12.323 0.456,12.062 0.422,11.820 0.403 C 11.476 0.376,11.329 0.344,11.147 0.260 C 11.019 0.200,10.845 0.142,10.761 0.131 C 10.612 0.111,10.593 0.123,10.243 0.455 M12.365 2.117 C 12.511 2.297,12.450 2.504,12.092 3.048 C 11.975 3.226,11.905 3.383,11.884 3.518 C 11.843 3.780,11.780 3.844,11.431 3.981 C 10.887 4.194,10.588 4.591,10.587 5.100 C 10.586 5.254,10.600 5.429,10.617 5.489 C 10.645 5.585,10.619 5.632,10.404 5.882 C 10.134 6.194,10.084 6.279,9.982 6.592 C 9.918 6.787,9.917 6.815,9.976 6.962 C 10.071 7.200,10.055 7.355,9.900 7.669 C 9.734 8.005,9.731 8.065,9.861 8.380 C 9.981 8.673,9.988 8.929,9.880 9.130 C 9.741 9.390,9.775 9.532,10.045 9.829 C 10.130 9.922,10.265 10.102,10.345 10.229 C 10.425 10.356,10.545 10.518,10.613 10.590 C 10.735 10.719,10.735 10.720,10.668 10.861 C 10.550 11.109,10.379 11.120,10.112 10.898 C 9.997 10.802,9.776 10.712,9.480 10.638 C 9.345 10.604,9.250 10.540,9.100 10.382 C 8.866 10.135,8.773 10.080,8.593 10.080 C 8.357 10.080,8.219 9.956,8.044 9.588 C 7.917 9.323,7.837 9.213,7.657 9.059 C 7.410 8.848,7.320 8.687,7.319 8.451 C 7.318 8.245,7.201 8.011,7.007 7.824 C 6.814 7.639,6.776 7.506,6.840 7.241 C 6.886 7.047,6.936 6.981,7.196 6.766 C 7.323 6.661,7.332 6.637,7.351 6.349 C 7.364 6.137,7.349 5.953,7.300 5.745 L 7.229 5.445 7.345 5.253 C 7.506 4.983,7.523 4.935,7.563 4.630 C 7.608 4.279,7.674 4.160,7.937 3.952 C 8.066 3.849,8.223 3.668,8.327 3.502 C 8.630 3.017,8.717 2.950,9.261 2.778 C 9.764 2.619,9.920 2.524,9.920 2.377 C 9.920 2.329,9.952 2.249,9.992 2.201 C 10.096 2.072,10.678 2.003,11.575 2.015 C 12.269 2.024,12.293 2.027,12.365 2.117 M16.607 4.141 C 17.057 4.409,17.374 4.447,17.897 4.297 C 18.147 4.225,18.201 4.257,18.373 4.579 C 18.553 4.918,18.691 5.000,19.079 5.000 C 19.436 5.000,19.491 5.039,19.641 5.391 C 19.750 5.648,20.063 5.946,20.263 5.983 C 20.436 6.016,20.472 6.080,20.450 6.314 C 20.435 6.474,20.459 6.554,20.618 6.880 C 20.752 7.155,20.800 7.299,20.792 7.400 L 20.780 7.540 20.560 7.534 C 20.435 7.530,20.180 7.474,19.971 7.404 C 19.538 7.258,19.450 7.253,19.250 7.360 C 19.168 7.404,19.083 7.440,19.061 7.440 C 18.925 7.439,18.693 7.336,18.563 7.218 C 18.336 7.013,18.173 6.960,17.771 6.961 C 17.335 6.962,17.116 7.011,16.870 7.162 C 16.651 7.297,16.606 7.302,16.360 7.216 C 16.009 7.094,15.335 7.258,15.060 7.532 C 14.868 7.723,14.755 7.760,14.359 7.760 C 14.044 7.760,13.977 7.786,13.746 7.996 C 13.684 8.053,13.580 8.203,13.516 8.328 C 13.413 8.533,13.383 8.561,13.230 8.600 C 13.137 8.623,13.021 8.659,12.974 8.679 C 12.875 8.720,12.542 9.127,12.269 9.540 C 11.947 10.028,11.947 10.028,11.818 9.959 C 11.652 9.870,11.601 9.708,11.649 9.417 C 11.684 9.201,11.679 9.155,11.604 9.009 C 11.503 8.810,11.498 8.662,11.585 8.455 C 11.656 8.285,11.680 7.777,11.626 7.579 C 11.596 7.468,11.606 7.449,11.747 7.359 C 11.958 7.223,12.045 7.024,12.070 6.618 C 12.095 6.226,12.129 6.180,12.419 6.149 C 12.585 6.131,12.641 6.102,12.765 5.969 C 12.906 5.818,12.939 5.740,13.042 5.325 C 13.104 5.077,13.222 4.975,13.484 4.943 C 13.603 4.929,13.785 4.907,13.889 4.895 C 14.020 4.880,14.129 4.832,14.246 4.739 C 14.339 4.666,14.472 4.595,14.542 4.582 C 14.611 4.569,14.748 4.507,14.844 4.444 C 14.991 4.349,15.078 4.326,15.375 4.304 C 15.755 4.277,15.935 4.214,16.082 4.058 C 16.133 4.004,16.203 3.960,16.238 3.960 C 16.274 3.960,16.440 4.042,16.607 4.141 M4.374 6.140 C 4.422 6.187,4.429 6.274,4.412 6.570 C 4.382 7.079,4.431 7.235,4.713 7.530 L 4.940 7.768 4.936 8.014 C 4.933 8.149,4.918 8.387,4.901 8.543 C 4.875 8.782,4.883 8.854,4.949 9.003 C 5.069 9.273,5.222 9.428,5.542 9.603 C 5.702 9.691,5.862 9.807,5.896 9.860 C 5.931 9.913,5.977 10.075,5.997 10.220 C 6.047 10.571,6.138 10.715,6.398 10.856 C 6.558 10.943,6.683 10.976,6.896 10.990 C 7.220 11.011,7.331 11.066,7.424 11.250 C 7.575 11.551,7.747 11.671,8.259 11.838 C 8.986 12.073,9.270 12.120,9.977 12.120 C 10.565 12.120,10.599 12.124,10.642 12.204 C 10.709 12.328,10.657 12.465,10.464 12.673 C 10.368 12.776,10.260 12.919,10.223 12.992 C 10.154 13.127,10.100 13.160,9.813 13.237 C 9.691 13.269,9.623 13.319,9.562 13.417 C 9.459 13.583,9.308 13.640,8.971 13.640 C 8.673 13.640,8.608 13.668,8.346 13.911 L 8.152 14.091 7.806 14.065 C 7.489 14.042,7.442 14.049,7.240 14.143 C 6.981 14.264,6.874 14.254,6.488 14.071 C 6.235 13.952,6.218 13.949,5.814 13.974 L 5.400 13.999 5.050 13.645 C 4.716 13.307,4.685 13.287,4.360 13.181 C 4.173 13.120,3.990 13.043,3.953 13.011 C 3.915 12.978,3.855 12.809,3.817 12.626 C 3.752 12.314,3.738 12.290,3.518 12.076 C 3.391 11.953,3.168 11.791,3.023 11.716 C 2.840 11.622,2.750 11.551,2.734 11.486 C 2.720 11.435,2.743 11.192,2.783 10.946 C 2.851 10.530,2.866 10.491,2.995 10.371 C 3.072 10.299,3.121 10.227,3.105 10.211 C 3.089 10.194,2.947 10.117,2.788 10.040 C 2.452 9.877,2.437 9.840,2.537 9.400 C 2.572 9.248,2.600 9.000,2.600 8.847 C 2.600 8.441,2.631 8.342,2.822 8.140 C 2.996 7.956,3.078 7.770,3.163 7.366 C 3.201 7.187,3.251 7.104,3.468 6.868 C 3.611 6.713,3.782 6.490,3.848 6.373 C 3.914 6.255,3.998 6.142,4.034 6.121 C 4.133 6.063,4.307 6.072,4.374 6.140 M17.109 9.142 C 17.258 9.199,17.515 9.257,17.680 9.272 L 17.980 9.300 17.967 9.527 C 17.953 9.761,18.005 9.920,18.094 9.920 C 18.123 9.920,18.190 9.873,18.243 9.816 C 18.403 9.644,18.491 9.630,18.729 9.741 C 18.845 9.795,18.985 9.840,19.040 9.840 C 19.182 9.842,19.439 9.968,19.580 10.104 C 19.646 10.168,19.885 10.439,20.111 10.707 C 20.533 11.206,20.635 11.280,20.902 11.280 C 20.973 11.280,21.074 11.314,21.126 11.356 C 21.214 11.428,21.221 11.465,21.241 11.986 C 21.265 12.613,21.326 12.801,21.548 12.940 C 21.716 13.044,21.714 13.136,21.538 13.473 L 21.396 13.744 21.442 14.117 C 21.467 14.322,21.513 14.562,21.544 14.650 C 21.654 14.962,21.595 15.161,21.286 15.531 C 21.198 15.636,21.114 15.776,21.099 15.842 C 21.082 15.924,21.022 15.996,20.917 16.062 C 20.754 16.165,20.626 16.375,20.504 16.740 C 20.423 16.984,20.384 17.035,20.181 17.173 C 19.981 17.307,19.827 17.310,19.698 17.182 C 19.585 17.068,19.577 16.986,19.660 16.786 C 19.730 16.620,19.738 16.247,19.678 16.029 C 19.623 15.832,19.448 15.637,19.220 15.516 C 19.005 15.403,18.970 15.311,19.034 15.032 C 19.131 14.614,19.063 14.326,18.798 14.024 C 18.660 13.866,18.306 13.641,18.195 13.640 C 18.160 13.640,18.086 13.605,18.031 13.562 C 17.946 13.494,17.928 13.440,17.905 13.166 C 17.874 12.794,17.825 12.629,17.692 12.450 C 17.554 12.263,17.322 12.159,16.986 12.132 C 16.829 12.119,16.677 12.091,16.650 12.069 C 16.622 12.048,16.588 11.959,16.574 11.873 C 16.544 11.682,16.412 11.477,16.279 11.413 C 16.224 11.387,16.027 11.335,15.840 11.298 C 15.610 11.252,15.429 11.187,15.279 11.095 C 14.981 10.912,14.840 10.877,14.440 10.884 C 14.215 10.888,14.054 10.869,13.965 10.830 C 13.853 10.781,13.802 10.779,13.665 10.820 C 13.477 10.877,13.346 10.844,13.283 10.725 C 13.215 10.599,13.230 10.546,13.390 10.340 C 13.505 10.191,13.614 10.110,13.860 9.991 C 14.036 9.906,14.256 9.791,14.348 9.736 C 14.440 9.681,14.624 9.619,14.756 9.598 C 14.888 9.576,15.127 9.496,15.287 9.419 C 15.539 9.298,15.617 9.280,15.879 9.280 C 16.133 9.280,16.217 9.261,16.420 9.160 C 16.712 9.014,16.766 9.013,17.109 9.142 M13.440 12.200 C 13.596 12.346,13.627 12.348,13.727 12.220 C 13.770 12.165,13.827 12.120,13.853 12.120 C 13.932 12.120,14.434 12.473,14.481 12.562 C 14.505 12.607,14.529 12.710,14.534 12.792 C 14.545 12.966,14.629 13.002,14.739 12.881 C 14.831 12.779,14.925 12.778,15.046 12.879 C 15.098 12.922,15.284 13.005,15.460 13.064 C 15.636 13.123,15.800 13.187,15.825 13.206 C 15.850 13.225,15.891 13.347,15.916 13.476 C 15.973 13.764,16.130 13.991,16.370 14.132 C 16.590 14.261,16.668 14.415,16.700 14.782 C 16.740 15.241,16.792 15.382,16.988 15.570 C 17.264 15.834,17.266 15.845,17.102 16.161 C 16.877 16.596,16.870 17.082,17.084 17.354 C 17.218 17.524,17.183 17.644,16.894 18.006 C 16.525 18.469,16.468 18.611,16.451 19.100 C 16.443 19.320,16.428 19.540,16.418 19.589 C 16.396 19.692,16.212 19.800,16.060 19.800 C 15.758 19.800,15.367 20.234,15.187 20.768 C 15.146 20.889,14.984 20.957,14.649 20.994 C 14.370 21.026,14.276 21.057,14.039 21.198 C 13.885 21.289,13.688 21.438,13.602 21.527 C 13.466 21.669,13.430 21.686,13.333 21.661 C 13.147 21.612,12.762 21.591,12.578 21.618 C 12.483 21.633,12.337 21.691,12.253 21.747 C 12.107 21.846,12.093 21.848,11.901 21.797 C 11.790 21.768,11.520 21.743,11.300 21.742 C 10.934 21.740,10.877 21.729,10.627 21.611 C 10.477 21.539,10.238 21.461,10.096 21.436 C 9.835 21.391,9.680 21.276,9.680 21.129 C 9.680 21.067,9.825 21.070,10.468 21.145 C 10.582 21.159,10.719 21.159,10.772 21.146 C 10.886 21.117,11.472 20.530,11.567 20.348 C 11.604 20.278,11.656 20.094,11.682 19.940 C 11.708 19.786,11.745 19.629,11.765 19.592 C 11.785 19.555,11.929 19.457,12.086 19.374 C 12.658 19.073,12.959 18.689,13.080 18.102 C 13.137 17.825,13.203 17.710,13.339 17.648 C 13.460 17.593,13.622 17.342,13.729 17.044 C 13.806 16.829,13.827 16.468,13.792 15.984 C 13.781 15.839,13.789 15.825,13.914 15.782 C 14.136 15.707,14.165 15.633,14.136 15.221 C 14.112 14.880,14.066 14.726,13.901 14.441 C 13.860 14.371,13.850 14.275,13.866 14.120 C 13.879 13.998,13.868 13.795,13.842 13.668 C 13.801 13.472,13.763 13.408,13.597 13.248 C 13.403 13.062,13.399 13.052,13.320 12.640 C 13.202 12.019,13.211 11.986,13.440 12.200 M12.115 13.136 C 12.148 13.207,12.174 13.418,12.180 13.676 C 12.189 14.017,12.208 14.135,12.279 14.280 L 12.367 14.461 12.183 14.811 C 12.083 15.004,12.000 15.196,12.000 15.237 C 12.000 15.279,12.038 15.412,12.084 15.533 C 12.178 15.779,12.173 15.799,11.929 16.122 C 11.854 16.220,11.755 16.435,11.699 16.621 C 11.587 16.987,11.533 17.049,11.168 17.241 C 10.869 17.398,10.773 17.519,10.719 17.807 C 10.633 18.270,10.535 18.363,10.102 18.388 C 9.687 18.412,9.664 18.421,9.396 18.660 C 9.261 18.781,9.031 18.938,8.886 19.010 C 8.636 19.133,8.596 19.140,8.161 19.144 C 7.907 19.146,7.607 19.161,7.493 19.177 C 7.362 19.196,7.257 19.190,7.204 19.162 C 7.083 19.097,7.000 18.910,7.000 18.702 C 7.000 18.548,6.988 18.520,6.921 18.520 C 6.809 18.520,6.760 18.640,6.760 18.915 C 6.760 19.079,6.740 19.174,6.697 19.217 C 6.616 19.298,6.589 19.296,6.399 19.200 C 6.312 19.155,6.099 19.085,5.924 19.043 C 5.512 18.945,5.472 18.920,5.398 18.713 C 5.337 18.542,5.335 18.540,5.166 18.554 C 5.008 18.566,4.979 18.552,4.784 18.367 C 4.584 18.178,4.379 18.081,4.179 18.080 C 4.050 18.080,3.935 17.976,3.799 17.738 C 3.730 17.617,3.534 17.367,3.364 17.184 L 3.055 16.851 3.057 16.371 C 3.061 15.786,3.085 15.740,3.369 15.774 C 3.475 15.786,3.601 15.824,3.650 15.858 C 3.797 15.961,4.088 15.929,4.705 15.739 C 4.773 15.719,4.825 15.754,4.965 15.918 C 5.260 16.261,5.373 16.319,5.885 16.386 C 6.294 16.439,6.352 16.439,6.505 16.380 C 6.600 16.344,6.720 16.256,6.779 16.178 C 6.902 16.017,6.960 16.010,7.407 16.106 C 7.663 16.161,7.769 16.165,8.024 16.130 C 8.324 16.087,8.337 16.081,8.565 15.856 L 8.798 15.625 9.218 15.574 C 9.448 15.546,9.690 15.496,9.755 15.463 C 9.947 15.363,10.158 15.139,10.185 15.007 C 10.214 14.860,10.292 14.786,10.481 14.725 C 10.797 14.624,11.041 14.321,11.096 13.961 C 11.134 13.718,11.213 13.640,11.423 13.640 C 11.560 13.640,11.611 13.619,11.677 13.535 C 11.723 13.477,11.760 13.404,11.760 13.373 C 11.760 13.342,11.797 13.244,11.842 13.156 C 11.938 12.968,12.031 12.962,12.115 13.136 " stroke="none" fill="black" fill-rule="evenodd"></path></svg>