<svg role="img" viewBox="0 0 24 24" xmlns="http://www.w3.org/2000/svg"><path d="M11.307 0.060 C 10.612 0.173,9.947 0.409,9.741 0.615 L 9.640 0.716 9.640 1.803 L 9.640 2.889 9.730 2.867 C 9.894 2.827,10.534 2.725,10.940 2.675 C 11.796 2.569,13.521 2.651,14.330 2.837 L 14.480 2.872 14.480 1.779 L 14.480 0.686 14.332 0.564 C 13.850 0.166,12.269 -0.097,11.307 0.060 M10.880 3.864 C 9.249 4.059,7.197 4.627,7.037 4.926 C 7.015 4.968,7.003 5.528,7.009 6.276 L 7.020 7.556 7.454 7.275 C 8.755 6.432,10.467 5.603,11.748 5.197 C 12.030 5.107,12.040 5.107,12.283 5.174 C 13.625 5.548,15.689 6.527,16.921 7.376 L 17.240 7.596 17.240 6.258 L 17.240 4.921 17.090 4.822 C 16.572 4.481,14.768 4.030,13.240 3.861 C 12.583 3.788,11.502 3.789,10.880 3.864 M11.634 6.519 C 10.861 6.779,9.600 7.365,8.640 7.911 C 7.785 8.398,6.565 9.260,5.923 9.832 L 5.705 10.026 6.026 10.389 C 6.737 11.195,7.354 12.197,7.833 13.322 C 7.993 13.700,8.360 14.734,8.360 14.809 C 8.360 14.830,8.271 14.767,8.162 14.670 C 7.628 14.189,6.602 13.623,5.900 13.420 C 4.855 13.118,3.796 13.134,2.780 13.466 C 1.977 13.729,1.029 14.291,0.373 14.891 L 0.207 15.044 0.379 15.552 C 0.711 16.528,1.028 17.220,1.502 18.005 C 3.718 21.665,7.841 24.002,12.080 23.999 C 16.457 23.997,20.610 21.574,22.813 17.738 C 23.229 17.012,23.876 15.511,23.827 15.383 C 23.817 15.357,23.559 15.164,23.254 14.954 C 21.825 13.968,20.526 13.260,19.505 12.910 C 19.201 12.806,19.077 12.785,18.760 12.782 C 18.417 12.780,18.358 12.791,18.160 12.894 C 17.777 13.093,17.523 13.310,16.590 14.235 C 16.090 14.730,15.680 15.114,15.680 15.087 C 15.680 14.992,15.966 14.156,16.160 13.684 C 16.683 12.411,17.447 11.172,18.241 10.308 L 18.491 10.035 18.356 9.917 C 16.732 8.495,14.776 7.310,12.989 6.665 C 12.076 6.335,12.157 6.343,11.634 6.519 M12.631 11.613 C 12.584 12.501,12.492 13.526,12.337 14.920 C 12.213 16.031,12.105 16.947,12.096 16.957 C 12.087 16.966,12.072 16.965,12.061 16.955 C 12.051 16.944,11.933 16.073,11.800 15.018 C 11.585 13.319,11.549 12.940,11.492 11.700 L 11.427 10.300 11.736 8.880 C 11.906 8.099,12.056 7.424,12.069 7.380 C 12.084 7.334,12.224 7.945,12.398 8.813 L 12.701 10.327 12.631 11.613 " stroke="none" fill="black" fill-rule="evenodd"></path></svg>