<svg role="img" viewBox="0 0 24 24" xmlns="http://www.w3.org/2000/svg"><path d="M2.220 0.057 C 1.014 0.335,0.195 1.302,0.132 2.520 C 0.095 3.233,0.330 3.898,0.802 4.413 C 1.380 5.043,2.023 5.308,2.887 5.272 C 3.731 5.236,4.462 4.817,4.942 4.095 C 5.307 3.544,5.451 2.734,5.302 2.065 C 5.104 1.173,4.412 0.413,3.545 0.137 C 3.144 0.009,2.575 -0.026,2.220 0.057 M10.760 0.062 C 10.617 0.093,10.347 0.193,10.160 0.285 C 9.886 0.419,9.754 0.518,9.479 0.796 C 8.900 1.380,8.698 1.916,8.730 2.780 C 8.745 3.165,8.768 3.313,8.849 3.530 C 8.996 3.922,9.185 4.217,9.481 4.516 C 9.932 4.971,10.442 5.210,11.113 5.283 C 11.367 5.310,13.242 5.320,16.560 5.311 C 21.214 5.299,21.639 5.292,21.860 5.228 C 23.378 4.791,24.201 3.307,23.738 1.842 C 23.455 0.946,22.695 0.255,21.779 0.060 C 21.375 -0.025,11.159 -0.024,10.760 0.062 M2.089 9.441 C 1.239 9.663,0.532 10.331,0.253 11.175 C 0.159 11.458,0.145 11.565,0.145 12.000 C 0.145 12.435,0.159 12.542,0.253 12.825 C 0.766 14.377,2.517 15.087,3.972 14.333 C 4.363 14.130,4.850 13.643,5.053 13.252 C 5.357 12.666,5.440 11.967,5.281 11.344 C 5.158 10.864,4.952 10.509,4.582 10.138 C 3.910 9.466,2.982 9.207,2.089 9.441 M10.820 9.401 C 10.548 9.455,10.128 9.630,9.889 9.789 C 9.411 10.106,9.051 10.568,8.847 11.127 C 8.750 11.392,8.740 11.473,8.740 11.980 C 8.740 12.463,8.753 12.580,8.836 12.832 C 8.961 13.215,9.164 13.545,9.459 13.842 C 9.767 14.154,10.045 14.337,10.452 14.494 L 10.780 14.620 14.020 14.632 C 17.654 14.645,17.571 14.650,18.152 14.359 C 18.753 14.059,19.252 13.476,19.467 12.825 C 19.561 12.542,19.575 12.435,19.575 12.000 C 19.575 11.565,19.561 11.458,19.467 11.175 C 19.185 10.323,18.477 9.659,17.616 9.439 C 17.321 9.363,17.169 9.360,14.144 9.364 C 12.404 9.367,10.908 9.383,10.820 9.401 M2.120 18.778 C 1.383 18.964,0.729 19.496,0.400 20.176 C 0.183 20.623,0.107 20.996,0.132 21.480 C 0.189 22.594,0.877 23.495,1.956 23.870 C 2.220 23.962,2.323 23.976,2.740 23.975 C 3.152 23.974,3.266 23.959,3.545 23.867 C 4.416 23.580,5.105 22.822,5.302 21.938 C 5.405 21.475,5.367 20.885,5.208 20.452 C 4.925 19.684,4.362 19.124,3.593 18.849 C 3.349 18.762,3.219 18.742,2.820 18.733 C 2.508 18.726,2.263 18.742,2.120 18.778 " stroke="none" fill="black" fill-rule="evenodd"></path></svg>