<svg role="img" xmlns="http://www.w3.org/2000/svg" viewBox="0 0 24 24"><path d="M18.626 0.302 C 18.292 0.425,17.871 0.786,17.440 1.320 C 16.698 2.240,16.518 2.478,16.182 2.980 C 14.904 4.893,14.048 7.126,13.746 9.340 C 13.634 10.163,13.634 10.160,13.711 10.161 C 13.870 10.162,14.476 10.410,14.794 10.604 L 15.136 10.813 15.548 10.384 C 16.272 9.630,17.226 8.361,17.664 7.570 C 17.728 7.455,17.796 7.360,17.816 7.360 C 17.914 7.360,18.553 7.873,18.962 8.280 C 19.968 9.282,20.603 10.556,20.845 12.060 C 20.911 12.467,20.910 13.562,20.845 13.980 C 20.817 14.156,20.759 14.442,20.717 14.616 C 20.674 14.790,20.645 14.938,20.652 14.945 C 20.673 14.966,20.875 14.418,20.979 14.061 C 21.179 13.368,21.219 13.044,21.219 12.080 C 21.219 11.307,21.206 11.117,21.130 10.737 C 20.976 9.977,20.651 9.069,20.271 8.340 C 19.999 7.820,19.308 6.973,18.777 6.511 C 18.569 6.330,18.404 6.171,18.410 6.157 C 18.415 6.143,18.509 5.908,18.619 5.636 C 18.728 5.363,18.820 5.135,18.822 5.130 C 18.834 5.105,19.435 5.457,19.710 5.650 C 20.929 6.505,21.857 7.593,22.539 8.967 C 23.220 10.340,23.516 11.739,23.469 13.360 C 23.433 14.553,23.173 15.689,22.685 16.780 C 22.471 17.258,22.691 16.919,22.996 16.300 C 23.381 15.519,23.580 14.952,23.775 14.076 C 23.934 13.363,23.977 12.925,23.977 12.020 C 23.977 11.045,23.917 10.562,23.673 9.600 C 23.095 7.315,21.625 5.247,19.584 3.847 C 19.413 3.730,19.282 3.613,19.292 3.587 C 19.389 3.333,19.720 1.521,19.720 1.243 C 19.720 0.503,19.229 0.081,18.626 0.302 M11.360 2.663 C 10.003 2.837,8.524 3.372,7.337 4.118 C 4.951 5.617,3.231 8.300,2.899 11.040 C 2.866 11.315,2.829 11.615,2.817 11.706 C 2.800 11.846,2.779 11.876,2.688 11.898 C 2.427 11.960,1.238 12.338,1.020 12.429 C 0.674 12.573,0.270 12.853,0.141 13.038 C -0.226 13.569,0.169 14.098,1.128 14.358 C 1.507 14.461,2.749 14.664,3.484 14.743 C 4.163 14.817,5.721 14.826,6.400 14.761 C 7.948 14.614,9.624 14.212,10.854 13.694 C 10.989 13.637,11.138 13.576,11.185 13.558 C 11.269 13.526,11.270 13.522,11.208 13.273 C 11.167 13.109,11.145 12.828,11.143 12.474 L 11.141 11.927 10.561 11.785 C 9.426 11.507,8.539 11.381,7.374 11.334 L 6.727 11.308 6.748 11.084 C 6.895 9.475,7.764 7.847,9.054 6.764 C 9.799 6.138,10.770 5.628,11.723 5.361 L 12.020 5.278 11.740 5.301 C 10.444 5.408,8.947 6.092,7.764 7.118 C 6.694 8.045,5.781 9.628,5.500 11.042 L 5.432 11.383 4.907 11.450 C 4.619 11.486,4.377 11.510,4.370 11.503 C 4.362 11.496,4.356 11.276,4.356 11.014 C 4.353 9.916,4.662 8.740,5.264 7.560 C 6.341 5.445,8.259 3.837,10.640 3.053 C 11.190 2.872,12.137 2.680,12.740 2.627 C 12.828 2.620,12.648 2.612,12.340 2.611 C 12.032 2.610,11.591 2.633,11.360 2.663 M13.185 10.644 C 12.940 10.702,12.509 10.947,12.330 11.131 C 11.985 11.484,11.760 12.021,11.760 12.489 C 11.760 12.917,11.982 13.450,12.292 13.765 C 12.528 14.004,12.703 14.119,13.005 14.231 C 14.210 14.680,15.520 13.769,15.520 12.481 C 15.520 11.639,14.968 10.900,14.163 10.664 C 13.928 10.595,13.438 10.585,13.185 10.644 M15.297 14.154 C 15.072 14.365,14.494 14.749,14.307 14.811 C 14.240 14.833,14.545 15.826,14.879 16.674 C 15.080 17.185,15.630 18.326,15.897 18.785 L 16.039 19.029 15.687 19.190 C 14.685 19.649,13.698 19.826,12.535 19.755 C 10.928 19.657,9.455 19.004,8.223 17.843 L 7.986 17.620 8.122 17.800 C 8.761 18.648,9.730 19.424,10.769 19.918 C 12.514 20.749,14.435 20.865,16.309 20.254 L 16.770 20.104 16.855 20.222 C 16.901 20.287,17.054 20.482,17.194 20.656 L 17.449 20.973 17.354 21.046 C 17.186 21.177,16.498 21.516,16.024 21.701 C 15.024 22.092,13.967 22.290,12.860 22.293 C 11.173 22.297,9.639 21.867,8.100 20.958 C 7.224 20.440,6.207 19.540,5.602 18.746 C 5.441 18.534,5.302 18.360,5.295 18.360 C 5.287 18.360,5.355 18.482,5.446 18.630 C 5.978 19.501,6.606 20.247,7.340 20.877 C 8.780 22.114,10.333 22.841,12.239 23.170 C 12.929 23.288,14.552 23.298,15.220 23.187 C 16.349 22.999,17.231 22.722,18.097 22.282 L 18.493 22.081 18.719 22.290 C 19.872 23.365,20.373 23.703,20.875 23.749 C 21.196 23.778,21.400 23.667,21.540 23.385 C 21.770 22.923,21.626 22.254,20.939 20.580 C 20.151 18.660,18.723 16.600,17.237 15.238 C 16.604 14.659,15.866 14.053,15.620 13.912 C 15.598 13.899,15.453 14.008,15.297 14.154 " stroke="none" fill="black" fill-rule="evenodd"></path></svg>