<svg role="img" viewBox="0 0 24 24" xmlns="http://www.w3.org/2000/svg"><path d="M18.025 0.339 C 17.792 0.422,17.681 0.553,17.316 1.173 C 15.874 3.624,14.892 4.384,13.263 4.308 C 12.702 4.281,12.370 4.215,11.681 3.992 C 10.828 3.715,10.625 3.624,6.912 1.866 C 4.529 0.737,4.307 0.640,4.112 0.640 C 3.855 0.640,3.664 0.730,3.518 0.920 C 3.459 0.997,2.867 2.293,2.202 3.800 L 0.992 6.540 1.008 6.789 C 1.034 7.207,1.097 7.259,2.264 7.814 C 2.812 8.075,4.034 8.658,4.980 9.110 C 7.867 10.488,8.723 10.842,10.120 11.235 C 13.588 12.212,16.483 11.902,18.940 10.290 C 20.674 9.153,21.973 7.674,23.584 5.004 C 23.971 4.363,23.980 4.342,23.979 4.104 C 23.979 3.814,23.879 3.623,23.650 3.471 C 23.037 3.066,18.567 0.345,18.467 0.316 C 18.299 0.268,18.210 0.273,18.025 0.339 M9.220 12.245 C 7.791 12.379,6.279 12.913,5.055 13.714 C 3.342 14.836,2.010 16.347,0.443 18.950 C 0.102 19.517,0.025 19.674,0.009 19.837 C -0.016 20.102,0.108 20.360,0.334 20.515 C 0.956 20.941,5.448 23.660,5.580 23.691 C 5.789 23.740,6.040 23.673,6.213 23.521 C 6.286 23.457,6.568 23.035,6.840 22.582 C 7.439 21.585,7.847 21.033,8.295 20.614 C 9.029 19.927,9.763 19.647,10.718 19.691 C 11.269 19.715,11.648 19.791,12.320 20.009 C 13.068 20.251,13.628 20.499,16.800 21.994 C 19.522 23.276,19.714 23.360,19.922 23.360 C 20.236 23.360,20.474 23.206,20.611 22.914 C 21.017 22.050,23.012 17.476,23.029 17.372 C 23.061 17.178,22.968 16.900,22.822 16.751 C 22.731 16.658,22.269 16.419,21.237 15.932 C 20.436 15.553,19.140 14.939,18.359 14.566 C 16.433 13.647,15.648 13.318,14.480 12.942 C 12.614 12.339,10.787 12.097,9.220 12.245 " stroke="none" fill="black" fill-rule="evenodd"></path></svg>