<svg role="img" xmlns="http://www.w3.org/2000/svg" viewBox="0 0 24 24"><path d="M0.000 12.000 L 0.000 24.000 12.000 24.000 L 24.000 24.000 24.000 12.000 L 24.000 0.000 12.000 0.000 L 0.000 0.000 0.000 12.000 M13.201 5.826 L 14.357 9.300 17.268 9.330 C 18.870 9.346,20.542 9.373,20.984 9.390 L 21.787 9.420 19.827 10.840 C 16.936 12.935,15.902 13.711,15.888 13.794 C 15.881 13.834,16.022 14.334,16.201 14.904 C 16.491 15.830,17.737 19.729,17.980 20.470 C 18.032 20.630,18.062 20.760,18.047 20.760 C 18.032 20.760,16.796 19.886,15.300 18.817 C 13.804 17.749,12.460 16.793,12.314 16.693 L 12.049 16.512 11.734 16.724 C 11.266 17.039,10.171 17.811,8.087 19.296 C 7.060 20.027,6.168 20.660,6.103 20.702 L 5.987 20.778 6.016 20.659 C 6.032 20.594,6.402 19.424,6.839 18.060 C 7.613 15.648,8.008 14.400,8.134 13.969 L 8.196 13.759 7.568 13.287 C 7.083 12.922,4.354 10.933,2.468 9.569 C 2.363 9.493,2.286 9.421,2.297 9.410 C 2.308 9.398,3.978 9.369,6.007 9.344 L 9.696 9.300 10.853 5.808 C 11.489 3.888,12.018 2.325,12.028 2.334 C 12.038 2.344,12.566 3.915,13.201 5.826 " stroke="none" fill="black" fill-rule="evenodd"></path></svg>