<svg role="img" viewBox="0 0 24 24" xmlns="http://www.w3.org/2000/svg"><path d="M10.940 0.046 C 6.261 0.450,2.189 3.634,0.659 8.086 C -1.240 13.609,1.090 19.665,6.209 22.510 C 7.945 23.475,10.042 24.009,12.040 23.995 L 12.580 23.992 12.180 23.937 C 9.776 23.610,7.603 22.517,5.940 20.795 C 5.386 20.222,5.131 19.907,4.700 19.261 C 3.698 17.761,3.102 16.000,2.961 14.120 C 2.908 13.417,2.909 11.982,2.962 11.488 C 3.324 8.160,5.292 5.160,8.220 3.477 C 11.241 1.739,14.950 1.627,18.100 3.178 C 19.201 3.720,20.047 4.325,20.901 5.179 C 21.761 6.039,22.354 6.869,22.902 7.980 C 23.486 9.165,23.819 10.330,23.960 11.680 C 23.991 11.973,23.993 11.943,23.976 11.461 C 23.895 9.094,23.047 6.729,21.584 4.785 C 19.297 1.747,15.708 -0.028,11.920 0.006 C 11.601 0.009,11.160 0.027,10.940 0.046 M13.140 5.644 C 11.574 5.809,10.089 6.407,8.840 7.375 C 8.458 7.671,7.752 8.370,7.443 8.760 C 6.528 9.912,5.976 11.145,5.716 12.620 C 5.594 13.313,5.583 14.589,5.694 15.260 C 6.007 17.150,6.809 18.700,8.147 20.002 C 8.636 20.478,8.947 20.730,9.440 21.050 C 12.371 22.953,16.217 22.823,19.027 20.726 C 19.474 20.392,20.208 19.681,20.559 19.240 C 21.459 18.110,22.028 16.836,22.282 15.380 C 22.428 14.543,22.429 12.903,22.284 12.511 C 22.258 12.438,22.239 12.450,22.111 12.625 C 21.681 13.211,20.961 13.695,20.220 13.898 C 19.885 13.990,19.091 14.023,18.676 13.962 C 17.005 13.718,15.713 12.483,15.395 10.827 C 15.369 10.691,15.349 10.364,15.350 10.100 C 15.358 8.627,16.224 7.286,17.570 6.660 L 17.860 6.525 17.474 6.342 C 16.210 5.742,14.631 5.487,13.140 5.644 " stroke="none" fill="black" fill-rule="evenodd"></path></svg>