<svg viewBox="0 0 24 24" xmlns="http://www.w3.org/2000/svg" role="img"><path d="M6.320 5.620 C 6.320 5.631,6.401 5.984,6.500 6.404 C 6.599 6.825,6.680 7.185,6.680 7.204 C 6.680 7.225,5.270 7.240,3.341 7.240 L 0.002 7.240 0.027 7.370 C 0.153 8.018,0.823 8.891,1.580 9.394 C 2.868 10.248,4.963 10.787,7.658 10.959 C 8.009 10.982,8.307 11.013,8.321 11.030 C 8.335 11.046,8.614 11.784,8.943 12.669 L 9.539 14.277 9.879 14.289 L 10.218 14.300 10.389 14.760 C 10.483 15.013,10.570 15.252,10.583 15.290 C 10.603 15.352,10.574 15.360,10.324 15.360 L 10.043 15.360 9.960 15.630 C 9.914 15.778,9.706 16.451,9.498 17.123 C 9.290 17.796,9.120 18.359,9.120 18.373 C 9.120 18.388,11.208 18.400,13.760 18.400 C 16.312 18.400,18.400 18.389,18.400 18.376 C 18.400 18.357,17.702 16.081,17.515 15.490 L 17.474 15.360 17.197 15.360 C 17.045 15.360,16.921 15.347,16.922 15.330 C 16.923 15.313,17.009 15.075,17.113 14.800 L 17.302 14.300 17.637 14.280 L 17.972 14.260 18.065 13.840 C 18.376 12.443,18.901 11.120,19.505 10.210 C 20.304 9.007,22.002 7.931,23.617 7.605 L 23.980 7.532 23.991 6.566 L 24.001 5.600 15.161 5.600 C 10.298 5.600,6.320 5.609,6.320 5.620 M14.996 6.956 C 14.455 7.167,14.162 7.577,14.160 8.123 C 14.160 8.495,14.276 8.768,14.672 9.320 C 14.883 9.613,15.044 9.896,15.095 10.063 C 15.118 10.135,15.104 10.147,15.001 10.147 C 14.799 10.147,14.600 10.392,14.600 10.641 C 14.600 10.726,14.638 10.804,14.717 10.883 C 14.931 11.097,15.228 11.007,15.303 10.705 C 15.323 10.625,15.340 10.607,15.360 10.645 C 15.477 10.863,15.416 11.256,15.217 11.577 C 15.153 11.682,15.060 11.833,15.011 11.914 C 14.878 12.131,14.882 12.526,15.018 12.662 C 15.127 12.771,15.182 12.780,15.347 12.717 C 15.587 12.626,15.782 12.346,15.825 12.026 C 15.847 11.870,15.820 11.736,15.695 11.360 C 15.684 11.327,15.750 11.380,15.841 11.478 C 15.932 11.577,16.081 11.811,16.173 11.998 C 16.333 12.325,16.340 12.356,16.337 12.700 C 16.334 13.110,16.250 13.366,16.016 13.685 C 15.816 13.958,15.571 14.100,14.990 14.283 C 14.540 14.424,14.456 14.465,14.308 14.612 C 14.216 14.705,14.121 14.815,14.098 14.857 C 14.059 14.926,14.046 14.916,13.949 14.752 C 13.834 14.556,13.629 14.358,13.438 14.259 C 13.372 14.225,13.125 14.154,12.889 14.102 C 12.405 13.994,12.181 13.907,11.860 13.702 C 11.167 13.259,10.880 12.768,10.880 12.029 C 10.880 11.712,10.895 11.623,10.980 11.447 C 11.102 11.194,11.326 10.964,11.608 10.802 C 11.725 10.735,11.833 10.681,11.848 10.680 C 11.863 10.680,11.841 10.757,11.799 10.850 C 11.649 11.179,11.715 11.572,11.968 11.859 C 12.222 12.148,12.580 12.231,12.904 12.074 C 13.070 11.994,13.231 11.736,13.306 11.429 C 13.410 11.005,13.349 10.804,13.001 10.421 C 12.614 9.995,12.509 9.628,12.664 9.241 C 12.735 9.064,12.782 9.039,12.819 9.158 C 12.833 9.200,12.907 9.290,12.983 9.358 C 13.104 9.464,13.153 9.480,13.351 9.479 C 13.699 9.478,13.712 9.456,13.563 9.140 C 13.218 8.409,13.257 7.904,13.694 7.447 C 13.963 7.166,14.617 6.883,15.000 6.884 L 15.180 6.884 14.996 6.956 " stroke="none" fill="black" fill-rule="evenodd"></path></svg>