<svg role="img" viewBox="0 0 24 24" xmlns="http://www.w3.org/2000/svg"><path d="M9.021 10.670 C 8.385 11.742,7.839 12.660,7.808 12.710 L 7.751 12.800 9.026 12.800 L 10.302 12.800 11.218 11.280 C 11.721 10.444,12.142 9.769,12.152 9.779 C 12.162 9.789,12.427 10.225,12.741 10.749 L 13.313 11.700 12.553 11.720 L 11.793 11.740 11.480 12.260 L 11.166 12.780 12.503 12.791 C 13.238 12.796,14.442 12.796,15.177 12.791 L 16.515 12.780 15.307 10.751 L 14.100 8.722 12.138 8.721 L 10.176 8.720 9.021 10.670 M17.010 10.750 L 17.020 12.780 18.329 12.791 L 19.638 12.801 19.649 12.291 L 19.660 11.780 21.790 11.770 L 23.920 11.759 23.920 11.200 L 23.920 10.640 21.780 10.640 L 19.640 10.640 19.640 10.280 L 19.640 9.920 21.820 9.920 L 24.000 9.920 24.000 9.320 L 24.000 8.720 20.500 8.720 L 16.999 8.720 17.010 10.750 M0.000 10.780 L 0.000 12.800 2.470 12.800 C 5.043 12.799,5.664 12.772,6.151 12.639 C 6.995 12.409,7.557 11.891,7.718 11.196 C 7.784 10.907,7.768 10.474,7.680 10.188 C 7.463 9.487,6.734 8.961,5.758 8.802 C 5.596 8.776,4.471 8.760,2.750 8.760 L 0.000 8.760 0.000 10.780 M4.500 10.026 C 4.710 10.139,4.817 10.258,4.923 10.497 C 5.131 10.968,4.833 11.542,4.295 11.703 C 4.164 11.743,3.894 11.760,3.394 11.760 L 2.680 11.760 2.680 10.837 L 2.680 9.914 3.510 9.927 C 4.269 9.939,4.354 9.947,4.500 10.026 M0.000 14.500 L 0.000 15.280 11.960 15.280 L 23.920 15.280 23.920 14.500 L 23.920 13.720 11.960 13.720 L 0.000 13.720 0.000 14.500 " stroke="none" fill="black" fill-rule="evenodd"></path></svg>