<svg xmlns="http://www.w3.org/2000/svg" role="img" viewBox="0 0 24 24"><path d="M11.320 1.442 C 8.284 1.729,5.719 3.753,4.726 6.645 C 4.488 7.340,4.283 8.386,4.281 8.923 L 4.280 9.107 3.926 9.371 C 2.587 10.371,1.919 12.046,2.178 13.760 C 2.242 14.184,2.400 14.722,2.545 15.009 C 2.597 15.112,2.640 15.226,2.640 15.261 C 2.640 15.308,0.215 22.034,0.019 22.531 C -0.008 22.597,0.035 22.601,0.703 22.591 L 1.416 22.580 2.506 19.580 C 3.105 17.930,3.602 16.564,3.610 16.544 C 3.618 16.524,3.775 16.620,3.959 16.757 C 5.257 17.720,7.055 17.911,8.561 17.246 C 9.528 16.819,10.336 16.048,10.810 15.100 C 10.996 14.729,11.182 14.138,11.241 13.730 L 11.289 13.400 11.998 13.400 L 12.707 13.400 12.772 13.800 C 13.050 15.490,14.211 16.856,15.831 17.399 C 17.303 17.892,18.899 17.628,20.137 16.685 C 20.268 16.585,20.381 16.521,20.389 16.542 C 20.398 16.563,20.895 17.930,21.494 19.580 L 22.585 22.580 23.297 22.591 C 23.965 22.601,24.008 22.597,23.981 22.531 C 23.818 22.119,21.360 15.303,21.360 15.263 C 21.360 15.233,21.413 15.094,21.478 14.954 C 21.957 13.922,22.002 12.493,21.589 11.399 C 21.284 10.590,20.776 9.908,20.102 9.401 C 19.725 9.118,19.720 9.112,19.720 8.946 C 19.720 8.426,19.535 7.450,19.299 6.732 C 18.475 4.219,16.484 2.342,13.920 1.662 C 13.152 1.458,12.093 1.368,11.320 1.442 M13.063 2.921 C 14.379 3.146,15.486 3.722,16.441 4.678 C 17.465 5.703,18.012 6.821,18.261 8.392 L 18.288 8.564 18.074 8.532 C 17.956 8.514,17.563 8.502,17.200 8.504 C 16.625 8.508,16.489 8.522,16.144 8.614 C 14.879 8.948,13.736 9.872,13.197 10.994 L 13.060 11.280 11.999 11.280 L 10.938 11.280 10.785 10.970 C 10.165 9.715,8.905 8.786,7.487 8.539 C 7.100 8.471,6.426 8.463,6.024 8.521 C 5.872 8.543,5.741 8.554,5.732 8.545 C 5.707 8.520,5.798 8.021,5.907 7.580 C 6.353 5.780,7.537 4.318,9.244 3.458 C 9.652 3.252,10.398 3.012,10.905 2.923 C 11.519 2.815,12.439 2.814,13.063 2.921 M7.280 10.662 C 8.153 10.867,8.878 11.583,9.100 12.458 C 9.177 12.765,9.177 13.357,9.099 13.662 C 8.820 14.756,7.841 15.517,6.712 15.519 C 6.284 15.520,6.039 15.462,5.611 15.256 C 4.956 14.942,4.505 14.383,4.319 13.656 C 3.978 12.324,4.825 10.953,6.180 10.645 C 6.434 10.587,6.997 10.596,7.280 10.662 M18.119 10.733 C 18.835 10.986,19.409 11.571,19.644 12.287 C 19.724 12.530,19.740 12.661,19.740 13.060 C 19.740 13.649,19.643 13.989,19.350 14.427 C 19.110 14.786,18.831 15.034,18.435 15.240 C 17.022 15.975,15.292 15.203,14.901 13.662 C 14.823 13.356,14.823 12.765,14.900 12.458 C 15.116 11.607,15.822 10.894,16.680 10.660 C 17.034 10.564,17.743 10.600,18.119 10.733 M10.298 18.414 C 10.139 18.486,9.973 18.686,9.919 18.872 C 9.890 18.970,9.879 19.529,9.888 20.540 C 9.899 21.940,9.906 22.072,9.976 22.214 C 10.213 22.691,10.931 22.711,11.192 22.247 C 11.279 22.091,11.280 22.066,11.280 20.483 C 11.280 18.699,11.280 18.695,11.020 18.498 C 10.844 18.363,10.498 18.323,10.298 18.414 M13.053 18.461 C 12.945 18.525,12.858 18.621,12.803 18.733 C 12.723 18.899,12.720 18.964,12.721 20.483 C 12.721 22.044,12.722 22.062,12.811 22.219 C 13.051 22.642,13.591 22.710,13.924 22.360 C 14.003 22.277,14.080 22.151,14.094 22.080 C 14.108 22.008,14.120 21.265,14.120 20.428 C 14.120 18.964,14.117 18.899,14.036 18.732 C 13.865 18.379,13.403 18.251,13.053 18.461 M7.535 19.804 C 7.344 19.859,7.137 20.114,7.084 20.357 C 7.026 20.627,7.027 21.736,7.085 22.008 C 7.227 22.668,8.090 22.796,8.390 22.201 C 8.475 22.033,8.480 21.976,8.479 21.182 C 8.478 20.451,8.469 20.319,8.405 20.180 C 8.249 19.842,7.910 19.695,7.535 19.804 M15.916 19.853 C 15.798 19.915,15.707 20.004,15.640 20.123 C 15.544 20.292,15.539 20.334,15.527 21.085 C 15.512 21.988,15.539 22.139,15.753 22.364 C 16.143 22.773,16.798 22.591,16.916 22.041 C 16.969 21.795,16.973 20.524,16.922 20.303 C 16.872 20.087,16.767 19.956,16.559 19.850 C 16.334 19.735,16.138 19.736,15.916 19.853 " stroke="none" fill="black" fill-rule="evenodd"></path></svg>