<svg role="img" viewBox="0 0 24 24" xmlns="http://www.w3.org/2000/svg"><path d="M11.200 0.026 C 10.108 0.129,9.432 0.252,8.596 0.500 C 6.526 1.113,4.506 2.398,3.100 3.997 C 1.420 5.908,0.445 8.049,0.094 10.600 C 0.010 11.211,-0.001 12.708,0.074 13.300 C 0.193 14.239,0.447 15.273,0.785 16.200 C 1.155 17.215,1.953 18.607,2.699 19.541 C 3.109 20.053,3.987 20.931,4.499 21.341 C 7.480 23.724,11.311 24.557,14.981 23.620 C 16.534 23.223,18.193 22.389,19.480 21.359 C 20.397 20.624,21.346 19.569,22.049 18.500 C 22.402 17.965,23.001 16.782,23.214 16.200 C 23.756 14.724,23.974 13.522,23.975 12.020 C 23.976 10.507,23.751 9.259,23.214 7.800 C 23.021 7.276,22.459 6.146,22.140 5.640 C 20.935 3.731,19.272 2.232,17.260 1.239 C 15.862 0.550,14.507 0.171,12.980 0.041 C 12.536 0.004,11.527 -0.005,11.200 0.026 M16.800 10.957 L 16.800 16.953 16.630 17.017 C 16.537 17.053,14.741 17.717,12.640 18.494 L 8.820 19.907 8.800 15.383 C 8.782 11.391,8.773 10.861,8.720 10.872 C 8.687 10.879,7.827 11.180,6.808 11.542 C 5.790 11.904,4.939 12.200,4.918 12.200 C 4.895 12.200,4.880 11.640,4.881 10.730 L 4.881 9.260 10.771 7.115 C 14.010 5.935,16.692 4.968,16.730 4.965 C 16.796 4.960,16.800 5.270,16.800 10.957 " stroke="none" fill="black" fill-rule="evenodd"></path></svg>