<svg role="img" viewBox="0 0 24 24" xmlns="http://www.w3.org/2000/svg"><path d="M6.110 1.770 L 0.640 3.533 0.641 4.437 C 0.644 9.829,1.301 13.691,2.668 16.368 C 2.795 16.616,2.905 16.831,2.911 16.845 C 2.918 16.859,2.543 17.145,2.079 17.482 C 1.615 17.819,1.229 18.105,1.221 18.118 C 1.196 18.160,1.641 18.860,1.691 18.856 C 1.718 18.854,3.045 17.920,4.640 16.780 C 6.235 15.640,7.720 14.587,7.940 14.440 C 9.272 13.548,10.999 12.710,12.560 12.199 C 14.764 11.478,16.700 11.202,19.570 11.201 C 20.476 11.200,20.560 11.206,20.560 11.268 C 20.560 11.433,20.260 12.783,20.100 13.343 C 19.564 15.209,18.782 16.725,17.587 18.209 C 16.686 19.330,15.930 20.008,14.570 20.915 C 13.774 21.446,13.052 21.834,12.035 22.279 L 11.691 22.429 11.095 22.163 C 9.871 21.614,8.749 20.921,7.602 20.003 C 6.905 19.445,6.085 18.602,5.507 17.850 C 5.402 17.713,5.298 17.600,5.276 17.600 C 5.245 17.600,4.202 18.360,4.065 18.483 C 4.046 18.500,4.137 18.646,4.267 18.807 C 4.398 18.968,4.619 19.250,4.757 19.434 C 5.966 21.034,8.597 22.901,10.820 23.738 C 11.040 23.821,11.279 23.914,11.351 23.944 C 11.424 23.975,11.525 24.000,11.578 24.000 C 11.705 24.000,12.835 23.543,13.360 23.280 C 15.047 22.434,16.368 21.482,17.660 20.182 C 19.485 18.346,20.811 15.954,21.516 13.231 C 21.640 12.751,21.811 11.890,21.869 11.460 L 21.900 11.220 22.568 11.209 C 23.323 11.197,23.246 11.239,23.319 10.800 C 23.342 10.657,23.370 10.502,23.380 10.455 L 23.399 10.371 20.229 10.347 C 17.027 10.323,16.336 10.297,15.945 10.183 C 15.675 10.105,15.389 9.855,15.147 9.488 C 14.885 9.090,14.787 8.803,14.784 8.420 C 14.781 8.028,14.903 7.459,15.011 7.358 C 15.060 7.313,15.232 7.261,15.474 7.220 C 16.142 7.106,16.167 7.094,16.269 6.835 C 16.318 6.711,16.363 6.549,16.369 6.476 L 16.380 6.343 13.680 5.492 C 12.195 5.024,10.967 4.645,10.952 4.651 C 10.905 4.666,11.259 5.373,11.363 5.472 C 11.416 5.523,12.018 5.808,12.700 6.106 C 13.382 6.404,13.946 6.653,13.953 6.660 C 13.960 6.667,13.537 6.774,13.013 6.899 C 12.006 7.138,11.880 7.176,11.880 7.236 C 11.880 7.312,12.203 7.679,12.375 7.796 L 12.552 7.918 12.866 7.839 C 13.419 7.700,13.880 7.607,13.880 7.635 C 13.880 7.650,13.803 7.797,13.709 7.961 C 12.718 9.699,10.892 10.994,8.855 11.402 C 8.512 11.471,8.212 11.495,7.436 11.515 C 6.414 11.541,6.320 11.558,6.320 11.718 C 6.320 11.794,6.418 11.889,6.673 12.059 C 7.083 12.333,7.480 12.924,7.480 13.260 C 7.480 13.368,7.448 13.477,7.389 13.564 C 7.337 13.643,6.701 14.150,5.879 14.770 C 5.099 15.358,4.412 15.875,4.354 15.920 L 4.247 16.000 4.140 15.810 C 3.970 15.508,3.566 14.512,3.358 13.880 C 2.843 12.319,2.510 10.464,2.338 8.190 C 2.269 7.284,2.193 4.673,2.234 4.636 C 2.248 4.622,4.370 3.927,6.948 3.091 L 11.636 1.570 16.328 3.096 L 21.020 4.621 21.033 5.041 C 21.058 5.837,20.936 8.150,20.816 9.170 L 20.789 9.400 21.573 9.400 L 22.356 9.400 22.377 9.270 C 22.405 9.097,22.470 8.390,22.523 7.700 C 22.546 7.392,22.575 6.328,22.588 5.335 L 22.611 3.530 22.235 3.407 C 20.945 2.983,11.632 0.001,11.609 0.004 C 11.593 0.006,9.119 0.801,6.110 1.770 " stroke="none" fill="black" fill-rule="evenodd"></path></svg>