<svg role="img" viewBox="0 0 24 24" xmlns="http://www.w3.org/2000/svg"><path d="M3.010 0.045 C 2.982 0.073,2.960 0.128,2.960 0.166 C 2.960 0.205,3.412 1.921,3.964 3.981 C 4.517 6.040,4.962 7.730,4.954 7.736 C 4.946 7.742,4.517 7.944,4.000 8.183 C 2.851 8.717,2.680 8.852,2.680 9.225 C 2.680 9.391,5.086 18.444,5.201 18.707 C 5.279 18.888,5.441 19.000,5.624 19.000 C 5.748 19.000,5.636 19.050,9.380 17.310 C 13.450 15.417,13.485 15.400,13.620 15.223 C 13.841 14.933,13.845 14.956,13.025 11.900 C 11.325 5.565,11.244 5.274,11.134 5.086 C 10.905 4.694,10.718 4.566,7.417 2.540 C 3.323 0.027,3.342 0.038,3.189 0.014 C 3.112 0.002,3.040 0.014,3.010 0.045 M15.375 6.366 L 12.530 7.689 12.660 8.175 C 12.732 8.442,13.170 10.079,13.635 11.813 C 14.100 13.547,14.480 15.037,14.480 15.125 C 14.480 15.318,14.372 15.537,14.194 15.706 C 14.111 15.785,13.705 15.997,13.129 16.262 C 12.400 16.598,12.202 16.705,12.217 16.756 C 12.228 16.791,12.345 17.232,12.478 17.735 C 12.615 18.253,12.768 18.738,12.830 18.854 C 13.065 19.291,13.167 19.361,16.980 21.700 C 18.960 22.914,20.648 23.933,20.732 23.963 C 20.903 24.024,21.012 23.985,21.032 23.855 C 21.040 23.800,19.242 16.972,19.057 16.355 C 19.042 16.304,19.245 16.195,20.016 15.840 C 21.013 15.381,21.186 15.270,21.278 15.027 C 21.301 14.965,21.320 14.857,21.320 14.787 C 21.320 14.717,20.758 12.555,20.070 9.982 C 18.897 5.591,18.812 5.297,18.695 5.172 C 18.461 4.924,18.539 4.895,15.375 6.366 " stroke="none" fill="black" fill-rule="evenodd"></path></svg>