<svg role="img" viewBox="0 0 24 24" xmlns="http://www.w3.org/2000/svg"><path d="M11.530 0.062 C 11.415 0.093,11.248 0.155,11.161 0.200 C 10.946 0.309,1.624 6.417,1.413 6.586 C 1.188 6.767,0.938 7.152,0.840 7.468 C 0.762 7.722,0.760 7.835,0.760 12.000 C 0.760 16.165,0.762 16.278,0.840 16.532 C 0.938 16.848,1.188 17.233,1.413 17.414 C 1.623 17.583,10.945 23.691,11.160 23.800 C 11.691 24.071,12.365 24.058,12.899 23.767 C 13.009 23.706,15.214 22.272,17.798 20.578 C 20.905 18.542,22.564 17.432,22.698 17.298 C 22.936 17.061,23.094 16.785,23.179 16.459 C 23.271 16.104,23.271 7.896,23.179 7.541 C 23.094 7.218,22.937 6.941,22.700 6.702 C 22.564 6.565,20.999 5.517,17.800 3.422 C 15.215 1.728,13.009 0.294,12.899 0.233 C 12.490 0.010,11.966 -0.055,11.530 0.062 M12.570 5.385 L 13.480 5.494 13.480 6.867 L 13.480 8.240 15.390 8.240 C 16.580 8.240,17.356 8.256,17.449 8.282 C 17.648 8.337,17.835 8.501,17.925 8.698 C 17.992 8.846,17.998 8.993,17.999 10.426 L 18.000 11.991 18.382 12.123 C 18.745 12.248,18.762 12.259,18.744 12.357 C 18.733 12.414,18.674 13.032,18.613 13.730 L 18.503 15.000 18.254 15.000 L 18.004 15.000 17.992 15.873 C 17.980 16.744,17.980 16.746,17.873 16.908 C 17.808 17.006,17.695 17.104,17.590 17.155 L 17.415 17.240 12.000 17.240 L 6.585 17.240 6.410 17.155 C 6.305 17.104,6.192 17.006,6.127 16.908 C 6.020 16.746,6.020 16.744,6.008 15.873 L 5.996 15.000 5.708 14.999 C 5.550 14.999,5.400 14.986,5.376 14.969 C 5.248 14.884,5.248 14.783,5.373 13.390 L 5.498 12.000 5.749 12.000 L 6.000 12.000 6.001 10.430 C 6.002 8.993,6.008 8.846,6.075 8.698 C 6.165 8.501,6.352 8.337,6.551 8.282 C 6.648 8.255,7.769 8.240,9.730 8.240 L 12.760 8.240 12.760 7.880 L 12.760 7.520 12.185 7.520 C 11.510 7.520,11.374 7.499,11.298 7.383 C 11.249 7.307,11.257 7.174,11.363 6.318 C 11.430 5.780,11.491 5.319,11.500 5.293 C 11.508 5.267,11.548 5.253,11.588 5.261 C 11.627 5.269,12.070 5.325,12.570 5.385 M9.820 12.320 L 9.262 12.879 9.041 12.664 C 8.919 12.546,8.780 12.429,8.731 12.404 C 8.600 12.337,8.418 12.428,8.190 12.673 C 7.884 13.001,7.894 13.028,8.553 13.687 C 9.047 14.181,9.121 14.240,9.242 14.240 C 9.366 14.240,9.456 14.162,10.249 13.369 C 11.280 12.338,11.255 12.392,10.869 12.009 C 10.497 11.640,10.499 11.639,9.820 12.320 M14.820 12.320 L 14.262 12.879 14.021 12.644 C 13.888 12.514,13.740 12.397,13.692 12.382 C 13.567 12.345,13.400 12.444,13.185 12.683 C 12.890 13.010,12.899 13.033,13.553 13.687 C 14.047 14.181,14.121 14.240,14.242 14.240 C 14.366 14.240,14.456 14.162,15.249 13.369 C 16.280 12.338,16.255 12.392,15.869 12.009 C 15.497 11.640,15.499 11.639,14.820 12.320 " stroke="none" fill="black" fill-rule="evenodd"></path></svg>