<svg role="img" viewBox="0 0 24 24" xmlns="http://www.w3.org/2000/svg"><path d="M0.333 7.304 C 0.304 7.380,0.382 7.438,0.520 7.441 C 0.945 7.451,1.451 7.521,1.611 7.592 C 1.944 7.739,1.920 7.407,1.919 11.928 C 1.918 15.816,1.916 15.945,1.840 16.112 C 1.730 16.355,1.601 16.398,0.824 16.445 C 0.470 16.467,0.140 16.493,0.090 16.503 C -0.028 16.527,-0.026 16.632,0.093 16.662 C 0.144 16.675,1.678 16.678,3.503 16.669 C 6.355 16.654,6.865 16.643,7.140 16.587 C 8.940 16.223,10.181 14.946,10.587 13.040 C 10.676 12.622,10.686 11.571,10.605 11.120 C 10.246 9.114,8.926 7.806,6.860 7.405 C 6.113 7.261,5.627 7.240,2.949 7.240 C 0.610 7.240,0.355 7.246,0.333 7.304 M5.880 7.674 C 7.379 7.983,8.251 8.779,8.755 10.300 C 8.975 10.962,9.056 11.522,9.028 12.180 C 8.976 13.419,8.629 14.468,8.018 15.230 C 7.448 15.942,6.936 16.208,5.920 16.320 C 5.473 16.369,3.691 16.393,3.590 16.351 C 3.524 16.324,3.520 16.079,3.520 12.004 C 3.520 7.985,3.525 7.681,3.588 7.617 C 3.650 7.555,3.743 7.551,4.578 7.573 C 5.260 7.590,5.599 7.617,5.880 7.674 M12.276 9.531 C 12.005 9.712,11.917 10.105,12.090 10.362 C 12.364 10.769,12.934 10.747,13.150 10.321 C 13.264 10.097,13.263 9.977,13.149 9.761 C 12.984 9.448,12.565 9.338,12.276 9.531 M16.620 12.146 C 15.664 12.294,14.857 13.055,14.657 13.998 C 14.582 14.350,14.587 14.591,14.676 15.022 C 14.892 16.070,15.601 16.669,16.717 16.746 C 17.683 16.812,18.644 16.383,19.117 15.674 C 19.356 15.317,19.458 14.951,19.455 14.460 C 19.452 13.785,19.249 13.214,18.871 12.814 C 18.440 12.358,17.946 12.159,17.200 12.139 C 16.947 12.132,16.686 12.135,16.620 12.146 M23.115 12.295 C 22.819 12.401,22.638 12.576,22.283 13.097 L 22.040 13.455 22.040 12.912 C 22.040 12.194,22.046 12.199,21.507 12.469 C 21.283 12.581,20.911 12.738,20.680 12.818 C 20.234 12.973,20.160 13.016,20.222 13.078 C 20.247 13.103,20.360 13.086,20.533 13.033 C 20.845 12.938,20.974 12.966,21.041 13.142 C 21.064 13.202,21.080 13.841,21.080 14.684 C 21.080 16.499,21.092 16.462,20.507 16.515 C 20.338 16.530,20.220 16.560,20.210 16.590 C 20.197 16.629,20.484 16.640,21.557 16.640 C 22.421 16.640,22.920 16.626,22.920 16.601 C 22.920 16.555,22.831 16.534,22.509 16.502 C 22.240 16.475,22.139 16.423,22.079 16.277 C 22.050 16.208,22.040 15.779,22.048 14.996 L 22.060 13.820 22.178 13.607 C 22.311 13.366,22.751 12.934,22.901 12.896 C 23.063 12.855,23.182 12.909,23.297 13.076 C 23.443 13.287,23.591 13.347,23.755 13.262 C 24.156 13.055,24.037 12.444,23.564 12.286 C 23.393 12.228,23.297 12.230,23.115 12.295 M12.619 12.482 C 12.399 12.593,12.023 12.751,11.783 12.832 C 11.543 12.913,11.339 13.002,11.330 13.030 C 11.308 13.098,11.453 13.093,11.696 13.020 C 11.956 12.941,12.024 12.944,12.121 13.041 C 12.201 13.121,12.202 13.160,12.191 14.700 L 12.180 16.278 12.075 16.384 C 11.986 16.472,11.921 16.493,11.664 16.514 C 11.496 16.529,11.354 16.558,11.349 16.580 C 11.343 16.606,11.816 16.624,12.690 16.631 C 13.922 16.640,14.181 16.623,13.977 16.544 C 13.942 16.531,13.838 16.520,13.747 16.520 C 13.655 16.520,13.513 16.501,13.431 16.478 C 13.150 16.400,13.160 16.481,13.160 14.319 C 13.160 12.421,13.152 12.280,13.041 12.280 C 13.028 12.280,12.838 12.371,12.619 12.482 M17.506 12.501 C 17.905 12.696,18.200 13.140,18.331 13.740 C 18.524 14.621,18.410 15.500,18.042 15.988 C 17.829 16.269,17.448 16.457,17.087 16.456 C 16.868 16.456,16.782 16.435,16.606 16.340 C 16.009 16.014,15.638 15.215,15.630 14.240 C 15.625 13.576,15.770 13.099,16.086 12.739 C 16.410 12.370,17.026 12.267,17.506 12.501 " stroke="none" fill="black" fill-rule="evenodd"></path></svg>