<svg role="img" xmlns="http://www.w3.org/2000/svg" viewBox="0 0 24 24"><path d="M0.640 2.120 L 0.640 3.320 12.000 3.320 L 23.360 3.320 23.360 2.120 L 23.360 0.920 12.000 0.920 L 0.640 0.920 0.640 2.120 M2.618 5.890 C 2.608 5.917,2.604 8.037,2.610 10.600 L 2.620 15.260 12.000 15.260 L 21.380 15.260 21.380 10.560 L 21.380 5.860 12.009 5.850 C 4.533 5.842,2.634 5.850,2.618 5.890 M18.680 10.540 L 18.680 12.840 12.000 12.840 L 5.320 12.840 5.320 10.567 C 5.320 9.316,5.332 8.281,5.347 8.267 C 5.361 8.252,8.367 8.240,12.027 8.240 L 18.680 8.240 18.680 10.540 M5.980 16.043 C 5.452 16.240,4.898 16.448,4.749 16.504 L 4.479 16.607 4.614 16.794 C 4.930 17.228,5.665 18.360,6.051 19.005 C 6.447 19.666,6.960 20.597,6.960 20.654 C 6.960 20.668,5.394 20.680,3.480 20.680 L 0.000 20.680 0.000 21.880 L 0.000 23.080 12.000 23.080 L 24.000 23.080 24.000 21.880 L 24.000 20.680 20.680 20.680 C 18.854 20.680,17.360 20.672,17.360 20.662 C 17.360 20.652,17.512 20.412,17.697 20.129 C 18.409 19.042,19.666 16.686,19.578 16.605 C 19.542 16.572,16.970 15.679,16.913 15.680 C 16.898 15.680,16.831 15.822,16.764 15.995 C 16.330 17.120,15.534 18.769,14.850 19.960 L 14.448 20.660 12.053 20.670 L 9.659 20.681 9.463 20.210 C 9.168 19.502,8.746 18.610,8.388 17.940 C 7.891 17.010,7.083 15.722,6.980 15.695 C 6.958 15.689,6.508 15.846,5.980 16.043 " stroke="none" fill="black" fill-rule="evenodd"></path></svg>