<svg role="img" viewBox="0 0 24 24" xmlns="http://www.w3.org/2000/svg"><path d="M10.940 0.046 C 9.376 0.181,7.667 0.696,6.304 1.444 C 2.834 3.348,0.557 6.709,0.073 10.640 C 0.006 11.184,0.006 12.816,0.073 13.360 C 0.571 17.405,2.995 20.877,6.598 22.707 C 11.031 24.958,16.475 24.204,20.100 20.837 C 22.254 18.836,23.569 16.267,23.927 13.360 C 23.994 12.816,23.994 11.184,23.927 10.640 C 23.448 6.748,21.214 3.420,17.787 1.492 C 15.788 0.368,13.298 -0.158,10.940 0.046 M12.840 1.801 C 14.989 1.993,17.066 2.855,18.623 4.202 L 18.801 4.356 18.496 4.719 C 17.656 5.721,16.191 6.795,14.705 7.499 C 14.107 7.783,13.446 8.060,13.424 8.036 C 13.416 8.027,13.203 7.660,12.952 7.220 C 12.105 5.740,10.842 3.767,9.968 2.560 C 9.669 2.147,9.618 2.056,9.674 2.035 C 9.795 1.989,10.731 1.838,11.100 1.804 C 11.626 1.756,12.315 1.754,12.840 1.801 M7.838 3.011 C 8.936 4.549,10.563 7.088,11.295 8.406 L 11.443 8.673 10.771 8.834 C 8.907 9.283,7.093 9.582,5.180 9.757 C 4.193 9.847,2.939 9.919,2.347 9.920 C 1.992 9.920,1.957 9.913,1.975 9.850 C 1.986 9.812,2.050 9.567,2.119 9.307 C 2.349 8.428,2.779 7.444,3.301 6.602 C 4.070 5.360,5.365 4.068,6.600 3.310 C 6.977 3.078,7.567 2.761,7.620 2.762 C 7.642 2.762,7.740 2.874,7.838 3.011 M20.249 5.943 C 21.408 7.479,22.129 9.480,22.228 11.435 C 22.252 11.909,22.250 11.929,22.176 11.907 C 21.868 11.816,20.167 11.590,19.240 11.516 C 18.134 11.428,16.414 11.452,15.186 11.573 C 15.127 11.579,15.062 11.463,14.863 11.000 C 14.726 10.681,14.529 10.241,14.426 10.022 C 14.323 9.804,14.243 9.610,14.249 9.592 C 14.255 9.574,14.517 9.445,14.831 9.304 C 16.079 8.746,17.369 7.947,18.370 7.114 C 18.835 6.727,19.562 6.011,19.766 5.740 C 19.840 5.643,19.918 5.568,19.940 5.575 C 19.962 5.581,20.101 5.747,20.249 5.943 M12.707 11.103 C 12.938 11.578,13.121 11.972,13.114 11.979 C 13.106 11.986,13.001 12.021,12.880 12.057 C 12.011 12.313,10.532 12.989,9.720 13.501 C 7.760 14.738,6.024 16.423,4.709 18.367 C 4.341 18.911,4.402 18.906,4.009 18.421 C 2.601 16.678,1.760 14.329,1.760 12.142 L 1.760 11.732 2.186 11.706 C 2.421 11.692,2.794 11.680,3.017 11.680 C 4.497 11.680,7.315 11.364,9.288 10.977 C 10.123 10.813,11.647 10.446,12.080 10.304 C 12.179 10.272,12.266 10.244,12.273 10.243 C 12.280 10.241,12.475 10.628,12.707 11.103 M19.580 13.138 C 20.426 13.240,21.365 13.419,21.919 13.584 L 22.123 13.644 22.099 13.792 C 21.967 14.597,21.618 15.652,21.202 16.500 C 20.506 17.921,19.470 19.196,18.248 20.132 C 17.736 20.524,17.732 20.526,17.698 20.333 C 17.425 18.755,16.765 16.248,16.096 14.245 C 15.909 13.687,15.764 13.222,15.774 13.212 C 15.799 13.188,16.282 13.123,16.752 13.080 C 17.309 13.030,18.970 13.064,19.580 13.138 M14.078 14.390 C 14.870 16.572,15.521 18.903,15.919 20.979 C 16.018 21.500,16.053 21.448,15.472 21.657 C 12.714 22.648,9.615 22.405,7.077 20.999 C 6.697 20.788,6.039 20.363,5.823 20.187 L 5.706 20.092 5.838 19.856 C 6.411 18.836,7.436 17.613,8.460 16.728 C 9.473 15.853,10.492 15.179,11.740 14.558 C 12.366 14.247,13.681 13.687,13.800 13.681 C 13.811 13.680,13.936 14.000,14.078 14.390 " stroke="none" fill="black" fill-rule="evenodd"></path></svg>