<svg role="img" viewBox="0 0 24 24" xmlns="http://www.w3.org/2000/svg"><path d="M11.200 1.881 C 8.653 2.024,6.139 2.987,4.140 4.587 C 3.618 5.004,2.847 5.766,2.466 6.240 C 1.057 7.994,0.209 10.153,0.019 12.470 L -0.008 12.800 3.620 12.790 L 7.249 12.780 7.378 12.420 C 7.827 11.169,8.655 10.114,9.662 9.509 C 10.847 8.798,12.545 8.695,13.872 9.254 C 15.100 9.772,16.145 10.995,16.657 12.513 L 16.747 12.780 20.374 12.790 C 23.524 12.799,24.000 12.793,24.000 12.742 C 24.000 12.575,23.867 11.678,23.778 11.246 C 23.277 8.816,22.044 6.654,20.243 5.050 C 17.783 2.857,14.473 1.697,11.200 1.881 M11.580 10.586 C 10.858 10.702,10.218 11.045,9.735 11.574 C 8.345 13.097,8.831 15.529,10.700 16.402 C 11.152 16.613,11.500 16.690,12.000 16.690 C 13.161 16.690,14.181 16.071,14.716 15.042 C 15.621 13.303,14.680 11.177,12.779 10.662 C 12.538 10.597,11.802 10.550,11.580 10.586 M2.821 14.570 C 2.914 14.889,3.335 15.873,3.596 16.380 C 4.184 17.526,4.786 18.376,5.618 19.232 C 6.494 20.135,7.323 20.746,8.368 21.260 C 10.255 22.188,12.235 22.379,14.350 21.837 C 16.879 21.188,19.108 19.407,20.296 17.085 C 20.660 16.372,21.068 15.236,21.177 14.630 L 21.204 14.480 18.972 14.481 L 16.740 14.481 16.648 14.771 C 16.407 15.532,15.875 16.405,15.302 16.981 C 14.339 17.948,13.223 18.365,11.751 18.309 C 10.839 18.275,10.072 18.023,9.344 17.520 C 8.957 17.253,8.356 16.629,8.072 16.200 C 7.805 15.797,7.447 15.080,7.338 14.730 L 7.260 14.481 5.027 14.480 L 2.795 14.480 2.821 14.570 " stroke="none" fill="black" fill-rule="evenodd"></path></svg>