<svg role="img" viewBox="0 0 24 24" xmlns="http://www.w3.org/2000/svg"><path d="M0.260 0.087 C 0.304 0.113,1.858 1.013,3.714 2.087 L 7.088 4.040 10.294 4.041 C 12.108 4.041,13.665 4.058,13.880 4.081 C 15.259 4.224,16.299 4.688,17.142 5.536 C 18.096 6.497,18.651 7.808,18.908 9.707 C 19.011 10.468,19.011 13.557,18.908 14.280 C 18.741 15.452,18.500 16.282,18.096 17.079 C 17.300 18.647,16.081 19.549,14.300 19.889 C 13.878 19.969,13.713 19.973,10.347 19.989 L 6.835 20.005 3.467 21.947 C 1.615 23.015,0.082 23.906,0.060 23.926 C 0.036 23.949,2.739 23.958,7.100 23.949 C 14.705 23.934,14.316 23.944,15.420 23.738 C 17.065 23.432,18.777 22.650,20.067 21.617 C 21.653 20.346,22.893 18.435,23.498 16.327 C 23.744 15.469,23.885 14.644,23.963 13.603 C 24.027 12.759,23.991 10.428,23.904 9.760 C 23.538 6.943,22.458 4.664,20.671 2.937 C 19.124 1.442,17.244 0.537,14.880 0.151 L 14.340 0.063 7.260 0.052 C 1.878 0.044,0.199 0.052,0.260 0.087 M0.120 11.998 C 0.120 16.421,0.130 20.040,0.142 20.040 C 0.155 20.040,0.528 19.830,0.972 19.574 C 2.249 18.837,7.610 15.738,12.080 13.152 C 12.971 12.636,13.776 12.172,13.870 12.120 C 13.963 12.068,14.040 12.015,14.040 12.002 C 14.040 11.989,13.730 11.800,13.350 11.582 C 12.970 11.364,10.986 10.220,8.940 9.039 C 4.473 6.463,4.058 6.223,1.880 4.969 C 0.945 4.431,0.166 3.982,0.150 3.973 C 0.134 3.963,0.120 7.574,0.120 11.998 " stroke="none" fill="black" fill-rule="evenodd"></path></svg>