<svg role="img" viewBox="0 0 24 24" xmlns="http://www.w3.org/2000/svg"><path d="M8.929 0.058 C 8.516 0.158,8.141 0.382,7.727 0.776 C 7.514 0.979,5.918 2.491,4.180 4.135 C 2.442 5.780,0.917 7.237,0.790 7.372 C 0.524 7.657,0.309 8.043,0.215 8.405 C 0.157 8.629,0.152 8.834,0.175 10.100 C 0.216 12.340,0.300 13.935,0.503 16.360 C 0.649 18.101,1.027 21.429,1.082 21.451 C 1.094 21.456,2.462 20.166,4.122 18.585 C 6.474 16.344,7.138 15.691,7.129 15.625 C 7.123 15.578,7.107 14.761,7.094 13.810 C 7.069 12.077,7.106 10.715,7.218 9.226 C 7.246 8.849,7.258 8.528,7.245 8.514 C 7.231 8.500,6.842 8.455,6.380 8.414 C 5.318 8.320,2.683 8.308,2.080 8.394 C 1.226 8.516,0.634 8.726,0.354 9.006 L 0.198 9.162 0.256 9.023 C 0.351 8.797,0.623 8.422,0.816 8.252 C 1.230 7.888,1.691 7.729,2.700 7.603 C 5.656 7.233,7.730 7.104,10.700 7.104 C 12.789 7.105,13.618 7.135,15.165 7.266 L 15.950 7.332 18.965 4.462 C 20.623 2.883,21.985 1.578,21.992 1.561 C 21.998 1.545,21.935 1.521,21.852 1.509 C 21.768 1.497,21.214 1.404,20.620 1.303 C 17.267 0.731,13.604 0.287,10.380 0.060 C 9.387 -0.010,9.209 -0.010,8.929 0.058 M19.880 5.418 L 16.900 8.269 16.913 10.225 C 16.939 14.063,16.683 17.115,15.996 21.160 C 15.811 22.250,15.764 22.435,15.571 22.817 C 15.396 23.165,14.998 23.571,14.654 23.751 C 14.519 23.822,14.396 23.880,14.380 23.880 C 14.364 23.880,14.418 23.806,14.500 23.715 C 14.900 23.272,15.164 22.251,15.278 20.700 C 15.324 20.081,15.334 17.919,15.294 17.315 L 15.269 16.929 13.004 16.908 C 10.773 16.887,10.016 16.858,8.724 16.739 L 8.068 16.679 7.844 16.890 C 6.600 18.056,2.000 22.454,2.012 22.465 C 2.091 22.544,6.187 23.191,8.040 23.417 C 10.479 23.715,14.317 24.037,14.817 23.985 C 15.400 23.924,15.826 23.690,16.455 23.086 C 16.678 22.871,17.670 21.923,18.660 20.979 C 21.995 17.798,23.292 16.543,23.412 16.381 C 23.570 16.166,23.740 15.789,23.795 15.528 C 23.930 14.890,23.766 10.680,23.477 7.380 C 23.291 5.256,22.970 2.558,22.904 2.563 C 22.880 2.565,21.519 3.849,19.880 5.418 " stroke="none" fill="black" fill-rule="evenodd"></path></svg>