<svg role="img" viewBox="0 0 24 24" xmlns="http://www.w3.org/2000/svg"><path d="M13.960 9.960 L 13.960 10.800 14.200 10.800 L 14.440 10.800 14.440 9.960 L 14.440 9.120 14.200 9.120 L 13.960 9.120 13.960 9.960 M11.941 10.808 C 11.791 11.032,11.685 11.222,11.704 11.230 C 11.724 11.237,12.181 11.519,12.720 11.855 L 13.700 12.467 13.711 13.674 L 13.721 14.880 14.175 14.880 L 14.629 14.880 14.654 14.670 C 14.668 14.555,14.679 14.197,14.680 13.876 C 14.680 13.555,14.692 13.102,14.706 12.869 L 14.732 12.445 15.746 11.859 C 16.304 11.537,16.760 11.267,16.760 11.260 C 16.760 11.248,16.322 10.476,16.299 10.448 C 16.294 10.442,15.824 10.691,15.255 11.002 L 14.220 11.567 14.040 11.472 C 13.858 11.375,12.450 10.553,12.296 10.453 C 12.217 10.402,12.198 10.421,11.941 10.808 M4.960 10.744 C 4.751 10.783,4.372 10.936,4.178 11.060 C 3.905 11.234,3.699 11.480,3.525 11.840 C 3.382 12.136,3.380 12.147,3.380 12.640 C 3.380 13.122,3.385 13.150,3.512 13.418 C 3.763 13.949,4.142 14.278,4.698 14.449 C 5.030 14.551,5.578 14.567,5.920 14.485 C 6.186 14.421,6.757 14.155,6.846 14.053 C 6.900 13.992,6.913 13.843,6.925 13.160 L 6.940 12.340 6.100 12.340 L 5.260 12.340 5.260 12.700 L 5.260 13.060 5.630 13.072 L 6.000 13.083 6.000 13.304 C 6.000 13.516,5.995 13.526,5.867 13.580 C 5.349 13.796,4.746 13.603,4.513 13.147 C 4.468 13.058,4.422 12.881,4.410 12.754 C 4.369 12.305,4.551 11.945,4.916 11.746 C 5.105 11.643,5.156 11.633,5.413 11.648 C 5.700 11.665,5.871 11.722,6.106 11.878 L 6.231 11.962 6.500 11.640 C 6.767 11.320,6.769 11.316,6.695 11.234 C 6.566 11.090,6.287 10.918,6.049 10.835 C 5.824 10.756,5.184 10.703,4.960 10.744 M0.065 11.566 C 0.051 11.992,0.036 12.817,0.030 13.400 L 0.020 14.460 1.465 14.470 L 2.910 14.481 2.949 14.090 C 2.974 13.839,2.974 13.682,2.949 13.650 C 2.920 13.612,2.672 13.600,1.955 13.600 L 1.000 13.600 1.000 13.321 L 1.000 13.042 1.850 13.031 L 2.700 13.020 2.734 12.667 C 2.752 12.473,2.761 12.308,2.754 12.301 C 2.746 12.293,2.353 12.272,1.880 12.254 L 1.020 12.220 1.008 11.950 L 0.996 11.680 1.934 11.680 L 2.872 11.680 2.898 11.430 C 2.912 11.293,2.933 11.114,2.944 11.034 L 2.966 10.888 2.553 10.865 C 2.326 10.852,1.679 10.830,1.115 10.816 L 0.089 10.791 0.065 11.566 M7.584 11.829 C 7.570 12.396,7.554 13.220,7.549 13.660 L 7.540 14.460 7.989 14.471 C 8.428 14.482,8.438 14.481,8.457 14.391 C 8.468 14.341,8.488 13.891,8.503 13.390 C 8.517 12.890,8.544 12.490,8.562 12.501 C 8.581 12.513,8.929 12.951,9.337 13.476 L 10.078 14.429 10.489 14.450 C 10.715 14.461,10.905 14.466,10.910 14.461 C 10.932 14.443,11.004 10.907,10.984 10.855 C 10.967 10.813,10.858 10.800,10.522 10.800 C 10.097 10.800,10.081 10.803,10.063 10.890 C 10.052 10.940,10.032 11.372,10.017 11.852 C 10.003 12.332,9.980 12.713,9.965 12.699 C 9.951 12.685,9.615 12.257,9.219 11.747 L 8.497 10.820 8.053 10.809 L 7.609 10.797 7.584 11.829 M17.386 11.106 C 17.372 11.274,17.360 11.472,17.360 11.546 L 17.360 11.680 17.899 11.680 L 18.439 11.680 18.449 13.070 L 18.460 14.460 18.925 14.471 L 19.391 14.482 19.416 13.331 C 19.430 12.698,19.452 12.068,19.464 11.930 L 19.486 11.680 19.982 11.680 C 20.559 11.680,20.512 11.724,20.529 11.160 L 20.540 10.820 18.976 10.810 L 17.412 10.799 17.386 11.106 M21.077 11.366 C 21.075 11.682,21.060 12.489,21.044 13.160 C 21.027 13.831,21.022 14.402,21.031 14.430 C 21.045 14.469,21.371 14.480,22.482 14.480 L 23.915 14.480 23.936 14.310 C 23.999 13.792,24.002 13.710,23.957 13.656 C 23.919 13.611,23.731 13.600,22.975 13.600 L 22.040 13.600 22.040 13.320 L 22.040 13.040 22.858 13.040 C 23.307 13.040,23.685 13.024,23.697 13.005 C 23.717 12.972,23.801 12.307,23.787 12.294 C 23.783 12.291,23.393 12.273,22.920 12.254 L 22.060 12.220 22.048 11.950 L 22.036 11.680 22.956 11.680 C 23.462 11.680,23.883 11.667,23.893 11.650 C 23.902 11.633,23.922 11.455,23.938 11.254 L 23.965 10.888 23.593 10.865 C 23.388 10.852,22.738 10.830,22.150 10.817 L 21.080 10.792 21.077 11.366 M15.455 12.809 C 15.418 12.881,15.363 12.979,15.332 13.026 C 15.278 13.108,15.300 13.124,16.003 13.519 C 16.403 13.743,16.743 13.911,16.759 13.893 C 16.852 13.789,16.971 13.515,16.938 13.483 C 16.907 13.453,15.943 12.903,15.611 12.726 C 15.532 12.683,15.516 12.692,15.455 12.809 M12.129 13.168 C 11.750 13.393,11.440 13.601,11.440 13.630 C 11.440 13.717,11.616 13.999,11.670 14.000 C 11.732 14.000,13.080 13.201,13.080 13.163 C 13.080 13.133,12.849 12.760,12.830 12.760 C 12.824 12.760,12.509 12.944,12.129 13.168 " stroke="none" fill="black" fill-rule="evenodd"></path></svg>