<svg role="img" xmlns="http://www.w3.org/2000/svg" viewBox="0 0 24 24"><path d="M1.480 2.306 C 0.874 2.346,0.217 2.411,0.144 2.438 C -0.029 2.502,0.197 2.522,2.530 2.641 C 4.743 2.755,5.643 2.832,6.980 3.024 C 9.740 3.419,11.739 4.084,13.340 5.141 C 14.183 5.697,14.650 6.169,15.259 7.080 C 15.729 7.784,16.274 8.800,16.182 8.800 C 16.172 8.800,15.514 8.944,14.720 9.119 C 12.697 9.567,10.971 9.927,8.100 10.500 C 4.028 11.313,1.337 11.895,1.172 11.999 C 1.117 12.034,1.203 12.039,1.540 12.020 C 2.906 11.944,6.557 11.477,10.940 10.817 C 11.886 10.674,13.443 10.441,14.400 10.298 C 15.357 10.155,16.183 10.029,16.235 10.017 L 16.330 9.996 16.310 10.468 C 16.295 10.834,16.266 11.016,16.182 11.280 C 15.955 11.985,15.397 12.945,14.727 13.784 C 13.182 15.718,11.065 17.365,8.380 18.720 C 6.446 19.695,4.649 20.356,1.910 21.098 C 0.766 21.407,0.266 21.561,0.085 21.660 C -0.019 21.716,-0.018 21.717,0.160 21.718 C 1.226 21.726,5.197 20.601,7.380 19.673 C 8.769 19.082,10.474 18.109,11.600 17.265 C 12.528 16.569,13.814 15.405,14.409 14.724 C 14.591 14.515,14.984 14.073,15.282 13.742 C 16.678 12.191,16.999 11.716,17.261 10.811 C 17.317 10.618,17.376 10.307,17.392 10.120 L 17.420 9.780 19.720 9.396 C 22.021 9.012,23.562 8.726,23.772 8.644 C 23.843 8.616,23.907 8.546,23.947 8.450 C 24.067 8.164,23.939 7.273,23.714 6.826 C 23.294 5.993,22.353 5.246,20.884 4.582 C 19.142 3.794,17.498 3.397,15.960 3.395 C 14.663 3.393,13.827 3.626,13.275 4.144 C 13.095 4.313,12.971 4.401,12.927 4.390 C 12.890 4.380,12.311 4.172,11.640 3.929 C 10.338 3.456,9.769 3.273,8.940 3.060 C 7.506 2.692,5.790 2.428,4.141 2.321 C 3.568 2.284,1.947 2.275,1.480 2.306 M17.100 4.546 C 18.020 4.670,19.446 5.015,20.240 5.306 C 20.762 5.496,22.287 6.258,22.809 6.588 C 23.334 6.920,23.596 7.136,23.540 7.192 C 23.518 7.213,22.834 7.361,22.020 7.520 C 20.841 7.750,17.456 8.489,17.154 8.582 C 17.104 8.598,17.035 8.503,16.864 8.179 C 16.437 7.371,15.965 6.770,15.067 5.890 L 14.445 5.280 14.538 5.070 C 14.589 4.954,14.674 4.822,14.726 4.775 C 15.079 4.455,15.868 4.379,17.100 4.546 " stroke="none" fill="black" fill-rule="evenodd"></path></svg>