<svg role="img" viewBox="0 0 24 24" xmlns="http://www.w3.org/2000/svg"><path d="M0.000 12.000 L 0.000 19.600 1.881 19.600 L 3.763 19.600 3.511 19.310 C 2.154 17.750,1.275 15.795,0.960 13.640 C 0.474 10.316,1.213 7.108,3.005 4.751 C 3.134 4.581,3.240 4.433,3.240 4.421 C 3.240 4.409,2.511 4.400,1.620 4.400 L 0.000 4.400 0.000 12.000 M20.944 4.510 C 21.622 5.535,22.016 6.391,22.277 7.410 C 22.522 8.366,22.600 9.095,22.600 10.424 L 22.600 11.400 15.614 11.400 L 8.627 11.400 8.653 12.090 C 8.737 14.405,9.343 16.227,10.399 17.336 C 11.109 18.081,11.918 18.499,12.975 18.666 C 13.561 18.759,14.486 18.724,15.000 18.589 C 16.645 18.157,18.005 17.057,19.298 15.112 L 19.529 14.764 21.325 15.662 C 22.312 16.156,23.120 16.572,23.120 16.586 C 23.120 16.600,23.027 16.766,22.914 16.956 C 22.395 17.824,21.780 18.682,21.275 19.246 C 21.124 19.415,21.000 19.563,21.000 19.576 C 21.000 19.589,21.675 19.600,22.500 19.600 L 24.000 19.600 24.000 12.000 L 24.000 4.400 22.435 4.400 L 20.871 4.400 20.944 4.510 M11.860 4.784 C 10.594 4.970,9.690 5.611,9.182 6.684 C 9.030 7.004,8.880 7.532,8.880 7.746 L 8.880 7.880 12.061 7.880 L 15.242 7.880 15.216 7.610 C 15.173 7.180,15.055 6.769,14.855 6.360 C 14.697 6.037,14.615 5.926,14.305 5.619 C 13.892 5.210,13.557 5.017,13.023 4.881 C 12.715 4.802,12.093 4.750,11.860 4.784 " stroke="none" fill="black" fill-rule="evenodd"></path></svg>