<svg role="img" viewBox="0 0 24 24" xmlns="http://www.w3.org/2000/svg"><path d="M0.000 12.000 L 0.000 24.000 7.840 24.000 L 15.680 24.000 15.680 20.320 L 15.680 16.640 11.520 16.640 L 7.360 16.640 7.360 12.000 L 7.360 7.360 15.680 7.360 L 24.000 7.360 24.000 3.680 L 24.000 0.000 12.000 0.000 L 0.000 0.000 0.000 12.000 M8.320 12.000 L 8.320 15.680 12.480 15.680 L 16.640 15.680 16.640 19.840 L 16.640 24.000 20.320 24.000 L 24.000 24.000 24.000 16.160 L 24.000 8.320 16.160 8.320 L 8.320 8.320 8.320 12.000 " stroke="none" fill="black" fill-rule="evenodd"></path></svg>