<svg role="img" xmlns="http://www.w3.org/2000/svg" viewBox="0 0 24 24"><path d="M17.440 0.029 C 17.373 0.041,16.553 0.831,14.980 2.401 C 13.182 4.195,12.577 4.775,12.440 4.837 C 12.212 4.940,11.912 4.942,11.690 4.841 C 11.568 4.786,10.867 4.119,9.204 2.476 C 7.931 1.217,6.846 0.164,6.794 0.135 C 6.655 0.058,6.360 0.068,6.220 0.155 C 6.004 0.290,0.231 5.942,0.123 6.125 L 0.020 6.300 0.008 9.180 C -0.005 12.205,-0.003 12.243,0.174 12.502 C 0.221 12.571,2.831 15.168,5.974 18.273 C 12.196 24.421,11.799 24.057,12.166 23.958 C 12.312 23.919,12.978 23.274,17.736 18.565 C 20.708 15.623,23.276 13.087,23.443 12.930 C 23.609 12.773,23.798 12.549,23.863 12.432 L 23.980 12.220 23.991 9.343 C 24.001 6.741,23.996 6.448,23.935 6.265 C 23.874 6.080,23.620 5.813,20.924 3.092 C 18.778 0.926,17.939 0.104,17.829 0.060 C 17.678 -0.000,17.626 -0.004,17.440 0.029 M10.789 6.570 C 13.072 8.797,15.008 10.698,15.092 10.794 C 15.707 11.503,15.761 12.637,15.217 13.427 C 15.076 13.631,12.586 16.120,12.522 16.120 C 12.475 16.120,3.995 8.134,3.824 7.928 C 3.451 7.478,3.260 6.807,3.348 6.253 C 3.401 5.920,3.522 5.591,3.679 5.354 C 3.809 5.158,6.363 2.596,6.472 2.553 C 6.509 2.538,6.562 2.524,6.589 2.523 C 6.616 2.521,8.506 4.342,10.789 6.570 M18.360 3.301 C 18.859 3.449,19.058 3.611,20.530 5.076 L 21.920 6.460 19.997 8.560 C 18.940 9.715,18.061 10.674,18.045 10.690 C 18.005 10.731,13.632 6.806,13.651 6.746 C 13.679 6.658,16.141 3.855,16.320 3.706 C 16.862 3.257,17.668 3.097,18.360 3.301 M22.102 9.418 L 22.200 9.516 22.200 10.448 C 22.200 11.001,22.182 11.444,22.156 11.538 C 22.118 11.673,21.421 12.390,17.372 16.458 C 14.765 19.077,12.571 21.253,12.496 21.294 C 12.331 21.384,12.010 21.389,11.852 21.304 C 11.791 21.271,11.571 21.085,11.365 20.892 L 10.990 20.540 16.296 15.020 C 19.214 11.984,21.658 9.460,21.727 9.410 C 21.887 9.294,21.980 9.296,22.102 9.418 M2.585 9.491 C 2.769 9.596,10.327 17.018,10.432 17.197 C 10.574 17.438,10.583 17.853,10.453 18.101 C 10.370 18.257,9.828 18.780,9.653 18.874 C 9.527 18.940,9.356 18.930,9.236 18.850 C 9.179 18.811,7.532 17.218,5.576 15.308 C 3.017 12.810,1.992 11.784,1.920 11.650 C 1.825 11.471,1.819 11.426,1.807 10.677 C 1.792 9.789,1.819 9.660,2.048 9.521 C 2.196 9.431,2.454 9.416,2.585 9.491 " stroke="none" fill="black" fill-rule="evenodd"></path></svg>