<svg role="img" viewBox="0 0 24 24" xmlns="http://www.w3.org/2000/svg"><path d="M11.464 1.266 C 11.145 1.334,10.766 1.497,10.500 1.680 C 10.202 1.885,0.664 11.616,0.463 11.920 C -0.138 12.829,-0.147 13.997,0.440 14.896 C 0.668 15.245,7.437 22.153,7.744 22.350 C 8.047 22.544,8.351 22.669,8.688 22.737 C 9.149 22.831,14.850 22.831,15.312 22.737 C 15.711 22.656,16.211 22.415,16.481 22.172 C 17.031 21.678,23.395 15.157,23.539 14.940 C 24.088 14.111,24.144 13.125,23.695 12.205 C 23.481 11.768,24.112 12.432,17.808 6.012 C 15.082 3.235,13.595 1.750,13.438 1.645 C 12.863 1.261,12.136 1.122,11.464 1.266 M12.929 6.769 C 13.378 7.231,13.687 7.581,13.701 7.643 C 13.713 7.700,13.706 7.791,13.686 7.845 C 13.633 7.983,7.091 14.636,6.986 14.659 C 6.939 14.669,6.696 14.698,6.446 14.722 C 5.993 14.767,5.992 14.767,5.886 14.671 C 5.828 14.617,5.541 14.362,5.250 14.103 C 4.945 13.832,4.709 13.591,4.695 13.536 C 4.644 13.330,4.724 13.221,5.556 12.380 C 6.012 11.918,7.417 10.487,8.678 9.200 C 12.103 5.703,11.795 6.000,12.004 5.999 L 12.180 5.998 12.929 6.769 M12.872 12.411 C 13.252 12.790,13.601 13.159,13.646 13.231 C 13.810 13.493,13.839 13.456,11.777 15.560 L 9.875 17.500 9.488 17.547 C 8.753 17.635,8.856 17.673,8.168 17.060 C 7.835 16.762,7.542 16.481,7.518 16.435 C 7.400 16.215,7.416 16.196,9.651 13.919 C 10.821 12.726,11.815 11.735,11.860 11.716 C 12.058 11.632,12.163 11.704,12.872 12.411 M12.885 18.146 C 13.298 18.557,13.657 18.944,13.682 19.006 C 13.765 19.205,13.695 19.318,13.167 19.849 L 12.660 20.358 12.280 20.399 C 12.071 20.422,11.833 20.450,11.752 20.460 C 11.609 20.480,11.582 20.460,10.992 19.937 C 10.655 19.638,10.355 19.343,10.325 19.281 C 10.222 19.072,10.286 18.979,11.094 18.170 C 11.792 17.471,11.875 17.400,11.999 17.400 C 12.122 17.400,12.206 17.470,12.885 18.146 " stroke="none" fill="black" fill-rule="evenodd"></path></svg>