<svg role="img" viewBox="0 0 24 24" xmlns="http://www.w3.org/2000/svg"><path d="M0.120 10.120 L 0.120 10.400 0.360 10.400 L 0.600 10.400 0.600 12.060 L 0.600 13.720 0.300 13.720 L 0.000 13.720 0.000 13.940 L 0.000 14.160 1.140 14.160 L 2.280 14.160 2.280 13.940 L 2.280 13.720 1.900 13.720 L 1.520 13.720 1.520 12.980 L 1.520 12.240 1.720 12.240 L 1.920 12.240 1.920 12.440 L 1.920 12.640 2.200 12.640 L 2.480 12.640 2.480 12.000 L 2.480 11.360 2.200 11.360 L 1.920 11.360 1.920 11.540 L 1.920 11.720 1.720 11.720 L 1.520 11.720 1.520 11.060 L 1.520 10.400 11.860 10.400 L 22.200 10.400 22.200 10.120 L 22.200 9.840 11.160 9.840 L 0.120 9.840 0.120 10.120 M22.880 10.120 L 22.880 10.400 23.300 10.400 L 23.720 10.400 23.720 10.120 L 23.720 9.840 23.300 9.840 L 22.880 9.840 22.880 10.120 M4.374 10.922 C 4.047 10.965,3.828 11.081,3.746 11.254 C 3.690 11.372,3.680 11.558,3.680 12.518 C 3.680 13.787,3.687 13.820,3.961 13.961 C 4.178 14.071,4.789 14.126,5.327 14.083 C 6.032 14.026,6.160 13.910,6.160 13.324 L 6.160 13.000 5.760 13.000 L 5.360 13.000 5.360 13.214 C 5.360 13.506,5.295 13.560,4.944 13.560 C 4.529 13.560,4.520 13.550,4.520 13.079 L 4.520 12.680 5.340 12.680 L 6.160 12.680 6.160 11.989 C 6.160 11.212,6.150 11.178,5.877 11.038 C 5.604 10.899,4.942 10.848,4.374 10.922 M9.235 10.917 C 9.063 10.972,8.900 11.113,8.694 11.386 L 8.500 11.643 8.488 11.302 L 8.477 10.960 7.896 10.960 L 7.316 10.960 7.328 11.170 L 7.340 11.380 7.490 11.392 L 7.640 11.405 7.640 12.502 L 7.640 13.600 7.478 13.600 L 7.316 13.600 7.328 13.830 L 7.340 14.060 8.050 14.071 L 8.760 14.082 8.760 13.841 L 8.760 13.600 8.620 13.600 L 8.480 13.600 8.480 12.976 C 8.480 12.274,8.454 12.351,8.869 11.830 C 8.987 11.682,9.101 11.560,9.122 11.560 C 9.144 11.560,9.160 11.797,9.160 12.140 L 9.160 12.720 9.560 12.720 L 9.960 12.720 9.960 12.019 C 9.960 11.262,9.928 11.099,9.753 10.985 C 9.635 10.908,9.372 10.873,9.235 10.917 M12.816 10.954 C 12.672 11.021,12.533 11.159,12.243 11.520 L 12.163 11.620 12.161 11.290 L 12.160 10.960 11.580 10.960 L 11.000 10.960 11.000 11.180 L 11.000 11.400 11.160 11.400 L 11.320 11.400 11.320 12.500 L 11.320 13.600 11.160 13.600 L 11.000 13.600 11.000 13.841 L 11.000 14.082 11.710 14.071 L 12.420 14.060 12.432 13.830 L 12.444 13.600 12.282 13.600 L 12.120 13.600 12.120 12.998 L 12.120 12.396 12.275 12.167 C 12.361 12.041,12.513 11.848,12.614 11.739 L 12.797 11.540 12.798 12.130 L 12.800 12.720 13.200 12.720 L 13.600 12.720 13.600 11.982 C 13.600 11.495,13.584 11.208,13.552 11.139 C 13.454 10.924,13.082 10.830,12.816 10.954 M15.607 10.920 C 15.139 10.986,14.986 11.148,14.940 11.630 L 14.912 11.920 15.316 11.920 L 15.720 11.920 15.720 11.685 C 15.720 11.396,15.765 11.350,16.079 11.328 C 16.275 11.314,16.324 11.324,16.396 11.396 C 16.471 11.471,16.480 11.526,16.480 11.896 L 16.480 12.312 15.910 12.326 C 15.041 12.347,14.881 12.465,14.847 13.108 C 14.820 13.638,14.981 13.935,15.351 14.038 C 15.436 14.062,15.951 14.080,16.550 14.080 L 17.600 14.080 17.600 13.840 L 17.600 13.600 17.440 13.600 L 17.280 13.600 17.279 12.450 C 17.279 11.619,17.265 11.272,17.229 11.200 C 17.136 11.010,16.872 10.922,16.339 10.902 C 16.076 10.893,15.746 10.901,15.607 10.920 M20.496 10.954 C 20.352 11.021,20.213 11.159,19.923 11.520 L 19.843 11.620 19.841 11.290 L 19.840 10.960 19.260 10.960 L 18.680 10.960 18.680 11.180 L 18.680 11.400 18.840 11.400 L 19.000 11.400 19.000 12.500 L 19.000 13.600 18.840 13.600 L 18.680 13.600 18.680 13.841 L 18.680 14.082 19.390 14.071 L 20.100 14.060 20.112 13.830 L 20.124 13.600 19.962 13.600 L 19.800 13.600 19.800 12.998 L 19.800 12.396 19.955 12.167 C 20.041 12.041,20.193 11.848,20.294 11.739 L 20.477 11.540 20.478 12.130 L 20.480 12.720 20.880 12.720 L 21.280 12.720 21.280 11.982 C 21.280 11.495,21.264 11.208,21.232 11.139 C 21.134 10.924,20.762 10.830,20.496 10.954 M22.520 11.180 L 22.520 11.400 22.680 11.400 L 22.840 11.400 22.840 12.500 L 22.840 13.600 22.680 13.600 L 22.520 13.600 22.520 13.840 L 22.520 14.080 23.260 14.080 L 24.000 14.080 24.000 13.840 L 24.000 13.600 23.840 13.600 L 23.680 13.600 23.680 12.280 L 23.680 10.960 23.100 10.960 L 22.520 10.960 22.520 11.180 M5.272 11.368 C 5.304 11.400,5.320 11.579,5.320 11.908 L 5.320 12.400 4.920 12.400 L 4.520 12.400 4.520 11.908 C 4.520 11.579,4.536 11.400,4.568 11.368 C 4.632 11.304,5.208 11.304,5.272 11.368 M16.480 13.077 C 16.480 13.624,16.468 13.640,16.059 13.640 C 15.680 13.640,15.640 13.594,15.640 13.149 C 15.640 12.870,15.651 12.826,15.738 12.738 C 15.826 12.650,15.870 12.640,16.158 12.640 L 16.480 12.640 16.480 13.077 " stroke="none" fill="black" fill-rule="evenodd"></path></svg>