<svg role="img" xmlns="http://www.w3.org/2000/svg" viewBox="0 0 24 24"><path d="M11.539 0.062 C 11.526 0.105,11.487 0.198,11.452 0.268 C 11.366 0.443,11.404 0.508,11.659 0.625 C 12.022 0.791,12.046 0.710,11.762 0.282 C 11.601 0.040,11.559 -0.001,11.539 0.062 M12.140 0.241 C 12.080 0.437,12.077 0.496,12.118 0.596 C 12.221 0.845,12.016 0.893,11.585 0.722 C 11.349 0.628,11.216 0.600,11.009 0.601 C 10.566 0.601,10.421 0.683,10.760 0.740 C 10.848 0.755,10.930 0.783,10.942 0.803 C 10.966 0.842,10.884 0.851,10.615 0.841 C 10.459 0.835,10.160 0.927,10.160 0.981 C 10.160 0.995,10.255 0.994,10.370 0.980 C 10.527 0.961,10.646 0.975,10.840 1.037 C 10.983 1.082,11.136 1.120,11.180 1.121 C 11.255 1.122,11.256 1.126,11.190 1.176 C 11.098 1.246,11.102 1.263,11.210 1.262 C 11.360 1.259,11.312 1.336,11.120 1.404 C 11.021 1.439,10.823 1.543,10.680 1.634 C 10.355 1.841,9.493 2.183,9.200 2.221 C 9.002 2.246,8.961 2.269,8.787 2.454 C 8.681 2.567,8.556 2.732,8.510 2.820 C 8.417 2.998,8.402 3.294,8.478 3.437 C 8.520 3.515,8.546 3.523,8.693 3.498 C 8.785 3.483,8.959 3.443,9.080 3.411 C 9.376 3.331,9.420 3.330,9.420 3.400 C 9.420 3.440,9.315 3.494,9.111 3.560 C 8.941 3.615,8.801 3.681,8.801 3.708 C 8.799 3.788,8.970 3.880,9.119 3.879 C 9.197 3.879,9.341 3.840,9.440 3.794 C 9.693 3.676,10.120 3.678,10.540 3.801 C 10.761 3.866,10.972 3.896,11.220 3.899 C 11.571 3.904,11.580 3.906,11.617 4.010 C 11.661 4.136,11.542 4.470,11.229 5.100 C 10.965 5.630,10.861 5.775,10.402 6.255 C 10.188 6.478,9.957 6.744,9.888 6.846 C 9.710 7.108,9.444 7.328,9.204 7.412 C 9.091 7.452,8.843 7.601,8.653 7.744 C 8.463 7.887,8.285 7.995,8.256 7.984 C 8.123 7.933,7.091 7.214,7.020 7.123 C 6.650 6.647,6.065 6.457,5.702 6.695 C 5.537 6.803,4.998 7.661,4.539 8.544 C 4.401 8.810,4.184 9.188,4.058 9.384 C 3.825 9.744,3.680 10.078,3.680 10.255 C 3.680 10.308,3.627 10.466,3.562 10.606 C 3.431 10.887,3.334 11.373,3.377 11.541 C 3.401 11.638,3.417 11.647,3.532 11.625 C 3.763 11.580,4.226 11.325,4.375 11.160 C 4.543 10.974,4.554 10.873,4.434 10.625 L 4.348 10.447 4.436 10.298 C 4.485 10.215,4.542 10.057,4.563 9.945 C 4.622 9.633,4.728 9.458,5.157 8.964 C 5.375 8.714,5.613 8.404,5.686 8.276 C 5.810 8.060,5.831 8.042,5.963 8.041 C 6.122 8.040,6.187 8.096,6.399 8.420 C 6.470 8.530,6.711 8.795,6.933 9.008 C 7.155 9.222,7.326 9.407,7.313 9.420 C 7.300 9.433,7.185 9.397,7.057 9.340 C 6.744 9.202,6.085 9.038,5.733 9.011 C 5.472 8.991,5.429 8.999,5.262 9.097 C 5.145 9.165,5.023 9.287,4.929 9.430 C 4.784 9.649,4.780 9.663,4.787 9.997 C 4.791 10.186,4.831 10.565,4.876 10.840 C 4.921 11.115,4.977 11.511,5.000 11.720 C 5.024 11.929,5.069 12.189,5.101 12.297 C 5.134 12.406,5.160 12.570,5.160 12.662 C 5.160 12.793,5.190 12.866,5.301 13.004 C 5.379 13.101,5.519 13.351,5.613 13.560 C 5.793 13.961,6.041 14.355,6.216 14.518 C 6.425 14.712,6.644 14.508,6.726 14.043 C 6.817 13.522,6.688 13.183,6.360 13.085 C 6.125 13.014,6.040 12.915,6.040 12.709 C 6.040 12.604,5.984 12.400,5.896 12.183 C 5.768 11.869,5.748 11.771,5.717 11.305 C 5.698 11.016,5.655 10.681,5.622 10.560 C 5.566 10.353,5.566 10.336,5.637 10.265 C 5.728 10.174,5.845 10.195,6.042 10.337 C 6.118 10.391,6.324 10.526,6.500 10.635 C 6.676 10.745,6.938 10.909,7.083 11.000 C 7.228 11.091,7.375 11.215,7.411 11.276 C 7.506 11.436,7.769 11.605,8.075 11.701 L 8.340 11.785 8.660 12.265 C 9.061 12.867,9.315 13.183,9.687 13.545 C 10.140 13.987,10.999 14.688,11.655 15.152 C 12.209 15.545,12.480 15.806,12.480 15.946 C 12.480 16.045,12.400 16.002,12.149 15.770 C 11.718 15.372,10.991 14.876,10.928 14.938 C 10.913 14.954,10.894 15.147,10.886 15.368 C 10.875 15.677,10.892 15.856,10.960 16.150 C 11.103 16.769,11.476 17.633,11.885 18.291 C 11.992 18.465,12.080 18.633,12.080 18.665 C 12.080 18.794,11.918 19.039,11.815 19.065 C 11.663 19.103,9.747 19.052,9.413 19.001 C 9.179 18.965,9.078 18.968,8.861 19.018 C 8.715 19.052,8.482 19.080,8.343 19.080 C 7.705 19.080,7.000 19.363,7.000 19.618 C 7.000 19.891,8.162 20.266,8.338 20.050 C 8.369 20.012,8.442 19.921,8.501 19.850 C 8.617 19.708,8.725 19.688,8.946 19.768 C 9.055 19.807,9.144 19.802,9.441 19.742 C 10.014 19.626,10.767 19.701,11.869 19.984 C 12.161 20.059,12.471 20.120,12.560 20.120 C 12.699 20.120,12.732 20.102,12.800 19.990 C 12.928 19.781,12.905 19.534,12.716 19.066 C 12.511 18.558,12.442 18.236,12.441 17.788 C 12.439 17.140,12.595 16.596,12.959 15.981 C 13.090 15.761,13.227 15.490,13.264 15.380 C 13.382 15.028,13.399 14.995,13.445 15.023 C 13.502 15.059,13.461 15.432,13.377 15.633 C 13.344 15.714,13.215 15.958,13.090 16.177 C 12.411 17.368,12.519 18.595,13.437 20.116 C 13.549 20.301,13.640 20.500,13.640 20.559 C 13.640 20.781,13.149 21.278,12.201 22.017 C 11.828 22.307,11.677 22.452,11.601 22.591 C 11.545 22.693,11.419 22.837,11.320 22.910 C 10.837 23.266,10.732 23.357,10.631 23.503 C 10.393 23.849,10.485 23.947,11.088 23.986 C 11.477 24.012,11.785 23.969,12.022 23.856 C 12.185 23.779,12.212 23.713,12.160 23.520 C 12.105 23.317,12.131 23.268,12.358 23.145 C 12.513 23.061,12.571 22.997,12.653 22.823 C 12.864 22.377,13.812 21.519,14.448 21.196 C 14.574 21.132,14.696 21.045,14.718 21.003 C 14.798 20.855,14.768 20.472,14.663 20.278 C 14.474 19.933,14.432 19.823,14.411 19.618 C 14.368 19.198,14.546 18.908,15.066 18.554 C 15.722 18.107,16.055 17.810,16.358 17.400 C 16.631 17.031,16.760 16.753,16.839 16.361 C 16.893 16.095,16.925 16.017,16.982 16.006 C 17.158 15.971,17.212 16.320,17.101 16.780 C 17.036 17.049,17.022 17.590,17.078 17.678 C 17.106 17.722,17.120 17.709,17.138 17.618 C 17.151 17.553,17.200 17.383,17.249 17.240 C 17.297 17.097,17.346 16.910,17.358 16.824 C 17.383 16.646,17.498 16.542,17.561 16.640 C 17.582 16.673,17.599 16.814,17.599 16.953 C 17.600 17.247,17.496 17.541,17.213 18.040 C 16.988 18.436,16.956 18.639,17.086 18.840 L 17.176 18.980 17.203 18.774 C 17.231 18.563,17.282 18.475,17.679 17.960 C 18.118 17.390,18.270 16.615,18.035 16.152 C 17.994 16.070,17.960 15.972,17.960 15.935 C 17.960 15.876,17.974 15.880,18.058 15.958 C 18.229 16.119,18.293 16.313,18.323 16.767 C 18.347 17.126,18.370 17.228,18.463 17.398 C 18.591 17.634,18.649 17.618,18.599 17.360 C 18.546 17.091,18.554 16.881,18.624 16.680 C 18.699 16.467,18.681 16.235,18.563 15.898 C 18.517 15.769,18.480 15.660,18.480 15.658 C 18.480 15.655,18.556 15.630,18.650 15.603 C 19.241 15.430,19.784 14.882,19.990 14.248 C 20.122 13.845,20.136 13.143,20.025 12.522 C 19.968 12.202,19.957 12.017,19.978 11.730 C 20.012 11.264,20.062 11.119,20.319 10.754 C 20.547 10.430,20.661 10.106,20.622 9.897 C 20.608 9.821,20.578 9.760,20.556 9.760 C 20.534 9.760,20.448 9.909,20.364 10.090 C 20.200 10.444,19.890 10.885,19.732 10.989 C 19.579 11.089,19.505 10.987,19.505 10.671 C 19.505 10.360,19.630 10.067,19.937 9.663 C 20.055 9.508,20.200 9.282,20.260 9.163 C 20.373 8.937,20.416 8.601,20.335 8.573 C 20.310 8.564,20.183 8.724,20.051 8.928 C 19.831 9.272,19.181 9.960,19.077 9.960 C 19.057 9.960,19.040 9.842,19.040 9.699 C 19.040 9.200,19.312 8.631,19.798 8.110 C 19.953 7.944,20.080 7.798,20.080 7.784 C 20.080 7.713,19.933 7.785,19.653 7.993 C 19.145 8.372,18.831 8.764,18.639 9.260 C 18.559 9.466,18.546 9.576,18.543 10.040 C 18.540 10.535,18.551 10.616,18.669 11.020 C 18.843 11.615,18.927 12.168,18.927 12.720 C 18.928 13.615,18.778 14.068,18.337 14.510 C 18.011 14.837,17.491 15.099,17.168 15.099 L 16.954 15.100 16.824 14.714 C 16.667 14.247,16.523 14.001,16.091 13.460 C 15.713 12.987,15.464 12.755,14.900 12.348 C 14.055 11.739,13.441 10.954,13.162 10.127 C 13.040 9.763,13.055 9.080,13.186 9.080 C 13.217 9.080,13.309 9.124,13.391 9.178 C 13.473 9.233,13.639 9.298,13.760 9.323 C 14.038 9.382,14.147 9.438,14.497 9.705 C 14.757 9.903,14.920 9.972,14.920 9.885 C 14.920 9.865,14.875 9.820,14.821 9.784 C 14.766 9.748,14.686 9.650,14.643 9.566 C 14.544 9.372,14.330 9.183,14.140 9.120 C 13.910 9.044,14.031 8.990,14.271 9.061 C 14.394 9.098,14.556 9.190,14.669 9.288 C 14.849 9.444,14.861 9.449,14.873 9.365 C 14.895 9.215,14.375 8.793,14.046 8.694 C 13.870 8.641,13.659 8.527,13.687 8.500 C 13.720 8.467,14.493 8.686,14.800 8.815 C 15.204 8.985,15.448 9.002,15.708 8.876 C 15.870 8.798,15.994 8.660,15.945 8.612 C 15.934 8.600,15.865 8.627,15.792 8.671 C 15.630 8.769,15.416 8.809,15.270 8.769 C 15.209 8.753,15.047 8.630,14.910 8.496 C 14.705 8.296,14.610 8.236,14.380 8.160 C 13.978 8.026,13.672 7.885,13.698 7.844 C 13.710 7.824,13.832 7.844,13.970 7.888 C 14.173 7.952,14.288 7.963,14.579 7.946 C 14.906 7.926,14.960 7.933,15.170 8.028 C 15.298 8.085,15.415 8.119,15.430 8.103 C 15.446 8.087,15.429 8.057,15.392 8.037 C 15.356 8.016,15.233 7.920,15.120 7.824 C 14.921 7.654,14.688 7.560,14.465 7.560 C 14.410 7.560,14.352 7.539,14.336 7.514 C 14.279 7.422,14.807 7.502,15.041 7.621 C 15.304 7.754,15.688 7.785,15.711 7.675 C 15.720 7.628,15.685 7.602,15.586 7.584 C 15.510 7.569,15.358 7.487,15.249 7.400 C 15.122 7.299,14.966 7.220,14.815 7.181 C 14.574 7.118,14.399 7.017,14.367 6.921 C 14.341 6.844,14.589 6.899,14.728 7.001 C 14.841 7.083,15.040 7.109,15.040 7.041 C 15.040 7.020,14.988 6.975,14.924 6.942 C 14.808 6.882,14.624 6.683,14.655 6.651 C 14.664 6.642,14.795 6.697,14.946 6.772 C 15.097 6.848,15.265 6.923,15.320 6.940 C 15.375 6.957,15.496 7.040,15.589 7.125 C 15.682 7.210,15.776 7.280,15.797 7.280 C 15.876 7.280,15.875 7.208,15.795 7.135 C 15.749 7.094,15.684 7.006,15.650 6.940 C 15.530 6.708,15.350 6.526,15.119 6.403 C 14.990 6.334,14.827 6.205,14.756 6.115 C 14.683 6.023,14.551 5.919,14.453 5.877 C 14.079 5.717,14.341 5.665,14.814 5.805 C 15.019 5.866,15.145 5.933,15.260 6.041 C 15.483 6.251,15.640 6.320,15.896 6.320 C 16.247 6.320,16.225 6.211,15.852 6.100 C 15.622 6.032,15.556 5.969,15.448 5.720 C 15.357 5.511,15.264 5.417,14.917 5.187 C 14.661 5.018,14.498 4.843,14.525 4.766 C 14.534 4.742,14.679 4.790,14.868 4.879 C 15.048 4.964,15.295 5.062,15.418 5.098 C 15.540 5.133,15.703 5.218,15.781 5.286 C 15.879 5.372,15.977 5.416,16.101 5.430 C 16.317 5.455,16.341 5.389,16.153 5.288 C 16.084 5.251,15.933 5.125,15.819 5.010 C 15.705 4.894,15.593 4.800,15.569 4.800 C 15.546 4.800,15.472 4.711,15.406 4.603 C 15.269 4.381,15.045 4.230,14.688 4.120 C 14.557 4.079,14.460 4.026,14.460 3.995 C 14.460 3.895,14.665 3.914,14.905 4.035 C 15.034 4.101,15.266 4.183,15.420 4.218 C 15.574 4.254,15.770 4.306,15.856 4.336 C 16.015 4.391,16.204 4.369,16.229 4.293 C 16.237 4.270,16.181 4.241,16.105 4.229 C 16.030 4.216,15.899 4.162,15.814 4.107 C 15.729 4.053,15.569 3.979,15.458 3.944 C 15.318 3.899,15.195 3.817,15.060 3.680 C 14.953 3.571,14.876 3.471,14.890 3.457 C 14.904 3.443,14.996 3.489,15.094 3.560 C 15.300 3.708,15.527 3.748,15.799 3.685 C 15.947 3.652,16.006 3.657,16.139 3.716 C 16.228 3.756,16.334 3.827,16.376 3.874 C 16.462 3.971,16.520 3.985,16.520 3.908 C 16.520 3.837,16.249 3.584,16.084 3.500 C 16.008 3.462,15.802 3.406,15.626 3.375 C 15.266 3.312,15.151 3.236,15.044 2.987 C 14.993 2.868,14.925 2.805,14.742 2.707 C 14.498 2.576,14.416 2.480,14.548 2.480 C 14.589 2.480,14.802 2.536,15.022 2.605 C 15.369 2.714,15.457 2.727,15.708 2.705 C 15.971 2.683,16.017 2.692,16.248 2.801 C 16.678 3.004,16.721 2.947,16.354 2.662 C 16.067 2.439,15.907 2.365,15.662 2.342 C 15.547 2.331,15.390 2.268,15.212 2.161 C 15.063 2.070,14.837 1.965,14.710 1.928 C 14.584 1.891,14.486 1.842,14.493 1.821 C 14.500 1.799,14.640 1.739,14.803 1.687 C 15.046 1.610,15.122 1.601,15.223 1.637 C 15.496 1.733,15.570 1.631,15.347 1.464 C 15.250 1.391,15.161 1.377,14.698 1.359 L 14.161 1.338 13.971 1.153 C 13.728 0.918,13.571 0.840,13.309 0.825 C 13.114 0.813,13.083 0.796,12.859 0.576 C 12.726 0.446,12.526 0.265,12.414 0.173 L 12.211 0.005 12.140 0.241 M13.457 1.144 C 13.492 1.158,13.520 1.204,13.520 1.247 C 13.520 1.310,13.502 1.320,13.430 1.298 C 13.294 1.257,13.251 1.203,13.320 1.159 C 13.392 1.113,13.380 1.115,13.457 1.144 M11.967 1.746 C 12.007 1.783,12.040 1.838,12.040 1.869 C 12.040 1.911,12.013 1.905,11.935 1.843 C 11.877 1.797,11.795 1.760,11.752 1.760 C 11.710 1.760,11.686 1.742,11.700 1.720 C 11.738 1.658,11.886 1.673,11.967 1.746 M13.760 1.760 C 13.795 1.825,13.790 1.840,13.739 1.840 C 13.642 1.840,13.515 1.761,13.541 1.718 C 13.582 1.651,13.716 1.677,13.760 1.760 M10.797 2.024 C 10.650 2.174,10.366 2.295,10.062 2.335 C 9.806 2.368,9.865 2.314,10.206 2.203 C 10.352 2.155,10.568 2.048,10.686 1.966 C 10.932 1.792,10.991 1.823,10.797 2.024 M11.778 1.905 C 11.851 1.933,11.960 2.122,11.960 2.219 C 11.960 2.322,11.850 2.334,11.736 2.244 C 11.677 2.198,11.577 2.160,11.513 2.160 C 11.358 2.160,11.318 2.051,11.438 1.954 C 11.530 1.879,11.661 1.860,11.778 1.905 M14.150 2.343 C 14.200 2.353,14.240 2.381,14.240 2.405 C 14.240 2.431,14.197 2.441,14.134 2.429 C 14.075 2.418,13.957 2.442,13.864 2.484 C 13.774 2.525,13.678 2.559,13.650 2.559 C 13.602 2.560,13.578 2.356,13.621 2.313 C 13.642 2.291,13.995 2.311,14.150 2.343 M8.993 2.910 C 9.001 2.969,8.985 3.000,8.946 3.000 C 8.913 3.000,8.831 3.047,8.763 3.104 L 8.640 3.207 8.640 3.092 C 8.640 2.922,8.746 2.793,8.874 2.808 C 8.949 2.816,8.984 2.847,8.993 2.910 M14.086 2.957 C 14.211 3.058,14.160 3.099,13.983 3.041 C 13.843 2.995,13.813 2.960,13.867 2.907 C 13.913 2.860,13.988 2.877,14.086 2.957 M11.895 3.230 C 11.666 3.512,11.641 3.528,11.429 3.512 L 11.260 3.500 11.500 3.371 C 11.632 3.301,11.803 3.189,11.880 3.122 C 12.095 2.938,12.100 2.977,11.895 3.230 M9.872 3.230 C 9.856 3.316,9.720 3.349,9.720 3.266 C 9.720 3.211,9.772 3.171,9.853 3.163 C 9.871 3.161,9.880 3.191,9.872 3.230 M12.480 3.480 C 12.435 3.564,12.289 3.640,12.171 3.640 C 12.136 3.640,12.179 3.588,12.270 3.523 C 12.359 3.458,12.446 3.382,12.463 3.355 C 12.516 3.270,12.531 3.385,12.480 3.480 M14.121 3.410 L 14.206 3.500 14.120 3.513 C 14.020 3.529,13.827 3.413,13.861 3.358 C 13.903 3.291,14.034 3.317,14.121 3.410 M12.635 3.690 C 12.566 3.823,12.524 3.839,12.260 3.837 L 12.020 3.836 12.241 3.765 C 12.362 3.726,12.497 3.674,12.541 3.648 C 12.661 3.579,12.688 3.591,12.635 3.690 M14.167 3.826 C 14.282 3.930,14.262 4.014,14.130 3.982 C 13.979 3.944,13.832 3.845,13.861 3.798 C 13.899 3.737,14.087 3.754,14.167 3.826 M14.147 4.367 C 14.198 4.415,14.240 4.470,14.240 4.490 C 14.240 4.536,14.003 4.486,13.907 4.419 C 13.835 4.369,13.835 4.366,13.907 4.325 C 14.012 4.264,14.044 4.269,14.147 4.367 M12.447 5.170 C 12.391 5.499,12.272 5.770,12.052 6.063 C 11.797 6.403,11.524 6.697,11.493 6.666 C 11.476 6.650,11.483 6.606,11.507 6.568 C 12.030 5.751,12.072 5.669,12.381 4.843 C 12.398 4.800,12.414 4.798,12.449 4.833 C 12.485 4.869,12.485 4.949,12.447 5.170 M14.111 4.862 C 14.160 4.896,14.219 4.962,14.244 5.007 C 14.286 5.087,14.281 5.089,14.134 5.062 C 14.049 5.047,13.936 5.006,13.883 4.972 C 13.790 4.912,13.789 4.907,13.861 4.855 C 13.957 4.784,14.002 4.786,14.111 4.862 M14.080 5.420 C 14.192 5.539,14.169 5.577,14.006 5.541 C 13.871 5.512,13.780 5.425,13.819 5.362 C 13.863 5.290,13.982 5.316,14.080 5.420 M13.992 5.848 C 14.065 5.921,14.050 5.960,13.950 5.959 C 13.831 5.959,13.743 5.900,13.777 5.844 C 13.814 5.786,13.932 5.788,13.992 5.848 M13.940 6.320 C 14.011 6.398,14.010 6.400,13.911 6.400 C 13.792 6.400,13.685 6.300,13.768 6.267 C 13.853 6.233,13.864 6.237,13.940 6.320 M13.840 6.740 C 13.881 6.789,13.878 6.800,13.828 6.800 C 13.737 6.800,13.640 6.757,13.640 6.716 C 13.640 6.657,13.786 6.675,13.840 6.740 M6.223 6.924 C 6.257 6.980,6.169 7.039,6.050 7.039 C 5.943 7.040,5.932 6.980,6.030 6.923 C 6.122 6.869,6.189 6.870,6.223 6.924 M13.742 7.057 C 13.785 7.088,13.809 7.124,13.795 7.138 C 13.756 7.177,13.553 7.084,13.580 7.040 C 13.613 6.986,13.651 6.990,13.742 7.057 M13.630 7.470 C 13.653 7.538,13.592 7.533,13.498 7.459 C 13.422 7.400,13.423 7.398,13.517 7.409 C 13.570 7.415,13.621 7.442,13.630 7.470 M10.913 7.624 C 11.028 7.681,11.141 7.765,11.165 7.809 C 11.214 7.901,11.221 7.901,10.801 7.782 C 10.543 7.709,10.226 7.702,9.976 7.765 C 9.777 7.815,9.713 7.790,9.807 7.696 C 9.909 7.594,10.165 7.524,10.442 7.522 C 10.647 7.520,10.750 7.543,10.913 7.624 M5.360 7.722 C 5.360 7.803,5.002 8.369,4.918 8.421 C 4.830 8.476,4.838 8.402,4.943 8.194 C 5.081 7.920,5.273 7.640,5.322 7.640 C 5.343 7.640,5.360 7.677,5.360 7.722 M13.480 7.800 C 13.480 7.822,13.454 7.840,13.422 7.840 C 13.391 7.840,13.354 7.822,13.340 7.800 C 13.326 7.778,13.352 7.760,13.398 7.760 C 13.443 7.760,13.480 7.778,13.480 7.800 M6.788 8.170 C 6.911 8.304,7.007 8.511,6.960 8.540 C 6.938 8.554,6.904 8.555,6.884 8.542 C 6.836 8.513,6.600 8.156,6.600 8.113 C 6.600 8.049,6.707 8.081,6.788 8.170 M13.340 8.160 C 13.354 8.182,13.338 8.200,13.305 8.200 C 13.272 8.200,13.234 8.182,13.220 8.160 C 13.206 8.138,13.222 8.120,13.255 8.120 C 13.288 8.120,13.326 8.138,13.340 8.160 M8.355 8.596 C 8.325 8.638,8.183 8.844,8.040 9.055 C 7.897 9.265,7.775 9.421,7.768 9.402 C 7.746 9.339,8.045 8.784,8.172 8.650 C 8.311 8.504,8.451 8.462,8.355 8.596 M5.360 9.338 C 5.360 9.398,5.260 9.559,5.212 9.578 C 5.169 9.594,5.161 9.578,5.182 9.510 C 5.215 9.402,5.277 9.320,5.325 9.320 C 5.344 9.320,5.360 9.328,5.360 9.338 M3.981 9.957 C 3.946 10.025,3.898 10.080,3.875 10.080 C 3.815 10.080,3.868 9.880,3.953 9.786 C 4.010 9.722,4.022 9.721,4.032 9.773 C 4.039 9.807,4.016 9.890,3.981 9.957 M12.685 10.224 C 12.719 10.503,12.784 10.695,12.949 11.000 C 13.130 11.335,13.264 11.510,13.636 11.890 C 13.802 12.060,13.918 12.200,13.893 12.200 C 13.814 12.200,13.368 11.842,13.171 11.620 C 12.784 11.186,12.523 10.618,12.521 10.207 C 12.520 10.026,12.530 9.996,12.590 10.008 C 12.641 10.018,12.667 10.075,12.685 10.224 M6.628 10.281 C 6.909 10.408,7.160 10.579,7.160 10.642 C 7.160 10.718,7.010 10.677,6.778 10.536 C 6.647 10.456,6.462 10.357,6.367 10.316 C 6.273 10.274,6.206 10.223,6.220 10.200 C 6.260 10.136,6.345 10.152,6.628 10.281 M5.220 10.990 C 5.234 11.117,5.269 11.332,5.299 11.470 C 5.360 11.759,5.319 11.793,5.197 11.553 C 5.083 11.331,5.036 10.760,5.131 10.760 C 5.178 10.760,5.201 10.818,5.220 10.990 M3.712 11.103 C 3.718 11.146,3.697 11.216,3.664 11.260 C 3.610 11.334,3.604 11.335,3.579 11.270 C 3.541 11.173,3.592 10.991,3.651 11.010 C 3.678 11.019,3.705 11.061,3.712 11.103 M9.690 12.500 C 9.921 12.764,10.390 13.258,10.733 13.598 C 11.077 13.938,11.351 14.223,11.342 14.231 C 11.289 14.284,10.607 13.769,10.166 13.343 C 9.601 12.797,9.000 12.017,9.064 11.913 C 9.100 11.855,9.250 11.995,9.690 12.500 M19.472 12.743 C 19.504 12.908,19.519 13.200,19.510 13.466 C 19.496 13.872,19.484 13.935,19.365 14.175 C 19.169 14.573,18.542 15.173,18.460 15.041 C 18.422 14.979,18.511 14.847,18.782 14.558 C 19.232 14.079,19.387 13.600,19.336 12.846 C 19.313 12.499,19.318 12.433,19.364 12.448 C 19.397 12.459,19.442 12.580,19.472 12.743 M13.950 13.600 C 13.957 13.635,13.888 13.704,13.785 13.766 C 13.649 13.848,13.596 13.912,13.551 14.046 C 13.489 14.234,13.388 14.278,13.367 14.126 C 13.346 13.983,13.389 13.859,13.507 13.719 C 13.669 13.527,13.924 13.458,13.950 13.600 M6.250 14.072 C 6.335 14.145,6.342 14.240,6.262 14.240 C 6.198 14.240,6.080 14.091,6.080 14.009 C 6.080 13.952,6.133 13.971,6.250 14.072 M16.483 15.583 C 16.585 15.707,16.414 16.380,16.279 16.380 C 16.242 16.380,16.225 16.350,16.234 16.300 C 16.241 16.256,16.256 16.085,16.266 15.920 C 16.276 15.755,16.292 15.598,16.301 15.570 C 16.324 15.501,16.420 15.508,16.483 15.583 M13.240 16.851 C 13.240 16.858,13.203 16.969,13.157 17.098 C 13.112 17.227,13.078 17.416,13.081 17.516 C 13.084 17.617,13.085 17.736,13.082 17.780 C 13.073 17.935,12.973 17.735,12.946 17.508 C 12.910 17.199,13.036 16.840,13.181 16.840 C 13.213 16.840,13.240 16.845,13.240 16.851 M12.440 18.996 C 12.440 19.033,12.345 19.080,12.272 19.080 C 12.247 19.080,12.250 19.056,12.280 19.020 C 12.334 18.955,12.440 18.938,12.440 18.996 M9.580 19.200 C 9.594 19.223,9.560 19.240,9.500 19.240 C 9.440 19.240,9.406 19.223,9.420 19.200 C 9.434 19.178,9.470 19.160,9.500 19.160 C 9.530 19.160,9.566 19.178,9.580 19.200 M10.892 19.267 C 11.567 19.297,11.578 19.367,10.911 19.391 C 10.441 19.408,10.164 19.356,10.128 19.244 C 10.114 19.202,10.136 19.195,10.225 19.216 C 10.288 19.230,10.589 19.253,10.892 19.267 M7.791 19.327 C 7.761 19.418,7.651 19.459,7.584 19.403 C 7.549 19.374,7.531 19.335,7.543 19.315 C 7.577 19.261,7.809 19.272,7.791 19.327 M14.520 20.795 C 14.520 20.846,14.403 20.936,14.374 20.907 C 14.333 20.866,14.394 20.760,14.459 20.760 C 14.492 20.760,14.520 20.776,14.520 20.795 M13.720 21.097 C 13.720 21.179,12.830 22.040,12.745 22.040 C 12.731 22.040,12.720 22.016,12.720 21.988 C 12.720 21.912,13.576 21.080,13.654 21.080 C 13.690 21.080,13.720 21.088,13.720 21.097 M12.173 22.387 C 12.209 22.422,12.082 22.560,12.014 22.560 C 11.942 22.560,11.946 22.522,12.026 22.433 C 12.097 22.355,12.131 22.344,12.173 22.387 M11.153 23.453 C 11.161 23.493,11.140 23.520,11.102 23.520 C 11.067 23.520,11.021 23.565,11.000 23.620 C 10.956 23.736,10.840 23.755,10.840 23.646 C 10.840 23.552,11.025 23.348,11.091 23.370 C 11.118 23.379,11.146 23.417,11.153 23.453 " stroke="none" fill="black" fill-rule="evenodd"></path></svg>