<svg role="img" xmlns="http://www.w3.org/2000/svg" viewBox="0 0 24 24"><path d="M11.665 0.059 C 11.162 0.238,10.889 0.799,11.047 1.328 C 11.109 1.534,11.358 1.812,11.573 1.917 C 11.777 2.015,12.173 2.029,12.374 1.945 C 12.581 1.858,12.804 1.638,12.906 1.420 C 13.275 0.627,12.489 -0.235,11.665 0.059 M8.413 0.562 C 8.171 0.610,8.030 0.694,7.852 0.896 C 7.195 1.642,7.928 2.786,8.884 2.506 C 9.608 2.294,9.848 1.374,9.316 0.843 C 9.083 0.609,8.730 0.499,8.413 0.562 M15.189 0.564 C 14.531 0.718,14.204 1.415,14.512 2.005 C 14.974 2.890,16.299 2.633,16.389 1.640 C 16.450 0.975,15.825 0.414,15.189 0.564 M10.156 2.093 C 9.396 2.494,9.678 3.680,10.534 3.680 C 11.012 3.680,11.398 3.304,11.398 2.840 C 11.398 2.217,10.708 1.802,10.156 2.093 M13.100 2.072 C 12.237 2.476,12.588 3.751,13.540 3.672 C 14.304 3.608,14.562 2.588,13.927 2.142 C 13.708 1.988,13.345 1.958,13.100 2.072 M18.317 2.124 C 17.919 2.184,17.610 2.446,17.499 2.817 C 17.425 3.065,17.425 3.136,17.502 3.395 C 17.575 3.639,17.782 3.888,18.017 4.012 C 18.245 4.132,18.675 4.132,18.903 4.012 C 19.138 3.888,19.345 3.639,19.418 3.395 C 19.495 3.136,19.495 3.065,19.421 2.817 C 19.281 2.347,18.808 2.050,18.317 2.124 M5.097 2.215 C 4.850 2.330,4.657 2.554,4.579 2.817 C 4.505 3.065,4.505 3.136,4.582 3.395 C 4.655 3.639,4.862 3.888,5.097 4.012 C 5.325 4.132,5.755 4.132,5.983 4.012 C 6.218 3.888,6.425 3.639,6.498 3.395 C 6.575 3.136,6.575 3.065,6.501 2.817 C 6.329 2.239,5.661 1.953,5.097 2.215 M7.505 2.936 C 7.321 3.005,7.107 3.202,7.022 3.382 C 6.988 3.454,6.960 3.614,6.960 3.738 C 6.960 4.626,8.140 4.908,8.535 4.115 C 8.693 3.798,8.665 3.497,8.452 3.210 C 8.259 2.950,7.815 2.822,7.505 2.936 M15.837 2.990 C 15.553 3.134,15.404 3.346,15.372 3.651 C 15.352 3.844,15.365 3.909,15.459 4.101 C 15.853 4.907,17.040 4.636,17.040 3.740 C 17.040 3.454,16.972 3.296,16.769 3.113 C 16.487 2.858,16.178 2.818,15.837 2.990 M11.687 3.646 C 11.273 3.851,11.168 4.366,11.468 4.722 C 11.611 4.892,11.764 4.960,12.000 4.960 C 12.238 4.960,12.389 4.892,12.534 4.720 C 12.830 4.368,12.721 3.844,12.310 3.645 C 12.088 3.537,11.906 3.537,11.687 3.646 M9.295 4.017 C 9.096 4.104,8.949 4.330,8.928 4.583 C 8.906 4.851,8.963 4.998,9.162 5.177 C 9.503 5.485,10.018 5.381,10.230 4.961 C 10.342 4.739,10.344 4.555,10.236 4.332 C 10.081 4.012,9.644 3.866,9.295 4.017 M14.013 4.061 C 13.703 4.247,13.593 4.664,13.771 4.979 C 14.001 5.384,14.505 5.478,14.838 5.177 C 15.037 4.998,15.094 4.851,15.072 4.583 C 15.029 4.063,14.469 3.787,14.013 4.061 M2.829 4.577 C 2.246 4.734,1.949 5.412,2.215 5.982 C 2.561 6.726,3.619 6.727,4.012 5.983 C 4.132 5.755,4.132 5.325,4.012 5.097 C 3.888 4.862,3.639 4.655,3.395 4.582 C 3.148 4.509,3.083 4.508,2.829 4.577 M20.567 4.594 C 20.326 4.680,20.113 4.866,19.988 5.100 C 19.868 5.324,19.869 5.756,19.988 5.983 C 20.381 6.727,21.439 6.726,21.785 5.982 C 22.166 5.164,21.405 4.297,20.567 4.594 M5.100 4.674 C 4.646 4.890,4.471 5.411,4.705 5.843 C 4.859 6.126,5.066 6.255,5.395 6.272 C 5.724 6.290,5.960 6.179,6.140 5.923 C 6.248 5.770,6.260 5.723,6.260 5.443 C 6.260 5.170,6.247 5.114,6.151 4.977 C 5.980 4.732,5.792 4.625,5.505 4.610 C 5.326 4.601,5.217 4.618,5.100 4.674 M18.140 4.717 C 18.030 4.781,17.895 4.901,17.840 4.984 C 17.755 5.112,17.740 5.180,17.740 5.444 C 17.740 5.723,17.752 5.770,17.860 5.923 C 18.040 6.179,18.276 6.290,18.605 6.272 C 18.934 6.255,19.141 6.126,19.295 5.843 C 19.698 5.102,18.868 4.293,18.140 4.717 M7.180 5.097 C 7.031 5.163,6.859 5.344,6.803 5.493 C 6.694 5.779,6.803 6.152,7.046 6.325 C 7.232 6.456,7.574 6.475,7.789 6.366 C 8.178 6.167,8.279 5.624,7.989 5.293 C 7.777 5.052,7.455 4.974,7.180 5.097 M10.827 5.098 C 10.481 5.221,10.302 5.575,10.445 5.853 C 10.714 6.376,11.403 6.330,11.555 5.779 C 11.630 5.509,11.479 5.209,11.211 5.095 C 11.055 5.028,11.022 5.029,10.827 5.098 M12.777 5.097 C 12.528 5.205,12.374 5.522,12.445 5.779 C 12.600 6.340,13.352 6.372,13.557 5.827 C 13.660 5.556,13.532 5.252,13.260 5.120 C 13.069 5.027,12.949 5.022,12.777 5.097 M16.259 5.096 C 16.090 5.170,15.889 5.412,15.857 5.581 C 15.764 6.076,16.106 6.468,16.599 6.432 C 16.871 6.413,17.047 6.301,17.161 6.078 C 17.460 5.491,16.858 4.835,16.259 5.096 M8.778 5.755 C 8.270 6.065,8.483 6.840,9.076 6.840 C 9.551 6.839,9.814 6.347,9.561 5.932 C 9.419 5.698,9.020 5.607,8.778 5.755 M14.645 5.748 C 14.377 5.880,14.267 6.210,14.395 6.499 C 14.630 7.028,15.413 6.923,15.506 6.350 C 15.538 6.155,15.403 5.865,15.233 5.761 C 15.071 5.663,14.829 5.658,14.645 5.748 M11.751 6.263 C 11.536 6.379,11.456 6.699,11.585 6.918 C 11.831 7.335,12.473 7.169,12.479 6.688 C 12.483 6.312,12.086 6.080,11.751 6.263 M10.217 6.516 C 9.882 6.668,9.776 6.991,9.981 7.234 C 10.196 7.490,10.566 7.475,10.749 7.204 C 10.909 6.965,10.852 6.699,10.604 6.531 C 10.441 6.422,10.425 6.421,10.217 6.516 M13.396 6.531 C 13.148 6.699,13.091 6.965,13.251 7.204 C 13.430 7.469,13.808 7.485,14.017 7.236 C 14.235 6.978,14.101 6.574,13.767 6.481 C 13.566 6.425,13.551 6.427,13.396 6.531 M5.420 6.835 C 4.959 7.121,4.912 7.671,5.319 8.013 C 5.634 8.278,6.175 8.162,6.366 7.789 C 6.475 7.574,6.456 7.232,6.325 7.046 C 6.135 6.780,5.680 6.674,5.420 6.835 M17.913 6.841 C 17.469 7.076,17.436 7.778,17.857 8.038 C 18.141 8.214,18.473 8.194,18.707 7.989 C 19.099 7.645,19.022 7.062,18.552 6.816 C 18.399 6.737,18.088 6.749,17.913 6.841 M7.260 6.900 C 6.834 7.051,6.725 7.580,7.060 7.874 C 7.136 7.941,7.260 8.008,7.336 8.022 C 7.730 8.096,8.096 7.729,8.021 7.334 C 7.989 7.160,7.734 6.880,7.608 6.880 C 7.563 6.880,7.503 6.872,7.473 6.862 C 7.444 6.852,7.348 6.869,7.260 6.900 M16.407 6.881 C 16.169 6.935,15.960 7.207,15.960 7.463 C 15.960 7.768,16.327 8.075,16.632 8.026 C 16.917 7.980,17.126 7.747,17.130 7.470 C 17.136 7.075,16.790 6.793,16.407 6.881 M3.569 6.964 C 3.148 7.043,2.831 7.480,2.897 7.892 C 2.951 8.230,3.166 8.491,3.476 8.594 C 3.692 8.667,3.888 8.648,4.117 8.534 C 4.603 8.292,4.736 7.680,4.393 7.264 C 4.187 7.014,3.886 6.904,3.569 6.964 M20.100 6.960 C 19.781 7.032,19.519 7.283,19.441 7.592 C 19.282 8.223,19.906 8.801,20.524 8.594 C 20.834 8.491,21.049 8.230,21.103 7.892 C 21.189 7.355,20.634 6.839,20.100 6.960 M8.648 7.267 C 8.485 7.347,8.400 7.504,8.400 7.722 C 8.400 7.857,8.425 7.913,8.536 8.024 C 8.654 8.142,8.698 8.160,8.872 8.160 C 9.036 8.160,9.093 8.140,9.193 8.047 C 9.431 7.824,9.391 7.451,9.111 7.280 C 8.953 7.184,8.824 7.180,8.648 7.267 M14.889 7.280 C 14.609 7.451,14.569 7.824,14.807 8.047 C 14.907 8.140,14.964 8.160,15.128 8.160 C 15.302 8.160,15.346 8.142,15.464 8.024 C 15.575 7.913,15.600 7.857,15.600 7.722 C 15.600 7.501,15.513 7.345,15.346 7.265 C 15.164 7.179,15.048 7.183,14.889 7.280 M11.113 7.348 C 10.765 7.564,10.930 8.080,11.346 8.080 C 11.482 8.080,11.720 7.842,11.720 7.706 C 11.720 7.374,11.387 7.178,11.113 7.348 M12.455 7.351 C 12.344 7.441,12.280 7.568,12.280 7.701 C 12.280 7.844,12.515 8.080,12.658 8.080 C 13.026 8.080,13.218 7.652,12.963 7.397 C 12.826 7.260,12.593 7.239,12.455 7.351 M1.140 7.693 C 0.756 7.880,0.552 8.196,0.552 8.603 C 0.552 8.875,0.654 9.128,0.838 9.312 C 1.031 9.505,1.188 9.571,1.500 9.590 C 1.750 9.606,1.804 9.595,1.999 9.492 C 2.382 9.290,2.604 8.872,2.543 8.464 C 2.504 8.203,2.293 7.883,2.071 7.746 C 1.799 7.578,1.420 7.557,1.140 7.693 M22.151 7.640 C 21.956 7.698,21.762 7.843,21.639 8.021 C 21.284 8.537,21.447 9.200,22.001 9.492 C 22.196 9.595,22.250 9.606,22.500 9.590 C 22.812 9.571,22.969 9.505,23.162 9.312 C 23.535 8.939,23.547 8.304,23.188 7.925 C 22.932 7.655,22.497 7.536,22.151 7.640 M9.879 7.755 C 9.803 7.796,9.707 7.885,9.667 7.954 C 9.604 8.060,9.600 8.100,9.640 8.219 C 9.700 8.401,9.817 8.480,10.025 8.480 C 10.428 8.480,10.545 7.916,10.178 7.742 C 10.019 7.666,10.047 7.665,9.879 7.755 M13.815 7.743 C 13.584 7.857,13.531 8.151,13.704 8.357 C 13.789 8.458,13.837 8.480,13.975 8.480 C 14.188 8.480,14.306 8.397,14.363 8.205 C 14.423 8.006,14.333 7.818,14.139 7.737 C 13.972 7.667,13.969 7.667,13.815 7.743 M7.435 8.460 C 7.320 8.523,7.200 8.740,7.200 8.886 C 7.200 9.030,7.344 9.234,7.495 9.306 C 7.681 9.395,7.900 9.350,8.047 9.193 C 8.140 9.093,8.160 9.036,8.160 8.872 C 8.160 8.698,8.142 8.654,8.024 8.536 C 7.910 8.422,7.860 8.400,7.714 8.402 C 7.618 8.402,7.493 8.429,7.435 8.460 M15.976 8.536 C 15.858 8.654,15.840 8.698,15.840 8.872 C 15.840 9.036,15.860 9.093,15.953 9.193 C 16.176 9.431,16.549 9.391,16.720 9.111 C 16.817 8.952,16.821 8.836,16.735 8.654 C 16.655 8.487,16.499 8.400,16.278 8.400 C 16.143 8.400,16.087 8.425,15.976 8.536 M5.999 8.554 C 5.708 8.709,5.601 9.042,5.745 9.345 C 5.930 9.735,6.495 9.770,6.741 9.407 C 7.079 8.910,6.526 8.274,5.999 8.554 M17.481 8.548 C 17.040 8.777,17.052 9.406,17.501 9.605 C 18.003 9.826,18.480 9.339,18.265 8.825 C 18.147 8.542,17.757 8.405,17.481 8.548 M8.625 8.625 C 8.425 8.826,8.511 9.191,8.780 9.280 C 9.226 9.427,9.523 8.760,9.092 8.579 C 8.882 8.492,8.746 8.505,8.625 8.625 M14.917 8.611 C 14.705 8.754,14.657 8.868,14.734 9.052 C 14.816 9.249,15.022 9.345,15.220 9.280 C 15.400 9.221,15.487 9.078,15.472 8.869 C 15.462 8.731,15.437 8.687,15.324 8.611 C 15.154 8.497,15.086 8.497,14.917 8.611 M4.327 8.987 C 3.983 9.157,3.852 9.629,4.055 9.975 C 4.243 10.297,4.620 10.403,4.961 10.230 C 5.483 9.967,5.480 9.249,4.956 8.978 C 4.808 8.901,4.492 8.906,4.327 8.987 M19.018 8.992 C 18.511 9.311,18.523 9.966,19.040 10.233 C 19.510 10.475,20.040 10.141,20.040 9.603 C 20.040 9.352,19.967 9.200,19.775 9.054 C 19.583 8.907,19.203 8.876,19.018 8.992 M7.895 9.676 C 7.661 9.819,7.638 10.124,7.848 10.300 C 8.006 10.433,8.196 10.432,8.357 10.296 C 8.456 10.213,8.480 10.162,8.480 10.034 C 8.480 9.823,8.422 9.725,8.258 9.657 C 8.082 9.583,8.045 9.585,7.895 9.676 M15.780 9.647 C 15.588 9.753,15.520 9.851,15.520 10.023 C 15.520 10.352,15.895 10.517,16.153 10.300 C 16.218 10.245,16.283 10.155,16.296 10.100 C 16.333 9.956,16.226 9.736,16.085 9.663 C 15.943 9.589,15.889 9.586,15.780 9.647 M2.668 9.721 C 2.584 9.736,2.441 9.800,2.351 9.864 C 1.910 10.175,1.881 10.827,2.293 11.188 C 2.864 11.689,3.736 11.231,3.672 10.463 C 3.631 9.968,3.174 9.630,2.668 9.721 M20.953 9.738 C 20.569 9.837,20.319 10.155,20.321 10.543 C 20.324 11.281,21.176 11.666,21.720 11.175 C 22.141 10.795,22.074 10.102,21.591 9.827 C 21.373 9.703,21.189 9.677,20.953 9.738 M6.626 10.000 C 6.378 10.218,6.408 10.589,6.688 10.759 C 6.945 10.916,7.270 10.810,7.386 10.531 C 7.578 10.072,7.002 9.670,6.626 10.000 M16.920 9.925 C 16.653 10.032,16.518 10.302,16.616 10.536 C 16.845 11.086,17.707 10.786,17.520 10.221 C 17.431 9.949,17.175 9.823,16.920 9.925 M5.354 10.481 C 5.154 10.586,5.022 10.857,5.061 11.083 C 5.117 11.420,5.454 11.645,5.770 11.558 C 6.329 11.403,6.380 10.716,5.853 10.445 C 5.724 10.379,5.519 10.393,5.354 10.481 M18.137 10.476 C 17.842 10.610,17.719 10.858,17.798 11.154 C 17.914 11.583,18.501 11.715,18.796 11.378 C 19.044 11.096,18.965 10.646,18.637 10.479 C 18.447 10.381,18.346 10.381,18.137 10.476 M7.397 11.037 C 7.144 11.290,7.333 11.720,7.699 11.720 C 7.838 11.720,8.033 11.538,8.062 11.382 C 8.133 11.003,7.670 10.763,7.397 11.037 M16.176 10.959 C 16.022 11.021,15.910 11.205,15.935 11.356 C 15.996 11.731,16.494 11.841,16.662 11.516 C 16.845 11.163,16.539 10.812,16.176 10.959 M0.555 11.112 C -0.221 11.517,-0.164 12.598,0.651 12.939 C 1.114 13.132,1.743 12.858,1.945 12.374 C 2.016 12.205,2.016 11.795,1.945 11.626 C 1.722 11.091,1.062 10.847,0.555 11.112 M22.649 11.050 C 22.463 11.110,22.162 11.387,22.075 11.578 C 21.972 11.807,21.975 12.204,22.083 12.427 C 22.326 12.928,22.940 13.142,23.432 12.896 C 24.182 12.523,24.182 11.477,23.432 11.104 C 23.207 10.991,22.898 10.970,22.649 11.050 M4.072 11.320 C 3.793 11.403,3.560 11.714,3.560 12.000 C 3.560 12.311,3.831 12.634,4.147 12.699 C 4.412 12.753,4.769 12.573,4.901 12.317 C 4.976 12.173,4.977 11.829,4.904 11.688 C 4.746 11.384,4.386 11.225,4.072 11.320 M19.506 11.337 C 19.330 11.402,19.177 11.532,19.096 11.688 C 19.023 11.829,19.024 12.173,19.099 12.317 C 19.231 12.573,19.588 12.753,19.853 12.699 C 20.169 12.634,20.440 12.311,20.440 12.000 C 20.440 11.536,19.936 11.178,19.506 11.337 M6.431 11.583 C 6.125 11.748,6.130 12.260,6.439 12.419 C 6.767 12.589,7.160 12.361,7.160 12.000 C 7.160 11.638,6.755 11.407,6.431 11.583 M17.088 11.574 C 16.863 11.699,16.775 12.018,16.905 12.238 C 17.155 12.661,17.800 12.489,17.800 12.000 C 17.800 11.640,17.400 11.401,17.088 11.574 M7.535 12.337 C 7.261 12.457,7.194 12.760,7.397 12.963 C 7.652 13.218,8.080 13.026,8.080 12.658 C 8.080 12.533,7.847 12.279,7.734 12.282 C 7.693 12.282,7.604 12.308,7.535 12.337 M16.056 12.416 C 15.970 12.502,15.920 12.591,15.920 12.658 C 15.920 13.026,16.348 13.218,16.603 12.963 C 16.858 12.708,16.666 12.280,16.298 12.280 C 16.231 12.280,16.142 12.330,16.056 12.416 M5.560 12.440 C 5.128 12.559,4.944 12.896,5.116 13.251 C 5.323 13.680,5.836 13.708,6.135 13.308 C 6.237 13.171,6.244 12.853,6.147 12.705 C 6.021 12.513,5.747 12.389,5.560 12.440 M18.173 12.464 C 17.971 12.533,17.815 12.713,17.781 12.916 C 17.725 13.248,18.023 13.600,18.360 13.600 C 18.698 13.600,18.995 13.248,18.939 12.915 C 18.879 12.559,18.518 12.347,18.173 12.464 M2.500 12.675 C 1.688 13.043,1.933 14.281,2.819 14.289 C 3.562 14.295,3.954 13.446,3.466 12.890 C 3.308 12.711,3.072 12.602,2.840 12.602 C 2.741 12.602,2.588 12.635,2.500 12.675 M20.840 12.664 C 20.657 12.743,20.492 12.902,20.392 13.097 C 20.272 13.331,20.303 13.701,20.462 13.927 C 20.907 14.560,21.928 14.306,21.991 13.546 C 22.013 13.279,21.950 13.077,21.786 12.890 C 21.552 12.623,21.154 12.528,20.840 12.664 M6.728 13.240 C 6.404 13.387,6.361 13.779,6.644 14.017 C 7.011 14.326,7.572 13.912,7.386 13.469 C 7.322 13.315,7.117 13.160,6.980 13.161 C 6.936 13.161,6.823 13.197,6.728 13.240 M16.808 13.239 C 16.624 13.354,16.538 13.569,16.597 13.765 C 16.736 14.230,17.368 14.240,17.520 13.779 C 17.656 13.367,17.179 13.006,16.808 13.239 M7.879 13.690 C 7.508 13.941,7.796 14.500,8.223 14.359 C 8.401 14.300,8.480 14.182,8.480 13.975 C 8.480 13.837,8.458 13.789,8.357 13.704 C 8.206 13.576,8.053 13.572,7.879 13.690 M15.627 13.712 C 15.548 13.795,15.520 13.865,15.520 13.983 C 15.520 14.188,15.605 14.306,15.795 14.363 C 15.995 14.423,16.182 14.333,16.264 14.137 C 16.337 13.962,16.303 13.826,16.153 13.700 C 15.985 13.559,15.770 13.564,15.627 13.712 M4.329 13.765 C 3.884 13.985,3.828 14.644,4.229 14.949 C 4.391 15.073,4.732 15.118,4.919 15.040 C 5.090 14.970,5.311 14.710,5.342 14.542 C 5.400 14.234,5.256 13.928,4.979 13.771 C 4.778 13.658,4.550 13.655,4.329 13.765 M19.021 13.771 C 18.616 14.001,18.522 14.505,18.823 14.838 C 19.002 15.037,19.149 15.094,19.417 15.072 C 19.797 15.040,20.040 14.770,20.040 14.377 C 20.040 13.852,19.474 13.515,19.021 13.771 M6.070 14.377 C 5.987 14.407,5.894 14.452,5.863 14.477 C 5.769 14.555,5.680 14.784,5.680 14.946 C 5.681 15.398,6.231 15.663,6.609 15.393 C 6.962 15.142,6.902 14.577,6.504 14.396 C 6.310 14.308,6.268 14.306,6.070 14.377 M17.491 14.397 C 16.972 14.637,17.080 15.394,17.647 15.500 C 17.846 15.538,18.132 15.409,18.239 15.233 C 18.536 14.745,18.010 14.157,17.491 14.397 M1.139 14.475 C 0.522 14.755,0.352 15.590,0.812 16.075 C 1.284 16.572,2.092 16.476,2.414 15.884 C 2.557 15.622,2.585 15.386,2.506 15.116 C 2.379 14.681,1.999 14.399,1.542 14.401 C 1.395 14.401,1.237 14.430,1.139 14.475 M22.008 14.504 C 21.747 14.634,21.575 14.838,21.494 15.116 C 21.255 15.932,22.098 16.665,22.860 16.305 C 23.242 16.124,23.448 15.805,23.448 15.397 C 23.448 14.647,22.678 14.170,22.008 14.504 M7.452 14.718 C 7.313 14.803,7.200 14.985,7.200 15.122 C 7.200 15.266,7.324 15.480,7.443 15.542 C 7.623 15.635,7.855 15.616,7.996 15.497 C 8.245 15.288,8.229 14.910,7.964 14.731 C 7.798 14.620,7.621 14.615,7.452 14.718 M16.076 14.700 C 15.920 14.785,15.840 14.934,15.840 15.143 C 15.840 15.300,15.860 15.348,15.976 15.464 C 16.087 15.575,16.143 15.600,16.278 15.600 C 16.499 15.600,16.655 15.513,16.735 15.346 C 16.820 15.165,16.817 15.048,16.722 14.892 C 16.582 14.663,16.298 14.579,16.076 14.700 M8.733 14.738 C 8.366 14.898,8.488 15.480,8.889 15.480 C 9.188 15.480,9.367 15.244,9.276 14.969 C 9.242 14.864,9.191 14.816,9.053 14.757 C 8.954 14.715,8.870 14.681,8.867 14.682 C 8.863 14.682,8.803 14.708,8.733 14.738 M14.875 14.875 C 14.682 15.068,14.666 15.234,14.826 15.382 C 15.076 15.614,15.481 15.438,15.479 15.098 C 15.477 14.914,15.417 14.820,15.264 14.762 C 15.091 14.696,15.040 14.710,14.875 14.875 M3.460 15.408 C 2.897 15.605,2.708 16.321,3.103 16.758 C 3.285 16.960,3.475 17.046,3.738 17.046 C 4.249 17.046,4.663 16.569,4.579 16.076 C 4.495 15.578,3.934 15.243,3.460 15.408 M19.883 15.466 C 19.397 15.708,19.264 16.320,19.607 16.736 C 19.847 17.027,20.290 17.134,20.617 16.979 C 21.307 16.651,21.247 15.648,20.524 15.406 C 20.308 15.333,20.112 15.352,19.883 15.466 M13.849 15.561 C 13.588 15.719,13.530 15.951,13.700 16.153 C 13.827 16.304,13.962 16.337,14.141 16.262 C 14.329 16.184,14.424 15.974,14.360 15.780 C 14.280 15.539,14.048 15.439,13.849 15.561 M9.770 15.581 C 9.722 15.615,9.662 15.711,9.637 15.795 C 9.515 16.200,10.028 16.476,10.300 16.152 C 10.433 15.994,10.432 15.804,10.296 15.643 C 10.211 15.542,10.163 15.520,10.025 15.520 C 9.933 15.520,9.818 15.548,9.770 15.581 M8.733 15.845 C 8.336 15.957,8.276 16.552,8.644 16.742 C 8.871 16.859,9.142 16.777,9.282 16.548 C 9.511 16.172,9.162 15.724,8.733 15.845 M15.020 15.830 C 14.777 15.889,14.597 16.182,14.657 16.422 C 14.696 16.577,14.885 16.750,15.050 16.781 C 15.473 16.860,15.776 16.336,15.498 16.005 C 15.376 15.860,15.184 15.790,15.020 15.830 M5.460 15.897 C 5.002 16.101,4.899 16.706,5.265 17.047 C 5.574 17.337,6.084 17.291,6.325 16.953 C 6.462 16.761,6.474 16.393,6.352 16.183 C 6.184 15.895,5.765 15.761,5.460 15.897 M17.916 15.933 C 17.662 16.067,17.553 16.271,17.570 16.582 C 17.585 16.870,17.690 17.043,17.922 17.161 C 18.392 17.401,18.960 17.061,18.960 16.540 C 18.960 16.008,18.396 15.680,17.916 15.933 M11.140 15.966 C 10.893 16.102,10.843 16.410,11.037 16.603 C 11.292 16.858,11.720 16.666,11.720 16.298 C 11.720 16.150,11.484 15.920,11.334 15.921 C 11.271 15.922,11.184 15.942,11.140 15.966 M12.561 15.965 C 12.412 16.024,12.327 16.115,12.299 16.247 C 12.216 16.623,12.689 16.877,12.963 16.603 C 13.151 16.415,13.097 16.075,12.861 15.968 C 12.738 15.912,12.694 15.911,12.561 15.965 M7.218 16.016 C 7.151 16.045,7.047 16.127,6.988 16.198 C 6.781 16.444,6.876 16.913,7.162 17.061 C 7.415 17.192,7.788 17.098,7.941 16.863 C 8.249 16.393,7.735 15.791,7.218 16.016 M16.274 16.044 C 16.070 16.166,15.944 16.402,15.972 16.610 C 16.012 16.909,16.244 17.125,16.530 17.130 C 16.879 17.135,17.135 16.879,17.130 16.530 C 17.123 16.104,16.637 15.828,16.274 16.044 M10.177 16.618 C 9.760 16.795,9.788 17.378,10.221 17.520 C 10.495 17.611,10.789 17.422,10.828 17.130 C 10.877 16.762,10.513 16.476,10.177 16.618 M13.580 16.616 C 13.268 16.730,13.134 16.907,13.174 17.152 C 13.240 17.555,13.748 17.676,14.019 17.354 C 14.295 17.026,13.968 16.474,13.580 16.616 M11.755 16.907 C 11.341 17.164,11.515 17.800,12.000 17.800 C 12.273 17.800,12.482 17.587,12.479 17.312 C 12.475 16.950,12.060 16.718,11.755 16.907 M8.756 17.251 C 8.280 17.569,8.495 18.320,9.062 18.320 C 9.505 18.320,9.782 17.902,9.605 17.501 C 9.459 17.172,9.053 17.052,8.756 17.251 M14.607 17.241 C 14.436 17.345,14.306 17.626,14.342 17.815 C 14.400 18.126,14.633 18.320,14.946 18.320 C 15.398 18.319,15.663 17.769,15.393 17.391 C 15.226 17.156,14.861 17.087,14.607 17.241 M2.900 17.479 C 2.399 17.608,2.121 17.961,2.120 18.471 C 2.119 19.523,3.516 19.842,4.012 18.903 C 4.132 18.675,4.132 18.245,4.012 18.017 C 3.888 17.782,3.639 17.575,3.395 17.502 C 3.169 17.435,3.086 17.431,2.900 17.479 M20.567 17.514 C 20.326 17.600,20.113 17.786,19.988 18.020 C 19.868 18.244,19.869 18.676,19.988 18.903 C 20.487 19.847,21.879 19.521,21.879 18.460 C 21.879 17.759,21.219 17.283,20.567 17.514 M7.200 17.589 C 7.060 17.641,6.913 17.777,6.839 17.922 C 6.500 18.587,7.299 19.270,7.877 18.809 C 8.410 18.383,8.133 17.555,7.460 17.564 C 7.350 17.565,7.233 17.576,7.200 17.589 M16.181 17.649 C 15.693 17.933,15.745 18.681,16.269 18.905 C 16.866 19.160,17.459 18.506,17.161 17.922 C 17.043 17.690,16.870 17.585,16.582 17.570 C 16.386 17.559,16.310 17.574,16.181 17.649 M5.100 17.776 C 4.689 17.958,4.487 18.493,4.676 18.900 C 4.963 19.521,5.822 19.570,6.164 18.986 C 6.270 18.803,6.282 18.750,6.271 18.512 C 6.260 18.291,6.236 18.213,6.139 18.075 C 5.977 17.845,5.730 17.720,5.444 17.722 C 5.321 17.722,5.166 17.747,5.100 17.776 M18.160 17.810 C 18.061 17.863,17.926 17.983,17.860 18.077 C 17.752 18.230,17.740 18.277,17.740 18.557 C 17.740 18.833,17.753 18.885,17.855 19.032 C 18.072 19.345,18.526 19.482,18.871 19.338 C 19.490 19.079,19.580 18.234,19.029 17.853 C 18.799 17.693,18.414 17.674,18.160 17.810 M10.737 17.841 C 10.549 17.934,10.400 18.164,10.400 18.360 C 10.400 18.700,10.752 18.995,11.089 18.938 C 11.409 18.884,11.640 18.529,11.555 18.221 C 11.501 18.024,11.339 17.849,11.167 17.801 C 10.964 17.745,10.923 17.749,10.737 17.841 M12.847 17.811 C 12.549 17.906,12.367 18.217,12.445 18.499 C 12.529 18.802,12.838 19.002,13.126 18.939 C 13.292 18.902,13.506 18.704,13.562 18.535 C 13.653 18.259,13.495 17.932,13.213 17.815 C 13.064 17.752,13.031 17.752,12.847 17.811 M9.340 18.699 C 9.067 18.828,8.920 19.049,8.920 19.334 C 8.920 19.739,9.163 20.004,9.562 20.032 C 9.761 20.047,9.824 20.034,9.975 19.945 C 10.176 19.827,10.321 19.581,10.319 19.357 C 10.318 19.196,10.204 18.929,10.094 18.832 C 9.893 18.653,9.562 18.595,9.340 18.699 M14.121 18.703 C 13.938 18.783,13.848 18.868,13.756 19.048 C 13.526 19.498,13.866 20.040,14.377 20.040 C 14.758 20.040,15.036 19.799,15.071 19.440 C 15.096 19.179,15.064 19.070,14.910 18.895 C 14.693 18.648,14.408 18.579,14.121 18.703 M11.660 19.114 C 11.287 19.345,11.186 19.771,11.419 20.125 C 11.529 20.292,11.802 20.440,12.000 20.440 C 12.311 20.440,12.634 20.169,12.699 19.853 C 12.753 19.588,12.573 19.231,12.317 19.099 C 12.156 19.015,11.807 19.024,11.660 19.114 M7.549 19.452 C 7.192 19.566,6.954 19.890,6.954 20.262 C 6.954 20.525,7.040 20.715,7.242 20.897 C 7.779 21.383,8.640 20.979,8.640 20.241 C 8.640 20.005,8.450 19.679,8.240 19.553 C 8.025 19.424,7.757 19.385,7.549 19.452 M16.005 19.440 C 15.805 19.487,15.558 19.678,15.464 19.860 C 15.403 19.976,15.380 20.094,15.380 20.287 C 15.380 20.519,15.396 20.576,15.502 20.726 C 15.804 21.157,16.383 21.235,16.758 20.897 C 16.961 20.713,17.040 20.536,17.040 20.262 C 17.040 19.869,16.787 19.537,16.417 19.444 C 16.225 19.395,16.197 19.395,16.005 19.440 M5.280 19.915 C 5.095 19.976,4.941 20.072,4.814 20.207 C 4.570 20.467,4.488 20.754,4.561 21.103 C 4.690 21.725,5.389 22.061,5.982 21.785 C 6.724 21.440,6.726 20.371,5.986 19.993 C 5.811 19.904,5.439 19.863,5.280 19.915 M18.200 19.915 C 17.860 20.026,17.597 20.287,17.502 20.605 C 17.425 20.864,17.425 20.935,17.499 21.183 C 17.625 21.605,18.004 21.879,18.460 21.879 C 18.916 21.879,19.295 21.605,19.421 21.183 C 19.495 20.935,19.495 20.864,19.418 20.605 C 19.345 20.360,19.136 20.110,18.906 19.993 C 18.731 19.904,18.359 19.863,18.200 19.915 M10.246 20.363 C 9.767 20.555,9.561 21.141,9.818 21.581 C 10.108 22.074,10.791 22.145,11.175 21.720 C 11.668 21.175,11.278 20.317,10.540 20.323 C 10.430 20.324,10.298 20.342,10.246 20.363 M13.100 20.392 C 12.237 20.796,12.588 22.071,13.540 21.992 C 14.316 21.927,14.568 20.884,13.913 20.451 C 13.698 20.309,13.334 20.283,13.100 20.392 M8.315 21.495 C 7.754 21.696,7.481 22.215,7.648 22.769 C 7.712 22.983,7.999 23.295,8.210 23.379 C 8.576 23.526,9.039 23.435,9.312 23.162 C 9.502 22.972,9.570 22.814,9.591 22.512 C 9.608 22.277,9.597 22.214,9.503 22.022 C 9.280 21.566,8.761 21.336,8.315 21.495 M15.080 21.499 C 14.386 21.724,14.167 22.641,14.684 23.157 C 15.061 23.535,15.694 23.549,16.075 23.188 C 16.574 22.714,16.476 21.908,15.879 21.583 C 15.634 21.450,15.330 21.418,15.080 21.499 M11.570 22.084 C 11.354 22.191,11.108 22.468,11.047 22.672 C 10.886 23.210,11.160 23.764,11.675 23.939 C 12.459 24.206,13.194 23.478,12.953 22.672 C 12.891 22.466,12.642 22.188,12.427 22.083 C 12.191 21.969,11.802 21.970,11.570 22.084 " stroke="none" fill="black" fill-rule="evenodd"></path></svg>