<svg role="img" xmlns="http://www.w3.org/2000/svg" viewBox="0 0 24 24"><path d="M10.800 0.101 C 9.116 0.310,7.642 0.826,6.460 1.622 C 6.218 1.784,5.939 1.990,5.840 2.079 L 5.660 2.240 6.160 2.004 C 7.029 1.595,8.024 1.289,8.980 1.139 C 9.551 1.050,10.758 1.018,11.383 1.077 C 15.115 1.425,18.363 3.785,19.376 6.885 C 19.940 8.610,19.834 10.580,19.099 12.040 C 18.360 13.507,16.809 14.631,15.150 14.900 C 12.787 15.283,10.608 13.918,10.037 11.697 C 9.909 11.199,9.907 10.367,10.034 9.900 C 10.184 9.344,10.631 8.514,10.932 8.230 L 11.048 8.120 10.773 8.120 C 9.639 8.120,8.490 9.062,8.088 10.320 C 7.939 10.788,7.904 11.046,7.906 11.680 C 7.907 12.270,7.935 12.488,8.100 13.200 C 8.162 13.465,7.865 12.663,7.778 12.330 C 7.611 11.685,7.549 11.069,7.572 10.280 C 7.608 9.094,7.823 8.214,8.343 7.128 C 9.128 5.489,10.431 4.145,11.822 3.540 C 11.996 3.465,12.144 3.388,12.150 3.371 C 12.164 3.327,11.800 3.094,11.527 2.972 C 10.923 2.704,9.953 2.569,9.112 2.637 C 5.897 2.899,3.289 4.946,2.154 8.100 L 2.039 8.420 2.061 8.200 C 2.148 7.340,2.570 5.934,3.045 4.924 C 3.152 4.695,3.233 4.499,3.223 4.490 C 3.193 4.460,2.847 4.716,2.578 4.967 C 2.261 5.264,1.801 5.829,1.509 6.280 C 0.300 8.145,-0.227 10.906,0.099 13.660 C 0.287 15.250,0.976 17.079,1.938 18.540 C 4.574 22.545,9.226 24.573,14.000 23.797 C 16.884 23.328,19.632 21.689,21.452 19.350 C 23.986 16.095,24.681 11.775,23.293 7.901 C 22.719 6.300,21.845 4.908,20.620 3.644 C 19.707 2.702,18.845 2.023,17.928 1.523 C 16.672 0.837,15.306 0.371,13.920 0.155 C 13.210 0.045,11.495 0.015,10.800 0.101 " stroke="none" fill="black" fill-rule="evenodd"></path></svg>