<svg role="img" viewBox="0 0 24 24" xmlns="http://www.w3.org/2000/svg"><path d="M11.100 0.096 C 10.208 0.318,9.595 1.235,9.756 2.108 C 10.040 3.651,11.981 4.131,12.926 2.891 C 13.194 2.538,13.294 2.211,13.273 1.745 C 13.259 1.424,13.239 1.339,13.114 1.079 C 12.744 0.303,11.908 -0.104,11.100 0.096 M15.840 4.931 C 15.474 5.056,15.229 5.210,14.963 5.484 C 14.329 6.134,14.187 7.040,14.590 7.873 C 14.740 8.183,15.191 8.635,15.510 8.795 C 16.349 9.218,17.258 9.070,17.924 8.404 C 18.781 7.547,18.766 6.257,17.888 5.414 C 17.665 5.200,17.304 4.991,17.003 4.903 C 16.680 4.809,16.160 4.822,15.840 4.931 M10.960 5.155 C 10.369 5.345,9.951 5.745,9.759 6.304 C 9.516 7.010,9.707 7.800,10.241 8.295 C 10.491 8.526,10.721 8.650,11.070 8.741 C 11.816 8.935,12.666 8.605,13.080 7.961 C 13.457 7.372,13.457 6.508,13.080 5.920 C 12.833 5.535,12.394 5.223,11.956 5.122 C 11.685 5.060,11.207 5.076,10.960 5.155 M5.996 5.394 C 5.569 5.535,5.192 5.871,5.009 6.275 C 4.859 6.608,4.838 7.113,4.960 7.451 C 5.078 7.776,5.239 8.006,5.483 8.198 C 6.450 8.963,7.882 8.398,8.081 7.174 C 8.195 6.475,7.748 5.690,7.093 5.438 C 6.771 5.314,6.294 5.295,5.996 5.394 M21.096 9.659 C 20.187 9.857,19.477 10.522,19.218 11.419 C 19.128 11.730,19.127 12.299,19.214 12.635 C 19.442 13.508,20.197 14.236,21.065 14.420 C 22.383 14.700,23.671 13.858,23.944 12.539 C 24.157 11.507,23.586 10.347,22.626 9.863 C 22.142 9.618,21.609 9.548,21.096 9.659 M16.135 9.878 C 15.265 10.012,14.557 10.662,14.334 11.531 C 14.197 12.064,14.327 12.806,14.634 13.250 C 15.314 14.234,16.652 14.519,17.622 13.887 C 18.777 13.134,18.989 11.551,18.066 10.567 C 17.563 10.031,16.834 9.771,16.135 9.878 M11.221 10.125 C 10.379 10.247,9.676 10.994,9.578 11.871 C 9.445 13.054,10.602 14.146,11.790 13.959 C 12.736 13.810,13.440 13.001,13.440 12.062 C 13.440 11.484,13.248 11.035,12.829 10.633 C 12.594 10.408,12.148 10.176,11.880 10.140 C 11.523 10.092,11.456 10.091,11.221 10.125 M5.896 10.443 C 5.224 10.675,4.800 11.290,4.800 12.034 C 4.800 12.731,5.152 13.317,5.731 13.581 C 6.593 13.974,7.581 13.636,7.989 12.809 C 8.137 12.510,8.140 12.496,8.140 12.042 C 8.140 11.607,8.133 11.565,8.016 11.320 C 7.834 10.940,7.610 10.709,7.251 10.532 C 6.969 10.392,6.918 10.381,6.544 10.370 C 6.217 10.361,6.094 10.375,5.896 10.443 M0.945 10.680 C 0.512 10.849,0.211 11.170,0.075 11.605 C -0.221 12.556,0.464 13.484,1.461 13.484 C 2.116 13.484,2.652 13.093,2.845 12.475 C 3.027 11.889,2.832 11.265,2.346 10.884 C 1.991 10.604,1.370 10.514,0.945 10.680 M15.985 15.023 C 15.633 15.109,15.290 15.308,14.995 15.599 C 14.155 16.430,14.149 17.693,14.980 18.533 C 15.395 18.951,15.887 19.160,16.460 19.160 C 17.000 19.160,17.488 18.967,17.871 18.601 C 18.765 17.748,18.789 16.453,17.925 15.599 C 17.380 15.062,16.683 14.855,15.985 15.023 M11.124 15.243 C 10.837 15.300,10.454 15.502,10.225 15.719 C 9.322 16.573,9.531 18.156,10.620 18.710 C 11.199 19.004,11.945 18.988,12.489 18.668 C 12.703 18.543,13.045 18.186,13.151 17.977 C 13.370 17.548,13.423 16.969,13.284 16.524 C 13.003 15.622,12.056 15.060,11.124 15.243 M6.081 15.502 C 5.607 15.634,5.265 15.917,5.050 16.353 C 4.905 16.645,4.900 16.671,4.900 17.078 C 4.900 17.451,4.912 17.526,5.006 17.727 C 5.390 18.545,6.387 18.913,7.171 18.527 C 7.811 18.212,8.188 17.497,8.078 16.807 C 7.928 15.867,6.982 15.249,6.081 15.502 M11.040 20.464 C 10.207 20.687,9.614 21.592,9.753 22.428 C 9.915 23.406,10.843 24.092,11.786 23.931 C 12.665 23.780,13.280 23.053,13.280 22.163 C 13.280 21.000,12.174 20.161,11.040 20.464 " stroke="none" fill="black" fill-rule="evenodd"></path></svg>