<svg role="img" viewBox="0 0 24 24" xmlns="http://www.w3.org/2000/svg"><path d="M5.990 6.534 L 0.000 10.460 0.002 13.840 L 0.003 17.220 2.485 18.840 C 3.850 19.731,5.288 20.671,5.681 20.928 L 6.396 21.396 9.199 19.560 L 12.001 17.724 14.804 19.560 L 17.607 21.395 18.079 21.087 C 18.340 20.918,19.778 19.979,21.275 19.000 L 23.998 17.220 23.999 13.839 L 24.000 10.457 18.015 6.539 C 14.723 4.383,12.018 2.617,12.005 2.614 C 11.991 2.611,9.285 4.375,5.990 6.534 M14.698 5.196 C 16.172 6.161,17.381 6.966,17.387 6.985 C 17.401 7.032,12.087 10.500,12.002 10.500 C 11.919 10.500,6.601 7.033,6.613 6.987 C 6.622 6.955,11.959 3.443,12.000 3.442 C 12.011 3.442,13.225 4.231,14.698 5.196 M9.092 8.870 C 10.562 9.833,11.766 10.637,11.767 10.658 C 11.773 10.720,6.430 14.198,6.376 14.168 C 6.189 14.061,1.002 10.656,1.003 10.640 C 1.005 10.611,6.332 7.128,6.380 7.124 C 6.402 7.122,7.622 7.908,9.092 8.870 M20.353 8.897 C 22.664 10.410,23.028 10.661,22.969 10.702 C 22.670 10.911,17.627 14.200,17.607 14.199 C 17.553 14.197,12.238 10.699,12.234 10.663 C 12.229 10.615,17.565 7.117,17.624 7.130 C 17.649 7.136,18.877 7.931,20.353 8.897 M3.720 12.695 L 6.300 14.384 6.310 17.211 L 6.321 20.039 5.510 19.508 C 5.065 19.216,3.849 18.420,2.810 17.740 L 0.920 16.503 0.920 13.689 L 0.920 10.875 1.030 10.941 C 1.091 10.976,2.301 11.766,3.720 12.695 M14.863 12.765 L 17.560 14.530 17.560 17.345 C 17.560 18.893,17.548 20.160,17.534 20.160 C 17.520 20.160,16.296 19.366,14.814 18.396 L 12.120 16.632 12.120 13.816 C 12.120 12.267,12.131 11.000,12.143 11.000 C 12.156 11.000,13.380 11.794,14.863 12.765 " stroke="none" fill="black" fill-rule="evenodd"></path></svg>