<svg role="img" viewBox="0 0 24 24" xmlns="http://www.w3.org/2000/svg"><path d="M2.969 0.747 C 2.385 1.656,2.373 1.683,2.470 1.876 C 2.553 2.043,7.869 8.880,7.915 8.880 C 7.932 8.880,8.277 8.417,8.681 7.850 C 9.085 7.284,9.477 6.735,9.551 6.632 L 9.685 6.443 6.637 3.292 C 4.960 1.558,3.557 0.107,3.520 0.067 C 3.455 -0.003,3.430 0.029,2.969 0.747 M10.280 1.085 C 9.447 1.170,8.384 1.418,7.546 1.722 L 7.192 1.851 7.762 2.422 C 8.283 2.944,8.341 2.990,8.429 2.956 C 8.614 2.886,9.461 2.686,9.840 2.624 C 11.677 2.319,13.608 2.538,15.302 3.243 C 16.552 3.763,17.579 4.454,18.562 5.438 C 19.771 6.647,20.549 7.931,21.060 9.560 C 21.610 11.316,21.640 13.365,21.140 15.173 L 21.005 15.660 21.561 16.218 C 21.867 16.525,22.128 16.765,22.141 16.752 C 22.155 16.738,22.237 16.525,22.325 16.277 C 23.223 13.725,23.160 10.797,22.152 8.261 C 21.174 5.801,19.349 3.742,16.980 2.426 C 15.731 1.732,14.289 1.278,12.760 1.099 C 12.215 1.035,10.850 1.027,10.280 1.085 M2.677 5.151 C 1.702 6.332,1.051 7.505,0.578 8.940 C -0.446 12.042,-0.086 15.480,1.558 18.292 C 2.112 19.238,2.668 19.944,3.502 20.756 C 7.738 24.885,14.454 25.093,18.954 21.234 L 19.124 21.089 18.538 20.626 L 17.951 20.163 17.626 20.416 C 15.097 22.388,11.765 23.019,8.647 22.118 C 6.101 21.382,3.853 19.538,2.605 17.160 C 2.124 16.242,1.769 15.181,1.594 14.140 C 1.511 13.646,1.500 13.451,1.501 12.480 C 1.501 11.508,1.512 11.320,1.593 10.867 C 1.890 9.215,2.502 7.783,3.447 6.529 C 3.624 6.293,3.777 6.080,3.787 6.056 C 3.800 6.023,2.943 4.877,2.907 4.881 C 2.903 4.881,2.800 5.003,2.677 5.151 M8.804 9.402 C 7.326 10.987,6.107 12.307,6.096 12.335 C 6.068 12.409,6.254 12.480,6.474 12.480 C 6.730 12.480,6.813 12.423,8.079 11.387 C 8.662 10.910,9.151 10.524,9.166 10.530 C 9.181 10.535,9.384 10.787,9.618 11.089 C 9.852 11.391,10.056 11.645,10.072 11.655 C 10.104 11.674,12.131 9.063,12.122 9.013 C 12.118 8.995,11.997 8.848,11.852 8.687 L 11.588 8.393 11.699 7.915 C 11.830 7.354,11.822 7.128,11.658 6.762 C 11.598 6.629,11.536 6.520,11.521 6.520 C 11.505 6.520,10.283 7.817,8.804 9.402 M10.822 13.158 L 6.784 17.196 6.902 17.242 C 7.012 17.285,7.315 17.273,7.500 17.220 C 7.563 17.201,7.820 17.418,8.726 18.254 C 9.356 18.836,9.910 19.324,9.956 19.339 C 10.017 19.358,10.140 19.309,10.390 19.165 C 10.583 19.055,10.773 18.940,10.813 18.910 C 10.881 18.860,10.821 18.768,9.984 17.638 C 9.488 16.968,9.081 16.410,9.081 16.397 C 9.080 16.384,9.800 15.821,10.680 15.145 L 12.279 13.915 12.901 14.401 L 13.523 14.887 13.597 14.793 C 13.638 14.742,14.095 14.187,14.613 13.560 L 15.554 12.420 15.219 12.080 L 14.883 11.740 15.020 11.267 C 15.095 11.007,15.178 10.656,15.204 10.487 C 15.246 10.209,15.242 10.150,15.165 9.868 C 15.118 9.696,15.030 9.458,14.969 9.338 L 14.859 9.121 10.822 13.158 M14.735 15.041 C 13.220 16.453,11.901 17.687,11.804 17.781 L 11.629 17.952 11.761 18.021 C 11.933 18.109,12.229 18.108,12.403 18.018 C 12.530 17.953,13.374 17.368,14.615 16.485 L 15.131 16.119 15.275 16.228 C 15.355 16.289,16.929 17.513,18.774 18.949 C 21.780 21.290,22.142 21.560,22.270 21.560 C 22.384 21.560,22.571 21.459,23.209 21.053 L 24.004 20.545 23.772 20.318 C 23.644 20.193,22.186 18.783,20.530 17.184 C 18.875 15.585,17.520 14.261,17.520 14.241 C 17.520 14.221,17.565 14.019,17.620 13.793 C 17.675 13.566,17.720 13.314,17.720 13.234 C 17.720 13.091,17.594 12.632,17.525 12.526 C 17.499 12.486,16.778 13.136,14.735 15.041 M5.077 13.190 C 5.042 13.251,4.928 13.447,4.824 13.626 C 4.655 13.915,4.639 13.963,4.682 14.044 C 4.739 14.150,6.800 16.382,6.835 16.375 C 6.862 16.369,7.641 15.003,7.638 14.966 C 7.636 14.943,5.224 13.114,5.165 13.090 C 5.151 13.085,5.112 13.130,5.077 13.190 " stroke="none" fill="black" fill-rule="evenodd"></path></svg>