<svg role="img" viewBox="0 0 24 24" xmlns="http://www.w3.org/2000/svg"><path d="M1.350 2.243 C 0.905 2.348,0.407 2.749,0.214 3.156 C -0.221 4.075,0.056 5.636,0.980 7.480 C 1.533 8.584,2.086 9.422,3.264 10.942 C 4.490 12.524,4.885 13.107,5.265 13.900 C 5.687 14.781,5.821 15.386,5.787 16.260 C 5.757 17.023,5.629 17.497,5.277 18.153 C 4.688 19.251,3.568 20.091,1.994 20.616 C 1.520 20.774,0.968 20.903,0.220 21.030 L 0.020 21.064 0.620 21.211 C 3.273 21.861,6.162 21.976,8.380 21.521 C 10.240 21.139,12.040 20.283,13.570 19.051 C 14.714 18.131,15.409 17.326,17.207 14.840 C 18.322 13.299,19.063 12.439,19.821 11.808 C 20.852 10.949,21.961 10.561,23.385 10.560 C 23.802 10.560,23.920 10.548,23.960 10.500 C 24.030 10.415,23.865 10.209,23.592 10.040 C 22.849 9.581,22.775 9.507,22.460 8.915 C 22.169 8.368,21.914 8.089,21.549 7.918 C 21.129 7.722,20.791 7.670,20.080 7.693 C 19.252 7.719,18.867 7.807,17.260 8.341 C 15.809 8.822,15.155 8.942,14.153 8.909 C 12.591 8.858,11.755 8.438,8.840 6.242 C 6.633 4.580,6.254 4.301,5.600 3.858 C 3.907 2.712,2.717 2.195,1.800 2.205 C 1.635 2.207,1.433 2.224,1.350 2.243 M20.822 8.703 C 20.999 8.788,21.093 8.941,21.093 9.143 C 21.093 9.486,20.781 9.707,20.442 9.605 C 20.028 9.481,19.983 8.897,20.372 8.705 C 20.535 8.624,20.654 8.624,20.822 8.703 " stroke="none" fill="black" fill-rule="evenodd"></path></svg>