<svg role="img" viewBox="0 0 24 24" xmlns="http://www.w3.org/2000/svg"><path d="M0.689 0.256 C 0.427 0.342,0.243 0.505,0.125 0.756 C 0.031 0.956,0.020 1.028,0.021 1.420 C 0.022 2.322,0.430 3.533,1.306 5.240 C 1.708 6.022,1.798 6.170,1.827 6.094 C 1.868 5.985,2.493 5.067,2.762 4.720 C 3.139 4.234,4.025 3.327,4.533 2.906 C 4.750 2.727,5.143 2.433,5.406 2.253 L 5.884 1.927 5.467 1.703 C 4.307 1.081,3.209 0.610,2.365 0.374 C 1.941 0.255,1.780 0.229,1.360 0.216 C 1.002 0.205,0.811 0.216,0.689 0.256 M22.177 0.400 C 20.915 0.673,18.941 1.617,17.119 2.820 C 16.161 3.452,16.041 3.600,16.040 4.142 C 16.040 4.488,16.131 4.798,16.380 5.300 C 16.909 6.367,17.946 7.404,19.020 7.939 C 19.503 8.180,19.853 8.279,20.220 8.279 C 20.670 8.278,20.885 8.108,21.388 7.357 C 22.534 5.647,23.520 3.661,23.841 2.416 C 24.123 1.324,24.011 0.688,23.494 0.437 C 23.225 0.306,22.680 0.291,22.177 0.400 M11.480 0.747 C 10.802 0.813,10.472 0.858,10.058 0.941 C 8.331 1.286,6.762 1.993,5.322 3.073 C 4.792 3.471,3.888 4.334,3.439 4.871 C 2.081 6.496,1.207 8.452,0.874 10.611 C 0.755 11.381,0.744 13.046,0.854 13.780 C 1.271 16.580,2.541 19.008,4.520 20.790 C 6.431 22.510,8.665 23.502,11.214 23.762 C 11.901 23.832,13.347 23.791,14.055 23.682 C 16.051 23.375,17.951 22.537,19.560 21.255 C 20.033 20.878,20.922 19.981,21.320 19.480 C 22.976 17.395,23.840 14.930,23.840 12.294 C 23.840 11.172,23.750 10.442,23.480 9.380 C 23.396 9.050,23.252 8.573,23.160 8.320 C 22.976 7.815,22.424 6.639,22.373 6.641 C 22.355 6.642,22.216 6.861,22.064 7.127 L 21.789 7.611 21.834 7.809 C 21.859 7.917,21.880 8.138,21.880 8.298 C 21.880 9.427,20.677 9.565,19.087 8.619 C 18.080 8.020,16.945 6.975,16.255 6.012 C 15.971 5.617,15.535 4.792,15.402 4.402 C 15.118 3.565,15.234 2.973,15.734 2.710 C 15.868 2.640,15.970 2.623,16.260 2.621 L 16.620 2.619 17.110 2.326 C 17.380 2.165,17.592 2.019,17.581 2.001 C 17.545 1.944,16.583 1.528,16.098 1.361 C 15.201 1.051,14.246 0.848,13.280 0.761 C 12.854 0.723,11.805 0.715,11.480 0.747 " stroke="none" fill="black" fill-rule="evenodd"></path></svg>