<svg role="img" xmlns="http://www.w3.org/2000/svg" viewBox="0 0 24 24"><path d="M15.774 3.044 C 13.958 3.255,12.184 4.222,10.914 5.691 L 10.680 5.962 10.682 7.851 L 10.685 9.740 10.802 9.440 C 11.608 7.380,13.036 5.919,14.803 5.346 C 15.451 5.135,15.699 5.100,16.500 5.102 C 17.301 5.104,17.672 5.158,18.294 5.367 C 19.099 5.636,19.707 6.019,20.343 6.656 C 20.947 7.261,21.330 7.867,21.574 8.600 C 22.594 11.666,20.538 14.846,17.253 15.283 C 16.811 15.342,15.884 15.311,15.483 15.223 C 15.013 15.120,14.492 14.932,14.070 14.711 C 13.367 14.343,13.086 14.093,11.810 12.699 C 10.229 10.972,10.076 10.815,9.660 10.506 C 9.253 10.203,8.417 9.772,7.943 9.620 C 7.262 9.402,6.878 9.346,6.060 9.345 C 5.483 9.344,5.208 9.361,4.920 9.417 C 2.450 9.894,0.559 11.737,0.096 14.120 C -0.011 14.675,-0.003 15.755,0.114 16.291 C 0.455 17.862,1.338 19.139,2.691 20.018 C 4.772 21.371,7.554 21.313,9.600 19.875 C 9.765 19.759,10.075 19.494,10.290 19.286 L 10.680 18.908 10.679 17.384 L 10.679 15.860 10.562 16.072 C 10.164 16.793,9.452 17.617,8.853 18.049 C 8.260 18.475,7.552 18.773,6.870 18.882 C 6.396 18.957,5.513 18.912,5.040 18.788 C 4.164 18.558,3.374 18.018,2.855 17.294 C 1.973 16.063,1.953 14.370,2.805 13.113 C 3.382 12.262,4.353 11.643,5.369 11.479 C 5.814 11.407,6.696 11.448,7.080 11.558 C 7.514 11.682,8.136 12.000,8.469 12.268 C 8.627 12.395,9.255 13.049,9.863 13.720 C 11.186 15.180,11.447 15.451,11.840 15.770 C 12.821 16.567,13.981 17.087,15.310 17.326 C 15.930 17.437,17.104 17.447,17.698 17.345 C 18.854 17.148,19.866 16.758,20.746 16.173 C 23.748 14.175,24.833 10.385,23.315 7.201 C 22.933 6.401,22.555 5.870,21.902 5.219 C 21.231 4.549,20.787 4.224,19.998 3.826 C 18.680 3.163,17.164 2.882,15.774 3.044 " stroke="none" fill="black" fill-rule="evenodd"></path></svg>