<svg role="img" viewBox="0 0 24 24" xmlns="http://www.w3.org/2000/svg"><path d="M7.260 0.038 L 6.580 0.060 5.960 0.367 C 3.393 1.641,1.436 3.877,0.224 6.925 L 0.118 7.191 0.129 10.365 L 0.140 13.540 0.325 14.080 C 0.935 15.860,1.995 17.304,3.496 18.399 C 3.625 18.494,3.717 18.546,3.699 18.516 C 3.680 18.485,3.545 18.280,3.399 18.060 C 2.641 16.924,2.223 16.009,1.940 14.860 C 1.420 12.756,1.680 10.617,2.704 8.561 C 3.777 6.406,6.398 3.440,8.460 2.044 C 9.655 1.236,10.806 0.698,11.923 0.426 C 12.829 0.206,13.823 0.123,14.680 0.198 C 15.127 0.237,16.673 0.436,17.040 0.502 C 17.189 0.529,16.759 0.334,16.280 0.156 L 15.860 0.001 11.900 0.009 C 9.722 0.013,7.634 0.026,7.260 0.038 M13.821 0.682 C 13.324 0.723,12.882 0.799,12.300 0.945 C 11.745 1.083,10.659 1.418,10.299 1.560 C 9.903 1.718,9.282 2.035,9.366 2.038 C 9.402 2.039,9.672 2.005,9.966 1.962 C 11.066 1.801,11.803 1.743,12.760 1.742 C 13.801 1.742,14.142 1.785,14.834 2.006 C 16.294 2.474,18.067 3.782,19.231 5.252 C 20.625 7.009,21.550 9.465,21.841 12.180 C 21.922 12.934,21.934 14.512,21.865 15.380 C 21.749 16.831,21.566 17.709,21.217 18.488 C 20.639 19.777,19.897 20.833,18.467 22.398 C 18.277 22.605,18.130 22.783,18.140 22.793 C 18.149 22.803,18.366 22.680,18.621 22.521 C 21.052 21.004,22.584 19.296,23.540 17.039 C 23.684 16.698,23.819 16.389,23.841 16.351 C 23.866 16.306,23.880 14.647,23.880 11.782 L 23.880 7.282 23.759 6.977 C 23.601 6.580,23.215 5.810,22.975 5.413 C 21.440 2.876,18.908 1.185,16.007 0.761 C 15.381 0.670,14.404 0.635,13.821 0.682 M10.280 3.945 C 9.844 4.102,9.436 4.477,9.191 4.947 C 8.661 5.962,8.626 7.374,9.107 8.359 C 9.303 8.760,9.748 9.210,10.138 9.402 C 10.385 9.523,10.453 9.539,10.739 9.539 C 11.025 9.540,11.092 9.525,11.337 9.404 C 11.893 9.131,12.319 8.548,12.524 7.780 C 12.646 7.320,12.672 6.500,12.581 5.954 C 12.374 4.707,11.688 3.922,10.780 3.891 C 10.562 3.883,10.403 3.901,10.280 3.945 M15.506 5.221 C 14.832 5.391,14.161 5.966,13.755 6.721 C 13.467 7.258,13.335 7.627,13.277 8.065 C 13.199 8.650,13.273 9.175,13.502 9.660 C 13.868 10.437,14.616 10.753,15.482 10.496 C 15.946 10.358,16.739 9.659,17.078 9.089 C 17.432 8.492,17.600 7.893,17.600 7.224 C 17.600 6.301,17.247 5.585,16.647 5.292 C 16.376 5.159,15.875 5.128,15.506 5.221 M6.000 7.635 C 5.556 7.777,5.277 8.049,5.044 8.567 C 4.507 9.759,4.790 11.295,5.723 12.248 C 6.289 12.827,6.968 12.982,7.575 12.672 C 7.938 12.487,8.281 11.998,8.439 11.440 C 8.878 9.892,7.961 7.899,6.675 7.602 C 6.428 7.545,6.253 7.554,6.000 7.635 M17.711 10.257 C 17.468 10.327,16.996 10.567,16.759 10.741 C 16.447 10.969,15.978 11.493,15.804 11.806 C 15.430 12.477,15.293 13.044,15.365 13.622 C 15.444 14.254,15.674 14.633,16.109 14.847 C 16.374 14.978,16.388 14.980,16.919 14.980 L 17.460 14.980 17.762 14.829 C 18.654 14.382,19.377 13.516,19.601 12.624 C 19.736 12.085,19.691 11.349,19.498 10.940 C 19.383 10.697,19.077 10.420,18.810 10.319 C 18.522 10.209,17.982 10.178,17.711 10.257 M10.780 11.865 C 9.574 11.995,8.798 12.425,7.696 13.571 C 6.987 14.308,6.304 15.280,6.121 15.811 C 5.939 16.338,5.979 17.047,6.207 17.357 C 6.356 17.560,6.748 17.844,7.041 17.962 C 7.344 18.085,7.907 18.106,8.706 18.027 C 9.729 17.925,10.010 17.914,10.385 17.960 C 11.329 18.074,11.817 18.308,12.800 19.117 C 13.386 19.599,13.883 19.790,14.444 19.747 C 14.804 19.719,15.124 19.608,15.328 19.439 C 15.646 19.177,15.837 18.515,15.782 17.860 C 15.706 16.957,15.312 15.599,14.835 14.600 C 14.196 13.262,13.682 12.660,12.820 12.238 C 12.600 12.130,12.267 12.006,12.080 11.961 C 11.743 11.880,11.088 11.832,10.780 11.865 M0.120 15.720 L 0.120 16.740 0.238 17.020 C 0.303 17.174,0.440 17.516,0.542 17.780 C 0.756 18.332,1.238 19.287,1.581 19.840 C 1.945 20.426,2.598 21.271,2.998 21.674 C 3.926 22.608,5.012 23.338,6.188 23.817 L 6.635 24.000 10.636 24.000 L 14.636 24.000 15.080 23.842 C 16.144 23.462,17.117 22.875,18.149 21.991 C 19.369 20.945,20.582 19.272,21.084 17.940 C 21.409 17.080,21.663 15.793,21.632 15.160 L 21.620 14.900 21.447 15.434 C 21.353 15.728,21.193 16.160,21.093 16.394 C 19.973 19.022,17.666 20.780,14.760 21.221 C 14.150 21.313,12.581 21.345,11.695 21.282 C 8.900 21.086,6.792 20.558,4.780 19.550 C 3.523 18.920,2.363 17.992,1.467 16.900 C 0.983 16.309,0.680 15.843,0.375 15.220 L 0.120 14.700 0.120 15.720 " stroke="none" fill="black" fill-rule="evenodd"></path></svg>