<svg role="img" xmlns="http://www.w3.org/2000/svg" viewBox="0 0 24 24"><path d="M7.160 1.609 C 6.208 2.172,5.663 2.562,5.098 3.085 C 3.598 4.473,2.628 6.098,2.148 8.020 C 1.918 8.945,1.863 9.414,1.862 10.480 C 1.861 11.545,1.915 12.003,2.148 12.940 C 2.897 15.943,5.012 18.480,7.809 19.730 C 8.281 19.940,9.381 20.320,9.519 20.320 C 9.599 20.320,9.600 20.299,9.600 18.175 C 9.600 16.151,9.604 16.032,9.670 16.052 C 9.709 16.063,9.925 16.122,10.150 16.183 L 10.560 16.293 10.560 18.868 L 10.560 21.444 10.410 21.419 C 8.388 21.086,6.800 20.409,5.220 19.205 C 4.767 18.859,3.814 17.929,3.454 17.480 C 1.204 14.677,0.434 11.101,1.340 7.653 C 1.416 7.364,1.523 7.006,1.579 6.859 C 1.744 6.421,1.698 6.154,1.436 6.018 C 1.283 5.939,1.124 5.946,0.973 6.038 C 0.815 6.134,0.802 6.158,0.621 6.700 C 0.013 8.519,-0.152 10.574,0.163 12.440 C 1.095 17.975,5.634 22.074,11.250 22.453 L 11.520 22.471 11.520 19.425 L 11.520 16.380 12.000 16.380 L 12.480 16.380 12.480 19.410 L 12.480 22.440 12.690 22.440 C 13.190 22.439,14.138 22.294,14.920 22.099 C 16.496 21.707,17.889 21.039,19.239 20.029 C 19.859 19.565,20.895 18.558,21.375 17.955 C 22.306 16.783,23.082 15.298,23.499 13.887 C 24.199 11.524,24.151 9.013,23.360 6.652 C 23.169 6.083,23.065 5.960,22.775 5.960 C 22.620 5.960,22.571 5.981,22.456 6.096 C 22.281 6.271,22.277 6.444,22.437 6.897 C 22.611 7.391,22.827 8.290,22.926 8.931 C 23.052 9.745,23.053 11.212,22.927 12.020 C 22.382 15.544,20.369 18.456,17.304 20.155 C 16.259 20.734,14.929 21.196,13.790 21.374 L 13.440 21.429 13.440 18.853 C 13.440 16.826,13.451 16.275,13.490 16.264 C 13.518 16.257,13.733 16.198,13.970 16.132 L 14.400 16.013 14.400 18.166 C 14.400 20.244,14.403 20.320,14.475 20.320 C 14.606 20.320,15.562 19.998,16.039 19.794 C 17.773 19.050,19.370 17.718,20.434 16.128 C 22.543 12.975,22.723 8.906,20.899 5.600 C 20.045 4.053,18.725 2.677,17.246 1.796 C 16.699 1.470,16.466 1.464,16.278 1.773 C 16.108 2.051,16.214 2.289,16.613 2.523 C 18.765 3.789,20.289 5.805,20.900 8.197 C 21.146 9.159,21.239 10.175,21.168 11.113 C 20.927 14.258,19.183 16.998,16.458 18.510 C 16.100 18.709,15.470 19.000,15.398 19.000 C 15.375 19.000,15.360 18.277,15.360 17.105 L 15.360 15.209 15.575 15.104 C 15.844 14.973,16.133 14.667,16.272 14.369 C 16.414 14.063,16.420 13.576,16.285 13.232 C 16.199 13.012,15.910 12.659,15.744 12.570 C 15.671 12.532,15.670 12.511,15.718 12.160 C 15.839 11.270,16.144 10.508,16.529 10.130 C 16.647 10.014,16.887 9.824,17.062 9.708 C 17.511 9.411,17.528 9.370,17.509 8.620 C 17.494 8.064,17.483 7.993,17.363 7.660 C 17.292 7.462,17.103 7.047,16.944 6.738 C 15.844 4.601,13.838 2.263,12.611 1.688 C 12.410 1.594,12.330 1.580,11.997 1.580 C 11.627 1.580,11.603 1.586,11.277 1.749 C 10.827 1.974,10.474 2.247,9.917 2.800 C 8.526 4.181,7.019 6.431,6.580 7.780 C 6.465 8.135,6.410 8.716,6.457 9.093 C 6.493 9.380,6.580 9.486,7.019 9.778 C 7.204 9.901,7.429 10.087,7.519 10.191 C 7.854 10.578,8.139 11.322,8.256 12.115 L 8.311 12.490 8.063 12.735 C 7.702 13.092,7.621 13.283,7.620 13.780 C 7.620 14.142,7.631 14.203,7.737 14.418 C 7.882 14.713,8.121 14.956,8.390 15.083 L 8.597 15.180 8.598 17.093 L 8.600 19.005 8.510 18.979 C 8.285 18.912,7.339 18.415,6.971 18.170 C 6.370 17.770,5.979 17.449,5.485 16.948 C 4.951 16.407,4.724 16.127,4.317 15.508 C 3.586 14.397,3.092 13.086,2.895 11.738 C 2.801 11.090,2.801 9.872,2.895 9.226 C 3.075 7.988,3.499 6.789,4.119 5.760 C 4.520 5.093,4.893 4.623,5.518 3.995 C 6.121 3.389,6.624 2.987,7.290 2.581 C 7.687 2.339,7.800 2.208,7.800 1.994 C 7.800 1.847,7.652 1.641,7.500 1.578 C 7.332 1.507,7.333 1.507,7.160 1.609 M9.396 12.863 C 10.109 13.074,10.302 14.021,9.735 14.519 C 9.531 14.698,9.365 14.760,9.086 14.760 C 8.523 14.760,8.121 14.356,8.120 13.789 C 8.120 13.515,8.182 13.348,8.361 13.145 C 8.635 12.833,8.980 12.739,9.396 12.863 M15.359 12.919 C 16.017 13.255,16.054 14.228,15.424 14.618 C 15.141 14.793,14.765 14.811,14.464 14.664 C 13.682 14.281,13.775 13.128,14.609 12.857 C 14.823 12.787,15.153 12.815,15.359 12.919 " stroke="none" fill="black" fill-rule="evenodd"></path></svg>