<svg role="img" viewBox="0 0 24 24" xmlns="http://www.w3.org/2000/svg"><path d="M8.874 0.078 C 6.793 0.437,5.103 1.390,3.814 2.931 C 2.528 4.470,1.742 6.527,1.558 8.838 C 1.516 9.360,1.507 9.397,1.312 9.839 C 0.909 10.757,0.637 11.711,0.496 12.700 C 0.414 13.280,0.402 14.563,0.474 15.120 C 0.775 17.450,1.823 19.550,3.468 21.120 C 5.021 22.602,6.968 23.544,9.200 23.890 C 9.914 24.001,11.356 24.011,12.160 23.910 C 12.576 23.857,12.975 23.843,13.900 23.849 C 15.177 23.857,15.584 23.825,16.320 23.662 C 17.765 23.341,18.656 22.609,19.390 21.140 C 19.890 20.136,20.756 17.730,21.037 16.560 C 21.229 15.758,21.286 15.292,21.309 14.312 C 21.343 12.845,21.194 11.801,20.770 10.540 C 20.653 10.193,20.622 10.039,20.622 9.814 L 20.623 9.527 20.856 9.224 C 21.063 8.953,21.375 8.654,21.632 8.480 C 21.711 8.426,21.735 8.324,21.856 7.499 C 21.963 6.772,22.011 6.546,22.084 6.422 C 22.159 6.295,22.180 6.192,22.193 5.882 C 22.207 5.533,22.218 5.490,22.317 5.380 C 22.377 5.314,22.483 5.140,22.554 4.994 C 22.642 4.810,22.791 4.611,23.037 4.352 C 23.411 3.957,23.513 3.760,23.582 3.302 L 23.609 3.120 23.495 3.141 C 23.432 3.152,23.012 3.206,22.563 3.261 C 20.864 3.467,20.217 3.356,19.583 2.747 C 19.420 2.591,19.259 2.481,19.094 2.415 C 18.951 2.356,18.790 2.253,18.709 2.167 C 18.633 2.086,18.408 1.871,18.208 1.690 L 17.846 1.360 17.786 1.570 C 17.752 1.685,17.677 1.951,17.618 2.160 C 17.559 2.369,17.504 2.547,17.497 2.555 C 17.490 2.563,17.276 2.404,17.021 2.202 C 15.652 1.118,14.311 0.487,12.620 0.130 C 12.167 0.035,12.060 0.029,10.720 0.017 C 9.484 0.006,9.245 0.014,8.874 0.078 M11.580 0.819 C 12.772 0.990,13.970 1.387,15.160 2.006 C 15.761 2.319,16.746 2.958,16.723 3.020 C 16.708 3.061,15.949 3.360,15.861 3.360 C 15.834 3.360,15.706 3.292,15.576 3.208 C 15.446 3.124,15.319 3.043,15.293 3.028 C 15.233 2.991,14.961 3.797,14.958 4.020 C 14.956 4.204,14.286 5.848,14.220 5.831 C 14.173 5.818,14.161 5.882,14.381 4.960 C 14.501 4.457,14.647 3.989,14.835 3.500 L 15.113 2.780 15.022 2.687 L 14.932 2.594 14.713 2.827 C 14.168 3.410,14.088 3.507,14.065 3.620 C 14.051 3.686,14.004 4.125,13.960 4.595 C 13.915 5.065,13.854 5.571,13.823 5.720 C 13.763 6.008,13.594 6.442,13.570 6.370 C 13.562 6.347,13.610 5.916,13.676 5.414 C 13.820 4.323,13.880 3.694,13.880 3.257 L 13.880 2.935 13.656 2.864 C 13.534 2.825,13.423 2.803,13.412 2.815 C 13.400 2.827,13.357 3.004,13.316 3.208 C 13.210 3.735,13.073 4.286,13.053 4.267 C 13.044 4.258,13.066 3.959,13.101 3.604 C 13.136 3.248,13.159 2.914,13.153 2.861 C 13.140 2.766,13.137 2.767,12.850 2.947 L 12.560 3.129 12.556 3.594 L 12.552 4.060 12.475 3.820 C 12.425 3.668,12.388 3.404,12.373 3.093 C 12.349 2.617,12.346 2.605,12.249 2.581 C 12.195 2.567,12.142 2.564,12.132 2.575 C 12.122 2.585,12.077 2.734,12.033 2.907 C 11.937 3.280,11.956 3.572,12.098 3.889 C 12.185 4.087,12.193 4.163,12.213 5.086 C 12.230 5.894,12.246 6.095,12.300 6.199 C 12.362 6.321,12.360 6.352,12.260 6.834 C 12.201 7.112,12.144 7.349,12.132 7.360 C 12.120 7.371,12.124 7.150,12.139 6.869 C 12.161 6.489,12.156 6.343,12.119 6.299 C 12.089 6.263,12.041 5.869,11.995 5.270 C 11.930 4.443,11.898 4.216,11.774 3.729 L 11.628 3.158 11.415 3.029 C 11.229 2.916,11.193 2.873,11.128 2.681 C 11.072 2.516,11.030 2.456,10.957 2.435 C 10.796 2.390,10.600 2.396,10.600 2.447 C 10.600 2.473,10.826 3.301,11.102 4.288 C 11.545 5.872,11.609 6.136,11.642 6.547 C 11.663 6.804,11.674 7.019,11.667 7.027 C 11.659 7.034,11.630 6.910,11.602 6.750 C 11.533 6.365,11.426 6.086,11.265 5.874 C 11.145 5.717,11.130 5.667,11.111 5.357 C 11.084 4.916,10.956 4.645,10.631 4.335 C 10.412 4.126,10.359 4.035,9.882 3.052 C 9.599 2.470,9.335 1.971,9.294 1.943 C 9.253 1.916,9.141 1.863,9.044 1.825 C 8.837 1.744,8.819 1.759,8.779 2.045 C 8.731 2.397,8.811 2.616,9.223 3.259 C 9.624 3.885,10.016 4.409,10.256 4.638 L 10.400 4.776 10.398 5.178 L 10.396 5.580 10.324 5.360 C 10.173 4.893,9.891 4.480,9.722 4.480 C 9.670 4.480,9.644 4.439,9.626 4.328 C 9.584 4.064,9.387 3.830,8.882 3.442 L 8.407 3.076 8.381 2.728 C 8.367 2.537,8.352 2.354,8.347 2.322 C 8.343 2.289,8.284 2.252,8.217 2.238 L 8.094 2.213 8.109 2.536 C 8.129 2.958,8.203 3.188,8.446 3.586 C 8.609 3.852,8.643 3.939,8.633 4.063 L 8.620 4.216 8.467 4.081 C 8.253 3.893,7.846 3.360,7.632 2.987 C 7.452 2.674,7.451 2.674,7.426 2.802 C 7.376 3.051,7.400 3.441,7.479 3.671 C 7.547 3.871,7.615 3.956,8.016 4.344 C 8.321 4.638,8.554 4.827,8.708 4.904 C 8.953 5.026,8.998 5.066,8.999 5.155 C 9.001 5.299,8.358 5.040,7.785 4.667 L 7.449 4.448 7.159 3.574 C 6.999 3.093,6.848 2.687,6.824 2.671 C 6.800 2.654,6.740 2.641,6.690 2.641 C 6.605 2.640,6.600 2.656,6.600 2.910 C 6.601 3.059,6.612 3.271,6.625 3.383 C 6.646 3.557,6.665 3.592,6.758 3.627 C 6.863 3.666,6.868 3.683,6.892 4.020 C 6.921 4.433,7.041 4.726,7.195 4.760 C 7.278 4.778,7.282 4.788,7.230 4.831 C 7.197 4.859,7.101 4.885,7.017 4.891 L 6.863 4.900 6.650 4.504 C 6.533 4.286,6.361 4.006,6.267 3.881 C 6.161 3.740,6.053 3.524,5.979 3.307 C 5.914 3.116,5.850 2.960,5.837 2.960 C 5.823 2.960,5.778 2.998,5.736 3.044 C 5.671 3.117,5.660 3.192,5.660 3.584 C 5.660 3.835,5.657 4.040,5.653 4.040 C 5.650 4.040,5.455 3.887,5.221 3.700 C 4.986 3.512,4.739 3.331,4.672 3.296 L 4.550 3.233 4.805 2.973 C 5.926 1.833,7.541 1.067,9.340 0.823 C 9.882 0.749,11.079 0.747,11.580 0.819 M18.458 3.039 C 18.585 3.083,19.016 3.306,19.416 3.535 L 20.144 3.952 21.202 3.986 L 22.260 4.020 21.756 4.211 C 20.654 4.627,20.494 4.670,20.140 4.643 C 19.836 4.620,19.808 4.609,19.580 4.432 C 19.448 4.330,19.161 4.138,18.943 4.006 L 18.545 3.766 18.392 3.933 C 18.143 4.205,17.814 4.719,17.684 5.040 C 17.541 5.392,17.541 5.388,17.624 4.779 C 17.682 4.360,17.716 4.249,17.947 3.729 C 18.125 3.327,18.198 3.118,18.182 3.053 C 18.153 2.940,18.167 2.939,18.458 3.039 M5.099 4.476 C 5.126 4.598,5.121 4.609,5.054 4.581 C 5.014 4.565,4.946 4.541,4.905 4.530 C 4.860 4.517,4.774 4.384,4.685 4.193 L 4.540 3.878 4.388 3.982 C 4.242 4.081,4.231 4.083,4.135 4.021 L 4.035 3.955 4.116 3.828 C 4.160 3.757,4.273 3.603,4.365 3.484 L 4.534 3.268 4.802 3.804 C 4.949 4.099,5.083 4.401,5.099 4.476 M8.750 5.674 C 8.995 5.750,9.274 5.920,9.427 6.086 C 9.698 6.378,9.946 6.978,10.120 7.760 C 10.190 8.072,10.200 8.266,10.200 9.237 C 10.200 9.953,10.215 10.364,10.241 10.380 C 10.302 10.418,10.461 10.749,10.558 11.041 C 10.606 11.183,10.659 11.480,10.678 11.700 C 10.706 12.030,10.748 12.202,10.921 12.680 L 11.130 13.260 11.463 13.581 C 11.822 13.927,11.964 14.167,12.050 14.576 C 12.087 14.753,12.086 14.829,12.045 14.942 C 11.997 15.074,12.001 15.097,12.096 15.240 C 12.152 15.326,12.384 15.592,12.610 15.831 C 13.049 16.296,13.259 16.627,13.303 16.922 C 13.318 17.020,13.390 17.211,13.465 17.347 L 13.601 17.594 13.830 17.622 C 14.004 17.642,14.089 17.676,14.180 17.762 C 14.285 17.861,14.341 17.878,14.640 17.902 C 15.072 17.937,15.133 17.896,15.243 17.500 C 15.381 17.003,15.333 16.743,15.043 16.399 C 14.893 16.221,14.890 16.211,14.873 15.832 C 14.858 15.487,14.841 15.415,14.711 15.153 C 14.632 14.992,14.555 14.779,14.542 14.680 C 14.511 14.449,14.367 14.138,14.137 13.809 C 14.007 13.624,13.944 13.485,13.915 13.325 C 13.893 13.201,13.821 12.895,13.754 12.645 C 13.528 11.793,13.477 11.460,13.453 10.672 C 13.432 10.024,13.441 9.846,13.518 9.332 C 13.567 9.004,13.641 8.669,13.684 8.580 C 13.804 8.330,14.363 7.599,14.582 7.405 C 14.770 7.240,15.102 7.045,15.132 7.082 C 15.140 7.092,15.309 7.301,15.508 7.546 C 15.857 7.977,15.874 8.008,16.020 8.466 C 16.193 9.009,16.274 9.185,16.406 9.305 C 16.530 9.418,16.733 9.519,16.857 9.529 C 16.911 9.533,16.948 9.546,16.937 9.556 C 16.916 9.577,17.242 9.920,17.283 9.920 C 17.298 9.920,17.379 9.857,17.463 9.780 C 17.687 9.575,17.988 9.474,18.450 9.450 C 18.840 9.429,18.840 9.429,18.840 9.525 C 18.840 9.619,18.834 9.620,18.430 9.624 C 17.990 9.629,17.780 9.684,17.506 9.864 C 17.361 9.960,17.356 9.970,17.420 10.040 C 17.484 10.111,17.491 10.110,17.629 10.016 C 17.843 9.872,18.237 9.765,18.671 9.734 L 19.058 9.707 18.994 9.803 C 18.937 9.891,18.892 9.903,18.535 9.930 C 18.130 9.962,17.720 10.055,17.720 10.117 C 17.720 10.136,17.901 10.164,18.123 10.180 L 18.526 10.209 18.588 10.339 C 18.649 10.467,18.655 10.469,18.993 10.495 C 19.672 10.548,19.619 10.517,19.757 10.935 C 20.089 11.938,20.216 12.770,20.218 13.960 C 20.221 15.657,20.006 16.556,19.229 18.096 C 18.349 19.839,17.341 20.676,15.850 20.901 C 15.342 20.977,14.250 20.978,13.779 20.901 C 11.754 20.573,9.887 18.873,7.978 15.620 C 7.642 15.047,6.772 13.357,6.331 12.420 C 6.008 11.734,5.569 11.262,5.078 11.076 C 4.654 10.914,4.345 11.007,3.986 11.404 C 3.449 11.998,3.131 12.649,2.976 13.476 C 2.880 13.986,2.918 15.061,3.054 15.670 C 3.438 17.384,4.525 19.384,5.748 20.624 C 6.266 21.149,7.194 21.770,8.380 22.386 C 8.732 22.569,9.008 22.719,8.993 22.719 C 8.786 22.725,7.692 22.410,7.114 22.178 C 4.405 21.091,2.400 18.784,1.743 15.996 C 1.452 14.763,1.445 13.321,1.723 12.063 C 2.009 10.774,2.694 9.370,3.562 8.293 C 4.161 7.551,5.147 6.693,5.981 6.188 C 6.347 5.967,6.843 5.781,7.381 5.666 C 7.790 5.579,8.456 5.582,8.750 5.674 M18.811 7.833 C 19.111 7.994,19.480 8.296,19.480 8.382 C 19.480 8.455,19.353 8.720,19.317 8.720 C 19.302 8.720,19.221 8.635,19.136 8.530 C 19.052 8.425,18.865 8.214,18.720 8.060 C 18.575 7.906,18.431 7.746,18.399 7.704 C 18.345 7.634,18.347 7.630,18.440 7.659 C 18.495 7.675,18.662 7.754,18.811 7.833 M18.384 9.223 C 18.371 9.258,18.360 9.299,18.360 9.313 C 18.360 9.328,18.140 9.340,17.870 9.340 C 17.447 9.340,17.354 9.352,17.185 9.430 C 17.057 9.489,17.007 9.500,17.039 9.461 C 17.155 9.322,17.725 9.178,18.214 9.165 C 18.376 9.161,18.405 9.171,18.384 9.223 M20.120 9.885 C 20.120 9.931,20.080 10.041,20.031 10.128 C 19.947 10.276,19.932 10.286,19.801 10.265 C 19.659 10.242,19.477 10.131,19.450 10.050 C 19.428 9.985,19.603 9.883,19.805 9.843 C 20.088 9.788,20.120 9.792,20.120 9.885 M17.203 10.109 C 17.153 10.218,17.154 10.218,17.237 10.143 C 17.323 10.065,17.345 10.000,17.286 10.000 C 17.268 10.000,17.230 10.049,17.203 10.109 M17.252 10.290 C 17.184 10.362,17.061 10.555,16.980 10.720 C 16.813 11.059,16.828 11.052,17.093 10.673 C 17.196 10.526,17.336 10.366,17.404 10.317 C 17.498 10.250,17.515 10.221,17.474 10.195 C 17.395 10.145,17.387 10.148,17.252 10.290 M5.575 14.150 C 5.556 14.158,5.189 14.367,4.760 14.616 L 3.980 15.068 3.955 14.964 C 3.941 14.907,3.927 14.739,3.925 14.590 L 3.920 14.320 4.110 14.319 C 4.489 14.317,4.793 14.095,5.249 13.488 L 5.540 13.100 5.575 13.618 C 5.596 13.920,5.596 14.142,5.575 14.150 M6.411 15.647 C 6.473 15.804,6.508 15.948,6.491 15.965 C 6.473 15.983,6.009 16.241,5.460 16.540 C 4.623 16.994,4.454 17.073,4.418 17.023 C 4.359 16.943,4.143 16.403,4.164 16.387 C 4.173 16.380,4.432 16.279,4.740 16.162 C 5.438 15.896,5.895 15.670,6.090 15.495 C 6.173 15.421,6.254 15.360,6.270 15.360 C 6.287 15.360,6.350 15.489,6.411 15.647 M7.103 16.870 C 7.126 16.909,7.184 17.006,7.233 17.086 L 7.322 17.232 7.031 17.392 C 6.606 17.625,6.112 17.990,5.688 18.384 C 5.484 18.574,5.310 18.723,5.303 18.715 C 5.295 18.707,5.198 18.518,5.087 18.295 L 4.884 17.890 5.252 17.758 C 5.749 17.580,6.404 17.248,6.741 17.002 C 6.893 16.891,7.028 16.800,7.040 16.800 C 7.051 16.800,7.080 16.832,7.103 16.870 M8.485 18.559 C 8.478 18.591,8.396 18.735,8.302 18.879 C 8.099 19.189,7.593 19.686,7.120 20.039 C 6.933 20.179,6.760 20.308,6.736 20.326 C 6.693 20.359,6.000 19.608,6.000 19.529 C 6.000 19.508,6.344 19.287,6.764 19.037 C 7.269 18.738,7.619 18.499,7.794 18.336 L 8.060 18.089 8.279 18.294 C 8.400 18.407,8.493 18.526,8.485 18.559 M9.577 19.764 C 9.574 19.975,9.548 20.070,9.428 20.305 C 9.269 20.619,8.928 21.062,8.587 21.395 L 8.367 21.610 8.032 21.448 C 7.727 21.300,7.311 20.993,7.360 20.951 C 7.371 20.941,7.578 20.829,7.820 20.701 C 8.467 20.359,9.020 19.987,9.275 19.723 C 9.399 19.595,9.518 19.494,9.540 19.499 C 9.562 19.504,9.578 19.623,9.577 19.764 M10.638 20.820 C 10.643 21.082,10.767 21.360,10.879 21.360 C 10.925 21.360,10.971 21.383,10.982 21.410 C 10.992 21.438,10.938 21.648,10.861 21.877 C 10.784 22.105,10.710 22.379,10.695 22.486 C 10.671 22.669,10.665 22.678,10.565 22.655 C 10.112 22.552,9.440 22.261,9.440 22.169 C 9.440 22.152,9.692 21.736,10.000 21.244 C 10.308 20.753,10.562 20.330,10.565 20.305 C 10.575 20.212,10.634 20.628,10.638 20.820 M12.589 21.691 L 13.066 22.243 13.048 22.579 C 13.026 22.998,13.050 23.097,13.212 23.245 L 13.340 23.362 13.220 23.343 C 13.154 23.332,12.959 23.314,12.787 23.302 C 12.333 23.271,11.720 23.094,11.720 22.995 C 11.720 22.978,11.756 22.904,11.800 22.830 C 12.004 22.484,12.054 22.250,12.054 21.649 C 12.054 21.335,12.067 21.092,12.083 21.109 C 12.099 21.126,12.326 21.388,12.589 21.691 M17.544 21.820 C 17.638 21.974,17.780 22.157,17.860 22.227 L 18.006 22.354 17.795 22.520 C 17.595 22.678,17.237 22.879,17.057 22.935 C 16.979 22.959,16.976 22.948,16.992 22.727 C 17.004 22.559,16.979 22.377,16.902 22.081 C 16.831 21.805,16.809 21.655,16.836 21.628 C 16.884 21.580,17.141 21.525,17.277 21.534 C 17.352 21.539,17.413 21.605,17.544 21.820 M14.688 21.905 C 15.390 22.157,15.592 22.306,15.783 22.711 C 15.863 22.881,15.964 23.059,16.008 23.106 C 16.086 23.191,16.086 23.193,16.009 23.217 C 15.784 23.288,15.213 23.360,14.866 23.360 L 14.473 23.360 14.575 23.238 C 14.817 22.951,14.803 22.684,14.518 22.116 C 14.431 21.942,14.367 21.800,14.377 21.800 C 14.387 21.800,14.527 21.847,14.688 21.905 " stroke="none" fill="black" fill-rule="evenodd"></path></svg>