<svg role="img" viewBox="0 0 24 24" xmlns="http://www.w3.org/2000/svg"><path d="M11.730 2.924 C 11.258 3.003,10.847 3.313,10.631 3.752 L 10.500 4.018 10.500 5.659 L 10.500 7.300 10.611 7.525 C 10.776 7.862,11.004 8.097,11.311 8.249 C 11.560 8.371,11.607 8.380,11.979 8.380 C 12.330 8.380,12.408 8.367,12.608 8.273 C 12.910 8.132,13.177 7.857,13.333 7.528 L 13.460 7.260 13.472 5.785 C 13.485 4.254,13.471 4.070,13.317 3.742 C 13.135 3.355,12.690 3.004,12.300 2.941 C 11.992 2.890,11.938 2.889,11.730 2.924 M1.135 3.836 C 0.714 3.944,0.343 4.257,0.147 4.671 C 0.033 4.912,0.020 4.978,0.020 5.301 C 0.020 5.626,0.033 5.687,0.148 5.921 C 0.218 6.063,0.353 6.254,0.448 6.344 C 0.543 6.435,1.613 7.229,2.827 8.110 C 4.433 9.275,5.091 9.731,5.242 9.781 C 5.555 9.885,6.076 9.851,6.370 9.706 C 6.670 9.560,7.006 9.195,7.120 8.891 C 7.193 8.699,7.205 8.599,7.191 8.300 C 7.172 7.872,7.087 7.653,6.836 7.380 C 6.610 7.135,2.395 4.070,2.095 3.932 C 1.846 3.818,1.384 3.772,1.135 3.836 M22.006 3.878 C 21.888 3.921,21.771 3.973,21.746 3.993 C 21.721 4.013,20.737 4.726,19.560 5.579 C 18.383 6.431,17.337 7.210,17.235 7.308 C 17.132 7.407,16.997 7.590,16.935 7.714 C 16.830 7.920,16.820 7.977,16.820 8.360 C 16.820 8.745,16.830 8.799,16.937 9.011 C 17.076 9.286,17.404 9.608,17.668 9.729 C 17.943 9.856,18.617 9.859,18.880 9.735 C 19.101 9.631,23.313 6.576,23.552 6.346 C 24.300 5.626,24.058 4.344,23.093 3.912 C 22.814 3.787,22.294 3.771,22.006 3.878 M10.920 9.187 C 8.610 9.423,6.502 10.240,4.745 11.581 C 4.500 11.767,4.228 11.983,4.140 12.060 L 3.980 12.199 11.980 12.199 L 19.980 12.200 19.860 12.099 C 17.878 10.435,15.754 9.503,13.300 9.220 C 12.829 9.166,11.332 9.145,10.920 9.187 M17.787 13.881 C 16.885 14.023,16.269 14.320,15.720 14.877 C 15.334 15.269,15.164 15.534,14.974 16.038 C 14.454 17.423,14.742 19.025,15.692 20.029 C 16.094 20.454,16.782 20.834,17.420 20.981 C 17.993 21.114,19.099 21.124,19.663 21.000 C 20.760 20.761,21.528 20.180,21.963 19.260 C 22.046 19.084,22.126 18.899,22.140 18.850 L 22.165 18.760 20.993 18.760 L 19.820 18.761 19.727 18.897 C 19.514 19.210,19.131 19.368,18.580 19.370 C 17.988 19.371,17.614 19.183,17.389 18.770 C 17.279 18.568,17.160 18.173,17.160 18.012 L 17.160 17.920 19.706 17.920 L 22.251 17.920 22.228 17.350 C 22.202 16.674,22.110 16.261,21.877 15.764 C 21.447 14.846,20.702 14.237,19.687 13.973 C 19.371 13.891,19.183 13.870,18.660 13.859 C 18.308 13.851,17.915 13.861,17.787 13.881 M5.640 13.980 C 5.246 14.068,4.758 14.327,4.459 14.607 L 4.200 14.849 4.200 14.445 L 4.200 14.040 2.960 14.040 L 1.720 14.040 1.720 17.460 L 1.720 20.880 2.958 20.880 L 4.197 20.880 4.209 18.810 C 4.222 16.494,4.219 16.527,4.515 16.138 C 4.724 15.863,4.906 15.780,5.300 15.781 C 5.578 15.781,5.646 15.796,5.811 15.893 C 6.040 16.027,6.173 16.217,6.265 16.540 C 6.324 16.748,6.335 17.055,6.350 18.830 L 6.367 20.880 7.584 20.880 L 8.800 20.880 8.800 18.948 C 8.800 17.363,8.811 16.976,8.860 16.787 C 8.939 16.481,9.041 16.291,9.220 16.113 C 9.446 15.887,9.613 15.821,9.960 15.821 C 10.461 15.820,10.715 16.022,10.866 16.542 C 10.926 16.750,10.937 17.040,10.950 18.830 L 10.966 20.880 12.185 20.880 L 13.404 20.880 13.390 18.310 C 13.373 15.470,13.379 15.539,13.108 15.020 C 12.958 14.734,12.613 14.381,12.338 14.233 C 11.833 13.960,10.836 13.841,10.200 13.976 C 9.573 14.109,8.947 14.521,8.632 15.006 L 8.504 15.204 8.432 15.065 C 8.313 14.833,7.924 14.446,7.644 14.281 C 7.245 14.047,6.901 13.955,6.360 13.937 C 6.050 13.926,5.815 13.940,5.640 13.980 M19.291 15.553 C 19.618 15.713,19.860 16.008,19.978 16.390 L 20.005 16.480 18.623 16.480 C 17.494 16.480,17.240 16.470,17.240 16.426 C 17.240 16.294,17.499 15.870,17.679 15.709 C 17.949 15.466,18.169 15.398,18.643 15.411 C 18.983 15.421,19.056 15.437,19.291 15.553 " stroke="none" fill="black" fill-rule="evenodd"></path></svg>