<svg role="img" viewBox="0 0 24 24" xmlns="http://www.w3.org/2000/svg"><path d="M1.177 0.678 C 1.065 0.718,0.903 0.795,0.817 0.850 C 0.611 0.980,0.309 1.307,0.204 1.513 C -0.012 1.935,-0.000 1.338,0.000 12.000 C 0.000 22.662,-0.012 22.065,0.204 22.487 C 0.308 22.693,0.611 23.019,0.816 23.150 C 0.901 23.204,1.072 23.287,1.196 23.334 L 1.420 23.420 11.740 23.431 C 17.734 23.437,22.194 23.426,22.380 23.405 C 22.847 23.352,23.120 23.235,23.415 22.959 C 23.552 22.831,23.712 22.637,23.771 22.530 C 24.016 22.080,24.000 22.797,24.000 12.000 C 24.000 1.208,24.015 1.920,23.772 1.473 C 23.625 1.202,23.290 0.899,22.970 0.748 L 22.700 0.620 12.040 0.613 C 1.837 0.606,1.371 0.609,1.177 0.678 M22.766 1.211 C 23.027 1.339,23.252 1.570,23.375 1.835 L 23.460 2.020 23.470 11.959 C 23.480 20.959,23.475 21.916,23.417 22.089 C 23.331 22.349,23.019 22.683,22.751 22.805 L 22.540 22.900 12.000 22.900 L 1.460 22.900 1.240 22.796 C 0.927 22.649,0.782 22.512,0.642 22.232 L 0.520 21.987 0.521 12.004 C 0.522 2.060,0.522 2.019,0.603 1.841 C 0.772 1.467,1.038 1.243,1.437 1.135 C 1.581 1.096,3.876 1.087,12.080 1.093 L 22.540 1.100 22.766 1.211 M3.400 4.677 C 3.089 4.772,2.771 5.074,2.687 5.352 C 2.621 5.573,2.621 9.227,2.687 9.448 C 2.747 9.647,3.000 9.937,3.215 10.052 C 3.374 10.137,3.427 10.140,4.690 10.152 L 6.000 10.164 6.000 9.482 L 6.000 8.800 5.123 8.800 L 4.246 8.800 4.123 8.696 L 4.000 8.593 4.000 7.400 L 4.000 6.207 4.123 6.104 L 4.246 6.000 5.406 6.000 L 6.566 6.000 6.683 6.117 L 6.800 6.234 6.800 8.600 C 6.800 10.146,6.786 10.992,6.759 11.042 C 6.655 11.236,6.614 11.240,4.562 11.240 L 2.640 11.240 2.640 11.921 L 2.640 12.603 5.010 12.591 L 7.380 12.580 7.586 12.471 C 7.699 12.412,7.848 12.295,7.916 12.213 C 8.171 11.903,8.163 12.013,8.151 8.556 L 8.140 5.420 8.031 5.214 C 7.972 5.101,7.856 4.953,7.774 4.885 C 7.479 4.642,7.455 4.640,5.383 4.643 C 4.347 4.645,3.455 4.661,3.400 4.677 M10.000 4.677 C 9.723 4.763,9.478 4.970,9.334 5.240 C 9.265 5.371,9.260 5.507,9.260 7.400 C 9.260 9.395,9.261 9.422,9.346 9.580 C 9.448 9.769,9.645 9.962,9.840 10.066 C 9.971 10.135,10.107 10.140,12.000 10.140 C 13.995 10.140,14.022 10.139,14.180 10.054 C 14.369 9.952,14.562 9.755,14.666 9.560 C 14.735 9.429,14.740 9.293,14.740 7.400 C 14.740 5.507,14.735 5.371,14.666 5.240 C 14.562 5.045,14.369 4.848,14.180 4.746 C 14.023 4.661,13.986 4.660,12.060 4.653 C 10.982 4.649,10.055 4.659,10.000 4.677 M16.539 4.703 C 16.306 4.786,16.094 4.977,15.969 5.214 L 15.860 5.420 15.860 7.400 L 15.860 9.380 15.954 9.570 C 16.005 9.674,16.120 9.822,16.208 9.898 C 16.498 10.146,16.592 10.160,17.967 10.160 L 19.200 10.160 19.200 9.480 L 19.200 8.800 18.317 8.800 L 17.434 8.800 17.317 8.683 L 17.200 8.566 17.200 7.400 L 17.200 6.234 17.317 6.117 L 17.434 6.000 18.594 6.000 L 19.754 6.000 19.877 6.104 L 20.000 6.207 20.000 8.601 L 20.000 10.996 19.903 11.108 L 19.807 11.220 17.823 11.231 L 15.840 11.242 15.840 11.923 L 15.840 12.603 18.210 12.591 C 20.843 12.579,20.711 12.592,21.031 12.304 C 21.119 12.224,21.233 12.065,21.285 11.950 L 21.380 11.740 21.380 8.600 C 21.380 5.731,21.374 5.447,21.312 5.310 C 21.200 5.063,21.052 4.900,20.830 4.776 L 20.620 4.660 18.660 4.652 C 17.033 4.646,16.673 4.655,16.539 4.703 M13.194 6.057 C 13.389 6.158,13.400 6.235,13.400 7.458 L 13.400 8.593 13.277 8.696 L 13.154 8.800 11.994 8.800 L 10.834 8.800 10.717 8.683 L 10.600 8.566 10.600 7.412 C 10.600 6.170,10.607 6.123,10.814 6.040 C 10.861 6.021,11.391 6.004,11.992 6.003 C 12.863 6.001,13.106 6.012,13.194 6.057 M3.400 13.957 C 3.125 14.041,2.878 14.249,2.734 14.520 C 2.665 14.651,2.660 14.786,2.660 16.640 C 2.660 18.594,2.661 18.622,2.746 18.780 C 2.848 18.969,3.045 19.162,3.240 19.266 C 3.370 19.335,3.516 19.341,5.270 19.351 L 7.160 19.363 7.160 18.701 L 7.160 18.040 5.696 18.040 L 4.232 18.040 4.096 17.904 L 3.960 17.768 3.960 16.666 C 3.960 15.897,3.974 15.532,4.008 15.459 C 4.105 15.246,4.154 15.240,5.718 15.240 L 7.160 15.240 7.160 14.580 L 7.160 13.920 5.330 13.923 C 4.324 13.925,3.455 13.941,3.400 13.957 M8.960 13.957 C 8.633 14.057,8.355 14.334,8.259 14.656 C 8.172 14.949,8.172 18.331,8.259 18.624 C 8.330 18.865,8.549 19.131,8.774 19.251 C 8.938 19.339,8.965 19.340,10.855 19.351 C 12.965 19.364,12.995 19.361,13.289 19.119 C 13.369 19.053,13.486 18.895,13.547 18.769 L 13.660 18.540 13.660 16.640 L 13.660 14.740 13.564 14.528 C 13.511 14.411,13.398 14.256,13.310 14.180 C 13.007 13.921,12.991 13.920,10.923 13.923 C 9.898 13.925,9.015 13.941,8.960 13.957 M15.480 13.957 C 15.205 14.041,14.958 14.249,14.814 14.520 C 14.745 14.651,14.739 14.807,14.729 17.010 L 14.718 19.360 15.378 19.360 L 16.038 19.360 16.049 17.417 L 16.060 15.473 16.191 15.357 C 16.321 15.240,16.323 15.240,16.841 15.240 L 17.360 15.240 17.360 17.300 L 17.360 19.360 18.040 19.360 L 18.720 19.360 18.720 17.437 C 18.720 16.195,18.735 15.488,18.761 15.438 C 18.845 15.281,19.008 15.240,19.538 15.240 L 20.040 15.240 20.040 17.300 L 20.040 19.360 20.700 19.360 L 21.360 19.360 21.360 16.640 L 21.360 13.920 18.470 13.923 C 16.881 13.925,15.535 13.941,15.480 13.957 M12.224 15.372 L 12.320 15.484 12.320 16.625 C 12.320 17.331,12.304 17.795,12.279 17.842 C 12.182 18.023,12.069 18.040,10.940 18.040 C 9.811 18.040,9.698 18.023,9.601 17.842 C 9.576 17.795,9.560 17.333,9.560 16.632 C 9.560 15.412,9.568 15.364,9.774 15.279 C 9.821 15.259,10.370 15.247,10.994 15.252 L 12.127 15.260 12.224 15.372 " stroke="none" fill="black" fill-rule="evenodd"></path></svg>