<svg role="img" viewBox="0 0 24 24" xmlns="http://www.w3.org/2000/svg"><path d="M11.120 0.043 C 8.585 0.323,6.587 1.715,5.441 4.000 C 5.135 4.611,4.945 5.128,4.761 5.857 C 4.547 6.702,4.474 7.252,4.450 8.204 C 4.391 10.559,4.871 12.603,5.830 14.080 C 7.178 16.154,9.389 17.196,12.256 17.108 C 13.307 17.076,14.001 16.908,14.820 16.487 C 15.802 15.982,16.789 14.976,17.304 13.952 C 17.379 13.803,17.461 13.680,17.485 13.680 C 17.558 13.680,17.504 16.900,17.422 17.478 C 17.196 19.072,16.710 20.214,15.922 21.003 C 15.123 21.804,13.991 22.215,12.440 22.268 C 11.337 22.306,10.403 22.166,9.590 21.840 C 9.045 21.621,8.650 21.370,8.248 20.984 C 7.721 20.478,7.410 19.938,7.243 19.240 L 7.172 18.940 6.126 18.929 L 5.080 18.919 5.080 19.038 C 5.080 19.221,5.222 19.909,5.319 20.200 C 5.575 20.964,6.114 21.747,6.779 22.322 C 7.714 23.131,8.922 23.633,10.540 23.888 C 11.279 24.004,12.866 24.014,13.636 23.907 C 16.051 23.570,17.611 22.575,18.580 20.751 C 19.048 19.869,19.408 18.483,19.510 17.160 C 19.527 16.951,19.535 13.113,19.528 8.630 L 19.516 0.480 18.498 0.480 L 17.480 0.480 17.480 1.940 C 17.480 2.872,17.466 3.400,17.441 3.400 C 17.419 3.400,17.345 3.287,17.275 3.150 C 16.927 2.457,16.171 1.592,15.491 1.108 C 14.834 0.640,14.028 0.284,13.248 0.118 C 12.795 0.022,11.670 -0.018,11.120 0.043 M12.597 1.762 C 13.738 1.879,14.691 2.333,15.495 3.143 C 16.430 4.084,17.044 5.441,17.306 7.140 C 17.409 7.812,17.410 9.556,17.308 10.140 C 17.001 11.884,16.387 13.132,15.366 14.086 C 14.384 15.002,13.367 15.400,12.006 15.400 C 10.534 15.400,9.429 14.968,8.427 14.003 C 7.436 13.048,6.856 11.828,6.573 10.100 C 6.517 9.757,6.501 9.443,6.503 8.680 C 6.505 7.621,6.570 7.032,6.779 6.170 C 7.194 4.462,8.164 3.103,9.519 2.330 C 10.356 1.853,11.473 1.646,12.597 1.762 " stroke="none" fill="black" fill-rule="evenodd"></path></svg>