<svg role="img" xmlns="http://www.w3.org/2000/svg" viewBox="0 0 24 24"><path d="M11.000 0.041 C 10.386 0.099,9.600 0.235,9.012 0.384 C 8.710 0.461,8.453 0.535,8.441 0.548 C 8.430 0.561,8.465 0.560,8.520 0.546 C 8.575 0.531,8.834 0.484,9.096 0.440 C 11.734 0.002,14.382 0.878,16.560 2.908 C 17.587 3.865,18.331 4.757,19.240 6.120 C 19.988 7.242,20.457 7.813,20.955 8.209 C 21.534 8.670,21.977 8.824,22.620 8.788 C 22.946 8.770,23.457 8.676,23.508 8.625 C 23.514 8.619,23.459 8.435,23.385 8.217 C 22.018 4.169,18.732 1.201,14.600 0.280 C 13.596 0.056,11.978 -0.051,11.000 0.041 M6.980 2.205 C 6.036 2.323,4.935 2.769,3.927 3.442 C 3.158 3.956,2.740 4.328,2.372 4.827 C 1.011 6.669,0.237 8.732,0.040 11.040 C -0.017 11.712,-0.004 11.797,0.083 11.306 C 0.288 10.143,0.836 9.049,1.595 8.287 C 3.197 6.679,5.430 6.494,7.666 7.784 C 8.422 8.221,9.006 8.681,9.762 9.438 C 10.594 10.270,11.107 10.908,12.001 12.220 C 12.819 13.421,13.351 14.079,14.099 14.814 C 16.232 16.909,18.714 17.720,20.828 17.014 C 22.196 16.557,23.293 15.476,23.740 14.145 C 23.798 13.972,23.871 13.639,23.903 13.405 C 23.971 12.894,24.023 11.777,23.985 11.624 L 23.957 11.515 23.729 11.711 C 22.827 12.487,21.838 12.814,20.798 12.680 C 19.465 12.508,18.172 11.669,16.899 10.149 C 16.445 9.608,16.121 9.148,15.520 8.194 C 15.245 7.757,14.872 7.189,14.692 6.930 C 12.255 3.442,9.685 1.867,6.980 2.205 M2.920 13.300 C 2.035 13.543,1.391 14.214,1.113 15.182 C 0.993 15.600,0.979 16.607,1.089 16.960 C 1.246 17.461,2.012 18.724,2.644 19.520 C 3.066 20.052,3.936 20.923,4.480 21.359 C 7.285 23.603,10.948 24.476,14.480 23.741 C 17.325 23.149,19.858 21.528,21.626 19.169 C 22.080 18.564,22.061 18.553,21.507 19.101 C 20.772 19.827,20.085 20.285,19.180 20.654 C 18.247 21.034,17.504 21.174,16.420 21.175 C 15.548 21.176,14.942 21.090,14.173 20.857 C 11.991 20.196,10.129 18.810,8.262 16.458 C 7.560 15.573,6.629 14.613,6.100 14.227 C 5.597 13.860,5.078 13.583,4.590 13.419 C 4.184 13.283,4.091 13.267,3.640 13.254 C 3.280 13.244,3.078 13.257,2.920 13.300 " stroke="none" fill="black" fill-rule="evenodd"></path></svg>