<svg role="img" xmlns="http://www.w3.org/2000/svg" viewBox="0 0 24 24"><path d="M6.020 0.028 C 5.932 0.036,5.665 0.078,5.427 0.123 C 3.061 0.564,1.090 2.288,0.343 4.569 C 0.046 5.474,0.001 5.905,0.000 7.810 L 0.000 9.320 1.657 9.320 L 3.314 9.320 3.330 7.750 C 3.345 6.287,3.352 6.158,3.433 5.860 C 3.697 4.897,4.327 4.116,5.180 3.697 C 5.858 3.363,5.961 3.348,7.750 3.330 L 9.320 3.314 9.320 1.657 L 9.320 0.000 7.750 0.007 C 6.886 0.010,6.108 0.020,6.020 0.028 M14.680 1.657 L 14.680 3.314 16.250 3.330 C 18.040 3.348,18.143 3.363,18.820 3.697 C 19.476 4.021,19.976 4.521,20.302 5.180 C 20.636 5.853,20.651 5.959,20.670 7.750 L 20.687 9.320 22.347 9.320 L 24.007 9.320 23.988 7.590 C 23.969 5.715,23.956 5.582,23.721 4.776 C 23.075 2.560,21.239 0.782,19.013 0.217 C 18.296 0.035,17.839 0.000,16.198 0.000 L 14.680 0.000 14.680 1.657 M11.620 7.345 C 10.710 7.442,9.835 7.782,9.160 8.301 C 8.842 8.545,8.328 9.096,8.115 9.420 C 7.596 10.211,7.347 11.048,7.347 12.000 C 7.347 12.951,7.599 13.798,8.114 14.580 C 8.328 14.905,8.843 15.455,9.160 15.699 C 10.532 16.753,12.395 16.953,13.992 16.218 C 14.587 15.944,15.282 15.382,15.699 14.840 C 16.320 14.032,16.653 13.040,16.653 12.000 C 16.653 11.411,16.575 10.957,16.379 10.408 C 16.133 9.721,15.766 9.165,15.195 8.619 C 14.532 7.985,13.772 7.592,12.884 7.423 C 12.550 7.360,11.875 7.318,11.620 7.345 M0.000 16.198 C 0.000 17.850,0.036 18.306,0.222 19.026 C 0.801 21.261,2.561 23.075,4.776 23.721 C 5.582 23.956,5.715 23.969,7.590 23.988 L 9.320 24.007 9.320 22.347 L 9.320 20.687 7.750 20.670 C 5.957 20.651,5.849 20.636,5.180 20.301 C 4.512 19.966,4.021 19.477,3.697 18.820 C 3.364 18.146,3.349 18.040,3.330 16.250 L 3.313 14.680 1.656 14.680 L 0.000 14.680 0.000 16.198 M19.609 17.364 C 19.047 17.449,18.538 17.709,18.123 18.123 C 17.205 19.042,17.077 20.411,17.808 21.504 C 18.365 22.337,19.435 22.801,20.400 22.629 C 20.854 22.548,21.143 22.433,21.506 22.191 C 22.017 21.849,22.426 21.262,22.586 20.640 C 22.673 20.301,22.673 19.699,22.586 19.360 C 22.245 18.034,20.945 17.162,19.609 17.364 " stroke="none" fill="black" fill-rule="evenodd"></path></svg>