<svg role="img" xmlns="http://www.w3.org/2000/svg" viewBox="0 0 24 24"><path d="M1.134 1.723 C 0.680 1.866,0.249 2.284,0.093 2.730 C 0.023 2.931,0.020 3.316,0.020 12.000 C 0.020 20.684,0.023 21.069,0.093 21.270 C 0.251 21.723,0.683 22.136,1.147 22.279 C 1.406 22.359,1.494 22.360,12.001 22.360 C 22.368 22.360,22.598 22.358,22.842 22.282 C 22.979 22.240,23.180 22.145,23.288 22.072 C 23.533 21.908,23.809 21.549,23.907 21.271 C 23.977 21.069,23.980 20.685,23.980 12.000 C 23.980 3.315,23.977 2.931,23.907 2.729 C 23.809 2.451,23.533 2.092,23.288 1.928 C 23.180 1.855,22.979 1.760,22.842 1.718 C 22.598 1.642,22.372 1.640,11.986 1.642 C 1.579 1.644,1.375 1.646,1.134 1.723 M21.800 12.001 L 21.800 20.201 20.450 20.191 L 19.100 20.180 19.089 19.630 L 19.078 19.080 16.640 19.080 L 14.202 19.080 14.191 19.630 L 14.180 20.180 8.190 20.190 L 2.200 20.200 2.200 12.000 L 2.200 3.800 12.000 3.800 L 21.800 3.800 21.800 12.001 M11.453 8.275 C 10.475 8.638,10.075 9.779,10.611 10.675 C 10.775 10.947,10.991 11.137,11.320 11.295 C 11.560 11.411,11.612 11.420,12.000 11.420 C 12.389 11.420,12.440 11.411,12.690 11.292 C 13.184 11.058,13.517 10.616,13.611 10.066 C 13.727 9.384,13.338 8.647,12.700 8.340 C 12.380 8.186,11.778 8.155,11.453 8.275 M7.375 10.116 C 6.990 10.214,6.667 10.483,6.507 10.835 C 6.378 11.122,6.388 11.554,6.532 11.847 C 6.818 12.432,7.544 12.699,8.124 12.432 C 8.435 12.289,8.580 12.150,8.725 11.857 C 8.831 11.641,8.852 11.552,8.852 11.317 C 8.852 10.941,8.674 10.574,8.386 10.357 C 8.102 10.142,7.672 10.040,7.375 10.116 M16.047 10.140 C 15.498 10.294,15.148 10.756,15.148 11.328 C 15.148 11.551,15.171 11.644,15.275 11.857 C 15.419 12.149,15.565 12.289,15.872 12.430 C 16.403 12.674,17.061 12.480,17.391 11.981 C 18.001 11.060,17.112 9.843,16.047 10.140 M11.300 12.585 C 10.705 12.675,9.969 12.894,9.542 13.108 C 9.431 13.164,9.229 13.287,9.093 13.382 C 8.847 13.553,8.844 13.553,8.673 13.502 C 7.348 13.106,5.470 13.632,5.016 14.527 C 4.929 14.700,4.920 14.766,4.920 15.259 L 4.920 15.800 12.000 15.800 L 19.080 15.800 19.080 15.270 C 19.079 14.799,19.069 14.718,18.986 14.540 C 18.567 13.644,16.661 13.103,15.327 13.502 C 15.155 13.554,15.154 13.553,14.899 13.375 C 14.471 13.075,13.828 12.814,13.140 12.659 C 12.866 12.597,11.566 12.545,11.300 12.585 " stroke="none" fill="black" fill-rule="evenodd"></path></svg>