<svg role="img" viewBox="0 0 24 24" xmlns="http://www.w3.org/2000/svg"><path d="M11.463 1.081 C 10.910 1.169,10.487 1.315,10.027 1.577 C 9.181 2.060,8.534 2.828,8.236 3.706 C 7.912 4.657,7.932 5.646,8.292 6.539 C 8.364 6.715,9.215 8.237,10.185 9.920 C 11.155 11.603,12.997 14.807,14.279 17.040 C 15.560 19.273,16.698 21.220,16.806 21.367 C 17.278 22.006,18.010 22.516,18.825 22.773 C 20.354 23.255,22.088 22.729,23.095 21.476 C 23.450 21.034,23.622 20.722,23.782 20.227 C 24.088 19.280,24.063 18.340,23.708 17.461 C 23.636 17.285,22.784 15.763,21.815 14.080 C 20.845 12.397,19.029 9.238,17.780 7.060 C 16.531 4.882,15.428 2.977,15.329 2.826 C 14.786 2.001,13.951 1.417,12.940 1.158 C 12.570 1.064,11.822 1.025,11.463 1.081 M5.484 8.344 C 4.639 9.816,3.155 12.397,2.185 14.080 C 1.215 15.763,0.364 17.285,0.292 17.461 C -0.063 18.341,-0.088 19.280,0.218 20.227 C 0.955 22.505,3.627 23.612,5.780 22.530 C 6.360 22.238,6.846 21.838,7.193 21.367 C 7.397 21.091,11.400 14.157,11.400 14.081 C 11.400 14.030,11.507 14.219,9.295 10.380 C 8.332 8.708,7.477 7.178,7.395 6.980 C 7.313 6.782,7.207 6.458,7.161 6.260 C 7.114 6.062,7.063 5.848,7.047 5.784 C 7.022 5.679,6.866 5.934,5.484 8.344 " stroke="none" fill="black" fill-rule="evenodd"></path></svg>