<svg role="img" xmlns="http://www.w3.org/2000/svg" viewBox="0 0 24 24"><path d="M7.690 2.010 L 6.840 2.861 6.840 3.710 L 6.840 4.560 7.700 4.560 L 8.560 4.560 8.560 2.860 C 8.560 1.925,8.555 1.160,8.550 1.160 C 8.544 1.160,8.157 1.543,7.690 2.010 M8.680 2.020 L 8.680 2.840 12.060 2.840 L 15.440 2.840 15.440 2.020 L 15.440 1.200 12.060 1.200 L 8.680 1.200 8.680 2.020 M15.600 2.870 L 15.600 4.558 16.450 4.569 C 16.918 4.575,14.168 4.576,10.339 4.571 L 3.378 4.563 1.689 6.204 L 0.000 7.846 0.000 9.644 L 0.000 11.441 1.410 11.431 L 2.820 11.420 2.840 10.013 L 2.860 8.607 2.981 8.434 C 3.048 8.340,3.180 8.208,3.275 8.141 L 3.447 8.020 11.933 8.008 C 17.630 8.000,20.467 8.010,20.562 8.037 C 20.748 8.091,21.011 8.319,21.105 8.509 C 21.173 8.645,21.182 8.794,21.200 10.040 L 21.220 11.420 22.590 11.431 L 23.960 11.441 23.960 9.642 L 23.960 7.844 22.273 6.202 L 20.586 4.560 18.953 4.560 L 17.320 4.560 17.320 3.730 L 17.320 2.899 16.460 2.040 L 15.600 1.181 15.600 2.870 M11.800 8.280 C 3.618 8.300,3.539 8.301,3.434 8.380 C 3.376 8.424,3.286 8.522,3.234 8.597 C 3.140 8.733,3.140 8.740,3.128 10.087 L 3.117 11.440 12.018 11.440 L 20.920 11.440 20.918 10.210 C 20.917 9.534,20.901 8.902,20.883 8.807 C 20.825 8.506,20.572 8.309,20.200 8.273 C 20.123 8.266,16.343 8.269,11.800 8.280 M4.924 8.925 C 5.210 9.021,5.400 9.283,5.400 9.582 C 5.400 10.185,4.739 10.500,4.293 10.109 C 4.039 9.886,3.977 9.601,4.115 9.300 C 4.205 9.104,4.308 9.009,4.507 8.938 C 4.697 8.870,4.754 8.868,4.924 8.925 M7.226 9.004 C 7.476 9.158,7.609 9.509,7.521 9.778 C 7.346 10.308,6.695 10.455,6.349 10.044 C 5.840 9.438,6.556 8.590,7.226 9.004 M0.040 16.332 C 0.040 20.415,0.048 21.054,0.101 21.258 C 0.292 21.989,0.901 22.552,1.640 22.679 C 1.783 22.704,2.107 22.718,2.360 22.712 L 2.820 22.700 2.830 17.170 L 2.840 11.640 1.440 11.640 L 0.040 11.640 0.040 16.332 M21.200 17.180 L 21.200 22.720 21.693 22.720 C 22.294 22.720,22.581 22.671,22.920 22.510 C 23.235 22.361,23.624 21.987,23.775 21.690 C 24.009 21.228,24.000 21.439,24.000 16.332 L 24.000 11.640 22.600 11.640 L 21.200 11.640 21.200 17.180 M4.058 13.170 C 4.048 13.197,4.044 14.741,4.050 16.600 L 4.060 19.980 7.130 19.990 L 10.200 20.000 10.200 16.560 L 10.200 13.120 7.139 13.120 C 4.727 13.120,4.073 13.131,4.058 13.170 M17.306 13.187 C 17.292 13.202,17.280 14.053,17.280 15.078 L 17.280 16.943 16.436 17.425 L 15.593 17.907 14.746 17.421 L 13.900 16.936 13.890 15.068 C 13.884 14.041,13.865 13.200,13.847 13.200 C 13.830 13.200,13.708 13.264,13.578 13.343 C 12.626 13.915,11.981 14.789,11.712 15.865 C 11.580 16.398,11.589 17.230,11.734 17.777 C 12.016 18.841,12.713 19.749,13.656 20.281 L 13.880 20.408 13.880 21.624 L 13.880 22.840 15.620 22.840 L 17.360 22.840 17.360 21.622 L 17.360 20.404 17.606 20.260 C 18.526 19.721,19.201 18.843,19.490 17.811 C 19.565 17.544,19.577 17.399,19.576 16.780 C 19.576 16.112,19.568 16.035,19.468 15.709 C 19.200 14.837,18.771 14.190,18.115 13.667 C 17.784 13.402,17.349 13.145,17.306 13.187 M4.067 21.426 C 4.052 21.441,4.040 21.765,4.040 22.147 L 4.040 22.840 8.021 22.840 L 12.002 22.840 11.991 22.130 L 11.980 21.420 8.037 21.410 C 5.868 21.404,4.082 21.412,4.067 21.426 " stroke="none" fill="black" fill-rule="evenodd"></path></svg>