<svg role="img" xmlns="http://www.w3.org/2000/svg" viewBox="0 0 24 24"><path d="M1.225 0.044 C 0.976 0.103,0.613 0.317,0.436 0.508 C 0.347 0.606,0.216 0.806,0.147 0.953 L 0.020 1.220 0.020 9.740 L 0.020 18.260 0.145 18.520 C 0.303 18.849,0.493 19.065,0.765 19.228 C 1.206 19.492,0.932 19.480,6.527 19.480 L 11.597 19.480 12.201 21.330 C 12.533 22.348,12.864 23.360,12.936 23.580 L 13.067 23.980 17.923 23.980 L 22.780 23.980 23.045 23.854 C 23.501 23.638,23.808 23.289,23.937 22.838 C 23.995 22.638,24.000 21.810,23.990 14.318 L 23.980 6.020 23.872 5.791 C 23.666 5.349,23.372 5.074,22.931 4.907 L 22.700 4.820 17.580 4.800 L 12.461 4.780 11.697 2.400 L 10.934 0.020 6.157 0.014 C 3.390 0.010,1.315 0.023,1.225 0.044 M22.784 5.628 C 22.998 5.742,23.186 5.960,23.239 6.155 C 23.267 6.262,23.277 8.875,23.270 14.488 L 23.260 22.666 23.139 22.863 C 23.048 23.009,22.962 23.087,22.799 23.170 L 22.580 23.281 18.162 23.271 L 13.744 23.260 15.442 21.387 C 16.376 20.356,17.145 19.490,17.152 19.462 C 17.158 19.434,17.002 18.910,16.804 18.297 L 16.445 17.184 17.089 16.561 L 17.733 15.938 18.371 16.599 C 18.721 16.963,19.352 17.589,19.772 17.992 L 20.535 18.724 20.918 18.340 L 21.300 17.955 20.780 17.469 C 20.158 16.888,18.440 15.192,18.440 15.159 C 18.440 15.146,18.577 14.966,18.744 14.758 C 19.616 13.672,20.264 12.461,20.458 11.550 L 20.482 11.440 21.501 11.440 L 22.520 11.440 22.520 10.980 L 22.520 10.521 20.250 10.510 L 17.980 10.500 17.969 9.750 L 17.958 9.000 17.240 9.000 L 16.522 9.000 16.511 9.750 L 16.500 10.500 15.400 10.500 L 14.300 10.500 13.513 8.060 C 13.080 6.718,12.724 5.597,12.723 5.569 C 12.721 5.528,13.683 5.520,17.670 5.529 L 22.620 5.540 22.784 5.628 M7.400 6.056 C 8.008 6.165,8.663 6.464,9.063 6.817 L 9.251 6.983 8.761 7.448 L 8.270 7.913 8.019 7.741 C 7.579 7.440,7.382 7.383,6.760 7.382 C 6.296 7.380,6.187 7.393,5.983 7.470 C 5.012 7.836,4.395 8.707,4.389 9.720 C 4.385 10.420,4.613 10.979,5.098 11.460 C 5.425 11.785,5.748 11.969,6.184 12.081 C 7.234 12.350,8.317 11.889,8.739 10.993 C 8.815 10.832,8.889 10.623,8.904 10.530 L 8.930 10.360 7.845 10.360 L 6.760 10.360 6.760 9.720 L 6.760 9.080 8.498 9.080 C 9.503 9.080,10.245 9.095,10.258 9.117 C 10.312 9.203,10.346 9.861,10.316 10.219 C 10.207 11.508,9.558 12.542,8.523 13.074 C 7.941 13.373,7.475 13.480,6.751 13.480 C 5.739 13.480,4.912 13.158,4.191 12.483 C 3.442 11.782,3.052 10.935,3.011 9.920 C 2.978 9.111,3.144 8.447,3.539 7.806 C 4.356 6.481,5.888 5.786,7.400 6.056 M19.360 11.482 C 19.360 11.556,19.094 12.215,18.941 12.518 C 18.650 13.096,17.822 14.320,17.722 14.320 C 17.679 14.320,17.312 13.863,17.032 13.460 C 16.795 13.119,16.560 12.682,16.560 12.581 C 16.560 12.529,16.469 12.520,15.937 12.520 L 15.315 12.520 15.340 12.610 C 15.450 13.002,15.961 13.811,16.596 14.600 C 16.817 14.875,16.992 15.118,16.986 15.140 C 16.970 15.191,16.126 15.960,16.085 15.960 C 16.062 15.960,14.995 12.712,14.656 11.610 L 14.604 11.440 16.982 11.440 C 18.598 11.440,19.360 11.453,19.360 11.482 " stroke="none" fill="black" fill-rule="evenodd"></path></svg>