<svg role="img" xmlns="http://www.w3.org/2000/svg" viewBox="0 0 24 24"><path d="M6.008 4.740 C 2.723 7.344,0.035 9.486,0.035 9.500 C 0.035 9.515,1.111 10.405,2.427 11.479 C 3.986 12.751,4.831 13.416,4.850 13.386 C 4.867 13.361,4.993 13.151,5.130 12.920 C 6.172 11.168,7.856 9.865,9.784 9.320 C 11.996 8.695,14.291 9.014,16.232 10.217 C 17.352 10.911,18.366 11.981,19.002 13.139 L 19.166 13.438 19.594 13.089 C 19.830 12.897,20.917 12.011,22.011 11.121 C 23.528 9.884,23.987 9.491,23.949 9.457 C 23.849 9.365,12.002 0.000,11.991 0.003 C 11.985 0.005,9.292 2.137,6.008 4.740 M11.214 10.041 C 8.777 10.349,6.739 11.802,5.698 13.973 C 4.768 15.914,4.768 18.086,5.698 20.027 C 7.088 22.926,10.242 24.489,13.420 23.855 C 14.147 23.710,15.128 23.310,15.767 22.899 C 16.857 22.198,17.726 21.218,18.285 20.060 C 18.985 18.610,19.169 17.108,18.840 15.530 C 18.553 14.156,17.767 12.785,16.723 11.838 C 15.754 10.958,14.469 10.325,13.200 10.102 C 12.755 10.023,11.627 9.989,11.214 10.041 " stroke="none" fill="black" fill-rule="evenodd"></path></svg>