<svg role="img" xmlns="http://www.w3.org/2000/svg" viewBox="0 0 24 24"><path d="M0.567 3.396 C 0.181 3.530,-0.030 3.826,0.010 4.180 C 0.034 4.397,-0.063 4.218,1.443 6.820 L 2.740 9.060 2.761 13.320 L 2.781 17.580 2.890 17.975 C 3.297 19.460,4.424 20.478,5.840 20.641 C 6.105 20.671,8.426 20.680,13.500 20.671 C 21.546 20.656,20.916 20.677,21.635 20.399 C 22.278 20.152,22.982 19.580,23.374 18.988 C 23.587 18.666,23.776 18.242,23.887 17.840 L 23.980 17.500 23.980 12.000 C 23.980 6.878,23.975 6.481,23.910 6.225 C 23.674 5.307,23.114 4.485,22.391 3.994 C 22.057 3.767,21.555 3.539,21.156 3.431 L 20.820 3.341 10.800 3.332 C 1.149 3.322,0.772 3.325,0.567 3.396 M20.640 7.144 C 21.034 7.327,21.237 7.608,21.239 7.972 C 21.241 8.311,21.034 8.596,20.660 8.768 L 20.460 8.860 13.482 8.870 C 5.775 8.882,6.269 8.898,5.913 8.629 C 5.582 8.380,5.473 7.966,5.644 7.613 C 5.754 7.384,5.966 7.215,6.260 7.121 C 6.493 7.046,6.696 7.044,13.480 7.052 L 20.460 7.060 20.640 7.144 M20.702 10.880 C 21.051 11.058,21.205 11.261,21.231 11.574 C 21.256 11.879,21.188 12.047,20.953 12.258 C 20.591 12.584,21.197 12.560,13.397 12.560 C 5.656 12.560,6.219 12.580,5.875 12.286 C 5.591 12.044,5.484 11.658,5.614 11.348 C 5.725 11.082,6.068 10.830,6.414 10.761 C 6.505 10.743,9.696 10.731,13.504 10.734 L 20.428 10.740 20.702 10.880 M16.952 14.556 C 17.226 14.680,17.462 14.945,17.514 15.188 C 17.597 15.577,17.402 15.929,16.980 16.154 L 16.780 16.260 11.620 16.271 C 7.010 16.281,6.439 16.275,6.266 16.219 C 5.730 16.045,5.439 15.610,5.559 15.164 C 5.610 14.975,5.831 14.708,6.017 14.611 C 6.343 14.441,6.227 14.444,11.600 14.452 L 16.740 14.460 16.952 14.556 " stroke="none" fill="black" fill-rule="evenodd"></path></svg>