<svg role="img" xmlns="http://www.w3.org/2000/svg" viewBox="0 0 24 24"><path d="M2.480 4.023 C 1.612 4.211,0.689 4.966,0.307 5.800 C -0.001 6.471,0.020 6.026,0.020 12.000 C 0.020 17.079,0.024 17.354,0.094 17.620 C 0.377 18.684,1.188 19.575,2.179 19.911 L 2.500 20.020 5.240 20.020 L 7.980 20.020 8.359 19.888 C 8.904 19.698,9.133 19.553,9.541 19.143 C 9.950 18.731,9.937 18.752,10.803 17.060 C 11.201 16.283,11.483 15.780,11.558 15.712 C 11.707 15.577,11.946 15.510,12.160 15.545 C 12.487 15.597,12.540 15.665,13.085 16.721 C 14.086 18.661,14.119 18.720,14.400 19.001 C 14.868 19.470,15.415 19.777,16.004 19.901 C 16.418 19.988,21.087 19.987,21.499 19.900 C 22.363 19.717,23.240 19.013,23.639 18.183 C 24.002 17.431,23.974 17.914,23.991 11.960 C 24.006 6.365,24.006 6.351,23.814 5.840 C 23.556 5.153,22.875 4.468,22.163 4.178 C 21.596 3.948,22.158 3.960,12.032 3.963 C 4.203 3.966,2.699 3.975,2.480 4.023 M7.230 9.660 C 8.086 9.862,8.800 10.586,9.024 11.480 C 9.116 11.845,9.084 12.408,8.950 12.770 C 8.567 13.804,7.640 14.478,6.600 14.479 C 5.729 14.479,4.884 13.940,4.480 13.126 C 4.300 12.764,4.225 12.433,4.225 12.000 C 4.224 11.093,4.698 10.321,5.526 9.880 C 6.009 9.622,6.695 9.534,7.230 9.660 M18.136 9.679 C 19.666 10.070,20.433 11.703,19.743 13.100 C 19.450 13.693,18.904 14.181,18.331 14.362 C 17.459 14.638,16.470 14.394,15.819 13.742 C 15.326 13.250,15.094 12.651,15.130 11.960 C 15.176 11.052,15.664 10.270,16.439 9.863 C 16.949 9.595,17.553 9.530,18.136 9.679 " stroke="none" fill="black" fill-rule="evenodd"></path></svg>