<svg role="img" viewBox="0 0 24 24" xmlns="http://www.w3.org/2000/svg"><path d="M10.940 0.046 C 8.161 0.286,5.516 1.524,3.520 3.520 C 0.270 6.769,-0.837 11.564,0.659 15.914 C 1.726 19.018,4.072 21.590,7.066 22.939 C 10.036 24.277,13.452 24.347,16.480 23.133 C 20.164 21.655,22.917 18.378,23.734 14.498 C 24.404 11.318,23.776 8.041,21.978 5.340 C 20.748 3.492,18.958 1.973,16.936 1.062 C 15.086 0.228,12.971 -0.130,10.940 0.046 M13.020 0.801 C 16.940 1.162,20.366 3.524,22.102 7.060 C 22.624 8.124,22.912 9.000,23.099 10.100 C 23.421 11.980,23.283 13.807,22.687 15.590 C 22.108 17.323,21.197 18.771,19.874 20.063 C 19.280 20.643,18.919 20.938,18.270 21.376 C 15.318 23.364,11.510 23.816,8.134 22.580 C 7.140 22.216,5.812 21.460,4.961 20.774 C 2.730 18.974,1.285 16.416,0.853 13.500 C 0.743 12.759,0.754 11.136,0.874 10.364 C 1.434 6.763,3.560 3.761,6.760 2.050 C 8.014 1.379,9.605 0.917,11.100 0.787 C 11.472 0.755,12.613 0.763,13.020 0.801 M11.600 1.500 C 10.841 1.671,10.240 2.191,9.964 2.919 C 9.880 3.143,9.865 3.249,9.864 3.660 C 9.863 4.090,9.874 4.168,9.971 4.415 C 10.234 5.079,10.740 5.556,11.400 5.762 L 11.620 5.831 11.630 7.771 L 11.641 9.710 11.450 9.758 C 11.139 9.837,10.751 10.066,10.489 10.327 C 9.627 11.187,9.627 12.573,10.489 13.433 C 10.751 13.694,11.139 13.923,11.450 14.002 L 11.641 14.050 11.630 16.112 L 11.620 18.174 11.509 18.204 L 11.397 18.234 9.236 13.911 L 7.074 9.588 7.275 9.384 C 7.700 8.951,7.923 8.421,7.924 7.839 C 7.924 7.458,7.882 7.224,7.759 6.939 C 7.145 5.506,5.286 5.153,4.180 6.260 C 3.758 6.681,3.523 7.240,3.521 7.824 C 3.520 8.093,3.651 8.595,3.789 8.852 C 3.961 9.172,4.359 9.569,4.670 9.732 C 5.105 9.959,5.347 10.013,5.837 9.990 C 6.070 9.979,6.287 9.959,6.320 9.945 C 6.367 9.925,6.855 10.869,8.546 14.252 L 10.713 18.586 10.575 18.696 L 10.438 18.805 9.096 17.916 C 8.103 17.257,7.760 17.009,7.775 16.963 C 7.934 16.465,7.965 15.954,7.861 15.560 C 7.606 14.603,6.717 13.923,5.718 13.921 C 5.159 13.919,4.609 14.151,4.200 14.560 C 3.330 15.430,3.321 16.801,4.180 17.660 C 4.985 18.466,6.201 18.532,7.120 17.821 L 7.340 17.651 8.620 18.507 C 9.324 18.978,9.926 19.379,9.958 19.398 C 10.009 19.428,10.007 19.464,9.942 19.666 C 9.703 20.407,9.896 21.265,10.430 21.834 C 11.635 23.119,13.752 22.559,14.184 20.840 C 14.269 20.504,14.241 19.955,14.123 19.622 C 14.077 19.492,14.053 19.372,14.070 19.357 C 14.086 19.342,14.671 18.942,15.370 18.468 L 16.639 17.606 16.807 17.746 C 17.131 18.016,17.581 18.192,18.040 18.226 C 19.115 18.305,20.089 17.575,20.343 16.497 C 20.463 15.988,20.357 15.359,20.070 14.875 C 19.840 14.489,19.380 14.114,18.938 13.953 C 18.580 13.822,17.933 13.804,17.572 13.914 C 16.848 14.134,16.296 14.686,16.074 15.412 C 15.965 15.768,15.982 16.420,16.110 16.769 L 16.193 16.998 14.895 17.880 L 13.597 18.761 13.458 18.656 C 13.382 18.598,13.320 18.544,13.320 18.535 C 13.320 18.527,14.287 16.585,15.470 14.220 C 17.149 10.862,17.633 9.925,17.680 9.945 C 17.713 9.959,17.930 9.979,18.163 9.990 C 18.489 10.005,18.640 9.994,18.821 9.941 C 19.563 9.726,20.114 9.204,20.362 8.480 C 20.478 8.142,20.488 7.570,20.384 7.220 C 20.057 6.119,18.967 5.442,17.868 5.656 C 17.411 5.745,17.072 5.926,16.736 6.259 C 16.286 6.703,16.080 7.194,16.080 7.820 C 16.080 8.416,16.278 8.906,16.692 9.337 L 16.926 9.580 14.773 13.890 C 13.589 16.261,12.602 18.200,12.580 18.199 C 12.558 18.199,12.499 18.188,12.450 18.175 L 12.359 18.150 12.370 16.110 L 12.380 14.069 12.595 14.014 C 12.929 13.929,13.344 13.689,13.597 13.437 C 14.281 12.752,14.433 11.707,13.974 10.834 C 13.714 10.340,13.133 9.887,12.576 9.745 L 12.380 9.695 12.370 7.774 L 12.359 5.853 12.609 5.784 C 13.571 5.516,14.240 4.645,14.240 3.660 C 14.240 2.703,13.606 1.843,12.692 1.560 C 12.343 1.453,11.916 1.429,11.600 1.500 " stroke="none" fill="black" fill-rule="evenodd"></path></svg>