<svg role="img" viewBox="0 0 24 24" xmlns="http://www.w3.org/2000/svg"><path d="M11.360 0.042 C 7.555 0.279,4.121 2.246,2.004 5.400 C 0.598 7.496,-0.063 9.765,0.012 12.240 C 0.080 14.465,0.630 16.401,1.707 18.207 C 3.933 21.938,8.215 24.229,12.460 23.959 C 15.634 23.757,18.424 22.480,20.642 20.214 C 21.314 19.527,21.635 19.137,22.100 18.440 C 23.301 16.641,23.919 14.812,23.986 12.860 C 24.012 12.116,23.972 11.701,23.840 11.350 C 23.584 10.665,22.956 10.135,22.220 9.980 C 21.823 9.897,18.586 9.895,18.196 9.977 C 17.197 10.189,16.480 11.068,16.480 12.080 C 16.480 13.025,17.114 13.861,18.040 14.138 C 18.173 14.178,18.486 14.213,18.830 14.228 C 19.143 14.241,19.400 14.265,19.400 14.281 C 19.400 14.356,19.174 14.903,18.977 15.306 C 18.588 16.101,18.088 16.786,17.408 17.456 C 16.714 18.140,16.121 18.560,15.260 18.979 C 13.058 20.051,10.603 20.048,8.458 18.969 C 6.197 17.832,4.683 15.708,4.293 13.128 C 4.199 12.509,4.201 11.228,4.296 10.702 C 4.787 7.993,6.645 5.785,9.277 4.781 C 10.049 4.486,10.833 4.314,11.740 4.240 C 12.694 4.162,13.047 4.026,13.492 3.565 C 13.905 3.137,14.080 2.701,14.080 2.099 C 14.080 1.000,13.240 0.104,12.140 0.029 C 11.986 0.019,11.635 0.025,11.360 0.042 M11.560 9.983 C 11.143 10.073,10.816 10.256,10.500 10.576 C 10.062 11.021,9.881 11.462,9.880 12.093 C 9.879 13.126,10.584 13.975,11.620 14.186 C 12.780 14.423,13.946 13.588,14.127 12.390 C 14.293 11.294,13.539 10.209,12.450 9.979 C 12.119 9.908,11.898 9.909,11.560 9.983 " stroke="none" fill="black" fill-rule="evenodd"></path></svg>