<svg role="img" viewBox="0 0 24 24" xmlns="http://www.w3.org/2000/svg"><path d="M10.746 8.097 C 9.741 9.773,9.491 10.162,9.398 10.201 C 9.334 10.227,9.263 10.272,9.239 10.301 C 9.203 10.344,9.168 10.336,9.052 10.257 C 8.968 10.200,8.851 10.160,8.770 10.160 C 8.606 10.160,8.344 10.297,8.259 10.428 C 8.168 10.565,8.133 10.541,8.104 10.322 C 8.087 10.194,8.040 10.079,7.973 9.999 C 7.871 9.878,7.869 9.867,7.912 9.607 C 7.997 9.089,8.003 8.965,7.958 8.706 C 7.834 7.995,7.348 7.689,6.702 7.916 C 6.430 8.011,6.186 8.179,5.829 8.515 C 5.465 8.859,4.780 9.715,4.473 10.210 L 4.232 10.600 2.146 10.602 L 0.060 10.603 2.044 11.348 C 4.023 12.090,4.028 12.093,4.077 12.227 C 4.133 12.382,4.528 12.824,4.643 12.861 C 4.755 12.897,4.739 12.929,4.556 13.033 C 4.377 13.135,4.280 13.311,4.280 13.533 C 4.280 13.673,4.340 13.772,4.599 14.060 C 4.679 14.148,4.818 14.356,4.910 14.521 C 5.201 15.049,5.346 15.115,5.842 14.946 C 6.197 14.826,6.610 14.717,6.632 14.739 C 6.641 14.747,6.188 15.476,5.627 16.357 C 5.065 17.239,4.621 17.960,4.639 17.960 C 4.675 17.960,7.231 16.966,10.148 15.816 C 11.120 15.433,11.943 15.120,11.975 15.120 C 12.008 15.120,12.958 15.482,14.087 15.924 C 17.356 17.205,19.331 17.963,19.349 17.944 C 19.358 17.935,19.168 17.622,18.926 17.250 C 18.217 16.157,18.146 16.033,18.207 15.995 C 18.236 15.976,18.300 15.961,18.348 15.961 C 18.667 15.958,19.323 15.534,19.623 15.135 C 19.952 14.698,20.059 14.283,20.029 13.562 C 20.011 13.114,19.908 12.568,19.781 12.238 C 19.762 12.187,20.149 12.028,21.849 11.390 L 23.940 10.604 21.674 10.602 L 19.409 10.600 19.383 10.461 C 19.326 10.159,19.068 10.000,18.635 10.000 C 18.379 10.000,18.194 10.098,18.098 10.283 L 18.033 10.410 17.913 10.264 C 17.648 9.942,17.367 9.916,17.077 10.186 L 16.974 10.282 16.790 10.179 C 16.523 10.030,16.192 9.986,15.904 10.061 C 15.777 10.094,15.655 10.109,15.633 10.096 C 15.537 10.036,15.266 10.079,15.117 10.177 L 14.963 10.279 14.772 10.168 C 14.666 10.107,14.526 10.030,14.460 9.997 C 14.365 9.949,14.107 9.545,13.180 7.991 C 12.542 6.920,12.011 6.043,12.000 6.042 C 11.989 6.041,11.424 6.966,10.746 8.097 M12.923 8.330 C 13.412 9.150,13.818 9.833,13.827 9.848 C 13.835 9.864,13.765 9.896,13.671 9.921 C 13.469 9.973,13.112 10.206,13.021 10.344 L 12.957 10.443 12.788 10.306 C 12.545 10.109,12.404 10.047,12.080 9.997 C 11.617 9.925,11.410 9.992,11.055 10.328 L 10.846 10.526 10.706 10.373 C 10.568 10.222,10.562 10.220,10.267 10.220 C 10.102 10.220,9.973 10.211,9.979 10.200 C 10.016 10.134,11.898 7.004,11.944 6.930 C 11.976 6.880,12.009 6.840,12.018 6.840 C 12.028 6.840,12.435 7.510,12.923 8.330 M7.219 8.400 C 7.398 8.468,7.453 8.673,7.428 9.180 C 7.402 9.705,7.300 10.093,7.072 10.530 C 6.696 11.253,6.177 11.597,5.749 11.408 C 5.599 11.342,5.559 11.299,5.498 11.140 C 5.434 10.973,5.432 10.924,5.476 10.706 C 5.538 10.408,5.773 9.944,6.026 9.623 L 6.212 9.386 6.273 9.603 C 6.361 9.913,6.351 10.045,6.229 10.205 C 5.902 10.633,5.930 11.160,6.278 11.160 C 6.454 11.160,6.622 10.989,6.800 10.627 C 7.089 10.041,7.272 9.021,7.150 8.680 C 7.059 8.425,6.806 8.473,6.374 8.827 C 6.128 9.029,5.570 9.680,5.309 10.069 C 4.972 10.574,4.863 10.868,4.862 11.280 C 4.861 11.646,4.919 11.810,5.143 12.076 C 5.407 12.390,5.877 12.455,6.311 12.238 C 6.793 11.997,7.229 11.372,7.388 10.692 C 7.476 10.317,7.568 10.276,7.637 10.581 C 7.663 10.697,7.783 11.113,7.903 11.506 C 8.157 12.329,8.216 12.665,8.161 12.957 C 8.110 13.225,8.029 13.373,7.820 13.582 C 7.571 13.831,7.165 14.019,6.479 14.202 C 6.150 14.289,5.794 14.395,5.689 14.437 L 5.497 14.512 5.349 14.225 C 5.268 14.066,5.112 13.837,5.003 13.715 L 4.804 13.492 5.500 13.263 C 6.662 12.880,7.319 12.505,7.531 12.105 C 7.649 11.882,7.649 11.456,7.532 11.200 C 7.461 11.045,7.446 11.031,7.419 11.100 C 7.190 11.702,6.809 12.152,6.327 12.390 C 6.032 12.536,6.012 12.540,5.582 12.540 C 5.206 12.540,5.116 12.527,4.980 12.454 C 4.681 12.293,4.550 12.082,4.500 11.679 C 4.479 11.505,4.492 11.403,4.560 11.199 C 4.856 10.318,6.317 8.579,6.914 8.399 C 7.062 8.354,7.100 8.354,7.219 8.400 M14.340 10.534 C 14.917 10.804,15.265 11.625,15.063 12.242 C 14.901 12.738,14.608 12.976,14.160 12.976 C 13.708 12.976,13.333 12.737,13.116 12.312 C 12.952 11.991,13.078 11.186,13.354 10.781 C 13.592 10.432,13.937 10.346,14.340 10.534 M12.267 10.601 C 12.572 10.732,12.776 11.200,12.775 11.767 C 12.774 12.176,12.622 12.497,12.278 12.816 C 11.874 13.189,11.436 13.254,11.130 12.986 C 10.918 12.800,10.842 12.598,10.841 12.218 C 10.840 11.830,10.915 11.514,11.098 11.140 C 11.386 10.551,11.754 10.381,12.267 10.601 M16.560 10.681 C 16.765 10.786,16.895 10.941,17.076 11.296 C 17.287 11.709,17.333 11.950,17.313 12.539 C 17.299 12.952,17.283 13.051,17.198 13.221 C 17.077 13.467,16.888 13.600,16.663 13.600 C 16.408 13.600,16.232 13.456,16.063 13.110 C 15.925 12.828,15.881 12.678,15.660 11.726 C 15.555 11.271,15.481 11.068,15.355 10.879 C 15.291 10.784,15.292 10.774,15.368 10.680 C 15.446 10.583,15.449 10.583,15.506 10.661 C 15.538 10.704,15.600 10.866,15.645 11.020 C 15.932 12.009,16.026 12.205,16.261 12.303 C 16.463 12.387,16.690 12.375,16.819 12.273 C 17.205 11.970,17.066 11.090,16.585 10.797 C 16.410 10.690,16.320 10.697,16.320 10.818 C 16.320 10.871,16.338 10.926,16.360 10.940 C 16.459 11.001,16.375 11.360,16.262 11.360 C 16.168 11.360,15.978 11.138,15.927 10.968 C 15.806 10.564,16.085 10.437,16.560 10.681 M18.826 10.551 C 18.871 10.580,19.298 12.435,19.444 13.237 C 19.619 14.199,19.486 14.643,18.862 15.169 C 18.536 15.444,18.287 15.544,17.774 15.607 C 17.473 15.644,17.300 15.643,16.965 15.603 C 16.731 15.575,16.525 15.538,16.507 15.521 C 16.489 15.504,16.529 15.450,16.597 15.402 C 16.793 15.263,16.926 14.996,16.950 14.695 C 16.974 14.397,16.921 14.412,17.440 14.560 C 17.675 14.627,17.819 14.642,18.100 14.630 C 18.513 14.613,18.692 14.540,18.926 14.293 C 19.249 13.953,19.337 13.561,19.236 12.896 L 19.183 12.540 19.157 12.880 C 19.114 13.447,18.967 13.833,18.752 13.944 C 18.599 14.023,18.544 14.015,18.396 13.891 C 18.144 13.678,17.922 13.034,17.815 12.200 C 17.732 11.548,17.627 11.145,17.479 10.907 C 17.384 10.753,17.368 10.699,17.402 10.636 C 17.425 10.593,17.461 10.569,17.483 10.582 C 17.556 10.627,17.709 10.980,17.838 11.400 C 18.056 12.109,18.264 12.464,18.503 12.536 C 18.600 12.565,18.811 12.436,18.932 12.273 C 19.034 12.136,19.063 11.825,19.000 11.553 C 18.973 11.436,18.872 11.171,18.776 10.965 C 18.679 10.758,18.600 10.574,18.600 10.555 C 18.600 10.513,18.762 10.510,18.826 10.551 M13.607 10.611 C 13.497 10.744,13.402 11.033,13.401 11.237 C 13.398 11.891,14.065 12.283,14.629 11.959 C 15.007 11.743,15.053 11.454,14.776 11.051 C 14.607 10.807,14.415 10.659,14.186 10.597 C 14.057 10.562,14.020 10.566,13.956 10.624 C 13.852 10.718,13.857 10.736,14.044 10.908 C 14.270 11.117,14.310 11.199,14.217 11.267 C 14.116 11.341,13.876 11.332,13.775 11.249 C 13.607 11.113,13.548 10.853,13.643 10.674 C 13.695 10.578,13.670 10.535,13.607 10.611 M11.443 10.808 C 11.012 11.394,11.232 12.280,11.810 12.280 C 12.221 12.280,12.680 11.848,12.680 11.460 C 12.680 11.146,12.289 10.640,12.047 10.640 C 11.979 10.640,11.898 10.679,11.844 10.736 C 11.741 10.846,11.759 10.912,11.940 11.080 C 12.094 11.223,12.130 11.306,12.081 11.398 C 12.027 11.500,11.785 11.568,11.655 11.518 C 11.448 11.439,11.395 11.081,11.546 10.788 C 11.640 10.608,11.583 10.619,11.443 10.808 M8.853 11.000 C 8.953 11.327,8.972 11.348,9.098 11.265 C 9.156 11.227,9.287 11.089,9.389 10.957 C 9.491 10.826,9.593 10.724,9.615 10.732 C 9.638 10.739,9.686 10.798,9.721 10.863 C 9.823 11.046,9.989 11.042,10.162 10.852 C 10.298 10.703,10.300 10.702,10.314 10.798 C 10.336 10.956,10.252 11.171,10.099 11.350 C 9.872 11.615,9.629 11.643,9.303 11.442 C 9.229 11.396,9.140 11.370,9.104 11.384 C 8.878 11.471,9.045 12.256,9.346 12.520 C 9.518 12.671,9.691 12.676,9.959 12.541 L 10.155 12.441 10.155 12.898 L 10.156 13.355 9.968 13.427 C 9.741 13.514,9.516 13.513,9.381 13.425 C 9.221 13.319,9.136 13.098,9.026 12.500 C 8.886 11.734,8.786 11.429,8.614 11.239 C 8.526 11.141,8.485 11.064,8.504 11.032 C 8.596 10.876,8.736 10.720,8.759 10.748 C 8.773 10.766,8.815 10.879,8.853 11.000 M4.108 10.815 C 4.119 10.826,4.100 10.921,4.065 11.027 C 4.030 11.133,3.987 11.313,3.971 11.427 L 3.940 11.634 2.824 11.218 C 2.211 10.989,1.698 10.790,1.684 10.776 C 1.656 10.745,4.077 10.784,4.108 10.815 M22.317 10.777 C 22.297 10.796,19.742 11.760,19.709 11.760 C 19.697 11.760,19.647 11.585,19.600 11.370 C 19.552 11.155,19.503 10.940,19.492 10.891 L 19.472 10.801 20.506 10.790 C 21.075 10.784,21.718 10.774,21.937 10.769 C 22.155 10.764,22.326 10.767,22.317 10.777 M15.742 13.612 C 15.892 13.816,16.187 14.030,16.370 14.067 C 16.529 14.100,16.640 14.302,16.640 14.560 C 16.640 14.763,16.632 14.778,16.400 15.012 C 16.138 15.278,16.082 15.424,16.157 15.651 C 16.203 15.791,16.354 15.956,16.507 16.035 C 16.631 16.099,16.991 16.091,17.351 16.016 C 17.637 15.957,17.662 15.958,17.700 16.020 C 17.722 16.057,17.889 16.318,18.070 16.601 C 18.252 16.884,18.400 17.123,18.400 17.133 C 18.400 17.151,17.158 16.677,14.009 15.454 L 11.999 14.673 8.811 15.915 C 7.057 16.598,5.620 17.153,5.616 17.148 C 5.612 17.144,5.980 16.558,6.434 15.846 L 7.260 14.553 7.560 14.407 C 7.927 14.228,8.369 13.807,8.541 13.473 L 8.657 13.246 8.769 13.453 C 9.008 13.898,9.351 14.076,9.822 14.000 C 10.299 13.922,10.564 13.776,10.664 13.536 L 10.720 13.402 10.901 13.499 C 11.461 13.796,12.102 13.688,12.645 13.204 L 12.869 13.003 12.964 13.104 C 13.016 13.159,13.190 13.270,13.352 13.350 C 13.744 13.543,14.166 13.575,14.603 13.442 C 14.856 13.365,14.924 13.322,15.137 13.107 L 15.380 12.860 15.491 13.140 C 15.551 13.294,15.665 13.506,15.742 13.612 M17.574 13.780 C 17.590 13.821,17.572 13.840,17.520 13.840 C 17.468 13.840,17.450 13.821,17.466 13.780 C 17.478 13.747,17.503 13.720,17.520 13.720 C 17.537 13.720,17.562 13.747,17.574 13.780 " stroke="none" fill="black" fill-rule="evenodd"></path></svg>