<svg role="img" viewBox="0 0 24 24" xmlns="http://www.w3.org/2000/svg"><path d="M18.140 1.944 C 17.942 1.997,17.339 2.160,16.800 2.305 C 15.073 2.769,14.856 2.857,14.736 3.144 C 14.690 3.254,14.680 3.763,14.680 6.001 C 14.680 7.793,14.694 8.752,14.721 8.802 C 14.826 8.998,14.882 9.004,16.793 9.012 C 18.435 9.019,18.591 9.014,18.709 8.949 C 18.972 8.806,18.960 8.974,18.960 5.441 C 18.960 1.995,18.963 2.051,18.755 1.905 C 18.636 1.822,18.576 1.825,18.140 1.944 M8.378 4.647 C 7.102 4.958,5.372 5.450,5.239 5.542 C 5.053 5.669,4.960 5.835,4.960 6.039 C 4.960 6.227,5.004 6.331,5.152 6.490 L 5.255 6.600 7.091 6.600 L 8.926 6.600 9.043 6.483 L 9.160 6.366 9.160 5.593 C 9.160 4.905,9.151 4.806,9.084 4.696 C 9.042 4.627,8.974 4.562,8.931 4.551 C 8.889 4.540,8.640 4.583,8.378 4.647 M4.700 8.441 C -0.215 9.864,0.051 9.782,0.019 9.882 C -0.014 9.987,0.028 10.107,0.109 10.138 C 0.145 10.152,1.094 10.181,2.217 10.202 C 3.341 10.223,4.304 10.251,4.358 10.263 C 4.521 10.300,4.685 10.443,4.764 10.616 C 4.832 10.766,4.838 10.900,4.839 12.148 C 4.840 13.515,4.840 13.515,4.929 13.578 C 5.008 13.633,5.535 13.640,9.787 13.640 C 13.558 13.640,14.562 13.650,14.588 13.690 C 14.605 13.718,14.629 14.310,14.640 15.007 L 14.660 16.275 14.777 16.397 C 14.841 16.464,14.950 16.530,15.020 16.543 C 15.112 16.560,15.752 16.391,17.463 15.899 C 18.737 15.532,20.706 14.965,21.838 14.639 C 23.263 14.229,23.912 14.025,23.948 13.976 C 24.024 13.873,24.012 13.732,23.920 13.640 C 23.842 13.562,23.787 13.560,21.598 13.560 C 19.172 13.560,19.252 13.567,19.040 13.341 L 18.940 13.234 18.920 11.967 C 18.899 10.622,18.896 10.601,18.695 10.443 C 18.589 10.360,18.585 10.360,14.085 10.360 C 9.876 10.360,9.571 10.355,9.440 10.290 C 9.169 10.155,9.160 10.100,9.160 8.638 C 9.160 7.679,9.147 7.323,9.112 7.288 C 9.086 7.262,9.009 7.242,8.942 7.244 C 8.875 7.247,6.966 7.785,4.700 8.441 M5.443 14.997 C 5.228 15.024,5.167 15.049,5.077 15.150 L 4.970 15.271 4.940 16.967 C 4.924 17.899,4.918 19.373,4.927 20.241 C 4.946 21.983,4.951 22.017,5.198 22.119 C 5.307 22.164,5.415 22.145,6.270 21.920 C 7.848 21.506,8.723 21.246,8.910 21.136 C 9.032 21.065,9.111 20.981,9.163 20.866 C 9.234 20.709,9.238 20.560,9.239 18.049 C 9.240 15.151,9.243 15.186,9.010 15.065 C 8.915 15.016,8.609 15.002,7.297 14.985 C 6.419 14.974,5.584 14.979,5.443 14.997 M14.877 17.517 L 14.760 17.634 14.760 18.407 C 14.760 19.107,14.768 19.192,14.840 19.310 C 14.945 19.482,15.023 19.480,15.798 19.277 C 17.732 18.772,18.510 18.547,18.652 18.455 C 19.017 18.218,19.056 17.827,18.748 17.490 L 18.666 17.400 16.830 17.400 L 14.994 17.400 14.877 17.517 " stroke="none" fill="black" fill-rule="evenodd"></path></svg>