<svg role="img" xmlns="http://www.w3.org/2000/svg" viewBox="0 0 24 24"><path d="M9.991 0.043 C 6.850 0.185,4.768 0.694,3.278 1.684 C 2.759 2.028,2.018 2.774,1.668 3.303 C 0.755 4.683,0.301 6.407,0.073 9.360 C 0.005 10.244,0.005 13.756,0.073 14.640 C 0.301 17.593,0.755 19.317,1.668 20.697 C 2.018 21.226,2.759 21.972,3.278 22.316 C 5.045 23.490,7.673 23.998,11.981 24.000 C 16.284 24.001,18.935 23.495,20.697 22.333 C 21.237 21.977,21.968 21.245,22.332 20.697 C 23.105 19.530,23.590 17.950,23.816 15.860 C 23.950 14.613,23.978 13.956,23.978 12.000 C 23.978 10.044,23.950 9.387,23.816 8.140 C 23.278 3.163,21.332 1.009,16.729 0.300 C 15.025 0.038,12.348 -0.064,9.991 0.043 M10.810 7.101 L 10.820 9.802 11.037 9.639 C 11.346 9.407,11.846 9.175,12.305 9.052 C 12.662 8.956,12.772 8.946,13.440 8.943 C 14.278 8.940,14.488 8.978,15.000 9.226 C 15.426 9.433,15.843 9.860,16.069 10.320 C 16.245 10.677,16.372 11.111,16.439 11.580 C 16.463 11.750,16.479 13.368,16.479 15.690 L 16.480 19.520 14.840 19.520 L 13.200 19.520 13.199 16.130 C 13.197 12.334,13.182 12.063,12.949 11.717 C 12.800 11.496,12.622 11.400,12.362 11.400 C 12.059 11.400,11.784 11.540,11.512 11.834 C 11.251 12.116,11.079 12.433,10.933 12.901 L 10.821 13.260 10.800 16.380 L 10.780 19.500 9.150 19.510 L 7.520 19.521 7.520 12.244 L 7.520 4.967 7.790 4.922 C 7.939 4.897,8.663 4.771,9.400 4.642 C 10.137 4.514,10.753 4.406,10.770 4.404 C 10.786 4.402,10.804 5.615,10.810 7.101 " stroke="none" fill="black" fill-rule="evenodd"></path></svg>