<svg role="img" viewBox="0 0 24 24" xmlns="http://www.w3.org/2000/svg"><path d="M11.200 0.024 C 10.662 0.072,9.925 0.177,9.520 0.264 C 5.390 1.148,2.050 4.092,0.667 8.068 C -0.847 12.421,0.277 17.258,3.561 20.520 C 6.015 22.958,9.480 24.233,12.904 23.959 C 17.119 23.621,20.794 21.170,22.678 17.440 C 23.942 14.937,24.298 12.267,23.735 9.520 C 23.117 6.510,21.237 3.739,18.647 2.023 C 17.059 0.971,15.432 0.361,13.520 0.100 C 13.078 0.040,11.574 -0.009,11.200 0.024 M13.300 2.298 C 14.572 2.480,15.787 2.895,16.884 3.522 C 17.082 3.636,17.239 3.744,17.232 3.763 C 17.225 3.782,15.969 5.097,14.440 6.686 C 12.911 8.275,11.655 9.588,11.648 9.604 C 11.641 9.619,11.992 9.448,12.428 9.223 C 12.864 8.997,14.604 8.096,16.296 7.220 C 18.668 5.993,19.387 5.637,19.436 5.668 C 19.584 5.759,20.446 6.988,20.539 7.241 C 20.557 7.290,19.744 7.564,16.203 8.701 C 13.123 9.690,11.882 10.104,11.972 10.114 C 12.042 10.122,12.667 10.108,13.360 10.084 C 14.053 10.060,15.421 10.013,16.400 9.979 C 17.379 9.946,18.926 9.892,19.838 9.860 C 20.750 9.827,21.509 9.814,21.525 9.830 C 21.554 9.861,21.695 10.685,21.740 11.090 C 21.766 11.319,21.765 11.320,21.658 11.320 C 21.599 11.320,20.671 11.256,19.596 11.178 C 15.023 10.846,11.659 10.608,11.651 10.616 C 11.646 10.620,13.869 11.396,16.591 12.339 C 19.313 13.282,21.546 14.058,21.553 14.064 C 21.579 14.082,21.390 14.781,21.251 15.180 C 20.928 16.112,20.423 17.062,19.828 17.861 C 19.470 18.342,18.541 19.302,18.100 19.648 C 16.381 20.994,14.368 21.722,12.240 21.769 L 11.740 21.780 11.691 21.240 C 11.665 20.943,11.638 20.659,11.631 20.608 C 11.622 20.529,11.467 20.449,10.500 20.024 C 9.884 19.753,8.824 19.286,8.144 18.986 C 7.463 18.685,6.903 18.444,6.898 18.450 C 6.892 18.455,6.856 18.838,6.818 19.300 C 6.779 19.762,6.733 20.156,6.716 20.175 C 6.676 20.221,6.287 19.956,5.780 19.538 C 2.789 17.074,1.541 13.111,2.575 9.358 C 3.348 6.555,5.403 4.195,8.096 3.021 C 9.017 2.619,10.145 2.331,11.144 2.241 C 11.654 2.195,12.788 2.225,13.300 2.298 M9.026 6.117 C 8.967 6.225,8.902 6.320,8.882 6.327 C 8.861 6.334,8.384 6.797,7.821 7.356 L 6.797 8.371 6.808 8.676 L 6.820 8.980 7.010 8.992 L 7.200 9.004 7.200 10.120 L 7.200 11.236 7.010 11.248 L 6.820 11.260 6.809 11.810 L 6.798 12.360 7.118 12.360 L 7.438 12.360 7.418 12.530 C 7.358 13.012,7.291 13.943,7.314 13.964 C 7.359 14.004,11.206 15.687,11.221 15.673 C 11.232 15.661,11.053 13.372,10.981 12.610 L 10.958 12.360 11.219 12.360 L 11.480 12.360 11.480 11.800 L 11.480 11.240 11.280 11.240 L 11.080 11.240 11.080 10.120 L 11.080 9.000 11.280 9.000 L 11.480 9.000 11.480 8.664 L 11.480 8.328 10.420 7.298 C 9.673 6.572,9.360 6.243,9.360 6.181 C 9.360 6.105,9.214 5.920,9.154 5.920 C 9.142 5.920,9.084 6.009,9.026 6.117 M10.480 10.120 L 10.480 11.240 10.163 11.240 L 9.846 11.240 9.833 10.623 C 9.819 9.953,9.801 9.894,9.551 9.707 C 9.280 9.505,8.759 9.603,8.568 9.891 C 8.465 10.046,8.459 10.081,8.446 10.647 L 8.433 11.240 8.116 11.240 L 7.800 11.240 7.800 10.120 L 7.800 9.000 9.140 9.000 L 10.480 9.000 10.480 10.120 M7.221 14.752 C 7.208 14.877,7.190 15.044,7.180 15.122 L 7.162 15.263 9.191 16.157 C 10.307 16.649,11.251 17.060,11.290 17.070 C 11.351 17.087,11.357 17.066,11.341 16.915 C 11.330 16.819,11.311 16.640,11.299 16.517 L 11.276 16.294 10.588 15.991 C 10.210 15.824,9.342 15.441,8.660 15.139 C 7.978 14.838,7.381 14.576,7.333 14.558 C 7.250 14.526,7.244 14.538,7.221 14.752 M7.101 16.110 C 7.087 16.258,7.072 16.424,7.068 16.477 C 7.060 16.568,7.192 16.632,9.220 17.526 C 10.408 18.051,11.399 18.480,11.422 18.480 C 11.450 18.480,11.452 18.355,11.429 18.091 C 11.411 17.877,11.392 17.700,11.388 17.698 C 11.345 17.672,7.162 15.840,7.147 15.840 C 7.136 15.840,7.115 15.962,7.101 16.110 M6.979 17.461 C 6.964 17.644,6.959 17.817,6.969 17.846 C 6.978 17.875,8.011 18.350,9.263 18.902 L 11.540 19.907 11.551 19.723 C 11.558 19.622,11.549 19.442,11.531 19.322 L 11.500 19.105 10.780 18.789 C 10.384 18.616,9.610 18.275,9.060 18.032 C 8.510 17.789,7.823 17.486,7.533 17.359 L 7.007 17.128 6.979 17.461 " stroke="none" fill="black" fill-rule="evenodd"></path></svg>