<svg xmlns="http://www.w3.org/2000/svg" viewBox="0 0 24 24" role="img"><path d="M0.040 3.550 C 0.040 3.566,1.303 5.474,2.847 7.790 L 5.653 12.000 2.847 16.210 C 1.303 18.526,0.040 20.434,0.040 20.450 C 0.040 20.467,0.984 20.480,2.138 20.480 L 4.235 20.480 7.074 16.241 L 9.914 12.002 7.075 7.761 L 4.236 3.520 2.138 3.520 C 0.984 3.520,0.040 3.533,0.040 3.550 M5.680 3.550 C 5.680 3.566,6.943 5.474,8.487 7.790 L 11.293 12.000 8.487 16.210 C 6.943 18.526,5.680 20.434,5.680 20.450 C 5.680 20.467,6.631 20.480,7.794 20.480 L 9.909 20.480 11.644 17.822 C 12.599 16.359,13.391 15.162,13.405 15.162 C 13.418 15.161,14.200 16.326,15.142 17.750 C 16.083 19.175,16.883 20.372,16.918 20.410 C 16.979 20.476,17.122 20.480,19.073 20.470 L 21.162 20.460 15.536 11.990 L 9.910 3.520 7.795 3.520 C 6.632 3.520,5.680 3.533,5.680 3.550 M14.640 8.504 C 14.640 8.517,15.050 9.146,15.550 9.903 L 16.460 11.279 20.230 11.280 L 24.000 11.280 24.000 9.880 L 24.000 8.480 19.320 8.480 C 16.746 8.480,14.640 8.491,14.640 8.504 M17.447 12.713 C 17.454 12.732,17.872 13.371,18.375 14.133 L 19.290 15.520 21.646 15.520 L 24.001 15.520 23.991 14.110 L 23.980 12.700 20.707 12.690 C 18.906 12.684,17.439 12.695,17.447 12.713 " stroke="none" fill="black" fill-rule="evenodd"></path></svg>