<svg role="img" viewBox="0 0 24 24" xmlns="http://www.w3.org/2000/svg"><path d="M2.645 2.401 C 2.548 2.421,2.446 2.470,2.418 2.509 C 2.390 2.548,1.960 3.138,1.464 3.820 C 0.232 5.513,0.066 5.859,0.013 6.851 C -0.018 7.431,0.033 7.671,0.225 7.839 C 0.410 8.001,0.500 8.020,1.080 8.019 C 1.521 8.017,1.600 8.006,1.753 7.926 C 1.885 7.857,1.947 7.790,2.010 7.647 C 2.083 7.481,2.095 7.358,2.112 6.563 L 2.131 5.665 2.828 4.210 C 3.280 3.266,3.516 2.729,3.500 2.681 C 3.487 2.640,3.412 2.558,3.333 2.497 C 3.171 2.374,2.935 2.341,2.645 2.401 M6.785 8.059 C 6.578 8.133,6.416 8.295,6.331 8.517 C 6.275 8.660,6.260 8.817,6.261 9.240 C 6.263 9.735,6.272 9.799,6.366 10.004 C 6.505 10.304,6.655 10.394,7.092 10.439 C 7.452 10.476,7.888 10.440,8.044 10.360 C 8.372 10.191,8.492 9.892,8.494 9.240 C 8.496 8.500,8.348 8.179,7.951 8.061 C 7.691 7.984,6.999 7.982,6.785 8.059 M11.290 11.790 C 11.082 11.985,11.023 12.144,11.028 12.500 C 11.033 12.877,11.119 13.128,11.264 13.195 C 11.335 13.227,12.077 13.240,13.840 13.240 L 16.316 13.240 16.420 13.150 C 16.478 13.100,16.541 12.988,16.561 12.900 C 16.612 12.681,16.609 12.232,16.556 12.022 L 16.513 11.848 15.946 11.823 C 15.052 11.784,11.926 11.680,11.654 11.680 C 11.441 11.680,11.393 11.695,11.290 11.790 M18.635 11.840 C 18.548 11.932,18.463 12.073,18.437 12.170 C 18.387 12.356,18.411 12.785,18.484 12.994 C 18.572 13.246,18.504 13.240,21.221 13.240 C 22.835 13.240,23.712 13.226,23.762 13.199 C 23.925 13.112,23.979 12.928,23.979 12.460 C 23.980 12.185,23.961 11.988,23.931 11.934 C 23.873 11.834,23.912 11.836,21.040 11.740 C 18.590 11.657,18.818 11.648,18.635 11.840 M7.000 16.001 C 6.783 16.047,6.647 16.142,6.540 16.324 C 6.468 16.446,6.458 16.554,6.439 17.400 L 6.419 18.340 5.715 19.800 C 5.328 20.603,5.001 21.307,4.987 21.364 C 4.972 21.425,4.984 21.497,5.016 21.542 C 5.063 21.606,5.128 21.617,5.466 21.618 C 5.683 21.619,5.909 21.606,5.968 21.590 C 6.051 21.566,6.278 21.283,6.926 20.390 C 7.910 19.035,8.026 18.865,8.190 18.540 C 8.391 18.142,8.482 17.782,8.516 17.264 C 8.582 16.220,8.429 16.002,7.608 15.977 C 7.373 15.970,7.099 15.981,7.000 16.001 " stroke="none" fill="black" fill-rule="evenodd"></path></svg>