<svg role="img" viewBox="0 0 24 24" xmlns="http://www.w3.org/2000/svg"><path d="M18.640 7.083 C 17.753 7.149,16.922 7.461,16.160 8.014 C 15.672 8.367,15.043 9.093,14.768 9.620 L 14.664 9.820 14.635 9.599 C 14.504 8.618,13.716 7.678,12.733 7.331 L 12.420 7.220 10.010 7.208 L 7.600 7.195 7.600 12.037 L 7.600 16.880 9.874 16.880 C 12.018 16.880,12.165 16.875,12.464 16.800 C 12.859 16.699,13.190 16.539,13.525 16.285 C 14.108 15.844,14.562 15.099,14.627 14.476 C 14.640 14.346,14.663 14.240,14.678 14.240 C 14.692 14.240,14.741 14.317,14.787 14.410 C 15.025 14.899,15.741 15.691,16.284 16.067 C 17.145 16.662,17.997 16.923,19.080 16.924 C 20.413 16.924,21.550 16.455,22.510 15.507 C 23.236 14.791,23.723 13.879,23.924 12.860 C 24.006 12.449,23.997 11.424,23.909 11.012 C 23.683 9.961,23.225 9.136,22.461 8.410 C 21.421 7.421,20.127 6.972,18.640 7.083 M0.000 12.060 L 0.000 16.880 1.360 16.880 L 2.720 16.880 2.720 15.020 L 2.720 13.160 3.560 13.160 L 4.400 13.160 4.400 15.020 L 4.400 16.880 5.720 16.880 L 7.040 16.880 7.040 12.060 L 7.040 7.240 5.720 7.240 L 4.400 7.240 4.400 9.040 L 4.400 10.840 3.560 10.840 L 2.720 10.840 2.720 9.040 L 2.720 7.240 1.360 7.240 L 0.000 7.240 0.000 12.060 M11.665 9.437 C 12.230 9.693,12.263 10.610,11.718 10.916 C 11.582 10.993,11.506 11.000,10.825 11.000 L 10.080 11.000 10.080 10.207 C 10.080 9.770,10.092 9.401,10.107 9.387 C 10.121 9.372,10.441 9.360,10.817 9.361 C 11.397 9.362,11.525 9.373,11.665 9.437 M19.615 9.580 C 20.472 9.761,21.200 10.455,21.464 11.340 C 21.561 11.665,21.561 12.295,21.464 12.620 C 21.198 13.514,20.473 14.198,19.595 14.385 C 18.857 14.542,18.028 14.323,17.450 13.817 C 17.184 13.585,16.874 13.119,16.754 12.773 C 16.674 12.541,16.660 12.422,16.660 11.980 C 16.660 11.538,16.674 11.419,16.754 11.187 C 16.874 10.840,17.184 10.375,17.451 10.142 C 17.758 9.873,18.300 9.611,18.680 9.548 C 18.907 9.510,19.357 9.525,19.615 9.580 M18.600 10.113 C 17.144 10.493,16.667 12.361,17.766 13.379 C 18.377 13.945,19.203 14.068,19.940 13.704 C 20.615 13.370,21.005 12.739,21.005 11.980 C 21.005 11.219,20.616 10.589,19.944 10.259 C 19.482 10.033,19.075 9.988,18.600 10.113 M14.154 12.018 C 14.153 12.336,14.167 12.620,14.184 12.648 C 14.201 12.677,14.088 12.581,13.932 12.436 C 13.777 12.290,13.562 12.128,13.455 12.076 L 13.260 11.981 13.520 11.856 C 13.663 11.788,13.858 11.666,13.954 11.586 C 14.049 11.506,14.134 11.440,14.141 11.440 C 14.148 11.440,14.154 11.700,14.154 12.018 M11.774 13.132 C 12.153 13.422,12.217 14.007,11.910 14.379 C 11.714 14.617,11.617 14.640,10.801 14.640 L 10.080 14.640 10.080 13.818 L 10.080 12.995 10.853 13.008 L 11.626 13.020 11.774 13.132 " stroke="none" fill="black" fill-rule="evenodd"></path></svg>