<svg role="img" xmlns="http://www.w3.org/2000/svg" viewBox="0 0 24 24"><path d="M11.611 0.056 C 11.340 0.144,11.105 0.302,10.886 0.541 C 10.399 1.074,10.092 1.904,9.956 3.055 C 9.888 3.636,9.932 5.343,10.035 6.098 C 10.080 6.428,10.112 6.701,10.106 6.707 C 10.100 6.713,9.926 6.419,9.718 6.053 C 8.887 4.593,8.199 3.601,7.600 3.000 C 7.141 2.539,6.909 2.396,6.580 2.368 C 5.717 2.297,5.281 3.152,5.280 4.921 C 5.280 6.030,5.473 7.188,5.900 8.640 C 5.974 8.893,6.048 9.136,6.064 9.180 C 6.080 9.224,5.934 9.053,5.741 8.800 C 5.233 8.135,4.928 7.778,4.594 7.457 C 4.192 7.069,3.983 6.953,3.647 6.931 C 3.413 6.916,3.353 6.927,3.160 7.027 C 2.886 7.168,2.709 7.397,2.599 7.752 C 2.204 9.022,2.607 11.201,3.708 13.754 C 3.721 13.784,3.648 13.744,3.545 13.666 C 2.933 13.199,1.990 12.971,1.575 13.190 C 1.178 13.399,0.999 13.708,0.970 14.238 C 0.927 15.009,1.240 16.104,1.883 17.433 C 3.316 20.400,5.545 22.635,7.970 23.536 C 8.842 23.861,9.542 23.979,10.560 23.976 C 12.021 23.972,12.459 23.816,12.511 23.283 C 12.534 23.036,12.474 22.878,12.296 22.722 C 12.114 22.562,11.960 22.542,11.490 22.616 C 11.029 22.690,10.129 22.700,9.708 22.637 C 9.042 22.537,8.504 22.369,7.846 22.057 C 5.796 21.083,3.862 18.863,2.764 16.224 C 2.518 15.633,2.240 14.705,2.240 14.475 C 2.240 14.453,2.344 14.491,2.471 14.559 C 3.270 14.984,4.593 16.286,5.929 17.960 C 6.149 18.235,6.394 18.500,6.474 18.550 C 6.747 18.718,7.101 18.644,7.305 18.377 C 7.400 18.253,7.420 18.187,7.420 18.003 C 7.420 17.789,7.403 17.754,7.016 17.140 C 4.969 13.900,3.851 11.109,3.771 9.040 L 3.749 8.460 3.840 8.540 C 4.254 8.905,5.713 10.933,7.879 14.156 C 8.620 15.259,9.151 16.010,9.234 16.073 C 9.518 16.290,9.992 16.170,10.161 15.838 C 10.289 15.587,10.265 15.423,10.038 14.998 C 9.630 14.233,8.728 12.402,8.463 11.800 C 7.097 8.704,6.444 6.112,6.603 4.410 C 6.627 4.152,6.656 3.931,6.667 3.920 C 6.701 3.887,7.029 4.270,7.327 4.690 C 8.405 6.210,9.898 8.983,11.582 12.590 C 12.077 13.650,12.188 13.812,12.457 13.862 C 12.764 13.920,13.086 13.755,13.199 13.482 C 13.282 13.282,13.224 13.014,12.885 12.044 C 11.779 8.878,11.240 6.305,11.240 4.191 C 11.240 3.121,11.321 2.543,11.557 1.916 C 11.655 1.655,11.856 1.338,11.944 1.304 C 12.235 1.192,13.016 2.213,13.751 3.667 C 14.557 5.263,15.215 6.993,15.737 8.892 L 15.921 9.561 15.815 9.769 C 15.633 10.130,15.530 10.446,15.385 11.103 C 14.965 12.993,14.776 14.806,14.811 16.607 C 14.844 18.333,15.058 19.206,15.580 19.742 C 16.102 20.277,16.999 20.190,17.586 19.547 C 18.072 19.016,18.308 18.183,18.349 16.852 C 18.399 15.225,18.096 13.035,17.443 10.304 C 17.294 9.683,17.262 9.765,17.897 9.140 C 18.418 8.627,18.869 8.330,19.516 8.073 C 19.886 7.926,19.981 7.904,20.260 7.902 C 20.531 7.901,20.614 7.917,20.806 8.011 C 21.355 8.280,21.634 8.890,21.719 10.007 C 21.851 11.739,21.364 14.222,20.213 17.694 C 19.885 18.683,19.796 18.998,19.813 19.105 C 19.871 19.462,20.202 19.713,20.547 19.661 C 20.680 19.641,20.772 19.594,20.885 19.487 C 21.028 19.353,21.068 19.260,21.359 18.400 C 22.182 15.970,22.693 13.950,22.927 12.200 C 23.044 11.320,23.055 9.856,22.948 9.280 C 22.773 8.339,22.530 7.808,22.061 7.338 C 21.694 6.970,21.399 6.797,20.936 6.679 C 20.319 6.521,19.643 6.609,18.851 6.951 C 18.207 7.229,17.730 7.535,17.163 8.034 C 17.006 8.172,16.915 8.229,16.906 8.194 C 16.898 8.164,16.726 7.636,16.523 7.020 C 16.006 5.445,15.495 4.196,14.885 3.020 C 13.873 1.069,12.923 0.062,12.052 0.015 C 11.889 0.006,11.712 0.023,11.611 0.056 M16.695 13.061 C 17.133 15.478,17.185 17.378,16.840 18.288 C 16.713 18.623,16.701 18.634,16.583 18.522 C 16.071 18.042,15.992 15.391,16.407 12.686 C 16.461 12.339,16.506 12.142,16.523 12.188 C 16.539 12.229,16.616 12.622,16.695 13.061 " stroke="none" fill="black" fill-rule="evenodd"></path></svg>