<svg role="img" viewBox="0 0 24 24" xmlns="http://www.w3.org/2000/svg"><path d="M10.560 0.505 C 10.461 0.513,10.164 0.538,9.900 0.561 C 9.430 0.600,6.526 0.919,5.907 0.999 C 5.533 1.047,5.305 1.141,5.131 1.320 C 4.964 1.492,4.907 1.672,4.928 1.961 C 4.951 2.282,5.086 2.478,5.388 2.626 L 5.620 2.740 12.000 2.740 L 18.380 2.740 18.612 2.626 C 18.952 2.459,19.060 2.279,19.060 1.880 C 19.060 1.615,19.046 1.553,18.952 1.411 C 18.813 1.200,18.516 1.054,18.120 1.001 C 17.826 0.962,14.986 0.643,14.160 0.557 C 13.753 0.515,10.923 0.473,10.560 0.505 M2.300 5.637 C 1.894 5.737,1.635 6.055,1.631 6.457 C 1.627 6.964,1.959 7.260,2.620 7.339 C 2.730 7.352,4.714 7.497,7.028 7.662 C 10.094 7.879,11.448 7.960,12.017 7.960 C 12.587 7.960,13.939 7.879,17.009 7.661 C 19.325 7.497,21.301 7.352,21.400 7.339 C 21.799 7.288,21.986 7.208,22.154 7.017 C 22.539 6.580,22.415 5.980,21.880 5.695 C 21.745 5.622,21.428 5.620,12.080 5.614 C 6.767 5.611,2.366 5.621,2.300 5.637 M0.660 9.805 C 0.298 9.890,-0.000 10.258,0.000 10.620 C 0.000 10.847,0.167 11.167,0.351 11.292 C 0.433 11.348,0.599 11.423,0.720 11.458 C 0.973 11.533,10.406 13.056,11.040 13.124 C 11.690 13.195,12.964 13.148,13.740 13.024 C 19.274 12.144,23.147 11.504,23.347 11.438 C 23.914 11.249,24.145 10.746,23.895 10.245 C 23.772 9.999,23.589 9.862,23.300 9.800 C 23.096 9.757,22.773 9.787,14.328 10.641 C 12.177 10.859,11.796 10.857,9.467 10.621 C 4.405 10.107,0.933 9.761,0.880 9.764 C 0.847 9.766,0.748 9.785,0.660 9.805 M1.241 14.288 C 0.743 14.373,0.439 15.009,0.676 15.472 C 0.838 15.787,0.999 15.872,1.829 16.078 C 5.882 17.083,10.542 18.212,10.860 18.266 C 11.407 18.358,12.593 18.358,13.140 18.265 C 13.360 18.228,15.160 17.801,17.140 17.316 C 22.518 15.998,22.780 15.932,22.947 15.846 C 23.245 15.693,23.400 15.439,23.400 15.100 C 23.400 14.837,23.303 14.620,23.114 14.461 C 22.939 14.314,22.820 14.274,22.560 14.275 C 22.383 14.276,15.197 15.532,13.320 15.890 C 12.937 15.963,12.716 15.978,12.000 15.978 L 11.140 15.979 6.420 15.133 C 3.824 14.667,1.637 14.280,1.559 14.272 C 1.481 14.264,1.338 14.272,1.241 14.288 M3.500 19.380 C 3.304 19.448,3.071 19.700,3.007 19.912 C 2.858 20.409,3.088 20.783,3.699 21.037 C 4.141 21.220,9.904 23.219,10.260 23.312 C 11.314 23.589,12.617 23.590,13.720 23.315 C 14.039 23.235,19.476 21.359,20.186 21.084 C 20.736 20.870,20.970 20.649,21.024 20.290 C 21.062 20.034,20.975 19.777,20.783 19.578 C 20.539 19.324,20.235 19.262,19.798 19.378 C 19.678 19.409,18.245 19.795,16.613 20.235 C 14.981 20.674,13.451 21.067,13.213 21.107 C 12.579 21.213,11.310 21.204,10.680 21.088 C 10.427 21.041,8.978 20.667,7.460 20.256 C 3.852 19.279,4.009 19.320,3.822 19.322 C 3.733 19.323,3.588 19.349,3.500 19.380 " stroke="none" fill="black" fill-rule="evenodd"></path></svg>