<svg role="img" viewBox="0 0 24 24" xmlns="http://www.w3.org/2000/svg"><path d="M12.640 0.064 C 12.477 0.134,12.086 0.528,10.520 2.202 C 8.838 3.998,4.301 8.919,3.670 9.631 C 3.546 9.771,3.520 9.830,3.520 9.973 C 3.520 10.113,3.543 10.167,3.643 10.263 L 3.765 10.380 9.713 10.391 C 13.850 10.398,15.724 10.388,15.869 10.358 C 16.118 10.306,16.256 10.209,16.219 10.111 C 16.159 9.957,15.809 9.846,15.180 9.782 C 13.941 9.657,12.235 9.522,8.560 9.257 C 7.735 9.198,7.048 9.138,7.033 9.125 C 6.973 9.070,12.499 3.048,12.774 2.867 L 12.877 2.800 13.411 3.470 C 14.063 4.288,15.165 5.722,17.246 8.460 L 18.827 10.540 18.716 15.820 C 18.654 18.724,18.603 21.113,18.602 21.130 C 18.598 21.192,17.626 20.559,16.671 19.872 C 16.050 19.425,15.220 18.799,13.831 17.728 L 12.922 17.027 13.210 16.724 C 13.368 16.557,14.264 15.619,15.201 14.640 C 17.534 12.202,17.440 12.307,17.440 12.160 C 17.440 12.092,17.413 11.983,17.379 11.918 C 17.278 11.724,17.109 11.753,16.754 12.026 C 16.242 12.420,13.456 14.777,12.190 15.888 C 12.019 16.038,11.862 16.160,11.840 16.160 C 11.818 16.160,11.426 15.875,10.970 15.528 C 8.617 13.734,6.991 12.638,5.797 12.038 C 5.314 11.796,5.135 11.779,4.957 11.957 C 4.854 12.060,4.840 12.102,4.840 12.307 C 4.841 12.603,4.968 12.880,5.205 13.105 C 5.301 13.196,6.505 14.148,7.880 15.220 C 9.255 16.292,10.416 17.204,10.460 17.246 C 10.540 17.324,10.540 17.324,10.454 17.392 C 10.407 17.429,9.323 18.368,8.045 19.478 C 5.414 21.762,5.576 21.583,5.607 22.171 C 5.636 22.719,5.909 23.208,6.262 23.343 C 6.417 23.402,6.467 23.405,6.609 23.362 C 6.820 23.299,7.150 22.977,9.752 20.292 L 11.737 18.243 11.879 18.350 C 11.956 18.409,13.532 19.639,15.380 21.082 C 17.228 22.526,18.824 23.767,18.927 23.839 C 19.496 24.241,20.182 23.821,20.377 22.951 C 20.424 22.742,20.436 21.641,20.446 16.400 L 20.458 10.100 20.337 9.819 C 20.177 9.450,20.160 9.425,18.045 6.520 C 13.317 0.025,13.437 0.185,13.226 0.083 C 13.025 -0.014,12.835 -0.021,12.640 0.064 " stroke="none" fill="black" fill-rule="evenodd"></path></svg>