<svg role="img" viewBox="0 0 24 24" xmlns="http://www.w3.org/2000/svg"><path d="M11.340 0.023 C 11.274 0.032,11.058 0.059,10.860 0.084 C 10.149 0.171,9.101 0.487,8.481 0.799 L 8.230 0.926 7.825 0.747 C 6.693 0.246,5.717 0.040,4.483 0.040 L 3.796 0.040 3.812 4.850 C 3.828 9.906,3.823 9.776,4.021 10.949 C 4.519 13.899,5.879 16.650,7.958 18.911 C 10.019 21.153,12.742 22.770,15.716 23.517 C 16.928 23.821,17.924 23.953,19.270 23.988 L 20.200 24.012 20.200 12.026 L 20.200 0.040 19.549 0.040 C 18.310 0.040,17.393 0.226,16.273 0.706 L 15.765 0.924 15.493 0.787 C 14.899 0.489,14.077 0.234,13.279 0.100 C 12.920 0.039,11.600 -0.013,11.340 0.023 M12.588 0.680 C 13.572 0.767,14.500 1.023,15.334 1.435 L 15.795 1.663 16.167 1.477 C 17.121 0.999,18.376 0.680,19.302 0.680 L 19.560 0.680 19.550 12.010 L 19.540 23.340 19.060 23.327 C 16.700 23.264,14.213 22.565,12.100 21.369 C 11.612 21.092,10.585 20.400,10.164 20.064 C 7.365 17.824,5.454 14.733,4.762 11.326 C 4.463 9.853,4.441 9.389,4.440 4.670 L 4.440 0.680 4.698 0.680 C 5.620 0.680,6.884 1.001,7.835 1.478 L 8.210 1.666 8.669 1.436 C 9.620 0.959,10.789 0.677,11.940 0.646 C 12.050 0.643,12.342 0.659,12.588 0.680 M8.081 3.462 C 6.798 3.741,5.804 4.782,5.576 6.085 C 5.326 7.522,6.068 8.935,7.400 9.554 C 7.861 9.768,8.279 9.858,8.800 9.854 C 9.310 9.851,9.656 9.771,10.132 9.549 L 10.484 9.385 11.234 10.134 L 11.985 10.884 12.748 10.142 L 13.511 9.401 13.846 9.557 C 14.390 9.812,14.617 9.859,15.280 9.857 C 15.827 9.856,15.881 9.848,16.240 9.726 C 16.734 9.557,17.099 9.338,17.466 8.990 C 18.187 8.304,18.515 7.485,18.469 6.482 C 18.405 5.085,17.495 3.934,16.143 3.542 C 14.333 3.017,12.460 4.150,12.079 6.000 C 12.028 6.246,12.003 6.312,11.987 6.240 C 11.975 6.185,11.943 6.041,11.918 5.920 C 11.799 5.366,11.520 4.847,11.105 4.410 C 10.638 3.918,10.149 3.633,9.509 3.479 C 9.117 3.385,8.472 3.378,8.081 3.462 M9.323 4.547 C 9.350 4.574,9.311 4.622,9.202 4.694 C 8.857 4.922,8.693 5.427,8.820 5.866 C 8.943 6.290,9.405 6.640,9.841 6.640 C 10.149 6.640,10.575 6.414,10.725 6.172 C 10.781 6.082,10.824 6.048,10.849 6.073 C 10.914 6.138,10.935 6.774,10.883 7.048 C 10.718 7.905,9.971 8.622,9.100 8.761 C 7.955 8.943,6.838 8.137,6.637 6.982 C 6.451 5.909,7.137 4.840,8.204 4.541 C 8.447 4.473,9.253 4.477,9.323 4.547 M15.685 4.538 C 16.618 4.735,17.314 5.532,17.387 6.484 C 17.483 7.725,16.495 8.796,15.252 8.799 C 14.487 8.801,13.738 8.370,13.366 7.713 C 13.175 7.375,13.064 6.892,13.093 6.519 C 13.106 6.353,13.131 6.176,13.150 6.125 C 13.183 6.036,13.188 6.038,13.295 6.193 C 13.510 6.503,13.861 6.662,14.258 6.630 C 14.532 6.608,14.688 6.540,14.906 6.350 C 15.194 6.097,15.320 5.607,15.194 5.236 C 15.122 5.026,14.936 4.776,14.778 4.679 C 14.700 4.631,14.644 4.583,14.654 4.573 C 14.683 4.544,15.044 4.490,15.240 4.485 C 15.339 4.483,15.539 4.507,15.685 4.538 " stroke="none" fill="black" fill-rule="evenodd"></path></svg>