<svg role="img" viewBox="0 0 24 24" xmlns="http://www.w3.org/2000/svg"><path d="M2.920 12.000 L 2.920 24.000 5.841 24.000 L 8.761 24.000 8.759 19.070 C 8.757 13.657,8.744 13.959,9.001 13.558 C 9.160 13.310,9.389 13.111,9.679 12.969 L 9.900 12.860 11.937 12.849 C 13.781 12.838,13.996 12.844,14.196 12.907 C 14.496 13.001,14.858 13.287,15.027 13.563 C 15.291 13.996,15.279 13.723,15.280 19.090 L 15.280 23.960 18.183 23.960 L 21.086 23.960 21.068 18.330 C 21.056 14.306,21.037 12.597,21.003 12.340 C 20.790 10.723,20.307 9.617,19.457 8.802 C 18.900 8.267,18.280 7.916,17.480 7.684 C 16.496 7.397,15.727 7.349,12.460 7.371 C 10.193 7.385,10.040 7.391,9.700 7.470 C 9.367 7.548,8.957 7.669,8.790 7.739 C 8.724 7.767,8.720 7.568,8.720 3.884 L 8.720 0.000 5.820 0.000 L 2.920 0.000 2.920 12.000 " stroke="none" fill="black" fill-rule="evenodd"></path></svg>