<svg role="img" viewBox="0 0 24 24" xmlns="http://www.w3.org/2000/svg"><path d="M11.140 0.025 C 7.643 0.316,4.512 2.039,2.413 4.827 C 1.165 6.485,0.386 8.384,0.093 10.483 C -0.004 11.177,-0.004 12.823,0.093 13.517 C 0.548 16.773,2.219 19.622,4.825 21.584 C 6.468 22.821,8.244 23.559,10.360 23.885 C 11.202 24.015,12.799 24.015,13.640 23.885 C 14.719 23.718,15.508 23.506,16.434 23.135 C 20.097 21.665,22.837 18.446,23.715 14.580 C 23.917 13.688,23.975 13.117,23.975 12.000 C 23.975 11.103,23.961 10.851,23.885 10.360 C 23.721 9.292,23.506 8.490,23.140 7.579 C 21.526 3.556,17.855 0.691,13.558 0.100 C 13.115 0.039,11.553 -0.009,11.140 0.025 M12.886 2.520 C 16.192 2.841,19.086 4.843,20.544 7.818 C 22.137 11.071,21.763 14.841,19.554 17.788 C 19.173 18.297,18.288 19.181,17.778 19.564 C 13.975 22.416,8.832 22.120,5.396 18.850 C 3.568 17.111,2.480 14.555,2.480 12.003 C 2.480 11.372,2.542 10.776,2.679 10.087 C 2.783 9.563,2.819 9.437,2.852 9.483 C 3.033 9.743,3.399 10.145,3.649 10.358 C 5.104 11.597,7.100 11.854,8.820 11.025 C 10.321 10.301,11.302 8.890,11.486 7.190 C 11.616 5.992,11.215 4.692,10.412 3.710 C 10.201 3.453,9.807 3.082,9.561 2.909 C 9.508 2.872,9.476 2.831,9.489 2.817 C 9.531 2.776,10.641 2.565,11.020 2.527 C 11.527 2.476,12.398 2.473,12.886 2.520 " stroke="none" fill="black" fill-rule="evenodd"></path></svg>