<svg role="img" xmlns="http://www.w3.org/2000/svg" viewBox="0 0 24 24"><path d="M6.800 2.999 L 1.620 5.994 1.620 12.000 L 1.620 18.006 6.811 21.004 L 12.002 24.001 17.191 21.005 L 22.380 18.009 22.380 12.000 L 22.380 5.991 17.220 3.011 C 14.382 1.372,12.042 0.025,12.020 0.018 C 11.998 0.011,9.649 1.352,6.800 2.999 M11.713 1.767 C 12.085 1.831,12.437 1.774,12.809 1.589 L 13.082 1.454 16.831 3.618 L 20.580 5.783 20.580 5.996 L 20.580 6.210 16.823 8.379 L 13.066 10.548 12.883 10.435 C 12.395 10.135,11.649 10.129,11.125 10.422 C 11.029 10.476,10.933 10.520,10.912 10.520 C 10.891 10.520,10.538 10.324,10.127 10.085 C 9.716 9.846,8.381 9.074,7.160 8.370 C 5.939 7.666,4.598 6.892,4.180 6.650 L 3.420 6.211 3.408 5.994 C 3.397 5.783,3.401 5.774,3.528 5.712 C 3.601 5.676,5.294 4.703,7.291 3.549 L 10.922 1.450 11.174 1.584 C 11.323 1.663,11.543 1.738,11.713 1.767 M21.495 7.503 L 21.680 7.607 21.680 11.961 C 21.680 16.266,21.679 16.315,21.601 16.340 C 21.454 16.386,21.113 16.671,20.959 16.877 C 20.753 17.151,20.636 17.475,20.605 17.854 L 20.580 18.168 16.980 20.246 C 15.000 21.390,13.313 22.363,13.232 22.409 L 13.083 22.493 12.902 22.397 L 12.720 22.300 12.720 17.971 L 12.720 13.642 12.887 13.556 C 13.399 13.295,13.795 12.597,13.802 11.945 L 13.803 11.780 17.552 9.593 C 19.613 8.391,21.302 7.405,21.305 7.403 C 21.308 7.401,21.393 7.447,21.495 7.503 M6.600 9.712 L 10.180 11.780 10.205 12.080 C 10.260 12.736,10.583 13.262,11.116 13.567 L 11.279 13.660 11.280 18.007 L 11.280 22.353 11.105 22.451 L 10.929 22.549 7.175 20.381 L 3.420 18.214 3.394 17.897 C 3.351 17.367,3.185 17.021,2.813 16.681 C 2.687 16.565,2.524 16.443,2.452 16.408 L 2.320 16.345 2.321 12.003 L 2.322 7.660 2.491 7.555 L 2.660 7.451 2.840 7.547 C 2.939 7.601,4.631 8.575,6.600 9.712 " stroke="none" fill="black" fill-rule="evenodd"></path></svg>