<svg role="img" viewBox="0 0 24 24" xmlns="http://www.w3.org/2000/svg"><path d="M11.000 0.044 C 8.385 0.273,5.906 1.356,3.973 3.114 C 1.822 5.070,0.432 7.810,0.123 10.700 C -0.062 12.428,0.125 14.137,0.679 15.800 C 1.467 18.163,2.854 20.098,4.825 21.584 C 6.519 22.860,8.510 23.663,10.640 23.928 C 11.262 24.005,12.852 23.992,13.500 23.904 C 17.006 23.430,20.009 21.564,21.937 18.660 C 23.535 16.254,24.209 13.404,23.856 10.540 C 23.412 6.932,21.401 3.765,18.320 1.820 C 17.751 1.461,16.653 0.926,16.021 0.699 C 14.440 0.132,12.656 -0.100,11.000 0.044 M12.578 0.841 C 15.369 1.003,17.879 2.122,19.842 4.079 C 21.260 5.492,22.324 7.383,22.795 9.326 C 23.901 13.892,22.117 18.585,18.260 21.249 C 16.936 22.164,15.292 22.803,13.600 23.061 C 12.659 23.205,11.215 23.197,10.263 23.042 C 7.495 22.592,5.089 21.182,3.299 18.960 C 2.666 18.175,1.935 16.876,1.580 15.907 C 0.460 12.849,0.709 9.395,2.248 6.620 C 2.780 5.661,3.393 4.845,4.159 4.077 C 6.088 2.143,8.614 1.008,11.358 0.842 C 11.634 0.826,11.869 0.809,11.880 0.807 C 11.891 0.804,12.205 0.819,12.578 0.841 M16.780 3.926 C 14.920 4.267,9.388 5.382,9.285 5.437 C 9.173 5.497,8.964 5.750,8.942 5.851 C 8.931 5.900,8.907 7.988,8.888 10.491 C 8.854 14.938,8.852 15.045,8.774 15.149 C 8.625 15.349,8.506 15.399,7.840 15.541 C 6.537 15.818,6.151 15.974,5.745 16.386 C 5.402 16.734,5.228 17.313,5.308 17.834 C 5.418 18.546,5.871 19.041,6.557 19.201 C 7.040 19.313,8.023 19.183,8.543 18.937 C 8.845 18.794,9.276 18.382,9.434 18.085 C 9.546 17.876,9.565 17.791,9.599 17.354 C 9.650 16.715,9.720 13.480,9.720 11.756 C 9.720 11.017,9.732 10.110,9.747 9.740 C 9.772 9.087,9.776 9.063,9.878 8.949 C 9.981 8.834,10.039 8.820,11.842 8.460 C 15.039 7.822,16.215 7.599,16.381 7.600 C 16.502 7.600,16.573 7.628,16.666 7.713 L 16.789 7.825 16.815 10.183 C 16.844 12.703,16.821 13.442,16.707 13.615 C 16.602 13.775,16.454 13.831,15.673 14.005 C 14.771 14.206,14.491 14.291,14.155 14.466 C 13.803 14.650,13.547 14.914,13.367 15.278 C 13.224 15.567,13.220 15.589,13.220 16.019 C 13.220 16.437,13.227 16.477,13.348 16.721 C 13.524 17.076,13.820 17.376,14.152 17.533 C 14.418 17.659,14.425 17.660,15.020 17.655 C 15.495 17.651,15.687 17.633,15.940 17.565 C 16.398 17.443,16.731 17.266,16.996 17.006 C 17.268 16.739,17.413 16.503,17.544 16.115 L 17.640 15.832 17.640 10.035 C 17.640 3.820,17.647 4.031,17.446 3.923 C 17.352 3.873,17.063 3.874,16.780 3.926 " stroke="none" fill="black" fill-rule="evenodd"></path></svg>