<svg role="img" viewBox="0 0 24 24" xmlns="http://www.w3.org/2000/svg"><path d="M14.443 0.187 C 14.529 0.548,14.560 1.087,14.517 1.472 C 14.412 2.424,13.942 3.265,13.014 4.160 C 12.775 4.391,12.094 4.968,11.500 5.443 C 10.906 5.918,10.271 6.447,10.088 6.619 C 9.679 7.005,9.243 7.542,9.081 7.860 C 8.549 8.903,8.966 10.060,10.436 11.617 C 10.893 12.102,11.967 13.126,11.992 13.101 C 12.024 13.069,11.754 12.628,11.177 11.776 C 10.298 10.474,10.102 10.023,10.104 9.300 C 10.105 8.971,10.125 8.844,10.215 8.580 C 10.488 7.782,10.959 7.219,12.220 6.181 C 14.330 4.443,15.271 2.751,14.981 1.214 C 14.918 0.882,14.629 0.235,14.486 0.105 C 14.408 0.035,14.408 0.036,14.443 0.187 M16.595 5.158 C 14.028 6.025,12.455 7.235,12.117 8.600 C 12.045 8.893,12.054 9.439,12.137 9.760 C 12.235 10.138,12.517 10.691,12.807 11.076 C 12.946 11.261,13.136 11.513,13.230 11.636 C 13.422 11.890,13.560 12.275,13.560 12.560 C 13.560 12.952,13.351 13.428,13.013 13.803 C 12.843 13.992,12.895 13.979,13.240 13.747 C 14.306 13.032,14.871 12.123,14.728 11.350 C 14.671 11.040,14.531 10.764,14.195 10.300 C 13.597 9.474,13.424 9.098,13.423 8.620 C 13.422 8.344,13.439 8.264,13.545 8.040 C 13.927 7.234,14.957 6.364,16.899 5.206 C 17.162 5.048,17.360 4.920,17.339 4.920 C 17.317 4.920,16.983 5.027,16.595 5.158 M18.513 13.004 C 18.206 13.044,17.854 13.166,17.703 13.285 C 17.537 13.416,17.582 13.434,17.870 13.352 C 19.050 13.015,20.104 13.981,19.782 15.103 C 19.562 15.869,18.769 16.649,17.450 17.399 C 17.080 17.609,16.984 17.704,17.190 17.656 C 17.583 17.564,18.342 17.277,18.820 17.040 C 19.963 16.474,20.643 15.777,20.802 15.009 C 21.049 13.820,19.910 12.822,18.513 13.004 M8.620 13.227 C 7.657 13.311,6.541 13.621,5.614 14.063 C 5.086 14.315,4.967 14.498,5.202 14.695 C 5.858 15.248,9.628 15.483,12.920 15.177 C 14.184 15.060,15.758 14.791,16.040 14.645 C 16.581 14.364,17.013 14.122,16.974 14.121 C 16.948 14.120,16.642 14.165,16.294 14.219 C 12.664 14.785,7.895 14.897,6.992 14.436 C 6.680 14.277,6.763 14.117,7.290 13.863 C 7.616 13.707,7.938 13.596,8.960 13.287 L 9.220 13.208 9.000 13.211 C 8.879 13.212,8.708 13.220,8.620 13.227 M7.860 16.094 C 6.274 16.748,6.937 17.487,9.380 17.788 C 10.154 17.883,12.006 17.881,12.900 17.784 C 13.981 17.667,15.156 17.448,16.051 17.198 L 16.201 17.156 15.891 17.000 C 15.720 16.915,15.504 16.780,15.411 16.700 L 15.241 16.555 14.511 16.676 C 12.510 17.010,11.126 17.068,9.270 16.898 C 8.272 16.806,7.992 16.707,7.968 16.435 C 7.959 16.333,7.988 16.254,8.078 16.129 C 8.146 16.036,8.196 15.960,8.190 15.961 C 8.185 15.961,8.036 16.021,7.860 16.094 M8.500 18.675 C 7.630 18.990,7.463 19.444,8.074 19.836 C 9.030 20.449,11.293 20.706,13.214 20.418 C 14.010 20.299,15.074 20.020,15.590 19.794 C 15.776 19.713,15.778 19.710,15.680 19.670 C 15.625 19.647,15.326 19.503,15.016 19.350 L 14.451 19.073 13.696 19.195 C 12.594 19.373,12.029 19.415,11.102 19.388 C 10.294 19.363,9.398 19.279,9.049 19.195 C 8.629 19.093,8.491 18.901,8.687 18.693 C 8.791 18.582,8.764 18.580,8.500 18.675 M5.520 20.405 C 4.296 20.660,3.160 21.276,3.160 21.685 C 3.160 21.933,3.416 22.108,3.969 22.240 C 4.574 22.383,6.303 22.610,7.620 22.718 C 9.747 22.892,12.176 22.885,14.220 22.698 C 17.260 22.421,19.646 21.699,19.783 21.016 C 19.802 20.920,19.784 20.867,19.699 20.766 C 19.639 20.695,19.537 20.609,19.471 20.575 L 19.351 20.513 19.415 20.605 C 19.504 20.733,19.496 20.928,19.397 21.055 C 18.897 21.690,15.877 22.133,11.680 22.187 C 8.747 22.225,6.668 22.064,5.430 21.702 C 4.782 21.514,4.602 21.380,4.713 21.174 C 4.835 20.947,5.855 20.558,6.562 20.469 C 6.962 20.418,6.974 20.414,6.844 20.368 C 6.638 20.295,5.954 20.314,5.520 20.405 M20.695 21.900 C 20.086 22.487,18.142 23.055,15.700 23.358 C 12.879 23.709,9.455 23.712,6.909 23.365 C 6.629 23.326,6.414 23.310,6.433 23.329 C 6.503 23.399,7.034 23.558,7.520 23.656 C 8.680 23.888,9.942 23.975,12.180 23.977 C 14.018 23.978,14.659 23.948,16.020 23.797 C 18.841 23.484,20.508 22.839,20.798 21.947 C 20.826 21.863,20.842 21.791,20.834 21.787 C 20.826 21.783,20.764 21.834,20.695 21.900 " stroke="none" fill="black" fill-rule="evenodd"></path></svg>