<svg role="img" viewBox="0 0 24 24" xmlns="http://www.w3.org/2000/svg"><path d="M6.274 5.710 C 3.136 8.850,0.537 11.482,0.499 11.558 C 0.461 11.634,0.420 11.809,0.409 11.947 C 0.392 12.161,0.405 12.228,0.493 12.409 C 0.579 12.583,1.607 13.629,6.289 18.310 L 11.981 24.000 17.718 18.262 C 20.874 15.107,23.480 12.478,23.510 12.421 C 23.595 12.258,23.617 11.944,23.558 11.731 C 23.509 11.552,23.148 11.182,17.767 5.780 C 14.611 2.612,12.018 0.015,12.004 0.010 C 11.991 0.004,9.412 2.569,6.274 5.710 M13.780 10.240 L 15.540 12.000 13.770 13.770 L 12.000 15.540 10.230 13.770 L 8.460 12.000 10.220 10.240 C 11.188 9.272,11.989 8.480,12.000 8.480 C 12.011 8.480,12.812 9.272,13.780 10.240 " stroke="none" fill="black" fill-rule="evenodd"></path></svg>