<svg role="img" viewBox="0 0 24 24" xmlns="http://www.w3.org/2000/svg"><path d="M10.600 1.203 C 7.612 1.389,4.695 2.121,2.037 3.351 L 1.694 3.510 1.444 4.165 C -0.184 8.440,-0.437 13.130,0.721 17.591 C 0.896 18.264,1.258 19.382,1.519 20.051 C 1.714 20.551,1.614 20.476,2.686 20.934 C 5.055 21.947,7.421 22.531,10.120 22.768 C 10.872 22.834,13.167 22.833,13.920 22.766 C 16.755 22.515,19.370 21.836,21.837 20.709 L 22.294 20.500 22.409 20.220 C 22.793 19.287,23.252 17.803,23.474 16.780 C 24.409 12.478,24.086 8.175,22.519 4.068 C 22.275 3.427,22.398 3.529,21.314 3.066 C 17.955 1.629,14.209 0.978,10.600 1.203 M13.381 2.121 C 16.175 2.302,18.947 2.979,21.280 4.049 L 21.580 4.187 21.735 4.603 C 23.034 8.107,23.393 11.859,22.777 15.515 C 22.566 16.772,22.193 18.176,21.773 19.298 L 21.579 19.816 21.100 20.031 C 19.995 20.526,18.455 21.035,17.160 21.335 C 12.655 22.376,7.857 22.016,3.600 20.320 C 2.755 19.983,2.416 19.820,2.383 19.735 C 0.623 15.181,0.455 10.289,1.900 5.665 C 1.997 5.354,2.156 4.893,2.252 4.640 L 2.427 4.180 2.850 3.994 C 5.241 2.940,7.866 2.300,10.520 2.125 C 11.258 2.076,12.651 2.074,13.381 2.121 M10.680 2.804 C 8.108 2.959,5.644 3.548,3.176 4.599 L 2.972 4.685 2.766 5.273 C 1.912 7.707,1.535 10.249,1.643 12.838 C 1.712 14.504,1.951 16.008,2.398 17.588 C 2.546 18.111,2.934 19.267,2.976 19.309 C 3.030 19.363,4.212 19.830,4.831 20.041 C 9.969 21.799,15.609 21.603,20.610 19.494 L 21.039 19.313 20.802 18.966 C 20.506 18.536,20.122 18.056,19.815 17.734 L 19.580 17.487 18.604 17.181 C 17.510 16.838,16.697 16.545,16.220 16.323 C 15.837 16.144,15.433 15.826,14.924 15.305 L 14.549 14.920 13.721 14.920 C 13.074 14.920,12.720 14.942,12.097 15.021 C 10.272 15.252,9.783 15.210,8.152 14.684 C 6.978 14.305,6.465 14.186,5.799 14.136 C 5.446 14.109,5.428 14.111,5.455 14.182 C 5.530 14.377,5.976 14.974,6.299 15.313 C 6.820 15.858,7.189 16.106,7.743 16.283 C 7.895 16.331,8.044 16.390,8.074 16.413 C 8.121 16.451,8.640 17.446,8.640 17.500 C 8.640 17.535,8.027 17.215,7.548 16.931 C 6.561 16.345,5.750 15.715,4.938 14.903 C 4.205 14.169,4.171 14.122,4.137 13.796 L 4.110 13.534 4.505 13.429 C 5.142 13.260,6.021 13.112,7.153 12.983 C 7.425 12.952,7.655 12.919,7.664 12.909 C 7.674 12.899,7.709 12.722,7.741 12.516 C 7.884 11.614,8.115 10.838,8.478 10.045 C 8.667 9.630,8.684 9.545,8.583 9.507 C 8.555 9.496,8.188 9.427,7.766 9.354 L 7.000 9.220 6.916 8.968 C 6.870 8.829,6.838 8.709,6.846 8.702 C 6.922 8.634,8.782 8.061,9.560 7.866 C 10.096 7.732,10.101 7.730,10.189 7.576 C 10.379 7.245,10.249 6.971,9.848 6.855 C 9.524 6.761,8.549 6.801,7.920 6.934 C 7.403 7.044,6.709 7.240,6.324 7.385 C 6.183 7.438,6.060 7.474,6.051 7.465 C 6.027 7.440,6.645 7.041,7.110 6.782 C 7.335 6.656,7.520 6.534,7.520 6.510 C 7.520 6.431,7.318 6.203,7.138 6.078 C 7.039 6.010,6.837 5.894,6.689 5.819 L 6.420 5.684 6.703 5.682 C 7.172 5.679,7.668 5.868,7.962 6.162 L 8.121 6.321 8.416 6.244 C 8.579 6.201,8.795 6.154,8.898 6.138 C 9.082 6.111,9.084 6.109,9.058 5.985 C 8.984 5.633,8.632 5.158,8.204 4.833 L 7.940 4.631 8.120 4.660 C 8.757 4.763,9.444 5.274,9.710 5.841 L 9.820 6.075 10.120 6.101 C 10.285 6.115,10.449 6.134,10.483 6.144 C 10.571 6.168,10.640 5.922,10.640 5.584 C 10.640 5.152,10.450 4.678,10.115 4.273 C 10.030 4.170,9.960 4.076,9.960 4.064 C 9.960 4.016,10.351 4.215,10.586 4.383 C 10.868 4.584,11.114 4.901,11.248 5.235 C 11.329 5.436,11.338 5.526,11.336 6.080 C 11.335 6.621,11.321 6.750,11.228 7.097 C 11.169 7.316,11.126 7.499,11.132 7.506 C 11.139 7.512,11.503 7.473,11.942 7.418 C 12.381 7.363,12.767 7.324,12.800 7.331 C 12.893 7.350,12.437 7.770,12.021 8.048 L 11.661 8.289 11.364 8.262 C 11.201 8.248,11.020 8.226,10.961 8.214 C 10.858 8.194,10.850 8.204,10.768 8.486 C 10.535 9.277,10.360 10.242,10.360 10.728 C 10.360 11.302,10.609 11.691,11.100 11.882 C 11.333 11.973,11.388 11.976,13.020 12.002 C 14.801 12.031,15.298 12.073,16.064 12.258 L 16.446 12.350 16.485 12.248 C 16.659 11.789,16.471 11.005,16.022 10.323 C 15.896 10.132,15.833 10.004,15.871 10.019 C 15.907 10.032,16.079 10.146,16.253 10.272 C 16.657 10.562,17.191 11.123,17.396 11.470 C 17.561 11.751,17.737 12.218,17.707 12.295 C 17.698 12.320,17.623 12.365,17.540 12.394 C 17.458 12.424,17.293 12.492,17.174 12.544 L 16.958 12.640 17.179 12.908 C 17.536 13.341,17.728 13.774,18.116 15.020 C 18.385 15.886,18.519 16.026,19.609 16.582 C 20.371 16.970,20.295 16.894,20.962 17.950 C 21.146 18.241,21.309 18.466,21.325 18.450 C 21.378 18.395,21.756 17.043,21.896 16.409 C 22.231 14.884,22.362 13.651,22.361 12.022 C 22.361 9.537,22.017 7.528,21.178 5.114 L 21.030 4.688 20.605 4.507 C 17.517 3.197,14.046 2.602,10.680 2.804 " stroke="none" fill="black" fill-rule="evenodd"></path></svg>