<svg role="img" viewBox="0 0 24 24" xmlns="http://www.w3.org/2000/svg"><path d="M9.187 5.387 C 9.172 5.401,9.160 7.458,9.159 9.957 C 9.158 14.328,9.155 14.506,9.083 14.667 C 8.868 15.139,8.220 15.472,7.177 15.645 C 6.697 15.725,5.277 15.714,4.800 15.626 C 3.813 15.446,3.226 15.090,3.046 14.564 C 3.014 14.469,3.000 13.884,3.000 12.614 L 3.000 10.800 1.500 10.800 L 0.000 10.800 0.001 13.130 C 0.001 14.975,0.013 15.515,0.058 15.725 C 0.389 17.290,2.371 18.305,5.674 18.601 C 6.034 18.633,6.311 18.633,6.694 18.601 C 8.504 18.450,9.992 18.023,10.964 17.377 C 11.324 17.138,11.748 16.681,11.927 16.340 C 12.211 15.797,12.200 15.974,12.200 11.964 L 12.200 8.360 16.214 8.360 L 20.228 8.360 20.362 8.450 C 20.435 8.500,20.531 8.601,20.574 8.675 C 20.824 9.103,20.814 10.008,20.555 10.429 C 20.392 10.692,20.560 10.680,17.159 10.680 C 14.708 10.680,14.077 10.690,14.090 10.730 C 14.099 10.758,15.428 12.493,17.043 14.587 L 19.980 18.395 21.991 18.397 L 24.002 18.400 23.451 17.754 C 23.148 17.399,22.239 16.332,21.431 15.384 L 19.961 13.660 20.771 13.637 C 21.604 13.613,21.693 13.597,22.067 13.407 C 22.866 12.999,23.463 11.851,23.659 10.348 C 23.770 9.494,23.714 8.686,23.482 7.791 C 23.333 7.214,23.167 6.823,22.895 6.412 C 22.642 6.030,22.357 5.764,22.020 5.598 C 21.522 5.352,21.795 5.361,15.217 5.361 C 11.915 5.360,9.201 5.372,9.187 5.387 " stroke="none" fill="black" fill-rule="evenodd"></path></svg>