<svg role="img" viewBox="0 0 24 24" xmlns="http://www.w3.org/2000/svg"><path d="M10.940 0.046 C 6.193 0.456,2.102 3.701,0.605 8.243 C -1.201 13.726,1.156 19.717,6.220 22.515 C 11.158 25.242,17.532 24.114,21.186 19.865 C 22.653 18.158,23.539 16.208,23.885 13.920 C 23.957 13.449,23.974 13.155,23.976 12.360 C 23.979 11.457,23.970 11.330,23.867 10.740 C 23.805 10.388,23.745 10.059,23.733 10.010 L 23.711 9.920 19.526 9.920 L 15.340 9.920 12.880 12.380 L 10.420 14.840 13.791 14.840 L 17.161 14.840 17.035 15.090 C 16.352 16.444,15.016 17.420,13.379 17.762 C 11.385 18.179,9.512 17.650,8.124 16.280 C 5.846 14.030,5.773 10.468,7.958 8.188 C 8.622 7.495,9.400 6.998,10.282 6.703 C 10.848 6.514,11.342 6.440,12.045 6.440 C 13.092 6.440,14.038 6.680,14.813 7.141 L 15.055 7.285 17.329 5.013 L 19.603 2.740 19.472 2.626 C 19.399 2.564,19.151 2.377,18.920 2.212 C 16.633 0.577,13.773 -0.199,10.940 0.046 " stroke="none" fill="black" fill-rule="evenodd"></path></svg>