<svg role="img" viewBox="0 0 24 24" xmlns="http://www.w3.org/2000/svg"><path d="M3.880 0.057 C 2.889 0.264,2.100 0.971,1.766 1.949 L 1.660 2.260 1.649 11.880 C 1.637 22.554,1.618 21.775,1.898 22.380 C 2.337 23.328,3.232 23.928,4.295 23.988 C 5.194 24.039,5.941 23.746,6.552 23.103 C 6.760 22.884,6.880 22.710,7.016 22.434 C 7.347 21.755,7.323 22.616,7.311 11.860 L 7.300 2.300 7.191 1.980 C 7.035 1.523,6.824 1.185,6.480 0.840 C 5.935 0.295,5.352 0.043,4.580 0.017 C 4.306 0.008,4.042 0.023,3.880 0.057 M16.580 0.137 C 15.912 0.310,15.409 0.589,14.926 1.056 C 14.165 1.790,13.784 2.674,13.787 3.700 C 13.790 4.686,14.154 5.559,14.857 6.263 C 15.526 6.932,16.353 7.299,17.304 7.350 C 19.183 7.449,20.792 6.220,21.182 4.387 C 21.258 4.029,21.256 3.354,21.177 2.968 C 20.887 1.555,19.723 0.391,18.312 0.103 C 17.832 0.005,17.029 0.021,16.580 0.137 M11.175 7.400 C 10.733 7.465,10.258 7.672,9.852 7.977 C 9.218 8.454,8.851 9.154,8.810 9.964 C 8.784 10.488,8.859 10.860,9.073 11.283 C 9.206 11.545,17.048 22.529,17.438 23.000 C 17.779 23.411,18.329 23.756,18.880 23.904 C 19.201 23.990,19.892 24.001,20.200 23.924 C 20.950 23.738,21.621 23.253,21.993 22.630 C 22.222 22.245,22.330 21.873,22.351 21.394 C 22.374 20.868,22.300 20.496,22.087 20.077 C 21.917 19.743,14.008 8.682,13.657 8.289 C 13.049 7.606,12.096 7.265,11.175 7.400 " stroke="none" fill="black" fill-rule="evenodd"></path></svg>