<svg role="img" viewBox="0 0 24 24" xmlns="http://www.w3.org/2000/svg"><path d="M0.420 8.421 L 0.020 8.505 0.010 12.033 L -0.000 15.560 0.401 15.560 C 0.685 15.560,0.808 15.545,0.822 15.510 C 0.832 15.482,0.836 13.857,0.830 11.898 L 0.820 8.337 0.420 8.421 M10.280 8.436 L 9.980 8.504 9.970 12.033 L 9.960 15.563 10.370 15.551 L 10.780 15.540 10.790 11.950 L 10.800 8.360 10.690 8.364 C 10.630 8.366,10.445 8.398,10.280 8.436 M2.120 11.683 C 1.603 12.364,1.180 12.946,1.180 12.976 C 1.180 13.005,1.666 13.624,2.259 14.350 L 3.338 15.671 3.649 15.430 C 3.820 15.298,3.960 15.179,3.959 15.165 C 3.959 15.151,3.546 14.646,3.042 14.041 C 2.538 13.437,2.137 12.924,2.151 12.901 C 2.165 12.879,2.526 12.423,2.953 11.889 C 3.381 11.354,3.724 10.912,3.715 10.905 C 3.615 10.826,3.078 10.441,3.070 10.443 C 3.065 10.444,2.637 11.002,2.120 11.683 M12.069 11.693 C 11.546 12.379,11.120 12.958,11.122 12.980 C 11.126 13.028,13.232 15.614,13.283 15.633 C 13.302 15.640,13.430 15.559,13.567 15.453 C 13.704 15.347,13.843 15.240,13.876 15.215 C 13.926 15.177,13.790 14.995,13.058 14.114 C 12.575 13.534,12.157 13.029,12.128 12.993 C 12.082 12.935,12.177 12.799,12.879 11.920 L 13.682 10.913 13.391 10.704 C 13.231 10.590,13.082 10.485,13.059 10.471 C 13.037 10.458,12.591 11.008,12.069 11.693 M6.240 10.508 C 5.790 10.583,5.080 10.850,5.080 10.943 C 5.080 11.028,5.287 11.480,5.327 11.480 C 5.346 11.480,5.429 11.452,5.511 11.417 C 5.966 11.226,6.708 11.145,7.054 11.249 C 7.273 11.314,7.495 11.544,7.574 11.785 C 7.609 11.892,7.650 12.126,7.664 12.304 L 7.690 12.627 6.935 12.654 C 5.859 12.692,5.466 12.806,5.098 13.184 C 4.839 13.451,4.744 13.728,4.744 14.220 C 4.743 14.576,4.756 14.648,4.858 14.872 C 5.079 15.358,5.504 15.607,6.120 15.610 C 6.615 15.613,7.174 15.421,7.600 15.101 L 7.740 14.996 7.795 15.280 L 7.850 15.563 8.155 15.552 L 8.460 15.540 8.459 13.740 C 8.458 12.173,8.449 11.908,8.390 11.691 C 8.160 10.848,7.609 10.468,6.643 10.485 C 6.476 10.488,6.295 10.498,6.240 10.508 M16.040 10.540 C 15.722 10.604,15.441 10.699,15.192 10.825 L 15.003 10.920 15.119 11.190 C 15.252 11.500,15.226 11.494,15.720 11.338 C 15.957 11.264,16.184 11.225,16.469 11.210 C 16.851 11.191,16.892 11.197,17.091 11.294 C 17.448 11.468,17.600 11.774,17.600 12.315 L 17.600 12.627 16.870 12.654 C 16.053 12.683,15.742 12.741,15.392 12.927 C 14.959 13.158,14.728 13.538,14.691 14.077 C 14.657 14.570,14.757 14.904,15.030 15.205 C 15.546 15.777,16.605 15.750,17.492 15.144 C 17.664 15.026,17.720 15.015,17.720 15.098 C 17.720 15.130,17.739 15.247,17.763 15.358 L 17.807 15.560 18.103 15.560 L 18.400 15.560 18.399 13.750 C 18.399 11.824,18.384 11.640,18.197 11.275 C 17.867 10.628,17.025 10.341,16.040 10.540 M21.240 10.543 C 20.436 10.717,19.873 11.299,19.654 12.181 C 19.557 12.571,19.557 13.589,19.654 13.980 C 19.764 14.423,19.970 14.799,20.254 15.072 C 20.675 15.475,21.115 15.639,21.780 15.639 C 22.873 15.639,23.605 15.088,23.887 14.053 C 23.958 13.792,23.973 13.629,23.973 13.080 C 23.973 12.330,23.905 11.990,23.671 11.549 C 23.236 10.730,22.253 10.323,21.240 10.543 M22.374 11.295 C 22.883 11.544,23.131 12.130,23.131 13.080 C 23.131 14.018,22.891 14.583,22.380 14.851 C 22.158 14.967,21.605 14.995,21.330 14.903 C 20.738 14.707,20.439 14.102,20.441 13.104 C 20.442 12.302,20.587 11.826,20.935 11.485 C 21.179 11.246,21.447 11.153,21.846 11.172 C 22.077 11.183,22.205 11.213,22.374 11.295 M7.680 13.817 L 7.680 14.393 7.439 14.554 C 7.028 14.829,6.481 14.993,6.146 14.943 C 5.923 14.910,5.730 14.783,5.622 14.600 C 5.503 14.397,5.508 13.925,5.631 13.691 C 5.817 13.339,6.112 13.243,7.010 13.241 L 7.680 13.240 7.680 13.817 M17.600 13.816 L 17.600 14.393 17.474 14.499 C 17.179 14.747,16.660 14.934,16.260 14.937 C 15.759 14.940,15.528 14.740,15.491 14.268 C 15.464 13.932,15.531 13.709,15.715 13.525 C 15.941 13.299,16.169 13.247,16.950 13.243 L 17.600 13.240 17.600 13.816 " stroke="none" fill="black" fill-rule="evenodd"></path></svg>