<svg role="img" viewBox="0 0 24 24" xmlns="http://www.w3.org/2000/svg"><path d="M11.632 5.330 L 11.620 5.700 11.250 5.712 L 10.880 5.723 10.880 6.080 L 10.880 6.437 11.250 6.448 L 11.620 6.460 11.632 6.830 L 11.643 7.200 12.000 7.200 L 12.357 7.200 12.368 6.830 L 12.380 6.460 12.750 6.448 L 13.120 6.437 13.120 6.080 L 13.120 5.723 12.750 5.712 L 12.380 5.700 12.368 5.330 L 12.357 4.960 12.000 4.960 L 11.643 4.960 11.632 5.330 M7.254 7.040 C 6.233 7.250,5.845 8.527,6.579 9.261 C 6.849 9.531,7.077 9.620,7.500 9.620 C 7.923 9.620,8.151 9.531,8.421 9.261 C 8.775 8.907,8.898 8.339,8.722 7.872 C 8.502 7.291,7.847 6.919,7.254 7.040 M10.249 7.041 C 9.999 7.092,9.694 7.272,9.517 7.473 C 9.070 7.981,9.097 8.779,9.579 9.261 C 9.849 9.531,10.077 9.620,10.500 9.620 C 10.923 9.620,11.151 9.531,11.421 9.261 C 11.779 8.903,11.899 8.346,11.721 7.872 C 11.502 7.289,10.848 6.919,10.249 7.041 M13.249 7.041 C 12.827 7.127,12.431 7.466,12.277 7.874 C 12.164 8.175,12.183 8.616,12.321 8.902 C 12.442 9.152,12.687 9.397,12.941 9.522 C 13.107 9.604,13.199 9.620,13.500 9.620 C 13.923 9.620,14.151 9.531,14.421 9.261 C 14.779 8.903,14.899 8.346,14.721 7.872 C 14.502 7.289,13.848 6.919,13.249 7.041 M16.254 7.040 C 15.233 7.250,14.845 8.527,15.579 9.261 C 15.849 9.531,16.077 9.620,16.500 9.620 C 16.923 9.620,17.151 9.531,17.421 9.261 C 17.775 8.907,17.898 8.339,17.722 7.872 C 17.502 7.291,16.847 6.919,16.254 7.040 M7.480 10.780 L 7.480 11.520 12.000 11.520 L 16.520 11.520 16.520 10.780 L 16.520 10.040 12.000 10.040 L 7.480 10.040 7.480 10.780 M0.000 16.040 L 0.000 19.040 1.120 19.040 L 2.240 19.040 2.240 17.910 L 2.240 16.781 3.370 17.910 L 4.501 19.040 9.011 19.040 L 13.522 19.040 13.511 18.290 L 13.500 17.540 11.630 17.530 L 9.760 17.519 9.760 15.280 L 9.760 13.040 8.620 13.040 L 7.480 13.040 7.480 16.030 L 7.480 19.020 5.800 17.340 L 4.120 15.660 5.430 14.350 L 6.740 13.040 5.620 13.040 L 4.501 13.040 3.370 14.170 L 2.240 15.299 2.240 14.170 L 2.240 13.040 1.120 13.040 L 0.000 13.040 0.000 16.040 M14.240 16.040 L 14.240 19.040 15.380 19.040 L 16.520 19.040 16.522 16.830 L 16.523 14.620 17.253 16.820 L 17.984 19.020 19.122 19.029 L 20.260 19.039 21.000 16.809 L 21.740 14.580 21.750 16.810 L 21.761 19.040 22.880 19.040 L 24.000 19.040 24.000 16.040 L 24.000 13.040 22.123 13.040 L 20.246 13.040 19.694 14.700 C 19.389 15.613,19.131 16.360,19.119 16.360 C 19.108 16.360,18.855 15.617,18.558 14.710 L 18.018 13.060 16.129 13.050 L 14.240 13.039 14.240 16.040 " stroke="none" fill="black" fill-rule="evenodd"></path></svg>