<svg role="img" viewBox="0 0 24 24" xmlns="http://www.w3.org/2000/svg"><path d="M0.000 10.040 L 0.000 17.400 8.090 17.400 L 16.180 17.400 20.090 19.362 L 24.000 21.324 24.000 12.002 L 24.000 2.680 12.000 2.680 L 0.000 2.680 0.000 10.040 M7.302 6.730 L 8.623 8.660 9.221 8.680 L 9.820 8.700 9.831 9.890 L 9.841 11.080 9.251 11.081 L 8.660 11.082 7.240 13.084 C 6.459 14.186,5.800 15.103,5.775 15.124 C 5.749 15.146,5.037 15.157,4.044 15.150 L 2.358 15.140 4.318 12.520 C 5.396 11.079,6.278 9.891,6.278 9.880 C 6.278 9.869,5.469 8.735,4.480 7.360 C 3.491 5.985,2.682 4.846,2.681 4.830 C 2.681 4.814,3.423 4.800,4.330 4.800 L 5.980 4.800 7.302 6.730 M13.400 6.740 L 13.400 8.680 14.390 8.678 L 15.380 8.677 16.700 6.739 L 18.020 4.800 19.670 4.800 C 20.578 4.800,21.320 4.810,21.320 4.823 C 21.320 4.836,20.515 5.970,19.530 7.343 C 18.546 8.716,17.736 9.853,17.731 9.870 C 17.726 9.886,18.604 11.079,19.682 12.520 L 21.642 15.140 19.951 15.151 C 18.352 15.161,18.257 15.158,18.200 15.088 C 18.167 15.048,17.511 14.130,16.743 13.048 L 15.346 11.080 14.373 11.080 L 13.401 11.080 13.390 13.110 L 13.380 15.140 12.020 15.140 L 10.660 15.140 10.650 10.020 C 10.644 7.204,10.648 4.878,10.658 4.850 C 10.673 4.811,10.987 4.800,12.039 4.800 L 13.400 4.800 13.400 6.740 " stroke="none" fill="black" fill-rule="evenodd"></path></svg>