<svg role="img" xmlns="http://www.w3.org/2000/svg" viewBox="0 0 24 24"><path d="M11.180 0.027 C 8.146 0.278,5.511 1.503,3.436 3.627 C 2.468 4.618,1.811 5.555,1.197 6.820 C -0.584 10.490,-0.362 14.796,1.788 18.275 C 3.348 20.798,5.823 22.689,8.650 23.516 C 11.066 24.222,13.660 24.147,16.021 23.301 C 16.636 23.081,17.834 22.500,18.340 22.177 C 21.470 20.180,23.471 17.022,23.927 13.360 C 23.995 12.814,23.995 11.186,23.927 10.640 C 23.581 7.862,22.347 5.361,20.373 3.437 C 19.379 2.468,18.507 1.852,17.260 1.239 C 15.855 0.548,14.505 0.170,12.980 0.041 C 12.535 0.004,11.553 -0.004,11.180 0.027 M13.540 1.915 C 15.820 2.264,17.768 3.261,19.342 4.885 C 20.618 6.201,21.455 7.720,21.898 9.520 C 22.114 10.396,22.179 10.972,22.179 12.000 C 22.179 13.292,22.014 14.308,21.620 15.435 C 20.717 18.022,18.738 20.183,16.255 21.294 C 12.655 22.905,8.384 22.324,5.404 19.819 C 3.517 18.232,2.306 16.053,1.913 13.540 C 1.787 12.734,1.787 11.266,1.913 10.460 C 2.275 8.142,3.273 6.210,4.932 4.615 C 6.583 3.027,8.654 2.087,11.040 1.840 C 11.588 1.784,12.946 1.824,13.540 1.915 M5.400 6.260 L 5.400 7.200 5.821 7.200 C 6.090 7.200,6.289 7.220,6.371 7.255 C 6.527 7.322,6.700 7.499,6.757 7.653 C 6.787 7.730,6.800 9.136,6.800 12.104 C 6.800 16.823,6.811 16.586,6.575 16.807 C 6.403 16.968,6.277 17.000,5.817 17.000 L 5.400 17.000 5.400 18.000 L 5.400 19.000 8.360 19.000 L 11.320 19.000 11.320 18.000 L 11.320 17.000 10.843 17.000 C 10.324 17.000,10.200 16.971,10.025 16.807 C 9.817 16.613,9.800 16.520,9.800 15.572 L 9.800 14.702 10.651 13.851 C 11.396 13.106,11.518 13.000,11.627 13.000 C 11.732 13.000,11.768 13.027,11.852 13.171 C 11.907 13.265,12.386 14.022,12.916 14.854 C 13.823 16.277,13.880 16.378,13.879 16.553 C 13.879 16.656,13.864 16.763,13.847 16.791 C 13.791 16.879,13.555 16.920,13.110 16.920 L 12.679 16.920 12.689 17.910 L 12.700 18.900 15.850 18.910 L 19.000 18.920 19.000 17.920 L 19.000 16.920 18.690 16.918 C 18.520 16.917,18.302 16.901,18.207 16.883 C 18.018 16.847,17.818 16.685,17.791 16.546 C 17.782 16.499,16.924 15.196,15.884 13.650 C 14.525 11.630,13.998 10.815,14.008 10.750 C 14.016 10.694,14.658 10.026,15.724 8.967 C 17.009 7.690,17.455 7.269,17.543 7.254 C 17.608 7.243,17.808 7.224,17.990 7.213 L 18.320 7.192 18.320 6.256 L 18.320 5.320 15.560 5.320 L 12.800 5.320 12.800 6.260 L 12.800 7.200 13.320 7.200 C 13.787 7.200,13.848 7.208,13.920 7.280 C 14.115 7.475,14.142 7.444,12.037 9.543 C 10.002 11.572,9.983 11.589,9.850 11.412 C 9.812 11.360,9.800 10.924,9.800 9.551 C 9.800 7.603,9.800 7.603,10.025 7.393 C 10.200 7.229,10.324 7.200,10.843 7.200 L 11.320 7.200 11.320 6.260 L 11.320 5.320 8.360 5.320 L 5.400 5.320 5.400 6.260 " stroke="none" fill="black" fill-rule="evenodd"></path></svg>