<svg role="img" viewBox="0 0 24 24" xmlns="http://www.w3.org/2000/svg"><path d="M17.362 0.266 C 17.198 0.387,16.451 0.874,15.702 1.349 C 12.284 3.516,10.557 4.763,8.953 6.224 C 7.509 7.539,6.710 8.640,5.675 10.735 C 4.205 13.715,3.871 16.223,4.628 18.614 C 4.988 19.752,5.516 20.538,6.284 21.077 C 6.445 21.190,6.824 21.419,7.126 21.586 C 7.429 21.753,7.790 21.980,7.928 22.090 L 8.180 22.290 7.971 22.074 L 7.761 21.859 12.447 11.809 C 15.024 6.281,17.138 1.764,17.144 1.771 C 17.151 1.778,15.181 6.409,12.766 12.062 C 10.352 17.715,8.364 22.370,8.350 22.407 C 8.331 22.457,8.413 22.550,8.665 22.767 C 9.338 23.346,9.887 23.666,10.545 23.864 C 10.854 23.957,10.975 23.972,11.480 23.975 C 12.152 23.981,12.443 23.929,13.280 23.655 C 16.030 22.756,17.898 20.526,18.938 16.900 C 20.163 12.631,20.019 7.911,18.500 2.513 C 18.279 1.728,17.722 0.039,17.686 0.044 C 17.672 0.046,17.526 0.146,17.362 0.266 M17.225 1.626 C 17.191 1.689,17.162 1.727,17.162 1.712 C 17.159 1.664,17.252 1.479,17.270 1.496 C 17.279 1.505,17.259 1.564,17.225 1.626 " stroke="none" fill="black" fill-rule="evenodd"></path></svg>