<svg role="img" xmlns="http://www.w3.org/2000/svg" viewBox="0 0 24 24"><path d="M6.528 3.845 C 5.405 3.937,4.068 4.270,2.948 4.735 C 2.411 4.958,1.800 5.275,1.800 5.330 C 1.800 5.358,1.395 8.709,0.901 12.778 C 0.406 16.846,0.011 20.184,0.022 20.196 C 0.065 20.238,1.105 20.117,1.550 20.017 C 2.102 19.893,2.395 19.791,3.117 19.472 C 4.094 19.040,5.098 18.738,6.100 18.573 C 6.445 18.516,6.760 18.500,7.560 18.501 C 8.471 18.502,8.625 18.512,9.000 18.593 C 10.101 18.833,10.914 19.243,11.819 20.015 L 12.000 20.170 12.181 20.015 C 13.075 19.252,13.910 18.830,14.982 18.599 C 15.487 18.490,16.738 18.448,17.408 18.517 C 18.469 18.626,19.808 18.989,20.789 19.433 C 21.460 19.736,21.927 19.901,22.448 20.017 C 22.895 20.117,23.935 20.238,23.977 20.196 C 23.989 20.185,23.593 16.847,23.099 12.778 C 22.605 8.709,22.201 5.358,22.200 5.330 C 22.200 5.223,20.935 4.655,20.100 4.386 C 17.229 3.461,14.153 3.664,12.208 4.906 L 11.996 5.041 11.814 4.916 C 11.504 4.702,10.683 4.333,10.180 4.181 C 9.115 3.858,7.818 3.739,6.528 3.845 M8.298 5.442 C 9.640 5.569,10.840 6.060,11.789 6.870 L 11.998 7.048 12.309 6.797 C 13.329 5.975,14.416 5.552,15.812 5.434 C 17.173 5.319,19.043 5.628,20.400 6.194 L 20.700 6.319 21.426 12.290 C 21.825 15.573,22.148 18.264,22.144 18.268 C 22.140 18.272,21.787 18.132,21.359 17.955 C 20.325 17.530,19.917 17.390,19.146 17.202 C 18.352 17.007,17.831 16.930,17.008 16.883 C 15.234 16.782,13.709 17.117,12.381 17.898 L 11.994 18.126 11.847 18.030 C 11.137 17.564,10.029 17.142,9.096 16.982 C 8.056 16.804,6.674 16.834,5.460 17.062 C 4.588 17.225,3.762 17.491,2.441 18.036 C 2.122 18.167,1.858 18.271,1.855 18.267 C 1.851 18.263,2.175 15.573,2.574 12.290 L 3.299 6.320 3.640 6.177 C 4.987 5.612,6.905 5.310,8.298 5.442 M6.352 5.902 C 5.544 6.010,4.669 6.226,3.995 6.485 C 3.701 6.598,3.689 6.607,3.667 6.751 C 3.578 7.331,2.355 17.568,2.372 17.585 C 2.384 17.597,2.616 17.518,2.887 17.408 C 5.808 16.224,8.744 16.128,11.047 17.139 C 11.259 17.233,11.561 17.383,11.717 17.473 L 12.000 17.636 12.283 17.473 C 13.409 16.823,14.940 16.440,16.407 16.440 C 16.793 16.440,16.840 16.432,16.840 16.370 C 16.840 16.252,16.244 6.439,16.217 6.124 L 16.192 5.828 15.806 5.852 C 14.514 5.933,13.310 6.442,12.344 7.315 L 11.988 7.637 11.662 7.329 C 10.939 6.644,10.065 6.195,8.988 5.954 C 8.500 5.845,7.000 5.815,6.352 5.902 " stroke="none" fill="black" fill-rule="evenodd"></path></svg>