<svg role="img" viewBox="0 0 24 24" xmlns="http://www.w3.org/2000/svg"><path d="M10.760 4.907 C 9.776 4.979,8.583 5.207,7.737 5.485 C 6.801 5.792,5.786 6.325,5.206 6.814 C 5.111 6.894,5.027 6.960,5.021 6.960 C 5.014 6.960,4.932 6.829,4.838 6.670 C 4.288 5.739,3.139 5.241,2.141 5.501 C 1.204 5.746,0.439 6.779,0.115 8.241 C -0.015 8.827,-0.016 9.786,0.114 10.260 C 0.467 11.555,1.423 12.453,2.829 12.812 L 3.172 12.900 3.265 13.251 C 3.475 14.041,3.888 14.889,4.388 15.558 C 4.705 15.982,5.312 16.573,5.760 16.895 C 6.257 17.252,7.159 17.690,8.080 18.020 C 8.487 18.166,9.083 18.384,9.404 18.505 C 10.641 18.968,11.240 19.100,12.100 19.100 C 12.993 19.099,13.406 19.001,14.700 18.481 C 14.986 18.366,15.526 18.164,15.900 18.032 C 16.743 17.734,17.337 17.472,17.813 17.186 C 19.240 16.329,20.337 14.853,20.778 13.197 L 20.848 12.934 21.094 12.884 C 21.700 12.759,22.374 12.401,22.874 11.937 C 23.370 11.478,23.707 10.920,23.885 10.260 C 24.014 9.783,24.015 8.822,23.886 8.243 C 23.671 7.274,23.256 6.474,22.713 5.984 C 22.288 5.598,21.876 5.440,21.300 5.440 C 20.431 5.440,19.610 5.912,19.162 6.670 L 18.991 6.960 18.746 6.766 C 17.431 5.731,15.688 5.130,13.400 4.922 C 12.985 4.884,11.209 4.874,10.760 4.907 M13.840 6.338 C 16.281 6.654,17.963 7.503,18.880 8.880 C 18.976 9.023,19.067 9.156,19.083 9.175 C 19.131 9.230,19.376 9.017,19.549 8.769 C 19.637 8.643,19.831 8.315,19.980 8.040 C 20.372 7.320,20.551 7.079,20.797 6.946 C 21.352 6.644,21.815 6.828,22.203 7.505 C 22.568 8.142,22.731 9.144,22.581 9.823 C 22.406 10.611,21.958 11.100,21.136 11.397 C 20.768 11.530,20.189 11.640,19.850 11.640 L 19.640 11.640 19.640 11.835 C 19.640 12.144,19.528 12.704,19.376 13.160 C 19.100 13.984,18.641 14.715,18.023 15.313 C 17.382 15.933,16.805 16.260,15.580 16.698 C 15.228 16.824,14.598 17.059,14.180 17.220 C 13.048 17.656,12.730 17.736,12.120 17.737 C 11.417 17.739,11.035 17.641,9.420 17.044 C 8.936 16.866,8.387 16.664,8.200 16.596 C 7.685 16.409,6.996 16.069,6.650 15.832 C 6.209 15.530,5.665 14.972,5.350 14.498 C 4.805 13.679,4.523 12.891,4.419 11.896 L 4.393 11.652 4.027 11.627 C 3.291 11.579,2.518 11.307,2.104 10.951 C 1.849 10.733,1.620 10.375,1.509 10.022 C 1.434 9.784,1.421 9.655,1.425 9.200 C 1.431 8.571,1.510 8.209,1.754 7.700 C 2.150 6.876,2.591 6.635,3.186 6.916 C 3.491 7.061,3.624 7.232,4.079 8.060 C 4.453 8.741,4.642 9.010,4.832 9.127 C 4.905 9.172,4.968 9.203,4.973 9.195 C 5.233 8.786,5.417 8.540,5.650 8.295 C 6.673 7.218,8.358 6.521,10.424 6.322 C 10.664 6.299,10.923 6.272,11.000 6.264 C 11.347 6.224,13.368 6.277,13.840 6.338 M7.633 8.598 C 6.932 8.727,6.464 8.973,5.958 9.478 C 5.630 9.805,5.549 9.914,5.390 10.240 C 5.129 10.774,5.066 11.042,5.066 11.620 C 5.066 12.197,5.129 12.468,5.386 12.990 C 5.517 13.258,5.647 13.445,5.854 13.667 C 6.817 14.700,8.209 14.955,9.480 14.331 C 9.804 14.172,9.916 14.088,10.242 13.762 C 10.569 13.435,10.651 13.325,10.810 13.000 C 11.070 12.467,11.134 12.198,11.135 11.620 C 11.136 10.734,10.877 10.114,10.242 9.478 C 9.814 9.051,9.448 8.830,8.919 8.681 C 8.584 8.587,7.926 8.544,7.633 8.598 M15.500 8.586 C 14.580 8.734,13.746 9.288,13.283 10.059 C 12.599 11.198,12.759 12.700,13.668 13.682 C 14.267 14.329,15.018 14.656,15.900 14.655 C 16.444 14.654,16.779 14.577,17.260 14.340 C 18.037 13.959,18.642 13.214,18.869 12.360 C 18.963 12.005,18.963 11.235,18.869 10.880 C 18.710 10.280,18.305 9.641,17.840 9.258 C 17.578 9.041,16.994 8.745,16.660 8.659 C 16.414 8.595,15.715 8.551,15.500 8.586 M9.136 10.416 C 9.422 10.556,9.731 10.893,9.826 11.170 C 10.053 11.829,9.761 12.547,9.144 12.843 C 8.826 12.996,8.551 13.026,8.254 12.941 C 7.847 12.825,7.539 12.569,7.370 12.206 C 7.268 11.986,7.205 11.547,7.258 11.413 C 7.284 11.343,7.288 11.343,7.342 11.417 C 7.501 11.632,7.838 11.705,8.084 11.578 C 8.460 11.384,8.447 10.766,8.063 10.584 C 7.989 10.549,7.904 10.519,7.874 10.518 C 7.802 10.516,8.020 10.399,8.220 10.333 C 8.467 10.252,8.875 10.289,9.136 10.416 M16.004 10.408 C 16.279 10.535,16.544 10.799,16.676 11.080 C 16.763 11.263,16.780 11.357,16.780 11.640 C 16.780 12.073,16.660 12.340,16.335 12.637 C 15.823 13.105,15.095 13.104,14.581 12.634 C 14.246 12.328,14.064 11.849,14.137 11.464 L 14.163 11.324 14.295 11.468 C 14.409 11.593,14.456 11.614,14.643 11.628 C 14.901 11.647,15.078 11.557,15.184 11.353 C 15.336 11.058,15.223 10.720,14.922 10.575 L 14.746 10.490 14.843 10.438 C 15.186 10.254,15.643 10.242,16.004 10.408 M11.374 14.960 C 11.236 15.016,11.160 15.161,11.160 15.371 C 11.160 15.522,11.181 15.585,11.258 15.662 C 11.312 15.716,11.395 15.760,11.443 15.760 C 11.535 15.760,11.534 15.777,11.460 15.399 C 11.434 15.267,11.441 15.254,11.564 15.199 C 11.721 15.129,11.746 15.072,11.659 14.985 C 11.588 14.914,11.506 14.907,11.374 14.960 M12.402 14.978 C 12.330 15.064,12.367 15.173,12.476 15.199 C 12.623 15.234,12.672 15.339,12.586 15.434 C 12.518 15.509,12.518 15.514,12.606 15.576 C 12.850 15.747,12.999 15.517,12.875 15.162 C 12.808 14.970,12.506 14.853,12.402 14.978 " stroke="none" fill="black" fill-rule="evenodd"></path></svg>