<svg role="img" xmlns="http://www.w3.org/2000/svg" viewBox="0 0 24 24"><path d="M2.409 0.067 C 2.337 0.102,2.238 0.187,2.189 0.256 L 2.100 0.380 2.100 12.000 L 2.100 23.620 2.189 23.745 C 2.387 24.022,1.533 24.000,12.000 24.000 C 22.467 24.000,21.613 24.022,21.811 23.745 L 21.900 23.620 21.911 16.160 C 21.918 12.057,21.912 8.639,21.899 8.565 C 21.878 8.451,21.222 7.772,17.747 4.275 C 15.477 1.989,13.563 0.093,13.494 0.060 C 13.384 0.008,12.681 0.000,7.954 0.001 C 3.049 0.002,2.528 0.008,2.409 0.067 M16.089 0.067 C 15.933 0.143,15.809 0.306,15.775 0.477 C 15.715 0.775,15.728 0.790,18.470 3.527 C 20.756 5.810,21.078 6.117,21.210 6.142 C 21.487 6.192,21.740 6.068,21.855 5.825 C 21.913 5.703,21.920 5.403,21.920 3.082 C 21.920 0.603,21.916 0.470,21.844 0.328 C 21.800 0.241,21.702 0.142,21.609 0.090 L 21.449 0.000 18.835 0.001 C 16.508 0.002,16.206 0.009,16.089 0.067 M16.869 5.068 L 20.718 8.940 20.719 15.870 L 20.720 22.800 11.980 22.800 L 3.240 22.800 3.240 12.000 L 3.240 1.200 8.130 1.198 L 13.020 1.196 16.869 5.068 " stroke="none" fill="black" fill-rule="evenodd"></path></svg>