<svg role="img" viewBox="0 0 24 24" xmlns="http://www.w3.org/2000/svg"><path d="M10.940 0.043 C 6.417 0.466,2.542 3.345,0.864 7.527 C -0.391 10.658,-0.269 14.192,1.200 17.220 C 3.954 22.896,10.627 25.480,16.473 23.136 C 17.975 22.533,19.310 21.652,20.462 20.501 C 21.624 19.341,22.504 18.027,23.098 16.566 C 25.466 10.746,23.010 4.121,17.440 1.303 C 16.189 0.670,14.977 0.294,13.560 0.100 C 13.004 0.024,11.492 -0.009,10.940 0.043 M13.613 0.977 C 15.175 1.231,16.523 1.721,17.803 2.499 C 20.109 3.902,21.873 6.185,22.661 8.787 C 23.271 10.799,23.279 13.092,22.682 15.127 C 21.621 18.747,18.718 21.641,15.094 22.694 C 13.408 23.184,11.480 23.258,9.742 22.899 C 5.745 22.074,2.440 19.010,1.307 15.080 C 0.731 13.083,0.730 10.886,1.306 8.906 C 2.166 5.947,4.266 3.431,7.031 2.050 C 8.227 1.452,9.363 1.110,10.718 0.937 C 11.291 0.865,13.070 0.889,13.613 0.977 M2.120 9.340 L 2.120 9.675 3.170 10.194 C 4.656 10.928,5.455 11.416,7.240 12.680 C 10.190 14.768,12.072 15.727,14.840 16.553 C 15.524 16.758,16.925 17.101,17.240 17.142 L 17.420 17.166 17.892 16.718 C 18.151 16.472,18.358 16.264,18.350 16.257 C 18.343 16.250,18.014 16.226,17.618 16.203 C 16.549 16.142,15.435 15.928,14.680 15.639 C 14.559 15.592,14.396 15.531,14.319 15.502 C 13.671 15.262,12.636 14.595,12.186 14.128 L 12.032 13.968 12.221 13.858 C 12.932 13.440,13.966 13.153,15.180 13.036 C 15.674 12.988,17.530 13.012,18.028 13.072 L 18.276 13.103 18.562 12.845 C 18.766 12.660,18.832 12.579,18.793 12.557 C 18.764 12.540,18.353 12.496,17.880 12.459 C 17.220 12.406,16.711 12.395,15.693 12.408 L 14.365 12.425 14.439 12.323 C 14.479 12.266,14.575 12.148,14.652 12.060 L 14.791 11.900 16.385 11.902 C 17.626 11.903,18.118 11.919,18.600 11.973 C 18.941 12.011,19.252 12.052,19.290 12.064 C 19.339 12.079,19.441 12.009,19.620 11.837 C 19.763 11.699,19.880 11.575,19.880 11.559 C 19.880 11.523,19.377 11.457,18.480 11.374 C 18.030 11.332,17.327 11.308,16.510 11.305 C 15.812 11.302,15.240 11.293,15.240 11.284 C 15.240 11.274,15.307 11.153,15.388 11.014 L 15.537 10.760 15.898 10.761 C 17.258 10.764,19.122 10.884,20.015 11.025 L 20.411 11.087 20.665 10.835 C 20.835 10.666,20.903 10.574,20.870 10.556 C 20.799 10.517,19.692 10.370,18.940 10.300 C 18.376 10.247,16.622 10.162,16.055 10.161 L 15.850 10.160 15.975 9.920 L 16.100 9.681 16.861 9.680 C 18.116 9.680,19.701 9.810,20.910 10.013 L 21.440 10.102 21.708 9.832 C 21.855 9.684,21.968 9.555,21.958 9.546 C 21.921 9.513,20.632 9.320,19.940 9.243 C 17.998 9.029,15.841 8.992,14.156 9.146 L 13.892 9.170 13.767 9.424 C 13.440 10.087,12.890 10.839,12.410 11.281 C 11.655 11.976,10.842 12.340,9.939 12.388 C 9.058 12.434,8.169 12.133,6.648 11.273 L 6.075 10.949 6.205 10.814 C 6.277 10.741,6.359 10.680,6.387 10.680 C 6.415 10.680,6.938 10.896,7.548 11.160 C 8.159 11.424,8.678 11.640,8.702 11.640 C 8.773 11.640,9.205 11.288,9.165 11.263 C 8.974 11.145,4.530 9.163,4.491 9.178 C 4.462 9.189,4.295 9.309,4.120 9.445 L 3.802 9.692 3.591 9.610 C 3.475 9.564,3.096 9.410,2.750 9.266 L 2.120 9.005 2.120 9.340 " stroke="none" fill="black" fill-rule="evenodd"></path></svg>