<svg role="img" viewBox="0 0 24 24" xmlns="http://www.w3.org/2000/svg"><path d="M11.360 0.056 C 11.018 0.184,6.299 2.366,6.228 2.429 C 6.011 2.622,5.940 3.046,6.080 3.319 C 6.203 3.561,6.404 3.692,6.681 3.712 C 6.908 3.729,6.944 3.716,7.887 3.288 C 10.331 2.178,11.796 1.505,11.973 1.409 C 12.423 1.165,12.516 0.550,12.153 0.212 C 11.943 0.015,11.632 -0.046,11.360 0.056 M16.840 0.475 C 16.116 0.790,6.370 5.336,6.276 5.403 C 6.216 5.446,6.129 5.558,6.083 5.653 C 5.922 5.987,6.012 6.363,6.307 6.588 C 6.436 6.687,6.487 6.700,6.737 6.699 C 7.019 6.698,7.027 6.695,8.460 6.024 C 10.189 5.216,14.429 3.246,16.260 2.401 C 16.986 2.065,17.641 1.743,17.716 1.685 C 17.994 1.466,18.082 1.078,17.924 0.768 C 17.831 0.585,17.740 0.501,17.550 0.422 C 17.336 0.332,17.134 0.347,16.840 0.475 M17.040 3.389 C 16.812 3.475,6.358 8.345,6.273 8.405 C 6.027 8.580,5.930 9.026,6.076 9.312 C 6.223 9.599,6.425 9.720,6.756 9.720 C 6.955 9.720,6.869 9.758,10.140 8.241 C 16.223 5.421,17.599 4.775,17.710 4.693 C 17.982 4.490,18.073 4.103,17.925 3.780 C 17.837 3.590,17.748 3.504,17.550 3.422 C 17.404 3.361,17.157 3.345,17.040 3.389 M17.017 6.396 C 16.488 6.625,6.352 11.350,6.273 11.406 C 6.027 11.579,5.930 12.026,6.076 12.312 C 6.224 12.599,6.425 12.720,6.759 12.720 C 6.927 12.720,7.212 12.599,8.946 11.795 C 10.043 11.286,11.183 10.757,11.480 10.620 C 13.791 9.552,17.267 7.935,17.478 7.829 C 17.820 7.658,17.967 7.473,17.991 7.183 C 18.028 6.746,17.735 6.400,17.308 6.373 C 17.193 6.366,17.063 6.377,17.017 6.396 M17.040 9.390 C 17.007 9.402,16.109 9.805,15.044 10.284 C 13.853 10.821,13.063 11.199,12.989 11.268 C 12.759 11.485,12.760 11.474,12.760 13.473 L 12.760 15.308 12.310 15.334 C 12.063 15.348,11.720 15.360,11.550 15.360 L 11.240 15.360 11.240 13.958 C 11.240 12.659,11.234 12.546,11.164 12.408 C 11.072 12.229,10.939 12.100,10.787 12.043 C 10.628 11.982,10.296 11.990,10.168 12.056 C 10.023 12.132,9.855 12.315,9.803 12.453 C 9.775 12.524,9.760 13.067,9.760 13.943 L 9.760 15.320 9.630 15.323 C 9.559 15.324,9.298 15.339,9.050 15.355 C 8.630 15.382,8.593 15.392,8.482 15.498 C 8.417 15.560,8.353 15.660,8.340 15.719 C 8.327 15.778,8.364 16.113,8.422 16.463 C 8.539 17.164,8.617 17.361,8.836 17.508 C 8.970 17.599,8.988 17.600,10.173 17.600 C 10.833 17.600,11.364 17.609,11.353 17.621 C 11.341 17.632,10.768 17.748,10.079 17.879 C 8.671 18.146,8.632 18.162,8.632 18.464 C 8.632 18.585,8.658 18.641,8.757 18.729 C 8.825 18.790,8.912 18.840,8.951 18.840 C 9.086 18.841,15.062 17.711,15.159 17.666 C 15.331 17.586,15.435 17.276,15.580 16.410 C 15.672 15.857,15.676 15.788,15.623 15.661 C 15.518 15.411,15.376 15.360,14.770 15.360 L 14.240 15.360 14.240 13.826 L 14.240 12.292 15.964 11.517 C 17.497 10.829,17.704 10.725,17.824 10.585 C 18.133 10.223,18.016 9.651,17.590 9.445 C 17.424 9.364,17.171 9.339,17.040 9.390 M11.860 19.323 C 10.232 19.628,8.855 19.901,8.800 19.930 C 8.672 19.998,8.596 20.218,8.649 20.369 C 8.701 20.519,8.826 20.600,9.004 20.600 C 9.198 20.600,15.101 19.493,15.206 19.437 C 15.250 19.413,15.312 19.332,15.344 19.257 C 15.393 19.138,15.393 19.102,15.344 18.983 C 15.275 18.818,15.175 18.759,14.973 18.764 C 14.889 18.766,13.488 19.018,11.860 19.323 M11.840 21.202 C 10.223 21.506,8.855 21.779,8.800 21.809 C 8.745 21.838,8.680 21.925,8.655 22.000 C 8.571 22.258,8.726 22.480,8.991 22.480 C 9.169 22.480,15.116 21.365,15.212 21.314 C 15.253 21.292,15.312 21.212,15.344 21.137 C 15.393 21.018,15.393 20.982,15.344 20.863 C 15.273 20.694,15.175 20.639,14.953 20.645 C 14.858 20.647,13.457 20.898,11.840 21.202 M11.960 22.879 C 10.695 23.093,9.628 23.282,9.589 23.299 C 9.477 23.347,9.389 23.551,9.417 23.699 C 9.445 23.848,9.535 23.942,9.682 23.979 C 9.767 24.000,14.174 23.289,14.409 23.217 C 14.510 23.185,14.640 23.004,14.640 22.893 C 14.640 22.735,14.532 22.572,14.395 22.524 C 14.325 22.500,14.266 22.482,14.264 22.484 C 14.262 22.486,13.225 22.664,11.960 22.879 " stroke="none" fill="black" fill-rule="evenodd"></path></svg>