<svg role="img" xmlns="http://www.w3.org/2000/svg" viewBox="0 0 24 24"><path d="M23.020 4.182 C 22.618 4.378,22.238 4.462,21.420 4.538 C 20.230 4.648,19.780 4.776,19.223 5.161 C 18.616 5.580,18.185 6.143,17.182 7.826 C 15.882 10.008,15.137 10.693,13.237 11.453 C 12.542 11.732,12.163 11.847,10.660 12.240 C 8.672 12.759,7.391 13.334,6.378 14.162 C 5.978 14.488,5.714 14.786,5.240 15.445 C 5.012 15.761,4.680 16.165,4.503 16.341 C 4.037 16.805,3.843 16.863,2.360 16.979 C 1.931 17.012,1.463 17.059,1.320 17.082 C 0.754 17.174,0.231 17.437,0.072 17.710 L 0.003 17.827 0.247 17.943 C 0.468 18.049,0.530 18.060,0.906 18.060 C 1.133 18.060,1.315 18.075,1.309 18.093 C 1.303 18.111,1.129 18.255,0.922 18.414 C 0.547 18.702,0.373 18.923,0.422 19.051 C 0.479 19.200,2.053 19.192,2.780 19.039 C 3.563 18.875,4.108 18.638,5.820 17.720 C 6.465 17.374,6.855 17.222,7.353 17.124 C 8.187 16.958,9.065 16.980,10.573 17.203 C 12.148 17.437,12.984 17.554,13.270 17.581 C 13.430 17.596,13.560 17.622,13.560 17.638 C 13.560 17.710,13.024 18.550,12.610 19.127 C 12.362 19.472,12.160 19.782,12.160 19.816 C 12.160 19.994,12.572 20.005,13.180 19.842 C 14.657 19.446,15.552 18.842,16.680 17.480 C 16.908 17.205,17.097 16.976,17.100 16.971 C 17.103 16.966,17.212 17.065,17.343 17.191 C 17.632 17.470,17.871 17.602,18.341 17.742 C 18.796 17.878,19.484 17.899,19.847 17.788 C 20.188 17.685,20.596 17.344,20.444 17.290 C 20.204 17.203,19.900 16.737,19.764 16.246 C 19.547 15.460,19.571 14.688,19.836 13.990 C 20.179 13.084,20.636 11.388,20.900 10.040 C 21.301 7.991,21.447 7.702,22.480 6.921 C 23.591 6.080,23.930 5.607,23.987 4.817 C 24.017 4.416,23.961 4.224,23.786 4.117 C 23.595 4.001,23.350 4.022,23.020 4.182 M22.960 4.608 C 23.045 4.788,23.187 4.877,23.476 4.932 L 23.728 4.980 23.705 5.151 C 23.637 5.645,23.245 6.102,22.360 6.720 C 22.063 6.928,21.675 7.242,21.498 7.419 C 21.224 7.692,21.145 7.804,20.972 8.160 C 20.621 8.882,20.294 9.792,19.755 11.540 C 19.377 12.765,19.220 13.198,18.959 13.740 C 18.662 14.358,18.314 14.845,17.804 15.360 C 17.373 15.795,17.347 15.815,17.321 15.720 C 17.306 15.665,17.319 15.512,17.349 15.381 C 17.379 15.249,17.398 15.096,17.390 15.041 C 17.380 14.960,17.351 14.998,17.241 15.240 C 16.962 15.858,16.465 16.793,16.220 17.160 C 15.421 18.359,14.395 19.104,13.080 19.440 C 12.899 19.486,12.742 19.515,12.730 19.504 C 12.719 19.492,12.800 19.361,12.911 19.212 C 13.874 17.912,14.437 16.545,14.544 15.250 C 14.588 14.725,14.493 14.801,14.109 15.600 C 13.904 16.028,13.810 16.178,13.659 16.316 L 13.469 16.492 13.065 16.466 C 12.842 16.453,12.453 16.414,12.200 16.381 C 10.454 16.152,8.926 16.139,7.820 16.343 C 6.902 16.512,6.258 16.776,5.340 17.361 C 4.021 18.202,3.742 18.361,3.243 18.557 C 2.498 18.851,2.332 18.883,1.450 18.908 C 0.699 18.930,0.680 18.928,0.680 18.850 C 0.680 18.794,0.776 18.707,1.000 18.560 C 1.379 18.311,1.610 18.072,1.592 17.947 C 1.581 17.864,1.557 17.859,1.040 17.839 C 0.540 17.819,0.320 17.772,0.320 17.686 C 0.320 17.622,0.506 17.482,0.720 17.384 C 1.003 17.254,1.520 17.174,2.420 17.121 C 3.565 17.053,3.933 16.997,4.234 16.843 C 4.451 16.732,4.806 16.336,5.220 15.739 C 5.741 14.989,5.987 14.698,6.385 14.360 C 7.468 13.440,8.694 12.897,10.980 12.327 C 13.138 11.788,14.388 11.258,15.350 10.472 C 15.999 9.942,16.515 9.261,17.506 7.628 C 18.162 6.548,18.414 6.193,18.800 5.800 C 19.159 5.435,19.511 5.190,19.919 5.019 C 20.467 4.790,20.746 4.741,21.862 4.683 C 22.373 4.657,22.540 4.633,22.682 4.568 C 22.910 4.464,22.890 4.461,22.960 4.608 M22.490 4.912 C 22.081 5.383,21.657 6.081,21.690 6.231 C 21.700 6.274,21.751 6.200,21.829 6.033 C 21.982 5.702,22.135 5.474,22.487 5.052 C 22.637 4.872,22.760 4.715,22.760 4.702 C 22.760 4.635,22.670 4.705,22.490 4.912 M22.633 5.023 C 22.316 5.435,22.121 5.766,22.039 6.031 C 21.947 6.330,21.949 6.320,21.998 6.320 C 22.020 6.320,22.057 6.244,22.082 6.150 C 22.153 5.880,22.347 5.525,22.606 5.188 C 22.738 5.017,22.839 4.856,22.830 4.831 C 22.822 4.807,22.733 4.893,22.633 5.023 M22.870 4.990 C 22.653 5.231,22.251 6.264,22.339 6.352 C 22.375 6.388,22.439 6.276,22.439 6.174 C 22.441 5.999,22.603 5.570,22.784 5.268 C 22.963 4.968,23.001 4.843,22.870 4.990 M22.880 5.280 C 22.814 5.412,22.732 5.622,22.700 5.748 C 22.631 6.011,22.619 6.418,22.680 6.380 C 22.702 6.366,22.720 6.285,22.720 6.200 C 22.720 5.951,22.799 5.642,22.942 5.330 C 23.102 4.981,23.052 4.940,22.880 5.280 M20.582 5.379 C 20.344 5.465,20.230 5.564,20.123 5.778 L 20.026 5.972 20.115 6.044 C 20.316 6.207,20.763 6.174,20.995 5.978 C 21.129 5.866,21.254 5.580,21.233 5.435 C 21.221 5.348,21.199 5.339,20.980 5.331 C 20.848 5.326,20.669 5.347,20.582 5.379 " stroke="none" fill="black" fill-rule="evenodd"></path></svg>