<svg role="img" viewBox="0 0 24 24" xmlns="http://www.w3.org/2000/svg"><path d="M16.160 11.983 C 16.160 18.571,16.169 23.960,16.179 23.960 C 16.190 23.960,17.567 22.870,19.239 21.537 L 22.280 19.115 22.280 11.223 L 22.280 3.331 19.750 1.957 C 18.358 1.201,16.982 0.453,16.690 0.294 L 16.160 0.007 16.160 11.983 M8.360 11.499 L 8.360 20.914 8.990 20.639 C 9.336 20.488,10.439 20.006,11.440 19.569 L 13.260 18.775 13.270 11.157 L 13.280 3.540 11.010 2.869 C 9.761 2.501,8.655 2.173,8.550 2.141 L 8.360 2.084 8.360 11.499 M1.720 11.400 C 1.720 15.140,1.726 18.200,1.733 18.200 C 1.751 18.200,5.358 17.246,5.447 17.218 C 5.517 17.196,5.520 16.957,5.520 11.198 L 5.520 5.202 5.430 5.180 C 5.271 5.143,1.871 4.600,1.794 4.600 C 1.722 4.600,1.720 4.803,1.720 11.400 " stroke="none" fill="black" fill-rule="evenodd"></path></svg>