<svg role="img" xmlns="http://www.w3.org/2000/svg" viewBox="0 0 24 24"><path d="M1.440 4.646 C 0.771 4.756,0.196 5.299,0.042 5.965 C -0.013 6.206,-0.013 17.794,0.042 18.035 C 0.198 18.713,0.781 19.249,1.480 19.359 C 1.840 19.415,22.160 19.415,22.520 19.359 C 23.213 19.250,23.761 18.751,23.946 18.060 C 23.989 17.897,23.999 16.766,23.999 12.000 C 23.999 7.234,23.989 6.103,23.946 5.940 C 23.758 5.240,23.225 4.755,22.520 4.642 C 22.188 4.589,1.761 4.593,1.440 4.646 M6.928 9.524 L 8.076 10.965 9.228 9.523 L 10.380 8.081 11.530 8.081 L 12.680 8.080 12.680 12.000 L 12.680 15.920 11.540 15.920 L 10.401 15.920 10.390 13.672 L 10.380 11.425 9.247 12.842 C 8.623 13.622,8.100 14.265,8.085 14.271 C 8.069 14.277,7.544 13.641,6.918 12.857 L 5.780 11.434 5.770 13.677 L 5.759 15.920 4.620 15.920 L 3.480 15.920 3.480 12.000 L 3.480 8.080 4.630 8.082 L 5.780 8.084 6.928 9.524 M18.920 10.040 L 18.920 12.000 20.060 12.000 C 20.687 12.000,21.200 12.010,21.200 12.021 C 21.200 12.042,20.667 12.667,18.634 15.028 L 17.767 16.035 16.046 14.028 L 14.326 12.020 15.463 12.009 L 16.600 11.999 16.600 10.039 L 16.600 8.080 17.760 8.080 L 18.920 8.080 18.920 10.040 " stroke="none" fill="black" fill-rule="evenodd"></path></svg>