<svg role="img" xmlns="http://www.w3.org/2000/svg" viewBox="0 0 24 24"><path d="M10.340 0.040 C 7.787 0.176,5.875 0.496,4.574 1.004 C 3.954 1.246,3.459 1.588,2.888 2.168 C 1.660 3.416,0.976 5.099,0.842 7.202 C 0.754 8.591,0.810 12.594,0.940 14.210 C 1.121 16.459,1.484 18.124,2.098 19.520 C 2.770 21.049,3.867 22.237,5.223 22.900 C 6.105 23.333,7.625 23.699,9.394 23.907 C 10.205 24.002,12.082 24.002,12.840 23.907 C 13.976 23.764,14.920 23.540,15.770 23.211 L 16.240 23.029 16.239 22.764 C 16.238 22.409,16.166 21.073,16.147 21.054 C 16.139 21.045,15.963 21.083,15.756 21.138 C 14.745 21.405,13.501 21.560,12.371 21.560 C 10.652 21.560,9.560 21.387,8.760 20.990 C 8.270 20.747,7.793 20.272,7.567 19.800 C 7.362 19.374,7.246 18.901,7.214 18.358 L 7.189 17.935 7.824 18.063 C 9.827 18.464,12.055 18.652,13.750 18.564 C 15.093 18.494,16.828 18.309,17.571 18.157 C 18.179 18.031,19.089 17.719,19.701 17.424 C 21.144 16.731,22.240 15.726,22.604 14.763 C 23.013 13.681,23.347 8.401,23.120 6.600 C 22.841 4.393,21.880 2.617,20.360 1.502 C 19.864 1.138,19.243 0.885,18.214 0.626 C 17.246 0.383,15.835 0.184,14.340 0.079 C 13.520 0.022,11.122 -0.001,10.340 0.040 M9.286 4.143 C 10.315 4.337,10.962 4.838,11.620 5.949 C 11.818 6.284,11.989 6.557,12.000 6.557 C 12.011 6.557,12.182 6.283,12.380 5.949 C 12.671 5.456,12.805 5.275,13.080 4.998 C 13.368 4.709,13.484 4.625,13.840 4.446 C 14.369 4.182,14.820 4.081,15.486 4.081 C 16.288 4.080,16.909 4.248,17.491 4.624 C 18.386 5.203,18.964 6.217,19.118 7.479 C 19.144 7.689,19.160 9.107,19.160 11.209 L 19.160 14.600 17.922 14.600 L 16.683 14.600 16.670 11.250 C 16.657 8.176,16.650 7.880,16.585 7.662 C 16.492 7.353,16.401 7.179,16.222 6.972 C 15.727 6.399,14.467 6.378,13.851 6.935 C 13.657 7.110,13.454 7.481,13.346 7.858 C 13.271 8.120,13.264 8.281,13.250 10.170 L 13.234 12.200 12.000 12.200 L 10.765 12.200 10.750 10.170 C 10.734 7.908,10.730 7.870,10.441 7.328 C 10.143 6.770,9.545 6.476,8.820 6.533 C 7.940 6.603,7.499 7.045,7.360 8.000 C 7.338 8.147,7.321 9.642,7.321 11.430 L 7.320 14.600 6.080 14.600 L 4.840 14.600 4.840 11.209 C 4.840 9.107,4.856 7.689,4.882 7.479 C 5.068 5.961,5.844 4.847,7.080 4.322 C 7.624 4.092,8.596 4.013,9.286 4.143 " stroke="none" fill="black" fill-rule="evenodd"></path></svg>