<svg xmlns="http://www.w3.org/2000/svg" role="img" viewBox="0 0 24 24"><path d="M15.540 1.419 C 15.474 1.449,15.362 1.495,15.290 1.521 C 14.995 1.631,14.462 2.337,14.222 2.938 C 14.084 3.284,13.643 3.945,12.863 4.975 C 12.531 5.413,12.191 5.872,12.107 5.995 C 12.023 6.119,11.897 6.280,11.827 6.354 C 11.696 6.492,10.889 7.124,10.543 7.359 C 10.281 7.537,9.746 7.760,9.580 7.760 C 9.417 7.760,8.868 8.035,8.639 8.230 C 8.395 8.439,7.394 9.581,7.287 9.774 C 7.236 9.865,7.152 9.985,7.100 10.040 L 7.007 10.140 8.100 10.940 C 8.701 11.380,9.210 11.740,9.230 11.740 C 9.279 11.740,10.451 10.383,11.081 9.596 C 12.362 7.995,13.301 6.401,13.941 4.740 C 14.135 4.237,14.166 4.200,14.099 4.551 C 13.585 7.248,11.917 10.513,9.885 12.800 C 8.926 13.879,7.149 15.580,5.882 16.632 C 5.830 16.676,5.848 16.681,6.000 16.668 C 6.624 16.615,7.297 16.888,7.798 17.397 C 8.301 17.909,8.668 18.602,9.230 20.100 C 9.362 20.452,9.592 21.010,9.740 21.340 C 9.888 21.670,10.069 22.093,10.141 22.280 C 10.214 22.467,10.298 22.625,10.329 22.631 C 10.426 22.652,11.127 22.404,11.540 22.203 C 11.951 22.003,12.284 21.778,12.696 21.423 C 12.998 21.163,15.130 18.860,15.678 18.202 C 16.226 17.545,16.979 16.790,17.381 16.494 C 18.177 15.910,18.969 15.706,19.720 15.895 C 20.308 16.042,21.215 16.641,22.067 17.447 C 23.129 18.450,23.885 19.088,23.944 19.030 C 23.953 19.020,23.826 18.731,23.661 18.386 C 22.859 16.708,22.251 15.228,20.933 11.740 C 20.149 9.666,20.075 9.458,19.721 8.340 C 19.060 6.247,18.506 4.746,18.099 3.940 C 17.776 3.300,17.056 2.219,16.710 1.855 C 16.284 1.407,15.892 1.261,15.540 1.419 M2.910 11.994 C 1.332 12.602,0.041 13.111,0.040 13.124 C 0.040 13.137,0.674 13.604,1.450 14.162 C 2.225 14.719,3.189 15.416,3.590 15.711 L 4.320 16.246 4.870 15.815 C 6.105 14.847,7.042 13.984,7.853 13.065 L 8.201 12.671 7.011 11.776 C 6.356 11.284,5.811 10.883,5.800 10.885 C 5.789 10.886,4.489 11.385,2.910 11.994 " stroke="none" fill="black" fill-rule="evenodd"></path></svg>