<svg role="img" viewBox="0 0 24 24" xmlns="http://www.w3.org/2000/svg"><path d="M6.000 8.365 C 2.733 10.344,0.060 11.980,0.060 12.000 C 0.060 12.038,11.940 19.240,12.002 19.240 C 12.022 19.240,14.392 17.815,17.269 16.074 C 20.146 14.332,22.824 12.712,23.220 12.474 C 23.616 12.235,23.940 12.022,23.940 12.001 C 23.940 11.953,12.059 4.759,11.989 4.763 C 11.962 4.765,9.267 6.386,6.000 8.365 M13.713 8.680 L 15.397 9.700 13.698 9.710 C 12.764 9.716,11.236 9.716,10.302 9.710 L 8.604 9.700 10.292 8.675 C 11.220 8.111,11.991 7.652,12.005 7.655 C 12.019 7.658,12.787 8.119,13.713 8.680 M8.282 11.502 C 8.441 11.977,8.585 12.350,8.602 12.332 C 8.618 12.315,8.748 11.931,8.890 11.480 L 9.149 10.660 9.554 10.649 L 9.960 10.637 9.960 11.919 L 9.960 13.200 9.706 13.200 L 9.452 13.200 9.426 12.750 C 9.412 12.502,9.399 12.111,9.398 11.880 C 9.396 11.640,9.382 11.494,9.364 11.540 C 9.347 11.584,9.211 11.976,9.062 12.412 L 8.789 13.204 8.568 13.192 L 8.347 13.180 8.044 12.312 L 7.740 11.445 7.729 12.322 L 7.718 13.200 7.459 13.200 L 7.200 13.200 7.200 11.920 L 7.200 10.640 7.596 10.640 L 7.992 10.640 8.282 11.502 M13.000 11.080 L 13.000 11.360 13.180 11.360 L 13.360 11.360 13.360 11.520 L 13.360 11.680 13.180 11.680 L 13.000 11.680 13.000 12.219 L 13.000 12.758 13.113 12.816 C 13.182 12.852,13.251 12.938,13.290 13.037 C 13.353 13.199,13.353 13.200,13.256 13.225 C 13.202 13.238,13.057 13.236,12.932 13.221 C 12.760 13.199,12.679 13.165,12.593 13.079 L 12.480 12.966 12.480 12.323 L 12.480 11.680 12.320 11.680 L 12.160 11.680 12.160 11.520 L 12.160 11.360 12.320 11.360 L 12.480 11.360 12.480 11.080 L 12.480 10.800 12.740 10.800 L 13.000 10.800 13.000 11.080 M6.271 12.440 L 6.260 12.879 5.560 12.460 C 5.175 12.230,4.860 12.022,4.860 12.000 C 4.860 11.978,5.175 11.770,5.560 11.540 L 6.260 11.121 6.271 11.560 C 6.278 11.802,6.278 12.198,6.271 12.440 M18.450 11.547 C 18.840 11.782,19.160 11.984,19.160 11.997 C 19.160 12.024,17.754 12.880,17.710 12.880 C 17.694 12.880,17.680 12.484,17.680 12.000 C 17.680 11.516,17.693 11.120,17.710 11.120 C 17.726 11.120,18.059 11.312,18.450 11.547 M11.588 11.413 C 11.834 11.542,12.040 11.931,12.040 12.266 L 12.040 12.400 11.380 12.400 C 10.741 12.400,10.720 12.403,10.720 12.482 C 10.720 12.841,11.202 13.006,11.478 12.742 C 11.564 12.659,11.624 12.640,11.792 12.640 C 11.906 12.640,12.000 12.654,12.000 12.672 C 12.000 12.690,11.946 12.790,11.879 12.895 C 11.578 13.370,10.739 13.381,10.400 12.914 C 10.048 12.427,10.197 11.677,10.700 11.409 C 10.945 11.278,11.335 11.280,11.588 11.413 M14.820 11.608 L 14.847 11.787 14.728 11.770 C 14.556 11.745,14.338 11.862,14.263 12.019 C 14.216 12.119,14.200 12.282,14.200 12.676 L 14.200 13.200 13.940 13.200 L 13.680 13.200 13.680 12.280 L 13.680 11.360 13.920 11.360 L 14.160 11.360 14.160 11.501 L 14.160 11.643 14.301 11.502 C 14.378 11.424,14.491 11.350,14.551 11.337 C 14.611 11.324,14.678 11.308,14.700 11.303 C 14.750 11.290,14.786 11.380,14.820 11.608 M16.360 11.415 C 16.832 11.649,16.985 12.397,16.660 12.887 C 16.384 13.305,15.608 13.370,15.226 13.008 C 15.023 12.815,14.944 12.613,14.943 12.280 C 14.943 12.023,14.959 11.950,15.059 11.767 C 15.302 11.325,15.867 11.172,16.360 11.415 M10.940 11.726 C 10.829 11.787,10.722 11.926,10.721 12.010 C 10.720 12.072,10.766 12.080,11.124 12.080 L 11.529 12.080 11.503 11.970 C 11.447 11.734,11.155 11.608,10.940 11.726 M15.680 11.729 C 15.458 11.845,15.364 12.329,15.506 12.628 C 15.640 12.910,16.031 12.956,16.214 12.711 C 16.373 12.495,16.343 11.945,16.162 11.781 C 16.062 11.691,15.806 11.664,15.680 11.729 M15.397 14.295 C 15.388 14.304,14.620 14.771,13.692 15.333 L 12.004 16.354 10.312 15.333 C 9.381 14.771,8.613 14.304,8.603 14.295 C 8.594 14.287,10.123 14.280,12.000 14.280 C 13.877 14.280,15.406 14.287,15.397 14.295 " stroke="none" fill="black" fill-rule="evenodd"></path></svg>