<svg role="img" xmlns="http://www.w3.org/2000/svg" viewBox="0 0 24 24"><path d="M9.260 0.216 C 6.978 1.023,5.391 1.796,4.869 2.355 C 4.674 2.563,4.651 2.638,4.721 2.822 C 4.743 2.881,5.213 3.372,5.766 3.914 C 6.318 4.456,6.886 5.044,7.028 5.220 C 7.714 6.071,8.068 6.961,8.169 8.093 C 8.294 9.502,7.902 10.838,6.940 12.280 C 6.101 13.539,5.061 14.646,3.219 16.243 C 2.147 17.173,1.762 17.586,1.398 18.198 C 1.187 18.555,1.078 18.881,1.052 19.244 C 1.012 19.780,1.185 20.257,1.607 20.783 C 2.662 22.093,4.904 23.098,7.897 23.600 C 9.282 23.833,11.136 24.024,11.699 23.993 L 11.938 23.980 12.148 23.580 C 12.834 22.271,13.535 20.556,13.903 19.287 C 14.132 18.496,14.257 17.875,14.378 16.915 C 14.614 15.053,14.613 13.527,14.378 11.915 L 14.351 11.731 14.632 11.645 C 16.967 10.936,20.895 10.005,22.600 9.756 C 22.787 9.729,22.946 9.702,22.954 9.696 C 22.982 9.674,22.374 8.822,22.072 8.461 C 20.326 6.368,17.457 5.114,12.597 4.318 L 11.813 4.189 11.488 3.585 C 10.808 2.320,10.377 1.351,10.102 0.470 C 10.020 0.208,9.934 0.001,9.908 0.002 C 9.881 0.003,9.590 0.100,9.260 0.216 M9.918 0.530 C 9.976 0.935,10.129 1.575,10.261 1.963 C 10.315 2.123,10.352 2.261,10.342 2.271 C 10.333 2.281,10.094 2.242,9.812 2.186 C 9.295 2.082,8.013 1.867,7.151 1.739 C 6.893 1.701,6.692 1.654,6.704 1.634 C 6.775 1.519,9.610 0.220,9.825 0.203 C 9.852 0.201,9.890 0.333,9.918 0.530 M6.910 1.979 C 7.648 2.183,9.280 2.479,10.233 2.581 L 10.487 2.609 9.873 2.939 C 9.536 3.121,9.111 3.359,8.929 3.469 C 8.610 3.661,8.590 3.668,8.411 3.634 C 8.249 3.604,8.174 3.550,7.842 3.229 C 7.632 3.026,7.219 2.628,6.924 2.345 C 6.629 2.062,6.422 1.841,6.464 1.853 C 6.506 1.866,6.706 1.922,6.910 1.979 M6.838 2.695 C 7.171 3.110,7.438 3.455,7.431 3.462 C 7.380 3.513,5.432 3.053,5.361 2.973 C 5.301 2.907,5.404 2.684,5.590 2.477 C 5.756 2.293,6.203 1.908,6.224 1.932 C 6.228 1.936,6.504 2.280,6.838 2.695 M10.909 3.441 C 11.109 3.830,11.218 4.080,11.186 4.080 C 11.105 4.080,9.347 3.802,9.285 3.779 C 9.254 3.767,9.430 3.626,9.705 3.442 C 9.966 3.268,10.261 3.053,10.360 2.965 C 10.459 2.876,10.549 2.803,10.560 2.803 C 10.571 2.802,10.728 3.089,10.909 3.441 M6.512 3.662 C 6.879 3.763,7.192 3.858,7.207 3.873 C 7.246 3.913,7.810 5.760,7.783 5.760 C 7.776 5.760,7.675 5.614,7.559 5.435 C 7.443 5.256,7.244 4.981,7.118 4.825 C 6.888 4.541,6.223 3.874,5.880 3.584 C 5.781 3.500,5.732 3.443,5.772 3.456 C 5.812 3.469,6.145 3.562,6.512 3.662 M8.007 4.018 C 8.256 4.071,8.865 4.190,9.360 4.282 C 9.855 4.373,10.265 4.453,10.271 4.458 C 10.277 4.464,10.095 4.580,9.865 4.715 C 9.359 5.014,8.730 5.480,8.462 5.756 C 8.352 5.868,8.249 5.960,8.233 5.960 C 8.216 5.960,8.155 5.803,8.097 5.610 C 7.972 5.200,7.737 4.572,7.565 4.190 C 7.476 3.993,7.458 3.920,7.498 3.920 C 7.529 3.920,7.758 3.964,8.007 4.018 M10.685 4.764 C 10.809 5.172,10.885 5.760,10.888 6.327 C 10.889 6.633,10.883 6.890,10.874 6.899 C 10.861 6.913,10.011 6.671,8.824 6.317 L 8.548 6.234 8.804 5.974 C 9.230 5.541,10.499 4.512,10.579 4.535 C 10.601 4.541,10.648 4.644,10.685 4.764 M11.700 4.681 C 12.905 4.894,14.280 5.169,14.280 5.195 C 14.280 5.209,13.997 5.355,13.652 5.520 C 12.891 5.882,12.320 6.197,11.757 6.564 C 11.524 6.716,11.324 6.840,11.313 6.840 C 11.301 6.840,11.282 6.638,11.269 6.390 C 11.242 5.866,11.161 5.437,10.997 4.955 C 10.933 4.766,10.880 4.599,10.880 4.585 C 10.880 4.542,10.997 4.556,11.700 4.681 M14.706 5.390 C 14.696 5.429,14.658 5.595,14.623 5.760 C 14.588 5.926,14.462 6.299,14.344 6.589 C 14.130 7.116,13.611 8.120,13.552 8.120 C 13.535 8.120,13.348 8.022,13.136 7.903 C 12.924 7.783,12.514 7.582,12.225 7.456 C 11.936 7.330,11.686 7.215,11.669 7.200 C 11.638 7.174,12.804 6.390,13.440 6.011 C 13.923 5.722,14.652 5.320,14.692 5.320 C 14.710 5.320,14.717 5.351,14.706 5.390 M15.743 5.557 C 16.817 5.869,18.563 6.507,18.688 6.632 C 18.705 6.649,18.472 6.723,18.170 6.796 C 16.981 7.085,15.737 7.470,14.709 7.869 C 14.450 7.970,14.230 8.043,14.219 8.033 C 14.209 8.022,14.270 7.853,14.355 7.657 C 14.645 6.989,14.869 6.199,14.942 5.590 C 14.958 5.451,14.988 5.360,15.018 5.360 C 15.045 5.360,15.371 5.449,15.743 5.557 M8.933 6.983 C 9.356 7.090,10.288 7.382,10.410 7.446 C 10.469 7.477,10.410 7.544,10.030 7.871 C 9.783 8.084,9.409 8.420,9.200 8.618 C 8.991 8.815,8.745 9.047,8.654 9.133 L 8.489 9.288 8.510 8.694 C 8.528 8.171,8.484 7.395,8.415 7.010 C 8.385 6.848,8.396 6.847,8.933 6.983 M18.944 6.993 C 18.825 7.223,18.228 8.018,17.206 9.311 L 16.152 10.642 15.850 10.231 C 15.561 9.837,14.858 9.097,14.480 8.788 L 14.300 8.641 14.388 8.566 C 14.651 8.340,17.106 7.418,18.600 6.983 C 19.027 6.859,19.013 6.859,18.944 6.993 M19.719 7.181 C 20.552 7.674,21.272 8.235,22.038 8.989 C 22.333 9.280,22.567 9.526,22.557 9.536 C 22.547 9.546,22.314 9.574,22.040 9.599 C 20.571 9.732,18.683 10.046,17.086 10.422 C 16.859 10.476,16.663 10.520,16.650 10.520 C 16.638 10.520,16.896 10.245,17.225 9.910 C 18.112 9.006,18.566 8.385,19.057 7.405 C 19.180 7.160,19.295 6.960,19.312 6.960 C 19.330 6.960,19.513 7.060,19.719 7.181 M11.852 8.074 C 12.165 8.224,12.534 8.411,12.673 8.489 L 12.926 8.630 12.225 8.994 C 11.839 9.195,11.267 9.511,10.953 9.697 C 10.639 9.884,10.377 10.031,10.371 10.024 C 10.365 10.018,10.457 9.807,10.576 9.556 C 10.824 9.032,10.998 8.554,11.102 8.110 C 11.149 7.909,11.194 7.800,11.230 7.800 C 11.260 7.800,11.540 7.923,11.852 8.074 M10.601 8.343 C 10.449 8.854,10.164 9.537,9.910 10.002 C 9.608 10.554,9.651 10.533,9.355 10.264 C 9.215 10.137,8.976 9.959,8.824 9.868 L 8.547 9.703 8.784 9.487 C 9.457 8.870,10.676 7.863,10.709 7.896 C 10.720 7.906,10.671 8.107,10.601 8.343 M14.300 9.512 C 14.878 9.929,15.790 10.703,15.750 10.744 C 15.743 10.751,15.387 10.857,14.959 10.979 C 13.608 11.366,11.739 11.977,10.791 12.341 C 10.753 12.356,11.087 12.001,11.533 11.554 C 12.344 10.740,12.968 10.008,13.386 9.379 L 13.609 9.045 13.774 9.149 C 13.866 9.206,14.102 9.370,14.300 9.512 M12.772 9.362 C 12.561 9.719,11.061 11.645,10.405 12.400 L 10.283 12.540 10.281 12.320 C 10.278 12.009,10.187 11.615,10.025 11.212 C 9.896 10.892,9.891 10.861,9.953 10.815 C 10.150 10.668,12.754 9.245,12.832 9.241 C 12.839 9.240,12.812 9.295,12.772 9.362 M8.553 10.517 C 8.700 10.604,8.877 10.725,8.948 10.787 L 9.075 10.900 8.234 11.532 C 7.771 11.880,7.407 12.141,7.424 12.112 C 7.441 12.084,7.518 11.962,7.595 11.841 C 7.771 11.563,8.043 10.979,8.158 10.630 C 8.207 10.482,8.255 10.360,8.266 10.360 C 8.277 10.360,8.406 10.431,8.553 10.517 M9.699 11.620 C 9.837 11.850,10.040 12.407,10.040 12.555 C 10.040 12.609,9.859 12.697,9.250 12.938 C 8.390 13.279,7.449 13.681,6.820 13.977 C 6.600 14.081,6.438 14.149,6.460 14.129 C 6.482 14.109,6.652 13.978,6.838 13.839 C 7.682 13.204,8.562 12.392,9.170 11.688 C 9.347 11.483,9.505 11.330,9.523 11.348 C 9.540 11.365,9.620 11.488,9.699 11.620 M8.688 11.750 C 7.875 12.665,6.759 13.602,5.840 14.140 C 5.807 14.159,5.916 14.023,6.082 13.837 C 6.248 13.652,6.514 13.343,6.673 13.151 C 6.974 12.787,7.164 12.638,8.313 11.856 C 8.614 11.652,8.875 11.483,8.894 11.482 C 8.913 11.481,8.820 11.602,8.688 11.750 M13.815 11.990 C 13.860 12.140,13.963 13.398,13.952 13.650 L 13.940 13.917 13.356 13.563 C 13.035 13.369,12.549 13.060,12.276 12.877 L 11.780 12.543 12.720 12.235 C 13.237 12.065,13.690 11.925,13.727 11.923 C 13.764 11.921,13.804 11.952,13.815 11.990 M12.033 13.054 C 12.788 13.503,13.492 13.894,13.739 14.000 C 13.839 14.042,13.920 14.092,13.920 14.111 C 13.920 14.165,13.232 14.601,12.626 14.931 C 12.011 15.267,10.924 15.778,10.892 15.746 C 10.881 15.734,10.918 15.530,10.975 15.293 C 11.150 14.561,11.244 13.925,11.266 13.340 C 11.288 12.732,11.296 12.680,11.361 12.680 C 11.385 12.680,11.687 12.848,12.033 13.054 M10.827 13.470 C 10.801 14.059,10.708 14.619,10.523 15.301 C 10.391 15.789,10.407 15.784,10.058 15.440 C 9.635 15.023,9.271 14.530,9.038 14.061 C 8.871 13.724,8.850 13.657,8.902 13.628 C 8.990 13.579,10.773 12.884,10.816 12.882 C 10.837 12.881,10.842 13.125,10.827 13.470 M8.595 14.095 C 8.813 14.592,9.160 15.080,9.659 15.594 C 9.915 15.857,10.108 16.082,10.089 16.094 C 9.905 16.208,6.732 17.306,6.695 17.268 C 6.683 17.256,6.753 17.114,6.850 16.953 C 7.273 16.256,7.830 15.114,8.164 14.262 C 8.303 13.908,8.367 13.803,8.443 13.801 C 8.455 13.800,8.524 13.933,8.595 14.095 M7.680 14.185 C 7.680 14.198,7.517 14.527,7.319 14.916 C 6.883 15.769,5.991 17.260,5.918 17.260 C 5.859 17.260,5.710 16.915,5.617 16.566 C 5.514 16.177,5.548 15.196,5.669 15.075 C 5.718 15.026,7.568 14.165,7.630 14.162 C 7.657 14.161,7.680 14.171,7.680 14.185 M13.983 14.970 C 13.947 15.791,13.788 17.414,13.738 17.473 C 13.709 17.507,12.809 17.168,12.360 16.954 C 11.878 16.725,11.060 16.264,11.020 16.200 C 11.009 16.183,11.149 16.092,11.330 15.998 C 12.145 15.575,13.314 14.862,13.795 14.495 C 13.892 14.421,13.980 14.360,13.991 14.360 C 14.002 14.360,13.998 14.635,13.983 14.970 M4.950 15.690 C 4.870 16.238,4.982 16.888,5.245 17.409 C 5.308 17.535,5.360 17.654,5.360 17.673 C 5.360 17.692,5.104 17.784,4.790 17.878 C 3.675 18.210,1.745 18.758,1.733 18.746 C 1.701 18.714,1.854 18.250,1.976 18.010 C 2.297 17.377,2.974 16.608,3.540 16.234 C 3.809 16.056,4.913 15.440,4.963 15.440 C 4.976 15.440,4.970 15.553,4.950 15.690 M11.166 16.696 C 11.760 17.004,12.418 17.267,13.086 17.463 C 13.358 17.542,13.607 17.616,13.640 17.627 C 13.713 17.651,13.491 17.768,12.822 18.060 C 11.684 18.556,9.386 19.451,9.369 19.404 C 9.363 19.388,9.546 18.989,9.776 18.517 C 10.005 18.046,10.297 17.386,10.425 17.050 C 10.552 16.715,10.660 16.440,10.664 16.440 C 10.668 16.440,10.894 16.555,11.166 16.696 M10.040 16.678 C 10.040 16.807,9.321 18.287,8.831 19.169 L 8.503 19.758 8.322 19.653 C 8.018 19.479,7.399 19.025,7.060 18.729 C 6.695 18.410,6.301 17.962,6.348 17.919 C 6.366 17.903,6.647 17.815,6.974 17.723 C 7.749 17.504,8.678 17.183,9.400 16.886 C 10.034 16.625,10.040 16.623,10.040 16.678 M13.525 18.489 C 13.401 18.996,13.050 20.203,12.852 20.800 L 12.740 21.140 12.540 21.131 C 12.265 21.120,11.156 20.840,10.490 20.615 C 9.863 20.403,9.140 20.104,9.140 20.056 C 9.140 20.039,9.455 19.883,9.840 19.711 C 11.020 19.184,12.308 18.574,12.980 18.226 C 13.408 18.003,13.624 17.911,13.633 17.945 C 13.640 17.974,13.591 18.218,13.525 18.489 M5.298 18.270 C 5.259 18.331,4.864 18.893,4.420 19.520 C 3.977 20.147,3.527 20.791,3.421 20.950 C 3.315 21.109,3.211 21.240,3.189 21.240 C 3.120 21.240,2.439 20.550,2.261 20.300 C 1.938 19.847,1.651 19.133,1.752 19.032 C 1.785 18.999,5.163 18.176,5.315 18.164 C 5.356 18.161,5.352 18.186,5.298 18.270 M6.060 18.570 C 6.380 18.928,6.840 19.313,7.350 19.650 C 7.619 19.828,7.835 19.979,7.828 19.985 C 7.806 20.008,5.599 20.792,3.793 21.420 C 3.571 21.498,3.514 21.505,3.456 21.462 C 3.392 21.415,3.407 21.382,3.635 21.066 C 4.068 20.467,5.786 18.360,5.842 18.360 C 5.859 18.360,5.957 18.454,6.060 18.570 M9.317 20.602 C 10.175 20.902,11.352 21.176,12.140 21.259 C 12.599 21.307,12.610 21.319,12.300 21.427 C 11.542 21.691,7.096 23.000,6.957 23.000 C 6.915 23.000,6.880 22.983,6.880 22.962 C 6.880 22.942,7.065 22.694,7.292 22.412 C 7.719 21.880,8.740 20.462,8.740 20.401 C 8.740 20.400,9.000 20.491,9.317 20.602 M7.995 20.590 C 7.945 20.672,7.677 21.100,7.399 21.540 C 7.122 21.980,6.825 22.457,6.739 22.600 C 6.653 22.743,6.578 22.867,6.572 22.876 C 6.537 22.927,5.153 22.420,4.629 22.164 C 4.081 21.898,3.735 21.677,3.806 21.639 C 3.835 21.623,4.616 21.402,5.540 21.146 C 6.464 20.891,7.391 20.630,7.600 20.565 C 8.103 20.409,8.105 20.409,7.995 20.590 M12.406 22.142 C 11.965 23.392,11.795 23.800,11.715 23.800 C 11.392 23.800,7.557 23.170,7.493 23.106 C 7.484 23.098,7.653 23.051,7.869 23.002 C 9.753 22.577,10.856 22.243,11.960 21.765 C 12.320 21.609,12.585 21.515,12.591 21.541 C 12.598 21.565,12.514 21.835,12.406 22.142 " stroke="none" fill="black" fill-rule="evenodd"></path></svg>