<svg role="img" viewBox="0 0 24 24" xmlns="http://www.w3.org/2000/svg"><path d="M11.580 0.479 C 11.477 0.530,10.509 1.471,8.856 3.129 C 5.985 6.007,6.162 5.792,6.213 6.342 L 6.237 6.600 3.503 6.600 L 0.769 6.600 0.555 6.712 C 0.313 6.838,0.103 7.086,0.041 7.318 C 0.013 7.421,0.003 9.226,0.010 12.846 C 0.021 18.870,-0.006 18.340,0.313 18.660 C 0.611 18.959,0.384 18.939,3.509 18.951 L 6.319 18.962 6.343 19.071 C 6.553 20.026,6.982 20.874,7.630 21.615 C 8.435 22.535,9.634 23.233,10.881 23.505 C 11.360 23.610,12.635 23.611,13.115 23.508 C 14.955 23.111,16.377 22.011,17.213 20.338 C 17.505 19.752,17.760 18.829,17.760 18.356 L 17.760 18.202 20.510 18.191 C 23.103 18.181,23.268 18.176,23.400 18.106 C 23.595 18.002,23.792 17.809,23.894 17.620 L 23.980 17.460 23.991 12.467 C 23.998 9.095,23.988 7.423,23.960 7.318 C 23.895 7.079,23.687 6.834,23.443 6.710 L 23.226 6.600 20.494 6.600 L 17.763 6.600 17.787 6.342 C 17.838 5.792,18.015 6.007,15.144 3.129 C 13.430 1.410,12.526 0.532,12.417 0.479 C 12.196 0.372,11.797 0.372,11.580 0.479 M14.030 4.170 L 16.040 6.180 14.223 7.997 L 12.405 9.814 12.393 8.577 C 12.381 7.390,12.376 7.333,12.292 7.175 C 12.175 6.956,11.979 6.765,11.781 6.675 C 11.634 6.608,11.482 6.602,10.001 6.601 L 8.383 6.600 8.171 6.391 L 7.959 6.182 9.969 4.171 C 11.075 3.065,11.989 2.160,12.000 2.160 C 12.011 2.160,12.925 3.065,14.030 4.170 M22.440 12.380 L 22.440 16.640 20.059 16.640 C 18.188 16.640,17.674 16.629,17.663 16.590 C 17.473 15.913,17.395 15.689,17.217 15.320 C 16.701 14.251,15.864 13.334,14.874 12.757 C 14.238 12.385,13.380 12.104,12.732 12.054 C 12.508 12.037,12.400 12.013,12.408 11.982 C 12.415 11.956,12.573 11.804,12.760 11.643 C 12.947 11.482,13.820 10.624,14.700 9.738 L 16.300 8.126 19.370 8.123 L 22.440 8.120 22.440 12.380 M4.221 8.761 C 4.235 8.784,4.677 10.085,5.204 11.651 C 5.731 13.218,6.172 14.527,6.185 14.560 C 6.197 14.593,6.338 14.224,6.499 13.740 C 6.659 13.256,7.051 12.113,7.371 11.200 C 7.691 10.287,8.015 9.360,8.091 9.140 L 8.230 8.740 9.234 8.729 L 10.239 8.719 10.138 8.989 C 10.083 9.138,9.392 10.961,8.603 13.040 L 7.168 16.820 6.175 16.820 L 5.182 16.820 3.672 12.780 C 2.841 10.558,2.161 8.736,2.161 8.730 C 2.160 8.725,2.618 8.720,3.178 8.720 C 3.836 8.720,4.204 8.735,4.221 8.761 M13.192 13.721 C 14.543 14.090,15.650 15.224,16.107 16.704 C 16.209 17.037,16.216 17.108,16.217 17.800 C 16.218 18.570,16.193 18.740,15.998 19.270 C 15.613 20.319,14.826 21.170,13.789 21.660 C 12.586 22.229,11.184 22.193,10.017 21.563 C 9.404 21.233,8.882 20.756,8.492 20.170 C 8.297 19.877,8.031 19.333,7.943 19.050 L 7.915 18.960 9.747 18.960 L 11.580 18.959 11.780 18.865 C 12.016 18.753,12.208 18.562,12.308 18.340 C 12.374 18.193,12.381 17.994,12.392 15.877 L 12.403 13.574 12.652 13.607 C 12.788 13.626,13.031 13.677,13.192 13.721 " stroke="none" fill="black" fill-rule="evenodd"></path></svg>