<svg role="img" viewBox="0 0 24 24" xmlns="http://www.w3.org/2000/svg"><path d="M0.000 5.700 L 0.000 11.400 5.700 11.400 L 11.400 11.400 11.400 5.700 L 11.400 0.000 5.700 0.000 L 0.000 0.000 0.000 5.700 M12.600 5.700 L 12.600 11.400 18.300 11.400 L 24.000 11.400 24.000 5.700 L 24.000 0.000 18.300 0.000 L 12.600 0.000 12.600 5.700 M0.000 18.300 L 0.000 24.000 5.700 24.000 L 11.400 24.000 11.400 18.300 L 11.400 12.600 5.700 12.600 L 0.000 12.600 0.000 18.300 M12.600 18.300 L 12.600 24.000 18.300 24.000 L 24.000 24.000 24.000 18.300 L 24.000 12.600 18.300 12.600 L 12.600 12.600 12.600 18.300 " stroke="none" fill="black" fill-rule="evenodd"></path></svg>