<svg role="img" xmlns="http://www.w3.org/2000/svg" viewBox="0 0 24 24"><path d="M12.162 1.585 C 9.900 1.892,7.923 2.837,6.262 4.404 C 5.879 4.765,5.258 5.471,5.036 5.796 L 4.900 5.996 2.800 6.008 L 0.700 6.020 0.511 6.131 C 0.298 6.256,0.136 6.449,0.057 6.670 C -0.022 6.892,-0.022 17.108,0.057 17.330 C 0.136 17.551,0.298 17.744,0.511 17.869 L 0.700 17.980 2.800 17.992 L 4.900 18.004 5.036 18.204 C 5.258 18.529,5.879 19.235,6.262 19.596 C 7.867 21.111,9.707 22.015,11.940 22.387 C 12.571 22.492,14.418 22.491,15.080 22.386 C 19.063 21.753,22.288 18.984,23.516 15.141 C 23.851 14.094,23.978 13.233,23.978 12.000 C 23.978 11.505,23.955 10.929,23.927 10.720 C 23.675 8.815,22.976 7.123,21.805 5.580 C 21.439 5.097,20.469 4.115,20.000 3.753 C 18.443 2.550,16.705 1.823,14.806 1.583 C 14.184 1.504,12.751 1.505,12.162 1.585 M12.760 7.880 L 12.760 12.720 17.598 12.720 C 20.258 12.720,22.442 12.733,22.451 12.750 C 22.481 12.806,22.359 13.618,22.254 14.060 C 21.630 16.685,19.904 18.852,17.477 20.057 C 14.054 21.756,10.034 21.119,7.217 18.430 L 6.788 18.020 9.044 18.000 L 11.300 17.980 11.489 17.869 C 11.702 17.744,11.864 17.551,11.943 17.330 C 12.022 17.108,12.022 6.892,11.943 6.670 C 11.864 6.449,11.702 6.256,11.489 6.131 L 11.300 6.020 9.044 6.000 L 6.788 5.980 7.224 5.564 C 8.463 4.380,9.845 3.621,11.453 3.239 C 11.803 3.156,12.440 3.053,12.650 3.044 L 12.760 3.040 12.760 7.880 M15.260 3.187 C 17.091 3.537,18.980 4.614,20.190 5.998 C 21.403 7.385,22.193 9.073,22.398 10.720 C 22.424 10.929,22.451 11.132,22.459 11.170 C 22.472 11.236,22.255 11.240,18.356 11.240 L 14.240 11.240 14.240 7.136 L 14.240 3.032 14.490 3.060 C 14.627 3.075,14.974 3.132,15.260 3.187 M7.159 8.191 C 7.914 8.407,8.457 8.824,8.730 9.400 C 8.916 9.790,8.976 10.085,8.975 10.600 C 8.974 11.313,8.781 11.778,8.277 12.286 C 8.022 12.542,7.904 12.626,7.556 12.795 C 6.930 13.100,6.631 13.159,5.570 13.188 L 4.680 13.212 4.680 14.566 L 4.680 15.920 3.760 15.920 L 2.840 15.920 2.840 11.998 L 2.840 8.075 4.850 8.091 C 6.757 8.105,6.875 8.110,7.159 8.191 M4.680 10.581 L 4.680 11.568 5.470 11.550 C 6.341 11.530,6.506 11.495,6.773 11.275 C 6.993 11.094,7.056 10.947,7.053 10.620 C 7.050 10.153,6.888 9.885,6.505 9.714 C 6.317 9.630,6.231 9.621,5.490 9.607 L 4.680 9.593 4.680 10.581 " stroke="none" fill="black" fill-rule="evenodd"></path></svg>