<svg role="img" viewBox="0 0 24 24" xmlns="http://www.w3.org/2000/svg"><path d="M5.826 5.222 C 3.322 5.615,1.214 7.368,0.386 9.747 C -0.706 12.886,0.602 16.321,3.526 17.988 C 4.215 18.381,5.186 18.699,6.000 18.798 C 6.276 18.832,7.976 18.841,12.240 18.831 L 18.100 18.817 18.500 18.726 C 19.958 18.395,21.091 17.765,22.084 16.732 C 23.150 15.625,23.788 14.257,23.957 12.712 C 24.175 10.726,23.480 8.706,22.084 7.266 C 21.076 6.226,19.920 5.585,18.486 5.269 C 18.103 5.185,18.054 5.184,12.140 5.175 C 7.221 5.168,6.118 5.176,5.826 5.222 M18.000 7.970 C 18.870 8.190,19.509 8.551,20.083 9.146 C 20.590 9.672,20.889 10.183,21.106 10.900 C 21.208 11.236,21.215 11.309,21.215 12.000 C 21.215 12.691,21.208 12.764,21.106 13.100 C 20.889 13.817,20.590 14.328,20.083 14.854 C 19.414 15.548,18.586 15.963,17.640 16.078 C 17.363 16.112,15.766 16.121,11.760 16.110 C 6.823 16.097,6.233 16.089,6.000 16.030 C 5.124 15.809,4.488 15.446,3.897 14.834 C 3.410 14.328,3.109 13.809,2.893 13.100 C 2.791 12.763,2.784 12.693,2.784 12.000 C 2.784 11.307,2.791 11.237,2.893 10.900 C 3.109 10.191,3.410 9.672,3.897 9.166 C 4.598 8.439,5.422 8.034,6.460 7.906 C 6.526 7.897,9.091 7.894,12.160 7.898 C 17.184 7.904,17.766 7.911,18.000 7.970 M6.602 10.644 C 6.169 10.728,5.832 10.989,5.612 11.409 C 5.512 11.597,5.500 11.661,5.501 12.000 C 5.501 12.317,5.517 12.411,5.594 12.569 C 5.881 13.149,6.502 13.476,7.095 13.361 C 7.569 13.268,7.909 13.003,8.115 12.565 C 8.203 12.377,8.220 12.284,8.220 12.000 C 8.220 11.711,8.203 11.624,8.108 11.420 C 7.844 10.857,7.202 10.526,6.602 10.644 M16.789 10.641 C 16.355 10.715,15.959 11.021,15.768 11.432 C 15.679 11.622,15.662 11.716,15.662 12.000 C 15.662 12.412,15.776 12.698,16.048 12.970 C 16.718 13.640,17.852 13.454,18.269 12.606 C 18.367 12.407,18.380 12.334,18.380 12.000 C 18.380 11.659,18.368 11.596,18.263 11.388 C 18.134 11.134,17.894 10.890,17.653 10.766 C 17.522 10.700,17.077 10.589,17.003 10.605 C 16.990 10.607,16.894 10.624,16.789 10.641 " stroke="none" fill="black" fill-rule="evenodd"></path></svg>