<svg role="img" xmlns="http://www.w3.org/2000/svg" viewBox="0 0 24 24"><path d="M10.580 0.028 C 10.492 0.036,10.226 0.078,9.990 0.122 C 8.611 0.379,7.238 1.145,6.283 2.189 C 5.423 3.129,4.804 4.370,4.605 5.555 L 4.533 5.980 2.617 6.000 L 0.700 6.020 0.511 6.131 C 0.298 6.256,0.136 6.449,0.057 6.670 C -0.022 6.892,-0.022 17.108,0.057 17.330 C 0.136 17.551,0.298 17.744,0.511 17.869 L 0.700 17.980 3.361 17.991 L 6.021 18.002 6.023 18.731 C 6.024 19.275,6.043 19.541,6.095 19.780 C 6.327 20.828,6.796 21.683,7.556 22.444 C 8.044 22.931,8.428 23.203,9.056 23.502 C 11.072 24.466,13.506 23.996,15.072 22.341 C 15.765 21.610,16.233 20.684,16.419 19.683 C 16.453 19.497,16.488 19.338,16.497 19.329 C 16.506 19.321,16.663 19.346,16.847 19.387 C 17.326 19.492,18.713 19.491,19.199 19.385 C 21.561 18.869,23.380 17.038,23.886 14.668 C 24.003 14.121,24.014 12.964,23.908 12.420 C 23.744 11.581,23.372 10.705,22.895 10.031 C 22.547 9.541,21.893 8.907,21.386 8.568 C 20.434 7.931,19.459 7.590,18.433 7.534 L 17.966 7.508 17.988 7.004 C 18.050 5.589,17.655 4.210,16.835 2.976 C 16.436 2.374,15.626 1.564,15.024 1.165 C 13.689 0.278,12.160 -0.113,10.580 0.028 M12.229 1.596 C 12.736 1.695,13.048 1.800,13.540 2.038 C 14.084 2.302,14.563 2.653,15.009 3.114 C 15.982 4.119,16.481 5.333,16.484 6.704 C 16.485 7.179,16.472 7.357,16.418 7.624 C 16.406 7.688,16.336 7.730,16.131 7.797 C 14.405 8.359,12.901 9.849,12.325 11.565 C 12.225 11.864,12.202 11.901,12.107 11.913 L 12.000 11.925 11.998 9.373 C 11.997 7.345,11.985 6.789,11.943 6.670 C 11.864 6.449,11.702 6.256,11.489 6.131 L 11.300 6.020 8.690 6.009 L 6.080 5.998 6.080 5.903 C 6.080 5.851,6.125 5.637,6.179 5.427 C 6.489 4.235,7.252 3.139,8.256 2.445 C 8.846 2.037,9.637 1.705,10.304 1.584 C 10.783 1.498,11.753 1.504,12.229 1.596 M7.540 8.282 C 7.694 8.304,8.014 8.368,8.250 8.424 L 8.680 8.527 8.680 9.417 L 8.680 10.308 8.309 10.117 C 7.827 9.868,7.442 9.762,6.913 9.732 C 6.424 9.705,6.082 9.757,5.794 9.903 C 5.562 10.021,5.480 10.132,5.480 10.331 C 5.480 10.684,5.706 10.855,6.684 11.243 C 7.814 11.691,8.282 11.985,8.639 12.471 C 8.903 12.831,9.011 13.170,9.012 13.651 C 9.014 14.093,8.952 14.380,8.788 14.693 C 8.467 15.304,7.744 15.725,6.780 15.860 C 6.431 15.909,5.509 15.886,5.077 15.818 C 4.667 15.753,4.146 15.619,3.810 15.493 L 3.640 15.429 3.640 14.496 L 3.640 13.563 3.970 13.764 C 4.813 14.277,5.152 14.380,6.001 14.380 C 6.586 14.380,6.634 14.374,6.817 14.280 C 7.079 14.145,7.180 14.003,7.180 13.767 C 7.180 13.402,6.978 13.250,5.835 12.757 C 4.947 12.374,4.634 12.190,4.255 11.830 C 3.837 11.433,3.676 11.104,3.650 10.591 C 3.614 9.901,3.780 9.459,4.240 9.026 C 4.638 8.650,5.124 8.432,5.858 8.298 C 6.201 8.236,7.156 8.227,7.540 8.282 M19.096 9.136 C 20.659 9.539,21.906 10.764,22.344 12.324 C 22.485 12.829,22.523 13.796,22.423 14.332 C 22.013 16.513,20.022 18.093,17.820 17.985 C 17.322 17.960,17.179 17.936,16.690 17.793 C 16.405 17.710,16.399 17.705,16.358 17.544 C 16.203 16.941,15.937 16.339,15.595 15.820 C 15.183 15.194,14.282 14.388,13.665 14.094 L 13.510 14.021 13.532 13.360 C 13.559 12.543,13.646 12.183,13.981 11.518 C 14.203 11.076,14.416 10.779,14.777 10.407 C 15.474 9.688,16.328 9.224,17.258 9.059 C 17.752 8.972,18.597 9.007,19.096 9.136 M12.346 15.165 C 14.561 15.849,15.628 18.343,14.593 20.420 C 14.130 21.347,13.361 21.998,12.320 22.343 C 12.001 22.449,11.937 22.456,11.280 22.458 C 10.733 22.460,10.525 22.445,10.328 22.390 C 8.984 22.019,7.988 21.029,7.616 19.694 C 7.542 19.430,7.496 18.558,7.538 18.221 L 7.566 18.000 9.373 17.998 C 11.318 17.996,11.343 17.994,11.619 17.783 C 11.696 17.725,11.808 17.592,11.869 17.489 L 11.980 17.300 11.992 16.190 C 11.999 15.580,12.020 15.080,12.038 15.080 C 12.057 15.080,12.195 15.118,12.346 15.165 " stroke="none" fill="black" fill-rule="evenodd"></path></svg>