<svg role="img" viewBox="0 0 24 24" xmlns="http://www.w3.org/2000/svg"><path d="M11.400 6.762 C 9.919 6.943,8.623 7.708,7.726 8.930 L 7.557 9.160 3.799 9.160 C 1.731 9.160,0.040 9.174,0.040 9.191 C 0.040 9.208,0.198 9.379,0.391 9.571 L 0.742 9.920 3.948 9.920 L 7.154 9.920 7.062 10.155 C 7.012 10.284,6.946 10.482,6.918 10.595 L 6.865 10.800 4.243 10.800 L 1.622 10.800 2.000 11.180 L 2.378 11.560 4.549 11.560 L 6.720 11.560 6.720 12.000 L 6.720 12.440 4.991 12.440 L 3.262 12.440 3.640 12.820 L 4.018 13.200 5.441 13.200 L 6.863 13.200 6.926 13.430 C 6.961 13.557,7.028 13.755,7.074 13.870 L 7.159 14.080 6.030 14.080 L 4.902 14.080 5.260 14.440 L 5.618 14.800 6.581 14.800 L 7.543 14.800 7.757 15.099 C 8.029 15.479,8.651 16.085,9.041 16.347 C 9.971 16.974,10.898 17.257,12.020 17.254 C 13.119 17.251,14.041 16.966,14.960 16.347 C 15.349 16.085,15.972 15.479,16.243 15.099 L 16.457 14.800 17.419 14.800 L 18.382 14.800 18.740 14.440 L 19.098 14.080 17.989 14.080 C 17.379 14.080,16.880 14.072,16.880 14.063 C 16.880 14.054,16.942 13.860,17.019 13.633 L 17.157 13.220 18.570 13.210 L 19.983 13.199 20.360 12.820 L 20.738 12.440 19.009 12.440 L 17.280 12.440 17.280 12.000 L 17.280 11.560 19.451 11.560 L 21.622 11.560 22.000 11.180 L 22.378 10.800 19.768 10.800 C 17.714 10.800,17.154 10.789,17.142 10.750 C 17.134 10.723,17.080 10.556,17.021 10.380 C 16.962 10.204,16.905 10.029,16.893 9.990 C 16.872 9.924,17.041 9.920,20.065 9.920 L 23.258 9.920 23.609 9.571 C 23.802 9.379,23.960 9.208,23.960 9.191 C 23.960 9.174,22.264 9.159,20.190 9.159 L 16.420 9.157 16.243 8.895 C 15.788 8.220,14.937 7.540,14.060 7.151 C 13.768 7.022,13.201 6.855,12.867 6.800 C 12.499 6.740,11.740 6.720,11.400 6.762 M12.717 7.541 C 13.609 7.686,14.444 8.102,15.107 8.732 C 15.778 9.370,16.242 10.218,16.447 11.180 C 16.513 11.491,16.513 12.511,16.446 12.820 C 16.086 14.498,14.949 15.787,13.371 16.302 C 11.262 16.990,8.935 15.993,7.959 13.983 C 7.324 12.675,7.331 11.297,7.980 9.980 C 8.235 9.462,8.485 9.119,8.893 8.732 C 9.271 8.373,9.586 8.159,10.095 7.919 C 10.943 7.517,11.803 7.393,12.717 7.541 M8.400 12.002 L 8.400 13.204 8.630 13.192 L 8.860 13.180 8.845 12.320 C 8.837 11.847,8.842 11.471,8.856 11.484 C 8.871 11.498,8.999 11.875,9.142 12.323 C 9.285 12.771,9.417 13.153,9.435 13.171 C 9.453 13.189,9.574 13.199,9.704 13.192 L 9.939 13.180 10.199 12.353 L 10.460 11.525 10.480 12.353 L 10.500 13.180 10.750 13.192 L 11.000 13.204 11.000 12.002 L 11.000 10.800 10.647 10.800 L 10.294 10.800 9.990 11.750 C 9.823 12.273,9.677 12.673,9.666 12.640 C 9.654 12.607,9.515 12.180,9.355 11.690 L 9.065 10.800 8.732 10.800 L 8.400 10.800 8.400 12.002 M11.529 11.990 L 11.540 13.180 11.780 13.180 L 12.020 13.180 12.031 11.990 L 12.041 10.800 11.780 10.800 L 11.519 10.800 11.529 11.990 M12.560 12.000 L 12.560 13.200 12.799 13.200 L 13.038 13.200 13.049 12.356 L 13.060 11.512 13.523 12.346 L 13.987 13.180 14.273 13.192 L 14.560 13.204 14.560 12.000 L 14.560 10.796 14.330 10.808 L 14.100 10.820 14.080 11.645 L 14.060 12.471 13.603 11.635 L 13.146 10.800 12.853 10.800 L 12.560 10.800 12.560 12.000 M15.120 12.000 L 15.120 13.200 15.360 13.200 L 15.600 13.200 15.600 12.000 L 15.600 10.800 15.360 10.800 L 15.120 10.800 15.120 12.000 " stroke="none" fill="black" fill-rule="evenodd"></path></svg>