<svg role="img" viewBox="0 0 24 24" xmlns="http://www.w3.org/2000/svg"><path d="M0.000 10.754 C 0.000 21.332,0.001 21.512,0.079 21.816 C 0.339 22.833,1.194 23.528,2.260 23.588 C 3.393 23.651,4.331 23.014,4.717 21.920 C 4.773 21.759,4.782 20.911,4.800 13.760 L 4.820 5.780 4.923 5.515 C 5.080 5.113,5.227 4.885,5.516 4.600 C 5.983 4.139,6.529 3.920,7.206 3.920 C 7.869 3.921,8.423 4.144,8.879 4.595 C 9.173 4.885,9.320 5.111,9.477 5.515 L 9.580 5.780 9.600 10.880 L 9.620 15.980 9.725 16.250 C 9.953 16.835,10.337 17.290,10.822 17.548 C 11.236 17.768,11.632 17.854,12.120 17.829 C 13.159 17.777,13.934 17.193,14.305 16.180 C 14.372 15.998,14.380 15.781,14.399 13.740 L 14.420 11.500 14.591 11.150 C 14.902 10.515,15.469 10.062,16.184 9.879 C 17.407 9.566,18.660 10.249,19.047 11.440 C 19.121 11.668,19.134 11.835,19.157 12.780 C 19.183 13.822,19.187 13.869,19.288 14.111 C 19.540 14.721,19.923 15.150,20.450 15.414 C 20.840 15.609,21.143 15.680,21.593 15.680 C 22.272 15.680,22.817 15.461,23.284 15.000 C 23.573 14.715,23.720 14.487,23.877 14.085 L 23.980 13.820 23.991 6.910 L 24.001 -0.000 12.001 -0.000 L 0.000 0.000 0.000 10.754 " stroke="none" fill="black" fill-rule="evenodd"></path></svg>