<svg role="img" viewBox="0 0 24 24" xmlns="http://www.w3.org/2000/svg"><path d="M8.820 4.963 C 8.133 5.055,7.204 5.356,6.640 5.668 C 5.814 6.126,4.895 6.948,4.414 7.660 C 4.169 8.021,3.833 8.658,3.702 9.006 L 3.632 9.192 3.266 9.277 C 2.483 9.458,1.854 9.818,1.240 10.438 C 0.643 11.041,0.334 11.586,0.115 12.424 C 0.036 12.728,0.023 12.873,0.025 13.420 C 0.027 13.974,0.041 14.111,0.130 14.445 C 0.559 16.056,1.861 17.271,3.490 17.580 C 3.953 17.667,15.392 17.671,15.849 17.583 C 17.083 17.347,18.136 16.429,18.542 15.234 C 18.684 14.817,18.734 14.416,18.709 13.890 C 18.684 13.366,18.601 13.033,18.382 12.572 C 17.958 11.679,17.182 11.005,16.222 10.698 L 15.945 10.609 15.858 10.135 C 15.685 9.196,15.269 8.222,14.731 7.498 C 14.386 7.035,13.749 6.406,13.307 6.093 C 12.604 5.595,11.598 5.168,10.780 5.019 C 10.353 4.942,9.218 4.909,8.820 4.963 M10.263 6.563 C 11.838 6.782,13.232 7.821,13.920 9.290 C 14.182 9.850,14.360 10.663,14.360 11.299 C 14.359 11.621,14.260 12.267,14.160 12.588 C 14.116 12.731,14.080 12.925,14.080 13.018 C 14.080 13.382,14.408 13.748,14.771 13.789 C 15.005 13.815,15.214 13.744,15.405 13.570 C 15.532 13.456,15.578 13.370,15.657 13.105 C 15.711 12.926,15.775 12.677,15.800 12.550 C 15.825 12.424,15.858 12.320,15.873 12.320 C 15.951 12.321,16.351 12.589,16.505 12.743 C 16.894 13.132,17.080 13.583,17.080 14.140 C 17.080 14.713,16.836 15.268,16.427 15.624 C 16.222 15.803,15.763 16.028,15.520 16.070 C 15.421 16.086,12.757 16.090,9.600 16.079 C 3.167 16.055,3.712 16.082,3.043 15.754 C 2.784 15.627,2.637 15.520,2.403 15.285 C 2.063 14.943,1.884 14.664,1.728 14.233 C 1.633 13.970,1.623 13.885,1.624 13.400 C 1.625 12.921,1.637 12.827,1.730 12.567 C 1.879 12.147,2.060 11.863,2.381 11.541 C 2.704 11.218,3.060 10.995,3.460 10.869 C 3.693 10.795,3.832 10.780,4.280 10.781 C 4.763 10.782,4.851 10.793,5.113 10.888 C 5.473 11.018,5.778 11.200,6.061 11.451 C 6.179 11.556,6.339 11.669,6.416 11.701 C 6.717 11.827,7.075 11.733,7.308 11.467 C 7.452 11.303,7.498 11.126,7.471 10.839 C 7.448 10.596,7.332 10.438,6.946 10.120 C 6.574 9.812,6.179 9.588,5.714 9.421 C 5.440 9.323,5.343 9.270,5.351 9.225 C 5.372 9.112,5.641 8.666,5.865 8.373 C 6.889 7.032,8.592 6.331,10.263 6.563 M21.702 9.180 C 21.484 9.257,21.356 9.360,21.248 9.544 C 21.173 9.673,21.159 9.746,21.170 9.960 C 21.182 10.198,21.205 10.255,21.432 10.630 C 21.869 11.348,22.142 12.072,22.305 12.940 C 22.418 13.545,22.410 14.741,22.288 15.350 C 22.123 16.173,21.801 16.988,21.368 17.680 C 21.190 17.964,21.180 17.995,21.180 18.263 C 21.180 18.498,21.197 18.570,21.278 18.689 C 21.505 19.021,21.966 19.161,22.299 19.001 C 22.440 18.932,22.520 18.847,22.701 18.568 C 23.910 16.711,24.300 14.273,23.741 12.055 C 23.573 11.390,23.248 10.578,22.914 9.989 C 22.605 9.445,22.406 9.231,22.150 9.167 C 21.922 9.109,21.898 9.110,21.702 9.180 M19.385 10.496 C 19.060 10.617,18.880 10.886,18.880 11.249 C 18.880 11.432,18.910 11.511,19.100 11.840 C 19.550 12.616,19.731 13.271,19.731 14.120 C 19.731 14.976,19.572 15.541,19.100 16.368 C 18.914 16.694,18.880 16.783,18.880 16.954 C 18.880 17.200,18.932 17.345,19.073 17.494 C 19.287 17.720,19.623 17.826,19.900 17.754 C 20.110 17.699,20.328 17.465,20.571 17.032 C 21.524 15.335,21.588 13.286,20.740 11.544 C 20.487 11.024,20.268 10.700,20.089 10.581 C 19.895 10.453,19.599 10.417,19.385 10.496 " stroke="none" fill="black" fill-rule="evenodd"></path></svg>