<svg role="img" xmlns="http://www.w3.org/2000/svg" viewBox="0 0 24 24"><path d="M11.863 0.249 C 11.819 0.604,11.677 0.852,11.334 1.172 C 10.598 1.860,9.909 2.570,9.603 2.956 C 7.963 5.027,6.997 7.475,6.699 10.319 C 6.627 10.997,6.618 12.250,6.681 12.820 C 6.879 14.637,7.622 16.555,8.734 18.120 C 9.393 19.046,10.261 19.988,11.056 20.640 L 11.519 21.020 11.615 21.320 C 11.753 21.750,11.831 22.258,11.885 23.080 L 11.933 23.798 12.197 23.885 C 12.341 23.933,12.478 23.978,12.500 23.986 C 12.526 23.996,12.535 23.675,12.527 23.057 C 12.504 21.408,12.586 21.124,13.240 20.596 C 13.702 20.224,14.515 19.396,14.928 18.880 C 16.235 17.243,17.056 15.250,17.302 13.120 C 17.393 12.328,17.365 10.696,17.246 9.940 C 16.998 8.355,16.263 6.373,15.371 4.880 C 14.799 3.922,14.317 3.303,13.317 2.238 C 12.654 1.532,12.534 1.361,12.158 0.587 L 11.890 0.033 11.863 0.249 " stroke="none" fill="black" fill-rule="evenodd"></path></svg>