<svg role="img" viewBox="0 0 24 24" xmlns="http://www.w3.org/2000/svg"><path d="M0.850 11.859 L 0.860 23.718 0.991 23.849 C 1.103 23.961,1.150 23.980,1.317 23.980 C 1.455 23.980,1.537 23.957,1.601 23.900 C 1.772 23.746,11.020 13.469,11.009 13.445 C 11.003 13.431,8.771 10.478,6.049 6.882 C 3.327 3.287,1.076 0.308,1.046 0.262 C 0.962 0.134,1.288 0.493,5.439 5.100 C 18.134 19.189,22.354 23.867,22.419 23.920 C 22.462 23.955,22.573 23.980,22.685 23.980 C 22.850 23.980,22.898 23.961,23.009 23.849 L 23.140 23.718 23.150 11.859 L 23.160 0.000 12.000 0.000 L 0.840 0.000 0.850 11.859 " stroke="none" fill="black" fill-rule="evenodd"></path></svg>