<svg role="img" viewBox="0 0 24 24" xmlns="http://www.w3.org/2000/svg"><path d="M10.940 0.046 C 6.262 0.450,2.189 3.635,0.659 8.086 C -0.836 12.435,0.272 17.240,3.519 20.480 C 5.404 22.361,7.786 23.533,10.480 23.905 C 11.102 23.991,12.781 24.003,13.380 23.927 C 13.912 23.858,14.856 23.668,15.291 23.542 C 19.410 22.345,22.562 19.105,23.620 14.980 C 24.885 10.047,22.900 4.861,18.660 2.020 C 16.412 0.515,13.659 -0.190,10.940 0.046 M17.435 4.681 C 18.411 4.952,19.156 5.623,19.504 6.545 C 19.723 7.126,19.786 7.831,19.642 8.068 C 19.442 8.396,18.946 8.401,18.778 8.076 C 18.743 8.008,18.698 7.797,18.679 7.607 C 18.583 6.681,18.076 5.987,17.302 5.721 C 16.010 5.276,14.686 6.185,14.574 7.594 C 14.543 7.980,14.479 8.137,14.312 8.239 C 14.073 8.385,13.771 8.321,13.616 8.092 C 13.507 7.931,13.517 7.334,13.636 6.904 C 13.934 5.824,14.640 5.069,15.673 4.722 C 16.189 4.549,16.898 4.533,17.435 4.681 M16.891 7.122 C 17.640 7.330,17.516 8.440,16.743 8.440 C 16.496 8.440,16.294 8.342,16.171 8.161 C 15.921 7.795,16.084 7.287,16.500 7.140 C 16.696 7.071,16.704 7.070,16.891 7.122 M12.660 9.258 C 13.127 9.415,13.380 9.574,13.742 9.937 C 13.979 10.174,14.108 10.345,14.228 10.580 C 14.562 11.232,14.616 11.570,14.678 13.400 C 14.705 14.198,14.733 14.566,14.781 14.740 C 15.048 15.716,15.760 16.280,16.724 16.280 C 17.648 16.280,18.401 15.673,18.641 14.737 C 18.715 14.447,18.720 14.284,18.722 12.204 C 18.724 10.590,18.738 9.942,18.772 9.841 C 18.907 9.451,19.505 9.409,19.700 9.777 C 19.759 9.888,19.764 10.140,19.750 12.300 C 19.735 14.630,19.732 14.709,19.646 15.019 C 19.342 16.117,18.618 16.876,17.560 17.206 C 17.308 17.285,17.174 17.300,16.720 17.300 C 16.074 17.300,15.827 17.244,15.280 16.972 C 14.526 16.597,14.017 15.922,13.775 14.980 C 13.681 14.613,13.669 14.472,13.634 13.280 C 13.612 12.529,13.573 11.860,13.541 11.695 C 13.389 10.894,12.857 10.382,12.056 10.267 C 11.181 10.141,10.398 10.629,10.069 11.506 C 9.983 11.736,9.981 11.787,9.959 14.340 C 9.941 16.432,9.926 16.962,9.881 17.051 C 9.810 17.194,9.605 17.320,9.444 17.320 C 9.266 17.320,9.025 17.187,8.965 17.056 C 8.928 16.973,8.910 16.331,8.895 14.443 C 8.883 12.926,8.858 11.861,8.833 11.740 C 8.653 10.885,7.893 10.245,7.052 10.241 C 6.356 10.238,5.795 10.578,5.519 11.171 C 5.260 11.728,5.266 11.655,5.242 14.440 C 5.218 17.200,5.228 17.096,4.987 17.242 C 4.743 17.391,4.454 17.325,4.291 17.084 L 4.200 16.948 4.200 14.584 C 4.200 12.086,4.217 11.807,4.396 11.188 C 4.676 10.226,5.352 9.547,6.280 9.295 C 6.675 9.188,7.446 9.196,7.852 9.312 C 8.413 9.472,9.055 9.855,9.300 10.176 L 9.401 10.308 9.693 10.020 C 10.122 9.598,10.643 9.313,11.222 9.183 C 11.642 9.089,12.253 9.121,12.660 9.258 " stroke="none" fill="black" fill-rule="evenodd"></path></svg>