<svg role="img" viewBox="0 0 24 24" xmlns="http://www.w3.org/2000/svg"><path d="M0.700 1.335 C 0.455 1.451,0.231 1.671,0.111 1.916 L 0.020 2.100 0.020 12.000 L 0.020 21.900 0.111 22.084 C 0.231 22.329,0.455 22.549,0.700 22.665 L 0.900 22.759 12.000 22.759 L 23.100 22.759 23.303 22.665 C 23.548 22.551,23.765 22.336,23.889 22.085 L 23.980 21.900 23.980 12.000 L 23.980 2.100 23.889 1.915 C 23.765 1.664,23.548 1.449,23.303 1.335 L 23.100 1.241 12.000 1.241 L 0.900 1.241 0.700 1.335 M18.051 5.131 L 18.602 5.606 18.406 5.833 C 16.981 7.484,13.747 11.272,13.732 11.310 C 13.721 11.337,14.411 12.173,15.266 13.168 C 16.121 14.162,16.847 15.010,16.880 15.051 C 16.937 15.121,16.957 15.106,17.220 14.783 C 17.374 14.595,17.511 14.441,17.525 14.440 C 17.558 14.440,21.720 19.446,21.720 19.487 C 21.720 19.505,17.345 19.520,11.997 19.520 C 4.367 19.520,2.277 19.509,2.290 19.471 C 2.309 19.412,8.970 11.525,9.003 11.522 C 9.016 11.521,9.302 11.845,9.638 12.243 C 9.975 12.641,10.264 12.951,10.281 12.933 C 10.416 12.789,10.960 12.135,10.960 12.116 C 10.960 12.103,9.851 10.800,8.496 9.219 C 7.141 7.638,6.026 6.326,6.018 6.303 C 6.007 6.266,7.826 4.679,7.914 4.649 C 7.931 4.643,9.004 5.871,10.297 7.379 C 11.590 8.887,12.660 10.119,12.674 10.119 C 12.688 10.118,13.761 8.877,15.059 7.362 C 16.356 5.846,17.436 4.617,17.459 4.631 C 17.481 4.644,17.748 4.869,18.051 5.131 M11.639 13.721 C 11.453 13.942,11.300 14.141,11.300 14.163 C 11.300 14.206,14.484 17.994,14.524 17.998 C 14.537 17.999,14.712 17.802,14.914 17.561 L 15.281 17.121 13.657 15.231 C 12.764 14.191,12.021 13.335,12.006 13.330 C 11.991 13.324,11.826 13.500,11.639 13.721 " stroke="none" fill="black" fill-rule="evenodd"></path></svg>