<svg role="img" xmlns="http://www.w3.org/2000/svg" viewBox="0 0 24 24"><path d="M14.546 3.881 C 14.384 3.930,14.293 4.024,14.218 4.219 C 14.165 4.359,14.162 4.418,14.200 4.560 C 14.256 4.766,14.298 4.835,14.645 5.289 C 14.792 5.481,14.940 5.715,14.973 5.809 C 15.006 5.903,15.100 6.169,15.182 6.400 C 15.362 6.909,15.507 7.204,15.700 7.458 C 15.828 7.625,15.841 7.662,15.804 7.754 C 15.653 8.140,15.583 8.555,15.581 9.080 C 15.580 9.566,15.591 9.654,15.692 9.960 C 15.926 10.672,16.352 11.010,16.674 10.739 C 16.798 10.634,16.805 10.615,16.881 10.130 C 16.907 9.970,16.940 9.840,16.956 9.840 C 16.972 9.840,17.055 9.985,17.139 10.163 C 17.301 10.504,17.590 10.831,18.180 11.342 C 18.556 11.668,18.625 11.704,18.354 11.432 C 18.040 11.118,17.598 10.440,17.278 9.781 C 17.129 9.472,17.000 9.185,16.993 9.143 C 16.970 9.006,16.892 9.033,16.749 9.228 C 16.586 9.451,16.496 9.724,16.458 10.114 C 16.424 10.461,16.400 10.505,16.283 10.434 C 16.076 10.306,15.845 9.586,15.842 9.060 C 15.840 8.785,15.908 8.391,16.003 8.124 C 16.187 7.606,16.182 7.547,15.936 7.272 C 15.752 7.066,15.662 6.876,15.437 6.214 C 15.229 5.604,15.162 5.478,14.793 4.992 C 14.474 4.571,14.413 4.393,14.543 4.263 C 14.634 4.172,14.741 4.185,15.100 4.334 C 15.404 4.459,15.617 4.581,15.840 4.759 C 15.916 4.819,16.043 4.848,16.363 4.877 C 16.697 4.908,16.854 4.946,17.115 5.055 C 18.258 5.538,19.484 6.792,19.955 7.963 C 20.149 8.446,20.716 9.645,20.848 9.852 C 20.987 10.069,21.047 10.106,21.520 10.260 C 21.955 10.402,22.088 10.470,22.600 10.813 C 23.033 11.104,23.200 11.234,23.200 11.281 C 23.200 11.296,23.016 11.319,22.790 11.331 C 22.384 11.353,21.918 11.465,21.730 11.585 L 21.639 11.642 21.721 11.803 C 21.906 12.165,22.316 12.501,22.956 12.817 C 23.324 12.998,23.771 13.289,23.877 13.416 C 23.906 13.451,23.946 13.480,23.966 13.480 C 24.050 13.480,23.861 13.230,23.493 12.854 C 23.215 12.569,23.001 12.393,22.760 12.249 C 22.393 12.031,22.202 11.860,22.263 11.806 C 22.303 11.769,22.793 11.657,23.080 11.619 C 23.346 11.583,23.680 11.483,23.680 11.440 C 23.680 11.360,23.045 10.769,22.680 10.509 C 22.471 10.360,22.111 10.148,21.880 10.038 C 21.649 9.929,21.415 9.817,21.360 9.789 C 21.242 9.730,20.968 9.222,20.580 8.340 C 20.165 7.398,20.018 7.123,19.716 6.718 C 18.775 5.457,17.370 4.520,16.419 4.520 C 16.189 4.520,16.153 4.508,15.996 4.376 C 15.777 4.194,15.346 3.976,15.052 3.899 C 14.799 3.834,14.714 3.831,14.546 3.881 M16.160 5.541 C 16.160 5.552,16.222 5.652,16.298 5.762 C 16.373 5.872,16.447 5.998,16.460 6.041 C 16.498 6.159,16.557 6.137,16.623 5.979 C 16.675 5.855,16.674 5.825,16.620 5.721 C 16.587 5.656,16.525 5.584,16.482 5.561 C 16.403 5.519,16.160 5.504,16.160 5.541 M11.733 13.122 C 11.231 13.211,10.774 13.540,10.572 13.955 C 10.475 14.153,10.462 14.227,10.461 14.580 C 10.459 15.306,10.650 15.543,11.723 16.140 C 12.079 16.338,12.451 16.571,12.551 16.658 C 12.862 16.932,12.952 17.258,12.804 17.583 C 12.579 18.079,11.850 18.243,11.079 17.971 C 10.893 17.905,10.710 17.838,10.672 17.822 C 10.619 17.799,10.582 17.838,10.500 18.001 C 10.442 18.115,10.404 18.232,10.415 18.262 C 10.447 18.346,11.069 18.630,11.380 18.702 C 11.761 18.792,12.408 18.765,12.740 18.645 C 13.464 18.386,13.883 17.773,13.832 17.051 C 13.788 16.446,13.583 16.217,12.566 15.639 C 12.164 15.410,11.763 15.162,11.676 15.087 C 11.255 14.727,11.254 14.200,11.674 13.902 C 11.821 13.798,11.881 13.783,12.193 13.768 C 12.520 13.752,12.954 13.823,13.249 13.940 C 13.304 13.962,13.338 13.921,13.420 13.737 C 13.531 13.485,13.536 13.498,13.280 13.363 C 12.887 13.155,12.171 13.044,11.733 13.122 M15.960 13.143 C 15.158 13.316,14.610 13.903,14.357 14.860 C 14.249 15.265,14.208 16.257,14.277 16.775 C 14.412 17.789,14.854 18.435,15.571 18.664 C 15.831 18.748,16.637 18.784,16.913 18.725 L 17.114 18.682 17.667 19.005 C 18.528 19.507,18.409 19.486,18.598 19.168 C 18.687 19.018,18.760 18.878,18.760 18.856 C 18.760 18.835,18.544 18.711,18.280 18.580 C 18.016 18.449,17.800 18.336,17.800 18.327 C 17.800 18.318,17.886 18.217,17.991 18.103 C 18.441 17.610,18.680 16.819,18.680 15.820 C 18.680 14.535,18.287 13.662,17.546 13.301 C 17.100 13.084,16.507 13.024,15.960 13.143 M0.400 13.200 C 0.400 13.222,0.365 13.551,0.322 13.930 C 0.189 15.113,0.084 16.549,0.017 18.070 L -0.009 18.680 0.411 18.680 L 0.831 18.680 0.856 17.970 C 0.920 16.167,1.017 14.370,1.053 14.333 C 1.062 14.325,1.474 15.611,2.289 18.190 L 2.444 18.680 2.800 18.680 L 3.157 18.680 3.476 17.690 C 3.651 17.145,3.962 16.174,4.167 15.530 C 4.372 14.887,4.550 14.360,4.563 14.360 C 4.613 14.360,4.775 16.578,4.824 17.930 L 4.851 18.680 5.312 18.680 L 5.772 18.680 5.745 17.970 C 5.700 16.785,5.575 15.248,5.374 13.390 L 5.349 13.160 4.800 13.160 L 4.250 13.160 3.584 15.180 C 3.217 16.291,2.910 17.200,2.901 17.200 C 2.892 17.200,2.586 16.291,2.221 15.180 L 1.558 13.160 0.979 13.160 C 0.618 13.160,0.400 13.175,0.400 13.200 M19.480 15.920 L 19.480 18.680 20.802 18.680 L 22.123 18.680 22.112 18.350 L 22.100 18.020 21.230 18.009 L 20.360 17.998 20.360 15.579 L 20.360 13.160 19.920 13.160 L 19.480 13.160 19.480 15.920 M16.930 13.853 C 17.476 14.081,17.728 14.736,17.733 15.940 C 17.736 16.874,17.593 17.429,17.258 17.774 C 17.051 17.987,16.900 18.051,16.555 18.072 C 15.840 18.114,15.440 17.760,15.252 16.920 C 15.156 16.487,15.156 15.287,15.253 14.900 C 15.416 14.250,15.685 13.915,16.140 13.795 C 16.310 13.750,16.763 13.784,16.930 13.853 M6.240 14.622 C 6.240 14.635,6.484 15.404,6.781 16.332 C 7.569 18.783,7.575 18.815,7.307 19.170 C 7.114 19.427,6.866 19.533,6.476 19.528 L 6.160 19.524 6.160 19.777 L 6.160 20.030 6.350 20.085 C 7.515 20.423,8.584 19.196,9.301 16.700 C 9.474 16.096,9.760 14.840,9.760 14.683 C 9.760 14.604,9.739 14.600,9.341 14.600 C 8.938 14.600,8.921 14.604,8.903 14.690 C 8.893 14.740,8.837 15.065,8.779 15.413 C 8.659 16.134,8.475 16.891,8.258 17.560 L 8.109 18.020 8.033 17.647 C 7.992 17.443,7.774 16.678,7.549 15.947 L 7.140 14.620 6.690 14.609 C 6.442 14.602,6.240 14.608,6.240 14.622 " stroke="none" fill="black" fill-rule="evenodd"></path></svg>