<svg role="img" viewBox="0 0 24 24" xmlns="http://www.w3.org/2000/svg"><path d="M0.000 4.400 L 0.000 5.000 3.720 5.000 L 7.440 5.000 7.440 4.400 L 7.440 3.800 3.720 3.800 L 0.000 3.800 0.000 4.400 M12.160 7.319 C 11.102 7.455,10.310 7.972,9.922 8.780 C 9.692 9.259,9.599 9.913,9.690 10.420 L 9.740 10.700 10.420 10.767 C 10.793 10.804,11.105 10.828,11.112 10.822 C 11.119 10.815,11.103 10.651,11.077 10.457 C 10.989 9.795,11.105 9.314,11.441 8.946 C 11.990 8.345,13.171 8.296,13.711 8.852 C 13.923 9.071,14.028 9.281,14.105 9.644 C 14.224 10.203,14.119 10.888,13.821 11.503 C 13.382 12.408,12.202 13.570,10.218 15.049 L 9.560 15.540 9.560 16.070 L 9.560 16.600 12.640 16.600 L 15.720 16.600 15.720 16.020 L 15.720 15.440 13.657 15.440 C 12.522 15.440,11.599 15.425,11.607 15.406 C 11.614 15.388,11.854 15.196,12.140 14.980 C 13.469 13.977,14.354 13.108,14.898 12.270 C 15.170 11.851,15.323 11.523,15.466 11.051 C 15.561 10.739,15.573 10.631,15.577 10.080 C 15.580 9.374,15.533 9.132,15.295 8.645 C 15.002 8.047,14.379 7.579,13.635 7.401 C 13.252 7.309,12.543 7.269,12.160 7.319 M20.540 7.321 C 19.225 7.521,18.301 8.423,17.864 9.931 C 17.548 11.022,17.489 12.658,17.724 13.820 C 18.038 15.370,18.785 16.276,20.020 16.605 C 20.451 16.721,21.327 16.730,21.740 16.625 C 23.205 16.250,24.068 14.995,23.986 13.360 C 23.942 12.466,23.656 11.740,23.148 11.229 C 22.830 10.909,22.542 10.738,22.080 10.594 C 21.822 10.513,21.700 10.500,21.200 10.502 C 20.681 10.504,20.586 10.516,20.297 10.612 C 19.773 10.786,19.301 11.140,19.034 11.558 L 18.920 11.736 18.920 11.615 C 18.920 11.309,19.017 10.585,19.103 10.245 C 19.219 9.788,19.458 9.287,19.687 9.024 C 20.188 8.446,21.023 8.248,21.690 8.548 C 22.061 8.714,22.316 9.059,22.465 9.595 C 22.524 9.807,22.543 9.836,22.616 9.819 C 22.662 9.808,22.957 9.747,23.272 9.685 C 23.586 9.622,23.853 9.561,23.865 9.549 C 23.876 9.537,23.855 9.413,23.816 9.274 C 23.534 8.256,22.869 7.604,21.891 7.384 C 21.532 7.304,20.859 7.272,20.540 7.321 M0.080 12.000 L 0.080 16.600 0.741 16.600 L 1.402 16.600 1.391 12.845 L 1.380 9.091 1.607 9.564 C 1.732 9.825,2.693 11.515,3.743 13.319 L 5.652 16.600 6.506 16.600 L 7.360 16.600 7.360 12.000 L 7.360 7.400 6.698 7.400 L 6.037 7.400 6.048 11.157 C 6.055 13.223,6.057 14.910,6.053 14.907 C 6.050 14.903,5.976 14.736,5.889 14.536 C 5.802 14.335,4.844 12.648,3.761 10.786 L 1.790 7.400 0.935 7.400 L 0.080 7.400 0.080 12.000 M21.467 11.660 C 22.136 11.862,22.563 12.502,22.626 13.400 C 22.691 14.332,22.298 15.126,21.610 15.452 C 21.362 15.570,21.307 15.580,20.938 15.580 C 20.554 15.580,20.522 15.573,20.233 15.430 C 19.636 15.135,19.200 14.503,19.035 13.693 C 18.991 13.479,18.966 13.259,18.980 13.202 C 18.993 13.146,19.084 12.936,19.181 12.734 C 19.631 11.803,20.533 11.379,21.467 11.660 M0.000 19.600 L 0.000 20.200 3.720 20.200 L 7.440 20.200 7.440 19.600 L 7.440 19.000 3.720 19.000 L 0.000 19.000 0.000 19.600 " stroke="none" fill="black" fill-rule="evenodd"></path></svg>