<svg role="img" viewBox="0 0 24 24" xmlns="http://www.w3.org/2000/svg"><path d="M11.540 6.562 C 10.260 6.669,9.056 7.254,8.126 8.219 C 7.541 8.827,7.120 9.511,6.864 10.270 L 6.776 10.529 6.592 10.212 C 6.125 9.409,5.318 8.800,4.393 8.553 C 3.969 8.440,3.205 8.431,2.786 8.534 C 1.455 8.860,0.465 9.824,0.109 11.140 C -0.014 11.595,-0.014 12.405,0.109 12.860 C 0.394 13.913,1.057 14.720,2.020 15.185 C 2.563 15.448,2.919 15.530,3.540 15.533 C 3.959 15.536,4.125 15.519,4.393 15.447 C 5.363 15.187,6.150 14.577,6.642 13.704 L 6.775 13.467 6.863 13.728 C 7.120 14.489,7.540 15.172,8.126 15.781 C 9.075 16.766,10.229 17.319,11.582 17.437 C 13.641 17.616,15.615 16.575,16.711 14.731 C 16.874 14.457,17.121 13.898,17.219 13.584 C 17.237 13.524,17.287 13.580,17.449 13.843 C 17.934 14.631,18.711 15.207,19.617 15.450 C 20.065 15.570,20.840 15.568,21.300 15.445 C 22.595 15.100,23.555 14.131,23.903 12.817 C 24.006 12.431,24.006 11.569,23.903 11.183 C 23.546 9.837,22.558 8.863,21.215 8.534 C 20.795 8.431,20.031 8.440,19.607 8.553 C 18.694 8.797,17.938 9.362,17.438 10.174 C 17.283 10.427,17.237 10.477,17.217 10.416 C 17.098 10.049,16.876 9.546,16.713 9.272 C 15.606 7.410,13.648 6.384,11.540 6.562 M12.980 8.759 C 14.145 9.130,14.988 10.003,15.280 11.140 C 15.677 12.683,14.960 14.296,13.565 14.997 C 12.987 15.288,12.748 15.340,12.000 15.339 C 11.359 15.338,11.329 15.334,10.960 15.207 C 10.319 14.986,9.764 14.605,9.390 14.128 C 7.826 12.138,8.837 9.263,11.300 8.697 C 11.677 8.610,12.623 8.645,12.980 8.759 M4.096 10.642 C 4.391 10.752,4.724 11.058,4.868 11.352 C 4.969 11.558,4.980 11.621,4.980 12.000 C 4.980 12.379,4.969 12.442,4.868 12.648 C 4.724 12.940,4.393 13.246,4.090 13.364 C 3.919 13.431,3.776 13.454,3.533 13.455 C 3.236 13.455,3.179 13.442,2.905 13.307 C 2.308 13.011,1.992 12.396,2.111 11.756 C 2.286 10.816,3.195 10.305,4.096 10.642 M21.108 10.702 C 21.547 10.916,21.795 11.250,21.889 11.756 C 22.001 12.357,21.702 12.989,21.173 13.269 C 20.528 13.611,19.841 13.498,19.359 12.972 C 19.103 12.691,19.000 12.413,19.000 12.000 C 19.000 11.583,19.102 11.310,19.365 11.022 C 19.824 10.520,20.484 10.399,21.108 10.702 " stroke="none" fill="black" fill-rule="evenodd"></path></svg>