<svg role="img" viewBox="0 0 24 24" xmlns="http://www.w3.org/2000/svg"><path d="M6.800 2.998 L 1.620 5.992 1.620 12.000 L 1.620 18.008 6.811 21.005 L 12.002 24.001 17.191 21.006 L 22.380 18.011 22.380 12.000 L 22.380 5.989 17.220 3.010 C 14.382 1.372,12.042 0.025,12.020 0.018 C 11.998 0.011,9.649 1.352,6.800 2.998 M8.060 6.180 C 8.426 6.257,8.934 6.510,9.160 6.728 C 9.259 6.824,10.681 8.508,12.320 10.469 L 15.300 14.036 15.320 10.568 L 15.340 7.100 15.451 6.874 C 15.580 6.611,15.848 6.349,16.113 6.227 C 16.260 6.159,16.376 6.140,16.660 6.140 C 16.973 6.140,17.050 6.155,17.246 6.251 C 17.518 6.385,17.732 6.610,17.875 6.915 L 17.980 7.140 17.980 12.020 L 17.980 16.900 17.873 17.100 C 17.409 17.972,16.081 18.137,15.080 17.446 C 14.910 17.328,14.159 16.460,11.780 13.629 L 8.700 9.964 8.680 13.432 L 8.660 16.900 8.555 17.120 C 8.423 17.400,8.200 17.623,7.920 17.755 C 7.732 17.845,7.647 17.860,7.340 17.858 C 7.028 17.857,6.952 17.842,6.769 17.747 C 6.501 17.608,6.281 17.389,6.157 17.137 L 6.060 16.940 6.060 12.000 L 6.060 7.060 6.152 6.888 C 6.480 6.274,7.212 6.002,8.060 6.180 " stroke="none" fill="black" fill-rule="evenodd"></path></svg>