<svg role="img" viewBox="0 0 24 24" xmlns="http://www.w3.org/2000/svg"><path d="M6.249 0.531 C 5.958 0.822,5.720 1.079,5.720 1.100 C 5.720 1.122,6.705 2.125,7.910 3.330 L 10.100 5.520 6.160 5.520 C 1.883 5.521,2.043 5.513,1.565 5.744 C 1.275 5.885,0.855 6.309,0.710 6.607 C 0.467 7.110,0.480 6.712,0.480 13.600 C 0.480 20.526,0.465 20.095,0.724 20.608 C 0.878 20.912,1.232 21.274,1.519 21.420 C 1.997 21.661,1.951 21.656,3.479 21.679 L 4.898 21.700 5.566 22.760 C 6.267 23.872,6.376 24.000,6.628 24.000 C 6.901 24.000,6.957 23.936,7.685 22.781 L 8.380 21.680 11.876 21.690 L 15.372 21.700 16.028 22.740 C 16.390 23.312,16.727 23.822,16.778 23.874 C 16.898 23.997,17.180 24.033,17.346 23.947 C 17.435 23.901,17.646 23.599,18.161 22.783 L 18.855 21.680 20.299 21.680 C 21.869 21.680,22.002 21.666,22.439 21.449 C 22.739 21.300,23.120 20.917,23.275 20.610 C 23.535 20.094,23.520 20.525,23.520 13.634 C 23.520 9.211,23.507 7.301,23.476 7.152 C 23.365 6.620,22.935 6.045,22.457 5.791 C 22.011 5.553,22.148 5.560,17.802 5.560 L 13.820 5.560 16.030 3.350 C 17.246 2.134,18.240 1.122,18.240 1.099 C 18.240 1.077,18.001 0.821,17.710 0.530 L 17.179 0.000 14.620 2.561 C 13.212 3.969,12.039 5.117,12.013 5.111 C 11.987 5.105,10.806 3.953,9.387 2.550 C 7.969 1.147,6.802 0.000,6.794 0.000 C 6.785 0.000,6.541 0.239,6.249 0.531 " stroke="none" fill="black" fill-rule="evenodd"></path></svg>