<svg role="img" viewBox="0 0 24 24" xmlns="http://www.w3.org/2000/svg"><path d="M11.530 0.059 C 11.415 0.092,11.244 0.157,11.150 0.205 C 10.772 0.398,2.246 5.339,2.069 5.468 C 1.842 5.635,1.596 5.966,1.471 6.275 L 1.380 6.500 1.369 11.880 C 1.362 15.626,1.372 17.323,1.402 17.469 C 1.426 17.584,1.499 17.785,1.564 17.916 C 1.781 18.350,1.989 18.511,3.345 19.288 C 4.696 20.063,5.108 20.268,5.633 20.428 C 5.938 20.521,6.050 20.534,6.560 20.535 C 7.225 20.537,7.486 20.484,7.956 20.254 C 8.496 19.990,8.902 19.470,9.108 18.780 C 9.175 18.556,9.180 18.188,9.190 13.096 C 9.201 8.049,9.197 7.647,9.135 7.596 C 9.086 7.555,8.906 7.536,8.469 7.527 C 7.939 7.516,7.782 7.532,7.631 7.615 C 7.625 7.618,7.612 9.969,7.601 12.840 L 7.580 18.060 7.488 18.260 C 7.214 18.856,6.562 19.086,5.840 18.841 C 5.472 18.717,3.018 17.291,2.963 17.170 C 2.897 17.025,2.904 6.932,2.971 6.806 C 3.004 6.742,4.456 5.883,7.480 4.137 C 9.933 2.721,11.967 1.562,12.000 1.562 C 12.033 1.562,14.067 2.720,16.520 4.135 C 19.607 5.917,20.995 6.738,21.029 6.805 C 21.095 6.932,21.103 16.962,21.037 17.151 C 21.004 17.246,20.914 17.319,20.627 17.485 C 20.425 17.601,18.426 18.754,16.184 20.048 C 13.464 21.618,12.072 22.400,11.997 22.400 C 11.925 22.400,11.488 22.163,10.742 21.718 C 10.112 21.343,9.570 21.026,9.536 21.013 C 9.502 21.000,9.300 21.081,9.081 21.195 C 8.865 21.308,8.521 21.463,8.318 21.539 C 7.893 21.697,7.843 21.732,7.905 21.831 C 7.961 21.921,11.164 23.819,11.400 23.902 C 11.686 24.003,12.138 24.021,12.440 23.943 C 12.740 23.866,12.579 23.954,15.080 22.509 C 16.147 21.893,17.542 21.087,18.180 20.718 C 18.818 20.350,19.907 19.722,20.600 19.323 C 21.691 18.695,21.893 18.563,22.105 18.344 C 22.369 18.070,22.525 17.786,22.598 17.440 C 22.633 17.277,22.642 15.840,22.632 11.860 L 22.620 6.500 22.528 6.271 C 22.384 5.917,22.130 5.602,21.816 5.392 C 21.343 5.075,12.928 0.234,12.667 0.129 C 12.356 0.003,11.841 -0.028,11.530 0.059 M13.377 7.322 C 11.474 7.570,10.361 8.596,10.361 10.100 C 10.361 11.048,10.762 11.744,11.541 12.147 C 12.154 12.464,12.835 12.627,14.192 12.781 C 15.887 12.974,16.581 13.126,17.012 13.399 C 17.267 13.561,17.339 13.711,17.338 14.080 C 17.337 14.745,16.992 15.112,16.172 15.322 C 15.762 15.427,14.879 15.476,14.133 15.436 C 12.554 15.349,11.960 14.973,11.741 13.920 C 11.705 13.747,11.650 13.599,11.611 13.570 C 11.512 13.496,10.243 13.500,10.140 13.575 C 10.075 13.622,10.066 13.676,10.074 13.956 C 10.109 15.134,10.823 16.119,11.958 16.557 C 12.808 16.885,13.387 16.975,14.660 16.978 C 16.039 16.981,16.676 16.864,17.520 16.454 C 17.929 16.255,18.018 16.191,18.322 15.885 C 18.880 15.321,19.081 14.818,19.079 13.984 C 19.078 12.938,18.722 12.325,17.872 11.906 C 17.249 11.599,16.626 11.449,15.029 11.219 C 12.998 10.926,12.522 10.804,12.241 10.501 C 12.157 10.412,12.139 10.347,12.126 10.095 C 12.107 9.718,12.184 9.500,12.407 9.298 C 12.835 8.912,13.763 8.740,14.925 8.832 C 15.837 8.904,16.328 9.075,16.642 9.431 C 16.846 9.663,16.926 9.816,17.040 10.192 C 17.089 10.352,17.155 10.509,17.187 10.541 C 17.234 10.588,17.384 10.600,17.942 10.600 L 18.638 10.600 18.704 10.500 C 18.764 10.408,18.764 10.371,18.705 10.020 C 18.583 9.295,18.364 8.818,17.953 8.378 C 17.429 7.819,16.659 7.484,15.561 7.338 C 15.109 7.277,13.790 7.268,13.377 7.322 " stroke="none" fill="black" fill-rule="evenodd"></path></svg>