<svg role="img" viewBox="0 0 24 24" xmlns="http://www.w3.org/2000/svg"><path d="M2.380 0.066 C 1.206 0.317,0.305 1.228,0.063 2.408 C 0.009 2.674,0.000 3.157,0.000 5.918 L 0.000 9.120 1.572 9.120 C 3.283 9.120,3.411 9.133,3.815 9.351 C 4.323 9.625,4.738 10.237,4.794 10.791 L 4.821 11.060 5.020 11.047 C 5.263 11.032,5.862 10.838,6.106 10.694 C 6.569 10.423,6.908 9.988,7.558 8.834 C 7.739 8.512,8.002 8.103,8.142 7.926 C 8.763 7.141,9.632 6.681,10.726 6.559 C 11.388 6.485,11.320 6.537,11.320 6.106 C 11.320 5.491,11.492 5.059,11.895 4.661 C 12.173 4.387,12.440 4.230,12.781 4.141 C 13.131 4.050,21.303 4.049,21.652 4.140 C 22.308 4.310,22.812 4.780,23.046 5.440 C 23.136 5.691,23.139 5.744,23.139 7.000 C 23.140 8.149,23.131 8.328,23.067 8.540 C 22.860 9.215,22.360 9.728,21.722 9.922 C 21.467 10.000,21.351 10.001,17.140 9.991 L 12.820 9.980 12.587 9.886 C 12.083 9.683,11.645 9.228,11.438 8.694 C 11.371 8.522,11.341 8.339,11.324 8.002 L 11.300 7.543 11.080 7.554 C 10.792 7.569,10.322 7.666,10.053 7.766 C 9.337 8.034,8.963 8.430,8.301 9.620 C 7.934 10.280,7.680 10.658,7.377 10.992 L 7.157 11.236 7.309 11.261 C 9.203 11.581,10.554 12.112,11.779 13.018 C 11.948 13.143,12.395 13.509,12.773 13.833 C 13.729 14.652,13.816 14.721,14.200 14.970 C 15.034 15.510,15.855 15.806,17.000 15.978 C 17.480 16.050,18.363 16.120,18.790 16.120 L 19.080 16.120 19.080 15.768 C 19.080 14.988,19.410 14.369,20.022 14.001 C 20.456 13.740,20.587 13.725,22.391 13.722 L 24.002 13.720 23.990 8.090 C 23.979 2.807,23.973 2.445,23.906 2.220 C 23.594 1.179,22.823 0.408,21.780 0.094 C 21.552 0.025,21.074 0.021,12.100 0.014 C 3.842 0.007,2.625 0.014,2.380 0.066 M13.072 5.439 C 13.012 5.457,12.908 5.511,12.841 5.559 C 12.606 5.727,12.600 5.764,12.600 7.029 L 12.600 8.181 12.698 8.325 C 12.751 8.404,12.864 8.503,12.948 8.544 C 13.094 8.617,13.269 8.620,17.180 8.631 L 21.260 8.641 21.438 8.551 C 21.784 8.374,21.778 8.396,21.792 7.046 C 21.803 5.863,21.803 5.856,21.712 5.722 C 21.661 5.648,21.569 5.550,21.507 5.504 C 21.394 5.420,21.386 5.420,17.287 5.413 C 15.028 5.409,13.131 5.421,13.072 5.439 M0.000 12.080 L 0.000 13.720 1.487 13.720 C 2.916 13.720,2.982 13.717,3.148 13.636 C 3.263 13.580,3.354 13.496,3.421 13.383 L 3.520 13.213 3.520 12.052 C 3.520 10.914,3.518 10.889,3.430 10.756 C 3.380 10.681,3.259 10.580,3.161 10.530 C 2.986 10.441,2.959 10.440,1.492 10.440 L 0.000 10.440 0.000 12.080 M4.840 12.510 C 4.840 12.725,4.822 13.053,4.801 13.240 C 4.707 14.063,4.099 14.760,3.318 14.938 C 3.096 14.988,2.757 15.000,1.521 15.000 L -0.003 15.000 0.010 18.270 C 0.025 21.904,0.009 21.692,0.302 22.304 C 0.669 23.073,1.389 23.668,2.240 23.907 C 2.488 23.977,2.930 23.980,12.000 23.980 C 21.070 23.980,21.512 23.977,21.760 23.907 C 22.612 23.668,23.331 23.073,23.700 22.301 C 23.944 21.790,23.969 21.637,23.989 20.570 L 24.007 19.600 22.412 19.600 C 20.684 19.600,20.572 19.589,20.151 19.375 C 20.036 19.317,19.831 19.163,19.696 19.033 C 19.275 18.629,19.080 18.150,19.080 17.519 L 19.080 17.175 18.290 17.128 C 16.866 17.042,15.864 16.842,14.868 16.444 C 13.953 16.078,13.240 15.610,12.119 14.636 C 10.509 13.238,9.558 12.736,7.900 12.404 C 7.168 12.257,5.829 12.121,5.110 12.120 L 4.840 12.120 4.840 12.510 M20.740 15.091 C 20.635 15.150,20.549 15.241,20.490 15.359 C 20.403 15.530,20.400 15.576,20.400 16.620 C 20.400 17.664,20.403 17.709,20.490 17.879 C 20.656 18.203,20.637 18.200,22.429 18.200 L 24.000 18.200 24.000 16.600 L 24.000 15.000 22.450 15.001 C 20.920 15.001,20.898 15.002,20.740 15.091 " stroke="none" fill="black" fill-rule="evenodd"></path></svg>