<svg role="img" xmlns="http://www.w3.org/2000/svg" viewBox="0 0 24 24"><path d="M14.080 2.197 C 13.836 2.272,13.310 2.618,13.094 2.847 C 12.854 3.102,12.502 4.059,12.361 4.845 C 12.316 5.092,12.280 5.345,12.280 5.407 C 12.280 5.469,12.268 5.520,12.254 5.520 C 12.240 5.520,12.002 5.441,11.724 5.345 C 10.356 4.869,9.288 4.736,8.450 4.939 C 7.025 5.285,6.029 5.981,5.212 7.201 C 4.914 7.645,4.658 8.169,4.194 9.280 C 4.065 9.589,3.760 10.506,3.760 10.584 C 3.760 10.595,3.828 10.554,3.910 10.494 L 4.060 10.383 3.963 10.492 C 3.888 10.575,3.815 10.800,3.653 11.448 C 3.442 12.287,3.440 12.300,3.440 12.908 L 3.440 13.522 3.560 13.460 C 3.626 13.426,3.680 13.381,3.680 13.360 C 3.680 13.339,3.708 13.128,3.743 12.891 C 3.788 12.583,3.896 12.185,4.123 11.498 C 4.297 10.969,4.440 10.515,4.440 10.489 C 4.440 10.464,4.416 10.452,4.386 10.463 C 4.357 10.474,4.307 10.453,4.276 10.415 C 4.225 10.353,4.229 10.349,4.321 10.372 C 4.420 10.397,4.427 10.384,4.634 9.769 C 4.893 9.003,5.272 8.200,5.628 7.665 C 6.098 6.959,6.909 6.196,7.420 5.981 C 7.882 5.786,8.918 5.459,9.200 5.420 C 9.456 5.384,10.133 5.462,10.612 5.582 C 11.225 5.736,12.224 6.145,12.321 6.281 C 12.398 6.390,12.559 6.975,12.560 7.150 C 12.560 7.283,12.793 7.988,12.921 8.242 C 13.115 8.626,13.328 8.854,13.773 9.152 C 14.647 9.736,15.094 9.920,15.639 9.920 C 16.211 9.920,16.814 9.753,17.055 9.527 C 17.118 9.468,17.309 9.213,17.480 8.960 C 17.650 8.707,17.866 8.425,17.959 8.334 L 18.128 8.168 18.594 8.360 C 19.623 8.785,19.740 8.866,20.049 9.369 C 20.120 9.485,20.238 9.668,20.311 9.776 C 20.383 9.883,20.460 10.052,20.482 10.150 C 20.504 10.248,20.549 10.379,20.581 10.442 C 20.613 10.505,20.640 10.574,20.640 10.596 C 20.640 10.654,20.213 10.972,19.917 11.135 C 19.776 11.212,19.471 11.339,19.239 11.417 C 18.776 11.571,17.603 11.840,17.393 11.840 C 17.210 11.839,16.988 11.775,16.673 11.632 L 16.405 11.510 15.856 11.798 C 15.554 11.956,15.173 12.129,15.009 12.182 C 14.601 12.316,14.068 12.377,13.794 12.322 C 13.676 12.299,13.472 12.261,13.341 12.238 C 13.210 12.214,13.098 12.191,13.093 12.187 C 13.088 12.182,13.135 11.989,13.196 11.759 C 13.257 11.528,13.320 11.290,13.335 11.228 L 13.363 11.116 13.154 11.128 C 12.950 11.140,12.943 11.144,12.854 11.324 C 12.683 11.666,12.640 11.932,12.640 12.631 C 12.640 13.074,12.627 13.276,12.598 13.259 C 12.512 13.206,12.357 12.911,12.298 12.690 C 12.243 12.482,12.244 12.401,12.304 11.846 C 12.362 11.323,12.363 11.227,12.316 11.197 C 12.053 11.030,11.760 11.474,11.760 12.038 C 11.760 12.267,11.748 12.318,11.690 12.335 C 11.168 12.483,10.318 12.497,9.700 12.368 C 9.480 12.322,9.156 12.264,8.980 12.239 C 8.564 12.181,8.390 12.136,8.112 12.012 C 7.890 11.913,7.883 11.905,7.842 11.705 C 7.819 11.592,7.796 11.457,7.790 11.404 C 7.782 11.328,7.743 11.297,7.601 11.256 C 7.502 11.227,7.410 11.216,7.396 11.231 C 7.361 11.271,7.179 11.771,7.101 12.040 C 7.019 12.326,6.981 12.793,7.031 12.920 C 7.053 12.975,7.181 13.169,7.315 13.350 C 7.450 13.532,7.560 13.697,7.560 13.717 C 7.560 13.738,7.456 13.765,7.330 13.779 C 7.204 13.793,7.028 13.820,6.940 13.839 L 6.780 13.875 6.925 13.758 L 7.070 13.640 6.893 13.290 C 6.540 12.593,6.534 11.846,6.879 11.362 C 6.988 11.208,6.981 11.148,6.837 11.003 C 6.612 10.778,6.548 10.809,5.929 11.432 C 5.324 12.040,5.210 12.208,4.800 13.108 L 4.566 13.620 4.263 13.632 L 3.960 13.643 3.960 13.015 C 3.960 12.669,3.950 12.396,3.938 12.408 C 3.926 12.420,3.883 12.650,3.842 12.918 C 3.801 13.187,3.761 13.411,3.754 13.417 C 3.746 13.423,3.636 13.478,3.509 13.539 C 3.350 13.616,3.098 13.680,2.689 13.748 C 2.120 13.843,2.089 13.844,1.780 13.783 C 1.604 13.748,1.397 13.720,1.320 13.720 C 1.168 13.720,0.750 13.840,0.290 14.016 L 0.000 14.127 -0.000 14.462 C -0.000 14.891,0.061 15.172,0.188 15.323 C 0.391 15.563,0.365 15.560,2.138 15.560 C 3.030 15.560,3.760 15.569,3.760 15.579 C 3.760 15.661,3.988 16.665,4.086 17.016 C 4.306 17.801,4.493 18.221,4.997 19.055 C 5.886 20.526,6.480 21.206,7.184 21.555 C 7.565 21.744,7.848 21.804,8.485 21.828 C 9.090 21.851,9.583 21.807,9.920 21.698 C 10.019 21.666,10.253 21.550,10.440 21.440 C 10.627 21.330,10.870 21.210,10.980 21.174 C 11.270 21.078,11.353 21.012,11.468 20.785 C 11.814 20.101,11.848 19.379,11.575 18.522 C 11.439 18.097,10.982 17.196,10.792 16.980 C 10.495 16.643,10.081 16.468,9.406 16.396 C 8.872 16.339,8.728 16.374,8.390 16.642 C 8.253 16.751,7.991 16.941,7.809 17.065 C 7.603 17.204,7.429 17.359,7.349 17.474 C 7.236 17.637,7.220 17.692,7.220 17.920 C 7.220 18.168,7.231 18.197,7.458 18.559 C 7.749 19.022,7.965 19.245,8.217 19.341 C 8.387 19.406,8.436 19.409,8.654 19.364 C 9.192 19.254,9.640 18.946,9.640 18.686 C 9.640 18.529,9.489 18.319,9.299 18.211 C 9.112 18.105,8.764 17.983,8.734 18.013 C 8.723 18.024,8.735 18.170,8.762 18.338 C 8.789 18.505,8.803 18.650,8.793 18.661 C 8.783 18.671,8.646 18.589,8.490 18.479 C 8.212 18.283,8.207 18.276,8.242 18.152 C 8.283 18.009,8.486 17.782,8.647 17.697 C 8.705 17.667,8.947 17.586,9.184 17.517 L 9.614 17.393 9.686 17.486 C 9.839 17.685,10.202 18.475,10.279 18.777 C 10.381 19.174,10.384 19.728,10.286 20.039 C 10.230 20.219,10.182 20.286,10.019 20.410 C 9.604 20.726,8.934 20.812,8.217 20.641 C 7.740 20.528,7.408 20.356,7.076 20.048 C 6.725 19.723,6.523 19.461,6.162 18.863 C 5.323 17.474,4.997 16.637,4.986 15.840 L 4.980 15.460 5.573 15.449 L 6.167 15.438 6.562 15.619 C 7.007 15.823,7.132 15.837,7.548 15.730 C 7.795 15.667,8.037 15.661,10.157 15.672 L 12.495 15.684 12.726 15.858 C 13.112 16.149,13.368 16.149,13.722 15.859 L 13.939 15.680 14.880 15.680 L 15.820 15.680 15.937 15.865 C 16.286 16.418,16.772 16.760,17.208 16.760 C 17.758 16.760,18.329 16.433,18.807 15.844 L 18.950 15.667 19.285 15.734 C 19.469 15.770,19.760 15.800,19.930 15.800 C 20.203 15.800,20.286 15.781,20.611 15.642 C 21.119 15.425,21.569 15.310,22.740 15.101 C 24.057 14.865,23.977 14.891,23.992 14.694 L 24.004 14.533 23.746 14.406 C 23.385 14.228,22.993 14.137,22.188 14.042 C 21.807 13.997,21.316 13.922,21.098 13.876 C 20.730 13.797,20.622 13.793,19.667 13.815 L 18.633 13.839 18.467 13.725 C 18.041 13.433,17.647 13.294,17.446 13.364 C 17.377 13.388,17.320 13.421,17.320 13.438 C 17.320 13.454,17.424 13.490,17.550 13.518 C 17.817 13.578,18.093 13.699,18.168 13.790 C 18.215 13.847,18.183 13.851,17.840 13.827 C 17.299 13.790,17.223 13.764,17.207 13.607 C 17.193 13.461,17.193 13.461,16.980 13.560 L 16.820 13.634 17.000 13.637 L 17.180 13.640 16.912 13.801 C 16.621 13.976,16.425 14.183,16.357 14.389 C 16.333 14.462,16.297 14.511,16.277 14.498 C 16.206 14.455,16.241 14.306,16.378 14.061 L 16.516 13.813 16.413 13.657 C 16.356 13.571,16.179 13.365,16.018 13.200 C 15.740 12.914,15.520 12.628,15.520 12.554 C 15.520 12.535,15.609 12.520,15.718 12.520 C 15.894 12.520,15.927 12.534,16.015 12.651 C 16.070 12.722,16.205 12.974,16.316 13.211 C 16.515 13.638,16.517 13.640,16.658 13.640 C 16.736 13.640,16.800 13.633,16.800 13.625 C 16.800 13.617,16.740 13.477,16.666 13.315 C 16.526 13.005,16.302 12.365,16.326 12.341 C 16.334 12.334,16.511 12.371,16.720 12.424 C 17.144 12.531,17.175 12.529,18.140 12.335 C 19.024 12.157,19.629 11.938,20.140 11.610 C 20.474 11.395,20.991 10.942,21.051 10.812 C 21.115 10.671,20.994 10.294,20.715 9.765 C 20.582 9.515,20.489 9.296,20.507 9.280 C 20.525 9.264,20.710 9.185,20.919 9.105 C 21.323 8.949,21.329 8.944,21.715 8.437 C 22.281 7.692,22.755 6.368,22.766 5.500 C 22.773 4.975,22.439 4.044,22.105 3.655 C 21.804 3.306,21.012 3.133,20.187 3.237 C 19.603 3.311,18.957 3.488,18.721 3.639 C 18.609 3.711,18.363 3.893,18.174 4.045 C 17.985 4.196,17.813 4.320,17.793 4.320 C 17.630 4.320,17.388 4.073,16.846 3.351 C 16.314 2.642,15.792 2.246,15.324 2.194 C 14.983 2.156,14.209 2.158,14.080 2.197 M15.507 2.880 C 15.827 3.038,16.202 3.396,16.448 3.780 C 16.631 4.065,16.846 4.287,17.148 4.501 C 17.299 4.608,17.324 4.651,17.396 4.920 C 17.639 5.831,17.604 6.834,17.297 7.756 C 17.087 8.386,16.911 8.691,16.623 8.925 C 16.221 9.251,16.046 9.320,15.619 9.320 C 15.165 9.320,14.760 9.221,14.333 9.007 C 14.008 8.843,13.560 8.510,13.560 8.432 C 13.560 8.408,13.495 8.325,13.416 8.248 C 13.253 8.090,13.151 7.874,13.033 7.440 C 12.988 7.275,12.909 7.012,12.857 6.856 C 12.667 6.287,12.654 5.494,12.822 4.825 C 13.134 3.585,13.548 3.054,14.380 2.822 C 14.859 2.688,15.146 2.703,15.507 2.880 M20.886 3.738 C 21.559 3.880,21.924 4.262,22.100 5.010 C 22.248 5.640,22.113 6.381,21.698 7.209 C 21.392 7.818,21.276 7.968,20.806 8.357 C 20.565 8.557,20.319 8.777,20.260 8.847 C 20.175 8.949,20.146 8.963,20.117 8.917 C 20.097 8.886,20.081 8.847,20.081 8.831 C 20.079 8.764,19.563 8.258,19.346 8.110 C 19.078 7.929,18.585 7.691,18.200 7.557 L 17.940 7.467 17.940 6.223 L 17.940 4.980 18.240 4.678 C 18.470 4.446,18.624 4.333,18.900 4.193 C 19.285 3.998,19.749 3.832,20.164 3.742 C 20.494 3.670,20.566 3.670,20.886 3.738 M21.062 5.496 C 20.888 5.538,20.842 5.573,20.672 5.794 C 20.567 5.932,20.480 6.085,20.480 6.134 C 20.480 6.259,20.772 6.543,20.983 6.623 C 21.164 6.692,21.287 6.682,21.417 6.587 C 21.529 6.505,21.556 5.930,21.462 5.645 C 21.387 5.420,21.385 5.420,21.062 5.496 M14.048 6.040 C 13.846 6.132,13.760 6.296,13.760 6.593 C 13.760 6.842,13.869 7.009,14.165 7.213 C 14.361 7.348,14.405 7.363,14.538 7.338 C 14.723 7.303,14.936 7.123,15.051 6.904 C 15.152 6.711,15.174 6.254,15.088 6.149 C 14.936 5.967,14.346 5.905,14.048 6.040 M6.344 11.910 C 6.243 12.342,6.279 12.737,6.461 13.179 C 6.514 13.310,6.543 13.433,6.525 13.451 C 6.460 13.516,6.053 13.600,5.676 13.625 L 5.292 13.651 5.267 13.553 C 5.202 13.294,5.356 12.819,5.696 12.229 C 5.907 11.862,5.972 11.813,6.255 11.804 C 6.360 11.800,6.367 11.809,6.344 11.910 M7.900 12.403 C 8.054 12.429,8.276 12.486,8.394 12.530 C 8.602 12.607,8.608 12.612,8.582 12.734 C 8.567 12.803,8.544 12.920,8.532 12.993 C 8.513 13.102,8.457 13.161,8.209 13.333 C 8.044 13.447,7.884 13.558,7.852 13.580 C 7.809 13.610,7.771 13.591,7.702 13.505 C 7.557 13.326,7.480 13.029,7.480 12.653 C 7.480 12.349,7.487 12.317,7.550 12.336 C 7.589 12.347,7.746 12.378,7.900 12.403 M13.534 12.807 C 13.614 12.850,14.225 12.821,14.614 12.755 C 14.880 12.710,14.918 12.730,15.121 13.020 C 15.183 13.108,15.421 13.342,15.651 13.540 C 15.976 13.820,16.056 13.908,16.010 13.935 C 15.919 13.988,15.092 13.922,14.833 13.841 C 14.579 13.762,14.328 13.584,14.241 13.421 C 14.189 13.325,14.169 13.318,14.022 13.343 C 13.802 13.379,13.659 13.458,13.553 13.601 C 13.450 13.741,13.386 13.748,13.210 13.640 L 13.080 13.561 13.080 13.136 L 13.080 12.711 13.270 12.739 C 13.375 12.755,13.493 12.786,13.534 12.807 M12.034 13.028 C 12.200 13.222,12.377 13.541,12.421 13.724 C 12.444 13.821,12.434 13.831,12.293 13.853 C 11.777 13.934,9.738 13.911,9.650 13.823 C 9.640 13.813,9.698 13.606,9.779 13.363 L 9.927 12.920 10.513 12.915 C 10.836 12.913,11.217 12.897,11.360 12.881 C 11.869 12.824,11.858 12.822,12.034 13.028 M9.335 13.210 C 9.351 13.394,9.342 13.573,9.310 13.700 C 9.263 13.889,9.252 13.901,9.120 13.910 C 9.043 13.915,8.885 13.897,8.769 13.870 L 8.558 13.820 8.749 13.680 C 8.894 13.573,8.978 13.464,9.097 13.230 C 9.184 13.059,9.267 12.920,9.282 12.920 C 9.297 12.920,9.320 13.050,9.335 13.210 M13.416 13.885 C 13.712 13.595,14.010 13.526,14.190 13.707 L 14.297 13.813 14.013 13.942 C 13.702 14.084,13.427 14.326,13.384 14.498 C 13.365 14.573,13.403 14.777,13.501 15.127 C 13.580 15.413,13.638 15.666,13.630 15.691 C 13.622 15.715,13.540 15.659,13.449 15.565 C 13.247 15.356,13.138 15.078,13.057 14.565 C 12.995 14.174,12.914 13.805,12.859 13.660 C 12.842 13.616,12.924 13.685,13.040 13.813 L 13.251 14.046 13.416 13.885 M1.640 13.893 C 1.865 13.952,1.861 14.010,1.613 14.315 C 1.394 14.584,1.396 14.665,1.637 15.071 C 1.727 15.221,1.800 15.369,1.800 15.398 C 1.800 15.441,1.675 15.447,1.150 15.430 C 0.792 15.418,0.451 15.390,0.392 15.366 C 0.313 15.335,0.272 15.279,0.239 15.155 C 0.162 14.872,0.215 14.737,0.505 14.467 C 0.647 14.334,0.820 14.139,0.889 14.033 L 1.013 13.840 1.237 13.843 C 1.360 13.845,1.541 13.868,1.640 13.893 M2.500 13.990 C 2.256 14.592,2.231 14.767,2.354 15.008 L 2.428 15.153 2.325 15.200 C 2.235 15.241,2.212 15.235,2.145 15.153 C 2.103 15.102,2.016 14.947,1.953 14.808 L 1.838 14.557 1.923 14.268 C 1.970 14.110,2.017 13.967,2.027 13.950 C 2.037 13.933,2.154 13.920,2.287 13.920 C 2.501 13.920,2.525 13.928,2.500 13.990 M3.033 14.245 C 2.982 14.336,2.899 14.438,2.848 14.471 L 2.757 14.531 2.843 14.623 C 2.994 14.784,2.989 15.200,2.835 15.200 C 2.739 15.200,2.640 15.032,2.640 14.869 C 2.640 14.584,2.928 14.080,3.091 14.080 C 3.110 14.080,3.083 14.154,3.033 14.245 M6.733 14.692 C 6.791 14.791,6.979 15.001,7.149 15.159 L 7.460 15.446 7.180 15.341 C 6.816 15.206,6.510 15.001,6.359 14.792 C 6.163 14.521,6.163 14.460,6.365 14.255 L 6.540 14.077 6.584 14.294 C 6.607 14.413,6.675 14.592,6.733 14.692 M5.317 14.164 C 5.418 14.185,5.542 14.235,5.594 14.274 C 5.684 14.344,5.685 14.350,5.624 14.497 C 5.565 14.639,5.551 14.647,5.430 14.625 C 5.359 14.611,4.864 14.588,4.330 14.574 C 3.290 14.547,3.286 14.545,3.442 14.346 C 3.519 14.249,3.683 14.180,3.920 14.147 C 4.148 14.115,5.148 14.127,5.317 14.164 M7.852 14.201 C 7.909 14.246,7.967 14.318,7.980 14.361 C 7.994 14.404,8.027 14.440,8.053 14.440 C 8.079 14.440,8.233 14.479,8.396 14.527 L 8.692 14.615 8.456 14.665 C 8.163 14.727,7.972 14.732,7.940 14.680 C 7.926 14.658,7.735 14.640,7.503 14.640 L 7.090 14.640 7.070 14.450 C 7.059 14.345,7.037 14.228,7.021 14.190 C 6.994 14.126,7.025 14.120,7.370 14.120 C 7.690 14.120,7.765 14.133,7.852 14.201 M19.703 14.290 C 19.821 14.362,19.918 14.431,19.919 14.445 C 19.919 14.458,19.808 14.494,19.670 14.525 C 19.382 14.588,18.170 14.589,17.360 14.525 C 16.749 14.477,16.715 14.467,16.773 14.343 C 16.815 14.254,16.842 14.250,17.538 14.212 C 17.935 14.191,18.536 14.171,18.874 14.167 L 19.488 14.160 19.703 14.290 M21.300 14.240 C 21.514 14.284,21.739 14.320,21.800 14.320 C 21.964 14.320,22.006 14.399,21.992 14.686 L 21.980 14.939 21.580 15.049 C 20.821 15.257,20.579 15.316,20.370 15.343 L 20.160 15.370 20.160 15.109 C 20.160 14.869,20.170 14.839,20.275 14.754 C 20.338 14.702,20.421 14.641,20.460 14.619 C 20.507 14.591,20.537 14.510,20.550 14.369 L 20.570 14.160 20.741 14.160 C 20.834 14.160,21.086 14.196,21.300 14.240 M15.873 14.349 C 15.851 14.537,15.743 14.559,14.829 14.559 C 14.108 14.560,13.994 14.552,13.973 14.497 C 13.905 14.320,14.241 14.252,15.213 14.245 L 15.885 14.240 15.873 14.349 M11.774 14.426 L 12.440 14.453 12.440 14.646 L 12.440 14.840 11.070 14.841 C 9.777 14.842,9.680 14.837,9.350 14.752 C 9.158 14.702,9.000 14.649,9.000 14.634 C 9.000 14.602,9.461 14.495,9.820 14.444 C 10.128 14.400,10.927 14.393,11.774 14.426 M19.037 14.899 C 19.330 14.923,19.440 14.996,19.440 15.166 C 19.440 15.269,19.427 15.280,19.304 15.280 C 19.230 15.280,19.027 15.251,18.854 15.215 C 18.575 15.157,18.489 15.156,18.080 15.204 C 17.525 15.270,16.821 15.271,16.519 15.206 C 16.356 15.170,16.179 15.169,15.839 15.199 C 15.587 15.221,15.043 15.239,14.630 15.240 L 13.880 15.240 13.880 15.101 C 13.880 14.982,13.897 14.957,13.990 14.933 C 14.095 14.906,14.877 14.898,16.560 14.909 C 16.989 14.912,17.592 14.901,17.900 14.885 C 18.452 14.855,18.528 14.856,19.037 14.899 M4.839 14.980 C 5.203 15.013,5.598 15.044,5.717 15.050 C 5.836 15.055,5.940 15.080,5.949 15.105 C 5.968 15.163,4.320 15.222,3.851 15.181 C 3.566 15.156,3.525 15.142,3.487 15.059 C 3.452 14.982,3.456 14.962,3.512 14.947 C 3.657 14.909,4.207 14.923,4.839 14.980 M12.093 15.119 C 12.376 15.138,12.618 15.165,12.632 15.178 C 12.646 15.192,12.638 15.234,12.614 15.272 C 12.575 15.335,12.382 15.341,10.185 15.350 L 7.799 15.361 7.720 15.230 C 7.676 15.159,7.640 15.084,7.640 15.064 C 7.640 15.021,11.315 15.066,12.093 15.119 M4.355 15.506 C 4.479 15.540,4.602 15.819,4.762 16.430 C 5.076 17.630,5.154 17.843,5.447 18.300 C 5.546 18.454,5.761 18.830,5.924 19.137 C 6.256 19.761,6.448 19.994,7.040 20.493 C 7.624 20.984,8.074 21.160,8.753 21.160 C 9.409 21.160,9.911 20.967,10.322 20.557 C 10.604 20.277,10.661 20.098,10.657 19.520 C 10.654 19.157,10.635 19.047,10.523 18.714 C 10.451 18.502,10.291 18.124,10.166 17.874 C 9.906 17.352,9.745 17.196,9.391 17.122 C 8.804 17.000,8.077 17.426,7.875 18.009 C 7.806 18.212,7.803 18.214,7.802 18.080 C 7.801 17.777,8.066 17.376,8.426 17.137 C 9.246 16.593,10.123 16.815,10.557 17.674 C 10.726 18.009,11.071 18.968,11.120 19.242 C 11.217 19.774,10.990 20.415,10.568 20.806 C 10.440 20.924,10.194 21.093,10.021 21.180 L 9.706 21.340 8.843 21.336 C 8.029 21.332,7.964 21.326,7.693 21.231 C 7.278 21.085,6.884 20.805,6.356 20.281 C 5.843 19.772,5.699 19.562,5.099 18.440 C 4.905 18.077,4.704 17.712,4.652 17.629 C 4.534 17.440,4.388 16.893,4.282 16.240 C 4.237 15.965,4.190 15.682,4.178 15.610 C 4.155 15.472,4.177 15.459,4.355 15.506 M17.100 15.807 C 17.408 15.935,17.684 16.040,17.713 16.040 C 17.743 16.040,17.860 15.958,17.974 15.859 C 18.195 15.664,18.336 15.605,18.434 15.667 C 18.546 15.738,18.522 15.779,18.269 15.951 C 17.747 16.305,17.342 16.372,17.036 16.155 C 16.813 15.997,16.627 15.823,16.469 15.624 C 16.352 15.479,16.351 15.472,16.442 15.521 C 16.496 15.550,16.792 15.679,17.100 15.807 M9.278 18.483 L 9.409 18.646 9.296 18.764 C 9.153 18.914,8.930 18.974,8.639 18.940 C 8.428 18.915,8.395 18.897,8.195 18.690 L 7.980 18.467 8.180 18.608 C 8.477 18.818,8.618 18.880,8.801 18.880 C 9.074 18.880,9.120 18.834,9.120 18.559 C 9.120 18.427,9.126 18.320,9.133 18.320 C 9.141 18.320,9.206 18.393,9.278 18.483 " stroke="none" fill="black" fill-rule="evenodd"></path></svg>