<svg role="img" viewBox="0 0 24 24" xmlns="http://www.w3.org/2000/svg"><path d="M2.620 0.029 C 1.924 0.125,1.220 0.488,0.765 0.984 C -0.406 2.262,-0.199 4.635,1.361 7.820 C 3.064 11.299,6.834 15.840,10.494 18.822 C 10.682 18.975,10.837 19.110,10.838 19.122 C 10.840 19.145,10.751 19.211,10.080 19.680 C 8.422 20.840,6.669 21.760,5.240 22.220 C 4.244 22.540,3.158 22.677,2.651 22.546 C 1.751 22.314,1.362 21.757,1.361 20.697 C 1.358 19.231,2.214 17.091,3.764 14.686 C 3.982 14.349,4.160 14.065,4.160 14.056 C 4.160 14.047,3.804 14.040,3.370 14.041 L 2.580 14.041 2.314 14.471 C 1.011 16.575,0.298 18.343,0.077 20.020 C 0.010 20.526,0.050 21.373,0.159 21.780 C 0.434 22.804,1.087 23.485,2.092 23.795 C 3.146 24.120,4.700 23.908,6.483 23.197 C 9.226 22.102,12.397 19.913,15.506 16.967 C 16.588 15.942,18.065 14.364,18.813 13.432 C 18.949 13.263,19.070 13.124,19.083 13.122 C 19.116 13.119,19.813 14.134,20.208 14.760 C 21.569 16.918,22.371 18.850,22.527 20.345 C 22.637 21.393,22.370 22.054,21.707 22.379 C 21.332 22.564,21.038 22.615,20.540 22.584 C 19.240 22.502,17.750 21.986,16.020 21.020 C 15.459 20.707,14.529 20.134,14.228 19.916 C 14.140 19.852,14.053 19.800,14.034 19.800 C 14.015 19.800,14.000 20.166,14.000 20.613 L 14.000 21.426 14.590 21.782 C 15.351 22.240,16.874 23.008,17.543 23.270 C 18.212 23.533,18.876 23.734,19.515 23.867 C 19.939 23.956,20.129 23.973,20.700 23.976 C 21.297 23.980,21.419 23.969,21.697 23.888 C 22.887 23.544,23.616 22.753,23.843 21.560 C 23.913 21.193,23.903 20.297,23.823 19.822 C 23.524 18.021,22.419 15.537,20.923 13.302 C 19.062 10.521,16.358 7.538,13.587 5.210 C 13.349 5.010,13.155 4.835,13.155 4.820 C 13.156 4.783,13.688 4.406,14.400 3.938 C 16.391 2.631,18.070 1.841,19.580 1.500 C 20.163 1.368,20.988 1.321,21.324 1.400 C 22.001 1.559,22.428 1.984,22.562 2.631 C 22.645 3.028,22.589 3.933,22.446 4.500 C 22.088 5.923,21.361 7.465,20.198 9.270 L 19.805 9.880 20.635 9.880 L 21.464 9.880 21.890 9.170 C 23.809 5.967,24.435 3.301,23.663 1.614 C 23.399 1.039,23.028 0.683,22.357 0.362 C 21.791 0.091,21.481 0.027,20.740 0.025 C 20.040 0.023,19.697 0.066,19.000 0.240 C 16.533 0.859,13.495 2.613,10.380 5.218 C 8.682 6.638,6.656 8.663,5.226 10.370 L 4.832 10.840 4.621 10.547 C 2.622 7.760,1.360 4.906,1.360 3.169 C 1.360 2.873,1.468 2.381,1.583 2.155 C 1.837 1.652,2.423 1.361,3.180 1.361 C 4.741 1.360,7.073 2.290,9.412 3.846 C 9.671 4.019,9.892 4.160,9.902 4.160 C 9.912 4.160,9.920 3.802,9.920 3.364 L 9.920 2.568 9.370 2.228 C 6.961 0.741,4.813 -0.021,3.112 0.006 C 2.907 0.009,2.686 0.019,2.620 0.029 M12.535 6.151 C 14.440 7.741,16.516 9.825,17.908 11.545 L 18.236 11.951 17.873 12.405 C 16.531 14.083,14.320 16.298,12.488 17.797 C 12.217 18.019,11.980 18.200,11.960 18.200 C 11.941 18.200,11.641 17.961,11.294 17.670 C 9.338 16.026,7.542 14.224,6.088 12.445 L 5.683 11.950 6.079 11.463 C 7.450 9.776,9.511 7.716,11.460 6.084 C 11.724 5.863,11.952 5.687,11.967 5.691 C 11.982 5.696,12.238 5.903,12.535 6.151 M11.580 10.257 C 11.243 10.341,10.991 10.485,10.737 10.738 C 10.027 11.445,10.028 12.551,10.738 13.262 C 11.772 14.295,13.519 13.732,13.767 12.286 C 13.865 11.719,13.682 11.159,13.262 10.737 C 12.811 10.284,12.185 10.105,11.580 10.257 " stroke="none" fill="black" fill-rule="evenodd"></path></svg>