<svg role="img" viewBox="0 0 24 24" xmlns="http://www.w3.org/2000/svg"><path d="M1.400 0.435 C 0.237 0.807,-0.324 2.127,0.216 3.220 C 0.374 3.539,0.691 3.889,0.973 4.054 C 1.330 4.263,1.621 4.330,2.080 4.310 C 2.536 4.290,2.719 4.235,3.065 4.017 C 3.726 3.600,4.090 2.796,3.965 2.034 C 3.844 1.303,3.341 0.701,2.644 0.455 C 2.309 0.336,1.736 0.327,1.400 0.435 M10.444 4.725 C 10.014 4.775,9.359 4.941,8.942 5.105 C 6.977 5.882,5.576 7.558,5.135 9.660 C 5.064 9.999,5.060 10.259,5.060 14.180 L 5.060 18.340 5.153 18.755 C 5.428 19.984,5.967 20.971,6.838 21.842 C 7.689 22.693,8.609 23.205,9.840 23.512 L 10.260 23.617 14.336 23.630 C 18.283 23.642,18.426 23.640,18.890 23.561 C 20.291 23.324,21.607 22.577,22.512 21.509 C 23.204 20.691,23.635 19.809,23.885 18.700 C 23.975 18.303,23.975 18.273,23.990 14.440 C 24.006 10.327,23.998 10.112,23.814 9.360 C 23.542 8.253,23.020 7.337,22.181 6.499 C 21.372 5.689,20.524 5.192,19.452 4.898 C 18.689 4.688,18.525 4.681,14.480 4.686 C 12.423 4.688,10.607 4.706,10.444 4.725 M10.440 7.596 C 11.208 7.838,11.845 8.480,12.091 9.260 C 12.216 9.655,12.216 10.305,12.091 10.700 C 11.843 11.485,11.204 12.124,10.420 12.371 C 10.000 12.503,9.330 12.493,8.927 12.350 C 7.934 11.997,7.275 11.141,7.213 10.126 C 7.139 8.917,7.975 7.810,9.165 7.539 C 9.505 7.462,10.099 7.488,10.440 7.596 M18.225 13.683 C 19.316 13.835,20.323 14.462,20.962 15.387 C 22.059 16.974,21.843 19.144,20.454 20.483 C 19.908 21.010,19.353 21.325,18.664 21.500 C 17.275 21.852,15.855 21.460,14.838 20.442 C 13.741 19.343,13.387 17.696,13.935 16.236 C 14.300 15.263,15.094 14.416,16.034 13.994 C 16.707 13.692,17.490 13.581,18.225 13.683 " stroke="none" fill="black" fill-rule="evenodd"></path></svg>