<svg role="img" xmlns="http://www.w3.org/2000/svg" viewBox="0 0 24 24"><path d="M9.568 3.154 C 9.336 3.236,9.125 3.390,8.954 3.602 C 8.854 3.726,0.455 18.459,0.210 18.940 C -0.010 19.372,-0.053 19.774,0.082 20.135 C 0.169 20.370,0.397 20.635,0.601 20.741 C 0.956 20.924,0.605 20.919,11.965 20.919 C 18.972 20.920,22.743 20.906,22.885 20.880 C 23.838 20.702,24.240 19.922,23.824 19.060 C 23.750 18.906,22.104 15.990,20.167 12.580 C 16.368 5.890,16.475 6.063,16.020 5.855 C 15.828 5.767,15.752 5.754,15.507 5.767 C 14.911 5.800,14.715 5.988,14.034 7.180 C 13.757 7.664,13.515 8.058,13.496 8.055 C 13.477 8.053,12.911 7.081,12.238 5.895 C 11.416 4.449,10.952 3.672,10.825 3.532 C 10.480 3.152,9.989 3.004,9.568 3.154 M11.329 7.132 C 12.052 8.404,12.653 9.468,12.664 9.496 C 12.675 9.524,11.482 11.661,10.013 14.244 C 8.189 17.451,7.311 19.032,7.245 19.230 L 7.148 19.520 4.329 19.520 C 1.861 19.520,1.514 19.513,1.534 19.461 C 1.553 19.412,8.454 7.254,9.592 5.265 C 9.881 4.760,9.938 4.682,9.973 4.745 C 9.995 4.786,10.606 5.861,11.329 7.132 M19.020 13.402 C 20.912 16.724,22.466 19.459,22.474 19.481 C 22.482 19.507,22.032 19.517,21.175 19.511 L 19.863 19.500 19.817 19.338 C 19.748 19.100,19.817 19.226,16.960 14.200 C 15.508 11.646,14.320 9.546,14.320 9.533 C 14.320 9.491,15.534 7.360,15.557 7.361 C 15.570 7.361,17.128 10.080,19.020 13.402 M15.915 15.211 C 17.238 17.538,18.320 19.460,18.320 19.481 C 18.320 19.506,16.581 19.520,13.477 19.520 L 8.633 19.520 8.728 19.350 C 9.308 18.313,13.496 10.963,13.502 10.970 C 13.507 10.976,14.593 12.884,15.915 15.211 " stroke="none" fill="black" fill-rule="evenodd"></path></svg>