<svg role="img" viewBox="0 0 24 24" xmlns="http://www.w3.org/2000/svg"><path d="M10.940 0.046 C 6.672 0.415,2.819 3.157,1.060 7.077 C -1.826 13.507,1.415 21.006,8.089 23.342 C 12.212 24.785,16.891 23.806,20.113 20.825 C 24.476 16.789,25.261 10.286,21.980 5.360 C 20.727 3.478,18.925 1.950,16.890 1.044 C 15.041 0.221,12.957 -0.129,10.940 0.046 M13.219 1.181 C 16.402 1.553,19.204 3.251,21.008 5.900 C 21.957 7.293,22.554 8.860,22.808 10.620 C 22.877 11.100,22.877 12.900,22.808 13.380 C 22.601 14.814,22.136 16.202,21.476 17.352 C 20.979 18.218,20.491 18.864,19.781 19.594 C 18.069 21.355,15.898 22.445,13.380 22.808 C 12.818 22.889,11.054 22.876,10.480 22.787 C 8.770 22.521,7.259 21.934,5.900 21.008 C 5.304 20.602,4.944 20.306,4.406 19.782 C 2.643 18.065,1.555 15.899,1.192 13.380 C 1.111 12.818,1.124 11.054,1.213 10.480 C 1.579 8.131,2.556 6.129,4.139 4.484 C 5.936 2.617,8.183 1.496,10.760 1.180 C 11.354 1.107,12.594 1.108,13.219 1.181 M8.866 2.200 C 7.743 2.856,6.794 4.047,6.364 5.340 C 6.115 6.091,6.013 7.230,6.123 8.027 C 6.189 8.501,6.377 9.186,6.555 9.598 C 6.643 9.801,6.720 9.973,6.727 9.980 C 6.734 9.987,6.997 10.022,7.311 10.058 C 7.981 10.135,8.439 10.258,8.953 10.501 C 9.816 10.909,10.466 11.476,10.994 12.279 C 11.508 13.061,11.760 13.936,11.760 14.940 C 11.760 16.272,11.276 17.446,10.341 18.381 C 9.620 19.102,8.702 19.587,7.720 19.765 C 7.262 19.848,6.346 19.829,5.862 19.727 C 5.643 19.681,5.458 19.649,5.450 19.656 C 5.443 19.664,5.564 19.717,5.718 19.774 C 7.917 20.589,10.354 20.071,12.001 18.440 C 12.293 18.151,12.668 17.681,12.823 17.411 C 12.896 17.283,12.895 17.279,12.803 17.091 C 12.671 16.821,12.498 16.298,12.413 15.911 C 12.357 15.657,12.341 15.418,12.344 14.880 C 12.347 14.229,12.356 14.146,12.473 13.701 C 13.041 11.538,14.967 10.039,17.175 10.040 C 19.281 10.041,21.080 11.314,21.824 13.331 L 21.960 13.700 21.935 13.460 C 21.818 12.334,21.102 10.985,20.155 10.105 C 19.261 9.274,17.946 8.657,16.820 8.541 C 16.688 8.527,16.515 8.507,16.435 8.495 C 16.293 8.475,16.286 8.481,16.108 8.747 C 15.183 10.135,13.665 10.960,12.038 10.960 C 11.263 10.960,10.613 10.821,9.965 10.517 C 7.720 9.466,6.604 6.943,7.344 4.593 C 7.626 3.699,8.125 2.963,8.920 2.270 C 9.063 2.145,9.171 2.043,9.159 2.042 C 9.148 2.041,9.016 2.112,8.866 2.200 " stroke="none" fill="black" fill-rule="evenodd"></path></svg>