<svg role="img" viewBox="0 0 24 24" xmlns="http://www.w3.org/2000/svg"><path d="M10.949 0.040 C 8.551 0.271,6.321 1.168,4.480 2.641 C 3.945 3.069,3.072 3.942,2.650 4.469 C 1.526 5.877,0.750 7.468,0.323 9.241 C 0.094 10.190,0.027 10.789,0.023 11.920 C 0.020 13.031,0.056 13.435,0.240 14.362 C 0.520 15.765,1.065 17.142,1.815 18.340 C 3.434 20.928,5.984 22.816,8.890 23.579 C 9.482 23.735,9.836 23.805,10.540 23.906 C 11.206 24.001,12.784 24.001,13.480 23.906 C 14.916 23.708,16.125 23.340,17.361 22.722 C 17.891 22.457,18.533 22.081,18.724 21.923 L 18.820 21.844 17.279 20.301 L 15.737 18.757 15.307 18.960 C 13.487 19.819,11.375 19.933,9.495 19.275 C 6.901 18.368,5.027 16.227,4.459 13.520 C 4.317 12.846,4.279 11.651,4.376 10.960 C 4.744 8.345,6.382 6.119,8.752 5.014 C 10.741 4.087,13.016 4.045,15.017 4.900 C 15.242 4.996,15.493 5.114,15.576 5.163 L 15.727 5.252 17.284 3.696 C 18.840 2.141,18.840 2.140,18.750 2.072 C 18.584 1.945,17.663 1.410,17.300 1.229 C 16.214 0.688,14.859 0.275,13.598 0.099 C 13.065 0.025,11.470 -0.011,10.949 0.040 M20.291 6.730 L 18.762 8.260 18.957 8.660 C 19.978 10.754,19.972 13.282,18.939 15.378 L 18.761 15.740 20.290 17.270 C 21.131 18.112,21.834 18.800,21.851 18.800 C 21.868 18.800,21.978 18.652,22.096 18.470 C 23.011 17.060,23.614 15.444,23.886 13.680 C 23.963 13.185,23.976 12.939,23.976 12.000 C 23.976 11.066,23.962 10.812,23.887 10.320 C 23.620 8.573,23.009 6.938,22.096 5.530 C 21.978 5.349,21.868 5.200,21.851 5.200 C 21.834 5.200,21.132 5.889,20.291 6.730 " stroke="none" fill="black" fill-rule="evenodd"></path></svg>