<svg role="img" viewBox="0 0 24 24" xmlns="http://www.w3.org/2000/svg"><path d="M15.000 9.359 C 14.559 9.416,14.270 9.558,14.032 9.837 C 13.860 10.038,13.800 10.230,13.800 10.582 C 13.800 11.216,14.100 11.469,15.171 11.738 C 15.823 11.903,15.961 11.958,16.073 12.101 C 16.241 12.314,16.131 12.669,15.862 12.782 C 15.652 12.869,15.321 12.894,15.066 12.841 C 14.770 12.780,14.574 12.615,14.510 12.374 L 14.463 12.200 14.066 12.200 L 13.669 12.200 13.692 12.397 C 13.775 13.098,14.408 13.519,15.380 13.519 C 16.367 13.519,16.960 13.048,16.960 12.263 C 16.959 11.932,16.906 11.765,16.738 11.569 C 16.544 11.341,16.209 11.190,15.524 11.019 C 15.208 10.941,14.898 10.850,14.837 10.818 C 14.496 10.642,14.535 10.210,14.905 10.055 C 15.078 9.983,15.526 9.985,15.701 10.058 C 15.886 10.135,16.033 10.299,16.064 10.465 L 16.089 10.600 16.488 10.600 L 16.887 10.600 16.861 10.430 C 16.770 9.851,16.329 9.459,15.659 9.362 C 15.353 9.318,15.321 9.317,15.000 9.359 M18.760 9.359 C 18.319 9.416,18.030 9.558,17.792 9.837 C 17.620 10.038,17.560 10.230,17.560 10.582 C 17.560 11.216,17.860 11.469,18.931 11.738 C 19.583 11.903,19.721 11.958,19.833 12.101 C 20.001 12.313,19.901 12.644,19.631 12.772 C 19.430 12.868,19.092 12.897,18.826 12.841 C 18.530 12.780,18.334 12.615,18.270 12.374 L 18.223 12.200 17.826 12.200 L 17.429 12.200 17.452 12.397 C 17.535 13.098,18.168 13.519,19.140 13.519 C 20.127 13.519,20.720 13.048,20.720 12.263 C 20.719 11.932,20.666 11.765,20.498 11.569 C 20.304 11.341,19.969 11.190,19.284 11.019 C 18.968 10.941,18.658 10.850,18.597 10.818 C 18.256 10.642,18.295 10.210,18.665 10.055 C 18.838 9.983,19.286 9.985,19.461 10.058 C 19.646 10.135,19.793 10.299,19.824 10.465 L 19.849 10.600 20.244 10.600 C 20.556 10.600,20.640 10.588,20.640 10.544 C 20.640 10.382,20.467 9.959,20.339 9.810 C 20.155 9.595,19.782 9.412,19.420 9.361 C 19.112 9.318,19.080 9.318,18.760 9.359 M1.404 9.423 C 0.387 9.697,-0.191 10.791,0.059 11.970 C 0.263 12.935,0.980 13.520,1.960 13.520 C 2.937 13.520,3.658 12.935,3.860 11.980 C 4.113 10.779,3.534 9.691,2.499 9.421 C 2.207 9.345,1.691 9.346,1.404 9.423 M21.280 11.419 L 21.280 13.440 22.640 13.440 L 24.000 13.440 24.000 13.100 L 24.000 12.760 23.060 12.760 L 22.121 12.760 22.110 11.090 L 22.100 9.420 21.690 9.409 L 21.280 9.397 21.280 11.419 M2.565 9.908 C 2.960 10.085,3.258 10.491,3.362 10.991 C 3.429 11.312,3.390 11.885,3.283 12.166 C 3.041 12.803,2.571 13.106,1.880 13.071 C 1.617 13.058,1.489 13.030,1.314 12.946 C 0.772 12.687,0.486 12.087,0.530 11.300 C 0.571 10.570,0.894 10.071,1.453 9.872 C 1.735 9.771,2.301 9.790,2.565 9.908 M5.476 10.540 C 5.375 10.572,5.209 10.673,5.106 10.763 L 4.920 10.927 4.920 10.743 L 4.920 10.560 4.680 10.560 L 4.439 10.560 4.450 12.610 L 4.460 14.660 4.680 14.660 L 4.900 14.660 4.911 13.889 L 4.922 13.118 5.065 13.257 C 5.267 13.454,5.536 13.534,5.915 13.511 C 6.704 13.464,7.118 12.882,7.071 11.885 C 7.041 11.249,6.817 10.831,6.392 10.616 C 6.140 10.488,5.739 10.455,5.476 10.540 M8.413 10.538 C 7.780 10.736,7.397 11.373,7.450 12.139 C 7.505 12.920,8.015 13.465,8.736 13.511 C 9.386 13.553,9.884 13.229,10.058 12.650 C 10.084 12.564,10.075 12.560,9.866 12.560 L 9.647 12.560 9.560 12.741 C 9.433 13.003,9.199 13.131,8.841 13.134 C 8.458 13.138,8.233 12.999,8.051 12.645 C 7.978 12.505,7.920 12.332,7.920 12.257 L 7.920 12.120 9.025 12.120 L 10.131 12.120 10.110 11.830 C 10.081 11.404,9.952 11.105,9.683 10.839 C 9.520 10.676,9.403 10.599,9.245 10.548 C 8.994 10.468,8.649 10.464,8.413 10.538 M11.647 10.556 C 11.524 10.599,11.368 10.694,11.277 10.783 L 11.120 10.936 11.120 10.748 L 11.120 10.560 10.900 10.560 L 10.680 10.560 10.680 12.000 L 10.680 13.440 10.898 13.440 L 11.115 13.440 11.128 12.407 L 11.140 11.374 11.247 11.212 C 11.516 10.807,12.253 10.756,12.479 11.128 C 12.555 11.252,12.560 11.327,12.560 12.350 L 12.560 13.440 12.803 13.440 L 13.045 13.440 13.033 12.290 C 13.022 11.342,13.008 11.115,12.956 11.000 C 12.755 10.559,12.191 10.368,11.647 10.556 M9.150 10.902 C 9.231 10.935,9.331 10.994,9.373 11.032 C 9.486 11.134,9.598 11.377,9.626 11.580 L 9.651 11.760 8.785 11.760 C 7.809 11.760,7.867 11.784,8.000 11.429 C 8.180 10.949,8.696 10.712,9.150 10.902 M6.206 10.995 C 6.423 11.133,6.544 11.355,6.604 11.726 C 6.749 12.621,6.288 13.267,5.605 13.126 C 5.319 13.068,5.134 12.919,5.005 12.644 C 4.914 12.449,4.901 12.369,4.901 12.020 C 4.901 11.689,4.917 11.585,4.993 11.420 C 5.163 11.047,5.410 10.882,5.802 10.881 C 5.979 10.880,6.061 10.903,6.206 10.995 " stroke="none" fill="black" fill-rule="evenodd"></path></svg>