<svg role="img" viewBox="0 0 24 24" xmlns="http://www.w3.org/2000/svg"><path d="M11.360 0.040 C 10.607 0.144,9.996 0.337,9.320 0.685 C 6.428 2.176,5.268 5.746,6.730 8.660 C 7.556 10.307,9.016 11.438,10.845 11.847 C 11.206 11.928,11.367 11.940,12.080 11.940 C 12.730 11.940,12.971 11.924,13.240 11.865 C 15.088 11.461,16.564 10.347,17.390 8.733 C 18.572 6.425,18.172 3.692,16.382 1.846 C 15.880 1.328,15.431 0.990,14.840 0.685 C 13.970 0.237,13.226 0.047,12.240 0.021 C 11.899 0.012,11.503 0.021,11.360 0.040 M6.940 10.762 C 6.757 10.818,2.199 13.068,2.116 13.144 C 1.995 13.253,1.907 13.536,1.939 13.708 C 1.993 13.995,3.035 15.629,3.900 16.782 C 5.846 19.376,8.351 21.756,10.980 23.509 C 11.579 23.909,11.677 23.959,11.918 23.987 C 12.200 24.021,12.394 23.939,13.005 23.530 C 16.491 21.196,19.624 17.902,21.751 14.336 C 22.095 13.759,22.134 13.595,21.993 13.320 L 21.900 13.140 19.500 11.945 C 17.927 11.162,17.043 10.744,16.936 10.731 C 16.824 10.717,16.715 10.736,16.594 10.790 C 16.435 10.860,16.380 10.925,16.102 11.364 C 15.477 12.353,14.854 13.207,14.114 14.088 C 13.632 14.661,12.081 16.240,12.000 16.240 C 11.921 16.240,11.063 15.417,10.511 14.813 C 9.543 13.753,8.923 12.959,8.202 11.853 C 7.574 10.889,7.575 10.890,7.450 10.825 C 7.294 10.744,7.082 10.718,6.940 10.762 " stroke="none" fill="black" fill-rule="evenodd"></path></svg>