<svg role="img" xmlns="http://www.w3.org/2000/svg" viewBox="0 0 24 24"><path d="M9.651 1.352 L 7.322 2.700 7.321 3.726 L 7.320 4.753 4.882 6.146 L 2.443 7.540 2.432 10.054 L 2.420 12.569 1.478 13.114 C 0.959 13.414,0.487 13.692,0.427 13.731 L 0.319 13.802 0.330 16.506 L 0.340 19.211 2.690 20.569 L 5.040 21.928 5.850 21.458 C 6.295 21.199,6.678 20.987,6.700 20.987 C 6.722 20.987,7.924 21.665,9.370 22.494 L 12.000 24.002 14.630 22.495 C 16.077 21.666,17.278 20.988,17.301 20.987 C 17.323 20.987,17.706 21.199,18.152 21.457 L 18.963 21.928 19.632 21.544 C 19.999 21.332,21.056 20.721,21.980 20.186 L 23.660 19.212 23.670 16.511 C 23.679 14.241,23.672 13.803,23.625 13.764 C 23.594 13.739,23.121 13.459,22.574 13.143 L 21.580 12.568 21.569 10.054 L 21.558 7.540 19.119 6.147 L 16.680 4.753 16.679 3.727 L 16.678 2.700 14.357 1.360 C 13.081 0.623,12.024 0.017,12.008 0.012 C 11.993 0.008,10.932 0.611,9.651 1.352 M13.560 2.099 C 14.385 2.577,15.072 2.980,15.086 2.994 C 15.101 3.008,14.413 3.421,13.556 3.911 L 12.000 4.802 10.460 3.915 C 9.613 3.428,8.920 3.018,8.920 3.004 C 8.921 2.964,11.977 1.202,12.020 1.217 C 12.042 1.224,12.735 1.621,13.560 2.099 M9.930 4.809 L 11.480 5.697 11.480 7.530 L 11.480 9.363 11.390 9.316 C 11.113 9.170,8.449 7.617,8.390 7.567 C 8.325 7.512,8.320 7.373,8.320 5.714 C 8.320 4.727,8.334 3.920,8.350 3.920 C 8.367 3.920,9.078 4.320,9.930 4.809 M15.590 7.582 C 15.547 7.621,12.862 9.183,12.610 9.316 L 12.520 9.363 12.520 7.531 L 12.520 5.700 14.070 4.810 L 15.620 3.919 15.630 5.728 C 15.639 7.142,15.630 7.546,15.590 7.582 M18.873 7.200 L 20.519 8.140 20.520 10.049 L 20.520 11.959 20.190 11.765 C 19.272 11.228,19.009 11.080,18.969 11.080 C 18.945 11.080,17.880 11.685,16.602 12.423 L 14.280 13.767 14.281 16.493 L 14.281 19.220 15.259 19.780 C 15.797 20.088,16.238 20.350,16.238 20.362 C 16.239 20.373,15.287 20.928,14.122 21.593 L 12.005 22.803 9.886 21.592 C 8.720 20.926,7.774 20.369,7.783 20.355 C 7.792 20.340,8.232 20.079,8.760 19.774 L 9.720 19.220 9.710 16.486 L 9.700 13.752 7.420 12.432 C 6.166 11.705,5.110 11.102,5.074 11.092 C 5.036 11.081,4.679 11.263,4.244 11.515 L 3.480 11.957 3.481 10.048 L 3.482 8.140 5.343 7.080 C 6.366 6.497,7.230 6.014,7.261 6.007 C 7.310 5.996,7.320 6.161,7.329 7.085 L 7.340 8.175 9.640 9.507 C 10.905 10.239,11.967 10.838,12.000 10.838 C 12.033 10.839,13.095 10.240,14.360 9.508 L 16.660 8.177 16.671 7.066 L 16.681 5.955 16.954 6.107 C 17.105 6.191,17.968 6.683,18.873 7.200 M6.612 13.165 C 7.452 13.651,8.144 14.053,8.149 14.057 C 8.172 14.076,5.096 15.820,5.039 15.820 C 4.977 15.820,1.907 14.079,1.930 14.057 C 1.980 14.006,4.992 12.283,5.032 12.282 C 5.060 12.281,5.771 12.678,6.612 13.165 M20.475 13.127 C 21.281 13.593,21.972 13.995,22.010 14.021 C 22.070 14.061,21.861 14.194,20.540 14.954 C 19.693 15.441,18.986 15.840,18.970 15.840 C 18.953 15.840,18.243 15.440,17.390 14.951 C 15.959 14.131,15.847 14.058,15.930 14.013 C 15.980 13.986,16.668 13.586,17.460 13.125 C 18.252 12.663,18.925 12.284,18.955 12.283 C 18.985 12.281,19.669 12.661,20.475 13.127 M2.980 15.869 L 4.500 16.745 4.510 18.589 L 4.521 20.433 2.950 19.522 L 1.380 18.610 1.370 16.780 C 1.361 15.321,1.369 14.955,1.410 14.972 C 1.437 14.984,2.144 15.387,2.980 15.869 M8.680 16.790 L 8.680 18.621 7.142 19.510 C 6.297 20.000,5.594 20.400,5.582 20.400 C 5.569 20.400,5.564 19.578,5.570 18.572 L 5.580 16.745 7.120 15.855 C 7.967 15.365,8.665 14.963,8.670 14.962 C 8.675 14.961,8.680 15.784,8.680 16.790 M16.980 15.913 L 18.420 16.740 18.430 18.574 C 18.437 19.753,18.427 20.402,18.402 20.393 C 18.380 20.386,17.678 19.984,16.842 19.500 L 15.321 18.620 15.320 16.788 L 15.320 14.955 15.430 15.020 C 15.490 15.056,16.188 15.457,16.980 15.913 M22.630 16.786 L 22.620 18.612 21.080 19.506 C 20.233 19.997,19.526 20.399,19.510 20.400 C 19.493 20.400,19.484 19.579,19.490 18.575 L 19.500 16.751 21.040 15.859 C 21.887 15.368,22.594 14.965,22.610 14.963 C 22.627 14.962,22.636 15.782,22.630 16.786 " stroke="none" fill="black" fill-rule="evenodd"></path></svg>