<svg role="img" viewBox="0 0 24 24" xmlns="http://www.w3.org/2000/svg"><path d="M11.318 0.171 C 11.173 0.221,10.954 0.322,10.831 0.397 C 10.671 0.494,9.140 2.001,5.530 5.617 C 0.061 11.093,0.311 10.825,0.137 11.420 C 0.039 11.755,0.047 12.301,0.155 12.640 C 0.292 13.071,0.490 13.351,1.056 13.916 L 1.583 14.442 5.639 10.315 C 7.870 8.046,9.804 6.108,9.937 6.009 C 10.287 5.750,10.751 5.537,11.183 5.437 C 11.501 5.364,11.639 5.354,12.089 5.370 C 12.398 5.382,12.720 5.418,12.860 5.456 C 13.149 5.536,13.609 5.749,13.870 5.923 C 13.974 5.993,15.936 7.924,18.230 10.215 L 22.400 14.379 22.924 13.860 C 23.737 13.055,23.927 12.696,23.929 11.960 C 23.931 11.513,23.812 11.101,23.574 10.727 C 23.443 10.521,20.531 7.605,14.740 1.880 C 13.198 0.356,13.111 0.286,12.560 0.139 C 12.219 0.049,11.634 0.064,11.318 0.171 M11.740 6.506 C 11.511 6.540,11.183 6.648,10.942 6.767 C 10.729 6.873,10.087 7.500,5.574 12.014 C 0.025 17.562,0.317 17.248,0.137 17.862 C 0.046 18.174,0.046 18.705,0.137 19.020 C 0.301 19.583,0.321 19.607,2.357 21.643 C 4.403 23.689,4.433 23.714,4.986 23.857 C 5.298 23.937,5.834 23.938,6.138 23.859 C 6.694 23.714,6.669 23.736,9.430 20.984 L 12.000 18.421 14.570 20.984 C 17.311 23.716,17.285 23.693,17.840 23.857 C 18.257 23.981,18.883 23.936,19.317 23.752 C 19.675 23.600,20.015 23.291,21.763 21.533 C 23.229 20.058,23.567 19.697,23.669 19.500 C 23.864 19.123,23.934 18.829,23.932 18.400 C 23.930 17.935,23.805 17.524,23.544 17.125 C 23.416 16.930,22.061 15.562,18.388 11.921 C 13.125 6.704,13.194 6.768,12.656 6.602 C 12.400 6.523,11.946 6.475,11.740 6.506 " stroke="none" fill="black" fill-rule="evenodd"></path></svg>