<svg role="img" xmlns="http://www.w3.org/2000/svg" viewBox="0 0 24 24"><path d="M16.480 0.075 C 16.045 0.193,2.514 5.039,2.301 5.153 C 1.854 5.393,1.438 5.938,1.301 6.462 C 1.230 6.735,1.221 7.230,1.284 7.460 C 1.390 7.848,6.659 22.570,6.787 22.836 C 7.187 23.664,8.199 24.160,9.074 23.958 C 9.287 23.909,16.982 21.163,17.685 20.886 C 18.717 20.478,19.026 20.253,19.612 19.487 C 20.729 18.025,21.911 15.920,22.461 14.418 C 22.691 13.787,22.775 13.300,22.748 12.742 C 22.721 12.191,22.633 11.798,22.308 10.780 C 21.993 9.794,19.018 1.466,18.874 1.167 C 18.689 0.784,18.337 0.432,17.945 0.239 C 17.438 -0.010,16.982 -0.061,16.480 0.075 M17.284 0.441 C 17.770 0.533,18.218 0.842,18.451 1.243 C 18.534 1.386,21.068 8.412,22.049 11.220 C 22.321 11.997,22.334 12.170,22.152 12.565 C 21.921 13.068,21.655 13.239,20.456 13.655 C 19.199 14.090,18.745 14.327,18.296 14.780 C 17.826 15.254,17.649 15.731,17.724 16.326 C 17.757 16.591,17.851 16.898,18.232 17.986 C 18.476 18.680,18.548 19.119,18.482 19.509 C 18.395 20.022,18.213 20.212,17.534 20.497 C 16.913 20.758,9.139 23.519,8.901 23.563 C 8.192 23.694,7.396 23.247,7.107 22.555 C 7.048 22.415,5.800 18.943,4.334 14.840 L 1.667 7.380 1.664 6.980 C 1.660 6.609,1.669 6.560,1.787 6.311 C 1.930 6.009,2.216 5.681,2.459 5.539 C 2.547 5.487,3.880 4.995,5.420 4.446 C 6.960 3.896,10.112 2.771,12.424 1.946 C 14.736 1.121,16.689 0.439,16.764 0.429 C 17.016 0.399,17.068 0.400,17.284 0.441 M15.287 2.699 C 14.975 2.930,14.720 3.133,14.720 3.152 C 14.720 3.207,14.848 3.577,14.879 3.612 C 14.895 3.629,15.019 3.578,15.155 3.496 C 15.291 3.415,15.408 3.356,15.415 3.365 C 15.443 3.401,16.206 5.567,16.194 5.576 C 16.186 5.581,16.036 5.637,15.860 5.699 C 15.684 5.761,15.536 5.815,15.530 5.819 C 15.514 5.831,15.719 6.415,15.751 6.447 C 15.774 6.470,17.860 5.753,17.907 5.707 C 17.912 5.701,17.872 5.572,17.817 5.419 C 17.762 5.265,17.710 5.118,17.700 5.090 C 17.688 5.054,17.593 5.074,17.355 5.162 C 17.174 5.228,17.013 5.269,16.996 5.251 C 16.971 5.225,15.920 2.337,15.920 2.294 C 15.920 2.244,15.790 2.327,15.287 2.699 M12.460 3.537 C 12.394 3.588,12.129 3.784,11.872 3.973 L 11.404 4.316 11.492 4.558 C 11.540 4.691,11.598 4.800,11.620 4.800 C 11.642 4.800,11.762 4.738,11.887 4.663 C 12.086 4.543,12.117 4.534,12.141 4.593 C 12.155 4.630,12.326 5.101,12.520 5.640 C 12.714 6.179,12.884 6.649,12.899 6.685 C 12.920 6.738,12.860 6.774,12.593 6.872 C 12.300 6.979,12.261 7.004,12.266 7.086 C 12.277 7.237,12.442 7.640,12.493 7.640 C 12.542 7.640,14.566 6.922,14.598 6.893 C 14.618 6.876,14.453 6.365,14.400 6.280 C 14.377 6.243,14.291 6.260,14.042 6.352 L 13.714 6.474 13.667 6.362 C 13.641 6.301,13.395 5.618,13.120 4.846 C 12.845 4.073,12.611 3.442,12.600 3.443 C 12.589 3.443,12.526 3.486,12.460 3.537 M8.566 4.878 C 8.199 5.014,7.929 5.257,7.770 5.597 C 7.549 6.067,7.629 6.861,7.970 7.600 C 8.364 8.452,8.950 8.858,9.647 8.759 C 10.837 8.591,11.215 7.225,10.468 5.784 C 10.274 5.408,9.978 5.092,9.678 4.938 C 9.382 4.786,8.885 4.759,8.566 4.878 M9.228 5.567 C 9.411 5.677,9.542 5.847,9.723 6.207 C 10.102 6.959,10.138 7.859,9.798 8.041 C 9.633 8.129,9.370 8.066,9.198 7.898 C 8.894 7.601,8.593 6.888,8.516 6.282 C 8.458 5.835,8.510 5.662,8.740 5.533 C 8.916 5.434,9.019 5.442,9.228 5.567 M4.760 6.252 C 3.613 6.584,3.357 7.754,4.113 9.220 C 4.288 9.559,4.678 9.967,4.947 10.091 C 5.239 10.226,5.776 10.217,6.086 10.073 C 6.847 9.719,7.100 8.808,6.737 7.727 C 6.430 6.813,5.876 6.270,5.200 6.220 C 5.046 6.208,4.866 6.222,4.760 6.252 M5.171 6.934 C 5.606 7.117,6.080 8.105,6.080 8.828 C 6.080 9.272,5.921 9.503,5.621 9.496 C 5.402 9.492,5.250 9.383,5.061 9.100 C 4.672 8.513,4.434 7.514,4.592 7.136 C 4.644 7.014,4.833 6.888,4.971 6.883 C 5.010 6.881,5.100 6.904,5.171 6.934 M18.011 7.561 C 17.187 7.731,16.729 8.462,16.881 9.366 C 16.996 10.053,17.311 10.719,17.703 11.106 C 18.036 11.435,18.292 11.534,18.740 11.511 C 19.121 11.491,19.359 11.396,19.610 11.165 C 20.188 10.632,20.220 9.594,19.691 8.543 C 19.335 7.834,18.643 7.430,18.011 7.561 M18.331 8.255 C 18.781 8.446,19.240 9.394,19.240 10.130 C 19.240 10.520,19.172 10.697,18.987 10.785 C 18.662 10.940,18.361 10.720,18.058 10.104 C 17.843 9.667,17.720 9.205,17.720 8.836 C 17.720 8.486,17.763 8.381,17.948 8.284 C 18.131 8.187,18.166 8.184,18.331 8.255 M13.876 9.033 C 13.444 9.176,13.146 9.452,12.988 9.855 C 12.877 10.140,12.880 10.705,12.996 11.140 C 13.201 11.905,13.671 12.592,14.152 12.828 C 14.582 13.038,15.191 12.959,15.592 12.643 C 16.231 12.137,16.281 10.978,15.709 9.905 C 15.310 9.156,14.570 8.804,13.876 9.033 M14.504 9.754 C 14.718 9.911,14.769 9.974,14.957 10.324 C 15.159 10.700,15.285 11.167,15.290 11.560 C 15.294 11.868,15.258 11.986,15.108 12.150 C 15.044 12.220,14.983 12.240,14.826 12.240 C 14.638 12.240,14.613 12.227,14.436 12.043 C 13.992 11.583,13.636 10.397,13.796 9.913 C 13.885 9.642,14.241 9.562,14.504 9.754 M10.089 10.400 C 9.847 10.451,9.459 10.668,9.313 10.834 C 9.244 10.913,9.141 11.076,9.084 11.198 C 8.990 11.399,8.980 11.464,8.983 11.880 C 8.986 12.269,9.004 12.393,9.097 12.680 C 9.364 13.498,9.813 14.094,10.300 14.278 C 10.807 14.468,11.495 14.299,11.818 13.905 C 12.302 13.314,12.299 12.410,11.808 11.403 C 11.445 10.659,10.761 10.260,10.089 10.400 M10.462 11.104 C 10.929 11.325,11.390 12.339,11.353 13.063 C 11.342 13.280,11.317 13.385,11.256 13.468 C 11.140 13.625,10.983 13.693,10.813 13.661 C 10.385 13.581,9.847 12.514,9.827 11.708 C 9.819 11.360,9.881 11.194,10.052 11.109 C 10.217 11.027,10.298 11.026,10.462 11.104 M6.140 12.064 C 5.441 12.576,5.489 12.517,5.578 12.770 C 5.618 12.885,5.664 12.995,5.680 13.012 C 5.696 13.030,5.814 12.981,5.943 12.903 C 6.072 12.825,6.191 12.775,6.206 12.791 C 6.230 12.816,7.000 14.937,7.000 14.978 C 7.000 14.987,6.856 15.041,6.680 15.100 C 6.505 15.158,6.352 15.221,6.341 15.239 C 6.316 15.279,6.524 15.880,6.562 15.880 C 6.597 15.880,8.605 15.160,8.666 15.126 C 8.698 15.108,8.677 15.004,8.594 14.775 L 8.476 14.450 8.168 14.565 C 7.999 14.628,7.842 14.680,7.820 14.679 C 7.798 14.679,7.539 14.004,7.243 13.180 C 6.948 12.355,6.696 11.681,6.683 11.681 C 6.671 11.682,6.426 11.854,6.140 12.064 M22.421 13.091 C 22.452 13.214,22.342 13.739,22.196 14.168 C 21.682 15.678,20.166 18.298,19.065 19.580 C 18.933 19.734,18.812 19.875,18.797 19.893 C 18.782 19.912,18.772 19.624,18.775 19.253 C 18.778 18.774,18.764 18.534,18.725 18.420 C 18.695 18.332,18.547 17.926,18.398 17.518 C 17.906 16.176,17.894 15.779,18.328 15.175 C 18.621 14.766,19.378 14.348,20.560 13.942 C 21.423 13.645,21.890 13.417,22.118 13.183 C 22.318 12.978,22.388 12.957,22.421 13.091 M15.364 14.879 C 15.070 15.097,14.810 15.294,14.788 15.316 C 14.737 15.367,14.871 15.840,14.936 15.839 C 14.960 15.839,15.079 15.777,15.200 15.701 C 15.321 15.626,15.431 15.577,15.444 15.592 C 15.457 15.607,15.635 16.088,15.840 16.660 C 16.044 17.232,16.218 17.720,16.227 17.744 C 16.237 17.769,16.107 17.837,15.932 17.900 C 15.760 17.961,15.607 18.023,15.590 18.038 C 15.550 18.073,15.756 18.680,15.808 18.680 C 15.830 18.680,16.301 18.517,16.854 18.319 C 17.407 18.120,17.880 17.951,17.905 17.942 C 17.957 17.924,17.757 17.312,17.693 17.291 C 17.672 17.284,17.534 17.324,17.386 17.379 C 17.239 17.435,17.095 17.480,17.066 17.480 C 17.033 17.480,16.812 16.916,16.477 15.980 C 16.182 15.155,15.931 14.481,15.920 14.481 C 15.909 14.482,15.659 14.661,15.364 14.879 M11.940 15.854 C 11.509 15.997,11.215 16.242,11.045 16.600 C 10.949 16.802,10.940 16.861,10.943 17.320 C 10.946 17.877,11.015 18.147,11.311 18.752 C 11.488 19.115,11.884 19.541,12.165 19.670 C 12.860 19.991,13.728 19.639,14.005 18.926 C 14.137 18.586,14.153 18.030,14.044 17.596 C 13.851 16.827,13.429 16.198,12.940 15.949 C 12.658 15.806,12.212 15.763,11.940 15.854 M12.434 16.537 C 12.727 16.689,13.081 17.254,13.219 17.792 C 13.419 18.575,13.286 19.080,12.880 19.080 C 12.656 19.080,12.514 18.997,12.349 18.771 C 11.939 18.208,11.660 17.203,11.799 16.784 C 11.884 16.525,12.185 16.408,12.434 16.537 M8.460 17.216 C 8.394 17.267,8.139 17.456,7.893 17.636 L 7.445 17.963 7.524 18.190 C 7.567 18.315,7.615 18.431,7.631 18.447 C 7.647 18.462,7.765 18.411,7.893 18.333 C 8.022 18.254,8.140 18.206,8.158 18.225 C 8.187 18.257,8.902 20.231,8.928 20.353 C 8.936 20.387,8.825 20.450,8.621 20.526 C 8.446 20.591,8.295 20.651,8.287 20.660 C 8.273 20.674,8.476 21.320,8.495 21.320 C 8.523 21.320,10.617 20.556,10.634 20.539 C 10.651 20.522,10.460 19.927,10.426 19.892 C 10.419 19.886,10.266 19.934,10.086 20.000 C 9.905 20.066,9.753 20.120,9.747 20.120 C 9.742 20.120,9.495 19.445,9.199 18.620 C 8.903 17.795,8.643 17.121,8.620 17.122 C 8.598 17.123,8.526 17.165,8.460 17.216 " stroke="none" fill="black" fill-rule="evenodd"></path></svg>