<svg role="img" viewBox="0 0 24 24" xmlns="http://www.w3.org/2000/svg"><path d="M0.960 0.042 C 0.960 0.114,1.123 0.411,1.300 0.661 C 1.530 0.985,2.179 1.600,2.642 1.931 C 3.101 2.259,4.001 2.711,4.524 2.875 C 5.318 3.125,5.993 3.250,7.460 3.420 C 9.009 3.599,9.509 3.715,10.180 4.050 C 10.482 4.200,11.050 4.767,11.512 5.380 C 11.822 5.792,11.942 6.008,12.435 7.045 C 12.562 7.311,12.654 7.441,12.836 7.609 C 13.259 8.002,13.907 8.178,14.135 7.964 C 14.192 7.911,14.258 7.807,14.283 7.732 C 14.322 7.612,14.316 7.579,14.234 7.459 C 14.183 7.384,14.052 7.255,13.944 7.171 C 13.180 6.582,13.154 6.548,12.914 5.829 C 12.809 5.516,12.736 5.249,12.752 5.234 C 12.787 5.201,13.277 5.104,13.860 5.015 C 14.442 4.926,15.388 4.928,15.818 5.019 C 16.244 5.109,16.477 5.235,16.822 5.562 C 17.106 5.831,17.493 6.105,17.828 6.274 C 17.920 6.321,18.368 6.486,18.823 6.641 C 19.278 6.796,19.750 6.971,19.872 7.031 C 20.161 7.172,20.456 7.442,20.602 7.696 C 20.723 7.906,20.759 8.069,20.673 8.016 C 20.648 8.000,20.319 7.983,19.943 7.978 C 18.846 7.965,17.472 7.841,16.568 7.674 C 16.319 7.628,16.104 7.602,16.090 7.617 C 16.076 7.631,16.086 7.836,16.112 8.073 C 16.182 8.705,16.098 8.984,15.666 9.559 C 15.415 9.893,15.208 10.053,14.680 10.318 C 13.291 11.018,12.770 11.075,10.978 10.723 C 10.539 10.637,10.002 10.545,9.785 10.518 C 9.068 10.429,8.065 10.526,7.680 10.721 C 7.055 11.038,6.441 12.111,5.823 13.966 C 5.704 14.326,5.371 15.439,5.084 16.440 C 4.324 19.089,4.043 19.911,3.559 20.900 C 2.995 22.056,2.267 22.942,1.504 23.404 C 1.141 23.624,0.920 23.801,0.920 23.871 C 0.920 23.941,1.122 23.961,2.080 23.986 C 3.053 24.011,5.217 23.948,5.876 23.876 C 7.645 23.681,8.852 22.786,9.734 21.016 C 10.128 20.224,10.285 19.792,10.901 17.800 C 11.360 16.314,11.733 15.413,12.133 14.820 C 12.316 14.548,12.705 14.150,12.870 14.066 C 12.930 14.035,13.304 13.952,13.700 13.882 C 17.866 13.145,20.536 11.878,21.969 9.957 C 23.029 8.536,23.319 6.899,22.882 4.795 C 22.672 3.779,22.356 3.166,21.683 2.465 C 20.691 1.435,19.306 0.745,17.499 0.383 C 16.384 0.159,16.403 0.160,9.600 0.120 C 6.135 0.099,2.814 0.065,2.220 0.042 C 0.870 -0.008,0.960 -0.008,0.960 0.042 M2.656 4.342 C 3.205 5.201,3.911 5.878,4.661 6.267 C 5.361 6.629,6.107 6.815,7.440 6.959 C 9.148 7.144,9.738 7.302,10.432 7.761 C 10.770 7.985,10.772 7.979,10.514 7.447 C 10.139 6.672,9.339 6.092,8.066 5.674 C 7.464 5.476,7.235 5.429,6.360 5.320 C 4.922 5.142,4.250 4.948,2.640 4.250 C 2.594 4.230,2.597 4.251,2.656 4.342 M4.000 7.503 C 4.000 7.595,4.223 8.025,4.371 8.220 C 4.865 8.867,5.388 9.229,6.164 9.461 C 6.499 9.561,6.500 9.561,7.350 9.519 C 8.334 9.471,8.877 9.509,9.352 9.660 C 9.520 9.713,9.663 9.750,9.672 9.741 C 9.705 9.708,9.343 9.072,9.194 8.903 C 8.991 8.672,8.626 8.492,8.215 8.420 C 8.040 8.390,7.555 8.346,7.138 8.323 C 6.055 8.263,5.902 8.245,5.500 8.132 C 4.993 7.988,4.591 7.823,4.327 7.649 C 4.202 7.567,4.077 7.486,4.050 7.468 C 4.017 7.447,4.000 7.459,4.000 7.503 " stroke="none" fill="black" fill-rule="evenodd"></path></svg>