<svg role="img" viewBox="0 0 24 24" xmlns="http://www.w3.org/2000/svg"><path d="M10.940 0.046 C 6.662 0.415,2.831 3.136,1.064 7.060 C -0.635 10.832,-0.274 15.209,2.022 18.660 C 4.228 21.976,8.010 24.000,12.000 23.999 C 17.712 23.998,22.644 19.957,23.760 14.362 C 23.938 13.468,23.979 13.024,23.979 12.000 C 23.979 10.976,23.938 10.532,23.760 9.638 C 23.183 6.748,21.574 4.195,19.200 2.404 C 16.856 0.636,13.894 -0.210,10.940 0.046 M13.280 0.943 C 15.111 1.155,16.869 1.820,18.370 2.869 C 18.541 2.988,18.680 3.092,18.680 3.100 C 18.680 3.107,18.561 3.461,18.415 3.887 C 16.245 10.207,11.552 15.209,5.380 17.779 C 4.780 18.029,3.404 18.519,3.140 18.576 C 3.024 18.601,3.011 18.588,2.735 18.171 C 1.847 16.829,1.297 15.439,1.018 13.831 C 0.888 13.079,0.840 11.704,0.918 10.937 C 1.293 7.237,3.401 4.034,6.640 2.239 C 7.909 1.535,9.537 1.036,10.980 0.908 C 11.454 0.865,12.789 0.886,13.280 0.943 M21.916 6.960 C 22.738 8.574,23.120 10.171,23.120 12.000 C 23.120 14.924,22.036 17.624,20.022 19.716 C 17.902 21.918,15.069 23.120,12.000 23.120 C 9.226 23.120,6.656 22.144,4.594 20.307 C 4.223 19.977,3.480 19.211,3.480 19.158 C 3.480 19.123,5.035 18.663,6.020 18.406 C 7.259 18.083,7.868 17.940,10.140 17.435 C 13.373 16.717,14.423 16.443,15.653 15.998 C 16.292 15.767,17.272 15.307,17.785 14.997 C 19.923 13.706,21.308 11.624,21.624 9.228 C 21.743 8.329,21.652 6.977,21.422 6.220 C 21.388 6.110,21.361 6.011,21.361 6.000 C 21.363 5.946,21.671 6.479,21.916 6.960 " stroke="none" fill="black" fill-rule="evenodd"></path></svg>