<svg role="img" viewBox="0 0 24 24" xmlns="http://www.w3.org/2000/svg"><path d="M18.500 0.042 C 18.083 0.099,17.584 0.252,16.822 0.557 C 15.649 1.029,14.991 1.213,13.980 1.356 C 12.893 1.510,12.446 1.529,9.160 1.559 C 5.544 1.592,5.685 1.581,4.801 1.877 C 3.009 2.478,1.546 4.008,1.016 5.836 C 0.775 6.670,0.785 6.399,0.770 12.380 C 0.756 17.914,0.769 18.622,0.901 19.257 C 1.054 20.000,1.357 20.713,1.800 21.372 C 2.673 22.674,3.960 23.533,5.574 23.890 L 5.980 23.980 12.000 23.980 L 18.020 23.980 18.423 23.891 C 20.317 23.471,21.762 22.363,22.601 20.687 C 22.949 19.990,23.136 19.300,23.200 18.465 C 23.250 17.828,23.250 4.416,23.201 3.780 C 23.084 2.277,22.222 1.034,20.853 0.392 C 20.174 0.074,19.267 -0.061,18.500 0.042 M19.698 2.643 C 19.991 2.752,20.324 3.059,20.468 3.352 C 20.567 3.553,20.580 3.624,20.579 3.960 C 20.579 4.276,20.563 4.372,20.486 4.529 C 20.337 4.829,20.105 5.063,19.809 5.209 C 19.570 5.326,19.505 5.340,19.200 5.340 C 18.895 5.340,18.830 5.326,18.591 5.209 C 18.295 5.063,18.063 4.829,17.914 4.529 C 17.837 4.372,17.821 4.276,17.821 3.960 C 17.820 3.624,17.833 3.553,17.932 3.352 C 18.072 3.067,18.409 2.753,18.690 2.645 C 18.978 2.534,19.406 2.533,19.698 2.643 M12.712 6.163 C 13.557 6.256,14.157 6.435,14.980 6.841 C 16.543 7.611,17.744 8.989,18.299 10.650 C 18.574 11.470,18.616 11.753,18.616 12.780 C 18.616 13.582,18.605 13.751,18.528 14.096 C 18.239 15.392,17.681 16.451,16.800 17.375 C 14.308 19.992,10.184 20.124,7.505 17.674 C 6.474 16.731,5.791 15.527,5.473 14.096 C 5.397 13.755,5.384 13.575,5.382 12.800 C 5.380 12.000,5.390 11.851,5.474 11.462 C 5.982 9.098,7.638 7.223,9.875 6.479 C 10.836 6.160,11.754 6.057,12.712 6.163 M11.178 8.138 C 8.567 8.613,6.856 11.131,7.385 13.720 C 7.665 15.086,8.580 16.305,9.800 16.936 C 10.510 17.304,11.225 17.480,12.002 17.480 C 14.245 17.480,16.136 15.932,16.623 13.697 C 16.718 13.261,16.718 12.299,16.623 11.860 C 16.204 9.927,14.716 8.472,12.822 8.141 C 12.400 8.068,11.575 8.066,11.178 8.138 " stroke="none" fill="black" fill-rule="evenodd"></path></svg>