<svg role="img" viewBox="0 0 24 24" xmlns="http://www.w3.org/2000/svg"><path d="M0.000 10.080 L 0.000 10.240 3.600 10.240 L 7.200 10.240 7.200 11.040 L 7.200 11.840 3.600 11.840 L 0.000 11.840 0.000 12.960 L 0.000 14.080 0.139 14.080 L 0.279 14.080 0.289 13.110 L 0.300 12.140 3.891 12.130 L 7.481 12.120 7.471 11.030 L 7.460 9.940 3.730 9.930 L 0.000 9.920 0.000 10.080 M11.280 11.840 L 11.280 13.759 9.370 13.770 L 7.460 13.780 7.460 13.920 L 7.460 14.060 9.530 14.070 L 11.600 14.081 11.600 12.160 L 11.600 10.240 13.500 10.240 L 15.400 10.240 15.400 10.080 L 15.400 9.920 13.340 9.920 L 11.280 9.920 11.280 11.840 M16.520 10.080 L 16.520 10.240 20.120 10.240 L 23.720 10.240 23.720 11.040 L 23.720 11.840 20.120 11.840 L 16.520 11.840 16.520 12.960 L 16.520 14.080 20.260 14.080 L 24.000 14.080 24.000 13.920 L 24.000 13.760 20.420 13.760 L 16.840 13.760 16.840 12.940 L 16.840 12.120 20.420 12.120 L 24.000 12.120 24.000 11.020 L 24.000 9.920 20.260 9.920 L 16.520 9.920 16.520 10.080 " stroke="none" fill="black" fill-rule="evenodd"></path></svg>