<svg role="img" viewBox="0 0 24 24" xmlns="http://www.w3.org/2000/svg"><path d="M5.852 0.077 C 5.170 0.272,4.650 0.843,4.523 1.537 C 4.493 1.704,4.480 5.079,4.480 12.887 L 4.480 24.000 7.460 24.000 L 10.440 24.000 10.440 12.000 L 10.440 0.000 8.270 0.003 C 6.319 0.005,6.075 0.013,5.852 0.077 M13.480 6.002 L 13.480 12.004 15.770 11.992 C 18.057 11.980,18.060 11.980,18.289 11.888 C 18.798 11.682,19.197 11.277,19.396 10.766 L 19.500 10.500 19.511 5.250 L 19.522 -0.000 16.501 -0.000 L 13.480 0.000 13.480 6.002 M13.480 21.022 L 13.480 24.004 15.770 23.992 C 18.057 23.980,18.060 23.980,18.289 23.888 C 18.798 23.682,19.197 23.277,19.396 22.766 L 19.500 22.500 19.512 20.270 L 19.524 18.040 16.502 18.040 L 13.480 18.040 13.480 21.022 " stroke="none" fill="black" fill-rule="evenodd"></path></svg>