<svg role="img" viewBox="0 0 24 24" xmlns="http://www.w3.org/2000/svg"><path d="M12.395 8.566 C 11.969 9.055,11.596 9.488,11.567 9.528 C 11.522 9.591,11.531 9.620,11.637 9.750 C 11.705 9.831,11.760 9.910,11.760 9.925 C 11.760 9.940,11.683 9.991,11.590 10.039 C 11.497 10.087,11.351 10.181,11.267 10.248 L 11.113 10.369 10.987 10.252 C 10.710 9.995,9.777 9.173,9.731 9.146 C 9.698 9.126,9.609 9.260,9.451 9.568 L 9.220 10.020 9.209 9.590 C 9.202 9.354,9.187 9.160,9.175 9.160 C 9.141 9.160,7.022 9.845,7.006 9.861 C 6.998 9.869,7.005 10.139,7.021 10.461 L 7.050 11.046 7.145 11.023 C 7.197 11.010,7.285 10.989,7.340 10.976 C 7.425 10.955,7.440 10.965,7.440 11.046 C 7.441 11.098,7.452 11.235,7.466 11.351 L 7.491 11.562 7.376 11.518 C 6.965 11.360,6.442 11.397,5.974 11.617 L 5.689 11.752 5.674 11.344 C 5.660 10.983,5.644 10.905,5.532 10.678 C 5.362 10.334,5.174 10.122,4.842 9.901 C 4.506 9.678,4.224 9.577,3.767 9.516 C 2.744 9.379,1.376 9.748,0.283 10.455 L 0.002 10.637 0.305 11.149 C 0.472 11.430,0.716 11.844,0.848 12.069 L 1.087 12.478 1.288 12.376 C 1.398 12.320,1.493 12.280,1.500 12.287 C 1.507 12.294,1.911 13.191,2.399 14.280 C 2.887 15.369,3.298 16.273,3.314 16.289 C 3.348 16.324,4.960 15.811,4.960 15.766 C 4.960 15.749,4.834 15.250,4.679 14.657 L 4.399 13.580 4.569 13.430 L 4.740 13.280 4.772 13.564 C 4.824 14.023,4.935 14.262,5.236 14.564 C 5.434 14.761,5.559 14.849,5.734 14.915 C 6.336 15.139,7.002 15.031,7.534 14.623 C 7.641 14.541,7.734 14.481,7.742 14.489 C 7.750 14.497,7.769 14.651,7.784 14.832 C 7.809 15.131,7.819 15.160,7.896 15.158 C 7.942 15.156,8.295 15.107,8.680 15.048 L 9.380 14.940 9.391 14.250 C 9.397 13.870,9.408 13.560,9.416 13.560 C 9.424 13.560,10.145 13.911,11.019 14.340 C 11.894 14.769,12.625 15.120,12.644 15.120 C 12.663 15.120,12.683 14.774,12.689 14.351 L 12.700 13.582 12.900 13.550 C 13.159 13.508,13.569 13.374,13.810 13.254 C 14.029 13.144,14.023 13.126,13.938 13.615 C 13.904 13.810,13.881 13.974,13.888 13.981 C 13.895 13.988,14.287 14.055,14.760 14.130 C 15.357 14.225,15.628 14.254,15.646 14.223 C 15.660 14.200,15.684 14.068,15.699 13.930 C 15.715 13.793,15.740 13.680,15.754 13.681 C 15.768 13.681,15.869 13.852,15.979 14.061 C 16.088 14.269,16.191 14.440,16.208 14.440 C 16.225 14.440,16.291 14.337,16.356 14.210 C 16.490 13.947,16.496 13.955,16.552 14.452 C 16.573 14.645,16.600 14.813,16.611 14.824 C 16.629 14.843,18.570 15.194,18.588 15.182 C 18.593 15.179,18.573 15.032,18.545 14.854 L 18.493 14.531 18.796 14.509 C 18.963 14.498,19.196 14.451,19.314 14.406 L 19.528 14.325 19.501 14.612 C 19.486 14.771,19.466 14.930,19.456 14.966 C 19.436 15.035,19.392 15.025,20.460 15.176 L 20.780 15.221 20.800 15.499 L 20.820 15.777 21.480 15.988 C 21.843 16.104,22.152 16.199,22.166 16.199 C 22.188 16.200,23.953 10.910,23.974 10.783 C 23.983 10.724,22.145 10.283,22.115 10.336 C 22.101 10.360,22.057 10.519,22.018 10.689 C 21.978 10.860,21.940 10.993,21.933 10.987 C 21.927 10.980,21.887 10.808,21.845 10.605 C 21.804 10.402,21.761 10.228,21.751 10.218 C 21.741 10.207,21.284 10.101,20.736 9.980 C 20.188 9.860,19.700 9.752,19.650 9.740 L 19.560 9.718 19.560 10.339 L 19.560 10.959 19.720 10.985 C 19.865 11.008,19.880 11.021,19.880 11.129 C 19.880 11.227,19.868 11.243,19.810 11.219 C 19.294 11.005,18.610 11.048,18.165 11.321 C 18.092 11.367,18.024 11.397,18.014 11.388 C 17.999 11.372,17.680 9.437,17.680 9.357 C 17.680 9.336,17.372 9.320,16.939 9.320 L 16.198 9.320 16.174 9.440 L 16.150 9.560 15.379 9.560 C 14.613 9.560,14.609 9.561,14.588 9.650 C 14.576 9.700,14.536 9.944,14.498 10.192 L 14.430 10.644 14.236 10.427 C 13.919 10.071,13.487 9.842,12.999 9.770 L 12.798 9.740 13.429 9.403 C 13.776 9.218,14.066 9.062,14.073 9.057 C 14.080 9.052,13.880 8.739,13.628 8.362 L 13.171 7.677 12.395 8.566 M13.559 8.930 C 13.560 8.946,13.256 9.112,12.884 9.298 C 12.289 9.596,12.201 9.629,12.156 9.575 C 12.089 9.495,12.100 9.478,12.651 8.818 L 13.094 8.285 13.326 8.593 C 13.454 8.762,13.558 8.913,13.559 8.930 M17.490 10.740 C 17.603 11.471,17.633 11.756,17.602 11.800 C 17.251 12.295,17.142 12.618,17.168 13.093 C 17.197 13.620,17.403 13.983,17.845 14.283 C 18.025 14.406,18.080 14.466,18.080 14.541 C 18.080 14.608,18.058 14.640,18.011 14.640 C 17.848 14.640,17.018 14.502,16.997 14.471 C 16.984 14.453,16.914 14.025,16.840 13.521 C 16.767 13.016,16.694 12.611,16.679 12.620 C 16.664 12.630,16.575 12.840,16.481 13.089 C 16.386 13.337,16.298 13.552,16.284 13.568 C 16.271 13.583,16.125 13.301,15.960 12.942 C 15.795 12.582,15.655 12.293,15.649 12.299 C 15.642 12.305,15.583 12.648,15.517 13.063 C 15.452 13.477,15.394 13.819,15.389 13.822 C 15.371 13.836,14.406 13.659,14.385 13.638 C 14.373 13.626,14.392 13.437,14.427 13.218 C 14.482 12.876,14.509 12.800,14.617 12.680 C 14.685 12.603,14.785 12.490,14.838 12.429 L 14.935 12.319 14.784 12.164 L 14.632 12.009 14.802 10.984 L 14.973 9.960 15.506 9.960 C 15.800 9.960,16.040 9.974,16.040 9.991 C 16.040 10.058,16.271 11.284,16.286 11.300 C 16.295 11.309,16.363 10.970,16.436 10.548 C 16.510 10.126,16.578 9.766,16.588 9.749 C 16.598 9.731,16.771 9.722,16.971 9.729 L 17.336 9.740 17.490 10.740 M8.776 10.050 C 8.789 10.210,8.813 10.520,8.830 10.740 L 8.860 11.140 9.197 10.660 C 9.383 10.396,9.604 10.085,9.689 9.969 L 9.844 9.758 10.322 10.207 C 10.585 10.454,10.800 10.666,10.799 10.678 C 10.799 10.690,10.501 11.013,10.138 11.397 C 9.774 11.780,9.491 12.106,9.509 12.123 C 9.526 12.139,9.807 12.256,10.134 12.384 C 10.667 12.592,10.738 12.631,10.820 12.760 C 11.047 13.120,11.544 13.446,11.996 13.532 L 12.240 13.578 12.240 14.029 C 12.240 14.277,12.231 14.480,12.220 14.480 C 12.209 14.480,11.480 14.120,10.600 13.680 L 9.000 12.880 9.000 13.734 L 9.000 14.588 8.596 14.637 C 8.374 14.663,8.186 14.679,8.178 14.671 C 8.170 14.663,8.151 14.509,8.136 14.329 C 8.111 14.029,8.118 13.981,8.213 13.769 C 8.489 13.154,8.415 12.438,8.028 11.976 C 7.942 11.874,7.925 11.795,7.885 11.320 C 7.859 11.023,7.829 10.702,7.816 10.606 C 7.792 10.421,7.793 10.421,7.515 10.503 C 7.465 10.518,7.444 10.484,7.424 10.356 C 7.409 10.264,7.405 10.181,7.415 10.172 C 7.431 10.156,8.665 9.772,8.727 9.763 C 8.741 9.762,8.764 9.890,8.776 10.050 M4.060 10.012 C 4.488 10.131,4.901 10.436,5.105 10.785 C 5.489 11.440,5.103 12.465,4.217 13.144 C 4.054 13.269,3.920 13.395,3.920 13.424 C 3.920 13.453,4.038 13.929,4.183 14.482 C 4.328 15.035,4.440 15.492,4.433 15.498 C 4.384 15.538,3.558 15.788,3.545 15.767 C 3.536 15.752,3.142 14.876,2.669 13.820 C 2.196 12.764,1.786 11.851,1.759 11.792 L 1.709 11.684 1.564 11.757 C 1.246 11.918,1.279 11.939,0.920 11.333 C 0.546 10.701,0.535 10.777,1.040 10.522 C 1.589 10.244,2.258 10.027,2.820 9.944 C 3.043 9.911,3.858 9.956,4.060 10.012 M13.259 10.267 C 13.481 10.345,13.720 10.492,13.856 10.635 L 13.972 10.757 13.416 11.343 C 13.110 11.666,12.807 11.993,12.742 12.071 L 12.623 12.213 12.815 12.187 C 13.078 12.151,13.313 12.038,13.481 11.868 L 13.622 11.725 13.961 12.029 C 14.147 12.196,14.306 12.347,14.312 12.364 C 14.319 12.381,14.221 12.476,14.094 12.576 C 13.191 13.285,11.937 13.351,11.326 12.722 C 11.073 12.461,10.986 12.240,10.968 11.820 C 10.955 11.523,10.968 11.420,11.039 11.230 C 11.139 10.966,11.444 10.608,11.697 10.460 C 12.167 10.184,12.797 10.107,13.259 10.267 M20.680 10.380 C 21.061 10.457,21.378 10.525,21.384 10.530 C 21.389 10.536,21.499 11.039,21.627 11.649 C 21.755 12.258,21.871 12.744,21.885 12.728 C 21.899 12.713,22.014 12.268,22.140 11.740 C 22.267 11.212,22.373 10.777,22.376 10.772 C 22.383 10.764,23.454 11.000,23.464 11.012 C 23.478 11.028,21.952 15.621,21.922 15.653 C 21.896 15.680,21.218 15.511,21.173 15.466 C 21.164 15.458,21.142 14.863,21.124 14.144 C 21.105 13.425,21.082 12.829,21.072 12.819 C 21.063 12.809,20.976 13.251,20.881 13.801 C 20.683 14.933,20.742 14.836,20.297 14.759 C 19.823 14.677,19.865 14.717,19.894 14.374 C 19.919 14.081,19.926 14.065,20.117 13.856 C 20.735 13.179,20.810 12.189,20.287 11.594 L 20.162 11.452 20.202 11.103 C 20.224 10.912,20.232 10.740,20.221 10.722 C 20.210 10.704,20.138 10.677,20.060 10.663 C 19.922 10.637,19.920 10.633,19.920 10.438 C 19.920 10.329,19.935 10.240,19.953 10.240 C 19.972 10.240,20.298 10.303,20.680 10.380 M12.180 10.856 C 11.788 11.029,11.613 11.503,11.795 11.900 C 11.881 12.086,12.027 12.231,12.074 12.177 C 12.092 12.157,12.318 11.901,12.577 11.609 C 12.844 11.307,13.039 11.054,13.027 11.024 C 13.016 10.994,12.927 10.932,12.831 10.885 C 12.631 10.789,12.360 10.776,12.180 10.856 M14.311 11.351 C 14.286 11.510,14.247 11.640,14.225 11.640 C 14.203 11.640,14.134 11.591,14.072 11.532 L 13.959 11.424 14.147 11.233 C 14.251 11.128,14.340 11.046,14.345 11.052 C 14.351 11.057,14.335 11.192,14.311 11.351 M12.640 11.104 C 12.640 11.155,12.062 11.794,12.032 11.775 C 11.978 11.742,11.997 11.443,12.061 11.319 C 12.094 11.255,12.170 11.175,12.231 11.143 C 12.337 11.085,12.640 11.056,12.640 11.104 M3.480 11.227 C 3.447 11.240,3.380 11.266,3.332 11.284 C 3.230 11.322,3.219 11.272,3.546 12.311 L 3.725 12.882 3.846 12.811 C 4.060 12.686,4.350 12.370,4.421 12.182 C 4.507 11.959,4.484 11.638,4.373 11.489 C 4.220 11.285,4.095 11.223,3.809 11.212 C 3.661 11.207,3.513 11.213,3.480 11.227 M19.660 11.550 C 20.019 11.737,20.238 12.064,20.270 12.462 C 20.320 13.088,19.925 13.711,19.287 14.013 C 19.051 14.125,18.981 14.140,18.680 14.138 C 18.393 14.136,18.308 14.120,18.135 14.030 C 17.912 13.914,17.763 13.760,17.630 13.505 C 17.507 13.269,17.509 12.787,17.635 12.469 C 17.796 12.061,18.256 11.638,18.691 11.496 C 18.938 11.415,19.457 11.444,19.660 11.550 M4.000 11.580 C 4.207 11.687,4.199 12.074,3.986 12.275 L 3.893 12.361 3.828 12.131 C 3.791 12.004,3.735 11.815,3.703 11.710 L 3.644 11.520 3.764 11.520 C 3.830 11.520,3.936 11.547,4.000 11.580 M10.545 12.108 C 10.526 12.128,10.160 11.994,10.160 11.968 C 10.160 11.954,10.236 11.865,10.330 11.770 L 10.500 11.596 10.528 11.846 C 10.544 11.984,10.552 12.102,10.545 12.108 M18.814 11.758 C 18.619 11.805,18.421 11.945,18.341 12.093 C 18.249 12.263,18.273 12.598,18.388 12.753 C 18.654 13.112,19.249 13.138,19.530 12.804 C 19.677 12.629,19.729 12.423,19.676 12.224 L 19.633 12.066 19.563 12.223 C 19.476 12.418,19.405 12.478,19.234 12.504 C 18.800 12.569,18.568 12.020,18.935 11.796 C 19.064 11.718,19.030 11.707,18.814 11.758 M7.248 11.822 C 7.930 12.054,8.208 12.882,7.854 13.628 C 7.724 13.904,7.382 14.274,7.129 14.411 C 6.528 14.738,5.935 14.692,5.507 14.286 C 5.239 14.032,5.181 13.877,5.180 13.420 C 5.180 13.052,5.190 12.998,5.308 12.749 C 5.517 12.308,5.912 11.965,6.380 11.816 C 6.603 11.745,7.031 11.748,7.248 11.822 M6.520 12.127 C 6.030 12.266,5.853 12.784,6.172 13.148 C 6.406 13.414,6.762 13.477,7.084 13.307 C 7.370 13.156,7.516 12.789,7.403 12.501 C 7.376 12.432,7.366 12.441,7.324 12.567 C 7.254 12.781,7.108 12.859,6.807 12.844 C 6.756 12.842,6.661 12.787,6.597 12.723 C 6.409 12.535,6.456 12.261,6.700 12.126 C 6.800 12.071,6.715 12.072,6.520 12.127 " stroke="none" fill="black" fill-rule="evenodd"></path></svg>