<svg role="img" viewBox="0 0 24 24" xmlns="http://www.w3.org/2000/svg"><path d="M10.940 0.043 C 6.614 0.448,2.831 3.138,1.060 7.068 C -1.237 12.167,0.315 18.219,4.780 21.579 C 7.700 23.777,11.448 24.527,14.980 23.619 C 18.171 22.800,20.891 20.697,22.502 17.804 C 23.622 15.794,24.153 13.319,23.959 11.020 C 23.670 7.604,21.942 4.470,19.220 2.421 C 17.569 1.178,15.777 0.436,13.660 0.120 C 13.011 0.023,11.584 -0.018,10.940 0.043 M18.002 4.520 C 18.244 4.566,18.573 4.709,18.720 4.832 L 18.820 4.916 18.023 5.715 L 17.226 6.515 17.408 6.727 C 17.508 6.844,17.781 7.156,18.015 7.420 C 18.248 7.684,18.439 7.912,18.439 7.926 C 18.441 7.986,18.077 8.090,17.796 8.109 C 16.395 8.207,15.418 6.758,16.037 5.501 C 16.264 5.040,16.702 4.683,17.200 4.553 C 17.505 4.473,17.709 4.465,18.002 4.520 M19.296 5.505 C 19.631 6.181,19.509 6.983,18.986 7.550 C 18.696 7.865,18.743 7.882,18.075 7.215 L 17.480 6.621 18.249 5.851 L 19.018 5.081 19.106 5.191 C 19.155 5.251,19.240 5.392,19.296 5.505 M18.867 6.074 C 18.860 6.088,18.851 6.186,18.848 6.291 C 18.844 6.396,18.823 6.518,18.799 6.561 C 18.765 6.626,18.770 6.640,18.830 6.640 C 19.025 6.640,19.163 6.398,19.085 6.192 C 19.049 6.098,18.896 6.015,18.867 6.074 M15.660 7.374 C 15.770 7.425,15.885 7.497,15.915 7.534 C 15.963 7.592,15.959 7.600,15.881 7.600 C 15.832 7.600,15.726 7.630,15.646 7.667 C 15.554 7.708,14.651 8.580,13.219 10.006 L 10.938 12.280 10.466 11.806 L 9.994 11.333 10.867 10.491 C 12.935 8.498,14.107 7.571,14.853 7.338 C 15.121 7.254,15.432 7.268,15.660 7.374 M16.279 7.890 C 16.535 8.021,16.620 8.157,16.620 8.437 C 16.620 8.623,16.601 8.691,16.520 8.792 C 16.404 8.936,11.778 13.000,11.730 13.000 C 11.712 13.000,11.573 12.874,11.420 12.720 L 11.141 12.439 13.381 10.195 C 15.575 7.997,15.788 7.803,16.022 7.801 C 16.066 7.800,16.182 7.840,16.279 7.890 M16.619 9.309 C 16.530 9.618,16.236 10.181,15.969 10.555 C 15.405 11.345,14.384 12.473,13.324 13.477 L 12.715 14.054 12.296 13.635 L 11.877 13.216 13.388 11.891 C 14.220 11.162,15.296 10.216,15.780 9.789 C 16.264 9.362,16.666 9.027,16.673 9.045 C 16.680 9.064,16.656 9.182,16.619 9.309 M10.279 11.939 C 10.508 12.169,10.687 12.367,10.676 12.378 C 10.655 12.398,8.827 12.800,8.755 12.800 C 8.734 12.800,8.706 12.771,8.693 12.736 C 8.676 12.691,8.837 12.504,9.244 12.096 C 9.560 11.779,9.829 11.520,9.840 11.520 C 9.852 11.520,10.049 11.708,10.279 11.939 M11.219 12.879 C 11.349 13.010,11.447 13.125,11.438 13.134 C 11.410 13.160,10.431 13.364,10.415 13.348 C 10.397 13.331,10.930 12.640,10.961 12.640 C 10.973 12.640,11.089 12.748,11.219 12.879 M12.121 13.783 L 12.540 14.206 12.360 14.368 C 12.120 14.584,11.174 15.295,10.733 15.590 C 9.988 16.090,8.597 16.899,7.763 17.319 L 7.431 17.485 7.454 17.693 C 7.467 17.807,7.489 18.056,7.503 18.246 C 7.529 18.590,7.528 18.593,7.421 18.663 L 7.314 18.733 6.697 18.117 L 6.080 17.500 7.960 15.620 L 9.839 13.740 10.670 13.555 C 11.126 13.452,11.545 13.367,11.601 13.365 C 11.678 13.361,11.798 13.457,12.121 13.783 M6.541 18.285 L 7.140 18.889 6.880 18.867 C 6.737 18.855,6.269 18.823,5.840 18.797 C 5.218 18.759,5.050 18.736,5.009 18.686 C 4.966 18.632,5.025 18.556,5.429 18.151 C 5.687 17.892,5.908 17.680,5.920 17.680 C 5.931 17.680,6.211 17.952,6.541 18.285 " stroke="none" fill="black" fill-rule="evenodd"></path></svg>