<svg role="img" viewBox="0 0 24 24" xmlns="http://www.w3.org/2000/svg"><path d="M6.020 8.262 C 2.742 10.297,0.060 11.979,0.060 12.000 C 0.060 12.048,11.921 19.414,12.000 19.415 C 12.079 19.416,23.965 12.036,23.951 11.995 C 23.945 11.978,23.553 11.723,23.080 11.429 C 22.607 11.136,21.428 10.403,20.460 9.802 C 14.872 6.330,12.069 4.594,12.027 4.579 C 12.001 4.569,9.298 6.227,6.020 8.262 M16.303 9.306 C 18.667 10.773,20.600 11.985,20.600 12.000 C 20.600 12.015,18.666 13.228,16.301 14.696 L 12.002 17.364 9.151 15.596 C 7.583 14.623,5.832 13.537,5.260 13.181 C 4.688 12.826,4.035 12.422,3.810 12.283 C 3.584 12.145,3.400 12.019,3.400 12.003 C 3.400 11.987,4.970 10.999,6.890 9.808 C 8.809 8.618,10.740 7.419,11.180 7.144 C 11.620 6.870,11.986 6.644,11.993 6.642 C 12.001 6.641,13.940 7.840,16.303 9.306 M10.080 9.912 L 10.080 10.149 10.259 10.174 C 10.532 10.211,10.710 10.301,10.799 10.448 C 10.876 10.574,10.880 10.646,10.880 12.075 L 10.880 13.569 10.728 13.722 C 10.607 13.843,10.525 13.884,10.328 13.925 L 10.080 13.976 10.080 14.208 L 10.080 14.440 11.580 14.440 L 13.080 14.440 13.080 14.208 L 13.080 13.976 12.833 13.925 C 12.646 13.886,12.554 13.842,12.453 13.741 L 12.320 13.608 12.320 12.990 L 12.320 12.372 12.990 12.347 C 13.974 12.309,14.405 12.190,14.708 11.874 C 14.943 11.629,15.019 11.395,15.019 10.920 C 15.019 10.567,15.005 10.474,14.932 10.337 C 14.799 10.087,14.561 9.897,14.253 9.794 C 13.987 9.706,13.930 9.703,12.030 9.689 L 10.080 9.675 10.080 9.912 M13.272 10.216 C 13.475 10.321,13.540 10.485,13.540 10.900 C 13.540 11.526,13.373 11.680,12.691 11.680 L 12.280 11.680 12.280 10.927 C 12.280 10.512,12.293 10.159,12.310 10.142 C 12.364 10.086,13.136 10.146,13.272 10.216 " stroke="none" fill="black" fill-rule="evenodd"></path></svg>