<svg role="img" viewBox="0 0 24 24" xmlns="http://www.w3.org/2000/svg"><path d="M2.041 0.070 C 1.640 0.271,1.617 0.836,2.000 1.059 C 2.139 1.140,2.174 1.140,9.140 1.140 C 15.803 1.140,16.146 1.137,16.272 1.068 C 16.652 0.860,16.651 0.312,16.270 0.080 C 16.142 0.001,16.054 0.000,9.160 0.000 C 2.594 0.000,2.172 0.004,2.041 0.070 M2.041 2.350 C 1.655 2.544,1.614 3.073,1.965 3.324 L 2.100 3.420 4.000 3.420 L 5.900 3.420 6.035 3.324 C 6.386 3.073,6.345 2.544,5.959 2.350 C 5.833 2.287,5.653 2.280,4.000 2.280 C 2.347 2.280,2.167 2.287,2.041 2.350 M7.761 2.350 C 7.364 2.550,7.334 3.104,7.706 3.348 C 7.811 3.416,8.105 3.421,13.659 3.431 L 19.501 3.441 19.678 3.351 C 20.100 3.134,20.100 2.566,19.677 2.350 C 19.548 2.284,19.182 2.280,13.720 2.280 C 8.259 2.280,7.891 2.284,7.761 2.350 M2.140 4.589 C 1.784 4.680,1.607 5.139,1.811 5.444 C 2.007 5.738,1.707 5.720,6.271 5.720 C 10.747 5.720,10.522 5.732,10.732 5.482 C 10.931 5.246,10.852 4.835,10.574 4.652 C 10.469 4.584,10.242 4.580,6.342 4.574 C 4.075 4.571,2.184 4.578,2.140 4.589 M12.318 4.650 C 11.899 4.862,11.901 5.435,12.323 5.650 C 12.449 5.714,12.654 5.720,14.854 5.720 C 17.503 5.720,17.445 5.726,17.605 5.463 C 17.726 5.264,17.737 5.110,17.645 4.903 C 17.581 4.756,17.528 4.701,17.392 4.640 C 17.228 4.565,17.113 4.562,14.858 4.561 L 12.497 4.560 12.318 4.650 M19.218 4.615 C 18.768 4.816,18.749 5.431,19.187 5.643 C 19.341 5.718,19.418 5.724,20.055 5.713 C 20.815 5.699,20.863 5.685,21.051 5.434 C 21.153 5.296,21.153 4.984,21.051 4.846 C 20.862 4.593,20.816 4.581,20.047 4.570 C 19.520 4.563,19.309 4.574,19.218 4.615 M2.110 6.896 C 1.913 6.968,1.839 7.032,1.774 7.189 C 1.652 7.480,1.764 7.791,2.041 7.930 C 2.164 7.992,2.320 8.000,3.432 8.000 C 4.584 8.000,4.695 7.994,4.832 7.924 C 5.023 7.825,5.127 7.646,5.127 7.412 C 5.127 7.214,5.055 7.084,4.865 6.942 C 4.759 6.864,4.696 6.860,3.507 6.850 C 2.530 6.843,2.227 6.853,2.110 6.896 M6.740 6.876 C 6.545 6.925,6.443 7.009,6.354 7.193 C 6.213 7.484,6.314 7.782,6.603 7.930 C 6.718 7.989,6.852 8.000,7.440 8.000 C 8.068 8.000,8.153 7.992,8.270 7.920 C 8.651 7.688,8.652 7.139,8.272 6.932 C 8.163 6.873,8.029 6.859,7.500 6.853 C 7.148 6.848,6.806 6.859,6.740 6.876 M15.830 6.897 C 15.644 6.964,15.571 7.022,15.497 7.165 C 15.365 7.420,15.470 7.762,15.730 7.920 C 15.857 7.998,15.937 8.000,18.840 8.000 C 22.163 8.000,21.996 8.014,22.189 7.724 C 22.360 7.469,22.270 7.098,22.000 6.941 C 21.863 6.862,21.796 6.860,18.920 6.851 C 16.531 6.844,15.952 6.853,15.830 6.897 M1.980 9.240 C 1.628 9.471,1.644 9.977,2.010 10.200 C 2.137 10.278,2.217 10.280,5.134 10.280 C 8.400 10.280,8.285 10.288,8.456 10.053 C 8.499 9.995,8.541 9.864,8.551 9.761 C 8.573 9.530,8.488 9.348,8.308 9.238 C 8.184 9.163,8.085 9.160,5.140 9.160 C 2.180 9.161,2.097 9.163,1.980 9.240 M15.692 9.238 C 15.324 9.463,15.366 10.015,15.768 10.224 C 15.858 10.271,16.376 10.280,18.868 10.280 C 21.783 10.280,21.863 10.278,21.990 10.200 C 22.355 9.978,22.372 9.457,22.021 9.241 C 21.893 9.162,21.829 9.160,18.855 9.160 C 15.915 9.160,15.816 9.163,15.692 9.238 M2.060 11.477 C 1.897 11.547,1.752 11.748,1.731 11.930 C 1.709 12.130,1.771 12.283,1.939 12.440 C 2.046 12.540,2.047 12.540,2.860 12.540 C 3.673 12.540,3.674 12.540,3.781 12.440 C 4.072 12.168,4.072 11.832,3.781 11.560 C 3.675 11.461,3.664 11.460,2.907 11.451 C 2.485 11.447,2.104 11.458,2.060 11.477 M5.412 11.518 C 5.065 11.730,5.079 12.314,5.436 12.498 C 5.539 12.551,5.816 12.560,7.428 12.560 C 9.213 12.560,9.306 12.556,9.428 12.482 C 9.795 12.258,9.803 11.771,9.444 11.531 L 9.308 11.440 7.424 11.440 C 5.626 11.440,5.534 11.444,5.412 11.518 M11.132 11.518 C 10.785 11.730,10.799 12.314,11.156 12.498 C 11.262 12.553,11.814 12.560,16.008 12.560 C 20.631 12.560,20.743 12.558,20.868 12.482 C 21.214 12.271,21.214 11.729,20.868 11.518 C 20.743 11.442,20.631 11.440,16.000 11.440 C 11.369 11.440,11.257 11.442,11.132 11.518 M2.010 13.800 C 1.644 14.023,1.628 14.543,1.980 14.760 C 2.110 14.840,2.157 14.842,4.614 14.831 L 7.115 14.820 7.238 14.702 C 7.455 14.494,7.483 14.195,7.308 13.945 C 7.149 13.718,7.177 13.720,4.551 13.720 C 2.216 13.720,2.136 13.723,2.010 13.800 M8.896 13.777 C 8.707 13.859,8.585 14.058,8.585 14.282 C 8.585 14.501,8.667 14.649,8.852 14.762 C 8.975 14.837,9.072 14.840,11.435 14.840 C 13.827 14.840,13.894 14.838,14.021 14.759 C 14.372 14.543,14.355 14.022,13.990 13.800 C 13.864 13.723,13.786 13.720,11.440 13.722 C 9.498 13.723,8.995 13.734,8.896 13.777 M15.740 13.794 C 15.542 13.916,15.470 14.027,15.450 14.233 C 15.427 14.470,15.510 14.650,15.692 14.762 C 15.814 14.836,15.906 14.840,17.727 14.840 L 19.634 14.840 19.758 14.735 C 20.091 14.456,20.067 14.017,19.708 13.798 C 19.586 13.724,19.493 13.720,17.720 13.720 C 15.979 13.720,15.852 13.725,15.740 13.794 M2.041 16.070 C 1.640 16.271,1.617 16.836,2.000 17.059 C 2.127 17.132,2.209 17.140,2.860 17.140 C 3.508 17.140,3.594 17.132,3.715 17.060 C 4.100 16.833,4.079 16.275,3.677 16.070 C 3.563 16.012,3.428 16.000,2.860 16.000 C 2.292 16.000,2.157 16.012,2.041 16.070 M5.436 16.085 C 5.252 16.192,5.160 16.349,5.160 16.558 C 5.160 16.767,5.242 16.927,5.409 17.047 L 5.540 17.140 10.840 17.140 C 15.867 17.140,16.147 17.136,16.272 17.068 C 16.652 16.860,16.651 16.312,16.270 16.080 C 16.142 16.002,16.059 16.000,10.860 16.001 L 5.580 16.002 5.436 16.085 M2.041 18.350 C 1.655 18.544,1.614 19.073,1.965 19.324 L 2.100 19.420 5.142 19.420 C 8.006 19.420,8.190 19.416,8.294 19.348 C 8.666 19.104,8.636 18.550,8.239 18.350 C 8.110 18.285,7.878 18.280,5.140 18.280 C 2.402 18.280,2.170 18.285,2.041 18.350 M2.106 20.600 C 1.767 20.704,1.612 21.147,1.811 21.444 C 1.993 21.717,2.028 21.723,3.467 21.711 C 4.696 21.700,4.759 21.696,4.865 21.618 C 5.057 21.474,5.127 21.347,5.127 21.140 C 5.127 20.933,5.057 20.806,4.865 20.662 C 4.759 20.584,4.698 20.580,3.487 20.573 C 2.790 20.569,2.169 20.581,2.106 20.600 M6.612 20.636 C 6.430 20.721,6.280 20.950,6.280 21.142 C 6.280 21.301,6.394 21.510,6.535 21.611 C 6.651 21.694,6.709 21.701,7.380 21.712 C 8.008 21.722,8.118 21.714,8.239 21.652 C 8.636 21.447,8.666 20.897,8.294 20.652 C 8.200 20.591,8.079 20.578,7.482 20.569 C 6.857 20.560,6.762 20.567,6.612 20.636 M2.110 22.897 C 1.914 22.967,1.839 23.032,1.774 23.189 C 1.652 23.480,1.764 23.791,2.041 23.930 C 2.170 23.995,2.403 24.000,5.160 24.000 C 8.063 24.000,8.143 23.998,8.270 23.920 C 8.651 23.688,8.652 23.140,8.272 22.932 C 8.149 22.865,7.945 22.859,5.200 22.851 C 2.811 22.844,2.232 22.853,2.110 22.897 " stroke="none" fill="black" fill-rule="evenodd"></path></svg>