<svg role="img" viewBox="0 0 24 24" xmlns="http://www.w3.org/2000/svg"><path d="M9.708 4.526 C 9.264 4.651,9.070 5.212,9.334 5.609 C 9.532 5.908,10.050 6.014,10.402 5.828 C 10.874 5.578,10.874 4.825,10.401 4.581 C 10.248 4.502,9.896 4.474,9.708 4.526 M2.440 6.548 C 2.188 6.590,1.828 6.738,1.588 6.899 L 1.326 7.075 1.273 6.908 C 1.198 6.672,1.104 6.635,0.608 6.649 C 0.295 6.657,0.188 6.674,0.159 6.720 C 0.136 6.756,0.121 8.031,0.121 9.965 C 0.120 12.877,0.126 13.155,0.186 13.205 C 0.270 13.275,1.169 13.305,1.330 13.244 L 1.440 13.202 1.440 12.121 C 1.440 11.526,1.448 11.040,1.459 11.040 C 1.469 11.040,1.563 11.095,1.669 11.162 C 2.098 11.434,2.804 11.533,3.285 11.388 C 3.910 11.200,4.405 10.629,4.626 9.840 C 4.729 9.471,4.729 8.411,4.626 8.040 C 4.401 7.229,3.880 6.688,3.205 6.561 C 2.993 6.521,2.637 6.515,2.440 6.548 M14.163 6.580 C 13.899 6.639,13.402 6.857,13.201 7.000 C 13.044 7.111,13.008 7.101,12.977 6.939 C 12.932 6.699,12.811 6.640,12.364 6.640 C 12.079 6.640,11.954 6.656,11.889 6.702 L 11.800 6.765 11.800 8.999 C 11.800 10.978,11.807 11.242,11.863 11.297 C 11.914 11.348,12.028 11.360,12.473 11.359 C 12.774 11.359,13.047 11.342,13.080 11.321 C 13.131 11.288,13.143 11.030,13.160 9.532 L 13.180 7.780 13.420 7.683 C 13.615 7.603,13.732 7.584,14.046 7.582 C 14.377 7.580,14.444 7.591,14.521 7.660 C 14.714 7.832,14.720 7.890,14.720 9.616 C 14.720 11.034,14.728 11.242,14.783 11.297 C 14.834 11.348,14.948 11.360,15.393 11.359 C 15.694 11.359,15.967 11.342,16.000 11.321 C 16.052 11.288,16.062 11.036,16.071 9.524 L 16.082 7.766 16.351 7.673 C 16.555 7.604,16.709 7.581,16.987 7.581 C 17.320 7.580,17.363 7.589,17.457 7.677 C 17.514 7.730,17.578 7.838,17.600 7.917 C 17.623 8.001,17.640 8.725,17.640 9.662 C 17.640 10.854,17.652 11.276,17.688 11.312 C 17.721 11.345,17.915 11.360,18.300 11.360 C 18.685 11.360,18.879 11.345,18.912 11.312 C 18.948 11.276,18.960 10.795,18.960 9.394 C 18.960 7.585,18.957 7.515,18.875 7.296 C 18.766 7.005,18.571 6.791,18.286 6.651 C 18.078 6.549,18.023 6.540,17.600 6.541 C 17.272 6.541,17.071 6.562,16.900 6.614 C 16.680 6.681,16.180 6.911,15.976 7.039 C 15.900 7.087,15.878 7.076,15.725 6.910 C 15.490 6.655,15.230 6.552,14.780 6.535 C 14.560 6.527,14.320 6.544,14.163 6.580 M21.544 6.583 C 20.722 6.767,20.143 7.337,19.914 8.187 C 19.801 8.605,19.790 9.493,19.892 9.880 C 19.999 10.283,20.184 10.622,20.434 10.874 C 20.858 11.300,21.373 11.483,22.160 11.486 C 22.677 11.487,23.034 11.424,23.480 11.253 L 23.780 11.138 23.791 10.748 C 23.802 10.379,23.798 10.357,23.716 10.326 C 23.660 10.306,23.517 10.323,23.324 10.373 C 23.094 10.433,22.878 10.453,22.440 10.456 C 21.872 10.460,21.855 10.458,21.620 10.340 C 21.443 10.251,21.347 10.170,21.253 10.030 C 21.138 9.858,21.004 9.422,21.052 9.375 C 21.062 9.364,21.230 9.377,21.425 9.403 C 21.843 9.459,22.514 9.429,22.860 9.340 C 23.652 9.134,24.056 8.623,23.988 7.910 C 23.926 7.271,23.594 6.856,22.964 6.632 C 22.658 6.523,21.925 6.498,21.544 6.583 M7.921 6.664 C 7.639 6.740,7.392 6.886,7.136 7.127 C 7.024 7.233,6.923 7.320,6.912 7.320 C 6.900 7.320,6.868 7.211,6.839 7.077 C 6.754 6.677,6.728 6.660,6.182 6.660 C 5.812 6.660,5.709 6.672,5.679 6.720 C 5.619 6.815,5.628 11.252,5.688 11.312 C 5.755 11.379,6.845 11.379,6.912 11.312 C 6.948 11.276,6.960 10.854,6.960 9.657 L 6.960 8.050 7.070 8.005 C 7.323 7.904,7.726 7.841,8.129 7.841 C 8.689 7.840,8.693 7.835,8.673 7.178 C 8.662 6.773,8.650 6.706,8.582 6.657 C 8.484 6.585,8.204 6.588,7.921 6.664 M9.440 6.669 C 9.407 6.682,9.367 6.712,9.351 6.736 C 9.334 6.760,9.321 7.789,9.321 9.022 C 9.320 10.713,9.332 11.276,9.368 11.312 C 9.401 11.345,9.595 11.360,9.980 11.360 C 10.365 11.360,10.559 11.345,10.592 11.312 C 10.628 11.276,10.640 10.706,10.640 8.991 L 10.640 6.718 10.537 6.679 C 10.429 6.638,9.543 6.630,9.440 6.669 M22.523 7.548 C 22.795 7.709,22.843 8.195,22.607 8.406 C 22.420 8.573,22.210 8.612,21.634 8.590 C 21.356 8.579,21.110 8.558,21.088 8.545 C 21.061 8.528,21.064 8.449,21.097 8.310 C 21.208 7.836,21.433 7.577,21.820 7.475 C 21.997 7.429,22.390 7.469,22.523 7.548 M2.841 7.641 C 3.221 7.834,3.384 8.314,3.350 9.135 C 3.326 9.723,3.236 10.002,3.004 10.212 C 2.790 10.405,2.612 10.455,2.217 10.430 C 1.981 10.415,1.824 10.380,1.663 10.307 L 1.439 10.204 1.449 8.992 L 1.460 7.780 1.620 7.701 C 2.007 7.511,2.535 7.485,2.841 7.641 M21.400 14.179 C 20.704 14.296,19.906 14.604,19.630 14.861 C 19.509 14.973,19.484 15.138,19.583 15.176 C 19.618 15.189,19.892 15.170,20.193 15.133 C 20.531 15.091,21.045 15.065,21.540 15.064 C 22.248 15.062,22.363 15.071,22.540 15.142 C 22.817 15.252,22.893 15.401,22.864 15.780 C 22.836 16.143,22.621 16.919,22.359 17.600 C 22.086 18.311,22.064 18.382,22.093 18.456 C 22.187 18.700,22.703 18.275,23.151 17.587 C 23.657 16.807,24.037 15.548,23.990 14.803 C 23.973 14.543,23.958 14.494,23.865 14.414 C 23.742 14.308,23.450 14.214,23.080 14.160 C 22.719 14.107,21.761 14.118,21.400 14.179 M0.116 14.614 C 0.059 14.643,0.015 14.704,0.008 14.766 C -0.002 14.852,0.051 14.920,0.309 15.155 C 1.005 15.786,2.237 16.666,3.180 17.204 C 6.832 19.289,11.254 19.997,15.400 19.161 C 17.095 18.819,18.460 18.354,19.889 17.632 C 20.471 17.337,21.445 16.743,21.723 16.513 C 21.815 16.437,21.880 16.301,21.880 16.186 C 21.880 16.064,21.674 15.880,21.536 15.880 C 21.483 15.880,21.183 15.981,20.869 16.105 C 18.611 16.998,16.161 17.554,13.744 17.723 C 12.868 17.784,10.666 17.750,9.880 17.664 C 7.320 17.382,5.091 16.811,2.845 15.861 C 2.268 15.618,1.106 15.047,0.674 14.796 C 0.305 14.581,0.231 14.557,0.116 14.614 " stroke="none" fill="black" fill-rule="evenodd"></path></svg>