<svg role="img" viewBox="0 0 24 24" xmlns="http://www.w3.org/2000/svg"><path d="M8.196 3.869 C 5.877 6.192,4.311 7.792,4.152 8.000 C 3.037 9.461,2.372 11.054,2.141 12.819 C 2.068 13.378,2.058 14.557,2.121 15.141 C 2.351 17.264,3.322 19.319,4.836 20.890 C 6.417 22.531,8.331 23.519,10.600 23.867 C 10.937 23.918,11.301 23.937,11.960 23.937 C 12.619 23.937,12.983 23.918,13.320 23.867 C 15.036 23.604,16.554 22.973,17.898 21.963 C 18.405 21.582,19.311 20.702,19.732 20.180 C 20.921 18.707,21.679 16.886,21.881 15.012 C 21.954 14.345,21.913 12.991,21.801 12.365 C 21.457 10.427,20.645 8.799,19.284 7.320 L 19.045 7.060 18.175 7.928 L 17.305 8.796 17.544 9.068 C 18.277 9.900,18.744 10.702,19.076 11.702 C 19.580 13.214,19.593 14.815,19.113 16.315 C 18.263 18.977,16.000 20.924,13.220 21.385 C 12.689 21.473,11.469 21.485,10.980 21.406 C 9.381 21.149,8.017 20.476,6.888 19.385 C 5.783 18.318,5.068 16.995,4.753 15.440 C 4.671 15.034,4.660 14.869,4.661 14.040 C 4.663 13.174,4.671 13.060,4.770 12.600 C 5.031 11.382,5.556 10.264,6.281 9.380 C 6.407 9.226,7.558 8.056,8.839 6.780 C 10.120 5.504,11.355 4.250,11.584 3.993 L 12.001 3.526 11.990 1.802 L 11.980 0.079 8.196 3.869 M15.173 3.994 C 14.882 4.095,14.663 4.250,14.500 4.471 C 14.018 5.123,14.243 6.041,14.980 6.433 C 15.156 6.527,15.225 6.540,15.560 6.540 C 15.895 6.540,15.964 6.527,16.140 6.433 C 17.214 5.862,17.073 4.307,15.917 3.982 C 15.631 3.902,15.430 3.905,15.173 3.994 " stroke="none" fill="black" fill-rule="evenodd"></path></svg>