<svg role="img" viewBox="0 0 24 24" xmlns="http://www.w3.org/2000/svg"><path d="M0.097 3.727 C 0.297 4.257,0.372 4.432,0.566 4.820 C 1.128 5.944,1.828 6.668,2.888 7.219 C 3.413 7.493,3.689 7.601,4.973 8.037 C 6.360 8.508,6.767 8.670,7.600 9.086 C 8.621 9.596,9.451 10.154,10.365 10.947 C 10.599 11.149,10.851 11.352,10.925 11.397 C 11.117 11.514,11.375 11.508,11.500 11.383 C 11.651 11.232,11.663 11.108,11.547 10.887 C 11.436 10.675,11.369 10.400,11.428 10.400 C 11.520 10.400,12.195 10.652,12.530 10.811 C 13.145 11.104,14.000 11.671,14.000 11.787 C 14.000 11.903,13.773 12.086,13.511 12.181 C 13.363 12.234,12.845 12.360,12.360 12.460 C 10.979 12.745,10.505 12.923,10.197 13.273 C 9.929 13.577,9.891 13.988,10.099 14.343 C 10.248 14.595,10.384 14.681,11.118 14.979 C 12.703 15.623,13.939 16.317,15.220 17.281 C 15.796 17.714,16.639 18.447,17.040 18.861 L 17.300 19.130 16.860 18.837 C 14.518 17.278,12.019 16.240,9.500 15.782 C 8.979 15.687,8.932 15.671,8.819 15.550 C 8.713 15.437,8.691 15.371,8.648 15.055 C 8.458 13.626,7.855 12.438,6.782 11.380 C 6.266 10.870,5.771 10.479,4.820 9.825 C 3.045 8.606,2.710 8.350,2.136 7.781 C 1.935 7.583,1.659 7.267,1.521 7.080 C 1.384 6.893,1.263 6.731,1.252 6.720 C 1.228 6.695,0.952 5.968,3.948 13.830 L 6.498 20.520 15.238 20.520 L 23.978 20.520 22.717 19.250 C 15.680 12.164,9.436 5.926,9.160 5.706 C 7.968 4.754,6.608 4.086,5.160 3.742 C 4.231 3.521,4.077 3.509,1.971 3.491 L 0.001 3.474 0.097 3.727 " stroke="none" fill="black" fill-rule="evenodd"></path></svg>