<svg role="img" viewBox="0 0 24 24" xmlns="http://www.w3.org/2000/svg"><path d="M10.080 0.040 C 8.747 0.178,7.570 0.514,6.380 1.097 C 5.303 1.625,4.480 2.203,3.645 3.016 C 1.918 4.700,0.885 6.711,0.499 9.140 C 0.410 9.699,0.377 11.065,0.438 11.661 C 0.652 13.777,1.443 15.730,2.745 17.360 C 3.093 17.797,3.923 18.628,4.360 18.977 C 5.437 19.840,6.681 20.495,8.000 20.893 C 9.506 21.348,10.797 21.430,13.200 21.225 C 16.387 20.954,17.476 20.984,18.817 21.378 C 20.212 21.789,21.490 22.507,22.873 23.657 C 23.302 24.013,23.414 24.059,23.534 23.927 C 23.618 23.833,23.618 23.724,23.532 23.599 C 23.366 23.355,22.822 22.742,22.410 22.333 C 20.964 20.896,19.494 20.129,17.140 19.582 C 16.700 19.480,16.108 19.322,15.824 19.232 C 15.155 19.020,14.256 18.570,13.760 18.199 C 12.987 17.619,12.263 16.802,11.682 15.850 C 11.439 15.451,11.354 15.373,11.304 15.503 C 11.257 15.625,11.282 16.824,11.340 17.260 C 11.373 17.502,11.399 17.704,11.400 17.710 C 11.401 17.736,10.765 17.716,10.394 17.678 C 9.210 17.559,8.133 17.166,7.096 16.475 C 6.554 16.113,5.702 15.277,5.310 14.720 C 4.786 13.977,4.359 12.988,4.153 12.040 C 4.073 11.668,4.062 11.509,4.062 10.660 C 4.062 9.811,4.073 9.652,4.153 9.280 C 4.534 7.527,5.497 6.013,6.884 4.992 C 8.644 3.695,10.809 3.290,12.945 3.858 C 15.189 4.455,17.048 6.222,17.778 8.450 C 18.032 9.226,18.086 9.566,18.106 10.520 C 18.116 10.993,18.110 11.401,18.092 11.426 C 18.068 11.461,17.968 11.463,17.700 11.432 C 17.202 11.377,15.787 11.408,15.704 11.477 C 15.669 11.506,15.649 11.543,15.660 11.559 C 15.670 11.576,15.854 11.630,16.069 11.680 C 17.710 12.058,18.887 12.931,19.552 14.263 C 19.736 14.629,19.948 15.271,20.035 15.723 C 20.078 15.944,20.122 16.136,20.135 16.148 C 20.200 16.213,20.302 16.064,20.592 15.473 C 21.101 14.439,21.413 13.479,21.603 12.360 C 21.711 11.724,21.753 10.255,21.682 9.589 C 21.423 7.155,20.356 4.897,18.647 3.168 C 17.013 1.515,14.950 0.471,12.620 0.115 C 12.027 0.024,10.632 -0.017,10.080 0.040 M18.564 15.241 C 18.366 15.514,18.357 15.754,18.530 16.100 C 18.824 16.688,19.253 16.966,19.393 16.659 C 19.460 16.513,19.451 16.093,19.377 15.837 C 19.256 15.424,19.049 15.164,18.790 15.099 C 18.700 15.076,18.669 15.096,18.564 15.241 M16.144 16.957 C 15.837 17.160,15.767 17.589,15.972 18.009 C 16.253 18.582,16.896 18.834,17.401 18.570 C 17.890 18.314,17.880 17.790,17.376 17.295 C 17.087 17.012,16.810 16.880,16.502 16.880 C 16.331 16.880,16.226 16.903,16.144 16.957 " stroke="none" fill="black" fill-rule="evenodd"></path></svg>