<svg xmlns="http://www.w3.org/2000/svg" role="img" viewBox="0 0 24 24"><path d="M11.007 0.041 C 8.657 0.269,6.418 1.279,4.765 2.857 C 3.257 4.297,2.216 6.201,1.800 8.280 C 1.634 9.109,1.588 9.591,1.590 10.500 C 1.594 12.898,2.297 15.038,3.692 16.891 C 4.102 17.438,4.885 18.245,5.400 18.656 C 7.740 20.519,10.770 21.296,13.755 20.797 C 14.027 20.751,14.378 20.681,14.535 20.641 C 14.692 20.601,14.826 20.574,14.833 20.580 C 14.840 20.587,15.113 21.280,15.440 22.121 C 15.783 23.001,16.074 23.692,16.128 23.750 C 16.340 23.981,16.443 23.998,17.609 23.999 C 18.782 24.000,18.927 23.977,19.066 23.767 C 19.221 23.531,19.183 23.394,18.386 21.327 C 17.976 20.264,17.640 19.381,17.640 19.364 C 17.640 19.348,17.797 19.228,17.990 19.097 C 20.245 17.569,21.825 15.041,22.278 12.238 C 22.655 9.907,22.276 7.500,21.215 5.480 C 19.679 2.559,16.843 0.586,13.480 0.099 C 12.972 0.025,11.522 -0.009,11.007 0.041 M12.620 2.857 C 13.737 2.911,15.000 3.339,15.980 3.994 C 17.729 5.163,18.876 7.120,19.161 9.420 C 19.219 9.889,19.218 11.037,19.160 11.520 C 18.967 13.116,18.349 14.578,17.390 15.711 C 17.133 16.015,16.563 16.577,16.538 16.551 C 16.532 16.545,16.227 15.757,15.859 14.800 C 15.470 13.787,15.146 13.002,15.083 12.920 C 15.024 12.843,14.896 12.740,14.799 12.690 C 14.629 12.603,14.584 12.600,13.550 12.600 C 12.384 12.600,12.289 12.615,12.127 12.821 C 11.946 13.051,11.967 13.124,12.925 15.601 C 13.560 17.243,13.796 17.898,13.761 17.919 C 13.735 17.936,13.530 17.983,13.307 18.024 C 12.754 18.127,11.278 18.129,10.737 18.028 C 8.752 17.657,7.139 16.606,6.080 14.996 C 5.222 13.691,4.797 12.199,4.796 10.480 C 4.794 9.063,5.048 7.925,5.623 6.764 C 6.624 4.744,8.321 3.424,10.495 2.973 C 10.940 2.881,11.810 2.801,12.100 2.826 C 12.166 2.832,12.400 2.846,12.620 2.857 " stroke="none" fill="black" fill-rule="evenodd"></path></svg>