<svg role="img" xmlns="http://www.w3.org/2000/svg" viewBox="0 0 24 24"><path d="M1.960 0.062 C 1.047 0.257,0.251 1.061,0.060 1.980 C -0.028 2.401,-0.028 21.599,0.060 22.020 C 0.235 22.864,0.902 23.597,1.760 23.891 L 2.020 23.980 11.870 23.990 C 22.850 24.002,22.012 24.023,22.630 23.719 C 23.209 23.433,23.687 22.866,23.891 22.220 L 23.980 21.940 23.980 12.000 L 23.980 2.060 23.891 1.780 C 23.687 1.134,23.209 0.567,22.630 0.281 C 22.018 -0.020,22.841 0.001,11.980 0.004 C 3.813 0.006,2.178 0.015,1.960 0.062 M22.100 1.132 C 22.415 1.279,22.724 1.587,22.867 1.896 L 22.980 2.140 22.980 12.000 L 22.980 21.860 22.867 22.104 C 22.724 22.413,22.415 22.721,22.100 22.868 L 21.860 22.980 12.000 22.980 L 2.140 22.980 1.896 22.867 C 1.587 22.724,1.279 22.415,1.132 22.100 L 1.020 21.860 1.020 12.000 L 1.020 2.140 1.132 1.900 C 1.325 1.486,1.735 1.142,2.150 1.043 C 2.236 1.023,6.482 1.010,12.080 1.014 L 21.860 1.020 22.100 1.132 M10.743 6.600 C 9.905 6.825,9.196 7.409,8.822 8.180 C 8.506 8.831,8.501 8.874,8.503 10.760 C 8.504 12.346,8.508 12.434,8.592 12.738 C 8.939 13.986,9.957 14.855,11.227 14.985 L 11.480 15.011 11.481 15.196 C 11.485 15.829,11.645 16.293,11.967 16.607 C 12.280 16.912,12.489 16.972,13.310 16.991 L 14.000 17.008 14.000 16.507 L 14.000 16.006 13.377 15.993 L 12.753 15.980 12.637 15.849 C 12.526 15.726,12.520 15.699,12.520 15.365 L 12.520 15.011 12.773 14.985 C 13.156 14.946,13.466 14.856,13.820 14.681 C 14.613 14.290,15.164 13.616,15.408 12.738 C 15.492 12.434,15.496 12.346,15.497 10.760 C 15.499 8.874,15.494 8.831,15.178 8.180 C 14.798 7.397,14.043 6.788,13.197 6.584 C 12.793 6.486,11.125 6.497,10.743 6.600 M13.043 7.584 C 13.398 7.690,13.643 7.836,13.904 8.096 C 14.164 8.357,14.310 8.602,14.416 8.957 C 14.511 9.278,14.511 12.238,14.416 12.563 C 14.216 13.245,13.572 13.833,12.885 13.960 C 12.543 14.023,11.344 14.009,11.044 13.938 C 10.356 13.776,9.781 13.235,9.584 12.563 C 9.489 12.238,9.489 9.278,9.584 8.957 C 9.690 8.602,9.836 8.357,10.096 8.097 C 10.356 7.836,10.562 7.711,10.920 7.595 C 11.230 7.495,12.716 7.488,13.043 7.584 " stroke="none" fill="black" fill-rule="evenodd"></path></svg>