<svg role="img" xmlns="http://www.w3.org/2000/svg" viewBox="0 0 24 24"><path d="M2.780 8.786 C 1.421 9.005,0.349 10.016,0.076 11.337 C -0.273 13.026,0.746 14.671,2.422 15.126 C 2.864 15.246,3.608 15.245,4.055 15.125 C 4.393 15.034,5.100 14.687,5.100 14.611 C 5.100 14.586,4.999 14.493,4.877 14.405 L 4.653 14.245 4.288 14.360 C 3.118 14.726,2.226 14.549,1.478 13.802 C 0.698 13.022,0.510 11.911,0.990 10.920 C 1.194 10.499,1.700 9.994,2.120 9.790 C 2.856 9.434,3.613 9.439,4.360 9.805 C 4.998 10.118,5.520 10.778,5.683 11.480 C 5.809 12.024,5.708 12.743,5.434 13.233 C 5.302 13.472,5.288 13.423,5.597 13.794 L 5.776 14.008 5.467 14.310 C 5.297 14.476,5.163 14.614,5.169 14.618 C 5.175 14.622,5.300 14.718,5.446 14.832 C 5.597 14.951,5.752 15.040,5.807 15.040 C 5.869 15.040,5.972 14.970,6.098 14.842 C 6.318 14.619,6.328 14.673,5.991 14.275 C 5.886 14.151,5.800 14.028,5.800 14.002 C 5.800 13.976,5.843 13.897,5.897 13.827 C 5.950 13.757,6.057 13.573,6.134 13.418 C 6.930 11.826,6.265 9.877,4.660 9.099 C 4.462 9.003,4.192 8.896,4.060 8.861 C 3.821 8.797,3.007 8.749,2.780 8.786 M21.231 10.094 L 21.220 10.740 21.084 10.760 C 20.961 10.778,20.940 10.801,20.880 10.980 C 20.737 11.401,20.724 11.360,20.995 11.360 L 21.235 11.360 21.248 12.770 C 21.260 14.123,21.265 14.189,21.351 14.403 C 21.602 15.027,22.235 15.330,23.030 15.206 C 23.330 15.160,23.787 14.980,23.926 14.854 C 23.989 14.797,23.987 14.781,23.888 14.618 C 23.808 14.485,23.763 14.447,23.701 14.460 C 23.318 14.541,22.789 14.603,22.650 14.585 C 22.376 14.547,22.177 14.423,22.052 14.210 L 21.940 14.020 21.928 12.690 L 21.916 11.360 22.494 11.360 L 23.071 11.360 23.149 11.070 L 23.227 10.780 22.575 10.769 L 21.922 10.758 21.911 10.193 L 21.900 9.628 21.571 9.538 L 21.242 9.449 21.231 10.094 M7.277 10.845 C 7.245 10.906,7.237 11.330,7.249 12.335 C 7.266 13.634,7.274 13.760,7.353 14.000 C 7.533 14.548,7.947 14.958,8.495 15.130 C 8.908 15.260,9.546 15.257,9.954 15.124 C 10.510 14.942,10.906 14.549,11.088 14.000 C 11.169 13.758,11.176 13.643,11.191 12.332 L 11.207 10.925 11.033 10.880 C 10.938 10.855,10.797 10.818,10.720 10.798 C 10.643 10.777,10.558 10.760,10.530 10.760 C 10.491 10.760,10.480 11.074,10.480 12.198 C 10.480 13.534,10.474 13.652,10.401 13.848 C 10.291 14.142,10.118 14.335,9.849 14.467 C 9.644 14.568,9.578 14.580,9.220 14.580 C 8.863 14.580,8.796 14.568,8.592 14.468 C 8.224 14.288,8.028 13.996,7.961 13.532 C 7.939 13.382,7.921 12.697,7.921 12.010 L 7.920 10.760 7.621 10.760 C 7.358 10.760,7.317 10.770,7.277 10.845 M13.360 10.851 C 12.684 11.082,12.249 11.527,12.018 12.220 C 11.886 12.615,11.870 13.222,11.979 13.640 C 12.168 14.363,12.684 14.914,13.375 15.130 C 13.797 15.262,14.494 15.252,14.941 15.106 C 15.275 14.998,15.820 14.663,15.820 14.565 C 15.820 14.471,15.623 14.238,15.560 14.258 C 15.527 14.268,15.284 14.352,15.020 14.446 C 14.574 14.604,14.511 14.616,14.140 14.614 C 13.560 14.611,13.190 14.443,12.898 14.047 C 12.774 13.879,12.600 13.440,12.600 13.296 C 12.600 13.249,12.863 13.240,14.235 13.240 L 15.871 13.240 15.982 13.093 L 16.094 12.947 16.045 12.605 C 15.917 11.724,15.402 11.072,14.649 10.839 C 14.282 10.726,13.710 10.731,13.360 10.851 M17.793 10.817 C 17.329 10.950,17.008 11.194,16.838 11.543 C 16.692 11.843,16.701 12.265,16.860 12.555 C 16.993 12.798,17.126 12.912,17.443 13.057 C 17.644 13.149,17.845 13.191,18.716 13.319 C 19.085 13.373,19.378 13.497,19.481 13.642 C 19.534 13.716,19.560 13.817,19.560 13.953 C 19.560 14.298,19.304 14.512,18.779 14.603 C 18.291 14.688,17.670 14.598,17.237 14.379 L 17.054 14.286 16.827 14.466 C 16.702 14.565,16.600 14.659,16.600 14.675 C 16.600 14.732,17.028 14.958,17.320 15.055 C 18.328 15.391,19.503 15.215,19.996 14.655 C 20.333 14.272,20.372 13.622,20.080 13.251 C 19.830 12.932,19.459 12.783,18.608 12.658 C 17.870 12.549,17.640 12.467,17.521 12.273 C 17.275 11.868,17.600 11.447,18.232 11.353 C 18.561 11.304,19.108 11.386,19.488 11.540 L 19.733 11.640 19.905 11.510 C 20.000 11.438,20.072 11.362,20.066 11.341 C 20.044 11.269,19.571 10.970,19.334 10.878 C 19.138 10.802,19.008 10.785,18.540 10.775 C 18.158 10.767,17.921 10.780,17.793 10.817 M14.533 11.441 C 14.928 11.589,15.285 12.053,15.346 12.499 L 15.371 12.680 13.985 12.680 L 12.598 12.680 12.622 12.570 C 12.740 12.018,13.054 11.613,13.497 11.442 C 13.778 11.334,14.246 11.333,14.533 11.441 " stroke="none" fill="black" fill-rule="evenodd"></path></svg>