<svg role="img" xmlns="http://www.w3.org/2000/svg" viewBox="0 0 24 24"><path d="M10.140 0.043 C 9.501 0.103,8.618 0.259,7.190 0.563 C 5.464 0.930,4.655 1.064,3.820 1.123 C 2.713 1.202,1.727 1.087,0.832 0.776 C 0.605 0.697,0.389 0.624,0.350 0.612 C 0.283 0.592,0.280 1.083,0.280 10.532 L 0.280 20.472 0.630 20.599 C 1.540 20.928,2.067 21.015,3.180 21.017 C 4.351 21.020,5.011 20.926,7.223 20.444 C 8.233 20.224,9.079 20.066,9.600 20.000 C 9.787 19.977,10.008 19.949,10.090 19.938 L 10.240 19.919 10.240 21.677 L 10.240 23.434 10.550 23.553 C 11.256 23.823,11.907 23.950,12.780 23.985 C 13.825 24.028,14.823 23.895,17.000 23.420 C 18.571 23.078,19.436 22.933,20.237 22.878 C 21.314 22.803,22.289 22.919,23.168 23.224 C 23.395 23.303,23.612 23.376,23.650 23.388 C 23.717 23.408,23.720 22.918,23.720 13.490 C 23.720 5.313,23.711 3.562,23.667 3.526 C 23.560 3.437,22.641 3.159,22.177 3.074 C 21.786 3.003,21.546 2.987,20.840 2.986 C 19.694 2.984,19.131 3.066,16.856 3.562 C 15.709 3.812,14.526 4.025,14.160 4.047 L 13.940 4.060 13.930 2.314 L 13.919 0.568 13.668 0.468 C 13.343 0.337,12.754 0.179,12.300 0.099 C 11.860 0.022,10.684 -0.008,10.140 0.043 M9.286 3.876 C 9.610 4.000,9.851 4.229,10.019 4.573 C 10.225 4.995,10.248 5.236,10.232 6.828 C 10.218 8.184,10.215 8.226,10.123 8.460 C 9.957 8.878,9.737 9.168,9.397 9.419 L 9.169 9.587 9.360 9.656 C 9.687 9.774,9.975 10.070,10.122 10.440 C 10.167 10.553,10.182 11.096,10.200 13.240 C 10.219 15.690,10.227 15.914,10.294 16.080 C 10.440 16.442,10.449 16.425,10.074 16.458 C 9.691 16.491,8.966 16.604,8.370 16.723 C 8.145 16.768,7.942 16.794,7.920 16.780 C 7.898 16.766,7.848 16.698,7.810 16.627 C 7.746 16.511,7.738 16.283,7.720 14.093 C 7.700 11.738,7.698 11.683,7.617 11.575 C 7.497 11.414,7.374 11.398,6.932 11.484 C 6.716 11.526,6.535 11.560,6.530 11.560 C 6.525 11.560,6.520 12.810,6.520 14.337 L 6.520 17.113 6.313 17.158 C 5.677 17.294,4.284 17.520,4.078 17.520 C 4.054 17.520,4.040 15.101,4.040 11.042 L 4.040 4.564 4.170 4.544 C 4.242 4.533,4.570 4.486,4.900 4.440 C 5.440 4.364,6.112 4.231,7.760 3.876 C 8.416 3.735,8.915 3.735,9.286 3.876 M6.840 6.075 L 6.540 6.144 6.530 7.772 L 6.519 9.400 6.610 9.399 C 6.772 9.398,7.293 9.246,7.395 9.170 C 7.691 8.949,7.731 8.711,7.713 7.301 C 7.701 6.302,7.695 6.240,7.616 6.133 C 7.546 6.038,7.500 6.019,7.336 6.013 C 7.228 6.009,7.005 6.037,6.840 6.075 M19.090 6.877 C 19.496 7.033,19.788 7.412,19.925 7.960 C 19.968 8.133,19.980 8.630,19.980 10.280 C 19.980 12.371,19.980 12.381,19.886 12.679 C 19.693 13.293,19.410 13.716,18.992 14.012 C 18.509 14.354,18.181 14.479,17.180 14.701 C 16.828 14.779,16.508 14.853,16.470 14.864 C 16.404 14.884,16.400 15.044,16.400 17.483 C 16.400 18.911,16.387 20.080,16.370 20.080 C 16.354 20.080,16.079 20.133,15.760 20.197 C 15.237 20.302,14.727 20.385,14.130 20.461 L 13.920 20.488 13.920 14.006 L 13.920 7.524 14.050 7.504 C 14.122 7.493,14.450 7.446,14.780 7.400 C 15.110 7.353,15.839 7.216,16.400 7.095 C 17.946 6.760,17.939 6.761,18.420 6.776 C 18.754 6.786,18.915 6.810,19.090 6.877 M16.700 9.033 L 16.420 9.102 16.410 10.931 C 16.404 11.937,16.413 12.759,16.430 12.759 C 16.446 12.758,16.598 12.725,16.766 12.685 C 17.141 12.596,17.312 12.500,17.419 12.319 C 17.495 12.188,17.501 12.103,17.513 10.840 C 17.526 9.406,17.514 9.211,17.406 9.078 C 17.313 8.962,17.056 8.946,16.700 9.033 " stroke="none" fill="black" fill-rule="evenodd"></path></svg>