<svg role="img" xmlns="http://www.w3.org/2000/svg" viewBox="0 0 24 24"><path d="M6.982 8.077 C 6.968 8.100,6.978 8.191,7.004 8.279 C 7.051 8.434,7.059 8.440,7.221 8.440 C 7.314 8.440,7.445 8.429,7.511 8.416 L 7.632 8.392 7.585 8.226 L 7.537 8.060 7.272 8.048 C 7.121 8.042,6.996 8.054,6.982 8.077 M9.840 8.497 C 9.840 8.548,9.829 8.643,9.816 8.708 C 9.793 8.823,9.800 8.828,10.083 8.933 C 10.243 8.992,10.377 9.036,10.381 9.030 C 10.386 9.025,10.399 8.934,10.410 8.829 C 10.433 8.612,10.427 8.606,10.056 8.479 L 9.840 8.404 9.840 8.497 M4.590 8.791 C 4.486 8.851,4.400 8.916,4.400 8.936 C 4.400 8.974,4.638 9.360,4.662 9.360 C 4.669 9.360,4.770 9.302,4.887 9.231 C 5.004 9.161,5.105 9.100,5.112 9.097 C 5.140 9.081,4.863 8.680,4.824 8.681 C 4.800 8.682,4.695 8.731,4.590 8.791 M6.789 8.743 C 6.143 8.860,5.330 9.233,4.628 9.735 C 2.939 10.943,1.680 12.724,0.893 15.020 C 0.733 15.489,0.500 16.407,0.459 16.732 L 0.431 16.960 2.820 16.960 L 5.210 16.960 5.187 16.847 C 5.121 16.514,5.073 15.638,5.094 15.140 C 5.187 12.942,6.037 11.400,7.580 10.629 C 8.302 10.269,8.920 10.135,9.692 10.172 C 10.823 10.226,12.052 10.727,13.238 11.618 L 13.536 11.842 13.637 11.741 L 13.738 11.641 13.442 11.370 C 12.101 10.142,10.550 9.237,9.178 8.883 C 8.407 8.683,7.434 8.627,6.789 8.743 M9.830 10.463 C 9.814 10.479,9.800 10.571,9.800 10.667 L 9.800 10.840 9.950 10.841 C 10.033 10.841,10.166 10.857,10.246 10.876 L 10.393 10.910 10.406 10.711 C 10.414 10.602,10.410 10.506,10.397 10.498 C 10.343 10.465,9.857 10.434,9.830 10.463 M8.100 10.685 C 7.990 10.730,7.894 10.773,7.886 10.781 C 7.862 10.805,8.005 11.200,8.038 11.200 C 8.056 11.200,8.173 11.154,8.299 11.099 C 8.545 10.990,8.548 10.983,8.441 10.702 C 8.395 10.581,8.362 10.579,8.100 10.685 M2.159 10.861 L 1.940 11.083 2.160 11.280 C 2.281 11.388,2.390 11.477,2.402 11.478 C 2.433 11.481,2.800 11.053,2.800 11.014 C 2.800 10.966,2.469 10.640,2.420 10.640 C 2.397 10.640,2.279 10.740,2.159 10.861 M6.546 11.766 C 6.381 11.955,6.367 11.985,6.413 12.058 C 6.442 12.103,6.508 12.210,6.560 12.297 L 6.655 12.453 6.717 12.358 C 6.752 12.305,6.830 12.204,6.892 12.133 C 7.015 11.993,7.010 11.966,6.807 11.667 L 6.731 11.555 6.546 11.766 M7.720 14.678 L 7.720 16.960 8.299 16.960 L 8.878 16.960 8.889 16.418 L 8.900 15.876 9.392 16.418 L 9.885 16.960 10.747 16.960 L 11.609 16.960 11.115 16.436 C 10.843 16.148,10.545 15.827,10.454 15.724 L 10.288 15.536 10.490 15.464 C 10.770 15.365,11.079 15.050,11.202 14.739 C 11.284 14.534,11.297 14.430,11.298 14.000 C 11.300 13.521,11.295 13.489,11.176 13.240 C 11.026 12.928,10.779 12.675,10.480 12.528 L 10.260 12.420 8.990 12.408 L 7.720 12.397 7.720 14.678 M12.531 12.541 C 12.300 12.657,12.125 12.853,11.989 13.147 C 11.902 13.336,11.900 13.375,11.888 15.150 L 11.876 16.960 12.478 16.960 L 13.080 16.960 13.080 16.559 L 13.080 16.158 13.630 16.169 L 14.180 16.180 14.191 16.570 L 14.203 16.960 14.761 16.960 L 15.320 16.960 15.320 15.187 C 15.320 13.168,15.314 13.122,15.029 12.813 C 14.718 12.475,14.666 12.462,13.640 12.448 L 12.740 12.436 12.531 12.541 M15.880 14.700 L 15.880 16.960 16.480 16.960 L 17.080 16.960 17.080 14.700 L 17.080 12.440 16.480 12.440 L 15.880 12.440 15.880 14.700 M17.600 14.700 L 17.600 16.960 19.040 16.960 L 20.480 16.960 20.480 16.380 L 20.480 15.800 19.660 15.800 L 18.840 15.800 18.840 14.120 L 18.840 12.440 18.220 12.440 L 17.600 12.440 17.600 14.700 M21.506 12.537 C 21.237 12.669,21.089 12.820,20.955 13.100 C 20.847 13.325,20.840 13.371,20.840 13.844 C 20.840 14.326,20.845 14.358,20.963 14.593 C 21.106 14.879,21.295 15.050,21.592 15.161 C 21.764 15.225,21.903 15.240,22.342 15.240 L 22.880 15.240 22.880 15.520 L 22.880 15.800 21.880 15.800 L 20.880 15.800 20.880 16.380 L 20.880 16.960 21.994 16.960 L 23.107 16.960 23.357 16.835 C 23.831 16.598,24.025 16.169,23.992 15.432 C 23.963 14.793,23.759 14.437,23.304 14.233 C 23.127 14.154,23.020 14.140,22.490 14.127 L 21.880 14.113 21.880 13.856 L 21.880 13.600 22.860 13.600 L 23.840 13.600 23.840 13.020 L 23.840 12.440 22.770 12.441 C 21.726 12.442,21.695 12.445,21.506 12.537 M5.581 13.650 C 5.543 13.809,5.506 13.967,5.497 14.000 C 5.483 14.053,5.904 14.440,5.975 14.440 C 5.989 14.440,6.000 14.393,6.000 14.335 C 6.000 14.277,6.021 14.113,6.048 13.970 L 6.095 13.711 5.898 13.537 C 5.789 13.441,5.688 13.362,5.674 13.362 C 5.660 13.361,5.618 13.490,5.581 13.650 M14.071 13.582 C 14.156 13.642,14.160 13.669,14.160 14.262 L 14.160 14.880 13.620 14.880 L 13.080 14.880 13.080 14.262 C 13.080 13.506,13.069 13.520,13.620 13.520 C 13.883 13.520,14.007 13.537,14.071 13.582 M9.967 13.681 C 10.125 13.893,10.110 14.271,9.935 14.479 L 9.833 14.600 9.356 14.600 L 8.880 14.600 8.880 14.079 L 8.880 13.558 9.386 13.569 C 9.874 13.580,9.894 13.584,9.967 13.681 M0.142 14.005 C 0.062 14.206,0.002 14.374,0.008 14.379 C 0.037 14.402,0.692 14.641,0.699 14.631 C 0.717 14.605,0.958 13.975,0.969 13.927 C 0.980 13.874,0.489 13.646,0.354 13.642 C 0.308 13.641,0.245 13.748,0.142 14.005 M5.416 16.043 C 5.431 16.240,5.452 16.426,5.464 16.456 C 5.481 16.502,5.648 16.573,6.143 16.748 C 6.171 16.758,6.161 16.621,6.114 16.355 C 6.073 16.131,6.036 15.943,6.030 15.938 C 6.025 15.933,5.878 15.873,5.704 15.806 L 5.389 15.684 5.416 16.043 " stroke="none" fill="black" fill-rule="evenodd"></path></svg>