<svg role="img" viewBox="0 0 24 24" xmlns="http://www.w3.org/2000/svg"><path d="M5.980 0.028 C 5.449 0.041,3.451 0.153,3.060 0.192 L 2.780 0.220 2.770 12.060 C 2.764 18.572,2.767 23.920,2.776 23.944 C 2.788 23.974,3.063 23.933,3.626 23.819 C 5.111 23.517,7.417 23.120,7.684 23.120 C 7.705 23.120,7.720 18.451,7.720 11.560 L 7.720 0.000 7.070 0.008 C 6.713 0.013,6.222 0.022,5.980 0.028 M8.920 11.484 L 8.920 22.967 9.070 22.944 C 9.264 22.915,10.245 22.814,10.860 22.761 C 12.955 22.579,15.511 22.502,17.547 22.559 C 18.918 22.597,20.677 22.689,21.070 22.742 L 21.240 22.765 21.240 12.128 L 21.240 1.490 21.110 1.467 C 21.038 1.455,20.674 1.379,20.300 1.300 C 17.102 0.618,13.202 0.139,10.199 0.060 C 9.749 0.048,9.277 0.030,9.150 0.020 L 8.920 0.001 8.920 11.484 M12.280 1.882 C 14.381 1.993,16.650 2.235,18.680 2.563 C 19.087 2.629,19.543 2.700,19.692 2.722 C 20.064 2.774,20.190 2.848,20.287 3.066 C 20.431 3.391,20.286 3.743,19.969 3.840 C 19.887 3.865,19.782 3.904,19.736 3.926 C 19.676 3.955,19.555 3.949,19.316 3.905 C 17.113 3.500,13.698 3.136,11.360 3.057 C 10.481 3.027,10.367 3.004,10.206 2.820 C 9.987 2.571,10.003 2.243,10.246 2.000 C 10.459 1.787,10.466 1.787,12.280 1.882 M6.720 2.000 C 6.878 2.113,6.960 2.277,6.960 2.480 C 6.960 2.686,6.878 2.848,6.712 2.966 C 6.591 3.052,6.503 3.063,5.302 3.142 C 4.203 3.214,3.997 3.218,3.862 3.172 C 3.563 3.070,3.420 2.858,3.449 2.559 C 3.469 2.352,3.562 2.201,3.734 2.099 C 3.846 2.032,3.917 2.026,5.920 1.906 C 6.362 1.880,6.589 1.907,6.720 2.000 M12.260 4.720 C 14.487 4.813,16.489 4.993,18.520 5.283 C 19.944 5.486,20.004 5.499,20.128 5.636 C 20.267 5.792,20.325 6.000,20.276 6.176 C 20.229 6.348,20.026 6.548,19.864 6.583 C 19.796 6.598,19.730 6.626,19.717 6.646 C 19.704 6.666,19.360 6.629,18.937 6.563 C 16.587 6.196,14.096 5.976,11.387 5.895 C 10.551 5.870,10.463 5.861,10.350 5.784 C 10.144 5.643,10.065 5.503,10.065 5.280 C 10.065 5.054,10.144 4.916,10.360 4.770 C 10.517 4.663,10.743 4.657,12.260 4.720 M6.729 4.890 C 7.070 5.081,7.135 5.507,6.867 5.794 C 6.702 5.971,6.598 5.993,5.496 6.084 C 4.171 6.194,3.928 6.196,3.757 6.095 C 3.460 5.921,3.370 5.619,3.529 5.323 C 3.683 5.035,3.778 5.006,4.848 4.918 C 6.562 4.778,6.531 4.779,6.729 4.890 M12.940 7.601 C 14.677 7.661,16.213 7.774,17.900 7.964 C 19.139 8.104,19.937 8.226,20.073 8.296 C 20.444 8.488,20.457 9.070,20.096 9.307 C 19.943 9.406,19.699 9.397,18.580 9.249 C 16.235 8.938,13.721 8.762,11.560 8.760 C 10.681 8.758,10.563 8.750,10.411 8.681 C 9.973 8.483,9.967 7.880,10.401 7.651 C 10.558 7.568,10.625 7.560,11.176 7.560 C 11.508 7.560,12.302 7.579,12.940 7.601 M13.660 10.400 C 15.601 10.457,16.911 10.546,18.700 10.742 C 19.876 10.870,20.033 10.899,20.151 11.010 C 20.372 11.216,20.422 11.510,20.276 11.746 C 20.192 11.882,20.018 12.000,19.901 12.000 C 19.867 12.000,19.804 12.021,19.762 12.048 C 19.702 12.086,19.489 12.073,18.733 11.986 C 16.328 11.710,14.423 11.600,12.038 11.600 C 10.602 11.600,10.574 11.598,10.401 11.510 C 10.000 11.304,9.969 10.740,10.345 10.493 C 10.543 10.363,11.497 10.336,13.660 10.400 M16.180 13.398 C 18.298 13.531,19.842 13.690,20.018 13.793 C 20.302 13.959,20.403 14.323,20.240 14.590 C 20.109 14.806,19.807 14.947,19.698 14.844 C 19.656 14.804,18.383 14.672,17.160 14.581 C 15.628 14.467,14.471 14.434,12.460 14.445 C 11.008 14.454,10.397 14.444,10.340 14.412 C 9.977 14.209,9.937 13.668,10.269 13.450 C 10.328 13.412,10.485 13.368,10.618 13.354 C 10.983 13.314,15.402 13.349,16.180 13.398 " stroke="none" fill="black" fill-rule="evenodd"></path></svg>