<svg role="img" xmlns="http://www.w3.org/2000/svg" viewBox="0 0 24 24"><path d="M5.060 5.439 C 2.491 6.114,0.578 8.204,0.097 10.860 C -0.004 11.416,-0.004 12.584,0.097 13.140 C 0.240 13.933,0.513 14.691,0.892 15.352 C 1.160 15.821,1.555 16.360,1.630 16.360 C 1.662 16.360,1.853 16.263,2.055 16.144 C 3.695 15.179,4.931 13.480,5.417 11.526 C 5.641 10.620,5.678 10.039,5.679 7.370 L 5.680 5.320 5.590 5.322 C 5.540 5.323,5.302 5.375,5.060 5.439 M7.920 7.590 C 7.920 8.842,7.939 10.057,7.961 10.300 C 8.169 12.506,9.226 14.458,10.900 15.726 C 11.158 15.921,11.886 16.367,11.910 16.344 C 11.918 16.336,11.833 16.210,11.722 16.063 C 10.207 14.061,9.950 11.302,11.065 9.013 C 11.233 8.669,11.692 7.944,11.883 7.720 L 11.969 7.620 12.108 7.780 C 12.185 7.868,12.345 8.086,12.464 8.265 C 13.967 10.518,14.015 13.243,12.591 15.538 C 12.481 15.715,12.303 15.973,12.195 16.110 C 12.087 16.247,12.012 16.360,12.029 16.360 C 12.083 16.360,12.715 15.972,13.050 15.732 C 13.503 15.409,14.169 14.740,14.544 14.232 C 15.272 13.247,15.720 12.198,15.967 10.900 C 16.046 10.489,16.052 10.291,16.069 7.890 C 16.085 5.421,16.083 5.320,16.013 5.321 C 15.891 5.322,15.441 5.435,15.040 5.566 C 14.004 5.905,13.082 6.483,12.282 7.296 L 11.983 7.599 11.562 7.187 C 10.940 6.579,10.536 6.287,9.816 5.927 C 9.250 5.643,8.281 5.321,7.990 5.320 C 7.924 5.320,7.920 5.455,7.920 7.590 M18.321 7.310 C 18.321 10.002,18.365 10.682,18.597 11.587 C 19.016 13.227,20.011 14.743,21.305 15.714 C 21.672 15.990,22.292 16.360,22.387 16.360 C 22.433 16.360,22.856 15.785,23.055 15.452 C 23.776 14.246,24.116 12.682,23.958 11.300 C 23.722 9.231,22.673 7.499,20.965 6.354 C 20.499 6.042,20.232 5.900,19.727 5.695 C 19.384 5.556,18.547 5.320,18.397 5.320 C 18.322 5.320,18.320 5.370,18.321 7.310 M6.648 14.178 C 6.234 15.454,5.264 16.721,4.005 17.629 C 3.771 17.797,3.572 17.942,3.561 17.950 C 3.531 17.973,3.633 18.027,4.073 18.220 C 5.581 18.883,7.342 18.968,8.900 18.454 C 9.247 18.339,9.909 18.058,9.990 17.992 C 10.027 17.961,9.967 17.900,9.750 17.751 C 8.403 16.826,7.397 15.551,6.942 14.194 C 6.868 13.974,6.801 13.789,6.794 13.782 C 6.786 13.775,6.720 13.953,6.648 14.178 M17.186 13.802 C 16.822 14.989,16.301 15.873,15.463 16.722 C 15.041 17.151,14.688 17.450,14.247 17.753 C 13.962 17.949,13.957 17.955,14.047 18.005 C 15.646 18.886,17.788 19.031,19.541 18.379 C 19.917 18.240,20.440 17.994,20.440 17.958 C 20.440 17.942,20.346 17.868,20.230 17.794 C 19.870 17.565,19.275 17.065,18.919 16.695 C 18.159 15.904,17.658 15.096,17.343 14.158 C 17.267 13.930,17.196 13.769,17.186 13.802 " stroke="none" fill="black" fill-rule="evenodd"></path></svg>