<svg role="img" xmlns="http://www.w3.org/2000/svg" viewBox="0 0 24 24"><path d="M17.300 0.059 C 16.632 0.165,16.059 0.370,15.488 0.707 C 15.073 0.951,14.788 1.180,14.416 1.568 C 13.509 2.514,13.040 3.684,13.040 5.003 C 13.040 5.808,13.204 6.428,13.683 7.440 C 14.029 8.172,14.096 8.425,14.070 8.900 C 14.036 9.507,13.816 9.919,13.332 10.286 C 12.982 10.550,12.702 10.649,12.235 10.671 C 11.399 10.710,10.844 10.386,10.271 9.522 C 9.446 8.280,8.658 7.634,7.500 7.250 C 6.926 7.060,6.646 7.020,5.900 7.022 C 5.299 7.024,5.170 7.036,4.788 7.132 C 2.843 7.617,1.447 9.060,1.035 11.008 C 0.924 11.534,0.915 12.374,1.014 12.887 C 1.405 14.901,2.829 16.388,4.840 16.882 C 5.160 16.961,5.328 16.976,5.900 16.978 C 6.638 16.980,6.912 16.942,7.500 16.756 C 8.640 16.395,9.439 15.729,10.349 14.380 C 10.735 13.808,11.094 13.513,11.594 13.359 C 12.606 13.046,13.767 13.738,14.018 14.804 C 14.149 15.359,14.091 15.689,13.721 16.480 C 13.217 17.555,13.083 18.026,13.052 18.825 C 12.997 20.221,13.466 21.449,14.440 22.455 C 15.353 23.399,16.491 23.918,17.804 23.989 C 19.128 24.060,20.495 23.552,21.468 22.627 C 22.884 21.282,23.390 19.254,22.776 17.380 C 22.534 16.642,22.018 15.841,21.446 15.318 C 20.524 14.474,19.596 14.112,18.077 14.002 C 17.216 13.939,16.828 13.806,16.423 13.434 C 16.028 13.072,15.840 12.616,15.840 12.019 C 15.840 11.321,16.145 10.750,16.725 10.363 C 17.059 10.140,17.372 10.053,18.026 10.002 C 18.791 9.942,19.266 9.858,19.769 9.692 C 21.116 9.249,22.269 8.097,22.774 6.689 C 23.129 5.702,23.151 4.527,22.835 3.490 C 22.622 2.791,22.050 1.874,21.531 1.398 C 20.352 0.317,18.788 -0.178,17.300 0.059 " stroke="none" fill="black" fill-rule="evenodd"></path></svg>