<svg role="img" viewBox="0 0 24 24" xmlns="http://www.w3.org/2000/svg"><path d="M0.188 0.191 L -0.000 0.383 0.000 2.983 L 0.000 5.583 0.181 5.761 L 0.363 5.939 5.951 5.009 C 9.025 4.497,11.577 4.079,11.622 4.079 C 11.667 4.080,11.770 4.148,11.852 4.232 L 12.000 4.383 12.000 6.189 L 12.000 7.994 11.890 8.016 C 11.830 8.029,9.233 8.463,6.120 8.981 L 0.460 9.923 0.230 10.150 L -0.000 10.377 0.000 11.980 L 0.000 13.583 0.181 13.761 L 0.363 13.939 6.091 12.986 C 9.242 12.462,11.861 12.024,11.910 12.012 L 12.000 11.991 12.000 9.999 L 12.000 8.006 12.110 7.984 C 12.171 7.971,14.713 7.546,17.760 7.040 C 20.807 6.534,23.348 6.109,23.406 6.097 C 23.465 6.085,23.622 5.964,23.756 5.828 L 24.000 5.580 24.000 2.979 L 24.000 0.377 23.809 0.188 L 23.617 0.000 11.997 -0.000 L 0.377 -0.000 0.188 0.191 M17.840 11.022 C 14.771 11.536,12.202 11.967,12.130 11.980 L 12.000 12.004 12.000 13.999 L 12.000 15.994 11.890 16.016 C 11.830 16.029,9.233 16.463,6.120 16.981 L 0.460 17.923 0.230 18.150 L -0.000 18.377 -0.000 20.980 L 0.000 23.583 0.211 23.791 L 0.423 24.000 12.003 24.000 L 23.583 24.000 23.791 23.789 L 24.000 23.577 24.000 20.977 L 24.000 18.376 23.848 18.228 C 23.765 18.147,23.661 18.080,23.618 18.079 C 23.575 18.079,21.025 18.497,17.951 19.009 L 12.363 19.939 12.181 19.761 L 12.000 19.583 12.000 17.795 L 12.000 16.006 12.110 15.984 C 12.171 15.971,14.713 15.546,17.760 15.040 C 20.807 14.534,23.348 14.109,23.406 14.097 C 23.465 14.085,23.622 13.964,23.756 13.828 L 24.000 13.580 24.000 11.978 L 24.000 10.376 23.848 10.228 C 23.729 10.112,23.667 10.081,23.558 10.084 C 23.482 10.086,20.909 10.508,17.840 11.022 " stroke="none" fill="black" fill-rule="evenodd"></path></svg>