<svg role="img" viewBox="0 0 24 24" xmlns="http://www.w3.org/2000/svg"><path d="M11.100 0.044 C 8.154 0.364,5.617 2.102,4.306 4.700 C 3.869 5.567,3.616 6.384,3.468 7.406 L 3.380 8.011 2.051 8.796 C 1.321 9.227,0.723 9.589,0.723 9.600 C 0.723 9.620,3.875 11.449,4.417 11.744 C 4.577 11.831,4.684 11.871,4.669 11.838 C 4.179 10.729,4.021 9.941,4.024 8.620 C 4.025 7.720,4.073 7.318,4.263 6.600 C 4.995 3.823,7.209 1.639,10.000 0.939 C 11.169 0.646,12.598 0.641,13.812 0.925 C 15.170 1.242,16.457 1.935,17.472 2.895 C 18.744 4.099,19.569 5.719,19.821 7.511 C 19.914 8.171,19.885 9.430,19.763 10.020 C 19.662 10.512,19.479 11.158,19.324 11.570 C 19.260 11.740,19.217 11.880,19.227 11.880 C 19.262 11.880,23.197 9.575,23.253 9.521 C 23.271 9.504,22.695 9.162,21.973 8.761 C 21.251 8.361,20.648 8.021,20.633 8.006 C 20.618 7.992,20.577 7.755,20.542 7.480 C 20.060 3.675,17.156 0.707,13.320 0.100 C 12.816 0.020,11.603 -0.010,11.100 0.044 M0.090 13.605 L 0.100 17.299 5.860 20.628 C 9.028 22.459,11.643 23.958,11.670 23.959 C 11.710 23.960,11.720 23.199,11.720 20.285 L 11.720 16.609 5.964 13.285 C 2.798 11.457,0.179 9.950,0.144 9.936 C 0.085 9.913,0.080 10.223,0.090 13.605 M18.070 13.267 L 12.280 16.612 12.280 20.291 C 12.280 23.792,12.283 23.968,12.351 23.951 C 12.421 23.933,23.772 17.389,23.870 17.310 C 23.909 17.279,23.920 16.487,23.920 13.595 C 23.920 11.574,23.907 9.920,23.890 9.921 C 23.873 9.921,21.255 11.427,18.070 13.267 " stroke="none" fill="black" fill-rule="evenodd"></path></svg>