<svg role="img" viewBox="0 0 24 24" xmlns="http://www.w3.org/2000/svg"><path d="M18.331 1.090 C 17.335 1.646,16.522 2.109,16.522 2.120 C 16.523 2.131,18.021 3.360,19.852 4.851 C 21.682 6.342,23.243 7.615,23.320 7.680 L 23.460 7.798 23.320 7.799 C 23.008 7.803,14.673 8.354,14.655 8.372 C 14.634 8.393,14.996 9.832,16.245 14.695 C 16.662 16.320,16.998 17.655,16.992 17.661 C 16.982 17.672,12.845 16.358,8.820 15.066 C 8.248 14.882,7.778 14.734,7.776 14.736 C 7.774 14.738,7.145 16.788,6.378 19.290 C 5.612 21.793,4.975 23.840,4.962 23.840 C 4.949 23.840,4.201 22.113,3.300 20.002 C 2.398 17.892,1.645 16.180,1.626 16.198 C 1.608 16.216,1.233 16.886,0.794 17.686 L -0.005 19.140 0.019 19.480 C 0.190 21.897,1.304 23.316,3.380 23.762 C 4.073 23.910,4.717 23.938,5.781 23.865 C 6.704 23.802,8.349 23.690,10.840 23.520 C 11.489 23.475,12.668 23.395,13.460 23.340 C 15.576 23.195,18.255 23.012,19.600 22.920 C 21.640 22.781,22.620 22.711,22.628 22.704 C 22.632 22.701,22.944 18.666,23.321 13.739 C 23.893 6.261,24.002 4.707,23.980 4.340 C 23.902 3.046,23.546 2.118,22.845 1.386 C 22.249 0.764,21.320 0.302,20.260 0.103 C 20.158 0.084,19.874 0.229,18.331 1.090 M12.420 0.664 C 10.937 0.927,9.042 1.870,7.240 3.243 C 5.803 4.337,4.374 5.756,3.333 7.120 C 1.988 8.883,1.092 10.764,0.877 12.274 C 0.804 12.788,0.847 13.507,0.975 13.903 C 1.230 14.695,1.788 15.205,2.594 15.384 C 2.989 15.472,3.833 15.442,4.320 15.322 C 6.498 14.786,9.110 13.130,11.420 10.820 C 13.652 8.588,15.182 6.121,15.625 4.040 C 15.725 3.569,15.727 2.640,15.629 2.283 C 15.394 1.431,14.851 0.893,14.009 0.677 C 13.644 0.584,12.907 0.578,12.420 0.664 " stroke="none" fill="black" fill-rule="evenodd"></path></svg>