<svg role="img" xmlns="http://www.w3.org/2000/svg" viewBox="0 0 24 24"><path d="M7.090 7.549 C 6.944 7.567,6.945 7.564,7.002 7.770 L 7.044 7.920 7.342 7.920 C 7.506 7.920,7.640 7.914,7.640 7.907 C 7.640 7.900,7.611 7.810,7.576 7.707 C 7.507 7.504,7.491 7.499,7.090 7.549 M9.834 8.076 C 9.831 8.166,9.826 8.260,9.824 8.285 C 9.821 8.319,10.365 8.572,10.384 8.546 C 10.387 8.543,10.399 8.447,10.412 8.334 L 10.435 8.128 10.248 8.047 C 10.144 8.003,10.011 7.954,9.950 7.939 C 9.844 7.912,9.840 7.917,9.834 8.076 M4.610 8.284 C 4.495 8.352,4.400 8.419,4.400 8.435 C 4.400 8.451,4.458 8.556,4.530 8.670 L 4.660 8.875 4.862 8.748 C 4.974 8.677,5.073 8.608,5.082 8.593 C 5.102 8.563,4.877 8.159,4.842 8.161 C 4.830 8.161,4.726 8.217,4.610 8.284 M7.069 8.201 C 5.549 8.374,3.772 9.614,2.453 11.420 C 1.806 12.306,1.142 13.674,0.781 14.864 C 0.635 15.347,0.440 16.213,0.440 16.381 L 0.440 16.480 2.825 16.480 L 5.210 16.480 5.186 16.330 C 5.114 15.878,5.073 15.119,5.094 14.640 C 5.178 12.746,5.843 11.298,7.013 10.463 C 7.345 10.226,8.017 9.907,8.400 9.804 C 9.881 9.405,11.498 9.842,13.230 11.108 C 13.389 11.225,13.535 11.320,13.553 11.320 C 13.572 11.320,13.622 11.282,13.664 11.236 C 13.739 11.153,13.738 11.151,13.453 10.879 C 12.519 9.988,11.129 9.088,10.036 8.666 C 9.006 8.268,7.943 8.101,7.069 8.201 M9.826 10.007 C 9.812 10.058,9.801 10.147,9.801 10.205 C 9.800 10.305,9.814 10.312,10.089 10.353 C 10.247 10.377,10.380 10.392,10.383 10.388 C 10.386 10.384,10.400 10.296,10.413 10.193 L 10.438 10.007 10.269 9.981 C 10.176 9.966,10.044 9.945,9.976 9.934 C 9.870 9.916,9.847 9.928,9.826 10.007 M8.160 10.169 C 8.039 10.213,7.926 10.262,7.910 10.277 C 7.887 10.298,7.977 10.655,8.020 10.711 C 8.027 10.721,8.482 10.523,8.516 10.495 C 8.536 10.478,8.436 10.122,8.405 10.103 C 8.391 10.095,8.281 10.125,8.160 10.169 M2.165 10.350 L 1.963 10.580 2.092 10.713 C 2.162 10.787,2.267 10.881,2.324 10.922 L 2.428 10.997 2.629 10.746 L 2.831 10.495 2.618 10.307 C 2.501 10.204,2.397 10.120,2.386 10.120 C 2.375 10.120,2.276 10.223,2.165 10.350 M6.531 11.284 L 6.362 11.481 6.484 11.680 C 6.551 11.790,6.621 11.888,6.639 11.899 C 6.656 11.910,6.747 11.821,6.840 11.700 L 7.009 11.481 6.880 11.280 C 6.810 11.170,6.740 11.081,6.726 11.083 C 6.712 11.085,6.624 11.175,6.531 11.284 M7.720 14.178 L 7.720 16.480 8.299 16.480 L 8.878 16.480 8.889 15.932 L 8.900 15.383 9.400 15.931 L 9.900 16.478 10.757 16.479 L 11.614 16.480 11.517 16.370 C 11.464 16.310,11.162 15.986,10.846 15.651 C 10.380 15.155,10.286 15.036,10.346 15.018 C 10.538 14.961,10.852 14.777,10.943 14.669 C 11.191 14.375,11.319 13.976,11.319 13.500 C 11.319 12.774,11.030 12.280,10.445 12.006 L 10.220 11.900 8.970 11.888 L 7.720 11.876 7.720 14.178 M12.647 11.995 C 12.375 12.091,12.157 12.304,12.013 12.615 L 11.900 12.860 11.888 14.670 L 11.876 16.480 12.478 16.480 L 13.080 16.480 13.080 16.080 L 13.080 15.680 13.640 15.680 L 14.200 15.680 14.200 16.080 L 14.200 16.480 14.760 16.480 L 15.320 16.480 15.320 14.687 C 15.320 12.689,15.313 12.627,15.060 12.331 C 14.982 12.239,14.815 12.114,14.689 12.052 C 14.464 11.942,14.446 11.940,13.660 11.930 C 12.963 11.921,12.833 11.929,12.647 11.995 M15.880 14.200 L 15.880 16.482 16.490 16.471 L 17.100 16.460 17.100 14.200 L 17.100 11.940 16.490 11.929 L 15.880 11.918 15.880 14.200 M17.600 14.200 L 17.600 16.480 19.040 16.480 L 20.480 16.480 20.480 15.880 L 20.480 15.280 19.660 15.280 L 18.840 15.280 18.840 13.600 L 18.840 11.920 18.220 11.920 L 17.600 11.920 17.600 14.200 M21.620 11.991 C 21.349 12.080,20.999 12.426,20.907 12.697 C 20.817 12.962,20.815 13.711,20.903 13.971 C 20.988 14.222,21.238 14.493,21.499 14.622 C 21.704 14.721,21.750 14.728,22.298 14.728 L 22.880 14.728 22.880 15.024 L 22.880 15.320 21.880 15.320 L 20.880 15.320 20.880 15.902 L 20.880 16.485 22.010 16.472 L 23.140 16.460 23.340 16.354 C 23.596 16.217,23.772 16.032,23.886 15.780 C 23.958 15.621,23.980 15.488,23.993 15.135 C 24.019 14.389,23.850 14.022,23.365 13.770 L 23.113 13.640 22.497 13.640 L 21.880 13.640 21.880 13.360 L 21.880 13.080 22.860 13.080 L 23.840 13.080 23.840 12.500 L 23.840 11.920 22.830 11.922 C 22.006 11.924,21.783 11.937,21.620 11.991 M5.566 13.210 L 5.481 13.540 5.691 13.729 C 5.806 13.833,5.919 13.918,5.942 13.919 C 5.966 13.919,6.008 13.758,6.036 13.560 L 6.087 13.200 5.956 13.090 C 5.768 12.931,5.703 12.883,5.675 12.881 C 5.661 12.881,5.612 13.028,5.566 13.210 M14.013 13.046 C 14.061 13.071,14.113 13.112,14.129 13.136 C 14.146 13.160,14.159 13.445,14.159 13.770 L 14.160 14.360 13.620 14.360 L 13.080 14.360 13.080 13.766 C 13.080 13.144,13.093 13.097,13.280 13.028 C 13.392 12.987,13.925 13.000,14.013 13.046 M9.939 13.136 C 10.110 13.306,10.125 13.746,9.969 13.957 C 9.894 14.057,9.877 14.060,9.386 14.071 L 8.880 14.082 8.880 13.561 L 8.880 13.040 9.362 13.040 C 9.816 13.040,9.849 13.045,9.939 13.136 M0.167 13.450 C 0.098 13.632,0.037 13.803,0.031 13.832 C 0.021 13.878,0.550 14.119,0.664 14.120 C 0.688 14.120,0.766 13.972,0.838 13.790 C 0.909 13.608,0.976 13.440,0.986 13.416 C 1.000 13.381,0.407 13.120,0.314 13.120 C 0.301 13.120,0.235 13.268,0.167 13.450 M5.417 15.549 C 5.433 15.740,5.460 15.924,5.479 15.956 C 5.504 16.002,6.161 16.289,6.185 16.265 C 6.204 16.246,6.043 15.467,6.015 15.443 C 5.978 15.410,5.457 15.200,5.414 15.200 C 5.400 15.200,5.402 15.357,5.417 15.549 " stroke="none" fill="black" fill-rule="evenodd"></path></svg>