<svg role="img" xmlns="http://www.w3.org/2000/svg" viewBox="0 0 24 24"><path d="M0.000 12.000 L 0.000 24.000 12.000 24.000 L 24.000 24.000 24.000 12.000 L 24.000 0.000 12.000 0.000 L 0.000 0.000 0.000 12.000 M13.160 4.781 C 13.947 4.847,14.361 4.938,14.914 5.164 C 16.624 5.862,17.921 7.445,18.066 9.010 L 18.091 9.280 16.426 9.280 L 14.760 9.280 14.760 9.162 C 14.760 8.997,14.596 8.564,14.444 8.327 C 14.278 8.068,13.981 7.792,13.731 7.666 C 13.184 7.389,11.639 7.282,10.942 7.473 C 10.018 7.727,9.441 8.263,9.373 8.930 C 9.340 9.250,9.416 9.470,9.634 9.681 C 9.785 9.827,9.919 9.900,10.340 10.066 C 11.133 10.379,11.532 10.487,13.131 10.822 C 14.803 11.172,15.524 11.384,16.260 11.740 C 17.494 12.338,18.116 13.025,18.363 14.062 C 18.435 14.365,18.445 14.503,18.429 14.960 C 18.395 15.940,18.086 16.685,17.424 17.388 C 16.636 18.224,15.504 18.816,14.200 19.075 C 13.417 19.229,13.078 19.259,12.120 19.258 C 10.606 19.255,9.508 19.096,8.719 18.766 C 7.025 18.057,5.703 16.429,5.573 14.891 L 5.548 14.600 7.186 14.600 L 8.824 14.600 8.868 14.858 C 8.956 15.373,9.262 15.821,9.734 16.126 C 10.042 16.325,10.298 16.417,10.760 16.495 C 12.092 16.720,13.133 16.652,14.107 16.274 C 14.745 16.027,15.015 15.697,15.017 15.161 C 15.019 14.600,14.778 14.234,14.231 13.968 C 13.555 13.640,12.786 13.418,11.153 13.081 C 10.610 12.969,9.944 12.813,9.673 12.735 C 9.402 12.657,9.072 12.565,8.940 12.531 C 8.264 12.357,7.519 11.918,6.988 11.380 C 5.296 9.668,5.665 7.223,7.832 5.783 C 8.670 5.226,9.643 4.888,10.820 4.746 C 11.144 4.707,12.539 4.728,13.160 4.781 " stroke="none" fill="black" fill-rule="evenodd"></path></svg>