<svg role="img" viewBox="0 0 24 24" xmlns="http://www.w3.org/2000/svg"><path d="M5.627 3.644 C 4.798 3.765,4.001 4.113,3.344 4.642 C 2.375 5.422,1.740 6.623,1.647 7.850 C 1.594 8.555,1.696 9.312,1.921 9.883 C 1.965 9.993,2.000 10.090,2.000 10.098 C 2.000 10.106,1.915 10.162,1.812 10.223 C 1.541 10.381,0.960 10.956,0.720 11.304 C -0.391 12.911,-0.190 15.096,1.197 16.483 C 1.702 16.988,2.306 17.338,3.000 17.527 C 3.299 17.609,3.430 17.620,4.085 17.620 L 4.830 17.620 5.000 17.973 C 5.615 19.250,6.871 20.159,8.297 20.357 C 10.071 20.604,11.857 19.689,12.682 18.110 C 12.771 17.940,12.851 17.800,12.859 17.800 C 12.867 17.800,13.059 17.862,13.287 17.937 C 13.782 18.101,14.346 18.179,14.760 18.142 C 15.993 18.032,17.031 17.415,17.675 16.408 C 17.794 16.222,17.824 16.199,17.915 16.219 C 18.240 16.288,18.855 16.314,19.276 16.276 C 21.593 16.065,23.414 14.414,23.906 12.080 C 24.017 11.555,24.007 10.550,23.886 10.000 C 23.661 8.985,23.176 8.093,22.461 7.380 C 21.872 6.793,21.234 6.396,20.467 6.140 C 19.914 5.955,19.445 5.880,18.845 5.880 C 18.113 5.880,17.470 6.002,16.882 6.253 L 16.744 6.312 16.545 6.009 C 16.137 5.387,15.345 4.728,14.666 4.445 C 13.986 4.162,13.151 4.055,12.436 4.157 C 11.624 4.274,10.804 4.670,10.176 5.248 L 10.011 5.400 9.616 5.005 C 9.028 4.419,8.331 3.996,7.625 3.797 C 6.994 3.620,6.205 3.559,5.627 3.644 " stroke="none" fill="black" fill-rule="evenodd"></path></svg>