<svg role="img" xmlns="http://www.w3.org/2000/svg" viewBox="0 0 24 24"><path d="M1.040 2.680 L 1.040 5.360 3.720 5.360 L 6.400 5.360 6.400 2.680 L 6.400 0.000 3.720 0.000 L 1.040 0.000 1.040 2.680 M11.520 2.723 C 10.977 2.752,9.971 2.879,9.700 2.953 L 9.580 2.986 9.570 4.870 L 9.559 6.755 9.865 6.614 C 10.899 6.136,12.673 6.071,13.927 6.464 C 14.515 6.648,14.936 6.894,15.324 7.279 C 15.603 7.554,15.701 7.685,15.835 7.960 C 15.997 8.292,16.159 8.830,16.161 9.036 C 16.161 9.093,16.172 9.181,16.185 9.230 L 16.209 9.320 18.225 9.320 L 20.240 9.320 20.240 9.162 C 20.240 8.880,20.119 8.070,20.015 7.660 C 19.577 5.926,18.516 4.639,16.760 3.708 C 16.006 3.308,15.050 2.996,14.098 2.839 C 13.683 2.771,12.419 2.670,12.180 2.687 C 12.136 2.690,11.839 2.706,11.520 2.723 M4.492 9.250 C 4.526 10.258,4.684 10.965,5.030 11.660 C 5.533 12.671,6.281 13.354,7.446 13.866 C 8.407 14.290,9.555 14.610,12.140 15.179 C 14.356 15.666,15.172 15.912,15.834 16.290 C 16.211 16.507,16.560 16.873,16.685 17.187 C 16.766 17.389,16.779 17.490,16.779 17.940 C 16.780 18.377,16.766 18.502,16.690 18.721 C 16.377 19.626,15.543 20.189,14.134 20.447 C 13.477 20.567,11.830 20.577,11.220 20.465 C 9.434 20.137,8.565 19.310,8.245 17.635 L 8.174 17.260 6.161 17.250 L 4.148 17.239 4.171 17.750 C 4.242 19.324,4.804 20.612,5.897 21.702 C 7.239 23.040,9.083 23.772,11.580 23.958 C 14.285 24.159,16.701 23.644,18.280 22.530 C 18.797 22.166,19.557 21.399,19.875 20.922 C 20.536 19.931,20.820 19.037,20.868 17.800 C 20.909 16.744,20.733 15.816,20.343 15.027 C 20.076 14.488,19.836 14.162,19.393 13.738 C 18.985 13.347,18.612 13.098,17.982 12.797 C 17.049 12.351,16.631 12.229,13.461 11.480 C 10.414 10.760,9.710 10.549,9.184 10.198 C 8.863 9.983,8.679 9.775,8.539 9.469 C 8.431 9.231,8.346 8.769,8.384 8.620 L 8.409 8.520 6.438 8.520 L 4.468 8.520 4.492 9.250 M21.574 21.923 C 21.196 22.069,20.880 22.522,20.880 22.920 C 20.880 23.143,21.005 23.448,21.173 23.630 C 21.459 23.942,21.810 24.049,22.187 23.940 C 22.609 23.817,22.960 23.355,22.960 22.920 C 22.960 22.862,22.931 22.717,22.896 22.597 C 22.775 22.191,22.297 21.834,21.883 21.842 C 21.826 21.843,21.687 21.880,21.574 21.923 M22.267 22.124 C 22.867 22.414,22.922 23.274,22.367 23.660 C 22.216 23.764,22.158 23.780,21.924 23.780 C 21.696 23.780,21.628 23.763,21.487 23.670 C 21.241 23.507,21.108 23.282,21.087 22.995 C 21.059 22.602,21.233 22.289,21.580 22.106 C 21.752 22.016,22.061 22.024,22.267 22.124 M21.480 22.920 L 21.480 23.560 21.600 23.560 L 21.720 23.560 21.720 23.320 C 21.720 23.081,21.720 23.080,21.838 23.080 C 21.942 23.080,21.974 23.110,22.088 23.320 C 22.200 23.522,22.237 23.559,22.330 23.560 C 22.391 23.560,22.440 23.552,22.440 23.541 C 22.440 23.531,22.378 23.410,22.303 23.271 C 22.223 23.126,22.147 22.911,22.121 22.760 C 22.097 22.617,22.057 22.451,22.034 22.390 C 21.993 22.286,21.976 22.280,21.735 22.280 L 21.480 22.280 21.480 22.920 M21.918 22.470 C 21.917 22.487,21.873 22.581,21.820 22.680 L 21.724 22.860 21.722 22.650 C 21.720 22.452,21.726 22.440,21.820 22.440 C 21.875 22.440,21.919 22.453,21.918 22.470 " stroke="none" fill="black" fill-rule="evenodd"></path></svg>