<svg xmlns="http://www.w3.org/2000/svg" role="img" viewBox="0 0 24 24"><path d="M0.800 10.215 C 0.679 10.242,0.526 10.293,0.460 10.328 C 0.118 10.511,-0.049 10.928,0.045 11.366 C 0.107 11.654,0.404 11.944,0.938 12.240 C 1.451 12.524,1.600 12.668,1.600 12.881 C 1.600 13.098,1.494 13.200,1.267 13.200 C 1.016 13.200,0.920 13.086,0.920 12.787 L 0.920 12.560 0.460 12.560 L 0.000 12.560 -0.000 12.762 C -0.000 13.423,0.351 13.763,1.100 13.826 C 1.595 13.868,2.036 13.732,2.272 13.463 C 2.423 13.291,2.479 13.101,2.480 12.763 C 2.480 12.273,2.308 12.069,1.539 11.646 C 1.011 11.356,0.912 11.263,0.912 11.055 C 0.912 10.872,1.027 10.760,1.217 10.760 C 1.411 10.760,1.492 10.842,1.518 11.065 L 1.540 11.260 1.975 11.271 L 2.409 11.283 2.393 11.031 C 2.383 10.893,2.342 10.710,2.301 10.625 C 2.121 10.253,1.453 10.071,0.800 10.215 M11.959 10.214 C 11.491 10.315,11.246 10.575,11.211 11.005 C 11.200 11.146,11.212 11.338,11.238 11.435 C 11.298 11.654,11.566 11.927,11.911 12.120 C 12.588 12.499,12.760 12.656,12.760 12.893 C 12.760 12.946,12.723 13.037,12.677 13.095 C 12.611 13.179,12.560 13.200,12.425 13.200 C 12.168 13.200,12.104 13.132,12.080 12.833 L 12.060 12.580 11.610 12.569 L 11.160 12.557 11.160 12.789 C 11.161 13.141,11.225 13.318,11.424 13.509 C 11.652 13.729,11.933 13.813,12.420 13.808 C 13.232 13.800,13.600 13.483,13.600 12.795 C 13.600 12.625,13.581 12.435,13.558 12.373 C 13.482 12.172,13.190 11.920,12.747 11.672 C 12.146 11.336,12.080 11.275,12.080 11.059 C 12.080 10.857,12.178 10.760,12.381 10.760 C 12.571 10.760,12.652 10.843,12.678 11.065 L 12.700 11.260 13.120 11.260 L 13.540 11.260 13.533 11.015 C 13.521 10.548,13.287 10.295,12.783 10.203 C 12.488 10.150,12.244 10.153,11.959 10.214 M22.490 10.204 C 22.180 10.243,21.861 10.410,21.736 10.599 C 21.590 10.823,21.562 11.042,21.562 11.980 C 21.562 12.464,21.580 12.941,21.603 13.040 C 21.667 13.323,21.806 13.497,22.068 13.626 C 22.285 13.733,22.331 13.740,22.800 13.740 C 23.280 13.740,23.309 13.735,23.519 13.620 C 23.752 13.492,23.894 13.320,23.959 13.085 C 23.981 13.005,24.000 12.683,24.000 12.370 L 24.000 11.800 23.400 11.800 L 22.800 11.800 22.800 12.038 L 22.800 12.275 22.970 12.288 C 23.137 12.300,23.140 12.303,23.153 12.460 C 23.172 12.691,23.126 12.944,23.047 13.041 C 22.944 13.169,22.688 13.190,22.550 13.081 L 22.440 12.994 22.440 11.995 L 22.440 10.996 22.538 10.898 C 22.661 10.776,22.868 10.768,23.011 10.880 C 23.085 10.938,23.120 11.014,23.140 11.160 L 23.168 11.360 23.589 11.360 L 24.011 11.360 23.991 11.109 C 23.966 10.794,23.845 10.553,23.638 10.403 C 23.394 10.226,22.940 10.147,22.490 10.204 M3.661 10.330 C 3.637 10.401,3.040 13.617,3.040 13.673 C 3.040 13.706,3.175 13.720,3.495 13.720 L 3.950 13.720 4.038 13.150 C 4.086 12.837,4.195 12.130,4.279 11.580 C 4.363 11.030,4.435 10.589,4.439 10.600 C 4.442 10.611,4.549 11.313,4.675 12.160 L 4.904 13.700 5.352 13.711 C 5.760 13.722,5.800 13.716,5.800 13.651 C 5.800 13.611,5.665 12.850,5.500 11.960 C 5.336 11.069,5.201 10.327,5.200 10.310 C 5.200 10.293,4.857 10.280,4.439 10.280 C 3.865 10.280,3.673 10.292,3.661 10.330 M6.560 10.853 C 6.560 11.169,6.548 11.943,6.534 12.573 L 6.507 13.720 6.934 13.720 L 7.360 13.720 7.365 13.130 C 7.368 12.806,7.382 12.127,7.395 11.621 L 7.420 10.702 7.694 12.181 C 7.844 12.995,7.976 13.673,7.986 13.690 C 8.020 13.744,8.829 13.725,8.849 13.670 C 8.859 13.643,8.992 12.945,9.144 12.121 L 9.420 10.622 9.444 11.821 C 9.458 12.480,9.471 13.178,9.474 13.370 L 9.480 13.720 9.905 13.720 L 10.330 13.720 10.304 12.570 C 10.290 11.938,10.268 11.163,10.255 10.850 L 10.230 10.280 9.540 10.280 L 8.849 10.280 8.826 10.410 C 8.814 10.482,8.719 11.068,8.614 11.714 C 8.510 12.360,8.413 12.855,8.398 12.814 C 8.384 12.773,8.284 12.187,8.176 11.510 L 7.980 10.280 7.270 10.280 L 6.560 10.280 6.560 10.853 M14.440 11.695 L 14.440 13.111 14.550 13.321 C 14.750 13.702,15.229 13.869,15.916 13.795 C 16.403 13.743,16.714 13.505,16.796 13.121 C 16.823 12.996,16.840 12.405,16.840 11.598 L 16.840 10.280 16.400 10.280 L 15.960 10.280 15.960 11.597 C 15.960 12.322,15.944 12.958,15.923 13.011 C 15.879 13.127,15.679 13.218,15.544 13.184 C 15.316 13.127,15.320 13.153,15.320 11.657 L 15.320 10.280 14.880 10.280 L 14.440 10.280 14.440 11.695 M17.770 11.970 L 17.780 13.660 18.197 13.660 L 18.614 13.660 18.604 12.321 C 18.598 11.585,18.583 10.964,18.571 10.941 C 18.556 10.914,18.562 10.913,18.590 10.940 C 18.613 10.962,18.761 11.412,18.918 11.940 C 19.076 12.468,19.259 13.076,19.324 13.291 L 19.444 13.682 20.052 13.671 L 20.660 13.660 20.670 11.970 L 20.681 10.280 20.250 10.280 L 19.820 10.280 19.830 11.090 C 19.836 11.535,19.845 12.138,19.850 12.428 C 19.856 12.718,19.849 12.943,19.836 12.928 C 19.823 12.913,19.644 12.310,19.437 11.590 L 19.062 10.280 18.411 10.280 L 17.759 10.280 17.770 11.970 " stroke="none" fill="black" fill-rule="evenodd"></path></svg>