<svg role="img" viewBox="0 0 24 24" xmlns="http://www.w3.org/2000/svg"><path d="M19.284 0.136 C 18.502 0.968,13.958 2.065,9.000 2.617 C 7.562 2.777,5.568 2.920,4.770 2.920 L 4.600 2.920 4.600 5.826 L 4.600 8.733 5.450 8.707 C 8.908 8.601,14.163 7.787,17.019 6.913 C 18.113 6.579,18.975 6.180,19.270 5.872 L 19.401 5.736 19.390 2.885 L 19.380 0.034 19.284 0.136 M19.220 7.828 C 18.519 8.438,15.872 9.201,12.521 9.759 C 9.826 10.207,7.675 10.437,5.190 10.543 L 4.600 10.568 4.600 13.464 L 4.600 16.360 4.996 16.360 C 5.922 16.360,7.869 16.205,9.560 15.997 C 14.393 15.403,18.450 14.364,19.270 13.511 L 19.401 13.376 19.390 10.532 L 19.380 7.689 19.220 7.828 M19.220 15.468 C 18.551 16.050,16.159 16.759,12.980 17.317 C 10.528 17.748,7.642 18.081,5.860 18.140 C 5.486 18.153,5.050 18.173,4.890 18.185 L 4.600 18.207 4.600 21.103 L 4.600 24.000 4.950 23.999 C 5.721 23.998,7.506 23.869,8.860 23.717 C 13.934 23.147,18.406 22.041,19.280 21.140 L 19.401 21.016 19.390 18.172 L 19.380 15.329 19.220 15.468 " stroke="none" fill="black" fill-rule="evenodd"></path></svg>