<svg role="img" viewBox="0 0 24 24" xmlns="http://www.w3.org/2000/svg"><path d="M11.260 0.626 C 9.469 0.771,7.735 1.347,6.329 2.264 L 5.983 2.489 5.441 2.378 C 5.144 2.317,4.658 2.209,4.361 2.138 L 3.823 2.008 3.601 2.208 C 3.280 2.500,2.673 3.165,2.350 3.580 C 1.294 4.936,0.532 6.490,0.117 8.131 L -0.002 8.603 0.509 9.153 C 0.790 9.455,1.123 9.821,1.250 9.966 L 1.480 10.229 1.480 11.045 C 1.480 12.912,1.829 14.380,2.655 15.980 C 3.159 16.957,3.683 17.680,4.478 18.494 C 5.252 19.286,5.995 19.854,6.920 20.361 C 7.173 20.500,7.417 20.635,7.462 20.662 C 7.521 20.698,7.609 20.919,7.790 21.485 C 7.926 21.911,8.068 22.374,8.106 22.512 C 8.144 22.651,8.203 22.780,8.237 22.798 C 8.359 22.862,9.186 23.075,9.700 23.174 C 11.467 23.515,13.357 23.454,15.097 23.000 C 15.861 22.800,15.795 22.858,15.977 22.236 C 16.063 21.941,16.209 21.475,16.300 21.200 L 16.466 20.700 16.863 20.485 C 17.926 19.908,18.577 19.424,19.423 18.581 C 20.355 17.653,20.942 16.831,21.494 15.680 C 21.831 14.979,22.011 14.485,22.200 13.743 C 22.439 12.806,22.486 12.429,22.509 11.260 L 22.529 10.220 22.755 9.961 C 22.879 9.819,23.210 9.455,23.491 9.153 L 24.002 8.603 23.883 8.131 C 23.474 6.515,22.721 4.968,21.688 3.626 C 21.365 3.206,20.690 2.462,20.405 2.211 L 20.174 2.008 19.629 2.141 C 19.329 2.215,18.843 2.323,18.549 2.382 L 18.015 2.488 17.650 2.248 C 16.048 1.197,13.908 0.581,11.940 0.607 C 11.654 0.610,11.348 0.619,11.260 0.626 M13.400 1.341 C 13.994 1.430,14.616 1.583,15.220 1.787 C 15.783 1.978,17.070 2.588,17.014 2.638 C 16.968 2.679,16.212 2.783,15.248 2.879 C 13.074 3.097,10.926 3.097,8.752 2.879 C 7.788 2.783,7.032 2.679,6.986 2.638 C 6.932 2.590,8.204 1.983,8.739 1.800 C 9.517 1.535,10.302 1.361,11.080 1.280 C 11.559 1.231,12.900 1.266,13.400 1.341 M4.617 2.860 C 4.956 2.937,5.247 3.000,5.265 3.000 C 5.282 3.000,5.163 3.120,4.998 3.267 C 3.353 4.742,2.184 6.725,1.726 8.819 C 1.666 9.096,1.604 9.327,1.588 9.332 C 1.547 9.344,0.720 8.436,0.720 8.378 C 0.720 8.253,1.017 7.323,1.215 6.830 C 1.798 5.377,2.608 4.134,3.716 2.990 C 3.860 2.841,3.983 2.720,3.990 2.720 C 3.996 2.720,4.279 2.783,4.617 2.860 M20.382 3.090 C 21.676 4.458,22.655 6.160,23.162 7.922 C 23.227 8.147,23.280 8.352,23.280 8.379 C 23.280 8.445,22.448 9.345,22.410 9.321 C 22.393 9.310,22.340 9.121,22.290 8.901 C 21.956 7.401,21.338 6.040,20.452 4.850 C 20.087 4.360,19.479 3.691,19.061 3.320 C 18.875 3.155,18.743 3.013,18.767 3.005 C 18.836 2.981,19.935 2.727,19.986 2.723 C 20.012 2.722,20.190 2.886,20.382 3.090 M6.920 3.297 C 7.658 3.409,8.718 3.532,9.620 3.608 C 10.415 3.675,13.570 3.675,14.400 3.608 C 15.232 3.540,16.588 3.379,17.289 3.263 L 17.860 3.169 18.000 3.272 C 18.308 3.498,18.888 4.017,19.162 4.310 C 20.487 5.729,21.334 7.368,21.698 9.220 C 21.870 10.097,21.896 9.963,21.453 10.506 C 19.956 12.341,18.595 14.452,17.505 16.630 C 17.031 17.576,16.809 18.075,16.359 19.200 L 15.967 20.180 15.794 20.268 C 15.698 20.316,15.377 20.436,15.080 20.534 C 13.341 21.108,11.499 21.183,9.682 20.754 C 9.269 20.656,8.454 20.388,8.204 20.267 L 8.024 20.180 7.770 19.520 C 6.552 16.349,4.737 13.203,2.622 10.600 C 2.398 10.325,2.203 10.079,2.188 10.054 C 2.173 10.028,2.196 9.799,2.239 9.544 C 2.540 7.788,3.231 6.248,4.335 4.880 C 4.866 4.222,6.055 3.136,6.198 3.178 C 6.232 3.188,6.557 3.241,6.920 3.297 M11.920 4.083 C 11.789 4.138,11.646 4.273,11.576 4.408 C 11.496 4.563,11.505 4.875,11.595 5.023 L 11.671 5.146 11.519 5.106 C 11.203 5.022,10.806 5.282,10.744 5.613 C 10.658 6.072,11.092 6.488,11.533 6.370 C 11.624 6.346,11.704 6.331,11.710 6.336 C 11.732 6.358,11.476 6.709,11.321 6.870 C 11.081 7.119,10.896 7.200,10.569 7.200 C 10.214 7.200,9.936 7.069,9.735 6.806 L 9.593 6.620 9.767 6.590 C 10.096 6.534,10.288 6.314,10.309 5.971 C 10.326 5.690,10.216 5.469,10.001 5.354 C 9.822 5.259,9.535 5.259,9.380 5.353 L 9.260 5.427 9.260 5.143 C 9.260 4.903,9.245 4.839,9.160 4.726 C 9.005 4.518,8.565 4.303,8.446 4.376 C 8.427 4.388,8.723 5.167,9.106 6.106 C 9.488 7.045,9.791 7.842,9.780 7.877 C 9.768 7.911,9.713 7.991,9.657 8.054 L 9.557 8.168 9.308 8.074 C 9.102 7.996,8.985 7.980,8.620 7.980 C 8.213 7.980,8.163 7.989,7.950 8.097 C 7.637 8.255,7.324 8.594,7.126 8.989 C 6.950 9.338,6.747 9.970,6.700 10.315 L 6.671 10.530 6.932 10.344 C 7.328 10.062,7.845 9.834,8.143 9.810 C 8.535 9.778,8.629 9.812,8.932 10.096 C 9.247 10.391,9.537 10.556,9.960 10.681 C 10.354 10.797,10.560 10.904,10.560 10.992 C 10.560 11.031,10.483 11.138,10.390 11.230 L 10.220 11.396 10.040 11.170 C 9.526 10.523,8.907 10.330,7.948 10.516 C 7.434 10.616,6.712 10.628,6.274 10.544 C 5.715 10.436,5.222 10.206,4.770 9.842 C 4.633 9.731,4.520 9.652,4.520 9.666 C 4.520 9.681,4.645 9.947,4.797 10.258 C 5.220 11.118,5.616 11.503,6.243 11.664 C 6.639 11.766,7.013 11.725,7.917 11.481 C 8.658 11.281,8.711 11.272,9.096 11.287 C 9.427 11.300,9.541 11.322,9.730 11.409 C 9.857 11.468,9.960 11.531,9.960 11.549 C 9.960 11.601,9.563 11.830,9.344 11.905 C 9.076 11.996,8.720 11.960,8.188 11.787 L 7.760 11.648 7.760 11.914 C 7.761 12.245,7.879 12.518,8.111 12.728 C 8.362 12.953,8.531 13.024,9.003 13.098 L 9.147 13.121 8.987 13.288 C 8.756 13.532,8.608 13.783,8.513 14.094 C 8.400 14.467,8.426 15.006,8.580 15.450 L 8.687 15.759 8.989 15.438 C 9.421 14.979,9.453 14.972,9.315 15.361 C 8.879 16.592,9.254 17.737,10.431 18.770 C 10.601 18.918,10.753 19.040,10.769 19.040 C 10.786 19.040,10.800 18.817,10.800 18.545 C 10.800 17.889,10.908 17.264,11.099 16.820 C 11.163 16.671,11.170 16.666,11.202 16.748 C 11.274 16.933,11.360 17.689,11.360 18.132 C 11.360 18.784,11.289 19.117,11.011 19.756 C 10.990 19.804,11.044 19.809,11.343 19.787 C 12.034 19.736,12.571 19.511,12.980 19.101 C 13.462 18.619,13.681 18.050,13.688 17.260 C 13.691 17.018,13.680 16.739,13.665 16.640 L 13.637 16.460 13.778 16.616 C 14.050 16.917,14.177 17.522,14.085 18.078 C 14.061 18.219,14.050 18.343,14.060 18.353 C 14.094 18.387,14.516 18.149,14.787 17.942 C 15.309 17.544,15.751 16.891,15.881 16.324 C 16.002 15.797,15.911 15.096,15.655 14.591 C 15.603 14.488,15.560 14.392,15.560 14.379 C 15.560 14.366,15.637 14.410,15.730 14.477 C 15.970 14.650,16.149 14.935,16.278 15.346 L 16.388 15.700 16.549 15.451 C 16.911 14.893,17.063 14.271,17.027 13.500 C 17.002 12.955,16.910 12.577,16.704 12.167 C 16.547 11.855,16.243 11.439,16.088 11.323 C 15.992 11.252,15.989 11.242,16.060 11.242 C 16.198 11.240,16.534 11.424,16.688 11.585 C 16.770 11.670,16.892 11.839,16.961 11.960 L 17.086 12.180 17.065 11.700 C 17.014 10.547,16.605 9.750,15.788 9.214 C 15.629 9.111,15.495 9.022,15.488 9.018 C 15.481 9.013,15.559 8.891,15.659 8.747 C 15.760 8.603,15.894 8.371,15.957 8.232 C 16.062 8.000,16.240 7.476,16.240 7.399 C 16.240 7.381,16.121 7.354,15.975 7.338 C 15.676 7.306,15.180 7.386,14.835 7.522 C 14.722 7.567,14.622 7.595,14.613 7.586 C 14.604 7.577,14.886 6.855,15.241 5.981 C 15.595 5.107,15.876 4.383,15.865 4.371 C 15.806 4.313,15.429 4.460,15.264 4.605 C 15.059 4.785,14.982 4.973,15.010 5.225 C 15.021 5.321,15.025 5.400,15.020 5.400 C 15.014 5.400,14.958 5.373,14.895 5.340 C 14.748 5.264,14.469 5.263,14.323 5.339 C 13.768 5.625,13.906 6.507,14.519 6.589 C 14.607 6.601,14.680 6.627,14.680 6.648 C 14.680 6.737,14.252 7.105,14.095 7.151 C 13.706 7.266,13.349 7.194,13.044 6.937 C 12.928 6.840,12.560 6.360,12.560 6.307 C 12.560 6.294,12.627 6.312,12.709 6.346 C 12.904 6.428,13.126 6.395,13.306 6.258 C 13.646 5.998,13.646 5.481,13.304 5.220 C 13.141 5.096,12.859 5.045,12.726 5.117 C 12.621 5.173,12.621 5.174,12.720 4.980 C 12.764 4.894,12.800 4.768,12.799 4.702 C 12.798 4.520,12.666 4.264,12.520 4.160 C 12.373 4.055,12.076 4.017,11.920 4.083 M15.880 7.681 C 15.880 7.772,15.661 8.235,15.502 8.480 C 15.190 8.960,14.741 9.326,14.292 9.468 C 14.088 9.532,14.077 9.542,14.088 9.658 C 14.099 9.771,14.110 9.779,14.240 9.769 C 14.416 9.754,14.755 9.600,15.006 9.420 C 15.113 9.343,15.221 9.280,15.247 9.280 C 15.340 9.280,15.797 9.609,15.995 9.818 C 16.326 10.168,16.536 10.555,16.635 11.000 L 16.670 11.154 16.438 11.033 C 16.162 10.888,15.812 10.847,15.466 10.919 L 15.233 10.967 15.533 11.244 C 16.085 11.752,16.427 12.262,16.607 12.840 C 16.685 13.092,16.700 13.227,16.700 13.680 C 16.700 14.137,16.685 14.268,16.604 14.532 C 16.551 14.703,16.493 14.852,16.475 14.863 C 16.458 14.874,16.408 14.814,16.365 14.729 C 16.238 14.481,15.934 14.172,15.704 14.060 C 15.505 13.963,14.920 13.868,14.920 13.933 C 14.920 13.947,14.986 14.061,15.066 14.187 C 15.664 15.121,15.761 16.027,15.349 16.820 C 15.229 17.050,14.576 17.760,14.485 17.760 C 14.463 17.760,14.435 17.675,14.422 17.570 C 14.325 16.744,14.067 16.295,13.524 16.005 C 13.168 15.815,13.157 15.823,13.248 16.190 C 13.359 16.635,13.388 17.496,13.305 17.850 C 13.125 18.613,12.583 19.169,11.810 19.384 C 11.672 19.422,11.553 19.446,11.544 19.437 C 11.535 19.427,11.563 19.285,11.605 19.120 C 11.799 18.365,11.729 17.341,11.401 16.125 L 11.354 15.949 11.174 16.125 C 10.807 16.482,10.482 17.454,10.480 18.196 L 10.480 18.372 10.394 18.296 C 10.216 18.138,9.842 17.634,9.724 17.391 C 9.260 16.438,9.457 15.289,10.232 14.432 C 10.387 14.260,10.383 14.258,10.068 14.340 C 9.675 14.442,9.312 14.654,8.953 14.992 L 8.807 15.129 8.778 14.900 C 8.706 14.323,8.872 13.854,9.290 13.453 C 9.540 13.212,9.810 13.055,10.370 12.821 C 10.519 12.758,10.635 12.701,10.627 12.694 C 10.620 12.686,10.426 12.707,10.197 12.739 C 9.137 12.890,8.483 12.755,8.199 12.326 C 8.063 12.121,8.050 12.059,8.150 12.101 C 8.440 12.224,8.763 12.284,9.064 12.270 C 9.333 12.258,9.437 12.231,9.684 12.113 C 10.040 11.943,10.565 11.560,10.774 11.317 C 10.908 11.162,10.924 11.121,10.907 10.986 C 10.871 10.714,10.616 10.530,10.040 10.361 C 9.667 10.252,9.453 10.129,9.157 9.857 C 8.638 9.380,8.239 9.339,7.433 9.677 C 7.113 9.812,7.120 9.837,7.331 9.324 C 7.498 8.918,7.766 8.577,8.040 8.423 C 8.243 8.310,8.290 8.300,8.640 8.300 C 8.965 8.300,9.052 8.315,9.240 8.403 L 9.460 8.506 9.530 8.803 C 9.620 9.188,9.761 9.390,10.037 9.530 C 10.275 9.650,10.443 9.666,10.695 9.591 C 10.907 9.528,11.200 9.238,11.302 8.990 C 11.370 8.825,11.398 8.797,11.520 8.777 C 11.803 8.729,11.814 8.722,11.740 8.640 C 11.646 8.536,11.309 8.400,11.079 8.372 C 10.972 8.360,10.716 8.370,10.512 8.396 C 10.133 8.444,9.920 8.420,9.889 8.326 C 9.879 8.298,9.979 8.168,10.109 8.038 L 10.347 7.800 12.304 7.801 L 14.260 7.803 14.140 7.890 C 14.074 7.938,13.907 8.085,13.768 8.217 L 13.516 8.457 13.608 8.527 C 13.659 8.566,13.709 8.599,13.721 8.599 C 13.732 8.600,13.851 8.496,13.985 8.370 C 14.450 7.931,15.092 7.642,15.610 7.641 C 15.769 7.640,15.880 7.657,15.880 7.681 M14.951 8.216 C 14.719 8.312,14.432 8.485,14.226 8.655 C 14.114 8.747,14.113 8.751,14.177 8.875 C 14.213 8.944,14.269 9.000,14.302 9.000 C 14.504 9.000,15.026 8.596,15.206 8.300 C 15.337 8.086,15.298 8.073,14.951 8.216 M10.213 8.865 C 10.391 9.078,10.640 9.034,10.704 8.777 C 10.726 8.691,10.750 8.680,10.924 8.680 C 11.032 8.680,11.120 8.686,11.120 8.694 C 11.120 8.762,11.010 9.005,10.932 9.110 C 10.790 9.302,10.627 9.372,10.373 9.351 C 10.076 9.326,9.865 9.123,9.784 8.786 L 9.757 8.672 9.928 8.701 C 10.055 8.722,10.130 8.765,10.213 8.865 M14.240 10.259 C 14.143 10.515,14.147 10.560,14.276 10.741 C 14.346 10.838,14.461 11.039,14.531 11.188 C 14.654 11.447,14.660 11.482,14.660 11.940 C 14.660 12.303,14.641 12.483,14.581 12.680 L 14.502 12.940 14.453 12.673 C 14.398 12.372,14.258 12.069,14.081 11.868 C 13.963 11.733,13.493 11.453,13.453 11.493 C 13.442 11.505,13.462 11.646,13.499 11.807 C 13.649 12.462,13.564 13.054,13.263 13.448 C 13.144 13.604,12.880 13.840,12.825 13.840 C 12.814 13.840,12.844 13.755,12.892 13.650 C 12.962 13.497,12.979 13.385,12.980 13.080 C 12.980 12.643,12.931 12.508,12.661 12.210 L 12.493 12.025 12.468 12.342 C 12.432 12.799,12.345 13.015,12.094 13.275 C 11.977 13.396,11.872 13.485,11.860 13.473 C 11.848 13.462,11.866 13.387,11.899 13.307 C 11.968 13.145,11.980 12.777,11.922 12.625 L 11.884 12.525 11.727 12.611 C 11.570 12.697,11.570 12.697,11.573 12.938 C 11.578 13.248,11.504 13.387,11.165 13.710 L 10.902 13.960 11.153 13.960 C 11.715 13.960,12.252 13.737,12.499 13.402 C 12.578 13.294,12.600 13.281,12.600 13.342 C 12.600 13.467,12.374 13.909,12.180 14.164 C 12.081 14.295,12.000 14.409,12.000 14.419 C 12.000 14.445,12.209 14.406,12.559 14.314 C 12.955 14.210,13.198 14.072,13.442 13.814 C 13.710 13.531,13.868 13.183,13.933 12.737 L 13.985 12.380 14.057 12.580 C 14.109 12.723,14.135 12.944,14.150 13.352 L 14.170 13.924 14.269 13.832 C 14.407 13.704,14.690 13.300,14.812 13.057 C 14.978 12.726,15.054 12.380,15.055 11.940 C 15.058 11.318,14.884 10.855,14.464 10.367 L 14.280 10.154 14.240 10.259 M11.280 10.618 C 11.445 10.787,11.614 10.944,11.655 10.967 C 11.755 11.022,11.962 11.019,12.143 10.959 C 12.309 10.904,12.279 10.868,12.030 10.823 C 11.947 10.808,11.735 10.698,11.559 10.577 C 11.383 10.456,11.181 10.347,11.110 10.334 C 10.985 10.311,10.991 10.321,11.280 10.618 M5.816 10.719 C 6.369 10.909,7.327 10.928,8.094 10.764 C 8.538 10.670,8.747 10.660,8.979 10.725 C 9.131 10.767,9.520 10.994,9.520 11.041 C 9.520 11.053,9.393 11.045,9.237 11.024 C 8.867 10.972,8.503 11.027,7.760 11.244 C 7.241 11.396,7.134 11.414,6.740 11.417 C 6.342 11.420,6.278 11.410,6.071 11.313 C 5.945 11.254,5.767 11.146,5.676 11.073 C 5.521 10.948,5.200 10.546,5.200 10.475 C 5.200 10.458,5.290 10.489,5.400 10.544 C 5.510 10.599,5.698 10.678,5.816 10.719 M2.827 11.912 C 4.474 14.100,5.886 16.591,6.965 19.215 C 7.073 19.479,7.157 19.710,7.150 19.729 C 7.137 19.769,6.430 19.328,6.069 19.054 C 4.091 17.553,2.784 15.473,2.300 13.060 C 2.178 12.450,2.120 11.909,2.122 11.412 L 2.123 11.020 2.245 11.160 C 2.311 11.237,2.573 11.575,2.827 11.912 M21.868 11.650 C 21.756 14.537,20.269 17.310,17.880 19.090 C 17.465 19.400,16.864 19.771,16.849 19.728 C 16.843 19.708,16.954 19.411,17.097 19.068 C 18.247 16.307,19.743 13.731,21.509 11.470 C 21.694 11.233,21.856 11.040,21.869 11.040 C 21.882 11.040,21.881 11.315,21.868 11.650 M9.300 21.313 C 11.351 21.843,13.390 21.779,15.350 21.125 C 15.620 21.035,15.677 21.026,15.661 21.077 C 15.651 21.112,15.568 21.383,15.477 21.680 C 15.386 21.977,15.291 22.240,15.265 22.266 C 15.206 22.325,14.295 22.539,13.760 22.618 C 12.482 22.809,11.375 22.802,10.120 22.596 C 9.532 22.499,8.827 22.330,8.746 22.265 C 8.714 22.240,8.614 21.977,8.523 21.680 C 8.432 21.383,8.348 21.108,8.336 21.069 C 8.316 21.005,8.339 21.008,8.567 21.094 C 8.706 21.146,9.036 21.244,9.300 21.313 " stroke="none" fill="black" fill-rule="evenodd"></path></svg>