<svg role="img" viewBox="0 0 24 24" xmlns="http://www.w3.org/2000/svg"><path d="M4.011 4.038 C 2.598 4.202,1.425 4.869,0.740 5.900 C -0.139 7.221,-0.184 8.961,0.628 10.190 C 0.834 10.503,1.352 11.038,1.740 11.339 C 2.309 11.781,2.841 12.114,5.194 13.503 C 6.494 14.270,6.977 14.903,6.976 15.840 C 6.975 17.079,6.059 18.080,4.686 18.344 C 4.120 18.452,3.133 18.400,2.380 18.221 C 1.820 18.088,1.396 17.926,0.811 17.621 C 0.535 17.477,0.300 17.366,0.290 17.376 C 0.270 17.397,-0.006 19.168,0.010 19.182 C 0.065 19.229,1.025 19.577,1.320 19.656 C 2.565 19.991,4.262 20.087,5.274 19.881 C 6.336 19.665,7.165 19.240,7.845 18.563 C 8.602 17.810,8.978 16.938,9.028 15.820 C 9.054 15.233,8.993 14.824,8.812 14.371 C 8.563 13.748,8.019 13.118,7.220 12.526 C 6.823 12.232,5.500 11.420,4.340 10.759 C 3.591 10.331,3.234 10.077,2.858 9.701 C 2.300 9.144,2.125 8.695,2.172 7.947 C 2.242 6.832,2.974 5.952,4.080 5.652 C 4.286 5.596,4.482 5.582,5.020 5.587 C 6.334 5.598,7.380 5.858,8.370 6.419 C 8.669 6.588,8.681 6.591,8.698 6.507 C 8.741 6.295,8.805 4.789,8.773 4.757 C 8.705 4.689,7.857 4.389,7.420 4.279 C 7.178 4.218,6.755 4.139,6.480 4.103 C 5.900 4.028,4.432 3.990,4.011 4.038 M18.500 4.045 C 17.348 4.154,16.097 4.562,15.140 5.139 C 13.363 6.213,12.095 7.945,11.579 10.000 C 11.269 11.239,11.262 12.737,11.560 14.020 C 12.322 17.295,15.141 19.630,18.687 19.922 C 19.089 19.955,19.454 19.956,20.067 19.923 C 21.617 19.842,22.650 19.636,23.695 19.200 L 24.009 19.069 23.986 18.844 C 23.973 18.721,23.941 18.328,23.914 17.970 C 23.887 17.612,23.853 17.320,23.839 17.320 C 23.824 17.320,23.634 17.403,23.416 17.505 C 22.908 17.743,21.977 18.049,21.440 18.155 C 20.706 18.299,20.320 18.336,19.520 18.337 C 18.646 18.337,18.274 18.286,17.613 18.072 C 15.951 17.534,14.572 16.185,13.898 14.441 C 13.420 13.201,13.310 11.620,13.606 10.240 C 13.996 8.427,15.042 6.977,16.516 6.206 C 17.387 5.751,18.132 5.582,19.260 5.587 C 20.914 5.593,22.222 5.858,23.396 6.422 C 23.647 6.542,23.856 6.636,23.860 6.631 C 23.865 6.625,23.890 6.323,23.916 5.960 C 23.943 5.597,23.974 5.208,23.987 5.096 L 24.010 4.892 23.575 4.709 C 23.092 4.506,22.633 4.352,22.240 4.263 C 21.290 4.045,19.561 3.945,18.500 4.045 " stroke="none" fill="black" fill-rule="evenodd"></path></svg>