<svg role="img" viewBox="0 0 24 24" xmlns="http://www.w3.org/2000/svg"><path d="M9.500 0.038 L 6.780 0.060 6.437 0.168 C 4.937 0.639,3.959 1.403,2.785 3.020 C 2.152 3.892,1.788 4.863,1.598 6.186 C 1.499 6.877,1.497 7.896,1.595 8.014 C 1.645 8.074,1.884 8.080,4.285 8.080 C 5.734 8.080,6.920 8.075,6.920 8.070 C 6.920 8.065,6.884 7.965,6.840 7.850 C 6.742 7.591,6.734 7.143,6.822 6.847 C 6.867 6.695,6.947 6.571,7.121 6.386 C 7.511 5.968,7.248 5.996,11.240 5.956 C 15.479 5.914,16.631 5.876,17.202 5.758 C 19.437 5.296,21.431 3.768,22.178 1.945 C 22.391 1.425,22.454 1.118,22.457 0.582 L 22.460 0.104 22.320 0.067 C 22.157 0.023,13.584 0.004,9.500 0.038 M2.320 9.026 C 1.798 9.039,1.692 9.052,1.650 9.108 C 1.534 9.264,1.634 10.197,1.825 10.727 C 2.123 11.557,2.706 12.422,3.350 12.990 C 4.334 13.858,5.343 14.381,6.700 14.728 L 7.180 14.851 11.120 14.882 C 15.057 14.914,16.135 14.949,16.509 15.060 C 16.659 15.105,16.760 15.174,16.916 15.339 C 17.215 15.656,17.240 15.737,17.240 16.411 C 17.240 17.257,17.138 17.548,16.744 17.819 L 16.530 17.967 15.895 18.002 C 15.546 18.022,13.820 18.048,12.060 18.061 C 8.682 18.085,7.558 18.121,6.976 18.221 C 6.205 18.354,4.908 18.864,4.240 19.298 C 2.621 20.348,1.425 22.252,1.565 23.555 C 1.582 23.717,1.607 23.861,1.621 23.874 C 1.661 23.914,3.560 23.951,7.260 23.982 C 10.768 24.012,16.354 23.953,16.960 23.880 C 18.575 23.685,20.321 22.385,21.400 20.574 C 22.113 19.378,22.477 18.018,22.479 16.548 C 22.480 15.837,22.430 15.336,22.295 14.720 C 21.955 13.163,21.238 11.881,20.054 10.710 C 19.426 10.090,18.996 9.809,18.171 9.482 C 17.354 9.158,17.124 9.119,15.800 9.078 C 14.614 9.041,3.478 8.998,2.320 9.026 " stroke="none" fill="black" fill-rule="evenodd"></path></svg>