<svg role="img" viewBox="0 0 24 24" xmlns="http://www.w3.org/2000/svg"><path d="M11.445 1.463 C 11.089 1.559,10.692 1.794,10.375 2.098 C 10.086 2.375,10.052 2.431,8.519 5.134 C 7.660 6.649,6.953 7.907,6.949 7.929 C 6.944 7.952,7.286 8.180,7.709 8.436 C 9.100 9.275,9.787 9.795,10.753 10.738 C 11.728 11.690,12.466 12.625,13.156 13.780 C 14.207 15.542,14.918 17.392,15.238 19.200 C 15.314 19.627,15.440 20.609,15.440 20.770 C 15.440 20.835,15.361 20.840,14.320 20.840 C 13.704 20.840,13.200 20.826,13.200 20.809 C 13.200 20.676,13.063 19.699,12.997 19.360 C 12.774 18.220,12.360 16.997,11.858 15.994 C 11.539 15.358,11.000 14.399,10.731 13.988 C 9.941 12.784,8.739 11.587,7.460 10.730 C 7.078 10.474,5.874 9.751,5.860 9.769 C 5.811 9.838,2.912 14.789,2.907 14.815 C 2.903 14.833,3.134 14.992,3.420 15.167 C 4.102 15.584,4.605 15.970,5.076 16.438 C 5.890 17.247,6.538 18.278,6.899 19.338 C 7.016 19.680,7.199 20.443,7.200 20.590 L 7.200 20.680 4.706 20.680 L 2.212 20.680 2.076 20.589 C 2.001 20.538,1.935 20.461,1.928 20.417 C 1.922 20.372,2.219 19.801,2.620 19.088 C 3.007 18.401,3.314 17.823,3.302 17.803 C 3.240 17.702,2.739 17.369,2.420 17.215 C 2.077 17.051,1.700 16.923,1.668 16.962 C 1.635 17.001,0.323 19.353,0.225 19.549 C -0.080 20.156,-0.074 20.731,0.246 21.387 C 0.446 21.797,0.789 22.180,1.107 22.349 C 1.593 22.608,1.457 22.600,5.501 22.600 L 9.171 22.600 9.149 21.710 C 9.118 20.504,8.982 19.700,8.637 18.697 C 8.181 17.370,7.649 16.400,6.927 15.576 C 6.620 15.225,6.020 14.683,5.628 14.401 C 5.525 14.327,5.440 14.253,5.440 14.236 C 5.440 14.208,6.429 12.358,6.463 12.324 C 6.471 12.316,6.627 12.429,6.809 12.577 C 8.348 13.825,9.496 15.191,10.219 16.633 C 10.779 17.749,11.118 18.855,11.303 20.175 C 11.337 20.420,11.375 21.065,11.388 21.610 L 11.411 22.600 14.332 22.600 L 17.252 22.600 17.227 21.570 C 17.191 20.145,17.115 19.422,16.873 18.220 C 16.527 16.499,15.977 15.076,14.925 13.180 C 14.019 11.545,13.410 10.702,12.361 9.626 C 11.550 8.795,10.853 8.198,9.926 7.542 C 9.679 7.367,9.482 7.204,9.489 7.179 C 9.495 7.155,9.999 6.271,10.610 5.214 C 11.381 3.880,11.750 3.278,11.819 3.240 C 11.963 3.163,12.152 3.174,12.238 3.263 C 12.384 3.417,22.084 20.335,22.072 20.416 C 22.065 20.461,21.999 20.538,21.924 20.589 C 21.790 20.679,21.770 20.680,20.634 20.680 L 19.480 20.680 19.480 21.577 L 19.480 22.474 20.870 22.487 C 21.634 22.494,22.350 22.487,22.459 22.471 C 22.962 22.398,23.449 21.999,23.735 21.428 C 24.067 20.766,24.080 20.153,23.775 19.549 C 23.627 19.256,14.065 2.628,13.891 2.363 C 13.596 1.911,13.153 1.596,12.622 1.461 C 12.325 1.385,11.731 1.386,11.445 1.463 " stroke="none" fill="black" fill-rule="evenodd"></path></svg>