<svg role="img" xmlns="http://www.w3.org/2000/svg" viewBox="0 0 24 24"><path d="M0.280 0.410 C 0.280 0.896,0.367 1.695,0.484 2.280 C 0.814 3.928,1.555 5.521,2.642 6.920 C 3.015 7.399,3.785 8.194,4.280 8.609 C 5.197 9.379,6.236 10.011,7.411 10.514 L 7.601 10.596 7.591 11.962 L 7.580 13.328 7.100 13.537 C 4.512 14.658,2.336 16.796,1.221 19.312 C 0.626 20.656,0.280 22.226,0.280 23.584 L 0.280 24.000 2.314 24.000 L 4.348 24.000 4.373 23.470 C 4.451 21.821,5.042 20.369,6.154 19.096 C 6.476 18.728,6.976 18.277,7.380 17.990 L 7.600 17.834 7.600 20.917 L 7.600 24.000 9.180 24.000 L 10.760 24.000 10.760 20.306 L 10.760 16.611 11.161 16.566 C 11.673 16.507,12.327 16.507,12.839 16.566 L 13.240 16.611 13.240 20.306 L 13.240 24.000 14.820 24.000 L 16.400 24.000 16.400 20.940 C 16.400 19.257,16.414 17.880,16.431 17.880 C 16.501 17.880,17.164 18.438,17.504 18.783 C 18.758 20.054,19.468 21.681,19.548 23.470 L 19.572 24.000 21.646 24.000 L 23.720 24.000 23.720 23.584 C 23.720 22.374,23.436 20.974,22.941 19.740 C 21.893 17.129,19.820 14.939,17.220 13.697 C 16.934 13.561,16.632 13.425,16.549 13.396 L 16.399 13.344 16.409 11.971 L 16.420 10.598 16.867 10.404 C 17.767 10.013,18.766 9.408,19.560 8.775 C 20.030 8.400,20.922 7.502,21.310 7.012 C 22.672 5.294,23.462 3.342,23.679 1.166 C 23.701 0.938,23.720 0.582,23.720 0.376 L 23.720 0.000 21.686 -0.000 L 19.652 -0.000 19.625 0.510 C 19.513 2.619,18.495 4.497,16.734 5.847 L 16.420 6.088 16.410 3.044 L 16.400 0.000 14.820 0.000 L 13.240 0.000 13.240 3.657 L 13.240 7.314 12.970 7.347 C 12.822 7.365,12.385 7.380,12.000 7.380 C 11.615 7.380,11.178 7.365,11.030 7.347 L 10.760 7.314 10.760 3.657 L 10.760 0.000 9.180 0.000 L 7.600 0.000 7.600 3.020 C 7.600 4.681,7.587 6.040,7.570 6.040 C 7.554 6.039,7.423 5.949,7.281 5.838 C 5.712 4.620,4.755 2.972,4.498 1.045 C 4.467 0.811,4.441 0.481,4.441 0.310 L 4.440 0.000 2.360 0.000 L 0.280 0.000 0.280 0.410 M12.000 11.405 C 12.445 11.405,12.906 11.393,13.024 11.378 L 13.240 11.351 13.240 11.945 L 13.240 12.540 12.000 12.540 L 10.760 12.540 10.760 11.945 L 10.760 11.351 10.976 11.378 C 11.094 11.393,11.555 11.405,12.000 11.405 " stroke="none" fill="black" fill-rule="evenodd"></path></svg>