<svg role="img" viewBox="0 0 24 24" xmlns="http://www.w3.org/2000/svg"><path d="M2.801 0.021 C 2.800 0.044,2.869 0.154,2.954 0.267 C 3.038 0.379,3.169 0.622,3.244 0.806 L 3.380 1.140 3.400 0.988 L 3.420 0.837 3.654 1.162 C 3.783 1.340,3.997 1.602,4.129 1.743 C 4.261 1.884,4.357 2.000,4.343 2.000 C 4.238 2.000,3.548 1.546,3.282 1.303 C 3.184 1.213,3.016 1.053,2.909 0.947 C 2.522 0.564,2.680 0.899,3.101 1.354 C 3.633 1.929,4.182 2.219,5.718 2.740 C 6.554 3.023,6.750 3.103,6.715 3.146 C 6.681 3.187,6.697 3.209,6.786 3.242 C 6.960 3.309,7.280 3.339,7.280 3.289 C 7.280 3.265,7.248 3.236,7.210 3.225 C 7.171 3.213,7.230 3.213,7.340 3.224 C 7.450 3.235,7.587 3.278,7.643 3.319 C 7.765 3.405,7.871 3.425,7.975 3.380 C 8.016 3.362,8.193 3.370,8.368 3.396 C 8.734 3.452,8.808 3.475,8.779 3.522 C 8.750 3.569,9.024 3.639,9.240 3.641 C 9.339 3.641,9.672 3.667,9.980 3.698 C 10.525 3.754,11.309 3.796,13.400 3.881 C 16.633 4.012,18.340 4.225,19.218 4.607 C 19.928 4.915,20.158 5.159,20.106 5.544 C 20.087 5.682,20.095 5.728,20.141 5.746 C 20.223 5.777,20.321 5.688,20.390 5.520 C 20.422 5.443,20.527 5.302,20.623 5.207 C 20.838 4.994,20.880 4.854,20.879 4.340 C 20.879 3.878,20.829 3.620,20.603 2.900 C 20.384 2.202,20.275 1.995,19.964 1.679 C 19.603 1.312,19.292 1.122,18.691 0.902 C 17.735 0.551,17.599 0.533,15.420 0.471 C 13.215 0.409,13.085 0.413,12.780 0.559 C 12.619 0.636,12.343 0.709,11.940 0.782 C 11.610 0.841,11.259 0.915,11.160 0.945 C 11.061 0.975,10.620 1.027,10.180 1.061 C 9.740 1.095,9.282 1.140,9.163 1.161 C 9.043 1.183,8.638 1.202,8.263 1.205 C 7.496 1.210,7.553 1.254,8.400 1.310 L 8.900 1.343 8.120 1.349 C 7.220 1.355,6.565 1.292,5.771 1.124 C 5.464 1.059,5.098 0.993,4.957 0.979 C 4.562 0.938,4.261 0.851,3.847 0.657 C 3.639 0.560,3.445 0.480,3.417 0.480 C 3.389 0.480,3.359 0.520,3.352 0.570 C 3.340 0.650,3.326 0.641,3.219 0.485 C 3.065 0.260,2.802 -0.032,2.801 0.021 M9.251 1.388 C 9.201 1.398,9.111 1.398,9.051 1.389 C 8.990 1.380,9.030 1.372,9.140 1.371 C 9.250 1.371,9.300 1.379,9.251 1.388 M7.109 3.184 C 7.096 3.197,7.061 3.199,7.032 3.187 C 7.001 3.175,7.010 3.165,7.057 3.163 C 7.099 3.161,7.122 3.171,7.109 3.184 M2.911 3.261 C 2.399 3.448,1.920 4.039,1.629 4.839 C 1.503 5.188,1.485 6.229,1.595 6.840 C 1.733 7.608,1.771 7.700,2.074 7.998 C 2.554 8.470,3.293 8.839,4.083 9.001 C 4.671 9.121,6.327 9.164,6.670 9.068 C 6.797 9.033,7.152 8.974,7.460 8.938 C 7.768 8.901,8.078 8.846,8.149 8.814 C 8.262 8.764,8.528 8.720,9.110 8.654 C 9.349 8.627,9.322 8.561,9.070 8.555 C 8.849 8.549,8.877 8.540,9.248 8.500 C 9.411 8.482,9.470 8.460,9.456 8.423 C 9.429 8.355,9.639 8.321,10.092 8.320 C 10.317 8.320,10.436 8.305,10.420 8.280 C 10.406 8.258,10.320 8.238,10.228 8.235 L 10.060 8.231 10.220 8.199 C 10.308 8.182,10.880 8.154,11.490 8.138 C 12.292 8.116,12.600 8.095,12.600 8.062 C 12.600 8.036,12.654 7.963,12.720 7.900 L 12.839 7.786 12.884 7.913 C 12.926 8.036,12.935 8.040,13.154 8.039 C 13.278 8.038,13.425 8.011,13.480 7.980 C 13.662 7.876,13.720 7.901,13.720 8.084 C 13.720 8.210,13.733 8.243,13.777 8.227 C 13.809 8.215,13.897 8.193,13.974 8.178 C 14.136 8.148,14.133 8.071,13.965 7.980 C 13.864 7.925,13.868 7.923,14.090 7.922 C 14.217 7.921,14.320 7.902,14.320 7.880 C 14.320 7.858,14.284 7.840,14.241 7.840 C 14.153 7.840,13.842 7.727,13.782 7.674 C 13.761 7.655,13.845 7.640,13.976 7.640 C 14.174 7.640,14.211 7.652,14.228 7.720 C 14.253 7.815,14.303 7.823,14.349 7.741 C 14.378 7.689,14.461 7.689,15.041 7.741 C 15.403 7.773,15.739 7.799,15.787 7.800 C 15.835 7.800,15.899 7.825,15.930 7.856 C 15.963 7.889,16.009 7.898,16.043 7.880 C 16.134 7.830,16.811 7.906,16.859 7.971 C 16.883 8.005,17.014 8.039,17.186 8.056 L 17.472 8.084 17.645 7.822 C 17.739 7.678,17.828 7.560,17.842 7.560 C 17.856 7.560,17.888 7.605,17.913 7.660 C 17.938 7.716,17.992 7.760,18.035 7.760 C 18.081 7.760,18.109 7.786,18.106 7.826 C 18.102 7.874,18.188 7.923,18.420 8.007 C 18.845 8.159,18.935 8.199,18.909 8.225 C 18.897 8.237,18.688 8.182,18.444 8.103 C 17.982 7.954,17.629 7.911,17.716 8.015 C 17.740 8.045,17.873 8.092,18.010 8.121 C 18.148 8.149,18.346 8.215,18.450 8.267 C 18.555 8.319,18.812 8.424,19.021 8.500 C 19.478 8.665,19.846 8.865,20.092 9.081 C 20.295 9.260,20.703 9.790,20.666 9.827 C 20.653 9.840,20.413 9.828,20.133 9.799 C 19.757 9.761,19.211 9.754,18.055 9.772 L 16.486 9.797 16.386 9.629 C 16.331 9.536,16.216 9.391,16.129 9.307 L 15.971 9.155 15.762 9.437 L 15.552 9.720 15.311 9.720 L 15.070 9.720 15.093 9.835 L 15.116 9.951 14.768 9.978 C 13.954 10.042,12.402 10.233,11.780 10.345 C 11.604 10.377,11.235 10.413,10.960 10.426 C 10.588 10.444,10.414 10.470,10.280 10.529 C 10.052 10.629,9.720 10.701,9.217 10.758 C 8.998 10.783,8.619 10.831,8.374 10.866 C 7.971 10.922,7.900 10.922,7.654 10.867 C 7.503 10.833,7.191 10.786,6.960 10.762 C 6.729 10.738,6.466 10.711,6.375 10.701 C 6.213 10.683,6.203 10.690,5.904 11.001 C 5.666 11.249,5.573 11.320,5.487 11.320 C 5.426 11.320,4.783 11.418,4.058 11.537 C 2.416 11.807,2.364 11.814,2.123 11.780 C 1.818 11.739,1.782 11.695,1.793 11.388 C 1.800 11.193,1.786 11.112,1.738 11.064 C 1.620 10.946,1.424 10.989,1.187 11.186 C 1.121 11.240,1.020 11.280,0.947 11.281 C 0.877 11.281,0.746 11.315,0.656 11.356 L 0.493 11.430 0.466 11.741 C 0.452 11.912,0.440 12.227,0.440 12.440 C 0.440 12.653,0.421 12.882,0.398 12.947 C 0.360 13.059,0.381 13.102,0.728 13.620 C 1.262 14.414,1.683 14.752,2.346 14.920 C 2.942 15.070,3.166 15.029,3.685 14.678 C 4.023 14.450,5.215 13.881,5.260 13.927 C 5.268 13.935,5.315 14.319,5.364 14.780 C 5.435 15.439,5.455 15.870,5.457 16.780 C 5.461 18.149,5.464 18.133,5.022 18.980 C 4.406 20.162,3.675 21.290,3.039 22.040 C 2.937 22.161,2.748 22.404,2.619 22.580 C 2.491 22.756,2.200 23.081,1.973 23.303 C 1.746 23.525,1.560 23.726,1.560 23.749 C 1.560 23.772,1.676 23.840,1.817 23.900 L 2.074 24.009 2.300 23.887 C 2.522 23.767,2.529 23.766,2.664 23.830 C 2.795 23.892,2.826 23.891,3.216 23.810 C 3.913 23.665,4.030 23.571,5.790 21.730 C 6.284 21.213,6.579 20.941,6.830 20.768 C 7.280 20.459,7.369 20.361,7.516 20.015 C 7.720 19.537,7.737 19.398,7.625 19.129 C 7.556 18.964,7.522 18.784,7.502 18.480 C 7.487 18.249,7.449 17.946,7.417 17.806 C 7.360 17.556,7.150 17.090,6.995 16.873 C 6.860 16.684,6.685 16.261,6.573 15.851 C 6.477 15.503,6.465 15.388,6.463 14.800 C 6.461 14.284,6.473 14.117,6.520 14.034 C 6.553 13.975,6.724 13.824,6.900 13.697 L 7.220 13.466 7.820 13.392 C 8.552 13.301,9.260 13.161,9.899 12.979 C 10.337 12.855,10.886 12.760,11.169 12.760 L 11.280 12.760 11.280 13.750 C 11.280 14.516,11.257 14.957,11.181 15.700 C 11.126 16.228,11.064 17.173,11.042 17.801 C 11.020 18.428,10.983 18.998,10.958 19.068 C 10.897 19.244,10.747 19.335,10.565 19.305 C 10.410 19.280,8.884 18.654,8.224 18.345 C 8.006 18.243,7.819 18.168,7.809 18.177 C 7.799 18.187,7.901 18.330,8.036 18.495 C 8.171 18.660,8.264 18.805,8.244 18.817 C 8.204 18.842,8.235 19.168,8.280 19.200 C 8.296 19.211,8.394 19.328,8.499 19.460 C 8.814 19.855,9.165 20.198,9.425 20.364 C 9.648 20.507,9.969 20.808,10.063 20.962 C 10.083 20.996,10.217 21.113,10.360 21.221 C 10.503 21.329,10.791 21.583,11.000 21.784 C 11.555 22.320,11.625 22.360,11.998 22.360 C 12.366 22.360,12.619 22.253,12.873 21.989 C 13.284 21.562,13.562 21.225,13.584 21.127 C 13.597 21.068,13.616 20.987,13.627 20.947 C 13.638 20.906,13.752 20.758,13.880 20.617 C 14.066 20.411,14.137 20.291,14.240 20.010 C 14.433 19.481,14.482 19.149,14.507 18.200 C 14.526 17.502,14.517 17.257,14.462 16.900 C 14.323 16.010,13.925 14.163,13.625 13.020 C 13.573 12.822,13.519 12.595,13.505 12.516 L 13.479 12.372 14.149 12.343 C 14.902 12.310,15.174 12.310,15.449 12.344 L 15.639 12.367 15.797 12.874 C 16.074 13.760,16.243 14.354,16.302 14.651 C 16.356 14.922,16.374 15.401,16.454 18.820 C 16.478 19.810,16.527 19.962,17.153 20.980 C 17.288 21.200,17.477 21.470,17.574 21.580 C 17.775 21.811,18.258 22.168,18.685 22.402 C 18.847 22.492,19.031 22.613,19.094 22.672 C 19.226 22.797,19.619 23.303,19.772 23.546 C 19.912 23.770,20.146 23.849,20.661 23.845 C 21.110 23.843,21.179 23.813,21.484 23.493 C 21.742 23.223,21.840 23.055,21.840 22.884 C 21.840 22.817,21.863 22.744,21.890 22.722 C 21.918 22.699,21.980 22.648,22.029 22.610 C 22.118 22.540,22.119 22.539,22.056 22.240 C 21.932 21.653,21.823 21.384,21.557 21.014 C 21.417 20.819,20.869 20.083,20.338 19.378 C 19.314 18.017,19.082 17.663,18.932 17.231 C 18.880 17.083,18.766 16.525,18.679 15.991 C 18.396 14.263,18.326 13.971,17.965 13.010 C 17.852 12.709,17.847 12.680,17.914 12.680 C 17.954 12.680,18.327 12.777,18.743 12.896 C 19.413 13.088,19.585 13.156,20.241 13.489 C 20.649 13.696,21.092 13.940,21.226 14.030 C 21.459 14.189,21.478 14.194,21.704 14.173 C 21.839 14.160,22.015 14.110,22.115 14.055 C 22.317 13.945,22.464 13.936,22.666 14.020 C 22.884 14.111,22.908 14.093,22.768 13.948 C 22.610 13.785,22.608 13.697,22.756 13.492 C 22.878 13.323,22.994 13.223,23.196 13.112 C 23.344 13.030,23.373 12.963,23.503 12.383 C 23.558 12.139,23.612 11.903,23.625 11.857 C 23.640 11.798,23.584 11.691,23.427 11.482 C 23.270 11.273,23.200 11.141,23.181 11.015 C 23.156 10.848,23.142 10.832,22.920 10.720 C 22.661 10.589,22.560 10.476,22.560 10.316 C 22.560 10.227,22.528 10.196,22.360 10.124 C 22.251 10.077,22.107 10.027,22.040 10.014 C 21.924 9.991,21.920 9.982,21.920 9.773 C 21.920 9.313,21.728 8.725,21.457 8.356 C 21.287 8.125,20.765 7.766,20.311 7.569 C 19.900 7.391,18.742 7.101,18.120 7.019 C 17.845 6.983,17.296 6.882,16.900 6.793 L 16.180 6.632 14.900 6.615 C 14.173 6.605,13.404 6.573,13.120 6.541 C 12.845 6.510,12.332 6.463,11.980 6.438 C 11.628 6.413,11.313 6.377,11.280 6.358 C 11.232 6.330,11.238 6.322,11.307 6.321 C 11.437 6.319,11.520 6.278,11.520 6.216 C 11.520 6.171,11.429 6.160,11.077 6.160 C 10.834 6.160,10.601 6.178,10.561 6.200 C 10.462 6.253,10.240 6.207,10.266 6.140 C 10.277 6.111,10.267 6.077,10.245 6.063 C 10.223 6.049,9.560 5.975,8.772 5.898 C 7.232 5.747,7.146 5.735,7.178 5.684 C 7.189 5.665,7.096 5.639,6.969 5.626 C 6.719 5.601,6.269 5.524,5.800 5.428 C 5.635 5.394,5.260 5.327,4.966 5.280 C 4.303 5.174,3.995 5.081,3.560 4.855 C 3.132 4.633,2.944 4.469,2.975 4.345 C 3.046 4.062,3.432 3.759,3.815 3.683 C 3.928 3.661,4.268 3.631,4.571 3.616 C 5.356 3.578,5.350 3.486,4.557 3.405 C 4.328 3.382,3.998 3.326,3.824 3.281 C 3.462 3.188,3.128 3.181,2.911 3.261 M11.847 6.202 C 11.796 6.223,11.715 6.267,11.668 6.300 C 11.586 6.358,11.589 6.360,11.749 6.360 C 11.869 6.360,11.947 6.332,12.028 6.261 L 12.140 6.163 12.040 6.164 C 11.985 6.164,11.898 6.182,11.847 6.202 M18.140 7.139 L 18.380 7.193 18.180 7.198 L 17.980 7.204 18.100 7.256 C 18.208 7.303,18.190 7.306,17.908 7.288 C 17.616 7.270,17.594 7.275,17.573 7.353 C 17.539 7.484,17.270 7.525,17.033 7.435 C 16.931 7.396,16.724 7.337,16.573 7.305 C 16.214 7.228,16.320 7.226,16.879 7.300 C 17.363 7.364,17.505 7.355,17.153 7.284 C 17.036 7.260,16.823 7.215,16.680 7.184 L 16.420 7.128 16.673 7.124 C 16.812 7.122,16.964 7.141,17.011 7.166 C 17.126 7.227,17.629 7.209,17.758 7.139 C 17.879 7.073,17.844 7.073,18.140 7.139 M13.560 7.640 C 13.560 7.662,13.532 7.680,13.498 7.680 C 13.463 7.680,13.446 7.662,13.460 7.640 C 13.474 7.618,13.502 7.600,13.522 7.600 C 13.543 7.600,13.560 7.618,13.560 7.640 M18.640 7.808 C 18.640 7.860,18.549 7.827,18.529 7.767 C 18.519 7.738,18.538 7.729,18.577 7.744 C 18.611 7.758,18.640 7.786,18.640 7.808 M14.500 7.920 C 14.458 7.988,14.519 8.040,14.642 8.040 C 14.768 8.040,14.789 8.005,14.712 7.928 C 14.654 7.870,14.534 7.865,14.500 7.920 M20.900 9.760 C 20.914 9.782,20.898 9.800,20.865 9.800 C 20.832 9.800,20.794 9.782,20.780 9.760 C 20.766 9.738,20.782 9.720,20.815 9.720 C 20.848 9.720,20.886 9.738,20.900 9.760 " stroke="none" fill="black" fill-rule="evenodd"></path></svg>