<svg role="img" viewBox="0 0 24 24" xmlns="http://www.w3.org/2000/svg"><path d="M6.760 4.167 C 4.351 6.456,2.321 8.412,2.248 8.514 C 2.077 8.754,1.988 9.071,1.992 9.420 C 1.996 9.736,2.067 9.970,2.242 10.243 C 2.400 10.490,3.832 11.847,7.131 14.875 L 9.842 17.364 11.044 16.215 C 11.705 15.583,12.274 15.011,12.310 14.943 C 12.392 14.788,12.393 14.464,12.311 14.276 C 12.266 14.171,11.959 13.882,11.195 13.221 C 9.925 12.125,7.657 9.975,7.530 9.749 C 7.425 9.561,7.411 9.268,7.496 9.064 C 7.533 8.976,8.639 7.896,10.798 5.842 C 12.584 4.142,14.039 2.748,14.033 2.743 C 14.026 2.738,13.435 2.179,12.720 1.500 C 12.005 0.821,11.357 0.207,11.280 0.136 L 11.140 0.005 6.760 4.167 M12.923 7.812 C 12.253 8.455,11.683 9.034,11.655 9.100 C 11.579 9.279,11.589 9.542,11.680 9.720 C 11.736 9.831,12.088 10.159,12.870 10.832 C 14.198 11.975,16.340 14.007,16.470 14.246 C 16.576 14.443,16.585 14.657,16.495 14.880 C 16.444 15.009,15.771 15.669,13.205 18.109 C 11.431 19.796,9.980 21.191,9.980 21.210 C 9.980 21.229,10.628 21.864,11.419 22.622 L 12.858 24.000 13.059 23.805 C 13.170 23.697,15.123 21.843,17.400 19.684 C 19.677 17.525,21.617 15.657,21.710 15.534 C 21.917 15.263,22.013 14.955,22.008 14.580 C 22.004 14.265,21.933 14.030,21.759 13.759 C 21.621 13.543,20.205 12.189,18.040 10.199 C 17.193 9.421,15.981 8.307,15.346 7.722 C 14.711 7.138,14.180 6.656,14.166 6.652 C 14.152 6.648,13.592 7.170,12.923 7.812 " stroke="none" fill="black" fill-rule="evenodd"></path></svg>