<svg role="img" xmlns="http://www.w3.org/2000/svg" viewBox="0 0 24 24"><path d="M8.640 1.622 C 6.825 1.828,5.320 1.997,5.295 1.998 C 5.270 1.999,4.069 3.575,2.625 5.500 L -0.000 9.000 5.987 15.860 C 9.280 19.633,11.986 22.720,12.000 22.720 C 12.014 22.720,14.720 19.633,18.013 15.860 L 24.000 9.000 21.415 5.550 C 19.993 3.652,18.808 2.076,18.781 2.048 C 18.748 2.012,17.721 1.883,15.516 1.639 C 13.747 1.444,12.219 1.276,12.120 1.266 C 12.021 1.257,10.455 1.417,8.640 1.622 M11.223 2.150 C 10.904 2.519,9.593 4.035,8.309 5.520 L 5.975 8.220 8.988 8.230 C 10.644 8.236,13.356 8.236,15.012 8.230 L 18.025 8.220 15.691 5.520 C 14.407 4.035,13.096 2.519,12.777 2.150 C 12.459 1.781,12.206 1.480,12.217 1.480 C 12.227 1.480,13.699 2.919,15.487 4.678 L 18.740 7.875 18.760 5.048 L 18.780 2.220 19.176 5.240 C 19.393 6.901,19.585 8.275,19.601 8.294 C 19.618 8.312,20.592 8.477,21.766 8.660 L 23.900 8.992 21.697 8.996 L 19.494 9.000 15.817 15.695 C 13.795 19.377,12.135 22.386,12.130 22.381 C 12.124 22.377,13.567 19.369,15.337 15.696 L 18.555 9.020 15.277 9.010 C 13.475 9.004,10.525 9.004,8.723 9.010 L 5.445 9.020 8.424 15.260 C 10.062 18.692,11.502 21.706,11.623 21.958 C 11.744 22.210,11.830 22.404,11.815 22.388 C 11.799 22.372,10.136 19.358,8.120 15.690 L 4.454 9.020 2.277 9.006 L 0.100 8.993 2.234 8.660 C 3.408 8.477,4.382 8.312,4.399 8.294 C 4.415 8.275,4.606 6.901,4.824 5.240 L 5.220 2.220 5.240 5.048 L 5.260 7.876 8.513 4.678 C 10.302 2.919,11.774 1.480,11.784 1.480 C 11.794 1.480,11.541 1.781,11.223 2.150 " stroke="none" fill="black" fill-rule="evenodd"></path></svg>