<svg role="img" viewBox="0 0 24 24" xmlns="http://www.w3.org/2000/svg"><path d="M10.869 0.040 C 9.286 0.193,7.853 0.624,6.408 1.383 C 5.241 1.996,4.221 2.761,3.347 3.681 C 1.804 5.304,0.697 7.419,0.259 9.582 C -0.050 11.105,-0.050 12.855,0.259 14.377 C 0.871 17.399,2.674 20.130,5.220 21.889 C 6.413 22.713,8.003 23.389,9.560 23.733 C 10.416 23.923,10.625 23.940,12.040 23.939 C 13.246 23.938,13.432 23.928,13.900 23.847 C 15.873 23.505,17.619 22.771,19.164 21.635 C 19.960 21.049,21.090 19.919,21.678 19.120 C 22.526 17.968,23.290 16.358,23.642 14.977 C 23.923 13.877,23.977 13.393,23.979 12.000 C 23.980 10.921,23.969 10.715,23.889 10.215 C 23.600 8.420,22.978 6.799,22.034 5.380 C 20.121 2.505,17.196 0.640,13.780 0.114 C 13.192 0.024,11.485 -0.020,10.869 0.040 M13.552 1.016 C 14.860 1.214,15.858 1.541,17.127 2.187 C 18.202 2.735,18.704 3.103,19.674 4.056 C 20.791 5.153,21.245 5.757,21.855 6.956 C 22.394 8.016,22.651 8.725,22.856 9.726 C 23.514 12.935,22.701 16.353,20.678 18.880 C 18.938 21.055,16.397 22.510,13.580 22.945 C 12.897 23.050,11.102 23.052,10.440 22.948 C 8.750 22.682,7.232 22.091,5.800 21.141 C 4.886 20.535,3.464 19.113,2.859 18.200 C 1.923 16.788,1.333 15.270,1.051 13.551 C 0.963 13.018,0.952 11.085,1.034 10.540 C 1.387 8.186,2.320 6.197,3.858 4.520 C 5.714 2.498,8.160 1.268,10.940 0.961 C 11.417 0.908,13.067 0.943,13.552 1.016 M13.020 5.121 C 12.400 5.252,11.935 5.465,11.475 5.831 C 10.378 6.703,9.852 7.938,9.992 9.310 C 10.049 9.868,10.148 10.218,10.382 10.684 C 10.602 11.123,10.864 11.447,11.718 12.340 C 12.514 13.172,12.723 13.433,12.901 13.820 C 13.084 14.217,13.160 14.564,13.159 15.003 C 13.158 15.512,13.077 15.869,12.861 16.306 C 12.647 16.740,12.406 17.047,12.052 17.340 C 11.025 18.186,9.464 18.225,8.401 17.431 C 8.166 17.255,5.691 14.819,5.349 14.427 C 5.186 14.239,5.157 14.186,5.203 14.155 C 5.285 14.099,5.673 14.150,5.860 14.241 C 5.948 14.283,6.299 14.580,6.640 14.900 C 7.564 15.766,7.687 15.831,7.968 15.600 C 8.162 15.440,8.194 15.286,8.076 15.090 C 8.026 15.007,7.452 14.400,6.801 13.740 C 4.595 11.503,4.360 11.242,4.414 11.101 C 4.448 11.013,4.628 11.026,4.774 11.128 C 4.843 11.177,5.370 11.679,5.944 12.243 C 7.126 13.407,7.263 13.520,7.486 13.520 C 7.673 13.520,7.776 13.428,7.844 13.204 C 7.888 13.055,7.884 13.033,7.789 12.908 C 7.732 12.834,7.124 12.193,6.437 11.484 C 5.087 10.092,4.921 9.905,4.920 9.775 C 4.920 9.658,5.016 9.587,5.127 9.622 C 5.177 9.638,5.614 10.040,6.099 10.516 C 8.277 12.654,8.253 12.634,8.532 12.557 C 8.643 12.526,8.692 12.481,8.757 12.346 C 8.803 12.252,8.840 12.154,8.840 12.128 C 8.840 12.053,8.334 11.498,7.335 10.477 C 6.153 9.270,6.035 9.110,6.244 8.998 C 6.369 8.931,6.469 9.015,7.811 10.321 C 9.006 11.485,9.186 11.640,9.344 11.640 C 9.482 11.640,9.696 11.469,9.745 11.320 C 9.829 11.061,9.814 11.041,8.411 9.592 C 7.839 9.001,7.777 8.885,7.981 8.792 C 8.070 8.752,8.103 8.762,8.251 8.872 C 8.627 9.153,8.715 9.204,8.857 9.227 C 9.104 9.267,9.280 9.113,9.280 8.857 C 9.280 8.440,8.604 7.880,8.100 7.880 C 7.842 7.880,7.570 7.979,7.330 8.160 L 7.140 8.304 6.880 8.193 C 6.686 8.110,6.553 8.082,6.357 8.081 C 5.914 8.079,5.713 8.178,5.395 8.555 C 5.310 8.656,5.259 8.680,5.132 8.680 C 4.707 8.680,4.273 8.956,4.095 9.338 C 4.019 9.500,4.001 9.608,4.000 9.882 C 4.000 10.222,3.999 10.225,3.857 10.362 C 3.593 10.615,3.506 10.812,3.505 11.156 C 3.503 11.681,3.524 11.715,4.446 12.688 L 5.003 13.275 4.831 13.351 C 4.331 13.574,4.031 14.149,4.220 14.523 C 4.301 14.683,6.691 17.080,7.480 17.793 C 8.073 18.329,8.372 18.512,8.983 18.716 C 9.918 19.027,10.890 18.967,11.785 18.543 C 12.262 18.317,12.470 18.173,12.854 17.803 C 13.248 17.424,13.473 17.112,13.696 16.634 C 14.195 15.569,14.174 14.358,13.638 13.261 C 13.436 12.848,13.196 12.549,12.369 11.683 C 11.312 10.578,11.155 10.361,10.963 9.740 C 10.892 9.514,10.876 9.363,10.878 8.957 C 10.880 8.293,10.921 8.097,11.159 7.613 C 11.486 6.950,12.062 6.404,12.713 6.140 C 13.478 5.829,14.417 5.854,15.135 6.204 C 15.454 6.359,16.012 6.853,17.295 8.118 C 18.310 9.118,18.853 9.706,18.817 9.764 C 18.805 9.784,18.701 9.800,18.585 9.800 C 18.273 9.800,18.045 9.664,17.466 9.131 C 16.628 8.360,16.478 8.242,16.328 8.241 C 16.116 8.239,15.970 8.338,15.915 8.522 C 15.826 8.818,15.827 8.820,18.082 11.100 C 19.485 12.519,19.688 12.754,19.600 12.860 C 19.456 13.033,19.352 12.953,17.947 11.591 C 17.364 11.026,16.826 10.526,16.753 10.481 C 16.559 10.363,16.414 10.376,16.276 10.524 C 16.115 10.697,16.118 10.890,16.287 11.124 C 16.358 11.221,16.939 11.831,17.579 12.480 C 19.180 14.102,19.218 14.149,19.062 14.278 C 18.921 14.395,18.713 14.223,17.246 12.786 C 16.637 12.189,16.035 11.612,15.909 11.505 L 15.679 11.309 15.499 11.378 C 15.209 11.489,15.125 11.699,15.264 11.967 C 15.298 12.034,15.874 12.645,16.542 13.324 C 17.210 14.003,17.786 14.603,17.822 14.657 C 17.904 14.783,17.866 14.912,17.737 14.944 C 17.606 14.977,17.516 14.901,16.260 13.679 C 15.688 13.122,15.114 12.579,14.985 12.471 C 14.782 12.301,14.734 12.279,14.625 12.301 C 14.325 12.361,14.176 12.617,14.296 12.868 C 14.330 12.940,14.715 13.372,15.151 13.829 C 15.587 14.286,15.983 14.712,16.032 14.775 C 16.135 14.910,16.146 15.049,16.059 15.121 C 15.979 15.187,15.893 15.147,15.546 14.885 C 15.347 14.734,15.241 14.680,15.143 14.680 C 14.981 14.680,14.832 14.791,14.742 14.981 C 14.677 15.118,14.678 15.130,14.761 15.302 C 14.861 15.508,15.180 15.803,15.440 15.930 C 15.687 16.051,16.103 16.073,16.350 15.978 C 16.452 15.939,16.610 15.838,16.702 15.754 L 16.869 15.600 17.121 15.730 C 17.619 15.987,18.199 15.871,18.557 15.444 C 18.712 15.259,18.727 15.251,18.977 15.228 C 19.291 15.198,19.577 15.062,19.759 14.855 C 19.943 14.646,19.988 14.513,20.021 14.090 C 20.050 13.724,20.052 13.718,20.244 13.479 C 20.428 13.250,20.560 12.941,20.560 12.740 C 20.560 12.553,20.430 12.235,20.273 12.036 C 20.182 11.921,19.886 11.596,19.615 11.314 C 19.345 11.031,19.105 10.766,19.082 10.725 C 19.047 10.658,19.069 10.635,19.259 10.542 C 19.589 10.381,19.840 9.995,19.840 9.648 C 19.840 9.431,19.631 9.188,18.261 7.817 C 16.799 6.353,16.116 5.727,15.775 5.536 C 14.978 5.090,13.924 4.931,13.020 5.121 " stroke="none" fill="black" fill-rule="evenodd"></path></svg>