<svg role="img" viewBox="0 0 24 24" xmlns="http://www.w3.org/2000/svg"><path d="M9.367 4.700 C 8.766 4.809,8.389 5.106,8.240 5.590 C 8.162 5.843,8.160 5.966,8.160 11.083 L 8.160 16.318 8.262 16.344 C 8.318 16.358,8.629 16.361,8.952 16.351 C 9.806 16.324,10.167 16.176,10.366 15.771 L 10.460 15.580 10.471 10.136 L 10.481 4.692 10.211 4.666 C 9.849 4.632,9.714 4.637,9.367 4.700 M15.003 7.660 C 14.643 7.741,14.229 7.949,13.898 8.213 C 13.657 8.406,10.643 11.652,10.608 11.758 C 10.601 11.778,11.141 12.654,11.808 13.705 C 12.654 15.040,13.085 15.682,13.235 15.832 C 13.648 16.247,14.223 16.430,14.980 16.388 C 15.356 16.367,15.978 16.238,16.049 16.167 C 16.067 16.149,15.904 15.866,15.688 15.537 C 15.471 15.209,14.851 14.270,14.309 13.451 L 13.324 11.961 14.306 10.920 L 15.287 9.879 15.755 10.610 C 16.012 11.011,16.741 12.154,17.375 13.149 L 18.529 14.958 17.547 17.029 C 16.781 18.646,16.578 19.107,16.622 19.131 C 16.805 19.234,17.331 19.329,17.740 19.332 C 18.226 19.335,18.487 19.264,18.773 19.050 C 19.125 18.786,19.187 18.660,21.505 13.482 C 22.732 10.742,23.795 8.369,23.868 8.208 L 24.000 7.916 23.850 7.853 C 23.767 7.818,23.549 7.764,23.364 7.732 C 22.479 7.579,21.712 7.935,21.296 8.692 C 21.234 8.806,20.839 9.707,20.420 10.694 C 20.001 11.680,19.640 12.483,19.619 12.478 C 19.598 12.472,18.929 11.404,18.133 10.104 L 16.686 7.740 16.453 7.688 C 16.088 7.606,15.305 7.591,15.003 7.660 M2.897 7.680 C 1.898 7.785,1.132 8.125,0.618 8.692 C 0.065 9.303,-0.141 10.268,0.117 11.034 C 0.351 11.725,0.932 12.293,1.703 12.583 C 1.853 12.639,2.523 12.793,3.193 12.925 C 3.863 13.057,4.507 13.201,4.624 13.245 C 5.212 13.465,5.174 14.034,4.561 14.216 C 4.283 14.299,3.692 14.299,2.453 14.217 C 1.195 14.134,0.899 14.179,0.579 14.499 C 0.325 14.753,0.229 15.041,0.224 15.560 C 0.218 16.210,0.194 16.179,0.729 16.234 C 2.284 16.397,3.986 16.427,4.735 16.304 C 6.188 16.067,7.056 15.388,7.322 14.280 C 7.396 13.971,7.388 13.316,7.306 13.005 C 7.082 12.151,6.386 11.509,5.400 11.243 C 5.235 11.199,4.607 11.071,4.005 10.959 C 2.533 10.686,2.320 10.599,2.320 10.269 C 2.320 10.145,2.346 10.088,2.444 9.996 C 2.721 9.738,3.250 9.686,4.680 9.777 C 5.765 9.846,5.979 9.834,6.269 9.685 C 6.479 9.577,6.617 9.420,6.748 9.140 C 6.853 8.915,6.860 8.867,6.860 8.373 C 6.860 8.084,6.851 7.839,6.840 7.828 C 6.829 7.818,6.496 7.779,6.100 7.741 C 5.292 7.664,3.393 7.627,2.897 7.680 " stroke="none" fill="black" fill-rule="evenodd"></path></svg>