<svg role="img" viewBox="0 0 24 24" xmlns="http://www.w3.org/2000/svg"><path d="M5.960 0.044 C 5.044 0.146,3.955 0.530,3.171 1.026 C 2.526 1.435,1.815 2.101,1.321 2.760 C 0.991 3.202,0.537 4.085,0.362 4.630 C 0.123 5.372,0.060 5.811,0.062 6.740 C 0.065 7.680,0.121 8.049,0.382 8.833 C 0.559 9.364,0.838 9.966,0.892 9.932 C 0.919 9.916,0.922 9.934,0.901 9.983 C 0.731 10.389,0.674 12.637,0.812 13.520 C 1.141 15.625,1.915 17.430,3.159 19.000 C 3.552 19.495,4.439 20.389,4.920 20.775 C 5.764 21.451,6.968 22.147,7.978 22.542 C 8.880 22.894,9.909 23.138,10.939 23.242 C 11.776 23.327,13.414 23.251,14.000 23.099 C 14.064 23.082,14.082 23.086,14.050 23.109 C 14.015 23.134,14.131 23.209,14.430 23.352 C 16.704 24.443,19.461 24.124,21.436 22.542 C 21.830 22.227,22.363 21.668,22.680 21.240 C 23.009 20.797,23.468 19.901,23.638 19.370 C 23.872 18.645,23.939 18.186,23.939 17.300 C 23.939 16.408,23.872 15.956,23.637 15.238 C 23.469 14.727,23.116 13.982,23.074 14.049 C 23.049 14.088,23.041 14.085,23.041 14.038 C 23.040 14.004,23.056 13.959,23.076 13.938 C 23.095 13.917,23.139 13.657,23.174 13.360 C 23.408 11.334,23.165 9.509,22.418 7.674 C 21.406 5.186,19.461 3.069,17.081 1.863 C 15.648 1.137,14.471 0.774,13.108 0.638 C 12.199 0.547,9.980 0.663,9.927 0.805 C 9.919 0.824,9.887 0.840,9.854 0.840 C 9.822 0.840,9.805 0.825,9.816 0.806 C 9.838 0.771,9.410 0.558,9.005 0.401 C 8.174 0.078,6.945 -0.066,5.960 0.044 M12.768 4.580 C 13.898 4.729,15.011 5.122,15.858 5.672 C 16.287 5.950,16.834 6.519,17.008 6.867 C 17.416 7.683,17.232 8.431,16.540 8.773 C 16.269 8.907,15.912 8.975,15.642 8.944 C 15.250 8.899,15.048 8.765,14.448 8.153 C 14.147 7.846,13.796 7.525,13.670 7.440 C 13.123 7.074,12.342 6.894,11.464 6.932 C 10.419 6.976,9.778 7.290,9.476 7.903 C 9.172 8.519,9.333 9.114,9.898 9.471 C 10.316 9.735,10.767 9.865,13.000 10.361 C 13.803 10.539,14.643 10.746,14.866 10.820 C 16.347 11.313,17.268 12.201,17.604 13.460 C 17.725 13.912,17.754 14.846,17.663 15.333 C 17.331 17.097,16.016 18.266,13.880 18.697 C 12.243 19.027,10.255 18.880,8.838 18.325 C 7.442 17.778,6.512 16.846,6.293 15.777 C 6.241 15.523,6.236 15.411,6.270 15.212 C 6.350 14.744,6.553 14.462,6.960 14.253 C 7.158 14.151,7.220 14.140,7.580 14.140 C 7.937 14.140,8.002 14.152,8.184 14.248 C 8.485 14.406,8.613 14.528,9.020 15.039 C 9.889 16.133,10.416 16.443,11.613 16.568 C 12.980 16.709,14.182 16.178,14.523 15.282 C 14.619 15.028,14.625 14.569,14.536 14.306 C 14.499 14.197,14.387 14.024,14.271 13.898 C 13.938 13.533,13.765 13.472,11.420 12.884 C 10.276 12.597,9.187 12.311,9.000 12.247 C 7.520 11.743,6.657 10.884,6.374 9.634 C 6.270 9.175,6.280 8.202,6.393 7.745 C 6.728 6.390,7.706 5.429,9.280 4.904 C 10.318 4.559,11.661 4.434,12.768 4.580 " stroke="none" fill="black" fill-rule="evenodd"></path></svg>