<svg role="img" xmlns="http://www.w3.org/2000/svg" viewBox="0 0 24 24"><path d="M5.960 0.045 C 4.863 0.171,3.730 0.602,2.840 1.230 C 2.353 1.574,1.574 2.353,1.230 2.840 C 0.272 4.196,-0.156 5.927,0.060 7.574 C 0.164 8.365,0.417 9.187,0.743 9.790 L 0.878 10.039 0.813 10.450 C 0.729 10.978,0.717 12.712,0.792 13.320 C 1.115 15.917,2.254 18.227,4.106 20.045 C 4.676 20.605,5.132 20.978,5.732 21.376 C 7.197 22.348,8.759 22.939,10.520 23.187 C 11.201 23.283,12.951 23.283,13.552 23.187 L 13.964 23.121 14.312 23.296 C 15.888 24.087,17.809 24.213,19.478 23.633 C 19.983 23.458,20.728 23.075,21.160 22.769 C 21.647 22.424,22.424 21.647,22.769 21.160 C 23.727 19.808,24.156 18.073,23.940 16.426 C 23.836 15.635,23.583 14.813,23.257 14.210 L 23.122 13.961 23.181 13.570 C 23.325 12.633,23.297 11.151,23.118 10.090 C 22.593 6.994,20.788 4.267,18.100 2.509 C 16.734 1.615,15.037 1.006,13.320 0.792 C 12.714 0.717,10.978 0.729,10.452 0.813 L 10.044 0.877 9.592 0.661 C 8.454 0.118,7.192 -0.097,5.960 0.045 M7.361 1.801 C 8.040 1.884,8.792 2.143,9.399 2.501 L 9.773 2.723 10.077 2.661 C 11.813 2.310,13.412 2.395,15.025 2.925 C 16.410 3.381,17.618 4.114,18.673 5.139 C 19.531 5.972,20.072 6.710,20.598 7.766 C 21.533 9.644,21.823 11.759,21.419 13.766 L 21.317 14.273 21.485 14.546 C 22.273 15.828,22.477 17.242,22.080 18.680 C 21.964 19.099,21.573 19.879,21.286 20.264 C 20.218 21.694,18.443 22.454,16.679 22.239 C 15.996 22.155,15.228 21.890,14.640 21.536 L 14.275 21.316 13.868 21.396 C 12.169 21.732,10.578 21.635,8.968 21.100 C 7.622 20.652,6.420 19.919,5.374 18.908 C 4.518 18.080,3.970 17.333,3.442 16.274 C 2.505 14.394,2.217 12.284,2.621 10.274 L 2.723 9.767 2.555 9.494 C 2.290 9.062,2.052 8.529,1.943 8.125 C 1.481 6.398,1.925 4.612,3.133 3.333 C 4.233 2.171,5.784 1.609,7.361 1.801 M10.905 5.124 C 8.923 5.333,7.482 6.174,6.862 7.484 C 6.611 8.012,6.548 8.331,6.545 9.080 C 6.542 10.007,6.666 10.488,7.064 11.086 C 7.426 11.631,8.096 12.124,8.904 12.440 C 9.129 12.528,9.842 12.736,10.487 12.903 C 11.132 13.069,12.074 13.313,12.580 13.444 C 13.086 13.575,13.610 13.733,13.745 13.796 C 14.069 13.948,14.293 14.157,14.429 14.434 C 14.523 14.625,14.540 14.710,14.539 14.982 C 14.539 15.266,14.523 15.336,14.404 15.577 C 14.219 15.954,13.886 16.274,13.467 16.479 C 12.958 16.729,12.715 16.779,12.020 16.777 C 10.700 16.774,10.021 16.415,9.153 15.260 C 8.615 14.545,8.363 14.381,7.800 14.380 C 7.517 14.380,7.423 14.397,7.238 14.484 C 6.945 14.622,6.761 14.788,6.618 15.047 C 6.510 15.242,6.501 15.292,6.503 15.640 C 6.507 16.260,6.735 16.751,7.295 17.347 C 7.645 17.719,8.136 18.069,8.649 18.313 C 10.542 19.211,13.482 19.231,15.300 18.358 C 15.772 18.131,16.101 17.901,16.465 17.541 C 16.987 17.026,17.285 16.507,17.465 15.804 C 17.762 14.638,17.531 13.373,16.861 12.500 C 16.500 12.029,16.085 11.711,15.427 11.400 C 14.823 11.115,14.553 11.037,12.777 10.639 C 11.885 10.440,10.996 10.224,10.801 10.160 C 9.912 9.870,9.540 9.541,9.491 9.004 C 9.441 8.452,9.767 7.898,10.293 7.642 C 10.723 7.432,10.991 7.382,11.680 7.381 C 12.436 7.380,12.778 7.449,13.320 7.708 C 13.674 7.878,13.741 7.931,14.310 8.495 C 15.068 9.245,15.163 9.300,15.680 9.299 C 16.013 9.298,16.091 9.283,16.312 9.182 C 17.442 8.665,17.129 7.151,15.696 6.203 C 14.418 5.358,12.590 4.946,10.905 5.124 " stroke="none" fill="black" fill-rule="evenodd"></path></svg>