<svg role="img" viewBox="0 0 24 24" xmlns="http://www.w3.org/2000/svg"><path d="M2.870 0.085 C 2.169 0.176,1.597 0.599,1.302 1.246 C 1.052 1.793,1.065 1.544,1.050 6.071 L 1.036 10.203 0.911 10.113 C 0.828 10.054,0.709 10.018,0.559 10.008 C 0.351 9.993,0.321 10.001,0.188 10.119 C -0.074 10.349,-0.054 10.610,0.279 11.300 C 0.864 12.514,1.941 13.731,3.210 14.613 C 3.538 14.841,4.222 15.254,4.333 15.291 C 4.358 15.299,4.326 15.489,4.248 15.782 C 3.994 16.746,3.851 17.973,3.894 18.820 C 3.951 19.912,4.244 20.818,4.823 21.687 C 5.490 22.689,6.408 23.306,7.620 23.566 C 7.983 23.644,8.961 23.634,9.280 23.549 C 10.009 23.354,10.591 22.890,10.877 22.274 C 11.159 21.666,11.160 21.653,11.160 18.977 L 11.160 16.591 11.250 16.617 C 12.047 16.852,12.063 16.854,12.960 16.856 C 13.755 16.858,13.854 16.850,14.265 16.753 C 14.804 16.624,15.229 16.452,15.587 16.217 C 15.881 16.024,16.014 15.997,16.080 16.120 C 16.137 16.227,16.065 16.360,15.750 16.725 C 15.110 17.468,14.051 18.142,13.127 18.395 L 12.860 18.468 12.850 19.914 C 12.838 21.553,12.857 21.723,13.107 22.235 C 13.307 22.643,13.820 23.163,14.206 23.352 C 14.787 23.635,15.420 23.705,16.260 23.580 C 17.194 23.441,17.931 23.068,18.620 22.384 C 19.294 21.716,19.819 20.701,20.021 19.673 C 20.058 19.490,20.097 19.052,20.108 18.700 C 20.145 17.601,20.009 16.588,19.661 15.380 C 19.642 15.313,19.687 15.274,19.929 15.145 C 21.328 14.397,22.711 13.094,23.467 11.810 C 23.939 11.010,24.083 10.520,23.930 10.243 C 23.768 9.952,23.428 9.893,23.110 10.102 L 22.960 10.201 22.960 6.127 C 22.960 2.181,22.957 2.043,22.880 1.736 C 22.675 0.929,22.225 0.406,21.520 0.153 L 21.260 0.060 12.200 0.055 C 7.189 0.052,3.019 0.065,2.870 0.085 M21.047 1.526 C 21.307 1.648,21.445 1.825,21.528 2.140 C 21.569 2.299,21.580 3.279,21.580 6.940 L 21.580 11.540 21.240 11.769 C 20.289 12.408,19.195 12.840,17.840 13.110 C 17.312 13.216,17.266 13.218,15.720 13.223 C 14.171 13.227,14.135 13.229,13.901 13.320 C 13.578 13.445,13.284 13.740,13.161 14.061 C 13.095 14.237,13.069 14.393,13.065 14.649 C 13.060 14.979,13.055 14.997,12.980 14.974 C 12.662 14.877,11.947 14.399,11.460 13.957 C 11.070 13.604,10.802 13.417,10.520 13.299 C 10.355 13.230,10.211 13.224,8.740 13.222 C 7.384 13.220,7.070 13.208,6.680 13.145 C 6.084 13.050,5.271 12.842,4.774 12.659 C 4.225 12.457,3.337 12.013,2.849 11.698 L 2.438 11.432 2.449 6.806 L 2.460 2.180 2.552 1.981 C 2.602 1.872,2.674 1.749,2.712 1.707 C 2.806 1.603,3.054 1.481,3.254 1.441 C 3.345 1.423,7.335 1.411,12.120 1.414 L 20.820 1.420 21.047 1.526 M7.535 6.457 C 6.950 6.591,6.473 6.853,6.038 7.280 C 5.443 7.865,5.160 8.554,5.160 9.421 C 5.160 11.022,6.481 12.355,8.080 12.367 C 9.386 12.377,10.519 11.514,10.925 10.200 C 11.047 9.809,11.057 9.042,10.946 8.640 C 10.660 7.602,9.839 6.777,8.820 6.501 C 8.482 6.410,7.838 6.388,7.535 6.457 M15.222 6.466 C 14.110 6.704,13.219 7.576,12.941 8.697 C 12.845 9.084,12.852 9.728,12.957 10.131 C 13.116 10.747,13.530 11.381,14.008 11.739 C 15.016 12.498,16.241 12.580,17.285 11.960 C 18.926 10.985,19.239 8.749,17.930 7.357 C 17.206 6.587,16.201 6.256,15.222 6.466 " stroke="none" fill="black" fill-rule="evenodd"></path></svg>