<svg role="img" xmlns="http://www.w3.org/2000/svg" viewBox="0 0 24 24"><path d="M4.952 6.372 C 1.644 9.667,0.035 11.295,0.018 11.367 C 0.004 11.426,0.003 11.507,0.016 11.547 C 0.029 11.587,2.132 13.713,4.690 16.270 C 9.090 20.669,9.348 20.920,9.480 20.920 C 9.653 20.920,9.658 20.915,10.514 20.035 C 11.125 19.407,11.200 19.314,11.200 19.195 C 11.200 19.071,10.933 18.795,7.522 15.381 C 5.014 12.870,3.836 11.665,3.818 11.590 C 3.747 11.299,3.577 11.483,8.422 6.640 C 10.943 4.121,13.032 2.009,13.065 1.948 C 13.137 1.813,13.080 1.584,12.959 1.520 C 12.914 1.495,12.301 1.481,11.373 1.482 L 9.860 1.484 4.952 6.372 M14.420 3.079 C 14.376 3.097,13.993 3.462,13.570 3.889 C 12.871 4.594,12.800 4.677,12.800 4.802 C 12.800 4.930,13.031 5.170,16.456 8.599 C 18.466 10.613,20.131 12.299,20.156 12.347 C 20.216 12.467,20.211 12.623,20.143 12.752 C 20.111 12.811,18.031 14.912,15.519 17.420 C 13.008 19.928,10.937 22.023,10.916 22.076 C 10.867 22.197,10.938 22.425,11.041 22.480 C 11.086 22.505,11.703 22.520,12.627 22.520 L 14.139 22.520 19.051 17.610 C 21.752 14.909,23.973 12.661,23.985 12.613 C 23.997 12.565,23.994 12.484,23.979 12.433 C 23.963 12.382,21.887 10.272,19.365 7.745 C 15.387 3.759,14.622 3.018,14.511 3.043 C 14.505 3.044,14.464 3.060,14.420 3.079 M11.331 6.261 C 11.266 6.306,11.248 6.382,11.226 6.680 C 11.196 7.102,11.063 7.539,10.856 7.892 C 10.705 8.150,10.533 8.382,10.006 9.040 C 9.190 10.058,8.824 10.797,8.655 11.775 C 8.564 12.301,8.596 13.338,8.718 13.780 C 9.188 15.489,10.679 16.635,12.318 16.548 C 12.761 16.525,13.060 16.460,13.449 16.303 C 14.583 15.845,15.472 14.685,15.681 13.392 C 15.753 12.942,15.713 12.028,15.602 11.620 C 15.479 11.168,15.342 10.798,15.140 10.370 C 14.988 10.048,14.952 10.000,14.865 10.000 C 14.810 10.000,14.755 10.016,14.743 10.035 C 14.732 10.054,14.749 10.202,14.782 10.365 C 14.815 10.527,14.852 10.939,14.865 11.280 C 14.900 12.177,14.768 12.868,14.469 13.358 C 14.230 13.749,13.980 13.785,13.832 13.451 C 13.762 13.293,13.744 13.137,13.715 12.423 C 13.662 11.127,13.558 10.333,13.320 9.400 C 13.056 8.366,12.501 7.267,11.917 6.620 C 11.579 6.246,11.458 6.172,11.331 6.261 " stroke="none" fill="black" fill-rule="evenodd"></path></svg>