<svg role="img" viewBox="0 0 24 24" xmlns="http://www.w3.org/2000/svg"><path d="M3.740 4.601 C 2.101 4.946,0.772 6.127,0.241 7.711 C -0.569 10.130,0.762 12.809,3.176 13.620 C 3.889 13.859,3.756 13.851,7.160 13.876 C 10.299 13.900,10.300 13.900,10.465 13.988 C 10.797 14.166,10.987 14.523,10.949 14.896 C 10.913 15.245,10.730 15.506,10.413 15.664 C 10.266 15.737,10.078 15.741,5.840 15.760 C 1.724 15.779,1.408 15.785,1.242 15.851 C 0.458 16.164,-0.049 16.942,0.011 17.740 C 0.081 18.665,0.762 19.376,1.680 19.481 C 2.134 19.532,9.542 19.532,10.224 19.480 C 10.512 19.458,10.881 19.406,11.045 19.364 C 12.745 18.929,14.023 17.659,14.469 15.962 C 14.593 15.491,14.636 14.624,14.561 14.112 C 14.313 12.411,13.016 10.872,11.400 10.362 C 10.700 10.141,10.813 10.148,7.440 10.123 C 3.990 10.098,4.205 10.114,3.945 9.854 C 3.757 9.666,3.666 9.448,3.666 9.180 C 3.666 8.811,3.849 8.522,4.200 8.335 C 4.333 8.264,4.524 8.259,7.840 8.239 C 10.207 8.225,11.379 8.204,11.460 8.175 C 12.167 7.919,12.647 7.360,12.763 6.654 C 12.909 5.769,12.345 4.866,11.476 4.596 C 11.245 4.524,11.059 4.520,7.666 4.523 C 4.328 4.525,4.077 4.530,3.740 4.601 M14.055 4.709 C 14.240 4.969,14.412 5.328,14.502 5.640 C 14.616 6.037,14.608 6.766,14.485 7.159 C 14.374 7.515,14.240 7.792,14.052 8.049 L 13.915 8.238 16.767 8.249 L 19.620 8.260 19.786 8.349 C 20.008 8.467,20.222 8.726,20.276 8.940 C 20.337 9.185,20.337 14.815,20.276 15.060 C 20.222 15.274,20.008 15.533,19.786 15.651 C 19.624 15.738,19.585 15.740,17.994 15.752 L 16.367 15.763 16.299 16.072 C 16.024 17.311,15.269 18.500,14.262 19.284 L 13.984 19.500 17.002 19.512 C 20.318 19.525,20.834 19.504,21.365 19.336 C 22.621 18.940,23.530 17.983,23.887 16.680 L 23.980 16.340 23.980 12.000 L 23.980 7.660 23.887 7.320 C 23.527 6.005,22.604 5.046,21.299 4.631 C 21.021 4.542,21.009 4.542,17.469 4.530 L 13.918 4.518 14.055 4.709 " stroke="none" fill="black" fill-rule="evenodd"></path></svg>