<svg role="img" viewBox="0 0 24 24" xmlns="http://www.w3.org/2000/svg"><path d="M11.180 0.027 C 9.528 0.164,8.091 0.556,6.700 1.249 C 3.037 3.076,0.575 6.565,0.073 10.640 C 0.005 11.187,0.006 12.817,0.073 13.360 C 0.531 17.040,2.573 20.246,5.699 22.195 C 8.777 24.114,12.607 24.524,16.021 23.301 C 16.634 23.082,17.832 22.501,18.340 22.178 C 19.306 21.563,20.368 20.650,21.074 19.825 C 23.886 16.545,24.732 12.149,23.337 8.075 C 22.223 4.823,19.681 2.151,16.479 0.867 C 15.344 0.412,14.220 0.148,12.960 0.040 C 12.532 0.003,11.549 -0.004,11.180 0.027 M12.825 6.595 C 14.917 6.825,16.665 7.241,18.400 7.922 C 18.918 8.126,20.214 8.790,20.395 8.945 C 20.850 9.334,20.908 10.099,20.513 10.507 C 20.321 10.706,20.033 10.812,19.678 10.816 C 19.416 10.819,19.344 10.803,19.138 10.698 C 18.185 10.211,17.899 10.072,17.600 9.949 C 14.844 8.814,10.956 8.371,7.560 8.803 C 6.834 8.895,5.928 9.075,5.420 9.227 C 4.791 9.415,4.413 9.355,4.059 9.012 C 3.556 8.522,3.674 7.665,4.296 7.300 C 4.619 7.111,6.044 6.798,7.300 6.640 C 8.375 6.505,8.799 6.486,10.460 6.499 C 11.750 6.509,12.208 6.528,12.825 6.595 M12.040 10.658 C 14.424 10.949,16.601 11.623,18.300 12.596 C 18.909 12.946,19.038 13.077,19.101 13.410 C 19.196 13.919,18.702 14.478,18.157 14.480 C 17.961 14.480,17.912 14.458,17.180 14.049 C 15.990 13.384,14.359 12.847,12.662 12.562 C 11.702 12.401,10.905 12.350,9.680 12.373 C 8.261 12.399,7.425 12.506,6.320 12.804 C 5.560 13.009,5.527 13.014,5.296 12.963 C 4.755 12.841,4.485 12.357,4.642 11.789 C 4.694 11.602,4.885 11.379,5.076 11.282 C 5.439 11.098,7.202 10.733,8.160 10.643 C 8.413 10.619,8.683 10.593,8.760 10.584 C 9.133 10.541,11.530 10.595,12.040 10.658 M12.120 14.576 C 13.651 14.780,14.966 15.166,16.220 15.781 C 17.421 16.369,17.600 16.521,17.600 16.951 C 17.600 17.244,17.488 17.448,17.254 17.586 C 16.952 17.763,16.771 17.738,16.294 17.457 C 13.684 15.920,10.392 15.537,6.518 16.320 C 5.609 16.504,5.527 16.498,5.254 16.225 C 4.891 15.861,4.959 15.364,5.412 15.086 C 5.629 14.952,7.173 14.668,8.260 14.562 C 8.502 14.539,8.763 14.512,8.840 14.504 C 8.917 14.495,9.574 14.493,10.300 14.499 C 11.250 14.507,11.760 14.528,12.120 14.576 " stroke="none" fill="black" fill-rule="evenodd"></path></svg>