<svg role="img" viewBox="0 0 24 24" xmlns="http://www.w3.org/2000/svg"><path d="M8.295 2.479 C 7.954 2.531,7.583 2.674,7.329 2.852 C 6.959 3.112,1.094 8.957,0.849 9.311 C -0.819 11.719,0.099 15.072,2.745 16.234 C 4.180 16.863,5.810 16.733,7.162 15.880 C 7.458 15.694,7.996 15.172,11.448 11.726 C 15.851 7.331,15.580 7.637,15.580 7.060 C 15.580 6.780,15.565 6.713,15.461 6.526 C 15.175 6.008,14.606 5.795,14.017 5.983 C 13.835 6.041,13.520 6.347,9.900 9.978 C 6.057 13.833,5.974 13.912,5.680 14.051 C 5.282 14.238,5.014 14.296,4.580 14.291 C 3.513 14.279,2.606 13.524,2.380 12.459 C 2.274 11.959,2.331 11.509,2.566 10.986 C 2.691 10.707,2.787 10.607,6.468 6.918 L 10.242 3.137 10.131 3.031 C 9.707 2.627,8.906 2.386,8.295 2.479 M13.986 2.482 C 13.417 2.545,12.832 2.722,12.300 2.990 C 11.728 3.278,11.560 3.435,7.609 7.377 C 3.289 11.687,3.502 11.448,3.502 11.980 C 3.502 12.639,3.981 13.125,4.634 13.129 C 5.181 13.133,4.911 13.371,9.175 9.128 C 11.740 6.576,13.091 5.259,13.252 5.155 C 13.611 4.923,14.042 4.800,14.494 4.800 C 15.112 4.800,15.578 4.972,16.055 5.377 C 16.439 5.703,16.603 5.776,16.960 5.777 C 17.450 5.779,17.792 5.562,17.993 5.124 C 18.126 4.833,18.128 4.466,18.000 4.168 C 17.848 3.816,17.210 3.283,16.538 2.946 C 15.775 2.563,14.816 2.389,13.986 2.482 M18.980 7.383 C 18.028 7.512,17.347 7.763,16.683 8.227 C 16.281 8.508,8.665 16.123,8.528 16.380 C 8.441 16.545,8.422 16.632,8.422 16.880 C 8.422 17.357,8.633 17.720,9.026 17.921 C 9.190 18.005,9.275 18.020,9.580 18.019 C 9.851 18.019,9.975 18.001,10.080 17.945 C 10.157 17.905,11.948 16.147,14.060 14.040 C 16.610 11.495,17.976 10.159,18.127 10.065 C 18.833 9.620,19.693 9.584,20.458 9.968 C 20.798 10.139,21.260 10.616,21.433 10.976 C 21.754 11.639,21.755 12.351,21.436 13.024 C 21.312 13.285,21.098 13.507,17.528 17.085 L 13.751 20.871 13.963 21.039 C 14.383 21.370,14.836 21.528,15.380 21.532 C 15.779 21.535,16.056 21.472,16.440 21.289 C 16.730 21.151,16.835 21.052,19.732 18.163 C 21.378 16.523,22.821 15.063,22.938 14.920 C 23.900 13.746,24.234 12.133,23.814 10.684 C 23.342 9.053,21.986 7.809,20.303 7.462 C 19.990 7.397,19.214 7.351,18.980 7.383 M19.157 10.843 C 19.056 10.859,18.903 10.908,18.817 10.953 C 18.721 11.002,17.171 12.525,14.860 14.841 C 12.770 16.934,10.997 18.697,10.920 18.758 C 10.557 19.046,10.073 19.200,9.528 19.200 C 8.934 19.200,8.438 19.006,7.967 18.590 C 7.654 18.313,7.446 18.225,7.100 18.223 C 6.631 18.221,6.267 18.441,6.049 18.860 C 5.908 19.132,5.899 19.569,6.030 19.854 C 6.201 20.226,6.874 20.771,7.572 21.101 C 9.041 21.797,10.782 21.653,12.183 20.721 C 12.435 20.554,13.304 19.708,16.391 16.625 C 20.727 12.296,20.498 12.555,20.498 12.001 C 20.499 11.780,20.477 11.652,20.415 11.518 C 20.186 11.019,19.701 10.759,19.157 10.843 " stroke="none" fill="black" fill-rule="evenodd"></path></svg>