<svg role="img" viewBox="0 0 24 24" xmlns="http://www.w3.org/2000/svg"><path d="M11.032 0.195 C 9.990 0.875,8.518 2.445,7.885 3.551 C 7.251 4.659,7.164 5.403,7.507 6.780 C 7.878 8.274,8.602 10.012,10.381 13.680 C 11.712 16.425,12.149 17.403,12.415 18.232 C 12.632 18.908,12.658 19.080,12.656 19.800 C 12.653 20.707,12.542 21.283,12.061 22.873 C 11.835 23.622,11.788 23.943,11.898 23.985 C 12.233 24.113,13.842 22.640,15.158 21.000 C 15.869 20.115,16.455 19.146,16.624 18.577 C 16.879 17.720,16.407 15.960,15.188 13.220 C 14.728 12.185,14.434 11.561,13.419 9.460 C 11.371 5.221,11.276 4.940,11.278 3.087 C 11.279 2.335,11.308 1.973,11.464 0.760 C 11.539 0.180,11.525 -0.000,11.404 -0.000 C 11.364 -0.000,11.196 0.088,11.032 0.195 M3.599 2.746 C 2.669 3.366,1.481 4.689,1.019 5.620 C 0.737 6.189,0.664 6.501,0.695 7.000 C 0.770 8.206,1.305 9.603,3.210 13.560 C 4.057 15.319,4.399 16.073,4.591 16.600 C 4.851 17.315,4.860 17.366,4.858 18.120 C 4.856 18.936,4.810 19.193,4.461 20.362 C 4.218 21.174,4.188 21.400,4.322 21.400 C 4.805 21.400,6.823 19.293,7.613 17.964 C 7.974 17.356,8.020 17.207,8.017 16.660 C 8.013 16.116,7.939 15.775,7.619 14.840 C 7.266 13.810,6.772 12.693,5.535 10.131 C 4.343 7.661,4.027 6.931,3.901 6.360 C 3.857 6.161,3.827 5.783,3.813 5.240 C 3.795 4.514,3.804 4.324,3.897 3.584 C 3.954 3.124,3.991 2.715,3.978 2.674 C 3.943 2.564,3.844 2.583,3.599 2.746 M18.874 2.744 C 18.055 3.295,16.924 4.503,16.406 5.382 C 15.853 6.322,15.829 7.107,16.308 8.580 C 16.674 9.707,17.114 10.721,18.330 13.240 C 19.955 16.609,20.159 17.153,20.160 18.120 C 20.160 18.743,20.045 19.332,19.699 20.480 C 19.471 21.238,19.456 21.400,19.615 21.400 C 19.801 21.400,20.227 21.060,20.962 20.323 C 22.204 19.078,23.031 17.934,23.262 17.139 C 23.420 16.594,23.230 15.671,22.660 14.220 C 22.227 13.117,21.914 12.428,20.630 9.760 C 19.454 7.314,19.242 6.796,19.132 6.100 C 19.041 5.524,19.052 4.463,19.157 3.668 C 19.202 3.321,19.240 2.939,19.240 2.818 C 19.240 2.547,19.184 2.536,18.874 2.744 " stroke="none" fill="black" fill-rule="evenodd"></path></svg>