<svg role="img" viewBox="0 0 24 24" xmlns="http://www.w3.org/2000/svg"><path d="M11.865 7.361 C 0.779 8.110,0.146 8.156,0.070 8.232 C -0.010 8.312,-0.009 8.313,0.356 11.786 C 0.557 13.697,0.721 15.341,0.721 15.441 C 0.720 15.544,0.633 15.904,0.517 16.276 C 0.379 16.725,0.328 16.944,0.356 16.972 C 0.384 17.000,0.710 16.882,1.389 16.599 C 2.299 16.218,2.405 16.183,2.680 16.170 C 2.845 16.163,7.448 16.445,12.909 16.797 C 18.370 17.150,22.866 17.428,22.900 17.415 C 22.934 17.401,22.979 17.359,23.000 17.321 C 23.020 17.282,23.255 14.880,23.522 11.982 C 23.985 6.958,24.004 6.710,23.937 6.637 C 23.891 6.586,23.820 6.562,23.724 6.565 C 23.645 6.568,18.308 6.926,11.865 7.361 M5.288 10.358 C 5.619 10.483,5.814 10.722,5.846 11.043 L 5.860 11.180 5.611 11.192 C 5.376 11.203,5.361 11.198,5.338 11.106 C 5.282 10.884,5.011 10.760,4.580 10.760 C 4.099 10.760,3.840 10.909,3.840 11.185 C 3.840 11.267,3.869 11.366,3.905 11.405 C 3.940 11.444,4.299 11.586,4.702 11.721 C 5.138 11.866,5.498 12.011,5.592 12.079 C 6.060 12.418,6.025 13.230,5.530 13.558 C 5.257 13.739,5.075 13.780,4.536 13.780 C 4.062 13.780,4.046 13.777,3.778 13.640 C 3.438 13.467,3.278 13.261,3.249 12.963 L 3.230 12.760 3.472 12.760 C 3.705 12.760,3.715 12.764,3.739 12.874 C 3.770 13.016,3.936 13.174,4.116 13.235 C 4.293 13.294,4.848 13.293,5.047 13.233 C 5.257 13.170,5.440 12.959,5.440 12.781 C 5.440 12.537,5.329 12.465,4.556 12.205 C 3.732 11.928,3.653 11.890,3.489 11.704 C 3.201 11.377,3.302 10.706,3.675 10.459 C 4.017 10.232,4.819 10.182,5.288 10.358 M6.840 10.800 L 6.840 11.280 7.100 11.280 L 7.360 11.280 7.360 11.540 L 7.360 11.800 7.100 11.800 L 6.840 11.800 6.840 12.342 C 6.840 12.805,6.852 12.906,6.920 13.041 C 6.998 13.193,7.170 13.320,7.298 13.320 C 7.348 13.320,7.360 13.371,7.360 13.575 L 7.360 13.830 7.170 13.795 C 6.953 13.755,6.719 13.604,6.556 13.400 C 6.350 13.143,6.320 12.911,6.320 11.578 C 6.320 10.916,6.332 10.361,6.347 10.347 C 6.361 10.332,6.478 10.320,6.607 10.320 L 6.840 10.320 6.840 10.800 M10.671 10.870 C 10.677 11.162,10.690 11.400,10.699 11.400 C 10.708 11.400,10.784 11.360,10.868 11.310 C 11.074 11.188,11.573 11.187,11.840 11.307 C 12.250 11.492,12.405 11.780,12.432 12.403 C 12.457 12.991,12.386 13.229,12.105 13.502 C 11.873 13.729,11.658 13.811,11.300 13.811 C 10.942 13.811,10.727 13.729,10.495 13.502 C 10.173 13.188,10.160 13.115,10.160 11.591 L 10.160 10.316 10.410 10.328 L 10.660 10.340 10.671 10.870 M13.360 11.040 L 13.360 11.760 14.140 11.760 L 14.920 11.760 14.920 11.040 L 14.920 10.320 15.180 10.320 L 15.440 10.320 15.440 12.060 L 15.440 13.800 15.180 13.800 L 14.920 13.800 14.920 13.040 L 14.920 12.280 14.140 12.280 L 13.360 12.280 13.360 13.040 L 13.360 13.800 13.100 13.800 L 12.840 13.800 12.840 12.060 L 12.840 10.320 13.100 10.320 L 13.360 10.320 13.360 11.040 M18.760 10.896 C 18.777 11.377,18.788 11.444,18.835 11.386 C 18.928 11.274,19.290 11.191,19.550 11.221 C 20.208 11.299,20.479 11.633,20.512 12.403 C 20.535 12.961,20.466 13.213,20.214 13.482 C 20.003 13.708,19.757 13.807,19.401 13.811 C 19.056 13.814,18.824 13.734,18.602 13.535 C 18.265 13.232,18.262 13.216,18.248 11.668 L 18.235 10.316 18.488 10.328 L 18.740 10.340 18.760 10.896 M8.248 12.130 C 8.272 13.235,8.310 13.320,8.775 13.320 C 9.045 13.320,9.186 13.217,9.241 12.980 C 9.261 12.892,9.279 12.473,9.279 12.050 L 9.280 11.280 9.524 11.280 L 9.767 11.280 9.753 12.210 C 9.740 13.053,9.731 13.157,9.654 13.320 C 9.489 13.675,9.229 13.815,8.740 13.811 C 8.400 13.808,8.164 13.720,8.003 13.537 C 7.814 13.322,7.789 13.177,7.770 12.190 L 7.753 11.280 7.991 11.280 L 8.229 11.280 8.248 12.130 M16.320 11.970 C 16.321 13.154,16.384 13.320,16.837 13.320 C 17.297 13.320,17.360 13.164,17.360 12.018 L 17.360 11.280 17.603 11.280 L 17.847 11.280 17.830 12.190 C 17.820 12.741,17.794 13.159,17.765 13.249 C 17.651 13.603,17.336 13.805,16.885 13.812 C 16.377 13.819,16.110 13.681,15.945 13.324 C 15.868 13.156,15.859 13.057,15.847 12.210 L 15.834 11.280 16.077 11.280 L 16.320 11.280 16.320 11.970 M10.980 11.758 C 10.936 11.776,10.855 11.840,10.800 11.899 C 10.708 11.998,10.699 12.040,10.688 12.453 C 10.674 12.965,10.727 13.120,10.963 13.259 C 11.137 13.361,11.465 13.359,11.642 13.256 C 11.856 13.130,11.920 12.959,11.920 12.509 C 11.920 12.062,11.870 11.922,11.668 11.798 C 11.533 11.716,11.138 11.693,10.980 11.758 M19.041 11.771 C 18.987 11.799,18.901 11.882,18.851 11.956 C 18.771 12.075,18.760 12.142,18.760 12.497 C 18.760 12.963,18.822 13.129,19.043 13.259 C 19.217 13.361,19.545 13.359,19.722 13.256 C 19.938 13.129,20.000 12.960,20.000 12.497 C 20.000 12.142,19.989 12.075,19.909 11.956 C 19.786 11.775,19.666 11.721,19.380 11.721 C 19.248 11.721,19.096 11.744,19.041 11.771 " stroke="none" fill="black" fill-rule="evenodd"></path></svg>