<svg viewBox="0 0 24 24" role="img" xmlns="http://www.w3.org/2000/svg"><path d="M17.260 4.732 C 16.705 4.943,16.300 5.321,15.786 6.107 C 14.467 8.125,13.143 11.073,12.936 12.453 C 12.845 13.064,12.932 13.433,13.227 13.675 C 13.516 13.913,13.999 13.923,14.443 13.698 C 14.900 13.467,15.443 12.688,16.524 10.712 C 17.109 9.643,17.191 9.510,17.243 9.542 C 17.266 9.556,17.214 9.686,17.119 9.853 C 16.826 10.365,16.370 11.331,16.238 11.720 C 16.073 12.206,16.033 12.741,16.147 12.959 C 16.243 13.142,16.428 13.243,16.713 13.269 C 17.360 13.327,18.095 12.806,18.843 11.759 C 19.027 11.500,19.144 11.368,19.152 11.409 C 19.159 11.445,19.062 11.681,18.937 11.934 C 18.785 12.241,18.702 12.460,18.690 12.591 C 18.673 12.767,18.684 12.802,18.796 12.930 C 19.017 13.181,19.448 13.221,19.891 13.031 C 20.071 12.954,20.280 12.762,20.280 12.673 C 20.280 12.651,20.239 12.600,20.190 12.560 C 19.998 12.404,20.111 11.784,20.520 10.746 C 20.770 10.110,21.170 9.245,21.456 8.720 C 21.582 8.489,21.689 8.284,21.693 8.264 C 21.697 8.243,21.619 8.202,21.520 8.171 C 21.124 8.048,20.569 8.233,20.187 8.615 C 20.024 8.778,19.890 8.994,19.554 9.641 C 18.596 11.483,18.156 12.139,17.819 12.224 C 17.460 12.314,17.471 11.713,17.848 10.680 C 18.115 9.949,18.642 8.875,18.938 8.460 C 19.016 8.350,19.080 8.247,19.080 8.232 C 19.080 8.216,19.008 8.182,18.920 8.155 C 18.564 8.049,17.878 8.285,17.448 8.663 C 17.179 8.900,17.081 9.048,16.241 10.480 C 15.074 12.470,14.734 12.941,14.487 12.912 C 14.258 12.885,14.278 12.366,14.543 11.494 C 14.792 10.670,15.042 10.259,15.737 9.523 C 17.192 7.984,18.244 6.472,18.463 5.602 C 18.568 5.190,18.501 4.949,18.225 4.743 C 18.056 4.617,17.576 4.611,17.260 4.732 M17.991 5.400 C 18.111 5.628,17.948 6.203,17.601 6.778 C 17.360 7.178,16.859 7.871,16.513 8.284 C 16.092 8.788,15.261 9.682,15.248 9.645 C 15.231 9.592,16.184 7.651,16.559 6.976 C 16.942 6.288,17.527 5.384,17.630 5.322 C 17.750 5.250,17.933 5.289,17.991 5.400 M8.430 6.163 C 8.177 6.223,7.829 6.423,7.626 6.626 C 7.443 6.809,7.057 7.410,6.818 7.886 C 6.758 8.004,6.692 8.111,6.670 8.126 C 6.648 8.140,6.538 8.163,6.425 8.178 C 5.603 8.286,3.844 8.670,3.388 8.840 C 2.993 8.988,2.800 9.210,2.800 9.515 C 2.800 9.684,2.879 9.800,2.993 9.800 C 3.030 9.800,3.234 9.738,3.447 9.662 C 4.286 9.362,6.385 8.806,6.345 8.894 C 6.163 9.295,5.694 10.524,5.480 11.160 C 4.969 12.682,4.715 13.739,4.712 14.360 C 4.709 14.938,4.820 15.228,5.121 15.433 C 5.236 15.511,5.298 15.524,5.480 15.511 C 6.189 15.459,6.550 14.947,8.099 11.787 C 8.437 11.099,8.742 10.511,8.778 10.482 C 8.919 10.365,8.881 10.504,8.629 11.030 C 7.990 12.364,7.679 13.337,7.681 13.993 C 7.682 14.454,7.812 14.692,8.116 14.794 C 8.407 14.892,8.804 14.799,9.207 14.538 C 9.578 14.298,10.193 13.698,10.429 13.345 C 10.754 12.860,10.792 12.897,10.563 13.473 C 9.565 15.978,8.144 18.274,7.332 18.694 C 7.163 18.781,7.073 18.777,6.945 18.677 C 6.856 18.607,6.840 18.563,6.840 18.387 C 6.841 17.808,7.572 16.928,8.720 16.121 C 9.072 15.874,9.158 15.779,9.159 15.632 C 9.160 15.508,9.033 15.400,8.886 15.400 C 8.521 15.400,6.849 15.847,5.520 16.301 C 3.273 17.067,1.085 18.122,0.921 18.517 C 0.816 18.771,0.990 18.786,1.381 18.555 C 1.899 18.250,2.936 17.727,3.500 17.488 C 4.594 17.023,5.662 16.685,7.050 16.364 C 7.760 16.200,7.960 16.171,7.960 16.233 C 7.960 16.251,7.749 16.367,7.490 16.490 C 7.231 16.614,6.912 16.785,6.780 16.871 C 6.013 17.367,5.429 18.146,5.426 18.678 C 5.422 19.150,5.652 19.326,6.306 19.352 C 7.239 19.390,8.039 19.071,8.976 18.285 C 9.682 17.693,10.418 16.708,10.968 15.620 C 11.326 14.910,11.527 14.412,11.941 13.200 C 12.621 11.208,13.170 9.768,13.464 9.200 C 13.625 8.889,13.634 8.856,13.572 8.810 C 13.412 8.692,12.881 8.795,12.500 9.018 C 12.270 9.153,11.940 9.456,11.795 9.667 C 11.728 9.765,11.550 10.147,11.400 10.517 C 10.720 12.192,10.215 13.113,9.728 13.568 C 9.398 13.877,9.217 13.865,9.172 13.530 C 9.094 12.944,10.010 10.466,10.703 9.391 L 10.877 9.122 10.790 9.061 C 10.673 8.980,10.239 8.981,9.957 9.064 C 9.490 9.201,8.976 9.581,8.621 10.054 C 8.484 10.235,8.126 10.884,7.667 11.782 C 6.892 13.299,6.464 14.066,6.353 14.134 C 6.305 14.164,6.268 14.160,6.219 14.119 C 6.162 14.072,6.154 14.012,6.170 13.761 C 6.214 13.093,7.196 9.933,7.720 8.775 L 7.830 8.530 8.085 8.484 C 10.329 8.077,12.292 7.842,13.461 7.840 C 13.792 7.840,13.960 7.779,13.960 7.658 C 13.960 7.560,13.775 7.547,12.663 7.573 C 11.469 7.600,10.547 7.666,9.108 7.824 C 8.584 7.882,8.148 7.921,8.137 7.911 C 8.110 7.883,8.461 7.260,8.672 6.960 C 8.773 6.817,8.962 6.598,9.092 6.473 L 9.329 6.246 9.117 6.183 C 8.887 6.114,8.664 6.108,8.430 6.163 M22.673 8.175 C 22.120 8.403,21.759 8.900,21.694 9.521 C 21.659 9.856,21.735 10.184,21.983 10.767 C 22.310 11.534,22.347 11.833,22.161 12.199 C 21.926 12.660,21.467 12.910,21.376 12.628 C 21.257 12.259,21.487 11.634,21.828 11.400 C 21.964 11.307,22.024 11.192,21.977 11.115 C 21.931 11.040,21.426 11.102,21.188 11.212 C 20.663 11.456,20.277 12.141,20.402 12.607 C 20.461 12.826,20.689 13.048,20.944 13.135 C 21.188 13.218,21.681 13.219,21.963 13.136 C 22.490 12.981,23.049 12.565,23.296 12.143 C 23.640 11.556,23.573 10.981,23.017 9.775 C 22.698 9.082,22.656 8.880,22.780 8.639 C 22.897 8.414,23.175 8.365,23.317 8.545 C 23.421 8.678,23.422 8.820,23.320 9.019 C 23.203 9.249,23.317 9.303,23.624 9.164 C 23.836 9.068,23.968 8.880,23.991 8.643 C 24.006 8.484,23.993 8.437,23.901 8.329 C 23.689 8.077,23.094 8.002,22.673 8.175 M3.481 10.304 C 2.865 10.470,2.400 10.990,2.216 11.720 C 2.167 11.914,2.155 12.091,2.170 12.420 C 2.186 12.799,2.212 12.929,2.354 13.353 C 2.729 14.472,2.737 14.508,2.739 14.980 C 2.740 15.407,2.736 15.428,2.601 15.680 C 2.341 16.164,1.880 16.520,1.512 16.520 C 1.283 16.520,1.195 16.428,1.170 16.166 C 1.122 15.666,1.520 14.900,2.006 14.559 C 2.318 14.341,2.291 14.280,1.886 14.280 C 1.320 14.281,0.899 14.459,0.538 14.849 C 0.120 15.300,-0.080 15.908,0.042 16.349 C 0.114 16.609,0.461 16.959,0.740 17.054 C 1.825 17.425,3.198 16.890,3.884 15.830 C 4.373 15.073,4.320 14.142,3.704 12.623 C 3.587 12.336,3.460 12.004,3.422 11.888 C 3.335 11.623,3.331 11.251,3.415 11.091 C 3.610 10.713,4.055 10.640,4.220 10.959 C 4.309 11.133,4.294 11.286,4.159 11.541 C 4.066 11.718,4.049 11.783,4.084 11.825 C 4.223 11.993,4.752 11.771,4.937 11.468 C 5.089 11.219,5.117 10.920,5.009 10.720 C 4.913 10.545,4.630 10.384,4.272 10.301 C 3.946 10.227,3.767 10.227,3.481 10.304 M19.100 13.964 C 16.091 14.123,12.384 14.651,11.818 15.001 C 11.666 15.095,11.604 15.248,11.680 15.341 C 11.737 15.408,11.976 15.417,12.220 15.361 C 12.711 15.248,14.188 15.072,15.420 14.980 C 18.034 14.784,20.527 14.822,22.309 15.084 L 22.878 15.168 23.049 15.084 C 23.420 14.903,23.840 14.430,23.840 14.195 C 23.840 14.099,23.818 14.077,23.690 14.044 C 23.253 13.930,20.609 13.884,19.100 13.964 " stroke="none" fill="black" fill-rule="evenodd"></path></svg>