<svg role="img" viewBox="0 0 24 24" xmlns="http://www.w3.org/2000/svg"><path d="M11.940 2.806 C 5.907 4.727,3.100 5.638,3.014 5.703 C 2.750 5.902,2.756 5.814,2.769 9.147 C 2.780 12.113,2.781 12.156,2.862 12.265 C 2.908 12.325,2.989 12.407,3.042 12.446 C 3.096 12.485,4.827 13.052,6.890 13.707 C 8.952 14.361,10.626 14.908,10.610 14.922 C 10.585 14.942,4.263 16.950,3.411 17.208 C 3.115 17.297,2.935 17.438,2.835 17.658 C 2.766 17.810,2.762 17.995,2.761 20.805 L 2.760 23.789 2.869 23.899 C 2.959 23.988,3.005 24.004,3.119 23.989 C 3.334 23.960,20.717 18.442,20.900 18.345 C 21.009 18.287,21.089 18.203,21.150 18.082 L 21.240 17.903 21.240 14.920 L 21.240 11.937 21.150 11.761 C 21.101 11.664,21.012 11.550,20.954 11.507 C 20.895 11.465,19.214 10.912,17.218 10.278 C 15.222 9.645,13.555 9.112,13.513 9.093 C 13.457 9.068,14.086 8.854,15.888 8.283 C 21.428 6.527,21.006 6.682,21.164 6.340 C 21.234 6.189,21.238 6.012,21.239 3.195 C 21.240 0.236,21.239 0.210,21.157 0.105 C 21.090 0.021,21.042 0.000,20.907 0.003 C 20.802 0.004,17.480 1.043,11.940 2.806 " stroke="none" fill="black" fill-rule="evenodd"></path></svg>