<svg role="img" viewBox="0 0 24 24" xmlns="http://www.w3.org/2000/svg"><path d="M2.258 0.098 L 2.160 0.196 2.160 11.989 C 2.160 22.598,2.166 23.791,2.222 23.871 L 2.285 23.960 5.276 23.960 C 8.123 23.960,8.271 23.956,8.334 23.887 C 8.391 23.824,8.400 23.699,8.400 22.973 C 8.400 22.169,8.396 22.129,8.316 22.056 C 8.237 21.985,8.142 21.979,6.767 21.968 C 5.488 21.958,5.293 21.948,5.231 21.892 C 5.163 21.831,5.160 21.364,5.160 12.001 C 5.160 3.582,5.168 2.164,5.217 2.098 C 5.271 2.024,5.347 2.019,6.760 2.000 L 8.247 1.980 8.324 1.886 C 8.393 1.800,8.400 1.719,8.400 0.994 C 8.400 0.200,8.399 0.196,8.302 0.098 L 8.204 0.000 5.280 0.000 L 2.356 0.000 2.258 0.098 M11.041 0.148 C 10.959 0.252,10.956 0.291,10.968 1.052 C 10.979 1.752,10.988 1.853,11.050 1.897 C 11.094 1.930,11.325 1.956,11.690 1.971 C 12.003 1.984,12.387 2.021,12.542 2.055 C 13.222 2.201,13.805 2.503,14.289 2.957 C 14.776 3.414,15.079 3.883,15.284 4.500 C 15.377 4.779,15.377 4.790,15.401 7.520 C 15.425 10.195,15.428 10.267,15.514 10.554 C 15.687 11.128,15.967 11.565,16.469 12.045 C 16.836 12.395,17.240 12.679,17.707 12.914 C 18.031 13.076,18.139 13.197,18.046 13.290 C 18.024 13.312,17.887 13.381,17.743 13.442 C 16.898 13.798,16.086 14.628,15.717 15.513 C 15.420 16.225,15.427 16.155,15.402 18.840 L 15.380 21.260 15.266 21.492 C 15.145 21.739,15.001 21.861,14.680 21.988 C 14.515 22.054,14.357 22.059,12.826 22.048 C 11.358 22.038,11.140 22.044,11.056 22.099 L 10.960 22.162 10.960 22.998 C 10.960 23.925,10.962 23.934,11.221 23.983 C 11.298 23.997,12.256 24.000,13.350 23.989 C 15.501 23.967,15.901 23.936,16.584 23.738 C 17.492 23.475,17.996 23.013,18.263 22.200 C 18.329 22.000,18.338 21.738,18.361 19.360 C 18.389 16.486,18.382 16.579,18.643 16.048 C 18.798 15.732,19.200 15.299,19.559 15.061 C 19.982 14.779,20.259 14.667,21.140 14.418 C 21.457 14.329,21.747 14.180,21.801 14.078 C 21.830 14.024,21.841 13.740,21.832 13.255 L 21.820 12.513 21.696 12.402 C 21.614 12.330,21.400 12.236,21.071 12.130 C 19.705 11.688,18.893 11.047,18.568 10.155 L 18.461 9.860 18.436 7.400 C 18.414 5.102,18.407 4.918,18.330 4.600 C 17.765 2.266,15.667 0.506,12.967 0.099 C 12.737 0.064,12.285 0.040,11.853 0.040 L 11.126 0.040 11.041 0.148 M11.331 8.437 C 11.150 8.482,11.010 8.583,10.917 8.732 C 10.844 8.851,10.839 8.922,10.849 9.700 C 10.859 10.496,10.865 10.547,10.949 10.665 C 11.118 10.901,11.212 10.920,12.227 10.920 C 13.248 10.920,13.331 10.902,13.510 10.640 C 13.596 10.514,13.600 10.473,13.600 9.680 C 13.600 8.887,13.596 8.846,13.510 8.718 C 13.324 8.443,13.239 8.421,12.300 8.412 C 11.838 8.408,11.402 8.419,11.331 8.437 " stroke="none" fill="black" fill-rule="evenodd"></path></svg>