<svg role="img" viewBox="0 0 24 24" xmlns="http://www.w3.org/2000/svg"><path d="M11.636 0.346 C 9.165 2.626,3.612 6.044,0.598 7.142 C 0.368 7.225,0.168 7.304,0.154 7.317 C 0.140 7.330,3.567 9.770,7.770 12.740 C 11.974 15.710,15.449 18.169,15.494 18.204 C 15.572 18.267,15.564 18.276,15.241 18.492 L 14.908 18.715 14.724 18.589 C 14.623 18.520,13.284 17.595,11.749 16.534 C 8.833 14.518,8.528 14.331,7.774 14.084 C 5.903 13.474,3.676 13.763,1.449 14.907 C 0.884 15.197,0.150 15.648,0.154 15.703 C 0.155 15.723,2.745 17.545,5.908 19.751 C 9.072 21.957,11.735 23.815,11.827 23.881 L 11.993 24.000 12.367 23.655 C 14.829 21.376,20.319 17.995,23.400 16.860 C 23.631 16.775,23.832 16.695,23.846 16.683 C 23.861 16.670,23.312 16.264,22.626 15.781 C 21.941 15.297,20.615 14.360,19.680 13.698 C 18.745 13.037,16.693 11.586,15.120 10.474 C 9.551 6.537,8.500 5.793,8.466 5.761 C 8.432 5.728,9.019 5.307,9.098 5.307 C 9.122 5.307,10.383 6.168,11.900 7.221 C 13.418 8.274,14.827 9.238,15.031 9.364 C 16.149 10.049,17.583 10.351,18.992 10.198 C 20.248 10.061,21.635 9.607,22.860 8.932 C 23.585 8.532,23.895 8.317,23.832 8.258 C 23.803 8.231,23.303 7.878,22.720 7.472 C 21.812 6.842,18.004 4.187,13.360 0.948 C 12.667 0.465,12.080 0.054,12.056 0.035 C 12.027 0.012,11.879 0.122,11.636 0.346 " stroke="none" fill="black" fill-rule="evenodd"></path></svg>