<svg role="img" xmlns="http://www.w3.org/2000/svg" viewBox="0 0 24 24"><path d="M11.145 0.070 C 11.134 0.108,11.078 0.401,11.022 0.720 C 10.965 1.039,10.910 1.339,10.899 1.388 C 10.884 1.458,10.842 1.480,10.690 1.501 C 10.306 1.553,9.810 1.649,9.428 1.744 C 9.213 1.798,9.021 1.833,9.002 1.822 C 8.984 1.810,8.802 1.539,8.598 1.219 C 8.394 0.898,8.214 0.629,8.198 0.619 C 8.167 0.600,6.723 1.185,6.666 1.239 C 6.647 1.258,6.696 1.572,6.776 1.939 C 6.855 2.306,6.920 2.631,6.920 2.661 C 6.920 2.692,6.835 2.766,6.730 2.826 C 6.457 2.983,5.858 3.384,5.590 3.589 C 5.452 3.694,5.340 3.753,5.310 3.736 C 5.282 3.719,5.002 3.527,4.686 3.307 L 4.112 2.908 3.511 3.509 L 2.910 4.111 3.308 4.685 C 3.527 5.001,3.719 5.282,3.736 5.310 C 3.753 5.340,3.694 5.452,3.589 5.590 C 3.384 5.858,2.983 6.457,2.826 6.730 C 2.766 6.835,2.692 6.920,2.661 6.920 C 2.631 6.920,2.306 6.855,1.939 6.776 C 1.572 6.696,1.258 6.647,1.240 6.666 C 1.182 6.726,0.597 8.163,0.617 8.195 C 0.628 8.213,0.898 8.394,1.219 8.598 C 1.539 8.802,1.810 8.984,1.822 9.002 C 1.833 9.021,1.797 9.214,1.742 9.432 C 1.687 9.650,1.604 10.060,1.558 10.344 C 1.512 10.627,1.467 10.866,1.459 10.875 C 1.450 10.883,1.159 10.942,0.812 11.004 C 0.464 11.067,0.139 11.128,0.090 11.140 C 0.000 11.161,-0.000 11.164,-0.000 11.998 C -0.000 12.760,0.006 12.836,0.070 12.855 C 0.108 12.866,0.401 12.922,0.720 12.978 C 1.039 13.035,1.339 13.090,1.388 13.101 C 1.458 13.116,1.480 13.158,1.501 13.310 C 1.553 13.694,1.649 14.190,1.744 14.572 C 1.798 14.787,1.833 14.979,1.822 14.998 C 1.810 15.016,1.539 15.198,1.219 15.402 C 0.898 15.606,0.628 15.787,0.618 15.803 C 0.599 15.835,1.184 17.277,1.240 17.335 C 1.259 17.355,1.565 17.307,1.947 17.224 C 2.317 17.144,2.642 17.079,2.668 17.080 C 2.695 17.080,2.766 17.165,2.826 17.270 C 2.983 17.543,3.384 18.142,3.589 18.410 C 3.694 18.548,3.753 18.660,3.736 18.690 C 3.719 18.718,3.527 18.999,3.308 19.315 L 2.910 19.889 3.511 20.491 L 4.112 21.092 4.686 20.693 C 5.002 20.473,5.282 20.281,5.310 20.264 C 5.340 20.247,5.452 20.306,5.590 20.411 C 5.858 20.616,6.457 21.017,6.730 21.174 C 6.835 21.234,6.920 21.308,6.920 21.339 C 6.920 21.369,6.855 21.694,6.776 22.061 C 6.696 22.429,6.647 22.742,6.666 22.761 C 6.723 22.816,8.166 23.401,8.197 23.382 C 8.213 23.372,8.394 23.102,8.598 22.781 C 8.802 22.461,8.983 22.190,9.001 22.180 C 9.018 22.169,9.255 22.213,9.526 22.278 C 9.798 22.343,10.207 22.424,10.435 22.457 C 10.664 22.490,10.860 22.526,10.870 22.537 C 10.881 22.548,10.942 22.841,11.004 23.188 C 11.067 23.536,11.128 23.861,11.140 23.910 C 11.161 24.000,11.164 24.000,12.000 24.000 C 12.836 24.000,12.839 24.000,12.860 23.910 C 12.872 23.861,12.933 23.536,12.996 23.188 C 13.058 22.841,13.117 22.549,13.126 22.540 C 13.135 22.531,13.333 22.496,13.566 22.461 C 13.798 22.427,14.209 22.345,14.478 22.279 C 14.747 22.213,14.981 22.168,14.999 22.179 C 15.017 22.190,15.198 22.461,15.402 22.781 C 15.606 23.102,15.787 23.372,15.804 23.382 C 15.837 23.403,17.277 22.818,17.334 22.761 C 17.353 22.743,17.304 22.430,17.224 22.061 C 17.145 21.694,17.080 21.369,17.080 21.339 C 17.080 21.308,17.166 21.234,17.270 21.174 C 17.543 21.017,18.142 20.616,18.410 20.411 C 18.548 20.306,18.660 20.247,18.690 20.264 C 18.718 20.281,18.999 20.473,19.315 20.692 L 19.889 21.090 20.490 20.490 L 21.090 19.889 20.692 19.315 C 20.473 18.999,20.281 18.718,20.264 18.690 C 20.247 18.660,20.306 18.548,20.411 18.410 C 20.616 18.142,21.017 17.543,21.174 17.270 C 21.234 17.165,21.308 17.080,21.339 17.080 C 21.369 17.080,21.694 17.145,22.061 17.224 C 22.428 17.304,22.742 17.353,22.760 17.334 C 22.818 17.274,23.403 15.837,23.383 15.805 C 23.372 15.787,23.102 15.606,22.781 15.402 C 22.461 15.198,22.190 15.016,22.178 14.998 C 22.167 14.979,22.203 14.786,22.258 14.568 C 22.313 14.350,22.396 13.940,22.442 13.656 C 22.488 13.373,22.532 13.134,22.540 13.126 C 22.548 13.119,22.839 13.060,23.187 12.997 C 23.535 12.934,23.861 12.872,23.910 12.860 C 24.000 12.839,24.000 12.836,24.000 12.002 C 24.000 11.240,23.994 11.164,23.930 11.145 C 23.892 11.134,23.599 11.078,23.280 11.022 C 22.961 10.965,22.661 10.910,22.612 10.899 C 22.542 10.884,22.520 10.842,22.499 10.690 C 22.447 10.306,22.351 9.810,22.256 9.428 C 22.202 9.213,22.166 9.022,22.177 9.005 C 22.187 8.988,22.445 8.815,22.748 8.621 C 23.052 8.426,23.324 8.246,23.353 8.220 C 23.396 8.181,23.349 8.036,23.099 7.436 C 22.931 7.031,22.778 6.685,22.760 6.666 C 22.742 6.647,22.428 6.696,22.061 6.776 C 21.694 6.855,21.369 6.920,21.339 6.920 C 21.308 6.920,21.234 6.835,21.174 6.730 C 21.017 6.457,20.616 5.858,20.411 5.590 C 20.306 5.452,20.247 5.340,20.264 5.310 C 20.281 5.282,20.473 5.001,20.692 4.685 L 21.090 4.111 20.490 3.510 L 19.889 2.910 19.315 3.308 C 18.999 3.527,18.718 3.719,18.690 3.736 C 18.660 3.753,18.548 3.694,18.410 3.589 C 18.142 3.384,17.543 2.983,17.270 2.826 C 17.166 2.766,17.080 2.692,17.080 2.661 C 17.080 2.631,17.145 2.306,17.224 1.939 C 17.306 1.563,17.353 1.257,17.334 1.238 C 17.276 1.180,15.837 0.597,15.804 0.617 C 15.787 0.628,15.606 0.898,15.402 1.219 C 15.198 1.539,15.017 1.810,14.999 1.821 C 14.981 1.832,14.747 1.787,14.478 1.721 C 14.209 1.655,13.798 1.573,13.566 1.539 C 13.333 1.504,13.135 1.469,13.126 1.460 C 13.117 1.451,13.058 1.159,12.996 0.812 C 12.933 0.464,12.872 0.140,12.860 0.090 C 12.839 0.000,12.836 0.000,12.002 0.000 C 11.240 0.000,11.164 0.006,11.145 0.070 M13.320 2.902 C 16.348 3.362,18.898 5.219,20.240 7.940 C 20.891 9.260,21.177 10.500,21.177 12.000 C 21.176 13.517,20.901 14.709,20.240 16.060 C 18.909 18.777,16.338 20.647,13.300 21.104 C 12.645 21.203,11.360 21.204,10.720 21.107 C 8.742 20.805,6.964 19.929,5.580 18.573 C 4.121 17.143,3.202 15.334,2.893 13.280 C 2.796 12.638,2.798 11.352,2.896 10.700 C 3.356 7.661,5.221 5.095,7.940 3.760 C 8.995 3.243,10.100 2.937,11.320 2.825 C 11.678 2.792,12.909 2.839,13.320 2.902 M11.312 3.804 C 10.741 3.848,9.982 4.006,9.387 4.204 C 6.960 5.011,4.993 6.984,4.195 9.411 C 3.641 11.097,3.643 12.935,4.203 14.608 C 5.131 17.386,7.496 19.477,10.367 20.058 C 12.676 20.525,15.098 19.973,16.973 18.551 C 17.385 18.238,18.055 17.591,18.371 17.200 C 21.064 13.866,20.788 9.087,17.731 6.115 C 16.313 4.738,14.570 3.951,12.600 3.801 C 12.006 3.756,11.935 3.756,11.312 3.804 M11.843 5.851 C 12.138 6.050,12.244 6.401,12.096 6.688 L 12.032 6.812 12.710 7.490 L 13.388 8.168 13.552 8.084 C 13.659 8.029,13.792 8.000,13.933 8.000 L 14.148 8.000 14.328 7.538 L 14.508 7.076 14.378 6.946 C 14.121 6.689,14.115 6.292,14.363 6.043 C 14.771 5.635,15.447 5.920,15.447 6.500 C 15.447 6.806,15.239 7.059,14.949 7.106 C 14.830 7.126,14.792 7.171,14.559 7.572 C 14.416 7.817,14.295 8.037,14.289 8.061 C 14.282 8.085,14.320 8.128,14.372 8.155 C 14.500 8.224,14.668 8.493,14.700 8.679 C 14.775 9.125,14.370 9.596,13.909 9.599 C 13.747 9.600,13.504 9.514,13.399 9.419 C 13.343 9.368,13.269 9.417,12.732 9.863 L 12.129 10.364 12.271 10.640 C 12.540 11.164,12.481 11.839,12.125 12.305 L 11.969 12.510 12.250 12.825 C 12.405 12.998,12.601 13.216,12.685 13.308 L 12.838 13.476 13.029 13.368 C 13.280 13.226,13.722 13.216,14.000 13.345 C 14.402 13.532,14.651 13.923,14.651 14.369 L 14.652 14.637 15.420 14.894 L 16.189 15.150 16.256 15.036 C 16.336 14.900,16.603 14.736,16.804 14.700 C 17.239 14.620,17.716 15.033,17.719 15.491 C 17.720 15.671,17.630 15.903,17.508 16.033 C 17.242 16.319,16.739 16.366,16.451 16.134 C 16.240 15.963,16.143 15.780,16.120 15.503 L 16.100 15.267 15.353 15.017 L 14.607 14.768 14.489 14.958 C 14.276 15.300,13.940 15.481,13.525 15.478 C 13.401 15.477,13.234 15.453,13.154 15.424 L 13.008 15.372 12.666 16.003 L 12.324 16.634 12.457 16.780 C 12.817 17.173,12.703 17.806,12.231 18.035 C 11.696 18.294,11.078 17.916,11.081 17.332 C 11.083 16.830,11.453 16.497,11.974 16.526 L 12.213 16.540 12.548 15.926 L 12.882 15.312 12.737 15.151 C 12.363 14.738,12.312 14.188,12.605 13.746 L 12.725 13.564 12.299 13.088 L 11.873 12.612 11.552 12.776 C 11.242 12.935,11.219 12.940,10.846 12.939 C 10.506 12.939,10.430 12.925,10.208 12.823 C 10.063 12.756,9.943 12.723,9.925 12.744 C 9.907 12.764,9.735 13.000,9.543 13.269 L 9.192 13.759 9.317 13.916 C 9.509 14.158,9.574 14.347,9.574 14.660 C 9.576 15.260,9.156 15.708,8.554 15.751 C 8.372 15.764,8.229 15.750,8.102 15.707 C 7.320 15.440,7.090 14.450,7.673 13.859 C 8.018 13.509,8.500 13.440,9.026 13.664 C 9.051 13.675,9.243 13.445,9.454 13.154 L 9.836 12.625 9.687 12.462 C 9.362 12.109,9.225 11.736,9.246 11.269 L 9.259 10.983 8.540 10.778 C 7.512 10.485,7.621 10.497,7.520 10.660 C 7.421 10.820,7.168 10.982,6.956 11.020 C 6.639 11.078,6.261 10.863,6.115 10.540 C 5.879 10.021,6.260 9.440,6.836 9.440 C 7.080 9.440,7.225 9.492,7.374 9.633 C 7.512 9.763,7.640 10.003,7.640 10.132 C 7.640 10.219,7.707 10.252,8.430 10.519 C 8.865 10.679,9.238 10.817,9.260 10.825 C 9.282 10.834,9.352 10.741,9.416 10.618 C 9.570 10.322,9.839 10.065,10.157 9.909 C 10.401 9.789,10.446 9.780,10.839 9.780 C 11.217 9.780,11.285 9.792,11.506 9.894 C 11.641 9.956,11.802 10.060,11.864 10.124 C 11.925 10.188,11.995 10.240,12.019 10.240 C 12.053 10.240,13.025 9.460,13.211 9.284 C 13.227 9.268,13.212 9.196,13.176 9.124 C 13.085 8.941,13.093 8.638,13.195 8.431 L 13.280 8.260 12.610 7.590 C 12.143 7.122,11.922 6.927,11.880 6.945 C 11.546 7.090,11.288 7.057,11.075 6.845 C 10.836 6.606,10.817 6.248,11.030 5.996 C 11.236 5.751,11.599 5.686,11.843 5.851 " stroke="none" fill="black" fill-rule="evenodd"></path></svg>