<svg role="img" viewBox="0 0 24 24" xmlns="http://www.w3.org/2000/svg"><path d="M15.820 1.262 C 15.499 1.350,15.001 1.617,14.710 1.858 C 13.490 2.868,12.993 4.591,13.375 6.482 C 13.468 6.937,13.735 7.801,13.854 8.028 L 13.902 8.120 14.361 7.887 C 15.545 7.287,16.448 6.578,17.064 5.765 C 17.365 5.367,17.719 4.674,17.842 4.240 C 17.965 3.811,17.994 2.997,17.902 2.585 C 17.756 1.928,17.355 1.393,16.910 1.261 C 16.659 1.186,16.095 1.187,15.820 1.262 M3.280 2.787 C 1.720 3.033,0.643 3.688,0.198 4.661 C -0.168 5.460,-0.002 6.488,0.659 7.505 C 0.962 7.972,1.659 8.667,2.157 9.000 C 4.279 10.417,7.220 10.570,10.603 9.440 C 11.221 9.234,12.270 8.821,12.335 8.759 C 12.425 8.674,11.625 7.262,11.034 6.462 C 10.649 5.940,9.746 5.014,9.225 4.606 C 7.992 3.640,6.616 3.037,5.155 2.822 C 4.765 2.765,3.561 2.742,3.280 2.787 M14.900 9.616 C 12.948 10.265,11.483 11.628,11.020 13.223 C 10.873 13.731,10.825 14.237,10.852 14.999 C 10.903 16.419,11.229 17.681,11.868 18.933 C 12.607 20.380,13.999 21.893,14.988 22.325 C 15.299 22.461,15.715 22.597,16.100 22.690 C 16.592 22.808,17.803 22.818,18.320 22.707 C 19.040 22.554,19.952 22.173,20.598 21.758 L 20.857 21.591 20.578 21.502 C 19.968 21.307,19.586 21.055,18.740 20.288 C 18.108 19.715,17.353 18.788,16.852 17.973 C 16.534 17.454,15.981 16.327,15.786 15.800 C 15.269 14.397,15.040 13.163,15.040 11.780 C 15.041 10.784,15.157 10.108,15.415 9.610 C 15.488 9.469,15.494 9.439,15.450 9.442 C 15.433 9.442,15.186 9.521,14.900 9.616 M18.499 9.552 C 17.835 9.782,17.345 10.337,17.240 10.980 C 17.180 11.342,17.192 12.336,17.262 12.868 C 17.539 14.979,18.621 17.169,20.085 18.582 C 20.814 19.285,21.194 19.507,21.740 19.548 C 22.491 19.606,23.180 19.208,23.482 18.543 C 23.977 17.449,24.125 15.887,23.857 14.568 C 23.715 13.865,23.323 12.898,22.935 12.288 C 22.163 11.076,20.806 9.990,19.531 9.563 C 19.221 9.459,18.781 9.455,18.499 9.552 M8.714 15.340 C 8.144 16.247,7.372 17.712,6.900 18.780 C 6.540 19.595,6.240 20.381,6.241 20.506 C 6.242 20.650,6.363 20.917,6.471 21.014 C 6.610 21.137,8.024 21.642,9.120 21.959 C 10.186 22.269,12.129 22.713,12.239 22.672 C 12.258 22.666,12.101 22.471,11.890 22.240 C 10.150 20.334,9.122 17.934,8.967 15.420 L 8.940 14.980 8.714 15.340 " stroke="none" fill="black" fill-rule="evenodd"></path></svg>