<svg role="img" viewBox="0 0 24 24" xmlns="http://www.w3.org/2000/svg"><path d="M2.344 0.090 C 2.324 0.192,2.077 8.490,2.093 8.507 C 2.099 8.512,2.337 8.554,2.622 8.598 C 2.907 8.643,3.196 8.689,3.265 8.700 L 3.390 8.722 3.418 8.431 C 3.468 7.914,3.643 6.955,3.800 6.337 C 4.363 4.125,5.380 2.685,6.960 1.865 C 7.732 1.464,8.712 1.192,9.592 1.135 L 10.002 1.108 9.988 10.684 C 9.976 19.428,9.969 20.288,9.908 20.577 C 9.711 21.516,9.448 21.915,8.823 22.221 C 8.370 22.443,8.003 22.516,6.970 22.590 L 6.040 22.656 6.040 23.328 L 6.040 24.000 12.000 24.000 L 17.960 24.000 17.960 23.320 L 17.960 22.640 17.570 22.640 C 17.081 22.640,16.199 22.540,15.784 22.438 C 15.380 22.338,14.948 22.130,14.711 21.921 C 14.367 21.618,14.139 21.003,14.042 20.112 C 14.014 19.850,14.000 16.688,14.000 10.439 L 14.000 1.155 14.170 1.176 C 14.263 1.187,14.475 1.208,14.640 1.221 C 15.091 1.258,15.720 1.388,16.190 1.542 C 17.633 2.015,18.816 3.059,19.552 4.510 C 20.082 5.554,20.412 6.780,20.564 8.270 C 20.608 8.702,20.623 8.760,20.688 8.760 C 20.765 8.760,21.893 8.596,21.909 8.582 C 21.914 8.578,21.847 6.704,21.760 4.417 C 21.672 2.131,21.601 0.202,21.600 0.130 L 21.600 0.000 11.981 0.000 L 2.362 0.000 2.344 0.090 M2.080 13.480 L 2.080 15.920 4.520 15.920 L 6.960 15.920 6.960 13.480 L 6.960 11.040 4.520 11.040 L 2.080 11.040 2.080 13.480 M16.987 11.067 C 16.972 11.081,16.960 12.179,16.960 13.507 L 16.960 15.920 19.400 15.920 L 21.840 15.920 21.840 13.480 L 21.840 11.040 19.427 11.040 C 18.099 11.040,17.001 11.052,16.987 11.067 " stroke="none" fill="black" fill-rule="evenodd"></path></svg>