<svg role="img" viewBox="0 0 24 24" xmlns="http://www.w3.org/2000/svg"><path d="M11.000 4.860 C 9.610 5.031,8.561 5.518,7.679 6.399 C 6.952 7.126,6.419 8.103,6.064 9.360 L 6.002 9.580 6.168 9.380 C 7.277 8.043,8.515 7.500,9.899 7.741 C 10.770 7.893,11.215 8.180,12.440 9.380 C 12.935 9.864,13.475 10.371,13.640 10.505 C 14.904 11.531,16.273 12.000,18.006 12.000 C 19.863 12.000,21.375 11.423,22.415 10.318 C 23.071 9.621,23.609 8.615,23.913 7.520 L 23.997 7.220 23.829 7.420 C 23.160 8.216,22.523 8.694,21.805 8.938 C 20.984 9.217,19.981 9.156,19.222 8.779 C 18.775 8.558,18.444 8.283,17.459 7.319 C 16.929 6.801,16.354 6.280,16.105 6.093 C 15.636 5.741,15.008 5.395,14.497 5.206 C 13.536 4.852,12.168 4.717,11.000 4.860 M5.000 12.060 C 3.610 12.231,2.561 12.718,1.679 13.599 C 0.952 14.326,0.419 15.303,0.064 16.560 L 0.002 16.780 0.168 16.580 C 1.277 15.243,2.515 14.700,3.899 14.941 C 4.770 15.093,5.215 15.380,6.440 16.580 C 6.935 17.064,7.475 17.571,7.640 17.705 C 8.904 18.731,10.273 19.200,12.006 19.200 C 13.863 19.200,15.375 18.623,16.415 17.518 C 17.071 16.821,17.609 15.815,17.913 14.720 L 17.997 14.420 17.829 14.620 C 17.160 15.416,16.523 15.894,15.805 16.138 C 14.984 16.417,13.981 16.356,13.222 15.979 C 12.775 15.758,12.444 15.483,11.459 14.519 C 10.929 14.001,10.354 13.480,10.105 13.293 C 9.636 12.941,9.008 12.595,8.497 12.406 C 7.536 12.052,6.168 11.917,5.000 12.060 " stroke="none" fill="black" fill-rule="evenodd"></path></svg>