<svg role="img" viewBox="0 0 24 24" xmlns="http://www.w3.org/2000/svg"><path d="M10.500 4.042 C 7.775 4.312,5.586 4.998,3.728 6.163 C 2.513 6.926,1.423 8.005,0.842 9.020 C 0.747 9.187,0.677 9.331,0.687 9.340 C 0.697 9.350,0.849 9.323,1.025 9.281 C 2.181 9.005,4.208 8.625,5.500 8.442 C 7.868 8.107,10.531 7.913,10.924 8.046 C 11.117 8.111,11.272 8.228,11.339 8.358 C 11.484 8.639,11.488 8.882,11.442 14.240 C 11.418 17.111,11.393 19.582,11.387 19.730 L 11.377 20.000 12.005 20.000 L 12.633 20.000 12.617 19.470 C 12.608 19.178,12.580 16.726,12.556 14.020 C 12.511 8.979,12.517 8.636,12.659 8.362 C 12.790 8.110,13.068 8.000,13.576 8.000 C 15.722 8.001,20.032 8.584,22.899 9.261 C 23.119 9.313,23.305 9.348,23.314 9.340 C 23.322 9.331,23.266 9.211,23.188 9.072 C 22.647 8.104,21.596 7.028,20.480 6.297 C 18.708 5.136,16.580 4.409,14.040 4.096 C 13.416 4.020,11.089 3.984,10.500 4.042 M7.260 9.703 C 5.431 9.819,3.954 9.980,2.540 10.220 C 1.686 10.365,0.203 10.664,0.168 10.698 C 0.122 10.745,0.040 11.289,0.016 11.720 C -0.059 13.019,0.340 14.306,1.199 15.531 C 1.523 15.994,2.450 16.928,2.968 17.314 C 4.039 18.111,5.276 18.738,6.680 19.196 C 7.417 19.436,8.094 19.600,8.126 19.545 C 8.178 19.453,8.682 17.240,8.996 15.720 C 9.321 14.150,9.702 12.086,9.797 11.387 C 9.858 10.939,9.850 10.480,9.778 10.276 C 9.659 9.936,9.361 9.749,8.830 9.680 C 8.474 9.634,8.321 9.636,7.260 9.703 M15.129 9.680 C 14.799 9.726,14.477 9.877,14.349 10.045 C 14.053 10.434,14.097 11.042,14.623 13.800 C 14.999 15.769,15.558 18.358,15.843 19.447 L 15.881 19.594 16.331 19.474 C 20.696 18.308,23.603 15.685,23.964 12.586 C 24.027 12.043,23.975 11.162,23.856 10.753 C 23.835 10.680,23.813 10.674,22.748 10.458 C 20.991 10.100,19.285 9.877,17.280 9.743 C 15.992 9.657,15.416 9.640,15.129 9.680 " stroke="none" fill="black" fill-rule="evenodd"></path></svg>