<svg role="img" viewBox="0 0 24 24" xmlns="http://www.w3.org/2000/svg"><path d="M14.820 0.035 L 14.340 0.060 14.353 0.340 C 14.424 1.861,13.295 3.231,11.762 3.484 C 10.602 3.676,9.438 3.172,8.764 2.187 C 8.604 1.953,8.420 1.554,8.357 1.305 C 8.331 1.203,8.298 1.120,8.282 1.120 C 8.197 1.120,7.200 1.436,6.445 1.703 C 4.332 2.449,2.886 3.124,0.900 4.291 C 0.141 4.737,0.034 4.808,0.055 4.856 C 0.757 6.501,2.616 10.789,2.637 10.812 C 2.654 10.829,2.782 10.777,2.924 10.697 C 3.810 10.194,5.735 9.240,5.776 9.284 C 5.784 9.293,6.251 11.205,6.813 13.534 C 7.375 15.863,7.841 17.775,7.849 17.783 C 7.858 17.791,8.124 17.667,8.442 17.507 C 10.094 16.677,11.718 16.235,13.340 16.173 C 15.407 16.096,16.576 16.602,16.467 17.527 C 16.418 17.934,16.018 18.447,15.513 18.751 C 14.571 19.317,13.627 19.649,12.396 19.846 C 11.484 19.992,10.187 19.967,9.988 19.799 C 9.936 19.755,10.218 19.565,10.613 19.378 C 11.397 19.007,12.389 18.803,13.540 18.776 L 14.220 18.760 14.700 18.523 C 15.196 18.278,15.411 18.102,15.596 17.792 L 15.685 17.643 15.543 17.584 C 15.310 17.486,14.669 17.362,14.148 17.313 C 13.744 17.275,13.522 17.279,12.860 17.334 C 11.933 17.411,11.495 17.494,10.685 17.745 C 9.210 18.203,8.484 18.872,8.473 19.783 C 8.467 20.325,8.756 20.757,9.301 21.021 C 10.028 21.373,11.022 21.426,12.557 21.195 C 13.271 21.087,13.943 20.915,14.600 20.671 C 15.140 20.470,16.051 20.039,16.099 19.961 C 16.113 19.939,16.144 19.920,16.168 19.920 C 16.237 19.920,16.171 20.275,16.061 20.501 C 15.954 20.720,15.526 21.169,15.240 21.363 C 14.505 21.860,13.034 22.320,11.530 22.522 C 11.097 22.580,11.136 22.475,11.206 23.388 L 11.252 23.995 11.596 23.973 C 12.027 23.946,12.994 23.762,13.650 23.582 C 15.524 23.068,16.844 22.196,17.346 21.140 C 17.682 20.433,17.742 19.557,17.498 18.920 L 17.429 18.740 17.560 18.520 C 17.732 18.231,17.825 17.952,17.883 17.556 C 18.072 16.262,17.242 15.183,15.719 14.746 C 14.498 14.395,12.372 14.453,10.674 14.882 C 10.319 14.972,9.277 15.327,8.971 15.462 C 8.856 15.513,8.753 15.540,8.742 15.523 C 8.731 15.505,8.269 13.666,7.716 11.435 C 7.163 9.205,6.698 7.366,6.682 7.348 C 6.640 7.303,5.041 7.976,4.084 8.443 C 3.635 8.662,3.263 8.836,3.257 8.830 C 3.224 8.797,1.712 5.435,1.725 5.423 C 1.733 5.415,2.127 5.197,2.600 4.938 C 4.063 4.136,4.894 3.762,6.500 3.180 L 7.460 2.832 7.528 2.926 C 7.566 2.978,7.677 3.131,7.775 3.267 C 8.001 3.576,8.579 4.083,8.992 4.333 C 9.946 4.909,11.035 5.084,12.160 4.841 C 13.294 4.596,14.250 3.942,14.868 2.989 C 15.183 2.503,15.318 2.217,15.445 1.764 L 15.540 1.429 16.840 1.453 C 18.542 1.484,19.838 1.606,21.420 1.884 C 22.189 2.019,22.334 2.063,22.310 2.156 C 22.301 2.191,22.133 3.017,21.937 3.991 L 21.580 5.762 21.480 5.741 C 20.968 5.637,18.616 5.441,17.870 5.440 L 17.480 5.440 17.480 5.650 C 17.480 5.765,17.408 7.561,17.320 9.640 C 17.232 11.719,17.161 13.474,17.161 13.540 C 17.162 13.646,17.190 13.674,17.391 13.775 C 17.734 13.948,18.035 14.156,18.270 14.382 C 18.386 14.493,18.480 14.575,18.480 14.562 C 18.480 14.550,18.561 12.857,18.660 10.800 C 18.759 8.743,18.840 6.993,18.840 6.911 L 18.840 6.761 19.070 6.781 C 20.353 6.891,21.406 7.015,22.351 7.165 C 22.511 7.191,22.653 7.200,22.667 7.186 C 22.701 7.153,23.966 0.993,23.944 0.971 C 23.905 0.932,22.949 0.675,22.495 0.581 C 21.426 0.361,20.056 0.176,18.780 0.080 C 18.113 0.029,15.500 -0.000,14.820 0.035 " stroke="none" fill="black" fill-rule="evenodd"></path></svg>