<svg role="img" viewBox="0 0 24 24" xmlns="http://www.w3.org/2000/svg"><path d="M12.020 2.164 C 10.775 2.255,9.427 2.650,8.504 3.193 C 7.290 3.908,6.415 4.870,5.803 6.166 C 5.472 6.867,5.372 7.474,5.333 9.005 L 5.308 9.991 4.938 10.254 C 4.338 10.680,3.448 11.386,3.055 11.746 C 2.096 12.625,1.004 14.068,0.394 15.262 C 0.033 15.969,-0.017 16.135,0.017 16.513 C 0.101 17.441,0.368 18.238,0.893 19.130 C 1.479 20.125,2.189 20.845,3.305 21.575 C 3.732 21.854,3.813 21.882,3.874 21.773 C 3.904 21.719,3.852 21.638,3.630 21.383 C 3.109 20.785,2.659 20.003,2.517 19.449 C 2.426 19.091,2.415 18.478,2.494 18.180 C 2.602 17.779,2.826 17.422,3.206 17.050 C 4.014 16.259,5.278 15.689,7.350 15.181 C 7.851 15.058,8.368 14.930,8.501 14.897 C 9.072 14.753,9.649 14.455,10.316 13.961 L 10.627 13.730 10.608 14.320 C 10.529 16.782,11.529 19.013,13.657 21.120 L 14.081 21.539 19.030 16.583 C 21.753 13.857,23.863 11.717,23.720 11.826 C 21.000 13.909,19.517 14.912,18.260 15.519 C 16.926 16.164,16.195 16.208,15.921 15.659 C 15.841 15.498,15.819 15.385,15.806 15.062 C 15.787 14.590,15.836 14.286,16.048 13.560 C 16.263 12.823,16.544 12.086,16.944 11.210 C 17.541 9.903,17.908 8.896,18.086 8.078 C 18.164 7.718,18.177 7.540,18.178 6.800 C 18.180 5.987,18.174 5.919,18.073 5.560 C 17.616 3.934,16.719 3.000,15.120 2.488 C 14.616 2.327,14.006 2.212,13.380 2.162 C 12.817 2.116,12.669 2.116,12.020 2.164 M9.317 7.681 C 9.116 8.220,8.900 8.809,8.838 8.990 L 8.725 9.321 9.002 9.643 C 9.320 10.012,9.325 10.034,9.185 10.488 C 8.955 11.233,8.545 11.584,7.791 11.679 C 7.202 11.752,6.438 11.526,5.849 11.103 C 5.643 10.955,5.641 10.951,5.710 10.864 C 5.749 10.816,6.653 9.826,7.720 8.664 C 9.096 7.166,9.663 6.574,9.672 6.627 C 9.678 6.669,9.519 7.143,9.317 7.681 " stroke="none" fill="black" fill-rule="evenodd"></path></svg>