<svg role="img" viewBox="0 0 24 24" xmlns="http://www.w3.org/2000/svg"><path d="M9.740 0.259 C 9.151 0.388,8.575 0.639,8.008 1.012 C 7.634 1.259,6.880 1.890,6.880 1.957 C 6.880 1.975,6.551 2.152,6.150 2.350 C 3.424 3.695,1.459 5.905,0.540 8.660 C -0.113 10.620,-0.171 12.886,0.380 14.899 C 1.142 17.676,3.010 20.001,5.415 21.164 C 5.692 21.298,5.993 21.417,6.083 21.429 L 6.246 21.451 5.986 20.932 C 5.554 20.069,5.165 19.073,5.022 18.461 L 4.994 18.342 5.087 18.421 C 5.138 18.464,5.278 18.588,5.399 18.695 C 6.049 19.274,6.914 19.722,7.573 19.821 C 7.686 19.838,7.760 19.834,7.760 19.811 C 7.760 19.789,7.562 19.488,7.320 19.140 C 7.078 18.792,6.880 18.503,6.880 18.497 C 6.880 18.489,15.129 21.230,15.317 21.301 C 15.388 21.328,15.196 21.533,14.720 21.936 C 14.082 22.477,13.336 22.970,12.591 23.344 C 12.394 23.444,12.238 23.531,12.246 23.538 C 12.273 23.563,13.023 23.438,13.440 23.338 C 14.690 23.041,15.717 22.570,16.463 21.951 C 16.797 21.675,16.836 21.652,16.776 21.768 C 16.444 22.415,15.783 23.054,14.890 23.591 C 14.490 23.831,14.496 23.832,15.341 23.618 C 16.899 23.225,18.533 22.423,19.780 21.439 C 20.989 20.485,22.217 18.896,23.000 17.269 C 24.035 15.120,24.255 12.848,23.695 10.080 C 23.493 9.081,23.010 7.859,22.428 6.873 C 21.902 5.981,21.013 4.853,20.274 4.141 C 19.297 3.199,17.474 2.133,16.222 1.772 C 16.023 1.715,15.572 1.572,15.220 1.455 C 14.505 1.216,13.897 1.071,13.300 0.995 C 12.824 0.934,10.974 0.929,10.610 0.987 C 10.473 1.009,10.360 1.014,10.360 0.999 C 10.360 0.966,10.518 0.756,10.579 0.707 C 10.601 0.688,10.539 0.684,10.440 0.697 C 10.337 0.710,10.046 0.827,9.760 0.970 C 9.485 1.107,9.244 1.227,9.225 1.235 C 9.205 1.243,9.223 1.193,9.265 1.122 C 9.380 0.927,9.751 0.569,10.040 0.375 L 10.299 0.200 10.140 0.203 C 10.052 0.205,9.872 0.230,9.740 0.259 M4.562 7.010 C 4.633 7.347,4.657 7.582,4.655 7.945 C 4.654 8.392,4.645 8.446,4.546 8.636 C 4.295 9.116,4.259 9.737,4.459 10.136 C 4.657 10.533,4.642 10.530,4.950 10.235 C 5.370 9.831,5.615 9.667,6.240 9.368 C 6.559 9.216,7.117 8.911,7.480 8.691 C 8.870 7.847,9.062 7.780,10.080 7.787 L 10.780 7.792 12.248 8.094 C 13.804 8.414,14.732 8.570,15.472 8.637 C 15.721 8.660,15.941 8.688,15.961 8.700 C 16.100 8.786,16.522 10.584,16.534 11.138 L 16.540 11.456 15.500 11.848 C 12.710 12.900,9.637 13.981,8.424 14.337 L 7.947 14.476 7.793 14.308 C 7.583 14.079,6.970 13.233,6.172 12.070 C 5.806 11.536,5.426 10.986,5.329 10.847 L 5.152 10.594 5.066 10.672 C 5.019 10.715,4.957 10.757,4.928 10.766 C 4.816 10.800,7.672 14.834,7.860 14.906 C 7.892 14.918,8.309 14.789,8.789 14.620 C 10.701 13.944,16.472 11.960,16.525 11.960 C 16.554 11.960,16.559 12.097,16.541 12.390 C 16.479 13.412,16.326 14.255,16.105 14.803 C 16.049 14.942,16.010 15.064,16.020 15.073 C 16.070 15.123,16.847 14.615,17.250 14.269 L 17.533 14.025 17.506 14.375 C 17.419 15.501,16.889 16.827,16.173 17.710 C 16.097 17.803,16.053 17.880,16.076 17.880 C 16.137 17.880,16.946 17.585,17.216 17.464 C 17.346 17.406,17.460 17.367,17.470 17.376 C 17.500 17.407,17.395 17.843,17.253 18.278 C 16.977 19.121,16.492 20.006,15.908 20.730 C 15.675 21.020,15.612 21.077,15.543 21.055 C 14.641 20.776,1.847 16.499,1.815 16.466 C 1.754 16.404,1.581 15.726,1.483 15.160 C 1.342 14.349,1.291 13.550,1.312 12.492 L 1.320 12.085 1.522 12.299 C 1.740 12.529,2.121 12.752,2.477 12.856 C 2.597 12.891,2.708 12.920,2.724 12.920 C 2.740 12.920,2.694 12.772,2.621 12.590 C 2.273 11.726,2.143 11.093,2.147 10.280 C 2.149 9.750,2.164 9.605,2.250 9.280 C 2.305 9.070,2.404 8.781,2.470 8.636 C 2.604 8.341,2.863 7.919,2.910 7.922 C 2.926 7.923,3.156 8.245,3.420 8.638 C 3.687 9.036,3.911 9.333,3.925 9.307 C 3.939 9.281,3.962 9.179,3.976 9.079 C 4.002 8.900,3.998 8.892,3.561 8.253 L 3.120 7.607 3.448 7.302 C 3.737 7.034,4.371 6.560,4.441 6.560 C 4.455 6.560,4.510 6.763,4.562 7.010 " stroke="none" fill="black" fill-rule="evenodd"></path></svg>