<svg role="img" xmlns="http://www.w3.org/2000/svg" viewBox="0 0 24 24"><path d="M6.556 7.053 C 6.321 7.119,6.053 7.316,5.911 7.526 C 5.408 8.276,5.956 9.293,6.861 9.287 C 7.691 9.283,8.231 8.434,7.889 7.673 C 7.671 7.190,7.068 6.909,6.556 7.053 M14.230 8.918 L 14.220 10.356 14.032 10.239 C 13.797 10.093,13.449 9.951,13.093 9.855 C 12.708 9.751,11.692 9.751,11.320 9.854 C 9.870 10.258,8.848 11.473,8.681 12.990 C 8.519 14.459,9.301 15.890,10.628 16.555 C 11.633 17.058,13.019 17.028,13.970 16.481 L 14.240 16.326 14.240 16.583 L 14.240 16.840 15.180 16.840 L 16.120 16.840 16.120 12.160 L 16.120 7.480 15.180 7.480 L 14.241 7.480 14.230 8.918 M1.000 8.509 C 0.999 8.961,0.988 9.043,0.905 9.222 C 0.754 9.546,0.394 9.800,0.085 9.800 C 0.001 9.800,0.000 9.809,0.000 10.660 L 0.000 11.520 0.496 11.520 L 0.992 11.520 1.011 13.230 C 1.033 15.134,1.044 15.227,1.306 15.727 C 1.554 16.198,2.027 16.548,2.620 16.700 C 2.946 16.783,3.623 16.839,4.310 16.840 L 4.880 16.840 4.880 16.020 L 4.880 15.200 4.247 15.200 C 3.352 15.200,3.138 15.124,2.982 14.751 C 2.930 14.626,2.920 14.362,2.920 13.061 L 2.920 11.520 3.900 11.520 L 4.880 11.520 4.880 10.660 L 4.880 9.800 3.901 9.800 L 2.922 9.800 2.911 8.910 L 2.900 8.020 1.950 8.009 L 1.000 7.999 1.000 8.509 M19.940 9.708 C 19.604 9.754,19.114 9.898,18.811 10.040 C 18.029 10.406,17.486 10.950,17.119 11.733 C 16.853 12.300,16.782 12.645,16.784 13.360 C 16.786 13.896,16.800 14.032,16.889 14.363 C 17.236 15.657,18.109 16.520,19.420 16.865 C 19.768 16.956,19.901 16.970,20.440 16.971 C 21.124 16.973,21.465 16.918,22.013 16.718 C 22.599 16.504,23.190 16.066,23.583 15.556 L 23.759 15.328 23.102 14.923 C 22.740 14.701,22.419 14.509,22.387 14.497 C 22.352 14.484,22.244 14.565,22.108 14.708 C 21.668 15.168,21.185 15.367,20.500 15.368 C 19.684 15.370,19.119 15.042,18.799 14.380 C 18.735 14.248,18.671 14.091,18.657 14.030 L 18.631 13.920 21.294 13.920 L 23.956 13.920 23.984 13.773 C 24.031 13.523,23.969 12.605,23.882 12.247 C 23.837 12.064,23.739 11.783,23.665 11.622 C 23.086 10.369,21.893 9.660,20.407 9.686 C 20.216 9.689,20.006 9.699,19.940 9.708 M5.920 13.320 L 5.920 16.840 6.860 16.840 L 7.800 16.840 7.800 13.320 L 7.800 9.800 6.860 9.800 L 5.920 9.800 5.920 13.320 M20.893 11.300 C 21.391 11.430,21.719 11.690,21.940 12.130 C 22.017 12.284,22.080 12.435,22.080 12.465 C 22.080 12.511,21.793 12.520,20.400 12.520 C 18.505 12.520,18.643 12.549,18.824 12.192 C 18.959 11.926,19.268 11.601,19.514 11.467 C 19.917 11.248,20.446 11.184,20.893 11.300 M12.859 11.542 C 13.981 11.834,14.570 13.119,14.067 14.178 C 13.525 15.320,11.979 15.598,11.082 14.714 C 10.336 13.980,10.336 12.724,11.080 12.000 C 11.291 11.795,11.605 11.613,11.876 11.538 C 12.133 11.467,12.579 11.469,12.859 11.542 " stroke="none" fill="black" fill-rule="evenodd"></path></svg>