<svg role="img" viewBox="0 0 24 24" xmlns="http://www.w3.org/2000/svg"><path d="M10.640 7.507 C 8.939 7.681,7.401 8.397,6.018 9.658 C 5.677 9.968,5.064 10.637,5.093 10.666 C 5.101 10.674,5.331 10.708,5.604 10.741 C 6.558 10.856,9.260 11.428,9.324 11.529 C 9.338 11.550,9.597 11.468,9.914 11.343 C 11.128 10.861,12.366 10.466,13.620 10.159 C 14.347 9.981,15.595 9.729,16.100 9.658 C 16.435 9.611,16.436 9.595,16.124 9.337 C 15.338 8.691,14.301 8.104,13.480 7.842 C 12.582 7.555,11.463 7.423,10.640 7.507 M17.920 9.845 C 17.579 9.867,17.286 9.898,17.270 9.915 C 17.253 9.931,17.341 10.061,17.465 10.202 C 17.947 10.752,18.552 11.623,18.955 12.344 C 19.491 13.303,20.075 14.833,20.298 15.860 C 20.355 16.124,20.411 16.382,20.423 16.434 C 20.441 16.519,20.458 16.525,20.590 16.501 C 20.979 16.428,21.539 16.015,22.280 15.254 C 23.272 14.237,23.801 13.392,23.962 12.568 C 24.199 11.355,23.289 10.438,21.455 10.041 C 20.587 9.853,19.105 9.771,17.920 9.845 M16.460 9.988 C 15.138 10.168,13.377 10.573,11.873 11.043 C 11.215 11.249,9.906 11.720,9.929 11.742 C 9.936 11.750,10.257 11.857,10.641 11.982 C 13.579 12.935,16.464 14.216,19.180 15.773 C 19.488 15.949,19.815 16.136,19.907 16.189 L 20.074 16.283 20.017 16.039 C 19.512 13.878,18.508 11.899,17.131 10.355 C 16.764 9.943,16.769 9.946,16.460 9.988 M2.360 11.104 C 1.213 11.242,0.448 11.628,0.158 12.218 C -0.285 13.118,0.247 14.417,1.730 16.057 L 1.945 16.294 2.056 15.877 C 2.488 14.252,3.152 12.728,3.966 11.494 C 4.117 11.265,4.240 11.069,4.240 11.059 C 4.240 11.017,2.792 11.052,2.360 11.104 M4.570 11.330 C 4.017 12.089,3.441 13.155,3.029 14.180 C 2.764 14.840,2.373 16.066,2.414 16.107 C 2.427 16.120,2.676 15.899,2.969 15.615 C 3.609 14.994,3.886 14.753,4.446 14.329 C 5.454 13.567,6.369 13.009,7.713 12.336 C 8.248 12.068,8.671 11.840,8.653 11.829 C 8.598 11.795,7.220 11.492,6.620 11.382 C 6.173 11.299,4.895 11.120,4.754 11.120 C 4.736 11.120,4.654 11.215,4.570 11.330 " stroke="none" fill="black" fill-rule="evenodd"></path></svg>