<svg role="img" viewBox="0 0 24 24" xmlns="http://www.w3.org/2000/svg"><path d="M10.940 0.046 C 6.260 0.450,2.189 3.634,0.659 8.086 C -1.484 14.319,1.792 21.115,7.997 23.309 C 12.365 24.853,17.202 23.757,20.480 20.480 C 24.710 16.252,25.180 9.567,21.584 4.785 C 19.301 1.749,15.708 -0.028,11.920 0.006 C 11.601 0.009,11.160 0.027,10.940 0.046 M13.228 2.261 C 17.686 2.842,21.158 6.314,21.739 10.772 C 21.819 11.390,21.819 12.610,21.739 13.228 C 21.158 17.684,17.684 21.158,13.228 21.739 C 12.968 21.772,12.586 21.800,12.378 21.800 L 12.000 21.800 12.000 21.086 L 12.000 20.372 12.469 20.344 C 15.921 20.137,18.857 17.879,19.936 14.599 C 20.507 12.864,20.500 11.098,19.916 9.344 C 19.045 6.731,16.929 4.709,14.280 3.960 C 13.732 3.805,13.052 3.691,12.469 3.656 L 12.000 3.628 12.000 2.914 L 12.000 2.200 12.378 2.200 C 12.586 2.200,12.968 2.228,13.228 2.261 M13.220 5.939 C 15.365 6.387,17.111 7.910,17.833 9.965 C 18.084 10.679,18.140 11.050,18.140 12.000 C 18.140 12.754,18.129 12.911,18.047 13.275 C 17.772 14.504,17.233 15.491,16.362 16.362 C 15.290 17.434,13.903 18.070,12.470 18.147 L 12.000 18.172 12.000 17.452 L 12.000 16.732 12.370 16.708 C 14.706 16.553,16.609 14.582,16.709 12.216 C 16.745 11.345,16.604 10.675,16.219 9.900 C 15.653 8.759,14.697 7.926,13.488 7.521 C 13.086 7.386,12.525 7.280,12.215 7.280 L 12.000 7.280 12.000 6.554 L 12.000 5.829 12.450 5.850 C 12.697 5.862,13.044 5.902,13.220 5.939 M12.568 9.524 C 12.856 9.583,13.377 9.839,13.617 10.040 C 14.097 10.440,14.409 10.993,14.512 11.625 C 14.567 11.962,14.567 12.038,14.512 12.375 C 14.375 13.214,13.876 13.900,13.140 14.261 C 12.809 14.424,12.457 14.520,12.192 14.520 L 12.000 14.520 12.000 12.000 L 12.000 9.480 12.178 9.480 C 12.276 9.480,12.451 9.500,12.568 9.524 " stroke="none" fill="black" fill-rule="evenodd"></path></svg>