<svg role="img" xmlns="http://www.w3.org/2000/svg" viewBox="0 0 24 24"><path d="M4.616 10.198 C 4.100 10.258,3.800 10.446,3.633 10.815 C 3.544 11.012,3.540 11.060,3.540 12.000 C 3.540 12.940,3.544 12.988,3.633 13.185 C 3.814 13.586,4.095 13.744,4.745 13.810 C 5.599 13.896,6.338 13.741,6.580 13.424 C 6.773 13.170,6.809 12.992,6.830 12.200 C 6.851 11.372,6.811 10.999,6.670 10.722 C 6.556 10.500,6.282 10.304,5.999 10.244 C 5.720 10.184,4.958 10.159,4.616 10.198 M8.400 10.202 C 7.760 10.278,7.485 10.557,7.448 11.166 C 7.426 11.535,7.493 11.841,7.630 12.004 C 7.832 12.245,8.085 12.314,9.010 12.384 C 9.398 12.413,9.498 12.481,9.498 12.715 C 9.498 12.971,9.424 13.018,8.989 13.034 C 8.659 13.046,8.608 13.038,8.510 12.961 C 8.449 12.913,8.400 12.841,8.400 12.800 C 8.400 12.609,8.377 12.600,7.896 12.600 L 7.440 12.600 7.440 12.830 C 7.441 13.275,7.588 13.546,7.904 13.686 C 8.243 13.836,9.164 13.871,9.746 13.756 C 10.037 13.699,10.295 13.517,10.404 13.291 C 10.475 13.145,10.494 13.033,10.497 12.744 C 10.500 12.329,10.426 12.078,10.249 11.909 C 10.042 11.711,9.916 11.681,8.811 11.575 C 8.567 11.551,8.450 11.468,8.416 11.297 C 8.398 11.201,8.415 11.147,8.492 11.058 C 8.585 10.949,8.609 10.942,8.907 10.941 C 9.289 10.940,9.423 11.007,9.463 11.220 L 9.489 11.360 9.950 11.360 L 10.410 11.360 10.392 11.042 C 10.360 10.483,10.137 10.275,9.493 10.201 C 9.096 10.156,8.783 10.156,8.400 10.202 M0.000 10.680 L 0.000 11.120 0.520 11.120 L 1.040 11.120 1.040 12.440 L 1.040 13.760 1.580 13.760 L 2.120 13.760 2.120 12.440 L 2.120 11.120 2.640 11.120 L 3.160 11.120 3.160 10.680 L 3.160 10.240 1.580 10.240 L 0.000 10.240 0.000 10.680 M11.160 12.000 L 11.160 13.760 11.660 13.760 L 12.160 13.760 12.160 13.080 L 12.160 12.400 12.740 12.400 L 13.320 12.400 13.320 13.080 L 13.320 13.760 13.820 13.760 L 14.320 13.760 14.320 12.000 L 14.320 10.240 13.820 10.240 L 13.320 10.240 13.320 10.880 L 13.320 11.520 12.740 11.520 L 12.160 11.520 12.160 10.880 L 12.160 10.240 11.660 10.240 L 11.160 10.240 11.160 12.000 M15.200 12.000 L 15.200 13.760 15.700 13.760 L 16.200 13.760 16.200 12.000 L 16.200 10.240 15.700 10.240 L 15.200 10.240 15.200 12.000 M17.080 11.997 L 17.080 13.760 18.158 13.760 C 18.774 13.760,19.322 13.742,19.436 13.717 C 19.700 13.661,19.947 13.477,20.042 13.268 C 20.140 13.051,20.146 12.588,20.054 12.357 C 19.989 12.195,19.729 11.960,19.614 11.960 C 19.584 11.960,19.560 11.942,19.560 11.920 C 19.560 11.898,19.586 11.880,19.617 11.880 C 19.701 11.880,19.914 11.688,19.987 11.546 C 20.064 11.398,20.074 10.963,20.005 10.755 C 19.948 10.582,19.793 10.428,19.580 10.332 C 19.440 10.269,19.273 10.259,18.250 10.247 L 17.080 10.235 17.080 11.997 M20.941 11.949 C 20.657 12.890,20.418 13.683,20.408 13.710 C 20.395 13.748,20.513 13.760,20.910 13.760 L 21.429 13.760 21.520 13.440 L 21.611 13.120 22.206 13.120 C 22.625 13.120,22.800 13.133,22.800 13.166 C 22.800 13.191,22.837 13.335,22.882 13.486 L 22.963 13.760 23.482 13.760 C 23.767 13.760,23.999 13.755,23.998 13.750 C 23.998 13.745,23.759 12.957,23.467 12.000 L 22.937 10.260 22.197 10.249 L 21.456 10.238 20.941 11.949 M5.662 11.124 C 5.800 11.262,5.838 11.450,5.838 12.000 C 5.838 12.549,5.800 12.738,5.663 12.876 C 5.574 12.964,5.517 12.981,5.263 12.993 C 4.910 13.011,4.713 12.955,4.613 12.808 C 4.549 12.714,4.540 12.613,4.540 12.016 C 4.540 11.066,4.592 10.989,5.229 11.010 C 5.523 11.019,5.569 11.031,5.662 11.124 M18.925 11.082 C 19.084 11.168,19.098 11.473,18.947 11.569 C 18.921 11.585,18.715 11.599,18.490 11.599 L 18.080 11.600 18.080 11.320 L 18.080 11.040 18.463 11.040 C 18.673 11.040,18.881 11.059,18.925 11.082 M22.391 11.770 L 22.551 12.320 22.191 12.320 C 21.920 12.320,21.836 12.308,21.850 12.270 C 21.861 12.242,21.938 11.981,22.022 11.690 C 22.106 11.398,22.188 11.173,22.203 11.190 C 22.218 11.206,22.303 11.467,22.391 11.770 M19.023 12.403 C 19.121 12.511,19.123 12.774,19.028 12.869 C 18.971 12.926,18.872 12.943,18.519 12.954 L 18.080 12.967 18.080 12.644 L 18.080 12.320 18.514 12.320 C 18.902 12.320,18.955 12.329,19.023 12.403 " stroke="none" fill="black" fill-rule="evenodd"></path></svg>