<svg role="img" viewBox="0 0 24 24" xmlns="http://www.w3.org/2000/svg"><path d="M10.940 0.046 C 9.377 0.181,7.652 0.701,6.300 1.446 C 2.829 3.356,0.557 6.712,0.073 10.640 C 0.006 11.184,0.006 12.816,0.073 13.360 C 0.664 18.159,3.971 22.107,8.562 23.494 C 11.588 24.409,14.976 24.055,17.727 22.539 C 21.171 20.640,23.445 17.274,23.927 13.360 C 23.994 12.816,23.994 11.184,23.927 10.640 C 23.569 7.732,22.255 5.165,20.100 3.163 C 17.666 0.902,14.297 -0.245,10.940 0.046 M13.392 1.302 C 15.341 1.556,17.242 2.373,18.800 3.626 C 19.585 4.258,20.428 5.196,21.024 6.100 C 23.830 10.362,23.235 16.029,19.603 19.640 C 17.905 21.328,15.763 22.379,13.360 22.705 C 12.753 22.787,11.367 22.798,10.780 22.725 C 8.320 22.419,6.115 21.351,4.383 19.626 C 1.915 17.169,0.778 13.625,1.361 10.212 C 2.196 5.330,6.212 1.655,11.164 1.240 C 11.707 1.195,12.802 1.225,13.392 1.302 M10.740 2.423 C 9.069 2.650,7.509 3.294,6.132 4.326 C 5.625 4.706,4.698 5.632,4.325 6.132 C 2.899 8.041,2.223 10.251,2.361 12.558 C 2.447 13.986,2.778 15.194,3.426 16.440 C 3.679 16.928,4.158 17.690,4.246 17.743 C 4.271 17.759,5.353 16.707,6.795 15.265 C 8.173 13.887,9.318 12.760,9.339 12.760 C 9.360 12.760,11.079 14.461,13.160 16.540 L 16.942 20.321 17.150 20.190 L 17.359 20.058 13.369 16.069 C 11.175 13.875,9.362 12.080,9.340 12.080 C 9.318 12.080,8.216 13.164,6.891 14.489 L 4.481 16.899 4.140 16.560 L 3.799 16.221 6.550 13.470 C 8.062 11.958,9.316 10.720,9.335 10.720 C 9.354 10.720,11.348 12.684,13.765 15.085 L 18.160 19.450 18.344 19.299 L 18.528 19.148 13.974 14.594 C 11.469 12.089,9.395 10.040,9.365 10.040 C 9.335 10.040,8.167 11.176,6.769 12.564 L 4.229 15.089 3.885 14.741 L 3.540 14.394 9.320 8.639 C 13.035 4.941,15.086 2.872,15.060 2.848 C 14.957 2.752,13.930 2.514,13.218 2.421 C 12.645 2.345,11.300 2.346,10.740 2.423 M13.057 6.278 L 10.014 9.314 14.585 13.885 L 19.157 18.457 19.263 18.358 C 19.422 18.210,19.997 17.428,20.250 17.016 C 20.794 16.128,21.210 15.093,21.437 14.057 C 21.717 12.785,21.717 11.222,21.438 9.940 C 20.908 7.503,19.447 5.362,17.360 3.964 C 16.976 3.707,16.168 3.238,16.115 3.241 C 16.107 3.241,14.731 4.608,13.057 6.278 M14.140 7.240 L 11.380 10.000 11.040 9.660 L 10.700 9.320 13.460 6.560 L 16.220 3.800 16.560 4.140 L 16.900 4.480 14.140 7.240 M14.750 8.670 L 12.361 11.059 12.020 10.720 L 11.679 10.381 14.069 7.991 L 16.460 5.600 16.800 5.940 L 17.140 6.280 14.750 8.670 M7.110 16.310 C 5.905 17.515,4.920 18.521,4.920 18.546 C 4.920 18.608,5.538 19.188,5.979 19.540 C 7.784 20.980,9.990 21.706,12.320 21.627 C 13.292 21.593,14.129 21.451,14.980 21.174 C 15.294 21.072,15.962 20.810,15.998 20.775 C 16.024 20.750,9.390 14.120,9.340 14.120 C 9.318 14.120,8.314 15.106,7.110 16.310 " stroke="none" fill="black" fill-rule="evenodd"></path></svg>