<svg role="img" viewBox="0 0 24 24" xmlns="http://www.w3.org/2000/svg"><path d="M1.651 0.061 C 1.073 0.186,0.597 0.569,0.323 1.128 C 0.023 1.742,0.040 1.407,0.040 6.567 L 0.040 11.198 2.637 11.209 L 5.233 11.220 5.404 11.340 C 5.497 11.406,5.616 11.539,5.667 11.636 L 5.760 11.813 5.760 16.010 C 5.760 18.514,5.775 20.201,5.796 20.193 C 5.816 20.186,6.599 19.874,7.536 19.500 L 9.239 18.820 9.240 13.731 L 9.240 8.642 6.744 8.631 L 4.247 8.620 4.094 8.496 C 4.009 8.427,3.904 8.310,3.860 8.236 C 3.783 8.105,3.780 8.016,3.768 5.800 C 3.759 4.209,3.769 3.454,3.800 3.349 C 3.851 3.172,4.041 2.944,4.216 2.848 C 4.331 2.785,4.873 2.779,11.860 2.768 C 17.443 2.759,19.435 2.767,19.595 2.802 C 19.866 2.860,20.138 3.110,20.188 3.346 C 20.205 3.431,20.220 4.526,20.220 5.780 C 20.220 8.008,20.218 8.064,20.137 8.218 C 20.092 8.305,19.986 8.431,19.904 8.498 L 19.753 8.620 17.266 8.640 L 14.780 8.660 14.780 13.738 L 14.780 18.816 16.500 19.504 L 18.220 20.192 18.240 15.986 C 18.262 11.353,18.243 11.683,18.506 11.432 C 18.757 11.194,18.686 11.200,21.440 11.200 L 23.962 11.200 23.951 6.490 L 23.940 1.780 23.830 1.457 C 23.696 1.061,23.478 0.716,23.217 0.486 C 22.966 0.264,22.788 0.174,22.410 0.078 C 22.114 0.002,21.875 0.000,12.004 0.003 C 3.661 0.006,1.857 0.016,1.651 0.061 M5.280 5.720 L 5.280 7.080 7.650 7.080 C 9.239 7.080,10.073 7.095,10.180 7.124 C 10.396 7.183,10.584 7.332,10.680 7.521 C 10.759 7.674,10.760 7.765,10.760 13.622 C 10.760 20.152,10.777 19.694,10.522 19.938 C 10.353 20.100,5.342 22.080,5.100 22.080 C 4.777 22.080,4.536 21.923,4.396 21.620 C 4.325 21.467,4.322 21.259,4.321 17.130 L 4.320 12.800 2.179 12.800 L 0.038 12.800 0.049 17.530 L 0.060 22.260 0.182 22.602 C 0.463 23.384,0.968 23.843,1.680 23.960 C 1.861 23.990,5.049 23.999,12.160 23.991 L 22.380 23.980 22.604 23.894 C 23.228 23.655,23.639 23.175,23.865 22.420 C 23.932 22.196,23.938 21.868,23.950 17.497 L 23.962 12.813 21.858 12.786 C 20.700 12.771,19.737 12.770,19.717 12.782 C 19.695 12.796,19.680 14.556,19.680 17.150 L 19.680 21.495 19.594 21.672 C 19.537 21.790,19.447 21.888,19.326 21.965 C 18.985 22.181,19.028 22.193,16.301 21.114 C 14.959 20.583,13.775 20.106,13.670 20.054 C 13.551 19.994,13.439 19.897,13.370 19.792 L 13.260 19.626 13.260 13.620 L 13.260 7.614 13.370 7.448 C 13.431 7.356,13.557 7.241,13.650 7.191 L 13.820 7.100 16.290 7.089 L 18.760 7.078 18.760 5.719 L 18.760 4.360 12.020 4.360 L 5.280 4.360 5.280 5.720 " stroke="none" fill="black" fill-rule="evenodd"></path></svg>