<svg role="img" xmlns="http://www.w3.org/2000/svg" viewBox="0 0 24 24"><path d="M3.850 2.130 L 1.720 4.260 1.720 11.990 L 1.720 19.720 4.280 19.720 L 6.840 19.720 6.840 21.840 C 6.840 23.006,6.854 23.960,6.870 23.960 C 6.887 23.960,7.854 23.006,9.020 21.840 L 11.140 19.720 12.860 19.720 L 14.580 19.720 18.430 15.870 L 22.280 12.020 22.280 6.010 L 22.280 0.000 14.130 0.000 L 5.980 0.000 3.850 2.130 M20.560 6.430 L 20.560 11.140 18.850 12.850 L 17.140 14.560 15.440 14.560 L 13.740 14.560 12.230 16.070 L 10.720 17.580 10.720 16.070 L 10.720 14.560 8.780 14.560 L 6.840 14.560 6.840 8.140 L 6.840 1.720 13.700 1.720 L 20.560 1.720 20.560 6.430 M11.560 7.280 L 11.560 9.840 12.420 9.840 L 13.280 9.840 13.280 7.280 L 13.280 4.720 12.420 4.720 L 11.560 4.720 11.560 7.280 M16.280 7.280 L 16.280 9.840 17.140 9.840 L 18.000 9.840 18.000 7.280 L 18.000 4.720 17.140 4.720 L 16.280 4.720 16.280 7.280 " stroke="none" fill="black" fill-rule="evenodd"></path></svg>