<svg role="img" viewBox="0 0 24 24" xmlns="http://www.w3.org/2000/svg"><path d="M10.940 0.046 C 7.336 0.357,4.022 2.335,1.991 5.386 C -0.663 9.373,-0.657 14.637,2.007 18.635 C 4.789 22.812,9.885 24.830,14.745 23.679 C 20.892 22.224,24.862 16.267,23.836 10.040 C 23.427 7.566,22.251 5.289,20.455 3.497 C 17.955 1.002,14.475 -0.260,10.940 0.046 M16.637 3.435 C 17.055 3.594,17.349 3.874,17.550 4.307 C 17.644 4.509,17.658 4.590,17.658 4.920 C 17.658 5.222,17.639 5.347,17.565 5.531 C 17.437 5.855,17.105 6.203,16.767 6.369 C 16.518 6.492,16.475 6.500,16.080 6.500 C 15.685 6.500,15.642 6.492,15.393 6.369 C 15.055 6.203,14.723 5.855,14.595 5.531 C 14.522 5.348,14.502 5.221,14.502 4.920 C 14.501 4.574,14.512 4.515,14.629 4.269 C 14.843 3.815,15.286 3.461,15.762 3.361 C 15.999 3.312,16.402 3.346,16.637 3.435 M12.720 5.079 C 13.123 5.125,13.713 5.237,13.805 5.284 C 13.841 5.303,13.883 5.386,13.898 5.469 C 13.913 5.552,13.990 5.755,14.069 5.920 C 14.331 6.469,14.875 6.920,15.493 7.100 C 15.787 7.185,16.389 7.186,16.660 7.101 L 16.860 7.038 17.151 7.343 C 17.860 8.087,18.432 9.134,18.721 10.220 C 18.841 10.670,18.967 11.479,18.924 11.526 C 18.911 11.541,18.397 11.559,17.782 11.566 L 16.664 11.580 16.613 11.257 C 16.365 9.658,15.278 8.291,13.759 7.668 C 13.135 7.412,12.751 7.343,11.980 7.346 C 11.384 7.348,11.253 7.361,10.915 7.451 C 10.703 7.507,10.420 7.597,10.286 7.652 C 10.110 7.722,10.032 7.737,10.006 7.705 C 9.987 7.680,9.777 7.309,9.540 6.880 C 9.303 6.451,9.064 6.023,9.010 5.929 L 8.912 5.759 9.166 5.644 C 9.802 5.356,10.540 5.163,11.380 5.066 C 11.645 5.035,12.400 5.043,12.720 5.079 M8.718 7.176 C 9.027 7.691,9.280 8.129,9.280 8.148 C 9.280 8.168,9.153 8.289,8.997 8.417 C 7.562 9.598,6.976 11.605,7.542 13.400 C 7.811 14.251,8.430 15.141,9.090 15.627 C 9.194 15.704,9.280 15.784,9.280 15.805 C 9.280 15.834,8.192 17.692,8.142 17.750 C 8.137 17.756,7.973 17.640,7.778 17.493 C 6.995 16.902,6.280 16.049,5.824 15.160 C 5.587 14.699,5.280 13.915,5.280 13.771 C 5.280 13.738,5.375 13.609,5.490 13.484 C 6.281 12.629,6.280 11.330,5.487 10.473 C 5.239 10.205,5.239 10.222,5.469 9.600 C 5.822 8.647,6.376 7.783,7.090 7.075 C 7.425 6.742,8.044 6.240,8.120 6.240 C 8.140 6.240,8.408 6.661,8.718 7.176 M4.192 10.442 C 4.670 10.552,5.043 10.853,5.269 11.311 C 5.412 11.600,5.420 11.636,5.420 12.000 C 5.420 12.363,5.412 12.401,5.271 12.686 C 4.775 13.689,3.503 13.906,2.718 13.122 C 2.084 12.488,2.084 11.512,2.718 10.878 C 3.119 10.478,3.657 10.318,4.192 10.442 M18.924 12.474 C 18.967 12.521,18.841 13.331,18.720 13.784 C 18.575 14.328,18.349 14.891,18.077 15.382 C 17.839 15.811,17.334 16.495,17.053 16.769 L 16.859 16.958 16.660 16.896 C 16.381 16.808,15.801 16.809,15.500 16.897 C 14.730 17.122,14.120 17.724,13.918 18.459 C 13.854 18.691,13.846 18.700,13.676 18.750 C 13.191 18.890,12.773 18.936,11.980 18.935 C 11.266 18.935,11.125 18.923,10.670 18.827 C 10.106 18.708,9.604 18.551,9.186 18.363 L 8.912 18.240 9.010 18.070 C 9.064 17.976,9.303 17.549,9.540 17.120 C 9.777 16.691,9.987 16.320,10.006 16.295 C 10.032 16.263,10.110 16.278,10.286 16.348 C 10.420 16.403,10.703 16.493,10.915 16.549 C 11.253 16.639,11.384 16.652,11.980 16.654 C 12.751 16.657,13.135 16.588,13.759 16.332 C 15.258 15.717,16.369 14.333,16.604 12.788 C 16.628 12.630,16.653 12.481,16.660 12.457 C 16.673 12.410,18.880 12.427,18.924 12.474 M16.770 17.632 C 17.105 17.797,17.437 18.146,17.565 18.469 C 17.638 18.652,17.658 18.779,17.658 19.080 C 17.659 19.426,17.648 19.485,17.531 19.731 C 17.224 20.382,16.512 20.765,15.831 20.645 C 15.300 20.551,14.858 20.215,14.629 19.731 C 14.512 19.485,14.501 19.426,14.502 19.080 C 14.503 18.601,14.600 18.334,14.888 18.019 C 15.257 17.615,15.591 17.475,16.144 17.492 C 16.461 17.502,16.542 17.520,16.770 17.632 " stroke="none" fill="black" fill-rule="evenodd"></path></svg>