<svg role="img" viewBox="0 0 24 24" xmlns="http://www.w3.org/2000/svg"><path d="M10.960 0.044 C 7.331 0.360,4.009 2.340,1.989 5.391 L 1.664 5.882 1.197 5.417 C 0.765 4.986,0.717 4.950,0.555 4.934 C 0.343 4.913,0.214 4.975,0.091 5.156 L -0.000 5.292 0.000 8.896 C 0.001 10.988,0.018 12.701,0.041 12.980 C 0.474 18.093,4.067 22.351,9.020 23.620 C 13.138 24.675,17.471 23.488,20.480 20.480 C 22.498 18.462,23.717 15.835,23.959 12.980 C 23.982 12.701,23.999 10.988,24.000 8.896 L 24.000 5.292 23.909 5.156 C 23.786 4.975,23.657 4.913,23.445 4.934 C 23.283 4.950,23.235 4.986,22.802 5.418 L 22.333 5.885 21.951 5.313 C 19.534 1.696,15.301 -0.334,10.960 0.044 M8.000 7.753 C 9.447 8.092,10.637 8.909,11.421 10.100 C 11.537 10.276,11.664 10.487,11.703 10.569 L 11.774 10.717 11.605 10.957 C 11.024 11.786,10.954 12.907,11.426 13.806 C 11.613 14.163,11.873 14.457,11.968 14.419 C 12.089 14.372,12.439 13.910,12.603 13.580 C 13.012 12.755,12.949 11.789,12.436 11.022 C 12.298 10.816,12.242 10.696,12.259 10.644 C 12.307 10.492,12.726 9.864,12.979 9.565 C 13.738 8.666,14.791 8.035,16.000 7.753 C 16.505 7.636,17.506 7.609,18.046 7.699 C 19.227 7.895,20.196 8.396,21.066 9.258 C 22.143 10.327,22.692 11.644,22.690 13.160 C 22.689 14.649,22.135 15.986,21.081 17.043 C 20.286 17.840,19.417 18.313,18.275 18.566 C 17.729 18.688,16.687 18.698,16.160 18.587 C 15.071 18.357,14.145 17.883,13.397 17.171 C 12.966 16.761,12.722 16.460,12.431 15.980 C 12.080 15.403,11.920 15.393,11.602 15.924 C 10.889 17.113,9.822 17.980,8.560 18.395 C 8.018 18.574,7.656 18.638,7.040 18.666 C 5.479 18.736,3.940 18.121,2.857 16.995 C 1.256 15.331,0.851 12.909,1.821 10.811 C 2.320 9.729,3.360 8.684,4.453 8.164 C 4.843 7.978,5.458 7.781,5.900 7.701 C 6.364 7.616,7.542 7.645,8.000 7.753 M6.160 8.901 C 6.160 8.935,6.054 9.076,5.923 9.216 C 5.609 9.554,5.544 9.685,5.542 9.980 C 5.537 10.759,6.458 11.129,7.015 10.571 C 7.215 10.372,7.297 10.093,7.238 9.812 C 7.203 9.642,7.148 9.552,6.933 9.312 C 6.788 9.152,6.651 8.979,6.629 8.930 C 6.593 8.853,6.556 8.840,6.374 8.840 C 6.209 8.840,6.160 8.854,6.160 8.901 M17.345 8.934 C 17.332 8.986,17.205 9.158,17.064 9.316 C 16.863 9.539,16.797 9.646,16.765 9.793 C 16.613 10.503,17.318 11.056,17.980 10.745 C 18.219 10.633,18.289 10.559,18.403 10.302 C 18.560 9.948,18.469 9.632,18.100 9.241 C 17.985 9.120,17.870 8.979,17.844 8.930 C 17.804 8.854,17.765 8.840,17.583 8.840 C 17.391 8.840,17.366 8.850,17.345 8.934 M5.340 9.015 C 4.409 9.318,3.673 9.955,3.254 10.820 C 2.990 11.366,2.911 11.718,2.911 12.340 C 2.911 12.953,2.990 13.309,3.243 13.840 C 3.704 14.807,4.526 15.470,5.600 15.743 C 6.030 15.852,6.821 15.844,7.260 15.725 C 8.558 15.375,9.548 14.338,9.823 13.041 C 9.896 12.697,9.895 11.996,9.821 11.643 C 9.671 10.931,9.328 10.325,8.788 9.816 C 8.414 9.463,8.086 9.254,7.640 9.084 C 7.163 8.903,7.071 8.903,7.440 9.084 C 8.068 9.392,8.562 10.005,8.724 10.680 C 8.797 10.980,8.787 11.526,8.703 11.837 C 8.476 12.685,7.758 13.379,6.928 13.555 C 6.624 13.619,6.072 13.610,5.786 13.537 C 4.579 13.225,3.799 11.973,4.055 10.760 C 4.226 9.952,4.822 9.264,5.599 8.978 C 5.838 8.889,5.636 8.918,5.340 9.015 M16.527 9.022 C 15.924 9.227,15.502 9.500,15.052 9.973 C 14.700 10.343,14.452 10.758,14.275 11.271 C 14.144 11.653,14.142 11.672,14.142 12.340 C 14.143 12.977,14.150 13.042,14.256 13.360 C 14.568 14.305,15.168 15.013,16.020 15.441 C 16.588 15.726,16.939 15.811,17.580 15.815 C 18.149 15.820,18.477 15.759,18.965 15.558 C 20.370 14.979,21.258 13.469,21.078 11.963 C 21.023 11.505,20.920 11.158,20.720 10.760 C 20.304 9.932,19.529 9.282,18.626 9.004 C 18.265 8.893,18.203 8.899,18.489 9.016 C 19.445 9.409,20.055 10.372,19.986 11.380 C 19.921 12.332,19.289 13.158,18.377 13.486 C 18.047 13.605,17.393 13.633,17.040 13.544 C 16.370 13.375,15.811 12.936,15.485 12.323 C 15.305 11.984,15.226 11.637,15.229 11.200 C 15.235 10.282,15.739 9.487,16.572 9.081 C 16.950 8.896,16.939 8.881,16.527 9.022 " stroke="none" fill="black" fill-rule="evenodd"></path></svg>