<svg role="img" viewBox="0 0 24 24" xmlns="http://www.w3.org/2000/svg"><path d="M6.570 3.242 C 2.512 7.242,2.104 7.675,1.393 8.740 C 0.664 9.831,0.276 10.924,0.115 12.340 C 0.051 12.903,0.051 14.382,0.115 14.900 C 0.508 18.067,2.111 20.746,4.615 22.417 C 6.409 23.615,8.426 24.134,10.630 23.964 C 12.767 23.799,14.368 23.230,15.874 22.101 C 16.363 21.734,16.527 21.572,20.782 17.265 L 23.938 14.070 23.740 13.890 C 23.294 13.486,22.685 13.157,22.080 12.995 C 21.795 12.918,21.640 12.903,21.120 12.903 C 20.405 12.903,20.051 12.972,19.417 13.237 C 18.638 13.563,18.559 13.631,15.960 16.219 C 14.401 17.772,13.463 18.675,13.242 18.838 C 11.795 19.902,9.586 20.179,7.811 19.519 C 6.502 19.033,5.365 17.990,4.737 16.700 C 4.312 15.827,4.162 15.206,4.132 14.197 C 4.108 13.418,4.157 12.980,4.339 12.340 C 4.476 11.860,4.936 10.945,5.266 10.500 C 5.451 10.250,6.222 9.454,7.783 7.900 C 9.207 6.482,10.091 5.572,10.191 5.420 C 10.539 4.891,10.807 4.250,10.943 3.620 C 11.047 3.139,11.040 2.319,10.929 1.873 C 10.765 1.212,10.484 0.673,10.073 0.230 L 9.860 -0.001 6.570 3.242 M9.440 9.282 C 8.702 9.373,7.864 9.684,7.275 10.083 C 6.948 10.305,6.419 10.832,6.212 11.140 C 5.691 11.917,5.440 12.797,5.440 13.854 C 5.440 15.404,6.183 16.819,7.446 17.670 C 8.272 18.228,9.018 18.453,10.040 18.453 C 10.699 18.453,10.981 18.409,11.545 18.220 C 12.869 17.775,13.965 16.662,14.417 15.302 C 14.696 14.463,14.717 13.438,14.477 12.500 C 14.059 10.872,12.734 9.671,10.991 9.341 C 10.576 9.262,9.830 9.234,9.440 9.282 " stroke="none" fill="black" fill-rule="evenodd"></path></svg>