<svg role="img" viewBox="0 0 24 24" xmlns="http://www.w3.org/2000/svg"><path d="M1.080 2.940 L 1.080 5.880 5.729 5.890 L 10.378 5.900 11.005 8.800 C 11.758 12.283,11.728 12.150,11.745 12.100 C 11.753 12.078,12.245 9.387,12.839 6.120 C 13.433 2.853,13.929 0.140,13.940 0.090 L 13.962 0.000 7.521 0.000 L 1.080 0.000 1.080 2.940 M20.480 0.024 C 20.480 0.043,15.128 19.289,15.056 19.530 C 15.036 19.596,14.855 19.600,11.986 19.600 L 8.938 19.600 7.384 15.010 C 6.529 12.486,5.818 10.408,5.805 10.394 C 5.791 10.380,4.722 10.355,3.430 10.339 L 1.080 10.310 1.080 17.155 L 1.080 24.000 12.000 24.000 L 22.920 24.000 22.920 12.000 L 22.920 0.000 21.700 0.000 C 21.029 0.000,20.480 0.011,20.480 0.024 " stroke="none" fill="black" fill-rule="evenodd"></path></svg>