<svg role="img" viewBox="0 0 24 24" xmlns="http://www.w3.org/2000/svg"><path d="M6.576 0.043 C 2.557 0.282,0.911 1.440,0.300 4.457 C 0.032 5.778,0.001 6.567,0.001 12.000 C 0.001 16.557,0.021 17.502,0.141 18.537 C 0.507 21.703,1.712 23.144,4.456 23.700 C 5.840 23.980,6.674 24.010,12.560 23.989 C 17.652 23.972,17.832 23.966,18.976 23.797 C 22.009 23.348,23.339 22.024,23.795 18.998 C 23.974 17.809,23.980 17.572,23.980 12.000 C 23.980 6.446,23.975 6.252,23.798 5.028 C 23.648 3.996,23.362 3.097,22.970 2.425 C 22.709 1.978,22.022 1.291,21.575 1.030 C 20.717 0.529,19.639 0.244,17.960 0.074 C 17.406 0.018,7.454 -0.009,6.576 0.043 M6.709 7.679 C 6.902 7.766,6.992 7.895,7.147 8.300 C 7.640 9.596,8.052 10.479,8.547 11.300 C 8.940 11.953,9.249 12.364,9.578 12.672 C 9.941 13.012,10.190 13.048,10.304 12.777 C 10.349 12.669,10.360 12.335,10.360 11.088 C 10.360 9.658,10.353 9.507,10.279 9.217 C 10.230 9.023,10.145 8.822,10.061 8.700 C 9.986 8.590,9.869 8.421,9.802 8.324 C 9.642 8.094,9.641 7.925,9.797 7.751 L 9.913 7.620 11.447 7.609 C 12.846 7.600,12.992 7.605,13.120 7.669 C 13.215 7.717,13.275 7.785,13.308 7.880 C 13.342 7.980,13.356 8.565,13.358 9.951 C 13.360 12.019,13.367 12.097,13.561 12.201 C 13.889 12.376,14.733 11.500,15.562 10.123 C 15.742 9.824,16.077 9.198,16.306 8.731 C 16.642 8.046,16.751 7.861,16.868 7.771 L 17.014 7.660 18.186 7.648 C 19.480 7.635,19.543 7.645,19.639 7.877 C 19.792 8.247,19.246 9.339,17.877 11.400 C 17.179 12.450,17.120 12.552,17.120 12.700 C 17.120 12.888,17.244 13.052,17.877 13.700 C 18.588 14.429,19.260 15.220,19.600 15.726 C 20.083 16.448,20.123 16.894,19.721 17.055 C 19.585 17.109,19.382 17.120,18.487 17.120 L 17.416 17.120 17.208 17.016 C 17.057 16.941,16.877 16.780,16.552 16.426 C 15.457 15.237,14.804 14.650,14.297 14.397 C 14.090 14.294,14.017 14.278,13.801 14.288 C 13.578 14.299,13.538 14.313,13.466 14.411 C 13.388 14.515,13.382 14.587,13.367 15.623 C 13.350 16.725,13.350 16.726,13.252 16.843 C 13.095 17.029,12.802 17.095,12.140 17.093 C 10.989 17.090,9.846 16.696,8.760 15.929 C 8.310 15.611,7.391 14.713,7.050 14.258 C 6.736 13.840,6.080 12.854,5.758 12.320 C 4.884 10.865,4.108 8.991,4.052 8.200 C 4.033 7.934,4.041 7.888,4.118 7.790 C 4.166 7.730,4.262 7.664,4.333 7.644 C 4.403 7.624,4.928 7.606,5.500 7.604 C 6.444 7.602,6.556 7.609,6.709 7.679 " stroke="none" fill="black" fill-rule="evenodd"></path></svg>