<svg role="img" xmlns="http://www.w3.org/2000/svg" viewBox="0 0 24 24"><path d="M0.300 10.176 C 0.128 10.252,0.036 10.371,0.013 10.547 C -0.004 10.680,0.071 10.869,0.600 12.020 C 1.304 13.554,1.354 13.646,1.551 13.780 C 1.739 13.907,2.039 13.917,2.229 13.801 C 2.440 13.672,2.561 13.462,3.101 12.280 C 3.517 11.372,3.623 11.170,3.645 11.246 C 3.660 11.298,3.729 11.781,3.799 12.320 C 3.868 12.859,3.934 13.360,3.945 13.433 C 3.956 13.506,4.023 13.630,4.094 13.707 C 4.329 13.964,4.741 13.925,4.922 13.628 C 4.994 13.510,5.000 13.421,5.000 12.489 C 5.000 11.388,5.016 11.287,5.221 11.127 C 5.305 11.061,5.385 11.040,5.560 11.040 C 5.735 11.040,5.815 11.061,5.899 11.127 C 6.105 11.288,6.120 11.386,6.120 12.523 L 6.120 13.569 6.275 13.725 C 6.415 13.865,6.451 13.880,6.636 13.880 C 6.814 13.880,6.861 13.862,6.991 13.743 L 7.140 13.606 7.160 12.493 C 7.182 11.270,7.190 11.229,7.444 11.098 C 7.614 11.010,7.928 11.023,8.055 11.124 C 8.270 11.293,8.280 11.350,8.280 12.468 C 8.280 13.421,8.286 13.510,8.358 13.628 C 8.586 14.001,9.144 13.955,9.299 13.549 C 9.358 13.393,9.365 13.228,9.353 12.216 C 9.340 11.101,9.336 11.053,9.244 10.849 C 9.121 10.574,8.790 10.270,8.516 10.179 C 8.080 10.034,7.465 10.154,7.061 10.462 L 6.921 10.569 6.779 10.445 C 6.296 10.020,5.578 10.011,4.969 10.421 L 4.760 10.562 4.561 10.404 C 4.285 10.187,4.022 10.105,3.665 10.129 C 3.027 10.170,2.839 10.381,2.304 11.657 C 2.086 12.177,1.904 12.597,1.899 12.591 C 1.894 12.585,1.678 12.076,1.420 11.460 C 0.904 10.228,0.835 10.119,0.569 10.122 C 0.487 10.122,0.366 10.147,0.300 10.176 M12.129 10.331 C 12.089 10.424,11.832 11.053,11.558 11.729 C 11.284 12.405,11.049 12.959,11.036 12.959 C 11.023 12.960,10.825 12.413,10.596 11.743 C 10.367 11.074,10.175 10.532,10.169 10.538 C 10.152 10.555,10.691 13.537,10.717 13.568 C 10.729 13.583,11.072 13.019,11.477 12.315 C 11.930 11.529,12.225 11.055,12.242 11.088 C 12.257 11.116,12.455 11.680,12.681 12.340 C 12.908 13.000,13.122 13.573,13.157 13.614 C 13.191 13.655,13.268 13.723,13.326 13.764 L 13.433 13.840 13.922 12.690 C 14.661 10.953,14.766 10.697,14.728 10.740 C 14.708 10.762,14.426 11.248,14.099 11.820 C 13.773 12.392,13.484 12.892,13.458 12.931 C 13.419 12.990,13.338 12.790,12.959 11.691 C 12.519 10.412,12.504 10.377,12.355 10.271 L 12.203 10.163 12.129 10.331 M16.220 10.201 C 15.839 10.224,15.385 10.344,15.426 10.410 C 15.496 10.523,15.837 10.615,16.288 10.644 C 16.764 10.675,17.039 10.754,17.213 10.912 C 17.340 11.027,17.440 11.267,17.467 11.524 C 17.491 11.753,17.487 11.768,17.416 11.746 C 17.012 11.623,16.397 11.575,16.005 11.636 C 15.432 11.726,15.028 12.022,14.903 12.443 C 14.824 12.708,14.824 12.812,14.903 13.077 C 15.165 13.959,16.597 14.160,17.338 13.419 L 17.475 13.282 17.488 13.411 C 17.496 13.497,17.585 13.211,17.756 12.550 C 18.046 11.424,18.051 11.323,17.838 10.890 C 17.697 10.604,17.471 10.407,17.146 10.287 C 16.890 10.192,16.680 10.173,16.220 10.201 M18.808 10.292 L 18.680 10.424 18.680 12.090 L 18.680 13.755 18.769 13.818 C 18.880 13.895,19.001 13.897,19.102 13.823 C 19.174 13.771,19.182 13.696,19.203 12.813 C 19.228 11.765,19.260 11.605,19.521 11.245 C 19.669 11.041,20.000 10.819,20.250 10.758 C 20.463 10.705,20.461 10.673,20.239 10.559 C 19.907 10.390,19.599 10.483,19.332 10.834 L 19.200 11.006 19.200 10.711 C 19.200 10.429,19.194 10.410,19.068 10.288 L 18.936 10.160 18.808 10.292 M22.125 10.207 C 21.492 10.307,20.943 10.790,20.754 11.410 C 20.644 11.774,20.662 12.427,20.793 12.760 C 20.966 13.200,21.357 13.592,21.800 13.768 C 21.980 13.840,22.104 13.856,22.482 13.858 C 22.936 13.860,22.949 13.857,23.243 13.712 C 23.407 13.631,23.586 13.516,23.641 13.457 L 23.740 13.349 23.220 13.381 C 22.371 13.432,22.198 13.427,21.982 13.344 C 21.608 13.200,21.278 12.795,21.216 12.403 L 21.190 12.240 22.472 12.240 L 23.755 12.240 23.783 12.057 C 23.826 11.765,23.779 11.282,23.682 11.028 C 23.454 10.433,22.816 10.097,22.125 10.207 M22.667 10.660 C 23.060 10.777,23.413 11.230,23.447 11.660 L 23.460 11.820 22.330 11.831 L 21.200 11.841 21.200 11.745 C 21.200 11.409,21.520 10.924,21.855 10.751 C 22.162 10.594,22.367 10.571,22.667 10.660 M17.300 12.087 L 17.500 12.140 17.512 12.332 C 17.554 12.978,17.049 13.452,16.318 13.452 C 15.693 13.452,15.291 13.043,15.437 12.554 C 15.505 12.327,15.668 12.166,15.920 12.076 C 16.106 12.009,16.213 12.000,16.620 12.016 C 16.884 12.026,17.190 12.058,17.300 12.087 " stroke="none" fill="black" fill-rule="evenodd"></path></svg>