<svg role="img" viewBox="0 0 24 24" xmlns="http://www.w3.org/2000/svg"><path d="M0.049 1.695 C 0.278 2.117,11.985 22.359,12.000 22.359 C 12.015 22.359,23.718 2.124,23.951 1.694 L 24.003 1.600 19.031 1.601 L 14.060 1.602 13.042 3.361 C 12.482 4.328,12.013 5.120,12.000 5.120 C 11.986 5.120,11.518 4.328,10.958 3.361 L 9.940 1.602 4.969 1.601 L -0.003 1.600 0.049 1.695 M10.783 4.300 C 11.430 5.422,11.978 6.340,12.000 6.340 C 12.022 6.340,12.570 5.422,13.217 4.300 L 14.393 2.260 16.614 2.250 L 18.835 2.239 18.447 2.911 C 13.404 11.649,12.019 14.040,12.000 14.040 C 11.981 14.040,10.127 10.839,5.553 2.911 L 5.165 2.239 7.386 2.250 L 9.607 2.260 10.783 4.300 " stroke="none" fill="black" fill-rule="evenodd"></path></svg>