<svg role="img" viewBox="0 0 24 24" xmlns="http://www.w3.org/2000/svg"><path d="M9.487 0.454 C 7.762 0.778,7.106 0.916,7.082 0.960 C 7.065 0.993,6.991 1.227,6.919 1.480 C 6.847 1.733,6.769 1.960,6.744 1.985 C 6.720 2.010,6.313 2.134,5.840 2.260 C 5.367 2.386,4.952 2.504,4.918 2.522 C 4.879 2.542,4.810 2.747,4.730 3.082 C 4.660 3.372,4.597 3.616,4.589 3.625 C 4.581 3.633,4.172 3.747,3.679 3.879 C 3.187 4.011,2.771 4.133,2.754 4.150 C 2.719 4.185,2.630 4.681,2.554 5.260 C 2.443 6.115,2.495 8.097,2.663 9.391 C 3.386 14.963,6.491 20.087,11.200 23.479 C 11.453 23.661,11.698 23.828,11.745 23.849 C 11.817 23.882,11.907 23.837,12.325 23.558 C 15.883 21.182,18.542 17.962,20.070 14.180 C 21.340 11.035,21.819 7.295,21.318 4.427 C 21.281 4.212,21.253 4.146,21.185 4.118 C 21.138 4.098,20.724 3.983,20.265 3.863 C 19.806 3.742,19.422 3.635,19.412 3.625 C 19.401 3.614,19.333 3.369,19.260 3.080 C 19.187 2.791,19.118 2.544,19.105 2.532 C 19.093 2.520,18.667 2.397,18.159 2.259 C 17.650 2.121,17.229 2.001,17.224 1.994 C 17.218 1.986,17.171 1.786,17.120 1.549 C 17.069 1.312,17.008 1.094,16.984 1.064 C 16.938 1.008,12.144 -0.005,11.960 0.003 C 11.905 0.005,10.792 0.208,9.487 0.454 M11.253 9.370 C 11.290 18.293,11.288 20.649,11.241 20.633 C 11.180 20.612,10.621 19.898,10.323 19.460 C 9.601 18.399,9.004 17.164,8.518 15.726 C 8.387 15.338,8.267 15.024,8.250 15.029 C 8.234 15.034,7.993 15.182,7.715 15.359 C 6.967 15.834,6.932 15.823,6.507 14.974 C 5.524 13.010,4.784 10.077,4.600 7.411 C 4.565 6.904,4.567 6.781,4.615 6.671 C 4.708 6.457,5.761 5.360,5.873 5.360 C 5.938 5.360,5.954 5.536,5.977 6.520 C 6.017 8.194,6.239 9.875,6.625 11.420 C 6.874 12.414,7.333 13.686,7.461 13.735 C 7.504 13.751,7.880 13.549,7.880 13.509 C 7.880 13.502,7.845 13.335,7.802 13.138 C 7.373 11.164,7.089 7.848,7.127 5.248 L 7.140 4.355 7.240 4.279 C 7.387 4.166,8.421 3.640,8.496 3.640 C 8.531 3.640,8.559 3.663,8.558 3.690 C 8.547 4.046,8.610 7.189,8.640 7.785 C 8.784 10.606,9.126 12.911,9.694 14.873 C 9.785 15.188,9.878 15.440,9.900 15.433 C 9.926 15.425,9.935 15.097,9.926 14.520 C 9.901 12.889,9.852 3.261,9.869 3.213 C 9.879 3.187,9.916 3.154,9.953 3.140 C 10.073 3.092,10.937 2.926,11.083 2.923 L 11.227 2.920 11.253 9.370 M13.660 3.064 C 14.675 3.185,15.447 3.401,16.220 3.781 C 17.313 4.317,17.978 5.065,18.183 5.986 C 18.264 6.351,18.243 7.031,18.138 7.420 C 18.050 7.750,17.766 8.336,17.568 8.597 C 17.408 8.807,17.390 8.880,17.497 8.880 C 17.526 8.880,17.676 8.944,17.831 9.021 C 18.286 9.249,18.608 9.645,18.788 10.200 C 18.882 10.487,18.901 11.388,18.823 11.836 C 18.500 13.697,17.283 15.802,15.121 18.239 C 14.443 19.003,12.779 20.657,12.723 20.622 C 12.692 20.603,12.680 18.091,12.680 11.804 C 12.680 6.969,12.687 3.006,12.697 2.997 C 12.723 2.971,13.093 2.996,13.660 3.064 M14.120 7.160 C 14.120 8.590,14.132 9.760,14.147 9.760 C 14.224 9.760,15.222 9.050,15.493 8.802 C 16.380 7.991,16.760 7.305,16.760 6.513 C 16.760 6.040,16.658 5.810,16.284 5.437 C 15.964 5.119,15.772 4.994,15.330 4.818 C 15.056 4.708,14.429 4.561,14.230 4.561 L 14.120 4.560 14.120 7.160 M16.180 10.285 C 15.902 10.350,15.395 10.622,14.764 11.043 C 14.428 11.267,14.146 11.470,14.137 11.495 C 14.127 11.520,14.124 12.798,14.130 14.335 L 14.140 17.131 14.604 16.575 C 15.996 14.909,16.842 13.518,17.225 12.260 C 17.320 11.950,17.335 11.828,17.337 11.380 C 17.340 10.808,17.297 10.662,17.054 10.433 C 16.853 10.243,16.568 10.195,16.180 10.285 " stroke="none" fill="black" fill-rule="evenodd"></path></svg>