<svg role="img" xmlns="http://www.w3.org/2000/svg" viewBox="0 0 24 24"><path d="M8.946 2.903 C 8.162 3.093,7.470 3.785,7.263 4.586 C 7.190 4.871,7.181 5.344,7.244 5.648 C 7.295 5.896,13.468 19.800,13.665 20.109 C 13.932 20.528,14.381 20.878,14.872 21.048 C 15.095 21.124,15.221 21.140,15.620 21.139 C 16.183 21.139,16.449 21.063,16.878 20.782 C 17.309 20.500,17.608 20.122,17.799 19.620 C 17.925 19.291,17.955 18.643,17.862 18.287 C 17.795 18.029,11.685 4.259,11.489 3.924 C 11.220 3.464,10.639 3.047,10.062 2.901 C 9.769 2.826,9.259 2.827,8.946 2.903 M1.860 2.956 C 1.503 3.061,1.337 3.141,1.054 3.342 C 0.230 3.931,-0.169 5.005,0.078 5.972 C 0.128 6.167,1.245 8.723,3.181 13.071 C 5.713 18.758,6.238 19.908,6.406 20.133 C 7.136 21.108,8.524 21.408,9.619 20.827 C 9.937 20.659,10.383 20.231,10.571 19.914 C 10.936 19.299,11.037 18.510,10.830 17.880 C 10.735 17.588,4.939 4.540,4.728 4.140 C 4.669 4.030,4.477 3.794,4.301 3.616 C 3.952 3.264,3.594 3.056,3.142 2.941 C 2.816 2.858,2.168 2.866,1.860 2.956 M21.106 2.943 C 20.310 3.136,19.632 3.814,19.419 4.629 C 19.343 4.921,19.344 5.428,19.421 5.756 C 19.704 6.954,20.941 7.722,22.170 7.461 C 23.061 7.273,23.810 6.490,23.962 5.590 C 24.132 4.578,23.611 3.558,22.700 3.121 C 22.524 3.036,22.285 2.948,22.168 2.924 C 21.883 2.865,21.392 2.874,21.106 2.943 M18.289 7.898 C 17.487 8.092,16.747 8.809,16.508 9.625 C 16.320 10.265,16.417 11.000,16.770 11.595 C 16.946 11.893,17.327 12.267,17.641 12.451 C 19.224 13.376,21.209 12.339,21.379 10.498 C 21.486 9.341,20.658 8.194,19.502 7.901 C 19.214 7.828,18.585 7.826,18.289 7.898 " stroke="none" fill="black" fill-rule="evenodd"></path></svg>