<svg role="img" xmlns="http://www.w3.org/2000/svg" viewBox="0 0 24 24"><path d="M15.020 2.324 C 12.591 2.588,10.609 3.788,9.312 5.780 C 8.850 6.489,8.392 7.479,8.118 8.360 L 7.988 8.779 7.751 8.519 C 6.879 7.564,6.278 6.042,5.998 4.080 C 5.956 3.783,5.921 3.473,5.921 3.390 C 5.920 3.308,5.903 3.240,5.882 3.240 C 5.777 3.240,5.144 3.468,4.879 3.601 C 4.603 3.739,4.147 4.058,3.802 4.353 L 3.664 4.471 3.776 4.926 C 4.164 6.506,5.106 8.036,6.392 9.173 C 6.608 9.364,6.816 9.543,6.856 9.572 C 6.919 9.618,6.871 9.636,6.483 9.712 C 4.383 10.127,2.103 11.531,0.897 13.152 C 0.580 13.578,0.230 14.271,0.114 14.700 C 0.001 15.115,-0.009 16.023,0.094 16.474 C 0.372 17.696,1.082 18.847,1.977 19.527 C 2.831 20.175,4.174 20.647,5.600 20.801 C 6.047 20.849,7.584 20.863,7.719 20.820 C 7.790 20.798,7.800 20.812,7.800 20.940 C 7.800 21.019,7.779 21.210,7.754 21.364 C 7.724 21.543,7.721 21.657,7.746 21.682 C 7.812 21.748,9.007 21.608,10.040 21.415 C 12.426 20.969,14.741 19.991,16.760 18.578 C 17.374 18.148,18.938 16.935,19.788 16.229 C 20.501 15.637,21.734 14.421,22.232 13.819 C 23.574 12.196,24.058 10.945,23.988 9.280 C 23.915 7.531,23.191 6.001,21.809 4.675 C 20.526 3.443,18.983 2.675,17.200 2.380 C 16.732 2.303,15.506 2.271,15.020 2.324 M20.120 5.050 C 20.120 5.871,20.068 7.392,19.960 9.740 C 19.852 12.069,19.801 13.562,19.801 14.401 L 19.800 15.102 19.410 15.446 C 18.880 15.914,18.735 16.030,17.560 16.919 C 16.999 17.343,16.518 17.707,16.492 17.729 C 16.457 17.756,16.401 17.701,16.295 17.533 C 15.291 15.955,13.446 13.148,12.843 12.280 L 12.551 11.860 12.571 15.831 L 12.591 19.803 12.446 19.877 C 12.048 20.080,9.919 20.618,9.842 20.535 C 9.823 20.516,8.783 18.961,7.529 17.080 C 6.275 15.199,4.945 13.213,4.575 12.667 C 3.923 11.706,3.903 11.671,3.980 11.613 C 4.300 11.372,6.333 10.539,6.394 10.625 C 6.631 10.959,7.501 12.279,8.459 13.760 C 9.958 16.073,10.491 16.878,10.530 16.879 C 10.570 16.880,10.566 14.516,10.520 10.402 C 10.499 8.545,10.487 7.020,10.493 7.013 C 10.500 7.007,10.711 6.948,10.963 6.882 C 11.214 6.816,11.552 6.719,11.714 6.665 L 12.009 6.568 12.498 7.314 C 12.767 7.724,13.550 8.940,14.238 10.015 C 15.965 12.715,17.227 14.628,17.415 14.829 C 17.449 14.865,17.457 13.645,17.446 10.021 L 17.431 5.165 17.826 5.043 C 18.512 4.830,20.059 4.366,20.090 4.363 C 20.107 4.361,20.120 4.671,20.120 5.050 " stroke="none" fill="black" fill-rule="evenodd"></path></svg>