<svg role="img" viewBox="0 0 24 24" xmlns="http://www.w3.org/2000/svg"><path d="M0.000 12.000 L 0.000 24.000 12.000 24.000 L 24.000 24.000 24.000 12.000 L 24.000 0.000 19.384 0.000 L 14.768 0.000 14.741 0.290 C 14.617 1.596,13.761 2.571,12.517 2.823 C 12.128 2.902,11.596 2.883,11.240 2.777 C 10.517 2.563,9.874 2.025,9.545 1.359 C 9.354 0.972,9.240 0.530,9.240 0.176 L 9.240 0.000 4.620 0.000 L 0.000 0.000 0.000 12.000 M7.160 12.941 C 7.160 12.988,8.241 18.695,8.252 18.706 C 8.259 18.712,8.550 17.454,8.899 15.909 C 9.248 14.364,9.548 13.059,9.566 13.009 C 9.599 12.919,9.601 12.918,10.329 12.929 L 11.060 12.940 11.643 15.830 C 11.964 17.419,12.235 18.728,12.246 18.739 C 12.256 18.750,12.543 17.449,12.883 15.849 L 13.500 12.940 14.270 12.929 C 14.899 12.920,15.040 12.928,15.040 12.973 C 15.040 13.003,14.590 14.913,14.040 17.218 C 13.490 19.523,13.040 21.416,13.040 21.425 C 13.040 21.433,12.683 21.440,12.247 21.440 L 11.454 21.440 10.881 18.590 C 10.566 17.023,10.296 15.727,10.282 15.710 C 10.268 15.694,9.982 16.945,9.645 18.490 C 9.309 20.036,9.025 21.332,9.014 21.371 C 8.996 21.436,8.930 21.441,8.191 21.431 L 7.388 21.420 6.495 17.260 C 6.004 14.972,5.592 13.059,5.580 13.010 L 5.558 12.920 6.359 12.920 C 6.800 12.920,7.160 12.929,7.160 12.941 M19.420 13.130 C 19.819 14.458,21.840 21.360,21.840 21.394 C 21.840 21.427,21.613 21.440,21.026 21.440 L 20.211 21.440 19.980 20.630 C 19.853 20.184,19.732 19.762,19.712 19.690 L 19.676 19.560 18.241 19.560 C 16.908 19.560,16.804 19.565,16.785 19.630 C 16.774 19.668,16.681 20.091,16.577 20.570 L 16.388 21.440 15.593 21.440 L 14.798 21.440 14.820 21.350 C 15.575 18.208,16.847 12.981,16.863 12.955 C 16.875 12.936,17.441 12.920,18.121 12.920 L 19.357 12.920 19.420 13.130 M17.800 15.060 C 17.800 15.080,17.175 17.903,17.134 18.070 L 17.111 18.160 18.198 18.160 C 19.215 18.160,19.284 18.155,19.265 18.090 C 19.253 18.052,19.098 17.444,18.920 16.740 C 18.741 16.036,18.569 15.365,18.537 15.250 L 18.478 15.040 18.139 15.040 C 17.952 15.040,17.800 15.049,17.800 15.060 " stroke="none" fill="black" fill-rule="evenodd"></path></svg>