<svg role="img" xmlns="http://www.w3.org/2000/svg" viewBox="0 0 24 24"><path d="M11.480 0.383 C 11.425 0.392,11.245 0.420,11.080 0.444 C 10.717 0.498,9.951 0.743,9.598 0.920 C 8.928 1.255,8.169 1.886,7.700 2.498 C 7.194 3.159,6.777 4.141,6.671 4.926 L 6.621 5.287 6.481 5.264 C 5.426 5.088,4.538 5.150,3.629 5.465 C 2.888 5.721,2.273 6.098,1.692 6.653 C 0.640 7.660,0.083 8.883,0.014 10.340 C -0.084 12.421,1.028 14.334,2.932 15.361 C 3.103 15.453,3.238 15.540,3.232 15.554 C 3.225 15.569,3.162 15.689,3.093 15.823 C 2.923 16.149,2.708 16.780,2.617 17.220 C 2.516 17.708,2.514 18.753,2.613 19.250 C 2.708 19.726,2.929 20.351,3.148 20.760 C 3.778 21.939,4.844 22.868,6.072 23.307 C 6.736 23.545,7.133 23.613,7.880 23.617 C 8.645 23.620,8.942 23.576,9.617 23.355 C 10.414 23.095,11.026 22.723,11.659 22.114 L 12.059 21.729 12.464 22.118 C 13.095 22.726,13.775 23.132,14.600 23.391 C 15.173 23.572,15.510 23.619,16.220 23.618 C 16.948 23.617,17.335 23.554,17.977 23.331 C 18.789 23.050,19.349 22.693,20.001 22.041 C 20.811 21.230,21.271 20.376,21.507 19.240 C 21.606 18.768,21.606 17.712,21.507 17.240 C 21.415 16.794,21.265 16.339,21.074 15.924 C 20.989 15.740,20.920 15.585,20.920 15.580 C 20.920 15.575,21.069 15.485,21.250 15.380 C 21.961 14.967,22.665 14.318,23.079 13.693 C 23.478 13.089,23.800 12.292,23.926 11.600 C 24.011 11.126,23.992 10.066,23.890 9.600 C 23.412 7.427,21.770 5.806,19.608 5.372 C 19.181 5.286,18.114 5.276,17.704 5.353 C 17.391 5.411,17.362 5.396,17.361 5.168 C 17.360 4.964,17.249 4.458,17.116 4.055 C 16.974 3.621,16.734 3.132,16.461 2.720 C 16.194 2.318,15.421 1.548,15.020 1.285 C 14.406 0.882,13.703 0.590,13.030 0.459 C 12.713 0.397,11.687 0.347,11.480 0.383 M17.440 7.356 C 17.719 7.504,17.865 7.630,17.996 7.833 C 18.246 8.224,18.240 8.106,18.240 12.400 C 18.240 16.728,18.248 16.589,17.979 16.982 C 17.831 17.200,17.718 17.296,17.439 17.445 L 17.260 17.540 15.240 17.560 L 13.220 17.580 9.640 19.344 C 7.671 20.314,6.055 21.104,6.048 21.099 C 6.041 21.094,6.280 20.303,6.578 19.343 C 6.876 18.382,7.120 17.590,7.120 17.582 C 7.120 17.574,6.845 17.561,6.510 17.553 C 5.936 17.539,5.888 17.532,5.689 17.428 C 5.438 17.297,5.194 17.063,5.085 16.851 C 4.920 16.526,4.915 16.392,4.928 12.240 L 4.940 8.260 5.029 8.067 C 5.206 7.683,5.473 7.439,5.874 7.295 C 5.992 7.253,7.084 7.245,11.640 7.251 L 17.260 7.260 17.440 7.356 " stroke="none" fill="black" fill-rule="evenodd"></path></svg>