<svg role="img" viewBox="0 0 24 24" xmlns="http://www.w3.org/2000/svg"><path d="M10.780 8.516 C 10.279 8.748,10.150 9.393,10.525 9.788 C 10.702 9.974,10.866 10.040,11.152 10.040 C 11.451 10.040,11.695 9.917,11.860 9.683 C 11.965 9.535,11.980 9.479,11.980 9.243 C 11.980 9.011,11.964 8.950,11.865 8.808 C 11.639 8.481,11.144 8.347,10.780 8.516 M13.697 8.516 C 13.608 8.556,13.479 8.657,13.411 8.740 C 12.963 9.282,13.349 10.040,14.072 10.040 C 14.372 10.040,14.615 9.917,14.780 9.683 C 14.885 9.535,14.900 9.479,14.900 9.243 C 14.900 9.011,14.884 8.950,14.785 8.808 C 14.558 8.480,14.066 8.348,13.697 8.516 M17.349 8.504 C 17.094 8.583,16.823 8.845,16.762 9.071 C 16.730 9.191,16.720 9.792,16.729 11.091 C 16.741 12.769,16.749 12.958,16.815 13.132 C 16.919 13.402,17.209 13.686,17.502 13.804 L 17.740 13.900 20.400 13.900 L 23.060 13.900 23.280 13.796 C 23.577 13.656,23.721 13.527,23.862 13.273 L 23.980 13.060 23.992 11.160 C 24.005 9.147,24.000 9.073,23.817 8.791 C 23.647 8.529,23.490 8.480,22.824 8.480 L 22.244 8.480 22.232 10.070 L 22.220 11.660 22.105 11.909 C 21.979 12.183,21.678 12.498,21.417 12.631 C 20.637 13.029,19.577 12.916,18.997 12.374 C 18.749 12.141,18.617 11.893,18.562 11.554 C 18.539 11.414,18.520 10.661,18.520 9.870 L 18.520 8.440 18.030 8.443 C 17.720 8.445,17.470 8.467,17.349 8.504 M19.408 9.870 L 19.420 11.300 19.534 11.533 C 19.669 11.806,19.871 11.971,20.158 12.040 C 20.571 12.139,21.032 11.934,21.227 11.564 C 21.319 11.388,21.320 11.379,21.320 9.914 L 21.320 8.440 20.358 8.440 L 19.396 8.440 19.408 9.870 M4.569 8.799 C 4.322 8.858,4.135 9.020,4.005 9.288 C 3.930 9.444,3.722 10.159,3.460 11.160 C 3.227 12.051,2.981 12.992,2.913 13.251 C 2.845 13.510,2.782 13.716,2.774 13.708 C 2.763 13.696,1.521 8.885,1.520 8.850 C 1.520 8.845,1.176 8.840,0.756 8.840 C 0.161 8.840,-0.004 8.851,0.010 8.890 C 0.021 8.918,0.358 10.119,0.758 11.560 C 1.607 14.610,1.678 14.843,1.840 15.087 C 2.290 15.766,3.257 15.712,3.628 14.986 C 3.737 14.772,3.966 13.998,4.503 12.030 C 4.675 11.397,4.828 10.893,4.843 10.910 C 4.857 10.926,4.991 11.390,5.140 11.940 C 5.923 14.839,5.982 15.015,6.247 15.281 C 6.626 15.660,7.270 15.654,7.674 15.268 C 7.949 15.005,7.998 14.849,9.293 10.190 L 9.668 8.840 8.904 8.840 L 8.140 8.841 7.521 11.284 C 7.107 12.918,6.892 13.702,6.871 13.653 C 6.854 13.613,6.632 12.788,6.378 11.820 C 5.683 9.172,5.694 9.207,5.432 8.983 C 5.205 8.788,4.895 8.722,4.569 8.799 M10.440 13.200 L 10.440 15.520 11.160 15.520 L 11.880 15.520 11.880 13.200 L 11.880 10.880 11.160 10.880 L 10.440 10.880 10.440 13.200 M13.360 13.200 L 13.360 15.520 14.080 15.520 L 14.800 15.520 14.800 13.200 L 14.800 10.880 14.080 10.880 L 13.360 10.880 13.360 13.200 " stroke="none" fill="black" fill-rule="evenodd"></path></svg>