<svg role="img" viewBox="0 0 24 24" xmlns="http://www.w3.org/2000/svg"><path d="M8.793 1.441 C 7.749 1.534,6.530 1.839,5.360 2.300 C 5.151 2.383,4.975 2.454,4.970 2.459 C 4.951 2.474,2.685 10.378,2.696 10.389 C 2.701 10.395,2.862 10.337,3.052 10.260 C 3.947 9.899,5.065 9.568,5.900 9.417 C 6.462 9.316,7.411 9.297,7.956 9.377 C 9.168 9.556,10.214 9.959,11.196 10.627 C 11.402 10.767,11.578 10.876,11.585 10.868 C 11.628 10.825,13.875 2.980,13.850 2.959 C 13.743 2.870,12.997 2.416,12.680 2.247 C 11.468 1.601,10.124 1.322,8.793 1.441 M14.997 4.010 C 14.972 4.104,14.467 5.888,13.874 7.975 C 13.282 10.062,12.802 11.775,12.808 11.781 C 12.928 11.891,13.719 12.355,14.165 12.577 C 15.273 13.129,16.121 13.334,17.300 13.335 C 18.559 13.337,19.590 13.114,21.101 12.515 L 21.702 12.277 22.837 8.348 C 23.462 6.188,23.981 4.397,23.991 4.369 C 24.004 4.334,23.940 4.345,23.795 4.404 C 22.916 4.758,21.723 5.109,20.880 5.261 C 20.308 5.365,19.058 5.386,18.489 5.303 C 17.451 5.151,16.343 4.695,15.317 3.998 C 15.189 3.911,15.075 3.840,15.064 3.840 C 15.052 3.840,15.023 3.916,14.997 4.010 M6.000 10.801 C 4.968 10.908,3.845 11.194,2.704 11.640 C 2.471 11.731,2.280 11.809,2.279 11.813 C 2.278 11.817,1.768 13.602,1.144 15.780 C 0.520 17.958,0.015 19.746,0.021 19.754 C 0.028 19.761,0.193 19.705,0.387 19.628 C 1.280 19.278,2.293 18.988,3.100 18.854 C 3.779 18.740,5.151 18.751,5.720 18.874 C 6.605 19.066,7.512 19.455,8.420 20.034 C 8.711 20.219,8.869 20.298,8.886 20.267 C 8.900 20.241,9.427 18.448,10.057 16.281 L 11.203 12.343 11.112 12.273 C 10.904 12.116,9.994 11.590,9.636 11.422 C 9.111 11.174,8.472 10.971,7.921 10.876 C 7.387 10.785,6.490 10.749,6.000 10.801 M12.400 13.138 C 12.400 13.152,11.887 14.930,11.260 17.089 C 10.633 19.247,10.124 21.017,10.130 21.022 C 10.135 21.027,10.338 21.160,10.580 21.318 C 12.538 22.593,14.400 22.879,16.827 22.278 C 17.708 22.060,18.986 21.600,19.032 21.484 C 19.080 21.365,21.311 13.660,21.301 13.649 C 21.296 13.643,21.087 13.718,20.836 13.814 C 19.894 14.178,18.879 14.455,18.020 14.581 C 17.448 14.666,16.371 14.677,15.900 14.604 C 14.767 14.427,13.702 13.981,12.510 13.184 C 12.450 13.144,12.400 13.123,12.400 13.138 " stroke="none" fill="black" fill-rule="evenodd"></path></svg>