<svg role="img" viewBox="0 0 24 24" xmlns="http://www.w3.org/2000/svg"><path d="M1.058 3.954 C 0.824 4.062,0.580 4.359,0.484 4.653 C 0.439 4.789,0.311 5.269,0.198 5.720 C 0.021 6.425,-0.005 6.576,0.015 6.794 C 0.053 7.224,0.318 7.668,0.660 7.880 C 0.733 7.925,1.769 8.366,2.962 8.860 C 4.155 9.354,5.140 9.767,5.151 9.778 C 5.161 9.788,5.021 10.864,4.838 12.168 C 4.407 15.250,4.389 15.721,4.666 16.676 C 4.989 17.791,5.804 18.839,6.824 19.452 C 8.030 20.177,9.757 20.308,11.297 19.792 C 11.898 19.591,12.573 19.222,13.243 18.727 C 13.307 18.679,13.350 18.703,13.628 18.940 C 14.418 19.616,15.288 19.978,16.373 20.082 C 17.922 20.231,19.566 19.702,20.860 18.639 C 21.208 18.352,21.845 17.699,22.087 17.380 C 22.622 16.674,22.992 15.881,23.198 15.000 C 23.316 14.492,24.008 9.404,23.980 9.249 C 23.946 9.065,23.757 8.866,23.510 8.756 C 23.313 8.668,23.242 8.661,22.374 8.647 C 21.300 8.630,21.109 8.657,20.773 8.876 C 20.506 9.049,20.315 9.296,20.225 9.582 C 20.190 9.691,20.017 10.851,19.839 12.160 C 19.661 13.469,19.497 14.612,19.474 14.699 C 19.335 15.224,18.806 15.845,18.284 16.095 C 17.732 16.360,17.142 16.375,16.653 16.138 C 16.372 16.001,16.031 15.627,15.919 15.331 C 15.767 14.933,15.775 14.712,15.999 13.100 C 16.124 12.205,16.196 11.553,16.183 11.450 C 16.135 11.070,15.872 10.767,15.499 10.658 C 15.317 10.605,15.112 10.596,14.349 10.607 C 13.440 10.620,13.415 10.622,13.193 10.726 C 13.068 10.785,12.886 10.906,12.788 10.997 C 12.476 11.284,12.435 11.433,12.200 13.120 C 12.056 14.153,11.962 14.699,11.898 14.875 C 11.675 15.492,11.138 16.003,10.480 16.224 C 10.157 16.332,9.616 16.321,9.300 16.200 C 8.965 16.071,8.528 15.635,8.406 15.309 C 8.243 14.870,8.242 14.877,8.720 11.440 C 9.198 8.004,9.209 7.872,9.049 7.511 C 8.945 7.276,8.634 6.939,8.421 6.830 C 8.100 6.667,1.477 3.923,1.350 3.901 C 1.266 3.887,1.163 3.906,1.058 3.954 " stroke="none" fill="black" fill-rule="evenodd"></path></svg>