<svg role="img" xmlns="http://www.w3.org/2000/svg" viewBox="0 0 24 24"><path d="M0.420 9.663 C 0.240 9.757,0.156 9.843,0.075 10.020 C 0.008 10.166,0.002 10.307,0.002 11.600 C 0.002 12.901,0.008 13.034,0.077 13.185 C 0.169 13.388,0.365 13.542,0.601 13.597 C 0.707 13.621,1.418 13.638,2.353 13.639 L 3.926 13.640 4.608 14.020 C 4.983 14.229,5.296 14.400,5.303 14.400 C 5.309 14.400,5.245 14.229,5.160 14.020 L 5.005 13.640 6.161 13.640 C 6.843 13.640,7.399 13.622,7.519 13.596 C 7.757 13.545,7.932 13.411,8.042 13.197 C 8.115 13.053,8.120 12.953,8.120 11.600 C 8.120 10.260,8.115 10.146,8.044 10.008 C 7.952 9.829,7.819 9.700,7.667 9.643 C 7.591 9.614,6.435 9.600,4.047 9.600 C 0.945 9.600,0.526 9.608,0.420 9.663 M3.657 10.076 C 3.670 10.096,3.608 10.535,3.521 11.052 C 3.434 11.569,3.352 12.187,3.338 12.426 C 3.310 12.922,3.279 13.009,3.086 13.129 L 2.946 13.215 2.773 13.023 C 2.555 12.782,2.359 12.432,2.217 12.025 L 2.106 11.709 1.795 12.329 C 1.349 13.220,1.135 13.411,0.946 13.085 C 0.772 12.788,0.319 10.650,0.378 10.412 C 0.412 10.280,0.543 10.160,0.654 10.160 C 0.807 10.160,0.878 10.285,0.942 10.664 C 1.051 11.303,1.207 12.059,1.236 12.091 C 1.252 12.108,1.426 11.814,1.623 11.438 C 1.819 11.062,2.012 10.720,2.052 10.677 C 2.135 10.587,2.330 10.575,2.396 10.656 C 2.422 10.686,2.504 10.957,2.580 11.257 C 2.727 11.839,2.781 11.984,2.813 11.880 C 2.824 11.847,2.854 11.658,2.881 11.460 C 2.933 11.075,3.082 10.513,3.185 10.306 C 3.220 10.237,3.287 10.149,3.334 10.111 C 3.426 10.037,3.621 10.016,3.657 10.076 M5.092 10.454 C 5.238 10.515,5.465 10.756,5.526 10.914 C 5.672 11.298,5.647 11.778,5.458 12.193 C 5.239 12.675,4.931 12.904,4.548 12.872 C 4.433 12.862,4.271 12.821,4.186 12.781 C 3.822 12.607,3.630 11.980,3.763 11.402 C 3.854 11.009,4.155 10.576,4.420 10.457 C 4.576 10.387,4.928 10.385,5.092 10.454 M7.171 10.454 C 7.348 10.529,7.516 10.706,7.614 10.920 C 7.730 11.176,7.727 11.733,7.606 12.042 C 7.404 12.563,7.127 12.836,6.764 12.871 C 6.389 12.907,6.097 12.745,5.933 12.410 C 5.621 11.771,5.913 10.767,6.500 10.463 C 6.648 10.386,6.999 10.382,7.171 10.454 M9.361 10.509 C 9.253 10.548,9.100 10.655,8.974 10.781 C 8.713 11.042,8.618 11.318,8.652 11.718 C 8.680 12.041,8.758 12.234,8.948 12.444 C 9.184 12.705,9.360 12.776,9.780 12.778 L 10.140 12.780 10.152 12.508 L 10.164 12.237 9.967 12.263 C 9.566 12.316,9.300 12.060,9.300 11.620 C 9.300 11.181,9.566 10.924,9.965 10.977 L 10.160 11.003 10.160 10.746 C 10.160 10.548,10.145 10.483,10.097 10.464 C 9.979 10.419,9.541 10.446,9.361 10.509 M10.905 10.499 C 10.523 10.635,10.320 11.015,10.320 11.594 C 10.320 12.028,10.395 12.294,10.580 12.509 C 10.773 12.734,10.992 12.813,11.375 12.794 C 11.630 12.781,11.700 12.761,11.847 12.658 C 12.314 12.330,12.433 11.383,12.078 10.823 C 11.865 10.488,11.342 10.343,10.905 10.499 M21.828 10.498 C 21.145 10.741,20.857 11.499,21.185 12.189 C 21.372 12.582,21.743 12.800,22.224 12.800 C 22.592 12.800,22.600 12.794,22.600 12.495 L 22.600 12.239 22.390 12.262 C 21.982 12.306,21.720 12.057,21.720 11.624 C 21.720 11.340,21.807 11.165,22.010 11.037 C 22.117 10.970,22.180 10.960,22.370 10.980 L 22.600 11.004 22.600 10.747 C 22.600 10.514,22.592 10.487,22.510 10.465 C 22.355 10.424,21.987 10.441,21.828 10.498 M12.622 10.570 C 12.592 10.704,12.360 12.566,12.360 12.670 C 12.360 12.755,12.377 12.760,12.635 12.760 L 12.909 12.760 12.932 12.590 C 12.944 12.497,12.977 12.172,13.004 11.870 C 13.032 11.568,13.065 11.320,13.077 11.320 C 13.090 11.320,13.182 11.640,13.283 12.030 L 13.466 12.740 13.671 12.752 L 13.876 12.764 13.915 12.612 C 13.937 12.528,14.012 12.217,14.082 11.920 C 14.152 11.623,14.223 11.356,14.238 11.327 C 14.254 11.297,14.301 11.603,14.343 12.007 L 14.420 12.740 14.722 12.752 L 15.025 12.763 14.874 11.652 C 14.791 11.040,14.723 10.527,14.722 10.510 C 14.721 10.493,14.543 10.480,14.327 10.480 L 13.934 10.480 13.826 10.950 C 13.767 11.208,13.705 11.492,13.687 11.580 C 13.656 11.737,13.654 11.732,13.584 11.380 C 13.545 11.182,13.485 10.898,13.452 10.750 L 13.391 10.480 13.016 10.480 C 12.660 10.480,12.641 10.484,12.622 10.570 M15.382 10.610 C 15.346 10.825,15.120 12.624,15.120 12.695 C 15.120 12.749,15.167 12.760,15.396 12.760 L 15.673 12.760 15.695 12.610 C 15.707 12.527,15.736 12.253,15.760 12.000 C 15.835 11.183,15.832 11.185,16.000 11.840 C 16.082 12.159,16.170 12.497,16.196 12.592 L 16.244 12.764 16.448 12.752 L 16.652 12.740 16.830 12.007 C 16.928 11.604,17.014 11.280,17.020 11.287 C 17.027 11.294,17.062 11.588,17.098 11.940 C 17.190 12.848,17.147 12.760,17.500 12.760 L 17.798 12.760 17.779 12.650 C 17.768 12.590,17.706 12.135,17.640 11.640 C 17.575 11.145,17.511 10.682,17.499 10.610 L 17.476 10.480 17.097 10.480 C 16.651 10.480,16.705 10.410,16.537 11.193 L 16.423 11.726 16.313 11.193 C 16.253 10.900,16.193 10.620,16.181 10.570 C 16.160 10.485,16.139 10.480,15.781 10.480 L 15.404 10.480 15.382 10.610 M17.987 10.507 C 17.972 10.521,17.960 11.034,17.960 11.647 L 17.960 12.760 18.580 12.760 L 19.200 12.760 19.200 12.520 L 19.200 12.280 18.900 12.280 L 18.600 12.280 18.600 12.080 L 18.600 11.880 18.860 11.880 L 19.120 11.880 19.120 11.640 L 19.120 11.400 18.860 11.400 L 18.600 11.400 18.600 11.200 L 18.600 11.000 18.900 11.000 L 19.200 11.000 19.200 10.740 L 19.200 10.480 18.607 10.480 C 18.280 10.480,18.001 10.492,17.987 10.507 M19.400 11.615 L 19.400 12.760 19.700 12.760 L 20.000 12.760 20.004 12.250 L 20.007 11.740 20.251 12.250 L 20.495 12.760 20.807 12.760 C 20.979 12.760,21.120 12.747,21.120 12.730 C 21.121 12.713,21.019 12.490,20.894 12.233 L 20.668 11.766 20.810 11.632 C 21.074 11.383,21.092 10.982,20.851 10.750 C 20.655 10.563,20.463 10.510,19.910 10.489 L 19.400 10.469 19.400 11.615 M22.760 11.620 L 22.760 12.760 23.380 12.760 L 24.000 12.760 24.000 12.520 L 24.000 12.280 23.680 12.280 L 23.360 12.280 23.360 12.082 L 23.360 11.884 23.630 11.872 L 23.900 11.860 23.912 11.630 L 23.924 11.400 23.640 11.400 L 23.356 11.400 23.368 11.190 L 23.380 10.980 23.690 10.968 L 24.000 10.957 24.000 10.718 L 24.000 10.480 23.380 10.480 L 22.760 10.480 22.760 11.620 M20.330 11.048 C 20.476 11.217,20.385 11.405,20.130 11.459 L 20.000 11.486 20.000 11.200 L 20.000 10.914 20.130 10.940 C 20.202 10.955,20.292 11.003,20.330 11.048 M4.550 11.070 C 4.225 11.409,4.187 12.123,4.484 12.282 C 4.788 12.445,5.186 11.710,5.040 11.255 C 4.939 10.941,4.743 10.867,4.550 11.070 M6.634 11.068 C 6.472 11.241,6.391 11.434,6.370 11.698 C 6.347 11.987,6.427 12.218,6.575 12.285 C 6.720 12.351,6.926 12.212,7.043 11.969 C 7.170 11.705,7.176 11.255,7.056 11.093 C 6.937 10.933,6.769 10.924,6.634 11.068 M11.477 11.037 C 11.576 11.136,11.640 11.365,11.639 11.620 C 11.638 11.814,11.587 12.106,11.548 12.146 C 11.502 12.191,11.178 12.064,11.074 11.960 C 10.972 11.858,10.960 11.819,10.960 11.586 C 10.960 11.180,11.075 10.960,11.286 10.960 C 11.349 10.960,11.435 10.995,11.477 11.037 " stroke="none" fill="black" fill-rule="evenodd"></path></svg>