<svg role="img" viewBox="0 0 24 24" xmlns="http://www.w3.org/2000/svg"><path d="M3.660 0.103 C 3.344 0.173,2.866 0.369,2.527 0.567 C 2.219 0.747,0.747 2.219,0.567 2.527 C 0.201 3.152,0.040 3.730,0.040 4.420 C 0.040 4.910,0.118 5.339,0.282 5.751 C 0.537 6.391,0.617 6.480,3.458 9.319 L 6.118 11.978 3.484 14.619 C 1.266 16.842,0.814 17.315,0.626 17.605 C 0.218 18.233,0.040 18.833,0.040 19.580 C 0.040 20.270,0.201 20.848,0.567 21.473 C 0.747 21.781,2.219 23.253,2.527 23.433 C 3.217 23.837,3.787 23.981,4.577 23.949 C 5.342 23.918,5.960 23.708,6.533 23.285 C 6.843 23.056,23.179 6.691,23.348 6.439 C 23.751 5.841,23.919 5.321,23.949 4.577 C 23.981 3.787,23.837 3.215,23.433 2.528 C 23.286 2.277,22.116 1.056,21.757 0.779 C 21.111 0.279,20.394 0.040,19.543 0.040 C 19.043 0.040,18.536 0.144,18.106 0.335 C 17.543 0.585,17.384 0.729,14.650 3.455 L 12.001 6.097 9.370 3.476 C 7.924 2.035,6.648 0.789,6.535 0.708 C 6.244 0.499,5.752 0.260,5.400 0.158 C 4.999 0.042,4.073 0.013,3.660 0.103 M16.620 16.627 L 13.700 19.561 15.500 21.355 C 16.614 22.465,17.397 23.213,17.555 23.319 C 18.185 23.741,18.821 23.933,19.580 23.932 C 20.307 23.930,20.946 23.744,21.511 23.370 C 21.855 23.143,23.097 21.924,23.328 21.586 C 23.747 20.975,23.918 20.453,23.949 19.697 C 23.974 19.075,23.907 18.668,23.701 18.187 C 23.430 17.557,23.388 17.508,21.442 15.550 C 20.419 14.522,19.573 13.683,19.561 13.686 C 19.550 13.690,18.226 15.013,16.620 16.627 " stroke="none" fill="black" fill-rule="evenodd"></path></svg>