<svg role="img" xmlns="http://www.w3.org/2000/svg" viewBox="0 0 24 24"><path d="M6.240 1.557 C 6.059 1.594,5.964 1.647,5.834 1.787 C 5.776 1.849,4.444 4.114,2.875 6.820 L 0.022 11.740 0.022 12.000 L 0.023 12.260 2.875 17.180 C 4.444 19.886,5.775 22.151,5.834 22.214 C 6.083 22.480,5.590 22.459,11.860 22.471 C 15.940 22.479,17.600 22.469,17.756 22.437 C 17.914 22.404,18.013 22.353,18.123 22.246 C 18.227 22.147,19.186 20.528,21.126 17.180 L 23.977 12.260 23.977 12.000 L 23.977 11.740 21.125 6.820 C 19.556 4.114,18.225 1.849,18.166 1.786 C 17.917 1.520,18.416 1.541,12.100 1.534 C 8.954 1.531,6.317 1.541,6.240 1.557 M17.101 2.750 C 16.850 3.184,15.574 5.394,14.265 7.660 L 11.886 11.780 8.883 11.790 C 7.231 11.796,5.880 11.787,5.880 11.769 C 5.880 11.752,6.960 9.869,8.280 7.585 C 9.600 5.300,10.680 3.424,10.680 3.416 C 10.680 3.408,10.590 3.356,10.480 3.300 L 10.281 3.199 8.893 3.209 L 7.505 3.220 4.979 7.459 C 2.522 11.583,2.450 11.698,2.317 11.725 C 2.242 11.739,1.798 11.760,1.330 11.770 L 0.480 11.789 0.555 11.664 C 0.597 11.596,1.847 9.438,3.335 6.870 C 4.823 4.301,6.061 2.165,6.088 2.122 C 6.114 2.080,6.173 2.027,6.218 2.005 C 6.271 1.979,8.281 1.964,11.928 1.963 L 17.557 1.960 17.101 2.750 M20.790 7.080 C 22.310 9.709,23.560 11.892,23.567 11.930 C 23.579 11.994,17.966 21.841,17.920 21.838 C 17.909 21.837,17.656 21.410,17.357 20.888 C 17.059 20.367,15.784 18.155,14.525 15.974 L 12.236 12.009 14.923 7.354 C 16.401 4.794,17.682 2.577,17.769 2.427 C 17.912 2.181,17.933 2.160,17.976 2.227 C 18.003 2.267,19.269 4.451,20.790 7.080 M7.792 7.590 C 6.538 9.763,5.475 11.611,5.431 11.697 C 5.373 11.812,5.356 11.905,5.369 12.044 C 5.389 12.246,5.234 11.971,8.753 18.060 L 10.071 20.340 8.848 20.351 C 8.176 20.356,7.612 20.347,7.596 20.331 C 7.570 20.304,2.966 12.355,2.845 12.130 C 2.802 12.049,3.015 11.660,5.142 7.930 C 6.432 5.670,7.513 3.780,7.544 3.730 L 7.602 3.640 8.837 3.640 L 10.072 3.640 7.792 7.590 M17.797 5.650 C 17.669 5.812,16.320 8.192,16.320 8.257 C 16.320 8.283,16.752 9.108,17.279 10.091 L 18.238 11.878 17.275 13.678 L 16.312 15.478 17.060 16.929 C 17.472 17.727,17.815 18.386,17.822 18.394 C 17.829 18.402,17.912 18.366,18.006 18.314 C 18.167 18.225,18.264 18.068,19.913 15.220 C 21.347 12.743,21.653 12.189,21.668 12.040 C 21.685 11.864,21.644 11.789,19.901 8.780 C 18.919 7.086,18.089 5.660,18.057 5.610 C 17.977 5.488,17.918 5.497,17.797 5.650 M19.605 9.104 C 21.012 11.536,21.239 11.950,21.205 12.024 C 21.166 12.110,18.183 17.380,18.031 17.632 L 17.951 17.765 17.335 16.686 L 16.719 15.608 17.687 13.934 C 18.536 12.464,18.656 12.235,18.671 12.057 C 18.693 11.809,18.771 11.966,17.653 10.031 C 17.161 9.179,16.748 8.456,16.736 8.423 C 16.723 8.390,16.949 7.946,17.262 7.392 C 17.900 6.261,17.920 6.227,17.945 6.252 C 17.956 6.263,18.703 7.546,19.605 9.104 M4.796 16.343 C 6.107 18.610,7.209 20.508,7.244 20.561 L 7.307 20.657 8.904 20.727 C 9.782 20.766,10.523 20.790,10.550 20.780 C 10.579 20.770,10.600 20.692,10.600 20.590 C 10.600 20.436,10.363 20.008,8.256 16.361 C 6.966 14.129,5.902 12.280,5.891 12.252 C 5.875 12.210,6.436 12.200,8.866 12.200 L 11.861 12.200 14.681 17.083 C 16.231 19.769,17.506 21.983,17.513 22.003 C 17.521 22.026,15.328 22.040,11.893 22.039 C 6.616 22.038,6.255 22.034,6.175 21.969 C 6.129 21.931,4.862 19.776,3.360 17.180 C 1.859 14.584,0.595 12.401,0.551 12.329 L 0.473 12.199 1.442 12.209 L 2.411 12.220 4.796 16.343 " stroke="none" fill="black" fill-rule="evenodd"></path></svg>