<svg role="img" viewBox="0 0 24 24" xmlns="http://www.w3.org/2000/svg"><path d="M10.940 0.046 C 9.116 0.205,7.451 0.754,5.770 1.749 C 5.566 1.869,5.400 1.972,5.400 1.977 C 5.400 1.982,5.530 1.941,5.690 1.886 C 6.084 1.750,6.839 1.722,7.458 1.819 C 8.569 1.993,10.138 2.561,11.529 3.293 L 11.997 3.540 12.469 3.293 C 13.875 2.556,15.433 1.993,16.542 1.819 C 17.113 1.729,17.911 1.753,18.270 1.870 C 18.407 1.915,18.520 1.945,18.520 1.937 C 18.520 1.929,18.335 1.812,18.110 1.678 C 15.977 0.408,13.431 -0.172,10.940 0.046 M3.600 3.459 C 3.366 3.590,2.491 4.643,1.996 5.389 C -0.768 9.559,-0.651 14.972,2.292 19.050 C 2.447 19.264,2.580 19.434,2.587 19.426 C 2.595 19.419,2.574 19.337,2.541 19.244 C 2.261 18.449,2.485 17.084,3.170 15.420 C 4.118 13.115,6.096 9.931,8.272 7.206 L 8.730 6.632 8.455 6.352 C 7.415 5.293,5.957 4.158,5.052 3.705 C 4.498 3.427,3.853 3.318,3.600 3.459 M19.416 3.514 C 18.810 3.725,18.082 4.170,17.235 4.848 C 16.731 5.250,15.882 6.009,15.505 6.393 L 15.271 6.632 15.668 7.126 C 17.813 9.791,19.880 13.111,20.830 15.420 C 21.515 17.084,21.739 18.449,21.459 19.244 C 21.426 19.337,21.405 19.419,21.413 19.426 C 21.420 19.434,21.555 19.263,21.711 19.046 C 24.692 14.934,24.763 9.422,21.889 5.220 C 21.426 4.542,20.600 3.570,20.389 3.452 C 20.225 3.361,19.771 3.390,19.416 3.514 M11.653 9.887 C 9.723 11.409,7.352 13.838,5.839 15.841 C 4.537 17.565,3.841 18.940,3.773 19.924 C 3.727 20.590,3.851 20.836,4.500 21.357 C 7.307 23.609,10.963 24.481,14.488 23.737 C 16.345 23.345,18.052 22.532,19.540 21.331 C 19.901 21.039,20.000 20.935,20.097 20.745 C 20.698 19.571,19.381 17.052,16.466 13.800 C 15.797 13.054,14.342 11.603,13.604 10.947 C 12.968 10.382,12.059 9.640,12.002 9.640 C 11.982 9.640,11.825 9.751,11.653 9.887 " stroke="none" fill="black" fill-rule="evenodd"></path></svg>