<svg role="img" viewBox="0 0 24 24" xmlns="http://www.w3.org/2000/svg"><path d="M10.940 0.046 C 6.260 0.450,2.189 3.634,0.659 8.086 C -1.484 14.319,1.792 21.115,7.997 23.309 C 12.365 24.853,17.202 23.757,20.480 20.480 C 24.710 16.252,25.180 9.567,21.584 4.785 C 19.301 1.748,15.709 -0.028,11.920 0.006 C 11.601 0.009,11.160 0.027,10.940 0.046 M3.072 9.337 C 3.131 9.369,3.639 9.855,4.200 10.417 L 5.219 11.440 6.260 10.404 C 6.832 9.835,7.339 9.349,7.387 9.324 C 7.528 9.253,7.630 9.272,7.767 9.395 C 7.868 9.485,7.896 9.542,7.896 9.657 C 7.896 9.795,7.837 9.863,6.818 10.882 L 5.741 11.960 6.788 13.010 C 7.365 13.587,7.855 14.110,7.878 14.172 C 7.909 14.256,7.905 14.318,7.863 14.419 C 7.797 14.576,7.697 14.640,7.514 14.640 C 7.396 14.640,7.276 14.533,6.301 13.560 L 5.219 12.481 4.159 13.542 C 3.577 14.125,3.060 14.613,3.010 14.626 C 2.773 14.687,2.560 14.516,2.560 14.264 C 2.560 14.107,2.585 14.078,3.629 13.032 L 4.698 11.960 3.629 10.888 C 2.584 9.841,2.560 9.813,2.560 9.655 C 2.560 9.539,2.585 9.471,2.650 9.412 C 2.805 9.271,2.911 9.252,3.072 9.337 M19.429 9.416 C 20.810 9.863,21.598 11.419,21.137 12.792 C 20.985 13.248,20.824 13.503,20.462 13.863 C 19.894 14.429,19.267 14.667,18.446 14.631 C 17.727 14.600,17.206 14.366,16.680 13.840 C 16.242 13.402,16.008 12.921,15.920 12.279 C 15.771 11.192,16.371 10.074,17.369 9.581 C 17.852 9.342,18.148 9.278,18.680 9.296 C 18.997 9.306,19.181 9.336,19.429 9.416 M11.120 9.382 C 11.494 9.469,11.992 9.729,12.273 9.983 C 12.587 10.268,12.864 10.687,13.006 11.095 C 13.194 11.636,13.145 11.941,12.834 12.171 C 12.732 12.247,12.657 12.249,10.679 12.243 L 8.629 12.236 8.656 12.403 C 8.718 12.793,9.081 13.327,9.445 13.567 C 10.048 13.964,10.717 14.017,11.359 13.718 C 11.558 13.625,11.699 13.515,11.951 13.253 C 12.273 12.920,12.287 12.911,12.431 12.934 C 12.618 12.963,12.760 13.119,12.760 13.292 C 12.759 13.673,12.028 14.321,11.343 14.548 C 11.062 14.641,10.955 14.655,10.520 14.655 C 10.086 14.655,9.978 14.641,9.699 14.548 C 9.291 14.413,8.942 14.202,8.642 13.909 C 8.312 13.586,8.125 13.285,7.964 12.820 C 7.843 12.469,7.826 12.371,7.825 12.020 C 7.824 11.261,8.081 10.637,8.616 10.098 C 9.141 9.568,9.723 9.329,10.500 9.324 C 10.698 9.322,10.977 9.349,11.120 9.382 M15.907 9.416 C 15.996 9.492,16.018 9.545,16.018 9.680 C 16.018 9.915,15.891 10.019,15.556 10.057 C 15.128 10.106,14.939 10.214,14.786 10.500 C 14.703 10.655,14.699 10.715,14.680 12.500 C 14.665 13.886,14.647 14.362,14.609 14.429 C 14.499 14.623,14.232 14.658,14.052 14.503 L 13.940 14.407 13.940 11.980 L 13.940 9.553 14.052 9.457 C 14.208 9.323,14.413 9.326,14.542 9.466 C 14.596 9.524,14.640 9.588,14.640 9.609 C 14.640 9.629,14.696 9.606,14.764 9.557 C 14.942 9.430,15.304 9.325,15.568 9.322 C 15.752 9.320,15.817 9.338,15.907 9.416 M10.070 10.083 C 9.814 10.144,9.437 10.359,9.210 10.573 C 8.975 10.795,8.836 11.006,8.716 11.320 L 8.640 11.520 10.537 11.520 L 12.434 11.520 12.401 11.402 C 12.231 10.810,11.606 10.223,10.996 10.082 C 10.785 10.034,10.278 10.034,10.070 10.083 M18.084 10.103 C 17.558 10.245,17.093 10.634,16.861 11.128 C 16.388 12.131,16.784 13.233,17.789 13.711 C 18.060 13.840,18.142 13.859,18.472 13.873 C 18.935 13.894,19.265 13.814,19.591 13.602 C 20.260 13.166,20.612 12.409,20.488 11.670 C 20.298 10.543,19.174 9.810,18.084 10.103 M18.981 11.431 C 19.329 11.687,19.319 12.271,18.964 12.500 C 18.656 12.699,18.342 12.663,18.107 12.402 C 17.667 11.915,18.092 11.188,18.734 11.329 C 18.819 11.347,18.930 11.393,18.981 11.431 " stroke="none" fill="black" fill-rule="evenodd"></path></svg>