<svg role="img" xmlns="http://www.w3.org/2000/svg" viewBox="0 0 24 24"><path d="M10.940 0.046 C 6.260 0.450,2.189 3.634,0.659 8.086 C -1.484 14.319,1.792 21.115,7.997 23.309 C 12.364 24.853,17.204 23.756,20.480 20.480 C 24.710 16.250,25.180 9.567,21.584 4.785 C 19.301 1.748,15.709 -0.028,11.920 0.006 C 11.601 0.009,11.160 0.027,10.940 0.046 M13.380 1.460 C 16.390 1.856,19.092 3.510,20.797 6.000 C 23.014 9.238,23.270 13.410,21.465 16.901 C 18.969 21.730,13.214 23.911,8.170 21.939 C 5.112 20.743,2.774 18.213,1.825 15.073 C 1.384 13.612,1.266 11.911,1.502 10.391 C 2.016 7.069,4.097 4.158,7.080 2.586 C 8.301 1.943,9.728 1.529,11.176 1.398 C 11.681 1.353,12.806 1.384,13.380 1.460 M11.927 2.085 C 11.886 2.181,11.649 2.777,11.400 3.409 L 10.948 4.558 11.139 4.843 C 11.611 5.546,11.595 5.895,11.064 6.452 C 10.524 7.019,10.358 7.457,10.323 8.411 L 10.300 9.042 8.340 7.916 C 5.848 6.485,5.880 6.503,5.843 6.545 C 5.795 6.600,5.317 7.450,5.329 7.459 C 5.335 7.464,6.461 8.113,7.831 8.903 L 10.323 10.338 10.311 10.677 L 10.300 11.017 10.008 11.188 C 9.722 11.357,9.714 11.359,9.594 11.297 C 9.469 11.232,5.079 8.694,4.854 8.555 L 4.728 8.478 4.464 8.938 C 4.319 9.190,4.200 9.411,4.201 9.429 C 4.201 9.446,5.182 10.026,6.381 10.717 C 7.579 11.409,8.560 11.986,8.560 11.999 C 8.560 12.012,8.357 12.139,8.110 12.280 C 7.332 12.724,6.853 13.299,6.718 13.949 C 6.583 14.604,6.168 14.894,5.520 14.786 L 5.340 14.756 4.322 15.776 C 3.762 16.338,3.312 16.805,3.322 16.814 C 3.342 16.833,6.081 16.654,6.098 16.633 C 6.104 16.626,6.176 16.490,6.259 16.330 C 6.538 15.794,6.825 15.561,7.216 15.554 C 7.307 15.552,7.543 15.591,7.740 15.640 C 8.028 15.712,8.171 15.726,8.459 15.710 C 8.919 15.685,9.209 15.585,9.779 15.258 C 10.026 15.116,10.240 15.000,10.254 15.000 C 10.268 15.000,10.284 16.139,10.290 17.530 L 10.300 20.060 10.850 20.071 L 11.400 20.082 11.400 17.191 L 11.401 14.300 11.697 14.131 L 11.993 13.962 12.296 14.131 L 12.598 14.300 12.599 17.190 L 12.600 20.080 13.140 20.080 L 13.680 20.080 13.680 17.520 C 13.680 16.112,13.691 14.960,13.705 14.960 C 13.719 14.960,13.949 15.084,14.215 15.236 C 14.482 15.388,14.787 15.541,14.894 15.577 C 15.369 15.736,15.954 15.737,16.396 15.581 C 16.657 15.489,16.911 15.503,17.151 15.623 C 17.383 15.739,17.585 15.981,17.625 16.190 C 17.641 16.275,17.682 16.340,17.735 16.362 C 17.837 16.406,20.531 17.123,20.543 17.109 C 20.547 17.104,20.587 17.039,20.632 16.965 L 20.713 16.830 19.850 15.825 L 18.987 14.820 18.504 14.820 C 18.068 14.820,18.000 14.810,17.820 14.720 C 17.551 14.585,17.388 14.359,17.299 13.997 C 17.117 13.253,16.687 12.736,15.869 12.274 L 15.398 12.009 15.729 11.817 C 15.911 11.712,16.267 11.506,16.520 11.359 C 16.773 11.212,17.614 10.727,18.390 10.281 C 19.166 9.834,19.800 9.451,19.800 9.430 C 19.800 9.370,19.305 8.521,19.270 8.521 C 19.253 8.520,18.131 9.159,16.777 9.940 C 15.422 10.721,14.308 11.360,14.301 11.360 C 14.293 11.360,14.159 11.286,14.002 11.196 L 13.717 11.031 13.729 10.670 L 13.740 10.308 14.860 9.661 C 15.476 9.305,16.583 8.666,17.320 8.241 C 18.057 7.816,18.666 7.464,18.673 7.458 C 18.693 7.441,18.156 6.520,18.127 6.520 C 18.112 6.520,17.119 7.087,15.920 7.780 L 13.740 9.039 13.712 8.436 C 13.697 8.105,13.664 7.735,13.639 7.615 C 13.565 7.261,13.309 6.800,13.005 6.473 C 12.655 6.098,12.586 5.964,12.586 5.660 C 12.586 5.392,12.659 5.214,12.850 5.013 L 12.971 4.885 12.575 3.457 C 12.248 2.274,12.165 2.020,12.091 1.970 C 12.004 1.913,11.998 1.918,11.927 2.085 M12.318 7.515 C 12.371 7.553,12.452 7.635,12.498 7.695 C 12.575 7.798,12.581 7.869,12.592 8.754 L 12.604 9.702 12.304 9.873 L 12.003 10.043 11.702 9.872 L 11.401 9.700 11.400 8.809 C 11.400 7.851,11.418 7.745,11.610 7.568 C 11.801 7.391,12.114 7.368,12.318 7.515 M12.345 11.424 L 12.683 11.608 12.671 12.012 L 12.660 12.416 12.334 12.604 L 12.007 12.792 11.674 12.606 L 11.340 12.420 11.329 12.020 L 11.319 11.620 11.649 11.431 C 11.831 11.327,11.986 11.242,11.994 11.241 C 12.001 11.241,12.160 11.323,12.345 11.424 M10.020 12.815 L 10.300 12.983 10.311 13.326 L 10.323 13.669 9.538 14.120 C 8.679 14.614,8.531 14.662,8.281 14.532 C 8.080 14.428,7.960 14.229,7.960 14.000 C 7.960 13.684,8.049 13.600,8.920 13.094 C 9.349 12.845,9.709 12.642,9.720 12.643 C 9.731 12.645,9.866 12.722,10.020 12.815 M15.047 13.063 C 15.450 13.296,15.830 13.534,15.891 13.591 C 16.305 13.984,15.895 14.712,15.333 14.581 C 15.271 14.567,14.887 14.362,14.480 14.125 L 13.740 13.695 13.729 13.333 L 13.717 12.971 13.989 12.810 C 14.138 12.721,14.272 12.646,14.287 12.644 C 14.302 12.642,14.644 12.830,15.047 13.063 " stroke="none" fill="black" fill-rule="evenodd"></path></svg>