<svg role="img" xmlns="http://www.w3.org/2000/svg" viewBox="0 0 24 24"><path d="M9.292 0.078 C 9.222 0.121,9.134 0.215,9.097 0.286 C 9.054 0.368,8.952 0.965,8.816 1.918 C 8.698 2.744,8.592 3.477,8.580 3.547 C 8.562 3.647,8.529 3.684,8.427 3.718 C 8.228 3.784,7.470 4.215,6.975 4.545 L 6.529 4.841 5.055 4.255 C 4.244 3.933,3.497 3.652,3.395 3.630 C 3.159 3.581,2.967 3.663,2.831 3.873 C 2.779 3.954,2.188 4.965,1.518 6.119 C 0.342 8.146,0.300 8.226,0.300 8.429 C 0.300 8.609,0.317 8.655,0.420 8.757 C 0.486 8.821,1.095 9.305,1.774 9.832 L 3.007 10.790 3.007 12.000 L 3.007 13.210 1.774 14.168 C 1.095 14.695,0.486 15.179,0.420 15.243 C 0.317 15.345,0.300 15.391,0.300 15.571 C 0.300 15.772,0.341 15.851,1.357 17.600 C 2.894 20.247,2.899 20.256,3.022 20.321 C 3.245 20.441,3.407 20.395,4.999 19.764 L 6.535 19.156 6.643 19.236 C 7.120 19.589,8.212 20.224,8.515 20.325 C 8.549 20.336,8.641 20.871,8.799 21.970 C 9.051 23.733,9.070 23.803,9.321 23.930 C 9.449 23.994,9.661 24.000,12.000 24.000 C 14.339 24.000,14.551 23.994,14.679 23.930 C 14.928 23.804,14.950 23.725,15.183 22.089 C 15.301 21.259,15.408 20.523,15.420 20.453 C 15.439 20.346,15.472 20.314,15.628 20.255 C 15.874 20.161,16.693 19.690,17.126 19.394 L 17.471 19.157 19.005 19.765 C 20.589 20.393,20.755 20.440,20.974 20.323 C 21.109 20.251,21.083 20.293,22.505 17.841 C 23.658 15.854,23.700 15.774,23.700 15.571 C 23.700 15.391,23.683 15.345,23.580 15.243 C 23.514 15.179,22.905 14.695,22.226 14.168 L 20.993 13.210 20.993 12.000 L 20.993 10.790 22.226 9.832 C 22.905 9.305,23.514 8.821,23.580 8.757 C 23.683 8.655,23.700 8.609,23.700 8.429 C 23.700 8.226,23.658 8.146,22.505 6.159 C 21.083 3.707,21.109 3.749,20.974 3.677 C 20.755 3.560,20.588 3.607,19.010 4.233 L 17.483 4.838 16.974 4.498 C 16.694 4.311,16.238 4.047,15.962 3.911 C 15.686 3.775,15.454 3.660,15.446 3.655 C 15.439 3.650,15.329 2.919,15.202 2.031 C 15.054 1.001,14.946 0.369,14.903 0.286 C 14.866 0.215,14.778 0.121,14.708 0.078 C 14.585 0.003,14.488 0.000,12.000 0.000 C 9.512 0.000,9.415 0.003,9.292 0.078 M12.565 10.180 C 14.201 11.160,15.540 11.978,15.540 12.000 C 15.540 12.032,9.627 15.600,9.575 15.600 C 9.567 15.600,9.560 13.980,9.560 12.000 C 9.560 10.020,9.567 8.400,9.575 8.400 C 9.583 8.400,10.928 9.201,12.565 10.180 " stroke="none" fill="black" fill-rule="evenodd"></path></svg>