<svg role="img" xmlns="http://www.w3.org/2000/svg" viewBox="0 0 24 24"><path d="M3.000 5.394 L 0.020 7.184 0.020 10.200 L 0.020 13.216 6.010 16.810 L 12.000 20.404 17.990 16.810 L 23.980 13.216 23.980 10.200 L 23.980 7.184 20.990 5.390 L 18.000 3.596 15.000 5.396 L 12.000 7.196 9.030 5.413 C 7.396 4.433,6.042 3.624,6.020 3.617 C 5.998 3.609,4.639 4.409,3.000 5.394 M6.000 8.400 L 6.000 9.600 7.200 9.600 L 8.400 9.600 8.400 10.200 L 8.400 10.800 7.200 10.800 L 6.000 10.800 6.000 12.000 L 6.000 13.200 5.400 13.200 L 4.800 13.200 4.800 12.000 L 4.800 10.800 3.600 10.800 L 2.400 10.800 2.400 10.200 L 2.400 9.600 3.600 9.600 L 4.800 9.600 4.800 8.400 L 4.800 7.200 5.400 7.200 L 6.000 7.200 6.000 8.400 M19.737 8.537 C 20.156 8.742,20.378 9.111,20.378 9.600 C 20.378 9.941,20.295 10.169,20.083 10.410 C 19.758 10.781,19.134 10.895,18.673 10.668 C 18.032 10.354,17.813 9.557,18.199 8.948 C 18.518 8.445,19.185 8.267,19.737 8.537 M16.137 10.937 C 16.556 11.142,16.778 11.511,16.778 12.000 C 16.778 12.341,16.695 12.569,16.483 12.810 C 16.158 13.181,15.534 13.295,15.073 13.068 C 14.432 12.754,14.213 11.957,14.599 11.348 C 14.918 10.845,15.585 10.667,16.137 10.937 " stroke="none" fill="black" fill-rule="evenodd"></path></svg>