<svg role="img" xmlns="http://www.w3.org/2000/svg" viewBox="0 0 24 24"><path d="M16.560 10.267 C 12.479 15.643,9.115 20.077,9.085 20.121 L 9.029 20.202 15.125 20.191 L 21.220 20.180 21.609 20.045 C 22.113 19.871,22.532 19.623,22.885 19.290 C 23.478 18.730,23.850 18.023,23.960 17.249 C 23.990 17.032,24.000 14.500,23.992 8.717 L 23.980 0.493 16.560 10.267 M2.900 3.819 C 2.878 3.826,2.725 3.863,2.560 3.900 C 2.224 3.976,1.705 4.204,1.413 4.404 C 0.734 4.869,0.242 5.609,0.078 6.412 C 0.002 6.783,0.000 7.006,0.010 15.150 L 0.020 23.507 7.400 13.832 C 11.459 8.511,14.840 4.077,14.914 3.979 L 15.048 3.800 8.994 3.803 C 5.664 3.805,2.922 3.812,2.900 3.819 " stroke="none" fill="black" fill-rule="evenodd"></path></svg>