<svg role="img" viewBox="0 0 24 24" xmlns="http://www.w3.org/2000/svg"><path d="M7.020 9.037 C 5.815 9.235,4.881 10.064,4.553 11.228 C 4.430 11.665,4.430 12.335,4.553 12.772 C 4.807 13.674,5.448 14.403,6.298 14.756 C 6.590 14.878,7.161 15.000,7.440 15.000 C 7.719 15.000,8.290 14.878,8.582 14.756 C 9.455 14.393,10.123 13.610,10.347 12.689 C 10.433 12.336,10.433 11.664,10.347 11.311 C 10.087 10.239,9.240 9.380,8.171 9.103 C 7.874 9.026,7.292 8.993,7.020 9.037 M13.499 9.037 C 12.274 9.233,11.302 10.120,10.996 11.323 C 10.924 11.605,10.924 12.395,10.996 12.677 C 11.269 13.750,12.083 14.588,13.142 14.885 C 13.550 15.000,14.206 15.008,14.620 14.903 C 15.690 14.633,16.527 13.801,16.803 12.732 C 16.967 12.098,16.888 11.304,16.603 10.707 C 16.238 9.942,15.442 9.291,14.640 9.101 C 14.318 9.025,13.766 8.994,13.499 9.037 M18.660 9.093 C 18.196 9.248,17.885 9.518,17.671 9.951 L 17.540 10.218 17.528 11.793 C 17.520 12.949,17.529 13.383,17.563 13.424 C 17.613 13.484,17.944 13.501,18.028 13.448 C 18.063 13.426,18.079 13.025,18.088 11.919 C 18.100 10.452,18.102 10.416,18.192 10.220 C 18.351 9.875,18.597 9.680,18.949 9.622 C 19.170 9.585,19.495 9.680,19.686 9.839 C 19.873 9.993,20.040 10.325,20.040 10.541 C 20.040 11.079,19.590 11.557,19.080 11.560 C 18.849 11.562,18.802 11.594,18.759 11.784 C 18.706 12.020,18.744 12.113,18.907 12.144 C 19.441 12.244,20.173 11.825,20.462 11.253 C 20.570 11.039,20.580 10.985,20.580 10.600 C 20.580 10.228,20.568 10.154,20.473 9.951 C 20.325 9.637,20.042 9.346,19.737 9.195 C 19.531 9.094,19.424 9.069,19.152 9.056 C 18.941 9.046,18.762 9.060,18.660 9.093 M0.256 9.110 C 0.132 9.194,0.120 9.329,0.120 10.671 C 0.120 12.186,0.109 12.125,0.404 12.180 C 0.540 12.205,0.562 12.193,0.805 11.953 C 1.519 11.251,2.353 11.187,3.000 11.786 C 3.919 12.638,3.500 14.104,2.265 14.359 C 1.633 14.490,0.922 14.125,0.643 13.526 C 0.527 13.279,0.430 13.239,0.214 13.346 C -0.025 13.465,-0.034 13.515,0.122 13.827 C 0.385 14.348,0.946 14.794,1.500 14.921 C 1.968 15.029,2.533 14.956,2.978 14.731 C 3.253 14.592,3.715 14.116,3.851 13.833 C 4.331 12.832,4.023 11.711,3.103 11.113 C 2.771 10.897,2.430 10.800,2.003 10.800 C 1.599 10.800,1.325 10.870,0.970 11.063 L 0.720 11.198 0.720 10.420 L 0.720 9.641 2.109 9.631 L 3.497 9.620 3.534 9.490 C 3.557 9.410,3.557 9.310,3.534 9.230 L 3.497 9.100 1.899 9.090 C 1.019 9.085,0.280 9.094,0.256 9.110 M21.044 9.222 C 20.937 9.343,20.926 9.376,20.964 9.452 C 20.989 9.500,21.245 9.778,21.533 10.069 L 22.058 10.599 21.509 11.153 C 21.115 11.550,20.960 11.733,20.960 11.801 C 20.960 11.919,21.147 12.120,21.257 12.120 C 21.309 12.120,21.547 11.913,21.909 11.551 L 22.480 10.981 23.051 11.551 C 23.430 11.929,23.650 12.120,23.707 12.120 C 23.803 12.120,24.000 11.910,24.000 11.807 C 24.000 11.771,23.744 11.484,23.431 11.171 L 22.861 10.600 23.431 10.029 C 23.744 9.716,24.000 9.429,24.000 9.393 C 24.000 9.300,23.807 9.080,23.726 9.080 C 23.690 9.080,23.392 9.335,23.066 9.645 L 22.471 10.210 21.905 9.645 C 21.531 9.272,21.310 9.080,21.254 9.080 C 21.206 9.080,21.113 9.143,21.044 9.222 M7.900 9.700 C 8.599 9.846,9.217 10.317,9.522 10.936 C 9.783 11.466,9.851 11.934,9.741 12.451 C 9.542 13.392,8.835 14.101,7.899 14.300 C 7.548 14.374,7.334 14.374,6.980 14.300 C 6.316 14.161,5.683 13.695,5.390 13.130 C 5.154 12.675,5.101 12.468,5.101 12.000 C 5.101 11.696,5.122 11.519,5.176 11.360 C 5.403 10.688,5.812 10.196,6.376 9.918 C 6.908 9.655,7.370 9.589,7.900 9.700 M14.380 9.700 C 15.259 9.885,15.999 10.608,16.203 11.480 C 16.496 12.740,15.654 14.032,14.360 14.304 C 13.170 14.555,11.947 13.780,11.640 12.581 C 11.539 12.183,11.538 11.817,11.640 11.420 C 11.951 10.202,13.159 9.444,14.380 9.700 " stroke="none" fill="black" fill-rule="evenodd"></path></svg>