<svg role="img" viewBox="0 0 24 24" xmlns="http://www.w3.org/2000/svg"><path d="M3.510 3.510 L -0.000 7.020 0.000 12.000 L 0.000 16.980 3.510 20.490 L 7.020 24.000 12.000 24.000 L 16.980 24.000 20.490 20.490 L 24.000 16.980 24.000 12.000 L 24.000 7.020 20.490 3.510 L 16.980 0.000 12.000 0.000 L 7.020 0.000 3.510 3.510 M20.150 3.850 L 23.520 7.220 23.520 12.000 L 23.520 16.780 20.150 20.150 L 16.780 23.520 12.000 23.520 L 7.220 23.520 3.850 20.150 L 0.480 16.780 0.480 12.000 L 0.480 7.220 3.850 3.850 L 7.220 0.480 12.000 0.480 L 16.780 0.480 20.150 3.850 M4.810 4.810 L 1.840 7.780 1.840 12.000 L 1.840 16.220 4.810 19.190 L 7.780 22.160 12.000 22.160 L 16.220 22.160 19.190 19.190 L 22.160 16.220 22.160 12.000 L 22.160 7.780 19.190 4.810 L 16.220 1.840 12.000 1.840 L 7.780 1.840 4.810 4.810 M7.512 11.850 C 8.134 14.143,8.642 16.034,8.641 16.050 C 8.641 16.067,8.254 16.080,7.782 16.080 L 6.923 16.080 6.885 15.930 C 6.864 15.848,6.761 15.398,6.656 14.930 L 6.466 14.080 5.354 14.080 L 4.242 14.080 4.220 14.170 C 4.147 14.483,3.800 16.045,3.800 16.061 C 3.800 16.071,3.421 16.080,2.957 16.080 C 2.174 16.080,2.116 16.075,2.135 16.010 C 2.146 15.972,2.652 14.104,3.260 11.860 C 3.867 9.616,4.372 7.758,4.381 7.730 C 4.394 7.692,4.631 7.680,5.389 7.680 L 6.381 7.680 7.512 11.850 M13.259 7.774 C 13.651 7.866,14.083 8.082,14.320 8.304 C 14.669 8.631,14.879 9.185,14.880 9.784 C 14.880 10.053,14.749 10.557,14.613 10.806 C 14.475 11.059,14.103 11.406,13.864 11.505 C 13.763 11.546,13.680 11.591,13.680 11.605 C 13.680 11.619,13.809 11.671,13.966 11.722 C 14.869 12.012,15.295 12.713,15.227 13.798 C 15.169 14.728,14.768 15.355,13.986 15.741 C 13.368 16.046,13.096 16.080,11.239 16.080 L 9.680 16.080 9.680 11.877 L 9.680 7.674 11.330 7.691 C 12.678 7.705,13.031 7.720,13.259 7.774 M20.020 7.778 C 20.174 7.816,20.445 7.917,20.623 8.001 C 21.183 8.269,21.606 8.805,21.789 9.480 C 21.890 9.851,21.888 10.913,21.787 11.280 C 21.529 12.211,20.872 12.866,19.940 13.121 C 19.678 13.193,19.474 13.213,18.810 13.229 L 18.000 13.250 18.000 14.665 L 18.000 16.080 17.180 16.080 L 16.360 16.080 16.360 11.877 L 16.360 7.674 18.050 7.691 C 19.483 7.705,19.782 7.718,20.020 7.778 M5.145 10.050 C 5.041 10.563,4.876 11.324,4.779 11.742 C 4.681 12.159,4.601 12.523,4.600 12.550 C 4.600 12.588,4.778 12.600,5.360 12.600 C 5.778 12.600,6.120 12.585,6.120 12.566 C 6.120 12.533,6.047 12.201,5.807 11.140 C 5.743 10.854,5.622 10.296,5.540 9.900 C 5.457 9.504,5.377 9.166,5.361 9.149 C 5.346 9.132,5.249 9.537,5.145 10.050 M11.320 10.120 L 11.320 11.080 11.812 11.080 C 12.631 11.080,12.960 10.945,13.149 10.532 C 13.235 10.345,13.246 10.270,13.234 9.981 C 13.219 9.612,13.163 9.495,12.925 9.333 C 12.737 9.205,12.460 9.160,11.858 9.160 L 11.320 9.160 11.320 10.120 M18.000 10.459 L 18.000 11.726 18.710 11.713 C 19.394 11.700,19.428 11.696,19.649 11.587 C 20.084 11.374,20.257 11.036,20.259 10.400 C 20.260 9.922,20.183 9.702,19.940 9.488 C 19.681 9.260,19.553 9.231,18.730 9.211 L 18.000 9.192 18.000 10.459 M11.350 12.422 C 11.333 12.439,11.320 12.936,11.320 13.527 L 11.320 14.600 11.958 14.600 C 12.687 14.600,12.918 14.562,13.173 14.401 C 13.455 14.222,13.572 13.984,13.593 13.552 C 13.614 13.110,13.545 12.902,13.309 12.700 C 13.060 12.486,12.839 12.435,12.060 12.412 C 11.686 12.400,11.367 12.405,11.350 12.422 " stroke="none" fill="black" fill-rule="evenodd"></path></svg>