<svg role="img" viewBox="0 0 24 24" xmlns="http://www.w3.org/2000/svg"><path d="M14.480 3.027 C 12.425 3.239,10.761 3.958,9.187 5.316 C 8.993 5.483,8.795 5.652,8.747 5.690 C 8.669 5.753,8.602 5.757,8.093 5.730 C 6.565 5.649,5.455 5.870,4.180 6.508 C 1.870 7.666,0.308 9.963,0.042 12.594 C -0.046 13.463,0.017 14.300,0.239 15.220 C 0.698 17.126,1.952 18.854,3.621 19.882 C 4.315 20.309,5.248 20.682,6.020 20.841 C 6.773 20.996,7.145 21.005,11.660 20.990 C 16.460 20.975,16.227 20.986,17.320 20.716 C 20.178 20.010,22.552 17.779,23.528 14.881 C 23.799 14.076,24.000 12.827,24.000 11.943 C 24.000 11.461,23.880 10.456,23.760 9.935 C 23.070 6.942,20.855 4.465,17.990 3.484 C 16.948 3.127,15.429 2.929,14.480 3.027 M15.740 4.762 C 16.667 4.842,17.389 5.036,18.184 5.417 C 19.312 5.957,20.360 6.874,21.086 7.956 C 22.221 9.647,22.582 11.866,22.053 13.900 C 21.477 16.111,19.857 17.963,17.764 18.802 C 15.616 19.664,13.145 19.433,11.278 18.197 C 10.958 17.985,10.584 17.632,8.828 15.883 C 7.688 14.749,6.704 13.743,6.642 13.650 C 6.490 13.422,6.462 13.243,6.536 12.987 C 6.707 12.398,7.356 12.190,7.832 12.570 C 7.922 12.642,8.790 13.514,9.762 14.508 C 11.470 16.257,11.861 16.618,12.387 16.934 C 13.798 17.781,15.782 17.904,17.301 17.237 C 18.305 16.797,19.345 15.870,19.877 14.941 C 20.701 13.500,20.901 11.754,20.414 10.260 C 19.970 8.899,18.887 7.627,17.640 7.000 C 16.779 6.568,16.127 6.421,15.080 6.422 C 14.412 6.423,14.298 6.433,13.913 6.530 C 13.383 6.663,12.891 6.860,12.427 7.123 L 12.070 7.326 11.679 7.065 C 11.463 6.921,11.132 6.721,10.943 6.618 C 10.755 6.516,10.600 6.420,10.600 6.404 C 10.600 6.389,10.722 6.284,10.870 6.172 C 11.950 5.357,13.201 4.869,14.480 4.763 C 15.037 4.716,15.209 4.716,15.740 4.762 M8.394 7.503 C 9.367 7.647,10.264 8.058,11.127 8.754 C 11.595 9.131,14.037 11.629,14.125 11.820 C 14.311 12.225,14.139 12.700,13.740 12.884 C 13.342 13.068,13.027 12.953,12.562 12.456 C 12.420 12.304,11.822 11.691,11.234 11.094 C 9.868 9.707,9.544 9.482,8.522 9.210 C 8.192 9.122,8.055 9.108,7.520 9.107 C 6.977 9.106,6.852 9.119,6.515 9.209 C 4.892 9.645,3.663 10.972,3.379 12.595 C 2.997 14.774,4.357 16.926,6.469 17.485 C 6.699 17.546,6.969 17.574,7.501 17.594 C 8.149 17.617,8.233 17.628,8.328 17.704 C 8.387 17.750,8.782 18.125,9.206 18.537 L 9.977 19.286 8.339 19.269 C 6.980 19.256,6.649 19.241,6.400 19.184 C 4.106 18.662,2.413 16.987,1.882 14.714 C 1.218 11.871,2.733 8.912,5.380 7.883 C 6.393 7.489,7.424 7.359,8.394 7.503 " stroke="none" fill="black" fill-rule="evenodd"></path></svg>