<svg role="img" viewBox="0 0 24 24" xmlns="http://www.w3.org/2000/svg"><path d="M0.000 12.020 L 0.000 23.720 12.000 23.720 L 24.000 23.720 24.000 12.020 L 24.000 0.320 12.000 0.320 L 0.000 0.320 0.000 12.020 M23.000 12.020 L 23.000 22.720 12.000 22.720 L 1.000 22.720 1.000 12.020 L 1.000 1.320 12.000 1.320 L 23.000 1.320 23.000 12.020 M16.225 5.419 C 16.139 5.449,16.000 5.542,15.915 5.625 C 15.518 6.012,15.520 6.773,15.917 7.133 C 16.113 7.310,16.315 7.378,16.643 7.377 C 17.280 7.374,17.639 7.009,17.640 6.363 C 17.640 6.142,17.618 6.021,17.556 5.893 C 17.454 5.681,17.213 5.469,17.006 5.406 C 16.799 5.344,16.416 5.351,16.225 5.419 M8.733 6.050 C 8.696 6.391,8.444 7.316,7.243 11.512 C 6.449 14.291,5.809 16.582,5.822 16.602 C 5.835 16.624,6.197 16.640,6.663 16.640 C 7.474 16.640,7.482 16.639,7.520 16.550 C 7.542 16.500,7.722 15.839,7.921 15.080 C 8.121 14.321,8.293 13.668,8.305 13.630 C 8.324 13.564,8.428 13.560,9.932 13.570 L 11.538 13.580 11.943 15.064 C 12.166 15.881,12.361 16.569,12.376 16.594 C 12.419 16.663,14.240 16.659,14.240 16.590 C 14.240 16.563,13.517 14.088,12.633 11.090 L 11.025 5.640 9.901 5.640 L 8.777 5.640 8.733 6.050 M10.051 7.770 C 10.111 8.040,10.373 9.079,10.633 10.080 L 11.105 11.900 9.946 11.911 C 9.309 11.916,8.782 11.915,8.775 11.908 C 8.768 11.901,8.861 11.518,8.983 11.058 C 9.291 9.893,9.734 8.093,9.823 7.650 C 9.864 7.447,9.907 7.280,9.919 7.280 C 9.931 7.280,9.990 7.500,10.051 7.770 M15.770 8.546 C 15.730 8.562,15.720 9.399,15.720 12.540 C 15.720 14.725,15.731 16.542,15.744 16.577 C 15.765 16.632,15.883 16.640,16.644 16.640 L 17.520 16.640 17.510 12.590 L 17.500 8.540 16.660 8.533 C 16.198 8.529,15.798 8.535,15.770 8.546 " stroke="none" fill="black" fill-rule="evenodd"></path></svg>