<svg role="img" viewBox="0 0 24 24" xmlns="http://www.w3.org/2000/svg"><path d="M0.000 12.020 L 0.000 23.720 12.000 23.720 L 24.000 23.720 24.000 12.020 L 24.000 0.320 12.000 0.320 L 0.000 0.320 0.000 12.020 M23.000 12.020 L 23.000 22.720 12.000 22.720 L 1.000 22.720 1.000 12.020 L 1.000 1.320 12.000 1.320 L 23.000 1.320 23.000 12.020 M7.250 5.690 C 7.228 5.718,7.201 5.884,7.189 6.060 C 7.171 6.320,6.897 7.326,5.723 11.438 C 4.929 14.220,4.280 16.528,4.280 16.569 C 4.280 16.637,4.330 16.641,5.129 16.631 L 5.977 16.620 6.379 15.090 L 6.780 13.560 8.385 13.560 L 9.990 13.560 10.102 13.970 C 10.164 14.195,10.352 14.884,10.521 15.500 L 10.828 16.620 11.741 16.631 C 12.244 16.637,12.668 16.628,12.685 16.611 C 12.719 16.577,9.539 5.773,9.471 5.690 C 9.440 5.652,9.168 5.640,8.360 5.640 C 7.552 5.640,7.280 5.652,7.250 5.690 M8.638 8.280 C 8.748 8.731,9.000 9.725,9.199 10.488 C 9.398 11.252,9.560 11.887,9.560 11.898 C 9.560 11.910,9.038 11.920,8.400 11.920 C 7.561 11.920,7.240 11.907,7.240 11.875 C 7.240 11.850,7.329 11.494,7.437 11.085 C 7.835 9.587,8.316 7.594,8.364 7.249 C 8.371 7.201,8.429 7.421,8.638 8.280 M13.450 11.610 C 13.465 15.048,13.451 14.855,13.747 15.476 C 14.426 16.897,16.643 17.207,19.004 16.210 L 19.460 16.018 19.459 15.629 C 19.459 15.415,19.454 13.728,19.449 11.879 L 19.440 8.518 18.550 8.529 L 17.660 8.540 17.640 11.776 L 17.620 15.012 17.465 15.066 C 17.170 15.168,16.641 15.213,16.320 15.163 C 15.776 15.078,15.462 14.828,15.319 14.366 C 15.244 14.123,15.240 13.985,15.240 11.379 C 15.240 9.876,15.229 8.618,15.216 8.583 C 15.195 8.528,15.077 8.520,14.314 8.520 L 13.437 8.520 13.450 11.610 " stroke="none" fill="black" fill-rule="evenodd"></path></svg>