<svg role="img" viewBox="0 0 24 24" xmlns="http://www.w3.org/2000/svg"><path d="M11.140 0.047 C 10.436 0.181,9.941 0.721,9.774 1.536 C 9.717 1.818,9.720 2.088,9.816 5.071 C 9.874 6.847,10.020 11.414,10.141 15.220 C 10.308 20.492,10.375 22.207,10.420 22.420 C 10.546 23.016,10.904 23.510,11.386 23.753 C 11.660 23.891,12.134 24.000,12.463 24.000 C 12.587 24.000,13.789 23.810,15.134 23.578 C 18.840 22.939,18.891 22.930,20.224 22.699 C 21.388 22.497,21.769 22.401,21.976 22.258 C 22.022 22.226,22.156 22.105,22.273 21.990 C 22.646 21.622,22.960 20.832,22.960 20.258 C 22.960 20.121,22.843 18.257,22.700 16.116 C 22.347 10.843,22.016 5.699,21.940 4.340 C 21.906 3.724,21.851 3.089,21.817 2.930 C 21.670 2.246,21.220 1.671,20.590 1.362 L 20.260 1.200 18.380 0.922 C 17.346 0.769,15.735 0.536,14.800 0.403 C 11.795 -0.022,11.601 -0.041,11.140 0.047 M6.040 2.376 C 5.420 2.516,5.062 2.875,4.896 3.524 C 4.840 3.743,4.840 4.089,4.897 7.153 C 5.126 19.312,5.144 20.042,5.222 20.342 C 5.425 21.120,6.056 21.562,6.958 21.559 C 7.242 21.558,9.939 21.234,9.977 21.197 C 9.992 21.181,9.883 17.470,9.866 17.453 C 9.862 17.449,9.400 17.490,8.839 17.545 C 8.271 17.601,7.709 17.635,7.568 17.624 C 6.913 17.569,6.448 17.135,6.323 16.460 C 6.259 16.115,6.073 6.878,6.125 6.634 C 6.190 6.330,6.390 6.039,6.633 5.893 C 6.996 5.677,7.219 5.660,8.436 5.757 C 9.017 5.804,9.495 5.837,9.500 5.831 C 9.504 5.825,9.484 5.136,9.456 4.300 C 9.428 3.464,9.404 2.742,9.402 2.695 C 9.400 2.619,9.369 2.607,9.110 2.583 C 8.950 2.568,8.317 2.502,7.703 2.438 C 6.474 2.308,6.361 2.304,6.040 2.376 M16.320 4.539 C 20.102 4.824,19.906 4.796,20.324 5.103 C 20.433 5.183,20.593 5.348,20.681 5.471 C 20.948 5.844,20.989 6.048,21.060 7.350 C 21.136 8.744,21.318 11.798,21.484 14.480 C 21.551 15.569,21.599 16.604,21.590 16.780 C 21.553 17.509,21.047 18.061,20.234 18.259 C 20.094 18.293,18.504 18.472,16.700 18.657 C 14.151 18.918,13.371 18.985,13.200 18.960 C 12.422 18.843,11.950 18.347,11.806 17.496 C 11.784 17.366,11.755 16.900,11.741 16.460 C 11.701 15.116,11.524 10.144,11.438 7.900 C 11.393 6.734,11.368 5.690,11.383 5.580 C 11.427 5.251,11.552 4.975,11.762 4.745 C 12.014 4.469,12.329 4.333,12.828 4.285 C 12.854 4.282,14.426 4.397,16.320 4.539 M12.597 4.640 C 12.074 4.729,11.776 5.081,11.697 5.703 C 11.678 5.855,11.686 5.921,11.730 5.965 C 11.773 6.007,12.016 6.043,12.614 6.093 C 13.067 6.132,13.511 6.189,13.600 6.220 C 14.062 6.383,14.421 6.792,14.520 7.269 C 14.563 7.474,14.883 14.513,14.894 15.480 C 14.900 16.022,14.894 16.073,14.802 16.258 C 14.621 16.623,14.298 16.869,13.807 17.014 C 13.690 17.049,13.261 17.108,12.852 17.147 L 12.110 17.216 12.132 17.418 C 12.204 18.106,12.643 18.567,13.282 18.625 C 13.509 18.646,15.986 18.422,16.036 18.376 C 16.055 18.359,15.449 4.836,15.429 4.815 C 15.414 4.801,12.870 4.596,12.812 4.605 C 12.794 4.607,12.698 4.623,12.597 4.640 M1.727 5.154 C 1.485 5.240,1.272 5.426,1.148 5.660 C 1.031 5.881,1.022 6.296,1.076 8.914 C 1.100 10.094,1.147 12.446,1.180 14.140 C 1.213 15.834,1.258 17.359,1.279 17.530 C 1.341 18.022,1.536 18.305,1.940 18.485 C 2.246 18.622,2.664 18.626,3.799 18.502 C 4.338 18.443,4.781 18.392,4.784 18.388 C 4.800 18.366,4.719 15.786,4.702 15.769 C 4.691 15.757,4.349 15.771,3.942 15.800 C 3.536 15.828,3.101 15.841,2.976 15.828 C 2.706 15.800,2.425 15.642,2.290 15.441 C 2.094 15.151,2.088 15.073,2.022 12.020 C 1.937 8.116,1.937 8.096,2.053 7.876 C 2.114 7.761,2.213 7.659,2.340 7.580 C 2.526 7.465,2.552 7.460,2.997 7.460 C 3.252 7.460,3.708 7.475,4.010 7.493 L 4.560 7.526 4.560 6.713 C 4.560 6.266,4.548 5.755,4.534 5.577 L 4.509 5.254 3.665 5.182 C 2.336 5.069,1.979 5.064,1.727 5.154 M7.178 6.040 C 6.601 6.124,6.362 6.517,6.423 7.286 L 6.450 7.632 6.995 7.657 C 7.295 7.671,7.606 7.700,7.686 7.722 C 7.937 7.789,8.202 8.000,8.337 8.240 L 8.460 8.460 8.472 11.600 C 8.481 13.739,8.471 14.786,8.442 14.886 C 8.419 14.966,8.326 15.104,8.237 15.194 C 8.003 15.427,7.724 15.521,7.110 15.571 L 6.600 15.613 6.601 15.817 C 6.603 16.350,6.747 16.827,6.966 17.025 C 7.286 17.313,7.474 17.340,8.490 17.238 C 8.933 17.194,9.306 17.147,9.318 17.135 C 9.361 17.091,9.283 12.690,9.158 8.160 C 9.116 6.616,9.080 6.275,8.950 6.170 C 8.923 6.147,8.612 6.108,8.260 6.083 C 7.908 6.058,7.566 6.031,7.500 6.024 C 7.434 6.016,7.289 6.023,7.178 6.040 " stroke="none" fill="black" fill-rule="evenodd"></path></svg>