<svg role="img" viewBox="0 0 24 24" xmlns="http://www.w3.org/2000/svg"><path d="M3.360 0.398 C 2.423 0.597,1.546 1.137,0.944 1.886 C 0.610 2.301,0.275 2.964,0.129 3.500 L 0.020 3.900 0.020 12.000 L 0.020 20.100 0.129 20.500 C 0.560 22.082,1.769 23.239,3.380 23.613 C 3.737 23.696,3.796 23.697,11.600 23.710 C 16.689 23.719,19.643 23.710,19.980 23.683 C 21.028 23.601,21.818 23.280,22.571 22.630 C 23.139 22.139,23.649 21.303,23.870 20.500 L 23.980 20.100 23.980 12.000 L 23.980 3.900 23.870 3.500 C 23.423 1.878,22.156 0.685,20.560 0.382 C 20.269 0.327,19.289 0.320,11.966 0.323 C 4.153 0.325,3.681 0.330,3.360 0.398 M20.300 1.414 C 20.432 1.454,20.686 1.555,20.865 1.638 C 21.897 2.120,22.565 2.921,22.892 4.071 L 22.980 4.380 22.992 11.740 C 23.000 16.850,22.991 19.216,22.961 19.478 C 22.821 20.693,22.107 21.726,21.016 22.290 C 20.549 22.531,20.174 22.632,19.560 22.683 C 19.230 22.710,16.517 22.720,11.600 22.712 L 4.140 22.699 3.752 22.592 C 2.452 22.235,1.486 21.279,1.112 19.980 L 1.020 19.660 1.009 12.162 C 0.997 3.912,0.987 4.303,1.241 3.644 C 1.664 2.546,2.596 1.713,3.732 1.419 L 4.100 1.323 12.080 1.333 C 19.655 1.341,20.072 1.345,20.300 1.414 M6.519 5.703 C 6.466 5.843,6.466 16.397,6.519 16.537 L 6.558 16.640 9.380 16.640 L 12.202 16.640 12.239 16.550 C 12.269 16.476,12.520 15.119,12.520 15.028 C 12.520 15.012,11.575 15.000,10.420 15.000 L 8.320 15.000 8.319 10.390 C 8.319 7.854,8.308 5.740,8.295 5.690 C 8.271 5.600,8.269 5.600,7.414 5.600 L 6.558 5.600 6.519 5.703 M16.920 8.405 C 16.137 8.485,14.930 8.759,14.340 8.992 L 14.140 9.071 14.128 12.748 C 14.121 15.169,14.131 16.463,14.157 16.533 L 14.198 16.640 15.031 16.640 C 15.626 16.640,15.878 16.626,15.912 16.592 C 15.949 16.555,15.960 15.786,15.960 13.374 C 15.960 11.350,15.974 10.196,15.999 10.181 C 16.110 10.112,16.694 10.036,17.287 10.014 C 17.920 9.989,17.955 9.984,17.976 9.904 C 18.007 9.791,18.005 8.564,17.975 8.450 C 17.952 8.365,17.932 8.360,17.605 8.365 C 17.415 8.368,17.107 8.386,16.920 8.405 " stroke="none" fill="black" fill-rule="evenodd"></path></svg>