<svg role="img" viewBox="0 0 24 24" xmlns="http://www.w3.org/2000/svg"><path d="M12.960 0.457 C 11.697 0.721,10.564 1.717,9.805 3.230 C 9.324 4.189,9.120 5.020,9.120 6.026 C 9.120 7.361,9.636 8.984,10.445 10.193 C 10.716 10.597,11.086 11.038,11.155 11.039 C 11.377 11.042,13.412 10.066,14.308 9.527 C 16.709 8.081,18.777 6.054,19.639 4.300 C 20.090 3.383,20.293 2.366,20.155 1.712 C 20.019 1.063,19.517 0.577,18.840 0.436 C 18.478 0.361,17.763 0.411,17.360 0.540 C 16.542 0.803,15.704 1.368,15.155 2.029 L 15.014 2.198 15.010 1.889 C 15.003 1.215,14.654 0.706,14.060 0.501 C 13.795 0.410,13.284 0.389,12.960 0.457 M4.425 7.222 C 3.624 7.381,3.045 7.684,2.507 8.225 C 1.339 9.400,1.095 11.153,2.011 11.787 L 2.167 11.896 1.967 11.984 C 0.899 12.456,-0.002 13.814,0.001 14.948 C 0.001 15.231,0.091 15.625,0.204 15.848 C 0.412 16.255,0.877 16.597,1.400 16.725 C 1.708 16.800,2.540 16.788,2.940 16.702 C 4.255 16.420,5.758 15.662,7.050 14.631 C 7.833 14.006,8.975 12.825,9.394 12.209 L 9.553 11.974 9.383 11.477 C 9.169 10.848,9.021 10.506,8.695 9.880 C 7.868 8.293,6.963 7.466,5.789 7.223 C 5.422 7.147,4.804 7.147,4.425 7.222 M18.680 9.740 C 16.484 10.006,13.488 11.177,11.580 12.515 C 10.249 13.448,9.261 14.467,8.318 15.880 C 6.949 17.930,6.189 19.667,5.681 21.908 L 5.564 22.420 5.649 22.597 C 5.846 23.008,6.389 23.399,6.971 23.549 C 7.236 23.618,7.246 23.617,7.391 23.540 L 7.540 23.460 7.566 22.912 C 7.635 21.425,8.042 19.522,8.586 18.142 C 8.912 17.313,9.386 16.490,10.002 15.680 C 10.256 15.345,10.937 14.549,11.089 14.409 L 11.187 14.318 11.213 14.989 C 11.279 16.678,11.709 18.355,12.329 19.338 C 13.223 20.755,14.509 21.599,16.022 21.762 C 17.883 21.962,19.741 20.678,20.164 18.900 C 20.234 18.602,20.245 18.461,20.228 18.080 C 20.207 17.610,20.147 17.367,19.962 17.004 C 19.914 16.910,19.880 16.827,19.887 16.821 C 19.894 16.814,20.062 16.769,20.260 16.720 C 21.731 16.358,23.038 15.308,23.660 13.989 C 23.913 13.454,23.976 13.183,23.978 12.640 C 23.979 12.274,23.962 12.123,23.891 11.898 C 23.556 10.833,22.294 9.978,20.707 9.742 C 20.210 9.668,19.279 9.667,18.680 9.740 " stroke="none" fill="black" fill-rule="evenodd"></path></svg>