<svg role="img" viewBox="0 0 24 24" xmlns="http://www.w3.org/2000/svg"><path d="M11.040 0.024 C 10.963 0.032,10.675 0.059,10.400 0.082 C 8.734 0.226,6.918 0.763,5.583 1.506 C 2.557 3.192,0.691 6.173,0.179 10.140 C 0.037 11.236,0.066 13.251,0.239 14.360 C 0.659 17.063,1.732 19.553,3.095 20.990 C 3.808 21.741,4.542 22.076,5.375 22.030 C 5.829 22.005,6.124 21.898,6.780 21.523 C 7.429 21.153,7.664 21.038,7.900 20.974 C 8.307 20.865,8.776 20.930,9.160 21.149 C 9.259 21.206,9.565 21.417,9.840 21.619 C 10.921 22.412,11.321 22.561,12.056 22.447 C 12.441 22.386,12.682 22.255,13.112 21.872 C 14.025 21.057,14.272 20.905,14.759 20.854 C 15.119 20.816,15.490 20.899,15.942 21.119 C 16.431 21.356,16.860 21.683,17.700 22.460 C 19.173 23.822,19.522 24.040,20.157 23.992 C 20.436 23.971,20.619 23.884,20.840 23.668 C 21.260 23.257,22.140 21.716,22.591 20.600 C 23.159 19.195,23.650 17.042,23.840 15.120 C 23.957 13.931,23.924 11.384,23.776 10.200 C 23.647 9.161,23.231 7.142,23.065 6.745 C 22.994 6.576,22.960 6.566,22.400 6.551 C 21.874 6.537,21.707 6.463,21.277 6.052 C 21.109 5.892,20.950 5.760,20.925 5.760 C 20.900 5.760,20.709 5.833,20.500 5.922 C 19.991 6.139,19.628 6.213,19.200 6.187 C 18.296 6.132,17.556 5.592,17.042 4.613 C 16.970 4.477,16.884 4.355,16.851 4.342 C 16.817 4.329,16.635 4.339,16.447 4.364 C 15.992 4.425,15.728 4.395,15.328 4.241 C 14.658 3.982,14.032 3.459,13.781 2.948 C 13.570 2.521,13.534 2.246,13.618 1.719 C 13.700 1.208,13.693 1.187,13.369 0.965 C 13.090 0.774,12.926 0.602,12.780 0.347 C 12.602 0.037,12.562 0.023,11.823 0.015 C 11.470 0.011,11.117 0.015,11.040 0.024 M11.385 1.597 C 11.762 1.760,11.834 1.886,12.038 2.740 C 12.271 3.711,12.537 4.260,13.002 4.724 C 13.428 5.151,13.902 5.346,15.175 5.619 C 15.992 5.794,16.136 5.886,16.629 6.554 C 17.061 7.137,17.327 7.400,17.648 7.556 C 18.089 7.771,18.330 7.810,19.076 7.789 C 19.659 7.772,19.779 7.757,20.060 7.663 C 20.603 7.482,20.851 7.528,21.195 7.871 C 22.142 8.818,22.665 11.330,22.480 14.040 C 22.261 17.236,21.392 20.386,20.447 21.407 C 20.192 21.683,19.981 21.798,19.728 21.799 C 19.376 21.801,19.106 21.579,18.248 20.583 C 17.155 19.312,16.504 18.951,15.320 18.954 C 14.368 18.958,13.938 19.126,12.977 19.869 C 12.277 20.412,11.982 20.567,11.649 20.571 C 11.210 20.575,11.037 20.481,10.134 19.747 C 9.880 19.541,9.561 19.326,9.365 19.228 C 9.031 19.063,9.028 19.062,8.501 19.047 C 8.064 19.034,7.916 19.045,7.648 19.113 C 7.308 19.199,6.875 19.397,6.575 19.603 C 6.303 19.790,5.844 19.995,5.590 20.042 C 5.127 20.127,4.601 19.927,4.236 19.528 C 3.838 19.092,3.159 17.992,2.786 17.177 C 1.683 14.767,1.366 12.484,1.784 9.963 C 2.035 8.450,2.591 6.880,3.280 5.739 C 4.509 3.705,6.798 2.143,9.280 1.644 C 10.216 1.456,11.016 1.438,11.385 1.597 M5.020 9.195 C 4.658 9.359,4.253 9.952,4.101 10.540 C 3.934 11.183,3.925 12.232,4.081 12.880 C 4.307 13.816,4.887 14.453,5.452 14.386 C 5.993 14.322,6.474 13.731,6.677 12.882 C 6.898 11.959,6.792 10.673,6.434 9.941 C 6.107 9.270,5.527 8.964,5.020 9.195 M14.611 9.222 C 14.206 9.424,13.898 9.897,13.711 10.600 C 13.632 10.899,13.621 11.039,13.621 11.760 C 13.620 12.494,13.630 12.615,13.713 12.919 C 13.951 13.793,14.481 14.400,15.005 14.400 C 16.236 14.400,16.885 11.693,16.063 9.984 C 15.704 9.237,15.157 8.950,14.611 9.222 " stroke="none" fill="black" fill-rule="evenodd"></path></svg>