<svg role="img" xmlns="http://www.w3.org/2000/svg" viewBox="0 0 24 24"><path d="M2.441 1.365 C 1.458 1.480,0.715 1.988,0.314 2.820 C 0.002 3.468,0.020 3.063,0.020 9.320 C 0.020 15.536,0.005 15.174,0.294 15.779 C 0.539 16.291,0.850 16.631,1.353 16.936 C 1.910 17.273,2.298 17.320,4.488 17.319 L 6.140 17.318 6.688 16.669 L 7.237 16.020 4.808 16.000 L 2.380 15.980 2.140 15.885 C 1.794 15.747,1.549 15.485,1.441 15.134 C 1.358 14.864,1.357 14.832,1.357 9.318 L 1.356 3.774 1.443 3.537 C 1.568 3.197,1.830 2.951,2.184 2.842 L 2.453 2.759 11.982 2.758 L 21.511 2.758 21.745 2.844 C 22.083 2.968,22.329 3.232,22.438 3.584 C 22.521 3.851,22.522 3.897,22.523 9.420 L 22.524 14.987 22.437 15.223 C 22.313 15.558,22.051 15.806,21.693 15.927 C 21.424 16.017,21.388 16.019,19.031 16.039 L 16.642 16.060 17.191 16.709 L 17.740 17.358 18.240 17.357 C 18.515 17.356,19.388 17.339,20.180 17.320 C 21.795 17.281,21.983 17.255,22.500 17.006 C 23.040 16.746,23.439 16.345,23.713 15.787 C 23.994 15.217,23.980 15.562,23.980 9.340 C 23.980 3.091,23.996 3.470,23.701 2.849 C 23.429 2.275,23.047 1.892,22.479 1.622 C 21.840 1.319,22.717 1.343,12.180 1.336 C 6.983 1.333,2.606 1.345,2.441 1.365 M11.654 13.590 C 11.558 13.643,4.793 21.358,4.368 21.899 C 4.262 22.034,4.248 22.336,4.342 22.471 C 4.498 22.693,4.022 22.680,11.900 22.680 C 18.315 22.680,19.178 22.673,19.281 22.619 C 19.488 22.512,19.580 22.215,19.475 21.986 C 19.406 21.834,12.317 13.713,12.164 13.611 C 12.001 13.502,11.824 13.495,11.654 13.590 " stroke="none" fill="black" fill-rule="evenodd"></path></svg>