<svg role="img" xmlns="http://www.w3.org/2000/svg" viewBox="0 0 24 24"><path d="M10.760 0.243 C 6.863 0.668,3.421 2.934,1.506 6.338 C 1.201 6.880,0.879 7.604,0.659 8.246 C -0.754 12.355,0.145 16.868,3.032 20.159 C 3.424 20.606,3.862 21.016,3.992 21.057 C 4.121 21.098,4.225 21.020,4.578 20.615 C 4.999 20.135,4.997 20.123,4.475 19.592 C 2.826 17.915,1.802 15.820,1.504 13.518 C 1.233 11.423,1.568 9.398,2.500 7.499 C 3.882 4.681,6.593 2.542,9.640 1.865 C 11.047 1.552,12.520 1.516,13.878 1.762 C 15.903 2.127,17.791 3.099,19.275 4.539 C 19.904 5.150,20.317 5.642,20.762 6.312 C 22.268 8.576,22.845 11.274,22.397 13.953 C 22.047 16.048,21.049 17.980,19.483 19.596 C 18.958 20.137,18.958 20.136,19.417 20.651 C 19.761 21.037,19.878 21.110,20.047 21.044 C 20.168 20.998,21.026 20.116,21.374 19.680 C 24.258 16.075,24.812 11.066,22.783 6.933 C 22.128 5.598,21.400 4.593,20.355 3.580 C 19.739 2.983,19.336 2.657,18.620 2.180 C 17.138 1.192,15.579 0.598,13.680 0.298 C 13.185 0.220,11.297 0.184,10.760 0.243 M11.400 3.721 C 7.711 3.996,4.604 6.569,3.700 10.098 C 3.482 10.948,3.427 11.397,3.430 12.300 C 3.431 12.970,3.448 13.194,3.533 13.680 C 3.845 15.463,4.670 17.066,5.918 18.312 C 6.155 18.548,6.181 18.563,6.334 18.552 C 6.484 18.541,6.522 18.511,6.828 18.163 C 7.281 17.648,7.281 17.646,6.762 17.096 C 5.773 16.048,5.120 14.700,4.872 13.200 C 4.807 12.807,4.809 11.547,4.874 11.140 C 5.366 8.100,7.607 5.760,10.607 5.152 C 11.003 5.071,11.175 5.060,11.980 5.062 C 12.782 5.063,12.954 5.075,13.320 5.154 C 15.274 5.575,16.871 6.666,17.958 8.320 C 19.457 10.600,19.498 13.603,18.063 15.958 C 17.767 16.445,17.537 16.742,17.132 17.167 C 16.683 17.636,16.683 17.661,17.141 18.176 C 17.476 18.552,17.596 18.632,17.752 18.582 C 17.878 18.542,18.525 17.848,18.873 17.380 C 20.939 14.597,21.124 10.806,19.337 7.840 C 18.687 6.761,17.781 5.812,16.720 5.100 C 16.268 4.797,15.283 4.319,14.752 4.145 C 13.685 3.796,12.466 3.641,11.400 3.721 M11.476 7.039 C 10.701 7.116,9.818 7.411,9.223 7.793 C 7.915 8.630,7.060 9.905,6.818 11.380 C 6.723 11.954,6.758 12.832,6.897 13.392 C 7.122 14.295,7.568 15.114,8.193 15.770 C 8.384 15.970,8.432 16.000,8.562 16.000 C 8.699 16.000,8.737 15.973,8.969 15.710 C 9.491 15.119,9.502 15.074,9.207 14.747 C 8.740 14.232,8.425 13.592,8.277 12.860 C 8.194 12.449,8.219 11.717,8.332 11.280 C 8.510 10.593,8.771 10.120,9.260 9.605 C 9.748 9.090,10.333 8.745,11.040 8.554 C 11.526 8.422,12.389 8.423,12.880 8.555 C 13.577 8.743,14.166 9.088,14.645 9.589 C 15.342 10.319,15.686 11.174,15.686 12.180 C 15.686 13.167,15.364 13.982,14.670 14.750 C 14.387 15.064,14.398 15.131,14.822 15.612 C 15.143 15.977,15.173 16.000,15.318 16.000 C 15.458 16.000,15.497 15.973,15.739 15.712 C 16.042 15.384,16.364 14.914,16.578 14.486 C 17.176 13.289,17.268 11.733,16.814 10.471 C 16.275 8.968,15.045 7.765,13.549 7.276 C 12.921 7.071,12.099 6.977,11.476 7.039 M11.773 14.824 C 11.697 14.862,10.218 16.495,8.005 18.984 C 4.185 23.283,4.267 23.183,4.338 23.465 C 4.352 23.523,4.416 23.622,4.479 23.685 L 4.594 23.800 11.919 23.800 C 19.969 23.800,19.407 23.818,19.539 23.561 C 19.620 23.406,19.616 23.201,19.532 23.079 C 19.341 22.804,12.308 14.847,12.220 14.807 C 12.080 14.743,11.925 14.749,11.773 14.824 " stroke="none" fill="black" fill-rule="evenodd"></path></svg>