<svg role="img" viewBox="0 0 24 24" xmlns="http://www.w3.org/2000/svg"><path d="M3.300 0.068 C 2.472 0.185,1.673 0.603,1.072 1.234 C 0.579 1.751,0.299 2.255,0.109 2.965 L 0.020 3.300 0.020 12.000 C 0.020 20.122,0.025 20.718,0.089 20.969 C 0.283 21.722,0.648 22.364,1.166 22.863 C 1.669 23.347,2.122 23.611,2.820 23.828 L 3.180 23.940 11.820 23.951 C 17.660 23.959,20.548 23.949,20.731 23.921 C 21.495 23.803,22.213 23.452,22.769 22.924 C 23.516 22.214,23.921 21.362,23.986 20.360 L 24.010 19.980 23.635 19.823 C 20.305 18.429,16.948 16.963,14.972 16.042 L 14.603 15.870 14.492 16.005 C 13.314 17.428,11.772 18.639,10.320 19.282 C 7.687 20.448,4.867 20.245,3.127 18.766 C 2.678 18.385,2.197 17.672,1.996 17.089 C 1.582 15.892,1.773 14.585,2.526 13.459 C 3.135 12.548,4.157 11.911,5.520 11.593 C 5.965 11.489,7.193 11.450,7.865 11.518 C 9.276 11.660,11.138 12.092,13.297 12.777 C 13.538 12.853,13.752 12.905,13.773 12.892 C 13.824 12.861,14.344 11.770,14.552 11.258 C 14.642 11.037,14.805 10.587,14.915 10.258 L 15.115 9.660 10.418 9.650 L 5.720 9.640 5.720 9.160 L 5.720 8.680 8.140 8.680 L 10.560 8.680 10.560 7.840 L 10.560 7.000 7.640 7.000 L 4.720 7.000 4.720 6.520 L 4.720 6.040 7.638 6.040 L 10.557 6.040 10.568 4.741 L 10.580 3.442 10.691 3.331 L 10.802 3.220 12.081 3.208 L 13.360 3.197 13.360 4.618 L 13.360 6.040 16.261 6.040 L 19.163 6.040 19.151 6.510 L 19.140 6.980 16.250 6.990 L 13.360 7.001 13.360 7.840 L 13.360 8.680 15.723 8.680 C 17.954 8.680,18.084 8.684,18.066 8.750 C 18.055 8.789,17.971 9.090,17.879 9.420 C 17.504 10.763,16.885 12.291,16.282 13.361 C 16.168 13.563,16.080 13.732,16.087 13.737 C 16.139 13.774,19.330 14.913,20.080 15.162 C 21.622 15.674,23.144 16.115,23.871 16.261 L 24.002 16.287 23.990 9.773 C 23.979 3.775,23.972 3.240,23.909 3.010 C 23.706 2.266,23.394 1.711,22.884 1.187 C 22.403 0.691,21.835 0.355,21.140 0.155 L 20.820 0.062 12.120 0.057 C 7.335 0.054,3.366 0.059,3.300 0.068 M5.728 13.044 C 5.047 13.136,4.227 13.407,3.804 13.680 C 3.062 14.160,2.631 14.896,2.631 15.683 C 2.630 16.991,3.726 18.044,5.397 18.341 C 7.105 18.644,8.744 18.200,10.380 16.992 C 10.847 16.647,11.989 15.534,12.334 15.088 L 12.527 14.838 11.943 14.559 C 10.307 13.777,9.004 13.317,7.880 13.121 C 7.305 13.021,6.194 12.981,5.728 13.044 " stroke="none" fill="black" fill-rule="evenodd"></path></svg>