<svg role="img" viewBox="0 0 24 24" xmlns="http://www.w3.org/2000/svg"><path d="M0.000 5.027 C 0.000 7.791,0.007 10.046,0.017 10.037 C 0.026 10.027,0.204 9.624,0.412 9.140 L 0.791 8.260 1.675 8.249 L 2.558 8.238 2.669 8.449 L 2.780 8.660 2.792 8.449 L 2.804 8.239 3.825 8.249 L 4.846 8.260 5.053 8.730 C 5.166 8.989,5.268 9.200,5.280 9.199 C 5.291 9.199,5.390 8.987,5.500 8.729 L 5.701 8.260 9.160 8.260 C 12.608 8.260,12.621 8.260,12.790 8.345 L 12.960 8.430 12.960 8.335 L 12.960 8.240 13.860 8.240 L 14.760 8.240 14.760 8.340 C 14.760 8.395,14.765 8.440,14.771 8.440 C 14.778 8.440,14.890 8.400,15.021 8.350 C 15.254 8.262,15.298 8.260,16.880 8.260 L 18.500 8.260 18.609 8.460 L 18.718 8.660 18.719 8.449 L 18.720 8.239 19.690 8.249 L 20.660 8.260 20.769 8.460 L 20.878 8.660 20.879 8.450 L 20.880 8.240 21.820 8.240 L 22.761 8.240 22.750 10.210 L 22.740 12.180 21.812 12.191 L 20.884 12.201 20.712 11.911 L 20.540 11.621 20.528 11.891 L 20.516 12.161 19.332 12.151 L 18.148 12.140 18.023 11.840 L 17.897 11.540 17.606 11.540 L 17.315 11.540 17.183 11.840 L 17.051 12.140 16.415 12.152 C 15.722 12.165,15.254 12.116,14.954 11.997 L 14.760 11.921 14.760 12.041 L 14.760 12.160 13.320 12.160 L 11.880 12.160 11.880 11.685 C 11.880 11.191,11.844 11.079,11.701 11.134 C 11.651 11.153,11.640 11.248,11.640 11.659 L 11.640 12.160 8.860 12.160 L 6.080 12.160 6.076 11.930 L 6.072 11.700 5.967 11.930 L 5.862 12.160 5.276 12.160 L 4.690 12.160 4.588 11.930 L 4.485 11.700 4.483 11.931 L 4.480 12.161 3.355 12.151 L 2.230 12.140 2.105 11.829 L 1.980 11.518 1.685 11.529 L 1.390 11.540 1.269 11.850 L 1.148 12.160 0.574 12.160 L 0.000 12.160 0.000 18.080 L 0.000 24.000 11.900 24.000 L 23.800 24.000 23.800 20.460 C 23.800 18.513,23.787 16.920,23.770 16.920 C 23.753 16.921,23.650 16.951,23.540 16.987 C 23.379 17.041,23.121 17.057,22.210 17.070 L 21.080 17.087 21.080 16.968 L 21.080 16.849 20.830 16.955 L 20.580 17.060 17.651 17.071 L 14.722 17.083 14.711 16.571 C 14.700 16.075,14.697 16.060,14.610 16.047 C 14.521 16.035,14.520 16.038,14.520 16.557 L 14.520 17.080 13.620 17.080 L 12.720 17.080 12.720 16.542 L 12.720 16.004 12.550 16.064 C 12.457 16.097,12.195 16.135,11.970 16.148 L 11.560 16.172 11.560 16.606 L 11.560 17.040 10.465 17.040 L 9.370 17.040 9.115 16.740 L 8.860 16.440 8.569 16.740 L 8.278 17.040 6.519 17.040 L 4.760 17.040 4.760 15.080 L 4.760 13.120 6.550 13.119 L 8.340 13.118 8.610 13.409 L 8.880 13.700 9.150 13.409 L 9.420 13.118 10.802 13.119 C 11.913 13.120,12.229 13.132,12.419 13.181 C 12.549 13.215,12.678 13.261,12.705 13.284 C 12.742 13.315,12.757 13.297,12.767 13.212 L 12.780 13.100 14.020 13.101 C 15.098 13.103,15.291 13.112,15.500 13.175 C 15.632 13.215,15.761 13.265,15.787 13.286 C 15.821 13.314,15.838 13.293,15.847 13.212 L 15.860 13.100 17.490 13.090 L 19.120 13.079 19.120 13.193 L 19.120 13.308 19.330 13.204 C 19.538 13.101,19.545 13.100,20.670 13.087 L 21.800 13.074 21.800 13.195 L 21.800 13.316 22.030 13.208 C 22.251 13.104,22.290 13.100,23.050 13.086 L 23.840 13.073 23.840 13.353 L 23.840 13.634 23.007 13.647 L 22.173 13.660 21.980 13.780 C 21.719 13.942,21.600 14.167,21.600 14.500 C 21.600 14.840,21.720 15.064,21.972 15.194 C 22.118 15.269,22.269 15.300,22.669 15.335 C 22.950 15.360,23.203 15.395,23.230 15.412 C 23.258 15.430,23.280 15.506,23.280 15.580 C 23.280 15.818,23.205 15.840,22.371 15.840 L 21.640 15.840 21.640 16.143 L 21.640 16.447 22.490 16.432 C 23.437 16.416,23.536 16.394,23.780 16.143 C 24.085 15.828,24.075 15.229,23.759 14.944 C 23.587 14.789,23.289 14.720,22.789 14.720 C 22.621 14.720,22.437 14.699,22.381 14.673 C 22.249 14.613,22.212 14.469,22.296 14.341 C 22.360 14.242,22.364 14.242,23.090 14.231 L 23.820 14.220 23.840 13.900 C 23.851 13.724,23.855 10.525,23.848 6.790 L 23.837 -0.000 11.918 -0.000 L 0.000 0.000 0.000 5.027 M15.525 8.805 C 15.087 8.878,14.793 9.117,14.627 9.535 C 14.514 9.821,14.507 10.525,14.616 10.837 C 14.712 11.114,14.944 11.366,15.211 11.483 C 15.390 11.561,15.506 11.577,16.025 11.592 L 16.630 11.609 16.763 11.284 L 16.896 10.958 17.592 10.969 L 18.288 10.980 18.414 11.290 L 18.540 11.600 19.229 11.600 L 19.919 11.600 19.929 10.573 L 19.940 9.546 20.557 10.573 L 21.173 11.600 21.647 11.600 L 22.120 11.600 22.120 10.200 L 22.120 8.800 21.781 8.800 L 21.441 8.800 21.431 9.755 L 21.420 10.710 20.843 9.755 L 20.267 8.800 19.753 8.800 L 19.240 8.800 19.238 10.090 L 19.237 11.380 18.682 10.080 L 18.127 8.780 17.613 8.769 L 17.098 8.758 16.636 9.849 L 16.174 10.940 15.917 10.951 C 15.417 10.972,15.222 10.756,15.221 10.180 C 15.221 9.934,15.240 9.824,15.303 9.702 C 15.448 9.425,15.536 9.387,16.080 9.367 L 16.560 9.350 16.560 9.055 L 16.560 8.760 16.150 8.765 C 15.925 8.767,15.643 8.785,15.525 8.805 M1.163 8.889 C 1.143 8.939,0.875 9.570,0.567 10.291 L 0.008 11.603 0.373 11.591 L 0.738 11.580 0.863 11.280 L 0.988 10.980 1.683 10.980 L 2.377 10.980 2.503 11.280 L 2.628 11.580 3.313 11.591 L 3.999 11.602 4.009 10.517 L 4.020 9.432 4.496 10.518 L 4.972 11.603 5.268 11.592 L 5.564 11.580 6.032 10.520 L 6.500 9.460 6.525 10.340 C 6.539 10.824,6.552 11.306,6.555 11.410 L 6.560 11.600 6.900 11.600 L 7.240 11.600 7.240 10.199 L 7.240 8.798 6.672 8.809 L 6.103 8.820 5.719 9.729 C 5.508 10.229,5.327 10.646,5.318 10.655 C 5.308 10.665,5.109 10.256,4.876 9.746 L 4.452 8.820 3.906 8.809 L 3.360 8.798 3.360 10.106 C 3.360 10.825,3.348 11.401,3.333 11.386 C 3.318 11.371,3.060 10.787,2.761 10.089 L 2.217 8.820 1.708 8.809 C 1.210 8.798,1.198 8.800,1.163 8.889 M7.720 10.200 L 7.720 11.600 8.840 11.600 L 9.960 11.600 9.960 11.320 L 9.960 11.040 9.180 11.040 L 8.400 11.040 8.400 10.740 L 8.400 10.440 9.160 10.440 L 9.920 10.440 9.920 10.160 L 9.920 9.880 9.160 9.880 L 8.400 9.880 8.400 9.620 L 8.400 9.360 9.180 9.360 L 9.960 9.360 9.960 9.080 L 9.960 8.800 8.840 8.800 L 7.720 8.800 7.720 10.200 M10.440 10.198 L 10.440 11.600 10.780 11.600 L 11.120 11.600 11.120 11.074 L 11.120 10.549 11.633 10.569 C 11.916 10.581,12.187 10.611,12.235 10.638 C 12.364 10.706,12.400 10.840,12.400 11.243 L 12.400 11.600 12.740 11.600 L 13.080 11.600 13.080 11.150 C 13.080 10.649,13.029 10.505,12.803 10.368 L 12.685 10.296 12.827 10.183 C 13.241 9.852,13.205 9.167,12.760 8.920 C 12.582 8.821,12.566 8.820,11.510 8.808 L 10.440 8.795 10.440 10.198 M13.520 10.200 L 13.520 11.600 13.860 11.600 L 14.200 11.600 14.200 10.200 L 14.200 8.800 13.860 8.800 L 13.520 8.800 13.520 10.200 M1.914 9.801 C 2.027 10.077,2.120 10.324,2.120 10.351 C 2.120 10.387,2.000 10.400,1.680 10.400 C 1.438 10.400,1.240 10.394,1.240 10.387 C 1.240 10.377,1.572 9.556,1.668 9.328 C 1.696 9.262,1.676 9.223,1.914 9.801 M17.856 9.908 C 17.957 10.155,18.040 10.366,18.040 10.378 C 18.040 10.390,17.842 10.400,17.600 10.400 C 17.275 10.400,17.160 10.387,17.160 10.350 C 17.159 10.322,17.254 10.072,17.370 9.792 C 17.611 9.209,17.563 9.198,17.856 9.908 M12.220 9.417 C 12.369 9.480,12.427 9.608,12.384 9.779 C 12.340 9.953,12.178 10.000,11.622 10.000 L 11.120 10.000 11.120 9.680 L 11.120 9.360 11.601 9.360 C 11.929 9.360,12.126 9.378,12.220 9.417 M5.360 15.040 L 5.360 16.440 6.670 16.441 L 7.980 16.443 8.420 15.979 L 8.860 15.515 9.272 15.977 L 9.683 16.440 10.342 16.440 L 11.000 16.440 11.000 15.960 L 11.000 15.480 11.594 15.480 C 12.424 15.480,12.703 15.382,12.889 15.027 C 13.074 14.671,12.963 14.041,12.679 13.839 C 12.417 13.653,12.305 13.640,10.961 13.640 L 9.692 13.640 9.299 14.070 C 9.082 14.307,8.892 14.505,8.876 14.512 C 8.860 14.519,8.670 14.325,8.453 14.082 L 8.060 13.640 6.710 13.640 L 5.360 13.640 5.360 15.040 M13.320 15.040 L 13.320 16.440 13.660 16.440 L 14.000 16.440 14.000 15.915 L 14.000 15.391 14.510 15.407 C 14.813 15.417,15.057 15.445,15.112 15.475 C 15.244 15.547,15.280 15.678,15.280 16.083 L 15.280 16.440 15.624 16.440 L 15.969 16.440 15.951 15.990 C 15.932 15.481,15.889 15.357,15.687 15.232 L 15.548 15.146 15.696 15.028 C 15.901 14.863,16.000 14.652,16.000 14.380 C 16.000 14.123,15.935 13.973,15.760 13.826 C 15.564 13.661,15.405 13.640,14.330 13.640 L 13.320 13.640 13.320 15.040 M16.360 15.040 L 16.360 16.440 17.480 16.440 L 18.600 16.440 18.600 16.160 L 18.600 15.880 17.820 15.880 L 17.040 15.880 17.040 15.600 L 17.040 15.320 17.800 15.320 L 18.560 15.320 18.560 15.020 L 18.560 14.720 17.800 14.720 L 17.040 14.720 17.040 14.460 L 17.040 14.200 17.820 14.200 L 18.600 14.200 18.600 13.920 L 18.600 13.640 17.480 13.640 L 16.360 13.640 16.360 15.040 M19.502 13.700 C 19.125 13.834,18.961 14.076,18.961 14.500 C 18.961 14.853,19.065 15.057,19.315 15.195 C 19.453 15.271,19.592 15.299,20.026 15.337 C 20.601 15.387,20.638 15.404,20.639 15.608 C 20.641 15.814,20.541 15.840,19.731 15.840 L 19.000 15.840 19.000 16.143 L 19.000 16.447 19.850 16.432 C 20.554 16.420,20.727 16.406,20.859 16.347 C 21.167 16.211,21.303 16.021,21.344 15.673 C 21.391 15.271,21.218 14.925,20.927 14.838 C 20.846 14.814,20.559 14.781,20.290 14.765 C 19.777 14.735,19.716 14.712,19.662 14.531 C 19.642 14.465,19.662 14.414,19.736 14.341 C 19.836 14.241,19.842 14.240,20.538 14.240 L 21.240 14.240 21.240 13.940 L 21.240 13.640 20.450 13.642 C 19.877 13.643,19.617 13.659,19.502 13.700 M10.311 15.603 L 10.300 16.170 9.789 15.602 L 9.277 15.034 9.789 14.491 L 10.300 13.949 10.311 14.492 C 10.317 14.791,10.317 15.290,10.311 15.603 M8.066 14.615 L 8.432 15.027 8.066 15.430 L 7.700 15.833 6.870 15.837 L 6.040 15.840 6.040 15.560 L 6.040 15.280 6.760 15.280 L 7.480 15.280 7.480 15.000 L 7.480 14.720 6.760 14.720 L 6.040 14.720 6.040 14.460 L 6.040 14.200 6.870 14.201 L 7.700 14.202 8.066 14.615 M12.177 14.317 C 12.251 14.387,12.280 14.454,12.279 14.557 C 12.276 14.857,12.142 14.920,11.503 14.920 L 11.000 14.920 11.000 14.557 L 11.000 14.194 11.537 14.207 C 12.041 14.219,12.080 14.226,12.177 14.317 M15.100 14.257 C 15.255 14.322,15.314 14.467,15.255 14.635 C 15.195 14.805,15.069 14.839,14.490 14.839 L 13.960 14.840 13.960 14.547 C 13.960 14.385,13.972 14.241,13.987 14.227 C 14.041 14.173,14.958 14.198,15.100 14.257 " stroke="none" fill="black" fill-rule="evenodd"></path></svg>