<svg role="img" viewBox="0 0 24 24" xmlns="http://www.w3.org/2000/svg"><path d="M6.413 1.992 C 3.374 3.086,0.877 3.990,0.865 4.002 C 0.845 4.021,2.507 18.725,2.530 18.740 C 2.728 18.868,11.945 23.973,11.979 23.973 C 12.015 23.973,21.359 18.800,21.432 18.739 C 21.463 18.714,23.154 4.018,23.129 3.996 C 23.097 3.968,12.108 0.037,12.004 0.017 C 11.969 0.010,9.453 0.899,6.413 1.992 M15.940 4.932 C 16.252 5.078,16.526 5.350,16.667 5.656 L 16.780 5.900 16.780 12.000 L 16.780 18.100 16.668 18.340 C 16.522 18.652,16.250 18.926,15.944 19.067 L 15.700 19.180 12.000 19.180 L 8.300 19.180 8.056 19.067 C 7.750 18.926,7.478 18.652,7.332 18.340 L 7.220 18.100 7.220 12.000 L 7.220 5.900 7.332 5.660 C 7.517 5.264,7.829 4.993,8.260 4.856 C 8.386 4.815,9.197 4.806,12.060 4.812 L 15.700 4.820 15.940 4.932 M8.700 7.238 C 8.656 7.256,8.575 7.320,8.520 7.379 L 8.420 7.486 8.420 8.402 L 8.420 9.318 8.551 9.449 L 8.682 9.580 12.000 9.580 L 15.318 9.580 15.449 9.449 L 15.580 9.318 15.580 8.400 L 15.580 7.482 15.449 7.351 L 15.318 7.220 12.049 7.212 C 10.251 7.208,8.744 7.219,8.700 7.238 M8.700 10.838 C 8.656 10.856,8.575 10.920,8.520 10.979 L 8.420 11.086 8.420 12.002 L 8.420 12.918 8.551 13.049 L 8.682 13.180 12.000 13.180 L 15.318 13.180 15.449 13.049 L 15.580 12.918 15.580 12.000 L 15.580 11.082 15.449 10.951 L 15.318 10.820 12.049 10.812 C 10.251 10.808,8.744 10.819,8.700 10.838 M11.613 15.672 C 10.610 16.030,10.522 17.402,11.473 17.868 C 11.796 18.027,12.204 18.027,12.527 17.868 C 12.956 17.658,13.178 17.293,13.178 16.800 C 13.178 16.459,13.095 16.231,12.883 15.990 C 12.596 15.663,12.032 15.522,11.613 15.672 " stroke="none" fill="black" fill-rule="evenodd"></path></svg>