<svg role="img" viewBox="0 0 24 24" xmlns="http://www.w3.org/2000/svg"><path d="M10.200 1.725 C 5.960 2.213,2.154 4.619,0.702 7.730 C 0.214 8.774,-0.041 9.996,0.013 11.027 C 0.092 12.531,0.840 14.441,1.678 15.283 C 1.978 15.583,2.244 15.727,2.546 15.752 C 2.853 15.778,3.006 15.737,3.276 15.556 C 3.742 15.245,4.068 14.775,5.559 12.260 C 6.160 11.248,6.966 9.889,7.352 9.240 C 8.657 7.042,9.379 5.911,10.892 3.695 C 11.628 2.618,11.768 2.238,11.532 1.957 C 11.308 1.691,10.984 1.635,10.200 1.725 M12.780 1.740 C 12.692 1.771,12.562 1.860,12.490 1.938 C 12.223 2.228,12.335 2.548,13.101 3.681 C 15.130 6.683,15.240 6.859,18.320 12.060 C 19.759 14.490,20.016 14.884,20.453 15.330 C 20.772 15.655,21.037 15.774,21.393 15.753 C 21.751 15.732,21.998 15.608,22.322 15.283 C 22.648 14.955,22.909 14.558,23.204 13.940 C 23.809 12.674,24.086 11.287,23.963 10.140 C 23.764 8.278,22.938 6.647,21.469 5.215 C 20.868 4.629,20.494 4.327,19.818 3.883 C 18.060 2.727,16.079 2.014,13.863 1.740 C 13.272 1.666,12.988 1.666,12.780 1.740 M11.120 10.741 C 9.482 10.968,8.058 11.595,6.898 12.600 C 6.108 13.284,5.283 14.409,4.792 15.472 C 4.204 16.746,4.429 17.661,5.555 18.574 C 5.980 18.919,9.900 21.453,10.676 21.885 C 11.635 22.419,12.189 22.451,13.060 22.023 C 13.678 21.720,17.918 19.003,18.453 18.568 C 18.862 18.236,19.147 17.898,19.328 17.533 C 19.471 17.244,19.492 17.166,19.510 16.844 C 19.544 16.246,19.364 15.688,18.842 14.778 C 17.959 13.239,16.859 12.187,15.391 11.480 C 14.053 10.835,12.447 10.557,11.120 10.741 " stroke="none" fill="black" fill-rule="evenodd"></path></svg>