<svg role="img" viewBox="0 0 24 24" xmlns="http://www.w3.org/2000/svg"><path d="M12.072 0.065 C 12.026 0.111,11.835 0.152,11.441 0.203 C 10.445 0.330,9.831 0.504,9.058 0.879 C 8.176 1.308,7.457 1.953,7.106 2.633 C 6.902 3.028,6.879 3.177,7.000 3.330 C 7.070 3.420,7.114 3.433,7.390 3.446 C 7.637 3.457,7.748 3.484,7.936 3.580 C 8.281 3.754,8.650 4.129,8.809 4.464 C 8.924 4.707,8.940 4.779,8.937 5.060 C 8.935 5.378,8.866 5.596,8.699 5.817 C 8.630 5.908,8.632 5.910,8.543 5.680 C 8.444 5.423,8.259 5.147,8.075 4.981 C 7.902 4.824,7.656 4.691,7.616 4.731 C 7.602 4.745,7.639 4.879,7.700 5.028 C 7.844 5.387,7.878 5.850,7.783 6.175 C 7.674 6.550,7.561 6.635,6.820 6.900 C 5.952 7.211,5.414 7.432,4.885 7.697 C 4.641 7.820,4.424 7.920,4.403 7.920 C 4.382 7.920,4.359 7.835,4.352 7.731 C 4.338 7.507,4.228 7.420,4.041 7.486 C 3.820 7.563,3.636 7.829,3.346 8.489 C 3.264 8.675,3.129 8.833,2.629 9.329 C 1.973 9.979,1.651 10.381,1.241 11.061 C 1.084 11.322,0.973 11.469,0.950 11.446 C 0.929 11.425,0.918 11.226,0.926 11.004 C 0.935 10.747,0.925 10.605,0.900 10.613 C 0.838 10.633,0.611 11.114,0.538 11.380 C 0.499 11.525,0.466 11.849,0.454 12.200 C 0.439 12.658,0.410 12.877,0.320 13.240 C -0.166 15.191,0.011 17.174,0.822 18.873 C 1.293 19.860,1.805 20.574,2.636 21.402 C 3.438 22.201,4.207 22.733,5.217 23.188 C 6.087 23.580,7.251 23.879,8.224 23.959 C 8.797 24.007,17.297 24.010,18.080 23.963 C 18.894 23.914,19.243 23.745,19.499 23.274 C 19.596 23.097,19.616 23.015,19.614 22.800 C 19.612 22.645,19.582 22.475,19.541 22.380 L 19.471 22.220 19.685 22.421 C 19.803 22.532,19.984 22.675,20.087 22.740 C 20.261 22.848,20.277 22.873,20.301 23.059 C 20.347 23.405,20.463 23.532,20.800 23.603 C 20.961 23.637,21.065 23.690,21.186 23.802 C 21.627 24.207,22.200 23.925,22.200 23.304 L 22.200 23.126 22.410 23.058 C 23.169 22.809,23.692 22.297,23.896 21.603 C 23.986 21.297,23.976 21.164,23.846 20.905 C 23.733 20.682,23.733 20.676,23.784 20.390 C 23.849 20.028,23.854 19.550,23.796 19.272 C 23.740 19.003,23.564 18.630,23.381 18.390 L 23.239 18.203 23.283 17.918 C 23.340 17.551,23.293 17.357,23.063 17.005 C 22.848 16.677,22.752 16.588,22.502 16.477 L 22.305 16.390 22.462 16.308 C 22.549 16.264,22.727 16.185,22.858 16.133 C 23.359 15.936,23.510 15.762,23.721 15.138 C 23.888 14.642,23.881 14.431,23.680 13.896 C 23.585 13.641,23.489 13.285,23.442 13.005 C 23.345 12.425,23.234 12.060,23.046 11.700 C 22.672 10.984,22.041 10.454,21.327 10.256 C 21.119 10.198,21.054 10.158,20.950 10.023 C 20.716 9.721,20.549 9.541,20.264 9.286 C 19.903 8.962,19.625 8.801,19.430 8.800 C 19.348 8.800,19.280 8.787,19.280 8.770 C 19.280 8.754,19.309 8.558,19.345 8.337 L 19.411 7.933 19.665 7.641 C 19.804 7.480,19.958 7.267,20.006 7.168 C 20.110 6.954,20.146 6.652,20.088 6.485 C 20.057 6.396,20.060 6.310,20.102 6.153 C 20.170 5.898,20.177 5.461,20.116 5.286 C 20.092 5.217,20.063 5.160,20.051 5.160 C 20.039 5.160,19.896 5.277,19.733 5.420 C 19.569 5.563,19.419 5.680,19.399 5.680 C 19.379 5.680,19.344 5.604,19.320 5.510 C 19.297 5.417,19.213 5.099,19.135 4.804 C 19.017 4.361,18.995 4.214,19.006 3.963 C 19.019 3.684,19.033 3.640,19.170 3.454 C 19.253 3.341,19.320 3.240,19.320 3.229 C 19.320 3.187,19.063 3.120,18.903 3.120 C 18.812 3.120,18.696 3.149,18.645 3.185 C 18.566 3.240,18.546 3.242,18.516 3.195 C 18.439 3.074,18.506 2.688,18.679 2.256 C 18.821 1.900,18.827 1.827,18.720 1.720 C 18.548 1.548,18.154 1.672,17.814 2.006 L 17.609 2.209 17.454 1.914 C 17.326 1.669,17.282 1.618,17.190 1.607 C 17.117 1.599,17.060 1.557,17.023 1.485 C 16.944 1.333,16.669 1.057,16.517 0.978 L 16.390 0.913 16.417 1.056 C 16.431 1.135,16.433 1.200,16.421 1.200 C 16.409 1.200,16.330 1.157,16.247 1.104 C 15.757 0.795,15.076 0.522,14.280 0.316 C 14.027 0.250,13.743 0.168,13.649 0.132 C 13.513 0.082,13.457 0.078,13.377 0.114 C 13.208 0.191,12.739 0.172,12.560 0.080 C 12.370 -0.017,12.160 -0.023,12.072 0.065 M13.319 0.857 C 13.583 0.889,13.858 0.944,13.930 0.978 C 14.005 1.014,14.144 1.157,14.260 1.318 C 14.435 1.561,14.644 1.729,14.701 1.672 C 14.712 1.662,14.693 1.565,14.661 1.457 C 14.628 1.348,14.601 1.252,14.600 1.242 C 14.600 1.232,14.659 1.281,14.730 1.350 C 14.842 1.458,15.099 1.600,15.184 1.600 C 15.199 1.600,15.200 1.518,15.186 1.417 C 15.162 1.242,15.164 1.236,15.250 1.262 C 15.503 1.339,16.003 1.640,16.210 1.841 C 16.433 2.058,16.440 2.070,16.442 2.282 L 16.445 2.500 16.571 2.250 C 16.640 2.112,16.709 2.000,16.723 2.000 C 16.776 2.000,16.964 2.327,17.084 2.629 C 17.208 2.939,17.208 2.941,17.165 3.340 C 17.142 3.560,17.111 4.226,17.098 4.820 C 17.083 5.491,17.052 6.005,17.017 6.177 C 16.987 6.330,16.968 6.462,16.977 6.470 C 17.017 6.511,17.248 6.342,17.449 6.125 C 17.676 5.880,17.923 5.423,18.203 4.730 C 18.368 4.319,18.420 4.348,18.420 4.852 C 18.420 5.181,18.407 5.248,18.296 5.480 C 18.228 5.623,18.104 5.829,18.020 5.939 C 17.871 6.132,17.870 6.136,17.984 6.064 C 18.222 5.912,18.530 5.661,18.648 5.523 L 18.769 5.380 18.746 5.536 C 18.689 5.922,18.477 6.071,17.320 6.541 C 16.957 6.688,16.599 6.845,16.525 6.890 L 16.391 6.972 16.420 6.876 C 16.435 6.823,16.535 6.600,16.641 6.380 C 16.747 6.160,16.863 5.863,16.899 5.720 C 16.935 5.577,16.975 5.424,16.988 5.380 C 17.006 5.321,16.968 5.339,16.842 5.453 C 16.749 5.537,16.667 5.600,16.661 5.593 C 16.654 5.586,16.673 5.463,16.703 5.320 C 16.768 5.014,16.776 4.735,16.721 4.701 C 16.699 4.687,16.646 4.695,16.602 4.719 C 16.525 4.760,16.522 4.746,16.511 4.331 L 16.500 3.900 16.336 4.220 C 16.245 4.396,16.151 4.540,16.127 4.540 C 16.054 4.540,15.567 3.802,15.496 3.584 C 15.411 3.322,15.385 3.296,15.264 3.351 C 15.167 3.395,15.165 3.392,15.138 3.178 C 15.123 3.058,15.100 2.960,15.088 2.960 C 15.075 2.960,15.016 3.007,14.957 3.063 L 14.849 3.167 14.782 2.966 C 14.696 2.706,14.623 2.642,14.556 2.767 C 14.508 2.857,14.505 2.855,14.433 2.685 L 14.359 2.510 14.277 2.615 C 14.231 2.673,14.171 2.720,14.142 2.720 C 14.113 2.720,13.921 2.650,13.715 2.565 C 12.791 2.184,12.254 2.076,11.278 2.076 C 10.914 2.076,10.588 2.098,10.408 2.136 C 10.079 2.204,9.677 2.373,9.576 2.485 C 9.509 2.558,9.512 2.560,9.644 2.530 C 9.719 2.514,10.167 2.500,10.640 2.500 C 11.331 2.500,11.567 2.515,11.840 2.575 C 12.641 2.750,13.394 3.067,14.038 3.499 C 14.523 3.823,14.779 4.068,14.716 4.145 C 14.610 4.273,14.270 4.322,13.328 4.348 C 12.816 4.362,12.411 4.387,12.429 4.405 C 12.505 4.481,12.967 4.606,13.328 4.649 C 13.620 4.683,13.845 4.683,14.242 4.647 C 14.732 4.604,14.781 4.606,14.941 4.676 C 15.036 4.718,15.133 4.790,15.158 4.837 C 15.206 4.925,15.191 4.940,15.027 4.968 C 14.967 4.978,14.990 5.025,15.163 5.240 C 15.878 6.127,15.921 7.167,15.288 8.231 C 15.057 8.619,14.849 8.838,14.451 9.110 C 14.090 9.357,13.381 9.734,13.317 9.712 C 13.298 9.705,13.365 9.583,13.466 9.440 C 13.818 8.941,13.959 8.535,13.960 8.014 C 13.960 7.429,13.743 6.948,13.258 6.465 C 12.964 6.173,12.645 5.955,12.219 5.755 C 11.871 5.592,10.894 5.292,10.851 5.336 C 10.794 5.392,11.083 5.618,11.428 5.786 C 12.082 6.105,12.671 6.575,12.970 7.015 C 13.548 7.866,13.392 8.789,12.490 9.849 C 12.290 10.084,11.934 10.387,11.899 10.352 C 11.888 10.341,11.926 10.229,11.984 10.103 C 12.133 9.777,12.187 9.382,12.128 9.040 C 12.082 8.768,12.010 8.560,11.962 8.560 C 11.949 8.560,11.870 8.779,11.786 9.046 C 11.703 9.313,11.578 9.650,11.508 9.794 C 11.381 10.056,11.031 10.459,10.844 10.558 C 10.754 10.606,10.750 10.604,10.778 10.515 C 10.934 10.016,10.951 9.839,10.876 9.539 C 10.799 9.236,10.742 9.242,10.638 9.565 C 10.518 9.939,10.314 10.239,9.928 10.608 C 9.181 11.321,8.835 11.474,6.780 12.000 C 5.753 12.263,5.455 12.351,5.269 12.446 C 5.185 12.488,5.100 12.512,5.079 12.499 C 5.017 12.461,5.033 11.558,5.101 11.233 C 5.254 10.497,5.609 9.711,6.059 9.114 C 6.203 8.923,6.685 8.390,7.132 7.930 C 7.876 7.164,7.956 7.067,8.082 6.786 C 8.158 6.618,8.231 6.480,8.245 6.480 C 8.291 6.480,8.319 6.656,8.319 6.953 C 8.320 7.431,8.102 7.996,7.720 8.500 L 7.518 8.767 7.649 8.740 C 7.862 8.697,8.327 8.463,8.518 8.302 C 8.945 7.944,9.328 7.307,9.482 6.700 C 9.575 6.332,9.594 5.565,9.521 5.100 C 9.371 4.138,8.874 3.516,8.001 3.198 C 7.836 3.138,7.695 3.063,7.689 3.032 C 7.661 2.895,7.972 2.594,8.512 2.236 C 9.465 1.604,10.036 1.378,10.780 1.338 C 11.000 1.326,11.243 1.306,11.320 1.294 L 11.460 1.272 11.320 1.155 C 11.172 1.030,10.867 0.921,10.663 0.919 C 10.429 0.916,10.653 0.844,11.025 0.802 C 11.542 0.743,11.885 0.784,12.203 0.943 C 12.347 1.015,12.532 1.086,12.612 1.101 L 12.760 1.129 12.700 0.959 C 12.620 0.733,12.623 0.716,12.739 0.760 C 12.794 0.780,13.054 0.824,13.319 0.857 M18.196 2.322 C 18.066 2.738,18.009 3.064,17.961 3.657 C 17.897 4.464,17.845 4.652,17.568 5.071 L 17.420 5.294 17.407 5.143 C 17.372 4.719,17.631 3.270,17.838 2.733 C 17.936 2.479,18.226 2.013,18.263 2.050 C 18.271 2.057,18.240 2.180,18.196 2.322 M19.578 6.330 C 19.563 6.380,19.452 6.613,19.330 6.850 C 18.863 7.755,18.143 8.317,16.849 8.785 C 16.436 8.935,16.301 8.946,16.658 8.801 C 17.312 8.535,18.519 7.649,18.762 7.256 C 18.944 6.962,18.780 7.017,17.980 7.519 C 17.628 7.741,17.133 8.027,16.880 8.157 C 16.398 8.403,15.738 8.656,15.677 8.618 C 15.610 8.576,15.762 8.301,15.972 8.087 C 16.189 7.865,16.648 7.541,17.060 7.320 L 17.300 7.191 17.130 7.357 C 16.939 7.544,16.927 7.580,17.037 7.639 C 17.262 7.759,17.640 7.575,18.286 7.032 C 18.928 6.492,18.977 6.457,19.261 6.340 C 19.565 6.215,19.613 6.214,19.578 6.330 M5.920 8.079 C 5.920 8.101,5.858 8.216,5.781 8.335 C 5.589 8.636,5.238 9.348,5.063 9.794 C 4.757 10.574,4.642 11.218,4.589 12.440 L 4.580 12.660 4.530 12.440 C 4.387 11.813,4.389 10.953,4.537 9.826 C 4.566 9.603,4.585 9.414,4.578 9.406 C 4.554 9.379,4.343 9.745,4.235 10.000 C 3.942 10.697,3.842 11.487,3.912 12.545 C 3.937 12.916,3.969 13.261,3.983 13.310 C 4.002 13.375,3.993 13.400,3.950 13.400 C 3.767 13.400,3.507 12.986,3.372 12.480 C 3.276 12.121,3.277 10.960,3.374 10.320 C 3.494 9.526,3.758 8.504,3.825 8.572 C 3.834 8.581,3.815 8.758,3.783 8.964 C 3.751 9.171,3.713 9.475,3.700 9.640 L 3.677 9.940 3.768 9.739 C 4.097 9.017,4.493 8.588,5.114 8.280 C 5.445 8.116,5.920 7.997,5.920 8.079 M18.480 8.658 C 18.480 8.696,18.205 9.434,18.091 9.700 C 17.612 10.822,16.708 11.795,15.660 12.318 C 14.938 12.678,14.729 12.729,13.889 12.750 C 13.092 12.770,13.064 12.784,13.439 12.959 C 13.549 13.011,13.635 13.058,13.629 13.064 C 13.623 13.071,13.344 13.122,13.010 13.178 C 12.675 13.235,12.226 13.323,12.010 13.374 C 11.628 13.464,11.602 13.465,10.919 13.415 C 9.460 13.309,8.239 13.354,7.500 13.542 C 6.697 13.745,5.831 14.136,5.060 14.643 C 4.667 14.902,4.103 15.336,4.002 15.458 C 3.956 15.513,3.968 15.513,4.105 15.455 C 4.190 15.420,4.494 15.273,4.780 15.130 C 6.176 14.430,6.840 14.181,7.475 14.120 C 7.946 14.074,10.200 14.068,10.200 14.112 C 10.200 14.159,9.612 14.503,9.372 14.597 C 9.041 14.725,8.632 14.818,7.171 15.098 C 5.426 15.433,4.967 15.575,4.412 15.952 C 3.931 16.278,3.517 16.847,3.396 17.346 C 3.370 17.453,3.336 17.555,3.320 17.573 C 3.283 17.614,3.095 17.149,3.019 16.826 C 2.942 16.499,2.944 15.949,3.023 15.677 C 3.097 15.425,3.232 15.179,3.446 14.908 C 3.530 14.802,3.665 14.586,3.747 14.428 C 4.027 13.889,4.616 13.393,5.424 13.015 C 6.349 12.583,7.352 12.313,9.800 11.837 C 11.993 11.412,12.270 11.340,13.000 11.009 C 13.540 10.765,14.251 10.296,14.660 9.915 L 14.860 9.729 15.300 9.682 C 16.279 9.577,17.055 9.349,17.891 8.920 C 18.411 8.653,18.480 8.622,18.480 8.658 M19.692 9.050 C 20.019 9.224,20.435 9.639,20.580 9.937 C 20.743 10.270,20.756 10.544,20.625 10.891 C 20.504 11.211,20.518 11.280,20.706 11.280 C 20.830 11.280,20.857 11.257,20.991 11.042 C 21.073 10.911,21.151 10.803,21.165 10.802 C 21.250 10.796,21.825 11.235,22.060 11.486 C 22.540 11.999,22.774 12.498,22.897 13.276 C 22.947 13.590,23.007 13.786,23.145 14.086 C 23.432 14.712,23.444 14.831,23.200 14.640 C 23.074 14.541,22.873 14.538,22.787 14.632 C 22.726 14.700,22.736 14.719,22.961 14.941 C 23.092 15.071,23.200 15.212,23.200 15.254 C 23.200 15.385,23.039 15.599,22.878 15.681 C 22.791 15.725,22.643 15.760,22.543 15.760 C 22.393 15.760,22.350 15.778,22.295 15.862 C 22.191 16.020,21.950 16.120,21.567 16.164 C 20.889 16.241,20.744 16.277,20.370 16.462 C 20.022 16.633,19.880 16.673,19.320 16.752 L 19.100 16.783 19.218 16.861 C 19.317 16.927,19.432 16.944,19.918 16.964 C 20.345 16.982,20.551 17.008,20.689 17.063 C 20.853 17.127,20.902 17.130,21.049 17.088 C 21.594 16.933,21.708 16.912,21.897 16.935 C 22.211 16.972,22.517 17.146,22.670 17.375 C 22.825 17.607,22.830 17.640,22.704 17.640 C 22.652 17.640,22.568 17.673,22.518 17.714 L 22.427 17.787 22.614 17.916 C 22.761 18.017,22.800 18.067,22.800 18.157 C 22.800 18.314,22.664 18.470,22.479 18.525 C 22.334 18.568,22.309 18.564,22.153 18.460 C 21.986 18.350,21.981 18.349,21.682 18.395 C 21.473 18.426,21.337 18.428,21.240 18.400 C 21.163 18.378,21.088 18.360,21.072 18.360 C 21.057 18.360,20.989 18.475,20.922 18.615 C 20.754 18.967,20.437 19.280,20.071 19.455 C 19.597 19.682,19.335 19.735,18.700 19.735 C 17.865 19.735,17.438 19.595,16.998 19.175 C 16.707 18.897,16.606 18.706,16.379 18.000 C 15.990 16.794,15.478 16.114,14.683 15.751 C 14.193 15.526,13.548 15.460,12.994 15.578 C 12.733 15.633,12.278 15.835,12.406 15.838 C 12.715 15.847,13.679 15.977,13.917 16.042 C 14.575 16.223,15.287 16.713,15.601 17.201 C 15.672 17.313,15.815 17.650,15.919 17.952 C 16.172 18.689,16.409 19.153,16.685 19.456 C 16.946 19.741,17.184 19.882,17.737 20.079 C 18.096 20.206,18.138 20.232,18.169 20.340 C 18.245 20.605,18.102 21.035,17.838 21.336 C 17.771 21.412,17.554 21.595,17.357 21.743 C 16.978 22.024,16.880 22.153,16.880 22.365 C 16.880 22.498,16.974 22.640,17.063 22.640 C 17.091 22.640,17.326 22.557,17.586 22.455 C 18.024 22.284,18.078 22.272,18.339 22.289 C 18.805 22.319,19.080 22.509,19.080 22.799 C 19.079 23.257,18.544 23.492,17.737 23.388 C 17.486 23.355,17.236 23.347,17.077 23.366 C 16.599 23.422,12.434 23.446,10.040 23.406 C 7.678 23.367,7.656 23.366,7.180 23.260 C 5.743 22.940,4.382 22.267,3.397 21.390 C 2.185 20.310,1.301 18.830,0.942 17.280 C 0.860 16.927,0.864 16.912,0.987 17.120 C 1.229 17.528,1.668 18.071,1.583 17.857 C 1.566 17.814,1.374 17.299,1.156 16.711 L 0.760 15.642 0.760 15.148 C 0.760 14.876,0.772 14.641,0.787 14.626 C 0.802 14.612,0.898 14.811,1.001 15.070 C 1.355 15.958,1.792 16.749,2.354 17.518 C 2.753 18.063,2.771 18.094,2.942 18.508 C 3.022 18.702,3.141 18.954,3.206 19.070 C 3.272 19.186,3.306 19.280,3.282 19.280 C 3.158 19.280,2.801 19.053,2.244 18.620 L 2.141 18.540 2.257 18.740 C 2.619 19.367,3.162 19.847,4.167 20.430 C 4.328 20.524,4.631 20.725,4.840 20.879 C 5.233 21.167,5.863 21.513,6.326 21.695 C 6.653 21.823,7.547 22.081,7.658 22.078 C 7.800 22.076,7.439 21.788,7.133 21.661 C 5.796 21.102,4.814 20.346,4.149 19.363 C 3.926 19.034,3.600 18.374,3.600 18.252 C 3.600 18.134,3.780 17.630,3.922 17.349 C 4.353 16.500,5.077 15.999,6.240 15.746 C 6.584 15.670,8.731 15.358,8.753 15.379 C 8.761 15.387,8.697 15.499,8.610 15.627 C 8.524 15.755,8.411 15.937,8.359 16.031 C 8.307 16.125,8.227 16.211,8.182 16.221 C 6.848 16.520,6.520 16.611,6.173 16.780 C 5.728 16.997,5.424 17.275,5.245 17.631 C 5.087 17.944,5.088 17.986,5.250 17.833 C 5.477 17.620,5.952 17.329,6.282 17.202 C 6.696 17.042,7.073 16.965,7.591 16.933 C 7.990 16.908,8.008 16.911,7.986 16.984 C 7.941 17.127,7.885 17.620,7.858 18.100 C 7.816 18.868,7.949 19.598,8.227 20.128 C 8.306 20.278,8.383 20.400,8.398 20.400 C 8.414 20.400,8.403 20.287,8.375 20.150 C 8.230 19.439,8.202 18.658,8.299 18.059 C 8.526 16.657,9.334 15.580,10.758 14.781 C 11.460 14.387,11.946 14.220,13.736 13.761 C 14.969 13.444,15.263 13.350,15.694 13.135 C 16.263 12.850,16.505 12.664,17.120 12.040 C 17.698 11.452,17.911 11.267,18.142 11.149 L 18.263 11.087 18.351 11.273 C 18.425 11.434,18.689 11.760,18.743 11.760 C 18.753 11.760,18.716 11.670,18.660 11.561 C 18.456 11.158,18.391 10.655,18.498 10.301 C 18.547 10.138,19.102 9.160,19.146 9.160 C 19.154 9.160,19.150 9.228,19.137 9.310 C 19.098 9.552,19.190 9.931,19.409 10.432 C 19.660 11.007,19.680 11.166,19.551 11.550 C 19.476 11.773,19.467 11.840,19.508 11.840 C 19.601 11.840,19.755 11.718,19.844 11.574 C 19.988 11.341,19.941 11.014,19.664 10.326 C 19.434 9.754,19.305 9.162,19.372 8.987 C 19.406 8.898,19.410 8.899,19.692 9.050 M2.701 11.130 C 2.702 11.809,2.716 12.036,2.773 12.260 C 2.905 12.785,3.190 13.273,3.460 13.440 L 3.597 13.524 3.414 13.772 C 3.314 13.908,3.206 14.070,3.175 14.130 C 3.144 14.191,3.103 14.240,3.084 14.240 C 3.056 14.240,2.917 13.956,2.820 13.700 C 2.795 13.633,2.771 13.660,2.674 13.865 C 2.519 14.191,2.452 14.682,2.508 15.084 C 2.531 15.247,2.544 15.387,2.537 15.395 C 2.511 15.425,1.995 14.598,1.786 14.190 C 1.666 13.956,1.483 13.549,1.380 13.285 L 1.193 12.807 1.380 12.364 C 1.610 11.820,1.988 11.180,2.384 10.667 C 2.548 10.454,2.686 10.280,2.691 10.280 C 2.696 10.280,2.700 10.662,2.701 11.130 M21.180 12.805 C 21.092 12.826,20.957 12.895,20.880 12.959 C 20.756 13.063,20.746 13.085,20.790 13.157 C 20.817 13.202,20.840 13.309,20.840 13.394 C 20.840 13.602,20.945 13.725,21.228 13.849 C 21.608 14.016,21.657 14.018,21.818 13.876 L 21.960 13.752 21.960 13.975 L 21.960 14.198 21.850 14.156 C 21.790 14.133,21.605 14.087,21.440 14.053 C 20.954 13.955,20.701 13.761,20.617 13.421 C 20.590 13.317,20.584 13.312,20.556 13.381 C 20.539 13.425,20.524 13.550,20.523 13.661 C 20.520 13.829,20.540 13.886,20.644 14.012 C 20.873 14.290,21.234 14.389,21.823 14.336 L 22.113 14.310 22.166 14.125 C 22.279 13.732,22.200 13.233,21.988 13.007 C 21.809 12.815,21.484 12.734,21.180 12.805 M21.473 13.101 C 21.632 13.302,21.425 13.573,21.183 13.481 C 20.997 13.411,20.969 13.142,21.136 13.031 C 21.231 12.967,21.395 13.001,21.473 13.101 M1.919 15.360 C 2.036 15.547,2.217 15.826,2.320 15.980 C 2.503 16.251,2.509 16.272,2.535 16.640 L 2.562 17.020 2.460 16.900 C 2.052 16.421,1.473 15.342,1.245 14.640 C 1.129 14.281,1.001 13.788,1.001 13.700 C 1.002 13.678,1.160 13.966,1.354 14.340 C 1.547 14.714,1.802 15.173,1.919 15.360 M16.921 15.288 C 16.916 15.682,17.358 16.256,17.855 16.501 C 18.147 16.645,18.591 16.760,18.840 16.757 C 18.952 16.755,18.904 16.729,18.594 16.625 C 18.382 16.553,18.084 16.420,17.932 16.330 C 17.598 16.131,17.181 15.700,17.031 15.399 C 16.940 15.213,16.923 15.197,16.921 15.288 M23.108 19.024 C 23.276 19.376,23.317 19.723,23.246 20.180 C 23.173 20.649,23.085 20.884,22.925 21.045 C 22.740 21.229,22.558 21.280,22.080 21.279 C 21.292 21.278,20.579 21.029,20.294 20.656 C 20.202 20.536,20.179 20.459,20.167 20.237 L 20.151 19.965 20.424 19.833 C 20.758 19.670,21.112 19.350,21.308 19.033 L 21.454 18.795 21.716 18.823 C 21.859 18.839,22.035 18.876,22.107 18.906 C 22.179 18.936,22.302 18.960,22.380 18.960 C 22.521 18.960,22.811 18.840,22.860 18.761 C 22.914 18.673,22.970 18.732,23.108 19.024 M19.236 20.339 C 19.193 20.437,19.136 20.662,19.110 20.839 C 19.056 21.211,19.095 21.471,19.256 21.823 C 19.357 22.043,19.346 22.099,19.227 21.967 C 19.107 21.835,18.793 21.709,18.476 21.668 L 18.163 21.626 18.297 21.443 C 18.546 21.100,18.641 20.854,18.700 20.392 C 18.727 20.185,18.739 20.178,19.128 20.166 L 19.316 20.160 19.236 20.339 M19.912 21.191 C 20.161 21.433,20.639 21.682,21.040 21.780 C 21.607 21.918,22.557 21.899,23.167 21.738 C 23.282 21.708,23.383 21.690,23.391 21.698 C 23.424 21.731,23.244 22.072,23.119 22.215 C 22.851 22.521,22.431 22.636,21.573 22.639 C 21.222 22.640,21.160 22.662,21.160 22.783 C 21.160 22.901,21.239 22.943,21.533 22.978 C 21.842 23.016,21.938 23.107,21.907 23.334 C 21.884 23.507,21.768 23.640,21.642 23.640 C 21.603 23.640,21.492 23.598,21.395 23.546 C 21.298 23.494,21.130 23.439,21.022 23.422 C 20.741 23.380,20.590 23.218,20.591 22.960 C 20.591 22.949,20.602 22.841,20.616 22.720 L 20.642 22.500 20.405 22.371 C 20.079 22.192,19.746 21.878,19.623 21.631 C 19.518 21.421,19.498 21.238,19.547 20.942 L 19.573 20.784 19.634 20.882 C 19.668 20.936,19.793 21.075,19.912 21.191 " stroke="none" fill="black" fill-rule="evenodd"></path></svg>