<svg role="img" xmlns="http://www.w3.org/2000/svg" viewBox="0 0 24 24"><path d="M10.510 0.041 C 9.796 0.221,9.115 1.056,8.829 2.100 C 8.767 2.326,8.664 2.888,8.077 6.220 C 7.813 7.719,7.818 7.695,7.746 7.755 C 7.718 7.778,6.778 8.087,5.657 8.441 C 2.625 9.399,1.952 9.628,1.514 9.847 C 0.544 10.333,0.125 11.067,0.342 11.901 C 0.484 12.446,0.975 13.055,1.545 13.394 C 1.845 13.572,4.950 14.968,6.053 15.421 L 6.725 15.697 6.702 15.879 C 6.632 16.408,6.154 21.574,6.134 22.000 C 6.116 22.385,6.126 22.563,6.176 22.772 C 6.304 23.318,6.531 23.665,6.886 23.861 C 7.074 23.966,7.139 23.980,7.423 23.979 C 7.714 23.979,7.776 23.964,8.043 23.832 C 8.586 23.563,8.602 23.546,10.901 20.820 C 11.865 19.676,12.788 18.582,12.950 18.390 C 13.113 18.197,13.280 18.021,13.323 17.999 C 13.383 17.966,13.611 18.026,14.390 18.280 C 14.934 18.458,16.019 18.792,16.800 19.022 C 17.581 19.252,18.427 19.505,18.680 19.584 C 19.204 19.746,19.508 19.764,20.074 19.664 C 20.796 19.537,21.412 18.935,21.562 18.209 C 21.631 17.880,21.590 17.396,21.466 17.070 C 21.409 16.921,20.910 15.940,20.356 14.890 C 18.831 12.000,18.760 11.861,18.760 11.752 C 18.760 11.678,19.014 11.352,19.711 10.535 C 22.312 7.484,22.993 6.679,23.170 6.446 C 23.826 5.581,23.896 4.750,23.356 4.264 C 23.031 3.972,22.801 3.902,22.160 3.903 L 21.620 3.904 19.360 4.509 C 15.812 5.459,15.427 5.560,15.338 5.560 C 15.214 5.560,15.132 5.451,14.678 4.680 C 13.779 3.152,12.581 1.205,12.372 0.930 C 11.918 0.333,11.469 0.046,10.947 0.018 C 10.789 0.010,10.592 0.020,10.510 0.041 M11.151 3.890 C 11.215 3.984,11.846 5.025,12.553 6.206 C 13.260 7.386,13.867 8.362,13.901 8.375 C 13.935 8.388,14.948 8.137,16.152 7.816 C 18.765 7.120,19.692 6.879,19.705 6.892 C 19.720 6.906,17.992 8.997,17.040 10.117 C 15.771 11.610,15.751 11.637,15.778 11.746 C 15.791 11.797,16.041 12.294,16.335 12.850 C 18.371 16.706,18.339 16.644,18.270 16.620 C 18.242 16.610,17.401 16.377,16.400 16.102 C 15.399 15.827,14.202 15.475,13.740 15.320 C 13.267 15.161,12.863 15.047,12.816 15.058 C 12.769 15.070,12.500 15.354,12.217 15.689 C 9.468 18.957,8.908 19.604,8.865 19.561 C 8.762 19.458,8.797 18.804,9.041 16.247 C 9.268 13.875,9.285 13.634,9.230 13.549 C 9.167 13.453,9.088 13.420,5.590 12.038 C 4.804 11.728,4.160 11.458,4.160 11.440 C 4.160 11.390,4.275 11.352,7.120 10.456 C 8.561 10.003,9.786 9.608,9.842 9.579 C 9.941 9.528,9.955 9.463,10.461 6.623 C 10.745 5.026,10.991 3.720,11.007 3.720 C 11.023 3.720,11.088 3.796,11.151 3.890 " stroke="none" fill="black" fill-rule="evenodd"></path></svg>