<svg role="img" viewBox="0 0 24 24" xmlns="http://www.w3.org/2000/svg"><path d="M10.940 0.046 C 6.260 0.450,2.189 3.633,0.659 8.086 C -1.496 14.353,1.819 21.165,8.080 23.338 C 13.222 25.123,18.959 23.192,21.978 18.660 C 23.773 15.966,24.404 12.681,23.736 9.508 C 23.539 8.575,23.465 8.427,23.135 8.318 C 22.943 8.255,22.745 8.301,22.580 8.446 C 22.352 8.645,22.337 8.790,22.477 9.389 C 22.737 10.506,22.823 11.340,22.786 12.380 C 22.707 14.616,21.979 16.683,20.643 18.474 C 20.153 19.131,19.146 20.140,18.500 20.624 C 16.663 21.999,14.619 22.714,12.320 22.788 C 9.387 22.882,6.610 21.802,4.489 19.744 C 2.720 18.027,1.659 15.942,1.294 13.460 C 1.195 12.787,1.195 11.213,1.294 10.540 C 1.659 8.061,2.715 5.982,4.485 4.259 C 6.196 2.593,8.227 1.615,10.680 1.274 C 11.168 1.207,12.775 1.206,13.280 1.273 C 15.170 1.524,16.786 2.151,18.260 3.207 C 18.502 3.381,18.759 3.573,18.831 3.635 C 18.953 3.740,18.959 3.757,18.916 3.864 C 18.891 3.928,18.870 4.115,18.870 4.280 C 18.872 4.717,18.987 4.994,19.296 5.304 C 19.606 5.613,19.884 5.729,20.320 5.729 C 20.756 5.729,21.034 5.613,21.344 5.304 C 21.653 4.994,21.770 4.715,21.772 4.280 C 21.774 3.889,21.660 3.593,21.401 3.308 C 21.043 2.917,20.558 2.746,20.068 2.839 L 19.812 2.887 19.456 2.601 C 17.113 0.718,13.992 -0.218,10.940 0.046 M10.516 5.990 C 10.495 6.050,9.553 8.494,8.425 11.420 C 7.296 14.346,6.380 16.753,6.389 16.770 C 6.397 16.787,6.979 16.800,7.680 16.800 C 8.656 16.800,8.963 16.788,8.987 16.750 C 9.005 16.723,9.167 16.304,9.346 15.820 L 9.674 14.940 11.653 14.920 L 13.632 14.900 13.282 13.900 L 12.931 12.900 11.628 12.880 L 10.326 12.860 11.144 10.600 C 11.593 9.357,11.970 8.315,11.982 8.284 C 11.993 8.254,12.010 8.236,12.019 8.246 C 12.029 8.255,12.696 10.135,13.503 12.422 C 14.309 14.709,14.987 16.630,15.008 16.690 L 15.048 16.800 16.349 16.800 L 17.649 16.800 17.630 16.710 C 17.620 16.660,16.698 14.253,15.581 11.360 C 14.465 8.467,13.534 6.050,13.512 5.990 L 13.472 5.880 12.014 5.880 L 10.556 5.880 10.516 5.990 " stroke="none" fill="black" fill-rule="evenodd"></path></svg>