<svg role="img" viewBox="0 0 24 24" xmlns="http://www.w3.org/2000/svg"><path d="M11.225 0.961 C 10.449 1.083,9.548 1.458,8.918 1.922 C 7.845 2.712,7.087 3.926,6.862 5.215 C 6.782 5.676,6.782 6.564,6.862 7.025 C 7.236 9.173,8.937 10.878,11.098 11.268 C 11.581 11.355,12.426 11.354,12.918 11.265 C 14.520 10.976,15.948 9.906,16.678 8.447 C 16.856 8.091,17.065 7.444,17.138 7.025 C 17.218 6.563,17.218 5.686,17.137 5.220 C 16.791 3.225,15.270 1.584,13.291 1.074 C 12.875 0.966,12.741 0.950,12.140 0.938 C 11.766 0.931,11.354 0.941,11.225 0.961 M4.673 12.681 C 2.647 12.912,0.912 14.299,0.282 16.191 C 0.074 16.813,0.022 17.156,0.022 17.880 C 0.023 18.588,0.075 18.936,0.269 19.518 C 0.687 20.775,1.613 21.864,2.802 22.496 C 4.013 23.140,5.551 23.261,6.878 22.817 C 8.410 22.304,9.656 21.060,10.158 19.543 C 10.372 18.897,10.413 18.638,10.416 17.900 C 10.419 17.154,10.370 16.824,10.159 16.192 C 9.650 14.665,8.352 13.389,6.817 12.907 C 6.150 12.698,5.306 12.608,4.673 12.681 M18.218 12.684 C 16.229 12.894,14.471 14.303,13.842 16.191 C 13.634 16.813,13.582 17.156,13.582 17.880 C 13.583 18.588,13.635 18.936,13.829 19.518 C 14.248 20.778,15.171 21.863,16.362 22.496 C 17.573 23.140,19.111 23.261,20.438 22.817 C 22.462 22.140,23.872 20.282,23.987 18.140 C 24.074 16.521,23.374 14.911,22.135 13.883 C 21.298 13.189,20.355 12.792,19.277 12.682 C 18.824 12.635,18.683 12.636,18.218 12.684 " stroke="none" fill="black" fill-rule="evenodd"></path></svg>