<svg role="img" viewBox="0 0 24 24" xmlns="http://www.w3.org/2000/svg"><path d="M7.181 0.512 C 7.643 0.672,8.014 0.995,8.210 1.410 C 8.330 1.664,9.313 4.029,9.860 5.380 C 10.074 5.908,10.627 7.231,11.088 8.320 C 11.810 10.022,12.397 11.416,14.603 16.660 L 14.956 17.500 7.948 17.512 C 2.928 17.521,0.881 17.512,0.733 17.480 C 0.619 17.455,0.414 17.363,0.277 17.275 L 0.029 17.115 0.119 17.267 C 0.315 17.600,1.565 19.936,2.721 22.132 C 3.003 22.668,3.091 22.798,3.302 22.996 C 3.588 23.263,3.810 23.382,4.136 23.443 C 4.679 23.543,5.697 23.241,6.799 22.653 C 7.031 22.529,8.964 21.341,11.096 20.012 C 13.227 18.683,14.984 17.610,14.999 17.628 C 15.015 17.645,15.564 18.947,16.220 20.520 C 16.875 22.093,17.430 23.421,17.452 23.470 L 17.493 23.560 20.746 23.560 C 22.536 23.560,24.000 23.552,24.000 23.543 C 24.000 23.381,19.453 12.456,16.148 4.680 C 14.523 0.856,14.525 0.859,14.252 0.651 C 13.972 0.438,14.077 0.444,10.400 0.443 C 7.105 0.443,6.987 0.445,7.181 0.512 M6.217 1.419 C 6.093 1.481,5.963 1.591,5.874 1.709 C 5.771 1.845,4.960 3.720,3.045 8.249 C 1.568 11.740,0.340 14.691,0.315 14.806 C 0.254 15.091,0.290 15.497,0.399 15.750 C 0.555 16.110,0.925 16.355,1.440 16.438 C 1.597 16.463,2.552 16.480,3.860 16.480 L 6.020 16.480 7.869 12.053 L 9.717 7.626 9.215 6.383 C 8.299 4.119,7.471 2.102,7.390 1.940 C 7.105 1.374,6.684 1.187,6.217 1.419 " stroke="none" fill="black" fill-rule="evenodd"></path></svg>