<svg role="img" xmlns="http://www.w3.org/2000/svg" viewBox="0 0 24 24"><path d="M4.920 0.037 C 4.623 0.128,4.413 0.314,4.283 0.600 C 4.203 0.778,4.202 0.834,4.201 6.150 L 4.200 11.520 12.000 11.520 L 19.800 11.520 19.799 6.150 C 19.798 0.834,19.797 0.778,19.717 0.600 C 19.616 0.378,19.469 0.219,19.260 0.106 L 19.100 0.020 12.060 0.013 C 8.188 0.009,4.975 0.020,4.920 0.037 M11.181 2.440 C 11.490 2.730,11.457 3.149,11.108 3.362 C 10.988 3.435,10.897 3.440,9.608 3.440 C 8.121 3.440,8.098 3.437,7.925 3.217 C 7.829 3.096,7.780 2.883,7.816 2.743 C 7.846 2.620,8.028 2.403,8.137 2.358 C 8.183 2.339,8.862 2.327,9.647 2.332 L 11.074 2.340 11.181 2.440 M0.652 12.084 C 0.403 12.180,0.118 12.475,0.048 12.711 C -0.021 12.939,-0.021 23.061,0.048 23.289 C 0.120 23.532,0.402 23.820,0.663 23.918 C 0.880 23.999,0.942 24.000,4.752 23.997 C 8.307 23.994,8.606 23.989,8.443 23.931 C 8.346 23.897,8.192 23.794,8.100 23.702 C 7.782 23.385,7.800 23.656,7.800 19.073 L 7.800 15.000 6.235 15.000 C 4.689 15.000,4.669 14.999,4.511 14.910 C 4.333 14.810,4.200 14.592,4.200 14.400 C 4.200 14.202,4.341 13.971,4.519 13.881 C 4.669 13.804,4.752 13.800,6.238 13.800 L 7.800 13.800 7.800 12.900 L 7.800 12.000 4.330 12.002 C 0.958 12.004,0.854 12.006,0.652 12.084 M8.289 17.610 C 8.299 22.650,8.306 23.234,8.364 23.360 C 8.464 23.579,8.632 23.754,8.855 23.872 L 9.060 23.980 16.098 23.990 C 24.007 24.002,23.376 24.026,23.700 23.702 C 24.021 23.381,24.000 23.784,24.000 18.000 C 24.000 12.217,24.021 12.619,23.701 12.299 C 23.377 11.975,24.058 12.000,15.712 12.000 L 8.278 12.000 8.289 17.610 M15.241 13.874 C 15.410 13.964,15.559 14.210,15.559 14.400 C 15.559 14.590,15.410 14.836,15.241 14.926 C 15.113 14.994,14.990 15.000,13.786 15.000 C 12.498 15.000,12.468 14.998,12.311 14.910 C 12.133 14.810,12.000 14.592,12.000 14.400 C 12.000 14.208,12.142 13.972,12.310 13.882 C 12.450 13.809,12.545 13.803,13.781 13.802 C 14.992 13.800,15.113 13.806,15.241 13.874 M15.600 19.800 L 15.600 20.400 12.600 20.400 L 9.600 20.400 9.600 19.800 L 9.600 19.200 12.600 19.200 L 15.600 19.200 15.600 19.800 M13.200 21.600 L 13.200 22.200 11.400 22.200 L 9.600 22.200 9.600 21.600 L 9.600 21.000 11.400 21.000 L 13.200 21.000 13.200 21.600 " stroke="none" fill="black" fill-rule="evenodd"></path></svg>