<svg role="img" viewBox="0 0 24 24" xmlns="http://www.w3.org/2000/svg"><path d="M5.680 2.841 C 4.601 2.974,3.668 3.320,2.758 3.923 C 2.265 4.251,1.429 5.083,1.088 5.588 C 0.197 6.903,-0.131 8.324,0.056 10.060 C 0.293 12.266,1.193 14.372,2.704 16.260 C 3.145 16.810,4.164 17.835,4.725 18.292 C 6.757 19.948,9.084 20.963,11.300 21.163 C 13.776 21.386,16.661 20.370,19.140 18.402 C 19.760 17.910,20.804 16.872,21.295 16.260 C 22.224 15.103,23.007 13.693,23.439 12.400 C 23.817 11.269,23.974 10.317,23.975 9.140 C 23.976 8.415,23.964 8.243,23.886 7.880 C 23.608 6.593,23.090 5.648,22.142 4.697 C 21.037 3.590,19.811 3.009,18.220 2.837 C 15.744 2.570,13.310 3.808,12.169 5.913 L 12.010 6.206 11.829 5.892 C 10.911 4.300,9.372 3.226,7.567 2.918 C 7.033 2.826,6.107 2.789,5.680 2.841 M7.640 9.424 C 7.640 9.812,7.771 10.454,7.928 10.839 C 8.465 12.152,9.509 13.051,10.959 13.451 C 11.209 13.520,11.381 13.534,11.980 13.537 C 12.615 13.539,12.742 13.529,13.060 13.445 C 14.148 13.159,15.080 12.501,15.672 11.602 C 16.102 10.950,16.312 10.319,16.349 9.570 L 16.371 9.120 17.566 9.120 L 18.760 9.120 18.760 9.270 C 18.760 9.353,18.741 9.618,18.719 9.860 C 18.443 12.793,16.307 15.138,13.340 15.764 C 12.825 15.872,11.697 15.912,11.133 15.841 C 7.899 15.437,5.393 12.791,5.251 9.630 L 5.228 9.120 6.434 9.120 L 7.640 9.120 7.640 9.424 " stroke="none" fill="black" fill-rule="evenodd"></path></svg>