<svg role="img" viewBox="0 0 24 24" xmlns="http://www.w3.org/2000/svg"><path d="M2.450 7.229 L 2.460 14.380 6.660 14.392 C 11.027 14.404,11.529 14.390,12.272 14.237 C 13.744 13.935,15.183 13.106,16.148 12.005 C 17.061 10.964,17.604 9.832,17.865 8.432 C 17.962 7.910,17.981 6.830,17.904 6.280 C 17.471 3.204,15.249 0.843,12.175 0.193 L 11.740 0.101 7.090 0.089 L 2.440 0.077 2.450 7.229 M19.203 11.783 C 19.043 12.084,18.568 12.800,18.328 13.100 C 16.960 14.813,15.108 16.000,13.020 16.502 C 12.012 16.744,12.239 16.735,7.130 16.749 L 2.440 16.763 2.440 20.342 L 2.440 23.922 8.890 23.910 L 15.340 23.897 15.823 23.790 C 18.388 23.219,20.362 21.478,21.164 19.078 C 22.026 16.498,21.408 13.746,19.526 11.790 C 19.425 11.685,19.333 11.600,19.321 11.600 C 19.310 11.600,19.256 11.683,19.203 11.783 " stroke="none" fill="black" fill-rule="evenodd"></path></svg>