<svg role="img" viewBox="0 0 24 24" xmlns="http://www.w3.org/2000/svg"><path d="M0.000 11.901 L 0.000 19.286 3.930 19.269 C 8.197 19.251,8.108 19.256,9.020 19.019 C 10.745 18.572,11.832 17.561,12.208 16.054 C 12.282 15.755,12.296 15.589,12.296 14.980 C 12.296 14.196,12.238 13.850,12.013 13.287 C 11.650 12.376,10.934 11.692,9.991 11.355 L 9.636 11.227 9.873 11.101 C 11.060 10.466,11.640 9.489,11.640 8.125 C 11.640 7.913,11.613 7.575,11.580 7.373 C 11.330 5.829,10.351 4.962,8.461 4.610 C 8.141 4.551,7.637 4.542,4.050 4.530 L 0.000 4.517 0.000 11.901 M15.618 5.531 C 15.607 5.560,15.603 5.888,15.609 6.261 L 15.620 6.940 18.600 6.940 L 21.580 6.940 21.580 6.220 L 21.580 5.500 18.609 5.490 C 16.209 5.481,15.634 5.489,15.618 5.531 M7.179 7.100 C 8.112 7.337,8.480 7.795,8.480 8.720 C 8.480 9.580,8.143 10.067,7.366 10.329 C 7.107 10.416,7.047 10.419,5.170 10.431 L 3.240 10.444 3.240 8.718 L 3.240 6.993 5.070 7.011 C 6.651 7.026,6.938 7.039,7.179 7.100 M17.945 8.325 C 16.831 8.468,15.731 9.018,14.920 9.835 C 14.165 10.598,13.679 11.518,13.432 12.652 C 13.310 13.213,13.301 14.571,13.415 15.180 C 13.635 16.355,14.098 17.271,14.855 18.022 C 15.769 18.930,16.872 19.396,18.291 19.474 C 20.216 19.580,21.734 19.037,22.693 17.899 C 23.079 17.440,23.521 16.610,23.699 16.010 L 23.725 15.920 22.433 15.920 L 21.140 15.920 21.062 16.110 C 20.937 16.413,20.514 16.800,20.070 17.018 C 19.140 17.475,17.827 17.380,17.104 16.804 C 17.019 16.736,16.960 16.680,16.974 16.680 C 16.988 16.680,16.934 16.595,16.853 16.490 C 16.570 16.121,16.363 15.519,16.298 14.870 L 16.271 14.600 20.125 14.590 L 23.980 14.580 23.993 14.280 C 23.999 14.115,23.986 13.749,23.963 13.468 C 23.830 11.860,23.307 10.623,22.361 9.680 C 21.389 8.711,20.237 8.270,18.721 8.285 C 18.445 8.288,18.096 8.306,17.945 8.325 M19.300 10.540 C 19.671 10.619,20.038 10.804,20.247 11.018 C 20.594 11.374,20.882 12.004,20.945 12.542 L 20.971 12.760 18.592 12.760 L 16.212 12.760 16.247 12.530 C 16.339 11.930,16.541 11.499,16.900 11.140 C 17.180 10.859,17.610 10.619,17.971 10.540 C 18.305 10.468,18.956 10.468,19.300 10.540 M7.300 12.719 C 8.457 12.906,9.005 13.495,9.066 14.620 C 9.127 15.730,8.674 16.357,7.620 16.622 C 7.376 16.684,7.079 16.695,5.290 16.709 L 3.240 16.726 3.240 14.703 L 3.240 12.680 5.150 12.680 C 6.200 12.680,7.168 12.698,7.300 12.719 " stroke="none" fill="black" fill-rule="evenodd"></path></svg>