<svg role="img" viewBox="0 0 24 24" xmlns="http://www.w3.org/2000/svg"><path d="M3.610 10.664 L 3.620 21.336 6.013 22.669 L 8.406 24.001 14.393 20.547 L 20.380 17.093 20.390 14.372 L 20.401 11.651 20.099 11.543 C 17.964 10.785,9.785 7.922,9.777 7.930 C 9.767 7.941,10.130 8.856,11.183 11.465 L 11.846 13.111 13.485 13.881 C 14.468 14.343,15.110 14.666,15.088 14.688 C 15.068 14.708,13.559 15.585,11.736 16.637 L 8.420 18.549 8.410 10.119 C 8.400 2.137,8.396 1.687,8.330 1.662 C 8.291 1.647,7.242 1.277,5.999 0.839 C 4.755 0.402,3.707 0.032,3.669 0.018 C 3.604 -0.007,3.600 0.580,3.610 10.664 " stroke="none" fill="black" fill-rule="evenodd"></path></svg>