<svg role="img" viewBox="0 0 24 24" xmlns="http://www.w3.org/2000/svg"><path d="M1.551 0.062 C 0.796 0.245,0.182 0.884,0.041 1.635 C -0.016 1.933,-0.016 22.067,0.041 22.365 C 0.147 22.929,0.574 23.504,1.072 23.756 C 1.587 24.016,0.814 23.999,11.985 23.999 C 18.697 24.000,22.222 23.986,22.365 23.959 C 22.929 23.853,23.504 23.426,23.756 22.928 C 24.016 22.413,23.999 23.186,23.999 12.015 C 24.000 5.303,23.986 1.778,23.959 1.635 C 23.856 1.086,23.402 0.464,22.930 0.225 C 22.455 -0.016,23.204 -0.000,12.022 0.003 C 3.436 0.006,1.743 0.016,1.551 0.062 M13.010 4.075 C 14.232 4.347,15.277 5.007,15.998 5.964 C 16.614 6.782,16.907 7.578,17.013 8.729 C 17.061 9.260,17.078 9.336,17.184 9.508 C 17.256 9.623,17.379 9.745,17.498 9.819 L 17.693 9.940 18.457 9.960 C 19.195 9.980,19.228 9.984,19.453 10.095 C 19.701 10.216,19.875 10.412,19.968 10.673 C 20.008 10.787,20.020 11.340,20.020 13.160 C 20.019 15.195,20.011 15.547,19.951 15.860 C 19.601 17.715,18.293 19.221,16.549 19.776 C 15.801 20.014,15.861 20.011,12.340 20.029 C 8.932 20.046,8.435 20.029,7.807 19.875 C 5.922 19.411,4.500 17.935,4.073 16.000 L 3.980 15.580 3.980 12.000 L 3.980 8.420 4.073 8.000 C 4.501 6.060,5.912 4.596,7.810 4.122 C 8.365 3.984,8.701 3.967,10.720 3.978 C 12.501 3.988,12.644 3.994,13.010 4.075 M8.539 8.114 C 7.906 8.404,7.764 9.210,8.260 9.692 C 8.544 9.968,8.504 9.964,10.783 9.951 L 12.826 9.940 13.023 9.819 C 13.156 9.737,13.262 9.626,13.350 9.480 C 13.462 9.294,13.480 9.226,13.480 9.000 C 13.480 8.774,13.462 8.706,13.350 8.520 C 13.262 8.374,13.156 8.263,13.023 8.181 L 12.826 8.060 10.763 8.050 C 8.832 8.041,8.690 8.045,8.539 8.114 M8.564 14.145 C 8.205 14.324,8.018 14.664,8.048 15.081 C 8.070 15.388,8.233 15.655,8.498 15.819 L 8.694 15.940 11.977 15.951 C 15.631 15.963,15.448 15.976,15.740 15.692 C 16.135 15.308,16.142 14.708,15.757 14.323 C 15.459 14.025,15.681 14.042,12.038 14.041 L 8.776 14.040 8.564 14.145 " stroke="none" fill="black" fill-rule="evenodd"></path></svg>