<svg xmlns="http://www.w3.org/2000/svg" role="img" viewBox="0 0 24 24"><path d="M6.293 1.390 L 5.692 2.780 4.786 2.791 L 3.880 2.802 3.880 4.059 L 3.880 5.317 4.228 5.328 L 4.576 5.340 4.905 7.440 C 5.087 8.595,5.246 9.598,5.259 9.669 L 5.283 9.798 4.730 9.809 L 4.176 9.820 4.905 13.920 C 5.307 16.175,5.636 18.024,5.638 18.029 C 5.639 18.034,5.851 18.043,6.108 18.049 L 6.577 18.060 7.046 21.020 C 7.303 22.648,7.516 23.984,7.517 23.990 C 7.526 24.022,16.440 23.994,16.440 23.962 C 16.440 23.941,16.647 22.615,16.900 21.014 C 17.153 19.413,17.360 18.089,17.360 18.072 C 17.360 18.054,17.559 18.040,17.801 18.040 C 18.118 18.040,18.248 18.026,18.260 17.990 C 18.270 17.963,18.593 16.158,18.979 13.980 C 19.364 11.802,19.690 9.971,19.703 9.910 L 19.726 9.800 19.203 9.800 C 18.799 9.800,18.680 9.788,18.680 9.748 C 18.680 9.719,18.833 8.725,19.020 7.539 C 19.207 6.353,19.360 5.368,19.360 5.351 C 19.360 5.334,19.531 5.320,19.740 5.320 L 20.120 5.320 20.120 4.060 L 20.120 2.800 19.167 2.800 L 18.215 2.800 18.153 2.670 C 18.120 2.598,17.844 1.968,17.541 1.270 L 16.990 0.000 11.943 -0.000 L 6.895 -0.000 6.293 1.390 M16.844 1.667 C 17.051 2.143,17.226 2.548,17.233 2.567 C 17.241 2.585,14.869 2.600,11.963 2.600 C 8.598 2.600,6.680 2.586,6.680 2.561 C 6.680 2.524,7.320 1.029,7.402 0.877 C 7.442 0.802,7.539 0.800,11.955 0.800 L 16.468 0.800 16.844 1.667 M19.320 4.060 L 19.320 4.520 12.000 4.520 L 4.680 4.520 4.680 4.060 L 4.680 3.600 12.000 3.600 L 19.320 3.600 19.320 4.060 M18.744 10.710 C 18.712 10.872,17.600 17.144,17.600 17.167 C 17.600 17.177,15.057 17.186,11.948 17.187 L 6.296 17.187 5.723 13.944 C 5.407 12.160,5.140 10.678,5.130 10.650 C 5.115 10.610,6.494 10.600,11.939 10.600 L 18.766 10.600 18.744 10.710 " stroke="none" fill="black" fill-rule="evenodd"></path></svg>