<svg role="img" viewBox="0 0 24 24" xmlns="http://www.w3.org/2000/svg"><path d="M0.000 8.060 L 0.000 16.120 8.070 16.110 L 16.140 16.100 16.140 12.880 L 16.140 9.660 16.028 9.432 C 15.899 9.169,15.749 9.029,15.440 8.884 C 15.249 8.794,15.167 8.780,14.819 8.780 C 14.447 8.780,14.399 8.789,14.151 8.911 C 13.986 8.993,13.838 9.102,13.762 9.198 C 13.515 9.510,13.520 9.456,13.520 11.559 L 13.520 13.480 10.939 13.480 L 8.358 13.480 8.382 13.370 C 8.454 13.042,8.711 12.292,8.866 11.962 C 9.469 10.670,10.671 9.469,11.966 8.863 C 12.437 8.643,12.967 8.466,13.498 8.351 C 14.052 8.231,15.339 8.223,15.940 8.335 C 17.292 8.587,18.440 9.194,19.423 10.177 C 20.401 11.155,20.946 12.168,21.245 13.565 C 21.376 14.174,21.378 15.390,21.250 16.022 C 20.768 18.405,19.119 20.285,16.853 21.035 C 16.151 21.267,15.669 21.339,14.800 21.338 C 14.217 21.338,13.932 21.320,13.670 21.268 C 11.518 20.836,9.925 19.624,8.896 17.638 C 8.601 17.068,8.297 16.736,7.952 16.607 C 7.304 16.366,6.524 16.509,6.187 16.930 C 5.930 17.250,6.011 17.676,6.538 18.780 C 6.991 19.729,7.492 20.447,8.238 21.214 C 9.664 22.681,11.422 23.581,13.500 23.907 C 14.042 23.992,15.444 24.004,15.980 23.927 C 17.601 23.697,19.160 23.050,20.420 22.085 C 21.998 20.877,23.201 19.051,23.698 17.109 C 23.918 16.252,23.976 15.773,23.977 14.820 C 23.978 13.891,23.921 13.397,23.721 12.600 C 23.552 11.931,23.392 11.496,23.062 10.818 C 21.849 8.326,19.603 6.504,16.953 5.860 C 16.740 5.809,16.466 5.754,16.343 5.739 L 16.120 5.711 16.120 2.855 L 16.120 0.000 8.060 0.000 L 0.000 0.000 0.000 8.060 M13.470 4.165 L 13.460 5.691 13.020 5.780 C 11.931 5.999,10.846 6.422,9.963 6.971 C 8.806 7.690,7.690 8.806,6.971 9.963 C 6.419 10.851,6.001 11.925,5.780 13.020 L 5.691 13.460 4.165 13.470 L 2.640 13.481 2.640 8.060 L 2.640 2.640 8.060 2.640 L 13.481 2.640 13.470 4.165 " stroke="none" fill="black" fill-rule="evenodd"></path></svg>