<svg role="img" viewBox="0 0 24 24" xmlns="http://www.w3.org/2000/svg"><path d="M11.100 0.082 C 9.473 0.245,8.069 0.645,6.670 1.344 C 5.297 2.030,4.083 2.909,3.088 3.938 C 1.625 5.452,0.729 7.207,0.302 9.397 C -0.063 11.272,-0.025 13.780,0.397 15.500 C 0.895 17.535,2.065 19.436,3.800 21.030 C 5.699 22.775,7.572 23.617,10.190 23.902 C 10.962 23.987,13.141 24.022,13.940 23.963 C 17.072 23.733,19.524 22.748,21.411 20.961 C 22.842 19.607,23.679 17.695,23.680 15.777 L 23.680 15.254 22.410 15.184 C 21.712 15.145,20.222 15.063,19.100 15.001 C 17.978 14.939,17.049 14.895,17.036 14.903 C 17.022 14.911,17.001 14.995,16.987 15.089 C 16.945 15.396,16.759 15.972,16.580 16.349 C 16.039 17.494,15.243 18.164,14.087 18.448 C 13.633 18.560,12.714 18.568,12.185 18.465 C 10.736 18.183,9.640 17.449,8.829 16.220 C 8.065 15.061,7.680 13.628,7.680 11.946 C 7.680 9.881,8.221 8.300,9.297 7.215 C 9.934 6.573,10.695 6.164,11.640 5.953 C 12.010 5.871,12.159 5.860,12.900 5.863 C 13.678 5.866,13.770 5.874,14.140 5.973 C 14.619 6.101,15.168 6.359,15.510 6.617 C 16.198 7.138,16.746 8.002,16.948 8.886 L 17.018 9.193 17.499 9.215 C 17.763 9.228,19.326 9.248,20.970 9.260 L 23.960 9.282 23.960 9.151 C 23.959 8.962,23.781 8.129,23.636 7.641 C 23.351 6.681,22.841 5.575,22.311 4.768 C 20.571 2.117,17.878 0.569,14.260 0.139 C 13.608 0.062,11.654 0.026,11.100 0.082 " stroke="none" fill="black" fill-rule="evenodd"></path></svg>