<svg role="img" xmlns="http://www.w3.org/2000/svg" viewBox="0 0 24 24"><path d="M1.728 0.081 C 1.317 0.189,0.986 0.378,0.682 0.680 C 0.375 0.984,0.189 1.312,0.079 1.744 C 0.001 2.047,0.000 2.225,0.000 12.000 C 0.000 21.775,0.001 21.953,0.079 22.256 C 0.291 23.087,0.912 23.708,1.740 23.920 C 2.049 23.999,2.188 24.000,12.000 24.000 C 21.775 24.000,21.953 23.999,22.256 23.921 C 23.090 23.708,23.707 23.091,23.920 22.260 C 23.999 21.951,24.000 21.812,24.000 12.000 C 24.000 2.188,23.999 2.049,23.920 1.740 C 23.815 1.330,23.606 0.964,23.305 0.664 C 23.014 0.374,22.679 0.187,22.256 0.079 C 21.952 0.001,21.779 0.000,11.984 0.002 C 2.305 0.004,2.012 0.007,1.728 0.081 M11.760 3.120 C 13.835 3.275,16.015 3.829,17.750 4.642 L 18.160 4.834 17.947 5.287 C 17.831 5.536,17.565 6.104,17.358 6.550 C 17.150 6.995,16.965 7.360,16.946 7.360 C 16.928 7.360,16.712 7.281,16.466 7.184 C 15.037 6.619,13.113 6.141,11.712 6.004 C 11.026 5.936,10.368 6.045,9.943 6.297 C 9.564 6.522,9.256 6.955,9.164 7.392 C 9.133 7.540,9.120 8.943,9.120 12.014 C 9.120 15.798,9.128 16.456,9.180 16.653 C 9.436 17.635,10.368 18.129,11.713 17.996 C 13.017 17.867,14.959 17.389,16.345 16.857 C 16.656 16.738,16.926 16.640,16.945 16.640 C 16.964 16.640,17.222 17.149,17.517 17.770 C 17.813 18.392,18.078 18.949,18.108 19.009 L 18.161 19.118 17.851 19.274 C 16.695 19.851,14.885 20.413,13.325 20.679 C 12.104 20.887,10.527 20.976,9.722 20.882 C 7.863 20.665,6.602 19.705,6.104 18.125 C 5.851 17.322,5.860 17.560,5.860 12.000 C 5.860 6.440,5.851 6.678,6.104 5.875 C 6.591 4.330,7.840 3.354,9.620 3.126 C 10.014 3.076,11.120 3.073,11.760 3.120 " stroke="none" fill="black" fill-rule="evenodd"></path></svg>