<svg role="img" xmlns="http://www.w3.org/2000/svg" viewBox="0 0 24 24"><path d="M0.000 12.000 L 0.000 19.880 1.437 19.880 L 2.874 19.880 6.727 14.341 C 8.846 11.295,10.593 8.802,10.610 8.801 C 10.627 8.800,10.640 11.293,10.640 14.340 L 10.640 19.881 12.088 19.870 L 13.536 19.860 17.398 14.312 L 21.260 8.764 21.270 14.322 L 21.280 19.880 22.640 19.880 L 24.000 19.880 24.000 12.000 L 24.000 4.120 22.570 4.122 L 21.140 4.125 17.280 9.661 C 15.157 12.706,13.407 15.198,13.390 15.199 C 13.373 15.199,13.360 12.707,13.360 9.660 L 13.360 4.120 11.930 4.121 L 10.500 4.122 6.640 9.656 L 2.780 15.190 2.770 9.655 L 2.760 4.120 1.380 4.120 L 0.000 4.120 0.000 12.000 " stroke="none" fill="black" fill-rule="evenodd"></path></svg>