<svg role="img" viewBox="0 0 24 24" xmlns="http://www.w3.org/2000/svg"><path d="M5.780 0.166 C 4.369 0.324,3.018 0.978,1.966 2.012 C 0.874 3.084,0.204 4.461,0.042 5.968 C -0.016 6.503,-0.016 17.500,0.042 18.032 C 0.262 20.058,1.395 21.838,3.160 22.930 C 3.931 23.407,4.879 23.726,5.862 23.838 C 6.359 23.895,17.626 23.895,18.152 23.838 C 19.919 23.646,21.528 22.746,22.617 21.340 C 23.065 20.763,23.329 20.291,23.576 19.629 C 23.883 18.807,24.000 18.078,24.000 16.989 C 24.000 16.195,23.960 15.955,23.760 15.540 C 23.403 14.799,22.632 14.320,21.797 14.320 C 20.875 14.320,20.040 14.924,19.729 15.816 C 19.640 16.069,19.626 16.193,19.600 16.960 C 19.574 17.686,19.557 17.857,19.485 18.057 C 19.267 18.661,18.732 19.187,18.134 19.383 C 17.907 19.458,17.712 19.460,12.000 19.460 C 6.288 19.460,6.093 19.458,5.866 19.383 C 5.271 19.188,4.741 18.669,4.508 18.054 L 4.420 17.820 4.409 12.121 L 4.399 6.422 4.487 6.126 C 4.698 5.414,5.295 4.845,6.023 4.661 C 6.237 4.606,6.978 4.600,12.303 4.609 L 18.340 4.620 18.520 4.715 C 18.619 4.768,18.754 4.856,18.820 4.911 C 19.250 5.268,19.475 6.024,19.300 6.521 C 19.158 6.922,19.093 6.975,15.780 9.409 C 14.042 10.686,12.601 11.737,12.578 11.746 C 12.554 11.755,12.088 11.185,11.540 10.478 C 10.993 9.772,10.457 9.116,10.348 9.021 C 9.685 8.441,8.756 8.335,7.924 8.744 C 6.818 9.289,6.404 10.737,7.050 11.800 C 7.280 12.177,10.467 16.261,10.685 16.457 C 11.325 17.033,12.316 17.164,13.091 16.776 C 13.206 16.718,13.516 16.514,13.780 16.321 C 17.717 13.456,20.833 11.160,21.373 10.728 C 22.381 9.921,22.966 9.219,23.421 8.269 C 23.825 7.425,23.982 6.666,23.946 5.720 C 23.890 4.236,23.322 2.956,22.263 1.928 C 21.236 0.931,19.858 0.325,18.246 0.162 C 17.731 0.110,6.248 0.114,5.780 0.166 " stroke="none" fill="black" fill-rule="evenodd"></path></svg>