<svg role="img" viewBox="0 0 24 24" xmlns="http://www.w3.org/2000/svg"><path d="M0.056 1.373 C 0.086 1.443,0.410 2.159,0.775 2.964 L 1.439 4.429 0.720 5.677 L 0.001 6.925 0.706 8.153 C 1.093 8.828,1.417 9.391,1.424 9.404 C 1.431 9.417,1.114 9.990,0.719 10.676 L -0.000 11.924 0.645 13.012 C 1.000 13.610,1.323 14.155,1.364 14.223 L 1.438 14.346 0.719 15.596 L 0.001 16.846 0.720 18.095 L 1.439 19.345 0.733 21.013 C 0.346 21.931,0.039 22.692,0.051 22.704 C 0.064 22.717,0.665 22.532,1.387 22.294 L 2.700 21.860 11.798 21.850 L 20.897 21.840 22.412 22.283 C 23.245 22.527,23.935 22.718,23.945 22.708 C 23.956 22.697,23.513 21.885,22.961 20.903 L 21.957 19.117 22.522 18.176 L 23.087 17.235 22.734 16.858 C 22.539 16.651,22.043 16.132,21.630 15.706 L 20.880 14.930 20.880 8.465 L 20.880 2.000 11.832 2.000 L 2.785 2.000 1.662 1.697 C 1.045 1.530,0.419 1.361,0.271 1.320 L 0.001 1.245 0.056 1.373 M19.680 6.667 C 19.680 8.573,19.673 10.126,19.663 10.117 C 19.654 10.108,19.608 9.947,19.561 9.760 C 19.494 9.493,18.053 5.008,18.022 4.971 C 18.018 4.966,17.217 5.097,16.241 5.263 C 15.266 5.428,14.454 5.549,14.437 5.532 C 14.420 5.514,14.000 4.996,13.503 4.380 L 12.600 3.260 13.450 3.239 C 13.918 3.227,15.511 3.214,16.990 3.209 L 19.680 3.200 19.680 6.667 M11.060 3.822 C 10.268 4.140,9.600 4.405,9.575 4.410 C 9.542 4.418,8.311 3.493,8.062 3.273 C 8.041 3.255,9.031 3.241,10.262 3.242 L 12.500 3.244 11.060 3.822 M11.509 6.923 C 12.514 7.035,13.265 7.455,13.571 8.075 C 13.681 8.299,13.702 8.390,13.714 8.694 C 13.738 9.293,13.593 9.791,13.215 10.404 C 12.780 11.110,12.446 11.400,12.134 11.341 C 11.800 11.279,11.750 10.921,11.995 10.345 C 12.217 9.820,12.252 9.695,12.253 9.402 C 12.256 8.809,11.904 8.562,11.058 8.560 C 10.625 8.560,10.329 8.630,9.900 8.835 C 8.507 9.501,7.734 11.183,8.283 12.358 C 8.607 13.053,9.196 13.413,10.000 13.410 C 10.955 13.406,12.506 12.709,13.699 11.749 C 14.031 11.481,14.135 11.446,14.277 11.551 C 14.440 11.672,14.496 11.891,14.442 12.195 C 14.375 12.566,14.208 12.861,13.765 13.390 C 12.712 14.645,11.475 15.638,10.461 16.043 C 9.388 16.471,8.268 16.401,7.406 15.853 C 6.471 15.259,5.912 14.209,5.854 12.940 C 5.815 12.077,6.003 11.270,6.453 10.375 C 7.501 8.289,9.228 6.968,11.012 6.885 C 11.073 6.882,11.297 6.899,11.509 6.923 M17.720 9.034 C 17.775 9.074,17.862 9.169,17.914 9.244 C 18.048 9.439,18.022 9.854,17.856 10.160 C 17.700 10.449,17.414 10.728,17.132 10.866 C 16.829 11.015,16.392 11.029,16.213 10.896 C 15.810 10.596,15.869 9.947,16.346 9.438 C 16.771 8.984,17.400 8.799,17.720 9.034 M17.239 12.250 C 17.506 12.386,17.580 12.514,17.579 12.833 C 17.578 13.185,17.440 13.485,17.143 13.783 C 16.843 14.082,16.543 14.220,16.193 14.220 C 15.986 14.220,15.901 14.202,15.815 14.138 C 15.628 13.997,15.548 13.856,15.530 13.632 C 15.486 13.088,15.969 12.444,16.580 12.232 C 16.851 12.138,17.030 12.143,17.239 12.250 " stroke="none" fill="black" fill-rule="evenodd"></path></svg>