<svg xmlns="http://www.w3.org/2000/svg" viewBox="0 0 24 24" role="img"><path d="M4.397 0.073 C 3.676 0.261,3.188 0.806,2.994 1.637 L 2.912 1.989 2.553 2.014 C 1.858 2.063,1.378 2.255,0.997 2.637 C 0.499 3.134,0.327 3.855,0.502 4.704 C 0.536 4.870,1.176 6.881,1.925 9.173 L 3.285 13.340 3.422 17.040 C 3.498 19.075,3.578 20.830,3.600 20.940 C 3.857 22.202,4.720 22.988,5.760 22.907 C 5.925 22.894,6.146 22.857,6.251 22.825 C 6.439 22.768,6.443 22.769,6.511 22.867 C 7.017 23.595,7.540 23.942,8.200 23.989 C 8.881 24.037,9.562 23.700,10.224 22.988 C 10.376 22.824,11.598 21.466,12.940 19.969 L 15.379 17.247 18.859 15.054 C 22.312 12.876,22.341 12.857,22.742 12.460 C 23.174 12.031,23.367 11.727,23.502 11.262 C 23.607 10.896,23.568 10.406,23.404 10.056 C 23.244 9.715,23.038 9.442,22.776 9.226 L 22.572 9.057 22.684 8.779 C 22.846 8.378,22.893 8.110,22.870 7.711 C 22.818 6.802,22.146 6.123,21.000 5.823 C 20.791 5.768,19.459 5.478,18.040 5.177 C 16.621 4.877,15.064 4.547,14.579 4.444 L 13.698 4.258 11.899 3.295 C 5.733 -0.006,6.117 0.188,5.512 0.063 C 5.119 -0.017,4.731 -0.014,4.397 0.073 M5.371 1.877 C 5.620 1.962,7.308 2.851,7.254 2.868 C 7.235 2.874,6.653 2.757,5.960 2.609 L 4.700 2.339 4.712 2.199 C 4.719 2.123,4.743 2.002,4.765 1.930 C 4.803 1.810,4.819 1.800,4.977 1.800 C 5.071 1.800,5.248 1.835,5.371 1.877 M2.939 3.850 C 2.962 3.921,3.054 6.720,3.034 6.740 C 3.025 6.749,2.847 6.231,2.639 5.588 C 2.357 4.714,2.258 4.353,2.246 4.152 L 2.231 3.885 2.366 3.846 C 2.567 3.788,2.919 3.790,2.939 3.850 M8.954 5.079 L 13.083 5.958 16.012 7.524 C 17.622 8.386,19.143 9.200,19.390 9.332 C 19.788 9.545,19.834 9.580,19.787 9.637 C 19.757 9.671,18.492 11.086,16.974 12.780 L 14.215 15.860 10.838 17.993 C 8.980 19.167,7.444 20.130,7.425 20.133 C 7.406 20.137,6.869 18.547,6.232 16.600 L 5.073 13.060 4.918 8.800 C 4.743 4.029,4.748 4.200,4.793 4.200 C 4.810 4.200,6.683 4.595,8.954 5.079 M20.042 7.438 C 20.677 7.577,20.906 7.653,21.025 7.764 C 21.101 7.836,21.107 7.865,21.072 7.993 C 21.050 8.074,21.026 8.146,21.020 8.152 C 21.006 8.167,19.480 7.358,19.480 7.336 C 19.480 7.314,19.451 7.308,20.042 7.438 M21.628 10.608 C 21.822 10.795,21.803 10.885,21.510 11.174 C 21.308 11.373,20.382 11.998,19.840 12.301 C 19.807 12.320,19.934 12.165,20.122 11.957 C 20.310 11.750,20.686 11.332,20.957 11.030 C 21.227 10.728,21.460 10.480,21.473 10.480 C 21.486 10.480,21.556 10.538,21.628 10.608 M5.777 20.990 C 5.816 21.113,5.685 21.113,5.569 20.989 C 5.401 20.811,5.348 20.607,5.335 20.100 L 5.323 19.620 5.536 20.260 C 5.653 20.612,5.761 20.941,5.777 20.990 M9.712 20.873 C 9.684 20.913,9.453 21.175,9.201 21.455 C 8.770 21.934,8.458 22.200,8.331 22.200 C 8.262 22.200,8.035 21.956,8.053 21.902 C 8.063 21.870,9.706 20.806,9.752 20.801 C 9.759 20.801,9.741 20.833,9.712 20.873 " stroke="none" fill="black" fill-rule="evenodd"></path></svg>