<svg role="img" viewBox="0 0 24 24" xmlns="http://www.w3.org/2000/svg"><path d="M10.940 0.046 C 9.378 0.181,7.657 0.700,6.300 1.445 C 3.340 3.071,1.206 5.802,0.380 9.020 C -0.675 13.136,0.513 17.466,3.525 20.475 C 5.881 22.829,9.095 24.107,12.360 23.987 C 12.936 23.966,13.950 23.864,13.991 23.822 C 14.004 23.809,12.141 19.207,12.112 19.179 C 12.105 19.173,11.839 19.147,11.520 19.123 C 9.270 18.948,7.296 17.803,6.062 15.960 C 4.078 12.995,4.600 9.008,7.281 6.649 C 9.941 4.307,13.880 4.262,16.600 6.542 C 18.084 7.785,18.975 9.553,19.123 11.541 C 19.147 11.870,19.170 12.142,19.174 12.145 C 19.199 12.164,23.819 14.034,23.825 14.028 C 23.860 13.990,23.968 12.886,23.987 12.360 C 24.106 9.111,22.833 5.893,20.500 3.548 C 17.981 1.014,14.497 -0.262,10.940 0.046 M12.335 12.850 C 12.517 13.296,13.573 15.887,14.681 18.610 C 15.790 21.332,16.709 23.546,16.723 23.530 C 16.738 23.513,17.049 22.609,17.416 21.520 C 17.782 20.431,18.091 19.514,18.103 19.482 C 18.117 19.443,18.782 20.082,20.082 21.382 L 22.040 23.339 22.660 22.720 C 23.001 22.380,23.280 22.083,23.280 22.061 C 23.280 22.038,22.407 21.147,21.340 20.080 L 19.400 18.139 21.483 17.446 C 22.628 17.064,23.560 16.746,23.553 16.740 C 23.538 16.725,12.040 12.040,12.019 12.040 C 12.011 12.040,12.153 12.405,12.335 12.850 " stroke="none" fill="black" fill-rule="evenodd"></path></svg>