<svg role="img" viewBox="0 0 24 24" xmlns="http://www.w3.org/2000/svg"><path d="M10.940 0.046 C 7.770 0.320,4.677 1.963,2.707 4.420 C 2.244 4.997,2.226 5.032,2.481 4.876 C 2.986 4.565,3.824 4.263,4.540 4.134 C 4.975 4.056,5.998 4.047,6.460 4.117 C 7.246 4.236,8.058 4.503,8.619 4.827 C 8.914 4.998,8.946 5.008,9.059 4.963 C 9.447 4.808,10.162 4.595,10.531 4.524 C 13.942 3.865,17.375 5.582,18.859 8.689 C 20.226 11.551,19.708 14.927,17.549 17.226 L 17.356 17.432 17.788 17.462 C 18.698 17.524,19.728 17.430,20.461 17.219 C 21.346 16.964,21.932 16.626,22.539 16.020 C 23.384 15.177,23.862 14.143,23.958 12.948 C 24.345 8.177,21.837 3.627,17.580 1.376 C 15.587 0.322,13.223 -0.152,10.940 0.046 M11.433 5.682 C 10.958 5.724,10.040 5.923,10.040 5.983 C 10.040 5.992,10.159 6.157,10.304 6.350 C 11.109 7.416,11.668 8.737,12.315 11.100 C 12.715 12.561,13.146 13.716,13.725 14.880 C 14.149 15.732,14.485 16.249,14.858 16.622 C 15.095 16.858,15.187 16.921,15.435 17.013 L 15.730 17.122 15.875 17.013 C 16.182 16.782,16.526 16.457,16.788 16.151 C 19.502 12.975,18.536 8.186,14.804 6.318 C 14.089 5.960,13.342 5.755,12.480 5.681 C 11.976 5.637,11.940 5.637,11.433 5.682 M4.980 6.148 C 2.795 6.431,1.135 7.827,0.276 10.104 C 0.185 10.344,0.087 10.675,0.057 10.840 C -0.008 11.199,-0.016 12.226,0.041 12.944 C 0.444 18.052,4.056 22.347,9.020 23.620 C 13.110 24.669,17.445 23.494,20.431 20.528 C 20.977 19.985,21.864 18.920,21.770 18.920 C 21.752 18.920,21.575 18.955,21.378 18.998 C 19.558 19.395,18.032 19.425,16.404 19.094 C 16.132 19.039,15.793 18.958,15.652 18.915 L 15.395 18.835 15.023 18.995 C 11.925 20.323,8.319 19.470,6.167 16.900 C 3.791 14.062,3.791 9.928,6.168 7.100 C 6.334 6.902,6.579 6.637,6.712 6.510 C 6.845 6.384,6.938 6.271,6.920 6.260 C 6.765 6.164,5.441 6.088,4.980 6.148 M8.140 6.970 C 6.800 8.036,5.962 9.479,5.718 11.140 C 5.659 11.548,5.659 12.457,5.720 12.865 C 5.940 14.354,6.668 15.725,7.760 16.707 C 8.126 17.036,8.277 17.139,8.296 17.073 C 8.661 15.846,8.692 15.778,10.635 11.996 L 11.120 11.052 10.879 10.436 C 10.574 9.657,10.037 8.567,9.727 8.100 C 9.593 7.897,9.352 7.608,9.175 7.440 C 8.853 7.134,8.449 6.839,8.353 6.841 C 8.324 6.842,8.228 6.900,8.140 6.970 M11.140 13.028 C 10.527 14.413,10.046 15.709,9.899 16.368 C 9.862 16.533,9.824 16.941,9.812 17.307 L 9.790 17.954 10.131 18.058 C 11.311 18.418,12.546 18.431,13.753 18.096 L 13.997 18.028 13.771 17.784 C 13.051 17.007,12.569 15.902,11.815 13.305 C 11.649 12.730,11.507 12.255,11.501 12.248 C 11.495 12.242,11.332 12.593,11.140 13.028 " stroke="none" fill="black" fill-rule="evenodd"></path></svg>