<svg role="img" viewBox="0 0 24 24" xmlns="http://www.w3.org/2000/svg"><path d="M12.380 6.600 C 10.647 6.784,9.137 7.699,8.190 9.140 C 7.953 9.499,7.692 10.010,7.603 10.286 L 7.556 10.432 7.331 10.296 C 6.386 9.727,5.144 9.834,4.340 10.554 C 3.956 10.898,3.661 11.372,3.540 11.840 C 3.468 12.119,3.446 12.626,3.493 12.921 L 3.522 13.102 3.151 13.153 C 2.379 13.258,1.724 13.573,1.153 14.114 C 0.753 14.493,0.489 14.865,0.301 15.313 C 0.081 15.838,0.020 16.154,0.020 16.773 C 0.020 17.275,0.027 17.332,0.098 17.383 C 0.207 17.464,16.185 17.469,16.294 17.389 C 16.413 17.302,16.569 16.704,16.573 16.320 C 16.576 16.035,16.560 15.944,16.473 15.757 C 16.295 15.369,15.976 15.126,15.539 15.044 C 15.429 15.023,13.504 14.986,11.260 14.961 C 9.016 14.937,7.049 14.907,6.889 14.895 C 6.519 14.867,6.380 14.745,6.538 14.587 C 6.608 14.518,7.267 14.501,12.260 14.438 C 15.859 14.393,15.829 14.395,16.343 14.162 C 16.913 13.903,17.542 13.325,17.810 12.813 C 17.889 12.663,18.073 12.225,18.220 11.840 C 18.526 11.040,18.526 11.041,18.315 10.425 C 18.040 9.623,17.627 8.953,17.012 8.318 C 16.176 7.452,15.168 6.903,14.004 6.680 C 13.536 6.590,12.812 6.554,12.380 6.600 M18.967 11.315 C 18.937 11.334,18.821 11.662,18.709 12.044 C 18.532 12.649,18.505 12.787,18.504 13.100 C 18.503 13.381,18.521 13.500,18.585 13.642 C 18.757 14.018,19.086 14.273,19.509 14.359 C 19.614 14.380,20.150 14.425,20.700 14.459 C 21.546 14.511,21.708 14.531,21.750 14.588 C 21.815 14.676,21.813 14.695,21.729 14.799 C 21.661 14.882,21.604 14.891,20.739 14.942 C 19.460 15.017,19.342 15.031,19.001 15.144 C 18.587 15.282,18.205 15.517,17.854 15.850 C 17.500 16.187,17.251 16.549,17.084 16.971 C 16.943 17.326,16.935 17.382,17.023 17.416 C 17.058 17.429,18.568 17.440,20.379 17.440 C 23.457 17.440,23.676 17.435,23.753 17.370 C 23.932 17.216,24.048 16.146,23.962 15.456 C 23.687 13.273,21.963 11.569,19.780 11.321 C 19.343 11.272,19.038 11.270,18.967 11.315 " stroke="none" fill="black" fill-rule="evenodd"></path></svg>