<svg role="img" xmlns="http://www.w3.org/2000/svg" viewBox="0 0 24 24"><path d="M10.940 0.523 C 6.954 0.896,3.407 3.210,1.470 6.700 C 0.618 8.235,0.100 10.075,0.015 11.862 L -0.012 12.424 0.997 13.012 C 1.552 13.335,2.024 13.600,2.046 13.600 C 2.068 13.600,2.161 13.548,2.253 13.485 C 2.754 13.141,3.719 12.775,4.433 12.658 C 4.946 12.574,6.091 12.596,6.560 12.699 C 7.602 12.929,8.454 13.363,9.272 14.082 C 9.477 14.262,9.649 14.403,9.656 14.395 C 9.662 14.387,9.760 14.186,9.872 13.948 C 10.135 13.394,10.408 12.943,10.762 12.481 C 10.995 12.175,11.034 12.104,10.987 12.066 C 9.760 11.069,8.767 10.546,7.484 10.221 C 6.718 10.027,6.356 9.985,5.400 9.983 C 4.438 9.980,4.049 10.023,3.281 10.219 C 3.073 10.272,2.898 10.311,2.892 10.305 C 2.873 10.287,3.109 9.496,3.242 9.133 C 4.116 6.740,6.074 4.740,8.480 3.779 C 9.007 3.569,9.803 3.345,10.420 3.234 C 10.882 3.151,11.061 3.141,12.020 3.141 C 13.196 3.142,13.460 3.171,14.376 3.403 C 17.027 4.073,19.305 5.961,20.488 8.469 C 20.671 8.857,21.032 9.871,21.097 10.182 L 21.123 10.304 20.685 10.194 C 19.951 10.010,19.451 9.950,18.640 9.948 C 17.783 9.947,17.211 10.016,16.420 10.219 C 12.257 11.286,9.604 15.415,10.341 19.680 C 10.549 20.882,11.039 21.999,11.855 23.133 L 12.138 23.526 12.231 23.413 C 12.686 22.859,13.347 21.645,13.457 21.162 L 13.519 20.889 13.358 20.541 C 12.827 19.392,12.731 17.938,13.100 16.660 C 13.237 16.187,13.573 15.492,13.887 15.031 C 14.178 14.606,14.772 13.988,15.180 13.688 C 15.813 13.222,16.654 12.845,17.440 12.675 C 18.046 12.544,19.153 12.543,19.760 12.674 C 20.489 12.832,21.200 13.113,21.733 13.454 L 21.962 13.600 22.986 13.010 L 24.009 12.420 23.986 11.860 C 23.838 8.319,22.123 5.068,19.260 2.899 C 18.648 2.435,18.088 2.092,17.340 1.722 C 16.141 1.130,14.947 0.766,13.595 0.580 C 13.045 0.504,11.495 0.471,10.940 0.523 " stroke="none" fill="black" fill-rule="evenodd"></path></svg>