<svg role="img" viewBox="0 0 24 24" xmlns="http://www.w3.org/2000/svg"><path d="M10.150 3.042 C 9.732 3.144,9.325 3.487,9.132 3.900 L 9.020 4.140 9.020 12.000 L 9.020 19.860 9.132 20.100 C 9.279 20.415,9.587 20.724,9.896 20.867 L 10.140 20.980 12.000 20.980 L 13.860 20.980 14.120 20.856 C 14.449 20.698,14.696 20.452,14.855 20.120 L 14.980 19.860 14.980 12.000 L 14.980 4.140 14.855 3.880 C 14.696 3.548,14.449 3.302,14.120 3.144 L 13.860 3.020 12.080 3.013 C 11.101 3.009,10.232 3.022,10.150 3.042 M1.080 7.557 C 0.743 7.662,0.433 7.898,0.247 8.191 C -0.016 8.604,-0.002 8.254,0.009 14.343 L 0.020 19.860 0.132 20.100 C 0.279 20.415,0.587 20.724,0.896 20.867 L 1.140 20.980 3.000 20.980 L 4.860 20.980 5.120 20.856 C 5.449 20.698,5.696 20.452,5.855 20.120 L 5.980 19.860 5.991 14.343 C 6.002 8.254,6.016 8.604,5.753 8.191 C 5.605 7.958,5.421 7.794,5.149 7.650 L 4.940 7.540 3.060 7.533 C 2.026 7.529,1.135 7.539,1.080 7.557 M19.080 10.557 C 18.743 10.662,18.433 10.898,18.247 11.191 C 17.987 11.598,17.997 11.412,18.009 15.843 L 18.020 19.860 18.132 20.100 C 18.279 20.415,18.587 20.724,18.896 20.867 L 19.140 20.980 21.000 20.980 L 22.860 20.980 23.120 20.856 C 23.449 20.698,23.696 20.452,23.855 20.120 L 23.980 19.860 23.991 15.843 C 24.003 11.412,24.013 11.598,23.753 11.191 C 23.605 10.958,23.421 10.794,23.149 10.650 L 22.940 10.540 21.060 10.533 C 20.026 10.529,19.135 10.539,19.080 10.557 " stroke="none" fill="black" fill-rule="evenodd"></path></svg>