<svg role="img" viewBox="0 0 24 24" xmlns="http://www.w3.org/2000/svg"><path d="M11.640 11.897 L 11.640 14.394 11.770 14.436 C 12.272 14.598,13.030 14.651,13.488 14.556 C 14.008 14.448,14.498 14.073,14.701 13.628 C 15.026 12.919,14.869 12.011,14.339 11.526 C 14.004 11.220,13.766 11.141,13.180 11.142 C 12.819 11.142,12.663 11.159,12.550 11.209 L 12.400 11.276 12.400 10.338 L 12.400 9.400 12.020 9.400 L 11.640 9.400 11.640 11.897 M6.795 9.780 C 6.738 9.811,6.659 9.903,6.621 9.984 C 6.562 10.107,6.558 10.157,6.596 10.284 C 6.720 10.698,7.301 10.728,7.467 10.329 C 7.633 9.933,7.186 9.568,6.795 9.780 M1.265 11.162 C 1.006 11.227,0.652 11.439,0.458 11.647 C -0.122 12.266,-0.152 13.318,0.388 14.027 C 0.530 14.213,0.872 14.434,1.157 14.522 C 1.517 14.634,2.094 14.628,2.434 14.509 C 2.573 14.460,2.688 14.405,2.689 14.387 C 2.690 14.368,2.621 14.246,2.536 14.114 C 2.410 13.920,2.367 13.880,2.301 13.900 C 2.256 13.913,2.111 13.935,1.977 13.947 C 1.135 14.026,0.575 13.317,0.822 12.485 C 0.980 11.954,1.569 11.655,2.149 11.812 C 2.337 11.862,2.361 11.861,2.379 11.804 C 2.390 11.768,2.460 11.646,2.535 11.533 L 2.671 11.326 2.466 11.235 C 2.302 11.163,2.174 11.142,1.840 11.134 C 1.609 11.129,1.350 11.141,1.265 11.162 M3.880 11.193 C 3.119 11.445,2.671 12.155,2.735 13.011 C 2.806 13.973,3.485 14.600,4.457 14.600 C 5.010 14.600,5.398 14.442,5.739 14.077 C 6.387 13.384,6.327 12.146,5.614 11.520 C 5.531 11.448,5.346 11.333,5.202 11.265 C 4.969 11.155,4.893 11.141,4.520 11.131 C 4.198 11.123,4.048 11.137,3.880 11.193 M8.760 11.198 C 8.573 11.239,8.348 11.299,8.260 11.331 L 8.100 11.388 8.090 12.976 L 8.079 14.563 8.450 14.552 L 8.820 14.540 8.831 13.211 L 8.841 11.881 8.951 11.851 C 9.011 11.834,9.252 11.820,9.487 11.820 C 9.856 11.820,9.930 11.831,10.027 11.903 C 10.269 12.080,10.280 12.145,10.280 13.412 L 10.280 14.563 10.650 14.552 L 11.020 14.540 11.019 13.300 C 11.019 12.225,11.010 12.033,10.949 11.859 C 10.853 11.580,10.679 11.385,10.409 11.253 C 10.196 11.148,10.142 11.139,9.640 11.131 C 9.231 11.124,9.018 11.140,8.760 11.198 M15.780 11.232 L 15.460 11.342 15.448 11.676 C 15.438 11.984,15.442 12.008,15.508 11.980 C 15.946 11.796,15.992 11.785,16.340 11.783 C 16.631 11.781,16.722 11.795,16.812 11.856 C 16.966 11.961,17.040 12.121,17.040 12.352 L 17.040 12.548 16.590 12.572 C 15.825 12.613,15.409 12.795,15.221 13.172 C 14.953 13.711,15.201 14.283,15.800 14.503 C 16.135 14.626,17.375 14.619,17.704 14.493 C 17.750 14.475,17.760 14.252,17.760 13.186 C 17.759 11.919,17.758 11.897,17.665 11.697 C 17.474 11.288,17.129 11.119,16.483 11.121 C 16.170 11.121,16.041 11.142,15.780 11.232 M18.946 11.183 C 18.697 11.262,18.397 11.555,18.329 11.785 C 18.222 12.144,18.288 12.521,18.500 12.755 C 18.654 12.925,18.875 13.034,19.362 13.177 C 19.818 13.311,19.970 13.484,19.874 13.759 C 19.812 13.938,19.608 14.014,19.250 13.991 C 19.003 13.975,18.898 13.944,18.636 13.810 L 18.320 13.649 18.320 14.001 L 18.320 14.353 18.490 14.435 C 18.753 14.562,19.055 14.610,19.477 14.593 C 19.808 14.580,19.898 14.561,20.102 14.459 C 20.527 14.246,20.716 13.811,20.599 13.312 C 20.560 13.145,20.509 13.060,20.357 12.912 C 20.186 12.745,20.113 12.708,19.695 12.577 C 19.181 12.417,19.000 12.293,19.000 12.100 C 19.000 11.694,19.574 11.588,20.157 11.887 L 20.440 12.033 20.440 11.694 L 20.440 11.356 20.210 11.249 C 20.015 11.159,19.917 11.141,19.560 11.132 C 19.266 11.125,19.082 11.140,18.946 11.183 M22.009 11.197 C 21.264 11.473,20.824 12.299,20.959 13.170 C 21.103 14.100,21.716 14.600,22.716 14.600 C 23.125 14.600,23.458 14.534,23.721 14.399 L 23.880 14.318 23.880 13.999 C 23.880 13.824,23.870 13.680,23.858 13.680 C 23.847 13.680,23.761 13.719,23.668 13.766 C 23.409 13.899,23.131 13.959,22.780 13.959 C 22.419 13.959,22.150 13.862,21.944 13.656 C 21.813 13.524,21.682 13.264,21.681 13.130 L 21.680 13.040 22.846 13.040 L 24.011 13.040 23.990 12.610 C 23.954 11.891,23.709 11.448,23.229 11.237 C 22.932 11.106,22.309 11.086,22.009 11.197 M6.680 12.882 L 6.680 14.563 7.050 14.552 L 7.420 14.540 7.430 12.870 L 7.441 11.200 7.060 11.200 L 6.680 11.200 6.680 12.882 M22.920 11.820 C 23.120 11.923,23.280 12.199,23.280 12.439 L 23.280 12.560 22.480 12.560 C 22.040 12.560,21.680 12.552,21.680 12.542 C 21.680 12.437,21.869 12.068,21.975 11.965 C 22.211 11.736,22.632 11.671,22.920 11.820 M4.860 11.836 C 5.205 11.995,5.412 12.362,5.417 12.820 C 5.421 13.185,5.344 13.437,5.168 13.644 C 4.981 13.862,4.764 13.958,4.460 13.958 C 3.841 13.958,3.434 13.453,3.492 12.757 C 3.504 12.611,3.540 12.429,3.572 12.352 C 3.656 12.151,3.876 11.918,4.060 11.835 C 4.273 11.738,4.650 11.738,4.860 11.836 M13.540 11.875 C 14.351 12.244,14.271 13.604,13.421 13.893 C 13.224 13.961,12.761 13.982,12.525 13.935 L 12.400 13.910 12.400 12.918 L 12.400 11.927 12.570 11.866 C 12.816 11.779,13.340 11.784,13.540 11.875 M17.031 13.550 L 17.020 14.020 16.620 14.019 C 16.048 14.017,15.869 13.905,15.869 13.549 C 15.869 13.246,16.159 13.085,16.711 13.082 L 17.043 13.080 17.031 13.550 " stroke="none" fill="black" fill-rule="evenodd"></path></svg>