<svg role="img" viewBox="0 0 24 24" xmlns="http://www.w3.org/2000/svg"><path d="M5.590 0.050 C 6.017 0.593,14.520 11.972,14.520 12.000 C 14.520 12.028,6.017 23.407,5.590 23.950 C 5.558 23.990,6.247 24.000,9.005 23.998 L 12.460 23.997 16.858 18.028 C 19.277 14.746,21.257 12.033,21.257 12.000 C 21.257 11.967,19.277 9.254,16.858 5.972 L 12.460 0.003 9.005 0.002 C 6.247 0.000,5.558 0.010,5.590 0.050 M8.071 4.747 C 7.305 5.749,2.748 11.946,2.744 11.992 C 2.739 12.058,8.204 19.479,8.250 19.467 C 8.314 19.452,11.680 15.018,11.663 14.973 C 11.653 14.946,11.157 14.276,10.562 13.483 C 9.967 12.690,9.480 12.022,9.480 11.999 C 9.480 11.976,9.957 11.353,10.541 10.616 C 11.124 9.879,11.622 9.244,11.646 9.205 C 11.683 9.146,11.433 8.789,10.001 6.857 C 9.072 5.605,8.298 4.565,8.281 4.547 C 8.264 4.529,8.169 4.619,8.071 4.747 " stroke="none" fill="black" fill-rule="evenodd"></path></svg>