<svg role="img" xmlns="http://www.w3.org/2000/svg" viewBox="0 0 24 24"><path d="M8.868 4.921 C 6.713 5.114,4.754 5.760,3.194 6.794 C 2.610 7.181,2.359 7.384,1.886 7.850 C 0.987 8.736,0.429 9.684,0.134 10.825 C 0.033 11.219,0.022 11.326,0.021 11.960 C 0.020 12.738,0.057 12.994,0.265 13.634 C 1.060 16.082,3.646 18.060,7.040 18.814 C 8.158 19.063,8.549 19.100,10.000 19.097 C 11.449 19.095,11.703 19.071,12.808 18.839 C 14.892 18.400,16.624 17.547,17.955 16.305 C 18.161 16.112,18.395 15.913,18.475 15.862 C 18.621 15.769,19.233 15.535,19.252 15.564 C 19.258 15.573,19.328 15.679,19.407 15.800 C 19.701 16.250,20.138 16.592,20.629 16.756 C 21.022 16.888,21.240 16.858,21.240 16.672 C 21.240 16.630,21.211 16.600,21.170 16.599 C 21.031 16.598,20.451 16.372,20.272 16.248 C 19.880 15.979,19.661 15.683,19.423 15.100 C 19.342 14.902,19.192 14.601,19.090 14.431 C 18.886 14.089,18.614 13.843,16.740 12.298 C 15.224 11.048,15.105 10.911,15.258 10.589 C 15.339 10.419,15.575 10.245,15.768 10.214 C 15.940 10.186,15.839 10.136,17.980 11.322 C 18.926 11.846,19.729 12.286,19.763 12.299 C 19.821 12.321,19.920 12.184,19.920 12.082 C 19.920 12.062,19.500 11.811,18.988 11.523 C 18.475 11.236,18.021 10.975,17.979 10.945 C 17.908 10.892,17.907 10.872,17.958 10.615 C 17.987 10.464,18.020 10.318,18.030 10.290 C 18.044 10.252,18.253 10.240,18.889 10.240 L 19.729 10.240 19.974 10.369 C 20.109 10.440,20.323 10.603,20.449 10.732 C 20.704 10.994,21.437 12.071,22.740 14.100 C 23.221 14.848,23.650 15.501,23.694 15.550 C 23.787 15.655,23.889 15.666,23.962 15.577 C 24.027 15.500,24.099 15.623,22.946 13.840 C 21.387 11.428,20.976 10.823,20.722 10.565 C 20.433 10.272,20.130 10.070,19.796 9.949 L 19.551 9.860 19.306 9.432 C 18.943 8.802,18.635 8.397,18.120 7.880 C 16.553 6.303,14.257 5.288,11.520 4.960 C 11.023 4.901,9.367 4.876,8.868 4.921 M11.934 5.435 C 12.917 5.596,13.907 5.853,14.596 6.126 C 15.011 6.290,15.959 6.756,16.300 6.963 C 17.357 7.604,18.365 8.605,18.897 9.540 L 19.079 9.860 18.830 9.885 C 18.692 9.899,18.481 9.913,18.360 9.915 L 18.140 9.920 18.140 9.597 C 18.140 9.285,18.136 9.270,18.014 9.161 C 17.939 9.094,17.804 9.030,17.681 9.004 C 17.159 8.892,15.955 8.675,15.304 8.575 C 14.590 8.466,14.588 8.466,14.445 8.543 C 14.250 8.649,14.141 8.826,14.062 9.169 C 13.897 9.881,13.560 11.589,13.560 11.709 C 13.560 11.803,13.598 11.882,13.690 11.981 C 13.810 12.109,13.858 12.128,14.300 12.216 C 14.564 12.268,15.068 12.361,15.420 12.421 C 15.772 12.481,16.066 12.536,16.074 12.542 C 16.081 12.549,16.047 12.608,15.998 12.674 C 15.877 12.838,15.850 13.144,15.939 13.333 C 15.981 13.422,16.123 13.566,16.304 13.704 C 16.467 13.829,16.600 13.939,16.600 13.949 C 16.600 13.959,16.537 14.041,16.460 14.131 C 16.280 14.341,16.229 14.521,16.286 14.747 C 16.350 15.001,16.551 15.156,17.269 15.503 L 17.900 15.808 17.700 15.986 C 16.128 17.384,14.396 18.172,12.040 18.560 C 11.370 18.670,9.608 18.737,8.940 18.679 C 6.855 18.496,4.958 17.886,3.500 16.930 C 2.062 15.987,1.101 14.830,0.663 13.514 C 0.459 12.902,0.427 12.654,0.451 11.846 C 0.474 11.066,0.543 10.728,0.809 10.100 C 1.667 8.072,3.923 6.405,6.760 5.701 C 8.051 5.381,8.611 5.321,10.160 5.338 C 11.207 5.349,11.507 5.365,11.934 5.435 M10.968 7.300 C 10.875 7.341,10.813 7.410,10.757 7.538 L 10.677 7.719 10.936 8.278 C 11.605 9.719,11.800 10.560,11.800 12.000 C 11.800 13.451,11.571 14.436,10.934 15.736 C 10.709 16.195,10.682 16.331,10.780 16.520 C 10.868 16.691,10.993 16.760,11.211 16.760 C 11.378 16.760,11.421 16.742,11.524 16.630 C 11.670 16.471,12.060 15.683,12.262 15.140 C 12.455 14.618,12.660 13.804,12.738 13.244 C 12.811 12.722,12.821 11.544,12.757 10.968 C 12.634 9.850,12.187 8.449,11.683 7.600 C 11.474 7.248,11.278 7.166,10.968 7.300 M9.133 8.259 C 8.973 8.328,8.864 8.528,8.892 8.701 C 8.904 8.772,9.012 9.044,9.132 9.305 C 9.619 10.362,9.739 10.900,9.739 12.020 C 9.739 13.109,9.615 13.648,9.122 14.723 C 8.989 15.012,8.880 15.296,8.880 15.354 C 8.881 15.619,9.192 15.874,9.446 15.819 C 9.629 15.779,9.831 15.535,10.043 15.100 C 10.924 13.287,10.984 11.143,10.205 9.303 C 9.766 8.268,9.564 8.071,9.133 8.259 M15.720 8.965 C 16.999 9.181,17.738 9.325,17.789 9.368 C 17.817 9.391,17.840 9.454,17.840 9.509 C 17.840 9.653,17.637 10.654,17.599 10.694 C 17.582 10.713,17.326 10.592,17.031 10.425 C 16.180 9.945,15.990 9.865,15.759 9.893 C 15.430 9.932,15.138 10.130,14.994 10.412 C 14.930 10.538,14.915 10.628,14.927 10.822 C 14.948 11.150,15.058 11.312,15.527 11.709 C 15.730 11.880,15.941 12.062,15.997 12.113 L 16.100 12.206 15.920 12.183 C 15.603 12.141,14.185 11.872,14.040 11.825 C 13.934 11.791,13.897 11.755,13.888 11.677 C 13.876 11.577,14.182 10.065,14.376 9.265 C 14.428 9.048,14.496 8.854,14.526 8.834 C 14.593 8.788,14.832 8.815,15.720 8.965 M7.181 9.301 C 7.081 9.402,7.040 9.478,7.040 9.565 C 7.040 9.633,7.140 9.913,7.261 10.188 C 7.519 10.771,7.621 11.119,7.682 11.629 C 7.763 12.312,7.617 13.054,7.240 13.881 C 7.130 14.121,7.040 14.359,7.040 14.409 C 7.040 14.550,7.185 14.754,7.335 14.826 C 7.533 14.920,7.723 14.872,7.884 14.689 C 8.054 14.496,8.371 13.821,8.498 13.384 C 8.814 12.292,8.716 11.004,8.236 9.929 C 7.971 9.339,7.796 9.160,7.483 9.160 C 7.353 9.160,7.296 9.186,7.181 9.301 M5.516 10.131 C 5.428 10.190,5.359 10.283,5.321 10.393 L 5.261 10.563 5.481 10.989 L 5.700 11.414 5.700 12.004 L 5.700 12.593 5.490 12.996 C 5.375 13.217,5.280 13.436,5.280 13.481 C 5.280 13.712,5.527 13.960,5.755 13.960 C 6.023 13.959,6.229 13.754,6.465 13.253 C 6.659 12.840,6.733 12.493,6.730 12.000 C 6.728 11.485,6.630 11.088,6.397 10.640 C 6.109 10.085,5.827 9.922,5.516 10.131 M16.824 12.788 C 17.109 13.003,18.630 14.272,18.660 14.320 C 18.700 14.385,18.481 14.448,18.200 14.453 C 17.885 14.458,17.712 14.378,17.180 13.979 C 16.316 13.331,16.127 13.140,16.186 12.973 C 16.230 12.847,16.452 12.640,16.542 12.640 C 16.590 12.640,16.717 12.706,16.824 12.788 M17.175 14.378 C 17.751 14.773,17.936 14.821,18.581 14.744 L 18.863 14.710 18.916 14.825 C 18.945 14.888,18.993 15.007,19.023 15.090 C 19.072 15.229,19.070 15.242,18.993 15.284 C 18.827 15.373,18.343 15.520,18.217 15.520 C 18.020 15.520,17.021 15.072,16.730 14.854 C 16.621 14.772,16.600 14.730,16.600 14.595 C 16.600 14.470,16.626 14.407,16.717 14.317 C 16.781 14.253,16.852 14.200,16.874 14.200 C 16.897 14.200,17.032 14.280,17.175 14.378 " stroke="none" fill="black" fill-rule="evenodd"></path></svg>