<svg role="img" viewBox="0 0 24 24" xmlns="http://www.w3.org/2000/svg"><path d="M5.760 5.908 C 5.406 5.945,4.716 6.096,4.346 6.217 C 2.139 6.940,0.597 8.644,0.112 10.897 C -0.005 11.438,-0.015 12.637,0.092 13.171 C 0.321 14.309,0.820 15.247,1.660 16.115 C 2.547 17.032,3.466 17.572,4.665 17.881 C 5.399 18.070,5.984 18.132,6.840 18.108 C 8.325 18.068,9.414 17.739,10.533 16.993 C 10.921 16.735,11.727 15.963,11.947 15.640 C 12.084 15.438,12.977 13.816,13.719 12.420 C 14.769 10.444,15.059 10.074,15.880 9.660 C 16.355 9.421,16.643 9.352,17.262 9.330 C 17.747 9.313,17.871 9.322,18.161 9.395 C 19.214 9.662,19.983 10.353,20.281 11.300 C 20.412 11.716,20.406 12.309,20.266 12.740 C 20.086 13.298,19.772 13.740,19.300 14.099 C 18.615 14.620,17.869 14.827,16.941 14.752 C 16.070 14.682,15.305 14.288,14.477 13.482 C 14.295 13.305,14.144 13.165,14.140 13.170 C 14.065 13.284,12.560 16.092,12.560 16.117 C 12.560 16.188,13.225 16.768,13.578 17.006 C 14.191 17.419,14.815 17.695,15.580 17.891 C 16.283 18.072,16.535 18.100,17.400 18.098 C 18.135 18.096,18.274 18.084,18.740 17.986 C 20.190 17.680,21.241 17.123,22.222 16.142 C 23.149 15.216,23.678 14.270,23.908 13.128 C 24.005 12.649,24.003 11.530,23.905 11.000 C 23.550 9.095,22.312 7.457,20.580 6.603 C 19.482 6.061,18.457 5.848,17.161 5.892 C 16.269 5.922,15.593 6.052,14.800 6.348 C 13.693 6.761,12.869 7.360,12.032 8.360 C 11.567 8.915,11.372 9.254,10.406 11.191 C 9.489 13.028,9.186 13.567,8.933 13.803 C 8.274 14.421,7.694 14.673,6.850 14.710 C 5.817 14.754,4.996 14.476,4.400 13.880 C 3.545 13.025,3.367 11.584,3.997 10.610 C 4.602 9.674,5.685 9.195,6.918 9.318 C 7.618 9.388,8.181 9.601,8.615 9.960 C 8.722 10.048,8.822 10.120,8.839 10.120 C 8.855 10.120,9.252 9.433,9.720 8.593 L 10.571 7.066 10.480 6.992 C 10.317 6.860,9.750 6.569,9.326 6.399 C 8.812 6.192,8.133 6.019,7.534 5.940 C 7.122 5.886,6.136 5.868,5.760 5.908 " stroke="none" fill="black" fill-rule="evenodd"></path></svg>