<svg role="img" viewBox="0 0 24 24" xmlns="http://www.w3.org/2000/svg"><path d="M11.576 0.039 C 11.486 0.058,11.348 0.101,11.269 0.134 C 10.982 0.253,2.136 5.382,1.992 5.512 C 1.793 5.692,1.565 6.042,1.442 6.359 L 1.340 6.620 1.340 12.000 L 1.340 17.380 1.442 17.641 C 1.571 17.971,1.802 18.322,2.010 18.499 C 2.201 18.663,11.041 23.776,11.337 23.894 C 11.499 23.959,11.633 23.975,12.000 23.976 C 12.403 23.977,12.490 23.965,12.700 23.876 C 13.046 23.731,21.745 18.700,21.960 18.521 C 22.195 18.326,22.454 17.936,22.569 17.605 L 22.660 17.340 22.660 12.000 L 22.660 6.660 22.567 6.389 C 22.454 6.062,22.212 5.691,21.987 5.496 C 21.779 5.317,12.906 0.191,12.648 0.101 C 12.428 0.024,11.811 -0.012,11.576 0.039 M12.600 4.923 C 14.294 5.079,15.837 5.797,17.021 6.980 C 17.386 7.344,17.748 7.791,18.014 8.207 L 18.159 8.435 17.930 8.572 C 17.288 8.957,15.119 10.200,15.092 10.199 C 15.074 10.198,14.988 10.089,14.900 9.955 C 14.812 9.822,14.603 9.584,14.436 9.427 C 13.972 8.989,13.422 8.693,12.774 8.533 C 12.381 8.435,11.594 8.438,11.200 8.537 C 9.707 8.915,8.665 10.091,8.472 11.616 C 8.312 12.889,8.946 14.233,10.051 14.961 C 11.430 15.869,13.216 15.712,14.434 14.574 C 14.602 14.416,14.812 14.178,14.900 14.045 C 14.988 13.911,15.074 13.802,15.092 13.801 C 15.119 13.800,17.288 15.043,17.930 15.428 L 18.159 15.565 18.014 15.793 C 16.992 17.392,15.380 18.519,13.517 18.935 C 10.686 19.567,7.748 18.388,6.115 15.964 C 4.856 14.094,4.554 11.810,5.287 9.684 C 6.256 6.874,8.904 4.952,11.900 4.886 C 12.032 4.883,12.347 4.899,12.600 4.923 M18.320 11.200 L 18.320 11.600 18.720 11.600 L 19.120 11.600 19.120 12.000 L 19.120 12.400 18.720 12.400 L 18.320 12.400 18.320 12.801 L 18.320 13.203 17.930 13.191 L 17.540 13.180 17.529 12.791 L 17.517 12.403 17.129 12.391 L 16.740 12.380 16.740 12.000 L 16.740 11.620 17.130 11.609 L 17.520 11.597 17.520 11.225 C 17.520 11.021,17.532 10.841,17.547 10.827 C 17.561 10.812,17.741 10.800,17.947 10.800 L 18.320 10.800 18.320 11.200 M21.280 11.200 L 21.280 11.600 21.680 11.600 L 22.080 11.600 22.080 12.000 L 22.080 12.400 21.680 12.400 L 21.280 12.400 21.280 12.801 L 21.280 13.203 20.890 13.191 L 20.500 13.180 20.489 12.790 L 20.477 12.400 20.099 12.400 L 19.720 12.400 19.720 12.000 L 19.720 11.600 20.100 11.600 L 20.480 11.600 20.480 11.227 C 20.480 11.021,20.492 10.841,20.507 10.827 C 20.521 10.812,20.701 10.800,20.907 10.800 L 21.280 10.800 21.280 11.200 " stroke="none" fill="black" fill-rule="evenodd"></path></svg>