<svg role="img" viewBox="0 0 24 24" xmlns="http://www.w3.org/2000/svg"><path d="M10.960 0.044 C 6.881 0.399,3.275 2.809,1.354 6.462 C 0.328 8.414,-0.146 10.765,0.041 12.980 C 0.444 17.736,3.579 21.776,8.080 23.338 C 13.222 25.123,18.959 23.192,21.978 18.660 C 24.018 15.598,24.545 11.792,23.411 8.300 C 21.795 3.320,17.139 -0.041,11.920 0.006 C 11.601 0.009,11.169 0.026,10.960 0.044 M10.000 7.900 L 10.000 9.840 12.000 9.840 L 14.000 9.840 14.000 7.900 L 14.000 5.960 15.960 5.960 L 17.920 5.960 17.920 11.860 L 17.920 17.760 15.960 17.760 L 14.000 17.760 14.000 15.820 L 14.000 13.880 12.040 13.880 L 10.080 13.880 10.080 15.780 L 10.080 17.680 8.100 17.680 L 6.119 17.680 6.130 15.710 L 6.140 13.740 8.050 13.730 L 9.960 13.719 9.960 11.780 L 9.960 9.840 8.020 9.840 L 6.080 9.840 6.080 7.900 L 6.080 5.960 8.040 5.960 L 10.000 5.960 10.000 7.900 " stroke="none" fill="black" fill-rule="evenodd"></path></svg>