<svg role="img" viewBox="0 0 24 24" xmlns="http://www.w3.org/2000/svg"><path d="M1.880 0.062 C 1.000 0.252,0.246 1.014,0.060 1.900 C -0.028 2.322,-0.028 21.678,0.060 22.100 C 0.247 22.992,1.010 23.754,1.900 23.940 C 2.323 24.028,21.679 24.028,22.100 23.940 C 22.992 23.753,23.754 22.990,23.940 22.100 C 24.028 21.678,24.028 2.322,23.940 1.900 C 23.754 1.010,22.992 0.247,22.100 0.060 C 21.690 -0.026,2.280 -0.024,1.880 0.062 M13.920 7.414 L 13.920 9.469 14.350 9.253 C 14.960 8.948,15.291 8.868,15.960 8.866 C 16.601 8.865,17.022 8.953,17.542 9.196 C 17.966 9.395,18.193 9.551,18.534 9.878 C 18.877 10.205,19.110 10.528,19.318 10.963 C 19.576 11.502,19.651 11.845,19.653 12.500 C 19.656 13.154,19.580 13.516,19.325 14.059 C 19.125 14.486,18.970 14.712,18.642 15.054 C 17.531 16.216,15.836 16.512,14.371 15.799 C 14.147 15.690,13.953 15.600,13.941 15.600 C 13.930 15.600,13.920 15.681,13.920 15.780 L 13.920 15.960 13.180 15.960 L 12.440 15.960 12.440 10.660 L 12.440 5.360 13.180 5.360 L 13.920 5.360 13.920 7.414 M8.681 8.938 C 9.741 9.157,10.712 9.904,11.201 10.880 C 11.337 11.151,11.480 11.534,11.480 11.626 C 11.480 11.669,11.320 11.680,10.664 11.680 L 9.848 11.680 9.729 11.469 C 9.577 11.201,9.150 10.800,8.874 10.666 C 8.258 10.367,7.582 10.368,6.965 10.667 C 6.847 10.724,6.626 10.888,6.474 11.031 C 5.841 11.628,5.639 12.549,5.968 13.336 C 6.161 13.797,6.548 14.214,6.989 14.436 C 7.393 14.639,8.001 14.698,8.458 14.579 C 8.965 14.447,9.502 14.043,9.720 13.630 L 9.820 13.440 10.650 13.440 C 11.160 13.440,11.480 13.455,11.480 13.479 C 11.480 13.597,11.216 14.212,11.053 14.474 C 9.517 16.938,5.914 16.769,4.606 14.172 C 4.277 13.520,4.151 12.563,4.298 11.837 C 4.441 11.131,4.748 10.539,5.235 10.029 C 5.728 9.513,6.188 9.225,6.840 9.024 C 7.445 8.838,8.055 8.809,8.681 8.938 M15.611 10.538 C 14.923 10.694,14.307 11.242,14.079 11.900 C 13.610 13.254,14.626 14.682,16.057 14.680 C 16.651 14.679,17.106 14.493,17.525 14.080 C 18.164 13.449,18.336 12.545,17.973 11.722 C 17.587 10.845,16.548 10.325,15.611 10.538 " stroke="none" fill="black" fill-rule="evenodd"></path></svg>