<svg role="img" viewBox="0 0 24 24" xmlns="http://www.w3.org/2000/svg"><path d="M0.743 0.081 C 0.515 0.170,0.271 0.390,0.147 0.620 L 0.060 0.780 0.050 8.618 C 0.044 13.047,0.054 16.470,0.074 16.490 C 0.094 16.510,0.228 16.435,0.385 16.316 C 1.150 15.734,2.244 15.432,3.340 15.499 C 4.461 15.568,5.284 15.854,5.982 16.417 C 6.703 16.999,7.204 17.892,7.337 18.831 L 7.361 19.001 6.318 18.991 L 5.274 18.980 5.146 18.640 C 4.808 17.743,4.253 17.355,3.220 17.295 C 2.553 17.256,2.052 17.421,1.603 17.827 C 1.043 18.334,0.728 19.118,0.634 20.244 C 0.581 20.883,0.630 21.630,0.761 22.149 C 0.951 22.901,1.443 23.576,2.010 23.860 L 2.291 24.000 3.055 24.000 L 3.820 24.000 4.075 23.879 C 4.547 23.656,4.917 23.180,5.124 22.530 L 5.216 22.240 6.247 22.240 L 7.278 22.240 7.253 22.370 C 7.188 22.713,7.017 23.219,6.840 23.590 L 6.645 24.000 7.662 24.000 C 8.222 24.000,8.680 23.990,8.680 23.978 C 8.680 23.966,8.653 23.904,8.620 23.840 C 8.522 23.651,8.401 23.080,8.400 22.810 L 8.400 22.560 9.396 22.560 L 10.391 22.560 10.454 22.839 C 10.489 22.992,10.556 23.195,10.603 23.289 C 10.719 23.521,10.981 23.787,11.209 23.903 C 11.396 23.999,11.408 24.000,12.580 24.000 C 13.751 24.000,13.765 23.999,13.951 23.904 C 14.349 23.700,14.558 23.358,14.559 22.908 C 14.561 22.376,14.311 22.115,13.549 21.856 C 13.400 21.805,12.841 21.663,12.309 21.539 C 10.334 21.081,9.800 20.876,9.296 20.380 C 8.826 19.917,8.600 19.315,8.600 18.520 C 8.600 18.014,8.692 17.608,8.908 17.161 C 9.064 16.838,9.143 16.730,9.455 16.419 C 9.761 16.115,9.882 16.025,10.200 15.868 C 11.397 15.277,13.153 15.256,14.345 15.818 C 15.524 16.374,16.085 17.144,16.221 18.390 L 16.248 18.640 15.248 18.640 L 14.249 18.640 14.184 18.353 C 14.042 17.725,13.665 17.370,12.942 17.182 C 12.633 17.102,11.866 17.101,11.529 17.180 C 11.041 17.296,10.724 17.525,10.563 17.880 C 10.378 18.290,10.512 18.801,10.866 19.036 C 11.125 19.207,11.501 19.321,12.860 19.638 C 14.212 19.954,14.463 20.022,14.858 20.180 C 15.767 20.545,16.273 21.112,16.462 21.976 C 16.587 22.549,16.508 23.300,16.261 23.890 C 16.233 23.955,16.286 23.960,17.056 23.960 C 17.529 23.960,17.880 23.944,17.880 23.923 C 17.880 23.903,17.847 23.809,17.807 23.713 C 17.696 23.453,17.634 23.177,17.605 22.810 L 17.578 22.480 18.565 22.480 L 19.551 22.480 19.614 22.758 C 19.699 23.132,19.835 23.388,20.059 23.595 C 20.405 23.914,20.427 23.918,21.722 23.919 L 22.864 23.920 23.072 23.817 C 23.830 23.439,23.948 22.411,23.279 22.009 C 23.160 21.938,22.962 21.841,22.841 21.795 C 22.626 21.713,22.465 21.672,20.680 21.242 C 20.208 21.128,19.638 20.963,19.415 20.876 C 18.260 20.424,17.754 19.664,17.756 18.384 C 17.758 17.592,17.949 17.040,18.420 16.469 C 19.082 15.666,20.088 15.281,21.526 15.280 C 22.378 15.280,23.009 15.413,23.625 15.722 L 23.920 15.871 23.920 8.423 C 23.920 -0.034,23.951 0.706,23.583 0.337 C 23.211 -0.035,24.401 -0.000,11.943 0.002 C 1.182 0.004,0.936 0.005,0.743 0.081 M20.750 17.062 C 20.143 17.209,19.763 17.575,19.697 18.074 C 19.635 18.539,19.861 18.883,20.360 19.084 C 20.525 19.151,21.209 19.339,21.880 19.502 C 23.486 19.893,23.719 19.954,23.839 20.014 L 23.940 20.064 23.928 19.292 L 23.917 18.520 23.664 18.520 L 23.410 18.520 23.384 18.320 C 23.271 17.473,22.560 16.995,21.424 17.003 C 21.180 17.005,20.877 17.032,20.750 17.062 " stroke="none" fill="black" fill-rule="evenodd"></path></svg>