<svg role="img" viewBox="0 0 24 24" xmlns="http://www.w3.org/2000/svg"><path d="M0.000 5.310 L 0.000 10.619 0.690 11.310 L 1.379 12.000 0.690 12.690 L 0.000 13.381 0.000 18.690 L 0.000 24.000 12.000 24.000 L 24.000 24.000 24.000 18.690 L 24.000 13.381 23.310 12.690 L 22.621 12.000 23.310 11.310 L 24.000 10.619 24.000 5.310 L 24.000 0.000 12.000 0.000 L 0.000 0.000 0.000 5.310 M22.480 5.709 L 22.480 9.898 21.604 10.779 C 20.628 11.760,20.579 11.834,20.677 12.170 C 20.719 12.311,20.876 12.489,21.604 13.221 L 22.480 14.102 22.480 18.291 L 22.480 22.480 12.000 22.480 L 1.520 22.480 1.520 18.291 L 1.520 14.102 2.396 13.221 C 3.671 11.939,3.671 12.061,2.396 10.779 L 1.520 9.898 1.520 5.709 L 1.520 1.520 12.000 1.520 L 22.480 1.520 22.480 5.709 M6.098 4.177 C 6.022 4.232,6.020 4.313,6.020 7.540 C 6.020 10.767,6.022 10.848,6.098 10.903 C 6.215 10.989,8.950 10.985,9.316 10.899 C 10.123 10.708,10.732 10.049,10.947 9.131 C 11.052 8.683,11.053 6.325,10.947 5.905 C 10.730 5.033,10.041 4.361,9.180 4.180 C 8.778 4.096,6.212 4.093,6.098 4.177 M14.726 4.222 C 14.646 4.323,12.551 10.522,12.528 10.725 C 12.504 10.932,12.587 10.960,13.231 10.960 C 13.812 10.960,13.816 10.959,13.929 10.852 C 14.037 10.748,14.116 10.537,14.340 9.750 L 14.406 9.520 15.557 9.520 L 16.709 9.520 16.831 9.910 C 16.898 10.125,16.985 10.405,17.025 10.533 C 17.064 10.661,17.137 10.810,17.186 10.863 C 17.274 10.958,17.291 10.960,17.910 10.960 C 18.603 10.960,18.640 10.949,18.640 10.738 C 18.640 10.546,16.569 4.318,16.469 4.210 C 16.388 4.123,16.364 4.120,15.596 4.120 L 14.806 4.120 14.726 4.222 M8.840 5.532 C 9.035 5.618,9.216 5.824,9.305 6.060 C 9.373 6.241,9.380 6.385,9.380 7.560 C 9.380 9.014,9.360 9.152,9.109 9.388 C 8.919 9.567,8.759 9.607,8.150 9.630 L 7.600 9.650 7.600 7.540 L 7.600 5.430 8.150 5.450 C 8.521 5.463,8.746 5.490,8.840 5.532 M15.941 6.992 C 16.150 7.676,16.320 8.245,16.320 8.257 C 16.320 8.292,14.800 8.284,14.799 8.250 C 14.797 8.197,15.536 5.723,15.550 5.736 C 15.557 5.744,15.733 6.309,15.941 6.992 M6.106 13.113 C 6.051 13.174,6.040 13.281,6.040 13.747 C 6.040 14.238,6.049 14.316,6.113 14.373 C 6.176 14.431,6.350 14.440,7.554 14.449 L 8.923 14.460 7.481 16.516 C 6.687 17.647,6.028 18.613,6.016 18.662 C 6.003 18.712,5.999 18.980,6.007 19.259 C 6.018 19.706,6.029 19.773,6.098 19.823 C 6.163 19.871,6.559 19.880,8.518 19.879 C 9.806 19.879,10.883 19.864,10.911 19.847 C 10.995 19.793,11.040 19.560,11.040 19.180 C 11.040 18.890,10.995 18.562,10.948 18.511 C 10.944 18.506,10.271 18.493,9.453 18.481 L 7.966 18.460 9.389 16.460 L 10.812 14.460 10.865 13.960 C 10.937 13.287,10.934 13.214,10.840 13.120 C 10.762 13.042,10.707 13.040,8.466 13.040 C 6.295 13.040,6.169 13.044,6.106 13.113 M13.129 13.102 L 13.040 13.165 13.040 16.456 C 13.040 19.594,13.043 19.751,13.113 19.814 C 13.219 19.909,14.322 19.912,14.417 19.817 C 14.452 19.783,14.484 19.751,14.488 19.747 C 14.493 19.743,14.506 18.888,14.518 17.847 L 14.540 15.954 15.500 17.797 C 16.028 18.810,16.499 19.689,16.546 19.750 L 16.632 19.860 17.253 19.873 C 17.837 19.885,17.879 19.881,17.957 19.803 C 18.040 19.720,18.040 19.703,18.040 16.460 C 18.040 13.253,18.039 13.199,17.960 13.120 C 17.887 13.047,17.827 13.040,17.308 13.040 C 16.877 13.040,16.716 13.054,16.658 13.097 C 16.583 13.151,16.579 13.231,16.560 15.067 L 16.540 16.980 15.568 15.120 C 14.964 13.964,14.552 13.218,14.478 13.150 C 14.360 13.041,14.355 13.040,13.788 13.040 C 13.337 13.040,13.199 13.053,13.129 13.102 " stroke="none" fill="black" fill-rule="evenodd"></path></svg>