<svg role="img" viewBox="0 0 24 24" xmlns="http://www.w3.org/2000/svg"><path d="M11.260 0.023 C 10.422 0.105,10.163 0.138,9.800 0.206 C 8.818 0.392,7.541 0.841,6.520 1.362 C 2.807 3.253,0.400 6.842,0.042 11.020 C -0.064 12.258,0.035 13.510,0.340 14.780 C 0.581 15.785,0.845 16.496,1.333 17.458 C 2.966 20.674,5.972 22.978,9.524 23.736 C 10.439 23.931,10.945 23.980,12.040 23.977 C 13.106 23.974,13.678 23.915,14.580 23.716 C 16.792 23.228,18.864 22.090,20.477 20.477 C 24.084 16.870,25.015 11.385,22.803 6.780 C 21.414 3.888,18.913 1.654,15.920 0.633 C 14.692 0.214,13.693 0.044,12.320 0.022 C 11.825 0.014,11.348 0.015,11.260 0.023 M15.110 1.661 C 16.325 1.949,17.937 2.830,19.075 3.828 L 19.249 3.981 18.655 4.217 C 17.664 4.608,15.473 5.587,14.260 6.179 C 12.531 7.023,11.255 8.231,10.705 9.545 C 10.545 9.926,10.498 10.111,10.441 10.574 C 10.346 11.334,10.553 11.919,10.973 12.077 C 11.131 12.137,11.501 12.129,11.760 12.061 C 12.693 11.813,13.706 10.901,14.548 9.551 C 14.979 8.860,15.623 7.450,15.543 7.370 C 15.494 7.320,14.755 7.336,14.540 7.392 L 14.340 7.443 14.151 7.835 C 13.692 8.782,12.964 9.645,12.108 10.256 C 11.688 10.556,11.419 10.680,11.191 10.680 C 11.013 10.680,10.974 10.664,10.860 10.542 C 10.653 10.323,10.639 10.040,10.828 9.870 C 10.871 9.832,11.009 9.765,11.136 9.721 C 11.504 9.595,11.796 9.406,12.152 9.064 C 12.527 8.703,12.768 8.364,12.993 7.876 C 13.079 7.691,13.184 7.509,13.226 7.471 C 13.318 7.390,13.639 7.287,14.320 7.122 C 15.445 6.849,16.546 6.748,17.420 6.838 C 18.566 6.955,19.759 7.235,21.160 7.714 C 22.100 8.036,21.979 7.924,22.243 8.720 C 22.595 9.786,22.763 10.858,22.766 12.052 C 22.769 13.785,22.412 15.298,21.632 16.855 C 20.760 18.598,19.341 20.150,17.680 21.178 C 17.208 21.470,16.229 21.947,15.706 22.140 C 13.338 23.010,10.663 23.010,8.294 22.140 C 7.917 22.001,6.698 21.423,6.549 21.313 C 6.490 21.269,6.655 21.260,7.549 21.258 C 8.695 21.256,9.274 21.205,10.245 21.017 C 14.657 20.163,17.729 17.321,18.239 13.620 C 18.304 13.145,18.294 12.083,18.219 11.575 C 18.062 10.521,17.733 9.515,17.224 8.540 C 17.082 8.268,17.042 8.214,17.060 8.320 C 17.435 10.522,17.180 12.580,16.356 14.012 C 15.570 15.375,14.307 16.291,12.757 16.622 C 11.598 16.869,10.202 16.860,8.875 16.598 C 6.717 16.173,4.150 15.021,1.814 13.433 L 1.287 13.075 1.258 12.647 C 1.218 12.064,1.262 10.830,1.341 10.320 C 1.797 7.363,3.462 4.748,5.940 3.094 C 6.314 2.845,6.294 2.850,6.266 3.004 C 6.059 4.123,6.005 6.765,6.161 8.133 C 6.340 9.697,6.551 10.469,7.092 11.538 C 8.017 13.368,9.130 14.378,10.677 14.790 C 11.005 14.878,11.149 14.893,11.680 14.896 C 12.209 14.899,12.349 14.887,12.633 14.809 C 13.787 14.494,14.795 13.649,15.495 12.412 C 16.110 11.326,16.598 9.665,16.740 8.174 L 16.767 7.889 16.589 7.766 L 16.411 7.644 16.322 7.972 C 15.596 10.643,14.473 12.398,12.973 13.207 C 12.193 13.628,11.297 13.672,10.606 13.323 C 10.298 13.167,10.154 13.042,9.940 12.742 C 9.283 11.822,9.101 10.590,9.402 9.110 C 9.730 7.500,10.837 5.433,12.349 3.609 C 12.998 2.827,14.396 1.560,14.610 1.560 C 14.649 1.560,14.874 1.606,15.110 1.661 " stroke="none" fill="black" fill-rule="evenodd"></path></svg>