<svg role="img" xmlns="http://www.w3.org/2000/svg" viewBox="0 0 24 24"><path d="M16.300 5.262 C 15.993 8.156,15.728 10.492,15.712 10.452 C 15.697 10.412,15.267 8.436,14.757 6.060 C 14.247 3.684,13.816 1.724,13.798 1.705 C 13.767 1.671,7.859 2.888,7.808 2.938 C 7.795 2.951,8.214 4.951,8.738 7.382 C 9.262 9.813,9.678 11.815,9.663 11.831 C 9.647 11.847,7.696 12.267,5.327 12.764 C 2.032 13.456,1.022 13.681,1.027 13.724 C 1.035 13.787,2.530 20.775,2.539 20.789 C 2.551 20.808,17.818 23.995,17.832 23.981 C 17.840 23.973,18.631 22.232,19.588 20.113 L 21.329 16.260 22.160 8.460 C 22.618 4.170,22.986 0.654,22.978 0.646 C 22.968 0.635,16.994 0.003,16.880 0.000 C 16.869 0.000,16.608 2.368,16.300 5.262 M11.794 13.717 C 12.026 13.835,12.242 14.036,12.308 14.194 C 12.382 14.369,12.381 14.792,12.308 14.968 C 12.224 15.169,12.004 15.402,11.820 15.485 C 11.723 15.530,11.565 15.559,11.417 15.559 C 10.843 15.561,10.452 15.302,10.359 14.858 C 10.263 14.391,10.409 13.931,10.708 13.768 C 11.042 13.585,11.494 13.564,11.794 13.717 M16.086 14.270 C 16.302 14.365,16.547 14.600,16.624 14.785 C 16.655 14.858,16.680 15.025,16.680 15.156 C 16.680 15.353,16.654 15.445,16.530 15.687 C 16.337 16.062,16.163 16.172,15.763 16.172 C 15.288 16.172,14.884 15.986,14.759 15.709 C 14.655 15.481,14.653 15.003,14.755 14.780 C 14.845 14.584,15.121 14.294,15.293 14.216 C 15.461 14.139,15.851 14.166,16.086 14.270 " stroke="none" fill="black" fill-rule="evenodd"></path></svg>