<svg role="img" viewBox="0 0 24 24" xmlns="http://www.w3.org/2000/svg"><path d="M14.851 0.210 C 14.674 0.389,14.493 0.707,13.612 2.388 L 12.580 4.356 12.261 4.578 L 11.942 4.800 8.251 4.800 L 4.559 4.800 4.570 7.790 L 4.580 10.780 6.607 10.790 L 8.634 10.801 8.797 11.006 C 8.887 11.118,8.960 11.223,8.960 11.239 C 8.960 11.279,4.642 19.531,4.597 19.578 C 4.575 19.600,4.560 20.527,4.560 21.808 L 4.560 24.000 6.754 24.000 L 8.948 24.000 9.164 23.770 C 9.347 23.576,9.542 23.234,10.413 21.580 L 11.444 19.620 11.762 19.410 L 12.079 19.200 15.760 19.200 L 19.440 19.200 19.440 16.200 L 19.440 13.200 17.407 13.200 L 15.374 13.200 15.207 12.995 C 15.115 12.882,15.040 12.776,15.040 12.759 C 15.040 12.731,18.920 5.317,19.283 4.652 L 19.440 4.364 19.440 2.182 L 19.440 0.000 17.249 0.000 L 15.057 0.000 14.851 0.210 " stroke="none" fill="black" fill-rule="evenodd"></path></svg>