<svg role="img" viewBox="0 0 24 24" xmlns="http://www.w3.org/2000/svg"><path d="M3.840 6.480 L 3.840 8.160 1.920 8.160 L 0.000 8.160 0.000 12.240 L 0.000 16.320 3.120 16.320 L 6.240 16.320 6.240 10.560 L 6.240 4.800 5.040 4.800 L 3.840 4.800 3.840 6.480 M7.200 6.000 L 7.200 7.200 8.400 7.200 L 9.600 7.200 9.600 6.000 L 9.600 4.800 8.400 4.800 L 7.200 4.800 7.200 6.000 M7.200 12.240 L 7.200 16.320 8.400 16.320 L 9.600 16.320 9.600 12.240 L 9.600 8.160 8.400 8.160 L 7.200 8.160 7.200 12.240 M10.560 12.240 L 10.560 16.320 12.480 16.320 L 14.400 16.320 14.400 16.800 L 14.400 17.280 12.480 17.280 L 10.560 17.280 10.560 18.240 L 10.560 19.200 13.680 19.200 L 16.800 19.200 16.800 13.680 L 16.800 8.160 13.680 8.160 L 10.560 8.160 10.560 12.240 M17.760 12.240 L 17.760 16.320 19.680 16.320 L 21.600 16.320 21.600 16.800 L 21.600 17.280 19.680 17.280 L 17.760 17.280 17.760 18.240 L 17.760 19.200 20.880 19.200 L 24.000 19.200 24.000 13.680 L 24.000 8.160 20.880 8.160 L 17.760 8.160 17.760 12.240 M3.840 12.240 L 3.840 14.400 3.120 14.400 L 2.400 14.400 2.400 12.240 L 2.400 10.080 3.120 10.080 L 3.840 10.080 3.840 12.240 M14.400 12.240 L 14.400 14.400 13.680 14.400 L 12.960 14.400 12.960 12.240 L 12.960 10.080 13.680 10.080 L 14.400 10.080 14.400 12.240 M21.600 12.240 L 21.600 14.400 20.880 14.400 L 20.160 14.400 20.160 12.240 L 20.160 10.080 20.880 10.080 L 21.600 10.080 21.600 12.240 " stroke="none" fill="black" fill-rule="evenodd"></path></svg>