<svg role="img" viewBox="0 0 24 24" xmlns="http://www.w3.org/2000/svg"><path d="M11.154 2.380 C 10.761 2.506,10.431 2.935,10.301 3.487 C 10.223 3.817,10.223 4.545,10.302 4.876 C 10.432 5.430,10.767 5.844,11.176 5.959 C 11.415 6.026,11.811 5.994,12.048 5.889 C 12.691 5.605,13.020 4.619,12.820 3.574 C 12.672 2.798,12.252 2.363,11.623 2.334 C 11.447 2.326,11.270 2.343,11.154 2.380 M8.380 3.317 C 7.770 3.484,7.481 3.973,7.481 4.840 C 7.482 5.604,7.732 6.182,8.158 6.399 C 8.369 6.507,8.954 6.490,9.186 6.369 C 9.595 6.156,9.815 5.678,9.817 5.000 C 9.818 4.791,9.794 4.521,9.764 4.400 C 9.646 3.926,9.352 3.516,9.037 3.384 C 8.853 3.308,8.534 3.275,8.380 3.317 M14.123 3.324 C 13.773 3.431,13.488 3.747,13.335 4.200 C 13.275 4.375,13.260 4.539,13.260 5.000 C 13.260 5.548,13.266 5.593,13.369 5.812 C 13.643 6.397,13.994 6.586,14.564 6.456 C 15.226 6.306,15.564 5.740,15.565 4.783 C 15.565 3.861,15.193 3.335,14.512 3.297 C 14.373 3.289,14.198 3.301,14.123 3.324 M10.800 6.458 C 10.294 6.588,9.991 6.784,9.758 7.132 C 9.359 7.730,9.302 8.606,9.579 9.864 C 9.632 10.104,9.749 10.597,9.837 10.960 C 10.055 11.848,10.166 12.528,10.380 14.291 C 10.598 16.087,10.644 16.352,10.776 16.578 C 11.011 16.978,11.789 17.086,12.164 16.770 C 12.424 16.552,12.463 16.396,12.643 14.860 C 12.901 12.649,13.023 11.901,13.339 10.600 C 13.692 9.143,13.763 8.377,13.602 7.750 C 13.430 7.076,13.134 6.745,12.497 6.515 C 12.189 6.404,11.148 6.369,10.800 6.458 M8.060 6.815 C 7.565 6.944,7.244 7.199,7.058 7.611 C 6.960 7.827,6.943 7.922,6.928 8.327 C 6.907 8.873,6.973 9.329,7.182 10.106 C 7.618 11.719,7.657 11.907,7.998 14.072 C 8.111 14.783,8.231 15.435,8.265 15.522 C 8.406 15.873,8.827 16.059,9.253 15.957 C 9.677 15.856,9.803 15.601,9.881 14.688 C 9.948 13.908,9.943 13.817,9.783 12.920 C 9.702 12.469,9.613 11.965,9.584 11.800 C 9.555 11.635,9.484 11.293,9.427 11.040 C 9.098 9.572,9.052 9.303,9.018 8.640 C 8.983 7.988,9.061 7.497,9.260 7.103 C 9.337 6.951,9.389 6.816,9.377 6.803 C 9.327 6.754,8.258 6.764,8.060 6.815 M13.787 6.789 C 13.719 6.799,13.682 6.825,13.695 6.853 C 13.992 7.523,14.055 7.863,14.023 8.634 C 13.997 9.264,13.935 9.611,13.638 10.800 C 13.441 11.586,13.345 12.051,13.213 12.860 C 13.077 13.689,13.140 15.325,13.322 15.703 C 13.438 15.944,13.664 16.060,14.020 16.060 C 14.245 16.060,14.334 16.040,14.474 15.960 C 14.809 15.769,14.824 15.718,15.141 13.700 C 15.385 12.153,15.520 11.478,15.760 10.619 C 15.871 10.223,16.000 9.702,16.048 9.460 C 16.158 8.898,16.168 8.199,16.069 7.875 C 15.879 7.251,15.411 6.913,14.650 6.852 C 14.490 6.839,14.360 6.813,14.360 6.794 C 14.360 6.760,14.001 6.757,13.787 6.789 M17.160 7.712 C 17.160 7.730,17.227 7.738,17.310 7.730 C 17.567 7.705,17.588 7.689,17.370 7.685 C 17.255 7.682,17.160 7.694,17.160 7.712 M18.302 7.755 C 20.279 8.083,21.492 8.774,22.052 9.892 C 22.242 10.271,22.319 10.614,22.319 11.087 C 22.321 12.073,21.870 13.094,20.946 14.200 C 18.681 16.908,14.688 18.829,9.960 19.486 C 9.077 19.608,7.203 19.620,6.489 19.508 C 5.122 19.293,4.228 18.906,3.561 18.240 C 2.974 17.655,2.758 17.171,2.729 16.380 C 2.709 15.837,2.783 15.437,3.003 14.886 C 3.515 13.607,4.776 12.212,6.471 11.050 C 6.704 10.890,6.882 10.760,6.868 10.760 C 6.805 10.760,5.767 11.233,5.258 11.494 C 3.784 12.249,2.594 13.080,1.700 13.977 C 1.060 14.619,0.725 15.070,0.418 15.700 C 0.113 16.324,0.036 16.626,0.011 17.292 C -0.013 17.909,0.032 18.286,0.183 18.729 C 0.742 20.373,2.621 21.392,5.553 21.642 C 6.685 21.739,8.589 21.650,9.909 21.438 C 12.677 20.995,16.107 19.796,18.454 18.451 C 20.902 17.047,22.627 15.373,23.499 13.554 C 23.876 12.766,24.024 12.109,23.988 11.380 C 23.961 10.836,23.891 10.561,23.660 10.100 C 23.053 8.886,21.683 8.071,19.760 7.781 C 19.529 7.746,19.007 7.709,18.600 7.700 L 17.860 7.682 18.302 7.755 " stroke="none" fill="black" fill-rule="evenodd"></path></svg>