<svg role="img" viewBox="0 0 24 24" xmlns="http://www.w3.org/2000/svg"><path d="M4.580 2.706 C 3.810 3.200,2.465 4.060,1.591 4.617 L 0.002 5.630 3.000 7.539 L 5.998 9.448 6.189 9.330 C 6.294 9.266,7.631 8.414,9.160 7.439 C 10.689 6.463,11.967 5.665,12.000 5.665 C 12.033 5.664,13.383 6.508,15.000 7.540 C 16.617 8.571,17.967 9.415,18.000 9.416 C 18.033 9.416,19.398 8.564,21.033 7.522 L 24.005 5.627 23.833 5.520 C 23.738 5.460,22.387 4.601,20.831 3.609 L 18.002 1.805 15.051 3.688 C 13.428 4.723,12.070 5.579,12.034 5.589 C 11.995 5.600,10.783 4.852,8.981 3.704 C 7.338 2.657,5.991 1.802,5.987 1.804 C 5.983 1.806,5.350 2.212,4.580 2.706 M3.001 11.360 C 1.384 12.392,0.056 13.251,0.051 13.268 C 0.042 13.297,5.833 17.009,5.967 17.061 C 6.021 17.081,11.928 13.353,11.952 13.283 C 11.966 13.241,6.070 9.479,5.994 9.482 C 5.964 9.483,4.617 10.329,3.001 11.360 M15.001 11.360 C 13.384 12.392,12.056 13.251,12.051 13.268 C 12.037 13.310,17.922 17.057,18.001 17.057 C 18.070 17.057,23.960 13.318,23.960 13.274 C 23.960 13.233,18.055 9.480,17.994 9.482 C 17.964 9.483,16.617 10.329,15.001 11.360 M8.989 16.466 L 5.999 18.372 6.109 18.440 C 6.170 18.478,7.521 19.338,9.112 20.351 L 12.003 22.194 14.832 20.391 C 16.387 19.400,17.738 18.540,17.833 18.481 L 18.006 18.373 15.044 16.485 C 13.415 15.447,12.059 14.590,12.031 14.579 C 12.003 14.569,10.634 15.418,8.989 16.466 " stroke="none" fill="black" fill-rule="evenodd"></path></svg>