<svg role="img" xmlns="http://www.w3.org/2000/svg" viewBox="0 0 24 24"><path d="M11.260 0.024 C 10.826 0.058,10.001 0.170,9.645 0.243 C 5.847 1.022,2.605 3.641,1.028 7.204 C -0.171 9.914,-0.314 12.901,0.619 15.740 C 1.584 18.677,3.760 21.216,6.532 22.642 C 7.866 23.328,9.045 23.698,10.560 23.906 C 11.250 24.001,12.750 24.001,13.440 23.906 C 15.624 23.606,17.458 22.860,19.172 21.574 C 23.461 18.356,25.098 12.760,23.219 7.740 C 22.555 5.965,21.438 4.393,19.806 2.934 C 18.062 1.376,15.919 0.412,13.500 0.098 C 13.033 0.038,11.663 -0.007,11.260 0.024 M12.131 2.995 C 12.389 3.726,12.984 4.498,14.401 5.940 C 15.791 7.355,16.168 7.760,16.613 8.309 C 17.605 9.537,18.179 10.658,18.448 11.890 C 18.525 12.243,18.537 12.419,18.537 13.160 C 18.537 13.904,18.525 14.077,18.446 14.440 C 18.249 15.352,17.854 16.269,17.348 16.988 C 17.024 17.448,16.239 18.230,15.760 18.569 C 14.795 19.253,13.570 19.697,12.380 19.792 C 9.492 20.024,6.677 18.125,5.763 15.330 C 5.525 14.600,5.460 14.150,5.462 13.240 C 5.463 12.544,5.477 12.357,5.554 12.000 C 5.849 10.632,6.483 9.458,7.685 8.056 C 7.890 7.816,8.590 7.080,9.239 6.419 C 9.889 5.759,10.570 5.039,10.754 4.819 C 11.347 4.109,11.793 3.368,11.927 2.865 C 11.954 2.763,11.986 2.680,11.998 2.680 C 12.010 2.680,12.070 2.822,12.131 2.995 " stroke="none" fill="black" fill-rule="evenodd"></path></svg>