<svg role="img" viewBox="0 0 24 24" xmlns="http://www.w3.org/2000/svg"><path d="M13.671 10.850 L 10.732 15.500 7.502 15.510 C 5.636 15.516,4.279 15.506,4.287 15.485 C 4.294 15.465,4.624 14.953,5.020 14.345 L 5.740 13.241 7.760 13.239 L 9.780 13.237 10.084 12.749 C 10.252 12.480,10.580 11.958,10.813 11.590 L 11.237 10.920 6.746 10.920 L 2.254 10.920 1.528 12.070 L 0.802 13.220 1.861 13.231 C 2.444 13.237,2.920 13.250,2.920 13.260 C 2.920 13.271,2.404 14.085,1.773 15.070 C 1.143 16.054,0.486 17.081,0.314 17.350 L 0.001 17.840 6.037 17.840 L 12.073 17.840 14.346 14.222 C 15.772 11.953,16.634 10.618,16.658 10.642 C 16.678 10.662,17.051 11.251,17.485 11.950 L 18.276 13.220 17.581 13.231 L 16.886 13.242 16.183 14.338 C 15.796 14.941,15.469 15.463,15.456 15.497 C 15.434 15.554,15.648 15.560,17.606 15.561 L 19.780 15.563 20.500 16.691 L 21.221 17.820 22.610 17.831 L 23.999 17.841 23.930 17.728 C 23.238 16.607,16.653 6.200,16.635 6.200 C 16.622 6.200,15.288 8.293,13.671 10.850 M4.441 7.430 L 3.717 8.580 5.468 8.593 C 6.432 8.600,8.573 8.593,10.227 8.578 L 13.234 8.550 13.927 7.469 C 14.308 6.874,14.634 6.364,14.652 6.334 C 14.679 6.289,13.907 6.280,9.925 6.280 L 5.166 6.280 4.441 7.430 " stroke="none" fill="black" fill-rule="evenodd"></path></svg>