<svg role="img" viewBox="0 0 24 24" xmlns="http://www.w3.org/2000/svg"><path d="M1.794 0.175 C 1.398 0.292,1.083 0.481,0.782 0.782 C 0.476 1.088,0.291 1.400,0.173 1.808 L 0.080 2.129 0.080 4.685 L 0.080 7.240 12.000 7.240 L 23.920 7.240 23.920 4.685 L 23.920 2.129 23.827 1.808 C 23.709 1.400,23.524 1.088,23.218 0.782 C 22.912 0.476,22.600 0.291,22.192 0.173 L 21.871 0.080 11.985 0.082 L 2.100 0.084 1.794 0.175 M0.080 12.020 L 0.080 15.600 12.000 15.600 L 23.920 15.600 23.920 12.020 L 23.920 8.440 12.000 8.440 L 0.080 8.440 0.080 12.020 M0.080 19.298 C 0.080 20.974,0.095 21.908,0.124 22.048 C 0.261 22.716,0.780 23.376,1.400 23.671 C 1.587 23.760,1.835 23.852,1.952 23.876 C 2.098 23.906,3.605 23.920,6.782 23.920 L 11.400 23.920 11.400 20.340 L 11.400 16.760 5.740 16.760 L 0.080 16.760 0.080 19.298 M12.600 20.340 L 12.600 23.920 17.232 23.920 C 22.332 23.920,22.053 23.933,22.595 23.670 C 22.967 23.489,23.461 22.996,23.652 22.617 C 23.924 22.075,23.920 22.129,23.920 19.304 L 23.920 16.760 18.260 16.760 L 12.600 16.760 12.600 20.340 " stroke="none" fill="black" fill-rule="evenodd"></path></svg>