<svg role="img" viewBox="0 0 24 24" xmlns="http://www.w3.org/2000/svg"><path d="M10.940 0.046 C 6.260 0.450,2.189 3.633,0.659 8.086 C -1.484 14.319,1.792 21.115,7.997 23.309 C 12.364 24.853,17.204 23.756,20.480 20.480 C 24.710 16.250,25.180 9.563,21.584 4.785 C 19.094 1.477,15.075 -0.312,10.940 0.046 M12.920 1.042 C 15.506 1.273,17.825 2.333,19.655 4.119 C 20.964 5.396,21.832 6.767,22.422 8.491 L 22.601 9.011 22.354 9.476 C 21.077 11.875,19.472 13.846,17.482 15.461 C 15.050 17.433,12.522 18.218,10.248 17.705 C 9.796 17.603,9.166 17.383,8.803 17.201 L 8.587 17.092 8.983 16.869 C 10.910 15.787,12.666 14.337,14.292 12.487 C 15.215 11.437,15.803 10.483,16.263 9.295 C 16.630 8.345,16.744 7.706,16.707 6.800 C 16.673 5.960,16.512 5.336,16.173 4.721 C 15.377 3.281,13.957 2.480,12.200 2.480 C 11.592 2.480,11.150 2.551,10.547 2.746 C 9.265 3.159,8.369 3.713,7.326 4.736 C 6.365 5.680,5.797 6.450,5.260 7.540 C 4.581 8.916,4.268 10.257,4.265 11.800 C 4.263 12.609,4.304 12.956,4.483 13.660 C 4.751 14.708,5.346 15.893,5.997 16.673 C 6.113 16.812,6.201 16.931,6.194 16.938 C 6.167 16.963,5.253 17.237,4.800 17.356 C 4.271 17.496,3.255 17.702,2.894 17.742 L 2.647 17.770 2.536 17.595 C 2.324 17.260,1.804 16.136,1.640 15.660 C 0.809 13.246,0.802 10.800,1.619 8.400 C 1.975 7.353,2.714 6.010,3.424 5.120 C 4.057 4.326,5.131 3.355,6.000 2.790 C 8.053 1.457,10.541 0.828,12.920 1.042 M12.832 3.303 C 13.224 3.383,13.740 3.591,14.055 3.797 C 14.585 4.143,15.114 4.800,15.362 5.419 C 15.611 6.040,15.653 6.275,15.657 7.040 C 15.659 7.701,15.652 7.768,15.531 8.249 C 15.120 9.875,14.333 11.161,12.760 12.776 C 11.590 13.978,10.417 14.880,8.980 15.683 C 8.414 15.999,7.669 16.360,7.582 16.360 C 7.494 16.360,6.893 15.691,6.636 15.307 C 6.212 14.674,5.902 13.912,5.714 13.040 C 5.583 12.438,5.581 11.126,5.709 10.420 C 5.889 9.421,6.197 8.538,6.779 7.348 C 7.400 6.079,8.024 5.252,8.930 4.495 C 9.739 3.819,10.424 3.469,11.265 3.302 C 11.651 3.225,12.454 3.226,12.832 3.303 M22.973 11.940 C 22.980 13.153,22.883 13.899,22.579 14.984 C 22.049 16.875,20.992 18.616,19.540 19.991 C 18.710 20.777,17.916 21.323,16.820 21.862 C 14.620 22.944,12.158 23.256,9.760 22.759 C 8.097 22.413,6.483 21.654,5.120 20.575 C 4.772 20.300,3.498 19.049,3.532 19.015 C 3.542 19.005,3.823 18.925,4.157 18.838 C 4.974 18.625,5.648 18.404,6.440 18.090 C 6.803 17.946,7.118 17.829,7.140 17.829 C 7.162 17.830,7.332 17.933,7.518 18.059 C 8.907 18.998,10.822 19.383,12.700 19.099 C 14.335 18.852,16.291 17.918,17.953 16.588 C 18.556 16.106,19.989 14.686,20.525 14.040 C 21.331 13.068,21.996 12.114,22.613 11.042 L 22.900 10.544 22.934 10.762 C 22.953 10.882,22.970 11.412,22.973 11.940 " stroke="none" fill="black" fill-rule="evenodd"></path></svg>