<svg role="img" viewBox="0 0 24 24" xmlns="http://www.w3.org/2000/svg"><path d="M3.400 12.020 L 3.400 24.000 12.000 24.000 L 20.600 24.000 20.600 12.020 L 20.600 0.040 12.000 0.040 L 3.400 0.040 3.400 12.020 M7.299 6.855 C 7.356 6.912,7.404 7.020,7.419 7.125 C 7.433 7.221,7.439 9.280,7.432 11.700 C 7.420 16.055,7.419 16.101,7.338 16.240 L 7.256 16.380 6.778 16.392 C 6.515 16.398,6.258 16.393,6.207 16.380 C 6.006 16.330,6.009 16.372,5.977 12.286 L 5.948 8.472 5.824 8.499 C 5.466 8.577,5.410 8.573,5.303 8.467 C 5.204 8.367,5.200 8.346,5.200 7.884 C 5.200 7.218,5.160 7.253,6.200 6.981 C 6.651 6.862,7.061 6.764,7.112 6.763 C 7.162 6.761,7.246 6.803,7.299 6.855 M10.508 6.857 L 10.620 6.953 10.620 11.554 L 10.620 16.154 10.536 16.267 L 10.451 16.380 9.917 16.380 L 9.383 16.380 9.292 16.244 L 9.200 16.108 9.200 12.294 C 9.200 8.688,9.196 8.480,9.130 8.481 C 9.091 8.482,8.983 8.500,8.889 8.521 C 8.755 8.552,8.692 8.548,8.600 8.500 C 8.429 8.412,8.400 8.327,8.400 7.919 C 8.400 7.523,8.463 7.319,8.616 7.219 C 8.706 7.160,10.162 6.768,10.308 6.763 C 10.356 6.761,10.446 6.803,10.508 6.857 M13.333 6.805 C 13.381 6.830,13.460 6.887,13.510 6.932 C 13.600 7.014,13.600 7.018,13.600 8.267 L 13.600 9.520 13.954 9.520 C 14.149 9.520,14.367 9.540,14.438 9.565 C 14.589 9.618,14.680 9.793,14.679 10.029 C 14.679 10.225,14.582 10.634,14.523 10.694 C 14.496 10.720,14.293 10.749,14.048 10.760 L 13.620 10.780 13.625 12.700 C 13.630 14.675,13.652 14.990,13.793 15.158 C 13.848 15.225,13.928 15.244,14.258 15.266 C 14.789 15.302,14.840 15.347,14.840 15.785 C 14.840 16.044,14.824 16.121,14.736 16.270 L 14.633 16.447 14.006 16.433 C 13.416 16.421,13.367 16.414,13.153 16.308 C 12.773 16.122,12.550 15.791,12.412 15.213 C 12.358 14.985,12.345 14.601,12.331 12.881 C 12.318 11.361,12.302 10.813,12.267 10.791 C 12.241 10.775,12.152 10.761,12.068 10.761 C 11.772 10.759,11.637 10.472,11.696 9.967 C 11.731 9.671,11.821 9.577,12.100 9.542 L 12.313 9.515 12.337 9.188 C 12.350 9.007,12.379 8.473,12.402 8.000 C 12.447 7.083,12.476 6.915,12.612 6.820 C 12.715 6.748,13.202 6.738,13.333 6.805 M16.223 9.642 C 16.280 9.696,16.342 9.768,16.361 9.802 C 16.380 9.837,16.568 10.647,16.779 11.602 C 16.991 12.558,17.177 13.374,17.194 13.415 C 17.214 13.465,17.254 13.325,17.313 12.995 C 17.736 10.660,17.897 9.844,17.956 9.740 C 18.052 9.572,18.178 9.521,18.500 9.521 C 18.835 9.522,18.948 9.589,19.000 9.820 C 19.039 9.995,19.060 9.866,18.616 12.180 C 17.731 16.789,17.707 16.901,17.503 17.343 C 17.253 17.882,16.927 18.098,16.360 18.097 C 15.953 18.096,15.692 17.993,15.562 17.782 C 15.463 17.623,15.450 17.229,15.537 17.022 C 15.625 16.810,15.721 16.780,16.048 16.859 C 16.369 16.937,16.385 16.928,16.498 16.603 C 16.618 16.257,16.583 15.975,16.258 14.692 C 16.092 14.037,15.757 12.717,15.515 11.761 C 15.051 9.931,15.027 9.775,15.192 9.629 C 15.293 9.539,15.385 9.524,15.769 9.535 C 16.077 9.543,16.131 9.556,16.223 9.642 " stroke="none" fill="black" fill-rule="evenodd"></path></svg>