<svg role="img" viewBox="0 0 24 24" xmlns="http://www.w3.org/2000/svg"><path d="M6.396 1.480 C 6.157 1.521,5.990 1.610,5.808 1.792 C 5.606 1.995,0.103 11.549,0.038 11.812 C -0.043 12.135,0.010 12.364,0.276 12.837 C 1.153 14.395,5.618 22.049,5.723 22.175 C 5.796 22.262,5.952 22.377,6.077 22.435 L 6.300 22.540 11.960 22.540 C 16.710 22.540,17.651 22.531,17.814 22.484 C 18.227 22.364,18.160 22.469,21.146 17.301 C 22.658 14.684,23.921 12.470,23.952 12.381 C 24.021 12.183,23.996 11.827,23.900 11.636 C 23.862 11.561,22.596 9.349,21.086 6.720 C 19.254 3.531,18.289 1.889,18.186 1.786 C 18.101 1.701,17.948 1.593,17.846 1.546 L 17.660 1.460 12.120 1.454 C 9.073 1.451,6.497 1.463,6.396 1.480 M15.681 5.751 C 17.731 6.933,19.243 7.829,19.278 7.882 C 19.333 7.964,19.341 8.455,19.350 12.038 C 19.360 15.847,19.356 16.109,19.290 16.240 C 19.227 16.365,18.842 16.597,15.663 18.430 C 13.465 19.696,12.066 20.480,12.003 20.479 C 11.887 20.479,4.967 16.516,4.790 16.349 L 4.680 16.245 4.680 12.087 C 4.680 8.185,4.684 7.924,4.750 7.847 C 4.788 7.802,6.413 6.846,8.360 5.721 C 11.364 3.987,11.919 3.680,12.023 3.695 C 12.090 3.705,13.736 4.630,15.681 5.751 M11.800 6.513 C 10.871 7.022,7.238 9.150,7.170 9.225 L 7.080 9.324 7.080 12.085 L 7.080 14.846 7.190 14.954 C 7.345 15.107,11.893 17.720,12.003 17.720 C 12.121 17.720,16.666 15.105,16.810 14.954 L 16.920 14.839 16.920 12.082 L 16.920 9.324 16.830 9.224 C 16.780 9.169,16.164 8.792,15.460 8.388 C 14.756 7.983,13.722 7.387,13.163 7.064 C 12.603 6.740,12.099 6.466,12.043 6.456 C 11.983 6.445,11.881 6.469,11.800 6.513 " stroke="none" fill="black" fill-rule="evenodd"></path></svg>