<svg role="img" viewBox="0 0 24 24" xmlns="http://www.w3.org/2000/svg"><path d="M20.659 0.061 C 20.006 0.136,18.324 0.273,17.480 0.319 C 17.052 0.343,14.576 0.360,11.600 0.359 C 7.302 0.359,6.080 0.346,4.140 0.280 C 2.864 0.236,1.752 0.201,1.670 0.200 L 1.520 0.200 1.520 0.879 C 1.520 1.551,1.521 1.559,1.610 1.579 C 1.660 1.591,2.126 1.681,2.646 1.780 C 3.167 1.879,3.709 1.996,3.852 2.041 C 4.390 2.206,4.668 2.501,4.781 3.021 C 4.871 3.439,4.916 5.388,4.945 10.180 C 4.976 15.084,4.911 20.767,4.821 21.206 C 4.723 21.679,4.501 21.923,3.984 22.123 C 3.735 22.220,3.307 22.315,1.910 22.584 L 1.560 22.651 1.560 23.325 C 1.560 23.838,1.572 24.000,1.610 24.000 C 1.637 24.000,2.776 23.963,4.140 23.917 C 6.403 23.841,7.127 23.836,12.420 23.853 C 17.610 23.870,18.825 23.888,21.024 23.981 L 21.628 24.006 21.655 23.733 C 21.759 22.692,22.409 17.327,22.466 17.040 L 22.490 16.920 21.891 16.920 L 21.292 16.920 20.581 18.530 C 20.190 19.416,19.807 20.248,19.731 20.380 C 19.229 21.246,18.600 21.802,17.840 22.055 C 17.185 22.273,16.953 22.284,13.440 22.271 C 10.496 22.259,10.199 22.252,9.980 22.187 C 9.240 21.968,8.854 21.607,8.645 20.940 C 8.591 20.766,8.581 20.232,8.570 16.770 L 8.557 12.800 9.569 12.801 C 10.946 12.802,13.190 12.870,13.576 12.922 C 14.210 13.009,14.585 13.245,14.830 13.711 C 14.995 14.025,15.048 14.202,15.295 15.261 L 15.509 16.180 16.220 16.191 L 16.932 16.202 16.906 15.431 C 16.830 13.119,16.832 11.670,16.916 9.900 C 16.962 8.932,17.000 8.018,17.000 7.869 L 17.000 7.598 16.311 7.609 L 15.623 7.620 15.587 7.780 C 15.410 8.569,15.029 10.067,14.958 10.258 C 14.844 10.560,14.577 10.833,14.300 10.930 C 13.800 11.105,12.628 11.191,10.231 11.228 L 8.602 11.253 8.591 6.756 C 8.583 3.399,8.592 2.228,8.627 2.133 C 8.663 2.035,8.709 1.996,8.827 1.963 C 9.046 1.902,16.718 1.904,17.008 1.965 C 17.671 2.104,18.228 2.634,18.620 3.499 C 18.824 3.949,18.997 4.505,19.298 5.680 L 19.580 6.780 20.206 6.791 L 20.832 6.802 20.855 6.571 C 20.867 6.444,20.888 6.106,20.901 5.820 C 20.976 4.179,21.188 0.892,21.263 0.210 C 21.290 -0.034,21.353 -0.019,20.659 0.061 " stroke="none" fill="black" fill-rule="evenodd"></path></svg>