<svg role="img" xmlns="http://www.w3.org/2000/svg" viewBox="0 0 24 24"><path d="M3.499 1.755 C 2.589 1.979,1.981 2.556,1.661 3.500 C 1.472 4.056,1.470 4.092,1.439 6.820 C 1.420 8.504,1.393 9.525,1.361 9.718 C 1.236 10.501,0.968 10.996,0.361 11.568 C 0.163 11.755,0.000 11.940,0.000 11.979 C 0.000 12.018,0.178 12.223,0.395 12.435 C 0.858 12.886,1.084 13.217,1.217 13.639 C 1.393 14.196,1.408 14.421,1.439 17.140 C 1.465 19.389,1.478 19.780,1.538 20.040 C 1.693 20.714,2.016 21.311,2.412 21.661 C 2.682 21.898,3.158 22.135,3.549 22.227 C 3.806 22.287,4.032 22.300,4.862 22.300 C 5.761 22.300,5.875 22.293,5.974 22.228 C 6.072 22.163,6.083 22.135,6.072 21.969 C 6.062 21.810,6.041 21.770,5.932 21.697 C 5.862 21.650,5.628 21.571,5.412 21.521 C 4.917 21.408,4.613 21.248,4.348 20.962 C 4.003 20.589,3.777 20.017,3.681 19.280 C 3.660 19.115,3.642 18.080,3.641 16.980 C 3.639 14.262,3.591 13.808,3.234 13.081 C 3.095 12.798,3.006 12.683,2.694 12.381 C 2.488 12.182,2.320 12.003,2.320 11.983 C 2.320 11.963,2.488 11.783,2.694 11.583 C 3.087 11.201,3.216 11.008,3.380 10.552 C 3.597 9.950,3.610 9.782,3.641 7.020 C 3.672 4.320,3.679 4.223,3.872 3.673 C 3.987 3.346,4.167 3.107,4.451 2.906 C 4.784 2.670,4.955 2.588,5.467 2.416 C 5.944 2.256,6.080 2.163,6.080 1.996 C 6.080 1.724,5.886 1.680,4.720 1.683 C 3.971 1.685,3.723 1.700,3.499 1.755 M18.307 1.719 C 18.027 1.770,17.920 1.852,17.920 2.018 C 17.920 2.197,18.045 2.295,18.415 2.404 C 19.046 2.590,19.568 2.877,19.839 3.185 C 20.015 3.386,20.152 3.702,20.250 4.140 C 20.325 4.472,20.333 4.696,20.360 7.060 C 20.390 9.770,20.403 9.969,20.597 10.531 C 20.774 11.046,20.989 11.349,21.490 11.788 C 21.595 11.880,21.680 11.981,21.680 12.013 C 21.680 12.045,21.537 12.200,21.363 12.358 C 20.984 12.699,20.793 12.974,20.636 13.403 C 20.402 14.045,20.391 14.193,20.359 16.900 C 20.335 18.918,20.318 19.432,20.268 19.660 C 20.125 20.300,19.921 20.726,19.605 21.041 C 19.334 21.312,19.068 21.442,18.549 21.559 C 18.054 21.670,17.920 21.769,17.920 22.019 C 17.920 22.127,17.944 22.210,17.984 22.243 C 18.025 22.277,18.255 22.309,18.634 22.333 C 19.424 22.383,20.264 22.322,20.703 22.183 C 21.708 21.865,22.331 21.013,22.518 19.700 C 22.541 19.543,22.559 18.495,22.560 17.320 C 22.562 15.067,22.591 14.437,22.720 13.889 C 22.847 13.349,23.049 13.020,23.565 12.512 C 23.804 12.277,24.000 12.055,24.000 12.018 C 24.000 11.981,23.822 11.777,23.605 11.565 C 23.173 11.144,22.967 10.854,22.817 10.457 C 22.608 9.901,22.591 9.663,22.560 6.860 C 22.536 4.672,22.522 4.216,22.467 3.980 C 22.185 2.767,21.571 2.073,20.534 1.794 C 20.271 1.724,20.081 1.708,19.360 1.697 C 18.887 1.690,18.413 1.700,18.307 1.719 M7.400 9.747 C 6.155 9.906,5.186 10.819,5.057 11.955 L 5.030 12.200 5.550 12.200 L 6.070 12.200 6.089 12.003 C 6.164 11.217,7.090 10.568,7.926 10.715 C 8.634 10.840,9.182 11.350,9.271 11.969 L 9.301 12.180 9.810 12.191 L 10.320 12.202 10.319 12.071 C 10.318 11.857,10.206 11.441,10.078 11.182 C 9.754 10.525,9.109 10.009,8.380 9.826 C 8.115 9.760,7.617 9.719,7.400 9.747 M15.701 9.763 C 15.144 9.848,14.625 10.102,14.220 10.486 C 13.782 10.901,13.533 11.389,13.462 11.970 L 13.434 12.200 13.952 12.200 L 14.469 12.200 14.492 12.002 C 14.588 11.194,15.496 10.570,16.357 10.720 C 17.039 10.839,17.521 11.281,17.673 11.928 L 17.737 12.200 18.228 12.200 L 18.720 12.200 18.720 12.048 C 18.720 11.655,18.477 11.065,18.157 10.680 C 17.958 10.441,17.595 10.158,17.293 10.006 C 16.887 9.801,16.168 9.691,15.701 9.763 M9.720 14.792 C 9.720 15.556,9.906 16.033,10.397 16.524 C 11.340 17.467,12.803 17.477,13.738 16.545 C 14.233 16.052,14.438 15.532,14.439 14.770 L 14.440 14.360 13.980 14.360 L 13.520 14.360 13.520 14.692 C 13.520 15.428,13.257 15.909,12.700 16.190 C 12.159 16.463,11.386 16.357,10.972 15.952 C 10.702 15.688,10.628 15.468,10.608 14.870 L 10.591 14.360 10.155 14.360 L 9.720 14.360 9.720 14.792 " stroke="none" fill="black" fill-rule="evenodd"></path></svg>