<svg role="img" viewBox="0 0 24 24" xmlns="http://www.w3.org/2000/svg"><path d="M10.861 1.242 C 9.969 1.380,9.608 1.772,8.410 3.900 C 6.513 7.269,1.972 15.772,0.595 18.532 C 0.036 19.652,0.000 19.738,0.001 19.952 C 0.002 20.478,0.208 21.067,0.604 21.679 C 0.905 22.145,1.244 22.478,1.593 22.649 C 1.826 22.764,1.897 22.780,2.179 22.779 C 2.435 22.779,2.535 22.760,2.672 22.688 C 3.042 22.491,3.116 22.382,5.039 19.200 C 8.294 13.812,9.741 11.492,10.851 9.880 C 11.522 8.906,11.602 8.831,11.980 8.826 C 12.333 8.821,12.448 8.912,12.920 9.572 C 13.919 10.969,15.428 13.373,18.600 18.620 C 20.208 21.280,20.780 22.200,20.946 22.395 C 21.015 22.476,21.168 22.596,21.286 22.661 C 21.474 22.765,21.539 22.780,21.820 22.779 C 22.089 22.779,22.177 22.761,22.373 22.665 C 22.843 22.436,23.347 21.852,23.682 21.147 C 23.866 20.762,23.954 20.445,23.984 20.060 C 24.006 19.780,24.005 19.779,23.742 19.220 C 23.082 17.820,19.846 11.701,17.109 6.680 C 14.497 1.887,14.262 1.546,13.387 1.291 C 13.140 1.219,11.248 1.183,10.861 1.242 " stroke="none" fill="black" fill-rule="evenodd"></path></svg>