<svg xmlns="http://www.w3.org/2000/svg" role="img" viewBox="0 0 24 24"><path d="M10.120 0.904 C 10.021 0.912,9.652 0.938,9.300 0.961 C 7.334 1.092,5.039 1.464,3.020 1.979 C 1.309 2.417,1.024 2.535,0.598 2.990 C 0.340 3.264,0.115 3.687,0.044 4.032 C -0.062 4.544,-0.002 4.921,0.424 6.392 C 0.761 7.558,1.384 9.363,1.655 9.960 C 1.750 10.168,1.756 10.173,1.758 10.052 C 1.766 9.579,1.993 9.087,2.380 8.699 C 2.828 8.251,3.177 8.101,4.752 7.679 C 7.212 7.019,9.723 6.720,12.340 6.774 C 15.260 6.833,17.616 7.237,20.561 8.180 C 21.187 8.381,21.467 8.406,21.843 8.296 C 22.246 8.179,22.653 7.847,22.837 7.485 C 23.017 7.133,23.617 4.927,23.881 3.649 C 23.979 3.176,23.997 3.024,23.961 2.981 C 23.910 2.920,22.789 2.542,21.900 2.286 C 19.578 1.617,17.393 1.216,14.780 0.976 C 14.145 0.918,10.618 0.863,10.120 0.904 M6.480 7.923 C 6.403 7.942,6.034 8.029,5.660 8.116 C 4.790 8.319,3.764 8.614,3.482 8.743 C 2.982 8.972,2.576 9.427,2.397 9.960 C 2.274 10.326,2.274 10.917,2.398 11.280 C 2.500 11.580,2.603 11.758,2.795 11.971 L 2.931 12.122 3.063 11.851 C 3.240 11.487,3.544 11.184,3.900 11.018 C 4.950 10.528,7.425 9.919,9.031 9.755 C 9.301 9.728,9.508 9.694,9.491 9.680 C 9.474 9.666,9.325 9.595,9.160 9.521 C 8.507 9.232,7.643 8.690,6.991 8.162 C 6.799 8.007,6.637 7.882,6.631 7.884 C 6.625 7.886,6.557 7.904,6.480 7.923 M10.200 10.282 C 8.314 10.443,6.316 10.872,4.707 11.463 C 3.925 11.750,3.570 12.070,3.394 12.649 C 3.260 13.092,3.301 13.427,3.549 13.918 C 4.018 14.845,5.295 16.845,6.180 18.040 C 6.416 18.359,6.621 18.632,6.635 18.648 C 6.649 18.663,6.661 18.519,6.662 18.327 C 6.663 18.023,6.679 17.946,6.790 17.709 C 6.939 17.390,7.251 17.046,7.540 16.880 C 7.891 16.679,8.925 16.413,9.960 16.257 C 10.538 16.170,12.316 16.136,13.008 16.198 C 14.133 16.300,15.298 16.552,16.261 16.901 C 16.547 17.005,16.879 17.103,17.000 17.120 C 17.512 17.192,18.049 16.995,18.406 16.606 C 18.740 16.242,19.644 14.748,20.434 13.256 C 20.679 12.793,20.880 12.377,20.880 12.332 C 20.880 12.267,20.797 12.214,20.470 12.068 C 18.817 11.334,17.118 10.818,15.366 10.521 C 14.190 10.321,13.605 10.274,12.080 10.260 C 11.277 10.253,10.431 10.262,10.200 10.282 M10.720 16.827 C 9.965 16.884,8.662 17.149,8.110 17.358 C 7.810 17.472,7.491 17.766,7.338 18.067 C 7.228 18.285,7.220 18.330,7.220 18.760 C 7.220 19.171,7.231 19.243,7.324 19.441 C 7.486 19.786,7.987 20.372,9.249 21.689 C 10.084 22.559,10.370 22.782,10.899 22.974 C 11.158 23.068,11.307 23.094,11.666 23.110 C 12.220 23.135,12.588 23.061,13.051 22.832 C 13.350 22.684,13.447 22.602,14.122 21.925 C 14.897 21.147,15.800 20.158,15.800 20.088 C 15.800 20.065,15.650 19.965,15.467 19.865 C 14.495 19.335,13.868 18.838,12.729 17.695 L 11.837 16.800 11.369 16.807 C 11.111 16.811,10.819 16.820,10.720 16.827 " stroke="none" fill="black" fill-rule="evenodd"></path></svg>