<svg xmlns="http://www.w3.org/2000/svg" role="img" viewBox="0 0 24 24"><path d="M23.384 3.090 C 23.179 3.404,22.292 4.758,21.413 6.100 C 19.335 9.272,19.219 9.451,18.347 10.820 L 17.609 11.980 8.878 11.990 C 0.822 11.999,0.140 12.005,0.073 12.066 C -0.027 12.157,-0.019 12.306,0.090 12.375 C 0.140 12.407,0.621 12.598,1.160 12.800 C 5.594 14.464,14.314 17.837,21.074 20.504 C 22.490 21.063,23.689 21.520,23.738 21.520 C 23.786 21.520,23.865 21.478,23.913 21.427 L 24.000 21.335 24.000 11.975 C 24.000 4.749,23.989 2.605,23.952 2.568 C 23.834 2.450,23.757 2.521,23.384 3.090 " stroke="none" fill="black" fill-rule="evenodd"></path></svg>