<svg role="img" xmlns="http://www.w3.org/2000/svg" viewBox="0 0 24 24"><path d="M11.060 0.028 C 10.314 0.079,9.193 0.299,8.431 0.544 C 5.396 1.518,2.849 3.636,1.389 6.400 C 0.757 7.597,0.359 8.823,0.163 10.180 C 0.007 11.265,-0.009 11.946,0.011 16.962 C 0.031 22.244,0.015 21.914,0.289 22.457 C 0.637 23.148,1.308 23.679,2.120 23.907 C 2.366 23.976,2.663 23.980,7.540 23.977 C 13.014 23.973,13.195 23.967,14.220 23.778 C 17.295 23.211,20.112 21.363,21.928 18.720 C 23.440 16.520,24.183 13.732,23.958 11.100 C 23.708 8.169,22.498 5.522,20.503 3.540 C 18.427 1.478,15.885 0.299,12.960 0.041 C 12.532 0.004,11.521 -0.003,11.060 0.028 M16.569 2.933 C 17.022 3.044,17.456 3.497,17.581 3.989 C 17.721 4.540,17.461 5.145,16.973 5.408 C 16.744 5.531,16.357 5.618,16.207 5.580 C 15.764 5.466,15.031 5.496,14.583 5.645 C 13.842 5.891,13.073 6.620,12.774 7.359 C 12.557 7.896,12.552 7.947,12.559 9.580 C 12.563 10.661,12.579 11.128,12.612 11.198 C 12.639 11.252,12.719 11.331,12.792 11.373 C 12.912 11.443,13.020 11.450,14.052 11.457 C 15.112 11.465,15.194 11.471,15.406 11.554 C 15.707 11.672,15.970 11.911,16.108 12.191 C 16.204 12.387,16.220 12.468,16.220 12.760 C 16.220 13.051,16.204 13.133,16.109 13.326 C 15.975 13.599,15.748 13.813,15.445 13.953 L 15.220 14.057 13.890 14.073 L 12.560 14.089 12.560 15.575 C 12.560 16.392,12.542 17.253,12.519 17.489 C 12.376 19.004,11.865 20.107,10.863 21.071 C 9.673 22.214,8.042 22.810,6.462 22.676 C 5.688 22.611,5.438 22.522,5.112 22.196 C 4.726 21.810,4.606 21.315,4.776 20.810 C 4.870 20.529,5.172 20.200,5.449 20.077 C 5.675 19.976,5.725 19.974,6.940 20.006 C 7.397 20.018,7.496 20.008,7.760 19.926 C 8.131 19.809,8.300 19.725,8.676 19.465 C 9.151 19.138,9.463 18.721,9.683 18.118 C 9.882 17.574,9.912 17.227,9.896 15.703 C 9.882 14.377,9.880 14.345,9.795 14.255 C 9.747 14.204,9.652 14.144,9.584 14.122 C 9.516 14.099,8.967 14.076,8.360 14.070 L 7.260 14.060 7.020 13.948 C 6.729 13.812,6.509 13.607,6.367 13.340 C 6.273 13.164,6.260 13.094,6.260 12.760 C 6.260 12.413,6.270 12.361,6.379 12.166 C 6.528 11.896,6.789 11.665,7.054 11.567 C 7.234 11.501,7.427 11.487,8.559 11.463 C 9.273 11.448,9.867 11.426,9.879 11.414 C 9.890 11.402,9.894 10.805,9.887 10.086 C 9.864 7.790,9.983 6.989,10.501 5.940 C 11.138 4.649,12.431 3.547,13.825 3.107 C 14.136 3.009,14.622 2.901,14.920 2.864 C 15.199 2.830,16.344 2.878,16.569 2.933 M17.962 3.402 C 18.736 3.789,19.465 4.400,19.994 5.104 C 20.293 5.503,20.736 6.266,20.649 6.235 C 20.524 6.190,17.760 3.698,17.760 3.631 C 17.760 3.608,17.696 3.500,17.618 3.391 C 17.486 3.209,17.482 3.195,17.568 3.222 C 17.618 3.238,17.796 3.319,17.962 3.402 M18.599 4.738 C 18.953 5.056,19.610 5.632,20.058 6.017 C 20.847 6.695,20.876 6.725,20.933 6.929 C 20.999 7.160,21.060 7.470,21.101 7.778 C 21.132 8.008,21.189 8.035,20.600 7.541 C 19.410 6.541,17.760 5.056,17.761 4.985 C 17.761 4.960,17.786 4.868,17.817 4.780 C 17.847 4.692,17.885 4.516,17.901 4.390 C 17.916 4.264,17.935 4.160,17.943 4.160 C 17.950 4.160,18.245 4.420,18.599 4.738 M18.906 6.357 C 19.349 6.748,20.038 7.341,20.436 7.676 L 21.160 8.284 21.160 8.456 C 21.160 8.781,21.108 9.240,21.072 9.240 C 20.961 9.240,17.107 5.867,17.048 5.719 C 17.042 5.702,17.096 5.652,17.168 5.607 C 17.241 5.562,17.370 5.453,17.456 5.365 L 17.612 5.204 17.856 5.425 C 17.990 5.547,18.463 5.966,18.906 6.357 M18.900 7.704 C 19.230 7.991,19.842 8.512,20.260 8.860 C 20.678 9.208,21.026 9.518,21.033 9.548 C 21.046 9.600,20.855 10.318,20.820 10.354 C 20.801 10.372,20.202 9.882,19.190 9.020 C 18.501 8.433,18.486 8.417,18.482 8.260 C 18.477 8.022,18.381 7.611,18.265 7.325 C 18.144 7.028,18.084 6.992,18.900 7.704 M19.071 9.190 C 19.373 9.449,19.868 9.865,20.170 10.116 C 20.473 10.367,20.720 10.588,20.720 10.607 C 20.720 10.659,20.407 11.271,20.368 11.295 C 20.337 11.314,19.788 10.871,18.766 10.000 C 18.384 9.674,18.323 9.606,18.337 9.520 C 18.371 9.316,18.500 8.720,18.511 8.720 C 18.517 8.720,18.769 8.931,19.071 9.190 M18.660 10.185 C 18.814 10.318,19.228 10.666,19.580 10.959 C 19.932 11.252,20.224 11.502,20.230 11.516 C 20.235 11.529,20.130 11.681,19.996 11.853 C 19.778 12.132,19.745 12.159,19.686 12.109 C 19.650 12.077,19.434 11.896,19.207 11.705 C 18.980 11.515,18.562 11.157,18.278 10.911 C 17.785 10.483,17.764 10.459,17.822 10.382 C 17.856 10.337,17.958 10.187,18.049 10.050 C 18.212 9.804,18.216 9.801,18.297 9.872 C 18.343 9.912,18.506 10.053,18.660 10.185 M18.074 11.013 C 18.392 11.290,19.392 12.141,19.598 12.308 C 19.624 12.329,19.111 12.793,19.029 12.821 C 18.953 12.848,18.997 12.883,17.709 11.762 L 16.958 11.109 17.109 11.007 C 17.192 10.952,17.331 10.846,17.417 10.773 C 17.504 10.700,17.591 10.640,17.611 10.640 C 17.631 10.640,17.840 10.808,18.074 11.013 M17.315 11.701 C 17.630 11.977,18.093 12.375,18.344 12.587 C 18.595 12.799,18.800 12.984,18.800 12.997 C 18.800 13.028,18.469 13.244,18.253 13.354 L 18.086 13.439 17.373 12.815 C 16.981 12.472,16.469 12.015,16.235 11.800 L 15.810 11.409 16.035 11.382 C 16.159 11.367,16.359 11.321,16.480 11.281 C 16.601 11.241,16.709 11.206,16.721 11.204 C 16.733 11.202,17.000 11.425,17.315 11.701 M6.393 11.716 L 6.140 11.991 5.938 11.806 C 5.826 11.704,5.741 11.608,5.748 11.594 C 5.761 11.565,6.175 11.493,6.593 11.446 C 6.623 11.443,6.533 11.564,6.393 11.716 M5.752 11.972 L 6.043 12.264 5.997 12.479 C 5.953 12.680,5.966 12.971,6.027 13.200 C 6.046 13.270,5.838 13.094,5.344 12.622 C 4.682 11.989,4.641 11.941,4.727 11.907 C 5.008 11.796,5.348 11.682,5.401 11.681 C 5.435 11.680,5.593 11.811,5.752 11.972 M4.616 12.267 C 5.356 12.945,6.511 14.085,6.470 14.096 C 6.382 14.119,5.822 14.283,5.760 14.304 C 5.707 14.321,5.084 13.764,3.967 12.699 L 3.715 12.459 4.027 12.271 C 4.199 12.167,4.356 12.082,4.376 12.081 C 4.396 12.081,4.504 12.164,4.616 12.267 M17.860 13.551 C 17.860 13.582,17.263 13.821,17.096 13.857 C 16.987 13.880,16.938 13.855,16.672 13.639 L 16.371 13.395 16.430 13.228 C 16.495 13.041,16.512 12.659,16.466 12.429 C 16.436 12.280,16.446 12.287,17.148 12.902 C 17.540 13.245,17.860 13.537,17.860 13.551 M4.229 13.270 C 4.597 13.617,5.029 14.024,5.190 14.176 L 5.482 14.452 5.331 14.553 C 5.248 14.608,5.111 14.713,5.026 14.784 L 4.871 14.915 4.087 14.188 C 3.656 13.787,3.222 13.383,3.122 13.289 L 2.940 13.118 3.200 12.879 C 3.343 12.748,3.482 12.641,3.510 12.641 C 3.537 12.640,3.861 12.923,4.229 13.270 M3.969 14.400 C 4.704 15.088,4.715 15.101,4.643 15.180 C 4.603 15.224,4.503 15.363,4.421 15.488 L 4.271 15.717 3.545 15.048 C 3.146 14.681,2.699 14.272,2.551 14.139 L 2.282 13.899 2.525 13.587 L 2.768 13.275 2.995 13.488 C 3.119 13.604,3.558 14.015,3.969 14.400 M16.625 13.968 C 16.602 13.983,16.465 14.006,16.321 14.019 C 16.178 14.032,16.009 14.051,15.946 14.061 C 15.836 14.079,15.840 14.071,16.046 13.847 L 16.260 13.614 16.464 13.777 C 16.584 13.873,16.650 13.951,16.625 13.968 M2.731 14.607 C 3.022 14.876,3.464 15.288,3.714 15.525 L 4.168 15.955 4.087 16.207 C 4.043 16.346,3.991 16.530,3.973 16.616 L 3.939 16.772 3.337 16.216 C 3.007 15.910,2.524 15.471,2.266 15.240 C 1.889 14.904,1.800 14.804,1.817 14.737 C 1.848 14.614,2.129 14.120,2.169 14.120 C 2.187 14.120,2.440 14.339,2.731 14.607 M2.540 15.798 C 2.892 16.123,3.356 16.558,3.570 16.764 C 3.953 17.132,3.961 17.144,3.960 17.322 C 3.960 17.544,4.093 18.070,4.207 18.295 L 4.290 18.460 4.175 18.360 C 4.112 18.305,3.898 18.107,3.700 17.920 C 3.282 17.525,2.007 16.355,1.667 16.054 L 1.434 15.849 1.502 15.577 C 1.540 15.427,1.596 15.244,1.627 15.170 L 1.683 15.036 1.791 15.122 C 1.851 15.169,2.188 15.473,2.540 15.798 M1.854 16.527 C 2.393 17.018,4.008 18.543,4.779 19.288 L 5.339 19.828 5.205 19.897 C 5.131 19.936,4.996 20.036,4.904 20.121 L 4.736 20.275 4.058 19.631 C 3.276 18.887,1.933 17.641,1.569 17.321 L 1.320 17.102 1.320 16.821 C 1.321 16.516,1.360 16.120,1.390 16.120 C 1.400 16.120,1.609 16.303,1.854 16.527 M2.620 18.608 C 3.104 19.061,3.748 19.671,4.052 19.965 L 4.604 20.500 4.527 20.700 C 4.484 20.810,4.436 20.994,4.421 21.110 L 4.393 21.320 4.022 20.970 C 3.390 20.372,1.869 18.942,1.690 18.777 C 1.533 18.633,1.513 18.591,1.442 18.260 C 1.400 18.062,1.353 17.783,1.338 17.640 L 1.311 17.380 1.525 17.583 C 1.643 17.694,2.136 18.156,2.620 18.608 M2.559 19.919 C 4.099 21.376,4.461 21.739,4.571 21.936 C 4.631 22.045,4.711 22.168,4.747 22.208 C 4.843 22.314,4.791 22.299,4.397 22.103 C 3.387 21.601,2.457 20.667,1.934 19.628 C 1.858 19.476,1.778 19.306,1.756 19.250 C 1.721 19.156,1.723 19.152,1.789 19.203 C 1.828 19.234,2.174 19.556,2.559 19.919 " stroke="none" fill="black" fill-rule="evenodd"></path></svg>