<svg role="img" xmlns="http://www.w3.org/2000/svg" viewBox="0 0 24 24"><path d="M1.456 3.459 C 0.776 3.608,0.241 4.133,0.060 4.828 C 0.008 5.027,0.000 6.069,0.000 12.828 L 0.000 20.600 1.960 20.600 L 3.920 20.600 3.920 17.540 L 3.920 14.480 6.380 14.480 L 8.840 14.480 8.840 12.580 L 8.840 10.680 6.380 10.680 L 3.920 10.680 3.920 9.000 L 3.920 7.320 11.212 7.320 C 19.182 7.320,18.725 7.307,19.167 7.548 C 19.422 7.686,19.741 8.028,19.860 8.290 C 20.314 9.287,19.719 10.435,18.642 10.640 C 18.509 10.665,17.124 10.680,14.962 10.680 C 11.125 10.680,11.325 10.667,10.950 10.941 C 10.846 11.018,10.698 11.175,10.622 11.290 C 10.349 11.702,10.359 11.510,10.370 16.282 L 10.380 20.580 12.330 20.590 L 14.280 20.601 14.280 17.580 L 14.280 14.559 15.382 14.569 L 16.483 14.580 18.039 17.580 L 19.596 20.580 21.782 20.590 C 23.701 20.599,23.966 20.593,23.946 20.541 C 23.934 20.509,23.158 19.010,22.222 17.211 L 20.522 13.940 20.851 13.787 C 22.411 13.064,23.538 11.609,23.908 9.840 C 24.014 9.333,24.003 8.317,23.886 7.771 C 23.662 6.723,23.197 5.851,22.448 5.074 C 21.675 4.272,20.784 3.784,19.591 3.508 L 19.220 3.423 10.460 3.414 C 3.266 3.407,1.656 3.415,1.456 3.459 " stroke="none" fill="black" fill-rule="evenodd"></path></svg>