<svg role="img" viewBox="0 0 24 24" xmlns="http://www.w3.org/2000/svg"><path d="M0.763 0.205 C 0.692 0.481,0.481 0.692,0.205 0.763 L 0.000 0.815 0.000 1.342 L 0.000 1.870 0.160 1.895 C 0.350 1.926,0.625 2.154,0.706 2.349 C 0.892 2.793,0.628 3.313,0.150 3.442 L 0.000 3.483 0.000 3.995 L 0.000 4.507 0.170 4.558 C 0.264 4.585,0.397 4.651,0.466 4.703 C 0.728 4.901,0.839 5.362,0.696 5.663 C 0.599 5.868,0.348 6.075,0.160 6.105 L 0.000 6.130 0.000 6.660 L 0.000 7.190 0.153 7.214 C 0.371 7.249,0.613 7.439,0.720 7.660 C 0.942 8.118,0.644 8.706,0.150 8.786 L -0.000 8.810 -0.000 9.340 L 0.000 9.869 0.165 9.892 C 0.487 9.935,0.801 10.314,0.799 10.658 C 0.797 11.007,0.520 11.359,0.179 11.444 L 0.000 11.489 0.000 12.003 L 0.000 12.517 0.154 12.558 C 0.630 12.687,0.893 13.206,0.706 13.651 C 0.625 13.846,0.350 14.074,0.160 14.105 L 0.000 14.130 -0.000 14.660 L -0.000 15.190 0.150 15.214 C 0.644 15.294,0.942 15.882,0.720 16.340 C 0.613 16.561,0.371 16.751,0.153 16.786 L -0.000 16.810 -0.000 17.340 L -0.000 17.870 0.160 17.895 C 0.348 17.925,0.599 18.132,0.696 18.337 C 0.839 18.638,0.728 19.099,0.466 19.297 C 0.397 19.349,0.263 19.415,0.170 19.442 L -0.000 19.493 -0.000 20.006 L -0.000 20.518 0.110 20.542 C 0.521 20.632,0.800 20.958,0.800 21.350 C 0.800 21.687,0.483 22.066,0.165 22.108 L -0.000 22.131 -0.000 22.665 C -0.000 23.148,0.007 23.200,0.070 23.201 C 0.197 23.202,0.479 23.354,0.599 23.485 C 0.663 23.556,0.738 23.700,0.766 23.807 L 0.815 24.000 1.348 24.000 C 1.857 24.000,1.880 23.996,1.880 23.918 C 1.880 23.785,2.030 23.532,2.170 23.428 C 2.313 23.322,2.525 23.240,2.656 23.240 C 2.983 23.241,3.354 23.522,3.437 23.831 L 3.483 24.000 4.000 24.000 L 4.517 24.000 4.560 23.839 C 4.646 23.519,5.002 23.243,5.331 23.241 C 5.511 23.240,5.743 23.330,5.873 23.452 C 5.989 23.560,6.120 23.808,6.120 23.918 C 6.120 23.996,6.143 24.000,6.652 24.000 L 7.183 24.000 7.231 23.820 C 7.317 23.500,7.661 23.240,8.000 23.240 C 8.339 23.240,8.683 23.500,8.769 23.820 L 8.817 24.000 9.343 24.000 L 9.870 24.000 9.895 23.841 C 9.945 23.526,10.313 23.240,10.666 23.240 C 11.034 23.240,11.336 23.470,11.442 23.830 L 11.493 24.000 12.005 24.000 L 12.517 24.000 12.560 23.839 C 12.648 23.515,13.004 23.242,13.340 23.242 C 13.683 23.242,14.056 23.538,14.106 23.850 L 14.130 24.000 14.660 24.000 L 15.191 24.000 15.236 23.819 C 15.351 23.362,15.911 23.112,16.346 23.323 C 16.564 23.429,16.710 23.601,16.770 23.825 L 16.817 24.000 17.340 24.000 L 17.863 24.000 17.910 23.825 C 18.067 23.237,18.801 23.050,19.237 23.486 C 19.330 23.580,19.409 23.709,19.440 23.819 L 19.490 24.000 20.025 24.000 L 20.560 24.000 20.560 23.888 C 20.560 23.740,20.731 23.481,20.911 23.358 C 21.030 23.276,21.102 23.260,21.340 23.260 C 21.587 23.260,21.649 23.275,21.784 23.369 C 21.957 23.489,22.079 23.668,22.118 23.857 L 22.143 23.980 22.663 23.991 L 23.183 24.002 23.233 23.815 C 23.260 23.713,23.321 23.575,23.367 23.510 C 23.452 23.391,23.797 23.201,23.930 23.200 C 23.993 23.200,24.000 23.148,24.000 22.665 L 24.000 22.130 23.840 22.105 C 23.543 22.057,23.240 21.671,23.240 21.340 C 23.240 21.020,23.495 20.673,23.795 20.586 L 23.980 20.532 23.991 20.009 L 24.002 19.487 23.885 19.461 C 23.821 19.447,23.688 19.385,23.590 19.322 C 23.192 19.070,23.124 18.479,23.452 18.127 C 23.560 18.011,23.808 17.880,23.918 17.880 C 23.996 17.880,24.000 17.857,24.000 17.345 L 24.000 16.810 23.871 16.784 C 23.541 16.718,23.241 16.345,23.240 15.998 C 23.239 15.665,23.550 15.280,23.871 15.216 L 24.000 15.190 24.000 14.660 L 24.000 14.130 23.850 14.106 C 23.537 14.056,23.243 13.684,23.241 13.338 C 23.240 13.091,23.412 12.779,23.614 12.664 C 23.705 12.612,23.830 12.558,23.890 12.544 L 24.000 12.518 24.000 12.001 L 24.000 11.483 23.831 11.437 C 23.468 11.340,23.201 10.919,23.258 10.536 C 23.305 10.228,23.655 9.880,23.918 9.880 C 23.996 9.880,24.000 9.857,24.000 9.344 L 24.000 8.809 23.865 8.784 C 23.534 8.721,23.240 8.353,23.240 8.000 C 23.240 7.647,23.534 7.279,23.865 7.216 L 24.000 7.191 24.000 6.656 C 24.000 6.143,23.996 6.120,23.918 6.120 C 23.655 6.120,23.305 5.772,23.258 5.464 C 23.201 5.081,23.468 4.660,23.831 4.563 L 24.000 4.517 24.000 4.000 L 24.000 3.483 23.839 3.440 C 23.515 3.352,23.242 2.996,23.242 2.660 C 23.242 2.315,23.532 1.945,23.841 1.895 L 24.000 1.870 24.000 1.339 L 24.000 0.809 23.850 0.782 C 23.536 0.725,23.277 0.466,23.219 0.150 L 23.191 0.000 22.661 0.000 L 22.130 -0.000 22.106 0.150 C 22.075 0.343,21.870 0.590,21.663 0.684 C 21.218 0.886,20.690 0.629,20.556 0.145 L 20.516 0.000 20.000 0.000 L 19.483 0.000 19.437 0.169 C 19.340 0.532,18.919 0.799,18.536 0.742 C 18.228 0.695,17.880 0.345,17.880 0.082 C 17.880 0.004,17.857 0.000,17.344 0.000 L 16.809 0.000 16.784 0.135 C 16.746 0.335,16.551 0.578,16.351 0.675 C 15.900 0.893,15.358 0.651,15.230 0.175 L 15.183 0.000 14.652 0.000 C 14.143 0.000,14.120 0.004,14.120 0.082 C 14.120 0.192,13.989 0.440,13.873 0.548 C 13.521 0.876,12.930 0.808,12.678 0.410 C 12.615 0.312,12.553 0.179,12.539 0.115 L 12.513 -0.002 11.991 0.009 L 11.468 0.020 11.414 0.205 C 11.313 0.554,10.915 0.798,10.542 0.742 C 10.237 0.697,9.966 0.455,9.891 0.160 L 9.855 0.020 9.333 0.009 L 8.810 -0.002 8.765 0.175 C 8.570 0.952,7.438 0.951,7.230 0.175 L 7.183 -0.000 6.652 -0.000 C 6.143 -0.000,6.120 0.004,6.120 0.082 C 6.120 0.126,6.086 0.230,6.044 0.312 C 5.714 0.955,4.816 0.887,4.572 0.199 L 4.501 0.000 3.992 0.000 L 3.483 -0.000 3.442 0.150 C 3.334 0.551,3.011 0.782,2.602 0.752 C 2.441 0.741,2.324 0.705,2.227 0.639 C 2.051 0.519,1.880 0.259,1.880 0.112 L 1.880 0.000 1.348 -0.000 L 0.815 -0.000 0.763 0.205 M17.040 3.583 C 17.040 3.618,16.896 4.320,16.720 5.145 C 16.544 5.969,16.400 6.652,16.400 6.662 C 16.400 6.672,14.756 6.680,12.747 6.680 L 9.094 6.680 8.803 8.050 C 8.643 8.803,8.503 9.460,8.492 9.510 L 8.471 9.600 14.460 9.600 L 20.449 9.600 20.425 9.690 C 20.412 9.740,20.298 10.210,20.171 10.736 L 19.940 11.691 16.749 14.794 C 14.689 16.797,13.576 17.905,13.609 17.923 C 13.637 17.937,13.903 17.991,14.200 18.042 C 15.396 18.248,16.817 18.111,18.396 17.637 C 18.691 17.549,19.068 17.424,19.234 17.359 C 19.400 17.295,19.540 17.246,19.545 17.251 C 19.549 17.256,19.423 17.872,19.264 18.620 L 18.974 19.980 18.597 20.150 C 17.081 20.834,15.607 20.997,13.735 20.686 C 12.623 20.501,12.134 20.464,11.510 20.517 C 10.912 20.567,10.591 20.633,10.300 20.765 C 10.190 20.815,10.084 20.857,10.065 20.858 C 10.046 20.859,9.773 20.410,9.459 19.860 L 8.887 18.860 12.194 15.572 L 15.500 12.283 11.712 12.282 C 9.452 12.281,7.916 12.295,7.902 12.317 C 7.890 12.337,7.574 13.790,7.200 15.547 C 6.826 17.303,6.501 18.826,6.476 18.930 L 6.432 19.120 4.851 19.120 L 3.271 19.120 3.288 19.030 C 3.298 18.980,4.041 15.470,4.941 11.230 L 6.576 3.520 11.808 3.520 C 16.541 3.520,17.040 3.526,17.040 3.583 " stroke="none" fill="black" fill-rule="evenodd"></path></svg>