<svg role="img" xmlns="http://www.w3.org/2000/svg" viewBox="0 0 24 24"><path d="M3.186 8.282 C 2.842 8.340,2.455 8.476,2.256 8.610 C 1.853 8.881,1.907 8.731,0.926 12.343 C 0.437 14.145,0.027 15.652,0.015 15.691 C -0.005 15.757,0.067 15.761,1.265 15.751 L 2.535 15.740 2.919 14.300 C 3.130 13.508,3.315 12.829,3.330 12.790 C 3.356 12.725,3.472 12.720,4.989 12.720 L 6.620 12.719 6.794 12.079 C 6.890 11.726,6.977 11.402,6.989 11.359 C 7.009 11.281,6.983 11.280,5.385 11.280 C 3.962 11.280,3.760 11.272,3.760 11.220 C 3.760 11.186,3.841 10.867,3.940 10.510 C 4.068 10.045,4.144 9.840,4.204 9.790 C 4.282 9.726,4.424 9.720,5.884 9.720 C 6.762 9.720,7.480 9.707,7.480 9.690 C 7.481 9.674,7.553 9.357,7.640 8.986 C 7.728 8.616,7.800 8.296,7.800 8.276 C 7.800 8.231,3.458 8.236,3.186 8.282 M8.340 8.290 C 8.304 8.388,6.360 15.691,6.360 15.725 C 6.360 15.744,6.923 15.760,7.617 15.760 C 8.780 15.760,8.876 15.755,8.896 15.690 C 8.907 15.652,9.350 13.991,9.880 12.000 C 10.410 10.009,10.853 8.348,10.864 8.310 C 10.884 8.244,10.807 8.240,9.621 8.240 C 8.647 8.240,8.353 8.251,8.340 8.290 M11.141 8.290 C 11.132 8.318,11.045 8.650,10.947 9.030 L 10.770 9.720 11.757 9.720 C 12.778 9.720,12.840 9.730,12.840 9.886 C 12.840 9.937,11.441 15.193,11.295 15.691 C 11.275 15.757,11.347 15.761,12.544 15.751 L 13.814 15.740 14.606 12.802 C 15.053 11.143,15.425 9.838,15.460 9.802 C 15.513 9.750,15.691 9.737,16.551 9.720 L 17.579 9.700 17.728 9.020 C 17.810 8.646,17.878 8.318,17.879 8.290 C 17.880 8.250,17.182 8.240,14.519 8.240 C 11.865 8.240,11.154 8.251,11.141 8.290 M19.353 8.281 C 19.083 8.327,18.726 8.435,18.547 8.527 C 18.325 8.640,18.064 8.893,17.987 9.069 C 17.867 9.347,16.440 14.773,16.440 14.954 C 16.440 15.276,16.624 15.468,17.106 15.650 C 17.336 15.736,17.382 15.738,19.667 15.751 C 21.880 15.763,21.994 15.761,22.014 15.692 C 22.026 15.652,22.111 15.341,22.203 15.000 C 22.295 14.659,22.379 14.357,22.389 14.330 C 22.405 14.291,22.077 14.280,20.832 14.280 C 19.194 14.280,19.160 14.277,19.160 14.113 C 19.160 14.047,19.393 13.142,19.485 12.850 L 19.526 12.720 21.160 12.720 L 22.794 12.720 22.855 12.510 C 22.888 12.395,22.972 12.085,23.042 11.822 C 23.112 11.559,23.178 11.320,23.189 11.292 C 23.205 11.250,22.892 11.240,21.562 11.240 C 20.012 11.240,19.916 11.236,19.936 11.170 C 19.948 11.132,20.030 10.821,20.118 10.480 C 20.236 10.025,20.301 9.841,20.364 9.790 C 20.442 9.726,20.584 9.720,22.039 9.720 L 23.630 9.720 23.797 9.050 C 23.888 8.681,23.973 8.348,23.984 8.310 C 24.004 8.244,23.882 8.240,21.773 8.245 C 20.545 8.247,19.456 8.264,19.353 8.281 " stroke="none" fill="black" fill-rule="evenodd"></path></svg>