<svg role="img" viewBox="0 0 24 24" xmlns="http://www.w3.org/2000/svg"><path d="M2.693 1.678 C 2.468 1.780,2.384 1.914,2.409 2.136 C 2.428 2.303,2.642 2.680,2.718 2.680 C 2.736 2.680,2.807 2.732,2.876 2.796 C 3.108 3.013,3.034 3.197,2.580 3.539 C 2.420 3.659,2.242 3.813,2.185 3.882 C 2.095 3.989,2.087 4.017,2.130 4.088 C 2.158 4.133,2.202 4.208,2.229 4.255 C 2.298 4.372,2.292 4.700,2.220 4.840 C 2.138 4.998,1.937 5.143,1.720 5.199 C 1.621 5.225,1.477 5.263,1.400 5.284 C 1.042 5.380,0.834 5.794,1.040 6.000 C 1.150 6.110,1.284 6.100,1.552 5.963 C 1.768 5.851,2.080 5.764,2.080 5.815 C 2.080 5.857,1.864 5.951,1.424 6.098 C 0.750 6.323,0.355 6.634,0.124 7.120 C 0.039 7.300,0.020 7.398,0.020 7.660 C 0.020 7.956,0.034 8.010,0.206 8.380 C 0.458 8.924,0.599 9.382,0.925 10.720 C 1.236 11.999,1.341 12.363,1.561 12.940 C 2.283 14.835,3.212 16.472,4.509 18.140 C 5.148 18.962,5.565 19.380,6.427 20.068 C 7.127 20.627,7.318 20.760,7.990 21.156 C 8.719 21.586,9.322 21.858,10.175 22.141 C 11.571 22.604,12.532 22.762,15.059 22.945 C 15.896 23.006,16.130 23.009,16.899 22.967 C 17.384 22.940,18.050 22.882,18.380 22.837 C 18.710 22.792,19.178 22.740,19.420 22.722 C 19.781 22.693,19.973 22.651,20.490 22.484 C 21.177 22.262,21.500 22.227,21.820 22.340 C 21.971 22.394,21.988 22.392,22.123 22.303 C 22.329 22.166,22.567 22.094,23.115 22.002 C 23.714 21.902,23.941 21.804,23.975 21.633 C 24.023 21.394,24.002 21.247,23.903 21.132 L 23.807 21.020 23.053 21.015 C 22.298 21.011,22.140 20.986,21.993 20.853 C 21.931 20.798,21.910 20.804,21.761 20.924 C 21.536 21.104,21.243 21.127,20.832 20.995 C 20.578 20.913,20.474 20.903,20.025 20.912 C 19.513 20.922,19.400 20.898,19.400 20.780 C 19.400 20.753,19.524 20.577,19.674 20.390 C 19.910 20.098,20.040 19.873,20.040 19.759 C 20.040 19.742,19.979 19.700,19.904 19.665 C 19.559 19.501,19.275 19.640,18.598 20.305 L 18.083 20.811 17.831 20.763 C 17.377 20.676,16.468 20.432,16.009 20.274 C 14.703 19.825,13.310 19.005,12.347 18.119 C 11.881 17.690,10.690 16.257,10.269 15.620 C 9.461 14.396,8.966 12.711,8.741 10.420 C 8.689 9.895,8.520 7.404,8.520 7.166 C 8.520 6.889,8.598 6.674,8.734 6.579 C 8.883 6.474,9.173 6.509,9.764 6.703 C 10.340 6.891,10.666 6.933,10.837 6.841 C 10.949 6.782,10.942 6.727,10.797 6.508 C 10.658 6.298,10.274 6.024,9.900 5.868 C 9.487 5.696,8.705 5.406,8.580 5.379 C 8.345 5.328,8.163 5.241,7.804 5.005 C 7.563 4.846,7.366 4.749,7.220 4.717 C 7.078 4.685,7.000 4.647,7.000 4.610 C 7.000 4.578,6.971 4.492,6.936 4.418 C 6.849 4.234,6.639 4.143,6.068 4.042 C 5.595 3.958,5.301 3.853,5.187 3.727 C 5.136 3.671,5.133 3.631,5.172 3.488 C 5.209 3.347,5.207 3.296,5.159 3.211 C 5.077 3.064,4.925 3.033,4.438 3.062 C 4.107 3.082,3.985 3.075,3.871 3.027 C 3.626 2.925,3.601 2.803,3.724 2.297 C 3.768 2.116,3.765 2.076,3.697 1.937 C 3.548 1.632,3.066 1.508,2.693 1.678 M3.370 1.841 C 3.431 1.907,3.480 2.006,3.480 2.061 C 3.480 2.159,3.478 2.160,3.100 2.160 C 2.743 2.160,2.720 2.165,2.720 2.243 C 2.720 2.288,2.739 2.365,2.762 2.413 C 2.802 2.495,2.800 2.494,2.722 2.406 C 2.602 2.268,2.613 2.039,2.747 1.879 C 2.944 1.645,3.179 1.631,3.370 1.841 M3.420 3.320 C 3.406 3.342,3.377 3.360,3.355 3.360 C 3.333 3.360,3.326 3.342,3.340 3.320 C 3.354 3.298,3.383 3.280,3.405 3.280 C 3.427 3.280,3.434 3.298,3.420 3.320 M4.419 3.358 C 4.455 3.416,4.294 3.485,4.116 3.487 C 3.923 3.490,3.896 3.470,3.981 3.385 C 4.052 3.314,4.379 3.294,4.419 3.358 M4.880 4.169 C 4.957 4.203,5.064 4.277,5.117 4.335 L 5.215 4.441 5.088 4.416 L 4.962 4.390 4.971 4.605 L 4.980 4.820 4.839 4.832 C 4.587 4.853,4.195 4.488,4.137 4.179 C 4.091 3.930,4.118 3.916,4.447 4.018 C 4.608 4.068,4.803 4.136,4.880 4.169 M4.119 4.545 C 4.187 4.603,4.233 4.660,4.221 4.672 C 4.209 4.684,4.006 4.690,3.770 4.686 C 3.447 4.679,3.311 4.693,3.225 4.739 C 3.098 4.807,2.960 4.820,2.960 4.763 C 2.960 4.743,3.127 4.672,3.330 4.606 C 3.932 4.409,3.955 4.408,4.119 4.545 M5.946 4.820 C 5.958 4.853,5.942 4.922,5.909 4.972 C 5.852 5.058,5.857 5.076,5.983 5.242 C 6.195 5.521,6.144 5.574,5.888 5.342 L 5.735 5.205 5.735 5.398 C 5.735 5.645,5.639 5.800,5.487 5.800 C 5.358 5.800,5.255 5.714,5.084 5.465 C 4.892 5.187,4.741 5.174,4.767 5.438 L 4.781 5.587 4.565 5.488 C 4.366 5.397,4.317 5.391,3.925 5.411 C 3.612 5.427,3.391 5.466,3.085 5.558 C 2.667 5.685,2.446 5.708,2.630 5.607 C 2.724 5.555,4.162 5.160,4.257 5.160 C 4.287 5.160,4.588 5.081,4.926 4.984 C 5.807 4.730,5.905 4.715,5.946 4.820 M8.670 5.546 C 8.871 5.570,8.882 5.577,8.926 5.724 C 8.967 5.860,8.960 5.899,8.861 6.101 C 8.730 6.369,8.483 6.568,8.160 6.666 C 8.039 6.702,7.804 6.773,7.639 6.822 C 7.054 6.999,5.854 7.198,5.374 7.199 C 5.054 7.200,4.709 7.310,4.194 7.574 C 3.714 7.820,3.325 7.979,3.114 8.016 C 2.970 8.042,2.968 8.041,2.974 7.911 C 2.981 7.764,3.014 7.770,2.510 7.823 L 2.240 7.851 2.240 7.985 C 2.240 8.154,2.104 8.257,1.934 8.216 C 1.585 8.132,1.267 7.842,1.288 7.626 C 1.298 7.524,1.330 7.485,1.460 7.422 L 1.620 7.343 1.449 7.309 C 1.228 7.265,1.016 7.363,0.901 7.560 C 0.834 7.676,0.820 7.771,0.820 8.110 C 0.820 8.346,0.804 8.515,0.783 8.508 C 0.762 8.501,0.686 8.388,0.613 8.258 C 0.507 8.066,0.481 7.975,0.480 7.790 C 0.480 7.582,0.494 7.545,0.624 7.401 C 0.790 7.217,1.087 7.066,1.447 6.981 C 1.852 6.885,1.875 6.891,1.873 7.088 C 1.870 7.308,2.019 7.446,2.381 7.557 C 2.623 7.632,2.656 7.634,2.763 7.579 C 2.827 7.545,2.880 7.501,2.880 7.479 C 2.880 7.458,2.808 7.396,2.720 7.340 C 2.535 7.223,2.521 7.173,2.660 7.120 C 2.715 7.099,2.760 7.073,2.760 7.062 C 2.760 7.051,2.691 7.007,2.607 6.964 C 2.523 6.921,2.432 6.858,2.403 6.824 C 2.334 6.740,2.413 6.710,3.049 6.581 C 3.329 6.524,4.021 6.342,4.586 6.176 C 5.151 6.009,5.827 5.830,6.087 5.777 C 7.053 5.581,8.146 5.483,8.670 5.546 M6.879 5.762 C 6.855 5.807,6.841 5.910,6.848 5.992 C 6.859 6.131,6.870 6.142,7.032 6.176 C 7.327 6.238,7.406 6.051,7.198 5.786 C 7.097 5.658,6.941 5.646,6.879 5.762 M7.711 5.822 C 7.585 5.891,7.462 6.099,7.506 6.170 C 7.525 6.200,7.552 6.176,7.583 6.101 C 7.617 6.016,7.673 5.972,7.785 5.941 C 7.874 5.916,7.940 5.873,7.940 5.839 C 7.940 5.758,7.840 5.751,7.711 5.822 M4.994 6.256 C 4.892 6.283,4.757 6.340,4.694 6.381 C 4.598 6.445,4.591 6.460,4.652 6.472 C 4.692 6.480,4.800 6.457,4.892 6.420 C 5.079 6.345,5.307 6.331,5.367 6.391 C 5.410 6.434,5.673 6.388,5.811 6.314 C 5.875 6.280,5.880 6.265,5.835 6.236 C 5.754 6.185,5.210 6.197,4.994 6.256 M10.387 6.283 C 10.561 6.348,10.680 6.481,10.680 6.607 C 10.680 6.746,10.623 6.752,10.537 6.622 C 10.502 6.567,10.440 6.513,10.400 6.500 C 10.285 6.464,10.117 6.318,10.142 6.277 C 10.172 6.228,10.249 6.230,10.387 6.283 M4.467 6.547 C 4.428 6.585,4.434 6.640,4.476 6.640 C 4.495 6.640,4.522 6.613,4.534 6.580 C 4.558 6.519,4.515 6.498,4.467 6.547 M3.854 6.741 C 3.810 6.855,3.959 6.965,4.138 6.952 C 4.338 6.937,4.369 6.846,4.205 6.749 C 4.060 6.663,3.885 6.660,3.854 6.741 M3.436 6.785 C 3.390 6.841,3.393 6.847,3.458 6.835 C 3.499 6.827,3.541 6.798,3.550 6.770 C 3.574 6.699,3.500 6.708,3.436 6.785 M3.489 6.987 C 3.461 6.998,3.411 7.060,3.378 7.124 C 3.320 7.236,3.321 7.240,3.410 7.240 C 3.460 7.240,3.573 7.279,3.661 7.327 C 4.007 7.514,4.017 7.519,4.058 7.478 C 4.118 7.418,3.966 7.167,3.802 7.056 C 3.664 6.962,3.591 6.946,3.489 6.987 M8.256 7.213 C 8.333 7.317,8.340 7.376,8.337 7.933 C 8.335 8.353,8.315 8.605,8.273 8.750 C 8.216 8.946,8.216 8.960,8.281 8.960 C 8.441 8.960,8.501 9.499,8.429 10.273 C 8.409 10.488,8.411 10.598,8.437 10.582 C 8.558 10.507,8.602 11.008,8.503 11.337 C 8.454 11.501,8.454 11.523,8.503 11.504 C 8.663 11.443,8.735 11.636,8.635 11.855 C 8.596 11.940,8.579 11.947,8.514 11.907 C 8.413 11.845,8.378 11.902,8.321 12.233 C 8.272 12.512,8.292 12.599,8.362 12.416 C 8.423 12.255,8.593 12.040,8.659 12.040 C 8.689 12.040,8.725 12.098,8.739 12.170 C 8.834 12.656,8.906 12.962,9.029 13.400 C 9.107 13.675,9.205 14.034,9.248 14.198 C 9.291 14.362,9.364 14.549,9.410 14.614 C 9.492 14.729,9.492 14.732,9.417 14.786 C 9.246 14.906,9.160 15.013,9.160 15.104 C 9.160 15.179,9.181 15.200,9.259 15.200 C 9.448 15.200,9.730 15.522,9.803 15.820 L 9.832 15.940 9.837 15.820 C 9.839 15.754,9.859 15.673,9.881 15.640 C 9.915 15.590,9.936 15.600,10.009 15.700 C 10.057 15.766,10.171 15.892,10.263 15.980 C 10.355 16.068,10.552 16.338,10.701 16.580 C 10.993 17.056,11.247 17.402,11.421 17.560 C 11.635 17.755,11.847 18.051,11.796 18.083 C 11.653 18.171,12.165 18.784,12.651 19.108 C 12.983 19.328,13.497 19.557,13.967 19.693 C 14.284 19.785,14.320 19.807,14.558 20.055 C 15.007 20.522,15.418 20.709,15.911 20.669 C 16.096 20.654,16.155 20.661,16.124 20.692 C 15.994 20.822,16.178 20.934,16.760 21.079 C 17.235 21.197,17.480 21.280,17.480 21.323 C 17.480 21.343,17.413 21.387,17.330 21.422 C 17.053 21.537,16.888 21.534,16.440 21.403 C 16.209 21.336,15.982 21.280,15.936 21.280 C 15.889 21.280,15.597 21.171,15.287 21.037 C 14.334 20.628,13.928 20.592,13.444 20.878 C 13.326 20.947,13.213 20.998,13.191 20.990 C 13.170 20.983,13.217 20.900,13.296 20.805 C 13.375 20.710,13.440 20.623,13.440 20.612 C 13.440 20.572,13.234 20.726,13.077 20.883 C 12.839 21.121,12.726 21.104,12.520 20.800 C 12.343 20.539,12.224 20.478,12.032 20.551 C 11.936 20.587,11.891 20.578,11.740 20.494 C 11.510 20.365,11.487 20.323,11.598 20.234 C 11.686 20.162,11.686 20.160,11.607 20.160 C 11.475 20.160,11.468 20.091,11.583 19.939 C 11.643 19.861,11.682 19.789,11.671 19.778 C 11.660 19.767,11.455 19.741,11.216 19.719 C 10.757 19.679,10.395 19.601,10.198 19.499 C 10.055 19.425,9.862 19.146,9.894 19.061 C 9.924 18.984,9.977 18.985,10.329 19.065 L 10.614 19.130 10.487 19.183 C 10.333 19.247,10.328 19.289,10.462 19.394 C 10.635 19.531,11.122 19.603,11.331 19.523 C 11.425 19.488,11.414 19.472,11.024 19.058 C 10.408 18.406,10.097 18.212,8.580 17.538 C 7.734 17.163,7.360 16.960,7.360 16.877 C 7.360 16.791,7.821 16.965,8.239 17.209 C 8.510 17.367,8.774 17.410,8.872 17.312 C 9.085 17.099,8.584 16.363,8.222 16.358 C 8.062 16.356,7.916 16.271,7.570 15.980 L 7.286 15.740 7.502 15.715 C 7.879 15.672,8.016 15.511,7.920 15.221 C 7.876 15.087,7.251 14.376,7.211 14.415 C 7.202 14.425,7.258 14.579,7.337 14.758 C 7.497 15.122,7.517 15.253,7.412 15.233 C 7.370 15.225,7.304 15.119,7.242 14.960 C 7.095 14.584,7.060 14.537,6.868 14.444 C 6.623 14.325,6.560 14.333,6.560 14.483 C 6.560 14.550,6.540 14.643,6.515 14.690 C 6.471 14.772,6.468 14.772,6.415 14.700 C 6.385 14.658,6.360 14.591,6.360 14.549 C 6.360 14.483,6.340 14.476,6.202 14.500 C 6.115 14.514,6.008 14.515,5.964 14.501 C 5.849 14.465,5.714 14.162,5.744 14.009 C 5.782 13.820,5.636 13.560,5.368 13.337 C 5.135 13.143,4.961 12.962,4.960 12.912 C 4.960 12.897,5.037 12.919,5.130 12.961 C 5.359 13.065,5.623 13.066,5.679 12.963 C 5.734 12.860,5.681 12.728,5.468 12.433 C 5.238 12.115,5.180 12.107,4.919 12.357 C 4.803 12.469,4.675 12.560,4.636 12.560 C 4.533 12.560,4.505 12.357,4.557 11.984 C 4.581 11.814,4.600 11.667,4.600 11.658 C 4.600 11.650,4.535 11.681,4.455 11.728 L 4.311 11.813 4.338 12.162 L 4.365 12.511 4.183 12.490 C 4.041 12.474,4.000 12.482,4.000 12.527 C 4.000 12.604,4.217 12.810,4.256 12.771 C 4.273 12.754,4.281 12.763,4.273 12.792 C 4.266 12.820,4.395 12.969,4.560 13.122 C 4.778 13.324,4.830 13.390,4.750 13.361 C 4.656 13.328,4.622 13.339,4.505 13.441 C 4.430 13.506,4.342 13.560,4.308 13.560 C 4.238 13.560,4.080 13.377,4.080 13.296 C 4.080 13.176,3.904 12.784,3.792 12.657 C 3.726 12.582,3.603 12.500,3.518 12.475 L 3.364 12.428 3.462 12.351 C 3.654 12.200,3.586 12.079,3.087 11.691 L 2.994 11.618 3.249 11.347 C 3.477 11.106,3.514 11.080,3.602 11.112 C 3.656 11.132,3.760 11.226,3.833 11.321 L 3.965 11.493 3.848 11.542 C 3.707 11.601,3.667 11.729,3.724 11.935 C 3.778 12.130,3.965 12.342,4.054 12.308 C 4.110 12.286,4.120 12.215,4.120 11.844 C 4.120 11.603,4.104 11.363,4.084 11.312 C 3.989 11.060,3.514 10.775,3.355 10.874 C 3.305 10.905,3.254 10.909,3.209 10.885 C 2.924 10.732,2.837 10.240,3.104 10.290 C 3.188 10.307,3.200 10.294,3.200 10.191 C 3.200 10.116,3.240 10.034,3.311 9.963 C 3.404 9.870,3.469 9.847,3.715 9.823 C 3.954 9.800,4.013 9.780,4.028 9.720 C 4.039 9.679,4.073 9.636,4.104 9.624 C 4.198 9.588,4.168 9.441,4.000 9.115 C 3.826 8.778,3.806 8.664,3.903 8.557 C 3.953 8.501,4.010 8.492,4.197 8.509 C 4.483 8.535,4.789 8.442,4.984 8.271 C 5.135 8.139,5.147 8.096,5.063 8.003 C 5.011 7.946,5.031 7.941,5.266 7.954 C 5.629 7.972,5.705 7.946,5.766 7.780 C 5.800 7.684,5.836 7.646,5.878 7.659 C 5.979 7.690,6.618 7.839,6.650 7.840 C 6.733 7.840,6.660 7.748,6.496 7.646 L 6.313 7.532 6.474 7.467 C 6.661 7.392,7.379 7.240,7.546 7.240 C 7.609 7.240,7.714 7.203,7.780 7.159 C 7.949 7.045,8.148 7.068,8.256 7.213 M7.820 8.135 C 7.655 8.386,7.586 8.985,7.702 9.151 C 7.815 9.313,7.913 9.265,8.045 8.982 C 8.166 8.723,8.263 8.168,8.157 8.336 C 8.131 8.377,8.087 8.496,8.060 8.600 C 8.033 8.704,7.989 8.823,7.963 8.864 C 7.925 8.925,7.921 8.884,7.942 8.660 C 7.985 8.199,7.983 8.068,7.933 8.051 C 7.906 8.042,7.856 8.080,7.820 8.135 M4.200 8.113 C 4.200 8.165,4.152 8.200,4.114 8.176 C 4.072 8.151,4.108 8.080,4.162 8.080 C 4.183 8.080,4.200 8.095,4.200 8.113 M1.381 8.359 C 1.326 8.420,1.293 8.428,1.234 8.397 C 1.129 8.341,1.179 8.280,1.329 8.280 C 1.449 8.280,1.451 8.282,1.381 8.359 M3.630 8.865 C 3.746 8.938,3.744 9.004,3.622 9.118 C 3.489 9.243,3.188 9.277,3.080 9.180 C 2.967 9.077,3.018 9.038,3.228 9.067 C 3.477 9.101,3.428 9.035,3.120 8.920 C 2.987 8.870,2.868 8.812,2.854 8.791 C 2.817 8.731,3.525 8.799,3.630 8.865 M4.939 9.169 C 4.972 9.251,5.000 9.386,5.000 9.470 C 5.000 9.612,5.016 9.633,5.230 9.771 C 5.540 9.971,5.660 9.972,5.473 9.772 C 5.388 9.682,5.388 9.678,5.460 9.625 C 5.530 9.574,5.523 9.563,5.357 9.462 C 5.260 9.403,5.112 9.279,5.029 9.187 L 4.878 9.020 4.939 9.169 M2.503 9.124 C 2.518 9.148,2.484 9.214,2.428 9.271 C 2.329 9.369,2.322 9.370,2.223 9.305 C 2.123 9.240,2.093 9.161,2.147 9.107 C 2.191 9.063,2.473 9.077,2.503 9.124 M5.481 9.139 C 5.440 9.188,5.440 9.212,5.480 9.260 C 5.563 9.360,5.647 9.334,5.633 9.213 C 5.618 9.086,5.552 9.054,5.481 9.139 M2.862 9.403 C 2.877 9.427,2.873 9.462,2.855 9.479 C 2.807 9.523,2.629 9.451,2.660 9.400 C 2.693 9.347,2.828 9.349,2.862 9.403 M3.664 9.469 C 3.624 9.510,3.590 9.449,3.623 9.395 C 3.649 9.354,3.658 9.354,3.671 9.394 C 3.681 9.422,3.677 9.456,3.664 9.469 M1.200 9.528 C 1.200 9.593,1.188 9.604,1.155 9.571 C 1.131 9.547,1.123 9.507,1.138 9.483 C 1.179 9.417,1.200 9.431,1.200 9.528 M2.560 9.600 C 2.560 9.653,2.533 9.680,2.480 9.680 C 2.389 9.680,2.377 9.639,2.448 9.568 C 2.519 9.497,2.560 9.509,2.560 9.600 M7.361 9.620 C 7.361 9.642,7.379 9.687,7.400 9.720 C 7.421 9.753,7.439 9.762,7.439 9.740 C 7.439 9.718,7.421 9.673,7.400 9.640 C 7.379 9.607,7.361 9.598,7.361 9.620 M4.760 9.936 C 4.815 9.970,4.887 9.998,4.920 9.999 C 4.953 10.000,5.034 10.029,5.100 10.065 C 5.206 10.121,5.625 10.280,5.669 10.280 C 5.677 10.280,5.672 10.260,5.657 10.235 C 5.607 10.154,5.048 9.919,4.851 9.897 C 4.666 9.876,4.663 9.877,4.760 9.936 M7.482 9.931 C 7.478 9.992,7.601 10.252,7.623 10.230 C 7.636 10.218,7.609 10.138,7.565 10.054 C 7.520 9.969,7.483 9.914,7.482 9.931 M4.470 9.983 C 4.435 10.018,4.477 10.120,4.587 10.269 C 4.651 10.355,4.745 10.417,4.871 10.455 C 4.975 10.487,5.127 10.541,5.209 10.576 C 5.291 10.611,5.399 10.639,5.449 10.638 C 5.530 10.637,5.520 10.619,5.361 10.475 C 5.076 10.218,4.534 9.919,4.470 9.983 M2.437 10.131 C 2.557 10.192,2.584 10.262,2.499 10.295 C 2.434 10.320,2.146 10.194,2.100 10.121 C 2.065 10.063,2.319 10.070,2.437 10.131 M4.080 10.271 C 4.080 10.288,4.184 10.404,4.310 10.528 C 4.473 10.688,4.582 10.762,4.685 10.781 C 4.765 10.795,4.841 10.790,4.854 10.770 C 4.887 10.717,4.701 10.550,4.422 10.383 C 4.191 10.244,4.080 10.208,4.080 10.271 M1.554 10.542 C 1.649 10.752,1.587 10.827,1.440 10.680 C 1.359 10.599,1.338 10.515,1.387 10.467 C 1.441 10.412,1.508 10.443,1.554 10.542 M2.438 10.568 C 2.515 10.706,2.490 10.727,2.309 10.677 C 2.146 10.632,2.102 10.586,2.136 10.495 C 2.174 10.397,2.368 10.443,2.438 10.568 M4.099 10.669 C 4.264 10.913,4.219 10.947,3.958 10.774 C 3.870 10.716,3.787 10.680,3.773 10.693 C 3.760 10.707,3.871 10.855,4.020 11.021 C 4.243 11.271,4.309 11.322,4.395 11.312 C 4.464 11.304,4.518 11.261,4.554 11.186 C 4.638 11.009,4.546 10.809,4.329 10.700 C 4.235 10.653,4.137 10.593,4.111 10.567 C 4.010 10.466,4.002 10.528,4.099 10.669 M2.300 10.880 C 2.384 10.973,2.376 10.975,2.206 10.916 C 2.137 10.892,2.080 10.856,2.080 10.836 C 2.080 10.770,2.227 10.799,2.300 10.880 M4.961 11.012 C 4.959 11.073,5.082 11.280,5.121 11.280 C 5.142 11.280,5.160 11.263,5.160 11.242 C 5.160 11.196,4.963 10.967,4.961 11.012 M4.720 11.120 C 4.720 11.142,4.737 11.160,4.758 11.160 C 4.778 11.160,4.806 11.142,4.820 11.120 C 4.834 11.098,4.817 11.080,4.782 11.080 C 4.748 11.080,4.720 11.098,4.720 11.120 M6.763 11.200 C 6.765 11.255,6.781 11.336,6.800 11.380 C 6.830 11.449,6.835 11.443,6.837 11.340 C 6.838 11.274,6.821 11.193,6.800 11.160 C 6.769 11.113,6.762 11.121,6.763 11.200 M7.279 11.303 C 7.250 11.392,7.237 11.582,7.248 11.786 C 7.262 12.055,7.283 12.144,7.353 12.231 C 7.402 12.291,7.471 12.398,7.508 12.470 C 7.594 12.638,7.670 12.635,7.742 12.461 C 7.817 12.282,7.815 12.183,7.737 12.117 C 7.687 12.076,7.679 12.019,7.700 11.840 C 7.727 11.609,7.678 11.501,7.559 11.529 C 7.530 11.535,7.491 11.466,7.465 11.363 C 7.408 11.137,7.341 11.116,7.279 11.303 M8.084 11.342 L 8.088 11.540 8.125 11.383 C 8.149 11.280,8.148 11.212,8.121 11.185 C 8.093 11.157,8.081 11.207,8.084 11.342 M8.310 11.187 C 8.293 11.212,8.271 11.347,8.260 11.487 L 8.241 11.740 8.302 11.560 C 8.362 11.380,8.368 11.096,8.310 11.187 M2.028 11.807 C 2.103 11.980,2.173 12.215,2.185 12.331 L 2.206 12.540 2.083 12.409 C 1.936 12.254,1.923 12.275,2.055 12.453 C 2.189 12.631,2.252 12.767,2.397 13.180 C 2.467 13.378,2.579 13.648,2.646 13.780 L 2.769 14.020 2.585 13.842 C 2.389 13.653,2.180 13.283,1.944 12.709 C 1.864 12.516,1.726 12.214,1.637 12.039 C 1.548 11.864,1.466 11.653,1.455 11.571 L 1.435 11.420 1.556 11.557 C 1.623 11.632,1.727 11.789,1.788 11.905 C 1.848 12.020,1.903 12.110,1.910 12.103 C 1.916 12.097,1.867 11.932,1.801 11.736 C 1.734 11.541,1.680 11.336,1.680 11.281 C 1.680 11.189,1.688 11.193,1.786 11.337 C 1.844 11.423,1.953 11.634,2.028 11.807 M5.441 11.488 C 5.439 11.795,5.761 12.592,5.928 12.695 C 5.981 12.728,6.018 12.717,6.092 12.648 L 6.187 12.558 6.293 12.642 L 6.399 12.725 6.373 12.597 C 6.354 12.502,6.365 12.461,6.414 12.433 C 6.515 12.377,6.494 12.286,6.334 12.084 C 6.145 11.847,5.752 11.440,5.711 11.440 C 5.656 11.440,5.678 11.545,5.777 11.765 C 5.831 11.883,5.886 12.034,5.900 12.100 C 5.925 12.217,5.924 12.218,5.858 12.140 C 5.821 12.096,5.712 11.898,5.616 11.700 C 5.453 11.362,5.442 11.349,5.441 11.488 M4.780 11.719 C 4.761 11.779,4.773 11.830,4.816 11.873 C 4.875 11.932,4.880 11.929,4.879 11.839 C 4.879 11.784,4.863 11.715,4.844 11.685 C 4.816 11.642,4.802 11.649,4.780 11.719 M5.258 11.924 C 5.222 11.982,5.319 12.160,5.387 12.160 C 5.443 12.160,5.457 12.051,5.416 11.943 C 5.388 11.870,5.297 11.859,5.258 11.924 M3.220 12.200 C 3.206 12.222,3.169 12.240,3.138 12.240 C 3.106 12.240,3.080 12.222,3.080 12.200 C 3.080 12.178,3.117 12.160,3.162 12.160 C 3.208 12.160,3.234 12.178,3.220 12.200 M8.483 12.463 C 8.485 12.510,8.495 12.519,8.507 12.488 C 8.519 12.459,8.517 12.424,8.504 12.411 C 8.491 12.398,8.481 12.421,8.483 12.463 M3.520 12.740 C 3.468 12.803,3.370 12.817,3.263 12.776 C 3.140 12.729,3.202 12.680,3.385 12.680 C 3.545 12.680,3.563 12.688,3.520 12.740 M4.656 12.783 C 4.690 12.872,4.687 12.880,4.622 12.880 C 4.552 12.880,4.507 12.814,4.540 12.760 C 4.576 12.701,4.628 12.711,4.656 12.783 M5.380 12.800 C 5.394 12.822,5.387 12.840,5.365 12.840 C 5.343 12.840,5.314 12.822,5.300 12.800 C 5.286 12.778,5.293 12.760,5.315 12.760 C 5.337 12.760,5.366 12.778,5.380 12.800 M8.628 13.000 C 8.617 13.044,8.624 13.090,8.644 13.102 C 8.664 13.115,8.680 13.079,8.680 13.022 C 8.680 12.900,8.657 12.890,8.628 13.000 M5.275 13.415 C 5.300 13.445,5.357 13.637,5.400 13.841 C 5.483 14.229,5.548 14.369,5.675 14.437 C 5.767 14.487,6.000 14.842,6.000 14.934 C 6.000 14.970,5.976 15.000,5.946 15.000 C 5.917 15.000,5.606 14.860,5.256 14.689 C 4.906 14.518,4.542 14.348,4.447 14.311 C 4.351 14.274,4.284 14.226,4.297 14.205 C 4.310 14.183,4.276 14.099,4.221 14.017 C 4.165 13.936,4.120 13.826,4.120 13.774 C 4.120 13.696,4.140 13.680,4.243 13.680 C 4.311 13.680,4.493 13.735,4.647 13.803 C 5.263 14.073,5.347 14.005,5.101 13.430 C 5.079 13.377,5.091 13.360,5.151 13.360 C 5.194 13.360,5.251 13.385,5.275 13.415 M2.382 13.861 C 2.484 14.025,2.618 14.295,2.680 14.460 C 2.812 14.813,2.967 15.066,3.291 15.453 C 3.593 15.815,3.749 16.042,3.780 16.168 C 3.794 16.223,3.886 16.335,3.984 16.417 C 4.227 16.620,4.338 16.799,4.480 17.220 C 4.623 17.643,4.776 17.829,5.013 17.867 C 5.130 17.886,5.186 17.922,5.241 18.016 C 5.566 18.567,5.679 18.680,5.904 18.680 C 5.989 18.680,6.005 18.691,5.970 18.726 C 5.937 18.759,5.936 18.795,5.965 18.849 C 6.038 18.986,6.478 19.400,6.550 19.400 C 6.757 19.401,7.280 19.832,7.280 20.001 C 7.280 20.106,7.166 20.104,6.838 19.993 C 6.613 19.918,6.536 19.862,6.240 19.563 C 6.053 19.374,5.809 19.152,5.697 19.071 C 5.230 18.731,4.678 18.047,4.218 17.240 C 4.112 17.053,3.787 16.549,3.497 16.120 C 2.870 15.191,2.585 14.705,2.344 14.151 C 2.037 13.443,2.051 13.330,2.382 13.861 M6.241 13.950 C 6.242 14.021,6.310 14.088,6.337 14.044 C 6.352 14.020,6.354 13.982,6.340 13.960 C 6.311 13.913,6.240 13.906,6.241 13.950 M7.120 14.033 C 7.120 14.081,7.196 14.137,7.224 14.110 C 7.234 14.100,7.214 14.069,7.181 14.041 C 7.143 14.009,7.120 14.006,7.120 14.033 M8.920 14.336 C 8.920 14.462,9.036 14.760,9.084 14.760 C 9.137 14.760,9.126 14.475,9.069 14.363 C 8.999 14.225,8.920 14.211,8.920 14.336 M4.230 14.490 C 4.221 14.518,4.189 14.540,4.160 14.540 C 4.131 14.540,4.099 14.518,4.090 14.490 C 4.080 14.460,4.108 14.440,4.160 14.440 C 4.212 14.440,4.240 14.460,4.230 14.490 M4.231 15.142 C 4.280 15.176,4.339 15.241,4.363 15.285 C 4.403 15.360,4.399 15.363,4.313 15.318 C 4.193 15.256,4.080 15.157,4.080 15.114 C 4.080 15.063,4.132 15.073,4.231 15.142 M7.127 15.186 C 7.233 15.283,7.217 15.333,7.090 15.301 C 6.891 15.251,6.802 15.120,6.967 15.120 C 7.015 15.120,7.087 15.150,7.127 15.186 M6.190 15.364 C 6.444 15.435,6.629 15.506,6.615 15.528 C 6.602 15.549,6.511 15.601,6.412 15.643 C 6.209 15.730,6.207 15.780,6.399 15.910 L 6.532 16.000 6.341 16.000 C 6.178 16.000,6.157 16.008,6.199 16.059 C 6.226 16.091,6.327 16.168,6.423 16.229 C 6.551 16.310,6.593 16.359,6.577 16.410 C 6.561 16.458,6.612 16.532,6.741 16.649 C 6.897 16.792,6.924 16.837,6.909 16.936 C 6.895 17.030,6.918 17.076,7.026 17.171 C 7.304 17.415,7.100 17.383,6.672 17.116 C 6.533 17.030,6.240 16.868,6.020 16.757 C 5.628 16.560,5.441 16.426,5.489 16.378 C 5.502 16.365,5.568 16.383,5.636 16.418 C 5.826 16.516,5.960 16.561,5.960 16.527 C 5.960 16.510,5.823 16.389,5.655 16.258 C 5.369 16.034,5.357 16.019,5.461 16.007 L 5.571 15.994 5.377 15.797 C 5.179 15.596,5.178 15.586,5.372 15.599 C 5.474 15.606,5.481 15.598,5.456 15.497 C 5.431 15.398,5.437 15.390,5.524 15.409 C 5.577 15.420,5.656 15.444,5.700 15.461 C 5.774 15.490,5.773 15.485,5.690 15.393 C 5.603 15.298,5.605 15.240,5.697 15.240 C 5.720 15.240,5.942 15.296,6.190 15.364 M9.344 15.544 C 9.317 15.615,9.345 15.680,9.402 15.680 C 9.423 15.680,9.440 15.635,9.440 15.580 C 9.440 15.468,9.382 15.446,9.344 15.544 M4.940 15.688 L 5.060 15.808 4.850 15.703 C 4.734 15.646,4.640 15.580,4.640 15.557 C 4.640 15.485,4.813 15.561,4.940 15.688 M4.270 15.973 C 4.392 16.083,4.384 16.138,4.258 16.055 C 4.148 15.983,4.026 15.804,4.126 15.861 C 4.156 15.878,4.221 15.928,4.270 15.973 M10.041 16.381 C 10.040 16.486,10.148 16.640,10.222 16.640 C 10.311 16.640,10.292 16.574,10.161 16.431 C 10.058 16.317,10.042 16.310,10.041 16.381 M8.040 16.920 C 8.040 16.942,8.013 16.960,7.980 16.960 C 7.947 16.960,7.920 16.942,7.920 16.920 C 7.920 16.898,7.947 16.880,7.980 16.880 C 8.013 16.880,8.040 16.898,8.040 16.920 M4.103 16.972 C 4.118 17.011,4.140 17.033,4.152 17.021 C 4.165 17.009,4.152 16.976,4.125 16.949 C 4.085 16.910,4.081 16.915,4.103 16.972 M10.446 17.000 C 10.446 17.055,10.455 17.078,10.466 17.050 C 10.478 17.023,10.478 16.977,10.466 16.950 C 10.455 16.922,10.446 16.945,10.446 17.000 M8.473 17.198 C 8.482 17.227,8.467 17.242,8.438 17.233 C 8.409 17.223,8.377 17.191,8.367 17.163 C 8.357 17.133,8.373 17.117,8.402 17.128 C 8.431 17.137,8.463 17.169,8.473 17.198 M10.662 17.330 C 10.743 17.599,10.996 17.960,11.103 17.960 C 11.178 17.960,11.177 17.949,11.060 17.708 C 10.901 17.379,10.587 17.081,10.662 17.330 M6.560 17.446 C 6.602 17.473,6.567 17.479,6.445 17.466 C 6.349 17.455,6.250 17.425,6.225 17.398 C 6.190 17.361,6.216 17.357,6.340 17.379 C 6.428 17.394,6.527 17.425,6.560 17.446 M7.833 17.586 C 7.949 17.642,8.035 17.698,8.023 17.711 C 7.973 17.761,7.559 17.624,7.471 17.528 L 7.380 17.429 7.500 17.456 C 7.566 17.471,7.716 17.530,7.833 17.586 M6.320 17.600 C 6.320 17.622,6.312 17.640,6.302 17.640 C 6.293 17.640,6.274 17.622,6.260 17.600 C 6.246 17.578,6.254 17.560,6.278 17.560 C 6.301 17.560,6.320 17.578,6.320 17.600 M7.022 17.619 C 7.099 17.677,7.099 17.677,7.020 17.677 C 6.976 17.677,6.895 17.651,6.840 17.620 L 6.740 17.563 6.842 17.561 C 6.899 17.561,6.980 17.586,7.022 17.619 M7.079 17.881 C 7.515 18.026,7.853 18.157,7.895 18.199 C 7.924 18.228,7.915 18.262,7.867 18.310 C 7.769 18.409,7.080 18.411,6.890 18.313 C 6.819 18.277,6.707 18.235,6.642 18.220 C 6.530 18.196,6.280 17.961,6.280 17.881 C 6.280 17.744,6.668 17.745,7.079 17.881 M8.165 17.962 C 8.280 18.007,8.422 18.078,8.481 18.120 C 8.539 18.162,8.684 18.229,8.801 18.268 C 9.067 18.357,9.110 18.440,8.890 18.440 C 8.645 18.440,8.358 18.323,8.130 18.129 C 7.947 17.974,7.875 17.880,7.939 17.880 C 7.949 17.880,8.051 17.917,8.165 17.962 M9.136 18.020 C 9.240 18.075,9.364 18.121,9.412 18.122 C 9.460 18.123,9.554 18.150,9.620 18.182 C 9.734 18.237,9.724 18.239,9.419 18.227 C 9.172 18.217,9.046 18.189,8.871 18.107 C 8.747 18.048,8.627 18.000,8.605 18.000 C 8.583 18.000,8.554 17.982,8.540 17.960 C 8.525 17.935,8.598 17.920,8.732 17.920 C 8.886 17.920,9.002 17.949,9.136 18.020 M12.353 18.413 C 12.362 18.458,12.339 18.480,12.283 18.480 C 12.237 18.480,12.200 18.456,12.200 18.427 C 12.200 18.304,12.330 18.293,12.353 18.413 M9.098 18.731 C 9.222 18.796,9.243 18.819,9.186 18.832 C 9.054 18.860,8.863 18.802,8.740 18.697 L 8.620 18.595 8.778 18.621 C 8.865 18.635,9.009 18.685,9.098 18.731 M7.160 18.680 C 7.213 18.714,7.213 18.719,7.160 18.717 C 7.127 18.715,7.064 18.699,7.020 18.680 L 6.940 18.646 7.020 18.643 C 7.064 18.642,7.127 18.659,7.160 18.680 M8.160 18.720 C 8.160 18.742,8.143 18.760,8.122 18.760 C 8.102 18.760,8.074 18.742,8.060 18.720 C 8.046 18.698,8.063 18.680,8.098 18.680 C 8.132 18.680,8.160 18.698,8.160 18.720 M12.843 18.864 C 12.889 18.920,12.884 18.926,12.801 18.914 C 12.749 18.906,12.699 18.878,12.690 18.850 C 12.666 18.778,12.781 18.788,12.843 18.864 M9.090 19.306 C 9.504 19.513,9.428 19.575,8.960 19.412 C 8.783 19.350,8.600 19.218,8.600 19.152 C 8.600 19.098,8.798 19.161,9.090 19.306 M9.494 19.220 C 9.508 19.256,9.495 19.280,9.462 19.280 C 9.368 19.280,9.279 19.233,9.303 19.196 C 9.338 19.138,9.469 19.155,9.494 19.220 M8.420 19.320 C 8.469 19.399,8.400 19.436,8.279 19.394 C 8.214 19.371,8.170 19.336,8.182 19.316 C 8.213 19.267,8.389 19.270,8.420 19.320 M19.840 19.800 C 19.840 19.844,19.813 19.880,19.780 19.880 C 19.719 19.880,19.698 19.795,19.747 19.747 C 19.797 19.696,19.840 19.720,19.840 19.800 M14.160 19.880 C 14.160 19.902,14.179 19.920,14.202 19.920 C 14.226 19.920,14.234 19.902,14.220 19.880 C 14.206 19.858,14.187 19.840,14.178 19.840 C 14.168 19.840,14.160 19.858,14.160 19.880 M8.256 19.961 C 8.192 20.026,8.155 20.035,8.077 20.005 L 7.980 19.968 8.080 19.926 C 8.135 19.904,8.216 19.884,8.259 19.883 C 8.337 19.880,8.336 19.881,8.256 19.961 M9.440 19.965 C 9.440 20.006,9.277 20.012,9.176 19.973 C 9.110 19.948,9.111 19.944,9.180 19.920 C 9.272 19.888,9.440 19.917,9.440 19.965 M9.992 20.088 C 10.062 20.158,10.051 20.200,9.962 20.200 C 9.863 20.200,9.680 20.118,9.680 20.074 C 9.680 20.022,9.938 20.034,9.992 20.088 M11.420 20.200 C 11.458 20.261,11.259 20.333,11.137 20.303 C 11.023 20.274,11.043 20.222,11.180 20.189 C 11.319 20.155,11.394 20.159,11.420 20.200 M8.680 20.240 C 8.680 20.262,8.661 20.280,8.638 20.280 C 8.614 20.280,8.606 20.262,8.620 20.240 C 8.634 20.218,8.653 20.200,8.662 20.200 C 8.672 20.200,8.680 20.218,8.680 20.240 M18.857 20.275 C 18.891 20.330,18.778 20.404,18.704 20.376 C 18.653 20.356,18.648 20.338,18.684 20.295 C 18.736 20.233,18.824 20.222,18.857 20.275 M8.080 20.400 C 8.080 20.422,8.063 20.440,8.042 20.440 C 8.022 20.440,7.994 20.422,7.980 20.400 C 7.966 20.378,7.983 20.360,8.018 20.360 C 8.052 20.360,8.080 20.378,8.080 20.400 M15.429 20.504 C 15.416 20.517,15.381 20.519,15.353 20.507 C 15.321 20.495,15.330 20.485,15.377 20.483 C 15.419 20.481,15.442 20.491,15.429 20.504 M11.180 20.560 C 11.244 20.588,11.233 20.594,11.120 20.592 C 11.043 20.591,10.926 20.577,10.860 20.560 C 10.752 20.532,10.757 20.529,10.920 20.528 C 11.019 20.526,11.136 20.541,11.180 20.560 M8.560 20.593 C 8.560 20.645,8.512 20.680,8.474 20.656 C 8.432 20.631,8.468 20.560,8.522 20.560 C 8.543 20.560,8.560 20.575,8.560 20.593 M8.325 20.701 C 8.421 20.735,8.761 20.895,9.080 21.057 C 9.399 21.219,10.164 21.550,10.780 21.794 L 11.900 22.237 12.602 22.338 C 13.500 22.468,14.059 22.501,14.447 22.445 C 14.714 22.407,14.774 22.411,14.907 22.471 C 15.037 22.530,15.192 22.540,15.960 22.540 C 16.698 22.540,16.885 22.551,17.000 22.604 L 17.140 22.667 16.720 22.724 C 16.207 22.792,14.994 22.792,14.360 22.724 C 13.437 22.624,11.446 22.319,11.064 22.220 C 10.178 21.990,8.811 21.409,8.126 20.972 C 7.755 20.736,7.931 20.784,8.493 21.073 C 9.067 21.369,9.658 21.614,9.734 21.589 C 9.759 21.580,9.663 21.521,9.520 21.457 C 8.903 21.182,8.121 20.742,8.120 20.670 C 8.120 20.630,8.123 20.631,8.325 20.701 M9.291 20.744 C 9.335 20.788,9.272 20.880,9.198 20.880 C 9.114 20.880,9.064 20.819,9.100 20.760 C 9.127 20.716,9.252 20.706,9.291 20.744 M14.599 21.037 C 14.679 21.188,14.648 21.378,14.522 21.498 C 14.402 21.613,14.280 21.616,14.280 21.504 C 14.280 21.403,14.212 21.396,14.067 21.481 C 13.811 21.632,13.841 21.382,14.104 21.178 C 14.409 20.940,14.528 20.906,14.599 21.037 M13.908 21.141 C 13.846 21.196,13.774 21.239,13.748 21.239 C 13.721 21.238,13.754 21.193,13.820 21.139 C 13.977 21.010,14.054 21.013,13.908 21.141 M13.464 21.224 C 13.450 21.261,13.429 21.282,13.418 21.271 C 13.407 21.260,13.410 21.221,13.424 21.184 C 13.438 21.147,13.459 21.126,13.470 21.137 C 13.481 21.148,13.478 21.187,13.464 21.224 M19.500 21.223 C 20.272 21.316,20.263 21.314,20.184 21.393 C 20.123 21.453,20.009 21.459,19.108 21.447 C 18.546 21.440,18.083 21.418,18.062 21.397 C 17.994 21.330,18.177 21.197,18.383 21.163 C 18.602 21.127,18.793 21.137,19.500 21.223 M15.240 21.221 C 15.240 21.284,14.909 21.540,14.827 21.540 C 14.759 21.540,14.745 21.406,14.807 21.332 C 14.923 21.192,15.240 21.111,15.240 21.221 M21.920 21.258 C 21.920 21.321,21.847 21.381,21.812 21.346 C 21.779 21.313,21.831 21.200,21.879 21.200 C 21.901 21.200,21.920 21.226,21.920 21.258 M20.760 21.360 C 20.760 21.404,20.733 21.440,20.700 21.440 C 20.639 21.440,20.618 21.355,20.667 21.307 C 20.717 21.256,20.760 21.280,20.760 21.360 M23.457 21.315 C 23.487 21.364,23.328 21.394,22.875 21.425 C 22.483 21.452,22.239 21.424,22.304 21.360 C 22.370 21.295,23.419 21.254,23.457 21.315 M10.378 21.437 C 10.391 21.458,10.382 21.486,10.358 21.501 C 10.301 21.536,10.120 21.489,10.120 21.439 C 10.120 21.389,10.348 21.388,10.378 21.437 M15.720 21.467 C 15.720 21.518,15.547 21.680,15.493 21.680 C 15.409 21.680,15.431 21.571,15.529 21.502 C 15.621 21.438,15.720 21.420,15.720 21.467 M12.770 21.631 C 12.684 21.695,12.650 21.625,12.723 21.537 C 12.763 21.488,12.779 21.487,12.806 21.528 C 12.826 21.561,12.813 21.599,12.770 21.631 M15.133 21.657 C 15.049 21.772,14.866 21.800,14.887 21.695 C 14.902 21.618,15.174 21.461,15.193 21.518 C 15.200 21.540,15.173 21.602,15.133 21.657 M13.160 21.640 C 13.160 21.662,13.142 21.680,13.120 21.680 C 13.098 21.680,13.080 21.662,13.080 21.640 C 13.080 21.618,13.098 21.600,13.120 21.600 C 13.142 21.600,13.160 21.618,13.160 21.640 M11.563 21.780 C 11.902 21.857,12.207 21.920,12.240 21.921 C 12.354 21.923,12.655 22.081,12.617 22.119 C 12.571 22.165,12.107 22.104,11.686 21.997 C 11.377 21.918,10.766 21.649,10.883 21.643 C 10.918 21.641,11.224 21.703,11.563 21.780 M16.219 21.716 C 16.175 21.758,16.095 21.803,16.040 21.818 C 15.943 21.843,15.943 21.841,16.060 21.742 C 16.204 21.620,16.343 21.597,16.219 21.716 M15.880 21.713 C 15.880 21.731,15.835 21.788,15.781 21.839 C 15.689 21.925,15.680 21.927,15.655 21.860 C 15.636 21.813,15.652 21.770,15.701 21.734 C 15.784 21.674,15.880 21.662,15.880 21.713 M16.576 21.764 C 16.382 21.979,16.141 22.064,16.238 21.883 C 16.279 21.808,16.500 21.682,16.596 21.681 C 16.638 21.680,16.633 21.702,16.576 21.764 M15.020 21.960 C 15.034 21.982,15.016 22.000,14.980 22.000 C 14.944 22.000,14.926 21.982,14.940 21.960 C 14.954 21.938,14.972 21.920,14.980 21.920 C 14.988 21.920,15.006 21.938,15.020 21.960 M17.600 22.595 C 17.600 22.665,17.499 22.716,17.439 22.678 C 17.387 22.645,17.387 22.635,17.440 22.601 C 17.515 22.551,17.600 22.549,17.600 22.595 " stroke="none" fill="black" fill-rule="evenodd"></path></svg>