<svg role="img" viewBox="0 0 24 24" xmlns="http://www.w3.org/2000/svg"><path d="M3.826 3.982 C 3.179 4.220,1.926 5.648,1.184 6.996 C 0.450 8.328,0.071 9.742,0.014 11.360 C -0.036 12.804,0.182 14.325,0.623 15.608 C 0.816 16.170,1.331 17.211,1.668 17.720 C 2.324 18.711,3.213 19.682,3.676 19.912 C 3.972 20.059,4.128 20.072,4.308 19.962 C 4.570 19.802,4.646 19.522,4.502 19.244 C 4.464 19.171,4.186 18.855,3.884 18.543 C 3.050 17.680,2.593 17.044,2.143 16.121 C 1.712 15.235,1.418 14.219,1.273 13.120 C 1.195 12.526,1.206 10.917,1.292 10.360 C 1.594 8.408,2.360 6.895,3.814 5.375 C 4.085 5.092,4.364 4.781,4.433 4.684 C 4.644 4.391,4.588 4.098,4.296 3.976 C 4.132 3.907,4.026 3.909,3.826 3.982 M19.740 4.015 C 19.568 4.094,19.440 4.247,19.414 4.408 C 19.378 4.629,19.518 4.840,20.107 5.453 C 21.646 7.055,22.419 8.666,22.702 10.860 C 22.793 11.567,22.793 12.850,22.702 13.532 C 22.570 14.528,22.238 15.597,21.812 16.400 C 21.377 17.221,20.859 17.902,20.000 18.780 C 19.450 19.342,19.400 19.411,19.400 19.599 C 19.401 19.943,19.698 20.141,20.060 20.040 C 20.783 19.837,22.226 18.150,22.968 16.639 C 23.422 15.714,23.715 14.778,23.857 13.800 C 24.339 10.467,23.380 7.211,21.232 4.889 C 20.555 4.158,20.062 3.869,19.740 4.015 M10.100 4.340 C 10.078 4.347,10.009 4.364,9.946 4.378 L 9.833 4.403 9.990 4.518 C 10.295 4.739,10.635 5.231,10.766 5.640 C 10.884 6.013,10.877 6.576,10.747 7.080 C 10.607 7.621,10.421 8.075,9.841 9.280 C 9.134 10.749,8.964 11.217,8.816 12.096 C 8.729 12.620,8.756 13.406,8.878 13.860 C 8.985 14.262,9.298 14.900,9.557 15.242 C 9.666 15.386,9.895 15.638,10.067 15.802 C 10.633 16.342,11.141 16.615,11.535 16.592 L 11.737 16.580 11.409 16.390 C 10.761 16.014,10.367 15.538,10.225 14.957 C 10.040 14.207,10.233 13.624,11.018 12.566 C 11.777 11.543,11.962 11.222,12.043 10.780 C 12.093 10.514,12.047 10.181,11.920 9.893 C 11.831 9.688,11.869 9.661,12.159 9.724 C 12.565 9.811,12.879 10.168,13.083 10.776 C 13.273 11.340,13.308 11.712,13.228 12.294 C 13.151 12.852,13.176 13.023,13.343 13.064 C 13.476 13.098,13.721 12.967,13.830 12.804 C 14.006 12.539,14.023 12.372,13.938 11.740 L 13.911 11.540 14.034 11.704 C 14.641 12.508,14.737 13.751,14.281 14.900 C 14.135 15.268,13.970 15.569,13.773 15.827 C 13.697 15.926,13.640 16.013,13.647 16.020 C 13.654 16.026,13.839 15.885,14.058 15.705 C 14.849 15.057,15.372 14.138,15.721 12.782 C 15.893 12.115,15.937 11.762,15.936 11.060 C 15.936 10.030,15.762 9.131,15.427 8.424 C 15.211 7.969,15.057 7.737,14.762 7.425 C 14.486 7.133,14.051 6.791,14.098 6.902 C 14.463 7.770,14.499 8.343,14.225 8.898 C 13.968 9.418,13.654 9.581,13.400 9.326 C 13.250 9.177,13.170 8.881,13.138 8.360 C 13.019 6.454,12.355 5.166,11.195 4.592 C 10.748 4.370,10.310 4.269,10.100 4.340 M6.505 17.259 C 5.922 17.467,5.892 18.228,6.458 18.485 C 6.613 18.555,6.873 18.558,12.222 18.559 L 17.823 18.560 18.001 18.470 C 18.310 18.314,18.454 17.898,18.301 17.603 C 18.220 17.446,18.026 17.291,17.849 17.242 C 17.750 17.214,15.859 17.201,12.180 17.202 C 7.597 17.203,6.634 17.213,6.505 17.259 " stroke="none" fill="black" fill-rule="evenodd"></path></svg>