<svg role="img" viewBox="0 0 24 24" xmlns="http://www.w3.org/2000/svg"><path d="M7.017 1.641 C 6.891 1.708,6.614 1.876,6.403 2.014 C 2.817 4.369,1.103 8.764,2.144 12.940 C 2.904 15.993,5.083 18.559,7.961 19.794 C 8.438 19.998,9.394 20.320,9.525 20.320 C 9.597 20.320,9.600 20.245,9.600 18.175 C 9.600 16.151,9.604 16.032,9.670 16.052 C 9.709 16.063,9.925 16.122,10.150 16.183 L 10.560 16.293 10.560 18.866 C 10.560 20.282,10.547 21.440,10.530 21.440 C 10.425 21.439,9.707 21.297,9.320 21.199 C 7.825 20.824,6.498 20.178,5.220 19.205 C 4.767 18.859,3.814 17.929,3.454 17.480 C 1.204 14.677,0.434 11.101,1.340 7.653 C 1.416 7.364,1.523 7.006,1.579 6.859 C 1.744 6.421,1.698 6.154,1.436 6.018 C 1.283 5.939,1.124 5.946,0.973 6.038 C 0.815 6.134,0.802 6.158,0.621 6.700 C 0.013 8.519,-0.152 10.574,0.163 12.440 C 1.017 17.511,4.937 21.448,9.980 22.299 C 10.288 22.351,10.684 22.404,10.860 22.418 C 11.036 22.432,11.257 22.452,11.350 22.464 L 11.520 22.485 11.520 19.432 L 11.520 16.380 12.000 16.380 L 12.480 16.380 12.480 19.416 L 12.480 22.452 12.910 22.426 C 14.704 22.315,16.623 21.696,18.259 20.701 C 19.320 20.055,20.608 18.920,21.375 17.955 C 22.306 16.783,23.082 15.298,23.499 13.887 C 24.199 11.526,24.150 9.014,23.359 6.647 C 23.171 6.083,23.066 5.960,22.775 5.960 C 22.620 5.960,22.571 5.981,22.456 6.096 C 22.281 6.271,22.277 6.444,22.437 6.897 C 22.611 7.391,22.827 8.290,22.926 8.931 C 23.043 9.690,23.053 11.172,22.946 11.900 C 22.576 14.417,21.513 16.565,19.779 18.299 C 18.175 19.904,15.981 21.031,13.790 21.374 L 13.440 21.429 13.440 18.853 C 13.440 16.826,13.451 16.275,13.490 16.264 C 13.518 16.257,13.733 16.198,13.970 16.132 L 14.400 16.013 14.400 18.166 C 14.400 20.244,14.403 20.320,14.475 20.320 C 14.606 20.320,15.562 19.998,16.039 19.794 C 18.323 18.814,20.280 16.875,21.280 14.600 C 22.340 12.189,22.437 9.545,21.555 7.061 C 21.341 6.457,20.846 5.462,20.491 4.920 C 19.682 3.687,18.485 2.534,17.246 1.796 C 16.813 1.538,16.638 1.494,16.445 1.597 C 16.333 1.657,16.200 1.871,16.200 1.991 C 16.200 2.222,16.298 2.335,16.724 2.593 C 18.058 3.399,19.128 4.474,19.908 5.794 C 20.849 7.386,21.300 9.283,21.167 11.094 C 20.937 14.246,19.193 16.992,16.460 18.509 C 16.100 18.709,15.470 19.000,15.398 19.000 C 15.375 19.000,15.360 18.276,15.360 17.101 L 15.360 15.202 15.581 15.094 C 15.855 14.960,16.132 14.669,16.272 14.369 C 16.414 14.063,16.420 13.576,16.285 13.232 C 16.199 13.012,15.910 12.659,15.743 12.570 C 15.671 12.532,15.669 12.510,15.715 12.183 C 15.844 11.263,16.142 10.510,16.529 10.130 C 16.647 10.014,16.885 9.825,17.057 9.710 C 17.510 9.407,17.529 9.363,17.509 8.620 C 17.494 8.065,17.483 7.993,17.363 7.660 C 17.292 7.462,17.103 7.047,16.944 6.738 C 15.844 4.601,13.838 2.263,12.611 1.688 C 12.410 1.594,12.330 1.580,11.997 1.580 C 11.627 1.580,11.603 1.586,11.277 1.749 C 10.827 1.974,10.474 2.247,9.917 2.800 C 8.526 4.181,7.019 6.431,6.580 7.780 C 6.465 8.135,6.410 8.716,6.457 9.093 C 6.493 9.380,6.580 9.486,7.019 9.778 C 7.204 9.901,7.429 10.087,7.519 10.191 C 7.855 10.578,8.139 11.321,8.257 12.120 L 8.313 12.500 8.104 12.687 C 7.986 12.792,7.835 12.983,7.757 13.127 C 7.627 13.367,7.620 13.400,7.620 13.780 C 7.620 14.141,7.631 14.203,7.737 14.418 C 7.882 14.713,8.121 14.956,8.390 15.083 L 8.597 15.180 8.598 17.093 L 8.600 19.005 8.510 18.980 C 8.293 18.917,7.341 18.416,6.970 18.170 C 6.370 17.770,5.979 17.448,5.485 16.948 C 4.951 16.407,4.724 16.127,4.317 15.508 C 3.586 14.397,3.092 13.086,2.895 11.738 C 2.801 11.090,2.801 9.872,2.895 9.226 C 3.276 6.614,4.690 4.336,6.840 2.873 C 7.049 2.730,7.301 2.567,7.400 2.511 C 7.651 2.367,7.763 2.234,7.785 2.054 C 7.810 1.856,7.690 1.657,7.500 1.578 C 7.312 1.499,7.281 1.503,7.017 1.641 M9.396 12.863 C 10.107 13.074,10.301 14.022,9.735 14.519 C 9.531 14.698,9.365 14.760,9.086 14.760 C 8.680 14.760,8.379 14.574,8.215 14.222 C 8.040 13.847,8.103 13.407,8.372 13.127 C 8.659 12.827,8.990 12.742,9.396 12.863 M15.203 12.864 C 15.469 12.942,15.757 13.217,15.831 13.465 C 16.034 14.142,15.593 14.762,14.911 14.759 C 14.608 14.758,14.390 14.668,14.189 14.461 C 13.697 13.955,13.929 13.071,14.609 12.859 C 14.838 12.787,14.945 12.788,15.203 12.864 " stroke="none" fill="black" fill-rule="evenodd"></path></svg>