<svg role="img" viewBox="0 0 24 24" xmlns="http://www.w3.org/2000/svg"><path d="M4.688 0.324 C 3.488 0.485,2.187 1.120,1.393 1.933 C 0.825 2.515,0.290 3.547,0.095 4.440 C -0.007 4.905,-0.007 6.289,0.095 6.960 C 0.272 8.121,0.799 9.122,1.719 10.040 C 2.336 10.656,2.820 10.914,3.730 11.114 L 4.200 11.216 4.200 11.526 C 4.200 11.895,4.167 11.993,3.960 12.240 C 3.772 12.464,3.720 12.589,3.720 12.813 C 3.720 13.041,3.610 13.203,3.326 13.396 C 3.050 13.583,2.933 13.731,2.855 13.989 C 2.776 14.253,2.784 14.453,2.879 14.539 C 2.988 14.638,3.115 14.628,3.377 14.500 C 3.555 14.412,3.635 14.395,3.761 14.415 C 3.848 14.429,3.995 14.452,4.086 14.466 C 4.291 14.498,4.463 14.415,4.590 14.220 C 4.674 14.090,4.801 14.000,4.980 13.946 C 5.059 13.921,5.060 13.939,5.060 15.070 C 5.061 16.122,5.069 16.256,5.153 16.640 C 5.289 17.257,5.410 17.595,5.719 18.220 C 6.136 19.060,6.729 19.792,7.577 20.514 C 8.254 21.090,8.319 21.117,7.851 20.628 C 6.964 19.699,6.569 19.210,6.227 18.620 C 5.875 18.013,5.588 17.142,5.461 16.300 C 5.398 15.883,5.379 14.695,5.426 14.096 L 5.451 13.771 5.770 13.703 C 5.969 13.660,6.233 13.560,6.472 13.438 C 6.683 13.330,6.860 13.247,6.866 13.252 C 6.907 13.293,7.035 14.357,7.028 14.600 C 7.017 15.003,7.052 15.116,7.197 15.145 C 7.350 15.176,7.387 15.274,7.443 15.787 C 7.507 16.384,7.506 16.383,7.783 16.412 C 8.058 16.440,8.108 16.483,8.154 16.731 C 8.201 16.981,8.257 17.040,8.448 17.040 C 8.629 17.040,8.760 17.098,8.760 17.179 C 8.760 17.209,8.701 17.280,8.630 17.336 C 8.509 17.431,8.500 17.454,8.502 17.669 C 8.505 17.928,8.622 18.201,8.771 18.296 C 8.820 18.328,8.932 18.367,9.020 18.382 C 9.269 18.426,9.320 18.466,9.320 18.619 C 9.320 18.807,9.407 18.880,9.634 18.880 C 9.846 18.880,10.000 18.965,10.000 19.083 C 10.000 19.126,9.928 19.240,9.840 19.335 C 9.421 19.790,9.527 20.082,10.313 20.630 C 10.526 20.778,10.758 20.951,10.830 21.014 C 11.053 21.210,10.987 21.408,10.640 21.580 C 10.432 21.683,10.364 21.756,10.336 21.906 C 10.302 22.091,10.369 22.233,10.602 22.462 C 10.831 22.687,10.851 22.667,10.675 22.392 C 10.568 22.226,10.555 22.178,10.585 22.072 C 10.625 21.934,10.661 21.909,10.919 21.839 C 11.138 21.781,11.346 21.573,11.383 21.377 C 11.405 21.261,11.378 21.172,11.226 20.859 C 11.126 20.650,11.054 20.480,11.068 20.480 C 11.160 20.480,11.449 20.795,11.573 21.032 C 11.653 21.184,11.800 21.383,11.899 21.475 C 11.999 21.567,12.080 21.652,12.080 21.665 C 12.080 21.678,11.991 21.822,11.883 21.984 C 11.545 22.489,11.576 22.815,11.996 23.157 L 12.172 23.300 12.046 23.077 C 11.856 22.739,11.891 22.519,12.158 22.381 L 12.272 22.322 12.251 22.481 C 12.224 22.680,12.320 22.835,12.704 23.213 C 13.044 23.549,13.370 23.721,13.656 23.717 L 13.860 23.714 13.700 23.642 C 13.516 23.560,13.424 23.468,13.362 23.304 C 13.318 23.189,13.318 23.189,13.409 23.254 C 13.736 23.490,14.114 23.616,14.623 23.659 L 14.940 23.686 14.683 23.553 C 14.491 23.453,14.407 23.383,14.350 23.271 C 14.307 23.189,14.279 23.104,14.286 23.082 C 14.294 23.061,14.449 23.140,14.632 23.259 C 14.857 23.406,15.037 23.490,15.192 23.522 C 15.503 23.587,15.983 23.550,16.204 23.444 L 16.380 23.360 16.180 23.377 C 16.070 23.386,15.900 23.382,15.803 23.367 L 15.625 23.340 15.803 23.224 C 16.109 23.023,16.351 22.803,16.538 22.554 C 16.638 22.421,16.720 22.296,16.720 22.276 C 16.720 22.256,16.634 22.302,16.528 22.378 C 16.366 22.494,16.001 22.680,15.934 22.680 C 15.923 22.680,15.978 22.605,16.057 22.513 C 16.136 22.421,16.200 22.315,16.200 22.277 C 16.200 22.217,16.180 22.214,16.046 22.248 C 15.813 22.307,15.587 22.229,15.351 22.008 C 15.137 21.807,15.000 21.581,15.000 21.426 C 15.000 21.350,15.068 21.284,15.330 21.109 C 15.857 20.757,15.960 20.612,15.960 20.226 C 15.960 20.070,15.925 19.944,15.820 19.726 C 15.743 19.565,15.680 19.393,15.680 19.345 C 15.680 19.273,15.814 19.028,15.964 18.827 C 16.004 18.774,16.311 18.717,16.753 18.681 C 17.249 18.641,17.289 18.613,17.407 18.227 C 17.478 17.993,17.488 17.886,17.468 17.563 L 17.444 17.178 17.672 17.089 C 18.096 16.925,18.320 16.665,18.320 16.337 C 18.320 16.189,18.199 16.033,17.917 15.818 C 17.780 15.713,17.659 15.524,17.704 15.484 C 17.724 15.467,17.848 15.371,17.980 15.271 C 18.406 14.949,18.707 14.619,18.798 14.377 C 18.901 14.102,18.908 13.598,18.815 13.188 C 18.744 12.879,18.613 12.712,18.337 12.581 C 18.220 12.526,18.183 12.526,17.975 12.580 C 17.629 12.670,17.392 12.660,17.291 12.550 C 17.195 12.447,17.121 12.205,17.120 11.998 C 17.120 11.868,17.043 11.517,16.979 11.350 C 16.933 11.233,17.015 11.269,17.455 11.559 C 17.986 11.909,18.140 11.987,18.429 12.054 C 18.556 12.084,18.775 12.166,18.915 12.237 C 19.447 12.506,20.612 12.499,20.914 12.225 C 21.111 12.046,21.185 11.744,21.057 11.638 C 21.022 11.609,20.918 11.589,20.825 11.594 C 20.598 11.606,20.494 11.493,20.424 11.156 C 20.395 11.015,20.375 10.895,20.380 10.888 C 20.385 10.882,20.555 10.833,20.757 10.779 C 21.489 10.583,22.018 10.270,22.514 9.738 C 23.050 9.164,23.620 8.188,23.818 7.503 C 24.093 6.554,24.039 4.881,23.697 3.799 C 23.483 3.119,23.127 2.543,22.536 1.923 C 22.101 1.466,21.759 1.205,21.300 0.980 C 20.536 0.606,20.017 0.484,19.069 0.453 C 18.070 0.420,17.500 0.527,16.992 0.842 C 16.015 1.449,15.955 1.480,15.753 1.480 C 15.645 1.480,15.501 1.452,15.434 1.417 C 15.367 1.382,15.307 1.360,15.299 1.368 C 15.256 1.411,15.387 1.789,15.494 1.929 C 15.758 2.276,16.224 2.390,17.103 2.323 C 17.387 2.301,17.755 2.254,17.920 2.218 C 18.531 2.085,19.004 2.144,19.650 2.436 C 20.476 2.810,21.160 3.714,21.344 4.674 C 21.463 5.295,21.384 6.154,21.165 6.621 C 20.940 7.103,20.568 7.389,20.221 7.350 C 19.752 7.297,19.333 6.925,18.570 5.882 C 17.353 4.219,16.835 3.731,15.968 3.427 C 15.518 3.270,14.796 3.229,14.418 3.339 C 13.980 3.466,13.548 3.727,13.064 4.155 C 12.912 4.290,12.777 4.400,12.762 4.400 C 12.748 4.400,12.537 4.248,12.294 4.063 C 11.760 3.658,11.522 3.520,11.100 3.374 C 10.804 3.271,10.733 3.262,10.160 3.261 C 9.409 3.260,9.072 3.328,8.568 3.582 C 8.038 3.848,7.747 4.128,6.304 5.753 C 5.291 6.895,5.117 7.070,4.800 7.262 C 4.557 7.409,4.520 7.420,4.235 7.420 C 3.944 7.420,3.919 7.412,3.697 7.260 C 3.427 7.074,3.163 6.735,3.035 6.409 C 2.960 6.220,2.942 6.082,2.929 5.620 C 2.909 4.904,2.964 4.653,3.280 4.020 C 3.684 3.213,4.005 2.882,4.740 2.519 C 5.578 2.104,6.351 1.989,7.160 2.158 C 7.945 2.321,8.755 2.305,9.260 2.117 C 9.551 2.008,9.776 1.760,9.835 1.484 C 9.906 1.154,9.906 1.153,9.695 1.246 C 9.467 1.347,9.119 1.354,8.906 1.262 C 8.821 1.226,8.560 1.077,8.326 0.931 C 7.440 0.382,7.198 0.319,5.900 0.299 C 5.394 0.292,4.849 0.303,4.688 0.324 M6.760 0.565 C 7.244 0.622,7.630 0.765,8.175 1.087 C 8.437 1.242,8.725 1.402,8.815 1.443 C 8.998 1.527,9.407 1.546,9.581 1.479 L 9.688 1.439 9.612 1.569 C 9.354 2.011,8.455 2.174,7.422 1.966 C 6.816 1.844,6.468 1.821,6.075 1.877 C 5.040 2.026,4.335 2.348,3.778 2.927 C 3.468 3.249,3.299 3.506,3.023 4.081 C 2.755 4.641,2.705 4.873,2.710 5.560 C 2.714 6.213,2.780 6.505,3.002 6.860 C 3.494 7.645,4.233 7.877,4.917 7.462 C 5.288 7.236,5.491 7.031,6.554 5.807 C 7.826 4.343,8.228 3.949,8.682 3.725 C 9.088 3.523,9.484 3.443,10.085 3.441 C 10.596 3.440,10.826 3.480,11.228 3.641 C 11.630 3.802,11.988 4.045,12.380 4.426 L 12.700 4.736 12.983 4.738 C 13.226 4.740,13.286 4.755,13.404 4.846 C 13.481 4.904,13.596 5.028,13.661 5.122 C 13.766 5.273,13.781 5.331,13.789 5.617 C 13.798 5.912,13.807 5.947,13.903 6.020 C 13.960 6.064,14.059 6.148,14.123 6.207 C 14.303 6.372,14.277 6.211,14.096 6.038 L 13.952 5.900 13.977 5.627 C 13.992 5.460,13.983 5.292,13.954 5.196 C 13.895 4.999,13.677 4.742,13.444 4.594 C 13.162 4.415,13.369 4.452,13.783 4.655 C 14.674 5.091,15.054 5.587,14.849 6.047 C 14.777 6.211,14.704 6.286,14.263 6.653 C 14.098 6.790,14.080 6.823,14.080 6.975 C 14.080 7.163,14.118 7.225,14.310 7.357 C 14.481 7.474,14.493 7.673,14.335 7.797 C 14.186 7.914,14.148 7.900,14.222 7.756 C 14.258 7.687,14.276 7.591,14.264 7.541 C 14.231 7.412,13.963 7.183,13.756 7.106 C 13.659 7.071,13.476 7.004,13.349 6.957 C 13.036 6.844,12.798 6.656,12.692 6.440 C 12.539 6.129,12.490 5.521,12.582 5.090 L 12.606 4.980 12.527 5.069 L 12.448 5.159 12.021 4.761 C 11.552 4.324,11.325 4.191,10.899 4.101 C 10.274 3.968,9.645 4.055,9.002 4.363 C 8.276 4.709,7.952 4.986,7.055 6.027 C 6.108 7.126,5.743 7.446,4.963 7.866 C 4.766 7.971,4.521 8.146,4.389 8.275 C 4.242 8.418,4.147 8.484,4.129 8.455 C 4.113 8.430,4.030 8.334,3.945 8.240 L 3.791 8.069 3.481 8.095 L 3.171 8.121 3.123 7.870 C 3.048 7.477,3.062 7.494,2.755 7.419 C 2.503 7.357,2.476 7.341,2.494 7.265 C 2.505 7.218,2.526 7.025,2.541 6.836 L 2.568 6.493 2.384 6.376 C 2.283 6.312,2.200 6.245,2.200 6.226 C 2.200 6.208,2.262 6.082,2.338 5.946 L 2.477 5.698 2.322 5.413 L 2.167 5.128 2.368 4.795 L 2.569 4.461 2.497 4.145 L 2.424 3.829 2.523 3.745 C 2.577 3.698,2.679 3.615,2.750 3.560 C 2.871 3.465,2.880 3.438,2.909 3.120 L 2.940 2.780 3.266 2.667 L 3.592 2.554 3.721 2.257 L 3.851 1.960 4.221 1.960 L 4.590 1.960 4.764 1.735 L 4.937 1.510 5.193 1.531 C 5.578 1.562,5.975 1.500,6.148 1.382 L 6.295 1.283 6.437 1.369 C 6.516 1.416,6.617 1.478,6.662 1.507 C 6.733 1.552,6.780 1.542,7.018 1.428 L 7.291 1.297 7.716 1.443 C 7.949 1.524,8.185 1.603,8.240 1.620 C 8.298 1.638,8.200 1.538,8.008 1.382 C 7.678 1.116,7.672 1.112,7.308 1.056 C 7.105 1.024,6.812 0.969,6.655 0.933 C 6.371 0.868,6.368 0.868,6.029 0.974 C 5.624 1.100,5.621 1.100,5.246 1.012 L 4.953 0.944 4.637 1.114 C 4.327 1.281,4.314 1.285,3.970 1.277 L 3.620 1.268 3.461 1.533 C 3.290 1.818,3.294 1.816,2.858 1.861 L 2.616 1.886 2.430 2.195 C 2.271 2.462,2.218 2.517,2.043 2.598 C 1.819 2.704,1.826 2.689,1.758 3.153 C 1.711 3.471,1.701 3.493,1.528 3.657 L 1.347 3.828 1.419 4.172 L 1.492 4.516 1.286 4.753 C 1.173 4.884,1.080 5.008,1.080 5.029 C 1.080 5.051,1.168 5.185,1.276 5.327 L 1.473 5.587 1.250 5.760 L 1.028 5.934 1.126 6.017 C 1.180 6.063,1.305 6.166,1.402 6.247 L 1.580 6.394 1.304 6.674 L 1.028 6.954 1.374 7.059 L 1.721 7.165 1.499 7.448 C 1.377 7.604,1.284 7.738,1.293 7.746 C 1.301 7.754,1.425 7.783,1.570 7.810 L 1.832 7.860 1.656 8.159 C 1.559 8.323,1.480 8.472,1.480 8.489 C 1.480 8.505,1.615 8.508,1.780 8.494 C 1.952 8.479,2.080 8.484,2.080 8.505 C 2.080 8.525,2.017 8.635,1.940 8.749 C 1.863 8.863,1.800 8.963,1.800 8.971 C 1.800 8.978,1.945 8.968,2.123 8.948 C 2.300 8.928,2.452 8.918,2.460 8.926 C 2.468 8.934,2.440 9.085,2.398 9.260 C 2.357 9.436,2.322 9.586,2.321 9.593 C 2.321 9.601,2.436 9.515,2.577 9.402 C 2.718 9.290,2.842 9.212,2.853 9.229 C 2.863 9.246,2.902 9.413,2.940 9.600 C 2.978 9.787,3.018 9.955,3.029 9.974 C 3.040 9.992,3.126 9.878,3.220 9.720 C 3.314 9.562,3.399 9.448,3.410 9.466 C 3.420 9.485,3.461 9.635,3.500 9.800 C 3.538 9.965,3.583 10.114,3.598 10.131 C 3.613 10.148,3.715 10.051,3.823 9.916 L 4.020 9.670 4.040 10.040 L 4.060 10.411 4.290 10.077 C 4.417 9.894,4.520 9.764,4.520 9.789 C 4.520 9.847,4.280 10.888,4.258 10.923 C 4.236 10.959,3.676 10.858,3.340 10.757 C 2.730 10.573,2.287 10.296,1.780 9.783 C 0.997 8.990,0.495 8.028,0.296 6.940 C 0.238 6.626,0.223 6.342,0.224 5.620 C 0.225 4.749,0.230 4.679,0.332 4.300 C 0.549 3.494,1.097 2.564,1.696 1.986 C 2.371 1.334,3.464 0.765,4.362 0.599 C 4.959 0.488,5.992 0.473,6.760 0.565 M19.740 0.686 C 20.529 0.800,21.245 1.094,21.775 1.521 C 22.556 2.149,23.255 3.094,23.518 3.875 C 23.811 4.745,23.867 6.352,23.638 7.316 C 23.534 7.757,23.235 8.380,22.855 8.952 C 22.218 9.908,21.536 10.399,20.597 10.578 C 20.325 10.630,20.322 10.629,20.259 10.533 C 20.190 10.427,20.067 9.976,20.022 9.660 L 19.993 9.460 20.196 9.770 C 20.307 9.941,20.408 10.080,20.419 10.080 C 20.431 10.080,20.429 9.927,20.414 9.740 C 20.400 9.553,20.399 9.400,20.413 9.400 C 20.426 9.400,20.512 9.499,20.604 9.620 C 20.695 9.741,20.783 9.840,20.798 9.840 C 20.814 9.840,20.860 9.694,20.901 9.516 C 20.984 9.151,20.990 9.152,21.189 9.540 C 21.309 9.774,21.322 9.757,21.401 9.268 C 21.429 9.098,21.459 8.960,21.469 8.960 C 21.479 8.960,21.579 9.040,21.691 9.139 C 21.804 9.237,21.902 9.311,21.910 9.304 C 21.917 9.296,21.894 9.161,21.858 9.002 C 21.822 8.844,21.800 8.706,21.810 8.696 C 21.820 8.687,21.952 8.696,22.102 8.717 C 22.253 8.739,22.382 8.751,22.388 8.745 C 22.394 8.739,22.337 8.637,22.262 8.517 L 22.125 8.300 22.402 8.288 L 22.680 8.276 22.518 7.982 C 22.338 7.653,22.330 7.672,22.670 7.619 C 22.764 7.605,22.840 7.584,22.840 7.574 C 22.840 7.563,22.757 7.438,22.655 7.295 C 22.554 7.153,22.477 7.031,22.485 7.024 C 22.493 7.017,22.622 6.971,22.770 6.922 C 22.918 6.873,23.040 6.821,23.040 6.805 C 23.040 6.790,22.932 6.670,22.799 6.539 L 22.558 6.300 22.809 6.075 L 23.060 5.849 22.871 5.682 L 22.682 5.515 22.859 5.250 L 23.036 4.986 22.842 4.739 L 22.648 4.491 22.721 4.177 L 22.794 3.862 22.622 3.678 C 22.465 3.510,22.449 3.472,22.422 3.218 C 22.379 2.798,22.369 2.776,22.174 2.674 C 22.030 2.598,21.965 2.525,21.838 2.295 C 21.674 2.000,21.621 1.962,21.373 1.961 C 21.146 1.960,21.061 1.899,20.923 1.639 L 20.790 1.390 20.500 1.416 C 20.214 1.442,20.208 1.441,19.921 1.275 L 19.631 1.108 19.335 1.177 L 19.040 1.247 18.720 1.140 L 18.400 1.033 18.050 1.114 C 17.857 1.158,17.602 1.206,17.481 1.222 C 17.287 1.247,17.230 1.278,16.970 1.505 C 16.809 1.645,16.690 1.760,16.705 1.760 C 16.721 1.760,16.927 1.686,17.163 1.595 L 17.593 1.430 17.817 1.558 L 18.041 1.686 18.241 1.563 C 18.351 1.495,18.451 1.440,18.463 1.440 C 18.475 1.440,18.547 1.487,18.622 1.544 C 18.749 1.641,18.792 1.650,19.203 1.657 L 19.647 1.664 19.805 1.872 L 19.964 2.080 20.279 2.080 L 20.594 2.080 20.707 2.358 L 20.820 2.636 21.104 2.740 L 21.389 2.844 21.416 3.172 C 21.431 3.367,21.464 3.516,21.495 3.540 C 21.524 3.562,21.615 3.639,21.697 3.712 L 21.847 3.844 21.781 4.142 L 21.715 4.440 21.886 4.758 L 22.058 5.075 21.923 5.353 L 21.789 5.631 21.915 5.862 C 21.984 5.990,22.040 6.109,22.040 6.127 C 22.040 6.144,21.966 6.208,21.876 6.267 L 21.712 6.376 21.738 6.718 C 21.753 6.906,21.774 7.090,21.784 7.126 C 21.799 7.178,21.748 7.209,21.551 7.267 L 21.300 7.342 21.244 7.635 L 21.188 7.929 20.922 7.903 L 20.655 7.877 20.480 8.085 L 20.305 8.293 20.102 8.068 C 19.950 7.900,19.822 7.807,19.586 7.697 C 19.413 7.616,19.170 7.465,19.046 7.362 C 18.760 7.123,18.255 6.540,17.705 5.811 C 17.468 5.498,17.143 5.120,16.981 4.971 C 16.329 4.370,15.464 3.989,14.900 4.055 C 14.694 4.079,14.079 4.276,14.081 4.317 C 14.082 4.330,14.208 4.420,14.362 4.518 C 14.734 4.754,15.178 5.213,15.236 5.421 C 15.332 5.769,15.272 6.050,15.053 6.285 L 14.954 6.390 15.359 6.407 C 15.651 6.418,15.775 6.439,15.800 6.479 C 15.819 6.511,15.855 6.654,15.879 6.798 C 15.949 7.210,15.986 7.289,16.224 7.522 C 16.545 7.837,16.600 7.963,16.600 8.391 C 16.600 8.723,16.593 8.754,16.477 8.912 L 16.353 9.080 16.067 9.081 C 15.875 9.082,15.691 9.112,15.510 9.174 L 15.240 9.266 15.240 9.073 C 15.240 8.917,15.259 8.863,15.339 8.793 C 15.393 8.746,15.459 8.643,15.485 8.564 C 15.511 8.485,15.551 8.407,15.576 8.391 C 15.655 8.338,15.940 8.359,16.034 8.424 C 16.162 8.514,16.180 8.472,16.061 8.361 C 15.994 8.298,15.898 8.262,15.761 8.249 C 15.651 8.239,15.560 8.222,15.560 8.212 C 15.560 8.160,15.666 8.002,15.788 7.875 C 15.955 7.701,15.955 7.567,15.789 7.488 C 15.552 7.374,15.236 7.566,15.087 7.913 C 14.975 8.174,14.912 8.596,14.941 8.894 C 14.992 9.414,15.032 9.514,15.399 10.020 C 16.070 10.944,16.139 11.058,16.595 12.001 C 16.774 12.372,17.025 12.661,17.314 12.830 C 17.482 12.929,17.498 12.931,17.734 12.882 C 18.167 12.793,18.225 12.790,18.354 12.857 C 18.571 12.969,18.620 13.117,18.620 13.660 C 18.620 14.240,18.591 14.312,18.209 14.693 C 17.799 15.102,17.349 15.374,16.700 15.606 L 16.380 15.720 16.700 15.696 C 16.876 15.683,17.109 15.656,17.218 15.636 C 17.389 15.604,17.421 15.609,17.455 15.669 C 17.500 15.752,17.736 15.979,17.915 16.113 C 18.016 16.188,18.040 16.235,18.040 16.357 C 18.040 16.528,17.976 16.603,17.739 16.706 C 17.605 16.763,17.465 16.773,16.860 16.766 C 16.159 16.757,16.125 16.761,15.580 16.895 C 14.791 17.090,14.440 17.132,14.033 17.081 C 13.598 17.026,13.312 16.948,13.166 16.845 C 12.814 16.594,12.178 15.689,12.194 15.460 C 12.209 15.225,12.324 14.857,12.439 14.670 C 12.548 14.495,12.550 14.485,12.466 14.540 C 12.347 14.617,12.224 14.843,12.140 15.133 C 12.064 15.397,12.077 15.403,11.843 14.989 C 11.772 14.862,11.654 14.696,11.582 14.619 C 11.466 14.496,11.428 14.480,11.255 14.482 L 11.060 14.484 11.213 14.538 C 11.297 14.568,11.401 14.624,11.444 14.664 C 11.487 14.703,11.668 15.024,11.846 15.377 C 12.246 16.172,12.520 16.591,12.834 16.891 C 13.183 17.224,13.506 17.344,14.160 17.385 C 14.495 17.406,14.606 17.394,15.100 17.281 C 15.458 17.200,15.783 17.152,16.000 17.148 C 16.400 17.140,17.084 17.193,17.155 17.237 C 17.290 17.320,17.239 18.245,17.093 18.366 C 17.058 18.395,16.762 18.413,16.250 18.418 C 15.608 18.424,15.333 18.446,14.780 18.535 C 13.974 18.665,13.654 18.735,13.450 18.826 L 13.300 18.893 13.539 18.926 C 13.690 18.947,13.849 19.004,13.972 19.080 C 14.215 19.231,14.341 19.231,14.640 19.080 C 14.900 18.949,15.010 18.936,15.250 19.008 L 15.409 19.055 15.385 19.262 C 15.362 19.455,15.372 19.486,15.523 19.720 C 15.815 20.172,15.780 20.409,15.366 20.755 C 15.172 20.917,15.160 20.922,15.159 20.834 C 15.159 20.782,15.143 20.715,15.124 20.685 C 15.096 20.641,15.083 20.646,15.063 20.710 C 15.034 20.803,14.794 21.059,14.677 21.121 C 14.599 21.163,14.598 21.161,14.660 21.013 C 14.778 20.731,14.800 20.554,14.751 20.280 L 14.704 20.020 14.671 20.275 C 14.613 20.716,14.430 20.943,13.928 21.197 C 13.511 21.407,13.306 21.563,13.227 21.731 C 13.133 21.928,13.144 22.111,13.261 22.316 C 13.317 22.412,13.352 22.501,13.341 22.513 C 13.298 22.555,13.021 22.289,12.932 22.121 C 12.857 21.980,12.840 21.882,12.838 21.604 L 12.836 21.260 12.598 21.147 C 11.941 20.836,11.672 20.303,11.958 19.877 C 12.022 19.781,12.070 19.697,12.064 19.690 C 12.057 19.684,11.987 19.706,11.907 19.739 C 11.711 19.821,11.536 19.816,11.444 19.724 C 11.377 19.657,11.371 19.606,11.390 19.294 L 11.411 18.940 11.188 19.150 C 11.065 19.265,10.941 19.360,10.911 19.360 C 10.881 19.360,10.795 19.412,10.719 19.475 C 10.596 19.578,10.581 19.612,10.580 19.785 C 10.580 19.892,10.596 20.059,10.614 20.155 L 10.649 20.330 10.521 20.255 C 10.327 20.142,10.120 19.895,10.120 19.777 C 10.120 19.720,10.167 19.595,10.224 19.497 C 10.290 19.384,10.335 19.237,10.347 19.090 C 10.365 18.880,10.356 18.843,10.237 18.665 C 10.052 18.390,9.845 18.251,9.568 18.217 C 9.139 18.165,8.840 17.957,8.840 17.712 C 8.840 17.579,8.890 17.471,9.026 17.307 C 9.134 17.178,9.147 17.016,9.061 16.893 C 9.016 16.829,8.940 16.801,8.758 16.780 C 8.502 16.750,8.440 16.690,8.440 16.471 C 8.440 16.425,8.394 16.327,8.338 16.254 C 8.252 16.141,8.210 16.120,8.076 16.120 C 7.960 16.120,7.890 16.093,7.818 16.022 C 7.728 15.931,7.720 15.894,7.720 15.540 C 7.720 15.128,7.709 15.104,7.439 14.918 C 7.355 14.861,7.349 14.825,7.343 14.378 C 7.340 14.115,7.314 13.792,7.285 13.660 C 7.256 13.528,7.239 13.317,7.249 13.190 L 7.265 12.960 7.649 12.600 C 7.876 12.387,8.126 12.102,8.263 11.900 C 8.390 11.713,8.505 11.560,8.518 11.560 C 8.531 11.560,8.593 11.705,8.656 11.882 C 8.728 12.084,8.851 12.315,8.988 12.502 C 9.108 12.666,9.212 12.800,9.220 12.800 C 9.227 12.800,9.153 12.641,9.055 12.447 C 8.939 12.217,8.853 11.978,8.811 11.761 C 8.741 11.407,8.755 11.165,8.900 10.240 C 8.956 9.882,8.982 9.324,8.941 9.366 C 8.931 9.376,8.885 9.579,8.839 9.817 C 8.633 10.881,8.172 11.730,7.415 12.437 C 6.853 12.961,6.234 13.276,5.396 13.461 C 4.886 13.574,4.778 13.624,4.465 13.896 L 4.231 14.100 3.885 14.100 C 3.600 14.100,3.505 14.117,3.340 14.198 C 3.230 14.252,3.124 14.304,3.104 14.313 C 3.084 14.323,3.078 14.254,3.091 14.156 C 3.111 14.007,3.150 13.948,3.351 13.761 C 3.481 13.639,3.649 13.504,3.724 13.460 C 3.846 13.387,3.869 13.345,3.945 13.040 C 4.059 12.586,4.092 12.511,4.260 12.325 C 4.441 12.125,4.480 11.988,4.480 11.549 C 4.480 11.231,4.501 11.135,4.695 10.549 C 5.076 9.398,5.550 8.468,6.001 7.985 C 6.291 7.676,6.774 7.344,7.297 7.096 C 7.641 6.933,7.731 6.908,8.083 6.878 C 8.329 6.857,8.623 6.798,8.851 6.725 C 9.538 6.506,9.657 6.496,10.565 6.583 C 10.906 6.616,11.170 6.558,11.616 6.353 C 11.886 6.228,12.026 6.187,12.191 6.184 L 12.410 6.180 12.469 6.380 C 12.587 6.784,12.868 7.011,13.486 7.202 C 13.936 7.341,14.131 7.475,14.112 7.634 C 14.101 7.733,14.015 7.800,13.820 7.861 C 13.744 7.884,13.745 7.889,13.840 7.941 C 13.965 8.011,14.267 8.015,14.400 7.949 C 14.536 7.881,14.654 7.633,14.621 7.483 C 14.607 7.419,14.550 7.336,14.495 7.300 C 14.134 7.064,14.148 6.960,14.596 6.579 C 15.148 6.110,15.253 5.910,15.159 5.512 C 15.115 5.329,15.066 5.258,14.804 4.996 C 14.471 4.664,13.997 4.360,13.640 4.251 C 13.519 4.214,13.413 4.179,13.405 4.174 C 13.387 4.161,13.594 3.985,13.814 3.825 C 13.902 3.761,14.092 3.654,14.235 3.587 C 14.461 3.481,14.550 3.463,14.918 3.449 C 15.888 3.411,16.602 3.747,17.339 4.587 C 17.626 4.916,17.777 5.110,18.536 6.131 C 18.957 6.697,19.474 7.229,19.766 7.397 C 19.945 7.499,20.022 7.519,20.240 7.519 C 20.710 7.518,21.053 7.269,21.302 6.751 C 21.519 6.296,21.574 5.970,21.550 5.265 C 21.532 4.767,21.510 4.596,21.422 4.302 C 21.136 3.341,20.595 2.698,19.700 2.256 C 19.086 1.953,18.620 1.899,17.858 2.043 C 17.305 2.147,16.319 2.191,16.097 2.121 C 15.873 2.051,15.652 1.899,15.585 1.770 L 15.528 1.660 15.702 1.674 C 15.916 1.691,16.153 1.588,16.699 1.240 C 17.283 0.869,17.668 0.716,18.208 0.640 C 18.495 0.600,19.323 0.625,19.740 0.686 M16.812 6.704 C 17.442 6.845,17.840 7.131,18.331 7.795 C 18.757 8.372,18.833 8.509,18.966 8.940 C 19.034 9.160,19.135 9.430,19.190 9.540 C 19.338 9.832,19.658 10.295,19.888 10.549 C 20.116 10.801,20.178 10.930,20.217 11.236 C 20.232 11.355,20.271 11.504,20.304 11.568 C 20.381 11.716,20.584 11.840,20.750 11.840 C 20.822 11.840,20.880 11.850,20.880 11.863 C 20.880 11.940,20.774 12.052,20.629 12.128 C 20.478 12.206,20.402 12.215,19.932 12.212 L 19.405 12.208 19.049 12.044 C 18.853 11.954,18.658 11.879,18.616 11.879 C 18.453 11.876,17.961 11.642,17.560 11.376 C 17.328 11.223,17.083 11.074,17.014 11.046 C 16.909 11.002,16.871 10.947,16.784 10.707 C 16.727 10.549,16.680 10.401,16.680 10.377 C 16.680 10.353,16.725 10.292,16.780 10.240 C 16.835 10.188,16.880 10.134,16.880 10.118 C 16.880 10.065,16.569 10.148,16.418 10.241 C 16.335 10.293,16.188 10.347,16.091 10.361 C 15.942 10.384,15.908 10.376,15.858 10.305 C 15.772 10.182,15.785 10.166,15.953 10.188 C 16.260 10.229,16.487 9.983,16.420 9.680 C 16.383 9.513,16.478 9.521,16.657 9.700 C 16.734 9.777,16.816 9.840,16.839 9.840 C 16.943 9.840,16.834 9.284,16.729 9.279 C 16.713 9.278,16.659 9.243,16.609 9.201 L 16.518 9.125 16.649 8.939 C 16.777 8.757,16.780 8.744,16.777 8.346 C 16.773 7.869,16.735 7.773,16.417 7.440 C 16.102 7.110,16.046 6.911,16.218 6.738 C 16.333 6.623,16.424 6.618,16.812 6.704 M10.379 7.067 C 10.257 7.195,10.176 7.243,10.047 7.263 C 9.954 7.278,9.855 7.322,9.829 7.360 C 9.794 7.409,9.706 7.434,9.522 7.448 C 9.269 7.466,9.261 7.470,9.070 7.683 C 8.947 7.820,8.861 7.962,8.833 8.070 C 8.810 8.163,8.769 8.240,8.743 8.240 C 8.663 8.240,8.490 8.452,8.462 8.584 C 8.437 8.705,8.281 8.880,8.081 9.014 C 7.934 9.112,8.015 9.094,8.248 8.976 C 8.361 8.919,8.545 8.786,8.657 8.681 C 8.769 8.576,8.918 8.461,8.990 8.424 C 9.078 8.379,9.120 8.329,9.120 8.268 C 9.120 8.163,9.254 7.898,9.371 7.770 C 9.417 7.720,9.500 7.680,9.557 7.680 L 9.660 7.680 9.640 8.056 C 9.624 8.357,9.604 8.450,9.540 8.521 L 9.460 8.611 9.560 8.580 C 9.734 8.527,9.953 8.404,10.097 8.277 C 10.360 8.046,10.580 7.464,10.552 7.072 L 10.540 6.898 10.379 7.067 M12.080 7.382 C 12.080 7.494,12.241 7.680,12.338 7.680 C 12.372 7.680,12.422 7.716,12.449 7.760 C 12.484 7.816,12.543 7.840,12.644 7.840 C 12.787 7.840,12.789 7.842,12.969 8.230 C 13.068 8.445,13.171 8.708,13.197 8.815 C 13.236 8.978,13.611 9.640,13.664 9.640 C 13.674 9.640,13.653 9.572,13.618 9.490 C 13.583 9.408,13.520 9.189,13.476 9.004 C 13.415 8.743,13.368 8.634,13.264 8.519 C 13.142 8.384,12.861 7.744,12.785 7.429 C 12.759 7.323,12.753 7.320,12.670 7.379 C 12.553 7.460,12.468 7.456,12.280 7.360 C 12.082 7.259,12.080 7.259,12.080 7.382 M11.160 8.313 C 10.916 8.376,10.643 8.511,10.460 8.658 C 10.388 8.716,10.397 8.716,10.540 8.656 C 11.147 8.406,11.753 8.319,11.896 8.462 C 11.976 8.542,12.048 8.811,12.032 8.971 C 12.022 9.079,11.999 9.102,11.880 9.129 C 11.803 9.146,11.648 9.150,11.535 9.138 C 11.412 9.124,11.235 9.139,11.095 9.174 C 10.966 9.206,10.770 9.245,10.661 9.260 C 10.551 9.275,10.411 9.313,10.351 9.345 C 10.247 9.399,10.240 9.418,10.240 9.668 C 10.240 9.934,10.240 9.935,10.432 10.120 C 10.665 10.345,10.899 10.463,11.265 10.540 C 11.764 10.646,12.076 10.606,12.289 10.408 C 12.404 10.302,12.500 10.074,12.466 9.990 C 12.455 9.962,12.445 9.979,12.443 10.027 C 12.441 10.075,12.394 10.168,12.339 10.234 C 12.019 10.614,11.125 10.529,10.672 10.076 C 10.567 9.970,10.481 9.869,10.481 9.852 C 10.484 9.778,10.706 9.666,10.884 9.649 C 11.061 9.632,11.073 9.636,11.054 9.713 C 11.021 9.836,11.112 10.068,11.228 10.159 C 11.302 10.217,11.391 10.240,11.545 10.240 C 11.725 10.240,11.780 10.221,11.889 10.123 C 12.003 10.022,12.019 9.982,12.016 9.822 C 12.013 9.691,11.987 9.611,11.924 9.545 L 11.836 9.451 11.988 9.426 C 12.236 9.385,12.316 9.396,12.400 9.480 C 12.509 9.589,12.501 9.502,12.384 9.303 C 12.331 9.213,12.275 9.049,12.259 8.939 C 12.225 8.697,12.117 8.437,12.004 8.324 C 11.898 8.218,11.542 8.213,11.160 8.313 M15.659 9.510 C 15.643 9.549,15.607 9.640,15.580 9.714 L 15.532 9.848 15.446 9.709 C 15.339 9.537,15.339 9.526,15.450 9.481 C 15.605 9.419,15.692 9.431,15.659 9.510 M12.726 10.329 C 12.710 10.509,12.578 10.736,12.424 10.848 L 12.260 10.969 12.400 10.940 C 12.477 10.924,12.571 10.894,12.609 10.875 C 12.697 10.828,12.771 10.579,12.750 10.400 C 12.740 10.323,12.730 10.291,12.726 10.329 M16.692 10.990 C 16.903 11.694,16.918 11.758,16.919 11.940 C 16.920 12.095,16.911 12.085,16.666 11.640 C 16.527 11.387,16.337 11.063,16.244 10.920 L 16.075 10.660 16.245 10.610 C 16.339 10.583,16.434 10.542,16.456 10.520 C 16.478 10.498,16.506 10.480,16.518 10.480 C 16.530 10.480,16.609 10.710,16.692 10.990 M13.180 12.176 C 12.965 12.244,12.760 12.351,12.646 12.455 C 12.282 12.785,12.297 13.493,12.674 13.854 L 12.789 13.964 12.769 13.758 C 12.750 13.559,12.752 13.553,12.832 13.596 C 12.930 13.648,12.944 13.631,12.979 13.420 C 13.029 13.110,13.042 13.081,13.159 13.021 C 13.311 12.942,13.518 12.943,13.634 13.024 C 13.771 13.120,13.781 13.064,13.652 12.920 C 13.435 12.677,12.967 12.716,12.779 12.993 L 12.680 13.139 12.680 12.995 C 12.680 12.642,13.036 12.396,13.589 12.367 C 14.073 12.342,14.286 12.401,14.663 12.665 C 14.837 12.787,15.097 12.946,15.240 13.019 C 15.383 13.092,15.617 13.245,15.760 13.360 C 16.094 13.628,16.218 13.690,16.411 13.687 C 16.623 13.684,16.640 13.654,16.448 13.621 C 16.330 13.601,16.199 13.516,15.920 13.278 C 15.716 13.104,15.370 12.848,15.152 12.710 C 14.934 12.573,14.667 12.404,14.559 12.336 C 14.451 12.268,14.260 12.191,14.135 12.166 C 13.840 12.107,13.384 12.112,13.180 12.176 M13.690 13.398 C 13.520 13.440,13.450 13.501,13.421 13.636 C 13.354 13.942,13.702 14.239,13.979 14.113 C 14.092 14.062,14.137 13.958,14.100 13.840 C 14.061 13.718,14.235 13.736,14.424 13.873 C 14.731 14.096,14.909 14.349,15.048 14.760 L 15.122 14.980 15.100 14.707 C 15.041 13.998,14.591 13.448,14.020 13.387 C 13.910 13.375,13.762 13.380,13.690 13.398 M10.368 13.928 C 10.342 13.954,10.320 14.054,10.320 14.149 C 10.320 14.312,10.325 14.320,10.402 14.279 C 10.447 14.255,10.500 14.192,10.520 14.139 C 10.547 14.068,10.614 14.027,10.778 13.979 C 10.900 13.943,11.000 13.907,11.000 13.897 C 11.000 13.855,10.412 13.884,10.368 13.928 " stroke="none" fill="black" fill-rule="evenodd"></path></svg>