<svg role="img" viewBox="0 0 24 24" xmlns="http://www.w3.org/2000/svg"><path d="M11.180 0.044 C 9.629 0.205,8.058 0.899,6.854 1.955 C 5.637 3.022,4.716 4.619,4.405 6.200 C 4.260 6.938,4.240 7.346,4.240 9.498 L 4.240 11.600 3.595 11.600 L 2.949 11.600 2.974 12.210 C 2.988 12.546,3.011 13.711,3.025 14.800 C 3.039 15.889,3.062 16.950,3.076 17.157 L 3.100 17.534 3.338 17.237 C 4.448 15.849,6.022 14.856,7.860 14.384 C 8.460 14.230,9.093 14.133,9.960 14.062 C 13.451 13.777,15.809 13.320,17.739 12.553 C 18.260 12.346,19.058 11.964,19.450 11.734 L 19.760 11.552 19.760 9.435 C 19.760 6.824,19.724 6.437,19.380 5.360 C 18.276 1.901,14.826 -0.335,11.180 0.044 M12.820 3.666 C 13.616 3.816,14.292 4.178,14.901 4.780 C 15.349 5.222,15.615 5.596,15.825 6.079 C 16.158 6.848,16.208 7.357,16.192 9.800 L 16.180 11.580 12.000 11.580 L 7.820 11.580 7.808 9.640 C 7.793 7.096,7.830 6.780,8.238 5.940 C 9.076 4.217,10.915 3.305,12.820 3.666 M20.679 13.383 C 18.368 15.723,15.343 17.145,12.228 17.356 C 11.947 17.375,11.707 17.400,11.695 17.411 C 11.651 17.456,12.585 17.500,13.480 17.495 C 14.494 17.490,15.104 17.433,15.998 17.259 C 17.244 17.016,17.985 16.727,19.319 15.963 C 19.821 15.675,20.347 15.386,20.486 15.320 C 21.060 15.049,21.109 15.221,20.648 15.880 C 18.976 18.266,16.621 19.624,13.158 20.196 C 12.157 20.362,11.219 20.444,9.980 20.475 L 8.940 20.500 9.240 20.569 C 10.357 20.827,11.157 20.899,12.880 20.899 C 15.310 20.899,16.016 20.778,17.906 20.036 C 18.720 19.717,18.840 19.682,18.840 19.766 C 18.840 19.855,18.505 20.246,18.090 20.642 C 17.014 21.670,15.229 22.540,13.373 22.942 C 12.317 23.171,12.277 23.174,10.180 23.182 C 8.935 23.187,8.096 23.207,7.880 23.237 C 7.133 23.341,6.452 23.549,5.856 23.854 L 5.580 23.996 13.310 23.998 L 21.040 24.000 21.040 18.520 C 21.040 15.506,21.035 13.040,21.029 13.040 C 21.023 13.040,20.866 13.195,20.679 13.383 " stroke="none" fill="black" fill-rule="evenodd"></path></svg>