<svg role="img" viewBox="0 0 24 24" xmlns="http://www.w3.org/2000/svg"><path d="M9.013 0.823 C 8.111 1.053,7.636 1.220,6.566 1.682 L 6.351 1.774 6.378 2.317 C 6.404 2.850,6.500 3.993,6.543 4.276 L 6.564 4.420 6.136 4.680 C 5.671 4.962,4.979 5.472,4.553 5.846 L 4.285 6.082 3.953 5.867 C 3.610 5.647,3.014 5.301,2.469 5.005 L 2.157 4.836 1.964 5.048 C 1.266 5.812,0.461 6.868,0.106 7.484 L -0.000 7.668 0.405 8.284 C 0.627 8.623,0.960 9.101,1.145 9.347 L 1.480 9.794 1.480 12.957 C 1.480 15.461,1.490 16.120,1.530 16.120 C 1.836 16.119,5.448 16.501,5.540 16.544 C 5.607 16.575,5.684 16.638,5.713 16.684 C 5.746 16.737,5.789 17.100,5.829 17.674 C 5.864 18.172,5.895 18.584,5.898 18.589 C 5.917 18.616,9.261 18.835,9.282 18.810 C 9.296 18.793,9.358 18.429,9.419 18.000 C 9.480 17.571,9.556 17.169,9.588 17.107 C 9.702 16.882,9.726 16.880,12.000 16.880 C 14.274 16.880,14.299 16.882,14.411 17.107 C 14.443 17.169,14.518 17.571,14.579 18.000 C 14.640 18.429,14.702 18.794,14.717 18.811 C 14.741 18.836,18.081 18.619,18.100 18.590 C 18.104 18.584,18.135 18.173,18.169 17.676 C 18.238 16.666,18.260 16.591,18.514 16.520 C 18.626 16.489,22.285 16.120,22.480 16.120 C 22.506 16.120,22.520 15.036,22.520 12.954 L 22.520 9.788 22.810 9.405 C 22.970 9.194,23.303 8.718,23.551 8.347 L 24.001 7.672 23.914 7.526 C 23.452 6.755,22.703 5.770,22.015 5.031 L 21.840 4.843 21.350 5.107 C 21.080 5.252,20.602 5.530,20.286 5.725 L 19.712 6.079 19.446 5.845 C 19.007 5.460,18.325 4.956,17.867 4.680 L 17.435 4.420 17.458 4.260 C 17.500 3.954,17.595 2.817,17.620 2.297 L 17.646 1.774 17.253 1.601 C 16.470 1.256,15.477 0.924,14.690 0.744 L 14.440 0.687 14.198 1.113 C 13.928 1.590,13.280 2.890,13.280 2.956 C 13.280 2.985,13.198 2.989,13.030 2.969 C 12.717 2.933,11.302 2.931,10.980 2.967 L 10.740 2.994 10.420 2.329 C 10.129 1.725,9.628 0.778,9.565 0.714 C 9.551 0.700,9.303 0.749,9.013 0.823 M7.022 10.060 C 7.850 10.270,8.497 10.902,8.743 11.740 C 8.853 12.115,8.837 12.661,8.704 13.060 C 8.496 13.681,8.077 14.161,7.500 14.439 C 7.125 14.619,6.864 14.680,6.468 14.679 C 5.836 14.678,5.281 14.443,4.820 13.981 C 4.339 13.499,4.142 13.015,4.145 12.320 C 4.149 11.650,4.359 11.154,4.842 10.675 C 5.132 10.387,5.551 10.149,5.929 10.058 C 6.221 9.987,6.737 9.988,7.022 10.060 M18.008 10.044 C 18.393 10.123,18.858 10.378,19.156 10.673 C 19.641 11.154,19.851 11.649,19.855 12.320 C 19.858 13.014,19.662 13.497,19.180 13.982 C 18.723 14.443,18.166 14.678,17.532 14.679 C 17.137 14.680,16.876 14.620,16.500 14.439 C 15.691 14.051,15.192 13.260,15.188 12.360 C 15.186 11.918,15.257 11.635,15.473 11.220 C 15.756 10.679,16.338 10.226,16.960 10.063 C 17.226 9.993,17.719 9.984,18.008 10.044 M6.345 10.962 C 5.900 11.074,5.482 11.420,5.286 11.840 C 5.138 12.157,5.117 12.687,5.240 13.011 C 5.651 14.104,7.055 14.387,7.840 13.535 C 7.932 13.436,8.055 13.252,8.114 13.127 C 8.208 12.926,8.220 12.851,8.220 12.479 C 8.220 12.085,8.212 12.041,8.090 11.794 C 7.845 11.297,7.346 10.968,6.792 10.939 C 6.631 10.930,6.430 10.941,6.345 10.962 M16.920 10.972 C 16.453 11.108,16.112 11.385,15.911 11.792 C 15.798 12.022,15.778 12.107,15.767 12.419 C 15.756 12.714,15.769 12.822,15.840 13.011 C 16.127 13.776,16.956 14.201,17.723 13.976 C 18.158 13.849,18.521 13.537,18.715 13.125 C 18.808 12.927,18.820 12.850,18.820 12.480 C 18.820 12.110,18.808 12.034,18.716 11.840 C 18.467 11.315,17.963 10.971,17.397 10.938 C 17.219 10.927,17.028 10.941,16.920 10.972 M12.360 11.461 C 12.497 11.532,12.666 11.717,12.717 11.853 C 12.744 11.923,12.760 12.412,12.760 13.156 C 12.760 14.319,12.758 14.352,12.669 14.524 C 12.598 14.659,12.527 14.726,12.361 14.810 C 12.243 14.870,12.080 14.920,12.000 14.920 C 11.920 14.920,11.757 14.870,11.639 14.810 C 11.473 14.726,11.402 14.659,11.331 14.524 C 11.242 14.352,11.240 14.319,11.240 13.152 C 11.240 12.239,11.253 11.927,11.294 11.828 C 11.361 11.668,11.604 11.449,11.751 11.417 C 11.811 11.404,11.878 11.387,11.900 11.379 C 11.967 11.355,12.254 11.406,12.360 11.461 M1.490 17.750 C 1.511 18.612,1.547 18.810,1.782 19.370 C 1.984 19.849,2.307 20.299,2.769 20.743 C 4.202 22.120,6.543 22.929,10.020 23.248 C 10.861 23.325,13.321 23.313,14.200 23.227 C 17.507 22.904,19.813 22.098,21.190 20.784 C 21.819 20.183,22.158 19.648,22.383 18.899 C 22.480 18.576,22.493 18.460,22.510 17.750 C 22.521 17.316,22.514 16.960,22.495 16.960 C 22.408 16.959,19.059 17.288,19.048 17.299 C 19.042 17.305,19.008 17.704,18.975 18.185 C 18.941 18.666,18.892 19.103,18.866 19.156 C 18.751 19.396,18.792 19.390,16.479 19.554 C 15.053 19.655,14.296 19.694,14.208 19.670 C 13.992 19.613,13.945 19.482,13.821 18.610 C 13.760 18.176,13.701 17.797,13.690 17.770 C 13.675 17.730,13.313 17.721,11.988 17.730 L 10.305 17.740 10.179 18.580 C 10.110 19.042,10.031 19.462,10.004 19.513 C 9.892 19.723,9.877 19.723,7.544 19.555 C 5.273 19.393,5.273 19.393,5.144 19.189 C 5.106 19.128,5.068 18.816,5.025 18.205 C 4.991 17.712,4.958 17.304,4.951 17.298 C 4.940 17.286,1.624 16.960,1.520 16.960 C 1.483 16.960,1.476 17.146,1.490 17.750 " stroke="none" fill="black" fill-rule="evenodd"></path></svg>