<svg role="img" xmlns="http://www.w3.org/2000/svg" viewBox="0 0 24 24"><path d="M18.940 0.062 C 18.786 0.096,18.498 0.202,18.300 0.298 C 17.649 0.614,17.254 1.009,16.938 1.660 C 16.617 2.323,16.640 1.517,16.640 11.913 C 16.640 22.082,16.628 21.543,16.875 22.180 C 17.482 23.744,19.268 24.437,20.781 23.697 C 21.442 23.373,21.932 22.801,22.177 22.067 C 22.367 21.496,22.362 21.811,22.350 11.799 C 22.340 2.846,22.336 2.408,22.266 2.160 C 21.979 1.142,21.221 0.364,20.260 0.102 C 19.912 0.007,19.282 -0.012,18.940 0.062 M11.304 9.239 C 10.486 9.460,9.809 10.019,9.439 10.780 C 9.121 11.434,9.140 11.072,9.140 16.460 C 9.140 21.666,9.133 21.495,9.363 22.130 C 9.666 22.971,10.282 23.571,11.140 23.865 C 11.419 23.960,11.524 23.974,11.960 23.977 C 12.549 23.980,12.815 23.920,13.320 23.674 C 13.974 23.355,14.502 22.692,14.719 21.919 C 14.869 21.383,14.885 20.752,14.871 16.099 L 14.857 11.660 14.768 11.340 C 14.588 10.693,14.240 10.127,13.808 9.780 C 13.523 9.551,13.021 9.302,12.680 9.222 C 12.317 9.137,11.653 9.145,11.304 9.239 M3.801 18.363 C 2.030 18.826,1.142 20.743,1.940 22.380 C 2.243 23.002,2.638 23.397,3.260 23.700 C 3.464 23.799,3.753 23.902,3.928 23.938 C 4.559 24.065,5.148 23.988,5.740 23.700 C 6.362 23.397,6.757 23.002,7.060 22.380 C 7.557 21.361,7.416 20.177,6.694 19.302 C 6.009 18.471,4.838 18.091,3.801 18.363 " stroke="none" fill="black" fill-rule="evenodd"></path></svg>