<svg role="img" viewBox="0 0 24 24" xmlns="http://www.w3.org/2000/svg"><path d="M11.200 0.025 C 8.526 0.275,6.242 1.357,4.436 3.229 C 2.950 4.769,2.007 6.646,1.637 8.803 C 1.516 9.509,1.485 10.986,1.577 11.660 C 1.815 13.394,2.540 15.057,3.669 16.460 C 4.010 16.884,4.767 17.650,5.200 18.009 C 6.956 19.464,9.272 20.382,11.410 20.468 L 12.000 20.492 12.000 22.250 L 12.000 24.007 12.610 23.689 C 14.206 22.856,15.654 21.897,16.980 20.797 C 17.594 20.287,19.013 18.846,19.497 18.240 C 21.031 16.321,21.964 14.357,22.349 12.240 C 22.447 11.705,22.455 11.572,22.457 10.520 C 22.460 9.280,22.430 8.987,22.200 8.020 C 21.219 3.901,17.774 0.756,13.543 0.115 C 13.036 0.038,11.635 -0.016,11.200 0.025 M11.479 9.990 C 11.479 12.304,11.474 12.479,11.401 12.759 C 11.161 13.685,10.473 14.393,9.742 14.468 L 9.520 14.491 9.520 13.246 L 9.520 12.000 8.260 12.000 L 7.000 12.000 7.000 9.760 L 7.000 7.520 9.240 7.520 L 11.480 7.520 11.479 9.990 M17.479 9.990 C 17.479 12.304,17.474 12.479,17.401 12.759 C 17.161 13.685,16.473 14.393,15.742 14.468 L 15.520 14.491 15.520 13.246 L 15.520 12.000 14.260 12.000 L 13.000 12.000 13.000 9.760 L 13.000 7.520 15.240 7.520 L 17.480 7.520 17.479 9.990 " stroke="none" fill="black" fill-rule="evenodd"></path></svg>