<svg role="img" viewBox="0 0 24 24" xmlns="http://www.w3.org/2000/svg"><path d="M11.080 0.061 C 9.130 0.302,7.364 1.176,6.009 2.567 L 5.799 2.784 7.604 4.302 C 8.596 5.137,9.429 5.824,9.454 5.829 C 9.523 5.842,14.160 0.305,14.106 0.275 C 14.024 0.230,13.190 0.080,12.800 0.040 C 12.294 -0.011,11.595 -0.003,11.080 0.061 M12.818 2.623 C 11.807 3.824,10.950 4.847,10.912 4.896 L 10.844 4.985 11.132 4.907 C 11.568 4.790,12.388 4.793,12.837 4.914 C 13.877 5.193,14.675 5.837,15.150 6.780 C 15.405 7.286,15.548 8.028,15.497 8.577 C 15.474 8.829,15.477 8.853,15.531 8.800 C 15.611 8.720,19.219 4.426,19.256 4.367 C 19.293 4.307,19.015 3.841,18.646 3.345 C 17.928 2.379,16.943 1.537,15.840 0.948 C 15.534 0.784,14.953 0.529,14.738 0.464 C 14.669 0.444,14.376 0.773,12.818 2.623 M5.302 3.401 C 4.718 4.195,4.235 5.232,3.982 6.234 C 3.763 7.104,3.741 7.308,3.743 8.480 C 3.744 9.508,3.751 9.616,3.852 10.126 C 3.960 10.679,4.174 11.441,4.307 11.748 L 4.380 11.916 6.740 9.110 C 8.038 7.567,9.105 6.283,9.112 6.256 C 9.119 6.230,8.552 5.726,7.852 5.136 C 6.333 3.856,5.644 3.278,5.552 3.207 C 5.492 3.160,5.463 3.182,5.302 3.401 M14.025 11.341 C 11.017 14.917,8.548 17.865,8.537 17.892 C 8.527 17.920,8.683 18.167,8.885 18.441 C 9.331 19.048,9.915 19.933,10.190 20.420 C 10.557 21.070,10.867 21.808,11.220 22.880 C 11.325 23.199,11.454 23.546,11.507 23.651 C 11.728 24.092,12.216 24.122,12.456 23.710 C 12.510 23.616,12.671 23.198,12.814 22.780 C 13.334 21.253,13.606 20.682,14.339 19.580 C 14.913 18.717,15.326 18.161,16.375 16.840 C 18.587 14.057,19.233 13.031,19.779 11.437 C 20.314 9.876,20.432 8.075,20.101 6.520 C 19.979 5.946,19.599 4.840,19.523 4.840 C 19.506 4.840,17.032 7.766,14.025 11.341 M6.543 10.085 L 4.588 12.410 4.718 12.675 C 5.185 13.625,5.835 14.556,7.469 16.610 L 8.192 17.521 8.509 17.150 C 8.838 16.766,13.021 11.787,13.111 11.674 C 13.155 11.619,13.126 11.620,12.891 11.687 C 12.740 11.730,12.425 11.774,12.180 11.786 C 10.590 11.866,9.101 10.818,8.644 9.299 C 8.540 8.953,8.476 8.353,8.508 8.015 C 8.521 7.875,8.524 7.760,8.515 7.760 C 8.505 7.760,7.618 8.806,6.543 10.085 " stroke="none" fill="black" fill-rule="evenodd"></path></svg>