<svg role="img" viewBox="0 0 24 24" xmlns="http://www.w3.org/2000/svg"><path d="M11.530 0.081 C 11.097 0.223,10.690 0.639,10.556 1.079 C 10.496 1.274,10.464 2.873,10.512 3.247 C 10.562 3.634,10.703 3.945,10.933 4.175 C 11.830 5.072,13.320 4.553,13.483 3.287 C 13.529 2.929,13.527 1.692,13.479 1.327 C 13.357 0.380,12.429 -0.212,11.530 0.081 M6.340 4.814 C 5.703 4.979,5.281 5.459,5.197 6.113 C 5.150 6.476,5.153 11.427,5.200 11.790 C 5.271 12.334,5.582 12.763,6.071 12.993 C 6.269 13.086,6.351 13.100,6.681 13.100 C 7.030 13.100,7.084 13.089,7.328 12.969 C 7.801 12.736,8.090 12.325,8.160 11.787 C 8.209 11.410,8.209 6.465,8.159 6.087 C 8.043 5.191,7.189 4.593,6.340 4.814 M16.980 4.816 C 16.349 4.973,15.922 5.458,15.837 6.113 C 15.791 6.470,15.793 7.707,15.840 8.070 C 15.911 8.614,16.222 9.043,16.711 9.273 C 16.909 9.366,16.991 9.380,17.321 9.380 C 17.670 9.380,17.724 9.369,17.968 9.249 C 18.441 9.016,18.730 8.605,18.800 8.067 C 18.847 7.707,18.849 6.468,18.803 6.113 C 18.716 5.441,18.262 4.944,17.608 4.805 C 17.350 4.750,17.239 4.752,16.980 4.816 M11.660 6.177 C 11.036 6.330,10.601 6.822,10.518 7.468 C 10.472 7.823,10.472 16.177,10.518 16.532 C 10.583 17.041,10.901 17.487,11.359 17.711 C 11.557 17.809,11.624 17.820,12.000 17.820 C 12.376 17.820,12.443 17.809,12.641 17.711 C 12.917 17.576,13.212 17.285,13.341 17.021 C 13.396 16.908,13.458 16.681,13.482 16.500 C 13.510 16.286,13.520 14.717,13.511 11.780 C 13.497 6.848,13.518 7.178,13.202 6.758 C 12.841 6.278,12.213 6.041,11.660 6.177 M1.150 9.721 C 0.722 9.829,0.343 10.145,0.144 10.560 L 0.020 10.820 0.020 12.001 L 0.020 13.182 0.151 13.448 C 0.418 13.990,0.902 14.294,1.500 14.294 C 2.098 14.294,2.582 13.990,2.849 13.448 L 2.980 13.182 2.980 12.001 L 2.980 10.820 2.856 10.560 C 2.611 10.046,2.145 9.728,1.592 9.699 C 1.431 9.690,1.232 9.700,1.150 9.721 M22.150 9.721 C 21.722 9.829,21.343 10.145,21.144 10.560 L 21.020 10.820 21.020 12.001 L 21.020 13.182 21.151 13.448 C 21.418 13.990,21.902 14.294,22.500 14.294 C 23.098 14.294,23.582 13.990,23.849 13.448 L 23.980 13.182 23.980 12.001 L 23.980 10.820 23.856 10.560 C 23.611 10.046,23.145 9.728,22.592 9.699 C 22.431 9.690,22.232 9.700,22.150 9.721 M16.853 10.976 C 16.612 11.054,16.437 11.172,16.223 11.401 C 15.994 11.646,15.894 11.861,15.841 12.224 C 15.792 12.564,15.789 17.511,15.837 17.887 C 15.903 18.400,16.199 18.836,16.628 19.054 C 17.577 19.535,18.666 18.951,18.803 17.887 C 18.852 17.510,18.848 12.565,18.798 12.220 C 18.724 11.699,18.423 11.275,17.968 11.052 C 17.777 10.958,17.682 10.939,17.380 10.931 C 17.162 10.925,16.954 10.943,16.853 10.976 M6.251 14.656 C 5.666 14.847,5.280 15.314,5.200 15.927 C 5.153 16.295,5.151 17.530,5.198 17.892 C 5.263 18.401,5.581 18.847,6.039 19.071 C 6.237 19.169,6.304 19.180,6.680 19.180 C 7.056 19.180,7.123 19.169,7.321 19.071 C 7.598 18.936,7.892 18.645,8.021 18.381 C 8.074 18.271,8.136 18.054,8.158 17.900 C 8.209 17.546,8.210 16.313,8.159 15.927 C 8.088 15.378,7.729 14.901,7.248 14.717 C 6.964 14.608,6.487 14.579,6.251 14.656 M11.530 19.444 C 11.098 19.580,10.690 19.998,10.556 20.439 C 10.492 20.648,10.463 22.196,10.514 22.612 C 10.588 23.208,10.886 23.636,11.393 23.874 C 11.589 23.965,11.672 23.980,12.000 23.980 C 12.328 23.980,12.411 23.965,12.607 23.874 C 13.090 23.647,13.410 23.207,13.479 22.673 C 13.527 22.305,13.529 21.070,13.482 20.708 C 13.397 20.045,12.936 19.542,12.288 19.405 C 11.994 19.343,11.821 19.352,11.530 19.444 " stroke="none" fill="black" fill-rule="evenodd"></path></svg>