<svg role="img" viewBox="0 0 24 24" xmlns="http://www.w3.org/2000/svg"><path d="M3.420 7.266 C 2.840 7.359,2.119 7.651,1.662 7.977 C 0.280 8.963,-0.322 10.761,0.188 12.379 C 0.299 12.732,0.504 13.161,0.693 13.440 C 0.872 13.705,1.384 14.223,1.666 14.425 C 2.001 14.665,2.586 14.933,3.020 15.046 C 3.526 15.177,4.452 15.177,4.975 15.047 C 6.024 14.787,6.886 14.109,7.349 13.180 C 7.684 12.509,7.835 11.531,7.734 10.690 L 7.709 10.480 5.834 10.480 L 3.960 10.480 3.960 11.240 L 3.960 12.000 5.025 12.000 L 6.090 12.000 6.068 12.136 C 6.002 12.546,5.569 13.093,5.139 13.310 C 4.167 13.801,3.082 13.642,2.339 12.900 C 1.382 11.943,1.382 10.459,2.341 9.496 C 3.040 8.795,4.101 8.606,4.945 9.033 C 5.074 9.098,5.251 9.208,5.338 9.278 L 5.495 9.404 6.048 8.852 C 6.352 8.549,6.595 8.283,6.588 8.260 C 6.562 8.178,6.010 7.792,5.700 7.639 C 5.156 7.371,4.747 7.274,4.100 7.259 C 3.792 7.252,3.486 7.255,3.420 7.266 M10.480 11.240 L 10.480 14.680 10.920 14.680 L 11.360 14.680 11.360 13.280 L 11.360 11.880 12.252 11.880 C 13.481 11.880,13.794 11.791,14.325 11.290 C 14.775 10.866,14.961 10.447,14.959 9.863 C 14.957 9.238,14.809 8.882,14.363 8.436 C 14.047 8.119,13.720 7.926,13.359 7.843 C 13.255 7.819,12.610 7.802,11.830 7.801 L 10.480 7.800 10.480 11.240 M13.254 8.704 C 13.513 8.792,13.846 9.105,13.963 9.369 C 14.170 9.837,14.051 10.356,13.652 10.720 C 13.335 11.010,13.199 11.040,12.193 11.040 L 11.360 11.040 11.360 9.840 L 11.360 8.640 12.213 8.640 C 12.891 8.640,13.104 8.653,13.254 8.704 M16.483 9.861 C 16.062 9.937,15.644 10.155,15.355 10.448 C 15.226 10.579,15.120 10.701,15.120 10.718 C 15.120 10.744,15.742 11.149,15.851 11.194 C 15.870 11.202,15.966 11.124,16.065 11.021 C 16.334 10.740,16.620 10.623,17.040 10.622 C 17.325 10.620,17.416 10.637,17.600 10.724 C 18.027 10.925,18.280 11.293,18.280 11.711 C 18.280 11.865,18.271 11.885,18.210 11.859 C 17.854 11.710,17.628 11.667,17.120 11.650 C 16.715 11.637,16.512 11.648,16.307 11.696 C 15.729 11.832,15.295 12.147,15.092 12.580 C 14.993 12.793,14.980 12.865,14.980 13.221 C 14.980 13.593,14.989 13.641,15.111 13.888 C 15.464 14.605,16.389 14.995,17.222 14.778 C 17.552 14.692,17.781 14.551,18.050 14.269 L 18.280 14.027 18.280 14.354 L 18.280 14.680 18.700 14.680 L 19.120 14.680 19.120 13.048 C 19.120 11.712,19.109 11.374,19.059 11.181 C 18.797 10.175,17.740 9.634,16.483 9.861 M19.317 10.049 C 19.337 10.099,19.768 11.083,20.276 12.236 C 20.784 13.389,21.200 14.357,21.200 14.387 C 21.200 14.416,20.959 14.963,20.663 15.601 L 20.127 16.762 20.589 16.751 L 21.052 16.740 22.523 13.360 L 23.993 9.980 23.530 9.969 C 23.275 9.962,23.053 9.971,23.037 9.989 C 23.021 10.006,22.706 10.771,22.337 11.689 C 21.967 12.607,21.659 13.352,21.651 13.345 C 21.644 13.337,21.325 12.577,20.943 11.655 L 20.248 9.980 19.764 9.969 L 19.281 9.958 19.317 10.049 M17.520 12.362 C 17.663 12.385,17.895 12.457,18.036 12.522 L 18.291 12.641 18.268 12.837 C 18.219 13.250,17.880 13.696,17.458 13.903 C 17.200 14.029,16.791 14.073,16.532 14.003 C 16.313 13.944,16.038 13.734,15.950 13.559 C 15.871 13.402,15.859 13.141,15.922 12.973 C 16.023 12.707,16.364 12.464,16.760 12.376 C 17.040 12.313,17.197 12.311,17.520 12.362 " stroke="none" fill="black" fill-rule="evenodd"></path></svg>