<svg role="img" xmlns="http://www.w3.org/2000/svg" viewBox="0 0 24 24"><path d="M17.720 0.025 C 16.728 0.151,15.795 0.496,15.041 1.015 C 14.639 1.291,14.009 1.902,13.699 2.314 C 12.878 3.409,12.467 4.869,12.600 6.221 C 12.740 7.646,13.339 8.882,14.358 9.851 C 15.148 10.604,16.085 11.088,17.200 11.323 C 17.748 11.438,18.720 11.449,19.260 11.346 C 21.097 10.994,22.603 9.860,23.415 8.216 C 24.000 7.034,24.150 5.574,23.818 4.298 C 23.271 2.191,21.576 0.567,19.460 0.121 C 19.069 0.039,18.052 -0.017,17.720 0.025 M1.362 2.324 C 0.934 2.408,0.400 2.807,0.205 3.191 C -0.011 3.614,-0.000 3.065,0.000 13.058 L 0.000 22.300 6.460 15.840 C 10.013 12.287,12.920 9.367,12.920 9.351 C 12.920 9.336,12.836 9.185,12.734 9.016 C 12.379 8.432,12.095 7.688,11.932 6.920 C 11.875 6.653,11.860 6.395,11.860 5.720 C 11.860 4.967,11.871 4.809,11.953 4.446 C 12.082 3.867,12.289 3.295,12.554 2.781 C 12.678 2.540,12.786 2.329,12.793 2.311 C 12.812 2.268,1.583 2.280,1.362 2.324 M5.713 4.119 C 6.077 4.222,6.384 4.376,6.715 4.619 L 6.971 4.808 6.655 5.127 C 6.482 5.302,6.273 5.500,6.191 5.566 L 6.042 5.685 5.858 5.558 C 5.210 5.113,4.331 5.162,3.686 5.680 C 3.185 6.082,2.913 6.843,3.038 7.488 C 3.274 8.708,4.594 9.382,5.711 8.853 C 6.105 8.667,6.440 8.251,6.536 7.831 L 6.561 7.722 5.711 7.711 L 4.860 7.700 4.860 7.140 L 4.860 6.580 6.328 6.570 L 7.796 6.559 7.828 6.710 C 7.846 6.792,7.858 7.067,7.855 7.320 C 7.845 8.187,7.575 8.867,7.021 9.420 C 6.663 9.777,6.379 9.961,5.972 10.098 C 4.441 10.617,2.801 9.985,2.083 8.600 C 1.812 8.077,1.741 7.779,1.741 7.160 C 1.741 6.546,1.795 6.284,2.024 5.800 C 2.466 4.863,3.368 4.195,4.420 4.026 C 4.683 3.983,5.423 4.037,5.713 4.119 M13.420 12.282 L 12.220 13.483 12.761 13.203 C 13.795 12.668,14.907 12.279,16.031 12.057 L 16.603 11.945 16.251 11.831 C 15.865 11.705,15.164 11.382,14.876 11.198 C 14.776 11.133,14.676 11.080,14.656 11.080 C 14.636 11.080,14.080 11.621,13.420 12.282 M21.180 11.456 C 20.916 11.591,20.539 11.757,20.342 11.825 L 19.984 11.948 20.379 12.019 C 20.596 12.058,20.971 12.142,21.212 12.205 C 21.453 12.268,21.666 12.320,21.685 12.320 C 21.704 12.320,21.720 12.068,21.720 11.760 C 21.720 11.452,21.707 11.202,21.690 11.206 C 21.674 11.209,21.444 11.321,21.180 11.456 M17.481 12.602 C 15.550 12.752,13.716 13.387,12.080 14.472 C 11.366 14.946,11.148 15.183,10.951 15.703 L 10.861 15.940 10.849 19.970 L 10.837 24.000 15.510 24.000 C 20.613 24.000,20.413 24.009,20.851 23.770 C 21.241 23.558,21.593 23.062,21.679 22.605 C 21.705 22.467,21.720 20.720,21.720 17.758 L 21.720 13.126 21.530 13.066 C 20.318 12.682,18.755 12.502,17.481 12.602 M5.958 19.742 L 1.700 24.000 5.910 24.000 L 10.120 24.000 10.120 19.988 C 10.120 16.523,10.128 15.945,10.181 15.743 C 10.215 15.614,10.236 15.503,10.229 15.496 C 10.222 15.489,8.300 17.400,5.958 19.742 " stroke="none" fill="black" fill-rule="evenodd"></path></svg>