<svg role="img" viewBox="0 0 24 24" xmlns="http://www.w3.org/2000/svg"><path d="M11.560 0.044 C 11.461 0.063,11.251 0.142,11.094 0.219 C 10.543 0.491,10.140 1.036,10.036 1.650 L 9.987 1.940 6.500 3.953 C 2.874 6.047,2.729 6.140,2.371 6.606 C 2.152 6.892,1.936 7.331,1.830 7.710 C 1.743 8.018,1.742 8.044,1.729 12.320 C 1.721 15.086,1.731 16.767,1.758 17.031 C 1.853 17.985,2.321 18.789,3.072 19.294 C 3.436 19.539,10.527 23.630,10.787 23.745 C 11.175 23.917,11.473 23.975,11.980 23.977 C 12.819 23.982,12.949 23.930,14.840 22.832 C 15.467 22.468,17.033 21.563,18.320 20.822 C 19.607 20.080,20.758 19.409,20.877 19.331 C 21.347 19.025,21.728 18.575,21.976 18.034 C 22.243 17.451,22.237 17.563,22.241 13.558 C 22.245 9.625,22.244 9.611,22.019 9.012 C 21.539 7.737,20.245 7.339,18.781 8.016 C 18.625 8.088,17.355 8.795,15.958 9.587 C 14.562 10.380,13.380 11.049,13.332 11.074 C 13.257 11.114,13.205 11.099,12.982 10.977 C 12.645 10.791,12.374 10.721,11.994 10.720 C 10.774 10.719,9.856 11.834,10.080 13.045 C 10.140 13.369,10.376 13.815,10.615 14.053 C 11.860 15.297,13.960 14.422,13.960 12.658 L 13.960 12.324 14.730 11.887 C 19.691 9.071,19.388 9.236,19.749 9.143 C 20.369 8.982,20.610 9.112,20.784 9.700 C 20.850 9.920,20.857 10.223,20.870 13.360 C 20.885 17.010,20.881 17.113,20.690 17.518 C 20.476 17.973,20.449 17.991,16.400 20.326 C 14.082 21.663,12.578 22.507,12.444 22.546 C 12.154 22.631,11.647 22.604,11.394 22.491 C 11.292 22.446,9.546 21.449,7.514 20.275 C 5.052 18.853,3.757 18.083,3.630 17.965 C 3.409 17.760,3.218 17.399,3.159 17.075 C 3.132 16.928,3.122 15.341,3.129 12.475 L 3.140 8.100 3.230 7.880 C 3.346 7.594,3.574 7.298,3.800 7.138 C 3.899 7.067,5.222 6.294,6.740 5.419 C 8.258 4.544,9.713 3.704,9.974 3.554 C 10.235 3.403,10.456 3.280,10.464 3.280 C 10.473 3.280,10.590 3.369,10.725 3.478 C 11.070 3.756,11.410 3.885,11.862 3.910 C 12.458 3.943,12.973 3.743,13.374 3.323 C 13.744 2.935,13.919 2.497,13.920 1.954 C 13.921 0.717,12.794 -0.196,11.560 0.044 " stroke="none" fill="black" fill-rule="evenodd"></path></svg>