<svg role="img" viewBox="0 0 24 24" xmlns="http://www.w3.org/2000/svg"><path d="M11.180 0.027 C 9.103 0.160,7.038 0.847,5.370 1.960 C 4.590 2.480,4.216 2.784,3.526 3.458 C 1.103 5.827,-0.097 8.822,0.013 12.220 C 0.050 13.360,0.163 14.180,0.418 15.172 C 0.940 17.205,1.957 18.960,3.519 20.522 C 4.630 21.634,5.807 22.448,7.120 23.015 C 10.244 24.362,13.941 24.321,17.071 22.904 C 20.259 21.460,22.675 18.700,23.557 15.493 C 23.885 14.299,23.976 13.533,23.977 11.960 C 23.977 11.267,23.965 10.669,23.950 10.630 C 23.924 10.564,23.568 10.560,17.261 10.560 L 10.600 10.560 10.600 12.860 L 10.600 15.160 13.942 15.170 L 17.285 15.180 17.052 15.527 C 16.087 16.970,14.735 17.880,13.100 18.185 C 12.510 18.295,11.446 18.287,10.892 18.167 C 9.256 17.814,7.805 16.782,6.885 15.315 C 6.157 14.154,5.788 12.620,5.914 11.275 C 6.053 9.796,6.629 8.571,7.680 7.519 C 8.553 6.645,9.562 6.100,10.800 5.835 C 11.357 5.716,12.536 5.704,13.120 5.813 C 13.890 5.956,14.659 6.274,15.380 6.749 C 15.767 7.003,16.350 7.479,16.638 7.776 L 16.817 7.960 20.068 7.960 C 22.108 7.960,23.320 7.946,23.320 7.922 C 23.320 7.862,22.972 7.063,22.778 6.676 C 21.715 4.559,20.048 2.765,18.067 1.605 C 16.046 0.421,13.639 -0.130,11.180 0.027 " stroke="none" fill="black" fill-rule="evenodd"></path></svg>