<svg role="img" xmlns="http://www.w3.org/2000/svg" viewBox="0 0 24 24"><path d="M0.000 12.000 L 0.000 24.000 12.000 24.000 L 24.000 24.000 24.000 12.000 L 24.000 0.000 12.000 0.000 L 0.000 0.000 0.000 12.000 M9.988 4.034 C 10.146 4.050,10.290 4.077,10.308 4.095 C 10.326 4.112,10.349 5.393,10.360 6.942 L 10.380 9.757 10.800 9.398 C 11.259 9.006,11.685 8.767,12.120 8.657 C 12.294 8.614,12.633 8.585,13.143 8.571 C 13.829 8.553,13.940 8.559,14.243 8.635 C 14.429 8.682,14.786 8.822,15.040 8.948 C 15.451 9.151,15.541 9.216,15.884 9.558 C 16.413 10.084,16.734 10.664,16.839 11.281 C 16.893 11.597,16.956 14.685,16.958 17.170 L 16.960 19.000 15.300 19.000 L 13.640 19.000 13.639 16.310 C 13.638 13.269,13.616 12.788,13.466 12.492 C 13.169 11.906,12.785 11.645,12.166 11.610 C 11.462 11.570,10.978 11.793,10.645 12.313 C 10.394 12.704,10.395 12.689,10.351 15.940 C 10.328 17.699,10.297 18.916,10.274 18.940 C 10.250 18.965,9.632 18.985,8.638 18.994 L 7.040 19.008 7.040 11.504 L 7.040 4.000 8.370 4.002 C 9.101 4.004,9.830 4.018,9.988 4.034 " stroke="none" fill="black" fill-rule="evenodd"></path></svg>