<svg xmlns="http://www.w3.org/2000/svg" role="img" viewBox="0 0 24 24"><path d="M3.174 0.059 C 1.842 0.301,0.693 1.261,0.241 2.509 C -0.015 3.218,-0.002 2.683,0.009 12.161 L 0.020 20.780 0.107 21.086 C 0.514 22.510,1.490 23.486,2.914 23.893 L 3.220 23.980 11.839 23.991 C 19.347 24.000,20.502 23.994,20.805 23.941 C 22.325 23.679,23.549 22.519,23.909 21.000 C 23.976 20.717,23.980 20.194,23.980 12.000 C 23.980 3.806,23.976 3.283,23.909 3.000 C 23.550 1.484,22.328 0.324,20.812 0.060 C 20.515 0.008,19.337 0.000,11.965 0.004 C 5.176 0.006,3.402 0.018,3.174 0.059 M5.509 2.538 C 5.801 2.669,6.120 2.983,6.252 3.270 C 6.324 3.426,6.340 3.533,6.340 3.860 C 6.340 4.214,6.328 4.285,6.232 4.481 C 6.172 4.602,6.053 4.773,5.968 4.861 L 5.812 5.020 8.013 9.420 C 10.151 13.692,10.216 13.815,10.243 13.660 C 10.258 13.572,10.283 13.122,10.297 12.660 C 10.377 10.104,10.501 8.952,10.782 8.145 C 11.213 6.914,12.201 6.566,12.973 7.375 C 13.125 7.534,13.732 8.575,15.694 12.037 L 18.220 16.494 18.460 16.544 C 18.990 16.654,19.399 16.876,19.779 17.261 C 20.063 17.548,20.246 17.842,20.391 18.247 C 20.484 18.506,20.497 18.601,20.498 19.060 C 20.499 19.525,20.488 19.611,20.392 19.873 C 20.102 20.672,19.514 21.254,18.743 21.507 C 18.330 21.642,17.715 21.659,17.340 21.546 C 16.261 21.220,15.534 20.324,15.456 19.221 C 15.429 18.839,15.509 18.379,15.659 18.051 L 15.760 17.830 14.018 13.684 C 13.060 11.404,12.260 9.512,12.240 9.480 C 12.220 9.448,12.196 9.431,12.185 9.442 C 12.174 9.452,12.129 10.973,12.084 12.820 C 12.038 14.668,11.984 16.319,11.962 16.488 C 11.916 16.853,11.829 17.040,11.596 17.270 C 11.156 17.706,10.419 17.708,10.002 17.276 C 9.618 16.879,8.848 15.040,6.338 8.530 L 5.100 5.320 4.940 5.319 C 4.212 5.315,3.613 4.811,3.483 4.096 C 3.351 3.368,3.840 2.625,4.575 2.436 C 4.819 2.373,5.244 2.420,5.509 2.538 " stroke="none" fill="black" fill-rule="evenodd"></path></svg>