<svg role="img" viewBox="0 0 24 24" xmlns="http://www.w3.org/2000/svg"><path d="M9.760 3.777 C 6.490 4.123,3.652 5.484,1.866 7.562 C -0.733 10.586,-0.601 14.248,2.208 17.048 C 2.723 17.562,2.839 17.653,2.929 17.619 C 2.972 17.602,2.839 17.446,2.462 17.068 C 1.714 16.320,1.271 15.626,0.946 14.693 C 0.672 13.906,0.531 12.937,0.604 12.349 C 0.939 9.643,3.017 7.465,6.550 6.117 C 7.480 5.762,8.982 5.398,10.080 5.262 C 11.746 5.056,13.850 5.117,15.600 5.422 C 19.283 6.063,21.576 7.760,22.245 10.340 C 22.444 11.106,22.525 12.093,22.444 12.748 C 22.125 15.328,20.021 17.640,16.940 18.795 C 14.858 19.575,12.081 19.869,10.076 19.521 C 6.926 18.974,4.927 16.900,5.162 14.421 C 5.257 13.419,5.596 12.656,6.251 11.974 C 7.134 11.053,8.412 10.560,9.914 10.560 C 10.436 10.560,11.082 10.637,11.560 10.756 L 11.860 10.831 11.305 10.836 C 10.147 10.845,9.087 11.102,8.310 11.563 L 8.040 11.724 8.040 13.822 L 8.040 15.920 9.820 15.920 L 11.600 15.920 11.600 13.560 C 11.600 11.573,11.609 11.200,11.656 11.200 C 11.870 11.200,12.692 11.510,13.030 11.719 L 13.160 11.799 13.160 13.899 L 13.160 16.000 13.610 16.002 L 14.060 16.003 13.880 16.166 C 13.439 16.563,12.863 16.866,12.240 17.029 C 11.932 17.109,11.760 17.129,11.330 17.131 C 10.856 17.133,10.800 17.141,10.800 17.202 C 10.800 17.306,10.878 17.320,11.445 17.320 C 12.472 17.320,13.218 17.175,13.900 16.842 C 14.771 16.416,15.297 15.782,15.525 14.880 C 15.597 14.594,15.607 14.464,15.591 14.022 C 15.563 13.260,15.384 12.777,14.913 12.186 C 14.296 11.413,13.196 10.807,11.986 10.574 L 11.600 10.500 11.600 8.930 L 11.600 7.360 9.800 7.360 L 8.001 7.360 7.990 8.943 L 7.980 10.527 7.531 10.642 C 5.416 11.187,3.941 12.371,3.553 13.835 C 3.432 14.293,3.440 15.015,3.572 15.522 C 3.925 16.877,5.020 18.055,6.740 18.929 C 8.505 19.825,10.486 20.278,12.644 20.280 C 15.245 20.281,17.660 19.768,19.600 18.803 C 20.194 18.508,20.368 18.407,20.860 18.076 C 22.504 16.967,23.534 15.552,23.885 13.920 C 24.014 13.320,24.015 12.206,23.887 11.612 C 23.601 10.286,22.948 9.127,21.841 7.985 C 19.757 5.834,16.457 4.294,12.907 3.815 C 12.284 3.731,10.410 3.709,9.760 3.777 M13.170 9.103 L 13.180 10.847 13.606 11.015 C 14.643 11.426,15.406 12.069,15.797 12.860 C 16.041 13.354,16.098 13.614,16.098 14.240 C 16.099 14.846,16.031 15.141,15.776 15.648 L 15.639 15.920 16.179 15.920 L 16.720 15.920 16.720 11.640 L 16.720 7.360 14.940 7.360 L 13.159 7.360 13.170 9.103 " stroke="none" fill="black" fill-rule="evenodd"></path></svg>