<svg role="img" viewBox="0 0 24 24" xmlns="http://www.w3.org/2000/svg"><path d="M11.060 4.456 C 10.561 4.596,9.992 4.872,9.680 5.127 L 9.581 5.209 9.740 5.343 C 9.946 5.515,10.359 5.760,10.445 5.760 C 10.481 5.760,10.523 5.730,10.537 5.694 C 10.596 5.540,10.947 5.057,11.243 4.721 C 11.606 4.310,11.602 4.304,11.060 4.456 M12.472 4.428 C 12.618 4.530,13.130 5.159,13.324 5.475 C 13.482 5.732,13.510 5.760,13.600 5.738 C 13.726 5.708,14.239 5.392,14.337 5.283 C 14.409 5.204,14.409 5.200,14.315 5.124 C 14.152 4.990,13.711 4.740,13.440 4.627 C 13.160 4.511,12.599 4.359,12.464 4.362 C 12.382 4.364,12.382 4.366,12.472 4.428 M11.625 4.720 C 11.243 5.079,10.704 5.840,10.793 5.896 C 10.851 5.932,11.455 6.073,11.651 6.096 C 11.787 6.112,11.849 6.104,11.862 6.068 C 11.873 6.040,11.877 5.676,11.871 5.259 L 11.860 4.500 11.625 4.720 M12.160 5.310 L 12.160 6.118 12.350 6.096 C 12.599 6.066,13.167 5.929,13.208 5.888 C 13.280 5.816,12.801 5.135,12.402 4.741 L 12.160 4.503 12.160 5.310 M9.185 5.603 C 8.694 6.149,8.357 6.912,8.262 7.690 L 8.234 7.920 9.077 7.920 L 9.920 7.920 9.920 7.807 C 9.920 7.474,10.134 6.588,10.338 6.077 C 10.356 6.031,10.309 5.990,10.153 5.917 C 10.037 5.864,9.812 5.727,9.653 5.613 L 9.363 5.405 9.185 5.603 M14.420 5.560 C 14.310 5.647,14.112 5.775,13.980 5.845 C 13.628 6.031,13.636 6.020,13.721 6.212 C 13.856 6.518,13.997 7.075,14.048 7.500 L 14.097 7.920 14.932 7.920 L 15.768 7.920 15.740 7.710 C 15.632 6.879,15.311 6.142,14.834 5.631 L 14.620 5.402 14.420 5.560 M10.520 6.347 C 10.385 6.704,10.251 7.266,10.219 7.610 L 10.191 7.920 11.035 7.920 L 11.880 7.920 11.880 7.146 L 11.880 6.371 11.585 6.344 C 11.330 6.321,10.888 6.222,10.674 6.140 C 10.622 6.120,10.589 6.164,10.520 6.347 M13.100 6.206 C 12.968 6.249,12.698 6.307,12.500 6.334 L 12.140 6.383 12.129 7.151 L 12.118 7.920 12.959 7.920 L 13.800 7.920 13.800 7.803 C 13.800 7.581,13.714 7.070,13.633 6.805 C 13.511 6.410,13.398 6.119,13.367 6.124 C 13.352 6.126,13.232 6.163,13.100 6.206 M8.261 8.450 C 8.349 9.221,8.715 10.049,9.202 10.577 L 9.365 10.755 9.573 10.597 C 9.687 10.511,9.906 10.374,10.060 10.294 C 10.214 10.214,10.344 10.145,10.350 10.141 C 10.355 10.137,10.304 9.982,10.236 9.797 C 10.092 9.403,9.977 8.899,9.937 8.490 L 9.910 8.200 9.071 8.200 L 8.232 8.200 8.261 8.450 M10.217 8.510 C 10.260 8.991,10.483 9.849,10.598 9.972 C 10.614 9.989,10.778 9.965,10.962 9.917 C 11.146 9.869,11.423 9.819,11.578 9.805 L 11.860 9.780 11.871 8.990 L 11.882 8.200 11.035 8.200 L 10.189 8.200 10.217 8.510 M12.160 8.994 L 12.160 9.788 12.450 9.812 C 12.610 9.825,12.882 9.873,13.056 9.920 C 13.230 9.966,13.386 9.990,13.404 9.972 C 13.523 9.852,13.800 8.720,13.800 8.355 L 13.800 8.200 12.980 8.200 L 12.160 8.200 12.160 8.994 M14.080 8.353 C 14.080 8.728,13.854 9.699,13.695 10.010 C 13.639 10.118,13.640 10.120,13.844 10.230 C 13.957 10.290,14.181 10.433,14.343 10.547 L 14.638 10.755 14.803 10.567 C 15.288 10.018,15.604 9.330,15.717 8.572 C 15.741 8.414,15.760 8.266,15.760 8.242 C 15.760 8.214,15.484 8.200,14.920 8.200 L 14.080 8.200 14.080 8.353 M0.166 9.564 C 0.261 9.699,0.415 9.877,0.510 9.960 C 0.848 10.258,0.638 10.240,3.733 10.240 C 6.208 10.240,6.521 10.247,6.577 10.303 C 6.612 10.337,6.640 10.372,6.640 10.380 C 6.640 10.388,6.612 10.423,6.577 10.457 C 6.521 10.513,6.219 10.520,3.855 10.520 L 1.195 10.520 1.287 10.688 C 1.338 10.781,1.489 10.968,1.621 11.104 C 2.003 11.496,1.872 11.480,4.704 11.480 C 6.029 11.480,7.142 11.491,7.177 11.504 C 7.277 11.543,7.252 11.677,7.137 11.721 C 7.075 11.745,6.119 11.760,4.695 11.760 L 2.355 11.760 2.428 11.886 C 2.549 12.099,2.892 12.424,3.122 12.545 L 3.340 12.660 5.500 12.670 C 6.688 12.675,7.700 12.689,7.750 12.701 C 7.876 12.730,7.868 12.871,7.737 12.921 C 7.676 12.944,6.824 12.960,5.597 12.960 C 4.477 12.960,3.560 12.975,3.560 12.994 C 3.560 13.061,3.790 13.344,3.995 13.528 C 4.114 13.635,4.301 13.752,4.427 13.799 C 4.646 13.881,4.701 13.883,6.978 13.872 L 9.304 13.860 9.618 13.705 C 9.996 13.518,10.374 13.158,10.517 12.850 C 10.570 12.735,10.606 12.636,10.597 12.630 C 10.588 12.625,10.373 12.517,10.120 12.392 C 9.286 11.978,8.638 11.470,8.190 10.880 C 7.949 10.563,7.670 9.997,7.568 9.620 L 7.492 9.340 3.743 9.330 L -0.005 9.320 0.166 9.564 M16.501 9.370 C 16.493 9.398,16.456 9.528,16.419 9.660 C 16.247 10.280,15.858 10.901,15.323 11.411 C 14.896 11.817,14.481 12.097,13.870 12.393 C 13.330 12.654,13.331 12.653,13.588 13.032 C 13.786 13.323,14.038 13.535,14.395 13.711 L 14.696 13.860 17.078 13.860 L 19.460 13.860 19.684 13.750 C 19.963 13.613,20.438 13.135,20.440 12.990 C 20.440 12.973,19.523 12.960,18.403 12.960 C 17.176 12.960,16.324 12.944,16.263 12.921 C 16.132 12.871,16.124 12.730,16.250 12.701 C 16.300 12.689,17.312 12.675,18.500 12.670 L 20.660 12.660 20.870 12.550 C 21.096 12.430,21.456 12.091,21.572 11.887 L 21.645 11.760 19.287 11.760 C 17.036 11.760,16.925 11.757,16.836 11.685 C 16.756 11.620,16.750 11.600,16.796 11.545 C 16.844 11.486,17.092 11.480,19.278 11.480 C 22.126 11.480,21.994 11.496,22.377 11.106 C 22.511 10.971,22.662 10.784,22.713 10.690 L 22.805 10.520 20.166 10.520 C 18.714 10.520,17.498 10.509,17.463 10.496 C 17.428 10.482,17.400 10.430,17.400 10.380 C 17.400 10.330,17.428 10.278,17.463 10.264 C 17.498 10.251,18.768 10.240,20.285 10.240 C 22.580 10.240,23.065 10.230,23.179 10.183 C 23.365 10.105,23.659 9.827,23.847 9.550 L 24.003 9.320 20.260 9.320 C 17.301 9.320,16.514 9.330,16.501 9.370 M11.083 10.162 C 10.920 10.205,10.778 10.248,10.768 10.259 C 10.696 10.331,11.434 11.305,11.733 11.532 L 11.880 11.644 11.880 10.862 L 11.880 10.080 11.630 10.082 C 11.492 10.083,11.247 10.119,11.083 10.162 M12.160 10.862 L 12.160 11.657 12.345 11.478 C 12.697 11.138,13.293 10.320,13.233 10.259 C 13.191 10.218,12.709 10.116,12.450 10.093 L 12.160 10.068 12.160 10.862 M10.127 10.550 C 9.991 10.633,9.816 10.751,9.738 10.813 C 9.565 10.951,9.576 10.970,9.976 11.219 C 10.406 11.487,10.953 11.694,11.458 11.780 L 11.615 11.806 11.278 11.450 C 11.092 11.254,10.841 10.939,10.720 10.748 C 10.599 10.558,10.472 10.402,10.437 10.401 C 10.403 10.401,10.263 10.467,10.127 10.550 M13.280 10.748 C 13.159 10.939,12.907 11.255,12.720 11.452 C 12.386 11.805,12.383 11.810,12.520 11.782 C 13.159 11.653,13.582 11.494,14.024 11.219 C 14.391 10.990,14.437 10.937,14.336 10.858 C 14.156 10.717,13.618 10.400,13.562 10.401 C 13.528 10.402,13.401 10.558,13.280 10.748 M4.380 14.930 C 4.327 15.149,3.440 19.623,3.440 19.669 C 3.440 19.709,3.617 19.720,4.231 19.720 L 5.022 19.720 5.175 18.950 C 5.260 18.527,5.477 17.428,5.658 16.510 L 5.987 14.840 5.194 14.840 C 4.405 14.840,4.401 14.840,4.380 14.930 M7.577 16.509 C 7.123 17.428,6.583 18.527,6.377 18.950 L 6.004 19.720 6.796 19.720 L 7.587 19.720 7.700 19.440 L 7.813 19.160 8.603 19.160 L 9.394 19.160 9.415 19.270 C 9.426 19.331,9.447 19.457,9.461 19.550 L 9.487 19.720 10.223 19.720 L 10.958 19.720 10.932 19.590 C 10.918 19.518,10.697 18.425,10.441 17.160 L 9.976 14.860 9.190 14.849 L 8.404 14.838 7.577 16.509 M11.709 15.392 C 11.649 15.696,11.600 15.966,11.600 15.992 C 11.600 16.027,11.780 16.040,12.280 16.040 C 12.866 16.040,12.960 16.049,12.960 16.102 C 12.960 16.136,12.843 16.948,12.700 17.908 C 12.557 18.867,12.440 19.667,12.440 19.686 C 12.440 19.705,12.790 19.720,13.218 19.720 L 13.996 19.720 14.019 19.590 C 14.032 19.518,14.150 18.713,14.282 17.800 C 14.414 16.887,14.530 16.117,14.540 16.090 C 14.553 16.053,14.725 16.040,15.212 16.040 L 15.867 16.040 15.974 15.484 C 16.032 15.179,16.080 14.909,16.080 14.884 C 16.080 14.852,15.481 14.840,13.949 14.840 L 11.817 14.840 11.709 15.392 M17.295 16.189 C 16.930 16.932,16.391 18.030,16.097 18.630 L 15.564 19.720 16.357 19.720 L 17.150 19.720 17.265 19.440 L 17.380 19.160 18.168 19.160 L 18.955 19.160 18.980 19.350 C 19.033 19.762,18.942 19.720,19.780 19.720 L 20.518 19.720 20.496 19.610 C 20.484 19.550,20.262 18.456,20.004 17.180 L 19.534 14.860 18.746 14.849 L 17.959 14.838 17.295 16.189 M9.220 17.990 L 9.244 18.120 8.742 18.120 C 8.466 18.120,8.240 18.114,8.240 18.106 C 8.240 18.098,8.395 17.724,8.584 17.276 C 8.773 16.827,8.939 16.433,8.952 16.400 C 8.965 16.367,9.026 16.682,9.086 17.100 C 9.147 17.518,9.207 17.918,9.220 17.990 M18.659 17.200 C 18.716 17.607,18.771 17.980,18.782 18.030 C 18.801 18.120,18.799 18.120,18.296 18.120 C 17.909 18.120,17.796 18.108,17.811 18.070 C 17.897 17.849,18.457 16.523,18.491 16.460 C 18.545 16.359,18.538 16.329,18.659 17.200 " stroke="none" fill="black" fill-rule="evenodd"></path></svg>