<svg xmlns="http://www.w3.org/2000/svg" viewBox="0 0 24 24" role="img"><path d="M12.688 4.423 C 11.263 4.652,9.806 5.455,8.898 6.512 C 8.676 6.771,8.301 7.297,8.138 7.579 C 8.099 7.648,8.078 7.645,7.770 7.526 C 6.105 6.884,4.241 7.599,3.461 9.178 C 3.286 9.533,3.121 10.097,3.120 10.345 C 3.120 10.465,3.100 10.480,2.670 10.691 C 2.127 10.958,1.667 11.294,1.286 11.702 C -0.471 13.583,-0.410 16.508,1.423 18.291 C 1.963 18.816,2.530 19.164,3.225 19.397 C 3.996 19.655,3.499 19.643,12.262 19.630 L 20.220 19.619 20.555 19.529 C 22.473 19.014,23.752 17.535,23.965 15.585 C 24.071 14.621,23.775 13.487,23.197 12.636 C 22.559 11.697,21.483 10.995,20.350 10.780 C 20.175 10.747,20.027 10.720,20.022 10.720 C 20.016 10.720,20.001 10.518,19.988 10.270 C 19.910 8.763,19.259 7.335,18.142 6.218 C 17.229 5.305,16.211 4.754,14.927 4.477 C 14.406 4.365,13.225 4.336,12.688 4.423 " stroke="none" fill="black" fill-rule="evenodd"></path></svg>