<svg role="img" viewBox="0 0 24 24" xmlns="http://www.w3.org/2000/svg"><path d="M13.980 0.028 C 13.270 0.095,12.133 0.360,11.528 0.602 C 10.421 1.044,9.150 1.889,8.124 2.864 C 6.102 4.786,4.610 7.659,4.083 10.640 C 3.977 11.242,3.914 11.936,3.955 12.048 C 3.984 12.126,3.998 12.110,4.072 11.913 C 4.118 11.790,4.185 11.575,4.221 11.435 C 4.341 10.966,4.686 9.946,4.929 9.343 C 5.568 7.758,6.323 6.418,7.185 5.340 C 7.603 4.817,8.564 3.846,9.040 3.465 C 10.795 2.061,12.735 1.320,14.653 1.320 C 16.331 1.320,17.609 1.734,19.184 2.786 C 19.548 3.029,19.802 3.172,19.900 3.188 L 20.052 3.212 20.031 3.027 C 19.995 2.711,19.715 2.275,19.240 1.798 C 18.255 0.807,16.967 0.207,15.472 0.043 C 15.106 0.003,14.337 -0.005,13.980 0.028 M12.993 4.638 C 12.303 4.765,11.823 5.015,11.339 5.499 C 10.723 6.116,10.483 6.657,10.450 7.503 C 10.429 8.036,10.502 8.439,10.697 8.865 C 11.280 10.139,12.676 10.855,14.032 10.577 C 15.200 10.336,16.085 9.494,16.382 8.340 C 16.487 7.930,16.480 7.272,16.367 6.868 C 16.002 5.570,14.902 4.678,13.594 4.622 C 13.366 4.612,13.096 4.619,12.993 4.638 M15.180 12.163 C 14.775 12.381,14.000 12.644,13.460 12.748 C 13.202 12.798,12.893 12.818,12.369 12.819 L 11.638 12.820 11.650 17.540 L 11.661 22.260 11.752 22.554 C 11.881 22.973,11.979 23.145,12.246 23.423 C 12.627 23.820,13.056 24.000,13.620 24.000 C 14.570 24.000,15.279 23.433,15.511 22.487 C 15.569 22.248,15.578 21.672,15.589 17.090 C 15.597 14.268,15.589 11.962,15.571 11.965 C 15.554 11.968,15.378 12.057,15.180 12.163 " stroke="none" fill="black" fill-rule="evenodd"></path></svg>