<svg role="img" viewBox="0 0 24 24" xmlns="http://www.w3.org/2000/svg"><path d="M2.400 0.062 C 1.428 0.272,0.610 0.944,0.235 1.839 C -0.015 2.437,0.000 1.810,0.000 12.000 C 0.000 20.305,0.007 21.316,0.063 21.592 C 0.306 22.776,1.224 23.694,2.408 23.937 C 2.684 23.993,3.695 24.000,12.000 24.000 C 20.305 24.000,21.316 23.993,21.592 23.937 C 22.776 23.694,23.694 22.776,23.937 21.592 C 23.993 21.316,24.000 20.305,24.000 12.000 C 24.000 3.695,23.993 2.684,23.937 2.408 C 23.694 1.222,22.778 0.306,21.592 0.063 C 21.316 0.007,20.310 0.000,11.972 0.003 C 4.147 0.006,2.618 0.015,2.400 0.062 M12.447 3.343 C 12.539 3.407,12.656 3.539,12.707 3.636 L 12.800 3.813 12.800 9.760 C 12.800 14.204,12.788 15.742,12.753 15.844 C 12.677 16.064,12.557 16.196,12.331 16.306 C 12.164 16.388,12.079 16.406,11.937 16.390 C 11.691 16.362,11.407 16.179,11.304 15.980 L 11.220 15.820 11.220 9.773 L 11.220 3.727 11.340 3.557 C 11.601 3.186,12.091 3.092,12.447 3.343 M8.439 3.735 C 8.522 3.790,8.633 3.903,8.685 3.987 L 8.780 4.140 8.780 9.747 L 8.780 15.353 8.659 15.527 C 8.336 15.992,7.664 15.992,7.341 15.527 L 7.220 15.353 7.210 9.832 C 7.202 6.027,7.212 4.263,7.242 4.154 C 7.293 3.963,7.545 3.699,7.728 3.643 C 7.938 3.579,8.268 3.621,8.439 3.735 M16.439 3.735 C 16.522 3.790,16.633 3.903,16.685 3.987 L 16.780 4.140 16.780 9.747 L 16.780 15.353 16.659 15.527 C 16.336 15.992,15.664 15.992,15.341 15.527 L 15.220 15.353 15.210 9.832 C 15.202 6.027,15.212 4.263,15.242 4.154 C 15.293 3.963,15.545 3.699,15.728 3.643 C 15.938 3.579,16.268 3.621,16.439 3.735 M4.439 5.335 C 4.522 5.390,4.633 5.503,4.685 5.587 L 4.780 5.740 4.792 9.500 C 4.801 12.225,4.791 13.303,4.758 13.416 C 4.692 13.646,4.570 13.788,4.344 13.900 C 4.091 14.026,3.909 14.026,3.656 13.900 C 3.440 13.793,3.321 13.660,3.247 13.444 C 3.184 13.261,3.180 5.974,3.243 5.747 C 3.294 5.562,3.549 5.298,3.728 5.243 C 3.938 5.179,4.268 5.221,4.439 5.335 M20.439 5.335 C 20.522 5.390,20.633 5.503,20.685 5.587 L 20.780 5.740 20.792 9.500 C 20.801 12.225,20.791 13.303,20.758 13.416 C 20.692 13.646,20.570 13.788,20.344 13.900 C 20.091 14.026,19.909 14.026,19.656 13.900 C 19.440 13.793,19.321 13.660,19.247 13.444 C 19.184 13.261,19.180 5.974,19.243 5.747 C 19.294 5.562,19.549 5.298,19.728 5.243 C 19.938 5.179,20.268 5.221,20.439 5.335 M4.347 16.890 C 4.438 16.940,4.700 17.108,4.931 17.265 C 5.946 17.952,7.408 18.545,8.876 18.864 C 11.321 19.395,14.076 19.275,16.365 18.537 C 17.517 18.166,18.796 17.539,19.388 17.055 C 19.481 16.979,19.620 16.891,19.697 16.859 C 20.175 16.659,20.724 16.987,20.786 17.509 C 20.840 17.963,20.560 18.266,19.512 18.887 C 17.843 19.874,15.822 20.499,13.560 20.727 C 12.501 20.834,10.722 20.785,9.560 20.616 C 7.444 20.309,5.343 19.525,3.868 18.490 C 3.455 18.201,3.300 18.035,3.240 17.819 C 3.053 17.153,3.754 16.565,4.347 16.890 " stroke="none" fill="black" fill-rule="evenodd"></path></svg>