<svg role="img" viewBox="0 0 24 24" xmlns="http://www.w3.org/2000/svg"><path d="M1.666 0.063 C 1.100 0.200,0.536 0.641,0.264 1.157 C -0.019 1.697,0.001 0.858,0.001 12.000 C 0.001 23.142,-0.019 22.303,0.264 22.843 C 0.447 23.191,0.809 23.553,1.157 23.736 C 1.697 24.019,0.858 23.999,12.000 23.999 C 23.152 23.999,22.303 24.020,22.848 23.733 C 23.372 23.458,23.801 22.901,23.939 22.316 C 23.991 22.091,23.999 20.826,23.999 12.000 C 23.999 3.174,23.991 1.909,23.939 1.684 C 23.801 1.099,23.372 0.542,22.848 0.267 C 22.302 -0.020,23.155 0.001,11.980 0.004 C 3.425 0.006,1.865 0.015,1.666 0.063 M8.661 4.819 C 8.961 4.965,9.217 5.223,9.353 5.512 C 9.445 5.709,9.460 5.792,9.460 6.120 C 9.460 6.461,9.448 6.524,9.342 6.733 C 9.098 7.216,8.631 7.508,8.040 7.548 C 7.638 7.575,7.364 7.473,7.045 7.178 C 6.712 6.870,6.583 6.574,6.582 6.120 C 6.582 5.837,6.599 5.742,6.686 5.555 C 6.796 5.320,7.012 5.054,7.207 4.915 C 7.581 4.648,8.226 4.606,8.661 4.819 M17.239 8.807 C 17.871 8.957,18.462 9.440,18.754 10.044 C 18.969 10.487,19.039 10.796,19.066 11.400 C 19.097 12.105,19.033 12.448,18.541 14.216 C 18.310 15.050,18.100 15.847,18.076 15.988 C 17.991 16.473,18.112 16.802,18.404 16.881 C 18.829 16.996,19.258 16.577,19.602 15.709 C 19.674 15.528,19.738 15.373,19.745 15.365 C 19.754 15.353,20.631 15.673,20.674 15.705 C 20.682 15.710,20.638 15.865,20.578 16.047 C 20.018 17.727,19.035 18.542,17.660 18.466 C 17.032 18.431,16.626 18.280,16.247 17.939 C 15.866 17.596,15.686 17.172,15.651 16.531 C 15.620 15.960,15.667 15.722,16.152 14.002 L 16.576 12.500 16.578 12.040 C 16.579 11.655,16.566 11.550,16.495 11.398 C 16.296 10.965,15.926 10.721,15.421 10.689 C 14.571 10.634,13.946 11.086,13.524 12.060 C 13.427 12.284,13.162 13.274,12.642 15.360 L 11.900 18.340 10.740 18.351 C 10.103 18.356,9.560 18.353,9.534 18.343 C 9.502 18.331,9.552 18.069,9.700 17.478 C 9.817 17.012,9.900 16.647,9.883 16.666 C 9.867 16.684,9.766 16.826,9.658 16.980 C 8.984 17.943,8.034 18.479,7.000 18.479 C 5.497 18.479,4.713 17.552,4.878 15.972 C 4.909 15.673,5.096 14.829,5.484 13.240 C 5.792 11.975,6.054 10.909,6.065 10.870 C 6.084 10.805,6.026 10.800,5.243 10.800 C 4.648 10.800,4.400 10.787,4.400 10.755 C 4.400 10.692,4.834 9.079,4.880 8.970 L 4.918 8.880 6.932 8.880 C 8.040 8.880,8.957 8.890,8.970 8.903 C 8.982 8.916,8.951 9.082,8.900 9.273 C 8.849 9.464,8.461 10.988,8.038 12.660 C 7.342 15.415,7.268 15.739,7.250 16.120 C 7.233 16.512,7.238 16.548,7.322 16.655 C 7.447 16.812,7.631 16.880,7.931 16.880 C 8.559 16.880,9.285 16.491,9.781 15.890 C 10.205 15.376,10.268 15.198,10.823 12.960 C 11.098 11.849,11.333 10.909,11.344 10.870 C 11.364 10.805,11.306 10.800,10.500 10.800 C 9.694 10.800,9.636 10.795,9.656 10.730 C 9.668 10.692,9.769 10.327,9.880 9.920 C 9.992 9.513,10.102 9.121,10.125 9.050 L 10.166 8.920 12.026 8.920 C 13.778 8.920,13.884 8.924,13.865 8.990 C 13.804 9.207,13.436 10.929,13.448 10.942 C 13.457 10.950,13.557 10.816,13.672 10.645 C 14.285 9.728,15.286 8.973,16.140 8.784 C 16.439 8.717,16.906 8.727,17.239 8.807 " stroke="none" fill="black" fill-rule="evenodd"></path></svg>