<svg role="img" xmlns="http://www.w3.org/2000/svg" viewBox="0 0 24 24"><path d="M0.792 6.094 C 0.594 6.149,0.541 6.182,0.326 6.378 C 0.042 6.638,-0.062 7.046,0.054 7.443 C 0.181 7.878,0.534 8.157,0.998 8.191 C 1.472 8.224,1.841 8.038,2.070 7.647 C 2.165 7.485,2.180 7.417,2.180 7.140 C 2.180 6.774,2.119 6.613,1.890 6.377 C 1.624 6.104,1.171 5.987,0.792 6.094 M7.820 6.126 C 5.713 6.396,4.132 7.766,3.540 9.835 C 3.340 10.532,3.271 11.074,3.268 11.960 C 3.262 13.324,3.462 14.259,3.971 15.255 C 4.456 16.204,5.303 17.029,6.214 17.437 C 7.527 18.027,9.253 18.111,10.640 17.655 C 12.854 16.927,14.160 14.830,14.160 12.000 C 14.160 8.767,12.466 6.558,9.667 6.142 C 9.214 6.075,8.284 6.067,7.820 6.126 M18.600 6.142 C 17.583 6.302,16.769 6.695,16.160 7.317 C 15.518 7.973,15.249 8.696,15.290 9.660 C 15.338 10.776,15.821 11.525,16.853 12.081 C 17.334 12.341,17.735 12.469,19.227 12.840 C 20.884 13.251,21.238 13.392,21.591 13.778 C 21.855 14.067,21.936 14.304,21.911 14.715 C 21.869 15.426,21.307 15.977,20.410 16.187 C 19.982 16.288,19.134 16.287,18.720 16.185 C 17.820 15.964,17.185 15.412,17.036 14.721 L 16.993 14.520 15.992 14.520 L 14.991 14.520 15.020 14.790 C 15.164 16.139,16.059 17.180,17.484 17.655 C 18.906 18.129,20.827 18.023,22.100 17.401 C 23.005 16.959,23.587 16.291,23.864 15.379 C 23.962 15.059,23.974 14.955,23.975 14.420 C 23.977 13.961,23.961 13.759,23.905 13.560 C 23.681 12.748,23.174 12.173,22.300 11.740 C 21.808 11.496,21.262 11.325,20.200 11.082 C 18.989 10.806,18.641 10.704,18.243 10.513 C 17.590 10.199,17.319 9.791,17.374 9.204 C 17.457 8.314,18.288 7.760,19.540 7.760 C 20.786 7.760,21.603 8.297,21.821 9.260 L 21.866 9.460 22.833 9.471 L 23.800 9.481 23.800 9.319 C 23.800 9.083,23.689 8.584,23.571 8.289 C 23.360 7.760,22.891 7.187,22.391 6.846 C 21.872 6.492,21.088 6.214,20.351 6.121 C 19.906 6.065,19.016 6.076,18.600 6.142 M9.740 7.976 C 10.613 8.273,11.294 8.938,11.671 9.860 C 11.937 10.511,12.040 11.107,12.040 11.995 C 12.040 13.211,11.805 14.108,11.290 14.865 C 10.406 16.162,8.633 16.579,7.181 15.829 C 6.756 15.610,6.217 15.077,5.963 14.626 C 5.769 14.282,5.561 13.706,5.461 13.240 C 5.359 12.766,5.336 11.637,5.416 11.089 C 5.635 9.611,6.263 8.631,7.316 8.127 C 7.810 7.890,8.088 7.839,8.800 7.854 C 9.350 7.865,9.456 7.879,9.740 7.976 M0.120 13.540 L 0.120 17.760 1.120 17.760 L 2.120 17.760 2.120 13.540 L 2.120 9.320 1.120 9.320 L 0.120 9.320 0.120 13.540 " stroke="none" fill="black" fill-rule="evenodd"></path></svg>