<svg role="img" viewBox="0 0 24 24" xmlns="http://www.w3.org/2000/svg"><path d="M8.440 0.066 C 8.099 0.096,7.595 0.166,7.320 0.223 C 6.504 0.391,5.335 0.806,4.380 1.265 C 4.101 1.399,4.117 1.349,4.038 2.275 C 3.984 2.910,4.004 3.796,4.080 4.089 C 4.140 4.322,4.279 4.480,4.423 4.480 C 4.639 4.480,4.836 4.315,5.212 3.821 C 5.883 2.938,6.320 2.587,7.036 2.357 C 8.185 1.988,10.554 1.855,12.032 2.077 C 13.877 2.354,15.165 2.964,16.303 4.098 C 16.897 4.691,17.192 5.103,17.564 5.865 C 18.152 7.067,18.568 8.921,18.506 10.060 C 18.451 11.066,18.006 12.069,17.139 13.140 C 16.532 13.890,15.497 14.820,14.521 15.492 C 13.427 16.245,12.846 17.079,12.509 18.380 C 12.356 18.970,12.310 19.351,12.310 20.020 C 12.311 20.881,12.478 22.017,12.626 22.163 C 12.722 22.258,13.035 22.340,13.172 22.306 C 13.235 22.290,13.305 22.228,13.344 22.152 C 13.421 22.002,13.408 21.603,13.298 20.820 C 13.129 19.610,13.358 18.618,14.005 17.760 C 14.326 17.334,14.657 17.059,15.620 16.423 C 16.567 15.796,16.898 15.536,17.535 14.920 C 18.789 13.706,19.607 12.326,19.907 10.920 C 20.017 10.408,20.006 9.363,19.885 8.800 C 19.785 8.333,19.426 7.226,19.138 6.496 C 18.233 4.204,16.911 2.464,15.280 1.418 C 14.880 1.162,14.109 0.799,13.640 0.646 C 12.747 0.354,11.456 0.124,10.247 0.042 C 9.508 -0.009,9.247 -0.005,8.440 0.066 M7.693 10.194 C 6.777 10.511,6.528 11.731,6.984 13.678 C 7.038 13.908,7.110 14.127,7.145 14.165 C 7.226 14.255,7.474 14.296,7.614 14.242 C 7.849 14.153,7.887 13.818,7.776 12.828 C 7.698 12.129,7.717 11.583,7.832 11.288 C 8.004 10.844,8.277 10.631,8.564 10.716 C 8.829 10.796,8.922 11.001,9.001 11.680 C 9.075 12.312,9.199 12.720,9.317 12.720 C 9.353 12.720,9.516 12.601,9.681 12.455 C 10.253 11.949,10.817 11.595,11.063 11.588 C 11.230 11.583,11.300 11.644,11.385 11.868 C 11.478 12.111,11.437 12.256,11.059 13.020 C 10.831 13.480,10.686 13.714,10.437 14.020 C 10.053 14.492,9.920 14.737,9.895 15.015 C 9.873 15.252,9.931 15.389,10.088 15.477 C 10.261 15.575,10.435 15.464,10.689 15.096 C 10.805 14.927,11.096 14.526,11.336 14.205 C 12.004 13.307,12.224 12.777,12.268 11.960 C 12.302 11.317,12.141 10.815,11.830 10.593 C 11.722 10.516,11.650 10.500,11.399 10.500 C 11.142 10.500,11.061 10.518,10.839 10.628 C 10.522 10.784,10.256 11.008,9.896 11.420 L 9.622 11.734 9.576 11.437 C 9.496 10.922,9.323 10.613,8.986 10.385 C 8.604 10.126,8.104 10.052,7.693 10.194 M5.045 15.868 C 4.775 16.001,4.675 16.321,4.777 16.720 C 4.864 17.062,5.009 17.294,5.338 17.621 C 6.024 18.304,7.172 18.887,8.263 19.107 C 8.707 19.196,10.005 19.209,10.380 19.127 C 10.759 19.045,11.226 18.882,11.339 18.794 C 11.469 18.691,11.560 18.517,11.560 18.368 C 11.560 18.088,11.216 18.013,10.656 18.172 C 10.081 18.335,9.845 18.372,9.400 18.369 C 8.328 18.360,7.509 17.915,6.595 16.845 C 5.892 16.022,5.827 15.951,5.704 15.876 C 5.548 15.781,5.230 15.777,5.045 15.868 M4.603 18.485 C 4.191 18.524,4.111 18.695,4.341 19.047 C 4.608 19.454,5.385 20.125,6.090 20.554 C 7.272 21.275,8.683 21.685,9.980 21.685 C 10.493 21.685,11.258 21.596,11.401 21.520 C 11.559 21.435,11.640 21.277,11.640 21.053 C 11.640 20.802,11.571 20.618,11.428 20.486 C 11.342 20.406,11.296 20.395,11.133 20.411 C 9.960 20.531,9.873 20.534,9.350 20.488 C 8.697 20.429,8.353 20.359,7.756 20.161 C 6.891 19.874,6.176 19.452,5.491 18.826 C 5.085 18.456,5.050 18.442,4.603 18.485 M4.783 20.762 C 4.618 20.811,4.372 21.066,4.295 21.267 C 4.169 21.599,4.284 21.926,4.659 22.305 C 5.043 22.691,5.642 23.034,6.532 23.377 C 8.788 24.246,10.828 24.195,11.804 23.245 C 12.061 22.995,12.110 22.835,11.967 22.706 C 11.861 22.611,11.723 22.624,11.434 22.758 C 11.295 22.823,11.018 22.926,10.820 22.986 C 10.496 23.085,10.399 23.096,9.860 23.097 C 9.296 23.097,9.224 23.088,8.660 22.945 C 7.037 22.534,6.316 22.177,5.839 21.551 C 5.415 20.994,5.114 20.713,4.952 20.723 C 4.923 20.725,4.848 20.743,4.783 20.762 " stroke="none" fill="black" fill-rule="evenodd"></path></svg>