<svg role="img" xmlns="http://www.w3.org/2000/svg" viewBox="0 0 24 24"><path d="M11.619 8.881 C 10.080 8.985,9.026 9.383,8.358 10.111 C 7.909 10.602,7.680 11.240,7.680 12.000 C 7.680 13.424,8.499 14.422,10.023 14.856 C 11.281 15.215,12.895 15.235,14.660 14.915 C 14.902 14.871,15.168 14.818,15.250 14.796 L 15.400 14.757 15.400 14.118 C 15.400 13.767,15.390 13.480,15.377 13.480 C 15.364 13.480,15.224 13.537,15.067 13.606 C 13.627 14.238,12.238 14.316,11.318 13.815 C 11.054 13.672,10.700 13.294,10.577 13.025 C 10.288 12.393,10.297 11.552,10.599 10.937 C 10.752 10.624,11.115 10.275,11.448 10.120 C 11.881 9.918,12.161 9.865,12.760 9.868 C 13.547 9.873,14.251 10.031,15.052 10.383 C 15.224 10.458,15.372 10.520,15.382 10.520 C 15.392 10.520,15.400 10.233,15.400 9.882 L 15.400 9.243 15.250 9.204 C 14.283 8.951,12.685 8.808,11.619 8.881 M4.352 11.010 C 4.340 12.961,4.339 12.982,4.248 13.208 C 4.047 13.705,3.587 14.040,2.993 14.121 C 2.382 14.205,1.337 14.018,0.539 13.682 C 0.320 13.590,0.109 13.504,0.070 13.492 C 0.005 13.472,0.000 13.520,0.000 14.114 L -0.000 14.757 0.150 14.797 C 0.665 14.934,1.674 15.070,2.540 15.119 C 4.609 15.237,6.075 14.819,6.654 13.946 C 6.733 13.828,6.847 13.589,6.908 13.416 L 7.019 13.100 7.032 11.070 L 7.045 9.040 5.704 9.040 L 4.364 9.040 4.352 11.010 M16.280 12.000 L 16.280 14.960 19.352 14.960 C 22.719 14.960,22.639 14.965,23.148 14.718 C 23.467 14.562,23.738 14.297,23.872 14.009 C 24.018 13.693,24.024 13.200,23.885 12.892 C 23.693 12.463,23.137 12.082,22.563 11.986 C 22.227 11.929,22.183 11.897,22.393 11.861 C 22.613 11.824,22.996 11.636,23.178 11.477 C 23.760 10.965,23.782 10.042,23.223 9.527 C 22.999 9.320,22.788 9.214,22.410 9.118 C 22.124 9.044,21.945 9.040,19.194 9.040 L 16.280 9.040 16.280 12.000 M20.750 10.045 C 21.010 10.171,21.140 10.389,21.140 10.700 C 21.140 11.011,21.010 11.229,20.750 11.355 C 20.587 11.434,20.511 11.440,19.647 11.440 L 18.720 11.440 18.720 10.700 L 18.720 9.960 19.647 9.960 C 20.511 9.960,20.587 9.966,20.750 10.045 M20.721 12.404 C 21.411 12.552,21.588 13.455,21.007 13.859 L 20.833 13.980 19.777 13.992 L 18.720 14.004 18.720 13.182 L 18.720 12.360 19.618 12.360 C 20.120 12.360,20.607 12.379,20.721 12.404 " stroke="none" fill="black" fill-rule="evenodd"></path></svg>