<svg role="img" viewBox="0 0 24 24" xmlns="http://www.w3.org/2000/svg"><path d="M10.980 0.041 C 8.653 0.276,6.442 1.180,4.580 2.658 C 4.078 3.056,3.250 3.862,2.831 4.360 C 1.757 5.637,0.955 7.137,0.502 8.713 C 0.205 9.750,0.083 10.550,0.053 11.660 C -0.006 13.832,0.416 15.701,1.384 17.558 C 1.926 18.597,2.573 19.464,3.476 20.360 C 4.946 21.819,6.765 22.898,8.760 23.493 C 9.143 23.608,9.147 23.612,8.519 23.258 C 6.146 21.920,4.599 19.529,4.085 16.400 C 3.876 15.131,3.807 13.569,3.916 12.560 C 4.197 9.937,5.361 7.806,7.160 6.618 C 8.181 5.943,9.139 5.641,10.262 5.637 C 11.370 5.634,11.991 5.814,12.860 6.391 C 14.431 7.433,15.416 9.113,15.637 11.128 C 15.932 13.812,14.871 16.243,12.809 17.611 C 12.572 17.768,12.457 17.866,12.489 17.884 C 12.733 18.020,13.814 18.039,14.403 17.919 C 16.754 17.440,18.798 15.291,19.480 12.580 C 19.694 11.734,19.738 11.290,19.737 10.040 C 19.735 8.821,19.694 8.362,19.496 7.349 C 19.094 5.285,18.216 3.539,16.939 2.262 C 16.250 1.573,15.468 0.998,14.785 0.678 C 14.372 0.484,13.466 0.178,13.070 0.097 C 12.714 0.025,11.473 -0.008,10.980 0.041 M15.743 0.833 C 17.412 1.928,18.581 3.390,19.339 5.331 C 20.204 7.547,20.428 10.616,19.881 12.757 C 19.145 15.641,16.981 17.863,14.420 18.365 C 13.972 18.453,12.977 18.434,12.560 18.330 C 11.686 18.111,10.836 17.600,10.080 16.838 C 9.207 15.958,8.576 14.710,8.340 13.400 C 8.249 12.892,8.215 11.644,8.278 11.132 C 8.531 9.078,9.534 7.411,11.154 6.353 C 11.328 6.240,11.426 6.153,11.394 6.142 C 11.081 6.030,10.032 6.008,9.495 6.102 C 8.787 6.226,8.057 6.526,7.393 6.967 C 6.860 7.323,6.062 8.130,5.684 8.698 C 5.001 9.723,4.566 10.914,4.372 12.285 C 4.286 12.898,4.275 14.744,4.354 15.420 C 4.715 18.515,5.796 20.728,7.686 22.241 C 8.749 23.093,10.080 23.691,11.420 23.919 C 11.801 23.984,11.943 23.989,12.480 23.957 C 14.325 23.848,15.876 23.427,17.462 22.604 C 18.598 22.015,19.532 21.321,20.500 20.345 C 21.465 19.372,22.143 18.443,22.701 17.328 C 23.510 15.710,23.899 14.150,23.948 12.319 C 23.991 10.735,23.800 9.464,23.302 8.011 C 22.144 4.632,19.350 1.927,15.706 0.657 C 15.489 0.582,15.302 0.520,15.289 0.520 C 15.276 0.520,15.480 0.661,15.743 0.833 " stroke="none" fill="black" fill-rule="evenodd"></path></svg>