<svg role="img" viewBox="0 0 24 24" xmlns="http://www.w3.org/2000/svg"><path d="M10.940 0.046 C 6.261 0.450,2.189 3.634,0.659 8.086 C -1.484 14.319,1.792 21.115,7.997 23.309 C 12.365 24.853,17.202 23.757,20.480 20.480 C 24.710 16.252,25.180 9.563,21.584 4.785 C 19.094 1.477,15.075 -0.312,10.940 0.046 M13.360 1.305 C 15.339 1.556,17.190 2.338,18.760 3.586 C 19.194 3.931,20.065 4.801,20.415 5.240 C 22.310 7.613,23.120 10.657,22.656 13.660 C 22.192 16.669,20.458 19.330,17.840 21.049 C 17.351 21.370,16.312 21.891,15.746 22.100 C 14.600 22.521,13.247 22.761,12.020 22.760 C 6.898 22.756,2.470 19.134,1.459 14.120 C 1.303 13.346,1.263 12.903,1.264 11.960 C 1.265 10.993,1.317 10.495,1.505 9.640 C 2.373 5.712,5.431 2.556,9.337 1.559 C 10.671 1.219,12.016 1.134,13.360 1.305 M10.140 2.708 C 9.476 2.767,8.615 3.010,7.980 3.318 C 7.603 3.500,7.047 3.838,7.220 3.780 C 7.484 3.690,8.075 3.561,8.417 3.518 C 9.413 3.393,10.617 3.606,11.540 4.070 C 12.261 4.432,13.008 5.059,13.504 5.718 C 13.949 6.308,14.333 7.172,14.507 7.972 C 14.584 8.329,14.609 9.528,14.547 9.891 L 14.515 10.081 14.247 9.846 C 13.842 9.489,13.398 9.186,12.926 8.946 C 12.350 8.653,11.971 8.521,11.191 8.344 L 11.083 8.319 11.206 8.110 C 11.439 7.711,11.698 7.379,12.058 7.014 C 12.380 6.688,12.402 6.657,12.260 6.729 C 11.746 6.989,10.976 7.575,10.591 7.997 L 10.380 8.228 9.835 8.254 C 6.841 8.393,4.470 10.397,3.832 13.330 C 3.756 13.681,3.743 13.860,3.743 14.580 C 3.743 15.297,3.756 15.479,3.831 15.826 C 4.023 16.704,4.398 17.555,4.912 18.277 C 5.412 18.981,6.248 19.720,6.980 20.106 L 7.260 20.253 6.876 19.852 C 5.325 18.230,4.890 15.916,5.746 13.842 C 6.020 13.180,6.396 12.626,6.950 12.068 C 7.402 11.614,7.863 11.287,8.460 10.995 C 8.996 10.733,9.059 10.717,9.027 10.850 C 8.842 11.609,8.804 12.686,8.936 13.416 C 8.999 13.763,9.135 14.279,9.220 14.490 C 9.245 14.552,9.221 14.560,9.013 14.560 C 8.566 14.560,7.767 14.424,7.204 14.253 C 7.082 14.216,7.462 14.445,7.840 14.637 C 8.286 14.863,8.683 15.011,9.177 15.136 L 9.534 15.226 9.743 15.571 C 10.649 17.075,12.138 18.148,13.836 18.522 C 15.229 18.829,16.722 18.641,18.002 17.999 C 18.648 17.675,19.096 17.348,19.642 16.802 C 20.725 15.720,21.331 14.431,21.479 12.900 C 21.526 12.414,21.530 12.080,21.490 12.080 C 21.473 12.080,21.419 12.233,21.369 12.421 C 20.906 14.167,19.494 15.646,17.746 16.217 C 17.116 16.422,16.839 16.460,15.980 16.458 C 15.281 16.457,15.132 16.445,14.800 16.363 C 14.117 16.195,13.507 15.936,12.960 15.581 C 12.599 15.347,12.340 15.124,12.406 15.104 C 12.777 14.993,13.278 14.802,13.537 14.672 C 14.215 14.333,14.992 13.756,15.386 13.300 C 15.490 13.179,15.588 13.080,15.603 13.080 C 15.643 13.080,15.933 13.648,16.072 14.000 C 16.137 14.165,16.231 14.462,16.280 14.660 C 16.329 14.858,16.378 15.029,16.390 15.040 C 16.401 15.051,16.400 14.781,16.388 14.440 C 16.365 13.780,16.299 13.353,16.133 12.793 L 16.030 12.447 16.116 12.325 C 16.251 12.137,16.621 11.336,16.737 10.984 C 16.969 10.278,17.018 9.931,17.017 9.000 C 17.017 8.054,16.970 7.740,16.720 6.993 C 15.797 4.238,13.048 2.448,10.140 2.708 M11.954 10.559 C 12.627 10.696,13.309 10.970,13.870 11.328 L 14.080 11.462 13.901 11.776 C 13.397 12.660,12.601 13.440,11.716 13.917 L 11.411 14.081 11.309 13.927 C 10.981 13.431,10.652 12.576,10.537 11.920 C 10.467 11.521,10.438 10.634,10.491 10.504 C 10.520 10.433,10.556 10.429,11.038 10.452 C 11.321 10.466,11.733 10.514,11.954 10.559 " stroke="none" fill="black" fill-rule="evenodd"></path></svg>