<svg role="img" viewBox="0 0 24 24" xmlns="http://www.w3.org/2000/svg"><path d="M0.000 12.000 L 0.000 24.000 12.000 24.000 L 24.000 24.000 24.000 12.000 L 24.000 0.000 12.000 0.000 L 0.000 0.000 0.000 12.000 M12.851 4.316 C 13.254 4.457,13.499 4.683,13.623 5.029 C 13.665 5.147,13.677 5.573,13.678 6.980 L 13.679 8.780 13.585 8.982 C 13.318 9.556,12.501 9.790,11.828 9.486 C 11.624 9.394,11.423 9.200,11.307 8.982 C 11.221 8.822,11.220 8.792,11.209 6.555 L 11.197 4.290 11.469 4.248 C 11.877 4.184,12.573 4.218,12.851 4.316 M17.934 6.116 C 18.624 6.654,18.925 7.315,18.740 7.885 C 18.675 8.083,18.572 8.198,17.405 9.371 C 16.521 10.260,16.086 10.669,15.960 10.730 C 15.697 10.859,15.287 10.872,14.992 10.762 C 14.507 10.579,14.160 10.095,14.161 9.600 C 14.162 9.143,14.167 9.137,15.910 7.391 L 17.497 5.802 17.598 5.867 C 17.654 5.903,17.805 6.015,17.934 6.116 M7.908 6.366 C 8.121 6.444,8.242 6.552,9.392 7.696 C 10.828 9.123,10.859 9.164,10.834 9.649 C 10.817 9.988,10.717 10.214,10.474 10.464 C 10.240 10.706,9.996 10.815,9.649 10.833 C 9.157 10.860,9.155 10.858,7.367 9.068 L 5.794 7.493 6.033 7.192 C 6.650 6.416,7.286 6.135,7.908 6.366 M13.286 10.889 C 13.658 11.073,13.954 11.374,14.132 11.750 C 14.254 12.007,14.260 12.043,14.260 12.500 C 14.260 12.957,14.254 12.993,14.132 13.250 C 13.954 13.626,13.658 13.927,13.285 14.111 C 12.988 14.258,12.978 14.260,12.502 14.260 C 12.046 14.260,12.006 14.253,11.760 14.137 C 11.379 13.956,11.072 13.657,10.890 13.288 C 10.742 12.987,10.740 12.979,10.740 12.500 C 10.740 12.021,10.742 12.013,10.890 11.712 C 11.111 11.264,11.495 10.934,11.980 10.774 C 12.082 10.740,12.294 10.725,12.563 10.731 C 12.960 10.740,13.004 10.750,13.286 10.889 M20.735 11.390 C 20.841 12.152,20.800 12.649,20.597 13.069 C 20.457 13.356,20.267 13.530,19.981 13.630 C 19.801 13.693,19.596 13.700,18.020 13.700 L 16.260 13.700 16.050 13.605 C 15.451 13.334,15.204 12.514,15.514 11.828 C 15.637 11.556,15.901 11.328,16.200 11.237 C 16.255 11.221,17.292 11.205,18.505 11.203 L 20.709 11.200 20.735 11.390 M8.982 11.415 C 9.833 11.811,9.833 13.238,8.982 13.693 C 8.822 13.779,8.792 13.780,6.555 13.791 L 4.291 13.803 4.245 13.449 C 4.104 12.349,4.371 11.599,4.979 11.384 C 5.109 11.337,5.487 11.326,6.960 11.324 L 8.780 11.321 8.982 11.415 M10.016 14.242 C 10.674 14.488,11.030 15.285,10.741 15.862 C 10.667 16.009,10.238 16.464,9.068 17.632 L 7.495 19.205 7.238 19.016 C 6.878 18.752,6.513 18.361,6.355 18.068 C 6.234 17.846,6.221 17.787,6.220 17.500 C 6.220 16.994,6.245 16.959,7.559 15.644 C 8.191 15.011,8.771 14.445,8.848 14.387 C 9.157 14.151,9.620 14.094,10.016 14.242 M15.862 14.259 C 16.009 14.333,16.464 14.762,17.633 15.932 L 19.206 17.507 18.967 17.808 C 18.686 18.162,18.371 18.430,18.050 18.587 C 17.738 18.740,17.318 18.747,17.020 18.604 C 16.726 18.462,14.399 16.146,14.254 15.851 C 14.008 15.349,14.262 14.614,14.780 14.327 C 15.140 14.127,15.547 14.101,15.862 14.259 M12.701 15.404 C 13.131 15.483,13.434 15.694,13.585 16.018 L 13.679 16.220 13.680 18.467 L 13.680 20.714 13.450 20.747 C 13.062 20.803,12.364 20.782,12.115 20.708 C 11.836 20.624,11.531 20.424,11.410 20.243 C 11.206 19.937,11.196 19.827,11.208 17.934 C 11.220 16.222,11.222 16.176,11.307 16.018 C 11.481 15.693,11.781 15.479,12.171 15.402 C 12.410 15.355,12.438 15.355,12.701 15.404 " stroke="none" fill="black" fill-rule="evenodd"></path></svg>