<svg role="img" viewBox="0 0 24 24" xmlns="http://www.w3.org/2000/svg"><path d="M11.180 9.883 C 10.389 9.978,9.779 10.228,9.375 10.622 C 9.172 10.820,9.115 10.905,9.060 11.093 C 8.906 11.623,9.151 12.035,9.820 12.370 C 10.080 12.501,10.606 12.666,10.860 12.697 L 11.060 12.721 10.860 12.664 C 10.268 12.495,9.793 12.227,9.637 11.975 C 9.438 11.653,9.510 11.327,9.849 11.014 C 10.467 10.445,11.558 10.196,12.622 10.381 C 13.163 10.476,13.561 10.670,14.284 11.195 C 14.357 11.248,14.360 11.235,14.360 10.863 L 14.360 10.477 14.090 10.355 C 13.732 10.193,13.199 10.020,12.818 9.941 C 12.433 9.861,11.605 9.832,11.180 9.883 M19.498 10.315 C 19.115 10.414,18.751 10.717,18.586 11.073 C 18.517 11.223,18.500 11.335,18.500 11.640 C 18.500 11.945,18.517 12.057,18.586 12.207 C 18.709 12.472,18.971 12.740,19.234 12.869 C 19.427 12.963,19.510 12.980,19.800 12.980 C 20.212 12.980,20.497 12.866,20.762 12.594 C 21.033 12.317,21.140 12.047,21.140 11.640 C 21.140 11.232,21.028 10.948,20.760 10.680 C 20.452 10.372,19.897 10.212,19.498 10.315 M22.900 10.355 C 22.619 10.484,22.480 10.727,22.480 11.089 C 22.480 11.428,22.699 11.693,23.069 11.802 C 23.404 11.901,23.422 12.027,23.138 12.277 C 22.970 12.424,22.908 12.420,22.880 12.257 C 22.860 12.145,22.849 12.139,22.630 12.128 C 22.413 12.117,22.400 12.121,22.400 12.208 C 22.402 12.799,23.041 13.183,23.564 12.907 C 23.916 12.721,24.093 12.214,23.942 11.821 C 23.858 11.600,23.722 11.499,23.326 11.364 C 22.975 11.244,22.873 11.130,22.942 10.933 C 22.997 10.775,23.122 10.770,23.336 10.917 C 23.479 11.016,23.556 11.040,23.722 11.040 L 23.931 11.040 23.909 10.881 C 23.845 10.404,23.352 10.147,22.900 10.355 M0.000 11.640 L 0.000 12.960 0.259 12.960 L 0.518 12.960 0.529 12.321 L 0.540 11.682 0.923 12.311 L 1.306 12.940 1.573 12.952 C 1.738 12.959,1.840 12.948,1.840 12.922 C 1.840 12.899,1.678 12.628,1.480 12.318 C 1.282 12.009,1.104 11.725,1.083 11.686 C 1.054 11.632,1.136 11.478,1.462 10.978 L 1.878 10.340 1.633 10.328 C 1.498 10.321,1.367 10.324,1.341 10.334 C 1.316 10.344,1.125 10.637,0.917 10.985 L 0.540 11.618 0.529 10.969 L 0.518 10.320 0.259 10.320 L 0.000 10.320 0.000 11.640 M3.120 11.642 L 3.120 12.964 3.370 12.952 L 3.620 12.940 3.631 12.410 L 3.642 11.880 4.061 11.880 L 4.480 11.880 4.480 12.422 L 4.480 12.964 4.730 12.952 L 4.980 12.940 4.980 11.640 L 4.980 10.340 4.730 10.328 L 4.480 10.316 4.480 10.858 L 4.480 11.400 4.060 11.400 L 3.640 11.400 3.640 10.860 L 3.640 10.320 3.380 10.320 L 3.120 10.320 3.120 11.642 M6.480 11.640 L 6.480 12.960 6.740 12.960 L 7.000 12.960 7.001 12.350 L 7.001 11.740 7.344 12.350 L 7.687 12.960 7.985 12.960 C 8.334 12.960,8.341 13.021,7.920 12.374 L 7.641 11.947 7.791 11.878 C 7.967 11.798,8.138 11.625,8.197 11.467 C 8.268 11.281,8.249 10.934,8.159 10.758 C 7.994 10.435,7.662 10.321,6.890 10.320 L 6.480 10.320 6.480 11.640 M15.000 11.640 L 15.000 12.964 15.250 12.952 L 15.500 12.940 15.520 12.105 L 15.540 11.270 16.074 12.115 L 16.608 12.960 16.844 12.960 L 17.080 12.960 17.080 11.638 L 17.080 10.316 16.830 10.328 L 16.580 10.340 16.560 11.145 L 16.540 11.951 16.019 11.145 L 15.498 10.340 15.249 10.328 L 15.000 10.316 15.000 11.640 M11.670 10.508 C 11.720 10.518,11.800 10.518,11.850 10.508 C 11.900 10.499,11.859 10.491,11.760 10.491 C 11.661 10.491,11.620 10.499,11.670 10.508 M12.300 10.615 C 12.942 10.789,13.333 11.012,13.501 11.298 C 13.771 11.759,13.461 12.277,12.696 12.642 C 12.193 12.882,11.918 12.937,11.240 12.935 C 10.390 12.932,9.896 12.788,9.200 12.342 C 9.013 12.222,8.854 12.142,8.846 12.164 C 8.838 12.186,8.854 12.355,8.880 12.540 L 8.928 12.877 9.234 12.995 C 10.041 13.304,10.530 13.400,11.299 13.400 C 12.459 13.400,13.282 13.150,13.802 12.640 C 14.406 12.048,14.230 11.312,13.387 10.902 C 13.049 10.737,12.481 10.568,12.165 10.538 C 11.954 10.518,11.962 10.523,12.300 10.615 M7.619 10.879 C 7.741 10.993,7.774 11.135,7.720 11.301 C 7.661 11.479,7.518 11.564,7.235 11.590 L 7.000 11.611 7.000 11.180 L 7.000 10.749 7.263 10.770 C 7.459 10.786,7.549 10.814,7.619 10.879 M20.060 10.844 C 20.283 10.906,20.534 11.175,20.595 11.417 C 20.710 11.874,20.453 12.320,20.007 12.439 C 19.555 12.559,19.084 12.211,19.015 11.707 C 18.967 11.356,19.201 10.981,19.545 10.859 C 19.736 10.791,19.853 10.788,20.060 10.844 M11.131 12.748 C 11.170 12.758,11.224 12.757,11.251 12.746 C 11.278 12.735,11.246 12.727,11.180 12.728 C 11.114 12.729,11.092 12.738,11.131 12.748 M16.884 13.416 C 16.660 13.540,16.617 13.824,16.797 14.003 C 16.924 14.130,16.983 14.141,17.210 14.078 C 17.351 14.039,17.360 14.027,17.360 13.878 C 17.360 13.729,17.353 13.720,17.240 13.720 C 17.174 13.720,17.120 13.738,17.120 13.760 C 17.120 13.782,17.147 13.800,17.180 13.800 C 17.213 13.800,17.240 13.815,17.240 13.833 C 17.240 13.879,17.064 14.040,17.014 14.040 C 16.944 14.040,16.800 13.858,16.800 13.769 C 16.800 13.666,16.890 13.612,17.125 13.575 C 17.334 13.543,17.389 13.479,17.268 13.412 C 17.153 13.348,17.004 13.350,16.884 13.416 M20.132 13.400 C 19.912 13.489,19.853 13.833,20.036 13.954 C 20.130 14.016,20.131 14.016,20.086 13.932 C 20.006 13.782,20.031 13.652,20.156 13.563 C 20.220 13.517,20.284 13.480,20.299 13.480 C 20.314 13.480,20.320 13.614,20.313 13.778 C 20.300 14.067,20.303 14.077,20.399 14.101 C 20.476 14.120,20.520 14.102,20.589 14.021 C 20.765 13.817,20.674 13.560,20.373 13.405 C 20.272 13.353,20.251 13.353,20.132 13.400 M21.786 13.388 C 21.736 13.437,21.759 13.983,21.813 14.058 C 21.858 14.118,21.899 14.126,22.050 14.104 C 22.158 14.087,22.243 14.051,22.256 14.015 C 22.269 13.981,22.280 13.818,22.280 13.653 C 22.280 13.431,22.267 13.358,22.230 13.370 C 22.198 13.380,22.173 13.500,22.160 13.703 C 22.141 14.000,22.134 14.021,22.045 14.033 C 21.913 14.052,21.881 13.983,21.881 13.672 C 21.880 13.424,21.847 13.326,21.786 13.388 M18.440 13.760 C 18.440 14.053,18.451 14.120,18.500 14.120 C 18.544 14.120,18.560 14.075,18.560 13.953 L 18.560 13.786 18.690 13.967 C 18.870 14.217,18.928 14.183,18.896 13.846 C 18.862 13.489,18.803 13.400,18.599 13.400 L 18.440 13.400 18.440 13.760 M23.400 13.760 C 23.400 13.973,23.416 14.120,23.440 14.120 C 23.462 14.120,23.480 14.057,23.480 13.981 C 23.480 13.861,23.495 13.838,23.590 13.818 C 23.766 13.781,23.819 13.739,23.833 13.624 C 23.852 13.465,23.776 13.400,23.575 13.400 L 23.400 13.400 23.400 13.760 M23.700 13.520 C 23.750 13.601,23.677 13.720,23.577 13.720 C 23.496 13.720,23.480 13.700,23.480 13.600 C 23.480 13.499,23.496 13.480,23.578 13.480 C 23.631 13.480,23.687 13.498,23.700 13.520 M18.680 13.665 C 18.680 13.695,18.653 13.720,18.620 13.720 C 18.582 13.720,18.560 13.682,18.560 13.615 C 18.560 13.526,18.569 13.518,18.620 13.560 C 18.653 13.587,18.680 13.635,18.680 13.665 " stroke="none" fill="black" fill-rule="evenodd"></path></svg>