<svg role="img" xmlns="http://www.w3.org/2000/svg" viewBox="0 0 24 24"><path d="M6.860 2.995 L 1.740 5.985 1.740 12.000 L 1.740 18.015 6.871 21.008 L 12.002 24.002 17.131 21.010 L 22.260 18.018 22.260 12.000 L 22.260 5.982 17.140 2.993 C 14.324 1.349,12.011 0.004,12.000 0.004 C 11.989 0.005,9.676 1.350,6.860 2.995 M16.587 4.025 L 21.160 6.691 21.160 11.999 L 21.160 17.307 16.580 19.978 L 12.000 22.650 7.420 19.978 L 2.840 17.307 2.840 12.000 L 2.840 6.693 7.410 4.027 C 9.924 2.561,11.988 1.361,11.997 1.360 C 12.007 1.360,14.073 2.559,16.587 4.025 M7.449 10.586 L 7.460 12.013 8.870 12.736 L 10.280 13.460 10.280 13.590 L 10.280 13.720 8.860 13.720 L 7.440 13.720 7.440 14.860 L 7.440 16.000 12.000 16.000 L 16.560 16.000 16.560 14.860 L 16.560 13.720 15.137 13.720 L 13.715 13.720 13.727 13.594 C 13.740 13.472,13.779 13.448,15.116 12.756 C 15.873 12.364,16.508 12.028,16.527 12.009 C 16.546 11.990,16.556 11.342,16.551 10.568 L 16.540 9.161 14.271 10.380 L 12.003 11.598 9.733 10.379 C 8.485 9.709,7.458 9.160,7.451 9.160 C 7.445 9.160,7.444 9.802,7.449 10.586 " stroke="none" fill="black" fill-rule="evenodd"></path></svg>