<svg role="img" viewBox="0 0 24 24" xmlns="http://www.w3.org/2000/svg"><path d="M11.533 0.432 C 11.419 0.470,9.406 1.418,7.060 2.540 C 2.337 4.798,2.482 4.718,2.243 5.212 C 2.149 5.405,1.890 6.466,1.074 10.000 C 0.128 14.095,0.025 14.575,0.023 14.900 C 0.021 15.223,0.034 15.286,0.146 15.520 C 0.237 15.709,1.046 16.744,3.120 19.320 C 4.686 21.267,6.057 22.963,6.166 23.089 C 6.313 23.259,6.441 23.356,6.669 23.469 L 6.976 23.620 12.000 23.620 L 17.024 23.620 17.322 23.473 C 17.486 23.391,17.677 23.265,17.746 23.193 C 18.042 22.881,23.734 15.763,23.817 15.600 C 23.949 15.342,24.014 15.026,23.988 14.765 C 23.976 14.641,23.496 12.497,22.921 10.000 C 22.122 6.529,21.848 5.402,21.758 5.216 C 21.531 4.745,21.414 4.668,19.620 3.821 C 19.422 3.727,18.234 3.160,16.980 2.560 C 15.726 1.961,14.250 1.255,13.700 0.992 C 13.150 0.730,12.597 0.480,12.471 0.437 C 12.191 0.342,11.815 0.340,11.533 0.432 M12.204 3.462 C 12.485 3.607,12.531 3.871,12.420 4.700 C 12.335 5.338,12.341 5.479,12.460 5.640 C 12.515 5.715,12.560 5.815,12.560 5.863 C 12.560 5.937,12.589 5.955,12.750 5.977 C 14.142 6.169,15.393 6.751,16.405 7.677 C 16.684 7.932,16.716 7.951,16.785 7.899 C 16.826 7.868,16.916 7.842,16.984 7.841 C 17.156 7.840,17.382 7.666,17.901 7.137 C 18.259 6.772,18.373 6.680,18.513 6.642 C 18.937 6.528,19.257 6.875,19.098 7.274 C 19.022 7.464,18.878 7.585,18.405 7.859 C 18.086 8.044,17.695 8.326,17.630 8.417 C 17.613 8.441,17.588 8.505,17.574 8.560 C 17.561 8.615,17.515 8.698,17.472 8.745 C 17.395 8.830,17.396 8.832,17.564 9.105 C 17.914 9.675,18.220 10.475,18.369 11.211 C 18.446 11.593,18.460 11.785,18.460 12.490 C 18.460 13.283,18.464 13.322,18.539 13.346 C 18.583 13.360,18.664 13.420,18.720 13.480 C 18.844 13.613,19.055 13.663,19.806 13.739 C 20.107 13.769,20.404 13.821,20.466 13.853 C 20.883 14.070,20.897 14.577,20.490 14.747 C 20.293 14.829,20.118 14.800,19.585 14.599 C 18.938 14.354,18.674 14.296,18.512 14.363 C 18.441 14.393,18.336 14.413,18.281 14.407 C 18.190 14.397,18.171 14.423,18.086 14.659 C 17.623 15.954,16.743 17.032,15.381 17.974 C 15.316 18.019,15.310 18.045,15.346 18.124 C 15.373 18.186,15.376 18.257,15.351 18.327 C 15.304 18.465,15.428 18.732,15.807 19.308 C 16.120 19.782,16.167 19.882,16.167 20.072 C 16.169 20.480,15.794 20.703,15.449 20.499 C 15.286 20.402,15.191 20.221,14.998 19.640 C 14.787 19.001,14.676 18.785,14.527 18.723 C 14.463 18.696,14.391 18.633,14.368 18.581 L 14.325 18.488 13.953 18.605 C 12.776 18.977,11.400 18.989,10.207 18.637 C 9.980 18.570,9.770 18.506,9.741 18.495 C 9.710 18.483,9.676 18.510,9.660 18.559 C 9.645 18.606,9.571 18.674,9.495 18.711 C 9.326 18.791,9.205 19.031,8.960 19.773 C 8.827 20.177,8.763 20.315,8.656 20.421 C 8.319 20.758,7.840 20.558,7.840 20.080 C 7.840 19.889,7.914 19.734,8.221 19.276 C 8.581 18.741,8.648 18.586,8.659 18.258 L 8.670 17.972 8.364 17.770 C 7.331 17.087,6.440 15.974,5.975 14.787 C 5.833 14.425,5.813 14.396,5.725 14.413 C 5.672 14.423,5.568 14.406,5.495 14.375 C 5.310 14.298,5.222 14.320,4.080 14.729 C 3.773 14.839,3.513 14.811,3.353 14.652 C 3.187 14.485,3.162 14.267,3.287 14.080 C 3.428 13.871,3.605 13.804,4.145 13.756 C 4.853 13.693,5.151 13.623,5.297 13.486 C 5.365 13.422,5.446 13.362,5.478 13.352 C 5.526 13.338,5.536 13.186,5.539 12.457 C 5.542 11.703,5.555 11.521,5.634 11.160 C 5.801 10.388,6.117 9.588,6.495 8.980 C 6.591 8.825,6.592 8.817,6.522 8.740 C 6.483 8.696,6.433 8.606,6.412 8.540 C 6.363 8.387,6.020 8.108,5.568 7.855 C 4.958 7.513,4.772 7.268,4.878 6.946 C 4.946 6.740,5.090 6.640,5.319 6.640 C 5.565 6.640,5.736 6.756,6.158 7.208 C 6.561 7.639,6.827 7.840,6.996 7.840 C 7.065 7.840,7.155 7.861,7.196 7.887 C 7.261 7.928,7.319 7.891,7.645 7.604 C 8.681 6.694,9.904 6.136,11.210 5.978 C 11.403 5.955,11.440 5.938,11.440 5.872 C 11.440 5.828,11.477 5.740,11.522 5.677 C 11.638 5.515,11.654 5.358,11.601 4.920 C 11.576 4.711,11.545 4.377,11.532 4.178 C 11.506 3.760,11.558 3.609,11.772 3.478 C 11.927 3.384,12.044 3.380,12.204 3.462 M10.884 7.365 C 10.186 7.511,9.486 7.832,8.889 8.278 C 8.522 8.552,8.370 8.707,8.423 8.755 C 8.491 8.818,10.266 10.073,10.462 10.197 C 10.782 10.400,11.068 10.330,11.177 10.021 C 11.225 9.887,11.364 7.888,11.361 7.390 C 11.360 7.261,11.372 7.262,10.884 7.365 M12.642 7.490 C 12.643 7.605,12.676 8.222,12.715 8.860 C 12.765 9.678,12.802 10.046,12.841 10.108 C 12.930 10.248,13.126 10.335,13.285 10.305 C 13.374 10.289,13.808 10.007,14.502 9.516 C 15.095 9.096,15.589 8.743,15.600 8.732 C 15.632 8.700,15.245 8.375,14.900 8.143 C 14.316 7.752,13.720 7.497,13.060 7.358 C 12.862 7.316,12.687 7.281,12.670 7.281 C 12.653 7.280,12.641 7.375,12.642 7.490 M7.357 10.130 C 6.992 10.876,6.840 11.552,6.840 12.428 C 6.840 12.922,6.846 12.964,6.910 12.943 C 6.949 12.931,7.502 12.770,8.140 12.585 C 8.778 12.399,9.347 12.229,9.405 12.207 C 9.683 12.098,9.763 11.760,9.570 11.509 C 9.461 11.367,7.631 9.720,7.583 9.720 C 7.569 9.720,7.467 9.905,7.357 10.130 M15.372 10.621 C 14.818 11.117,14.352 11.563,14.336 11.611 C 14.263 11.843,14.350 12.072,14.550 12.174 C 14.666 12.233,17.025 12.920,17.110 12.920 C 17.184 12.920,17.175 12.021,17.095 11.557 C 17.060 11.350,16.978 11.018,16.914 10.821 C 16.799 10.469,16.452 9.720,16.404 9.720 C 16.391 9.720,15.927 10.126,15.372 10.621 M11.360 11.882 C 11.239 12.035,11.134 12.179,11.126 12.203 C 11.104 12.269,11.247 12.915,11.297 12.975 C 11.320 13.005,11.488 13.097,11.669 13.180 L 11.998 13.332 12.329 13.182 C 12.511 13.099,12.674 13.019,12.691 13.003 C 12.725 12.971,12.880 12.356,12.880 12.253 C 12.880 12.219,12.777 12.059,12.650 11.898 L 12.420 11.604 12.000 11.604 L 11.580 11.604 11.360 11.882 M8.520 13.942 C 7.827 14.060,7.236 14.158,7.206 14.159 C 7.126 14.161,7.174 14.314,7.385 14.734 C 7.771 15.504,8.302 16.127,8.992 16.619 C 9.108 16.702,9.209 16.763,9.216 16.755 C 9.270 16.690,10.207 14.353,10.225 14.237 C 10.263 14.000,10.122 13.810,9.860 13.745 C 9.816 13.734,9.213 13.823,8.520 13.942 M14.097 13.795 C 13.906 13.883,13.760 14.052,13.760 14.185 C 13.760 14.281,14.734 16.670,14.800 16.736 C 14.898 16.834,15.829 15.971,16.221 15.420 C 16.528 14.988,16.940 14.160,16.848 14.160 C 16.819 14.160,14.536 13.775,14.360 13.740 C 14.305 13.730,14.187 13.754,14.097 13.795 M11.748 14.881 C 11.623 14.979,10.342 17.279,10.388 17.323 C 10.487 17.418,11.529 17.599,11.981 17.600 C 12.495 17.600,13.508 17.428,13.614 17.322 C 13.662 17.274,12.432 15.052,12.278 14.910 C 12.129 14.773,11.901 14.761,11.748 14.881 " stroke="none" fill="black" fill-rule="evenodd"></path></svg>