<svg role="img" viewBox="0 0 24 24" xmlns="http://www.w3.org/2000/svg"><path d="M18.400 5.344 C 16.868 5.524,15.975 5.875,15.259 6.580 C 14.531 7.298,14.202 8.239,14.254 9.460 C 14.299 10.497,14.578 11.188,15.185 11.762 C 15.477 12.039,15.691 12.185,16.100 12.390 C 16.579 12.629,16.933 12.738,18.285 13.063 C 19.997 13.473,20.302 13.587,20.701 13.965 C 21.001 14.248,21.134 14.561,21.135 14.980 C 21.137 15.816,20.565 16.253,19.272 16.403 C 18.681 16.472,17.399 16.429,16.960 16.327 C 15.748 16.044,14.900 15.422,14.284 14.367 C 14.011 13.899,13.785 13.303,13.201 11.520 C 12.436 9.179,12.208 8.633,11.646 7.796 C 10.690 6.371,9.410 5.641,7.473 5.417 C 6.661 5.324,5.151 5.355,4.584 5.478 C 3.734 5.662,2.993 5.971,2.409 6.385 C 1.795 6.820,1.179 7.559,0.802 8.314 C -0.221 10.362,-0.276 13.670,0.679 15.708 C 1.168 16.752,2.000 17.594,3.020 18.079 C 4.812 18.931,7.640 18.860,9.534 17.914 C 9.873 17.745,10.474 17.364,10.553 17.268 C 10.589 17.225,10.512 16.975,10.203 16.136 C 9.985 15.544,9.786 15.008,9.762 14.943 L 9.717 14.827 9.568 14.969 C 8.899 15.608,7.894 16.139,7.014 16.318 C 5.423 16.640,4.160 16.061,3.445 14.680 C 2.923 13.674,2.758 12.223,3.001 10.779 C 3.252 9.292,3.922 8.277,4.968 7.803 C 5.716 7.463,6.701 7.432,7.562 7.719 C 8.061 7.885,8.372 8.083,8.760 8.478 C 9.348 9.078,9.667 9.723,10.217 11.420 C 10.402 11.992,10.699 12.910,10.877 13.460 C 11.054 14.010,11.281 14.640,11.380 14.860 C 12.270 16.831,13.637 17.938,15.768 18.416 C 17.404 18.783,19.663 18.743,21.180 18.320 C 21.707 18.173,22.397 17.842,22.775 17.555 C 23.303 17.154,23.696 16.553,23.886 15.858 C 23.999 15.441,24.012 14.343,23.909 13.895 C 23.754 13.224,23.508 12.756,23.065 12.290 C 22.429 11.620,21.533 11.192,20.105 10.877 C 19.794 10.808,19.267 10.691,18.932 10.617 C 18.116 10.437,17.738 10.287,17.465 10.038 C 17.142 9.742,17.060 9.528,17.060 8.980 C 17.060 8.594,17.072 8.516,17.158 8.342 C 17.443 7.766,18.055 7.479,18.996 7.481 C 20.235 7.483,20.913 7.933,21.088 8.870 C 21.133 9.113,21.138 9.120,21.257 9.118 C 21.325 9.117,21.938 9.049,22.620 8.966 L 23.860 8.815 23.848 8.618 C 23.816 8.063,23.504 7.246,23.141 6.767 C 22.636 6.101,21.756 5.637,20.614 5.437 C 20.158 5.357,18.783 5.299,18.400 5.344 " stroke="none" fill="black" fill-rule="evenodd"></path></svg>