<svg role="img" viewBox="0 0 24 24" xmlns="http://www.w3.org/2000/svg"><path d="M11.660 0.075 C 11.464 0.166,11.311 0.306,11.214 0.485 C 11.146 0.609,11.139 0.756,11.129 2.340 L 11.117 4.060 11.229 4.280 C 11.302 4.425,11.399 4.541,11.513 4.620 C 11.670 4.728,11.717 4.740,12.000 4.740 C 12.284 4.740,12.329 4.729,12.485 4.619 C 12.592 4.544,12.699 4.418,12.768 4.285 L 12.880 4.071 12.880 2.425 C 12.880 1.474,12.864 0.722,12.841 0.643 C 12.697 0.141,12.120 -0.136,11.660 0.075 M4.100 3.157 C 3.687 3.260,3.425 3.586,3.423 4.000 C 3.421 4.425,3.461 4.471,4.861 5.622 C 5.554 6.193,6.189 6.696,6.271 6.740 C 6.626 6.930,7.133 6.796,7.378 6.447 C 7.488 6.290,7.500 6.244,7.500 5.967 C 7.500 5.716,7.483 5.633,7.408 5.511 C 7.308 5.350,4.835 3.292,4.649 3.215 C 4.490 3.149,4.238 3.122,4.100 3.157 M19.506 3.164 C 19.303 3.212,19.296 3.217,17.874 4.389 C 16.478 5.539,16.458 5.562,16.487 6.021 C 16.509 6.359,16.652 6.574,16.960 6.733 C 17.217 6.865,17.489 6.866,17.733 6.737 C 17.814 6.695,18.446 6.194,19.139 5.625 C 20.542 4.471,20.580 4.428,20.575 3.994 C 20.571 3.588,20.294 3.257,19.880 3.163 C 19.781 3.140,19.691 3.123,19.680 3.125 C 19.669 3.127,19.591 3.144,19.506 3.164 M11.177 6.462 C 9.473 6.749,8.003 7.922,7.348 9.520 C 7.051 10.244,6.960 10.842,6.960 12.069 L 6.960 12.920 6.268 12.920 C 5.606 12.920,5.567 12.924,5.371 13.022 C 5.259 13.078,5.119 13.186,5.061 13.263 C 4.828 13.568,4.838 13.319,4.849 18.521 L 4.860 23.300 4.946 23.460 C 5.059 23.669,5.218 23.816,5.440 23.917 C 5.619 23.998,5.667 23.998,12.000 23.998 C 18.333 23.998,18.381 23.998,18.560 23.917 C 18.782 23.816,18.941 23.669,19.054 23.460 L 19.140 23.300 19.151 18.522 C 19.162 13.206,19.178 13.514,18.891 13.219 C 18.633 12.953,18.512 12.922,17.730 12.921 L 17.040 12.920 17.040 12.069 C 17.040 11.145,17.003 10.726,16.875 10.200 C 16.539 8.823,15.534 7.571,14.247 6.923 C 13.877 6.737,13.235 6.532,12.800 6.462 C 12.343 6.388,11.619 6.388,11.177 6.462 M12.680 9.398 C 13.346 9.622,13.852 10.155,14.066 10.860 C 14.126 11.061,14.138 11.247,14.139 12.000 L 14.140 12.900 12.000 12.900 L 9.860 12.900 9.862 12.000 C 9.863 11.047,9.892 10.852,10.088 10.461 C 10.364 9.914,10.894 9.496,11.513 9.339 C 11.824 9.260,12.349 9.287,12.680 9.398 M1.169 9.885 C 0.519 10.206,0.524 11.103,1.176 11.452 C 1.337 11.539,1.367 11.540,3.040 11.540 L 4.740 11.540 4.934 11.445 C 5.287 11.270,5.495 10.838,5.400 10.475 C 5.333 10.220,5.183 10.025,4.963 9.905 L 4.769 9.800 3.055 9.800 C 1.390 9.800,1.335 9.803,1.169 9.885 M19.060 9.876 C 18.495 10.137,18.386 10.864,18.843 11.311 C 19.074 11.537,19.105 11.540,20.960 11.540 L 22.660 11.540 22.838 11.440 C 23.469 11.086,23.470 10.225,22.841 9.892 C 22.668 9.800,22.664 9.800,20.944 9.801 C 19.351 9.802,19.208 9.807,19.060 9.876 M12.540 16.674 C 12.812 16.803,13.048 17.041,13.174 17.315 C 13.239 17.455,13.259 17.578,13.259 17.820 C 13.259 18.227,13.130 18.518,12.837 18.771 L 12.640 18.940 12.640 19.602 C 12.640 20.208,12.633 20.278,12.550 20.441 C 12.310 20.916,11.655 20.906,11.436 20.424 C 11.373 20.286,11.362 20.157,11.361 19.600 L 11.360 18.940 11.169 18.776 C 11.056 18.678,10.931 18.517,10.861 18.376 C 10.760 18.173,10.744 18.096,10.745 17.820 C 10.747 17.457,10.828 17.228,11.039 16.987 C 11.291 16.700,11.603 16.564,12.020 16.562 C 12.247 16.560,12.345 16.582,12.540 16.674 " stroke="none" fill="black" fill-rule="evenodd"></path></svg>