<svg role="img" viewBox="0 0 24 24" xmlns="http://www.w3.org/2000/svg"><path d="M4.660 6.745 C 3.358 6.943,2.296 7.483,1.449 8.378 C 0.761 9.105,0.309 9.979,0.094 11.000 C -0.017 11.525,-0.007 12.530,0.114 13.077 C 0.337 14.081,0.768 14.903,1.449 15.622 C 2.848 17.100,4.927 17.641,6.823 17.020 C 7.631 16.755,8.290 16.350,8.902 15.740 C 9.931 14.714,10.455 13.454,10.455 12.000 C 10.455 10.546,9.929 9.279,8.903 8.260 C 8.172 7.534,7.325 7.067,6.320 6.835 C 5.988 6.758,4.944 6.702,4.660 6.745 M5.480 7.774 L 5.480 7.989 5.030 8.011 C 4.073 8.059,3.234 8.426,2.514 9.112 C 1.156 10.405,0.889 12.450,1.864 14.088 C 2.129 14.533,2.711 15.119,3.160 15.394 C 4.797 16.396,6.862 16.137,8.168 14.766 C 8.329 14.598,8.525 14.361,8.605 14.240 C 8.962 13.698,9.215 13.022,9.266 12.475 L 9.291 12.200 7.926 12.200 L 6.560 12.200 6.560 12.000 L 6.560 11.800 8.140 11.800 L 9.720 11.800 9.720 11.970 C 9.719 12.264,9.645 12.808,9.561 13.125 C 9.133 14.761,7.779 16.021,6.104 16.341 C 5.693 16.420,4.875 16.422,4.476 16.345 C 2.802 16.022,1.473 14.797,1.017 13.156 C 0.863 12.602,0.837 11.708,0.958 11.123 C 1.068 10.593,1.229 10.177,1.492 9.743 C 2.304 8.404,3.692 7.604,5.270 7.565 L 5.480 7.560 5.480 7.774 M20.790 8.483 C 19.643 8.605,18.816 9.127,18.385 10.002 C 18.283 10.210,18.164 10.519,18.121 10.690 C 18.001 11.166,17.954 11.869,18.001 12.454 C 18.086 13.503,18.364 14.176,18.933 14.708 C 19.547 15.282,20.378 15.517,21.612 15.467 C 22.474 15.432,23.151 15.278,23.720 14.986 L 23.980 14.853 23.990 13.187 L 24.001 11.520 22.619 11.520 L 21.238 11.520 21.249 12.150 L 21.260 12.780 21.911 12.791 L 22.562 12.802 22.551 13.390 L 22.540 13.979 22.280 14.050 C 21.923 14.147,21.282 14.183,20.945 14.124 C 20.181 13.991,19.818 13.669,19.611 12.940 C 19.520 12.619,19.498 11.605,19.574 11.204 C 19.766 10.192,20.310 9.762,21.402 9.761 C 22.028 9.760,22.412 9.895,22.787 10.250 L 22.999 10.451 23.169 10.307 C 23.263 10.227,23.484 10.030,23.659 9.867 L 23.978 9.571 23.865 9.423 C 23.713 9.224,23.356 8.949,23.062 8.804 C 22.464 8.510,21.639 8.394,20.790 8.483 M12.930 11.970 L 12.940 15.380 15.360 15.380 L 17.780 15.380 17.780 14.720 L 17.780 14.060 16.150 14.050 L 14.520 14.039 14.520 11.300 L 14.520 8.560 13.720 8.560 L 12.920 8.560 12.930 11.970 M3.856 9.736 C 4.031 9.809,4.190 10.022,4.223 10.229 C 4.273 10.540,4.041 10.858,3.709 10.936 C 3.431 11.001,3.087 10.785,2.999 10.491 C 2.844 9.974,3.353 9.525,3.856 9.736 M5.480 11.779 L 5.480 13.878 6.010 13.889 L 6.540 13.900 6.552 14.110 L 6.564 14.320 5.822 14.320 L 5.080 14.320 5.080 12.000 L 5.080 9.680 5.280 9.680 L 5.480 9.680 5.480 11.779 " stroke="none" fill="black" fill-rule="evenodd"></path></svg>