<svg role="img" viewBox="0 0 24 24" xmlns="http://www.w3.org/2000/svg"><path d="M11.200 0.026 C 10.239 0.115,9.658 0.211,8.908 0.408 L 8.437 0.531 8.342 0.442 C 8.280 0.384,8.193 0.351,8.093 0.348 C 7.994 0.346,7.885 0.305,7.784 0.232 C 7.557 0.069,7.504 0.081,7.537 0.290 C 7.552 0.384,7.599 0.520,7.642 0.592 C 7.685 0.665,7.720 0.739,7.720 0.757 C 7.720 0.775,7.635 0.821,7.530 0.861 C 7.425 0.900,7.154 1.019,6.926 1.125 C 4.282 2.358,2.100 4.612,0.969 7.280 C -0.956 11.819,0.047 17.007,3.520 20.480 C 6.774 23.734,11.548 24.836,15.915 23.340 C 19.352 22.163,22.135 19.395,23.321 15.974 C 24.843 11.585,23.749 6.789,20.480 3.520 C 18.459 1.499,15.838 0.283,12.980 0.041 C 12.538 0.004,11.531 -0.005,11.200 0.026 M7.850 0.392 C 7.860 0.433,7.847 0.520,7.819 0.584 L 7.770 0.700 7.686 0.520 C 7.640 0.421,7.601 0.308,7.601 0.269 C 7.600 0.204,7.609 0.203,7.715 0.257 C 7.778 0.290,7.839 0.351,7.850 0.392 M8.176 0.456 C 8.357 0.531,8.440 0.663,8.440 0.874 C 8.440 1.112,8.362 1.360,8.287 1.360 C 8.176 1.360,7.951 1.149,7.872 0.971 L 7.793 0.793 7.876 0.704 C 7.922 0.655,7.960 0.567,7.960 0.507 C 7.960 0.385,7.990 0.378,8.176 0.456 M13.180 0.644 C 14.792 0.806,16.491 1.367,17.840 2.182 C 20.327 3.686,22.166 6.058,22.958 8.780 C 23.065 9.150,23.235 9.880,23.214 9.880 C 23.204 9.880,23.128 9.845,23.044 9.802 C 22.902 9.730,22.883 9.698,22.781 9.372 C 22.551 8.630,22.172 8.062,21.666 7.704 C 21.349 7.479,21.206 7.409,20.447 7.102 C 19.429 6.690,19.520 6.745,19.520 6.549 C 19.519 6.315,19.367 6.012,19.149 5.812 C 18.942 5.621,18.662 5.472,18.080 5.240 C 17.353 4.950,17.088 4.789,16.480 4.265 C 16.337 4.142,16.112 3.983,15.980 3.911 C 15.756 3.789,15.714 3.780,15.358 3.780 C 14.998 3.780,14.959 3.789,14.678 3.928 C 14.514 4.009,14.213 4.213,14.009 4.381 L 13.637 4.686 13.494 4.560 C 13.416 4.491,13.277 4.398,13.186 4.354 C 13.095 4.310,12.968 4.201,12.904 4.112 C 12.560 3.633,12.349 3.430,12.054 3.296 C 11.826 3.192,11.741 3.129,11.662 3.003 C 11.556 2.835,11.311 2.680,11.150 2.680 C 11.019 2.680,10.900 2.585,10.839 2.432 C 10.739 2.177,10.505 2.001,10.194 1.944 C 10.085 1.925,10.037 1.890,10.002 1.805 C 9.909 1.580,9.397 1.200,9.187 1.200 C 9.113 1.200,9.000 1.094,9.000 1.023 C 9.000 0.992,9.143 0.939,9.370 0.885 C 10.597 0.597,11.891 0.514,13.180 0.644 M8.750 0.890 C 8.910 1.056,8.960 1.192,8.960 1.458 C 8.960 1.721,8.819 2.200,8.741 2.200 C 8.667 2.200,8.450 1.933,8.399 1.778 C 8.366 1.676,8.376 1.606,8.459 1.386 C 8.515 1.239,8.560 1.038,8.560 0.939 C 8.560 0.841,8.574 0.760,8.592 0.760 C 8.610 0.760,8.681 0.819,8.750 0.890 M9.411 1.431 C 9.825 1.653,10.035 1.988,9.982 2.341 C 9.953 2.536,9.691 3.084,9.616 3.108 C 9.537 3.134,9.172 2.767,9.101 2.591 C 9.042 2.442,9.039 2.375,9.079 2.041 C 9.108 1.792,9.111 1.594,9.087 1.469 C 9.051 1.285,9.053 1.279,9.135 1.303 C 9.182 1.318,9.306 1.375,9.411 1.431 M8.071 1.389 C 8.212 1.478,8.239 1.518,8.240 1.640 C 8.242 1.817,8.422 2.135,8.632 2.330 C 8.745 2.435,8.855 2.520,8.877 2.520 C 8.899 2.520,8.939 2.596,8.966 2.690 C 9.029 2.910,9.196 3.124,9.381 3.222 C 9.480 3.275,9.560 3.364,9.629 3.500 C 9.685 3.610,9.807 3.790,9.899 3.900 C 9.991 4.010,10.116 4.190,10.178 4.300 C 10.240 4.410,10.340 4.554,10.400 4.620 C 10.461 4.686,10.531 4.805,10.556 4.884 C 10.582 4.963,10.655 5.111,10.720 5.214 C 10.863 5.440,10.861 5.440,10.289 5.314 C 9.803 5.206,9.426 5.198,9.253 5.291 C 9.132 5.356,9.118 5.355,8.953 5.280 C 8.744 5.185,8.529 5.178,8.409 5.262 C 8.360 5.297,8.320 5.307,8.320 5.286 C 8.320 5.204,7.976 5.080,7.750 5.080 C 7.571 5.080,7.503 5.099,7.410 5.178 C 7.297 5.273,7.287 5.274,7.100 5.218 C 6.846 5.141,6.293 5.144,5.986 5.223 C 5.548 5.337,5.134 5.582,4.785 5.937 L 4.470 6.257 4.065 6.259 C 3.715 6.260,3.634 6.273,3.466 6.359 C 3.360 6.413,3.220 6.518,3.156 6.591 C 2.901 6.881,2.648 7.548,2.540 8.213 C 2.451 8.761,2.461 9.029,2.581 9.291 C 2.636 9.412,2.724 9.733,2.776 10.004 L 2.870 10.497 2.765 10.655 C 2.627 10.865,2.629 11.098,2.771 11.313 C 2.896 11.502,3.309 11.787,3.513 11.825 C 3.619 11.844,3.718 11.912,3.867 12.067 C 4.095 12.303,4.345 12.437,4.560 12.440 C 4.637 12.441,4.745 12.477,4.800 12.520 C 4.922 12.615,5.059 12.627,5.026 12.540 C 4.999 12.470,5.005 12.469,5.233 12.522 C 5.327 12.544,5.422 12.551,5.442 12.539 C 5.463 12.526,5.445 12.448,5.401 12.361 L 5.322 12.207 5.538 12.424 C 5.661 12.546,5.791 12.640,5.837 12.640 C 5.938 12.640,5.938 12.648,5.841 12.434 C 5.797 12.338,5.761 12.225,5.761 12.183 C 5.760 12.109,5.764 12.110,5.850 12.191 C 5.900 12.238,6.040 12.322,6.160 12.379 C 6.281 12.436,6.438 12.519,6.509 12.564 C 6.683 12.675,6.735 12.631,6.634 12.459 C 6.530 12.283,6.565 12.283,6.770 12.459 C 6.860 12.536,6.998 12.610,7.077 12.625 C 7.155 12.639,7.269 12.675,7.328 12.705 C 7.387 12.735,7.464 12.760,7.499 12.760 C 7.553 12.760,7.549 12.736,7.478 12.596 C 7.373 12.391,7.401 12.348,7.517 12.535 C 7.689 12.813,8.083 13.077,8.330 13.079 C 8.413 13.080,8.440 13.061,8.440 13.002 C 8.440 12.960,8.422 12.914,8.400 12.900 C 8.314 12.847,8.364 12.803,8.466 12.842 C 8.609 12.897,8.623 12.868,8.529 12.712 C 8.485 12.639,8.437 12.535,8.422 12.480 C 8.407 12.425,8.446 12.470,8.509 12.580 C 8.687 12.893,8.805 13.036,9.009 13.187 C 9.231 13.350,9.360 13.352,9.416 13.192 C 9.445 13.111,9.436 13.044,9.381 12.922 C 9.340 12.832,9.317 12.750,9.328 12.739 C 9.339 12.727,9.428 12.763,9.524 12.819 C 9.773 12.961,9.954 12.944,9.774 12.795 C 9.686 12.722,9.562 12.445,9.561 12.320 C 9.561 12.234,9.576 12.246,9.663 12.400 C 9.858 12.742,10.145 12.957,10.410 12.959 C 10.536 12.960,10.545 12.924,10.458 12.756 L 10.396 12.637 10.589 12.734 C 10.695 12.788,10.826 12.838,10.881 12.846 C 10.935 12.854,11.061 12.906,11.160 12.962 C 11.298 13.041,11.353 13.103,11.398 13.231 C 11.430 13.322,11.446 13.407,11.434 13.419 C 11.422 13.431,11.252 13.403,11.056 13.355 C 10.846 13.305,10.559 13.268,10.358 13.266 C 10.035 13.263,9.995 13.272,9.671 13.428 C 9.238 13.636,8.920 13.925,8.920 14.112 C 8.920 14.370,9.227 14.448,9.821 14.341 C 10.333 14.249,10.549 14.279,10.998 14.503 C 11.391 14.700,11.600 14.870,11.600 14.994 C 11.600 15.039,11.543 15.232,11.474 15.423 L 11.349 15.770 11.285 15.665 C 11.185 15.500,11.157 15.539,11.167 15.830 C 11.176 16.065,11.163 16.125,11.064 16.292 C 10.953 16.479,10.948 16.482,10.871 16.412 C 10.827 16.372,10.747 16.264,10.692 16.170 C 10.637 16.077,10.576 16.010,10.556 16.022 C 10.492 16.062,10.520 16.415,10.602 16.596 C 10.695 16.802,10.682 16.865,10.516 17.023 L 10.393 17.140 10.273 17.000 C 10.208 16.923,10.112 16.779,10.060 16.680 C 9.985 16.534,9.961 16.514,9.939 16.571 C 9.889 16.697,9.941 17.100,10.029 17.267 L 10.114 17.430 9.965 17.575 C 9.883 17.655,9.796 17.720,9.770 17.720 C 9.745 17.720,9.663 17.591,9.588 17.434 C 9.489 17.226,9.442 17.163,9.417 17.204 C 9.366 17.285,9.379 17.675,9.439 17.856 C 9.490 18.011,9.489 18.012,9.335 18.144 C 9.250 18.217,9.168 18.278,9.154 18.278 C 9.140 18.279,9.097 18.163,9.059 18.020 C 9.020 17.877,8.974 17.760,8.957 17.760 C 8.898 17.760,8.863 17.940,8.861 18.249 C 8.860 18.531,8.850 18.568,8.752 18.667 C 8.629 18.789,8.622 18.781,8.571 18.463 C 8.553 18.355,8.519 18.260,8.495 18.252 C 8.434 18.231,8.360 18.547,8.360 18.829 C 8.360 19.031,8.344 19.082,8.241 19.202 C 8.098 19.368,8.070 19.342,8.002 18.984 C 7.976 18.850,7.946 18.707,7.934 18.666 C 7.895 18.535,7.829 18.661,7.775 18.969 C 7.747 19.129,7.697 19.356,7.663 19.474 C 7.626 19.606,7.612 19.755,7.627 19.864 C 7.643 19.979,7.636 20.040,7.607 20.040 C 7.535 20.040,7.360 20.377,7.360 20.516 C 7.360 20.760,7.487 20.916,7.769 21.020 C 7.837 21.045,7.928 21.143,8.009 21.280 C 8.167 21.544,8.418 21.725,8.722 21.792 C 8.842 21.818,9.219 21.843,9.560 21.847 C 10.159 21.853,10.192 21.849,10.529 21.729 C 10.721 21.661,11.027 21.575,11.209 21.538 C 11.618 21.455,11.690 21.418,11.940 21.160 C 12.053 21.043,12.244 20.904,12.380 20.838 C 12.512 20.775,12.666 20.685,12.723 20.639 C 12.780 20.592,12.906 20.537,13.003 20.515 C 13.100 20.493,13.306 20.397,13.460 20.302 C 13.788 20.099,14.275 19.844,14.780 19.610 C 14.978 19.518,15.243 19.377,15.369 19.296 L 15.598 19.150 15.843 19.204 C 16.077 19.256,16.095 19.268,16.202 19.457 C 16.349 19.714,16.412 20.082,16.394 20.580 C 16.376 21.084,16.261 21.345,15.903 21.700 C 15.590 22.008,15.331 22.158,14.608 22.448 C 14.284 22.578,13.694 22.842,13.296 23.036 C 12.440 23.454,12.385 23.464,11.380 23.402 C 9.366 23.277,7.577 22.709,5.920 21.669 C 4.542 20.804,3.196 19.458,2.331 18.080 C 0.588 15.303,0.123 11.936,1.045 8.765 C 1.863 5.949,3.849 3.473,6.462 2.011 C 6.767 1.840,7.046 1.706,7.800 1.370 C 7.936 1.309,7.947 1.310,8.071 1.389 M10.316 2.138 C 10.493 2.230,10.671 2.461,10.738 2.687 C 10.903 3.242,10.714 3.880,10.383 3.880 C 10.214 3.880,10.067 3.764,9.893 3.492 L 9.756 3.278 9.842 3.169 C 9.989 2.982,10.047 2.792,10.070 2.430 C 10.093 2.050,10.109 2.031,10.316 2.138 M11.197 2.878 C 11.646 3.108,11.754 3.590,11.479 4.148 C 11.340 4.430,11.201 4.560,11.038 4.560 C 10.871 4.560,10.805 4.524,10.703 4.373 L 10.610 4.236 10.746 3.968 C 10.904 3.656,10.977 3.307,10.947 3.010 C 10.922 2.767,10.950 2.753,11.197 2.878 M12.380 3.809 C 12.678 4.140,12.801 4.723,12.676 5.218 L 12.633 5.392 12.275 5.520 C 11.882 5.660,11.806 5.658,11.564 5.498 C 11.391 5.384,11.265 5.225,11.160 4.989 L 11.085 4.824 11.281 4.692 C 11.643 4.448,11.868 4.005,11.828 3.615 L 11.806 3.398 12.007 3.508 C 12.117 3.568,12.286 3.703,12.380 3.809 M15.802 4.111 C 15.944 4.184,16.186 4.341,16.340 4.462 C 16.849 4.862,17.254 5.104,17.740 5.298 C 18.317 5.529,18.604 5.685,18.828 5.892 C 19.048 6.095,19.162 6.294,19.333 6.780 C 19.463 7.150,19.841 8.014,19.896 8.069 C 19.922 8.095,19.934 7.961,19.920 7.800 C 19.916 7.745,19.852 7.583,19.780 7.440 C 19.647 7.179,19.579 7.000,19.613 7.000 C 19.623 7.000,20.033 7.196,20.525 7.434 C 21.296 7.809,21.461 7.905,21.718 8.133 C 22.130 8.499,22.429 8.969,22.699 9.678 C 22.844 10.057,23.049 10.467,23.249 10.778 C 23.368 10.963,23.378 11.006,23.407 11.478 C 23.459 12.346,23.359 13.525,23.155 14.460 C 22.823 15.975,22.121 17.526,21.215 18.745 L 20.926 19.134 20.590 19.202 C 20.406 19.240,20.031 19.365,19.757 19.481 C 19.484 19.598,19.143 19.726,19.000 19.767 C 18.661 19.865,17.908 19.909,17.708 19.843 C 17.542 19.788,17.529 19.759,17.630 19.673 C 17.737 19.582,17.875 19.538,18.720 19.326 C 19.942 19.019,20.446 18.791,20.910 18.333 C 21.378 17.872,21.505 17.456,21.601 16.070 C 21.676 14.983,21.555 14.093,21.226 13.309 C 21.049 12.888,20.880 12.284,20.880 12.072 C 20.880 11.951,20.945 11.779,21.130 11.410 C 21.368 10.934,21.380 10.897,21.380 10.619 C 21.380 10.359,21.367 10.309,21.260 10.158 C 21.183 10.051,21.054 9.945,20.903 9.865 C 20.773 9.796,20.659 9.718,20.650 9.691 C 20.641 9.664,20.730 9.540,20.847 9.416 C 21.041 9.211,21.060 9.175,21.056 9.013 C 21.049 8.675,20.797 8.473,19.989 8.159 C 19.094 7.811,18.805 7.620,18.715 7.318 C 18.677 7.194,18.681 7.128,18.734 6.965 C 18.809 6.737,18.820 6.471,18.759 6.358 C 18.696 6.240,18.452 6.134,18.133 6.085 C 17.975 6.060,17.797 6.022,17.737 5.999 C 17.678 5.976,17.623 5.964,17.615 5.972 C 17.590 5.997,18.053 6.194,18.282 6.257 C 18.406 6.291,18.545 6.361,18.597 6.417 C 18.696 6.522,18.696 6.510,18.614 7.148 C 18.596 7.286,18.617 7.365,18.726 7.581 C 18.841 7.810,18.898 7.872,19.136 8.030 C 19.288 8.132,19.634 8.299,19.905 8.403 C 20.419 8.600,20.582 8.694,20.718 8.867 C 20.832 9.011,20.823 9.050,20.630 9.273 C 20.537 9.380,20.429 9.525,20.392 9.594 C 20.341 9.688,20.296 9.720,20.214 9.720 C 20.067 9.720,20.125 9.763,20.457 9.900 C 20.974 10.114,21.220 10.468,21.118 10.848 C 21.093 10.941,20.982 11.197,20.870 11.418 C 20.604 11.948,20.583 12.167,20.742 12.762 C 20.835 13.111,20.854 13.259,20.853 13.660 C 20.852 14.083,20.830 14.235,20.670 14.942 C 20.544 15.500,20.449 15.823,20.359 16.001 C 20.200 16.318,19.835 16.703,19.485 16.925 C 19.339 17.018,18.991 17.245,18.711 17.429 C 18.302 17.698,18.159 17.771,17.983 17.800 C 17.862 17.819,17.589 17.891,17.376 17.959 C 17.127 18.039,16.831 18.098,16.545 18.126 C 16.047 18.173,15.804 18.244,15.221 18.510 C 14.776 18.712,13.905 19.199,13.934 19.228 C 13.945 19.238,14.227 19.127,14.562 18.982 C 14.897 18.836,15.179 18.725,15.189 18.736 C 15.199 18.746,15.129 18.803,15.034 18.864 C 14.938 18.924,14.750 19.066,14.615 19.180 C 14.480 19.294,14.156 19.501,13.895 19.639 C 13.634 19.777,13.327 19.950,13.213 20.023 C 13.099 20.096,12.936 20.174,12.851 20.197 C 12.765 20.220,12.625 20.300,12.538 20.374 C 12.451 20.448,12.305 20.547,12.214 20.593 C 12.123 20.639,11.965 20.775,11.863 20.895 C 11.646 21.148,11.522 21.214,11.140 21.278 C 10.986 21.303,10.689 21.380,10.480 21.447 C 9.996 21.603,9.447 21.643,9.111 21.545 C 8.855 21.471,8.744 21.461,8.850 21.523 C 8.964 21.590,8.930 21.634,8.789 21.602 C 8.590 21.557,8.502 21.498,8.324 21.290 L 8.161 21.100 8.290 21.078 C 8.408 21.058,8.389 21.047,8.080 20.949 C 7.632 20.809,7.560 20.756,7.560 20.564 C 7.560 20.481,7.571 20.402,7.585 20.388 C 7.599 20.374,7.682 20.424,7.769 20.498 C 7.983 20.682,8.240 20.740,8.820 20.738 C 9.236 20.736,9.342 20.721,9.617 20.626 C 10.238 20.411,11.496 19.668,11.803 19.335 C 11.882 19.250,12.067 19.023,12.215 18.831 C 12.437 18.541,12.546 18.441,12.852 18.243 C 13.664 17.718,13.919 17.521,14.344 17.091 C 14.902 16.526,15.118 16.147,15.200 15.588 C 15.227 15.408,15.284 15.280,15.453 15.018 C 15.577 14.827,15.762 14.452,15.881 14.151 C 16.389 12.866,16.752 12.382,17.611 11.842 C 18.057 11.562,18.331 11.361,18.266 11.360 C 18.248 11.360,18.178 11.398,18.112 11.445 C 18.046 11.493,17.857 11.581,17.693 11.643 C 17.134 11.851,16.745 12.139,16.352 12.633 C 16.098 12.953,15.811 13.510,15.693 13.910 C 15.653 14.047,15.609 14.160,15.596 14.160 C 15.582 14.160,15.560 14.055,15.547 13.926 C 15.495 13.430,15.042 12.308,14.768 11.995 C 14.697 11.915,14.640 11.837,14.640 11.822 C 14.640 11.807,15.068 11.800,15.590 11.807 L 16.540 11.820 16.800 11.690 C 16.943 11.619,17.141 11.516,17.240 11.463 C 17.339 11.409,17.770 11.261,18.198 11.134 C 19.117 10.861,19.188 10.815,19.324 10.408 C 19.373 10.261,19.455 10.050,19.506 9.940 C 19.663 9.604,19.607 9.292,19.341 9.015 C 19.146 8.812,18.919 8.738,18.668 8.794 L 18.500 8.831 18.687 8.836 C 19.191 8.847,19.470 9.187,19.363 9.660 C 19.242 10.190,18.622 10.674,17.449 11.155 L 16.900 11.380 16.040 11.383 L 15.180 11.385 14.780 11.532 C 14.284 11.713,14.085 11.722,13.865 11.570 C 13.710 11.462,13.694 11.460,13.123 11.460 L 12.540 11.460 12.063 11.246 C 11.168 10.844,11.124 10.835,9.968 10.838 C 8.946 10.840,8.399 10.797,8.000 10.683 C 7.857 10.642,7.695 10.599,7.640 10.586 C 7.584 10.574,7.035 10.560,6.420 10.557 C 5.366 10.551,5.262 10.557,4.660 10.660 C 4.047 10.765,3.691 10.865,3.558 10.971 C 3.464 11.046,3.360 11.210,3.363 11.279 C 3.365 11.320,3.373 11.324,3.386 11.290 C 3.424 11.197,3.480 11.239,3.480 11.360 C 3.480 11.500,3.421 11.513,3.214 11.414 C 3.067 11.345,2.920 11.112,2.920 10.952 C 2.920 10.804,3.066 10.607,3.270 10.478 C 3.493 10.336,3.829 10.227,4.688 10.017 C 5.034 9.933,5.311 9.858,5.304 9.851 C 5.284 9.830,4.446 9.960,4.041 10.047 C 3.832 10.092,3.538 10.173,3.387 10.227 C 3.236 10.282,3.107 10.320,3.100 10.313 C 3.093 10.306,3.018 10.039,2.933 9.720 C 2.800 9.214,2.780 9.086,2.783 8.720 C 2.787 8.262,2.868 7.790,3.023 7.316 C 3.135 6.973,3.253 6.793,3.452 6.657 C 3.582 6.569,4.024 6.400,4.125 6.400 C 4.151 6.400,4.070 6.507,3.945 6.638 C 3.692 6.904,3.520 7.229,3.522 7.440 L 3.523 7.580 3.631 7.363 C 3.770 7.086,4.053 6.775,4.349 6.576 C 4.476 6.490,4.717 6.294,4.884 6.140 C 5.483 5.587,5.979 5.380,6.700 5.380 C 7.072 5.380,7.162 5.393,7.280 5.462 C 7.483 5.582,7.548 5.717,7.495 5.914 C 7.463 6.037,7.464 6.068,7.503 6.053 C 7.608 6.013,7.630 5.719,7.541 5.548 C 7.483 5.437,7.484 5.434,7.629 5.374 C 7.746 5.325,7.806 5.321,7.922 5.356 C 8.113 5.413,8.275 5.567,8.306 5.719 C 8.325 5.817,8.341 5.832,8.385 5.796 C 8.415 5.771,8.440 5.691,8.440 5.619 C 8.440 5.384,8.648 5.378,9.070 5.600 C 9.361 5.754,9.600 5.807,9.600 5.718 C 9.600 5.695,9.533 5.648,9.450 5.613 C 9.300 5.550,9.300 5.550,9.400 5.512 C 9.467 5.486,9.709 5.494,10.140 5.538 C 10.492 5.573,10.851 5.606,10.937 5.611 C 11.148 5.623,11.179 5.718,10.973 5.725 C 10.889 5.727,10.766 5.743,10.700 5.760 L 10.580 5.791 10.720 5.800 C 10.797 5.805,11.091 5.807,11.374 5.804 C 11.858 5.800,11.917 5.791,12.400 5.637 C 12.681 5.547,13.020 5.410,13.153 5.331 C 13.286 5.252,13.635 4.965,13.928 4.692 C 14.605 4.062,14.810 3.949,15.242 3.967 C 15.489 3.978,15.592 4.004,15.802 4.111 M13.143 4.500 C 13.331 4.643,13.461 4.835,13.407 4.889 C 13.375 4.921,13.341 4.906,13.283 4.836 L 13.204 4.740 13.226 4.882 C 13.246 5.009,13.231 5.039,13.084 5.172 C 12.994 5.253,12.904 5.320,12.885 5.320 C 12.866 5.320,12.875 5.216,12.905 5.090 C 12.934 4.964,12.959 4.756,12.959 4.630 C 12.960 4.504,12.972 4.400,12.986 4.400 C 13.001 4.400,13.071 4.445,13.143 4.500 M14.960 5.163 C 14.883 5.209,14.621 5.449,14.377 5.697 C 14.029 6.051,13.891 6.164,13.737 6.221 C 13.337 6.368,13.322 6.492,13.698 6.531 C 13.956 6.558,14.334 6.731,14.640 6.961 C 15.103 7.310,15.312 7.367,15.655 7.238 C 15.978 7.117,16.240 6.863,16.240 6.670 C 16.240 6.552,16.213 6.506,16.086 6.405 C 15.941 6.290,15.717 5.880,15.799 5.880 C 15.818 5.880,15.919 5.917,16.023 5.961 C 16.127 6.006,16.230 6.037,16.251 6.030 C 16.318 6.007,15.839 5.673,15.442 5.467 C 15.232 5.357,15.052 5.261,15.043 5.253 C 14.999 5.217,15.134 5.143,15.289 5.118 L 15.460 5.090 15.280 5.085 C 15.162 5.082,15.052 5.109,14.960 5.163 M15.335 5.650 C 15.638 5.811,15.633 5.807,15.560 5.831 C 15.527 5.842,15.415 5.943,15.311 6.056 L 15.121 6.260 14.643 6.262 C 14.319 6.264,14.173 6.251,14.189 6.222 C 14.212 6.181,14.508 5.863,14.734 5.635 C 14.885 5.483,15.027 5.487,15.335 5.650 M16.767 6.452 C 17.066 6.743,17.147 6.945,17.106 7.290 C 17.062 7.662,16.901 7.797,16.238 8.017 C 15.197 8.363,14.800 8.232,14.201 7.344 C 13.798 6.745,13.512 6.490,13.633 6.837 C 13.697 7.021,14.295 7.884,14.486 8.068 C 14.888 8.456,15.297 8.508,16.047 8.265 C 16.296 8.184,16.608 8.058,16.740 7.985 C 16.944 7.873,16.998 7.818,17.100 7.619 C 17.260 7.308,17.271 6.902,17.127 6.670 C 17.039 6.529,16.634 6.200,16.548 6.200 C 16.527 6.200,16.625 6.313,16.767 6.452 M5.860 6.336 C 5.673 6.418,5.488 6.634,5.397 6.878 C 5.306 7.120,5.283 7.499,5.355 7.571 C 5.388 7.604,5.400 7.575,5.400 7.457 C 5.400 7.235,5.515 7.042,5.738 6.890 C 5.954 6.743,6.098 6.724,6.158 6.836 C 6.189 6.894,6.176 6.944,6.100 7.056 C 6.046 7.135,6.017 7.200,6.034 7.200 C 6.107 7.200,6.415 6.894,6.466 6.771 C 6.515 6.654,6.514 6.620,6.459 6.504 C 6.358 6.291,6.116 6.223,5.860 6.336 M8.361 6.486 C 8.201 6.597,7.983 6.889,8.007 6.962 C 8.016 6.989,8.091 6.919,8.173 6.805 C 8.254 6.691,8.383 6.568,8.459 6.532 C 8.581 6.474,8.617 6.473,8.766 6.522 C 9.022 6.606,9.361 6.945,9.535 7.289 C 9.676 7.568,9.846 8.168,9.900 8.572 C 9.916 8.695,9.943 8.759,9.973 8.748 C 10.004 8.737,10.018 8.627,10.014 8.413 C 10.004 7.933,9.707 7.121,9.396 6.726 C 9.355 6.674,9.332 6.613,9.346 6.591 C 9.390 6.518,9.754 6.586,10.017 6.716 C 10.574 6.990,10.911 7.601,11.142 8.754 C 11.248 9.288,11.274 9.362,11.322 9.275 C 11.361 9.205,11.265 8.553,11.158 8.160 C 11.038 7.722,10.800 7.260,10.526 6.934 C 10.394 6.776,10.296 6.637,10.310 6.624 C 10.353 6.580,10.818 6.603,10.967 6.656 C 11.177 6.731,11.611 7.089,11.818 7.357 C 12.182 7.830,12.405 8.353,12.542 9.050 C 12.624 9.466,12.703 9.523,12.667 9.139 C 12.609 8.518,12.127 7.434,11.703 6.971 C 11.444 6.688,11.441 6.690,11.880 6.851 C 12.055 6.915,12.174 7.006,12.463 7.296 C 13.125 7.961,13.354 8.405,13.700 9.690 C 13.784 10.002,13.852 9.991,13.817 9.670 C 13.695 8.553,12.823 7.171,11.995 6.782 C 11.492 6.546,10.837 6.453,9.420 6.415 L 8.500 6.391 8.361 6.486 M23.237 10.225 C 23.283 10.283,23.320 10.386,23.320 10.454 C 23.320 10.571,23.317 10.573,23.265 10.499 C 23.178 10.376,23.080 10.120,23.119 10.120 C 23.138 10.120,23.192 10.167,23.237 10.225 M6.056 11.052 C 6.118 11.098,6.122 11.126,6.084 11.262 C 6.024 11.478,6.032 11.787,6.101 11.980 C 6.198 12.248,6.162 12.269,5.943 12.077 C 5.669 11.836,5.469 11.216,5.619 11.067 C 5.699 10.987,5.955 10.978,6.056 11.052 M7.016 11.140 C 7.013 11.206,6.989 11.395,6.962 11.561 C 6.914 11.853,6.921 11.947,7.024 12.374 L 7.051 12.488 6.927 12.424 C 6.606 12.258,6.304 11.449,6.436 11.108 C 6.478 10.999,6.486 10.997,6.750 11.008 L 7.020 11.020 7.016 11.140 M5.133 11.095 C 5.144 11.125,5.135 11.229,5.113 11.325 C 5.056 11.570,5.098 12.000,5.198 12.196 C 5.281 12.360,5.281 12.360,5.201 12.360 C 5.072 12.360,4.797 12.080,4.676 11.824 C 4.544 11.545,4.487 11.188,4.560 11.100 C 4.627 11.019,5.102 11.015,5.133 11.095 M8.098 11.188 C 8.110 11.221,8.101 11.321,8.077 11.410 C 8.054 11.498,8.034 11.746,8.033 11.960 C 8.032 12.286,8.049 12.389,8.135 12.602 C 8.191 12.742,8.229 12.864,8.220 12.873 C 8.210 12.883,8.149 12.868,8.083 12.841 C 7.910 12.770,7.610 12.432,7.502 12.189 C 7.343 11.828,7.272 11.338,7.358 11.202 C 7.431 11.087,8.054 11.075,8.098 11.188 M4.285 11.520 C 4.311 11.874,4.361 12.051,4.469 12.170 C 4.504 12.209,4.522 12.252,4.508 12.265 C 4.455 12.318,4.270 12.230,4.121 12.081 C 3.928 11.888,3.806 11.657,3.774 11.425 C 3.752 11.260,3.757 11.247,3.865 11.207 C 3.928 11.184,4.043 11.168,4.120 11.172 L 4.260 11.180 4.285 11.520 M9.150 11.272 C 9.184 11.315,9.191 11.383,9.170 11.478 C 9.154 11.556,9.141 11.863,9.141 12.160 C 9.142 12.639,9.153 12.724,9.237 12.911 C 9.337 13.136,9.332 13.182,9.211 13.143 C 8.948 13.060,8.567 12.449,8.460 11.940 C 8.353 11.427,8.390 11.226,8.600 11.187 C 8.776 11.155,9.097 11.204,9.150 11.272 M10.266 11.341 C 10.279 11.374,10.268 11.487,10.241 11.591 C 10.171 11.870,10.182 12.393,10.262 12.594 C 10.300 12.687,10.320 12.773,10.309 12.785 C 10.262 12.831,10.036 12.669,9.901 12.494 C 9.662 12.180,9.507 11.469,9.648 11.328 C 9.722 11.254,10.237 11.264,10.266 11.341 M11.340 11.495 C 11.409 11.546,11.412 11.569,11.368 11.758 C 11.301 12.049,11.308 12.522,11.383 12.742 C 11.417 12.844,11.436 12.937,11.424 12.949 C 11.395 12.978,11.209 12.853,11.089 12.724 C 10.802 12.416,10.616 11.670,10.783 11.503 C 10.863 11.423,11.235 11.418,11.340 11.495 M12.413 11.775 C 12.424 11.805,12.415 11.909,12.393 12.005 C 12.336 12.250,12.379 12.695,12.477 12.884 C 12.559 13.040,12.559 13.040,12.478 13.040 C 12.346 13.040,12.060 12.741,11.944 12.481 C 11.815 12.194,11.767 11.869,11.839 11.781 C 11.907 11.699,12.382 11.694,12.413 11.775 M13.282 12.135 C 13.284 12.435,13.348 12.676,13.459 12.799 C 13.569 12.921,13.455 12.936,13.266 12.826 C 13.007 12.674,12.760 12.272,12.760 12.004 C 12.760 11.865,12.802 11.831,13.020 11.799 C 13.248 11.765,13.280 11.805,13.282 12.135 M14.000 12.157 C 14.000 12.310,14.019 12.483,14.041 12.543 C 14.096 12.688,14.061 12.711,13.931 12.614 C 13.783 12.504,13.640 12.219,13.640 12.034 L 13.640 11.880 13.820 11.880 L 14.000 11.880 14.000 12.157 M14.977 12.944 C 15.074 12.982,15.052 13.062,14.914 13.178 C 14.775 13.296,13.778 13.800,13.686 13.800 C 13.653 13.800,13.638 13.811,13.651 13.824 C 13.694 13.867,14.314 13.637,14.741 13.420 L 15.157 13.209 15.216 13.395 C 15.336 13.764,15.405 14.095,15.382 14.185 C 15.334 14.379,14.547 14.715,13.947 14.797 C 13.646 14.838,13.450 14.904,13.494 14.948 C 13.506 14.959,13.830 14.921,14.214 14.861 C 15.112 14.723,15.278 14.737,14.760 14.908 C 14.004 15.157,13.355 15.221,12.843 15.096 C 12.551 15.025,11.931 14.743,11.404 14.443 C 11.015 14.221,10.632 14.080,10.417 14.080 C 10.337 14.080,10.066 14.119,9.815 14.166 C 9.455 14.234,9.337 14.242,9.259 14.207 C 9.118 14.142,9.136 14.053,9.330 13.861 C 9.735 13.459,10.320 13.403,11.440 13.657 C 12.070 13.801,12.125 13.807,12.640 13.789 C 13.049 13.774,13.248 13.748,13.460 13.680 C 13.824 13.564,14.231 13.362,14.536 13.145 C 14.670 13.050,14.807 12.962,14.840 12.949 C 14.873 12.937,14.903 12.925,14.907 12.923 C 14.910 12.921,14.942 12.931,14.977 12.944 M13.703 16.324 C 13.767 16.393,13.915 16.503,14.032 16.569 C 14.265 16.702,14.282 16.765,14.115 16.890 C 14.026 16.956,13.995 16.961,13.915 16.919 C 13.683 16.799,13.480 16.534,13.480 16.349 C 13.480 16.164,13.544 16.157,13.703 16.324 M12.847 16.870 C 12.948 16.974,13.141 17.123,13.275 17.200 C 13.409 17.277,13.519 17.361,13.520 17.386 C 13.520 17.444,13.254 17.680,13.189 17.680 C 13.082 17.679,12.736 17.372,12.650 17.201 C 12.535 16.974,12.528 16.680,12.638 16.680 C 12.651 16.680,12.745 16.765,12.847 16.870 M11.929 17.375 C 12.001 17.472,12.180 17.639,12.328 17.745 C 12.475 17.852,12.596 17.971,12.598 18.008 C 12.600 18.075,12.370 18.280,12.292 18.280 C 12.270 18.280,12.170 18.218,12.070 18.141 C 11.789 17.927,11.612 17.503,11.704 17.263 C 11.742 17.164,11.788 17.187,11.929 17.375 M11.232 18.052 C 11.305 18.166,11.462 18.341,11.580 18.440 C 11.698 18.539,11.796 18.651,11.798 18.688 C 11.800 18.756,11.570 18.960,11.491 18.960 C 11.416 18.960,11.110 18.624,11.035 18.460 C 10.964 18.305,10.933 17.921,10.987 17.867 C 11.046 17.808,11.106 17.853,11.232 18.052 M10.505 18.590 C 10.561 18.716,10.706 18.951,10.827 19.110 C 10.955 19.278,11.039 19.425,11.026 19.458 C 11.014 19.490,10.927 19.555,10.834 19.603 L 10.664 19.690 10.570 19.575 C 10.354 19.313,10.263 19.075,10.261 18.776 C 10.260 18.526,10.310 18.360,10.387 18.360 C 10.397 18.360,10.450 18.463,10.505 18.590 M9.878 19.050 C 9.902 19.166,10.005 19.403,10.106 19.578 L 10.290 19.895 10.180 19.990 C 9.998 20.147,9.881 20.102,9.740 19.820 C 9.641 19.621,9.620 19.531,9.620 19.298 C 9.620 19.095,9.640 18.986,9.692 18.907 C 9.785 18.765,9.824 18.794,9.878 19.050 M9.120 19.429 C 9.157 19.563,9.262 19.793,9.353 19.939 C 9.445 20.085,9.520 20.231,9.520 20.263 C 9.520 20.329,9.294 20.480,9.195 20.480 C 9.156 20.480,9.079 20.376,8.996 20.210 C 8.878 19.975,8.861 19.901,8.861 19.640 C 8.861 19.340,8.924 19.141,9.009 19.170 C 9.033 19.178,9.083 19.294,9.120 19.429 M8.536 19.650 C 8.570 19.765,8.663 19.967,8.743 20.098 L 8.888 20.337 8.797 20.410 C 8.747 20.451,8.669 20.478,8.623 20.472 C 8.522 20.457,8.374 20.182,8.338 19.942 C 8.312 19.767,8.377 19.440,8.439 19.440 C 8.458 19.440,8.502 19.535,8.536 19.650 M7.996 19.708 C 8.035 19.822,8.114 19.988,8.173 20.077 C 8.232 20.166,8.280 20.247,8.280 20.258 C 8.280 20.280,8.059 20.400,8.020 20.400 C 7.965 20.400,7.801 19.967,7.801 19.820 C 7.801 19.617,7.839 19.473,7.888 19.489 C 7.909 19.496,7.958 19.595,7.996 19.708 M20.564 19.550 C 20.543 19.588,20.365 19.779,20.169 19.973 C 19.856 20.282,19.771 20.343,19.476 20.465 C 19.291 20.541,19.005 20.660,18.840 20.730 C 18.582 20.838,18.481 20.857,18.120 20.870 C 17.774 20.882,17.675 20.872,17.560 20.812 C 17.229 20.641,17.408 20.500,18.065 20.416 C 18.761 20.327,18.915 20.277,19.788 19.863 C 20.224 19.656,20.585 19.485,20.591 19.483 C 20.598 19.481,20.585 19.512,20.564 19.550 " stroke="none" fill="black" fill-rule="evenodd"></path></svg>