<svg role="img" viewBox="0 0 24 24" xmlns="http://www.w3.org/2000/svg"><path d="M9.296 1.733 C 7.819 2.683,6.582 3.485,6.546 3.515 C 6.486 3.565,6.480 3.799,6.480 6.045 L 6.480 8.520 5.240 8.520 L 4.000 8.520 4.000 10.020 L 4.000 11.520 5.120 11.520 C 5.736 11.520,6.240 11.529,6.240 11.540 C 6.240 11.581,4.280 23.823,4.260 23.910 L 4.238 24.000 12.000 24.000 L 19.762 24.000 19.740 23.910 C 19.720 23.823,17.760 11.581,17.760 11.540 C 17.760 11.529,18.264 11.520,18.880 11.520 L 20.000 11.520 20.000 10.020 L 20.000 8.520 18.760 8.520 L 17.521 8.520 17.510 6.010 L 17.500 3.500 14.760 1.752 C 13.253 0.791,12.011 0.005,12.000 0.005 C 11.989 0.005,10.772 0.783,9.296 1.733 M13.241 4.348 L 14.480 5.136 14.480 6.828 L 14.480 8.520 12.000 8.520 L 9.519 8.520 9.530 6.832 L 9.540 5.145 10.760 4.355 C 11.431 3.921,11.985 3.565,11.991 3.563 C 11.997 3.561,12.560 3.915,13.241 4.348 M14.958 13.310 C 14.957 13.327,15.078 14.226,15.227 15.308 C 15.375 16.391,15.488 17.284,15.478 17.292 C 15.452 17.315,8.022 20.034,8.012 20.025 C 7.995 20.008,8.714 15.552,8.739 15.527 C 8.777 15.487,14.808 13.287,14.890 13.283 C 14.928 13.282,14.959 13.293,14.958 13.310 " stroke="none" fill="black" fill-rule="evenodd"></path></svg>