<svg role="img" viewBox="0 0 24 24" xmlns="http://www.w3.org/2000/svg"><path d="M1.331 0.061 C 0.866 0.187,0.477 0.470,0.251 0.846 C -0.020 1.299,-0.002 0.434,0.010 12.102 L 0.020 22.660 0.110 22.880 C 0.294 23.333,0.664 23.690,1.156 23.889 L 1.380 23.980 12.000 23.980 L 22.620 23.980 22.844 23.889 C 23.336 23.690,23.706 23.333,23.890 22.880 L 23.980 22.660 23.980 12.000 L 23.980 1.340 23.890 1.120 C 23.706 0.667,23.336 0.310,22.844 0.111 L 22.620 0.020 12.080 0.012 C 3.102 0.006,1.509 0.013,1.331 0.061 M5.883 3.384 C 6.777 3.646,7.402 4.466,7.399 5.372 C 7.397 6.134,6.931 6.874,6.240 7.214 C 5.434 7.609,4.523 7.453,3.882 6.809 C 2.597 5.518,3.499 3.334,5.323 3.322 C 5.525 3.321,5.754 3.346,5.883 3.384 M17.460 8.832 C 18.933 9.152,19.833 10.066,20.201 11.616 C 20.413 12.507,20.413 12.509,20.429 16.610 L 20.444 20.440 18.664 20.440 L 16.883 20.440 16.870 17.010 C 16.857 13.629,16.855 13.575,16.769 13.250 C 16.549 12.423,16.136 12.002,15.421 11.877 C 14.923 11.790,14.270 11.898,13.869 12.133 C 13.485 12.357,13.178 12.837,13.017 13.460 C 12.951 13.717,12.944 14.019,12.931 17.090 L 12.917 20.440 11.138 20.440 L 9.360 20.440 9.360 14.720 L 9.360 9.000 11.060 9.000 L 12.760 9.000 12.760 9.780 C 12.760 10.209,12.773 10.560,12.790 10.559 C 12.807 10.559,12.874 10.466,12.940 10.352 C 13.093 10.090,13.550 9.623,13.860 9.413 C 14.330 9.096,14.842 8.886,15.413 8.777 C 15.827 8.698,16.985 8.729,17.460 8.832 M7.120 14.720 L 7.120 20.440 5.340 20.440 L 3.560 20.440 3.560 14.720 L 3.560 9.000 5.340 9.000 L 7.120 9.000 7.120 14.720 " stroke="none" fill="black" fill-rule="evenodd"></path></svg>