<svg role="img" viewBox="0 0 24 24" xmlns="http://www.w3.org/2000/svg"><path d="M5.020 0.895 C 3.458 1.383,2.158 1.791,2.131 1.802 C 2.094 1.815,2.232 2.636,2.661 4.960 C 2.981 6.687,3.257 8.137,3.276 8.181 C 3.295 8.226,3.708 8.577,4.194 8.961 C 4.679 9.346,5.077 9.669,5.078 9.680 C 5.079 9.692,4.800 9.834,4.458 9.997 C 3.863 10.280,3.837 10.297,3.859 10.397 C 3.871 10.453,4.078 11.543,4.318 12.818 L 4.756 15.135 5.376 15.758 L 5.995 16.380 5.599 16.619 L 5.202 16.858 5.225 16.999 C 5.238 17.077,5.395 17.935,5.574 18.906 L 5.900 20.672 7.395 22.312 L 8.891 23.952 9.875 23.207 C 10.417 22.796,11.337 22.099,11.920 21.657 L 12.980 20.853 13.000 19.728 L 13.020 18.604 13.671 19.146 L 14.322 19.688 14.451 19.591 C 15.056 19.137,17.587 17.224,17.610 17.203 C 17.627 17.188,17.673 16.813,17.712 16.369 C 17.752 15.925,17.793 15.553,17.804 15.543 C 17.815 15.532,18.042 15.668,18.309 15.846 L 18.794 16.168 20.127 15.199 C 20.860 14.665,21.476 14.215,21.495 14.198 C 21.514 14.181,21.635 13.387,21.764 12.434 C 21.948 11.072,21.988 10.692,21.949 10.657 C 21.891 10.605,18.703 8.720,18.673 8.720 C 18.661 8.720,18.006 9.095,17.216 9.554 L 15.780 10.389 15.755 10.644 C 15.741 10.785,15.725 11.089,15.720 11.320 C 15.715 11.551,15.699 11.789,15.685 11.848 L 15.660 11.957 15.110 11.598 L 14.560 11.240 13.690 11.734 C 13.212 12.006,12.814 12.223,12.806 12.217 C 12.798 12.211,12.776 11.858,12.755 11.433 C 12.735 11.008,12.712 10.640,12.703 10.617 C 12.695 10.593,12.317 10.314,11.864 9.997 C 11.412 9.679,11.041 9.407,11.041 9.391 C 11.040 9.375,11.342 9.210,11.710 9.023 C 12.079 8.837,12.410 8.661,12.447 8.632 C 12.508 8.584,12.506 8.362,12.416 5.401 C 12.363 3.653,12.306 2.210,12.289 2.195 C 12.210 2.121,7.998 0.000,7.934 0.003 C 7.893 0.005,6.582 0.406,5.020 0.895 M4.211 3.425 C 5.228 4.055,6.062 4.573,6.065 4.575 C 6.077 4.586,6.993 10.741,6.984 10.750 C 6.973 10.761,5.595 9.714,4.378 8.770 L 3.539 8.119 3.088 5.930 C 2.839 4.725,2.568 3.411,2.484 3.010 C 2.401 2.609,2.340 2.280,2.348 2.280 C 2.356 2.280,3.195 2.795,4.211 3.425 M12.040 2.570 C 12.040 2.641,12.094 3.959,12.160 5.498 C 12.226 7.037,12.267 8.309,12.250 8.325 C 12.182 8.391,7.315 10.889,7.295 10.868 C 7.271 10.844,6.400 4.797,6.400 4.661 C 6.401 4.591,6.766 4.439,9.170 3.512 C 10.694 2.924,11.963 2.442,11.990 2.442 C 12.020 2.441,12.040 2.492,12.040 2.570 M5.846 12.230 C 7.189 13.351,7.394 13.537,7.414 13.650 C 7.427 13.721,7.555 14.653,7.699 15.720 C 7.844 16.787,7.973 17.714,7.986 17.780 C 8.009 17.891,7.987 17.878,7.687 17.600 C 7.508 17.435,7.006 16.958,6.571 16.540 C 6.136 16.122,5.605 15.616,5.390 15.415 L 5.001 15.049 4.581 13.015 C 4.350 11.896,4.151 10.938,4.139 10.886 C 4.116 10.792,4.117 10.792,4.209 10.866 C 4.259 10.907,4.996 11.520,5.846 12.230 M18.171 12.174 C 18.944 12.659,19.001 12.703,18.984 12.798 C 18.973 12.854,18.914 13.526,18.853 14.292 C 18.792 15.057,18.731 15.702,18.718 15.724 C 18.704 15.746,18.505 15.635,18.265 15.472 L 17.837 15.180 17.859 14.680 C 17.872 14.405,17.892 14.044,17.905 13.877 L 17.929 13.575 16.965 12.886 L 16.000 12.197 16.000 11.500 L 16.000 10.803 16.670 11.227 C 17.038 11.460,17.714 11.886,18.171 12.174 M12.476 13.004 C 12.528 14.209,12.554 15.181,12.534 15.199 C 12.463 15.265,8.351 18.044,8.342 18.032 C 8.328 18.015,7.723 13.809,7.710 13.646 L 7.700 13.512 10.020 12.179 C 11.296 11.446,12.350 10.845,12.362 10.843 C 12.374 10.842,12.426 11.814,12.476 13.004 M21.680 11.054 C 21.680 11.104,21.278 13.935,21.270 13.941 C 21.264 13.945,20.756 14.348,20.141 14.837 C 19.525 15.325,19.018 15.710,19.013 15.693 C 19.008 15.675,19.062 14.990,19.132 14.172 L 19.260 12.683 20.440 11.863 C 21.508 11.121,21.680 11.009,21.680 11.054 M17.563 15.209 C 17.517 15.897,17.468 16.584,17.454 16.735 L 17.429 17.010 16.064 18.097 C 15.314 18.695,14.678 19.198,14.650 19.214 C 14.610 19.238,14.600 18.915,14.600 17.647 L 14.600 16.049 16.110 14.965 C 16.941 14.369,17.626 13.899,17.633 13.920 C 17.640 13.941,17.608 14.521,17.563 15.209 M13.584 15.545 C 13.948 15.823,14.254 16.070,14.264 16.095 C 14.273 16.120,14.276 16.844,14.270 17.705 L 14.260 19.270 13.630 18.733 L 13.000 18.195 12.997 17.648 L 12.994 17.100 12.417 16.604 C 12.029 16.270,11.852 16.094,11.877 16.064 C 11.897 16.040,12.122 15.876,12.377 15.700 C 12.771 15.427,12.840 15.364,12.840 15.273 C 12.840 15.165,12.875 15.040,12.905 15.040 C 12.914 15.040,13.220 15.267,13.584 15.545 M12.656 17.610 C 12.668 17.726,12.697 18.342,12.720 18.980 C 12.742 19.618,12.771 20.250,12.783 20.384 L 12.805 20.628 11.020 22.056 C 10.038 22.842,9.212 23.493,9.184 23.504 C 9.147 23.518,9.120 23.432,9.085 23.192 C 9.059 23.009,8.951 22.269,8.845 21.546 L 8.651 20.231 8.896 20.056 C 9.030 19.960,9.914 19.324,10.860 18.642 C 11.806 17.961,12.592 17.403,12.607 17.402 C 12.622 17.401,12.644 17.495,12.656 17.610 M7.645 19.547 L 8.390 20.300 8.615 21.836 C 8.739 22.681,8.835 23.378,8.828 23.385 C 8.822 23.391,8.214 22.758,7.478 21.977 L 6.140 20.557 5.972 19.749 C 5.880 19.304,5.734 18.603,5.649 18.192 L 5.494 17.444 6.197 18.119 C 6.584 18.491,7.235 19.133,7.645 19.547 " stroke="none" fill="black" fill-rule="evenodd"></path></svg>