<svg role="img" viewBox="0 0 24 24" xmlns="http://www.w3.org/2000/svg"><path d="M11.780 0.043 C 10.469 0.221,9.576 0.839,9.142 1.871 C 8.795 2.693,8.732 3.415,8.814 5.620 C 8.842 6.380,8.838 6.610,8.786 6.940 C 8.622 8.000,8.282 8.730,7.481 9.740 C 6.092 11.495,5.216 13.136,4.876 14.625 C 4.805 14.936,4.784 15.163,4.777 15.691 C 4.770 16.180,4.753 16.383,4.714 16.436 C 4.427 16.829,4.024 17.327,3.941 17.392 C 3.885 17.436,3.613 17.567,3.338 17.682 C 2.347 18.098,2.130 18.499,2.296 19.605 C 2.383 20.182,2.376 20.366,2.256 20.740 C 2.131 21.127,2.089 21.603,2.160 21.823 C 2.329 22.350,2.780 22.567,4.063 22.738 C 5.230 22.894,5.332 22.923,6.347 23.377 C 7.715 23.988,9.077 23.798,9.643 22.916 C 9.757 22.737,9.771 22.729,9.997 22.703 C 10.127 22.689,10.500 22.623,10.826 22.557 C 11.674 22.386,12.351 22.362,13.120 22.478 C 13.439 22.527,13.898 22.576,14.140 22.589 L 14.580 22.611 14.727 22.916 C 15.077 23.647,15.783 24.051,16.596 23.987 C 17.364 23.927,18.020 23.555,18.820 22.727 C 19.308 22.223,19.561 22.050,20.555 21.541 C 21.671 20.971,21.923 20.710,21.869 20.183 C 21.838 19.885,21.738 19.678,21.427 19.270 C 21.280 19.078,21.160 18.909,21.160 18.894 C 21.160 18.880,21.115 18.776,21.061 18.664 C 21.006 18.552,20.898 18.211,20.822 17.906 C 20.636 17.167,20.478 16.912,20.090 16.727 C 19.998 16.683,19.965 16.645,19.982 16.602 C 20.175 16.103,20.249 15.082,20.144 14.371 C 19.942 13.003,19.217 11.529,17.984 9.980 C 17.044 8.800,16.718 8.340,16.479 7.860 C 16.088 7.074,16.074 6.995,16.039 5.220 C 16.008 3.688,15.972 3.265,15.817 2.669 C 15.446 1.235,14.704 0.412,13.519 0.120 C 13.124 0.022,12.224 -0.018,11.780 0.043 M13.525 3.547 C 14.010 3.811,14.316 4.528,14.204 5.140 C 14.155 5.409,13.940 5.880,13.867 5.880 C 13.841 5.879,13.724 5.834,13.606 5.780 C 13.488 5.725,13.364 5.680,13.329 5.680 C 13.277 5.680,13.281 5.664,13.348 5.590 C 13.493 5.431,13.533 5.306,13.533 5.017 C 13.533 4.549,13.305 4.184,13.013 4.184 C 12.734 4.184,12.480 4.615,12.480 5.090 C 12.480 5.355,12.520 5.343,12.102 5.201 C 11.861 5.119,11.832 5.043,11.883 4.637 C 12.004 3.675,12.795 3.149,13.525 3.547 M10.398 3.539 C 10.570 3.628,10.789 3.906,10.884 4.157 C 10.935 4.291,10.977 4.516,10.989 4.720 L 11.009 5.060 10.784 5.170 C 10.660 5.230,10.552 5.280,10.545 5.280 C 10.537 5.280,10.522 5.165,10.510 5.023 C 10.446 4.226,9.817 4.123,9.767 4.902 C 9.748 5.196,9.812 5.473,9.933 5.628 L 10.015 5.732 9.897 5.826 C 9.833 5.877,9.762 5.920,9.740 5.920 C 9.682 5.920,9.453 5.569,9.376 5.360 C 9.283 5.108,9.279 4.488,9.368 4.200 C 9.454 3.926,9.606 3.687,9.772 3.570 C 9.923 3.463,10.223 3.448,10.398 3.539 M11.852 5.219 C 12.103 5.272,12.233 5.332,12.840 5.672 C 12.961 5.739,13.206 5.848,13.383 5.914 C 13.922 6.112,14.240 6.352,14.240 6.560 C 14.240 6.895,13.935 7.223,13.344 7.525 C 13.122 7.639,12.868 7.781,12.780 7.841 C 12.265 8.190,11.702 8.381,11.274 8.350 C 10.967 8.328,10.763 8.228,10.329 7.889 C 10.181 7.773,9.944 7.593,9.803 7.489 C 9.483 7.254,9.325 7.059,9.276 6.840 C 9.217 6.577,9.311 6.432,9.743 6.121 C 9.943 5.978,10.202 5.766,10.318 5.651 C 10.743 5.230,11.242 5.090,11.852 5.219 M10.814 5.599 C 10.695 5.648,10.670 5.702,10.740 5.760 C 10.787 5.799,10.830 5.797,10.949 5.749 C 11.032 5.716,11.100 5.664,11.100 5.634 C 11.100 5.570,10.935 5.549,10.814 5.599 M11.725 5.596 C 11.660 5.637,11.699 5.720,11.783 5.720 C 11.815 5.720,11.874 5.741,11.915 5.766 C 12.003 5.821,12.120 5.786,12.120 5.705 C 12.120 5.674,12.063 5.628,11.994 5.604 C 11.843 5.551,11.798 5.550,11.725 5.596 M13.538 6.471 C 13.514 6.487,13.468 6.540,13.434 6.590 C 13.346 6.718,12.711 7.163,12.373 7.334 C 12.018 7.512,11.568 7.640,11.295 7.640 C 11.030 7.640,10.638 7.516,10.367 7.347 C 10.250 7.273,10.023 7.084,9.861 6.927 C 9.700 6.769,9.557 6.640,9.544 6.640 C 9.531 6.640,9.520 6.692,9.520 6.756 C 9.520 6.996,10.320 7.582,10.836 7.719 C 11.084 7.785,11.472 7.780,11.725 7.706 C 12.062 7.608,12.707 7.294,13.069 7.052 C 13.414 6.821,13.699 6.544,13.659 6.478 C 13.631 6.433,13.595 6.431,13.538 6.471 M14.321 7.610 C 14.718 8.979,15.306 10.453,16.042 11.924 C 16.564 12.966,16.858 13.767,17.056 14.684 C 17.076 14.777,17.106 14.793,17.329 14.829 C 17.623 14.877,17.614 14.885,17.699 14.512 C 17.775 14.179,17.777 13.506,17.703 13.160 C 17.535 12.373,17.132 11.599,16.575 10.991 C 16.329 10.723,16.279 10.630,16.357 10.582 C 16.410 10.549,16.899 11.105,17.188 11.527 C 17.644 12.194,17.968 12.948,18.082 13.613 C 18.123 13.851,18.117 14.677,18.073 14.936 C 18.064 14.990,18.094 15.023,18.180 15.051 C 18.413 15.129,18.931 15.454,19.161 15.668 C 19.422 15.909,19.533 16.135,19.513 16.383 C 19.502 16.517,19.485 16.542,19.399 16.552 C 19.304 16.563,19.298 16.554,19.312 16.407 C 19.343 16.084,19.095 15.795,18.520 15.486 C 17.831 15.116,17.190 15.009,16.837 15.204 C 16.643 15.311,16.499 15.527,16.458 15.772 C 16.435 15.905,16.409 15.936,16.266 15.998 C 16.175 16.037,16.013 16.162,15.907 16.276 C 15.533 16.677,15.358 17.245,15.280 18.320 C 15.219 19.151,15.175 19.441,15.034 19.955 L 14.908 20.409 14.644 20.580 C 14.041 20.969,13.324 21.259,12.660 21.382 C 12.386 21.433,12.161 21.444,11.720 21.429 C 11.002 21.405,10.663 21.322,10.056 21.022 C 9.642 20.818,9.599 20.785,9.408 20.532 C 9.297 20.382,9.141 20.177,9.062 20.075 L 8.919 19.889 9.110 19.861 C 9.848 19.752,9.876 18.979,9.171 18.139 C 8.849 17.756,8.419 17.395,7.719 16.919 C 6.852 16.330,6.511 15.920,6.339 15.260 C 6.256 14.942,6.256 14.265,6.339 13.868 C 6.480 13.190,6.851 12.312,7.364 11.440 C 7.650 10.954,7.632 10.979,7.666 11.013 C 7.681 11.027,7.529 11.368,7.329 11.770 C 6.774 12.887,6.600 13.475,6.600 14.239 C 6.600 14.764,6.794 15.402,7.055 15.740 C 7.114 15.815,7.118 15.809,7.119 15.620 C 7.122 15.349,7.222 14.661,7.317 14.265 C 7.455 13.684,7.639 13.199,8.129 12.120 C 8.706 10.849,8.978 10.189,9.198 9.521 C 9.367 9.010,9.560 8.157,9.561 7.915 C 9.561 7.841,9.574 7.759,9.591 7.734 C 9.622 7.685,9.831 7.827,10.356 8.253 C 10.721 8.549,10.945 8.648,11.303 8.671 C 11.765 8.701,12.198 8.576,12.721 8.261 C 12.885 8.162,13.146 8.033,13.300 7.974 C 13.637 7.846,13.957 7.642,14.109 7.460 C 14.170 7.386,14.224 7.324,14.228 7.323 C 14.233 7.321,14.274 7.450,14.321 7.610 M16.456 16.480 C 16.515 16.921,16.816 17.423,17.116 17.578 C 17.539 17.797,18.364 17.563,18.901 17.072 L 19.111 16.880 19.406 16.880 C 19.881 16.881,20.165 17.053,20.374 17.465 C 20.408 17.534,20.499 17.833,20.575 18.131 C 20.736 18.757,20.803 18.903,21.075 19.223 C 21.345 19.538,21.552 19.897,21.582 20.102 C 21.640 20.484,21.456 20.648,20.340 21.213 C 19.404 21.686,19.209 21.822,18.680 22.362 C 17.945 23.113,17.473 23.413,16.813 23.548 C 16.064 23.701,15.397 23.390,15.061 22.733 C 14.962 22.541,14.938 22.440,14.926 22.160 C 14.907 21.734,14.959 21.440,15.208 20.560 C 15.496 19.541,15.511 19.457,15.578 18.579 C 15.611 18.139,15.667 17.635,15.703 17.460 C 15.790 17.027,15.996 16.604,16.207 16.423 C 16.299 16.344,16.387 16.280,16.402 16.280 C 16.417 16.280,16.442 16.370,16.456 16.480 M6.103 16.452 C 6.502 16.656,6.717 16.934,7.287 17.980 C 7.923 19.149,7.953 19.195,8.527 19.920 C 9.090 20.631,9.283 20.915,9.473 21.312 C 9.604 21.587,9.620 21.652,9.616 21.920 C 9.606 22.562,9.302 22.985,8.689 23.208 C 8.503 23.276,8.369 23.292,7.980 23.291 C 7.357 23.289,6.918 23.177,6.171 22.827 C 5.394 22.463,5.193 22.412,3.984 22.279 C 2.989 22.169,2.713 22.082,2.559 21.828 C 2.442 21.638,2.452 21.213,2.582 20.801 C 2.724 20.351,2.738 20.163,2.664 19.669 C 2.491 18.503,2.609 18.270,3.568 17.885 C 4.117 17.664,4.230 17.582,4.524 17.190 C 4.862 16.739,5.110 16.485,5.300 16.394 C 5.512 16.292,5.835 16.315,6.103 16.452 " stroke="none" fill="black" fill-rule="evenodd"></path></svg>