<svg role="img" viewBox="0 0 24 24" xmlns="http://www.w3.org/2000/svg"><path d="M5.200 0.303 C 3.037 1.426,1.332 3.153,0.253 5.313 L -0.013 5.847 1.203 7.063 C 1.872 7.732,2.433 8.280,2.448 8.280 C 2.464 8.280,2.596 8.043,2.741 7.754 C 3.858 5.531,5.657 3.744,7.855 2.675 L 8.285 2.466 7.053 1.233 C 6.375 0.555,5.811 0.000,5.800 0.001 C 5.789 0.001,5.519 0.137,5.200 0.303 M11.415 1.623 C 10.531 1.730,9.595 1.961,8.765 2.278 C 8.537 2.365,8.343 2.443,8.334 2.452 C 8.326 2.461,10.370 4.517,12.878 7.020 L 17.437 11.572 16.909 11.838 C 14.757 12.920,13.042 14.619,11.948 16.755 C 11.772 17.099,11.622 17.387,11.615 17.395 C 11.609 17.403,9.556 15.374,7.054 12.885 C 4.553 10.396,2.492 8.360,2.476 8.360 C 2.432 8.360,2.138 9.139,1.980 9.675 C 1.807 10.264,1.704 10.733,1.614 11.340 C 1.516 12.005,1.515 13.539,1.613 14.240 C 2.064 17.475,3.797 20.265,6.480 22.075 C 7.028 22.444,7.169 22.527,7.750 22.817 C 8.836 23.358,9.887 23.688,11.160 23.885 C 11.996 24.015,13.519 24.015,14.360 23.886 C 16.411 23.571,18.242 22.772,19.840 21.495 C 20.279 21.144,21.147 20.275,21.494 19.840 C 23.742 17.018,24.524 13.435,23.642 9.984 C 23.436 9.177,23.219 8.591,22.838 7.814 C 22.270 6.658,21.524 5.640,20.553 4.698 C 18.774 2.972,16.532 1.910,14.059 1.621 C 13.421 1.546,12.038 1.547,11.415 1.623 M18.534 16.823 C 18.772 17.980,18.958 18.935,18.947 18.946 C 18.936 18.957,18.741 18.928,18.514 18.880 C 16.865 18.538,15.894 18.338,15.360 18.231 C 15.019 18.163,14.734 18.102,14.726 18.096 C 14.691 18.069,15.029 17.442,15.278 17.070 C 15.746 16.370,16.286 15.816,16.970 15.333 C 17.273 15.120,17.980 14.722,18.060 14.721 C 18.082 14.721,18.295 15.666,18.534 16.823 " stroke="none" fill="black" fill-rule="evenodd"></path></svg>