<svg role="img" viewBox="0 0 24 24" xmlns="http://www.w3.org/2000/svg"><path d="M10.886 0.043 C 10.702 0.061,10.543 0.084,10.532 0.095 C 10.521 0.106,10.525 0.171,10.540 0.241 C 10.566 0.357,10.578 0.366,10.694 0.345 C 10.763 0.332,10.987 0.310,11.190 0.295 L 11.560 0.269 11.560 0.134 C 11.560 0.002,11.557 0.000,11.390 0.005 C 11.297 0.008,11.070 0.025,10.886 0.043 M12.600 0.134 C 12.600 0.285,12.572 0.277,13.333 0.344 L 13.646 0.372 13.633 0.236 C 13.619 0.085,13.630 0.088,12.890 0.024 L 12.600 -0.001 12.600 0.134 M20.759 0.160 C 20.213 0.246,19.695 0.515,19.285 0.925 C 18.845 1.365,18.611 1.838,18.518 2.478 C 18.354 3.601,19.014 4.788,20.067 5.263 C 20.592 5.500,21.309 5.564,21.840 5.423 C 22.916 5.136,23.688 4.262,23.843 3.153 C 23.923 2.577,23.788 1.936,23.475 1.416 C 23.294 1.113,22.868 0.694,22.555 0.509 C 22.052 0.212,21.325 0.070,20.759 0.160 M9.100 0.343 C 8.968 0.375,8.775 0.430,8.670 0.464 C 8.494 0.522,8.482 0.534,8.506 0.633 C 8.520 0.692,8.538 0.748,8.546 0.757 C 8.554 0.766,8.772 0.720,9.030 0.654 C 9.495 0.535,9.500 0.533,9.500 0.417 C 9.500 0.274,9.436 0.262,9.100 0.343 M14.658 0.407 C 14.644 0.472,14.644 0.537,14.658 0.551 C 14.671 0.565,14.891 0.633,15.145 0.702 L 15.607 0.828 15.643 0.731 C 15.700 0.583,15.691 0.566,15.530 0.522 C 15.447 0.500,15.223 0.438,15.032 0.385 L 14.684 0.289 14.658 0.407 M7.240 0.976 C 7.034 1.062,6.599 1.273,6.565 1.304 C 6.556 1.311,6.571 1.370,6.597 1.433 L 6.645 1.549 7.102 1.345 C 7.566 1.137,7.616 1.088,7.510 0.950 C 7.464 0.890,7.442 0.892,7.240 0.976 M16.614 1.075 L 16.571 1.190 17.030 1.403 C 17.471 1.607,17.492 1.612,17.545 1.540 C 17.575 1.499,17.600 1.444,17.600 1.419 C 17.600 1.376,16.778 0.960,16.694 0.960 C 16.674 0.960,16.638 1.012,16.614 1.075 M5.170 2.126 L 4.760 2.408 4.844 2.526 L 4.928 2.643 5.074 2.532 C 5.154 2.470,5.337 2.342,5.480 2.246 C 5.623 2.150,5.746 2.066,5.753 2.059 C 5.772 2.041,5.635 1.840,5.605 1.842 C 5.591 1.843,5.396 1.971,5.170 2.126 M11.440 2.842 C 9.639 2.947,7.939 3.578,6.440 4.695 C 5.952 5.059,5.060 5.951,4.692 6.443 C 3.712 7.753,3.100 9.256,2.898 10.848 C 2.808 11.551,2.837 12.935,2.954 13.560 C 3.129 14.499,3.358 15.198,3.759 16.022 C 5.139 18.862,7.860 20.769,11.038 21.124 C 11.573 21.183,12.973 21.149,13.460 21.064 C 16.460 20.542,18.941 18.698,20.241 16.022 C 20.642 15.198,20.871 14.499,21.046 13.560 C 21.163 12.935,21.192 11.551,21.102 10.848 C 20.892 9.196,20.214 7.588,19.169 6.263 C 18.836 5.841,17.992 5.018,17.557 4.693 C 16.133 3.626,14.339 2.942,12.748 2.859 C 12.523 2.847,12.250 2.832,12.140 2.825 C 12.030 2.819,11.715 2.826,11.440 2.842 M3.566 3.454 L 3.193 3.829 3.304 3.916 L 3.416 4.004 3.777 3.642 L 4.139 3.281 4.039 3.180 L 3.938 3.080 3.566 3.454 M2.424 4.746 C 2.383 4.803,2.252 4.990,2.135 5.161 L 1.921 5.471 2.019 5.536 C 2.073 5.571,2.126 5.600,2.137 5.600 C 2.148 5.600,2.285 5.419,2.442 5.197 C 2.717 4.809,2.725 4.792,2.658 4.717 C 2.565 4.615,2.515 4.621,2.424 4.746 M16.680 5.658 C 17.191 5.846,17.573 6.114,17.876 6.496 C 18.558 7.356,18.672 8.489,18.173 9.452 C 17.946 9.891,17.441 10.381,17.000 10.591 C 16.186 10.978,15.375 10.972,14.560 10.573 C 14.123 10.359,13.634 9.862,13.406 9.400 C 12.683 7.933,13.390 6.192,14.923 5.665 C 15.342 5.522,15.327 5.524,15.880 5.536 C 16.309 5.546,16.423 5.564,16.680 5.658 M1.161 6.846 C 0.960 7.269,0.952 7.296,1.022 7.346 C 1.062 7.376,1.119 7.400,1.148 7.400 C 1.177 7.400,1.297 7.197,1.414 6.950 C 1.623 6.508,1.625 6.499,1.543 6.451 C 1.497 6.425,1.440 6.402,1.416 6.401 C 1.392 6.401,1.277 6.601,1.161 6.846 M22.570 6.609 C 22.521 6.633,22.480 6.665,22.480 6.681 C 22.480 6.697,22.545 6.852,22.624 7.025 C 22.703 7.198,22.791 7.398,22.821 7.469 C 22.872 7.591,22.881 7.595,22.999 7.554 C 23.100 7.519,23.118 7.496,23.096 7.426 C 23.047 7.269,22.709 6.560,22.684 6.563 C 22.671 6.564,22.619 6.585,22.570 6.609 M0.487 8.610 C 0.361 9.043,0.307 9.281,0.330 9.303 C 0.341 9.314,0.400 9.327,0.462 9.332 C 0.567 9.340,0.577 9.325,0.641 9.080 C 0.678 8.937,0.737 8.726,0.772 8.610 C 0.833 8.410,0.832 8.399,0.760 8.360 C 0.611 8.280,0.573 8.314,0.487 8.610 M23.350 8.528 C 23.290 8.549,23.240 8.581,23.240 8.598 C 23.240 8.640,23.473 9.526,23.488 9.541 C 23.495 9.548,23.549 9.543,23.610 9.532 C 23.687 9.517,23.720 9.486,23.720 9.429 C 23.720 9.331,23.518 8.551,23.484 8.515 C 23.471 8.501,23.411 8.507,23.350 8.528 M0.101 10.410 C 0.071 10.503,0.005 11.335,0.025 11.368 C 0.036 11.385,0.095 11.400,0.157 11.400 C 0.283 11.400,0.287 11.386,0.343 10.690 L 0.370 10.360 0.244 10.360 C 0.174 10.360,0.110 10.383,0.101 10.410 M23.766 10.553 C 23.652 10.564,23.636 10.578,23.654 10.653 C 23.665 10.701,23.688 10.934,23.703 11.172 L 23.731 11.604 23.856 11.592 L 23.980 11.580 23.967 11.180 C 23.960 10.960,23.942 10.726,23.927 10.660 C 23.903 10.552,23.886 10.541,23.766 10.553 M6.530 13.230 L 6.540 15.900 8.030 15.910 L 9.520 15.921 9.520 16.261 L 9.520 16.601 7.650 16.590 L 5.780 16.580 5.770 13.570 L 5.759 10.560 6.139 10.560 L 6.519 10.560 6.530 13.230 M17.192 12.204 C 17.582 12.288,17.885 12.504,18.053 12.818 C 18.137 12.974,18.140 13.030,18.151 14.400 C 18.158 15.362,18.176 15.849,18.207 15.909 C 18.258 16.008,18.484 16.099,18.603 16.068 C 18.673 16.049,18.680 16.070,18.680 16.301 C 18.680 16.441,18.661 16.567,18.637 16.582 C 18.614 16.596,18.488 16.618,18.358 16.630 C 17.966 16.665,17.609 16.470,17.536 16.179 C 17.513 16.085,17.511 16.085,17.306 16.248 C 16.554 16.847,15.432 16.864,14.908 16.284 C 14.688 16.040,14.628 15.871,14.624 15.480 C 14.620 15.183,14.634 15.111,14.733 14.909 C 14.957 14.454,15.316 14.282,16.340 14.137 C 16.714 14.084,17.097 14.012,17.191 13.976 C 17.419 13.891,17.494 13.745,17.472 13.433 C 17.451 13.144,17.363 13.013,17.099 12.881 C 16.933 12.798,16.844 12.783,16.541 12.782 C 15.945 12.782,15.653 12.945,15.537 13.344 L 15.474 13.560 15.132 13.560 L 14.789 13.560 14.815 13.370 C 14.911 12.660,15.333 12.268,16.113 12.163 C 16.399 12.124,16.912 12.144,17.192 12.204 M10.880 13.810 C 10.880 14.826,10.896 15.436,10.924 15.540 C 10.992 15.787,11.260 16.022,11.539 16.080 C 12.102 16.197,12.618 15.903,12.844 15.337 C 12.936 15.106,12.938 15.063,12.952 13.670 L 12.965 12.240 13.303 12.240 L 13.640 12.240 13.640 14.420 L 13.640 16.600 13.340 16.600 L 13.040 16.600 13.040 16.280 C 13.040 16.104,13.035 15.960,13.029 15.960 C 13.022 15.960,12.891 16.083,12.737 16.234 C 12.361 16.602,12.131 16.694,11.580 16.694 C 11.070 16.694,10.792 16.596,10.515 16.319 C 10.203 16.007,10.200 15.983,10.200 13.973 L 10.200 12.240 10.540 12.240 L 10.880 12.240 10.880 13.810 M0.017 12.770 C 0.031 12.952,0.054 13.186,0.067 13.292 C 0.091 13.483,0.092 13.484,0.215 13.457 C 0.284 13.443,0.343 13.428,0.346 13.425 C 0.349 13.422,0.332 13.200,0.308 12.930 L 0.264 12.440 0.127 12.440 L -0.010 12.440 0.017 12.770 M23.707 12.786 C 23.694 12.893,23.672 13.126,23.657 13.305 L 23.631 13.630 23.756 13.648 C 23.859 13.663,23.885 13.651,23.900 13.583 C 23.925 13.466,23.998 12.665,23.985 12.652 C 23.979 12.646,23.920 12.630,23.853 12.617 C 23.733 12.593,23.731 12.595,23.707 12.786 M0.390 14.473 C 0.325 14.480,0.280 14.510,0.280 14.545 C 0.280 14.621,0.347 14.903,0.447 15.252 C 0.518 15.500,0.532 15.522,0.612 15.497 C 0.661 15.483,0.715 15.457,0.734 15.439 C 0.765 15.411,0.583 14.600,0.524 14.500 C 0.511 14.478,0.450 14.466,0.390 14.473 M17.340 14.503 C 17.274 14.530,17.031 14.582,16.800 14.618 C 15.863 14.766,15.598 14.857,15.424 15.093 C 15.303 15.256,15.307 15.653,15.430 15.826 C 15.724 16.239,16.737 16.177,17.196 15.718 C 17.402 15.512,17.454 15.374,17.472 14.980 C 17.481 14.782,17.482 14.582,17.474 14.537 C 17.461 14.460,17.450 14.457,17.340 14.503 M23.424 14.686 C 23.353 14.907,23.165 15.618,23.174 15.628 C 23.181 15.634,23.240 15.650,23.306 15.663 C 23.425 15.687,23.427 15.685,23.512 15.394 C 23.630 14.988,23.693 14.720,23.675 14.702 C 23.667 14.693,23.611 14.674,23.550 14.659 C 23.474 14.640,23.435 14.648,23.424 14.686 M0.990 16.454 C 0.903 16.487,0.885 16.513,0.905 16.578 C 0.964 16.767,1.294 17.440,1.328 17.440 C 1.392 17.440,1.520 17.359,1.520 17.319 C 1.520 17.270,1.162 16.468,1.127 16.437 C 1.112 16.424,1.050 16.432,0.990 16.454 M22.635 16.947 C 22.545 17.141,22.448 17.346,22.419 17.401 C 22.371 17.495,22.375 17.507,22.486 17.571 L 22.605 17.639 22.828 17.177 C 22.951 16.919,23.034 16.700,23.015 16.681 C 22.996 16.664,22.939 16.637,22.889 16.621 C 22.806 16.596,22.783 16.625,22.635 16.947 M1.919 18.312 L 1.827 18.388 2.119 18.813 L 2.411 19.238 2.524 19.157 L 2.637 19.077 2.356 18.668 C 2.202 18.444,2.062 18.255,2.044 18.249 C 2.026 18.242,1.970 18.271,1.919 18.312 M21.712 18.570 C 21.653 18.664,21.525 18.847,21.427 18.978 L 21.249 19.215 21.341 19.288 C 21.487 19.403,21.453 19.431,21.837 18.877 L 22.075 18.534 21.961 18.467 C 21.899 18.430,21.841 18.400,21.834 18.400 C 21.826 18.400,21.772 18.477,21.712 18.570 M3.186 19.953 C 3.150 19.993,3.120 20.043,3.120 20.064 C 3.120 20.110,3.768 20.760,3.814 20.760 C 3.832 20.760,3.881 20.720,3.921 20.670 L 3.995 20.580 3.649 20.230 C 3.458 20.038,3.291 19.880,3.277 19.880 C 3.263 19.880,3.223 19.913,3.186 19.953 M20.222 20.358 C 19.870 20.712,19.866 20.718,19.939 20.798 C 19.979 20.843,20.033 20.880,20.057 20.880 C 20.082 20.880,20.254 20.727,20.440 20.540 L 20.778 20.200 20.678 20.100 L 20.578 20.000 20.222 20.358 M4.707 21.352 C 4.670 21.393,4.641 21.443,4.641 21.463 C 4.643 21.502,4.645 21.505,5.148 21.855 L 5.476 22.084 5.542 21.956 C 5.599 21.846,5.600 21.823,5.551 21.796 C 5.519 21.778,5.351 21.661,5.178 21.537 C 4.791 21.260,4.791 21.260,4.707 21.352 M18.660 21.645 C 18.440 21.799,18.255 21.938,18.249 21.956 C 18.242 21.974,18.271 22.030,18.312 22.081 L 18.388 22.173 18.812 21.882 L 19.236 21.591 19.150 21.475 C 19.103 21.412,19.064 21.361,19.062 21.363 C 19.061 21.365,18.880 21.492,18.660 21.645 M6.447 22.461 C 6.421 22.517,6.400 22.578,6.400 22.596 C 6.400 22.613,6.601 22.723,6.846 22.839 C 7.269 23.040,7.296 23.048,7.346 22.978 C 7.408 22.894,7.418 22.760,7.363 22.760 C 7.334 22.760,6.646 22.443,6.517 22.371 C 6.504 22.364,6.473 22.404,6.447 22.461 M17.040 22.584 C 16.919 22.641,16.726 22.730,16.611 22.781 C 16.404 22.874,16.403 22.876,16.446 22.999 C 16.481 23.100,16.504 23.118,16.574 23.096 C 16.664 23.069,17.404 22.729,17.429 22.704 C 17.456 22.677,17.346 22.480,17.304 22.480 C 17.280 22.481,17.161 22.527,17.040 22.584 M8.339 23.283 C 8.325 23.350,8.320 23.413,8.328 23.422 C 8.364 23.457,9.280 23.693,9.301 23.672 C 9.313 23.660,9.327 23.601,9.332 23.542 C 9.340 23.437,9.325 23.430,8.880 23.299 C 8.627 23.225,8.408 23.163,8.393 23.162 C 8.378 23.161,8.354 23.215,8.339 23.283 M15.020 23.327 C 14.866 23.370,14.672 23.423,14.590 23.444 C 14.452 23.480,14.442 23.493,14.465 23.592 C 14.480 23.651,14.498 23.707,14.505 23.716 C 14.524 23.738,14.907 23.655,15.246 23.556 C 15.506 23.481,15.512 23.476,15.484 23.369 C 15.447 23.232,15.378 23.226,15.020 23.327 M10.352 23.755 C 10.336 23.867,10.346 23.881,10.457 23.901 C 10.672 23.939,11.339 23.992,11.370 23.973 C 11.387 23.963,11.400 23.905,11.400 23.843 C 11.400 23.717,11.385 23.713,10.695 23.657 L 10.370 23.631 10.352 23.755 M12.860 23.696 L 12.420 23.740 12.433 23.860 C 12.440 23.926,12.452 23.986,12.460 23.993 C 12.474 24.008,13.449 23.926,13.463 23.909 C 13.467 23.904,13.462 23.841,13.451 23.770 C 13.437 23.681,13.410 23.642,13.365 23.646 C 13.329 23.649,13.102 23.671,12.860 23.696 " stroke="none" fill="black" fill-rule="evenodd"></path></svg>