<svg role="img" viewBox="0 0 24 24" xmlns="http://www.w3.org/2000/svg"><path d="M17.440 3.859 C 16.410 4.030,15.724 4.367,15.014 5.051 C 14.283 5.756,13.766 6.660,13.557 7.600 C 13.486 7.921,13.482 8.174,13.481 12.174 L 13.480 16.408 13.770 16.379 C 13.930 16.364,14.188 16.318,14.344 16.279 C 15.753 15.920,16.842 14.637,16.947 13.210 L 16.972 12.880 17.706 12.880 L 18.440 12.880 18.440 11.120 L 18.440 9.360 17.696 9.360 L 16.951 9.360 16.968 8.770 C 16.987 8.093,17.058 7.858,17.313 7.634 C 17.911 7.109,18.822 7.275,19.192 7.975 L 19.300 8.180 19.324 10.300 C 19.349 12.555,19.352 12.588,19.565 13.239 C 19.686 13.609,20.009 14.226,20.249 14.547 C 20.998 15.546,22.151 16.201,23.439 16.358 C 23.625 16.381,23.828 16.400,23.889 16.400 L 24.000 16.400 24.000 14.645 L 24.000 12.890 23.832 12.863 C 23.432 12.799,23.108 12.553,22.936 12.184 C 22.854 12.009,22.841 11.918,22.840 11.550 L 22.840 11.120 23.420 11.120 L 24.000 11.120 24.000 9.360 L 24.000 7.600 23.379 7.600 C 22.916 7.600,22.754 7.587,22.743 7.550 C 22.734 7.522,22.680 7.338,22.621 7.140 C 22.136 5.501,20.780 4.262,19.074 3.898 C 18.656 3.809,17.856 3.790,17.440 3.859 M0.000 8.650 C 0.000 13.542,0.004 13.639,0.202 14.240 C 0.373 14.760,0.591 15.114,0.978 15.502 C 1.389 15.912,1.764 16.134,2.302 16.285 C 2.713 16.401,3.368 16.408,3.780 16.301 C 4.065 16.228,4.480 16.062,4.480 16.022 C 4.480 16.010,4.389 15.888,4.277 15.750 C 4.028 15.442,3.749 14.886,3.630 14.460 L 3.541 14.140 3.520 9.120 L 3.500 4.100 1.750 4.090 L -0.000 4.079 0.000 8.650 M4.400 10.710 C 4.401 13.686,4.404 13.834,4.481 14.155 C 4.825 15.592,6.264 16.577,7.700 16.360 C 8.124 16.296,8.570 16.129,8.917 15.905 C 9.245 15.692,9.267 15.718,9.086 16.100 C 8.773 16.758,7.966 17.122,6.941 17.068 C 6.436 17.041,5.994 16.935,5.571 16.740 L 5.279 16.605 5.290 18.170 L 5.300 19.736 5.700 19.865 C 7.236 20.358,8.792 20.294,10.105 19.682 C 11.066 19.233,11.858 18.395,12.236 17.424 C 12.591 16.513,12.605 16.271,12.591 11.500 L 12.580 7.620 10.831 7.610 L 9.082 7.599 9.071 10.083 L 9.060 12.566 8.913 12.701 C 8.656 12.936,8.297 12.927,8.058 12.678 L 7.940 12.555 7.920 10.087 L 7.900 7.620 6.150 7.610 L 4.400 7.599 4.400 10.710 " stroke="none" fill="black" fill-rule="evenodd"></path></svg>