<svg role="img" xmlns="http://www.w3.org/2000/svg" viewBox="0 0 24 24"><path d="M23.561 4.272 C 23.507 4.281,23.288 4.358,23.076 4.443 C 22.531 4.663,22.312 4.711,21.529 4.779 C 20.614 4.860,20.349 4.924,19.800 5.199 C 18.909 5.646,18.183 6.511,17.051 8.477 C 16.441 9.535,15.639 10.479,14.980 10.914 C 14.610 11.157,13.711 11.605,13.160 11.820 C 12.951 11.901,11.979 12.238,11.000 12.568 C 7.803 13.645,7.499 13.764,6.905 14.173 C 6.296 14.591,5.767 15.124,5.085 16.005 C 4.323 16.987,4.160 17.039,2.640 16.776 C 2.162 16.693,1.878 16.667,1.400 16.664 C 0.804 16.660,0.772 16.664,0.560 16.768 C 0.439 16.827,0.261 16.947,0.164 17.034 L -0.011 17.192 0.124 17.261 C 0.199 17.299,0.466 17.482,0.718 17.668 C 0.969 17.854,1.244 18.041,1.329 18.085 C 1.426 18.134,1.473 18.181,1.455 18.212 C 1.440 18.238,1.306 18.431,1.158 18.640 C 1.009 18.849,0.841 19.108,0.784 19.216 C 0.673 19.425,0.648 19.655,0.730 19.706 C 0.815 19.759,1.623 19.725,1.929 19.656 C 2.629 19.498,4.077 18.795,5.453 17.946 C 6.316 17.413,6.909 17.131,7.380 17.029 C 8.128 16.867,10.121 16.932,11.340 17.159 C 11.626 17.212,12.867 17.254,13.156 17.220 C 13.300 17.204,13.453 17.157,13.530 17.105 C 13.701 16.991,13.958 16.534,14.141 16.019 C 14.303 15.565,14.421 15.343,14.481 15.380 C 14.552 15.424,14.372 16.435,14.193 16.998 C 13.968 17.708,13.418 18.681,12.876 19.328 C 12.746 19.483,12.640 19.626,12.640 19.645 C 12.640 19.711,13.029 19.680,13.405 19.584 C 14.179 19.387,14.956 18.977,15.486 18.485 C 16.078 17.935,16.536 17.272,17.029 16.249 C 17.191 15.913,17.341 15.648,17.362 15.661 C 17.412 15.692,17.410 15.941,17.358 16.356 C 17.335 16.539,17.324 16.698,17.334 16.708 C 17.359 16.733,17.855 16.428,18.115 16.228 C 18.378 16.025,18.706 15.644,18.982 15.220 C 19.197 14.891,19.660 13.995,19.806 13.627 C 20.037 13.044,20.501 11.356,20.801 10.000 C 21.026 8.987,21.203 8.376,21.339 8.140 C 21.498 7.865,21.955 7.447,22.686 6.908 C 23.269 6.478,23.554 6.188,23.739 5.836 C 23.978 5.381,24.070 4.740,23.937 4.459 C 23.869 4.317,23.728 4.246,23.561 4.272 " stroke="none" fill="black" fill-rule="evenodd"></path></svg>