<svg role="img" viewBox="0 0 24 24" xmlns="http://www.w3.org/2000/svg"><path d="M10.306 2.444 C 6.656 2.643,4.025 3.598,2.387 5.319 C 0.869 6.915,0.102 8.904,0.013 11.480 C -0.082 14.227,0.793 16.878,2.330 18.502 C 2.998 19.208,3.619 19.646,4.740 20.201 C 6.196 20.923,7.823 21.336,9.960 21.527 C 10.717 21.595,13.359 21.595,14.060 21.527 C 16.546 21.286,18.191 20.829,19.793 19.932 C 21.290 19.094,22.227 18.105,22.959 16.593 C 23.918 14.608,24.229 12.168,23.821 9.820 C 23.509 8.030,22.775 6.537,21.600 5.305 C 19.710 3.322,16.556 2.382,11.880 2.407 C 11.341 2.410,10.633 2.426,10.306 2.444 M12.854 3.840 C 16.284 4.007,18.395 4.963,19.739 6.959 C 19.879 7.167,19.986 7.351,19.976 7.367 C 19.937 7.430,19.114 7.869,18.520 8.143 C 18.179 8.301,17.459 8.605,16.920 8.820 C 16.381 9.035,15.779 9.291,15.582 9.390 C 14.227 10.067,13.140 11.077,12.364 12.379 C 12.081 12.854,12.028 12.913,11.941 12.840 C 11.908 12.813,11.771 12.606,11.636 12.379 C 10.856 11.071,9.782 10.073,8.410 9.385 C 8.217 9.289,7.556 9.007,6.940 8.759 C 5.812 8.306,4.655 7.768,4.231 7.500 L 4.001 7.354 4.145 7.127 C 5.448 5.064,7.665 4.005,11.020 3.843 C 11.954 3.798,11.987 3.798,12.854 3.840 M3.502 10.404 C 4.129 10.701,4.729 10.924,5.522 11.159 C 7.249 11.668,7.880 11.908,8.651 12.344 C 10.015 13.117,11.040 14.318,11.542 15.734 C 11.734 16.275,11.917 16.450,12.138 16.305 C 12.255 16.228,12.325 16.091,12.559 15.478 C 13.111 14.032,14.316 12.800,15.908 12.054 C 16.474 11.789,16.926 11.628,18.092 11.279 C 19.250 10.931,19.821 10.724,20.499 10.404 C 20.738 10.292,20.937 10.204,20.942 10.210 C 20.989 10.260,21.057 11.308,21.057 12.000 C 21.059 13.192,20.918 14.118,20.578 15.153 C 19.690 17.855,17.800 19.341,14.700 19.776 C 13.202 19.986,11.160 20.004,9.637 19.819 C 7.064 19.508,5.377 18.602,4.274 16.940 C 3.298 15.467,2.792 13.265,2.956 11.200 C 3.004 10.593,3.045 10.200,3.060 10.200 C 3.064 10.200,3.263 10.292,3.502 10.404 " stroke="none" fill="black" fill-rule="evenodd"></path></svg>