<svg role="img" viewBox="0 0 24 24" xmlns="http://www.w3.org/2000/svg"><path d="M6.164 1.602 C 4.961 1.917,3.737 3.338,2.787 5.520 C 1.124 9.344,0.156 14.834,0.014 21.250 L -0.013 22.480 1.494 22.480 L 3.000 22.480 3.001 22.250 C 3.003 21.589,3.084 18.586,3.120 17.840 C 3.477 10.447,4.594 4.847,6.000 3.399 C 6.291 3.099,6.440 3.023,6.740 3.023 C 7.029 3.023,7.172 3.092,7.474 3.375 C 8.657 4.486,9.661 8.352,10.158 13.720 C 10.327 15.539,10.424 17.399,10.466 19.593 L 10.493 21.000 11.980 21.000 L 13.467 21.000 13.493 19.510 C 13.598 13.495,14.308 8.217,15.407 5.280 C 15.740 4.391,16.041 3.843,16.413 3.450 C 16.714 3.131,16.924 3.020,17.220 3.022 C 17.536 3.024,17.725 3.126,18.027 3.455 C 19.218 4.756,20.222 9.101,20.698 15.020 C 20.841 16.798,20.911 18.368,20.985 21.490 L 21.009 22.480 22.511 22.480 L 24.013 22.480 23.985 21.270 C 23.831 14.387,22.718 8.511,20.876 4.843 C 19.346 1.798,17.535 0.811,15.699 2.021 C 15.353 2.250,14.756 2.840,14.416 3.291 C 13.535 4.459,12.659 6.392,12.055 8.500 L 11.986 8.740 11.947 8.600 C 11.925 8.523,11.801 8.127,11.670 7.720 C 10.675 4.623,9.357 2.545,7.927 1.818 C 7.359 1.530,6.733 1.453,6.164 1.602 " stroke="none" fill="black" fill-rule="evenodd"></path></svg>