<svg role="img" viewBox="0 0 24 24" xmlns="http://www.w3.org/2000/svg"><path d="M10.900 0.046 C 5.642 0.500,1.269 4.403,0.240 9.558 C 0.056 10.480,0.020 10.890,0.023 11.980 C 0.027 13.056,0.093 13.662,0.303 14.560 C 1.290 18.769,4.427 22.151,8.571 23.474 C 11.499 24.409,14.887 24.068,17.654 22.560 C 19.855 21.360,21.593 19.561,22.715 17.320 C 23.128 16.495,23.384 15.819,23.600 14.986 C 24.478 11.607,23.869 8.060,21.929 5.240 C 21.101 4.037,19.995 2.931,18.800 2.110 C 16.520 0.544,13.691 -0.196,10.900 0.046 M13.622 1.874 C 14.713 2.062,15.566 2.339,16.540 2.820 C 17.664 3.375,18.527 4.003,19.385 4.891 C 20.469 6.012,21.247 7.285,21.718 8.706 C 22.088 9.824,22.240 10.758,22.240 11.919 C 22.240 14.453,21.420 16.672,19.749 18.664 C 18.156 20.563,15.681 21.887,13.178 22.180 C 12.512 22.257,11.434 22.257,10.799 22.178 C 7.721 21.797,4.894 19.927,3.223 17.166 C 2.468 15.917,1.996 14.547,1.817 13.080 C 1.727 12.347,1.756 10.990,1.876 10.300 C 2.247 8.158,3.123 6.408,4.587 4.880 C 6.169 3.229,8.379 2.109,10.580 1.843 C 10.778 1.819,10.985 1.792,11.040 1.783 C 11.095 1.774,11.590 1.772,12.140 1.779 C 12.928 1.788,13.242 1.809,13.622 1.874 M6.813 5.778 C 6.551 5.860,6.377 5.986,6.245 6.192 C 5.987 6.594,5.998 6.312,6.009 12.283 L 6.020 17.700 6.107 17.863 C 6.302 18.226,6.847 18.412,7.327 18.279 C 7.541 18.219,7.844 18.002,7.938 17.840 C 8.019 17.702,8.020 17.635,8.040 13.662 L 8.060 9.625 9.576 12.702 C 10.410 14.395,11.143 15.852,11.207 15.939 C 11.452 16.278,11.817 16.415,12.240 16.326 C 12.502 16.272,12.613 16.196,12.800 15.946 C 12.877 15.843,13.615 14.387,14.440 12.709 L 15.940 9.660 15.960 13.660 L 15.980 17.660 16.072 17.832 C 16.171 18.017,16.436 18.213,16.679 18.280 C 17.175 18.418,17.755 18.203,17.925 17.817 C 17.999 17.651,18.001 17.469,17.991 12.113 L 17.980 6.580 17.868 6.351 C 17.650 5.908,17.301 5.720,16.697 5.720 C 16.107 5.720,15.792 5.889,15.490 6.370 C 15.404 6.508,14.589 8.165,13.679 10.054 L 12.025 13.488 11.897 13.234 C 11.827 13.094,11.080 11.558,10.238 9.820 C 9.395 8.082,8.647 6.560,8.576 6.438 C 8.389 6.120,8.097 5.860,7.838 5.783 C 7.582 5.707,7.047 5.704,6.813 5.778 " stroke="none" fill="black" fill-rule="evenodd"></path></svg>