<svg role="img" xmlns="http://www.w3.org/2000/svg" viewBox="0 0 24 24"><path d="M13.240 0.800 C 10.580 0.981,8.169 1.510,6.995 2.171 C 6.625 2.379,6.280 2.673,6.141 2.898 L 6.020 3.094 6.008 4.546 L 5.996 5.998 3.348 6.009 L 0.700 6.020 0.511 6.131 C 0.298 6.256,0.136 6.449,0.057 6.670 C -0.022 6.892,-0.022 17.108,0.057 17.330 C 0.136 17.551,0.298 17.744,0.511 17.869 L 0.700 17.980 3.348 17.991 L 5.996 18.002 6.008 19.454 L 6.020 20.906 6.141 21.102 C 6.600 21.844,8.087 22.447,10.567 22.898 C 12.978 23.337,16.648 23.353,19.200 22.936 C 21.736 22.522,23.418 21.857,23.868 21.090 L 23.980 20.900 23.980 11.997 L 23.980 3.094 23.859 2.898 C 23.278 1.957,20.860 1.178,17.540 0.859 C 16.753 0.783,14.036 0.746,13.240 0.800 M16.966 2.321 C 19.012 2.471,20.903 2.841,21.909 3.288 L 22.100 3.373 21.880 3.471 C 20.818 3.943,18.945 4.301,16.821 4.439 C 16.002 4.492,14.006 4.492,13.179 4.439 C 11.167 4.311,9.517 4.009,8.323 3.549 L 7.907 3.389 8.043 3.316 C 8.301 3.178,9.260 2.886,9.920 2.745 C 11.028 2.508,12.284 2.352,13.660 2.281 C 14.431 2.241,16.169 2.262,16.966 2.321 M8.020 5.030 C 9.029 5.419,10.860 5.756,12.900 5.927 C 13.682 5.992,16.316 5.992,17.100 5.927 C 19.181 5.753,20.925 5.430,22.041 5.011 L 22.460 4.854 22.471 6.997 L 22.482 9.140 22.391 9.216 C 22.232 9.349,21.677 9.589,21.180 9.739 C 20.268 10.015,18.854 10.254,17.220 10.407 C 16.444 10.480,13.380 10.479,12.592 10.405 L 12.003 10.350 11.992 8.525 L 11.980 6.700 11.869 6.511 C 11.808 6.408,11.696 6.275,11.619 6.217 C 11.343 6.006,11.319 6.004,9.350 6.002 L 7.520 6.000 7.520 5.416 C 7.520 4.875,7.525 4.834,7.590 4.861 C 7.629 4.877,7.822 4.953,8.020 5.030 M8.425 11.980 C 9.203 14.114,9.839 15.873,9.840 15.890 C 9.840 15.907,9.394 15.920,8.849 15.920 L 7.859 15.920 7.566 15.039 L 7.274 14.159 5.990 14.169 L 4.707 14.180 4.420 15.040 L 4.133 15.900 3.142 15.911 C 2.210 15.921,2.151 15.917,2.170 15.851 C 2.196 15.755,5.003 8.148,5.027 8.109 C 5.037 8.092,5.488 8.083,6.028 8.089 L 7.010 8.100 8.425 11.980 M5.589 11.375 C 5.375 12.021,5.200 12.570,5.200 12.595 C 5.200 12.627,5.424 12.640,5.980 12.640 C 6.409 12.640,6.760 12.627,6.760 12.611 C 6.760 12.570,6.036 10.310,6.004 10.251 C 5.989 10.223,5.802 10.729,5.589 11.375 M22.391 15.216 C 22.232 15.349,21.677 15.589,21.180 15.739 C 20.268 16.015,18.854 16.254,17.220 16.407 C 16.443 16.480,13.380 16.479,12.590 16.405 L 12.000 16.350 12.000 14.091 L 12.000 11.833 12.150 11.856 C 12.976 11.980,15.941 12.023,17.100 11.927 C 19.173 11.755,20.925 11.430,22.041 11.011 L 22.460 10.854 22.471 12.997 L 22.482 15.140 22.391 15.216 M22.391 20.456 C 22.097 20.702,21.106 21.054,20.140 21.255 C 18.598 21.577,16.003 21.796,14.400 21.741 C 11.284 21.634,8.542 21.122,7.639 20.480 L 7.520 20.395 7.520 19.199 L 7.520 18.003 9.410 17.991 C 11.291 17.980,11.301 17.980,11.453 17.890 L 11.606 17.799 12.193 17.857 C 15.167 18.153,18.493 17.957,20.924 17.344 C 21.307 17.247,21.809 17.097,22.040 17.010 L 22.460 16.852 22.471 18.616 L 22.482 20.380 22.391 20.456 " stroke="none" fill="black" fill-rule="evenodd"></path></svg>