<svg role="img" viewBox="0 0 24 24" xmlns="http://www.w3.org/2000/svg"><path d="M11.120 0.024 C 9.313 0.184,7.797 0.599,6.323 1.337 C 5.018 1.991,4.050 2.703,3.018 3.767 C 1.383 5.453,0.394 7.467,0.074 9.760 C -0.006 10.329,0.005 11.788,0.093 12.360 C 0.439 14.616,1.420 16.543,3.058 18.183 C 3.738 18.863,4.119 19.179,4.840 19.660 C 5.790 20.293,6.658 20.723,7.717 21.084 C 9.227 21.599,10.538 21.800,12.397 21.800 C 13.679 21.800,14.476 21.689,15.873 21.315 C 16.481 21.152,16.487 21.151,16.639 21.220 C 16.748 21.269,16.846 21.369,16.985 21.574 C 17.268 21.992,18.027 22.735,18.478 23.035 C 18.970 23.363,19.470 23.612,19.975 23.781 C 20.723 24.031,21.162 24.056,21.192 23.850 C 21.199 23.802,21.112 23.611,20.987 23.405 C 20.724 22.968,20.510 22.470,20.367 21.960 C 20.269 21.611,20.261 21.520,20.261 20.840 C 20.261 20.154,20.269 20.071,20.372 19.700 C 20.579 18.956,20.958 18.268,21.640 17.400 C 22.903 15.792,23.656 14.074,23.927 12.180 C 24.006 11.631,23.993 10.169,23.904 9.580 C 23.814 8.979,23.572 8.018,23.381 7.497 C 23.010 6.489,22.343 5.325,21.629 4.440 C 21.214 3.926,20.313 3.040,19.800 2.642 C 18.001 1.247,15.932 0.398,13.600 0.099 C 13.126 0.038,11.516 -0.011,11.120 0.024 M12.221 5.136 C 12.272 5.173,12.508 5.808,12.944 7.086 L 13.592 8.980 15.573 8.990 L 17.554 9.001 17.657 9.123 C 17.779 9.268,17.793 9.473,17.690 9.591 C 17.652 9.635,16.972 10.170,16.180 10.780 C 15.388 11.390,14.709 11.918,14.672 11.954 C 14.608 12.016,14.641 12.136,15.201 13.900 C 15.529 14.934,15.798 15.831,15.799 15.893 C 15.801 16.065,15.606 16.240,15.412 16.240 C 15.276 16.240,15.070 16.110,13.630 15.119 L 12.002 13.997 10.402 15.099 C 9.196 15.929,8.773 16.200,8.684 16.200 C 8.506 16.200,8.320 16.025,8.320 15.858 C 8.320 15.783,8.536 14.924,8.800 13.948 C 9.064 12.972,9.280 12.153,9.280 12.127 C 9.280 12.102,8.591 11.530,7.750 10.858 C 6.688 10.008,6.204 9.597,6.168 9.513 C 6.109 9.375,6.157 9.166,6.268 9.073 C 6.319 9.031,6.756 9.016,8.370 9.000 L 10.408 8.980 11.056 7.086 C 11.492 5.808,11.728 5.173,11.779 5.136 C 11.821 5.105,11.920 5.080,12.000 5.080 C 12.080 5.080,12.179 5.105,12.221 5.136 " stroke="none" fill="black" fill-rule="evenodd"></path></svg>