<svg role="img" viewBox="0 0 24 24" xmlns="http://www.w3.org/2000/svg"><path d="M12.868 0.537 C 12.121 1.433,11.905 1.850,11.819 2.563 C 11.746 3.173,12.077 4.152,12.593 4.853 C 12.969 5.365,13.266 6.175,13.308 6.810 C 13.321 7.003,13.340 7.160,13.351 7.160 C 13.404 7.160,13.768 6.858,13.963 6.654 C 14.795 5.776,15.002 4.776,14.582 3.660 C 14.524 3.506,14.311 3.101,14.109 2.760 C 13.402 1.564,13.101 0.685,13.237 0.210 C 13.258 0.138,13.269 0.080,13.262 0.080 C 13.255 0.080,13.078 0.286,12.868 0.537 M10.146 3.041 C 9.826 3.437,9.614 3.848,9.560 4.181 C 9.485 4.640,9.662 5.262,10.021 5.802 C 10.127 5.961,10.256 6.195,10.307 6.321 C 10.407 6.570,10.520 7.057,10.520 7.243 C 10.520 7.307,10.535 7.360,10.553 7.360 C 10.624 7.360,10.946 7.076,11.089 6.889 C 11.617 6.197,11.633 5.392,11.134 4.578 C 10.632 3.756,10.486 3.419,10.446 2.981 L 10.420 2.702 10.146 3.041 M5.077 8.691 C 5.003 8.741,4.901 8.843,4.851 8.917 C 4.765 9.045,4.760 9.089,4.760 9.776 C 4.761 11.382,4.970 13.688,5.280 15.500 C 5.846 18.809,6.846 21.516,8.134 23.224 C 8.527 23.744,8.594 23.819,8.760 23.917 C 8.898 23.999,8.939 24.000,11.992 24.000 C 14.946 24.000,15.090 23.997,15.232 23.924 C 15.399 23.839,15.821 23.336,16.194 22.777 C 17.485 20.842,18.450 17.819,18.918 14.240 C 19.120 12.704,19.258 10.672,19.234 9.613 C 19.219 8.941,19.197 8.878,18.920 8.690 L 18.788 8.600 12.000 8.600 L 5.212 8.600 5.077 8.691 M16.986 10.826 C 17.062 10.862,17.173 10.955,17.232 11.033 L 17.340 11.174 17.337 12.017 C 17.330 14.322,16.854 17.111,16.135 19.064 C 15.776 20.037,15.060 21.337,14.665 21.732 C 14.586 21.812,14.453 21.896,14.370 21.920 C 14.267 21.951,13.512 21.960,11.953 21.952 L 9.685 21.940 9.557 21.820 C 9.487 21.754,9.336 21.574,9.221 21.420 C 8.016 19.799,7.216 17.103,6.902 13.600 C 6.799 12.455,6.753 11.415,6.798 11.248 C 6.837 11.103,7.014 10.898,7.180 10.806 C 7.237 10.775,8.641 10.762,12.054 10.761 C 16.417 10.760,16.860 10.766,16.986 10.826 M16.110 15.760 C 15.947 15.987,15.557 16.262,15.060 16.501 C 14.545 16.749,14.133 16.884,13.556 16.994 C 12.735 17.152,12.341 17.180,10.980 17.179 C 9.811 17.178,9.372 17.157,8.411 17.055 L 8.163 17.029 8.262 17.404 C 8.603 18.690,9.130 19.876,9.708 20.659 C 10.096 21.185,9.881 21.140,12.018 21.140 C 13.031 21.140,13.906 21.127,13.962 21.111 C 14.113 21.069,14.336 20.828,14.623 20.398 C 15.136 19.628,15.624 18.436,15.915 17.240 C 16.036 16.744,16.251 15.638,16.231 15.617 C 16.225 15.611,16.170 15.676,16.110 15.760 " stroke="none" fill="black" fill-rule="evenodd"></path></svg>