<svg role="img" viewBox="0 0 24 24" xmlns="http://www.w3.org/2000/svg"><path d="M3.310 0.063 C 2.478 0.214,1.777 0.581,1.179 1.179 C 0.567 1.790,0.209 2.485,0.060 3.349 C 0.006 3.660,0.000 4.723,0.010 12.161 L 0.021 20.620 0.108 20.940 C 0.519 22.447,1.553 23.481,3.060 23.892 L 3.380 23.979 11.839 23.990 C 20.974 24.002,20.610 24.010,21.253 23.797 C 21.849 23.600,22.515 23.174,22.924 22.728 C 23.388 22.223,23.748 21.537,23.906 20.860 C 23.977 20.553,23.980 20.185,23.980 12.000 C 23.980 3.815,23.977 3.447,23.906 3.140 C 23.583 1.754,22.582 0.645,21.254 0.204 C 20.618 -0.008,20.967 -0.000,11.965 0.004 C 4.989 0.007,3.569 0.016,3.310 0.063 M7.643 8.479 C 8.312 9.732,8.871 10.758,8.885 10.759 C 8.899 10.760,9.457 9.734,10.125 8.480 L 11.340 6.201 12.099 6.210 L 12.858 6.220 13.547 11.180 C 13.926 13.908,14.237 16.172,14.238 16.210 C 14.240 16.275,14.168 16.280,13.280 16.280 C 12.563 16.280,12.320 16.268,12.320 16.232 C 12.320 16.155,11.477 9.583,11.465 9.572 C 11.460 9.566,10.880 10.596,10.177 11.861 C 9.224 13.577,8.890 14.146,8.860 14.105 C 8.838 14.075,8.262 13.050,7.580 11.826 C 6.898 10.603,6.331 9.601,6.320 9.601 C 6.309 9.600,6.114 11.072,5.887 12.870 C 5.660 14.669,5.465 16.171,5.454 16.210 C 5.436 16.274,5.355 16.280,4.475 16.280 L 3.516 16.280 3.539 16.150 C 3.551 16.078,3.858 13.869,4.222 11.240 C 4.585 8.611,4.893 6.401,4.906 6.330 L 4.929 6.200 5.677 6.200 L 6.426 6.200 7.643 8.479 M17.240 8.200 L 17.240 9.080 18.040 9.080 L 18.840 9.080 18.840 9.820 L 18.840 10.560 18.058 10.560 L 17.277 10.560 17.288 12.550 C 17.301 14.719,17.297 14.682,17.533 14.856 C 17.633 14.931,17.712 14.942,18.243 14.954 L 18.840 14.967 18.837 15.114 C 18.836 15.194,18.804 15.521,18.767 15.840 L 18.698 16.420 17.921 16.431 C 17.066 16.443,16.683 16.383,16.344 16.185 C 16.107 16.045,15.812 15.732,15.696 15.495 C 15.484 15.063,15.481 15.025,15.480 12.710 L 15.480 10.560 14.958 10.560 L 14.435 10.560 14.458 10.390 C 14.479 10.236,14.600 9.135,14.600 9.096 C 14.600 9.087,14.789 9.080,15.019 9.080 L 15.438 9.080 15.449 8.290 L 15.460 7.500 16.260 7.415 C 16.700 7.369,17.101 7.328,17.150 7.325 L 17.240 7.320 17.240 8.200 M20.678 15.090 C 20.676 15.286,20.538 16.395,20.513 16.420 C 20.501 16.432,20.169 16.437,19.776 16.431 L 19.060 16.420 19.136 15.690 L 19.212 14.960 19.946 14.960 L 20.680 14.960 20.678 15.090 " stroke="none" fill="black" fill-rule="evenodd"></path></svg>