<svg role="img" viewBox="0 0 24 24" xmlns="http://www.w3.org/2000/svg"><path d="M7.480 5.080 L 7.480 9.640 6.440 9.640 L 5.401 9.640 5.390 12.620 L 5.380 15.600 3.765 12.620 L 2.150 9.640 1.075 9.640 L 0.000 9.640 0.000 14.480 L 0.000 19.320 1.020 19.320 L 2.039 19.320 2.050 16.511 L 2.060 13.703 3.620 16.511 L 5.180 19.320 6.330 19.320 L 7.480 19.320 7.480 21.400 L 7.480 23.480 8.040 23.480 L 8.600 23.480 8.600 21.403 L 8.600 19.325 10.730 19.310 C 12.583 19.298,12.904 19.287,13.200 19.225 C 14.428 18.967,15.182 18.312,15.495 17.232 C 15.657 16.673,15.690 16.091,15.669 14.140 C 15.652 12.549,15.643 12.344,15.568 12.007 C 15.267 10.653,14.324 9.871,12.761 9.681 C 12.572 9.658,11.578 9.640,10.511 9.640 L 8.600 9.640 8.600 5.080 L 8.600 0.520 8.040 0.520 L 7.480 0.520 7.480 5.080 M8.600 14.480 L 8.600 19.320 8.040 19.320 L 7.480 19.320 7.480 14.480 L 7.480 9.640 8.040 9.640 L 8.600 9.640 8.600 14.480 M16.640 14.477 L 16.640 19.320 17.720 19.320 L 18.800 19.320 18.800 17.459 L 18.800 15.598 19.385 15.609 L 19.971 15.620 20.830 17.470 L 21.690 19.320 22.845 19.320 L 24.000 19.320 22.978 17.276 C 22.416 16.151,21.961 15.227,21.968 15.222 C 21.974 15.218,22.106 15.144,22.260 15.060 C 22.854 14.734,23.267 14.201,23.445 13.532 C 23.560 13.102,23.570 12.199,23.466 11.740 C 23.376 11.345,23.137 10.841,22.921 10.592 C 22.586 10.207,22.023 9.914,21.300 9.749 C 20.967 9.674,20.778 9.666,18.790 9.651 L 16.640 9.634 16.640 14.477 M20.890 11.456 C 21.152 11.554,21.381 11.821,21.443 12.099 C 21.511 12.402,21.473 12.894,21.362 13.150 C 21.257 13.390,21.032 13.611,20.765 13.735 C 20.596 13.812,20.500 13.821,19.670 13.833 L 18.760 13.845 18.760 12.600 L 18.760 11.354 19.730 11.369 C 20.535 11.382,20.732 11.397,20.890 11.456 M12.660 11.599 C 12.983 11.726,13.312 12.054,13.443 12.380 C 13.540 12.619,13.540 12.627,13.552 14.371 C 13.562 15.867,13.555 16.159,13.500 16.370 C 13.352 16.949,12.977 17.314,12.408 17.435 C 12.291 17.460,11.882 17.480,11.498 17.480 L 10.800 17.480 10.800 14.476 L 10.800 11.473 11.610 11.488 C 12.346 11.503,12.442 11.513,12.660 11.599 " stroke="none" fill="black" fill-rule="evenodd"></path></svg>