<svg role="img" viewBox="0 0 24 24" xmlns="http://www.w3.org/2000/svg"><path d="M5.540 0.059 C 4.440 0.302,3.592 1.134,3.315 2.240 C 3.284 2.367,3.262 2.646,3.265 2.900 C 3.272 3.663,3.526 4.246,4.101 4.820 C 4.472 5.190,4.740 5.360,5.230 5.534 C 5.555 5.649,5.618 5.658,6.100 5.657 C 6.560 5.655,6.657 5.642,6.940 5.545 C 8.089 5.151,8.852 4.157,8.909 2.980 C 8.934 2.459,8.856 2.089,8.623 1.620 C 8.312 0.995,7.925 0.608,7.300 0.297 C 6.740 0.019,6.109 -0.066,5.540 0.059 M11.020 0.503 C 10.954 0.512,10.702 0.540,10.460 0.564 C 9.977 0.613,8.974 0.808,8.843 0.878 C 8.733 0.937,8.738 1.049,8.861 1.258 C 8.917 1.353,9.014 1.572,9.077 1.745 C 9.728 3.534,8.716 5.453,6.860 5.944 C 6.482 6.044,5.687 6.044,5.322 5.944 C 4.735 5.784,4.291 5.519,3.803 5.038 C 3.625 4.863,3.447 4.720,3.407 4.720 C 3.298 4.720,3.172 4.857,2.912 5.257 C 2.153 6.429,1.624 7.849,1.393 9.340 C 1.280 10.066,1.270 11.576,1.373 12.252 C 1.673 14.224,2.339 15.785,3.535 17.317 C 4.017 17.936,4.977 18.880,5.124 18.880 C 5.144 18.880,5.160 18.851,5.160 18.815 C 5.160 18.674,5.451 17.892,5.639 17.526 C 6.152 16.532,6.950 15.774,7.929 15.352 C 9.716 14.582,11.857 14.973,13.114 16.300 C 13.993 17.230,14.408 18.431,14.416 20.073 L 14.420 20.806 14.594 20.780 C 16.502 20.494,18.976 18.589,20.541 16.200 C 21.152 15.266,21.548 14.415,21.769 13.560 C 21.864 13.194,21.892 12.982,21.910 12.521 C 21.935 11.851,21.994 11.875,21.434 12.333 C 20.716 12.920,19.719 13.518,19.015 13.783 C 18.227 14.080,17.306 14.184,16.527 14.065 C 15.402 13.892,14.186 13.263,13.342 12.418 C 12.537 11.612,12.045 10.689,11.796 9.520 C 11.668 8.917,11.666 7.925,11.793 7.290 C 12.022 6.141,12.436 5.298,13.120 4.585 C 14.034 3.633,15.446 3.010,17.300 2.741 C 18.116 2.623,18.085 2.679,17.537 2.321 C 16.080 1.368,14.648 0.810,13.060 0.576 C 12.673 0.520,11.265 0.469,11.020 0.503 M11.154 1.496 C 11.389 1.659,11.539 1.974,11.508 2.239 C 11.480 2.470,11.410 2.619,11.254 2.776 C 10.768 3.266,9.906 2.950,9.849 2.262 C 9.803 1.708,10.161 1.344,10.725 1.370 C 10.939 1.380,11.021 1.404,11.154 1.496 M13.257 2.212 C 13.737 2.477,13.825 3.199,13.421 3.554 C 13.029 3.898,12.343 3.797,12.121 3.362 C 12.009 3.143,12.011 2.765,12.125 2.530 C 12.320 2.127,12.840 1.981,13.257 2.212 M16.851 3.079 C 15.611 3.219,14.472 3.765,13.599 4.639 C 12.875 5.363,12.383 6.248,12.155 7.240 C 12.043 7.726,12.014 8.625,12.094 9.140 C 12.273 10.298,12.798 11.350,13.599 12.153 C 14.357 12.914,15.249 13.396,16.334 13.629 C 16.795 13.729,17.928 13.728,18.400 13.627 C 19.510 13.391,20.440 12.880,21.219 12.077 C 21.952 11.322,22.416 10.430,22.627 9.371 C 22.734 8.832,22.724 7.864,22.605 7.323 C 22.187 5.421,20.872 3.945,19.040 3.321 C 18.442 3.117,17.466 3.010,16.851 3.079 M5.423 6.716 C 5.771 6.874,5.980 7.310,5.881 7.676 C 5.852 7.783,5.769 7.920,5.666 8.029 C 5.261 8.457,4.554 8.350,4.304 7.823 C 4.164 7.529,4.250 7.073,4.486 6.852 C 4.714 6.639,5.124 6.580,5.423 6.716 M5.614 9.010 C 6.156 9.309,6.159 10.146,5.618 10.463 C 5.266 10.670,4.752 10.569,4.528 10.250 C 4.002 9.500,4.817 8.570,5.614 9.010 M6.052 11.374 C 6.217 11.443,6.418 11.671,6.480 11.861 C 6.557 12.094,6.515 12.446,6.387 12.630 C 6.180 12.928,5.829 13.049,5.473 12.945 C 4.750 12.735,4.665 11.742,5.340 11.386 C 5.489 11.308,5.878 11.301,6.052 11.374 M7.337 13.630 C 7.551 13.780,7.680 14.035,7.680 14.308 C 7.680 14.791,7.335 15.120,6.828 15.120 C 6.093 15.120,5.744 14.271,6.256 13.729 C 6.543 13.426,6.987 13.385,7.337 13.630 M17.592 14.796 C 17.885 14.947,18.040 15.203,18.040 15.540 C 18.040 16.027,17.699 16.360,17.200 16.360 C 16.759 16.360,16.360 15.971,16.360 15.540 C 16.360 15.263,16.607 14.886,16.860 14.776 C 17.042 14.696,17.417 14.707,17.592 14.796 M9.053 15.377 C 7.978 15.581,6.983 16.200,6.316 17.077 C 6.066 17.406,5.709 18.126,5.603 18.515 C 5.198 19.999,5.646 21.606,6.777 22.729 C 8.088 24.032,10.026 24.362,11.665 23.561 C 13.307 22.759,14.269 21.074,14.117 19.267 C 13.961 17.421,12.683 15.931,10.847 15.453 C 10.365 15.328,9.502 15.291,9.053 15.377 M15.974 16.523 C 16.063 16.548,16.200 16.638,16.300 16.738 C 16.828 17.266,16.471 18.126,15.720 18.135 C 15.273 18.141,14.929 17.854,14.889 17.441 C 14.860 17.143,14.908 16.973,15.072 16.791 C 15.323 16.513,15.620 16.425,15.974 16.523 " stroke="none" fill="black" fill-rule="evenodd"></path></svg>