<svg role="img" viewBox="0 0 24 24" xmlns="http://www.w3.org/2000/svg"><path d="M5.400 12.000 C 5.400 18.600,5.413 24.000,5.430 24.000 C 5.446 24.000,6.045 23.938,6.760 23.862 C 7.475 23.786,8.510 23.694,9.060 23.658 C 9.610 23.621,10.069 23.583,10.080 23.572 C 10.091 23.562,10.109 21.315,10.120 18.580 C 10.131 15.845,10.149 13.598,10.160 13.587 C 10.171 13.576,10.789 15.289,11.534 17.394 C 12.278 19.498,13.077 21.754,13.308 22.408 L 13.729 23.595 13.934 23.617 C 14.047 23.628,14.356 23.648,14.620 23.661 C 15.363 23.697,16.526 23.792,17.575 23.901 C 18.100 23.955,18.545 24.000,18.565 24.000 C 18.585 24.000,18.600 18.951,18.600 12.000 L 18.600 -0.001 16.250 0.010 L 13.900 0.020 13.880 5.292 L 13.860 10.563 12.590 6.972 C 11.892 4.996,11.241 3.146,11.143 2.860 C 11.045 2.574,10.776 1.818,10.546 1.180 L 10.127 0.020 7.763 0.010 L 5.400 -0.001 5.400 12.000 " stroke="none" fill="black" fill-rule="evenodd"></path></svg>