<svg role="img" viewBox="0 0 24 24" xmlns="http://www.w3.org/2000/svg"><path d="M10.600 0.063 C 6.836 0.511,3.517 2.702,1.581 6.014 C 0.880 7.213,0.393 8.589,0.130 10.117 C 0.029 10.701,0.022 10.819,0.021 11.980 C 0.020 13.081,0.030 13.283,0.111 13.785 C 0.544 16.474,1.736 18.775,3.664 20.642 C 5.450 22.372,7.672 23.478,10.180 23.885 C 10.831 23.990,12.491 24.034,13.169 23.963 C 14.582 23.815,15.929 23.441,17.155 22.856 C 17.555 22.666,17.683 22.586,17.666 22.542 C 17.654 22.509,17.403 22.162,17.108 21.771 C 14.884 18.814,13.695 17.158,12.102 14.800 C 11.159 13.403,10.079 11.811,9.703 11.262 L 9.020 10.265 8.995 10.722 C 8.982 10.974,8.968 12.532,8.965 14.184 C 8.962 16.210,8.946 17.228,8.917 17.311 C 8.846 17.515,8.713 17.572,8.257 17.592 C 7.798 17.612,7.742 17.593,7.585 17.367 L 7.475 17.208 7.504 12.503 L 7.533 7.797 7.668 7.679 C 7.802 7.561,7.807 7.560,8.292 7.560 C 8.676 7.560,8.802 7.574,8.873 7.624 C 8.986 7.703,9.501 8.474,14.469 16.000 C 16.655 19.311,18.467 22.037,18.497 22.057 C 18.618 22.140,19.810 21.187,20.601 20.375 C 21.220 19.739,21.533 19.351,22.046 18.582 C 22.967 17.200,23.609 15.533,23.887 13.800 C 23.970 13.282,23.980 13.088,23.979 11.980 C 23.978 10.802,23.973 10.708,23.866 10.100 C 23.488 7.949,22.697 6.161,21.397 4.520 C 20.971 3.981,20.019 3.029,19.480 2.603 C 17.615 1.126,15.295 0.203,13.040 0.040 C 12.300 -0.014,11.154 -0.003,10.600 0.063 M16.183 7.298 C 16.235 7.332,16.298 7.399,16.323 7.446 C 16.386 7.564,16.413 11.187,16.372 13.916 L 16.340 16.013 15.610 14.892 L 14.880 13.771 14.882 10.796 C 14.884 9.159,14.899 7.733,14.916 7.627 C 14.973 7.281,15.159 7.191,15.755 7.220 C 15.964 7.231,16.124 7.260,16.183 7.298 " stroke="none" fill="black" fill-rule="evenodd"></path></svg>