<svg role="img" viewBox="0 0 24 24" xmlns="http://www.w3.org/2000/svg"><path d="M5.320 0.060 C 3.007 0.377,1.066 1.997,0.319 4.235 C -0.000 5.190,0.020 4.660,0.020 12.000 C 0.020 19.340,-0.000 18.810,0.319 19.765 C 0.943 21.634,2.370 23.061,4.235 23.681 C 5.134 23.980,5.064 23.974,8.439 23.990 C 11.270 24.003,11.461 23.999,11.509 23.934 C 11.576 23.843,11.585 0.201,11.519 0.077 C 11.478 0.002,11.406 0.000,8.589 0.004 C 6.459 0.007,5.600 0.022,5.320 0.060 M14.008 0.048 C 13.938 0.118,13.938 23.882,14.008 23.952 C 14.071 24.015,18.022 24.020,18.521 23.958 C 19.336 23.857,19.835 23.707,20.580 23.339 C 22.055 22.610,23.157 21.341,23.681 19.765 C 24.001 18.803,23.980 19.341,23.980 12.000 C 23.980 5.861,23.976 5.437,23.908 5.080 C 23.404 2.430,21.285 0.407,18.648 0.060 C 18.053 -0.019,14.085 -0.029,14.008 0.048 M9.615 7.310 C 9.628 10.252,9.650 14.771,9.663 17.350 L 9.687 22.040 7.700 22.040 C 5.869 22.040,5.682 22.034,5.319 21.960 C 3.663 21.622,2.378 20.341,2.042 18.689 C 1.959 18.282,1.958 18.236,1.970 11.850 L 1.981 5.420 2.087 5.060 C 2.387 4.045,2.985 3.214,3.813 2.663 C 4.318 2.328,4.702 2.168,5.312 2.039 C 5.621 1.974,5.880 1.965,7.625 1.963 L 9.590 1.960 9.615 7.310 M5.426 5.023 C 4.656 5.210,4.005 5.868,3.821 6.644 C 3.478 8.101,4.521 9.439,6.000 9.439 C 7.269 9.439,8.239 8.469,8.239 7.200 C 8.239 5.920,7.262 4.953,5.980 4.964 C 5.804 4.965,5.555 4.992,5.426 5.023 M19.521 10.935 C 20.259 11.191,20.831 11.803,21.064 12.582 C 21.160 12.902,21.160 13.498,21.064 13.820 C 20.823 14.630,20.243 15.218,19.400 15.505 C 19.068 15.618,18.350 15.606,18.000 15.482 C 17.596 15.339,17.323 15.169,17.040 14.883 C 16.737 14.576,16.559 14.262,16.438 13.823 C 16.323 13.404,16.340 12.706,16.473 12.340 C 16.732 11.630,17.426 11.034,18.200 10.860 C 18.584 10.773,19.147 10.805,19.521 10.935 " stroke="none" fill="black" fill-rule="evenodd"></path></svg>