<svg role="img" viewBox="0 0 24 24" xmlns="http://www.w3.org/2000/svg"><path d="M11.160 1.761 C 10.951 1.781,10.591 1.826,10.360 1.862 C 6.651 2.431,3.493 4.930,2.149 8.360 C 2.049 8.613,1.937 8.933,1.899 9.071 C 1.860 9.209,1.816 9.330,1.800 9.340 C 1.783 9.350,1.584 9.386,1.357 9.420 C 0.845 9.497,0.550 9.579,0.330 9.706 C 0.011 9.889,0.021 9.819,0.008 11.940 C -0.004 14.022,-0.004 14.025,0.250 14.270 C 0.465 14.476,0.741 14.588,1.205 14.657 C 1.439 14.692,1.675 14.720,1.730 14.720 C 1.821 14.720,1.841 14.758,1.979 15.170 C 3.033 18.331,5.636 20.822,8.920 21.813 C 9.472 21.980,10.006 22.093,10.680 22.186 C 11.285 22.269,12.665 22.280,13.260 22.205 C 16.462 21.805,19.179 20.160,20.898 17.580 C 21.423 16.793,21.770 16.090,22.082 15.181 L 22.234 14.742 22.705 14.671 C 23.266 14.587,23.461 14.519,23.684 14.327 C 24.004 14.053,23.998 14.098,23.999 12.040 C 23.999 10.843,23.985 10.166,23.956 10.062 C 23.869 9.750,23.544 9.570,22.867 9.459 C 22.665 9.426,22.446 9.390,22.380 9.379 C 22.265 9.360,22.252 9.337,22.067 8.790 C 20.912 5.380,17.917 2.733,14.364 1.982 C 13.360 1.771,12.028 1.679,11.160 1.761 M13.400 4.260 C 15.731 4.678,17.644 5.927,18.896 7.849 C 19.146 8.232,19.624 9.189,19.585 9.228 C 19.572 9.242,18.944 9.232,18.190 9.206 C 14.645 9.086,13.682 9.071,10.960 9.094 C 9.409 9.108,7.681 9.136,7.120 9.157 C 6.559 9.178,5.736 9.208,5.290 9.223 L 4.480 9.251 4.526 9.119 C 4.552 9.046,4.668 8.799,4.785 8.569 C 5.988 6.201,8.264 4.603,10.980 4.220 C 11.517 4.144,12.876 4.167,13.400 4.260 M3.794 10.774 C 3.839 10.815,4.151 11.275,4.488 11.797 L 5.100 12.745 5.120 11.722 L 5.140 10.700 5.470 10.688 L 5.800 10.677 5.800 12.018 L 5.800 13.360 5.229 13.360 C 4.791 13.360,4.638 13.346,4.574 13.301 C 4.527 13.269,4.213 12.815,3.875 12.292 L 3.260 11.342 3.249 12.351 L 3.239 13.360 2.899 13.360 L 2.560 13.360 2.560 12.047 C 2.560 11.324,2.574 10.720,2.590 10.703 C 2.607 10.687,2.866 10.679,3.166 10.686 C 3.629 10.698,3.724 10.711,3.794 10.774 M7.111 12.010 L 7.100 13.340 6.800 13.352 C 6.636 13.359,6.460 13.354,6.410 13.341 L 6.320 13.318 6.320 12.026 C 6.320 11.315,6.332 10.721,6.347 10.707 C 6.361 10.692,6.542 10.680,6.747 10.680 L 7.121 10.680 7.111 12.010 M10.560 10.960 L 10.560 11.240 9.577 11.240 C 8.977 11.240,8.565 11.256,8.517 11.281 C 8.427 11.330,8.415 11.489,8.496 11.557 C 8.527 11.582,8.828 11.629,9.166 11.660 C 10.026 11.740,10.118 11.755,10.308 11.846 C 10.573 11.971,10.660 12.148,10.660 12.560 C 10.660 12.954,10.587 13.125,10.359 13.259 C 10.228 13.335,10.143 13.341,8.950 13.352 L 7.680 13.364 7.680 13.082 L 7.680 12.800 8.690 12.799 C 9.245 12.799,9.741 12.788,9.792 12.774 C 9.872 12.753,9.883 12.728,9.872 12.585 C 9.857 12.385,9.879 12.391,8.884 12.301 C 7.830 12.206,7.680 12.108,7.680 11.506 C 7.680 11.037,7.809 10.828,8.161 10.727 C 8.238 10.705,8.809 10.686,9.430 10.684 L 10.560 10.680 10.560 10.960 M13.960 10.960 L 13.960 11.240 12.963 11.240 C 12.110 11.240,11.957 11.249,11.903 11.303 C 11.825 11.381,11.822 11.495,11.896 11.557 C 11.927 11.582,12.228 11.629,12.566 11.660 C 13.426 11.740,13.518 11.755,13.708 11.846 C 13.971 11.970,14.053 12.139,14.055 12.557 C 14.058 12.958,13.987 13.124,13.759 13.259 C 13.628 13.335,13.543 13.341,12.350 13.352 L 11.080 13.364 11.080 13.082 L 11.080 12.800 12.090 12.799 C 12.646 12.799,13.141 12.788,13.192 12.774 C 13.272 12.753,13.282 12.728,13.272 12.588 C 13.257 12.386,13.251 12.384,12.460 12.321 C 12.130 12.295,11.770 12.255,11.660 12.232 C 11.231 12.145,11.080 11.953,11.080 11.497 C 11.080 11.054,11.252 10.805,11.617 10.718 C 11.685 10.701,12.240 10.686,12.850 10.684 L 13.960 10.680 13.960 10.960 M16.684 10.743 C 16.710 10.758,17.880 13.297,17.880 13.337 C 17.880 13.349,17.694 13.360,17.467 13.360 L 17.054 13.360 16.952 13.110 L 16.849 12.860 16.074 12.849 L 15.298 12.838 15.169 13.099 L 15.041 13.360 14.636 13.360 C 14.328 13.360,14.236 13.348,14.252 13.310 C 14.355 13.057,15.380 10.809,15.409 10.772 C 15.429 10.746,15.540 10.716,15.653 10.707 C 15.867 10.690,16.642 10.716,16.684 10.743 M19.536 10.800 C 19.590 10.855,19.905 11.321,20.236 11.835 L 20.839 12.771 20.849 11.735 L 20.860 10.700 21.190 10.688 L 21.520 10.677 21.520 12.018 L 21.520 13.360 20.949 13.360 C 20.511 13.360,20.358 13.346,20.294 13.301 C 20.248 13.269,19.933 12.815,19.595 12.294 L 18.980 11.345 18.969 12.352 L 18.959 13.360 18.619 13.360 L 18.280 13.360 18.280 12.047 C 18.280 11.324,18.293 10.720,18.310 10.703 C 18.327 10.687,18.587 10.679,18.889 10.686 C 19.414 10.699,19.443 10.704,19.536 10.800 M15.973 11.311 C 15.948 11.327,15.837 11.552,15.727 11.810 L 15.528 12.280 16.062 12.280 L 16.596 12.280 16.412 11.830 C 16.311 11.582,16.211 11.357,16.189 11.330 C 16.146 11.274,16.045 11.265,15.973 11.311 M6.100 14.960 C 9.455 15.099,11.852 15.136,14.100 15.083 C 15.948 15.039,18.555 14.944,19.212 14.897 L 19.565 14.871 19.500 15.026 C 19.465 15.111,19.338 15.365,19.219 15.590 C 17.993 17.909,15.652 19.491,12.986 19.804 C 12.463 19.865,11.095 19.829,10.628 19.742 C 9.368 19.507,8.234 19.030,7.222 18.309 C 6.769 17.986,6.027 17.284,5.668 16.840 C 5.324 16.414,4.989 15.890,4.737 15.381 C 4.618 15.140,4.520 14.927,4.520 14.908 C 4.520 14.890,4.660 14.885,4.830 14.898 C 5.001 14.910,5.572 14.938,6.100 14.960 " stroke="none" fill="black" fill-rule="evenodd"></path></svg>