<svg viewBox="0 0 24 24" role="img" xmlns="http://www.w3.org/2000/svg"><path d="M1.385 0.312 C 1.285 0.752,1.166 1.538,1.122 2.060 C 0.957 3.987,1.307 5.687,2.160 7.103 C 2.270 7.286,2.360 7.445,2.360 7.455 C 2.360 7.466,2.187 7.568,1.976 7.682 C 1.506 7.936,1.347 8.072,1.207 8.336 L 1.100 8.540 1.100 16.067 L 1.100 23.594 1.182 23.705 C 1.334 23.908,1.469 23.980,1.693 23.978 C 1.889 23.976,2.051 23.893,4.859 22.338 C 7.310 20.982,7.854 20.665,8.026 20.496 C 8.379 20.149,8.360 20.383,8.360 16.320 C 8.360 12.291,8.344 12.498,8.672 12.164 C 8.924 11.908,11.450 10.499,11.782 10.429 C 12.175 10.347,12.314 10.402,13.795 11.228 C 14.535 11.641,15.206 12.038,15.288 12.112 C 15.369 12.185,15.477 12.329,15.528 12.433 L 15.620 12.620 15.640 16.320 L 15.660 20.020 15.759 20.213 C 15.890 20.471,16.069 20.625,16.544 20.889 C 20.894 23.314,22.111 23.972,22.280 23.989 C 22.481 24.009,22.663 23.914,22.816 23.707 L 22.900 23.594 22.900 16.067 L 22.900 8.540 22.794 8.340 C 22.650 8.070,22.529 7.964,22.060 7.699 C 21.840 7.575,21.654 7.467,21.647 7.460 C 21.639 7.453,21.725 7.295,21.837 7.109 C 22.692 5.689,23.042 3.993,22.879 2.060 C 22.835 1.541,22.669 0.476,22.589 0.204 L 22.540 0.035 22.361 0.428 C 21.477 2.363,20.238 3.801,18.900 4.443 C 18.402 4.682,18.026 4.788,17.457 4.847 L 17.015 4.893 14.737 3.627 C 12.244 2.240,12.202 2.221,11.774 2.311 C 11.601 2.347,11.008 2.658,9.273 3.623 L 6.998 4.888 6.629 4.860 C 5.075 4.739,3.681 3.769,2.491 1.980 C 2.205 1.550,1.856 0.915,1.634 0.420 C 1.545 0.222,1.466 0.054,1.460 0.047 C 1.453 0.040,1.419 0.159,1.385 0.312 " stroke="none" fill="black" fill-rule="evenodd"></path></svg>