<svg role="img" viewBox="0 0 24 24" xmlns="http://www.w3.org/2000/svg"><path d="M1.211 0.042 C 0.630 0.157,0.243 0.546,0.120 1.138 C -0.246 2.909,2.347 7.132,6.902 12.182 C 11.690 17.491,17.589 22.290,20.928 23.594 C 22.219 24.098,23.011 24.106,23.552 23.620 C 24.293 22.953,24.098 21.558,22.974 19.497 C 22.678 18.955,22.119 18.035,22.018 17.926 C 21.978 17.881,22.012 17.787,22.201 17.426 C 22.787 16.306,23.204 15.020,23.404 13.720 C 23.524 12.937,23.551 11.569,23.462 10.800 C 23.341 9.754,23.083 8.720,22.716 7.810 C 22.488 7.244,22.453 7.188,22.397 7.287 C 22.315 7.432,21.456 8.614,21.031 9.166 C 19.814 10.746,18.564 12.194,16.859 14.000 C 15.971 14.941,14.143 16.760,13.750 17.094 L 13.522 17.288 13.121 16.914 L 12.721 16.540 13.048 16.240 C 13.489 15.835,16.285 12.924,17.139 11.980 C 20.663 8.085,23.137 4.450,23.703 2.336 C 23.837 1.834,23.857 1.220,23.750 0.873 C 23.627 0.477,23.338 0.175,22.984 0.073 C 22.734 0.001,22.224 0.020,21.820 0.117 C 20.945 0.327,19.438 1.066,18.212 1.887 L 17.924 2.080 17.512 1.862 C 16.261 1.201,14.953 0.761,13.551 0.531 C 12.947 0.431,11.080 0.432,10.440 0.533 C 8.943 0.768,7.606 1.236,6.374 1.956 L 6.169 2.077 5.714 1.785 C 4.245 0.842,2.899 0.220,1.985 0.062 C 1.598 -0.005,1.468 -0.009,1.211 0.042 M1.947 1.143 C 2.114 1.177,2.404 1.261,2.590 1.328 C 3.009 1.480,4.015 1.979,4.677 2.364 L 5.173 2.653 5.037 2.772 C 4.125 3.569,3.600 4.094,2.811 4.997 L 2.691 5.135 2.382 4.617 C 1.980 3.944,1.440 2.840,1.278 2.361 C 1.134 1.933,1.076 1.397,1.157 1.245 C 1.250 1.071,1.466 1.043,1.947 1.143 M22.891 1.204 C 23.009 1.348,22.970 1.861,22.804 2.360 C 22.569 3.064,21.448 5.188,21.361 5.094 C 21.343 5.075,21.180 4.871,20.998 4.640 C 20.580 4.111,19.809 3.339,19.340 2.981 C 19.142 2.830,18.965 2.693,18.947 2.678 C 18.903 2.641,20.051 1.986,20.727 1.663 C 21.863 1.119,22.681 0.945,22.891 1.204 M1.483 7.248 C 1.035 8.386,0.861 8.941,0.699 9.742 C 0.190 12.253,0.564 14.904,1.757 17.260 L 2.021 17.780 1.848 18.040 C 1.221 18.981,0.526 20.312,0.264 21.070 C -0.102 22.130,-0.075 22.945,0.342 23.431 C 0.514 23.632,0.893 23.827,1.214 23.879 C 2.748 24.128,6.271 22.095,10.420 18.565 C 10.794 18.247,11.106 17.982,11.113 17.977 C 11.154 17.946,10.589 17.332,10.252 17.041 C 9.596 16.474,7.490 14.324,6.117 12.819 C 4.519 11.067,2.950 9.147,1.978 7.754 C 1.766 7.449,1.576 7.190,1.556 7.178 C 1.536 7.165,1.503 7.197,1.483 7.248 M11.443 19.222 C 10.284 20.228,9.032 21.225,7.978 21.979 C 7.649 22.214,7.356 22.430,7.327 22.458 C 7.283 22.500,7.337 22.536,7.627 22.659 C 8.956 23.221,10.294 23.512,11.720 23.548 C 12.905 23.579,13.798 23.483,14.838 23.215 C 15.561 23.029,16.758 22.585,16.789 22.493 C 16.795 22.475,16.716 22.407,16.614 22.342 C 15.874 21.875,13.744 20.192,12.425 19.032 C 12.230 18.860,12.059 18.720,12.045 18.720 C 12.031 18.720,11.760 18.946,11.443 19.222 M3.165 19.447 C 3.544 19.907,4.287 20.633,4.797 21.040 C 4.999 21.201,5.149 21.346,5.132 21.362 C 5.114 21.379,4.841 21.541,4.524 21.722 C 2.750 22.736,1.422 23.154,1.174 22.777 C 1.075 22.626,1.122 22.115,1.278 21.640 C 1.429 21.179,1.964 20.087,2.383 19.382 L 2.691 18.865 2.769 18.962 C 2.811 19.016,2.990 19.234,3.165 19.447 M21.810 19.580 C 22.231 20.306,22.643 21.162,22.802 21.640 C 22.958 22.114,23.005 22.625,22.906 22.777 C 22.658 23.154,21.330 22.736,19.556 21.722 C 19.239 21.541,18.966 21.379,18.949 21.364 C 18.933 21.348,19.103 21.192,19.329 21.017 C 19.858 20.609,20.746 19.723,21.102 19.250 C 21.353 18.916,21.385 18.886,21.432 18.950 C 21.461 18.988,21.631 19.272,21.810 19.580 " stroke="none" fill="black" fill-rule="evenodd"></path></svg>