<svg role="img" viewBox="0 0 24 24" xmlns="http://www.w3.org/2000/svg"><path d="M10.940 0.046 C 6.260 0.450,2.189 3.634,0.659 8.086 C -0.216 10.630,-0.216 13.374,0.659 15.914 C 1.855 19.389,4.613 22.147,8.086 23.341 C 12.441 24.838,17.227 23.733,20.480 20.480 C 25.169 15.792,25.169 8.207,20.480 3.520 C 17.963 1.004,14.489 -0.261,10.940 0.046 M12.940 1.281 C 16.889 1.647,20.254 4.064,21.850 7.681 C 22.243 8.572,22.511 9.524,22.667 10.580 C 22.774 11.307,22.763 12.787,22.645 13.554 C 22.465 14.727,22.144 15.739,21.616 16.798 C 21.074 17.886,20.463 18.736,19.600 19.602 C 17.938 21.272,15.898 22.287,13.440 22.667 C 12.816 22.764,11.177 22.764,10.548 22.668 C 8.095 22.292,6.066 21.277,4.380 19.583 C 1.859 17.049,0.774 13.541,1.422 10.018 C 1.603 9.031,1.884 8.194,2.361 7.220 C 3.168 5.571,4.463 4.101,6.040 3.041 C 8.033 1.702,10.552 1.060,12.940 1.281 M15.289 2.867 C 15.136 2.899,14.890 3.163,14.866 3.320 C 14.855 3.397,14.812 4.073,14.771 4.821 C 14.702 6.065,14.688 6.198,14.605 6.369 C 14.477 6.633,14.285 6.721,13.837 6.718 C 13.144 6.714,12.423 6.648,12.160 6.565 C 11.626 6.395,11.486 6.277,10.193 4.911 C 9.531 4.211,8.895 3.552,8.780 3.447 C 8.542 3.229,8.355 3.160,8.007 3.160 C 7.795 3.160,7.719 3.184,7.415 3.344 C 6.548 3.801,5.876 4.289,5.165 4.980 C 4.151 5.964,3.427 7.030,2.896 8.320 C 2.608 9.019,2.631 9.266,3.000 9.436 C 3.125 9.493,3.513 9.501,6.579 9.509 C 9.887 9.517,10.028 9.521,10.281 9.597 C 10.720 9.731,10.958 9.922,11.881 10.883 C 13.271 12.331,13.871 12.984,13.998 13.184 C 14.064 13.287,14.158 13.490,14.209 13.636 C 14.325 13.973,14.324 14.103,14.165 17.200 C 13.960 21.211,13.960 21.073,14.176 21.276 C 14.345 21.435,14.532 21.428,15.084 21.240 C 16.580 20.731,17.816 19.947,18.943 18.794 C 19.454 18.270,19.723 17.941,20.097 17.380 C 20.487 16.795,20.579 16.589,20.579 16.300 C 20.581 15.844,20.561 15.817,19.078 14.252 C 18.005 13.119,17.692 12.766,17.584 12.560 C 17.312 12.043,17.257 11.658,17.311 10.628 C 17.350 9.903,17.367 9.848,17.615 9.662 C 17.721 9.583,17.789 9.579,19.273 9.560 C 20.606 9.542,20.837 9.530,20.940 9.474 C 21.155 9.357,21.215 9.256,21.232 8.988 C 21.246 8.774,21.227 8.687,21.099 8.360 C 20.747 7.463,20.153 6.463,19.527 5.717 C 18.612 4.625,17.284 3.616,16.005 3.040 C 15.636 2.874,15.458 2.831,15.289 2.867 M14.325 7.987 C 15.002 8.219,15.633 8.842,15.908 9.549 C 16.056 9.928,16.063 10.414,15.924 10.695 C 15.748 11.053,15.348 11.216,14.863 11.127 C 14.091 10.985,13.274 10.260,12.966 9.444 C 12.822 9.062,12.820 8.571,12.960 8.324 C 13.074 8.123,13.195 8.022,13.422 7.937 C 13.624 7.862,14.025 7.884,14.325 7.987 " stroke="none" fill="black" fill-rule="evenodd"></path></svg>