<svg role="img" viewBox="0 0 24 24" xmlns="http://www.w3.org/2000/svg"><path d="M12.100 0.025 C 9.875 0.258,8.015 1.106,6.576 2.545 C 4.960 4.161,4.079 6.431,4.172 8.740 C 4.209 9.660,4.348 10.207,4.932 11.720 C 5.335 12.765,5.395 12.957,5.449 13.387 C 5.552 14.198,5.302 15.050,4.709 15.915 C 4.436 16.312,3.684 17.087,3.181 17.489 C 2.962 17.664,2.467 18.016,2.081 18.272 C 1.299 18.790,0.767 19.268,0.683 19.529 C 0.547 19.948,1.044 20.173,2.100 20.171 C 3.114 20.168,3.728 20.002,4.960 19.396 C 5.970 18.899,6.460 18.617,6.710 18.386 C 6.804 18.300,6.880 18.242,6.880 18.256 C 6.880 18.270,6.828 18.385,6.765 18.511 C 6.332 19.372,5.930 20.444,5.800 21.082 C 5.551 22.304,5.894 23.335,6.570 23.391 C 7.004 23.426,7.442 23.165,8.161 22.443 C 8.757 21.845,9.346 21.074,9.901 20.167 C 10.768 18.748,11.350 18.147,11.860 18.142 C 12.120 18.139,12.300 18.256,12.496 18.552 C 12.790 18.998,12.946 19.531,13.180 20.880 C 13.258 21.331,13.368 21.862,13.424 22.060 C 13.676 22.946,14.192 23.641,14.805 23.919 C 15.492 24.231,16.150 23.586,16.484 22.274 C 16.559 21.982,16.573 21.770,16.601 20.580 C 16.634 19.132,16.669 18.837,16.852 18.480 C 16.969 18.251,17.163 18.137,17.370 18.175 C 17.625 18.223,17.962 18.529,18.732 19.413 C 19.587 20.393,20.126 20.926,20.577 21.236 C 21.150 21.630,21.733 21.806,22.191 21.721 C 22.679 21.631,22.828 21.390,22.699 20.900 C 22.577 20.435,22.192 19.815,21.382 18.780 C 21.107 18.428,20.881 18.126,20.881 18.108 C 20.880 18.091,20.956 18.128,21.050 18.192 C 21.533 18.520,22.268 18.848,22.685 18.920 C 22.905 18.959,22.972 18.956,23.095 18.904 C 23.371 18.790,23.421 18.461,23.228 18.040 C 23.105 17.773,22.538 17.230,21.900 16.771 C 20.795 15.975,20.212 15.251,19.935 14.332 C 19.842 14.026,19.828 13.907,19.826 13.420 C 19.823 12.597,19.980 11.947,20.520 10.563 C 20.956 9.445,21.088 8.802,21.088 7.800 C 21.088 7.104,21.007 6.528,20.816 5.865 C 20.121 3.450,18.271 1.435,15.934 0.545 C 15.498 0.379,14.735 0.185,14.180 0.099 C 13.795 0.039,12.429 -0.010,12.100 0.025 " stroke="none" fill="black" fill-rule="evenodd"></path></svg>