<svg role="img" viewBox="0 0 24 24" xmlns="http://www.w3.org/2000/svg"><path d="M8.220 6.788 C 7.796 6.812,6.675 6.963,6.171 7.065 C 3.311 7.642,1.137 8.965,0.342 10.614 C 0.082 11.151,0.023 11.409,0.023 12.000 C 0.023 12.563,0.080 12.831,0.303 13.314 C 1.070 14.976,3.238 16.325,6.091 16.916 C 7.780 17.266,9.703 17.331,11.420 17.096 C 13.155 16.858,14.844 16.287,16.097 15.513 C 16.428 15.308,17.129 14.795,17.107 14.774 C 17.100 14.767,16.978 14.823,16.836 14.899 C 15.738 15.482,14.109 15.896,12.332 16.043 C 11.496 16.112,9.625 16.069,8.882 15.964 C 7.347 15.746,6.149 15.390,5.080 14.836 C 4.671 14.624,3.858 14.089,3.892 14.055 C 3.899 14.048,4.003 14.080,4.122 14.127 C 4.393 14.232,5.073 14.272,5.410 14.202 C 6.119 14.055,6.708 13.483,6.937 12.720 C 7.039 12.382,7.060 11.797,6.984 11.441 C 6.732 10.258,5.806 9.587,4.612 9.723 C 4.426 9.744,4.211 9.788,4.135 9.819 C 3.922 9.909,4.008 9.827,4.410 9.558 C 5.532 8.807,7.039 8.295,8.883 8.037 C 9.660 7.928,11.425 7.887,12.309 7.957 C 13.983 8.090,15.556 8.478,16.690 9.038 C 16.948 9.165,17.160 9.266,17.160 9.262 C 17.160 9.258,17.044 9.162,16.903 9.048 C 14.896 7.440,11.663 6.599,8.220 6.788 M17.854 9.721 C 17.021 9.871,16.402 10.462,16.172 11.328 C 16.065 11.733,16.084 12.381,16.215 12.786 C 16.407 13.376,16.740 13.773,17.255 14.023 C 17.622 14.201,17.896 14.252,18.357 14.231 C 18.817 14.209,19.032 14.125,19.318 13.858 L 19.515 13.674 19.563 13.917 L 19.610 14.160 19.925 14.160 L 20.240 14.160 20.240 12.980 L 20.240 11.800 19.300 11.800 L 18.360 11.800 18.360 12.160 L 18.360 12.520 18.861 12.520 L 19.362 12.520 19.336 12.630 C 19.297 12.798,19.165 13.088,19.088 13.174 C 18.948 13.332,18.640 13.439,18.325 13.440 C 17.933 13.440,17.751 13.380,17.522 13.174 C 17.252 12.932,17.115 12.609,17.089 12.154 C 17.053 11.520,17.201 11.067,17.544 10.765 C 17.757 10.577,17.945 10.514,18.296 10.513 C 18.714 10.512,18.988 10.677,19.148 11.026 L 19.246 11.240 19.703 11.240 C 20.217 11.240,20.196 11.257,20.096 10.917 C 19.890 10.211,19.243 9.749,18.393 9.703 C 18.210 9.692,17.967 9.701,17.854 9.721 M20.840 11.980 L 20.840 14.160 22.420 14.160 L 24.000 14.160 24.000 13.760 L 24.000 13.360 22.920 13.360 L 21.840 13.360 21.840 11.580 L 21.840 9.800 21.340 9.800 L 20.840 9.800 20.840 11.980 M5.525 10.308 C 5.885 10.470,6.144 10.767,6.321 11.220 C 6.448 11.546,6.461 12.340,6.345 12.680 C 6.187 13.139,5.899 13.481,5.527 13.654 C 5.254 13.780,4.545 13.779,4.271 13.653 C 3.701 13.389,3.360 12.764,3.360 11.980 C 3.360 11.119,3.757 10.469,4.413 10.255 C 4.665 10.173,5.291 10.203,5.525 10.308 M8.398 11.379 C 8.297 11.412,8.149 11.504,8.068 11.586 L 7.920 11.733 7.920 11.567 L 7.920 11.400 7.680 11.400 L 7.440 11.400 7.440 13.300 L 7.440 15.200 7.680 15.200 L 7.920 15.200 7.920 14.494 L 7.920 13.788 8.015 13.891 C 8.249 14.143,8.821 14.274,9.221 14.165 C 9.791 14.011,10.122 13.497,10.123 12.766 C 10.125 12.136,9.886 11.690,9.420 11.450 C 9.172 11.321,8.683 11.288,8.398 11.379 M11.340 11.374 C 10.632 11.608,10.275 12.263,10.415 13.067 C 10.486 13.472,10.585 13.663,10.843 13.895 C 11.114 14.139,11.369 14.215,11.836 14.192 C 12.342 14.166,12.637 14.001,12.819 13.640 C 12.999 13.284,12.998 13.280,12.731 13.280 C 12.499 13.280,12.495 13.282,12.445 13.420 C 12.418 13.497,12.330 13.609,12.251 13.670 C 12.128 13.764,12.060 13.782,11.799 13.794 C 11.465 13.809,11.268 13.742,11.092 13.553 C 10.978 13.431,10.880 13.195,10.880 13.041 L 10.880 12.920 11.940 12.920 L 13.000 12.920 13.000 12.748 C 13.000 12.539,12.907 12.170,12.804 11.969 C 12.696 11.758,12.451 11.523,12.240 11.428 C 12.017 11.327,11.562 11.300,11.340 11.374 M14.360 11.357 C 14.170 11.415,14.012 11.516,13.886 11.659 L 13.760 11.803 13.760 11.601 L 13.760 11.400 13.540 11.400 L 13.320 11.400 13.320 12.780 L 13.320 14.160 13.560 14.160 L 13.800 14.160 13.801 13.250 C 13.802 12.236,13.826 12.120,14.076 11.910 C 14.401 11.636,14.937 11.670,15.125 11.977 C 15.193 12.089,15.200 12.193,15.200 13.130 L 15.200 14.160 15.443 14.160 L 15.686 14.160 15.673 13.050 C 15.661 11.990,15.656 11.932,15.570 11.772 C 15.463 11.572,15.278 11.424,15.060 11.364 C 14.880 11.315,14.511 11.311,14.360 11.357 M9.044 11.766 C 9.262 11.840,9.376 11.940,9.497 12.162 C 9.776 12.674,9.621 13.479,9.198 13.716 C 9.032 13.810,8.648 13.831,8.453 13.758 C 8.268 13.688,8.047 13.443,7.976 13.228 C 7.885 12.955,7.913 12.402,8.029 12.180 C 8.229 11.796,8.638 11.629,9.044 11.766 M11.991 11.782 C 12.255 11.892,12.480 12.185,12.480 12.418 L 12.480 12.520 11.675 12.520 L 10.870 12.520 10.895 12.397 C 11.000 11.872,11.514 11.583,11.991 11.782 " stroke="none" fill="black" fill-rule="evenodd"></path></svg>