<svg xmlns="http://www.w3.org/2000/svg" role="img" viewBox="0 0 24 24"><path d="M15.520 0.044 C 12.539 0.379,10.040 2.390,9.086 5.220 C 8.624 6.589,8.560 8.073,8.903 9.446 C 9.099 10.232,9.460 11.088,9.875 11.757 L 10.085 12.095 9.213 12.966 L 8.340 13.837 8.080 13.711 C 7.872 13.610,7.755 13.582,7.494 13.568 C 7.210 13.553,7.141 13.563,6.954 13.649 C 6.836 13.704,6.578 13.889,6.380 14.061 C 5.956 14.428,1.063 19.328,0.573 19.876 C 0.388 20.082,0.188 20.334,0.128 20.436 C 0.030 20.604,0.020 20.654,0.025 21.002 C 0.033 21.589,0.066 21.637,1.215 22.782 C 1.904 23.469,2.241 23.776,2.395 23.857 C 2.830 24.086,3.421 24.026,3.838 23.709 C 4.158 23.466,9.820 17.799,10.112 17.429 C 10.404 17.060,10.454 16.915,10.434 16.496 C 10.422 16.246,10.393 16.125,10.294 15.915 L 10.169 15.650 11.037 14.783 L 11.906 13.915 12.238 14.121 C 13.652 14.998,15.333 15.419,16.893 15.288 C 17.564 15.231,18.292 15.089,18.784 14.918 C 19.317 14.734,20.370 14.197,20.800 13.891 C 21.574 13.339,22.506 12.304,22.991 11.455 C 24.726 8.422,24.163 4.556,21.634 2.140 C 19.985 0.564,17.740 -0.205,15.520 0.044 M1.520 1.179 C 1.520 1.263,2.481 4.685,2.685 5.326 L 2.731 5.472 3.616 5.734 C 5.511 6.295,7.045 6.728,7.065 6.708 C 7.093 6.680,6.634 5.025,5.929 2.605 C 5.877 2.429,5.843 2.381,5.742 2.338 C 5.593 2.276,4.100 1.839,2.680 1.441 C 2.119 1.284,1.629 1.147,1.590 1.135 C 1.544 1.122,1.520 1.137,1.520 1.179 M17.599 1.398 C 18.152 1.518,18.655 1.699,19.220 1.980 C 20.942 2.836,22.187 4.464,22.608 6.414 C 22.682 6.756,22.696 6.948,22.696 7.640 C 22.697 8.345,22.684 8.519,22.606 8.880 C 22.170 10.896,20.956 12.484,19.180 13.359 C 18.237 13.825,17.584 13.991,16.560 14.028 C 15.862 14.053,15.380 14.007,14.799 13.860 C 13.637 13.565,12.700 13.029,11.839 12.163 C 10.904 11.223,10.356 10.214,10.072 8.910 C 9.996 8.559,9.983 8.380,9.983 7.660 C 9.983 6.940,9.996 6.761,10.072 6.410 C 10.263 5.534,10.565 4.816,11.044 4.099 C 11.416 3.544,12.196 2.755,12.723 2.402 C 13.629 1.796,14.654 1.414,15.625 1.320 C 16.168 1.267,17.185 1.307,17.599 1.398 M8.183 1.816 C 7.261 2.084,6.499 2.323,6.491 2.348 C 6.476 2.391,7.231 5.058,7.405 5.577 C 7.494 5.843,7.560 5.945,7.560 5.816 C 7.560 5.772,7.605 5.563,7.660 5.351 C 8.004 4.030,8.651 2.809,9.574 1.740 C 9.925 1.334,9.936 1.320,9.896 1.325 C 9.876 1.328,9.105 1.549,8.183 1.816 M2.630 6.330 C 2.098 8.153,1.440 10.468,1.440 10.520 C 1.440 10.574,1.851 10.703,3.590 11.197 C 4.772 11.532,5.761 11.813,5.787 11.821 C 5.860 11.843,5.900 11.769,6.033 11.360 C 6.161 10.971,7.089 7.721,7.137 7.494 C 7.164 7.372,7.159 7.366,6.972 7.306 C 6.494 7.151,2.797 6.120,2.721 6.120 C 2.704 6.120,2.664 6.215,2.630 6.330 M6.964 10.265 C 6.736 11.066,6.560 11.733,6.574 11.747 C 6.613 11.786,8.080 11.352,8.080 11.301 C 8.080 11.276,8.007 11.041,7.919 10.778 C 7.727 10.210,7.545 9.532,7.476 9.128 C 7.449 8.968,7.416 8.830,7.403 8.822 C 7.390 8.814,7.193 9.463,6.964 10.265 M1.503 11.275 C 1.485 11.305,1.758 12.276,2.240 13.900 C 2.661 15.316,2.745 15.566,2.811 15.607 C 2.843 15.627,3.226 15.275,3.940 14.568 C 4.534 13.980,5.222 13.304,5.470 13.066 C 5.983 12.573,5.990 12.542,5.628 12.406 C 5.433 12.334,2.686 11.537,2.080 11.377 C 1.710 11.280,1.521 11.247,1.503 11.275 M21.739 14.844 C 20.635 15.649,19.110 16.312,17.930 16.500 C 17.748 16.529,17.735 16.556,17.804 16.754 C 17.842 16.863,17.861 16.876,17.954 16.854 C 18.457 16.735,22.283 15.650,22.315 15.618 C 22.339 15.594,22.073 14.640,22.043 14.640 C 22.029 14.640,21.893 14.732,21.739 14.844 M12.725 16.490 C 12.556 17.008,11.657 20.200,11.582 20.547 L 11.555 20.675 11.947 20.795 C 12.719 21.032,15.936 21.960,15.983 21.960 C 16.024 21.960,17.174 17.954,17.226 17.631 C 17.247 17.502,17.238 17.477,17.155 17.441 C 16.950 17.352,12.973 16.240,12.859 16.240 C 12.830 16.240,12.770 16.351,12.725 16.490 M11.916 16.327 L 11.772 16.365 11.748 16.753 C 11.721 17.177,11.650 17.424,11.421 17.879 C 11.253 18.211,11.113 18.364,9.142 20.349 C 8.113 21.387,8.035 21.475,8.181 21.436 C 8.614 21.320,10.073 20.899,10.468 20.777 C 10.896 20.645,10.918 20.632,10.954 20.509 C 10.974 20.438,11.117 19.948,11.271 19.420 C 11.544 18.487,12.090 16.551,12.132 16.370 C 12.155 16.271,12.137 16.268,11.916 16.327 M20.940 16.643 C 20.236 16.838,19.264 17.110,18.780 17.249 L 17.901 17.500 17.471 18.980 C 16.895 20.967,16.660 21.833,16.690 21.863 C 16.708 21.882,19.688 21.051,20.840 20.706 L 21.020 20.652 21.291 19.716 C 21.731 18.194,22.242 16.346,22.231 16.317 C 22.225 16.301,21.644 16.448,20.940 16.643 " stroke="none" fill="black" fill-rule="evenodd"></path></svg>