<svg role="img" viewBox="0 0 24 24" xmlns="http://www.w3.org/2000/svg"><path d="M10.940 0.042 C 8.039 0.336,5.506 1.524,3.517 3.523 C 0.090 6.968,-0.931 12.061,0.902 16.566 C 1.896 19.008,3.730 21.091,6.066 22.429 C 8.127 23.609,10.611 24.159,12.980 23.959 C 16.954 23.622,20.446 21.396,22.429 17.934 C 24.605 14.134,24.505 9.337,22.171 5.630 C 20.281 2.628,17.232 0.644,13.700 0.119 C 13.058 0.023,11.539 -0.019,10.940 0.042 M13.520 1.340 C 15.493 1.643,17.219 2.396,18.760 3.625 C 19.196 3.973,20.026 4.803,20.375 5.240 C 21.934 7.194,22.760 9.535,22.760 12.003 C 22.760 14.442,21.977 16.694,20.438 18.680 C 20.094 19.124,19.238 19.994,18.782 20.362 C 18.237 20.801,17.375 21.350,16.745 21.658 C 15.202 22.411,13.708 22.758,12.000 22.759 C 9.154 22.762,6.480 21.659,4.437 19.640 C 2.741 17.963,1.688 15.867,1.334 13.460 C 1.235 12.788,1.235 11.213,1.334 10.540 C 1.837 7.119,3.836 4.220,6.832 2.564 C 7.972 1.933,9.432 1.462,10.680 1.323 C 10.889 1.299,11.114 1.272,11.180 1.263 C 11.461 1.224,13.121 1.278,13.520 1.340 M7.320 11.993 C 7.320 15.125,7.335 17.681,7.352 17.673 C 7.370 17.666,9.192 15.776,11.402 13.474 L 15.420 9.287 15.440 12.754 C 15.459 16.075,15.463 16.225,15.536 16.346 C 15.772 16.736,16.367 16.726,16.590 16.329 L 16.680 16.169 16.680 11.235 L 16.679 6.300 15.867 7.120 C 15.421 7.571,14.369 8.641,13.530 9.497 L 12.005 11.055 10.555 9.577 C 9.757 8.765,8.703 7.695,8.212 7.200 L 7.320 6.300 7.320 11.993 M10.057 10.815 C 10.644 11.428,11.118 11.943,11.112 11.960 C 11.097 12.000,8.600 14.600,8.577 14.600 C 8.568 14.600,8.560 13.399,8.560 11.930 L 8.560 9.261 8.776 9.480 C 8.894 9.601,9.471 10.202,10.057 10.815 " stroke="none" fill="black" fill-rule="evenodd"></path></svg>