<svg role="img" xmlns="http://www.w3.org/2000/svg" viewBox="0 0 24 24"><path d="M7.007 3.024 C 2.070 5.880,1.789 6.037,1.708 5.980 C 1.546 5.866,1.520 5.899,1.520 6.220 C 1.520 6.385,1.532 6.520,1.546 6.520 C 1.561 6.520,1.689 6.455,1.831 6.375 L 2.090 6.231 1.983 6.145 L 1.877 6.060 7.078 3.060 C 9.938 1.410,12.279 0.047,12.279 0.030 C 12.280 0.013,12.267 0.002,12.250 0.004 C 12.233 0.007,9.874 1.365,7.007 3.024 M8.705 3.983 C 3.487 6.996,3.476 7.002,3.368 6.939 C 3.261 6.876,3.251 6.880,2.400 7.373 L 1.540 7.872 1.528 8.156 C 1.521 8.338,1.532 8.440,1.559 8.440 C 1.596 8.440,2.094 8.159,3.496 7.349 C 3.772 7.190,3.772 7.189,3.682 7.122 C 3.581 7.046,2.939 7.427,10.500 3.069 C 12.370 1.991,13.924 1.087,13.954 1.059 C 13.984 1.031,13.991 0.999,13.971 0.987 C 13.950 0.974,11.581 2.322,8.705 3.983 M10.384 4.947 C 5.618 7.698,5.142 7.964,5.060 7.920 C 4.978 7.876,4.808 7.965,3.246 8.866 L 1.522 9.860 1.521 10.130 C 1.520 10.278,1.530 10.400,1.542 10.400 C 1.562 10.400,5.130 8.352,5.353 8.212 C 5.440 8.158,5.442 8.150,5.377 8.103 C 5.294 8.042,4.632 8.436,10.860 4.840 C 13.500 3.316,15.674 2.057,15.692 2.041 C 15.709 2.025,15.700 1.993,15.671 1.969 C 15.631 1.936,14.376 2.643,10.384 4.947 M14.040 4.765 C 12.269 5.795,10.795 6.638,10.765 6.638 C 10.734 6.639,10.649 6.603,10.575 6.557 L 10.441 6.474 9.510 7.012 L 8.580 7.550 8.568 7.747 L 8.556 7.944 7.728 8.422 C 7.129 8.768,6.867 8.898,6.782 8.893 C 6.693 8.888,6.034 9.249,4.092 10.367 L 1.520 11.848 1.520 12.084 C 1.520 12.220,1.538 12.320,1.561 12.320 C 1.584 12.320,1.877 12.160,2.211 11.965 C 2.546 11.770,3.747 11.076,4.880 10.421 C 7.334 9.005,7.145 9.120,7.076 9.078 C 7.047 9.059,7.031 9.036,7.041 9.026 C 7.064 9.004,8.529 8.160,8.545 8.160 C 8.551 8.160,8.561 8.245,8.568 8.350 L 8.580 8.540 9.120 8.850 C 9.417 9.021,9.665 9.174,9.671 9.192 C 9.686 9.239,8.552 9.878,8.460 9.873 C 8.416 9.871,6.841 10.760,4.960 11.849 L 1.540 13.830 1.540 14.035 C 1.540 14.148,1.558 14.241,1.580 14.241 C 1.661 14.245,8.791 10.104,8.777 10.063 C 8.761 10.019,9.911 9.332,9.970 9.350 C 10.032 9.370,11.121 10.012,11.110 10.023 C 11.104 10.029,10.533 10.359,9.840 10.757 C 8.581 11.480,8.580 11.481,8.560 11.628 L 8.540 11.776 5.060 13.787 L 1.580 15.798 1.568 15.999 C 1.561 16.109,1.565 16.200,1.576 16.200 C 1.588 16.200,1.917 16.014,2.309 15.787 C 2.700 15.560,3.614 15.031,4.340 14.611 C 5.066 14.192,6.302 13.478,7.087 13.024 C 7.873 12.571,8.525 12.200,8.537 12.200 C 8.550 12.200,8.560 12.252,8.560 12.315 C 8.560 12.458,8.583 12.477,9.146 12.799 C 9.398 12.942,9.607 13.076,9.612 13.095 C 9.616 13.115,7.807 14.177,5.592 15.455 C 1.822 17.631,1.563 17.787,1.562 17.889 C 1.558 18.136,1.648 18.106,2.642 17.532 C 3.158 17.234,3.976 16.762,4.460 16.482 C 8.541 14.126,9.900 13.347,9.957 13.332 C 9.994 13.323,10.263 13.454,10.555 13.623 C 10.981 13.871,11.075 13.941,11.033 13.980 C 11.004 14.007,10.435 14.338,9.770 14.717 L 8.560 15.406 8.560 15.573 L 8.559 15.740 5.907 17.270 C 4.448 18.112,3.223 18.824,3.185 18.852 C 3.121 18.898,3.127 18.909,3.251 18.968 L 3.388 19.033 5.464 17.834 C 6.606 17.174,7.765 16.503,8.040 16.342 L 8.540 16.049 8.552 16.224 C 8.559 16.321,8.573 16.400,8.584 16.400 C 8.594 16.400,9.366 15.958,10.299 15.419 L 11.996 14.437 12.499 14.729 C 13.078 15.064,13.085 14.996,12.438 15.366 C 12.206 15.499,11.999 15.642,11.978 15.685 C 11.957 15.728,10.382 16.660,8.403 17.801 C 6.458 18.923,4.859 19.848,4.850 19.857 C 4.840 19.866,4.884 19.900,4.946 19.932 C 5.059 19.990,5.094 19.971,8.517 17.994 C 10.418 16.896,11.984 16.014,11.997 16.034 C 12.010 16.054,12.332 15.892,12.713 15.673 C 13.094 15.454,13.419 15.281,13.436 15.288 C 13.452 15.294,13.703 15.435,13.993 15.600 C 14.450 15.860,14.511 15.907,14.453 15.950 C 14.416 15.977,14.010 16.217,13.551 16.483 C 12.839 16.896,12.725 16.975,12.781 17.016 C 12.863 17.076,12.858 17.080,12.373 17.355 C 12.124 17.496,12.001 17.589,11.993 17.644 C 11.983 17.705,11.305 18.115,9.284 19.282 C 7.801 20.138,6.579 20.848,6.569 20.858 C 6.558 20.868,6.594 20.897,6.649 20.922 C 6.738 20.963,6.820 20.925,7.504 20.530 C 7.920 20.289,8.494 19.957,8.780 19.792 C 9.066 19.627,9.901 19.146,10.635 18.721 C 11.669 18.124,11.977 17.963,12.003 18.005 C 12.029 18.047,12.055 18.049,12.109 18.016 C 12.148 17.992,12.436 17.825,12.748 17.645 L 13.316 17.319 13.442 17.395 L 13.567 17.472 14.434 16.972 C 14.910 16.697,15.322 16.454,15.350 16.431 C 15.377 16.409,15.401 16.325,15.402 16.245 L 15.404 16.100 18.942 14.064 L 22.480 12.027 22.480 11.773 L 22.480 11.518 22.370 11.576 C 22.309 11.608,20.721 12.525,18.840 13.614 C 15.786 15.382,15.419 15.585,15.408 15.506 C 15.399 15.440,15.260 15.341,14.842 15.101 C 14.375 14.834,14.297 14.776,14.353 14.738 C 14.390 14.713,16.211 13.662,18.400 12.402 C 20.589 11.141,22.404 10.088,22.432 10.061 C 22.466 10.030,22.480 9.939,22.472 9.806 L 22.460 9.599 18.940 11.632 C 17.004 12.750,15.075 13.864,14.654 14.107 L 13.889 14.550 13.419 14.278 C 13.161 14.129,12.936 13.991,12.918 13.973 C 12.900 13.955,13.447 13.615,14.133 13.218 L 15.380 12.497 15.392 12.318 C 15.404 12.143,15.408 12.138,15.692 11.974 C 15.850 11.883,17.033 11.201,18.320 10.460 C 19.607 9.718,21.069 8.877,21.570 8.590 L 22.480 8.070 22.480 7.875 C 22.480 7.768,22.471 7.680,22.459 7.680 C 22.448 7.680,20.864 8.589,18.940 9.700 C 17.016 10.811,15.432 11.720,15.421 11.720 C 15.409 11.720,15.400 11.668,15.400 11.605 C 15.400 11.499,15.356 11.465,14.860 11.180 C 14.562 11.010,14.311 10.858,14.302 10.843 C 14.292 10.827,14.441 10.724,14.632 10.614 C 14.823 10.504,16.222 9.697,17.740 8.820 C 19.258 7.943,20.941 6.971,21.480 6.661 C 22.507 6.069,22.571 6.014,22.404 5.863 C 22.319 5.786,22.370 5.758,14.798 10.129 L 13.935 10.627 13.433 10.344 C 13.157 10.188,12.926 10.042,12.919 10.020 C 12.913 9.998,13.464 9.656,14.144 9.260 L 15.380 8.539 15.400 8.343 L 15.420 8.146 18.071 6.617 C 19.530 5.776,20.759 5.064,20.804 5.034 C 20.882 4.982,20.880 4.978,20.751 4.909 L 20.618 4.837 18.047 6.320 C 16.634 7.136,15.452 7.813,15.421 7.825 C 15.381 7.840,15.362 7.807,15.353 7.707 L 15.340 7.568 13.680 8.527 C 12.767 9.054,12.009 9.489,11.995 9.493 C 11.968 9.501,10.792 8.833,10.809 8.820 C 10.823 8.809,11.736 8.282,15.760 5.961 C 17.597 4.901,19.115 4.020,19.132 4.003 C 19.150 3.986,19.111 3.949,19.045 3.922 C 18.930 3.874,18.816 3.937,14.803 6.258 C 12.535 7.569,10.654 8.652,10.623 8.664 C 10.570 8.685,9.482 8.087,9.481 8.037 C 9.480 8.024,9.885 7.781,10.379 7.497 C 10.874 7.213,11.279 6.971,11.279 6.959 C 11.280 6.948,11.217 6.904,11.140 6.863 C 11.063 6.821,11.000 6.775,11.000 6.759 C 11.000 6.744,12.448 5.896,14.219 4.875 C 15.989 3.855,17.438 3.009,17.439 2.996 C 17.439 2.983,17.399 2.955,17.350 2.933 C 17.272 2.899,16.839 3.139,14.040 4.765 M12.526 10.810 C 12.807 10.970,13.038 11.109,13.039 11.120 C 13.040 11.148,13.066 11.133,11.714 11.910 L 10.528 12.592 10.000 12.291 C 9.571 12.047,9.483 11.981,9.526 11.941 C 9.556 11.914,9.886 11.715,10.260 11.499 C 10.634 11.284,11.165 10.975,11.440 10.814 C 11.715 10.653,11.957 10.521,11.977 10.521 C 11.998 10.520,12.245 10.650,12.526 10.810 M13.971 11.655 C 14.275 11.829,14.518 11.975,14.511 11.980 C 14.505 11.986,13.929 12.316,13.232 12.714 L 11.964 13.438 11.400 13.113 L 10.836 12.788 11.128 12.618 C 11.289 12.524,11.852 12.195,12.380 11.886 C 12.908 11.577,13.358 11.328,13.380 11.332 C 13.402 11.337,13.668 11.482,13.971 11.655 M17.200 16.480 C 12.564 19.160,12.018 19.486,12.000 19.584 C 11.982 19.680,11.765 19.817,10.131 20.756 C 9.115 21.341,8.282 21.832,8.281 21.846 C 8.275 21.972,8.575 21.821,10.192 20.887 C 11.805 19.956,11.981 19.863,11.992 19.943 L 12.004 20.031 12.194 19.925 C 12.299 19.867,14.647 18.515,17.412 16.920 L 22.440 14.021 22.440 13.750 C 22.440 13.602,22.427 13.481,22.410 13.483 C 22.393 13.484,20.049 14.833,17.200 16.480 M17.210 18.409 C 12.062 21.382,12.000 21.418,12.000 21.541 C 12.000 21.660,11.967 21.684,11.000 22.242 C 10.100 22.763,9.858 22.927,10.073 22.870 C 10.113 22.860,10.555 22.615,11.056 22.326 C 11.557 22.037,11.975 21.800,11.984 21.800 C 11.993 21.800,12.000 21.845,12.000 21.900 C 12.000 21.955,12.008 22.000,12.018 22.000 C 12.027 22.000,13.670 21.058,15.668 19.906 C 17.665 18.754,19.669 17.600,20.120 17.340 C 21.699 16.431,22.380 16.033,22.412 16.003 C 22.429 15.986,22.438 15.844,22.432 15.687 L 22.420 15.401 17.210 18.409 M17.191 20.351 L 12.003 23.340 12.001 23.491 C 12.000 23.622,11.980 23.654,11.858 23.726 C 11.689 23.826,11.701 23.872,11.874 23.783 L 11.995 23.720 12.008 23.857 L 12.020 23.993 14.180 22.746 C 15.368 22.060,17.713 20.708,19.390 19.741 L 22.440 17.983 22.440 17.672 C 22.440 17.500,22.427 17.360,22.410 17.361 C 22.393 17.361,20.045 18.707,17.191 20.351 " stroke="none" fill="black" fill-rule="evenodd"></path></svg>