<svg role="img" viewBox="0 0 24 24" xmlns="http://www.w3.org/2000/svg"><path d="M5.709 0.044 C 5.334 0.132,4.872 0.501,4.692 0.856 C 4.621 0.995,3.951 3.831,2.374 10.656 C -0.053 21.160,0.083 20.493,0.300 20.863 C 0.430 21.086,0.638 21.227,0.916 21.279 C 1.038 21.302,1.780 21.320,2.635 21.319 C 4.010 21.319,4.168 21.312,4.460 21.238 C 5.004 21.101,5.371 20.822,5.585 20.380 C 5.646 20.255,5.892 19.274,6.239 17.771 C 6.546 16.447,6.826 15.304,6.863 15.231 C 7.039 14.883,7.375 14.582,7.750 14.436 C 7.967 14.352,8.061 14.345,9.460 14.318 C 11.011 14.287,11.691 14.233,12.748 14.058 C 15.405 13.617,17.495 12.631,19.022 11.097 C 20.110 10.005,20.768 8.715,21.028 7.166 C 21.116 6.637,21.126 5.230,21.045 4.740 C 20.846 3.538,20.361 2.571,19.609 1.876 C 18.401 0.760,16.716 0.212,13.960 0.041 C 13.154 -0.009,5.923 -0.007,5.709 0.044 M21.400 3.901 C 21.400 3.913,21.443 4.008,21.496 4.113 C 22.109 5.322,22.161 7.522,21.616 9.160 C 21.267 10.206,20.759 11.029,19.941 11.875 C 18.280 13.591,15.933 14.636,12.880 15.016 C 12.010 15.124,11.337 15.167,10.020 15.195 L 8.740 15.223 8.502 15.342 C 8.192 15.496,7.863 15.819,7.742 16.088 C 7.690 16.205,7.401 17.370,7.099 18.680 C 6.738 20.245,6.515 21.133,6.447 21.273 C 6.325 21.525,5.971 21.868,5.702 21.995 C 5.400 22.137,5.170 22.160,4.060 22.160 L 3.011 22.160 2.925 22.562 C 2.878 22.782,2.840 23.021,2.840 23.092 C 2.841 23.428,3.025 23.726,3.336 23.892 C 3.496 23.978,3.540 23.980,5.159 23.992 C 6.928 24.004,7.189 23.986,7.542 23.824 C 7.805 23.704,8.150 23.369,8.272 23.118 C 8.320 23.018,8.611 21.848,8.919 20.518 C 9.227 19.188,9.519 18.012,9.568 17.905 C 9.687 17.648,10.015 17.325,10.306 17.181 L 10.540 17.064 12.080 17.016 C 12.927 16.989,13.899 16.938,14.240 16.903 C 17.042 16.610,19.226 15.827,20.908 14.511 C 21.430 14.103,22.184 13.326,22.529 12.839 C 23.520 11.445,23.982 9.607,23.798 7.794 C 23.659 6.425,23.215 5.440,22.369 4.624 C 22.022 4.290,21.400 3.825,21.400 3.901 M12.229 3.960 C 14.031 4.083,15.003 4.715,15.202 5.892 C 15.303 6.488,15.180 7.413,14.925 7.975 C 14.611 8.667,13.988 9.287,13.220 9.671 C 12.330 10.116,10.995 10.348,9.520 10.313 C 8.980 10.301,8.879 10.288,8.740 10.213 C 8.412 10.038,8.240 9.756,8.240 9.398 C 8.240 9.104,9.174 5.078,9.305 4.809 C 9.499 4.408,9.965 4.049,10.402 3.964 C 10.649 3.915,11.548 3.914,12.229 3.960 " stroke="none" fill="black" fill-rule="evenodd"></path></svg>