<svg role="img" viewBox="0 0 24 24" xmlns="http://www.w3.org/2000/svg"><path d="M10.720 5.721 C 6.681 5.971,3.218 7.218,1.366 9.090 C 0.729 9.734,0.359 10.328,0.135 11.065 C 0.038 11.381,0.026 11.484,0.026 12.000 C 0.026 12.517,0.038 12.619,0.135 12.938 C 0.357 13.667,0.700 14.220,1.337 14.874 C 2.999 16.581,5.965 17.773,9.560 18.179 C 12.028 18.458,14.837 18.281,17.126 17.703 C 19.567 17.087,21.440 16.130,22.663 14.874 C 23.300 14.220,23.643 13.667,23.865 12.938 C 23.962 12.619,23.974 12.517,23.974 12.000 C 23.974 11.483,23.962 11.381,23.865 11.062 C 23.643 10.333,23.300 9.780,22.663 9.126 C 21.978 8.423,21.216 7.897,20.100 7.356 C 18.380 6.524,16.365 6.000,14.040 5.781 C 13.226 5.704,11.498 5.673,10.720 5.721 M11.960 7.590 C 11.960 7.629,11.897 7.984,11.820 8.380 C 11.743 8.776,11.680 9.120,11.680 9.145 C 11.680 9.176,11.955 9.196,12.590 9.210 C 13.620 9.232,13.939 9.285,14.284 9.492 C 14.426 9.578,14.537 9.685,14.619 9.817 C 14.735 10.006,14.740 10.032,14.739 10.457 C 14.738 10.891,14.672 11.274,14.197 13.630 L 14.154 13.840 13.454 13.840 C 12.807 13.840,12.756 13.835,12.776 13.770 C 12.851 13.518,13.323 10.939,13.325 10.765 C 13.329 10.509,13.240 10.364,13.036 10.292 C 12.951 10.262,12.629 10.244,12.178 10.242 L 11.456 10.240 11.144 11.857 C 10.972 12.746,10.814 13.556,10.793 13.657 L 10.754 13.840 10.072 13.840 L 9.391 13.840 9.408 13.750 C 9.418 13.700,9.694 12.278,10.022 10.590 L 10.619 7.520 11.290 7.520 C 11.902 7.520,11.960 7.526,11.960 7.590 M8.333 9.293 C 9.321 9.578,9.775 10.285,9.639 11.327 C 9.542 12.073,9.335 12.503,8.820 13.027 C 8.517 13.335,8.404 13.421,8.119 13.556 C 7.639 13.785,7.271 13.840,6.218 13.840 L 5.367 13.840 5.327 14.030 C 5.305 14.135,5.229 14.513,5.158 14.870 L 5.029 15.520 4.336 15.520 C 3.799 15.520,3.646 15.509,3.660 15.470 C 3.669 15.443,3.940 14.061,4.262 12.400 C 4.583 10.739,4.856 9.338,4.868 9.287 L 4.890 9.194 6.495 9.210 C 7.846 9.223,8.137 9.237,8.333 9.293 M19.076 9.295 C 19.824 9.491,20.297 9.993,20.397 10.696 C 20.471 11.223,20.318 11.970,20.030 12.480 C 19.962 12.601,19.752 12.855,19.563 13.044 C 19.287 13.321,19.154 13.420,18.880 13.554 C 18.404 13.786,18.043 13.840,16.977 13.840 C 16.201 13.840,16.124 13.846,16.104 13.910 C 16.093 13.948,16.017 14.327,15.937 14.750 L 15.790 15.520 15.099 15.520 C 14.461 15.520,14.409 15.515,14.424 15.450 C 14.433 15.412,14.701 14.030,15.020 12.380 C 15.340 10.730,15.610 9.338,15.622 9.287 L 15.643 9.194 17.232 9.211 C 18.550 9.225,18.864 9.239,19.076 9.295 M6.061 10.250 C 6.052 10.277,5.944 10.822,5.821 11.460 C 5.699 12.098,5.588 12.670,5.576 12.730 L 5.554 12.840 6.179 12.840 C 6.899 12.840,7.254 12.777,7.534 12.600 C 7.875 12.383,8.108 11.945,8.201 11.345 C 8.300 10.702,8.104 10.380,7.540 10.261 C 7.178 10.184,6.085 10.176,6.061 10.250 M16.822 10.246 C 16.801 10.304,16.320 12.765,16.320 12.812 C 16.320 12.827,16.604 12.840,16.950 12.839 C 18.050 12.838,18.439 12.673,18.739 12.081 C 18.949 11.668,19.047 10.919,18.922 10.680 C 18.825 10.494,18.664 10.358,18.462 10.294 C 18.182 10.204,16.850 10.165,16.822 10.246 " stroke="none" fill="black" fill-rule="evenodd"></path></svg>