<svg role="img" viewBox="0 0 24 24" xmlns="http://www.w3.org/2000/svg"><path d="M10.940 0.046 C 6.260 0.450,2.189 3.634,0.659 8.086 C -0.838 12.440,0.267 17.227,3.520 20.480 C 6.777 23.737,11.546 24.836,15.924 23.337 C 19.350 22.165,22.136 19.391,23.321 15.974 C 25.279 10.329,22.855 4.165,17.580 1.376 C 15.589 0.323,13.221 -0.152,10.940 0.046 M10.143 4.323 L 10.260 4.445 10.260 12.000 L 10.260 19.555 10.143 19.677 L 10.025 19.800 8.469 19.800 L 6.914 19.800 6.797 19.683 L 6.680 19.566 6.680 12.000 L 6.680 4.434 6.797 4.317 L 6.914 4.200 8.469 4.200 L 10.025 4.200 10.143 4.323 M15.963 6.582 C 18.172 7.892,20.047 9.008,20.129 9.062 C 20.314 9.184,20.413 9.369,20.410 9.589 C 20.405 9.930,20.438 9.906,17.813 11.468 C 14.330 13.540,12.204 14.796,12.023 14.888 C 11.741 15.033,11.407 14.933,11.259 14.660 C 11.202 14.555,11.196 14.388,11.207 13.340 L 11.220 12.140 11.333 11.925 C 11.662 11.300,12.353 10.863,13.780 10.379 C 14.595 10.103,14.648 10.077,14.765 9.913 C 14.888 9.740,14.895 9.412,14.778 9.256 C 14.634 9.064,14.518 9.006,13.740 8.736 C 12.252 8.221,11.657 7.850,11.333 7.234 L 11.220 7.020 11.208 5.812 C 11.197 4.766,11.204 4.588,11.260 4.480 C 11.349 4.308,11.542 4.200,11.763 4.200 C 11.934 4.200,12.221 4.363,15.963 6.582 " stroke="none" fill="black" fill-rule="evenodd"></path></svg>