<svg role="img" viewBox="0 0 24 24" xmlns="http://www.w3.org/2000/svg"><path d="M12.676 0.060 C 12.236 0.143,11.740 0.334,11.355 0.567 C 11.053 0.751,10.593 1.196,6.627 5.155 C 1.950 9.825,1.950 9.824,1.674 10.481 C 1.188 11.637,1.282 12.941,1.927 14.005 C 2.111 14.307,2.556 14.767,6.515 18.733 C 11.170 23.396,11.174 23.399,11.825 23.676 C 12.387 23.915,12.718 23.979,13.380 23.976 C 14.042 23.972,14.334 23.915,14.884 23.681 C 15.477 23.429,15.731 23.214,17.310 21.632 L 18.800 20.140 17.440 18.780 L 16.080 17.420 14.720 18.780 L 13.360 20.140 9.290 16.070 L 5.220 12.000 9.290 7.930 L 13.360 3.860 16.070 6.570 L 18.780 9.280 16.070 11.990 L 13.360 14.700 14.720 16.060 L 16.080 17.420 18.923 14.580 C 22.002 11.504,22.096 11.398,22.360 10.713 C 22.571 10.166,22.616 9.914,22.616 9.280 C 22.616 8.641,22.568 8.373,22.357 7.845 C 22.079 7.149,22.095 7.167,18.884 3.948 C 17.243 2.302,15.782 0.867,15.638 0.760 C 15.300 0.508,14.706 0.223,14.300 0.118 C 13.875 0.009,13.091 -0.019,12.676 0.060 " stroke="none" fill="black" fill-rule="evenodd"></path></svg>