<svg role="img" viewBox="0 0 24 24" xmlns="http://www.w3.org/2000/svg"><path d="M-0.000 10.257 L 0.000 10.520 1.597 10.520 L 3.194 10.520 3.314 10.621 C 3.380 10.677,3.456 10.787,3.482 10.866 C 3.545 11.058,3.511 11.379,3.416 11.486 C 3.256 11.666,3.149 11.680,1.966 11.680 C 0.762 11.680,0.643 11.696,0.376 11.900 C 0.305 11.955,0.195 12.103,0.133 12.230 C 0.023 12.455,0.020 12.478,0.007 13.231 L -0.006 14.003 0.407 13.991 L 0.820 13.980 0.840 13.238 C 0.863 12.396,0.888 12.315,1.150 12.242 C 1.237 12.218,1.754 12.200,2.383 12.200 C 3.632 12.200,3.786 12.174,4.037 11.923 C 4.233 11.727,4.320 11.468,4.320 11.083 C 4.319 10.570,4.083 10.217,3.644 10.074 C 3.546 10.041,2.945 10.021,1.750 10.010 L -0.000 9.994 -0.000 10.257 M6.648 10.045 C 6.282 10.105,6.055 10.276,5.905 10.600 C 5.828 10.767,5.821 10.868,5.808 11.960 C 5.794 13.030,5.786 13.151,5.717 13.263 C 5.594 13.464,5.513 13.480,4.598 13.480 L 3.760 13.480 3.760 13.744 L 3.760 14.009 4.830 13.993 C 5.884 13.978,5.903 13.977,6.124 13.874 C 6.613 13.647,6.678 13.419,6.679 11.933 C 6.680 11.357,6.697 10.841,6.718 10.786 C 6.738 10.732,6.796 10.650,6.845 10.604 C 6.931 10.524,6.977 10.520,7.808 10.520 L 8.680 10.520 8.680 10.260 L 8.680 10.000 7.770 10.005 C 7.270 10.007,6.765 10.025,6.648 10.045 M9.080 10.032 C 9.080 10.091,10.961 13.611,11.069 13.754 C 11.196 13.922,11.409 14.015,11.598 13.986 C 11.873 13.943,12.028 13.707,13.030 11.812 C 13.542 10.844,13.960 10.041,13.960 10.026 C 13.960 10.012,13.836 10.000,13.685 10.000 L 13.409 10.000 12.659 11.410 C 12.246 12.185,11.881 12.861,11.849 12.910 C 11.786 13.007,11.626 13.031,11.572 12.952 C 11.555 12.925,11.189 12.254,10.760 11.462 L 9.980 10.020 9.530 10.009 C 9.283 10.002,9.080 10.013,9.080 10.032 M15.880 10.240 L 15.880 10.480 16.660 10.480 L 17.440 10.480 17.440 12.220 L 17.440 13.960 17.860 13.960 L 18.280 13.960 18.280 12.220 L 18.280 10.480 19.060 10.480 L 19.840 10.480 19.840 10.240 L 19.840 10.000 17.860 10.000 L 15.880 10.000 15.880 10.240 M21.340 10.047 C 21.193 10.128,21.036 10.298,20.921 10.500 C 20.747 10.807,19.080 13.959,19.080 13.981 C 19.080 13.991,19.205 14.000,19.357 14.000 L 19.634 14.000 19.859 13.580 L 20.084 13.160 21.353 13.160 L 22.622 13.160 22.844 13.570 L 23.066 13.980 23.535 13.991 C 23.974 14.002,24.002 13.998,23.966 13.931 C 22.537 11.242,22.017 10.282,21.947 10.205 C 21.784 10.027,21.507 9.954,21.340 10.047 M14.520 12.021 L 14.520 14.003 14.930 13.991 L 15.340 13.980 15.350 12.010 L 15.361 10.040 14.940 10.040 L 14.520 10.040 14.520 12.021 M21.450 11.050 C 21.520 11.104,22.320 12.560,22.320 12.634 C 22.320 12.667,22.047 12.680,21.340 12.680 C 20.801 12.680,20.360 12.674,20.360 12.667 C 20.360 12.628,21.175 11.130,21.228 11.071 C 21.304 10.987,21.361 10.982,21.450 11.050 " stroke="none" fill="black" fill-rule="evenodd"></path></svg>