<svg role="img" xmlns="http://www.w3.org/2000/svg" viewBox="0 0 24 24"><path d="M6.120 10.700 L 6.120 14.360 6.480 14.360 L 6.840 14.360 6.840 10.700 L 6.840 7.040 6.480 7.040 L 6.120 7.040 6.120 10.700 M19.760 10.700 L 19.760 14.360 20.119 14.360 L 20.479 14.360 20.489 13.016 L 20.500 11.671 21.720 13.012 L 22.940 14.354 23.458 14.357 L 23.977 14.360 23.814 14.190 C 23.160 13.509,21.440 11.664,21.440 11.643 C 21.440 11.630,22.005 11.070,22.696 10.399 C 23.387 9.729,23.954 9.166,23.956 9.150 C 23.958 9.133,23.749 9.120,23.490 9.120 L 23.020 9.120 21.750 10.390 L 20.480 11.660 20.480 9.350 L 20.480 7.040 20.120 7.040 L 19.760 7.040 19.760 10.700 M15.840 9.101 C 15.476 9.202,15.216 9.351,15.009 9.578 C 14.749 9.862,14.664 10.127,14.688 10.574 C 14.710 10.971,14.792 11.146,15.078 11.414 C 15.328 11.649,15.608 11.778,16.340 12.000 C 17.123 12.237,17.340 12.354,17.510 12.633 C 17.617 12.808,17.632 13.143,17.540 13.320 C 17.392 13.606,17.021 13.760,16.477 13.760 C 15.911 13.760,15.435 13.566,15.103 13.198 L 14.963 13.043 14.678 13.291 L 14.394 13.540 14.654 13.783 C 15.112 14.211,15.641 14.406,16.360 14.413 C 17.115 14.420,17.657 14.224,18.031 13.810 C 18.280 13.533,18.370 13.262,18.352 12.840 C 18.335 12.434,18.262 12.260,17.996 11.993 C 17.756 11.752,17.413 11.584,16.622 11.318 C 15.984 11.104,15.692 10.951,15.550 10.757 C 15.358 10.494,15.445 10.037,15.721 9.855 C 15.939 9.711,16.363 9.650,16.723 9.712 C 17.092 9.776,17.323 9.890,17.599 10.146 L 17.829 10.358 18.074 10.136 C 18.209 10.013,18.320 9.889,18.320 9.860 C 18.320 9.798,18.011 9.515,17.780 9.367 C 17.439 9.148,17.141 9.071,16.580 9.055 C 16.199 9.044,16.001 9.057,15.840 9.101 M0.800 9.162 C 0.569 9.204,0.299 9.263,0.200 9.294 L 0.020 9.349 0.010 13.154 L -0.000 16.960 0.360 16.960 L 0.720 16.960 0.720 15.620 C 0.720 14.883,0.732 14.280,0.747 14.280 C 0.762 14.280,0.928 14.309,1.117 14.345 C 1.536 14.424,2.375 14.401,2.740 14.300 C 3.627 14.057,4.311 13.382,4.543 12.520 C 4.639 12.164,4.642 11.394,4.548 11.040 C 4.350 10.292,3.879 9.715,3.200 9.388 C 2.982 9.283,2.688 9.178,2.512 9.142 C 2.092 9.057,1.331 9.066,0.800 9.162 M10.066 9.143 C 9.260 9.338,8.658 9.952,8.420 10.820 C 8.319 11.188,8.296 12.029,8.376 12.420 C 8.454 12.801,8.685 13.300,8.917 13.589 C 9.136 13.861,9.610 14.176,9.973 14.290 C 10.219 14.367,10.348 14.380,10.880 14.380 C 11.429 14.380,11.534 14.369,11.798 14.282 C 12.098 14.184,12.578 13.895,12.755 13.705 L 12.850 13.604 12.629 13.373 L 12.407 13.143 12.228 13.309 C 11.881 13.629,11.458 13.774,10.880 13.773 C 9.832 13.770,9.192 13.148,9.066 12.010 L 9.048 11.840 11.024 11.840 L 13.000 11.840 13.000 11.689 C 13.000 11.456,12.926 10.920,12.858 10.658 C 12.650 9.861,12.083 9.298,11.325 9.138 C 10.990 9.067,10.371 9.069,10.066 9.143 M11.063 9.724 C 11.734 9.848,12.178 10.326,12.230 10.984 L 12.251 11.240 10.665 11.240 C 9.380 11.240,9.080 11.230,9.080 11.187 C 9.080 11.087,9.209 10.699,9.308 10.505 C 9.628 9.872,10.284 9.580,11.063 9.724 M2.515 9.795 C 3.387 10.067,3.849 10.830,3.787 11.896 C 3.754 12.477,3.622 12.842,3.328 13.168 C 2.809 13.745,1.928 13.925,0.950 13.653 L 0.719 13.589 0.730 11.725 L 0.740 9.860 1.000 9.793 C 1.380 9.694,2.195 9.696,2.515 9.795 M4.240 16.640 L 4.240 17.001 6.450 16.990 L 8.660 16.980 8.660 16.640 L 8.660 16.300 6.450 16.290 L 4.240 16.279 4.240 16.640 " stroke="none" fill="black" fill-rule="evenodd"></path></svg>