<svg role="img" viewBox="0 0 24 24" xmlns="http://www.w3.org/2000/svg"><path d="M1.666 1.343 C 1.094 1.482,0.540 1.913,0.268 2.431 C -0.017 2.973,-0.007 2.774,0.012 7.417 C 0.023 10.122,0.044 11.741,0.074 12.040 C 0.388 15.191,1.969 18.053,4.520 20.087 C 6.763 21.876,9.549 22.802,12.400 22.707 C 13.289 22.677,14.009 22.575,14.843 22.362 C 17.130 21.777,18.867 20.786,20.522 19.125 C 21.226 18.418,21.541 18.038,22.020 17.320 C 23.084 15.724,23.680 14.104,23.925 12.140 C 23.954 11.903,23.976 10.311,23.988 7.491 C 24.006 3.259,24.005 3.197,23.923 2.875 C 23.878 2.696,23.793 2.466,23.733 2.364 C 23.559 2.065,23.182 1.701,22.883 1.544 C 22.343 1.261,23.187 1.281,12.000 1.284 C 3.428 1.286,1.865 1.295,1.666 1.343 M7.083 7.589 C 7.303 7.697,7.652 8.014,9.500 9.782 C 10.688 10.919,11.743 11.929,11.844 12.027 L 12.028 12.205 14.024 10.296 C 15.122 9.246,16.178 8.236,16.372 8.051 C 16.618 7.815,16.804 7.676,16.992 7.587 C 17.240 7.469,17.291 7.460,17.680 7.460 C 18.068 7.460,18.120 7.470,18.360 7.584 C 18.741 7.767,18.971 7.990,19.149 8.351 C 19.295 8.646,19.300 8.671,19.300 9.078 C 19.300 9.480,19.294 9.513,19.160 9.779 C 19.015 10.069,18.627 10.452,13.852 15.021 C 12.839 15.991,12.689 16.085,12.121 16.113 C 11.712 16.132,11.432 16.065,11.157 15.883 C 10.991 15.773,5.894 10.921,5.276 10.285 C 4.969 9.969,4.813 9.676,4.756 9.309 C 4.636 8.538,5.134 7.743,5.891 7.496 C 5.999 7.461,6.199 7.445,6.443 7.452 C 6.781 7.461,6.857 7.477,7.083 7.589 " stroke="none" fill="black" fill-rule="evenodd"></path></svg>