<svg role="img" viewBox="0 0 24 24" xmlns="http://www.w3.org/2000/svg"><path d="M1.720 1.592 L 1.720 3.184 3.840 4.417 C 5.006 5.095,5.960 5.657,5.960 5.665 C 5.960 5.673,5.803 5.758,5.610 5.855 C 4.653 6.337,3.719 7.111,3.103 7.932 C 2.522 8.706,2.110 9.653,1.901 10.691 C 1.706 11.666,1.708 11.594,1.691 17.992 L 1.676 24.005 1.772 23.952 C 1.825 23.924,2.437 23.567,3.134 23.161 L 4.400 22.421 4.400 19.931 C 4.400 18.561,4.406 17.440,4.414 17.440 C 4.422 17.440,4.578 17.541,4.762 17.664 C 6.045 18.523,7.712 18.978,9.084 18.844 C 10.270 18.729,11.283 18.378,12.760 17.569 C 12.903 17.491,14.784 16.401,16.940 15.147 C 19.096 13.893,21.173 12.685,21.556 12.463 C 21.939 12.242,22.252 12.042,22.251 12.021 C 22.251 11.988,19.942 10.611,19.660 10.475 C 19.592 10.442,19.227 10.641,17.446 11.678 C 16.273 12.361,15.309 12.920,15.304 12.920 C 15.299 12.920,15.311 12.780,15.331 12.610 C 15.350 12.440,15.355 12.084,15.341 11.820 C 15.218 9.446,14.301 7.743,12.377 6.316 C 11.765 5.861,11.156 5.496,6.520 2.801 C 4.089 1.387,2.014 0.179,1.910 0.116 L 1.720 0.001 1.720 1.592 M9.200 7.962 C 10.687 8.200,11.934 9.266,12.412 10.708 C 12.908 12.202,12.532 13.801,11.425 14.903 C 11.047 15.279,10.722 15.508,10.256 15.726 C 9.065 16.284,7.547 16.193,6.453 15.498 C 5.514 14.902,4.921 14.084,4.613 12.960 C 4.504 12.560,4.514 11.413,4.630 10.993 C 5.011 9.619,6.005 8.545,7.285 8.124 C 7.870 7.931,8.615 7.869,9.200 7.962 " stroke="none" fill="black" fill-rule="evenodd"></path></svg>