<svg role="img" viewBox="0 0 24 24" xmlns="http://www.w3.org/2000/svg"><path d="M10.920 0.023 C 10.821 0.031,10.461 0.058,10.120 0.082 C 7.678 0.255,5.145 0.802,3.048 1.609 L 2.636 1.768 2.659 2.694 C 2.672 3.203,2.700 4.628,2.721 5.860 C 2.839 12.695,2.859 13.266,3.020 14.134 C 3.303 15.669,4.015 17.350,5.022 18.860 C 5.992 20.315,7.419 21.706,8.831 22.574 C 9.558 23.020,11.076 23.728,11.714 23.918 L 12.007 24.006 12.291 23.919 C 12.692 23.798,13.592 23.407,14.320 23.038 C 15.035 22.676,15.721 22.238,16.320 21.760 C 16.874 21.317,17.978 20.206,18.386 19.680 C 19.652 18.047,20.621 16.008,20.955 14.276 C 21.135 13.342,21.149 13.002,21.258 6.980 C 21.290 5.154,21.328 3.235,21.341 2.714 L 21.365 1.769 21.033 1.640 C 18.942 0.833,16.700 0.331,14.140 0.098 C 13.505 0.041,11.322 -0.010,10.920 0.023 M14.100 0.460 C 16.455 0.680,18.628 1.163,20.504 1.886 L 20.909 2.042 20.934 2.311 C 20.948 2.459,20.960 2.978,20.960 3.464 L 20.960 4.348 20.390 4.133 C 18.391 3.379,16.445 2.964,13.720 2.713 C 12.903 2.637,10.972 2.648,10.060 2.733 C 7.577 2.965,5.427 3.439,3.464 4.186 C 3.269 4.261,3.098 4.311,3.084 4.298 C 3.049 4.263,2.999 2.105,3.032 2.075 C 3.078 2.032,3.980 1.702,4.586 1.505 C 6.356 0.930,8.469 0.545,10.653 0.401 C 11.390 0.352,13.288 0.385,14.100 0.460 M11.395 0.597 C 11.098 0.638,11.080 0.669,11.080 1.139 C 11.080 1.715,11.047 1.695,11.994 1.720 C 12.714 1.739,12.740 1.743,12.752 1.824 C 12.763 1.901,12.739 1.910,12.456 1.934 C 12.287 1.948,11.916 1.960,11.633 1.960 C 11.255 1.960,11.113 1.973,11.102 2.010 C 11.094 2.038,11.076 2.136,11.063 2.230 L 11.039 2.400 12.057 2.400 L 13.074 2.400 13.157 2.295 C 13.227 2.205,13.240 2.133,13.240 1.821 C 13.240 1.291,13.264 1.305,12.326 1.280 L 11.580 1.260 11.567 1.148 L 11.554 1.037 12.355 1.048 C 13.253 1.061,13.198 1.080,13.199 0.756 L 13.200 0.612 12.594 0.586 C 11.913 0.557,11.664 0.559,11.395 0.597 M9.300 0.740 C 8.882 0.791,8.535 0.834,8.530 0.836 C 8.524 0.838,8.520 1.245,8.520 1.740 L 8.520 2.640 8.635 2.640 C 8.698 2.640,8.805 2.629,8.873 2.615 C 8.995 2.591,8.997 2.586,9.008 2.325 L 9.020 2.060 9.420 2.014 C 9.640 1.988,9.870 1.966,9.932 1.964 C 10.074 1.959,10.225 2.117,10.283 2.330 C 10.319 2.465,10.338 2.485,10.413 2.465 C 10.461 2.452,10.568 2.441,10.650 2.441 C 10.779 2.440,10.800 2.427,10.799 2.350 C 10.798 2.244,10.662 1.930,10.575 1.835 C 10.521 1.775,10.523 1.740,10.597 1.500 C 10.643 1.352,10.680 1.154,10.680 1.059 C 10.680 0.907,10.662 0.873,10.524 0.763 C 10.337 0.615,10.332 0.615,9.300 0.740 M13.677 0.797 L 13.560 0.914 13.560 1.554 L 13.560 2.194 13.780 2.277 C 14.117 2.403,14.571 2.514,15.100 2.601 C 15.764 2.710,15.720 2.720,15.720 2.464 C 15.720 2.206,15.799 2.236,14.820 2.119 C 14.424 2.072,14.098 2.030,14.095 2.026 C 14.092 2.023,14.077 1.818,14.062 1.570 L 14.033 1.120 14.207 1.121 C 14.302 1.121,14.631 1.157,14.939 1.201 C 15.246 1.244,15.558 1.280,15.631 1.280 L 15.764 1.280 15.752 1.091 C 15.738 0.868,15.782 0.884,14.848 0.761 C 13.979 0.646,13.823 0.651,13.677 0.797 M7.620 0.965 C 6.871 1.101,6.180 1.263,6.109 1.320 C 6.036 1.380,6.021 1.462,5.977 2.044 C 5.950 2.405,5.932 2.705,5.938 2.711 C 5.944 2.717,6.082 2.751,6.244 2.787 C 6.788 2.905,7.752 2.849,8.025 2.683 L 8.143 2.611 8.189 1.916 L 8.235 1.220 8.089 1.070 C 7.935 0.911,7.929 0.909,7.620 0.965 M15.920 1.148 C 15.920 1.280,15.908 1.685,15.894 2.049 L 15.868 2.711 15.994 2.735 C 16.063 2.749,16.174 2.770,16.240 2.783 L 16.360 2.806 16.360 2.462 C 16.360 2.127,16.362 2.119,16.450 2.138 C 16.500 2.148,16.693 2.186,16.880 2.221 C 17.067 2.257,17.288 2.303,17.370 2.324 L 17.520 2.363 17.520 2.679 L 17.520 2.996 17.740 3.065 C 17.860 3.103,17.973 3.121,17.990 3.104 C 18.006 3.087,18.026 2.680,18.034 2.199 L 18.048 1.325 17.874 1.280 C 17.778 1.255,17.668 1.226,17.630 1.215 C 17.569 1.197,17.560 1.225,17.560 1.432 C 17.560 1.563,17.549 1.723,17.536 1.788 L 17.513 1.906 17.186 1.836 C 17.007 1.798,16.757 1.746,16.630 1.721 L 16.400 1.674 16.400 1.340 C 16.400 1.155,16.382 0.994,16.361 0.981 C 16.339 0.967,16.231 0.946,16.121 0.933 L 15.920 0.909 15.920 1.148 M10.121 1.223 C 10.142 1.279,10.160 1.338,10.160 1.353 C 10.160 1.368,9.921 1.433,9.630 1.497 C 9.338 1.561,9.069 1.622,9.030 1.632 C 8.970 1.647,8.960 1.620,8.960 1.445 C 8.960 1.332,8.965 1.238,8.970 1.236 C 8.992 1.227,9.867 1.130,9.971 1.125 C 10.056 1.121,10.091 1.144,10.121 1.223 M7.575 1.470 C 7.619 1.623,7.685 2.169,7.665 2.220 C 7.629 2.316,6.520 2.633,6.520 2.548 C 6.520 2.500,6.437 1.895,6.419 1.814 C 6.403 1.739,6.437 1.715,6.690 1.623 C 6.922 1.539,7.369 1.422,7.527 1.403 C 7.542 1.401,7.564 1.431,7.575 1.470 M18.352 2.197 C 18.348 2.639,18.344 3.050,18.343 3.110 C 18.340 3.210,18.361 3.226,18.580 3.291 C 18.712 3.330,19.202 3.488,19.668 3.641 C 20.135 3.795,20.526 3.920,20.538 3.920 C 20.550 3.920,20.560 3.823,20.560 3.704 L 20.560 3.488 20.070 3.308 C 19.800 3.209,19.436 3.087,19.260 3.037 C 19.084 2.987,18.918 2.929,18.890 2.908 C 18.821 2.856,18.827 2.720,18.899 2.720 C 18.945 2.720,20.292 3.146,20.509 3.229 C 20.547 3.243,20.560 3.186,20.560 3.008 L 20.560 2.767 20.230 2.641 C 20.049 2.571,19.675 2.447,19.400 2.364 C 18.933 2.223,18.899 2.206,18.887 2.107 C 18.880 2.048,18.887 2.000,18.901 2.000 C 18.964 2.000,19.804 2.257,20.151 2.383 C 20.359 2.458,20.537 2.520,20.547 2.520 C 20.556 2.520,20.559 2.427,20.552 2.312 L 20.540 2.105 19.980 1.910 C 19.672 1.802,19.213 1.652,18.960 1.576 C 18.707 1.500,18.468 1.428,18.430 1.416 C 18.365 1.396,18.359 1.453,18.352 2.197 M4.880 1.613 C 4.649 1.684,4.213 1.829,3.910 1.936 L 3.360 2.129 3.360 3.047 L 3.360 3.965 3.450 3.937 C 3.499 3.922,3.621 3.878,3.720 3.840 L 3.900 3.770 3.912 3.475 L 3.924 3.180 4.703 2.942 C 5.132 2.810,5.501 2.692,5.522 2.679 C 5.544 2.665,5.600 2.449,5.647 2.199 L 5.732 1.744 5.579 1.612 C 5.495 1.539,5.398 1.481,5.363 1.482 C 5.329 1.483,5.111 1.542,4.880 1.613 M5.192 2.147 C 5.199 2.243,5.183 2.323,5.152 2.348 C 5.094 2.394,4.008 2.760,3.930 2.760 C 3.897 2.760,3.880 2.698,3.880 2.581 C 3.880 2.444,3.898 2.393,3.960 2.360 C 4.093 2.289,5.097 1.960,5.140 1.974 C 5.162 1.981,5.185 2.058,5.192 2.147 M11.760 5.260 L 11.760 7.560 10.270 7.560 L 8.780 7.560 8.954 7.444 C 9.050 7.380,9.226 7.298,9.344 7.260 C 9.463 7.223,9.560 7.181,9.560 7.166 C 9.559 7.114,9.296 6.965,9.125 6.920 C 8.719 6.813,8.214 7.063,8.033 7.460 C 7.999 7.533,7.949 7.554,7.752 7.575 C 7.620 7.588,7.496 7.590,7.476 7.578 C 7.429 7.549,7.541 7.286,7.652 7.165 C 7.749 7.060,8.099 6.881,8.210 6.880 C 8.320 6.880,8.293 6.814,8.145 6.723 C 7.847 6.539,7.305 6.671,7.040 6.993 C 6.924 7.134,6.831 7.341,6.782 7.568 C 6.765 7.651,6.725 7.686,6.610 7.718 C 6.464 7.759,6.240 7.775,6.240 7.745 C 6.240 7.737,6.268 7.651,6.302 7.555 C 6.387 7.312,6.538 7.106,6.727 6.975 C 6.874 6.873,6.881 6.860,6.816 6.812 C 6.638 6.682,6.141 6.821,5.912 7.065 C 5.761 7.227,5.640 7.521,5.607 7.806 L 5.580 8.050 5.394 8.123 L 5.208 8.196 5.183 8.099 C 5.128 7.877,5.298 7.446,5.505 7.283 L 5.604 7.205 5.518 7.159 C 5.399 7.095,5.118 7.143,4.954 7.253 C 4.694 7.428,4.561 7.751,4.559 8.212 C 4.559 8.326,4.545 8.441,4.529 8.467 C 4.486 8.535,4.280 8.609,4.280 8.557 C 4.280 8.535,4.236 8.472,4.182 8.418 C 4.110 8.346,4.040 8.320,3.920 8.320 C 3.642 8.320,3.477 8.571,3.602 8.804 C 3.637 8.869,3.620 8.904,3.502 9.016 C 3.385 9.126,3.360 9.178,3.360 9.310 C 3.360 9.447,3.376 9.477,3.470 9.515 C 3.689 9.605,3.846 9.635,3.932 9.603 C 3.996 9.579,4.053 9.593,4.140 9.655 C 4.218 9.710,4.321 9.740,4.433 9.740 C 4.576 9.740,4.625 9.719,4.708 9.623 C 4.805 9.509,4.816 9.404,4.754 9.165 C 4.735 9.089,5.204 8.838,5.744 8.635 C 6.551 8.331,7.671 8.145,8.121 8.240 L 8.350 8.289 8.375 8.530 C 8.389 8.663,8.400 8.877,8.400 9.006 C 8.400 9.229,8.392 9.247,8.237 9.387 C 8.148 9.468,8.039 9.603,7.997 9.687 C 7.914 9.848,7.888 9.860,7.506 9.901 C 7.275 9.926,7.273 9.926,7.302 9.833 C 7.357 9.656,7.587 9.339,7.794 9.153 L 8.002 8.966 7.781 8.920 C 7.214 8.802,6.722 9.232,6.651 9.909 L 6.629 10.117 6.426 10.177 C 6.314 10.209,6.215 10.228,6.205 10.218 C 6.195 10.208,6.188 10.110,6.191 10.001 C 6.197 9.736,6.311 9.493,6.515 9.309 C 6.608 9.225,6.672 9.140,6.659 9.119 C 6.620 9.055,6.311 9.077,6.137 9.156 C 5.913 9.258,5.689 9.499,5.635 9.696 C 5.611 9.786,5.599 9.998,5.609 10.166 L 5.626 10.471 5.478 10.516 C 5.262 10.581,5.251 10.576,5.225 10.390 C 5.193 10.166,5.246 9.955,5.395 9.716 L 5.516 9.521 5.416 9.495 C 5.166 9.433,4.854 9.574,4.679 9.830 C 4.522 10.059,4.532 10.512,4.702 10.900 C 4.712 10.922,4.683 10.964,4.637 10.993 C 4.561 11.040,4.541 11.031,4.425 10.897 C 4.314 10.768,4.274 10.749,4.121 10.749 C 3.980 10.749,3.927 10.770,3.853 10.857 C 3.750 10.976,3.731 11.173,3.806 11.338 C 3.847 11.428,3.840 11.448,3.743 11.525 C 3.593 11.643,3.547 11.780,3.602 11.946 C 3.687 12.205,3.905 12.265,4.215 12.114 L 4.392 12.028 4.501 12.114 C 4.619 12.207,4.738 12.222,4.891 12.163 C 4.968 12.134,4.997 12.081,5.033 11.903 C 5.063 11.749,5.065 11.646,5.037 11.573 C 4.989 11.445,4.966 11.462,5.540 11.180 C 6.358 10.779,7.118 10.572,7.930 10.531 L 8.400 10.508 8.400 11.494 L 8.400 12.480 5.806 12.480 L 3.212 12.480 3.186 11.470 C 3.172 10.915,3.142 9.497,3.121 8.320 C 3.099 7.143,3.072 5.835,3.060 5.413 L 3.039 4.646 3.449 4.488 C 5.315 3.769,7.330 3.307,9.580 3.081 C 10.485 2.991,10.677 2.978,11.310 2.968 L 11.760 2.960 11.760 5.260 M14.420 3.080 C 16.198 3.263,17.814 3.582,19.240 4.032 C 19.878 4.233,20.842 4.586,20.892 4.636 C 20.914 4.658,20.940 4.766,20.951 4.878 L 20.970 5.080 16.525 5.080 L 12.080 5.080 12.080 4.014 L 12.080 2.947 12.850 2.972 C 13.273 2.986,13.980 3.034,14.420 3.080 M8.333 3.834 C 7.932 3.973,7.722 4.225,7.561 4.760 L 7.496 4.979 7.198 5.050 C 6.760 5.154,6.748 5.148,6.839 4.881 C 6.913 4.665,7.109 4.438,7.420 4.210 C 7.563 4.105,7.524 4.062,7.253 4.021 C 6.921 3.971,6.452 4.182,6.244 4.474 C 6.127 4.639,6.055 4.855,6.021 5.148 L 5.993 5.394 5.686 5.494 C 5.518 5.549,5.349 5.606,5.310 5.621 C 5.250 5.645,5.240 5.624,5.240 5.474 C 5.241 5.204,5.392 4.932,5.677 4.684 C 5.961 4.439,5.951 4.402,5.603 4.401 C 5.317 4.400,5.091 4.512,4.861 4.768 C 4.631 5.023,4.548 5.288,4.566 5.712 C 4.578 6.011,4.576 6.021,4.473 6.070 C 4.376 6.117,4.357 6.111,4.242 5.995 C 4.128 5.882,4.099 5.872,3.929 5.891 C 3.673 5.920,3.500 6.104,3.534 6.312 C 3.553 6.429,3.537 6.475,3.439 6.588 C 3.283 6.765,3.274 6.998,3.418 7.142 C 3.536 7.260,3.688 7.268,3.886 7.167 C 4.024 7.097,4.032 7.097,4.119 7.167 C 4.175 7.212,4.274 7.240,4.382 7.240 C 4.523 7.240,4.580 7.215,4.696 7.106 C 4.828 6.982,4.835 6.963,4.799 6.836 C 4.730 6.595,4.740 6.581,5.110 6.410 C 6.219 5.899,7.479 5.584,8.620 5.534 C 9.341 5.502,9.794 5.619,10.236 5.951 C 10.366 6.049,10.374 6.050,10.426 5.979 C 10.456 5.938,10.480 5.828,10.480 5.734 C 10.480 5.598,10.453 5.532,10.352 5.417 C 10.207 5.252,9.978 5.096,9.823 5.057 C 9.661 5.017,9.664 4.972,9.836 4.858 C 9.963 4.774,10.060 4.748,10.317 4.731 C 10.690 4.705,10.711 4.674,10.501 4.463 C 10.175 4.138,9.415 4.250,9.094 4.670 C 9.025 4.761,8.961 4.856,8.953 4.881 C 8.944 4.907,8.800 4.936,8.609 4.949 C 8.230 4.975,8.221 4.964,8.365 4.659 C 8.462 4.451,8.637 4.302,8.994 4.123 C 9.240 3.999,9.246 3.993,9.178 3.918 C 9.031 3.755,8.667 3.719,8.333 3.834 M20.920 6.335 C 20.920 6.871,20.909 7.366,20.895 7.435 L 20.870 7.560 16.475 7.560 L 12.080 7.560 12.080 6.487 C 12.080 5.896,12.092 5.401,12.107 5.387 C 12.121 5.372,14.110 5.360,16.527 5.360 L 20.920 5.360 20.920 6.335 M15.359 10.470 C 15.359 13.489,15.361 13.457,15.060 14.059 C 14.720 14.741,14.204 15.243,13.500 15.579 C 12.929 15.851,12.710 15.899,12.040 15.899 C 11.557 15.899,11.408 15.884,11.148 15.809 C 10.021 15.484,9.158 14.666,8.794 13.580 L 8.701 13.300 8.689 10.550 L 8.677 7.800 12.018 7.800 L 15.360 7.800 15.359 10.470 M20.879 8.750 C 20.879 9.229,20.868 9.660,20.855 9.710 L 20.831 9.800 18.255 9.800 L 15.680 9.800 15.680 8.840 L 15.680 7.880 18.280 7.880 L 20.880 7.880 20.879 8.750 M8.840 10.514 C 8.840 12.946,8.844 13.082,8.921 13.384 C 9.069 13.963,9.317 14.400,9.728 14.804 C 10.720 15.781,12.169 16.040,13.396 15.458 C 14.191 15.082,14.777 14.444,15.073 13.632 L 15.180 13.340 15.191 10.650 L 15.203 7.960 12.021 7.960 L 8.840 7.960 8.840 10.514 M9.712 8.328 C 9.777 8.393,9.773 8.480,9.704 8.480 C 9.623 8.480,9.595 8.589,9.659 8.654 C 9.707 8.702,9.687 8.725,9.515 8.819 C 9.405 8.879,9.306 8.919,9.296 8.909 C 9.286 8.899,9.316 8.794,9.363 8.675 C 9.410 8.557,9.464 8.420,9.483 8.370 C 9.521 8.272,9.635 8.251,9.712 8.328 M10.226 8.353 C 10.180 8.404,10.159 8.505,10.156 8.683 L 10.151 8.940 10.114 8.760 C 10.094 8.661,10.069 8.540,10.058 8.490 C 10.047 8.441,10.012 8.400,9.979 8.400 C 9.947 8.400,9.920 8.373,9.920 8.340 C 9.920 8.295,9.967 8.280,10.106 8.280 C 10.284 8.280,10.289 8.283,10.226 8.353 M10.520 8.342 C 10.520 8.377,10.502 8.393,10.479 8.380 C 10.457 8.366,10.449 8.338,10.462 8.317 C 10.496 8.262,10.520 8.272,10.520 8.342 M11.466 8.353 C 11.422 8.402,11.399 8.504,11.396 8.663 L 11.391 8.900 11.346 8.667 C 11.317 8.522,11.274 8.419,11.230 8.395 C 11.107 8.327,11.154 8.280,11.346 8.280 C 11.524 8.280,11.529 8.283,11.466 8.353 M12.026 8.353 C 11.982 8.402,11.959 8.504,11.956 8.663 L 11.951 8.900 11.906 8.667 C 11.877 8.522,11.834 8.419,11.790 8.395 C 11.667 8.327,11.714 8.280,11.906 8.280 C 12.084 8.280,12.089 8.283,12.026 8.353 M12.638 8.590 C 12.639 8.617,12.610 8.640,12.574 8.640 C 12.513 8.640,12.513 8.646,12.575 8.715 C 12.640 8.786,12.636 8.790,12.499 8.812 C 12.297 8.845,12.240 8.813,12.243 8.666 C 12.247 8.487,12.290 8.399,12.402 8.339 C 12.493 8.289,12.505 8.294,12.568 8.413 C 12.606 8.483,12.637 8.563,12.638 8.590 M13.452 8.688 L 13.595 9.036 13.495 8.998 C 13.317 8.931,13.128 8.951,13.100 9.040 C 13.086 9.084,13.061 9.120,13.043 9.120 C 13.008 9.120,13.162 8.409,13.215 8.327 C 13.262 8.252,13.288 8.291,13.452 8.688 M14.037 8.482 C 14.061 8.593,14.080 8.705,14.080 8.730 C 14.080 8.755,14.128 8.844,14.186 8.929 C 14.326 9.131,14.266 9.181,14.113 8.990 C 13.984 8.830,13.883 8.796,13.875 8.910 C 13.868 9.023,13.768 8.594,13.764 8.430 C 13.760 8.290,13.768 8.280,13.877 8.280 C 13.984 8.280,13.997 8.295,14.037 8.482 M14.768 8.328 C 14.740 8.356,14.718 8.502,14.716 8.678 C 14.712 8.988,14.696 8.966,14.623 8.550 C 14.606 8.457,14.574 8.400,14.538 8.400 C 14.506 8.400,14.480 8.373,14.480 8.340 C 14.480 8.296,14.525 8.280,14.648 8.280 C 14.779 8.280,14.805 8.291,14.768 8.328 M11.014 8.909 C 10.982 9.037,10.951 9.024,10.809 8.826 L 10.684 8.653 10.790 8.497 L 10.896 8.341 10.966 8.580 C 11.005 8.711,11.027 8.859,11.014 8.909 M13.206 8.635 C 13.140 8.857,13.146 8.880,13.280 8.880 C 13.346 8.880,13.400 8.870,13.400 8.858 C 13.400 8.782,13.305 8.480,13.282 8.480 C 13.266 8.480,13.232 8.550,13.206 8.635 M13.840 8.600 C 13.840 8.692,13.858 8.720,13.917 8.720 C 13.985 8.720,13.988 8.707,13.948 8.600 C 13.923 8.534,13.888 8.480,13.871 8.480 C 13.854 8.480,13.840 8.534,13.840 8.600 M12.830 8.690 C 12.805 8.766,12.680 8.776,12.680 8.703 C 12.680 8.666,12.714 8.640,12.763 8.640 C 12.812 8.640,12.840 8.661,12.830 8.690 M12.141 9.438 C 12.117 9.477,12.500 9.719,12.587 9.720 C 12.613 9.720,12.685 9.739,12.747 9.763 L 12.860 9.806 12.730 9.861 C 12.549 9.938,12.565 10.028,12.800 10.260 C 13.044 10.501,13.060 10.580,12.856 10.542 L 12.712 10.515 12.816 10.651 C 12.873 10.726,12.920 10.827,12.920 10.875 L 12.920 10.962 12.762 10.881 C 12.674 10.836,12.596 10.800,12.587 10.800 C 12.577 10.800,12.607 10.874,12.652 10.965 C 12.723 11.110,12.728 11.151,12.687 11.295 C 12.582 11.663,12.549 11.835,12.573 11.896 C 12.594 11.951,12.670 11.960,13.069 11.957 C 13.572 11.954,13.701 11.983,13.893 12.145 L 14.015 12.248 14.050 12.155 C 14.114 11.982,14.042 11.635,13.895 11.409 C 13.764 11.207,13.760 11.190,13.806 11.036 L 13.855 10.874 13.919 10.998 L 13.983 11.122 14.031 10.943 C 14.067 10.808,14.116 10.739,14.229 10.662 C 14.311 10.606,14.395 10.560,14.416 10.560 C 14.437 10.560,14.487 10.530,14.527 10.494 C 14.655 10.378,14.609 10.511,14.438 10.754 C 14.293 10.959,14.280 10.996,14.319 11.096 C 14.354 11.188,14.372 11.200,14.419 11.161 C 14.451 11.134,14.490 11.074,14.506 11.026 C 14.533 10.942,14.535 10.942,14.561 11.040 C 14.589 11.147,14.514 11.342,14.433 11.369 C 14.406 11.378,14.464 11.417,14.561 11.456 L 14.737 11.526 14.578 11.665 L 14.420 11.803 14.610 11.791 C 14.715 11.785,14.800 11.789,14.800 11.800 C 14.800 11.811,14.764 11.874,14.720 11.940 C 14.616 12.097,14.619 12.135,14.741 12.200 C 14.879 12.274,14.795 12.324,14.550 12.313 C 14.392 12.306,14.341 12.323,14.249 12.412 C 14.187 12.471,14.115 12.599,14.089 12.697 C 14.063 12.795,13.988 12.937,13.922 13.011 L 13.803 13.147 13.869 13.527 L 13.935 13.908 13.772 14.104 C 13.682 14.212,13.572 14.373,13.527 14.463 C 13.470 14.578,13.399 14.647,13.282 14.699 C 13.171 14.749,13.090 14.825,13.029 14.936 C 12.974 15.036,12.905 15.105,12.853 15.112 C 12.772 15.124,12.770 15.116,12.809 14.961 C 12.838 14.845,12.907 14.747,13.050 14.619 C 13.159 14.520,13.312 14.358,13.388 14.258 L 13.527 14.076 13.357 13.856 C 13.073 13.487,12.957 13.451,12.945 13.727 C 12.940 13.845,12.909 13.879,12.679 14.027 C 12.537 14.118,12.373 14.230,12.316 14.275 C 12.259 14.319,12.138 14.386,12.046 14.422 C 11.953 14.460,11.880 14.515,11.880 14.550 C 11.880 14.625,11.765 14.717,11.670 14.719 C 11.589 14.720,11.584 14.663,11.652 14.514 C 11.720 14.364,11.911 14.218,12.119 14.156 C 12.352 14.086,12.640 13.814,12.640 13.665 C 12.640 13.606,12.604 13.486,12.560 13.400 C 12.516 13.314,12.480 13.179,12.480 13.102 C 12.480 12.974,12.469 12.960,12.370 12.958 C 11.944 12.949,11.628 12.885,11.439 12.767 C 11.249 12.649,11.235 12.646,11.102 12.702 C 10.923 12.777,10.746 12.775,10.484 12.698 C 10.332 12.652,10.260 12.647,10.222 12.678 C 10.159 12.730,10.161 13.045,10.225 13.124 C 10.304 13.223,10.394 13.598,10.364 13.709 C 10.339 13.801,10.321 13.774,10.210 13.477 C 10.035 13.005,9.952 12.699,9.967 12.573 C 9.979 12.473,10.003 12.460,10.292 12.397 C 10.464 12.359,10.612 12.321,10.621 12.313 C 10.629 12.304,10.553 12.235,10.450 12.159 C 10.327 12.067,10.253 11.977,10.231 11.892 C 10.188 11.720,10.161 11.711,9.941 11.786 C 9.780 11.841,9.742 11.875,9.678 12.024 C 9.637 12.120,9.584 12.270,9.561 12.357 C 9.491 12.617,9.320 12.739,9.320 12.530 C 9.319 12.399,9.718 11.587,9.877 11.396 L 9.989 11.262 10.208 11.431 C 10.329 11.524,10.445 11.600,10.466 11.600 C 10.487 11.600,10.536 11.530,10.573 11.444 C 10.611 11.358,10.715 11.219,10.803 11.134 C 10.930 11.013,11.080 10.777,11.080 10.699 C 11.080 10.663,10.945 10.647,10.870 10.675 C 10.663 10.751,10.562 10.763,10.583 10.707 C 10.594 10.677,10.576 10.630,10.542 10.602 C 10.445 10.521,10.466 10.468,10.658 10.308 C 10.780 10.206,10.876 10.159,10.968 10.157 C 11.040 10.155,11.078 10.145,11.050 10.134 C 11.023 10.122,11.000 10.072,11.000 10.021 C 11.000 9.947,11.028 9.924,11.140 9.903 C 11.341 9.865,11.670 9.705,11.798 9.582 C 11.889 9.495,11.969 9.454,12.152 9.403 C 12.159 9.402,12.154 9.417,12.141 9.438 M11.640 10.000 C 11.605 10.022,11.604 10.038,11.636 10.058 C 11.747 10.126,11.815 10.356,11.839 10.740 L 11.864 11.140 11.956 10.945 C 12.081 10.680,12.065 10.255,11.925 10.106 C 11.822 9.995,11.713 9.955,11.640 10.000 M20.840 10.510 C 20.840 10.725,20.828 11.238,20.814 11.650 L 20.787 12.400 18.234 12.400 L 15.680 12.400 15.680 11.260 L 15.680 10.120 18.260 10.120 L 20.840 10.120 20.840 10.510 M20.777 12.930 C 20.656 14.346,20.358 15.468,19.760 16.756 C 19.016 18.358,18.201 19.523,17.014 20.681 C 16.129 21.543,15.483 22.031,14.540 22.550 C 13.785 22.966,12.334 23.600,12.137 23.600 C 12.087 23.600,12.081 23.106,12.090 19.910 L 12.100 16.220 12.234 16.207 C 12.312 16.200,12.395 16.219,12.434 16.254 C 12.512 16.325,13.199 16.464,13.292 16.429 C 13.332 16.413,13.375 16.312,13.407 16.159 C 13.452 15.937,13.470 15.908,13.593 15.857 C 13.668 15.826,13.839 15.733,13.975 15.651 C 14.373 15.407,15.947 14.965,16.716 14.880 C 17.635 14.779,18.521 15.050,19.139 15.621 C 19.344 15.810,19.367 15.822,19.404 15.753 C 19.426 15.712,19.454 15.592,19.466 15.488 C 19.493 15.262,19.426 15.078,19.240 14.867 C 19.128 14.738,19.118 14.711,19.165 14.653 C 19.237 14.567,19.595 14.401,19.710 14.400 C 19.823 14.400,19.825 14.322,19.713 14.181 C 19.453 13.850,18.807 13.894,18.480 14.266 L 18.357 14.406 18.129 14.329 L 17.900 14.251 18.120 14.030 C 18.272 13.878,18.405 13.787,18.550 13.735 C 18.666 13.695,18.760 13.646,18.760 13.627 C 18.760 13.538,18.502 13.362,18.308 13.318 C 17.857 13.217,17.418 13.494,17.209 14.010 C 17.150 14.154,17.141 14.160,16.954 14.160 C 16.792 14.160,16.760 14.148,16.760 14.086 C 16.760 13.987,16.961 13.714,17.138 13.574 C 17.216 13.511,17.280 13.446,17.280 13.428 C 17.280 13.366,17.001 13.280,16.800 13.280 C 16.369 13.280,16.041 13.597,15.845 14.202 C 15.801 14.338,15.788 14.346,15.500 14.406 C 15.335 14.441,15.200 14.466,15.200 14.462 C 15.200 14.458,15.263 14.328,15.339 14.173 C 15.494 13.859,15.625 13.360,15.662 12.950 L 15.686 12.680 18.243 12.680 L 20.799 12.680 20.777 12.930 M8.416 13.055 C 8.468 13.636,8.704 14.257,9.043 14.708 C 9.130 14.823,9.200 14.926,9.200 14.938 C 9.200 14.950,7.932 14.960,6.382 14.960 L 3.564 14.960 3.521 14.810 C 3.398 14.370,3.307 13.808,3.224 12.970 L 3.204 12.760 5.796 12.760 L 8.389 12.760 8.416 13.055 M9.767 15.420 C 10.262 15.793,10.872 16.058,11.471 16.158 L 11.760 16.207 11.760 16.804 L 11.760 17.400 8.147 17.400 L 4.535 17.400 4.463 17.250 C 4.161 16.623,3.640 15.336,3.640 15.216 C 3.640 15.207,4.953 15.200,6.557 15.200 L 9.475 15.200 9.767 15.420 M15.660 15.729 C 15.465 15.799,15.213 15.989,15.122 16.136 C 15.027 16.291,14.938 16.572,14.899 16.845 C 14.874 17.017,14.862 17.033,14.715 17.077 C 14.629 17.103,14.541 17.113,14.519 17.099 C 14.405 17.029,14.531 16.509,14.719 16.275 L 14.842 16.122 14.739 16.096 C 14.425 16.017,14.032 16.203,13.848 16.517 C 13.750 16.683,13.740 16.736,13.743 17.084 L 13.747 17.467 13.583 17.554 C 13.391 17.655,13.360 17.659,13.360 17.583 C 13.360 17.476,13.159 17.283,13.020 17.257 C 12.843 17.224,12.621 17.300,12.521 17.428 C 12.423 17.553,12.415 17.786,12.504 17.914 C 12.564 18.000,12.563 18.012,12.484 18.095 C 12.362 18.226,12.370 18.478,12.501 18.634 C 12.650 18.811,12.830 18.859,13.034 18.778 C 13.191 18.715,13.202 18.716,13.303 18.795 C 13.621 19.045,14.057 18.839,13.983 18.473 C 13.918 18.149,13.916 18.152,14.240 17.990 C 14.989 17.613,16.035 17.392,16.687 17.472 C 17.149 17.529,17.418 17.654,17.736 17.959 C 17.874 18.091,17.998 18.200,18.012 18.200 C 18.061 18.200,18.160 17.964,18.159 17.852 C 18.158 17.705,18.032 17.432,17.873 17.231 C 17.713 17.029,17.736 16.986,18.108 16.798 L 18.390 16.655 18.311 16.546 C 18.136 16.306,17.726 16.236,17.460 16.400 C 17.327 16.482,17.142 16.674,17.114 16.759 C 17.105 16.786,17.029 16.792,16.909 16.775 C 16.738 16.752,16.721 16.740,16.744 16.664 C 16.790 16.513,16.969 16.311,17.167 16.188 L 17.362 16.067 17.273 15.973 C 17.165 15.857,16.935 15.792,16.755 15.825 C 16.401 15.890,16.129 16.165,16.005 16.587 C 15.938 16.812,15.931 16.820,15.788 16.832 C 15.649 16.844,15.640 16.838,15.640 16.730 C 15.640 16.534,15.832 16.214,16.089 15.981 L 16.331 15.762 16.223 15.721 C 16.087 15.669,15.817 15.673,15.660 15.729 M11.760 18.780 L 11.760 19.880 8.983 19.880 L 6.205 19.880 5.968 19.590 C 5.599 19.137,4.720 17.806,4.720 17.699 C 4.720 17.688,6.304 17.680,8.240 17.680 L 11.760 17.680 11.760 18.780 M14.469 18.963 C 14.300 19.053,14.108 19.295,14.037 19.509 C 14.009 19.594,14.000 19.745,14.014 19.880 C 14.036 20.098,14.033 20.110,13.932 20.156 C 13.810 20.212,13.777 20.180,13.736 19.968 C 13.713 19.851,13.742 19.738,13.875 19.424 C 13.903 19.358,13.566 19.430,13.446 19.515 C 13.317 19.608,13.200 19.857,13.200 20.040 C 13.200 20.106,13.234 20.250,13.276 20.360 C 13.352 20.559,13.352 20.562,13.275 20.603 C 13.212 20.636,13.173 20.624,13.075 20.542 C 12.919 20.411,12.849 20.413,12.646 20.560 C 12.435 20.713,12.419 20.871,12.598 21.038 L 12.717 21.149 12.618 21.242 C 12.507 21.347,12.484 21.576,12.573 21.698 C 12.658 21.814,13.045 21.768,13.195 21.625 C 13.296 21.528,13.313 21.523,13.361 21.581 C 13.462 21.703,13.550 21.725,13.696 21.664 C 14.003 21.536,14.077 21.338,13.898 21.125 L 13.796 21.004 13.968 20.876 C 14.063 20.807,14.269 20.689,14.427 20.615 C 15.190 20.257,15.949 20.283,16.448 20.682 C 16.529 20.747,16.614 20.800,16.636 20.800 C 16.702 20.800,16.760 20.658,16.760 20.499 C 16.760 20.385,16.729 20.321,16.621 20.213 C 16.488 20.080,16.484 20.068,16.539 19.963 C 16.613 19.819,16.854 19.608,16.981 19.576 C 17.093 19.548,17.095 19.543,17.040 19.441 C 16.975 19.319,16.674 19.226,16.452 19.259 C 16.287 19.283,16.228 19.319,16.028 19.524 C 15.836 19.720,15.780 19.756,15.699 19.736 C 15.608 19.713,15.606 19.705,15.658 19.606 C 15.739 19.450,15.927 19.284,16.141 19.181 L 16.330 19.090 16.247 19.007 C 16.133 18.893,15.912 18.860,15.650 18.919 C 15.358 18.984,15.108 19.210,14.953 19.550 C 14.858 19.759,14.823 19.800,14.740 19.800 C 14.652 19.800,14.640 19.783,14.640 19.654 C 14.640 19.511,14.809 19.189,14.942 19.078 C 15.024 19.011,15.015 18.980,14.898 18.926 C 14.755 18.861,14.644 18.871,14.469 18.963 M11.760 21.860 C 11.760 22.843,11.745 23.560,11.724 23.560 C 11.664 23.560,10.836 23.219,10.354 22.996 C 8.975 22.358,8.053 21.724,7.000 20.692 L 6.460 20.162 9.110 20.161 L 11.760 20.160 11.760 21.860 " stroke="none" fill="black" fill-rule="evenodd"></path></svg>