<svg role="img" viewBox="0 0 24 24" xmlns="http://www.w3.org/2000/svg"><path d="M16.280 0.039 C 15.805 0.086,15.214 0.190,14.718 0.314 C 14.320 0.414,14.277 0.417,13.978 0.371 C 13.803 0.344,13.390 0.305,13.060 0.284 C 11.822 0.207,10.877 0.370,9.937 0.825 L 9.574 1.000 9.337 0.918 C 8.935 0.780,8.246 0.607,7.680 0.504 C 5.160 0.046,3.133 0.487,1.871 1.767 C 0.916 2.737,0.400 4.268,0.400 6.134 C 0.400 8.090,1.531 12.595,2.632 15.028 C 3.298 16.499,4.078 17.421,4.948 17.764 C 5.141 17.840,5.257 17.856,5.640 17.857 C 6.164 17.859,6.360 17.801,6.800 17.517 L 7.048 17.357 7.221 17.516 C 7.643 17.906,8.403 18.154,9.285 18.189 C 9.925 18.215,10.356 18.162,10.806 18.003 L 11.120 17.891 11.120 18.016 C 11.122 18.388,11.206 19.994,11.242 20.320 C 11.331 21.132,11.581 22.020,11.889 22.613 C 12.122 23.062,12.548 23.491,12.960 23.690 C 13.446 23.924,13.701 23.977,14.340 23.975 C 14.839 23.973,14.952 23.959,15.373 23.846 C 16.401 23.571,17.063 23.186,17.559 22.574 C 18.273 21.691,18.635 20.444,18.759 18.440 C 18.783 18.055,18.813 17.625,18.825 17.485 L 18.848 17.229 19.097 17.252 C 19.466 17.287,20.319 17.211,20.810 17.101 C 21.976 16.839,23.123 16.102,23.520 15.360 C 23.643 15.130,23.659 15.065,23.659 14.800 C 23.660 14.287,23.410 13.888,22.944 13.660 C 22.665 13.523,22.406 13.518,21.859 13.637 C 21.520 13.710,20.726 13.806,20.688 13.778 C 20.682 13.774,20.801 13.547,20.953 13.275 C 22.060 11.296,22.889 9.128,23.299 7.147 C 23.514 6.105,23.540 5.856,23.540 4.860 C 23.539 4.025,23.531 3.911,23.449 3.628 C 23.331 3.217,23.169 2.904,22.915 2.594 C 21.809 1.238,20.279 0.380,18.469 0.100 C 17.988 0.025,16.765 -0.009,16.280 0.039 M17.992 0.683 C 19.431 0.843,20.653 1.355,21.636 2.211 C 22.003 2.529,22.440 3.029,22.584 3.295 C 23.017 4.089,22.964 5.726,22.440 7.745 C 21.885 9.887,21.015 11.859,19.632 14.110 L 19.552 14.241 19.697 14.302 C 20.113 14.475,20.866 14.467,21.903 14.277 C 22.476 14.172,22.637 14.189,22.824 14.376 C 23.002 14.554,23.034 14.745,22.922 14.975 C 22.689 15.457,21.822 16.058,20.990 16.314 C 20.350 16.511,19.384 16.603,18.789 16.524 C 18.596 16.498,18.416 16.468,18.389 16.458 C 18.353 16.444,18.305 16.737,18.208 17.577 C 18.016 19.219,17.813 20.603,17.699 21.040 C 17.414 22.130,16.809 22.769,15.718 23.131 C 15.035 23.358,14.243 23.435,13.758 23.321 C 13.020 23.147,12.482 22.678,12.113 21.886 C 11.921 21.474,11.854 21.191,11.779 20.480 C 11.722 19.946,11.642 17.983,11.640 17.127 L 11.640 16.715 11.470 16.853 C 11.207 17.067,10.816 17.265,10.420 17.383 C 9.767 17.578,8.690 17.516,8.080 17.248 C 7.473 16.981,7.245 16.517,7.547 16.159 C 7.705 15.971,7.986 15.851,8.631 15.697 C 9.438 15.504,9.576 15.435,9.875 15.074 C 10.009 14.912,10.119 14.770,10.119 14.759 C 10.120 14.747,9.962 14.705,9.769 14.666 C 9.577 14.627,9.311 14.550,9.179 14.495 C 9.048 14.439,8.911 14.385,8.876 14.374 C 8.789 14.347,8.245 14.925,7.182 16.177 C 6.526 16.949,6.160 17.179,5.593 17.177 C 4.872 17.174,4.107 16.458,3.444 15.164 C 2.556 13.430,1.510 9.845,1.136 7.259 C 1.045 6.625,1.045 5.461,1.136 4.873 C 1.328 3.641,1.679 2.881,2.381 2.180 C 2.827 1.735,3.168 1.516,3.769 1.290 C 4.460 1.031,4.784 0.983,5.860 0.983 C 6.675 0.983,6.899 0.997,7.340 1.073 C 7.994 1.186,8.555 1.323,9.180 1.523 L 9.669 1.680 10.050 1.479 C 10.680 1.147,11.234 0.989,11.994 0.922 C 12.518 0.876,13.276 0.922,13.860 1.034 L 14.239 1.107 14.714 0.977 C 15.781 0.685,17.013 0.574,17.992 0.683 M16.420 1.346 C 16.354 1.354,16.096 1.389,15.846 1.425 L 15.392 1.490 15.746 1.677 C 16.930 2.303,17.886 3.178,18.643 4.328 C 18.936 4.774,19.315 5.520,19.482 5.980 C 19.607 6.324,19.613 6.363,19.605 6.860 C 19.601 7.146,19.561 7.632,19.517 7.940 C 19.385 8.860,19.378 9.240,19.480 10.140 C 19.551 10.774,19.565 11.073,19.549 11.580 C 19.525 12.303,19.461 12.593,19.201 13.148 C 19.069 13.428,19.055 13.483,19.105 13.524 C 19.179 13.586,19.189 13.573,19.622 12.820 C 20.825 10.730,21.736 8.288,22.086 6.220 C 22.153 5.822,22.175 5.527,22.177 4.960 C 22.182 3.826,22.106 3.620,21.446 2.962 C 20.559 2.077,19.514 1.568,18.200 1.381 C 17.823 1.328,16.758 1.307,16.420 1.346 M11.820 1.604 C 10.175 1.799,8.966 2.868,8.324 4.694 C 8.163 5.152,8.022 5.717,7.943 6.225 C 7.865 6.725,7.861 6.937,7.930 6.907 C 7.958 6.895,8.124 6.822,8.300 6.745 C 8.874 6.493,9.287 6.392,9.827 6.370 C 10.415 6.347,10.749 6.427,11.073 6.671 C 11.491 6.985,11.681 7.336,11.821 8.054 C 11.974 8.835,12.016 9.257,12.015 9.980 C 12.014 11.005,11.884 11.604,11.436 12.646 C 11.300 12.962,11.121 13.427,11.038 13.680 L 10.887 14.140 11.137 14.166 C 11.603 14.215,11.997 14.494,12.195 14.917 L 12.300 15.140 12.326 17.200 C 12.352 19.301,12.396 20.204,12.505 20.880 C 12.631 21.667,13.113 22.386,13.660 22.602 C 13.865 22.683,13.967 22.697,14.360 22.695 C 15.400 22.690,16.396 22.232,16.774 21.586 C 16.938 21.307,17.076 20.840,17.182 20.208 C 17.303 19.480,17.620 16.962,17.679 16.260 C 17.760 15.282,17.794 15.045,17.879 14.852 C 17.995 14.590,18.215 14.371,18.491 14.243 L 18.723 14.136 18.529 13.878 C 18.217 13.463,18.091 13.267,17.936 12.954 C 17.855 12.792,17.600 12.311,17.368 11.885 C 16.377 10.061,16.012 8.990,16.047 8.004 C 16.062 7.585,16.076 7.512,16.190 7.270 C 16.526 6.550,17.230 6.219,18.359 6.248 C 18.705 6.257,18.840 6.247,18.840 6.214 C 18.840 6.188,18.776 6.017,18.698 5.834 C 18.161 4.576,17.161 3.364,16.060 2.633 C 14.839 1.822,13.242 1.435,11.820 1.604 M5.320 1.645 C 3.316 1.785,2.176 2.817,1.817 4.820 C 1.763 5.119,1.745 5.427,1.744 6.040 C 1.744 6.756,1.758 6.942,1.854 7.500 C 2.331 10.258,3.177 13.120,3.996 14.737 C 4.701 16.131,5.327 16.698,5.885 16.450 C 6.133 16.340,6.273 16.211,6.719 15.681 C 6.935 15.425,7.367 14.932,7.679 14.585 L 8.247 13.955 8.053 13.748 C 7.252 12.892,6.927 11.789,7.126 10.600 C 7.160 10.394,7.177 9.732,7.180 8.480 C 7.184 6.961,7.196 6.590,7.253 6.240 C 7.522 4.604,8.042 3.352,8.829 2.450 L 9.046 2.200 8.939 2.160 C 8.711 2.073,8.118 1.920,7.640 1.825 C 6.776 1.653,6.037 1.595,5.320 1.645 M17.560 6.974 C 17.269 7.055,17.086 7.160,16.943 7.327 C 16.765 7.535,16.698 7.784,16.708 8.200 C 16.727 8.997,17.158 10.119,18.096 11.815 C 18.256 12.104,18.436 12.448,18.496 12.580 L 18.606 12.820 18.665 12.709 C 18.697 12.647,18.762 12.458,18.808 12.289 C 18.918 11.881,18.923 11.077,18.819 10.300 C 18.716 9.526,18.721 8.745,18.835 7.917 C 18.885 7.552,18.920 7.183,18.913 7.097 L 18.900 6.940 18.320 6.932 C 17.954 6.927,17.674 6.943,17.560 6.974 M9.620 7.040 C 9.273 7.089,8.751 7.264,8.360 7.461 C 7.802 7.744,7.860 7.574,7.860 8.927 C 7.860 9.825,7.842 10.250,7.784 10.742 C 7.714 11.338,7.713 11.411,7.770 11.742 C 7.803 11.939,7.869 12.201,7.916 12.323 C 8.113 12.842,8.518 13.347,8.977 13.646 C 9.257 13.829,9.769 14.000,10.032 13.999 L 10.220 13.999 10.375 13.529 C 10.460 13.271,10.628 12.835,10.749 12.560 C 11.059 11.856,11.227 11.361,11.303 10.920 C 11.464 9.991,11.248 7.947,10.939 7.473 C 10.698 7.104,10.238 6.953,9.620 7.040 M18.230 7.305 C 18.280 7.336,18.320 7.377,18.320 7.395 C 18.320 7.467,18.070 7.767,17.949 7.841 C 17.801 7.931,17.706 7.939,17.521 7.874 C 17.393 7.830,17.391 7.825,17.416 7.644 C 17.448 7.405,17.553 7.266,17.724 7.235 C 17.899 7.204,18.116 7.234,18.230 7.305 M10.479 7.464 L 10.640 7.529 10.640 7.783 C 10.640 8.008,10.629 8.046,10.544 8.101 C 10.303 8.259,9.970 8.207,9.737 7.975 C 9.543 7.780,9.555 7.501,9.760 7.428 C 9.891 7.381,10.326 7.403,10.479 7.464 M18.883 14.806 C 18.764 14.846,18.633 14.910,18.592 14.947 C 18.496 15.034,18.392 15.396,18.408 15.589 C 18.420 15.739,18.422 15.740,18.680 15.807 C 19.333 15.976,20.563 15.821,21.260 15.481 C 21.551 15.339,22.106 14.971,22.074 14.942 C 22.066 14.935,21.853 14.965,21.600 15.008 C 20.987 15.112,20.120 15.120,19.760 15.025 C 19.617 14.988,19.410 14.906,19.300 14.844 L 19.100 14.732 18.883 14.806 M10.796 15.030 C 10.697 15.135,10.528 15.328,10.421 15.460 C 10.029 15.945,9.763 16.102,9.030 16.281 C 8.251 16.472,8.196 16.489,8.211 16.536 C 8.219 16.560,8.345 16.621,8.492 16.670 C 9.475 17.002,10.519 16.826,11.193 16.217 C 11.475 15.962,11.680 15.669,11.680 15.521 C 11.680 15.355,11.483 15.001,11.344 14.916 C 11.133 14.787,11.001 14.815,10.796 15.030 " stroke="none" fill="black" fill-rule="evenodd"></path></svg>