<svg role="img" viewBox="0 0 24 24" xmlns="http://www.w3.org/2000/svg"><path d="M2.215 3.740 C 1.224 3.955,0.420 4.650,0.109 5.560 L 0.020 5.820 0.009 10.748 C -0.003 16.150,-0.009 15.982,0.233 16.496 C 0.560 17.188,1.180 17.708,1.980 17.961 C 2.187 18.026,2.399 18.055,2.790 18.070 L 3.320 18.090 3.320 17.645 L 3.320 17.200 3.010 17.199 C 1.964 17.197,1.163 16.622,0.999 15.755 C 0.941 15.451,0.947 6.267,1.005 5.992 C 1.156 5.275,1.782 4.708,2.540 4.601 C 2.922 4.547,21.078 4.547,21.460 4.601 C 22.215 4.707,22.843 5.277,22.995 5.992 C 23.053 6.267,23.059 15.449,23.001 15.755 C 22.837 16.622,22.036 17.197,20.990 17.199 L 20.680 17.200 20.680 17.640 L 20.680 18.080 21.082 18.080 C 21.589 18.080,22.018 17.994,22.396 17.817 C 23.023 17.523,23.461 17.108,23.742 16.540 C 24.012 15.995,24.003 16.212,23.991 10.748 L 23.980 5.820 23.891 5.560 C 23.577 4.641,22.772 3.951,21.767 3.738 C 21.381 3.656,2.592 3.658,2.215 3.740 M17.894 7.679 C 17.514 7.760,17.145 8.050,16.986 8.394 L 16.900 8.580 16.900 13.980 L 16.900 19.380 16.992 19.552 C 17.133 19.817,17.345 20.027,17.594 20.149 C 17.793 20.247,17.865 20.260,18.200 20.259 C 18.515 20.259,18.612 20.243,18.765 20.167 C 19.050 20.026,19.264 19.821,19.388 19.569 L 19.500 19.340 19.500 13.960 L 19.500 8.580 19.392 8.376 C 19.255 8.115,18.934 7.826,18.690 7.742 C 18.451 7.661,18.110 7.634,17.894 7.679 M9.494 10.760 C 9.184 10.861,8.865 11.138,8.734 11.419 L 8.641 11.620 8.641 15.500 L 8.641 19.380 8.735 19.583 C 8.856 19.843,9.081 20.063,9.360 20.196 C 9.546 20.284,9.635 20.300,9.940 20.300 C 10.253 20.300,10.330 20.285,10.528 20.188 C 10.660 20.123,10.832 19.992,10.935 19.877 C 11.260 19.515,11.243 19.783,11.231 15.438 L 11.220 11.580 11.127 11.400 C 10.830 10.828,10.127 10.553,9.494 10.760 M13.840 12.561 C 13.427 12.629,13.091 12.859,12.899 13.205 L 12.780 13.420 12.769 16.357 C 12.757 19.673,12.744 19.520,13.065 19.877 C 13.168 19.992,13.340 20.123,13.472 20.188 C 13.670 20.285,13.747 20.300,14.060 20.300 C 14.365 20.300,14.453 20.284,14.640 20.195 C 14.914 20.065,15.142 19.841,15.265 19.580 L 15.359 19.380 15.360 16.457 C 15.360 13.114,15.377 13.292,15.022 12.936 C 14.719 12.634,14.269 12.491,13.840 12.561 M5.469 15.121 C 5.094 15.216,4.740 15.501,4.586 15.834 C 4.502 16.015,4.500 16.066,4.500 17.680 C 4.500 18.961,4.512 19.374,4.553 19.491 C 4.650 19.763,4.892 20.021,5.187 20.167 C 5.434 20.288,5.490 20.300,5.819 20.299 C 6.113 20.299,6.214 20.281,6.365 20.207 C 6.636 20.074,6.846 19.878,6.981 19.634 L 7.100 19.420 7.100 17.720 L 7.100 16.020 6.988 15.793 C 6.857 15.525,6.666 15.346,6.366 15.208 C 6.123 15.097,5.721 15.058,5.469 15.121 " stroke="none" fill="black" fill-rule="evenodd"></path></svg>