<svg role="img" xmlns="http://www.w3.org/2000/svg" viewBox="0 0 24 24"><path d="M10.640 1.065 C 9.017 1.211,7.375 1.702,6.026 2.444 C 3.188 4.007,1.102 6.707,0.345 9.800 C -0.033 11.344,-0.096 12.991,0.164 14.520 C 0.243 14.988,0.488 15.990,0.550 16.101 C 0.573 16.142,0.613 16.040,0.678 15.771 C 0.866 14.987,1.218 14.041,1.616 13.248 C 2.224 12.038,2.930 11.069,3.878 10.144 C 4.334 9.699,4.373 9.649,4.468 9.384 C 4.617 8.965,4.935 8.350,5.214 7.940 C 5.531 7.474,6.238 6.769,6.708 6.449 C 7.707 5.770,8.665 5.455,9.860 5.413 C 10.400 5.394,10.577 5.404,10.995 5.475 C 12.250 5.690,13.323 6.244,14.219 7.141 C 14.645 7.567,14.976 8.001,15.227 8.464 C 15.364 8.719,15.417 8.773,15.720 8.979 C 16.092 9.231,16.503 9.554,16.830 9.850 C 16.946 9.954,17.056 10.040,17.075 10.040 C 17.094 10.040,17.140 9.882,17.177 9.690 C 17.549 7.786,18.280 6.459,19.197 6.024 C 19.427 5.915,19.502 5.900,19.801 5.900 C 20.108 5.900,20.170 5.914,20.421 6.037 C 21.016 6.328,21.553 7.034,21.960 8.061 C 22.064 8.321,22.430 8.864,22.473 8.821 C 22.498 8.796,22.119 7.879,21.917 7.474 C 20.177 4.000,16.941 1.678,13.080 1.135 C 12.678 1.078,11.020 1.031,10.640 1.065 M9.420 5.505 C 8.462 5.651,7.668 5.943,6.931 6.422 C 5.956 7.055,5.164 7.971,4.736 8.958 C 4.571 9.340,4.566 9.393,4.710 9.281 C 4.771 9.234,5.063 9.033,5.360 8.835 C 6.615 7.998,8.025 7.481,9.488 7.322 C 9.987 7.268,11.013 7.268,11.512 7.322 C 12.534 7.433,13.630 7.749,14.540 8.196 C 14.848 8.348,15.105 8.467,15.111 8.461 C 15.117 8.456,15.016 8.291,14.886 8.096 C 14.035 6.808,12.693 5.907,11.161 5.594 C 10.791 5.519,9.698 5.463,9.420 5.505 M19.547 6.002 C 19.028 6.088,18.361 6.722,17.970 7.500 C 17.747 7.945,17.313 9.247,17.370 9.303 C 17.379 9.312,17.458 9.207,17.546 9.070 C 17.931 8.468,18.361 8.020,18.898 7.660 C 19.707 7.118,20.806 7.173,21.590 7.795 C 21.706 7.887,21.800 7.943,21.800 7.920 C 21.800 7.897,21.726 7.730,21.635 7.549 C 21.063 6.411,20.336 5.873,19.547 6.002 M11.807 9.976 L 11.278 11.592 9.040 12.144 C 7.809 12.447,6.807 12.700,6.813 12.707 C 6.819 12.713,7.805 12.957,9.003 13.250 C 11.096 13.761,11.189 13.788,11.375 13.930 C 12.097 14.481,13.159 14.314,13.629 13.575 C 13.828 13.262,13.893 13.009,13.870 12.629 C 13.849 12.259,13.768 12.041,13.547 11.751 C 13.425 11.592,13.323 11.315,12.895 9.991 C 12.616 9.127,12.376 8.406,12.362 8.390 C 12.347 8.373,12.097 9.087,11.807 9.976 M15.497 10.090 C 15.489 12.598,15.251 13.584,13.968 16.408 C 13.681 17.040,13.434 17.598,13.419 17.648 C 13.386 17.759,14.440 16.724,15.129 15.970 C 15.755 15.284,16.137 14.806,16.497 14.260 C 16.858 13.712,16.942 13.558,17.252 12.882 L 17.500 12.340 17.498 11.940 C 17.496 11.573,17.480 11.493,17.304 10.960 C 17.086 10.303,16.965 10.085,16.656 9.803 C 16.479 9.642,15.554 8.960,15.512 8.960 C 15.505 8.960,15.499 9.469,15.497 10.090 M21.340 11.009 C 21.075 12.208,21.021 12.515,21.025 12.780 C 21.032 13.194,21.144 13.500,21.362 13.697 C 21.666 13.972,21.957 13.856,22.211 13.359 C 22.295 13.195,22.438 12.984,22.528 12.892 L 22.693 12.723 22.532 12.548 C 22.443 12.452,22.343 12.330,22.310 12.277 C 22.276 12.223,22.129 11.622,21.983 10.940 C 21.836 10.258,21.704 9.668,21.688 9.629 C 21.671 9.586,21.535 10.124,21.340 11.009 M17.321 10.413 C 17.321 10.431,17.372 10.594,17.435 10.774 C 17.823 11.872,17.962 13.095,17.820 14.168 C 17.679 15.239,17.335 16.103,16.477 17.542 C 16.016 18.316,15.779 18.791,15.640 19.228 C 15.574 19.433,15.520 19.625,15.520 19.655 C 15.520 19.760,16.780 19.879,17.900 19.879 C 19.484 19.879,20.890 19.661,22.320 19.195 C 22.833 19.028,23.558 18.744,23.840 18.600 L 23.999 18.519 23.432 17.729 C 21.774 15.419,20.661 13.984,19.487 12.640 C 18.964 12.041,17.323 10.354,17.321 10.413 M12.704 11.483 C 12.941 11.705,12.982 12.024,12.806 12.272 C 12.701 12.419,12.429 12.534,12.262 12.503 C 11.716 12.400,11.583 11.730,12.050 11.437 C 12.230 11.324,12.558 11.347,12.704 11.483 M21.784 11.751 C 21.998 11.894,21.961 12.488,21.734 12.545 C 21.614 12.575,21.537 12.512,21.478 12.332 C 21.369 12.003,21.575 11.611,21.784 11.751 M17.621 12.100 C 17.517 12.619,17.063 13.575,16.564 14.327 C 16.052 15.096,15.488 15.749,14.220 17.040 L 13.100 18.180 12.948 18.647 L 12.796 19.114 12.321 18.919 C 11.439 18.556,10.398 18.002,9.606 17.472 C 9.230 17.221,9.200 17.208,9.284 17.328 C 9.335 17.401,9.719 17.803,10.138 18.223 C 10.891 18.977,11.687 19.652,12.290 20.049 L 12.600 20.253 12.600 20.557 C 12.602 21.550,13.230 22.307,14.360 22.675 C 15.015 22.888,16.079 23.022,16.497 22.943 L 16.648 22.915 16.391 22.647 C 15.935 22.172,15.651 21.680,15.472 21.052 C 15.400 20.803,15.383 20.639,15.384 20.240 C 15.385 19.419,15.562 18.913,16.242 17.779 C 17.482 15.708,17.902 14.337,17.763 12.802 C 17.736 12.504,17.700 12.188,17.683 12.100 L 17.653 11.940 17.621 12.100 M23.117 19.103 C 22.123 19.507,20.796 19.837,19.560 19.987 C 18.760 20.084,17.010 20.083,16.200 19.986 C 15.881 19.948,15.591 19.908,15.556 19.897 C 15.393 19.849,15.444 20.711,15.638 21.273 C 15.790 21.715,16.077 22.182,16.420 22.544 L 16.700 22.840 17.146 22.744 C 18.922 22.358,20.756 21.353,22.761 19.666 C 23.416 19.115,23.629 18.923,23.580 18.927 C 23.558 18.929,23.350 19.008,23.117 19.103 " stroke="none" fill="black" fill-rule="evenodd"></path></svg>