<svg role="img" viewBox="0 0 24 24" xmlns="http://www.w3.org/2000/svg"><path d="M11.373 0.230 C 11.386 0.356,11.419 0.932,11.446 1.510 L 11.495 2.560 11.987 2.560 C 12.258 2.560,12.481 2.556,12.482 2.550 C 12.496 2.456,12.598 0.464,12.599 0.270 L 12.600 0.000 11.975 -0.000 L 11.350 -0.000 11.373 0.230 M9.780 0.203 C 8.974 0.382,8.875 0.410,8.893 0.457 C 8.904 0.485,9.050 1.018,9.218 1.643 C 9.386 2.269,9.530 2.800,9.538 2.823 C 9.548 2.853,9.707 2.835,10.026 2.769 C 10.287 2.715,10.505 2.666,10.511 2.661 C 10.517 2.656,10.429 2.091,10.315 1.406 C 10.083 0.013,10.132 0.125,9.780 0.203 M13.863 0.205 C 13.838 0.280,13.478 2.652,13.490 2.660 C 13.498 2.665,14.296 2.831,14.417 2.853 C 14.437 2.857,14.598 2.314,14.774 1.647 C 15.026 0.687,15.082 0.426,15.041 0.400 C 15.012 0.383,14.806 0.330,14.584 0.283 C 13.950 0.150,13.884 0.142,13.863 0.205 M7.520 0.866 C 7.053 1.066,6.560 1.293,6.560 1.307 C 6.560 1.324,7.682 3.526,7.705 3.556 C 7.721 3.575,8.600 3.193,8.600 3.167 C 8.600 3.119,7.698 0.800,7.680 0.803 C 7.669 0.805,7.597 0.833,7.520 0.866 M16.286 0.872 C 16.216 1.009,15.393 3.166,15.406 3.177 C 15.438 3.202,16.263 3.560,16.290 3.560 C 16.321 3.560,17.454 1.319,17.432 1.301 C 17.394 1.267,17.048 1.107,16.710 0.966 C 16.359 0.820,16.317 0.811,16.286 0.872 M5.104 2.178 C 4.935 2.300,4.716 2.461,4.617 2.536 L 4.439 2.672 5.229 3.654 C 5.664 4.194,6.040 4.629,6.065 4.621 C 6.089 4.613,6.274 4.486,6.474 4.340 C 6.788 4.111,6.834 4.063,6.800 3.999 C 6.693 3.800,5.484 1.981,5.450 1.970 C 5.429 1.963,5.274 2.057,5.104 2.178 M17.880 2.927 C 17.108 4.130,17.134 4.082,17.212 4.126 C 17.246 4.145,17.421 4.270,17.602 4.404 C 17.921 4.640,17.933 4.645,18.004 4.574 C 18.044 4.533,18.410 4.095,18.818 3.600 L 19.560 2.700 19.417 2.580 C 19.186 2.387,18.584 1.962,18.540 1.962 C 18.518 1.961,18.221 2.396,17.880 2.927 M11.346 3.523 C 10.448 3.585,9.505 3.819,8.614 4.201 C 6.496 5.110,4.903 6.784,4.029 9.020 C 3.324 10.821,3.308 13.047,3.984 14.872 C 4.482 16.217,5.317 17.458,6.320 18.348 C 8.604 20.372,11.789 21.033,14.653 20.076 C 17.732 19.047,19.965 16.368,20.420 13.157 C 20.506 12.548,20.506 11.403,20.421 10.820 C 20.206 9.355,19.566 7.868,18.650 6.703 C 18.527 6.547,18.227 6.221,17.983 5.977 C 16.244 4.239,13.844 3.352,11.346 3.523 M3.096 3.959 C 2.878 4.204,2.700 4.420,2.700 4.438 C 2.700 4.462,4.133 5.630,4.621 6.003 C 4.645 6.022,4.797 5.889,4.988 5.684 L 5.314 5.333 4.403 4.423 L 3.492 3.512 3.096 3.959 M19.582 4.416 L 18.664 5.309 19.002 5.674 C 19.187 5.876,19.349 6.040,19.361 6.040 C 19.403 6.040,21.300 4.473,21.300 4.439 C 21.300 4.411,20.525 3.516,20.506 3.522 C 20.503 3.523,20.087 3.925,19.582 4.416 M12.832 4.242 C 13.799 4.348,14.578 4.578,15.460 5.020 C 17.145 5.865,18.433 7.242,19.192 9.011 C 20.156 11.258,19.957 13.918,18.667 16.033 C 18.025 17.085,17.059 18.057,16.031 18.684 C 13.353 20.317,9.844 20.149,7.340 18.267 C 5.688 17.025,4.652 15.318,4.291 13.240 C 4.199 12.711,4.199 11.289,4.291 10.760 C 4.697 8.427,6.012 6.493,8.015 5.283 C 8.898 4.750,10.029 4.368,11.093 4.244 C 11.515 4.195,12.387 4.194,12.832 4.242 M11.360 4.906 C 9.927 5.047,8.806 5.479,7.740 6.302 C 5.933 7.696,4.969 9.524,4.893 11.700 C 4.848 12.997,5.069 14.103,5.577 15.114 C 6.412 16.777,8.038 18.198,9.740 18.754 C 11.134 19.208,12.822 19.210,14.207 18.758 C 15.951 18.189,17.535 16.809,18.379 15.124 C 19.175 13.534,19.298 11.437,18.700 9.650 C 18.041 7.682,16.256 5.913,14.249 5.241 C 13.398 4.956,12.234 4.821,11.360 4.906 M1.726 5.802 C 1.475 6.210,1.296 6.550,1.321 6.573 C 1.363 6.614,3.565 7.728,3.576 7.715 C 3.582 7.707,3.662 7.565,3.753 7.400 C 3.844 7.235,3.954 7.045,3.998 6.979 L 4.077 6.858 3.053 6.199 C 2.490 5.836,2.006 5.526,1.977 5.509 C 1.940 5.488,1.866 5.575,1.726 5.802 M20.973 6.173 L 19.927 6.859 20.025 7.020 C 20.080 7.108,20.191 7.300,20.272 7.447 L 20.420 7.714 21.520 7.151 C 22.125 6.842,22.635 6.575,22.654 6.558 C 22.673 6.542,22.638 6.441,22.577 6.334 C 22.292 5.833,22.072 5.480,22.047 5.483 C 22.032 5.485,21.549 5.796,20.973 6.173 M13.354 5.716 C 15.512 6.197,17.308 7.784,18.036 9.852 C 18.481 11.118,18.481 12.874,18.036 14.148 C 17.323 16.190,15.471 17.824,13.380 18.257 C 12.602 18.418,11.606 18.434,10.820 18.300 C 9.980 18.157,9.043 17.768,8.338 17.272 C 7.872 16.944,7.051 16.121,6.711 15.640 C 5.956 14.573,5.600 13.406,5.600 12.000 C 5.600 10.277,6.131 8.911,7.283 7.668 C 8.300 6.571,9.433 5.938,10.840 5.679 C 11.426 5.571,12.795 5.591,13.354 5.716 M11.000 6.377 C 9.407 6.663,8.111 7.519,7.183 8.900 C 6.137 10.456,5.994 12.730,6.833 14.455 C 7.508 15.843,8.743 16.942,10.162 17.417 C 10.784 17.625,11.234 17.694,11.980 17.694 C 12.965 17.695,13.717 17.529,14.491 17.139 C 16.176 16.289,17.338 14.718,17.627 12.900 C 17.720 12.314,17.682 11.251,17.547 10.680 C 17.299 9.624,16.803 8.761,15.975 7.941 C 15.191 7.164,14.283 6.663,13.216 6.418 C 12.833 6.330,11.411 6.304,11.000 6.377 M12.548 7.043 C 13.133 7.108,13.648 7.255,14.142 7.497 C 14.694 7.767,15.117 8.080,15.582 8.564 C 16.625 9.647,17.063 10.873,16.956 12.408 C 16.873 13.611,16.449 14.573,15.624 15.432 C 14.441 16.665,12.899 17.192,11.221 16.939 C 9.882 16.738,8.695 16.015,7.923 14.932 C 7.289 14.044,6.998 13.127,6.996 12.016 C 6.994 10.650,7.418 9.570,8.331 8.615 C 9.497 7.395,10.927 6.862,12.548 7.043 M22.027 8.145 C 21.392 8.392,20.864 8.602,20.854 8.613 C 20.843 8.624,20.900 8.838,20.981 9.090 L 21.128 9.548 21.634 9.413 C 21.912 9.339,22.459 9.195,22.850 9.093 C 23.421 8.943,23.560 8.894,23.560 8.839 C 23.560 8.759,23.255 7.801,23.210 7.738 C 23.191 7.711,22.777 7.853,22.027 8.145 M0.607 8.230 C 0.517 8.511,0.434 8.776,0.423 8.820 C 0.403 8.894,0.493 8.924,1.591 9.216 C 2.245 9.390,2.798 9.538,2.820 9.546 C 2.851 9.557,3.063 8.988,3.152 8.656 C 3.161 8.622,0.888 7.720,0.793 7.720 C 0.781 7.720,0.698 7.950,0.607 8.230 M11.610 7.873 C 11.570 7.898,11.562 8.755,11.570 12.022 L 11.580 16.140 11.940 16.152 C 12.138 16.158,12.341 16.153,12.390 16.141 L 12.480 16.118 12.480 12.004 L 12.480 7.889 12.390 7.865 C 12.258 7.830,11.668 7.836,11.610 7.873 M10.320 8.184 C 10.199 8.239,10.005 8.340,9.890 8.410 L 9.680 8.537 9.680 12.000 L 9.680 15.463 9.930 15.605 C 10.068 15.683,10.207 15.757,10.240 15.770 C 10.273 15.782,10.367 15.822,10.450 15.857 L 10.600 15.921 10.600 12.001 C 10.600 9.844,10.587 8.081,10.570 8.082 C 10.553 8.084,10.441 8.129,10.320 8.184 M13.400 12.003 L 13.400 15.925 13.490 15.897 C 13.621 15.857,14.121 15.603,14.250 15.512 L 14.360 15.435 14.360 11.999 L 14.360 8.564 14.083 8.399 C 13.931 8.309,13.715 8.200,13.603 8.158 L 13.400 8.080 13.400 12.003 M8.581 9.630 C 7.675 10.866,7.597 12.708,8.394 14.069 C 8.487 14.229,8.607 14.409,8.660 14.469 L 8.757 14.580 8.759 12.010 C 8.759 10.597,8.751 9.440,8.740 9.440 C 8.730 9.440,8.658 9.525,8.581 9.630 M15.280 11.998 L 15.280 14.576 15.382 14.438 C 15.593 14.155,15.769 13.831,15.885 13.514 C 16.090 12.952,16.133 12.682,16.132 11.980 C 16.131 11.418,16.118 11.291,16.026 10.940 C 15.910 10.503,15.651 9.933,15.425 9.620 L 15.280 9.420 15.280 11.998 M0.084 10.589 C 0.058 10.848,0.029 11.126,0.019 11.207 L -0.000 11.354 0.210 11.377 C 0.325 11.389,0.900 11.422,1.488 11.450 L 2.555 11.500 2.582 11.200 C 2.597 11.035,2.623 10.815,2.639 10.712 C 2.666 10.532,2.663 10.523,2.564 10.503 C 2.507 10.491,1.992 10.410,1.420 10.322 C 0.848 10.234,0.324 10.152,0.255 10.140 L 0.130 10.118 0.084 10.589 M22.563 10.324 C 21.894 10.431,21.343 10.524,21.339 10.530 C 21.330 10.542,21.444 11.496,21.456 11.509 C 21.464 11.517,23.413 11.419,23.838 11.390 L 23.977 11.380 23.967 11.160 C 23.946 10.691,23.859 10.117,23.809 10.124 C 23.793 10.126,23.233 10.216,22.563 10.324 M21.420 12.747 C 21.405 12.897,21.379 13.119,21.361 13.240 C 21.343 13.361,21.336 13.468,21.345 13.478 C 21.372 13.506,23.809 13.879,23.841 13.860 C 23.856 13.850,23.890 13.639,23.916 13.391 C 23.942 13.143,23.972 12.873,23.982 12.791 C 23.998 12.661,23.989 12.639,23.910 12.623 C 23.861 12.613,23.370 12.585,22.820 12.561 C 22.270 12.537,21.736 12.508,21.634 12.495 L 21.447 12.473 21.420 12.747 M1.060 12.582 C 0.598 12.610,0.180 12.634,0.130 12.636 C 0.051 12.640,0.040 12.661,0.040 12.810 C 0.040 12.903,0.061 13.173,0.086 13.410 C 0.130 13.810,0.139 13.840,0.220 13.840 C 0.267 13.840,0.812 13.759,1.431 13.660 C 2.050 13.561,2.578 13.480,2.603 13.480 C 2.649 13.480,2.640 13.255,2.573 12.710 L 2.550 12.520 2.225 12.526 C 2.046 12.529,1.522 12.554,1.060 12.582 M20.985 14.909 C 20.902 15.161,20.843 15.377,20.855 15.388 C 20.885 15.419,23.133 16.279,23.183 16.280 C 23.217 16.280,23.462 15.597,23.579 15.175 C 23.600 15.097,23.570 15.082,23.191 14.986 C 22.965 14.929,22.410 14.785,21.957 14.666 L 21.135 14.451 20.985 14.909 M1.660 14.782 C 1.066 14.943,0.540 15.085,0.492 15.098 C 0.406 15.120,0.406 15.124,0.464 15.330 C 0.592 15.782,0.775 16.280,0.812 16.280 C 0.866 16.280,3.093 15.440,3.128 15.407 C 3.144 15.392,3.092 15.177,3.014 14.930 C 2.906 14.587,2.857 14.481,2.806 14.485 C 2.770 14.487,2.254 14.621,1.660 14.782 M2.430 16.875 C 1.842 17.178,1.349 17.437,1.336 17.451 C 1.308 17.479,1.552 17.946,1.778 18.299 C 1.916 18.516,1.928 18.524,2.012 18.470 C 2.060 18.439,2.532 18.138,3.060 17.800 C 3.588 17.462,4.029 17.179,4.039 17.170 C 4.050 17.162,4.025 17.097,3.984 17.027 C 3.943 16.957,3.838 16.770,3.751 16.610 C 3.664 16.450,3.572 16.321,3.547 16.322 C 3.521 16.323,3.019 16.572,2.430 16.875 M20.318 16.484 C 20.272 16.574,20.165 16.761,20.080 16.900 L 19.925 17.153 20.951 17.821 C 21.515 18.188,21.997 18.497,22.023 18.507 C 22.102 18.537,22.718 17.500,22.655 17.442 C 22.613 17.403,20.461 16.320,20.426 16.320 C 20.413 16.320,20.364 16.394,20.318 16.484 M3.659 18.741 C 3.132 19.170,2.695 19.535,2.690 19.551 C 2.684 19.567,2.861 19.783,3.082 20.031 L 3.485 20.481 4.400 19.594 L 5.316 18.706 5.191 18.563 C 4.754 18.063,4.660 17.960,4.640 17.960 C 4.628 17.960,4.187 18.311,3.659 18.741 M19.002 18.327 L 18.668 18.687 19.564 19.584 C 20.056 20.077,20.470 20.480,20.482 20.480 C 20.508 20.480,21.246 19.660,21.286 19.587 C 21.302 19.558,20.961 19.259,20.390 18.800 C 19.883 18.393,19.439 18.039,19.402 18.014 C 19.347 17.974,19.286 18.022,19.002 18.327 M5.243 20.345 L 4.440 21.331 4.670 21.510 C 4.797 21.609,5.026 21.775,5.181 21.880 L 5.462 22.070 6.151 21.019 C 6.530 20.441,6.840 19.959,6.840 19.949 C 6.840 19.931,6.219 19.465,6.096 19.390 C 6.062 19.369,5.786 19.679,5.243 20.345 M17.549 19.645 C 17.291 19.834,17.171 19.946,17.191 19.980 C 17.207 20.007,17.516 20.490,17.878 21.052 L 18.537 22.075 18.858 21.850 C 19.035 21.726,19.264 21.559,19.367 21.477 L 19.555 21.330 18.774 20.375 C 18.345 19.850,17.981 19.407,17.966 19.391 C 17.950 19.374,17.763 19.489,17.549 19.645 M7.126 21.562 C 6.810 22.179,6.558 22.690,6.566 22.698 C 6.642 22.766,7.676 23.217,7.700 23.193 C 7.720 23.172,8.599 20.825,8.589 20.821 C 8.561 20.808,7.773 20.469,7.740 20.456 C 7.718 20.447,7.442 20.945,7.126 21.562 M16.020 20.553 C 15.888 20.615,15.695 20.699,15.590 20.739 C 15.486 20.778,15.400 20.816,15.400 20.823 C 15.400 20.846,16.283 23.176,16.297 23.191 C 16.323 23.217,17.354 22.770,17.434 22.698 C 17.453 22.681,16.307 20.440,16.280 20.440 C 16.269 20.440,16.152 20.491,16.020 20.553 M9.560 21.134 C 9.560 21.137,9.410 21.692,9.227 22.366 L 8.895 23.591 9.025 23.631 C 9.253 23.701,10.075 23.858,10.097 23.836 C 10.113 23.820,10.520 21.419,10.520 21.341 C 10.520 21.334,10.431 21.315,10.322 21.300 C 10.213 21.285,9.997 21.240,9.842 21.201 C 9.687 21.161,9.560 21.131,9.560 21.134 M14.223 21.183 C 14.115 21.212,13.904 21.257,13.753 21.284 C 13.603 21.311,13.480 21.345,13.480 21.359 C 13.480 21.404,13.839 23.654,13.862 23.754 C 13.882 23.842,13.895 23.845,14.092 23.818 C 14.343 23.784,15.033 23.620,15.067 23.587 C 15.091 23.563,14.485 21.200,14.443 21.156 C 14.430 21.142,14.331 21.154,14.223 21.183 M11.503 21.570 C 11.492 21.642,11.464 22.078,11.441 22.540 C 11.418 23.002,11.388 23.519,11.374 23.690 L 11.350 24.000 11.972 24.000 C 12.315 24.000,12.603 23.987,12.611 23.970 C 12.624 23.946,12.500 21.489,12.484 21.450 C 12.482 21.444,12.265 21.440,12.002 21.440 L 11.524 21.440 11.503 21.570 " stroke="none" fill="black" fill-rule="evenodd"></path></svg>