<svg role="img" viewBox="0 0 24 24" xmlns="http://www.w3.org/2000/svg"><path d="M11.202 0.046 C 9.993 0.172,8.567 0.646,7.560 1.256 C 5.538 2.482,4.246 4.356,3.602 6.999 L 3.480 7.498 3.480 10.283 L 3.480 13.068 3.635 13.304 C 3.792 13.543,4.293 14.052,4.660 14.347 C 4.969 14.595,7.698 16.606,8.460 17.147 C 10.093 18.307,11.312 19.021,11.827 19.118 C 12.111 19.171,12.339 19.107,12.934 18.805 C 13.973 18.278,15.277 17.381,18.520 14.964 C 19.520 14.219,20.104 13.694,20.362 13.308 L 20.520 13.071 20.520 10.284 L 20.520 7.498 20.399 6.999 C 20.001 5.360,19.376 4.067,18.446 2.956 C 16.761 0.943,13.841 -0.230,11.202 0.046 M12.915 3.799 C 14.228 4.122,15.247 4.767,15.980 5.740 C 16.222 6.061,16.563 6.735,16.716 7.192 L 16.840 7.565 16.840 9.042 L 16.840 10.520 12.000 10.520 L 7.160 10.520 7.160 9.045 L 7.160 7.569 7.264 7.255 C 7.521 6.477,7.904 5.824,8.419 5.284 C 9.221 4.444,10.188 3.957,11.560 3.704 C 11.783 3.663,12.592 3.719,12.915 3.799 M3.480 19.110 L 3.481 23.220 3.574 23.420 C 3.625 23.530,3.733 23.678,3.814 23.749 C 4.120 24.018,3.572 24.002,12.102 23.991 L 19.820 23.980 19.980 23.894 C 20.189 23.781,20.336 23.622,20.437 23.400 C 20.517 23.223,20.518 23.158,20.519 19.110 C 20.520 16.849,20.510 15.000,20.499 15.000 C 20.487 15.000,19.070 16.004,17.349 17.232 C 13.873 19.712,13.822 19.747,13.540 19.890 C 13.234 20.044,12.681 20.229,12.319 20.298 C 12.013 20.356,11.970 20.355,11.626 20.283 C 11.227 20.199,10.774 20.047,10.460 19.890 C 10.214 19.768,9.931 19.570,6.371 17.032 C 4.804 15.914,3.513 15.000,3.501 15.000 C 3.490 15.000,3.480 16.849,3.480 19.110 " stroke="none" fill="black" fill-rule="evenodd"></path></svg>