<svg role="img" xmlns="http://www.w3.org/2000/svg" viewBox="0 0 24 24"><path d="M4.282 0.964 C 4.035 1.012,3.724 1.172,3.511 1.359 C 2.738 2.039,2.263 3.997,2.288 6.400 C 2.299 7.544,2.196 8.011,1.651 9.280 C 0.867 11.103,0.446 12.469,0.154 14.143 C -0.000 15.028,-0.025 15.892,0.093 16.313 C 0.291 17.021,0.619 17.464,1.344 18.004 C 2.436 18.817,3.660 19.417,5.697 20.136 L 6.535 20.432 6.977 20.800 C 8.111 21.744,9.845 22.664,11.064 22.967 C 11.594 23.100,12.469 23.092,13.002 22.950 C 14.103 22.657,15.577 21.932,16.368 21.294 C 17.089 20.712,17.785 20.328,18.780 19.963 C 20.114 19.474,20.944 19.101,21.711 18.646 C 22.814 17.992,23.385 17.470,23.698 16.828 C 23.998 16.213,24.051 15.775,23.939 14.820 C 23.740 13.120,23.145 11.073,22.283 9.126 C 21.747 7.914,21.622 7.409,21.713 6.814 C 21.753 6.548,21.748 6.352,21.679 5.540 C 21.497 3.389,21.383 2.824,20.970 2.025 C 20.328 0.781,19.223 0.606,17.495 1.473 C 16.966 1.738,16.344 2.137,15.860 2.520 C 15.454 2.842,14.646 3.649,14.340 4.040 C 14.211 4.205,14.051 4.399,13.985 4.470 L 13.864 4.600 12.000 4.600 C 10.567 4.600,10.121 4.588,10.075 4.550 C 10.041 4.522,9.891 4.341,9.741 4.146 C 8.943 3.107,7.643 2.032,6.500 1.464 C 5.556 0.994,4.890 0.844,4.282 0.964 M5.146 2.181 C 6.248 2.496,7.671 3.483,8.591 4.570 C 8.744 4.752,9.007 5.100,9.174 5.345 C 9.358 5.613,9.513 5.799,9.565 5.813 C 9.612 5.825,9.976 5.816,10.375 5.793 C 11.365 5.734,13.276 5.733,13.860 5.791 C 14.124 5.817,14.381 5.827,14.432 5.814 C 14.490 5.798,14.607 5.663,14.751 5.445 C 15.081 4.944,15.539 4.389,15.945 3.999 C 17.000 2.984,18.409 2.174,19.260 2.095 C 19.468 2.075,19.518 2.085,19.638 2.166 C 19.714 2.218,19.810 2.319,19.852 2.391 C 19.956 2.569,20.225 3.383,20.301 3.749 C 20.450 4.471,20.592 6.149,20.554 6.742 C 20.538 6.983,20.522 7.378,20.517 7.620 L 20.508 8.060 20.831 8.720 C 21.660 10.416,22.236 12.100,22.644 14.020 C 22.750 14.519,22.775 14.735,22.790 15.306 C 22.805 15.867,22.797 16.028,22.745 16.186 C 22.572 16.706,21.729 17.376,20.460 18.001 C 19.705 18.374,19.153 18.596,17.884 19.039 C 17.369 19.219,16.901 19.396,16.844 19.432 C 16.787 19.469,16.560 19.652,16.340 19.840 C 15.320 20.710,14.392 21.247,13.260 21.622 C 12.471 21.885,12.137 21.942,11.715 21.886 C 11.400 21.844,10.769 21.655,10.260 21.450 C 9.300 21.063,8.399 20.494,7.524 19.723 L 7.172 19.414 6.316 19.124 C 4.556 18.527,3.588 18.090,2.460 17.385 C 1.172 16.580,0.971 16.025,1.316 14.220 C 1.667 12.381,2.286 10.540,3.165 8.721 L 3.483 8.062 3.457 7.041 C 3.408 5.160,3.625 3.479,4.022 2.641 C 4.187 2.294,4.254 2.209,4.420 2.136 C 4.596 2.059,4.749 2.068,5.146 2.181 M9.220 8.883 C 7.951 9.152,6.535 9.769,5.354 10.567 C 4.460 11.171,4.022 11.671,3.556 12.619 C 3.107 13.534,2.855 14.446,2.754 15.526 C 2.711 15.975,2.713 16.044,2.770 16.130 C 2.833 16.226,3.808 16.757,4.880 17.278 C 5.305 17.484,6.876 18.097,6.906 18.068 C 6.911 18.062,6.980 17.764,7.060 17.406 C 7.349 16.103,7.664 15.449,8.317 14.798 C 8.697 14.418,9.050 14.186,9.658 13.914 C 10.496 13.539,10.760 13.190,10.929 12.240 C 11.000 11.835,11.017 11.584,11.019 10.920 C 11.020 10.184,11.011 10.068,10.929 9.788 C 10.759 9.201,10.564 8.929,10.249 8.842 C 10.028 8.780,9.626 8.796,9.220 8.883 M13.660 8.857 C 13.379 8.982,13.132 9.424,13.023 9.997 C 12.908 10.603,12.971 12.042,13.137 12.603 C 13.230 12.915,13.400 13.206,13.635 13.452 C 13.828 13.655,13.942 13.728,14.440 13.968 C 15.107 14.290,15.402 14.488,15.743 14.845 C 16.350 15.483,16.670 16.169,16.936 17.403 C 17.012 17.758,17.080 18.053,17.087 18.059 C 17.109 18.078,18.762 17.462,19.220 17.263 C 20.200 16.839,21.218 16.243,21.262 16.068 C 21.286 15.970,21.124 14.738,21.018 14.226 C 20.721 12.773,19.936 11.494,18.850 10.690 C 17.990 10.053,16.386 9.313,15.220 9.015 C 14.390 8.803,13.893 8.753,13.660 8.857 M11.500 16.364 C 10.492 16.485,9.693 16.857,9.557 17.268 C 9.487 17.480,9.540 17.735,9.738 18.143 C 10.054 18.792,10.552 19.375,11.124 19.763 C 11.865 20.266,12.234 20.244,13.026 19.646 C 13.572 19.234,14.026 18.664,14.326 18.014 C 14.505 17.627,14.510 17.309,14.340 17.100 C 14.121 16.831,13.831 16.690,13.136 16.515 C 12.435 16.338,12.028 16.300,11.500 16.364 " stroke="none" fill="black" fill-rule="evenodd"></path></svg>