<svg role="img" viewBox="0 0 24 24" xmlns="http://www.w3.org/2000/svg"><path d="M18.531 5.210 L 17.922 5.820 19.908 7.812 L 21.895 9.805 19.907 11.793 L 17.920 13.781 18.541 14.400 L 19.161 15.020 21.496 12.680 C 22.780 11.393,23.863 10.277,23.903 10.200 C 24.000 10.014,24.003 9.627,23.910 9.440 C 23.872 9.363,22.783 8.242,21.490 6.950 L 19.139 4.600 18.531 5.210 M7.141 6.916 C 7.228 7.002,7.640 7.389,8.055 7.776 L 8.811 8.480 12.905 8.480 C 15.157 8.480,17.000 8.472,17.000 8.463 C 17.000 8.454,16.596 8.067,16.103 7.603 L 15.207 6.760 11.094 6.760 L 6.981 6.760 7.141 6.916 M2.491 11.330 C 0.710 13.113,0.144 13.702,0.083 13.840 C -0.019 14.065,-0.021 14.332,0.077 14.540 C 0.128 14.648,0.915 15.462,2.506 17.050 L 4.861 19.400 5.480 18.780 L 6.099 18.160 4.110 16.170 L 2.120 14.180 4.100 12.200 L 6.080 10.221 5.470 9.610 C 5.135 9.275,4.852 9.000,4.840 9.000 C 4.829 9.000,3.772 10.048,2.491 11.330 M8.280 11.628 C 7.983 11.907,7.563 12.303,7.346 12.508 L 6.952 12.880 11.066 12.880 L 15.180 12.880 16.080 12.036 C 16.575 11.572,16.997 11.176,17.018 11.156 C 17.041 11.135,15.394 11.120,12.938 11.120 L 8.820 11.120 8.280 11.628 M7.000 15.536 C 7.000 15.545,7.414 15.941,7.920 16.416 L 8.840 17.280 12.920 17.280 C 15.219 17.280,17.000 17.265,17.000 17.245 C 17.000 17.226,16.593 16.830,16.096 16.365 L 15.192 15.520 11.096 15.520 C 8.843 15.520,7.000 15.527,7.000 15.536 " stroke="none" fill="black" fill-rule="evenodd"></path></svg>