<svg role="img" xmlns="http://www.w3.org/2000/svg" viewBox="0 0 24 24"><path d="M10.780 0.124 C 5.921 0.628,1.841 4.010,0.481 8.661 C 0.143 9.817,0.021 10.704,0.021 12.000 C 0.021 13.296,0.143 14.183,0.481 15.339 C 1.710 19.542,5.239 22.798,9.520 23.677 C 10.593 23.898,12.054 23.981,13.107 23.883 C 14.604 23.742,15.974 23.357,17.310 22.700 L 17.960 22.380 18.268 23.150 L 18.575 23.920 20.990 23.920 C 23.285 23.920,23.404 23.916,23.383 23.849 C 23.370 23.810,22.948 22.762,22.445 21.519 L 21.530 19.260 21.650 19.100 C 22.833 17.523,23.619 15.571,23.905 13.500 C 23.994 12.855,24.007 11.272,23.927 10.640 C 23.586 7.920,22.404 5.486,20.499 3.581 C 19.561 2.643,18.532 1.906,17.340 1.320 C 16.007 0.664,14.817 0.313,13.340 0.141 C 12.779 0.075,11.340 0.066,10.780 0.124 M8.960 2.140 C 9.124 2.261,9.215 2.264,9.621 2.160 C 9.794 2.116,9.970 2.091,10.013 2.104 C 10.057 2.118,10.206 2.235,10.345 2.365 C 10.484 2.494,10.611 2.600,10.626 2.600 C 10.677 2.600,10.800 2.468,10.800 2.414 C 10.800 2.345,10.798 2.345,11.297 2.441 C 11.957 2.569,13.471 3.033,13.852 3.226 C 14.323 3.464,14.681 3.770,15.044 4.246 C 15.295 4.575,15.354 4.690,15.460 5.056 C 15.595 5.526,15.967 5.796,16.890 6.098 C 18.398 6.591,19.069 6.965,19.371 7.481 C 19.481 7.669,19.575 8.000,19.519 8.000 C 19.501 8.000,19.291 7.838,19.053 7.641 C 18.508 7.188,18.260 7.054,17.876 7.000 C 17.713 6.978,17.391 6.907,17.160 6.842 C 16.461 6.648,14.863 6.372,13.330 6.181 C 12.533 6.081,11.832 6.000,11.772 6.000 C 11.445 6.000,11.917 6.118,13.445 6.419 C 14.377 6.603,15.266 6.783,15.420 6.820 C 15.574 6.857,15.853 6.911,16.040 6.941 C 16.227 6.971,16.569 7.033,16.800 7.079 C 17.031 7.125,17.359 7.190,17.529 7.223 C 17.699 7.255,17.951 7.317,18.089 7.360 C 18.375 7.449,18.840 7.711,18.840 7.783 C 18.840 7.809,18.774 7.862,18.693 7.901 C 18.567 7.960,18.468 7.968,18.023 7.949 C 17.735 7.937,17.230 7.887,16.900 7.839 C 16.432 7.770,16.195 7.756,15.820 7.773 C 15.174 7.802,14.817 7.901,14.140 8.238 C 13.832 8.391,13.256 8.654,12.860 8.822 C 11.753 9.291,11.303 9.594,10.966 10.099 C 10.604 10.640,10.497 11.138,10.533 12.119 C 10.580 13.415,10.709 13.976,11.520 16.400 C 12.325 18.805,12.439 19.269,12.583 20.700 C 12.618 21.052,12.681 21.591,12.723 21.897 C 12.765 22.203,12.793 22.461,12.784 22.469 C 12.741 22.512,12.584 22.200,12.464 21.833 C 12.389 21.606,12.310 21.424,12.287 21.429 C 12.265 21.434,12.062 21.128,11.837 20.749 C 10.123 17.864,7.974 15.140,5.948 13.284 C 5.586 12.953,5.522 12.751,5.479 11.800 C 5.461 11.393,5.416 10.871,5.379 10.640 C 5.245 9.800,5.349 8.921,5.780 7.240 C 6.144 5.820,6.243 5.546,6.532 5.162 C 6.686 4.958,6.835 4.684,7.005 4.289 C 7.243 3.736,7.458 3.378,7.607 3.285 C 7.659 3.253,7.705 3.253,7.779 3.287 C 7.835 3.312,7.891 3.322,7.905 3.308 C 7.919 3.295,7.846 3.143,7.744 2.972 C 7.501 2.564,7.519 2.490,7.840 2.576 C 7.923 2.598,7.951 2.582,8.006 2.485 C 8.061 2.387,8.111 2.360,8.306 2.323 C 8.666 2.255,8.737 2.226,8.779 2.129 C 8.801 2.080,8.820 2.040,8.822 2.040 C 8.823 2.040,8.885 2.085,8.960 2.140 M12.500 4.225 C 12.182 4.301,12.000 4.470,12.000 4.690 C 12.000 4.840,12.212 5.134,12.420 5.272 C 12.716 5.468,13.022 5.569,13.385 5.590 C 13.755 5.612,13.943 5.565,14.083 5.417 C 14.378 5.103,13.958 4.528,13.279 4.316 C 13.034 4.240,12.632 4.193,12.500 4.225 " stroke="none" fill="black" fill-rule="evenodd"></path></svg>