<svg role="img" viewBox="0 0 24 24" xmlns="http://www.w3.org/2000/svg"><path d="M10.860 0.041 C 7.257 0.363,4.208 1.996,2.211 4.673 C 1.092 6.173,0.382 7.961,0.094 10.004 C -0.004 10.700,-0.004 12.418,0.093 13.120 C 0.466 15.805,1.544 18.031,3.339 19.820 C 5.271 21.747,7.777 22.898,10.694 23.199 C 11.559 23.289,13.153 23.249,14.000 23.116 C 14.711 23.005,16.280 22.598,16.280 22.524 C 16.280 22.511,15.534 21.754,14.622 20.842 L 12.964 19.184 12.412 19.195 C 10.260 19.237,8.430 18.496,6.979 16.995 C 6.337 16.331,5.988 15.833,5.594 15.020 C 4.193 12.125,4.714 8.571,6.871 6.314 C 7.920 5.216,9.207 4.507,10.720 4.195 C 11.127 4.111,11.283 4.100,12.080 4.102 C 13.100 4.105,13.433 4.156,14.284 4.439 C 16.676 5.235,18.496 7.370,18.996 9.966 C 19.209 11.072,19.210 12.126,18.999 13.216 L 18.922 13.611 20.387 15.116 C 21.193 15.943,22.010 16.780,22.202 16.975 L 22.551 17.330 22.811 16.795 C 23.382 15.624,23.759 14.326,23.927 12.960 C 24.005 12.332,23.993 10.662,23.906 10.040 C 23.612 7.918,22.923 6.210,21.704 4.580 C 21.267 3.997,20.224 2.942,19.660 2.514 C 17.885 1.167,15.985 0.407,13.620 0.096 C 13.083 0.025,11.408 -0.008,10.860 0.041 M9.882 11.870 L 9.884 13.620 11.382 15.140 L 12.879 16.660 12.879 14.830 L 12.880 13.001 14.577 12.990 L 16.275 12.980 14.874 11.550 L 13.473 10.120 11.676 10.120 L 9.880 10.120 9.882 11.870 M14.400 16.341 L 14.400 18.123 17.250 21.059 L 20.100 23.996 21.930 23.998 L 23.760 24.000 23.760 22.305 L 23.760 20.609 20.756 17.585 L 17.752 14.560 16.076 14.560 L 14.400 14.560 14.400 16.341 " stroke="none" fill="black" fill-rule="evenodd"></path></svg>