<svg role="img" xmlns="http://www.w3.org/2000/svg" viewBox="0 0 24 24"><path d="M0.411 5.570 C 0.421 5.598,1.254 6.952,2.261 8.580 C 3.268 10.208,4.100 11.569,4.109 11.604 C 4.124 11.658,3.361 12.936,0.275 18.030 L 0.002 18.481 1.505 18.470 L 3.008 18.460 4.330 16.206 C 5.210 14.707,5.663 13.971,5.684 14.006 C 5.701 14.036,6.318 15.050,7.054 16.260 L 8.392 18.460 10.856 18.470 L 13.320 18.481 13.330 13.990 C 13.340 9.533,13.341 9.503,13.413 9.860 C 13.676 11.166,13.895 11.911,15.191 15.900 L 16.022 18.460 17.289 18.471 L 18.556 18.481 18.681 18.091 C 18.749 17.876,19.190 16.521,19.661 15.080 C 20.598 12.211,20.903 11.186,21.102 10.242 L 21.233 9.620 21.236 14.050 L 21.240 18.480 22.620 18.480 L 24.000 18.480 24.000 12.000 L 24.000 5.520 22.069 5.520 L 20.139 5.520 18.804 10.250 C 18.070 12.852,17.456 14.995,17.439 15.014 C 17.422 15.033,17.362 14.898,17.306 14.714 C 17.251 14.530,16.663 12.589,16.000 10.400 C 15.338 8.211,14.733 6.217,14.656 5.970 L 14.517 5.520 11.315 5.530 L 8.112 5.540 7.053 7.420 C 6.471 8.454,5.980 9.324,5.964 9.353 C 5.943 9.389,5.536 8.740,4.776 7.464 L 3.620 5.521 2.006 5.520 C 0.731 5.520,0.395 5.531,0.411 5.570 M10.750 14.365 L 10.740 17.130 9.070 14.411 C 8.152 12.916,7.400 11.673,7.400 11.649 C 7.400 11.625,8.152 10.357,9.070 8.832 L 10.740 6.060 10.750 8.830 C 10.756 10.354,10.756 12.844,10.750 14.365 " stroke="none" fill="black" fill-rule="evenodd"></path></svg>