<svg role="img" viewBox="0 0 24 24" xmlns="http://www.w3.org/2000/svg"><path d="M1.407 0.076 C 1.154 0.164,0.883 0.412,0.751 0.677 L 0.660 0.860 0.660 12.000 L 0.660 23.140 0.753 23.329 C 0.880 23.587,1.197 23.864,1.451 23.940 C 1.630 23.993,2.890 24.000,12.000 24.000 C 21.110 24.000,22.370 23.993,22.549 23.940 C 22.803 23.864,23.116 23.590,23.245 23.330 L 23.340 23.140 23.340 16.880 L 23.340 10.620 23.256 10.438 C 23.133 10.172,22.945 9.978,22.687 9.852 L 22.460 9.740 18.657 9.720 L 14.854 9.700 14.681 9.585 C 14.464 9.442,14.336 9.305,14.226 9.100 C 14.140 8.940,14.140 8.937,14.120 4.900 L 14.100 0.860 14.009 0.676 C 13.892 0.437,13.666 0.211,13.440 0.105 C 13.269 0.024,13.189 0.019,11.804 0.008 C 10.532 -0.002,10.321 0.005,10.135 0.063 C 9.878 0.144,9.638 0.342,9.490 0.593 L 9.380 0.780 9.360 4.820 L 9.340 8.860 9.247 9.047 C 9.121 9.300,8.908 9.511,8.663 9.625 C 8.465 9.717,8.432 9.719,7.358 9.720 L 6.256 9.720 6.048 9.616 C 5.831 9.508,5.650 9.322,5.531 9.082 C 5.465 8.950,5.459 8.657,5.440 4.920 L 5.420 0.900 5.325 0.689 C 5.200 0.413,4.898 0.140,4.629 0.060 C 4.464 0.011,4.160 0.000,3.023 0.001 C 1.766 0.002,1.598 0.010,1.407 0.076 M18.240 14.563 C 18.482 14.672,18.709 14.897,18.824 15.140 C 18.919 15.339,18.919 15.348,18.919 16.780 C 18.919 18.212,18.919 18.221,18.824 18.420 C 18.709 18.663,18.482 18.888,18.240 18.997 C 18.070 19.074,17.981 19.078,16.575 19.079 C 14.926 19.080,14.889 19.075,14.576 18.819 C 14.475 18.736,14.359 18.585,14.293 18.450 L 14.180 18.220 14.167 16.940 C 14.160 16.236,14.166 15.567,14.180 15.454 C 14.210 15.207,14.400 14.875,14.605 14.710 C 14.881 14.489,14.929 14.484,16.560 14.483 C 17.983 14.482,18.069 14.486,18.240 14.563 " stroke="none" fill="black" fill-rule="evenodd"></path></svg>