<svg role="img" xmlns="http://www.w3.org/2000/svg" viewBox="0 0 24 24"><path d="M11.530 5.542 C 10.974 5.691,10.406 6.152,10.151 6.660 C 10.040 6.880,9.880 7.511,9.880 7.728 C 9.880 8.068,10.186 8.748,10.500 9.108 C 10.600 9.222,10.777 9.369,10.892 9.435 C 11.193 9.607,11.754 9.784,12.240 9.858 C 13.559 10.062,13.673 10.089,13.968 10.277 C 14.342 10.514,14.528 10.898,14.603 11.586 C 14.694 12.428,14.577 13.145,14.296 13.473 C 14.032 13.783,13.662 13.913,12.688 14.042 C 11.585 14.187,10.994 14.410,10.544 14.852 C 10.044 15.343,9.804 16.081,9.937 16.719 C 10.036 17.194,10.234 17.564,10.570 17.899 C 10.820 18.148,10.905 18.205,11.190 18.314 C 11.897 18.586,12.463 18.576,13.060 18.283 C 13.805 17.917,14.272 17.200,14.494 16.080 C 14.764 14.720,15.060 14.463,16.539 14.301 C 17.261 14.222,17.651 14.125,18.060 13.922 C 18.450 13.729,18.736 13.483,18.915 13.184 C 19.478 12.247,19.365 11.206,18.620 10.459 C 18.466 10.304,18.246 10.128,18.131 10.067 C 17.844 9.915,17.305 9.785,16.456 9.663 C 15.504 9.526,15.203 9.431,14.924 9.179 C 14.704 8.980,14.619 8.745,14.443 7.857 C 14.249 6.872,14.138 6.623,13.687 6.167 C 13.351 5.826,13.052 5.646,12.654 5.543 C 12.354 5.466,11.814 5.465,11.530 5.542 M6.724 9.903 C 6.166 10.053,5.647 10.482,5.389 11.006 C 5.205 11.380,5.151 11.614,5.152 12.044 C 5.154 12.637,5.397 13.171,5.858 13.591 C 6.264 13.961,6.693 14.120,7.286 14.120 C 8.280 14.120,9.136 13.471,9.380 12.533 C 9.456 12.243,9.456 11.725,9.382 11.445 C 9.185 10.707,8.567 10.096,7.818 9.901 C 7.527 9.825,7.010 9.826,6.724 9.903 M1.585 14.263 C 0.263 14.584,-0.395 16.149,0.266 17.405 C 0.536 17.920,0.977 18.257,1.620 18.440 C 1.977 18.542,2.265 18.541,2.641 18.437 C 3.074 18.317,3.384 18.139,3.684 17.838 C 4.337 17.182,4.466 16.256,4.029 15.361 C 3.865 15.027,3.428 14.583,3.113 14.430 C 2.640 14.202,2.089 14.142,1.585 14.263 M21.400 14.282 C 20.787 14.442,20.333 14.752,20.032 15.217 C 19.692 15.743,19.616 16.431,19.831 17.052 C 20.087 17.795,20.547 18.223,21.298 18.418 C 21.640 18.507,22.211 18.499,22.529 18.401 C 23.444 18.118,24.054 17.188,23.987 16.179 C 23.934 15.394,23.518 14.773,22.825 14.445 C 22.274 14.185,21.927 14.145,21.400 14.282 " stroke="none" fill="black" fill-rule="evenodd"></path></svg>