<svg role="img" xmlns="http://www.w3.org/2000/svg" viewBox="0 0 24 24"><path d="M2.951 0.059 C 1.689 0.266,0.750 0.958,0.321 1.998 C -0.051 2.900,-0.096 3.968,0.181 5.340 C 0.445 6.647,1.109 8.318,1.961 9.820 L 2.256 10.340 2.245 11.200 C 2.228 12.561,2.354 13.468,2.709 14.537 C 3.178 15.950,3.998 17.244,5.158 18.401 C 6.057 19.299,6.792 19.826,7.892 20.363 C 8.204 20.516,8.495 20.640,8.540 20.639 C 8.584 20.639,9.041 20.396,9.555 20.101 L 10.490 19.563 10.835 19.828 C 11.025 19.974,11.204 20.115,11.233 20.141 C 11.275 20.179,11.034 20.341,10.039 20.938 C 8.582 21.815,7.695 22.281,7.000 22.535 C 5.301 23.155,3.898 23.331,2.821 23.056 C 1.881 22.817,1.182 22.118,0.944 21.180 C 0.615 19.881,0.913 18.184,1.841 16.080 L 2.079 15.540 1.922 15.086 C 1.836 14.836,1.755 14.621,1.743 14.609 C 1.709 14.575,1.078 15.907,0.827 16.541 C -0.641 20.256,-0.115 22.950,2.239 23.767 C 3.033 24.043,4.103 24.067,5.260 23.836 C 6.177 23.653,7.437 23.223,8.239 22.821 C 8.950 22.463,10.471 21.582,11.526 20.916 L 11.952 20.647 12.455 20.983 C 15.612 23.092,18.800 24.221,20.863 23.962 C 24.046 23.561,24.877 20.508,22.998 16.115 C 22.739 15.509,22.364 14.742,22.340 14.767 C 22.331 14.775,22.251 14.990,22.162 15.245 L 22.000 15.707 22.255 16.304 C 22.953 17.936,23.282 19.472,23.162 20.539 C 23.102 21.079,23.026 21.358,22.829 21.760 C 22.518 22.396,21.915 22.869,21.176 23.057 C 19.340 23.525,16.506 22.665,13.360 20.687 C 10.547 18.918,7.616 16.275,5.320 13.439 C 3.428 11.100,2.006 8.657,1.306 6.540 C 0.554 4.265,0.660 2.573,1.616 1.622 C 1.962 1.277,2.330 1.075,2.870 0.933 C 3.652 0.727,4.843 0.807,6.020 1.146 C 6.505 1.285,7.147 1.506,7.470 1.644 C 7.610 1.704,7.663 1.710,7.731 1.674 C 7.777 1.649,7.994 1.562,8.212 1.479 L 8.608 1.330 8.374 1.220 C 7.262 0.702,5.928 0.269,4.919 0.100 C 4.377 0.009,3.384 -0.012,2.951 0.059 M19.340 0.060 C 18.231 0.218,16.870 0.636,15.743 1.164 C 15.515 1.271,15.479 1.300,15.543 1.326 C 15.585 1.343,15.804 1.429,16.029 1.517 L 16.438 1.676 16.909 1.496 C 18.192 1.007,19.501 0.754,20.400 0.820 C 21.579 0.907,22.430 1.405,22.833 2.244 C 23.204 3.016,23.276 3.843,23.077 5.032 C 22.622 7.739,20.642 11.263,17.701 14.600 C 16.570 15.883,14.542 17.813,13.267 18.819 L 12.914 19.097 13.047 19.207 C 13.185 19.320,15.216 20.555,15.410 20.643 C 15.505 20.686,15.553 20.678,15.790 20.580 C 16.602 20.242,17.572 19.664,18.260 19.108 C 18.718 18.738,19.529 17.890,19.895 17.400 C 20.644 16.396,21.206 15.243,21.518 14.073 C 21.737 13.249,21.799 12.757,21.858 11.359 L 21.914 10.058 22.199 9.533 C 23.060 7.948,23.667 6.299,23.906 4.900 C 23.993 4.387,24.004 3.219,23.924 2.820 C 23.776 2.073,23.471 1.470,23.004 0.999 C 22.552 0.543,21.994 0.254,21.261 0.094 C 20.863 0.007,19.836 -0.011,19.340 0.060 M11.420 1.743 C 10.470 1.838,9.816 1.963,9.117 2.184 C 6.570 2.991,4.478 4.797,3.271 7.234 C 2.936 7.911,2.926 7.796,3.392 8.660 C 5.179 11.971,8.012 15.274,11.373 17.965 C 11.699 18.226,11.980 18.440,11.997 18.440 C 12.034 18.440,13.200 17.510,13.632 17.135 C 16.774 14.413,19.573 10.906,20.977 7.930 L 21.094 7.682 20.828 7.151 C 20.046 5.589,18.866 4.271,17.372 3.290 C 16.203 2.522,14.724 1.984,13.280 1.801 C 12.919 1.755,11.688 1.717,11.420 1.743 " stroke="none" fill="black" fill-rule="evenodd"></path></svg>