<svg role="img" viewBox="0 0 24 24" xmlns="http://www.w3.org/2000/svg"><path d="M5.234 0.062 C 3.672 0.349,2.431 1.591,2.201 3.100 C 2.171 3.294,2.161 6.080,2.169 12.180 L 2.180 20.980 2.290 21.332 C 2.557 22.183,3.090 22.896,3.820 23.379 C 4.798 24.026,6.111 24.171,7.251 23.759 C 8.202 23.414,9.045 22.608,9.424 21.679 C 9.655 21.113,9.679 20.862,9.679 19.009 L 9.680 17.319 10.687 17.329 L 11.693 17.340 12.670 18.680 C 13.207 19.417,14.046 20.567,14.533 21.236 C 15.021 21.905,15.525 22.557,15.653 22.685 C 16.103 23.137,16.751 23.483,17.403 23.621 C 17.762 23.696,18.498 23.696,18.855 23.620 C 20.174 23.341,21.199 22.362,21.506 21.090 C 21.602 20.695,21.591 19.988,21.483 19.582 C 21.332 19.012,21.140 18.700,19.861 16.949 L 18.641 15.279 18.811 15.129 C 19.795 14.262,20.468 13.393,21.001 12.300 C 21.591 11.090,21.845 9.995,21.844 8.661 C 21.843 7.881,21.773 7.301,21.594 6.587 C 20.947 4.017,19.036 1.818,16.520 0.749 C 15.786 0.437,15.102 0.240,14.240 0.095 C 13.859 0.031,13.432 0.023,9.680 0.015 C 6.264 0.007,5.486 0.015,5.234 0.062 M13.660 0.641 C 17.561 1.000,20.654 3.861,21.184 7.600 C 21.252 8.086,21.262 9.163,21.201 9.600 C 20.972 11.243,20.317 12.658,19.213 13.890 C 18.867 14.277,18.331 14.771,18.279 14.752 C 18.261 14.745,17.885 14.243,17.444 13.635 L 16.641 12.531 16.915 12.245 C 18.279 10.823,18.741 8.859,18.137 7.046 C 17.522 5.198,15.965 3.848,13.972 3.434 C 13.563 3.349,13.427 3.344,11.453 3.329 L 9.367 3.314 9.339 3.107 C 9.296 2.790,9.110 2.275,8.929 1.972 C 8.628 1.469,8.189 1.051,7.639 0.745 L 7.380 0.601 10.300 0.600 C 11.959 0.600,13.410 0.618,13.660 0.641 M13.429 3.963 C 16.205 4.273,18.140 6.681,17.741 9.330 C 17.607 10.216,17.185 11.075,16.531 11.793 L 16.300 12.046 16.035 11.708 C 15.527 11.062,14.827 10.605,14.084 10.433 L 13.881 10.387 14.071 10.259 C 14.865 9.723,15.155 8.673,14.742 7.825 C 14.490 7.307,14.111 6.971,13.544 6.764 L 13.260 6.660 11.170 6.647 L 9.080 6.635 9.080 8.637 L 9.080 10.640 10.430 10.641 L 11.780 10.642 11.535 10.774 C 10.595 11.281,10.011 12.112,9.822 13.210 L 9.796 13.360 7.998 13.360 L 6.200 13.360 6.210 10.151 L 6.220 6.942 6.515 6.893 C 7.632 6.706,8.526 6.073,9.019 5.118 C 9.204 4.760,9.360 4.272,9.360 4.051 L 9.360 3.920 11.202 3.920 C 12.249 3.920,13.209 3.939,13.429 3.963 M3.316 5.806 C 3.812 6.357,4.651 6.800,5.390 6.899 L 5.599 6.927 5.610 13.727 L 5.620 20.527 5.714 20.604 C 5.832 20.699,6.005 20.702,6.116 20.610 L 6.201 20.540 6.210 17.260 L 6.220 13.980 8.008 13.970 L 9.796 13.959 9.821 14.110 C 9.936 14.789,10.141 15.215,10.760 16.060 L 11.200 16.660 10.140 16.695 L 9.080 16.731 9.080 18.687 C 9.080 20.947,9.072 21.019,8.761 21.661 C 8.378 22.453,7.672 23.031,6.772 23.288 C 6.323 23.417,5.515 23.416,5.063 23.287 C 4.130 23.020,3.318 22.320,2.981 21.491 C 2.749 20.919,2.760 21.349,2.760 12.813 L 2.760 4.982 2.936 5.281 C 3.033 5.445,3.204 5.682,3.316 5.806 M13.093 7.279 C 13.586 7.359,14.001 7.652,14.202 8.061 C 14.341 8.346,14.359 8.815,14.241 9.128 C 14.123 9.443,13.857 9.727,13.528 9.889 L 13.262 10.020 11.471 10.032 L 9.680 10.043 9.680 8.642 L 9.680 7.240 11.270 7.240 C 12.145 7.240,12.965 7.258,13.093 7.279 " stroke="none" fill="black" fill-rule="evenodd"></path></svg>