<svg role="img" viewBox="0 0 24 24" xmlns="http://www.w3.org/2000/svg"><path d="M3.236 0.060 C 3.178 0.091,3.110 0.167,3.085 0.228 C 3.051 0.312,3.042 2.828,3.050 10.100 L 3.060 19.860 3.256 19.380 C 4.170 17.142,5.472 14.592,8.271 9.560 C 11.082 4.507,12.273 2.860,13.589 2.203 C 14.022 1.987,14.478 1.877,15.080 1.844 C 16.217 1.782,17.188 1.968,18.076 2.418 C 18.430 2.597,18.994 3.000,19.326 3.311 C 19.655 3.620,19.655 3.620,19.520 3.420 C 19.186 2.925,18.636 2.317,18.140 1.897 C 16.926 0.867,15.406 0.218,13.792 0.042 C 13.539 0.015,11.649 0.001,8.372 0.002 C 4.104 0.003,3.324 0.012,3.236 0.060 M15.345 2.623 C 13.941 2.937,13.184 3.880,13.250 5.236 C 13.293 6.143,13.746 7.039,14.545 7.800 C 15.107 8.336,15.520 8.559,16.000 8.589 C 16.266 8.606,16.316 8.597,16.440 8.513 C 16.517 8.462,16.622 8.338,16.673 8.240 C 16.758 8.075,16.764 8.023,16.748 7.600 C 16.727 7.074,16.628 6.683,16.316 5.901 C 16.211 5.637,16.129 5.417,16.135 5.412 C 16.158 5.388,17.047 7.203,17.127 7.440 C 17.255 7.813,17.253 8.275,17.123 8.520 C 16.984 8.784,16.596 9.169,15.740 9.895 C 13.460 11.827,12.484 12.844,10.973 14.860 C 9.704 16.553,8.622 18.203,6.580 21.560 C 5.667 23.061,5.370 23.529,5.150 23.810 L 5.033 23.960 7.067 23.960 C 8.185 23.960,11.704 23.972,14.886 23.987 L 20.673 24.013 20.796 23.890 C 20.881 23.805,20.920 23.727,20.920 23.644 C 20.920 23.562,20.237 22.170,18.840 19.407 C 17.696 17.143,16.760 15.252,16.760 15.203 C 16.760 15.043,16.835 14.968,17.301 14.660 C 17.822 14.316,18.344 13.890,18.704 13.515 C 21.047 11.072,21.615 7.426,20.118 4.437 C 19.973 4.147,19.872 4.004,19.704 3.850 C 19.119 3.316,18.208 2.871,17.258 2.656 C 16.849 2.564,15.700 2.544,15.345 2.623 " stroke="none" fill="black" fill-rule="evenodd"></path></svg>