<svg role="img" viewBox="0 0 24 24" xmlns="http://www.w3.org/2000/svg"><path d="M0.000 2.394 L 0.000 4.788 0.690 4.815 C 3.430 4.925,5.927 5.555,8.380 6.758 C 14.191 9.608,18.206 15.184,19.037 21.562 C 19.121 22.202,19.200 23.257,19.200 23.729 L 19.200 24.000 21.606 24.000 L 24.012 24.000 23.984 23.230 C 23.706 15.578,19.885 8.634,13.531 4.230 C 10.673 2.249,7.376 0.912,3.900 0.323 C 2.882 0.150,1.212 -0.000,0.316 -0.000 L 0.000 0.000 0.000 2.394 M-0.000 10.409 L -0.000 12.748 0.546 12.774 C 5.437 13.008,9.665 16.473,10.899 21.256 C 11.090 21.998,11.240 23.084,11.240 23.730 L 11.240 24.000 13.580 24.000 L 15.920 24.000 15.920 23.870 C 15.919 23.495,15.827 22.348,15.756 21.843 C 14.860 15.431,10.108 10.145,3.820 8.564 C 2.806 8.309,1.745 8.158,0.530 8.098 L 0.000 8.071 -0.000 10.409 M2.882 17.442 C 1.292 17.659,0.107 18.939,0.014 20.540 C -0.099 22.472,1.528 24.099,3.460 23.986 C 5.356 23.876,6.770 22.211,6.558 20.340 C 6.406 18.998,5.409 17.855,4.100 17.520 C 3.747 17.430,3.217 17.396,2.882 17.442 " stroke="none" fill="black" fill-rule="evenodd"></path></svg>