<svg role="img" viewBox="0 0 24 24" xmlns="http://www.w3.org/2000/svg"><path d="M0.400 0.708 C 0.202 0.781,0.053 1.066,0.100 1.282 C 0.119 1.366,0.451 1.754,1.189 2.552 C 1.773 3.183,2.322 3.772,2.410 3.860 C 2.609 4.061,2.780 4.355,2.863 4.640 C 2.967 4.997,3.181 5.357,3.504 5.720 C 4.010 6.288,4.756 7.231,5.052 7.678 C 5.311 8.069,5.795 9.013,6.023 9.574 L 6.119 9.812 5.690 9.395 C 5.453 9.166,5.186 8.921,5.095 8.850 L 4.929 8.721 4.713 8.970 C 2.792 11.186,1.322 13.837,0.578 16.427 C -0.020 18.508,-0.140 20.237,0.239 21.337 C 0.692 22.654,1.774 23.376,3.195 23.310 C 3.694 23.287,4.102 23.170,4.660 22.890 C 6.526 21.956,8.003 20.020,8.722 17.567 C 9.055 16.433,9.200 15.370,9.200 14.080 C 9.199 12.310,8.942 10.884,8.310 9.142 L 8.107 8.583 8.364 8.347 C 9.634 7.176,11.375 6.226,12.776 5.941 C 14.257 5.640,15.238 5.862,16.113 6.697 C 17.341 7.869,17.621 9.736,16.822 11.425 C 16.577 11.945,16.360 12.248,15.941 12.663 C 15.359 13.238,14.593 13.697,13.743 13.982 C 13.253 14.146,12.919 14.198,12.360 14.199 C 11.846 14.200,11.453 14.141,11.320 14.045 C 11.110 13.892,11.205 13.600,11.464 13.600 C 11.616 13.600,11.720 13.716,11.720 13.886 C 11.720 13.989,11.731 13.995,11.986 14.022 C 12.242 14.050,13.280 14.013,13.318 13.975 C 13.355 13.939,13.176 13.662,13.000 13.480 C 12.674 13.145,12.150 12.972,11.570 13.010 C 10.993 13.046,10.475 13.338,10.166 13.800 C 9.945 14.131,9.862 14.417,9.862 14.840 C 9.862 15.265,9.947 15.553,10.170 15.886 C 10.602 16.528,11.221 16.715,12.758 16.668 C 13.877 16.634,14.671 16.445,15.583 15.998 C 16.907 15.348,18.237 14.044,18.880 12.762 C 19.383 11.759,19.628 10.615,19.588 9.460 C 19.527 7.745,18.972 6.331,17.929 5.235 C 17.100 4.364,16.054 3.812,14.868 3.620 C 12.423 3.225,9.602 4.194,7.250 6.237 C 7.069 6.395,6.920 6.506,6.920 6.485 C 6.920 6.420,6.521 5.845,6.240 5.504 C 6.097 5.331,5.875 5.061,5.747 4.904 C 5.618 4.748,5.349 4.442,5.148 4.224 C 4.749 3.792,4.629 3.718,4.067 3.564 C 3.895 3.517,3.616 3.414,3.447 3.335 C 3.148 3.195,3.111 3.161,2.020 1.997 C 1.404 1.341,0.843 0.775,0.774 0.742 C 0.647 0.680,0.511 0.668,0.400 0.708 M6.475 11.100 C 6.615 11.696,6.734 12.363,6.806 12.940 C 6.880 13.544,6.869 14.922,6.785 15.496 C 6.421 17.985,5.093 20.190,3.504 20.945 C 3.265 21.058,3.142 21.092,2.960 21.096 C 2.743 21.100,2.714 21.089,2.581 20.961 C 2.013 20.411,2.187 18.491,3.006 16.280 C 3.439 15.110,4.697 12.753,5.457 11.688 C 5.734 11.300,6.328 10.554,6.345 10.572 C 6.350 10.576,6.408 10.814,6.475 11.100 M23.293 13.305 C 23.223 13.339,23.140 13.424,23.109 13.494 C 23.077 13.563,22.874 14.282,22.656 15.090 C 22.426 15.947,22.242 16.560,22.215 16.560 C 22.189 16.560,22.109 16.655,22.036 16.770 C 21.963 16.886,21.730 17.160,21.518 17.380 C 21.173 17.738,21.104 17.836,20.865 18.307 C 20.520 18.985,20.189 19.448,19.756 19.854 C 19.079 20.491,18.355 20.806,17.437 20.866 C 15.597 20.987,14.187 19.758,13.620 17.540 L 13.528 17.180 13.094 17.171 C 12.589 17.160,11.779 17.015,11.267 16.844 L 10.920 16.729 10.944 16.894 C 11.201 18.742,11.801 20.197,12.771 21.324 C 14.139 22.915,16.653 23.550,19.014 22.902 C 20.047 22.618,20.807 22.183,21.583 21.432 C 22.257 20.779,22.719 20.098,23.099 19.197 C 23.286 18.755,23.311 18.597,23.240 18.300 C 23.153 17.935,23.120 17.493,23.158 17.194 C 23.179 17.028,23.377 16.208,23.598 15.372 C 23.819 14.537,24.000 13.805,24.000 13.745 C 24.000 13.355,23.642 13.132,23.293 13.305 " stroke="none" fill="black" fill-rule="evenodd"></path></svg>