<svg role="img" viewBox="0 0 24 24" xmlns="http://www.w3.org/2000/svg"><path d="M11.803 0.230 C 11.755 0.269,11.576 0.525,11.405 0.800 C 11.103 1.285,11.088 1.300,10.942 1.313 C 10.797 1.325,10.776 1.309,10.357 0.867 C 10.112 0.609,9.877 0.398,9.820 0.384 C 9.673 0.347,9.505 0.451,9.428 0.627 C 9.391 0.711,9.283 0.986,9.189 1.239 C 9.022 1.685,9.014 1.699,8.875 1.731 C 8.738 1.764,8.708 1.749,8.221 1.403 C 7.640 0.990,7.519 0.955,7.351 1.154 C 7.273 1.247,7.239 1.375,7.163 1.869 L 7.071 2.470 6.934 2.535 L 6.798 2.600 6.216 2.336 C 5.600 2.057,5.516 2.044,5.357 2.203 C 5.282 2.278,5.277 2.331,5.282 2.947 C 5.287 3.598,5.285 3.613,5.191 3.707 L 5.095 3.803 4.461 3.655 C 3.886 3.520,3.818 3.512,3.725 3.564 C 3.668 3.596,3.596 3.669,3.563 3.726 C 3.502 3.835,3.513 3.902,3.738 4.852 C 3.792 5.076,3.790 5.087,3.700 5.192 L 3.607 5.300 2.948 5.286 C 2.323 5.273,2.284 5.276,2.205 5.355 C 2.042 5.518,2.055 5.601,2.334 6.222 C 2.593 6.800,2.595 6.808,2.533 6.938 L 2.470 7.069 1.850 7.172 C 1.147 7.289,1.040 7.345,1.040 7.593 C 1.040 7.703,1.109 7.827,1.373 8.196 C 1.796 8.784,1.773 8.739,1.722 8.895 C 1.680 9.020,1.648 9.040,1.209 9.201 C 0.569 9.435,0.460 9.494,0.401 9.638 C 0.322 9.827,0.394 9.938,0.881 10.381 C 1.308 10.769,1.320 10.784,1.310 10.937 C 1.300 11.091,1.292 11.098,0.814 11.397 C 0.196 11.783,0.160 11.815,0.160 12.000 C 0.160 12.184,0.195 12.217,0.814 12.604 L 1.300 12.907 1.300 13.066 C 1.300 13.217,1.277 13.247,0.880 13.617 C 0.409 14.057,0.343 14.150,0.381 14.325 C 0.416 14.482,0.529 14.548,1.162 14.781 C 1.649 14.960,1.680 14.978,1.721 15.104 C 1.773 15.261,1.796 15.216,1.373 15.804 C 1.109 16.172,1.040 16.296,1.041 16.404 C 1.044 16.676,1.118 16.713,1.925 16.843 L 2.470 16.930 2.533 17.062 C 2.595 17.192,2.593 17.199,2.334 17.778 C 2.055 18.399,2.043 18.483,2.205 18.645 C 2.283 18.723,2.325 18.727,2.948 18.715 L 3.609 18.703 3.707 18.816 C 3.761 18.879,3.797 18.950,3.788 18.975 C 3.778 19.000,3.710 19.278,3.637 19.594 C 3.515 20.118,3.509 20.177,3.563 20.273 C 3.595 20.331,3.669 20.405,3.727 20.437 C 3.822 20.491,3.882 20.484,4.406 20.362 C 4.722 20.289,5.000 20.221,5.025 20.212 C 5.050 20.203,5.120 20.238,5.180 20.290 L 5.291 20.385 5.283 21.050 C 5.276 21.671,5.281 21.721,5.357 21.797 C 5.516 21.956,5.600 21.944,6.219 21.665 C 6.799 21.404,6.804 21.403,6.936 21.466 L 7.069 21.529 7.169 22.147 C 7.280 22.830,7.345 22.960,7.570 22.960 C 7.719 22.960,7.775 22.929,8.297 22.549 C 8.728 22.236,8.737 22.232,8.881 22.275 C 9.024 22.319,9.030 22.329,9.238 22.890 C 9.354 23.203,9.476 23.490,9.509 23.528 C 9.593 23.624,9.777 23.655,9.890 23.593 C 9.943 23.564,10.164 23.346,10.383 23.109 C 10.768 22.691,10.785 22.679,10.937 22.689 C 11.091 22.700,11.098 22.707,11.402 23.198 C 11.738 23.740,11.831 23.840,12.000 23.840 C 12.168 23.840,12.255 23.746,12.592 23.200 C 12.899 22.703,12.902 22.700,13.061 22.690 C 13.216 22.681,13.229 22.691,13.620 23.119 C 14.065 23.608,14.195 23.686,14.393 23.584 C 14.457 23.550,14.523 23.491,14.539 23.451 C 14.555 23.412,14.657 23.146,14.766 22.860 C 14.875 22.574,14.977 22.328,14.992 22.314 C 15.007 22.300,15.075 22.277,15.142 22.263 C 15.250 22.240,15.323 22.280,15.769 22.599 C 16.168 22.883,16.304 22.960,16.410 22.960 C 16.654 22.960,16.712 22.848,16.823 22.176 C 16.876 21.850,16.920 21.572,16.920 21.559 C 16.920 21.546,16.982 21.505,17.059 21.469 L 17.197 21.403 17.778 21.664 C 18.396 21.942,18.453 21.950,18.634 21.785 C 18.726 21.701,18.727 21.689,18.714 21.051 L 18.700 20.402 18.802 20.300 L 18.904 20.198 19.535 20.347 C 20.115 20.484,20.176 20.492,20.273 20.437 C 20.331 20.405,20.404 20.332,20.436 20.275 C 20.488 20.182,20.480 20.114,20.345 19.539 L 20.197 18.905 20.298 18.803 C 20.399 18.703,20.401 18.702,21.034 18.715 C 21.741 18.729,21.811 18.710,21.883 18.491 C 21.922 18.373,21.902 18.310,21.660 17.775 L 21.394 17.188 21.463 17.059 C 21.532 16.931,21.536 16.930,22.151 16.828 C 22.834 16.714,22.960 16.652,22.960 16.430 C 22.960 16.282,22.938 16.242,22.554 15.715 C 22.248 15.292,22.235 15.267,22.268 15.128 C 22.302 14.984,22.309 14.980,22.841 14.779 C 23.509 14.526,23.538 14.510,23.598 14.365 C 23.672 14.185,23.575 14.037,23.096 13.600 C 22.689 13.229,22.679 13.216,22.689 13.061 C 22.700 12.903,22.704 12.899,23.200 12.592 C 23.746 12.255,23.840 12.168,23.840 12.000 C 23.840 11.833,23.746 11.745,23.200 11.405 C 22.707 11.098,22.700 11.091,22.690 10.937 C 22.680 10.784,22.691 10.769,23.118 10.380 C 23.608 9.934,23.686 9.804,23.583 9.606 C 23.533 9.508,23.450 9.460,23.131 9.337 C 22.254 9.002,22.305 9.030,22.268 8.871 C 22.235 8.733,22.248 8.707,22.550 8.293 C 22.928 7.776,22.960 7.719,22.960 7.570 C 22.960 7.348,22.834 7.286,22.151 7.172 C 21.539 7.070,21.532 7.068,21.464 6.943 L 21.396 6.817 21.661 6.228 C 21.942 5.603,21.950 5.547,21.785 5.366 C 21.701 5.274,21.689 5.273,21.051 5.286 L 20.402 5.300 20.300 5.198 L 20.197 5.095 20.345 4.461 C 20.480 3.886,20.488 3.818,20.436 3.725 C 20.404 3.668,20.332 3.596,20.275 3.564 C 20.182 3.512,20.114 3.520,19.539 3.655 L 18.905 3.803 18.802 3.700 L 18.700 3.598 18.713 2.949 C 18.726 2.334,18.722 2.295,18.642 2.210 C 18.483 2.042,18.403 2.054,17.775 2.339 L 17.187 2.606 17.054 2.534 C 16.980 2.494,16.920 2.452,16.920 2.440 C 16.920 2.427,16.876 2.148,16.822 1.819 C 16.735 1.286,16.712 1.210,16.620 1.130 C 16.505 1.031,16.362 1.015,16.227 1.087 C 16.179 1.112,15.944 1.276,15.705 1.449 C 15.291 1.750,15.262 1.764,15.127 1.732 C 14.970 1.695,14.998 1.745,14.661 0.866 C 14.528 0.517,14.496 0.466,14.379 0.417 C 14.171 0.330,14.058 0.399,13.620 0.882 C 13.228 1.313,13.217 1.321,13.060 1.311 C 12.901 1.300,12.898 1.296,12.590 0.800 C 12.250 0.251,12.166 0.160,12.000 0.160 C 11.939 0.160,11.850 0.192,11.803 0.230 M12.343 2.362 C 12.816 2.654,12.750 3.371,12.231 3.579 C 11.723 3.782,11.194 3.328,11.298 2.778 C 11.331 2.601,11.567 2.333,11.735 2.281 C 11.909 2.228,12.186 2.265,12.343 2.362 M10.959 4.002 C 11.273 4.332,11.586 4.632,11.655 4.668 C 11.813 4.750,12.065 4.751,12.220 4.670 C 12.286 4.636,12.624 4.335,12.971 4.001 C 13.413 3.577,13.623 3.401,13.671 3.415 C 13.709 3.426,13.902 3.474,14.100 3.522 C 15.169 3.783,16.300 4.319,17.183 4.984 C 18.049 5.635,18.864 6.525,19.365 7.365 L 19.524 7.631 19.082 8.632 C 18.829 9.205,18.640 9.687,18.640 9.758 C 18.640 9.921,18.726 10.118,18.845 10.228 C 18.897 10.276,19.318 10.483,19.780 10.689 L 20.620 11.063 20.644 11.501 C 20.657 11.743,20.659 12.079,20.648 12.249 L 20.628 12.558 20.144 12.569 L 19.660 12.580 19.632 13.040 C 19.592 13.708,19.473 13.989,19.147 14.176 C 18.807 14.372,18.344 14.397,17.980 14.239 C 17.703 14.118,17.624 13.991,17.505 13.478 C 17.316 12.665,17.033 12.201,16.406 11.678 L 16.192 11.500 16.485 11.300 C 16.846 11.054,17.371 10.538,17.573 10.231 C 18.039 9.521,18.073 8.731,17.674 7.920 C 17.377 7.317,16.691 6.721,15.955 6.427 C 15.293 6.163,15.709 6.183,10.380 6.160 L 5.540 6.140 5.880 5.799 C 6.977 4.699,8.362 3.914,9.900 3.519 C 10.142 3.457,10.351 3.405,10.364 3.403 C 10.377 3.401,10.645 3.671,10.959 4.002 M3.827 8.683 C 4.306 8.863,4.430 9.497,4.055 9.847 C 3.518 10.349,2.663 9.779,2.923 9.093 C 3.054 8.744,3.480 8.551,3.827 8.683 M20.591 8.702 C 20.888 8.826,21.049 9.058,21.049 9.361 C 21.049 9.755,20.755 10.049,20.360 10.049 C 19.901 10.049,19.560 9.609,19.682 9.174 C 19.760 8.895,20.066 8.653,20.351 8.643 C 20.401 8.641,20.509 8.668,20.591 8.702 M6.160 11.520 L 6.160 14.280 4.906 14.280 L 3.653 14.280 3.567 13.890 C 3.434 13.283,3.403 13.063,3.363 12.440 C 3.330 11.927,3.355 11.026,3.402 10.988 C 3.412 10.980,3.600 10.896,3.820 10.801 C 4.040 10.707,4.418 10.535,4.660 10.419 C 5.042 10.237,5.112 10.188,5.190 10.049 C 5.316 9.826,5.303 9.646,5.136 9.266 C 5.057 9.087,4.976 8.900,4.957 8.850 L 4.922 8.760 5.541 8.760 L 6.160 8.760 6.160 11.520 M13.487 8.972 C 14.031 9.239,14.190 9.766,13.831 10.107 C 13.500 10.420,13.371 10.439,11.570 10.440 L 10.040 10.440 10.040 9.638 L 10.040 8.837 11.650 8.848 L 13.260 8.860 13.487 8.972 M12.805 12.905 C 13.024 13.007,13.297 13.245,13.418 13.440 C 13.568 13.681,13.627 13.876,13.819 14.777 C 13.922 15.258,14.041 15.746,14.084 15.862 C 14.250 16.306,14.642 16.794,14.978 16.973 C 15.136 17.058,15.181 17.060,16.990 17.072 C 18.008 17.078,18.840 17.098,18.840 17.115 C 18.840 17.175,18.530 17.619,18.355 17.810 L 18.180 18.000 17.446 17.840 C 17.042 17.752,16.630 17.680,16.530 17.680 C 16.302 17.680,16.102 17.799,16.004 17.994 C 15.964 18.074,15.854 18.509,15.760 18.960 C 15.656 19.462,15.567 19.798,15.531 19.828 C 15.428 19.910,14.518 20.228,14.080 20.334 C 13.331 20.515,12.841 20.571,12.000 20.571 C 11.136 20.571,10.645 20.513,9.880 20.320 C 9.125 20.129,8.378 19.841,8.343 19.727 C 8.332 19.690,8.243 19.287,8.144 18.830 C 7.953 17.940,7.900 17.817,7.665 17.705 C 7.467 17.611,7.331 17.622,6.514 17.800 L 5.780 17.960 5.590 17.750 C 5.485 17.634,5.317 17.437,5.217 17.310 L 5.035 17.080 8.587 17.079 C 10.541 17.079,12.163 17.064,12.191 17.047 C 12.230 17.022,12.239 16.729,12.231 15.717 L 12.220 14.420 11.130 14.409 L 10.040 14.399 10.040 13.597 L 10.040 12.795 11.330 12.807 C 12.549 12.819,12.630 12.825,12.805 12.905 M6.929 18.562 C 7.701 18.776,7.563 19.921,6.763 19.932 C 6.391 19.937,6.092 19.673,6.050 19.303 C 6.015 18.987,6.240 18.654,6.552 18.560 C 6.702 18.514,6.758 18.514,6.929 18.562 M17.430 18.622 C 17.628 18.704,17.717 18.790,17.805 18.980 C 17.958 19.314,17.845 19.683,17.535 19.865 C 17.385 19.953,17.321 19.967,17.126 19.953 C 16.849 19.933,16.674 19.823,16.559 19.598 C 16.369 19.226,16.516 18.813,16.900 18.636 C 17.096 18.545,17.238 18.541,17.430 18.622 " stroke="none" fill="black" fill-rule="evenodd"></path></svg>