<svg role="img" viewBox="0 0 24 24" xmlns="http://www.w3.org/2000/svg"><path d="M10.900 0.026 C 8.881 0.190,7.407 0.794,6.186 1.959 C 5.129 2.967,4.383 4.364,3.927 6.186 C 3.245 8.909,3.287 12.509,4.044 16.360 C 4.149 16.893,4.346 17.740,4.422 17.985 C 4.476 18.160,4.311 17.820,4.079 17.280 C 3.182 15.187,2.626 13.155,2.394 11.120 C 2.314 10.418,2.326 8.550,2.415 7.900 C 2.698 5.832,3.401 4.088,4.419 2.927 C 4.541 2.788,4.630 2.657,4.617 2.636 C 4.568 2.557,3.650 3.378,3.055 4.033 C 1.095 6.191,0.004 8.798,0.195 10.871 C 0.325 12.284,0.827 13.610,1.787 15.076 C 2.389 15.995,2.935 16.664,3.813 17.557 L 4.380 18.135 4.080 17.926 C 3.145 17.277,2.059 16.317,1.547 15.687 C 0.980 14.989,0.578 14.242,0.290 13.351 C 0.180 13.010,0.079 12.761,0.050 12.761 C -0.013 12.760,-0.013 12.755,0.063 13.490 C 0.182 14.651,0.412 15.591,0.797 16.501 C 1.020 17.028,1.129 17.165,1.520 17.419 C 2.136 17.818,3.120 18.113,4.118 18.197 C 4.441 18.224,4.453 18.228,4.340 18.276 C 3.638 18.570,2.472 18.563,1.750 18.261 C 1.708 18.243,1.680 18.249,1.680 18.276 C 1.680 18.350,2.115 19.029,2.423 19.438 C 2.690 19.792,3.753 20.880,3.832 20.880 C 3.851 20.880,3.859 20.739,3.849 20.567 C 3.813 19.959,3.978 19.196,4.263 18.640 C 4.337 18.497,4.412 18.358,4.430 18.331 C 4.448 18.304,4.457 18.664,4.448 19.131 C 4.431 20.078,4.481 20.545,4.658 21.107 C 4.820 21.619,4.943 21.767,5.541 22.167 C 6.232 22.628,6.908 22.993,7.533 23.240 C 8.018 23.433,8.883 23.693,9.210 23.746 C 9.453 23.785,9.396 23.675,9.096 23.527 C 8.694 23.329,8.063 22.939,7.640 22.628 C 7.173 22.285,6.380 21.496,6.043 21.040 C 5.623 20.470,5.143 19.621,4.732 18.720 C 4.567 18.356,4.582 18.372,4.991 18.980 C 5.446 19.655,5.935 20.253,6.539 20.875 C 7.885 22.258,9.310 23.182,10.985 23.760 C 11.577 23.964,12.001 24.017,12.800 23.986 C 15.445 23.885,18.115 22.792,19.890 21.086 C 20.072 20.911,20.129 20.800,20.037 20.800 C 20.013 20.800,19.872 20.873,19.722 20.962 C 19.023 21.377,17.922 21.726,16.752 21.904 C 16.111 22.001,14.405 22.023,13.653 21.944 C 11.067 21.670,8.538 20.770,6.020 19.228 C 5.488 18.902,4.680 18.365,4.680 18.337 C 4.680 18.328,4.783 18.368,4.910 18.425 C 7.385 19.544,10.310 20.400,12.801 20.736 C 16.433 21.226,19.224 20.700,21.125 19.168 C 22.413 18.129,23.275 16.557,23.695 14.480 C 23.913 13.406,23.976 12.769,23.977 11.640 C 23.977 11.048,23.961 10.623,23.936 10.565 C 23.896 10.474,23.888 10.479,23.681 10.743 C 22.514 12.227,20.223 13.942,17.860 15.098 C 15.409 16.298,11.927 17.240,7.740 17.838 C 6.932 17.954,4.804 18.203,4.680 18.197 C 4.647 18.195,4.827 18.141,5.080 18.076 C 11.199 16.502,17.213 13.523,21.020 10.181 C 21.647 9.630,23.042 8.265,23.160 8.087 C 23.328 7.834,23.318 7.682,23.095 7.124 C 22.540 5.734,21.592 4.324,20.549 3.337 C 19.636 2.473,18.055 1.403,17.689 1.401 C 17.507 1.400,17.371 1.464,16.840 1.799 C 15.823 2.441,14.862 3.224,13.748 4.318 C 12.621 5.424,11.659 6.527,10.604 7.920 C 8.658 10.490,6.696 13.727,4.992 17.180 C 4.731 17.708,4.527 18.104,4.538 18.060 C 4.677 17.489,5.314 15.415,5.694 14.300 C 6.925 10.688,8.480 7.495,9.981 5.500 C 11.549 3.416,13.515 1.570,15.050 0.742 C 15.242 0.638,15.400 0.537,15.400 0.518 C 15.400 0.454,15.264 0.408,14.779 0.306 C 13.808 0.103,12.703 -0.004,11.680 0.007 C 11.339 0.010,10.988 0.019,10.900 0.026 " stroke="none" fill="black" fill-rule="evenodd"></path></svg>