<svg role="img" viewBox="0 0 24 24" xmlns="http://www.w3.org/2000/svg"><path d="M9.663 0.065 C 7.599 0.329,5.665 1.254,4.408 2.578 C 3.106 3.947,2.500 5.683,2.640 7.640 C 2.753 9.218,3.240 10.352,4.240 11.365 C 5.364 12.503,6.939 13.333,10.033 14.417 C 10.554 14.600,11.097 14.799,11.240 14.859 C 12.942 15.580,13.658 16.368,13.656 17.520 C 13.655 17.939,13.586 18.231,13.400 18.600 C 13.079 19.237,12.308 19.741,11.345 19.943 C 10.385 20.145,9.012 20.081,8.140 19.794 C 7.847 19.698,7.262 19.414,7.199 19.339 C 7.164 19.296,7.173 19.229,7.240 19.052 C 7.364 18.721,7.394 18.075,7.304 17.673 C 7.100 16.756,6.471 16.036,5.596 15.716 C 4.155 15.190,2.660 15.839,2.096 17.233 C 1.813 17.934,1.804 18.907,2.072 19.680 C 2.521 20.970,3.733 22.159,5.420 22.963 C 6.976 23.705,8.694 24.047,10.560 23.987 C 12.412 23.928,13.889 23.537,15.029 22.803 L 15.278 22.643 15.201 22.463 C 15.059 22.131,14.967 21.776,14.899 21.293 C 14.836 20.850,14.835 20.783,14.894 20.414 C 15.167 18.692,16.439 17.264,18.095 16.819 L 18.371 16.745 18.346 16.393 C 18.252 15.076,17.704 13.895,16.742 12.940 C 15.683 11.888,14.325 11.143,11.220 9.908 C 9.260 9.128,8.641 8.798,8.056 8.220 C 7.780 7.948,7.661 7.797,7.570 7.600 C 7.123 6.643,7.406 5.548,8.255 4.942 C 8.838 4.526,9.401 4.363,10.361 4.331 C 11.270 4.301,12.066 4.398,12.630 4.608 C 12.806 4.673,12.840 4.702,12.840 4.785 C 12.840 4.839,12.809 4.942,12.770 5.012 C 12.673 5.191,12.676 5.886,12.776 6.220 C 13.035 7.089,13.700 7.730,14.588 7.965 C 14.963 8.064,15.704 8.084,16.040 8.004 C 16.470 7.901,16.836 7.692,17.161 7.364 C 17.507 7.015,17.669 6.735,17.822 6.219 C 17.966 5.731,18.003 4.898,17.902 4.398 C 17.806 3.923,17.610 3.425,17.357 3.015 C 17.064 2.541,16.354 1.824,15.840 1.486 C 14.869 0.846,13.599 0.374,12.276 0.162 C 11.243 -0.003,10.432 -0.033,9.663 0.065 M18.860 18.377 C 17.665 18.610,16.806 19.525,16.637 20.746 C 16.509 21.664,16.939 22.697,17.681 23.254 C 18.201 23.645,18.711 23.815,19.360 23.815 C 20.141 23.815,20.760 23.562,21.300 23.021 C 21.656 22.664,21.833 22.390,21.993 21.953 C 22.088 21.691,22.099 21.606,22.096 21.160 C 22.093 20.569,22.028 20.286,21.789 19.820 C 21.571 19.396,21.063 18.880,20.660 18.672 C 20.075 18.371,19.430 18.265,18.860 18.377 " stroke="none" fill="black" fill-rule="evenodd"></path></svg>