<svg role="img" viewBox="0 0 24 24" xmlns="http://www.w3.org/2000/svg"><path d="M11.420 0.024 C 10.503 0.155,9.921 0.331,9.246 0.681 C 7.597 1.536,6.455 3.079,6.093 4.940 C 5.994 5.454,5.994 6.522,6.095 7.060 C 6.447 8.943,7.631 10.512,9.352 11.376 C 10.141 11.772,10.881 11.947,11.998 12.000 C 13.182 12.057,13.872 12.228,14.762 12.686 C 16.372 13.513,17.497 15.010,17.884 16.840 C 18.005 17.411,18.015 18.471,17.905 19.060 C 17.806 19.591,17.610 20.182,17.384 20.632 C 17.283 20.834,17.200 21.008,17.200 21.019 C 17.200 21.031,17.574 21.040,18.032 21.040 L 18.864 21.040 19.012 20.639 C 19.207 20.112,19.342 19.587,19.423 19.033 C 19.516 18.398,19.486 17.196,19.362 16.582 C 18.883 14.205,17.353 12.243,15.180 11.218 C 14.171 10.742,13.412 10.572,11.900 10.484 C 11.186 10.443,10.828 10.373,10.333 10.177 C 9.221 9.737,8.263 8.779,7.823 7.667 C 7.579 7.049,7.544 6.844,7.544 6.000 C 7.544 5.325,7.556 5.178,7.630 4.913 C 8.093 3.248,9.248 2.093,10.913 1.630 C 11.178 1.556,11.325 1.544,12.000 1.544 C 12.856 1.544,13.053 1.578,13.706 1.840 C 15.243 2.455,16.373 3.998,16.468 5.610 L 16.492 6.000 17.252 6.000 L 18.012 6.000 17.985 5.610 C 17.838 3.512,16.613 1.641,14.761 0.684 C 13.893 0.235,13.156 0.048,12.160 0.022 C 11.819 0.013,11.486 0.014,11.420 0.024 M11.460 3.064 C 9.549 3.489,8.538 5.551,9.381 7.304 C 9.752 8.076,10.478 8.676,11.320 8.905 C 11.670 9.001,12.330 9.001,12.680 8.905 C 13.720 8.621,14.539 7.803,14.826 6.760 C 14.924 6.401,14.924 5.599,14.826 5.240 C 14.541 4.205,13.715 3.374,12.700 3.102 C 12.343 3.006,11.794 2.989,11.460 3.064 M12.646 4.651 C 12.912 4.782,13.250 5.125,13.372 5.390 C 13.445 5.547,13.460 5.652,13.460 6.000 C 13.460 6.376,13.449 6.443,13.351 6.641 C 12.798 7.768,11.202 7.768,10.649 6.641 C 10.499 6.337,10.474 5.802,10.593 5.488 C 10.743 5.094,11.077 4.754,11.468 4.597 C 11.764 4.477,12.345 4.504,12.646 4.651 M7.489 15.750 L 7.500 16.500 8.250 16.511 L 9.000 16.522 9.000 19.521 L 9.000 22.520 6.740 22.520 L 4.480 22.520 4.480 23.260 L 4.480 24.000 12.000 24.000 L 19.520 24.000 19.520 23.260 L 19.520 22.520 17.260 22.520 L 15.000 22.520 15.000 19.521 L 15.000 16.522 15.750 16.511 L 16.500 16.500 16.511 15.750 L 16.522 15.000 12.000 15.000 L 7.478 15.000 7.489 15.750 M13.480 19.520 L 13.480 22.520 12.000 22.520 L 10.520 22.520 10.520 19.520 L 10.520 16.520 12.000 16.520 L 13.480 16.520 13.480 19.520 M4.520 18.330 C 4.520 18.992,4.692 19.840,4.989 20.642 L 5.136 21.040 5.968 21.040 C 6.426 21.040,6.800 21.031,6.800 21.019 C 6.800 21.008,6.718 20.836,6.619 20.637 C 6.278 19.958,6.067 19.164,6.014 18.359 L 5.988 17.960 5.254 17.960 L 4.520 17.960 4.520 18.330 " stroke="none" fill="black" fill-rule="evenodd"></path></svg>