<svg role="img" viewBox="0 0 24 24" xmlns="http://www.w3.org/2000/svg"><path d="M10.940 0.043 C 5.464 0.556,1.059 4.646,0.163 10.050 C -0.789 15.798,2.555 21.421,8.062 23.331 C 11.089 24.381,14.393 24.183,17.260 22.779 C 20.287 21.297,22.512 18.677,23.494 15.438 C 24.416 12.394,24.043 8.934,22.494 6.178 C 20.614 2.832,17.367 0.624,13.555 0.100 C 13.004 0.024,11.491 -0.009,10.940 0.043 M13.414 2.244 C 15.562 2.551,17.404 3.478,18.963 5.037 C 20.525 6.600,21.431 8.402,21.763 10.606 C 21.885 11.412,21.885 12.588,21.763 13.394 C 21.442 15.526,20.565 17.314,19.087 18.846 C 17.545 20.446,15.632 21.426,13.394 21.763 C 12.589 21.885,11.412 21.885,10.608 21.764 C 8.408 21.432,6.603 20.525,5.037 18.962 C 3.477 17.406,2.569 15.599,2.237 13.394 C 2.115 12.588,2.115 11.412,2.237 10.606 C 2.569 8.402,3.475 6.600,5.037 5.037 C 6.046 4.029,7.184 3.275,8.390 2.817 C 10.052 2.185,11.696 1.998,13.414 2.244 M11.322 3.362 C 10.603 3.431,9.568 3.664,9.432 3.787 C 9.295 3.911,9.341 4.054,9.590 4.284 C 10.089 4.746,11.036 5.716,11.265 6.000 C 11.540 6.340,12.000 6.996,12.000 7.046 C 12.000 7.116,11.728 7.076,11.527 6.976 C 11.413 6.919,11.126 6.701,10.891 6.491 C 10.059 5.750,9.420 5.274,8.580 4.772 C 7.883 4.355,7.895 4.354,7.218 4.805 C 6.627 5.199,6.157 5.597,5.708 6.083 C 5.261 6.568,5.255 6.553,6.060 7.038 C 6.945 7.571,7.847 8.223,8.460 8.774 C 8.595 8.895,8.610 8.924,8.560 8.961 C 8.420 9.062,8.089 8.972,7.407 8.648 C 6.449 8.192,5.104 7.718,4.756 7.713 C 4.511 7.709,4.453 7.772,4.182 8.332 C 3.816 9.089,3.440 10.340,3.440 10.801 C 3.440 11.006,3.609 11.140,3.941 11.196 C 4.374 11.270,5.252 11.508,5.635 11.656 C 7.527 12.387,8.644 13.652,9.017 15.488 C 9.101 15.900,9.097 15.976,8.984 16.107 C 8.825 16.292,8.686 16.259,7.760 15.814 L 6.940 15.420 5.537 15.409 C 4.175 15.397,4.131 15.399,4.030 15.479 C 3.898 15.583,3.856 15.764,3.930 15.910 C 3.960 15.970,4.176 16.257,4.410 16.547 C 4.643 16.837,5.017 17.349,5.240 17.687 C 5.464 18.024,5.668 18.313,5.694 18.329 C 5.719 18.345,5.997 18.359,6.311 18.359 L 6.882 18.360 7.211 18.195 C 7.392 18.104,7.679 17.951,7.849 17.855 L 8.157 17.680 12.275 17.680 C 14.540 17.680,16.422 17.691,16.457 17.704 C 16.506 17.723,16.520 17.789,16.520 17.999 C 16.520 18.216,16.537 18.291,16.607 18.379 C 16.687 18.482,16.708 18.488,16.901 18.465 C 17.660 18.376,18.810 17.826,19.410 17.266 C 19.572 17.115,19.600 17.066,19.600 16.938 C 19.600 16.809,19.572 16.762,19.410 16.612 C 18.790 16.041,17.643 15.493,16.897 15.412 C 16.710 15.392,16.686 15.399,16.607 15.500 C 16.539 15.587,16.520 15.665,16.520 15.863 C 16.520 16.149,16.462 16.240,16.280 16.240 C 16.093 16.240,15.976 16.175,15.919 16.038 C 15.871 15.921,15.885 15.834,16.092 15.005 C 16.523 13.276,16.620 12.580,16.618 11.220 C 16.617 9.746,16.523 9.126,16.116 7.908 C 15.716 6.711,15.379 6.041,14.769 5.230 C 14.369 4.697,13.195 3.506,12.984 3.419 C 12.793 3.339,11.878 3.308,11.322 3.362 M14.140 13.150 C 14.791 13.488,14.958 14.303,14.499 14.905 C 14.445 14.976,14.290 15.089,14.154 15.157 C 13.588 15.440,12.932 15.226,12.627 14.660 C 12.511 14.444,12.504 13.890,12.615 13.680 C 12.760 13.405,13.036 13.168,13.320 13.075 C 13.497 13.017,13.966 13.060,14.140 13.150 " stroke="none" fill="black" fill-rule="evenodd"></path></svg>