<svg role="img" viewBox="0 0 24 24" xmlns="http://www.w3.org/2000/svg"><path d="M14.366 0.450 C 13.052 2.917,1.880 23.980,1.880 23.989 C 1.880 23.995,3.043 23.996,4.464 23.990 L 7.047 23.980 13.387 12.040 C 16.874 5.473,19.737 0.077,19.748 0.050 C 19.764 0.010,19.237 0.000,17.187 0.000 L 14.605 0.000 14.366 0.450 M17.554 15.722 C 16.637 15.829,15.788 16.241,15.137 16.895 C 14.756 17.278,14.534 17.595,14.296 18.097 C 14.023 18.674,13.943 19.060,13.943 19.800 C 13.943 20.571,14.025 20.942,14.337 21.580 C 14.595 22.106,14.848 22.450,15.253 22.823 C 16.467 23.942,18.256 24.219,19.749 23.520 C 20.861 23.000,21.676 22.022,22.008 20.811 C 22.079 20.553,22.094 20.383,22.097 19.820 C 22.099 19.228,22.088 19.096,22.007 18.800 C 21.678 17.591,20.914 16.655,19.820 16.121 C 19.354 15.893,18.963 15.778,18.460 15.721 C 18.061 15.676,17.942 15.676,17.554 15.722 " stroke="none" fill="black" fill-rule="evenodd"></path></svg>