<svg role="img" viewBox="0 0 24 24" xmlns="http://www.w3.org/2000/svg"><path d="M0.000 12.000 L 0.000 24.000 12.000 24.000 L 24.000 24.000 24.000 12.000 L 24.000 0.000 12.000 0.000 L 0.000 0.000 0.000 12.000 M12.960 6.365 C 13.622 6.452,14.360 6.732,14.503 6.950 C 14.621 7.131,14.494 7.558,14.205 7.950 C 14.050 8.159,13.968 8.166,13.629 7.994 C 13.194 7.773,12.948 7.715,12.360 7.692 C 11.748 7.668,11.495 7.705,11.137 7.875 C 10.858 8.007,10.639 8.234,10.540 8.493 C 10.447 8.737,10.472 9.191,10.590 9.420 C 10.789 9.804,11.120 10.000,12.190 10.366 C 13.823 10.924,14.489 11.353,14.825 12.060 C 15.056 12.546,15.099 12.779,15.099 13.540 C 15.099 14.182,15.092 14.238,14.986 14.540 C 14.776 15.141,14.448 15.594,13.950 15.972 C 13.214 16.531,12.476 16.720,11.346 16.639 C 10.543 16.582,9.965 16.446,9.372 16.177 C 8.988 16.003,8.729 15.820,8.632 15.655 C 8.588 15.581,8.534 15.531,8.512 15.545 C 8.408 15.609,8.666 15.062,8.849 14.829 C 9.059 14.563,9.065 14.563,9.653 14.856 C 10.368 15.212,10.635 15.282,11.382 15.309 C 11.879 15.326,12.026 15.318,12.221 15.261 C 12.723 15.115,13.046 14.860,13.249 14.449 C 13.375 14.192,13.380 14.164,13.380 13.701 C 13.380 13.254,13.372 13.202,13.264 12.968 C 13.117 12.650,12.817 12.370,12.421 12.179 C 12.261 12.102,11.753 11.915,11.294 11.765 C 9.526 11.184,9.012 10.751,8.817 9.680 C 8.622 8.604,8.956 7.660,9.764 7.006 C 10.518 6.396,11.580 6.183,12.960 6.365 " stroke="none" fill="black" fill-rule="evenodd"></path></svg>