<svg role="img" viewBox="0 0 24 24" xmlns="http://www.w3.org/2000/svg"><path d="M15.268 0.054 C 15.223 0.170,15.048 1.221,14.880 2.380 C 14.558 4.600,14.367 5.549,14.132 6.099 C 14.057 6.274,13.989 6.424,13.982 6.431 C 13.975 6.438,13.765 6.403,13.515 6.352 C 13.108 6.270,12.951 6.260,12.020 6.261 C 11.207 6.263,10.900 6.278,10.613 6.332 C 10.322 6.387,10.226 6.392,10.143 6.354 C 10.023 6.300,9.830 6.014,9.739 5.758 C 9.616 5.410,9.439 4.395,9.161 2.440 C 8.841 0.183,8.816 0.040,8.740 0.040 C 8.648 0.040,8.375 0.500,7.886 1.480 C 7.433 2.389,6.818 3.779,6.559 4.480 C 6.490 4.667,6.364 5.058,6.279 5.349 L 6.124 5.879 6.609 7.169 L 7.094 8.460 7.046 8.980 C 7.020 9.266,6.973 9.771,6.941 10.101 C 6.855 10.986,6.802 12.447,6.840 12.849 C 6.882 13.297,6.959 13.460,7.513 14.289 L 7.957 14.953 7.717 17.127 C 7.428 19.757,7.372 20.423,7.424 20.604 C 7.464 20.743,7.770 21.017,7.855 20.988 C 7.919 20.967,7.982 20.545,8.160 18.940 C 8.334 17.366,8.468 16.398,8.518 16.347 C 8.583 16.280,8.644 16.596,8.682 17.198 C 8.726 17.876,8.681 19.110,8.583 19.940 C 8.498 20.657,8.466 21.175,8.497 21.337 C 8.521 21.468,8.592 21.532,9.292 22.053 C 9.714 22.368,10.496 22.936,11.028 23.315 L 11.996 24.005 12.308 23.795 C 12.565 23.622,16.617 20.745,16.679 20.692 C 16.702 20.672,16.544 19.076,16.281 16.680 L 16.086 14.900 16.521 14.240 C 16.761 13.877,17.002 13.481,17.057 13.360 C 17.283 12.860,17.286 12.408,17.078 9.932 L 16.953 8.444 17.433 7.165 L 17.913 5.886 17.718 5.249 C 17.416 4.264,16.754 2.732,15.916 1.080 C 15.447 0.155,15.311 -0.059,15.268 0.054 M15.986 2.772 C 16.483 3.762,17.080 5.395,17.080 5.768 C 17.080 6.026,16.920 6.582,16.803 6.726 L 16.728 6.819 16.639 6.740 C 16.407 6.529,15.919 5.280,15.649 4.200 C 15.556 3.832,15.543 3.699,15.543 3.120 C 15.543 2.667,15.559 2.422,15.594 2.340 L 15.646 2.220 15.728 2.320 C 15.772 2.375,15.889 2.579,15.986 2.772 M8.482 2.507 C 8.516 2.608,8.523 2.826,8.507 3.217 C 8.483 3.817,8.384 4.353,8.158 5.113 C 7.935 5.864,7.465 6.865,7.339 6.858 C 7.271 6.854,7.127 6.552,7.055 6.261 C 6.958 5.869,6.972 5.529,7.101 5.120 C 7.434 4.071,8.238 2.360,8.399 2.360 C 8.418 2.360,8.456 2.426,8.482 2.507 M9.971 4.650 C 9.999 5.197,10.117 5.660,10.263 5.790 C 10.389 5.902,10.484 5.902,11.096 5.795 C 11.686 5.690,12.357 5.683,12.860 5.774 C 13.515 5.894,13.751 5.854,13.879 5.602 C 13.950 5.463,14.051 4.944,14.104 4.450 L 14.130 4.200 12.040 4.200 L 9.949 4.200 9.971 4.650 M5.060 4.974 L 4.300 5.181 4.271 8.181 C 4.255 9.830,4.246 12.827,4.251 14.840 L 4.260 18.499 5.129 19.104 C 6.244 19.881,6.755 20.193,6.798 20.123 C 6.845 20.048,6.974 19.045,7.218 16.880 L 7.431 14.980 7.036 14.376 C 6.401 13.406,6.341 13.215,6.352 12.200 C 6.355 11.837,6.410 10.838,6.474 9.980 L 6.590 8.420 6.272 7.564 C 5.779 6.236,5.745 6.047,5.854 5.170 C 5.888 4.889,5.891 4.761,5.862 4.764 C 5.839 4.766,5.478 4.861,5.060 4.974 M18.174 4.924 C 18.188 5.021,18.211 5.307,18.224 5.560 C 18.254 6.121,18.222 6.275,17.867 7.263 C 17.725 7.658,17.569 8.140,17.520 8.337 C 17.433 8.689,17.432 8.700,17.495 9.277 C 17.591 10.159,17.642 11.089,17.648 12.084 C 17.653 12.831,17.642 13.019,17.583 13.217 C 17.485 13.551,17.239 14.025,16.908 14.518 C 16.722 14.795,16.627 14.974,16.632 15.040 C 16.666 15.515,17.218 20.148,17.243 20.176 C 17.299 20.237,17.654 20.001,19.210 18.870 L 19.760 18.470 19.760 11.825 L 19.760 5.180 19.030 4.984 C 18.628 4.877,18.266 4.780,18.224 4.768 C 18.155 4.749,18.150 4.764,18.174 4.924 M9.056 5.535 C 9.093 5.686,9.161 5.884,9.206 5.975 C 9.310 6.182,9.835 7.042,9.900 7.113 C 9.941 7.157,10.038 7.138,10.455 7.005 C 10.940 6.850,11.329 6.757,11.725 6.702 C 11.945 6.672,12.040 6.739,12.040 6.923 C 12.040 7.101,11.916 7.200,11.690 7.200 C 11.450 7.200,10.840 7.349,10.222 7.558 C 9.839 7.688,9.733 7.710,9.694 7.670 C 9.668 7.643,9.504 7.388,9.330 7.106 C 9.157 6.823,8.998 6.589,8.977 6.586 C 8.927 6.578,8.520 7.187,8.318 7.570 C 8.112 7.964,8.054 8.257,8.021 9.080 C 8.007 9.443,7.960 10.361,7.918 11.120 C 7.876 11.879,7.841 12.608,7.841 12.740 L 7.842 12.980 8.325 13.670 C 8.697 14.200,8.829 14.360,8.895 14.359 C 9.160 14.356,9.732 13.947,10.233 13.402 C 10.562 13.044,10.685 12.972,10.738 13.110 C 10.838 13.370,10.881 16.118,10.795 16.699 C 10.756 16.962,10.759 17.026,10.819 17.182 C 10.858 17.285,10.944 17.405,11.020 17.463 C 11.135 17.550,11.189 17.563,11.411 17.556 C 11.552 17.552,11.689 17.561,11.714 17.576 C 11.775 17.614,11.773 18.046,11.711 18.255 C 11.637 18.503,11.349 18.778,11.083 18.856 C 10.683 18.974,10.329 18.927,9.991 18.713 C 9.552 18.435,9.283 17.696,9.101 16.278 C 8.990 15.414,8.932 15.278,8.293 14.395 C 7.847 13.779,7.608 13.412,7.456 13.113 L 7.348 12.900 7.375 12.060 C 7.389 11.598,7.428 10.842,7.461 10.380 C 7.494 9.918,7.531 9.181,7.544 8.743 C 7.569 7.843,7.556 7.890,7.981 7.202 C 8.272 6.730,8.607 6.049,8.756 5.625 C 8.825 5.430,8.892 5.253,8.905 5.232 C 8.945 5.166,8.986 5.248,9.056 5.535 M14.693 10.042 C 14.873 10.183,14.883 10.513,14.711 10.605 C 14.601 10.664,13.468 10.728,13.240 10.688 L 13.060 10.657 13.240 10.525 C 13.663 10.216,14.210 9.964,14.465 9.961 C 14.533 9.961,14.636 9.997,14.693 10.042 M10.132 10.117 C 10.428 10.232,10.853 10.614,10.760 10.681 C 10.670 10.744,9.491 10.710,9.347 10.640 C 9.114 10.526,9.050 10.221,9.230 10.079 C 9.325 10.004,9.378 9.995,9.620 10.010 C 9.776 10.019,10.002 10.067,10.132 10.117 M9.655 11.354 C 9.687 11.390,9.720 11.492,9.727 11.580 C 9.739 11.730,9.748 11.739,9.857 11.732 C 10.004 11.721,10.095 11.632,10.105 11.490 C 10.110 11.429,10.115 11.358,10.117 11.331 C 10.122 11.258,10.311 11.222,10.381 11.280 C 10.457 11.344,10.457 11.571,10.381 11.718 C 10.315 11.846,10.033 12.000,9.865 12.000 C 9.721 12.000,9.569 11.917,9.412 11.753 C 9.177 11.507,9.118 11.302,9.273 11.272 C 9.401 11.247,9.595 11.289,9.655 11.354 M13.930 11.327 C 13.980 11.353,14.000 11.411,14.000 11.537 C 14.000 11.736,14.059 11.781,14.230 11.716 C 14.365 11.665,14.399 11.613,14.399 11.458 C 14.400 11.254,14.563 11.169,14.697 11.303 C 14.922 11.528,14.544 12.000,14.139 12.000 C 14.017 12.000,13.956 11.963,13.756 11.773 C 13.492 11.521,13.427 11.378,13.539 11.296 C 13.611 11.243,13.795 11.258,13.930 11.327 M13.935 13.510 C 14.546 14.105,14.745 14.238,15.173 14.337 C 15.488 14.410,15.600 14.462,15.600 14.534 C 15.600 14.563,15.517 14.693,15.414 14.823 C 15.086 15.242,14.942 15.682,14.897 16.400 C 14.841 17.296,14.550 18.185,14.178 18.596 C 13.692 19.135,12.732 19.002,12.396 18.350 C 12.302 18.168,12.257 17.779,12.314 17.634 C 12.354 17.532,12.365 17.528,12.588 17.547 C 12.786 17.565,12.840 17.554,12.958 17.474 C 13.033 17.422,13.138 17.296,13.191 17.194 C 13.285 17.011,13.286 17.001,13.238 16.541 C 13.187 16.038,13.203 13.159,13.258 13.030 C 13.275 12.992,13.307 12.960,13.329 12.960 C 13.351 12.960,13.624 13.208,13.935 13.510 M12.517 19.372 C 12.714 19.441,12.713 19.509,12.513 19.600 C 12.147 19.766,11.420 19.673,11.420 19.460 C 11.420 19.400,11.455 19.374,11.560 19.355 C 11.803 19.312,12.374 19.323,12.517 19.372 M11.060 19.701 C 11.404 19.977,11.672 20.090,11.995 20.094 C 12.351 20.099,12.600 20.006,12.949 19.740 C 13.108 19.619,13.257 19.520,13.279 19.520 C 13.363 19.520,13.321 19.815,13.214 19.968 C 13.034 20.228,12.494 20.440,12.012 20.440 C 11.719 20.440,11.294 20.323,11.091 20.187 C 10.866 20.035,10.769 19.881,10.734 19.617 C 10.711 19.451,10.716 19.427,10.763 19.464 C 10.795 19.488,10.928 19.595,11.060 19.701 " stroke="none" fill="black" fill-rule="evenodd"></path></svg>