<svg role="img" xmlns="http://www.w3.org/2000/svg" viewBox="0 0 24 24"><path d="M10.491 0.084 C 9.657 0.181,8.501 0.480,7.620 0.827 C 4.727 1.965,2.309 4.258,1.052 7.055 C -0.771 11.110,-0.191 15.955,2.526 19.365 C 4.267 21.550,6.551 23.023,9.191 23.664 C 10.124 23.890,10.434 23.926,11.682 23.949 C 12.976 23.973,13.483 23.937,14.362 23.760 C 16.150 23.401,17.716 22.698,19.199 21.589 C 19.836 21.112,20.941 20.034,21.436 19.407 C 23.501 16.788,24.349 13.548,23.857 10.160 C 23.520 7.841,22.484 5.685,20.870 3.940 C 19.018 1.939,16.910 0.753,14.213 0.199 C 14.005 0.156,13.597 0.103,13.307 0.080 C 12.689 0.033,10.907 0.036,10.491 0.084 M12.900 2.201 C 16.244 2.510,19.190 4.492,20.756 7.484 C 22.067 9.990,22.199 13.161,21.101 15.779 C 20.591 16.996,19.967 17.913,18.961 18.923 C 18.073 19.815,17.395 20.306,16.340 20.822 C 14.836 21.558,13.704 21.809,11.900 21.810 C 10.886 21.810,10.476 21.764,9.684 21.562 C 7.769 21.075,6.285 20.219,4.919 18.815 C 3.685 17.545,2.905 16.166,2.459 14.462 C 2.214 13.528,2.185 13.266,2.184 11.980 C 2.183 10.951,2.193 10.768,2.270 10.360 C 2.689 8.158,3.612 6.438,5.192 4.914 C 6.750 3.413,8.687 2.477,10.720 2.244 C 10.929 2.220,11.154 2.194,11.220 2.186 C 11.494 2.154,12.490 2.163,12.900 2.201 M18.580 9.874 C 18.285 10.056,17.911 10.559,17.536 11.276 C 16.997 12.309,16.553 12.366,15.890 11.487 C 15.763 11.318,15.572 11.026,15.467 10.840 C 15.161 10.295,15.033 10.142,14.781 10.019 C 14.190 9.730,13.710 9.984,13.185 10.866 C 12.670 11.729,12.462 11.942,12.087 11.987 L 11.882 12.011 11.651 11.770 C 11.524 11.638,11.321 11.364,11.200 11.162 C 10.852 10.580,10.641 10.316,10.440 10.209 C 10.276 10.122,10.224 10.114,9.860 10.130 C 9.410 10.149,9.194 10.222,8.946 10.440 C 8.751 10.611,8.631 10.790,8.301 11.400 C 8.006 11.946,7.771 12.284,7.620 12.383 C 7.380 12.541,7.055 12.250,6.639 11.505 C 6.025 10.405,5.949 10.307,5.625 10.201 C 5.145 10.044,4.412 10.433,3.944 11.094 C 3.775 11.333,3.151 12.479,3.037 12.760 C 2.976 12.911,2.959 13.504,3.010 13.689 C 3.057 13.854,3.165 13.893,3.358 13.816 C 3.572 13.730,3.818 13.452,4.227 12.833 C 4.736 12.062,5.074 11.805,5.437 11.914 C 5.734 12.003,6.005 12.418,6.178 13.046 C 6.302 13.498,6.686 13.929,7.082 14.061 C 7.264 14.121,7.296 14.121,7.509 14.061 C 7.960 13.933,8.221 13.697,8.683 12.998 C 9.147 12.298,9.475 12.050,9.886 12.090 C 10.321 12.131,10.624 12.406,11.036 13.132 C 11.612 14.148,11.952 14.381,12.413 14.077 C 12.647 13.922,12.881 13.628,13.203 13.085 C 13.491 12.599,13.788 12.262,14.020 12.155 C 14.113 12.113,14.272 12.082,14.400 12.081 C 14.811 12.080,15.105 12.322,15.567 13.040 C 15.822 13.436,16.214 13.817,16.434 13.883 C 16.548 13.917,16.642 13.917,16.808 13.882 C 17.176 13.806,17.356 13.661,17.661 13.194 C 18.222 12.337,18.312 12.222,18.574 12.022 C 18.690 11.933,18.771 11.905,18.916 11.903 C 19.262 11.898,19.567 12.186,20.029 12.953 C 20.382 13.540,20.713 13.857,20.897 13.787 C 20.978 13.755,21.040 13.506,21.040 13.204 C 21.040 12.898,20.839 12.358,20.390 11.460 C 19.946 10.573,19.633 10.135,19.284 9.914 C 19.065 9.775,18.768 9.758,18.580 9.874 " stroke="none" fill="black" fill-rule="evenodd"></path></svg>