<svg role="img" viewBox="0 0 24 24" xmlns="http://www.w3.org/2000/svg"><path d="M1.080 9.737 C 0.466 9.908,0.061 10.351,0.012 10.908 C -0.026 11.341,0.239 11.811,0.660 12.058 C 0.755 12.114,1.055 12.234,1.326 12.325 C 1.919 12.523,2.086 12.604,2.196 12.744 C 2.296 12.871,2.301 12.963,2.219 13.122 C 2.123 13.307,1.871 13.417,1.540 13.418 C 1.305 13.419,1.214 13.398,0.975 13.286 L 0.689 13.152 0.381 13.380 L 0.074 13.608 0.167 13.708 C 0.552 14.123,1.289 14.349,1.903 14.242 C 2.439 14.149,2.833 13.882,3.037 13.473 C 3.247 13.053,3.203 12.656,2.900 12.244 C 2.684 11.951,2.454 11.811,1.901 11.635 C 1.145 11.395,0.907 11.243,0.907 11.003 C 0.907 10.554,1.625 10.370,2.230 10.664 L 2.480 10.786 2.780 10.568 C 2.945 10.449,3.080 10.336,3.080 10.319 C 3.080 10.265,2.775 10.021,2.568 9.908 C 2.171 9.692,1.513 9.617,1.080 9.737 M5.908 9.724 C 5.117 9.910,4.450 10.546,4.215 11.340 C 4.123 11.651,4.120 12.300,4.209 12.580 C 4.372 13.092,4.630 13.489,4.989 13.782 C 5.438 14.148,5.917 14.320,6.487 14.320 C 7.130 14.320,7.653 14.106,8.102 13.660 C 8.699 13.066,8.929 12.237,8.721 11.424 C 8.607 10.979,8.427 10.664,8.102 10.340 C 7.797 10.037,7.468 9.848,7.060 9.742 C 6.802 9.674,6.160 9.664,5.908 9.724 M16.923 9.744 C 16.529 9.850,16.197 10.043,15.898 10.340 C 14.749 11.484,15.075 13.398,16.540 14.098 C 16.885 14.263,17.148 14.320,17.566 14.320 C 18.590 14.320,19.493 13.645,19.785 12.660 C 19.889 12.307,19.882 11.701,19.770 11.340 C 19.528 10.563,18.876 9.938,18.102 9.741 C 17.804 9.665,17.210 9.666,16.923 9.744 M22.000 9.772 C 21.281 9.937,20.845 10.426,20.832 11.081 C 20.825 11.434,20.875 11.552,21.129 11.786 C 21.392 12.028,21.617 12.144,22.198 12.339 C 22.813 12.546,22.989 12.644,23.064 12.824 C 23.133 12.988,23.093 13.108,22.922 13.252 C 22.673 13.462,22.362 13.489,21.940 13.337 C 21.786 13.282,21.633 13.228,21.600 13.217 C 21.540 13.197,20.920 13.620,20.920 13.681 C 20.920 13.699,20.992 13.775,21.079 13.850 C 21.953 14.598,23.425 14.433,23.862 13.539 C 24.082 13.090,24.009 12.581,23.671 12.215 C 23.454 11.979,23.248 11.868,22.674 11.675 C 22.081 11.477,21.914 11.396,21.804 11.256 C 21.700 11.124,21.698 11.016,21.795 10.857 C 21.907 10.673,22.128 10.582,22.460 10.581 C 22.694 10.581,22.787 10.603,23.025 10.714 L 23.311 10.848 23.619 10.620 L 23.926 10.392 23.833 10.292 C 23.435 9.863,22.615 9.631,22.000 9.772 M10.160 11.957 L 10.160 14.160 10.579 14.160 L 10.999 14.160 11.009 12.932 L 11.020 11.705 12.343 12.942 C 13.070 13.623,13.705 14.214,13.753 14.256 L 13.840 14.332 13.840 12.126 L 13.840 9.920 13.420 9.920 L 13.000 9.920 13.000 11.123 C 13.000 11.856,12.985 12.321,12.962 12.313 C 12.942 12.306,12.319 11.733,11.578 11.040 C 10.838 10.347,10.216 9.774,10.196 9.767 C 10.175 9.759,10.160 10.669,10.160 11.957 M7.150 10.677 C 7.453 10.840,7.691 11.089,7.833 11.393 C 7.924 11.588,7.939 11.673,7.940 12.001 C 7.940 12.350,7.929 12.404,7.810 12.646 C 7.556 13.161,7.108 13.449,6.520 13.473 C 6.245 13.484,6.136 13.470,5.949 13.400 C 5.016 13.050,4.673 11.914,5.259 11.114 C 5.430 10.880,5.614 10.739,5.909 10.615 C 6.110 10.530,6.190 10.519,6.520 10.530 C 6.862 10.542,6.925 10.557,7.150 10.677 M18.060 10.603 C 18.527 10.778,18.867 11.164,18.987 11.656 C 19.044 11.891,19.047 11.972,19.007 12.208 C 18.981 12.360,18.922 12.558,18.875 12.649 C 18.748 12.898,18.429 13.212,18.171 13.343 C 17.959 13.450,17.905 13.460,17.520 13.460 C 17.118 13.460,17.089 13.454,16.850 13.324 C 16.546 13.159,16.308 12.910,16.167 12.607 C 16.076 12.411,16.061 12.327,16.061 12.000 C 16.061 11.674,16.076 11.588,16.166 11.395 C 16.346 11.010,16.666 10.722,17.074 10.576 C 17.307 10.492,17.800 10.506,18.060 10.603 " stroke="none" fill="black" fill-rule="evenodd"></path></svg>