<svg role="img" viewBox="0 0 24 24" xmlns="http://www.w3.org/2000/svg"><path d="M14.184 6.800 C 13.560 6.878,12.813 7.097,12.652 7.247 L 12.560 7.334 12.560 12.163 L 12.560 16.993 12.684 17.097 L 12.809 17.202 17.214 17.190 C 21.331 17.178,21.636 17.173,21.860 17.105 C 22.857 16.804,23.571 16.090,23.885 15.079 C 23.960 14.837,23.978 14.688,23.979 14.300 C 23.980 13.714,23.931 13.502,23.672 12.962 C 23.497 12.599,23.426 12.500,23.126 12.201 C 22.610 11.688,22.135 11.461,21.320 11.338 C 20.856 11.268,20.606 11.284,20.211 11.406 C 20.072 11.449,19.941 11.473,19.919 11.459 C 19.898 11.446,19.880 11.384,19.880 11.320 C 19.880 10.966,19.633 10.156,19.363 9.627 C 18.642 8.211,17.312 7.195,15.769 6.882 C 15.311 6.790,14.573 6.751,14.184 6.800 M11.693 7.625 C 11.628 7.725,11.616 8.006,11.552 11.017 C 11.488 13.972,11.487 14.408,11.540 15.380 C 11.634 17.107,11.618 16.965,11.738 17.069 C 11.797 17.119,11.890 17.160,11.945 17.160 C 12.094 17.160,12.280 16.958,12.282 16.793 C 12.283 16.720,12.317 16.165,12.357 15.560 C 12.427 14.492,12.427 14.361,12.352 11.080 C 12.292 8.419,12.264 7.682,12.222 7.617 C 12.181 7.554,12.120 7.532,11.966 7.525 C 11.786 7.517,11.757 7.528,11.693 7.625 M10.730 8.141 C 10.682 8.175,10.634 8.260,10.623 8.331 C 10.612 8.402,10.583 9.828,10.557 11.500 C 10.512 14.393,10.530 15.752,10.624 16.794 C 10.653 17.107,10.737 17.210,10.948 17.192 C 11.218 17.169,11.226 17.137,11.301 15.709 C 11.362 14.533,11.362 14.219,11.303 11.489 C 11.268 9.867,11.232 8.471,11.223 8.387 C 11.214 8.303,11.175 8.199,11.137 8.157 C 11.053 8.064,10.852 8.056,10.730 8.141 M7.744 8.850 C 7.698 8.923,7.673 9.454,7.616 11.650 C 7.544 14.390,7.554 15.172,7.678 16.677 C 7.712 17.086,7.755 17.160,7.963 17.160 C 8.163 17.160,8.173 17.113,8.263 15.765 L 8.348 14.500 8.272 11.820 C 8.231 10.346,8.188 9.082,8.177 9.011 C 8.166 8.940,8.129 8.855,8.096 8.821 C 8.002 8.728,7.812 8.744,7.744 8.850 M8.816 8.879 C 8.769 8.898,8.717 8.946,8.700 8.987 C 8.683 9.027,8.633 10.221,8.590 11.640 C 8.515 14.097,8.514 14.279,8.577 15.460 C 8.659 16.992,8.663 17.027,8.785 17.107 C 8.902 17.183,9.061 17.150,9.122 17.036 C 9.147 16.990,9.202 16.392,9.245 15.707 C 9.324 14.460,9.324 14.460,9.242 11.820 C 9.196 10.368,9.159 9.139,9.160 9.090 C 9.160 8.992,9.030 8.838,8.950 8.843 C 8.922 8.844,8.862 8.860,8.816 8.879 M6.778 9.016 C 6.704 9.070,6.697 9.202,6.619 11.759 L 6.536 14.445 6.621 15.748 C 6.703 17.009,6.708 17.054,6.797 17.126 C 6.911 17.218,6.929 17.218,7.046 17.124 C 7.137 17.050,7.143 17.006,7.242 15.754 L 7.344 14.460 7.248 11.800 C 7.172 9.701,7.140 9.121,7.095 9.050 C 7.030 8.947,6.892 8.933,6.778 9.016 M9.705 9.092 C 9.615 9.182,9.613 9.204,9.587 10.342 C 9.510 13.726,9.509 14.604,9.578 15.800 C 9.655 17.133,9.662 17.160,9.920 17.160 C 10.187 17.160,10.192 17.138,10.265 15.736 C 10.325 14.594,10.325 14.304,10.263 11.920 C 10.225 10.439,10.180 9.296,10.156 9.236 C 10.134 9.179,10.053 9.103,9.976 9.066 C 9.802 8.983,9.814 8.982,9.705 9.092 M5.825 9.474 C 5.766 9.540,5.747 9.845,5.667 12.024 L 5.575 14.500 5.661 15.816 C 5.738 16.990,5.756 17.138,5.821 17.186 C 5.927 17.263,5.984 17.253,6.070 17.143 C 6.136 17.059,6.159 16.875,6.241 15.753 L 6.335 14.460 6.246 12.080 C 6.196 10.771,6.147 9.650,6.135 9.590 C 6.115 9.489,6.019 9.400,5.929 9.400 C 5.909 9.400,5.862 9.433,5.825 9.474 M4.926 10.390 C 4.848 10.457,4.839 10.558,4.738 12.460 L 4.632 14.460 4.722 15.740 C 4.772 16.444,4.827 17.061,4.845 17.110 C 4.884 17.218,5.044 17.232,5.124 17.135 C 5.161 17.091,5.210 16.663,5.282 15.766 L 5.387 14.461 5.282 12.455 C 5.166 10.238,5.158 10.193,4.926 10.390 M2.938 11.763 C 2.924 11.786,2.867 12.403,2.813 13.133 L 2.714 14.460 2.819 15.737 C 2.877 16.439,2.942 17.047,2.964 17.087 C 3.006 17.166,3.069 17.178,3.153 17.125 C 3.218 17.084,3.220 17.064,3.355 15.627 L 3.463 14.475 3.341 13.147 C 3.274 12.417,3.205 11.797,3.187 11.770 C 3.148 11.709,2.975 11.704,2.938 11.763 M2.013 11.850 C 1.996 11.877,1.933 12.476,1.874 13.180 L 1.766 14.460 1.883 15.714 C 1.948 16.404,2.010 16.985,2.023 17.004 C 2.054 17.056,2.143 17.048,2.191 16.990 C 2.214 16.962,2.290 16.379,2.361 15.693 L 2.489 14.445 2.362 13.179 C 2.292 12.482,2.225 11.887,2.213 11.856 C 2.186 11.786,2.056 11.783,2.013 11.850 M3.932 11.968 C 3.909 11.997,3.841 12.587,3.781 13.280 L 3.672 14.540 3.775 15.815 C 3.835 16.560,3.897 17.113,3.924 17.145 C 3.994 17.229,4.118 17.211,4.155 17.110 C 4.173 17.061,4.237 16.444,4.297 15.740 L 4.407 14.460 4.305 13.360 C 4.248 12.755,4.197 12.188,4.191 12.100 C 4.181 11.961,4.166 11.938,4.077 11.928 C 4.020 11.921,3.955 11.939,3.932 11.968 M1.100 12.280 C 1.087 12.302,1.023 12.805,0.958 13.398 L 0.840 14.477 0.961 15.547 C 1.027 16.136,1.098 16.634,1.118 16.654 C 1.234 16.770,1.268 16.638,1.398 15.554 L 1.529 14.460 1.403 13.440 C 1.334 12.879,1.269 12.380,1.258 12.330 C 1.238 12.238,1.144 12.208,1.100 12.280 M0.209 13.090 C 0.187 13.117,0.130 13.442,0.083 13.811 L -0.002 14.481 0.080 15.131 C 0.173 15.868,0.176 15.880,0.257 15.880 C 0.333 15.880,0.372 15.729,0.482 15.015 L 0.569 14.450 0.463 13.779 C 0.405 13.409,0.347 13.092,0.336 13.074 C 0.306 13.026,0.256 13.032,0.209 13.090 " stroke="none" fill="black" fill-rule="evenodd"></path></svg>