<svg role="img" viewBox="0 0 24 24" xmlns="http://www.w3.org/2000/svg"><path d="M11.192 0.042 C 9.942 0.132,8.801 0.397,7.545 0.888 L 7.031 1.090 7.145 1.159 C 8.577 2.022,9.541 2.715,10.731 3.740 C 12.696 5.431,14.453 7.342,16.330 9.829 C 16.733 10.364,17.047 10.745,17.058 10.714 C 17.107 10.571,17.160 9.988,17.160 9.581 C 17.160 7.699,16.497 5.178,15.551 3.466 C 15.444 3.272,15.362 3.095,15.369 3.073 C 15.392 3.003,16.530 4.206,16.872 4.661 C 17.279 5.204,17.617 5.873,17.861 6.619 C 18.513 8.610,19.063 10.602,19.475 12.460 C 19.756 13.724,20.520 17.692,20.520 17.884 C 20.520 17.947,20.442 17.898,20.150 17.651 C 19.087 16.754,17.347 15.697,15.100 14.583 C 13.925 14.001,12.967 13.556,10.240 12.329 C 6.924 10.836,6.102 10.454,4.400 9.615 C 4.037 9.437,3.734 9.296,3.726 9.303 C 3.718 9.310,3.794 9.528,3.895 9.788 L 4.079 10.261 4.624 10.576 C 5.282 10.956,6.068 11.473,6.186 11.604 C 6.338 11.772,7.550 14.137,8.409 15.940 C 9.065 17.318,9.398 18.086,9.961 19.520 C 10.872 21.841,11.343 22.914,11.648 23.360 C 11.700 23.437,11.757 23.522,11.773 23.548 C 11.838 23.655,11.043 23.337,9.600 22.680 C 8.640 22.242,6.155 21.051,6.112 21.008 C 6.097 20.993,6.029 20.593,5.961 20.120 C 5.424 16.387,4.368 12.317,2.571 7.060 C 2.383 6.510,2.205 6.011,2.175 5.952 C 2.145 5.893,2.120 5.832,2.120 5.817 C 2.120 5.802,2.296 5.969,2.510 6.187 C 4.341 8.051,7.842 9.717,11.737 10.578 C 13.174 10.896,14.237 11.014,15.469 10.993 L 16.197 10.980 15.433 10.000 C 15.013 9.461,14.485 8.804,14.260 8.540 C 11.943 5.818,9.405 3.909,6.400 2.627 C 6.015 2.463,5.581 2.287,5.435 2.236 L 5.169 2.143 4.855 2.379 C 4.031 2.996,3.075 3.930,2.506 4.673 C 1.090 6.526,0.238 8.734,0.041 11.060 C -0.064 12.301,0.052 13.603,0.387 14.934 C 1.286 18.516,3.769 21.469,7.140 22.961 C 9.443 23.981,11.924 24.247,14.394 23.738 C 19.298 22.727,23.022 18.854,23.837 13.920 C 24.235 11.503,23.851 8.968,22.742 6.700 C 20.607 2.336,16.027 -0.305,11.192 0.042 M19.292 7.266 C 19.529 7.489,19.896 7.794,20.107 7.944 C 20.553 8.260,20.716 8.461,21.332 9.458 C 21.550 9.811,21.812 10.226,21.914 10.379 C 22.016 10.533,22.116 10.685,22.136 10.717 C 22.194 10.810,21.283 10.002,20.607 9.361 C 19.832 8.626,18.803 7.535,18.602 7.233 C 18.474 7.042,18.359 6.765,18.174 6.200 C 18.163 6.167,18.313 6.302,18.507 6.500 C 18.701 6.698,19.054 7.043,19.292 7.266 " stroke="none" fill="black" fill-rule="evenodd"></path></svg>