<svg xmlns="http://www.w3.org/2000/svg" viewBox="0 0 24 24" role="img"><path d="M23.520 7.006 C 21.760 7.215,20.768 7.360,19.444 7.602 C 12.217 8.920,5.870 11.687,1.320 15.504 C 1.001 15.772,0.573 16.151,0.369 16.346 L -0.002 16.700 0.109 16.870 L 0.220 17.039 1.534 17.040 L 2.847 17.040 3.394 16.526 C 5.510 14.534,7.539 13.070,10.222 11.598 C 13.939 9.557,18.639 7.970,23.259 7.196 C 23.654 7.129,23.985 7.068,23.993 7.060 C 24.001 7.052,23.996 7.026,23.982 7.003 C 23.952 6.955,23.945 6.955,23.520 7.006 M0.298 10.659 C 0.250 10.748,0.237 10.812,0.261 10.835 C 0.344 10.912,3.444 13.160,3.468 13.160 C 3.482 13.160,3.684 13.053,3.917 12.922 C 4.149 12.791,4.595 12.552,4.907 12.391 L 5.474 12.097 4.398 11.309 L 3.322 10.520 1.847 10.520 L 0.373 10.520 0.298 10.659 M7.320 13.848 C 6.785 14.253,5.960 14.927,5.960 14.959 C 5.960 14.978,6.592 15.454,7.364 16.017 L 8.769 17.040 10.243 17.040 L 11.718 17.040 11.781 16.919 C 11.815 16.852,11.833 16.782,11.821 16.762 C 11.809 16.742,11.579 16.565,11.309 16.369 C 11.040 16.173,10.104 15.488,9.228 14.846 C 8.352 14.205,7.614 13.680,7.588 13.681 C 7.562 13.681,7.441 13.756,7.320 13.848 " stroke="none" fill="black" fill-rule="evenodd"></path></svg>