<svg role="img" viewBox="0 0 24 24" xmlns="http://www.w3.org/2000/svg"><path d="M11.600 0.057 C 11.600 0.069,11.654 0.167,11.720 0.274 C 11.908 0.580,12.108 1.037,12.216 1.410 C 12.559 2.595,12.376 3.845,11.640 5.340 C 11.251 6.130,10.893 6.707,9.592 8.642 C 8.277 10.599,7.847 11.297,7.340 12.300 C 6.479 14.006,6.079 15.436,6.014 17.040 C 5.953 18.532,6.290 19.766,7.084 20.962 C 7.399 21.437,8.195 22.239,8.720 22.611 C 9.443 23.123,10.634 23.655,11.607 23.902 L 12.000 24.001 12.393 23.902 C 13.373 23.653,14.558 23.124,15.280 22.611 C 15.806 22.238,16.601 21.436,16.916 20.962 C 17.714 19.761,18.046 18.536,17.986 17.020 C 17.922 15.409,17.653 14.402,16.740 12.361 C 16.323 11.429,16.193 11.085,16.098 10.660 C 16.007 10.252,16.007 9.704,16.098 9.347 C 16.137 9.197,16.160 9.066,16.149 9.056 C 16.108 9.015,15.636 9.456,15.427 9.730 C 14.842 10.497,14.546 11.385,14.542 12.387 L 14.540 12.875 14.455 12.795 C 14.318 12.667,14.164 12.348,14.079 12.017 C 13.927 11.420,13.980 10.696,14.297 9.060 C 14.609 7.447,14.658 7.118,14.719 6.251 C 14.863 4.214,14.303 2.582,12.992 1.219 C 12.531 0.739,11.600 -0.038,11.600 0.057 M12.960 14.100 C 14.141 14.480,14.996 15.350,15.329 16.508 C 15.453 16.940,15.453 17.681,15.328 18.131 C 15.041 19.171,14.345 20.052,13.460 20.493 C 12.927 20.758,12.651 20.820,12.000 20.819 C 11.322 20.818,11.091 20.767,10.534 20.499 C 9.631 20.063,8.949 19.257,8.672 18.297 C 8.595 18.031,8.581 17.887,8.581 17.400 C 8.582 16.722,8.633 16.491,8.901 15.934 C 9.397 14.907,10.321 14.209,11.480 13.985 C 11.535 13.975,11.814 13.971,12.100 13.978 C 12.536 13.988,12.675 14.008,12.960 14.100 " stroke="none" fill="black" fill-rule="evenodd"></path></svg>