<svg role="img" viewBox="0 0 24 24" xmlns="http://www.w3.org/2000/svg"><path d="M0.000 12.000 L 0.000 24.000 4.112 24.000 L 8.223 24.000 10.310 21.630 L 12.398 19.260 12.399 16.230 L 12.400 13.200 15.685 13.200 L 18.970 13.200 21.485 10.715 L 24.000 8.230 24.000 4.115 L 24.000 0.000 12.000 0.000 L 0.000 0.000 0.000 12.000 M12.260 11.914 C 8.564 15.606,5.490 18.659,5.429 18.698 C 5.368 18.738,5.307 18.761,5.295 18.748 C 5.245 18.698,5.203 14.924,5.202 10.210 L 5.200 5.200 12.090 5.201 L 18.980 5.202 12.260 11.914 M13.600 19.000 L 13.600 24.000 18.800 24.000 L 24.000 24.000 24.000 19.000 L 24.000 14.000 18.800 14.000 L 13.600 14.000 13.600 19.000 " stroke="none" fill="black" fill-rule="evenodd"></path></svg>