<svg role="img" viewBox="0 0 24 24" xmlns="http://www.w3.org/2000/svg"><path d="M2.449 0.510 C 3.993 2.273,6.305 5.364,8.658 8.811 C 8.985 9.289,9.259 9.674,9.268 9.666 C 9.313 9.620,8.568 7.898,8.037 6.820 C 6.580 3.861,4.920 1.734,3.180 0.601 C 2.863 0.395,2.169 0.040,2.082 0.040 C 2.057 0.040,2.222 0.251,2.449 0.510 M7.882 3.433 C 8.763 6.122,9.638 9.715,10.142 12.718 C 10.218 13.168,10.281 13.582,10.283 13.638 C 10.289 13.886,10.358 13.539,10.427 12.914 C 10.518 12.091,10.530 9.461,10.447 8.580 C 10.325 7.282,10.074 5.793,9.878 5.200 C 9.538 4.175,8.735 3.148,7.857 2.620 C 7.729 2.543,7.612 2.480,7.597 2.480 C 7.582 2.480,7.710 2.909,7.882 3.433 M11.787 5.550 C 11.675 8.602,10.794 13.803,9.982 16.197 C 9.904 16.426,9.845 16.618,9.850 16.624 C 9.869 16.642,10.705 15.504,11.088 14.940 C 12.967 12.174,14.077 9.380,13.989 7.640 C 13.949 6.868,13.734 6.415,13.100 5.775 C 12.838 5.509,12.561 5.279,12.295 5.105 C 12.072 4.959,11.872 4.840,11.851 4.840 C 11.829 4.840,11.802 5.143,11.787 5.550 M15.722 8.110 C 15.329 8.980,14.545 10.422,13.868 11.520 C 12.136 14.329,9.539 17.762,7.560 19.857 C 7.211 20.226,7.209 20.227,7.940 19.706 C 9.450 18.630,11.273 17.150,13.040 15.568 C 13.970 14.735,15.936 12.770,16.457 12.152 C 16.984 11.528,17.572 10.720,17.731 10.401 C 17.848 10.166,17.860 10.108,17.860 9.781 C 17.859 9.449,17.848 9.399,17.724 9.160 C 17.534 8.794,17.088 8.364,16.485 7.967 C 16.212 7.787,15.977 7.640,15.962 7.640 C 15.947 7.640,15.839 7.851,15.722 8.110 M18.959 11.063 C 15.143 14.910,6.941 21.275,2.729 23.660 C 2.503 23.787,2.325 23.899,2.333 23.907 C 2.374 23.948,4.166 23.275,5.500 22.718 C 9.419 21.083,14.312 18.524,18.460 15.941 C 19.747 15.140,21.428 14.015,21.609 13.833 C 21.963 13.479,22.038 13.063,21.825 12.636 C 21.575 12.135,20.872 11.457,19.980 10.856 C 19.738 10.693,19.522 10.560,19.499 10.560 C 19.477 10.560,19.234 10.786,18.959 11.063 " stroke="none" fill="black" fill-rule="evenodd"></path></svg>