<svg role="img" xmlns="http://www.w3.org/2000/svg" viewBox="0 0 24 24"><path d="M3.310 0.063 C 2.253 0.255,1.282 0.887,0.683 1.773 C 0.480 2.072,0.212 2.669,0.112 3.042 L 0.021 3.380 0.009 11.800 C -0.000 17.927,0.009 20.307,0.042 20.539 C 0.257 22.056,1.308 23.305,2.780 23.795 C 2.978 23.861,3.293 23.935,3.480 23.959 C 3.720 23.990,6.287 24.000,12.220 23.991 L 20.620 23.980 20.960 23.887 C 21.454 23.752,22.121 23.414,22.508 23.101 C 23.254 22.501,23.772 21.613,23.941 20.645 C 24.030 20.141,24.030 3.859,23.941 3.355 C 23.662 1.762,22.531 0.538,20.940 0.108 L 20.620 0.021 12.120 0.014 C 4.953 0.008,3.571 0.015,3.310 0.063 M18.743 4.419 C 19.058 4.514,19.318 4.739,19.480 5.057 L 19.620 5.332 19.620 12.000 L 19.620 18.668 19.480 18.943 C 19.318 19.261,19.058 19.486,18.743 19.581 C 18.445 19.670,5.555 19.670,5.257 19.581 C 4.942 19.486,4.682 19.261,4.520 18.943 L 4.380 18.668 4.380 12.004 L 4.380 5.340 4.485 5.117 C 4.651 4.763,4.980 4.485,5.340 4.398 C 5.406 4.381,8.404 4.366,12.003 4.364 C 17.681 4.361,18.572 4.368,18.743 4.419 M9.110 8.802 C 9.027 8.846,8.910 8.957,8.850 9.048 L 8.740 9.214 8.729 11.889 C 8.722 13.634,8.732 14.617,8.759 14.716 C 8.813 14.918,8.933 15.064,9.122 15.161 C 9.272 15.237,9.369 15.240,12.000 15.240 C 14.593 15.240,14.730 15.236,14.872 15.164 C 15.055 15.071,15.139 14.980,15.218 14.790 C 15.272 14.662,15.280 14.286,15.279 11.971 C 15.278 8.967,15.290 9.094,14.977 8.855 L 14.826 8.740 12.043 8.731 C 9.332 8.723,9.256 8.725,9.110 8.802 " stroke="none" fill="black" fill-rule="evenodd"></path></svg>