<svg role="img" viewBox="0 0 24 24" xmlns="http://www.w3.org/2000/svg"><path d="M14.871 0.651 L 14.002 1.295 14.095 1.418 C 14.146 1.485,15.561 3.385,17.238 5.640 C 18.916 7.895,20.320 9.773,20.359 9.814 C 20.427 9.885,20.459 9.865,21.275 9.260 C 21.740 8.915,22.120 8.616,22.120 8.595 C 22.120 8.561,15.898 0.172,15.785 0.053 C 15.751 0.018,15.527 0.164,14.871 0.651 M11.148 4.203 C 10.801 4.621,10.508 4.986,10.497 5.014 C 10.485 5.044,12.098 6.417,14.524 8.442 C 16.750 10.300,18.594 11.833,18.622 11.850 C 18.656 11.870,18.883 11.629,19.326 11.100 C 19.686 10.671,19.980 10.302,19.980 10.279 C 19.980 10.238,11.853 3.439,11.806 3.441 C 11.792 3.442,11.496 3.784,11.148 4.203 M8.172 8.850 C 7.925 9.382,7.727 9.820,7.732 9.824 C 7.736 9.828,9.891 10.834,12.520 12.060 C 15.149 13.286,17.329 14.305,17.365 14.323 C 17.420 14.352,17.502 14.204,17.878 13.394 C 18.124 12.863,18.311 12.415,18.293 12.397 C 18.275 12.380,16.712 11.642,14.820 10.759 C 12.928 9.876,10.767 8.867,10.017 8.516 C 9.267 8.166,8.646 7.881,8.637 7.881 C 8.628 7.882,8.418 8.318,8.172 8.850 M6.818 12.854 C 6.809 12.879,6.705 13.341,6.587 13.880 C 6.376 14.847,6.375 14.860,6.457 14.888 C 6.526 14.912,16.625 17.025,16.795 17.051 C 16.837 17.058,16.906 16.809,17.065 16.080 C 17.183 15.541,17.280 15.079,17.280 15.053 C 17.280 15.027,17.248 14.995,17.210 14.983 C 17.171 14.971,14.944 14.503,12.260 13.943 C 9.576 13.382,7.257 12.898,7.107 12.866 C 6.907 12.824,6.830 12.821,6.818 12.854 M1.840 19.740 L 1.840 24.000 11.480 24.000 L 21.120 24.000 21.120 19.740 L 21.120 15.480 20.060 15.480 L 19.000 15.480 18.990 18.670 L 18.980 21.860 11.480 21.860 L 3.980 21.860 3.970 18.670 L 3.960 15.480 2.900 15.480 L 1.840 15.480 1.840 19.740 M6.120 18.660 L 6.120 19.720 11.480 19.720 L 16.840 19.720 16.840 18.660 L 16.840 17.600 11.480 17.600 L 6.120 17.600 6.120 18.660 " stroke="none" fill="black" fill-rule="evenodd"></path></svg>