<svg role="img" viewBox="0 0 24 24" xmlns="http://www.w3.org/2000/svg"><path d="M11.120 0.024 C 10.646 0.066,9.895 0.176,9.480 0.265 C 5.042 1.209,1.493 4.613,0.363 9.007 C 0.206 9.618,0.076 10.386,0.067 10.755 L 0.060 11.049 1.000 11.440 C 3.892 12.640,6.348 13.653,6.403 13.668 C 6.438 13.678,6.556 13.633,6.664 13.569 C 7.134 13.293,7.745 13.120,8.256 13.120 L 8.547 13.120 9.962 11.073 L 11.376 9.026 11.408 8.763 C 11.495 8.053,11.535 7.842,11.643 7.511 C 12.128 6.027,13.315 4.928,14.885 4.511 C 15.176 4.433,15.317 4.422,15.960 4.424 C 16.590 4.426,16.747 4.439,17.014 4.512 C 17.854 4.744,18.486 5.101,19.080 5.680 C 19.887 6.468,20.343 7.420,20.438 8.520 C 20.599 10.375,19.612 12.128,17.929 12.976 C 17.433 13.226,16.558 13.439,16.024 13.440 C 15.831 13.440,15.802 13.459,13.795 14.890 L 11.762 16.340 11.761 16.560 C 11.758 17.084,11.588 17.700,11.308 18.200 C 11.193 18.405,11.014 18.627,10.740 18.904 C 10.382 19.265,10.296 19.329,9.920 19.514 C 9.352 19.794,8.980 19.886,8.400 19.889 C 6.854 19.899,5.514 18.894,5.101 17.417 L 5.033 17.174 2.749 16.228 C 1.493 15.707,0.459 15.287,0.452 15.294 C 0.436 15.311,0.711 16.126,0.859 16.500 C 1.173 17.295,1.727 18.290,2.272 19.038 C 4.633 22.282,8.415 24.129,12.400 23.986 C 14.980 23.894,17.450 22.983,19.462 21.381 C 19.970 20.976,20.938 20.011,21.328 19.520 C 22.779 17.691,23.635 15.635,23.900 13.340 C 23.978 12.665,23.978 11.335,23.900 10.660 C 23.672 8.687,22.987 6.841,21.890 5.240 C 20.954 3.875,19.578 2.568,18.220 1.753 C 16.311 0.607,14.392 0.056,12.200 0.022 C 11.705 0.014,11.219 0.015,11.120 0.024 M15.484 5.927 C 15.343 5.947,15.073 6.021,14.884 6.092 C 13.445 6.634,12.644 8.167,13.019 9.660 C 13.053 9.792,13.165 10.071,13.268 10.280 C 13.426 10.598,13.516 10.719,13.818 11.022 C 14.218 11.421,14.575 11.636,15.120 11.806 C 15.552 11.940,16.328 11.940,16.760 11.806 C 18.454 11.279,19.352 9.548,18.781 7.909 C 18.577 7.320,18.111 6.727,17.580 6.379 C 17.264 6.172,16.736 5.977,16.347 5.923 C 15.992 5.874,15.846 5.875,15.484 5.927 M16.408 6.684 C 17.219 6.851,17.926 7.530,18.137 8.346 C 18.500 9.753,17.410 11.156,15.952 11.159 C 15.585 11.160,15.314 11.098,14.960 10.930 C 14.568 10.745,14.110 10.298,13.926 9.920 C 13.512 9.070,13.649 8.068,14.272 7.393 C 14.623 7.013,15.099 6.745,15.560 6.668 C 15.766 6.633,16.203 6.641,16.408 6.684 M7.940 13.986 C 7.718 14.032,7.520 14.093,7.520 14.115 C 7.520 14.129,7.804 14.255,8.150 14.396 C 8.497 14.537,8.908 14.714,9.065 14.789 C 9.447 14.972,9.761 15.287,9.951 15.680 C 10.079 15.944,10.098 16.025,10.113 16.354 C 10.134 16.815,10.054 17.145,9.842 17.471 C 9.538 17.939,9.091 18.231,8.535 18.326 C 8.113 18.398,7.839 18.334,6.900 17.943 C 6.460 17.761,6.093 17.617,6.085 17.623 C 6.078 17.630,6.155 17.762,6.258 17.917 C 6.963 18.977,8.340 19.337,9.500 18.763 C 10.100 18.466,10.575 17.914,10.784 17.269 C 10.908 16.885,10.935 16.290,10.845 15.920 C 10.622 15.003,9.857 14.233,8.960 14.022 C 8.722 13.966,8.134 13.945,7.940 13.986 " stroke="none" fill="black" fill-rule="evenodd"></path></svg>