<svg role="img" viewBox="0 0 24 24" xmlns="http://www.w3.org/2000/svg"><path d="M11.220 0.026 C 8.579 0.232,6.248 1.172,4.289 2.822 C 3.815 3.221,2.994 4.059,2.625 4.520 C 0.319 7.404,-0.530 11.247,0.345 14.840 C 0.741 16.468,1.571 18.157,2.624 19.480 C 2.972 19.918,4.082 21.028,4.520 21.376 C 8.485 24.531,14.036 24.862,18.313 22.198 C 21.423 20.261,23.475 17.030,23.927 13.360 C 23.994 12.816,23.994 11.184,23.927 10.640 C 23.448 6.751,21.208 3.413,17.790 1.494 C 16.635 0.846,15.146 0.339,13.808 0.139 C 13.017 0.021,11.907 -0.028,11.220 0.026 M13.320 2.822 C 15.282 3.117,17.023 3.974,18.432 5.338 C 19.937 6.794,20.863 8.603,21.186 10.720 C 21.283 11.354,21.283 12.646,21.186 13.280 C 20.863 15.397,19.937 17.206,18.432 18.662 C 17.672 19.398,16.961 19.892,15.980 20.364 C 14.679 20.990,13.490 21.256,12.000 21.255 C 11.090 21.255,10.591 21.197,9.780 20.996 C 6.688 20.229,4.194 17.920,3.209 14.913 C 2.866 13.868,2.746 13.110,2.746 12.000 C 2.746 10.890,2.866 10.132,3.209 9.087 C 4.194 6.079,6.683 3.775,9.780 3.004 C 10.234 2.891,10.898 2.781,11.340 2.745 C 11.724 2.714,12.903 2.760,13.320 2.822 M13.837 8.456 C 13.757 8.510,13.662 8.627,13.618 8.725 C 13.543 8.891,13.540 9.012,13.540 11.959 L 13.540 15.020 13.629 15.186 C 13.751 15.414,13.934 15.520,14.205 15.519 C 14.474 15.518,14.541 15.487,15.600 14.873 C 16.073 14.599,17.063 14.027,17.800 13.602 C 19.610 12.560,19.707 12.498,19.827 12.316 C 20.048 11.983,19.956 11.591,19.597 11.335 C 19.399 11.195,15.084 8.696,14.685 8.491 C 14.357 8.322,14.053 8.310,13.837 8.456 " stroke="none" fill="black" fill-rule="evenodd"></path></svg>