<svg role="img" viewBox="0 0 24 24" xmlns="http://www.w3.org/2000/svg"><path d="M17.640 12.000 L 17.640 17.085 17.810 17.072 L 17.980 17.060 17.980 12.000 L 17.980 6.940 17.810 6.928 L 17.640 6.915 17.640 12.000 M0.000 12.000 L 0.000 15.920 8.060 15.920 L 16.120 15.920 16.120 12.000 L 16.120 8.080 8.060 8.080 L 0.000 8.080 0.000 12.000 M16.880 12.000 L 16.880 15.920 17.060 15.920 L 17.240 15.920 17.240 12.000 L 17.240 8.080 17.060 8.080 L 16.880 8.080 16.880 12.000 M18.400 12.000 L 18.400 15.920 18.580 15.920 L 18.760 15.920 18.760 12.000 L 18.760 8.080 18.580 8.080 L 18.400 8.080 18.400 12.000 M19.480 12.000 L 19.480 15.920 21.740 15.920 L 24.000 15.920 24.000 12.000 L 24.000 8.080 21.740 8.080 L 19.480 8.080 19.480 12.000 " stroke="none" fill="black" fill-rule="evenodd"></path></svg>