<svg role="img" viewBox="0 0 24 24" xmlns="http://www.w3.org/2000/svg"><path d="M10.160 0.454 C 9.731 0.703,7.454 2.019,5.100 3.377 C 2.664 4.783,0.770 5.900,0.704 5.971 L 0.588 6.095 0.616 7.237 C 0.637 8.109,0.657 8.400,0.700 8.465 C 0.784 8.594,4.869 10.934,5.040 10.951 C 5.164 10.964,5.350 10.859,6.660 10.038 C 7.474 9.527,8.146 9.104,8.154 9.098 C 8.167 9.086,8.680 6.647,8.680 6.594 C 8.680 6.579,8.757 6.524,8.850 6.470 C 8.944 6.416,10.762 5.368,12.891 4.142 L 16.762 1.912 17.376 2.266 C 17.713 2.461,19.035 3.223,20.313 3.960 L 22.637 5.300 22.638 8.721 L 22.640 12.142 18.689 14.409 C 16.516 15.656,14.712 16.685,14.679 16.698 C 14.647 16.710,13.990 16.568,13.220 16.384 L 11.820 16.048 10.424 16.859 C 9.542 17.372,9.008 17.706,8.975 17.765 C 8.934 17.840,8.923 18.362,8.921 20.285 C 8.920 22.623,8.923 22.713,8.997 22.808 C 9.097 22.934,10.952 24.000,11.072 24.000 C 11.196 24.000,11.131 24.035,13.580 22.619 C 14.768 21.932,16.991 20.647,18.520 19.763 C 20.049 18.880,21.349 18.103,21.410 18.038 L 21.520 17.919 21.520 16.377 C 21.520 15.154,21.510 14.842,21.470 14.866 C 21.442 14.882,21.271 14.991,21.090 15.108 L 20.760 15.320 20.760 16.440 L 20.760 17.559 20.610 17.653 C 20.351 17.815,11.178 23.116,11.118 23.138 C 11.086 23.150,10.754 22.982,10.380 22.764 L 9.700 22.370 9.690 20.285 L 9.679 18.199 9.890 18.067 C 10.005 17.993,10.544 17.678,11.087 17.364 L 12.074 16.795 13.482 17.134 L 14.890 17.473 15.975 16.850 C 16.572 16.507,18.014 15.679,19.180 15.009 C 20.346 14.339,21.729 13.546,22.254 13.246 C 22.779 12.946,23.251 12.657,23.304 12.605 L 23.400 12.509 23.410 9.065 C 23.416 7.170,23.420 5.474,23.419 5.297 C 23.419 5.079,23.399 4.944,23.359 4.885 C 23.267 4.747,16.973 1.109,16.792 1.089 C 16.655 1.073,16.296 1.278,12.312 3.641 C 9.929 5.054,7.976 6.214,7.971 6.218 C 7.966 6.222,7.852 6.764,7.719 7.423 C 7.585 8.081,7.461 8.657,7.442 8.702 C 7.421 8.754,6.993 9.022,6.294 9.420 C 5.681 9.769,5.152 10.072,5.117 10.093 C 5.068 10.122,4.627 9.884,3.232 9.079 L 1.411 8.028 1.389 7.244 C 1.373 6.674,1.380 6.448,1.413 6.415 C 1.439 6.390,2.621 5.699,4.040 4.879 C 5.459 4.059,7.596 2.824,8.788 2.134 C 9.981 1.444,10.980 0.870,11.009 0.859 C 11.038 0.848,11.487 1.097,12.008 1.414 L 12.954 1.989 13.317 1.785 C 13.517 1.672,13.680 1.568,13.680 1.554 C 13.680 1.540,13.622 1.493,13.550 1.450 C 13.478 1.407,12.910 1.063,12.287 0.686 C 11.561 0.246,11.116 0.000,11.047 0.001 C 10.984 0.001,10.619 0.187,10.160 0.454 M16.380 6.705 C 15.940 6.960,15.540 7.206,15.490 7.252 C 15.401 7.333,15.400 7.346,15.400 8.383 C 15.400 9.324,15.407 9.439,15.470 9.512 C 15.508 9.556,15.937 9.810,16.422 10.075 C 17.113 10.453,17.325 10.551,17.401 10.531 C 17.546 10.493,19.054 9.615,19.143 9.516 C 19.214 9.439,19.221 9.352,19.232 8.456 C 19.242 7.635,19.234 7.460,19.181 7.348 C 19.129 7.238,18.978 7.136,18.264 6.728 C 17.711 6.412,17.369 6.240,17.295 6.241 C 17.222 6.241,16.890 6.410,16.380 6.705 M17.880 7.397 L 18.420 7.711 18.431 8.386 L 18.442 9.061 17.896 9.377 C 17.595 9.551,17.328 9.693,17.301 9.693 C 17.274 9.693,17.006 9.551,16.707 9.377 L 16.162 9.060 16.161 8.393 L 16.160 7.726 16.710 7.405 C 17.012 7.228,17.278 7.084,17.300 7.084 C 17.322 7.084,17.583 7.225,17.880 7.397 M6.356 12.076 C 6.237 12.139,5.879 12.342,5.560 12.527 C 5.078 12.806,4.968 12.888,4.908 13.008 C 4.843 13.141,4.842 13.166,4.897 13.298 C 4.939 13.399,5.001 13.461,5.100 13.503 C 5.231 13.557,5.258 13.556,5.412 13.487 C 5.708 13.355,6.857 12.679,6.930 12.593 C 7.017 12.491,7.021 12.269,6.937 12.142 C 6.884 12.060,6.697 11.960,6.600 11.960 C 6.584 11.960,6.474 12.012,6.356 12.076 M7.417 13.657 C 7.207 13.748,4.744 15.168,4.660 15.247 C 4.603 15.301,4.580 15.374,4.580 15.505 C 4.580 15.657,4.599 15.704,4.697 15.788 C 4.898 15.961,5.001 15.920,6.435 15.099 C 7.153 14.688,7.780 14.315,7.828 14.271 C 8.132 13.992,7.797 13.492,7.417 13.657 M6.798 16.182 C 5.908 16.678,5.140 17.129,5.090 17.184 C 4.950 17.340,4.966 17.565,5.128 17.701 C 5.232 17.788,5.284 17.805,5.406 17.788 C 5.532 17.771,7.693 16.600,8.607 16.053 C 8.862 15.901,8.954 15.734,8.884 15.551 C 8.832 15.415,8.653 15.280,8.523 15.280 C 8.459 15.280,7.775 15.638,6.798 16.182 " stroke="none" fill="black" fill-rule="evenodd"></path></svg>