<svg role="img" viewBox="0 0 24 24" xmlns="http://www.w3.org/2000/svg"><path d="M2.760 6.658 C 2.727 6.666,2.565 6.695,2.400 6.721 C 1.540 6.860,0.907 7.276,0.556 7.935 C 0.382 8.261,0.321 8.520,0.320 8.943 C 0.319 9.977,0.914 10.708,2.104 11.133 C 2.260 11.188,2.737 11.327,3.164 11.440 C 4.340 11.752,4.562 11.840,4.787 12.085 C 5.081 12.404,4.987 12.999,4.590 13.340 C 4.291 13.595,4.061 13.657,3.400 13.658 C 2.886 13.660,2.794 13.649,2.592 13.568 C 2.148 13.388,1.813 12.975,1.656 12.410 C 1.592 12.177,1.579 12.160,1.471 12.160 C 1.328 12.160,0.025 12.285,0.007 12.301 C -0.018 12.323,0.086 12.826,0.167 13.080 C 0.641 14.552,1.894 15.232,3.841 15.077 C 4.807 14.999,5.398 14.770,5.885 14.284 C 6.386 13.783,6.600 13.259,6.599 12.534 C 6.598 11.798,6.416 11.334,5.941 10.858 C 5.501 10.418,5.015 10.200,3.760 9.883 C 2.639 9.599,2.225 9.436,2.025 9.199 C 1.896 9.046,1.863 8.925,1.892 8.711 C 1.924 8.477,2.026 8.359,2.332 8.204 C 2.846 7.945,3.625 7.937,4.114 8.187 C 4.381 8.323,4.566 8.569,4.671 8.927 L 4.740 9.160 5.204 9.160 C 5.459 9.160,5.832 9.148,6.032 9.134 L 6.397 9.108 6.375 8.924 C 6.307 8.360,6.107 7.891,5.776 7.526 C 5.407 7.119,4.957 6.876,4.305 6.735 C 4.047 6.679,2.908 6.623,2.760 6.658 M15.306 8.983 C 14.911 9.079,14.576 9.265,14.261 9.564 C 14.101 9.716,13.959 9.840,13.945 9.840 C 13.931 9.840,13.920 9.660,13.920 9.440 L 13.920 9.040 13.200 9.040 L 12.479 9.040 12.490 11.990 L 12.500 14.940 13.266 14.951 L 14.031 14.962 14.051 13.131 C 14.071 11.232,14.087 11.050,14.253 10.732 C 14.439 10.377,14.828 10.148,15.280 10.128 C 15.545 10.116,15.605 10.128,15.800 10.227 C 16.078 10.370,16.229 10.601,16.281 10.964 C 16.302 11.105,16.319 12.062,16.319 13.090 L 16.320 14.960 17.100 14.960 L 17.880 14.960 17.884 13.590 C 17.888 12.267,17.890 12.232,17.943 12.578 C 18.133 13.800,18.742 14.541,19.866 14.918 C 20.496 15.129,21.288 15.152,21.880 14.977 C 22.571 14.773,23.293 14.179,23.627 13.540 C 23.899 13.020,23.976 12.682,23.978 12.000 C 23.979 11.321,23.905 10.996,23.630 10.462 C 23.387 9.991,22.864 9.477,22.400 9.251 C 21.942 9.027,21.669 8.961,21.099 8.933 C 20.035 8.881,19.174 9.237,18.580 9.974 C 18.253 10.380,18.041 10.853,17.943 11.393 L 17.887 11.700 17.882 11.200 C 17.873 10.304,17.727 9.805,17.370 9.448 C 17.175 9.253,16.741 9.034,16.408 8.965 C 16.123 8.905,15.593 8.914,15.306 8.983 M6.450 9.110 C 6.460 9.149,6.957 10.470,7.554 12.046 C 8.151 13.622,8.640 14.945,8.639 14.986 C 8.638 15.102,8.469 15.484,8.329 15.687 C 8.088 16.038,7.739 16.155,7.156 16.082 C 6.974 16.059,6.821 16.046,6.815 16.052 C 6.793 16.074,6.925 17.221,6.953 17.249 C 7.014 17.310,7.636 17.368,8.000 17.347 C 8.949 17.290,9.442 16.968,9.840 16.142 C 9.988 15.836,12.336 9.461,12.430 9.110 C 12.448 9.045,12.392 9.040,11.651 9.040 L 10.853 9.040 10.424 10.350 C 9.576 12.937,9.501 13.160,9.477 13.160 C 9.464 13.160,9.142 12.233,8.762 11.100 L 8.070 9.040 7.251 9.040 C 6.489 9.040,6.432 9.045,6.450 9.110 M21.428 10.286 C 21.749 10.406,22.114 10.772,22.234 11.094 C 22.546 11.927,22.370 13.027,21.853 13.480 C 21.590 13.712,21.305 13.818,20.939 13.819 C 20.657 13.820,20.587 13.804,20.353 13.690 C 20.207 13.618,20.022 13.486,19.940 13.395 C 19.482 12.888,19.352 11.879,19.643 11.100 C 19.763 10.779,20.127 10.408,20.440 10.289 C 20.739 10.174,21.125 10.173,21.428 10.286 " stroke="none" fill="black" fill-rule="evenodd"></path></svg>