<svg role="img" xmlns="http://www.w3.org/2000/svg" viewBox="0 0 24 24"><path d="M11.667 0.187 C 11.652 0.201,11.640 0.696,11.640 1.287 L 11.640 2.360 10.660 2.360 L 9.680 2.360 9.680 2.660 L 9.680 2.960 10.660 2.960 L 11.640 2.960 11.640 4.060 L 11.640 5.160 12.000 5.160 L 12.360 5.160 12.360 4.060 L 12.360 2.960 13.340 2.960 L 14.320 2.960 14.320 2.660 L 14.320 2.360 13.340 2.360 L 12.360 2.360 12.360 1.260 L 12.360 0.160 12.027 0.160 C 11.843 0.160,11.681 0.172,11.667 0.187 M17.680 4.060 L 17.680 5.680 16.200 5.680 L 14.720 5.680 14.720 6.140 L 14.720 6.600 16.200 6.600 L 17.680 6.600 17.680 8.200 L 17.680 9.800 18.194 9.800 L 18.707 9.800 18.736 8.231 C 18.751 7.369,18.767 6.660,18.772 6.655 C 18.776 6.651,19.433 6.635,20.230 6.619 L 21.680 6.589 21.680 6.135 L 21.680 5.680 20.200 5.680 L 18.720 5.680 18.720 4.060 L 18.720 2.440 18.200 2.440 L 17.680 2.440 17.680 4.060 M5.280 4.079 L 5.280 5.680 3.780 5.680 L 2.280 5.680 2.280 6.140 L 2.280 6.600 3.780 6.600 L 5.280 6.600 5.280 8.200 L 5.280 9.800 5.780 9.800 L 6.280 9.800 6.280 8.200 L 6.280 6.600 7.780 6.600 L 9.280 6.600 9.280 6.140 L 9.280 5.680 7.780 5.680 L 6.281 5.680 6.270 4.090 L 6.260 2.500 5.770 2.489 L 5.280 2.478 5.280 4.079 M11.360 9.560 L 11.360 11.360 9.699 11.360 L 8.038 11.360 8.049 11.950 L 8.060 12.540 9.710 12.550 L 11.360 12.561 11.360 14.360 L 11.360 16.160 12.000 16.160 L 12.640 16.160 12.640 14.360 L 12.640 12.560 14.300 12.560 L 15.960 12.560 15.960 11.960 L 15.960 11.360 14.300 11.360 L 12.640 11.360 12.640 9.560 L 12.640 7.760 12.000 7.760 L 11.360 7.760 11.360 9.560 M21.080 10.420 L 21.080 11.520 20.080 11.520 L 19.080 11.520 19.080 11.940 L 19.080 12.360 20.080 12.360 L 21.080 12.360 21.080 13.480 L 21.080 14.600 21.520 14.600 L 21.960 14.600 21.960 13.480 L 21.960 12.360 22.980 12.360 L 24.000 12.360 24.000 11.940 L 24.000 11.520 22.980 11.520 L 21.960 11.520 21.960 10.420 L 21.960 9.320 21.520 9.320 L 21.080 9.320 21.080 10.420 M1.960 10.540 L 1.960 11.640 0.980 11.640 L 0.000 11.640 0.000 11.940 L 0.000 12.240 0.980 12.240 L 1.960 12.240 1.960 13.340 L 1.960 14.440 2.300 14.440 L 2.640 14.440 2.640 13.340 L 2.640 12.240 3.640 12.240 L 4.640 12.240 4.640 11.941 L 4.640 11.641 3.630 11.631 L 2.620 11.620 2.609 10.530 L 2.599 9.440 2.279 9.440 L 1.960 9.440 1.960 10.540 M5.227 13.987 C 5.212 14.001,5.200 14.730,5.200 15.607 L 5.200 17.200 3.740 17.200 L 2.280 17.200 2.280 17.680 L 2.280 18.160 3.740 18.160 L 5.200 18.160 5.200 19.740 L 5.200 21.320 5.760 21.320 L 6.320 21.320 6.320 19.740 L 6.320 18.160 7.800 18.160 L 9.280 18.160 9.280 17.680 L 9.280 17.200 7.800 17.200 L 6.320 17.200 6.320 15.580 L 6.320 13.960 5.787 13.960 C 5.493 13.960,5.241 13.972,5.227 13.987 M17.680 15.580 L 17.680 17.200 16.180 17.200 L 14.680 17.200 14.680 17.680 L 14.680 18.160 16.180 18.160 L 17.680 18.160 17.680 19.760 L 17.680 21.360 18.220 21.360 L 18.760 21.360 18.760 19.760 L 18.760 18.161 20.250 18.150 L 21.740 18.140 21.740 17.680 L 21.740 17.220 20.250 17.210 L 18.760 17.199 18.760 15.580 L 18.760 13.960 18.220 13.960 L 17.680 13.960 17.680 15.580 M11.520 19.660 L 11.520 20.760 10.540 20.760 L 9.560 20.760 9.560 21.160 L 9.560 21.560 10.539 21.560 L 11.519 21.560 11.529 22.690 L 11.540 23.820 12.000 23.820 L 12.460 23.820 12.471 22.690 L 12.481 21.560 13.481 21.560 L 14.480 21.560 14.480 21.160 L 14.480 20.760 13.480 20.760 L 12.480 20.760 12.480 19.660 L 12.480 18.560 12.000 18.560 L 11.520 18.560 11.520 19.660 " stroke="none" fill="black" fill-rule="evenodd"></path></svg>