<svg xmlns="http://www.w3.org/2000/svg" role="img" viewBox="0 0 24 24"><path d="M3.973 0.059 C 2.632 0.303,1.271 1.298,0.663 2.480 C 0.206 3.369,0.166 4.132,0.526 5.150 C 0.650 5.502,0.966 6.163,1.197 6.555 L 1.321 6.766 0.876 7.233 C 0.381 7.752,0.254 7.921,0.216 8.109 C 0.194 8.222,0.202 8.239,0.295 8.262 C 0.456 8.303,0.568 8.259,0.928 8.014 C 1.514 7.615,3.774 5.792,6.860 3.227 C 9.237 1.251,9.400 1.097,9.400 0.826 C 9.400 0.755,9.372 0.722,9.296 0.703 C 9.130 0.661,8.932 0.748,8.440 1.077 C 8.187 1.246,7.914 1.424,7.834 1.473 L 7.689 1.561 7.294 1.168 C 6.844 0.720,6.399 0.412,5.954 0.240 C 5.369 0.015,4.605 -0.055,3.973 0.059 M11.629 2.761 C 9.347 2.952,7.135 3.818,5.420 5.191 C 4.937 5.577,4.148 6.379,3.808 6.827 C 2.878 8.057,2.300 9.489,2.158 10.920 C 2.060 11.905,2.202 12.793,2.702 14.320 L 2.918 14.980 3.469 14.982 C 3.985 14.983,4.044 14.991,4.400 15.114 C 4.806 15.254,5.237 15.499,5.523 15.755 C 5.784 15.987,5.693 15.992,5.406 15.762 C 5.110 15.524,4.771 15.357,4.339 15.234 C 3.868 15.101,3.157 15.110,2.667 15.256 C 2.227 15.387,2.039 15.482,1.907 15.639 C 1.774 15.798,1.744 15.967,1.771 16.416 L 1.792 16.780 1.406 16.897 C 1.194 16.961,1.005 17.026,0.987 17.042 C 0.922 17.097,0.736 19.963,0.640 22.380 C 0.582 23.844,0.579 23.780,0.713 23.875 C 0.939 24.036,0.932 24.059,0.945 23.060 C 0.951 22.554,0.968 21.884,0.982 21.571 L 1.008 21.002 1.154 20.977 C 1.575 20.906,1.681 20.844,1.627 20.703 C 1.608 20.654,1.573 20.654,1.372 20.702 C 0.999 20.791,1.025 20.829,1.055 20.230 C 1.104 19.264,1.312 17.355,1.375 17.292 C 1.397 17.270,1.806 17.161,1.869 17.160 C 1.896 17.160,1.963 17.247,2.017 17.354 C 2.151 17.619,2.491 17.982,2.737 18.123 C 3.295 18.443,3.682 18.102,3.956 17.046 L 4.067 16.620 4.403 16.553 C 5.820 16.269,7.990 16.044,10.100 15.960 C 13.434 15.829,17.134 16.054,20.069 16.568 L 20.558 16.654 20.642 16.917 C 20.774 17.326,21.035 17.798,21.177 17.885 C 21.488 18.074,21.874 17.911,22.283 17.417 C 22.491 17.165,22.505 17.156,22.640 17.181 C 22.717 17.195,22.835 17.230,22.902 17.258 C 23.022 17.308,23.025 17.317,23.073 17.725 C 23.221 18.968,23.381 20.872,23.341 20.913 C 23.334 20.920,23.252 20.905,23.158 20.880 C 23.024 20.843,22.978 20.845,22.936 20.887 C 22.855 20.968,22.925 21.038,23.143 21.091 L 23.340 21.140 23.365 21.344 C 23.379 21.457,23.403 22.100,23.420 22.773 L 23.449 23.997 23.561 23.940 C 23.800 23.816,23.800 23.815,23.799 23.047 C 23.798 20.897,23.531 17.608,23.314 17.068 C 23.263 16.942,23.137 16.866,22.866 16.797 C 22.764 16.772,22.680 16.745,22.680 16.738 C 22.680 16.731,22.709 16.602,22.743 16.452 C 22.833 16.068,22.809 15.526,22.697 15.373 C 22.584 15.220,22.286 15.063,21.900 14.952 C 21.629 14.874,21.488 14.861,20.980 14.861 C 20.413 14.862,20.360 14.869,20.018 14.988 C 19.599 15.133,19.243 15.332,19.030 15.542 C 18.948 15.623,18.880 15.671,18.880 15.648 C 18.880 15.625,18.989 15.497,19.123 15.364 C 19.395 15.091,19.847 14.845,20.280 14.733 C 20.563 14.660,21.383 14.636,21.746 14.691 L 21.953 14.722 22.037 14.363 C 22.196 13.688,22.250 13.176,22.251 12.360 C 22.251 11.252,22.131 10.540,21.758 9.459 C 20.948 7.106,19.524 5.220,17.706 4.093 C 16.631 3.426,15.199 2.955,13.784 2.801 C 13.214 2.739,12.130 2.719,11.629 2.761 M16.767 8.566 C 17.016 8.662,17.240 9.167,17.270 9.700 C 17.300 10.238,17.154 10.497,16.864 10.424 C 16.414 10.312,16.045 9.269,16.262 8.726 C 16.356 8.492,16.475 8.455,16.767 8.566 M8.242 9.935 C 8.597 10.177,8.868 11.163,8.721 11.677 C 8.622 12.021,8.292 12.114,8.019 11.874 C 7.686 11.581,7.485 10.812,7.599 10.263 C 7.684 9.856,7.936 9.727,8.242 9.935 M16.299 12.074 C 16.365 12.112,16.473 12.232,16.539 12.339 C 16.655 12.525,16.660 12.554,16.660 12.979 C 16.660 13.412,16.656 13.432,16.511 13.725 C 16.202 14.351,15.410 14.969,14.637 15.187 C 14.426 15.246,14.232 15.259,13.560 15.258 C 12.816 15.257,12.699 15.247,12.295 15.152 C 11.281 14.912,10.546 14.467,10.296 13.940 C 10.131 13.593,10.181 13.334,10.473 13.030 C 10.887 12.597,11.640 12.576,13.480 12.944 C 14.470 13.143,14.515 13.131,15.074 12.522 C 15.493 12.064,15.706 11.944,16.020 11.984 C 16.108 11.995,16.233 12.036,16.299 12.074 M11.910 19.622 C 11.858 19.676,11.878 19.790,11.943 19.816 C 11.978 19.829,12.158 19.840,12.343 19.840 C 12.676 19.840,12.680 19.839,12.680 19.740 C 12.680 19.658,12.661 19.640,12.570 19.640 C 12.510 19.640,12.343 19.629,12.200 19.615 C 12.057 19.602,11.927 19.605,11.910 19.622 M10.307 19.667 C 10.292 19.681,10.280 19.726,10.280 19.767 C 10.280 19.833,10.319 19.840,10.680 19.840 L 11.080 19.840 11.080 19.740 C 11.080 19.640,11.078 19.640,10.707 19.640 C 10.501 19.640,10.321 19.652,10.307 19.667 M13.480 19.729 C 13.480 19.820,13.499 19.831,13.690 19.854 C 13.806 19.868,13.986 19.879,14.090 19.880 C 14.266 19.880,14.280 19.873,14.280 19.780 C 14.280 19.691,14.264 19.680,14.126 19.680 C 14.041 19.680,13.861 19.668,13.726 19.654 C 13.483 19.629,13.480 19.630,13.480 19.729 M8.930 19.709 C 8.738 19.723,8.720 19.733,8.720 19.822 C 8.720 19.933,8.767 19.940,9.250 19.894 C 9.500 19.870,9.520 19.861,9.520 19.774 C 9.520 19.672,9.498 19.670,8.930 19.709 M15.060 19.798 C 15.045 19.847,15.040 19.894,15.050 19.903 C 15.059 19.913,15.241 19.935,15.454 19.952 L 15.840 19.983 15.840 19.871 C 15.840 19.763,15.835 19.760,15.610 19.760 C 15.483 19.759,15.314 19.748,15.234 19.735 C 15.108 19.714,15.084 19.723,15.060 19.798 M7.290 19.829 C 7.138 19.843,7.120 19.855,7.120 19.948 L 7.120 20.052 7.390 20.026 C 7.538 20.012,7.719 20.000,7.790 20.000 C 7.902 20.000,7.920 19.986,7.920 19.900 C 7.920 19.804,7.911 19.800,7.690 19.807 C 7.564 19.811,7.384 19.821,7.290 19.829 M16.640 19.935 C 16.640 20.051,16.722 20.076,17.160 20.091 C 17.399 20.099,17.421 20.093,17.432 20.014 C 17.443 19.935,17.421 19.926,17.152 19.902 C 16.991 19.888,16.811 19.866,16.750 19.855 C 16.653 19.836,16.640 19.846,16.640 19.935 M5.920 19.985 C 5.711 20.011,5.537 20.034,5.534 20.036 C 5.530 20.038,5.537 20.076,5.548 20.120 C 5.572 20.209,5.717 20.220,6.109 20.164 C 6.354 20.129,6.372 20.117,6.331 20.015 C 6.302 19.942,6.281 19.940,5.920 19.985 M18.223 20.107 C 18.184 20.207,18.230 20.228,18.596 20.276 C 19.026 20.332,19.000 20.336,19.000 20.225 C 19.000 20.137,18.977 20.126,18.698 20.085 C 18.300 20.026,18.253 20.028,18.223 20.107 M4.330 20.192 C 3.970 20.248,3.921 20.277,3.994 20.392 C 4.020 20.433,4.085 20.435,4.303 20.402 C 4.729 20.337,4.760 20.326,4.760 20.242 C 4.760 20.199,4.747 20.158,4.730 20.150 C 4.714 20.142,4.534 20.161,4.330 20.192 M19.791 20.337 C 19.770 20.447,19.754 20.440,20.252 20.524 C 20.551 20.573,20.539 20.576,20.576 20.455 C 20.601 20.375,20.582 20.367,20.271 20.323 C 20.089 20.297,19.911 20.267,19.875 20.257 C 19.830 20.244,19.804 20.268,19.791 20.337 M2.709 20.460 C 2.560 20.487,2.428 20.519,2.415 20.531 C 2.366 20.580,2.447 20.723,2.513 20.704 C 2.550 20.694,2.720 20.662,2.890 20.635 C 3.172 20.589,3.200 20.576,3.200 20.492 C 3.200 20.385,3.143 20.381,2.709 20.460 M21.360 20.612 C 21.360 20.727,21.370 20.732,21.793 20.804 C 22.042 20.846,22.092 20.845,22.123 20.797 C 22.193 20.685,22.157 20.656,21.890 20.610 C 21.742 20.584,21.562 20.551,21.490 20.536 C 21.370 20.512,21.360 20.518,21.360 20.612 " stroke="none" fill="black" fill-rule="evenodd"></path></svg>