<svg role="img" xmlns="http://www.w3.org/2000/svg" viewBox="0 0 24 24"><path d="M6.360 2.972 L 1.300 5.900 1.290 8.530 C 1.282 10.621,1.290 11.160,1.330 11.159 C 1.357 11.159,2.730 10.361,4.380 9.386 L 7.380 7.614 7.400 14.613 L 7.420 21.611 9.420 22.784 C 10.520 23.429,11.443 23.958,11.470 23.959 C 11.510 23.960,11.520 21.542,11.520 12.000 C 11.520 2.458,11.510 0.040,11.470 0.041 C 11.443 0.042,9.143 1.361,6.360 2.972 M12.480 11.995 C 12.480 21.541,12.490 23.960,12.530 23.959 C 12.558 23.959,13.480 23.431,14.580 22.786 L 16.580 21.614 16.590 18.267 C 16.596 16.426,16.608 14.920,16.618 14.920 C 16.628 14.920,17.316 15.315,18.148 15.798 L 19.660 16.677 19.673 16.368 C 19.680 16.199,19.666 15.151,19.642 14.040 C 19.603 12.264,19.590 12.014,19.533 11.972 C 19.498 11.945,18.823 11.558,18.035 11.112 L 16.600 10.300 16.600 8.945 L 16.600 7.591 16.690 7.649 C 17.026 7.867,22.641 11.160,22.676 11.160 C 22.744 11.160,22.738 5.944,22.670 5.890 C 22.572 5.811,12.620 0.067,12.550 0.049 C 12.483 0.032,12.480 0.588,12.480 11.995 " stroke="none" fill="black" fill-rule="evenodd"></path></svg>