<svg role="img" xmlns="http://www.w3.org/2000/svg" viewBox="0 0 24 24"><path d="M3.818 0.058 C 3.409 0.133,3.097 0.230,2.822 0.369 C 1.887 0.840,1.318 1.585,1.055 2.680 C 0.987 2.964,0.982 3.532,0.971 13.474 C 0.963 19.694,0.973 23.962,0.994 23.954 C 1.014 23.946,1.428 23.478,1.915 22.912 L 2.799 21.885 2.810 12.490 L 2.820 3.096 2.969 2.794 C 3.130 2.469,3.371 2.211,3.686 2.026 C 4.092 1.788,3.726 1.798,12.130 1.809 L 19.820 1.820 20.052 1.908 C 20.513 2.082,20.907 2.462,21.086 2.906 L 21.180 3.140 21.191 10.840 C 21.198 15.986,21.188 18.604,21.161 18.733 C 21.028 19.356,20.498 19.894,19.875 20.038 C 19.761 20.064,17.474 20.078,13.320 20.079 L 6.939 20.080 6.040 20.981 L 5.140 21.881 12.700 21.871 L 20.260 21.860 20.612 21.750 C 21.921 21.339,22.716 20.431,22.968 19.060 C 23.009 18.838,23.020 17.162,23.020 10.920 C 23.020 3.457,23.016 3.043,22.947 2.721 C 22.660 1.388,21.816 0.483,20.528 0.127 L 20.140 0.020 12.120 0.013 C 5.723 0.008,4.043 0.017,3.818 0.058 M7.040 5.260 L 7.040 5.840 7.740 5.840 L 8.439 5.840 8.450 8.110 L 8.460 10.380 9.030 10.391 L 9.600 10.402 9.600 8.121 L 9.600 5.840 10.300 5.840 L 11.000 5.840 11.000 5.260 L 11.000 4.680 9.020 4.680 L 7.040 4.680 7.040 5.260 M11.749 4.705 C 11.733 4.720,11.720 6.026,11.720 7.607 L 11.720 10.480 12.300 10.480 L 12.879 10.480 12.890 8.902 L 12.900 7.324 13.480 8.079 C 13.799 8.494,14.071 8.822,14.085 8.807 C 14.099 8.792,14.364 8.450,14.675 8.046 L 15.240 7.313 15.240 8.896 L 15.240 10.480 15.820 10.480 L 16.401 10.480 16.390 7.590 L 16.380 4.700 16.216 4.688 L 16.051 4.676 15.059 5.938 C 14.513 6.632,14.061 7.195,14.055 7.188 C 14.049 7.182,13.605 6.620,13.069 5.939 C 12.105 4.715,12.091 4.700,11.935 4.688 C 11.848 4.682,11.764 4.689,11.749 4.705 M7.080 14.323 L 7.080 17.166 8.230 17.150 C 9.504 17.132,9.609 17.116,10.160 16.852 C 10.602 16.641,11.091 16.143,11.311 15.680 C 11.607 15.058,11.695 14.446,11.583 13.803 C 11.419 12.861,10.925 12.163,10.156 11.785 C 9.603 11.513,9.385 11.480,8.137 11.480 L 7.080 11.480 7.080 14.323 M12.640 14.320 L 12.640 17.165 13.972 17.152 L 15.304 17.140 15.606 16.991 C 15.974 16.809,16.236 16.543,16.413 16.169 C 16.531 15.920,16.540 15.869,16.540 15.480 C 16.539 14.991,16.466 14.792,16.173 14.486 L 16.002 14.307 16.155 14.140 C 16.540 13.723,16.617 12.929,16.331 12.325 C 16.195 12.037,15.899 11.743,15.609 11.608 L 15.380 11.500 14.010 11.488 L 12.640 11.476 12.640 14.320 M9.406 12.717 C 9.841 12.882,10.146 13.188,10.327 13.640 C 10.448 13.942,10.457 14.642,10.344 14.940 C 10.228 15.245,10.015 15.542,9.798 15.702 C 9.506 15.916,9.224 16.000,8.696 16.028 L 8.240 16.052 8.240 14.321 L 8.240 12.589 8.710 12.610 C 9.055 12.625,9.240 12.653,9.406 12.717 M15.023 12.658 C 15.290 12.770,15.404 13.223,15.229 13.484 C 15.070 13.723,14.934 13.763,14.320 13.751 L 13.780 13.740 13.769 13.170 L 13.758 12.600 14.320 12.600 C 14.723 12.600,14.922 12.617,15.023 12.658 M15.039 14.950 C 15.425 15.144,15.466 15.673,15.115 15.924 C 14.987 16.015,14.949 16.020,14.380 16.020 L 13.780 16.020 13.769 15.502 C 13.763 15.217,13.766 14.961,13.777 14.932 C 13.811 14.845,14.860 14.860,15.039 14.950 " stroke="none" fill="black" fill-rule="evenodd"></path></svg>