<svg role="img" viewBox="0 0 24 24" xmlns="http://www.w3.org/2000/svg"><path d="M9.160 1.020 L 8.140 2.040 10.030 3.930 L 11.920 5.820 7.850 9.890 L 3.780 13.960 8.800 18.980 L 13.820 24.000 14.840 22.980 L 15.860 21.960 13.970 20.070 L 12.080 18.180 16.150 14.110 L 20.220 10.040 15.200 5.020 L 10.180 -0.000 9.160 1.020 M14.995 8.815 C 15.311 9.132,15.563 9.410,15.555 9.433 C 15.534 9.490,9.559 15.520,9.523 15.520 C 9.507 15.520,9.226 15.240,8.900 14.897 L 8.307 14.273 11.323 11.257 C 12.982 9.598,14.358 8.240,14.380 8.240 C 14.403 8.240,14.679 8.499,14.995 8.815 " stroke="none" fill="black" fill-rule="evenodd"></path></svg>