<svg role="img" viewBox="0 0 24 24" xmlns="http://www.w3.org/2000/svg"><path d="M0.000 12.000 L 0.000 24.000 12.000 24.000 L 24.000 24.000 24.000 12.000 L 24.000 0.000 12.000 0.000 L 0.000 0.000 0.000 12.000 M13.740 6.674 C 15.941 7.014,17.560 7.766,18.723 8.989 C 20.041 10.374,20.358 12.199,19.561 13.805 C 18.665 15.610,16.556 16.890,13.756 17.326 C 13.255 17.404,13.025 17.416,12.000 17.416 C 10.983 17.416,10.743 17.404,10.260 17.328 C 6.974 16.814,4.702 15.190,4.116 12.936 C 4.038 12.638,4.023 12.482,4.025 11.980 C 4.026 11.464,4.041 11.326,4.131 10.992 C 4.470 9.723,5.369 8.644,6.769 7.824 C 7.766 7.240,9.178 6.796,10.520 6.643 C 10.729 6.619,10.963 6.592,11.040 6.584 C 11.117 6.575,11.639 6.573,12.200 6.581 C 12.970 6.590,13.347 6.613,13.740 6.674 M11.300 7.227 C 9.629 7.332,8.005 7.829,7.350 8.436 C 7.065 8.699,7.000 8.818,7.000 9.068 C 7.002 9.676,7.770 10.208,9.072 10.500 C 9.344 10.561,10.131 10.686,10.140 10.669 C 10.142 10.664,10.176 10.431,10.215 10.150 C 10.338 9.265,10.599 8.415,10.901 7.919 C 11.028 7.710,11.363 7.362,11.542 7.252 C 11.595 7.220,11.601 7.206,11.560 7.210 C 11.527 7.212,11.410 7.220,11.300 7.227 M12.460 7.255 C 12.504 7.280,12.658 7.417,12.802 7.560 C 13.215 7.971,13.489 8.610,13.699 9.654 C 13.753 9.921,13.809 10.261,13.824 10.410 L 13.851 10.679 14.015 10.656 C 14.974 10.523,15.653 10.339,16.172 10.070 C 16.837 9.727,17.133 9.235,16.946 8.787 C 16.916 8.715,16.778 8.554,16.639 8.428 C 15.956 7.811,14.360 7.327,12.680 7.228 C 12.444 7.214,12.397 7.220,12.460 7.255 M11.771 8.564 C 11.571 8.663,11.368 8.923,11.198 9.299 C 11.062 9.598,10.899 10.173,10.859 10.494 L 10.832 10.708 10.961 10.734 C 11.032 10.748,11.499 10.760,12.000 10.760 C 12.501 10.760,12.968 10.748,13.039 10.734 L 13.168 10.708 13.141 10.494 C 13.101 10.173,12.938 9.598,12.802 9.299 C 12.630 8.919,12.428 8.661,12.226 8.563 C 12.013 8.460,11.981 8.460,11.771 8.564 M5.813 9.730 C 5.590 10.065,5.471 10.313,5.339 10.720 C 5.192 11.175,5.155 12.010,5.258 12.524 C 5.419 13.328,5.799 13.994,6.500 14.702 C 7.664 15.877,9.328 16.600,11.220 16.752 C 11.573 16.781,11.602 16.778,11.515 16.725 C 11.302 16.592,10.967 16.195,10.803 15.881 C 10.382 15.071,10.159 14.015,10.095 12.522 L 10.068 11.881 9.924 11.857 C 8.606 11.634,7.640 11.302,6.960 10.839 C 6.497 10.524,6.116 10.021,6.056 9.643 C 6.042 9.553,6.018 9.480,6.005 9.480 C 5.991 9.480,5.904 9.592,5.813 9.730 M17.945 9.630 C 17.880 10.023,17.507 10.522,17.040 10.839 C 16.360 11.302,15.392 11.635,14.076 11.857 L 13.932 11.881 13.904 12.511 C 13.821 14.400,13.417 15.790,12.762 16.440 C 12.618 16.583,12.464 16.720,12.420 16.744 C 12.320 16.800,12.626 16.782,13.260 16.696 C 14.949 16.466,16.423 15.781,17.464 14.743 C 17.975 14.232,18.302 13.764,18.524 13.226 C 18.751 12.672,18.814 12.298,18.790 11.624 C 18.769 11.025,18.680 10.642,18.452 10.180 C 18.338 9.948,18.032 9.480,17.995 9.480 C 17.982 9.480,17.959 9.547,17.945 9.630 M10.772 12.520 C 10.829 13.868,11.223 14.806,11.814 14.999 C 12.520 15.229,13.151 14.183,13.223 12.664 C 13.234 12.442,13.249 12.197,13.256 12.120 L 13.270 11.980 12.009 11.980 L 10.749 11.980 10.772 12.520 " stroke="none" fill="black" fill-rule="evenodd"></path></svg>