<svg role="img" viewBox="0 0 24 24" xmlns="http://www.w3.org/2000/svg"><path d="M11.740 0.183 C 9.529 0.483,7.709 1.418,6.114 3.072 C 5.137 4.086,4.280 5.435,3.817 6.688 L 3.703 6.997 3.267 7.178 C 2.844 7.355,2.319 7.641,2.103 7.815 C 1.938 7.947,1.867 8.404,1.866 9.340 C 1.865 9.977,1.879 10.167,1.953 10.511 C 2.071 11.056,2.217 11.517,2.383 11.865 C 2.511 12.136,2.529 12.154,2.739 12.240 C 2.861 12.289,2.960 12.337,2.960 12.347 C 2.960 12.356,2.811 12.512,2.630 12.692 C 2.208 13.111,1.745 13.641,1.396 14.105 C 1.180 14.393,0.231 15.825,0.061 16.120 C 0.019 16.192,-0.013 16.219,0.720 15.580 C 1.367 15.017,1.753 14.712,2.340 14.301 C 2.766 14.002,3.776 13.360,3.819 13.360 C 3.830 13.360,3.840 13.400,3.839 13.450 C 3.838 13.522,3.765 13.580,3.476 13.738 C 2.962 14.019,2.841 14.193,2.840 14.655 C 2.839 15.318,3.191 16.819,3.484 17.406 C 3.691 17.820,3.891 17.889,4.593 17.788 C 4.829 17.754,5.045 17.720,5.074 17.713 C 5.108 17.705,5.174 17.834,5.264 18.080 C 5.439 18.564,5.889 19.478,6.175 19.929 C 6.296 20.121,6.383 20.286,6.368 20.295 C 6.353 20.304,5.917 20.114,5.400 19.873 C 4.561 19.481,4.344 19.383,3.848 19.173 L 3.716 19.117 3.863 19.349 C 4.214 19.899,5.253 21.419,5.580 21.860 C 6.003 22.431,6.285 22.717,6.677 22.978 C 7.511 23.533,8.293 23.676,9.645 23.521 L 10.425 23.431 10.807 23.554 C 11.329 23.721,11.880 23.828,12.507 23.882 C 13.894 24.004,15.499 23.646,16.714 22.946 C 16.990 22.787,17.143 22.739,18.260 22.463 C 19.682 22.111,20.014 21.980,20.371 21.629 C 20.637 21.368,20.730 21.211,21.454 19.800 C 21.775 19.173,22.111 18.530,22.200 18.371 L 22.362 18.082 22.191 18.156 C 21.320 18.535,21.011 18.675,20.706 18.827 C 20.511 18.925,20.345 18.998,20.337 18.990 C 20.329 18.982,20.396 18.806,20.485 18.598 C 20.575 18.390,20.703 18.057,20.769 17.857 L 20.889 17.495 21.434 17.511 C 22.139 17.532,22.258 17.496,22.408 17.220 C 22.631 16.806,22.921 15.595,23.002 14.734 C 23.082 13.881,22.986 13.672,22.365 13.345 C 22.092 13.202,22.040 13.142,22.188 13.141 C 22.232 13.140,22.278 13.046,22.341 12.827 C 22.391 12.656,22.438 12.510,22.446 12.505 C 22.454 12.499,22.648 12.415,22.878 12.317 C 23.358 12.114,23.402 12.067,23.602 11.547 C 23.963 10.613,24.083 9.516,23.938 8.479 C 23.904 8.235,23.860 7.993,23.840 7.941 C 23.776 7.771,23.016 7.324,22.379 7.080 L 22.138 6.987 22.025 6.684 C 21.622 5.606,20.924 4.440,20.115 3.495 C 18.523 1.637,16.433 0.492,14.066 0.182 C 13.489 0.106,12.300 0.106,11.740 0.183 M14.300 0.657 C 16.240 1.004,17.856 1.830,19.234 3.177 C 20.046 3.970,20.669 4.803,21.142 5.728 C 21.345 6.125,21.650 6.800,21.627 6.800 C 21.621 6.800,21.330 6.728,20.980 6.640 C 20.630 6.552,20.316 6.480,20.282 6.481 C 20.248 6.481,20.535 6.608,20.920 6.763 C 22.131 7.248,23.311 7.885,23.446 8.126 C 23.518 8.256,23.519 9.672,23.446 10.080 C 23.346 10.646,23.197 11.179,23.032 11.567 C 22.968 11.719,22.922 11.767,22.791 11.819 C 22.703 11.854,22.624 11.877,22.616 11.870 C 22.609 11.862,22.657 11.653,22.724 11.404 C 22.791 11.156,22.840 10.947,22.833 10.940 C 22.812 10.921,21.759 10.690,21.550 10.659 C 21.446 10.644,21.360 10.619,21.360 10.604 C 21.360 10.589,21.445 10.554,21.549 10.526 C 21.791 10.461,22.379 10.186,22.421 10.118 C 22.445 10.080,22.434 10.074,22.377 10.096 C 22.335 10.112,22.120 10.153,21.900 10.186 C 21.582 10.235,21.262 10.243,20.340 10.227 C 19.261 10.208,18.734 10.173,17.240 10.021 C 15.883 9.882,14.938 9.831,13.356 9.811 C 11.252 9.784,9.829 9.861,7.140 10.146 C 6.219 10.244,3.930 10.248,3.560 10.153 C 3.417 10.116,3.294 10.093,3.286 10.100 C 3.261 10.126,3.616 10.332,3.840 10.422 C 3.961 10.471,4.164 10.534,4.290 10.562 C 4.417 10.590,4.516 10.618,4.510 10.624 C 4.504 10.630,4.203 10.699,3.842 10.778 C 3.480 10.857,3.175 10.932,3.163 10.944 C 3.151 10.956,3.198 11.185,3.267 11.453 C 3.337 11.721,3.386 11.948,3.376 11.957 C 3.367 11.967,3.252 11.923,3.122 11.861 C 2.898 11.754,2.878 11.732,2.762 11.472 C 2.466 10.811,2.297 9.758,2.335 8.816 C 2.347 8.506,2.374 8.208,2.395 8.153 C 2.499 7.879,3.827 7.166,5.220 6.635 C 5.440 6.551,5.589 6.482,5.551 6.481 C 5.513 6.481,5.200 6.552,4.855 6.640 C 4.510 6.728,4.223 6.800,4.218 6.800 C 4.187 6.800,4.397 6.310,4.638 5.820 C 5.289 4.492,6.248 3.335,7.420 2.462 C 7.990 2.038,8.304 1.845,8.918 1.539 C 9.947 1.027,10.939 0.742,12.240 0.585 C 12.559 0.546,13.953 0.595,14.300 0.657 M9.789 2.349 C 9.327 3.432,9.102 4.434,9.053 5.628 C 9.028 6.233,9.027 6.236,8.945 6.178 C 8.899 6.146,8.820 6.120,8.769 6.120 C 8.699 6.120,7.466 6.457,6.630 6.705 C 6.568 6.723,6.560 6.692,6.560 6.421 C 6.560 5.417,6.846 4.173,7.292 3.239 C 7.491 2.823,7.414 2.879,7.164 3.333 C 6.713 4.151,6.407 5.279,6.335 6.383 L 6.309 6.793 6.138 6.841 C 5.984 6.884,5.963 6.905,5.926 7.054 C 5.828 7.449,5.747 8.182,5.744 8.708 L 5.740 9.276 5.400 9.399 C 5.109 9.505,4.735 9.683,4.925 9.626 C 5.469 9.462,6.665 9.266,7.640 9.182 C 9.323 9.037,9.835 9.021,12.800 9.021 C 16.169 9.020,17.432 9.073,19.040 9.283 C 19.606 9.357,20.705 9.555,20.900 9.619 C 21.128 9.694,20.737 9.507,20.440 9.399 L 20.100 9.276 20.099 8.508 C 20.098 8.076,20.075 7.586,20.045 7.388 L 19.991 7.037 19.762 6.921 L 19.532 6.805 19.505 6.392 C 19.437 5.361,19.185 4.373,18.776 3.540 C 18.531 3.041,18.400 2.895,18.615 3.360 C 18.940 4.065,19.145 4.853,19.238 5.754 C 19.284 6.208,19.294 6.720,19.256 6.720 C 19.243 6.720,18.770 6.585,18.205 6.420 C 17.640 6.255,17.133 6.120,17.078 6.120 C 17.023 6.120,16.941 6.146,16.895 6.178 C 16.813 6.236,16.812 6.232,16.787 5.648 C 16.745 4.686,16.587 3.829,16.296 2.993 C 16.176 2.650,15.800 1.804,15.862 2.020 C 15.985 2.442,16.168 3.295,16.245 3.800 C 16.326 4.336,16.339 4.571,16.339 5.535 L 16.340 6.649 16.196 6.775 C 16.079 6.876,16.046 6.938,16.024 7.100 C 15.976 7.445,15.837 7.968,15.712 8.270 L 15.593 8.559 15.046 8.530 C 14.340 8.491,11.364 8.491,10.734 8.529 L 10.247 8.559 10.128 8.269 C 9.998 7.955,9.903 7.563,9.860 7.170 C 9.834 6.938,9.821 6.911,9.678 6.810 C 9.480 6.668,9.468 6.596,9.470 5.580 C 9.473 4.447,9.623 3.301,9.898 2.302 C 9.952 2.105,9.991 1.938,9.984 1.931 C 9.978 1.924,9.889 2.112,9.789 2.349 M10.409 3.410 L 10.420 4.420 11.140 4.420 L 11.860 4.420 11.872 4.130 L 11.884 3.840 12.042 3.840 L 12.200 3.840 12.200 5.220 L 12.200 6.600 11.940 6.600 L 11.680 6.600 11.680 7.360 L 11.680 8.120 12.960 8.120 L 14.240 8.120 14.240 7.360 L 14.240 6.600 14.000 6.600 L 13.760 6.600 13.760 5.220 L 13.760 3.840 13.920 3.840 L 14.080 3.840 14.080 4.140 L 14.080 4.440 14.800 4.440 L 15.520 4.440 15.520 3.420 L 15.520 2.400 12.959 2.400 L 10.399 2.400 10.409 3.410 M8.600 6.862 C 8.600 7.327,8.661 7.907,8.757 8.353 C 8.807 8.586,8.815 8.691,8.784 8.700 C 8.760 8.707,8.569 8.734,8.360 8.760 C 7.998 8.804,6.279 9.132,6.152 9.181 C 6.073 9.211,6.041 9.024,6.040 8.534 C 6.040 8.192,6.098 7.442,6.139 7.258 C 6.155 7.188,6.330 7.127,7.349 6.833 C 8.004 6.644,8.553 6.487,8.570 6.485 C 8.586 6.482,8.600 6.652,8.600 6.862 M18.727 6.910 L 19.675 7.180 19.699 7.307 C 19.752 7.589,19.795 8.482,19.772 8.831 C 19.751 9.145,19.738 9.199,19.684 9.183 C 19.114 9.014,17.892 8.780,17.349 8.734 L 17.031 8.708 17.054 8.564 C 17.066 8.485,17.105 8.258,17.139 8.060 C 17.174 7.862,17.213 7.428,17.227 7.095 L 17.252 6.489 17.516 6.565 C 17.661 6.606,18.206 6.762,18.727 6.910 M9.153 6.814 C 9.260 6.909,9.388 7.015,9.435 7.048 C 9.505 7.097,9.534 7.183,9.579 7.485 C 9.610 7.691,9.682 7.995,9.739 8.160 C 9.796 8.325,9.853 8.489,9.864 8.524 C 9.882 8.576,9.841 8.593,9.637 8.614 C 9.500 8.628,9.331 8.640,9.261 8.640 L 9.134 8.640 9.067 8.290 C 8.951 7.674,8.870 6.640,8.939 6.640 C 8.949 6.640,9.045 6.718,9.153 6.814 M16.919 6.930 C 16.918 7.317,16.855 7.904,16.771 8.315 L 16.701 8.650 16.342 8.623 C 16.144 8.608,15.978 8.592,15.973 8.586 C 15.968 8.581,16.017 8.422,16.082 8.234 C 16.147 8.045,16.227 7.712,16.260 7.495 C 16.313 7.143,16.331 7.091,16.429 7.021 C 16.490 6.977,16.612 6.874,16.700 6.792 C 16.788 6.709,16.873 6.642,16.890 6.641 C 16.907 6.640,16.920 6.770,16.919 6.930 M15.213 10.805 C 15.107 10.940,14.876 11.200,14.700 11.383 L 14.380 11.714 12.620 11.735 C 11.652 11.746,10.887 11.740,10.920 11.722 C 11.038 11.657,11.789 11.387,12.280 11.232 C 13.129 10.965,13.942 10.780,15.120 10.587 C 15.418 10.538,15.420 10.542,15.213 10.805 M20.679 10.964 C 21.434 11.094,22.231 11.258,22.264 11.291 C 22.280 11.307,22.019 12.354,21.942 12.584 C 21.931 12.615,21.719 12.587,21.270 12.497 C 20.465 12.335,18.987 12.106,18.180 12.018 C 17.850 11.982,17.555 11.945,17.525 11.936 C 17.495 11.926,17.774 11.767,18.145 11.582 C 18.516 11.397,18.964 11.145,19.140 11.022 L 19.460 10.800 19.719 10.822 C 19.862 10.834,20.294 10.898,20.679 10.964 M9.520 11.015 C 9.520 11.024,9.416 11.108,9.290 11.204 C 9.164 11.299,8.916 11.506,8.739 11.662 L 8.418 11.948 7.659 12.038 C 7.242 12.088,6.684 12.162,6.421 12.202 C 6.157 12.242,5.936 12.269,5.929 12.263 C 5.910 12.243,6.808 11.867,7.400 11.647 C 7.697 11.536,8.282 11.346,8.700 11.224 C 9.466 11.001,9.520 10.988,9.520 11.015 M4.136 11.380 L 3.783 11.640 3.733 11.472 C 3.706 11.379,3.693 11.293,3.705 11.282 C 3.728 11.258,4.298 11.131,4.414 11.124 C 4.455 11.122,4.330 11.237,4.136 11.380 M13.820 12.199 C 13.782 12.261,13.338 12.568,12.920 12.822 C 12.580 13.028,12.492 13.062,12.087 13.143 C 11.837 13.193,11.628 13.240,11.622 13.247 C 11.616 13.254,11.426 13.818,11.201 14.500 C 10.975 15.182,10.770 15.760,10.745 15.784 C 10.704 15.824,6.936 16.681,6.805 16.680 C 6.775 16.680,6.488 16.495,6.167 16.270 C 5.846 16.044,5.570 15.850,5.553 15.838 C 5.524 15.818,5.146 12.878,5.170 12.859 C 5.225 12.815,7.722 12.468,7.847 12.488 C 7.921 12.499,7.916 12.515,7.790 12.680 C 7.561 12.979,6.961 13.840,6.981 13.840 C 6.991 13.840,7.301 13.644,7.670 13.405 C 8.379 12.945,8.779 12.711,9.300 12.450 L 9.620 12.289 10.600 12.243 C 12.387 12.158,13.858 12.138,13.820 12.199 M17.260 12.380 C 18.347 12.483,20.695 12.802,20.748 12.854 C 20.761 12.868,20.407 15.368,20.390 15.381 C 20.384 15.385,20.101 15.582,19.761 15.819 L 19.142 16.249 18.201 16.144 C 15.684 15.862,15.184 15.799,15.160 15.760 C 15.146 15.737,14.973 15.185,14.777 14.533 L 14.420 13.347 14.244 13.269 C 14.147 13.226,13.913 13.159,13.724 13.120 L 13.380 13.050 13.580 13.021 C 14.213 12.929,15.743 12.560,16.220 12.384 C 16.426 12.309,16.494 12.308,17.260 12.380 M4.840 12.968 C 4.840 13.203,5.216 15.991,5.253 16.027 C 5.348 16.121,6.695 17.040,6.738 17.040 C 6.831 17.040,10.941 16.114,10.965 16.088 C 10.979 16.072,11.009 15.997,11.033 15.920 C 11.056 15.843,11.239 15.273,11.440 14.654 L 11.804 13.528 12.172 13.456 C 12.647 13.364,13.341 13.368,13.795 13.467 L 14.131 13.540 14.501 14.774 C 14.705 15.453,14.896 16.033,14.926 16.063 C 14.987 16.123,19.181 16.616,19.256 16.571 C 19.288 16.552,20.533 15.689,20.633 15.616 C 20.641 15.611,20.746 15.007,20.866 14.274 C 20.987 13.540,21.092 12.935,21.099 12.927 C 21.106 12.920,21.258 12.946,21.436 12.984 C 21.675 13.035,21.760 13.070,21.760 13.117 C 21.760 13.188,21.408 15.695,21.380 15.823 C 21.368 15.877,21.025 16.141,20.395 16.580 L 19.428 17.254 18.964 17.204 C 16.983 16.990,14.382 16.678,14.358 16.652 C 14.342 16.634,14.162 16.067,13.958 15.391 L 13.588 14.162 13.404 14.091 C 13.201 14.013,12.552 13.992,12.483 14.061 C 12.462 14.082,12.256 14.656,12.025 15.335 C 11.795 16.014,11.591 16.584,11.573 16.601 C 11.539 16.633,6.689 17.720,6.580 17.720 C 6.473 17.720,4.559 16.353,4.540 16.263 C 4.520 16.171,4.160 13.271,4.160 13.204 C 4.160 13.136,4.350 13.031,4.573 12.977 C 4.842 12.912,4.840 12.912,4.840 12.968 M16.420 13.007 C 16.044 13.214,15.839 13.688,15.836 14.360 C 15.833 15.033,16.024 15.237,16.655 15.239 C 16.828 15.240,17.161 15.211,17.395 15.176 C 17.629 15.141,17.906 15.121,18.011 15.131 C 18.134 15.142,18.198 15.134,18.189 15.107 C 18.161 15.023,17.969 14.914,17.813 14.893 L 17.653 14.871 17.671 14.580 C 17.712 13.938,17.382 13.232,16.942 13.024 C 16.788 12.950,16.537 12.942,16.420 13.007 M8.856 13.217 C 8.660 13.302,8.441 13.549,8.306 13.836 C 8.193 14.075,8.182 14.137,8.181 14.500 C 8.180 14.720,8.193 14.946,8.209 15.002 C 8.234 15.093,8.222 15.110,8.096 15.156 C 7.963 15.204,7.661 15.434,7.691 15.465 C 7.699 15.472,7.767 15.460,7.843 15.438 C 7.918 15.416,8.341 15.392,8.783 15.384 C 9.653 15.370,9.746 15.350,9.896 15.147 C 9.971 15.046,9.980 14.979,9.979 14.547 C 9.978 14.116,9.966 14.031,9.875 13.814 C 9.819 13.678,9.729 13.514,9.676 13.448 C 9.468 13.188,9.137 13.095,8.856 13.217 M16.797 13.585 C 16.843 13.643,16.880 13.716,16.880 13.747 C 16.880 13.833,16.695 14.000,16.600 14.000 C 16.505 14.000,16.320 13.833,16.320 13.747 C 16.320 13.635,16.482 13.480,16.600 13.480 C 16.676 13.480,16.742 13.516,16.797 13.585 M9.422 13.778 C 9.507 13.908,9.483 14.035,9.355 14.130 C 9.112 14.311,8.822 13.978,9.026 13.753 C 9.126 13.643,9.343 13.657,9.422 13.778 M22.510 13.994 C 22.573 14.071,22.575 14.572,22.516 15.060 C 22.463 15.496,22.294 16.175,22.120 16.650 L 21.992 17.000 21.686 16.998 C 21.518 16.996,21.308 16.982,21.220 16.967 C 21.079 16.941,21.062 16.926,21.073 16.839 C 21.111 16.538,21.158 16.457,21.389 16.294 L 21.620 16.131 21.816 14.936 C 21.924 14.278,22.019 13.727,22.028 13.711 C 22.046 13.677,22.439 13.907,22.510 13.994 M4.060 15.164 C 4.136 15.789,4.208 16.354,4.220 16.420 C 4.237 16.515,4.310 16.588,4.577 16.776 C 4.879 16.987,4.958 17.079,4.959 17.226 C 4.960 17.284,4.532 17.360,4.208 17.360 C 3.963 17.360,3.961 17.359,3.886 17.210 C 3.772 16.982,3.648 16.598,3.520 16.074 C 3.367 15.446,3.312 15.047,3.328 14.663 L 3.340 14.346 3.620 14.176 C 3.773 14.082,3.904 14.011,3.910 14.017 C 3.917 14.023,3.984 14.540,4.060 15.164 M13.304 14.374 C 13.307 14.377,13.448 14.848,13.619 15.420 C 14.073 16.943,14.075 16.950,14.140 16.974 C 14.172 16.987,15.395 17.135,16.858 17.303 L 19.517 17.609 20.089 17.209 C 20.403 16.989,20.665 16.813,20.671 16.818 C 20.718 16.861,20.264 18.112,19.999 18.668 L 19.767 19.157 19.414 19.137 C 19.219 19.126,18.682 19.079,18.220 19.033 L 17.380 18.949 16.648 18.364 C 15.713 17.618,15.625 17.560,15.422 17.560 C 15.291 17.560,14.681 17.700,14.260 17.826 C 14.192 17.846,14.196 17.833,14.288 17.735 C 14.386 17.630,14.572 17.278,14.543 17.250 C 14.537 17.243,14.409 17.312,14.260 17.403 C 13.409 17.920,12.601 17.966,11.769 17.545 C 11.528 17.423,11.500 17.461,11.660 17.696 C 11.715 17.777,11.760 17.847,11.760 17.852 C 11.760 17.856,11.495 17.860,11.170 17.860 C 10.621 17.860,10.566 17.867,10.380 17.960 C 10.121 18.089,9.487 18.716,9.148 19.178 L 8.885 19.535 7.873 19.842 L 6.860 20.149 6.755 20.005 C 6.563 19.743,6.215 19.148,5.979 18.680 C 5.763 18.249,5.430 17.437,5.459 17.408 C 5.466 17.401,5.675 17.541,5.923 17.719 C 6.172 17.897,6.416 18.053,6.467 18.065 C 6.614 18.102,11.767 16.932,11.840 16.846 C 11.873 16.806,12.061 16.232,12.258 15.569 L 12.617 14.364 12.738 14.347 C 12.840 14.332,13.290 14.354,13.304 14.374 M13.819 21.799 C 13.927 21.909,14.007 22.006,13.997 22.017 C 13.987 22.027,13.838 22.048,13.666 22.063 L 13.354 22.092 13.412 21.956 C 13.523 21.695,13.573 21.600,13.598 21.600 C 13.612 21.600,13.711 21.690,13.819 21.799 M14.430 22.423 C 14.725 22.663,15.057 22.828,15.404 22.906 C 15.558 22.941,15.678 22.974,15.672 22.981 C 15.632 23.017,14.850 23.256,14.544 23.324 C 13.464 23.566,12.522 23.582,11.626 23.372 L 11.340 23.305 11.540 23.271 C 12.109 23.174,12.667 22.906,13.021 22.557 L 13.223 22.360 13.660 22.318 C 13.900 22.295,14.105 22.269,14.115 22.258 C 14.156 22.217,14.216 22.248,14.430 22.423 " stroke="none" fill="black" fill-rule="evenodd"></path></svg>