<svg role="img" viewBox="0 0 24 24" xmlns="http://www.w3.org/2000/svg"><path d="M11.200 0.045 C 10.395 0.137,9.578 0.369,8.959 0.680 C 7.587 1.370,6.615 2.505,6.119 3.996 C 5.735 5.148,5.634 6.392,5.825 7.620 C 6.008 8.795,6.311 9.694,7.344 12.126 C 8.219 14.186,8.524 14.978,8.855 16.051 C 9.433 17.922,9.859 20.225,10.160 23.100 C 10.203 23.518,10.239 23.892,10.239 23.930 C 10.240 23.996,10.351 24.000,12.000 24.000 C 13.552 24.000,13.760 23.993,13.760 23.939 C 13.760 23.591,14.092 20.935,14.265 19.900 C 14.756 16.964,15.202 15.533,16.791 11.800 C 17.640 9.805,17.972 8.811,18.156 7.720 C 18.369 6.451,18.275 5.179,17.881 3.996 C 17.392 2.526,16.384 1.345,15.060 0.690 C 13.937 0.135,12.503 -0.105,11.200 0.045 M12.900 4.257 C 13.783 4.554,14.468 5.240,14.748 6.109 C 14.896 6.567,14.919 7.187,14.805 7.641 C 14.588 8.507,14.045 9.182,13.260 9.559 C 12.807 9.777,12.414 9.855,11.886 9.830 C 11.124 9.794,10.536 9.536,10.000 9.000 C 9.654 8.654,9.443 8.314,9.291 7.860 C 9.194 7.574,9.183 7.481,9.183 6.980 C 9.183 6.482,9.195 6.386,9.288 6.109 C 9.615 5.134,10.419 4.405,11.420 4.176 C 11.809 4.087,12.508 4.125,12.900 4.257 " stroke="none" fill="black" fill-rule="evenodd"></path></svg>