<svg role="img" viewBox="0 0 24 24" xmlns="http://www.w3.org/2000/svg"><path d="M0.460 6.056 C 0.193 6.174,-0.001 6.466,0.001 6.749 C 0.003 7.110,0.264 7.409,0.639 7.480 C 0.761 7.503,1.617 7.520,2.665 7.520 L 4.478 7.520 4.489 12.470 C 4.500 17.212,4.503 17.426,4.575 17.570 C 4.726 17.874,5.037 18.034,5.380 17.982 C 5.616 17.947,5.898 17.704,5.959 17.485 C 5.985 17.391,6.000 15.614,6.000 12.431 L 6.000 7.521 14.710 7.511 C 23.125 7.500,23.425 7.497,23.570 7.425 C 24.018 7.203,24.135 6.634,23.807 6.271 C 23.726 6.181,23.602 6.084,23.531 6.054 C 23.342 5.974,0.640 5.977,0.460 6.056 M10.935 9.077 C 10.715 9.176,10.569 9.378,10.519 9.650 C 10.492 9.793,10.482 11.196,10.489 13.645 C 10.499 17.239,10.504 17.427,10.575 17.570 C 10.726 17.874,11.037 18.034,11.380 17.982 C 11.616 17.947,11.898 17.704,11.959 17.485 C 12.013 17.290,12.015 9.714,11.960 9.519 C 11.916 9.358,11.676 9.106,11.507 9.042 C 11.340 8.979,11.121 8.992,10.935 9.077 M18.860 9.042 C 16.556 9.400,14.889 11.437,15.013 13.740 C 15.085 15.080,15.754 16.309,16.857 17.129 C 18.565 18.400,20.993 18.255,22.546 16.789 C 23.556 15.835,24.059 14.602,23.987 13.260 C 23.880 11.281,22.515 9.636,20.563 9.133 C 20.130 9.022,19.281 8.976,18.860 9.042 M20.255 10.599 C 21.293 10.864,22.136 11.709,22.403 12.751 C 22.508 13.163,22.508 13.837,22.403 14.249 C 22.136 15.291,21.293 16.136,20.255 16.401 C 19.837 16.508,19.165 16.509,18.751 16.403 C 17.926 16.192,17.240 15.642,16.838 14.871 C 16.610 14.433,16.520 14.046,16.520 13.500 C 16.520 12.954,16.610 12.567,16.838 12.129 C 17.236 11.365,17.921 10.813,18.735 10.599 C 19.137 10.494,19.844 10.494,20.255 10.599 " stroke="none" fill="black" fill-rule="evenodd"></path></svg>