<svg role="img" viewBox="0 0 24 24" xmlns="http://www.w3.org/2000/svg"><path d="M11.200 0.027 C 9.553 0.188,8.480 0.452,7.192 1.014 C 6.510 1.312,6.366 1.388,6.440 1.415 C 6.473 1.427,6.734 1.521,7.020 1.624 C 12.531 3.603,15.733 6.820,15.442 10.087 C 15.334 11.299,14.854 12.300,13.862 13.384 L 13.555 13.719 13.728 13.700 C 13.822 13.690,14.170 13.663,14.500 13.640 C 15.216 13.592,17.924 13.403,19.971 13.259 C 21.623 13.143,21.852 13.142,21.873 13.253 C 21.890 13.343,21.785 13.465,21.668 13.490 C 21.619 13.500,18.898 14.278,15.620 15.219 C 12.342 16.159,8.031 17.395,6.040 17.964 C 4.049 18.534,2.389 19.014,2.351 19.030 C 2.294 19.055,2.342 19.134,2.651 19.520 C 4.246 21.510,6.529 22.980,9.020 23.619 C 13.103 24.668,17.466 23.484,20.441 20.520 C 23.209 17.762,24.462 13.908,23.836 10.080 C 23.238 6.419,21.034 3.293,17.780 1.489 C 16.338 0.689,14.661 0.184,12.980 0.041 C 12.533 0.004,11.520 -0.005,11.200 0.027 M5.240 2.086 C 2.664 3.845,0.849 6.585,0.240 9.638 C 0.059 10.545,0.020 10.973,0.022 12.020 C 0.024 13.048,0.073 13.541,0.265 14.480 C 0.509 15.669,0.994 16.940,1.599 17.975 C 1.893 18.478,1.779 18.458,2.660 18.161 C 4.936 17.392,6.485 16.311,7.526 14.763 C 8.059 13.970,8.418 13.141,8.680 12.100 C 9.549 8.634,8.712 5.011,6.507 2.694 C 6.161 2.331,5.644 1.879,5.576 1.881 C 5.556 1.881,5.405 1.974,5.240 2.086 " stroke="none" fill="black" fill-rule="evenodd"></path></svg>