<svg role="img" viewBox="0 0 24 24" xmlns="http://www.w3.org/2000/svg"><path d="M9.778 1.260 C 8.661 1.952,7.733 2.531,7.716 2.549 C 7.685 2.579,11.550 4.729,11.677 4.751 C 11.746 4.764,15.740 2.357,15.740 2.303 C 15.740 2.277,12.404 0.320,11.915 0.059 C 11.813 0.005,11.752 0.039,9.778 1.260 M15.660 4.525 C 14.538 5.206,13.628 5.775,13.639 5.791 C 13.649 5.807,14.702 6.414,15.979 7.141 L 18.300 8.462 18.300 12.015 L 18.300 15.568 15.141 17.324 C 13.403 18.290,11.972 19.080,11.961 19.080 C 11.949 19.079,10.545 18.290,8.840 17.326 L 5.740 15.574 5.720 12.820 L 5.700 10.066 3.660 9.016 L 1.620 7.966 1.610 12.971 C 1.602 16.944,1.610 17.986,1.650 18.022 C 1.691 18.060,11.142 23.615,11.662 23.907 L 11.823 23.997 17.102 21.006 L 22.380 18.015 22.380 11.999 L 22.380 5.983 22.160 5.859 C 21.852 5.685,17.966 3.447,17.820 3.359 L 17.700 3.288 15.660 4.525 " stroke="none" fill="black" fill-rule="evenodd"></path></svg>