<svg role="img" viewBox="0 0 24 24" xmlns="http://www.w3.org/2000/svg"><path d="M0.000 2.003 C 0.000 3.590,0.010 4.002,0.050 3.986 C 0.776 3.686,2.402 3.308,3.640 3.153 C 4.296 3.070,6.474 3.083,7.180 3.173 C 12.104 3.802,16.299 6.556,18.846 10.832 C 19.805 12.441,20.479 14.301,20.800 16.220 C 20.958 17.165,21.007 17.792,21.006 18.860 C 21.004 20.182,20.876 21.275,20.580 22.500 C 20.466 22.973,20.399 23.212,20.176 23.930 C 20.156 23.996,20.265 24.000,22.077 24.000 L 24.000 24.000 24.000 12.000 L 24.000 0.000 12.000 0.000 L 0.000 0.000 0.000 2.003 M4.440 3.661 C 3.988 3.718,2.890 3.929,2.719 3.992 C 2.656 4.016,2.730 4.038,2.998 4.073 C 3.200 4.100,3.379 4.113,3.397 4.102 C 3.497 4.040,4.503 3.914,5.020 3.899 C 5.686 3.880,5.680 3.885,4.820 4.083 C 4.512 4.153,4.197 4.234,4.120 4.261 C 3.997 4.305,3.990 4.315,4.060 4.341 C 4.104 4.358,4.250 4.422,4.384 4.485 L 4.628 4.598 5.064 4.500 C 5.624 4.375,6.139 4.295,6.740 4.240 L 7.220 4.196 7.540 4.364 C 7.716 4.455,7.918 4.570,7.990 4.619 L 8.120 4.708 7.530 4.734 C 6.820 4.765,6.387 4.811,5.711 4.925 L 5.202 5.011 5.405 5.233 C 5.517 5.356,5.633 5.493,5.663 5.540 C 5.717 5.621,5.729 5.622,6.109 5.574 C 6.743 5.493,8.127 5.428,8.576 5.459 L 8.992 5.487 9.175 5.734 C 9.383 6.014,9.578 6.356,9.548 6.386 C 9.536 6.397,9.212 6.385,8.826 6.358 C 8.164 6.313,6.189 6.318,6.142 6.365 C 6.130 6.377,6.155 6.490,6.199 6.617 C 6.243 6.744,6.290 6.933,6.304 7.039 C 6.318 7.144,6.340 7.248,6.354 7.271 C 6.369 7.294,6.721 7.331,7.160 7.357 C 8.229 7.418,9.914 7.621,9.991 7.698 C 10.021 7.728,10.026 9.027,9.996 9.057 C 9.983 9.070,9.749 9.028,9.476 8.962 C 8.694 8.776,7.589 8.584,6.570 8.458 L 6.360 8.432 6.360 8.586 C 6.359 8.671,6.315 8.956,6.260 9.220 C 6.206 9.484,6.161 9.720,6.161 9.744 C 6.160 9.768,6.264 9.810,6.390 9.839 C 7.200 10.019,9.419 10.681,9.592 10.794 C 9.634 10.820,9.609 10.925,9.477 11.284 C 9.332 11.678,8.982 12.512,8.945 12.548 C 8.938 12.555,8.673 12.445,8.355 12.303 C 7.733 12.027,5.708 11.200,5.652 11.200 C 5.633 11.200,5.522 11.393,5.405 11.630 C 5.288 11.867,5.104 12.208,4.996 12.388 C 4.888 12.568,4.800 12.731,4.800 12.749 C 4.800 12.767,5.221 13.028,5.736 13.329 C 7.003 14.069,7.720 14.517,7.720 14.567 C 7.720 14.670,6.326 16.400,6.243 16.400 C 6.226 16.400,6.127 16.325,6.023 16.234 C 5.735 15.981,3.747 14.395,3.687 14.371 C 3.654 14.357,3.535 14.459,3.389 14.624 C 3.254 14.776,2.919 15.129,2.645 15.409 L 2.145 15.919 2.226 16.009 C 2.748 16.594,4.240 18.325,4.240 18.345 C 4.240 18.375,4.270 18.350,3.654 18.824 C 3.186 19.184,2.083 19.939,2.063 19.913 C 2.057 19.906,1.713 19.351,1.299 18.680 C 0.885 18.009,0.523 17.434,0.494 17.403 C 0.450 17.353,0.411 17.367,0.221 17.497 L 0.000 17.650 0.000 19.928 L 0.000 22.207 0.670 21.858 C 2.782 20.758,4.217 19.725,5.835 18.140 C 7.432 16.576,8.574 15.070,9.447 13.377 C 10.688 10.972,11.019 8.716,10.394 6.927 C 9.901 5.514,8.722 4.363,7.278 3.885 C 6.527 3.637,5.362 3.545,4.440 3.661 M8.617 4.122 C 8.723 4.189,9.010 4.305,9.255 4.379 C 9.902 4.576,10.867 4.946,10.830 4.984 C 10.823 4.991,10.611 4.954,10.359 4.904 C 10.106 4.853,9.810 4.798,9.700 4.782 L 9.500 4.753 9.820 5.086 C 9.996 5.270,10.167 5.432,10.200 5.447 C 10.233 5.462,10.481 5.521,10.750 5.579 C 11.389 5.715,12.016 5.896,12.441 6.065 C 12.739 6.184,12.803 6.228,12.945 6.411 C 13.103 6.614,13.480 7.231,13.480 7.286 C 13.480 7.301,13.341 7.259,13.171 7.194 C 12.573 6.964,10.909 6.518,10.853 6.574 C 10.840 6.587,10.870 6.693,10.920 6.809 C 10.970 6.925,11.059 7.215,11.118 7.454 L 11.225 7.889 11.823 8.060 C 12.469 8.246,13.268 8.526,13.688 8.715 C 13.906 8.812,13.956 8.853,13.975 8.947 C 14.032 9.226,14.080 9.772,14.080 10.146 L 14.080 10.553 13.530 10.302 C 12.660 9.904,11.375 9.412,11.328 9.458 C 11.318 9.468,11.294 9.644,11.275 9.848 C 11.256 10.053,11.193 10.460,11.136 10.753 C 11.079 11.046,11.038 11.290,11.046 11.296 C 11.054 11.301,11.375 11.454,11.760 11.635 C 12.145 11.815,12.748 12.112,13.100 12.294 L 13.740 12.624 13.729 12.762 C 13.716 12.932,13.292 14.200,13.123 14.573 L 13.000 14.847 12.850 14.756 C 12.768 14.706,12.628 14.618,12.540 14.559 C 12.183 14.321,10.395 13.280,10.344 13.280 C 10.330 13.280,10.258 13.410,10.185 13.570 C 10.047 13.872,9.605 14.674,9.323 15.135 C 9.234 15.281,9.160 15.415,9.160 15.433 C 9.160 15.450,9.362 15.606,9.610 15.778 C 10.202 16.192,11.586 17.226,11.619 17.278 C 11.665 17.352,10.533 18.877,9.996 19.468 L 9.843 19.635 9.390 19.228 C 8.173 18.131,7.557 17.595,7.528 17.607 C 7.511 17.614,7.322 17.812,7.108 18.046 C 6.895 18.281,6.434 18.749,6.084 19.086 L 5.449 19.700 6.449 20.832 C 6.998 21.455,7.442 21.970,7.434 21.975 C 7.426 21.981,7.285 22.094,7.120 22.226 C 6.662 22.594,5.956 23.109,5.382 23.493 C 4.970 23.769,4.854 23.830,4.815 23.790 C 4.789 23.763,4.413 23.236,3.979 22.620 C 3.546 22.004,3.186 21.494,3.179 21.487 C 3.172 21.479,3.026 21.572,2.853 21.692 C 2.382 22.020,1.422 22.586,0.670 22.977 L 0.000 23.327 0.000 23.663 L 0.000 24.000 3.272 24.000 L 6.544 24.000 6.982 23.653 C 11.582 20.008,14.499 15.150,14.629 10.918 C 14.682 9.190,14.345 7.861,13.553 6.676 C 12.903 5.701,11.896 5.059,10.054 4.445 C 9.607 4.295,8.551 4.000,8.462 4.000 C 8.441 4.000,8.511 4.055,8.617 4.122 M1.180 4.363 C 0.746 4.423,0.036 4.603,0.015 4.659 C 0.004 4.687,0.001 4.803,0.008 4.917 L 0.020 5.124 0.265 4.942 C 0.491 4.773,0.540 4.755,0.905 4.700 C 1.122 4.667,1.334 4.640,1.376 4.640 C 1.418 4.640,1.287 4.744,1.086 4.870 C 0.885 4.997,0.558 5.217,0.361 5.360 L 0.001 5.620 0.001 5.810 C 0.000 5.915,0.010 6.000,0.023 6.000 C 0.036 6.000,0.149 5.921,0.275 5.824 C 0.643 5.541,1.459 5.019,1.848 4.818 C 2.196 4.638,2.214 4.634,2.453 4.661 C 2.885 4.711,2.886 4.728,2.474 4.915 C 1.808 5.218,0.321 6.079,0.320 6.162 C 0.320 6.175,0.377 6.227,0.448 6.279 L 0.575 6.374 0.838 6.226 C 1.589 5.802,2.619 5.312,3.255 5.075 L 3.570 4.958 3.823 5.100 C 3.962 5.178,4.086 5.258,4.098 5.278 C 4.111 5.297,3.864 5.399,3.550 5.503 C 2.547 5.837,0.879 6.558,0.881 6.656 C 0.882 6.680,0.932 6.760,0.992 6.833 L 1.103 6.966 1.421 6.838 C 2.164 6.539,3.592 6.096,4.428 5.905 L 4.677 5.848 4.798 6.037 C 4.916 6.220,5.024 6.473,4.995 6.495 C 4.987 6.501,4.746 6.545,4.460 6.594 C 3.710 6.721,2.760 6.938,1.986 7.161 C 1.616 7.267,1.304 7.363,1.293 7.374 C 1.276 7.391,1.356 7.835,1.382 7.872 C 1.387 7.879,1.623 7.840,1.906 7.785 C 2.891 7.595,4.467 7.400,5.026 7.400 L 5.240 7.400 5.240 7.694 C 5.240 7.856,5.229 8.070,5.215 8.168 L 5.191 8.348 3.665 8.374 C 2.826 8.389,1.976 8.412,1.777 8.426 L 1.413 8.450 1.367 8.793 C 1.313 9.197,1.314 9.198,1.660 9.200 C 2.309 9.202,4.822 9.489,4.903 9.570 C 4.941 9.608,4.453 10.760,4.400 10.760 C 4.384 10.760,4.040 10.669,3.636 10.558 C 2.885 10.353,1.159 9.920,1.089 9.920 C 1.068 9.920,1.004 10.024,0.946 10.150 C 0.889 10.277,0.789 10.471,0.724 10.583 L 0.606 10.786 0.953 10.940 C 1.758 11.298,3.233 11.992,3.393 12.087 L 3.565 12.189 3.248 12.585 C 3.074 12.802,2.833 13.087,2.713 13.217 L 2.495 13.454 2.262 13.277 C 2.134 13.180,1.577 12.784,1.024 12.397 L 0.020 11.694 0.009 12.570 L -0.002 13.447 0.466 13.994 C 0.723 14.294,0.971 14.582,1.016 14.634 L 1.100 14.727 0.940 14.865 C 0.852 14.940,0.605 15.122,0.390 15.268 L 0.000 15.535 0.000 16.047 C 0.000 16.329,0.011 16.560,0.025 16.560 C 0.069 16.560,0.722 16.082,1.120 15.759 C 2.744 14.440,4.099 12.793,4.932 11.126 C 5.913 9.162,6.087 7.409,5.432 6.082 C 5.296 5.807,5.192 5.668,4.901 5.376 C 4.403 4.874,3.954 4.627,3.194 4.437 C 2.807 4.340,1.657 4.298,1.180 4.363 M13.863 6.362 C 14.115 6.762,14.234 6.896,14.605 7.198 C 15.031 7.545,16.104 8.590,16.069 8.624 C 16.058 8.635,15.818 8.493,15.535 8.309 C 14.785 7.822,14.620 7.731,14.658 7.825 C 14.765 8.091,14.863 8.402,14.973 8.835 L 15.100 9.329 15.560 9.608 C 15.990 9.869,16.804 10.443,17.048 10.658 C 17.190 10.783,17.276 11.243,17.308 12.055 L 17.332 12.650 16.876 12.283 C 16.625 12.081,16.150 11.735,15.820 11.514 L 15.221 11.112 15.171 11.666 C 15.125 12.171,14.982 13.136,14.935 13.260 C 14.923 13.290,15.087 13.430,15.348 13.610 C 15.781 13.910,16.502 14.473,16.858 14.789 L 17.049 14.958 16.999 15.169 C 16.843 15.831,16.416 17.109,16.281 17.320 C 16.250 17.369,16.209 17.348,16.051 17.196 C 15.650 16.811,14.271 15.680,14.203 15.680 C 14.188 15.680,14.153 15.748,14.124 15.830 C 13.995 16.199,13.197 17.777,12.933 18.184 C 12.882 18.262,12.919 18.304,13.570 18.892 C 13.949 19.235,14.392 19.639,14.553 19.788 L 14.846 20.060 14.518 20.540 C 14.127 21.112,13.669 21.716,13.224 22.249 L 12.900 22.638 11.997 21.736 L 11.094 20.835 10.678 21.328 C 10.449 21.598,9.913 22.175,9.486 22.609 L 8.710 23.397 8.980 23.699 L 9.250 24.000 11.105 24.000 L 12.960 24.000 13.105 23.840 C 13.936 22.920,15.057 21.359,15.690 20.240 C 17.107 17.735,17.808 15.366,17.814 13.060 C 17.818 11.373,17.486 10.091,16.764 9.013 C 16.366 8.419,15.064 7.197,14.043 6.460 C 13.924 6.374,13.843 6.330,13.863 6.362 M0.001 8.568 L 0.002 10.540 0.103 10.380 C 1.069 8.850,1.046 7.218,0.050 6.625 C 0.010 6.601,0.000 7.000,0.001 8.568 M17.965 10.684 C 18.009 10.825,18.090 11.123,18.144 11.347 C 18.212 11.629,18.329 11.933,18.521 12.330 C 18.674 12.647,18.861 13.097,18.938 13.330 C 19.078 13.758,19.257 14.589,19.233 14.701 C 19.225 14.736,19.063 14.552,18.844 14.261 C 18.637 13.986,18.434 13.731,18.394 13.694 C 18.323 13.630,18.320 13.638,18.319 13.904 C 18.318 14.267,18.259 14.822,18.154 15.444 L 18.070 15.949 18.409 16.367 C 18.873 16.941,19.160 17.356,19.160 17.456 C 19.159 17.700,18.556 19.700,18.452 19.804 C 18.433 19.823,18.302 19.684,18.155 19.489 C 17.826 19.049,17.319 18.440,17.282 18.440 C 17.267 18.440,17.213 18.543,17.161 18.670 C 16.978 19.118,16.488 20.107,16.186 20.635 C 16.018 20.930,15.880 21.178,15.880 21.186 C 15.880 21.195,16.070 21.428,16.303 21.706 C 16.796 22.295,17.040 22.612,17.040 22.665 C 17.040 22.686,16.852 22.990,16.622 23.341 L 16.204 23.980 16.632 23.992 C 17.143 24.006,17.066 24.071,17.596 23.180 C 18.778 21.192,19.500 19.122,19.722 17.088 C 19.792 16.443,19.752 15.158,19.643 14.540 C 19.475 13.586,19.275 12.995,18.777 11.980 C 18.516 11.449,18.015 10.562,17.920 10.464 C 17.901 10.445,17.921 10.544,17.965 10.684 M20.229 16.960 C 20.216 17.037,20.184 17.271,20.160 17.480 C 20.135 17.689,20.088 18.019,20.055 18.214 C 20.001 18.538,20.002 18.585,20.064 18.773 C 20.102 18.886,20.130 19.050,20.127 19.139 C 20.111 19.570,19.850 21.015,19.667 21.680 L 19.574 22.020 19.423 21.560 C 19.339 21.307,19.267 21.096,19.263 21.090 C 19.258 21.085,19.132 21.369,18.983 21.721 C 18.834 22.073,18.534 22.722,18.316 23.164 C 18.098 23.605,17.920 23.974,17.920 23.984 C 17.920 23.994,18.265 23.997,18.686 23.991 L 19.452 23.980 19.546 23.729 C 19.972 22.589,20.274 21.044,20.361 19.553 C 20.404 18.825,20.368 17.625,20.285 17.040 C 20.255 16.828,20.253 16.825,20.229 16.960 " stroke="none" fill="black" fill-rule="evenodd"></path></svg>