<svg role="img" xmlns="http://www.w3.org/2000/svg" viewBox="0 0 24 24"><path d="M0.000 12.000 L 0.000 15.440 12.000 15.440 L 24.000 15.440 24.000 12.000 L 24.000 8.560 12.000 8.560 L 0.000 8.560 0.000 12.000 M2.673 10.310 C 2.718 10.480,2.882 11.124,3.038 11.740 C 3.194 12.356,3.335 12.892,3.351 12.931 C 3.370 12.977,3.514 12.467,3.755 11.501 L 4.129 10.000 4.545 10.000 C 4.773 10.000,4.960 10.005,4.959 10.010 C 4.959 10.015,4.684 10.920,4.349 12.020 L 3.739 14.020 3.373 14.031 L 3.007 14.043 2.966 13.911 C 2.943 13.839,2.679 12.955,2.380 11.947 C 2.080 10.938,1.825 10.088,1.813 10.057 C 1.795 10.010,1.863 10.000,2.191 10.000 L 2.591 10.000 2.673 10.310 M8.948 12.020 C 9.261 13.120,9.518 14.025,9.519 14.031 C 9.519 14.038,9.336 14.038,9.111 14.031 L 8.703 14.020 8.615 13.700 C 8.566 13.524,8.507 13.303,8.482 13.210 L 8.437 13.040 7.826 13.040 L 7.215 13.040 7.100 13.520 L 6.985 14.000 6.572 14.000 C 6.346 14.000,6.160 13.991,6.160 13.980 C 6.160 13.963,7.201 10.278,7.264 10.069 C 7.284 10.005,7.338 9.999,7.833 10.009 L 8.379 10.020 8.948 12.020 M12.280 11.680 L 12.280 13.360 13.120 13.360 L 13.960 13.360 13.960 13.700 L 13.960 14.040 12.720 14.040 L 11.480 14.040 11.480 12.020 L 11.480 10.000 11.880 10.000 L 12.280 10.000 12.280 11.680 M16.120 11.477 C 16.329 12.289,16.506 12.947,16.513 12.940 C 16.521 12.933,16.693 12.273,16.897 11.473 L 17.268 10.020 17.679 10.009 C 18.001 10.000,18.085 10.008,18.070 10.049 C 18.059 10.077,17.795 10.942,17.484 11.971 C 17.172 13.000,16.900 13.888,16.879 13.943 C 16.842 14.041,16.832 14.043,16.492 14.032 L 16.143 14.020 15.572 12.140 C 15.257 11.106,14.983 10.201,14.963 10.130 L 14.926 10.000 15.333 10.000 L 15.740 10.000 16.120 11.477 M21.440 10.260 L 21.440 10.520 20.900 10.520 L 20.360 10.520 20.360 10.820 L 20.360 11.120 20.862 11.120 L 21.364 11.120 21.352 11.370 L 21.340 11.620 20.850 11.631 L 20.360 11.642 20.360 11.941 L 20.360 12.240 20.900 12.240 L 21.440 12.240 21.440 12.500 L 21.440 12.760 20.600 12.760 L 19.760 12.760 19.760 11.380 L 19.760 10.000 20.600 10.000 L 21.440 10.000 21.440 10.260 M7.807 10.860 C 7.737 11.122,7.440 12.315,7.440 12.338 C 7.440 12.350,7.635 12.360,7.874 12.360 L 8.309 12.360 8.093 11.570 C 7.974 11.136,7.871 10.762,7.864 10.740 C 7.857 10.718,7.831 10.772,7.807 10.860 " stroke="none" fill="black" fill-rule="evenodd"></path></svg>