<svg role="img" viewBox="0 0 24 24" xmlns="http://www.w3.org/2000/svg"><path d="M19.420 1.644 C 17.576 1.833,16.076 2.794,14.961 4.500 C 14.573 5.093,13.894 6.596,13.782 7.109 L 13.754 7.238 13.894 7.180 C 14.460 6.943,15.296 6.813,15.816 6.879 C 16.594 6.979,17.009 7.387,17.121 8.163 C 17.256 9.102,16.870 10.271,15.871 11.954 C 14.736 13.865,13.800 14.920,13.240 14.920 C 12.661 14.920,12.112 13.872,11.605 11.798 C 11.334 10.692,11.177 9.870,10.822 7.700 C 10.657 6.688,10.475 5.617,10.418 5.320 C 10.057 3.428,9.265 2.295,8.080 1.977 C 7.735 1.885,7.069 1.883,6.726 1.973 C 6.021 2.159,4.824 2.926,3.660 3.937 C 3.506 4.070,3.029 4.496,2.600 4.882 C 1.933 5.481,0.045 7.158,0.008 7.183 C -0.007 7.193,1.071 8.590,1.115 8.617 C 1.133 8.628,1.451 8.435,1.824 8.188 C 2.682 7.620,2.917 7.503,3.130 7.537 C 3.684 7.625,4.194 8.276,4.701 9.541 C 5.031 10.363,5.175 10.856,6.260 14.880 C 6.938 17.395,7.301 18.673,7.421 18.965 C 7.876 20.079,8.437 21.000,9.000 21.560 C 9.604 22.160,10.108 22.381,10.860 22.378 C 13.296 22.367,16.319 19.851,20.061 14.720 C 22.269 11.692,23.573 9.111,23.900 7.120 C 23.992 6.563,24.019 5.702,23.962 5.122 C 23.755 2.994,22.759 1.847,20.940 1.641 C 20.527 1.595,19.886 1.596,19.420 1.644 " stroke="none" fill="black" fill-rule="evenodd"></path></svg>