<svg role="img" viewBox="0 0 24 24" xmlns="http://www.w3.org/2000/svg"><path d="M7.987 0.038 C 7.756 0.113,7.760 0.094,7.760 1.085 L 7.760 2.000 6.943 2.000 C 6.493 2.000,6.080 2.017,6.025 2.038 C 5.850 2.105,5.820 2.215,5.820 2.802 C 5.820 3.622,5.786 3.599,6.986 3.600 L 7.712 3.600 7.726 4.459 C 7.738 5.218,7.748 5.325,7.811 5.389 C 7.873 5.450,7.959 5.460,8.451 5.460 C 9.110 5.460,9.228 5.437,9.281 5.296 C 9.303 5.240,9.320 4.837,9.320 4.400 L 9.320 3.605 10.224 3.593 L 11.127 3.580 11.207 3.481 C 11.280 3.391,11.286 3.334,11.273 2.773 C 11.262 2.252,11.250 2.152,11.189 2.091 C 11.125 2.028,11.018 2.019,10.219 2.008 L 9.320 1.996 9.320 1.120 C 9.320 0.256,9.319 0.243,9.225 0.134 C 9.131 0.025,9.122 0.023,8.615 0.013 C 8.332 0.007,8.049 0.019,7.987 0.038 M10.890 6.538 C 10.820 6.597,10.744 6.711,10.721 6.793 C 10.694 6.891,10.680 9.743,10.680 15.370 C 10.680 23.626,10.682 23.802,10.757 23.877 C 10.857 23.977,11.186 24.017,11.677 23.989 C 12.126 23.963,12.194 23.942,12.243 23.812 C 12.265 23.755,12.280 22.075,12.280 19.744 L 12.280 15.772 12.364 15.696 C 12.440 15.627,12.516 15.620,13.154 15.620 C 13.849 15.620,13.863 15.622,14.043 15.728 C 14.434 15.957,14.724 16.423,14.798 16.940 C 14.823 17.110,14.839 18.514,14.839 20.502 C 14.840 23.271,14.849 23.797,14.897 23.862 C 14.947 23.932,15.014 23.941,15.531 23.953 C 16.226 23.968,16.380 23.927,16.420 23.713 C 16.433 23.640,16.438 21.978,16.431 20.020 C 16.419 16.691,16.413 16.446,16.345 16.240 C 16.136 15.617,15.831 15.249,15.286 14.966 C 15.107 14.872,14.960 14.783,14.961 14.768 C 14.961 14.753,15.091 14.668,15.248 14.580 C 15.587 14.391,15.964 14.055,16.102 13.821 C 16.156 13.729,16.240 13.547,16.290 13.417 C 16.379 13.183,16.380 13.157,16.380 11.200 C 16.380 9.466,16.371 9.181,16.310 8.908 C 16.016 7.586,15.212 6.840,13.759 6.537 C 13.545 6.493,13.113 6.469,12.239 6.452 L 11.018 6.430 10.890 6.538 M0.640 6.529 C 0.569 6.566,0.536 6.621,0.527 6.718 C 0.506 6.938,2.523 23.603,2.588 23.746 C 2.677 23.941,2.821 23.980,3.460 23.980 C 4.083 23.980,4.247 23.939,4.316 23.767 C 4.351 23.678,5.157 17.254,6.223 8.566 L 6.450 6.712 6.368 6.630 C 6.268 6.530,6.016 6.486,5.529 6.482 C 5.048 6.479,4.900 6.537,4.845 6.747 C 4.803 6.904,3.686 17.851,3.623 18.716 C 3.602 19.006,3.525 19.128,3.409 19.055 C 3.371 19.032,3.326 18.951,3.310 18.876 C 3.293 18.801,3.161 17.408,3.017 15.780 C 2.523 10.181,2.199 6.753,2.159 6.678 C 2.082 6.534,1.955 6.505,1.340 6.490 C 0.897 6.480,0.714 6.490,0.640 6.529 M7.966 6.520 C 7.892 6.537,7.802 6.581,7.766 6.617 C 7.705 6.678,7.700 7.364,7.700 15.240 C 7.700 23.404,7.703 23.800,7.771 23.869 C 7.834 23.931,7.922 23.940,8.495 23.940 C 8.990 23.940,9.164 23.927,9.214 23.885 C 9.275 23.834,9.280 23.181,9.280 15.263 C 9.280 8.265,9.270 6.682,9.228 6.624 C 9.199 6.584,9.095 6.537,8.998 6.518 C 8.779 6.476,8.148 6.477,7.966 6.520 M17.960 6.569 C 17.683 6.755,17.701 6.151,17.700 15.320 L 17.700 23.580 17.792 23.727 C 17.938 23.963,18.027 23.977,19.320 23.976 C 20.582 23.975,20.888 23.934,21.475 23.687 C 22.404 23.297,23.142 22.429,23.399 21.424 C 23.476 21.124,23.480 20.985,23.480 18.822 C 23.480 16.361,23.477 16.321,23.264 15.860 C 23.079 15.463,22.748 15.153,22.256 14.918 C 22.115 14.851,22.000 14.789,22.000 14.780 C 22.000 14.771,22.131 14.687,22.290 14.595 C 22.649 14.385,23.004 14.052,23.162 13.777 C 23.227 13.662,23.317 13.428,23.361 13.258 C 23.434 12.971,23.440 12.812,23.440 11.179 C 23.440 9.775,23.427 9.337,23.379 9.055 C 23.250 8.306,23.044 7.881,22.582 7.415 C 22.315 7.146,22.195 7.059,21.877 6.905 C 21.667 6.803,21.316 6.671,21.097 6.612 C 20.712 6.508,20.660 6.504,19.400 6.490 L 18.100 6.474 17.960 6.569 M13.868 8.239 C 14.259 8.407,14.618 8.889,14.721 9.385 C 14.748 9.515,14.759 10.178,14.752 11.225 L 14.740 12.860 14.616 13.120 C 14.307 13.769,13.760 14.122,12.969 14.182 C 12.716 14.201,12.634 14.192,12.520 14.133 C 12.273 14.004,12.276 14.041,12.288 11.080 C 12.299 8.589,12.305 8.409,12.372 8.306 C 12.482 8.139,12.575 8.118,13.140 8.134 C 13.568 8.147,13.697 8.165,13.868 8.239 M20.931 8.231 C 21.338 8.413,21.716 8.957,21.799 9.480 C 21.821 9.623,21.840 10.389,21.840 11.182 C 21.840 12.356,21.828 12.667,21.778 12.862 C 21.570 13.660,20.826 14.200,19.933 14.200 C 19.663 14.200,19.510 14.123,19.425 13.946 C 19.367 13.822,19.360 13.527,19.360 11.150 C 19.360 9.271,19.373 8.454,19.405 8.362 C 19.478 8.154,19.615 8.116,20.220 8.132 C 20.642 8.144,20.776 8.162,20.931 8.231 M21.112 15.779 C 21.420 15.918,21.677 16.189,21.808 16.512 L 21.900 16.740 21.900 18.900 L 21.900 21.060 21.780 21.299 C 21.714 21.430,21.558 21.647,21.433 21.781 C 21.045 22.196,20.564 22.374,19.889 22.353 C 19.503 22.340,19.501 22.339,19.440 22.220 C 19.388 22.117,19.378 21.680,19.368 19.100 C 19.359 17.022,19.369 16.054,19.399 15.951 C 19.423 15.869,19.481 15.781,19.529 15.755 C 19.669 15.680,19.994 15.645,20.440 15.656 C 20.802 15.664,20.895 15.681,21.112 15.779 " stroke="none" fill="black" fill-rule="evenodd"></path></svg>