<svg role="img" viewBox="0 0 24 24" xmlns="http://www.w3.org/2000/svg"><path d="M17.100 0.136 C 17.012 0.163,16.868 0.232,16.780 0.289 C 16.666 0.362,9.584 6.793,7.133 9.048 L 7.045 9.129 4.984 7.564 C 3.850 6.703,2.854 5.959,2.771 5.909 C 2.555 5.781,2.085 5.782,1.868 5.910 C 1.784 5.960,1.374 6.310,0.957 6.689 C 0.083 7.483,0.020 7.573,0.021 8.020 C 0.021 8.242,0.041 8.335,0.117 8.469 C 0.181 8.580,0.839 9.209,2.047 10.309 C 3.055 11.228,3.880 11.989,3.880 12.000 C 3.880 12.011,3.055 12.772,2.047 13.691 C 0.839 14.791,0.181 15.420,0.117 15.531 C 0.041 15.665,0.021 15.758,0.021 15.980 C 0.020 16.432,0.080 16.517,1.000 17.349 C 1.660 17.946,1.837 18.086,2.006 18.142 C 2.258 18.226,2.584 18.201,2.783 18.083 C 2.860 18.038,3.849 17.298,4.982 16.438 L 7.041 14.875 7.217 15.027 C 7.314 15.111,9.483 17.088,12.037 19.420 C 15.540 22.618,16.738 23.689,16.911 23.778 C 17.201 23.926,17.686 23.966,17.991 23.867 C 18.160 23.811,22.057 21.955,23.021 21.470 C 23.456 21.251,23.689 21.031,23.856 20.680 L 23.980 20.420 23.980 12.000 L 23.980 3.580 23.856 3.320 C 23.689 2.969,23.457 2.749,23.021 2.531 C 22.005 2.020,18.156 0.182,18.004 0.135 C 17.787 0.067,17.315 0.068,17.100 0.136 M17.990 14.714 L 17.980 17.428 14.412 14.724 C 12.450 13.237,10.844 12.011,10.844 12.000 C 10.844 11.989,12.450 10.763,14.412 9.276 L 17.980 6.572 17.990 9.286 C 17.996 10.779,17.996 13.221,17.990 14.714 " stroke="none" fill="black" fill-rule="evenodd"></path></svg>