<svg role="img" viewBox="0 0 24 24" xmlns="http://www.w3.org/2000/svg"><path d="M7.120 0.030 C 7.120 0.080,11.979 11.559,12.000 11.559 C 12.021 11.559,16.880 0.080,16.880 0.030 C 16.880 0.013,14.684 0.000,12.000 0.000 C 9.316 0.000,7.120 0.013,7.120 0.030 M1.968 4.411 C 3.386 7.208,11.982 23.960,12.000 23.960 C 12.011 23.960,14.373 19.366,17.249 13.750 L 22.479 3.540 19.769 3.530 C 18.279 3.524,17.041 3.526,17.019 3.535 C 16.996 3.544,15.862 6.118,14.499 9.255 C 13.135 12.392,12.011 14.959,12.000 14.959 C 11.989 14.959,10.863 12.390,9.499 9.250 L 7.017 3.540 4.267 3.530 L 1.516 3.519 1.968 4.411 " stroke="none" fill="black" fill-rule="evenodd"></path></svg>