<svg role="img" viewBox="0 0 24 24" xmlns="http://www.w3.org/2000/svg"><path d="M0.777 1.682 C 0.187 1.909,-0.134 2.576,0.067 3.160 C 0.144 3.383,11.708 21.772,11.933 22.028 C 12.240 22.379,12.876 22.490,13.321 22.271 C 13.443 22.212,13.590 22.113,13.648 22.051 C 13.771 21.922,16.904 16.967,16.985 16.775 C 17.071 16.569,17.091 16.242,17.030 16.018 C 16.950 15.722,8.428 2.220,8.143 1.939 C 7.782 1.582,7.987 1.600,4.245 1.602 C 1.105 1.604,0.972 1.607,0.777 1.682 M14.680 1.662 C 14.199 1.817,13.865 2.279,13.863 2.795 C 13.863 2.979,13.887 3.115,13.945 3.240 C 14.057 3.486,18.740 10.913,18.866 11.045 C 19.152 11.346,19.659 11.470,20.091 11.344 C 20.501 11.225,20.576 11.126,22.204 8.540 C 23.022 7.242,23.754 6.067,23.830 5.928 C 23.996 5.628,24.040 5.288,23.949 4.998 C 23.877 4.766,22.231 2.156,22.026 1.948 C 21.941 1.862,21.788 1.753,21.686 1.706 C 21.501 1.620,21.484 1.620,18.180 1.612 C 15.382 1.606,14.832 1.614,14.680 1.662 " stroke="none" fill="black" fill-rule="evenodd"></path></svg>