<svg role="img" viewBox="0 0 24 24" xmlns="http://www.w3.org/2000/svg"><path d="M3.520 1.620 C 1.892 1.880,0.577 3.080,0.127 4.715 L 0.021 5.100 0.008 9.500 C -0.006 14.187,0.007 14.633,0.182 15.583 C 0.682 18.301,2.120 20.256,4.460 21.401 C 5.609 21.964,6.855 22.278,8.416 22.400 C 8.727 22.424,11.143 22.440,14.496 22.440 C 20.457 22.440,20.465 22.439,21.080 22.239 C 22.453 21.791,23.481 20.704,23.874 19.285 L 23.980 18.900 23.980 12.000 L 23.980 5.100 23.870 4.703 C 23.525 3.448,22.633 2.409,21.484 1.919 C 20.679 1.576,20.426 1.551,18.037 1.570 C 16.221 1.585,16.080 1.591,15.780 1.671 C 15.604 1.717,15.385 1.782,15.293 1.815 C 15.136 1.871,15.109 1.868,14.833 1.775 C 14.279 1.587,13.928 1.560,12.000 1.560 C 10.071 1.560,9.721 1.587,9.169 1.776 C 8.894 1.870,8.869 1.873,8.709 1.816 C 8.616 1.782,8.396 1.717,8.220 1.670 C 7.917 1.590,7.792 1.585,5.880 1.575 C 4.329 1.568,3.781 1.578,3.520 1.620 M8.118 2.695 C 8.260 2.732,8.486 2.817,8.620 2.883 L 8.864 3.003 9.122 2.883 C 9.687 2.620,9.683 2.620,12.000 2.620 C 14.063 2.620,14.106 2.622,14.412 2.711 C 14.584 2.760,14.816 2.847,14.927 2.904 L 15.130 3.006 15.377 2.884 C 15.904 2.625,15.960 2.620,18.260 2.621 C 20.278 2.622,20.349 2.624,20.650 2.709 C 21.004 2.809,21.454 3.025,21.726 3.225 C 22.345 3.679,22.803 4.463,22.919 5.266 C 22.944 5.438,22.958 7.953,22.958 12.040 C 22.957 19.060,22.964 18.837,22.744 19.415 C 22.378 20.381,21.542 21.092,20.500 21.326 C 20.155 21.403,8.668 21.406,8.040 21.328 C 7.445 21.255,6.751 21.131,6.400 21.035 C 3.165 20.149,1.384 17.955,1.081 14.480 C 1.057 14.207,1.041 12.279,1.042 9.740 C 1.043 6.331,1.054 5.399,1.097 5.160 C 1.333 3.845,2.365 2.841,3.682 2.645 C 3.827 2.624,4.795 2.611,5.900 2.617 C 7.592 2.626,7.895 2.637,8.118 2.695 M10.440 10.940 L 10.440 16.160 9.764 16.160 C 8.983 16.160,8.736 16.106,8.336 15.847 C 7.926 15.582,7.647 15.195,7.450 14.620 L 7.340 14.300 7.329 10.030 L 7.318 5.760 5.737 5.760 L 4.155 5.760 4.171 10.090 C 4.187 14.300,4.189 14.432,4.272 14.860 C 4.467 15.874,4.783 16.508,5.374 17.070 C 6.007 17.670,6.834 18.012,8.080 18.188 C 8.539 18.253,9.044 18.259,14.200 18.259 L 19.820 18.260 19.830 12.010 L 19.840 5.760 18.260 5.760 L 16.680 5.760 16.680 10.960 L 16.680 16.160 15.120 16.160 L 13.560 16.160 13.560 10.940 L 13.560 5.720 12.000 5.720 L 10.440 5.720 10.440 10.940 " stroke="none" fill="black" fill-rule="evenodd"></path></svg>