<svg role="img" xmlns="http://www.w3.org/2000/svg" viewBox="0 0 24 24"><path d="M14.465 3.702 C 11.089 4.162,8.297 6.659,7.458 9.967 C 7.370 10.314,7.241 11.041,7.240 11.192 C 7.240 11.230,7.309 11.241,7.508 11.232 L 7.777 11.220 7.848 10.780 C 8.065 9.445,8.632 8.176,9.483 7.123 C 9.653 6.912,9.846 6.689,9.912 6.626 L 10.033 6.512 10.286 6.726 C 10.426 6.844,10.633 7.000,10.746 7.072 L 10.953 7.204 10.761 7.612 C 10.330 8.528,9.985 9.845,9.895 10.917 C 9.872 11.193,9.877 11.240,9.930 11.240 C 9.977 11.240,9.999 11.177,10.019 10.990 C 10.118 10.057,10.356 9.009,10.635 8.272 C 10.776 7.902,11.025 7.322,11.058 7.289 C 11.065 7.282,11.185 7.339,11.325 7.416 C 11.838 7.697,12.948 8.092,13.474 8.179 C 13.649 8.209,13.649 8.209,13.626 8.354 C 13.526 8.997,13.400 10.742,13.400 11.490 L 13.400 11.960 12.980 11.960 C 12.587 11.960,12.560 11.965,12.560 12.040 C 12.560 12.115,12.587 12.120,12.974 12.120 L 13.387 12.120 13.414 12.990 C 13.440 13.850,13.520 14.925,13.602 15.534 C 13.626 15.707,13.639 15.855,13.631 15.862 C 13.623 15.870,13.373 15.939,13.076 16.015 C 12.479 16.168,11.962 16.360,11.431 16.625 C 11.239 16.721,11.074 16.800,11.065 16.800 C 11.056 16.800,10.963 16.607,10.859 16.370 C 10.594 15.766,10.345 14.989,10.221 14.380 C 10.163 14.094,10.108 13.820,10.097 13.770 C 10.078 13.677,9.960 13.642,9.960 13.730 C 9.961 13.758,10.014 14.041,10.079 14.360 C 10.223 15.068,10.420 15.698,10.705 16.363 C 10.823 16.640,10.920 16.877,10.920 16.890 C 10.920 16.903,10.854 16.954,10.773 17.004 C 10.693 17.054,10.493 17.201,10.329 17.331 L 10.032 17.568 9.892 17.434 C 9.815 17.360,9.647 17.172,9.518 17.016 C 8.642 15.950,8.020 14.547,7.838 13.225 C 7.762 12.671,7.795 12.720,7.499 12.720 L 7.240 12.720 7.240 12.836 C 7.240 13.051,7.395 13.856,7.520 14.290 C 8.552 17.871,11.853 20.357,15.580 20.360 C 17.414 20.361,19.188 19.766,20.680 18.649 C 21.080 18.350,21.823 17.621,22.159 17.200 C 23.074 16.051,23.647 14.746,23.907 13.220 C 24.013 12.594,24.003 11.331,23.885 10.668 C 23.603 9.073,22.976 7.736,21.945 6.533 C 20.627 4.995,18.720 3.966,16.699 3.701 C 16.134 3.627,15.014 3.627,14.465 3.702 M16.214 4.368 C 16.503 4.690,16.860 5.553,17.096 6.500 C 17.247 7.102,17.412 8.044,17.374 8.082 C 17.309 8.146,16.253 8.240,15.600 8.240 C 14.963 8.240,13.892 8.146,13.830 8.085 C 13.786 8.043,13.935 7.208,14.117 6.480 C 14.442 5.171,14.904 4.237,15.252 4.186 C 15.322 4.176,15.533 4.174,15.720 4.182 L 16.060 4.196 16.214 4.368 M14.895 4.250 C 14.879 4.277,14.826 4.354,14.777 4.420 C 14.390 4.945,13.924 6.402,13.717 7.730 C 13.674 8.008,13.660 8.040,13.581 8.040 C 13.460 8.040,12.559 7.788,12.220 7.660 C 11.821 7.508,11.196 7.196,11.174 7.137 C 11.124 7.010,11.807 6.036,12.316 5.508 C 12.975 4.824,13.625 4.409,14.200 4.305 C 14.813 4.194,14.934 4.184,14.895 4.250 M16.996 4.305 C 17.181 4.338,17.433 4.416,17.556 4.479 C 18.366 4.891,19.273 5.798,19.874 6.798 L 20.077 7.135 19.948 7.214 C 19.718 7.356,18.989 7.668,18.584 7.797 C 18.101 7.951,17.564 8.079,17.543 8.045 C 17.535 8.031,17.515 7.930,17.500 7.820 C 17.484 7.710,17.419 7.363,17.355 7.049 C 17.120 5.905,16.812 5.019,16.455 4.468 L 16.278 4.195 16.469 4.220 C 16.574 4.234,16.811 4.272,16.996 4.305 M13.178 4.592 C 13.157 4.609,13.003 4.726,12.835 4.852 C 12.270 5.276,11.616 6.031,11.210 6.730 C 11.110 6.901,11.013 7.040,10.992 7.040 C 10.934 7.040,10.517 6.745,10.320 6.565 L 10.140 6.400 10.400 6.155 C 11.020 5.571,11.927 5.022,12.840 4.677 C 13.151 4.560,13.245 4.536,13.178 4.592 M18.313 4.660 C 19.001 4.909,19.711 5.295,20.315 5.751 C 20.652 6.005,21.100 6.398,21.073 6.416 C 21.066 6.421,20.961 6.506,20.840 6.606 C 20.578 6.822,20.260 7.040,20.208 7.040 C 20.188 7.040,20.088 6.898,19.987 6.724 C 19.571 6.007,18.856 5.197,18.241 4.744 C 18.104 4.643,18.001 4.560,18.013 4.560 C 18.025 4.560,18.160 4.605,18.313 4.660 M21.633 7.020 C 22.044 7.511,22.360 8.002,22.664 8.620 C 23.106 9.521,23.382 10.554,23.428 11.486 L 23.452 11.960 22.406 11.960 L 21.360 11.960 21.360 11.699 C 21.360 11.324,21.252 10.350,21.158 9.871 C 20.996 9.051,20.805 8.435,20.475 7.673 C 20.362 7.411,20.277 7.193,20.285 7.188 C 20.413 7.111,20.752 6.863,20.935 6.711 C 21.213 6.482,21.165 6.461,21.633 7.020 M20.341 7.710 C 20.855 8.880,21.119 10.037,21.221 11.570 L 21.247 11.960 19.524 11.960 L 17.800 11.960 17.800 11.449 C 17.800 10.676,17.681 9.044,17.574 8.354 C 17.551 8.209,17.551 8.209,17.726 8.179 C 18.262 8.090,19.391 7.689,19.860 7.422 C 19.992 7.347,20.112 7.284,20.126 7.283 C 20.140 7.281,20.237 7.474,20.341 7.710 M14.340 8.327 C 14.982 8.425,16.690 8.385,17.324 8.257 L 17.429 8.236 17.495 8.828 C 17.581 9.598,17.630 10.284,17.663 11.210 L 17.691 11.960 17.112 11.960 C 16.583 11.960,16.526 11.967,16.460 12.040 C 16.388 12.120,16.390 12.120,17.039 12.120 L 17.691 12.120 17.664 12.870 C 17.625 13.954,17.472 15.777,17.417 15.836 C 17.408 15.845,17.277 15.831,17.124 15.806 C 16.268 15.665,14.935 15.664,14.082 15.805 C 13.926 15.831,13.792 15.845,13.784 15.836 C 13.728 15.775,13.580 13.986,13.537 12.850 L 13.510 12.120 14.155 12.120 C 14.510 12.120,14.800 12.106,14.800 12.088 C 14.800 11.982,14.679 11.960,14.108 11.960 L 13.513 11.960 13.540 11.210 C 13.569 10.407,13.647 9.318,13.724 8.647 L 13.772 8.233 13.896 8.256 C 13.964 8.269,14.164 8.301,14.340 8.327 M2.320 9.383 C 1.924 9.451,1.738 9.507,1.440 9.649 C 1.167 9.779,1.036 9.875,0.776 10.136 C 0.227 10.686,-0.030 11.347,0.012 12.102 C 0.073 13.191,0.775 14.101,1.820 14.447 C 2.053 14.524,2.181 14.540,2.580 14.538 C 2.994 14.536,3.103 14.521,3.371 14.428 C 4.184 14.146,4.855 13.440,5.055 12.658 L 5.105 12.460 7.333 12.450 L 9.560 12.439 9.560 12.920 L 9.560 13.400 10.020 13.400 L 10.480 13.400 10.480 12.920 L 10.480 12.440 10.899 12.440 L 11.318 12.440 11.329 13.150 L 11.340 13.860 11.810 13.871 L 12.280 13.883 12.280 12.681 L 12.280 11.480 8.696 11.470 L 5.112 11.460 5.022 11.175 C 4.892 10.764,4.704 10.459,4.383 10.137 C 4.068 9.822,3.718 9.609,3.308 9.484 C 3.042 9.403,2.517 9.349,2.320 9.383 M2.813 10.359 C 3.136 10.412,3.442 10.561,3.677 10.781 C 4.527 11.576,4.306 12.952,3.250 13.452 C 3.002 13.569,2.947 13.580,2.580 13.580 C 2.213 13.580,2.158 13.569,1.910 13.452 C 0.834 12.942,0.634 11.546,1.522 10.743 C 1.712 10.571,2.030 10.413,2.287 10.363 C 2.526 10.316,2.550 10.315,2.813 10.359 M15.366 10.763 C 15.058 10.886,14.880 11.149,14.880 11.481 C 14.880 11.718,14.918 11.806,15.106 12.003 L 15.242 12.145 15.061 13.067 C 14.961 13.574,14.880 14.009,14.880 14.034 C 14.880 14.067,15.091 14.080,15.625 14.080 C 16.314 14.080,16.368 14.075,16.351 14.010 C 16.341 13.972,16.255 13.539,16.159 13.050 L 15.985 12.159 16.111 12.030 C 16.435 11.695,16.441 11.236,16.126 10.939 C 15.920 10.745,15.597 10.670,15.366 10.763 M21.240 12.190 C 21.238 12.444,21.148 13.446,21.097 13.780 C 20.962 14.650,20.651 15.708,20.319 16.426 C 20.231 16.618,20.152 16.781,20.145 16.788 C 20.138 16.795,19.909 16.694,19.636 16.564 C 19.103 16.309,18.524 16.105,17.927 15.960 L 17.553 15.869 17.575 15.745 C 17.667 15.232,17.800 13.376,17.800 12.610 L 17.800 12.120 19.520 12.120 C 21.132 12.120,21.240 12.124,21.240 12.190 M23.440 12.430 C 23.440 12.758,23.361 13.360,23.259 13.814 C 22.974 15.082,22.279 16.407,21.429 17.305 L 21.173 17.574 20.936 17.377 C 20.806 17.269,20.605 17.120,20.490 17.046 C 20.374 16.972,20.280 16.900,20.280 16.885 C 20.280 16.870,20.360 16.676,20.457 16.454 C 20.979 15.270,21.278 13.988,21.346 12.650 L 21.372 12.120 22.406 12.120 L 23.440 12.120 23.440 12.430 M16.918 15.904 C 17.170 15.937,17.383 15.970,17.391 15.978 C 17.419 16.006,17.236 16.983,17.097 17.550 C 16.859 18.522,16.555 19.277,16.241 19.675 L 16.078 19.880 15.603 19.880 L 15.127 19.880 15.023 19.757 C 14.542 19.184,14.078 17.788,13.820 16.135 L 13.794 15.969 14.147 15.919 C 15.028 15.794,16.017 15.789,16.918 15.904 M13.735 16.430 C 13.971 17.836,14.379 19.087,14.786 19.653 C 14.863 19.760,14.920 19.852,14.913 19.858 C 14.906 19.864,14.682 19.836,14.415 19.797 C 14.030 19.741,13.873 19.697,13.655 19.587 C 13.042 19.276,12.440 18.764,11.908 18.099 C 11.592 17.705,11.160 17.035,11.160 16.939 C 11.160 16.876,12.016 16.472,12.480 16.317 C 12.838 16.198,13.531 16.006,13.621 16.002 C 13.644 16.001,13.695 16.194,13.735 16.430 M18.057 16.119 C 18.634 16.268,19.185 16.473,19.689 16.725 L 20.079 16.920 19.896 17.230 C 19.305 18.230,18.548 19.013,17.678 19.521 C 17.391 19.689,17.115 19.766,16.572 19.831 C 16.263 19.868,16.266 19.871,16.426 19.658 C 16.570 19.466,16.860 18.822,17.016 18.346 C 17.169 17.881,17.405 16.867,17.485 16.330 C 17.512 16.148,17.548 16.000,17.564 16.000 C 17.581 16.000,17.803 16.054,18.057 16.119 M11.214 17.337 C 11.625 18.044,12.303 18.826,12.880 19.258 C 13.023 19.365,13.157 19.468,13.179 19.487 C 13.200 19.506,13.085 19.476,12.923 19.421 C 12.518 19.283,11.892 18.979,11.443 18.700 C 11.071 18.470,10.389 17.944,10.207 17.749 L 10.114 17.649 10.546 17.324 C 10.784 17.146,10.988 17.001,10.999 17.002 C 11.011 17.003,11.107 17.153,11.214 17.337 M20.393 17.127 C 20.496 17.196,20.692 17.343,20.829 17.453 C 21.121 17.687,21.135 17.645,20.630 18.066 C 20.179 18.442,19.782 18.708,19.270 18.979 C 18.871 19.190,18.046 19.539,18.016 19.509 C 18.008 19.501,18.122 19.407,18.271 19.299 C 18.861 18.871,19.588 18.034,20.014 17.291 C 20.105 17.132,20.186 17.002,20.193 17.001 C 20.200 17.001,20.290 17.057,20.393 17.127 " stroke="none" fill="black" fill-rule="evenodd"></path></svg>