<svg role="img" viewBox="0 0 24 24" xmlns="http://www.w3.org/2000/svg"><path d="M10.860 0.227 C 10.425 0.266,9.546 0.417,9.052 0.539 C 5.284 1.472,2.207 4.160,0.789 7.760 C 0.040 9.660,-0.180 11.834,0.165 13.920 C 0.959 18.728,4.748 22.613,9.584 23.577 C 11.099 23.880,12.825 23.880,14.341 23.579 C 15.985 23.252,17.612 22.545,19.010 21.550 C 19.225 21.397,19.400 21.258,19.400 21.240 C 19.400 21.187,17.033 18.556,16.997 18.568 C 16.979 18.575,16.359 19.129,15.620 19.800 C 14.881 20.471,14.261 21.025,14.243 21.032 C 14.224 21.038,13.222 19.958,12.015 18.632 C 10.809 17.305,9.754 16.146,9.672 16.056 L 9.522 15.893 10.161 15.343 C 10.512 15.040,10.800 14.781,10.800 14.766 C 10.800 14.751,10.071 13.933,9.180 12.950 C 8.289 11.966,7.561 11.147,7.563 11.130 C 7.564 11.114,7.843 10.860,8.183 10.568 C 8.522 10.275,8.800 10.019,8.800 9.999 C 8.800 9.979,8.062 9.158,7.160 8.174 C 6.258 7.190,5.521 6.375,5.522 6.363 C 5.527 6.323,10.666 1.780,10.707 1.780 C 10.729 1.780,11.113 2.171,11.560 2.650 C 12.252 3.391,12.382 3.512,12.434 3.470 C 12.468 3.442,13.108 2.883,13.857 2.227 L 15.218 1.034 15.375 1.207 C 15.462 1.302,15.830 1.681,16.193 2.049 C 16.757 2.621,16.863 2.712,16.916 2.669 C 17.116 2.513,17.920 1.786,17.920 1.762 C 17.920 1.713,16.688 1.138,16.172 0.946 C 15.241 0.599,14.124 0.340,13.143 0.243 C 12.745 0.204,11.247 0.194,10.860 0.227 M18.380 3.469 C 18.006 3.811,17.694 4.106,17.687 4.125 C 17.675 4.155,18.830 5.444,18.916 5.498 C 18.948 5.517,20.288 4.347,20.313 4.277 C 20.324 4.248,19.517 3.321,19.143 2.934 L 19.060 2.847 18.380 3.469 M14.052 4.113 C 13.497 4.612,13.023 5.041,12.998 5.066 C 12.964 5.100,13.193 5.376,13.898 6.156 C 14.418 6.730,14.856 7.200,14.872 7.199 C 14.909 7.199,16.936 5.366,16.953 5.317 C 16.964 5.287,16.032 4.242,15.233 3.390 L 15.060 3.205 14.052 4.113 M9.132 5.207 L 7.723 6.453 7.848 6.597 C 7.917 6.675,8.492 7.312,9.125 8.010 L 10.277 9.281 11.696 8.030 C 12.476 7.343,13.115 6.771,13.117 6.760 C 13.121 6.729,10.625 3.987,10.580 3.973 C 10.558 3.966,9.906 4.521,9.132 5.207 M20.419 7.469 C 20.154 7.706,19.834 7.992,19.707 8.104 L 19.477 8.309 20.104 8.994 C 20.449 9.371,20.745 9.680,20.761 9.680 C 20.805 9.680,22.140 8.483,22.140 8.443 C 22.140 8.424,21.890 8.135,21.584 7.801 C 21.278 7.467,20.999 7.158,20.964 7.116 C 20.902 7.041,20.882 7.055,20.419 7.469 M16.031 8.346 C 15.497 8.822,15.027 9.243,14.986 9.281 C 14.914 9.348,14.943 9.386,15.801 10.325 C 16.290 10.861,16.722 11.333,16.761 11.374 C 16.828 11.446,16.868 11.415,17.893 10.500 L 18.956 9.551 18.148 8.670 C 17.704 8.185,17.280 7.719,17.207 7.634 C 17.134 7.549,17.058 7.480,17.038 7.480 C 17.018 7.480,16.565 7.870,16.031 8.346 M11.220 9.963 C 10.472 10.624,9.835 11.190,9.805 11.219 C 9.760 11.264,9.942 11.483,10.941 12.586 C 11.596 13.309,12.173 13.943,12.222 13.996 L 12.313 14.091 12.826 13.634 C 13.478 13.055,15.135 11.588,15.154 11.575 C 15.172 11.562,12.633 8.760,12.603 8.760 C 12.590 8.760,11.968 9.302,11.220 9.963 M21.971 11.867 L 21.282 12.488 21.911 13.181 C 22.257 13.562,22.552 13.870,22.566 13.867 C 22.581 13.863,22.909 13.582,23.297 13.242 L 24.001 12.625 23.868 12.482 C 23.795 12.404,23.505 12.093,23.223 11.790 C 22.941 11.488,22.699 11.241,22.685 11.242 C 22.671 11.244,22.350 11.525,21.971 11.867 M17.800 12.842 C 17.239 13.345,16.780 13.776,16.780 13.798 C 16.780 13.820,17.202 14.306,17.718 14.879 L 18.655 15.920 18.758 15.827 C 18.814 15.776,19.288 15.352,19.810 14.885 C 20.332 14.417,20.759 14.023,20.758 14.008 C 20.754 13.966,18.906 11.947,18.860 11.936 C 18.838 11.930,18.361 12.338,17.800 12.842 M13.206 14.862 C 12.433 15.558,11.801 16.140,11.802 16.154 C 11.807 16.205,14.305 18.900,14.347 18.900 C 14.371 18.900,14.988 18.371,15.718 17.725 C 16.447 17.078,17.080 16.520,17.123 16.485 C 17.199 16.422,17.158 16.372,15.978 15.080 C 15.304 14.343,14.722 13.707,14.683 13.667 C 14.615 13.598,14.557 13.645,13.206 14.862 M19.692 17.092 C 19.117 17.602,18.645 18.038,18.644 18.060 C 18.641 18.123,20.485 20.141,20.541 20.135 C 20.585 20.131,22.570 18.361,22.618 18.283 C 22.629 18.265,22.213 17.785,21.694 17.215 C 21.175 16.646,20.747 16.176,20.744 16.172 C 20.740 16.167,20.266 16.581,19.692 17.092 " stroke="none" fill="black" fill-rule="evenodd"></path></svg>