<svg role="img" viewBox="0 0 24 24" xmlns="http://www.w3.org/2000/svg"><path d="M7.240 4.164 C 4.853 5.508,2.858 6.634,2.807 6.667 C 2.716 6.724,2.764 6.756,4.285 7.629 C 5.799 8.498,5.861 8.530,5.959 8.474 C 6.014 8.443,7.306 7.735,8.830 6.902 L 11.600 5.386 11.600 3.553 C 11.600 2.545,11.595 1.720,11.590 1.720 C 11.585 1.720,9.627 2.820,7.240 4.164 M12.370 3.558 L 12.380 5.404 15.120 6.906 C 16.627 7.732,17.914 8.435,17.981 8.467 C 18.102 8.526,18.104 8.525,19.651 7.635 C 20.503 7.145,21.200 6.733,21.200 6.720 C 21.200 6.708,20.637 6.380,19.950 5.993 C 16.043 3.794,12.678 1.898,12.530 1.811 L 12.359 1.712 12.370 3.558 M9.330 7.494 C 7.875 8.291,6.675 8.952,6.663 8.963 C 6.647 8.980,11.663 11.891,11.915 12.012 C 11.965 12.036,12.676 11.646,14.619 10.528 C 16.070 9.694,17.261 8.995,17.266 8.976 C 17.272 8.956,16.229 8.368,14.948 7.669 C 13.668 6.970,12.475 6.319,12.298 6.221 L 11.976 6.044 9.330 7.494 M2.320 12.480 C 2.320 15.274,2.334 17.560,2.351 17.560 C 2.368 17.560,3.083 17.156,3.941 16.663 L 5.500 15.766 5.510 12.488 L 5.520 9.210 3.946 8.305 C 3.080 7.807,2.360 7.400,2.346 7.400 C 2.332 7.400,2.320 9.686,2.320 12.480 M20.020 8.294 L 18.460 9.190 18.460 12.483 L 18.460 15.775 20.015 16.669 C 20.871 17.160,21.578 17.556,21.586 17.548 C 21.594 17.540,21.596 15.253,21.590 12.466 L 21.580 7.398 20.020 8.294 M15.010 11.172 L 12.360 12.699 12.360 15.512 L 12.360 18.326 12.793 18.093 C 13.031 17.965,14.228 17.311,15.453 16.640 L 17.680 15.420 17.680 12.530 C 17.680 10.941,17.675 9.641,17.670 9.643 C 17.665 9.644,16.468 10.332,15.010 11.172 M6.280 12.549 L 6.280 15.427 8.923 16.874 C 10.376 17.669,11.573 18.320,11.583 18.320 C 11.592 18.320,11.600 17.060,11.600 15.521 L 11.600 12.721 11.450 12.627 C 11.216 12.481,6.402 9.718,6.338 9.694 C 6.288 9.674,6.280 10.061,6.280 12.549 M4.570 17.172 C 3.685 17.682,2.960 18.109,2.960 18.120 C 2.960 18.135,9.686 21.938,11.328 22.852 L 11.601 23.003 11.590 21.098 L 11.580 19.192 8.885 17.716 C 7.402 16.904,6.187 16.241,6.185 16.242 C 6.182 16.243,5.456 16.662,4.570 17.172 M15.060 17.716 L 12.380 19.184 12.370 21.093 L 12.359 23.002 12.570 22.881 C 12.685 22.815,14.629 21.721,16.889 20.450 C 19.148 19.180,20.997 18.131,20.997 18.120 C 20.997 18.101,18.726 16.789,18.043 16.413 L 17.740 16.247 15.060 17.716 " stroke="none" fill="black" fill-rule="evenodd"></path></svg>