<svg role="img" viewBox="0 0 24 24" xmlns="http://www.w3.org/2000/svg"><path d="M10.940 0.046 C 8.604 0.250,6.361 1.142,4.520 2.598 C 4.024 2.991,3.009 3.999,2.625 4.480 C 0.279 7.419,-0.557 11.331,0.381 14.980 C 1.238 18.317,3.517 21.149,6.602 22.711 C 9.500 24.178,12.870 24.398,15.974 23.321 C 18.663 22.389,20.974 20.454,22.436 17.911 C 23.202 16.579,23.727 14.977,23.928 13.360 C 24.005 12.741,23.993 11.106,23.906 10.480 C 23.520 7.674,22.335 5.306,20.355 3.379 C 19.108 2.166,17.727 1.304,16.068 0.703 C 14.504 0.137,12.636 -0.102,10.940 0.046 M12.660 2.041 C 14.014 2.137,15.170 2.448,16.382 3.041 C 20.355 4.985,22.593 9.355,21.839 13.693 C 21.096 17.973,17.608 21.326,13.300 21.902 C 12.601 21.996,11.400 21.996,10.700 21.903 C 10.090 21.821,9.139 21.587,8.577 21.380 C 7.595 21.018,6.411 20.331,5.600 19.650 C 2.872 17.360,1.556 13.786,2.161 10.307 C 2.705 7.171,4.753 4.446,7.620 3.040 C 8.309 2.703,8.810 2.516,9.494 2.342 C 10.154 2.174,10.674 2.085,11.250 2.044 C 11.904 1.997,12.040 1.996,12.660 2.041 M6.660 7.008 C 6.594 7.031,6.489 7.097,6.426 7.155 C 6.217 7.349,6.200 7.422,6.201 8.128 C 6.201 8.730,6.208 8.792,6.291 8.939 C 6.342 9.028,6.452 9.138,6.541 9.189 L 6.700 9.279 11.244 9.279 L 15.788 9.280 15.923 9.189 C 15.997 9.139,16.099 9.037,16.149 8.963 C 16.235 8.835,16.240 8.790,16.240 8.120 C 16.240 7.452,16.235 7.404,16.150 7.276 C 16.100 7.201,15.979 7.100,15.881 7.050 L 15.703 6.960 11.242 6.963 C 8.248 6.965,6.741 6.980,6.660 7.008 M8.940 10.817 C 8.791 10.883,8.619 11.064,8.563 11.213 C 8.539 11.275,8.520 11.609,8.520 11.960 C 8.520 12.637,8.543 12.754,8.713 12.935 C 8.934 13.172,8.686 13.160,13.540 13.160 C 17.477 13.160,18.020 13.153,18.151 13.098 C 18.341 13.019,18.468 12.899,18.566 12.707 C 18.637 12.568,18.644 12.485,18.633 11.867 C 18.621 11.216,18.615 11.173,18.524 11.045 C 18.471 10.971,18.354 10.877,18.264 10.836 C 18.107 10.765,17.903 10.762,13.580 10.762 C 9.891 10.763,9.038 10.773,8.940 10.817 M6.580 14.783 C 6.237 14.962,6.200 15.064,6.200 15.835 C 6.200 16.189,6.219 16.525,6.242 16.587 C 6.303 16.748,6.513 16.957,6.700 17.044 C 6.853 17.115,7.059 17.118,11.300 17.118 C 15.522 17.118,15.748 17.115,15.902 17.045 C 16.078 16.965,16.267 16.766,16.303 16.624 C 16.315 16.574,16.320 16.218,16.313 15.833 C 16.300 15.144,16.298 15.131,16.192 14.992 C 15.969 14.700,16.323 14.720,11.254 14.720 C 7.202 14.720,6.687 14.727,6.580 14.783 " stroke="none" fill="black" fill-rule="evenodd"></path></svg>