<svg role="img" viewBox="0 0 24 24" xmlns="http://www.w3.org/2000/svg"><path d="M0.027 4.426 C 0.012 4.441,-0.000 4.567,-0.000 4.705 C -0.000 5.015,0.005 5.019,0.557 5.080 C 1.065 5.136,1.356 5.239,1.515 5.420 C 1.653 5.577,1.832 5.943,2.239 6.900 C 2.683 7.945,3.536 9.812,5.072 13.102 C 6.486 16.132,6.970 17.190,7.501 18.407 C 7.819 19.136,7.981 19.405,8.174 19.523 C 8.552 19.753,8.896 19.476,9.398 18.539 C 9.560 18.236,10.225 16.911,10.876 15.595 L 12.060 13.203 12.337 13.812 C 13.768 16.961,14.779 19.092,14.945 19.310 C 15.165 19.598,15.483 19.682,15.705 19.511 C 15.972 19.305,16.123 19.041,16.638 17.880 C 17.426 16.104,19.124 12.241,20.428 9.260 C 21.120 7.676,21.741 6.278,21.807 6.154 C 22.002 5.786,22.284 5.502,22.612 5.343 C 22.914 5.196,23.393 5.080,23.695 5.080 C 23.955 5.080,24.006 5.012,23.992 4.685 L 23.980 4.420 21.504 4.410 C 19.709 4.402,19.014 4.412,18.974 4.445 C 18.894 4.511,18.904 4.852,18.990 4.954 C 19.050 5.025,19.130 5.042,19.542 5.074 C 20.072 5.114,20.249 5.177,20.460 5.399 C 20.571 5.516,20.580 5.547,20.578 5.813 L 20.576 6.100 18.366 11.341 C 17.151 14.223,16.141 16.605,16.123 16.635 C 16.022 16.798,15.927 16.626,14.542 13.792 L 13.151 10.945 13.240 10.763 C 13.506 10.214,15.595 6.385,15.860 5.960 C 16.342 5.186,16.408 5.134,16.980 5.064 L 17.340 5.020 17.352 4.709 L 17.363 4.399 15.292 4.410 L 13.220 4.420 13.208 4.654 C 13.191 4.973,13.243 5.025,13.613 5.059 C 14.272 5.120,14.520 5.262,14.520 5.581 C 14.520 5.840,14.437 6.026,13.442 8.000 L 12.566 9.740 11.900 8.380 C 10.848 6.233,10.606 5.711,10.577 5.530 C 10.527 5.216,10.672 5.120,11.290 5.057 C 11.438 5.041,11.578 5.006,11.602 4.978 C 11.625 4.950,11.639 4.813,11.632 4.673 L 11.620 4.420 9.410 4.410 L 7.200 4.399 7.200 4.675 C 7.200 4.848,7.219 4.965,7.250 4.989 C 7.277 5.011,7.432 5.049,7.594 5.075 C 7.756 5.101,7.938 5.148,8.000 5.180 C 8.218 5.293,8.403 5.583,8.917 6.616 C 9.203 7.190,9.789 8.353,10.219 9.200 C 10.650 10.047,11.118 10.996,11.261 11.310 L 11.520 11.879 10.320 14.280 C 9.660 15.600,9.106 16.680,9.090 16.679 C 8.978 16.677,9.040 16.799,7.739 14.020 C 6.065 10.442,4.903 7.890,4.301 6.468 C 3.810 5.307,3.877 5.154,4.916 5.076 C 5.512 5.032,5.529 5.020,5.512 4.660 L 5.500 4.420 2.777 4.410 C 1.279 4.404,0.042 4.412,0.027 4.426 " stroke="none" fill="black" fill-rule="evenodd"></path></svg>