<svg role="img" viewBox="0 0 24 24" xmlns="http://www.w3.org/2000/svg"><path d="M0.054 7.349 C 0.022 7.371,0.366 8.729,1.234 12.010 L 2.458 16.640 2.799 16.639 C 3.619 16.638,4.141 16.354,4.451 15.740 C 4.604 15.435,4.708 15.058,5.358 12.440 C 5.689 11.109,5.990 9.952,6.026 9.869 C 6.154 9.580,6.399 9.633,6.500 9.971 C 6.534 10.086,6.824 11.233,7.143 12.520 C 7.801 15.176,7.839 15.313,8.019 15.705 C 8.307 16.332,8.859 16.640,9.694 16.640 L 10.024 16.640 11.249 12.010 C 12.131 8.674,12.460 7.372,12.427 7.349 C 12.363 7.306,11.868 7.352,11.600 7.426 C 11.120 7.559,10.746 7.867,10.547 8.292 C 10.493 8.407,10.155 9.646,9.795 11.048 C 9.435 12.449,9.129 13.583,9.116 13.568 C 9.104 13.552,8.943 12.964,8.761 12.260 C 7.874 8.846,7.798 8.613,7.440 8.225 C 6.873 7.609,5.607 7.609,5.040 8.225 C 4.714 8.578,4.601 8.905,3.967 11.323 C 3.644 12.553,3.370 13.560,3.357 13.560 C 3.344 13.560,3.041 12.422,2.683 11.030 C 2.239 9.303,1.994 8.421,1.911 8.251 C 1.712 7.842,1.359 7.560,0.879 7.426 C 0.614 7.352,0.117 7.306,0.054 7.349 M14.290 7.364 C 13.477 7.459,13.156 7.867,13.094 8.889 L 13.067 9.333 13.255 9.204 C 13.358 9.133,13.536 9.036,13.651 8.989 C 14.135 8.791,14.464 8.542,14.605 8.268 C 14.688 8.108,14.787 7.487,14.746 7.382 C 14.720 7.315,14.717 7.314,14.290 7.364 M15.710 7.347 C 15.605 7.357,15.520 7.370,15.520 7.377 C 15.520 7.384,16.220 8.432,17.075 9.705 L 18.631 12.020 17.982 12.980 C 17.625 13.508,16.926 14.545,16.428 15.286 L 15.522 16.631 15.731 16.656 C 16.003 16.689,16.695 16.621,16.944 16.537 C 17.543 16.334,17.725 16.145,18.779 14.620 C 19.640 13.375,19.625 13.393,19.771 13.408 C 19.884 13.419,19.953 13.503,20.538 14.345 C 21.838 16.216,22.092 16.461,22.880 16.607 C 23.134 16.655,23.900 16.673,23.940 16.633 C 23.955 16.618,23.285 15.591,22.451 14.351 C 21.617 13.111,20.923 12.078,20.909 12.054 C 20.894 12.031,21.584 10.969,22.441 9.696 L 23.999 7.380 23.750 7.351 C 23.449 7.316,23.023 7.345,22.711 7.422 C 22.063 7.581,21.805 7.850,20.521 9.709 C 20.183 10.198,19.874 10.609,19.834 10.622 C 19.793 10.635,19.724 10.634,19.681 10.620 C 19.637 10.606,19.320 10.188,18.974 9.688 C 17.702 7.849,17.453 7.587,16.831 7.425 C 16.586 7.361,16.005 7.321,15.710 7.347 M14.580 9.042 C 14.472 9.154,14.262 9.285,13.929 9.448 C 13.658 9.580,13.381 9.735,13.313 9.792 C 13.071 9.995,13.080 9.860,13.080 13.399 L 13.080 16.640 13.410 16.640 C 13.806 16.640,13.952 16.603,14.241 16.431 C 14.546 16.249,14.670 15.997,14.723 15.456 C 14.746 15.226,14.757 13.760,14.751 11.968 L 14.740 8.876 14.580 9.042 " stroke="none" fill="black" fill-rule="evenodd"></path></svg>