<svg role="img" viewBox="0 0 24 24" xmlns="http://www.w3.org/2000/svg"><path d="M10.940 0.046 C 9.377 0.181,7.652 0.701,6.300 1.446 C 2.829 3.356,0.557 6.712,0.073 10.640 C 0.006 11.184,0.006 12.816,0.073 13.360 C 0.664 18.159,3.971 22.107,8.562 23.494 C 11.588 24.409,14.976 24.055,17.727 22.539 C 21.171 20.641,23.445 17.273,23.927 13.360 C 23.994 12.816,23.994 11.184,23.927 10.640 C 23.569 7.732,22.255 5.165,20.100 3.163 C 17.666 0.902,14.297 -0.245,10.940 0.046 M13.360 1.305 C 15.334 1.557,17.184 2.341,18.740 3.586 C 18.960 3.762,19.165 3.936,19.195 3.973 C 19.245 4.034,19.235 4.040,19.095 4.041 C 18.266 4.046,17.493 4.770,17.358 5.669 C 17.257 6.338,17.480 7.005,18.182 8.141 C 18.696 8.973,19.010 9.683,19.164 10.360 C 19.268 10.816,19.303 11.566,19.243 12.020 C 19.184 12.457,18.956 13.358,18.686 14.220 C 18.576 14.572,18.294 15.499,18.061 16.280 C 17.462 18.277,17.396 18.490,17.379 18.472 C 17.356 18.449,13.520 7.019,13.520 6.972 C 13.520 6.949,13.686 6.919,13.910 6.903 C 14.493 6.861,14.832 6.807,14.937 6.738 C 15.149 6.599,15.172 6.234,14.980 6.042 C 14.857 5.918,14.822 5.917,13.438 5.996 C 12.344 6.057,10.641 6.041,9.474 5.956 C 8.826 5.910,8.760 5.911,8.665 5.973 C 8.429 6.128,8.380 6.468,8.565 6.665 C 8.668 6.775,8.729 6.788,9.439 6.852 L 9.978 6.900 10.816 9.197 L 11.653 11.493 10.477 15.006 C 9.830 16.938,9.291 18.519,9.280 18.519 C 9.269 18.519,8.388 15.923,7.323 12.749 C 6.258 9.576,5.378 6.958,5.369 6.930 C 5.356 6.894,5.412 6.880,5.569 6.880 C 5.950 6.880,6.655 6.794,6.773 6.733 C 6.915 6.660,7.015 6.432,6.982 6.256 C 6.967 6.178,6.905 6.081,6.829 6.017 L 6.700 5.909 6.200 5.933 C 5.925 5.947,5.340 5.977,4.900 6.001 C 4.460 6.025,3.842 6.039,3.528 6.032 L 2.955 6.020 3.228 5.654 C 5.138 3.084,8.074 1.470,11.255 1.239 C 11.815 1.199,12.761 1.228,13.360 1.305 M22.128 8.284 C 22.588 9.584,22.771 10.637,22.772 12.000 C 22.774 14.498,21.971 16.785,20.400 18.760 C 20.005 19.256,19.277 19.990,18.800 20.373 C 18.455 20.650,17.473 21.326,17.449 21.303 C 17.438 21.292,20.315 12.952,20.921 11.240 C 21.377 9.950,21.536 9.007,21.514 7.715 L 21.500 6.870 21.740 7.369 C 21.872 7.644,22.046 8.055,22.128 8.284 M4.721 14.668 C 6.125 18.514,7.266 21.667,7.258 21.675 C 7.229 21.704,6.526 21.303,6.040 20.979 C 5.366 20.530,4.951 20.192,4.379 19.620 C 2.676 17.922,1.610 15.750,1.295 13.340 C 1.203 12.637,1.203 11.318,1.295 10.640 C 1.377 10.034,1.526 9.351,1.688 8.840 C 1.846 8.340,2.123 7.629,2.149 7.656 C 2.161 7.667,3.318 10.823,4.721 14.668 M13.866 17.527 C 14.778 20.020,15.534 22.088,15.545 22.123 C 15.561 22.172,15.477 22.213,15.144 22.315 C 13.443 22.837,11.484 22.918,9.724 22.537 C 9.116 22.406,8.954 22.356,8.971 22.303 C 9.537 20.629,12.184 12.971,12.194 12.981 C 12.202 12.988,12.954 15.034,13.866 17.527 " stroke="none" fill="black" fill-rule="evenodd"></path></svg>