<svg role="img" xmlns="http://www.w3.org/2000/svg" viewBox="0 0 24 24"><path d="M4.946 3.002 C 3.620 3.225,2.536 4.188,2.135 5.500 L 2.026 5.860 1.999 7.660 C 1.980 8.944,1.958 9.506,1.922 9.620 C 1.745 10.174,1.332 10.669,0.843 10.914 C 0.673 10.999,0.417 11.090,0.274 11.117 L 0.014 11.166 0.014 11.720 L 0.014 12.273 0.196 12.300 C 0.975 12.417,1.668 13.027,1.922 13.820 C 1.960 13.936,1.981 14.525,2.000 15.980 C 2.025 17.880,2.030 17.996,2.115 18.300 C 2.530 19.795,3.846 20.899,5.366 21.025 L 5.680 21.052 5.680 20.486 L 5.680 19.920 5.550 19.919 C 5.287 19.918,4.851 19.797,4.521 19.634 C 3.923 19.340,3.437 18.760,3.216 18.080 C 3.154 17.886,3.142 17.624,3.120 15.860 C 3.098 14.144,3.084 13.826,3.026 13.622 C 2.927 13.280,2.788 12.951,2.634 12.693 C 2.499 12.468,1.984 11.906,1.803 11.786 L 1.706 11.723 1.823 11.635 C 2.260 11.306,2.683 10.743,2.885 10.220 C 3.096 9.676,3.117 9.456,3.119 7.756 C 3.120 6.353,3.127 6.185,3.199 5.904 C 3.310 5.469,3.495 5.146,3.820 4.816 C 4.309 4.321,4.893 4.080,5.606 4.080 L 5.960 4.080 5.960 3.520 L 5.960 2.960 5.550 2.965 C 5.325 2.967,5.053 2.984,4.946 3.002 M18.040 3.509 L 18.040 4.069 18.510 4.091 C 19.141 4.120,19.554 4.267,19.982 4.613 C 20.397 4.951,20.666 5.375,20.803 5.910 C 20.872 6.183,20.880 6.364,20.881 7.756 C 20.882 8.870,20.898 9.384,20.937 9.600 C 21.007 9.993,21.197 10.476,21.408 10.800 C 21.583 11.068,21.968 11.483,22.180 11.630 L 22.299 11.713 22.180 11.806 C 21.742 12.146,21.421 12.544,21.198 13.020 C 20.908 13.643,20.909 13.634,20.881 15.860 C 20.858 17.741,20.851 17.875,20.773 18.107 C 20.548 18.776,20.065 19.345,19.476 19.636 C 19.148 19.797,18.712 19.918,18.450 19.919 L 18.320 19.920 18.320 20.486 L 18.320 21.052 18.636 21.025 C 20.157 20.898,21.469 19.798,21.885 18.300 C 21.970 17.996,21.975 17.880,22.000 15.980 C 22.019 14.525,22.040 13.936,22.078 13.820 C 22.333 13.025,23.024 12.417,23.803 12.304 L 23.986 12.277 23.986 11.722 L 23.986 11.166 23.726 11.117 C 22.978 10.976,22.320 10.378,22.078 9.620 C 22.042 9.506,22.020 8.944,22.001 7.660 L 21.974 5.860 21.867 5.508 C 21.671 4.869,21.369 4.370,20.915 3.938 C 20.590 3.629,20.356 3.470,19.947 3.281 C 19.479 3.064,19.176 2.996,18.570 2.971 L 18.040 2.950 18.040 3.509 M6.500 7.709 C 8.989 10.053,9.983 10.959,10.226 11.103 C 10.865 11.484,11.408 11.621,12.160 11.589 C 12.882 11.558,13.478 11.356,13.998 10.965 C 14.183 10.826,17.474 7.767,17.656 7.565 L 17.732 7.480 16.912 7.480 L 16.093 7.480 14.736 8.741 C 13.990 9.435,13.283 10.068,13.164 10.147 C 12.490 10.599,11.584 10.611,10.880 10.177 C 10.759 10.103,10.048 9.466,9.300 8.763 L 7.940 7.484 7.100 7.484 L 6.260 7.483 6.500 7.709 M11.447 12.405 C 10.955 12.487,10.395 12.728,10.000 13.029 C 9.818 13.168,6.280 16.472,6.280 16.503 C 6.280 16.512,6.647 16.520,7.095 16.520 L 7.909 16.520 9.285 15.233 C 10.041 14.525,10.765 13.878,10.893 13.795 C 11.263 13.556,11.472 13.500,12.000 13.500 C 12.535 13.500,12.799 13.569,13.154 13.801 C 13.278 13.883,13.992 14.527,14.740 15.233 L 16.100 16.517 16.939 16.519 C 17.763 16.520,17.776 16.519,17.699 16.444 C 16.710 15.494,14.082 13.071,13.920 12.961 C 13.189 12.463,12.299 12.263,11.447 12.405 " stroke="none" fill="black" fill-rule="evenodd"></path></svg>