<svg role="img" xmlns="http://www.w3.org/2000/svg" viewBox="0 0 24 24"><path d="M10.940 0.046 C 6.260 0.450,2.189 3.634,0.659 8.086 C -1.484 14.319,1.792 21.115,7.997 23.309 C 12.365 24.853,17.202 23.757,20.480 20.480 C 24.531 16.431,25.156 10.115,21.978 5.340 C 19.558 1.703,15.314 -0.333,10.940 0.046 M12.800 0.601 C 16.402 0.872,19.572 2.728,21.544 5.720 C 24.057 9.532,24.054 14.500,21.537 18.287 C 20.464 19.902,18.984 21.245,17.320 22.115 C 12.079 24.853,5.681 23.188,2.429 18.240 C -0.056 14.458,-0.043 9.483,2.463 5.713 C 4.760 2.256,8.726 0.294,12.800 0.601 M11.867 0.850 C 11.826 0.880,11.695 1.226,11.545 1.700 L 11.291 2.499 10.887 2.547 C 8.095 2.875,5.627 4.396,4.063 6.754 C 3.275 7.941,2.823 9.114,2.574 10.620 C 2.472 11.238,2.472 12.748,2.575 13.400 C 2.705 14.231,2.959 15.109,3.281 15.843 C 3.347 15.992,3.400 16.122,3.400 16.133 C 3.400 16.144,3.166 16.410,2.880 16.723 C 2.594 17.037,2.360 17.308,2.360 17.326 C 2.360 17.345,2.404 17.360,2.459 17.360 C 2.530 17.360,2.551 17.377,2.534 17.420 C 2.506 17.495,2.586 17.497,2.903 17.430 L 3.140 17.380 2.867 17.360 L 2.594 17.340 3.758 16.096 L 4.921 14.852 5.130 14.908 C 5.499 15.006,5.923 14.888,6.213 14.608 C 6.413 14.415,6.507 14.228,6.582 13.871 C 6.732 13.155,6.988 12.841,7.815 12.361 C 8.137 12.174,8.400 12.012,8.399 12.001 C 8.398 11.989,7.460 11.440,6.314 10.780 C 5.167 10.120,4.202 9.560,4.169 9.536 C 4.117 9.499,4.143 9.434,4.345 9.088 L 4.582 8.684 6.941 10.047 C 8.239 10.796,9.322 11.418,9.349 11.429 C 9.377 11.439,9.579 11.344,9.799 11.216 L 10.200 10.985 10.200 10.493 L 10.200 10.002 9.805 9.771 C 9.588 9.644,8.518 9.027,7.426 8.400 C 6.335 7.773,5.442 7.242,5.441 7.220 C 5.440 7.125,5.868 6.460,5.928 6.465 C 5.962 6.467,6.930 7.012,8.079 7.675 C 9.227 8.338,10.175 8.880,10.184 8.880 C 10.193 8.880,10.200 8.633,10.200 8.330 C 10.201 7.292,10.318 6.954,10.863 6.422 C 11.252 6.042,11.365 5.839,11.390 5.480 C 11.413 5.153,11.305 4.843,11.084 4.605 L 10.930 4.438 11.438 2.769 C 11.780 1.644,11.964 1.100,12.000 1.100 C 12.037 1.100,12.219 1.642,12.560 2.760 L 13.067 4.420 12.935 4.568 C 12.687 4.847,12.621 5.023,12.621 5.400 C 12.621 5.839,12.699 5.993,13.135 6.420 C 13.680 6.953,13.798 7.285,13.799 8.290 C 13.800 8.615,13.809 8.880,13.820 8.880 C 13.836 8.880,15.033 8.193,17.623 6.696 C 17.867 6.555,18.083 6.440,18.103 6.441 C 18.141 6.442,18.561 7.165,18.559 7.226 C 18.558 7.245,17.492 7.874,16.189 8.624 L 13.820 9.988 13.809 10.485 L 13.798 10.982 14.198 11.211 C 14.418 11.337,14.608 11.440,14.621 11.440 C 14.633 11.440,14.944 11.266,15.312 11.054 C 17.084 10.029,19.271 8.768,19.345 8.728 C 19.420 8.688,19.446 8.716,19.660 9.088 C 19.862 9.437,19.885 9.497,19.832 9.535 C 19.798 9.560,18.832 10.120,17.686 10.780 C 16.540 11.440,15.602 11.989,15.601 12.000 C 15.601 12.011,15.839 12.155,16.130 12.320 C 16.982 12.803,17.271 13.148,17.416 13.858 C 17.452 14.032,17.525 14.250,17.579 14.342 C 17.845 14.796,18.387 15.032,18.871 14.906 L 19.082 14.851 19.887 15.716 C 20.330 16.191,20.764 16.652,20.851 16.740 L 21.008 16.900 20.882 16.680 C 20.812 16.559,20.718 16.386,20.672 16.295 L 20.589 16.130 20.752 15.749 C 21.309 14.450,21.550 13.174,21.507 11.740 C 21.452 9.881,20.946 8.273,19.938 6.754 C 18.346 4.355,15.834 2.829,12.984 2.529 L 12.708 2.500 12.472 1.740 C 12.281 1.128,12.214 0.963,12.127 0.890 C 12.004 0.787,11.962 0.780,11.867 0.850 M11.660 7.036 C 11.572 7.077,11.451 7.162,11.392 7.226 C 11.188 7.443,11.160 7.605,11.160 8.575 L 11.160 9.460 11.550 9.680 C 11.765 9.801,11.967 9.900,12.000 9.900 C 12.033 9.900,12.235 9.801,12.450 9.680 L 12.840 9.460 12.840 8.580 C 12.840 8.089,12.821 7.633,12.798 7.549 C 12.670 7.091,12.099 6.833,11.660 7.036 M11.569 11.286 L 11.158 11.529 11.169 12.009 L 11.180 12.489 11.590 12.726 L 12.000 12.963 12.410 12.726 L 12.820 12.489 12.820 12.000 L 12.820 11.511 12.420 11.278 C 12.200 11.149,12.011 11.044,12.000 11.043 C 11.989 11.043,11.795 11.153,11.569 11.286 M8.613 12.993 C 8.212 13.228,7.830 13.473,7.763 13.537 C 7.246 14.032,7.618 14.926,8.341 14.926 C 8.601 14.926,8.660 14.900,9.540 14.388 L 10.180 14.017 10.190 13.518 L 10.200 13.020 9.812 12.800 C 9.598 12.679,9.405 12.577,9.382 12.573 C 9.359 12.570,9.013 12.759,8.613 12.993 M14.210 12.791 L 13.800 13.020 13.810 13.518 L 13.820 14.015 14.540 14.434 C 14.936 14.665,15.340 14.874,15.437 14.900 C 15.820 15.002,16.219 14.820,16.383 14.467 C 16.544 14.120,16.481 13.760,16.215 13.513 C 16.129 13.433,14.667 12.557,14.627 12.561 C 14.623 12.561,14.435 12.665,14.210 12.791 M11.580 14.310 L 11.180 14.541 11.170 17.310 L 11.159 20.080 10.680 20.080 L 10.201 20.080 10.190 17.600 L 10.180 15.121 9.720 15.385 C 9.001 15.799,8.874 15.847,8.452 15.870 C 8.132 15.888,8.040 15.877,7.746 15.785 C 7.271 15.637,6.969 15.642,6.648 15.802 C 6.513 15.870,6.355 15.982,6.295 16.052 C 6.175 16.195,6.001 16.545,6.000 16.646 C 6.000 16.697,5.902 16.735,5.570 16.812 C 5.333 16.867,4.726 17.008,4.220 17.126 L 3.300 17.340 3.708 17.351 L 4.116 17.363 4.406 17.751 C 4.775 18.246,5.747 19.217,6.240 19.585 C 7.499 20.523,8.852 21.110,10.400 21.389 C 10.917 21.482,11.086 21.493,11.960 21.496 C 13.216 21.499,13.922 21.394,14.987 21.045 C 16.775 20.458,18.468 19.247,19.589 17.755 L 19.878 17.370 20.309 17.463 C 20.546 17.514,20.893 17.592,21.080 17.635 C 21.266 17.679,21.425 17.708,21.433 17.700 C 21.441 17.692,21.429 17.654,21.407 17.615 C 21.378 17.562,21.384 17.531,21.431 17.497 C 21.487 17.456,21.471 17.422,21.302 17.224 C 21.196 17.100,21.102 17.004,21.094 17.012 C 21.087 17.020,21.136 17.128,21.203 17.253 C 21.271 17.378,21.318 17.480,21.308 17.480 C 21.299 17.480,20.558 17.309,19.663 17.100 C 18.768 16.891,18.029 16.720,18.021 16.720 C 18.013 16.720,17.994 16.662,17.978 16.590 C 17.905 16.251,17.642 15.933,17.304 15.776 C 17.027 15.647,16.682 15.648,16.268 15.781 C 15.904 15.897,15.446 15.913,15.137 15.821 C 15.029 15.789,14.688 15.618,14.380 15.442 L 13.820 15.121 13.810 17.601 L 13.799 20.080 13.320 20.080 L 12.841 20.080 12.830 17.312 L 12.820 14.544 12.427 14.312 C 12.210 14.184,12.021 14.080,12.006 14.080 C 11.992 14.080,11.800 14.184,11.580 14.310 " stroke="none" fill="black" fill-rule="evenodd"></path></svg>