<svg role="img" viewBox="0 0 24 24" xmlns="http://www.w3.org/2000/svg"><path d="M11.000 0.041 C 10.791 0.060,10.480 0.097,10.310 0.123 L 10.000 0.170 10.000 3.675 L 10.000 7.180 7.524 4.704 L 5.048 2.229 4.914 2.322 C 4.119 2.875,2.866 4.121,2.334 4.889 L 2.225 5.045 4.703 7.523 L 7.180 10.000 3.675 10.000 L 0.170 10.000 0.147 10.150 C 0.134 10.232,0.093 10.633,0.057 11.040 C -0.026 11.960,0.010 13.126,0.145 13.870 L 0.169 14.000 3.674 14.000 L 7.180 14.000 4.702 16.478 L 2.225 18.955 2.486 19.298 C 2.867 19.798,3.394 20.384,3.792 20.748 C 4.173 21.097,4.984 21.760,5.031 21.760 C 5.047 21.760,6.171 20.649,7.530 19.290 L 10.000 16.820 10.000 20.325 L 10.000 23.829 10.290 23.874 C 11.316 24.034,12.932 24.025,13.870 23.855 L 14.000 23.831 14.000 20.326 L 14.000 16.820 16.477 19.297 L 18.955 21.775 19.107 21.668 C 19.909 21.111,21.106 19.924,21.625 19.171 L 21.774 18.954 19.297 16.477 L 16.820 14.000 20.330 14.000 C 22.261 14.000,23.840 13.995,23.840 13.990 C 23.841 13.985,23.868 13.782,23.900 13.540 C 24.029 12.590,24.018 11.267,23.873 10.290 L 23.830 10.000 20.325 10.000 L 16.820 10.000 19.298 7.522 L 21.775 5.045 21.510 4.696 C 21.138 4.208,20.570 3.580,20.164 3.209 C 19.812 2.886,19.243 2.416,19.057 2.295 L 18.954 2.227 16.477 4.703 L 14.000 7.180 14.000 3.673 L 14.000 0.167 13.850 0.142 C 13.185 0.032,11.671 -0.022,11.000 0.041 M13.180 9.098 C 13.700 9.190,14.442 9.402,14.520 9.480 C 14.599 9.559,14.808 10.294,14.907 10.840 C 15.004 11.369,15.004 12.631,14.907 13.160 C 14.808 13.706,14.599 14.441,14.520 14.520 C 14.441 14.599,13.695 14.811,13.180 14.901 C 12.127 15.084,10.814 14.987,9.793 14.650 L 9.460 14.540 9.366 14.260 C 9.145 13.602,9.000 12.706,9.000 12.000 C 9.000 11.294,9.145 10.398,9.366 9.740 L 9.460 9.460 9.780 9.354 C 10.151 9.231,10.770 9.095,11.200 9.042 C 11.621 8.990,12.751 9.022,13.180 9.098 " stroke="none" fill="black" fill-rule="evenodd"></path></svg>