<svg role="img" viewBox="0 0 24 24" xmlns="http://www.w3.org/2000/svg"><path d="M10.940 0.046 C 6.242 0.452,2.170 3.649,0.646 8.128 C -0.257 10.780,-0.208 13.589,0.787 16.280 C 0.964 16.760,1.453 17.761,1.715 18.180 L 1.915 18.500 0.968 19.450 L 0.020 20.400 1.810 22.190 L 3.600 23.980 4.550 23.032 L 5.500 22.085 5.820 22.285 C 5.996 22.395,6.410 22.617,6.740 22.779 C 11.336 25.031,16.851 24.108,20.480 20.480 C 24.107 16.855,25.030 11.334,22.779 6.740 C 22.617 6.410,22.395 5.996,22.285 5.820 L 22.085 5.500 23.032 4.550 L 23.980 3.600 22.190 1.810 L 20.400 0.020 19.450 0.966 L 18.500 1.911 18.280 1.774 C 16.156 0.452,13.491 -0.175,10.940 0.046 M13.160 4.661 C 13.369 4.695,13.707 4.767,13.912 4.821 C 14.313 4.927,15.120 5.229,15.120 5.273 C 15.120 5.308,5.308 15.120,5.273 15.120 C 5.258 15.120,5.172 14.932,5.083 14.702 C 4.316 12.742,4.417 10.562,5.360 8.681 C 6.505 6.396,8.721 4.871,11.290 4.600 C 11.730 4.554,12.689 4.585,13.160 4.661 M18.917 9.298 C 20.079 12.269,19.208 15.656,16.757 17.700 C 14.671 19.439,11.820 19.903,9.290 18.914 C 9.064 18.826,8.880 18.742,8.880 18.727 C 8.880 18.692,18.692 8.880,18.727 8.880 C 18.742 8.880,18.828 9.068,18.917 9.298 " stroke="none" fill="black" fill-rule="evenodd"></path></svg>