<svg role="img" viewBox="0 0 24 24" xmlns="http://www.w3.org/2000/svg"><path d="M0.015 9.543 C 0.060 9.924,0.229 10.170,0.541 10.306 C 0.679 10.367,0.880 10.378,2.096 10.392 L 3.491 10.409 1.886 12.014 C 0.307 13.594,0.280 13.623,0.280 13.780 C 0.281 14.153,0.469 14.464,0.780 14.605 C 0.929 14.673,1.100 14.678,3.176 14.679 L 5.411 14.680 5.385 14.457 C 5.340 14.076,5.171 13.830,4.859 13.694 C 4.721 13.633,4.520 13.622,3.304 13.608 L 1.909 13.591 3.514 11.986 C 5.093 10.406,5.120 10.377,5.120 10.220 C 5.119 9.847,4.931 9.536,4.620 9.395 C 4.471 9.327,4.300 9.322,2.224 9.321 L -0.011 9.320 0.015 9.543 M16.440 11.994 L 16.440 14.680 16.641 14.680 C 16.879 14.680,17.096 14.598,17.254 14.448 C 17.501 14.213,17.498 14.231,17.522 12.660 C 17.543 11.262,17.546 11.214,17.637 11.010 C 17.807 10.625,18.161 10.402,18.600 10.401 C 18.921 10.401,19.202 10.520,19.395 10.741 C 19.656 11.037,19.655 11.036,19.679 12.620 L 19.700 14.060 19.800 14.238 C 19.950 14.505,20.173 14.644,20.493 14.670 L 20.755 14.691 20.768 12.935 C 20.781 10.997,20.775 11.048,21.045 10.741 C 21.453 10.276,22.246 10.287,22.653 10.763 C 22.880 11.028,22.889 11.091,22.917 12.640 C 22.934 13.535,22.960 14.098,22.988 14.162 C 23.124 14.476,23.438 14.678,23.790 14.679 L 24.000 14.680 24.000 12.966 C 24.000 11.390,23.994 11.228,23.921 10.943 C 23.813 10.523,23.669 10.269,23.360 9.955 C 22.562 9.146,21.249 9.100,20.418 9.852 L 20.221 10.030 20.018 9.845 C 19.633 9.494,19.165 9.321,18.600 9.321 C 18.210 9.320,18.049 9.357,17.666 9.531 C 17.442 9.633,17.381 9.646,17.326 9.607 C 17.167 9.490,16.830 9.355,16.643 9.333 L 16.440 9.309 16.440 11.994 M12.769 9.441 C 11.467 9.782,10.614 11.017,10.763 12.346 C 10.834 12.982,11.075 13.476,11.540 13.943 C 12.064 14.471,12.696 14.734,13.440 14.732 C 14.252 14.730,14.994 14.385,15.498 13.774 C 16.183 12.943,16.313 11.814,15.835 10.840 C 15.599 10.359,15.121 9.881,14.640 9.645 C 14.055 9.358,13.369 9.283,12.769 9.441 M7.480 10.442 C 6.640 10.616,6.056 11.451,6.199 12.273 C 6.371 13.257,7.326 13.855,8.265 13.566 C 9.352 13.232,9.752 11.899,9.037 10.996 C 8.697 10.567,8.026 10.328,7.480 10.442 M14.136 10.552 C 14.498 10.722,14.731 10.951,14.911 11.314 C 15.053 11.602,15.060 11.634,15.060 12.018 C 15.060 12.385,15.049 12.443,14.936 12.682 C 14.624 13.339,13.916 13.724,13.228 13.610 C 12.537 13.496,12.005 12.969,11.876 12.272 C 11.753 11.603,12.121 10.881,12.739 10.579 C 13.052 10.425,13.174 10.401,13.548 10.417 C 13.811 10.428,13.928 10.455,14.136 10.552 " stroke="none" fill="black" fill-rule="evenodd"></path></svg>