<svg width="1em" height="1em" viewBox="0 0 16 16" class="bi bi-align-top" fill="currentColor" xmlns="http://www.w3.org/2000/svg"><path d="M1.266 1.063 C 1.162 1.126,1.045 1.265,1.023 1.350 C 1.014 1.386,1.012 1.480,1.019 1.559 C 1.033 1.736,1.132 1.877,1.290 1.949 C 1.396 1.997,1.611 1.999,8.000 1.999 C 14.389 1.999,14.604 1.997,14.710 1.949 C 14.884 1.870,14.970 1.734,14.981 1.523 C 14.989 1.367,14.982 1.334,14.918 1.236 C 14.877 1.175,14.800 1.100,14.745 1.069 L 14.646 1.013 7.996 1.013 C 1.566 1.014,1.344 1.015,1.266 1.063 M6.707 3.041 C 6.422 3.126,6.144 3.405,6.055 3.696 C 6.000 3.871,6.000 3.909,6.000 8.998 C 6.000 14.651,5.988 14.262,6.165 14.539 C 6.328 14.796,6.572 14.945,6.904 14.989 C 7.033 15.007,7.511 15.014,8.150 15.008 C 9.149 14.998,9.192 14.996,9.337 14.938 C 9.647 14.815,9.851 14.600,9.947 14.297 C 9.999 14.130,10.000 14.057,10.000 9.002 C 10.000 3.349,10.012 3.738,9.835 3.461 C 9.737 3.306,9.614 3.196,9.432 3.100 L 9.293 3.027 8.040 3.022 C 7.351 3.019,6.751 3.028,6.707 3.041 " stroke="none" fill="black" fill-rule="evenodd"></path></svg>