<svg width="1em" height="1em" viewBox="0 0 16 16" class="bi bi-align-middle" fill="currentColor" xmlns="http://www.w3.org/2000/svg"><path d="M6.767 2.028 C 6.488 2.096,6.216 2.325,6.088 2.600 L 6.013 2.760 6.006 5.127 L 5.999 7.493 3.723 7.493 C 1.357 7.493,1.355 7.493,1.193 7.606 C 0.957 7.771,0.957 8.229,1.193 8.394 C 1.355 8.507,1.357 8.507,3.723 8.507 L 5.999 8.507 6.006 10.873 L 6.013 13.240 6.088 13.400 C 6.186 13.610,6.391 13.816,6.597 13.911 L 6.760 13.987 8.000 13.987 L 9.240 13.987 9.413 13.904 C 9.633 13.799,9.797 13.634,9.903 13.413 L 9.987 13.240 9.994 10.873 L 10.001 8.507 12.277 8.507 C 14.643 8.507,14.645 8.507,14.807 8.394 C 15.043 8.229,15.043 7.771,14.807 7.606 C 14.645 7.493,14.643 7.493,12.277 7.493 L 10.001 7.493 9.994 5.127 L 9.987 2.760 9.903 2.587 C 9.797 2.366,9.633 2.201,9.413 2.096 L 9.240 2.013 8.053 2.009 C 7.401 2.006,6.822 2.015,6.767 2.028 " stroke="none" fill="black" fill-rule="evenodd"></path></svg>