<svg width="1em" height="1em" viewBox="0 0 16 16" class="bi bi-align-bottom" fill="currentColor" xmlns="http://www.w3.org/2000/svg"><path d="M6.707 1.041 C 6.422 1.126,6.144 1.405,6.055 1.696 C 6.000 1.871,6.000 1.909,6.000 6.998 C 6.000 12.651,5.988 12.262,6.165 12.539 C 6.328 12.796,6.572 12.945,6.904 12.989 C 7.033 13.007,7.511 13.014,8.150 13.008 C 9.149 12.998,9.192 12.996,9.337 12.938 C 9.647 12.815,9.851 12.600,9.947 12.297 C 9.999 12.130,10.000 12.057,10.000 7.002 C 10.000 1.349,10.012 1.738,9.835 1.461 C 9.737 1.306,9.614 1.196,9.432 1.100 L 9.293 1.027 8.040 1.022 C 7.351 1.019,6.751 1.028,6.707 1.041 M1.290 14.051 C 1.132 14.123,1.033 14.264,1.019 14.441 C 1.012 14.520,1.015 14.615,1.024 14.652 C 1.046 14.739,1.185 14.897,1.291 14.955 C 1.368 14.997,1.815 15.000,8.000 15.000 L 14.627 15.000 14.736 14.938 C 14.796 14.903,14.877 14.825,14.918 14.764 C 14.982 14.666,14.989 14.633,14.981 14.477 C 14.970 14.266,14.884 14.130,14.710 14.051 C 14.604 14.003,14.389 14.001,8.000 14.001 C 1.611 14.001,1.396 14.003,1.290 14.051 " stroke="none" fill="black" fill-rule="evenodd"></path></svg>