<svg width="1em" height="1em" viewBox="0 0 16 16" class="bi bi-arrow-clockwise" fill="currentColor" xmlns="http://www.w3.org/2000/svg"><path d="M8.307 0.037 C 8.171 0.096,8.033 0.273,8.012 0.414 C 7.974 0.668,7.992 0.694,8.763 1.468 L 9.468 2.176 9.173 2.116 C 7.074 1.694,4.866 2.450,3.473 4.067 C 2.169 5.581,1.698 7.605,2.201 9.533 C 2.743 11.608,4.410 13.267,6.491 13.800 C 7.052 13.944,7.381 13.985,7.987 13.985 C 8.862 13.987,9.562 13.849,10.325 13.526 C 12.273 12.700,13.606 10.976,13.937 8.852 C 14.004 8.426,14.004 7.540,13.938 7.133 C 13.808 6.338,13.528 5.520,13.325 5.341 C 13.241 5.268,13.086 5.200,13.000 5.200 C 12.914 5.200,12.759 5.268,12.675 5.341 C 12.476 5.516,12.460 5.695,12.610 6.073 C 12.756 6.440,12.841 6.720,12.912 7.070 C 12.966 7.338,12.973 7.449,12.972 8.013 C 12.972 8.605,12.966 8.679,12.900 8.988 C 12.469 11.006,10.956 12.502,8.933 12.911 C 8.662 12.966,8.553 12.973,7.987 12.972 C 7.395 12.972,7.321 12.966,7.012 12.900 C 5.485 12.574,4.233 11.620,3.549 10.262 C 3.286 9.739,3.122 9.216,3.041 8.643 C 3.000 8.352,2.999 7.678,3.040 7.373 C 3.292 5.477,4.576 3.896,6.364 3.280 C 6.537 3.220,6.829 3.139,7.013 3.100 C 7.321 3.034,7.395 3.028,7.987 3.028 C 8.553 3.027,8.662 3.034,8.933 3.089 C 9.248 3.152,9.893 3.349,9.893 3.381 C 9.893 3.391,9.480 3.813,8.976 4.319 C 7.970 5.328,7.973 5.325,8.013 5.590 C 8.028 5.696,8.055 5.742,8.156 5.844 C 8.258 5.945,8.304 5.972,8.410 5.987 C 8.682 6.028,8.636 6.066,10.075 4.631 C 10.799 3.910,11.414 3.275,11.442 3.221 C 11.508 3.094,11.508 2.906,11.442 2.779 C 11.365 2.631,8.810 0.092,8.688 0.041 C 8.568 -0.009,8.415 -0.010,8.307 0.037 " stroke="none" fill="black" fill-rule="evenodd"></path></svg>