<svg width="1em" height="1em" viewBox="0 0 16 16" class="bi bi-arrow-down-left-square-fill" fill="currentColor" xmlns="http://www.w3.org/2000/svg"><path d="M1.600 0.042 C 0.952 0.181,0.407 0.629,0.157 1.226 C -0.010 1.625,0.000 1.207,0.000 8.000 C 0.000 14.793,-0.010 14.375,0.157 14.774 C 0.350 15.235,0.765 15.650,1.226 15.843 C 1.625 16.010,1.207 16.000,8.000 16.000 C 13.536 16.000,14.211 15.996,14.394 15.958 C 15.184 15.796,15.796 15.184,15.958 14.394 C 15.996 14.211,16.000 13.536,16.000 8.000 C 16.000 2.464,15.996 1.789,15.958 1.606 C 15.796 0.816,15.184 0.204,14.394 0.042 C 14.210 0.004,13.540 0.000,7.981 0.002 C 2.765 0.004,1.746 0.010,1.600 0.042 M10.763 5.078 C 10.936 5.180,11.023 5.402,10.979 5.627 C 10.957 5.741,10.854 5.849,8.832 7.873 L 6.707 10.000 8.134 10.000 C 9.012 10.000,9.597 10.011,9.657 10.027 C 9.715 10.043,9.797 10.101,9.862 10.171 C 9.989 10.309,10.027 10.471,9.974 10.649 C 9.932 10.791,9.767 10.951,9.634 10.979 C 9.505 11.006,5.451 11.007,5.354 10.980 C 5.262 10.954,5.103 10.815,5.052 10.717 C 5.019 10.654,5.013 10.320,5.013 8.505 C 5.013 6.591,5.018 6.359,5.057 6.277 C 5.148 6.085,5.362 5.978,5.587 6.012 C 5.744 6.035,5.932 6.197,5.973 6.343 C 5.989 6.403,6.000 6.988,6.000 7.866 L 6.000 9.293 8.127 7.168 C 10.151 5.146,10.259 5.043,10.373 5.021 C 10.515 4.993,10.653 5.013,10.763 5.078 " stroke="none" fill="black" fill-rule="evenodd"></path></svg>