<svg width="1em" height="1em" viewBox="0 0 16 16" class="bi bi-arrow-up-square-fill" fill="currentColor" xmlns="http://www.w3.org/2000/svg"><path d="M1.600 0.042 C 0.952 0.181,0.407 0.629,0.157 1.226 C -0.010 1.625,0.000 1.207,0.000 8.000 C 0.000 14.793,-0.010 14.375,0.157 14.774 C 0.350 15.235,0.765 15.650,1.226 15.843 C 1.625 16.010,1.207 16.000,8.000 16.000 C 13.536 16.000,14.211 15.996,14.394 15.958 C 15.184 15.796,15.796 15.184,15.958 14.394 C 15.996 14.211,16.000 13.536,16.000 8.000 C 16.000 2.464,15.996 1.789,15.958 1.606 C 15.796 0.816,15.184 0.204,14.394 0.042 C 14.210 0.004,13.540 0.000,7.981 0.002 C 2.765 0.004,1.746 0.010,1.600 0.042 M8.285 4.594 C 8.341 4.633,9.072 5.352,9.910 6.192 C 11.132 7.418,11.440 7.740,11.467 7.823 C 11.512 7.966,11.488 8.165,11.411 8.280 C 11.337 8.388,11.122 8.507,11.001 8.506 C 10.801 8.505,10.712 8.429,9.593 7.312 L 8.507 6.228 8.507 8.627 C 8.506 10.219,8.497 11.061,8.478 11.127 C 8.444 11.253,8.309 11.410,8.195 11.457 C 8.084 11.503,7.916 11.503,7.805 11.457 C 7.691 11.410,7.556 11.253,7.522 11.127 C 7.503 11.061,7.494 10.219,7.493 8.627 L 7.493 6.228 6.407 7.312 C 5.288 8.429,5.199 8.505,4.999 8.506 C 4.875 8.507,4.663 8.388,4.587 8.276 C 4.532 8.195,4.520 8.145,4.520 8.000 C 4.520 7.850,4.531 7.806,4.593 7.718 C 4.717 7.539,7.685 4.593,7.787 4.548 C 7.928 4.484,8.157 4.506,8.285 4.594 " stroke="none" fill="black" fill-rule="evenodd"></path></svg>