<svg width="1em" height="1em" viewBox="0 0 16 16" class="bi bi-arrow-down" fill="currentColor" xmlns="http://www.w3.org/2000/svg"><path d="M7.800 2.544 C 7.690 2.592,7.556 2.751,7.522 2.873 C 7.503 2.941,7.494 4.385,7.493 7.373 L 7.493 11.772 6.407 10.688 C 5.288 9.571,5.199 9.495,4.999 9.494 C 4.878 9.493,4.663 9.612,4.589 9.720 C 4.512 9.835,4.488 10.034,4.533 10.177 C 4.560 10.260,4.868 10.582,6.090 11.808 C 6.928 12.648,7.659 13.367,7.715 13.405 C 7.856 13.503,8.063 13.519,8.218 13.444 C 8.299 13.405,8.794 12.926,9.883 11.834 C 11.127 10.587,11.440 10.260,11.467 10.177 C 11.512 10.034,11.488 9.835,11.411 9.720 C 11.337 9.612,11.122 9.493,11.001 9.494 C 10.801 9.495,10.712 9.571,9.593 10.688 L 8.507 11.772 8.507 7.373 C 8.506 4.385,8.497 2.941,8.478 2.873 C 8.444 2.747,8.309 2.590,8.195 2.543 C 8.086 2.497,7.905 2.498,7.800 2.544 " stroke="none" fill="black" fill-rule="evenodd"></path></svg>