<svg width="1em" height="1em" viewBox="0 0 16 16" class="bi bi-arrow-90deg-left" fill="currentColor" xmlns="http://www.w3.org/2000/svg"><path d="M5.588 2.279 C 5.507 2.309,5.128 2.672,3.913 3.885 C 3.050 4.748,2.324 5.489,2.300 5.533 C 2.232 5.660,2.243 5.861,2.326 6.001 C 2.365 6.068,3.077 6.798,3.938 7.656 C 5.364 9.076,5.489 9.195,5.606 9.226 C 5.940 9.316,6.240 9.089,6.240 8.746 C 6.240 8.672,6.221 8.572,6.197 8.525 C 6.173 8.478,5.660 7.945,5.057 7.339 L 3.960 6.238 6.987 6.246 L 10.013 6.254 10.187 6.313 C 10.666 6.478,10.980 6.784,11.170 7.274 L 11.240 7.453 11.253 10.427 C 11.268 13.604,11.260 13.445,11.397 13.596 C 11.511 13.722,11.704 13.777,11.872 13.732 C 12.010 13.695,12.179 13.539,12.215 13.417 C 12.234 13.350,12.240 12.374,12.235 10.307 L 12.227 7.293 12.152 7.053 C 11.884 6.196,11.253 5.580,10.386 5.329 L 10.173 5.267 7.073 5.254 L 3.973 5.240 5.055 4.160 C 5.650 3.566,6.160 3.035,6.188 2.981 C 6.266 2.832,6.258 2.625,6.169 2.488 C 6.043 2.293,5.793 2.203,5.588 2.279 " stroke="none" fill="black" fill-rule="evenodd"></path></svg>