<svg width="1em" height="1em" viewBox="0 0 16 16" class="bi bi-arrow-left-short" fill="currentColor" xmlns="http://www.w3.org/2000/svg"><path d="M7.293 4.545 C 7.167 4.602,4.090 7.700,4.041 7.819 C 3.987 7.950,3.990 8.070,4.051 8.200 C 4.113 8.332,7.203 11.424,7.315 11.465 C 7.724 11.617,8.125 11.207,7.959 10.806 C 7.931 10.738,7.566 10.354,6.819 9.607 L 5.721 8.507 8.627 8.507 C 10.544 8.506,11.567 8.497,11.633 8.479 C 11.833 8.423,11.999 8.207,11.999 8.000 C 11.999 7.793,11.833 7.577,11.633 7.521 C 11.567 7.503,10.544 7.494,8.627 7.493 L 5.721 7.493 6.831 6.380 C 7.711 5.496,7.947 5.245,7.973 5.164 C 8.046 4.936,7.938 4.665,7.734 4.561 C 7.612 4.498,7.412 4.491,7.293 4.545 " stroke="none" fill="black" fill-rule="evenodd"></path></svg>