<svg width="1em" height="1em" viewBox="0 0 16 16" class="bi bi-bookmark-fill" fill="currentColor" xmlns="http://www.w3.org/2000/svg"><path d="M4.520 1.056 C 4.432 1.078,4.252 1.148,4.120 1.212 C 3.714 1.410,3.411 1.713,3.212 2.120 C 2.982 2.593,3.003 1.933,2.994 8.850 C 2.986 14.508,2.989 14.992,3.029 14.976 C 3.052 14.967,4.181 14.294,5.536 13.481 L 8.000 12.003 10.464 13.481 C 11.819 14.294,12.948 14.967,12.971 14.976 C 13.011 14.992,13.014 14.508,13.007 8.850 C 12.999 2.976,12.997 2.699,12.950 2.533 C 12.778 1.928,12.382 1.446,11.851 1.196 C 11.442 1.004,11.662 1.014,7.987 1.016 C 5.199 1.017,4.655 1.024,4.520 1.056 " stroke="none" fill="black" fill-rule="evenodd"></path></svg>