<svg width="1em" height="1em" viewBox="0 0 16 16" class="bi bi-brightness-low-fill" fill="currentColor" xmlns="http://www.w3.org/2000/svg"><path d="M7.799 2.050 C 7.507 2.183,7.414 2.539,7.603 2.804 C 7.774 3.045,8.226 3.045,8.397 2.804 C 8.484 2.681,8.519 2.513,8.483 2.381 C 8.424 2.168,8.213 2.001,8.000 2.001 C 7.949 2.001,7.858 2.023,7.799 2.050 M3.933 3.639 C 3.572 3.771,3.495 4.263,3.799 4.495 C 4.259 4.846,4.846 4.259,4.495 3.799 C 4.366 3.631,4.135 3.565,3.933 3.639 M11.667 3.669 C 11.546 3.731,11.491 3.789,11.437 3.907 C 11.296 4.213,11.492 4.569,11.823 4.606 C 12.122 4.640,12.373 4.419,12.373 4.123 C 12.373 3.826,12.173 3.626,11.874 3.627 C 11.804 3.627,11.711 3.646,11.667 3.669 M7.613 4.016 C 7.002 4.103,6.615 4.221,6.163 4.454 C 5.067 5.021,4.304 6.051,4.062 7.293 C 3.997 7.626,3.997 8.374,4.062 8.707 C 4.139 9.101,4.259 9.451,4.441 9.809 C 5.006 10.923,6.037 11.692,7.293 11.938 C 7.660 12.010,8.402 12.003,8.773 11.923 C 9.176 11.837,9.488 11.726,9.841 11.544 C 10.918 10.987,11.662 9.997,11.923 8.773 C 12.003 8.402,12.010 7.660,11.938 7.293 C 11.861 6.899,11.740 6.549,11.559 6.191 C 11.003 5.095,9.984 4.321,8.776 4.077 C 8.530 4.027,7.801 3.989,7.613 4.016 M2.337 7.532 C 2.205 7.579,2.112 7.666,2.050 7.800 C 1.881 8.167,2.224 8.584,2.611 8.482 C 2.853 8.418,2.987 8.247,2.987 8.000 C 2.987 7.767,2.866 7.600,2.643 7.524 C 2.528 7.485,2.465 7.487,2.337 7.532 M13.347 7.526 C 13.133 7.602,13.013 7.772,13.013 8.000 C 13.013 8.247,13.147 8.418,13.389 8.482 C 13.776 8.584,14.118 8.168,13.950 7.799 C 13.843 7.564,13.578 7.444,13.347 7.526 M3.980 11.412 C 3.612 11.503,3.486 11.972,3.757 12.243 C 4.037 12.523,4.503 12.386,4.590 11.999 C 4.669 11.648,4.333 11.325,3.980 11.412 M11.658 11.444 C 11.226 11.658,11.347 12.328,11.826 12.368 C 12.014 12.383,12.137 12.339,12.250 12.213 C 12.469 11.971,12.390 11.571,12.096 11.438 C 11.951 11.372,11.799 11.374,11.658 11.444 M7.755 13.067 C 7.402 13.254,7.428 13.782,7.799 13.950 C 8.168 14.118,8.584 13.776,8.482 13.389 C 8.441 13.232,8.364 13.130,8.239 13.066 C 8.104 12.997,7.887 12.998,7.755 13.067 " stroke="none" fill="black" fill-rule="evenodd"></path></svg>