<svg width="1em" height="1em" viewBox="0 0 16 16" class="bi bi-bug" fill="currentColor" xmlns="http://www.w3.org/2000/svg"><path d="M4.271 0.564 C 4.206 0.596,4.126 0.665,4.088 0.723 C 3.964 0.911,3.972 0.981,4.212 1.771 L 4.430 2.488 4.348 2.584 C 3.936 3.065,3.734 3.358,3.525 3.776 C 3.217 4.391,3.013 5.191,3.013 5.783 L 3.013 6.000 2.726 6.000 C 2.569 6.000,2.399 5.988,2.348 5.974 C 2.256 5.947,2.102 5.818,2.045 5.720 C 2.027 5.689,2.008 5.492,2.000 5.251 C 1.987 4.851,1.984 4.832,1.912 4.723 C 1.747 4.475,1.379 4.432,1.164 4.635 C 1.012 4.779,1.000 4.828,1.002 5.293 C 1.004 5.618,1.015 5.758,1.051 5.880 C 1.204 6.399,1.595 6.794,2.104 6.944 C 2.184 6.967,2.413 6.994,2.618 7.004 L 2.987 7.022 2.987 7.511 L 2.987 8.000 2.193 8.001 C 1.476 8.001,1.389 8.006,1.290 8.051 C 1.132 8.123,1.033 8.264,1.019 8.441 C 1.003 8.628,1.023 8.699,1.124 8.814 C 1.287 8.999,1.285 8.999,2.180 9.009 L 2.987 9.017 2.987 9.509 L 2.987 10.000 2.673 10.000 C 2.106 10.001,1.755 10.130,1.440 10.450 C 1.107 10.790,1.007 11.076,1.003 11.707 C 1.000 12.086,1.005 12.129,1.059 12.231 C 1.255 12.597,1.778 12.580,1.950 12.201 C 1.989 12.115,1.999 12.024,2.000 11.747 C 2.001 11.344,2.037 11.229,2.202 11.104 C 2.299 11.029,2.314 11.026,2.654 11.018 L 3.005 11.009 3.022 11.351 C 3.067 12.295,3.453 13.306,4.060 14.075 C 5.907 16.411,9.321 16.654,11.462 14.602 C 12.356 13.745,12.921 12.532,12.978 11.351 L 12.995 11.009 13.346 11.018 C 13.686 11.026,13.701 11.029,13.798 11.104 C 13.963 11.229,13.999 11.344,14.000 11.747 C 14.001 12.024,14.011 12.115,14.050 12.201 C 14.222 12.580,14.745 12.597,14.941 12.231 C 14.995 12.130,15.000 12.084,14.998 11.720 C 14.996 11.266,14.968 11.112,14.834 10.829 C 14.765 10.683,14.690 10.581,14.550 10.442 C 14.224 10.118,13.900 10.001,13.327 10.000 L 13.013 10.000 13.013 9.509 L 13.013 9.017 13.820 9.009 C 14.609 9.000,14.629 8.999,14.736 8.938 C 14.796 8.903,14.877 8.825,14.918 8.764 C 14.982 8.666,14.989 8.633,14.981 8.477 C 14.974 8.333,14.958 8.283,14.896 8.201 C 14.750 8.010,14.702 8.001,13.807 8.001 L 13.013 8.000 13.013 7.511 L 13.013 7.022 13.390 7.004 C 13.688 6.989,13.809 6.971,13.966 6.919 C 14.447 6.757,14.802 6.383,14.949 5.880 C 14.984 5.760,14.996 5.617,14.998 5.307 C 15.000 4.834,14.975 4.749,14.791 4.602 C 14.699 4.529,14.669 4.520,14.509 4.520 C 14.359 4.520,14.312 4.532,14.221 4.592 C 14.043 4.709,14.000 4.834,14.000 5.229 C 14.000 5.625,13.979 5.712,13.848 5.845 C 13.722 5.974,13.628 6.000,13.277 6.000 L 12.994 6.000 12.979 5.673 C 12.951 5.069,12.789 4.441,12.506 3.848 C 12.281 3.374,12.110 3.122,11.645 2.576 L 11.570 2.488 11.785 1.780 C 11.903 1.391,12.000 1.035,12.000 0.989 C 12.000 0.891,11.938 0.731,11.872 0.658 C 11.748 0.520,11.481 0.467,11.299 0.543 C 11.189 0.588,11.050 0.746,11.019 0.859 C 10.913 1.238,10.733 1.787,10.715 1.787 C 10.702 1.787,10.647 1.758,10.591 1.723 C 10.257 1.512,9.736 1.290,9.301 1.174 C 8.522 0.966,7.551 0.955,6.806 1.145 C 6.341 1.264,5.785 1.492,5.434 1.708 C 5.364 1.751,5.296 1.787,5.284 1.787 C 5.273 1.787,5.192 1.556,5.106 1.274 C 4.938 0.728,4.886 0.634,4.709 0.550 C 4.584 0.490,4.409 0.496,4.271 0.564 M8.776 2.077 C 9.146 2.152,9.488 2.274,9.841 2.456 C 11.079 3.096,11.892 4.338,11.990 5.740 L 12.008 6.000 8.000 6.000 L 3.992 6.000 4.010 5.740 C 4.111 4.303,4.942 3.060,6.235 2.414 C 6.632 2.215,7.038 2.098,7.613 2.016 C 7.801 1.989,8.530 2.027,8.776 2.077 M7.493 10.987 C 7.493 14.949,7.493 14.960,7.440 14.960 C 7.339 14.960,6.918 14.856,6.679 14.772 C 5.542 14.373,4.619 13.451,4.229 12.324 C 4.176 12.173,4.107 11.933,4.075 11.791 C 4.018 11.539,4.017 11.483,4.007 9.273 L 3.997 7.013 5.745 7.013 L 7.493 7.013 7.493 10.987 M11.993 9.273 C 11.984 11.460,11.981 11.541,11.927 11.781 C 11.642 13.031,10.885 14.023,9.800 14.567 C 9.418 14.758,8.793 14.957,8.567 14.959 L 8.507 14.960 8.507 10.987 L 8.507 7.013 10.255 7.013 L 12.003 7.013 11.993 9.273 " stroke="none" fill="black" fill-rule="evenodd"></path></svg>