<svg width="1em" height="1em" viewBox="0 0 16 16" class="bi bi-bullseye" fill="currentColor" xmlns="http://www.w3.org/2000/svg"><path d="M7.293 0.030 C 4.174 0.300,1.460 2.423,0.439 5.390 C -0.989 9.546,1.195 14.077,5.331 15.539 C 8.244 16.569,11.468 15.838,13.653 13.653 C 16.473 10.834,16.787 6.378,14.390 3.190 C 12.867 1.166,10.473 -0.019,7.947 0.004 C 7.734 0.006,7.440 0.018,7.293 0.030 M8.768 1.041 C 10.349 1.213,11.838 1.934,12.973 3.079 C 13.491 3.601,13.952 4.250,14.280 4.919 C 14.518 5.405,14.657 5.783,14.783 6.284 C 14.947 6.939,14.973 7.177,14.973 8.000 C 14.973 8.823,14.947 9.061,14.783 9.716 C 14.657 10.218,14.517 10.596,14.280 11.080 C 13.369 12.933,11.704 14.284,9.716 14.783 C 9.061 14.947,8.823 14.973,8.000 14.973 C 7.177 14.973,6.938 14.947,6.287 14.783 C 4.507 14.336,2.953 13.185,2.008 11.613 C 1.484 10.744,1.149 9.755,1.041 8.768 C 1.005 8.434,1.005 7.566,1.041 7.232 C 1.237 5.430,2.177 3.705,3.581 2.572 C 4.606 1.745,5.923 1.187,7.187 1.044 C 7.491 1.010,8.462 1.008,8.768 1.041 M7.400 2.030 C 5.367 2.222,3.525 3.508,2.611 5.373 C 1.488 7.665,1.951 10.429,3.761 12.239 C 5.574 14.052,8.355 14.516,10.638 13.385 C 11.853 12.783,12.804 11.829,13.387 10.627 C 13.671 10.040,13.828 9.538,13.937 8.867 C 14.004 8.457,14.004 7.543,13.937 7.133 C 13.828 6.462,13.671 5.960,13.387 5.373 C 12.294 3.119,9.917 1.792,7.400 2.030 M8.717 3.055 C 10.726 3.350,12.352 4.822,12.852 6.797 C 13.033 7.513,13.033 8.487,12.852 9.203 C 12.760 9.566,12.613 9.953,12.436 10.294 C 11.693 11.729,10.316 12.710,8.717 12.945 C 8.347 12.999,7.653 12.999,7.283 12.945 C 5.092 12.623,3.377 10.908,3.055 8.717 C 3.001 8.347,3.001 7.653,3.055 7.283 C 3.137 6.723,3.300 6.216,3.563 5.707 C 4.295 4.285,5.672 3.299,7.267 3.055 C 7.603 3.004,8.366 3.004,8.717 3.055 M7.613 4.018 C 7.077 4.082,6.612 4.222,6.163 4.454 C 5.067 5.021,4.304 6.051,4.062 7.293 C 3.997 7.626,3.997 8.374,4.062 8.707 C 4.139 9.101,4.259 9.451,4.441 9.809 C 5.007 10.924,6.036 11.692,7.293 11.938 C 7.660 12.010,8.402 12.003,8.773 11.923 C 9.176 11.837,9.488 11.726,9.841 11.544 C 10.918 10.987,11.662 9.997,11.923 8.773 C 12.003 8.402,12.010 7.660,11.938 7.293 C 11.634 5.739,10.519 4.532,9.021 4.133 C 8.622 4.026,7.979 3.974,7.613 4.018 M8.725 5.088 C 9.826 5.386,10.604 6.163,10.913 7.275 C 10.963 7.452,10.971 7.550,10.971 8.000 C 10.971 8.563,10.948 8.699,10.785 9.112 C 10.493 9.849,9.866 10.482,9.137 10.773 C 8.702 10.948,8.570 10.971,8.000 10.971 C 7.550 10.971,7.452 10.963,7.275 10.913 C 6.164 10.604,5.383 9.822,5.089 8.725 C 5.018 8.462,4.992 7.822,5.039 7.525 C 5.236 6.293,6.186 5.310,7.430 5.053 C 7.709 4.996,8.457 5.016,8.725 5.088 M7.627 6.549 C 7.106 6.686,6.681 7.115,6.547 7.639 C 6.347 8.425,6.844 9.250,7.639 9.453 C 8.425 9.653,9.250 9.156,9.453 8.361 C 9.653 7.574,9.158 6.751,8.361 6.547 C 8.164 6.497,7.821 6.498,7.627 6.549 " stroke="none" fill="black" fill-rule="evenodd"></path></svg>