<svg width="1em" height="1em" viewBox="0 0 16 16" class="bi bi-calculator" fill="currentColor" xmlns="http://www.w3.org/2000/svg"><path d="M3.600 0.042 C 2.952 0.181,2.407 0.629,2.157 1.226 C 1.990 1.625,2.000 1.207,2.000 8.000 C 2.000 14.793,1.990 14.375,2.157 14.774 C 2.350 15.235,2.765 15.650,3.226 15.843 C 3.618 16.007,3.409 16.000,8.000 16.000 C 11.714 16.000,12.212 15.995,12.394 15.958 C 13.184 15.796,13.796 15.184,13.958 14.394 C 13.996 14.211,14.000 13.536,14.000 8.000 C 14.000 2.464,13.996 1.789,13.958 1.606 C 13.796 0.816,13.184 0.204,12.394 0.042 C 12.212 0.005,11.717 0.000,7.981 0.002 C 4.480 0.004,3.744 0.011,3.600 0.042 M11.654 2.026 C 11.772 2.059,11.939 2.227,11.974 2.348 C 11.989 2.402,12.000 2.888,11.999 3.520 C 11.999 4.517,11.995 4.608,11.949 4.710 C 11.884 4.854,11.749 4.953,11.574 4.987 C 11.381 5.023,4.619 5.023,4.426 4.987 C 4.251 4.953,4.116 4.854,4.051 4.710 C 4.005 4.608,4.001 4.517,4.001 3.499 C 4.000 2.304,4.001 2.299,4.150 2.150 C 4.306 1.994,4.085 2.002,7.973 2.001 C 10.242 2.001,11.595 2.010,11.654 2.026 M5.654 6.026 C 5.772 6.059,5.939 6.227,5.974 6.348 C 6.008 6.467,6.008 7.533,5.974 7.652 C 5.939 7.773,5.772 7.941,5.654 7.974 C 5.532 8.008,4.468 8.008,4.346 7.974 C 4.239 7.944,4.070 7.784,4.028 7.672 C 3.984 7.555,3.991 6.420,4.036 6.312 C 4.081 6.206,4.201 6.084,4.307 6.037 C 4.404 5.994,5.507 5.986,5.654 6.026 M8.710 6.051 C 8.770 6.078,8.854 6.146,8.896 6.202 L 8.973 6.303 8.973 7.000 L 8.973 7.697 8.896 7.798 C 8.756 7.982,8.682 7.999,8.000 7.999 C 7.318 7.999,7.244 7.982,7.104 7.798 L 7.027 7.697 7.027 7.000 L 7.027 6.303 7.104 6.202 C 7.244 6.018,7.318 6.001,8.000 6.001 C 8.529 6.001,8.613 6.007,8.710 6.051 M11.654 6.026 C 11.772 6.059,11.939 6.227,11.974 6.348 C 11.988 6.398,12.000 6.692,12.000 7.000 C 12.000 7.308,11.988 7.602,11.974 7.652 C 11.939 7.773,11.772 7.941,11.654 7.974 C 11.532 8.008,10.468 8.008,10.346 7.974 C 10.239 7.944,10.070 7.784,10.028 7.672 C 9.984 7.555,9.991 6.420,10.036 6.312 C 10.081 6.206,10.201 6.084,10.307 6.037 C 10.404 5.994,11.507 5.986,11.654 6.026 M5.798 9.104 C 5.982 9.244,5.999 9.318,5.999 10.000 C 5.999 10.676,5.981 10.757,5.807 10.890 C 5.680 10.986,5.504 11.013,5.000 11.013 C 4.496 11.013,4.320 10.986,4.193 10.890 C 4.019 10.757,4.001 10.676,4.001 10.000 C 4.001 9.269,4.024 9.190,4.280 9.055 C 4.348 9.019,4.459 9.013,5.029 9.019 L 5.698 9.027 5.798 9.104 M8.715 9.051 C 8.797 9.094,8.913 9.212,8.957 9.298 C 9.005 9.392,8.997 10.622,8.948 10.717 C 8.897 10.815,8.738 10.954,8.646 10.980 C 8.551 11.006,7.449 11.006,7.354 10.980 C 7.262 10.954,7.103 10.815,7.052 10.717 C 6.996 10.610,6.996 9.391,7.051 9.285 C 7.092 9.207,7.208 9.091,7.293 9.044 C 7.379 8.997,8.623 9.003,8.715 9.051 M11.798 9.104 C 11.854 9.146,11.922 9.230,11.949 9.290 C 11.996 9.394,11.999 9.506,11.999 11.480 C 12.000 12.769,11.990 13.595,11.974 13.652 C 11.939 13.773,11.772 13.941,11.654 13.974 C 11.532 14.008,10.468 14.008,10.346 13.974 C 10.239 13.944,10.070 13.784,10.028 13.672 C 10.009 13.621,10.000 12.912,10.001 11.498 C 10.001 9.519,10.004 9.394,10.050 9.293 C 10.104 9.176,10.159 9.119,10.280 9.055 C 10.348 9.019,10.459 9.013,11.029 9.019 L 11.698 9.027 11.798 9.104 M5.654 12.026 C 5.772 12.059,5.939 12.227,5.974 12.348 C 6.008 12.467,6.008 13.533,5.974 13.652 C 5.939 13.773,5.772 13.941,5.654 13.974 C 5.532 14.008,4.468 14.008,4.346 13.974 C 4.239 13.944,4.070 13.784,4.028 13.672 C 3.984 13.555,3.991 12.420,4.036 12.312 C 4.081 12.206,4.201 12.084,4.307 12.037 C 4.404 11.994,5.507 11.986,5.654 12.026 M8.710 12.051 C 8.770 12.078,8.854 12.146,8.896 12.202 L 8.973 12.303 8.973 13.000 L 8.973 13.697 8.896 13.798 C 8.756 13.982,8.682 13.999,8.000 13.999 C 7.318 13.999,7.244 13.982,7.104 13.798 L 7.027 13.697 7.027 13.000 L 7.027 12.303 7.104 12.202 C 7.244 12.018,7.318 12.001,8.000 12.001 C 8.529 12.001,8.613 12.007,8.710 12.051 " stroke="none" fill="black" fill-rule="evenodd"></path></svg>