<svg width="1em" height="1em" viewBox="0 0 16 16" class="bi bi-calculator-fill" fill="currentColor" xmlns="http://www.w3.org/2000/svg"><path d="M3.600 0.042 C 2.952 0.181,2.407 0.629,2.157 1.226 C 1.990 1.625,2.000 1.207,2.000 8.000 C 2.000 14.793,1.990 14.375,2.157 14.774 C 2.350 15.235,2.765 15.650,3.226 15.843 C 3.618 16.007,3.409 16.000,8.000 16.000 C 11.714 16.000,12.212 15.995,12.394 15.958 C 13.184 15.796,13.796 15.184,13.958 14.394 C 13.996 14.211,14.000 13.536,14.000 8.000 C 14.000 2.464,13.996 1.789,13.958 1.606 C 13.796 0.816,13.184 0.204,12.394 0.042 C 12.212 0.005,11.717 0.000,7.981 0.002 C 4.480 0.004,3.744 0.011,3.600 0.042 M12.428 1.099 C 12.616 1.192,12.808 1.384,12.901 1.572 L 12.973 1.720 12.980 7.946 C 12.986 13.403,12.982 14.188,12.947 14.309 C 12.867 14.586,12.586 14.864,12.296 14.954 C 12.157 14.997,11.861 15.000,8.000 15.000 C 4.139 15.000,3.843 14.997,3.704 14.954 C 3.422 14.866,3.158 14.612,3.063 14.338 C 3.018 14.207,3.015 13.880,3.014 7.994 C 3.013 1.932,3.015 1.784,3.065 1.652 C 3.162 1.395,3.389 1.166,3.645 1.066 C 3.769 1.017,3.918 1.016,8.027 1.021 L 12.280 1.027 12.428 1.099 M4.307 2.037 C 4.201 2.084,4.081 2.206,4.036 2.312 C 4.008 2.380,4.000 2.630,4.001 3.499 C 4.001 4.517,4.005 4.608,4.051 4.710 C 4.116 4.854,4.251 4.953,4.426 4.987 C 4.619 5.023,11.381 5.023,11.574 4.987 C 11.749 4.953,11.884 4.854,11.949 4.710 C 11.995 4.608,11.999 4.517,11.999 3.520 C 12.000 2.893,11.989 2.400,11.974 2.346 C 11.944 2.239,11.784 2.070,11.672 2.028 C 11.620 2.009,10.467 2.000,7.992 2.001 C 5.063 2.002,4.372 2.009,4.307 2.037 M4.307 6.037 C 4.201 6.084,4.081 6.206,4.036 6.312 C 3.991 6.420,3.984 7.555,4.028 7.672 C 4.070 7.784,4.239 7.944,4.346 7.974 C 4.468 8.008,5.532 8.008,5.654 7.974 C 5.772 7.941,5.939 7.773,5.974 7.652 C 6.008 7.533,6.008 6.469,5.974 6.346 C 5.944 6.239,5.784 6.070,5.672 6.028 C 5.557 5.985,4.408 5.993,4.307 6.037 M7.290 6.051 C 7.146 6.116,7.047 6.251,7.013 6.426 C 6.999 6.504,6.987 6.762,6.987 7.000 C 6.987 7.504,7.014 7.680,7.110 7.807 C 7.243 7.981,7.324 7.999,8.000 7.999 C 8.676 7.999,8.757 7.981,8.890 7.807 C 8.986 7.680,9.013 7.504,9.013 7.000 C 9.013 6.496,8.986 6.320,8.890 6.193 C 8.757 6.019,8.676 6.001,8.000 6.001 C 7.471 6.001,7.387 6.007,7.290 6.051 M10.307 6.037 C 10.201 6.084,10.081 6.206,10.036 6.312 C 9.991 6.420,9.984 7.555,10.028 7.672 C 10.070 7.784,10.239 7.944,10.346 7.974 C 10.468 8.008,11.532 8.008,11.654 7.974 C 11.772 7.941,11.939 7.773,11.974 7.652 C 12.008 7.533,12.008 6.469,11.974 6.346 C 11.944 6.239,11.784 6.070,11.672 6.028 C 11.557 5.985,10.408 5.993,10.307 6.037 M4.280 9.055 C 4.159 9.119,4.104 9.176,4.050 9.293 C 4.007 9.387,4.001 9.474,4.001 10.000 C 4.001 10.676,4.019 10.757,4.193 10.890 C 4.320 10.986,4.496 11.013,5.000 11.013 C 5.504 11.013,5.680 10.986,5.807 10.890 C 5.981 10.757,5.999 10.676,5.999 10.000 C 5.999 9.318,5.982 9.244,5.798 9.104 L 5.698 9.027 5.029 9.019 C 4.459 9.013,4.348 9.019,4.280 9.055 M7.266 9.063 C 7.161 9.127,7.046 9.264,7.020 9.355 C 7.009 9.395,7.000 9.697,7.000 10.027 C 7.000 10.541,7.006 10.638,7.045 10.709 C 7.104 10.816,7.261 10.954,7.354 10.980 C 7.394 10.991,7.697 11.000,8.027 11.000 C 8.604 11.000,8.631 10.998,8.734 10.939 C 8.870 10.860,8.963 10.724,8.990 10.565 C 9.001 10.496,9.010 10.242,9.010 10.000 C 9.010 9.758,9.001 9.504,8.990 9.435 C 8.964 9.279,8.870 9.139,8.743 9.068 C 8.653 9.017,8.602 9.013,7.996 9.013 C 7.411 9.014,7.339 9.018,7.266 9.063 M10.280 9.055 C 10.159 9.119,10.104 9.176,10.050 9.293 C 10.004 9.394,10.001 9.519,10.001 11.498 C 10.000 12.912,10.009 13.621,10.028 13.672 C 10.070 13.784,10.239 13.944,10.346 13.974 C 10.468 14.008,11.532 14.008,11.654 13.974 C 11.772 13.941,11.939 13.773,11.974 13.652 C 11.990 13.595,12.000 12.769,11.999 11.480 C 11.999 9.506,11.996 9.394,11.949 9.290 C 11.922 9.230,11.854 9.146,11.798 9.104 L 11.698 9.027 11.029 9.019 C 10.459 9.013,10.348 9.019,10.280 9.055 M4.307 12.037 C 4.201 12.084,4.081 12.206,4.036 12.312 C 3.991 12.420,3.984 13.555,4.028 13.672 C 4.070 13.784,4.239 13.944,4.346 13.974 C 4.468 14.008,5.532 14.008,5.654 13.974 C 5.772 13.941,5.939 13.773,5.974 13.652 C 6.008 13.533,6.008 12.469,5.974 12.346 C 5.944 12.239,5.784 12.070,5.672 12.028 C 5.557 11.985,4.408 11.993,4.307 12.037 M7.290 12.051 C 7.146 12.116,7.047 12.251,7.013 12.426 C 6.999 12.504,6.987 12.762,6.987 13.000 C 6.987 13.504,7.014 13.680,7.110 13.807 C 7.243 13.981,7.324 13.999,8.000 13.999 C 8.676 13.999,8.757 13.981,8.890 13.807 C 8.986 13.680,9.013 13.504,9.013 13.000 C 9.013 12.496,8.986 12.320,8.890 12.193 C 8.757 12.019,8.676 12.001,8.000 12.001 C 7.471 12.001,7.387 12.007,7.290 12.051 " stroke="none" fill="black" fill-rule="evenodd"></path></svg>