<svg width="1em" height="1em" viewBox="0 0 16 16" class="bi bi-calendar-week-fill" fill="currentColor" xmlns="http://www.w3.org/2000/svg"><path d="M3.290 0.051 C 3.070 0.151,2.987 0.353,2.987 0.788 L 2.987 1.009 2.287 1.019 C 1.601 1.027,1.582 1.029,1.373 1.102 C 1.062 1.211,0.814 1.367,0.587 1.599 C 0.374 1.815,0.249 2.004,0.142 2.267 C 0.029 2.548,0.000 2.781,0.000 3.416 L 0.000 4.000 8.000 4.000 L 16.000 4.000 16.000 3.416 C 16.000 2.781,15.971 2.548,15.858 2.267 C 15.751 2.004,15.626 1.815,15.413 1.599 C 15.186 1.367,14.938 1.211,14.627 1.102 C 14.418 1.029,14.399 1.027,13.713 1.019 L 13.013 1.009 13.013 0.788 C 13.013 0.346,12.930 0.149,12.699 0.047 C 12.472 -0.053,12.224 0.022,12.078 0.236 C 12.019 0.320,12.013 0.361,12.005 0.671 L 11.996 1.013 7.998 1.013 L 4.000 1.013 4.000 0.727 C 4.000 0.372,3.974 0.278,3.847 0.154 C 3.679 -0.009,3.497 -0.043,3.290 0.051 M-0.000 9.601 C -0.000 14.631,-0.008 14.380,0.157 14.774 C 0.350 15.235,0.765 15.650,1.226 15.843 C 1.625 16.010,1.207 16.000,8.000 16.000 C 13.536 16.000,14.211 15.996,14.394 15.958 C 15.184 15.796,15.796 15.184,15.958 14.394 C 15.995 14.212,16.000 13.678,16.000 9.601 L 16.000 5.013 8.000 5.013 L 0.000 5.013 -0.000 9.601 M10.715 7.051 C 10.797 7.094,10.913 7.212,10.957 7.298 C 11.005 7.392,10.997 8.622,10.948 8.717 C 10.897 8.815,10.738 8.954,10.646 8.980 C 10.551 9.006,9.449 9.006,9.354 8.980 C 9.262 8.954,9.103 8.815,9.052 8.717 C 8.996 8.610,8.996 7.391,9.051 7.285 C 9.092 7.207,9.208 7.091,9.293 7.044 C 9.379 6.997,10.623 7.003,10.715 7.051 M13.798 7.104 C 13.982 7.244,13.999 7.318,13.999 8.000 C 13.999 8.676,13.981 8.757,13.807 8.890 C 13.680 8.986,13.504 9.013,13.000 9.013 C 12.496 9.013,12.320 8.986,12.193 8.890 C 12.019 8.757,12.001 8.676,12.001 8.000 C 12.001 7.269,12.024 7.190,12.280 7.055 C 12.348 7.019,12.459 7.013,13.029 7.019 L 13.698 7.027 13.798 7.104 M3.654 10.026 C 3.772 10.059,3.939 10.227,3.974 10.348 C 4.008 10.467,4.008 11.533,3.974 11.652 C 3.939 11.773,3.772 11.941,3.654 11.974 C 3.532 12.008,2.468 12.008,2.346 11.974 C 2.239 11.944,2.070 11.784,2.028 11.672 C 1.984 11.555,1.991 10.420,2.036 10.312 C 2.081 10.206,2.201 10.084,2.307 10.037 C 2.404 9.994,3.507 9.986,3.654 10.026 M6.710 10.051 C 6.770 10.078,6.854 10.146,6.896 10.202 L 6.973 10.303 6.973 11.000 L 6.973 11.697 6.896 11.798 C 6.756 11.982,6.682 11.999,6.000 11.999 C 5.318 11.999,5.244 11.982,5.104 11.798 L 5.027 11.697 5.027 11.000 L 5.027 10.303 5.104 10.202 C 5.244 10.018,5.318 10.001,6.000 10.001 C 6.529 10.001,6.613 10.007,6.710 10.051 " stroke="none" fill="black" fill-rule="evenodd"></path></svg>