<svg width="1em" height="1em" viewBox="0 0 16 16" class="bi bi-calendar-month" fill="currentColor" xmlns="http://www.w3.org/2000/svg"><path d="M3.290 0.051 C 3.070 0.151,2.987 0.353,2.987 0.788 L 2.987 1.009 2.287 1.019 C 1.601 1.027,1.582 1.029,1.373 1.102 C 1.062 1.211,0.814 1.367,0.587 1.599 C 0.374 1.815,0.249 2.004,0.142 2.267 C -0.006 2.635,0.000 2.358,0.000 8.510 C 0.000 14.742,-0.009 14.377,0.157 14.774 C 0.350 15.235,0.765 15.650,1.226 15.843 C 1.625 16.010,1.207 16.000,8.000 16.000 C 13.536 16.000,14.211 15.996,14.394 15.958 C 15.184 15.796,15.796 15.184,15.958 14.394 C 15.995 14.211,16.000 13.582,16.000 8.510 C 16.000 2.358,16.006 2.635,15.858 2.267 C 15.751 2.004,15.626 1.815,15.413 1.599 C 15.186 1.367,14.938 1.211,14.627 1.102 C 14.418 1.029,14.399 1.027,13.713 1.019 L 13.013 1.009 13.013 0.788 C 13.013 0.346,12.930 0.149,12.699 0.047 C 12.472 -0.053,12.224 0.022,12.078 0.236 C 12.019 0.320,12.013 0.361,12.005 0.671 L 11.996 1.013 7.998 1.013 L 4.000 1.013 4.000 0.727 C 4.000 0.372,3.974 0.278,3.847 0.154 C 3.679 -0.009,3.497 -0.043,3.290 0.051 M14.980 9.140 L 14.973 14.280 14.901 14.428 C 14.810 14.612,14.617 14.808,14.441 14.894 C 14.367 14.930,14.223 14.971,14.120 14.986 C 13.864 15.022,2.136 15.022,1.880 14.986 C 1.777 14.971,1.633 14.930,1.559 14.894 C 1.383 14.808,1.190 14.612,1.099 14.428 L 1.027 14.280 1.020 9.140 L 1.013 4.000 8.000 4.000 L 14.987 4.000 14.980 9.140 M2.806 8.647 C 2.289 10.102,1.866 11.302,1.866 11.313 C 1.866 11.324,2.022 11.333,2.211 11.333 L 2.555 11.333 2.634 11.113 C 2.677 10.992,2.799 10.632,2.905 10.313 L 3.098 9.733 4.093 9.733 L 5.089 9.733 5.353 10.527 L 5.618 11.320 5.982 11.327 L 6.346 11.335 6.270 11.127 C 6.228 11.013,5.800 9.813,5.319 8.460 L 4.444 6.000 4.096 6.000 L 3.747 6.000 2.806 8.647 M4.494 7.975 C 4.709 8.621,4.880 9.155,4.873 9.162 C 4.867 9.169,4.508 9.171,4.075 9.167 L 3.289 9.160 3.688 7.980 C 3.908 7.331,4.091 6.800,4.095 6.800 C 4.099 6.800,4.278 7.329,4.494 7.975 M11.525 7.227 C 11.250 7.299,11.082 7.397,10.864 7.613 C 10.652 7.822,10.497 8.104,10.410 8.440 C 10.339 8.712,10.339 9.680,10.409 9.987 C 10.560 10.645,11.013 11.128,11.595 11.250 C 11.771 11.287,12.187 11.288,12.346 11.251 C 12.641 11.183,12.954 10.974,13.099 10.748 L 13.177 10.627 13.168 11.093 C 13.160 11.508,13.152 11.575,13.099 11.691 C 12.998 11.913,12.872 12.041,12.647 12.152 C 12.445 12.252,12.440 12.253,12.121 12.253 C 11.845 12.253,11.778 12.244,11.640 12.189 C 11.448 12.112,11.198 11.877,11.149 11.726 L 11.116 11.627 10.781 11.627 L 10.446 11.627 10.463 11.753 C 10.507 12.078,10.813 12.473,11.147 12.635 C 11.448 12.781,11.617 12.813,12.093 12.813 C 12.465 12.813,12.546 12.805,12.720 12.751 C 13.281 12.577,13.681 12.179,13.799 11.678 C 13.833 11.533,13.839 11.181,13.840 9.367 L 13.840 7.227 13.520 7.227 L 13.200 7.227 13.200 7.524 L 13.200 7.821 13.124 7.717 C 12.795 7.262,12.148 7.064,11.525 7.227 M6.508 8.660 C 6.509 10.246,6.520 10.385,6.667 10.686 C 6.826 11.007,7.150 11.258,7.522 11.346 C 7.745 11.398,8.210 11.399,8.410 11.346 C 8.651 11.284,8.843 11.176,8.980 11.028 C 9.050 10.952,9.121 10.867,9.138 10.839 C 9.164 10.796,9.170 10.837,9.172 11.060 L 9.173 11.333 9.507 11.333 L 9.840 11.333 9.840 9.280 L 9.840 7.227 9.507 7.227 L 9.173 7.227 9.173 8.556 C 9.173 9.294,9.162 9.946,9.148 10.021 C 9.046 10.560,8.556 10.873,7.967 10.776 C 7.619 10.719,7.414 10.575,7.283 10.296 L 7.213 10.147 7.206 8.687 L 7.198 7.227 6.852 7.227 L 6.507 7.227 6.508 8.660 M12.499 7.818 C 12.800 7.930,13.046 8.265,13.133 8.680 C 13.185 8.926,13.185 9.554,13.133 9.798 C 13.025 10.310,12.753 10.611,12.326 10.695 C 11.863 10.785,11.414 10.584,11.207 10.195 C 11.061 9.920,11.029 9.748,11.028 9.227 C 11.028 8.596,11.106 8.318,11.364 8.039 C 11.619 7.762,12.099 7.668,12.499 7.818 " stroke="none" fill="black" fill-rule="evenodd"></path></svg>