<svg width="1em" height="1em" viewBox="0 0 16 16" class="bi bi-calendar2-minus-fill" fill="currentColor" xmlns="http://www.w3.org/2000/svg"><path d="M3.290 0.051 C 3.070 0.151,2.987 0.353,2.987 0.788 L 2.987 1.009 2.287 1.019 C 1.601 1.027,1.582 1.029,1.373 1.102 C 1.062 1.211,0.814 1.367,0.587 1.599 C 0.374 1.815,0.249 2.004,0.142 2.267 C -0.006 2.635,0.000 2.358,0.000 8.510 C 0.000 14.742,-0.009 14.377,0.157 14.774 C 0.350 15.235,0.765 15.650,1.226 15.843 C 1.625 16.010,1.207 16.000,8.000 16.000 C 13.536 16.000,14.211 15.996,14.394 15.958 C 15.184 15.796,15.796 15.184,15.958 14.394 C 15.995 14.211,16.000 13.582,16.000 8.510 C 16.000 2.358,16.006 2.635,15.858 2.267 C 15.751 2.004,15.626 1.815,15.413 1.599 C 15.186 1.367,14.938 1.211,14.627 1.102 C 14.418 1.029,14.399 1.027,13.713 1.019 L 13.013 1.009 13.013 0.788 C 13.013 0.346,12.930 0.149,12.699 0.047 C 12.472 -0.053,12.224 0.022,12.078 0.236 C 12.019 0.320,12.013 0.361,12.005 0.671 L 11.996 1.013 7.998 1.013 L 4.000 1.013 4.000 0.727 C 4.000 0.372,3.974 0.278,3.847 0.154 C 3.679 -0.009,3.497 -0.043,3.290 0.051 M13.798 3.104 C 13.982 3.244,13.999 3.318,13.999 4.000 C 13.999 4.529,13.993 4.613,13.949 4.710 C 13.884 4.854,13.749 4.953,13.574 4.987 C 13.380 5.023,2.620 5.023,2.426 4.987 C 2.251 4.953,2.116 4.854,2.051 4.710 C 2.007 4.613,2.001 4.529,2.001 4.000 C 2.001 3.269,2.025 3.189,2.280 3.055 C 2.352 3.018,2.926 3.014,8.029 3.020 L 13.697 3.027 13.798 3.104 M10.201 10.050 C 10.580 10.222,10.597 10.745,10.231 10.941 L 10.120 11.000 8.000 11.000 L 5.880 11.000 5.769 10.941 C 5.403 10.745,5.420 10.222,5.799 10.050 C 5.901 10.004,6.026 10.001,8.000 10.001 C 9.974 10.001,10.099 10.004,10.201 10.050 " stroke="none" fill="black" fill-rule="evenodd"></path></svg>