<svg width="1em" height="1em" viewBox="0 0 16 16" class="bi bi-caret-down" fill="currentColor" xmlns="http://www.w3.org/2000/svg"><path d="M2.904 4.050 C 2.607 4.146,2.376 4.367,2.265 4.663 C 2.186 4.875,2.199 5.206,2.296 5.413 C 2.348 5.524,2.954 6.233,4.732 8.267 C 7.313 11.217,7.290 11.191,7.424 11.293 C 7.762 11.551,8.306 11.530,8.629 11.246 C 8.700 11.184,9.855 9.879,11.196 8.347 C 13.022 6.261,13.653 5.523,13.704 5.413 C 13.764 5.286,13.773 5.231,13.773 5.000 C 13.773 4.766,13.764 4.714,13.702 4.580 C 13.610 4.385,13.402 4.177,13.206 4.085 L 13.053 4.013 8.053 4.008 C 3.308 4.003,3.046 4.005,2.904 4.050 M12.729 5.073 C 12.699 5.106,11.628 6.330,10.349 7.793 C 9.070 9.256,8.013 10.453,8.000 10.453 C 7.987 10.453,6.930 9.256,5.651 7.793 C 4.372 6.330,3.301 5.106,3.271 5.073 L 3.217 5.013 8.000 5.013 L 12.783 5.013 12.729 5.073 " stroke="none" fill="black" fill-rule="evenodd"></path></svg>