<svg width="1em" height="1em" viewBox="0 0 16 16" class="bi bi-cash-stack" fill="currentColor" xmlns="http://www.w3.org/2000/svg"><path d="M1.704 2.050 C 1.330 2.171,1.053 2.498,1.020 2.858 L 1.006 3.013 8.000 3.013 L 14.994 3.013 14.980 2.856 C 14.951 2.536,14.693 2.202,14.379 2.075 L 14.227 2.013 8.040 2.008 C 2.156 2.003,1.846 2.005,1.704 2.050 M0.767 4.029 C 0.490 4.094,0.217 4.324,0.088 4.600 L 0.013 4.760 0.013 9.000 L 0.013 13.240 0.088 13.400 C 0.186 13.610,0.391 13.816,0.597 13.911 L 0.760 13.987 8.000 13.987 L 15.240 13.987 15.413 13.904 C 15.633 13.799,15.797 13.634,15.903 13.413 L 15.987 13.240 15.987 9.000 L 15.987 4.760 15.903 4.587 C 15.797 4.366,15.633 4.201,15.413 4.096 L 15.240 4.013 8.053 4.009 C 3.935 4.007,0.824 4.015,0.767 4.029 M13.014 5.153 C 13.015 5.612,13.299 6.167,13.720 6.531 C 14.007 6.779,14.521 6.987,14.848 6.987 L 14.987 6.987 14.987 9.000 L 14.987 11.013 14.847 11.014 C 14.635 11.014,14.387 11.082,14.120 11.212 C 13.502 11.513,13.072 12.127,13.018 12.786 L 13.000 13.000 8.000 13.000 L 3.000 13.000 2.983 12.797 C 2.929 12.126,2.480 11.492,1.851 11.196 C 1.602 11.079,1.354 11.014,1.153 11.014 L 1.013 11.013 1.013 9.000 L 1.013 6.987 1.152 6.987 C 1.470 6.987,1.941 6.803,2.240 6.563 C 2.671 6.217,2.987 5.620,2.987 5.152 L 2.987 5.013 8.000 5.013 L 13.013 5.013 13.014 5.153 M7.507 7.064 C 7.115 7.171,6.793 7.362,6.541 7.638 C 5.924 8.314,5.829 9.254,6.297 10.046 C 6.424 10.260,6.752 10.585,6.973 10.714 C 7.076 10.774,7.256 10.857,7.373 10.898 C 7.572 10.967,7.616 10.973,8.000 10.973 C 8.384 10.973,8.428 10.967,8.627 10.898 C 8.939 10.789,9.186 10.633,9.413 10.401 C 9.713 10.096,9.884 9.775,9.961 9.370 C 10.054 8.885,9.965 8.398,9.703 7.954 C 9.576 7.740,9.248 7.415,9.027 7.286 C 8.700 7.095,8.469 7.032,8.053 7.022 C 7.762 7.015,7.658 7.023,7.507 7.064 " stroke="none" fill="black" fill-rule="evenodd"></path></svg>