<svg width="1em" height="1em" viewBox="0 0 16 16" class="bi bi-chat-left-quote" fill="currentColor" xmlns="http://www.w3.org/2000/svg"><path d="M1.600 0.042 C 0.952 0.181,0.407 0.629,0.157 1.226 C -0.010 1.626,-0.000 1.170,0.001 8.352 C 0.001 14.683,0.003 14.897,0.051 15.003 C 0.128 15.172,0.265 15.262,0.466 15.275 C 0.579 15.282,0.656 15.273,0.708 15.246 C 0.749 15.224,1.462 14.528,2.292 13.698 C 3.709 12.280,3.811 12.184,3.987 12.101 L 4.173 12.013 9.267 11.999 C 14.050 11.986,14.369 11.982,14.516 11.938 C 15.270 11.708,15.806 11.135,15.958 10.394 C 15.995 10.212,16.000 9.714,16.000 6.000 C 16.000 2.286,15.995 1.788,15.958 1.606 C 15.796 0.816,15.184 0.204,14.394 0.042 C 14.210 0.004,13.540 0.000,7.981 0.002 C 2.765 0.004,1.746 0.010,1.600 0.042 M14.428 1.099 C 14.616 1.192,14.808 1.384,14.901 1.572 L 14.973 1.720 14.973 6.000 L 14.973 10.280 14.901 10.428 C 14.810 10.612,14.617 10.808,14.441 10.894 C 14.367 10.930,14.223 10.971,14.120 10.986 C 14.001 11.003,12.152 11.012,9.028 11.013 C 4.601 11.013,4.106 11.018,3.948 11.056 C 3.726 11.111,3.422 11.250,3.245 11.378 C 3.169 11.432,2.636 11.945,2.060 12.517 L 1.013 13.557 1.013 7.672 C 1.013 1.929,1.015 1.784,1.065 1.652 C 1.162 1.395,1.389 1.166,1.645 1.066 C 1.769 1.017,1.962 1.016,8.027 1.021 L 14.280 1.027 14.428 1.099 M5.280 4.040 C 4.801 4.157,4.404 4.476,4.185 4.920 C 3.940 5.415,3.942 5.922,4.190 6.425 C 4.578 7.213,5.562 7.551,6.368 7.173 C 6.463 7.129,6.545 7.096,6.549 7.100 C 6.554 7.105,6.500 7.228,6.429 7.374 C 6.286 7.670,6.115 7.921,5.869 8.198 C 5.687 8.403,5.668 8.450,5.686 8.643 C 5.707 8.859,5.863 8.991,6.101 8.991 C 6.250 8.991,6.342 8.930,6.551 8.690 C 6.956 8.226,7.278 7.637,7.419 7.101 C 7.497 6.807,7.502 6.757,7.502 6.320 C 7.502 5.903,7.495 5.826,7.434 5.597 C 7.306 5.122,7.056 4.673,6.780 4.428 C 6.596 4.263,6.277 4.094,6.050 4.041 C 5.843 3.992,5.479 3.992,5.280 4.040 M9.280 4.040 C 8.801 4.157,8.404 4.476,8.185 4.920 C 7.940 5.415,7.942 5.922,8.190 6.425 C 8.578 7.213,9.562 7.551,10.368 7.173 C 10.463 7.129,10.545 7.096,10.549 7.100 C 10.554 7.105,10.500 7.228,10.429 7.374 C 10.286 7.670,10.115 7.921,9.869 8.198 C 9.687 8.403,9.668 8.450,9.686 8.643 C 9.707 8.859,9.863 8.991,10.101 8.991 C 10.250 8.991,10.342 8.930,10.551 8.690 C 10.956 8.226,11.278 7.637,11.419 7.101 C 11.497 6.807,11.502 6.757,11.502 6.320 C 11.502 5.903,11.495 5.826,11.434 5.597 C 11.306 5.122,11.056 4.673,10.780 4.428 C 10.596 4.263,10.277 4.094,10.050 4.041 C 9.843 3.992,9.479 3.992,9.280 4.040 " stroke="none" fill="black" fill-rule="evenodd"></path></svg>