<svg width="1em" height="1em" viewBox="0 0 16 16" class="bi bi-chat-square-text-fill" fill="currentColor" xmlns="http://www.w3.org/2000/svg"><path d="M1.600 0.042 C 0.952 0.181,0.407 0.629,0.157 1.226 C -0.007 1.618,0.000 1.409,-0.000 6.000 C -0.000 10.591,-0.007 10.382,0.157 10.774 C 0.343 11.218,0.749 11.634,1.186 11.827 C 1.540 11.984,1.513 11.982,3.187 11.998 C 4.728 12.013,4.734 12.014,4.867 12.075 C 5.145 12.203,5.183 12.246,6.245 13.660 C 7.001 14.667,7.315 15.065,7.407 15.133 C 7.557 15.244,7.822 15.333,8.000 15.333 C 8.201 15.333,8.462 15.240,8.616 15.112 C 8.706 15.038,9.099 14.538,9.783 13.627 C 10.722 12.375,10.826 12.246,10.960 12.166 C 11.240 11.999,11.229 12.000,12.779 12.000 C 13.960 12.000,14.222 11.993,14.394 11.958 C 15.184 11.796,15.796 11.184,15.958 10.394 C 15.995 10.212,16.000 9.714,16.000 6.000 C 16.000 2.286,15.995 1.788,15.958 1.606 C 15.796 0.816,15.184 0.204,14.394 0.042 C 14.210 0.004,13.540 0.000,7.981 0.002 C 2.765 0.004,1.746 0.010,1.600 0.042 M12.717 3.052 C 12.815 3.102,12.955 3.263,12.976 3.348 C 12.985 3.385,12.988 3.480,12.981 3.559 C 12.967 3.736,12.868 3.877,12.710 3.949 C 12.604 3.997,12.436 3.999,8.000 3.999 C 3.564 3.999,3.396 3.997,3.290 3.949 C 3.132 3.877,3.033 3.736,3.019 3.559 C 3.012 3.480,3.014 3.386,3.023 3.350 C 3.045 3.265,3.162 3.126,3.266 3.063 C 3.344 3.015,3.514 3.014,7.995 3.013 C 12.001 3.013,12.653 3.019,12.717 3.052 M12.643 5.524 C 12.866 5.600,12.987 5.767,12.987 6.000 C 12.987 6.233,12.866 6.400,12.643 6.476 C 12.513 6.520,3.487 6.520,3.357 6.476 C 3.134 6.400,3.013 6.233,3.013 6.000 C 3.013 5.772,3.133 5.602,3.347 5.526 C 3.465 5.484,12.519 5.482,12.643 5.524 M8.710 8.051 C 8.868 8.123,8.967 8.264,8.981 8.441 C 8.997 8.628,8.977 8.699,8.876 8.814 C 8.700 9.015,8.929 9.000,6.000 9.000 C 3.071 9.000,3.300 9.015,3.124 8.814 C 3.023 8.699,3.003 8.628,3.019 8.441 C 3.033 8.264,3.132 8.123,3.290 8.051 C 3.395 8.003,3.518 8.001,6.000 8.001 C 8.482 8.001,8.605 8.003,8.710 8.051 " stroke="none" fill="black" fill-rule="evenodd"></path></svg>