<svg width="1em" height="1em" viewBox="0 0 16 16" class="bi bi-chat-left" fill="currentColor" xmlns="http://www.w3.org/2000/svg"><path d="M1.600 0.042 C 0.952 0.181,0.407 0.629,0.157 1.226 C -0.010 1.626,-0.000 1.170,0.001 8.352 C 0.001 14.683,0.003 14.897,0.051 15.003 C 0.128 15.172,0.265 15.262,0.466 15.275 C 0.579 15.282,0.656 15.273,0.708 15.246 C 0.749 15.224,1.462 14.528,2.292 13.698 C 3.709 12.280,3.811 12.184,3.987 12.101 L 4.173 12.013 9.267 11.999 C 14.050 11.986,14.369 11.982,14.516 11.938 C 15.270 11.708,15.806 11.135,15.958 10.394 C 15.995 10.212,16.000 9.714,16.000 6.000 C 16.000 2.286,15.995 1.788,15.958 1.606 C 15.796 0.816,15.184 0.204,14.394 0.042 C 14.210 0.004,13.540 0.000,7.981 0.002 C 2.765 0.004,1.746 0.010,1.600 0.042 M14.428 1.099 C 14.616 1.192,14.808 1.384,14.901 1.572 L 14.973 1.720 14.973 6.000 L 14.973 10.280 14.901 10.428 C 14.810 10.612,14.617 10.808,14.441 10.894 C 14.367 10.930,14.223 10.971,14.120 10.986 C 14.001 11.003,12.152 11.012,9.028 11.013 C 4.601 11.013,4.106 11.018,3.948 11.056 C 3.726 11.111,3.422 11.250,3.245 11.378 C 3.169 11.432,2.636 11.945,2.060 12.517 L 1.013 13.557 1.013 7.672 C 1.013 1.929,1.015 1.784,1.065 1.652 C 1.162 1.395,1.389 1.166,1.645 1.066 C 1.769 1.017,1.962 1.016,8.027 1.021 L 14.280 1.027 14.428 1.099 " stroke="none" fill="black" fill-rule="evenodd"></path></svg>