<svg width="1em" height="1em" viewBox="0 0 16 16" class="bi bi-chat-fill" fill="currentColor" xmlns="http://www.w3.org/2000/svg"><path d="M7.013 1.053 C 5.618 1.208,4.292 1.680,3.179 2.418 C 2.721 2.721,2.372 3.010,1.959 3.424 C 1.386 4.000,0.984 4.561,0.639 5.267 C -0.513 7.623,-0.080 10.370,1.759 12.376 L 1.974 12.609 1.932 12.911 C 1.822 13.698,1.583 14.594,1.275 15.372 C 1.155 15.674,1.155 15.774,1.274 15.868 C 1.368 15.943,1.519 15.931,2.173 15.800 C 3.426 15.548,4.577 15.196,5.407 14.811 L 5.656 14.695 5.928 14.760 C 6.588 14.918,7.213 14.987,8.000 14.987 C 9.017 14.987,9.882 14.856,10.760 14.570 C 12.070 14.142,13.121 13.504,14.040 12.577 C 14.928 11.680,15.514 10.668,15.801 9.532 C 16.232 7.828,15.933 6.043,14.969 4.563 C 14.453 3.770,13.684 2.994,12.883 2.456 C 11.734 1.683,10.408 1.209,8.960 1.053 C 8.519 1.005,7.446 1.005,7.013 1.053 " stroke="none" fill="black" fill-rule="evenodd"></path></svg>