<svg width="1em" height="1em" viewBox="0 0 16 16" class="bi bi-chat-quote" fill="currentColor" xmlns="http://www.w3.org/2000/svg"><path d="M7.013 1.053 C 5.618 1.208,4.292 1.680,3.179 2.418 C 2.721 2.721,2.372 3.010,1.959 3.424 C 1.386 4.000,0.984 4.561,0.639 5.267 C -0.513 7.623,-0.080 10.370,1.759 12.376 L 1.974 12.609 1.932 12.911 C 1.829 13.648,1.602 14.523,1.330 15.227 C 1.153 15.685,1.146 15.767,1.274 15.868 C 1.368 15.943,1.519 15.931,2.173 15.800 C 3.427 15.548,4.576 15.196,5.409 14.810 L 5.659 14.694 5.872 14.748 C 6.175 14.825,6.782 14.924,7.180 14.962 C 7.689 15.009,8.819 14.981,9.293 14.908 C 10.634 14.703,11.778 14.273,12.832 13.577 C 13.686 13.013,14.498 12.188,15.027 11.347 C 15.217 11.044,15.487 10.494,15.615 10.147 C 16.293 8.309,16.052 6.225,14.969 4.563 C 14.453 3.770,13.684 2.994,12.883 2.456 C 11.734 1.683,10.408 1.209,8.960 1.053 C 8.519 1.005,7.446 1.005,7.013 1.053 M9.126 2.078 C 10.803 2.323,12.203 3.000,13.293 4.093 C 14.219 5.020,14.778 6.100,14.947 7.288 C 14.997 7.637,14.997 8.363,14.947 8.712 C 14.685 10.557,13.415 12.223,11.550 13.170 C 10.541 13.682,9.457 13.951,8.240 13.992 C 7.532 14.015,6.916 13.954,6.147 13.784 C 5.621 13.667,5.471 13.678,5.079 13.860 C 4.481 14.137,3.830 14.366,3.054 14.573 C 2.806 14.639,2.594 14.693,2.585 14.693 C 2.575 14.693,2.590 14.612,2.618 14.513 C 2.806 13.851,2.942 13.072,2.945 12.653 C 2.946 12.362,2.940 12.320,2.878 12.187 C 2.836 12.098,2.711 11.934,2.562 11.773 C 1.762 10.908,1.276 9.965,1.076 8.893 C 1.037 8.680,1.027 8.498,1.027 7.987 C 1.027 7.251,1.063 7.007,1.266 6.385 C 1.674 5.139,2.583 3.993,3.784 3.214 C 4.797 2.557,5.993 2.151,7.280 2.028 C 7.690 1.989,8.704 2.016,9.126 2.078 M5.415 6.029 C 4.595 6.190,4.001 6.878,4.001 7.667 C 4.001 8.367,4.486 9.015,5.183 9.244 C 5.367 9.305,5.448 9.316,5.720 9.318 C 6.055 9.320,6.293 9.269,6.540 9.143 C 6.655 9.084,6.660 9.096,6.585 9.270 C 6.466 9.548,6.222 9.902,5.940 10.207 C 5.715 10.449,5.680 10.586,5.794 10.784 C 5.869 10.915,6.001 10.987,6.168 10.987 C 6.338 10.987,6.411 10.945,6.616 10.728 C 7.293 10.010,7.654 9.170,7.653 8.316 C 7.652 7.581,7.421 6.971,6.970 6.513 C 6.792 6.332,6.713 6.274,6.530 6.189 C 6.173 6.022,5.756 5.962,5.415 6.029 M9.680 6.040 C 9.464 6.088,9.121 6.257,8.954 6.396 C 8.549 6.733,8.347 7.157,8.347 7.667 C 8.347 8.314,8.688 8.848,9.293 9.148 C 9.763 9.382,10.330 9.391,10.795 9.173 C 10.890 9.129,10.973 9.097,10.979 9.103 C 11.001 9.125,10.826 9.472,10.686 9.687 C 10.606 9.808,10.441 10.020,10.319 10.158 C 10.103 10.401,10.096 10.413,10.087 10.558 C 10.075 10.732,10.133 10.848,10.273 10.933 C 10.381 10.999,10.583 11.003,10.712 10.942 C 10.919 10.844,11.469 10.123,11.677 9.679 C 11.916 9.166,11.983 8.866,11.982 8.307 C 11.982 7.934,11.973 7.847,11.913 7.621 C 11.745 6.993,11.399 6.482,10.974 6.237 C 10.628 6.037,10.070 5.952,9.680 6.040 " stroke="none" fill="black" fill-rule="evenodd"></path></svg>