<svg width="1em" height="1em" viewBox="0 0 16 16" class="bi bi-chat-right" fill="currentColor" xmlns="http://www.w3.org/2000/svg"><path d="M1.600 0.042 C 0.952 0.181,0.407 0.629,0.157 1.226 C -0.007 1.618,0.000 1.409,-0.000 6.000 C -0.000 9.714,0.005 10.212,0.042 10.394 C 0.194 11.135,0.730 11.708,1.484 11.938 C 1.631 11.982,1.950 11.986,6.733 11.999 L 11.827 12.013 12.013 12.101 C 12.189 12.184,12.291 12.280,13.708 13.698 C 14.538 14.528,15.251 15.224,15.292 15.246 C 15.344 15.273,15.421 15.282,15.534 15.275 C 15.735 15.262,15.872 15.172,15.949 15.003 C 15.997 14.897,15.999 14.683,15.999 8.352 C 16.000 2.493,15.996 1.790,15.958 1.606 C 15.796 0.816,15.184 0.204,14.394 0.042 C 14.210 0.004,13.540 0.000,7.981 0.002 C 2.765 0.004,1.746 0.010,1.600 0.042 M14.428 1.099 C 14.616 1.192,14.808 1.384,14.901 1.572 L 14.973 1.720 14.980 7.639 L 14.987 13.558 13.940 12.517 C 13.364 11.945,12.831 11.432,12.755 11.377 C 12.577 11.250,12.274 11.111,12.052 11.056 C 11.894 11.018,11.399 11.013,6.972 11.013 C 3.848 11.012,1.999 11.003,1.880 10.986 C 1.777 10.971,1.633 10.930,1.559 10.894 C 1.383 10.808,1.190 10.612,1.099 10.428 L 1.027 10.280 1.020 6.034 C 1.013 1.891,1.014 1.786,1.064 1.653 C 1.162 1.395,1.389 1.166,1.645 1.066 C 1.769 1.017,1.962 1.016,8.027 1.021 L 14.280 1.027 14.428 1.099 " stroke="none" fill="black" fill-rule="evenodd"></path></svg>