<svg width="1em" height="1em" viewBox="0 0 16 16" class="bi bi-chat-dots-fill" fill="currentColor" xmlns="http://www.w3.org/2000/svg"><path d="M7.013 1.053 C 5.618 1.208,4.292 1.680,3.179 2.418 C 2.721 2.721,2.372 3.010,1.959 3.424 C 1.386 4.000,0.984 4.561,0.639 5.267 C -0.513 7.623,-0.080 10.370,1.759 12.376 L 1.974 12.609 1.932 12.911 C 1.822 13.698,1.583 14.594,1.275 15.372 C 1.155 15.674,1.155 15.774,1.274 15.868 C 1.368 15.943,1.519 15.931,2.173 15.800 C 3.426 15.548,4.577 15.196,5.407 14.811 L 5.656 14.695 5.928 14.760 C 6.588 14.918,7.213 14.987,8.000 14.987 C 9.017 14.987,9.882 14.856,10.760 14.570 C 12.070 14.142,13.121 13.504,14.040 12.577 C 14.928 11.680,15.514 10.668,15.801 9.532 C 16.232 7.828,15.933 6.043,14.969 4.563 C 14.453 3.770,13.684 2.994,12.883 2.456 C 11.734 1.683,10.408 1.209,8.960 1.053 C 8.519 1.005,7.446 1.005,7.013 1.053 M4.428 7.100 C 4.616 7.192,4.808 7.384,4.901 7.572 C 4.966 7.705,4.973 7.749,4.973 8.000 C 4.973 8.251,4.966 8.295,4.901 8.428 C 4.808 8.616,4.616 8.808,4.428 8.901 C 4.295 8.966,4.251 8.973,4.000 8.973 C 3.749 8.973,3.705 8.966,3.572 8.901 C 3.384 8.809,3.192 8.616,3.100 8.429 C 3.001 8.226,2.983 7.866,3.062 7.659 C 3.162 7.396,3.385 7.169,3.645 7.064 C 3.842 6.985,4.230 7.003,4.428 7.100 M8.428 7.100 C 8.616 7.192,8.808 7.384,8.901 7.572 C 8.966 7.705,8.973 7.749,8.973 8.000 C 8.973 8.251,8.966 8.295,8.901 8.428 C 8.808 8.616,8.616 8.808,8.428 8.901 C 8.295 8.966,8.251 8.973,8.000 8.973 C 7.749 8.973,7.705 8.966,7.572 8.901 C 7.384 8.809,7.192 8.616,7.100 8.429 C 7.001 8.226,6.983 7.866,7.062 7.659 C 7.162 7.396,7.385 7.169,7.645 7.064 C 7.842 6.985,8.230 7.003,8.428 7.100 M12.428 7.100 C 12.616 7.192,12.808 7.384,12.901 7.572 C 12.966 7.705,12.973 7.749,12.973 8.000 C 12.973 8.251,12.966 8.295,12.901 8.428 C 12.808 8.616,12.616 8.808,12.428 8.901 C 12.295 8.966,12.251 8.973,12.000 8.973 C 11.749 8.973,11.705 8.966,11.572 8.901 C 11.384 8.809,11.192 8.616,11.100 8.429 C 11.001 8.226,10.983 7.866,11.062 7.659 C 11.162 7.396,11.385 7.169,11.645 7.064 C 11.842 6.985,12.230 7.003,12.428 7.100 " stroke="none" fill="black" fill-rule="evenodd"></path></svg>