<svg width="1em" height="1em" viewBox="0 0 16 16" class="bi bi-check2" fill="currentColor" xmlns="http://www.w3.org/2000/svg"><path d="M13.333 3.524 C 13.259 3.545,12.549 4.240,9.867 6.922 L 6.493 10.293 4.893 8.692 C 4.013 7.811,3.259 7.072,3.218 7.050 C 3.121 6.998,2.880 6.998,2.782 7.049 C 2.682 7.101,2.570 7.222,2.535 7.315 C 2.491 7.432,2.501 7.619,2.558 7.728 C 2.622 7.850,6.167 11.391,6.285 11.451 C 6.383 11.499,6.574 11.507,6.685 11.465 C 6.798 11.424,13.886 4.334,13.949 4.200 C 14.042 4.002,13.988 3.764,13.816 3.620 C 13.680 3.505,13.517 3.473,13.333 3.524 " stroke="none" fill="black" fill-rule="evenodd"></path></svg>