<svg width="1em" height="1em" viewBox="0 0 16 16" class="bi bi-check-all" fill="currentColor" xmlns="http://www.w3.org/2000/svg"><path d="M9.289 4.783 C 9.227 4.803,9.137 4.845,9.087 4.875 C 9.031 4.910,8.336 5.775,7.239 7.172 L 5.481 9.413 4.387 8.321 C 3.183 7.119,3.151 7.094,2.851 7.094 C 2.418 7.093,2.097 7.408,2.095 7.840 C 2.092 8.165,2.077 8.147,3.659 9.723 C 5.235 11.294,5.170 11.241,5.520 11.239 C 5.715 11.237,5.905 11.157,6.031 11.022 C 6.203 10.840,10.138 5.897,10.179 5.813 C 10.244 5.678,10.255 5.419,10.202 5.260 C 10.081 4.896,9.643 4.667,9.289 4.783 M13.265 4.782 C 13.221 4.799,13.142 4.840,13.091 4.872 C 13.031 4.910,12.359 5.744,11.239 7.172 L 9.481 9.413 9.238 9.171 L 8.995 8.930 8.521 9.521 L 8.047 10.113 8.537 10.604 C 9.111 11.179,9.205 11.241,9.507 11.238 C 9.722 11.236,9.903 11.159,10.043 11.009 C 10.252 10.785,14.102 5.951,14.167 5.830 C 14.435 5.336,14.079 4.743,13.520 4.749 C 13.425 4.750,13.310 4.765,13.265 4.782 " stroke="none" fill="black" fill-rule="evenodd"></path></svg>