<svg width="1em" height="1em" viewBox="0 0 16 16" class="bi bi-circle-square" fill="currentColor" xmlns="http://www.w3.org/2000/svg"><path d="M5.400 0.030 C 3.367 0.222,1.525 1.508,0.611 3.373 C -0.512 5.665,-0.049 8.429,1.761 10.239 C 3.574 12.052,6.355 12.516,8.638 11.385 C 9.853 10.783,10.804 9.829,11.387 8.627 C 11.671 8.040,11.828 7.538,11.937 6.867 C 12.004 6.457,12.004 5.543,11.937 5.133 C 11.828 4.462,11.671 3.960,11.387 3.373 C 10.294 1.119,7.918 -0.208,5.400 0.030 M12.720 4.014 C 12.720 4.023,12.749 4.147,12.785 4.289 C 12.838 4.498,12.933 4.959,12.933 5.003 C 12.933 5.009,13.318 5.013,13.788 5.013 C 14.472 5.013,14.657 5.021,14.715 5.051 C 14.797 5.094,14.913 5.212,14.957 5.298 C 14.979 5.341,14.987 6.620,14.987 10.000 C 14.987 14.002,14.981 14.653,14.948 14.717 C 14.897 14.815,14.738 14.954,14.646 14.980 C 14.551 15.006,5.449 15.006,5.354 14.980 C 5.262 14.954,5.103 14.815,5.052 14.717 C 5.021 14.657,5.013 14.482,5.013 13.788 C 5.013 13.318,5.009 12.933,5.003 12.933 C 4.959 12.933,4.498 12.838,4.289 12.785 C 4.147 12.749,4.023 12.720,4.013 12.720 C 4.004 12.720,4.001 13.191,4.006 13.767 C 4.016 14.778,4.018 14.819,4.077 14.979 C 4.242 15.428,4.613 15.789,5.052 15.928 L 5.240 15.987 10.000 15.987 L 14.760 15.987 14.948 15.928 C 15.402 15.785,15.785 15.402,15.928 14.948 L 15.987 14.760 15.987 10.000 L 15.987 5.240 15.928 5.052 C 15.786 4.603,15.414 4.226,14.962 4.074 C 14.795 4.018,14.736 4.014,13.753 4.006 C 13.185 4.001,12.720 4.005,12.720 4.014 " stroke="none" fill="black" fill-rule="evenodd"></path></svg>