<svg width="1em" height="1em" viewBox="0 0 16 16" class="bi bi-clipboard-check" fill="currentColor" xmlns="http://www.w3.org/2000/svg"><path d="M6.171 0.040 C 5.645 0.154,5.198 0.585,5.050 1.120 C 4.979 1.376,4.979 2.624,5.050 2.880 C 5.199 3.421,5.647 3.848,6.184 3.962 C 6.444 4.017,9.559 4.016,9.820 3.961 C 10.367 3.845,10.824 3.392,10.964 2.827 C 11.015 2.621,11.015 1.379,10.964 1.173 C 10.822 0.602,10.373 0.156,9.819 0.039 C 9.568 -0.014,6.416 -0.014,6.171 0.040 M9.798 1.104 C 9.982 1.244,9.999 1.318,9.999 2.000 C 9.999 2.529,9.993 2.613,9.949 2.710 C 9.884 2.854,9.749 2.953,9.574 2.987 C 9.386 3.022,6.614 3.022,6.426 2.987 C 6.251 2.953,6.116 2.854,6.051 2.710 C 6.007 2.613,6.001 2.529,6.001 2.000 C 6.001 1.269,6.025 1.189,6.280 1.055 C 6.351 1.018,6.553 1.014,8.029 1.020 L 9.698 1.027 9.798 1.104 M2.707 1.523 C 1.931 1.633,1.283 2.217,1.060 3.006 L 1.001 3.213 0.992 8.520 C 0.987 11.932,0.994 13.933,1.011 14.125 C 1.059 14.665,1.240 15.061,1.599 15.413 C 1.904 15.713,2.225 15.884,2.630 15.961 C 2.932 16.019,13.068 16.019,13.370 15.961 C 13.775 15.884,14.096 15.713,14.401 15.413 C 14.760 15.061,14.941 14.665,14.989 14.125 C 15.006 13.933,15.013 11.932,15.008 8.520 L 14.999 3.213 14.942 3.010 C 14.712 2.200,14.075 1.634,13.269 1.522 C 13.155 1.506,12.824 1.493,12.531 1.493 L 12.000 1.493 12.000 2.000 L 12.000 2.507 12.582 2.507 C 13.006 2.507,13.199 2.517,13.290 2.544 C 13.590 2.635,13.841 2.883,13.944 3.192 L 14.000 3.358 14.000 8.743 C 14.000 14.058,13.999 14.130,13.947 14.297 C 13.851 14.600,13.648 14.813,13.337 14.939 L 13.187 15.000 8.160 15.008 C 4.954 15.012,3.054 15.006,2.915 14.989 C 2.575 14.948,2.331 14.801,2.165 14.539 C 1.988 14.261,2.000 14.678,2.000 8.745 C 2.000 3.436,2.001 3.363,2.053 3.196 C 2.122 2.979,2.256 2.799,2.437 2.679 C 2.671 2.523,2.764 2.507,3.418 2.507 L 4.000 2.507 4.000 2.000 L 4.000 1.493 3.433 1.497 C 3.122 1.498,2.795 1.510,2.707 1.523 M10.373 7.020 C 10.261 7.043,10.169 7.129,8.880 8.415 L 7.506 9.786 6.920 9.199 C 6.269 8.547,6.193 8.493,5.960 8.512 C 5.773 8.528,5.645 8.615,5.560 8.785 C 5.402 9.099,5.447 9.170,6.406 10.124 C 6.835 10.551,7.226 10.920,7.275 10.945 C 7.388 11.002,7.595 11.004,7.711 10.949 C 7.761 10.925,8.507 10.200,9.379 9.326 C 10.872 7.830,10.957 7.740,10.979 7.627 C 11.025 7.394,10.933 7.173,10.747 7.072 C 10.623 7.004,10.519 6.989,10.373 7.020 " stroke="none" fill="black" fill-rule="evenodd"></path></svg>