<svg width="1em" height="1em" viewBox="0 0 16 16" class="bi bi-cloud-slash-fill" fill="currentColor" xmlns="http://www.w3.org/2000/svg"><path d="M1.986 2.000 L 1.640 2.347 7.640 8.347 L 13.640 14.346 13.993 13.993 L 14.347 13.640 8.354 7.647 C 5.057 4.350,2.354 1.653,2.346 1.653 C 2.339 1.653,2.177 1.809,1.986 2.000 M7.360 2.039 C 6.751 2.118,6.201 2.277,5.680 2.523 C 5.363 2.673,4.960 2.904,4.960 2.935 C 4.960 2.945,7.104 5.097,9.724 7.718 L 14.487 12.484 14.637 12.382 C 14.719 12.326,14.880 12.190,14.995 12.081 C 15.881 11.238,16.214 9.976,15.852 8.827 C 15.501 7.712,14.518 6.841,13.353 6.612 C 13.206 6.583,13.170 6.566,13.162 6.522 C 13.157 6.491,13.127 6.321,13.097 6.143 C 12.839 4.644,11.800 3.277,10.373 2.560 C 9.915 2.329,9.432 2.173,8.886 2.078 C 8.478 2.007,7.747 1.988,7.360 2.039 M3.044 5.313 C 3.013 5.420,2.978 5.554,2.966 5.612 L 2.945 5.718 2.706 5.788 C 2.052 5.979,1.490 6.320,1.023 6.807 C 0.546 7.304,0.246 7.859,0.087 8.541 C 0.025 8.802,0.016 8.900,0.015 9.307 C 0.014 9.701,0.023 9.816,0.076 10.051 C 0.322 11.157,1.020 12.059,2.025 12.571 C 2.534 12.830,2.962 12.946,3.560 12.987 C 3.977 13.016,10.987 13.022,10.987 12.993 C 10.987 12.970,3.141 5.120,3.117 5.120 C 3.108 5.120,3.076 5.207,3.044 5.313 " stroke="none" fill="black" fill-rule="evenodd"></path></svg>