<svg width="1em" height="1em" viewBox="0 0 16 16" class="bi bi-code-square" fill="currentColor" xmlns="http://www.w3.org/2000/svg"><path d="M1.600 0.042 C 0.952 0.181,0.407 0.629,0.157 1.226 C -0.010 1.625,0.000 1.207,0.000 8.000 C 0.000 14.793,-0.010 14.375,0.157 14.774 C 0.350 15.235,0.765 15.650,1.226 15.843 C 1.625 16.010,1.207 16.000,8.000 16.000 C 13.536 16.000,14.211 15.996,14.394 15.958 C 15.184 15.796,15.796 15.184,15.958 14.394 C 15.996 14.211,16.000 13.536,16.000 8.000 C 16.000 2.464,15.996 1.789,15.958 1.606 C 15.796 0.816,15.184 0.204,14.394 0.042 C 14.210 0.004,13.540 0.000,7.981 0.002 C 2.765 0.004,1.746 0.010,1.600 0.042 M14.428 1.099 C 14.616 1.192,14.808 1.384,14.901 1.572 L 14.973 1.720 14.980 7.946 C 14.986 13.403,14.982 14.188,14.947 14.309 C 14.867 14.586,14.586 14.864,14.296 14.954 C 14.156 14.997,13.759 15.000,8.000 15.000 C 2.241 15.000,1.844 14.997,1.704 14.954 C 1.422 14.866,1.158 14.612,1.063 14.338 C 1.018 14.207,1.015 13.880,1.014 7.994 C 1.013 1.932,1.015 1.784,1.065 1.652 C 1.162 1.395,1.389 1.166,1.645 1.066 C 1.769 1.017,1.962 1.016,8.027 1.021 L 14.280 1.027 14.428 1.099 M6.280 4.550 C 6.158 4.614,3.126 7.649,3.062 7.772 C 2.991 7.908,2.991 8.092,3.062 8.228 C 3.128 8.356,6.162 11.389,6.285 11.451 C 6.383 11.500,6.575 11.506,6.685 11.465 C 6.778 11.430,6.899 11.318,6.951 11.218 C 6.998 11.127,7.003 10.882,6.959 10.795 C 6.942 10.761,6.314 10.118,5.564 9.367 L 4.200 8.000 5.564 6.633 C 6.314 5.882,6.942 5.239,6.959 5.205 C 7.003 5.118,6.998 4.873,6.951 4.782 C 6.899 4.682,6.778 4.570,6.685 4.535 C 6.577 4.494,6.373 4.502,6.280 4.550 M9.307 4.537 C 9.220 4.571,9.099 4.686,9.049 4.782 C 9.002 4.873,8.997 5.118,9.041 5.205 C 9.058 5.239,9.686 5.882,10.436 6.633 L 11.800 8.000 10.436 9.367 C 9.686 10.118,9.058 10.761,9.041 10.795 C 8.997 10.882,9.002 11.127,9.049 11.218 C 9.101 11.318,9.222 11.430,9.315 11.465 C 9.425 11.506,9.617 11.500,9.715 11.451 C 9.838 11.389,12.872 8.356,12.938 8.228 C 13.009 8.092,13.009 7.908,12.938 7.772 C 12.871 7.643,9.838 4.611,9.715 4.549 C 9.620 4.502,9.410 4.496,9.307 4.537 " stroke="none" fill="black" fill-rule="evenodd"></path></svg>