<svg width="1em" height="1em" viewBox="0 0 16 16" class="bi bi-collection-play" fill="currentColor" xmlns="http://www.w3.org/2000/svg"><path d="M4.271 0.564 C 4.099 0.649,4.013 0.794,4.013 1.000 C 4.013 1.207,4.100 1.353,4.273 1.437 L 4.390 1.493 8.002 1.493 C 11.492 1.492,11.617 1.490,11.725 1.442 C 11.893 1.365,11.987 1.208,11.987 1.000 C 11.987 0.792,11.893 0.635,11.725 0.558 C 11.617 0.510,11.492 0.508,8.000 0.507 L 4.387 0.507 4.271 0.564 M2.271 2.564 C 2.099 2.649,2.013 2.794,2.013 3.000 C 2.013 3.207,2.100 3.353,2.273 3.437 L 2.390 3.493 8.002 3.493 C 13.457 3.492,13.616 3.491,13.725 3.442 C 13.893 3.365,13.987 3.208,13.987 3.000 C 13.987 2.792,13.893 2.635,13.725 2.558 C 13.616 2.509,13.457 2.508,8.000 2.507 L 2.387 2.507 2.271 2.564 M1.107 4.556 C 0.686 4.678,0.345 4.960,0.164 5.338 C 0.105 5.460,0.044 5.631,0.029 5.718 C 0.009 5.825,-0.000 7.051,-0.000 9.521 C -0.000 13.069,0.001 13.170,0.053 13.372 C 0.180 13.869,0.522 14.228,1.066 14.437 L 1.213 14.493 7.893 14.501 C 15.287 14.509,14.795 14.520,15.170 14.338 C 15.384 14.235,15.686 13.948,15.809 13.729 C 15.856 13.647,15.918 13.486,15.947 13.372 C 15.999 13.170,16.000 13.069,16.000 9.521 C 16.000 7.051,15.991 5.825,15.971 5.718 C 15.935 5.516,15.767 5.169,15.627 5.008 C 15.497 4.858,15.220 4.671,15.000 4.584 L 14.840 4.520 8.053 4.515 C 1.687 4.511,1.257 4.513,1.107 4.556 M14.643 5.524 C 14.782 5.571,14.876 5.648,14.934 5.761 C 14.986 5.863,14.987 5.931,14.987 9.499 C 14.987 13.574,15.004 13.228,14.791 13.398 L 14.688 13.480 8.002 13.480 L 1.316 13.480 1.216 13.404 C 1.161 13.362,1.093 13.290,1.064 13.244 C 1.015 13.162,1.014 13.056,1.013 9.512 C 1.013 5.931,1.014 5.863,1.066 5.761 C 1.122 5.651,1.216 5.572,1.347 5.526 C 1.465 5.484,14.519 5.482,14.643 5.524 M6.271 6.562 C 6.205 6.596,6.125 6.667,6.084 6.729 L 6.013 6.836 6.006 9.451 C 5.998 12.357,5.989 12.208,6.175 12.371 C 6.299 12.480,6.460 12.522,6.606 12.483 C 6.773 12.439,10.811 9.910,10.900 9.793 C 10.949 9.730,10.973 9.660,10.981 9.559 C 10.997 9.372,10.977 9.301,10.877 9.187 C 10.826 9.129,10.007 8.601,8.737 7.808 C 6.749 6.566,6.676 6.522,6.534 6.513 C 6.422 6.506,6.359 6.518,6.271 6.562 " stroke="none" fill="black" fill-rule="evenodd"></path></svg>