<svg width="1em" height="1em" viewBox="0 0 16 16" class="bi bi-cone" fill="currentColor" xmlns="http://www.w3.org/2000/svg"><path d="M7.702 1.170 C 7.418 1.264,7.222 1.432,7.109 1.680 C 7.071 1.764,6.417 4.330,5.585 7.660 L 4.127 13.493 3.043 13.493 C 2.335 13.494,1.923 13.504,1.854 13.523 C 1.712 13.562,1.560 13.719,1.520 13.865 C 1.448 14.132,1.601 14.407,1.861 14.479 C 2.005 14.519,14.002 14.517,14.146 14.477 C 14.288 14.438,14.440 14.281,14.480 14.135 C 14.552 13.868,14.399 13.593,14.139 13.521 C 14.078 13.504,13.620 13.494,12.957 13.493 L 11.873 13.493 10.416 7.660 C 9.334 3.328,8.938 1.784,8.878 1.662 C 8.675 1.243,8.148 1.022,7.702 1.170 " stroke="none" fill="black" fill-rule="evenodd"></path></svg>