<svg width="1em" height="1em" viewBox="0 0 16 16" class="bi bi-credit-card-fill" fill="currentColor" xmlns="http://www.w3.org/2000/svg"><path d="M1.600 2.042 C 0.952 2.181,0.407 2.629,0.157 3.226 C 0.029 3.533,0.000 3.750,0.000 4.412 L 0.000 5.013 8.000 5.013 L 16.000 5.013 16.000 4.412 C 16.000 3.750,15.971 3.533,15.843 3.226 C 15.649 2.762,15.238 2.351,14.774 2.157 C 14.375 1.990,14.797 2.000,7.981 2.002 C 2.765 2.004,1.746 2.010,1.600 2.042 M0.000 9.601 C 0.000 12.431,-0.002 12.394,0.157 12.774 C 0.350 13.235,0.765 13.650,1.226 13.843 C 1.625 14.010,1.207 14.000,8.000 14.000 C 13.536 14.000,14.211 13.996,14.394 13.958 C 15.184 13.796,15.796 13.184,15.958 12.394 C 15.995 12.215,16.000 11.855,16.000 9.601 L 16.000 7.013 8.000 7.013 L 0.000 7.013 0.000 9.601 M4.428 9.099 C 4.616 9.192,4.808 9.384,4.901 9.572 L 4.973 9.720 4.982 10.455 C 4.989 11.146,4.986 11.199,4.934 11.339 C 4.819 11.645,4.600 11.852,4.289 11.949 C 4.124 12.000,4.058 12.003,3.435 11.995 L 2.760 11.987 2.600 11.912 C 2.390 11.814,2.184 11.609,2.089 11.403 L 2.013 11.240 2.005 10.567 C 1.997 10.002,2.003 9.870,2.040 9.740 C 2.137 9.403,2.389 9.142,2.720 9.038 C 2.757 9.026,3.123 9.019,3.533 9.022 L 4.280 9.027 4.428 9.099 " stroke="none" fill="black" fill-rule="evenodd"></path></svg>