<svg width="1em" height="1em" viewBox="0 0 16 16" class="bi bi-credit-card-2-front" fill="currentColor" xmlns="http://www.w3.org/2000/svg"><path d="M1.600 2.042 C 0.952 2.181,0.407 2.629,0.157 3.226 C -0.007 3.618,0.000 3.409,-0.000 8.000 C -0.000 12.591,-0.007 12.382,0.157 12.774 C 0.350 13.235,0.765 13.650,1.226 13.843 C 1.625 14.010,1.207 14.000,8.000 14.000 C 13.536 14.000,14.211 13.996,14.394 13.958 C 15.184 13.796,15.796 13.184,15.958 12.394 C 15.995 12.212,16.000 11.714,16.000 8.000 C 16.000 4.286,15.995 3.788,15.958 3.606 C 15.796 2.816,15.184 2.204,14.394 2.042 C 14.210 2.004,13.540 2.000,7.981 2.002 C 2.765 2.004,1.746 2.010,1.600 2.042 M14.428 3.099 C 14.616 3.192,14.808 3.384,14.901 3.572 L 14.973 3.720 14.973 8.000 L 14.973 12.280 14.901 12.428 C 14.810 12.612,14.617 12.808,14.441 12.894 C 14.367 12.930,14.223 12.971,14.120 12.986 C 13.864 13.022,2.136 13.022,1.880 12.986 C 1.777 12.971,1.633 12.930,1.559 12.894 C 1.383 12.808,1.190 12.612,1.099 12.428 L 1.027 12.280 1.020 8.034 C 1.013 3.891,1.014 3.786,1.064 3.653 C 1.162 3.395,1.389 3.166,1.645 3.066 C 1.769 3.017,1.962 3.016,8.027 3.021 L 14.280 3.027 14.428 3.099 M2.280 5.055 C 2.160 5.118,2.104 5.176,2.050 5.293 C 2.007 5.387,2.001 5.474,2.001 6.000 C 2.001 6.676,2.019 6.757,2.193 6.890 C 2.343 7.004,2.501 7.017,3.609 7.008 C 4.615 7.000,4.628 6.999,4.734 6.939 C 4.870 6.860,4.963 6.724,4.990 6.565 C 5.016 6.403,5.016 5.597,4.990 5.435 C 4.964 5.279,4.870 5.139,4.743 5.068 C 4.649 5.015,4.607 5.013,3.503 5.013 C 2.519 5.014,2.349 5.019,2.280 5.055 M2.307 8.037 C 2.129 8.116,1.999 8.311,2.001 8.499 C 2.002 8.743,2.177 8.940,2.433 8.988 C 2.529 9.005,3.464 9.012,5.097 9.007 C 7.493 9.000,7.618 8.998,7.714 8.950 C 8.012 8.802,8.090 8.423,7.871 8.181 C 7.817 8.121,7.735 8.056,7.688 8.036 C 7.562 7.983,2.426 7.985,2.307 8.037 M2.307 10.037 C 1.961 10.190,1.898 10.665,2.193 10.890 C 2.330 10.994,2.529 11.020,3.107 11.008 C 3.530 11.000,3.630 10.990,3.714 10.949 C 4.012 10.804,4.090 10.423,3.871 10.181 C 3.817 10.121,3.735 10.056,3.688 10.036 C 3.567 9.985,2.422 9.987,2.307 10.037 M5.290 10.051 C 5.132 10.123,5.033 10.264,5.019 10.441 C 5.003 10.628,5.023 10.699,5.124 10.814 C 5.284 10.996,5.302 11.000,6.000 11.000 C 6.608 11.000,6.630 10.998,6.736 10.938 C 6.796 10.903,6.877 10.825,6.918 10.764 C 6.982 10.666,6.989 10.633,6.981 10.477 C 6.974 10.333,6.958 10.283,6.896 10.201 C 6.756 10.018,6.681 10.001,6.000 10.001 C 5.471 10.001,5.387 10.007,5.290 10.051 M8.307 10.037 C 7.961 10.190,7.898 10.665,8.193 10.890 C 8.330 10.994,8.529 11.020,9.107 11.008 C 9.530 11.000,9.630 10.990,9.714 10.949 C 10.012 10.804,10.090 10.423,9.871 10.181 C 9.817 10.121,9.735 10.056,9.688 10.036 C 9.567 9.985,8.422 9.987,8.307 10.037 M11.290 10.051 C 11.132 10.123,11.033 10.264,11.019 10.441 C 11.003 10.628,11.023 10.699,11.124 10.814 C 11.284 10.996,11.302 11.000,12.000 11.000 C 12.608 11.000,12.630 10.998,12.736 10.938 C 12.796 10.903,12.877 10.825,12.918 10.764 C 12.982 10.666,12.989 10.633,12.981 10.477 C 12.974 10.333,12.958 10.283,12.896 10.201 C 12.756 10.018,12.681 10.001,12.000 10.001 C 11.471 10.001,11.387 10.007,11.290 10.051 " stroke="none" fill="black" fill-rule="evenodd"></path></svg>