<svg width="1em" height="1em" viewBox="0 0 16 16" class="bi bi-distribute-horizontal" fill="currentColor" xmlns="http://www.w3.org/2000/svg"><path d="M1.266 1.061 C 1.160 1.128,1.045 1.265,1.020 1.355 C 1.009 1.395,1.000 4.397,1.000 8.027 C 1.000 14.187,1.003 14.632,1.045 14.709 C 1.103 14.815,1.261 14.954,1.348 14.976 C 1.385 14.985,1.480 14.988,1.559 14.981 C 1.736 14.967,1.877 14.868,1.949 14.710 C 1.997 14.604,1.999 14.389,1.999 8.000 C 1.999 1.611,1.997 1.396,1.949 1.290 C 1.922 1.230,1.854 1.146,1.799 1.104 C 1.667 1.003,1.393 0.981,1.266 1.061 M14.280 1.055 C 14.160 1.118,14.104 1.176,14.050 1.293 C 14.003 1.396,14.001 1.652,14.001 8.000 C 14.001 14.389,14.003 14.604,14.051 14.710 C 14.128 14.880,14.265 14.969,14.468 14.982 C 14.604 14.991,14.655 14.982,14.738 14.935 C 14.870 14.861,14.963 14.723,14.990 14.565 C 15.016 14.402,15.016 1.598,14.990 1.435 C 14.947 1.177,14.758 1.013,14.503 1.013 C 14.424 1.014,14.324 1.032,14.280 1.055 M6.767 2.028 C 6.488 2.096,6.216 2.325,6.088 2.600 L 6.013 2.760 6.013 8.000 L 6.013 13.240 6.088 13.400 C 6.186 13.610,6.391 13.816,6.597 13.911 L 6.760 13.987 8.000 13.987 L 9.240 13.987 9.413 13.904 C 9.633 13.799,9.797 13.634,9.903 13.413 L 9.987 13.240 9.987 8.000 L 9.987 2.760 9.903 2.587 C 9.797 2.366,9.633 2.201,9.413 2.096 L 9.240 2.013 8.053 2.009 C 7.401 2.006,6.822 2.015,6.767 2.028 " stroke="none" fill="black" fill-rule="evenodd"></path></svg>