<svg width="1em" height="1em" viewBox="0 0 16 16" class="bi bi-emoji-laughing" fill="currentColor" xmlns="http://www.w3.org/2000/svg"><path d="M7.293 0.030 C 4.174 0.300,1.460 2.423,0.439 5.390 C -0.989 9.546,1.195 14.077,5.331 15.539 C 8.244 16.569,11.468 15.838,13.653 13.653 C 16.473 10.834,16.787 6.378,14.390 3.190 C 12.867 1.166,10.473 -0.019,7.947 0.004 C 7.734 0.006,7.440 0.018,7.293 0.030 M8.768 1.041 C 10.349 1.213,11.838 1.934,12.973 3.079 C 13.491 3.601,13.952 4.250,14.280 4.919 C 14.518 5.405,14.657 5.783,14.783 6.284 C 14.947 6.939,14.973 7.177,14.973 8.000 C 14.973 8.823,14.947 9.061,14.783 9.716 C 14.657 10.218,14.517 10.596,14.280 11.080 C 13.369 12.933,11.704 14.284,9.716 14.783 C 9.061 14.947,8.823 14.973,8.000 14.973 C 7.177 14.973,6.938 14.947,6.287 14.783 C 4.507 14.336,2.953 13.185,2.008 11.613 C 1.484 10.744,1.149 9.755,1.041 8.768 C 1.005 8.434,1.005 7.566,1.041 7.232 C 1.237 5.430,2.177 3.705,3.581 2.572 C 4.606 1.745,5.923 1.187,7.187 1.044 C 7.491 1.010,8.462 1.008,8.768 1.041 M5.686 5.082 C 5.283 5.283,5.013 5.844,5.013 6.484 C 5.013 6.738,5.020 6.780,5.067 6.827 C 5.118 6.878,5.126 6.878,5.220 6.839 C 5.275 6.816,5.363 6.770,5.415 6.735 C 5.673 6.565,5.793 6.521,6.000 6.521 C 6.183 6.520,6.215 6.529,6.387 6.624 C 6.885 6.902,6.913 6.909,6.962 6.781 C 6.976 6.746,6.987 6.599,6.987 6.456 C 6.987 5.846,6.709 5.279,6.314 5.082 C 6.122 4.986,5.878 4.986,5.686 5.082 M9.686 5.082 C 9.283 5.283,9.013 5.844,9.013 6.484 C 9.013 6.738,9.020 6.780,9.067 6.827 C 9.118 6.878,9.126 6.878,9.220 6.839 C 9.275 6.816,9.363 6.770,9.415 6.735 C 9.673 6.565,9.793 6.521,10.000 6.521 C 10.183 6.520,10.215 6.529,10.387 6.624 C 10.885 6.902,10.913 6.909,10.962 6.781 C 10.976 6.746,10.987 6.599,10.987 6.456 C 10.987 5.846,10.709 5.279,10.314 5.082 C 10.122 4.986,9.878 4.986,9.686 5.082 M4.222 9.052 C 4.063 9.102,3.946 9.180,3.803 9.333 C 3.607 9.542,3.562 9.667,3.561 10.000 C 3.560 10.264,3.565 10.290,3.647 10.453 C 3.696 10.549,3.810 10.731,3.901 10.858 C 4.416 11.576,5.003 12.083,5.747 12.453 C 6.190 12.673,6.556 12.803,7.012 12.900 C 7.324 12.967,7.391 12.972,8.000 12.972 C 8.608 12.972,8.676 12.967,8.988 12.900 C 10.379 12.602,11.505 11.817,12.254 10.624 C 12.331 10.501,12.409 10.339,12.427 10.264 C 12.472 10.076,12.449 9.751,12.379 9.593 C 12.302 9.418,12.076 9.189,11.896 9.100 L 11.747 9.027 8.040 9.022 C 5.043 9.017,4.312 9.023,4.222 9.052 " stroke="none" fill="black" fill-rule="evenodd"></path></svg>