<svg width="1em" height="1em" viewBox="0 0 16 16" class="bi bi-exclamation-square" fill="currentColor" xmlns="http://www.w3.org/2000/svg"><path d="M1.600 0.042 C 0.952 0.181,0.407 0.629,0.157 1.226 C -0.010 1.625,0.000 1.207,0.000 8.000 C 0.000 14.793,-0.010 14.375,0.157 14.774 C 0.350 15.235,0.765 15.650,1.226 15.843 C 1.625 16.010,1.207 16.000,8.000 16.000 C 13.536 16.000,14.211 15.996,14.394 15.958 C 15.184 15.796,15.796 15.184,15.958 14.394 C 15.996 14.211,16.000 13.536,16.000 8.000 C 16.000 2.464,15.996 1.789,15.958 1.606 C 15.796 0.816,15.184 0.204,14.394 0.042 C 14.210 0.004,13.540 0.000,7.981 0.002 C 2.765 0.004,1.746 0.010,1.600 0.042 M14.428 1.099 C 14.616 1.192,14.808 1.384,14.901 1.572 L 14.973 1.720 14.980 7.946 C 14.986 13.403,14.982 14.188,14.947 14.309 C 14.867 14.586,14.586 14.864,14.296 14.954 C 14.156 14.997,13.759 15.000,8.000 15.000 C 2.241 15.000,1.844 14.997,1.704 14.954 C 1.422 14.866,1.158 14.612,1.063 14.338 C 1.018 14.207,1.015 13.880,1.014 7.994 C 1.013 1.932,1.015 1.784,1.065 1.652 C 1.162 1.395,1.389 1.166,1.645 1.066 C 1.769 1.017,1.962 1.016,8.027 1.021 L 14.280 1.027 14.428 1.099 M7.760 4.023 C 7.399 4.142,7.135 4.456,7.103 4.807 C 7.096 4.885,7.173 5.755,7.276 6.779 C 7.446 8.459,7.467 8.621,7.524 8.725 C 7.629 8.914,7.876 9.038,8.076 9.000 C 8.194 8.978,8.346 8.902,8.403 8.836 C 8.528 8.695,8.535 8.649,8.724 6.776 C 8.828 5.754,8.904 4.885,8.897 4.807 C 8.870 4.512,8.675 4.233,8.394 4.090 C 8.283 4.033,8.209 4.016,8.040 4.010 C 7.923 4.005,7.797 4.011,7.760 4.023 M7.693 10.053 C 7.273 10.194,7.013 10.555,7.013 11.000 C 7.013 11.456,7.278 11.814,7.716 11.950 C 8.165 12.090,8.653 11.889,8.874 11.474 C 9.220 10.825,8.787 10.049,8.057 10.010 C 7.902 10.002,7.815 10.012,7.693 10.053 " stroke="none" fill="black" fill-rule="evenodd"></path></svg>