<svg width="1em" height="1em" viewBox="0 0 16 16" class="bi bi-exclamation-triangle" fill="currentColor" xmlns="http://www.w3.org/2000/svg"><path d="M7.813 1.016 C 7.608 1.050,7.362 1.177,7.214 1.328 C 7.116 1.426,6.288 2.814,3.608 7.374 C 1.694 10.630,0.103 13.353,0.072 13.427 C -0.009 13.620,-0.007 14.033,0.075 14.243 C 0.206 14.575,0.482 14.841,0.809 14.953 C 0.939 14.997,1.343 15.000,7.840 15.007 C 12.386 15.012,14.810 15.006,14.958 14.988 C 15.245 14.953,15.478 14.847,15.648 14.672 C 15.797 14.519,15.927 14.284,15.974 14.083 C 16.016 13.901,15.995 13.603,15.927 13.427 C 15.871 13.282,9.039 1.641,8.889 1.435 C 8.667 1.130,8.208 0.952,7.813 1.016 M8.112 2.075 C 8.123 2.086,9.644 4.770,11.491 8.041 L 14.851 13.987 7.981 13.993 C 2.690 13.999,1.103 13.993,1.074 13.968 C 1.048 13.947,1.038 13.897,1.044 13.815 C 1.052 13.708,1.477 12.974,4.493 7.858 L 7.933 2.023 8.013 2.039 C 8.056 2.047,8.101 2.063,8.112 2.075 M7.823 5.013 C 7.453 5.090,7.152 5.412,7.106 5.780 C 7.089 5.913,7.414 9.313,7.468 9.568 C 7.588 10.140,8.412 10.140,8.532 9.568 C 8.548 9.490,8.640 8.629,8.737 7.653 C 8.927 5.735,8.927 5.733,8.798 5.483 C 8.624 5.143,8.194 4.936,7.823 5.013 M7.689 11.050 C 7.528 11.102,7.412 11.181,7.269 11.334 C 7.071 11.545,7.027 11.667,7.027 12.000 C 7.027 12.232,7.037 12.302,7.085 12.407 C 7.167 12.584,7.392 12.812,7.570 12.900 C 7.705 12.966,7.748 12.973,8.000 12.973 C 8.253 12.973,8.295 12.966,8.433 12.898 C 9.179 12.532,9.179 11.468,8.433 11.102 C 8.304 11.039,8.242 11.026,8.040 11.021 C 7.894 11.017,7.756 11.029,7.689 11.050 " stroke="none" fill="black" fill-rule="evenodd"></path></svg>