<svg width="1em" height="1em" viewBox="0 0 16 16" class="bi bi-eyeglasses" fill="currentColor" xmlns="http://www.w3.org/2000/svg"><path d="M3.430 5.055 C 2.236 5.292,1.312 6.212,1.055 7.420 L 1.039 7.493 0.753 7.493 C 0.595 7.494,0.422 7.506,0.367 7.521 C 0.167 7.577,0.001 7.793,0.001 8.000 C 0.001 8.207,0.167 8.423,0.367 8.479 C 0.422 8.494,0.595 8.506,0.753 8.507 L 1.039 8.507 1.055 8.580 C 1.314 9.795,2.248 10.719,3.447 10.946 C 3.721 10.998,4.279 10.998,4.553 10.946 C 5.704 10.728,6.614 9.869,6.909 8.725 C 6.938 8.612,6.975 8.352,6.990 8.147 C 7.029 7.629,7.120 7.421,7.404 7.203 C 7.597 7.055,7.763 7.006,8.041 7.018 C 8.334 7.031,8.509 7.105,8.702 7.298 C 8.887 7.483,8.958 7.648,8.989 7.963 C 9.042 8.503,9.071 8.680,9.148 8.917 C 9.485 9.963,10.366 10.741,11.447 10.946 C 11.721 10.998,12.279 10.998,12.553 10.946 C 13.757 10.718,14.673 9.811,14.945 8.580 L 14.961 8.507 15.247 8.507 C 15.405 8.506,15.578 8.494,15.633 8.479 C 15.833 8.423,15.999 8.207,15.999 8.000 C 15.999 7.793,15.833 7.577,15.633 7.521 C 15.578 7.506,15.405 7.494,15.247 7.493 L 14.961 7.493 14.945 7.420 C 14.673 6.188,13.757 5.282,12.553 5.054 C 12.279 5.002,11.721 5.002,11.447 5.054 C 10.644 5.206,9.933 5.682,9.488 6.367 C 9.428 6.458,9.371 6.533,9.360 6.533 C 9.350 6.533,9.320 6.510,9.294 6.481 C 9.268 6.452,9.173 6.380,9.082 6.321 C 8.430 5.897,7.570 5.897,6.918 6.321 C 6.827 6.380,6.732 6.452,6.706 6.481 C 6.641 6.553,6.627 6.548,6.557 6.433 C 6.130 5.727,5.379 5.210,4.553 5.054 C 4.290 5.004,3.684 5.004,3.430 5.055 M4.394 6.042 C 5.757 6.321,6.430 7.874,5.698 9.047 C 5.011 10.148,3.504 10.324,2.590 9.410 C 2.112 8.932,1.908 8.260,2.042 7.606 C 2.264 6.525,3.321 5.822,4.394 6.042 M12.394 6.042 C 13.757 6.321,14.430 7.874,13.698 9.047 C 13.011 10.148,11.504 10.324,10.590 9.410 C 9.699 8.519,9.841 7.054,10.887 6.342 C 11.320 6.048,11.879 5.936,12.394 6.042 " stroke="none" fill="black" fill-rule="evenodd"></path></svg>