<svg width="1em" height="1em" viewBox="0 0 16 16" class="bi bi-file-earmark-medical-fill" fill="currentColor" xmlns="http://www.w3.org/2000/svg"><path d="M3.507 1.066 C 2.743 1.268,2.185 1.863,2.039 2.630 C 1.981 2.932,1.981 13.068,2.039 13.370 C 2.116 13.775,2.287 14.096,2.587 14.401 C 2.927 14.748,3.332 14.938,3.833 14.987 C 4.178 15.020,11.822 15.020,12.167 14.987 C 12.668 14.938,13.073 14.748,13.413 14.401 C 13.626 14.185,13.751 13.996,13.858 13.733 C 14.003 13.372,14.000 13.478,14.000 9.376 C 14.000 5.204,14.009 5.440,13.839 5.173 C 13.797 5.107,12.883 4.176,11.808 3.104 C 10.093 1.394,9.835 1.147,9.707 1.091 L 9.560 1.027 6.627 1.021 C 3.842 1.016,3.684 1.018,3.507 1.066 M11.434 5.994 C 9.723 6.001,9.721 6.001,9.461 5.836 C 9.306 5.737,9.196 5.614,9.100 5.432 L 9.027 5.293 9.019 3.653 L 9.012 2.013 11.000 4.000 L 12.987 5.987 11.434 5.994 M6.239 5.066 C 6.448 5.173,6.507 5.330,6.507 5.788 L 6.507 6.129 6.833 5.944 C 7.123 5.780,7.174 5.760,7.301 5.760 C 7.458 5.760,7.522 5.785,7.636 5.890 C 7.788 6.031,7.832 6.221,7.763 6.432 C 7.720 6.561,7.618 6.647,7.286 6.835 C 7.136 6.920,7.013 6.994,7.013 7.000 C 7.013 7.006,7.136 7.080,7.286 7.165 C 7.618 7.353,7.720 7.439,7.763 7.568 C 7.847 7.825,7.748 8.081,7.515 8.202 C 7.475 8.223,7.379 8.240,7.301 8.240 C 7.174 8.240,7.123 8.220,6.833 8.056 L 6.507 7.871 6.507 8.212 C 6.507 8.560,6.484 8.677,6.394 8.807 C 6.229 9.043,5.771 9.043,5.606 8.807 C 5.516 8.677,5.493 8.560,5.493 8.212 L 5.493 7.871 5.167 8.056 C 4.877 8.220,4.826 8.240,4.699 8.240 C 4.621 8.240,4.524 8.223,4.483 8.201 C 4.381 8.149,4.244 7.989,4.225 7.900 C 4.216 7.859,4.204 7.812,4.199 7.794 C 4.180 7.732,4.260 7.490,4.322 7.424 C 4.357 7.387,4.520 7.279,4.686 7.183 C 4.851 7.087,4.987 7.004,4.987 7.000 C 4.987 6.996,4.851 6.913,4.686 6.817 C 4.520 6.721,4.357 6.613,4.322 6.576 C 4.260 6.510,4.180 6.268,4.199 6.206 C 4.204 6.188,4.216 6.141,4.225 6.100 C 4.244 6.011,4.381 5.851,4.483 5.799 C 4.524 5.777,4.621 5.760,4.699 5.760 C 4.826 5.760,4.877 5.780,5.167 5.944 L 5.493 6.129 5.493 5.788 C 5.493 5.440,5.516 5.323,5.606 5.193 C 5.726 5.021,6.031 4.960,6.239 5.066 M9.657 10.027 C 9.803 10.068,9.965 10.256,9.988 10.413 C 10.022 10.642,9.916 10.849,9.714 10.950 C 9.618 10.998,9.493 11.000,7.097 11.007 C 5.464 11.012,4.529 11.005,4.433 10.988 C 4.252 10.954,4.118 10.856,4.051 10.710 C 3.960 10.509,3.996 10.303,4.150 10.150 C 4.304 9.995,4.171 10.002,6.973 10.001 C 8.636 10.001,9.595 10.010,9.657 10.027 M9.657 12.027 C 9.803 12.068,9.965 12.256,9.988 12.413 C 10.022 12.642,9.916 12.849,9.714 12.950 C 9.618 12.998,9.493 13.000,7.097 13.007 C 5.464 13.012,4.529 13.005,4.433 12.988 C 4.252 12.954,4.118 12.856,4.051 12.710 C 3.960 12.509,3.996 12.303,4.150 12.150 C 4.304 11.995,4.171 12.002,6.973 12.001 C 8.636 12.001,9.595 12.010,9.657 12.027 " stroke="none" fill="black" fill-rule="evenodd"></path></svg>