<svg width="1em" height="1em" viewBox="0 0 16 16" class="bi bi-file-person" fill="currentColor" xmlns="http://www.w3.org/2000/svg"><path d="M3.507 1.066 C 2.874 1.234,2.386 1.663,2.142 2.267 C 1.994 2.634,2.000 2.402,2.000 8.000 C 2.000 13.623,1.994 13.374,2.148 13.739 C 2.187 13.831,2.220 13.928,2.222 13.953 C 2.223 13.979,2.233 14.000,2.243 14.000 C 2.254 14.000,2.316 14.076,2.383 14.169 C 2.717 14.638,3.232 14.928,3.833 14.987 C 4.178 15.020,11.822 15.020,12.167 14.987 C 12.768 14.928,13.283 14.638,13.617 14.169 C 13.684 14.076,13.746 14.000,13.757 14.000 C 13.767 14.000,13.777 13.979,13.778 13.953 C 13.780 13.928,13.813 13.831,13.852 13.739 C 14.006 13.374,14.000 13.623,14.000 8.000 C 14.000 2.402,14.006 2.634,13.858 2.267 C 13.751 2.004,13.626 1.815,13.413 1.599 C 13.186 1.367,12.939 1.211,12.627 1.102 L 12.413 1.027 8.053 1.021 C 3.877 1.016,3.685 1.018,3.507 1.066 M12.297 2.053 C 12.600 2.149,12.821 2.359,12.932 2.657 C 12.986 2.801,12.987 2.841,12.987 7.763 L 12.987 12.725 12.794 12.547 C 11.847 11.670,10.599 11.185,8.912 11.038 C 8.424 10.996,7.105 11.019,6.667 11.078 C 5.179 11.279,4.064 11.752,3.206 12.546 L 3.013 12.726 3.020 7.716 L 3.027 2.707 3.099 2.570 C 3.239 2.304,3.434 2.137,3.704 2.051 C 3.845 2.006,4.092 2.003,7.991 2.001 C 12.059 2.000,12.131 2.001,12.297 2.053 M7.520 4.041 C 6.371 4.223,5.418 5.084,5.101 6.227 C 5.032 6.475,5.027 6.528,5.027 7.000 C 5.027 7.472,5.032 7.525,5.101 7.773 C 5.420 8.927,6.379 9.784,7.547 9.961 C 9.061 10.191,10.484 9.261,10.900 7.770 C 10.968 7.525,10.973 7.471,10.973 7.000 C 10.973 6.529,10.968 6.475,10.900 6.230 C 10.482 4.732,9.044 3.800,7.520 4.041 " stroke="none" fill="black" fill-rule="evenodd"></path></svg>