<svg width="1em" height="1em" viewBox="0 0 16 16" class="bi bi-file-earmark-text-fill" fill="currentColor" xmlns="http://www.w3.org/2000/svg"><path d="M3.507 1.066 C 2.743 1.268,2.185 1.863,2.039 2.630 C 1.981 2.932,1.981 13.068,2.039 13.370 C 2.116 13.775,2.287 14.096,2.587 14.401 C 2.927 14.748,3.332 14.938,3.833 14.987 C 4.178 15.020,11.822 15.020,12.167 14.987 C 12.668 14.938,13.073 14.748,13.413 14.401 C 13.626 14.185,13.751 13.996,13.858 13.733 C 14.003 13.372,14.000 13.478,14.000 9.376 C 14.000 5.204,14.009 5.440,13.839 5.173 C 13.797 5.107,12.883 4.176,11.808 3.104 C 10.093 1.394,9.835 1.147,9.707 1.091 L 9.560 1.027 6.627 1.021 C 3.842 1.016,3.684 1.018,3.507 1.066 M11.434 5.994 C 9.723 6.001,9.721 6.001,9.461 5.836 C 9.306 5.737,9.196 5.614,9.100 5.432 L 9.027 5.293 9.019 3.653 L 9.012 2.013 11.000 4.000 L 12.987 5.987 11.434 5.994 M11.657 8.027 C 11.803 8.068,11.965 8.256,11.988 8.413 C 12.022 8.642,11.916 8.849,11.714 8.950 C 11.617 8.998,11.470 9.000,8.096 9.007 C 5.799 9.012,4.527 9.005,4.432 8.987 C 4.015 8.910,3.857 8.442,4.150 8.150 C 4.306 7.994,4.085 8.002,7.973 8.001 C 10.310 8.001,11.594 8.010,11.657 8.027 M11.657 10.027 C 11.803 10.068,11.965 10.256,11.988 10.413 C 12.022 10.642,11.916 10.849,11.714 10.950 C 11.617 10.998,11.470 11.000,8.096 11.007 C 5.799 11.012,4.527 11.005,4.432 10.987 C 4.015 10.910,3.857 10.442,4.150 10.150 C 4.306 9.994,4.085 10.002,7.973 10.001 C 10.310 10.001,11.594 10.010,11.657 10.027 M8.710 12.051 C 8.868 12.123,8.967 12.264,8.981 12.441 C 8.997 12.628,8.977 12.699,8.876 12.814 C 8.702 13.012,8.856 12.999,6.605 13.008 C 5.299 13.013,4.530 13.006,4.434 12.988 C 4.252 12.954,4.118 12.857,4.051 12.710 C 3.960 12.509,3.996 12.303,4.150 12.150 C 4.303 11.996,4.211 12.002,6.493 12.002 C 8.494 12.001,8.605 12.004,8.710 12.051 " stroke="none" fill="black" fill-rule="evenodd"></path></svg>