<svg width="1em" height="1em" viewBox="0 0 16 16" class="bi bi-file-binary-fill" fill="currentColor" xmlns="http://www.w3.org/2000/svg"><path d="M3.507 1.066 C 2.743 1.269,2.185 1.863,2.039 2.630 C 1.981 2.932,1.981 13.068,2.039 13.370 C 2.116 13.775,2.287 14.096,2.587 14.401 C 2.927 14.748,3.332 14.938,3.833 14.987 C 4.178 15.020,11.822 15.020,12.167 14.987 C 12.668 14.938,13.073 14.748,13.413 14.401 C 13.713 14.096,13.884 13.775,13.961 13.370 C 14.019 13.068,14.019 2.932,13.961 2.630 C 13.884 2.225,13.713 1.904,13.413 1.599 C 13.186 1.367,12.939 1.211,12.627 1.102 L 12.413 1.027 8.053 1.021 C 3.877 1.016,3.685 1.018,3.507 1.066 M5.910 8.730 C 6.510 8.890,6.896 9.443,7.014 10.312 C 7.062 10.664,7.034 11.460,6.963 11.766 C 6.861 12.206,6.647 12.599,6.403 12.795 C 6.117 13.024,5.697 13.130,5.306 13.073 C 4.422 12.944,3.948 12.069,4.010 10.680 C 4.058 9.590,4.443 8.919,5.126 8.735 C 5.307 8.686,5.734 8.684,5.910 8.730 M9.733 10.587 L 9.733 12.400 10.293 12.400 L 10.853 12.400 10.853 12.707 L 10.853 13.013 9.360 13.013 L 7.867 13.013 7.867 12.707 L 7.867 12.400 8.453 12.400 L 9.040 12.400 9.040 10.947 C 9.040 10.147,9.030 9.493,9.018 9.493 C 9.005 9.493,8.741 9.661,8.430 9.867 C 8.118 10.072,7.858 10.240,7.851 10.240 C 7.844 10.240,7.842 10.087,7.846 9.900 L 7.853 9.560 8.440 9.169 L 9.027 8.778 9.380 8.775 L 9.733 8.773 9.733 10.587 M5.230 9.350 C 4.997 9.466,4.843 9.727,4.757 10.147 C 4.715 10.357,4.674 11.120,4.706 11.120 C 4.717 11.120,5.072 10.866,5.494 10.556 L 6.261 9.993 6.213 9.854 C 6.149 9.668,6.052 9.518,5.929 9.416 C 5.739 9.260,5.463 9.234,5.230 9.350 M5.567 11.208 C 4.709 11.840,4.767 11.768,4.891 12.041 C 5.049 12.389,5.333 12.549,5.667 12.480 C 5.954 12.420,6.177 12.130,6.281 11.680 C 6.321 11.504,6.374 10.638,6.344 10.641 C 6.338 10.642,5.988 10.897,5.567 11.208 " stroke="none" fill="black" fill-rule="evenodd"></path></svg>