<svg width="1em" height="1em" viewBox="0 0 16 16" class="bi bi-file-plus-fill" fill="currentColor" xmlns="http://www.w3.org/2000/svg"><path d="M3.507 1.066 C 2.743 1.269,2.185 1.863,2.039 2.630 C 1.981 2.932,1.981 13.068,2.039 13.370 C 2.116 13.775,2.287 14.096,2.587 14.401 C 2.927 14.748,3.332 14.938,3.833 14.987 C 4.178 15.020,11.822 15.020,12.167 14.987 C 12.668 14.938,13.073 14.748,13.413 14.401 C 13.713 14.096,13.884 13.775,13.961 13.370 C 14.019 13.068,14.019 2.932,13.961 2.630 C 13.884 2.225,13.713 1.904,13.413 1.599 C 13.186 1.367,12.939 1.211,12.627 1.102 L 12.413 1.027 8.053 1.021 C 3.877 1.016,3.685 1.018,3.507 1.066 M8.146 5.523 C 8.282 5.561,8.439 5.718,8.477 5.854 C 8.495 5.920,8.506 6.250,8.507 6.727 L 8.507 7.493 9.273 7.493 C 9.718 7.494,10.082 7.505,10.139 7.521 C 10.399 7.593,10.552 7.868,10.480 8.135 C 10.440 8.281,10.288 8.438,10.146 8.477 C 10.080 8.495,9.750 8.506,9.273 8.507 L 8.507 8.507 8.507 9.273 C 8.506 9.718,8.495 10.082,8.479 10.139 C 8.407 10.399,8.132 10.552,7.865 10.480 C 7.719 10.440,7.562 10.288,7.523 10.146 C 7.505 10.080,7.494 9.750,7.493 9.273 L 7.493 8.507 6.727 8.507 C 6.250 8.506,5.920 8.495,5.854 8.477 C 5.712 8.438,5.560 8.281,5.520 8.135 C 5.448 7.868,5.601 7.593,5.861 7.521 C 5.918 7.505,6.282 7.494,6.727 7.493 L 7.493 7.493 7.493 6.727 C 7.494 6.266,7.505 5.919,7.522 5.857 C 7.559 5.723,7.693 5.581,7.827 5.533 C 7.958 5.487,8.010 5.485,8.146 5.523 " stroke="none" fill="black" fill-rule="evenodd"></path></svg>