<svg width="1em" height="1em" viewBox="0 0 16 16" class="bi bi-file-medical-fill" fill="currentColor" xmlns="http://www.w3.org/2000/svg"><path d="M3.507 1.066 C 2.743 1.269,2.185 1.863,2.039 2.630 C 1.981 2.932,1.981 13.068,2.039 13.370 C 2.116 13.775,2.287 14.096,2.587 14.401 C 2.927 14.748,3.332 14.938,3.833 14.987 C 4.178 15.020,11.822 15.020,12.167 14.987 C 12.668 14.938,13.073 14.748,13.413 14.401 C 13.713 14.096,13.884 13.775,13.961 13.370 C 14.019 13.068,14.019 2.932,13.961 2.630 C 13.884 2.225,13.713 1.904,13.413 1.599 C 13.186 1.367,12.939 1.211,12.627 1.102 L 12.413 1.027 8.053 1.021 C 3.877 1.016,3.685 1.018,3.507 1.066 M8.201 4.050 C 8.333 4.110,8.442 4.235,8.479 4.367 C 8.494 4.422,8.506 4.614,8.507 4.793 C 8.507 4.973,8.512 5.120,8.518 5.120 C 8.524 5.120,8.623 5.064,8.738 4.996 C 9.176 4.736,9.303 4.704,9.510 4.798 C 9.708 4.888,9.834 5.136,9.787 5.345 C 9.746 5.528,9.667 5.610,9.354 5.795 C 9.189 5.893,9.041 5.979,9.027 5.987 C 9.009 5.996,9.009 6.004,9.027 6.013 C 9.041 6.021,9.189 6.107,9.354 6.205 C 9.667 6.390,9.746 6.472,9.787 6.655 C 9.834 6.864,9.708 7.112,9.510 7.202 C 9.303 7.296,9.176 7.264,8.738 7.004 C 8.623 6.936,8.524 6.880,8.518 6.880 C 8.512 6.880,8.507 7.027,8.507 7.207 C 8.506 7.386,8.494 7.578,8.479 7.633 C 8.423 7.833,8.207 7.999,8.000 7.999 C 7.793 7.999,7.577 7.833,7.521 7.633 C 7.506 7.578,7.494 7.386,7.493 7.207 C 7.493 7.027,7.488 6.880,7.482 6.880 C 7.476 6.880,7.377 6.936,7.262 7.004 C 6.824 7.264,6.697 7.296,6.490 7.202 C 6.292 7.112,6.166 6.864,6.213 6.655 C 6.260 6.445,6.339 6.376,6.873 6.077 C 6.935 6.042,6.986 6.007,6.986 6.000 C 6.986 5.993,6.935 5.958,6.873 5.923 C 6.339 5.624,6.260 5.555,6.213 5.345 C 6.166 5.136,6.292 4.888,6.490 4.798 C 6.697 4.704,6.824 4.736,7.262 4.996 C 7.377 5.064,7.476 5.120,7.482 5.120 C 7.488 5.120,7.493 4.973,7.493 4.793 C 7.494 4.423,7.518 4.305,7.620 4.184 C 7.764 4.013,8.000 3.959,8.201 4.050 M10.717 9.052 C 10.815 9.102,10.955 9.263,10.976 9.348 C 10.985 9.385,10.988 9.480,10.981 9.559 C 10.967 9.736,10.868 9.877,10.710 9.949 C 10.605 9.997,10.482 9.999,8.000 9.999 C 5.518 9.999,5.395 9.997,5.290 9.949 C 5.132 9.877,5.033 9.736,5.019 9.559 C 5.012 9.480,5.014 9.386,5.023 9.350 C 5.045 9.265,5.162 9.126,5.266 9.063 C 5.343 9.016,5.462 9.014,7.995 9.013 C 10.255 9.013,10.654 9.019,10.717 9.052 M10.717 11.052 C 10.815 11.102,10.955 11.263,10.976 11.348 C 10.985 11.385,10.988 11.480,10.981 11.559 C 10.967 11.736,10.868 11.877,10.710 11.949 C 10.605 11.997,10.482 11.999,8.000 11.999 C 5.518 11.999,5.395 11.997,5.290 11.949 C 5.132 11.877,5.033 11.736,5.019 11.559 C 5.012 11.480,5.014 11.386,5.023 11.350 C 5.045 11.265,5.162 11.126,5.266 11.063 C 5.343 11.016,5.462 11.014,7.995 11.013 C 10.255 11.013,10.654 11.019,10.717 11.052 " stroke="none" fill="black" fill-rule="evenodd"></path></svg>