<svg width="1em" height="1em" viewBox="0 0 16 16" class="bi bi-file-minus-fill" fill="currentColor" xmlns="http://www.w3.org/2000/svg"><path d="M3.507 1.066 C 2.743 1.269,2.185 1.863,2.039 2.630 C 1.981 2.932,1.981 13.068,2.039 13.370 C 2.116 13.775,2.287 14.096,2.587 14.401 C 2.927 14.748,3.332 14.938,3.833 14.987 C 4.178 15.020,11.822 15.020,12.167 14.987 C 12.668 14.938,13.073 14.748,13.413 14.401 C 13.713 14.096,13.884 13.775,13.961 13.370 C 14.019 13.068,14.019 2.932,13.961 2.630 C 13.884 2.225,13.713 1.904,13.413 1.599 C 13.186 1.367,12.939 1.211,12.627 1.102 L 12.413 1.027 8.053 1.021 C 3.877 1.016,3.685 1.018,3.507 1.066 M10.139 7.521 C 10.399 7.593,10.552 7.868,10.480 8.135 C 10.440 8.281,10.288 8.438,10.146 8.477 C 10.073 8.497,9.407 8.506,8.000 8.506 C 6.593 8.506,5.927 8.497,5.854 8.477 C 5.495 8.377,5.385 7.890,5.662 7.631 C 5.808 7.494,5.784 7.496,7.987 7.495 C 9.320 7.494,10.075 7.503,10.139 7.521 " stroke="none" fill="black" fill-rule="evenodd"></path></svg>