<svg width="1em" height="1em" viewBox="0 0 16 16" class="bi bi-file-earmark-medical" fill="currentColor" xmlns="http://www.w3.org/2000/svg"><path d="M3.507 1.066 C 2.744 1.268,2.185 1.863,2.039 2.630 C 1.981 2.932,1.981 13.068,2.039 13.370 C 2.116 13.775,2.287 14.096,2.587 14.401 C 2.927 14.748,3.332 14.938,3.833 14.987 C 4.178 15.020,11.822 15.020,12.167 14.987 C 12.668 14.938,13.073 14.748,13.413 14.401 C 13.626 14.185,13.751 13.996,13.858 13.733 C 14.003 13.373,14.000 13.461,14.000 9.578 L 14.000 5.987 11.513 3.500 L 9.027 1.013 6.360 1.015 C 3.851 1.016,3.682 1.019,3.507 1.066 M8.994 3.367 C 9.004 4.561,9.011 4.754,9.052 4.893 C 9.206 5.427,9.653 5.849,10.184 5.962 C 10.321 5.991,10.650 5.999,11.673 6.000 L 12.987 6.000 12.987 9.599 C 12.987 13.152,12.986 13.200,12.932 13.343 C 12.821 13.641,12.600 13.851,12.297 13.947 C 12.131 13.999,12.057 14.000,8.002 14.000 C 3.454 14.000,3.736 14.010,3.461 13.835 C 3.306 13.737,3.196 13.614,3.100 13.432 L 3.027 13.293 3.027 8.000 L 3.027 2.707 3.099 2.570 C 3.239 2.304,3.434 2.137,3.704 2.051 C 3.843 2.006,4.030 2.003,6.418 2.001 L 8.982 2.000 8.994 3.367 M6.778 4.056 C 6.712 4.089,6.632 4.160,6.591 4.222 C 6.523 4.324,6.520 4.348,6.511 4.725 C 6.507 4.942,6.497 5.120,6.490 5.120 C 6.484 5.120,6.344 5.043,6.179 4.949 C 6.015 4.855,5.837 4.770,5.784 4.760 C 5.576 4.722,5.342 4.849,5.250 5.052 C 5.194 5.176,5.189 5.253,5.228 5.393 C 5.271 5.547,5.363 5.633,5.679 5.815 C 5.841 5.908,5.973 5.991,5.973 5.999 C 5.973 6.008,5.855 6.083,5.710 6.167 C 5.368 6.366,5.310 6.414,5.251 6.545 C 5.125 6.820,5.266 7.134,5.556 7.226 C 5.716 7.278,5.852 7.239,6.179 7.052 C 6.343 6.957,6.485 6.880,6.492 6.880 C 6.500 6.880,6.507 7.044,6.507 7.245 C 6.507 7.562,6.514 7.625,6.563 7.727 C 6.647 7.900,6.793 7.987,7.000 7.987 C 7.207 7.987,7.353 7.900,7.437 7.727 C 7.486 7.625,7.493 7.562,7.493 7.245 C 7.493 7.044,7.500 6.880,7.508 6.880 C 7.515 6.880,7.657 6.957,7.821 7.052 C 8.148 7.239,8.284 7.278,8.444 7.226 C 8.725 7.137,8.870 6.833,8.759 6.566 C 8.697 6.418,8.629 6.359,8.314 6.180 C 8.156 6.089,8.027 6.009,8.027 6.000 C 8.027 5.991,8.156 5.911,8.314 5.820 C 8.629 5.641,8.697 5.582,8.759 5.434 C 8.870 5.167,8.725 4.863,8.444 4.773 C 8.280 4.721,8.158 4.755,7.828 4.944 C 7.660 5.041,7.515 5.120,7.508 5.120 C 7.500 5.120,7.493 4.956,7.493 4.755 C 7.493 4.438,7.486 4.375,7.437 4.273 C 7.321 4.035,7.017 3.934,6.778 4.056 M5.266 9.063 C 5.162 9.126,5.045 9.265,5.023 9.350 C 5.014 9.386,5.012 9.480,5.019 9.559 C 5.033 9.736,5.132 9.877,5.290 9.949 C 5.395 9.997,5.518 9.999,8.000 9.999 C 10.482 9.999,10.605 9.997,10.710 9.949 C 10.884 9.870,10.970 9.734,10.981 9.523 C 10.989 9.367,10.982 9.334,10.918 9.236 C 10.877 9.175,10.800 9.100,10.745 9.069 C 10.646 9.014,10.636 9.013,7.996 9.013 C 5.463 9.014,5.343 9.016,5.266 9.063 M5.266 11.063 C 5.162 11.126,5.045 11.265,5.023 11.350 C 5.014 11.386,5.012 11.480,5.019 11.559 C 5.033 11.736,5.132 11.877,5.290 11.949 C 5.395 11.997,5.518 11.999,8.000 11.999 C 10.482 11.999,10.605 11.997,10.710 11.949 C 10.884 11.870,10.970 11.734,10.981 11.523 C 10.989 11.367,10.982 11.334,10.918 11.236 C 10.877 11.175,10.800 11.100,10.745 11.069 C 10.646 11.014,10.636 11.013,7.996 11.013 C 5.463 11.014,5.343 11.016,5.266 11.063 " stroke="none" fill="black" fill-rule="evenodd"></path></svg>