<svg width="1em" height="1em" viewBox="0 0 16 16" class="bi bi-filter-circle-fill" fill="currentColor" xmlns="http://www.w3.org/2000/svg"><path d="M7.293 0.030 C 4.174 0.300,1.460 2.423,0.439 5.390 C -0.989 9.546,1.195 14.077,5.331 15.539 C 8.244 16.569,11.468 15.838,13.653 13.653 C 16.473 10.834,16.787 6.378,14.390 3.190 C 12.867 1.166,10.473 -0.019,7.947 0.004 C 7.734 0.006,7.440 0.018,7.293 0.030 M12.717 5.052 C 12.815 5.102,12.955 5.263,12.976 5.348 C 12.985 5.385,12.988 5.480,12.981 5.559 C 12.967 5.736,12.868 5.877,12.710 5.949 C 12.604 5.997,12.436 5.999,8.000 5.999 C 3.564 5.999,3.396 5.997,3.290 5.949 C 3.132 5.877,3.033 5.736,3.019 5.559 C 3.012 5.480,3.014 5.386,3.023 5.350 C 3.045 5.265,3.162 5.126,3.266 5.063 C 3.344 5.015,3.514 5.014,7.995 5.013 C 12.001 5.013,12.653 5.019,12.717 5.052 M10.710 8.051 C 10.868 8.123,10.967 8.264,10.981 8.441 C 10.997 8.628,10.977 8.699,10.876 8.814 C 10.700 9.015,10.929 9.000,8.000 9.000 C 5.071 9.000,5.300 9.015,5.124 8.814 C 5.023 8.699,5.003 8.628,5.019 8.441 C 5.033 8.264,5.132 8.123,5.290 8.051 C 5.395 8.003,5.518 8.001,8.000 8.001 C 10.482 8.001,10.605 8.003,10.710 8.051 M8.717 11.052 C 8.815 11.102,8.955 11.263,8.976 11.348 C 9.011 11.487,8.973 11.698,8.894 11.801 C 8.756 11.982,8.680 11.999,8.000 11.999 C 7.471 11.999,7.387 11.993,7.290 11.949 C 7.132 11.877,7.033 11.736,7.019 11.559 C 7.004 11.377,7.022 11.305,7.112 11.198 C 7.266 11.016,7.277 11.014,7.995 11.013 C 8.508 11.013,8.658 11.021,8.717 11.052 " stroke="none" fill="black" fill-rule="evenodd"></path></svg>