<svg width="1em" height="1em" viewBox="0 0 16 16" class="bi bi-filter" fill="currentColor" xmlns="http://www.w3.org/2000/svg"><path d="M2.307 4.037 C 2.129 4.116,1.999 4.311,2.001 4.499 C 2.002 4.742,2.177 4.940,2.431 4.987 C 2.526 5.005,4.473 5.012,8.095 5.007 C 13.424 5.000,13.617 4.998,13.714 4.950 C 14.012 4.802,14.090 4.423,13.871 4.181 C 13.817 4.121,13.735 4.056,13.688 4.036 C 13.561 3.983,2.427 3.984,2.307 4.037 M4.280 7.055 C 4.160 7.118,4.104 7.176,4.050 7.293 C 3.995 7.414,3.986 7.560,4.028 7.672 C 4.070 7.784,4.239 7.944,4.346 7.974 C 4.477 8.010,11.526 8.009,11.657 7.973 C 11.803 7.932,11.965 7.744,11.988 7.587 C 12.022 7.362,11.915 7.148,11.723 7.057 C 11.640 7.017,11.292 7.013,7.996 7.013 C 4.751 7.014,4.351 7.018,4.280 7.055 M6.307 10.037 C 6.129 10.116,5.999 10.311,6.001 10.499 C 6.002 10.744,6.176 10.940,6.435 10.988 C 6.531 11.006,7.131 11.013,8.099 11.008 C 9.515 11.001,9.620 10.997,9.714 10.950 C 10.012 10.802,10.090 10.423,9.871 10.181 C 9.702 9.993,9.779 10.000,7.994 10.001 C 6.721 10.002,6.370 10.009,6.307 10.037 " stroke="none" fill="black" fill-rule="evenodd"></path></svg>