<svg width="1em" height="1em" viewBox="0 0 16 16" class="bi bi-flag-fill" fill="currentColor" xmlns="http://www.w3.org/2000/svg"><path d="M3.266 1.061 C 3.160 1.128,3.045 1.265,3.020 1.355 C 3.009 1.395,3.000 4.397,3.000 8.027 C 3.000 14.187,3.003 14.632,3.045 14.709 C 3.103 14.815,3.261 14.954,3.348 14.976 C 3.385 14.985,3.480 14.988,3.559 14.981 C 3.736 14.967,3.877 14.868,3.949 14.710 C 3.997 14.605,3.999 14.483,3.999 12.050 L 4.000 9.500 4.096 9.485 C 4.152 9.476,4.341 9.372,4.556 9.232 C 5.480 8.631,5.755 8.524,6.387 8.522 L 6.760 8.520 6.960 8.616 C 7.070 8.669,7.310 8.811,7.493 8.931 C 8.113 9.339,8.523 9.493,8.990 9.493 C 9.446 9.494,9.768 9.399,10.653 9.007 C 11.437 8.660,11.967 8.507,12.386 8.507 C 12.666 8.507,12.839 8.421,12.941 8.231 L 13.000 8.120 13.000 5.000 L 13.000 1.880 12.941 1.769 C 12.814 1.531,12.640 1.474,12.185 1.517 C 11.567 1.576,11.147 1.700,10.271 2.084 C 9.365 2.481,9.095 2.551,8.779 2.470 C 8.569 2.416,8.462 2.362,8.062 2.103 C 7.279 1.597,6.876 1.463,6.267 1.506 C 5.556 1.557,5.024 1.747,4.290 2.213 L 4.000 2.397 3.999 1.899 C 3.999 1.330,3.976 1.239,3.799 1.104 C 3.667 1.003,3.393 0.981,3.266 1.061 " stroke="none" fill="black" fill-rule="evenodd"></path></svg>