<svg width="1em" height="1em" viewBox="0 0 16 16" class="bi bi-flower3" fill="currentColor" xmlns="http://www.w3.org/2000/svg"><path d="M7.600 2.042 C 6.952 2.181,6.407 2.629,6.157 3.226 C 5.960 3.696,5.956 4.095,6.142 4.644 L 6.260 4.990 6.177 4.888 C 5.998 4.666,5.712 4.387,5.565 4.291 C 5.240 4.079,4.727 3.968,4.318 4.023 C 3.618 4.116,3.074 4.501,2.761 5.125 C 2.598 5.450,2.551 5.684,2.566 6.089 C 2.588 6.649,2.749 7.015,3.147 7.416 C 3.320 7.590,3.423 7.668,3.574 7.742 C 3.781 7.844,4.098 7.936,4.340 7.964 C 4.417 7.973,4.480 7.989,4.480 8.000 C 4.480 8.011,4.411 8.027,4.328 8.037 C 4.075 8.067,3.757 8.159,3.573 8.255 C 2.942 8.587,2.533 9.267,2.533 9.986 C 2.533 10.563,2.720 11.020,3.119 11.416 C 3.539 11.832,4.017 12.017,4.613 11.993 C 4.961 11.979,5.268 11.892,5.535 11.730 C 5.679 11.643,6.008 11.324,6.179 11.107 L 6.263 11.000 6.143 11.351 C 5.996 11.787,5.970 12.037,6.038 12.374 C 6.260 13.473,7.311 14.180,8.394 13.958 C 9.193 13.794,9.799 13.182,9.962 12.374 C 10.030 12.038,10.004 11.786,9.858 11.356 L 9.740 11.010 9.822 11.112 C 10.002 11.334,10.324 11.645,10.465 11.730 C 10.874 11.978,11.450 12.064,11.929 11.950 C 12.574 11.795,13.092 11.343,13.340 10.719 C 13.431 10.492,13.467 10.283,13.467 9.986 C 13.467 9.253,13.043 8.565,12.390 8.235 C 12.236 8.157,11.739 8.027,11.593 8.027 C 11.466 8.026,11.514 7.981,11.660 7.964 C 11.902 7.936,12.219 7.844,12.427 7.742 C 12.579 7.667,12.680 7.590,12.853 7.415 C 13.252 7.013,13.412 6.648,13.434 6.089 C 13.449 5.684,13.402 5.450,13.239 5.125 C 12.926 4.501,12.382 4.116,11.682 4.023 C 11.273 3.968,10.760 4.079,10.435 4.291 C 10.286 4.388,9.954 4.713,9.808 4.904 C 9.744 4.988,9.747 4.970,9.857 4.646 C 10.004 4.214,10.030 3.963,9.962 3.626 C 9.740 2.528,8.671 1.811,7.600 2.042 M8.428 3.100 C 8.509 3.139,8.632 3.229,8.702 3.298 C 8.978 3.574,9.052 3.915,8.922 4.307 C 8.793 4.694,8.069 6.107,8.000 6.107 C 7.941 6.107,7.318 4.920,7.132 4.453 C 6.957 4.013,6.978 3.697,7.203 3.404 C 7.314 3.259,7.482 3.130,7.645 3.064 C 7.842 2.985,8.230 3.003,8.428 3.100 M4.889 5.067 C 5.119 5.153,5.401 5.476,5.849 6.165 C 6.052 6.477,6.373 7.023,6.373 7.056 C 6.373 7.083,5.043 7.048,4.747 7.013 C 4.607 6.997,4.388 6.959,4.259 6.929 C 4.044 6.879,4.012 6.863,3.871 6.733 C 3.780 6.649,3.685 6.527,3.639 6.435 C 3.566 6.293,3.560 6.257,3.560 6.000 C 3.560 5.745,3.567 5.707,3.635 5.573 C 3.762 5.325,3.987 5.125,4.222 5.052 C 4.398 4.997,4.720 5.004,4.889 5.067 M11.873 5.087 C 12.048 5.165,12.269 5.382,12.362 5.566 C 12.433 5.707,12.440 5.743,12.440 6.000 C 12.440 6.257,12.434 6.293,12.361 6.435 C 12.315 6.527,12.220 6.649,12.129 6.733 C 11.988 6.863,11.956 6.879,11.741 6.929 C 11.612 6.959,11.393 6.997,11.253 7.013 C 10.942 7.050,9.627 7.082,9.627 7.053 C 9.627 7.010,10.162 6.136,10.376 5.831 C 10.681 5.394,10.925 5.138,11.101 5.068 C 11.291 4.993,11.687 5.003,11.873 5.087 M8.428 7.100 C 8.616 7.192,8.808 7.384,8.901 7.572 C 8.966 7.705,8.973 7.749,8.973 8.000 C 8.973 8.251,8.966 8.295,8.901 8.428 C 8.808 8.616,8.616 8.808,8.428 8.901 C 8.295 8.966,8.251 8.973,8.000 8.973 C 7.749 8.973,7.705 8.966,7.572 8.901 C 7.384 8.809,7.192 8.616,7.100 8.429 C 7.001 8.226,6.983 7.866,7.062 7.659 C 7.162 7.396,7.385 7.169,7.645 7.064 C 7.842 6.985,8.230 7.003,8.428 7.100 M6.373 8.951 C 6.373 8.990,5.828 9.878,5.623 10.173 C 5.500 10.348,5.310 10.585,5.200 10.698 C 5.026 10.876,4.979 10.909,4.844 10.948 C 4.361 11.085,3.863 10.870,3.647 10.430 C 3.567 10.269,3.560 10.233,3.560 10.000 C 3.560 9.766,3.567 9.731,3.647 9.568 C 3.750 9.360,3.967 9.146,4.123 9.100 C 4.289 9.050,4.683 8.989,5.000 8.964 C 5.352 8.936,6.373 8.926,6.373 8.951 M10.935 8.961 C 11.311 8.990,11.702 9.047,11.877 9.100 C 12.033 9.146,12.250 9.360,12.353 9.568 C 12.433 9.731,12.440 9.767,12.440 9.999 C 12.440 10.219,12.430 10.274,12.369 10.405 C 12.208 10.749,11.888 10.966,11.517 10.983 C 11.380 10.989,11.260 10.977,11.156 10.948 C 11.021 10.909,10.974 10.876,10.800 10.698 C 10.690 10.585,10.500 10.348,10.377 10.173 C 10.172 9.878,9.627 8.990,9.627 8.951 C 9.627 8.923,10.539 8.930,10.935 8.961 M8.211 10.222 C 8.464 10.665,8.834 11.431,8.922 11.693 C 9.052 12.085,8.978 12.426,8.702 12.702 C 8.632 12.771,8.509 12.861,8.428 12.901 C 8.295 12.966,8.251 12.973,8.000 12.973 C 7.749 12.973,7.705 12.966,7.572 12.901 C 7.384 12.808,7.192 12.616,7.099 12.428 C 7.036 12.300,7.027 12.248,7.027 12.040 C 7.028 11.827,7.039 11.772,7.126 11.554 C 7.307 11.101,7.942 9.893,8.000 9.893 C 8.013 9.893,8.107 10.041,8.211 10.222 " stroke="none" fill="black" fill-rule="evenodd"></path></svg>