<svg width="1em" height="1em" viewBox="0 0 16 16" class="bi bi-gear-wide" fill="currentColor" xmlns="http://www.w3.org/2000/svg"><path d="M7.753 0.027 C 7.503 0.090,7.260 0.285,7.152 0.509 C 7.120 0.576,7.068 0.732,7.037 0.855 C 6.932 1.269,6.793 1.471,6.502 1.629 C 6.342 1.715,6.320 1.720,6.067 1.720 C 5.826 1.720,5.785 1.713,5.653 1.645 C 5.568 1.601,5.405 1.469,5.264 1.332 C 4.949 1.023,4.796 0.948,4.493 0.950 C 4.106 0.952,3.782 1.149,3.612 1.484 C 3.542 1.623,3.534 1.667,3.534 1.880 C 3.535 2.059,3.551 2.171,3.599 2.320 C 3.736 2.749,3.665 3.109,3.387 3.387 C 3.109 3.665,2.744 3.738,2.320 3.600 C 2.169 3.551,2.061 3.535,1.880 3.535 C 1.584 3.534,1.445 3.593,1.224 3.812 C 1.028 4.007,0.951 4.197,0.950 4.493 C 0.948 4.796,1.023 4.949,1.332 5.264 C 1.469 5.405,1.601 5.568,1.645 5.653 C 1.712 5.784,1.720 5.828,1.720 6.054 C 1.720 6.287,1.713 6.322,1.632 6.486 C 1.536 6.681,1.376 6.841,1.192 6.928 C 1.131 6.957,0.960 7.012,0.814 7.051 C 0.411 7.158,0.214 7.310,0.074 7.618 C -0.004 7.789,-0.010 8.169,0.061 8.344 C 0.200 8.684,0.397 8.837,0.850 8.960 C 1.300 9.081,1.478 9.208,1.646 9.526 C 1.713 9.653,1.720 9.693,1.720 9.933 C 1.719 10.279,1.671 10.380,1.339 10.726 C 1.020 11.060,0.948 11.205,0.950 11.507 C 0.951 11.803,1.028 11.993,1.224 12.188 C 1.445 12.407,1.584 12.466,1.880 12.465 C 2.061 12.465,2.169 12.449,2.320 12.400 C 2.742 12.263,3.114 12.337,3.389 12.611 C 3.662 12.884,3.736 13.253,3.602 13.680 C 3.516 13.955,3.501 14.196,3.559 14.380 C 3.690 14.796,4.160 15.105,4.585 15.055 C 4.828 15.027,4.996 14.931,5.264 14.668 C 5.405 14.531,5.568 14.399,5.653 14.355 C 5.785 14.287,5.826 14.280,6.067 14.280 C 6.307 14.280,6.347 14.287,6.474 14.354 C 6.785 14.518,6.922 14.705,7.027 15.110 C 7.064 15.255,7.121 15.427,7.153 15.493 C 7.232 15.657,7.414 15.831,7.595 15.915 C 7.726 15.977,7.781 15.986,8.000 15.986 C 8.224 15.985,8.272 15.976,8.412 15.908 C 8.600 15.817,8.768 15.657,8.847 15.493 C 8.878 15.427,8.934 15.256,8.972 15.112 C 9.076 14.708,9.215 14.518,9.526 14.354 C 9.653 14.287,9.693 14.280,9.933 14.280 C 10.174 14.280,10.215 14.287,10.347 14.355 C 10.432 14.399,10.595 14.531,10.736 14.668 C 11.051 14.977,11.204 15.052,11.507 15.050 C 11.801 15.049,11.983 14.975,12.183 14.777 C 12.406 14.558,12.466 14.418,12.465 14.120 C 12.465 13.939,12.449 13.831,12.400 13.680 C 12.263 13.258,12.337 12.886,12.611 12.611 C 12.886 12.337,13.258 12.263,13.680 12.400 C 13.830 12.449,13.940 12.465,14.120 12.466 C 14.332 12.467,14.377 12.458,14.507 12.391 C 14.982 12.148,15.186 11.591,14.972 11.123 C 14.928 11.028,14.825 10.896,14.668 10.736 C 14.531 10.595,14.399 10.432,14.355 10.347 C 14.287 10.215,14.280 10.174,14.280 9.933 C 14.280 9.693,14.287 9.653,14.354 9.526 C 14.518 9.215,14.708 9.076,15.112 8.972 C 15.256 8.934,15.427 8.878,15.493 8.847 C 15.656 8.768,15.816 8.601,15.909 8.412 C 15.978 8.270,15.987 8.226,15.987 8.000 C 15.987 7.774,15.978 7.730,15.909 7.588 C 15.816 7.399,15.656 7.232,15.493 7.153 C 15.427 7.122,15.256 7.066,15.112 7.028 C 14.708 6.924,14.518 6.785,14.354 6.474 C 14.287 6.347,14.280 6.307,14.280 6.067 C 14.280 5.826,14.287 5.785,14.355 5.653 C 14.399 5.568,14.531 5.405,14.668 5.264 C 14.977 4.949,15.052 4.796,15.050 4.493 C 15.048 4.106,14.851 3.782,14.516 3.612 C 14.377 3.542,14.333 3.534,14.120 3.534 C 13.941 3.535,13.829 3.551,13.680 3.599 C 13.251 3.736,12.891 3.665,12.613 3.387 C 12.337 3.110,12.264 2.749,12.398 2.320 C 12.484 2.045,12.499 1.804,12.441 1.620 C 12.310 1.204,11.840 0.895,11.415 0.945 C 11.174 0.973,11.012 1.066,10.726 1.339 C 10.380 1.671,10.279 1.719,9.933 1.720 C 9.693 1.720,9.653 1.713,9.526 1.646 C 9.215 1.482,9.076 1.292,8.972 0.888 C 8.886 0.556,8.819 0.417,8.673 0.272 C 8.508 0.107,8.312 0.024,8.059 0.012 C 7.946 0.006,7.808 0.013,7.753 0.027 M9.067 3.102 C 10.221 3.354,11.173 3.924,11.906 4.802 C 12.648 5.689,13.067 6.844,13.067 8.000 C 13.067 8.521,12.963 9.141,12.796 9.625 C 12.687 9.941,12.408 10.502,12.226 10.773 C 11.426 11.963,10.177 12.745,8.755 12.947 C 8.300 13.011,7.471 12.993,7.055 12.908 C 5.259 12.546,3.820 11.275,3.255 9.556 C 3.065 8.975,3.027 8.717,3.027 8.000 C 3.027 7.283,3.065 7.025,3.255 6.444 C 3.788 4.820,5.109 3.585,6.765 3.160 C 7.253 3.035,7.457 3.014,8.133 3.025 C 8.681 3.034,8.799 3.043,9.067 3.102 " stroke="none" fill="black" fill-rule="evenodd"></path></svg>