<svg width="1em" height="1em" viewBox="0 0 16 16" class="bi bi-globe2" fill="currentColor" xmlns="http://www.w3.org/2000/svg"><path d="M7.293 0.030 C 4.173 0.300,1.460 2.422,0.439 5.390 C -0.989 9.546,1.195 14.077,5.331 15.539 C 8.243 16.569,11.469 15.838,13.653 13.653 C 16.473 10.833,16.787 6.378,14.390 3.190 C 12.867 1.166,10.472 -0.019,7.947 0.004 C 7.734 0.006,7.440 0.018,7.293 0.030 M7.493 2.587 L 7.493 4.080 7.338 4.080 C 7.141 4.080,6.430 4.012,6.073 3.960 C 5.783 3.917,5.247 3.816,5.232 3.801 C 5.216 3.785,5.416 3.324,5.577 3.009 C 5.891 2.391,6.307 1.848,6.720 1.513 C 6.929 1.344,7.369 1.093,7.456 1.093 C 7.488 1.093,7.493 1.325,7.493 2.587 M8.817 1.212 C 9.413 1.511,9.960 2.122,10.413 2.994 C 10.578 3.312,10.786 3.783,10.768 3.801 C 10.753 3.816,10.217 3.917,9.927 3.960 C 9.570 4.012,8.859 4.080,8.662 4.080 L 8.507 4.080 8.507 2.587 C 8.507 1.325,8.512 1.093,8.544 1.093 C 8.564 1.093,8.687 1.147,8.817 1.212 M5.079 1.881 C 4.843 2.234,4.498 2.897,4.347 3.287 C 4.297 3.417,4.241 3.520,4.222 3.520 C 4.114 3.520,3.067 3.085,3.067 3.041 C 3.067 3.008,3.588 2.561,3.857 2.362 C 4.192 2.116,4.600 1.870,4.973 1.689 C 5.135 1.611,5.275 1.547,5.284 1.547 C 5.294 1.547,5.202 1.697,5.079 1.881 M11.036 1.694 C 11.522 1.928,11.930 2.185,12.347 2.517 C 12.602 2.721,12.933 3.017,12.933 3.041 C 12.933 3.085,11.882 3.520,11.777 3.520 C 11.758 3.520,11.696 3.403,11.640 3.260 C 11.479 2.850,11.165 2.249,10.920 1.883 C 10.797 1.698,10.704 1.547,10.715 1.547 C 10.725 1.547,10.870 1.613,11.036 1.694 M2.776 4.024 C 3.133 4.195,3.849 4.480,3.921 4.480 C 3.938 4.480,3.946 4.498,3.937 4.519 C 3.929 4.541,3.880 4.748,3.829 4.979 C 3.667 5.705,3.562 6.460,3.530 7.127 L 3.512 7.493 2.260 7.493 L 1.009 7.493 1.023 7.420 C 1.031 7.380,1.044 7.263,1.053 7.160 C 1.113 6.495,1.392 5.561,1.738 4.871 C 1.921 4.506,2.331 3.844,2.376 3.841 C 2.385 3.840,2.565 3.923,2.776 4.024 M13.785 4.060 C 14.348 4.912,14.676 5.697,14.864 6.640 C 14.900 6.823,14.937 7.057,14.947 7.160 C 14.956 7.263,14.969 7.380,14.977 7.420 L 14.991 7.493 13.735 7.493 L 12.480 7.493 12.480 7.312 C 12.480 7.045,12.407 6.314,12.333 5.831 C 12.277 5.467,12.104 4.628,12.064 4.524 C 12.056 4.501,12.091 4.477,12.166 4.455 C 12.395 4.387,12.954 4.157,13.267 4.002 C 13.443 3.915,13.599 3.843,13.613 3.842 C 13.628 3.841,13.705 3.939,13.785 4.060 M5.440 4.866 C 5.987 4.970,7.054 5.091,7.447 5.093 C 7.490 5.093,7.493 5.168,7.493 6.293 L 7.493 7.493 5.998 7.493 L 4.502 7.493 4.519 7.233 C 4.575 6.394,4.709 5.521,4.883 4.870 C 4.909 4.773,4.915 4.768,4.995 4.782 C 5.042 4.791,5.242 4.829,5.440 4.866 M11.117 4.873 C 11.200 5.192,11.231 5.329,11.291 5.655 C 11.360 6.031,11.450 6.782,11.479 7.233 L 11.497 7.493 10.002 7.493 L 8.507 7.493 8.507 6.296 L 8.507 5.098 8.767 5.081 C 9.492 5.034,10.609 4.888,10.893 4.802 C 11.053 4.754,11.089 4.765,11.117 4.873 M3.529 8.875 C 3.561 9.540,3.666 10.289,3.829 11.021 C 3.880 11.252,3.928 11.457,3.936 11.476 C 3.944 11.499,3.909 11.523,3.834 11.545 C 3.619 11.609,3.107 11.819,2.740 11.994 C 2.538 12.090,2.369 12.164,2.365 12.158 C 1.912 11.549,1.499 10.715,1.284 9.973 C 1.186 9.637,1.076 9.097,1.053 8.840 C 1.044 8.737,1.031 8.620,1.023 8.580 L 1.009 8.507 2.260 8.507 L 3.512 8.507 3.529 8.875 M7.493 9.707 C 7.493 10.832,7.490 10.907,7.447 10.907 C 7.024 10.909,5.995 11.030,5.366 11.150 C 5.127 11.196,4.925 11.227,4.917 11.219 C 4.891 11.193,4.778 10.717,4.709 10.345 C 4.639 9.964,4.549 9.207,4.522 8.767 L 4.506 8.507 5.999 8.507 L 7.493 8.507 7.493 9.707 M11.480 8.753 C 11.449 9.215,11.385 9.772,11.318 10.173 C 11.251 10.576,11.114 11.188,11.085 11.217 C 11.077 11.226,10.910 11.202,10.715 11.163 C 10.078 11.039,9.515 10.968,8.767 10.919 L 8.507 10.902 8.507 9.704 L 8.507 8.507 10.002 8.507 L 11.497 8.507 11.480 8.753 M14.971 8.633 C 14.855 9.622,14.665 10.295,14.280 11.080 C 14.130 11.385,13.726 12.063,13.637 12.158 C 13.632 12.164,13.450 12.084,13.233 11.980 C 12.870 11.806,12.153 11.520,12.079 11.520 C 12.062 11.520,12.054 11.502,12.063 11.481 C 12.071 11.459,12.119 11.252,12.171 11.021 C 12.338 10.262,12.439 9.542,12.471 8.875 L 12.488 8.507 13.737 8.507 L 14.986 8.507 14.971 8.633 M7.493 13.413 C 7.493 14.590,7.486 14.907,7.460 14.907 C 7.410 14.907,7.116 14.763,6.955 14.660 C 6.458 14.340,5.982 13.767,5.591 13.013 C 5.423 12.691,5.214 12.217,5.232 12.199 C 5.248 12.184,5.769 12.085,6.053 12.043 C 6.536 11.973,6.973 11.931,7.287 11.924 L 7.493 11.920 7.493 13.413 M9.633 12.002 C 10.007 12.048,10.745 12.177,10.768 12.200 C 10.786 12.217,10.576 12.693,10.410 13.013 C 9.961 13.878,9.410 14.491,8.817 14.788 C 8.687 14.853,8.564 14.907,8.544 14.907 C 8.512 14.907,8.507 14.674,8.507 13.409 L 8.507 11.912 8.858 11.931 C 9.051 11.941,9.400 11.973,9.633 12.002 M4.360 12.740 C 4.520 13.147,4.833 13.747,5.078 14.116 C 5.201 14.302,5.296 14.453,5.289 14.453 C 5.282 14.453,5.142 14.389,4.978 14.311 C 4.606 14.135,4.199 13.890,3.857 13.638 C 3.589 13.440,3.067 12.992,3.067 12.960 C 3.067 12.914,4.091 12.488,4.215 12.482 C 4.245 12.481,4.289 12.560,4.360 12.740 M12.045 12.563 C 12.336 12.665,12.933 12.932,12.933 12.960 C 12.933 13.034,12.062 13.719,11.627 13.986 C 11.398 14.127,10.761 14.453,10.715 14.453 C 10.704 14.453,10.797 14.302,10.920 14.117 C 11.165 13.751,11.479 13.150,11.640 12.740 C 11.696 12.597,11.757 12.480,11.776 12.480 C 11.794 12.480,11.915 12.517,12.045 12.563 " stroke="none" fill="black" fill-rule="evenodd"></path></svg>