<svg width="1em" height="1em" viewBox="0 0 16 16" class="bi bi-globe" fill="currentColor" xmlns="http://www.w3.org/2000/svg"><path d="M7.293 0.030 C 4.173 0.300,1.460 2.422,0.439 5.390 C -0.989 9.546,1.195 14.077,5.331 15.539 C 8.243 16.569,11.469 15.838,13.653 13.653 C 16.473 10.833,16.787 6.378,14.390 3.190 C 12.867 1.166,10.472 -0.019,7.947 0.004 C 7.734 0.006,7.440 0.018,7.293 0.030 M7.493 2.547 L 7.493 4.000 6.321 4.000 L 5.149 4.000 5.185 3.900 C 5.544 2.898,6.125 1.995,6.720 1.513 C 6.929 1.344,7.369 1.093,7.456 1.093 C 7.488 1.093,7.493 1.320,7.493 2.547 M8.817 1.212 C 9.591 1.601,10.307 2.552,10.790 3.833 L 10.853 4.000 9.680 4.000 L 8.507 4.000 8.507 2.547 C 8.507 1.320,8.512 1.093,8.544 1.093 C 8.564 1.093,8.687 1.147,8.817 1.212 M5.076 1.887 C 4.740 2.391,4.352 3.202,4.156 3.807 L 4.094 4.000 3.180 4.000 C 2.678 4.000,2.267 3.996,2.267 3.991 C 2.267 3.987,2.332 3.895,2.413 3.787 C 3.051 2.934,3.895 2.234,4.878 1.740 C 5.090 1.634,5.272 1.547,5.283 1.547 C 5.293 1.547,5.200 1.700,5.076 1.887 M11.027 1.689 C 12.039 2.180,12.932 2.912,13.587 3.787 C 13.668 3.895,13.733 3.987,13.733 3.991 C 13.733 3.996,13.322 4.000,12.819 4.000 L 11.904 4.000 11.842 3.807 C 11.648 3.197,11.267 2.401,10.916 1.877 C 10.795 1.695,10.704 1.547,10.715 1.547 C 10.725 1.547,10.865 1.611,11.027 1.689 M3.813 5.024 C 3.813 5.029,3.790 5.146,3.762 5.284 C 3.645 5.854,3.520 6.902,3.520 7.312 L 3.520 7.493 2.267 7.493 L 1.014 7.493 1.029 7.367 C 1.128 6.516,1.289 5.888,1.577 5.218 L 1.665 5.013 2.739 5.013 C 3.330 5.013,3.813 5.018,3.813 5.024 M7.493 6.253 L 7.493 7.493 6.000 7.493 C 4.596 7.493,4.507 7.491,4.507 7.447 C 4.507 7.293,4.568 6.619,4.615 6.267 C 4.666 5.874,4.812 5.086,4.842 5.036 C 4.850 5.024,5.450 5.013,6.175 5.013 L 7.493 5.013 7.493 6.253 M11.158 5.036 C 11.189 5.086,11.334 5.875,11.385 6.267 C 11.429 6.602,11.493 7.310,11.493 7.460 C 11.493 7.486,11.177 7.493,10.000 7.493 L 8.507 7.493 8.507 6.253 L 8.507 5.013 9.825 5.013 C 10.550 5.013,11.150 5.024,11.158 5.036 M14.385 5.127 C 14.726 5.949,14.870 6.500,14.971 7.367 L 14.986 7.493 13.733 7.493 L 12.480 7.493 12.480 7.312 C 12.480 6.902,12.355 5.854,12.238 5.284 C 12.210 5.146,12.187 5.029,12.187 5.024 C 12.187 5.018,12.671 5.013,13.263 5.013 L 14.339 5.013 14.385 5.127 M3.520 8.687 C 3.521 9.170,3.643 10.137,3.802 10.927 L 3.820 11.013 2.750 11.013 L 1.679 11.013 1.610 10.860 C 1.313 10.200,1.130 9.499,1.029 8.633 L 1.014 8.507 2.267 8.507 L 3.520 8.507 3.520 8.687 M7.493 9.760 L 7.493 11.013 6.174 11.013 L 4.855 11.013 4.825 10.900 C 4.696 10.422,4.508 9.029,4.507 8.540 C 4.507 8.514,4.823 8.507,6.000 8.507 L 7.493 8.507 7.493 9.760 M11.493 8.540 C 11.493 8.690,11.429 9.397,11.386 9.726 C 11.336 10.107,11.231 10.689,11.171 10.913 L 11.145 11.013 9.826 11.013 L 8.507 11.013 8.507 9.760 L 8.507 8.507 10.000 8.507 C 11.177 8.507,11.493 8.514,11.493 8.540 M14.971 8.633 C 14.870 9.499,14.687 10.200,14.390 10.860 L 14.321 11.013 13.250 11.013 L 12.180 11.013 12.198 10.927 C 12.357 10.137,12.479 9.170,12.480 8.687 L 12.480 8.507 13.733 8.507 L 14.986 8.507 14.971 8.633 M4.156 12.193 C 4.352 12.798,4.740 13.609,5.076 14.113 C 5.200 14.300,5.293 14.453,5.283 14.453 C 5.272 14.453,5.090 14.366,4.878 14.260 C 3.897 13.767,3.050 13.064,2.413 12.213 C 2.332 12.105,2.267 12.013,2.267 12.009 C 2.267 12.004,2.678 12.000,3.180 12.000 L 4.094 12.000 4.156 12.193 M7.493 13.453 C 7.493 14.598,7.486 14.907,7.460 14.907 C 7.410 14.907,7.116 14.763,6.955 14.660 C 6.275 14.224,5.593 13.239,5.185 12.100 L 5.149 12.000 6.321 12.000 L 7.493 12.000 7.493 13.453 M10.790 12.167 C 10.411 13.173,9.854 14.027,9.274 14.492 C 9.069 14.657,8.629 14.907,8.544 14.907 C 8.512 14.907,8.507 14.680,8.507 13.453 L 8.507 12.000 9.680 12.000 L 10.853 12.000 10.790 12.167 M13.733 12.009 C 13.733 12.013,13.668 12.105,13.587 12.213 C 12.950 13.064,12.113 13.760,11.124 14.260 C 10.914 14.366,10.731 14.453,10.719 14.453 C 10.706 14.453,10.798 14.300,10.923 14.113 C 11.257 13.614,11.640 12.815,11.844 12.194 L 11.907 12.001 12.820 12.001 C 13.322 12.000,13.733 12.004,13.733 12.009 " stroke="none" fill="black" fill-rule="evenodd"></path></svg>