<svg width="1em" height="1em" viewBox="0 0 16 16" class="bi bi-graph-down" fill="currentColor" xmlns="http://www.w3.org/2000/svg"><path d="M0.000 8.000 L 0.000 16.000 8.000 16.000 L 16.000 16.000 16.000 15.493 L 16.000 14.987 8.507 14.987 L 1.013 14.987 1.013 7.493 L 1.013 0.000 0.507 0.000 L 0.000 0.000 0.000 8.000 M3.000 3.360 L 2.654 3.707 4.827 5.880 L 7.000 8.053 8.473 6.580 C 9.937 5.116,9.946 5.108,9.998 5.160 C 10.026 5.190,10.793 6.143,11.702 7.280 L 13.355 9.347 11.842 9.360 L 10.329 9.373 10.221 9.445 C 9.926 9.640,9.934 10.078,10.236 10.270 L 10.357 10.347 12.486 10.347 C 14.214 10.347,14.631 10.340,14.701 10.311 C 14.819 10.261,14.953 10.102,14.979 9.981 C 15.007 9.849,15.007 5.857,14.979 5.726 C 14.953 5.604,14.819 5.445,14.701 5.396 C 14.489 5.307,14.211 5.391,14.085 5.581 L 14.013 5.689 14.000 7.113 L 13.987 8.537 12.013 6.069 L 10.040 3.601 8.520 5.121 L 7.000 6.640 5.187 4.827 C 4.189 3.829,3.367 3.013,3.360 3.013 C 3.352 3.013,3.190 3.169,3.000 3.360 " stroke="none" fill="black" fill-rule="evenodd"></path></svg>