<svg width="1em" height="1em" viewBox="0 0 16 16" class="bi bi-handbag" fill="currentColor" xmlns="http://www.w3.org/2000/svg"><path d="M7.520 0.041 C 6.569 0.191,5.733 0.814,5.306 1.690 C 5.035 2.246,4.988 2.599,4.987 4.073 L 4.987 5.013 4.065 5.013 C 3.150 5.013,3.141 5.014,2.943 5.081 C 2.466 5.240,2.112 5.599,1.979 6.057 C 1.943 6.183,1.755 7.519,1.452 9.813 C 1.023 13.057,0.983 13.397,0.997 13.640 C 1.060 14.730,1.802 15.631,2.880 15.925 L 3.107 15.987 8.000 15.987 L 12.893 15.987 13.120 15.925 C 14.200 15.630,14.942 14.727,15.004 13.631 C 15.017 13.401,14.968 12.994,14.549 9.813 C 14.184 7.046,14.065 6.207,14.013 6.046 C 13.861 5.568,13.506 5.215,13.031 5.069 C 12.860 5.017,12.787 5.013,11.931 5.013 L 11.013 5.013 11.013 4.073 C 11.012 3.556,11.001 2.985,10.986 2.803 C 10.927 2.037,10.650 1.426,10.121 0.890 C 9.438 0.199,8.486 -0.112,7.520 0.041 M8.627 1.104 C 8.936 1.209,9.184 1.366,9.413 1.599 C 9.626 1.815,9.751 2.004,9.858 2.267 C 9.986 2.585,10.000 2.747,10.000 3.922 L 10.000 5.013 8.000 5.013 L 6.000 5.013 6.000 3.922 C 6.000 2.747,6.014 2.585,6.142 2.267 C 6.386 1.664,6.869 1.238,7.507 1.064 C 7.795 0.986,8.337 1.005,8.627 1.104 M4.991 6.807 C 4.999 7.530,5.005 7.624,5.050 7.714 C 5.151 7.916,5.358 8.022,5.587 7.988 C 5.744 7.965,5.932 7.803,5.973 7.657 C 5.988 7.602,6.000 7.223,6.000 6.780 L 6.000 6.000 8.000 6.000 L 10.000 6.000 10.000 6.801 C 10.000 7.697,10.002 7.711,10.181 7.871 C 10.423 8.090,10.802 8.012,10.950 7.714 C 10.995 7.624,11.001 7.530,11.009 6.806 L 11.017 5.998 11.891 6.006 C 12.764 6.013,12.764 6.013,12.858 6.078 C 13.075 6.226,13.027 5.963,13.537 9.807 C 13.801 11.801,13.999 13.385,13.999 13.508 C 14.001 14.181,13.571 14.741,12.892 14.951 C 12.741 14.998,12.516 15.000,8.000 15.000 C 3.484 15.000,3.259 14.998,3.108 14.951 C 2.580 14.788,2.192 14.404,2.043 13.895 C 2.019 13.814,2.000 13.653,2.000 13.530 C 2.000 13.305,2.880 6.532,2.933 6.341 C 2.965 6.229,3.093 6.089,3.212 6.037 C 3.274 6.011,3.498 6.002,4.138 6.001 L 4.983 6.000 4.991 6.807 " stroke="none" fill="black" fill-rule="evenodd"></path></svg>