<svg width="1em" height="1em" viewBox="0 0 16 16" class="bi bi-hdd-network-fill" fill="currentColor" xmlns="http://www.w3.org/2000/svg"><path d="M1.600 2.042 C 1.338 2.098,1.133 2.183,0.923 2.321 C 0.457 2.627,0.151 3.072,0.042 3.606 C -0.015 3.885,-0.018 5.076,0.039 5.370 C 0.116 5.775,0.287 6.096,0.587 6.401 C 0.927 6.748,1.332 6.938,1.833 6.987 C 1.977 7.001,3.298 7.012,4.793 7.013 L 7.493 7.013 7.493 8.503 L 7.493 9.993 7.340 10.010 C 6.647 10.090,6.090 10.647,6.010 11.340 L 5.993 11.493 3.230 11.493 C 1.411 11.494,0.433 11.503,0.367 11.521 C 0.167 11.577,0.001 11.793,0.001 12.000 C 0.001 12.207,0.167 12.423,0.367 12.479 C 0.433 12.497,1.411 12.506,3.230 12.507 L 5.993 12.507 6.010 12.660 C 6.077 13.244,6.495 13.752,7.052 13.928 C 7.228 13.983,7.290 13.987,8.000 13.987 C 8.710 13.987,8.772 13.983,8.948 13.928 C 9.508 13.751,9.920 13.246,9.990 12.650 L 10.007 12.507 12.770 12.507 C 14.589 12.506,15.567 12.497,15.633 12.479 C 15.833 12.423,15.999 12.207,15.999 12.000 C 15.999 11.793,15.833 11.577,15.633 11.521 C 15.567 11.503,14.589 11.494,12.770 11.493 L 10.007 11.493 9.990 11.350 C 9.907 10.639,9.361 10.093,8.650 10.010 L 8.507 9.993 8.507 8.503 L 8.507 7.013 11.207 7.013 C 12.702 7.012,14.023 7.001,14.167 6.987 C 14.668 6.938,15.073 6.748,15.413 6.401 C 15.713 6.096,15.884 5.775,15.961 5.370 C 16.018 5.076,16.015 3.885,15.958 3.606 C 15.796 2.816,15.184 2.204,14.394 2.042 C 14.210 2.004,13.540 2.000,7.981 2.002 C 2.765 2.004,1.746 2.010,1.600 2.042 M2.710 4.051 C 2.875 4.126,2.968 4.265,2.982 4.456 C 2.996 4.649,2.959 4.744,2.824 4.866 C 2.702 4.976,2.632 4.997,2.441 4.981 C 2.264 4.967,2.123 4.868,2.051 4.710 C 1.857 4.283,2.283 3.857,2.710 4.051 M4.710 4.051 C 4.875 4.126,4.968 4.265,4.982 4.456 C 4.996 4.649,4.959 4.744,4.824 4.866 C 4.702 4.976,4.632 4.997,4.441 4.981 C 4.264 4.967,4.123 4.868,4.051 4.710 C 3.857 4.283,4.283 3.857,4.710 4.051 " stroke="none" fill="black" fill-rule="evenodd"></path></svg>