<svg width="1em" height="1em" viewBox="0 0 16 16" class="bi bi-hdd-rack" fill="currentColor" xmlns="http://www.w3.org/2000/svg"><path d="M1.600 2.042 C 0.952 2.181,0.407 2.629,0.157 3.226 C 0.025 3.541,0.000 3.744,0.000 4.490 C 0.000 5.379,0.046 5.622,0.297 6.046 C 0.424 6.260,0.752 6.585,0.973 6.714 C 1.366 6.944,1.718 7.011,2.540 7.013 L 2.987 7.013 2.987 8.011 L 2.987 9.009 2.287 9.019 C 1.601 9.027,1.582 9.029,1.373 9.102 C 1.062 9.211,0.814 9.367,0.587 9.599 C 0.287 9.904,0.116 10.225,0.039 10.630 C -0.018 10.924,-0.015 12.115,0.042 12.394 C 0.204 13.183,0.817 13.796,1.606 13.958 C 1.789 13.996,2.464 14.000,8.000 14.000 C 13.536 14.000,14.211 13.996,14.394 13.958 C 15.184 13.796,15.796 13.184,15.958 12.394 C 16.015 12.115,16.018 10.924,15.961 10.630 C 15.884 10.225,15.713 9.904,15.413 9.599 C 15.186 9.367,14.938 9.211,14.627 9.102 C 14.418 9.029,14.399 9.027,13.713 9.019 L 13.013 9.009 13.013 8.011 L 13.013 7.013 13.460 7.013 C 14.282 7.011,14.634 6.944,15.027 6.714 C 15.248 6.585,15.576 6.260,15.703 6.046 C 15.829 5.832,15.917 5.603,15.961 5.370 C 16.018 5.076,16.015 3.885,15.958 3.606 C 15.796 2.816,15.184 2.204,14.394 2.042 C 14.210 2.004,13.540 2.000,7.981 2.002 C 2.765 2.004,1.746 2.010,1.600 2.042 M14.428 3.099 C 14.616 3.192,14.808 3.384,14.901 3.572 L 14.973 3.720 14.982 4.455 C 14.989 5.146,14.986 5.199,14.934 5.339 C 14.821 5.641,14.602 5.851,14.297 5.947 C 14.130 5.999,14.058 6.000,8.002 6.000 C 1.243 6.000,1.740 6.013,1.461 5.835 C 1.306 5.737,1.196 5.614,1.100 5.432 L 1.027 5.293 1.019 4.544 C 1.011 3.851,1.014 3.785,1.063 3.656 C 1.162 3.395,1.388 3.167,1.645 3.066 C 1.769 3.017,1.962 3.016,8.027 3.021 L 14.280 3.027 14.428 3.099 M2.307 4.037 C 1.957 4.191,1.898 4.665,2.200 4.895 C 2.279 4.956,2.334 4.973,2.468 4.982 C 2.674 4.995,2.808 4.930,2.918 4.764 C 2.982 4.666,2.989 4.633,2.981 4.477 C 2.974 4.333,2.958 4.283,2.896 4.201 C 2.762 4.026,2.499 3.953,2.307 4.037 M4.307 4.037 C 3.957 4.191,3.898 4.665,4.200 4.895 C 4.279 4.956,4.334 4.973,4.468 4.982 C 4.674 4.995,4.808 4.930,4.918 4.764 C 4.982 4.666,4.989 4.633,4.981 4.477 C 4.974 4.333,4.958 4.283,4.896 4.201 C 4.762 4.026,4.499 3.953,4.307 4.037 M12.000 8.013 L 12.000 9.013 8.000 9.013 L 4.000 9.013 4.000 8.013 L 4.000 7.013 8.000 7.013 L 12.000 7.013 12.000 8.013 M14.297 10.053 C 14.602 10.149,14.821 10.359,14.934 10.661 C 14.986 10.801,14.989 10.854,14.982 11.545 L 14.973 12.280 14.901 12.428 C 14.810 12.612,14.617 12.808,14.441 12.894 C 14.367 12.930,14.223 12.971,14.120 12.986 C 13.864 13.022,2.136 13.022,1.880 12.986 C 1.777 12.971,1.633 12.930,1.559 12.894 C 1.383 12.808,1.190 12.612,1.099 12.428 L 1.027 12.280 1.027 11.493 L 1.027 10.707 1.099 10.570 C 1.239 10.304,1.434 10.137,1.704 10.051 C 1.846 10.005,2.170 10.003,7.991 10.001 C 14.060 10.000,14.130 10.001,14.297 10.053 M2.280 11.055 C 2.160 11.118,2.104 11.176,2.050 11.293 C 1.953 11.506,1.998 11.707,2.181 11.871 C 2.419 12.086,2.807 12.011,2.943 11.723 C 2.967 11.673,2.987 11.567,2.987 11.488 C 2.987 11.312,2.895 11.153,2.745 11.069 C 2.625 11.001,2.397 10.995,2.280 11.055 M4.280 11.055 C 4.160 11.118,4.104 11.176,4.050 11.293 C 3.953 11.506,3.998 11.707,4.181 11.871 C 4.419 12.086,4.807 12.011,4.943 11.723 C 4.967 11.673,4.987 11.567,4.987 11.488 C 4.987 11.312,4.895 11.153,4.745 11.069 C 4.625 11.001,4.397 10.995,4.280 11.055 " stroke="none" fill="black" fill-rule="evenodd"></path></svg>