<svg width="1em" height="1em" viewBox="0 0 16 16" class="bi bi-hdd-network" fill="currentColor" xmlns="http://www.w3.org/2000/svg"><path d="M1.600 2.042 C 1.338 2.098,1.133 2.183,0.923 2.321 C 0.457 2.627,0.151 3.072,0.042 3.606 C -0.015 3.885,-0.018 5.076,0.039 5.370 C 0.116 5.775,0.287 6.096,0.587 6.401 C 0.927 6.748,1.332 6.938,1.833 6.987 C 1.977 7.001,3.298 7.012,4.793 7.013 L 7.493 7.013 7.493 8.503 L 7.493 9.993 7.340 10.010 C 6.647 10.090,6.090 10.647,6.010 11.340 L 5.993 11.493 3.230 11.493 C 1.411 11.494,0.433 11.503,0.367 11.521 C 0.167 11.577,0.001 11.793,0.001 12.000 C 0.001 12.207,0.167 12.423,0.367 12.479 C 0.433 12.497,1.411 12.506,3.230 12.507 L 5.993 12.507 6.010 12.660 C 6.077 13.244,6.495 13.752,7.052 13.928 C 7.228 13.983,7.290 13.987,8.000 13.987 C 8.710 13.987,8.772 13.983,8.948 13.928 C 9.508 13.751,9.920 13.246,9.990 12.650 L 10.007 12.507 12.770 12.507 C 14.589 12.506,15.567 12.497,15.633 12.479 C 15.833 12.423,15.999 12.207,15.999 12.000 C 15.999 11.793,15.833 11.577,15.633 11.521 C 15.567 11.503,14.589 11.494,12.770 11.493 L 10.007 11.493 9.990 11.350 C 9.907 10.639,9.361 10.093,8.650 10.010 L 8.507 9.993 8.507 8.503 L 8.507 7.013 11.207 7.013 C 12.702 7.012,14.023 7.001,14.167 6.987 C 14.668 6.938,15.073 6.748,15.413 6.401 C 15.713 6.096,15.884 5.775,15.961 5.370 C 16.018 5.076,16.015 3.885,15.958 3.606 C 15.796 2.816,15.184 2.204,14.394 2.042 C 14.210 2.004,13.540 2.000,7.981 2.002 C 2.765 2.004,1.746 2.010,1.600 2.042 M14.428 3.099 C 14.616 3.192,14.808 3.384,14.901 3.572 L 14.973 3.720 14.982 4.455 C 14.989 5.146,14.986 5.199,14.934 5.339 C 14.821 5.641,14.602 5.851,14.297 5.947 C 14.130 5.999,14.058 6.000,8.002 6.000 C 1.243 6.000,1.740 6.013,1.461 5.835 C 1.306 5.737,1.196 5.614,1.100 5.432 L 1.027 5.293 1.019 4.544 C 1.011 3.851,1.014 3.785,1.063 3.656 C 1.162 3.395,1.388 3.167,1.645 3.066 C 1.769 3.017,1.962 3.016,8.027 3.021 L 14.280 3.027 14.428 3.099 M2.307 4.037 C 1.957 4.191,1.898 4.665,2.200 4.895 C 2.279 4.956,2.334 4.973,2.468 4.982 C 2.674 4.995,2.808 4.930,2.918 4.764 C 2.982 4.666,2.989 4.633,2.981 4.477 C 2.974 4.333,2.958 4.283,2.896 4.201 C 2.762 4.026,2.499 3.953,2.307 4.037 M4.307 4.037 C 3.957 4.191,3.898 4.665,4.200 4.895 C 4.279 4.956,4.334 4.973,4.468 4.982 C 4.674 4.995,4.808 4.930,4.918 4.764 C 4.982 4.666,4.989 4.633,4.981 4.477 C 4.974 4.333,4.958 4.283,4.896 4.201 C 4.762 4.026,4.499 3.953,4.307 4.037 M8.715 11.051 C 8.797 11.094,8.913 11.212,8.957 11.298 C 9.005 11.392,8.997 12.622,8.948 12.717 C 8.897 12.815,8.738 12.954,8.646 12.980 C 8.551 13.006,7.449 13.006,7.354 12.980 C 7.262 12.954,7.103 12.815,7.052 12.717 C 6.996 12.610,6.996 11.391,7.051 11.285 C 7.092 11.207,7.208 11.091,7.293 11.044 C 7.379 10.997,8.623 11.003,8.715 11.051 " stroke="none" fill="black" fill-rule="evenodd"></path></svg>