<svg width="1em" height="1em" viewBox="0 0 16 16" class="bi bi-headset" fill="currentColor" xmlns="http://www.w3.org/2000/svg"><path d="M7.400 0.030 C 6.751 0.091,5.995 0.308,5.373 0.612 C 3.477 1.538,2.206 3.386,2.027 5.481 C 2.007 5.715,2.000 6.704,2.005 8.533 L 2.013 11.240 2.088 11.400 C 2.186 11.610,2.391 11.816,2.597 11.911 L 2.760 11.987 3.493 11.987 C 4.190 11.987,4.234 11.984,4.373 11.927 C 4.703 11.794,4.940 11.475,4.988 11.103 C 5.021 10.849,5.019 8.111,4.986 7.880 C 4.971 7.777,4.930 7.633,4.894 7.559 C 4.808 7.383,4.612 7.190,4.428 7.099 C 4.281 7.027,4.274 7.027,3.647 7.018 L 3.013 7.010 3.013 6.288 C 3.013 5.773,3.025 5.486,3.055 5.283 C 3.350 3.274,4.822 1.647,6.797 1.148 C 7.513 0.967,8.487 0.967,9.203 1.148 C 11.001 1.603,12.397 2.999,12.852 4.797 C 12.958 5.215,12.987 5.535,12.987 6.289 L 12.987 7.011 12.353 7.019 C 11.726 7.027,11.719 7.027,11.572 7.099 C 11.268 7.249,11.055 7.546,11.012 7.885 C 10.980 8.129,10.982 10.869,11.013 11.113 C 11.054 11.426,11.209 11.675,11.461 11.835 C 11.685 11.978,11.816 12.000,12.432 12.000 L 12.987 12.000 12.987 12.114 C 12.987 12.573,12.615 13.125,12.160 13.340 C 12.050 13.392,11.896 13.448,11.819 13.464 C 11.729 13.483,11.258 13.493,10.528 13.493 L 9.378 13.493 9.235 13.335 C 9.144 13.235,9.036 13.149,8.939 13.102 L 8.787 13.027 8.000 13.027 L 7.213 13.027 7.059 13.105 C 6.869 13.201,6.686 13.393,6.591 13.594 C 6.530 13.726,6.520 13.781,6.520 14.000 C 6.520 14.219,6.530 14.274,6.591 14.406 C 6.741 14.726,7.025 14.935,7.378 14.986 C 7.613 15.020,8.387 15.020,8.622 14.986 C 8.875 14.949,9.071 14.846,9.237 14.663 L 9.375 14.511 10.614 14.500 C 11.969 14.488,11.995 14.485,12.423 14.320 C 12.852 14.154,13.321 13.773,13.582 13.378 C 13.725 13.164,13.851 12.881,13.924 12.613 L 13.987 12.387 13.987 8.907 C 13.987 5.668,13.983 5.406,13.938 5.133 C 13.826 4.454,13.671 3.958,13.387 3.373 C 12.294 1.119,9.917 -0.208,7.400 0.030 " stroke="none" fill="black" fill-rule="evenodd"></path></svg>