<svg width="1em" height="1em" viewBox="0 0 16 16" class="bi bi-heart" fill="currentColor" xmlns="http://www.w3.org/2000/svg"><path d="M4.320 0.029 C 2.686 0.213,1.232 1.192,0.522 2.586 C -0.260 4.122,-0.159 5.926,0.818 7.876 C 1.668 9.573,3.249 11.377,5.413 13.119 C 6.202 13.753,7.793 14.903,7.986 14.977 C 8.066 15.007,9.584 13.922,10.597 13.110 C 11.861 12.098,13.137 10.833,13.965 9.773 C 15.438 7.887,16.153 5.916,15.972 4.246 C 15.769 2.380,14.543 0.877,12.722 0.262 C 11.093 -0.288,9.345 0.054,8.170 1.154 L 8.001 1.312 7.794 1.120 C 6.905 0.297,5.596 -0.114,4.320 0.029 M5.567 1.079 C 6.010 1.178,6.411 1.348,6.787 1.594 C 6.898 1.667,7.180 1.921,7.488 2.227 L 8.002 2.738 8.435 2.300 C 8.672 2.059,8.939 1.804,9.028 1.732 C 9.383 1.449,9.851 1.223,10.334 1.102 C 10.604 1.034,10.668 1.028,11.160 1.027 C 11.623 1.027,11.730 1.035,11.970 1.089 C 13.152 1.353,14.094 2.062,14.600 3.068 C 14.736 3.338,14.817 3.558,14.902 3.892 C 14.969 4.157,14.973 4.209,14.972 4.787 C 14.972 5.350,14.966 5.427,14.900 5.734 C 14.631 6.994,13.894 8.344,12.732 9.707 C 12.338 10.169,11.169 11.324,10.624 11.788 C 9.889 12.416,8.970 13.125,8.207 13.653 L 8.001 13.795 7.834 13.679 C 6.975 13.082,5.992 12.322,5.253 11.685 C 4.746 11.247,3.551 10.049,3.201 9.627 C 2.037 8.228,1.350 6.947,1.091 5.692 C 1.014 5.317,0.991 4.481,1.049 4.147 C 1.116 3.763,1.217 3.450,1.385 3.106 C 1.934 1.982,3.019 1.224,4.360 1.030 C 4.545 1.003,5.379 1.037,5.567 1.079 " stroke="none" fill="black" fill-rule="evenodd"></path></svg>