<svg width="1em" height="1em" viewBox="0 0 16 16" class="bi bi-hourglass-split" fill="currentColor" xmlns="http://www.w3.org/2000/svg"><path d="M2.280 1.055 C 2.160 1.118,2.104 1.176,2.050 1.293 C 1.995 1.414,1.986 1.560,2.028 1.672 C 2.070 1.784,2.239 1.944,2.346 1.974 C 2.398 1.988,2.677 2.000,2.967 2.000 L 3.493 2.000 3.493 2.553 C 3.493 3.185,3.525 3.579,3.604 3.945 C 3.888 5.260,4.728 6.361,5.926 6.990 C 6.077 7.069,6.244 7.178,6.298 7.232 C 6.478 7.411,6.492 7.458,6.502 7.936 C 6.512 8.422,6.493 8.527,6.364 8.696 C 6.277 8.810,6.220 8.848,5.744 9.111 C 4.841 9.611,4.081 10.540,3.739 11.561 C 3.556 12.109,3.493 12.586,3.493 13.445 L 3.493 13.997 2.911 14.005 C 2.346 14.013,2.326 14.015,2.236 14.078 C 2.022 14.224,1.947 14.472,2.047 14.699 C 2.116 14.854,2.248 14.953,2.431 14.987 C 2.526 15.005,4.473 15.012,8.095 15.007 C 13.424 15.000,13.617 14.998,13.714 14.950 C 14.012 14.802,14.090 14.423,13.871 14.181 C 13.717 14.010,13.673 14.000,13.054 14.000 L 12.507 14.000 12.507 13.447 C 12.507 13.142,12.494 12.762,12.479 12.601 C 12.406 11.831,12.158 11.130,11.737 10.504 C 11.280 9.823,10.792 9.396,9.945 8.934 C 9.704 8.803,9.567 8.654,9.518 8.472 C 9.501 8.408,9.493 8.190,9.498 7.936 C 9.505 7.586,9.516 7.490,9.555 7.419 C 9.635 7.272,9.790 7.140,10.028 7.016 C 11.431 6.288,12.331 4.960,12.479 3.399 C 12.494 3.238,12.507 2.858,12.507 2.553 L 12.507 2.000 13.033 2.000 C 13.323 2.000,13.604 1.988,13.657 1.973 C 13.803 1.932,13.965 1.744,13.988 1.587 C 14.022 1.362,13.915 1.148,13.723 1.057 C 13.640 1.017,13.135 1.013,7.996 1.013 C 2.937 1.014,2.352 1.018,2.280 1.055 M11.493 2.647 C 11.492 3.486,11.446 3.798,11.248 4.299 L 11.166 4.507 8.000 4.507 L 4.834 4.507 4.748 4.289 C 4.553 3.794,4.507 3.481,4.507 2.638 L 4.507 2.000 8.000 2.000 L 11.493 2.000 11.493 2.647 M7.487 11.509 C 7.483 11.513,7.378 11.529,7.253 11.545 C 6.729 11.614,6.022 11.838,5.627 12.060 C 5.311 12.237,4.991 12.477,4.754 12.714 L 4.507 12.961 4.507 12.818 C 4.507 12.461,4.671 11.829,4.863 11.447 C 5.166 10.845,5.699 10.277,6.240 9.978 C 6.321 9.934,6.451 9.863,6.529 9.820 C 7.013 9.555,7.344 9.160,7.447 8.725 C 7.475 8.605,7.481 8.808,7.487 10.043 C 7.491 10.845,7.491 11.505,7.487 11.509 M8.666 9.027 C 8.770 9.236,8.950 9.459,9.126 9.594 C 9.203 9.653,9.411 9.782,9.587 9.880 C 10.072 10.151,10.369 10.384,10.650 10.719 C 11.151 11.313,11.433 11.992,11.485 12.729 L 11.502 12.969 11.248 12.715 C 10.640 12.108,9.799 11.705,8.833 11.559 C 8.690 11.538,8.558 11.520,8.540 11.520 C 8.514 11.520,8.507 11.208,8.508 10.047 C 8.510 8.708,8.514 8.587,8.549 8.720 C 8.570 8.801,8.623 8.939,8.666 9.027 " stroke="none" fill="black" fill-rule="evenodd"></path></svg>