<svg width="1em" height="1em" viewBox="0 0 16 16" class="bi bi-inbox" fill="currentColor" xmlns="http://www.w3.org/2000/svg"><path d="M4.787 3.512 C 4.655 3.530,4.422 3.601,4.307 3.659 C 4.033 3.797,3.951 3.892,2.016 6.305 C 0.959 7.624,0.072 8.740,0.045 8.785 C -0.021 8.897,-0.015 8.970,0.209 10.747 C 0.413 12.366,0.447 12.535,0.622 12.807 C 0.740 12.991,0.990 13.219,1.190 13.326 C 1.525 13.504,1.046 13.493,8.000 13.493 C 14.915 13.493,14.464 13.503,14.798 13.334 C 14.990 13.237,15.258 12.994,15.377 12.809 C 15.556 12.530,15.581 12.401,15.803 10.617 C 16.001 9.033,16.009 8.948,15.970 8.843 C 15.911 8.683,12.103 3.938,11.930 3.810 C 11.774 3.694,11.637 3.623,11.440 3.557 C 11.301 3.510,11.132 3.507,8.080 3.504 C 6.313 3.502,4.831 3.506,4.787 3.512 M11.250 4.567 C 11.340 4.615,11.662 5.003,12.907 6.560 L 14.453 8.493 12.140 8.507 C 10.398 8.517,9.813 8.528,9.770 8.552 C 9.606 8.647,9.494 8.859,9.493 9.080 C 9.493 9.139,9.475 9.262,9.453 9.354 C 9.336 9.851,8.947 10.267,8.449 10.429 C 8.225 10.501,7.833 10.514,7.628 10.456 C 7.090 10.302,6.669 9.874,6.547 9.354 C 6.525 9.262,6.507 9.139,6.507 9.080 C 6.506 8.859,6.394 8.647,6.230 8.552 C 6.187 8.528,5.602 8.517,3.860 8.507 L 1.547 8.493 3.093 6.560 C 4.338 5.003,4.660 4.615,4.750 4.567 L 4.862 4.507 8.000 4.507 L 11.138 4.507 11.250 4.567 M5.586 9.647 C 5.827 10.514,6.498 11.183,7.360 11.418 C 7.679 11.505,8.334 11.505,8.653 11.417 C 9.469 11.195,10.133 10.548,10.387 9.727 L 10.460 9.493 12.699 9.493 L 14.938 9.493 14.922 9.593 C 14.914 9.648,14.841 10.227,14.760 10.880 C 14.680 11.533,14.602 12.110,14.587 12.164 C 14.553 12.284,14.385 12.440,14.249 12.478 C 14.105 12.518,1.895 12.518,1.751 12.478 C 1.623 12.442,1.451 12.289,1.416 12.178 C 1.401 12.132,1.322 11.553,1.241 10.893 C 1.160 10.233,1.087 9.648,1.078 9.593 L 1.062 9.493 3.302 9.493 L 5.543 9.493 5.586 9.647 " stroke="none" fill="black" fill-rule="evenodd"></path></svg>