<svg width="1em" height="1em" viewBox="0 0 16 16" class="bi bi-info-circle-fill" fill="currentColor" xmlns="http://www.w3.org/2000/svg"><path d="M7.293 0.030 C 4.174 0.300,1.460 2.423,0.439 5.390 C -0.989 9.546,1.195 14.077,5.331 15.539 C 8.244 16.569,11.468 15.838,13.653 13.653 C 16.473 10.834,16.787 6.378,14.390 3.190 C 12.867 1.166,10.473 -0.019,7.947 0.004 C 7.734 0.006,7.440 0.018,7.293 0.030 M8.192 3.523 C 8.504 3.590,8.772 3.798,8.902 4.075 C 8.965 4.209,8.973 4.258,8.973 4.507 C 8.972 4.746,8.963 4.805,8.910 4.914 C 8.810 5.115,8.632 5.294,8.432 5.393 C 8.269 5.473,8.234 5.480,8.001 5.480 C 7.781 5.480,7.726 5.470,7.594 5.409 C 7.393 5.314,7.201 5.131,7.105 4.941 C 7.033 4.800,7.027 4.763,7.027 4.507 C 7.027 4.259,7.035 4.209,7.098 4.075 C 7.224 3.806,7.473 3.605,7.773 3.531 C 7.946 3.488,8.020 3.487,8.192 3.523 M8.923 6.633 C 8.915 6.659,8.686 7.727,8.414 9.007 C 8.083 10.565,7.920 11.388,7.920 11.496 C 7.920 11.640,7.929 11.666,8.001 11.739 C 8.081 11.819,8.086 11.820,8.307 11.808 C 8.495 11.798,8.560 11.782,8.719 11.703 C 8.822 11.652,8.907 11.620,8.907 11.633 C 8.907 11.646,8.888 11.740,8.864 11.843 C 8.824 12.021,8.814 12.036,8.671 12.148 C 8.337 12.411,7.822 12.587,7.388 12.587 C 6.982 12.587,6.731 12.467,6.594 12.207 C 6.524 12.075,6.520 12.048,6.522 11.733 C 6.524 11.408,6.533 11.357,6.915 9.579 C 7.131 8.577,7.307 7.700,7.307 7.630 C 7.307 7.437,7.228 7.383,6.836 7.307 C 6.697 7.280,6.577 7.253,6.571 7.246 C 6.557 7.232,6.629 6.908,6.651 6.887 C 6.663 6.875,8.701 6.605,8.888 6.590 C 8.923 6.588,8.933 6.600,8.923 6.633 " stroke="none" fill="black" fill-rule="evenodd"></path></svg>