<svg width="1em" height="1em" viewBox="0 0 16 16" class="bi bi-joystick" fill="currentColor" xmlns="http://www.w3.org/2000/svg"><path d="M7.600 0.042 C 7.338 0.098,7.133 0.183,6.923 0.321 C 5.709 1.118,5.693 2.845,6.892 3.662 C 7.059 3.775,7.367 3.918,7.447 3.919 C 7.491 3.920,7.493 4.054,7.487 6.473 L 7.480 9.027 7.400 9.034 C 7.243 9.049,6.890 9.123,6.720 9.178 C 6.129 9.369,5.878 9.651,6.060 9.922 C 6.423 10.459,8.113 10.676,9.253 10.330 C 9.851 10.148,10.118 9.861,9.949 9.583 C 9.809 9.354,9.322 9.140,8.755 9.058 L 8.520 9.024 8.513 6.472 C 8.507 4.054,8.509 3.920,8.553 3.919 C 8.634 3.918,8.941 3.775,9.113 3.658 C 10.156 2.949,10.300 1.491,9.415 0.593 C 8.948 0.119,8.239 -0.096,7.600 0.042 M3.259 7.443 C 1.758 8.086,0.477 8.650,0.411 8.695 C 0.250 8.806,0.118 8.990,0.053 9.196 C 0.004 9.354,-0.000 9.439,-0.000 10.440 C -0.000 11.411,0.005 11.531,0.049 11.674 C 0.111 11.871,0.238 12.059,0.382 12.164 C 0.558 12.293,7.221 15.615,7.443 15.685 C 7.728 15.774,8.272 15.774,8.557 15.685 C 8.791 15.611,15.486 12.271,15.634 12.154 C 15.772 12.045,15.892 11.863,15.951 11.674 C 15.995 11.531,16.000 11.411,16.000 10.446 C 16.000 9.245,15.994 9.192,15.816 8.933 C 15.760 8.853,15.661 8.748,15.596 8.701 C 15.509 8.639,11.865 7.054,10.086 6.306 L 9.999 6.269 10.006 6.816 L 10.013 7.364 12.458 8.412 C 13.803 8.988,14.925 9.468,14.951 9.479 C 15.011 9.503,9.338 12.350,8.975 12.478 C 8.358 12.696,7.642 12.696,7.025 12.478 C 6.895 12.432,5.487 11.743,3.895 10.947 L 1.000 9.500 1.093 9.461 C 1.810 9.159,5.965 7.374,5.981 7.361 C 5.992 7.351,5.998 7.102,5.994 6.809 L 5.987 6.274 3.259 7.443 " stroke="none" fill="black" fill-rule="evenodd"></path></svg>