<svg width="1em" height="1em" viewBox="0 0 16 16" class="bi bi-keyboard" fill="currentColor" xmlns="http://www.w3.org/2000/svg"><path d="M1.600 4.042 C 0.952 4.181,0.407 4.629,0.157 5.226 C -0.002 5.607,0.000 5.560,0.000 8.490 C -0.000 11.382,-0.000 11.380,0.142 11.733 C 0.249 11.996,0.374 12.185,0.587 12.401 C 0.927 12.748,1.332 12.938,1.833 12.987 C 2.181 13.021,13.819 13.021,14.167 12.987 C 14.668 12.938,15.073 12.748,15.413 12.401 C 15.626 12.185,15.751 11.996,15.858 11.733 C 16.000 11.380,16.000 11.382,16.000 8.490 C 16.000 6.153,15.995 5.785,15.958 5.606 C 15.796 4.816,15.184 4.204,14.394 4.042 C 14.210 4.004,13.540 4.000,7.981 4.002 C 2.765 4.004,1.746 4.010,1.600 4.042 M14.428 5.099 C 14.616 5.192,14.808 5.384,14.901 5.572 L 14.973 5.720 14.980 8.458 C 14.988 11.162,14.987 11.197,14.933 11.342 C 14.821 11.641,14.601 11.851,14.297 11.947 C 14.130 11.999,14.058 12.000,8.002 12.000 C 1.243 12.000,1.740 12.013,1.461 11.835 C 1.306 11.737,1.196 11.614,1.100 11.432 L 1.027 11.293 1.020 8.542 C 1.013 5.872,1.014 5.786,1.064 5.653 C 1.162 5.395,1.389 5.166,1.645 5.066 C 1.769 5.017,1.962 5.016,8.027 5.021 L 14.280 5.027 14.428 5.099 M2.840 6.126 C 2.385 6.192,2.011 6.249,2.007 6.252 C 2.004 6.255,2.056 6.421,2.123 6.622 C 2.231 6.947,2.251 6.987,2.305 6.987 C 2.368 6.987,3.800 6.785,3.924 6.759 L 3.994 6.744 3.871 6.372 C 3.782 6.104,3.736 6.001,3.707 6.003 C 3.685 6.005,3.295 6.060,2.840 6.126 M5.376 6.121 C 5.187 6.186,5.027 6.244,5.020 6.251 C 5.005 6.266,5.224 6.936,5.254 6.970 C 5.271 6.987,5.892 6.804,5.978 6.756 C 5.997 6.745,5.756 5.999,5.734 6.002 C 5.726 6.003,5.565 6.057,5.376 6.121 M7.376 6.121 C 7.187 6.186,7.027 6.244,7.020 6.251 C 7.005 6.266,7.224 6.936,7.254 6.970 C 7.271 6.987,7.892 6.804,7.978 6.756 C 7.997 6.745,7.756 5.999,7.734 6.002 C 7.726 6.003,7.565 6.057,7.376 6.121 M9.376 6.121 C 9.187 6.186,9.027 6.244,9.020 6.251 C 9.005 6.266,9.224 6.936,9.254 6.970 C 9.271 6.987,9.892 6.804,9.978 6.756 C 9.997 6.745,9.756 5.999,9.734 6.002 C 9.726 6.003,9.565 6.057,9.376 6.121 M11.376 6.121 C 11.187 6.186,11.027 6.244,11.020 6.251 C 11.005 6.266,11.224 6.936,11.254 6.970 C 11.271 6.987,11.892 6.804,11.978 6.756 C 11.997 6.745,11.756 5.999,11.734 6.002 C 11.726 6.003,11.565 6.057,11.376 6.121 M13.376 6.121 C 13.187 6.186,13.027 6.244,13.020 6.251 C 13.005 6.266,13.224 6.936,13.254 6.970 C 13.271 6.987,13.892 6.804,13.978 6.756 C 13.997 6.745,13.756 5.999,13.734 6.002 C 13.726 6.003,13.565 6.057,13.376 6.121 M2.373 8.127 C 2.175 8.193,2.011 8.249,2.007 8.252 C 1.986 8.268,2.251 8.987,2.277 8.987 C 2.328 8.987,2.941 8.776,2.968 8.749 C 2.991 8.727,2.792 8.065,2.750 8.023 C 2.741 8.014,2.571 8.061,2.373 8.127 M4.373 8.127 C 4.175 8.193,4.011 8.249,4.007 8.252 C 3.986 8.268,4.251 8.987,4.277 8.987 C 4.328 8.987,4.941 8.776,4.968 8.749 C 4.991 8.727,4.792 8.065,4.750 8.023 C 4.741 8.014,4.571 8.061,4.373 8.127 M6.373 8.127 C 6.175 8.193,6.011 8.249,6.007 8.252 C 5.986 8.268,6.251 8.987,6.277 8.987 C 6.328 8.987,6.941 8.776,6.968 8.749 C 6.991 8.727,6.792 8.065,6.750 8.023 C 6.741 8.014,6.571 8.061,6.373 8.127 M8.373 8.127 C 8.175 8.193,8.011 8.249,8.007 8.252 C 7.986 8.268,8.251 8.987,8.277 8.987 C 8.328 8.987,8.941 8.776,8.968 8.749 C 8.991 8.727,8.792 8.065,8.750 8.023 C 8.741 8.014,8.571 8.061,8.373 8.127 M10.840 8.126 C 10.385 8.192,10.011 8.249,10.007 8.252 C 10.004 8.255,10.056 8.421,10.123 8.622 C 10.231 8.947,10.251 8.987,10.305 8.987 C 10.368 8.987,11.800 8.785,11.924 8.759 L 11.994 8.744 11.871 8.372 C 11.782 8.104,11.736 8.001,11.707 8.003 C 11.685 8.005,11.295 8.060,10.840 8.126 M13.376 8.121 C 13.187 8.186,13.027 8.244,13.020 8.251 C 13.005 8.266,13.224 8.936,13.254 8.970 C 13.271 8.987,13.892 8.804,13.978 8.756 C 13.997 8.745,13.756 7.999,13.734 8.002 C 13.726 8.003,13.565 8.057,13.376 8.121 M2.373 10.127 C 2.175 10.193,2.011 10.249,2.007 10.252 C 1.986 10.268,2.251 10.987,2.277 10.987 C 2.328 10.987,2.941 10.776,2.968 10.749 C 2.991 10.727,2.792 10.065,2.750 10.023 C 2.741 10.014,2.571 10.061,2.373 10.127 M6.733 10.127 C 5.237 10.193,4.011 10.249,4.007 10.252 C 4.004 10.255,4.056 10.421,4.123 10.622 L 4.245 10.987 4.436 10.987 C 4.657 10.986,9.387 10.784,9.750 10.759 L 9.994 10.742 9.871 10.371 L 9.748 10.000 9.601 10.003 C 9.520 10.005,8.229 10.061,6.733 10.127 M11.376 10.121 C 11.187 10.186,11.027 10.244,11.020 10.251 C 11.005 10.266,11.224 10.936,11.254 10.970 C 11.271 10.987,11.892 10.804,11.978 10.756 C 11.997 10.745,11.756 9.999,11.734 10.002 C 11.726 10.003,11.565 10.057,11.376 10.121 M13.376 10.121 C 13.187 10.186,13.027 10.244,13.020 10.251 C 13.005 10.266,13.224 10.936,13.254 10.970 C 13.271 10.987,13.892 10.804,13.978 10.756 C 13.997 10.745,13.756 9.999,13.734 10.002 C 13.726 10.003,13.565 10.057,13.376 10.121 " stroke="none" fill="black" fill-rule="evenodd"></path></svg>