<svg width="1em" height="1em" viewBox="0 0 16 16" class="bi bi-ladder" fill="currentColor" xmlns="http://www.w3.org/2000/svg"><path d="M4.280 1.055 C 4.160 1.118,4.104 1.176,4.050 1.293 C 4.003 1.396,4.001 1.667,4.001 8.501 C 4.000 14.395,4.006 15.616,4.036 15.688 C 4.056 15.735,4.121 15.817,4.181 15.871 C 4.422 16.089,4.807 16.011,4.947 15.715 C 4.980 15.646,4.998 15.524,5.007 15.315 L 5.021 15.013 8.000 15.013 L 10.979 15.013 10.993 15.315 C 11.002 15.524,11.020 15.646,11.053 15.715 C 11.148 15.915,11.358 16.022,11.587 15.988 C 11.744 15.965,11.932 15.803,11.973 15.657 C 11.991 15.593,12.000 13.168,11.999 8.480 C 11.999 1.623,11.997 1.397,11.949 1.290 C 11.877 1.132,11.736 1.033,11.559 1.019 C 11.372 1.003,11.301 1.023,11.186 1.124 C 11.036 1.256,11.010 1.332,10.993 1.684 L 10.979 2.000 7.996 2.000 L 5.013 2.000 5.012 1.780 C 5.009 1.356,4.942 1.180,4.743 1.068 C 4.625 1.001,4.396 0.995,4.280 1.055 M10.987 4.013 L 10.987 5.013 8.000 5.013 L 5.013 5.013 5.013 4.013 L 5.013 3.013 8.000 3.013 L 10.987 3.013 10.987 4.013 M10.987 7.000 L 10.987 8.000 8.000 8.000 L 5.013 8.000 5.013 7.000 L 5.013 6.000 8.000 6.000 L 10.987 6.000 10.987 7.000 M10.987 10.013 L 10.987 11.013 8.000 11.013 L 5.013 11.013 5.013 10.013 L 5.013 9.013 8.000 9.013 L 10.987 9.013 10.987 10.013 M10.987 13.000 L 10.987 14.000 8.000 14.000 L 5.013 14.000 5.013 13.000 L 5.013 12.000 8.000 12.000 L 10.987 12.000 10.987 13.000 " stroke="none" fill="black" fill-rule="evenodd"></path></svg>