<svg width="1em" height="1em" viewBox="0 0 16 16" class="bi bi-layers-half" fill="currentColor" xmlns="http://www.w3.org/2000/svg"><path d="M7.881 1.512 C 7.787 1.538,0.229 5.577,0.163 5.636 C 0.078 5.713,0.001 5.885,0.001 6.000 C 0.001 6.125,0.081 6.294,0.179 6.374 C 0.223 6.410,0.914 6.788,1.715 7.213 C 2.516 7.639,3.172 7.993,3.172 8.000 C 3.172 8.007,2.516 8.361,1.715 8.787 C 0.914 9.212,0.223 9.590,0.179 9.626 C 0.081 9.706,0.001 9.875,0.001 10.000 C 0.001 10.115,0.078 10.287,0.163 10.364 C 0.198 10.395,1.943 11.337,4.040 12.456 C 7.756 14.438,7.857 14.490,8.000 14.491 C 8.143 14.491,8.231 14.446,11.960 12.457 C 14.057 11.338,15.802 10.396,15.837 10.364 C 15.922 10.287,15.999 10.114,15.999 10.000 C 15.999 9.875,15.919 9.706,15.822 9.626 C 15.779 9.590,15.087 9.212,14.286 8.787 C 13.484 8.361,12.829 8.007,12.829 8.000 C 12.829 7.993,13.484 7.639,14.286 7.213 C 15.087 6.788,15.779 6.410,15.822 6.374 C 15.919 6.294,15.999 6.125,15.999 6.000 C 15.999 5.886,15.922 5.713,15.837 5.636 C 15.802 5.604,14.061 4.665,11.968 3.549 C 8.095 1.483,8.054 1.463,7.881 1.512 M11.232 4.287 C 12.988 5.222,14.425 5.993,14.425 6.000 C 14.425 6.022,8.043 9.413,8.002 9.413 C 7.944 9.413,1.597 6.022,1.606 5.996 C 1.616 5.964,7.950 2.588,8.000 2.587 C 8.021 2.587,9.476 3.352,11.232 4.287 " stroke="none" fill="black" fill-rule="evenodd"></path></svg>