<svg width="1em" height="1em" viewBox="0 0 16 16" class="bi bi-layers-fill" fill="currentColor" xmlns="http://www.w3.org/2000/svg"><path d="M7.881 1.512 C 7.787 1.538,0.229 5.577,0.163 5.636 C 0.078 5.713,0.001 5.885,0.001 6.000 C 0.001 6.115,0.078 6.287,0.163 6.364 C 0.198 6.395,1.943 7.337,4.040 8.456 C 7.756 10.438,7.857 10.490,8.000 10.491 C 8.143 10.491,8.231 10.446,11.960 8.457 C 14.057 7.338,15.802 6.396,15.837 6.364 C 15.922 6.287,15.999 6.114,15.999 6.000 C 15.999 5.886,15.922 5.713,15.837 5.636 C 15.802 5.604,14.061 4.665,11.968 3.549 C 8.095 1.483,8.054 1.463,7.881 1.512 M1.169 9.077 C 0.646 9.357,0.191 9.611,0.159 9.640 C 0.077 9.713,0.001 9.887,0.001 10.000 C 0.001 10.115,0.078 10.287,0.163 10.364 C 0.198 10.395,1.943 11.337,4.040 12.456 C 7.756 14.438,7.857 14.490,8.000 14.491 C 8.143 14.491,8.231 14.446,11.960 12.457 C 14.057 11.338,15.802 10.396,15.837 10.364 C 15.922 10.287,15.999 10.114,15.999 10.000 C 15.999 9.886,15.922 9.713,15.837 9.636 C 15.771 9.576,13.927 8.580,13.880 8.579 C 13.865 8.579,12.683 9.202,11.253 9.965 C 9.823 10.728,8.581 11.380,8.493 11.415 C 8.355 11.469,8.288 11.478,8.000 11.478 C 7.712 11.478,7.645 11.469,7.507 11.415 C 7.419 11.380,6.202 10.741,4.803 9.994 C 3.404 9.248,2.228 8.622,2.190 8.603 C 2.124 8.570,2.069 8.595,1.169 9.077 " stroke="none" fill="black" fill-rule="evenodd"></path></svg>