<svg width="1em" height="1em" viewBox="0 0 16 16" class="bi bi-lightning" fill="currentColor" xmlns="http://www.w3.org/2000/svg"><path d="M10.781 0.058 C 10.646 0.132,2.640 8.624,2.559 8.779 C 2.464 8.958,2.511 9.235,2.657 9.363 C 2.809 9.497,2.755 9.493,4.600 9.493 C 6.229 9.493,6.323 9.496,6.309 9.540 C 5.296 12.809,4.507 15.423,4.507 15.505 C 4.507 15.865,4.910 16.113,5.219 15.942 C 5.354 15.868,13.360 7.376,13.441 7.221 C 13.567 6.983,13.467 6.683,13.221 6.557 C 13.127 6.509,13.037 6.507,11.399 6.507 C 9.771 6.507,9.677 6.504,9.691 6.460 C 9.698 6.434,10.107 5.106,10.599 3.507 C 11.134 1.770,11.493 0.559,11.493 0.496 C 11.493 0.135,11.090 -0.113,10.781 0.058 M9.189 4.688 C 8.759 6.081,8.507 6.941,8.507 7.011 C 8.507 7.185,8.606 7.351,8.760 7.436 C 8.831 7.475,9.013 7.482,10.338 7.493 L 11.835 7.507 8.993 10.527 C 7.430 12.188,6.146 13.542,6.140 13.536 C 6.134 13.530,6.436 12.528,6.811 11.310 C 7.232 9.945,7.493 9.054,7.493 8.987 C 7.493 8.815,7.394 8.648,7.240 8.564 C 7.169 8.525,6.987 8.518,5.661 8.507 L 4.163 8.493 7.006 5.473 C 8.570 3.812,9.854 2.458,9.860 2.464 C 9.866 2.470,9.564 3.471,9.189 4.688 " stroke="none" fill="black" fill-rule="evenodd"></path></svg>