<svg width="1em" height="1em" viewBox="0 0 16 16" class="bi bi-link" fill="currentColor" xmlns="http://www.w3.org/2000/svg"><path d="M3.640 5.522 C 2.376 5.673,1.322 6.641,1.068 7.884 C 1.000 8.220,0.994 8.746,1.055 9.066 C 1.252 10.107,2.025 10.994,3.030 11.335 C 3.487 11.490,3.545 11.493,5.493 11.493 C 6.939 11.493,7.315 11.486,7.498 11.454 C 8.727 11.240,9.675 10.328,9.936 9.110 C 10.029 8.677,10.012 8.152,9.890 7.700 L 9.834 7.493 9.390 7.494 C 9.146 7.494,8.903 7.501,8.850 7.510 L 8.752 7.526 8.816 7.665 C 9.064 8.206,9.047 8.884,8.773 9.410 C 8.462 10.009,7.917 10.392,7.249 10.480 C 7.100 10.500,6.474 10.507,5.347 10.500 C 3.690 10.491,3.664 10.490,3.467 10.430 C 3.116 10.324,2.868 10.174,2.599 9.907 C 2.332 9.641,2.189 9.403,2.076 9.040 C 1.996 8.780,1.988 8.268,2.061 8.000 C 2.257 7.284,2.807 6.745,3.531 6.560 C 3.721 6.512,3.829 6.507,4.638 6.506 L 5.533 6.504 5.693 6.259 C 5.781 6.124,5.966 5.897,6.103 5.754 L 6.353 5.493 5.090 5.497 C 4.395 5.499,3.743 5.510,3.640 5.522 M8.733 5.510 C 8.145 5.588,7.706 5.752,7.265 6.056 C 7.024 6.222,6.668 6.590,6.498 6.845 C 6.018 7.571,5.875 8.506,6.119 9.340 L 6.164 9.493 6.709 9.493 C 7.008 9.493,7.253 9.488,7.253 9.482 C 7.253 9.476,7.218 9.396,7.174 9.304 C 7.047 9.035,7.005 8.794,7.020 8.418 C 7.030 8.165,7.048 8.046,7.102 7.880 C 7.321 7.211,7.900 6.691,8.589 6.546 C 8.744 6.514,9.080 6.507,10.517 6.507 C 12.175 6.507,12.268 6.509,12.469 6.560 C 13.057 6.710,13.535 7.092,13.787 7.613 C 13.945 7.941,13.985 8.121,13.985 8.507 C 13.986 8.893,13.935 9.097,13.752 9.453 C 13.600 9.748,13.247 10.101,12.947 10.258 C 12.530 10.476,12.459 10.487,11.393 10.500 L 10.452 10.511 10.414 10.584 C 10.347 10.715,10.067 11.075,9.868 11.287 L 9.675 11.493 10.981 11.493 C 12.396 11.493,12.532 11.483,12.948 11.344 C 13.513 11.155,14.036 10.778,14.403 10.295 C 14.581 10.060,14.809 9.591,14.896 9.280 C 14.996 8.920,15.016 8.290,14.939 7.920 C 14.789 7.195,14.394 6.558,13.829 6.129 C 13.455 5.845,13.106 5.680,12.640 5.566 C 12.423 5.514,12.333 5.511,10.613 5.505 C 9.623 5.502,8.777 5.504,8.733 5.510 " stroke="none" fill="black" fill-rule="evenodd"></path></svg>