<svg width="1em" height="1em" viewBox="0 0 16 16" class="bi bi-list-ul" fill="currentColor" xmlns="http://www.w3.org/2000/svg"><path d="M1.714 2.544 C 1.447 2.631,1.230 2.817,1.102 3.067 C 1.033 3.200,1.027 3.239,1.027 3.493 C 1.027 3.741,1.035 3.791,1.098 3.925 C 1.232 4.212,1.502 4.416,1.834 4.481 C 2.253 4.563,2.716 4.322,2.902 3.925 C 2.965 3.791,2.973 3.741,2.973 3.493 C 2.973 3.237,2.967 3.200,2.895 3.059 C 2.799 2.868,2.606 2.685,2.406 2.593 C 2.222 2.509,1.893 2.485,1.714 2.544 M5.266 3.063 C 5.162 3.126,5.045 3.265,5.023 3.350 C 5.014 3.386,5.012 3.480,5.019 3.559 C 5.033 3.736,5.132 3.877,5.290 3.949 C 5.396 3.997,5.564 3.999,10.000 3.999 C 14.436 3.999,14.604 3.997,14.710 3.949 C 14.884 3.870,14.970 3.734,14.981 3.523 C 14.989 3.367,14.982 3.334,14.918 3.236 C 14.877 3.175,14.800 3.100,14.745 3.069 L 14.646 3.013 9.996 3.013 C 5.514 3.014,5.344 3.015,5.266 3.063 M1.714 6.544 C 1.447 6.631,1.230 6.817,1.102 7.067 C 1.033 7.200,1.027 7.239,1.027 7.493 C 1.027 7.741,1.035 7.791,1.098 7.925 C 1.232 8.212,1.502 8.416,1.834 8.481 C 2.253 8.563,2.716 8.322,2.902 7.925 C 2.965 7.791,2.973 7.741,2.973 7.493 C 2.973 7.237,2.967 7.200,2.895 7.059 C 2.799 6.868,2.606 6.685,2.406 6.593 C 2.222 6.509,1.893 6.485,1.714 6.544 M5.266 7.063 C 5.162 7.126,5.045 7.265,5.023 7.350 C 5.014 7.386,5.012 7.480,5.019 7.559 C 5.033 7.736,5.132 7.877,5.290 7.949 C 5.396 7.997,5.564 7.999,10.000 7.999 C 14.436 7.999,14.604 7.997,14.710 7.949 C 14.884 7.870,14.970 7.734,14.981 7.523 C 14.989 7.367,14.982 7.334,14.918 7.236 C 14.877 7.175,14.800 7.100,14.745 7.069 L 14.646 7.013 9.996 7.013 C 5.514 7.014,5.344 7.015,5.266 7.063 M1.714 10.544 C 1.447 10.631,1.230 10.817,1.102 11.067 C 1.033 11.200,1.027 11.239,1.027 11.493 C 1.027 11.741,1.035 11.791,1.098 11.925 C 1.284 12.322,1.747 12.563,2.166 12.481 C 2.498 12.416,2.768 12.212,2.902 11.925 C 2.965 11.791,2.973 11.741,2.973 11.493 C 2.973 11.237,2.967 11.200,2.895 11.059 C 2.799 10.868,2.606 10.685,2.406 10.593 C 2.222 10.509,1.893 10.485,1.714 10.544 M5.266 11.063 C 5.162 11.126,5.045 11.265,5.023 11.350 C 5.014 11.386,5.012 11.480,5.019 11.559 C 5.033 11.736,5.132 11.877,5.290 11.949 C 5.396 11.997,5.564 11.999,10.000 11.999 C 14.436 11.999,14.604 11.997,14.710 11.949 C 14.884 11.870,14.970 11.734,14.981 11.523 C 14.989 11.367,14.982 11.334,14.918 11.236 C 14.877 11.175,14.800 11.100,14.745 11.069 L 14.646 11.013 9.996 11.013 C 5.514 11.014,5.344 11.015,5.266 11.063 " stroke="none" fill="black" fill-rule="evenodd"></path></svg>