<svg width="1em" height="1em" viewBox="0 0 16 16" class="bi bi-list-check" fill="currentColor" xmlns="http://www.w3.org/2000/svg"><path d="M3.307 2.041 C 3.254 2.064,2.953 2.342,2.609 2.685 L 2.004 3.289 1.867 3.166 C 1.660 2.979,1.422 2.954,1.215 3.096 C 1.026 3.225,0.953 3.504,1.052 3.713 C 1.076 3.763,1.242 3.949,1.421 4.126 C 1.805 4.505,1.891 4.547,2.147 4.477 C 2.236 4.453,2.389 4.314,3.087 3.618 C 3.989 2.719,4.020 2.679,3.993 2.440 C 3.957 2.121,3.598 1.911,3.307 2.041 M5.266 3.063 C 5.162 3.126,5.045 3.265,5.023 3.350 C 5.014 3.386,5.012 3.480,5.019 3.559 C 5.033 3.736,5.132 3.877,5.290 3.949 C 5.396 3.997,5.564 3.999,10.000 3.999 C 14.436 3.999,14.604 3.997,14.710 3.949 C 14.884 3.870,14.970 3.734,14.981 3.523 C 14.989 3.367,14.982 3.334,14.918 3.236 C 14.877 3.175,14.800 3.100,14.745 3.069 L 14.646 3.013 9.996 3.013 C 5.514 3.014,5.344 3.015,5.266 3.063 M3.307 6.041 C 3.254 6.064,2.953 6.342,2.609 6.685 L 2.004 7.289 1.867 7.166 C 1.660 6.979,1.422 6.954,1.215 7.096 C 1.026 7.225,0.953 7.504,1.052 7.713 C 1.076 7.763,1.242 7.949,1.421 8.126 C 1.805 8.505,1.891 8.547,2.147 8.477 C 2.236 8.453,2.389 8.314,3.087 7.618 C 3.989 6.719,4.020 6.679,3.993 6.440 C 3.957 6.121,3.598 5.911,3.307 6.041 M5.266 7.063 C 5.162 7.126,5.045 7.265,5.023 7.350 C 5.014 7.386,5.012 7.480,5.019 7.559 C 5.033 7.736,5.132 7.877,5.290 7.949 C 5.396 7.997,5.564 7.999,10.000 7.999 C 14.436 7.999,14.604 7.997,14.710 7.949 C 14.884 7.870,14.970 7.734,14.981 7.523 C 14.989 7.367,14.982 7.334,14.918 7.236 C 14.877 7.175,14.800 7.100,14.745 7.069 L 14.646 7.013 9.996 7.013 C 5.514 7.014,5.344 7.015,5.266 7.063 M3.307 10.041 C 3.254 10.064,2.953 10.342,2.609 10.685 L 2.004 11.289 1.867 11.166 C 1.660 10.979,1.422 10.954,1.215 11.096 C 1.026 11.225,0.953 11.504,1.052 11.713 C 1.076 11.763,1.242 11.949,1.421 12.126 C 1.805 12.505,1.891 12.547,2.147 12.477 C 2.236 12.453,2.389 12.314,3.087 11.618 C 3.989 10.719,4.020 10.679,3.993 10.440 C 3.957 10.121,3.598 9.911,3.307 10.041 M5.266 11.063 C 5.162 11.126,5.045 11.265,5.023 11.350 C 5.014 11.386,5.012 11.480,5.019 11.559 C 5.033 11.736,5.132 11.877,5.290 11.949 C 5.396 11.997,5.564 11.999,10.000 11.999 C 14.436 11.999,14.604 11.997,14.710 11.949 C 14.884 11.870,14.970 11.734,14.981 11.523 C 14.989 11.367,14.982 11.334,14.918 11.236 C 14.877 11.175,14.800 11.100,14.745 11.069 L 14.646 11.013 9.996 11.013 C 5.514 11.014,5.344 11.015,5.266 11.063 " stroke="none" fill="black" fill-rule="evenodd"></path></svg>