<svg width="1em" height="1em" viewBox="0 0 16 16" class="bi bi-list" fill="currentColor" xmlns="http://www.w3.org/2000/svg"><path d="M2.759 3.063 C 2.640 3.135,2.538 3.268,2.518 3.376 C 2.473 3.614,2.580 3.847,2.780 3.943 L 2.897 4.000 8.000 4.000 L 13.103 4.000 13.220 3.943 C 13.398 3.857,13.480 3.715,13.480 3.493 C 13.480 3.339,13.470 3.303,13.404 3.216 C 13.362 3.161,13.290 3.093,13.244 3.064 C 13.162 3.015,13.033 3.014,8.000 3.014 C 3.021 3.014,2.837 3.015,2.759 3.063 M2.759 7.063 C 2.640 7.135,2.538 7.268,2.518 7.376 C 2.473 7.614,2.580 7.847,2.780 7.943 L 2.897 8.000 8.000 8.000 L 13.103 8.000 13.220 7.943 C 13.398 7.857,13.480 7.715,13.480 7.493 C 13.480 7.339,13.470 7.303,13.404 7.216 C 13.362 7.161,13.290 7.093,13.244 7.064 C 13.162 7.015,13.033 7.014,8.000 7.014 C 3.021 7.014,2.837 7.015,2.759 7.063 M2.759 11.063 C 2.640 11.135,2.538 11.268,2.518 11.376 C 2.473 11.614,2.580 11.847,2.780 11.943 L 2.897 12.000 8.000 12.000 L 13.103 12.000 13.220 11.943 C 13.398 11.857,13.480 11.715,13.480 11.493 C 13.480 11.339,13.470 11.303,13.404 11.216 C 13.362 11.161,13.290 11.093,13.244 11.064 C 13.162 11.015,13.033 11.014,8.000 11.014 C 3.021 11.014,2.837 11.015,2.759 11.063 " stroke="none" fill="black" fill-rule="evenodd"></path></svg>