<svg width="1em" height="1em" viewBox="0 0 16 16" class="bi bi-mailbox" fill="currentColor" xmlns="http://www.w3.org/2000/svg"><path d="M3.493 3.031 C 3.189 3.080,2.933 3.141,2.709 3.219 C 1.339 3.693,0.357 4.829,0.062 6.281 C 0.016 6.505,0.013 6.734,0.013 9.880 L 0.013 13.240 0.088 13.400 C 0.186 13.610,0.391 13.816,0.597 13.911 L 0.760 13.987 8.000 13.987 L 15.240 13.987 15.413 13.904 C 15.633 13.799,15.797 13.634,15.903 13.413 L 15.987 13.240 15.987 9.880 C 15.987 6.734,15.984 6.505,15.938 6.281 C 15.629 4.760,14.563 3.585,13.106 3.158 C 12.595 3.009,12.762 3.013,7.973 3.017 C 5.546 3.019,3.530 3.025,3.493 3.031 M4.460 4.040 C 5.090 4.134,5.645 4.417,6.109 4.879 C 6.485 5.253,6.746 5.695,6.899 6.216 L 6.972 6.467 6.980 9.740 L 6.988 13.013 4.000 13.013 L 1.012 13.013 1.020 9.740 L 1.028 6.467 1.101 6.213 C 1.533 4.726,2.947 3.811,4.460 4.040 M12.460 4.040 C 13.090 4.134,13.645 4.417,14.109 4.879 C 14.485 5.253,14.746 5.695,14.899 6.216 L 14.972 6.467 14.980 9.740 L 14.988 13.013 11.494 13.013 L 8.000 13.013 8.000 9.895 C 8.000 7.277,7.994 6.727,7.960 6.471 C 7.848 5.617,7.469 4.839,6.857 4.207 L 6.657 4.000 9.429 4.000 C 11.731 4.000,12.244 4.007,12.460 4.040 M3.704 6.049 C 3.430 6.140,3.235 6.308,3.100 6.570 C 3.046 6.677,3.028 6.756,3.019 6.933 C 3.009 7.138,3.013 7.165,3.064 7.211 C 3.126 7.267,3.086 7.276,3.613 7.083 C 3.752 7.032,3.852 7.014,4.000 7.014 C 4.148 7.014,4.248 7.032,4.387 7.083 C 4.914 7.276,4.874 7.267,4.936 7.211 C 4.987 7.165,4.991 7.137,4.982 6.933 C 4.972 6.739,4.958 6.683,4.881 6.538 C 4.708 6.215,4.413 6.030,4.040 6.010 C 3.907 6.003,3.810 6.014,3.704 6.049 M8.999 7.528 C 8.991 7.546,8.989 7.771,8.993 8.028 L 9.000 8.493 10.400 8.500 L 11.800 8.507 12.253 8.958 C 12.503 9.205,12.745 9.427,12.792 9.451 C 12.908 9.508,14.059 9.514,14.195 9.457 C 14.309 9.410,14.444 9.253,14.478 9.127 C 14.516 8.993,14.515 7.990,14.477 7.854 C 14.439 7.718,14.282 7.561,14.146 7.523 C 13.981 7.477,9.016 7.482,8.999 7.528 " stroke="none" fill="black" fill-rule="evenodd"></path></svg>