<svg width="1em" height="1em" viewBox="0 0 16 16" class="bi bi-menu-down" fill="currentColor" xmlns="http://www.w3.org/2000/svg"><path d="M7.789 0.255 C 7.738 0.277,7.362 0.628,6.909 1.076 C 6.250 1.728,6.096 1.868,5.973 1.922 L 5.827 1.987 3.733 2.002 C 1.844 2.015,1.625 2.021,1.484 2.063 C 0.731 2.288,0.195 2.862,0.042 3.606 C 0.005 3.788,-0.000 4.330,-0.000 8.490 C -0.000 13.555,-0.005 13.368,0.142 13.733 C 0.249 13.996,0.374 14.185,0.587 14.401 C 0.927 14.748,1.332 14.938,1.833 14.987 C 2.181 15.021,13.819 15.021,14.167 14.987 C 14.668 14.938,15.073 14.748,15.413 14.401 C 15.626 14.185,15.751 13.996,15.858 13.733 C 16.005 13.368,16.000 13.555,16.000 8.490 C 16.000 4.330,15.995 3.788,15.958 3.606 C 15.806 2.865,15.266 2.287,14.516 2.063 C 14.375 2.021,14.156 2.015,12.267 2.002 L 10.173 1.987 10.027 1.922 C 9.904 1.868,9.750 1.728,9.090 1.076 C 8.589 0.579,8.266 0.279,8.205 0.254 C 8.084 0.203,7.907 0.204,7.789 0.255 M8.545 1.968 C 9.145 2.561,9.290 2.679,9.575 2.810 C 9.996 3.002,9.892 2.994,12.200 3.011 L 14.280 3.027 14.428 3.099 C 14.616 3.192,14.808 3.384,14.901 3.572 L 14.973 3.720 14.981 4.860 L 14.989 6.000 8.000 6.000 L 1.012 6.000 1.019 4.860 L 1.027 3.720 1.099 3.572 C 1.192 3.384,1.384 3.192,1.572 3.099 L 1.720 3.027 3.800 3.011 C 6.138 2.994,6.014 3.004,6.467 2.786 C 6.746 2.652,6.977 2.457,7.586 1.843 C 7.806 1.621,7.991 1.440,7.998 1.440 C 8.004 1.440,8.250 1.678,8.545 1.968 M2.307 4.037 C 2.129 4.116,1.999 4.311,2.001 4.499 C 2.002 4.742,2.177 4.940,2.432 4.987 C 2.527 5.005,3.970 5.012,6.602 5.007 L 10.627 5.000 10.736 4.938 C 10.796 4.903,10.877 4.825,10.918 4.764 C 10.982 4.666,10.989 4.633,10.981 4.477 C 10.970 4.266,10.884 4.130,10.710 4.051 C 10.604 4.003,10.448 4.001,6.493 4.002 C 3.147 4.002,2.372 4.009,2.307 4.037 M14.987 8.507 L 14.987 10.000 8.000 10.000 L 1.013 10.000 1.013 8.507 L 1.013 7.013 8.000 7.013 L 14.987 7.013 14.987 8.507 M2.307 8.037 C 2.129 8.116,1.999 8.311,2.001 8.499 C 2.002 8.742,2.177 8.940,2.431 8.987 C 2.526 9.005,4.473 9.012,8.095 9.007 C 13.424 9.000,13.617 8.998,13.714 8.950 C 14.012 8.802,14.090 8.423,13.871 8.181 C 13.817 8.121,13.735 8.056,13.688 8.036 C 13.561 7.983,2.427 7.984,2.307 8.037 M14.987 12.106 C 14.987 13.139,14.984 13.206,14.932 13.343 C 14.821 13.641,14.600 13.851,14.297 13.947 C 14.130 13.999,14.058 14.000,8.002 14.000 C 1.243 14.000,1.740 14.013,1.461 13.835 C 1.306 13.737,1.196 13.614,1.100 13.432 L 1.027 13.293 1.019 12.153 L 1.011 11.013 7.999 11.013 L 14.987 11.013 14.987 12.106 M2.307 12.037 C 2.129 12.116,1.999 12.311,2.001 12.499 C 2.002 12.743,2.177 12.940,2.432 12.988 C 2.528 13.005,3.634 13.012,5.603 13.007 L 8.627 13.000 8.736 12.938 C 8.796 12.903,8.877 12.825,8.918 12.764 C 8.982 12.666,8.989 12.633,8.981 12.477 C 8.970 12.266,8.884 12.130,8.710 12.051 C 8.605 12.003,8.471 12.001,5.493 12.002 C 2.976 12.002,2.371 12.009,2.307 12.037 " stroke="none" fill="black" fill-rule="evenodd"></path></svg>