<svg width="1em" height="1em" viewBox="0 0 16 16" class="bi bi-music-note-list" fill="currentColor" xmlns="http://www.w3.org/2000/svg"><path d="M13.256 1.546 C 12.213 1.757,11.655 1.882,11.565 1.924 C 11.268 2.062,11.057 2.365,11.011 2.715 C 10.999 2.813,10.988 4.805,10.988 7.140 L 10.987 11.387 10.833 11.310 C 10.602 11.194,10.323 11.101,10.062 11.052 C 9.726 10.989,9.062 11.010,8.747 11.093 C 8.249 11.226,7.857 11.446,7.533 11.775 C 7.324 11.988,7.198 12.182,7.100 12.447 C 7.010 12.687,6.987 13.133,7.050 13.387 C 7.245 14.164,7.980 14.766,8.957 14.950 C 9.273 15.009,9.951 14.988,10.248 14.909 C 10.738 14.780,11.119 14.566,11.440 14.242 C 11.690 13.989,11.808 13.810,11.915 13.516 L 11.987 13.320 11.994 9.060 C 11.998 6.717,12.004 4.800,12.008 4.800 C 12.020 4.800,15.879 4.028,15.940 4.013 L 16.000 3.999 16.000 3.058 C 16.000 1.995,15.988 1.907,15.817 1.655 C 15.630 1.381,15.327 1.225,14.994 1.229 C 14.878 1.231,14.257 1.344,13.256 1.546 M0.280 3.055 C 0.160 3.118,0.104 3.176,0.050 3.293 C -0.005 3.414,-0.014 3.560,0.028 3.672 C 0.070 3.784,0.239 3.944,0.346 3.974 C 0.405 3.990,1.843 4.000,4.267 3.999 C 7.922 3.999,8.098 3.997,8.201 3.950 C 8.575 3.780,8.598 3.249,8.239 3.066 C 8.137 3.014,8.068 3.013,4.248 3.013 C 0.774 3.014,0.351 3.018,0.280 3.055 M0.280 7.055 C 0.160 7.118,0.104 7.176,0.050 7.293 C -0.005 7.414,-0.014 7.560,0.028 7.672 C 0.070 7.784,0.239 7.944,0.346 7.974 C 0.405 7.990,1.843 8.000,4.267 7.999 C 7.922 7.999,8.098 7.997,8.201 7.950 C 8.575 7.780,8.598 7.249,8.239 7.066 C 8.137 7.014,8.068 7.013,4.248 7.013 C 0.774 7.014,0.351 7.018,0.280 7.055 M0.280 11.055 C 0.160 11.118,0.104 11.176,0.050 11.293 C -0.005 11.414,-0.014 11.560,0.028 11.672 C 0.070 11.784,0.239 11.944,0.346 11.974 C 0.403 11.990,1.151 12.000,2.267 11.999 C 3.981 11.999,4.100 11.996,4.201 11.950 C 4.575 11.780,4.598 11.249,4.239 11.066 C 4.139 11.015,4.076 11.013,2.248 11.013 C 0.588 11.014,0.350 11.019,0.280 11.055 " stroke="none" fill="black" fill-rule="evenodd"></path></svg>