<svg width="1em" height="1em" viewBox="0 0 16 16" class="bi bi-node-minus-fill" fill="currentColor" xmlns="http://www.w3.org/2000/svg"><path d="M10.667 3.015 C 9.137 3.108,7.711 3.933,6.841 5.227 C 6.640 5.525,6.371 6.078,6.255 6.427 C 6.169 6.688,6.081 7.073,6.041 7.367 L 6.023 7.493 5.015 7.493 L 4.007 7.493 3.990 7.350 C 3.920 6.752,3.510 6.249,2.948 6.072 C 2.772 6.017,2.711 6.013,1.987 6.013 C 1.248 6.013,1.205 6.016,1.035 6.075 C 0.589 6.229,0.229 6.589,0.075 7.035 C 0.016 7.206,0.013 7.247,0.013 8.000 C 0.013 8.753,0.016 8.794,0.075 8.965 C 0.232 9.419,0.606 9.787,1.052 9.928 C 1.228 9.983,1.290 9.987,2.000 9.987 C 2.710 9.987,2.772 9.983,2.948 9.928 C 3.508 9.751,3.920 9.246,3.990 8.650 L 4.007 8.507 5.015 8.507 L 6.023 8.507 6.041 8.633 C 6.275 10.335,7.310 11.767,8.840 12.507 C 9.978 13.057,11.351 13.145,12.567 12.745 C 13.691 12.376,14.677 11.588,15.289 10.569 C 15.738 9.821,16.000 8.875,16.000 8.000 C 16.000 6.099,14.895 4.335,13.183 3.503 C 12.640 3.240,11.963 3.055,11.429 3.025 C 11.296 3.018,11.139 3.008,11.080 3.004 C 11.021 3.000,10.835 3.005,10.667 3.015 M13.633 7.521 C 13.833 7.577,13.999 7.793,13.999 8.000 C 13.999 8.207,13.833 8.423,13.633 8.479 C 13.496 8.517,8.504 8.517,8.367 8.479 C 8.167 8.423,8.001 8.207,8.001 8.000 C 8.001 7.884,8.078 7.713,8.167 7.631 C 8.318 7.493,8.252 7.496,10.987 7.495 C 12.660 7.494,13.567 7.503,13.633 7.521 " stroke="none" fill="black" fill-rule="evenodd"></path></svg>