<svg width="1em" height="1em" viewBox="0 0 16 16" class="bi bi-nut-fill" fill="currentColor" xmlns="http://www.w3.org/2000/svg"><path d="M4.211 1.076 C 4.038 1.147,3.897 1.249,3.806 1.368 C 3.745 1.448,0.418 7.255,0.250 7.573 C 0.180 7.708,0.173 7.743,0.173 8.000 C 0.173 8.257,0.180 8.292,0.250 8.427 C 0.293 8.507,1.102 9.929,2.049 11.586 C 3.330 13.827,3.801 14.629,3.887 14.715 C 4.032 14.860,4.244 14.959,4.475 14.989 C 4.573 15.001,6.159 15.012,8.000 15.012 C 9.841 15.012,11.427 15.001,11.525 14.989 C 11.756 14.959,11.968 14.860,12.113 14.715 C 12.199 14.629,12.675 13.818,13.973 11.546 C 14.933 9.868,15.745 8.428,15.778 8.347 C 15.862 8.144,15.862 7.856,15.778 7.653 C 15.745 7.572,14.933 6.132,13.973 4.454 C 12.675 2.182,12.199 1.371,12.113 1.285 C 12.049 1.221,11.929 1.137,11.845 1.098 L 11.693 1.027 8.027 1.020 L 4.360 1.014 4.211 1.076 M8.813 5.172 C 9.545 5.364,10.097 5.733,10.534 6.323 C 10.988 6.935,11.197 7.760,11.084 8.493 C 10.904 9.668,10.120 10.596,9.013 10.945 C 7.620 11.385,6.098 10.744,5.441 9.440 C 5.041 8.646,5.014 7.701,5.370 6.880 C 5.565 6.429,5.973 5.929,6.373 5.647 C 6.720 5.404,7.171 5.214,7.591 5.134 C 7.891 5.077,8.528 5.097,8.813 5.172 " stroke="none" fill="black" fill-rule="evenodd"></path></svg>