<svg width="1em" height="1em" viewBox="0 0 16 16" class="bi bi-patch-question-fll" fill="currentColor" xmlns="http://www.w3.org/2000/svg"><path d="M7.667 0.018 C 7.191 0.077,6.645 0.294,6.280 0.568 C 6.221 0.612,5.981 0.838,5.747 1.070 L 5.320 1.492 4.640 1.502 C 4.013 1.511,3.940 1.518,3.702 1.581 C 2.972 1.775,2.375 2.196,1.978 2.799 C 1.791 3.083,1.676 3.345,1.580 3.705 C 1.516 3.942,1.511 4.008,1.504 4.637 L 1.496 5.314 1.047 5.770 C 0.800 6.021,0.552 6.296,0.496 6.381 C 0.337 6.625,0.164 7.015,0.088 7.299 C 0.026 7.530,0.018 7.610,0.018 8.000 C 0.018 8.390,0.026 8.470,0.088 8.701 C 0.164 8.985,0.337 9.375,0.496 9.619 C 0.552 9.704,0.798 9.978,1.044 10.227 L 1.491 10.681 1.502 11.360 C 1.511 11.984,1.518 12.061,1.580 12.295 C 1.675 12.654,1.791 12.916,1.978 13.201 C 2.344 13.756,2.904 14.176,3.540 14.374 C 3.868 14.475,4.187 14.509,4.767 14.503 L 5.308 14.497 5.754 14.938 C 6.236 15.414,6.404 15.542,6.789 15.725 C 7.701 16.156,8.770 16.068,9.634 15.490 C 9.725 15.429,9.999 15.182,10.243 14.941 L 10.686 14.503 11.230 14.505 C 11.588 14.506,11.862 14.494,12.033 14.468 C 13.145 14.298,14.042 13.529,14.374 12.460 C 14.475 12.132,14.509 11.813,14.503 11.233 L 14.497 10.692 14.938 10.246 C 15.180 10.001,15.430 9.723,15.493 9.630 C 15.660 9.379,15.833 8.997,15.912 8.701 C 15.974 8.470,15.982 8.390,15.982 8.000 C 15.982 7.610,15.974 7.530,15.912 7.299 C 15.833 7.003,15.660 6.621,15.493 6.370 C 15.430 6.277,15.182 6.001,14.941 5.757 L 14.503 5.314 14.505 4.770 C 14.507 4.188,14.472 3.857,14.374 3.540 C 14.177 2.905,13.755 2.342,13.204 1.980 C 12.916 1.791,12.656 1.676,12.295 1.580 C 12.058 1.516,11.992 1.511,11.362 1.504 L 10.683 1.496 10.255 1.071 C 10.019 0.837,9.753 0.592,9.663 0.527 C 9.129 0.141,8.326 -0.064,7.667 0.018 M8.573 3.522 C 9.519 3.635,10.210 4.237,10.432 5.141 C 10.512 5.468,10.512 5.999,10.432 6.326 C 10.288 6.913,10.016 7.288,9.404 7.745 C 8.821 8.181,8.676 8.393,8.613 8.901 C 8.558 9.337,8.389 9.567,8.105 9.594 C 7.858 9.618,7.638 9.480,7.530 9.232 C 7.463 9.080,7.450 8.618,7.505 8.349 C 7.610 7.831,7.837 7.518,8.429 7.074 C 9.043 6.615,9.220 6.301,9.195 5.718 C 9.184 5.435,9.119 5.241,8.970 5.047 C 8.718 4.716,8.137 4.599,7.726 4.795 C 7.432 4.935,7.273 5.135,7.128 5.547 C 6.978 5.976,6.844 6.107,6.555 6.107 C 6.472 6.107,6.370 6.094,6.328 6.078 C 5.984 5.948,5.901 5.392,6.137 4.800 C 6.501 3.886,7.450 3.388,8.573 3.522 M8.433 10.103 C 8.942 10.346,9.143 10.970,8.874 11.474 C 8.593 12.002,7.890 12.157,7.407 11.800 C 6.878 11.409,6.878 10.591,7.407 10.200 C 7.702 9.982,8.101 9.945,8.433 10.103 " stroke="none" fill="black" fill-rule="evenodd"></path></svg>