<svg width="1em" height="1em" viewBox="0 0 16 16" class="bi bi-pencil" fill="currentColor" xmlns="http://www.w3.org/2000/svg"><path d="M11.662 1.061 C 11.586 1.088,11.460 1.160,11.382 1.221 C 11.304 1.281,9.204 3.368,6.716 5.859 C 3.430 9.148,2.176 10.419,2.132 10.507 C 2.099 10.573,1.833 11.341,1.542 12.213 C 1.053 13.679,1.012 13.815,1.011 13.994 C 1.008 14.329,1.141 14.598,1.410 14.800 C 1.588 14.933,1.766 14.991,2.002 14.990 C 2.178 14.989,2.317 14.948,3.803 14.452 C 5.128 14.011,5.442 13.897,5.567 13.812 C 5.659 13.750,7.524 11.904,10.270 9.155 C 15.436 3.983,14.973 4.490,14.973 4.000 C 14.973 3.541,15.011 3.591,13.710 2.290 C 12.434 1.015,12.460 1.035,12.041 1.020 C 11.858 1.014,11.767 1.024,11.662 1.061 M13.006 2.995 L 13.996 3.991 13.298 4.689 L 12.600 5.387 11.601 4.388 L 10.602 3.389 11.293 2.694 C 11.673 2.312,11.992 2.000,12.000 2.000 C 12.009 2.000,12.461 2.448,13.006 2.995 M10.900 5.100 L 11.893 6.094 8.947 9.040 L 6.000 11.987 5.999 11.693 C 5.999 11.349,5.956 11.224,5.798 11.104 C 5.701 11.029,5.685 11.026,5.356 11.018 L 5.013 11.009 5.013 10.788 C 5.013 10.353,4.930 10.151,4.710 10.051 C 4.623 10.012,4.535 10.001,4.293 10.000 L 3.987 10.000 6.933 7.054 C 8.554 5.433,9.886 4.107,9.893 4.107 C 9.901 4.107,10.354 4.554,10.900 5.100 M3.225 10.910 C 3.323 10.982,3.475 11.011,3.767 11.012 L 4.000 11.013 4.000 11.305 C 4.000 11.640,4.019 11.709,4.154 11.847 C 4.277 11.974,4.373 12.000,4.713 12.000 L 4.987 12.000 4.988 12.220 C 4.990 12.514,5.020 12.680,5.088 12.771 L 5.143 12.846 5.058 12.927 C 4.987 12.994,4.735 13.086,3.489 13.501 C 2.672 13.772,2.008 13.981,2.014 13.964 C 2.019 13.947,2.241 13.276,2.507 12.473 C 2.849 11.442,3.011 10.989,3.058 10.933 C 3.095 10.889,3.130 10.853,3.137 10.853 C 3.143 10.853,3.183 10.879,3.225 10.910 " stroke="none" fill="black" fill-rule="evenodd"></path></svg>