<svg width="1em" height="1em" viewBox="0 0 16 16" class="bi bi-pentagon" fill="currentColor" xmlns="http://www.w3.org/2000/svg"><path d="M4.053 3.204 C 1.890 4.964,0.093 6.426,0.060 6.453 L -0.000 6.501 1.499 11.251 L 2.999 16.000 8.000 16.000 L 13.000 16.000 14.489 11.283 C 15.308 8.689,15.980 6.549,15.982 6.528 C 15.985 6.505,14.269 5.093,11.994 3.244 C 9.799 1.460,7.999 0.001,7.994 0.002 C 7.990 0.003,6.217 1.444,4.053 3.204 M11.437 4.079 C 14.579 6.632,14.830 6.842,14.817 6.905 C 14.807 6.955,12.513 14.236,12.290 14.927 L 12.263 15.013 7.999 15.013 L 3.735 15.013 3.672 14.807 C 3.637 14.693,3.058 12.861,2.386 10.736 C 1.570 8.154,1.173 6.861,1.189 6.837 C 1.238 6.766,7.982 1.305,8.012 1.312 C 8.029 1.316,9.570 2.561,11.437 4.079 " stroke="none" fill="black" fill-rule="evenodd"></path></svg>