<svg width="1em" height="1em" viewBox="0 0 16 16" class="bi bi-person-lines-fill" fill="currentColor" xmlns="http://www.w3.org/2000/svg"><path d="M5.520 2.041 C 4.371 2.223,3.418 3.084,3.101 4.227 C 3.032 4.475,3.027 4.528,3.027 5.000 C 3.027 5.472,3.032 5.525,3.101 5.773 C 3.420 6.927,4.379 7.784,5.547 7.961 C 7.061 8.191,8.484 7.261,8.900 5.770 C 8.968 5.525,8.973 5.471,8.973 5.000 C 8.973 4.529,8.968 4.475,8.900 4.230 C 8.754 3.707,8.505 3.279,8.121 2.890 C 7.438 2.199,6.486 1.888,5.520 2.041 M11.266 3.063 C 11.162 3.126,11.045 3.265,11.023 3.350 C 11.014 3.386,11.012 3.480,11.019 3.559 C 11.033 3.736,11.132 3.877,11.290 3.949 C 11.394 3.996,11.506 3.999,13.480 3.999 C 14.800 4.000,15.595 3.990,15.657 3.973 C 15.803 3.932,15.965 3.744,15.988 3.587 C 16.022 3.362,15.915 3.148,15.723 3.057 C 15.641 3.018,15.409 3.013,13.489 3.013 C 11.449 3.014,11.343 3.016,11.266 3.063 M11.290 6.051 C 11.132 6.123,11.033 6.264,11.019 6.441 C 11.003 6.628,11.023 6.699,11.124 6.814 C 11.299 7.013,11.135 7.000,13.453 7.000 C 14.597 7.000,15.578 6.990,15.634 6.979 C 15.767 6.951,15.932 6.791,15.974 6.649 C 16.045 6.409,15.916 6.131,15.688 6.036 C 15.618 6.007,15.203 6.000,13.501 6.001 C 11.507 6.001,11.394 6.004,11.290 6.051 M4.988 9.041 C 3.625 9.181,2.526 9.550,1.690 10.150 C 0.831 10.766,0.244 11.631,0.052 12.562 C -0.072 13.168,0.044 13.580,0.405 13.814 C 0.691 13.999,0.278 13.987,6.000 13.987 C 11.722 13.987,11.309 13.999,11.595 13.814 C 11.957 13.580,12.072 13.168,11.947 12.560 C 11.804 11.862,11.425 11.184,10.867 10.626 C 10.043 9.800,8.892 9.294,7.347 9.078 C 6.980 9.026,5.374 9.001,4.988 9.041 M13.266 9.063 C 13.162 9.126,13.045 9.265,13.023 9.350 C 12.989 9.487,13.028 9.699,13.106 9.801 C 13.255 9.997,13.266 9.999,14.480 9.999 C 15.127 10.000,15.599 9.989,15.657 9.973 C 15.803 9.932,15.965 9.744,15.988 9.587 C 16.022 9.362,15.915 9.148,15.723 9.057 C 15.643 9.019,15.487 9.013,14.489 9.013 C 13.423 9.014,13.341 9.017,13.266 9.063 M13.290 12.051 C 13.132 12.123,13.033 12.264,13.019 12.441 C 13.003 12.628,13.023 12.699,13.124 12.814 C 13.293 13.006,13.251 13.000,14.453 13.000 C 15.047 13.000,15.578 12.990,15.634 12.979 C 15.767 12.951,15.932 12.791,15.974 12.649 C 16.025 12.477,15.989 12.310,15.871 12.181 C 15.706 11.997,15.727 12.000,14.501 12.001 C 13.483 12.001,13.392 12.005,13.290 12.051 " stroke="none" fill="black" fill-rule="evenodd"></path></svg>