<svg width="1em" height="1em" viewBox="0 0 16 16" class="bi bi-person-dash-fill" fill="currentColor" xmlns="http://www.w3.org/2000/svg"><path d="M5.520 2.041 C 4.371 2.223,3.418 3.084,3.101 4.227 C 3.032 4.475,3.027 4.528,3.027 5.000 C 3.027 5.472,3.032 5.525,3.101 5.773 C 3.512 7.256,4.944 8.190,6.453 7.961 C 7.625 7.783,8.576 6.931,8.900 5.770 C 8.968 5.525,8.973 5.471,8.973 5.000 C 8.973 4.529,8.968 4.475,8.900 4.230 C 8.482 2.732,7.044 1.800,5.520 2.041 M11.266 7.063 C 11.162 7.126,11.045 7.265,11.023 7.350 C 11.014 7.386,11.012 7.480,11.019 7.559 C 11.033 7.736,11.132 7.877,11.290 7.949 C 11.394 7.996,11.506 7.999,13.480 7.999 C 14.800 8.000,15.595 7.990,15.657 7.973 C 15.803 7.932,15.965 7.744,15.988 7.587 C 16.022 7.362,15.915 7.148,15.723 7.057 C 15.641 7.018,15.409 7.013,13.489 7.013 C 11.449 7.014,11.343 7.016,11.266 7.063 M4.988 9.042 C 3.209 9.214,1.816 9.826,0.947 10.818 C 0.489 11.341,0.180 11.943,0.052 12.562 C -0.072 13.168,0.044 13.580,0.405 13.814 C 0.691 13.999,0.278 13.987,6.000 13.987 C 11.722 13.987,11.309 13.999,11.595 13.814 C 11.957 13.580,12.072 13.168,11.947 12.560 C 11.777 11.733,11.264 10.915,10.553 10.338 C 9.650 9.604,8.486 9.183,6.973 9.041 C 6.636 9.009,5.322 9.010,4.988 9.042 " stroke="none" fill="black" fill-rule="evenodd"></path></svg>