<svg width="1em" height="1em" viewBox="0 0 16 16" class="bi bi-pie-chart-fill" fill="currentColor" xmlns="http://www.w3.org/2000/svg"><path d="M6.954 0.068 C 5.195 0.307,3.593 1.100,2.346 2.346 C -0.298 4.990,-0.758 9.093,1.234 12.267 C 1.384 12.505,1.741 12.993,1.918 13.200 L 1.998 13.293 4.746 10.547 L 7.493 7.800 7.493 3.913 L 7.493 0.027 7.353 0.029 C 7.276 0.031,7.097 0.048,6.954 0.068 M8.507 3.756 L 8.507 7.493 12.244 7.493 L 15.981 7.493 15.962 7.248 C 15.922 6.710,15.766 5.991,15.559 5.386 C 14.769 3.081,12.909 1.223,10.600 0.434 C 10.025 0.237,9.277 0.077,8.745 0.037 L 8.507 0.019 8.507 3.756 M5.453 11.255 L 2.707 14.003 2.787 14.070 C 4.360 15.387,6.253 16.056,8.227 15.992 C 9.429 15.953,10.473 15.694,11.533 15.171 C 13.479 14.213,14.917 12.554,15.600 10.480 C 15.790 9.903,15.972 8.999,15.973 8.620 L 15.973 8.507 12.087 8.507 L 8.200 8.507 5.453 11.255 " stroke="none" fill="black" fill-rule="evenodd"></path></svg>