<svg width="1em" height="1em" viewBox="0 0 16 16" class="bi bi-pip-fill" fill="currentColor" xmlns="http://www.w3.org/2000/svg"><path d="M1.253 2.018 C 1.093 2.045,0.845 2.144,0.702 2.238 C 0.406 2.431,0.188 2.709,0.075 3.035 L 0.013 3.213 0.013 8.000 L 0.013 12.787 0.075 12.965 C 0.232 13.419,0.606 13.787,1.052 13.928 L 1.240 13.987 8.000 13.987 L 14.760 13.987 14.948 13.928 C 15.402 13.785,15.785 13.402,15.928 12.948 L 15.987 12.760 15.987 8.000 L 15.987 3.240 15.928 3.052 C 15.786 2.603,15.416 2.227,14.962 2.073 L 14.787 2.013 8.053 2.010 C 4.350 2.008,1.290 2.012,1.253 2.018 M13.652 8.026 C 13.773 8.061,13.941 8.228,13.974 8.346 C 14.009 8.472,14.009 11.528,13.974 11.654 C 13.941 11.772,13.773 11.939,13.652 11.974 C 13.528 12.009,8.474 12.009,8.346 11.974 C 8.239 11.944,8.070 11.784,8.028 11.672 C 8.010 11.622,8.000 11.058,8.000 9.997 C 8.000 8.261,7.997 8.302,8.150 8.150 C 8.304 7.995,8.171 8.002,10.974 8.001 C 12.596 8.000,13.595 8.010,13.652 8.026 " stroke="none" fill="black" fill-rule="evenodd"></path></svg>