<svg width="1em" height="1em" viewBox="0 0 16 16" class="bi bi-question-square-fill" fill="currentColor" xmlns="http://www.w3.org/2000/svg"><path d="M1.600 0.042 C 0.952 0.181,0.407 0.629,0.157 1.226 C -0.010 1.625,0.000 1.207,0.000 8.000 C 0.000 14.793,-0.010 14.375,0.157 14.774 C 0.350 15.235,0.765 15.650,1.226 15.843 C 1.625 16.010,1.207 16.000,8.000 16.000 C 13.536 16.000,14.211 15.996,14.394 15.958 C 15.184 15.796,15.796 15.184,15.958 14.394 C 15.996 14.211,16.000 13.536,16.000 8.000 C 16.000 2.464,15.996 1.789,15.958 1.606 C 15.796 0.816,15.184 0.204,14.394 0.042 C 14.210 0.004,13.540 0.000,7.981 0.002 C 2.765 0.004,1.746 0.010,1.600 0.042 M8.387 3.520 C 9.603 3.654,10.424 4.287,10.628 5.248 C 10.649 5.346,10.666 5.562,10.666 5.728 C 10.668 6.572,10.367 7.085,9.464 7.773 C 8.837 8.251,8.671 8.412,8.549 8.659 C 8.460 8.839,8.427 9.026,8.427 9.348 L 8.427 9.627 7.771 9.627 L 7.115 9.627 7.125 9.153 C 7.135 8.725,7.143 8.661,7.207 8.475 C 7.372 8.002,7.655 7.667,8.333 7.142 C 8.878 6.720,9.076 6.507,9.171 6.240 C 9.230 6.073,9.252 5.837,9.226 5.635 C 9.148 5.019,8.671 4.658,7.933 4.657 C 7.252 4.657,6.788 4.993,6.625 5.603 C 6.604 5.682,6.587 5.791,6.587 5.844 C 6.586 6.037,6.625 6.027,5.900 6.027 L 5.245 6.027 5.262 5.753 C 5.303 5.078,5.584 4.497,6.054 4.114 C 6.614 3.659,7.529 3.426,8.387 3.520 M8.148 10.654 C 8.439 10.730,8.652 10.910,8.778 11.188 C 8.868 11.386,8.864 11.719,8.769 11.924 C 8.494 12.514,7.608 12.666,7.108 12.209 C 6.911 12.030,6.822 11.825,6.823 11.552 C 6.824 11.098,7.055 10.794,7.507 10.651 C 7.655 10.604,7.958 10.605,8.148 10.654 " stroke="none" fill="black" fill-rule="evenodd"></path></svg>