<svg width="1em" height="1em" viewBox="0 0 16 16" class="bi bi-reception-0" fill="currentColor" xmlns="http://www.w3.org/2000/svg"><path d="M0.280 13.055 C 0.160 13.118,0.104 13.176,0.050 13.293 C -0.005 13.414,-0.014 13.560,0.028 13.672 C 0.070 13.784,0.239 13.944,0.346 13.974 C 0.400 13.989,0.893 14.000,1.520 13.999 C 2.736 13.999,2.744 13.998,2.896 13.799 C 2.958 13.717,2.974 13.667,2.981 13.523 C 2.989 13.367,2.982 13.334,2.918 13.236 C 2.877 13.175,2.800 13.100,2.745 13.069 C 2.649 13.015,2.614 13.013,1.503 13.013 C 0.519 13.014,0.349 13.019,0.280 13.055 M4.280 13.055 C 4.160 13.118,4.104 13.176,4.050 13.293 C 3.995 13.414,3.986 13.560,4.028 13.672 C 4.070 13.784,4.239 13.944,4.346 13.974 C 4.400 13.989,4.893 14.000,5.520 13.999 C 6.736 13.999,6.744 13.998,6.896 13.799 C 6.958 13.717,6.974 13.667,6.981 13.523 C 6.989 13.367,6.982 13.334,6.918 13.236 C 6.877 13.175,6.800 13.100,6.745 13.069 C 6.649 13.015,6.614 13.013,5.503 13.013 C 4.519 13.014,4.349 13.019,4.280 13.055 M8.280 13.055 C 8.160 13.118,8.104 13.176,8.050 13.293 C 7.995 13.414,7.986 13.560,8.028 13.672 C 8.070 13.784,8.239 13.944,8.346 13.974 C 8.400 13.989,8.893 14.000,9.520 13.999 C 10.736 13.999,10.744 13.998,10.896 13.799 C 10.958 13.717,10.974 13.667,10.981 13.523 C 10.989 13.367,10.982 13.334,10.918 13.236 C 10.877 13.175,10.800 13.100,10.745 13.069 C 10.649 13.015,10.614 13.013,9.503 13.013 C 8.519 13.014,8.349 13.019,8.280 13.055 M12.280 13.055 C 12.160 13.118,12.104 13.176,12.050 13.293 C 11.995 13.414,11.986 13.560,12.028 13.672 C 12.070 13.784,12.239 13.944,12.346 13.974 C 12.400 13.989,12.893 14.000,13.520 13.999 C 14.736 13.999,14.744 13.998,14.896 13.799 C 14.958 13.717,14.974 13.667,14.981 13.523 C 14.989 13.367,14.982 13.334,14.918 13.236 C 14.877 13.175,14.800 13.100,14.745 13.069 C 14.649 13.015,14.614 13.013,13.503 13.013 C 12.519 13.014,12.349 13.019,12.280 13.055 " stroke="none" fill="black" fill-rule="evenodd"></path></svg>