<svg width="1em" height="1em" viewBox="0 0 16 16" class="bi bi-reception-4" fill="currentColor" xmlns="http://www.w3.org/2000/svg"><path d="M12.307 2.037 C 12.201 2.084,12.081 2.206,12.036 2.312 C 12.006 2.384,12.000 3.336,12.000 7.997 C 12.000 11.875,12.009 13.620,12.028 13.672 C 12.070 13.784,12.239 13.944,12.346 13.974 C 12.400 13.989,12.893 14.000,13.520 13.999 C 14.517 13.999,14.608 13.995,14.710 13.949 C 14.854 13.884,14.953 13.749,14.987 13.574 C 15.023 13.380,15.023 2.620,14.987 2.426 C 14.953 2.251,14.854 2.116,14.710 2.051 C 14.608 2.005,14.518 2.001,13.493 2.002 C 12.635 2.002,12.369 2.010,12.307 2.037 M8.280 5.055 C 8.160 5.118,8.104 5.176,8.050 5.293 C 8.003 5.395,8.001 5.579,8.001 9.498 C 8.000 12.320,8.009 13.620,8.028 13.672 C 8.070 13.784,8.239 13.944,8.346 13.974 C 8.400 13.989,8.893 14.000,9.520 13.999 C 10.517 13.999,10.608 13.995,10.710 13.949 C 10.854 13.884,10.953 13.749,10.987 13.574 C 11.018 13.406,11.021 5.628,10.990 5.435 C 10.964 5.279,10.870 5.139,10.743 5.068 C 10.649 5.015,10.607 5.013,9.503 5.013 C 8.519 5.014,8.349 5.019,8.280 5.055 M4.307 8.037 C 4.201 8.084,4.081 8.206,4.036 8.312 C 4.007 8.383,4.000 8.866,4.000 10.997 C 4.000 12.763,4.009 13.621,4.028 13.672 C 4.070 13.784,4.239 13.944,4.346 13.974 C 4.400 13.989,4.893 14.000,5.520 13.999 C 6.517 13.999,6.608 13.995,6.710 13.949 C 6.854 13.884,6.953 13.749,6.987 13.574 C 7.023 13.382,7.023 8.618,6.987 8.426 C 6.953 8.251,6.854 8.116,6.710 8.051 C 6.608 8.005,6.518 8.001,5.493 8.002 C 4.635 8.002,4.369 8.010,4.307 8.037 M0.280 11.055 C 0.160 11.118,0.104 11.176,0.050 11.293 C 0.005 11.391,0.001 11.490,0.001 12.498 C 0.000 13.208,0.010 13.623,0.028 13.672 C 0.070 13.784,0.239 13.944,0.346 13.974 C 0.400 13.989,0.893 14.000,1.520 13.999 C 2.517 13.999,2.608 13.995,2.710 13.949 C 2.854 13.884,2.953 13.749,2.987 13.574 C 3.018 13.410,3.020 11.621,2.990 11.435 C 2.964 11.279,2.870 11.139,2.743 11.068 C 2.649 11.015,2.607 11.013,1.503 11.013 C 0.519 11.014,0.349 11.019,0.280 11.055 " stroke="none" fill="black" fill-rule="evenodd"></path></svg>