<svg width="1em" height="1em" viewBox="0 0 16 16" class="bi bi-screwdriver" fill="currentColor" xmlns="http://www.w3.org/2000/svg"><path d="M0.498 0.502 L 0.000 1.000 1.094 2.533 C 1.695 3.377,2.239 4.122,2.302 4.190 C 2.497 4.399,2.674 4.471,3.085 4.505 C 3.578 4.546,3.288 4.290,6.583 7.584 L 9.499 10.499 9.320 11.042 C 9.149 11.559,9.141 11.596,9.152 11.787 C 9.175 12.187,9.098 12.095,11.075 14.075 C 12.046 15.047,12.893 15.878,12.958 15.921 L 13.076 16.000 13.497 16.000 C 13.861 16.000,13.930 15.993,14.000 15.950 C 14.140 15.866,15.889 14.112,15.947 14.000 C 15.993 13.909,16.000 13.843,16.000 13.486 C 16.000 13.076,16.000 13.076,15.921 12.958 C 15.878 12.893,15.047 12.046,14.075 11.075 C 12.095 9.098,12.187 9.175,11.787 9.152 C 11.596 9.141,11.559 9.149,11.042 9.320 L 10.499 9.499 7.584 6.583 C 4.290 3.288,4.546 3.578,4.505 3.085 C 4.472 2.692,4.407 2.519,4.220 2.325 C 4.148 2.250,1.244 0.156,1.023 0.020 C 1.009 0.010,0.772 0.227,0.498 0.502 M11.221 10.558 C 11.276 10.587,12.022 11.313,12.885 12.178 C 14.291 13.588,14.452 13.758,14.480 13.863 C 14.580 14.244,14.244 14.580,13.863 14.480 C 13.758 14.452,13.588 14.291,12.178 12.885 C 11.313 12.022,10.587 11.276,10.558 11.221 C 10.465 11.041,10.511 10.764,10.657 10.637 C 10.813 10.500,11.047 10.468,11.221 10.558 " stroke="none" fill="black" fill-rule="evenodd"></path></svg>