<svg width="1em" height="1em" viewBox="0 0 16 16" class="bi bi-segmented-nav" fill="currentColor" xmlns="http://www.w3.org/2000/svg"><path d="M1.600 4.042 C 0.952 4.181,0.407 4.629,0.157 5.226 C 0.011 5.575,0.000 5.702,0.000 7.000 C -0.000 8.298,0.011 8.425,0.157 8.774 C 0.350 9.235,0.765 9.650,1.226 9.843 C 1.625 10.010,1.207 10.000,8.000 10.000 C 13.536 10.000,14.211 9.996,14.394 9.958 C 15.184 9.796,15.796 9.184,15.958 8.394 C 16.020 8.092,16.020 5.908,15.958 5.606 C 15.796 4.816,15.184 4.204,14.394 4.042 C 14.210 4.004,13.540 4.000,7.981 4.002 C 2.765 4.004,1.746 4.010,1.600 4.042 M10.000 7.013 L 10.000 9.013 8.000 9.013 L 6.000 9.013 6.000 7.013 L 6.000 5.013 8.000 5.013 L 10.000 5.013 10.000 7.013 M14.428 5.099 C 14.616 5.192,14.808 5.384,14.901 5.572 L 14.973 5.720 14.973 7.000 L 14.973 8.280 14.901 8.428 C 14.810 8.612,14.617 8.808,14.441 8.894 C 14.367 8.930,14.223 8.971,14.120 8.986 C 14.014 9.001,13.301 9.013,12.473 9.013 L 11.013 9.013 11.013 7.013 L 11.013 5.012 12.647 5.019 L 14.280 5.027 14.428 5.099 " stroke="none" fill="black" fill-rule="evenodd"></path></svg>