<svg width="1em" height="1em" viewBox="0 0 16 16" class="bi bi-shield-fill-exclamation" fill="currentColor" xmlns="http://www.w3.org/2000/svg"><path d="M7.311 0.561 C 6.352 0.706,4.813 1.099,2.960 1.670 C 2.226 1.896,2.041 1.984,1.815 2.213 C 1.541 2.492,1.441 2.748,1.375 3.333 C 1.243 4.511,1.247 5.584,1.388 6.659 C 1.797 9.796,3.431 12.614,5.926 14.488 C 6.491 14.912,7.112 15.265,7.560 15.417 C 7.835 15.510,8.178 15.506,8.467 15.407 C 9.387 15.090,10.725 14.099,11.689 13.018 C 12.825 11.745,13.623 10.358,14.144 8.755 C 14.675 7.119,14.841 5.252,14.625 3.333 C 14.578 2.914,14.534 2.740,14.418 2.522 C 14.311 2.320,14.054 2.063,13.851 1.955 C 13.477 1.756,10.610 0.938,9.440 0.696 C 8.495 0.501,7.940 0.466,7.311 0.561 M8.352 4.074 C 8.634 4.199,8.863 4.507,8.894 4.804 C 8.916 5.012,8.552 8.580,8.499 8.682 C 8.444 8.786,8.298 8.923,8.205 8.958 C 8.164 8.974,8.071 8.987,8.000 8.987 C 7.929 8.987,7.836 8.974,7.795 8.958 C 7.702 8.923,7.556 8.786,7.501 8.682 C 7.447 8.579,7.084 5.012,7.106 4.802 C 7.143 4.459,7.401 4.148,7.742 4.037 C 7.897 3.986,8.196 4.004,8.352 4.074 M8.433 10.103 C 8.942 10.346,9.143 10.970,8.874 11.474 C 8.593 12.002,7.890 12.157,7.407 11.800 C 6.878 11.409,6.878 10.591,7.407 10.200 C 7.702 9.982,8.101 9.945,8.433 10.103 " stroke="none" fill="black" fill-rule="evenodd"></path></svg>