<svg width="1em" height="1em" viewBox="0 0 16 16" class="bi bi-shift" fill="currentColor" xmlns="http://www.w3.org/2000/svg"><path d="M7.717 1.770 C 7.657 1.789,7.556 1.834,7.493 1.869 C 7.413 1.914,6.403 2.973,4.202 5.321 C 2.456 7.184,0.970 8.771,0.901 8.849 C 0.736 9.034,0.662 9.233,0.662 9.493 C 0.662 9.895,0.851 10.203,1.211 10.387 L 1.420 10.493 2.963 10.501 L 4.505 10.509 4.513 12.141 L 4.520 13.773 4.592 13.920 C 4.674 14.087,4.842 14.269,5.000 14.361 C 5.251 14.509,5.207 14.507,7.999 14.506 C 10.046 14.506,10.604 14.499,10.724 14.470 C 11.016 14.402,11.262 14.205,11.403 13.925 L 11.480 13.773 11.487 12.141 L 11.495 10.509 13.034 10.501 C 14.702 10.492,14.628 10.498,14.889 10.338 C 15.350 10.056,15.484 9.367,15.163 8.933 C 15.114 8.867,13.621 7.263,11.844 5.368 C 8.758 2.077,8.606 1.920,8.437 1.837 C 8.291 1.765,8.226 1.749,8.044 1.742 C 7.912 1.737,7.784 1.748,7.717 1.770 M11.178 6.120 L 14.327 9.480 12.810 9.493 C 11.330 9.506,11.290 9.508,11.152 9.565 C 10.870 9.680,10.653 9.902,10.559 10.170 C 10.509 10.311,10.507 10.398,10.507 11.906 L 10.507 13.493 8.001 13.493 L 5.495 13.493 5.487 11.860 L 5.480 10.227 5.405 10.078 C 5.283 9.837,5.098 9.667,4.848 9.565 C 4.710 9.508,4.671 9.506,3.190 9.493 L 1.673 9.480 4.829 6.113 C 6.565 4.261,7.995 2.749,8.007 2.753 C 8.018 2.757,9.446 4.272,11.178 6.120 " stroke="none" fill="black" fill-rule="evenodd"></path></svg>