<svg width="1em" height="1em" viewBox="0 0 16 16" class="bi bi-shop-window" fill="currentColor" xmlns="http://www.w3.org/2000/svg"><path d="M3.267 1.064 C 3.223 1.091,3.143 1.160,3.089 1.217 C 2.819 1.503,0.325 4.435,0.236 4.572 C 0.061 4.839,0.013 5.041,0.016 5.493 C 0.019 5.799,0.031 5.925,0.077 6.093 C 0.222 6.631,0.541 7.096,0.996 7.431 C 1.205 7.586,1.396 7.681,1.680 7.775 C 1.890 7.844,1.939 7.850,2.347 7.851 C 2.731 7.853,2.814 7.846,3.000 7.792 C 3.419 7.670,3.898 7.375,4.138 7.091 L 4.245 6.964 4.407 7.136 C 4.608 7.352,4.970 7.596,5.244 7.702 C 5.582 7.832,5.850 7.875,6.223 7.859 C 6.595 7.844,6.804 7.795,7.111 7.653 C 7.398 7.520,7.544 7.419,7.793 7.177 L 8.000 6.977 8.207 7.177 C 8.456 7.419,8.602 7.520,8.889 7.653 C 9.243 7.817,9.421 7.853,9.880 7.853 C 10.216 7.853,10.314 7.843,10.493 7.792 C 10.931 7.666,11.345 7.415,11.618 7.109 L 11.751 6.959 11.860 7.088 C 12.102 7.375,12.580 7.670,13.000 7.792 C 13.186 7.846,13.269 7.853,13.653 7.851 C 14.061 7.850,14.110 7.844,14.320 7.775 C 14.603 7.682,14.795 7.586,15.002 7.433 C 15.456 7.098,15.779 6.629,15.923 6.093 C 15.969 5.925,15.981 5.799,15.984 5.493 C 15.987 5.041,15.939 4.839,15.764 4.572 C 15.669 4.426,13.151 1.469,12.897 1.205 C 12.837 1.141,12.754 1.072,12.715 1.051 C 12.653 1.019,11.958 1.013,7.995 1.013 C 3.494 1.014,3.344 1.015,3.267 1.064 M13.597 3.544 C 14.321 4.391,14.931 5.116,14.951 5.155 C 15.004 5.256,15.000 5.681,14.945 5.867 C 14.773 6.445,14.302 6.822,13.695 6.869 C 13.239 6.905,12.718 6.637,12.465 6.238 C 12.364 6.078,12.268 5.798,12.267 5.661 C 12.266 5.371,12.158 5.149,11.971 5.052 C 11.883 5.007,11.662 5.001,11.555 5.042 C 11.391 5.104,11.253 5.307,11.253 5.487 C 11.253 6.164,10.734 6.762,10.063 6.858 C 9.399 6.953,8.735 6.519,8.556 5.873 C 8.529 5.775,8.507 5.639,8.507 5.571 C 8.507 5.234,8.306 5.013,8.000 5.013 C 7.694 5.013,7.494 5.233,7.493 5.571 C 7.492 6.017,7.176 6.502,6.746 6.717 C 6.470 6.855,6.221 6.899,5.937 6.858 C 5.323 6.770,4.848 6.289,4.770 5.676 C 4.731 5.364,4.702 5.268,4.621 5.171 C 4.529 5.063,4.410 5.013,4.240 5.013 C 3.926 5.013,3.735 5.258,3.733 5.661 C 3.731 5.923,3.497 6.362,3.256 6.555 C 2.471 7.184,1.341 6.830,1.055 5.867 C 1.000 5.681,0.996 5.256,1.049 5.155 C 1.069 5.116,1.679 4.391,2.403 3.544 L 3.720 2.003 8.000 2.003 L 12.280 2.003 13.597 3.544 M1.000 8.609 C 0.993 8.616,0.987 10.059,0.987 11.816 L 0.987 15.009 0.644 15.018 C 0.315 15.026,0.299 15.029,0.202 15.104 C 0.032 15.233,-0.044 15.481,0.028 15.672 C 0.070 15.784,0.239 15.944,0.346 15.974 C 0.478 16.010,15.525 16.009,15.657 15.973 C 15.803 15.932,15.965 15.744,15.988 15.587 C 16.022 15.362,15.915 15.148,15.723 15.057 C 15.655 15.024,15.552 15.013,15.323 15.013 L 15.013 15.013 15.013 11.818 C 15.013 10.060,15.007 8.616,15.000 8.609 C 14.992 8.601,14.871 8.635,14.731 8.684 C 14.591 8.733,14.369 8.793,14.238 8.817 L 14.000 8.860 14.000 11.937 L 14.000 15.013 8.000 15.013 L 2.000 15.013 2.000 11.937 L 2.000 8.860 1.762 8.817 C 1.631 8.793,1.409 8.733,1.269 8.684 C 1.129 8.635,1.008 8.601,1.000 8.609 M2.987 10.967 C 2.988 12.041,3.000 13.007,3.013 13.113 C 3.054 13.426,3.209 13.675,3.461 13.835 C 3.736 14.010,3.454 14.000,8.002 14.000 C 12.066 14.000,12.130 13.999,12.302 13.946 C 12.599 13.854,12.810 13.652,12.941 13.330 C 13.000 13.187,13.000 13.181,13.008 11.100 L 13.016 9.013 12.508 9.013 L 12.000 9.013 12.000 11.013 L 12.000 13.013 8.000 13.013 L 4.000 13.013 4.000 11.013 L 4.000 9.013 3.493 9.013 L 2.987 9.013 2.987 10.967 " stroke="none" fill="black" fill-rule="evenodd"></path></svg>