<svg width="1em" height="1em" viewBox="0 0 16 16" class="bi bi-shuffle" fill="currentColor" xmlns="http://www.w3.org/2000/svg"><path d="M12.947 1.006 C 12.804 1.031,12.767 1.047,12.677 1.127 C 12.623 1.174,12.563 1.251,12.543 1.299 C 12.494 1.415,12.497 1.610,12.549 1.715 C 12.573 1.762,12.972 2.181,13.436 2.647 L 14.280 3.493 13.573 3.493 C 13.185 3.493,12.735 3.506,12.573 3.521 C 10.881 3.682,9.603 4.618,8.168 6.750 L 7.939 7.091 7.680 6.725 C 6.975 5.731,6.387 5.085,5.733 4.587 C 4.917 3.965,3.995 3.610,2.973 3.521 C 2.551 3.485,0.498 3.485,0.367 3.521 C 0.169 3.576,0.002 3.792,0.001 3.994 C -0.000 4.102,0.063 4.258,0.141 4.342 C 0.285 4.496,0.243 4.492,1.747 4.509 C 3.045 4.524,3.150 4.529,3.400 4.584 C 4.506 4.829,5.356 5.401,6.271 6.520 C 6.498 6.798,6.841 7.264,7.119 7.674 L 7.342 8.001 7.173 8.247 C 6.841 8.730,6.642 9.006,6.429 9.281 C 5.460 10.526,4.562 11.159,3.400 11.416 C 3.150 11.471,3.045 11.476,1.747 11.491 C 0.243 11.508,0.285 11.504,0.141 11.658 C 0.063 11.742,-0.000 11.898,0.001 12.006 C 0.002 12.208,0.169 12.424,0.367 12.479 C 0.498 12.515,2.551 12.515,2.973 12.479 C 3.989 12.391,4.920 12.033,5.726 11.419 C 6.386 10.916,6.975 10.269,7.680 9.275 L 7.939 8.909 8.149 9.221 C 8.612 9.909,9.037 10.447,9.466 10.891 C 10.414 11.871,11.383 12.366,12.573 12.479 C 12.735 12.494,13.185 12.507,13.573 12.507 L 14.280 12.507 13.436 13.353 C 12.972 13.819,12.573 14.238,12.549 14.285 C 12.500 14.383,12.494 14.575,12.535 14.685 C 12.570 14.778,12.682 14.899,12.782 14.951 C 12.880 15.002,13.121 15.002,13.218 14.950 C 13.259 14.928,13.884 14.318,14.606 13.595 C 15.938 12.260,16.000 12.189,16.000 12.000 C 16.000 11.811,15.938 11.740,14.606 10.405 C 13.884 9.682,13.259 9.072,13.218 9.050 C 13.121 8.998,12.880 8.998,12.782 9.049 C 12.682 9.101,12.570 9.222,12.535 9.315 C 12.494 9.425,12.500 9.617,12.549 9.715 C 12.573 9.762,12.972 10.181,13.436 10.647 L 14.280 11.493 13.480 11.493 C 12.561 11.493,12.310 11.466,11.871 11.319 C 11.312 11.132,10.859 10.846,10.353 10.362 C 9.870 9.899,9.507 9.443,8.869 8.501 L 8.531 8.001 8.850 7.527 C 9.473 6.601,9.868 6.104,10.353 5.638 C 10.951 5.064,11.527 4.740,12.253 4.569 C 12.402 4.534,12.628 4.523,13.360 4.515 L 14.280 4.504 13.436 5.352 C 12.972 5.818,12.573 6.238,12.549 6.285 C 12.500 6.383,12.494 6.575,12.535 6.685 C 12.570 6.778,12.682 6.899,12.782 6.951 C 12.880 7.002,13.121 7.002,13.218 6.950 C 13.259 6.928,13.884 6.318,14.606 5.595 C 15.509 4.690,15.931 4.249,15.959 4.181 C 16.013 4.050,16.010 3.930,15.949 3.800 C 15.875 3.641,13.268 1.049,13.160 1.027 C 13.028 0.999,13.002 0.997,12.947 1.006 " stroke="none" fill="black" fill-rule="evenodd"></path></svg>