<svg width="1em" height="1em" viewBox="0 0 16 16" class="bi bi-signpost-split" fill="currentColor" xmlns="http://www.w3.org/2000/svg"><path d="M7.689 0.464 C 7.528 0.516,7.411 0.595,7.269 0.747 C 7.116 0.911,7.049 1.054,7.014 1.296 C 6.998 1.409,6.988 2.553,6.987 4.247 L 6.987 7.013 4.388 7.013 C 1.831 7.013,1.786 7.014,1.642 7.068 C 1.418 7.152,1.260 7.317,0.737 8.013 C 0.161 8.779,0.134 8.824,0.134 9.000 C 0.134 9.176,0.161 9.221,0.737 9.987 C 1.258 10.681,1.415 10.844,1.648 10.939 L 1.800 11.000 4.393 11.008 L 6.987 11.016 6.987 13.508 L 6.987 16.000 8.000 16.000 L 9.013 16.000 9.013 11.000 L 9.013 6.000 11.571 6.000 C 14.049 6.000,14.133 5.998,14.300 5.947 C 14.579 5.861,14.675 5.765,15.247 5.005 C 15.536 4.621,15.793 4.265,15.819 4.214 C 15.845 4.164,15.867 4.067,15.867 4.000 C 15.867 3.933,15.845 3.836,15.819 3.786 C 15.793 3.735,15.536 3.379,15.247 2.995 C 14.675 2.235,14.579 2.139,14.300 2.053 C 14.133 2.002,14.049 2.000,11.571 2.000 L 9.013 2.000 9.013 1.740 C 9.012 1.202,8.945 0.973,8.718 0.733 C 8.516 0.520,8.344 0.444,8.041 0.435 C 7.890 0.430,7.758 0.441,7.689 0.464 M14.380 3.508 L 14.747 4.000 14.367 4.507 L 13.987 5.013 10.994 5.013 L 8.000 5.013 8.000 4.013 L 8.000 3.013 11.007 3.014 L 14.013 3.016 14.380 3.508 M8.000 9.000 L 8.000 10.000 5.001 10.000 L 2.001 10.000 1.636 9.515 C 1.435 9.248,1.271 9.016,1.271 9.000 C 1.271 8.984,1.435 8.752,1.636 8.485 L 2.001 8.000 5.001 8.000 L 8.000 8.000 8.000 9.000 " stroke="none" fill="black" fill-rule="evenodd"></path></svg>