<svg width="1em" height="1em" viewBox="0 0 16 16" class="bi bi-sim-fill" fill="currentColor" xmlns="http://www.w3.org/2000/svg"><path d="M3.253 0.018 C 3.094 0.045,2.845 0.144,2.702 0.238 C 2.406 0.431,2.188 0.709,2.075 1.035 L 2.013 1.213 2.013 8.000 L 2.013 14.787 2.075 14.965 C 2.232 15.419,2.606 15.787,3.052 15.928 L 3.240 15.987 8.000 15.987 L 12.760 15.987 12.948 15.928 C 13.402 15.785,13.785 15.402,13.928 14.948 L 13.987 14.760 13.987 8.947 C 13.987 3.336,13.985 3.128,13.937 2.987 C 13.808 2.609,13.788 2.585,12.602 1.398 C 11.585 0.381,11.462 0.266,11.287 0.176 C 10.928 -0.008,11.134 0.001,7.027 0.004 C 4.988 0.006,3.290 0.012,3.253 0.018 M10.892 3.054 C 11.410 3.189,11.849 3.653,11.962 4.184 C 12.018 4.449,12.017 11.555,11.961 11.820 C 11.845 12.366,11.380 12.835,10.826 12.966 C 10.607 13.017,5.383 13.016,5.173 12.964 C 4.607 12.825,4.155 12.368,4.038 11.816 C 3.983 11.554,3.983 4.446,4.038 4.184 C 4.149 3.664,4.571 3.209,5.079 3.063 C 5.227 3.021,5.469 3.017,7.988 3.015 C 10.373 3.014,10.756 3.019,10.892 3.054 M5.290 4.051 C 5.146 4.116,5.047 4.251,5.013 4.426 C 4.999 4.504,4.987 4.890,4.987 5.284 L 4.987 6.000 6.240 6.000 L 7.493 6.000 7.493 5.000 L 7.493 4.000 6.447 4.001 C 5.482 4.001,5.391 4.005,5.290 4.051 M8.507 5.000 L 8.507 6.000 9.760 6.000 L 11.013 6.000 11.013 5.284 C 11.013 4.497,10.994 4.330,10.890 4.193 C 10.746 4.004,10.725 4.001,9.553 4.001 L 8.507 4.000 8.507 5.000 M4.993 8.007 L 5.000 9.000 8.000 9.000 L 11.000 9.000 11.007 8.007 L 11.014 7.013 8.000 7.013 L 4.986 7.013 4.993 8.007 M4.987 10.716 C 4.987 11.503,5.006 11.670,5.110 11.807 C 5.254 11.996,5.275 11.999,6.447 11.999 L 7.493 12.000 7.493 11.000 L 7.493 10.000 6.240 10.000 L 4.987 10.000 4.987 10.716 M8.507 11.000 L 8.507 12.000 9.553 11.999 C 10.725 11.999,10.746 11.996,10.890 11.807 C 10.994 11.670,11.013 11.503,11.013 10.716 L 11.013 10.000 9.760 10.000 L 8.507 10.000 8.507 11.000 " stroke="none" fill="black" fill-rule="evenodd"></path></svg>