<svg width="1em" height="1em" viewBox="0 0 16 16" class="bi bi-skip-start-fill" fill="currentColor" xmlns="http://www.w3.org/2000/svg"><path d="M4.337 3.532 C 4.205 3.579,4.112 3.666,4.050 3.800 C 4.003 3.902,4.001 4.077,4.001 8.000 C 4.001 11.914,4.003 12.098,4.050 12.201 C 4.222 12.580,4.745 12.597,4.941 12.231 C 5.000 12.120,5.000 12.119,5.008 10.447 C 5.012 9.526,5.020 8.773,5.025 8.773 C 5.031 8.773,6.455 9.598,8.191 10.605 C 10.153 11.744,11.397 12.451,11.480 12.473 C 11.852 12.575,12.266 12.372,12.436 12.003 L 12.493 11.880 12.493 8.000 L 12.493 4.120 12.436 3.997 C 12.266 3.628,11.851 3.425,11.480 3.527 C 11.398 3.550,10.141 4.264,8.192 5.395 C 6.457 6.403,5.032 7.227,5.026 7.227 C 5.020 7.227,5.012 6.474,5.008 5.553 C 5.000 3.881,5.000 3.880,4.941 3.769 C 4.876 3.648,4.783 3.572,4.643 3.524 C 4.528 3.485,4.465 3.487,4.337 3.532 " stroke="none" fill="black" fill-rule="evenodd"></path></svg>