<svg width="1em" height="1em" viewBox="0 0 16 16" class="bi bi-sort-alpha-up-alt" fill="currentColor" xmlns="http://www.w3.org/2000/svg"><path d="M9.093 2.107 L 9.093 2.533 10.350 2.533 C 11.533 2.533,11.605 2.536,11.594 2.580 C 11.587 2.606,11.009 3.451,10.311 4.458 L 9.040 6.289 9.040 6.651 L 9.040 7.013 11.000 7.013 L 12.960 7.013 12.960 6.573 L 12.960 6.133 11.640 6.133 C 10.601 6.133,10.320 6.126,10.321 6.100 C 10.321 6.082,10.897 5.233,11.601 4.215 L 12.880 2.363 12.880 2.022 L 12.880 1.680 10.987 1.680 L 9.093 1.680 9.093 2.107 M3.800 2.038 C 3.707 2.080,1.608 4.176,1.549 4.286 C 1.527 4.327,1.509 4.427,1.508 4.509 C 1.507 4.786,1.713 4.987,2.000 4.987 C 2.075 4.987,2.174 4.967,2.221 4.944 C 2.268 4.921,2.574 4.636,2.900 4.311 L 3.493 3.720 3.493 8.627 C 3.494 11.920,3.503 13.566,3.521 13.633 C 3.577 13.833,3.793 13.999,4.000 13.999 C 4.207 13.999,4.423 13.833,4.479 13.633 C 4.497 13.566,4.506 11.920,4.507 8.627 L 4.507 3.720 5.100 4.311 C 5.426 4.636,5.734 4.922,5.785 4.947 C 5.995 5.053,6.286 4.971,6.420 4.769 C 6.478 4.681,6.492 4.628,6.492 4.509 C 6.491 4.427,6.473 4.327,6.451 4.286 C 6.388 4.169,4.290 2.079,4.194 2.037 C 4.086 1.991,3.905 1.991,3.800 2.038 M9.499 11.313 C 9.011 12.769,8.612 13.969,8.613 13.980 C 8.613 13.991,8.850 14.000,9.140 14.000 L 9.667 14.000 9.870 13.326 L 10.074 12.653 10.969 12.646 L 11.863 12.639 11.957 12.940 C 12.008 13.105,12.102 13.411,12.165 13.620 L 12.279 14.000 12.833 14.000 C 13.138 14.000,13.387 13.991,13.387 13.980 C 13.387 13.969,12.990 12.769,12.504 11.313 L 11.622 8.667 11.004 8.667 L 10.387 8.667 9.499 11.313 M11.319 10.747 C 11.489 11.311,11.634 11.788,11.640 11.807 C 11.649 11.833,11.505 11.840,10.977 11.840 L 10.302 11.840 10.618 10.793 C 10.989 9.564,10.956 9.665,10.986 9.696 C 10.999 9.709,11.149 10.182,11.319 10.747 " stroke="none" fill="black" fill-rule="evenodd"></path></svg>