<svg width="1em" height="1em" viewBox="0 0 16 16" class="bi bi-sort-up" fill="currentColor" xmlns="http://www.w3.org/2000/svg"><path d="M2.787 2.044 C 2.670 2.105,0.619 4.155,0.558 4.272 C 0.501 4.381,0.491 4.568,0.535 4.685 C 0.570 4.778,0.682 4.899,0.782 4.951 C 0.873 4.998,1.118 5.003,1.205 4.959 C 1.239 4.942,1.546 4.650,1.887 4.311 L 2.507 3.694 2.507 8.152 C 2.507 11.237,2.515 12.633,2.535 12.685 C 2.604 12.868,2.790 12.987,3.006 12.987 C 3.165 12.987,3.292 12.923,3.398 12.791 L 3.480 12.688 3.493 8.197 L 3.507 3.706 4.107 4.308 C 4.437 4.639,4.741 4.928,4.782 4.950 C 4.879 5.002,5.120 5.002,5.218 4.951 C 5.318 4.899,5.430 4.778,5.465 4.685 C 5.509 4.568,5.499 4.381,5.442 4.272 C 5.378 4.150,3.326 2.101,3.208 2.043 C 3.100 1.989,2.891 1.989,2.787 2.044 M7.266 3.063 C 7.162 3.126,7.045 3.265,7.023 3.350 C 7.014 3.386,7.012 3.480,7.019 3.559 C 7.033 3.736,7.132 3.877,7.290 3.949 C 7.396 3.997,7.541 3.999,11.000 3.999 C 14.459 3.999,14.604 3.997,14.710 3.949 C 14.884 3.870,14.970 3.734,14.981 3.523 C 14.989 3.367,14.982 3.334,14.918 3.236 C 14.877 3.175,14.800 3.100,14.745 3.069 L 14.646 3.013 10.996 3.013 C 7.488 3.014,7.344 3.015,7.266 3.063 M7.290 6.051 C 7.132 6.123,7.033 6.264,7.019 6.441 C 7.003 6.628,7.023 6.699,7.124 6.814 C 7.300 7.015,7.071 7.000,10.000 7.000 L 12.627 7.000 12.736 6.938 C 12.796 6.903,12.877 6.825,12.918 6.764 C 12.982 6.666,12.989 6.633,12.981 6.477 C 12.970 6.266,12.884 6.130,12.710 6.051 C 12.605 6.003,12.482 6.001,10.000 6.001 C 7.518 6.001,7.395 6.003,7.290 6.051 M7.266 9.063 C 7.162 9.126,7.045 9.265,7.023 9.350 C 6.989 9.487,7.028 9.699,7.106 9.801 C 7.261 10.005,7.203 9.999,9.000 9.999 C 10.799 9.999,10.739 10.005,10.896 9.799 C 10.958 9.717,10.974 9.667,10.981 9.523 C 10.989 9.367,10.982 9.334,10.918 9.236 C 10.877 9.175,10.800 9.100,10.745 9.069 C 10.648 9.014,10.621 9.013,8.996 9.013 C 7.437 9.014,7.342 9.016,7.266 9.063 M7.290 12.051 C 7.132 12.123,7.033 12.264,7.019 12.441 C 7.003 12.628,7.023 12.699,7.124 12.814 C 7.284 12.996,7.302 13.000,8.000 13.000 C 8.608 13.000,8.630 12.998,8.736 12.938 C 8.796 12.903,8.877 12.825,8.918 12.764 C 8.982 12.666,8.989 12.633,8.981 12.477 C 8.974 12.333,8.958 12.283,8.896 12.201 C 8.756 12.018,8.681 12.001,8.000 12.001 C 7.471 12.001,7.387 12.007,7.290 12.051 " stroke="none" fill="black" fill-rule="evenodd"></path></svg>