<svg width="1em" height="1em" viewBox="0 0 16 16" class="bi bi-sort-alpha-down" fill="currentColor" xmlns="http://www.w3.org/2000/svg"><path d="M9.498 4.315 C 9.011 5.764,8.613 6.965,8.613 6.982 C 8.613 7.007,8.742 7.013,9.139 7.007 L 9.664 7.000 9.819 6.493 C 9.904 6.215,9.998 5.906,10.028 5.807 L 10.082 5.627 10.973 5.627 L 11.864 5.627 11.919 5.808 C 11.948 5.908,12.042 6.217,12.127 6.495 L 12.281 7.000 12.834 7.007 C 13.285 7.013,13.387 7.008,13.387 6.978 C 13.387 6.949,12.603 4.593,11.781 2.153 L 11.622 1.680 11.002 1.680 L 10.382 1.680 9.498 4.315 M3.799 2.050 C 3.667 2.110,3.558 2.235,3.521 2.367 C 3.503 2.434,3.494 4.080,3.493 7.373 L 3.493 12.280 2.900 11.689 C 2.574 11.364,2.266 11.078,2.215 11.053 C 2.005 10.947,1.714 11.029,1.580 11.231 C 1.522 11.319,1.508 11.372,1.508 11.491 C 1.509 11.573,1.527 11.673,1.549 11.714 C 1.612 11.831,3.710 13.921,3.806 13.963 C 3.916 14.010,4.085 14.010,4.194 13.963 C 4.243 13.942,4.752 13.451,5.365 12.836 C 6.333 11.863,6.452 11.734,6.480 11.629 C 6.587 11.223,6.157 10.867,5.785 11.053 C 5.734 11.078,5.426 11.364,5.100 11.689 L 4.507 12.280 4.507 7.373 C 4.506 4.080,4.497 2.434,4.479 2.367 C 4.423 2.167,4.207 2.001,4.000 2.001 C 3.949 2.001,3.858 2.023,3.799 2.050 M11.318 3.740 C 11.492 4.316,11.639 4.802,11.646 4.820 C 11.656 4.846,11.514 4.853,10.990 4.853 C 10.442 4.853,10.320 4.847,10.320 4.817 C 10.320 4.779,10.929 2.749,10.951 2.713 C 10.958 2.702,10.972 2.693,10.983 2.693 C 10.994 2.693,11.145 3.164,11.318 3.740 M9.099 9.100 L 9.107 9.533 10.353 9.540 C 11.097 9.544,11.600 9.557,11.600 9.572 C 11.600 9.586,11.024 10.428,10.320 11.443 L 9.040 13.290 9.040 13.645 L 9.040 14.000 11.000 14.000 L 12.960 14.000 12.960 13.560 L 12.960 13.120 11.638 13.120 C 10.570 13.120,10.318 13.113,10.325 13.086 C 10.329 13.067,10.906 12.221,11.607 11.207 L 12.880 9.363 12.880 9.015 L 12.880 8.667 10.986 8.667 L 9.092 8.667 9.099 9.100 " stroke="none" fill="black" fill-rule="evenodd"></path></svg>