<svg width="1em" height="1em" viewBox="0 0 16 16" class="bi bi-square-half" fill="currentColor" xmlns="http://www.w3.org/2000/svg"><path d="M1.600 0.042 C 0.952 0.181,0.407 0.629,0.157 1.226 C -0.010 1.625,0.000 1.207,0.000 8.000 C 0.000 14.793,-0.010 14.375,0.157 14.774 C 0.350 15.235,0.765 15.650,1.226 15.843 C 1.625 16.010,1.207 16.000,8.000 16.000 C 13.536 16.000,14.211 15.996,14.394 15.958 C 15.184 15.796,15.796 15.184,15.958 14.394 C 15.996 14.211,16.000 13.536,16.000 8.000 C 16.000 2.464,15.996 1.789,15.958 1.606 C 15.796 0.816,15.184 0.204,14.394 0.042 C 14.210 0.004,13.540 0.000,7.981 0.002 C 2.765 0.004,1.746 0.010,1.600 0.042 M14.428 1.099 C 14.616 1.192,14.808 1.384,14.901 1.572 L 14.973 1.720 14.980 7.946 C 14.986 13.403,14.982 14.188,14.947 14.309 C 14.869 14.578,14.593 14.857,14.310 14.953 C 14.184 14.996,13.936 15.000,11.087 15.007 L 8.000 15.015 8.000 8.014 L 8.000 1.012 11.140 1.020 L 14.280 1.027 14.428 1.099 " stroke="none" fill="black" fill-rule="evenodd"></path></svg>