<svg width="1em" height="1em" viewBox="0 0 16 16" class="bi bi-star-half" fill="currentColor" xmlns="http://www.w3.org/2000/svg"><path d="M7.766 0.563 C 7.704 0.594,7.630 0.651,7.603 0.690 C 7.576 0.728,7.059 1.740,6.456 2.938 L 5.358 5.116 5.259 5.132 C 5.204 5.141,4.078 5.302,2.755 5.490 C 0.478 5.813,0.344 5.835,0.242 5.902 C 0.113 5.988,0.027 6.145,0.009 6.330 C -0.017 6.588,-0.023 6.581,1.913 8.426 C 3.007 9.467,3.680 10.127,3.680 10.157 C 3.680 10.185,3.494 11.266,3.267 12.562 C 3.039 13.857,2.854 14.947,2.854 14.985 C 2.856 15.173,3.023 15.371,3.237 15.440 C 3.491 15.522,3.299 15.611,7.501 13.445 L 8.002 13.187 8.527 13.457 C 12.900 15.707,12.483 15.502,12.657 15.487 C 12.909 15.467,13.105 15.276,13.138 15.020 C 13.146 14.958,12.995 14.035,12.735 12.558 C 12.507 11.260,12.320 10.177,12.320 10.153 C 12.320 10.129,13.109 9.359,14.073 8.442 C 15.038 7.525,15.863 6.725,15.907 6.665 C 15.978 6.567,15.987 6.535,15.987 6.360 C 15.987 6.186,15.978 6.152,15.906 6.051 C 15.755 5.835,15.840 5.853,13.121 5.468 C 11.765 5.275,10.653 5.115,10.649 5.112 C 10.646 5.108,10.149 4.128,9.545 2.933 C 8.941 1.738,8.425 0.728,8.397 0.689 C 8.276 0.519,7.976 0.459,7.766 0.563 M9.986 6.044 C 10.042 6.092,10.138 6.141,10.209 6.157 C 10.277 6.173,11.197 6.306,12.253 6.454 C 13.309 6.602,14.196 6.732,14.224 6.743 C 14.265 6.759,14.023 7.002,12.810 8.157 C 11.900 9.024,11.324 9.592,11.287 9.660 C 11.246 9.732,11.227 9.813,11.227 9.904 C 11.227 9.979,11.382 10.922,11.571 12.000 C 11.760 13.078,11.913 13.962,11.911 13.965 C 11.908 13.967,11.078 13.544,10.066 13.024 C 9.055 12.504,8.176 12.064,8.113 12.047 L 8.000 12.016 8.001 7.121 L 8.001 2.227 8.945 4.093 C 9.712 5.610,9.907 5.976,9.986 6.044 " stroke="none" fill="black" fill-rule="evenodd"></path></svg>