<svg width="1em" height="1em" viewBox="0 0 16 16" class="bi bi-stopwatch" fill="currentColor" xmlns="http://www.w3.org/2000/svg"><path d="M5.799 0.050 C 5.420 0.222,5.403 0.747,5.769 0.940 C 5.871 0.993,5.926 0.999,6.433 1.008 L 6.987 1.019 6.987 1.546 L 6.987 2.074 6.860 2.092 C 6.630 2.125,6.152 2.242,5.857 2.338 C 3.540 3.087,1.759 5.003,1.200 7.347 C 1.048 7.985,1.027 8.189,1.027 9.000 C 1.027 9.598,1.036 9.805,1.075 10.040 C 1.324 11.542,1.947 12.800,2.960 13.850 C 4.059 14.989,5.464 15.706,7.053 15.938 C 7.539 16.009,8.529 16.002,9.027 15.925 C 10.505 15.694,11.812 15.048,12.863 14.028 C 13.826 13.094,14.485 11.946,14.797 10.660 C 14.951 10.028,14.973 9.816,14.973 9.000 C 14.973 8.184,14.951 7.972,14.797 7.340 C 14.380 5.620,13.320 4.122,11.827 3.140 C 11.073 2.645,10.055 2.242,9.207 2.104 L 9.013 2.072 9.013 1.545 L 9.013 1.019 9.567 1.008 C 10.074 0.999,10.129 0.993,10.231 0.940 C 10.597 0.747,10.580 0.222,10.201 0.050 C 10.099 0.004,9.974 0.001,8.000 0.001 C 6.026 0.001,5.901 0.004,5.799 0.050 M8.973 3.077 C 10.314 3.323,11.437 3.919,12.341 4.865 C 13.196 5.760,13.741 6.877,13.938 8.138 C 14.003 8.556,14.003 9.444,13.938 9.862 C 13.837 10.510,13.650 11.102,13.371 11.663 C 12.475 13.460,10.768 14.680,8.773 14.948 C 8.203 15.025,7.299 14.988,6.744 14.866 C 5.588 14.611,4.615 14.079,3.771 13.240 C 2.836 12.311,2.269 11.191,2.062 9.861 C 1.997 9.444,1.997 8.556,2.062 8.139 C 2.259 6.875,2.802 5.761,3.659 4.865 C 4.623 3.856,5.836 3.245,7.280 3.041 C 7.560 3.002,8.693 3.026,8.973 3.077 M7.800 4.544 C 7.690 4.592,7.556 4.751,7.522 4.873 C 7.503 4.938,7.494 5.589,7.493 6.740 L 7.493 8.507 5.942 8.507 C 4.415 8.507,4.388 8.508,4.273 8.563 C 4.100 8.647,4.013 8.793,4.013 9.000 C 4.013 9.207,4.100 9.353,4.273 9.437 C 4.389 9.493,4.409 9.493,6.249 9.493 C 7.750 9.493,8.125 9.486,8.195 9.457 C 8.309 9.410,8.444 9.253,8.478 9.127 C 8.517 8.988,8.517 5.012,8.478 4.873 C 8.444 4.747,8.309 4.590,8.195 4.543 C 8.086 4.497,7.905 4.498,7.800 4.544 " stroke="none" fill="black" fill-rule="evenodd"></path></svg>