<svg width="1em" height="1em" viewBox="0 0 16 16" class="bi bi-suit-club" fill="currentColor" xmlns="http://www.w3.org/2000/svg"><path d="M7.587 0.017 C 5.635 0.229,4.080 1.712,3.799 3.627 C 3.768 3.836,3.758 4.055,3.764 4.382 L 3.773 4.844 3.509 4.889 C 2.839 5.003,2.101 5.343,1.560 5.787 C 0.035 7.039,-0.430 9.199,0.449 10.951 C 0.674 11.400,0.885 11.688,1.265 12.068 C 1.760 12.564,2.224 12.860,2.845 13.076 C 3.718 13.380,4.739 13.391,5.582 13.106 C 5.686 13.070,5.773 13.044,5.776 13.048 C 5.786 13.057,5.509 13.524,5.211 14.002 C 4.906 14.492,4.896 14.513,4.854 14.744 C 4.772 15.197,5.036 15.697,5.467 15.904 L 5.640 15.987 8.001 15.987 L 10.361 15.987 10.539 15.899 C 10.966 15.689,11.220 15.210,11.146 14.753 C 11.110 14.534,11.089 14.489,10.785 14.000 C 10.463 13.480,10.217 13.057,10.229 13.043 C 10.234 13.038,10.286 13.052,10.344 13.076 C 10.495 13.136,10.936 13.244,11.187 13.281 C 11.516 13.330,12.122 13.319,12.481 13.256 C 14.209 12.956,15.546 11.658,15.925 9.913 C 16.006 9.542,16.013 8.650,15.938 8.281 C 15.641 6.819,14.651 5.635,13.282 5.106 C 13.024 5.006,12.602 4.896,12.368 4.867 L 12.225 4.849 12.236 4.401 C 12.247 3.907,12.218 3.616,12.118 3.215 C 11.934 2.482,11.563 1.821,11.034 1.284 C 10.406 0.647,9.679 0.253,8.813 0.079 C 8.552 0.027,7.831 -0.010,7.587 0.017 M8.808 1.102 C 9.883 1.385,10.756 2.209,11.089 3.255 C 11.209 3.632,11.239 3.837,11.239 4.267 C 11.239 4.696,11.222 4.791,11.051 5.378 C 10.986 5.600,10.933 5.795,10.933 5.810 C 10.933 5.830,11.113 5.838,11.513 5.835 C 12.173 5.831,12.448 5.872,12.886 6.041 C 13.979 6.463,14.765 7.449,14.935 8.612 C 14.981 8.925,14.953 9.552,14.881 9.827 C 14.556 11.077,13.616 11.988,12.373 12.256 C 12.060 12.324,11.434 12.324,11.120 12.256 C 10.470 12.116,9.938 11.822,9.398 11.305 C 9.076 10.996,9.015 10.965,8.796 10.994 C 8.549 11.028,8.385 11.228,8.389 11.493 C 8.391 11.620,8.422 11.706,8.622 12.126 C 9.016 12.957,9.494 13.828,9.971 14.583 C 10.076 14.750,10.159 14.906,10.154 14.930 C 10.147 14.970,9.962 14.973,8.000 14.973 C 6.053 14.973,5.853 14.969,5.846 14.931 C 5.841 14.907,5.939 14.727,6.062 14.531 C 6.552 13.753,7.089 12.759,7.465 11.938 C 7.616 11.608,7.632 11.557,7.621 11.439 C 7.589 11.110,7.250 10.898,6.943 11.015 C 6.903 11.030,6.731 11.177,6.562 11.342 C 6.049 11.839,5.623 12.078,4.960 12.242 C 4.622 12.325,3.948 12.332,3.600 12.257 C 2.069 11.923,1.011 10.626,1.009 9.078 C 1.008 8.181,1.323 7.417,1.957 6.783 C 2.383 6.357,2.853 6.084,3.414 5.935 C 3.781 5.838,4.082 5.812,4.607 5.831 C 4.860 5.841,5.067 5.841,5.067 5.831 C 5.067 5.822,5.006 5.602,4.933 5.342 C 4.859 5.083,4.786 4.785,4.769 4.682 C 4.732 4.445,4.755 3.898,4.813 3.613 C 5.083 2.307,6.103 1.306,7.427 1.051 C 7.554 1.026,7.762 1.018,8.080 1.024 C 8.476 1.032,8.586 1.044,8.808 1.102 " stroke="none" fill="black" fill-rule="evenodd"></path></svg>