<svg width="1em" height="1em" viewBox="0 0 16 16" class="bi bi-suit-spade" fill="currentColor" xmlns="http://www.w3.org/2000/svg"><path d="M7.786 0.060 C 7.652 0.127,7.650 0.130,7.165 0.867 C 6.597 1.729,6.097 2.362,5.328 3.192 C 4.871 3.687,4.368 4.170,3.253 5.185 C 2.053 6.278,1.525 6.836,1.158 7.400 C 0.879 7.830,0.670 8.319,0.570 8.773 C 0.495 9.114,0.501 9.941,0.580 10.298 C 0.760 11.110,1.108 11.749,1.680 12.320 C 2.251 12.892,2.889 13.239,3.702 13.420 C 3.918 13.468,4.047 13.478,4.493 13.479 C 5.055 13.480,5.328 13.441,5.723 13.306 C 5.807 13.277,5.880 13.258,5.886 13.264 C 5.892 13.270,5.763 13.483,5.598 13.738 C 5.434 13.992,5.253 14.272,5.197 14.360 C 4.818 14.958,5.086 15.747,5.737 15.950 C 5.889 15.997,6.017 16.000,7.998 16.000 C 10.313 16.000,10.246 16.004,10.517 15.832 C 10.674 15.733,10.857 15.493,10.924 15.300 C 10.987 15.121,10.987 14.756,10.925 14.591 C 10.901 14.528,10.762 14.294,10.617 14.071 C 10.292 13.573,10.106 13.272,10.115 13.263 C 10.119 13.259,10.217 13.286,10.334 13.323 C 10.740 13.452,11.135 13.501,11.627 13.485 C 12.249 13.464,12.670 13.365,13.198 13.117 C 13.631 12.913,13.970 12.672,14.320 12.321 C 14.893 11.748,15.241 11.107,15.420 10.298 C 15.467 10.086,15.477 9.949,15.478 9.533 C 15.479 9.204,15.467 8.961,15.443 8.840 C 15.348 8.357,15.110 7.801,14.805 7.346 C 14.432 6.790,13.922 6.254,12.747 5.185 C 11.642 4.179,11.104 3.662,10.656 3.176 C 9.893 2.349,9.399 1.723,8.835 0.867 C 8.642 0.573,8.450 0.285,8.408 0.227 C 8.320 0.102,8.136 -0.000,8.000 0.000 C 7.948 0.000,7.851 0.027,7.786 0.060 M8.188 1.711 C 8.557 2.249,9.102 2.944,9.543 3.440 C 10.223 4.203,10.829 4.796,12.186 6.029 C 13.714 7.417,14.237 8.085,14.427 8.893 C 14.641 9.807,14.360 10.821,13.692 11.543 C 13.070 12.214,12.101 12.582,11.217 12.483 C 10.475 12.399,9.892 12.122,9.365 11.600 C 9.229 11.466,9.077 11.339,9.027 11.318 C 8.767 11.210,8.455 11.370,8.369 11.657 C 8.278 11.960,8.594 12.687,9.419 14.068 C 9.647 14.451,9.860 14.815,9.893 14.879 L 9.952 14.994 8.636 14.973 C 7.912 14.962,7.030 14.945,6.675 14.936 L 6.031 14.920 6.310 14.484 C 7.158 13.163,7.578 12.337,7.643 11.859 C 7.695 11.485,7.312 11.177,6.973 11.318 C 6.923 11.339,6.773 11.465,6.640 11.597 C 5.703 12.529,4.366 12.759,3.187 12.190 C 1.804 11.523,1.137 9.854,1.704 8.484 C 1.989 7.798,2.517 7.199,4.093 5.774 C 5.844 4.192,6.912 3.024,7.812 1.711 C 7.904 1.577,7.989 1.467,8.000 1.467 C 8.011 1.467,8.096 1.577,8.188 1.711 " stroke="none" fill="black" fill-rule="evenodd"></path></svg>