<svg width="1em" height="1em" viewBox="0 0 16 16" class="bi bi-tag" fill="currentColor" xmlns="http://www.w3.org/2000/svg"><path d="M1.662 1.062 C 1.395 1.155,1.140 1.416,1.047 1.690 C 1.005 1.814,1.001 2.033,0.993 4.147 C 0.983 6.616,0.990 6.790,1.106 7.028 C 1.159 7.137,1.882 7.873,4.799 10.788 C 8.908 14.896,8.549 14.573,9.000 14.572 C 9.446 14.572,9.234 14.754,11.990 11.999 C 14.748 9.239,14.573 9.443,14.573 9.000 C 14.573 8.784,14.564 8.741,14.485 8.573 C 14.401 8.394,14.256 8.245,10.792 4.783 C 7.577 1.571,7.169 1.172,7.027 1.103 L 6.867 1.027 4.333 1.021 C 1.956 1.015,1.792 1.017,1.662 1.062 " stroke="none" fill="black" fill-rule="evenodd"></path></svg>