<svg width="1em" height="1em" viewBox="0 0 16 16" class="bi bi-telephone-minus-fill" fill="currentColor" xmlns="http://www.w3.org/2000/svg"><path d="M3.033 0.548 C 2.873 0.587,2.616 0.704,2.471 0.805 C 2.333 0.900,1.286 1.944,1.117 2.154 C 0.714 2.657,0.508 3.218,0.507 3.817 C 0.506 4.282,0.605 4.629,1.025 5.634 C 2.673 9.579,5.870 12.902,9.748 14.701 C 10.203 14.912,10.968 15.227,11.317 15.346 C 12.203 15.648,13.096 15.485,13.846 14.883 C 14.120 14.663,15.145 13.615,15.251 13.447 C 15.464 13.107,15.549 12.599,15.456 12.207 C 15.403 11.980,15.266 11.706,15.116 11.526 C 14.948 11.325,12.655 9.544,12.413 9.427 C 12.166 9.308,11.834 9.241,11.593 9.264 C 11.492 9.273,10.903 9.408,10.285 9.563 C 9.088 9.863,9.022 9.872,8.821 9.772 C 8.700 9.711,6.303 7.318,6.237 7.192 C 6.127 6.980,6.134 6.928,6.438 5.711 C 6.593 5.091,6.728 4.502,6.737 4.403 C 6.759 4.166,6.692 3.832,6.573 3.587 C 6.511 3.460,6.200 3.037,5.600 2.267 C 5.115 1.643,4.675 1.088,4.623 1.033 C 4.392 0.788,4.127 0.632,3.801 0.548 C 3.607 0.498,3.241 0.498,3.033 0.548 M9.266 3.063 C 9.162 3.126,9.045 3.265,9.023 3.350 C 9.014 3.386,9.012 3.480,9.019 3.559 C 9.033 3.736,9.132 3.877,9.290 3.949 C 9.395 3.997,9.529 3.999,12.480 3.999 C 14.474 4.000,15.594 3.990,15.657 3.973 C 15.803 3.932,15.965 3.744,15.988 3.587 C 16.022 3.362,15.915 3.148,15.723 3.057 C 15.641 3.017,15.331 3.013,12.489 3.013 C 9.475 3.014,9.343 3.016,9.266 3.063 " stroke="none" fill="black" fill-rule="evenodd"></path></svg>