<svg width="1em" height="1em" viewBox="0 0 16 16" class="bi bi-telephone-inbound-fill" fill="currentColor" xmlns="http://www.w3.org/2000/svg"><path d="M15.307 0.041 C 15.248 0.066,14.429 0.866,13.115 2.179 L 11.016 4.277 11.008 2.825 C 10.999 1.211,11.009 1.295,10.814 1.124 C 10.699 1.023,10.628 1.003,10.441 1.019 C 10.264 1.033,10.123 1.132,10.051 1.290 C 10.004 1.394,10.001 1.507,10.001 3.498 C 10.000 4.912,10.009 5.621,10.028 5.672 C 10.070 5.784,10.239 5.944,10.346 5.974 C 10.404 5.990,11.239 6.000,12.520 5.999 C 14.494 5.999,14.606 5.996,14.710 5.949 C 14.884 5.870,14.970 5.734,14.981 5.523 C 14.989 5.367,14.982 5.334,14.918 5.236 C 14.877 5.175,14.800 5.100,14.745 5.069 C 14.648 5.014,14.618 5.013,13.190 5.013 C 12.389 5.013,11.733 5.004,11.733 4.993 C 11.733 4.982,12.675 4.031,13.827 2.880 C 16.084 0.623,16.022 0.693,15.993 0.440 C 15.957 0.121,15.598 -0.089,15.307 0.041 M3.033 0.548 C 2.839 0.595,2.586 0.720,2.413 0.854 C 2.200 1.019,1.141 2.103,1.005 2.296 C 0.694 2.738,0.537 3.189,0.515 3.707 C 0.491 4.245,0.572 4.549,1.025 5.634 C 2.673 9.579,5.870 12.902,9.748 14.701 C 10.203 14.912,10.968 15.227,11.317 15.346 C 12.203 15.648,13.096 15.485,13.846 14.883 C 14.120 14.663,15.145 13.615,15.251 13.447 C 15.464 13.107,15.549 12.599,15.456 12.207 C 15.403 11.980,15.266 11.706,15.116 11.526 C 14.948 11.325,12.655 9.544,12.413 9.427 C 12.166 9.308,11.834 9.241,11.593 9.264 C 11.492 9.273,10.903 9.408,10.285 9.563 C 9.088 9.863,9.022 9.872,8.821 9.772 C 8.700 9.711,6.303 7.318,6.237 7.192 C 6.127 6.980,6.134 6.928,6.438 5.711 C 6.593 5.091,6.728 4.502,6.737 4.403 C 6.759 4.166,6.692 3.832,6.573 3.587 C 6.511 3.460,6.200 3.037,5.600 2.267 C 5.115 1.643,4.675 1.088,4.623 1.033 C 4.392 0.788,4.127 0.632,3.801 0.548 C 3.607 0.498,3.241 0.498,3.033 0.548 " stroke="none" fill="black" fill-rule="evenodd"></path></svg>