<svg width="1em" height="1em" viewBox="0 0 16 16" class="bi bi-telephone-x-fill" fill="currentColor" xmlns="http://www.w3.org/2000/svg"><path d="M10.307 0.037 C 10.047 0.152,9.932 0.453,10.051 0.707 C 10.084 0.777,10.470 1.182,11.197 1.906 L 12.293 2.999 11.176 4.120 C 9.976 5.323,9.979 5.319,10.007 5.563 C 10.032 5.781,10.219 5.968,10.437 5.993 C 10.681 6.021,10.677 6.024,11.880 4.824 L 13.001 3.707 14.107 4.814 C 15.302 6.009,15.316 6.021,15.560 5.993 C 15.876 5.958,16.078 5.625,15.964 5.326 C 15.930 5.237,15.686 4.979,14.814 4.107 L 13.707 3.001 14.824 1.880 C 16.024 0.677,16.021 0.681,15.993 0.437 C 15.968 0.219,15.781 0.032,15.563 0.007 C 15.319 -0.021,15.323 -0.024,14.120 1.176 L 12.999 2.293 11.906 1.197 C 11.182 0.470,10.777 0.084,10.707 0.051 C 10.582 -0.007,10.420 -0.013,10.307 0.037 M3.033 0.548 C 2.839 0.595,2.586 0.720,2.413 0.854 C 2.200 1.019,1.141 2.103,1.005 2.296 C 0.694 2.738,0.537 3.189,0.515 3.707 C 0.491 4.245,0.572 4.549,1.025 5.634 C 2.673 9.579,5.870 12.902,9.748 14.701 C 10.203 14.912,10.968 15.227,11.317 15.346 C 12.203 15.648,13.096 15.485,13.846 14.883 C 14.120 14.663,15.145 13.615,15.251 13.447 C 15.464 13.107,15.549 12.599,15.456 12.207 C 15.403 11.980,15.266 11.706,15.116 11.526 C 14.948 11.325,12.655 9.544,12.413 9.427 C 12.166 9.308,11.834 9.241,11.593 9.264 C 11.492 9.273,10.903 9.408,10.285 9.563 C 9.088 9.863,9.022 9.872,8.821 9.772 C 8.700 9.711,6.303 7.318,6.237 7.192 C 6.127 6.980,6.134 6.928,6.438 5.711 C 6.593 5.091,6.728 4.502,6.737 4.403 C 6.759 4.166,6.692 3.832,6.573 3.587 C 6.511 3.460,6.200 3.037,5.600 2.267 C 5.115 1.643,4.675 1.088,4.623 1.033 C 4.392 0.788,4.127 0.632,3.801 0.548 C 3.607 0.498,3.241 0.498,3.033 0.548 " stroke="none" fill="black" fill-rule="evenodd"></path></svg>