<svg width="1em" height="1em" viewBox="0 0 16 16" class="bi bi-tree" fill="currentColor" xmlns="http://www.w3.org/2000/svg"><path d="M7.800 0.050 C 7.741 0.077,7.668 0.128,7.637 0.163 C 7.567 0.241,4.611 4.676,4.550 4.794 C 4.468 4.953,4.506 5.194,4.636 5.343 C 4.705 5.420,4.829 5.476,4.968 5.492 L 5.095 5.507 4.062 7.160 C 3.032 8.807,3.028 8.814,3.019 8.973 C 3.009 9.166,3.059 9.278,3.208 9.397 C 3.295 9.466,3.337 9.480,3.495 9.489 C 3.597 9.495,3.680 9.504,3.680 9.509 C 3.680 9.515,3.301 10.278,2.837 11.206 C 2.005 12.871,1.995 12.894,2.006 13.031 C 2.021 13.213,2.120 13.362,2.273 13.437 C 2.390 13.493,2.401 13.493,4.688 13.493 L 6.987 13.493 6.987 14.747 L 6.987 16.000 8.000 16.000 L 9.013 16.000 9.013 14.747 L 9.013 13.493 11.312 13.493 C 13.599 13.493,13.610 13.493,13.727 13.437 C 13.880 13.362,13.979 13.213,13.994 13.031 C 14.005 12.894,13.995 12.871,13.163 11.206 C 12.699 10.278,12.320 9.515,12.320 9.509 C 12.320 9.504,12.403 9.495,12.505 9.489 C 12.663 9.480,12.705 9.466,12.792 9.397 C 12.941 9.278,12.991 9.166,12.981 8.973 C 12.972 8.814,12.968 8.807,11.938 7.160 L 10.905 5.507 11.032 5.492 C 11.171 5.476,11.295 5.420,11.364 5.343 C 11.494 5.194,11.532 4.953,11.450 4.794 C 11.375 4.649,8.383 0.176,8.329 0.128 C 8.254 0.060,8.094 -0.000,7.994 0.001 C 7.946 0.001,7.859 0.023,7.800 0.050 M9.027 2.937 C 9.584 3.774,10.044 4.470,10.049 4.483 C 10.054 4.496,10.020 4.507,9.975 4.507 C 9.851 4.507,9.730 4.567,9.634 4.675 C 9.561 4.759,9.494 4.914,9.494 5.000 C 9.494 5.110,9.667 5.408,10.571 6.854 L 11.596 8.493 11.449 8.510 C 11.188 8.540,11.013 8.738,11.013 9.006 C 11.013 9.135,11.073 9.264,11.853 10.826 L 12.693 12.507 8.000 12.507 L 3.307 12.507 4.147 10.826 C 4.927 9.264,4.987 9.135,4.987 9.006 C 4.987 8.738,4.812 8.540,4.551 8.510 L 4.404 8.493 5.429 6.854 C 6.333 5.408,6.506 5.110,6.506 5.000 C 6.506 4.914,6.439 4.759,6.366 4.675 C 6.270 4.567,6.149 4.507,6.025 4.507 C 5.980 4.507,5.946 4.496,5.951 4.483 C 5.968 4.438,7.987 1.415,8.000 1.415 C 8.007 1.415,8.469 2.100,9.027 2.937 " stroke="none" fill="black" fill-rule="evenodd"></path></svg>