<svg width="1em" height="1em" viewBox="0 0 16 16" class="bi bi-union" fill="currentColor" xmlns="http://www.w3.org/2000/svg"><path d="M1.600 0.042 C 0.952 0.181,0.407 0.629,0.157 1.226 C -0.007 1.618,0.000 1.409,-0.000 6.000 C -0.000 10.591,-0.007 10.382,0.157 10.774 C 0.350 11.235,0.765 11.650,1.226 11.843 C 1.570 11.987,1.710 12.000,2.906 12.000 L 4.000 12.000 4.000 13.094 C 4.000 14.290,4.013 14.430,4.157 14.774 C 4.350 15.235,4.765 15.650,5.226 15.843 C 5.618 16.007,5.409 16.000,10.000 16.000 C 14.591 16.000,14.382 16.007,14.774 15.843 C 15.238 15.649,15.649 15.238,15.843 14.774 C 16.007 14.382,16.000 14.591,16.000 10.000 C 16.000 5.409,16.007 5.618,15.843 5.226 C 15.649 4.762,15.238 4.351,14.774 4.157 C 14.430 4.013,14.290 4.000,13.094 4.000 L 12.000 4.000 12.000 2.906 C 12.000 2.012,11.992 1.773,11.958 1.606 C 11.796 0.816,11.184 0.204,10.394 0.042 C 10.212 0.005,9.717 0.000,5.981 0.002 C 2.480 0.004,1.744 0.011,1.600 0.042 " stroke="none" fill="black" fill-rule="evenodd"></path></svg>