<svg width="1em" height="1em" viewBox="0 0 16 16" class="bi bi-unlock" fill="currentColor" xmlns="http://www.w3.org/2000/svg"><path d="M11.440 0.544 C 11.067 0.611,10.797 0.700,10.458 0.868 C 9.480 1.355,8.826 2.191,8.571 3.280 C 8.529 3.456,8.522 3.689,8.508 5.240 L 8.493 7.000 5.187 7.013 L 1.880 7.027 1.680 7.104 C 1.408 7.208,1.244 7.319,1.048 7.528 C 0.851 7.740,0.668 8.091,0.580 8.427 L 0.520 8.653 0.520 11.547 C 0.520 14.278,0.523 14.450,0.569 14.627 C 0.722 15.202,1.076 15.615,1.608 15.836 C 2.025 16.010,1.822 16.003,6.133 15.993 C 9.811 15.986,10.049 15.982,10.200 15.937 C 10.607 15.814,10.973 15.529,11.181 15.173 C 11.299 14.970,11.422 14.601,11.466 14.320 C 11.488 14.175,11.494 13.355,11.488 11.320 L 11.479 8.520 11.418 8.320 C 11.318 7.994,11.185 7.769,10.961 7.545 C 10.642 7.226,10.244 7.051,9.760 7.018 L 9.507 7.000 9.507 5.347 C 9.507 3.873,9.512 3.671,9.553 3.485 C 9.661 3.001,9.886 2.591,10.239 2.239 C 10.731 1.746,11.299 1.512,12.000 1.512 C 12.693 1.512,13.263 1.744,13.750 2.226 C 14.093 2.565,14.304 2.934,14.432 3.419 C 14.488 3.633,14.490 3.696,14.500 5.327 L 14.510 7.013 15.003 7.013 L 15.496 7.013 15.486 5.247 C 15.478 3.708,15.471 3.456,15.432 3.293 C 15.354 2.966,15.252 2.688,15.104 2.400 C 14.628 1.468,13.760 0.803,12.720 0.573 C 12.449 0.514,11.708 0.497,11.440 0.544 M10.022 8.091 C 10.224 8.185,10.367 8.337,10.440 8.537 C 10.489 8.674,10.492 8.784,10.501 11.307 C 10.507 13.178,10.501 13.994,10.479 14.145 C 10.419 14.565,10.235 14.869,9.987 14.960 C 9.896 14.993,9.337 15.000,6.160 15.007 C 3.587 15.013,2.387 15.007,2.267 14.987 C 2.021 14.946,1.775 14.821,1.678 14.686 C 1.499 14.440,1.507 14.573,1.507 11.533 L 1.507 8.787 1.582 8.562 C 1.646 8.375,1.681 8.315,1.798 8.198 C 1.902 8.094,1.969 8.051,2.056 8.032 C 2.131 8.015,3.559 8.007,6.013 8.009 L 9.853 8.013 10.022 8.091 " stroke="none" fill="black" fill-rule="evenodd"></path></svg>