<svg width="1em" height="1em" viewBox="0 0 16 16" class="bi bi-upload" fill="currentColor" xmlns="http://www.w3.org/2000/svg"><path d="M7.787 1.402 C 7.686 1.446,5.066 4.041,4.942 4.220 C 4.796 4.431,4.847 4.737,5.053 4.895 C 5.182 4.993,5.435 5.018,5.576 4.946 C 5.626 4.921,6.078 4.491,6.580 3.991 L 7.493 3.082 7.493 6.817 C 7.493 9.567,7.501 10.576,7.524 10.643 C 7.600 10.866,7.767 10.987,8.000 10.987 C 8.233 10.987,8.400 10.866,8.476 10.643 C 8.499 10.576,8.507 9.562,8.508 6.803 L 8.508 3.053 9.421 3.976 C 9.923 4.484,10.369 4.918,10.413 4.940 C 10.541 5.004,10.654 5.019,10.773 4.987 C 10.912 4.949,11.081 4.798,11.122 4.675 C 11.168 4.536,11.140 4.339,11.058 4.220 C 11.020 4.165,10.385 3.518,9.647 2.781 C 8.729 1.864,8.275 1.430,8.208 1.401 C 8.083 1.349,7.908 1.350,7.787 1.402 M0.307 8.037 C 0.201 8.084,0.081 8.206,0.036 8.312 C 0.007 8.382,0.000 8.755,0.000 10.294 C 0.000 12.364,0.003 12.405,0.157 12.774 C 0.350 13.235,0.765 13.650,1.226 13.843 C 1.625 14.010,1.207 14.000,8.000 14.000 C 13.536 14.000,14.211 13.996,14.394 13.958 C 15.184 13.796,15.796 13.184,15.958 12.394 C 15.994 12.219,16.000 11.919,16.000 10.314 C 16.000 9.170,15.990 8.403,15.974 8.346 C 15.944 8.239,15.784 8.070,15.672 8.028 C 15.429 7.937,15.140 8.073,15.024 8.333 C 15.011 8.363,14.994 9.263,14.987 10.333 L 14.973 12.280 14.901 12.428 C 14.810 12.612,14.617 12.808,14.441 12.894 C 14.367 12.930,14.223 12.971,14.120 12.986 C 13.864 13.022,2.136 13.022,1.880 12.986 C 1.777 12.971,1.633 12.930,1.559 12.894 C 1.383 12.808,1.190 12.612,1.099 12.428 L 1.027 12.280 1.013 10.333 C 1.006 9.263,0.989 8.363,0.976 8.333 C 0.856 8.065,0.550 7.930,0.307 8.037 " stroke="none" fill="black" fill-rule="evenodd"></path></svg>