<svg width="1em" height="1em" viewBox="0 0 16 16" class="bi bi-voicemail" fill="currentColor" xmlns="http://www.w3.org/2000/svg"><path d="M3.027 5.029 C 2.997 5.036,2.877 5.061,2.760 5.083 C 1.772 5.273,0.838 6.002,0.362 6.954 C 0.117 7.444,0.014 7.904,0.015 8.507 C 0.015 9.118,0.106 9.520,0.364 10.046 C 0.826 10.992,1.675 11.654,2.773 11.928 C 2.999 11.984,3.015 11.985,7.827 11.994 C 11.071 12.000,12.733 11.994,12.896 11.975 C 14.410 11.801,15.607 10.697,15.936 9.172 C 16.004 8.859,16.005 8.157,15.938 7.840 C 15.787 7.124,15.479 6.548,14.974 6.037 C 14.461 5.517,13.815 5.178,13.101 5.053 C 12.798 5.000,12.210 5.002,11.891 5.056 C 10.462 5.301,9.301 6.462,9.056 7.891 C 9.002 8.210,9.000 8.798,9.053 9.101 C 9.162 9.727,9.471 10.363,9.893 10.833 L 10.031 10.987 8.000 10.987 L 5.969 10.987 6.107 10.833 C 6.289 10.630,6.565 10.214,6.667 9.990 C 6.916 9.441,6.999 9.009,6.979 8.376 C 6.960 7.784,6.870 7.417,6.622 6.925 C 6.235 6.155,5.555 5.541,4.742 5.226 C 4.372 5.083,4.091 5.035,3.573 5.025 C 3.302 5.020,3.056 5.022,3.027 5.029 M4.120 6.078 C 4.534 6.186,4.957 6.429,5.264 6.736 C 6.202 7.675,6.241 9.182,5.352 10.173 C 5.064 10.494,4.664 10.748,4.213 10.896 C 4.001 10.966,3.957 10.971,3.520 10.972 C 3.112 10.973,3.027 10.966,2.846 10.913 C 1.977 10.661,1.339 10.023,1.087 9.154 C 1.034 8.973,1.027 8.888,1.028 8.480 C 1.029 8.041,1.034 8.000,1.104 7.787 C 1.411 6.864,2.080 6.254,3.006 6.051 C 3.311 5.985,3.807 5.997,4.120 6.078 M12.927 6.040 C 13.888 6.223,14.580 6.837,14.896 7.787 C 14.966 8.000,14.971 8.041,14.972 8.480 C 14.973 8.888,14.966 8.973,14.913 9.154 C 14.662 10.022,14.022 10.662,13.154 10.913 C 12.973 10.966,12.888 10.973,12.480 10.972 C 12.042 10.971,11.999 10.966,11.787 10.896 C 10.905 10.605,10.318 9.989,10.075 9.100 C 9.993 8.801,9.993 8.184,10.076 7.880 C 10.419 6.616,11.678 5.803,12.927 6.040 " stroke="none" fill="black" fill-rule="evenodd"></path></svg>