<svg width="1em" height="1em" viewBox="0 0 16 16" class="bi bi-wallet-fill" fill="currentColor" xmlns="http://www.w3.org/2000/svg"><path d="M1.253 2.018 C 0.980 2.064,0.646 2.239,0.443 2.443 C 0.300 2.586,0.149 2.823,0.077 3.021 C 0.017 3.182,0.015 3.216,0.006 4.340 L -0.003 5.493 3.018 5.493 C 5.141 5.494,6.072 5.502,6.146 5.523 C 6.362 5.583,6.506 5.804,6.507 6.080 C 6.509 6.534,6.807 7.077,7.178 7.300 C 7.606 7.557,8.394 7.557,8.822 7.300 C 9.193 7.077,9.491 6.534,9.493 6.080 C 9.494 5.804,9.638 5.583,9.854 5.523 C 9.928 5.502,10.859 5.494,12.981 5.493 L 16.003 5.493 15.994 4.353 C 15.986 3.259,15.983 3.206,15.926 3.038 C 15.777 2.594,15.408 2.225,14.962 2.073 L 14.787 2.013 8.053 2.010 C 4.350 2.008,1.290 2.012,1.253 2.018 M0.006 9.660 L 0.013 12.813 0.076 12.979 C 0.245 13.432,0.614 13.790,1.052 13.928 L 1.240 13.987 8.000 13.987 L 14.760 13.987 14.948 13.928 C 15.394 13.787,15.774 13.413,15.927 12.962 L 15.987 12.787 15.994 9.647 L 16.001 6.507 13.226 6.507 C 11.029 6.507,10.450 6.514,10.443 6.540 C 10.439 6.558,10.395 6.698,10.346 6.850 C 10.078 7.681,9.433 8.265,8.587 8.442 C 8.281 8.506,7.719 8.506,7.418 8.443 C 6.563 8.262,5.923 7.684,5.654 6.850 C 5.605 6.698,5.561 6.558,5.557 6.540 C 5.550 6.514,4.971 6.507,2.774 6.507 L -0.001 6.507 0.006 9.660 " stroke="none" fill="black" fill-rule="evenodd"></path></svg>