<svg width="1em" height="1em" viewBox="0 0 16 16" class="bi bi-wifi" fill="currentColor" xmlns="http://www.w3.org/2000/svg"><path d="M7.093 3.029 C 7.042 3.035,6.862 3.053,6.693 3.069 C 4.798 3.247,2.747 3.982,1.111 5.071 C 0.545 5.447,0.480 5.520,0.480 5.774 C 0.480 6.006,0.619 6.179,0.857 6.243 C 1.044 6.293,1.138 6.258,1.536 5.990 C 2.029 5.659,2.539 5.365,3.027 5.131 C 5.731 3.835,8.828 3.647,11.678 4.604 C 12.654 4.932,13.473 5.336,14.383 5.939 C 14.835 6.238,14.934 6.282,15.105 6.255 C 15.368 6.213,15.534 6.000,15.514 5.728 C 15.500 5.530,15.455 5.469,15.171 5.266 C 13.745 4.243,11.948 3.498,10.160 3.188 C 9.392 3.055,9.132 3.034,8.133 3.026 C 7.613 3.022,7.145 3.024,7.093 3.029 M7.427 6.016 C 7.368 6.021,7.188 6.039,7.027 6.054 C 6.217 6.131,5.327 6.345,4.529 6.654 C 3.907 6.895,2.907 7.435,2.749 7.615 C 2.547 7.845,2.601 8.181,2.864 8.332 C 3.102 8.469,3.239 8.447,3.625 8.215 C 4.595 7.629,5.621 7.266,6.853 7.074 C 7.294 7.006,8.698 7.006,9.160 7.075 C 10.309 7.246,11.428 7.642,12.364 8.208 C 12.763 8.449,12.922 8.471,13.166 8.321 C 13.343 8.212,13.424 7.904,13.324 7.714 C 13.260 7.591,13.196 7.539,12.878 7.348 C 11.766 6.680,10.522 6.250,9.204 6.078 C 8.807 6.026,7.710 5.988,7.427 6.016 M7.147 9.057 C 6.540 9.139,5.970 9.299,5.385 9.550 C 5.011 9.710,4.875 9.818,4.828 9.993 C 4.770 10.212,4.886 10.453,5.101 10.557 C 5.284 10.646,5.398 10.631,5.780 10.468 C 6.213 10.284,6.641 10.155,7.080 10.077 C 7.370 10.026,7.520 10.016,8.000 10.016 C 8.480 10.016,8.630 10.026,8.920 10.077 C 9.360 10.155,9.788 10.284,10.218 10.468 C 10.599 10.631,10.715 10.646,10.899 10.557 C 11.111 10.455,11.230 10.212,11.173 10.000 C 11.125 9.819,11.018 9.727,10.681 9.577 C 10.091 9.314,9.465 9.139,8.819 9.054 C 8.423 9.003,7.535 9.004,7.147 9.057 M7.711 11.519 C 7.504 11.552,7.232 11.645,7.054 11.743 C 6.817 11.874,6.745 12.057,6.841 12.287 C 6.892 12.408,7.627 13.157,7.766 13.229 C 7.825 13.260,7.919 13.280,8.000 13.280 C 8.081 13.280,8.175 13.260,8.234 13.229 C 8.373 13.157,9.108 12.408,9.159 12.287 C 9.259 12.046,9.184 11.873,8.918 11.728 C 8.587 11.550,8.077 11.461,7.711 11.519 " stroke="none" fill="black" fill-rule="evenodd"></path></svg>