<svg width="1em" height="1em" viewBox="0 0 16 16" class="bi bi-wifi-off" fill="currentColor" xmlns="http://www.w3.org/2000/svg"><path d="M13.651 1.734 C 13.599 1.743,13.515 1.776,13.464 1.807 C 13.414 1.839,10.936 4.304,7.956 7.285 C 2.076 13.170,2.462 12.763,2.486 13.055 C 2.515 13.409,2.880 13.620,3.221 13.479 C 3.292 13.450,4.864 11.895,8.716 8.046 C 11.684 5.080,14.147 2.600,14.190 2.535 C 14.314 2.343,14.291 2.060,14.137 1.884 C 14.038 1.771,13.823 1.705,13.651 1.734 M7.093 3.029 C 7.042 3.035,6.862 3.053,6.693 3.069 C 4.798 3.247,2.747 3.982,1.111 5.071 C 0.545 5.447,0.480 5.520,0.480 5.774 C 0.480 6.006,0.619 6.179,0.857 6.243 C 1.044 6.293,1.138 6.258,1.536 5.990 C 2.695 5.211,3.880 4.680,5.193 4.350 C 6.613 3.993,7.956 3.914,9.485 4.096 L 9.863 4.141 10.279 3.720 C 10.507 3.489,10.691 3.295,10.686 3.291 C 10.681 3.286,10.474 3.246,10.225 3.202 C 9.414 3.058,9.130 3.034,8.120 3.026 C 7.607 3.022,7.145 3.024,7.093 3.029 M13.274 4.714 L 12.898 5.087 13.216 5.249 C 13.626 5.458,14.061 5.717,14.487 6.006 C 14.739 6.177,14.857 6.241,14.945 6.254 C 15.157 6.286,15.375 6.180,15.467 5.999 C 15.566 5.805,15.524 5.551,15.370 5.410 C 15.201 5.256,14.390 4.742,13.884 4.469 L 13.649 4.341 13.274 4.714 M7.400 6.018 C 6.429 6.083,5.437 6.302,4.529 6.654 C 3.902 6.897,2.908 7.433,2.749 7.614 C 2.547 7.845,2.600 8.180,2.864 8.332 C 3.101 8.468,3.247 8.446,3.613 8.220 C 3.950 8.011,4.634 7.680,5.026 7.536 C 5.564 7.338,6.288 7.153,6.801 7.082 C 6.916 7.066,6.949 7.038,7.454 6.533 L 7.986 6.000 7.760 6.005 C 7.635 6.007,7.473 6.014,7.400 6.018 M10.996 6.992 C 10.786 7.200,10.613 7.380,10.613 7.390 C 10.613 7.401,10.658 7.424,10.713 7.441 C 11.156 7.583,11.911 7.934,12.375 8.215 C 12.751 8.442,12.886 8.465,13.124 8.344 C 13.391 8.209,13.454 7.846,13.251 7.614 C 13.104 7.447,12.232 6.968,11.576 6.695 L 11.379 6.612 10.996 6.992 M8.484 9.529 L 8.022 9.992 8.324 10.011 C 8.979 10.052,9.592 10.200,10.220 10.468 C 10.602 10.631,10.716 10.646,10.899 10.557 C 11.197 10.413,11.278 10.045,11.066 9.803 C 10.919 9.635,10.068 9.301,9.440 9.165 C 8.891 9.046,9.014 8.999,8.484 9.529 M7.715 11.518 C 7.499 11.553,7.228 11.644,7.056 11.741 C 6.816 11.875,6.745 12.057,6.841 12.287 C 6.892 12.408,7.627 13.157,7.766 13.229 C 7.825 13.260,7.919 13.280,8.000 13.280 C 8.081 13.280,8.175 13.260,8.234 13.229 C 8.373 13.157,9.108 12.408,9.159 12.287 C 9.259 12.046,9.184 11.873,8.918 11.728 C 8.589 11.550,8.077 11.461,7.715 11.518 " stroke="none" fill="black" fill-rule="evenodd"></path></svg>