<svg width="1em" height="1em" viewBox="0 0 16 16" class="bi bi-x-circle" fill="currentColor" xmlns="http://www.w3.org/2000/svg"><path d="M7.293 0.030 C 4.174 0.300,1.460 2.423,0.439 5.390 C -0.989 9.546,1.195 14.077,5.331 15.539 C 8.244 16.569,11.468 15.838,13.653 13.653 C 16.473 10.834,16.787 6.378,14.390 3.190 C 12.867 1.166,10.473 -0.019,7.947 0.004 C 7.734 0.006,7.440 0.018,7.293 0.030 M8.768 1.041 C 10.349 1.213,11.838 1.934,12.973 3.079 C 13.491 3.601,13.952 4.250,14.280 4.919 C 14.518 5.405,14.657 5.783,14.783 6.284 C 14.947 6.939,14.973 7.177,14.973 8.000 C 14.973 8.823,14.947 9.061,14.783 9.716 C 14.657 10.218,14.517 10.596,14.280 11.080 C 13.369 12.933,11.704 14.284,9.716 14.783 C 9.061 14.947,8.823 14.973,8.000 14.973 C 7.177 14.973,6.938 14.947,6.287 14.783 C 4.507 14.336,2.953 13.185,2.008 11.613 C 1.484 10.744,1.149 9.755,1.041 8.768 C 1.005 8.434,1.005 7.566,1.041 7.232 C 1.237 5.430,2.177 3.705,3.581 2.572 C 4.606 1.745,5.923 1.187,7.187 1.044 C 7.491 1.010,8.462 1.008,8.768 1.041 M4.307 4.037 C 4.056 4.148,3.937 4.437,4.041 4.688 C 4.069 4.756,4.571 5.276,5.687 6.393 L 7.293 8.000 5.676 9.620 C 4.372 10.926,4.053 11.260,4.026 11.343 C 3.932 11.640,4.134 11.959,4.437 11.993 C 4.686 12.021,4.639 12.062,6.380 10.324 L 8.000 8.707 9.620 10.324 C 10.927 11.628,11.260 11.947,11.343 11.974 C 11.640 12.068,11.959 11.866,11.993 11.563 C 12.021 11.314,12.062 11.361,10.324 9.620 L 8.707 8.000 10.324 6.380 C 12.062 4.639,12.021 4.686,11.993 4.437 C 11.959 4.134,11.640 3.932,11.343 4.026 C 11.260 4.053,10.926 4.372,9.620 5.676 L 8.000 7.293 6.393 5.687 C 5.276 4.571,4.756 4.069,4.688 4.041 C 4.567 3.991,4.414 3.990,4.307 4.037 " stroke="none" fill="black" fill-rule="evenodd"></path></svg>