<svg width="1em" height="1em" viewBox="0 0 16 16" class="bi bi-x-diamond" fill="currentColor" xmlns="http://www.w3.org/2000/svg"><path d="M7.694 0.031 C 7.621 0.045,7.459 0.104,7.334 0.163 L 7.107 0.269 3.688 3.688 L 0.269 7.107 0.160 7.339 C -0.050 7.789,-0.050 8.211,0.160 8.661 L 0.268 8.893 3.701 12.322 C 6.968 15.586,7.142 15.755,7.317 15.838 C 7.814 16.072,8.399 16.039,8.829 15.752 C 8.911 15.697,10.443 14.183,12.362 12.261 C 15.584 9.034,15.755 8.858,15.837 8.683 C 16.049 8.235,16.049 7.765,15.837 7.317 C 15.755 7.142,15.586 6.968,12.322 3.702 C 9.032 0.410,8.885 0.267,8.696 0.174 C 8.379 0.016,8.033 -0.033,7.694 0.031 M8.234 1.078 C 8.274 1.099,8.964 1.774,9.767 2.578 L 11.227 4.040 9.613 5.653 L 8.000 7.267 6.387 5.653 L 4.773 4.040 6.248 2.565 C 7.386 1.427,7.747 1.082,7.828 1.052 C 7.947 1.008,8.123 1.019,8.234 1.078 M5.653 9.613 L 4.040 11.227 2.578 9.767 C 1.774 8.964,1.100 8.276,1.081 8.239 C 1.022 8.129,1.007 7.990,1.040 7.864 C 1.068 7.758,1.216 7.601,2.555 6.260 L 4.040 4.773 5.653 6.386 L 7.267 8.000 5.653 9.613 M14.927 7.773 C 14.952 7.820,14.971 7.915,14.971 8.000 C 14.971 8.085,14.952 8.180,14.927 8.227 C 14.903 8.271,14.226 8.964,13.422 9.767 L 11.960 11.227 10.347 9.613 L 8.733 8.000 10.347 6.387 L 11.960 4.773 13.422 6.233 C 14.226 7.036,14.903 7.729,14.927 7.773 M9.620 10.354 L 11.227 11.960 9.740 13.445 C 8.209 14.973,8.194 14.986,8.000 14.986 C 7.806 14.986,7.791 14.973,6.260 13.445 L 4.773 11.960 6.380 10.354 C 7.263 9.470,7.993 8.747,8.000 8.747 C 8.007 8.747,8.737 9.470,9.620 10.354 " stroke="none" fill="black" fill-rule="evenodd"></path></svg>