<svg width="1em" height="1em" viewBox="0 0 16 16" class="bi bi-x-square-fill" fill="currentColor" xmlns="http://www.w3.org/2000/svg"><path d="M1.600 0.042 C 0.952 0.181,0.407 0.629,0.157 1.226 C -0.010 1.625,0.000 1.207,0.000 8.000 C 0.000 14.793,-0.010 14.375,0.157 14.774 C 0.350 15.235,0.765 15.650,1.226 15.843 C 1.625 16.010,1.207 16.000,8.000 16.000 C 13.536 16.000,14.211 15.996,14.394 15.958 C 15.184 15.796,15.796 15.184,15.958 14.394 C 15.996 14.211,16.000 13.536,16.000 8.000 C 16.000 2.464,15.996 1.789,15.958 1.606 C 15.796 0.816,15.184 0.204,14.394 0.042 C 14.210 0.004,13.540 0.000,7.981 0.002 C 2.765 0.004,1.746 0.010,1.600 0.042 M4.688 4.041 C 4.756 4.069,5.276 4.571,6.393 5.687 L 8.000 7.293 9.620 5.676 C 10.926 4.372,11.260 4.053,11.343 4.026 C 11.640 3.932,11.959 4.134,11.993 4.437 C 12.021 4.686,12.062 4.639,10.324 6.380 L 8.707 8.000 10.324 9.620 C 12.062 11.361,12.021 11.314,11.993 11.563 C 11.959 11.866,11.640 12.068,11.343 11.974 C 11.260 11.947,10.927 11.628,9.620 10.324 L 8.000 8.707 6.380 10.324 C 4.639 12.062,4.686 12.021,4.437 11.993 C 4.134 11.959,3.932 11.640,4.026 11.343 C 4.053 11.260,4.372 10.926,5.676 9.620 L 7.293 8.000 5.687 6.393 C 4.571 5.276,4.069 4.756,4.041 4.688 C 3.873 4.280,4.280 3.873,4.688 4.041 " stroke="none" fill="black" fill-rule="evenodd"></path></svg>