<svg width="1em" height="1em" viewBox="0 0 16 16" class="bi bi-zoom-in" fill="currentColor" xmlns="http://www.w3.org/2000/svg"><path d="M6.013 0.015 C 5.969 0.022,5.819 0.040,5.680 0.055 C 5.141 0.117,4.522 0.284,3.951 0.523 C 2.441 1.156,1.156 2.441,0.523 3.951 C 0.291 4.505,0.133 5.082,0.049 5.680 C -0.005 6.062,0.004 7.029,0.065 7.427 C 0.286 8.878,0.967 10.196,2.013 11.195 C 2.959 12.098,4.098 12.671,5.420 12.911 C 5.803 12.980,6.792 13.008,7.202 12.962 C 8.204 12.848,9.278 12.461,10.074 11.926 C 10.210 11.835,10.325 11.760,10.328 11.760 C 10.331 11.760,11.246 12.671,12.360 13.785 C 14.282 15.706,14.396 15.815,14.573 15.898 C 14.741 15.978,14.784 15.986,15.000 15.986 C 15.213 15.986,15.259 15.977,15.413 15.904 C 15.633 15.799,15.797 15.634,15.903 15.413 C 15.977 15.259,15.986 15.214,15.986 15.000 C 15.986 14.784,15.978 14.741,15.898 14.573 C 15.815 14.396,15.706 14.282,13.785 12.360 C 12.671 11.246,11.760 10.332,11.760 10.328 C 11.760 10.325,11.839 10.205,11.935 10.061 C 12.031 9.918,12.204 9.608,12.320 9.373 C 12.656 8.695,12.851 8.054,12.948 7.307 C 13.009 6.847,12.989 5.851,12.911 5.423 C 12.715 4.344,12.330 3.451,11.690 2.596 C 10.676 1.241,9.129 0.320,7.440 0.066 C 7.175 0.026,6.186 -0.009,6.013 0.015 M7.248 1.053 C 8.182 1.186,9.036 1.536,9.779 2.089 C 11.466 3.346,12.286 5.442,11.903 7.517 C 11.497 9.721,9.721 11.497,7.517 11.903 C 5.679 12.242,3.804 11.638,2.525 10.294 C 1.725 9.453,1.218 8.405,1.054 7.253 C 1.001 6.880,1.001 6.103,1.055 5.737 C 1.285 4.152,2.147 2.794,3.485 1.905 C 4.132 1.476,4.907 1.180,5.707 1.057 C 6.048 1.005,6.893 1.003,7.248 1.053 M6.280 3.055 C 6.160 3.118,6.104 3.176,6.050 3.293 C 6.005 3.392,6.001 3.496,6.001 4.700 L 6.000 6.000 4.700 6.001 C 3.488 6.001,3.393 6.005,3.290 6.051 C 3.132 6.123,3.033 6.264,3.019 6.441 C 3.003 6.628,3.023 6.699,3.124 6.814 C 3.294 7.007,3.227 6.999,4.687 7.008 L 6.000 7.016 6.000 8.309 C 6.000 9.746,5.995 9.704,6.181 9.871 C 6.423 10.090,6.802 10.012,6.950 9.714 C 6.996 9.621,7.001 9.520,7.008 8.315 L 7.016 7.016 8.315 7.008 C 9.520 7.001,9.621 6.996,9.714 6.950 C 10.012 6.802,10.090 6.423,9.871 6.181 C 9.704 5.995,9.747 6.000,8.308 6.000 L 7.013 6.000 7.012 4.780 C 7.011 4.109,7.001 3.504,6.990 3.435 C 6.947 3.177,6.758 3.013,6.503 3.013 C 6.424 3.014,6.324 3.032,6.280 3.055 " stroke="none" fill="black" fill-rule="evenodd"></path></svg>