<svg class="bi bi-alarm-fill" width="1em" height="1em" viewBox="0 0 16 16" fill="currentColor" xmlns="http://www.w3.org/2000/svg"><path d="M5.799 0.050 C 5.422 0.221,5.403 0.747,5.767 0.939 C 5.871 0.994,5.923 0.999,6.433 1.008 L 6.987 1.019 6.987 1.547 L 6.987 2.075 6.847 2.094 C 6.623 2.124,6.010 2.282,5.720 2.383 C 3.352 3.210,1.622 5.200,1.136 7.653 C 1.031 8.186,1.005 8.521,1.021 9.178 C 1.036 9.851,1.074 10.138,1.226 10.735 C 1.358 11.253,1.475 11.567,1.732 12.093 C 2.091 12.828,2.572 13.486,3.168 14.056 L 3.462 14.339 3.022 14.776 C 2.779 15.017,2.564 15.252,2.544 15.299 C 2.413 15.600,2.618 15.956,2.943 15.993 C 3.167 16.018,3.228 15.977,3.773 15.439 L 4.280 14.938 4.584 15.108 C 6.705 16.293,9.298 16.293,11.416 15.108 L 11.720 14.938 12.214 15.428 C 12.520 15.732,12.745 15.933,12.806 15.959 C 13.126 16.093,13.493 15.855,13.493 15.514 C 13.493 15.443,13.477 15.346,13.456 15.299 C 13.436 15.252,13.221 15.017,12.979 14.776 L 12.538 14.339 12.841 14.048 C 13.951 12.981,14.681 11.572,14.925 10.022 C 14.986 9.639,14.993 8.440,14.937 8.067 C 14.695 6.444,13.979 5.042,12.832 3.943 C 11.863 3.014,10.634 2.378,9.327 2.128 L 9.013 2.068 9.013 1.543 L 9.013 1.019 9.567 1.008 C 10.074 0.999,10.129 0.993,10.231 0.940 C 10.597 0.747,10.580 0.222,10.201 0.050 C 10.099 0.004,9.974 0.001,8.000 0.001 C 6.026 0.001,5.901 0.004,5.799 0.050 M2.000 1.052 C 0.414 1.392,-0.442 3.096,0.241 4.556 C 0.299 4.678,0.398 4.852,0.463 4.942 C 0.589 5.118,0.816 5.360,0.856 5.360 C 0.868 5.360,0.911 5.297,0.950 5.221 C 1.269 4.590,1.861 3.814,2.463 3.235 C 2.964 2.753,3.508 2.347,4.100 2.015 C 4.411 1.840,4.408 1.861,4.160 1.636 C 3.888 1.390,3.544 1.200,3.169 1.091 C 2.916 1.017,2.264 0.996,2.000 1.052 M12.987 1.055 C 12.581 1.142,12.187 1.336,11.874 1.604 C 11.584 1.852,11.583 1.837,11.900 2.015 C 12.895 2.576,13.764 3.345,14.445 4.267 C 14.647 4.539,14.936 4.996,15.050 5.221 C 15.089 5.297,15.133 5.360,15.148 5.360 C 15.187 5.360,15.403 5.129,15.537 4.942 C 16.495 3.607,15.880 1.683,14.320 1.142 C 13.944 1.011,13.366 0.973,12.987 1.055 M8.195 4.543 C 8.306 4.589,8.443 4.746,8.476 4.864 C 8.492 4.924,8.492 5.724,8.474 7.085 L 8.446 9.213 7.663 10.779 C 6.952 12.202,6.871 12.352,6.780 12.412 C 6.653 12.495,6.488 12.522,6.360 12.480 C 6.234 12.438,6.082 12.305,6.036 12.195 C 5.952 11.993,5.953 11.989,6.747 10.400 L 7.493 8.906 7.493 6.940 C 7.494 5.650,7.503 4.939,7.522 4.873 C 7.556 4.751,7.690 4.592,7.800 4.544 C 7.905 4.498,8.086 4.497,8.195 4.543 " stroke="none" fill="black" fill-rule="evenodd"></path></svg>