<svg class="bi bi-alt" width="1em" height="1em" viewBox="0 0 16 16" fill="currentColor" xmlns="http://www.w3.org/2000/svg"><path d="M10.493 2.050 C 10.435 2.077,10.365 2.123,10.339 2.153 C 10.312 2.183,9.100 4.636,7.645 7.604 L 4.999 13.000 3.160 13.013 C 1.789 13.023,1.306 13.035,1.264 13.059 C 1.179 13.107,1.043 13.272,1.024 13.348 C 1.015 13.385,1.012 13.480,1.019 13.559 C 1.034 13.738,1.133 13.878,1.295 13.950 C 1.405 13.999,1.495 14.001,3.436 13.994 L 5.462 13.987 5.578 13.906 C 5.690 13.826,5.758 13.692,8.343 8.420 L 10.993 3.015 12.810 3.008 L 14.627 3.000 14.736 2.938 C 14.796 2.903,14.877 2.825,14.918 2.764 C 14.982 2.666,14.989 2.633,14.981 2.477 C 14.970 2.266,14.884 2.130,14.710 2.051 C 14.606 2.004,14.496 2.001,12.600 2.001 C 10.716 2.001,10.594 2.004,10.493 2.050 M11.266 13.063 C 11.162 13.126,11.045 13.265,11.023 13.350 C 10.989 13.487,11.028 13.699,11.106 13.801 C 11.261 14.005,11.203 13.999,13.000 13.999 C 14.799 13.999,14.739 14.005,14.896 13.799 C 14.958 13.717,14.974 13.667,14.981 13.523 C 14.989 13.367,14.982 13.334,14.918 13.236 C 14.877 13.175,14.800 13.100,14.745 13.069 C 14.648 13.014,14.621 13.013,12.996 13.013 C 11.437 13.014,11.342 13.016,11.266 13.063 " stroke="none" fill="black" fill-rule="evenodd"></path></svg>