<svg class="bi bi-app-indicator" width="1em" height="1em" viewBox="0 0 16 16" fill="currentColor" xmlns="http://www.w3.org/2000/svg"><path d="M12.573 0.030 C 11.050 0.249,9.926 1.621,10.009 3.160 C 10.091 4.687,11.313 5.909,12.840 5.991 C 14.896 6.102,16.450 4.144,15.877 2.166 C 15.503 0.876,14.303 -0.016,12.965 0.003 C 12.837 0.005,12.661 0.017,12.573 0.030 M4.947 1.032 C 3.031 1.279,1.483 2.714,1.092 4.603 C 1.004 5.032,0.988 5.542,0.988 8.000 C 0.988 10.458,1.004 10.968,1.092 11.397 C 1.458 13.165,2.836 14.543,4.603 14.907 C 5.037 14.997,5.529 15.012,8.000 15.012 C 10.471 15.012,10.963 14.997,11.397 14.907 C 13.163 14.543,14.541 13.165,14.908 11.397 C 14.990 11.002,15.017 10.353,15.008 9.052 C 15.000 7.899,14.999 7.878,14.941 7.769 C 14.791 7.490,14.426 7.416,14.187 7.617 C 14.007 7.769,14.015 7.690,13.997 9.427 C 13.983 10.893,13.978 11.015,13.927 11.227 C 13.583 12.641,12.581 13.628,11.172 13.937 C 10.960 13.984,10.773 13.987,8.000 13.987 C 5.227 13.987,5.040 13.984,4.828 13.937 C 3.399 13.623,2.377 12.601,2.063 11.172 C 2.016 10.960,2.013 10.772,2.013 8.000 C 2.013 4.757,2.005 4.931,2.178 4.401 C 2.507 3.392,3.368 2.522,4.373 2.186 C 4.872 2.019,4.865 2.020,6.573 2.003 C 8.310 1.985,8.231 1.993,8.383 1.813 C 8.581 1.577,8.509 1.204,8.239 1.066 C 8.139 1.015,8.081 1.013,6.581 1.017 C 5.726 1.020,4.991 1.026,4.947 1.032 " stroke="none" fill="black" fill-rule="evenodd"></path></svg>