<svg class="bi bi-arrow-up-left-circle-fill" width="1em" height="1em" viewBox="0 0 16 16" fill="currentColor" xmlns="http://www.w3.org/2000/svg"><path d="M7.293 0.030 C 4.174 0.300,1.460 2.423,0.439 5.390 C -0.989 9.546,1.195 14.077,5.331 15.539 C 8.244 16.569,11.468 15.838,13.653 13.653 C 16.473 10.834,16.787 6.378,14.390 3.190 C 12.867 1.166,10.473 -0.019,7.947 0.004 C 7.734 0.006,7.440 0.018,7.293 0.030 M9.723 5.057 C 9.915 5.148,10.022 5.362,9.988 5.587 C 9.965 5.744,9.803 5.932,9.657 5.973 C 9.597 5.989,9.012 6.000,8.134 6.000 L 6.707 6.000 8.832 8.127 C 10.854 10.151,10.957 10.259,10.979 10.373 C 11.025 10.609,10.933 10.825,10.741 10.933 C 10.628 10.997,10.434 11.009,10.307 10.961 C 10.259 10.943,9.381 10.086,8.113 8.819 L 6.000 6.707 6.000 8.134 C 6.000 9.012,5.989 9.597,5.973 9.657 C 5.932 9.803,5.744 9.965,5.587 9.988 C 5.362 10.022,5.148 9.915,5.057 9.723 C 5.018 9.641,5.013 9.409,5.013 7.495 C 5.013 5.707,5.019 5.346,5.051 5.285 C 5.092 5.207,5.208 5.091,5.293 5.044 C 5.331 5.024,5.978 5.015,7.489 5.014 C 9.410 5.013,9.641 5.018,9.723 5.057 " stroke="none" fill="black" fill-rule="evenodd"></path></svg>