<svg class="bi bi-arrow-bar-right" width="1em" height="1em" viewBox="0 0 16 16" fill="currentColor" xmlns="http://www.w3.org/2000/svg"><path d="M3.290 2.051 C 3.144 2.117,3.046 2.252,3.013 2.431 C 2.995 2.526,2.988 4.473,2.993 8.095 C 3.000 13.424,3.002 13.617,3.050 13.714 C 3.151 13.916,3.358 14.022,3.587 13.988 C 3.744 13.965,3.932 13.803,3.973 13.657 C 4.009 13.525,4.010 2.477,3.974 2.346 C 3.944 2.239,3.784 2.070,3.672 2.028 C 3.560 1.986,3.414 1.995,3.290 2.051 M10.260 4.562 C 10.061 4.667,9.955 4.939,10.027 5.164 C 10.053 5.245,10.289 5.496,11.169 6.380 L 12.279 7.493 9.373 7.493 C 7.456 7.494,6.433 7.503,6.367 7.521 C 6.167 7.577,6.001 7.793,6.001 8.000 C 6.001 8.207,6.167 8.423,6.367 8.479 C 6.433 8.497,7.456 8.506,9.373 8.507 L 12.279 8.507 11.181 9.607 C 10.434 10.354,10.069 10.738,10.041 10.806 C 9.875 11.207,10.276 11.617,10.685 11.465 C 10.797 11.424,13.887 8.332,13.949 8.200 C 13.976 8.141,13.999 8.051,13.999 8.000 C 13.999 7.949,13.976 7.859,13.949 7.800 C 13.887 7.668,10.797 4.576,10.685 4.535 C 10.567 4.491,10.370 4.503,10.260 4.562 " stroke="none" fill="black" fill-rule="evenodd"></path></svg>