<svg class="bi bi-arrow-down-up" width="1em" height="1em" viewBox="0 0 16 16" fill="currentColor" xmlns="http://www.w3.org/2000/svg"><path d="M4.787 2.551 C 4.669 2.613,4.614 2.668,4.557 2.779 C 4.508 2.875,4.507 3.014,4.507 7.339 L 4.507 11.799 3.380 10.675 C 2.376 9.674,2.241 9.548,2.137 9.520 C 1.756 9.420,1.420 9.756,1.520 10.137 C 1.548 10.242,1.709 10.412,3.115 11.822 C 3.978 12.687,4.724 13.413,4.779 13.442 C 4.835 13.471,4.931 13.493,5.000 13.493 C 5.069 13.493,5.165 13.471,5.221 13.442 C 5.276 13.413,6.022 12.687,6.885 11.822 C 8.291 10.412,8.452 10.242,8.480 10.137 C 8.580 9.756,8.244 9.420,7.863 9.520 C 7.759 9.548,7.624 9.674,6.620 10.675 L 5.493 11.799 5.493 7.339 C 5.493 3.014,5.492 2.875,5.443 2.779 C 5.385 2.666,5.329 2.611,5.208 2.550 C 5.100 2.495,4.891 2.496,4.787 2.551 M10.773 2.559 C 10.722 2.587,9.976 3.316,9.115 4.178 C 7.709 5.588,7.548 5.758,7.520 5.863 C 7.420 6.244,7.756 6.580,8.137 6.480 C 8.241 6.452,8.376 6.326,9.380 5.325 L 10.507 4.201 10.507 8.661 C 10.507 12.986,10.508 13.125,10.557 13.221 C 10.646 13.396,10.805 13.493,11.000 13.493 C 11.195 13.493,11.354 13.396,11.443 13.221 C 11.492 13.125,11.493 12.986,11.493 8.661 L 11.493 4.201 12.620 5.325 C 13.624 6.326,13.759 6.452,13.863 6.480 C 14.244 6.580,14.580 6.244,14.480 5.863 C 14.452 5.758,14.291 5.588,12.885 4.178 C 12.022 3.313,11.276 2.587,11.221 2.558 C 11.095 2.492,10.897 2.493,10.773 2.559 " stroke="none" fill="black" fill-rule="evenodd"></path></svg>