<svg class="bi bi-arrow-down-left-square" width="1em" height="1em" viewBox="0 0 16 16" fill="currentColor" xmlns="http://www.w3.org/2000/svg"><path d="M1.600 0.042 C 0.952 0.181,0.407 0.629,0.157 1.226 C -0.010 1.625,0.000 1.207,0.000 8.000 C 0.000 14.793,-0.010 14.375,0.157 14.774 C 0.350 15.235,0.765 15.650,1.226 15.843 C 1.625 16.010,1.207 16.000,8.000 16.000 C 13.536 16.000,14.211 15.996,14.394 15.958 C 15.184 15.796,15.796 15.184,15.958 14.394 C 15.996 14.211,16.000 13.536,16.000 8.000 C 16.000 2.464,15.996 1.789,15.958 1.606 C 15.796 0.816,15.184 0.204,14.394 0.042 C 14.210 0.004,13.540 0.000,7.981 0.002 C 2.765 0.004,1.746 0.010,1.600 0.042 M14.428 1.099 C 14.616 1.192,14.808 1.384,14.901 1.572 L 14.973 1.720 14.980 7.946 C 14.986 13.403,14.982 14.188,14.947 14.309 C 14.867 14.586,14.586 14.864,14.296 14.954 C 14.156 14.997,13.759 15.000,8.000 15.000 C 2.241 15.000,1.844 14.997,1.704 14.954 C 1.422 14.866,1.158 14.612,1.063 14.338 C 1.018 14.207,1.015 13.880,1.014 7.994 C 1.013 1.932,1.015 1.784,1.065 1.652 C 1.162 1.395,1.389 1.166,1.645 1.066 C 1.769 1.017,1.962 1.016,8.027 1.021 L 14.280 1.027 14.428 1.099 M10.373 5.021 C 10.259 5.043,10.151 5.146,8.127 7.168 L 6.000 9.293 6.000 7.866 C 6.000 7.015,5.989 6.402,5.974 6.346 C 5.944 6.239,5.784 6.070,5.672 6.028 C 5.485 5.958,5.233 6.032,5.110 6.193 C 5.070 6.246,5.028 6.349,5.012 6.435 C 4.994 6.532,4.987 7.293,4.992 8.605 C 4.999 10.448,5.004 10.634,5.045 10.709 C 5.104 10.816,5.261 10.954,5.354 10.980 C 5.451 11.007,9.505 11.006,9.634 10.979 C 9.767 10.951,9.932 10.791,9.974 10.649 C 10.025 10.477,9.989 10.310,9.871 10.181 C 9.703 9.994,9.762 10.000,8.155 10.000 L 6.707 10.000 8.832 7.873 C 10.854 5.849,10.957 5.741,10.979 5.627 C 11.055 5.237,10.763 4.945,10.373 5.021 " stroke="none" fill="black" fill-rule="evenodd"></path></svg>