<svg class="bi bi-arrow-down-right" width="1em" height="1em" viewBox="0 0 16 16" fill="currentColor" xmlns="http://www.w3.org/2000/svg"><path d="M2.785 3.560 C 2.622 3.642,2.529 3.772,2.513 3.944 C 2.487 4.218,2.233 3.947,6.676 8.393 L 10.786 12.507 8.832 12.507 C 6.735 12.507,6.810 12.502,6.657 12.637 C 6.463 12.807,6.463 13.193,6.657 13.363 C 6.812 13.500,6.676 13.493,9.506 13.493 C 12.091 13.493,12.137 13.492,12.241 13.439 C 12.299 13.410,12.380 13.336,12.420 13.275 L 12.493 13.164 12.500 10.566 C 12.505 8.725,12.499 7.937,12.478 7.859 C 12.439 7.713,12.284 7.561,12.135 7.520 C 11.868 7.448,11.593 7.601,11.521 7.861 C 11.503 7.925,11.494 8.637,11.493 9.867 L 11.493 11.773 7.407 7.688 C 4.203 4.485,3.294 3.591,3.200 3.548 C 3.041 3.477,2.944 3.480,2.785 3.560 " stroke="none" fill="black" fill-rule="evenodd"></path></svg>