<svg class="bi bi-arrow-left-right" width="1em" height="1em" viewBox="0 0 16 16" fill="currentColor" xmlns="http://www.w3.org/2000/svg"><path d="M5.333 1.524 C 5.260 1.545,4.899 1.891,3.673 3.115 C 2.630 4.156,2.088 4.716,2.053 4.788 C 1.986 4.926,1.986 5.074,2.053 5.212 C 2.088 5.284,2.630 5.843,3.673 6.884 C 5.288 8.496,5.299 8.506,5.493 8.506 C 5.746 8.506,5.998 8.257,5.999 8.006 C 6.001 7.813,5.941 7.743,4.806 6.607 L 3.694 5.493 8.653 5.493 C 13.468 5.492,13.617 5.491,13.725 5.442 C 13.893 5.365,13.987 5.208,13.987 5.000 C 13.987 4.792,13.893 4.635,13.725 4.558 C 13.617 4.509,13.468 4.508,8.653 4.507 L 3.694 4.507 4.806 3.393 C 5.566 2.633,5.931 2.249,5.959 2.181 C 6.069 1.916,5.912 1.599,5.633 1.521 C 5.515 1.489,5.459 1.489,5.333 1.524 M10.337 7.532 C 10.148 7.600,10.002 7.801,10.001 7.994 C 9.999 8.187,10.059 8.257,11.194 9.393 L 12.306 10.507 7.348 10.507 L 2.390 10.507 2.273 10.563 C 2.100 10.647,2.013 10.793,2.013 11.000 C 2.013 11.207,2.100 11.353,2.273 11.437 L 2.390 11.493 7.348 11.493 L 12.306 11.493 11.194 12.607 C 10.434 13.367,10.069 13.751,10.041 13.819 C 9.931 14.084,10.088 14.401,10.367 14.479 C 10.493 14.514,10.516 14.513,10.650 14.476 C 10.745 14.449,10.979 14.226,12.327 12.882 C 13.372 11.841,13.912 11.284,13.947 11.212 C 13.976 11.152,14.000 11.057,14.000 11.000 C 14.000 10.943,13.976 10.848,13.947 10.788 C 13.912 10.716,13.370 10.157,12.327 9.116 C 10.986 7.777,10.745 7.547,10.653 7.522 C 10.517 7.486,10.464 7.487,10.337 7.532 " stroke="none" fill="black" fill-rule="evenodd"></path></svg>