<svg class="bi bi-arrow-90deg-down" width="1em" height="1em" viewBox="0 0 16 16" fill="currentColor" xmlns="http://www.w3.org/2000/svg"><path d="M7.747 3.512 C 7.139 3.590,6.654 3.824,6.239 4.239 C 5.986 4.491,5.805 4.762,5.682 5.071 C 5.501 5.524,5.511 5.322,5.501 8.705 L 5.492 11.771 4.406 10.687 C 3.288 9.571,3.199 9.495,2.999 9.494 C 2.878 9.493,2.663 9.612,2.589 9.720 C 2.512 9.835,2.488 10.034,2.533 10.177 C 2.560 10.260,2.868 10.582,4.090 11.808 C 4.928 12.648,5.659 13.367,5.715 13.405 C 5.856 13.503,6.063 13.519,6.218 13.444 C 6.299 13.405,6.794 12.926,7.883 11.834 C 9.127 10.587,9.440 10.260,9.467 10.177 C 9.512 10.034,9.488 9.835,9.411 9.720 C 9.337 9.612,9.122 9.493,9.001 9.494 C 8.801 9.495,8.712 9.571,7.593 10.688 L 6.507 11.772 6.507 8.785 C 6.507 5.495,6.499 5.659,6.674 5.307 C 6.789 5.075,7.075 4.789,7.307 4.674 C 7.658 4.499,7.507 4.507,10.666 4.507 C 12.556 4.506,13.567 4.497,13.633 4.479 C 13.833 4.423,13.999 4.207,13.999 4.000 C 13.999 3.793,13.833 3.577,13.633 3.521 C 13.539 3.495,7.945 3.486,7.747 3.512 " stroke="none" fill="black" fill-rule="evenodd"></path></svg>