<svg class="bi bi-arrow-90deg-up" width="1em" height="1em" viewBox="0 0 16 16" fill="currentColor" xmlns="http://www.w3.org/2000/svg"><path d="M5.907 3.013 C 5.863 3.023,5.791 3.050,5.747 3.074 C 5.635 3.133,2.602 6.180,2.549 6.285 C 2.500 6.383,2.494 6.575,2.535 6.685 C 2.570 6.778,2.682 6.899,2.782 6.951 C 2.873 6.998,3.118 7.003,3.205 6.959 C 3.239 6.942,3.767 6.428,4.379 5.818 L 5.491 4.709 5.500 7.788 L 5.509 10.867 5.568 11.093 C 5.791 11.937,6.425 12.619,7.227 12.875 C 7.629 13.003,7.549 13.000,10.627 13.000 C 12.225 13.000,13.578 12.990,13.634 12.979 C 13.767 12.951,13.932 12.791,13.974 12.649 C 14.045 12.409,13.916 12.131,13.688 12.036 C 13.617 12.007,13.079 12.000,10.739 12.000 C 8.824 12.000,7.824 11.991,7.718 11.971 C 7.307 11.897,6.883 11.585,6.689 11.213 C 6.497 10.846,6.507 11.035,6.507 7.703 L 6.507 4.707 7.620 5.817 C 8.232 6.428,8.761 6.942,8.795 6.959 C 8.882 7.003,9.127 6.998,9.218 6.951 C 9.318 6.899,9.430 6.778,9.465 6.685 C 9.506 6.575,9.500 6.383,9.451 6.285 C 9.393 6.169,6.357 3.129,6.240 3.069 C 6.122 3.008,6.008 2.989,5.907 3.013 " stroke="none" fill="black" fill-rule="evenodd"></path></svg>