<svg class="bi bi-arrow-left-square" width="1em" height="1em" viewBox="0 0 16 16" fill="currentColor" xmlns="http://www.w3.org/2000/svg"><path d="M1.600 0.042 C 0.952 0.181,0.407 0.629,0.157 1.226 C -0.010 1.625,0.000 1.207,0.000 8.000 C 0.000 14.793,-0.010 14.375,0.157 14.774 C 0.350 15.235,0.765 15.650,1.226 15.843 C 1.625 16.010,1.207 16.000,8.000 16.000 C 13.536 16.000,14.211 15.996,14.394 15.958 C 15.184 15.796,15.796 15.184,15.958 14.394 C 15.996 14.211,16.000 13.536,16.000 8.000 C 16.000 2.464,15.996 1.789,15.958 1.606 C 15.796 0.816,15.184 0.204,14.394 0.042 C 14.210 0.004,13.540 0.000,7.981 0.002 C 2.765 0.004,1.746 0.010,1.600 0.042 M14.428 1.099 C 14.616 1.192,14.808 1.384,14.901 1.572 L 14.973 1.720 14.980 7.946 C 14.986 13.403,14.982 14.188,14.947 14.309 C 14.867 14.586,14.586 14.864,14.296 14.954 C 14.156 14.997,13.759 15.000,8.000 15.000 C 2.241 15.000,1.844 14.997,1.704 14.954 C 1.422 14.866,1.158 14.612,1.063 14.338 C 1.018 14.207,1.015 13.880,1.014 7.994 C 1.013 1.932,1.015 1.784,1.065 1.652 C 1.162 1.395,1.389 1.166,1.645 1.066 C 1.769 1.017,1.962 1.016,8.027 1.021 L 14.280 1.027 14.428 1.099 M7.787 4.549 C 7.687 4.592,4.721 7.533,4.595 7.714 C 4.512 7.834,4.486 8.029,4.533 8.177 C 4.560 8.260,4.868 8.582,6.090 9.808 C 6.928 10.648,7.659 11.367,7.715 11.405 C 7.944 11.565,8.279 11.498,8.415 11.266 C 8.509 11.106,8.523 10.986,8.467 10.833 C 8.427 10.726,8.253 10.539,7.324 9.607 L 6.228 8.507 8.627 8.507 C 10.219 8.506,11.061 8.497,11.127 8.478 C 11.253 8.444,11.410 8.309,11.457 8.195 C 11.539 7.999,11.486 7.776,11.325 7.634 C 11.272 7.588,11.183 7.537,11.127 7.522 C 11.061 7.503,10.219 7.494,8.627 7.493 L 6.228 7.493 7.324 6.393 C 8.253 5.461,8.427 5.274,8.467 5.167 C 8.523 5.014,8.509 4.894,8.415 4.734 C 8.297 4.533,8.016 4.450,7.787 4.549 " stroke="none" fill="black" fill-rule="evenodd"></path></svg>