<svg class="bi bi-arrow-down-right-square-fill" width="1em" height="1em" viewBox="0 0 16 16" fill="currentColor" xmlns="http://www.w3.org/2000/svg"><path d="M1.600 0.042 C 0.952 0.181,0.407 0.629,0.157 1.226 C -0.010 1.625,0.000 1.207,0.000 8.000 C 0.000 14.793,-0.010 14.375,0.157 14.774 C 0.350 15.235,0.765 15.650,1.226 15.843 C 1.625 16.010,1.207 16.000,8.000 16.000 C 13.536 16.000,14.211 15.996,14.394 15.958 C 15.184 15.796,15.796 15.184,15.958 14.394 C 15.996 14.211,16.000 13.536,16.000 8.000 C 16.000 2.464,15.996 1.789,15.958 1.606 C 15.796 0.816,15.184 0.204,14.394 0.042 C 14.210 0.004,13.540 0.000,7.981 0.002 C 2.765 0.004,1.746 0.010,1.600 0.042 M5.719 5.039 C 5.734 5.040,6.702 5.997,7.872 7.166 L 9.999 9.291 10.006 7.810 L 10.013 6.329 10.078 6.236 C 10.279 5.942,10.685 5.925,10.896 6.201 L 10.973 6.302 10.981 8.451 C 10.985 9.633,10.982 10.627,10.974 10.660 C 10.954 10.739,10.812 10.899,10.709 10.955 C 10.634 10.996,10.448 11.001,8.605 11.008 C 7.299 11.013,6.530 11.006,6.434 10.988 C 5.966 10.901,5.845 10.345,6.236 10.078 L 6.329 10.013 7.810 10.006 L 9.292 9.999 7.180 7.886 C 5.914 6.619,5.057 5.741,5.039 5.693 C 4.898 5.321,5.220 4.933,5.600 5.018 C 5.651 5.029,5.705 5.039,5.719 5.039 " stroke="none" fill="black" fill-rule="evenodd"></path></svg>