<svg class="bi bi-arrow-up-right-square-fill" width="1em" height="1em" viewBox="0 0 16 16" fill="currentColor" xmlns="http://www.w3.org/2000/svg"><path d="M1.600 0.042 C 0.952 0.181,0.407 0.629,0.157 1.226 C -0.010 1.625,0.000 1.207,0.000 8.000 C 0.000 14.793,-0.010 14.375,0.157 14.774 C 0.350 15.235,0.765 15.650,1.226 15.843 C 1.625 16.010,1.207 16.000,8.000 16.000 C 13.536 16.000,14.211 15.996,14.394 15.958 C 15.184 15.796,15.796 15.184,15.958 14.394 C 15.996 14.211,16.000 13.536,16.000 8.000 C 16.000 2.464,15.996 1.789,15.958 1.606 C 15.796 0.816,15.184 0.204,14.394 0.042 C 14.210 0.004,13.540 0.000,7.981 0.002 C 2.765 0.004,1.746 0.010,1.600 0.042 M10.715 5.051 C 10.797 5.094,10.913 5.212,10.957 5.298 C 10.978 5.340,10.987 5.966,10.987 7.494 C 10.987 9.409,10.982 9.641,10.943 9.723 C 10.807 10.011,10.419 10.086,10.181 9.871 C 9.994 9.703,10.000 9.762,10.000 8.154 L 10.000 6.707 7.887 8.819 C 6.619 10.086,5.741 10.943,5.693 10.961 C 5.590 11.000,5.379 10.999,5.301 10.958 C 5.211 10.912,5.094 10.797,5.049 10.712 C 5.002 10.622,4.997 10.417,5.039 10.307 C 5.057 10.259,5.914 9.381,7.181 8.113 L 9.293 6.000 7.866 6.000 C 7.015 6.000,6.402 5.989,6.346 5.974 C 6.239 5.944,6.070 5.784,6.028 5.672 C 5.967 5.508,6.026 5.252,6.150 5.142 C 6.300 5.009,6.207 5.014,8.501 5.013 C 10.293 5.013,10.654 5.019,10.715 5.051 " stroke="none" fill="black" fill-rule="evenodd"></path></svg>