<svg class="bi bi-arrow-bar-down" width="1em" height="1em" viewBox="0 0 16 16" fill="currentColor" xmlns="http://www.w3.org/2000/svg"><path d="M2.280 3.055 C 2.160 3.118,2.104 3.176,2.050 3.293 C 1.995 3.414,1.986 3.560,2.028 3.672 C 2.070 3.784,2.239 3.944,2.346 3.974 C 2.477 4.010,13.525 4.009,13.657 3.973 C 13.803 3.932,13.965 3.744,13.988 3.587 C 14.022 3.362,13.915 3.148,13.723 3.057 C 13.640 3.017,13.135 3.013,7.996 3.013 C 2.937 3.014,2.352 3.018,2.280 3.055 M7.799 6.050 C 7.667 6.110,7.558 6.235,7.521 6.367 C 7.503 6.433,7.494 7.456,7.493 9.373 L 7.493 12.279 6.380 11.169 C 5.184 9.978,5.187 9.980,4.943 10.007 C 4.627 10.043,4.422 10.382,4.535 10.685 C 4.576 10.797,7.668 13.887,7.800 13.949 C 7.859 13.976,7.949 13.999,8.000 13.999 C 8.051 13.999,8.141 13.976,8.200 13.949 C 8.332 13.887,11.424 10.797,11.465 10.685 C 11.578 10.382,11.373 10.043,11.057 10.007 C 10.813 9.980,10.816 9.978,9.620 11.169 L 8.507 12.279 8.507 9.373 C 8.506 7.456,8.497 6.433,8.479 6.367 C 8.423 6.167,8.207 6.001,8.000 6.001 C 7.949 6.001,7.858 6.023,7.799 6.050 " stroke="none" fill="black" fill-rule="evenodd"></path></svg>