<svg class="bi bi-arrow-up-right" width="1em" height="1em" viewBox="0 0 16 16" fill="currentColor" xmlns="http://www.w3.org/2000/svg"><path d="M6.844 3.532 C 6.480 3.662,6.388 4.114,6.675 4.366 C 6.728 4.412,6.817 4.463,6.873 4.478 C 6.939 4.497,7.632 4.506,8.880 4.507 L 10.787 4.507 6.689 8.607 C 4.436 10.862,2.573 12.745,2.549 12.792 C 2.465 12.962,2.517 13.241,2.657 13.363 C 2.806 13.494,3.045 13.532,3.208 13.451 C 3.255 13.427,5.138 11.564,7.393 9.311 L 11.493 5.213 11.493 7.120 C 11.494 8.368,11.503 9.061,11.522 9.127 C 11.556 9.253,11.691 9.410,11.805 9.457 C 11.916 9.503,12.084 9.503,12.195 9.457 C 12.309 9.410,12.444 9.253,12.478 9.127 C 12.497 9.060,12.506 8.173,12.507 6.472 C 12.507 4.227,12.502 3.906,12.465 3.820 C 12.410 3.688,12.329 3.603,12.200 3.544 C 12.099 3.497,11.966 3.495,9.520 3.495 C 7.403 3.496,6.928 3.502,6.844 3.532 " stroke="none" fill="black" fill-rule="evenodd"></path></svg>