<svg class="bi bi-arrow-right" width="1em" height="1em" viewBox="0 0 16 16" fill="currentColor" xmlns="http://www.w3.org/2000/svg"><path d="M10.260 4.562 C 10.061 4.667,9.955 4.939,10.027 5.164 C 10.053 5.245,10.289 5.496,11.169 6.380 L 12.279 7.493 7.373 7.493 C 4.080 7.494,2.434 7.503,2.367 7.521 C 2.167 7.577,2.001 7.793,2.001 8.000 C 2.001 8.207,2.167 8.423,2.367 8.479 C 2.434 8.497,4.080 8.506,7.373 8.507 L 12.279 8.507 11.181 9.607 C 10.434 10.354,10.069 10.738,10.041 10.806 C 9.875 11.207,10.276 11.617,10.685 11.465 C 10.797 11.424,13.887 8.332,13.949 8.200 C 13.976 8.141,13.999 8.051,13.999 8.000 C 13.999 7.949,13.976 7.859,13.949 7.800 C 13.887 7.668,10.797 4.576,10.685 4.535 C 10.567 4.491,10.370 4.503,10.260 4.562 " stroke="none" fill="black" fill-rule="evenodd"></path></svg>