<svg class="bi bi-arrow-90deg-right" width="1em" height="1em" viewBox="0 0 16 16" fill="currentColor" xmlns="http://www.w3.org/2000/svg"><path d="M10.129 2.265 C 9.899 2.338,9.760 2.517,9.760 2.740 C 9.760 2.829,9.779 2.919,9.812 2.981 C 9.840 3.035,10.350 3.566,10.945 4.160 L 12.027 5.240 8.927 5.254 L 5.827 5.267 5.614 5.329 C 4.664 5.604,3.982 6.335,3.798 7.276 C 3.741 7.569,3.741 13.353,3.799 13.464 C 3.957 13.771,4.381 13.841,4.604 13.596 C 4.755 13.429,4.747 13.615,4.747 10.500 C 4.747 8.584,4.756 7.584,4.775 7.478 C 4.791 7.391,4.853 7.218,4.912 7.093 C 5.091 6.721,5.416 6.444,5.840 6.303 C 5.978 6.257,6.166 6.254,9.013 6.246 L 12.040 6.238 10.943 7.339 C 10.340 7.945,9.827 8.478,9.803 8.525 C 9.779 8.572,9.760 8.672,9.760 8.746 C 9.760 9.089,10.060 9.316,10.394 9.226 C 10.511 9.195,10.636 9.076,12.062 7.656 C 12.910 6.811,13.632 6.072,13.666 6.013 C 13.750 5.868,13.769 5.760,13.733 5.622 C 13.706 5.519,13.539 5.342,12.125 3.925 C 11.257 3.055,10.515 2.326,10.476 2.306 C 10.383 2.256,10.217 2.237,10.129 2.265 " stroke="none" fill="black" fill-rule="evenodd"></path></svg>