<svg class="bi bi-arrow-counterclockwise" width="1em" height="1em" viewBox="0 0 16 16" fill="currentColor" xmlns="http://www.w3.org/2000/svg"><path d="M7.307 0.041 C 7.188 0.093,4.629 2.642,4.558 2.779 C 4.492 2.906,4.492 3.094,4.558 3.221 C 4.586 3.275,5.201 3.910,5.925 4.630 C 6.977 5.679,7.261 5.947,7.343 5.973 C 7.640 6.068,7.959 5.866,7.993 5.563 C 8.020 5.323,8.009 5.309,7.018 4.314 C 6.511 3.805,6.101 3.383,6.108 3.377 C 6.147 3.339,6.728 3.161,7.012 3.100 C 7.324 3.033,7.391 3.028,8.000 3.028 C 8.608 3.028,8.676 3.033,8.987 3.100 C 10.538 3.432,11.776 4.384,12.465 5.773 C 12.684 6.214,12.817 6.601,12.911 7.067 C 12.966 7.336,12.973 7.450,12.973 8.000 C 12.973 8.550,12.966 8.664,12.911 8.933 C 12.500 10.971,10.971 12.500,8.933 12.911 C 8.662 12.966,8.553 12.973,7.987 12.972 C 7.395 12.972,7.321 12.966,7.012 12.900 C 6.557 12.803,6.191 12.673,5.747 12.453 C 4.374 11.771,3.402 10.484,3.089 8.933 C 3.034 8.664,3.027 8.550,3.027 8.000 C 3.027 7.452,3.034 7.336,3.088 7.070 C 3.159 6.720,3.244 6.440,3.390 6.073 C 3.540 5.695,3.524 5.516,3.324 5.341 C 3.111 5.154,2.833 5.169,2.633 5.379 C 2.503 5.516,2.250 6.207,2.137 6.733 C 2.036 7.202,2.013 7.443,2.015 8.027 C 2.017 8.676,2.062 9.013,2.225 9.606 C 2.818 11.762,4.608 13.433,6.800 13.877 C 7.412 14.000,8.280 14.026,8.852 13.937 C 10.802 13.635,12.408 12.494,13.318 10.768 C 13.631 10.175,13.824 9.570,13.951 8.787 C 14.004 8.456,13.996 7.494,13.938 7.133 C 13.828 6.460,13.672 5.961,13.387 5.372 C 12.205 2.929,9.489 1.581,6.827 2.116 L 6.532 2.176 7.236 1.468 C 7.993 0.707,8.019 0.671,7.993 0.437 C 7.957 0.120,7.596 -0.088,7.307 0.041 " stroke="none" fill="black" fill-rule="evenodd"></path></svg>