<svg class="bi bi-at" width="1em" height="1em" viewBox="0 0 16 16" fill="currentColor" xmlns="http://www.w3.org/2000/svg"><path d="M7.017 2.214 C 4.980 2.411,3.397 3.460,2.573 5.160 C 2.024 6.292,1.843 7.751,2.082 9.120 C 2.189 9.730,2.320 10.151,2.564 10.666 C 3.454 12.541,5.322 13.598,7.752 13.600 C 8.511 13.600,9.530 13.455,9.980 13.283 L 10.053 13.255 10.053 12.838 L 10.053 12.420 9.993 12.435 C 9.960 12.443,9.822 12.481,9.685 12.518 C 9.154 12.663,8.757 12.704,7.853 12.705 C 6.964 12.706,6.837 12.693,6.253 12.542 C 4.416 12.064,3.246 10.679,2.983 8.667 C 2.941 8.347,2.942 7.499,2.984 7.200 C 3.198 5.695,3.872 4.545,4.972 3.808 C 5.736 3.297,6.555 3.062,7.573 3.063 C 9.203 3.065,10.537 3.665,11.377 4.773 C 11.568 5.026,11.827 5.529,11.932 5.851 C 12.089 6.333,12.118 6.548,12.119 7.240 C 12.120 7.926,12.097 8.153,11.981 8.600 C 11.759 9.459,11.345 9.932,10.786 9.968 C 10.506 9.986,10.313 9.923,10.160 9.764 C 9.952 9.549,9.963 9.680,9.953 7.313 L 9.945 5.200 9.440 5.200 L 8.935 5.200 8.927 5.620 C 8.920 6.015,8.917 6.040,8.868 6.040 C 8.833 6.040,8.787 5.988,8.724 5.880 C 8.523 5.534,8.158 5.266,7.719 5.143 C 7.431 5.063,6.962 5.063,6.653 5.144 C 5.728 5.386,5.107 6.125,4.890 7.243 C 4.827 7.568,4.828 8.239,4.892 8.600 C 5.087 9.701,5.699 10.466,6.588 10.720 C 6.844 10.794,7.291 10.818,7.566 10.774 C 8.134 10.684,8.587 10.363,8.855 9.859 C 8.907 9.762,8.953 9.707,8.977 9.712 C 8.999 9.716,9.047 9.812,9.088 9.935 C 9.284 10.521,9.813 10.854,10.546 10.853 C 11.186 10.852,11.652 10.665,12.103 10.230 C 12.555 9.793,12.856 9.159,13.017 8.308 C 13.097 7.884,13.117 6.909,13.055 6.480 C 12.717 4.148,11.007 2.564,8.480 2.240 C 8.168 2.200,7.319 2.185,7.017 2.214 M7.772 6.067 C 8.519 6.262,8.952 7.035,8.898 8.080 C 8.858 8.860,8.543 9.441,8.027 9.687 C 7.304 10.032,6.519 9.780,6.173 9.092 C 5.877 8.504,5.849 7.588,6.106 6.900 C 6.262 6.486,6.591 6.176,6.993 6.068 C 7.182 6.017,7.578 6.017,7.772 6.067 " stroke="none" fill="black" fill-rule="evenodd"></path></svg>