<svg class="bi bi-backspace" width="1em" height="1em" viewBox="0 0 16 16" fill="currentColor" xmlns="http://www.w3.org/2000/svg"><path d="M6.093 1.067 C 5.826 1.139,5.497 1.314,5.303 1.489 C 5.211 1.572,4.011 2.953,2.635 4.558 C -0.080 7.724,0.038 7.574,0.007 7.935 C -0.008 8.117,0.047 8.352,0.142 8.507 C 0.240 8.667,5.127 14.352,5.305 14.513 C 5.493 14.683,5.854 14.873,6.133 14.950 C 6.295 14.995,6.544 14.998,9.907 15.007 C 12.160 15.013,13.617 15.006,13.800 14.990 C 14.358 14.939,14.717 14.776,15.094 14.400 C 15.346 14.149,15.492 13.905,15.604 13.547 L 15.667 13.347 15.667 8.000 L 15.667 2.653 15.604 2.453 C 15.492 2.095,15.346 1.851,15.094 1.600 C 14.838 1.345,14.619 1.206,14.307 1.099 L 14.093 1.027 10.187 1.022 C 6.450 1.018,6.272 1.020,6.093 1.067 M14.111 2.100 C 14.408 2.245,14.603 2.506,14.664 2.840 C 14.705 3.061,14.705 12.940,14.664 13.161 C 14.604 13.488,14.402 13.757,14.110 13.900 L 13.933 13.987 10.146 13.987 L 6.359 13.987 6.186 13.901 C 6.091 13.854,5.958 13.758,5.889 13.688 C 5.740 13.534,1.013 8.021,1.013 8.001 C 1.013 7.982,5.730 2.476,5.876 2.325 C 6.009 2.186,6.179 2.081,6.345 2.036 C 6.440 2.011,7.298 2.004,10.200 2.008 L 13.933 2.013 14.111 2.100 M6.071 5.017 C 5.871 5.062,5.725 5.221,5.692 5.432 C 5.655 5.661,5.657 5.664,6.863 6.873 L 7.986 8.000 6.874 9.113 C 5.739 10.250,5.679 10.319,5.681 10.512 C 5.682 10.703,5.843 10.918,6.025 10.974 C 6.130 11.006,6.312 10.992,6.406 10.945 C 6.454 10.921,6.988 10.407,7.593 9.804 L 8.694 8.707 9.807 9.817 C 10.419 10.428,10.946 10.941,10.978 10.957 C 11.052 10.995,11.280 10.995,11.378 10.958 C 11.621 10.866,11.745 10.554,11.639 10.299 C 11.611 10.232,11.246 9.848,10.499 9.100 L 9.401 8.000 10.499 6.900 C 11.246 6.152,11.611 5.768,11.639 5.701 C 11.746 5.444,11.621 5.135,11.373 5.040 C 11.271 5.000,11.060 5.001,10.981 5.041 C 10.948 5.058,10.419 5.572,9.807 6.183 L 8.694 7.293 7.593 6.196 C 6.988 5.593,6.457 5.081,6.413 5.060 C 6.299 5.004,6.189 4.991,6.071 5.017 " stroke="none" fill="black" fill-rule="evenodd"></path></svg>