<svg class="bi bi-bar-chart" width="1em" height="1em" viewBox="0 0 16 16" fill="currentColor" xmlns="http://www.w3.org/2000/svg"><path d="M11.645 1.065 C 11.389 1.167,11.168 1.389,11.058 1.659 L 11.000 1.800 11.000 8.000 L 11.000 14.200 11.058 14.341 C 11.177 14.631,11.427 14.868,11.704 14.954 C 11.836 14.995,11.987 15.000,13.000 15.000 C 14.013 15.000,14.164 14.995,14.296 14.954 C 14.582 14.865,14.855 14.598,14.953 14.310 C 14.997 14.182,15.000 13.807,15.008 8.147 C 15.013 4.049,15.007 2.052,14.988 1.907 C 14.972 1.786,14.931 1.635,14.894 1.559 C 14.808 1.383,14.612 1.190,14.428 1.099 L 14.280 1.027 13.027 1.021 C 11.851 1.015,11.765 1.018,11.645 1.065 M14.000 8.000 L 14.000 14.000 13.000 14.000 L 12.000 14.000 12.000 8.000 L 12.000 2.000 13.000 2.000 L 14.000 2.000 14.000 8.000 M6.767 6.028 C 6.488 6.096,6.216 6.325,6.088 6.600 L 6.013 6.760 6.006 10.438 C 5.998 14.498,5.989 14.264,6.164 14.539 C 6.328 14.796,6.572 14.945,6.904 14.989 C 7.033 15.007,7.511 15.014,8.150 15.008 C 9.149 14.998,9.192 14.996,9.337 14.938 C 9.648 14.814,9.852 14.599,9.947 14.293 C 10.000 14.123,10.001 14.066,9.994 10.440 L 9.987 6.760 9.903 6.587 C 9.797 6.366,9.633 6.201,9.413 6.096 L 9.240 6.013 8.053 6.009 C 7.401 6.006,6.822 6.015,6.767 6.028 M8.987 10.507 L 8.987 14.000 8.000 14.000 L 7.013 14.000 7.013 10.507 L 7.013 7.013 8.000 7.013 L 8.987 7.013 8.987 10.507 M1.704 10.050 C 1.305 10.179,1.064 10.481,1.010 10.919 C 0.994 11.056,0.987 11.734,0.992 12.671 C 1.001 14.165,1.002 14.203,1.058 14.341 C 1.176 14.630,1.426 14.868,1.704 14.954 C 1.836 14.995,1.987 15.000,3.000 15.000 C 4.013 15.000,4.164 14.995,4.296 14.954 C 4.582 14.865,4.857 14.596,4.952 14.310 C 4.992 14.189,4.999 13.999,5.007 12.657 C 5.013 11.717,5.006 11.054,4.989 10.915 C 4.941 10.521,4.716 10.211,4.379 10.075 C 4.229 10.014,4.210 10.013,3.040 10.008 C 1.958 10.002,1.840 10.006,1.704 10.050 M4.000 12.507 L 4.000 14.000 3.000 14.000 L 2.000 14.000 2.000 12.507 L 2.000 11.013 3.000 11.013 L 4.000 11.013 4.000 12.507 " stroke="none" fill="black" fill-rule="evenodd"></path></svg>