<svg class="bi bi-bookmark-check" width="1em" height="1em" viewBox="0 0 16 16" fill="currentColor" xmlns="http://www.w3.org/2000/svg"><path d="M4.079 1.063 C 3.582 1.223,3.224 1.585,3.049 2.107 C 3.002 2.247,3.000 2.520,2.993 8.833 C 2.989 12.452,2.995 15.413,3.006 15.413 C 3.017 15.413,4.145 14.667,5.513 13.756 L 8.000 12.098 10.487 13.756 C 11.855 14.667,12.983 15.413,12.993 15.413 C 13.025 15.413,13.018 8.591,12.987 8.426 C 12.899 7.966,12.343 7.849,12.078 8.236 L 12.013 8.329 12.006 10.938 C 12.002 12.373,11.993 13.547,11.986 13.547 C 11.979 13.547,11.079 12.951,9.987 12.222 L 8.000 10.898 6.013 12.222 C 4.921 12.951,4.021 13.547,4.013 13.547 C 4.006 13.547,4.003 11.023,4.006 7.938 L 4.013 2.329 4.078 2.236 C 4.113 2.184,4.184 2.113,4.236 2.078 L 4.329 2.013 6.491 2.000 C 8.905 1.985,8.744 1.999,8.898 1.796 C 8.958 1.717,8.974 1.666,8.981 1.523 C 8.989 1.367,8.982 1.334,8.918 1.236 C 8.877 1.175,8.800 1.100,8.745 1.069 C 8.647 1.014,8.630 1.013,6.436 1.015 C 4.398 1.016,4.215 1.020,4.079 1.063 M15.307 2.041 C 15.249 2.066,14.690 2.604,13.860 3.434 L 12.507 4.786 11.914 4.194 C 11.177 3.461,11.085 3.409,10.785 3.560 C 10.622 3.642,10.529 3.772,10.513 3.944 C 10.489 4.195,10.505 4.218,11.342 5.060 C 11.769 5.489,12.163 5.872,12.218 5.910 C 12.338 5.993,12.514 6.019,12.657 5.974 C 12.740 5.947,13.067 5.635,14.340 4.364 C 16.046 2.662,16.022 2.690,15.993 2.440 C 15.957 2.121,15.598 1.911,15.307 2.041 " stroke="none" fill="black" fill-rule="evenodd"></path></svg>