<svg class="bi bi-bootstrap-reboot" width="1em" height="1em" viewBox="0 0 16 16" fill="currentColor" xmlns="http://www.w3.org/2000/svg"><path d="M7.772 0.050 C 7.545 0.153,7.392 0.431,7.430 0.669 C 7.456 0.830,7.590 1.013,7.738 1.088 C 7.848 1.144,7.917 1.155,8.325 1.175 C 10.037 1.261,11.525 1.905,12.757 3.093 C 14.098 4.386,14.832 6.122,14.831 8.000 C 14.830 9.227,14.535 10.351,13.944 11.381 C 12.894 13.210,11.141 14.417,9.027 14.765 C 8.605 14.834,7.394 14.834,6.973 14.765 C 5.474 14.517,4.229 13.883,3.172 12.828 C 2.042 11.700,1.364 10.282,1.198 8.700 C 1.151 8.250,1.179 7.296,1.250 6.893 C 1.360 6.278,1.498 5.812,1.735 5.260 C 1.865 4.956,2.174 4.384,2.280 4.251 L 2.333 4.184 2.679 4.483 C 3.042 4.796,3.179 4.879,3.333 4.879 C 3.565 4.880,3.797 4.733,3.877 4.533 C 3.903 4.469,3.993 3.857,4.097 3.045 C 4.299 1.459,4.300 1.515,4.080 1.303 C 3.980 1.205,3.920 1.171,3.807 1.146 C 3.662 1.113,3.657 1.115,2.517 1.427 C 1.888 1.599,1.275 1.766,1.155 1.799 C 1.035 1.831,0.889 1.889,0.832 1.927 C 0.697 2.016,0.587 2.229,0.587 2.400 C 0.587 2.636,0.668 2.736,1.316 3.299 L 1.446 3.412 1.252 3.712 C 0.619 4.692,0.199 5.877,0.049 7.107 C -0.008 7.576,0.006 8.620,0.075 9.086 C 0.261 10.334,0.675 11.426,1.342 12.427 C 2.346 13.935,3.793 15.033,5.523 15.601 C 5.976 15.750,6.368 15.841,6.907 15.923 C 7.223 15.972,7.415 15.983,7.960 15.984 C 8.687 15.987,8.960 15.962,9.575 15.840 C 13.386 15.079,16.119 11.643,15.991 7.773 C 15.935 6.078,15.392 4.525,14.387 3.187 C 13.301 1.741,11.747 0.706,9.987 0.254 C 9.139 0.036,8.028 -0.066,7.772 0.050 M5.493 8.000 L 5.493 11.680 6.067 11.680 L 6.640 11.680 6.640 10.266 L 6.640 8.853 7.432 8.860 L 8.225 8.867 8.969 10.273 L 9.713 11.680 10.366 11.680 C 10.878 11.680,11.016 11.673,11.006 11.647 C 10.999 11.628,10.631 10.954,10.190 10.149 C 9.748 9.343,9.391 8.680,9.397 8.675 C 9.402 8.669,9.501 8.619,9.616 8.563 C 10.176 8.291,10.564 7.815,10.724 7.203 C 10.801 6.910,10.818 6.426,10.762 6.109 C 10.594 5.144,9.913 4.519,8.853 4.359 C 8.655 4.329,8.263 4.320,7.047 4.320 L 5.493 4.320 5.493 8.000 M8.608 5.322 C 9.253 5.456,9.624 5.928,9.626 6.616 C 9.627 6.810,9.552 7.140,9.471 7.298 C 9.381 7.474,9.212 7.641,9.021 7.740 C 8.717 7.900,8.551 7.920,7.534 7.920 L 6.640 7.920 6.640 6.600 L 6.640 5.280 7.521 5.280 C 8.223 5.280,8.444 5.289,8.608 5.322 " stroke="none" fill="black" fill-rule="evenodd"></path></svg>