<svg class="bi bi-bootstrap" width="1em" height="1em" viewBox="0 0 16 16" fill="currentColor" xmlns="http://www.w3.org/2000/svg"><path d="M3.613 0.018 C 3.077 0.082,2.612 0.222,2.163 0.454 C 1.067 1.021,0.292 2.068,0.063 3.293 C 0.016 3.547,0.013 3.776,0.013 8.000 C 0.013 12.224,0.016 12.453,0.063 12.707 C 0.371 14.352,1.648 15.629,3.293 15.937 C 3.547 15.984,3.777 15.987,8.027 15.987 L 12.493 15.987 12.773 15.925 C 14.009 15.653,14.988 14.917,15.544 13.841 C 15.725 13.492,15.835 13.181,15.925 12.773 L 15.987 12.493 15.987 8.027 C 15.987 3.777,15.984 3.547,15.937 3.293 C 15.650 1.758,14.518 0.531,13.021 0.133 C 12.523 0.000,12.553 0.001,7.973 0.005 C 5.619 0.006,3.657 0.012,3.613 0.018 M12.725 1.085 C 13.847 1.405,14.595 2.153,14.915 3.275 L 14.973 3.480 14.982 7.880 C 14.990 12.555,14.992 12.473,14.861 12.893 C 14.527 13.968,13.619 14.757,12.480 14.964 C 12.184 15.017,3.815 15.017,3.520 14.964 C 2.250 14.733,1.291 13.795,1.053 12.551 C 0.993 12.237,0.993 3.763,1.053 3.449 C 1.285 2.238,2.220 1.297,3.430 1.055 C 3.582 1.024,4.382 1.019,8.067 1.022 L 12.520 1.027 12.725 1.085 M5.067 7.775 L 5.067 12.003 7.100 11.993 C 9.093 11.983,9.139 11.982,9.400 11.923 C 9.919 11.806,10.251 11.663,10.579 11.416 C 11.017 11.085,11.296 10.611,11.388 10.043 C 11.439 9.725,11.409 9.209,11.324 8.947 C 11.098 8.250,10.533 7.769,9.753 7.609 C 9.459 7.549,9.440 7.498,9.686 7.429 C 10.087 7.318,10.517 6.984,10.727 6.622 C 11.061 6.046,11.089 5.349,10.802 4.733 C 10.508 4.101,9.854 3.690,8.960 3.574 C 8.848 3.560,7.946 3.548,6.913 3.547 L 5.067 3.547 5.067 7.775 M8.833 4.751 C 9.459 4.963,9.769 5.451,9.680 6.082 C 9.610 6.573,9.296 6.884,8.707 7.045 C 8.508 7.099,8.421 7.104,7.433 7.114 L 6.373 7.124 6.373 5.894 L 6.373 4.664 7.500 4.672 L 8.627 4.681 8.833 4.751 M8.893 8.221 C 9.301 8.312,9.547 8.431,9.749 8.633 C 10.110 8.995,10.188 9.632,9.933 10.151 C 9.775 10.473,9.496 10.674,9.021 10.806 C 8.825 10.861,8.747 10.864,7.593 10.874 L 6.373 10.883 6.373 9.520 L 6.373 8.156 7.540 8.168 C 8.467 8.177,8.745 8.188,8.893 8.221 " stroke="none" fill="black" fill-rule="evenodd"></path></svg>