<svg class="bi bi-bootstrap-fill" width="1em" height="1em" viewBox="0 0 16 16" fill="currentColor" xmlns="http://www.w3.org/2000/svg"><path d="M3.520 0.029 C 2.161 0.201,0.982 1.050,0.398 2.277 C 0.243 2.604,0.157 2.857,0.075 3.227 L 0.013 3.507 0.013 8.000 L 0.013 12.493 0.075 12.773 C 0.434 14.400,1.583 15.553,3.213 15.924 L 3.480 15.985 7.827 15.994 C 10.884 16.000,12.252 15.994,12.440 15.973 C 13.995 15.801,15.316 14.730,15.796 13.252 C 16.001 12.619,15.987 13.027,15.987 8.000 C 15.987 2.976,16.001 3.380,15.797 2.752 C 15.381 1.472,14.333 0.482,13.021 0.133 C 12.523 0.000,12.552 0.001,7.973 0.004 C 5.619 0.005,3.615 0.017,3.520 0.029 M8.961 3.575 C 9.847 3.685,10.508 4.101,10.802 4.733 C 10.937 5.024,10.993 5.286,10.994 5.627 C 10.994 5.974,10.946 6.173,10.782 6.507 C 10.565 6.949,10.146 7.301,9.686 7.429 C 9.567 7.462,9.520 7.488,9.520 7.520 C 9.520 7.555,9.564 7.573,9.713 7.599 C 10.491 7.737,11.095 8.242,11.324 8.947 C 11.409 9.209,11.439 9.725,11.388 10.043 C 11.298 10.601,11.033 11.057,10.600 11.400 C 10.291 11.645,9.923 11.805,9.400 11.923 C 9.139 11.982,9.093 11.983,7.100 11.993 L 5.067 12.003 5.067 7.775 L 5.067 3.547 6.901 3.547 C 8.024 3.547,8.822 3.558,8.961 3.575 M6.373 5.894 L 6.373 7.124 7.433 7.114 C 8.422 7.104,8.508 7.099,8.707 7.045 C 9.299 6.883,9.610 6.576,9.680 6.082 C 9.733 5.709,9.633 5.349,9.409 5.104 C 9.256 4.937,9.099 4.840,8.840 4.753 L 8.627 4.681 7.500 4.672 L 6.373 4.664 6.373 5.894 M6.373 9.520 L 6.373 10.883 7.593 10.874 C 8.747 10.864,8.825 10.861,9.021 10.806 C 9.496 10.674,9.775 10.473,9.933 10.151 C 10.038 9.937,10.080 9.753,10.080 9.504 C 10.080 8.930,9.778 8.508,9.232 8.316 C 8.869 8.189,8.766 8.180,7.540 8.168 L 6.373 8.156 6.373 9.520 " stroke="none" fill="black" fill-rule="evenodd"></path></svg>