<svg class="bi bi-box-arrow-in-up-left" width="1em" height="1em" viewBox="0 0 16 16" fill="currentColor" xmlns="http://www.w3.org/2000/svg"><path d="M2.693 1.535 C 2.115 1.659,1.656 2.124,1.533 2.707 C 1.474 2.987,1.474 13.013,1.533 13.293 C 1.647 13.834,2.039 14.262,2.587 14.444 C 2.723 14.489,2.887 14.493,4.873 14.500 C 6.348 14.506,7.046 14.500,7.120 14.480 C 7.506 14.376,7.622 13.895,7.325 13.634 C 7.272 13.588,7.183 13.537,7.127 13.522 C 7.061 13.503,6.317 13.494,4.952 13.493 C 3.092 13.493,2.869 13.489,2.792 13.450 C 2.671 13.389,2.615 13.334,2.557 13.221 C 2.508 13.125,2.507 12.974,2.507 8.000 C 2.507 3.330,2.510 2.870,2.550 2.792 C 2.611 2.671,2.666 2.615,2.779 2.557 C 2.875 2.508,3.026 2.507,8.000 2.507 C 12.974 2.507,13.125 2.508,13.221 2.557 C 13.334 2.615,13.389 2.671,13.450 2.792 C 13.489 2.869,13.493 3.132,13.493 5.459 C 13.494 7.260,13.503 8.072,13.523 8.146 C 13.539 8.204,13.597 8.296,13.651 8.350 C 13.921 8.621,14.381 8.500,14.480 8.133 C 14.499 8.061,14.506 7.184,14.500 5.381 C 14.493 2.898,14.490 2.724,14.444 2.587 C 14.260 2.036,13.836 1.647,13.293 1.533 C 13.020 1.476,2.960 1.478,2.693 1.535 M5.800 5.544 C 5.671 5.603,5.590 5.688,5.535 5.820 C 5.498 5.906,5.493 6.227,5.493 8.472 C 5.494 10.173,5.503 11.060,5.522 11.127 C 5.556 11.253,5.691 11.410,5.805 11.457 C 5.916 11.503,6.084 11.503,6.195 11.457 C 6.309 11.410,6.444 11.253,6.478 11.127 C 6.497 11.061,6.506 10.368,6.507 9.120 L 6.507 7.214 10.127 10.832 C 13.424 14.127,13.757 14.452,13.863 14.480 C 14.244 14.580,14.580 14.244,14.480 13.863 C 14.452 13.757,14.127 13.424,10.832 10.127 L 7.214 6.507 9.120 6.507 C 10.368 6.506,11.061 6.497,11.127 6.478 C 11.253 6.444,11.410 6.309,11.457 6.195 C 11.503 6.084,11.503 5.916,11.457 5.805 C 11.410 5.691,11.253 5.556,11.127 5.522 C 11.060 5.503,10.173 5.494,8.467 5.494 C 6.035 5.494,5.901 5.497,5.800 5.544 " stroke="none" fill="black" fill-rule="evenodd"></path></svg>