<svg class="bi bi-box-arrow-up" width="1em" height="1em" viewBox="0 0 16 16" fill="currentColor" xmlns="http://www.w3.org/2000/svg"><path d="M7.787 0.549 C 7.685 0.593,4.720 3.535,4.593 3.718 C 4.531 3.806,4.520 3.850,4.520 4.000 C 4.520 4.145,4.532 4.195,4.587 4.276 C 4.663 4.388,4.875 4.507,4.999 4.506 C 5.199 4.505,5.288 4.429,6.407 3.312 L 7.493 2.228 7.493 6.627 C 7.494 9.615,7.503 11.059,7.522 11.127 C 7.556 11.253,7.691 11.410,7.805 11.457 C 7.916 11.503,8.084 11.503,8.195 11.457 C 8.309 11.410,8.444 11.253,8.478 11.127 C 8.497 11.059,8.506 9.615,8.507 6.627 L 8.507 2.228 9.593 3.312 C 10.712 4.429,10.801 4.505,11.001 4.506 C 11.122 4.507,11.337 4.388,11.411 4.280 C 11.488 4.165,11.512 3.966,11.467 3.823 C 11.440 3.740,11.127 3.413,9.883 2.166 C 8.850 1.130,8.297 0.594,8.225 0.559 C 8.097 0.497,7.917 0.493,7.787 0.549 M3.740 5.523 C 3.180 5.616,2.679 6.087,2.548 6.643 C 2.487 6.901,2.486 14.122,2.547 14.361 C 2.682 14.891,3.109 15.318,3.639 15.453 C 3.778 15.488,4.330 15.493,8.000 15.493 C 11.670 15.493,12.222 15.488,12.361 15.453 C 12.891 15.318,13.318 14.891,13.453 14.361 C 13.513 14.125,13.513 6.901,13.453 6.646 C 13.337 6.156,12.974 5.759,12.474 5.578 C 12.281 5.508,12.274 5.508,11.384 5.498 C 10.785 5.492,10.452 5.499,10.379 5.519 C 10.168 5.575,10.001 5.788,10.001 6.000 C 10.001 6.207,10.167 6.423,10.367 6.479 C 10.426 6.495,10.805 6.506,11.288 6.507 C 11.916 6.507,12.129 6.515,12.195 6.543 C 12.309 6.590,12.444 6.747,12.478 6.873 C 12.519 7.018,12.517 14.001,12.477 14.146 C 12.439 14.282,12.282 14.439,12.146 14.477 C 11.996 14.519,4.004 14.519,3.854 14.477 C 3.718 14.439,3.561 14.282,3.523 14.146 C 3.483 14.001,3.481 7.018,3.522 6.873 C 3.556 6.747,3.691 6.590,3.805 6.543 C 3.871 6.515,4.084 6.507,4.712 6.507 C 5.195 6.506,5.574 6.495,5.633 6.479 C 5.833 6.423,5.999 6.207,5.999 6.000 C 5.999 5.793,5.833 5.577,5.633 5.521 C 5.512 5.488,3.943 5.489,3.740 5.523 " stroke="none" fill="black" fill-rule="evenodd"></path></svg>