<svg class="bi bi-box-arrow-down" width="1em" height="1em" viewBox="0 0 16 16" fill="currentColor" xmlns="http://www.w3.org/2000/svg"><path d="M3.627 0.549 C 3.106 0.686,2.681 1.115,2.547 1.639 C 2.487 1.875,2.487 9.099,2.547 9.354 C 2.663 9.844,3.026 10.241,3.526 10.422 C 3.719 10.492,3.726 10.492,4.616 10.502 C 5.215 10.508,5.548 10.501,5.621 10.481 C 5.832 10.425,5.999 10.212,5.999 10.000 C 5.999 9.793,5.833 9.577,5.633 9.521 C 5.574 9.505,5.195 9.494,4.712 9.493 C 4.084 9.493,3.871 9.485,3.805 9.457 C 3.691 9.410,3.556 9.253,3.522 9.127 C 3.481 8.982,3.483 1.999,3.523 1.854 C 3.561 1.718,3.718 1.561,3.854 1.523 C 4.004 1.481,11.996 1.481,12.146 1.523 C 12.282 1.561,12.439 1.718,12.477 1.854 C 12.517 1.999,12.519 8.982,12.478 9.127 C 12.444 9.253,12.309 9.410,12.195 9.457 C 12.129 9.485,11.916 9.493,11.288 9.493 C 10.805 9.494,10.426 9.505,10.367 9.521 C 10.167 9.577,10.001 9.793,10.001 10.000 C 10.001 10.212,10.168 10.425,10.379 10.481 C 10.452 10.501,10.785 10.508,11.384 10.502 C 12.274 10.492,12.281 10.492,12.474 10.422 C 12.974 10.241,13.337 9.844,13.453 9.354 C 13.513 9.099,13.513 1.875,13.453 1.639 C 13.317 1.106,12.895 0.683,12.361 0.547 C 12.128 0.488,3.853 0.489,3.627 0.549 M7.800 4.544 C 7.690 4.592,7.556 4.751,7.522 4.873 C 7.503 4.941,7.494 6.385,7.493 9.373 L 7.493 13.772 6.407 12.688 C 5.288 11.571,5.199 11.495,4.999 11.494 C 4.878 11.493,4.663 11.612,4.589 11.720 C 4.512 11.835,4.488 12.034,4.533 12.177 C 4.560 12.260,4.868 12.582,6.090 13.808 C 6.928 14.648,7.659 15.367,7.715 15.405 C 7.856 15.503,8.063 15.519,8.218 15.444 C 8.299 15.405,8.794 14.926,9.883 13.834 C 11.127 12.587,11.440 12.260,11.467 12.177 C 11.512 12.034,11.488 11.835,11.411 11.720 C 11.337 11.612,11.122 11.493,11.001 11.494 C 10.801 11.495,10.712 11.571,9.593 12.688 L 8.507 13.772 8.507 9.373 C 8.506 6.385,8.497 4.941,8.478 4.873 C 8.444 4.747,8.309 4.590,8.195 4.543 C 8.086 4.497,7.905 4.498,7.800 4.544 " stroke="none" fill="black" fill-rule="evenodd"></path></svg>