<svg class="bi bi-box-arrow-in-left" width="1em" height="1em" viewBox="0 0 16 16" fill="currentColor" xmlns="http://www.w3.org/2000/svg"><path d="M2.307 1.512 C 1.893 1.568,1.505 1.808,1.269 2.154 C 1.116 2.378,1.042 2.586,1.012 2.879 C 0.998 3.005,0.988 5.292,0.988 8.000 C 0.988 10.708,0.998 12.995,1.012 13.121 C 1.042 13.414,1.116 13.622,1.269 13.846 C 1.458 14.123,1.740 14.331,2.080 14.444 C 2.219 14.491,2.438 14.494,6.400 14.501 C 11.020 14.509,10.802 14.517,11.170 14.338 C 11.384 14.235,11.686 13.948,11.809 13.729 C 11.979 13.428,12.000 13.270,11.999 12.282 C 11.999 11.478,11.994 11.390,11.949 11.290 C 11.877 11.132,11.736 11.033,11.559 11.019 C 11.372 11.003,11.301 11.023,11.186 11.124 C 11.000 11.287,11.002 11.275,10.987 12.281 C 10.972 13.290,10.978 13.256,10.783 13.405 L 10.684 13.480 6.507 13.480 L 2.329 13.480 2.221 13.408 C 2.156 13.365,2.091 13.290,2.057 13.220 L 2.000 13.103 2.000 8.000 L 2.000 2.897 2.057 2.780 C 2.091 2.710,2.156 2.635,2.221 2.592 L 2.329 2.520 6.507 2.520 L 10.684 2.520 10.783 2.595 C 10.978 2.744,10.972 2.710,10.987 3.719 C 11.002 4.725,11.000 4.713,11.186 4.876 C 11.301 4.977,11.372 4.997,11.559 4.981 C 11.736 4.967,11.877 4.868,11.949 4.710 C 11.994 4.610,11.999 4.522,11.999 3.718 C 12.000 2.923,11.995 2.814,11.947 2.628 C 11.823 2.144,11.464 1.754,10.976 1.576 L 10.787 1.507 6.587 1.504 C 4.277 1.502,2.351 1.506,2.307 1.512 M7.293 4.545 C 7.167 4.602,4.090 7.700,4.041 7.819 C 3.987 7.950,3.990 8.070,4.051 8.200 C 4.113 8.332,7.203 11.424,7.315 11.465 C 7.618 11.578,7.957 11.373,7.993 11.057 C 8.020 10.813,8.022 10.816,6.831 9.620 L 5.721 8.507 10.137 8.507 C 13.401 8.507,14.576 8.499,14.643 8.476 C 14.866 8.400,14.987 8.233,14.987 8.000 C 14.987 7.767,14.866 7.600,14.643 7.524 C 14.576 7.501,13.401 7.493,10.137 7.493 L 5.721 7.493 6.831 6.380 C 7.711 5.496,7.947 5.245,7.973 5.164 C 8.046 4.936,7.938 4.665,7.734 4.561 C 7.612 4.498,7.412 4.491,7.293 4.545 " stroke="none" fill="black" fill-rule="evenodd"></path></svg>