<svg class="bi bi-box-arrow-in-down" width="1em" height="1em" viewBox="0 0 16 16" fill="currentColor" xmlns="http://www.w3.org/2000/svg"><path d="M7.755 1.067 C 7.647 1.125,7.571 1.220,7.524 1.357 C 7.501 1.424,7.493 2.599,7.493 5.863 L 7.493 10.279 6.380 9.169 C 5.184 7.978,5.187 7.980,4.943 8.007 C 4.627 8.043,4.422 8.382,4.535 8.685 C 4.576 8.797,7.668 11.887,7.800 11.949 C 7.935 12.012,8.065 12.012,8.200 11.949 C 8.332 11.887,11.424 8.797,11.465 8.685 C 11.617 8.276,11.207 7.875,10.806 8.041 C 10.738 8.069,10.354 8.434,9.607 9.181 L 8.507 10.279 8.507 5.864 C 8.507 2.599,8.499 1.424,8.476 1.357 C 8.429 1.218,8.352 1.124,8.239 1.066 C 8.104 0.997,7.887 0.998,7.755 1.067 M2.618 4.054 C 2.344 4.126,2.175 4.224,1.957 4.440 C 1.764 4.630,1.655 4.808,1.557 5.093 C 1.508 5.235,1.507 5.393,1.507 9.493 C 1.507 13.535,1.509 13.755,1.555 13.907 C 1.659 14.247,1.869 14.537,2.154 14.731 C 2.377 14.883,2.583 14.956,2.878 14.989 C 3.018 15.005,5.075 15.012,8.173 15.007 L 13.240 15.000 13.455 14.927 C 13.935 14.764,14.297 14.391,14.445 13.907 C 14.491 13.755,14.493 13.535,14.493 9.493 C 14.493 5.393,14.492 5.235,14.443 5.093 C 14.307 4.698,14.028 4.347,13.715 4.179 C 13.418 4.020,13.256 4.000,12.282 4.001 C 11.478 4.001,11.390 4.006,11.290 4.051 C 11.132 4.123,11.033 4.264,11.019 4.441 C 11.003 4.628,11.023 4.699,11.124 4.814 C 11.288 5.001,11.274 4.999,12.281 5.013 C 13.290 5.028,13.256 5.022,13.405 5.217 L 13.480 5.316 13.480 9.493 L 13.480 13.671 13.408 13.779 C 13.365 13.844,13.290 13.909,13.220 13.943 L 13.103 14.000 8.000 14.000 L 2.897 14.000 2.780 13.943 C 2.710 13.909,2.635 13.844,2.592 13.779 L 2.520 13.671 2.512 9.562 C 2.508 7.302,2.512 5.414,2.520 5.366 C 2.537 5.275,2.660 5.114,2.757 5.059 C 2.797 5.036,3.081 5.023,3.720 5.013 C 4.610 5.000,4.629 4.999,4.736 4.938 C 4.796 4.903,4.877 4.825,4.918 4.764 C 4.982 4.666,4.989 4.633,4.981 4.477 C 4.974 4.333,4.958 4.283,4.896 4.201 C 4.748 4.007,4.714 4.001,3.707 4.002 C 2.914 4.003,2.791 4.009,2.618 4.054 " stroke="none" fill="black" fill-rule="evenodd"></path></svg>