<svg class="bi bi-braces" width="1em" height="1em" viewBox="0 0 16 16" fill="currentColor" xmlns="http://www.w3.org/2000/svg"><path d="M4.333 2.030 C 4.231 2.043,4.042 2.083,3.913 2.120 C 3.337 2.284,2.967 2.584,2.730 3.080 C 2.524 3.511,2.481 3.893,2.480 5.280 C 2.479 6.327,2.464 6.482,2.338 6.758 C 2.179 7.106,1.839 7.281,1.246 7.323 L 0.986 7.341 0.993 7.984 L 1.000 8.627 1.273 8.645 C 1.846 8.683,2.152 8.843,2.333 9.199 C 2.453 9.436,2.459 9.506,2.479 10.813 C 2.497 11.949,2.504 12.092,2.556 12.337 C 2.659 12.825,2.830 13.154,3.119 13.421 C 3.502 13.776,3.976 13.928,4.815 13.964 L 5.227 13.982 5.227 13.484 L 5.227 12.987 4.940 12.986 C 4.191 12.985,3.812 12.711,3.663 12.062 C 3.630 11.917,3.617 11.611,3.602 10.547 C 3.584 9.277,3.580 9.205,3.525 9.038 C 3.462 8.846,3.304 8.587,3.184 8.476 C 2.980 8.289,2.677 8.157,2.311 8.095 C 2.127 8.065,2.120 8.061,2.112 7.984 L 2.104 7.904 2.312 7.869 C 2.957 7.761,3.336 7.468,3.523 6.933 C 3.582 6.765,3.585 6.721,3.603 5.427 C 3.623 3.974,3.632 3.883,3.784 3.558 C 3.973 3.154,4.362 2.964,5.007 2.961 L 5.227 2.960 5.227 2.480 L 5.227 2.000 4.873 2.003 C 4.679 2.005,4.436 2.017,4.333 2.030 M10.773 2.480 L 10.773 2.960 10.993 2.961 C 11.638 2.964,12.027 3.154,12.216 3.558 C 12.369 3.883,12.377 3.973,12.397 5.427 C 12.415 6.723,12.417 6.765,12.476 6.933 C 12.510 7.029,12.566 7.156,12.601 7.217 C 12.694 7.376,12.915 7.583,13.096 7.680 C 13.250 7.761,13.704 7.893,13.832 7.893 C 13.889 7.893,13.896 7.904,13.888 7.978 C 13.880 8.062,13.876 8.064,13.689 8.095 C 13.477 8.131,13.262 8.196,13.118 8.268 C 12.829 8.414,12.584 8.706,12.475 9.038 C 12.420 9.205,12.416 9.279,12.398 10.547 C 12.382 11.606,12.370 11.917,12.337 12.062 C 12.188 12.712,11.811 12.985,11.060 12.986 L 10.773 12.987 10.773 13.484 L 10.773 13.982 11.185 13.964 C 11.411 13.954,11.699 13.928,11.824 13.906 C 12.601 13.771,13.121 13.355,13.349 12.688 C 13.484 12.290,13.499 12.127,13.520 10.800 C 13.532 10.062,13.551 9.517,13.569 9.453 C 13.711 8.926,14.048 8.690,14.724 8.645 L 15.000 8.627 15.007 7.984 L 15.014 7.341 14.754 7.323 C 14.161 7.281,13.821 7.106,13.662 6.758 C 13.536 6.482,13.521 6.327,13.520 5.280 C 13.520 4.745,13.507 4.166,13.492 3.993 C 13.372 2.626,12.617 2.000,11.087 2.000 L 10.773 2.000 10.773 2.480 " stroke="none" fill="black" fill-rule="evenodd"></path></svg>