<svg class="bi bi-brightness-alt-low-fill" width="1em" height="1em" viewBox="0 0 16 16" fill="currentColor" xmlns="http://www.w3.org/2000/svg"><path d="M7.755 5.067 C 7.635 5.131,7.558 5.235,7.518 5.389 C 7.416 5.776,7.832 6.118,8.201 5.950 C 8.493 5.817,8.586 5.461,8.397 5.196 C 8.273 5.021,7.961 4.959,7.755 5.067 M3.849 6.681 C 3.554 6.857,3.525 7.240,3.787 7.477 C 4.138 7.794,4.710 7.443,4.587 6.987 C 4.551 6.856,4.418 6.698,4.301 6.649 C 4.162 6.591,3.976 6.604,3.849 6.681 M11.693 6.662 C 11.361 6.821,11.285 7.193,11.530 7.463 C 11.618 7.560,11.733 7.608,11.880 7.608 C 12.167 7.608,12.373 7.397,12.373 7.104 C 12.373 6.759,11.999 6.516,11.693 6.662 M7.493 7.031 C 6.991 7.112,6.597 7.234,6.202 7.432 C 4.909 8.080,4.030 9.451,4.017 10.842 C 4.013 11.148,4.017 11.168,4.085 11.272 C 4.128 11.337,4.203 11.403,4.273 11.437 L 4.390 11.493 8.002 11.493 C 11.492 11.492,11.617 11.490,11.725 11.442 C 11.795 11.409,11.864 11.349,11.912 11.277 C 11.984 11.167,11.987 11.152,11.983 10.842 C 11.970 9.460,11.091 8.081,9.819 7.443 C 9.192 7.128,8.684 7.011,7.973 7.017 C 7.746 7.019,7.530 7.025,7.493 7.031 M2.271 10.562 C 2.099 10.650,2.013 10.795,2.013 11.000 C 2.013 11.133,2.027 11.184,2.085 11.272 C 2.291 11.583,2.771 11.557,2.940 11.225 C 3.000 11.107,3.000 10.893,2.940 10.775 C 2.818 10.535,2.515 10.439,2.271 10.562 M13.307 10.537 C 13.221 10.570,13.099 10.686,13.051 10.779 C 12.995 10.885,13.003 11.142,13.064 11.244 C 13.257 11.558,13.713 11.577,13.911 11.278 C 13.973 11.184,13.987 11.135,13.987 11.000 C 13.987 10.792,13.893 10.635,13.725 10.558 C 13.605 10.504,13.414 10.494,13.307 10.537 " stroke="none" fill="black" fill-rule="evenodd"></path></svg>