<svg class="bi bi-brightness-high" width="1em" height="1em" viewBox="0 0 16 16" fill="currentColor" xmlns="http://www.w3.org/2000/svg"><path d="M7.799 0.050 C 7.667 0.110,7.558 0.235,7.521 0.367 C 7.481 0.511,7.484 2.524,7.524 2.643 C 7.600 2.866,7.767 2.987,8.000 2.987 C 8.233 2.987,8.400 2.866,8.476 2.643 C 8.516 2.524,8.519 0.511,8.479 0.367 C 8.423 0.167,8.207 0.001,8.000 0.001 C 7.949 0.001,7.858 0.023,7.799 0.050 M2.493 2.237 C 2.364 2.297,2.283 2.381,2.228 2.513 C 2.179 2.629,2.177 2.696,2.216 2.840 C 2.240 2.929,2.374 3.077,3.022 3.730 C 3.813 4.525,3.918 4.612,4.101 4.613 C 4.208 4.613,4.364 4.551,4.450 4.472 C 4.536 4.393,4.612 4.221,4.612 4.107 C 4.612 3.918,4.531 3.819,3.730 3.022 C 3.077 2.374,2.929 2.240,2.840 2.216 C 2.691 2.176,2.617 2.180,2.493 2.237 M13.160 2.219 C 13.071 2.242,12.926 2.373,12.270 3.023 C 11.468 3.819,11.388 3.917,11.388 4.107 C 11.388 4.221,11.464 4.393,11.550 4.472 C 11.636 4.551,11.792 4.613,11.899 4.613 C 12.083 4.612,12.187 4.526,12.976 3.730 C 13.694 3.005,13.755 2.937,13.784 2.819 C 13.876 2.441,13.540 2.118,13.160 2.219 M7.613 4.016 C 7.002 4.103,6.615 4.221,6.163 4.454 C 5.067 5.021,4.304 6.051,4.062 7.293 C 3.997 7.626,3.997 8.374,4.062 8.707 C 4.139 9.101,4.259 9.451,4.441 9.809 C 5.007 10.924,6.036 11.692,7.293 11.938 C 7.660 12.010,8.402 12.003,8.773 11.923 C 9.176 11.837,9.488 11.726,9.841 11.544 C 10.918 10.987,11.662 9.997,11.923 8.773 C 12.003 8.402,12.010 7.660,11.938 7.293 C 11.616 5.648,10.393 4.404,8.776 4.077 C 8.530 4.027,7.801 3.989,7.613 4.016 M8.725 5.088 C 9.826 5.386,10.604 6.163,10.913 7.275 C 10.963 7.452,10.971 7.550,10.971 8.000 C 10.971 8.563,10.948 8.699,10.785 9.112 C 10.493 9.849,9.866 10.482,9.137 10.773 C 8.702 10.948,8.570 10.971,8.000 10.971 C 7.550 10.971,7.452 10.963,7.275 10.913 C 6.164 10.604,5.383 9.822,5.089 8.725 C 5.018 8.462,4.992 7.822,5.039 7.525 C 5.236 6.293,6.186 5.310,7.430 5.053 C 7.709 4.996,8.457 5.016,8.725 5.088 M0.337 7.532 C 0.146 7.601,0.001 7.802,0.001 8.000 C 0.001 8.207,0.167 8.423,0.367 8.479 C 0.511 8.519,2.524 8.516,2.643 8.476 C 2.866 8.400,2.987 8.233,2.987 8.000 C 2.987 7.767,2.866 7.600,2.643 7.524 C 2.503 7.477,0.474 7.484,0.337 7.532 M13.347 7.526 C 13.133 7.602,13.013 7.772,13.013 8.000 C 13.013 8.233,13.134 8.400,13.357 8.476 C 13.476 8.516,15.489 8.519,15.633 8.479 C 15.833 8.423,15.999 8.207,15.999 8.000 C 15.999 7.793,15.833 7.577,15.633 7.521 C 15.497 7.484,13.454 7.488,13.347 7.526 M3.907 11.438 C 3.776 11.499,2.283 12.990,2.242 13.102 C 2.205 13.198,2.205 13.389,2.242 13.485 C 2.280 13.587,2.395 13.706,2.499 13.750 C 2.601 13.794,2.794 13.798,2.898 13.758 C 3.010 13.717,4.501 12.224,4.562 12.093 C 4.625 11.958,4.626 11.829,4.563 11.693 C 4.442 11.432,4.157 11.321,3.907 11.438 M11.750 11.419 C 11.456 11.498,11.308 11.881,11.469 12.147 C 11.495 12.191,11.863 12.570,12.285 12.990 C 12.993 13.693,13.063 13.755,13.180 13.783 C 13.551 13.874,13.874 13.551,13.783 13.180 C 13.755 13.063,13.693 12.993,12.990 12.285 C 12.570 11.863,12.191 11.495,12.147 11.468 C 12.042 11.404,11.879 11.384,11.750 11.419 M7.755 13.067 C 7.647 13.125,7.571 13.220,7.524 13.357 C 7.484 13.476,7.481 15.489,7.521 15.633 C 7.577 15.833,7.793 15.999,8.000 15.999 C 8.207 15.999,8.423 15.833,8.479 15.633 C 8.519 15.489,8.516 13.476,8.476 13.357 C 8.429 13.218,8.352 13.124,8.239 13.066 C 8.104 12.997,7.887 12.998,7.755 13.067 " stroke="none" fill="black" fill-rule="evenodd"></path></svg>