<svg class="bi bi-calendar2-month-fill" width="1em" height="1em" viewBox="0 0 16 16" fill="currentColor" xmlns="http://www.w3.org/2000/svg"><path d="M3.290 0.051 C 3.070 0.151,2.987 0.353,2.987 0.788 L 2.987 1.009 2.287 1.019 C 1.601 1.027,1.582 1.029,1.373 1.102 C 1.062 1.211,0.814 1.367,0.587 1.599 C 0.374 1.815,0.249 2.004,0.142 2.267 C -0.006 2.635,0.000 2.358,0.000 8.510 C 0.000 14.742,-0.009 14.377,0.157 14.774 C 0.350 15.235,0.765 15.650,1.226 15.843 C 1.625 16.010,1.207 16.000,8.000 16.000 C 13.536 16.000,14.211 15.996,14.394 15.958 C 15.184 15.796,15.796 15.184,15.958 14.394 C 15.995 14.211,16.000 13.582,16.000 8.510 C 16.000 2.358,16.006 2.635,15.858 2.267 C 15.751 2.004,15.626 1.815,15.413 1.599 C 15.186 1.367,14.938 1.211,14.627 1.102 C 14.418 1.029,14.399 1.027,13.713 1.019 L 13.013 1.009 13.013 0.788 C 13.013 0.346,12.930 0.149,12.699 0.047 C 12.472 -0.053,12.224 0.022,12.078 0.236 C 12.019 0.320,12.013 0.361,12.005 0.671 L 11.996 1.013 7.998 1.013 L 4.000 1.013 4.000 0.727 C 4.000 0.372,3.974 0.278,3.847 0.154 C 3.679 -0.009,3.497 -0.043,3.290 0.051 M13.798 3.104 C 13.982 3.244,13.999 3.318,13.999 4.000 C 13.999 4.529,13.993 4.613,13.949 4.710 C 13.884 4.854,13.749 4.953,13.574 4.987 C 13.380 5.023,2.620 5.023,2.426 4.987 C 2.251 4.953,2.116 4.854,2.051 4.710 C 2.007 4.613,2.001 4.529,2.001 4.000 C 2.001 3.269,2.025 3.189,2.280 3.055 C 2.352 3.018,2.926 3.014,8.029 3.020 L 13.697 3.027 13.798 3.104 M4.488 7.127 C 4.510 7.189,4.931 8.372,5.424 9.755 C 5.917 11.138,6.320 12.281,6.320 12.295 C 6.320 12.312,6.186 12.319,5.969 12.314 L 5.618 12.307 5.349 11.520 L 5.080 10.733 4.091 10.726 L 3.103 10.719 2.835 11.513 L 2.567 12.307 2.217 12.314 C 2.024 12.318,1.867 12.313,1.867 12.303 C 1.867 12.293,2.289 11.099,2.805 9.649 L 3.743 7.013 4.096 7.013 L 4.448 7.013 4.488 7.127 M4.055 7.898 C 4.037 7.947,3.856 8.482,3.653 9.087 L 3.283 10.187 4.082 10.187 C 4.702 10.187,4.880 10.179,4.880 10.153 C 4.880 10.107,4.131 7.858,4.107 7.831 C 4.096 7.819,4.072 7.849,4.055 7.898 M12.472 8.247 C 12.719 8.333,12.944 8.486,13.078 8.659 L 13.187 8.800 13.194 8.520 L 13.202 8.240 13.522 8.240 L 13.841 8.240 13.834 10.447 L 13.827 12.653 13.753 12.840 C 13.474 13.544,12.704 13.927,11.792 13.816 C 11.194 13.742,10.770 13.478,10.571 13.056 C 10.522 12.952,10.471 12.816,10.457 12.753 L 10.432 12.640 10.773 12.640 L 11.114 12.640 11.185 12.785 C 11.224 12.865,11.299 12.968,11.353 13.015 C 11.630 13.259,12.115 13.339,12.520 13.208 C 12.786 13.122,12.966 12.963,13.085 12.707 C 13.153 12.561,13.160 12.514,13.169 12.187 C 13.174 11.989,13.174 11.785,13.169 11.733 L 13.160 11.640 13.116 11.720 C 13.092 11.764,13.015 11.856,12.946 11.924 C 12.449 12.414,11.494 12.410,10.922 11.915 C 10.649 11.678,10.438 11.246,10.375 10.791 C 10.334 10.487,10.340 9.860,10.387 9.587 C 10.519 8.834,10.961 8.337,11.625 8.198 C 11.877 8.145,12.240 8.166,12.472 8.247 M7.200 9.637 C 7.200 10.979,7.202 11.042,7.256 11.215 C 7.301 11.360,7.338 11.422,7.452 11.536 C 7.644 11.727,7.865 11.798,8.224 11.782 C 8.437 11.773,8.497 11.759,8.648 11.685 C 8.859 11.581,9.013 11.416,9.099 11.204 C 9.159 11.055,9.160 11.041,9.168 9.647 L 9.176 8.240 9.508 8.240 L 9.840 8.240 9.840 10.280 L 9.840 12.320 9.507 12.320 L 9.173 12.320 9.173 12.048 L 9.173 11.776 9.097 11.896 C 8.883 12.234,8.397 12.428,7.854 12.391 C 7.183 12.346,6.769 12.039,6.571 11.440 C 6.527 11.307,6.522 11.155,6.513 9.767 L 6.503 8.240 6.852 8.240 L 7.200 8.240 7.200 9.637 M11.756 8.796 C 11.223 8.972,10.982 9.490,11.021 10.373 C 11.051 11.043,11.240 11.419,11.647 11.618 C 11.776 11.681,11.840 11.694,12.066 11.702 C 12.293 11.710,12.357 11.703,12.493 11.652 C 12.817 11.530,13.053 11.211,13.135 10.785 C 13.185 10.519,13.185 9.911,13.133 9.667 C 13.051 9.278,12.829 8.966,12.539 8.833 C 12.335 8.739,11.980 8.722,11.756 8.796 " stroke="none" fill="black" fill-rule="evenodd"></path></svg>