<svg class="bi bi-calendar-day-fill" width="1em" height="1em" viewBox="0 0 16 16" fill="currentColor" xmlns="http://www.w3.org/2000/svg"><path d="M3.290 0.051 C 3.070 0.151,2.987 0.353,2.987 0.788 L 2.987 1.009 2.287 1.019 C 1.601 1.027,1.582 1.029,1.373 1.102 C 1.062 1.211,0.814 1.367,0.587 1.599 C 0.374 1.815,0.249 2.004,0.142 2.267 C 0.029 2.548,0.000 2.781,0.000 3.416 L 0.000 4.000 8.000 4.000 L 16.000 4.000 16.000 3.416 C 16.000 2.781,15.971 2.548,15.858 2.267 C 15.751 2.004,15.626 1.815,15.413 1.599 C 15.186 1.367,14.938 1.211,14.627 1.102 C 14.418 1.029,14.399 1.027,13.713 1.019 L 13.013 1.009 13.013 0.788 C 13.013 0.346,12.930 0.149,12.699 0.047 C 12.472 -0.053,12.224 0.022,12.078 0.236 C 12.019 0.320,12.013 0.361,12.005 0.671 L 11.996 1.013 7.998 1.013 L 4.000 1.013 4.000 0.727 C 4.000 0.372,3.974 0.278,3.847 0.154 C 3.679 -0.009,3.497 -0.043,3.290 0.051 M-0.000 9.601 C -0.000 14.631,-0.008 14.380,0.157 14.774 C 0.350 15.235,0.765 15.650,1.226 15.843 C 1.625 16.010,1.207 16.000,8.000 16.000 C 13.536 16.000,14.211 15.996,14.394 15.958 C 15.184 15.796,15.796 15.184,15.958 14.394 C 15.995 14.212,16.000 13.678,16.000 9.601 L 16.000 5.013 8.000 5.013 L 0.000 5.013 -0.000 9.601 M11.460 7.067 C 11.701 7.213,11.724 7.584,11.504 7.758 C 11.328 7.896,11.076 7.881,10.917 7.723 C 10.720 7.526,10.757 7.210,10.995 7.065 C 11.111 6.995,11.343 6.995,11.460 7.067 M7.147 7.507 L 7.147 7.813 5.920 7.813 L 4.693 7.813 4.693 8.707 L 4.693 9.600 5.813 9.600 L 6.933 9.600 6.933 9.907 L 6.933 10.213 5.814 10.213 L 4.694 10.213 4.687 11.367 L 4.680 12.520 4.340 12.527 L 4.000 12.535 4.000 9.867 L 4.000 7.200 5.573 7.200 L 7.147 7.200 7.147 7.507 M9.823 8.364 L 9.947 8.381 9.947 8.683 L 9.947 8.985 9.660 8.985 C 9.166 8.984,8.941 9.096,8.773 9.425 L 8.680 9.608 8.667 11.064 L 8.653 12.520 8.320 12.520 L 7.987 12.520 7.980 10.473 L 7.973 8.427 8.307 8.427 L 8.640 8.427 8.640 8.667 C 8.640 8.809,8.651 8.907,8.667 8.907 C 8.681 8.907,8.693 8.896,8.693 8.882 C 8.693 8.869,8.754 8.791,8.829 8.709 C 9.070 8.446,9.452 8.313,9.823 8.364 M11.547 10.480 L 11.547 12.533 11.213 12.533 L 10.880 12.533 10.880 10.480 L 10.880 8.427 11.213 8.427 L 11.547 8.427 11.547 10.480 " stroke="none" fill="black" fill-rule="evenodd"></path></svg>