<svg class="bi bi-calendar2-month" width="1em" height="1em" viewBox="0 0 16 16" fill="currentColor" xmlns="http://www.w3.org/2000/svg"><path d="M3.290 0.051 C 3.070 0.151,2.987 0.353,2.987 0.788 L 2.987 1.009 2.287 1.019 C 1.601 1.027,1.582 1.029,1.373 1.102 C 1.062 1.211,0.814 1.367,0.587 1.599 C 0.374 1.815,0.249 2.004,0.142 2.267 C -0.006 2.635,0.000 2.358,0.000 8.510 C 0.000 14.742,-0.009 14.377,0.157 14.774 C 0.350 15.235,0.765 15.650,1.226 15.843 C 1.625 16.010,1.207 16.000,8.000 16.000 C 13.536 16.000,14.211 15.996,14.394 15.958 C 15.184 15.796,15.796 15.184,15.958 14.394 C 15.995 14.211,16.000 13.582,16.000 8.510 C 16.000 2.358,16.006 2.635,15.858 2.267 C 15.751 2.004,15.626 1.815,15.413 1.599 C 15.186 1.367,14.938 1.211,14.627 1.102 C 14.418 1.029,14.399 1.027,13.713 1.019 L 13.013 1.009 13.013 0.788 C 13.013 0.346,12.930 0.149,12.699 0.047 C 12.472 -0.053,12.224 0.022,12.078 0.236 C 12.019 0.320,12.013 0.361,12.005 0.671 L 11.996 1.013 7.998 1.013 L 4.000 1.013 4.000 0.727 C 4.000 0.372,3.974 0.278,3.847 0.154 C 3.679 -0.009,3.497 -0.043,3.290 0.051 M14.297 2.053 C 14.600 2.149,14.821 2.359,14.933 2.658 C 14.987 2.803,14.987 2.821,14.980 8.542 L 14.973 14.280 14.901 14.428 C 14.810 14.612,14.617 14.808,14.441 14.894 C 14.367 14.930,14.223 14.971,14.120 14.986 C 13.864 15.022,2.136 15.022,1.880 14.986 C 1.777 14.971,1.633 14.930,1.559 14.894 C 1.383 14.808,1.190 14.612,1.099 14.428 L 1.027 14.280 1.027 8.493 L 1.027 2.707 1.099 2.570 C 1.239 2.304,1.434 2.137,1.704 2.051 C 1.846 2.005,2.170 2.003,7.991 2.001 C 14.060 2.000,14.130 2.001,14.297 2.053 M2.844 3.532 C 2.717 3.577,2.592 3.691,2.543 3.806 C 2.486 3.941,2.491 5.092,2.550 5.208 C 2.611 5.329,2.666 5.385,2.779 5.443 C 2.875 5.492,3.026 5.493,8.000 5.493 C 12.974 5.493,13.125 5.492,13.221 5.443 C 13.334 5.385,13.389 5.329,13.450 5.208 C 13.486 5.137,13.493 5.022,13.493 4.507 C 13.493 4.050,13.484 3.869,13.457 3.805 C 13.410 3.691,13.253 3.556,13.127 3.522 C 13.059 3.503,11.425 3.494,7.987 3.495 C 3.776 3.496,2.930 3.502,2.844 3.532 M2.805 9.649 C 2.289 11.099,1.867 12.293,1.867 12.303 C 1.867 12.313,2.024 12.318,2.217 12.314 L 2.567 12.307 2.835 11.513 L 3.103 10.719 4.091 10.726 L 5.080 10.733 5.349 11.520 L 5.618 12.307 5.969 12.314 C 6.186 12.319,6.320 12.312,6.320 12.295 C 6.320 12.281,5.917 11.138,5.424 9.755 C 4.931 8.372,4.510 7.189,4.488 7.127 L 4.448 7.013 4.096 7.013 L 3.743 7.013 2.805 9.649 M4.503 8.987 C 4.711 9.610,4.880 10.135,4.880 10.153 C 4.880 10.179,4.702 10.187,4.082 10.187 L 3.283 10.187 3.653 9.087 C 4.104 7.744,4.082 7.804,4.107 7.831 C 4.118 7.843,4.296 8.363,4.503 8.987 M11.773 8.175 C 11.744 8.182,11.654 8.200,11.573 8.217 C 10.958 8.341,10.516 8.852,10.387 9.587 C 10.340 9.860,10.334 10.487,10.375 10.791 C 10.438 11.246,10.649 11.678,10.922 11.915 C 11.297 12.239,11.862 12.367,12.358 12.241 C 12.689 12.156,12.883 12.029,13.082 11.769 L 13.178 11.643 13.169 12.095 C 13.160 12.525,13.156 12.555,13.085 12.707 C 12.965 12.963,12.786 13.122,12.520 13.208 C 12.115 13.339,11.630 13.259,11.353 13.015 C 11.299 12.968,11.224 12.865,11.185 12.785 L 11.114 12.640 10.773 12.640 L 10.432 12.640 10.457 12.753 C 10.471 12.816,10.522 12.952,10.571 13.057 C 10.736 13.406,11.085 13.668,11.533 13.776 C 11.788 13.838,12.373 13.840,12.619 13.779 C 13.160 13.645,13.567 13.308,13.753 12.840 L 13.827 12.653 13.834 10.447 L 13.841 8.240 13.522 8.240 L 13.202 8.240 13.194 8.520 L 13.187 8.800 13.078 8.659 C 12.860 8.377,12.480 8.196,12.062 8.175 C 11.933 8.168,11.803 8.168,11.773 8.175 M6.513 9.767 C 6.523 11.434,6.519 11.389,6.686 11.718 C 6.945 12.230,7.632 12.501,8.320 12.362 C 8.695 12.286,8.945 12.136,9.097 11.896 L 9.173 11.776 9.173 12.048 L 9.173 12.320 9.507 12.320 L 9.840 12.320 9.840 10.280 L 9.840 8.240 9.508 8.240 L 9.176 8.240 9.168 9.647 C 9.160 11.041,9.159 11.055,9.099 11.204 C 9.013 11.416,8.859 11.581,8.648 11.685 C 8.497 11.759,8.437 11.773,8.224 11.782 C 7.865 11.798,7.644 11.727,7.452 11.536 C 7.338 11.422,7.301 11.360,7.256 11.215 C 7.202 11.042,7.200 10.979,7.200 9.637 L 7.200 8.240 6.852 8.240 L 6.503 8.240 6.513 9.767 M12.544 8.838 C 12.836 8.981,13.053 9.285,13.133 9.667 C 13.186 9.918,13.186 10.550,13.133 10.802 C 13.045 11.222,12.809 11.533,12.487 11.654 C 12.358 11.702,12.291 11.710,12.066 11.702 C 11.840 11.694,11.776 11.681,11.647 11.618 C 11.240 11.419,11.051 11.043,11.021 10.371 C 10.981 9.486,11.230 8.963,11.774 8.789 C 11.983 8.722,12.357 8.746,12.544 8.838 " stroke="none" fill="black" fill-rule="evenodd"></path></svg>