<svg class="bi bi-calendar2-date-fill" width="1em" height="1em" viewBox="0 0 16 16" fill="currentColor" xmlns="http://www.w3.org/2000/svg"><path d="M3.290 0.051 C 3.070 0.151,2.987 0.353,2.987 0.788 L 2.987 1.009 2.287 1.019 C 1.601 1.027,1.582 1.029,1.373 1.102 C 1.062 1.211,0.814 1.367,0.587 1.599 C 0.374 1.815,0.249 2.004,0.142 2.267 C -0.006 2.635,0.000 2.358,0.000 8.510 C 0.000 14.742,-0.009 14.377,0.157 14.774 C 0.350 15.235,0.765 15.650,1.226 15.843 C 1.625 16.010,1.207 16.000,8.000 16.000 C 13.536 16.000,14.211 15.996,14.394 15.958 C 15.184 15.796,15.796 15.184,15.958 14.394 C 15.995 14.211,16.000 13.582,16.000 8.510 C 16.000 2.358,16.006 2.635,15.858 2.267 C 15.751 2.004,15.626 1.815,15.413 1.599 C 15.186 1.367,14.938 1.211,14.627 1.102 C 14.418 1.029,14.399 1.027,13.713 1.019 L 13.013 1.009 13.013 0.788 C 13.013 0.346,12.930 0.149,12.699 0.047 C 12.472 -0.053,12.224 0.022,12.078 0.236 C 12.019 0.320,12.013 0.361,12.005 0.671 L 11.996 1.013 7.998 1.013 L 4.000 1.013 4.000 0.727 C 4.000 0.372,3.974 0.278,3.847 0.154 C 3.679 -0.009,3.497 -0.043,3.290 0.051 M13.798 3.104 C 13.982 3.244,13.999 3.318,13.999 4.000 C 13.999 4.529,13.993 4.613,13.949 4.710 C 13.884 4.854,13.749 4.953,13.574 4.987 C 13.380 5.023,2.620 5.023,2.426 4.987 C 2.251 4.953,2.116 4.854,2.051 4.710 C 2.007 4.613,2.001 4.529,2.001 4.000 C 2.001 3.269,2.025 3.189,2.280 3.055 C 2.352 3.018,2.926 3.014,8.029 3.020 L 13.697 3.027 13.798 3.104 M9.927 7.065 C 10.541 7.222,10.940 7.628,11.157 8.315 C 11.260 8.640,11.308 8.970,11.325 9.468 C 11.376 10.920,10.956 11.950,10.152 12.347 C 9.457 12.689,8.577 12.561,8.067 12.043 C 7.946 11.921,7.849 11.791,7.794 11.679 C 7.700 11.487,7.616 11.173,7.650 11.140 C 7.662 11.128,7.813 11.122,7.986 11.126 L 8.302 11.133 8.349 11.272 C 8.443 11.549,8.607 11.724,8.900 11.862 C 9.037 11.926,9.084 11.933,9.347 11.933 C 9.622 11.933,9.651 11.928,9.821 11.848 C 10.068 11.731,10.235 11.552,10.387 11.245 C 10.540 10.934,10.634 10.531,10.656 10.093 L 10.671 9.773 10.591 9.909 C 10.342 10.329,9.867 10.568,9.280 10.569 C 8.785 10.569,8.386 10.409,8.074 10.085 C 7.729 9.726,7.598 9.373,7.598 8.800 C 7.598 7.902,8.141 7.230,9.027 7.031 C 9.056 7.025,9.225 7.018,9.402 7.016 C 9.642 7.014,9.777 7.027,9.927 7.065 M6.447 9.767 L 6.454 12.427 6.107 12.427 L 5.760 12.427 5.760 10.130 C 5.760 8.107,5.755 7.836,5.720 7.850 C 5.656 7.874,5.019 8.263,4.768 8.431 C 4.640 8.517,4.529 8.587,4.521 8.587 C 4.513 8.587,4.507 8.432,4.507 8.243 L 4.507 7.899 4.840 7.682 C 5.024 7.563,5.321 7.381,5.500 7.279 L 5.827 7.092 6.133 7.100 L 6.440 7.107 6.447 9.767 M9.267 7.605 C 8.758 7.664,8.414 7.975,8.290 8.488 C 8.244 8.683,8.273 9.128,8.345 9.306 C 8.552 9.820,9.090 10.089,9.657 9.963 C 10.327 9.813,10.700 9.192,10.548 8.477 C 10.420 7.870,9.919 7.529,9.267 7.605 " stroke="none" fill="black" fill-rule="evenodd"></path></svg>