<svg class="bi bi-camera-video-off-fill" width="1em" height="1em" viewBox="0 0 16 16" fill="currentColor" xmlns="http://www.w3.org/2000/svg"><path d="M1.986 2.000 L 1.640 2.347 7.640 8.347 L 13.640 14.346 13.993 13.993 L 14.347 13.640 8.354 7.647 C 5.057 4.350,2.354 1.653,2.346 1.653 C 2.339 1.653,2.177 1.809,1.986 2.000 M9.831 7.710 L 14.528 12.408 14.607 12.376 C 14.790 12.300,14.949 12.052,14.988 11.782 C 15.019 11.563,15.020 4.440,14.988 4.222 C 14.958 4.012,14.895 3.881,14.761 3.746 C 14.636 3.621,14.507 3.555,14.313 3.515 C 14.039 3.458,14.002 3.475,12.453 4.374 C 11.671 4.828,11.027 5.200,11.022 5.200 C 11.017 5.200,11.013 5.101,11.013 4.980 C 11.012 4.599,10.967 4.282,10.881 4.060 C 10.719 3.643,10.363 3.287,9.933 3.113 L 9.720 3.027 7.427 3.020 L 5.133 3.012 9.831 7.710 M1.298 3.724 C 1.135 3.965,1.045 4.215,1.013 4.515 C 0.979 4.843,0.979 11.159,1.014 11.487 C 1.099 12.298,1.702 12.901,2.513 12.986 C 2.827 13.019,9.155 13.021,9.468 12.988 C 9.817 12.952,10.131 12.827,10.393 12.620 L 10.453 12.573 5.938 8.058 L 1.422 3.542 1.298 3.724 " stroke="none" fill="black" fill-rule="evenodd"></path></svg>