<svg class="bi bi-caret-right-fill" width="1em" height="1em" viewBox="0 0 16 16" fill="currentColor" xmlns="http://www.w3.org/2000/svg"><path d="M5.682 2.256 C 5.514 2.317,5.390 2.401,5.258 2.545 C 5.106 2.709,5.044 2.856,5.012 3.126 C 4.994 3.268,4.987 5.061,4.992 8.173 L 5.000 13.000 5.062 13.154 C 5.144 13.357,5.363 13.593,5.565 13.695 C 5.708 13.767,5.743 13.773,6.002 13.773 C 6.263 13.773,6.294 13.768,6.435 13.693 C 6.615 13.598,12.174 8.748,12.296 8.579 C 12.392 8.446,12.480 8.170,12.480 8.000 C 12.480 7.830,12.392 7.554,12.296 7.422 C 12.254 7.363,10.952 6.206,9.403 4.851 C 7.408 3.105,6.542 2.364,6.434 2.308 C 6.303 2.241,6.244 2.228,6.040 2.221 C 5.869 2.215,5.766 2.225,5.682 2.256 " stroke="none" fill="black" fill-rule="evenodd"></path></svg>