<svg class="bi bi-caret-left-square-fill" width="1em" height="1em" viewBox="0 0 16 16" fill="currentColor" xmlns="http://www.w3.org/2000/svg"><path d="M1.600 0.042 C 0.952 0.181,0.407 0.629,0.157 1.226 C -0.010 1.625,0.000 1.207,0.000 8.000 C 0.000 14.793,-0.010 14.375,0.157 14.774 C 0.350 15.235,0.765 15.650,1.226 15.843 C 1.625 16.010,1.207 16.000,8.000 16.000 C 13.536 16.000,14.211 15.996,14.394 15.958 C 15.184 15.796,15.796 15.184,15.958 14.394 C 15.996 14.211,16.000 13.536,16.000 8.000 C 16.000 2.464,15.996 1.789,15.958 1.606 C 15.796 0.816,15.184 0.204,14.394 0.042 C 14.210 0.004,13.540 0.000,7.981 0.002 C 2.765 0.004,1.746 0.010,1.600 0.042 M10.146 3.523 C 10.285 3.562,10.440 3.719,10.478 3.858 C 10.499 3.937,10.505 5.128,10.500 8.057 C 10.494 11.925,10.491 12.151,10.446 12.234 C 10.383 12.348,10.211 12.471,10.082 12.493 C 9.842 12.534,9.923 12.598,7.445 10.398 C 6.087 9.193,5.109 8.305,5.074 8.246 C 5.031 8.175,5.014 8.104,5.014 8.000 C 5.014 7.896,5.031 7.825,5.074 7.754 C 5.160 7.610,9.732 3.556,9.846 3.523 C 9.966 3.489,10.022 3.489,10.146 3.523 " stroke="none" fill="black" fill-rule="evenodd"></path></svg>