<svg class="bi bi-caret-up-square-fill" width="1em" height="1em" viewBox="0 0 16 16" fill="currentColor" xmlns="http://www.w3.org/2000/svg"><path d="M1.600 0.042 C 0.952 0.181,0.407 0.629,0.157 1.226 C -0.010 1.625,0.000 1.207,0.000 8.000 C 0.000 14.793,-0.010 14.375,0.157 14.774 C 0.350 15.235,0.765 15.650,1.226 15.843 C 1.625 16.010,1.207 16.000,8.000 16.000 C 13.536 16.000,14.211 15.996,14.394 15.958 C 15.184 15.796,15.796 15.184,15.958 14.394 C 15.996 14.211,16.000 13.536,16.000 8.000 C 16.000 2.464,15.996 1.789,15.958 1.606 C 15.796 0.816,15.184 0.204,14.394 0.042 C 14.210 0.004,13.540 0.000,7.981 0.002 C 2.765 0.004,1.746 0.010,1.600 0.042 M8.227 5.552 C 8.283 5.577,11.983 9.702,12.379 10.181 C 12.583 10.428,12.513 10.790,12.231 10.941 L 12.120 11.000 7.998 11.000 L 3.876 11.000 3.747 10.920 C 3.585 10.820,3.506 10.678,3.509 10.493 C 3.510 10.420,3.530 10.324,3.553 10.280 C 3.588 10.214,7.419 5.881,7.651 5.645 C 7.791 5.502,8.032 5.463,8.227 5.552 " stroke="none" fill="black" fill-rule="evenodd"></path></svg>