<svg class="bi bi-caret-left-square" width="1em" height="1em" viewBox="0 0 16 16" fill="currentColor" xmlns="http://www.w3.org/2000/svg"><path d="M1.600 0.042 C 0.952 0.181,0.407 0.629,0.157 1.226 C -0.010 1.625,0.000 1.207,0.000 8.000 C 0.000 14.793,-0.010 14.375,0.157 14.774 C 0.350 15.235,0.765 15.650,1.226 15.843 C 1.625 16.010,1.207 16.000,8.000 16.000 C 13.536 16.000,14.211 15.996,14.394 15.958 C 15.184 15.796,15.796 15.184,15.958 14.394 C 15.996 14.211,16.000 13.536,16.000 8.000 C 16.000 2.464,15.996 1.789,15.958 1.606 C 15.796 0.816,15.184 0.204,14.394 0.042 C 14.210 0.004,13.540 0.000,7.981 0.002 C 2.765 0.004,1.746 0.010,1.600 0.042 M14.428 1.099 C 14.616 1.192,14.808 1.384,14.901 1.572 L 14.973 1.720 14.980 7.946 C 14.986 13.403,14.982 14.188,14.947 14.309 C 14.867 14.586,14.586 14.864,14.296 14.954 C 14.156 14.997,13.759 15.000,8.000 15.000 C 2.241 15.000,1.844 14.997,1.704 14.954 C 1.422 14.866,1.158 14.612,1.063 14.338 C 1.018 14.207,1.015 13.880,1.014 7.994 C 1.013 1.932,1.015 1.784,1.065 1.652 C 1.162 1.395,1.389 1.166,1.645 1.066 C 1.769 1.017,1.962 1.016,8.027 1.021 L 14.280 1.027 14.428 1.099 M9.834 3.531 C 9.780 3.551,9.600 3.687,9.434 3.834 C 5.754 7.100,5.126 7.665,5.074 7.753 C 5.001 7.876,4.993 8.090,5.057 8.223 C 5.087 8.286,5.840 8.972,7.406 10.364 C 8.674 11.491,9.743 12.431,9.782 12.452 C 9.821 12.473,9.921 12.491,10.003 12.492 C 10.182 12.493,10.331 12.408,10.430 12.248 L 10.493 12.147 10.500 8.057 C 10.505 5.128,10.499 3.937,10.478 3.858 C 10.440 3.719,10.285 3.562,10.146 3.523 C 10.012 3.486,9.957 3.487,9.834 3.531 " stroke="none" fill="black" fill-rule="evenodd"></path></svg>