<svg class="bi bi-caret-right-square-fill" width="1em" height="1em" viewBox="0 0 16 16" fill="currentColor" xmlns="http://www.w3.org/2000/svg"><path d="M1.600 0.042 C 0.952 0.181,0.407 0.629,0.157 1.226 C -0.010 1.625,0.000 1.207,0.000 8.000 C 0.000 14.793,-0.010 14.375,0.157 14.774 C 0.350 15.235,0.765 15.650,1.226 15.843 C 1.625 16.010,1.207 16.000,8.000 16.000 C 13.536 16.000,14.211 15.996,14.394 15.958 C 15.184 15.796,15.796 15.184,15.958 14.394 C 15.996 14.211,16.000 13.536,16.000 8.000 C 16.000 2.464,15.996 1.789,15.958 1.606 C 15.796 0.816,15.184 0.204,14.394 0.042 C 14.210 0.004,13.540 0.000,7.981 0.002 C 2.765 0.004,1.746 0.010,1.600 0.042 M6.225 3.553 C 6.260 3.571,7.326 4.509,8.594 5.636 C 10.160 7.028,10.913 7.714,10.943 7.777 C 11.007 7.910,10.999 8.124,10.926 8.247 C 10.872 8.338,6.547 12.210,6.286 12.402 C 6.087 12.547,5.826 12.526,5.651 12.350 C 5.597 12.296,5.539 12.204,5.523 12.146 C 5.482 11.999,5.481 4.004,5.522 3.857 C 5.559 3.724,5.693 3.581,5.827 3.532 C 5.944 3.489,6.123 3.499,6.225 3.553 " stroke="none" fill="black" fill-rule="evenodd"></path></svg>