<svg class="bi bi-cart-dash" width="1em" height="1em" viewBox="0 0 16 16" fill="currentColor" xmlns="http://www.w3.org/2000/svg"><path d="M0.280 1.055 C 0.160 1.118,0.104 1.176,0.050 1.293 C -0.005 1.414,-0.014 1.560,0.028 1.672 C 0.059 1.753,0.194 1.905,0.280 1.956 C 0.315 1.976,0.556 1.991,0.972 2.000 L 1.610 2.013 1.805 2.787 C 1.963 3.417,2.139 4.306,2.760 7.610 C 3.179 9.837,3.538 11.691,3.558 11.730 C 3.609 11.828,3.703 11.910,3.820 11.959 C 3.894 11.990,4.025 12.001,4.352 12.003 L 4.787 12.005 4.610 12.040 C 4.224 12.117,3.896 12.294,3.599 12.587 C 3.367 12.814,3.211 13.061,3.102 13.373 C 3.033 13.572,3.027 13.616,3.027 14.000 C 3.027 14.384,3.033 14.428,3.102 14.627 C 3.211 14.939,3.367 15.186,3.599 15.413 C 4.084 15.890,4.718 16.086,5.370 15.961 C 5.775 15.884,6.096 15.713,6.401 15.413 C 6.633 15.186,6.789 14.939,6.898 14.627 C 6.967 14.428,6.973 14.384,6.973 14.000 C 6.973 13.616,6.967 13.572,6.898 13.373 C 6.789 13.061,6.633 12.814,6.401 12.587 C 6.104 12.294,5.776 12.117,5.390 12.040 C 5.240 12.010,5.700 12.005,8.493 12.005 C 11.370 12.004,11.752 12.009,11.600 12.042 C 10.952 12.181,10.407 12.629,10.157 13.226 C 9.672 14.386,10.371 15.705,11.606 15.958 C 12.680 16.178,13.736 15.476,13.958 14.394 C 14.178 13.323,13.480 12.270,12.400 12.043 L 12.227 12.006 12.695 11.996 C 13.152 11.987,13.167 11.985,13.272 11.915 C 13.338 11.872,13.402 11.798,13.435 11.728 C 13.499 11.593,14.987 3.689,14.987 3.485 C 14.987 3.414,14.973 3.330,14.957 3.298 C 14.918 3.223,14.801 3.097,14.733 3.058 C 14.693 3.034,13.200 3.023,8.787 3.013 L 2.893 3.000 2.676 2.141 C 2.532 1.573,2.439 1.254,2.400 1.200 C 2.368 1.156,2.296 1.095,2.239 1.066 C 2.142 1.017,2.080 1.013,1.248 1.013 C 0.495 1.014,0.348 1.020,0.280 1.055 M13.893 4.015 C 13.893 4.024,13.599 5.596,13.240 7.509 C 12.881 9.421,12.587 10.992,12.587 11.000 C 12.587 11.007,10.748 11.010,8.501 11.007 L 4.415 11.000 3.772 7.573 C 3.418 5.689,3.123 4.114,3.115 4.073 L 3.101 4.000 8.497 4.000 C 11.465 4.000,13.893 4.007,13.893 4.015 M6.280 7.055 C 6.160 7.118,6.104 7.176,6.050 7.293 C 5.995 7.414,5.986 7.560,6.028 7.672 C 6.070 7.784,6.239 7.944,6.346 7.974 C 6.404 7.990,7.239 8.000,8.520 7.999 C 10.494 7.999,10.606 7.996,10.710 7.949 C 10.884 7.870,10.970 7.734,10.981 7.523 C 10.989 7.367,10.982 7.334,10.918 7.236 C 10.877 7.175,10.800 7.100,10.745 7.069 C 10.647 7.014,10.628 7.013,8.503 7.013 C 6.612 7.014,6.351 7.019,6.280 7.055 M5.432 13.102 C 5.699 13.239,5.876 13.451,5.958 13.732 C 6.014 13.925,6.011 14.093,5.947 14.297 C 5.850 14.602,5.642 14.820,5.337 14.935 C 5.120 15.017,4.765 15.000,4.568 14.898 C 4.301 14.761,4.124 14.549,4.042 14.268 C 3.912 13.823,4.126 13.328,4.541 13.116 C 4.721 13.024,4.772 13.015,5.040 13.022 C 5.254 13.029,5.315 13.041,5.432 13.102 M12.428 13.100 C 12.616 13.192,12.808 13.384,12.901 13.572 C 12.966 13.705,12.973 13.749,12.973 14.000 C 12.973 14.251,12.966 14.295,12.901 14.428 C 12.808 14.616,12.616 14.808,12.428 14.901 C 12.295 14.966,12.251 14.973,12.000 14.973 C 11.749 14.973,11.705 14.966,11.572 14.901 C 11.384 14.809,11.192 14.616,11.100 14.429 C 11.001 14.226,10.983 13.866,11.062 13.659 C 11.162 13.396,11.385 13.169,11.645 13.064 C 11.842 12.985,12.230 13.003,12.428 13.100 " stroke="none" fill="black" fill-rule="evenodd"></path></svg>