<svg class="bi bi-cart3" width="1em" height="1em" viewBox="0 0 16 16" fill="currentColor" xmlns="http://www.w3.org/2000/svg"><path d="M0.280 1.055 C 0.160 1.118,0.104 1.176,0.050 1.293 C -0.005 1.414,-0.014 1.560,0.028 1.672 C 0.059 1.753,0.194 1.905,0.280 1.956 C 0.315 1.976,0.556 1.991,0.972 2.000 L 1.610 2.013 1.805 2.787 C 1.963 3.417,2.139 4.306,2.760 7.610 C 3.179 9.837,3.538 11.691,3.558 11.730 C 3.609 11.828,3.703 11.910,3.820 11.959 C 3.894 11.990,4.025 12.001,4.352 12.003 L 4.787 12.005 4.610 12.040 C 4.224 12.117,3.896 12.294,3.599 12.587 C 3.367 12.814,3.211 13.061,3.102 13.373 C 3.033 13.572,3.027 13.616,3.027 14.000 C 3.027 14.384,3.033 14.428,3.102 14.627 C 3.211 14.939,3.367 15.186,3.599 15.413 C 4.084 15.890,4.718 16.086,5.370 15.961 C 5.775 15.884,6.096 15.713,6.401 15.413 C 6.633 15.186,6.789 14.939,6.898 14.627 C 6.967 14.428,6.973 14.384,6.973 14.000 C 6.973 13.616,6.967 13.572,6.898 13.373 C 6.789 13.061,6.633 12.814,6.401 12.587 C 6.104 12.294,5.776 12.117,5.390 12.040 C 5.240 12.010,5.700 12.005,8.493 12.005 C 11.370 12.004,11.752 12.009,11.600 12.042 C 11.338 12.098,11.133 12.183,10.923 12.321 C 9.844 13.029,9.685 14.505,10.590 15.410 C 11.375 16.195,12.639 16.193,13.415 15.407 C 14.531 14.275,13.959 12.378,12.400 12.042 L 12.227 12.004 12.665 12.002 C 13.054 12.000,13.116 11.994,13.220 11.943 C 13.398 11.857,13.480 11.715,13.480 11.493 C 13.480 11.340,13.470 11.303,13.405 11.217 C 13.364 11.163,13.298 11.098,13.259 11.073 C 13.194 11.030,12.902 11.026,8.802 11.013 L 4.414 11.000 4.272 10.244 C 4.194 9.828,4.134 9.484,4.139 9.479 C 4.143 9.475,6.217 9.369,8.747 9.243 C 11.277 9.118,13.428 9.004,13.528 8.990 C 13.729 8.962,13.864 8.880,13.935 8.743 C 13.990 8.638,14.987 3.653,14.987 3.485 C 14.987 3.414,14.973 3.330,14.957 3.298 C 14.918 3.223,14.801 3.097,14.733 3.058 C 14.693 3.034,13.200 3.023,8.787 3.013 L 2.893 3.000 2.676 2.141 C 2.532 1.573,2.439 1.254,2.400 1.200 C 2.368 1.156,2.296 1.095,2.239 1.066 C 2.142 1.017,2.080 1.013,1.248 1.013 C 0.495 1.014,0.348 1.020,0.280 1.055 M13.883 4.047 C 13.876 4.072,13.693 4.978,13.478 6.060 L 13.085 8.027 13.016 8.027 C 12.978 8.027,10.925 8.128,8.455 8.253 C 5.984 8.377,3.957 8.473,3.950 8.465 C 3.943 8.458,3.760 7.508,3.543 6.353 C 3.327 5.198,3.139 4.196,3.125 4.127 L 3.101 4.000 8.499 4.000 C 13.627 4.000,13.896 4.002,13.883 4.047 M5.432 13.102 C 5.699 13.239,5.876 13.451,5.958 13.732 C 6.014 13.925,6.011 14.093,5.947 14.297 C 5.850 14.602,5.642 14.820,5.337 14.935 C 5.120 15.017,4.765 15.000,4.568 14.898 C 4.301 14.761,4.124 14.549,4.042 14.268 C 3.912 13.823,4.126 13.328,4.541 13.116 C 4.721 13.024,4.772 13.015,5.040 13.022 C 5.254 13.029,5.315 13.041,5.432 13.102 M12.428 13.100 C 12.616 13.192,12.808 13.384,12.901 13.572 C 12.966 13.705,12.973 13.749,12.973 14.000 C 12.973 14.251,12.966 14.295,12.901 14.428 C 12.808 14.616,12.616 14.808,12.428 14.901 C 12.295 14.966,12.251 14.973,12.000 14.973 C 11.749 14.973,11.705 14.966,11.572 14.901 C 11.384 14.809,11.192 14.616,11.100 14.429 C 11.001 14.226,10.983 13.866,11.062 13.659 C 11.162 13.396,11.385 13.169,11.645 13.064 C 11.842 12.985,12.230 13.003,12.428 13.100 " stroke="none" fill="black" fill-rule="evenodd"></path></svg>