<svg class="bi bi-chat-square-dots-fill" width="1em" height="1em" viewBox="0 0 16 16" fill="currentColor" xmlns="http://www.w3.org/2000/svg"><path d="M1.600 0.042 C 0.952 0.181,0.407 0.629,0.157 1.226 C -0.007 1.618,0.000 1.409,-0.000 6.000 C -0.000 10.591,-0.007 10.382,0.157 10.774 C 0.343 11.218,0.749 11.634,1.186 11.827 C 1.540 11.984,1.513 11.982,3.187 11.998 C 4.728 12.013,4.734 12.014,4.867 12.075 C 5.145 12.203,5.183 12.246,6.245 13.660 C 7.001 14.667,7.315 15.065,7.407 15.133 C 7.557 15.244,7.822 15.333,8.000 15.333 C 8.201 15.333,8.462 15.240,8.616 15.112 C 8.706 15.038,9.099 14.538,9.783 13.627 C 10.722 12.375,10.826 12.246,10.960 12.166 C 11.240 11.999,11.229 12.000,12.779 12.000 C 13.960 12.000,14.222 11.993,14.394 11.958 C 15.184 11.796,15.796 11.184,15.958 10.394 C 15.995 10.212,16.000 9.714,16.000 6.000 C 16.000 2.286,15.995 1.788,15.958 1.606 C 15.796 0.816,15.184 0.204,14.394 0.042 C 14.210 0.004,13.540 0.000,7.981 0.002 C 2.765 0.004,1.746 0.010,1.600 0.042 M4.428 5.100 C 4.616 5.192,4.808 5.384,4.901 5.572 C 4.966 5.705,4.973 5.749,4.973 6.000 C 4.973 6.251,4.966 6.295,4.901 6.428 C 4.808 6.616,4.616 6.808,4.428 6.901 C 4.295 6.966,4.251 6.973,4.000 6.973 C 3.749 6.973,3.705 6.966,3.572 6.901 C 3.384 6.809,3.192 6.616,3.100 6.429 C 3.001 6.226,2.983 5.866,3.062 5.659 C 3.162 5.396,3.385 5.169,3.645 5.064 C 3.842 4.985,4.230 5.003,4.428 5.100 M8.428 5.100 C 8.616 5.192,8.808 5.384,8.901 5.572 C 8.966 5.705,8.973 5.749,8.973 6.000 C 8.973 6.251,8.966 6.295,8.901 6.428 C 8.808 6.616,8.616 6.808,8.428 6.901 C 8.295 6.966,8.251 6.973,8.000 6.973 C 7.749 6.973,7.705 6.966,7.572 6.901 C 7.384 6.809,7.192 6.616,7.100 6.429 C 7.001 6.226,6.983 5.866,7.062 5.659 C 7.162 5.396,7.385 5.169,7.645 5.064 C 7.842 4.985,8.230 5.003,8.428 5.100 M12.428 5.100 C 12.616 5.192,12.808 5.384,12.901 5.572 C 12.966 5.705,12.973 5.749,12.973 6.000 C 12.973 6.251,12.966 6.295,12.901 6.428 C 12.808 6.616,12.616 6.808,12.428 6.901 C 12.295 6.966,12.251 6.973,12.000 6.973 C 11.749 6.973,11.705 6.966,11.572 6.901 C 11.384 6.809,11.192 6.616,11.100 6.429 C 11.001 6.226,10.983 5.866,11.062 5.659 C 11.162 5.396,11.385 5.169,11.645 5.064 C 11.842 4.985,12.230 5.003,12.428 5.100 " stroke="none" fill="black" fill-rule="evenodd"></path></svg>