<svg class="bi bi-chat-square-fill" width="1em" height="1em" viewBox="0 0 16 16" fill="currentColor" xmlns="http://www.w3.org/2000/svg"><path d="M1.600 0.042 C 0.952 0.181,0.407 0.629,0.157 1.226 C -0.007 1.618,0.000 1.409,-0.000 6.000 C -0.000 10.591,-0.007 10.382,0.157 10.774 C 0.343 11.218,0.749 11.634,1.186 11.827 C 1.540 11.984,1.513 11.982,3.187 11.998 C 4.728 12.013,4.734 12.014,4.867 12.075 C 5.145 12.203,5.183 12.246,6.245 13.660 C 7.001 14.667,7.315 15.065,7.407 15.133 C 7.557 15.244,7.822 15.333,8.000 15.333 C 8.201 15.333,8.462 15.240,8.616 15.112 C 8.706 15.038,9.099 14.538,9.783 13.627 C 10.722 12.375,10.826 12.246,10.960 12.166 C 11.240 11.999,11.229 12.000,12.779 12.000 C 13.960 12.000,14.222 11.993,14.394 11.958 C 15.184 11.796,15.796 11.184,15.958 10.394 C 15.995 10.212,16.000 9.714,16.000 6.000 C 16.000 2.286,15.995 1.788,15.958 1.606 C 15.796 0.816,15.184 0.204,14.394 0.042 C 14.210 0.004,13.540 0.000,7.981 0.002 C 2.765 0.004,1.746 0.010,1.600 0.042 " stroke="none" fill="black" fill-rule="evenodd"></path></svg>