<svg class="bi bi-check-square" width="1em" height="1em" viewBox="0 0 16 16" fill="currentColor" xmlns="http://www.w3.org/2000/svg"><path d="M1.600 0.042 C 0.952 0.181,0.407 0.629,0.157 1.226 C -0.010 1.625,0.000 1.207,0.000 8.000 C 0.000 14.793,-0.010 14.375,0.157 14.774 C 0.350 15.235,0.765 15.650,1.226 15.843 C 1.625 16.010,1.207 16.000,8.000 16.000 C 13.536 16.000,14.211 15.996,14.394 15.958 C 15.184 15.796,15.796 15.184,15.958 14.394 C 15.996 14.211,16.000 13.536,16.000 8.000 C 16.000 2.464,15.996 1.789,15.958 1.606 C 15.796 0.816,15.184 0.204,14.394 0.042 C 14.210 0.004,13.540 0.000,7.981 0.002 C 2.765 0.004,1.746 0.010,1.600 0.042 M14.428 1.099 C 14.616 1.192,14.808 1.384,14.901 1.572 L 14.973 1.720 14.980 7.946 C 14.986 13.403,14.982 14.188,14.947 14.309 C 14.867 14.586,14.586 14.864,14.296 14.954 C 14.156 14.997,13.759 15.000,8.000 15.000 C 2.241 15.000,1.844 14.997,1.704 14.954 C 1.422 14.866,1.158 14.612,1.063 14.338 C 1.018 14.207,1.015 13.880,1.014 7.994 C 1.013 1.932,1.015 1.784,1.065 1.652 C 1.162 1.395,1.389 1.166,1.645 1.066 C 1.769 1.017,1.962 1.016,8.027 1.021 L 14.280 1.027 14.428 1.099 M11.291 4.783 C 11.231 4.802,11.143 4.841,11.095 4.869 C 11.040 4.901,10.363 5.742,9.245 7.167 L 7.481 9.413 6.387 8.321 C 5.183 7.119,5.151 7.094,4.851 7.094 C 4.418 7.093,4.097 7.408,4.095 7.840 C 4.092 8.165,4.077 8.147,5.659 9.723 C 7.235 11.294,7.170 11.241,7.520 11.239 C 7.715 11.237,7.905 11.157,8.031 11.022 C 8.203 10.840,12.138 5.897,12.179 5.813 C 12.244 5.678,12.255 5.419,12.202 5.260 C 12.082 4.897,11.643 4.667,11.291 4.783 " stroke="none" fill="black" fill-rule="evenodd"></path></svg>