<svg class="bi bi-check-circle-fill" width="1em" height="1em" viewBox="0 0 16 16" fill="currentColor" xmlns="http://www.w3.org/2000/svg"><path d="M7.293 0.030 C 4.174 0.300,1.460 2.423,0.439 5.390 C -0.989 9.546,1.195 14.077,5.331 15.539 C 8.244 16.569,11.468 15.838,13.653 13.653 C 16.473 10.834,16.787 6.378,14.390 3.190 C 12.867 1.166,10.473 -0.019,7.947 0.004 C 7.734 0.006,7.440 0.018,7.293 0.030 M11.796 4.813 C 11.947 4.876,12.120 5.050,12.186 5.205 C 12.234 5.315,12.243 5.379,12.235 5.531 C 12.229 5.635,12.204 5.762,12.179 5.813 C 12.138 5.898,8.201 10.841,8.031 11.022 C 7.903 11.159,7.716 11.236,7.507 11.238 C 7.167 11.241,7.195 11.264,5.638 9.701 C 4.708 8.768,4.232 8.271,4.199 8.200 C 4.120 8.031,4.115 7.746,4.188 7.577 C 4.353 7.192,4.831 7.015,5.203 7.200 C 5.282 7.240,5.674 7.612,6.400 8.336 L 7.480 9.413 9.233 7.180 C 10.231 5.909,11.026 4.920,11.078 4.884 C 11.283 4.746,11.567 4.718,11.796 4.813 " stroke="none" fill="black" fill-rule="evenodd"></path></svg>