<svg class="bi bi-check2-circle" width="1em" height="1em" viewBox="0 0 16 16" fill="currentColor" xmlns="http://www.w3.org/2000/svg"><path d="M7.587 1.509 C 6.528 1.614,5.770 1.830,4.960 2.257 C 3.088 3.243,1.815 5.099,1.544 7.240 C 1.500 7.580,1.501 8.413,1.544 8.760 C 1.868 11.352,3.651 13.470,6.143 14.225 C 7.735 14.707,9.522 14.536,11.007 13.759 C 12.740 12.853,13.993 11.183,14.370 9.280 C 14.478 8.734,14.531 8.055,14.480 7.868 C 14.377 7.485,13.873 7.376,13.618 7.680 C 13.527 7.788,13.494 7.916,13.493 8.164 C 13.493 8.470,13.420 8.984,13.320 9.375 C 12.884 11.083,11.641 12.479,9.977 13.132 C 8.990 13.518,7.768 13.599,6.728 13.347 C 4.662 12.847,3.082 11.237,2.630 9.173 C 2.143 6.950,3.068 4.685,4.987 3.401 C 5.288 3.200,5.893 2.904,6.240 2.790 C 7.663 2.320,9.137 2.427,10.482 3.098 C 10.950 3.331,11.042 3.349,11.247 3.250 C 11.539 3.109,11.605 2.700,11.373 2.468 C 11.253 2.348,10.560 2.008,10.147 1.866 C 9.746 1.729,9.277 1.616,8.881 1.561 C 8.582 1.520,7.797 1.488,7.587 1.509 M14.787 2.550 C 14.743 2.573,13.198 4.100,11.353 5.943 L 8.000 9.293 6.647 7.942 C 5.902 7.200,5.255 6.573,5.208 6.549 C 5.038 6.465,4.759 6.517,4.637 6.657 C 4.501 6.812,4.468 7.048,4.558 7.221 C 4.587 7.276,5.313 8.021,6.178 8.884 C 7.795 10.497,7.805 10.506,8.000 10.506 C 8.201 10.506,8.106 10.596,11.822 6.885 C 13.852 4.857,15.412 3.277,15.442 3.221 C 15.536 3.041,15.489 2.765,15.343 2.637 C 15.195 2.507,14.945 2.468,14.787 2.550 " stroke="none" fill="black" fill-rule="evenodd"></path></svg>