<svg class="bi bi-chevron-double-left" width="1em" height="1em" viewBox="0 0 16 16" fill="currentColor" xmlns="http://www.w3.org/2000/svg"><path d="M7.828 1.533 C 7.744 1.563,7.099 2.194,4.660 4.632 C 2.975 6.316,1.577 7.729,1.553 7.773 C 1.496 7.878,1.496 8.122,1.553 8.227 C 1.577 8.271,2.980 9.689,4.672 11.378 C 7.467 14.170,7.757 14.452,7.863 14.480 C 8.244 14.580,8.580 14.244,8.480 13.863 C 8.452 13.757,8.187 13.484,5.578 10.873 L 2.707 8.000 5.578 5.127 C 8.199 2.504,8.452 2.243,8.480 2.136 C 8.551 1.866,8.399 1.593,8.139 1.521 C 8.011 1.485,7.956 1.488,7.828 1.533 M11.828 1.533 C 11.744 1.563,11.099 2.194,8.660 4.632 C 6.975 6.316,5.577 7.729,5.553 7.773 C 5.496 7.878,5.496 8.122,5.553 8.227 C 5.577 8.271,6.980 9.689,8.672 11.378 C 11.467 14.170,11.757 14.452,11.863 14.480 C 12.244 14.580,12.580 14.244,12.480 13.863 C 12.452 13.757,12.187 13.484,9.578 10.873 L 6.707 8.000 9.578 5.127 C 12.199 2.504,12.452 2.243,12.480 2.136 C 12.551 1.866,12.399 1.593,12.139 1.521 C 12.011 1.485,11.956 1.488,11.828 1.533 " stroke="none" fill="black" fill-rule="evenodd"></path></svg>