<svg class="bi bi-chevron-compact-right" width="1em" height="1em" viewBox="0 0 16 16" fill="currentColor" xmlns="http://www.w3.org/2000/svg"><path d="M6.785 1.560 C 6.611 1.647,6.526 1.774,6.512 1.970 L 6.501 2.121 7.970 5.061 L 9.440 8.000 7.973 10.934 C 6.606 13.670,6.507 13.877,6.507 14.005 C 6.507 14.360,6.861 14.600,7.178 14.460 C 7.244 14.431,7.325 14.378,7.358 14.343 C 7.391 14.308,8.110 12.900,8.954 11.213 C 10.426 8.274,10.490 8.141,10.490 8.000 C 10.490 7.859,10.426 7.726,8.954 4.785 C 7.313 1.506,7.357 1.585,7.127 1.522 C 6.980 1.481,6.932 1.486,6.785 1.560 " stroke="none" fill="black" fill-rule="evenodd"></path></svg>