<svg class="bi bi-chevron-bar-down" width="1em" height="1em" viewBox="0 0 16 16" fill="currentColor" xmlns="http://www.w3.org/2000/svg"><path d="M3.799 4.050 C 3.628 4.128,3.494 4.328,3.494 4.507 C 3.494 4.704,3.480 4.688,5.609 6.822 C 6.852 8.067,7.708 8.905,7.772 8.938 C 7.908 9.009,8.092 9.009,8.228 8.938 C 8.292 8.905,9.145 8.069,10.389 6.822 C 12.168 5.037,12.449 4.745,12.476 4.650 C 12.513 4.516,12.514 4.493,12.479 4.367 C 12.401 4.088,12.084 3.931,11.819 4.041 C 11.750 4.070,11.161 4.641,9.860 5.941 L 8.000 7.800 6.140 5.941 C 4.839 4.641,4.250 4.070,4.181 4.041 C 4.051 3.987,3.931 3.990,3.799 4.050 M1.266 11.063 C 1.162 11.126,1.045 11.265,1.023 11.350 C 1.014 11.386,1.012 11.480,1.019 11.559 C 1.033 11.736,1.132 11.877,1.290 11.949 C 1.396 11.997,1.611 11.999,8.000 11.999 C 14.389 11.999,14.604 11.997,14.710 11.949 C 14.884 11.870,14.970 11.734,14.981 11.523 C 14.989 11.367,14.982 11.334,14.918 11.236 C 14.877 11.175,14.800 11.100,14.745 11.069 L 14.646 11.013 7.996 11.013 C 1.566 11.014,1.344 11.015,1.266 11.063 " stroke="none" fill="black" fill-rule="evenodd"></path></svg>