<svg class="bi bi-chevron-contract" width="1em" height="1em" viewBox="0 0 16 16" fill="currentColor" xmlns="http://www.w3.org/2000/svg"><path d="M3.799 2.050 C 3.628 2.128,3.494 2.328,3.494 2.507 C 3.494 2.704,3.480 2.688,5.609 4.822 C 6.852 6.067,7.708 6.905,7.772 6.938 C 7.908 7.009,8.092 7.009,8.228 6.938 C 8.292 6.905,9.145 6.069,10.389 4.822 C 12.168 3.037,12.449 2.745,12.476 2.650 C 12.513 2.516,12.514 2.493,12.479 2.367 C 12.401 2.088,12.084 1.931,11.819 2.041 C 11.750 2.070,11.161 2.641,9.860 3.941 L 8.000 5.800 6.140 3.941 C 4.839 2.641,4.250 2.070,4.181 2.041 C 4.051 1.987,3.931 1.990,3.799 2.050 M7.907 9.013 C 7.863 9.023,7.791 9.050,7.747 9.074 C 7.703 9.097,6.741 10.044,5.609 11.178 C 3.837 12.953,3.547 13.255,3.522 13.347 C 3.487 13.479,3.487 13.508,3.521 13.633 C 3.599 13.912,3.916 14.069,4.181 13.959 C 4.250 13.930,4.839 13.359,6.140 12.059 L 8.000 10.200 9.860 12.059 C 11.161 13.359,11.750 13.930,11.819 13.959 C 12.084 14.069,12.401 13.912,12.479 13.633 C 12.514 13.507,12.513 13.484,12.476 13.350 C 12.449 13.255,12.168 12.963,10.389 11.178 C 9.258 10.044,8.291 9.095,8.240 9.069 C 8.121 9.008,8.008 8.989,7.907 9.013 " stroke="none" fill="black" fill-rule="evenodd"></path></svg>