<svg class="bi bi-chevron-left" width="1em" height="1em" viewBox="0 0 16 16" fill="currentColor" xmlns="http://www.w3.org/2000/svg"><path d="M10.785 1.559 C 10.607 1.649,4.611 7.641,4.548 7.792 C 4.495 7.919,4.495 8.081,4.548 8.208 C 4.611 8.359,10.607 14.351,10.785 14.441 C 10.952 14.524,11.049 14.524,11.215 14.440 C 11.378 14.358,11.471 14.228,11.487 14.056 C 11.513 13.785,11.664 13.950,8.577 10.860 L 5.721 8.000 8.577 5.140 C 11.664 2.050,11.513 2.215,11.487 1.944 C 11.471 1.772,11.378 1.642,11.215 1.560 C 11.049 1.476,10.952 1.476,10.785 1.559 " stroke="none" fill="black" fill-rule="evenodd"></path></svg>