<svg class="bi bi-chevron-compact-down" width="1em" height="1em" viewBox="0 0 16 16" fill="currentColor" xmlns="http://www.w3.org/2000/svg"><path d="M1.800 6.545 C 1.581 6.643,1.459 6.893,1.519 7.118 C 1.584 7.358,1.489 7.304,4.785 8.954 C 7.726 10.426,7.859 10.490,8.000 10.490 C 8.141 10.490,8.274 10.426,11.215 8.954 C 14.477 7.321,14.405 7.362,14.480 7.133 C 14.580 6.830,14.335 6.507,14.005 6.507 C 13.877 6.507,13.670 6.606,10.934 7.973 L 8.000 9.440 5.066 7.973 C 2.409 6.645,2.121 6.507,2.006 6.508 C 1.937 6.508,1.844 6.525,1.800 6.545 " stroke="none" fill="black" fill-rule="evenodd"></path></svg>