<svg class="bi bi-clipboard-data" width="1em" height="1em" viewBox="0 0 16 16" fill="currentColor" xmlns="http://www.w3.org/2000/svg"><path d="M6.171 0.040 C 5.645 0.154,5.198 0.585,5.050 1.120 C 4.979 1.376,4.979 2.624,5.050 2.880 C 5.199 3.421,5.647 3.848,6.184 3.962 C 6.444 4.017,9.559 4.016,9.820 3.961 C 10.367 3.845,10.824 3.392,10.964 2.827 C 11.015 2.621,11.015 1.379,10.964 1.173 C 10.822 0.602,10.373 0.156,9.819 0.039 C 9.568 -0.014,6.416 -0.014,6.171 0.040 M9.798 1.104 C 9.982 1.244,9.999 1.318,9.999 2.000 C 9.999 2.529,9.993 2.613,9.949 2.710 C 9.884 2.854,9.749 2.953,9.574 2.987 C 9.386 3.022,6.614 3.022,6.426 2.987 C 6.251 2.953,6.116 2.854,6.051 2.710 C 6.007 2.613,6.001 2.529,6.001 2.000 C 6.001 1.269,6.025 1.189,6.280 1.055 C 6.351 1.018,6.553 1.014,8.029 1.020 L 9.698 1.027 9.798 1.104 M2.707 1.523 C 1.931 1.633,1.283 2.217,1.060 3.006 L 1.001 3.213 0.992 8.520 C 0.987 11.932,0.994 13.933,1.011 14.125 C 1.059 14.665,1.240 15.061,1.599 15.413 C 1.904 15.713,2.225 15.884,2.630 15.961 C 2.932 16.019,13.068 16.019,13.370 15.961 C 13.775 15.884,14.096 15.713,14.401 15.413 C 14.760 15.061,14.941 14.665,14.989 14.125 C 15.006 13.933,15.013 11.932,15.008 8.520 L 14.999 3.213 14.942 3.010 C 14.712 2.200,14.075 1.634,13.269 1.522 C 13.155 1.506,12.824 1.493,12.531 1.493 L 12.000 1.493 12.000 2.000 L 12.000 2.507 12.582 2.507 C 13.006 2.507,13.199 2.517,13.290 2.544 C 13.590 2.635,13.841 2.883,13.944 3.192 L 14.000 3.358 14.000 8.743 C 14.000 14.058,13.999 14.130,13.947 14.297 C 13.851 14.600,13.648 14.813,13.337 14.939 L 13.187 15.000 8.160 15.008 C 4.954 15.012,3.054 15.006,2.915 14.989 C 2.575 14.948,2.331 14.801,2.165 14.539 C 1.988 14.261,2.000 14.678,2.000 8.745 C 2.000 3.436,2.001 3.363,2.053 3.196 C 2.122 2.979,2.256 2.799,2.437 2.679 C 2.671 2.523,2.764 2.507,3.418 2.507 L 4.000 2.507 4.000 2.000 L 4.000 1.493 3.433 1.497 C 3.122 1.498,2.795 1.510,2.707 1.523 M10.767 6.027 C 10.485 6.098,10.216 6.325,10.088 6.600 L 10.013 6.760 10.006 9.438 C 9.998 12.392,9.992 12.268,10.164 12.539 C 10.264 12.696,10.387 12.806,10.568 12.898 C 10.765 13.000,11.120 13.017,11.337 12.935 C 11.644 12.819,11.852 12.601,11.947 12.293 C 12.000 12.123,12.001 12.065,11.994 9.440 L 11.987 6.760 11.903 6.587 C 11.738 6.243,11.429 6.032,11.061 6.012 C 10.954 6.007,10.822 6.013,10.767 6.027 M7.704 8.049 C 7.317 8.177,7.066 8.481,7.013 8.887 C 6.982 9.131,6.980 11.871,7.012 12.115 C 7.055 12.454,7.268 12.751,7.572 12.901 C 7.705 12.966,7.749 12.973,8.000 12.973 C 8.251 12.973,8.295 12.966,8.428 12.901 C 8.612 12.810,8.808 12.617,8.894 12.441 C 8.930 12.367,8.971 12.223,8.986 12.120 C 9.020 11.881,9.020 9.146,8.986 8.885 C 8.939 8.519,8.699 8.201,8.379 8.078 C 8.169 7.998,7.895 7.986,7.704 8.049 M4.767 10.027 C 4.485 10.098,4.216 10.325,4.088 10.600 C 4.013 10.760,4.013 10.760,4.005 11.433 C 3.997 11.998,4.003 12.130,4.040 12.260 C 4.123 12.548,4.298 12.759,4.568 12.898 C 4.765 13.000,5.120 13.017,5.337 12.935 C 5.646 12.819,5.852 12.601,5.949 12.289 C 6.000 12.124,6.003 12.058,5.995 11.435 L 5.987 10.760 5.903 10.587 C 5.738 10.243,5.429 10.032,5.061 10.012 C 4.954 10.007,4.822 10.013,4.767 10.027 " stroke="none" fill="black" fill-rule="evenodd"></path></svg>