<svg class="bi bi-clock-history" width="1em" height="1em" viewBox="0 0 16 16" fill="currentColor" xmlns="http://www.w3.org/2000/svg"><path d="M7.307 0.028 C 3.749 0.357,0.858 2.945,0.160 6.425 C 0.035 7.047,0.014 7.270,0.014 8.000 C 0.014 8.991,0.125 9.688,0.423 10.565 C 1.769 14.529,5.937 16.787,9.987 15.746 C 11.108 15.458,12.109 14.956,13.027 14.222 C 13.321 13.986,14.063 13.265,14.048 13.228 C 14.042 13.213,13.784 12.987,13.355 12.620 C 13.314 12.585,13.278 12.612,12.981 12.911 C 11.903 13.995,10.574 14.676,9.053 14.922 C 8.692 14.980,7.695 15.002,7.288 14.961 C 5.695 14.799,4.184 14.078,3.040 12.933 C 1.924 11.818,1.212 10.324,1.041 8.741 C 1.000 8.355,1.007 7.524,1.055 7.142 C 1.252 5.593,1.955 4.150,3.041 3.066 C 4.110 2.001,5.441 1.323,6.947 1.078 C 7.114 1.051,7.454 1.029,7.860 1.021 C 8.494 1.008,8.507 1.006,8.518 0.950 C 8.542 0.830,8.588 0.046,8.572 0.030 C 8.546 0.004,7.587 0.002,7.307 0.028 M9.747 0.222 C 9.712 0.328,9.543 1.152,9.553 1.162 C 9.561 1.169,9.673 1.204,9.803 1.239 C 9.933 1.274,10.147 1.339,10.278 1.384 C 10.409 1.429,10.519 1.463,10.521 1.459 C 10.524 1.456,10.604 1.249,10.700 1.000 C 10.821 0.685,10.865 0.541,10.844 0.527 C 10.795 0.495,10.274 0.327,10.005 0.256 C 9.825 0.208,9.754 0.198,9.747 0.222 M11.927 1.073 C 11.841 1.182,11.463 1.900,11.483 1.917 C 11.496 1.928,11.667 2.044,11.863 2.175 C 12.059 2.306,12.240 2.428,12.265 2.447 C 12.306 2.477,12.346 2.435,12.614 2.089 L 12.917 1.698 12.825 1.621 C 12.738 1.548,12.257 1.223,12.050 1.098 C 11.974 1.053,11.948 1.047,11.927 1.073 M13.446 2.816 C 13.252 3.000,13.093 3.162,13.093 3.175 C 13.093 3.187,13.161 3.273,13.244 3.366 C 13.326 3.458,13.468 3.632,13.559 3.752 L 13.724 3.970 14.121 3.690 C 14.340 3.536,14.524 3.405,14.530 3.399 C 14.546 3.383,14.266 3.018,14.029 2.747 C 13.920 2.622,13.824 2.511,13.815 2.500 C 13.806 2.490,13.640 2.632,13.446 2.816 M7.266 3.061 C 7.160 3.128,7.045 3.265,7.020 3.355 C 7.009 3.395,7.000 4.699,7.000 6.253 C 7.000 9.344,6.993 9.210,7.158 9.355 C 7.248 9.434,10.635 11.380,10.809 11.453 C 11.151 11.596,11.537 11.290,11.481 10.920 C 11.444 10.673,11.453 10.679,9.657 9.654 L 8.000 8.709 7.999 6.054 C 7.999 3.520,7.997 3.395,7.949 3.290 C 7.922 3.230,7.854 3.146,7.799 3.104 C 7.667 3.003,7.393 2.981,7.266 3.061 M14.707 4.619 C 14.472 4.736,14.276 4.837,14.271 4.841 C 14.266 4.846,14.327 5.004,14.408 5.192 C 14.488 5.380,14.570 5.586,14.589 5.649 C 14.608 5.713,14.639 5.771,14.657 5.779 C 14.676 5.786,14.895 5.724,15.145 5.641 L 15.598 5.490 15.529 5.298 C 15.445 5.063,15.182 4.451,15.154 4.424 C 15.142 4.414,14.941 4.501,14.707 4.619 M15.350 6.722 C 15.117 6.764,14.920 6.804,14.913 6.811 C 14.906 6.818,14.915 6.923,14.932 7.045 C 14.949 7.167,14.972 7.393,14.982 7.547 C 14.992 7.701,15.009 7.824,15.020 7.820 C 15.031 7.816,15.258 7.813,15.523 7.813 L 16.007 7.813 15.990 7.567 C 15.980 7.431,15.953 7.167,15.929 6.980 C 15.889 6.663,15.883 6.640,15.830 6.643 C 15.799 6.645,15.583 6.680,15.350 6.722 M14.948 8.885 C 14.942 8.904,14.917 9.042,14.893 9.190 C 14.869 9.339,14.827 9.549,14.799 9.656 C 14.772 9.763,14.754 9.856,14.760 9.862 C 14.787 9.889,15.695 10.127,15.711 10.111 C 15.736 10.085,15.861 9.509,15.902 9.227 C 15.944 8.943,15.999 8.982,15.467 8.920 C 15.269 8.897,15.074 8.871,15.033 8.863 C 14.986 8.854,14.956 8.861,14.948 8.885 M14.322 11.003 C 14.287 11.085,14.182 11.285,14.089 11.448 C 13.996 11.611,13.929 11.751,13.940 11.761 C 13.982 11.796,14.739 12.267,14.754 12.267 C 14.797 12.267,15.330 11.267,15.302 11.240 C 15.280 11.220,14.439 10.853,14.415 10.854 C 14.399 10.854,14.358 10.921,14.322 11.003 " stroke="none" fill="black" fill-rule="evenodd"></path></svg>