<svg class="bi bi-clock" width="1em" height="1em" viewBox="0 0 16 16" fill="currentColor" xmlns="http://www.w3.org/2000/svg"><path d="M7.293 0.030 C 4.174 0.300,1.460 2.423,0.439 5.390 C -0.989 9.546,1.195 14.077,5.331 15.539 C 8.244 16.569,11.468 15.838,13.653 13.653 C 16.473 10.834,16.787 6.378,14.390 3.190 C 12.867 1.166,10.473 -0.019,7.947 0.004 C 7.734 0.006,7.440 0.018,7.293 0.030 M8.768 1.041 C 10.349 1.213,11.838 1.934,12.973 3.079 C 13.491 3.601,13.952 4.250,14.280 4.919 C 14.518 5.405,14.657 5.783,14.783 6.284 C 14.947 6.939,14.973 7.177,14.973 8.000 C 14.973 8.823,14.947 9.061,14.783 9.716 C 14.657 10.218,14.517 10.596,14.280 11.080 C 13.369 12.933,11.704 14.284,9.716 14.783 C 9.061 14.947,8.823 14.973,8.000 14.973 C 7.177 14.973,6.938 14.947,6.287 14.783 C 4.507 14.336,2.953 13.185,2.008 11.613 C 1.484 10.744,1.149 9.755,1.041 8.768 C 1.005 8.434,1.005 7.566,1.041 7.232 C 1.237 5.430,2.177 3.705,3.581 2.572 C 4.606 1.745,5.923 1.187,7.187 1.044 C 7.491 1.010,8.462 1.008,8.768 1.041 M7.266 3.061 C 7.160 3.128,7.045 3.265,7.020 3.355 C 7.009 3.395,7.000 4.699,7.000 6.253 C 7.000 9.344,6.993 9.210,7.158 9.355 C 7.248 9.434,10.635 11.380,10.809 11.453 C 11.151 11.596,11.537 11.290,11.481 10.920 C 11.444 10.673,11.453 10.679,9.657 9.654 L 8.000 8.709 7.999 6.054 C 7.999 3.520,7.997 3.395,7.949 3.290 C 7.922 3.230,7.854 3.146,7.799 3.104 C 7.667 3.003,7.393 2.981,7.266 3.061 " stroke="none" fill="black" fill-rule="evenodd"></path></svg>