<svg class="bi bi-cloud-download" width="1em" height="1em" viewBox="0 0 16 16" fill="currentColor" xmlns="http://www.w3.org/2000/svg"><path d="M8.107 0.018 C 7.119 0.205,6.191 0.695,5.483 1.404 C 4.826 2.060,4.390 2.830,4.160 3.741 L 4.085 4.040 3.956 4.027 C 3.668 3.997,3.053 4.018,2.828 4.065 C 1.562 4.331,0.565 5.218,0.175 6.426 C -0.110 7.308,-0.041 8.217,0.373 9.053 C 0.793 9.900,1.509 10.522,2.414 10.824 C 2.890 10.983,2.973 10.990,4.553 11.005 L 6.000 11.019 6.000 10.510 L 6.000 10.000 4.657 10.000 C 3.242 10.000,3.058 9.988,2.719 9.871 C 2.129 9.668,1.619 9.244,1.319 8.707 C 0.933 8.016,0.913 7.105,1.270 6.392 C 1.481 5.972,1.840 5.584,2.229 5.357 C 2.651 5.112,2.913 5.038,3.413 5.022 C 3.766 5.011,3.846 5.018,4.333 5.104 C 4.627 5.155,4.874 5.188,4.883 5.178 C 4.892 5.168,4.944 4.920,4.999 4.627 C 5.121 3.978,5.236 3.607,5.443 3.202 C 5.979 2.146,6.972 1.387,8.173 1.116 C 8.554 1.030,9.228 1.018,9.650 1.090 C 10.498 1.235,11.202 1.600,11.814 2.212 C 12.555 2.953,12.941 3.830,12.979 4.857 C 12.997 5.354,12.972 5.576,12.815 6.307 C 12.753 6.600,12.704 6.843,12.707 6.848 C 12.710 6.852,12.970 6.896,13.284 6.947 C 13.598 6.997,13.907 7.057,13.970 7.079 C 14.447 7.247,14.823 7.650,14.947 8.125 C 14.997 8.319,14.998 8.690,14.947 8.879 C 14.841 9.277,14.559 9.630,14.194 9.822 C 13.855 9.999,13.850 9.999,11.820 10.000 L 10.000 10.000 10.000 10.509 L 10.000 11.018 11.913 11.006 C 13.539 10.996,13.853 10.987,14.000 10.952 C 14.632 10.798,15.113 10.494,15.475 10.020 C 16.230 9.034,16.154 7.666,15.296 6.777 C 14.963 6.432,14.555 6.190,14.122 6.080 C 14.006 6.051,13.908 6.024,13.905 6.020 C 13.901 6.016,13.916 5.923,13.937 5.813 C 13.958 5.703,13.985 5.457,13.997 5.267 C 14.085 3.840,13.594 2.494,12.615 1.483 C 11.951 0.798,11.259 0.385,10.320 0.113 L 9.987 0.016 9.080 0.011 C 8.581 0.008,8.143 0.011,8.107 0.018 M7.799 6.050 C 7.667 6.110,7.558 6.235,7.521 6.367 C 7.503 6.434,7.494 7.768,7.493 10.372 L 7.493 14.278 6.553 13.344 C 5.760 12.555,5.596 12.404,5.504 12.378 C 5.370 12.340,5.347 12.340,5.221 12.375 C 5.020 12.430,4.855 12.647,4.855 12.853 C 4.855 12.905,4.877 12.995,4.905 13.053 C 4.975 13.204,7.682 15.903,7.819 15.959 C 7.950 16.013,8.070 16.010,8.200 15.949 C 8.332 15.887,11.077 13.144,11.119 13.032 C 11.230 12.734,11.022 12.389,10.710 12.354 C 10.470 12.327,10.456 12.337,9.447 13.342 L 8.507 14.278 8.507 10.372 C 8.506 7.768,8.497 6.434,8.479 6.367 C 8.423 6.167,8.207 6.001,8.000 6.001 C 7.949 6.001,7.858 6.023,7.799 6.050 " stroke="none" fill="black" fill-rule="evenodd"></path></svg>