<svg class="bi bi-cloud-slash" width="1em" height="1em" viewBox="0 0 16 16" fill="currentColor" xmlns="http://www.w3.org/2000/svg"><path d="M1.986 2.000 L 1.640 2.347 7.640 8.347 L 13.640 14.346 13.993 13.993 L 14.347 13.640 8.354 7.647 C 5.057 4.350,2.354 1.653,2.346 1.653 C 2.339 1.653,2.177 1.809,1.986 2.000 M8.453 2.030 C 7.665 2.120,6.853 2.419,6.207 2.859 C 5.904 3.065,5.551 3.355,5.548 3.400 C 5.547 3.415,5.702 3.582,5.891 3.771 L 6.236 4.115 6.386 3.979 C 6.973 3.442,7.849 3.078,8.706 3.016 C 10.356 2.895,11.877 3.775,12.600 5.267 C 12.825 5.732,12.934 6.130,12.986 6.685 C 13.031 7.162,12.984 7.541,12.747 8.633 L 12.699 8.852 12.783 8.866 C 12.829 8.874,13.091 8.916,13.364 8.960 C 14.050 9.069,14.261 9.156,14.558 9.449 C 14.838 9.726,14.987 10.086,14.987 10.488 C 14.987 10.932,14.855 11.252,14.547 11.560 C 14.422 11.685,14.305 11.773,14.192 11.825 L 14.025 11.904 14.392 12.272 C 14.594 12.474,14.770 12.640,14.783 12.640 C 14.835 12.640,15.183 12.358,15.336 12.191 C 16.465 10.960,16.097 9.006,14.595 8.256 C 14.414 8.166,14.088 8.054,14.004 8.053 C 13.906 8.052,13.897 8.021,13.936 7.813 C 13.956 7.703,13.980 7.427,13.990 7.200 C 14.100 4.567,12.171 2.329,9.533 2.028 C 9.255 1.996,8.741 1.997,8.453 2.030 M2.973 6.041 C 1.658 6.252,0.577 7.173,0.175 8.426 C 0.047 8.828,0.014 9.050,0.014 9.520 C 0.015 10.135,0.124 10.581,0.406 11.124 C 0.893 12.063,1.800 12.732,2.881 12.950 C 3.086 12.991,3.458 12.996,6.980 13.006 C 9.110 13.011,10.853 13.006,10.853 12.994 C 10.853 12.983,10.634 12.754,10.366 12.486 L 9.879 12.000 6.597 12.000 C 3.098 12.000,3.093 12.000,2.719 11.871 C 2.129 11.668,1.619 11.244,1.319 10.707 C 0.933 10.016,0.913 9.105,1.270 8.392 C 1.481 7.972,1.840 7.584,2.229 7.357 C 2.651 7.112,2.913 7.038,3.413 7.023 C 3.764 7.012,3.850 7.019,4.333 7.103 C 4.627 7.153,4.876 7.189,4.887 7.182 C 4.898 7.176,4.907 7.138,4.907 7.098 C 4.907 7.040,4.808 6.927,4.400 6.520 L 3.893 6.013 3.553 6.008 C 3.358 6.005,3.111 6.019,2.973 6.041 " stroke="none" fill="black" fill-rule="evenodd"></path></svg>