<svg class="bi bi-cloud-fill" width="1em" height="1em" viewBox="0 0 16 16" fill="currentColor" xmlns="http://www.w3.org/2000/svg"><path d="M8.507 1.962 C 8.470 1.968,8.350 1.986,8.240 2.002 C 7.231 2.147,6.231 2.655,5.483 3.404 C 4.826 4.060,4.390 4.830,4.160 5.741 L 4.085 6.040 3.956 6.027 C 3.668 5.997,3.053 6.018,2.828 6.065 C 1.562 6.331,0.565 7.218,0.175 8.426 C -0.110 9.308,-0.041 10.217,0.373 11.053 C 0.869 12.053,1.786 12.741,2.908 12.952 C 3.145 12.997,3.484 13.000,8.467 13.000 C 13.502 13.000,13.785 12.998,14.000 12.951 C 14.923 12.753,15.639 12.090,15.910 11.181 C 16.008 10.849,16.026 10.356,15.953 10.000 C 15.757 9.053,15.055 8.319,14.115 8.079 C 14.003 8.050,13.908 8.024,13.905 8.020 C 13.901 8.016,13.916 7.923,13.937 7.813 C 13.958 7.703,13.985 7.457,13.997 7.267 C 14.085 5.840,13.594 4.494,12.615 3.483 C 11.848 2.691,10.962 2.217,9.863 2.010 C 9.650 1.970,8.664 1.935,8.507 1.962 " stroke="none" fill="black" fill-rule="evenodd"></path></svg>