<svg class="bi bi-command" width="1em" height="1em" viewBox="0 0 16 16" fill="currentColor" xmlns="http://www.w3.org/2000/svg"><path d="M2.987 1.053 C 2.015 1.270,1.295 1.982,1.063 2.955 C 1.016 3.153,1.009 3.245,1.020 3.587 C 1.031 3.930,1.043 4.019,1.106 4.213 C 1.411 5.154,2.138 5.795,3.087 5.960 C 3.255 5.990,3.530 6.000,4.150 6.000 L 4.987 6.000 4.987 8.000 L 4.987 10.000 4.136 10.000 C 3.236 10.000,3.030 10.020,2.680 10.139 C 1.932 10.395,1.372 10.981,1.104 11.787 C 1.034 12.000,1.029 12.041,1.028 12.480 C 1.027 12.888,1.034 12.973,1.087 13.154 C 1.339 14.023,1.977 14.662,2.846 14.913 C 3.127 14.994,3.831 15.000,4.120 14.924 C 4.368 14.858,4.802 14.648,5.007 14.494 C 5.367 14.223,5.696 13.777,5.844 13.356 C 5.979 12.977,6.000 12.771,6.000 11.850 L 6.000 11.013 8.000 11.013 L 10.000 11.013 10.000 11.850 C 10.000 12.749,10.021 12.965,10.142 13.321 C 10.398 14.072,10.979 14.627,11.787 14.896 C 12.000 14.966,12.041 14.971,12.480 14.972 C 12.888 14.973,12.973 14.966,13.154 14.913 C 14.023 14.661,14.661 14.023,14.913 13.154 C 14.966 12.973,14.973 12.888,14.972 12.480 C 14.971 12.041,14.966 12.000,14.896 11.787 C 14.628 10.980,14.071 10.397,13.323 10.143 C 12.954 10.018,12.774 10.000,11.864 10.000 L 11.013 10.000 11.013 8.000 L 11.013 6.000 11.850 6.000 C 12.749 6.000,12.965 5.979,13.321 5.858 C 14.067 5.603,14.634 5.012,14.896 4.213 C 14.966 4.001,14.971 3.957,14.972 3.520 C 14.973 3.112,14.966 3.027,14.913 2.846 C 14.661 1.975,14.025 1.339,13.154 1.087 C 12.973 1.034,12.888 1.027,12.480 1.028 C 12.041 1.029,12.000 1.034,11.787 1.104 C 10.981 1.372,10.395 1.932,10.139 2.680 C 10.020 3.030,10.000 3.236,10.000 4.136 L 10.000 4.987 8.000 4.987 L 6.000 4.987 6.000 4.150 C 6.000 3.229,5.979 3.023,5.844 2.644 C 5.696 2.224,5.368 1.779,5.006 1.505 C 4.809 1.355,4.433 1.168,4.173 1.090 C 3.927 1.016,3.248 0.995,2.987 1.053 M3.816 2.038 C 4.355 2.152,4.804 2.583,4.947 3.121 C 4.977 3.234,4.986 3.462,4.986 4.143 L 4.987 5.019 4.127 5.006 C 3.453 4.996,3.235 4.984,3.121 4.951 C 2.410 4.745,1.948 4.090,2.009 3.374 C 2.059 2.789,2.474 2.261,3.022 2.083 C 3.303 1.992,3.535 1.979,3.816 2.038 M12.962 2.077 C 13.525 2.255,13.940 2.783,13.992 3.388 C 14.053 4.092,13.554 4.781,12.853 4.961 C 12.781 4.980,12.392 4.997,11.873 5.006 L 11.013 5.019 11.013 4.147 C 11.013 3.437,11.021 3.244,11.056 3.111 C 11.188 2.595,11.643 2.158,12.171 2.038 C 12.385 1.989,12.739 2.007,12.962 2.077 M10.000 8.000 L 10.000 10.000 8.000 10.000 L 6.000 10.000 6.000 8.000 L 6.000 6.000 8.000 6.000 L 10.000 6.000 10.000 8.000 M4.986 11.873 C 4.986 12.540,4.977 12.766,4.947 12.879 C 4.763 13.570,4.088 14.052,3.388 13.992 C 2.653 13.928,2.071 13.352,2.009 12.626 C 1.949 11.926,2.409 11.256,3.080 11.063 C 3.216 11.024,3.370 11.017,4.113 11.015 L 4.987 11.013 4.986 11.873 M12.892 11.054 C 13.565 11.229,14.052 11.919,13.992 12.612 C 13.928 13.353,13.353 13.928,12.612 13.992 C 11.916 14.052,11.230 13.566,11.056 12.889 C 11.021 12.757,11.013 12.564,11.013 11.869 L 11.013 11.013 11.874 11.013 C 12.562 11.013,12.767 11.022,12.892 11.054 " stroke="none" fill="black" fill-rule="evenodd"></path></svg>