<svg class="bi bi-cup" width="1em" height="1em" viewBox="0 0 16 16" fill="currentColor" xmlns="http://www.w3.org/2000/svg"><path d="M2.987 7.460 C 2.988 10.056,2.999 12.015,3.013 12.167 C 3.062 12.668,3.252 13.073,3.599 13.413 C 3.904 13.713,4.225 13.884,4.630 13.961 C 4.930 14.019,11.070 14.019,11.370 13.961 C 11.775 13.884,12.096 13.713,12.401 13.413 C 12.834 12.988,13.010 12.497,13.013 11.702 L 13.013 11.497 13.927 11.488 C 14.964 11.477,14.974 11.476,15.340 11.234 C 15.652 11.029,15.903 10.650,15.971 10.282 C 16.011 10.065,16.011 5.939,15.971 5.718 C 15.935 5.516,15.767 5.169,15.627 5.008 C 15.497 4.858,15.220 4.671,15.000 4.584 C 14.845 4.523,14.814 4.520,13.927 4.512 L 13.013 4.503 13.013 3.758 L 13.013 3.013 8.000 3.013 L 2.987 3.013 2.987 7.460 M12.000 8.064 C 12.000 12.057,11.999 12.131,11.947 12.297 C 11.851 12.600,11.648 12.813,11.337 12.939 L 11.187 13.000 8.160 13.008 C 6.259 13.013,5.052 13.006,4.915 12.989 C 4.575 12.948,4.331 12.801,4.165 12.539 C 3.990 12.264,4.000 12.539,4.000 8.062 L 4.000 4.000 8.000 4.000 L 12.000 4.000 12.000 8.064 M14.643 5.524 C 14.782 5.571,14.876 5.648,14.934 5.761 C 14.985 5.862,14.987 5.925,14.987 8.000 C 14.987 10.075,14.985 10.138,14.934 10.239 C 14.876 10.352,14.782 10.429,14.643 10.476 C 14.583 10.496,14.293 10.507,13.783 10.507 L 13.013 10.507 13.013 8.000 L 13.013 5.493 13.783 5.493 C 14.293 5.493,14.583 5.504,14.643 5.524 " stroke="none" fill="black" fill-rule="evenodd"></path></svg>