<svg class="bi bi-diamond-half" width="1em" height="1em" viewBox="0 0 16 16" fill="currentColor" xmlns="http://www.w3.org/2000/svg"><path d="M7.760 0.017 C 7.587 0.050,7.348 0.146,7.195 0.244 C 6.953 0.398,0.397 6.956,0.242 7.198 C 0.031 7.528,-0.044 7.934,0.038 8.302 C 0.139 8.753,-0.105 8.488,3.650 12.250 C 5.871 14.474,7.108 15.695,7.211 15.763 C 7.519 15.966,7.937 16.043,8.296 15.963 C 8.562 15.904,8.749 15.813,8.958 15.640 C 9.272 15.382,15.664 8.958,15.759 8.805 C 16.044 8.348,16.071 7.828,15.836 7.333 L 15.728 7.107 12.324 3.703 C 10.022 1.401,8.878 0.276,8.790 0.225 C 8.552 0.089,8.326 0.023,8.067 0.013 C 7.935 0.008,7.797 0.010,7.760 0.017 M8.181 1.028 C 8.319 1.085,14.891 7.648,14.962 7.800 C 14.990 7.859,15.012 7.949,15.012 8.000 C 15.012 8.051,14.990 8.141,14.962 8.200 C 14.891 8.352,8.319 14.915,8.181 14.972 C 8.126 14.995,8.063 15.013,8.041 15.013 C 8.004 15.013,8.000 14.282,8.000 8.000 C 8.000 1.718,8.004 0.987,8.041 0.987 C 8.063 0.987,8.126 1.005,8.181 1.028 " stroke="none" fill="black" fill-rule="evenodd"></path></svg>