<svg class="bi bi-diamond-fill" width="1em" height="1em" viewBox="0 0 16 16" fill="currentColor" xmlns="http://www.w3.org/2000/svg"><path d="M7.760 0.017 C 7.589 0.050,7.348 0.146,7.195 0.243 C 6.967 0.387,0.395 6.964,0.241 7.202 C 0.074 7.460,0.014 7.671,0.014 8.000 C 0.014 8.329,0.073 8.535,0.243 8.805 C 0.385 9.030,6.975 15.612,7.212 15.766 C 7.452 15.921,7.692 15.987,8.013 15.986 C 8.304 15.985,8.454 15.948,8.733 15.805 C 8.872 15.735,9.353 15.265,12.271 12.349 C 14.729 9.893,15.678 8.928,15.756 8.805 C 15.927 8.537,15.986 8.330,15.986 8.000 C 15.986 7.670,15.927 7.463,15.756 7.195 C 15.611 6.968,8.982 0.335,8.790 0.225 C 8.552 0.089,8.326 0.023,8.067 0.013 C 7.935 0.008,7.797 0.010,7.760 0.017 " stroke="none" fill="black" fill-rule="evenodd"></path></svg>