<svg class="bi bi-door-closed-fill" width="1em" height="1em" viewBox="0 0 16 16" fill="currentColor" xmlns="http://www.w3.org/2000/svg"><path d="M3.645 1.066 C 3.389 1.166,3.168 1.389,3.058 1.659 L 3.000 1.800 2.993 8.407 L 2.986 15.013 2.172 15.013 C 1.272 15.013,1.276 15.013,1.124 15.186 C 1.023 15.301,1.003 15.372,1.019 15.559 C 1.033 15.736,1.132 15.877,1.290 15.949 C 1.396 15.997,1.611 15.999,8.000 15.999 C 14.389 15.999,14.604 15.997,14.710 15.949 C 14.884 15.870,14.970 15.734,14.981 15.523 C 14.989 15.367,14.982 15.334,14.918 15.236 C 14.877 15.175,14.800 15.100,14.745 15.069 C 14.651 15.016,14.609 15.013,13.830 15.013 L 13.013 15.013 13.013 8.540 C 13.012 4.371,13.003 2.000,12.986 1.880 C 12.971 1.777,12.930 1.633,12.894 1.559 C 12.808 1.383,12.612 1.190,12.428 1.099 L 12.280 1.027 8.027 1.021 C 3.918 1.016,3.769 1.017,3.645 1.066 M6.297 8.053 C 6.723 8.188,6.987 8.550,6.987 9.000 C 6.987 9.450,6.723 9.812,6.297 9.947 C 6.093 10.011,5.925 10.014,5.732 9.958 C 5.452 9.876,5.242 9.701,5.100 9.432 C 5.033 9.305,5.027 9.268,5.027 9.000 C 5.027 8.733,5.033 8.694,5.099 8.570 C 5.239 8.304,5.434 8.137,5.704 8.051 C 5.902 7.987,6.091 7.988,6.297 8.053 " stroke="none" fill="black" fill-rule="evenodd"></path></svg>