<svg class="bi bi-download" width="1em" height="1em" viewBox="0 0 16 16" fill="currentColor" xmlns="http://www.w3.org/2000/svg"><path d="M7.755 1.067 C 7.647 1.125,7.571 1.220,7.524 1.357 C 7.501 1.424,7.493 2.479,7.493 5.370 L 7.493 9.292 6.553 8.354 C 6.036 7.838,5.580 7.404,5.538 7.388 C 5.241 7.277,4.895 7.485,4.860 7.796 C 4.832 8.043,4.811 8.017,6.290 9.502 C 7.107 10.322,7.709 10.906,7.772 10.938 C 7.908 11.009,8.092 11.009,8.228 10.938 C 8.382 10.859,11.053 8.175,11.106 8.048 C 11.211 7.793,11.088 7.480,10.845 7.388 C 10.749 7.352,10.559 7.352,10.462 7.388 C 10.420 7.403,9.964 7.838,9.447 8.354 L 8.507 9.293 8.507 5.371 C 8.507 2.479,8.499 1.424,8.476 1.357 C 8.429 1.218,8.352 1.124,8.239 1.066 C 8.104 0.997,7.887 0.998,7.755 1.067 M0.307 8.037 C 0.201 8.084,0.081 8.206,0.036 8.312 C 0.007 8.382,0.000 8.755,0.000 10.294 C 0.000 12.364,0.003 12.405,0.157 12.774 C 0.350 13.235,0.765 13.650,1.226 13.843 C 1.625 14.010,1.207 14.000,8.000 14.000 C 13.536 14.000,14.211 13.996,14.394 13.958 C 15.184 13.796,15.796 13.184,15.958 12.394 C 15.994 12.219,16.000 11.919,16.000 10.314 C 16.000 9.170,15.990 8.403,15.974 8.346 C 15.944 8.239,15.784 8.070,15.672 8.028 C 15.429 7.937,15.140 8.073,15.024 8.333 C 15.011 8.363,14.994 9.263,14.987 10.333 L 14.973 12.280 14.901 12.428 C 14.810 12.612,14.617 12.808,14.441 12.894 C 14.367 12.930,14.223 12.971,14.120 12.986 C 13.864 13.022,2.136 13.022,1.880 12.986 C 1.777 12.971,1.633 12.930,1.559 12.894 C 1.383 12.808,1.190 12.612,1.099 12.428 L 1.027 12.280 1.013 10.333 C 1.006 9.263,0.989 8.363,0.976 8.333 C 0.856 8.065,0.550 7.930,0.307 8.037 " stroke="none" fill="black" fill-rule="evenodd"></path></svg>