<svg class="bi bi-emoji-dizzy" width="1em" height="1em" viewBox="0 0 16 16" fill="currentColor" xmlns="http://www.w3.org/2000/svg"><path d="M7.293 0.030 C 4.174 0.300,1.460 2.423,0.439 5.390 C -0.989 9.546,1.195 14.077,5.331 15.539 C 8.244 16.569,11.468 15.838,13.653 13.653 C 16.473 10.834,16.787 6.378,14.390 3.190 C 12.867 1.166,10.473 -0.019,7.947 0.004 C 7.734 0.006,7.440 0.018,7.293 0.030 M8.768 1.041 C 10.349 1.213,11.838 1.934,12.973 3.079 C 13.491 3.601,13.952 4.250,14.280 4.919 C 14.518 5.405,14.657 5.783,14.783 6.284 C 14.947 6.939,14.973 7.177,14.973 8.000 C 14.973 8.823,14.947 9.061,14.783 9.716 C 14.657 10.218,14.517 10.596,14.280 11.080 C 13.369 12.933,11.704 14.284,9.716 14.783 C 9.061 14.947,8.823 14.973,8.000 14.973 C 7.177 14.973,6.938 14.947,6.287 14.783 C 4.507 14.336,2.953 13.185,2.008 11.613 C 1.484 10.744,1.149 9.755,1.041 8.768 C 1.005 8.434,1.005 7.566,1.041 7.232 C 1.237 5.430,2.177 3.705,3.581 2.572 C 4.606 1.745,5.923 1.187,7.187 1.044 C 7.491 1.010,8.462 1.008,8.768 1.041 M4.388 5.018 C 4.093 5.084,3.922 5.416,4.040 5.696 C 4.061 5.749,4.237 5.952,4.431 6.149 L 4.783 6.508 4.422 6.874 C 4.031 7.269,3.983 7.350,4.007 7.563 C 4.032 7.781,4.219 7.968,4.437 7.993 C 4.650 8.017,4.731 7.969,5.126 7.578 L 5.492 7.217 5.851 7.569 C 6.048 7.763,6.251 7.939,6.304 7.960 C 6.665 8.112,7.053 7.798,6.986 7.408 C 6.962 7.268,6.871 7.150,6.521 6.801 L 6.215 6.496 6.585 6.120 C 6.911 5.789,6.957 5.731,6.979 5.626 C 7.026 5.392,6.934 5.175,6.741 5.067 C 6.628 5.003,6.433 4.991,6.307 5.040 C 6.263 5.056,6.065 5.231,5.866 5.428 L 5.505 5.786 5.186 5.464 C 4.763 5.039,4.629 4.964,4.388 5.018 M9.393 5.014 C 9.123 5.075,8.960 5.338,9.020 5.619 C 9.044 5.734,9.084 5.784,9.416 6.121 L 9.785 6.496 9.464 6.814 C 9.098 7.178,9.013 7.302,9.009 7.473 C 9.006 7.622,9.029 7.698,9.113 7.810 C 9.239 7.978,9.496 8.044,9.696 7.960 C 9.749 7.939,9.952 7.763,10.149 7.569 L 10.508 7.217 10.874 7.578 C 11.269 7.969,11.350 8.017,11.563 7.993 C 11.781 7.968,11.968 7.781,11.993 7.563 C 12.017 7.350,11.969 7.269,11.578 6.874 L 11.217 6.508 11.569 6.149 C 11.763 5.952,11.939 5.749,11.960 5.696 C 12.069 5.436,11.920 5.107,11.655 5.026 C 11.549 4.994,11.367 5.008,11.274 5.056 C 11.226 5.081,11.030 5.255,10.839 5.443 L 10.491 5.785 10.146 5.439 C 9.737 5.029,9.619 4.963,9.393 5.014 M7.507 9.064 C 7.115 9.171,6.793 9.362,6.541 9.638 C 5.924 10.314,5.829 11.254,6.297 12.046 C 6.424 12.260,6.752 12.585,6.973 12.714 C 7.076 12.774,7.256 12.857,7.373 12.898 C 7.572 12.967,7.616 12.973,8.000 12.973 C 8.384 12.973,8.428 12.967,8.627 12.898 C 8.939 12.789,9.186 12.633,9.413 12.401 C 9.713 12.096,9.884 11.775,9.961 11.370 C 10.054 10.885,9.965 10.398,9.703 9.954 C 9.576 9.740,9.248 9.415,9.027 9.286 C 8.700 9.095,8.469 9.032,8.053 9.022 C 7.762 9.015,7.658 9.023,7.507 9.064 " stroke="none" fill="black" fill-rule="evenodd"></path></svg>