<svg class="bi bi-envelope" width="1em" height="1em" viewBox="0 0 16 16" fill="currentColor" xmlns="http://www.w3.org/2000/svg"><path d="M1.600 2.042 C 1.089 2.152,0.635 2.454,0.350 2.875 C 0.215 3.075,0.175 3.155,0.087 3.404 L 0.013 3.613 0.006 7.913 C 0.000 11.551,0.005 12.240,0.037 12.393 C 0.172 13.036,0.630 13.594,1.226 13.843 C 1.625 14.010,1.207 14.000,8.000 14.000 C 13.536 14.000,14.211 13.996,14.394 13.958 C 15.182 13.796,15.797 13.183,15.963 12.393 C 15.995 12.240,16.000 11.551,15.994 7.913 L 15.987 3.613 15.913 3.404 C 15.825 3.156,15.785 3.074,15.653 2.880 C 15.443 2.571,15.112 2.298,14.774 2.157 C 14.375 1.990,14.797 2.000,7.981 2.002 C 2.765 2.004,1.746 2.010,1.600 2.042 M14.428 3.099 C 14.615 3.191,14.808 3.384,14.899 3.570 C 14.953 3.680,14.972 3.765,14.980 3.930 L 14.990 4.147 11.517 6.267 C 9.606 7.433,8.024 8.387,8.001 8.387 C 7.978 8.387,6.397 7.433,4.487 6.267 L 1.015 4.147 1.014 3.967 C 1.012 3.577,1.267 3.214,1.645 3.066 C 1.769 3.017,1.962 3.016,8.027 3.021 L 14.280 3.027 14.428 3.099 M3.425 6.787 C 4.723 7.579,5.785 8.233,5.786 8.240 C 5.786 8.247,4.740 8.895,3.460 9.679 C 2.180 10.462,1.106 11.121,1.073 11.142 L 1.013 11.179 1.013 8.254 C 1.013 6.388,1.023 5.332,1.039 5.338 C 1.053 5.343,2.127 5.995,3.425 6.787 M14.987 8.255 L 14.987 11.176 14.885 11.115 C 14.054 10.614,10.214 8.250,10.215 8.240 C 10.216 8.224,14.938 5.338,14.967 5.335 C 14.978 5.334,14.987 6.648,14.987 8.255 M7.410 9.224 C 7.723 9.416,7.990 9.573,8.002 9.573 C 8.015 9.573,8.293 9.409,8.619 9.209 C 8.946 9.009,9.225 8.845,9.240 8.845 C 9.271 8.845,14.847 12.256,14.906 12.311 C 14.941 12.343,14.939 12.362,14.884 12.465 C 14.799 12.625,14.602 12.815,14.441 12.894 C 14.367 12.930,14.223 12.971,14.120 12.986 C 13.864 13.022,2.136 13.022,1.880 12.986 C 1.644 12.952,1.459 12.862,1.301 12.705 C 1.156 12.560,1.042 12.361,1.080 12.322 C 1.095 12.308,2.379 11.517,3.933 10.564 C 5.945 9.331,6.771 8.838,6.800 8.853 C 6.822 8.865,7.096 9.032,7.410 9.224 " stroke="none" fill="black" fill-rule="evenodd"></path></svg>