<svg class="bi bi-envelope-fill" width="1em" height="1em" viewBox="0 0 16 16" fill="currentColor" xmlns="http://www.w3.org/2000/svg"><path d="M1.733 2.017 C 1.148 2.107,0.650 2.424,0.333 2.907 C 0.219 3.081,0.099 3.344,0.069 3.485 C 0.053 3.559,0.091 3.583,4.005 5.973 C 6.178 7.301,7.977 8.387,8.001 8.387 C 8.026 8.387,9.824 7.301,11.997 5.973 C 15.912 3.582,15.947 3.559,15.931 3.485 C 15.874 3.218,15.664 2.855,15.425 2.610 C 15.167 2.344,14.887 2.175,14.516 2.062 C 14.368 2.017,14.028 2.014,8.080 2.011 C 4.626 2.009,1.770 2.011,1.733 2.017 M-0.000 8.241 C -0.000 10.191,0.006 11.787,0.013 11.787 C 0.021 11.787,1.008 11.185,2.207 10.450 C 3.406 9.715,4.702 8.920,5.087 8.684 C 5.472 8.448,5.786 8.248,5.786 8.241 C 5.786 8.233,4.655 7.537,3.273 6.693 C 1.892 5.850,0.590 5.055,0.381 4.927 L -0.000 4.695 -0.000 8.241 M13.101 6.466 C 11.514 7.434,10.215 8.233,10.214 8.240 C 10.213 8.260,15.978 11.791,15.990 11.779 C 15.996 11.773,15.997 10.179,15.993 8.237 L 15.987 4.706 13.101 6.466 M3.472 10.846 L 0.186 12.860 0.257 12.983 C 0.561 13.512,1.098 13.881,1.694 13.973 C 1.823 13.993,3.782 13.999,8.120 13.993 C 14.023 13.986,14.368 13.983,14.516 13.938 C 14.874 13.829,15.171 13.653,15.416 13.407 C 15.576 13.245,15.825 12.880,15.794 12.851 C 15.747 12.806,9.264 8.844,9.238 8.844 C 9.222 8.844,8.941 9.009,8.613 9.211 C 8.109 9.521,8.008 9.573,7.960 9.552 C 7.929 9.537,7.667 9.381,7.379 9.204 C 7.091 9.027,6.833 8.871,6.807 8.857 C 6.768 8.836,6.126 9.220,3.472 10.846 " stroke="none" fill="black" fill-rule="evenodd"></path></svg>