<svg class="bi bi-exclamation-diamond-fill" width="1em" height="1em" viewBox="0 0 16 16" fill="currentColor" xmlns="http://www.w3.org/2000/svg"><path d="M7.760 0.017 C 7.587 0.050,7.348 0.146,7.195 0.244 C 6.953 0.398,0.397 6.956,0.242 7.198 C 0.031 7.528,-0.044 7.934,0.038 8.302 C 0.139 8.753,-0.105 8.488,3.650 12.250 C 5.871 14.474,7.108 15.695,7.211 15.763 C 7.519 15.966,7.937 16.043,8.296 15.963 C 8.562 15.904,8.749 15.813,8.958 15.640 C 9.272 15.382,15.664 8.958,15.759 8.805 C 16.044 8.348,16.071 7.828,15.836 7.333 L 15.728 7.107 12.324 3.703 C 10.022 1.401,8.878 0.276,8.790 0.225 C 8.552 0.089,8.326 0.023,8.067 0.013 C 7.935 0.008,7.797 0.010,7.760 0.017 M8.352 4.074 C 8.634 4.199,8.863 4.507,8.894 4.804 C 8.918 5.028,8.552 8.580,8.493 8.696 C 8.429 8.822,8.376 8.878,8.265 8.934 C 7.986 9.076,7.669 8.987,7.524 8.725 C 7.467 8.621,7.446 8.459,7.276 6.779 C 7.158 5.611,7.096 4.894,7.106 4.802 C 7.143 4.459,7.401 4.148,7.742 4.037 C 7.897 3.986,8.196 4.004,8.352 4.074 M8.433 10.103 C 8.942 10.346,9.143 10.970,8.874 11.474 C 8.593 12.002,7.890 12.157,7.407 11.800 C 6.878 11.409,6.878 10.591,7.407 10.200 C 7.702 9.982,8.101 9.945,8.433 10.103 " stroke="none" fill="black" fill-rule="evenodd"></path></svg>