<svg class="bi bi-exclamation-diamond" width="1em" height="1em" viewBox="0 0 16 16" fill="currentColor" xmlns="http://www.w3.org/2000/svg"><path d="M7.760 0.017 C 7.589 0.050,7.348 0.146,7.195 0.243 C 6.967 0.387,0.395 6.964,0.241 7.202 C 0.074 7.460,0.014 7.671,0.014 8.000 C 0.014 8.329,0.073 8.535,0.243 8.805 C 0.385 9.030,6.975 15.612,7.212 15.766 C 7.452 15.921,7.692 15.987,8.013 15.986 C 8.304 15.985,8.454 15.948,8.733 15.805 C 8.872 15.735,9.353 15.265,12.271 12.349 C 14.729 9.893,15.678 8.928,15.756 8.805 C 15.927 8.537,15.986 8.330,15.986 8.000 C 15.986 7.670,15.927 7.463,15.756 7.195 C 15.611 6.968,8.982 0.335,8.790 0.225 C 8.552 0.089,8.326 0.023,8.067 0.013 C 7.935 0.008,7.797 0.010,7.760 0.017 M8.181 1.028 C 8.319 1.085,14.891 7.648,14.962 7.800 C 14.990 7.859,15.012 7.949,15.012 8.000 C 15.012 8.051,14.990 8.141,14.962 8.200 C 14.891 8.352,8.319 14.915,8.181 14.972 C 8.055 15.024,7.945 15.024,7.819 14.972 C 7.681 14.915,1.109 8.352,1.038 8.200 C 0.977 8.070,0.974 7.950,1.028 7.819 C 1.085 7.681,7.648 1.109,7.800 1.038 C 7.930 0.977,8.050 0.974,8.181 1.028 M7.760 4.023 C 7.399 4.142,7.135 4.456,7.103 4.807 C 7.096 4.885,7.173 5.755,7.276 6.779 C 7.446 8.459,7.467 8.621,7.524 8.725 C 7.629 8.914,7.876 9.038,8.076 9.000 C 8.194 8.978,8.346 8.902,8.403 8.836 C 8.528 8.695,8.535 8.649,8.724 6.776 C 8.828 5.754,8.904 4.885,8.897 4.807 C 8.870 4.512,8.675 4.233,8.394 4.090 C 8.283 4.033,8.209 4.016,8.040 4.010 C 7.923 4.005,7.797 4.011,7.760 4.023 M7.693 10.053 C 7.273 10.194,7.013 10.555,7.013 11.000 C 7.013 11.456,7.278 11.814,7.716 11.950 C 8.165 12.090,8.653 11.889,8.874 11.474 C 9.220 10.825,8.787 10.049,8.057 10.010 C 7.902 10.002,7.815 10.012,7.693 10.053 " stroke="none" fill="black" fill-rule="evenodd"></path></svg>