<svg class="bi bi-exclamation-octagon-fill" width="1em" height="1em" viewBox="0 0 16 16" fill="currentColor" xmlns="http://www.w3.org/2000/svg"><path d="M4.680 0.053 C 4.526 0.129,0.096 4.566,0.041 4.699 C 0.005 4.787,0.000 5.179,0.000 8.004 C 0.000 11.143,0.001 11.212,0.053 11.318 C 0.128 11.473,4.563 15.903,4.699 15.959 C 4.787 15.995,5.179 16.000,8.004 16.000 C 11.143 16.000,11.212 15.999,11.318 15.947 C 11.473 15.872,15.903 11.437,15.959 11.301 C 15.995 11.213,16.000 10.821,16.000 8.000 C 16.000 5.179,15.995 4.787,15.959 4.699 C 15.903 4.563,11.473 0.128,11.318 0.053 C 11.212 0.001,11.143 0.000,7.998 0.000 C 4.849 0.000,4.785 0.001,4.680 0.053 M8.381 4.090 C 8.551 4.173,8.756 4.380,8.828 4.543 C 8.856 4.606,8.885 4.723,8.894 4.802 C 8.918 5.028,8.552 8.579,8.493 8.696 C 8.429 8.822,8.376 8.878,8.265 8.934 C 7.986 9.076,7.669 8.987,7.524 8.725 C 7.467 8.621,7.446 8.459,7.276 6.779 C 7.158 5.611,7.096 4.894,7.106 4.802 C 7.143 4.459,7.401 4.148,7.742 4.037 C 7.916 3.980,8.206 4.004,8.381 4.090 M8.433 10.103 C 8.942 10.346,9.143 10.970,8.874 11.474 C 8.593 12.002,7.890 12.157,7.407 11.800 C 6.878 11.409,6.878 10.591,7.407 10.200 C 7.702 9.982,8.101 9.945,8.433 10.103 " stroke="none" fill="black" fill-rule="evenodd"></path></svg>