<svg class="bi bi-eye" width="1em" height="1em" viewBox="0 0 16 16" fill="currentColor" xmlns="http://www.w3.org/2000/svg"><path d="M7.413 2.523 C 6.010 2.686,4.863 3.123,3.680 3.944 C 2.352 4.865,0.997 6.336,0.096 7.833 L -0.004 8.000 0.096 8.167 C 0.694 9.160,1.605 10.281,2.444 11.055 C 3.996 12.485,5.545 13.256,7.272 13.457 C 7.715 13.508,8.553 13.494,8.987 13.428 C 10.346 13.220,11.644 12.621,12.893 11.625 C 14.013 10.732,15.053 9.541,15.877 8.207 L 16.005 8.001 15.904 7.834 C 15.597 7.324,15.089 6.618,14.669 6.120 C 13.149 4.316,11.433 3.150,9.653 2.709 C 9.057 2.562,8.804 2.531,8.120 2.521 C 7.783 2.516,7.465 2.517,7.413 2.523 M8.823 3.561 C 10.093 3.747,11.341 4.358,12.547 5.383 C 13.242 5.974,14.084 6.917,14.652 7.740 L 14.831 8.000 14.652 8.260 C 13.196 10.372,11.250 11.875,9.383 12.330 C 8.508 12.543,7.549 12.549,6.677 12.346 C 4.806 11.910,2.883 10.444,1.388 8.314 L 1.168 8.001 1.348 7.741 C 2.397 6.220,3.801 4.919,5.133 4.236 C 5.968 3.807,6.708 3.592,7.627 3.510 C 7.849 3.490,8.537 3.520,8.823 3.561 M7.440 4.544 C 6.887 4.643,6.316 4.888,5.890 5.211 C 5.227 5.713,4.753 6.458,4.574 7.280 C 4.514 7.554,4.492 8.177,4.531 8.457 C 4.608 9.002,4.840 9.593,5.146 10.022 C 5.653 10.736,6.431 11.242,7.315 11.433 C 7.621 11.499,8.379 11.499,8.685 11.433 C 9.752 11.202,10.622 10.543,11.104 9.600 C 11.395 9.032,11.507 8.524,11.484 7.880 C 11.464 7.296,11.365 6.909,11.104 6.400 C 10.628 5.468,9.760 4.803,8.720 4.573 C 8.449 4.514,7.708 4.497,7.440 4.544 M8.529 5.559 C 9.296 5.721,9.987 6.290,10.295 7.012 C 10.558 7.632,10.558 8.368,10.295 8.988 C 10.054 9.552,9.552 10.054,8.988 10.295 C 8.368 10.558,7.632 10.558,7.012 10.295 C 6.428 10.046,5.919 9.524,5.682 8.929 C 5.555 8.612,5.512 8.376,5.512 8.000 C 5.512 7.299,5.746 6.731,6.239 6.239 C 6.655 5.822,7.099 5.608,7.747 5.510 C 7.888 5.489,8.327 5.516,8.529 5.559 " stroke="none" fill="black" fill-rule="evenodd"></path></svg>