<svg class="bi bi-file-post" width="1em" height="1em" viewBox="0 0 16 16" fill="currentColor" xmlns="http://www.w3.org/2000/svg"><path d="M3.507 1.066 C 2.743 1.269,2.185 1.863,2.039 2.630 C 1.981 2.932,1.981 13.068,2.039 13.370 C 2.116 13.775,2.287 14.096,2.587 14.401 C 2.927 14.748,3.332 14.938,3.833 14.987 C 4.178 15.020,11.822 15.020,12.167 14.987 C 12.668 14.938,13.073 14.748,13.413 14.401 C 13.713 14.096,13.884 13.775,13.961 13.370 C 14.019 13.068,14.019 2.932,13.961 2.630 C 13.884 2.225,13.713 1.904,13.413 1.599 C 13.186 1.367,12.939 1.211,12.627 1.102 L 12.413 1.027 8.053 1.021 C 3.877 1.016,3.685 1.018,3.507 1.066 M12.297 2.053 C 12.600 2.149,12.821 2.359,12.932 2.657 C 12.986 2.801,12.987 2.840,12.987 8.000 C 12.987 13.160,12.986 13.199,12.932 13.343 C 12.821 13.641,12.600 13.851,12.297 13.947 C 12.131 13.999,12.057 14.000,8.002 14.000 C 3.454 14.000,3.736 14.010,3.461 13.835 C 3.306 13.737,3.196 13.614,3.100 13.432 L 3.027 13.293 3.027 8.000 L 3.027 2.707 3.099 2.570 C 3.239 2.304,3.434 2.137,3.704 2.051 C 3.845 2.006,4.092 2.003,7.991 2.001 C 12.059 2.000,12.131 2.001,12.297 2.053 M4.280 3.055 C 4.160 3.118,4.104 3.176,4.050 3.293 C 3.995 3.414,3.986 3.560,4.028 3.672 C 4.070 3.784,4.239 3.944,4.346 3.974 C 4.476 4.010,9.527 4.009,9.657 3.973 C 9.803 3.932,9.965 3.744,9.988 3.587 C 10.022 3.362,9.915 3.148,9.723 3.057 C 9.641 3.018,9.370 3.013,6.996 3.013 C 4.658 3.014,4.351 3.018,4.280 3.055 M4.280 5.055 C 4.160 5.118,4.104 5.176,4.050 5.293 C 4.003 5.395,4.001 5.563,4.001 9.000 C 4.001 12.459,4.003 12.604,4.051 12.710 C 4.116 12.854,4.251 12.953,4.426 12.987 C 4.619 13.023,11.381 13.023,11.574 12.987 C 11.749 12.953,11.884 12.854,11.949 12.710 C 11.997 12.604,11.999 12.459,11.999 9.000 C 11.999 5.541,11.997 5.396,11.949 5.290 C 11.922 5.230,11.854 5.146,11.798 5.104 L 11.697 5.027 8.029 5.020 C 4.739 5.014,4.352 5.018,4.280 5.055 " stroke="none" fill="black" fill-rule="evenodd"></path></svg>