<svg class="bi bi-file-earmark-check" width="1em" height="1em" viewBox="0 0 16 16" fill="currentColor" xmlns="http://www.w3.org/2000/svg"><path d="M3.507 1.066 C 2.744 1.268,2.185 1.863,2.039 2.630 C 1.981 2.932,1.981 13.068,2.039 13.370 C 2.116 13.775,2.287 14.096,2.587 14.401 C 2.939 14.760,3.335 14.941,3.875 14.989 C 4.054 15.005,5.139 15.012,6.587 15.008 L 9.000 15.000 9.007 14.500 L 9.015 14.000 6.445 14.000 C 3.617 14.000,3.730 14.006,3.461 13.835 C 3.306 13.737,3.196 13.614,3.100 13.432 L 3.027 13.293 3.027 8.000 L 3.027 2.707 3.100 2.568 C 3.196 2.386,3.306 2.263,3.461 2.165 C 3.730 1.994,3.619 2.000,6.429 2.000 L 8.982 2.000 8.994 3.367 C 9.004 4.561,9.011 4.754,9.052 4.893 C 9.206 5.427,9.653 5.849,10.184 5.962 C 10.321 5.991,10.650 5.999,11.673 6.000 L 12.987 6.000 12.987 7.000 L 12.987 8.000 13.493 8.000 L 14.000 8.000 14.000 6.993 L 14.000 5.987 11.513 3.500 L 9.027 1.013 6.360 1.015 C 3.851 1.016,3.682 1.019,3.507 1.066 M15.307 10.041 C 15.249 10.066,14.690 10.604,13.860 11.434 L 12.507 12.786 11.914 12.194 C 11.177 11.461,11.085 11.409,10.785 11.560 C 10.622 11.642,10.529 11.772,10.513 11.944 C 10.489 12.195,10.505 12.218,11.342 13.060 C 11.769 13.489,12.163 13.872,12.218 13.910 C 12.338 13.993,12.514 14.019,12.657 13.974 C 12.740 13.947,13.067 13.635,14.340 12.364 C 16.046 10.662,16.022 10.690,15.993 10.440 C 15.957 10.121,15.598 9.911,15.307 10.041 " stroke="none" fill="black" fill-rule="evenodd"></path></svg>