<svg class="bi bi-file-check" width="1em" height="1em" viewBox="0 0 16 16" fill="currentColor" xmlns="http://www.w3.org/2000/svg"><path d="M3.507 1.066 C 2.744 1.268,2.185 1.863,2.039 2.630 C 1.981 2.932,1.981 13.068,2.039 13.370 C 2.116 13.775,2.287 14.096,2.587 14.401 C 2.927 14.748,3.332 14.938,3.833 14.987 C 4.178 15.020,11.822 15.020,12.167 14.987 C 12.668 14.938,13.073 14.748,13.413 14.401 C 13.626 14.185,13.751 13.996,13.858 13.733 C 14.000 13.381,14.000 13.374,14.000 10.584 L 14.000 8.000 13.493 8.000 L 12.987 8.000 12.987 10.599 C 12.987 13.147,12.986 13.201,12.932 13.343 C 12.821 13.641,12.600 13.851,12.297 13.947 C 12.131 13.999,12.057 14.000,8.002 14.000 C 3.454 14.000,3.736 14.010,3.461 13.835 C 3.306 13.737,3.196 13.614,3.100 13.432 L 3.027 13.293 3.027 8.000 L 3.027 2.707 3.100 2.568 C 3.196 2.386,3.306 2.263,3.461 2.165 C 3.730 1.994,3.617 2.000,6.445 2.000 L 9.013 2.000 9.013 1.507 L 9.013 1.013 6.353 1.015 C 3.851 1.016,3.682 1.019,3.507 1.066 M15.307 2.041 C 15.249 2.066,14.690 2.604,13.860 3.434 L 12.507 4.786 11.914 4.194 C 11.177 3.461,11.085 3.409,10.785 3.560 C 10.622 3.642,10.529 3.772,10.513 3.944 C 10.489 4.195,10.505 4.218,11.342 5.060 C 11.769 5.489,12.163 5.872,12.218 5.910 C 12.338 5.993,12.514 6.019,12.657 5.974 C 12.740 5.947,13.067 5.635,14.340 4.364 C 16.046 2.662,16.022 2.690,15.993 2.440 C 15.957 2.121,15.598 1.911,15.307 2.041 " stroke="none" fill="black" fill-rule="evenodd"></path></svg>