<svg class="bi bi-file-ruled" width="1em" height="1em" viewBox="0 0 16 16" fill="currentColor" xmlns="http://www.w3.org/2000/svg"><path d="M3.507 1.066 C 2.743 1.269,2.185 1.863,2.039 2.630 C 1.981 2.932,1.981 13.068,2.039 13.370 C 2.116 13.775,2.287 14.096,2.587 14.401 C 2.927 14.748,3.332 14.938,3.833 14.987 C 4.178 15.020,11.822 15.020,12.167 14.987 C 12.668 14.938,13.073 14.748,13.413 14.401 C 13.713 14.096,13.884 13.775,13.961 13.370 C 14.019 13.068,14.019 2.932,13.961 2.630 C 13.884 2.225,13.713 1.904,13.413 1.599 C 13.186 1.367,12.939 1.211,12.627 1.102 L 12.413 1.027 8.053 1.021 C 3.877 1.016,3.685 1.018,3.507 1.066 M12.297 2.053 C 12.600 2.149,12.821 2.359,12.932 2.657 C 12.984 2.794,12.987 2.861,12.987 3.894 L 12.987 4.987 7.999 4.987 L 3.011 4.987 3.019 3.847 L 3.027 2.707 3.099 2.570 C 3.239 2.304,3.434 2.137,3.704 2.051 C 3.845 2.006,4.092 2.003,7.991 2.001 C 12.059 2.000,12.131 2.001,12.297 2.053 M4.987 7.000 L 4.987 8.000 4.000 8.000 L 3.013 8.000 3.013 7.000 L 3.013 6.000 4.000 6.000 L 4.987 6.000 4.987 7.000 M12.987 7.000 L 12.987 8.000 9.493 8.000 L 6.000 8.000 6.000 7.000 L 6.000 6.000 9.493 6.000 L 12.987 6.000 12.987 7.000 M4.987 10.000 L 4.987 10.987 4.000 10.987 L 3.013 10.987 3.013 10.000 L 3.013 9.013 4.000 9.013 L 4.987 9.013 4.987 10.000 M12.987 10.000 L 12.987 10.987 9.493 10.987 L 6.000 10.987 6.000 10.000 L 6.000 9.013 9.493 9.013 L 12.987 9.013 12.987 10.000 M4.987 13.000 L 4.987 14.000 4.432 14.000 C 3.816 14.000,3.685 13.978,3.461 13.835 C 3.306 13.737,3.196 13.614,3.100 13.432 C 3.027 13.293,3.027 13.293,3.018 12.647 L 3.010 12.000 3.998 12.000 L 4.987 12.000 4.987 13.000 M12.987 12.599 C 12.987 13.136,12.981 13.213,12.932 13.343 C 12.821 13.641,12.600 13.851,12.297 13.947 C 12.132 13.999,12.056 14.000,9.064 14.000 L 6.000 14.000 6.000 13.000 L 6.000 12.000 9.493 12.000 L 12.987 12.000 12.987 12.599 " stroke="none" fill="black" fill-rule="evenodd"></path></svg>