<svg class="bi bi-file-earmark-spreadsheet" width="1em" height="1em" viewBox="0 0 16 16" fill="currentColor" xmlns="http://www.w3.org/2000/svg"><path d="M3.507 1.066 C 2.744 1.268,2.185 1.863,2.039 2.630 C 1.981 2.932,1.981 13.068,2.039 13.370 C 2.116 13.775,2.287 14.096,2.587 14.401 C 2.927 14.748,3.332 14.938,3.833 14.987 C 4.178 15.020,11.822 15.020,12.167 14.987 C 12.668 14.938,13.073 14.748,13.413 14.401 C 13.626 14.185,13.751 13.996,13.858 13.733 C 14.003 13.373,14.000 13.461,14.000 9.578 L 14.000 5.987 11.513 3.500 L 9.027 1.013 6.360 1.015 C 3.851 1.016,3.682 1.019,3.507 1.066 M8.994 3.367 C 9.004 4.561,9.011 4.754,9.052 4.893 C 9.206 5.427,9.653 5.849,10.184 5.962 C 10.321 5.991,10.650 5.999,11.673 6.000 L 12.987 6.000 12.987 7.000 L 12.987 8.000 7.999 8.000 L 3.012 8.000 3.019 5.353 L 3.027 2.707 3.099 2.570 C 3.239 2.304,3.434 2.137,3.704 2.051 C 3.843 2.006,4.030 2.003,6.418 2.001 L 8.982 2.000 8.994 3.367 M4.987 10.000 L 4.987 10.987 4.000 10.987 L 3.013 10.987 3.013 10.000 L 3.013 9.013 4.000 9.013 L 4.987 9.013 4.987 10.000 M8.987 10.000 L 8.987 10.987 7.493 10.987 L 6.000 10.987 6.000 10.000 L 6.000 9.013 7.493 9.013 L 8.987 9.013 8.987 10.000 M12.987 10.000 L 12.987 10.987 11.493 10.987 L 10.000 10.987 10.000 10.000 L 10.000 9.013 11.493 9.013 L 12.987 9.013 12.987 10.000 M4.987 13.000 L 4.987 14.000 4.432 14.000 C 3.816 14.000,3.685 13.978,3.461 13.835 C 3.306 13.737,3.196 13.614,3.100 13.432 C 3.027 13.293,3.027 13.293,3.018 12.647 L 3.010 12.000 3.998 12.000 L 4.987 12.000 4.987 13.000 M8.987 13.000 L 8.987 14.000 7.493 14.000 L 6.000 14.000 6.000 13.000 L 6.000 12.000 7.493 12.000 L 8.987 12.000 8.987 13.000 M12.987 12.599 C 12.987 13.136,12.981 13.213,12.932 13.343 C 12.821 13.641,12.600 13.851,12.297 13.947 C 12.139 13.996,12.054 14.000,11.064 14.000 L 10.000 14.000 10.000 13.000 L 10.000 12.000 11.493 12.000 L 12.987 12.000 12.987 12.599 " stroke="none" fill="black" fill-rule="evenodd"></path></svg>