<svg class="bi bi-files-alt" width="1em" height="1em" viewBox="0 0 16 16" fill="currentColor" xmlns="http://www.w3.org/2000/svg"><path d="M2.520 1.056 C 2.432 1.078,2.252 1.148,2.120 1.212 C 1.714 1.410,1.411 1.713,1.212 2.120 C 0.981 2.594,1.000 2.059,1.000 8.000 C 1.000 13.905,0.983 13.398,1.196 13.850 C 1.387 14.257,1.716 14.590,2.120 14.786 C 2.600 15.018,2.182 15.000,7.000 15.000 C 11.075 15.000,11.275 14.998,11.453 14.950 C 12.300 14.725,12.917 14.021,12.983 13.203 L 13.000 13.000 13.203 12.983 C 13.873 12.929,14.511 12.478,14.802 11.853 C 15.014 11.397,15.000 11.665,15.000 8.000 C 15.000 4.335,15.014 4.603,14.802 4.147 C 14.512 3.524,13.877 3.073,13.214 3.018 L 13.000 3.000 12.983 2.797 C 12.918 1.986,12.271 1.245,11.464 1.054 C 11.213 0.995,2.766 0.997,2.520 1.056 M11.413 2.096 C 11.633 2.201,11.797 2.366,11.903 2.587 L 11.987 2.760 11.987 8.000 L 11.987 13.240 11.903 13.413 C 11.797 13.634,11.633 13.799,11.413 13.904 L 11.240 13.987 7.000 13.987 L 2.760 13.987 2.597 13.911 C 2.391 13.816,2.186 13.610,2.088 13.400 L 2.013 13.240 2.013 8.000 L 2.013 2.760 2.088 2.600 C 2.217 2.324,2.490 2.095,2.767 2.029 C 2.823 2.015,4.674 2.007,7.053 2.009 L 11.240 2.013 11.413 2.096 M13.427 4.105 C 13.632 4.200,13.798 4.368,13.903 4.587 L 13.987 4.760 13.987 8.000 L 13.987 11.240 13.903 11.413 C 13.857 11.509,13.767 11.639,13.703 11.704 C 13.570 11.838,13.325 11.962,13.140 11.988 L 13.013 12.006 13.013 8.000 L 13.013 3.994 13.140 4.012 C 13.210 4.022,13.339 4.064,13.427 4.105 " stroke="none" fill="black" fill-rule="evenodd"></path></svg>