<svg class="bi bi-file-earmark-break" width="1em" height="1em" viewBox="0 0 16 16" fill="currentColor" xmlns="http://www.w3.org/2000/svg"><path d="M3.507 1.066 C 2.874 1.233,2.386 1.663,2.142 2.267 C 1.998 2.623,2.000 2.582,2.000 5.923 L 2.000 9.015 2.500 9.007 L 3.000 9.000 3.013 5.853 L 3.027 2.707 3.100 2.568 C 3.196 2.386,3.306 2.263,3.461 2.165 C 3.730 1.994,3.619 2.000,6.429 2.000 L 8.982 2.000 8.994 3.367 C 9.004 4.561,9.011 4.754,9.052 4.893 C 9.206 5.427,9.653 5.849,10.184 5.962 C 10.321 5.991,10.650 5.999,11.673 6.000 L 12.986 6.000 12.993 7.500 L 13.000 9.000 13.500 9.007 L 14.000 9.015 14.000 7.501 L 14.000 5.987 11.513 3.500 L 9.027 1.013 6.360 1.015 C 3.851 1.016,3.682 1.019,3.507 1.066 M0.307 10.037 C 0.129 10.116,-0.001 10.311,0.001 10.499 C 0.002 10.742,0.177 10.940,0.430 10.987 C 0.526 11.005,3.148 11.012,8.094 11.007 C 15.377 11.000,15.616 10.998,15.714 10.950 C 16.012 10.802,16.090 10.423,15.871 10.181 C 15.817 10.121,15.735 10.056,15.688 10.036 C 15.561 9.983,0.427 9.984,0.307 10.037 M2.000 12.584 C 2.000 13.219,2.029 13.452,2.142 13.733 C 2.249 13.996,2.374 14.185,2.587 14.401 C 2.927 14.748,3.332 14.938,3.833 14.987 C 4.178 15.020,11.822 15.020,12.167 14.987 C 12.668 14.938,13.073 14.748,13.413 14.401 C 13.626 14.185,13.751 13.996,13.858 13.733 C 13.971 13.452,14.000 13.219,14.000 12.584 L 14.000 12.000 13.493 12.000 L 12.987 12.000 12.987 12.599 C 12.987 13.136,12.981 13.213,12.932 13.343 C 12.821 13.641,12.600 13.851,12.297 13.947 C 12.131 13.999,12.057 14.000,8.002 14.000 C 3.454 14.000,3.736 14.010,3.461 13.835 C 3.306 13.737,3.196 13.614,3.100 13.432 C 3.027 13.293,3.027 13.293,3.018 12.647 L 3.010 12.000 2.505 12.000 L 2.000 12.000 2.000 12.584 " stroke="none" fill="black" fill-rule="evenodd"></path></svg>