<svg class="bi bi-file-earmark-text" width="1em" height="1em" viewBox="0 0 16 16" fill="currentColor" xmlns="http://www.w3.org/2000/svg"><path d="M3.507 1.066 C 2.744 1.268,2.185 1.863,2.039 2.630 C 1.981 2.932,1.981 13.068,2.039 13.370 C 2.116 13.775,2.287 14.096,2.587 14.401 C 2.927 14.748,3.332 14.938,3.833 14.987 C 4.178 15.020,11.822 15.020,12.167 14.987 C 12.668 14.938,13.073 14.748,13.413 14.401 C 13.626 14.185,13.751 13.996,13.858 13.733 C 14.003 13.373,14.000 13.461,14.000 9.578 L 14.000 5.987 11.513 3.500 L 9.027 1.013 6.360 1.015 C 3.851 1.016,3.682 1.019,3.507 1.066 M8.994 3.367 C 9.004 4.561,9.011 4.754,9.052 4.893 C 9.206 5.427,9.653 5.849,10.184 5.962 C 10.321 5.991,10.650 5.999,11.673 6.000 L 12.987 6.000 12.987 9.599 C 12.987 13.152,12.986 13.200,12.932 13.343 C 12.821 13.641,12.600 13.851,12.297 13.947 C 12.131 13.999,12.057 14.000,8.002 14.000 C 3.454 14.000,3.736 14.010,3.461 13.835 C 3.306 13.737,3.196 13.614,3.100 13.432 L 3.027 13.293 3.027 8.000 L 3.027 2.707 3.099 2.570 C 3.239 2.304,3.434 2.137,3.704 2.051 C 3.843 2.006,4.030 2.003,6.418 2.001 L 8.982 2.000 8.994 3.367 M5.266 7.063 C 5.162 7.126,5.045 7.265,5.023 7.350 C 5.014 7.386,5.012 7.480,5.019 7.559 C 5.033 7.736,5.132 7.877,5.290 7.949 C 5.395 7.997,5.518 7.999,8.000 7.999 C 10.482 7.999,10.605 7.997,10.710 7.949 C 10.884 7.870,10.970 7.734,10.981 7.523 C 10.989 7.367,10.982 7.334,10.918 7.236 C 10.877 7.175,10.800 7.100,10.745 7.069 C 10.646 7.014,10.636 7.013,7.996 7.013 C 5.463 7.014,5.343 7.016,5.266 7.063 M5.266 9.063 C 5.162 9.126,5.045 9.265,5.023 9.350 C 5.014 9.386,5.012 9.480,5.019 9.559 C 5.033 9.736,5.132 9.877,5.290 9.949 C 5.395 9.997,5.518 9.999,8.000 9.999 C 10.482 9.999,10.605 9.997,10.710 9.949 C 10.884 9.870,10.970 9.734,10.981 9.523 C 10.989 9.367,10.982 9.334,10.918 9.236 C 10.877 9.175,10.800 9.100,10.745 9.069 C 10.646 9.014,10.636 9.013,7.996 9.013 C 5.463 9.014,5.343 9.016,5.266 9.063 M5.266 11.063 C 5.162 11.126,5.045 11.265,5.023 11.350 C 4.989 11.487,5.028 11.699,5.106 11.801 C 5.255 11.997,5.266 11.999,6.480 11.999 C 7.127 12.000,7.599 11.989,7.657 11.973 C 7.803 11.932,7.965 11.744,7.988 11.587 C 8.022 11.362,7.915 11.148,7.723 11.057 C 7.643 11.019,7.487 11.013,6.489 11.013 C 5.423 11.014,5.341 11.017,5.266 11.063 " stroke="none" fill="black" fill-rule="evenodd"></path></svg>