<svg class="bi bi-file-earmark-diff" width="1em" height="1em" viewBox="0 0 16 16" fill="currentColor" xmlns="http://www.w3.org/2000/svg"><path d="M3.507 1.066 C 2.744 1.268,2.185 1.863,2.039 2.630 C 1.981 2.932,1.981 13.068,2.039 13.370 C 2.116 13.775,2.287 14.096,2.587 14.401 C 2.927 14.748,3.332 14.938,3.833 14.987 C 4.178 15.020,11.822 15.020,12.167 14.987 C 12.668 14.938,13.073 14.748,13.413 14.401 C 13.626 14.185,13.751 13.996,13.858 13.733 C 14.003 13.373,14.000 13.461,14.000 9.578 L 14.000 5.987 11.513 3.500 L 9.027 1.013 6.360 1.015 C 3.851 1.016,3.682 1.019,3.507 1.066 M8.994 3.367 C 9.004 4.561,9.011 4.754,9.052 4.893 C 9.206 5.427,9.653 5.849,10.184 5.962 C 10.321 5.991,10.650 5.999,11.673 6.000 L 12.987 6.000 12.987 9.599 C 12.987 13.152,12.986 13.200,12.932 13.343 C 12.821 13.641,12.600 13.851,12.297 13.947 C 12.131 13.999,12.057 14.000,8.002 14.000 C 3.454 14.000,3.736 14.010,3.461 13.835 C 3.306 13.737,3.196 13.614,3.100 13.432 L 3.027 13.293 3.027 8.000 L 3.027 2.707 3.099 2.570 C 3.239 2.304,3.434 2.137,3.704 2.051 C 3.843 2.006,4.030 2.003,6.418 2.001 L 8.982 2.000 8.994 3.367 M7.755 5.067 C 7.647 5.125,7.571 5.220,7.524 5.357 C 7.504 5.418,7.493 5.710,7.493 6.231 L 7.493 7.013 6.679 7.013 C 5.920 7.013,5.857 7.017,5.761 7.066 C 5.402 7.249,5.425 7.780,5.799 7.950 C 5.896 7.994,5.988 7.999,6.700 7.999 L 7.493 8.000 7.493 8.767 C 7.494 9.212,7.505 9.575,7.521 9.633 C 7.577 9.833,7.793 9.999,8.000 9.999 C 8.207 9.999,8.423 9.833,8.479 9.633 C 8.495 9.575,8.506 9.212,8.507 8.767 L 8.507 8.000 9.300 7.999 C 10.012 7.999,10.104 7.994,10.201 7.950 C 10.575 7.780,10.598 7.249,10.239 7.066 C 10.143 7.017,10.080 7.013,9.321 7.013 L 8.507 7.013 8.507 6.231 C 8.507 5.424,8.498 5.342,8.394 5.193 C 8.275 5.022,7.959 4.960,7.755 5.067 M5.755 11.067 C 5.402 11.254,5.428 11.782,5.799 11.950 C 5.901 11.996,6.026 11.999,8.000 11.999 C 9.974 11.999,10.099 11.996,10.201 11.950 C 10.575 11.780,10.598 11.249,10.239 11.066 C 10.138 11.015,10.076 11.013,7.994 11.015 C 5.929 11.016,5.850 11.018,5.755 11.067 " stroke="none" fill="black" fill-rule="evenodd"></path></svg>