<svg class="bi bi-file-earmark-minus" width="1em" height="1em" viewBox="0 0 16 16" fill="currentColor" xmlns="http://www.w3.org/2000/svg"><path d="M3.507 1.066 C 2.744 1.268,2.185 1.863,2.039 2.630 C 1.981 2.932,1.981 13.068,2.039 13.370 C 2.116 13.775,2.287 14.096,2.587 14.401 C 2.939 14.760,3.335 14.941,3.875 14.989 C 4.054 15.005,5.139 15.012,6.587 15.008 L 9.000 15.000 9.007 14.500 L 9.015 14.000 6.445 14.000 C 3.617 14.000,3.730 14.006,3.461 13.835 C 3.306 13.737,3.196 13.614,3.100 13.432 L 3.027 13.293 3.027 8.000 L 3.027 2.707 3.100 2.568 C 3.196 2.386,3.306 2.263,3.461 2.165 C 3.730 1.994,3.619 2.000,6.429 2.000 L 8.982 2.000 8.994 3.367 C 9.004 4.561,9.011 4.754,9.052 4.893 C 9.206 5.427,9.653 5.849,10.184 5.962 C 10.321 5.991,10.650 5.999,11.673 6.000 L 12.987 6.000 12.987 7.000 L 12.987 8.000 13.493 8.000 L 14.000 8.000 14.000 6.993 L 14.000 5.987 11.513 3.500 L 9.027 1.013 6.360 1.015 C 3.851 1.016,3.682 1.019,3.507 1.066 M11.266 11.063 C 11.162 11.126,11.045 11.265,11.023 11.350 C 11.014 11.386,11.012 11.480,11.019 11.559 C 11.033 11.736,11.132 11.877,11.290 11.949 C 11.394 11.996,11.506 11.999,13.480 11.999 C 14.800 12.000,15.595 11.990,15.657 11.973 C 15.803 11.932,15.965 11.744,15.988 11.587 C 16.022 11.362,15.915 11.148,15.723 11.057 C 15.641 11.018,15.409 11.013,13.489 11.013 C 11.449 11.014,11.343 11.016,11.266 11.063 " stroke="none" fill="black" fill-rule="evenodd"></path></svg>