<svg class="bi bi-file" width="1em" height="1em" viewBox="0 0 16 16" fill="currentColor" xmlns="http://www.w3.org/2000/svg"><path d="M3.507 1.066 C 2.743 1.269,2.185 1.863,2.039 2.630 C 1.981 2.932,1.981 13.068,2.039 13.370 C 2.116 13.775,2.287 14.096,2.587 14.401 C 2.927 14.748,3.332 14.938,3.833 14.987 C 4.178 15.020,11.822 15.020,12.167 14.987 C 12.668 14.938,13.073 14.748,13.413 14.401 C 13.713 14.096,13.884 13.775,13.961 13.370 C 14.019 13.068,14.019 2.932,13.961 2.630 C 13.884 2.225,13.713 1.904,13.413 1.599 C 13.186 1.367,12.939 1.211,12.627 1.102 L 12.413 1.027 8.053 1.021 C 3.877 1.016,3.685 1.018,3.507 1.066 M12.297 2.053 C 12.600 2.149,12.821 2.359,12.932 2.657 C 12.986 2.801,12.987 2.840,12.987 8.000 C 12.987 13.160,12.986 13.199,12.932 13.343 C 12.821 13.641,12.600 13.851,12.297 13.947 C 12.131 13.999,12.057 14.000,8.002 14.000 C 3.454 14.000,3.736 14.010,3.461 13.835 C 3.306 13.737,3.196 13.614,3.100 13.432 L 3.027 13.293 3.027 8.000 L 3.027 2.707 3.099 2.570 C 3.239 2.304,3.434 2.137,3.704 2.051 C 3.845 2.006,4.092 2.003,7.991 2.001 C 12.059 2.000,12.131 2.001,12.297 2.053 " stroke="none" fill="black" fill-rule="evenodd"></path></svg>