<svg class="bi bi-folder-check" width="1em" height="1em" viewBox="0 0 16 16" fill="currentColor" xmlns="http://www.w3.org/2000/svg"><path d="M2.003 1.068 C 1.341 1.241,0.829 1.721,0.595 2.387 C 0.521 2.598,0.520 2.607,0.520 3.240 L 0.520 3.880 0.408 4.107 C 0.279 4.369,0.219 4.582,0.198 4.858 C 0.179 5.106,0.832 12.280,0.895 12.516 C 1.075 13.193,1.603 13.723,2.311 13.938 C 2.456 13.982,2.696 13.985,5.740 13.993 L 9.013 14.001 9.013 13.507 L 9.013 13.013 5.953 13.013 C 4.065 13.012,2.823 13.002,2.710 12.986 C 2.467 12.951,2.324 12.884,2.159 12.729 C 2.008 12.588,1.913 12.442,1.869 12.280 C 1.833 12.152,1.200 5.240,1.200 4.982 C 1.200 4.547,1.490 4.168,1.918 4.042 C 2.049 4.004,2.655 4.000,8.002 4.000 C 13.850 4.000,13.944 4.001,14.111 4.053 C 14.521 4.181,14.800 4.559,14.800 4.989 C 14.800 5.121,14.587 7.574,14.548 7.887 L 14.534 8.000 15.037 8.000 L 15.541 8.000 15.557 7.860 C 15.645 7.099,15.815 4.996,15.802 4.841 C 15.726 3.984,15.131 3.277,14.308 3.067 C 14.107 3.016,14.014 3.013,12.029 3.013 C 9.877 3.013,9.516 2.999,9.224 2.904 C 8.836 2.777,8.719 2.692,8.093 2.079 C 7.434 1.434,7.295 1.320,7.012 1.190 C 6.613 1.008,6.695 1.013,4.332 1.015 C 2.312 1.016,2.190 1.019,2.003 1.068 M6.560 2.079 C 6.672 2.129,6.809 2.243,7.133 2.557 C 7.368 2.784,7.564 2.980,7.569 2.992 C 7.574 3.004,6.302 3.014,4.742 3.014 C 1.857 3.014,1.777 3.017,1.536 3.109 C 1.488 3.128,1.486 3.119,1.501 2.956 C 1.543 2.507,1.831 2.147,2.238 2.036 C 2.331 2.011,2.836 2.004,4.387 2.008 L 6.413 2.013 6.560 2.079 M15.307 10.041 C 15.249 10.066,14.690 10.604,13.860 11.434 L 12.507 12.786 11.914 12.194 C 11.177 11.461,11.085 11.409,10.785 11.560 C 10.622 11.642,10.529 11.772,10.513 11.944 C 10.489 12.195,10.505 12.218,11.342 13.060 C 11.769 13.489,12.163 13.872,12.218 13.910 C 12.338 13.993,12.514 14.019,12.657 13.974 C 12.740 13.947,13.067 13.635,14.340 12.364 C 16.046 10.662,16.022 10.690,15.993 10.440 C 15.957 10.121,15.598 9.911,15.307 10.041 " stroke="none" fill="black" fill-rule="evenodd"></path></svg>