<svg class="bi bi-fullscreen" width="1em" height="1em" viewBox="0 0 16 16" fill="currentColor" xmlns="http://www.w3.org/2000/svg"><path d="M1.253 0.018 C 0.981 0.064,0.646 0.239,0.443 0.443 C 0.300 0.586,0.150 0.822,0.076 1.021 L 0.014 1.187 0.006 3.373 C -0.000 4.860,0.006 5.591,0.025 5.657 C 0.068 5.803,0.258 5.965,0.413 5.988 C 0.642 6.022,0.849 5.916,0.950 5.714 C 0.997 5.619,1.000 5.503,1.007 3.507 C 1.010 2.348,1.019 1.373,1.027 1.340 C 1.043 1.271,1.182 1.106,1.264 1.059 C 1.306 1.035,1.855 1.023,3.467 1.013 C 5.495 1.001,5.619 0.997,5.714 0.950 C 6.012 0.802,6.090 0.423,5.871 0.181 C 5.817 0.121,5.735 0.056,5.688 0.036 C 5.618 0.007,5.202 0.001,3.461 0.004 C 2.283 0.006,1.290 0.012,1.253 0.018 M10.307 0.037 C 10.128 0.117,9.999 0.311,10.001 0.499 C 10.002 0.740,10.176 0.939,10.426 0.987 C 10.513 1.003,11.352 1.013,12.605 1.013 C 14.332 1.013,14.654 1.019,14.717 1.052 C 14.812 1.101,14.955 1.262,14.973 1.340 C 14.981 1.373,14.990 2.348,14.993 3.507 C 15.000 5.503,15.003 5.619,15.050 5.714 C 15.151 5.916,15.358 6.022,15.587 5.988 C 15.747 5.964,15.933 5.802,15.974 5.651 C 15.992 5.583,15.999 4.813,15.994 3.381 C 15.987 1.217,15.987 1.213,15.927 1.038 C 15.775 0.592,15.408 0.225,14.962 0.073 C 14.787 0.013,14.786 0.013,12.587 0.007 C 10.798 0.002,10.372 0.008,10.307 0.037 M0.307 10.037 C 0.192 10.087,0.057 10.236,0.024 10.346 C 0.006 10.408,-0.000 11.175,0.006 12.627 L 0.014 14.813 0.076 14.979 C 0.241 15.423,0.603 15.779,1.038 15.927 C 1.213 15.987,1.219 15.987,3.347 15.995 C 4.520 15.999,5.532 15.995,5.596 15.986 C 5.681 15.974,5.744 15.940,5.829 15.862 C 6.065 15.644,6.051 15.296,5.798 15.104 L 5.698 15.027 3.535 15.013 C 1.205 14.999,1.327 15.007,1.164 14.857 C 1.006 14.710,1.013 14.821,1.013 12.605 C 1.013 11.352,1.003 10.513,0.987 10.426 C 0.972 10.348,0.928 10.243,0.890 10.193 C 0.762 10.026,0.495 9.954,0.307 10.037 M15.290 10.051 C 15.146 10.116,15.047 10.251,15.013 10.426 C 14.997 10.513,14.987 11.352,14.987 12.605 C 14.987 14.821,14.994 14.710,14.836 14.857 C 14.673 15.007,14.795 14.999,12.465 15.013 L 10.302 15.027 10.202 15.104 C 10.026 15.238,9.954 15.491,10.036 15.688 C 10.093 15.823,10.270 15.967,10.405 15.986 C 10.468 15.995,11.480 15.999,12.653 15.995 C 14.781 15.987,14.787 15.987,14.962 15.927 C 15.164 15.858,15.407 15.707,15.557 15.557 C 15.707 15.407,15.858 15.164,15.927 14.962 C 15.987 14.787,15.987 14.781,15.995 12.653 C 15.999 11.480,15.995 10.468,15.986 10.405 C 15.974 10.324,15.940 10.257,15.871 10.181 C 15.706 9.997,15.506 9.953,15.290 10.051 " stroke="none" fill="black" fill-rule="evenodd"></path></svg>