<svg class="bi bi-fullscreen-exit" width="1em" height="1em" viewBox="0 0 16 16" fill="currentColor" xmlns="http://www.w3.org/2000/svg"><path d="M5.290 0.051 C 5.146 0.116,5.047 0.251,5.013 0.426 C 4.997 0.513,4.987 1.352,4.987 2.605 C 4.987 4.821,4.994 4.710,4.836 4.857 C 4.673 5.007,4.795 4.999,2.465 5.013 L 0.302 5.027 0.202 5.104 C 0.026 5.238,-0.046 5.491,0.036 5.688 C 0.093 5.823,0.270 5.967,0.405 5.986 C 0.468 5.995,1.480 5.999,2.653 5.995 C 4.781 5.987,4.787 5.987,4.962 5.927 C 5.405 5.776,5.776 5.405,5.927 4.962 C 5.987 4.787,5.987 4.781,5.995 2.653 C 5.999 1.480,5.995 0.468,5.986 0.405 C 5.974 0.324,5.940 0.257,5.871 0.181 C 5.706 -0.003,5.506 -0.047,5.290 0.051 M10.307 0.037 C 10.192 0.087,10.057 0.236,10.024 0.346 C 10.006 0.408,10.000 1.175,10.006 2.627 L 10.014 4.813 10.076 4.979 C 10.241 5.423,10.603 5.779,11.038 5.927 C 11.213 5.987,11.219 5.987,13.347 5.995 C 14.520 5.999,15.532 5.995,15.596 5.986 C 15.681 5.974,15.744 5.940,15.829 5.862 C 16.065 5.644,16.051 5.296,15.798 5.104 L 15.698 5.027 13.535 5.013 C 11.205 4.999,11.327 5.007,11.164 4.857 C 11.006 4.710,11.013 4.821,11.013 2.605 C 11.013 1.352,11.003 0.513,10.987 0.426 C 10.972 0.348,10.928 0.243,10.890 0.193 C 10.762 0.026,10.495 -0.046,10.307 0.037 M0.307 10.037 C 0.128 10.117,-0.001 10.311,0.001 10.499 C 0.002 10.740,0.176 10.939,0.426 10.987 C 0.513 11.003,1.352 11.013,2.605 11.013 C 4.332 11.013,4.654 11.019,4.717 11.052 C 4.812 11.101,4.955 11.262,4.973 11.340 C 4.981 11.373,4.990 12.348,4.993 13.507 C 5.000 15.503,5.003 15.619,5.050 15.714 C 5.151 15.916,5.358 16.022,5.587 15.988 C 5.747 15.964,5.933 15.802,5.974 15.651 C 5.992 15.583,5.999 14.813,5.994 13.381 C 5.987 11.217,5.987 11.213,5.927 11.038 C 5.775 10.592,5.408 10.225,4.962 10.073 C 4.787 10.013,4.786 10.013,2.587 10.007 C 0.798 10.002,0.372 10.008,0.307 10.037 M11.253 10.018 C 10.981 10.064,10.646 10.239,10.443 10.443 C 10.300 10.586,10.150 10.822,10.076 11.021 L 10.014 11.187 10.006 13.373 C 10.000 14.860,10.006 15.591,10.025 15.657 C 10.068 15.803,10.258 15.965,10.413 15.988 C 10.642 16.022,10.849 15.916,10.950 15.714 C 10.997 15.619,11.000 15.503,11.007 13.507 C 11.010 12.348,11.019 11.373,11.027 11.340 C 11.043 11.271,11.182 11.106,11.264 11.059 C 11.306 11.035,11.855 11.023,13.467 11.013 C 15.495 11.001,15.619 10.997,15.714 10.950 C 16.012 10.802,16.090 10.423,15.871 10.181 C 15.817 10.121,15.735 10.056,15.688 10.036 C 15.618 10.007,15.202 10.001,13.461 10.004 C 12.283 10.006,11.290 10.012,11.253 10.018 " stroke="none" fill="black" fill-rule="evenodd"></path></svg>