<svg class="bi bi-gear" width="1em" height="1em" viewBox="0 0 16 16" fill="currentColor" xmlns="http://www.w3.org/2000/svg"><path d="M7.667 0.027 C 7.290 0.096,6.942 0.279,6.680 0.545 C 6.433 0.796,6.314 1.008,6.183 1.427 C 6.054 1.840,5.961 1.993,5.753 2.133 C 5.426 2.353,5.177 2.339,4.647 2.072 C 4.175 1.834,4.060 1.803,3.653 1.803 C 3.367 1.803,3.291 1.813,3.113 1.872 C 2.364 2.122,1.841 2.791,1.794 3.560 C 1.772 3.927,1.827 4.150,2.054 4.606 C 2.273 5.046,2.316 5.215,2.268 5.446 C 2.227 5.646,2.068 5.881,1.901 5.991 C 1.830 6.038,1.621 6.123,1.427 6.183 C 1.008 6.314,0.796 6.433,0.545 6.680 C 0.331 6.890,0.188 7.126,0.085 7.436 C 0.026 7.614,0.017 7.686,0.017 8.000 C 0.017 8.314,0.026 8.386,0.085 8.564 C 0.188 8.874,0.331 9.110,0.545 9.320 C 0.798 9.568,1.005 9.684,1.453 9.828 C 1.925 9.979,2.089 10.098,2.212 10.378 C 2.343 10.677,2.312 10.875,2.053 11.399 C 1.913 11.682,1.856 11.829,1.823 11.999 C 1.647 12.907,2.204 13.826,3.113 14.127 C 3.290 14.186,3.368 14.196,3.653 14.197 C 4.057 14.199,4.170 14.169,4.640 13.932 C 4.823 13.840,5.027 13.750,5.093 13.733 C 5.317 13.673,5.632 13.750,5.822 13.910 C 5.983 14.046,6.051 14.169,6.172 14.547 C 6.318 15.003,6.433 15.206,6.693 15.467 C 6.916 15.690,7.207 15.856,7.520 15.939 C 7.755 16.002,8.245 16.001,8.480 15.939 C 8.802 15.854,9.084 15.693,9.306 15.469 C 9.565 15.207,9.683 15.000,9.817 14.573 C 9.969 14.085,10.105 13.900,10.405 13.775 C 10.550 13.715,10.769 13.696,10.907 13.733 C 10.973 13.751,11.195 13.847,11.400 13.948 C 11.677 14.084,11.832 14.143,11.999 14.176 C 13.120 14.397,14.211 13.488,14.213 12.333 C 14.213 12.041,14.128 11.745,13.935 11.364 C 13.840 11.179,13.749 10.973,13.732 10.907 C 13.677 10.694,13.735 10.424,13.882 10.210 C 13.996 10.046,14.161 9.951,14.554 9.825 C 15.003 9.682,15.207 9.566,15.467 9.307 C 15.690 9.084,15.856 8.793,15.939 8.480 C 16.001 8.245,16.001 7.755,15.939 7.520 C 15.858 7.211,15.690 6.916,15.467 6.691 C 15.216 6.437,15.005 6.318,14.542 6.170 C 14.179 6.055,14.042 5.979,13.910 5.822 C 13.750 5.632,13.673 5.317,13.733 5.093 C 13.751 5.027,13.847 4.805,13.948 4.600 C 14.084 4.323,14.143 4.168,14.176 4.001 C 14.389 2.919,13.557 1.862,12.440 1.794 C 12.074 1.772,11.850 1.828,11.399 2.052 C 10.876 2.312,10.678 2.343,10.378 2.212 C 10.098 2.089,9.979 1.925,9.828 1.453 C 9.682 0.997,9.567 0.794,9.307 0.533 C 8.973 0.198,8.579 0.031,8.080 0.013 C 7.926 0.007,7.740 0.014,7.667 0.027 M8.332 1.068 C 8.498 1.131,8.689 1.300,8.768 1.457 C 8.796 1.514,8.852 1.674,8.892 1.813 C 8.987 2.146,9.088 2.354,9.266 2.581 C 9.604 3.014,10.066 3.246,10.641 3.273 C 10.897 3.284,10.985 3.278,11.168 3.231 C 11.360 3.183,11.485 3.127,11.987 2.868 C 12.150 2.784,12.525 2.790,12.706 2.879 C 12.875 2.962,13.038 3.125,13.121 3.294 C 13.176 3.405,13.187 3.466,13.187 3.669 L 13.187 3.911 13.006 4.262 C 12.789 4.682,12.720 4.924,12.720 5.267 C 12.720 5.916,13.034 6.497,13.572 6.839 C 13.782 6.973,13.942 7.042,14.227 7.120 C 14.623 7.229,14.825 7.389,14.935 7.679 C 15.003 7.856,15.004 8.141,14.937 8.317 C 14.829 8.600,14.638 8.758,14.269 8.867 C 13.928 8.967,13.767 9.036,13.562 9.167 C 13.055 9.491,12.757 10.014,12.727 10.629 C 12.707 11.047,12.755 11.243,12.996 11.717 L 13.187 12.093 13.187 12.333 C 13.187 12.615,13.127 12.767,12.947 12.947 C 12.767 13.127,12.615 13.187,12.333 13.187 L 12.093 13.187 11.718 12.996 C 11.243 12.755,11.047 12.707,10.629 12.727 C 9.772 12.769,9.147 13.295,8.892 14.187 C 8.800 14.510,8.744 14.619,8.597 14.761 C 8.284 15.065,7.716 15.065,7.403 14.761 C 7.256 14.619,7.200 14.510,7.108 14.187 C 6.847 13.274,6.152 12.720,5.267 12.720 C 4.925 12.720,4.683 12.789,4.260 13.006 L 3.907 13.187 3.667 13.187 C 3.385 13.187,3.233 13.127,3.053 12.947 C 2.873 12.767,2.813 12.615,2.813 12.333 L 2.813 12.093 3.004 11.718 C 3.245 11.243,3.293 11.047,3.273 10.629 C 3.231 9.773,2.702 9.143,1.813 8.892 C 1.491 8.800,1.382 8.744,1.239 8.597 C 0.935 8.284,0.935 7.716,1.239 7.403 C 1.382 7.256,1.491 7.200,1.813 7.108 C 2.279 6.976,2.603 6.771,2.871 6.439 C 3.139 6.107,3.280 5.704,3.280 5.267 C 3.280 4.925,3.211 4.683,2.994 4.260 L 2.813 3.907 2.813 3.667 C 2.813 3.385,2.873 3.233,3.053 3.053 C 3.233 2.872,3.385 2.813,3.669 2.813 L 3.911 2.813 4.262 2.994 C 4.682 3.211,4.924 3.280,5.267 3.280 C 6.152 3.280,6.847 2.726,7.108 1.813 C 7.148 1.674,7.204 1.514,7.232 1.457 C 7.309 1.305,7.502 1.131,7.661 1.070 C 7.852 0.996,8.137 0.996,8.332 1.068 M7.747 4.762 C 7.374 4.814,7.234 4.842,7.013 4.912 C 5.868 5.275,5.006 6.268,4.798 7.467 C 4.753 7.724,4.753 8.276,4.798 8.533 C 5.035 9.896,6.102 10.964,7.467 11.203 C 7.747 11.252,8.309 11.246,8.592 11.190 C 9.774 10.961,10.732 10.115,11.088 8.987 C 11.200 8.631,11.237 8.385,11.237 8.000 C 11.237 7.615,11.200 7.369,11.088 7.013 C 10.734 5.892,9.768 5.034,8.613 4.815 C 8.393 4.773,7.889 4.742,7.747 4.762 M8.608 5.838 C 9.353 6.054,9.950 6.653,10.165 7.400 C 10.254 7.709,10.254 8.291,10.165 8.600 C 9.948 9.353,9.352 9.947,8.594 10.166 C 8.421 10.216,8.323 10.226,8.000 10.226 C 7.539 10.225,7.388 10.191,7.000 9.999 C 6.428 9.716,6.014 9.217,5.834 8.594 C 5.747 8.294,5.747 7.706,5.834 7.406 C 6.069 6.591,6.714 5.986,7.547 5.800 C 7.797 5.744,8.351 5.764,8.608 5.838 " stroke="none" fill="black" fill-rule="evenodd"></path></svg>