<svg class="bi bi-gear-fill" width="1em" height="1em" viewBox="0 0 16 16" fill="currentColor" xmlns="http://www.w3.org/2000/svg"><path d="M7.661 0.040 C 7.291 0.121,6.899 0.413,6.728 0.737 C 6.683 0.823,6.601 1.037,6.547 1.213 C 6.492 1.389,6.423 1.581,6.394 1.640 C 6.244 1.939,5.954 2.202,5.622 2.338 C 5.492 2.392,5.392 2.411,5.186 2.420 C 4.816 2.438,4.665 2.400,4.254 2.186 C 3.821 1.961,3.681 1.918,3.373 1.918 C 2.971 1.918,2.635 2.059,2.347 2.347 C 2.062 2.631,1.920 2.968,1.920 3.359 C 1.920 3.669,1.972 3.848,2.172 4.226 C 2.266 4.402,2.362 4.615,2.386 4.699 C 2.437 4.876,2.444 5.232,2.401 5.427 C 2.349 5.659,2.191 5.939,2.013 6.117 C 1.810 6.320,1.624 6.420,1.213 6.547 C 0.805 6.673,0.627 6.768,0.427 6.966 C -0.135 7.523,-0.135 8.477,0.427 9.034 C 0.627 9.232,0.805 9.327,1.213 9.453 C 1.389 9.508,1.581 9.577,1.640 9.606 C 1.939 9.756,2.202 10.046,2.338 10.378 C 2.392 10.508,2.411 10.608,2.420 10.814 C 2.438 11.184,2.400 11.335,2.186 11.746 C 1.961 12.179,1.918 12.319,1.918 12.627 C 1.918 13.118,2.134 13.530,2.543 13.816 C 2.799 13.996,2.974 14.057,3.280 14.073 C 3.632 14.092,3.784 14.053,4.200 13.839 C 4.396 13.738,4.623 13.637,4.704 13.613 C 4.873 13.564,5.234 13.556,5.416 13.597 C 5.822 13.689,6.209 13.992,6.394 14.360 C 6.423 14.419,6.492 14.611,6.547 14.787 C 6.673 15.195,6.772 15.381,6.967 15.576 C 7.524 16.133,8.476 16.133,9.033 15.576 C 9.228 15.381,9.327 15.194,9.453 14.787 C 9.580 14.376,9.680 14.190,9.883 13.987 C 10.061 13.809,10.341 13.651,10.573 13.599 C 10.768 13.556,11.124 13.563,11.301 13.614 C 11.385 13.638,11.597 13.734,11.773 13.827 C 12.174 14.038,12.316 14.080,12.629 14.080 C 12.950 14.080,13.165 14.014,13.434 13.831 C 13.826 13.566,14.050 13.176,14.073 12.720 C 14.092 12.368,14.053 12.216,13.839 11.800 C 13.738 11.604,13.637 11.377,13.613 11.296 C 13.563 11.124,13.556 10.766,13.599 10.573 C 13.651 10.341,13.809 10.061,13.987 9.883 C 14.189 9.680,14.375 9.581,14.787 9.454 C 15.193 9.328,15.381 9.228,15.576 9.033 C 16.133 8.476,16.133 7.524,15.576 6.967 C 15.381 6.772,15.194 6.672,14.787 6.546 C 14.611 6.491,14.419 6.423,14.360 6.394 C 13.992 6.211,13.689 5.822,13.597 5.416 C 13.555 5.232,13.564 4.873,13.614 4.699 C 13.638 4.615,13.734 4.402,13.828 4.226 C 14.028 3.848,14.080 3.669,14.080 3.359 C 14.080 2.968,13.938 2.631,13.653 2.347 C 13.369 2.062,13.032 1.920,12.641 1.920 C 12.328 1.920,12.162 1.969,11.750 2.184 C 11.335 2.400,11.185 2.438,10.814 2.420 C 10.608 2.411,10.508 2.392,10.378 2.338 C 10.046 2.202,9.756 1.939,9.606 1.640 C 9.577 1.581,9.508 1.389,9.453 1.213 C 9.329 0.811,9.229 0.620,9.041 0.430 C 8.697 0.081,8.166 -0.069,7.661 0.040 M8.427 5.105 C 9.251 5.230,9.981 5.692,10.433 6.374 C 11.210 7.547,11.059 9.076,10.068 10.068 C 8.572 11.564,6.053 11.031,5.272 9.053 C 4.925 8.175,5.035 7.177,5.567 6.374 C 6.188 5.438,7.317 4.937,8.427 5.105 " stroke="none" fill="black" fill-rule="evenodd"></path></svg>