<svg class="bi bi-gem" width="1em" height="1em" viewBox="0 0 16 16" fill="currentColor" xmlns="http://www.w3.org/2000/svg"><path d="M3.333 0.526 C 3.311 0.534,3.259 0.565,3.217 0.594 C 3.137 0.650,0.129 4.640,0.048 4.799 C -0.013 4.917,-0.013 5.083,0.048 5.201 C 0.108 5.317,7.596 15.299,7.683 15.378 C 7.853 15.533,8.147 15.533,8.317 15.378 C 8.400 15.303,15.891 5.319,15.944 5.213 C 15.999 5.105,15.994 4.888,15.936 4.776 C 15.843 4.599,12.857 0.646,12.769 0.584 L 12.680 0.520 8.027 0.515 C 5.467 0.513,3.355 0.517,3.333 0.526 M11.813 1.500 C 11.813 1.504,11.598 2.173,11.337 2.987 L 10.861 4.467 8.011 4.485 C 6.444 4.495,5.158 4.500,5.154 4.496 C 5.150 4.492,4.936 3.836,4.680 3.038 C 4.423 2.240,4.207 1.566,4.198 1.540 C 4.184 1.496,4.377 1.493,7.998 1.493 C 10.097 1.493,11.813 1.496,11.813 1.500 M3.703 3.267 C 3.911 3.912,4.080 4.455,4.080 4.473 C 4.080 4.500,3.806 4.507,2.800 4.507 C 2.096 4.507,1.520 4.499,1.520 4.489 C 1.520 4.467,3.312 2.076,3.321 2.086 C 3.324 2.090,3.496 2.621,3.703 3.267 M13.609 3.313 L 14.479 4.480 13.199 4.480 C 12.496 4.480,11.920 4.471,11.920 4.460 C 11.920 4.450,12.090 3.910,12.299 3.260 C 12.590 2.353,12.685 2.087,12.708 2.113 C 12.725 2.132,13.130 2.672,13.609 3.313 M5.503 8.870 C 6.101 10.727,6.585 12.250,6.580 12.255 C 6.569 12.266,1.520 5.536,1.520 5.511 C 1.520 5.501,2.172 5.493,2.969 5.493 L 4.418 5.493 5.503 8.870 M10.497 5.593 C 10.479 5.648,9.912 7.412,9.238 9.513 C 8.565 11.614,8.007 13.333,8.000 13.333 C 7.993 13.333,7.435 11.614,6.762 9.513 C 6.088 7.412,5.521 5.648,5.503 5.593 L 5.469 5.493 8.000 5.493 L 10.531 5.493 10.497 5.593 M11.968 8.879 C 10.571 10.741,9.424 12.260,9.419 12.255 C 9.414 12.250,9.890 10.753,10.476 8.930 C 11.061 7.106,11.549 5.586,11.559 5.553 L 11.577 5.493 13.042 5.493 L 14.507 5.493 11.968 8.879 " stroke="none" fill="black" fill-rule="evenodd"></path></svg>