<svg class="bi bi-geo" width="1em" height="1em" viewBox="0 0 16 16" fill="currentColor" xmlns="http://www.w3.org/2000/svg"><path d="M7.430 1.055 C 6.221 1.295,5.285 2.238,5.053 3.449 C 5.002 3.719,5.002 4.281,5.053 4.551 C 5.284 5.755,6.203 6.686,7.420 6.945 L 7.493 6.961 7.493 9.994 C 7.494 12.028,7.503 13.060,7.522 13.127 C 7.556 13.253,7.691 13.410,7.805 13.457 C 7.916 13.503,8.084 13.503,8.195 13.457 C 8.309 13.410,8.444 13.253,8.478 13.127 C 8.497 13.060,8.506 12.028,8.507 9.994 L 8.507 6.961 8.580 6.945 C 9.732 6.700,10.591 5.882,10.913 4.725 C 10.963 4.548,10.971 4.450,10.971 4.000 C 10.971 3.437,10.948 3.301,10.785 2.888 C 10.412 1.947,9.557 1.244,8.553 1.054 C 8.290 1.004,7.684 1.004,7.430 1.055 M5.773 11.737 C 4.463 12.042,3.640 12.623,3.516 13.332 C 3.418 13.890,3.821 14.468,4.574 14.847 C 5.092 15.107,5.885 15.319,6.760 15.432 C 7.292 15.500,8.707 15.500,9.240 15.432 C 10.305 15.295,11.217 15.015,11.755 14.657 C 11.994 14.498,12.268 14.209,12.369 14.010 C 12.781 13.193,12.190 12.373,10.867 11.924 C 10.512 11.804,10.117 11.707,9.983 11.707 C 9.613 11.707,9.384 12.091,9.553 12.427 C 9.633 12.585,9.736 12.648,10.033 12.721 C 10.625 12.866,11.128 13.087,11.364 13.308 C 11.538 13.471,11.536 13.529,11.351 13.698 C 10.652 14.337,8.510 14.666,6.698 14.412 C 5.739 14.277,5.001 14.020,4.649 13.698 C 4.464 13.529,4.462 13.471,4.636 13.308 C 4.871 13.088,5.337 12.881,5.930 12.731 C 6.233 12.655,6.347 12.591,6.422 12.454 C 6.536 12.247,6.517 12.048,6.366 11.876 C 6.225 11.715,6.046 11.673,5.773 11.737 " stroke="none" fill="black" fill-rule="evenodd"></path></svg>