<svg class="bi bi-gift" width="1em" height="1em" viewBox="0 0 16 16" fill="currentColor" xmlns="http://www.w3.org/2000/svg"><path d="M5.560 0.039 C 4.423 0.249,3.582 1.196,3.507 2.350 C 3.493 2.577,3.507 2.704,3.576 2.960 C 3.585 2.995,3.409 3.002,2.147 3.013 L 0.707 3.027 0.538 3.118 C 0.334 3.228,0.155 3.425,0.073 3.627 C 0.016 3.766,0.013 3.810,0.013 4.507 L 0.013 5.240 0.088 5.400 C 0.230 5.704,0.544 5.944,0.855 5.987 L 0.985 6.005 0.994 10.369 C 1.002 14.478,1.005 14.743,1.050 14.893 C 1.211 15.432,1.654 15.849,2.184 15.962 C 2.450 16.018,13.553 16.017,13.820 15.961 C 14.226 15.875,14.648 15.553,14.824 15.196 C 15.012 14.815,14.997 15.204,15.007 10.369 L 15.015 6.005 15.145 5.987 C 15.460 5.944,15.756 5.720,15.903 5.413 L 15.987 5.240 15.995 4.567 C 16.003 4.002,15.997 3.870,15.960 3.740 C 15.877 3.453,15.704 3.243,15.432 3.100 L 15.293 3.027 13.847 3.019 C 13.051 3.015,12.400 3.007,12.400 3.002 C 12.400 2.997,12.420 2.941,12.444 2.877 C 12.502 2.725,12.503 2.245,12.447 1.986 C 12.264 1.157,11.670 0.467,10.875 0.160 C 10.570 0.042,10.233 -0.009,9.880 0.009 C 9.213 0.043,8.641 0.308,8.179 0.798 L 8.004 0.983 7.755 0.736 C 7.168 0.151,6.354 -0.107,5.560 0.039 M6.386 1.054 C 7.013 1.218,7.493 1.831,7.493 2.469 C 7.493 2.637,7.447 2.701,7.255 2.799 C 6.991 2.934,6.776 2.967,6.093 2.980 C 5.528 2.990,5.423 2.985,5.194 2.938 C 4.905 2.878,4.675 2.784,4.574 2.683 C 4.518 2.627,4.507 2.590,4.507 2.469 C 4.507 1.837,4.983 1.222,5.603 1.055 C 5.795 1.004,6.190 1.003,6.386 1.054 M10.386 1.054 C 11.010 1.217,11.493 1.831,11.493 2.462 C 11.493 2.634,11.450 2.701,11.281 2.786 C 10.979 2.939,10.812 2.967,10.107 2.979 C 9.528 2.990,9.424 2.985,9.194 2.938 C 8.905 2.878,8.675 2.784,8.574 2.683 C 8.518 2.627,8.507 2.590,8.507 2.469 C 8.507 1.837,8.983 1.222,9.603 1.055 C 9.795 1.004,10.190 1.003,10.386 1.054 M14.987 4.507 L 14.987 5.013 8.000 5.013 L 1.013 5.013 1.013 4.507 L 1.013 4.000 8.000 4.000 L 14.987 4.000 14.987 4.507 M7.493 10.507 L 7.493 15.013 5.030 15.013 C 3.492 15.013,2.514 15.003,2.426 14.987 C 2.251 14.953,2.116 14.854,2.051 14.710 C 2.003 14.604,2.001 14.442,2.001 10.300 L 2.000 6.000 4.747 6.000 L 7.493 6.000 7.493 10.507 M13.999 10.300 C 13.999 14.442,13.997 14.604,13.949 14.710 C 13.884 14.854,13.749 14.953,13.574 14.987 C 13.486 15.003,12.508 15.013,10.970 15.013 L 8.507 15.013 8.507 10.507 L 8.507 6.000 11.253 6.000 L 14.000 6.000 13.999 10.300 " stroke="none" fill="black" fill-rule="evenodd"></path></svg>