<svg class="bi bi-grid-fill" width="1em" height="1em" viewBox="0 0 16 16" fill="currentColor" xmlns="http://www.w3.org/2000/svg"><path d="M2.079 1.063 C 1.575 1.225,1.208 1.601,1.049 2.120 C 1.004 2.268,1.000 2.406,1.000 4.000 C 1.000 5.594,1.004 5.732,1.049 5.880 C 1.212 6.411,1.589 6.788,2.120 6.951 C 2.268 6.996,2.406 7.000,4.013 7.000 L 5.747 7.000 5.955 6.926 C 6.454 6.750,6.794 6.393,6.951 5.880 C 6.996 5.732,7.000 5.594,7.000 4.000 C 7.000 2.406,6.996 2.268,6.951 2.120 C 6.793 1.606,6.449 1.243,5.964 1.081 L 5.764 1.013 3.995 1.015 C 2.379 1.016,2.214 1.020,2.079 1.063 M10.079 1.063 C 9.575 1.225,9.208 1.601,9.049 2.120 C 9.004 2.268,9.000 2.406,9.000 4.000 C 9.000 5.594,9.004 5.732,9.049 5.880 C 9.212 6.411,9.589 6.788,10.120 6.951 C 10.268 6.996,10.406 7.000,12.013 7.000 L 13.747 7.000 13.955 6.926 C 14.454 6.750,14.794 6.393,14.951 5.880 C 14.996 5.732,15.000 5.594,15.000 4.000 C 15.000 2.406,14.996 2.268,14.951 2.120 C 14.793 1.606,14.449 1.243,13.964 1.081 L 13.764 1.013 11.995 1.015 C 10.379 1.016,10.214 1.020,10.079 1.063 M2.079 9.063 C 1.575 9.225,1.208 9.601,1.049 10.120 C 1.004 10.268,1.000 10.406,1.000 12.000 C 1.000 13.594,1.004 13.732,1.049 13.880 C 1.212 14.411,1.589 14.788,2.120 14.951 C 2.268 14.996,2.406 15.000,4.013 15.000 L 5.747 15.000 5.955 14.926 C 6.454 14.750,6.794 14.393,6.951 13.880 C 6.996 13.732,7.000 13.594,7.000 12.000 C 7.000 10.406,6.996 10.268,6.951 10.120 C 6.793 9.606,6.449 9.243,5.964 9.081 L 5.764 9.013 3.995 9.015 C 2.379 9.016,2.214 9.020,2.079 9.063 M10.079 9.063 C 9.575 9.225,9.208 9.601,9.049 10.120 C 9.004 10.268,9.000 10.406,9.000 12.000 C 9.000 13.594,9.004 13.732,9.049 13.880 C 9.212 14.411,9.589 14.788,10.120 14.951 C 10.268 14.996,10.406 15.000,12.013 15.000 L 13.747 15.000 13.955 14.926 C 14.454 14.750,14.794 14.393,14.951 13.880 C 14.996 13.732,15.000 13.594,15.000 12.000 C 15.000 10.406,14.996 10.268,14.951 10.120 C 14.793 9.606,14.449 9.243,13.964 9.081 L 13.764 9.013 11.995 9.015 C 10.379 9.016,10.214 9.020,10.079 9.063 " stroke="none" fill="black" fill-rule="evenodd"></path></svg>