<svg class="bi bi-grid-3x2-gap" width="1em" height="1em" viewBox="0 0 16 16" fill="currentColor" xmlns="http://www.w3.org/2000/svg"><path d="M1.645 3.066 C 1.390 3.166,1.169 3.389,1.058 3.659 C 1.001 3.797,1.000 3.829,1.000 5.000 C 1.000 6.171,1.001 6.203,1.058 6.341 C 1.177 6.631,1.427 6.868,1.704 6.954 C 1.836 6.995,1.987 7.000,3.000 7.000 C 4.013 7.000,4.164 6.995,4.296 6.954 C 4.590 6.863,4.863 6.590,4.954 6.296 C 4.995 6.164,5.000 6.013,5.000 5.000 C 5.000 3.987,4.995 3.836,4.954 3.704 C 4.866 3.422,4.612 3.158,4.338 3.063 C 4.213 3.020,4.083 3.015,2.987 3.015 C 1.864 3.016,1.764 3.020,1.645 3.066 M6.707 3.041 C 6.422 3.126,6.144 3.405,6.055 3.696 C 6.003 3.862,6.000 3.939,6.000 4.998 C 6.000 6.236,6.006 6.289,6.165 6.539 C 6.328 6.796,6.572 6.945,6.904 6.989 C 7.033 7.007,7.511 7.014,8.150 7.008 C 9.149 6.998,9.192 6.996,9.337 6.938 C 9.647 6.815,9.851 6.600,9.947 6.297 C 9.997 6.139,10.000 6.054,10.000 5.002 C 10.000 3.764,9.994 3.711,9.835 3.461 C 9.737 3.306,9.614 3.196,9.432 3.100 L 9.293 3.027 8.040 3.022 C 7.351 3.019,6.751 3.028,6.707 3.041 M11.645 3.066 C 11.390 3.166,11.169 3.389,11.058 3.659 C 11.001 3.797,11.000 3.829,11.000 5.000 C 11.000 6.171,11.001 6.203,11.058 6.341 C 11.177 6.631,11.427 6.868,11.704 6.954 C 11.836 6.995,11.987 7.000,13.000 7.000 C 14.013 7.000,14.164 6.995,14.296 6.954 C 14.590 6.863,14.863 6.590,14.954 6.296 C 14.995 6.164,15.000 6.013,15.000 5.000 C 15.000 3.987,14.995 3.836,14.954 3.704 C 14.866 3.422,14.612 3.158,14.338 3.063 C 14.213 3.020,14.083 3.015,12.987 3.015 C 11.864 3.016,11.764 3.020,11.645 3.066 M4.000 5.000 L 4.000 6.000 3.000 6.000 L 2.000 6.000 2.000 5.000 L 2.000 4.000 3.000 4.000 L 4.000 4.000 4.000 5.000 M8.987 5.000 L 8.987 6.000 8.000 6.000 L 7.013 6.000 7.013 5.000 L 7.013 4.000 8.000 4.000 L 8.987 4.000 8.987 5.000 M14.000 5.000 L 14.000 6.000 13.000 6.000 L 12.000 6.000 12.000 5.000 L 12.000 4.000 13.000 4.000 L 14.000 4.000 14.000 5.000 M1.704 8.050 C 1.319 8.175,1.066 8.481,1.013 8.887 C 0.981 9.138,0.981 10.862,1.013 11.113 C 1.054 11.426,1.209 11.675,1.461 11.835 C 1.711 11.994,1.764 12.000,3.002 12.000 C 4.056 12.000,4.139 11.997,4.302 11.946 C 4.600 11.854,4.812 11.649,4.940 11.330 C 4.995 11.194,4.998 11.136,5.008 10.170 C 5.020 8.984,5.002 8.767,4.876 8.530 C 4.770 8.331,4.578 8.155,4.379 8.075 C 4.229 8.014,4.210 8.013,3.040 8.008 C 1.958 8.002,1.840 8.006,1.704 8.050 M6.767 8.028 C 6.488 8.096,6.216 8.325,6.088 8.600 L 6.013 8.760 6.013 10.000 L 6.013 11.240 6.089 11.403 C 6.184 11.609,6.390 11.814,6.600 11.912 L 6.760 11.987 8.000 11.987 L 9.240 11.987 9.413 11.904 C 9.633 11.799,9.797 11.634,9.903 11.413 L 9.987 11.240 9.987 10.000 L 9.987 8.760 9.903 8.587 C 9.797 8.366,9.633 8.201,9.413 8.096 L 9.240 8.013 8.053 8.009 C 7.401 8.006,6.822 8.015,6.767 8.028 M11.704 8.050 C 11.319 8.175,11.066 8.481,11.013 8.887 C 10.981 9.138,10.981 10.862,11.013 11.113 C 11.054 11.426,11.209 11.675,11.461 11.835 C 11.711 11.994,11.764 12.000,13.002 12.000 C 14.056 12.000,14.139 11.997,14.302 11.946 C 14.600 11.854,14.812 11.649,14.940 11.330 C 14.995 11.194,14.998 11.136,15.008 10.170 C 15.020 8.984,15.002 8.767,14.876 8.530 C 14.770 8.331,14.578 8.155,14.379 8.075 C 14.229 8.014,14.210 8.013,13.040 8.008 C 11.958 8.002,11.840 8.006,11.704 8.050 M4.000 10.013 L 4.000 11.013 3.000 11.013 L 2.000 11.013 2.000 10.013 L 2.000 9.013 3.000 9.013 L 4.000 9.013 4.000 10.013 M8.987 10.013 L 8.987 11.013 8.000 11.013 L 7.013 11.013 7.013 10.013 L 7.013 9.013 8.000 9.013 L 8.987 9.013 8.987 10.013 M14.000 10.013 L 14.000 11.013 13.000 11.013 L 12.000 11.013 12.000 10.013 L 12.000 9.013 13.000 9.013 L 14.000 9.013 14.000 10.013 " stroke="none" fill="black" fill-rule="evenodd"></path></svg>