<svg class="bi bi-hammer" width="1em" height="1em" viewBox="0 0 16 16" fill="currentColor" xmlns="http://www.w3.org/2000/svg"><path d="M6.627 1.018 C 5.815 1.066,4.985 1.368,4.213 1.896 C 3.844 2.148,3.564 2.386,3.188 2.764 L 2.834 3.120 2.325 3.120 C 1.531 3.120,1.659 3.055,0.819 3.889 C 0.366 4.340,0.086 4.639,0.053 4.708 C -0.011 4.839,-0.015 4.980,0.041 5.114 C 0.098 5.251,2.717 7.879,2.867 7.949 C 3.002 8.012,3.131 8.012,3.267 7.949 C 3.336 7.917,3.628 7.643,4.100 7.168 C 4.500 6.765,4.829 6.431,4.831 6.425 C 4.833 6.418,4.842 6.226,4.851 5.997 L 4.867 5.581 9.093 10.056 C 12.117 13.257,13.351 14.547,13.428 14.586 C 13.557 14.650,13.732 14.656,13.850 14.600 C 13.897 14.578,14.309 14.185,14.765 13.726 C 15.505 12.985,15.599 12.880,15.628 12.773 C 15.668 12.622,15.629 12.450,15.525 12.328 C 15.486 12.281,13.417 10.320,10.928 7.969 C 7.945 5.151,6.411 3.685,6.427 3.666 C 6.520 3.554,7.353 3.195,7.805 3.072 C 8.313 2.934,8.629 2.884,9.179 2.855 C 9.418 2.843,9.637 2.823,9.667 2.812 C 9.851 2.743,9.999 2.535,9.999 2.347 C 9.999 2.086,9.800 1.889,9.227 1.582 C 8.432 1.158,7.536 0.963,6.627 1.018 " stroke="none" fill="black" fill-rule="evenodd"></path></svg>