<svg class="bi bi-handbag-fill" width="1em" height="1em" viewBox="0 0 16 16" fill="currentColor" xmlns="http://www.w3.org/2000/svg"><path d="M7.520 0.041 C 6.569 0.191,5.732 0.815,5.307 1.690 C 5.033 2.252,4.979 2.668,4.992 4.120 L 5.000 5.000 5.500 5.007 L 6.000 5.015 6.000 6.287 C 6.000 7.062,5.989 7.598,5.973 7.657 C 5.932 7.803,5.744 7.965,5.587 7.988 C 5.362 8.022,5.148 7.915,5.057 7.723 C 5.019 7.643,5.013 7.474,5.013 6.323 L 5.013 5.013 4.078 5.013 C 3.149 5.013,3.141 5.014,2.943 5.081 C 2.466 5.240,2.112 5.599,1.979 6.057 C 1.943 6.183,1.755 7.517,1.452 9.813 C 0.933 13.740,0.942 13.638,1.068 14.120 C 1.133 14.369,1.312 14.756,1.450 14.947 C 1.791 15.417,2.303 15.767,2.880 15.925 L 3.107 15.987 8.000 15.987 L 12.893 15.987 13.120 15.925 C 14.200 15.630,14.942 14.727,15.004 13.631 C 15.017 13.401,14.968 12.995,14.549 9.813 C 14.184 7.050,14.065 6.207,14.013 6.046 C 13.861 5.568,13.506 5.215,13.031 5.069 C 12.860 5.017,12.787 5.013,11.917 5.013 L 10.987 5.013 10.987 6.323 C 10.987 7.474,10.981 7.643,10.943 7.723 C 10.807 8.011,10.419 8.086,10.181 7.871 C 9.995 7.704,10.000 7.746,10.000 6.308 L 10.000 5.015 10.500 5.007 L 11.000 5.000 11.008 4.120 C 11.020 2.715,10.967 2.267,10.724 1.749 C 10.430 1.121,9.902 0.583,9.295 0.294 C 8.755 0.037,8.119 -0.054,7.520 0.041 M8.627 1.104 C 8.936 1.209,9.184 1.366,9.413 1.599 C 9.626 1.815,9.751 2.004,9.858 2.267 C 9.986 2.585,10.000 2.747,10.000 3.922 L 10.000 5.013 8.000 5.013 L 6.000 5.013 6.000 3.922 C 6.000 2.747,6.014 2.585,6.142 2.267 C 6.386 1.664,6.869 1.238,7.507 1.064 C 7.795 0.986,8.337 1.005,8.627 1.104 " stroke="none" fill="black" fill-rule="evenodd"></path></svg>