<svg class="bi bi-hand-thumbs-down" width="1em" height="1em" viewBox="0 0 16 16" fill="currentColor" xmlns="http://www.w3.org/2000/svg"><path d="M7.216 0.335 C 6.623 0.428,6.166 0.610,5.528 1.004 C 4.903 1.391,4.417 1.581,3.800 1.681 C 3.624 1.710,3.398 1.746,3.297 1.763 C 3.017 1.808,2.673 1.992,2.451 2.214 C 2.245 2.420,2.076 2.733,2.029 2.998 C 1.989 3.216,1.989 7.344,2.029 7.562 C 2.044 7.649,2.106 7.822,2.165 7.947 C 2.253 8.130,2.315 8.214,2.490 8.387 C 2.746 8.640,2.972 8.767,3.458 8.929 C 4.187 9.173,4.734 9.529,5.335 10.151 C 5.915 10.752,6.361 11.445,6.560 12.052 C 6.708 12.507,6.845 13.300,6.921 14.147 C 6.974 14.730,7.010 14.902,7.136 15.153 C 7.264 15.407,7.568 15.712,7.815 15.833 C 8.196 16.019,8.547 16.041,9.048 15.909 C 9.384 15.820,9.547 15.736,9.738 15.553 C 10.013 15.291,10.100 15.112,10.225 14.553 C 10.497 13.335,10.511 12.006,10.266 10.736 C 10.235 10.577,10.216 10.442,10.223 10.435 C 10.230 10.428,10.372 10.437,10.538 10.456 C 10.988 10.507,11.944 10.500,12.320 10.443 C 12.892 10.357,13.281 10.234,13.539 10.058 C 13.715 9.938,13.975 9.675,14.104 9.485 C 14.528 8.863,14.580 8.079,14.238 7.445 L 14.133 7.249 14.210 7.031 C 14.328 6.692,14.360 6.481,14.360 6.027 C 14.359 5.564,14.316 5.299,14.184 4.958 C 14.107 4.758,14.107 4.753,14.150 4.638 C 14.208 4.480,14.210 4.044,14.153 3.813 C 14.088 3.548,13.932 3.201,13.769 2.955 L 13.621 2.733 13.651 2.585 C 13.812 1.773,13.336 0.898,12.520 0.506 C 12.085 0.297,12.255 0.309,9.720 0.303 C 7.887 0.299,7.408 0.305,7.216 0.335 M11.940 1.341 C 12.283 1.457,12.567 1.748,12.655 2.071 C 12.722 2.315,12.699 2.383,12.481 2.599 L 12.295 2.784 12.570 3.065 C 12.971 3.477,13.200 3.901,13.200 4.233 C 13.200 4.346,13.189 4.364,12.995 4.563 L 12.791 4.773 13.005 4.993 C 13.187 5.181,13.227 5.239,13.276 5.387 C 13.412 5.799,13.392 6.471,13.234 6.787 C 13.212 6.831,13.103 6.959,12.992 7.073 L 12.789 7.279 13.047 7.542 C 13.382 7.883,13.453 8.024,13.453 8.348 C 13.453 8.558,13.445 8.592,13.353 8.779 C 13.213 9.062,13.000 9.258,12.753 9.331 C 12.402 9.434,12.125 9.471,11.609 9.486 C 11.034 9.502,10.614 9.471,10.027 9.369 C 9.814 9.333,9.591 9.296,9.531 9.288 C 9.384 9.269,9.204 9.351,9.105 9.479 C 8.987 9.634,8.987 9.804,9.106 10.213 C 9.345 11.036,9.427 11.647,9.425 12.573 C 9.423 13.309,9.391 13.646,9.268 14.227 C 9.174 14.671,9.154 14.730,9.069 14.811 C 8.932 14.943,8.491 15.030,8.310 14.961 C 8.184 14.913,8.032 14.750,7.991 14.618 C 7.970 14.550,7.938 14.319,7.921 14.107 C 7.845 13.160,7.667 12.181,7.466 11.613 C 7.085 10.539,6.074 9.287,5.013 8.574 C 4.696 8.361,4.152 8.100,3.769 7.976 C 3.391 7.853,3.363 7.840,3.222 7.713 C 2.998 7.510,3.013 7.688,3.013 5.280 C 3.013 3.200,3.015 3.142,3.066 3.040 C 3.123 2.930,3.246 2.822,3.367 2.776 C 3.407 2.760,3.605 2.724,3.807 2.694 C 4.650 2.570,5.195 2.370,5.983 1.896 C 6.627 1.508,6.969 1.372,7.453 1.310 C 7.556 1.297,8.576 1.288,9.720 1.290 C 11.635 1.294,11.811 1.298,11.940 1.341 " stroke="none" fill="black" fill-rule="evenodd"></path></svg>