<svg class="bi bi-hash" width="1em" height="1em" viewBox="0 0 16 16" fill="currentColor" xmlns="http://www.w3.org/2000/svg"><path d="M7.331 2.569 C 7.109 2.686,7.098 2.719,6.800 4.168 C 6.654 4.884,6.533 5.475,6.533 5.481 C 6.533 5.488,6.241 5.493,5.884 5.493 C 5.214 5.493,5.125 5.505,4.977 5.608 C 4.819 5.718,4.753 6.023,4.841 6.233 C 4.894 6.361,4.949 6.419,5.080 6.489 C 5.177 6.541,5.236 6.547,5.753 6.555 C 6.318 6.565,6.320 6.565,6.306 6.622 C 6.285 6.712,5.813 9.036,5.813 9.050 C 5.813 9.057,5.498 9.066,5.113 9.072 C 4.377 9.082,4.292 9.095,4.151 9.221 C 4.016 9.341,3.965 9.615,4.039 9.822 C 4.084 9.950,4.145 10.017,4.280 10.089 C 4.378 10.142,4.435 10.147,4.980 10.155 C 5.366 10.161,5.573 10.174,5.573 10.192 C 5.573 10.207,5.459 10.769,5.320 11.440 C 5.071 12.640,5.037 12.878,5.095 13.032 C 5.209 13.335,5.612 13.428,5.899 13.218 C 6.050 13.107,6.094 12.957,6.375 11.573 C 6.522 10.847,6.649 10.232,6.656 10.207 C 6.669 10.163,6.747 10.160,7.789 10.160 L 8.908 10.160 8.893 10.220 C 8.800 10.613,8.373 12.757,8.373 12.833 C 8.373 12.946,8.431 13.104,8.501 13.183 C 8.571 13.261,8.747 13.332,8.874 13.333 C 9.086 13.334,9.265 13.224,9.363 13.033 C 9.403 12.956,9.973 10.293,9.973 10.185 C 9.973 10.173,10.294 10.159,10.687 10.155 C 11.363 10.147,11.406 10.144,11.520 10.087 C 11.918 9.889,11.891 9.264,11.479 9.123 C 11.409 9.099,11.178 9.082,10.793 9.074 C 10.474 9.067,10.213 9.052,10.213 9.042 C 10.213 9.024,10.679 6.740,10.706 6.622 C 10.720 6.564,10.725 6.564,11.460 6.555 C 12.174 6.547,12.205 6.544,12.327 6.484 C 12.506 6.396,12.593 6.242,12.593 6.017 C 12.593 5.772,12.499 5.623,12.287 5.535 C 12.207 5.501,12.067 5.493,11.559 5.493 C 10.972 5.493,10.931 5.490,10.943 5.447 C 11.009 5.222,11.420 3.127,11.421 3.013 C 11.422 2.855,11.376 2.741,11.276 2.650 C 11.013 2.411,10.597 2.479,10.432 2.787 C 10.409 2.831,10.269 3.455,10.121 4.173 L 9.853 5.480 8.740 5.487 C 7.940 5.492,7.627 5.486,7.627 5.464 C 7.627 5.448,7.736 4.911,7.869 4.271 C 8.137 2.980,8.144 2.908,8.015 2.722 C 7.869 2.512,7.566 2.444,7.331 2.569 M9.653 6.541 C 9.653 6.570,9.145 9.077,9.138 9.084 C 9.133 9.090,8.619 9.091,7.996 9.087 L 6.863 9.080 7.110 7.893 C 7.245 7.241,7.364 6.668,7.373 6.620 L 7.389 6.533 8.521 6.533 C 9.144 6.533,9.653 6.537,9.653 6.541 " stroke="none" fill="black" fill-rule="evenodd"></path></svg>