<svg class="bi bi-hexagon-half" width="1em" height="1em" viewBox="0 0 16 16" fill="currentColor" xmlns="http://www.w3.org/2000/svg"><path d="M7.720 0.044 C 7.560 0.092,1.489 3.700,1.319 3.848 C 1.167 3.980,1.043 4.232,1.012 4.470 C 0.982 4.706,0.981 11.289,1.011 11.525 C 1.042 11.763,1.142 11.972,1.300 12.126 C 1.472 12.295,7.514 15.895,7.732 15.958 C 7.921 16.013,8.093 16.011,8.285 15.951 C 8.518 15.879,14.528 12.295,14.701 12.126 C 14.858 11.972,14.958 11.763,14.989 11.525 C 15.019 11.292,15.019 4.708,14.989 4.475 C 14.958 4.237,14.858 4.028,14.701 3.874 C 14.528 3.705,8.518 0.121,8.285 0.049 C 8.098 -0.009,7.902 -0.011,7.720 0.044 M11.023 2.800 L 13.999 4.573 13.999 8.000 L 13.999 11.427 11.023 13.200 C 9.386 14.175,8.036 14.977,8.023 14.982 C 8.010 14.987,8.000 11.979,8.000 8.000 C 8.000 4.021,8.010 1.013,8.023 1.018 C 8.036 1.023,9.386 1.825,11.023 2.800 " stroke="none" fill="black" fill-rule="evenodd"></path></svg>