<svg class="bi bi-house-fill" width="1em" height="1em" viewBox="0 0 16 16" fill="currentColor" xmlns="http://www.w3.org/2000/svg"><path d="M7.773 1.238 C 7.700 1.256,7.586 1.298,7.520 1.331 C 7.371 1.407,0.637 8.120,0.558 8.272 C 0.501 8.381,0.491 8.568,0.535 8.685 C 0.570 8.778,0.682 8.899,0.782 8.951 C 0.873 8.998,1.118 9.003,1.205 8.959 C 1.239 8.942,2.782 7.414,4.633 5.564 L 8.000 2.200 11.367 5.564 C 13.218 7.414,14.761 8.942,14.795 8.959 C 14.882 9.003,15.127 8.998,15.218 8.951 C 15.486 8.811,15.576 8.485,15.416 8.239 C 15.374 8.173,14.816 7.598,14.176 6.960 L 13.013 5.800 13.013 4.184 C 13.013 3.212,13.003 2.511,12.987 2.426 C 12.953 2.251,12.854 2.116,12.710 2.051 C 12.613 2.007,12.529 2.001,12.000 2.001 C 11.324 2.001,11.243 2.019,11.110 2.193 C 11.008 2.327,10.987 2.497,10.987 3.170 L 10.987 3.772 9.793 2.582 C 8.535 1.327,8.496 1.294,8.192 1.230 C 8.020 1.193,7.946 1.195,7.773 1.238 M4.993 6.300 L 2.000 9.293 2.000 11.467 C 2.001 13.228,2.008 13.673,2.038 13.816 C 2.156 14.371,2.603 14.823,3.173 14.964 C 3.384 15.016,12.605 15.018,12.826 14.966 C 13.380 14.835,13.845 14.366,13.961 13.820 C 13.992 13.672,13.999 13.250,14.000 11.467 L 14.000 9.293 11.007 6.300 C 9.360 4.654,8.007 3.307,8.000 3.307 C 7.993 3.307,6.640 4.654,4.993 6.300 " stroke="none" fill="black" fill-rule="evenodd"></path></svg>