<svg class="bi bi-house-door" width="1em" height="1em" viewBox="0 0 16 16" fill="currentColor" xmlns="http://www.w3.org/2000/svg"><path d="M7.907 1.013 C 7.863 1.023,7.791 1.050,7.747 1.074 C 7.703 1.097,6.292 2.494,4.611 4.178 C 1.948 6.846,1.551 7.254,1.524 7.350 C 1.480 7.507,1.480 14.513,1.524 14.643 C 1.572 14.783,1.648 14.876,1.769 14.941 L 1.880 15.000 4.253 15.000 L 6.627 15.000 6.734 14.939 C 6.870 14.860,6.963 14.724,6.990 14.565 C 7.001 14.496,7.011 13.555,7.012 12.473 L 7.013 10.507 7.999 10.507 L 8.985 10.507 8.992 12.567 C 8.999 14.446,9.004 14.634,9.045 14.709 C 9.104 14.816,9.261 14.954,9.354 14.980 C 9.394 14.991,10.483 15.000,11.773 15.000 L 14.120 15.000 14.231 14.941 C 14.352 14.876,14.428 14.783,14.476 14.643 C 14.520 14.511,14.520 7.506,14.475 7.350 C 14.449 7.259,14.323 7.118,13.729 6.519 L 13.013 5.798 13.013 4.183 C 13.013 3.212,13.003 2.511,12.987 2.426 C 12.953 2.251,12.854 2.116,12.710 2.051 C 12.613 2.007,12.529 2.001,12.000 2.001 C 11.324 2.001,11.243 2.019,11.110 2.193 C 11.008 2.327,10.987 2.497,10.987 3.170 L 10.987 3.773 9.647 2.436 C 8.910 1.700,8.271 1.081,8.227 1.060 C 8.119 1.007,8.003 0.990,7.907 1.013 M10.753 4.953 L 13.493 7.693 13.493 10.847 L 13.493 14.000 11.747 14.000 L 10.000 14.000 9.999 11.953 C 9.999 10.025,9.996 9.900,9.950 9.799 C 9.890 9.667,9.765 9.558,9.633 9.521 C 9.497 9.484,6.503 9.484,6.367 9.521 C 6.235 9.558,6.110 9.667,6.050 9.799 C 6.004 9.900,6.001 10.025,6.001 11.953 L 6.000 14.000 4.253 14.000 L 2.507 14.000 2.507 10.847 L 2.507 7.693 5.247 4.953 C 6.754 3.446,7.993 2.213,8.000 2.213 C 8.007 2.213,9.246 3.446,10.753 4.953 " stroke="none" fill="black" fill-rule="evenodd"></path></svg>