<svg class="bi bi-house-door-fill" width="1em" height="1em" viewBox="0 0 16 16" fill="currentColor" xmlns="http://www.w3.org/2000/svg"><path d="M7.907 1.013 C 7.863 1.023,7.791 1.050,7.747 1.074 C 7.703 1.097,6.292 2.494,4.611 4.178 C 1.948 6.846,1.551 7.254,1.524 7.350 C 1.480 7.507,1.480 14.513,1.524 14.643 C 1.572 14.783,1.648 14.876,1.769 14.941 L 1.880 15.000 4.000 15.000 L 6.120 15.000 6.231 14.941 C 6.337 14.884,6.415 14.798,6.469 14.680 C 6.483 14.650,6.499 13.784,6.507 12.729 C 6.520 10.863,6.521 10.829,6.575 10.757 C 6.605 10.716,6.675 10.646,6.731 10.602 L 6.832 10.520 7.996 10.520 L 9.160 10.520 9.247 10.582 C 9.294 10.616,9.366 10.687,9.407 10.740 L 9.480 10.836 9.493 12.731 C 9.501 13.785,9.517 14.650,9.531 14.680 C 9.585 14.798,9.663 14.884,9.769 14.941 L 9.880 15.000 12.000 15.000 L 14.120 15.000 14.231 14.941 C 14.352 14.876,14.428 14.783,14.476 14.643 C 14.520 14.511,14.520 7.506,14.475 7.350 C 14.449 7.259,14.323 7.118,13.729 6.519 L 13.013 5.798 13.013 4.183 C 13.013 3.212,13.003 2.511,12.987 2.426 C 12.953 2.251,12.854 2.116,12.710 2.051 C 12.613 2.007,12.529 2.001,12.000 2.001 C 11.324 2.001,11.243 2.019,11.110 2.193 C 11.008 2.327,10.987 2.497,10.987 3.170 L 10.987 3.773 9.647 2.436 C 8.910 1.700,8.271 1.081,8.227 1.060 C 8.119 1.007,8.003 0.990,7.907 1.013 " stroke="none" fill="black" fill-rule="evenodd"></path></svg>