<svg class="bi bi-images" width="1em" height="1em" viewBox="0 0 16 16" fill="currentColor" xmlns="http://www.w3.org/2000/svg"><path d="M3.507 1.066 C 2.874 1.234,2.386 1.663,2.142 2.267 C 2.073 2.438,2.000 2.773,2.000 2.919 L 2.000 3.006 1.793 3.020 C 1.097 3.068,0.420 3.577,0.146 4.259 C -0.007 4.640,-0.002 4.458,0.006 9.093 L 0.014 13.347 0.075 13.546 C 0.290 14.241,0.803 14.740,1.508 14.939 L 1.720 14.999 6.773 15.008 C 10.043 15.013,11.933 15.006,12.128 14.989 C 12.625 14.944,13.000 14.788,13.336 14.484 C 13.700 14.156,13.940 13.681,13.993 13.187 L 14.013 13.000 14.218 12.981 C 14.659 12.941,15.086 12.734,15.413 12.401 C 15.713 12.096,15.884 11.775,15.961 11.370 C 16.019 11.069,16.019 2.931,15.961 2.630 C 15.884 2.225,15.713 1.904,15.413 1.599 C 15.186 1.367,14.939 1.211,14.627 1.102 L 14.413 1.027 9.053 1.021 C 3.903 1.016,3.686 1.018,3.507 1.066 M14.297 2.053 C 14.600 2.149,14.821 2.359,14.932 2.657 C 14.986 2.801,14.987 2.845,14.987 7.000 C 14.987 11.155,14.986 11.199,14.932 11.343 C 14.861 11.534,14.749 11.685,14.593 11.800 C 14.467 11.893,14.184 12.000,14.064 12.000 L 14.001 12.000 13.994 8.313 L 13.987 4.627 13.924 4.440 C 13.803 4.081,13.660 3.845,13.414 3.600 C 13.158 3.345,12.939 3.206,12.627 3.099 L 12.413 3.027 7.710 3.020 L 3.006 3.013 3.020 2.858 C 3.053 2.498,3.330 2.170,3.704 2.051 C 3.845 2.005,4.131 2.003,8.991 2.001 C 14.060 2.000,14.130 2.001,14.297 2.053 M12.430 4.100 C 12.729 4.246,12.931 4.521,12.985 4.857 C 13.017 5.054,13.025 10.481,12.993 10.478 C 12.982 10.477,12.583 10.046,12.107 9.521 C 11.630 8.995,11.212 8.552,11.179 8.536 C 11.090 8.493,10.891 8.500,10.792 8.549 C 10.745 8.573,9.858 9.439,8.821 10.474 L 6.936 12.357 5.562 11.441 C 4.310 10.607,4.176 10.525,4.057 10.513 C 3.985 10.506,3.886 10.514,3.836 10.530 C 3.778 10.549,3.253 10.998,2.386 11.769 L 1.027 12.978 1.020 8.890 C 1.013 4.835,1.014 4.801,1.067 4.657 C 1.178 4.363,1.398 4.151,1.693 4.055 C 1.850 4.004,1.960 4.003,7.053 4.008 L 12.253 4.013 12.430 4.100 M4.167 6.039 C 3.645 6.158,3.192 6.597,3.053 7.120 C 3.003 7.310,3.003 7.681,3.053 7.875 C 3.120 8.131,3.246 8.345,3.450 8.550 C 3.754 8.853,4.072 8.987,4.493 8.987 C 4.937 8.987,5.252 8.857,5.560 8.548 C 6.149 7.956,6.144 7.034,5.549 6.436 C 5.381 6.267,5.236 6.176,4.990 6.086 C 4.767 6.005,4.406 5.984,4.167 6.039 " stroke="none" fill="black" fill-rule="evenodd"></path></svg>