<svg class="bi bi-info-circle" width="1em" height="1em" viewBox="0 0 16 16" fill="currentColor" xmlns="http://www.w3.org/2000/svg"><path d="M7.293 0.030 C 4.174 0.300,1.460 2.423,0.439 5.390 C -0.989 9.546,1.195 14.077,5.331 15.539 C 8.244 16.569,11.468 15.838,13.653 13.653 C 16.473 10.834,16.787 6.378,14.390 3.190 C 12.867 1.166,10.473 -0.019,7.947 0.004 C 7.734 0.006,7.440 0.018,7.293 0.030 M8.768 1.041 C 10.349 1.213,11.838 1.934,12.973 3.079 C 13.491 3.601,13.952 4.250,14.280 4.919 C 14.518 5.405,14.657 5.783,14.783 6.284 C 14.947 6.939,14.973 7.177,14.973 8.000 C 14.973 8.823,14.947 9.061,14.783 9.716 C 14.657 10.218,14.517 10.596,14.280 11.080 C 13.369 12.933,11.704 14.284,9.716 14.783 C 9.061 14.947,8.823 14.973,8.000 14.973 C 7.177 14.973,6.938 14.947,6.287 14.783 C 4.507 14.336,2.953 13.185,2.008 11.613 C 1.484 10.744,1.149 9.755,1.041 8.768 C 1.005 8.434,1.005 7.566,1.041 7.232 C 1.237 5.430,2.177 3.705,3.581 2.572 C 4.606 1.745,5.923 1.187,7.187 1.044 C 7.491 1.010,8.462 1.008,8.768 1.041 M7.773 3.531 C 7.473 3.605,7.224 3.806,7.098 4.075 C 7.035 4.209,7.027 4.259,7.027 4.507 C 7.027 4.763,7.033 4.800,7.105 4.941 C 7.201 5.131,7.393 5.314,7.594 5.409 C 7.726 5.470,7.781 5.480,8.001 5.480 C 8.234 5.480,8.269 5.473,8.432 5.393 C 8.632 5.294,8.810 5.115,8.910 4.914 C 8.963 4.805,8.972 4.746,8.973 4.507 C 8.973 4.258,8.965 4.209,8.902 4.075 C 8.772 3.798,8.504 3.590,8.192 3.523 C 8.020 3.487,7.946 3.488,7.773 3.531 M7.753 6.733 C 7.154 6.810,6.659 6.879,6.651 6.887 C 6.629 6.908,6.557 7.233,6.571 7.246 C 6.577 7.253,6.697 7.280,6.836 7.307 C 7.228 7.383,7.307 7.437,7.307 7.630 C 7.307 7.700,7.130 8.577,6.915 9.579 C 6.533 11.358,6.524 11.408,6.522 11.733 C 6.520 12.048,6.524 12.075,6.594 12.207 C 6.731 12.467,6.982 12.587,7.388 12.587 C 7.821 12.587,8.345 12.408,8.671 12.149 C 8.814 12.036,8.824 12.020,8.864 11.843 C 8.888 11.740,8.907 11.646,8.907 11.633 C 8.907 11.620,8.822 11.652,8.719 11.703 C 8.560 11.782,8.495 11.798,8.307 11.808 C 8.086 11.820,8.081 11.819,8.001 11.739 C 7.929 11.666,7.920 11.640,7.920 11.497 C 7.920 11.391,8.086 10.554,8.414 9.008 C 8.686 7.728,8.915 6.659,8.923 6.633 C 8.940 6.576,9.067 6.565,7.753 6.733 " stroke="none" fill="black" fill-rule="evenodd"></path></svg>