<svg class="bi bi-kanban" width="1em" height="1em" viewBox="0 0 16 16" fill="currentColor" xmlns="http://www.w3.org/2000/svg"><path d="M2.107 0.039 C 1.349 0.191,0.756 0.763,0.560 1.531 C 0.507 1.739,0.507 1.813,0.507 8.000 C 0.507 14.187,0.507 14.261,0.560 14.469 C 0.745 15.193,1.277 15.736,2.000 15.938 C 2.165 15.984,2.452 15.987,8.000 15.987 C 14.551 15.987,13.937 16.006,14.389 15.785 C 14.888 15.540,15.242 15.118,15.417 14.559 L 15.480 14.360 15.480 8.000 L 15.480 1.640 15.418 1.440 C 15.204 0.757,14.714 0.276,14.013 0.063 C 13.861 0.017,13.580 0.014,8.067 0.010 C 3.401 0.006,2.246 0.011,2.107 0.039 M13.925 1.098 C 14.202 1.228,14.410 1.496,14.477 1.808 C 14.519 2.009,14.519 13.991,14.477 14.192 C 14.384 14.628,14.052 14.931,13.605 14.989 C 13.372 15.019,2.628 15.019,2.395 14.989 C 1.948 14.931,1.616 14.628,1.523 14.192 C 1.481 13.991,1.481 2.009,1.523 1.808 C 1.597 1.459,1.804 1.211,2.131 1.076 L 2.280 1.014 8.027 1.021 L 13.773 1.027 13.925 1.098 M3.187 2.055 C 3.099 2.083,2.969 2.149,2.899 2.201 C 2.740 2.319,2.573 2.572,2.533 2.755 C 2.512 2.854,2.506 3.941,2.512 6.573 L 2.520 10.253 2.591 10.406 C 2.741 10.726,3.025 10.935,3.378 10.986 C 3.613 11.020,4.387 11.020,4.622 10.986 C 4.975 10.935,5.259 10.726,5.409 10.406 L 5.480 10.253 5.488 6.573 C 5.494 3.941,5.488 2.854,5.467 2.755 C 5.427 2.572,5.260 2.318,5.101 2.201 C 4.863 2.025,4.722 2.000,3.991 2.001 C 3.428 2.003,3.327 2.010,3.187 2.055 M7.187 2.055 C 7.099 2.083,6.969 2.149,6.899 2.201 C 6.740 2.318,6.573 2.572,6.533 2.755 C 6.512 2.852,6.506 3.402,6.512 4.573 L 6.520 6.253 6.591 6.406 C 6.741 6.726,7.025 6.935,7.378 6.986 C 7.613 7.020,8.387 7.020,8.622 6.986 C 8.975 6.935,9.259 6.726,9.409 6.406 L 9.480 6.253 9.488 4.573 C 9.494 3.402,9.488 2.852,9.467 2.755 C 9.427 2.572,9.260 2.318,9.101 2.201 C 8.863 2.025,8.722 2.000,7.991 2.001 C 7.428 2.003,7.327 2.010,7.187 2.055 M11.187 2.055 C 10.886 2.152,10.635 2.407,10.545 2.708 C 10.488 2.897,10.487 13.100,10.544 13.290 C 10.635 13.590,10.883 13.841,11.192 13.944 C 11.342 13.995,11.421 14.000,11.997 14.000 C 12.550 14.000,12.657 13.993,12.799 13.949 C 13.103 13.854,13.365 13.592,13.456 13.290 C 13.513 13.100,13.512 2.897,13.455 2.708 C 13.363 2.403,13.112 2.151,12.804 2.053 C 12.653 2.006,12.563 2.000,11.991 2.001 C 11.428 2.003,11.327 2.010,11.187 2.055 " stroke="none" fill="black" fill-rule="evenodd"></path></svg>