<svg class="bi bi-layout-text-window-reverse" width="1em" height="1em" viewBox="0 0 16 16" fill="currentColor" xmlns="http://www.w3.org/2000/svg"><path d="M1.600 0.042 C 0.952 0.181,0.407 0.629,0.157 1.226 C -0.010 1.625,0.000 1.207,0.000 8.000 C 0.000 14.793,-0.010 14.375,0.157 14.774 C 0.350 15.235,0.765 15.650,1.226 15.843 C 1.625 16.010,1.207 16.000,8.000 16.000 C 13.536 16.000,14.211 15.996,14.394 15.958 C 15.184 15.796,15.796 15.184,15.958 14.394 C 15.996 14.211,16.000 13.536,16.000 8.000 C 16.000 2.464,15.996 1.789,15.958 1.606 C 15.796 0.816,15.184 0.204,14.394 0.042 C 14.210 0.004,13.540 0.000,7.981 0.002 C 2.765 0.004,1.746 0.010,1.600 0.042 M14.428 1.099 C 14.616 1.192,14.808 1.384,14.901 1.572 C 14.973 1.719,14.973 1.725,14.982 2.367 L 14.990 3.013 8.002 3.013 L 1.013 3.013 1.013 2.400 C 1.013 1.860,1.019 1.771,1.065 1.652 C 1.162 1.395,1.389 1.166,1.645 1.066 C 1.769 1.017,1.962 1.016,8.027 1.021 L 14.280 1.027 14.428 1.099 M4.000 9.509 L 4.000 15.018 2.913 15.007 C 1.986 14.998,1.807 14.990,1.690 14.951 C 1.417 14.862,1.155 14.606,1.063 14.338 C 1.018 14.207,1.015 13.924,1.014 9.100 L 1.013 4.000 2.507 4.000 L 4.000 4.000 4.000 9.509 M14.986 9.100 C 14.985 13.924,14.982 14.207,14.937 14.338 C 14.845 14.604,14.585 14.859,14.310 14.953 C 14.182 14.997,13.873 15.000,9.593 15.007 L 5.013 15.015 5.013 9.507 L 5.013 4.000 10.000 4.000 L 14.987 4.000 14.986 9.100 M7.290 6.051 C 7.132 6.123,7.033 6.264,7.019 6.441 C 7.003 6.628,7.023 6.699,7.124 6.814 C 7.300 7.015,7.071 7.000,10.000 7.000 L 12.627 7.000 12.736 6.938 C 12.796 6.903,12.877 6.825,12.918 6.764 C 12.982 6.666,12.989 6.633,12.981 6.477 C 12.970 6.266,12.884 6.130,12.710 6.051 C 12.605 6.003,12.482 6.001,10.000 6.001 C 7.518 6.001,7.395 6.003,7.290 6.051 M7.266 9.063 C 7.162 9.126,7.045 9.265,7.023 9.350 C 7.014 9.386,7.012 9.480,7.019 9.559 C 7.033 9.736,7.132 9.877,7.290 9.949 C 7.395 9.997,7.518 9.999,10.000 9.999 C 12.482 9.999,12.605 9.997,12.710 9.949 C 12.884 9.870,12.970 9.734,12.981 9.523 C 12.989 9.367,12.982 9.334,12.918 9.236 C 12.877 9.175,12.800 9.100,12.745 9.069 C 12.646 9.014,12.636 9.013,9.996 9.013 C 7.463 9.014,7.343 9.016,7.266 9.063 M7.290 12.051 C 7.132 12.123,7.033 12.264,7.019 12.441 C 7.003 12.628,7.023 12.699,7.124 12.814 C 7.300 13.015,7.071 13.000,10.000 13.000 L 12.627 13.000 12.736 12.938 C 12.796 12.903,12.877 12.825,12.918 12.764 C 12.982 12.666,12.989 12.633,12.981 12.477 C 12.970 12.266,12.884 12.130,12.710 12.051 C 12.605 12.003,12.482 12.001,10.000 12.001 C 7.518 12.001,7.395 12.003,7.290 12.051 " stroke="none" fill="black" fill-rule="evenodd"></path></svg>