<svg class="bi bi-layout-sidebar-inset" width="1em" height="1em" viewBox="0 0 16 16" fill="currentColor" xmlns="http://www.w3.org/2000/svg"><path d="M1.507 1.066 C 0.743 1.268,0.185 1.863,0.039 2.630 C -0.019 2.932,-0.019 13.068,0.039 13.370 C 0.116 13.775,0.287 14.096,0.587 14.401 C 0.927 14.748,1.332 14.938,1.833 14.987 C 2.181 15.021,13.819 15.021,14.167 14.987 C 14.668 14.938,15.073 14.748,15.413 14.401 C 15.713 14.096,15.884 13.775,15.961 13.370 C 16.019 13.068,16.019 2.932,15.961 2.630 C 15.884 2.225,15.713 1.904,15.413 1.599 C 15.186 1.367,14.939 1.211,14.627 1.102 L 14.413 1.027 8.053 1.021 C 1.929 1.016,1.686 1.018,1.507 1.066 M14.297 2.053 C 14.600 2.149,14.821 2.359,14.932 2.657 C 14.986 2.801,14.987 2.840,14.987 8.000 C 14.987 13.160,14.986 13.199,14.932 13.343 C 14.821 13.641,14.600 13.851,14.297 13.947 C 14.130 13.999,14.058 14.000,8.002 14.000 C 1.243 14.000,1.740 14.013,1.461 13.835 C 1.306 13.737,1.196 13.614,1.100 13.432 L 1.027 13.293 1.027 8.000 L 1.027 2.707 1.099 2.570 C 1.239 2.304,1.434 2.137,1.704 2.051 C 1.846 2.005,2.170 2.003,7.991 2.001 C 14.060 2.000,14.130 2.001,14.297 2.053 M3.645 3.065 C 3.389 3.167,3.168 3.389,3.058 3.659 L 3.000 3.800 3.000 8.000 L 3.000 12.200 3.058 12.341 C 3.177 12.631,3.427 12.868,3.704 12.954 C 3.836 12.995,3.987 13.000,5.000 13.000 C 6.013 13.000,6.164 12.995,6.296 12.954 C 6.582 12.865,6.855 12.597,6.953 12.310 C 6.996 12.183,7.000 11.895,7.008 8.147 C 7.013 5.433,7.007 4.050,6.988 3.907 C 6.972 3.786,6.931 3.635,6.894 3.559 C 6.808 3.383,6.612 3.190,6.428 3.099 L 6.280 3.027 5.027 3.021 C 3.851 3.015,3.765 3.018,3.645 3.065 " stroke="none" fill="black" fill-rule="evenodd"></path></svg>