<svg class="bi bi-layout-wtf" width="1em" height="1em" viewBox="0 0 16 16" fill="currentColor" xmlns="http://www.w3.org/2000/svg"><path d="M0.767 0.029 C 0.489 0.095,0.217 0.324,0.088 0.600 L 0.013 0.760 0.013 5.000 L 0.013 9.240 0.088 9.400 C 0.186 9.610,0.391 9.816,0.597 9.911 L 0.760 9.987 3.000 9.987 L 5.240 9.987 5.413 9.904 C 5.633 9.799,5.797 9.634,5.903 9.413 L 5.987 9.240 5.987 5.000 L 5.987 0.760 5.903 0.587 C 5.797 0.366,5.633 0.201,5.413 0.096 L 5.240 0.013 3.053 0.009 C 1.834 0.007,0.822 0.015,0.767 0.029 M4.987 5.013 L 4.987 9.013 3.000 9.013 L 1.013 9.013 1.013 5.013 L 1.013 1.013 3.000 1.013 L 4.987 1.013 4.987 5.013 M8.707 1.042 C 8.421 1.125,8.143 1.406,8.053 1.700 C 8.000 1.877,7.999 1.924,8.006 4.560 L 8.013 7.240 8.088 7.400 C 8.186 7.610,8.391 7.816,8.597 7.911 L 8.760 7.987 11.440 7.994 C 14.066 8.001,14.123 8.000,14.298 7.947 C 14.606 7.854,14.839 7.622,14.952 7.296 C 14.997 7.169,15.000 6.983,15.000 4.507 C 15.000 2.063,14.996 1.842,14.954 1.704 C 14.866 1.422,14.612 1.158,14.338 1.063 C 14.209 1.018,14.024 1.015,11.493 1.017 C 10.005 1.017,8.751 1.029,8.707 1.042 M14.000 4.507 L 14.000 7.013 11.507 7.013 L 9.013 7.013 9.013 4.507 L 9.013 2.000 11.507 2.000 L 14.000 2.000 14.000 4.507 M8.767 10.029 C 8.489 10.095,8.217 10.324,8.088 10.600 L 8.013 10.760 8.013 12.000 L 8.013 13.240 8.089 13.403 C 8.184 13.609,8.390 13.814,8.600 13.912 L 8.760 13.987 12.000 13.987 L 15.240 13.987 15.413 13.904 C 15.633 13.799,15.797 13.634,15.903 13.413 L 15.987 13.240 15.987 12.000 L 15.987 10.760 15.903 10.587 C 15.797 10.366,15.633 10.201,15.413 10.096 L 15.240 10.013 12.053 10.009 C 10.254 10.007,8.823 10.015,8.767 10.029 M14.987 12.013 L 14.987 13.013 12.000 13.013 L 9.013 13.013 9.013 12.013 L 9.013 11.013 12.000 11.013 L 14.987 11.013 14.987 12.013 M2.767 12.028 C 2.488 12.096,2.216 12.325,2.088 12.600 L 2.013 12.760 2.013 14.000 L 2.013 15.240 2.089 15.403 C 2.184 15.609,2.390 15.814,2.600 15.912 L 2.760 15.987 4.000 15.987 L 5.240 15.987 5.413 15.904 C 5.633 15.799,5.797 15.634,5.903 15.413 L 5.987 15.240 5.987 14.000 L 5.987 12.760 5.903 12.587 C 5.797 12.366,5.633 12.201,5.413 12.096 L 5.240 12.013 4.053 12.009 C 3.401 12.006,2.822 12.015,2.767 12.028 M4.987 14.013 L 4.987 15.013 4.000 15.013 L 3.013 15.013 3.013 14.013 L 3.013 13.013 4.000 13.013 L 4.987 13.013 4.987 14.013 " stroke="none" fill="black" fill-rule="evenodd"></path></svg>