<svg class="bi bi-layout-split" width="1em" height="1em" viewBox="0 0 16 16" fill="currentColor" xmlns="http://www.w3.org/2000/svg"><path d="M1.507 1.066 C 0.743 1.268,0.185 1.863,0.039 2.630 C -0.019 2.932,-0.019 13.068,0.039 13.370 C 0.116 13.775,0.287 14.096,0.587 14.401 C 0.927 14.748,1.332 14.938,1.833 14.987 C 2.181 15.021,13.819 15.021,14.167 14.987 C 14.668 14.938,15.073 14.748,15.413 14.401 C 15.713 14.096,15.884 13.775,15.961 13.370 C 16.019 13.068,16.019 2.932,15.961 2.630 C 15.884 2.225,15.713 1.904,15.413 1.599 C 15.186 1.367,14.939 1.211,14.627 1.102 L 14.413 1.027 8.053 1.021 C 1.929 1.016,1.686 1.018,1.507 1.066 M7.493 8.000 L 7.493 14.000 4.685 14.000 C 1.592 14.000,1.731 14.007,1.461 13.835 C 1.306 13.737,1.196 13.614,1.100 13.432 L 1.027 13.293 1.027 8.000 L 1.027 2.707 1.099 2.570 C 1.239 2.304,1.434 2.137,1.704 2.051 C 1.843 2.006,2.040 2.003,4.673 2.001 L 7.493 2.000 7.493 8.000 M14.297 2.053 C 14.600 2.149,14.821 2.359,14.932 2.657 C 14.986 2.801,14.987 2.840,14.987 8.000 C 14.987 13.160,14.986 13.199,14.932 13.343 C 14.821 13.641,14.600 13.851,14.297 13.947 C 14.132 13.999,14.056 14.000,11.317 14.000 L 8.507 14.000 8.507 8.000 L 8.507 2.000 11.317 2.000 C 14.056 2.000,14.132 2.001,14.297 2.053 " stroke="none" fill="black" fill-rule="evenodd"></path></svg>