<svg class="bi bi-lightning-fill" width="1em" height="1em" viewBox="0 0 16 16" fill="currentColor" xmlns="http://www.w3.org/2000/svg"><path d="M10.781 0.058 C 10.646 0.132,2.640 8.624,2.559 8.779 C 2.464 8.958,2.511 9.235,2.657 9.363 C 2.809 9.497,2.755 9.493,4.600 9.493 C 6.229 9.493,6.323 9.496,6.309 9.540 C 5.296 12.809,4.507 15.423,4.507 15.505 C 4.507 15.865,4.910 16.113,5.219 15.942 C 5.354 15.868,13.360 7.376,13.441 7.221 C 13.567 6.983,13.467 6.683,13.221 6.557 C 13.127 6.509,13.037 6.507,11.399 6.507 C 9.771 6.507,9.677 6.504,9.691 6.460 C 9.698 6.434,10.107 5.106,10.599 3.507 C 11.134 1.770,11.493 0.559,11.493 0.496 C 11.493 0.135,11.090 -0.113,10.781 0.058 " stroke="none" fill="black" fill-rule="evenodd"></path></svg>