<svg class="bi bi-lock" width="1em" height="1em" viewBox="0 0 16 16" fill="currentColor" xmlns="http://www.w3.org/2000/svg"><path d="M7.440 0.544 C 7.067 0.611,6.797 0.700,6.458 0.868 C 5.480 1.355,4.826 2.191,4.571 3.280 C 4.529 3.456,4.522 3.689,4.508 5.240 L 4.493 7.000 4.293 7.018 C 4.038 7.042,3.714 7.144,3.493 7.273 C 3.263 7.406,2.916 7.753,2.779 7.987 C 2.719 8.089,2.636 8.269,2.595 8.387 L 2.520 8.600 2.513 11.425 C 2.505 14.192,2.506 14.254,2.560 14.465 C 2.709 15.055,3.091 15.535,3.613 15.787 C 4.061 16.003,3.704 15.987,8.000 15.987 C 12.300 15.987,11.943 16.003,12.389 15.785 C 12.888 15.540,13.242 15.118,13.417 14.559 L 13.480 14.360 13.480 11.480 L 13.480 8.600 13.405 8.387 C 13.128 7.597,12.428 7.054,11.627 7.007 L 11.507 7.000 11.492 5.240 C 11.479 3.722,11.470 3.454,11.432 3.293 C 11.354 2.967,11.252 2.688,11.104 2.400 C 10.628 1.468,9.760 0.803,8.720 0.573 C 8.449 0.514,7.708 0.497,7.440 0.544 M8.529 1.559 C 8.983 1.655,9.406 1.886,9.750 2.226 C 10.098 2.570,10.308 2.941,10.434 3.433 C 10.492 3.663,10.493 3.696,10.493 5.333 L 10.493 7.000 8.000 7.000 L 5.507 7.000 5.507 5.347 C 5.507 3.873,5.512 3.671,5.553 3.485 C 5.661 3.001,5.886 2.591,6.239 2.239 C 6.655 1.822,7.099 1.608,7.747 1.510 C 7.888 1.489,8.327 1.516,8.529 1.559 M11.925 8.101 C 12.145 8.209,12.345 8.420,12.431 8.633 L 12.493 8.787 12.501 11.400 C 12.507 13.283,12.501 14.058,12.479 14.172 C 12.393 14.620,12.061 14.930,11.605 14.989 C 11.372 15.019,4.628 15.019,4.395 14.989 C 3.939 14.930,3.607 14.620,3.521 14.172 C 3.499 14.058,3.493 13.283,3.499 11.400 L 3.507 8.787 3.568 8.635 C 3.679 8.359,3.955 8.113,4.238 8.036 C 4.333 8.011,5.183 8.004,8.054 8.008 L 11.748 8.013 11.925 8.101 " stroke="none" fill="black" fill-rule="evenodd"></path></svg>