<svg class="bi bi-music-player-fill" width="1em" height="1em" viewBox="0 0 16 16" fill="currentColor" xmlns="http://www.w3.org/2000/svg"><path d="M3.600 0.042 C 2.952 0.181,2.407 0.629,2.157 1.226 C 1.990 1.625,2.000 1.207,2.000 8.000 C 2.000 14.793,1.990 14.375,2.157 14.774 C 2.350 15.235,2.765 15.650,3.226 15.843 C 3.618 16.007,3.409 16.000,8.000 16.000 C 11.714 16.000,12.212 15.995,12.394 15.958 C 13.184 15.796,13.796 15.184,13.958 14.394 C 13.996 14.211,14.000 13.536,14.000 8.000 C 14.000 2.464,13.996 1.789,13.958 1.606 C 13.796 0.816,13.184 0.204,12.394 0.042 C 12.212 0.005,11.717 0.000,7.981 0.002 C 4.480 0.004,3.744 0.011,3.600 0.042 M11.413 2.096 C 11.633 2.201,11.797 2.366,11.903 2.587 L 11.987 2.760 11.987 4.254 L 11.987 5.748 11.899 5.925 C 11.791 6.145,11.580 6.345,11.367 6.431 L 11.213 6.493 8.069 6.501 C 4.643 6.508,4.757 6.513,4.494 6.359 C 4.335 6.266,4.169 6.079,4.084 5.898 L 4.013 5.747 4.013 4.253 L 4.013 2.760 4.088 2.600 C 4.217 2.324,4.489 2.095,4.767 2.029 C 4.823 2.015,6.254 2.007,8.053 2.009 L 11.240 2.013 11.413 2.096 M8.460 8.040 C 9.090 8.134,9.645 8.417,10.109 8.879 C 10.492 9.259,10.754 9.707,10.900 10.230 C 10.968 10.475,10.973 10.529,10.973 11.000 C 10.973 11.471,10.968 11.525,10.900 11.770 C 10.385 13.616,8.351 14.529,6.654 13.676 C 5.895 13.294,5.331 12.602,5.101 11.773 C 5.032 11.525,5.027 11.472,5.027 11.000 C 5.027 10.528,5.032 10.475,5.101 10.227 C 5.513 8.740,6.941 7.811,8.460 8.040 M7.704 10.049 C 7.432 10.139,7.238 10.305,7.099 10.570 C 7.033 10.694,7.027 10.733,7.027 11.000 C 7.027 11.268,7.033 11.305,7.100 11.432 C 7.196 11.614,7.306 11.737,7.461 11.836 C 7.964 12.155,8.626 11.975,8.886 11.446 C 8.968 11.278,8.973 11.250,8.973 10.987 C 8.973 10.718,8.970 10.700,8.882 10.538 C 8.706 10.214,8.413 10.030,8.040 10.010 C 7.907 10.003,7.810 10.014,7.704 10.049 " stroke="none" fill="black" fill-rule="evenodd"></path></svg>