<svg class="bi bi-music-note-beamed" width="1em" height="1em" viewBox="0 0 16 16" fill="currentColor" xmlns="http://www.w3.org/2000/svg"><path d="M13.880 1.114 C 12.928 1.192,5.770 1.930,5.680 1.961 C 5.407 2.052,5.163 2.293,5.047 2.587 C 5.003 2.700,5.000 2.961,4.993 7.047 L 4.985 11.387 4.827 11.307 C 4.622 11.203,4.308 11.099,4.060 11.051 C 3.798 11.001,3.210 11.002,2.939 11.054 C 1.986 11.235,1.246 11.841,1.054 12.599 C 1.002 12.803,1.002 13.197,1.054 13.401 C 1.248 14.165,1.988 14.767,2.957 14.950 C 3.273 15.009,3.951 14.988,4.248 14.909 C 4.738 14.780,5.119 14.566,5.440 14.242 C 5.690 13.989,5.808 13.810,5.915 13.516 L 5.987 13.320 5.994 8.607 C 6.000 4.408,6.005 3.893,6.041 3.893 C 6.093 3.893,13.797 3.126,13.913 3.109 L 14.000 3.097 14.000 6.244 C 14.000 7.975,13.991 9.386,13.980 9.381 C 13.410 9.088,13.027 9.001,12.387 9.020 C 11.914 9.035,11.697 9.080,11.325 9.239 C 10.985 9.385,10.828 9.492,10.559 9.760 C 10.352 9.966,10.284 10.056,10.192 10.240 C 9.648 11.331,10.329 12.511,11.726 12.900 C 11.967 12.967,12.024 12.973,12.493 12.973 C 12.938 12.973,13.028 12.966,13.232 12.912 C 13.745 12.776,14.120 12.571,14.439 12.252 C 14.784 11.906,14.939 11.589,14.988 11.124 C 15.006 10.956,15.013 9.319,15.008 6.387 C 15.000 2.167,14.997 1.900,14.953 1.787 C 14.773 1.331,14.364 1.075,13.880 1.114 " stroke="none" fill="black" fill-rule="evenodd"></path></svg>