<svg class="bi bi-pause" width="1em" height="1em" viewBox="0 0 16 16" fill="currentColor" xmlns="http://www.w3.org/2000/svg"><path d="M5.827 3.533 C 5.693 3.581,5.559 3.723,5.522 3.857 C 5.481 4.004,5.482 11.999,5.523 12.146 C 5.562 12.288,5.719 12.440,5.865 12.480 C 6.132 12.552,6.407 12.399,6.479 12.139 C 6.519 11.995,6.517 3.998,6.477 3.854 C 6.424 3.662,6.190 3.491,5.987 3.495 C 5.957 3.495,5.885 3.513,5.827 3.533 M9.827 3.533 C 9.693 3.581,9.559 3.723,9.522 3.857 C 9.481 4.004,9.482 11.999,9.523 12.146 C 9.562 12.288,9.719 12.440,9.865 12.480 C 10.132 12.552,10.407 12.399,10.479 12.139 C 10.519 11.995,10.517 3.998,10.477 3.854 C 10.424 3.662,10.190 3.491,9.987 3.495 C 9.957 3.495,9.885 3.513,9.827 3.533 " stroke="none" fill="black" fill-rule="evenodd"></path></svg>