<svg class="bi bi-pen" width="1em" height="1em" viewBox="0 0 16 16" fill="currentColor" xmlns="http://www.w3.org/2000/svg"><path d="M13.773 0.944 C 13.521 1.007,13.411 1.089,12.888 1.607 L 12.376 2.114 12.248 2.060 C 11.886 1.906,11.306 1.878,10.936 1.996 L 10.764 2.051 10.560 1.859 C 10.247 1.565,9.887 1.415,9.491 1.414 C 9.300 1.413,8.968 1.498,8.791 1.593 C 8.690 1.647,8.188 2.127,6.913 3.386 C 5.955 4.332,5.140 5.152,5.102 5.207 C 5.017 5.329,4.989 5.469,5.020 5.613 C 5.093 5.953,5.499 6.106,5.789 5.905 C 5.850 5.863,6.627 5.094,7.517 4.198 C 8.406 3.301,9.180 2.535,9.237 2.497 C 9.419 2.374,9.714 2.411,9.869 2.576 L 9.931 2.642 6.061 6.514 C 3.260 9.318,2.175 10.420,2.132 10.507 C 2.099 10.573,1.833 11.341,1.542 12.213 C 1.053 13.679,1.012 13.815,1.011 13.994 C 1.008 14.329,1.141 14.598,1.410 14.800 C 1.588 14.933,1.766 14.991,2.002 14.990 C 2.178 14.989,2.317 14.948,3.803 14.452 C 5.128 14.011,5.442 13.897,5.567 13.812 C 5.792 13.661,13.586 5.850,13.735 5.627 C 13.877 5.415,13.991 5.147,14.041 4.912 C 14.118 4.549,14.072 4.059,13.932 3.741 L 13.868 3.596 14.359 3.063 C 14.879 2.500,14.964 2.375,15.014 2.100 C 15.109 1.588,14.729 1.051,14.192 0.937 C 14.020 0.900,13.946 0.901,13.773 0.944 M11.848 2.979 C 12.035 3.052,12.158 3.152,12.548 3.551 C 12.950 3.961,13.022 4.072,13.072 4.353 C 13.105 4.543,13.072 4.748,12.974 4.947 C 12.922 5.053,12.100 5.887,8.941 9.044 L 4.973 13.008 3.489 13.501 C 2.672 13.772,2.008 13.981,2.014 13.964 C 2.019 13.947,2.241 13.273,2.507 12.467 L 2.991 11.000 6.929 7.065 C 9.294 4.702,10.916 3.101,10.988 3.059 C 11.248 2.907,11.584 2.875,11.848 2.979 " stroke="none" fill="black" fill-rule="evenodd"></path></svg>