<svg class="bi bi-pencil-square" width="1em" height="1em" viewBox="0 0 16 16" fill="currentColor" xmlns="http://www.w3.org/2000/svg"><path d="M13.627 0.559 C 13.575 0.587,13.290 0.854,12.993 1.152 L 12.453 1.694 13.453 2.693 L 14.453 3.693 15.002 3.146 C 15.303 2.846,15.566 2.570,15.586 2.532 C 15.645 2.422,15.660 2.283,15.627 2.158 C 15.599 2.054,15.508 1.952,14.884 1.325 C 14.493 0.931,14.129 0.586,14.074 0.558 C 13.948 0.492,13.750 0.493,13.627 0.559 M2.079 1.063 C 1.575 1.225,1.208 1.601,1.049 2.120 C 1.002 2.273,1.000 2.522,1.000 8.000 C 1.000 13.478,1.002 13.727,1.049 13.880 C 1.212 14.411,1.589 14.788,2.120 14.951 C 2.273 14.998,2.522 15.000,8.013 15.000 L 13.747 15.000 13.955 14.926 C 14.448 14.752,14.780 14.406,14.950 13.893 C 14.996 13.756,14.999 13.561,15.008 10.733 C 15.013 9.076,15.009 7.634,15.000 7.529 C 14.968 7.178,14.781 6.998,14.468 7.018 C 14.265 7.031,14.128 7.120,14.051 7.290 C 14.003 7.395,14.001 7.530,14.000 10.480 C 14.000 12.412,13.990 13.595,13.974 13.654 C 13.941 13.772,13.773 13.939,13.652 13.974 C 13.524 14.010,2.475 14.009,2.343 13.973 C 2.219 13.938,2.036 13.743,2.014 13.622 C 2.005 13.573,2.002 11.012,2.006 7.931 L 2.013 2.329 2.078 2.236 C 2.113 2.184,2.184 2.113,2.236 2.078 L 2.329 2.013 5.747 2.000 L 9.164 1.987 9.272 1.915 C 9.575 1.714,9.560 1.257,9.244 1.064 C 9.162 1.015,9.061 1.014,5.693 1.015 C 2.453 1.016,2.217 1.019,2.079 1.063 M8.341 5.807 L 4.936 9.213 4.479 10.503 C 4.228 11.212,4.028 11.797,4.035 11.804 C 4.042 11.810,4.649 11.708,5.385 11.576 L 6.724 11.336 7.064 11.008 C 7.647 10.446,13.733 4.416,13.733 4.401 C 13.733 4.393,13.286 3.939,12.740 3.393 L 11.746 2.400 8.341 5.807 " stroke="none" fill="black" fill-rule="evenodd"></path></svg>