<svg class="bi bi-person-check-fill" width="1em" height="1em" viewBox="0 0 16 16" fill="currentColor" xmlns="http://www.w3.org/2000/svg"><path d="M5.520 2.041 C 4.371 2.223,3.418 3.084,3.101 4.227 C 3.032 4.475,3.027 4.528,3.027 5.000 C 3.027 5.472,3.032 5.525,3.101 5.773 C 3.420 6.927,4.379 7.784,5.547 7.961 C 7.061 8.191,8.484 7.261,8.900 5.770 C 8.968 5.525,8.973 5.471,8.973 5.000 C 8.973 4.529,8.968 4.475,8.900 4.230 C 8.482 2.732,7.044 1.800,5.520 2.041 M15.400 5.012 C 15.356 5.022,15.290 5.046,15.253 5.065 C 15.217 5.084,14.580 5.704,13.840 6.443 L 12.493 7.786 11.906 7.198 C 11.584 6.874,11.275 6.586,11.221 6.558 C 11.048 6.468,10.812 6.501,10.657 6.637 C 10.511 6.764,10.465 7.041,10.558 7.221 C 10.626 7.352,12.203 8.921,12.307 8.961 C 12.443 9.013,12.631 8.997,12.755 8.923 C 12.926 8.822,15.908 5.822,15.959 5.701 C 16.072 5.428,15.911 5.087,15.640 5.026 C 15.493 4.993,15.480 4.993,15.400 5.012 M4.988 9.042 C 3.209 9.214,1.816 9.826,0.947 10.818 C 0.489 11.341,0.180 11.943,0.052 12.562 C -0.072 13.168,0.044 13.580,0.405 13.814 C 0.691 13.999,0.278 13.987,6.000 13.987 C 11.722 13.987,11.309 13.999,11.595 13.814 C 11.957 13.580,12.072 13.168,11.947 12.560 C 11.777 11.733,11.264 10.915,10.553 10.338 C 9.650 9.604,8.486 9.183,6.973 9.041 C 6.636 9.009,5.322 9.010,4.988 9.042 " stroke="none" fill="black" fill-rule="evenodd"></path></svg>