<svg class="bi bi-person" width="1em" height="1em" viewBox="0 0 16 16" fill="currentColor" xmlns="http://www.w3.org/2000/svg"><path d="M7.520 2.041 C 6.371 2.223,5.418 3.084,5.101 4.227 C 5.032 4.475,5.027 4.528,5.027 5.000 C 5.027 5.472,5.032 5.525,5.101 5.773 C 5.420 6.927,6.379 7.784,7.547 7.961 C 9.061 8.191,10.484 7.261,10.900 5.770 C 10.968 5.525,10.973 5.471,10.973 5.000 C 10.973 4.529,10.968 4.475,10.900 4.230 C 10.754 3.707,10.505 3.279,10.121 2.890 C 9.438 2.199,8.486 1.888,7.520 2.041 M8.627 3.104 C 8.744 3.144,8.924 3.226,9.027 3.286 C 9.248 3.415,9.576 3.740,9.703 3.954 C 10.095 4.618,10.095 5.382,9.703 6.046 C 9.576 6.260,9.248 6.585,9.027 6.714 C 8.924 6.774,8.744 6.857,8.627 6.898 C 8.428 6.967,8.384 6.973,8.000 6.973 C 7.616 6.973,7.572 6.967,7.373 6.898 C 7.061 6.789,6.814 6.633,6.587 6.401 C 6.287 6.096,6.116 5.775,6.039 5.370 C 5.891 4.597,6.230 3.779,6.877 3.349 C 7.266 3.090,7.555 3.010,8.053 3.022 C 8.362 3.029,8.444 3.041,8.627 3.104 M6.988 9.042 C 5.209 9.214,3.816 9.826,2.947 10.818 C 2.489 11.341,2.180 11.943,2.052 12.562 C 1.928 13.168,2.044 13.580,2.405 13.814 C 2.691 13.999,2.278 13.987,8.000 13.987 C 13.722 13.987,13.309 13.999,13.595 13.814 C 13.957 13.580,14.072 13.168,13.947 12.560 C 13.777 11.733,13.264 10.915,12.553 10.338 C 11.650 9.604,10.486 9.183,8.973 9.041 C 8.636 9.009,7.322 9.010,6.988 9.042 M9.053 10.053 C 10.736 10.252,11.894 10.831,12.554 11.804 C 12.780 12.138,12.950 12.556,12.978 12.847 L 12.994 13.013 8.000 13.013 L 3.006 13.013 3.022 12.847 C 3.050 12.556,3.220 12.138,3.446 11.804 C 3.945 11.070,4.754 10.545,5.840 10.254 C 6.258 10.142,6.690 10.075,7.387 10.016 C 7.605 9.997,8.809 10.024,9.053 10.053 " stroke="none" fill="black" fill-rule="evenodd"></path></svg>