<svg class="bi bi-play-fill" width="1em" height="1em" viewBox="0 0 16 16" fill="currentColor" xmlns="http://www.w3.org/2000/svg"><path d="M4.612 3.528 C 4.446 3.575,4.315 3.661,4.187 3.806 C 3.988 4.032,4.000 3.756,4.000 8.000 C 4.000 12.276,3.985 11.969,4.202 12.209 C 4.446 12.481,4.825 12.572,5.133 12.432 C 5.363 12.326,11.626 8.684,11.734 8.593 C 11.987 8.378,12.065 7.960,11.911 7.646 C 11.870 7.562,11.791 7.456,11.737 7.410 C 11.650 7.337,10.722 6.794,6.382 4.278 C 5.764 3.919,5.202 3.601,5.133 3.571 C 4.976 3.501,4.768 3.484,4.612 3.528 " stroke="none" fill="black" fill-rule="evenodd"></path></svg>