<svg class="bi bi-play" width="1em" height="1em" viewBox="0 0 16 16" fill="currentColor" xmlns="http://www.w3.org/2000/svg"><path d="M4.649 3.520 C 4.475 3.556,4.338 3.639,4.204 3.788 C 3.985 4.032,4.000 3.720,4.000 8.000 C 4.000 11.314,4.005 11.821,4.040 11.939 C 4.093 12.118,4.278 12.322,4.470 12.416 C 4.666 12.512,4.937 12.519,5.129 12.432 C 5.200 12.401,5.764 12.081,6.382 11.722 C 10.722 9.206,11.650 8.663,11.737 8.590 C 11.986 8.381,12.064 7.958,11.911 7.646 C 11.870 7.562,11.791 7.456,11.737 7.410 C 11.650 7.337,10.722 6.794,6.382 4.278 C 5.764 3.919,5.206 3.603,5.142 3.575 C 5.000 3.512,4.796 3.489,4.649 3.520 M7.973 6.358 C 9.506 7.247,10.760 7.986,10.760 8.000 C 10.760 8.014,9.506 8.753,7.973 9.642 C 6.441 10.531,5.148 11.282,5.100 11.311 L 5.013 11.364 5.013 8.000 L 5.013 4.636 5.100 4.689 C 5.148 4.718,6.441 5.469,7.973 6.358 " stroke="none" fill="black" fill-rule="evenodd"></path></svg>