<svg class="bi bi-puzzle" width="1em" height="1em" viewBox="0 0 16 16" fill="currentColor" xmlns="http://www.w3.org/2000/svg"><path d="M4.256 2.043 C 3.782 2.157,3.371 2.521,3.200 2.979 C 3.089 3.276,3.090 3.355,3.215 4.853 C 3.279 5.623,3.339 6.310,3.347 6.380 L 3.362 6.507 3.208 6.506 C 2.982 6.506,2.803 6.414,2.602 6.194 C 2.133 5.680,1.986 5.574,1.657 5.517 C 0.925 5.387,0.280 6.092,0.063 7.257 C -0.001 7.603,-0.001 8.397,0.063 8.743 C 0.280 9.908,0.925 10.613,1.657 10.483 C 1.986 10.426,2.133 10.320,2.602 9.806 C 2.803 9.586,2.982 9.494,3.208 9.494 L 3.362 9.493 3.347 9.620 C 3.339 9.690,3.279 10.377,3.215 11.147 C 3.125 12.223,3.103 12.584,3.121 12.710 C 3.209 13.318,3.668 13.817,4.268 13.959 C 4.410 13.992,4.675 13.999,5.772 14.000 C 7.074 14.000,7.106 13.999,7.220 13.943 C 7.290 13.909,7.365 13.844,7.408 13.779 C 7.476 13.677,7.481 13.649,7.489 13.316 C 7.494 13.120,7.484 12.897,7.468 12.818 C 7.398 12.483,7.137 12.081,6.808 11.800 C 6.701 11.708,6.586 11.600,6.554 11.559 L 6.496 11.485 6.618 11.375 C 6.867 11.149,7.381 11.014,7.996 11.014 C 8.575 11.013,8.996 11.111,9.316 11.320 C 9.435 11.399,9.464 11.442,9.696 11.889 C 9.834 12.155,9.942 12.373,9.937 12.373 C 9.932 12.373,9.804 12.212,9.653 12.015 C 9.419 11.710,9.370 11.660,9.330 11.682 C 9.304 11.696,9.183 11.807,9.061 11.928 C 8.831 12.159,8.710 12.337,8.591 12.619 C 8.524 12.777,8.520 12.811,8.520 13.228 C 8.520 13.663,8.521 13.672,8.592 13.779 C 8.635 13.844,8.709 13.909,8.780 13.943 C 8.894 13.999,8.926 14.000,10.228 14.000 C 11.325 13.999,11.590 13.992,11.732 13.959 C 12.339 13.816,12.802 13.305,12.879 12.694 C 12.895 12.563,12.872 12.180,12.785 11.147 C 12.722 10.391,12.663 9.710,12.655 9.633 L 12.640 9.493 12.793 9.494 C 13.018 9.494,13.197 9.587,13.398 9.806 C 13.867 10.320,14.014 10.426,14.343 10.483 C 15.075 10.613,15.720 9.908,15.937 8.743 C 16.001 8.397,16.001 7.603,15.937 7.257 C 15.686 5.907,14.870 5.206,14.028 5.618 C 13.885 5.688,13.748 5.813,13.398 6.195 C 13.197 6.414,13.017 6.506,12.792 6.506 L 12.638 6.507 12.653 6.380 C 12.661 6.310,12.721 5.623,12.785 4.853 C 12.875 3.777,12.897 3.416,12.879 3.290 C 12.791 2.682,12.332 2.183,11.732 2.041 C 11.590 2.008,11.325 2.001,10.228 2.000 C 8.926 2.000,8.894 2.001,8.780 2.057 C 8.710 2.091,8.635 2.156,8.592 2.221 C 8.524 2.323,8.519 2.351,8.511 2.684 C 8.501 3.095,8.528 3.256,8.651 3.510 C 8.780 3.778,8.963 4.004,9.244 4.245 C 9.381 4.362,9.493 4.474,9.493 4.493 C 9.493 4.557,9.263 4.733,9.084 4.807 C 8.339 5.113,7.038 5.018,6.626 4.628 C 6.544 4.550,6.448 4.395,6.282 4.073 C 6.156 3.828,6.057 3.627,6.063 3.627 C 6.068 3.627,6.196 3.788,6.347 3.985 C 6.591 4.303,6.628 4.341,6.674 4.316 C 6.775 4.262,7.161 3.848,7.249 3.699 C 7.299 3.616,7.371 3.473,7.409 3.381 C 7.476 3.223,7.480 3.189,7.480 2.772 C 7.480 2.337,7.479 2.328,7.408 2.221 C 7.365 2.156,7.291 2.091,7.220 2.057 C 7.105 2.001,7.077 2.000,5.758 2.002 C 4.690 2.004,4.381 2.012,4.256 2.043 M6.424 3.127 C 6.392 3.189,6.287 3.312,6.191 3.400 C 5.679 3.868,5.574 4.014,5.517 4.343 C 5.387 5.075,6.092 5.720,7.257 5.937 C 7.599 6.001,8.397 6.002,8.737 5.939 C 10.088 5.690,10.794 4.870,10.382 4.028 C 10.312 3.885,10.189 3.751,9.808 3.400 C 9.712 3.312,9.608 3.189,9.576 3.126 L 9.518 3.012 10.554 3.019 L 11.591 3.027 11.692 3.104 C 11.749 3.147,11.817 3.235,11.848 3.304 L 11.902 3.427 11.747 5.256 L 11.591 7.085 11.652 7.211 C 11.690 7.290,11.753 7.363,11.821 7.408 C 11.929 7.480,11.933 7.480,12.486 7.488 C 12.822 7.493,13.100 7.485,13.185 7.467 C 13.517 7.398,13.920 7.136,14.200 6.808 C 14.292 6.701,14.400 6.586,14.441 6.554 L 14.515 6.496 14.624 6.617 C 15.020 7.054,15.114 8.297,14.809 9.072 C 14.696 9.360,14.594 9.450,14.073 9.718 C 13.828 9.844,13.627 9.943,13.627 9.937 C 13.627 9.932,13.788 9.804,13.985 9.653 C 14.290 9.419,14.340 9.370,14.318 9.330 C 14.304 9.304,14.193 9.183,14.072 9.061 C 13.841 8.831,13.664 8.710,13.381 8.591 C 13.215 8.521,13.206 8.520,12.571 8.520 L 11.930 8.520 11.821 8.592 C 11.753 8.637,11.691 8.710,11.652 8.789 L 11.591 8.915 11.747 10.744 L 11.902 12.573 11.848 12.696 C 11.778 12.852,11.647 12.952,11.467 12.987 C 11.324 13.014,9.520 13.025,9.520 12.999 C 9.520 12.932,9.665 12.731,9.809 12.600 C 10.176 12.265,10.312 12.116,10.382 11.972 C 10.794 11.130,10.088 10.310,8.737 10.061 C 8.397 9.998,7.599 9.999,7.257 10.063 C 6.092 10.280,5.387 10.925,5.517 11.657 C 5.574 11.986,5.679 12.132,6.191 12.600 C 6.335 12.731,6.480 12.932,6.480 12.999 C 6.480 13.025,4.676 13.014,4.533 12.987 C 4.353 12.952,4.222 12.852,4.152 12.696 L 4.098 12.573 4.253 10.744 L 4.409 8.915 4.348 8.789 C 4.310 8.710,4.247 8.637,4.179 8.592 C 4.071 8.520,4.067 8.520,3.514 8.512 C 3.178 8.507,2.900 8.515,2.815 8.533 C 2.483 8.602,2.080 8.864,1.800 9.192 C 1.708 9.299,1.600 9.414,1.559 9.446 L 1.485 9.504 1.375 9.382 C 0.981 8.947,0.886 7.663,1.193 6.916 C 1.267 6.737,1.443 6.507,1.507 6.507 C 1.526 6.507,1.640 6.620,1.759 6.758 C 2.004 7.044,2.223 7.220,2.490 7.349 C 2.762 7.480,2.888 7.497,3.514 7.488 C 4.067 7.480,4.071 7.480,4.179 7.408 C 4.247 7.363,4.310 7.290,4.348 7.211 L 4.409 7.085 4.254 5.273 C 4.087 3.312,4.088 3.343,4.227 3.178 C 4.364 3.015,4.368 3.015,5.474 3.014 L 6.481 3.013 6.424 3.127 " stroke="none" fill="black" fill-rule="evenodd"></path></svg>