<svg class="bi bi-question-octagon" width="1em" height="1em" viewBox="0 0 16 16" fill="currentColor" xmlns="http://www.w3.org/2000/svg"><path d="M4.680 0.053 C 4.526 0.129,0.096 4.566,0.041 4.699 C 0.005 4.787,0.000 5.179,0.000 8.004 C 0.000 11.143,0.001 11.212,0.053 11.318 C 0.128 11.473,4.563 15.903,4.699 15.959 C 4.787 15.995,5.179 16.000,8.004 16.000 C 11.143 16.000,11.212 15.999,11.318 15.947 C 11.473 15.872,15.903 11.437,15.959 11.301 C 15.995 11.213,16.000 10.821,16.000 8.000 C 16.000 5.179,15.995 4.787,15.959 4.699 C 15.903 4.563,11.473 0.128,11.318 0.053 C 11.212 0.001,11.143 0.000,7.998 0.000 C 4.849 0.000,4.785 0.001,4.680 0.053 M12.953 3.047 L 14.987 5.080 14.987 8.000 L 14.987 10.920 12.940 12.967 L 10.893 15.013 8.000 15.013 L 5.107 15.013 3.060 12.967 L 1.013 10.920 1.013 8.000 L 1.013 5.080 3.047 3.047 L 5.080 1.013 8.000 1.013 L 10.920 1.013 12.953 3.047 M7.693 3.511 C 7.473 3.530,7.073 3.609,6.880 3.673 C 5.987 3.969,5.436 4.596,5.293 5.480 C 5.271 5.612,5.253 5.789,5.253 5.873 L 5.253 6.027 5.905 6.027 L 6.558 6.027 6.570 5.940 C 6.616 5.616,6.649 5.487,6.720 5.342 C 6.942 4.892,7.358 4.657,7.933 4.657 C 8.671 4.658,9.148 5.019,9.226 5.635 C 9.253 5.847,9.230 6.076,9.163 6.260 C 9.070 6.518,8.835 6.765,8.293 7.175 C 7.680 7.639,7.368 8.011,7.207 8.475 C 7.143 8.661,7.135 8.725,7.125 9.153 L 7.115 9.627 7.771 9.627 L 8.427 9.627 8.427 9.348 C 8.427 9.026,8.460 8.839,8.550 8.658 C 8.674 8.407,8.813 8.274,9.567 7.692 C 10.367 7.074,10.665 6.545,10.666 5.742 C 10.667 5.124,10.481 4.647,10.085 4.251 C 9.548 3.713,8.639 3.432,7.693 3.511 M7.507 10.651 C 7.055 10.794,6.824 11.098,6.823 11.552 C 6.823 11.719,6.836 11.788,6.895 11.920 C 7.227 12.658,8.426 12.660,8.769 11.924 C 8.864 11.719,8.868 11.386,8.778 11.188 C 8.652 10.910,8.439 10.730,8.148 10.654 C 7.958 10.605,7.655 10.604,7.507 10.651 " stroke="none" fill="black" fill-rule="evenodd"></path></svg>