<svg class="bi bi-question-octagon-fill" width="1em" height="1em" viewBox="0 0 16 16" fill="currentColor" xmlns="http://www.w3.org/2000/svg"><path d="M4.680 0.053 C 4.526 0.129,0.096 4.566,0.041 4.699 C 0.005 4.787,0.000 5.179,0.000 8.004 C 0.000 11.143,0.001 11.212,0.053 11.318 C 0.128 11.473,4.563 15.903,4.699 15.959 C 4.787 15.995,5.179 16.000,8.004 16.000 C 11.143 16.000,11.212 15.999,11.318 15.947 C 11.473 15.872,15.903 11.437,15.959 11.301 C 15.995 11.213,16.000 10.821,16.000 8.000 C 16.000 5.179,15.995 4.787,15.959 4.699 C 15.903 4.563,11.473 0.128,11.318 0.053 C 11.212 0.001,11.143 0.000,7.998 0.000 C 4.849 0.000,4.785 0.001,4.680 0.053 M8.387 3.520 C 9.603 3.654,10.424 4.287,10.628 5.248 C 10.649 5.346,10.666 5.562,10.666 5.728 C 10.668 6.572,10.367 7.085,9.464 7.773 C 8.837 8.251,8.671 8.412,8.549 8.659 C 8.460 8.839,8.427 9.026,8.427 9.348 L 8.427 9.627 7.771 9.627 L 7.115 9.627 7.125 9.153 C 7.135 8.725,7.143 8.661,7.207 8.475 C 7.372 8.002,7.655 7.667,8.333 7.142 C 8.878 6.720,9.076 6.507,9.171 6.240 C 9.230 6.073,9.252 5.837,9.226 5.635 C 9.148 5.019,8.671 4.658,7.933 4.657 C 7.252 4.657,6.788 4.993,6.625 5.603 C 6.604 5.682,6.587 5.791,6.587 5.844 C 6.586 6.037,6.625 6.027,5.900 6.027 L 5.245 6.027 5.262 5.753 C 5.303 5.078,5.584 4.497,6.054 4.114 C 6.614 3.659,7.529 3.426,8.387 3.520 M8.148 10.654 C 8.439 10.730,8.652 10.910,8.778 11.188 C 8.868 11.386,8.864 11.719,8.769 11.924 C 8.494 12.514,7.608 12.666,7.108 12.209 C 6.911 12.030,6.822 11.825,6.823 11.552 C 6.824 11.098,7.055 10.794,7.507 10.651 C 7.655 10.604,7.958 10.605,8.148 10.654 " stroke="none" fill="black" fill-rule="evenodd"></path></svg>