<svg class="bi bi-receipt" width="1em" height="1em" viewBox="0 0 16 16" fill="currentColor" xmlns="http://www.w3.org/2000/svg"><path d="M1.813 0.536 C 1.657 0.599,1.579 0.722,1.291 1.356 L 1.007 1.984 1.027 8.092 L 1.046 14.200 1.321 14.749 C 1.615 15.336,1.700 15.448,1.881 15.482 C 2.025 15.509,2.179 15.479,2.289 15.403 C 2.343 15.366,2.524 15.197,2.692 15.028 L 2.998 14.722 3.350 15.068 C 3.715 15.427,3.817 15.493,4.000 15.493 C 4.183 15.493,4.285 15.427,4.649 15.069 L 5.000 14.724 5.351 15.069 C 5.714 15.427,5.816 15.493,6.000 15.493 C 6.183 15.493,6.285 15.427,6.649 15.069 L 7.000 14.724 7.351 15.069 C 7.714 15.427,7.816 15.493,8.000 15.493 C 8.183 15.493,8.285 15.427,8.649 15.069 L 9.000 14.724 9.351 15.069 C 9.714 15.427,9.816 15.493,10.000 15.493 C 10.183 15.493,10.285 15.427,10.649 15.069 L 11.000 14.724 11.351 15.069 C 11.714 15.427,11.816 15.493,12.000 15.493 C 12.183 15.493,12.285 15.427,12.650 15.068 L 13.002 14.722 13.308 15.028 C 13.476 15.197,13.657 15.366,13.711 15.403 C 13.900 15.534,14.153 15.521,14.319 15.371 C 14.403 15.295,14.474 15.163,14.707 14.646 L 14.993 14.014 14.973 7.907 L 14.954 1.800 14.679 1.251 C 14.385 0.664,14.300 0.552,14.119 0.518 C 13.975 0.491,13.821 0.521,13.711 0.597 C 13.657 0.634,13.476 0.803,13.308 0.972 L 13.002 1.278 12.650 0.932 C 12.285 0.573,12.183 0.507,12.000 0.507 C 11.817 0.507,11.715 0.573,11.351 0.931 L 11.000 1.276 10.649 0.931 C 10.286 0.573,10.184 0.507,10.000 0.507 C 9.816 0.507,9.714 0.573,9.351 0.931 L 9.000 1.276 8.649 0.931 C 8.285 0.573,8.183 0.507,8.000 0.507 C 7.817 0.507,7.715 0.573,7.351 0.931 L 7.000 1.276 6.649 0.931 C 6.286 0.573,6.184 0.507,6.000 0.507 C 5.817 0.507,5.715 0.573,5.351 0.931 L 5.000 1.276 4.649 0.931 C 4.286 0.573,4.184 0.507,4.000 0.507 C 3.817 0.507,3.715 0.573,3.351 0.931 L 3.000 1.276 2.649 0.931 C 2.456 0.741,2.256 0.568,2.203 0.546 C 2.096 0.502,1.913 0.497,1.813 0.536 M4.346 2.065 C 4.941 2.654,5.059 2.653,5.659 2.060 L 6.000 1.723 6.341 2.060 C 6.942 2.655,7.058 2.655,7.659 2.060 L 8.000 1.723 8.341 2.060 C 8.942 2.655,9.058 2.655,9.659 2.060 L 10.000 1.723 10.341 2.060 C 10.942 2.655,11.058 2.655,11.659 2.060 L 12.000 1.723 12.341 2.061 C 12.724 2.439,12.863 2.525,13.046 2.495 C 13.214 2.469,13.298 2.411,13.592 2.126 C 13.743 1.979,13.871 1.863,13.877 1.869 C 13.882 1.875,13.912 1.931,13.943 1.992 L 14.000 2.105 14.000 8.000 L 14.000 13.895 13.943 14.008 C 13.912 14.069,13.882 14.125,13.877 14.131 C 13.871 14.137,13.743 14.021,13.592 13.874 C 13.441 13.727,13.276 13.585,13.225 13.558 C 13.105 13.495,12.894 13.496,12.773 13.559 C 12.722 13.586,12.527 13.758,12.340 13.942 L 12.000 14.276 11.660 13.942 C 11.473 13.758,11.278 13.586,11.227 13.559 C 11.105 13.495,10.895 13.495,10.773 13.559 C 10.722 13.586,10.527 13.758,10.340 13.942 L 10.000 14.276 9.660 13.942 C 9.473 13.758,9.278 13.586,9.227 13.559 C 9.105 13.495,8.895 13.495,8.773 13.559 C 8.722 13.586,8.527 13.758,8.340 13.942 L 8.000 14.276 7.660 13.942 C 7.473 13.758,7.278 13.586,7.227 13.559 C 7.105 13.495,6.895 13.495,6.773 13.559 C 6.722 13.586,6.527 13.758,6.340 13.942 L 6.000 14.276 5.660 13.942 C 5.473 13.758,5.278 13.586,5.227 13.559 C 5.172 13.530,5.078 13.510,5.000 13.510 C 4.922 13.510,4.828 13.530,4.773 13.559 C 4.722 13.586,4.527 13.759,4.340 13.942 L 3.999 14.277 3.659 13.939 C 3.075 13.362,2.942 13.355,2.413 13.870 C 2.259 14.020,2.129 14.137,2.123 14.131 C 2.118 14.125,2.088 14.069,2.057 14.008 L 2.000 13.895 2.000 8.000 L 2.000 2.105 2.057 1.992 C 2.088 1.931,2.118 1.875,2.124 1.869 C 2.129 1.862,2.258 1.979,2.409 2.128 C 2.935 2.645,3.086 2.636,3.666 2.054 C 3.842 1.878,3.991 1.733,3.998 1.733 C 4.005 1.733,4.162 1.883,4.346 2.065 M3.290 4.051 C 3.132 4.123,3.033 4.264,3.019 4.441 C 3.003 4.628,3.023 4.699,3.124 4.814 C 3.301 5.016,3.018 5.000,6.453 5.000 C 8.147 5.000,9.578 4.990,9.634 4.979 C 9.767 4.951,9.932 4.791,9.974 4.649 C 10.045 4.409,9.916 4.131,9.688 4.036 C 9.617 4.006,9.042 4.000,6.501 4.001 C 3.530 4.001,3.395 4.003,3.290 4.051 M11.290 4.051 C 11.132 4.123,11.033 4.264,11.019 4.441 C 11.003 4.628,11.023 4.699,11.124 4.814 C 11.284 4.996,11.302 5.000,12.000 5.000 C 12.608 5.000,12.630 4.998,12.736 4.938 C 12.796 4.903,12.877 4.825,12.918 4.764 C 12.982 4.666,12.989 4.633,12.981 4.477 C 12.974 4.333,12.958 4.283,12.896 4.201 C 12.756 4.018,12.681 4.001,12.000 4.001 C 11.471 4.001,11.387 4.007,11.290 4.051 M3.290 6.051 C 3.132 6.123,3.033 6.264,3.019 6.441 C 3.003 6.628,3.023 6.699,3.124 6.814 C 3.301 7.016,3.018 7.000,6.453 7.000 C 8.147 7.000,9.578 6.990,9.634 6.979 C 9.767 6.951,9.932 6.791,9.974 6.649 C 10.045 6.409,9.916 6.131,9.688 6.036 C 9.617 6.006,9.042 6.000,6.501 6.001 C 3.530 6.001,3.395 6.003,3.290 6.051 M11.290 6.051 C 11.132 6.123,11.033 6.264,11.019 6.441 C 11.003 6.628,11.023 6.699,11.124 6.814 C 11.284 6.996,11.302 7.000,12.000 7.000 C 12.608 7.000,12.630 6.998,12.736 6.938 C 12.796 6.903,12.877 6.825,12.918 6.764 C 12.982 6.666,12.989 6.633,12.981 6.477 C 12.974 6.333,12.958 6.283,12.896 6.201 C 12.756 6.018,12.681 6.001,12.000 6.001 C 11.471 6.001,11.387 6.007,11.290 6.051 M3.290 8.051 C 3.132 8.123,3.033 8.264,3.019 8.441 C 3.003 8.628,3.023 8.699,3.124 8.814 C 3.301 9.016,3.018 9.000,6.453 9.000 C 8.147 9.000,9.578 8.990,9.634 8.979 C 9.767 8.951,9.932 8.791,9.974 8.649 C 10.045 8.409,9.916 8.131,9.688 8.036 C 9.617 8.006,9.042 8.000,6.501 8.001 C 3.530 8.001,3.395 8.003,3.290 8.051 M11.290 8.051 C 11.132 8.123,11.033 8.264,11.019 8.441 C 11.003 8.628,11.023 8.699,11.124 8.814 C 11.284 8.996,11.302 9.000,12.000 9.000 C 12.608 9.000,12.630 8.998,12.736 8.938 C 12.796 8.903,12.877 8.825,12.918 8.764 C 12.982 8.666,12.989 8.633,12.981 8.477 C 12.974 8.333,12.958 8.283,12.896 8.201 C 12.756 8.018,12.681 8.001,12.000 8.001 C 11.471 8.001,11.387 8.007,11.290 8.051 M3.290 10.051 C 3.132 10.123,3.033 10.264,3.019 10.441 C 3.003 10.628,3.023 10.699,3.124 10.814 C 3.301 11.016,3.018 11.000,6.453 11.000 C 8.147 11.000,9.578 10.990,9.634 10.979 C 9.767 10.951,9.932 10.791,9.974 10.649 C 10.045 10.409,9.916 10.131,9.688 10.036 C 9.617 10.006,9.042 10.000,6.501 10.001 C 3.530 10.001,3.395 10.003,3.290 10.051 M11.290 10.051 C 11.132 10.123,11.033 10.264,11.019 10.441 C 11.003 10.628,11.023 10.699,11.124 10.814 C 11.284 10.996,11.302 11.000,12.000 11.000 C 12.608 11.000,12.630 10.998,12.736 10.938 C 12.796 10.903,12.877 10.825,12.918 10.764 C 12.982 10.666,12.989 10.633,12.981 10.477 C 12.974 10.333,12.958 10.283,12.896 10.201 C 12.756 10.018,12.681 10.001,12.000 10.001 C 11.471 10.001,11.387 10.007,11.290 10.051 " stroke="none" fill="black" fill-rule="evenodd"></path></svg>