<svg class="bi bi-reply" width="1em" height="1em" viewBox="0 0 16 16" fill="currentColor" xmlns="http://www.w3.org/2000/svg"><path d="M9.192 4.029 C 8.881 4.102,8.550 4.365,8.421 4.640 C 8.321 4.856,8.293 5.026,8.293 5.441 L 8.293 5.813 8.167 5.813 C 8.097 5.813,7.878 5.832,7.680 5.855 C 5.391 6.120,3.639 7.380,2.600 9.507 C 2.095 10.540,1.747 11.736,1.547 13.126 C 1.503 13.436,1.497 13.540,1.519 13.624 C 1.596 13.910,1.913 14.071,2.180 13.959 C 2.324 13.899,2.376 13.840,2.562 13.532 C 2.841 13.070,3.132 12.701,3.530 12.305 C 4.186 11.653,4.821 11.238,5.683 10.898 C 6.405 10.613,7.432 10.400,8.087 10.400 L 8.293 10.400 8.293 10.756 C 8.293 11.182,8.320 11.346,8.427 11.564 C 8.532 11.779,8.792 12.025,9.005 12.111 C 9.135 12.163,9.207 12.173,9.453 12.173 C 9.714 12.173,9.763 12.166,9.893 12.104 C 10.010 12.049,10.989 11.347,11.933 10.640 C 12.007 10.585,12.415 10.285,12.840 9.972 C 14.422 8.810,14.345 8.875,14.482 8.599 C 14.633 8.294,14.628 7.912,14.467 7.584 C 14.354 7.354,14.259 7.264,13.678 6.841 C 13.437 6.666,13.108 6.425,12.947 6.305 C 11.109 4.948,10.075 4.193,9.987 4.143 C 9.766 4.019,9.437 3.972,9.192 4.029 M11.521 6.655 C 12.511 7.461,13.356 8.147,13.399 8.181 C 13.475 8.241,13.476 8.243,13.425 8.291 C 13.323 8.389,9.509 11.181,9.461 11.194 C 9.434 11.201,9.388 11.185,9.359 11.159 C 9.310 11.115,9.307 11.074,9.307 10.480 C 9.307 9.831,9.295 9.738,9.194 9.593 C 9.091 9.446,8.960 9.405,8.542 9.392 C 7.382 9.355,6.020 9.634,4.926 10.133 C 4.279 10.428,3.562 10.895,3.087 11.333 C 2.988 11.424,2.907 11.493,2.907 11.487 C 2.907 11.482,2.955 11.329,3.015 11.148 C 3.380 10.040,3.827 9.225,4.465 8.502 C 5.131 7.748,6.099 7.188,7.131 6.958 C 7.533 6.868,7.882 6.827,8.387 6.811 C 8.710 6.801,8.903 6.783,8.979 6.756 C 9.115 6.708,9.243 6.569,9.275 6.434 C 9.299 6.336,9.495 5.077,9.494 5.030 C 9.494 5.017,9.544 5.048,9.607 5.099 C 9.669 5.149,10.530 5.850,11.521 6.655 " stroke="none" fill="black" fill-rule="evenodd"></path></svg>