<svg class="bi bi-reply-all-fill" width="1em" height="1em" viewBox="0 0 16 16" fill="currentColor" xmlns="http://www.w3.org/2000/svg"><path d="M7.491 4.040 C 7.322 4.094,7.141 4.261,7.065 4.432 C 7.005 4.567,7.001 4.607,6.992 5.283 L 6.982 5.992 6.524 6.009 C 5.561 6.045,4.809 6.217,4.061 6.574 C 3.449 6.866,2.994 7.196,2.491 7.711 C 1.271 8.961,0.458 10.909,0.068 13.519 C 0.032 13.760,0.005 13.961,0.010 13.965 C 0.014 13.969,0.045 13.922,0.079 13.860 C 0.114 13.798,0.241 13.595,0.363 13.409 C 1.574 11.566,3.394 10.390,5.538 10.066 C 5.899 10.012,6.612 9.969,6.814 9.990 L 6.982 10.007 6.992 10.717 C 7.001 11.393,7.005 11.433,7.065 11.568 C 7.175 11.816,7.455 12.000,7.721 12.000 C 7.926 12.000,8.042 11.928,9.427 10.933 C 10.189 10.385,11.239 9.632,11.760 9.259 C 12.281 8.885,12.741 8.549,12.783 8.510 C 12.992 8.320,13.050 7.948,12.913 7.678 C 12.823 7.500,12.881 7.545,11.187 6.329 C 10.439 5.793,9.450 5.084,8.991 4.753 C 8.531 4.423,8.101 4.123,8.037 4.087 C 7.890 4.005,7.661 3.985,7.491 4.040 M11.111 4.118 C 10.752 4.250,10.660 4.691,10.937 4.951 C 10.986 4.998,11.913 5.755,12.995 6.635 C 14.078 7.515,14.964 8.243,14.964 8.253 C 14.963 8.263,14.060 8.936,12.955 9.748 C 11.772 10.618,10.917 11.264,10.875 11.321 C 10.587 11.707,11.013 12.252,11.457 12.067 C 11.510 12.045,11.729 11.897,11.943 11.738 C 12.158 11.579,13.089 10.894,14.013 10.216 C 14.937 9.538,15.740 8.933,15.796 8.872 C 15.989 8.662,16.000 8.620,16.000 8.086 L 16.000 7.610 15.923 7.492 C 15.787 7.281,16.001 7.444,12.144 4.610 C 11.849 4.393,11.567 4.192,11.517 4.163 C 11.393 4.089,11.235 4.072,11.111 4.118 " stroke="none" fill="black" fill-rule="evenodd"></path></svg>