<svg class="bi bi-server" width="1em" height="1em" viewBox="0 0 16 16" fill="currentColor" xmlns="http://www.w3.org/2000/svg"><path d="M7.135 0.027 C 6.140 0.104,5.226 0.294,4.506 0.572 C 3.805 0.843,3.280 1.236,3.093 1.631 C 3.027 1.772,3.013 1.833,3.013 2.000 C 3.013 2.264,3.108 2.470,3.340 2.712 C 3.937 3.334,5.218 3.782,6.880 3.952 C 7.316 3.996,8.687 3.996,9.120 3.951 C 9.926 3.868,10.548 3.744,11.156 3.544 C 11.856 3.315,12.339 3.048,12.660 2.712 C 12.892 2.470,12.987 2.263,12.987 2.000 C 12.987 1.833,12.973 1.772,12.907 1.631 C 12.550 0.877,11.178 0.283,9.293 0.067 C 8.856 0.017,7.566 -0.007,7.135 0.027 M2.991 4.967 L 3.000 6.173 3.086 6.355 C 3.460 7.145,4.898 7.750,6.880 7.952 C 7.316 7.996,8.687 7.996,9.120 7.951 C 9.926 7.868,10.548 7.744,11.156 7.544 C 12.087 7.239,12.688 6.833,12.914 6.355 L 13.000 6.173 13.009 4.967 C 13.013 4.303,13.011 3.760,13.003 3.760 C 12.995 3.760,12.908 3.814,12.810 3.879 C 11.975 4.439,10.566 4.840,9.010 4.961 C 8.465 5.003,6.996 4.980,6.533 4.922 C 5.557 4.799,4.740 4.603,4.075 4.332 C 3.716 4.186,3.541 4.097,3.244 3.909 C 3.114 3.827,3.002 3.760,2.995 3.760 C 2.988 3.760,2.987 4.303,2.991 4.967 M2.991 8.967 L 3.000 10.173 3.086 10.355 C 3.460 11.145,4.898 11.750,6.880 11.952 C 7.316 11.996,8.687 11.996,9.120 11.951 C 9.926 11.868,10.548 11.744,11.156 11.544 C 12.087 11.239,12.688 10.833,12.914 10.355 L 13.000 10.173 13.009 8.967 C 13.013 8.303,13.011 7.760,13.003 7.760 C 12.995 7.760,12.908 7.814,12.810 7.879 C 11.975 8.439,10.566 8.840,9.010 8.961 C 8.465 9.003,6.996 8.980,6.533 8.922 C 5.557 8.799,4.740 8.603,4.075 8.332 C 3.716 8.186,3.541 8.097,3.244 7.909 C 3.114 7.827,3.002 7.760,2.995 7.760 C 2.988 7.760,2.987 8.303,2.991 8.967 M2.991 12.967 L 3.000 14.173 3.086 14.355 C 3.460 15.145,4.898 15.750,6.880 15.952 C 7.316 15.996,8.687 15.996,9.120 15.951 C 9.926 15.868,10.548 15.744,11.156 15.544 C 12.087 15.239,12.688 14.833,12.914 14.355 L 13.000 14.173 13.009 12.967 C 13.013 12.303,13.011 11.760,13.003 11.760 C 12.995 11.760,12.908 11.814,12.810 11.879 C 11.975 12.439,10.566 12.840,9.010 12.961 C 8.465 13.003,6.996 12.980,6.533 12.922 C 5.557 12.799,4.740 12.603,4.075 12.332 C 3.716 12.186,3.541 12.097,3.244 11.909 C 3.114 11.827,3.002 11.760,2.995 11.760 C 2.988 11.760,2.987 12.303,2.991 12.967 " stroke="none" fill="black" fill-rule="evenodd"></path></svg>