<svg class="bi bi-shield-slash-fill" width="1em" height="1em" viewBox="0 0 16 16" fill="currentColor" xmlns="http://www.w3.org/2000/svg"><path d="M7.311 0.561 C 6.822 0.635,6.488 0.705,5.720 0.894 C 5.138 1.037,3.633 1.452,3.609 1.475 C 3.605 1.479,5.748 3.628,8.370 6.250 C 12.236 10.116,13.143 11.010,13.168 10.980 C 13.185 10.959,13.299 10.746,13.421 10.505 C 14.250 8.873,14.668 7.182,14.712 5.280 C 14.732 4.368,14.654 3.222,14.543 2.827 C 14.444 2.475,14.164 2.121,13.851 1.955 C 13.477 1.756,10.610 0.938,9.440 0.696 C 8.495 0.501,7.940 0.466,7.311 0.561 M0.993 0.994 C 0.813 1.174,0.667 1.333,0.667 1.347 C 0.667 1.362,3.811 4.517,7.653 8.360 L 14.640 15.347 14.993 14.993 L 15.347 14.640 8.360 7.653 C 4.517 3.811,1.361 0.667,1.346 0.667 C 1.331 0.667,1.172 0.814,0.993 0.994 M1.351 3.577 C 1.305 3.834,1.274 4.662,1.289 5.267 C 1.308 6.117,1.373 6.721,1.523 7.477 C 2.079 10.270,3.659 12.786,5.926 14.488 C 6.491 14.912,7.112 15.265,7.560 15.417 C 7.835 15.510,8.178 15.506,8.467 15.407 C 9.193 15.157,10.199 14.479,11.075 13.649 L 11.310 13.427 6.339 8.457 C 1.368 3.488,1.367 3.487,1.351 3.577 " stroke="none" fill="black" fill-rule="evenodd"></path></svg>