<svg class="bi bi-shield-fill" width="1em" height="1em" viewBox="0 0 16 16" fill="currentColor" xmlns="http://www.w3.org/2000/svg"><path d="M7.311 0.561 C 7.130 0.589,6.854 0.636,6.698 0.667 C 5.528 0.898,2.515 1.756,2.137 1.966 C 1.818 2.142,1.556 2.473,1.457 2.827 C 1.409 2.995,1.347 3.517,1.308 4.080 C 1.017 8.226,2.731 12.089,5.926 14.488 C 6.480 14.904,7.114 15.264,7.560 15.416 C 7.834 15.510,8.177 15.506,8.467 15.407 C 9.387 15.090,10.725 14.099,11.689 13.018 C 12.825 11.745,13.623 10.358,14.144 8.755 C 14.675 7.119,14.841 5.252,14.625 3.333 C 14.578 2.914,14.534 2.740,14.418 2.522 C 14.311 2.320,14.054 2.063,13.851 1.955 C 13.477 1.756,10.610 0.938,9.440 0.696 C 8.495 0.501,7.940 0.466,7.311 0.561 " stroke="none" fill="black" fill-rule="evenodd"></path></svg>