<svg class="bi bi-skip-end-fill" width="1em" height="1em" viewBox="0 0 16 16" fill="currentColor" xmlns="http://www.w3.org/2000/svg"><path d="M4.612 3.528 C 4.446 3.575,4.315 3.661,4.187 3.806 C 3.988 4.032,4.000 3.756,4.000 8.000 C 4.000 12.276,3.985 11.969,4.202 12.209 C 4.452 12.488,4.828 12.574,5.147 12.424 C 5.227 12.386,6.682 11.549,8.380 10.564 C 10.078 9.579,11.473 8.773,11.480 8.773 C 11.487 8.773,11.493 9.508,11.493 10.407 C 11.494 11.516,11.503 12.074,11.523 12.146 C 11.562 12.288,11.719 12.440,11.865 12.480 C 12.132 12.552,12.407 12.399,12.479 12.139 C 12.519 11.995,12.517 3.998,12.477 3.854 C 12.438 3.712,12.281 3.560,12.135 3.520 C 11.868 3.448,11.593 3.601,11.521 3.861 C 11.504 3.924,11.494 4.552,11.493 5.593 C 11.493 6.492,11.487 7.227,11.479 7.227 C 11.467 7.227,7.226 4.772,5.707 3.885 C 5.479 3.753,5.230 3.616,5.153 3.580 C 4.983 3.502,4.775 3.482,4.612 3.528 " stroke="none" fill="black" fill-rule="evenodd"></path></svg>