<svg class="bi bi-skip-forward" width="1em" height="1em" viewBox="0 0 16 16" fill="currentColor" xmlns="http://www.w3.org/2000/svg"><path d="M0.649 3.521 C 0.477 3.555,0.339 3.638,0.204 3.788 C -0.015 4.032,-0.000 3.720,-0.000 8.000 C -0.000 12.280,-0.015 11.968,0.204 12.212 C 0.411 12.442,0.689 12.539,0.974 12.480 C 1.140 12.446,1.042 12.501,4.806 10.316 C 6.269 9.468,7.471 8.773,7.478 8.773 C 7.485 8.773,7.495 9.472,7.499 10.327 L 7.507 11.880 7.570 12.021 C 7.683 12.270,7.921 12.438,8.243 12.494 C 8.415 12.525,8.637 12.443,9.071 12.192 C 9.573 11.902,11.517 10.775,13.490 9.630 C 14.302 9.159,14.970 8.773,14.975 8.773 C 14.980 8.773,14.988 9.526,14.992 10.447 C 15.000 12.119,15.000 12.120,15.059 12.231 C 15.255 12.597,15.778 12.580,15.950 12.201 C 15.997 12.098,15.999 11.914,15.999 8.000 C 15.999 4.086,15.997 3.902,15.950 3.799 C 15.778 3.420,15.255 3.403,15.059 3.769 C 15.000 3.880,15.000 3.881,14.992 5.553 C 14.988 6.474,14.980 7.227,14.975 7.227 C 14.970 7.227,14.302 6.841,13.490 6.370 C 11.517 5.225,9.573 4.098,9.071 3.808 C 8.582 3.525,8.420 3.472,8.176 3.519 C 7.894 3.574,7.683 3.736,7.568 3.987 L 7.507 4.120 7.499 5.673 C 7.495 6.528,7.485 7.227,7.478 7.227 C 7.471 7.227,6.269 6.532,4.806 5.684 C 1.096 3.531,1.139 3.555,0.985 3.522 C 0.835 3.490,0.807 3.490,0.649 3.521 M3.973 6.358 C 5.506 7.247,6.760 7.986,6.760 8.000 C 6.760 8.014,5.506 8.753,3.973 9.642 C 2.441 10.531,1.148 11.282,1.100 11.311 L 1.013 11.364 1.013 8.000 L 1.013 4.636 1.100 4.689 C 1.148 4.718,2.441 5.469,3.973 6.358 M11.529 6.387 C 13.048 7.267,14.291 7.993,14.291 8.000 C 14.291 8.007,13.048 8.733,11.529 9.613 C 10.010 10.493,8.708 11.247,8.637 11.289 L 8.507 11.364 8.507 8.000 L 8.507 4.636 8.637 4.711 C 8.708 4.753,10.010 5.507,11.529 6.387 " stroke="none" fill="black" fill-rule="evenodd"></path></svg>