<svg class="bi bi-slash-circle-fill" width="1em" height="1em" viewBox="0 0 16 16" fill="currentColor" xmlns="http://www.w3.org/2000/svg"><path d="M7.293 0.030 C 4.174 0.300,1.460 2.423,0.439 5.390 C -0.989 9.546,1.195 14.077,5.331 15.539 C 8.244 16.569,11.468 15.838,13.653 13.653 C 16.473 10.834,16.787 6.378,14.390 3.190 C 12.867 1.166,10.473 -0.019,7.947 0.004 C 7.734 0.006,7.440 0.018,7.293 0.030 M11.767 4.080 C 11.960 4.211,12.042 4.441,11.974 4.657 C 11.947 4.741,11.295 5.407,8.364 8.340 C 5.455 11.252,4.766 11.929,4.674 11.964 C 4.287 12.112,3.901 11.741,4.026 11.343 C 4.053 11.259,4.704 10.594,7.623 7.671 C 10.032 5.258,11.221 4.085,11.293 4.050 C 11.435 3.981,11.643 3.994,11.767 4.080 " stroke="none" fill="black" fill-rule="evenodd"></path></svg>