<svg class="bi bi-soundwave" width="1em" height="1em" viewBox="0 0 16 16" fill="currentColor" xmlns="http://www.w3.org/2000/svg"><path d="M8.307 2.037 C 8.201 2.084,8.081 2.206,8.036 2.312 C 7.982 2.440,7.982 13.559,8.036 13.688 C 8.056 13.735,8.121 13.817,8.181 13.871 C 8.423 14.090,8.802 14.012,8.950 13.714 C 8.998 13.617,9.000 13.424,9.007 8.095 C 9.012 4.473,9.005 2.526,8.987 2.431 C 8.972 2.349,8.930 2.245,8.890 2.193 C 8.762 2.026,8.495 1.954,8.307 2.037 M6.307 4.037 C 6.201 4.084,6.081 4.206,6.036 4.312 C 5.983 4.439,5.982 11.559,6.036 11.688 C 6.056 11.735,6.121 11.817,6.181 11.871 C 6.423 12.090,6.802 12.012,6.950 11.714 C 6.998 11.617,7.000 11.470,7.007 8.096 C 7.012 5.799,7.005 4.527,6.987 4.432 C 6.972 4.349,6.930 4.246,6.890 4.193 C 6.762 4.026,6.495 3.954,6.307 4.037 M10.307 4.037 C 10.201 4.084,10.081 4.206,10.036 4.312 C 9.983 4.439,9.982 11.559,10.036 11.688 C 10.056 11.735,10.121 11.817,10.181 11.871 C 10.423 12.090,10.802 12.012,10.950 11.714 C 10.998 11.617,11.000 11.470,11.007 8.096 C 11.012 5.799,11.005 4.527,10.987 4.432 C 10.972 4.349,10.930 4.246,10.890 4.193 C 10.762 4.026,10.495 3.954,10.307 4.037 M4.337 5.532 C 4.205 5.579,4.112 5.666,4.050 5.800 C 4.004 5.901,4.001 6.021,4.001 8.000 C 4.001 9.974,4.004 10.099,4.050 10.201 C 4.222 10.580,4.745 10.597,4.941 10.231 L 5.000 10.120 5.000 8.000 L 5.000 5.880 4.941 5.769 C 4.876 5.648,4.783 5.572,4.643 5.524 C 4.528 5.485,4.465 5.487,4.337 5.532 M12.337 5.532 C 12.205 5.579,12.112 5.666,12.050 5.800 C 12.004 5.901,12.001 6.021,12.001 8.000 C 12.001 9.974,12.004 10.099,12.050 10.201 C 12.222 10.580,12.745 10.597,12.941 10.231 L 13.000 10.120 13.000 8.000 L 13.000 5.880 12.941 5.769 C 12.876 5.648,12.783 5.572,12.643 5.524 C 12.528 5.485,12.465 5.487,12.337 5.532 M2.271 6.562 C 2.205 6.596,2.125 6.667,2.084 6.729 L 2.013 6.836 2.006 7.968 C 1.998 9.080,1.999 9.102,2.056 9.218 C 2.143 9.398,2.284 9.480,2.509 9.480 C 2.669 9.480,2.699 9.471,2.791 9.398 C 2.847 9.353,2.917 9.269,2.947 9.212 C 2.997 9.112,3.000 9.054,3.000 8.000 C 3.000 6.946,2.997 6.888,2.947 6.788 C 2.818 6.535,2.520 6.436,2.271 6.562 M14.271 6.562 C 14.205 6.596,14.125 6.667,14.084 6.729 L 14.013 6.836 14.006 7.968 C 13.998 9.080,13.999 9.102,14.056 9.218 C 14.143 9.398,14.284 9.480,14.509 9.480 C 14.669 9.480,14.699 9.471,14.791 9.398 C 14.847 9.353,14.917 9.269,14.947 9.212 C 14.997 9.112,15.000 9.054,15.000 8.000 C 15.000 6.946,14.997 6.888,14.947 6.788 C 14.818 6.535,14.520 6.436,14.271 6.562 " stroke="none" fill="black" fill-rule="evenodd"></path></svg>