<svg class="bi bi-speaker" width="1em" height="1em" viewBox="0 0 16 16" fill="currentColor" xmlns="http://www.w3.org/2000/svg"><path d="M3.600 0.042 C 2.952 0.181,2.407 0.629,2.157 1.226 C 1.990 1.625,2.000 1.207,2.000 8.000 C 2.000 14.793,1.990 14.375,2.157 14.774 C 2.350 15.235,2.765 15.650,3.226 15.843 C 3.618 16.007,3.409 16.000,8.000 16.000 C 11.714 16.000,12.212 15.995,12.394 15.958 C 13.184 15.796,13.796 15.184,13.958 14.394 C 13.996 14.211,14.000 13.536,14.000 8.000 C 14.000 2.464,13.996 1.789,13.958 1.606 C 13.796 0.816,13.184 0.204,12.394 0.042 C 12.212 0.005,11.717 0.000,7.981 0.002 C 4.480 0.004,3.744 0.011,3.600 0.042 M8.394 2.042 C 9.757 2.321,10.430 3.874,9.698 5.047 C 9.011 6.148,7.504 6.324,6.590 5.410 C 5.699 4.519,5.841 3.054,6.887 2.342 C 7.320 2.048,7.879 1.936,8.394 2.042 M7.645 3.064 C 7.384 3.169,7.162 3.396,7.062 3.658 C 6.983 3.868,7.000 4.225,7.099 4.428 C 7.192 4.616,7.384 4.808,7.572 4.901 C 7.705 4.966,7.749 4.973,8.000 4.973 C 8.251 4.973,8.295 4.966,8.428 4.901 C 8.616 4.808,8.808 4.616,8.901 4.428 C 8.966 4.295,8.973 4.251,8.973 4.000 C 8.973 3.749,8.966 3.705,8.901 3.572 C 8.808 3.384,8.616 3.192,8.428 3.100 C 8.230 3.003,7.842 2.985,7.645 3.064 M8.603 7.055 C 9.968 7.292,11.062 8.320,11.402 9.685 C 11.495 10.058,11.518 10.667,11.455 11.053 C 11.166 12.814,9.600 14.081,7.827 13.990 C 6.968 13.946,6.178 13.603,5.567 13.007 C 5.026 12.480,4.667 11.793,4.545 11.053 C 4.482 10.668,4.505 10.058,4.597 9.688 C 4.938 8.323,6.018 7.303,7.387 7.055 C 7.668 7.004,8.312 7.004,8.603 7.055 M7.603 9.055 C 7.219 9.159,6.829 9.483,6.660 9.840 C 6.547 10.078,6.507 10.256,6.507 10.511 C 6.507 11.238,7.060 11.874,7.783 11.979 C 8.811 12.129,9.676 11.204,9.464 10.181 C 9.356 9.659,8.906 9.190,8.381 9.053 C 8.190 9.003,7.793 9.005,7.603 9.055 " stroke="none" fill="black" fill-rule="evenodd"></path></svg>