<svg class="bi bi-subtract" width="1em" height="1em" viewBox="0 0 16 16" fill="currentColor" xmlns="http://www.w3.org/2000/svg"><path d="M1.253 0.018 C 1.093 0.045,0.845 0.144,0.702 0.238 C 0.406 0.431,0.188 0.709,0.075 1.035 L 0.013 1.213 0.013 6.000 L 0.013 10.787 0.075 10.965 C 0.229 11.411,0.596 11.777,1.038 11.927 C 1.209 11.985,1.248 11.986,2.605 11.994 L 3.997 12.002 4.006 13.408 C 4.015 14.798,4.016 14.815,4.076 14.979 C 4.243 15.430,4.613 15.789,5.052 15.928 L 5.240 15.987 10.000 15.987 L 14.760 15.987 14.948 15.928 C 15.402 15.785,15.785 15.402,15.928 14.948 L 15.987 14.760 15.987 10.000 L 15.987 5.240 15.928 5.052 C 15.786 4.603,15.415 4.227,14.962 4.073 C 14.791 4.015,14.752 4.014,13.394 4.006 L 12.002 3.998 11.994 2.606 C 11.986 1.248,11.985 1.209,11.927 1.038 C 11.776 0.593,11.408 0.225,10.962 0.073 L 10.787 0.013 6.053 0.010 C 3.450 0.008,1.290 0.012,1.253 0.018 M10.702 1.043 C 10.788 1.087,10.906 1.203,10.949 1.285 C 11.006 1.395,11.005 10.606,10.948 10.717 C 10.897 10.815,10.738 10.954,10.646 10.980 C 10.551 11.006,1.449 11.006,1.354 10.980 C 1.262 10.954,1.103 10.815,1.052 10.717 C 0.995 10.606,0.994 1.395,1.051 1.285 C 1.092 1.207,1.208 1.091,1.293 1.044 C 1.370 1.002,10.619 1.001,10.702 1.043 " stroke="none" fill="black" fill-rule="evenodd"></path></svg>