<svg class="bi bi-tag" width="1em" height="1em" viewBox="0 0 16 16" fill="currentColor" xmlns="http://www.w3.org/2000/svg"><path d="M1.627 0.549 C 1.106 0.686,0.681 1.115,0.547 1.639 C 0.512 1.775,0.507 2.150,0.507 4.293 C 0.507 7.038,0.500 6.919,0.672 7.279 C 0.750 7.441,1.017 7.715,4.438 11.135 C 8.407 15.104,8.200 14.911,8.600 15.029 C 8.813 15.092,9.187 15.092,9.400 15.029 C 9.794 14.913,9.694 15.004,12.349 12.349 C 14.456 10.241,14.829 9.857,14.900 9.720 C 15.026 9.475,15.075 9.271,15.075 9.000 C 15.075 8.850,15.058 8.700,15.029 8.600 C 14.912 8.201,15.105 8.408,11.135 4.438 C 7.715 1.017,7.441 0.750,7.279 0.672 C 6.918 0.500,7.040 0.506,4.281 0.508 C 2.182 0.510,1.749 0.516,1.627 0.549 M6.733 1.522 C 6.826 1.547,7.310 2.020,10.409 5.115 C 12.441 7.146,13.999 8.723,14.029 8.779 C 14.095 8.906,14.095 9.094,14.028 9.221 C 13.964 9.344,9.326 13.979,9.208 14.037 C 9.092 14.095,8.900 14.091,8.779 14.029 C 8.723 13.999,7.146 12.441,5.115 10.409 C 2.020 7.310,1.547 6.826,1.522 6.733 C 1.483 6.585,1.482 2.001,1.522 1.857 C 1.559 1.723,1.693 1.581,1.827 1.533 C 1.915 1.502,2.327 1.496,4.280 1.495 C 5.874 1.494,6.661 1.503,6.733 1.522 M4.018 2.560 C 3.301 2.742,2.730 3.322,2.557 4.044 C 2.484 4.348,2.497 4.794,2.586 5.080 C 2.885 6.037,3.852 6.637,4.823 6.469 C 5.684 6.320,6.320 5.684,6.469 4.823 C 6.637 3.852,6.037 2.886,5.080 2.586 C 4.807 2.500,4.302 2.488,4.018 2.560 M4.734 3.535 C 5.031 3.612,5.264 3.800,5.403 4.075 C 5.473 4.212,5.480 4.252,5.480 4.494 C 5.480 4.741,5.474 4.774,5.393 4.937 C 5.291 5.146,5.123 5.310,4.911 5.409 C 4.779 5.471,4.726 5.480,4.493 5.480 C 4.246 5.480,4.215 5.474,4.067 5.396 C 3.444 5.070,3.312 4.286,3.799 3.799 C 4.059 3.539,4.391 3.445,4.734 3.535 " stroke="none" fill="black" fill-rule="evenodd"></path></svg>