<svg class="bi bi-terminal-fill" width="1em" height="1em" viewBox="0 0 16 16" fill="currentColor" xmlns="http://www.w3.org/2000/svg"><path d="M1.507 1.066 C 0.743 1.268,0.185 1.863,0.039 2.630 C -0.019 2.932,-0.019 13.068,0.039 13.370 C 0.116 13.775,0.287 14.096,0.587 14.401 C 0.927 14.748,1.332 14.938,1.833 14.987 C 2.181 15.021,13.819 15.021,14.167 14.987 C 14.668 14.938,15.073 14.748,15.413 14.401 C 15.713 14.096,15.884 13.775,15.961 13.370 C 16.019 13.068,16.019 2.932,15.961 2.630 C 15.884 2.225,15.713 1.904,15.413 1.599 C 15.186 1.367,14.939 1.211,14.627 1.102 L 14.413 1.027 8.053 1.021 C 1.929 1.016,1.686 1.018,1.507 1.066 M3.701 4.041 C 3.767 4.069,4.134 4.416,4.821 5.101 C 5.382 5.662,5.873 6.165,5.911 6.219 C 5.950 6.275,5.986 6.372,5.993 6.440 C 6.021 6.684,6.007 6.700,4.847 7.859 C 4.225 8.479,3.740 8.943,3.693 8.961 C 3.590 9.000,3.379 8.999,3.301 8.958 C 3.211 8.912,3.094 8.797,3.049 8.712 C 3.002 8.622,2.997 8.417,3.039 8.307 C 3.057 8.261,3.440 7.855,3.927 7.367 L 4.785 6.507 3.942 5.660 C 3.479 5.194,3.080 4.774,3.056 4.726 C 3.008 4.633,2.994 4.450,3.026 4.345 C 3.108 4.078,3.436 3.931,3.701 4.041 M9.727 8.563 C 9.900 8.647,9.987 8.793,9.987 9.000 C 9.987 9.207,9.900 9.353,9.727 9.437 C 9.612 9.492,9.586 9.493,8.000 9.493 C 6.414 9.493,6.388 9.492,6.273 9.437 C 6.100 9.353,6.013 9.207,6.013 9.000 C 6.013 8.794,6.099 8.649,6.271 8.564 C 6.385 8.507,6.404 8.507,7.998 8.507 C 9.586 8.507,9.612 8.508,9.727 8.563 " stroke="none" fill="black" fill-rule="evenodd"></path></svg>