<svg class="bi bi-text-indent-left" width="1em" height="1em" viewBox="0 0 16 16" fill="currentColor" xmlns="http://www.w3.org/2000/svg"><path d="M2.280 3.055 C 2.160 3.118,2.104 3.176,2.050 3.293 C 1.995 3.414,1.986 3.560,2.028 3.672 C 2.070 3.784,2.239 3.944,2.346 3.974 C 2.477 4.010,13.525 4.009,13.657 3.973 C 13.803 3.932,13.965 3.744,13.988 3.587 C 14.022 3.362,13.915 3.148,13.723 3.057 C 13.640 3.017,13.135 3.013,7.996 3.013 C 2.937 3.014,2.352 3.018,2.280 3.055 M2.785 5.560 C 2.622 5.642,2.529 5.772,2.513 5.944 C 2.489 6.198,2.499 6.211,3.422 7.140 L 4.277 8.000 3.422 8.860 C 2.499 9.789,2.489 9.802,2.513 10.056 C 2.529 10.228,2.622 10.358,2.785 10.440 C 3.109 10.603,3.141 10.581,4.379 9.341 C 5.073 8.644,5.424 8.274,5.452 8.207 C 5.475 8.153,5.493 8.060,5.493 8.000 C 5.493 7.940,5.475 7.847,5.452 7.793 C 5.424 7.726,5.073 7.356,4.379 6.659 C 3.141 5.419,3.109 5.397,2.785 5.560 M7.290 6.051 C 7.132 6.123,7.033 6.264,7.019 6.441 C 7.003 6.628,7.023 6.699,7.124 6.814 C 7.301 7.016,7.018 7.000,10.453 7.000 C 12.147 7.000,13.578 6.990,13.634 6.979 C 13.767 6.951,13.932 6.791,13.974 6.649 C 14.045 6.409,13.916 6.131,13.688 6.036 C 13.617 6.006,13.042 6.000,10.501 6.001 C 7.530 6.001,7.395 6.003,7.290 6.051 M7.266 9.063 C 7.162 9.126,7.045 9.265,7.023 9.350 C 7.014 9.386,7.012 9.480,7.019 9.559 C 7.033 9.736,7.132 9.877,7.290 9.949 C 7.395 9.997,7.529 9.999,10.480 9.999 C 12.474 10.000,13.594 9.990,13.657 9.973 C 13.803 9.932,13.965 9.744,13.988 9.587 C 14.022 9.362,13.915 9.148,13.723 9.057 C 13.641 9.017,13.331 9.013,10.489 9.013 C 7.475 9.014,7.343 9.016,7.266 9.063 M2.307 12.037 C 2.129 12.116,1.999 12.311,2.001 12.499 C 2.002 12.742,2.177 12.940,2.431 12.987 C 2.526 13.005,4.473 13.012,8.095 13.007 C 13.424 13.000,13.617 12.998,13.714 12.950 C 14.012 12.802,14.090 12.423,13.871 12.181 C 13.817 12.121,13.735 12.056,13.688 12.036 C 13.561 11.983,2.427 11.984,2.307 12.037 " stroke="none" fill="black" fill-rule="evenodd"></path></svg>