<svg class="bi bi-text-center" width="1em" height="1em" viewBox="0 0 16 16" fill="currentColor" xmlns="http://www.w3.org/2000/svg"><path d="M2.280 3.055 C 2.160 3.118,2.104 3.176,2.050 3.293 C 1.995 3.414,1.986 3.560,2.028 3.672 C 2.070 3.784,2.239 3.944,2.346 3.974 C 2.477 4.010,13.525 4.009,13.657 3.973 C 13.803 3.932,13.965 3.744,13.988 3.587 C 14.022 3.362,13.915 3.148,13.723 3.057 C 13.640 3.017,13.135 3.013,7.996 3.013 C 2.937 3.014,2.352 3.018,2.280 3.055 M4.307 6.037 C 4.129 6.116,3.999 6.311,4.001 6.499 C 4.002 6.743,4.177 6.940,4.432 6.987 C 4.527 7.005,5.799 7.012,8.096 7.007 C 11.470 7.000,11.617 6.998,11.714 6.950 C 12.012 6.802,12.090 6.423,11.871 6.181 C 11.817 6.121,11.735 6.056,11.688 6.036 C 11.562 5.983,4.426 5.985,4.307 6.037 M2.280 9.055 C 2.160 9.118,2.104 9.176,2.050 9.293 C 1.995 9.414,1.986 9.560,2.028 9.672 C 2.070 9.784,2.239 9.944,2.346 9.974 C 2.477 10.010,13.525 10.009,13.657 9.973 C 13.803 9.932,13.965 9.744,13.988 9.587 C 14.022 9.362,13.915 9.148,13.723 9.057 C 13.640 9.017,13.135 9.013,7.996 9.013 C 2.937 9.014,2.352 9.018,2.280 9.055 M4.307 12.037 C 4.129 12.116,3.999 12.311,4.001 12.499 C 4.002 12.743,4.177 12.940,4.432 12.987 C 4.527 13.005,5.799 13.012,8.096 13.007 C 11.470 13.000,11.617 12.998,11.714 12.950 C 12.012 12.802,12.090 12.423,11.871 12.181 C 11.817 12.121,11.735 12.056,11.688 12.036 C 11.562 11.983,4.426 11.985,4.307 12.037 " stroke="none" fill="black" fill-rule="evenodd"></path></svg>