<svg class="bi bi-tools" width="1em" height="1em" viewBox="0 0 16 16" fill="currentColor" xmlns="http://www.w3.org/2000/svg"><path d="M0.498 0.502 L 0.000 1.000 1.094 2.533 C 1.695 3.377,2.239 4.122,2.302 4.190 C 2.497 4.399,2.674 4.471,3.085 4.505 C 3.561 4.545,3.471 4.473,5.066 6.067 L 6.466 7.465 6.094 7.846 C 5.889 8.055,5.301 8.651,4.788 9.169 L 3.853 10.112 3.613 10.063 C 3.242 9.986,2.629 9.997,2.291 10.087 C 1.169 10.384,0.387 11.166,0.086 12.291 C 0.026 12.518,0.018 12.598,0.018 13.000 C 0.018 13.402,0.026 13.482,0.086 13.709 C 0.300 14.508,0.753 15.130,1.425 15.548 C 2.597 16.277,4.138 16.099,5.114 15.123 C 5.835 14.401,6.148 13.345,5.931 12.365 L 5.884 12.156 6.389 11.650 C 6.666 11.371,7.263 10.782,7.715 10.340 L 8.537 9.537 9.018 10.018 L 9.499 10.499 9.320 11.043 C 9.149 11.559,9.141 11.596,9.152 11.787 C 9.175 12.187,9.098 12.095,11.075 14.075 C 12.046 15.047,12.893 15.878,12.958 15.921 L 13.076 16.000 13.497 16.000 C 13.861 16.000,13.930 15.993,14.000 15.950 C 14.140 15.866,15.889 14.112,15.947 14.000 C 15.993 13.909,16.000 13.843,16.000 13.486 C 16.000 13.076,16.000 13.076,15.921 12.958 C 15.878 12.893,15.047 12.046,14.075 11.075 C 12.095 9.098,12.187 9.175,11.787 9.152 C 11.596 9.141,11.559 9.149,11.043 9.320 L 10.499 9.499 10.022 9.022 L 9.545 8.544 10.526 7.572 C 11.065 7.037,11.669 6.441,11.867 6.249 L 12.227 5.898 12.400 5.935 C 13.197 6.106,14.107 5.907,14.762 5.419 C 15.677 4.738,16.127 3.659,15.960 2.551 C 15.938 2.407,15.913 2.277,15.904 2.262 C 15.894 2.246,15.405 2.713,14.817 3.300 L 13.747 4.365 12.883 4.183 C 12.407 4.083,12.013 3.995,12.007 3.989 C 12.000 3.982,11.914 3.589,11.815 3.115 L 11.635 2.253 12.703 1.181 C 13.290 0.591,13.766 0.104,13.759 0.097 C 13.725 0.065,13.214 0.000,12.999 0.000 C 11.570 0.000,10.360 1.001,10.049 2.440 C 9.999 2.672,10.005 3.381,10.060 3.600 L 10.103 3.773 9.792 4.093 C 9.621 4.269,9.025 4.873,8.469 5.436 L 7.458 6.458 6.063 5.063 C 4.474 3.471,4.545 3.561,4.505 3.085 C 4.472 2.692,4.407 2.519,4.220 2.325 C 4.148 2.250,1.244 0.156,1.023 0.020 C 1.009 0.010,0.772 0.227,0.498 0.502 M11.221 10.558 C 11.276 10.587,12.022 11.313,12.885 12.178 C 14.291 13.588,14.452 13.758,14.480 13.863 C 14.580 14.244,14.244 14.580,13.863 14.480 C 13.758 14.452,13.588 14.291,12.178 12.885 C 11.313 12.022,10.587 11.276,10.558 11.221 C 10.465 11.041,10.511 10.764,10.657 10.637 C 10.813 10.500,11.047 10.468,11.221 10.558 M3.256 11.133 C 3.481 11.250,3.496 11.253,3.729 11.253 C 4.006 11.253,3.995 11.247,4.164 11.520 C 4.266 11.687,4.308 11.727,4.513 11.857 L 4.747 12.005 4.747 12.256 C 4.747 12.502,4.749 12.513,4.870 12.753 L 4.993 12.998 4.870 13.246 C 4.751 13.485,4.747 13.503,4.747 13.732 C 4.747 14.005,4.753 13.996,4.480 14.164 C 4.317 14.263,4.271 14.310,4.154 14.493 C 4.079 14.611,4.005 14.715,3.989 14.726 C 3.973 14.737,3.855 14.746,3.727 14.746 C 3.504 14.747,3.483 14.752,3.246 14.870 L 2.998 14.993 2.753 14.870 C 2.516 14.751,2.500 14.747,2.269 14.747 C 2.106 14.747,2.019 14.735,1.995 14.711 C 1.976 14.692,1.906 14.589,1.840 14.483 C 1.737 14.318,1.689 14.271,1.507 14.154 C 1.389 14.079,1.285 14.005,1.274 13.989 C 1.263 13.973,1.254 13.855,1.254 13.726 C 1.253 13.502,1.248 13.482,1.130 13.247 L 1.007 13.002 1.130 12.754 C 1.248 12.517,1.253 12.496,1.254 12.273 C 1.254 12.145,1.263 12.027,1.274 12.011 C 1.285 11.995,1.389 11.921,1.507 11.846 C 1.689 11.729,1.737 11.682,1.840 11.517 C 1.906 11.411,1.976 11.308,1.995 11.289 C 2.019 11.265,2.108 11.253,2.275 11.252 C 2.511 11.251,2.528 11.246,2.747 11.133 C 2.871 11.069,2.985 11.015,2.999 11.015 C 3.012 11.014,3.128 11.067,3.256 11.133 " stroke="none" fill="black" fill-rule="evenodd"></path></svg>