<svg class="bi bi-trash" width="1em" height="1em" viewBox="0 0 16 16" fill="currentColor" xmlns="http://www.w3.org/2000/svg"><path d="M6.767 0.028 C 6.385 0.121,6.060 0.484,6.012 0.871 L 5.994 1.012 4.110 1.019 L 2.227 1.027 2.075 1.098 C 1.892 1.184,1.707 1.362,1.617 1.539 C 1.508 1.755,1.488 1.933,1.499 2.600 C 1.508 3.162,1.514 3.226,1.570 3.367 C 1.654 3.580,1.854 3.791,2.074 3.899 C 2.243 3.982,2.267 3.986,2.618 3.996 L 2.985 4.006 2.994 8.650 C 3.003 13.843,2.986 13.405,3.196 13.851 C 3.387 14.257,3.716 14.590,4.120 14.786 C 4.595 15.016,4.311 15.000,8.000 15.000 C 11.100 15.000,11.276 14.997,11.453 14.950 C 12.196 14.753,12.738 14.215,12.949 13.467 C 12.996 13.302,12.999 13.057,13.007 8.650 L 13.015 4.006 13.382 3.996 C 13.733 3.986,13.757 3.982,13.926 3.899 C 14.146 3.791,14.346 3.580,14.430 3.367 C 14.486 3.226,14.492 3.162,14.501 2.600 C 14.512 1.933,14.492 1.755,14.383 1.539 C 14.293 1.362,14.108 1.184,13.925 1.098 L 13.773 1.027 11.890 1.019 L 10.006 1.012 9.988 0.870 C 9.948 0.547,9.723 0.244,9.413 0.096 L 9.240 0.013 8.053 0.009 C 7.401 0.006,6.822 0.015,6.767 0.028 M13.493 2.507 L 13.493 3.013 8.000 3.013 L 2.507 3.013 2.507 2.507 L 2.507 2.000 8.000 2.000 L 13.493 2.000 13.493 2.507 M11.955 4.033 C 11.998 4.065,12.000 4.356,11.994 8.653 L 11.987 13.240 11.903 13.413 C 11.797 13.634,11.633 13.799,11.413 13.904 L 11.240 13.987 8.000 13.987 L 4.760 13.987 4.597 13.911 C 4.391 13.816,4.186 13.610,4.088 13.400 L 4.013 13.240 4.006 8.651 L 3.999 4.062 4.060 4.033 C 4.153 3.988,11.894 3.988,11.955 4.033 M5.347 5.526 C 5.215 5.572,5.122 5.651,5.059 5.769 L 5.000 5.880 5.000 9.000 L 5.000 12.120 5.059 12.231 C 5.255 12.597,5.778 12.580,5.950 12.201 C 5.996 12.099,5.999 11.944,5.999 9.000 C 5.999 6.056,5.996 5.901,5.950 5.799 C 5.843 5.564,5.578 5.444,5.347 5.526 M7.827 5.533 C 7.693 5.581,7.559 5.723,7.522 5.857 C 7.481 6.004,7.482 12.000,7.523 12.146 C 7.562 12.288,7.719 12.440,7.865 12.480 C 8.132 12.552,8.407 12.399,8.479 12.139 C 8.519 11.996,8.517 5.997,8.477 5.854 C 8.424 5.662,8.190 5.491,7.987 5.495 C 7.957 5.495,7.885 5.513,7.827 5.533 M10.337 5.532 C 10.205 5.579,10.112 5.666,10.050 5.800 C 10.003 5.902,10.001 6.049,10.001 9.000 C 10.001 11.944,10.004 12.099,10.050 12.201 C 10.222 12.580,10.745 12.597,10.941 12.231 L 11.000 12.120 11.000 9.000 L 11.000 5.880 10.941 5.769 C 10.876 5.648,10.783 5.572,10.643 5.524 C 10.528 5.485,10.465 5.487,10.337 5.532 " stroke="none" fill="black" fill-rule="evenodd"></path></svg>