<svg class="bi bi-triangle-half" width="1em" height="1em" viewBox="0 0 16 16" fill="currentColor" xmlns="http://www.w3.org/2000/svg"><path d="M7.813 1.016 C 7.608 1.050,7.362 1.177,7.213 1.328 C 7.116 1.427,6.285 2.819,3.586 7.412 C 1.660 10.688,0.069 13.423,0.049 13.491 C -0.007 13.684,0.007 14.064,0.076 14.243 C 0.205 14.573,0.481 14.841,0.809 14.953 C 0.939 14.997,1.343 15.000,7.840 15.007 C 12.386 15.012,14.810 15.006,14.958 14.988 C 15.106 14.970,15.240 14.934,15.351 14.882 C 15.861 14.643,16.126 14.005,15.938 13.467 C 15.880 13.299,9.093 1.715,8.889 1.435 C 8.667 1.130,8.208 0.952,7.813 1.016 M11.530 7.894 C 13.496 11.230,14.993 13.797,14.993 13.833 C 14.993 13.867,14.988 13.901,14.981 13.907 C 14.968 13.921,10.220 13.972,8.900 13.973 L 8.000 13.973 8.000 7.984 C 8.000 3.238,8.007 1.998,8.033 2.007 C 8.051 2.013,9.625 4.662,11.530 7.894 " stroke="none" fill="black" fill-rule="evenodd"></path></svg>