<svg class="bi bi-tv" width="1em" height="1em" viewBox="0 0 16 16" fill="currentColor" xmlns="http://www.w3.org/2000/svg"><path d="M1.537 2.043 C 0.742 2.186,0.212 2.757,0.042 3.652 C -0.021 3.981,-0.021 10.084,0.041 10.441 C 0.159 11.118,0.566 11.601,1.222 11.840 C 1.692 12.011,1.249 12.002,8.147 11.993 C 15.190 11.984,14.530 12.005,14.983 11.781 C 15.486 11.533,15.829 11.028,15.958 10.348 C 16.021 10.019,16.021 3.916,15.959 3.559 C 15.841 2.882,15.433 2.399,14.779 2.161 C 14.311 1.990,14.745 2.000,7.937 2.002 C 2.711 2.004,1.714 2.011,1.537 2.043 M14.448 3.099 C 14.684 3.200,14.811 3.310,14.899 3.488 L 14.973 3.640 14.973 6.960 L 14.973 10.280 14.901 10.448 C 14.747 10.807,14.555 10.944,14.144 10.987 C 14.004 11.002,11.474 11.012,7.973 11.012 C 1.627 11.011,1.816 11.015,1.510 10.882 C 1.311 10.796,1.184 10.681,1.101 10.512 L 1.027 10.360 1.027 7.040 L 1.027 3.720 1.098 3.555 C 1.222 3.265,1.359 3.130,1.609 3.052 C 1.699 3.023,2.884 3.018,8.000 3.022 L 14.280 3.027 14.448 3.099 M2.759 13.063 C 2.640 13.135,2.538 13.268,2.518 13.376 C 2.473 13.614,2.580 13.847,2.780 13.943 L 2.897 14.000 8.000 14.000 L 13.103 14.000 13.220 13.943 C 13.398 13.857,13.480 13.715,13.480 13.493 C 13.480 13.339,13.470 13.303,13.404 13.216 C 13.362 13.161,13.290 13.093,13.244 13.064 C 13.162 13.015,13.033 13.014,8.000 13.014 C 3.021 13.014,2.837 13.015,2.759 13.063 " stroke="none" fill="black" fill-rule="evenodd"></path></svg>