<svg class="bi bi-type-bold" width="1em" height="1em" viewBox="0 0 16 16" fill="currentColor" xmlns="http://www.w3.org/2000/svg"><path d="M3.847 8.072 L 3.853 13.000 5.880 13.008 C 8.598 13.018,9.063 12.990,9.701 12.776 C 10.209 12.606,10.576 12.381,10.908 12.036 C 11.242 11.690,11.426 11.344,11.553 10.828 C 11.633 10.500,11.632 9.889,11.551 9.587 C 11.318 8.723,10.653 8.083,9.776 7.878 C 9.628 7.843,9.462 7.808,9.407 7.799 C 9.352 7.791,9.307 7.773,9.307 7.760 C 9.307 7.747,9.352 7.727,9.407 7.717 C 10.006 7.606,10.584 7.175,10.888 6.613 C 11.268 5.911,11.220 4.952,10.770 4.281 C 10.421 3.758,9.837 3.400,9.040 3.218 C 8.792 3.162,8.737 3.161,6.313 3.153 L 3.840 3.145 3.847 8.072 M8.151 4.729 C 8.865 4.915,9.226 5.476,9.093 6.190 C 9.028 6.541,8.780 6.859,8.442 7.024 C 8.077 7.203,8.040 7.207,6.927 7.220 L 5.920 7.231 5.920 5.946 L 5.920 4.662 6.953 4.674 C 7.787 4.684,8.018 4.694,8.151 4.729 M7.918 8.614 C 8.487 8.658,8.878 8.802,9.149 9.067 C 9.467 9.378,9.588 9.849,9.480 10.360 C 9.348 10.980,8.877 11.343,8.081 11.439 C 7.956 11.454,7.419 11.467,6.887 11.467 L 5.920 11.467 5.920 10.027 L 5.920 8.587 6.753 8.587 C 7.212 8.588,7.736 8.599,7.918 8.614 " stroke="none" fill="black" fill-rule="evenodd"></path></svg>