<svg class="bi bi-type-italic" width="1em" height="1em" viewBox="0 0 16 16" fill="currentColor" xmlns="http://www.w3.org/2000/svg"><path d="M7.213 3.153 C 7.206 3.172,7.178 3.289,7.150 3.415 L 7.101 3.643 7.424 3.687 C 8.066 3.775,8.197 3.887,8.131 4.294 C 8.076 4.634,6.532 11.856,6.489 11.973 C 6.388 12.248,6.158 12.365,5.563 12.442 C 5.386 12.466,5.236 12.489,5.231 12.494 C 5.219 12.505,5.122 12.936,5.121 12.980 C 5.120 13.007,5.506 13.012,7.006 13.007 L 8.891 13.000 8.941 12.751 C 8.968 12.614,8.986 12.497,8.980 12.491 C 8.975 12.486,8.839 12.463,8.678 12.442 C 8.295 12.390,8.136 12.340,8.039 12.239 C 7.895 12.089,7.887 12.137,8.756 8.067 C 9.192 6.028,9.568 4.294,9.593 4.214 C 9.648 4.033,9.774 3.890,9.940 3.819 C 10.075 3.761,10.405 3.695,10.699 3.666 L 10.877 3.649 10.907 3.498 C 10.924 3.415,10.948 3.305,10.962 3.253 C 10.975 3.202,10.986 3.151,10.987 3.140 C 10.987 3.129,10.140 3.120,9.106 3.120 C 7.626 3.120,7.222 3.127,7.213 3.153 " stroke="none" fill="black" fill-rule="evenodd"></path></svg>