<svg class="bi bi-type" width="1em" height="1em" viewBox="0 0 16 16" fill="currentColor" xmlns="http://www.w3.org/2000/svg"><path d="M4.306 3.793 C 4.126 4.284,1.013 13.051,1.013 13.068 C 1.013 13.089,2.236 13.108,2.242 13.087 C 2.243 13.083,2.456 12.450,2.715 11.680 L 3.187 10.280 4.922 10.273 L 6.657 10.266 7.132 11.680 L 7.607 13.093 8.233 13.093 C 8.817 13.093,8.859 13.090,8.846 13.047 C 8.837 13.013,5.795 4.465,5.568 3.833 L 5.541 3.760 4.930 3.760 C 4.465 3.760,4.315 3.768,4.306 3.793 M5.638 7.223 C 6.013 8.343,6.320 9.270,6.320 9.283 C 6.320 9.297,5.723 9.307,4.917 9.307 C 3.806 9.307,3.517 9.300,3.526 9.273 C 3.532 9.255,3.847 8.318,4.226 7.192 C 4.605 6.065,4.923 5.153,4.935 5.165 C 4.946 5.177,5.262 6.103,5.638 7.223 M11.966 5.828 C 11.052 5.970,10.402 6.443,10.109 7.178 C 10.034 7.364,9.947 7.746,9.947 7.883 L 9.947 7.948 10.498 7.941 L 11.049 7.933 11.083 7.767 C 11.180 7.292,11.569 6.924,12.093 6.814 C 12.196 6.792,12.413 6.774,12.576 6.774 C 13.075 6.773,13.433 6.896,13.695 7.158 C 13.989 7.452,14.080 7.767,14.080 8.490 L 14.080 8.956 12.860 8.967 C 11.723 8.978,11.622 8.982,11.375 9.037 C 10.696 9.189,10.188 9.518,9.925 9.978 C 9.761 10.265,9.700 10.508,9.686 10.926 C 9.675 11.254,9.681 11.342,9.733 11.564 C 9.917 12.362,10.486 12.911,11.350 13.125 C 11.541 13.172,11.666 13.183,12.000 13.184 C 12.227 13.184,12.491 13.169,12.587 13.151 C 13.223 13.029,13.749 12.706,14.039 12.260 C 14.065 12.220,14.097 12.187,14.110 12.187 C 14.123 12.187,14.133 12.391,14.133 12.640 L 14.133 13.093 14.694 13.093 L 15.255 13.093 15.247 10.393 C 15.239 7.699,15.239 7.693,15.180 7.480 C 14.878 6.389,13.939 5.780,12.573 5.789 C 12.368 5.791,12.095 5.808,11.966 5.828 M14.080 10.381 C 14.080 10.964,14.056 11.098,13.902 11.392 C 13.724 11.730,13.322 12.031,12.893 12.148 C 12.652 12.213,12.163 12.228,11.920 12.176 C 11.616 12.112,11.369 11.978,11.179 11.775 C 10.946 11.526,10.895 11.381,10.894 10.973 C 10.893 10.682,10.900 10.640,10.965 10.501 C 11.103 10.207,11.401 9.992,11.790 9.908 C 11.918 9.880,12.224 9.870,13.020 9.869 L 14.080 9.867 14.080 10.381 " stroke="none" fill="black" fill-rule="evenodd"></path></svg>