<svg class="bi bi-upc" width="1em" height="1em" viewBox="0 0 16 16" fill="currentColor" xmlns="http://www.w3.org/2000/svg"><path d="M3.290 4.051 C 3.144 4.117,3.046 4.252,3.013 4.432 C 2.995 4.527,2.988 5.799,2.993 8.096 C 3.000 11.470,3.002 11.617,3.050 11.714 C 3.151 11.916,3.358 12.022,3.587 11.988 C 3.744 11.965,3.932 11.803,3.973 11.657 C 4.009 11.526,4.010 4.477,3.974 4.346 C 3.944 4.239,3.784 4.070,3.672 4.028 C 3.560 3.986,3.414 3.995,3.290 4.051 M5.290 4.051 C 5.144 4.117,5.046 4.252,5.013 4.432 C 4.995 4.527,4.988 5.799,4.993 8.096 C 5.000 11.470,5.002 11.617,5.050 11.714 C 5.151 11.916,5.358 12.022,5.587 11.988 C 5.744 11.965,5.932 11.803,5.973 11.657 C 6.009 11.526,6.010 4.477,5.974 4.346 C 5.944 4.239,5.784 4.070,5.672 4.028 C 5.560 3.986,5.414 3.995,5.290 4.051 M7.290 4.051 C 7.144 4.117,7.046 4.252,7.013 4.432 C 6.995 4.527,6.988 5.799,6.993 8.096 C 7.000 11.470,7.002 11.617,7.050 11.714 C 7.151 11.916,7.358 12.022,7.587 11.988 C 7.744 11.965,7.932 11.803,7.973 11.657 C 8.009 11.526,8.010 4.477,7.974 4.346 C 7.944 4.239,7.784 4.070,7.672 4.028 C 7.560 3.986,7.414 3.995,7.290 4.051 M9.290 4.051 C 9.146 4.116,9.047 4.251,9.013 4.426 C 8.977 4.619,8.977 11.381,9.013 11.574 C 9.047 11.749,9.146 11.884,9.290 11.949 C 9.387 11.993,9.471 11.999,10.000 11.999 C 10.529 11.999,10.613 11.993,10.710 11.949 C 10.854 11.884,10.953 11.749,10.987 11.574 C 11.023 11.381,11.023 4.619,10.987 4.426 C 10.953 4.251,10.854 4.116,10.710 4.051 C 10.613 4.007,10.529 4.001,10.000 4.001 C 9.471 4.001,9.387 4.007,9.290 4.051 M12.307 4.037 C 12.201 4.084,12.081 4.206,12.036 4.312 C 11.983 4.439,11.982 11.559,12.036 11.688 C 12.056 11.735,12.121 11.817,12.181 11.871 C 12.423 12.090,12.802 12.012,12.950 11.714 C 12.998 11.617,13.000 11.470,13.007 8.096 C 13.012 5.799,13.005 4.527,12.987 4.432 C 12.972 4.349,12.930 4.246,12.890 4.193 C 12.762 4.026,12.495 3.954,12.307 4.037 " stroke="none" fill="black" fill-rule="evenodd"></path></svg>