<svg class="bi bi-view-list" width="1em" height="1em" viewBox="0 0 16 16" fill="currentColor" xmlns="http://www.w3.org/2000/svg"><path d="M1.347 1.526 C 1.133 1.602,1.013 1.772,1.013 2.000 C 1.013 2.233,1.134 2.400,1.357 2.476 C 1.488 2.520,14.512 2.520,14.643 2.476 C 14.866 2.400,14.987 2.233,14.987 2.000 C 14.987 1.767,14.866 1.600,14.643 1.524 C 14.519 1.482,1.465 1.484,1.347 1.526 M2.573 4.546 C 2.191 4.630,1.824 4.842,1.543 5.141 C 1.228 5.478,1.056 5.867,1.012 6.347 C 0.981 6.685,0.981 9.333,1.013 9.655 C 1.063 10.169,1.235 10.540,1.587 10.896 C 1.828 11.140,2.071 11.294,2.387 11.405 L 2.600 11.480 8.000 11.480 L 13.400 11.480 13.634 11.396 C 13.964 11.278,14.138 11.167,14.400 10.907 C 14.764 10.544,14.936 10.177,14.987 9.655 C 15.019 9.324,15.019 6.676,14.987 6.345 C 14.936 5.824,14.765 5.458,14.400 5.093 C 14.141 4.834,13.966 4.722,13.634 4.604 L 13.400 4.520 8.067 4.515 C 3.743 4.511,2.703 4.517,2.573 4.546 M13.367 5.569 C 13.580 5.655,13.791 5.855,13.899 6.075 L 13.987 6.252 13.987 8.000 L 13.987 9.748 13.899 9.925 C 13.791 10.145,13.580 10.345,13.367 10.431 L 13.213 10.493 8.000 10.493 L 2.787 10.493 2.633 10.431 C 2.420 10.345,2.209 10.145,2.101 9.925 L 2.013 9.748 2.013 8.001 L 2.013 6.253 2.084 6.102 C 2.168 5.924,2.340 5.728,2.492 5.639 C 2.749 5.489,2.451 5.496,8.053 5.502 L 13.213 5.507 13.367 5.569 M1.347 13.526 C 1.133 13.602,1.013 13.772,1.013 14.000 C 1.013 14.233,1.134 14.400,1.357 14.476 C 1.488 14.520,14.512 14.520,14.643 14.476 C 14.866 14.400,14.987 14.233,14.987 14.000 C 14.987 13.767,14.866 13.600,14.643 13.524 C 14.519 13.482,1.465 13.484,1.347 13.526 " stroke="none" fill="black" fill-rule="evenodd"></path></svg>