<svg class="bi bi-volume-down-fill" width="1em" height="1em" viewBox="0 0 16 16" fill="currentColor" xmlns="http://www.w3.org/2000/svg"><path d="M8.353 3.523 C 8.302 3.538,7.755 3.957,7.049 4.521 L 5.833 5.493 4.640 5.493 C 3.810 5.493,3.420 5.503,3.357 5.524 C 3.217 5.572,3.124 5.648,3.059 5.769 L 3.000 5.880 3.000 8.000 L 3.000 10.120 3.059 10.231 C 3.124 10.352,3.217 10.428,3.357 10.476 C 3.420 10.497,3.810 10.507,4.640 10.507 L 5.833 10.507 7.049 11.479 C 8.364 12.530,8.377 12.539,8.607 12.481 C 8.771 12.440,8.844 12.386,8.928 12.243 L 9.000 12.120 9.000 8.000 L 9.000 3.880 8.941 3.769 C 8.876 3.648,8.783 3.572,8.643 3.524 C 8.538 3.488,8.474 3.488,8.353 3.523 M10.355 5.178 L 10.003 5.533 10.135 5.675 C 10.553 6.126,10.870 6.786,10.973 7.420 C 11.024 7.736,11.024 8.264,10.973 8.580 C 10.872 9.204,10.562 9.854,10.147 10.313 L 10.004 10.471 10.358 10.824 L 10.712 11.177 10.869 11.005 C 11.430 10.393,11.796 9.634,11.965 8.733 C 12.027 8.402,12.027 7.598,11.965 7.267 C 11.796 6.363,11.421 5.587,10.867 4.995 L 10.707 4.823 10.355 5.178 " stroke="none" fill="black" fill-rule="evenodd"></path></svg>