<svg class="bi bi-volume-mute-fill" width="1em" height="1em" viewBox="0 0 16 16" fill="currentColor" xmlns="http://www.w3.org/2000/svg"><path d="M6.353 3.523 C 6.302 3.538,5.755 3.957,5.049 4.521 L 3.833 5.493 2.640 5.493 C 1.810 5.493,1.420 5.503,1.357 5.524 C 1.217 5.572,1.124 5.648,1.059 5.769 L 1.000 5.880 1.000 8.000 L 1.000 10.120 1.059 10.231 C 1.124 10.352,1.217 10.428,1.357 10.476 C 1.420 10.497,1.810 10.507,2.640 10.507 L 3.833 10.507 5.049 11.479 C 6.364 12.530,6.377 12.539,6.607 12.481 C 6.771 12.440,6.844 12.386,6.928 12.243 L 7.000 12.120 7.000 8.000 L 7.000 3.880 6.941 3.769 C 6.876 3.648,6.783 3.572,6.643 3.524 C 6.538 3.488,6.474 3.488,6.353 3.523 M9.393 5.013 C 9.122 5.077,8.961 5.338,9.019 5.619 C 9.045 5.740,9.090 5.791,9.916 6.620 L 10.785 7.494 9.942 8.340 C 9.478 8.806,9.079 9.226,9.055 9.274 C 9.008 9.368,8.994 9.550,9.026 9.655 C 9.108 9.922,9.436 10.069,9.700 9.959 C 9.766 9.932,10.089 9.629,10.653 9.066 L 11.508 8.214 12.361 9.067 C 13.024 9.731,13.238 9.930,13.326 9.964 C 13.625 10.078,13.958 9.876,13.993 9.560 C 14.020 9.322,13.990 9.283,13.067 8.361 L 12.214 7.508 13.066 6.653 C 13.629 6.089,13.932 5.766,13.959 5.700 C 14.141 5.264,13.676 4.846,13.253 5.066 C 13.216 5.085,12.806 5.479,12.340 5.942 L 11.493 6.785 10.620 5.915 C 9.897 5.196,9.731 5.043,9.653 5.028 C 9.602 5.018,9.542 5.006,9.520 5.001 C 9.498 4.996,9.441 5.002,9.393 5.013 " stroke="none" fill="black" fill-rule="evenodd"></path></svg>