<svg class="bi bi-x-diamond-fill" width="1em" height="1em" viewBox="0 0 16 16" fill="currentColor" xmlns="http://www.w3.org/2000/svg"><path d="M7.760 0.017 C 7.587 0.050,7.348 0.147,7.195 0.244 C 7.079 0.319,6.561 0.817,5.533 1.842 L 4.040 3.333 6.020 5.313 L 8.000 7.293 9.980 5.313 L 11.960 3.332 10.440 1.817 C 9.465 0.844,8.873 0.274,8.790 0.226 C 8.554 0.090,8.327 0.023,8.067 0.013 C 7.935 0.008,7.797 0.010,7.760 0.017 M1.835 5.540 C 0.280 7.099,0.194 7.197,0.075 7.542 C -0.012 7.795,-0.012 8.205,0.075 8.458 C 0.194 8.803,0.279 8.900,1.842 10.467 L 3.333 11.960 5.313 9.980 L 7.293 8.000 5.320 6.027 C 4.235 4.941,3.340 4.053,3.333 4.053 C 3.325 4.053,2.651 4.722,1.835 5.540 M10.680 6.027 L 8.707 8.000 10.687 9.980 L 12.667 11.960 14.081 10.547 C 14.859 9.769,15.561 9.054,15.641 8.957 C 15.924 8.615,16.041 8.209,15.980 7.789 C 15.946 7.556,15.835 7.284,15.703 7.112 C 15.616 6.998,12.693 4.053,12.667 4.053 C 12.659 4.053,11.765 4.941,10.680 6.027 M6.013 10.694 L 4.040 12.667 5.533 14.158 C 6.581 15.203,7.078 15.681,7.199 15.758 C 7.453 15.921,7.688 15.987,8.013 15.986 C 8.400 15.985,8.647 15.894,8.960 15.638 C 9.055 15.560,9.769 14.859,10.547 14.081 L 11.960 12.667 9.987 10.693 C 8.901 9.608,8.007 8.720,8.000 8.720 C 7.993 8.720,7.099 9.608,6.013 10.694 " stroke="none" fill="black" fill-rule="evenodd"></path></svg>