<svg class="bi bi-x-diamond" width="1em" height="1em" viewBox="0 0 16 16" fill="currentColor" xmlns="http://www.w3.org/2000/svg"><path d="M7.760 0.017 C 7.589 0.050,7.348 0.146,7.195 0.243 C 6.967 0.387,0.395 6.964,0.241 7.202 C 0.074 7.460,0.014 7.671,0.014 8.000 C 0.014 8.329,0.073 8.535,0.243 8.805 C 0.385 9.030,6.975 15.612,7.212 15.766 C 7.452 15.921,7.692 15.987,8.013 15.986 C 8.304 15.985,8.454 15.948,8.733 15.805 C 8.872 15.735,9.353 15.265,12.271 12.349 C 14.729 9.893,15.678 8.928,15.756 8.805 C 15.927 8.537,15.986 8.330,15.986 8.000 C 15.986 7.670,15.927 7.463,15.756 7.195 C 15.611 6.968,8.982 0.335,8.790 0.225 C 8.552 0.089,8.326 0.023,8.067 0.013 C 7.935 0.008,7.797 0.010,7.760 0.017 M8.200 1.038 C 8.272 1.072,8.787 1.569,9.780 2.564 L 11.254 4.041 9.640 5.654 C 8.752 6.541,8.014 7.267,8.000 7.267 C 7.986 7.267,7.248 6.541,6.360 5.654 L 4.746 4.041 6.220 2.564 C 7.213 1.569,7.728 1.072,7.800 1.038 C 7.859 1.010,7.949 0.988,8.000 0.988 C 8.051 0.988,8.141 1.010,8.200 1.038 M5.654 6.360 C 6.541 7.248,7.267 7.986,7.267 8.000 C 7.267 8.014,6.541 8.752,5.654 9.640 L 4.041 11.254 2.564 9.780 C 1.569 8.787,1.072 8.272,1.038 8.200 C 0.977 8.070,0.974 7.950,1.028 7.819 C 1.056 7.750,1.524 7.264,2.554 6.233 C 3.371 5.416,4.040 4.747,4.040 4.747 C 4.041 4.747,4.767 5.473,5.654 6.360 M13.446 6.233 C 14.476 7.264,14.944 7.750,14.972 7.819 C 15.026 7.950,15.023 8.070,14.962 8.200 C 14.928 8.272,14.429 8.789,13.430 9.786 C 12.616 10.599,11.945 11.258,11.941 11.251 C 11.937 11.244,11.207 10.509,10.320 9.619 L 8.707 8.000 10.320 6.378 C 11.207 5.485,11.939 4.753,11.947 4.751 C 11.954 4.749,12.629 5.416,13.446 6.233 M9.640 10.346 L 11.254 11.959 9.780 13.436 C 8.787 14.431,8.272 14.928,8.200 14.962 C 8.141 14.990,8.051 15.012,8.000 15.012 C 7.949 15.012,7.859 14.990,7.800 14.962 C 7.728 14.928,7.213 14.431,6.220 13.436 L 4.746 11.959 6.366 10.340 C 7.258 9.449,7.996 8.723,8.006 8.727 C 8.017 8.730,8.752 9.459,9.640 10.346 " stroke="none" fill="black" fill-rule="evenodd"></path></svg>