<svg class="bi bi-x" width="1em" height="1em" viewBox="0 0 16 16" fill="currentColor" xmlns="http://www.w3.org/2000/svg"><path d="M4.307 4.037 C 4.056 4.148,3.937 4.437,4.041 4.688 C 4.069 4.756,4.571 5.276,5.687 6.393 L 7.293 8.000 5.676 9.620 C 4.372 10.926,4.053 11.260,4.026 11.343 C 3.932 11.640,4.134 11.959,4.437 11.993 C 4.686 12.021,4.639 12.062,6.380 10.324 L 8.000 8.707 9.620 10.324 C 10.927 11.628,11.260 11.947,11.343 11.974 C 11.640 12.068,11.959 11.866,11.993 11.563 C 12.021 11.314,12.062 11.361,10.324 9.620 L 8.707 8.000 10.324 6.380 C 12.062 4.639,12.021 4.686,11.993 4.437 C 11.959 4.134,11.640 3.932,11.343 4.026 C 11.260 4.053,10.926 4.372,9.620 5.676 L 8.000 7.293 6.393 5.687 C 5.276 4.571,4.756 4.069,4.688 4.041 C 4.567 3.991,4.414 3.990,4.307 4.037 " stroke="none" fill="black" fill-rule="evenodd"></path></svg>