<svg role="img" viewBox="0 0 24 24" xmlns="http://www.w3.org/2000/svg"><path d="M4.430 7.990 L 0.000 12.420 0.000 14.210 L 0.000 16.000 4.420 16.000 L 8.840 16.000 8.840 18.220 L 8.840 20.440 11.040 20.440 L 13.240 20.440 13.240 16.440 L 13.240 12.440 8.842 12.430 L 4.444 12.420 8.846 7.990 L 13.247 3.560 11.053 3.560 L 8.860 3.560 4.430 7.990 M15.160 5.774 L 15.160 7.988 17.359 5.784 L 19.559 3.580 19.559 5.800 L 19.560 8.020 17.360 10.220 L 15.160 12.420 15.160 14.630 L 15.160 16.840 17.360 16.840 L 19.560 16.840 19.560 14.624 L 19.560 12.407 21.780 10.211 L 24.000 8.014 24.000 5.787 L 24.000 3.560 19.580 3.560 L 15.160 3.560 15.160 5.774 M21.780 14.640 L 19.580 16.840 21.790 16.840 L 24.000 16.840 24.000 14.640 C 24.000 13.430,23.995 12.440,23.990 12.440 C 23.984 12.440,22.990 13.430,21.780 14.640 " stroke="none" fill="black" fill-rule="evenodd"></path></svg>