<svg role="img" viewBox="0 0 24 24" xmlns="http://www.w3.org/2000/svg"><path d="M11.220 0.049 C 11.210 0.077,9.392 5.383,7.179 11.840 C 4.967 18.297,3.121 23.675,3.078 23.791 L 3.000 24.002 3.627 23.991 L 4.253 23.980 4.626 22.860 C 4.831 22.244,5.352 20.691,5.784 19.410 L 6.570 17.080 11.975 17.090 L 17.380 17.100 18.533 20.550 L 19.687 24.000 20.340 24.000 L 20.993 24.000 20.816 23.490 C 20.718 23.209,18.867 17.814,16.702 11.500 L 12.767 0.020 12.003 0.009 C 11.412 0.001,11.234 0.010,11.220 0.049 M14.482 8.465 C 15.845 12.554,16.960 15.913,16.960 15.930 C 16.960 15.946,14.708 15.960,11.956 15.960 C 7.969 15.960,6.955 15.950,6.969 15.910 C 6.979 15.883,8.109 12.516,9.480 8.429 C 10.850 4.343,11.979 1.006,11.988 1.014 C 11.996 1.023,13.118 4.376,14.482 8.465 " stroke="none" fill="black" fill-rule="evenodd"></path></svg>