<svg role="img" viewBox="0 0 24 24" xmlns="http://www.w3.org/2000/svg"><path d="M1.124 11.070 C 0.719 12.231,0.301 13.428,0.194 13.730 L 0.002 14.280 0.496 14.280 L 0.990 14.280 1.120 13.920 L 1.250 13.560 1.880 13.560 L 2.510 13.560 2.640 13.920 L 2.770 14.280 3.264 14.280 L 3.758 14.280 3.539 13.650 C 2.298 10.095,1.897 8.961,1.880 8.960 C 1.869 8.960,1.529 9.910,1.124 11.070 M4.849 9.736 C 4.712 9.986,4.600 10.202,4.600 10.216 C 4.600 10.229,5.077 10.240,5.660 10.240 L 6.720 10.240 6.720 12.260 L 6.720 14.280 7.220 14.280 L 7.720 14.280 7.720 12.260 L 7.720 10.240 8.459 10.240 C 9.127 10.240,9.201 10.247,9.235 10.312 C 9.263 10.363,10.601 13.782,11.076 15.015 C 11.096 15.067,11.379 14.349,12.002 12.665 L 12.899 10.240 15.173 10.240 C 16.423 10.240,17.441 10.226,17.433 10.210 C 17.426 10.193,17.312 9.977,17.180 9.730 L 16.940 9.281 14.557 9.280 L 12.174 9.280 11.642 10.701 C 11.349 11.483,11.105 12.118,11.099 12.111 C 11.094 12.105,10.832 11.466,10.518 10.690 L 9.946 9.280 7.522 9.280 L 5.098 9.280 4.849 9.736 M21.320 12.319 L 21.320 14.202 21.810 14.191 L 22.300 14.180 22.311 13.441 L 22.322 12.703 23.161 13.541 L 24.000 14.379 24.000 12.490 L 24.000 10.600 23.560 10.600 L 23.120 10.600 23.120 11.260 C 23.120 11.623,23.107 11.920,23.090 11.920 C 23.073 11.919,22.880 11.765,22.660 11.577 C 22.440 11.389,22.049 11.055,21.790 10.835 L 21.320 10.436 21.320 12.319 M4.960 10.561 C 4.633 10.629,4.225 10.862,3.997 11.110 C 3.002 12.198,3.562 13.962,4.992 14.242 C 5.460 14.334,6.000 14.229,6.365 13.976 C 6.450 13.917,6.520 13.854,6.520 13.836 C 6.520 13.812,6.085 13.060,6.018 12.968 C 6.013 12.961,5.942 13.001,5.861 13.057 C 5.320 13.424,4.552 13.054,4.489 12.395 C 4.456 12.059,4.653 11.679,4.935 11.532 C 5.226 11.380,5.624 11.401,5.816 11.580 L 5.919 11.675 6.219 11.332 C 6.385 11.143,6.520 10.978,6.520 10.964 C 6.520 10.914,6.132 10.684,5.940 10.619 C 5.699 10.539,5.208 10.510,4.960 10.561 M12.880 12.360 L 12.880 14.200 13.380 14.200 L 13.880 14.200 13.880 12.360 L 13.880 10.520 13.380 10.520 L 12.880 10.520 12.880 12.360 M14.740 10.580 C 14.257 10.751,14.102 11.380,14.395 11.975 C 14.461 12.111,14.662 12.390,14.841 12.596 C 15.200 13.010,15.262 13.123,15.198 13.245 C 15.134 13.363,14.993 13.400,14.597 13.400 L 14.240 13.400 14.240 13.803 L 14.240 14.207 14.910 14.193 C 15.519 14.181,15.598 14.171,15.773 14.085 C 15.894 14.026,16.005 13.930,16.073 13.828 C 16.165 13.688,16.180 13.625,16.180 13.362 C 16.180 13.101,16.162 13.022,16.051 12.797 C 15.980 12.653,15.804 12.397,15.660 12.227 C 15.196 11.684,15.121 11.524,15.263 11.383 C 15.311 11.335,15.412 11.320,15.683 11.320 L 16.040 11.320 16.040 10.920 L 16.040 10.520 15.470 10.522 C 15.085 10.523,14.848 10.542,14.740 10.580 M16.298 10.570 C 16.288 10.598,16.284 11.421,16.290 12.400 L 16.300 14.180 16.790 14.191 L 17.280 14.202 17.280 12.361 L 17.280 10.520 16.799 10.520 C 16.451 10.520,16.312 10.534,16.298 10.570 M18.871 10.582 C 18.322 10.715,17.899 11.063,17.650 11.587 C 17.520 11.861,17.501 11.942,17.487 12.272 C 17.466 12.735,17.546 13.065,17.758 13.391 C 18.416 14.403,19.770 14.579,20.646 13.768 C 21.286 13.175,21.404 12.114,20.914 11.351 C 20.502 10.708,19.659 10.391,18.871 10.582 M8.320 12.440 L 8.320 14.280 8.820 14.280 L 9.320 14.280 9.320 12.440 L 9.320 10.600 8.820 10.600 L 8.320 10.600 8.320 12.440 M19.765 11.632 C 20.045 11.778,20.209 12.031,20.231 12.353 C 20.245 12.544,20.229 12.615,20.132 12.799 C 19.965 13.117,19.755 13.253,19.402 13.273 C 19.075 13.292,18.884 13.236,18.691 13.066 C 18.518 12.915,18.440 12.741,18.440 12.509 C 18.440 11.751,19.125 11.298,19.765 11.632 M2.013 12.118 C 2.161 12.614,2.165 12.600,1.880 12.600 C 1.690 12.600,1.640 12.587,1.640 12.538 C 1.640 12.443,1.851 11.760,1.880 11.760 C 1.894 11.760,1.954 11.921,2.013 12.118 " stroke="none" fill="black" fill-rule="evenodd"></path></svg>