<svg role="img" viewBox="0 0 24 24" xmlns="http://www.w3.org/2000/svg"><path d="M3.360 0.398 C 2.423 0.597,1.546 1.137,0.944 1.886 C 0.610 2.301,0.275 2.964,0.129 3.500 L 0.020 3.900 0.020 12.000 L 0.020 20.100 0.129 20.500 C 0.560 22.082,1.769 23.239,3.380 23.613 C 3.737 23.696,3.796 23.697,11.600 23.710 C 16.689 23.719,19.643 23.710,19.980 23.683 C 21.028 23.601,21.818 23.280,22.571 22.630 C 23.139 22.139,23.649 21.303,23.870 20.500 L 23.980 20.100 23.980 12.000 L 23.980 3.900 23.870 3.500 C 23.423 1.878,22.156 0.685,20.560 0.382 C 20.269 0.327,19.289 0.320,11.966 0.323 C 4.153 0.325,3.681 0.330,3.360 0.398 M10.969 11.480 C 11.976 14.307,12.800 16.660,12.800 16.710 L 12.800 16.800 11.662 16.800 C 10.796 16.800,10.517 16.788,10.493 16.750 C 10.476 16.723,10.279 16.169,10.057 15.520 L 9.652 14.340 7.779 14.340 L 5.905 14.340 5.523 15.522 C 5.312 16.172,5.125 16.725,5.108 16.752 C 5.058 16.826,3.005 16.820,2.977 16.746 C 2.965 16.716,3.705 14.543,4.622 11.916 C 5.538 9.289,6.303 7.041,6.323 6.920 C 6.343 6.799,6.360 6.627,6.360 6.537 C 6.360 6.447,6.372 6.361,6.387 6.346 C 6.402 6.331,7.027 6.324,7.777 6.329 L 9.139 6.340 10.969 11.480 M7.643 8.550 C 7.554 8.922,7.083 10.498,6.699 11.704 C 6.601 12.015,6.520 12.280,6.520 12.294 C 6.520 12.308,7.088 12.320,7.783 12.320 L 9.045 12.320 9.018 12.230 C 9.003 12.181,8.895 11.843,8.778 11.480 C 8.370 10.210,8.088 9.296,7.938 8.760 C 7.856 8.463,7.776 8.206,7.762 8.190 C 7.747 8.173,7.694 8.335,7.643 8.550 M18.220 8.833 C 19.249 9.134,19.929 9.760,20.321 10.769 C 20.523 11.290,20.570 11.638,20.554 12.482 C 20.542 13.142,20.531 13.246,20.469 13.309 C 20.402 13.375,20.238 13.381,17.982 13.391 L 15.568 13.403 15.624 13.642 C 15.697 13.957,15.846 14.245,16.053 14.469 C 16.277 14.714,16.453 14.818,16.891 14.970 C 17.244 15.092,17.286 15.097,17.880 15.097 C 18.540 15.096,19.185 15.004,19.650 14.844 L 19.880 14.764 19.902 14.855 C 19.915 14.905,19.919 15.292,19.912 15.716 C 19.898 16.620,19.926 16.566,19.392 16.733 C 18.901 16.887,18.412 16.962,17.740 16.988 C 16.260 17.044,15.285 16.743,14.485 15.982 C 13.677 15.213,13.286 14.119,13.332 12.760 C 13.359 11.967,13.506 11.342,13.806 10.748 C 14.340 9.688,15.328 8.926,16.381 8.762 C 16.513 8.742,16.917 8.731,17.280 8.738 C 17.796 8.749,18.001 8.770,18.220 8.833 M16.651 10.496 C 16.082 10.681,15.739 11.103,15.583 11.810 L 15.558 11.920 16.917 11.920 C 17.749 11.920,18.317 11.904,18.383 11.879 C 18.487 11.839,18.490 11.829,18.468 11.614 C 18.422 11.170,18.103 10.735,17.687 10.549 C 17.451 10.444,16.899 10.415,16.651 10.496 " stroke="none" fill="black" fill-rule="evenodd"></path></svg>