<svg role="img" viewBox="0 0 24 24" xmlns="http://www.w3.org/2000/svg"><path d="M3.360 0.398 C 2.423 0.597,1.546 1.137,0.944 1.886 C 0.610 2.301,0.275 2.964,0.129 3.500 L 0.020 3.900 0.020 12.000 L 0.020 20.100 0.129 20.500 C 0.560 22.082,1.769 23.239,3.380 23.613 C 3.737 23.696,3.796 23.697,11.600 23.710 C 16.689 23.719,19.643 23.710,19.980 23.683 C 21.028 23.601,21.818 23.280,22.571 22.630 C 23.139 22.139,23.649 21.303,23.870 20.500 L 23.980 20.100 23.980 12.000 L 23.980 3.900 23.870 3.500 C 23.423 1.878,22.156 0.685,20.560 0.382 C 20.269 0.327,19.289 0.320,11.966 0.323 C 4.153 0.325,3.681 0.330,3.360 0.398 M17.566 5.607 C 17.792 5.703,18.014 5.934,18.134 6.195 C 18.201 6.340,18.220 6.457,18.220 6.740 C 18.220 7.053,18.206 7.130,18.108 7.327 C 17.987 7.574,17.814 7.748,17.549 7.890 C 17.408 7.965,17.318 7.980,17.000 7.980 C 16.679 7.980,16.592 7.965,16.440 7.886 C 16.195 7.757,16.013 7.578,15.886 7.340 C 15.792 7.162,15.780 7.096,15.780 6.740 C 15.780 6.372,15.789 6.323,15.898 6.127 C 16.063 5.829,16.357 5.609,16.709 5.521 C 16.923 5.468,17.340 5.509,17.566 5.607 M11.112 6.331 C 11.182 6.414,14.806 16.679,14.792 16.752 C 14.780 16.814,14.675 16.821,13.678 16.831 C 12.837 16.839,12.562 16.829,12.514 16.791 C 12.479 16.763,12.279 16.236,12.068 15.620 C 11.858 15.004,11.674 14.468,11.659 14.430 C 11.633 14.365,11.506 14.360,9.766 14.360 L 7.900 14.360 7.521 15.542 C 7.312 16.192,7.113 16.750,7.077 16.783 C 7.023 16.832,6.844 16.840,5.997 16.831 C 5.102 16.821,4.980 16.812,4.969 16.756 C 4.962 16.721,5.706 14.534,6.621 11.896 C 8.097 7.646,8.291 7.059,8.326 6.740 C 8.348 6.542,8.373 6.357,8.382 6.330 C 8.405 6.257,11.051 6.257,11.112 6.331 M9.623 8.589 C 9.519 9.004,8.939 10.932,8.657 11.800 C 8.582 12.031,8.520 12.243,8.520 12.270 C 8.520 12.309,8.796 12.320,9.760 12.320 C 10.863 12.320,11.000 12.313,11.000 12.257 C 11.000 12.222,10.911 11.921,10.803 11.587 C 10.515 10.703,10.067 9.256,9.903 8.684 C 9.825 8.411,9.755 8.181,9.746 8.173 C 9.738 8.164,9.682 8.351,9.623 8.589 M18.060 12.840 L 18.060 16.820 16.980 16.820 L 15.900 16.820 15.890 12.880 C 15.884 10.713,15.888 8.917,15.899 8.889 C 15.914 8.850,16.154 8.841,16.989 8.849 L 18.060 8.860 18.060 12.840 " stroke="none" fill="black" fill-rule="evenodd"></path></svg>