<svg role="img" viewBox="0 0 24 24" xmlns="http://www.w3.org/2000/svg"><path d="M3.360 0.398 C 2.423 0.597,1.546 1.137,0.944 1.886 C 0.610 2.301,0.275 2.964,0.129 3.500 L 0.020 3.900 0.020 12.000 L 0.020 20.100 0.129 20.500 C 0.560 22.082,1.769 23.239,3.380 23.613 C 3.737 23.696,3.796 23.697,11.600 23.710 C 16.689 23.719,19.643 23.710,19.980 23.683 C 21.028 23.601,21.818 23.280,22.571 22.630 C 23.139 22.139,23.649 21.303,23.870 20.500 L 23.980 20.100 23.980 12.000 L 23.980 3.900 23.870 3.500 C 23.423 1.878,22.156 0.685,20.560 0.382 C 20.269 0.327,19.289 0.320,11.966 0.323 C 4.153 0.325,3.681 0.330,3.360 0.398 M4.560 10.560 L 4.560 14.800 6.678 14.800 C 7.910 14.800,8.805 14.815,8.818 14.836 C 8.853 14.893,8.571 16.718,8.518 16.783 C 8.477 16.831,8.032 16.840,5.563 16.840 C 3.355 16.840,2.644 16.828,2.608 16.792 C 2.571 16.755,2.560 15.538,2.560 11.559 C 2.560 8.707,2.572 6.361,2.587 6.347 C 2.601 6.332,3.051 6.320,3.587 6.320 L 4.560 6.320 4.560 10.560 M20.724 7.218 C 20.898 7.249,21.108 7.307,21.190 7.347 L 21.340 7.420 21.351 8.351 C 21.360 9.140,21.353 9.285,21.303 9.304 C 21.270 9.317,21.129 9.281,20.988 9.225 C 20.455 9.011,19.460 8.934,18.860 9.060 C 18.112 9.217,17.477 9.715,17.146 10.407 C 16.900 10.921,16.836 11.200,16.811 11.860 C 16.778 12.770,16.939 13.393,17.364 13.997 C 17.606 14.342,17.879 14.566,18.300 14.762 C 18.758 14.976,19.092 15.040,19.754 15.040 C 20.306 15.040,20.737 14.983,21.060 14.869 C 21.148 14.838,21.242 14.820,21.270 14.829 C 21.308 14.842,21.320 15.061,21.320 15.737 C 21.320 16.746,21.335 16.700,20.982 16.818 C 20.451 16.996,19.177 17.058,18.453 16.940 C 16.849 16.680,15.653 15.692,15.109 14.179 C 14.780 13.264,14.693 11.855,14.901 10.833 C 15.204 9.352,16.081 8.186,17.335 7.598 C 17.853 7.355,18.309 7.239,19.120 7.144 C 19.372 7.114,20.400 7.162,20.724 7.218 M14.140 9.780 L 14.140 10.860 13.660 10.885 C 12.980 10.920,12.437 11.104,11.990 11.451 L 11.840 11.567 11.840 14.155 C 11.840 16.115,11.828 16.756,11.792 16.792 C 11.722 16.862,9.946 16.860,9.888 16.790 C 9.860 16.756,9.839 15.512,9.825 13.000 C 9.813 10.943,9.792 9.165,9.778 9.049 L 9.752 8.838 10.646 8.849 L 11.540 8.860 11.618 9.020 C 11.671 9.129,11.702 9.292,11.713 9.531 L 11.730 9.883 12.006 9.602 C 12.596 9.002,13.295 8.670,13.920 8.692 L 14.140 8.700 14.140 9.780 " stroke="none" fill="black" fill-rule="evenodd"></path></svg>