<svg role="img" viewBox="0 0 24 24" xmlns="http://www.w3.org/2000/svg"><path d="M10.460 0.024 C 8.234 0.134,6.731 0.308,5.680 0.577 C 3.866 1.042,2.319 2.196,1.370 3.793 C 0.649 5.007,0.315 6.471,0.112 9.300 C 0.044 10.252,0.044 13.784,0.113 14.700 C 0.329 17.600,0.648 18.998,1.365 20.193 C 2.435 21.976,4.083 23.119,6.180 23.533 C 7.599 23.813,9.083 23.944,11.300 23.986 C 14.402 24.044,17.313 23.770,18.811 23.278 C 20.565 22.702,22.034 21.427,22.863 19.762 C 23.428 18.629,23.680 17.379,23.888 14.680 C 23.967 13.660,23.954 10.123,23.868 9.060 C 23.745 7.550,23.617 6.610,23.420 5.780 C 22.976 3.903,21.837 2.342,20.180 1.340 C 18.991 0.621,17.501 0.278,14.700 0.079 C 14.108 0.038,11.005 -0.003,10.460 0.024 M12.881 5.321 C 13.637 5.413,13.870 5.540,14.191 6.032 C 15.311 7.748,17.641 14.513,18.022 17.155 C 18.102 17.709,18.067 17.893,17.837 18.123 C 17.627 18.333,17.078 18.481,16.006 18.617 C 15.100 18.732,15.027 18.712,14.792 18.270 C 14.536 17.792,14.082 17.458,13.524 17.341 C 12.804 17.189,11.196 17.189,10.476 17.341 C 9.919 17.458,9.435 17.814,9.201 18.279 C 9.136 18.407,9.033 18.552,8.971 18.601 C 8.869 18.682,8.831 18.688,8.500 18.666 C 7.592 18.608,6.497 18.382,6.249 18.202 C 5.830 17.898,5.842 17.454,6.323 15.517 C 7.148 12.198,8.934 7.353,9.842 5.970 C 10.105 5.570,10.411 5.408,11.060 5.326 C 11.459 5.275,12.482 5.273,12.881 5.321 " stroke="none" fill="black" fill-rule="evenodd"></path></svg>