<svg role="img" viewBox="0 0 24 24" xmlns="http://www.w3.org/2000/svg"><path d="M13.548 4.230 C 13.429 4.401,11.472 7.231,9.200 10.520 C 6.928 13.809,4.992 16.600,4.899 16.721 C 3.614 18.394,1.899 19.484,0.210 19.701 L -0.000 19.728 -0.000 19.924 L 0.000 20.120 4.670 20.119 C 7.239 20.119,9.594 20.101,9.904 20.080 C 11.042 20.003,12.006 19.647,13.010 18.934 C 13.417 18.644,14.339 17.736,14.688 17.280 C 14.952 16.935,23.960 3.974,23.960 3.939 C 23.960 3.929,21.666 3.920,18.863 3.920 L 13.766 3.920 13.548 4.230 " stroke="none" fill="black" fill-rule="evenodd"></path></svg>