<svg role="img" xmlns="http://www.w3.org/2000/svg" viewBox="0 0 24 24"><path d="M2.559 0.060 C 1.280 0.315,0.311 1.296,0.057 2.594 C -0.028 3.032,-0.029 20.963,0.057 21.411 C 0.264 22.495,1.019 23.404,2.025 23.784 C 2.628 24.011,2.120 24.000,12.000 24.000 C 21.880 24.000,21.372 24.011,21.975 23.784 C 22.981 23.404,23.736 22.495,23.943 21.411 C 24.028 20.965,24.028 3.035,23.943 2.589 C 23.695 1.291,22.708 0.306,21.406 0.056 C 20.987 -0.024,2.963 -0.021,2.559 0.060 M13.880 3.584 C 14.083 3.678,14.340 3.942,14.424 4.143 C 14.484 4.287,14.507 5.361,14.450 5.359 C 14.433 5.359,14.096 5.332,13.700 5.300 C 12.314 5.189,11.303 5.233,10.467 5.443 C 10.277 5.490,10.095 5.519,10.061 5.506 C 10.010 5.486,10.000 5.384,10.000 4.891 C 10.001 4.353,10.009 4.282,10.095 4.100 C 10.147 3.990,10.242 3.854,10.305 3.798 C 10.657 3.485,10.684 3.481,12.320 3.492 C 13.626 3.500,13.710 3.504,13.880 3.584 M7.054 5.784 C 7.270 5.858,7.880 6.401,7.880 6.521 C 7.880 6.562,7.766 6.682,7.610 6.803 C 7.219 7.108,6.635 7.687,6.313 8.090 C 6.159 8.283,6.004 8.440,5.968 8.440 C 5.877 8.440,5.353 7.894,5.258 7.700 C 5.146 7.472,5.151 6.999,5.268 6.780 C 5.358 6.609,6.034 5.926,6.198 5.840 C 6.451 5.707,6.767 5.687,7.054 5.784 M13.700 6.213 C 15.798 6.688,17.495 8.031,18.400 9.930 C 19.974 13.233,18.624 17.209,15.362 18.876 C 13.050 20.057,10.243 19.811,8.180 18.247 C 5.575 16.271,4.748 12.738,6.208 9.824 C 7.229 7.785,9.105 6.457,11.460 6.105 C 11.526 6.095,11.958 6.093,12.420 6.100 C 13.140 6.112,13.323 6.128,13.700 6.213 M11.464 8.144 C 10.509 8.317,9.686 8.731,8.995 9.388 C 7.552 10.760,7.105 12.837,7.860 14.663 C 8.542 16.311,10.087 17.442,11.868 17.597 C 13.798 17.765,15.661 16.735,16.529 15.020 C 16.885 14.318,17.043 13.648,17.044 12.836 C 17.045 11.602,16.595 10.464,15.754 9.579 C 15.027 8.813,14.110 8.321,13.082 8.145 C 12.626 8.066,11.897 8.066,11.464 8.144 M13.336 9.060 C 14.026 9.260,14.571 9.579,15.063 10.072 C 15.350 10.359,15.720 10.865,15.720 10.971 C 15.720 11.004,15.697 11.048,15.670 11.070 C 15.643 11.091,15.098 11.379,14.460 11.709 C 12.411 12.769,12.404 12.773,12.339 12.719 C 12.289 12.677,12.280 12.400,12.280 10.858 C 12.280 9.862,12.292 9.016,12.306 8.978 C 12.329 8.918,12.373 8.912,12.661 8.934 C 12.842 8.948,13.146 9.005,13.336 9.060 " stroke="none" fill="black" fill-rule="evenodd"></path></svg>