<svg role="img" viewBox="0 0 24 24" xmlns="http://www.w3.org/2000/svg"><path d="M14.812 0.239 C 14.037 0.367,13.281 0.493,13.132 0.518 L 12.860 0.564 12.859 1.012 C 12.856 1.666,12.688 2.128,12.262 2.652 C 11.942 3.045,11.369 3.395,10.840 3.523 C 10.534 3.597,9.917 3.587,9.600 3.502 C 8.888 3.313,8.236 2.790,7.926 2.159 C 7.834 1.972,7.737 1.726,7.710 1.610 C 7.681 1.486,7.639 1.400,7.608 1.400 C 7.499 1.400,4.254 1.920,4.112 1.960 C 3.791 2.051,3.560 2.367,3.560 2.716 C 3.560 2.825,4.289 7.519,5.180 13.147 C 6.359 20.594,6.822 23.426,6.879 23.549 C 6.976 23.758,7.230 23.948,7.455 23.981 C 7.572 23.999,8.138 23.926,9.302 23.743 C 10.225 23.598,11.016 23.471,11.060 23.461 C 11.134 23.445,11.139 23.417,11.127 23.077 C 11.085 21.900,11.812 20.867,12.943 20.497 C 13.249 20.397,13.362 20.380,13.740 20.380 C 14.493 20.380,15.064 20.618,15.604 21.157 C 15.936 21.488,16.185 21.925,16.299 22.376 C 16.332 22.506,16.364 22.616,16.369 22.621 C 16.375 22.626,17.163 22.507,18.120 22.357 C 20.029 22.057,20.126 22.030,20.313 21.748 C 20.384 21.640,20.420 21.524,20.431 21.366 C 20.442 21.204,19.988 18.241,18.824 10.880 C 17.051 -0.331,17.181 0.374,16.856 0.148 C 16.595 -0.035,16.410 -0.026,14.812 0.239 M13.620 6.616 C 13.896 6.747,14.149 6.936,14.499 7.274 C 14.836 7.598,14.915 7.766,14.848 8.009 C 14.826 8.089,14.527 8.565,14.183 9.067 C 13.425 10.174,13.492 10.087,13.304 10.215 C 13.126 10.335,12.984 10.345,12.700 10.257 C 12.432 10.175,12.190 10.178,12.041 10.266 C 11.788 10.415,11.576 10.847,11.399 11.572 C 11.108 12.762,11.145 13.476,11.509 13.688 C 11.573 13.726,11.748 13.776,11.898 13.800 C 12.509 13.897,12.546 13.959,12.802 15.340 C 12.911 15.930,13.000 16.495,13.000 16.596 C 13.000 16.799,12.900 16.999,12.752 17.096 C 12.601 17.195,11.835 17.435,11.539 17.477 C 11.040 17.548,10.804 17.449,10.384 16.996 C 9.616 16.166,9.183 14.483,9.313 12.837 C 9.529 10.125,10.685 7.792,12.289 6.833 C 12.816 6.518,13.261 6.445,13.620 6.616 " stroke="none" fill="black" fill-rule="evenodd"></path></svg>