<svg role="img" viewBox="0 0 24 24" xmlns="http://www.w3.org/2000/svg"><path d="M22.554 8.941 C 22.422 9.012,22.294 9.271,22.235 9.583 C 22.192 9.812,22.206 10.545,22.264 11.102 L 22.290 11.343 22.007 11.346 C 21.785 11.348,21.677 11.372,21.506 11.455 C 21.235 11.588,21.019 11.821,20.958 12.047 C 20.894 12.284,20.784 12.426,20.621 12.480 C 20.350 12.569,20.240 12.418,20.240 11.955 C 20.240 11.474,20.091 11.335,19.592 11.347 C 19.403 11.352,19.311 11.337,19.277 11.297 C 19.214 11.220,18.941 11.224,18.863 11.303 C 18.737 11.429,18.809 11.639,19.000 11.700 C 19.147 11.747,19.075 12.155,18.881 12.372 C 18.731 12.540,18.488 12.546,18.326 12.384 C 18.227 12.285,18.219 12.251,18.206 11.849 C 18.197 11.583,18.175 11.409,18.146 11.391 C 18.080 11.349,17.889 11.353,17.873 11.397 C 17.866 11.418,17.766 11.409,17.640 11.376 C 17.407 11.314,17.263 11.324,16.940 11.428 C 16.777 11.481,16.672 11.562,16.373 11.871 C 16.170 12.080,15.987 12.237,15.963 12.222 C 15.937 12.206,15.920 12.045,15.920 11.818 L 15.920 11.440 15.740 11.440 L 15.560 11.440 15.560 11.613 C 15.560 11.986,15.327 12.433,15.100 12.497 C 14.870 12.561,14.588 12.164,14.529 11.694 L 14.500 11.460 14.320 11.460 C 14.143 11.460,14.140 11.462,14.130 11.600 C 14.109 11.882,13.991 12.241,13.879 12.361 C 13.740 12.510,13.607 12.513,13.470 12.370 C 13.340 12.234,13.282 12.088,13.239 11.787 C 13.220 11.659,13.177 11.511,13.143 11.459 C 13.071 11.349,12.800 11.261,12.650 11.299 C 12.584 11.316,12.525 11.301,12.473 11.254 C 12.380 11.170,12.154 11.162,12.060 11.240 C 11.894 11.377,11.908 11.573,12.093 11.723 C 12.174 11.788,12.174 11.788,12.068 11.970 C 11.755 12.505,10.881 12.705,10.618 12.302 C 10.525 12.161,10.565 12.137,10.759 12.215 C 11.097 12.350,11.524 12.247,11.679 11.992 C 11.829 11.746,11.747 11.496,11.471 11.356 C 11.110 11.171,10.614 11.353,10.370 11.760 C 9.888 12.564,10.860 13.178,11.811 12.671 C 11.940 12.602,12.116 12.466,12.202 12.368 C 12.362 12.186,12.560 11.817,12.560 11.700 C 12.560 11.650,12.593 11.638,12.710 11.648 L 12.860 11.660 12.921 11.962 C 13.032 12.504,13.291 12.804,13.651 12.810 C 13.868 12.813,14.039 12.723,14.198 12.522 L 14.325 12.362 14.536 12.578 C 14.836 12.885,15.129 12.924,15.427 12.698 C 15.625 12.546,15.592 12.662,15.358 12.935 C 14.612 13.807,14.419 14.579,14.842 15.002 C 15.046 15.206,15.228 15.241,15.468 15.125 C 15.797 14.965,15.920 14.497,15.920 13.406 L 15.920 12.817 16.113 12.627 L 16.305 12.438 16.433 12.578 C 16.634 12.800,16.779 12.858,17.120 12.858 C 17.420 12.858,17.579 12.807,17.884 12.613 C 17.985 12.548,17.993 12.550,18.153 12.679 C 18.343 12.832,18.618 12.880,18.854 12.802 C 19.147 12.705,19.399 12.296,19.401 11.912 C 19.402 11.708,19.442 11.674,19.664 11.688 L 19.860 11.700 19.884 12.025 C 19.899 12.217,19.939 12.412,19.984 12.504 C 20.148 12.839,20.516 12.934,20.882 12.735 L 21.074 12.630 21.187 12.709 C 21.551 12.963,22.052 12.928,22.486 12.619 L 22.671 12.486 22.786 12.607 C 22.943 12.772,23.087 12.840,23.280 12.840 C 23.592 12.840,23.905 12.588,23.981 12.273 C 24.005 12.173,23.996 12.163,23.856 12.137 C 23.732 12.113,23.696 12.122,23.662 12.181 C 23.639 12.220,23.573 12.307,23.516 12.373 C 23.326 12.594,23.047 12.508,22.955 12.200 C 22.918 12.076,22.924 12.029,22.991 11.897 C 23.174 11.535,23.297 10.623,23.272 9.808 C 23.255 9.224,23.212 9.069,23.031 8.942 C 22.921 8.865,22.695 8.864,22.554 8.941 M8.171 9.124 C 8.029 9.165,7.877 9.345,7.803 9.560 C 7.635 10.045,7.744 11.344,8.006 11.983 C 8.084 12.173,8.085 12.195,8.026 12.309 C 7.955 12.446,7.782 12.525,7.655 12.478 C 7.527 12.430,7.414 12.262,7.319 11.977 C 7.101 11.321,6.588 11.156,6.215 11.621 L 6.099 11.765 5.894 11.563 C 5.719 11.389,5.667 11.360,5.535 11.360 C 5.450 11.360,5.326 11.393,5.260 11.433 C 5.164 11.491,5.119 11.497,5.029 11.464 C 4.844 11.394,4.784 11.465,4.751 11.797 C 4.722 12.081,4.600 12.430,4.511 12.486 C 4.344 12.589,4.080 12.048,4.080 11.602 C 4.080 11.514,4.057 11.483,3.979 11.463 C 3.812 11.421,3.734 11.494,3.708 11.716 C 3.634 12.341,3.255 12.674,2.958 12.376 C 2.825 12.243,2.680 11.871,2.680 11.662 C 2.680 11.508,2.583 11.425,2.428 11.447 C 2.351 11.458,2.334 11.499,2.292 11.777 C 2.265 11.952,2.222 12.146,2.197 12.208 C 2.134 12.360,1.937 12.520,1.813 12.520 C 1.679 12.520,1.471 12.419,1.358 12.298 L 1.266 12.200 1.411 11.910 C 1.639 11.454,1.693 11.188,1.697 10.500 C 1.700 9.831,1.668 9.685,1.474 9.487 C 1.366 9.376,1.324 9.360,1.138 9.360 C 0.741 9.360,0.569 9.632,0.532 10.320 C 0.508 10.767,0.605 11.546,0.722 11.855 C 0.765 11.968,0.800 12.089,0.800 12.124 C 0.800 12.200,0.411 12.579,0.170 12.738 C -0.020 12.864,-0.034 12.909,0.077 13.046 L 0.154 13.140 0.300 13.062 C 0.381 13.019,0.581 12.869,0.745 12.729 L 1.043 12.475 1.182 12.597 C 1.588 12.953,1.956 12.956,2.329 12.607 L 2.529 12.420 2.635 12.545 C 2.793 12.733,2.995 12.840,3.193 12.840 C 3.404 12.840,3.491 12.798,3.713 12.585 L 3.885 12.420 4.008 12.572 C 4.075 12.655,4.181 12.750,4.243 12.782 C 4.369 12.847,4.623 12.860,4.658 12.803 C 4.671 12.783,4.780 12.776,4.901 12.789 L 5.120 12.811 5.120 12.634 C 5.120 12.419,5.217 12.031,5.310 11.873 C 5.397 11.726,5.537 11.687,5.641 11.781 C 5.747 11.877,5.869 12.219,5.903 12.517 L 5.931 12.764 6.095 12.752 L 6.260 12.740 6.290 12.502 C 6.349 12.024,6.499 11.720,6.677 11.720 C 6.828 11.720,6.903 11.816,7.018 12.154 C 7.140 12.511,7.243 12.659,7.442 12.761 C 7.657 12.871,7.894 12.863,8.106 12.739 L 8.278 12.638 8.439 12.744 C 8.897 13.047,9.712 12.812,9.956 12.307 C 10.062 12.089,10.062 11.897,9.957 11.724 C 9.839 11.531,9.730 11.450,9.494 11.379 C 9.321 11.327,9.243 11.324,9.021 11.363 C 8.875 11.388,8.746 11.399,8.734 11.387 C 8.722 11.376,8.735 11.198,8.762 10.993 C 8.789 10.788,8.812 10.386,8.813 10.100 C 8.814 9.653,8.803 9.553,8.729 9.389 C 8.665 9.245,8.609 9.183,8.503 9.139 C 8.346 9.073,8.349 9.073,8.171 9.124 M22.879 9.278 C 22.985 9.475,22.958 10.672,22.835 11.245 C 22.793 11.442,22.705 11.506,22.665 11.370 C 22.610 11.187,22.554 10.580,22.553 10.163 C 22.551 9.683,22.603 9.390,22.710 9.270 C 22.790 9.180,22.827 9.182,22.879 9.278 M8.409 9.530 C 8.475 9.647,8.464 10.747,8.391 11.140 C 8.348 11.374,8.327 11.420,8.262 11.420 C 8.152 11.420,8.122 11.260,8.093 10.517 C 8.073 9.993,8.080 9.861,8.137 9.689 C 8.224 9.428,8.319 9.373,8.409 9.530 M1.269 9.788 C 1.374 9.948,1.372 10.996,1.266 11.340 C 1.182 11.615,1.137 11.684,1.060 11.654 C 0.979 11.623,0.916 11.282,0.891 10.737 C 0.865 10.168,0.894 9.924,1.005 9.783 C 1.108 9.651,1.180 9.653,1.269 9.788 M11.337 11.664 C 11.425 11.698,11.416 11.829,11.323 11.879 C 11.213 11.937,10.909 11.930,10.823 11.867 C 10.754 11.817,10.756 11.809,10.860 11.727 C 10.969 11.641,11.199 11.611,11.337 11.664 M9.553 11.788 C 9.871 12.025,9.535 12.478,9.016 12.512 C 8.722 12.532,8.535 12.453,8.494 12.292 C 8.422 12.005,8.863 11.657,9.253 11.692 C 9.359 11.701,9.494 11.745,9.553 11.788 M17.677 11.739 C 17.800 11.802,17.840 11.872,17.840 12.027 C 17.840 12.413,17.084 12.686,16.763 12.416 C 16.626 12.301,16.611 12.212,16.699 12.041 C 16.850 11.750,17.381 11.585,17.677 11.739 M22.251 11.717 C 22.600 11.849,22.529 12.231,22.117 12.442 C 21.831 12.588,21.363 12.518,21.300 12.320 C 21.275 12.241,21.372 12.036,21.517 11.865 C 21.652 11.703,22.021 11.629,22.251 11.717 M15.568 13.804 C 15.554 14.298,15.486 14.643,15.377 14.764 C 15.188 14.972,14.944 14.739,14.970 14.378 C 14.987 14.153,15.159 13.756,15.357 13.487 C 15.550 13.226,15.582 13.275,15.568 13.804 " stroke="none" fill="black" fill-rule="evenodd"></path></svg>