<svg role="img" viewBox="0 0 24 24" xmlns="http://www.w3.org/2000/svg"><path d="M2.075 5.598 C 1.669 5.672,1.325 5.901,1.137 6.221 C 0.990 6.473,0.921 6.867,0.921 7.470 C 0.920 7.761,0.915 8.001,0.910 8.002 C 0.905 8.004,0.725 8.028,0.510 8.057 C 0.296 8.086,0.094 8.132,0.060 8.160 C 0.019 8.194,-0.000 8.284,-0.000 8.443 C -0.000 8.740,0.034 8.760,0.537 8.760 L 0.920 8.760 0.920 10.812 C 0.920 12.355,0.932 12.876,0.968 12.912 C 1.033 12.977,1.767 12.977,1.832 12.912 C 1.868 12.876,1.880 12.355,1.880 10.812 L 1.880 8.760 2.592 8.760 C 3.092 8.760,3.318 8.746,3.352 8.712 C 3.381 8.683,3.400 8.542,3.400 8.356 C 3.400 8.113,3.387 8.044,3.337 8.024 C 3.302 8.011,2.958 8.000,2.573 8.000 L 1.873 8.000 1.887 7.410 C 1.904 6.699,1.949 6.571,2.229 6.436 C 2.395 6.355,2.449 6.350,2.898 6.373 C 3.247 6.391,3.400 6.384,3.433 6.351 C 3.459 6.325,3.480 6.202,3.480 6.076 C 3.480 5.794,3.412 5.706,3.140 5.641 C 2.877 5.579,2.307 5.555,2.075 5.598 M4.453 5.995 C 4.250 6.090,4.146 6.268,4.145 6.523 C 4.144 6.750,4.272 6.970,4.447 7.043 C 4.623 7.116,4.915 7.107,5.073 7.024 C 5.211 6.952,5.357 6.700,5.359 6.531 C 5.361 6.377,5.236 6.122,5.117 6.038 C 4.949 5.918,4.658 5.899,4.453 5.995 M16.522 6.690 C 16.502 6.740,16.458 7.047,16.426 7.374 C 16.393 7.700,16.360 7.974,16.352 7.982 C 16.344 7.989,16.169 8.018,15.963 8.044 C 15.515 8.101,15.440 8.155,15.440 8.417 C 15.440 8.722,15.438 8.720,15.904 8.720 L 16.320 8.720 16.321 10.190 C 16.321 10.998,16.340 11.784,16.361 11.936 C 16.436 12.450,16.723 12.807,17.169 12.939 C 17.429 13.016,18.097 13.018,18.419 12.943 C 18.746 12.866,18.807 12.784,18.792 12.443 L 18.780 12.180 18.600 12.188 C 17.825 12.222,17.698 12.217,17.571 12.148 C 17.321 12.014,17.320 12.007,17.320 10.283 L 17.320 8.722 18.030 8.711 L 18.740 8.700 18.752 8.381 C 18.762 8.115,18.752 8.053,18.694 8.011 C 18.645 7.975,18.437 7.960,17.972 7.960 L 17.320 7.960 17.320 7.357 C 17.320 7.018,17.302 6.721,17.279 6.677 C 17.243 6.610,17.192 6.600,16.898 6.600 C 16.583 6.600,16.556 6.607,16.522 6.690 M11.492 7.884 C 10.776 8.004,10.142 8.530,9.884 9.219 C 9.585 10.017,9.632 11.257,9.988 11.986 C 10.390 12.811,11.341 13.214,12.568 13.079 C 12.990 13.033,13.495 12.891,13.716 12.757 C 13.834 12.685,13.840 12.669,13.840 12.425 C 13.840 12.070,13.801 12.044,13.429 12.152 C 12.950 12.290,12.619 12.331,12.146 12.311 C 11.647 12.289,11.359 12.203,11.119 12.005 C 10.859 11.791,10.641 11.275,10.640 10.870 L 10.640 10.680 12.241 10.680 L 13.842 10.680 13.887 10.570 C 13.953 10.408,13.951 9.464,13.884 9.200 C 13.755 8.685,13.442 8.264,13.039 8.059 C 12.651 7.863,12.037 7.793,11.492 7.884 M8.380 8.045 C 8.136 8.129,7.738 8.387,7.563 8.576 C 7.510 8.633,7.454 8.680,7.439 8.680 C 7.423 8.680,7.399 8.560,7.384 8.414 C 7.341 7.997,7.339 7.995,6.908 8.009 L 6.540 8.020 6.530 10.436 C 6.522 12.186,6.532 12.866,6.565 12.906 C 6.618 12.970,7.303 12.982,7.400 12.921 C 7.451 12.888,7.463 12.623,7.480 11.073 L 7.500 9.264 7.660 9.154 C 7.978 8.937,8.219 8.870,8.760 8.851 C 9.156 8.836,9.270 8.819,9.310 8.769 C 9.386 8.671,9.376 8.102,9.297 8.023 C 9.202 7.928,8.684 7.941,8.380 8.045 M19.290 8.005 C 19.262 8.033,19.240 8.082,19.240 8.114 C 19.240 8.145,19.656 9.213,20.164 10.487 C 20.917 12.374,21.107 12.816,21.190 12.870 C 21.272 12.924,21.371 12.935,21.676 12.927 C 21.908 12.920,22.078 12.897,22.106 12.868 C 22.153 12.818,23.936 8.338,23.980 8.157 C 24.020 7.993,23.944 7.966,23.506 7.990 C 23.129 8.010,23.109 8.016,23.046 8.121 C 23.010 8.181,22.683 9.078,22.320 10.115 C 21.957 11.151,21.649 12.000,21.637 12.000 C 21.624 12.000,21.309 11.133,20.937 10.072 C 20.564 9.012,20.230 8.107,20.194 8.062 C 20.136 7.991,20.073 7.978,19.734 7.967 C 19.453 7.958,19.326 7.969,19.290 8.005 M4.281 8.077 C 4.254 8.128,4.240 8.958,4.240 10.495 C 4.240 12.568,4.247 12.841,4.303 12.897 C 4.351 12.945,4.452 12.960,4.733 12.959 C 4.935 12.959,5.127 12.942,5.160 12.921 C 5.212 12.888,5.221 12.572,5.231 10.547 C 5.238 9.061,5.227 8.172,5.202 8.105 C 5.162 8.001,5.159 8.000,4.742 8.000 C 4.369 8.000,4.318 8.008,4.281 8.077 M12.480 8.667 C 12.829 8.810,13.030 9.163,13.068 9.702 L 13.092 10.040 11.866 10.040 L 10.640 10.040 10.640 9.910 C 10.642 9.439,10.944 8.912,11.323 8.718 C 11.630 8.562,12.165 8.538,12.480 8.667 M19.180 14.226 C 18.611 14.316,17.840 14.625,17.682 14.827 C 17.608 14.920,17.605 14.942,17.655 14.992 C 17.704 15.041,17.772 15.043,18.106 15.003 C 18.742 14.927,19.514 14.906,19.780 14.955 C 20.236 15.041,20.323 15.197,20.220 15.744 C 20.165 16.038,19.927 16.778,19.699 17.364 C 19.621 17.565,19.638 17.680,19.747 17.680 C 19.852 17.680,20.364 17.136,20.536 16.842 C 20.890 16.236,21.128 15.453,21.136 14.871 C 21.141 14.459,21.106 14.406,20.760 14.298 C 20.542 14.231,19.464 14.182,19.180 14.226 M2.370 14.586 C 2.343 14.598,2.320 14.658,2.320 14.721 C 2.320 14.818,2.386 14.891,2.743 15.188 C 5.732 17.677,9.575 18.809,13.380 18.320 C 15.027 18.109,16.554 17.650,17.920 16.958 C 18.460 16.684,19.237 16.203,19.396 16.044 C 19.575 15.865,19.454 15.600,19.192 15.600 C 19.131 15.600,18.861 15.688,18.591 15.795 C 17.131 16.376,15.404 16.794,13.677 16.986 C 12.920 17.069,11.064 17.081,10.300 17.007 C 7.628 16.748,5.074 15.980,2.955 14.799 C 2.539 14.567,2.475 14.544,2.370 14.586 " stroke="none" fill="black" fill-rule="evenodd"></path></svg>