<svg role="img" xmlns="http://www.w3.org/2000/svg" viewBox="0 0 24 24"><path d="M11.100 0.041 C 8.929 0.286,6.990 1.270,5.339 2.965 C 4.770 3.550,4.440 3.956,4.012 4.600 C 1.128 8.935,1.127 15.066,4.010 19.400 C 4.621 20.318,5.605 21.392,6.400 22.007 C 7.718 23.027,9.142 23.652,10.729 23.908 C 11.317 24.003,12.666 24.002,13.276 23.907 C 15.210 23.604,16.927 22.727,18.416 21.281 C 21.289 18.489,22.633 14.229,21.998 9.922 C 21.579 7.078,20.347 4.602,18.414 2.720 C 16.954 1.297,15.329 0.451,13.420 0.118 C 12.872 0.022,11.632 -0.019,11.100 0.041 M14.711 3.706 C 16.156 4.576,17.363 5.917,18.161 7.540 C 18.546 8.323,18.721 8.793,18.919 9.577 C 19.167 10.556,19.220 11.001,19.218 12.080 C 19.216 13.134,19.155 13.613,18.901 14.582 C 18.390 16.534,17.324 18.286,15.910 19.501 C 15.381 19.956,14.401 20.621,14.349 20.559 C 14.279 20.476,13.589 19.305,13.585 19.262 C 13.582 19.232,13.796 19.064,14.060 18.888 C 15.193 18.133,16.040 17.171,16.682 15.912 C 17.110 15.073,17.398 14.171,17.537 13.235 C 17.621 12.665,17.621 11.415,17.537 10.845 C 17.270 9.048,16.453 7.380,15.239 6.157 C 14.832 5.747,14.200 5.253,13.783 5.020 L 13.527 4.877 13.934 4.200 C 14.157 3.828,14.354 3.523,14.371 3.522 C 14.388 3.521,14.541 3.604,14.711 3.706 M13.270 5.923 C 14.170 6.470,14.871 7.163,15.430 8.060 C 16.185 9.272,16.617 10.890,16.546 12.241 C 16.439 14.278,15.518 16.213,14.094 17.395 C 13.764 17.669,13.163 18.077,12.996 18.140 C 12.946 18.159,12.843 18.014,12.538 17.495 C 12.321 17.127,12.163 16.819,12.186 16.811 C 12.209 16.804,12.370 16.710,12.544 16.603 C 13.439 16.051,14.146 15.184,14.580 14.108 C 15.297 12.330,15.077 10.313,13.989 8.681 C 13.692 8.234,13.018 7.590,12.548 7.303 C 12.335 7.173,12.160 7.062,12.160 7.058 C 12.160 7.011,12.934 5.760,12.963 5.760 C 12.984 5.760,13.122 5.834,13.270 5.923 M11.893 8.367 C 13.046 9.036,13.726 10.074,13.920 11.459 C 14.120 12.882,13.405 14.537,12.259 15.305 C 11.987 15.487,11.557 15.732,11.542 15.713 C 11.536 15.706,11.359 15.408,11.149 15.052 L 10.767 14.404 11.073 14.236 C 11.428 14.041,11.793 13.710,11.988 13.408 C 12.113 13.215,12.320 12.735,12.320 12.639 C 12.320 12.614,11.409 12.600,9.787 12.600 L 7.254 12.600 7.198 12.704 C 7.099 12.888,6.730 13.190,6.498 13.277 C 5.603 13.612,4.628 12.959,4.623 12.020 C 4.622 11.850,4.650 11.657,4.694 11.530 C 4.785 11.265,5.100 10.913,5.376 10.767 C 5.560 10.671,5.621 10.660,6.000 10.660 C 6.366 10.660,6.443 10.672,6.600 10.756 C 6.863 10.896,7.017 11.022,7.141 11.201 L 7.251 11.360 9.802 11.360 L 12.354 11.360 12.314 11.210 C 12.292 11.127,12.202 10.910,12.114 10.727 C 11.909 10.299,11.548 9.924,11.110 9.684 C 10.940 9.591,10.800 9.499,10.800 9.479 C 10.800 9.416,11.532 8.200,11.570 8.200 C 11.590 8.200,11.735 8.275,11.893 8.367 " stroke="none" fill="black" fill-rule="evenodd"></path></svg>