<svg role="img" xmlns="http://www.w3.org/2000/svg" viewBox="0 0 24 24"><path d="M4.435 5.067 C 4.289 5.158,4.200 5.324,4.200 5.509 C 4.200 5.641,4.357 5.929,5.239 7.418 L 6.278 9.171 5.929 9.377 C 4.448 10.253,3.211 11.429,2.264 12.860 C 1.028 14.728,0.312 16.626,0.020 18.810 L -0.005 19.000 11.998 19.000 L 24.001 19.000 23.976 18.830 C 23.533 15.795,22.045 12.810,20.011 10.874 C 19.413 10.305,18.466 9.598,17.953 9.337 C 17.850 9.284,17.755 9.224,17.742 9.203 C 17.728 9.181,18.178 8.385,18.740 7.432 C 19.303 6.480,19.774 5.657,19.788 5.603 C 19.828 5.445,19.717 5.194,19.560 5.088 C 19.370 4.959,19.117 4.983,18.959 5.146 C 18.898 5.209,18.403 6.016,17.858 6.940 C 17.314 7.864,16.846 8.645,16.817 8.676 C 16.773 8.724,16.707 8.710,16.373 8.586 C 15.155 8.135,13.890 7.897,12.460 7.852 C 10.805 7.800,9.327 8.015,7.811 8.528 C 7.475 8.642,7.194 8.727,7.186 8.717 C 7.178 8.708,6.697 7.901,6.117 6.924 C 5.329 5.596,5.033 5.130,4.942 5.074 C 4.792 4.983,4.575 4.980,4.435 5.067 M6.947 13.633 C 7.133 13.728,7.346 13.956,7.425 14.146 C 7.504 14.335,7.493 14.746,7.405 14.942 C 7.257 15.267,6.861 15.520,6.500 15.520 C 6.139 15.520,5.743 15.267,5.595 14.942 C 5.507 14.746,5.496 14.335,5.575 14.146 C 5.685 13.882,5.944 13.652,6.240 13.555 C 6.399 13.503,6.771 13.544,6.947 13.633 M17.947 13.633 C 18.133 13.728,18.346 13.956,18.425 14.146 C 18.504 14.335,18.493 14.746,18.405 14.942 C 18.257 15.267,17.861 15.520,17.500 15.520 C 17.139 15.520,16.743 15.267,16.595 14.942 C 16.507 14.746,16.496 14.335,16.575 14.146 C 16.685 13.882,16.944 13.652,17.240 13.555 C 17.399 13.503,17.771 13.544,17.947 13.633 " stroke="none" fill="black" fill-rule="evenodd"></path></svg>