<svg role="img" xmlns="http://www.w3.org/2000/svg" viewBox="0 0 24 24"><path d="M2.379 8.410 C 2.346 8.482,1.800 9.809,1.165 11.360 L 0.012 14.180 0.812 14.191 C 1.252 14.197,1.619 14.194,1.628 14.185 C 1.646 14.167,3.986 8.466,4.023 8.350 C 4.044 8.285,3.989 8.280,3.242 8.280 L 2.439 8.280 2.379 8.410 M4.030 9.441 C 3.816 9.966,3.641 10.428,3.642 10.468 C 3.644 10.507,3.982 11.359,4.393 12.360 L 5.141 14.180 6.014 14.191 C 6.493 14.197,6.877 14.188,6.867 14.171 C 6.857 14.154,6.314 12.880,5.660 11.340 C 5.006 9.800,4.460 8.528,4.446 8.513 C 4.432 8.498,4.245 8.916,4.030 9.441 M9.291 10.056 C 9.040 10.138,8.791 10.296,8.627 10.478 L 8.480 10.640 8.480 10.360 L 8.480 10.080 7.860 10.080 L 7.240 10.080 7.240 12.140 L 7.240 14.200 7.880 14.200 L 8.520 14.200 8.521 12.910 C 8.522 11.749,8.529 11.604,8.595 11.460 C 8.848 10.902,9.696 10.795,9.922 11.293 C 9.992 11.446,9.998 11.571,9.999 12.830 L 10.000 14.200 10.642 14.200 L 11.284 14.200 11.271 12.670 C 11.258 11.212,11.254 11.127,11.168 10.874 C 11.055 10.535,10.805 10.247,10.511 10.118 C 10.249 10.002,9.564 9.967,9.291 10.056 M13.165 10.063 C 12.696 10.189,12.370 10.417,12.167 10.760 C 12.072 10.919,12.060 10.981,12.060 11.300 C 12.061 11.715,12.133 11.898,12.384 12.118 C 12.592 12.301,12.810 12.384,13.534 12.558 C 13.893 12.645,14.215 12.745,14.274 12.789 C 14.465 12.931,14.427 13.183,14.196 13.302 C 14.054 13.376,13.516 13.386,13.227 13.321 C 12.978 13.266,12.538 13.098,12.372 12.995 C 12.297 12.949,12.230 12.917,12.224 12.925 C 12.170 12.989,11.916 13.733,11.933 13.776 C 11.966 13.862,12.422 14.070,12.780 14.163 C 13.219 14.277,13.968 14.308,14.340 14.228 C 15.123 14.059,15.519 13.655,15.520 13.025 C 15.520 12.627,15.456 12.453,15.220 12.216 C 14.980 11.975,14.767 11.885,14.028 11.715 C 13.257 11.537,13.109 11.437,13.206 11.160 C 13.332 10.799,14.115 10.799,14.798 11.160 C 14.961 11.247,15.101 11.312,15.108 11.306 C 15.114 11.299,15.192 11.115,15.281 10.897 C 15.433 10.523,15.438 10.498,15.371 10.446 C 15.236 10.341,14.739 10.129,14.477 10.065 C 14.151 9.984,13.461 9.983,13.165 10.063 M21.631 10.062 C 21.145 10.180,20.752 10.471,20.588 10.834 C 20.459 11.121,20.470 11.518,20.615 11.814 C 20.801 12.194,21.097 12.357,21.940 12.545 C 22.606 12.693,22.752 12.749,22.820 12.880 C 22.904 13.042,22.836 13.214,22.652 13.301 C 22.325 13.456,21.488 13.337,20.968 13.061 C 20.823 12.984,20.692 12.934,20.678 12.950 C 20.648 12.984,20.360 13.729,20.360 13.771 C 20.360 13.787,20.488 13.863,20.645 13.942 C 21.373 14.309,22.465 14.384,23.179 14.117 C 23.817 13.878,24.132 13.271,23.946 12.637 C 23.807 12.161,23.500 11.964,22.518 11.721 C 22.156 11.632,21.815 11.526,21.760 11.485 C 21.545 11.328,21.656 11.004,21.952 10.922 C 22.306 10.823,22.755 10.905,23.250 11.158 C 23.604 11.339,23.551 11.371,23.757 10.852 C 23.829 10.672,23.875 10.505,23.861 10.481 C 23.810 10.399,23.269 10.154,22.969 10.077 C 22.610 9.985,21.978 9.978,21.631 10.062 M15.840 10.097 C 15.840 10.108,16.199 10.993,16.638 12.064 L 17.437 14.012 17.098 14.832 C 16.912 15.283,16.760 15.668,16.760 15.687 C 16.760 15.706,17.032 15.717,17.365 15.711 L 17.970 15.700 19.086 12.980 C 19.700 11.484,20.212 10.220,20.225 10.170 L 20.249 10.080 19.648 10.080 L 19.048 10.080 18.911 10.410 C 18.836 10.592,18.613 11.133,18.417 11.614 C 18.180 12.196,18.050 12.469,18.027 12.434 C 18.009 12.404,17.784 11.867,17.527 11.240 L 17.060 10.100 16.450 10.089 C 16.114 10.083,15.840 10.087,15.840 10.097 " stroke="none" fill="black" fill-rule="evenodd"></path></svg>