<svg role="img" viewBox="0 0 24 24" xmlns="http://www.w3.org/2000/svg"><path d="M8.040 0.062 C 6.854 0.317,5.936 1.186,5.615 2.360 C 5.519 2.714,5.517 3.519,5.612 3.880 C 5.711 4.258,6.002 4.820,6.257 5.128 C 6.631 5.581,7.264 5.996,7.770 6.122 L 7.960 6.169 7.960 7.063 L 7.960 7.957 7.790 8.000 C 6.939 8.213,6.306 8.574,5.731 9.174 C 4.742 10.204,4.379 11.656,4.763 13.041 C 4.992 13.866,5.587 14.711,6.300 15.221 C 6.649 15.471,7.148 15.708,7.581 15.829 L 7.960 15.936 7.959 16.878 L 7.959 17.820 7.662 17.914 C 6.696 18.219,5.926 19.037,5.632 20.068 C 5.516 20.474,5.508 21.245,5.615 21.640 C 5.852 22.517,6.468 23.272,7.260 23.659 C 8.073 24.056,8.895 24.103,9.730 23.798 C 11.491 23.157,12.277 21.112,11.412 19.425 C 11.259 19.128,11.153 18.988,10.841 18.675 C 10.500 18.333,10.412 18.268,10.039 18.087 C 9.809 17.976,9.553 17.872,9.470 17.858 L 9.320 17.831 9.320 16.882 L 9.320 15.933 9.667 15.845 C 10.338 15.675,10.937 15.334,11.488 14.807 L 11.803 14.507 11.911 14.586 C 11.971 14.629,12.296 14.860,12.634 15.099 L 13.249 15.532 13.224 15.676 C 13.129 16.229,13.117 16.424,13.157 16.757 C 13.269 17.678,13.750 18.487,14.480 18.986 C 15.703 19.822,17.316 19.709,18.381 18.713 C 18.828 18.295,19.116 17.819,19.286 17.217 C 19.411 16.772,19.412 16.070,19.287 15.628 C 18.976 14.524,18.133 13.684,17.046 13.393 C 16.637 13.283,15.935 13.276,15.540 13.378 C 15.005 13.515,14.534 13.771,14.115 14.153 L 13.900 14.348 13.174 13.833 L 12.449 13.318 12.520 13.089 C 12.713 12.470,12.729 11.594,12.561 10.947 C 12.509 10.748,12.485 10.581,12.505 10.563 C 12.524 10.546,12.849 10.314,13.227 10.048 C 13.839 9.619,13.920 9.572,13.967 9.630 C 14.096 9.787,14.629 10.171,14.897 10.300 C 15.344 10.515,15.743 10.604,16.260 10.605 C 18.681 10.607,20.176 7.994,18.952 5.900 C 18.755 5.564,18.195 4.997,17.868 4.805 C 17.228 4.427,16.445 4.286,15.720 4.417 C 14.518 4.635,13.545 5.534,13.234 6.714 C 13.138 7.077,13.120 7.741,13.196 8.092 C 13.224 8.220,13.238 8.347,13.228 8.374 C 13.218 8.401,12.894 8.643,12.509 8.911 L 11.809 9.400 11.515 9.106 C 10.995 8.586,10.251 8.170,9.569 8.017 L 9.278 7.952 9.289 7.068 L 9.300 6.185 9.500 6.134 C 9.610 6.106,9.871 5.999,10.080 5.895 C 10.404 5.735,10.517 5.650,10.842 5.324 C 11.153 5.011,11.259 4.872,11.412 4.575 C 12.267 2.907,11.501 0.868,9.775 0.216 C 9.214 0.005,8.573 -0.052,8.040 0.062 M8.912 1.638 C 9.388 1.729,9.795 2.038,10.009 2.472 C 10.129 2.716,10.140 2.770,10.140 3.119 C 10.140 3.462,10.128 3.526,10.016 3.760 C 9.859 4.090,9.610 4.339,9.280 4.496 C 9.046 4.608,8.982 4.620,8.640 4.620 C 8.313 4.620,8.229 4.605,8.040 4.516 C 7.416 4.219,7.040 3.532,7.157 2.898 C 7.270 2.282,7.688 1.824,8.281 1.664 C 8.547 1.593,8.649 1.589,8.912 1.638 M16.734 6.065 C 17.113 6.181,17.418 6.448,17.628 6.849 C 17.729 7.041,17.739 7.098,17.740 7.481 C 17.740 7.876,17.732 7.918,17.609 8.169 C 17.456 8.478,17.207 8.721,16.880 8.876 C 16.688 8.967,16.608 8.980,16.260 8.980 C 15.898 8.980,15.837 8.969,15.621 8.862 C 15.315 8.712,15.025 8.422,14.888 8.129 C 14.793 7.928,14.780 7.851,14.780 7.500 C 14.780 7.150,14.793 7.071,14.886 6.873 C 15.219 6.163,15.975 5.833,16.734 6.065 M9.178 9.901 C 9.915 10.093,10.526 10.713,10.698 11.444 C 10.961 12.556,10.288 13.691,9.195 13.982 C 8.907 14.059,8.348 14.056,8.077 13.976 C 7.172 13.710,6.546 12.885,6.547 11.960 C 6.548 11.346,6.737 10.894,7.176 10.457 C 7.467 10.166,7.748 9.999,8.108 9.900 C 8.373 9.827,8.896 9.828,9.178 9.901 M16.887 15.047 C 17.205 15.195,17.456 15.441,17.610 15.754 C 17.732 16.002,17.740 16.046,17.740 16.439 C 17.740 16.842,17.734 16.871,17.604 17.110 C 17.446 17.402,17.214 17.630,16.914 17.787 C 16.719 17.889,16.662 17.899,16.280 17.900 C 15.908 17.900,15.834 17.888,15.633 17.794 C 15.315 17.644,15.064 17.399,14.910 17.086 C 14.790 16.841,14.780 16.792,14.780 16.421 C 14.780 16.073,14.794 15.991,14.884 15.798 C 15.064 15.415,15.309 15.183,15.716 15.012 C 16.035 14.878,16.559 14.894,16.887 15.047 M9.282 19.506 C 9.610 19.660,9.859 19.909,10.016 20.240 C 10.128 20.474,10.140 20.538,10.140 20.880 C 10.140 21.208,10.125 21.291,10.034 21.487 C 9.726 22.143,8.983 22.513,8.315 22.342 C 7.696 22.183,7.273 21.730,7.157 21.102 C 7.057 20.561,7.322 19.951,7.800 19.620 C 8.227 19.324,8.801 19.280,9.282 19.506 " stroke="none" fill="black" fill-rule="evenodd"></path></svg>