<svg role="img" viewBox="0 0 24 24" xmlns="http://www.w3.org/2000/svg"><path d="M11.542 7.742 C 9.638 9.338,8.080 10.650,8.080 10.657 C 8.080 10.665,8.336 10.516,8.650 10.327 C 9.246 9.968,9.444 9.907,9.578 10.041 C 9.610 10.073,9.668 10.271,9.705 10.480 C 9.799 10.998,9.791 11.712,9.687 12.180 C 9.643 12.378,9.621 12.545,9.638 12.551 C 9.777 12.603,9.817 12.681,9.819 12.907 C 9.820 13.091,9.801 13.166,9.730 13.256 C 9.619 13.397,9.614 13.564,9.719 13.659 C 9.838 13.766,9.908 13.709,9.982 13.443 C 10.049 13.206,10.119 13.103,10.325 12.940 L 10.426 12.860 10.392 12.220 C 10.373 11.868,10.331 11.488,10.299 11.376 C 10.266 11.265,10.240 11.110,10.240 11.032 C 10.240 10.842,10.390 10.624,10.532 10.607 C 10.710 10.587,10.749 10.749,10.808 11.760 L 10.860 12.651 11.020 12.660 C 11.108 12.665,11.219 12.682,11.268 12.698 C 11.341 12.723,11.365 12.707,11.413 12.594 C 11.486 12.425,11.659 12.262,12.255 11.805 C 12.543 11.584,12.767 11.440,12.824 11.440 C 12.882 11.440,12.952 11.394,13.008 11.318 C 13.143 11.136,13.477 10.895,13.676 10.836 L 13.853 10.784 14.045 11.002 C 14.151 11.122,14.269 11.278,14.308 11.350 C 14.376 11.477,14.440 11.520,14.440 11.440 C 14.440 11.418,14.503 11.331,14.580 11.245 C 14.826 10.973,15.141 10.948,15.840 11.147 C 16.343 11.291,16.510 11.402,17.189 12.052 C 17.900 12.732,17.877 12.720,18.165 12.531 L 18.309 12.436 17.581 10.728 C 17.180 9.789,16.451 8.080,15.960 6.930 C 15.469 5.780,15.054 4.840,15.036 4.840 C 15.019 4.840,13.446 6.146,11.542 7.742 M9.173 10.214 C 9.127 10.239,8.840 10.492,8.535 10.776 C 8.001 11.272,7.697 11.479,7.499 11.480 C 7.453 11.480,7.320 11.578,7.199 11.701 C 7.020 11.882,6.991 11.930,7.040 11.961 C 7.073 11.982,7.127 11.999,7.160 12.000 C 7.328 12.002,7.552 12.103,7.672 12.230 L 7.806 12.372 8.175 12.246 C 8.624 12.093,8.732 12.089,8.866 12.222 C 8.958 12.315,8.967 12.349,8.954 12.589 C 8.946 12.743,8.957 12.858,8.980 12.865 C 9.002 12.871,9.060 12.813,9.110 12.735 C 9.192 12.606,9.200 12.547,9.200 12.027 C 9.200 11.669,9.230 11.261,9.280 10.920 C 9.324 10.623,9.360 10.341,9.360 10.294 C 9.360 10.188,9.282 10.154,9.173 10.214 M13.631 11.195 C 13.578 11.258,13.511 11.366,13.482 11.435 C 13.431 11.557,13.435 11.564,13.605 11.719 C 13.779 11.876,13.889 11.911,13.995 11.844 C 14.056 11.805,14.041 11.658,13.937 11.290 C 13.867 11.043,13.781 11.016,13.631 11.195 M6.923 11.612 C 6.635 11.858,6.599 11.902,6.676 11.913 C 6.744 11.923,6.822 11.865,6.993 11.677 C 7.197 11.453,7.305 11.316,7.272 11.322 C 7.265 11.324,7.108 11.454,6.923 11.612 M19.613 11.901 C 19.141 12.026,18.906 12.116,18.582 12.297 C 18.311 12.449,18.298 12.464,18.355 12.553 C 18.382 12.596,18.435 12.581,18.608 12.483 C 18.729 12.415,18.956 12.315,19.114 12.259 C 19.476 12.133,20.196 12.034,20.383 12.086 C 20.457 12.106,20.742 12.240,21.017 12.384 C 21.291 12.527,21.734 12.742,22.000 12.862 C 22.266 12.981,22.564 13.134,22.662 13.202 C 22.761 13.269,22.899 13.345,22.970 13.369 C 23.041 13.394,23.194 13.492,23.311 13.587 C 23.554 13.785,23.800 13.920,23.918 13.920 C 24.016 13.920,24.017 13.899,23.927 13.730 C 23.849 13.582,23.536 13.310,23.317 13.198 C 23.236 13.157,23.119 13.081,23.055 13.029 C 22.983 12.969,22.839 12.917,22.667 12.886 C 22.249 12.811,20.991 12.258,20.526 11.944 C 20.266 11.769,20.135 11.763,19.613 11.901 M5.960 11.910 C 5.695 11.959,5.001 12.350,4.610 12.670 C 4.402 12.841,4.223 13.190,4.098 13.670 C 4.048 13.862,4.013 14.025,4.019 14.032 C 4.039 14.053,6.520 11.956,6.520 11.917 C 6.520 11.880,6.147 11.875,5.960 11.910 M18.189 12.791 C 17.975 12.959,17.977 12.941,18.115 13.456 C 18.212 13.819,18.223 14.110,18.148 14.364 C 18.105 14.510,18.105 14.572,18.149 14.727 C 18.210 14.939,18.275 14.990,18.956 15.355 C 19.427 15.607,19.599 15.762,19.758 16.076 C 19.975 16.506,20.069 17.056,19.935 17.108 C 19.777 17.168,19.597 16.894,19.506 16.454 C 19.368 15.793,19.006 15.417,18.369 15.274 C 18.185 15.233,18.144 15.205,18.049 15.055 C 17.974 14.936,17.921 14.890,17.880 14.908 C 17.734 14.969,17.515 14.960,17.200 14.880 C 16.753 14.766,16.076 14.547,15.723 14.401 C 15.567 14.337,15.440 14.295,15.440 14.308 C 15.440 14.333,15.980 15.405,16.126 15.669 C 16.201 15.804,16.264 15.856,16.431 15.924 C 16.659 16.017,16.695 16.062,16.783 16.359 C 16.883 16.696,16.916 16.716,17.467 16.780 C 17.735 16.811,18.001 16.849,18.058 16.863 C 18.258 16.913,18.265 17.120,18.067 17.120 C 17.907 17.120,16.782 16.870,16.700 16.816 C 16.653 16.785,16.537 16.625,16.443 16.460 C 16.348 16.295,16.250 16.160,16.224 16.160 C 16.198 16.160,16.106 16.124,16.018 16.079 C 15.931 16.035,15.824 16.003,15.780 16.009 C 15.715 16.018,15.662 15.943,15.493 15.600 C 15.380 15.369,15.210 15.000,15.116 14.780 C 14.907 14.292,14.898 14.280,14.757 14.280 C 14.626 14.280,14.104 14.540,13.698 14.806 C 13.545 14.906,13.399 15.000,13.373 15.014 C 13.307 15.052,12.951 14.969,12.590 14.831 C 12.233 14.695,12.109 14.562,12.097 14.303 C 12.090 14.161,12.076 14.138,11.989 14.128 C 11.909 14.118,11.865 14.151,11.768 14.294 C 11.652 14.466,11.649 14.480,11.702 14.627 C 11.732 14.711,11.757 14.871,11.758 14.982 C 11.761 15.314,11.871 15.357,12.201 15.152 C 12.449 14.998,12.854 14.947,13.012 15.051 C 13.129 15.128,13.415 15.555,13.676 16.045 C 13.937 16.534,14.319 17.388,14.289 17.418 C 14.277 17.430,14.234 17.440,14.193 17.440 C 14.138 17.440,14.195 17.536,14.425 17.830 C 14.593 18.044,14.759 18.283,14.795 18.359 C 14.893 18.570,14.955 18.633,15.255 18.827 C 15.646 19.081,15.953 19.191,16.037 19.107 C 16.116 19.028,16.082 18.969,15.943 18.943 C 15.695 18.897,15.254 18.644,15.010 18.409 C 14.782 18.190,14.528 17.849,14.385 17.570 L 14.318 17.440 17.359 17.440 C 19.812 17.440,20.400 17.430,20.400 17.389 C 20.400 17.342,18.493 12.848,18.412 12.703 C 18.383 12.652,18.347 12.666,18.189 12.791 M13.659 13.226 C 13.506 13.440,13.343 13.688,13.299 13.778 C 13.239 13.897,13.137 13.992,12.910 14.140 C 12.741 14.250,12.602 14.353,12.601 14.370 C 12.598 14.433,12.732 14.395,12.991 14.260 C 13.185 14.158,13.443 14.078,13.920 13.972 C 14.283 13.891,14.588 13.818,14.599 13.810 C 14.609 13.802,14.560 13.750,14.489 13.695 C 14.330 13.571,14.159 13.286,14.098 13.043 C 14.072 12.942,14.026 12.855,13.995 12.849 C 13.963 12.843,13.819 13.004,13.659 13.226 M15.866 13.153 C 15.766 13.264,15.786 13.445,15.921 13.649 C 16.133 13.969,16.357 14.039,16.443 13.813 C 16.494 13.677,16.430 13.454,16.280 13.246 C 16.145 13.059,15.984 13.023,15.866 13.153 M7.720 13.253 C 7.720 13.434,7.751 13.452,7.889 13.354 L 8.007 13.270 7.893 13.195 C 7.739 13.093,7.720 13.100,7.720 13.253 M8.001 13.485 C 7.857 13.542,7.640 13.716,7.640 13.774 C 7.640 13.883,7.259 14.435,7.007 14.693 C 6.699 15.007,6.227 15.339,6.000 15.400 C 5.898 15.428,5.782 15.508,5.667 15.631 C 5.570 15.735,5.224 16.105,4.899 16.453 C 4.573 16.801,4.197 17.161,4.063 17.253 L 3.820 17.420 8.937 17.430 C 11.751 17.436,14.060 17.433,14.069 17.424 C 14.078 17.416,13.995 17.285,13.885 17.134 C 13.776 16.983,13.560 16.644,13.407 16.380 C 13.014 15.705,12.914 15.556,12.798 15.471 C 12.698 15.398,12.695 15.398,12.429 15.537 C 11.949 15.787,11.710 15.781,11.639 15.518 C 11.608 15.401,11.566 15.345,11.488 15.314 C 11.153 15.182,11.000 14.970,11.000 14.636 L 11.000 14.445 10.850 14.468 C 10.668 14.496,10.652 14.508,10.713 14.569 C 10.778 14.634,10.772 14.861,10.700 15.000 C 10.617 15.160,10.488 15.240,10.312 15.240 C 10.229 15.240,10.103 15.276,10.031 15.320 C 9.891 15.405,9.701 15.426,9.660 15.360 C 9.646 15.338,9.578 15.320,9.508 15.319 C 9.340 15.319,9.335 15.315,9.006 14.925 C 8.690 14.550,8.423 14.053,8.360 13.722 C 8.307 13.441,8.233 13.392,8.001 13.485 M8.960 13.793 C 8.960 13.983,9.407 14.960,9.494 14.960 C 9.524 14.960,9.581 14.923,9.621 14.879 C 9.662 14.834,9.754 14.761,9.827 14.715 C 10.010 14.603,9.993 14.557,9.781 14.586 C 9.538 14.619,9.392 14.529,9.425 14.366 C 9.450 14.242,9.335 13.975,9.198 13.838 C 9.120 13.760,8.960 13.730,8.960 13.793 M2.020 15.726 C 0.942 16.630,0.054 17.386,0.047 17.405 C 0.039 17.425,0.805 17.441,1.807 17.442 L 3.580 17.444 3.380 17.624 C 3.007 17.962,2.451 18.363,2.300 18.405 C 2.162 18.443,2.155 18.452,2.214 18.511 C 2.310 18.607,2.651 18.597,2.790 18.495 C 2.851 18.450,2.986 18.290,3.091 18.138 C 3.320 17.807,3.454 17.663,3.636 17.550 C 3.749 17.480,3.761 17.461,3.703 17.441 C 3.647 17.421,3.705 17.351,3.984 17.098 C 4.177 16.923,4.521 16.546,4.748 16.260 L 5.161 15.740 4.770 15.719 C 4.556 15.707,4.343 15.677,4.298 15.652 C 4.246 15.623,4.172 15.482,4.098 15.273 C 3.995 14.983,3.980 14.884,3.980 14.510 C 3.980 14.274,3.980 14.081,3.980 14.081 C 3.980 14.081,3.098 14.822,2.020 15.726 " stroke="none" fill="black" fill-rule="evenodd"></path></svg>