<svg role="img" viewBox="0 0 24 24" xmlns="http://www.w3.org/2000/svg"><path d="M4.422 7.085 C 3.763 7.311,3.275 7.913,3.213 8.576 L 3.188 8.840 3.353 8.840 C 3.747 8.840,4.298 8.477,4.546 8.053 C 4.688 7.812,4.800 7.432,4.800 7.196 C 4.800 6.966,4.783 6.960,4.422 7.085 M8.560 11.260 L 8.560 14.960 9.120 14.960 L 9.680 14.960 9.680 13.705 L 9.680 12.449 10.710 12.430 C 11.634 12.413,11.769 12.402,12.020 12.322 C 12.855 12.055,13.405 11.491,13.623 10.680 C 13.715 10.339,13.716 9.673,13.625 9.320 C 13.397 8.430,12.720 7.791,11.825 7.620 C 11.583 7.573,11.180 7.560,10.036 7.560 L 8.560 7.560 8.560 11.260 M11.360 8.563 C 11.693 8.617,11.908 8.713,12.118 8.903 C 12.656 9.389,12.698 10.445,12.201 11.009 C 11.883 11.371,11.389 11.492,10.320 11.472 L 9.700 11.460 9.689 10.040 C 9.684 9.259,9.688 8.598,9.698 8.570 C 9.723 8.506,10.977 8.501,11.360 8.563 M4.439 8.960 C 4.340 8.977,4.124 9.040,3.959 9.099 C 3.795 9.159,3.567 9.236,3.453 9.270 L 3.245 9.332 2.773 9.166 C 2.210 8.968,2.019 8.937,1.701 8.996 C 0.975 9.131,0.391 9.674,0.132 10.457 C 0.036 10.748,0.025 10.838,0.026 11.360 C 0.026 11.967,0.081 12.292,0.283 12.883 C 0.574 13.731,1.300 14.759,1.738 14.942 C 1.959 15.034,2.246 15.014,2.591 14.882 C 3.242 14.633,3.487 14.626,4.023 14.839 C 4.793 15.144,5.166 15.020,5.721 14.275 C 5.999 13.901,6.211 13.527,6.341 13.180 C 6.396 13.036,6.440 12.911,6.440 12.903 C 6.440 12.894,6.361 12.841,6.264 12.784 C 5.373 12.262,5.123 11.047,5.737 10.226 C 5.831 10.101,5.982 9.941,6.074 9.871 C 6.165 9.800,6.240 9.731,6.240 9.717 C 6.240 9.703,6.150 9.601,6.040 9.491 C 5.772 9.224,5.428 9.045,5.047 8.978 C 4.707 8.917,4.696 8.917,4.439 8.960 M15.901 9.560 C 15.041 9.716,14.415 10.256,14.289 10.953 L 14.251 11.160 14.762 11.160 L 15.272 11.160 15.313 11.044 C 15.378 10.858,15.624 10.617,15.848 10.520 C 16.026 10.444,16.109 10.433,16.443 10.447 C 16.789 10.461,16.851 10.475,17.025 10.583 C 17.308 10.758,17.412 10.967,17.433 11.405 L 17.449 11.752 17.055 11.778 C 15.463 11.883,15.250 11.916,14.815 12.127 C 14.519 12.271,14.268 12.509,14.129 12.780 C 13.982 13.063,13.957 13.600,14.073 13.931 C 14.299 14.572,14.846 14.946,15.620 14.990 C 16.044 15.013,16.331 14.962,16.671 14.801 C 16.906 14.690,17.269 14.376,17.410 14.160 C 17.473 14.064,17.476 14.078,17.478 14.510 L 17.480 14.960 18.001 14.960 L 18.523 14.960 18.511 12.910 C 18.500 10.868,18.500 10.859,18.407 10.629 C 18.219 10.163,17.743 9.777,17.158 9.617 C 16.890 9.544,16.171 9.511,15.901 9.560 M19.004 9.710 C 19.028 9.771,19.461 10.979,19.967 12.395 L 20.887 14.971 20.798 15.246 C 20.602 15.857,20.355 16.055,19.791 16.055 L 19.478 16.055 19.489 16.497 L 19.500 16.940 19.840 16.952 C 20.792 16.986,21.332 16.678,21.736 15.869 C 21.844 15.654,22.352 14.275,22.956 12.560 L 23.990 9.620 23.429 9.609 C 23.121 9.603,22.861 9.605,22.852 9.614 C 22.838 9.629,21.749 13.155,21.575 13.753 C 21.541 13.870,21.506 13.959,21.497 13.951 C 21.489 13.942,21.202 13.018,20.859 11.898 C 20.517 10.777,20.218 9.802,20.195 9.730 L 20.154 9.600 19.558 9.600 L 18.962 9.600 19.004 9.710 M17.440 12.793 C 17.440 13.363,17.235 13.729,16.788 13.957 C 16.349 14.181,15.736 14.178,15.398 13.950 C 15.205 13.820,15.103 13.623,15.103 13.380 C 15.103 13.114,15.220 12.925,15.469 12.791 C 15.721 12.656,15.814 12.639,16.618 12.581 C 16.993 12.554,17.332 12.529,17.370 12.526 C 17.430 12.521,17.440 12.557,17.440 12.793 " stroke="none" fill="black" fill-rule="evenodd"></path></svg>