<svg role="img" viewBox="0 0 24 24" xmlns="http://www.w3.org/2000/svg"><path d="M4.760 0.027 C 4.459 0.059,3.814 0.212,3.518 0.321 C 2.742 0.607,2.186 0.966,1.576 1.576 C 0.792 2.361,0.358 3.152,0.113 4.243 L 0.020 4.660 0.020 12.000 L 0.020 19.340 0.113 19.757 C 0.357 20.847,0.790 21.637,1.576 22.425 C 2.345 23.196,3.165 23.645,4.245 23.887 L 4.660 23.980 12.000 23.980 L 19.340 23.980 19.757 23.887 C 20.794 23.654,21.617 23.214,22.363 22.492 C 23.154 21.727,23.642 20.851,23.886 19.759 L 23.980 19.340 23.980 12.000 L 23.980 4.660 23.887 4.243 C 23.644 3.161,23.200 2.350,22.425 1.575 C 21.672 0.822,20.909 0.395,19.840 0.127 L 19.420 0.022 12.160 0.017 C 8.167 0.014,4.837 0.019,4.760 0.027 M13.120 2.662 C 14.942 2.934,16.527 3.748,17.853 5.094 C 18.994 6.252,19.690 7.503,20.083 9.100 C 20.355 10.202,20.346 11.854,20.064 12.971 C 19.670 14.527,18.912 15.858,17.781 16.980 C 17.117 17.638,16.424 18.118,15.380 18.640 C 14.764 18.949,14.586 19.005,14.547 18.904 C 14.503 18.789,14.602 18.146,14.693 17.963 C 14.769 17.808,14.824 17.764,15.140 17.602 C 16.958 16.669,18.324 15.041,18.935 13.079 C 19.119 12.488,19.155 12.248,19.185 11.420 C 19.237 10.002,19.060 9.026,18.557 7.966 C 18.173 7.155,17.766 6.567,17.142 5.925 C 16.102 4.853,14.832 4.139,13.420 3.832 C 12.953 3.730,11.491 3.687,10.877 3.758 C 8.888 3.985,6.973 5.196,5.779 6.980 C 5.210 7.831,4.783 8.858,4.655 9.682 C 4.577 10.190,4.565 11.729,4.636 12.240 C 4.779 13.265,5.339 14.536,6.075 15.500 C 6.351 15.862,7.020 16.538,7.380 16.820 C 7.777 17.129,8.198 17.400,8.596 17.600 C 8.979 17.794,9.076 17.897,9.144 18.188 C 9.207 18.454,9.219 19.000,9.162 19.000 C 9.089 19.000,8.395 18.684,7.985 18.463 C 6.077 17.440,4.787 16.010,4.025 14.074 C 3.791 13.478,3.573 12.646,3.523 12.160 C 3.402 10.969,3.441 9.938,3.637 9.140 C 4.183 6.918,5.414 5.169,7.320 3.909 C 8.458 3.156,9.744 2.722,11.240 2.585 C 11.582 2.553,12.701 2.599,13.120 2.662 M12.938 5.464 C 14.758 5.762,16.472 7.219,17.162 9.055 C 17.441 9.796,17.496 10.110,17.496 10.960 C 17.496 11.573,17.481 11.767,17.409 12.090 C 17.220 12.940,16.912 13.649,16.454 14.284 C 16.075 14.811,15.060 15.753,14.969 15.663 C 14.953 15.647,14.934 15.373,14.927 15.055 L 14.914 14.476 15.132 14.228 C 15.838 13.424,16.231 12.629,16.381 11.702 C 16.613 10.271,16.131 8.824,15.070 7.767 C 14.351 7.052,13.630 6.688,12.556 6.499 C 11.178 6.257,9.572 6.818,8.578 7.891 C 7.240 9.333,6.957 11.328,7.840 13.081 C 8.009 13.416,8.209 13.709,8.558 14.132 L 8.840 14.474 8.839 14.987 C 8.839 15.486,8.818 15.680,8.764 15.680 C 8.708 15.680,8.167 15.263,7.945 15.048 C 7.226 14.350,6.631 13.321,6.374 12.329 C 6.250 11.850,6.200 10.762,6.277 10.180 C 6.534 8.208,8.010 6.416,9.995 5.663 C 10.746 5.378,11.926 5.298,12.938 5.464 M12.263 8.404 C 12.620 8.470,12.909 8.629,13.203 8.922 C 14.008 9.723,14.035 10.889,13.265 11.655 C 12.631 12.287,11.743 12.416,10.913 11.997 C 9.943 11.507,9.620 10.205,10.233 9.256 C 10.670 8.579,11.447 8.253,12.263 8.404 M12.633 13.183 C 13.170 13.304,13.630 13.635,13.813 14.031 C 13.895 14.209,13.900 14.274,13.897 15.160 C 13.894 16.174,13.854 16.619,13.617 18.280 C 13.322 20.352,13.213 20.632,12.588 20.939 C 12.132 21.163,11.630 21.170,11.141 20.960 C 10.607 20.732,10.396 20.251,10.163 18.740 C 9.910 17.098,9.786 15.755,9.806 14.860 C 9.819 14.256,9.826 14.207,9.931 13.994 C 10.162 13.523,10.701 13.211,11.439 13.119 C 11.763 13.079,12.298 13.107,12.633 13.183 " stroke="none" fill="black" fill-rule="evenodd"></path></svg>