<svg role="img" viewBox="0 0 24 24" xmlns="http://www.w3.org/2000/svg"><path d="M11.240 3.334 C 9.891 3.737,8.958 5.027,8.201 7.535 C 8.014 8.156,7.667 9.519,7.493 10.316 L 7.419 10.653 7.182 10.336 C 6.344 9.218,5.500 8.333,4.884 7.928 C 4.023 7.363,3.152 7.200,2.281 7.442 C 1.368 7.696,0.610 8.401,0.285 9.299 C 0.018 10.036,0.027 9.903,0.010 13.380 C -0.006 16.743,0.005 17.013,0.183 17.715 C 0.474 18.861,1.239 19.662,2.328 19.959 C 3.632 20.315,6.212 20.597,9.320 20.724 C 10.621 20.777,14.657 20.751,15.740 20.682 C 18.648 20.498,20.691 20.249,21.700 19.954 C 22.689 19.665,23.414 18.965,23.741 17.983 C 23.979 17.270,23.972 17.376,23.989 13.862 C 24.002 11.063,23.995 10.566,23.941 10.193 C 23.806 9.273,23.507 8.659,22.927 8.112 C 22.611 7.814,22.086 7.529,21.640 7.412 C 21.255 7.312,20.622 7.321,20.228 7.432 C 19.224 7.717,18.359 8.435,17.126 10.010 C 16.872 10.335,16.652 10.587,16.637 10.570 C 16.622 10.554,16.579 10.396,16.542 10.220 C 16.385 9.483,16.032 8.094,15.843 7.469 C 15.348 5.832,14.829 4.827,14.101 4.099 C 13.487 3.486,12.881 3.238,12.004 3.242 C 11.644 3.244,11.473 3.264,11.240 3.334 M12.549 4.982 C 13.509 5.409,14.142 6.974,15.103 11.306 L 15.336 12.352 15.051 12.686 C 14.689 13.114,14.087 13.696,13.757 13.939 C 12.806 14.640,11.834 14.761,10.900 14.293 C 10.746 14.216,10.503 14.069,10.360 13.968 C 10.039 13.740,9.404 13.131,9.021 12.685 L 8.734 12.351 9.007 11.125 C 9.661 8.188,10.097 6.761,10.604 5.909 C 10.818 5.548,11.208 5.138,11.455 5.013 C 11.817 4.829,12.182 4.818,12.549 4.982 M3.568 9.083 C 3.684 9.129,3.896 9.244,4.039 9.340 C 4.323 9.530,4.967 10.162,5.363 10.640 C 5.647 10.982,6.920 12.673,6.947 12.744 C 6.989 12.853,6.424 14.894,6.133 15.680 C 5.943 16.197,5.607 16.894,5.378 17.247 C 4.973 17.874,4.384 18.323,3.811 18.442 C 3.514 18.504,2.920 18.468,2.669 18.374 C 2.371 18.262,2.123 18.050,1.974 17.780 C 1.700 17.283,1.706 17.372,1.691 13.801 C 1.678 10.953,1.684 10.545,1.741 10.261 C 1.868 9.634,2.172 9.220,2.625 9.059 C 2.865 8.973,3.319 8.985,3.568 9.083 M21.493 9.064 C 21.757 9.154,22.052 9.434,22.201 9.736 C 22.439 10.220,22.446 10.339,22.431 13.830 C 22.417 16.908,22.415 16.987,22.331 17.287 C 22.284 17.455,22.208 17.667,22.162 17.756 C 21.928 18.215,21.407 18.480,20.740 18.480 C 20.154 18.480,19.701 18.294,19.255 17.870 C 18.608 17.256,18.113 16.260,17.626 14.600 C 17.432 13.939,17.160 12.881,17.160 12.789 C 17.160 12.726,18.382 11.078,18.813 10.560 C 19.187 10.111,19.770 9.537,20.044 9.349 C 20.530 9.015,21.050 8.913,21.493 9.064 M9.120 15.089 C 9.701 15.569,10.427 15.948,11.101 16.124 C 11.402 16.202,11.556 16.217,12.060 16.215 C 12.576 16.214,12.714 16.199,13.048 16.109 C 13.832 15.900,14.575 15.463,15.365 14.748 L 15.830 14.327 15.901 14.593 C 16.036 15.102,16.435 16.263,16.639 16.740 C 16.977 17.528,17.377 18.219,17.771 18.692 C 17.858 18.797,17.923 18.890,17.915 18.898 C 17.891 18.921,16.952 18.997,15.880 19.063 C 14.513 19.148,11.015 19.182,9.600 19.124 C 8.476 19.079,6.841 18.978,6.388 18.926 L 6.155 18.900 6.380 18.620 C 7.000 17.848,7.587 16.594,8.057 15.040 C 8.160 14.699,8.253 14.394,8.264 14.363 C 8.277 14.323,8.379 14.399,8.592 14.606 C 8.761 14.771,8.999 14.989,9.120 15.089 " stroke="none" fill="black" fill-rule="evenodd"></path></svg>