<svg role="img" xmlns="http://www.w3.org/2000/svg" viewBox="0 0 24 24"><path d="M1.600 12.000 L 1.600 24.005 1.833 23.872 C 3.165 23.117,22.360 12.015,22.360 12.000 C 22.360 11.985,3.115 0.854,1.833 0.128 L 1.600 -0.005 1.600 12.000 M8.091 8.540 C 9.162 9.156,10.038 9.669,10.038 9.680 C 10.038 9.691,9.162 10.204,8.091 10.820 C 7.020 11.436,6.057 11.990,5.952 12.051 L 5.760 12.162 5.760 9.680 L 5.760 7.198 5.952 7.309 C 6.058 7.370,7.020 7.924,8.091 8.540 M13.315 11.558 C 13.714 11.788,14.040 11.986,14.040 12.000 C 14.040 12.018,11.493 13.496,5.951 16.691 L 5.758 16.802 5.769 15.916 L 5.780 15.030 9.160 13.077 C 11.019 12.003,12.551 11.127,12.565 11.132 C 12.578 11.136,12.916 11.328,13.315 11.558 " stroke="none" fill="black" fill-rule="evenodd"></path></svg>