<svg role="img" viewBox="0 0 24 24" xmlns="http://www.w3.org/2000/svg"><path d="M4.000 0.800 L 4.000 1.600 3.200 1.600 L 2.400 1.600 2.400 2.400 L 2.400 3.200 1.600 3.200 L 0.800 3.200 0.800 12.000 L 0.800 20.800 1.600 20.800 L 2.400 20.800 2.400 21.600 L 2.400 22.400 3.200 22.400 L 4.000 22.400 4.000 23.200 L 4.000 24.000 12.000 24.000 L 20.000 24.000 20.000 23.200 L 20.000 22.400 20.800 22.400 L 21.600 22.400 21.600 21.600 L 21.600 20.800 22.400 20.800 L 23.200 20.800 23.200 12.000 L 23.200 3.200 22.400 3.200 L 21.600 3.200 21.600 2.400 L 21.600 1.600 20.800 1.600 L 20.000 1.600 20.000 0.800 L 20.000 0.000 12.000 0.000 L 4.000 0.000 4.000 0.800 M20.000 2.400 L 20.000 3.200 20.800 3.200 L 21.600 3.200 21.600 10.400 L 21.600 17.600 20.800 17.600 L 20.000 17.600 20.000 18.400 L 20.000 19.200 12.000 19.200 L 4.000 19.200 4.000 18.400 L 4.000 17.600 3.200 17.600 L 2.400 17.600 2.400 10.400 L 2.400 3.200 3.200 3.200 L 4.000 3.200 4.000 2.400 L 4.000 1.600 12.000 1.600 L 20.000 1.600 20.000 2.400 M7.200 9.600 L 7.200 12.800 8.000 12.800 L 8.800 12.800 8.800 9.600 L 8.800 6.400 8.000 6.400 L 7.200 6.400 7.200 9.600 M15.200 9.600 L 15.200 12.800 16.000 12.800 L 16.800 12.800 16.800 9.600 L 16.800 6.400 16.000 6.400 L 15.200 6.400 15.200 9.600 " stroke="none" fill="black" fill-rule="evenodd"></path></svg>