<svg role="img" viewBox="0 0 24 24" xmlns="http://www.w3.org/2000/svg"><path d="M6.809 1.196 C 5.797 1.549,5.252 2.516,5.117 4.199 C 5.051 5.025,5.166 6.333,5.398 7.400 C 5.439 7.587,5.469 7.742,5.466 7.744 C 5.463 7.746,5.172 7.816,4.820 7.899 C 1.068 8.786,-0.695 10.572,0.280 12.500 C 0.568 13.072,1.053 13.565,1.840 14.089 C 2.341 14.423,2.760 14.640,2.901 14.640 C 3.141 14.640,3.360 14.420,3.360 14.178 C 3.360 13.983,3.242 13.860,2.825 13.622 C 1.941 13.118,1.328 12.571,1.077 12.059 C 0.960 11.823,0.942 11.745,0.941 11.483 C 0.940 11.150,1.033 10.912,1.290 10.587 C 1.808 9.933,3.326 9.195,4.960 8.803 C 5.761 8.611,5.653 8.552,5.881 9.307 C 6.053 9.873,6.345 10.717,6.643 11.503 L 6.735 11.745 6.534 12.123 C 5.947 13.222,5.270 14.833,4.925 15.953 C 4.314 17.930,4.172 19.523,4.504 20.671 C 4.639 21.137,4.810 21.446,5.109 21.763 C 5.895 22.598,7.092 22.644,8.632 21.899 C 9.225 21.613,9.987 21.134,10.140 20.952 C 10.292 20.772,10.279 20.551,10.104 20.376 C 9.883 20.155,9.738 20.179,9.212 20.522 C 8.073 21.264,7.097 21.603,6.444 21.483 C 5.852 21.375,5.521 21.010,5.333 20.260 C 5.228 19.838,5.238 18.782,5.354 18.104 C 5.601 16.654,6.128 15.085,6.945 13.366 L 7.203 12.821 7.614 13.661 C 8.950 16.388,10.498 18.671,12.179 20.396 C 13.426 21.676,14.510 22.441,15.560 22.781 C 16.011 22.927,16.707 22.964,17.064 22.861 C 17.647 22.693,18.122 22.288,18.427 21.699 C 18.781 21.015,18.898 20.391,18.896 19.200 C 18.893 17.628,18.590 16.040,17.901 13.980 C 17.434 12.585,16.625 10.658,16.410 10.430 C 16.137 10.143,15.641 10.338,15.640 10.734 C 15.640 10.797,15.768 11.130,15.924 11.474 C 16.362 12.437,16.700 13.296,17.021 14.260 C 17.479 15.634,17.749 16.759,17.903 17.940 C 17.996 18.648,17.998 19.852,17.908 20.348 C 17.744 21.246,17.368 21.829,16.864 21.964 C 15.296 22.387,12.426 19.938,10.026 16.129 C 9.320 15.009,8.434 13.350,7.965 12.268 L 7.760 11.797 7.843 11.634 C 8.145 11.041,9.265 9.302,9.857 8.504 L 10.092 8.188 11.036 8.215 C 12.126 8.247,12.939 8.297,13.760 8.383 C 18.155 8.841,21.817 10.216,22.831 11.790 C 23.224 12.400,23.145 12.969,22.585 13.553 C 22.218 13.935,21.502 14.380,20.829 14.644 C 20.436 14.798,20.285 15.049,20.417 15.328 C 20.503 15.510,20.687 15.615,20.875 15.590 C 20.955 15.579,21.219 15.482,21.460 15.374 C 23.104 14.640,23.998 13.642,24.000 12.538 C 24.001 11.367,23.004 10.259,21.103 9.322 C 18.704 8.138,15.495 7.462,11.490 7.297 C 11.133 7.282,10.840 7.262,10.840 7.252 C 10.840 7.218,11.291 6.699,11.845 6.094 C 13.534 4.251,15.325 2.942,16.627 2.601 C 17.018 2.498,17.525 2.489,17.797 2.579 C 18.201 2.713,18.503 3.108,18.669 3.720 C 18.766 4.077,18.765 5.337,18.668 5.860 C 18.568 6.394,18.576 6.542,18.715 6.681 C 18.918 6.884,19.160 6.886,19.359 6.687 C 19.447 6.600,19.482 6.506,19.534 6.219 C 19.811 4.688,19.687 3.359,19.196 2.599 C 18.886 2.119,18.451 1.797,17.934 1.663 C 17.619 1.582,17.005 1.582,16.613 1.663 C 15.672 1.857,14.475 2.507,13.260 3.482 C 12.303 4.251,10.900 5.692,9.928 6.905 L 9.595 7.320 9.268 7.321 C 8.740 7.321,7.590 7.424,6.440 7.572 C 6.363 7.582,6.195 6.761,6.098 5.907 C 6.014 5.171,6.035 3.946,6.140 3.480 C 6.288 2.819,6.564 2.358,6.949 2.132 C 7.091 2.050,7.199 2.022,7.439 2.008 C 8.125 1.969,8.823 2.264,9.846 3.028 C 10.228 3.313,10.313 3.360,10.449 3.360 C 10.667 3.360,10.880 3.155,10.880 2.946 C 10.880 2.731,10.813 2.625,10.545 2.410 C 9.126 1.274,7.813 0.847,6.809 1.196 M8.880 8.260 C 8.880 8.271,8.791 8.405,8.682 8.557 C 8.444 8.891,7.761 9.947,7.522 10.350 C 7.428 10.510,7.337 10.640,7.321 10.640 C 7.258 10.640,6.569 8.537,6.616 8.490 C 6.679 8.428,8.880 8.204,8.880 8.260 M11.551 10.701 C 10.969 10.914,10.608 11.473,10.649 12.094 C 10.673 12.448,10.792 12.715,11.039 12.962 C 11.301 13.225,11.548 13.332,11.938 13.351 C 12.382 13.374,12.657 13.270,12.963 12.963 C 13.244 12.683,13.360 12.400,13.360 12.000 C 13.360 11.600,13.244 11.317,12.963 11.037 C 12.677 10.751,12.400 10.639,11.988 10.643 C 11.830 10.644,11.633 10.670,11.551 10.701 " stroke="none" fill="black" fill-rule="evenodd"></path></svg>