<svg role="img" viewBox="0 0 24 24" xmlns="http://www.w3.org/2000/svg"><path d="M10.940 0.046 C 5.531 0.513,1.050 4.669,0.164 10.040 C -0.886 16.411,3.280 22.473,9.606 23.778 C 10.450 23.952,10.970 24.000,12.000 24.000 C 13.030 24.000,13.550 23.952,14.394 23.778 C 19.078 22.812,22.750 19.163,23.735 14.494 C 24.331 11.672,23.879 8.649,22.493 6.180 C 20.158 2.025,15.662 -0.363,10.940 0.046 M13.620 1.018 C 16.627 1.507,19.144 3.015,20.901 5.380 C 22.006 6.866,22.696 8.521,22.985 10.380 C 23.088 11.041,23.091 12.975,22.989 13.591 C 22.576 16.106,21.551 18.137,19.824 19.864 C 18.202 21.486,16.228 22.524,13.980 22.938 C 10.843 23.516,7.569 22.679,5.040 20.654 C 4.598 20.300,3.728 19.432,3.384 19.000 C 2.308 17.650,1.529 16.030,1.165 14.380 C 0.974 13.518,0.940 13.151,0.942 11.980 C 0.944 10.767,0.994 10.303,1.223 9.370 C 2.293 5.016,5.901 1.709,10.310 1.041 C 11.043 0.930,11.077 0.928,12.200 0.941 C 12.902 0.949,13.345 0.973,13.620 1.018 M12.037 2.224 C 12.012 2.288,11.914 2.565,11.820 2.840 C 11.727 3.115,10.413 6.841,8.900 11.120 C 6.232 18.668,5.800 19.902,5.800 19.968 C 5.800 19.986,8.643 20.000,12.118 20.000 L 18.436 20.000 18.334 19.730 C 18.233 19.464,16.375 14.212,13.553 6.220 C 12.761 3.976,12.106 2.133,12.097 2.124 C 12.089 2.116,12.062 2.161,12.037 2.224 M13.097 7.705 C 13.638 9.226,14.080 10.490,14.080 10.515 C 14.080 10.561,11.090 19.043,11.066 19.068 C 11.058 19.075,10.154 19.076,9.055 19.070 L 7.057 19.060 9.539 12.060 C 12.240 4.442,12.075 4.902,12.098 4.924 C 12.106 4.933,12.556 6.184,13.097 7.705 M15.862 15.500 C 16.538 17.414,17.100 19.003,17.110 19.030 C 17.125 19.070,16.602 19.080,14.580 19.080 C 12.558 19.080,12.035 19.070,12.049 19.030 C 12.059 19.003,12.632 17.400,13.321 15.470 C 14.011 13.539,14.588 11.973,14.604 11.990 C 14.619 12.006,15.185 13.586,15.862 15.500 " stroke="none" fill="black" fill-rule="evenodd"></path></svg>