<svg role="img" viewBox="0 0 24 24" xmlns="http://www.w3.org/2000/svg"><path d="M12.674 0.113 C 12.350 0.284,2.957 5.719,2.825 5.812 C 2.762 5.856,2.677 5.966,2.636 6.056 C 2.567 6.208,2.562 6.350,2.561 7.967 L 2.560 9.714 2.430 9.755 C 2.358 9.777,2.111 9.844,1.880 9.903 C 1.114 10.099,0.800 10.288,0.618 10.662 C 0.425 11.054,0.514 11.506,0.924 12.222 C 1.284 12.852,1.750 13.292,2.290 13.511 L 2.559 13.620 2.560 15.700 C 2.562 18.109,2.548 18.012,2.928 18.252 C 3.044 18.326,5.314 19.643,7.971 21.178 C 11.805 23.394,12.838 23.974,12.974 23.989 C 13.101 24.004,13.192 23.986,13.323 23.919 C 13.420 23.869,14.823 23.064,16.440 22.128 C 18.057 21.193,20.235 19.934,21.280 19.330 C 22.325 18.726,23.222 18.193,23.274 18.146 C 23.492 17.946,23.480 18.309,23.480 12.000 C 23.480 5.691,23.492 6.053,23.274 5.855 C 23.222 5.808,22.325 5.275,21.280 4.670 C 15.014 1.046,13.483 0.162,13.332 0.086 C 13.105 -0.029,12.930 -0.022,12.674 0.113 M18.120 3.594 L 22.820 6.312 22.830 8.719 L 22.841 11.126 22.390 10.711 C 20.894 9.334,19.378 8.303,17.749 7.554 C 16.907 7.167,16.349 6.780,15.684 6.121 C 15.287 5.728,14.800 5.361,14.423 5.171 C 14.166 5.042,14.121 5.032,13.875 5.050 C 13.517 5.075,13.243 5.210,12.500 5.726 C 11.611 6.344,11.713 6.301,10.998 6.355 C 9.200 6.489,8.229 6.873,5.348 8.586 C 4.890 8.859,4.393 9.143,4.243 9.218 C 3.996 9.343,3.421 9.520,3.263 9.520 C 3.207 9.520,3.200 9.353,3.200 7.925 L 3.200 6.330 4.646 5.495 C 5.442 5.036,7.651 3.758,9.556 2.655 L 13.020 0.649 13.220 0.762 C 13.330 0.824,15.535 2.099,18.120 3.594 M14.089 5.466 C 14.183 5.502,14.406 5.628,14.585 5.745 L 14.910 5.958 14.875 6.146 C 14.856 6.249,14.829 6.344,14.817 6.357 C 14.783 6.391,14.680 6.237,14.680 6.152 C 14.680 6.063,14.632 6.061,14.473 6.144 L 14.350 6.207 14.173 6.005 L 13.996 5.803 13.828 5.977 C 13.692 6.118,13.599 6.170,13.339 6.252 C 13.005 6.357,12.424 6.458,12.296 6.434 C 12.174 6.410,13.392 5.571,13.715 5.455 C 13.901 5.389,13.889 5.389,14.089 5.466 M12.000 6.767 C 13.090 6.830,14.379 7.042,15.380 7.325 C 16.225 7.563,17.258 8.014,17.875 8.414 C 18.483 8.808,20.034 9.980,20.920 10.716 C 21.416 11.127,22.120 11.790,22.120 11.846 C 22.120 11.899,21.629 11.886,21.099 11.821 C 19.292 11.597,17.631 11.086,16.822 10.505 L 16.624 10.363 16.514 9.922 C 16.280 8.994,16.040 8.610,15.594 8.455 C 15.281 8.345,14.609 8.355,14.176 8.476 C 13.866 8.562,13.839 8.563,13.556 8.506 C 12.645 8.322,11.695 8.289,10.900 8.415 C 9.916 8.571,8.605 8.948,7.380 9.430 C 5.939 9.996,4.254 10.837,3.782 11.227 C 3.282 11.640,3.505 12.210,4.434 12.893 C 4.794 13.157,4.874 13.149,5.023 12.830 L 5.140 12.580 5.374 12.568 C 5.502 12.561,5.925 12.585,6.314 12.621 C 7.280 12.710,9.297 12.745,9.841 12.682 C 10.632 12.590,12.775 11.995,13.231 11.740 C 13.330 11.685,13.418 11.644,13.424 11.651 C 13.431 11.658,13.412 11.767,13.383 11.894 L 13.329 12.125 13.495 12.099 C 13.586 12.084,13.755 12.040,13.870 12.002 C 14.064 11.938,14.080 11.937,14.080 11.999 C 14.080 12.035,14.054 12.100,14.021 12.142 C 13.924 12.271,13.949 12.287,14.220 12.273 C 14.363 12.266,14.480 12.262,14.480 12.265 C 14.480 12.268,14.453 12.322,14.420 12.385 C 14.343 12.534,14.345 12.574,14.432 12.652 C 14.530 12.742,14.902 12.820,15.692 12.919 C 16.441 13.012,16.598 13.054,17.060 13.287 C 17.842 13.682,18.543 14.222,19.463 15.139 C 20.276 15.951,20.852 16.649,21.463 17.564 C 21.693 17.908,21.880 18.199,21.880 18.211 C 21.880 18.223,21.750 18.308,21.592 18.399 C 21.363 18.531,21.287 18.557,21.222 18.527 C 21.177 18.506,20.357 18.017,19.400 17.440 C 17.523 16.308,16.544 15.795,15.400 15.347 C 13.436 14.577,11.792 14.215,9.920 14.141 C 7.632 14.051,6.136 13.937,5.120 13.775 C 4.625 13.696,4.217 13.629,4.213 13.626 C 4.210 13.623,5.065 13.620,6.113 13.620 C 7.583 13.621,8.047 13.633,8.138 13.673 C 8.255 13.724,8.256 13.724,8.183 13.643 C 8.142 13.598,8.008 13.521,7.885 13.472 C 7.664 13.385,7.627 13.383,5.860 13.381 C 3.716 13.378,2.755 13.300,2.353 13.096 L 2.164 13.001 2.264 12.710 C 2.413 12.273,2.598 11.623,2.643 11.380 C 2.695 11.102,2.622 10.950,2.254 10.560 C 2.109 10.406,2.002 10.280,2.016 10.280 C 2.030 10.280,2.523 10.153,3.111 9.998 C 4.304 9.682,4.290 9.688,5.580 8.920 C 8.121 7.404,9.239 6.934,10.646 6.789 C 11.295 6.722,11.240 6.723,12.000 6.767 M15.563 8.708 C 15.854 8.837,15.974 9.014,16.162 9.588 C 16.412 10.357,16.425 10.880,16.195 10.880 C 16.062 10.880,15.852 10.763,15.637 10.569 L 15.436 10.389 15.554 10.318 C 15.618 10.279,15.700 10.205,15.736 10.153 C 15.801 10.061,15.800 10.060,15.636 10.031 C 15.544 10.015,15.426 9.974,15.373 9.939 L 15.276 9.876 15.375 9.758 C 15.475 9.640,15.542 9.489,15.510 9.456 C 15.500 9.447,15.426 9.467,15.345 9.501 C 15.199 9.562,15.141 9.557,14.790 9.455 C 14.733 9.438,14.720 9.388,14.720 9.180 C 14.720 8.910,14.683 8.840,14.596 8.945 C 14.435 9.139,13.747 9.519,13.362 9.626 C 13.070 9.707,13.000 9.673,13.093 9.494 C 13.174 9.337,13.550 8.987,13.744 8.888 C 14.279 8.615,15.157 8.529,15.563 8.708 M8.439 10.376 C 8.570 10.430,8.714 10.499,8.760 10.532 C 8.841 10.588,8.832 10.597,8.533 10.775 C 8.362 10.877,8.202 10.960,8.176 10.960 C 8.146 10.960,8.135 10.902,8.146 10.790 C 8.164 10.600,8.087 10.473,7.918 10.419 L 7.820 10.387 7.940 10.335 C 8.109 10.262,8.170 10.267,8.439 10.376 M3.545 13.899 C 3.865 13.974,4.729 14.128,5.580 14.260 C 6.884 14.463,8.171 14.778,8.997 15.097 C 9.458 15.275,9.628 15.364,10.060 15.652 C 11.895 16.877,13.553 18.689,14.662 20.680 C 14.879 21.068,15.325 22.008,15.304 22.029 C 15.299 22.035,14.784 22.334,14.161 22.695 L 13.028 23.350 12.804 23.220 C 12.681 23.148,11.032 22.194,9.140 21.101 C 7.248 20.007,5.138 18.787,4.450 18.389 L 3.200 17.665 3.200 15.752 C 3.200 14.249,3.211 13.840,3.250 13.841 C 3.277 13.841,3.410 13.867,3.545 13.899 " stroke="none" fill="black" fill-rule="evenodd"></path></svg>