<svg role="img" viewBox="0 0 24 24" xmlns="http://www.w3.org/2000/svg"><path d="M11.620 1.588 C 8.891 1.833,6.577 2.935,4.613 4.926 C 3.648 5.904,2.943 6.828,2.159 8.143 C 1.314 9.560,0.000 12.576,0.000 13.099 C -0.000 13.529,0.318 13.981,0.731 14.139 C 1.011 14.246,1.420 14.209,1.669 14.054 C 1.950 13.881,2.080 13.676,2.318 13.038 C 3.146 10.816,4.165 8.928,5.305 7.500 C 5.725 6.974,6.568 6.122,7.040 5.746 C 7.981 4.997,9.008 4.453,10.071 4.143 C 10.967 3.881,11.620 3.788,12.560 3.786 C 13.666 3.784,14.330 3.938,15.300 4.419 C 16.043 4.788,16.603 5.198,17.262 5.858 C 17.845 6.441,18.169 6.842,18.657 7.580 C 19.123 8.285,19.367 8.717,19.737 9.488 C 20.730 11.561,21.418 14.003,21.698 16.440 L 21.755 16.939 21.589 17.160 C 20.721 18.313,19.136 19.221,17.097 19.733 C 16.045 19.997,15.004 20.137,13.569 20.206 C 11.456 20.308,9.713 20.033,8.045 19.335 C 6.929 18.867,5.808 18.143,4.892 17.298 L 4.524 16.958 4.646 16.673 C 5.491 14.686,6.758 12.760,7.219 12.760 C 7.386 12.760,7.695 13.019,8.535 13.863 C 9.629 14.961,10.039 15.235,10.710 15.316 C 11.247 15.380,11.669 15.234,12.184 14.805 C 12.723 14.356,13.477 13.352,14.141 12.200 C 14.485 11.605,15.365 9.868,15.460 9.600 C 15.664 9.022,15.367 8.402,14.779 8.177 C 14.558 8.093,14.164 8.114,13.941 8.221 C 13.649 8.362,13.519 8.544,13.073 9.441 C 12.391 10.814,11.609 12.129,11.091 12.773 L 10.872 13.046 9.966 12.151 C 9.405 11.597,8.951 11.185,8.773 11.067 C 7.529 10.246,6.430 10.373,5.276 11.471 C 4.309 12.390,3.390 13.890,2.548 15.920 C 2.171 16.830,2.107 17.039,2.128 17.291 C 2.158 17.660,2.284 17.849,2.918 18.480 C 5.142 20.697,7.768 21.960,11.000 22.367 C 11.655 22.450,14.119 22.436,14.980 22.345 C 19.145 21.906,22.045 20.495,23.602 18.148 C 24.000 17.549,24.028 17.438,23.964 16.734 C 23.743 14.327,23.090 11.690,22.176 9.512 C 20.529 5.590,18.176 2.991,15.392 2.019 C 14.426 1.681,13.637 1.557,12.528 1.567 C 12.117 1.570,11.708 1.580,11.620 1.588 " stroke="none" fill="black" fill-rule="evenodd"></path></svg>