<svg role="img" viewBox="0 0 24 24" xmlns="http://www.w3.org/2000/svg"><path d="M2.400 3.020 L 2.400 6.041 5.350 6.030 L 8.300 6.020 8.320 4.774 L 8.340 3.527 13.120 7.727 C 15.749 10.037,17.900 11.940,17.900 11.956 C 17.900 11.972,15.749 13.895,13.120 16.229 L 8.340 20.472 8.330 14.736 L 8.320 9.000 5.360 9.000 L 2.400 9.000 2.400 16.500 L 2.400 24.000 5.359 24.000 L 8.317 24.000 14.949 17.996 C 18.596 14.694,21.585 11.980,21.590 11.965 C 21.596 11.950,18.612 9.252,14.959 5.969 L 8.317 0.000 5.359 0.000 L 2.400 0.000 2.400 3.020 " stroke="none" fill="black" fill-rule="evenodd"></path></svg>