<svg role="img" xmlns="http://www.w3.org/2000/svg" viewBox="0 0 24 24"><path d="M11.040 4.602 C 10.094 4.717,8.996 5.039,8.179 5.442 C 4.555 7.230,2.634 11.221,3.505 15.152 C 3.829 16.615,4.634 18.158,5.588 19.145 C 5.819 19.385,6.017 19.445,6.245 19.347 C 6.438 19.264,7.471 18.248,7.503 18.110 C 7.553 17.896,7.485 17.733,7.211 17.412 C 6.448 16.515,5.952 15.464,5.758 14.330 C 5.652 13.709,5.652 12.813,5.758 12.193 C 6.147 9.917,7.789 7.994,9.963 7.267 C 12.722 6.344,15.662 7.352,17.286 9.776 C 18.487 11.568,18.662 13.968,17.737 15.951 C 17.526 16.405,17.138 17.005,16.806 17.389 C 16.461 17.791,16.405 17.977,16.555 18.223 C 16.687 18.439,17.695 19.345,17.835 19.373 C 18.057 19.417,18.206 19.359,18.413 19.143 C 19.373 18.148,20.170 16.621,20.495 15.152 C 20.656 14.426,20.694 14.067,20.694 13.260 C 20.693 11.839,20.426 10.691,19.801 9.420 C 18.566 6.907,16.240 5.166,13.460 4.677 C 12.915 4.581,11.559 4.539,11.040 4.602 M0.801 9.430 C 0.609 9.527,0.540 9.668,0.380 10.285 C -0.209 12.563,-0.098 14.964,0.698 17.180 C 0.936 17.841,1.515 19.019,1.712 19.241 C 1.842 19.388,1.888 19.412,2.061 19.429 C 2.254 19.447,2.278 19.437,2.917 19.052 C 3.278 18.834,3.611 18.606,3.657 18.545 C 3.801 18.353,3.769 18.115,3.550 17.733 C 3.137 17.015,2.762 16.018,2.585 15.170 C 2.426 14.406,2.383 13.984,2.385 13.180 C 2.387 12.305,2.457 11.742,2.664 10.925 C 2.838 10.240,2.839 10.121,2.670 9.937 C 2.555 9.812,2.460 9.771,1.840 9.578 C 1.455 9.459,1.095 9.361,1.040 9.360 C 0.985 9.360,0.878 9.392,0.801 9.430 M22.140 9.581 C 21.148 9.899,21.082 9.993,21.301 10.780 C 21.565 11.727,21.680 12.881,21.605 13.832 C 21.487 15.326,21.131 16.510,20.399 17.840 C 20.216 18.173,20.203 18.357,20.351 18.557 C 20.393 18.613,20.723 18.837,21.084 19.053 C 21.713 19.431,21.748 19.446,21.932 19.429 C 22.229 19.402,22.346 19.258,22.760 18.420 C 23.344 17.236,23.689 16.135,23.884 14.840 C 23.962 14.322,23.977 14.059,23.978 13.240 C 23.978 12.047,23.905 11.426,23.634 10.340 C 23.367 9.269,23.270 9.220,22.140 9.581 " stroke="none" fill="black" fill-rule="evenodd"></path></svg>