<svg role="img" viewBox="0 0 24 24" xmlns="http://www.w3.org/2000/svg"><path d="M5.448 1.393 C 4.886 1.594,4.523 2.151,4.570 2.738 C 4.602 3.142,4.720 3.315,5.436 4.007 L 6.077 4.628 5.468 4.653 C 3.907 4.717,2.847 5.108,1.816 5.997 C 0.813 6.863,0.198 8.050,0.041 9.423 C 0.009 9.703,-0.000 11.029,0.010 13.920 C 0.025 17.900,0.028 18.031,0.109 18.401 C 0.358 19.539,0.830 20.394,1.645 21.182 C 2.424 21.935,3.295 22.382,4.380 22.585 C 4.762 22.657,5.110 22.660,12.000 22.660 C 18.890 22.660,19.238 22.657,19.620 22.585 C 20.170 22.482,20.652 22.318,21.131 22.072 C 21.648 21.807,22.048 21.504,22.502 21.034 C 23.255 20.256,23.702 19.385,23.905 18.300 C 23.975 17.925,23.980 17.636,23.980 13.620 L 23.980 9.340 23.890 8.932 C 23.554 7.415,22.764 6.282,21.479 5.474 C 20.630 4.939,19.763 4.701,18.493 4.653 L 17.846 4.628 18.486 4.007 C 19.264 3.251,19.335 3.137,19.338 2.640 C 19.339 2.373,19.321 2.260,19.253 2.112 C 19.137 1.860,18.868 1.599,18.578 1.457 C 18.375 1.357,18.293 1.340,18.020 1.340 C 17.493 1.340,17.468 1.358,15.800 2.960 C 14.997 3.731,14.284 4.424,14.216 4.501 L 14.092 4.640 11.968 4.640 L 9.844 4.640 9.672 4.462 C 9.577 4.364,8.861 3.670,8.080 2.921 C 7.020 1.903,6.606 1.531,6.447 1.453 C 6.160 1.311,5.747 1.287,5.448 1.393 M19.192 7.301 C 19.680 7.398,20.183 7.665,20.531 8.013 C 20.857 8.339,21.037 8.619,21.193 9.047 L 21.300 9.340 21.311 13.527 C 21.323 18.226,21.334 18.031,21.034 18.640 C 20.701 19.314,19.991 19.867,19.260 20.020 C 18.839 20.108,5.161 20.108,4.740 20.020 C 4.017 19.869,3.303 19.317,2.970 18.651 C 2.664 18.038,2.676 18.258,2.689 13.540 L 2.700 9.340 2.807 9.047 C 2.963 8.619,3.143 8.339,3.469 8.013 C 3.811 7.671,4.328 7.391,4.780 7.303 C 5.011 7.257,6.282 7.247,11.972 7.244 C 18.021 7.240,18.922 7.248,19.192 7.301 M7.487 11.204 C 7.191 11.321,6.874 11.644,6.761 11.945 C 6.680 12.162,6.676 12.234,6.687 13.079 C 6.700 13.973,6.701 13.982,6.812 14.208 C 7.037 14.666,7.479 14.937,8.000 14.937 C 8.521 14.937,8.963 14.666,9.188 14.208 L 9.300 13.980 9.300 13.020 L 9.300 12.060 9.163 11.807 C 9.025 11.552,8.820 11.352,8.560 11.217 C 8.340 11.103,7.760 11.096,7.487 11.204 M15.497 11.200 C 15.214 11.312,14.998 11.511,14.837 11.807 L 14.700 12.060 14.700 13.020 L 14.700 13.980 14.812 14.208 C 15.037 14.666,15.479 14.937,16.000 14.937 C 16.521 14.937,16.963 14.666,17.188 14.208 L 17.300 13.980 17.300 13.020 L 17.300 12.060 17.163 11.807 C 17.025 11.552,16.820 11.352,16.560 11.217 C 16.344 11.105,15.760 11.096,15.497 11.200 " stroke="none" fill="black" fill-rule="evenodd"></path></svg>