<svg role="img" viewBox="0 0 24 24" xmlns="http://www.w3.org/2000/svg"><path d="M0.547 1.240 C 0.266 1.325,0.003 1.657,0.001 1.931 C -0.000 2.080,3.271 21.945,3.323 22.107 C 3.383 22.293,3.654 22.580,3.870 22.687 L 4.060 22.780 12.000 22.791 C 17.712 22.799,19.991 22.790,20.120 22.758 C 20.358 22.700,20.547 22.550,20.642 22.346 C 20.743 22.128,24.016 2.092,23.987 1.867 C 23.959 1.654,23.791 1.418,23.590 1.311 L 23.420 1.220 12.040 1.213 C 5.781 1.210,0.609 1.222,0.547 1.240 M15.705 8.610 C 15.693 8.681,15.430 10.216,15.121 12.020 C 14.813 13.824,14.550 15.350,14.537 15.410 L 14.514 15.520 12.021 15.520 L 9.529 15.520 9.507 15.430 C 9.495 15.380,9.195 13.819,8.841 11.960 C 8.486 10.101,8.189 8.558,8.179 8.530 C 8.166 8.490,8.937 8.480,11.946 8.480 L 15.729 8.480 15.705 8.610 " stroke="none" fill="black" fill-rule="evenodd"></path></svg>