<svg role="img" viewBox="0 0 24 24" xmlns="http://www.w3.org/2000/svg"><path d="M1.680 0.175 L 1.680 0.352 2.407 0.966 C 4.129 2.420,4.195 2.483,4.401 2.900 C 4.476 3.051,4.535 3.251,4.559 3.440 C 4.583 3.626,4.598 7.604,4.599 13.870 L 4.600 24.000 9.223 24.000 C 12.059 24.000,14.072 23.984,14.433 23.958 C 16.190 23.832,17.662 23.466,18.877 22.854 C 21.053 21.758,22.178 20.007,22.306 17.520 C 22.379 16.081,21.977 14.700,21.166 13.613 C 20.708 13.000,19.897 12.314,19.223 11.972 C 18.725 11.719,17.856 11.447,17.330 11.379 C 17.215 11.365,17.120 11.336,17.120 11.316 C 17.120 11.296,17.143 11.280,17.170 11.280 C 17.276 11.279,18.306 10.836,18.615 10.658 C 19.817 9.966,20.645 8.971,21.035 7.750 C 21.214 7.191,21.280 6.718,21.280 5.994 C 21.280 4.360,20.768 3.039,19.739 2.020 C 18.715 1.005,17.315 0.378,15.440 0.094 C 15.019 0.030,14.412 0.023,8.330 0.011 L 1.680 -0.002 1.680 0.175 M13.960 3.738 C 15.104 3.875,15.722 4.148,16.310 4.777 C 16.621 5.110,16.804 5.446,16.917 5.890 C 17.080 6.525,17.061 7.157,16.864 7.725 C 16.570 8.570,15.742 9.285,14.760 9.541 C 14.059 9.724,13.967 9.729,11.370 9.748 L 8.880 9.766 8.880 6.723 L 8.880 3.680 11.190 3.681 C 12.897 3.682,13.620 3.697,13.960 3.738 M14.843 13.533 C 16.065 13.741,16.697 14.011,17.244 14.557 C 17.590 14.901,17.815 15.314,17.946 15.840 C 18.051 16.264,18.050 17.340,17.944 17.740 C 17.547 19.248,16.313 20.060,14.086 20.279 C 13.856 20.302,12.604 20.320,11.276 20.320 L 8.880 20.320 8.880 16.877 L 8.880 13.435 11.670 13.451 C 14.020 13.464,14.520 13.477,14.843 13.533 " stroke="none" fill="black" fill-rule="evenodd"></path></svg>