<svg role="img" viewBox="0 0 24 24" xmlns="http://www.w3.org/2000/svg"><path d="M0.000 11.999 L 0.000 21.760 5.430 21.760 C 11.001 21.760,11.420 21.750,12.150 21.599 C 14.638 21.086,16.166 19.275,16.269 16.720 C 16.362 14.386,14.947 12.297,12.927 11.786 L 12.560 11.693 12.810 11.624 C 13.154 11.529,13.757 11.238,14.064 11.018 C 14.873 10.441,15.483 9.514,15.745 8.465 C 15.885 7.901,15.920 6.986,15.822 6.396 C 15.506 4.476,14.172 3.028,12.236 2.504 C 11.304 2.252,11.633 2.264,5.550 2.250 L 0.000 2.237 0.000 11.999 M20.940 2.324 C 20.830 2.346,20.587 2.438,20.400 2.528 C 19.778 2.827,19.277 3.455,19.139 4.110 C 18.889 5.287,19.539 6.387,20.635 6.641 C 20.767 6.671,20.996 6.683,21.229 6.671 L 21.608 6.651 21.583 6.775 C 21.570 6.844,21.497 7.029,21.422 7.188 C 21.061 7.951,20.338 8.775,19.630 9.232 C 19.504 9.313,19.402 9.389,19.403 9.400 C 19.405 9.422,20.857 10.601,20.947 10.653 C 20.986 10.676,21.074 10.634,21.223 10.521 C 22.597 9.484,23.544 8.029,23.887 6.426 C 23.957 6.102,23.975 5.882,23.976 5.340 C 23.978 4.543,23.930 4.303,23.655 3.728 C 23.238 2.859,22.456 2.335,21.520 2.299 C 21.311 2.290,21.050 2.302,20.940 2.324 M10.096 5.999 C 10.876 6.199,11.407 6.718,11.580 7.449 C 11.807 8.415,11.390 9.344,10.551 9.740 C 10.023 9.990,9.874 10.000,6.855 10.000 L 4.160 10.000 4.160 7.960 L 4.160 5.920 6.974 5.920 C 9.645 5.920,9.803 5.924,10.096 5.999 M9.910 13.680 C 11.209 13.817,12.011 14.658,12.012 15.881 C 12.012 16.807,11.653 17.432,10.912 17.798 C 10.337 18.081,10.375 18.079,7.090 18.079 L 4.160 18.080 4.160 15.860 L 4.160 13.640 6.850 13.641 C 8.330 13.641,9.707 13.659,9.910 13.680 " stroke="none" fill="black" fill-rule="evenodd"></path></svg>