<svg role="img" viewBox="0 0 24 24" xmlns="http://www.w3.org/2000/svg"><path d="M13.566 2.640 C 12.456 3.337,11.277 4.188,10.371 4.946 L 10.121 5.155 9.819 5.016 C 7.903 4.131,5.699 4.169,3.798 5.121 C 1.714 6.165,0.301 8.213,0.043 10.568 C -0.149 12.309,0.379 14.136,1.480 15.542 L 1.669 15.784 1.440 16.322 C 1.043 17.254,0.764 18.149,0.616 18.969 C 0.523 19.481,0.524 20.336,0.616 20.677 C 0.871 21.614,1.520 22.057,2.442 21.922 C 3.844 21.717,5.463 20.538,6.729 18.800 C 6.849 18.636,6.851 18.627,6.757 18.700 C 5.767 19.466,5.276 19.792,4.700 20.064 C 4.030 20.382,3.404 20.482,2.995 20.338 C 2.769 20.259,2.549 20.042,2.433 19.784 C 2.352 19.604,2.341 19.518,2.341 19.060 C 2.342 18.710,2.366 18.429,2.415 18.200 C 2.504 17.780,2.792 16.880,2.837 16.880 C 2.855 16.880,2.993 16.964,3.145 17.066 C 3.503 17.308,4.282 17.682,4.750 17.836 C 7.074 18.603,9.743 18.040,11.527 16.406 L 11.753 16.198 11.883 16.424 L 12.012 16.651 12.356 16.626 C 13.737 16.526,17.015 16.387,20.520 16.281 C 22.027 16.235,23.431 16.187,23.640 16.173 C 23.997 16.150,24.013 16.145,23.897 16.097 C 23.723 16.024,23.291 15.973,22.060 15.880 C 18.201 15.588,15.949 15.184,13.674 14.373 L 13.167 14.193 13.259 13.987 C 13.397 13.673,13.586 13.058,13.686 12.595 C 13.763 12.239,13.776 12.055,13.778 11.300 C 13.780 10.540,13.768 10.359,13.690 9.978 C 13.463 8.859,12.958 7.780,12.256 6.917 C 11.975 6.572,11.368 5.988,11.030 5.739 C 10.882 5.630,10.760 5.529,10.760 5.516 C 10.760 5.462,12.588 3.699,13.281 3.085 C 14.110 2.350,14.186 2.280,14.159 2.280 C 14.148 2.280,13.882 2.442,13.566 2.640 M7.580 5.241 C 8.177 5.308,9.400 5.654,9.400 5.757 C 9.400 5.773,9.324 5.848,9.230 5.923 C 8.931 6.163,7.248 7.839,6.701 8.442 C 5.539 9.723,4.456 11.113,3.538 12.500 C 3.072 13.205,2.413 14.304,2.161 14.799 L 2.074 14.968 1.896 14.714 C 1.484 14.130,1.131 13.298,0.950 12.490 C 0.876 12.159,0.863 11.976,0.863 11.280 C 0.863 10.583,0.876 10.399,0.952 10.052 C 1.240 8.729,1.981 7.475,2.954 6.666 C 3.952 5.836,4.996 5.392,6.340 5.227 C 6.596 5.195,7.237 5.203,7.580 5.241 M10.484 6.367 C 10.878 6.641,11.559 7.334,11.874 7.780 C 12.925 9.268,13.248 11.211,12.740 12.980 C 12.649 13.294,12.425 13.840,12.386 13.840 C 12.367 13.840,12.115 13.718,11.826 13.570 C 11.204 13.250,10.394 12.722,9.921 12.328 C 9.734 12.172,9.577 12.050,9.571 12.055 C 9.566 12.061,9.965 12.820,10.458 13.743 L 11.355 15.420 11.048 15.711 C 10.210 16.502,9.103 17.055,7.940 17.263 C 7.411 17.358,6.401 17.361,5.900 17.269 C 4.917 17.089,3.978 16.686,3.255 16.132 L 3.140 16.044 3.588 15.152 C 4.657 13.027,6.214 10.724,8.191 8.346 C 8.992 7.383,10.092 6.160,10.157 6.160 C 10.174 6.160,10.321 6.253,10.484 6.367 " stroke="none" fill="black" fill-rule="evenodd"></path></svg>