<svg role="img" xmlns="http://www.w3.org/2000/svg" viewBox="0 0 24 24"><path d="M0.624 5.583 C 0.382 5.671,0.218 5.818,0.104 6.047 L -0.000 6.256 -0.000 10.225 C -0.000 12.831,0.015 14.300,0.043 14.503 C 0.280 16.210,1.483 17.664,3.117 18.219 C 4.049 18.536,5.152 18.534,6.108 18.214 C 7.053 17.898,7.971 17.199,8.515 16.380 C 8.632 16.204,8.733 16.055,8.739 16.048 C 8.745 16.042,8.854 16.192,8.981 16.383 C 9.581 17.286,10.602 18.020,11.644 18.299 C 14.125 18.964,16.683 17.489,17.349 15.011 C 17.445 14.655,17.454 14.551,17.457 13.840 C 17.460 13.143,17.450 13.024,17.367 12.720 C 17.157 11.948,16.769 11.283,16.201 10.720 C 14.682 9.214,12.332 8.931,10.473 10.030 C 9.888 10.376,9.255 10.999,8.937 11.542 C 8.879 11.640,8.821 11.719,8.806 11.717 C 8.792 11.716,8.681 11.561,8.560 11.373 C 8.311 10.986,7.755 10.429,7.356 10.165 C 7.036 9.954,6.539 9.711,6.202 9.603 C 5.648 9.424,5.332 9.380,4.620 9.384 C 4.023 9.387,3.893 9.400,3.551 9.491 C 3.047 9.625,2.558 9.826,2.176 10.056 C 2.007 10.157,1.863 10.240,1.855 10.240 C 1.847 10.240,1.840 9.335,1.839 8.230 C 1.838 6.357,1.833 6.209,1.764 6.060 C 1.564 5.628,1.067 5.420,0.624 5.583 M17.142 9.300 C 16.907 9.384,16.792 9.486,16.670 9.719 C 16.549 9.951,16.522 10.279,16.605 10.518 C 16.630 10.589,17.205 11.369,17.883 12.251 L 19.115 13.855 19.003 13.997 C 18.592 14.522,16.727 16.960,16.672 17.046 C 16.634 17.105,16.582 17.235,16.557 17.335 C 16.376 18.053,17.262 18.687,17.947 18.331 C 18.064 18.271,18.350 17.929,19.165 16.876 C 19.751 16.119,20.244 15.503,20.260 15.506 C 20.276 15.510,20.769 16.131,21.355 16.885 C 22.158 17.920,22.459 18.280,22.580 18.348 C 23.048 18.611,23.652 18.447,23.882 17.995 C 23.990 17.785,23.987 17.410,23.877 17.193 C 23.831 17.103,23.281 16.347,22.654 15.513 C 22.028 14.678,21.506 13.970,21.494 13.940 C 21.482 13.907,21.954 13.256,22.646 12.352 C 23.291 11.509,23.851 10.755,23.891 10.676 C 23.987 10.483,24.019 10.177,23.963 9.972 C 23.797 9.355,22.875 9.146,22.434 9.625 C 22.376 9.688,21.883 10.289,21.340 10.960 C 20.796 11.631,20.328 12.204,20.300 12.234 C 20.258 12.278,20.063 12.042,19.205 10.907 C 18.631 10.148,18.106 9.487,18.038 9.439 C 17.891 9.334,17.596 9.239,17.424 9.242 C 17.356 9.243,17.229 9.269,17.142 9.300 M5.220 11.220 C 6.193 11.423,7.079 12.266,7.344 13.240 C 7.437 13.584,7.437 14.246,7.344 14.600 C 7.212 15.096,7.017 15.426,6.622 15.821 C 6.031 16.411,5.452 16.652,4.620 16.654 C 4.100 16.655,3.800 16.587,3.340 16.363 C 2.751 16.077,2.339 15.662,2.058 15.070 C 1.860 14.653,1.787 14.270,1.813 13.780 C 1.902 12.073,3.512 10.863,5.220 11.220 M13.492 11.224 C 13.650 11.259,13.924 11.356,14.100 11.441 C 15.839 12.275,16.220 14.469,14.861 15.820 C 14.500 16.178,14.221 16.359,13.806 16.503 C 12.455 16.973,10.951 16.364,10.339 15.099 C 10.009 14.416,9.988 13.569,10.285 12.860 C 10.795 11.644,12.184 10.935,13.492 11.224 " stroke="none" fill="black" fill-rule="evenodd"></path></svg>