<svg role="img" viewBox="0 0 24 24" xmlns="http://www.w3.org/2000/svg"><path d="M11.529 0.059 C 11.413 0.092,11.260 0.149,11.189 0.185 C 10.885 0.342,2.435 5.227,2.192 5.387 C 1.885 5.589,1.613 5.923,1.473 6.270 L 1.380 6.500 1.369 11.880 C 1.362 15.536,1.372 17.323,1.400 17.458 C 1.423 17.566,1.497 17.767,1.564 17.903 C 1.819 18.420,1.703 18.345,6.647 21.199 C 9.135 22.636,11.263 23.849,11.375 23.894 C 11.693 24.022,12.337 24.013,12.660 23.877 C 12.961 23.751,21.671 18.724,21.929 18.529 C 22.165 18.350,22.408 18.024,22.528 17.728 L 22.620 17.500 22.620 12.000 L 22.620 6.500 22.527 6.270 C 22.388 5.926,22.119 5.595,21.810 5.387 C 21.355 5.082,12.916 0.229,12.660 0.126 C 12.356 0.003,11.838 -0.028,11.529 0.059 M13.030 9.130 L 15.600 11.700 13.020 14.280 L 10.440 16.860 9.770 16.190 L 9.100 15.520 11.000 13.620 L 12.900 11.720 11.010 9.830 C 9.970 8.790,9.120 7.922,9.120 7.900 C 9.120 7.861,10.401 6.560,10.440 6.560 C 10.451 6.560,11.617 7.717,13.030 9.130 " stroke="none" fill="black" fill-rule="evenodd"></path></svg>