<svg role="img" xmlns="http://www.w3.org/2000/svg" viewBox="0 0 24 24"><path d="M7.046 0.044 C 6.972 0.066,6.549 0.306,6.106 0.577 C 3.815 1.978,3.943 1.887,3.780 2.216 L 3.680 2.416 3.680 5.418 C 3.680 8.327,3.683 8.424,3.759 8.548 C 3.932 8.832,4.362 8.918,4.637 8.722 C 4.912 8.526,4.898 8.682,4.920 5.565 L 4.940 2.750 6.040 2.070 C 6.645 1.697,7.163 1.382,7.190 1.371 C 7.230 1.355,7.240 2.324,7.240 6.136 L 7.240 10.920 5.670 10.920 C 4.174 10.920,4.094 10.924,3.970 11.000 C 3.898 11.044,3.804 11.138,3.760 11.210 C 3.683 11.336,3.680 11.416,3.680 13.840 C 3.680 16.106,3.688 16.389,3.758 16.860 C 4.166 19.602,5.852 21.913,8.340 23.141 C 12.424 25.156,17.392 23.482,19.439 19.400 C 20.041 18.201,20.320 17.017,20.320 15.667 C 20.320 14.330,20.052 13.163,19.479 12.007 C 18.254 9.536,15.959 7.848,13.239 7.420 C 12.980 7.379,12.443 7.346,11.834 7.332 C 10.875 7.310,10.843 7.312,10.665 7.397 C 10.430 7.511,10.320 7.687,10.320 7.949 C 10.320 8.190,10.437 8.387,10.641 8.490 C 10.758 8.549,10.895 8.560,11.506 8.560 C 13.021 8.560,13.964 8.748,15.038 9.263 C 15.584 9.525,15.905 9.722,16.354 10.071 C 17.699 11.116,18.623 12.615,18.963 14.305 C 19.086 14.919,19.115 16.055,19.022 16.662 C 18.467 20.297,15.337 22.905,11.720 22.747 C 8.773 22.618,6.221 20.712,5.286 17.940 C 4.947 16.936,4.948 16.946,4.931 14.410 L 4.915 12.160 6.078 12.160 L 7.240 12.160 7.240 14.011 C 7.240 15.047,7.258 16.011,7.282 16.201 C 7.415 17.290,7.883 18.249,8.657 19.022 C 9.269 19.632,9.990 20.045,10.840 20.269 C 11.291 20.389,12.238 20.437,12.703 20.365 C 14.453 20.094,15.942 18.846,16.500 17.185 C 17.429 14.417,15.668 11.476,12.785 10.981 C 12.499 10.932,12.043 10.920,10.455 10.920 L 8.480 10.920 8.480 5.967 C 8.480 0.500,8.493 0.781,8.228 0.432 C 7.977 0.101,7.437 -0.076,7.046 0.044 M12.939 12.272 C 13.765 12.532,14.423 13.002,14.878 13.660 C 15.825 15.030,15.698 16.826,14.568 18.042 C 13.887 18.776,13.010 19.159,12.013 19.160 C 11.006 19.160,10.241 18.841,9.520 18.120 C 9.093 17.693,8.861 17.326,8.677 16.789 C 8.501 16.271,8.480 15.980,8.480 13.995 L 8.480 12.155 10.570 12.170 C 12.587 12.184,12.670 12.187,12.939 12.272 M11.557 14.790 C 10.926 15.110,10.817 15.935,11.345 16.399 C 11.550 16.579,11.715 16.640,12.000 16.640 C 12.285 16.640,12.450 16.579,12.655 16.399 C 12.950 16.140,13.065 15.735,12.945 15.374 C 12.748 14.783,12.106 14.512,11.557 14.790 " stroke="none" fill="black" fill-rule="evenodd"></path></svg>