<svg role="img" viewBox="0 0 24 24" xmlns="http://www.w3.org/2000/svg"><path d="M0.291 3.911 C 0.243 3.919,0.157 3.979,0.101 4.046 L 0.000 4.166 0.000 8.142 L -0.000 12.119 0.110 12.237 C 0.242 12.380,8.015 16.240,8.169 16.240 C 8.224 16.240,9.902 15.430,11.899 14.440 C 13.896 13.450,15.537 12.640,15.545 12.640 C 15.553 12.640,15.560 14.259,15.560 16.237 L 15.560 19.834 15.664 19.957 C 15.869 20.201,15.710 20.269,19.984 18.116 C 23.269 16.460,23.892 16.134,23.941 16.038 C 23.992 15.940,24.000 15.375,23.999 11.992 C 23.999 8.944,23.988 8.038,23.949 7.960 C 23.879 7.818,16.170 3.923,15.956 3.921 C 15.845 3.920,14.944 4.351,12.016 5.805 C 9.928 6.842,8.200 7.691,8.176 7.692 C 8.152 7.693,6.433 6.851,4.356 5.821 C 2.279 4.792,0.535 3.938,0.480 3.923 C 0.425 3.909,0.340 3.903,0.291 3.911 M4.307 6.229 L 8.160 8.137 8.160 11.989 C 8.160 14.107,8.154 15.840,8.146 15.840 C 8.138 15.840,6.392 14.977,4.266 13.922 L 0.400 12.003 0.400 8.162 C 0.400 6.049,0.412 4.320,0.427 4.320 C 0.442 4.320,2.188 5.179,4.307 6.229 M19.806 6.228 C 21.892 7.278,23.586 8.149,23.570 8.163 C 23.553 8.178,21.834 9.045,19.750 10.089 L 15.960 11.988 15.960 8.154 C 15.960 6.045,15.972 4.320,15.986 4.320 C 16.001 4.320,17.720 5.179,19.806 6.228 " stroke="none" fill="black" fill-rule="evenodd"></path></svg>