<svg role="img" viewBox="0 0 24 24" xmlns="http://www.w3.org/2000/svg"><path d="M10.940 0.046 C 6.260 0.450,2.189 3.634,0.659 8.086 C -1.484 14.319,1.792 21.115,7.997 23.309 C 12.365 24.853,17.202 23.757,20.480 20.480 C 24.710 16.252,25.180 9.567,21.584 4.785 C 19.301 1.748,15.709 -0.028,11.920 0.006 C 11.601 0.009,11.160 0.027,10.940 0.046 M18.897 4.950 C 18.984 5.491,19.840 11.659,19.831 11.682 C 19.825 11.697,19.253 11.381,18.560 10.979 C 17.625 10.437,17.289 10.260,17.256 10.294 C 17.232 10.319,16.379 11.785,15.361 13.552 C 14.169 15.620,13.491 16.757,13.459 16.745 C 13.431 16.734,12.485 16.192,11.355 15.541 C 9.489 14.463,9.298 14.362,9.252 14.425 C 9.224 14.463,8.604 15.530,7.874 16.797 C 7.144 18.064,6.526 19.123,6.501 19.151 C 6.464 19.193,6.229 19.073,5.337 18.558 C 4.723 18.203,4.206 17.899,4.188 17.883 C 4.166 17.862,8.208 10.786,8.296 10.691 C 8.301 10.686,8.853 10.998,9.522 11.385 C 10.192 11.772,11.139 12.319,11.628 12.601 L 12.516 13.113 13.719 11.029 C 14.381 9.883,14.915 8.926,14.906 8.902 C 14.897 8.879,14.330 8.537,13.646 8.142 C 12.962 7.747,12.411 7.415,12.422 7.404 C 12.444 7.382,18.804 4.807,18.846 4.803 C 18.861 4.801,18.884 4.867,18.897 4.950 " stroke="none" fill="black" fill-rule="evenodd"></path></svg>