<svg role="img" viewBox="0 0 24 24" xmlns="http://www.w3.org/2000/svg"><path d="M10.940 0.046 C 6.260 0.450,2.189 3.634,0.659 8.086 C -1.484 14.319,1.792 21.115,7.997 23.309 C 12.365 24.853,17.202 23.757,20.480 20.480 C 24.710 16.252,25.180 9.567,21.584 4.785 C 19.301 1.748,15.709 -0.028,11.920 0.006 C 11.601 0.009,11.160 0.027,10.940 0.046 M7.581 7.822 C 8.072 8.054,8.330 8.445,8.354 8.993 C 8.370 9.368,8.315 9.564,8.116 9.839 C 7.978 10.030,7.600 10.287,7.324 10.379 C 6.942 10.506,6.894 10.339,7.215 10.002 C 7.567 9.633,7.620 9.499,7.619 8.980 C 7.619 8.614,7.605 8.513,7.536 8.380 C 7.085 7.510,5.743 8.372,4.917 10.060 C 4.515 10.884,4.350 11.513,4.348 12.240 C 4.345 13.140,4.669 13.825,5.248 14.140 C 5.651 14.360,6.289 14.317,6.857 14.032 C 7.203 13.859,7.596 13.591,7.765 13.413 C 7.894 13.277,7.913 13.230,7.933 12.994 C 8.026 11.930,9.052 11.069,10.026 11.238 C 10.346 11.294,10.476 11.356,10.615 11.522 C 10.702 11.625,10.720 11.686,10.719 11.873 C 10.717 12.213,10.562 12.360,10.208 12.360 C 9.848 12.360,9.723 12.222,9.961 12.088 C 10.103 12.008,10.150 11.871,10.081 11.741 C 10.017 11.622,9.877 11.560,9.671 11.560 C 9.148 11.560,8.685 12.153,8.647 12.869 C 8.621 13.367,8.749 13.650,9.023 13.701 C 9.267 13.747,9.570 13.422,9.699 12.977 C 9.803 12.618,10.171 12.358,10.399 12.480 C 10.486 12.526,10.489 12.543,10.459 12.794 C 10.441 12.940,10.425 13.168,10.423 13.300 C 10.420 13.531,10.424 13.540,10.527 13.552 C 10.648 13.566,10.849 13.472,11.140 13.263 L 11.340 13.120 11.489 12.334 C 11.589 11.804,11.661 11.523,11.709 11.469 C 11.855 11.304,12.243 11.219,12.352 11.328 C 12.414 11.390,12.411 11.596,12.344 11.910 L 12.290 12.159 12.626 11.841 C 13.171 11.325,13.766 11.088,13.996 11.296 C 14.121 11.409,14.107 11.704,13.958 12.142 C 13.891 12.339,13.783 12.712,13.716 12.971 C 13.610 13.386,13.603 13.454,13.650 13.551 C 13.763 13.783,14.195 13.634,14.646 13.209 L 14.920 12.950 14.920 12.633 C 14.920 12.204,14.991 11.771,15.089 11.594 C 15.245 11.314,15.576 11.149,15.752 11.264 C 15.862 11.337,15.862 11.337,15.697 11.940 C 15.610 12.258,15.587 12.430,15.585 12.780 C 15.582 13.243,15.653 13.640,15.739 13.640 C 15.810 13.640,16.310 13.105,16.484 12.843 L 16.628 12.627 16.503 12.517 C 16.201 12.252,16.079 11.698,16.218 11.221 C 16.337 10.813,16.724 10.523,17.086 10.572 C 17.617 10.643,17.772 11.240,17.459 12.009 L 17.366 12.240 17.484 12.240 C 17.692 12.240,17.880 12.129,18.225 11.802 C 18.688 11.364,19.047 11.185,19.505 11.166 C 19.909 11.149,20.188 11.230,20.379 11.422 C 20.676 11.719,20.557 12.214,20.163 12.319 C 19.936 12.379,19.644 12.287,19.641 12.154 C 19.640 12.140,19.703 12.091,19.780 12.045 C 19.956 11.941,19.971 11.782,19.817 11.637 C 19.730 11.555,19.673 11.540,19.463 11.541 C 19.257 11.541,19.182 11.561,19.046 11.651 C 18.453 12.044,18.231 13.159,18.660 13.588 C 18.812 13.740,18.890 13.750,19.065 13.643 C 19.234 13.541,19.389 13.330,19.501 13.051 C 19.626 12.742,19.805 12.534,19.995 12.477 C 20.357 12.368,20.408 12.596,20.175 13.271 C 19.982 13.830,20.014 14.074,20.326 14.431 C 20.457 14.583,20.463 14.611,20.377 14.682 C 20.325 14.726,20.280 14.717,20.102 14.630 C 19.737 14.451,19.552 14.242,19.425 13.867 C 19.403 13.802,19.382 13.809,19.233 13.937 C 18.952 14.178,18.667 14.218,18.338 14.065 C 17.866 13.845,17.628 13.306,17.757 12.750 C 17.776 12.668,17.788 12.600,17.783 12.600 C 17.779 12.600,17.701 12.636,17.611 12.679 C 17.521 12.723,17.347 12.770,17.224 12.785 L 17.001 12.811 16.723 13.160 C 16.096 13.945,15.506 14.331,15.220 14.144 C 15.129 14.084,15.066 13.925,14.982 13.548 L 14.957 13.436 14.729 13.641 C 14.603 13.753,14.334 13.928,14.131 14.029 C 13.825 14.181,13.722 14.213,13.529 14.216 C 13.241 14.220,13.103 14.139,12.998 13.907 C 12.859 13.602,12.916 13.091,13.168 12.372 C 13.239 12.169,13.283 11.990,13.266 11.973 C 13.205 11.912,12.869 12.141,12.607 12.420 C 12.274 12.777,12.134 13.031,12.017 13.493 C 11.918 13.882,11.838 14.021,11.656 14.127 C 11.450 14.247,11.336 14.256,11.241 14.161 C 11.169 14.089,11.160 14.048,11.183 13.892 L 11.211 13.709 11.035 13.817 C 10.735 14.003,10.393 14.156,10.220 14.182 C 9.986 14.217,9.779 14.123,9.694 13.943 L 9.626 13.802 9.457 13.958 C 9.102 14.286,8.662 14.276,8.278 13.931 C 8.171 13.835,8.073 13.720,8.059 13.676 C 8.036 13.605,7.990 13.637,7.685 13.931 C 7.130 14.466,6.506 14.788,5.835 14.885 C 4.763 15.040,3.800 14.362,3.496 13.237 C 3.399 12.877,3.396 11.976,3.491 11.534 C 3.717 10.480,4.207 9.536,4.915 8.792 C 5.457 8.222,5.949 7.899,6.520 7.741 C 6.849 7.650,7.288 7.683,7.581 7.822 M16.639 11.021 C 16.611 11.055,16.580 11.168,16.570 11.271 C 16.550 11.486,16.672 11.864,16.798 11.978 C 16.871 12.045,16.876 12.042,16.917 11.894 C 17.012 11.553,16.949 11.080,16.798 10.999 C 16.703 10.948,16.699 10.949,16.639 11.021 " stroke="none" fill="black" fill-rule="evenodd"></path></svg>