<svg role="img" viewBox="0 0 24 24" xmlns="http://www.w3.org/2000/svg"><path d="M11.552 0.059 C 11.315 0.124,11.737 -0.119,6.660 2.882 C 3.499 4.751,2.250 5.509,2.117 5.641 C 1.904 5.852,1.698 6.248,1.640 6.555 C 1.585 6.850,1.585 17.150,1.640 17.445 C 1.697 17.751,1.894 18.128,2.112 18.350 C 2.257 18.497,3.298 19.130,6.660 21.118 C 9.058 22.536,11.097 23.739,11.191 23.792 C 11.637 24.043,12.294 24.063,12.722 23.840 C 12.776 23.812,14.818 22.609,17.260 21.166 C 20.712 19.126,21.742 18.500,21.888 18.351 C 22.106 18.128,22.303 17.751,22.360 17.445 C 22.415 17.150,22.415 6.850,22.360 6.555 C 22.300 6.235,22.100 5.861,21.866 5.632 C 21.707 5.477,20.701 4.864,17.500 2.972 C 12.381 -0.052,12.692 0.127,12.434 0.058 C 12.174 -0.011,11.806 -0.011,11.552 0.059 M11.453 8.375 C 11.620 8.444,11.785 8.641,11.838 8.831 C 11.862 8.918,11.880 9.474,11.880 10.166 L 11.880 11.353 12.003 11.456 C 12.170 11.597,12.429 11.600,12.588 11.464 L 12.700 11.367 12.720 10.350 L 12.740 9.334 12.852 9.187 C 12.999 8.995,13.171 8.909,13.419 8.906 C 13.670 8.903,13.927 9.038,14.052 9.238 L 14.140 9.380 14.140 11.920 C 14.140 14.410,14.138 14.463,14.058 14.600 C 13.789 15.057,13.153 15.071,12.824 14.627 C 12.747 14.524,12.738 14.446,12.720 13.687 C 12.707 13.147,12.683 12.831,12.652 12.775 C 12.541 12.583,12.152 12.550,11.982 12.720 C 11.906 12.796,11.898 12.862,11.880 13.591 C 11.861 14.326,11.854 14.390,11.768 14.528 C 11.532 14.908,11.023 14.982,10.674 14.688 C 10.456 14.506,10.440 14.415,10.440 13.399 C 10.440 12.379,10.423 12.292,10.201 12.201 C 10.045 12.136,9.809 12.173,9.702 12.280 C 9.622 12.360,9.619 12.411,9.600 14.191 C 9.578 16.242,9.586 16.182,9.282 16.384 C 8.997 16.572,8.658 16.551,8.394 16.328 C 8.167 16.138,8.160 16.087,8.160 14.663 C 8.160 13.777,8.146 13.332,8.114 13.264 C 8.064 13.154,7.861 13.040,7.714 13.040 C 7.578 13.040,7.365 13.183,7.343 13.289 C 7.333 13.339,7.313 13.483,7.299 13.608 C 7.247 14.088,6.877 14.368,6.424 14.271 C 6.207 14.224,6.061 14.109,5.963 13.907 C 5.884 13.744,5.880 13.670,5.880 12.526 C 5.880 11.418,5.886 11.304,5.956 11.168 C 6.049 10.985,6.140 10.901,6.330 10.822 C 6.813 10.620,7.263 10.951,7.310 11.542 C 7.326 11.744,7.352 11.821,7.427 11.896 C 7.589 12.058,7.907 12.049,8.063 11.877 C 8.133 11.799,8.142 11.706,8.160 10.839 C 8.179 9.951,8.186 9.878,8.264 9.773 C 8.516 9.433,8.951 9.347,9.283 9.571 C 9.523 9.732,9.575 9.877,9.593 10.429 C 9.610 10.917,9.611 10.922,9.728 11.021 C 9.903 11.168,10.166 11.160,10.323 11.003 L 10.440 10.886 10.441 9.853 C 10.441 8.856,10.444 8.815,10.531 8.661 C 10.700 8.364,11.117 8.234,11.453 8.375 M16.020 10.795 C 16.216 10.885,16.311 10.988,16.382 11.187 C 16.461 11.408,16.461 14.072,16.382 14.293 C 16.311 14.492,16.216 14.595,16.020 14.685 C 15.637 14.861,15.186 14.687,15.043 14.307 C 14.974 14.126,14.985 11.312,15.055 11.149 C 15.212 10.783,15.646 10.624,16.020 10.795 M18.383 12.202 C 18.456 12.247,18.557 12.351,18.608 12.432 C 18.692 12.567,18.700 12.627,18.700 13.100 C 18.700 13.573,18.692 13.633,18.608 13.768 C 18.471 13.988,18.266 14.099,18.000 14.097 C 17.735 14.096,17.565 14.013,17.412 13.813 C 17.306 13.674,17.299 13.641,17.286 13.184 C 17.279 12.914,17.292 12.639,17.316 12.559 C 17.437 12.154,18.000 11.965,18.383 12.202 " stroke="none" fill="black" fill-rule="evenodd"></path></svg>