<svg role="img" viewBox="0 0 24 24" xmlns="http://www.w3.org/2000/svg"><path d="M3.226 4.763 C 1.801 4.863,0.785 5.425,0.322 6.370 C -0.001 7.030,0.020 6.628,0.020 12.040 L 0.020 16.860 0.114 17.160 C 0.274 17.674,0.462 17.986,0.838 18.364 C 1.218 18.745,1.546 18.951,2.033 19.112 C 2.311 19.204,2.415 19.215,3.140 19.230 L 3.940 19.245 5.400 18.060 C 6.203 17.408,6.911 16.826,6.974 16.767 C 7.156 16.596,7.308 16.353,7.406 16.077 C 7.492 15.833,7.498 15.752,7.512 14.510 L 7.527 13.200 6.023 13.200 L 4.520 13.200 4.520 14.742 C 4.520 16.175,4.515 16.294,4.444 16.432 C 4.351 16.615,4.260 16.699,4.070 16.778 C 3.795 16.893,3.517 16.846,3.305 16.647 C 3.069 16.426,3.080 16.660,3.080 11.975 L 3.080 7.667 3.182 7.493 C 3.415 7.096,4.005 7.040,4.327 7.385 C 4.387 7.448,4.454 7.551,4.477 7.613 C 4.505 7.685,4.520 8.274,4.520 9.263 L 4.520 10.800 6.023 10.800 L 7.526 10.800 7.510 9.030 C 7.493 7.039,7.481 6.943,7.173 6.348 C 6.973 5.959,6.448 5.435,6.060 5.234 C 5.317 4.850,4.330 4.686,3.226 4.763 M9.412 10.449 C 8.748 13.424,8.209 15.861,8.213 15.865 C 8.217 15.868,9.228 15.057,10.460 14.061 L 12.700 12.250 12.900 12.417 C 13.010 12.510,14.047 13.377,15.204 14.346 C 16.361 15.315,17.327 16.119,17.350 16.134 C 17.376 16.150,17.370 16.066,17.334 15.910 C 17.302 15.772,16.714 13.275,16.026 10.360 L 14.776 5.060 12.697 5.050 L 10.619 5.039 9.412 10.449 M16.560 6.420 L 16.560 7.800 17.580 7.800 L 18.600 7.800 18.600 12.493 L 18.600 17.187 19.827 18.213 L 21.054 19.240 21.487 19.240 L 21.920 19.240 21.920 13.520 L 21.920 7.800 22.960 7.800 L 24.000 7.800 24.000 6.420 L 24.000 5.040 20.280 5.040 L 16.560 5.040 16.560 6.420 M13.100 9.495 C 13.309 10.566,13.480 11.468,13.480 11.501 C 13.480 11.551,13.361 11.560,12.700 11.560 C 12.100 11.560,11.920 11.548,11.920 11.510 C 11.920 11.482,12.091 10.587,12.300 9.520 C 12.508 8.453,12.679 7.564,12.680 7.543 C 12.681 7.388,12.769 7.796,13.100 9.495 M8.976 16.204 C 6.932 17.856,5.254 19.224,5.247 19.244 C 5.239 19.265,8.215 19.280,12.582 19.280 C 19.176 19.280,19.925 19.274,19.879 19.219 C 19.851 19.185,19.142 18.583,18.304 17.882 C 17.466 17.180,15.866 15.840,14.749 14.903 C 13.631 13.966,12.712 13.200,12.704 13.200 C 12.697 13.200,11.020 14.552,8.976 16.204 " stroke="none" fill="black" fill-rule="evenodd"></path></svg>