<svg role="img" viewBox="0 0 24 24" xmlns="http://www.w3.org/2000/svg"><path d="M11.260 0.426 C 9.055 0.602,7.160 1.214,5.465 2.298 C 2.546 4.164,0.667 7.046,0.132 10.480 C 0.076 10.841,0.061 11.181,0.061 12.060 C 0.061 12.939,0.076 13.279,0.132 13.640 C 0.332 14.924,0.664 15.981,1.218 17.100 C 1.815 18.305,2.494 19.255,3.419 20.181 C 6.052 22.814,9.789 24.086,13.520 23.619 C 17.549 23.116,21.030 20.665,22.780 17.100 C 23.179 16.287,23.395 15.708,23.602 14.896 C 23.873 13.834,23.936 13.300,23.936 12.060 C 23.936 11.145,23.923 10.894,23.849 10.420 C 23.617 8.940,23.114 7.486,22.716 7.146 C 22.382 6.860,21.971 6.863,21.479 7.153 C 21.003 7.434,20.702 7.877,20.403 8.734 C 20.192 9.340,20.089 9.824,19.921 10.993 C 19.739 12.265,19.627 12.831,19.402 13.629 C 18.865 15.528,18.079 17.298,17.292 18.380 C 16.866 18.965,16.137 19.707,15.420 20.284 C 14.503 21.023,13.377 21.584,12.295 21.843 C 11.171 22.112,9.653 22.141,8.540 21.917 C 7.005 21.606,5.543 20.758,4.260 19.434 C 2.813 17.941,2.055 16.429,1.878 14.680 C 1.745 13.374,2.143 11.468,2.819 10.169 C 3.751 8.381,5.807 6.651,8.242 5.606 C 9.542 5.048,10.759 4.712,13.040 4.280 C 14.501 4.004,15.060 3.847,15.683 3.541 C 16.105 3.334,16.282 3.215,16.533 2.972 C 16.787 2.724,16.880 2.537,16.880 2.269 C 16.880 1.842,16.500 1.359,15.952 1.089 C 15.635 0.933,14.656 0.678,13.940 0.565 C 13.062 0.427,11.963 0.370,11.260 0.426 M17.500 2.470 C 17.500 2.816,17.487 2.886,17.388 3.089 C 17.223 3.425,16.881 3.715,16.342 3.978 C 15.550 4.364,14.663 4.606,12.381 5.061 C 11.566 5.223,10.621 5.436,10.280 5.534 C 8.472 6.053,7.025 6.748,5.716 7.727 L 5.292 8.044 5.225 8.372 C 5.188 8.552,5.140 8.790,5.117 8.900 C 5.051 9.231,5.024 10.541,5.075 10.982 C 5.298 12.913,6.094 14.590,7.451 15.986 C 9.610 18.207,12.765 19.206,15.822 18.637 C 16.066 18.591,16.282 18.542,16.304 18.527 C 16.382 18.473,16.782 17.890,17.050 17.440 C 18.147 15.601,18.941 13.231,19.261 10.840 C 19.439 9.512,19.588 8.832,19.845 8.174 C 20.181 7.311,20.711 6.727,21.491 6.358 C 21.628 6.293,21.771 6.240,21.810 6.240 C 21.917 6.240,21.898 6.179,21.656 5.745 C 20.939 4.463,19.988 3.456,18.789 2.710 C 18.481 2.519,17.606 2.080,17.533 2.080 C 17.515 2.080,17.500 2.255,17.500 2.470 " stroke="none" fill="black" fill-rule="evenodd"></path></svg>