<svg role="img" xmlns="http://www.w3.org/2000/svg" viewBox="0 0 24 24"><path d="M5.721 7.388 C 5.130 7.699,5.079 8.513,5.627 8.877 C 5.945 9.087,6.269 9.092,6.592 8.893 C 6.828 8.747,7.000 8.438,7.000 8.160 C 7.000 7.708,6.630 7.321,6.167 7.289 C 5.976 7.275,5.905 7.291,5.721 7.388 M2.005 9.379 C 0.763 9.662,-0.066 10.827,0.012 12.179 C 0.077 13.303,0.720 14.192,1.728 14.550 C 2.114 14.687,2.907 14.723,3.340 14.622 C 3.744 14.529,4.232 14.274,4.527 14.003 L 4.778 13.772 4.443 13.316 C 4.259 13.065,4.081 12.824,4.048 12.780 C 3.989 12.701,3.982 12.705,3.776 12.906 C 3.486 13.189,3.209 13.294,2.760 13.295 C 2.502 13.295,2.375 13.275,2.235 13.212 C 1.984 13.099,1.736 12.866,1.607 12.623 C 1.511 12.441,1.500 12.378,1.501 12.020 C 1.502 11.666,1.515 11.594,1.613 11.393 C 1.857 10.890,2.376 10.641,3.000 10.726 C 3.315 10.769,3.676 10.955,3.848 11.162 L 3.986 11.329 4.319 10.814 C 4.502 10.531,4.677 10.262,4.707 10.215 C 4.760 10.134,4.749 10.118,4.512 9.940 C 4.218 9.720,3.831 9.517,3.520 9.421 C 3.212 9.326,2.343 9.302,2.005 9.379 M5.410 12.010 L 5.420 14.580 6.130 14.591 L 6.840 14.602 6.840 12.021 L 6.840 9.440 6.120 9.440 L 5.399 9.440 5.410 12.010 M7.440 10.060 L 7.440 10.680 8.120 10.680 L 8.800 10.680 8.800 12.640 L 8.800 14.600 9.500 14.600 L 10.199 14.600 10.210 12.650 L 10.220 10.700 10.890 10.689 L 11.560 10.678 11.560 10.059 L 11.560 9.440 9.500 9.440 L 7.440 9.440 7.440 10.060 M12.170 12.010 L 12.180 14.580 12.889 14.591 L 13.598 14.602 13.609 13.704 L 13.620 12.806 14.142 13.693 L 14.663 14.580 15.496 14.591 C 16.230 14.600,16.326 14.594,16.306 14.540 C 16.293 14.507,15.985 14.047,15.622 13.518 C 15.079 12.728,14.974 12.553,15.031 12.533 C 15.467 12.383,15.739 12.151,15.902 11.790 C 15.992 11.591,16.019 11.466,16.032 11.178 C 16.078 10.181,15.625 9.641,14.612 9.484 C 14.454 9.460,13.837 9.440,13.242 9.440 L 12.159 9.440 12.170 12.010 M16.880 12.021 L 16.880 14.602 17.590 14.591 L 18.300 14.580 18.310 12.010 L 18.321 9.440 17.600 9.440 L 16.880 9.440 16.880 12.021 M18.807 9.471 C 18.814 9.489,19.175 10.027,19.610 10.669 C 20.044 11.310,20.400 11.846,20.400 11.858 C 20.400 11.871,20.007 12.470,19.527 13.190 C 19.048 13.911,18.642 14.523,18.625 14.550 C 18.602 14.589,18.769 14.600,19.412 14.600 L 20.229 14.600 20.761 13.777 L 21.293 12.955 21.782 13.707 C 22.051 14.121,22.296 14.492,22.326 14.531 C 22.375 14.597,22.451 14.602,23.188 14.591 L 23.995 14.580 23.083 13.220 L 22.170 11.860 22.984 10.660 L 23.799 9.460 22.992 9.449 C 22.378 9.441,22.174 9.450,22.139 9.489 C 22.114 9.517,21.917 9.815,21.702 10.150 C 21.486 10.486,21.305 10.760,21.299 10.760 C 21.293 10.760,21.094 10.463,20.857 10.100 L 20.427 9.440 19.610 9.440 C 19.161 9.440,18.799 9.454,18.807 9.471 M14.318 10.699 C 14.476 10.781,14.560 10.970,14.560 11.243 C 14.560 11.628,14.375 11.787,13.879 11.828 L 13.600 11.852 13.600 11.220 L 13.600 10.588 13.895 10.611 C 14.058 10.623,14.248 10.663,14.318 10.699 M17.259 15.035 C 16.576 15.345,16.542 16.266,17.201 16.612 C 17.988 17.026,18.804 16.137,18.337 15.373 C 18.119 15.015,17.636 14.864,17.259 15.035 " stroke="none" fill="black" fill-rule="evenodd"></path></svg>