<svg role="img" xmlns="http://www.w3.org/2000/svg" viewBox="0 0 24 24"><path d="M11.460 3.594 C 10.900 3.817,10.084 4.381,9.073 5.245 C 8.349 5.863,5.642 8.569,5.382 8.934 C 5.072 9.370,5.000 9.620,5.002 10.252 C 5.004 10.791,5.040 11.096,5.110 11.166 C 5.136 11.192,5.354 11.043,5.745 10.735 C 7.479 9.365,8.116 8.890,9.080 8.253 C 10.396 7.382,11.407 6.920,12.000 6.920 C 13.030 6.920,15.389 8.379,18.185 10.746 C 18.452 10.971,18.716 11.167,18.772 11.181 C 18.937 11.223,18.973 11.098,18.993 10.413 C 19.014 9.661,18.952 9.413,18.634 8.960 C 18.363 8.574,15.696 5.901,14.927 5.244 C 14.224 4.644,13.529 4.123,13.085 3.863 C 12.392 3.457,11.978 3.388,11.460 3.594 M12.591 4.059 C 13.439 4.461,14.789 5.582,16.562 7.357 C 17.823 8.618,18.319 9.169,18.466 9.469 C 18.562 9.665,18.581 9.759,18.594 10.109 C 18.604 10.380,18.595 10.520,18.567 10.520 C 18.544 10.520,18.513 10.501,18.499 10.479 C 18.452 10.402,17.160 9.363,16.467 8.844 C 15.291 7.964,14.350 7.364,13.513 6.961 C 12.292 6.373,11.698 6.376,10.460 6.975 C 9.605 7.389,8.632 8.014,7.400 8.941 C 6.815 9.381,5.542 10.411,5.501 10.479 C 5.432 10.591,5.400 10.487,5.400 10.147 C 5.400 9.501,5.494 9.342,6.251 8.709 C 7.605 7.577,9.241 6.513,10.676 5.831 C 10.997 5.678,11.386 5.493,11.540 5.419 C 11.945 5.225,11.974 5.163,11.994 4.446 L 12.009 3.871 12.151 3.894 C 12.229 3.907,12.427 3.981,12.591 4.059 M11.617 8.416 C 11.191 8.550,10.485 8.985,9.755 9.565 C 8.952 10.203,8.366 10.745,6.958 12.158 C 5.005 14.117,4.983 14.153,5.007 15.298 C 5.017 15.834,5.032 15.969,5.083 16.021 C 5.154 16.091,5.152 16.093,6.320 15.165 C 8.490 13.440,10.152 12.361,11.260 11.958 C 11.572 11.845,11.671 11.828,12.000 11.828 C 12.328 11.828,12.430 11.845,12.740 11.957 C 13.936 12.388,15.729 13.587,17.994 15.469 C 18.398 15.805,18.761 16.080,18.800 16.080 C 18.960 16.080,18.980 15.983,18.980 15.204 C 18.980 14.485,18.976 14.453,18.876 14.240 C 18.689 13.846,18.401 13.521,16.960 12.075 C 14.738 9.846,13.398 8.772,12.401 8.420 C 12.196 8.348,11.841 8.346,11.617 8.416 M12.552 8.921 C 13.429 9.326,15.100 10.725,16.868 12.534 C 18.464 14.167,18.571 14.320,18.594 14.990 C 18.601 15.216,18.593 15.400,18.576 15.400 C 18.558 15.400,18.489 15.348,18.422 15.284 C 18.167 15.041,16.570 13.788,15.968 13.360 C 14.670 12.436,13.560 11.799,12.780 11.532 C 12.502 11.437,12.399 11.423,12.000 11.424 C 11.605 11.425,11.495 11.441,11.220 11.535 C 9.958 11.967,7.925 13.305,5.793 15.107 C 5.602 15.268,5.434 15.400,5.419 15.400 C 5.404 15.400,5.398 15.197,5.406 14.950 C 5.419 14.562,5.435 14.475,5.521 14.322 C 5.687 14.024,6.720 13.161,7.859 12.369 C 8.926 11.626,9.841 11.111,11.500 10.319 C 11.950 10.104,11.974 10.055,11.994 9.326 L 12.009 8.753 12.155 8.779 C 12.235 8.793,12.414 8.857,12.552 8.921 M18.089 17.460 C 17.942 17.524,17.901 17.597,17.935 17.733 C 17.982 17.923,18.391 17.986,18.631 17.840 C 18.797 17.739,18.883 17.739,19.089 17.844 C 19.407 18.007,19.847 17.872,19.786 17.631 C 19.731 17.411,19.343 17.353,19.032 17.518 L 18.847 17.616 18.633 17.508 C 18.393 17.387,18.280 17.377,18.089 17.460 M0.852 18.314 C 0.294 18.507,-0.046 18.984,0.014 19.490 C 0.060 19.880,0.312 20.206,0.714 20.394 C 0.939 20.500,0.944 20.500,1.920 20.500 C 2.867 20.500,2.907 20.497,3.111 20.405 C 3.344 20.299,3.720 19.924,3.720 19.797 C 3.720 19.726,3.688 19.720,3.335 19.720 L 2.951 19.720 2.792 19.883 C 2.555 20.128,2.367 20.198,1.945 20.199 C 1.490 20.200,1.301 20.142,1.097 19.939 C 0.891 19.733,0.819 19.490,0.882 19.212 C 0.979 18.779,1.313 18.561,1.880 18.561 C 2.341 18.560,2.484 18.608,2.730 18.842 L 2.937 19.040 3.326 19.040 C 3.540 19.040,3.725 19.024,3.738 19.003 C 3.775 18.943,3.510 18.629,3.305 18.490 C 2.978 18.271,2.802 18.240,1.883 18.241 C 1.197 18.242,1.025 18.255,0.852 18.314 M14.094 18.280 C 13.704 18.361,13.311 18.665,13.170 18.994 C 13.136 19.075,13.108 19.250,13.109 19.385 C 13.111 19.826,13.406 20.220,13.877 20.409 C 14.085 20.493,14.160 20.499,15.000 20.499 C 15.840 20.499,15.915 20.493,16.123 20.409 C 17.149 19.996,17.151 18.759,16.126 18.353 C 15.922 18.272,15.822 18.263,15.080 18.255 C 14.629 18.250,14.185 18.261,14.094 18.280 M4.303 18.527 C 4.290 18.666,4.275 19.158,4.269 19.620 L 4.260 20.460 4.670 20.471 L 5.080 20.483 5.080 19.426 L 5.080 18.369 4.850 18.343 C 4.724 18.329,4.554 18.308,4.473 18.296 L 4.327 18.274 4.303 18.527 M5.626 18.310 C 5.616 18.327,5.595 18.425,5.579 18.530 L 5.551 18.720 5.985 18.720 C 6.345 18.720,6.442 18.734,6.547 18.798 C 6.760 18.927,6.778 18.998,6.800 19.760 L 6.820 20.460 7.229 20.471 L 7.638 20.483 7.649 19.611 L 7.660 18.740 8.290 18.729 L 8.920 18.718 8.920 18.562 C 8.920 18.257,9.054 18.280,7.258 18.280 C 6.371 18.280,5.636 18.293,5.626 18.310 M9.591 18.343 C 9.379 18.457,9.360 18.554,9.360 19.515 L 9.360 20.394 9.630 20.420 C 9.779 20.434,9.972 20.449,10.060 20.453 L 10.220 20.460 10.232 20.064 L 10.243 19.668 10.717 19.690 C 11.235 19.714,11.454 19.782,11.646 19.976 C 11.762 20.093,11.880 20.315,11.880 20.416 C 11.880 20.471,11.942 20.480,12.300 20.480 C 12.689 20.480,12.720 20.474,12.720 20.403 C 12.720 20.189,12.570 19.980,12.286 19.797 L 12.112 19.685 12.265 19.620 C 12.654 19.458,12.833 19.054,12.662 18.724 C 12.578 18.561,12.345 18.371,12.171 18.322 C 12.081 18.297,11.551 18.281,10.860 18.282 C 9.912 18.283,9.680 18.294,9.591 18.343 M17.347 18.307 C 17.332 18.321,17.320 18.753,17.320 19.266 L 17.320 20.199 17.437 20.329 L 17.553 20.460 18.917 20.472 L 20.280 20.483 20.281 20.372 C 20.281 20.310,20.292 20.220,20.305 20.170 L 20.329 20.080 19.269 20.080 C 18.076 20.080,18.160 20.105,18.160 19.757 L 18.160 19.560 19.040 19.560 L 19.920 19.560 19.920 19.360 L 19.920 19.160 19.040 19.160 L 18.160 19.160 18.160 18.983 C 18.160 18.659,18.083 18.680,19.264 18.680 L 20.320 18.680 20.320 18.528 C 20.320 18.444,20.298 18.354,20.272 18.328 C 20.236 18.292,19.854 18.280,18.799 18.280 C 18.015 18.280,17.361 18.292,17.347 18.307 M20.778 18.331 C 20.767 18.359,20.763 18.849,20.769 19.421 L 20.780 20.460 21.210 20.471 L 21.640 20.483 21.640 19.629 L 21.640 18.774 22.050 18.727 C 22.622 18.661,22.728 18.666,22.884 18.771 C 23.123 18.930,23.160 19.061,23.160 19.747 C 23.160 20.080,23.171 20.382,23.184 20.417 C 23.204 20.469,23.281 20.480,23.608 20.480 L 24.007 20.480 23.993 19.790 C 23.980 19.121,23.977 19.094,23.870 18.913 C 23.712 18.645,23.468 18.452,23.167 18.359 C 22.940 18.289,22.794 18.280,21.855 18.280 C 21.038 18.280,20.793 18.292,20.778 18.331 M15.613 18.675 C 15.863 18.798,16.008 19.013,16.031 19.298 C 16.041 19.415,16.028 19.575,16.003 19.652 C 15.942 19.834,15.652 20.102,15.454 20.157 C 15.251 20.213,14.749 20.212,14.557 20.154 C 14.100 20.018,13.836 19.487,14.015 19.069 C 14.094 18.884,14.321 18.684,14.525 18.618 C 14.804 18.528,15.375 18.558,15.613 18.675 M11.797 18.785 C 11.936 18.962,11.902 19.166,11.717 19.261 C 11.631 19.306,11.442 19.320,10.922 19.320 L 10.240 19.320 10.240 19.048 C 10.240 18.890,10.260 18.756,10.288 18.728 C 10.322 18.694,10.542 18.680,11.025 18.680 L 11.714 18.680 11.797 18.785 " stroke="none" fill="black" fill-rule="evenodd"></path></svg>