<svg role="img" viewBox="0 0 24 24" xmlns="http://www.w3.org/2000/svg"><path d="M11.781 0.043 C 6.430 0.552,2.088 4.606,1.180 9.940 C 0.805 12.146,1.035 14.385,1.850 16.460 C 3.262 20.058,6.381 22.784,10.100 23.673 C 11.080 23.907,11.667 23.973,12.780 23.976 C 13.380 23.977,13.940 23.957,14.180 23.926 C 15.197 23.794,16.254 23.526,17.126 23.180 C 17.611 22.986,18.561 22.527,18.559 22.485 C 18.559 22.471,17.969 21.860,17.249 21.126 L 15.940 19.791 15.470 19.954 C 13.428 20.662,11.185 20.518,9.239 19.556 C 7.208 18.551,5.693 16.800,4.985 14.640 C 4.683 13.718,4.561 12.947,4.561 11.960 C 4.561 10.974,4.683 10.201,4.985 9.281 C 5.662 7.216,7.117 5.483,9.020 4.475 C 11.042 3.404,13.448 3.233,15.588 4.008 L 15.938 4.134 17.227 2.817 C 18.393 1.627,18.510 1.495,18.448 1.445 C 18.346 1.362,17.554 0.988,17.097 0.807 C 16.283 0.483,15.309 0.231,14.355 0.099 C 13.804 0.023,12.331 -0.009,11.781 0.043 M19.638 3.519 C 19.232 3.938,18.020 5.171,16.945 6.260 L 14.991 8.239 15.741 9.020 C 16.154 9.449,16.503 9.800,16.517 9.800 C 16.541 9.800,17.310 9.029,20.698 5.612 L 21.975 4.323 21.218 3.552 C 20.801 3.127,20.441 2.775,20.418 2.769 C 20.395 2.762,20.044 3.100,19.638 3.519 M12.333 10.014 C 11.368 10.261,10.726 11.221,10.875 12.200 C 10.937 12.611,11.146 13.026,11.435 13.314 C 12.653 14.526,14.696 13.648,14.688 11.915 C 14.685 11.068,14.168 10.337,13.380 10.063 C 13.116 9.972,12.596 9.947,12.333 10.014 M15.785 14.847 C 15.375 15.270,15.040 15.632,15.040 15.651 C 15.040 15.691,20.397 21.120,20.436 21.120 C 20.450 21.120,20.806 20.773,21.229 20.350 L 21.997 19.580 19.300 16.840 C 17.816 15.334,16.586 14.095,16.566 14.089 C 16.546 14.082,16.195 14.423,15.785 14.847 " stroke="none" fill="black" fill-rule="evenodd"></path></svg>