<svg role="img" viewBox="0 0 24 24" xmlns="http://www.w3.org/2000/svg"><path d="M7.500 3.487 C 5.634 3.697,3.865 4.496,2.604 5.699 C 1.224 7.015,0.358 8.761,0.074 10.800 C -0.005 11.368,0.006 12.752,0.094 13.319 C 0.379 15.149,1.140 16.741,2.319 17.972 C 2.549 18.213,2.868 18.516,3.027 18.646 C 3.955 19.404,5.109 19.977,6.316 20.279 C 7.220 20.505,7.554 20.540,8.800 20.539 C 9.814 20.538,9.997 20.528,10.460 20.445 C 12.937 20.003,14.841 18.743,16.032 16.757 C 16.408 16.131,16.816 15.075,16.901 14.510 L 16.929 14.320 14.932 14.320 L 12.935 14.320 12.802 14.661 C 12.308 15.931,11.142 16.847,9.702 17.099 C 9.255 17.176,8.410 17.177,7.936 17.101 C 6.431 16.857,5.146 15.917,4.461 14.560 C 3.549 12.754,3.682 10.475,4.794 8.851 C 5.453 7.890,6.333 7.282,7.517 6.971 C 8.036 6.835,9.071 6.799,9.640 6.897 C 10.937 7.122,11.940 7.815,12.519 8.888 C 12.699 9.223,12.771 9.408,12.898 9.860 L 12.988 10.180 14.959 10.190 L 16.929 10.201 16.902 10.010 C 16.721 8.759,16.220 7.512,15.513 6.552 C 15.177 6.097,14.498 5.411,14.035 5.061 C 12.908 4.209,11.441 3.653,9.872 3.482 C 9.413 3.432,7.956 3.435,7.500 3.487 M19.330 4.433 C 18.687 4.712,18.160 4.954,18.160 4.972 C 18.160 4.990,18.826 6.576,19.640 8.496 C 20.454 10.415,21.120 12.013,21.120 12.046 C 21.120 12.080,20.454 13.678,19.639 15.599 C 18.824 17.520,18.163 19.097,18.170 19.103 C 18.194 19.127,20.532 20.122,20.539 20.111 C 20.544 20.105,21.324 18.293,22.273 16.084 L 24.000 12.068 22.290 7.995 C 21.349 5.755,20.562 3.923,20.540 3.925 C 20.518 3.927,19.973 4.155,19.330 4.433 " stroke="none" fill="black" fill-rule="evenodd"></path></svg>