<svg role="img" xmlns="http://www.w3.org/2000/svg" viewBox="0 0 24 24"><path d="M10.979 0.523 C 6.976 0.881,3.415 3.194,1.470 6.700 C 0.618 8.235,0.100 10.075,0.015 11.863 L -0.012 12.425 0.999 13.013 C 1.555 13.336,2.027 13.600,2.048 13.600 C 2.069 13.600,2.161 13.548,2.253 13.485 C 2.754 13.141,3.719 12.775,4.433 12.658 C 4.946 12.574,6.091 12.596,6.560 12.699 C 7.603 12.929,8.470 13.371,9.260 14.076 C 9.458 14.253,9.629 14.398,9.640 14.399 C 9.651 14.399,9.746 14.215,9.851 13.990 C 10.117 13.420,10.353 13.025,10.719 12.539 L 11.032 12.123 10.877 11.982 C 10.030 11.217,8.711 10.532,7.484 10.221 C 6.718 10.027,6.356 9.985,5.400 9.983 C 4.438 9.980,4.049 10.023,3.281 10.219 C 3.073 10.272,2.897 10.311,2.891 10.304 C 2.871 10.284,3.075 9.601,3.226 9.180 C 4.169 6.564,6.330 4.476,9.000 3.598 C 10.059 3.250,10.880 3.120,12.020 3.120 C 13.627 3.120,15.044 3.466,16.400 4.188 C 17.233 4.632,17.855 5.092,18.573 5.796 C 19.447 6.651,20.065 7.531,20.546 8.607 C 20.741 9.043,21.037 9.899,21.092 10.186 L 21.116 10.311 20.928 10.254 C 20.236 10.045,18.960 9.894,18.260 9.939 C 15.970 10.085,14.155 10.875,12.657 12.376 C 11.956 13.079,11.521 13.680,11.089 14.543 C 10.299 16.121,10.038 17.913,10.341 19.680 C 10.547 20.878,11.038 21.998,11.855 23.133 L 12.138 23.526 12.232 23.413 C 12.676 22.874,13.348 21.638,13.457 21.162 L 13.519 20.889 13.362 20.554 C 12.827 19.413,12.729 17.957,13.100 16.659 C 13.234 16.189,13.652 15.342,13.949 14.940 C 14.727 13.885,15.791 13.135,17.009 12.784 C 18.556 12.338,20.396 12.599,21.733 13.454 L 21.963 13.601 22.985 13.010 L 24.008 12.420 23.983 11.840 C 23.937 10.740,23.723 9.611,23.358 8.540 C 21.937 4.371,18.280 1.316,13.880 0.623 C 13.017 0.487,11.838 0.446,10.979 0.523 " stroke="none" fill="black" fill-rule="evenodd"></path></svg>