<svg role="img" viewBox="0 0 24 24" xmlns="http://www.w3.org/2000/svg"><path d="M6.800 2.997 L 1.620 5.989 1.620 11.997 L 1.620 18.005 6.811 21.004 L 12.002 24.002 17.181 21.011 C 20.029 19.366,22.360 18.010,22.360 17.998 C 22.360 17.965,16.557 14.627,16.500 14.627 C 16.473 14.627,15.450 15.205,14.226 15.913 L 12.001 17.199 9.740 15.894 L 7.480 14.589 7.480 12.000 L 7.480 9.411 9.741 8.106 L 12.003 6.801 14.223 8.085 C 15.445 8.792,16.465 9.372,16.492 9.375 C 16.557 9.382,22.363 6.028,22.350 5.991 C 22.341 5.964,12.108 0.047,12.020 0.018 C 11.998 0.011,9.649 1.351,6.800 2.997 " stroke="none" fill="black" fill-rule="evenodd"></path></svg>