<svg role="img" viewBox="0 0 24 24" xmlns="http://www.w3.org/2000/svg"><path d="M8.200 6.080 L 8.200 6.280 7.480 6.280 L 6.760 6.280 6.760 6.600 L 6.760 6.920 3.380 6.920 L 0.000 6.920 0.000 7.450 C 0.001 7.962,0.005 7.987,0.118 8.184 C 0.895 9.539,4.213 11.084,7.200 11.481 C 7.387 11.506,7.873 11.542,8.280 11.560 C 9.069 11.595,9.301 11.646,9.624 11.850 C 10.169 12.196,10.514 12.937,10.532 13.797 L 10.540 14.175 9.250 15.197 L 7.961 16.220 7.960 17.170 L 7.960 18.120 14.120 18.120 L 20.280 18.120 20.280 17.245 L 20.280 16.369 18.968 15.262 L 17.657 14.155 17.670 13.887 C 17.725 12.805,18.018 11.740,18.481 10.934 C 19.292 9.525,20.789 8.595,22.780 8.261 C 23.136 8.202,23.795 8.121,23.930 8.120 C 23.995 8.120,24.000 8.040,24.000 7.000 L 24.000 5.880 16.100 5.880 L 8.200 5.880 8.200 6.080 M23.560 7.012 L 23.560 7.743 23.040 7.814 C 21.059 8.082,19.469 8.882,18.603 10.046 C 18.137 10.672,17.706 11.698,17.535 12.591 L 17.464 12.960 16.652 12.960 L 15.840 12.960 15.840 13.180 L 15.840 13.400 16.600 13.400 C 17.446 13.400,17.400 13.382,17.324 13.680 C 17.304 13.757,17.277 13.870,17.263 13.930 L 17.238 14.040 16.799 14.040 L 16.360 14.040 16.360 14.240 L 16.360 14.440 16.850 14.440 L 17.340 14.441 18.394 15.330 L 19.448 16.220 18.000 16.231 C 16.668 16.240,16.545 16.235,16.463 16.171 C 15.714 15.581,15.290 15.342,14.738 15.198 C 14.344 15.096,13.728 15.086,13.380 15.178 C 13.006 15.276,12.425 15.581,12.073 15.866 L 11.751 16.126 10.288 16.121 C 9.483 16.119,8.818 16.112,8.812 16.105 C 8.805 16.098,9.297 15.700,9.905 15.219 L 11.011 14.346 10.989 13.843 C 10.919 12.293,10.160 11.341,8.883 11.204 L 8.660 11.180 8.650 8.730 L 8.639 6.280 16.100 6.280 L 23.560 6.280 23.560 7.012 M8.200 8.880 L 8.200 11.080 7.990 11.080 C 7.695 11.080,6.863 10.979,6.340 10.880 C 3.932 10.422,1.400 9.215,0.616 8.150 C 0.448 7.922,0.440 7.898,0.440 7.636 L 0.440 7.360 3.600 7.360 L 6.760 7.360 6.760 8.442 L 6.760 9.524 6.970 9.512 L 7.180 9.500 7.191 8.090 L 7.201 6.680 7.701 6.680 L 8.200 6.680 8.200 8.880 M14.584 15.601 C 15.108 15.735,15.484 15.936,16.030 16.374 L 16.280 16.574 16.280 17.147 L 16.280 17.720 14.120 17.720 L 11.960 17.720 11.960 17.103 L 11.960 16.487 12.150 16.319 C 12.931 15.628,13.747 15.387,14.584 15.601 M10.246 16.560 L 11.520 16.560 11.520 17.140 L 11.520 17.720 9.940 17.720 L 8.360 17.720 8.360 17.114 L 8.360 16.508 8.666 16.534 C 8.834 16.548,9.545 16.560,10.246 16.560 M19.860 17.200 L 19.860 17.700 18.290 17.710 L 16.720 17.721 16.720 17.200 L 16.720 16.679 18.290 16.690 L 19.860 16.700 19.860 17.200 " stroke="none" fill="black" fill-rule="evenodd"></path></svg>