<svg role="img" viewBox="0 0 24 24" xmlns="http://www.w3.org/2000/svg"><path d="M10.940 0.046 C 6.260 0.450,2.189 3.634,0.659 8.086 C -1.484 14.319,1.792 21.115,7.997 23.309 C 12.365 24.853,17.203 23.757,20.480 20.480 C 25.179 15.781,25.166 8.193,20.451 3.492 C 17.960 1.008,14.464 -0.259,10.940 0.046 M13.205 1.619 C 14.397 1.758,15.490 2.082,16.580 2.617 C 18.307 3.466,19.708 4.704,20.771 6.320 C 21.089 6.805,21.608 7.840,21.820 8.417 C 22.010 8.933,22.252 9.893,22.346 10.500 C 22.438 11.102,22.450 12.817,22.366 13.380 C 22.084 15.271,21.432 16.837,20.302 18.340 C 19.910 18.862,19.086 19.716,18.584 20.120 C 17.359 21.108,15.696 21.905,14.205 22.218 C 12.382 22.601,10.463 22.497,8.720 21.922 C 7.108 21.390,5.828 20.595,4.598 19.363 C 3.551 18.313,2.836 17.237,2.298 15.896 C 1.942 15.009,1.698 14.034,1.598 13.091 C 1.526 12.419,1.568 10.908,1.675 10.310 C 1.986 8.567,2.621 7.084,3.631 5.737 C 5.396 3.385,8.051 1.889,11.000 1.587 C 11.399 1.546,12.750 1.566,13.205 1.619 M12.220 4.356 C 12.102 4.382,12.100 4.387,12.114 4.599 C 12.121 4.719,12.171 4.966,12.224 5.149 C 12.712 6.833,14.716 8.811,16.600 9.470 C 17.136 9.657,17.155 9.657,17.485 9.492 C 18.026 9.222,18.468 8.654,18.600 8.060 C 18.644 7.864,18.642 7.854,18.445 7.460 C 17.802 6.172,16.295 5.106,14.377 4.580 C 13.561 4.356,12.649 4.262,12.220 4.356 M9.840 4.428 C 8.748 4.543,7.712 5.120,6.678 6.188 C 5.670 7.227,4.935 8.468,4.782 9.387 L 4.754 9.553 4.987 9.604 C 5.340 9.681,6.070 9.662,6.546 9.564 C 7.667 9.332,9.006 8.677,9.971 7.887 C 10.672 7.313,11.320 6.518,11.320 6.232 C 11.320 5.795,11.105 5.278,10.776 4.923 C 10.531 4.658,10.165 4.397,10.053 4.406 C 10.013 4.410,9.917 4.419,9.840 4.428 M18.940 9.892 C 18.528 10.114,18.312 10.280,17.940 10.658 C 17.197 11.414,16.581 12.465,16.182 13.656 C 15.923 14.431,15.761 15.479,15.821 15.987 C 15.847 16.206,15.864 16.235,16.095 16.463 C 16.509 16.871,17.148 17.111,17.709 17.068 C 17.931 17.051,17.980 17.031,18.167 16.875 C 18.832 16.318,19.400 15.231,19.636 14.060 C 19.819 13.152,19.846 11.886,19.699 11.040 C 19.629 10.639,19.435 10.001,19.337 9.850 C 19.261 9.733,19.226 9.737,18.940 9.892 M5.300 10.804 C 5.020 10.861,4.571 11.085,4.354 11.276 C 4.183 11.427,4.166 11.459,4.100 11.774 C 3.999 12.256,4.033 13.104,4.176 13.672 C 4.294 14.142,4.569 14.839,4.810 15.280 C 5.441 16.438,6.391 17.525,7.164 17.973 C 7.264 18.032,7.368 18.080,7.393 18.080 C 7.530 18.080,7.866 17.222,7.965 16.620 C 8.041 16.160,8.030 15.076,7.945 14.540 C 7.788 13.556,7.574 12.864,7.179 12.060 C 6.852 11.397,6.486 10.897,6.284 10.839 C 6.069 10.777,5.527 10.758,5.300 10.804 M11.060 16.519 C 10.414 16.570,9.765 16.709,9.357 16.885 C 9.198 16.953,9.149 17.003,9.049 17.193 C 8.761 17.742,8.703 18.273,8.872 18.824 C 8.985 19.195,9.057 19.279,9.429 19.471 C 10.087 19.811,10.699 19.940,11.640 19.935 C 12.806 19.930,14.007 19.647,15.099 19.119 C 15.700 18.828,16.360 18.359,16.360 18.223 C 16.360 18.148,15.851 17.672,15.600 17.511 C 14.474 16.792,12.652 16.394,11.060 16.519 " stroke="none" fill="black" fill-rule="evenodd"></path></svg>