<svg role="img" viewBox="0 0 24 24" xmlns="http://www.w3.org/2000/svg"><path d="M5.420 0.026 C 4.615 0.123,3.919 0.333,3.244 0.681 C 1.599 1.532,0.439 3.100,0.095 4.940 C 0.024 5.321,0.020 5.664,0.020 12.000 C 0.020 18.336,0.024 18.679,0.095 19.060 C 0.556 21.527,2.473 23.444,4.940 23.905 C 5.321 23.976,5.665 23.980,12.040 23.980 L 18.740 23.980 19.160 23.888 C 21.014 23.480,22.482 22.376,23.316 20.761 C 23.587 20.237,23.753 19.772,23.888 19.160 L 23.980 18.740 23.980 12.040 C 23.980 5.665,23.976 5.321,23.905 4.940 C 23.475 2.637,21.777 0.797,19.532 0.199 C 18.785 0.000,18.829 0.001,11.960 0.007 C 8.429 0.010,5.486 0.018,5.420 0.026 M11.940 2.460 C 13.474 2.721,14.931 3.560,15.939 4.760 L 16.090 4.940 16.067 4.600 C 16.054 4.413,16.006 4.130,15.961 3.971 C 15.917 3.811,15.880 3.672,15.880 3.662 C 15.880 3.617,16.618 3.904,17.100 4.136 C 18.049 4.593,18.767 5.094,19.514 5.818 C 21.057 7.316,22.007 9.269,22.241 11.430 C 22.312 12.077,22.272 13.284,22.160 13.920 C 21.467 17.852,18.381 20.844,14.418 21.425 C 13.769 21.520,12.553 21.521,11.906 21.426 C 10.652 21.242,9.372 20.783,8.364 20.157 L 8.028 19.949 8.364 19.854 C 8.699 19.759,9.336 19.468,9.514 19.328 C 9.607 19.254,9.603 19.253,9.014 19.207 C 7.734 19.106,6.657 18.724,5.640 18.009 C 5.099 17.629,4.369 16.884,4.004 16.340 L 3.709 15.900 3.904 15.849 C 4.386 15.722,4.793 15.406,4.990 15.004 C 5.088 14.805,5.100 14.736,5.100 14.380 C 5.100 14.030,5.087 13.952,4.993 13.751 C 4.860 13.468,4.584 13.167,4.327 13.028 C 3.399 12.523,2.243 13.154,2.123 14.231 L 2.093 14.500 1.968 14.233 C 1.423 13.076,1.527 11.678,2.238 10.595 C 2.563 10.099,3.110 9.606,3.651 9.320 C 3.862 9.208,3.879 9.167,3.754 9.056 C 3.707 9.014,3.588 8.872,3.490 8.740 L 3.311 8.500 3.726 8.476 C 3.954 8.462,4.284 8.412,4.460 8.364 C 4.892 8.246,5.525 7.930,5.832 7.679 C 6.123 7.442,6.123 7.447,5.746 7.191 C 5.005 6.687,4.006 6.440,3.184 6.556 C 3.010 6.581,2.861 6.594,2.853 6.586 C 2.825 6.558,3.556 5.812,3.828 5.591 C 5.518 4.217,7.771 3.749,9.831 4.344 C 10.012 4.397,10.171 4.440,10.183 4.440 C 10.235 4.440,9.925 4.059,9.683 3.825 C 9.355 3.509,8.891 3.203,8.517 3.056 C 8.171 2.920,8.182 2.906,8.793 2.708 C 9.824 2.373,10.923 2.286,11.940 2.460 M13.540 7.144 C 11.839 7.395,10.422 8.273,9.514 9.640 C 8.012 11.900,8.364 14.963,10.340 16.833 C 11.656 18.079,13.497 18.615,15.300 18.278 C 16.479 18.057,17.749 17.312,18.504 16.396 C 19.178 15.580,19.587 14.693,19.766 13.660 C 19.871 13.058,19.852 12.106,19.725 11.560 C 19.480 10.505,19.011 9.630,18.282 8.868 C 17.461 8.011,16.502 7.477,15.320 7.220 C 15.029 7.157,13.809 7.105,13.540 7.144 " stroke="none" fill="black" fill-rule="evenodd"></path></svg>