<svg role="img" xmlns="http://www.w3.org/2000/svg" viewBox="0 0 24 24"><path d="M1.980 0.059 C 1.441 0.178,1.025 0.412,0.669 0.798 C 0.401 1.087,0.274 1.300,0.132 1.704 L 0.020 2.020 0.020 11.980 L 0.020 21.940 0.130 22.263 C 0.392 23.038,0.942 23.599,1.702 23.867 L 2.020 23.980 11.980 23.980 L 21.940 23.980 22.240 23.886 C 22.627 23.766,22.908 23.604,23.200 23.334 C 23.508 23.049,23.707 22.742,23.858 22.322 L 23.980 21.980 23.980 12.020 L 23.980 2.060 23.886 1.760 C 23.644 0.982,23.069 0.391,22.300 0.129 L 21.980 0.020 12.100 0.013 C 4.018 0.007,2.176 0.016,1.980 0.059 M13.720 7.858 C 14.425 7.964,15.048 8.208,15.620 8.603 C 15.960 8.838,16.312 9.186,16.258 9.234 C 16.237 9.252,15.882 9.542,15.469 9.877 L 14.718 10.487 14.470 10.257 C 14.159 9.969,13.871 9.784,13.528 9.651 C 13.138 9.500,12.410 9.476,11.902 9.597 C 10.837 9.851,10.074 10.550,9.715 11.600 C 9.601 11.937,9.586 12.030,9.585 12.420 C 9.584 12.760,9.603 12.924,9.670 13.142 C 9.942 14.023,10.655 14.514,11.768 14.586 C 12.619 14.642,13.469 14.357,14.181 13.778 L 14.397 13.602 14.943 14.243 C 15.582 14.994,15.584 14.886,14.924 15.327 C 13.902 16.011,12.936 16.341,11.820 16.388 C 10.891 16.427,9.996 16.232,9.294 15.837 C 9.076 15.714,8.863 15.543,8.600 15.280 C 8.090 14.770,7.872 14.387,7.673 13.650 C 7.605 13.397,7.589 13.222,7.588 12.700 C 7.587 12.134,7.599 12.014,7.692 11.668 C 8.180 9.839,9.687 8.425,11.640 7.962 C 12.337 7.797,13.074 7.760,13.720 7.858 " stroke="none" fill="black" fill-rule="evenodd"></path></svg>