<svg role="img" viewBox="0 0 24 24" xmlns="http://www.w3.org/2000/svg"><path d="M13.360 1.280 C 11.356 1.367,9.627 1.600,8.160 1.984 C 4.256 3.004,1.710 4.971,0.582 7.839 C -0.018 9.363,0.429 10.543,1.746 10.915 C 1.897 10.957,2.326 11.087,2.700 11.204 C 3.371 11.413,3.387 11.416,3.901 11.418 C 4.410 11.420,4.427 11.417,4.688 11.289 C 4.985 11.143,5.274 10.857,5.447 10.537 C 5.506 10.429,5.637 10.097,5.738 9.800 C 6.237 8.338,7.071 7.154,8.332 6.117 C 10.466 4.361,13.490 3.382,17.480 3.156 C 18.889 3.076,21.303 3.158,22.280 3.320 C 22.955 3.432,23.208 3.453,23.466 3.421 C 23.661 3.397,23.721 3.368,23.849 3.241 C 24.028 3.061,24.042 2.936,23.900 2.768 C 23.757 2.597,23.513 2.496,22.766 2.297 C 19.866 1.523,16.409 1.149,13.360 1.280 M17.078 5.162 C 14.352 5.304,11.879 6.028,10.233 7.167 C 9.258 7.842,8.488 8.735,8.081 9.662 C 7.839 10.213,7.705 10.751,7.702 11.180 C 7.700 11.504,7.711 11.561,7.815 11.748 C 7.931 11.956,8.116 12.116,8.337 12.200 C 8.531 12.272,10.525 12.528,10.694 12.502 C 11.030 12.450,11.305 12.225,11.495 11.849 C 11.548 11.745,11.673 11.458,11.774 11.212 C 12.886 8.491,14.828 7.007,17.960 6.484 C 18.952 6.318,19.552 6.272,21.054 6.246 L 22.527 6.220 22.624 6.108 C 22.688 6.033,22.720 5.946,22.720 5.848 C 22.720 5.679,22.600 5.457,22.493 5.426 C 22.412 5.402,21.457 5.304,20.680 5.241 C 20.115 5.194,18.265 5.118,17.900 5.127 C 17.768 5.130,17.398 5.146,17.078 5.162 M18.423 8.686 C 16.191 8.883,14.484 9.921,13.738 11.536 C 13.567 11.907,13.440 12.365,13.440 12.613 C 13.440 12.780,13.459 12.827,13.572 12.940 C 13.741 13.109,13.923 13.162,14.427 13.189 C 14.792 13.208,14.853 13.201,15.018 13.121 C 15.256 13.006,15.349 12.876,15.577 12.340 C 16.276 10.695,17.361 9.728,18.805 9.463 C 18.989 9.429,19.350 9.392,19.607 9.381 C 19.864 9.369,20.118 9.344,20.171 9.324 C 20.291 9.278,20.480 9.058,20.480 8.964 C 20.480 8.855,20.318 8.729,20.120 8.683 C 19.909 8.635,18.989 8.636,18.423 8.686 M0.851 13.295 C 0.207 13.459,-0.040 13.962,0.015 14.996 C 0.178 18.055,1.669 20.529,4.080 21.739 C 5.339 22.371,7.023 22.723,8.820 22.730 C 9.611 22.733,10.236 22.652,10.373 22.529 C 10.689 22.243,10.585 21.872,10.175 21.823 C 9.565 21.750,9.189 21.623,8.624 21.297 C 8.153 21.026,7.753 20.718,7.306 20.283 C 6.632 19.628,6.198 19.042,5.809 18.260 C 5.371 17.381,5.199 16.706,5.125 15.569 C 5.091 15.060,5.074 14.971,4.964 14.737 C 4.815 14.418,4.506 14.104,4.192 13.951 C 3.940 13.828,2.761 13.487,2.157 13.361 C 1.633 13.253,1.118 13.227,0.851 13.295 M8.094 14.404 C 7.934 14.450,7.737 14.673,7.682 14.869 C 7.617 15.105,7.632 15.530,7.723 15.973 C 7.874 16.715,8.159 17.338,8.645 17.986 C 9.520 19.155,10.499 19.840,11.791 20.191 C 12.162 20.291,12.227 20.296,13.200 20.298 C 14.342 20.300,14.473 20.279,14.603 20.066 C 14.788 19.763,14.661 19.585,14.132 19.405 C 12.666 18.907,11.635 17.560,11.280 15.678 C 11.099 14.718,11.011 14.663,9.406 14.483 C 8.207 14.348,8.272 14.352,8.094 14.404 M14.140 14.988 C 13.694 15.003,13.623 15.019,13.521 15.128 C 13.421 15.235,13.414 15.482,13.501 15.822 C 13.683 16.536,14.225 17.175,14.940 17.518 C 15.332 17.706,15.608 17.774,16.000 17.777 C 16.337 17.780,16.526 17.719,16.599 17.582 C 16.677 17.436,16.619 17.348,16.343 17.189 C 15.791 16.872,15.479 16.404,15.324 15.665 C 15.202 15.081,15.068 14.944,14.645 14.968 C 14.565 14.973,14.338 14.982,14.140 14.988 " stroke="none" fill="black" fill-rule="evenodd"></path></svg>