<svg role="img" viewBox="0 0 24 24" xmlns="http://www.w3.org/2000/svg"><path d="M1.520 0.110 C 1.520 0.261,3.406 21.537,3.421 21.553 C 3.428 21.560,5.356 22.114,7.706 22.783 L 11.980 24.000 16.249 22.793 C 18.597 22.129,20.535 21.575,20.555 21.563 C 20.586 21.544,22.480 0.432,22.480 0.110 L 22.480 0.000 12.000 0.000 L 1.520 0.000 1.520 0.110 M18.572 4.430 C 18.608 4.495,17.375 17.726,17.330 17.754 C 17.305 17.770,16.097 18.121,14.647 18.535 L 12.010 19.288 9.296 18.443 C 7.803 17.978,6.570 17.585,6.556 17.569 C 6.541 17.553,6.473 16.766,6.404 15.820 C 6.335 14.874,6.268 14.014,6.255 13.910 L 6.232 13.720 7.535 13.720 L 8.838 13.720 8.857 13.810 C 8.868 13.860,8.914 14.331,8.959 14.858 C 9.004 15.384,9.048 15.822,9.057 15.830 C 9.065 15.838,9.731 16.026,10.537 16.248 L 12.002 16.650 13.419 16.259 C 14.198 16.044,14.853 15.857,14.874 15.844 C 14.894 15.831,14.986 15.100,15.076 14.220 C 15.167 13.340,15.251 12.553,15.264 12.470 L 15.287 12.320 12.184 12.320 L 9.080 12.320 9.080 12.238 C 9.080 12.138,8.890 10.074,8.864 9.890 L 8.845 9.760 12.162 9.760 L 15.478 9.760 15.497 9.670 C 15.507 9.620,15.562 9.058,15.618 8.420 C 15.675 7.782,15.729 7.211,15.740 7.150 L 15.758 7.040 10.689 7.030 L 5.620 7.020 5.534 5.940 C 5.486 5.346,5.439 4.756,5.428 4.630 L 5.408 4.400 11.981 4.400 C 15.597 4.400,18.563 4.413,18.572 4.430 " stroke="none" fill="black" fill-rule="evenodd"></path></svg>