<svg role="img" viewBox="0 0 24 24" xmlns="http://www.w3.org/2000/svg"><path d="M14.578 2.016 C 13.881 2.185,13.354 2.761,13.234 3.486 C 13.197 3.705,13.201 3.803,13.255 4.040 C 13.290 4.199,13.314 4.340,13.307 4.354 C 13.299 4.368,11.433 7.570,9.160 11.469 L 5.026 18.558 4.831 18.623 C 4.385 18.771,3.989 19.107,3.784 19.512 C 3.458 20.156,3.602 20.993,4.128 21.508 C 4.838 22.203,5.910 22.205,6.611 21.512 C 7.076 21.054,7.239 20.422,7.060 19.780 C 7.044 19.723,8.214 17.689,11.211 12.563 L 15.384 5.426 15.564 5.363 C 16.370 5.082,16.864 4.277,16.727 3.467 C 16.553 2.439,15.570 1.775,14.578 2.016 M21.820 2.016 C 21.202 2.170,20.684 2.671,20.523 3.270 C 20.462 3.495,20.461 3.916,20.521 4.151 L 20.569 4.340 16.423 11.448 C 12.377 18.382,12.273 18.556,12.128 18.603 C 11.264 18.883,10.730 19.700,10.874 20.524 C 11.045 21.503,11.950 22.166,12.899 22.009 C 13.276 21.946,13.577 21.788,13.863 21.503 C 14.292 21.074,14.470 20.516,14.350 19.980 L 14.287 19.700 18.458 12.566 L 22.628 5.431 22.825 5.362 C 23.264 5.207,23.620 4.885,23.827 4.455 C 24.452 3.156,23.227 1.667,21.820 2.016 M15.276 2.823 C 15.571 2.910,15.814 3.158,15.902 3.461 C 15.986 3.751,15.955 3.965,15.788 4.241 C 15.296 5.053,14.037 4.695,14.028 3.741 C 14.024 3.316,14.291 2.943,14.689 2.819 C 14.917 2.747,15.026 2.748,15.276 2.823 M22.639 2.859 C 23.361 3.233,23.379 4.226,22.671 4.585 C 22.184 4.831,21.582 4.627,21.356 4.140 C 21.217 3.841,21.278 3.366,21.488 3.118 C 21.586 3.002,21.820 2.847,21.960 2.805 C 22.133 2.753,22.489 2.782,22.639 2.859 M1.340 6.936 C 0.658 7.106,0.153 7.656,0.032 8.359 C -0.098 9.117,0.307 9.870,1.030 10.212 C 1.285 10.333,1.325 10.340,1.760 10.340 C 2.200 10.340,2.232 10.334,2.492 10.207 C 2.845 10.035,3.155 9.725,3.327 9.372 C 3.454 9.112,3.460 9.080,3.460 8.638 C 3.460 8.184,3.457 8.170,3.310 7.872 C 3.148 7.545,2.844 7.225,2.556 7.078 C 2.191 6.892,1.734 6.839,1.340 6.936 M2.191 7.783 C 2.882 8.127,2.880 9.130,2.187 9.486 C 1.547 9.815,0.800 9.355,0.800 8.631 C 0.800 8.357,0.862 8.189,1.036 7.991 C 1.319 7.669,1.791 7.584,2.191 7.783 M1.230 13.155 C 0.446 13.415,-0.050 14.141,0.012 14.940 C 0.063 15.616,0.488 16.194,1.120 16.449 C 1.298 16.521,1.421 16.538,1.760 16.539 C 2.150 16.540,2.199 16.531,2.449 16.413 C 2.738 16.276,3.074 15.990,3.224 15.753 C 3.551 15.237,3.564 14.464,3.255 13.935 C 3.108 13.684,2.751 13.370,2.456 13.232 C 2.108 13.070,1.588 13.037,1.230 13.155 M2.015 13.897 C 3.080 14.217,2.853 15.778,1.742 15.774 C 1.206 15.773,0.800 15.361,0.800 14.820 C 0.800 14.553,0.880 14.346,1.052 14.167 C 1.326 13.881,1.656 13.788,2.015 13.897 M5.829 19.415 C 6.286 19.654,6.466 20.276,6.210 20.729 C 5.891 21.294,5.155 21.397,4.699 20.941 C 4.033 20.275,4.620 19.162,5.549 19.327 C 5.643 19.344,5.769 19.383,5.829 19.415 M13.069 19.415 C 13.680 19.731,13.756 20.609,13.209 21.027 C 12.573 21.512,11.664 21.064,11.666 20.266 C 11.667 19.665,12.200 19.220,12.789 19.327 C 12.883 19.344,13.009 19.383,13.069 19.415 " stroke="none" fill="black" fill-rule="evenodd"></path></svg>