<svg role="img" viewBox="0 0 24 24" xmlns="http://www.w3.org/2000/svg"><path d="M10.940 0.043 C 6.762 0.434,3.134 2.909,1.256 6.648 C 0.064 9.022,-0.294 11.850,0.265 14.494 C 1.241 19.120,4.883 22.759,9.515 23.737 C 12.907 24.454,16.443 23.671,19.202 21.595 C 22.334 19.238,24.117 15.529,23.987 11.640 C 23.910 9.332,23.251 7.269,21.979 5.360 C 21.533 4.690,21.200 4.280,20.601 3.665 C 18.673 1.682,16.287 0.475,13.555 0.100 C 13.004 0.024,11.491 -0.009,10.940 0.043 M8.380 6.438 C 9.187 6.505,9.789 6.688,10.460 7.071 C 10.830 7.282,11.320 7.630,11.320 7.682 C 11.320 7.708,10.220 9.228,10.138 9.315 C 10.130 9.323,10.010 9.258,9.871 9.170 C 9.238 8.770,8.884 8.646,8.277 8.612 C 7.337 8.560,6.695 8.891,6.312 9.625 C 6.017 10.189,5.890 10.812,5.853 11.880 C 5.780 13.987,6.328 15.072,7.574 15.282 C 7.883 15.335,8.471 15.312,8.740 15.237 C 8.978 15.171,9.420 14.972,9.773 14.772 C 9.945 14.675,10.101 14.601,10.120 14.608 C 10.162 14.622,11.320 16.272,11.320 16.316 C 11.320 16.374,10.695 16.798,10.353 16.972 C 9.593 17.360,8.826 17.529,7.840 17.525 C 6.367 17.520,5.215 17.091,4.340 16.224 C 4.040 15.927,3.702 15.475,3.535 15.148 C 2.510 13.142,2.632 10.243,3.816 8.465 C 4.621 7.256,5.823 6.562,7.320 6.442 C 7.872 6.398,7.898 6.398,8.380 6.438 M15.445 10.560 C 15.947 12.639,16.416 14.581,16.487 14.876 C 16.578 15.255,16.624 15.390,16.646 15.336 C 16.677 15.261,18.840 6.826,18.840 6.783 C 18.840 6.770,19.497 6.760,20.300 6.760 C 21.103 6.760,21.760 6.770,21.760 6.783 C 21.760 6.878,18.235 17.673,18.096 18.004 C 17.569 19.257,16.749 20.221,15.698 20.820 C 15.012 21.211,13.979 21.513,12.959 21.620 L 12.697 21.647 12.547 20.637 C 12.436 19.895,12.408 19.619,12.442 19.599 C 12.468 19.583,12.590 19.558,12.714 19.544 C 13.363 19.468,14.229 19.173,14.598 18.902 C 14.810 18.746,15.120 18.417,15.120 18.347 C 15.120 18.312,11.589 6.964,11.530 6.810 C 11.515 6.769,11.819 6.761,13.022 6.770 L 14.533 6.780 15.445 10.560 " stroke="none" fill="black" fill-rule="evenodd"></path></svg>