<svg role="img" viewBox="0 0 24 24" xmlns="http://www.w3.org/2000/svg"><path d="M0.000 12.000 L 0.000 24.000 12.000 24.000 L 24.000 24.000 24.000 12.000 L 24.000 0.000 12.000 0.000 L 0.000 0.000 0.000 12.000 M20.680 12.100 L 20.680 20.800 18.900 20.800 L 17.120 20.800 17.120 20.096 L 17.120 19.392 16.891 19.601 C 16.207 20.227,15.408 20.619,14.478 20.785 C 13.972 20.875,12.876 20.877,12.380 20.788 C 11.490 20.628,10.579 20.241,9.905 19.734 C 8.586 18.742,7.715 17.361,7.392 15.750 C 7.261 15.094,7.261 13.858,7.391 13.211 C 7.636 11.998,8.214 10.890,9.070 9.995 C 10.236 8.775,11.593 8.132,13.170 8.054 C 14.671 7.980,15.954 8.448,16.778 9.372 L 17.000 9.620 17.000 6.890 C 17.000 5.388,17.005 4.159,17.010 4.159 C 17.015 4.158,17.821 3.989,18.800 3.783 C 19.779 3.577,20.602 3.407,20.630 3.404 C 20.670 3.401,20.680 5.164,20.680 12.100 M13.415 11.380 C 12.400 11.600,11.539 12.346,11.175 13.319 C 10.744 14.468,10.992 15.704,11.820 16.543 C 12.196 16.925,12.554 17.147,13.065 17.318 C 14.256 17.715,15.404 17.475,16.220 16.660 C 16.824 16.055,17.120 15.334,17.120 14.465 C 17.120 12.930,16.139 11.686,14.686 11.378 C 14.356 11.308,13.741 11.309,13.415 11.380 " stroke="none" fill="black" fill-rule="evenodd"></path></svg>