<svg role="img" viewBox="0 0 24 24" xmlns="http://www.w3.org/2000/svg"><path d="M10.971 0.102 C 10.359 0.169,9.699 0.286,9.180 0.421 C 8.717 0.540,8.142 0.803,8.077 0.926 C 7.988 1.092,8.143 1.255,8.498 1.369 C 8.565 1.391,9.259 1.423,10.040 1.440 C 11.540 1.473,12.053 1.521,12.869 1.703 C 13.848 1.922,14.349 2.183,14.513 2.560 C 14.594 2.748,14.588 3.173,14.501 3.442 C 14.107 4.660,12.715 6.216,10.250 8.193 C 8.979 9.213,8.635 9.629,8.868 9.862 C 9.032 10.027,9.713 9.819,10.660 9.316 C 12.907 8.122,15.114 6.229,16.156 4.603 C 16.914 3.419,17.107 2.321,16.692 1.550 C 16.284 0.792,15.136 0.256,13.552 0.082 C 13.028 0.025,11.574 0.036,10.971 0.102 M18.031 7.882 C 17.192 7.969,16.353 8.214,15.826 8.524 C 15.430 8.757,14.926 9.271,14.769 9.603 C 14.531 10.102,14.513 10.591,14.709 11.220 C 15.000 12.152,15.474 12.894,17.287 15.251 C 17.799 15.916,18.348 16.653,18.508 16.890 C 19.398 18.205,19.472 18.972,18.743 19.314 C 18.111 19.611,17.369 19.698,14.220 19.840 C 12.484 19.918,11.949 19.960,11.758 20.033 C 11.515 20.126,11.423 20.426,11.582 20.602 C 11.771 20.811,12.282 20.944,13.640 21.136 C 16.625 21.559,18.984 21.455,20.345 20.840 C 21.592 20.277,22.153 19.085,21.744 17.867 C 21.451 16.996,20.754 15.960,18.764 13.440 C 17.957 12.418,17.681 12.017,17.460 11.548 C 17.160 10.912,17.120 10.373,17.351 10.084 C 17.718 9.625,18.529 9.474,21.040 9.399 C 22.375 9.359,22.796 9.325,23.029 9.237 C 23.189 9.176,23.320 9.040,23.320 8.934 C 23.320 8.799,23.104 8.577,22.861 8.462 C 22.497 8.290,21.513 8.074,20.467 7.937 C 19.916 7.864,18.503 7.832,18.031 7.882 M7.500 10.983 C 6.635 11.068,6.386 11.099,5.898 11.182 C 4.677 11.390,3.713 11.696,3.429 11.966 C 3.253 12.133,3.252 12.232,3.424 12.389 C 3.652 12.596,3.808 12.613,5.600 12.622 C 6.513 12.626,7.467 12.651,7.720 12.676 C 9.645 12.869,10.593 13.290,10.819 14.049 C 11.012 14.698,10.772 15.601,10.158 16.540 C 9.400 17.698,7.991 19.054,6.540 20.021 C 5.398 20.782,4.365 21.184,4.061 20.984 C 3.715 20.757,4.206 19.429,5.699 16.560 C 6.448 15.121,6.602 14.765,6.631 14.411 C 6.656 14.103,6.613 14.040,6.382 14.040 C 6.005 14.040,5.678 14.384,4.868 15.631 C 3.558 17.647,2.669 19.186,1.800 20.940 C 1.073 22.406,0.825 22.970,0.712 23.413 C 0.579 23.936,0.660 24.026,1.227 23.984 C 2.443 23.895,5.091 22.806,7.221 21.519 C 9.882 19.912,11.801 17.994,12.801 15.940 C 13.258 15.003,13.448 14.371,13.445 13.800 C 13.441 12.874,12.916 12.171,11.860 11.675 C 10.934 11.242,9.784 11.013,8.381 10.983 C 7.985 10.974,7.588 10.975,7.500 10.983 " stroke="none" fill="black" fill-rule="evenodd"></path></svg>