<svg role="img" viewBox="0 0 24 24" xmlns="http://www.w3.org/2000/svg"><path d="M10.940 0.044 C 9.299 0.197,7.584 0.723,6.210 1.494 C 2.663 3.485,0.381 7.009,0.041 11.020 C 0.019 11.284,0.001 11.613,0.000 11.750 L 0.000 12.000 2.315 12.000 L 4.630 12.000 4.658 11.590 C 4.785 9.756,5.482 8.177,6.735 6.888 C 8.762 4.804,11.736 4.116,14.541 5.082 C 16.762 5.846,18.386 7.559,19.039 9.826 C 19.705 12.140,19.292 14.499,17.887 16.399 C 17.620 16.760,17.004 17.402,16.642 17.697 C 15.753 18.421,14.607 18.967,13.500 19.194 C 13.055 19.285,12.106 19.381,12.041 19.341 C 12.014 19.324,12.000 18.559,12.000 17.017 L 12.000 14.719 9.690 14.730 L 7.380 14.740 7.370 17.050 L 7.359 19.360 5.580 19.360 L 3.800 19.360 3.800 17.880 L 3.800 16.400 2.320 16.400 L 0.840 16.400 0.840 17.880 L 0.840 19.360 2.320 19.360 L 3.800 19.360 3.800 21.140 L 3.800 22.920 5.580 22.920 L 7.360 22.920 7.360 21.140 L 7.360 19.360 9.680 19.360 L 12.000 19.360 12.000 21.680 L 12.000 24.000 12.250 24.000 C 12.647 23.999,13.417 23.925,13.960 23.836 C 19.165 22.977,23.237 18.750,23.901 13.514 C 24.124 11.751,23.940 9.855,23.374 8.100 C 22.322 4.832,19.854 2.180,16.680 0.907 C 14.900 0.194,12.772 -0.126,10.940 0.044 " stroke="none" fill="black" fill-rule="evenodd"></path></svg>