<svg role="img" viewBox="0 0 24 24" xmlns="http://www.w3.org/2000/svg"><path d="M3.260 0.043 C 2.345 0.197,1.540 0.927,1.254 1.860 C 1.183 2.090,1.180 2.461,1.180 10.620 C 1.180 18.779,1.183 19.150,1.254 19.380 C 1.502 20.190,2.073 20.775,2.900 21.067 L 3.220 21.180 10.470 21.191 C 16.318 21.199,17.720 21.192,17.720 21.151 C 17.720 21.123,17.577 20.632,17.403 20.060 C 17.229 19.488,17.089 19.018,17.093 19.014 C 17.105 19.003,18.623 20.338,19.424 21.065 C 19.840 21.442,20.738 22.223,21.420 22.801 C 22.102 23.379,22.701 23.888,22.750 23.933 L 22.841 24.015 22.830 13.077 C 22.820 2.562,22.817 2.132,22.746 1.920 C 22.453 1.048,21.853 0.423,21.034 0.137 L 20.700 0.020 12.080 0.014 C 7.339 0.011,3.370 0.024,3.260 0.043 M10.112 5.728 C 10.192 5.808,10.169 5.830,9.950 5.882 C 9.040 6.097,7.719 6.725,7.140 7.218 C 7.027 7.314,7.026 7.318,7.120 7.284 C 7.175 7.264,7.363 7.182,7.537 7.101 C 8.220 6.787,9.498 6.406,10.140 6.324 C 10.713 6.251,12.112 6.188,12.531 6.216 C 13.853 6.306,15.208 6.633,16.300 7.126 C 16.896 7.396,16.858 7.381,16.822 7.323 C 16.766 7.233,16.072 6.798,15.630 6.576 C 15.148 6.333,14.534 6.081,14.177 5.978 C 13.868 5.890,13.863 5.885,13.944 5.796 C 14.075 5.651,14.798 5.726,15.550 5.963 C 16.016 6.110,16.793 6.485,17.180 6.751 C 17.435 6.925,17.477 6.974,17.649 7.301 C 18.578 9.069,19.279 11.780,19.280 13.605 L 19.280 13.989 18.970 14.286 C 18.077 15.139,17.025 15.590,15.689 15.693 L 15.438 15.713 15.167 15.386 C 14.804 14.950,14.627 14.719,14.645 14.705 C 14.653 14.699,14.804 14.643,14.980 14.582 C 15.362 14.449,15.610 14.327,15.960 14.102 C 16.238 13.923,16.697 13.517,16.764 13.392 C 16.800 13.326,16.784 13.329,16.648 13.415 C 16.348 13.605,15.376 14.072,15.024 14.196 C 14.522 14.373,13.771 14.557,13.280 14.622 C 12.471 14.730,11.006 14.688,10.240 14.535 C 9.521 14.391,8.389 13.978,7.503 13.537 C 7.351 13.462,7.220 13.406,7.212 13.414 C 7.204 13.422,7.357 13.580,7.552 13.764 C 7.952 14.143,8.370 14.407,8.929 14.632 L 9.310 14.785 8.925 15.271 L 8.540 15.757 8.297 15.759 C 7.791 15.761,6.982 15.572,6.418 15.319 C 5.871 15.074,5.245 14.598,4.945 14.199 L 4.766 13.961 4.785 13.570 C 4.885 11.422,5.454 9.206,6.376 7.368 C 6.595 6.932,6.596 6.930,6.908 6.732 C 7.371 6.436,7.698 6.265,8.100 6.107 C 8.904 5.790,9.973 5.589,10.112 5.728 M9.539 10.122 C 8.856 10.215,8.346 10.953,8.476 11.658 C 8.656 12.631,9.712 13.083,10.463 12.509 C 10.956 12.133,11.127 11.432,10.866 10.862 C 10.731 10.566,10.548 10.378,10.267 10.244 C 9.984 10.110,9.823 10.083,9.539 10.122 M14.072 10.122 C 13.830 10.162,13.508 10.338,13.351 10.516 C 13.122 10.777,13.022 11.058,13.022 11.440 C 13.022 11.722,13.039 11.818,13.125 12.000 C 13.340 12.460,13.731 12.727,14.226 12.753 C 14.471 12.766,14.546 12.753,14.756 12.659 C 15.160 12.477,15.444 12.105,15.512 11.666 C 15.655 10.757,14.931 9.980,14.072 10.122 " stroke="none" fill="black" fill-rule="evenodd"></path></svg>