<svg role="img" viewBox="0 0 24 24" xmlns="http://www.w3.org/2000/svg"><path d="M11.059 0.043 C 6.836 0.421,3.093 2.947,1.225 6.680 C 0.548 8.033,0.178 9.338,0.040 10.860 C 0.015 11.131,0.000 13.743,0.000 17.650 L 0.000 24.000 6.130 24.000 C 12.242 23.999,12.954 23.986,13.820 23.857 C 17.326 23.335,20.469 21.201,22.317 18.089 C 23.125 16.728,23.636 15.280,23.886 13.640 C 24.015 12.798,24.015 11.199,23.886 10.360 C 23.599 8.494,22.987 6.891,21.994 5.400 C 21.485 4.637,21.175 4.255,20.522 3.586 C 18.507 1.523,15.894 0.281,13.068 0.043 C 12.493 -0.005,11.601 -0.005,11.059 0.043 M12.966 4.602 C 15.677 4.875,18.046 6.642,19.063 9.150 C 19.436 10.071,19.577 10.817,19.576 11.880 C 19.576 12.692,19.532 13.056,19.352 13.740 C 18.837 15.703,17.414 17.450,15.574 18.377 C 14.494 18.921,13.472 19.160,12.220 19.161 C 11.155 19.162,10.311 18.996,9.320 18.591 C 9.186 18.536,9.073 18.558,6.820 19.066 C 5.522 19.359,4.448 19.594,4.434 19.589 C 4.420 19.584,4.706 18.630,5.070 17.470 L 5.732 15.359 5.531 14.930 C 4.152 11.992,4.925 8.431,7.392 6.356 C 8.986 5.015,10.946 4.398,12.966 4.602 " stroke="none" fill="black" fill-rule="evenodd"></path></svg>