<svg role="img" viewBox="0 0 24 24" xmlns="http://www.w3.org/2000/svg"><path d="M11.420 0.385 C 9.821 0.549,8.245 1.029,6.942 1.747 C 4.218 3.249,2.201 5.758,1.344 8.711 C 0.860 10.383,0.752 12.255,1.043 13.956 C 1.190 14.818,1.479 15.817,1.792 16.549 L 1.916 16.838 0.963 19.189 C 0.438 20.482,0.014 21.545,0.020 21.552 C 0.030 21.564,0.840 21.455,3.700 21.060 C 4.656 20.928,4.955 20.899,5.005 20.934 C 5.041 20.959,5.296 21.151,5.572 21.360 C 7.190 22.587,9.107 23.344,11.200 23.583 C 11.987 23.672,13.384 23.644,14.175 23.522 C 18.821 22.806,22.575 19.329,23.678 14.720 C 23.913 13.736,23.975 13.173,23.975 12.000 C 23.975 11.106,23.961 10.849,23.886 10.360 C 23.576 8.330,22.838 6.549,21.659 4.980 C 19.807 2.515,17.174 0.944,14.080 0.458 C 13.676 0.395,11.821 0.344,11.420 0.385 M12.980 6.202 C 16.108 6.434,18.161 8.113,18.666 10.851 C 18.760 11.361,18.760 12.519,18.667 13.040 C 18.339 14.860,17.303 16.268,15.699 17.072 C 15.042 17.402,14.392 17.602,13.520 17.744 C 13.164 17.802,12.704 17.815,10.490 17.829 L 7.880 17.847 7.880 12.003 L 7.880 6.160 10.150 6.160 C 11.398 6.160,12.672 6.179,12.980 6.202 M11.040 12.000 L 11.040 14.969 12.050 14.950 C 12.921 14.934,13.104 14.919,13.380 14.845 C 14.268 14.605,14.957 14.034,15.261 13.285 C 15.477 12.753,15.545 11.876,15.418 11.248 C 15.254 10.442,14.750 9.776,14.037 9.425 C 13.408 9.115,13.177 9.072,12.030 9.050 L 11.040 9.031 11.040 12.000 " stroke="none" fill="black" fill-rule="evenodd"></path></svg>