<svg role="img" viewBox="0 0 24 24" xmlns="http://www.w3.org/2000/svg"><path d="M9.520 6.620 L 9.520 9.920 7.877 9.920 C 6.873 9.920,6.239 9.935,6.247 9.957 C 6.269 10.020,11.967 16.520,12.000 16.520 C 12.033 16.520,17.731 10.020,17.753 9.957 C 17.761 9.935,17.127 9.920,16.123 9.920 L 14.480 9.920 14.480 6.620 L 14.480 3.320 12.000 3.320 L 9.520 3.320 9.520 6.620 M0.000 19.860 L 0.000 20.680 12.000 20.680 L 24.000 20.680 24.000 19.860 L 24.000 19.040 12.000 19.040 L 0.000 19.040 0.000 19.860 " stroke="none" fill="black" fill-rule="evenodd"></path></svg>