<svg role="img" viewBox="0 0 24 24" xmlns="http://www.w3.org/2000/svg"><path d="M10.940 0.044 C 5.795 0.526,1.538 4.195,0.340 9.180 C -0.642 13.268,0.552 17.512,3.520 20.480 C 6.775 23.736,11.548 24.836,15.919 23.339 C 19.730 22.034,22.665 18.829,23.638 14.911 C 24.457 11.613,23.860 8.827,21.891 6.757 C 20.680 5.485,18.956 4.626,17.271 4.456 L 17.003 4.429 16.989 8.565 C 16.977 12.357,16.970 12.725,16.905 13.000 C 16.657 14.047,16.245 14.799,15.522 15.522 C 14.530 16.515,13.407 16.979,12.000 16.979 C 10.925 16.979,10.088 16.726,9.180 16.126 C 8.815 15.885,8.107 15.177,7.868 14.815 C 7.003 13.502,6.778 11.949,7.239 10.478 C 7.806 8.666,9.461 7.294,11.390 7.036 C 12.099 6.941,13.102 7.061,13.754 7.317 C 13.869 7.363,13.971 7.400,13.981 7.400 C 13.992 7.400,14.000 5.773,14.000 3.785 L 14.000 0.169 13.690 0.125 C 12.816 0.001,11.743 -0.031,10.940 0.044 M11.534 10.057 C 10.657 10.269,10.000 11.102,10.000 12.000 C 10.000 13.080,10.920 14.000,12.000 14.000 C 13.080 14.000,14.000 13.080,14.000 12.000 C 14.000 11.477,13.790 10.982,13.404 10.597 C 12.902 10.097,12.202 9.895,11.534 10.057 " stroke="none" fill="black" fill-rule="evenodd"></path></svg>