<svg role="img" viewBox="0 0 24 24" xmlns="http://www.w3.org/2000/svg"><path d="M10.940 0.046 C 6.261 0.450,2.189 3.634,0.659 8.086 C -1.484 14.319,1.792 21.115,7.997 23.309 C 12.364 24.853,17.204 23.756,20.480 20.480 C 24.710 16.250,25.180 9.567,21.584 4.785 C 19.098 1.479,15.075 -0.312,10.940 0.046 M13.600 1.118 C 15.453 1.397,17.114 2.093,18.637 3.230 C 19.246 3.684,20.316 4.754,20.770 5.363 C 21.929 6.916,22.623 8.597,22.906 10.540 C 22.958 10.895,22.976 11.276,22.976 12.000 C 22.976 13.325,22.849 14.176,22.477 15.339 C 21.925 17.067,21.078 18.447,19.762 19.762 C 18.447 21.078,17.067 21.925,15.339 22.477 C 14.176 22.849,13.325 22.976,12.000 22.976 C 10.697 22.976,9.873 22.856,8.720 22.496 C 6.983 21.954,5.564 21.089,4.238 19.762 C 2.918 18.442,2.068 17.053,1.508 15.300 C 1.154 14.193,1.024 13.304,1.024 12.000 C 1.024 11.276,1.042 10.895,1.094 10.540 C 1.325 8.957,1.814 7.585,2.618 6.263 C 3.451 4.894,4.766 3.562,6.148 2.687 C 7.615 1.759,9.386 1.174,11.180 1.025 C 11.667 0.985,13.074 1.039,13.600 1.118 M10.840 1.845 C 8.570 2.104,6.410 3.150,4.780 4.780 C 3.127 6.432,2.099 8.574,1.841 10.900 C 1.788 11.373,1.789 12.622,1.842 13.112 C 2.091 15.404,3.153 17.606,4.798 19.240 C 5.313 19.752,5.748 20.106,6.380 20.527 C 6.856 20.843,7.923 21.395,8.375 21.558 L 8.609 21.642 8.587 21.551 C 8.543 21.377,7.122 14.613,6.820 13.140 C 6.231 10.275,6.155 9.726,6.239 8.967 C 6.354 7.931,6.635 7.289,7.243 6.675 C 7.547 6.367,7.635 6.304,8.043 6.106 C 8.559 5.855,8.879 5.745,9.388 5.644 C 9.739 5.574,9.740 5.574,9.600 5.528 C 9.153 5.381,7.890 5.261,7.230 5.302 C 6.762 5.331,6.760 5.330,6.855 5.109 C 6.943 4.901,7.076 4.815,7.496 4.695 L 7.892 4.581 7.656 4.473 C 7.526 4.413,7.308 4.323,7.170 4.272 C 7.032 4.222,6.920 4.169,6.920 4.155 C 6.920 4.109,7.282 4.037,7.733 3.995 C 9.190 3.859,10.909 4.427,11.838 5.351 C 12.073 5.586,12.121 5.615,12.396 5.687 C 12.778 5.787,13.234 5.997,13.490 6.190 C 13.893 6.495,14.388 7.195,14.783 8.020 C 15.235 8.963,15.467 9.803,15.506 10.640 C 15.520 10.944,15.512 11.233,15.485 11.377 C 15.460 11.507,15.446 11.619,15.452 11.626 C 15.480 11.654,17.389 11.140,17.955 10.953 C 18.560 10.752,18.575 10.749,18.935 10.772 C 19.830 10.829,20.188 11.139,19.796 11.519 C 19.496 11.810,18.248 12.355,16.626 12.904 C 15.453 13.300,15.206 13.334,14.362 13.217 C 14.112 13.182,13.847 13.165,13.773 13.179 C 13.596 13.212,13.377 13.408,13.318 13.587 C 13.096 14.260,13.895 14.718,15.295 14.719 C 15.952 14.720,16.417 14.656,17.517 14.415 C 18.691 14.157,18.960 14.173,18.960 14.501 C 18.960 15.013,17.274 15.692,16.000 15.694 C 15.157 15.695,13.743 15.359,12.547 14.872 C 12.331 14.784,12.142 14.724,12.127 14.739 C 12.112 14.754,12.100 15.067,12.100 15.433 C 12.100 16.373,12.261 17.151,12.694 18.307 C 12.866 18.767,12.869 18.780,12.786 18.792 C 12.578 18.822,12.206 18.930,12.047 19.006 L 11.874 19.090 11.447 18.888 C 10.632 18.504,9.997 18.280,9.721 18.280 C 9.457 18.280,9.440 18.324,9.440 19.005 C 9.440 20.107,9.552 21.234,9.695 21.575 C 9.759 21.727,9.764 21.730,9.930 21.711 C 10.163 21.684,10.534 21.531,11.376 21.115 C 12.071 20.771,12.099 20.762,12.303 20.785 C 12.735 20.836,13.532 20.650,13.660 20.468 C 13.737 20.358,13.739 19.735,13.664 19.347 L 13.611 19.074 13.818 18.921 C 14.542 18.386,15.406 17.890,15.645 17.870 C 15.833 17.855,15.935 18.027,16.026 18.511 C 16.131 19.063,16.133 20.514,16.030 20.847 C 15.949 21.107,15.890 21.143,15.610 21.101 C 15.367 21.064,14.728 20.872,14.190 20.675 C 13.950 20.586,13.745 20.522,13.735 20.532 C 13.725 20.542,13.875 20.858,14.069 21.235 C 14.480 22.036,14.332 21.982,15.260 21.675 C 16.703 21.200,18.082 20.346,19.198 19.240 C 20.723 17.726,21.694 15.847,22.085 13.650 C 22.191 13.055,22.233 11.623,22.163 10.953 C 21.995 9.326,21.422 7.724,20.523 6.374 C 20.098 5.737,19.747 5.306,19.220 4.780 C 17.568 3.127,15.426 2.099,13.100 1.841 C 12.674 1.793,11.267 1.796,10.840 1.845 M13.341 7.691 C 13.199 7.772,13.000 8.001,13.000 8.083 C 13.000 8.100,13.084 8.067,13.187 8.010 C 13.471 7.851,13.936 7.835,14.272 7.971 C 14.409 8.026,14.520 8.055,14.520 8.035 C 14.520 7.955,14.206 7.695,14.054 7.649 C 13.798 7.572,13.523 7.589,13.341 7.691 M8.414 7.881 C 8.162 7.932,7.857 8.103,7.738 8.260 C 7.627 8.404,7.566 8.694,7.617 8.827 C 7.639 8.885,7.659 8.867,7.716 8.739 C 7.806 8.539,8.109 8.258,8.350 8.152 C 8.546 8.065,8.875 8.040,9.140 8.091 C 9.292 8.120,9.296 8.119,9.220 8.057 C 9.025 7.898,8.691 7.825,8.414 7.881 M13.821 9.329 C 13.247 9.662,13.470 10.520,14.130 10.520 C 14.404 10.520,14.582 10.425,14.706 10.213 C 14.954 9.790,14.684 9.287,14.192 9.252 C 14.025 9.240,13.946 9.256,13.821 9.329 M8.780 9.647 C 8.507 9.797,8.349 10.052,8.349 10.340 C 8.349 11.118,9.389 11.367,9.768 10.679 C 9.888 10.462,9.854 10.090,9.695 9.891 C 9.629 9.808,9.513 9.709,9.437 9.670 C 9.282 9.591,8.905 9.577,8.780 9.647 " stroke="none" fill="black" fill-rule="evenodd"></path></svg>