<svg xmlns="http://www.w3.org/2000/svg" viewBox="0 0 24 24" role="img"><path d="M9.840 0.105 C 4.966 0.766,1.005 4.784,0.163 9.920 C -0.058 11.271,-0.058 12.756,0.162 14.052 C 0.747 17.485,2.600 20.383,5.380 22.210 C 5.948 22.583,6.957 23.088,7.600 23.321 C 8.714 23.724,10.018 23.962,11.080 23.956 L 11.540 23.953 11.102 23.858 C 9.455 23.499,7.711 22.656,6.360 21.567 C 5.845 21.152,5.016 20.315,4.588 19.780 C 3.204 18.046,2.325 16.007,1.997 13.769 C 1.879 12.968,1.851 11.532,1.937 10.720 C 2.268 7.593,3.677 4.805,5.951 2.776 C 7.373 1.507,9.125 0.595,10.968 0.161 L 11.460 0.046 10.860 0.047 C 10.530 0.048,10.071 0.074,9.840 0.105 M12.360 0.545 C 10.469 0.717,8.687 1.378,7.260 2.435 C 5.675 3.610,4.434 5.104,3.618 6.820 C 3.359 7.365,2.960 8.420,2.960 8.559 L 2.960 8.640 13.210 8.639 C 18.848 8.639,23.484 8.624,23.512 8.606 C 23.625 8.534,23.032 7.037,22.551 6.180 C 22.286 5.707,21.944 5.197,21.544 4.680 C 21.160 4.183,20.120 3.125,19.640 2.744 C 18.183 1.585,16.527 0.870,14.718 0.620 C 14.279 0.559,12.740 0.510,12.360 0.545 M4.010 9.990 C 3.256 9.996,2.640 10.005,2.640 10.011 C 2.639 10.016,2.613 10.218,2.580 10.460 C 2.548 10.702,2.521 10.983,2.521 11.084 L 2.520 11.268 2.790 11.294 C 2.939 11.308,7.771 11.320,13.530 11.320 L 24.000 11.320 24.000 11.210 C 23.999 11.067,23.884 10.075,23.861 10.010 C 23.846 9.970,21.967 9.962,14.611 9.969 C 9.534 9.975,4.764 9.984,4.010 9.990 M2.710 12.629 L 2.520 12.644 2.524 12.872 C 2.526 12.997,2.548 13.280,2.574 13.499 L 2.620 13.899 2.780 13.927 C 2.868 13.943,7.649 13.956,13.405 13.958 L 23.871 13.960 23.895 13.790 C 23.951 13.395,24.005 12.710,23.984 12.657 C 23.966 12.608,22.522 12.601,13.431 12.607 C 7.639 12.611,2.814 12.621,2.710 12.629 M3.170 15.349 C 3.054 15.358,2.960 15.383,2.960 15.406 C 2.960 15.557,3.308 16.510,3.573 17.084 C 3.906 17.807,4.449 18.670,5.010 19.368 C 5.427 19.886,6.395 20.865,6.840 21.218 C 8.430 22.478,10.166 23.203,12.070 23.402 C 12.353 23.432,12.899 23.442,13.550 23.430 C 14.441 23.413,14.653 23.396,15.123 23.306 C 17.201 22.908,18.862 22.034,20.415 20.521 C 21.878 19.096,22.803 17.651,23.425 15.822 C 23.499 15.603,23.560 15.401,23.560 15.372 C 23.560 15.329,21.740 15.321,13.470 15.327 C 7.920 15.331,3.286 15.341,3.170 15.349 " stroke="none" fill="black" fill-rule="evenodd"></path></svg>