<svg role="img" xmlns="http://www.w3.org/2000/svg" viewBox="0 0 24 24"><path d="M0.000 12.000 L 0.000 24.000 12.000 24.000 L 24.000 24.000 24.000 12.000 L 24.000 0.000 12.000 0.000 L 0.000 0.000 0.000 12.000 M13.760 4.517 C 14.487 4.702,15.239 5.164,15.723 5.723 C 16.074 6.128,16.143 6.239,16.254 6.580 C 16.454 7.194,16.494 7.457,16.493 8.140 C 16.492 8.699,16.479 8.829,16.389 9.167 C 16.122 10.171,15.589 11.019,14.672 11.903 C 13.669 12.868,12.167 13.806,10.580 14.456 L 10.140 14.636 10.148 14.854 C 10.166 15.402,10.611 15.833,11.310 15.981 C 11.667 16.057,12.504 16.056,13.023 15.979 C 14.642 15.738,16.530 14.840,18.393 13.425 C 19.075 12.907,19.185 12.841,19.374 12.841 C 19.629 12.840,19.782 12.947,20.292 13.487 C 20.804 14.028,20.875 14.134,20.878 14.357 C 20.881 14.608,20.737 14.814,20.167 15.367 C 17.578 17.882,14.232 19.345,11.340 19.226 C 10.378 19.187,9.684 19.014,8.960 18.632 C 7.508 17.866,6.544 16.561,6.288 15.015 L 6.221 14.609 5.880 14.583 C 4.897 14.507,3.479 14.233,2.867 14.000 C 2.610 13.903,2.387 13.729,2.298 13.556 C 2.144 13.258,2.279 12.672,2.621 12.159 C 3.081 11.466,3.400 11.424,4.140 11.959 C 4.356 12.115,4.724 12.231,5.163 12.280 C 5.498 12.318,5.621 12.315,6.105 12.257 L 6.270 12.237 6.298 11.988 C 6.389 11.174,6.629 10.119,6.908 9.303 C 7.820 6.634,9.495 4.884,11.545 4.460 C 11.980 4.370,13.316 4.405,13.760 4.517 M12.449 7.203 C 11.635 7.363,10.732 8.320,10.244 9.540 C 9.965 10.238,9.760 11.221,9.760 11.861 L 9.760 12.120 9.971 12.120 C 10.585 12.120,11.881 11.491,12.617 10.836 C 13.073 10.430,13.460 9.832,13.637 9.260 C 13.741 8.924,13.755 8.360,13.666 8.070 C 13.533 7.636,13.223 7.285,12.900 7.204 C 12.704 7.155,12.690 7.155,12.449 7.203 " stroke="none" fill="black" fill-rule="evenodd"></path></svg>