<svg role="img" xmlns="http://www.w3.org/2000/svg" viewBox="0 0 24 24"><path d="M11.723 0.042 C 11.669 0.064,9.695 1.410,7.335 3.031 C 3.682 5.542,3.031 6.004,2.952 6.140 L 2.860 6.300 2.860 13.000 L 2.860 19.700 2.960 19.878 C 3.015 19.976,3.138 20.111,3.233 20.178 L 3.407 20.300 6.758 20.311 L 10.108 20.321 10.323 20.209 C 10.497 20.118,10.558 20.057,10.649 19.884 C 10.712 19.762,10.760 19.607,10.760 19.522 C 10.760 19.439,10.674 19.155,10.565 18.877 C 10.311 18.229,10.143 17.697,10.067 17.300 C 9.982 16.851,9.948 16.061,10.003 15.796 C 10.134 15.168,10.626 14.597,11.268 14.327 C 11.588 14.192,12.028 14.136,12.330 14.192 C 13.215 14.356,13.918 15.132,14.021 16.060 C 14.082 16.616,13.882 17.618,13.522 18.563 C 13.360 18.988,12.160 21.363,12.042 21.491 C 12.026 21.509,11.979 21.446,11.937 21.351 C 11.848 21.151,11.591 20.858,11.434 20.777 C 11.308 20.712,11.013 20.702,10.865 20.758 C 10.730 20.809,10.449 21.067,10.377 21.205 C 10.346 21.266,10.320 21.410,10.320 21.526 C 10.320 21.717,10.363 21.816,10.822 22.678 C 11.160 23.311,11.374 23.668,11.477 23.767 C 11.787 24.065,12.259 24.072,12.579 23.783 C 12.675 23.697,12.992 23.145,13.636 21.940 L 14.556 20.220 17.575 20.200 L 20.593 20.180 20.767 20.058 C 20.862 19.991,20.985 19.856,21.040 19.758 L 21.140 19.580 21.151 13.083 C 21.162 5.955,21.173 6.305,20.929 6.041 C 20.810 5.912,12.482 0.137,12.320 0.070 C 12.174 0.011,11.835 -0.006,11.723 0.042 M15.734 4.398 L 19.440 6.936 19.440 12.788 L 19.440 18.640 17.340 18.640 C 16.185 18.640,15.240 18.630,15.240 18.617 C 15.240 18.605,15.284 18.420,15.338 18.207 C 15.606 17.146,15.710 15.990,15.588 15.419 C 15.300 14.071,14.240 12.957,12.900 12.596 C 12.459 12.477,11.551 12.467,11.141 12.577 C 10.474 12.755,9.945 13.058,9.459 13.540 C 8.898 14.096,8.567 14.700,8.417 15.440 C 8.330 15.875,8.359 16.868,8.476 17.449 C 8.546 17.791,8.692 18.361,8.749 18.508 C 8.765 18.550,8.373 18.560,6.664 18.560 L 4.560 18.560 4.560 12.750 L 4.560 6.940 8.250 4.390 C 10.280 2.988,11.960 1.846,11.984 1.851 C 12.008 1.856,13.696 3.002,15.734 4.398 " stroke="none" fill="black" fill-rule="evenodd"></path></svg>