<svg role="img" xmlns="http://www.w3.org/2000/svg" viewBox="0 0 24 24"><path d="M17.320 0.057 C 16.482 0.164,15.677 0.348,14.729 0.647 C 14.199 0.814,14.197 0.815,13.590 1.270 C 12.056 2.421,10.672 3.763,9.640 5.100 C 7.600 7.743,6.448 10.913,6.179 14.629 C 6.146 15.070,6.112 15.097,5.782 14.946 C 5.584 14.855,5.552 14.822,5.427 14.573 C 4.455 12.639,4.183 10.714,4.563 8.460 C 4.647 7.959,4.895 6.922,4.958 6.803 C 4.982 6.759,4.978 6.701,4.947 6.639 C 4.898 6.540,4.663 6.360,4.584 6.360 C 4.451 6.360,3.530 7.433,3.040 8.161 C 2.306 9.250,1.810 10.599,1.573 12.148 C 1.488 12.702,1.476 14.290,1.553 14.840 C 1.899 17.314,2.925 19.423,4.581 21.065 C 6.136 22.606,8.115 23.576,10.380 23.907 C 11.012 23.999,12.540 24.001,13.181 23.909 C 15.211 23.620,17.103 22.792,18.595 21.540 C 19.029 21.176,19.749 20.439,20.081 20.020 C 21.196 18.611,21.913 16.940,22.259 14.942 C 22.748 12.117,22.523 8.394,21.658 4.998 C 21.041 2.575,20.161 0.673,19.454 0.236 C 19.379 0.190,19.224 0.126,19.109 0.093 C 18.816 0.010,17.839 -0.009,17.320 0.057 " stroke="none" fill="black" fill-rule="evenodd"></path></svg>