<svg role="img" xmlns="http://www.w3.org/2000/svg" viewBox="0 0 24 24"><path d="M2.951 0.041 C 2.262 0.158,1.926 0.451,1.732 1.103 C 1.666 1.325,1.661 1.858,1.649 9.720 C 1.641 15.025,1.651 18.316,1.676 18.688 C 1.707 19.137,1.736 19.323,1.803 19.477 C 1.904 19.712,2.149 19.953,2.437 20.099 C 2.550 20.156,4.428 20.950,6.611 21.865 C 8.794 22.779,10.814 23.627,11.100 23.750 C 11.761 24.033,12.062 24.067,12.501 23.908 C 12.887 23.768,21.291 20.236,21.552 20.104 C 21.816 19.970,22.064 19.749,22.158 19.563 C 22.346 19.194,22.340 19.483,22.340 10.160 C 22.340 1.843,22.336 1.366,22.268 1.120 C 22.115 0.564,21.859 0.278,21.368 0.111 L 21.100 0.020 12.120 0.014 C 7.181 0.011,3.055 0.023,2.951 0.041 M18.363 3.232 C 18.637 3.341,18.887 3.549,19.024 3.783 C 19.217 4.113,19.239 4.288,19.240 5.530 L 19.240 6.680 18.562 6.680 L 17.884 6.680 17.872 5.637 L 17.860 4.593 17.729 4.477 C 17.606 4.366,17.580 4.360,17.240 4.360 C 16.900 4.360,16.874 4.366,16.751 4.477 L 16.620 4.593 16.610 7.747 C 16.600 10.818,16.602 10.903,16.678 11.028 C 16.777 11.189,17.001 11.256,17.361 11.230 C 17.900 11.192,17.920 11.137,17.920 9.699 L 17.920 8.600 18.602 8.600 L 19.285 8.600 19.272 9.950 C 19.260 11.234,19.255 11.312,19.170 11.539 C 19.011 11.960,18.695 12.251,18.245 12.390 C 17.919 12.491,16.561 12.491,16.235 12.390 C 15.785 12.251,15.469 11.961,15.310 11.539 L 15.220 11.300 15.209 7.925 C 15.202 5.753,15.212 4.471,15.239 4.329 C 15.325 3.863,15.574 3.498,15.931 3.313 C 16.249 3.149,16.451 3.123,17.320 3.134 C 18.057 3.143,18.162 3.153,18.363 3.232 M7.800 3.840 L 7.800 4.480 6.960 4.480 L 6.120 4.480 6.120 5.780 L 6.120 7.080 6.941 7.080 L 7.762 7.080 7.751 7.710 L 7.740 8.340 6.930 8.351 L 6.120 8.362 6.120 9.741 L 6.120 11.120 6.980 11.120 L 7.840 11.120 7.840 11.760 L 7.840 12.400 6.280 12.400 L 4.720 12.400 4.720 7.800 L 4.720 3.200 6.260 3.200 L 7.800 3.200 7.800 3.840 M11.539 3.317 C 11.857 3.444,12.155 3.742,12.284 4.061 L 12.380 4.300 12.380 6.120 L 12.380 7.940 12.284 8.179 C 12.154 8.500,11.857 8.797,11.539 8.921 C 11.330 9.003,11.215 9.017,10.610 9.031 L 9.920 9.048 9.920 10.724 L 9.920 12.400 9.220 12.400 L 8.520 12.400 8.520 7.798 L 8.520 3.195 9.910 3.208 C 11.267 3.221,11.306 3.223,11.539 3.317 M14.440 7.800 L 14.440 12.400 13.740 12.400 L 13.040 12.400 13.040 7.800 L 13.040 3.200 13.740 3.200 L 14.440 3.200 14.440 7.800 M9.920 6.124 L 9.920 7.807 10.359 7.794 C 10.735 7.782,10.810 7.768,10.879 7.699 C 11.018 7.560,11.047 7.228,11.033 5.964 C 11.016 4.427,11.022 4.440,10.298 4.440 L 9.920 4.440 9.920 6.124 M6.660 14.643 C 6.842 14.692,7.240 14.918,7.240 14.973 C 7.240 14.993,7.149 15.114,7.039 15.242 L 6.837 15.474 6.614 15.357 C 6.219 15.149,5.838 15.214,5.584 15.532 C 5.358 15.815,5.401 16.368,5.667 16.608 C 5.859 16.782,6.187 16.842,6.490 16.758 C 6.647 16.714,6.700 16.621,6.673 16.434 C 6.661 16.347,6.639 16.339,6.390 16.328 L 6.120 16.316 6.120 16.038 L 6.120 15.760 6.741 15.760 L 7.362 15.760 7.351 16.410 L 7.340 17.060 6.986 17.240 L 6.631 17.420 6.185 17.420 C 5.762 17.420,5.724 17.413,5.475 17.290 C 4.954 17.034,4.680 16.597,4.680 16.020 C 4.680 15.537,4.896 15.113,5.283 14.838 C 5.585 14.623,6.239 14.530,6.660 14.643 M9.787 15.240 C 9.930 15.581,10.190 16.196,10.364 16.608 C 10.538 17.019,10.680 17.366,10.680 17.379 C 10.680 17.392,10.505 17.398,10.292 17.391 L 9.903 17.380 9.805 17.130 L 9.707 16.880 9.160 16.880 L 8.613 16.880 8.515 17.130 L 8.417 17.380 8.028 17.391 C 7.815 17.398,7.640 17.395,7.640 17.386 C 7.640 17.377,7.818 16.949,8.035 16.435 C 8.252 15.921,8.515 15.297,8.619 15.049 L 8.809 14.597 9.168 14.609 L 9.527 14.620 9.787 15.240 M18.840 14.714 C 18.961 14.762,19.103 14.834,19.156 14.875 L 19.252 14.950 19.080 15.195 C 18.986 15.330,18.892 15.440,18.873 15.440 C 18.853 15.440,18.745 15.393,18.633 15.337 C 18.397 15.217,18.054 15.168,17.927 15.236 C 17.817 15.295,17.807 15.500,17.911 15.555 C 17.950 15.576,18.161 15.641,18.381 15.699 C 19.072 15.882,19.285 16.067,19.313 16.506 C 19.334 16.837,19.227 17.068,18.974 17.236 C 18.517 17.538,17.670 17.485,17.140 17.120 L 16.958 16.995 17.038 16.887 C 17.082 16.828,17.170 16.719,17.233 16.644 L 17.348 16.508 17.639 16.654 C 17.889 16.779,17.970 16.800,18.203 16.800 C 18.475 16.800,18.600 16.745,18.600 16.625 C 18.600 16.499,18.476 16.428,18.058 16.315 C 17.513 16.168,17.290 16.039,17.170 15.801 C 16.934 15.334,17.194 14.820,17.760 14.635 C 17.950 14.573,18.603 14.621,18.840 14.714 M12.082 15.110 C 12.243 15.368,12.394 15.610,12.419 15.648 C 12.458 15.705,12.514 15.636,12.801 15.178 L 13.138 14.640 13.529 14.640 L 13.920 14.640 13.920 16.040 L 13.920 17.440 13.561 17.440 L 13.202 17.440 13.191 16.611 L 13.180 15.783 12.826 16.331 C 12.632 16.633,12.467 16.880,12.461 16.880 C 12.454 16.880,12.289 16.633,12.094 16.330 L 11.740 15.780 11.729 16.612 L 11.718 17.443 11.369 17.432 L 11.020 17.420 11.009 16.030 L 10.999 14.640 11.395 14.640 L 11.791 14.640 12.082 15.110 M16.680 14.960 L 16.680 15.280 15.940 15.280 L 15.200 15.280 15.200 15.500 L 15.200 15.720 15.860 15.720 L 16.520 15.720 16.520 16.020 L 16.520 16.320 15.858 16.320 L 15.196 16.320 15.208 16.550 L 15.220 16.780 15.950 16.791 L 16.680 16.802 16.680 17.101 L 16.680 17.400 15.580 17.400 L 14.480 17.400 14.480 16.020 L 14.480 14.640 15.580 14.640 L 16.680 14.640 16.680 14.960 M9.107 15.640 C 9.075 15.717,9.002 15.893,8.947 16.030 L 8.846 16.280 9.162 16.280 L 9.479 16.280 9.395 16.070 C 9.350 15.955,9.279 15.779,9.239 15.680 L 9.167 15.500 9.107 15.640 M13.980 21.382 C 12.902 21.743,11.990 22.038,11.953 22.039 C 11.889 22.040,8.159 20.771,8.123 20.736 C 8.114 20.727,9.869 20.722,12.023 20.724 L 15.940 20.728 13.980 21.382 " stroke="none" fill="black" fill-rule="evenodd"></path></svg>