<svg role="img" viewBox="0 0 24 24" xmlns="http://www.w3.org/2000/svg"><path d="M8.397 6.070 C 6.386 9.409,4.740 12.165,4.740 12.196 C 4.740 12.246,11.968 16.557,12.054 16.559 C 12.095 16.560,19.276 12.329,19.354 12.258 C 19.399 12.217,18.768 11.144,15.740 6.114 C 13.722 2.762,12.067 0.016,12.062 0.010 C 12.058 0.005,10.408 2.732,8.397 6.070 M4.624 13.682 C 4.649 13.714,6.276 16.008,8.241 18.780 C 10.205 21.552,11.843 23.859,11.880 23.907 C 11.946 23.993,12.015 23.898,15.544 18.931 C 17.522 16.146,19.176 13.812,19.220 13.744 L 19.299 13.620 19.200 13.684 C 19.145 13.718,17.490 14.697,15.522 15.858 C 12.799 17.464,11.929 17.960,11.882 17.931 C 11.802 17.882,4.673 13.676,4.620 13.647 C 4.598 13.635,4.600 13.651,4.624 13.682 " stroke="none" fill="black" fill-rule="evenodd"></path></svg>