<svg role="img" viewBox="0 0 24 24" xmlns="http://www.w3.org/2000/svg"><path d="M8.500 8.077 C 8.203 8.150,7.920 8.383,7.795 8.659 C 7.726 8.810,7.722 9.004,7.721 11.923 C 7.720 15.468,7.706 15.310,8.039 15.643 C 8.277 15.880,8.573 15.983,8.919 15.946 C 9.328 15.904,9.596 15.738,9.791 15.406 L 9.900 15.220 9.900 12.060 C 9.900 8.463,9.920 8.680,9.563 8.347 C 9.283 8.085,8.884 7.984,8.500 8.077 M11.547 8.095 C 11.268 8.173,11.047 8.347,10.904 8.600 L 10.780 8.820 10.780 11.720 L 10.780 14.620 10.874 14.853 C 11.006 15.179,11.371 15.561,11.713 15.730 L 11.978 15.860 14.234 15.871 C 16.916 15.885,16.789 15.901,17.198 15.487 C 17.375 15.307,17.556 15.056,17.753 14.720 C 17.914 14.445,18.445 13.536,18.933 12.700 C 19.421 11.864,19.838 11.181,19.860 11.182 C 19.907 11.185,21.400 13.555,21.400 13.627 C 21.400 13.653,21.372 13.703,21.337 13.737 C 21.283 13.791,21.116 13.800,20.127 13.800 C 19.004 13.801,18.976 13.803,18.780 13.895 C 17.947 14.290,17.952 15.487,18.788 15.799 C 19.007 15.881,19.065 15.883,20.856 15.872 L 22.700 15.860 22.960 15.736 C 23.929 15.272,24.270 14.200,23.763 13.210 C 23.508 12.710,20.958 8.613,20.805 8.456 C 20.541 8.185,20.325 8.100,19.900 8.100 C 19.586 8.100,19.510 8.114,19.311 8.212 C 19.185 8.274,19.015 8.402,18.931 8.499 C 18.848 8.594,18.159 9.704,17.400 10.965 C 16.641 12.226,15.968 13.317,15.904 13.391 C 15.675 13.654,15.658 13.657,14.410 13.673 C 13.788 13.681,13.279 13.681,13.277 13.674 C 13.276 13.666,13.206 12.578,13.122 11.256 C 12.952 8.586,12.961 8.645,12.655 8.352 C 12.570 8.271,12.432 8.176,12.350 8.141 C 12.135 8.052,11.774 8.031,11.547 8.095 M0.760 8.237 C 0.482 8.323,0.232 8.535,0.099 8.798 C -0.007 9.008,-0.024 9.387,0.061 9.642 C 0.158 9.936,0.437 10.212,0.722 10.297 C 1.030 10.388,5.998 10.392,6.303 10.301 C 6.721 10.176,6.998 9.818,7.031 9.357 C 7.063 8.903,6.854 8.517,6.463 8.307 C 6.301 8.220,6.291 8.220,3.580 8.213 C 2.084 8.209,0.815 8.220,0.760 8.237 M1.029 11.041 C 0.617 11.112,0.284 11.370,0.105 11.755 C 0.024 11.932,0.020 12.004,0.008 13.494 C -0.005 15.295,-0.001 15.322,0.321 15.645 C 0.732 16.055,1.436 16.066,1.870 15.667 C 2.179 15.383,2.198 15.306,2.199 14.336 C 2.200 13.423,2.227 13.258,2.388 13.197 C 2.442 13.177,3.203 13.160,4.093 13.159 C 5.622 13.158,5.709 13.154,5.880 13.077 C 6.266 12.902,6.519 12.523,6.520 12.117 C 6.520 11.662,6.317 11.323,5.929 11.133 L 5.700 11.020 3.460 11.014 C 2.228 11.011,1.134 11.023,1.029 11.041 " stroke="none" fill="black" fill-rule="evenodd"></path></svg>