<svg role="img" xmlns="http://www.w3.org/2000/svg" viewBox="0 0 24 24"><path d="M15.320 0.193 C 14.105 0.975,13.085 2.167,12.412 3.593 C 12.164 4.116,11.878 4.949,11.777 5.440 C 11.738 5.627,11.691 5.800,11.673 5.824 C 11.655 5.849,11.496 5.880,11.321 5.895 C 10.707 5.946,9.487 6.318,9.400 6.480 C 9.336 6.600,9.354 6.824,9.436 6.926 L 9.513 7.020 9.706 6.944 C 10.695 6.559,11.174 6.462,12.080 6.465 C 12.796 6.468,13.281 6.544,13.880 6.747 C 14.847 7.075,15.779 7.701,16.451 8.474 C 16.835 8.917,17.211 9.511,16.991 9.329 C 16.963 9.306,16.793 9.214,16.614 9.125 C 16.005 8.821,15.181 8.646,14.620 8.703 C 14.388 8.726,14.353 8.738,14.415 8.775 C 15.525 9.433,16.205 10.247,16.576 11.360 C 16.996 12.623,16.896 14.013,16.299 15.200 C 15.440 16.906,13.771 17.827,11.680 17.748 C 10.863 17.718,10.206 17.562,9.583 17.250 C 8.121 16.520,7.057 15.145,6.832 13.696 C 6.789 13.420,6.791 13.398,6.892 13.194 C 7.145 12.676,7.626 12.228,8.260 11.919 C 8.881 11.616,9.642 11.441,10.342 11.440 C 10.610 11.440,10.700 11.422,10.876 11.335 C 11.220 11.163,12.040 10.332,12.040 10.155 C 12.040 10.139,11.675 9.939,11.230 9.710 C 9.888 9.020,9.592 8.821,8.839 8.101 C 8.585 7.858,8.314 7.606,8.235 7.539 C 8.107 7.430,8.086 7.382,8.017 7.039 C 7.913 6.528,7.911 5.355,8.013 4.944 C 8.051 4.792,8.073 4.660,8.063 4.649 C 8.037 4.623,7.482 4.930,7.120 5.171 C 6.651 5.482,6.300 5.774,5.771 6.294 C 5.502 6.558,5.274 6.767,5.266 6.757 C 5.188 6.671,5.069 6.341,4.999 6.015 C 4.935 5.713,4.909 5.416,4.892 4.750 C 4.879 4.271,4.860 3.880,4.849 3.880 C 4.792 3.880,4.377 4.164,4.060 4.420 C 3.185 5.128,2.366 6.115,1.729 7.228 C 0.588 9.224,0.144 11.953,0.564 14.391 C 1.355 18.982,4.912 22.698,9.491 23.719 C 15.366 25.028,21.244 21.642,23.100 15.880 C 23.440 14.823,23.600 13.732,23.600 12.468 C 23.600 9.694,22.804 7.379,21.316 5.822 C 21.123 5.620,20.854 5.377,20.718 5.282 C 20.442 5.088,20.433 5.107,20.623 5.485 C 20.997 6.228,21.464 7.654,21.578 8.400 C 21.602 8.558,21.583 8.531,21.422 8.180 C 21.026 7.315,20.421 6.349,19.755 5.520 C 19.552 5.267,19.014 4.635,18.560 4.115 C 17.597 3.011,17.255 2.593,16.786 1.949 C 16.241 1.200,15.775 0.407,15.704 0.110 C 15.690 0.049,15.665 0.000,15.649 0.000 C 15.633 0.000,15.485 0.087,15.320 0.193 " stroke="none" fill="black" fill-rule="evenodd"></path></svg>