<svg role="img" viewBox="0 0 24 24" xmlns="http://www.w3.org/2000/svg"><path d="M3.022 4.878 L 2.464 4.940 1.233 11.678 C 0.557 15.384,0.007 18.420,0.012 18.425 C 0.016 18.430,0.272 18.461,0.579 18.495 L 1.138 18.556 3.699 17.434 C 5.108 16.817,6.280 16.304,6.304 16.294 C 6.328 16.284,6.427 16.343,6.524 16.424 C 7.420 17.178,8.772 17.750,10.220 17.987 C 10.903 18.099,12.326 18.087,13.020 17.964 C 13.708 17.843,14.351 17.654,14.948 17.399 L 15.436 17.190 16.462 18.177 C 17.026 18.720,17.504 19.159,17.524 19.152 C 17.544 19.145,19.009 17.631,20.780 15.787 L 24.000 12.433 24.000 11.884 L 24.000 11.334 23.690 11.035 C 22.294 9.692,17.225 4.858,17.202 4.849 C 17.186 4.843,16.662 5.370,16.039 6.021 C 15.255 6.840,14.885 7.199,14.842 7.184 C 14.091 6.926,12.947 6.673,12.183 6.597 C 11.595 6.538,10.515 6.569,10.020 6.659 C 9.071 6.832,8.233 7.109,7.406 7.525 L 6.793 7.833 5.226 6.345 C 4.364 5.526,3.641 4.847,3.619 4.836 C 3.598 4.825,3.329 4.843,3.022 4.878 M6.527 7.843 C 8.118 9.351,9.721 10.872,10.090 11.223 L 10.760 11.860 10.760 12.287 L 10.760 12.713 11.168 13.096 C 11.392 13.306,11.568 13.485,11.558 13.494 C 11.548 13.504,10.977 13.766,10.289 14.078 C 8.857 14.728,9.020 14.703,8.443 14.360 C 8.087 14.148,7.754 13.904,7.612 13.752 L 7.526 13.660 8.505 13.203 C 9.443 12.765,9.481 12.743,9.412 12.675 C 8.967 12.238,4.778 8.370,4.773 8.391 C 4.699 8.682,3.432 15.445,3.448 15.461 C 3.460 15.474,3.852 15.320,4.319 15.119 C 4.785 14.918,5.171 14.759,5.177 14.767 C 5.182 14.774,5.256 14.897,5.341 15.040 C 5.514 15.332,5.786 15.700,6.006 15.941 L 6.153 16.101 3.695 17.176 C 2.344 17.767,1.231 18.244,1.222 18.235 C 1.211 18.224,2.918 8.641,3.483 5.548 C 3.530 5.289,3.584 5.082,3.602 5.088 C 3.620 5.095,4.937 6.334,6.527 7.843 M20.611 8.395 L 23.847 11.491 23.570 11.775 C 23.417 11.932,21.992 13.415,20.403 15.071 L 17.514 18.082 16.837 17.435 C 16.465 17.079,16.160 16.776,16.160 16.761 C 16.160 16.746,16.245 16.672,16.350 16.597 C 16.604 16.416,17.134 15.908,17.330 15.660 C 17.417 15.550,18.302 14.614,19.296 13.580 C 20.291 12.546,21.171 11.626,21.251 11.536 L 21.398 11.372 19.364 9.421 C 18.245 8.348,17.317 7.468,17.303 7.465 C 17.288 7.462,16.370 8.405,15.261 9.560 L 13.245 11.660 14.310 12.701 C 15.052 13.427,15.366 13.759,15.343 13.795 C 15.237 13.966,14.155 14.640,13.986 14.640 C 13.933 14.640,12.769 13.547,11.290 12.108 L 10.881 11.709 11.070 11.497 C 11.175 11.380,12.592 9.898,14.220 8.204 L 17.180 5.125 17.278 5.212 C 17.331 5.261,18.831 6.693,20.611 8.395 M11.980 6.841 C 12.808 6.919,14.117 7.187,14.560 7.369 L 14.700 7.427 14.169 7.967 L 13.639 8.507 13.289 8.414 C 12.641 8.240,12.133 8.188,11.320 8.212 C 10.531 8.235,10.099 8.304,9.495 8.504 C 9.177 8.609,8.583 8.880,8.313 9.043 L 8.166 9.132 7.602 8.599 C 7.292 8.306,7.044 8.048,7.051 8.026 C 7.075 7.956,7.763 7.607,8.286 7.400 C 9.049 7.098,9.863 6.906,10.720 6.826 C 11.038 6.796,11.567 6.803,11.980 6.841 M18.990 10.165 C 19.908 11.048,20.665 11.783,20.671 11.799 C 20.683 11.830,17.956 14.689,17.935 14.668 C 17.928 14.661,17.959 14.557,18.004 14.438 C 18.396 13.409,18.518 11.696,18.263 10.820 C 18.074 10.174,17.710 9.500,17.278 8.996 L 17.086 8.773 17.192 8.666 C 17.250 8.608,17.303 8.560,17.309 8.560 C 17.315 8.560,18.071 9.282,18.990 10.165 M17.190 9.270 C 17.637 9.820,17.963 10.508,18.102 11.197 C 18.154 11.455,18.165 11.655,18.149 12.057 C 18.123 12.686,18.040 13.013,17.759 13.580 C 17.267 14.573,16.426 15.361,15.220 15.958 C 14.076 16.525,12.859 16.800,11.500 16.800 C 8.693 16.800,6.183 15.494,5.234 13.540 C 4.936 12.925,4.867 12.618,4.867 11.900 C 4.867 11.410,4.883 11.242,4.953 10.986 C 5.039 10.672,5.356 9.952,5.428 9.908 C 5.448 9.895,5.705 10.124,5.998 10.418 L 6.530 10.951 6.480 11.161 C 6.410 11.454,6.419 12.049,6.499 12.358 C 6.862 13.754,8.255 14.860,10.133 15.243 C 13.140 15.855,16.182 14.378,16.560 12.121 C 16.663 11.510,16.499 10.738,16.140 10.142 L 15.999 9.909 16.450 9.438 C 16.697 9.180,16.912 8.970,16.927 8.974 C 16.942 8.977,17.060 9.111,17.190 9.270 M5.165 9.865 C 4.575 10.825,4.455 12.033,4.802 13.536 C 4.868 13.820,4.917 14.055,4.911 14.059 C 4.845 14.103,3.908 14.482,3.896 14.469 C 3.881 14.454,4.821 9.457,4.865 9.322 C 4.878 9.282,4.943 9.324,5.085 9.466 L 5.287 9.668 5.165 9.865 M12.320 9.442 C 12.506 9.466,12.666 9.492,12.675 9.501 C 12.697 9.524,10.760 11.520,10.716 11.520 C 10.697 11.520,10.302 11.157,9.836 10.713 L 8.991 9.906 9.280 9.795 C 9.693 9.636,10.296 9.496,10.860 9.427 C 11.132 9.393,12.005 9.403,12.320 9.442 M15.585 10.887 C 15.836 11.150,16.031 11.424,16.189 11.737 C 16.330 12.017,16.331 12.022,16.283 12.260 C 16.220 12.572,15.972 13.079,15.740 13.372 L 15.555 13.605 14.928 13.006 C 14.582 12.676,14.220 12.324,14.121 12.223 L 13.943 12.040 14.181 11.790 C 15.064 10.864,15.295 10.645,15.357 10.679 C 15.392 10.698,15.494 10.792,15.585 10.887 M8.330 12.710 C 8.314 12.716,8.039 12.818,7.720 12.936 C 7.364 13.069,7.123 13.138,7.097 13.116 C 7.073 13.097,6.984 12.933,6.899 12.752 C 6.701 12.331,6.697 12.157,6.878 11.800 C 6.950 11.657,7.028 11.516,7.052 11.487 C 7.085 11.447,7.236 11.577,7.727 12.067 C 8.076 12.415,8.347 12.704,8.330 12.710 M12.440 14.316 L 13.100 14.950 12.867 14.998 C 12.165 15.145,11.094 15.165,10.398 15.044 C 9.959 14.968,9.359 14.806,9.361 14.764 C 9.362 14.738,11.674 13.689,11.740 13.684 C 11.762 13.683,12.077 13.967,12.440 14.316 " stroke="none" fill="black" fill-rule="evenodd"></path></svg>