<svg role="img" viewBox="0 0 24 24" xmlns="http://www.w3.org/2000/svg"><path d="M10.940 0.046 C 9.331 0.185,7.566 0.726,6.178 1.506 C 2.634 3.497,0.350 7.059,0.041 11.080 C 0.010 11.475,-0.000 13.196,0.008 16.488 L 0.020 21.316 0.960 20.447 L 1.900 19.578 1.922 15.219 C 1.945 10.568,1.935 10.816,2.140 9.840 C 2.436 8.435,3.112 7.007,4.072 5.760 C 4.457 5.260,5.392 4.347,5.920 3.955 C 7.445 2.822,9.100 2.165,10.940 1.961 C 11.148 1.938,12.599 1.921,14.380 1.920 L 17.460 1.920 16.000 3.380 L 14.541 4.840 15.200 5.500 C 15.563 5.863,15.871 6.156,15.886 6.150 C 15.900 6.145,17.140 4.880,18.641 3.340 C 20.142 1.800,21.488 0.418,21.634 0.270 L 21.898 -0.000 16.619 0.005 C 13.716 0.009,11.160 0.027,10.940 0.046 M23.040 3.554 L 22.100 4.423 22.078 8.761 C 22.059 12.610,22.049 13.145,21.988 13.498 C 21.803 14.576,21.502 15.525,21.061 16.421 C 19.541 19.511,16.612 21.596,13.198 22.019 C 12.791 22.069,12.149 22.080,9.621 22.080 L 6.540 22.080 8.000 20.620 L 9.459 19.160 8.800 18.500 C 8.437 18.137,8.128 17.844,8.113 17.850 C 8.098 17.855,6.743 19.237,5.102 20.920 L 2.118 23.980 7.229 23.992 C 10.718 24.000,12.522 23.990,12.915 23.960 C 15.799 23.736,18.436 22.524,20.480 20.480 C 22.518 18.443,23.738 15.791,23.959 12.920 C 23.990 12.525,24.000 10.804,23.992 7.513 L 23.980 2.685 23.040 3.554 " stroke="none" fill="black" fill-rule="evenodd"></path></svg>