<svg role="img" xmlns="http://www.w3.org/2000/svg" viewBox="0 0 24 24"><path d="M2.100 0.040 C 1.589 0.143,1.148 0.381,0.764 0.761 C 0.462 1.061,0.280 1.347,0.127 1.767 L 0.020 2.060 0.020 12.000 L 0.020 21.940 0.126 22.229 C 0.455 23.130,1.127 23.732,2.028 23.935 C 2.289 23.994,3.215 24.000,12.000 24.000 C 20.808 24.000,21.710 23.994,21.972 23.935 C 22.761 23.756,23.397 23.254,23.738 22.540 C 24.020 21.952,24.000 22.738,24.000 12.000 C 24.000 3.215,23.994 2.289,23.935 2.028 C 23.732 1.127,23.130 0.455,22.229 0.126 L 21.940 0.020 12.100 0.014 C 6.688 0.011,2.188 0.023,2.100 0.040 M7.333 4.060 C 7.658 4.144,7.862 4.258,8.111 4.494 C 8.366 4.735,8.501 4.951,8.605 5.285 C 8.797 5.902,8.595 6.675,8.137 7.078 L 8.000 7.198 8.000 7.679 C 8.000 7.943,8.014 8.160,8.031 8.160 C 8.048 8.160,8.208 8.099,8.385 8.024 C 9.658 7.487,10.944 7.241,12.060 7.322 C 12.746 7.371,13.218 7.480,14.235 7.824 C 15.264 8.172,15.486 8.206,16.064 8.106 C 16.489 8.031,17.013 7.857,17.743 7.547 C 18.424 7.258,18.551 7.244,18.756 7.436 L 18.880 7.552 18.880 11.474 L 18.880 15.396 18.750 15.494 C 18.467 15.708,17.299 16.128,16.558 16.282 C 16.035 16.391,15.273 16.401,14.869 16.305 C 14.719 16.269,14.305 16.130,13.949 15.995 C 13.592 15.860,13.148 15.707,12.961 15.655 C 11.733 15.312,10.338 15.509,8.420 16.296 L 7.980 16.477 7.960 17.848 L 7.940 19.220 7.831 19.426 C 7.416 20.214,6.290 20.175,5.905 19.360 L 5.820 19.180 5.809 13.183 L 5.799 7.187 5.716 7.129 C 5.555 7.016,5.281 6.593,5.200 6.332 C 4.895 5.342,5.451 4.331,6.449 4.062 C 6.728 3.987,7.050 3.986,7.333 4.060 " stroke="none" fill="black" fill-rule="evenodd"></path></svg>