<svg role="img" viewBox="0 0 24 24" xmlns="http://www.w3.org/2000/svg"><path d="M3.842 0.078 C 3.663 0.257,3.577 0.849,3.636 1.504 C 3.669 1.870,3.665 1.988,3.614 2.184 C 3.517 2.552,3.559 3.034,3.741 3.660 C 3.825 3.946,3.910 4.202,3.931 4.230 C 4.006 4.327,4.154 4.283,4.304 4.121 C 4.582 3.820,4.574 3.861,4.476 3.272 C 4.399 2.815,4.394 2.706,4.433 2.462 C 4.647 1.117,4.672 0.564,4.528 0.291 C 4.479 0.198,4.386 0.094,4.322 0.061 C 4.156 -0.025,3.937 -0.017,3.842 0.078 M18.042 0.206 C 17.117 0.359,16.096 1.042,15.726 1.754 C 15.357 2.462,15.346 3.087,15.690 3.734 C 15.810 3.957,16.110 4.300,16.372 4.513 C 16.455 4.579,16.482 4.633,16.472 4.711 C 16.462 4.798,16.407 4.848,16.180 4.971 C 15.830 5.162,15.699 5.286,15.615 5.507 C 15.553 5.669,15.554 5.692,15.618 5.860 C 15.692 6.054,15.917 6.274,16.180 6.409 C 16.688 6.671,17.584 6.422,18.207 5.845 C 18.690 5.398,18.801 5.114,18.815 4.280 C 18.824 3.769,18.831 3.726,18.950 3.470 C 19.019 3.321,19.176 3.046,19.298 2.857 C 19.753 2.160,19.935 1.699,19.937 1.240 C 19.940 0.627,19.622 0.331,18.820 0.200 C 18.540 0.154,18.344 0.155,18.042 0.206 M5.088 0.908 C 5.022 1.036,4.909 2.043,4.936 2.270 C 4.978 2.625,5.160 2.960,5.311 2.960 C 5.343 2.960,5.479 2.877,5.615 2.775 C 5.750 2.673,5.919 2.562,5.991 2.527 C 6.196 2.429,6.196 2.321,5.994 2.013 C 5.898 1.867,5.721 1.547,5.600 1.303 C 5.394 0.889,5.372 0.859,5.253 0.848 C 5.162 0.839,5.115 0.856,5.088 0.908 M10.480 2.298 C 10.227 2.328,9.896 2.373,9.745 2.398 C 9.582 2.425,9.059 2.441,8.465 2.437 C 7.687 2.432,7.404 2.444,7.213 2.491 C 6.401 2.690,5.758 3.274,5.319 4.213 C 5.104 4.672,5.006 5.089,4.959 5.739 C 4.908 6.453,4.852 6.831,4.761 7.098 C 4.655 7.404,4.302 8.095,3.925 8.733 C 3.344 9.717,3.306 9.829,3.518 9.939 C 3.615 9.989,3.673 9.992,3.841 9.956 C 4.259 9.866,4.597 9.988,4.985 10.368 C 5.291 10.668,5.376 10.670,5.519 10.380 C 5.779 9.852,6.052 9.399,6.520 8.720 C 7.288 7.606,7.745 6.766,8.239 5.560 C 8.557 4.783,8.863 4.303,9.326 3.854 C 9.921 3.278,10.518 3.046,11.828 2.884 C 12.148 2.845,12.407 2.748,12.536 2.618 C 12.629 2.525,12.616 2.372,12.510 2.314 C 12.379 2.242,11.049 2.232,10.480 2.298 M13.082 2.435 C 12.981 2.624,13.094 2.880,13.278 2.880 C 13.388 2.880,13.800 2.722,13.800 2.680 C 13.800 2.644,13.370 2.425,13.212 2.381 C 13.150 2.363,13.113 2.379,13.082 2.435 M14.098 2.938 C 13.730 3.159,13.353 3.245,12.601 3.282 C 11.314 3.346,11.028 3.387,10.534 3.582 C 9.634 3.938,9.134 4.538,8.523 5.996 C 8.018 7.199,7.551 8.021,6.734 9.140 C 6.176 9.906,5.803 10.659,5.737 11.153 C 5.721 11.278,5.736 11.492,5.780 11.737 C 5.819 11.950,5.841 12.193,5.829 12.279 C 5.815 12.382,5.829 12.463,5.869 12.521 C 5.922 12.596,5.955 12.605,6.095 12.582 C 6.359 12.540,6.709 12.361,6.865 12.189 C 7.122 11.904,7.296 11.409,7.675 9.878 C 8.054 8.344,8.319 7.653,8.718 7.160 C 8.944 6.880,8.968 6.861,9.280 6.709 C 9.519 6.592,9.572 6.582,9.940 6.582 C 10.250 6.582,10.434 6.608,10.757 6.694 C 11.582 6.914,11.898 6.836,12.591 6.244 C 13.228 5.699,13.905 4.648,14.293 3.600 C 14.497 3.050,14.501 3.021,14.403 2.923 C 14.299 2.819,14.295 2.820,14.098 2.938 M4.773 3.050 C 4.785 3.099,4.807 3.226,4.822 3.330 C 4.855 3.562,4.895 3.595,4.983 3.462 C 5.046 3.364,5.044 3.353,4.920 3.160 C 4.780 2.941,4.740 2.912,4.773 3.050 M14.777 3.540 C 14.666 3.807,14.626 4.464,14.677 5.190 C 14.703 5.559,14.733 6.130,14.744 6.460 C 14.778 7.507,14.778 7.507,15.351 7.183 C 15.565 7.062,15.763 6.944,15.790 6.920 C 15.885 6.838,15.839 6.738,15.604 6.511 C 15.300 6.217,15.181 5.977,15.183 5.660 C 15.184 5.360,15.279 5.169,15.556 4.907 C 15.668 4.801,15.760 4.679,15.760 4.636 C 15.760 4.593,15.669 4.439,15.559 4.295 C 15.354 4.028,15.234 3.820,15.180 3.640 C 15.099 3.369,14.872 3.313,14.777 3.540 M4.166 4.972 C 3.973 5.223,3.838 5.518,3.745 5.892 C 3.683 6.144,3.683 6.174,3.744 6.302 C 3.813 6.449,4.078 6.668,4.234 6.707 C 4.296 6.723,4.352 6.705,4.402 6.655 C 4.464 6.592,4.484 6.474,4.520 5.940 C 4.544 5.588,4.581 5.213,4.602 5.108 C 4.650 4.866,4.602 4.760,4.443 4.760 C 4.353 4.760,4.296 4.804,4.166 4.972 M13.727 5.573 C 13.403 6.020,12.983 6.463,12.626 6.737 C 12.385 6.922,12.323 6.992,12.282 7.131 C 12.136 7.627,11.746 8.147,11.272 8.480 C 10.711 8.874,10.070 9.049,9.260 9.030 C 8.859 9.021,8.802 9.029,8.620 9.120 C 8.303 9.278,8.202 9.468,7.999 10.286 C 7.674 11.595,7.447 12.182,7.144 12.494 C 6.912 12.732,6.666 12.852,6.072 13.013 C 5.497 13.169,5.443 13.195,5.020 13.516 C 4.635 13.808,4.321 13.981,3.965 14.095 C 3.714 14.175,3.699 14.187,3.687 14.313 C 3.677 14.422,3.700 14.470,3.822 14.584 C 4.444 15.171,5.723 15.139,6.820 14.508 C 7.275 14.246,7.685 13.800,8.095 13.120 C 8.789 11.967,9.303 11.352,9.894 10.966 C 10.264 10.725,10.653 10.570,11.414 10.360 C 12.363 10.098,12.652 9.978,13.104 9.658 C 13.445 9.416,13.879 8.937,14.031 8.635 C 14.206 8.288,14.314 7.836,14.346 7.316 C 14.374 6.853,14.294 5.428,14.233 5.310 C 14.212 5.268,14.151 5.240,14.083 5.240 C 13.987 5.240,13.933 5.290,13.727 5.573 M16.600 7.062 C 15.871 7.326,15.287 7.645,14.933 7.970 C 14.728 8.160,14.608 8.334,14.505 8.597 C 14.309 9.093,13.786 9.696,13.225 10.071 C 12.835 10.333,12.475 10.477,11.565 10.739 C 11.147 10.859,10.685 11.011,10.539 11.078 C 9.773 11.425,9.215 12.038,8.357 13.478 C 7.779 14.448,7.097 14.975,6.015 15.289 C 5.748 15.366,5.609 15.380,5.100 15.379 C 4.546 15.378,4.476 15.369,4.188 15.266 C 3.890 15.159,3.862 15.156,3.588 15.200 C 3.176 15.267,3.120 15.296,3.120 15.436 C 3.120 15.571,3.200 15.640,3.590 15.836 C 3.913 15.998,4.397 16.112,4.900 16.144 C 5.561 16.187,5.926 16.052,6.579 15.524 C 7.679 14.636,8.543 14.112,9.420 13.802 C 9.926 13.623,10.295 13.544,11.280 13.401 C 12.842 13.175,13.647 12.899,14.440 12.318 C 14.738 12.099,15.209 11.623,15.387 11.360 C 15.687 10.918,15.917 10.341,16.023 9.763 C 16.225 8.662,16.445 8.139,16.985 7.476 C 17.214 7.194,17.244 7.092,17.127 6.986 C 17.033 6.902,17.047 6.900,16.600 7.062 M16.991 8.190 C 16.801 8.405,16.573 9.054,16.437 9.765 C 16.204 10.983,15.729 11.809,14.848 12.530 C 14.472 12.837,14.468 12.916,14.820 13.109 C 15.170 13.302,15.523 13.687,15.716 14.088 C 16.149 14.988,16.225 16.103,15.959 17.660 C 15.756 18.852,15.741 19.920,15.916 20.715 C 16.007 21.128,16.046 21.200,16.180 21.200 C 16.367 21.200,17.468 20.292,18.362 19.400 C 19.160 18.604,19.727 17.926,20.415 16.944 C 20.800 16.393,20.804 16.343,20.484 16.146 C 20.136 15.931,19.736 15.480,19.507 15.045 C 19.117 14.305,18.910 13.495,18.760 12.120 C 18.588 10.552,18.415 10.020,17.748 8.995 C 17.585 8.745,17.413 8.464,17.365 8.371 C 17.243 8.131,17.103 8.063,16.991 8.190 M3.055 8.430 C 3.021 8.512,2.931 8.727,2.854 8.908 C 2.701 9.267,2.711 9.376,2.898 9.423 C 3.065 9.465,3.140 9.408,3.310 9.108 L 3.477 8.816 3.390 8.578 C 3.264 8.230,3.156 8.182,3.055 8.430 M2.385 9.733 C 2.274 10.000,2.191 10.410,2.229 10.509 C 2.266 10.606,2.399 10.560,2.579 10.387 C 2.788 10.187,2.810 10.054,2.681 9.770 C 2.583 9.554,2.466 9.540,2.385 9.733 M3.120 10.424 C 2.595 10.791,2.527 10.944,2.796 11.157 C 2.881 11.224,2.988 11.280,3.032 11.280 C 3.076 11.280,3.299 11.185,3.526 11.068 C 3.754 10.952,4.045 10.833,4.173 10.805 C 4.346 10.766,4.413 10.731,4.437 10.668 C 4.518 10.447,4.352 10.337,4.000 10.380 C 3.709 10.415,3.573 10.415,3.380 10.382 C 3.259 10.361,3.195 10.372,3.120 10.424 M19.141 11.134 C 19.060 11.193,19.061 11.206,19.225 12.560 C 19.390 13.913,19.770 14.930,20.318 15.480 C 20.462 15.625,20.663 15.786,20.766 15.839 C 20.941 15.930,20.957 15.931,21.050 15.870 C 21.240 15.746,22.240 13.615,22.240 13.335 C 22.240 13.226,22.184 13.184,21.649 12.887 C 21.422 12.762,21.073 12.543,20.872 12.400 C 20.526 12.155,19.653 11.412,19.443 11.185 C 19.335 11.068,19.251 11.054,19.141 11.134 M4.214 11.218 C 4.101 11.250,3.835 11.367,3.624 11.478 C 3.078 11.765,2.868 11.758,2.504 11.443 C 2.355 11.314,2.283 11.280,2.163 11.280 C 2.000 11.280,1.800 11.422,1.800 11.538 C 1.800 11.630,1.947 11.760,2.052 11.760 C 2.183 11.760,2.459 11.975,2.536 12.136 C 2.615 12.303,2.616 12.398,2.540 12.680 C 2.508 12.801,2.481 13.020,2.480 13.166 C 2.480 13.415,2.488 13.440,2.603 13.536 C 2.755 13.665,2.779 13.665,2.887 13.540 C 2.986 13.426,3.132 13.410,3.208 13.504 C 3.392 13.731,3.438 13.760,3.613 13.760 C 3.897 13.760,3.914 13.692,3.704 13.392 C 3.467 13.053,3.360 12.772,3.360 12.488 C 3.360 12.096,3.553 11.849,3.890 11.811 C 4.125 11.785,4.219 11.841,4.341 12.081 C 4.416 12.231,4.464 12.280,4.531 12.280 C 4.677 12.280,4.827 12.109,4.857 11.906 C 4.873 11.800,4.931 11.667,4.998 11.582 C 5.115 11.436,5.121 11.324,5.019 11.239 C 4.932 11.167,4.441 11.154,4.214 11.218 M5.181 11.900 C 5.169 11.955,5.150 12.048,5.137 12.108 C 5.101 12.280,4.968 12.434,4.746 12.561 C 4.507 12.698,4.314 12.712,4.174 12.603 C 4.093 12.539,4.055 12.533,3.957 12.567 C 3.892 12.590,3.813 12.645,3.782 12.690 C 3.731 12.763,3.735 12.793,3.824 12.967 C 3.878 13.075,3.987 13.234,4.066 13.321 C 4.272 13.549,4.408 13.541,4.763 13.278 C 5.226 12.934,5.431 12.639,5.466 12.265 C 5.481 12.105,5.467 12.032,5.403 11.930 C 5.305 11.775,5.209 11.762,5.181 11.900 M1.960 12.789 C 1.960 13.024,1.979 13.127,2.034 13.212 L 2.108 13.324 2.133 13.052 C 2.147 12.902,2.169 12.741,2.183 12.693 C 2.203 12.624,2.182 12.593,2.084 12.542 L 1.960 12.478 1.960 12.789 M13.420 13.347 C 13.376 13.359,13.171 13.422,12.964 13.485 C 12.502 13.627,11.973 13.732,11.160 13.842 C 10.086 13.988,9.541 14.138,8.880 14.469 C 8.535 14.642,8.499 14.671,8.488 14.782 C 8.478 14.887,8.502 14.922,8.660 15.036 C 9.040 15.308,9.400 15.910,9.559 16.535 C 9.782 17.413,9.775 18.788,9.535 21.160 C 9.369 22.797,9.396 23.851,9.606 23.963 C 9.708 24.018,10.544 23.860,11.293 23.645 C 12.074 23.420,12.005 23.503,11.974 22.826 C 11.919 21.605,12.194 20.520,12.901 19.171 C 13.231 18.544,13.552 18.025,14.272 16.960 C 15.120 15.705,15.350 15.177,15.311 14.574 C 15.278 14.067,15.002 13.665,14.529 13.436 C 14.375 13.362,14.262 13.343,13.920 13.335 C 13.689 13.330,13.464 13.335,13.420 13.347 M1.808 13.648 C 1.638 13.818,2.025 14.489,2.406 14.683 C 2.602 14.783,2.692 14.780,2.822 14.669 C 2.942 14.565,3.000 14.269,2.926 14.132 C 2.903 14.088,2.779 14.014,2.652 13.967 C 2.524 13.920,2.324 13.819,2.207 13.741 C 1.981 13.592,1.886 13.570,1.808 13.648 M3.182 14.605 C 3.134 14.752,3.127 14.823,3.158 14.854 C 3.198 14.894,3.509 14.904,3.547 14.867 C 3.556 14.857,3.493 14.748,3.407 14.625 L 3.249 14.400 3.182 14.605 M15.289 16.184 C 15.229 16.285,14.992 16.641,14.763 16.974 C 13.425 18.917,12.841 20.039,12.533 21.260 C 12.456 21.568,12.428 21.804,12.411 22.287 C 12.399 22.631,12.401 22.959,12.415 23.015 C 12.461 23.199,12.563 23.214,12.889 23.084 C 13.592 22.805,14.694 22.233,15.394 21.784 C 15.733 21.566,15.724 21.619,15.547 20.953 C 15.314 20.075,15.305 18.995,15.520 17.740 C 15.665 16.894,15.718 16.154,15.641 16.061 C 15.540 15.940,15.406 15.987,15.289 16.184 " stroke="none" fill="black" fill-rule="evenodd"></path></svg>