<svg role="img" xmlns="http://www.w3.org/2000/svg" viewBox="0 0 24 24"><path d="M3.805 3.980 C 3.246 4.231,2.315 5.219,1.537 6.383 C 0.316 8.212,-0.153 10.179,0.040 12.664 C 0.230 15.112,0.882 16.825,2.295 18.597 C 3.018 19.503,3.628 20.027,4.010 20.068 C 4.235 20.093,4.368 20.036,4.505 19.857 C 4.744 19.543,4.636 19.292,3.972 18.616 C 3.143 17.773,2.631 17.066,2.180 16.140 C 1.768 15.296,1.509 14.456,1.354 13.460 C 1.237 12.712,1.208 11.284,1.296 10.567 C 1.463 9.205,1.898 7.982,2.597 6.912 C 2.965 6.348,3.249 6.002,3.911 5.306 C 4.667 4.513,4.753 4.322,4.478 4.058 C 4.335 3.921,4.017 3.884,3.805 3.980 M19.551 4.036 C 19.237 4.311,19.316 4.496,20.101 5.318 C 20.418 5.650,20.793 6.070,20.934 6.251 C 21.930 7.530,22.503 8.928,22.704 10.567 C 22.783 11.207,22.762 12.701,22.665 13.340 C 22.508 14.381,22.228 15.307,21.819 16.140 C 21.359 17.076,20.845 17.786,20.018 18.624 C 19.366 19.285,19.256 19.544,19.495 19.857 C 19.797 20.253,20.268 20.119,20.955 19.439 C 21.797 18.605,22.608 17.442,23.085 16.384 C 24.158 14.005,24.300 10.441,23.413 8.185 C 22.924 6.943,22.059 5.645,21.064 4.660 C 20.532 4.133,20.248 3.951,19.922 3.928 C 19.711 3.913,19.681 3.921,19.551 4.036 M11.213 5.076 C 11.311 6.010,10.813 7.671,9.976 9.208 C 9.545 9.999,9.245 10.478,8.441 11.660 C 6.878 13.956,7.017 16.162,8.840 18.001 C 9.171 18.335,9.720 18.800,9.720 18.746 C 9.720 18.736,9.658 18.654,9.583 18.563 C 9.044 17.919,8.960 16.862,9.347 15.621 C 9.601 14.807,10.017 14.009,10.839 12.760 C 11.446 11.836,11.716 11.386,12.011 10.810 C 12.104 10.629,12.191 10.480,12.205 10.480 C 12.218 10.480,12.269 10.575,12.317 10.690 C 12.600 11.367,12.664 12.220,12.518 13.407 C 12.437 14.072,12.431 14.208,12.472 14.489 C 12.554 15.054,12.755 15.381,13.151 15.592 C 13.492 15.774,13.863 15.826,14.388 15.765 C 14.689 15.730,14.822 15.728,14.859 15.759 C 14.947 15.832,15.086 16.200,15.109 16.421 C 15.136 16.689,15.040 17.125,14.863 17.530 C 14.739 17.815,14.357 18.423,14.090 18.759 C 13.882 19.021,14.461 18.544,14.960 18.042 C 15.504 17.496,15.849 17.023,16.142 16.420 C 16.936 14.792,16.764 13.175,15.614 11.447 C 15.267 10.926,15.326 10.921,15.011 11.493 C 14.689 12.078,14.466 12.280,14.143 12.280 C 13.897 12.280,13.886 12.191,14.038 11.431 C 14.110 11.073,14.181 10.600,14.196 10.380 C 14.304 8.828,13.759 7.429,12.503 6.040 C 12.198 5.702,11.526 5.069,11.304 4.909 L 11.187 4.825 11.213 5.076 " stroke="none" fill="black" fill-rule="evenodd"></path></svg>