<svg role="img" xmlns="http://www.w3.org/2000/svg" viewBox="0 0 24 24"><path d="M4.546 3.947 C 4.779 4.427,4.972 4.823,4.975 4.828 C 4.988 4.842,9.568 5.124,9.603 5.112 C 9.628 5.104,5.123 3.428,4.159 3.087 C 4.140 3.080,4.314 3.467,4.546 3.947 M12.226 4.149 C 11.278 5.004,11.056 5.222,11.129 5.229 C 11.290 5.246,14.450 5.360,14.748 5.360 L 15.036 5.360 14.252 4.250 C 13.821 3.639,13.456 3.126,13.441 3.109 C 13.427 3.093,12.880 3.561,12.226 4.149 M14.145 3.130 C 14.233 3.280,15.726 5.360,15.744 5.360 C 15.770 5.360,23.839 3.126,23.900 3.102 C 23.922 3.093,21.729 3.085,19.028 3.083 C 15.108 3.081,14.121 3.090,14.145 3.130 M0.047 5.157 C 0.054 5.178,1.544 6.771,3.358 8.699 L 6.657 12.204 6.746 12.032 C 6.796 11.937,7.581 10.474,8.492 8.780 C 9.402 7.086,10.144 5.695,10.140 5.690 C 10.133 5.679,5.204 5.407,1.260 5.200 C 0.842 5.178,0.395 5.151,0.267 5.140 C 0.133 5.129,0.039 5.136,0.047 5.157 M8.884 9.162 C 7.080 12.584,7.071 12.604,7.145 12.690 C 7.186 12.738,7.929 13.539,8.796 14.471 L 10.372 16.166 11.116 15.433 C 11.525 15.029,12.344 14.223,12.936 13.640 L 14.012 12.580 14.574 9.271 C 14.883 7.451,15.127 5.955,15.118 5.947 C 15.103 5.935,10.874 5.714,10.739 5.719 C 10.716 5.719,9.881 7.269,8.884 9.162 M7.266 13.745 C 7.196 13.976,5.522 20.856,5.533 20.867 C 5.548 20.881,9.932 16.608,9.951 16.562 C 9.957 16.547,9.420 15.951,8.757 15.237 C 7.179 13.538,7.294 13.653,7.266 13.745 " stroke="none" fill="black" fill-rule="evenodd"></path></svg>