<svg role="img" viewBox="0 0 24 24" xmlns="http://www.w3.org/2000/svg"><path d="M10.940 0.046 C 6.260 0.450,2.189 3.634,0.659 8.086 C -1.484 14.319,1.792 21.115,7.997 23.309 C 12.364 24.853,17.204 23.756,20.480 20.480 C 24.710 16.250,25.180 9.567,21.584 4.785 C 19.301 1.749,15.708 -0.028,11.920 0.006 C 11.601 0.009,11.160 0.027,10.940 0.046 M13.208 1.739 C 17.827 2.280,21.484 5.817,22.223 10.460 C 22.310 11.008,22.343 12.424,22.282 13.024 C 22.113 14.687,21.557 16.261,20.650 17.640 C 19.756 19.000,18.668 20.046,17.280 20.882 C 16.179 21.544,14.864 22.014,13.513 22.228 C 12.874 22.329,11.132 22.330,10.498 22.230 C 6.747 21.635,3.669 19.162,2.338 15.674 C 1.771 14.189,1.552 12.398,1.739 10.792 C 2.082 7.862,3.648 5.243,6.080 3.532 C 7.444 2.572,9.086 1.942,10.748 1.741 C 11.350 1.668,12.592 1.667,13.208 1.739 M10.740 5.864 C 10.287 5.908,9.910 5.977,9.621 6.068 C 8.439 6.438,7.635 7.274,7.396 8.380 C 7.321 8.725,7.332 9.443,7.416 9.757 C 7.566 10.312,7.934 10.846,8.370 11.139 L 8.563 11.270 8.361 11.399 C 7.950 11.663,7.681 12.081,7.593 12.591 C 7.504 13.114,7.720 13.647,8.147 13.956 L 8.354 14.106 8.126 14.272 C 7.242 14.916,6.925 16.094,7.378 17.052 C 7.851 18.053,9.192 18.583,11.060 18.508 C 12.559 18.447,13.767 17.989,14.587 17.168 C 15.328 16.428,15.620 15.498,15.422 14.516 C 15.206 13.446,14.447 12.842,13.120 12.682 C 12.933 12.660,12.375 12.623,11.880 12.600 C 10.759 12.548,10.598 12.530,10.445 12.437 C 10.244 12.315,10.229 12.068,10.410 11.861 C 10.500 11.759,10.500 11.759,11.280 11.745 C 11.966 11.733,12.108 11.719,12.460 11.626 C 13.516 11.350,14.219 10.762,14.532 9.895 C 14.741 9.316,14.772 8.577,14.602 8.244 L 14.518 8.080 14.979 8.080 L 15.440 8.080 15.440 7.062 L 15.440 6.044 13.890 6.028 C 12.679 6.016,12.273 5.999,12.036 5.949 C 11.719 5.883,11.016 5.837,10.740 5.864 M11.713 7.944 C 12.015 8.029,12.329 8.338,12.416 8.637 C 12.607 9.287,12.354 9.858,11.776 10.081 C 11.587 10.154,11.460 10.172,11.140 10.172 C 10.511 10.172,10.137 9.986,9.934 9.571 C 9.787 9.272,9.780 8.840,9.917 8.530 C 10.171 7.956,10.907 7.715,11.713 7.944 M17.380 10.880 C 16.549 11.013,15.924 11.673,15.825 12.520 C 15.768 13.003,15.964 13.560,16.325 13.941 C 17.414 15.093,19.347 14.404,19.468 12.820 C 19.556 11.678,18.504 10.701,17.380 10.880 M12.356 14.604 C 12.999 14.705,13.264 15.049,13.122 15.600 C 12.981 16.151,12.435 16.459,11.516 16.508 C 10.515 16.561,9.888 16.213,9.847 15.581 C 9.827 15.261,9.921 15.039,10.200 14.743 L 10.405 14.527 11.253 14.545 C 11.719 14.556,12.215 14.582,12.356 14.604 " stroke="none" fill="black" fill-rule="evenodd"></path></svg>