<svg role="img" viewBox="0 0 24 24" xmlns="http://www.w3.org/2000/svg"><path d="M23.483 2.530 C 23.451 2.579,23.231 2.942,22.992 3.335 C 22.256 4.549,21.882 5.049,21.168 5.774 C 19.563 7.403,17.500 8.401,14.796 8.858 C 14.464 8.914,14.139 8.960,14.074 8.960 C 13.840 8.960,14.003 9.029,14.289 9.050 C 15.306 9.127,16.292 9.842,16.777 10.853 C 17.042 11.407,17.099 11.675,17.098 12.360 C 17.096 13.050,17.045 13.277,16.760 13.860 C 16.436 14.525,15.989 14.990,15.358 15.319 C 14.878 15.569,14.506 15.657,13.940 15.656 C 13.412 15.655,13.127 15.596,12.688 15.398 C 11.857 15.021,11.075 14.091,10.899 13.272 C 10.853 13.057,10.838 13.061,10.675 13.334 C 10.164 14.187,9.334 14.681,8.414 14.679 C 7.697 14.678,7.112 14.434,6.596 13.920 C 6.343 13.668,6.255 13.543,6.070 13.173 C 5.774 12.581,5.703 12.262,5.729 11.625 C 5.745 11.240,5.771 11.074,5.857 10.820 C 6.211 9.774,6.992 9.068,7.993 8.891 C 8.313 8.834,8.413 8.832,8.712 8.875 C 9.294 8.959,9.790 9.203,10.207 9.612 C 10.558 9.955,10.754 10.284,10.998 10.940 C 11.024 11.008,11.045 10.987,11.140 10.800 C 11.561 9.967,12.292 9.367,13.195 9.113 L 13.460 9.039 13.160 9.059 C 11.872 9.144,11.367 9.120,10.657 8.940 C 8.874 8.488,7.209 7.027,6.002 4.856 L 5.768 4.436 5.743 4.848 C 5.711 5.365,5.440 11.735,5.440 11.961 L 5.440 12.128 5.048 11.734 C 4.278 10.961,3.500 10.543,2.627 10.433 C 1.346 10.271,0.299 11.098,0.061 12.458 C -0.056 13.133,0.010 13.840,0.259 14.586 C 0.558 15.480,1.048 16.253,1.727 16.904 C 2.536 17.678,3.404 18.080,4.271 18.080 L 4.649 18.080 4.944 18.302 C 6.357 19.365,8.283 20.336,10.094 20.898 C 12.551 21.660,14.898 21.799,16.883 21.299 C 20.093 20.490,22.286 18.066,23.316 14.189 C 24.052 11.419,24.192 7.752,23.720 3.580 C 23.598 2.497,23.590 2.440,23.564 2.440 C 23.550 2.440,23.514 2.481,23.483 2.530 M13.670 9.028 C 13.720 9.038,13.800 9.038,13.850 9.028 C 13.900 9.019,13.859 9.011,13.760 9.011 C 13.661 9.011,13.620 9.019,13.670 9.028 M7.960 9.260 C 6.860 9.508,6.083 10.550,6.081 11.784 C 6.079 12.487,6.350 13.153,6.836 13.639 C 7.294 14.098,7.794 14.321,8.366 14.320 C 8.846 14.319,9.098 14.234,8.758 14.189 C 8.323 14.130,7.810 13.722,7.595 13.262 C 7.246 12.517,7.395 11.713,7.984 11.162 C 8.330 10.839,8.580 10.743,9.080 10.743 C 9.583 10.743,9.830 10.838,10.183 11.169 C 10.432 11.402,10.674 11.795,10.684 11.986 C 10.686 12.027,10.704 11.997,10.723 11.920 C 10.767 11.739,10.702 11.197,10.601 10.904 C 10.408 10.342,9.984 9.795,9.545 9.540 C 9.050 9.252,8.458 9.148,7.960 9.260 M13.280 9.420 C 13.159 9.453,12.893 9.562,12.688 9.663 C 12.394 9.807,12.251 9.910,12.005 10.153 C 10.239 11.900,11.184 14.970,13.595 15.322 C 14.126 15.399,14.696 15.296,15.231 15.025 C 15.346 14.966,15.440 14.912,15.440 14.903 C 15.440 14.895,15.355 14.915,15.250 14.947 C 14.974 15.034,14.391 15.031,14.120 14.941 C 13.730 14.813,13.506 14.675,13.217 14.384 C 12.765 13.931,12.561 13.435,12.560 12.786 C 12.559 12.015,12.888 11.347,13.471 10.930 C 14.649 10.090,16.211 10.623,16.712 12.038 L 16.805 12.300 16.782 12.038 C 16.721 11.332,16.429 10.710,15.920 10.200 C 15.543 9.823,15.272 9.646,14.833 9.490 C 14.586 9.402,14.458 9.384,14.020 9.373 C 13.650 9.364,13.437 9.378,13.280 9.420 M2.983 10.821 C 3.966 11.073,5.001 11.940,5.655 13.060 C 5.908 13.495,6.137 14.095,6.241 14.600 C 6.363 15.190,6.340 15.919,6.185 16.373 C 5.718 17.744,4.367 18.166,2.920 17.394 C 0.649 16.182,-0.458 12.789,0.940 11.323 C 1.450 10.789,2.168 10.613,2.983 10.821 M13.915 10.987 C 13.697 11.023,13.386 11.251,13.253 11.475 C 12.983 11.926,13.046 12.424,13.420 12.787 C 13.550 12.914,13.692 13.011,13.786 13.037 C 14.455 13.223,15.078 12.754,15.080 12.065 C 15.080 11.733,15.011 11.541,14.813 11.320 C 14.583 11.065,14.234 10.936,13.915 10.987 M8.167 11.267 C 7.832 11.433,7.695 11.902,7.884 12.238 C 8.126 12.670,8.712 12.694,8.988 12.285 C 9.368 11.721,8.765 10.973,8.167 11.267 M1.878 11.441 C 1.309 11.538,0.884 12.197,0.930 12.913 C 1.000 14.012,1.949 14.596,2.667 13.982 C 3.012 13.687,3.212 13.081,3.129 12.583 C 3.004 11.826,2.471 11.339,1.878 11.441 M16.772 15.623 C 17.542 15.939,18.058 16.297,18.306 16.690 C 18.445 16.909,18.528 17.261,18.497 17.500 C 18.469 17.722,18.295 18.518,18.270 18.543 C 18.261 18.552,18.194 18.414,18.121 18.236 C 18.047 18.058,17.920 17.808,17.837 17.680 L 17.686 17.447 17.331 17.797 C 17.026 18.099,16.913 18.180,16.526 18.373 C 15.863 18.705,15.161 18.895,14.200 19.002 C 13.731 19.055,12.090 19.059,11.780 19.009 C 11.591 18.978,11.602 18.975,12.000 18.947 C 12.796 18.893,13.845 18.702,14.460 18.500 L 14.740 18.408 14.212 18.404 C 13.080 18.395,11.844 18.148,10.151 17.591 C 9.806 17.477,9.527 17.379,9.533 17.374 C 9.538 17.368,9.776 17.407,10.061 17.459 C 11.020 17.636,11.677 17.696,12.680 17.697 C 13.699 17.698,14.178 17.646,14.912 17.456 C 15.635 17.269,16.386 16.919,16.912 16.526 L 17.125 16.367 16.888 16.094 C 16.758 15.943,16.560 15.735,16.448 15.630 C 16.335 15.525,16.262 15.440,16.284 15.440 C 16.307 15.440,16.526 15.522,16.772 15.623 " stroke="none" fill="black" fill-rule="evenodd"></path></svg>