<svg role="img" viewBox="0 0 24 24" xmlns="http://www.w3.org/2000/svg"><path d="M8.960 2.509 C 8.691 2.608,8.131 3.131,7.658 3.722 C 7.527 3.886,7.402 4.033,7.380 4.049 C 7.358 4.066,7.142 4.080,6.900 4.081 C 6.195 4.084,5.246 4.150,4.900 4.220 C 3.969 4.410,3.068 4.860,1.921 5.710 C 1.275 6.189,1.037 6.402,0.754 6.754 C 0.357 7.246,0.083 7.919,0.081 8.405 C 0.080 8.547,0.086 8.552,0.330 8.642 C 0.678 8.769,1.296 9.058,1.440 9.160 C 1.724 9.362,1.545 9.527,0.751 9.793 L 0.282 9.950 0.491 10.155 C 1.052 10.704,2.034 11.264,3.165 11.680 C 3.746 11.894,4.195 11.999,4.540 12.002 L 4.820 12.004 4.480 12.104 C 3.153 12.496,1.157 13.871,0.538 14.820 C 0.319 15.156,0.131 15.680,0.098 16.043 L 0.070 16.344 0.505 16.512 C 1.002 16.704,1.472 16.950,1.536 17.051 C 1.635 17.208,1.378 17.380,0.707 17.602 L 0.275 17.745 0.548 18.003 C 1.233 18.647,2.734 19.415,3.870 19.703 C 4.332 19.821,5.056 19.834,5.783 19.739 C 6.040 19.705,6.255 19.683,6.259 19.689 C 6.264 19.695,6.318 19.793,6.379 19.907 C 6.782 20.661,7.496 21.226,8.269 21.404 C 8.665 21.495,9.829 21.551,10.100 21.492 C 10.255 21.458,10.260 21.451,10.273 21.278 C 10.289 21.056,10.218 20.676,10.117 20.445 L 10.040 20.270 10.250 20.294 C 10.737 20.351,12.319 20.369,12.860 20.324 C 14.507 20.186,16.572 19.736,18.585 19.076 C 19.288 18.845,19.732 18.720,19.846 18.720 C 20.084 18.720,20.508 18.847,21.714 19.279 C 22.879 19.697,23.347 19.839,23.591 19.850 C 23.892 19.863,23.900 19.740,23.643 19.107 C 23.367 18.430,23.337 18.084,23.505 17.552 C 23.651 17.091,23.645 16.762,23.480 16.123 C 23.307 15.454,23.319 15.228,23.551 14.760 C 23.644 14.573,23.756 14.277,23.800 14.102 C 23.944 13.536,23.955 12.797,23.822 12.617 C 23.775 12.551,23.749 12.549,23.558 12.593 C 23.442 12.620,22.814 12.846,22.164 13.097 C 20.815 13.615,20.268 13.798,19.975 13.829 C 19.699 13.858,19.038 13.719,18.382 13.493 C 17.188 13.084,16.229 12.820,15.560 12.718 C 15.320 12.681,15.202 12.636,14.968 12.491 C 14.808 12.391,14.682 12.305,14.688 12.299 C 14.695 12.293,14.987 12.231,15.337 12.160 C 16.540 11.919,17.760 11.581,19.013 11.142 C 19.404 11.005,19.712 10.920,19.819 10.920 C 20.052 10.920,20.495 11.053,21.735 11.496 C 23.246 12.036,23.654 12.140,23.778 12.016 C 23.868 11.926,23.848 11.832,23.614 11.248 C 23.452 10.843,23.426 10.735,23.411 10.421 C 23.396 10.111,23.408 10.016,23.497 9.749 C 23.640 9.317,23.636 8.961,23.480 8.340 C 23.306 7.648,23.316 7.483,23.555 6.963 C 23.663 6.730,23.779 6.423,23.815 6.280 C 23.942 5.760,23.948 4.988,23.825 4.820 C 23.778 4.756,23.758 4.756,23.528 4.815 C 23.392 4.850,22.772 5.074,22.150 5.314 C 20.137 6.091,19.978 6.125,19.200 5.939 C 18.948 5.878,18.415 5.716,18.018 5.578 C 17.258 5.314,16.265 5.048,15.635 4.939 C 15.121 4.851,14.764 4.633,14.461 4.223 C 14.223 3.901,14.045 3.786,13.404 3.542 C 12.690 3.269,11.163 2.854,9.948 2.603 C 9.387 2.486,9.095 2.459,8.960 2.509 M9.460 5.281 C 11.973 5.409,13.176 5.563,14.795 5.963 C 16.222 6.315,17.339 6.718,18.957 7.464 C 19.669 7.791,19.801 7.866,19.829 7.955 C 19.880 8.111,19.846 8.234,19.734 8.308 C 19.609 8.389,19.581 8.380,18.700 7.969 C 16.321 6.860,14.065 6.230,11.660 6.001 C 11.199 5.957,8.550 5.797,8.535 5.812 C 8.530 5.817,8.588 6.025,8.664 6.276 C 8.849 6.885,8.933 7.390,8.901 7.696 C 8.840 8.279,8.598 9.338,8.341 10.150 C 8.220 10.531,8.110 10.645,7.938 10.566 C 7.752 10.481,7.745 10.359,7.898 9.846 C 8.252 8.659,8.432 7.703,8.380 7.285 C 8.337 6.937,8.178 6.368,8.001 5.922 C 7.827 5.487,7.823 5.366,7.975 5.256 C 8.041 5.208,8.125 5.199,8.360 5.217 C 8.525 5.230,9.020 5.258,9.460 5.281 M6.584 5.598 C 6.843 5.746,6.965 5.892,7.166 6.291 C 7.558 7.072,7.577 7.779,7.236 8.895 C 7.001 9.661,6.886 9.829,6.672 9.716 C 6.474 9.612,6.474 9.512,6.676 8.940 C 7.113 7.702,7.069 7.042,6.494 6.169 C 6.318 5.902,6.240 5.746,6.240 5.659 C 6.240 5.441,6.295 5.432,6.584 5.598 M3.900 6.454 C 4.130 6.561,4.334 6.776,4.456 7.038 C 4.523 7.183,4.540 7.298,4.540 7.600 C 4.540 7.935,4.527 8.007,4.428 8.209 C 4.017 9.046,3.041 9.083,2.506 8.281 C 2.396 8.117,2.432 8.090,2.547 8.251 C 2.697 8.462,3.024 8.617,3.263 8.590 C 3.538 8.559,3.795 8.379,3.928 8.125 C 4.020 7.949,4.040 7.860,4.040 7.628 C 4.040 7.289,3.949 7.072,3.720 6.865 C 3.365 6.544,2.910 6.585,2.584 6.966 C 2.423 7.154,2.397 7.133,2.524 6.920 C 2.829 6.411,3.396 6.219,3.900 6.454 M3.071 7.702 C 3.136 7.748,3.160 7.805,3.160 7.914 C 3.160 8.089,3.103 8.160,2.965 8.160 C 2.742 8.160,2.638 7.882,2.800 7.720 C 2.896 7.624,2.954 7.620,3.071 7.702 M9.303 13.060 C 12.045 13.208,13.199 13.352,14.780 13.744 C 16.277 14.116,17.362 14.513,19.179 15.353 C 19.676 15.583,19.786 15.649,19.824 15.743 C 19.884 15.888,19.824 16.071,19.698 16.128 C 19.620 16.164,19.513 16.128,19.013 15.901 C 17.455 15.194,16.914 14.977,15.969 14.676 C 14.521 14.216,13.051 13.920,11.521 13.782 C 10.874 13.723,8.556 13.590,8.538 13.610 C 8.533 13.615,8.580 13.779,8.644 13.974 C 8.708 14.168,8.799 14.533,8.846 14.784 C 8.930 15.230,8.930 15.254,8.867 15.731 C 8.801 16.224,8.537 17.339,8.342 17.950 C 8.268 18.182,8.208 18.299,8.140 18.344 C 8.015 18.425,7.895 18.386,7.819 18.237 C 7.762 18.127,7.768 18.087,7.918 17.567 C 8.324 16.160,8.442 15.472,8.361 14.968 C 8.297 14.570,8.152 14.074,7.978 13.653 C 7.816 13.261,7.814 13.243,7.923 13.105 C 8.021 12.981,7.906 12.985,9.303 13.060 M6.642 13.424 C 6.850 13.551,7.018 13.761,7.178 14.094 C 7.483 14.727,7.548 15.310,7.398 16.054 C 7.302 16.531,7.035 17.335,6.936 17.444 C 6.794 17.602,6.520 17.493,6.520 17.279 C 6.520 17.219,6.581 17.001,6.655 16.795 C 6.883 16.163,6.972 15.701,6.952 15.251 C 6.931 14.776,6.822 14.476,6.474 13.936 C 6.254 13.594,6.207 13.453,6.263 13.306 C 6.290 13.237,6.385 13.267,6.642 13.424 M3.747 14.180 C 4.014 14.259,4.287 14.504,4.428 14.791 C 4.527 14.993,4.540 15.064,4.540 15.400 C 4.540 15.735,4.527 15.804,4.432 15.984 C 4.275 16.282,4.144 16.421,3.911 16.537 C 3.392 16.795,2.770 16.572,2.496 16.029 C 2.436 15.910,2.443 15.914,2.579 16.071 C 2.745 16.262,2.874 16.340,3.085 16.380 C 3.404 16.440,3.811 16.199,3.965 15.860 C 4.064 15.644,4.064 15.196,3.965 14.980 C 3.836 14.696,3.474 14.440,3.200 14.440 C 2.956 14.440,2.522 14.725,2.458 14.927 C 2.444 14.970,2.424 14.997,2.414 14.987 C 2.403 14.977,2.440 14.878,2.495 14.769 C 2.675 14.415,3.089 14.132,3.443 14.123 C 3.499 14.121,3.636 14.147,3.747 14.180 M3.071 15.502 C 3.245 15.624,3.156 15.960,2.950 15.960 C 2.741 15.960,2.644 15.676,2.800 15.520 C 2.896 15.424,2.954 15.420,3.071 15.502 " stroke="none" fill="black" fill-rule="evenodd"></path></svg>