<svg role="img" viewBox="0 0 24 24" xmlns="http://www.w3.org/2000/svg"><path d="M11.488 0.042 C 11.062 0.118,10.657 0.331,8.480 1.624 C 7.259 2.349,5.471 3.409,4.506 3.981 C 2.600 5.110,2.364 5.282,2.023 5.795 C 1.822 6.098,1.635 6.538,1.554 6.900 C 1.510 7.094,1.500 8.077,1.500 12.040 L 1.501 16.940 1.589 17.250 C 1.690 17.605,1.905 18.054,2.106 18.329 C 2.443 18.787,2.599 18.889,6.626 21.278 C 8.757 22.542,10.617 23.635,10.760 23.707 C 11.447 24.050,12.291 24.087,13.020 23.804 C 13.174 23.744,14.515 22.974,16.000 22.093 C 17.485 21.212,19.273 20.151,19.974 19.736 C 21.283 18.959,21.603 18.725,21.894 18.329 C 22.095 18.055,22.310 17.606,22.411 17.250 L 22.499 16.940 22.499 12.000 L 22.499 7.060 22.411 6.750 C 22.240 6.148,21.938 5.649,21.502 5.251 C 21.254 5.026,20.523 4.584,14.634 1.097 C 12.984 0.121,12.803 0.043,12.122 0.019 C 11.890 0.011,11.605 0.021,11.488 0.042 M12.335 0.561 C 12.487 0.583,12.713 0.643,12.838 0.693 C 12.964 0.744,14.838 1.836,17.003 3.121 C 20.051 4.929,20.993 5.507,21.176 5.678 C 21.544 6.024,21.812 6.484,21.898 6.920 L 21.926 7.060 21.845 6.933 C 21.801 6.863,21.686 6.760,21.589 6.703 C 21.371 6.575,21.018 6.563,20.730 6.673 C 20.470 6.773,12.925 11.437,12.595 11.702 C 12.079 12.117,11.826 12.569,11.755 13.203 C 11.733 13.408,11.722 15.372,11.729 18.083 L 11.740 22.620 11.831 22.840 C 11.937 23.098,12.016 23.199,12.213 23.332 L 12.357 23.430 12.164 23.456 C 11.909 23.490,11.443 23.421,11.164 23.308 C 10.979 23.233,8.715 21.902,3.706 18.924 C 2.866 18.425,2.548 18.132,2.305 17.635 C 2.025 17.060,2.040 17.386,2.040 12.000 C 2.040 6.609,2.024 6.941,2.308 6.360 C 2.414 6.141,2.535 5.978,2.757 5.757 C 3.047 5.467,3.232 5.352,7.000 3.119 C 9.167 1.834,11.043 0.742,11.169 0.690 C 11.539 0.540,11.907 0.499,12.335 0.561 M15.136 13.263 C 15.149 13.298,15.160 13.467,15.160 13.639 L 15.160 13.952 15.346 13.896 C 15.543 13.837,15.751 13.824,15.857 13.864 C 15.938 13.896,15.936 13.994,15.843 14.352 C 15.747 14.720,15.708 14.769,15.536 14.737 C 15.349 14.702,15.036 14.785,14.820 14.928 C 14.405 15.203,14.269 15.811,14.590 15.957 C 14.647 15.983,14.873 16.020,15.091 16.039 C 15.621 16.085,15.815 16.182,15.969 16.476 C 16.068 16.666,16.080 16.730,16.079 17.075 C 16.079 17.394,16.059 17.516,15.966 17.785 C 15.837 18.155,15.557 18.601,15.318 18.817 L 15.156 18.964 15.168 19.318 C 15.182 19.721,15.163 19.758,14.863 19.915 C 14.595 20.056,14.560 20.024,14.560 19.637 C 14.560 19.317,14.558 19.311,14.470 19.339 C 14.421 19.354,14.235 19.376,14.059 19.388 C 13.625 19.416,13.610 19.397,13.722 18.952 C 13.768 18.766,13.822 18.589,13.841 18.558 C 13.867 18.517,13.946 18.505,14.140 18.513 C 14.481 18.529,14.741 18.442,14.978 18.233 C 15.282 17.966,15.418 17.597,15.321 17.303 C 15.257 17.109,15.129 17.051,14.697 17.019 C 14.265 16.988,14.117 16.946,13.953 16.808 C 13.768 16.652,13.682 16.428,13.681 16.098 C 13.679 15.534,13.901 14.990,14.310 14.556 L 14.560 14.290 14.560 13.933 C 14.560 13.527,14.572 13.502,14.860 13.325 C 15.092 13.182,15.103 13.179,15.136 13.263 M19.150 17.643 C 19.156 17.784,19.146 17.922,19.129 17.948 C 19.086 18.014,17.195 19.160,17.129 19.160 C 17.089 19.160,17.079 19.085,17.088 18.850 L 17.100 18.540 18.080 17.950 C 18.618 17.625,19.077 17.366,19.100 17.373 C 19.122 17.380,19.145 17.502,19.150 17.643 " stroke="none" fill="black" fill-rule="evenodd"></path></svg>