<svg role="img" viewBox="0 0 24 24" xmlns="http://www.w3.org/2000/svg"><path d="M13.120 0.172 C 13.065 0.200,12.999 0.267,12.974 0.321 C 12.900 0.479,12.386 10.620,12.440 10.860 C 12.535 11.282,12.776 11.522,13.286 11.702 C 13.403 11.743,14.745 11.809,18.561 11.961 C 22.847 12.131,23.698 12.156,23.789 12.112 C 23.929 12.045,24.019 11.882,23.987 11.757 C 23.973 11.704,23.087 10.700,22.017 9.527 C 20.529 7.896,20.056 7.401,20.006 7.422 C 19.636 7.575,18.967 7.623,18.560 7.525 C 17.673 7.313,16.922 6.575,16.700 5.702 C 16.577 5.213,16.641 4.471,16.840 4.080 L 16.920 3.923 15.204 2.047 C 14.197 0.946,13.449 0.161,13.394 0.146 C 13.264 0.111,13.234 0.114,13.120 0.172 M5.503 1.877 C 5.447 1.938,3.920 7.124,3.920 7.252 C 3.920 7.271,4.002 7.380,4.102 7.494 C 4.341 7.765,4.577 8.242,4.662 8.624 C 4.798 9.236,4.668 9.944,4.317 10.501 C 4.004 10.995,3.394 11.440,2.857 11.564 L 2.655 11.610 1.906 14.215 C 1.494 15.648,1.158 16.852,1.159 16.892 C 1.163 17.122,1.361 17.275,1.591 17.226 C 1.733 17.197,10.536 12.392,10.720 12.245 C 11.081 11.955,11.216 11.432,11.052 10.960 C 10.958 10.689,6.112 2.063,5.969 1.910 C 5.841 1.774,5.610 1.758,5.503 1.877 M18.418 3.033 C 17.463 3.366,16.871 4.246,16.933 5.240 C 16.993 6.209,17.647 7.001,18.582 7.241 C 19.752 7.540,20.922 6.867,21.263 5.700 C 21.361 5.365,21.353 4.819,21.245 4.480 C 21.011 3.743,20.417 3.169,19.698 2.981 C 19.310 2.880,18.798 2.901,18.418 3.033 M1.599 7.035 C 0.579 7.361,-0.073 8.311,0.014 9.343 C 0.060 9.890,0.306 10.390,0.715 10.769 C 2.076 12.029,4.260 11.168,4.422 9.308 C 4.511 8.286,3.790 7.285,2.772 7.020 C 2.459 6.938,1.878 6.946,1.599 7.035 M11.936 13.118 C 11.806 13.183,11.626 13.314,11.536 13.408 C 11.289 13.667,6.116 22.141,6.090 22.329 C 6.066 22.508,6.150 22.659,6.294 22.695 C 6.386 22.718,11.607 21.526,11.665 21.469 C 11.678 21.456,11.712 21.321,11.741 21.169 C 11.880 20.442,12.396 19.766,13.074 19.423 C 13.768 19.072,14.676 19.082,15.373 19.448 C 15.603 19.570,16.106 20.024,16.301 20.287 L 16.380 20.394 18.580 19.878 C 19.790 19.594,20.946 19.323,21.149 19.276 C 21.416 19.214,21.547 19.162,21.619 19.090 C 21.747 18.962,21.751 18.777,21.630 18.634 C 21.580 18.576,20.937 18.152,20.200 17.692 C 19.463 17.231,17.528 16.016,15.900 14.992 C 14.272 13.968,12.854 13.101,12.748 13.065 C 12.454 12.965,12.211 12.981,11.936 13.118 M13.680 19.503 C 13.266 19.592,12.936 19.777,12.619 20.097 C 12.168 20.551,11.960 21.045,11.960 21.660 C 11.960 22.278,12.169 22.773,12.618 23.220 C 13.495 24.092,14.831 24.093,15.704 23.223 C 16.154 22.775,16.360 22.285,16.360 21.660 C 16.360 21.031,16.130 20.489,15.684 20.070 C 15.361 19.766,15.105 19.623,14.697 19.519 C 14.339 19.428,14.048 19.423,13.680 19.503 " stroke="none" fill="black" fill-rule="evenodd"></path></svg>