<svg role="img" xmlns="http://www.w3.org/2000/svg" viewBox="0 0 24 24"><path d="M5.400 1.865 C 3.112 2.156,1.279 3.526,0.451 5.564 C -0.372 7.591,-0.036 9.886,1.332 11.580 C 1.628 11.946,9.117 19.426,10.570 20.806 L 12.000 22.165 13.450 20.786 C 14.248 20.028,16.639 17.665,18.764 15.534 C 22.381 11.907,22.647 11.632,22.920 11.220 C 23.402 10.495,23.734 9.674,23.907 8.780 C 24.013 8.233,24.003 7.075,23.887 6.532 C 23.383 4.176,21.587 2.439,19.153 1.953 C 18.512 1.825,17.449 1.826,16.840 1.956 C 16.252 2.081,15.781 2.246,15.276 2.504 C 14.550 2.875,14.229 3.133,13.070 4.276 L 12.000 5.332 10.930 4.276 C 9.772 3.134,9.448 2.874,8.729 2.507 C 7.871 2.070,7.140 1.887,6.160 1.863 C 5.819 1.854,5.477 1.855,5.400 1.865 M6.681 5.636 C 7.143 5.780,7.386 5.966,8.403 6.955 C 8.931 7.469,9.359 7.911,9.352 7.936 C 9.345 7.962,8.615 8.701,7.728 9.579 L 6.116 11.175 5.142 10.202 C 4.108 9.169,3.948 8.963,3.797 8.480 C 3.703 8.181,3.685 7.621,3.759 7.300 C 3.947 6.478,4.670 5.772,5.520 5.580 C 5.850 5.505,6.334 5.529,6.681 5.636 M18.460 5.580 C 19.321 5.761,20.045 6.460,20.242 7.300 C 20.317 7.618,20.299 8.179,20.204 8.480 C 20.029 9.034,20.070 8.990,15.919 13.141 L 12.005 17.055 10.360 15.440 L 8.715 13.825 10.048 12.490 C 10.780 11.755,12.568 9.980,14.020 8.544 C 16.521 6.071,16.676 5.926,16.960 5.786 C 17.470 5.535,17.939 5.471,18.460 5.580 " stroke="none" fill="black" fill-rule="evenodd"></path></svg>