<svg role="img" viewBox="0 0 24 24" xmlns="http://www.w3.org/2000/svg"><path d="M11.180 0.046 C 10.032 0.145,8.783 0.450,7.674 0.902 C 4.745 2.095,2.335 4.505,1.142 7.434 C -1.239 13.277,1.252 19.913,6.888 22.744 C 9.455 24.033,12.588 24.345,15.500 23.600 C 19.905 22.475,22.889 19.090,23.599 14.414 C 23.807 13.039,23.799 11.318,23.579 10.370 L 23.558 10.280 17.899 10.280 L 12.240 10.280 12.240 12.340 L 12.240 14.400 15.640 14.400 C 18.333 14.400,19.040 14.410,19.040 14.450 C 19.040 14.539,18.849 15.214,18.760 15.440 C 18.062 17.213,16.644 18.560,14.839 19.164 C 13.901 19.477,13.139 19.581,12.021 19.548 C 10.964 19.517,10.190 19.345,9.270 18.937 C 5.399 17.222,3.703 12.536,5.560 8.689 C 6.476 6.790,8.114 5.363,10.064 4.764 C 10.905 4.506,11.209 4.464,12.240 4.462 C 13.069 4.460,13.234 4.471,13.638 4.553 C 14.891 4.806,16.025 5.360,16.862 6.127 L 17.023 6.275 18.562 4.795 C 19.408 3.981,20.142 3.274,20.192 3.224 L 20.285 3.134 19.939 2.837 C 18.011 1.179,15.813 0.260,13.260 0.042 C 12.703 -0.006,11.754 -0.004,11.180 0.046 " stroke="none" fill="black" fill-rule="evenodd"></path></svg>