<svg role="img" viewBox="0 0 24 24" xmlns="http://www.w3.org/2000/svg"><path d="M1.186 0.086 C 1.172 0.138,1.161 5.472,1.161 11.940 C 1.160 23.058,1.164 23.707,1.230 23.836 C 1.269 23.911,1.316 23.972,1.336 23.972 C 1.356 23.972,3.935 21.256,7.067 17.937 L 12.762 11.903 12.346 11.482 C 12.118 11.250,9.649 8.702,6.860 5.820 C 0.495 -0.758,1.217 -0.028,1.186 0.086 M3.340 0.524 C 3.516 0.711,5.880 3.161,8.593 5.969 L 13.526 11.073 13.818 10.767 C 14.820 9.715,16.480 7.936,16.480 7.912 C 16.480 7.897,16.188 7.719,15.830 7.517 C 15.048 7.075,3.360 0.387,3.160 0.268 C 3.052 0.203,3.092 0.261,3.340 0.524 M15.947 10.163 C 15.074 11.088,14.360 11.859,14.360 11.877 C 14.360 11.908,17.473 15.160,17.503 15.160 C 17.516 15.160,20.040 13.728,22.076 12.566 C 22.705 12.208,22.861 12.045,22.827 11.786 C 22.814 11.691,22.763 11.586,22.693 11.513 C 22.631 11.448,22.040 11.086,21.380 10.710 C 19.973 9.907,17.756 8.625,17.625 8.540 C 17.536 8.481,17.499 8.518,15.947 10.163 M8.860 17.665 C 4.534 22.270,3.955 22.893,4.060 22.832 C 4.098 22.810,12.838 17.830,15.292 16.432 L 16.483 15.753 15.432 14.671 C 14.853 14.076,14.194 13.394,13.966 13.155 C 13.739 12.916,13.541 12.721,13.526 12.723 C 13.512 12.725,11.412 14.949,8.860 17.665 " stroke="none" fill="black" fill-rule="evenodd"></path></svg>