<svg role="img" xmlns="http://www.w3.org/2000/svg" viewBox="0 0 24 24"><path d="M2.847 1.702 C 2.427 1.816,2.004 2.160,1.820 2.539 C 1.766 2.649,1.332 4.216,0.857 6.020 C 0.053 9.066,-0.007 9.318,0.014 9.548 C 0.128 10.798,1.020 11.854,2.240 12.185 C 2.567 12.273,3.363 12.284,3.680 12.205 C 4.423 12.019,5.094 11.545,5.501 10.920 C 5.761 10.521,5.874 10.220,5.973 9.660 C 5.992 9.557,6.010 9.608,6.097 10.005 C 6.321 11.021,7.184 11.899,8.240 12.185 C 8.567 12.273,9.363 12.284,9.680 12.205 C 10.758 11.935,11.629 11.085,11.901 10.038 C 11.933 9.912,11.960 9.758,11.960 9.696 C 11.960 9.523,12.020 9.633,12.073 9.904 C 12.183 10.467,12.498 11.019,12.956 11.451 C 13.298 11.774,13.627 11.970,14.098 12.131 C 14.430 12.245,14.503 12.255,14.980 12.256 C 15.569 12.256,15.842 12.199,16.304 11.978 C 16.897 11.695,17.416 11.175,17.700 10.581 C 17.834 10.301,17.960 9.885,17.960 9.724 C 17.960 9.678,17.978 9.640,18.000 9.640 C 18.022 9.640,18.040 9.678,18.040 9.724 C 18.040 9.885,18.166 10.301,18.300 10.581 C 18.670 11.354,19.397 11.955,20.240 12.185 C 20.599 12.282,21.401 12.282,21.760 12.185 C 22.982 11.852,23.873 10.796,23.986 9.548 C 24.006 9.318,23.945 9.062,23.143 6.020 C 22.667 4.216,22.233 2.648,22.179 2.535 C 21.984 2.135,21.536 1.789,21.076 1.682 C 20.960 1.656,17.859 1.643,11.980 1.644 C 4.373 1.645,3.029 1.654,2.847 1.702 M5.805 11.262 C 5.617 11.542,5.209 11.959,4.923 12.163 C 4.657 12.354,4.138 12.589,3.784 12.680 C 3.231 12.820,2.396 12.778,1.845 12.582 C 1.749 12.548,1.663 12.520,1.655 12.520 C 1.647 12.520,1.640 14.417,1.640 16.736 C 1.640 20.762,1.643 20.964,1.716 21.196 C 1.866 21.679,2.158 22.011,2.623 22.229 L 2.860 22.340 12.000 22.340 L 21.140 22.340 21.377 22.229 C 21.842 22.011,22.134 21.679,22.284 21.196 C 22.357 20.964,22.360 20.762,22.360 16.736 C 22.360 14.417,22.353 12.520,22.345 12.520 C 22.337 12.520,22.251 12.548,22.155 12.582 C 21.604 12.778,20.770 12.820,20.216 12.680 C 19.382 12.468,18.587 11.897,18.137 11.186 C 18.073 11.084,18.011 11.000,18.000 11.000 C 17.989 11.001,17.913 11.105,17.831 11.232 C 17.418 11.873,16.725 12.390,15.940 12.642 C 15.514 12.778,14.691 12.799,14.236 12.684 C 13.833 12.582,13.395 12.380,13.063 12.144 C 12.774 11.937,12.307 11.456,12.140 11.190 C 12.074 11.086,12.011 11.001,12.000 11.001 C 11.989 11.002,11.901 11.119,11.805 11.262 C 11.617 11.542,11.209 11.959,10.923 12.163 C 10.657 12.354,10.138 12.589,9.784 12.680 C 9.348 12.790,8.652 12.790,8.216 12.680 C 7.382 12.468,6.587 11.897,6.137 11.186 C 6.073 11.084,6.011 11.001,6.000 11.001 C 5.989 11.002,5.901 11.119,5.805 11.262 M18.503 14.841 C 18.662 14.881,18.889 14.963,19.006 15.022 C 19.245 15.142,19.720 15.468,19.720 15.513 C 19.720 15.529,19.533 15.728,19.304 15.956 L 18.888 16.371 18.713 16.245 C 18.182 15.864,17.524 15.828,16.912 16.148 C 16.173 16.533,15.793 17.436,16.034 18.230 C 16.193 18.753,16.572 19.188,17.053 19.401 C 17.440 19.572,18.111 19.563,18.509 19.381 C 18.782 19.256,19.092 18.963,19.218 18.708 C 19.400 18.343,19.434 18.360,18.520 18.360 L 17.720 18.360 17.720 17.780 L 17.720 17.200 19.138 17.200 L 20.555 17.200 20.583 17.386 C 20.623 17.653,20.577 18.380,20.502 18.660 C 20.246 19.618,19.595 20.303,18.660 20.600 C 18.263 20.726,17.525 20.755,17.095 20.662 C 16.091 20.445,15.251 19.706,14.907 18.736 C 14.347 17.161,15.180 15.438,16.761 14.899 C 17.320 14.709,17.910 14.689,18.503 14.841 " stroke="none" fill="black" fill-rule="evenodd"></path></svg>