<svg role="img" viewBox="0 0 24 24" xmlns="http://www.w3.org/2000/svg"><path d="M11.380 0.024 C 10.404 0.164,9.823 0.329,9.140 0.660 C 7.154 1.621,5.793 3.518,5.502 5.730 C 5.472 5.961,5.418 6.206,5.383 6.274 C 5.348 6.341,5.171 6.508,4.990 6.645 C 4.808 6.781,4.480 7.075,4.260 7.297 C 2.542 9.036,1.944 11.591,2.704 13.940 C 2.857 14.414,3.282 15.248,3.590 15.679 C 3.937 16.167,4.637 16.866,5.121 17.209 C 5.838 17.717,6.728 18.118,7.500 18.282 C 8.152 18.421,8.399 18.372,8.577 18.069 C 8.884 17.544,9.103 16.382,8.949 16.084 C 8.878 15.944,8.494 15.747,7.963 15.578 C 7.708 15.496,7.392 15.376,7.260 15.310 C 6.215 14.787,5.475 13.850,5.194 12.692 C 5.087 12.251,5.078 11.488,5.175 11.049 C 5.411 9.983,6.068 9.078,7.019 8.510 C 7.377 8.297,7.743 7.928,7.911 7.612 C 8.081 7.291,8.200 6.820,8.200 6.464 C 8.201 5.431,8.637 4.465,9.442 3.707 C 10.494 2.717,11.965 2.404,13.337 2.878 C 14.306 3.213,15.199 4.050,15.604 5.003 C 15.790 5.439,15.875 5.835,15.918 6.455 C 15.964 7.103,15.995 7.239,16.186 7.604 C 16.362 7.942,16.699 8.278,17.043 8.459 C 17.888 8.903,18.559 9.744,18.866 10.742 C 18.967 11.072,18.976 11.154,18.978 11.800 C 18.980 12.349,18.965 12.555,18.910 12.754 C 18.498 14.245,17.427 15.272,15.940 15.602 C 15.830 15.626,15.470 15.662,15.140 15.681 C 14.496 15.719,14.144 15.780,13.700 15.932 C 12.377 16.386,11.294 17.531,10.905 18.884 C 10.737 19.467,10.711 19.883,10.731 21.664 C 10.753 23.715,10.765 23.765,11.238 23.911 C 11.549 24.007,12.565 24.006,12.883 23.910 C 13.362 23.764,13.367 23.736,13.398 21.460 C 13.420 19.900,13.433 19.595,13.488 19.455 C 13.765 18.750,14.420 18.320,15.219 18.320 C 16.096 18.320,17.162 18.061,17.987 17.646 C 20.091 16.591,21.421 14.610,21.600 12.266 C 21.735 10.486,21.110 8.729,19.859 7.370 C 19.569 7.056,18.899 6.485,18.854 6.514 C 18.811 6.542,18.601 6.303,18.563 6.183 C 18.542 6.116,18.513 5.952,18.499 5.820 C 18.455 5.414,18.280 4.679,18.131 4.280 C 17.316 2.088,15.438 0.518,13.130 0.099 C 12.794 0.038,11.629 -0.012,11.380 0.024 " stroke="none" fill="black" fill-rule="evenodd"></path></svg>