<svg role="img" viewBox="0 0 24 24" xmlns="http://www.w3.org/2000/svg"><path d="M11.620 0.076 C 10.648 0.359,8.071 1.673,5.700 3.093 C 3.108 4.645,1.711 5.673,1.542 6.153 C 1.281 6.895,1.143 8.926,1.143 12.000 C 1.143 14.597,1.232 16.318,1.421 17.347 C 1.514 17.852,1.579 17.996,1.832 18.253 C 3.165 19.610,10.173 23.631,11.783 23.963 C 11.994 24.006,12.063 24.004,12.303 23.944 C 12.750 23.831,13.506 23.503,14.660 22.920 C 17.749 21.359,21.370 19.101,22.190 18.224 C 22.457 17.939,22.516 17.783,22.616 17.100 C 22.791 15.905,22.856 14.518,22.856 12.000 C 22.856 9.482,22.791 8.095,22.616 6.900 C 22.516 6.214,22.458 6.062,22.185 5.770 C 21.022 4.527,14.254 0.597,12.384 0.078 C 12.045 -0.016,11.934 -0.016,11.620 0.076 M9.392 5.088 C 9.561 5.247,9.975 5.641,10.310 5.965 C 10.973 6.606,11.015 6.679,10.815 6.837 C 10.725 6.908,10.653 6.920,10.335 6.920 L 9.960 6.920 9.960 8.920 L 9.960 10.920 12.000 10.920 L 14.040 10.920 14.040 8.940 C 14.040 7.013,14.042 6.958,14.120 6.880 C 14.195 6.805,14.253 6.800,15.040 6.800 C 15.827 6.800,15.885 6.805,15.960 6.880 C 16.039 6.959,16.040 7.013,16.040 12.016 L 16.040 17.073 16.463 17.086 C 16.827 17.098,16.895 17.111,16.943 17.178 C 17.088 17.376,17.054 17.419,16.054 18.321 C 15.297 19.003,15.085 19.173,14.996 19.173 C 14.906 19.173,14.759 19.055,14.258 18.577 C 13.915 18.248,13.509 17.863,13.357 17.719 C 13.042 17.423,13.006 17.304,13.185 17.163 C 13.275 17.092,13.347 17.080,13.666 17.080 L 14.041 17.080 14.030 15.010 L 14.020 12.940 11.990 12.930 L 9.960 12.919 9.960 14.980 C 9.960 16.987,9.958 17.042,9.880 17.120 C 9.805 17.195,9.747 17.200,8.960 17.200 C 8.173 17.200,8.115 17.195,8.040 17.120 C 7.961 17.041,7.960 16.987,7.960 11.980 L 7.960 6.920 7.597 6.920 C 7.131 6.920,7.002 6.858,7.001 6.635 C 7.000 6.548,7.167 6.379,7.962 5.665 C 8.540 5.145,8.956 4.800,9.004 4.800 C 9.048 4.800,9.222 4.929,9.392 5.088 " stroke="none" fill="black" fill-rule="evenodd"></path></svg>