<svg role="img" viewBox="0 0 24 24" xmlns="http://www.w3.org/2000/svg"><path d="M0.223 0.484 C 0.209 0.757,0.153 2.133,0.098 3.543 L -0.000 6.106 1.460 9.054 L 2.920 12.001 1.476 14.888 L 0.032 17.775 0.010 20.744 L -0.012 23.712 0.244 23.735 C 0.385 23.748,1.763 23.812,3.306 23.878 L 6.112 23.997 9.056 22.539 L 12.000 21.080 14.887 22.523 L 17.773 23.967 20.762 23.990 L 23.751 24.012 23.776 23.596 C 23.790 23.367,23.846 21.990,23.900 20.535 L 23.998 17.890 22.539 14.944 L 21.080 11.999 22.523 9.114 L 23.966 6.229 23.989 3.260 L 24.013 0.291 23.902 0.146 L 23.791 0.000 20.842 0.000 L 17.893 0.000 14.945 1.459 L 11.998 2.919 9.112 1.476 L 6.227 0.033 3.238 0.010 L 0.249 -0.012 0.223 0.484 M8.040 1.443 C 9.129 1.992,9.984 2.433,9.940 2.422 C 9.045 2.207,2.137 0.470,2.124 0.458 C 2.115 0.448,2.996 0.441,4.083 0.442 L 6.060 0.444 8.040 1.443 M21.876 0.458 C 21.863 0.470,14.955 2.207,14.060 2.422 C 14.016 2.433,14.871 1.992,15.960 1.443 L 17.940 0.444 19.917 0.442 C 21.004 0.441,21.885 0.448,21.876 0.458 M6.110 1.927 L 11.567 3.293 7.435 7.425 C 5.163 9.697,3.299 11.553,3.294 11.547 C 3.279 11.532,0.560 0.645,0.560 0.600 C 0.560 0.578,0.581 0.560,0.607 0.560 C 0.632 0.560,3.109 1.175,6.110 1.927 M23.440 0.600 C 23.440 0.622,22.825 3.099,22.074 6.104 L 20.708 11.568 16.574 7.434 C 14.300 5.160,12.462 3.292,12.490 3.283 C 12.622 3.238,23.309 0.567,23.370 0.564 C 23.409 0.562,23.440 0.578,23.440 0.600 M1.439 6.001 C 1.969 8.123,2.412 9.896,2.422 9.940 C 2.433 9.984,1.992 9.129,1.443 8.040 L 0.444 6.060 0.442 4.083 C 0.441 2.996,0.448 2.115,0.458 2.124 C 0.467 2.134,0.909 3.879,1.439 6.001 M22.560 8.029 C 22.009 9.124,21.567 9.984,21.578 9.940 C 21.588 9.896,22.034 8.114,22.568 5.980 L 23.540 2.100 23.550 4.069 L 23.561 6.039 22.560 8.029 M16.250 7.711 C 18.577 10.038,20.480 11.960,20.480 11.981 C 20.480 12.003,18.572 13.928,16.240 16.260 L 12.000 20.500 7.760 16.260 C 5.428 13.928,3.520 12.003,3.520 11.981 C 3.520 11.943,11.962 3.480,12.000 3.480 C 12.011 3.480,13.923 5.384,16.250 7.711 M11.545 20.708 C 11.516 20.737,0.587 23.440,0.569 23.423 C 0.558 23.412,1.166 20.934,1.921 17.917 L 3.292 12.432 7.424 16.564 C 9.697 18.837,11.552 20.702,11.545 20.708 M22.080 17.921 C 22.834 20.936,23.440 23.413,23.427 23.427 C 23.413 23.440,20.934 22.834,17.917 22.079 L 12.432 20.708 16.566 16.574 C 18.840 14.300,20.702 12.440,20.705 12.440 C 20.708 12.440,21.327 14.907,22.080 17.921 M1.447 17.961 L 0.460 21.900 0.448 19.940 L 0.435 17.980 1.426 15.992 C 1.971 14.899,2.421 14.008,2.426 14.013 C 2.431 14.017,1.990 15.794,1.447 17.961 M23.550 19.931 L 23.540 21.900 22.568 18.020 C 22.034 15.886,21.588 14.104,21.578 14.060 C 21.567 14.016,22.009 14.876,22.560 15.971 L 23.561 17.961 23.550 19.931 M8.040 22.560 L 6.060 23.556 4.060 23.554 L 2.060 23.553 6.000 22.560 C 8.167 22.014,9.958 21.567,9.980 21.566 C 10.002 21.565,9.129 22.012,8.040 22.560 M18.080 22.584 L 21.940 23.553 19.940 23.554 L 17.940 23.556 15.960 22.558 C 14.871 22.010,14.034 21.573,14.100 21.588 C 14.166 21.602,15.957 22.050,18.080 22.584 " stroke="none" fill="black" fill-rule="evenodd"></path></svg>