<svg role="img" viewBox="0 0 24 24" xmlns="http://www.w3.org/2000/svg"><path d="M13.040 10.323 C 11.579 10.444,10.251 10.892,9.581 11.490 C 9.332 11.712,9.120 12.093,9.120 12.320 C 9.120 12.941,9.725 13.377,10.865 13.578 C 11.532 13.696,12.562 13.741,13.412 13.689 C 15.046 13.588,16.076 13.304,16.739 12.772 L 16.977 12.580 15.724 12.569 L 14.471 12.559 14.196 12.696 C 14.045 12.772,13.817 12.856,13.691 12.882 C 13.385 12.945,12.489 12.910,12.214 12.824 C 11.956 12.743,11.760 12.537,11.760 12.346 C 11.760 12.042,12.133 11.557,12.518 11.361 C 12.833 11.201,13.254 11.120,13.779 11.120 C 14.338 11.120,14.622 11.184,14.848 11.363 L 14.995 11.480 16.218 11.480 C 17.400 11.480,17.440 11.477,17.440 11.403 C 17.440 11.066,17.030 10.714,16.438 10.544 C 15.724 10.339,14.108 10.234,13.040 10.323 M1.401 10.510 C 1.337 10.648,0.225 13.106,0.098 13.391 L 0.004 13.601 1.309 13.591 L 2.615 13.580 2.885 12.960 L 3.156 12.340 4.440 12.329 C 5.147 12.324,5.717 12.333,5.707 12.349 C 5.679 12.395,5.160 13.568,5.160 13.585 C 5.160 13.593,5.750 13.600,6.470 13.600 L 7.780 13.600 8.469 12.070 C 8.847 11.228,9.169 10.508,9.183 10.470 C 9.207 10.404,9.129 10.400,7.890 10.400 L 6.571 10.400 6.336 10.939 L 6.100 11.478 4.830 11.479 C 4.131 11.480,3.560 11.470,3.560 11.459 C 3.560 11.447,3.659 11.219,3.780 10.953 C 3.901 10.686,4.000 10.453,4.000 10.434 C 4.000 10.415,3.427 10.400,2.726 10.400 L 1.453 10.400 1.401 10.510 M18.664 10.548 C 18.508 10.876,17.320 13.550,17.320 13.574 C 17.320 13.588,18.747 13.600,20.491 13.600 L 23.661 13.600 23.825 13.230 L 23.989 12.860 22.155 12.850 C 21.146 12.844,20.320 12.830,20.320 12.819 C 20.320 12.798,21.351 10.489,21.387 10.430 C 21.397 10.413,20.804 10.400,20.070 10.400 L 18.735 10.400 18.664 10.548 " stroke="none" fill="black" fill-rule="evenodd"></path></svg>