<svg role="img" viewBox="0 0 24 24" xmlns="http://www.w3.org/2000/svg"><path d="M11.768 0.138 C 11.575 0.312,11.424 0.619,11.310 1.068 C 11.233 1.374,11.221 1.524,11.222 2.220 C 11.222 2.817,11.238 3.083,11.285 3.268 L 11.349 3.517 11.174 3.538 C 11.078 3.550,10.915 3.570,10.810 3.582 C 9.957 3.679,8.859 4.023,8.013 4.456 C 7.689 4.622,7.422 4.754,7.419 4.749 C 7.416 4.744,7.336 4.580,7.240 4.385 C 6.711 3.302,5.690 2.320,5.094 2.320 C 4.957 2.320,4.909 2.342,4.825 2.441 C 4.682 2.611,4.659 2.795,4.732 3.166 C 4.856 3.795,5.406 4.745,5.991 5.339 L 6.262 5.615 5.838 6.042 C 5.468 6.414,4.885 7.126,4.762 7.356 C 4.726 7.424,4.782 7.472,5.285 7.799 C 5.595 8.000,5.854 8.159,5.860 8.153 C 5.866 8.146,5.984 7.987,6.122 7.800 C 6.436 7.373,7.042 6.749,7.462 6.419 C 10.701 3.876,15.451 4.575,17.790 7.940 C 17.913 8.116,18.027 8.276,18.044 8.295 C 18.080 8.337,19.197 7.681,19.199 7.616 C 19.203 7.483,18.389 6.440,17.927 5.985 L 17.688 5.751 18.057 5.382 C 18.770 4.669,19.320 3.674,19.387 2.976 C 19.429 2.538,19.293 2.319,18.981 2.321 C 18.338 2.324,17.256 3.436,16.740 4.623 L 16.616 4.909 16.358 4.750 C 15.931 4.486,15.148 4.125,14.649 3.961 C 14.156 3.799,13.396 3.627,12.967 3.579 C 12.764 3.557,12.719 3.540,12.738 3.491 C 12.813 3.295,12.880 2.679,12.879 2.185 C 12.879 1.249,12.693 0.538,12.359 0.192 C 12.125 -0.052,11.991 -0.064,11.768 0.138 M0.498 9.090 C 0.488 9.117,0.484 10.517,0.490 12.200 L 0.500 15.260 1.330 15.271 L 2.160 15.282 2.160 14.041 L 2.160 12.800 3.080 12.800 L 4.000 12.800 4.000 14.040 L 4.000 15.280 4.820 15.280 L 5.640 15.280 5.640 12.160 L 5.640 9.040 4.820 9.040 L 4.000 9.040 4.000 10.200 L 4.000 11.360 3.080 11.360 L 2.160 11.360 2.160 10.200 L 2.160 9.040 1.339 9.040 C 0.719 9.040,0.513 9.052,0.498 9.090 M7.040 12.160 L 7.040 15.280 9.100 15.280 L 11.160 15.280 11.160 14.580 L 11.160 13.880 9.920 13.880 L 8.680 13.880 8.680 13.341 L 8.680 12.801 9.690 12.791 L 10.700 12.780 10.711 12.090 L 10.722 11.400 9.701 11.400 L 8.680 11.400 8.680 10.921 L 8.680 10.441 9.870 10.431 L 11.060 10.420 11.060 9.740 L 11.060 9.060 9.050 9.050 L 7.040 9.039 7.040 12.160 M12.360 12.160 L 12.360 15.280 14.360 15.280 L 16.360 15.280 16.360 14.580 L 16.360 13.880 15.180 13.880 L 14.000 13.880 14.000 11.460 L 14.000 9.040 13.180 9.040 L 12.360 9.040 12.360 12.160 M17.440 12.160 L 17.440 15.280 18.205 15.280 L 18.969 15.280 18.948 13.950 C 18.932 12.944,18.906 12.464,18.844 11.980 C 18.799 11.628,18.762 11.304,18.763 11.260 C 18.764 11.216,18.881 11.513,19.023 11.920 C 19.165 12.327,19.475 13.133,19.711 13.711 L 20.140 14.762 20.453 14.751 L 20.767 14.740 21.195 13.700 C 21.431 13.128,21.740 12.331,21.882 11.929 C 22.023 11.527,22.145 11.216,22.153 11.238 C 22.160 11.261,22.138 11.509,22.104 11.790 C 21.988 12.731,21.960 13.214,21.960 14.251 L 21.960 15.282 22.730 15.271 L 23.500 15.260 23.500 12.160 L 23.500 9.060 22.645 9.060 L 21.790 9.060 21.316 10.360 C 21.055 11.075,20.767 11.882,20.676 12.154 C 20.585 12.425,20.497 12.632,20.481 12.614 C 20.464 12.595,20.366 12.337,20.263 12.040 C 20.161 11.743,19.867 10.947,19.612 10.270 L 19.148 9.040 18.294 9.040 L 17.440 9.040 17.440 12.160 M5.477 16.504 C 5.204 16.693,4.958 16.868,4.932 16.894 C 4.865 16.958,5.214 17.414,5.753 17.969 L 6.170 18.397 5.909 18.679 C 5.569 19.046,5.193 19.598,4.995 20.020 C 4.836 20.360,4.680 20.884,4.680 21.076 C 4.681 21.443,4.884 21.663,5.180 21.617 C 5.753 21.527,6.673 20.633,7.177 19.678 C 7.280 19.481,7.373 19.320,7.382 19.320 C 7.391 19.320,7.546 19.401,7.725 19.500 C 8.699 20.039,9.794 20.398,10.840 20.522 C 11.049 20.546,11.239 20.572,11.263 20.579 C 11.294 20.588,11.290 20.686,11.251 20.906 C 11.167 21.373,11.204 22.477,11.316 22.900 C 11.491 23.563,11.749 23.920,12.051 23.920 C 12.336 23.920,12.590 23.556,12.764 22.900 C 12.876 22.480,12.913 21.336,12.830 20.871 L 12.775 20.563 12.878 20.543 C 12.934 20.532,13.070 20.511,13.180 20.497 C 14.198 20.366,15.681 19.814,16.473 19.271 C 16.568 19.206,16.651 19.159,16.657 19.166 C 16.663 19.174,16.734 19.319,16.815 19.489 C 17.268 20.440,18.176 21.406,18.784 21.583 C 19.028 21.654,19.157 21.631,19.286 21.493 C 19.369 21.405,19.380 21.355,19.379 21.067 C 19.378 20.856,19.352 20.662,19.304 20.520 C 19.086 19.878,18.645 19.170,18.127 18.631 L 17.791 18.283 18.172 17.862 C 18.553 17.440,18.920 16.979,18.920 16.922 C 18.920 16.890,17.965 16.215,17.868 16.178 C 17.835 16.165,17.738 16.255,17.619 16.408 C 17.154 17.008,16.468 17.641,15.840 18.050 C 13.279 19.717,10.004 19.598,7.541 17.749 C 7.159 17.462,6.404 16.708,6.180 16.389 C 6.092 16.264,6.010 16.161,5.997 16.161 C 5.985 16.160,5.751 16.315,5.477 16.504 " stroke="none" fill="black" fill-rule="evenodd"></path></svg>