<svg role="img" xmlns="http://www.w3.org/2000/svg" viewBox="0 0 24 24"><path d="M6.770 3.034 L 1.561 6.060 1.570 12.057 L 1.580 18.055 6.791 21.025 L 12.003 23.996 17.222 20.969 L 22.440 17.942 22.430 11.943 L 22.420 5.944 17.206 2.972 C 14.338 1.337,11.989 0.002,11.986 0.004 C 11.982 0.006,9.636 1.370,6.770 3.034 M8.770 6.718 L 9.080 6.887 9.080 8.984 L 9.080 11.080 12.000 11.080 L 14.920 11.080 14.920 8.984 L 14.920 6.889 15.370 6.639 C 15.617 6.501,15.838 6.388,15.860 6.388 C 15.882 6.388,16.102 6.501,16.350 6.639 L 16.800 6.889 16.800 12.001 L 16.800 17.113 16.351 17.363 C 16.104 17.501,15.884 17.613,15.861 17.612 C 15.839 17.612,15.617 17.499,15.370 17.361 L 14.920 17.111 14.920 15.036 L 14.920 12.960 12.000 12.960 L 9.080 12.960 9.080 15.037 L 9.080 17.113 8.631 17.363 C 8.384 17.501,8.164 17.613,8.141 17.612 C 8.119 17.612,7.897 17.499,7.650 17.361 L 7.200 17.111 7.200 11.999 L 7.200 6.887 7.670 6.628 L 8.140 6.369 8.300 6.459 C 8.388 6.509,8.600 6.625,8.770 6.718 " stroke="none" fill="black" fill-rule="evenodd"></path></svg>