<svg role="img" viewBox="0 0 24 24" xmlns="http://www.w3.org/2000/svg"><path d="M7.442 0.043 C 6.399 0.229,5.486 0.912,5.024 1.854 C 4.668 2.579,4.703 1.531,4.690 11.860 C 4.679 20.115,4.684 21.051,4.742 21.338 C 4.908 22.166,5.401 22.914,6.096 23.395 C 6.446 23.637,6.725 23.767,7.154 23.890 C 7.596 24.017,8.407 24.015,8.860 23.887 C 9.795 23.622,10.576 22.979,10.981 22.140 C 11.313 21.453,11.294 21.666,11.318 18.320 L 11.340 15.340 14.670 15.330 L 18.000 15.320 18.001 18.130 C 18.001 21.240,18.002 21.251,18.257 21.786 C 18.529 22.360,18.943 22.784,19.499 23.058 C 19.868 23.240,20.218 23.319,20.664 23.319 C 21.408 23.321,22.012 23.070,22.541 22.541 C 22.911 22.171,23.119 21.813,23.241 21.336 C 23.318 21.033,23.320 20.855,23.320 12.322 C 23.320 2.622,23.345 3.439,23.034 2.800 C 22.900 2.524,22.804 2.395,22.524 2.119 C 21.976 1.576,21.421 1.346,20.660 1.347 C 20.178 1.348,19.858 1.426,19.434 1.646 C 18.839 1.955,18.348 2.530,18.132 3.171 L 18.020 3.500 18.008 5.910 L 17.996 8.320 17.886 8.320 C 17.826 8.320,16.347 8.248,14.600 8.160 C 12.853 8.072,11.401 8.000,11.374 8.000 C 11.334 8.000,11.320 7.447,11.310 5.350 C 11.294 2.372,11.310 2.542,10.981 1.860 C 10.579 1.028,9.792 0.376,8.880 0.120 C 8.533 0.022,7.783 -0.018,7.442 0.043 M4.016 2.013 C 3.453 2.430,3.040 3.015,2.795 3.740 L 2.700 4.020 2.689 12.180 C 2.679 19.540,2.684 20.371,2.742 20.660 C 2.913 21.513,3.413 22.256,4.153 22.756 C 4.400 22.923,4.753 23.101,4.781 23.073 C 4.789 23.065,4.716 22.936,4.620 22.787 C 4.419 22.474,4.233 22.046,4.108 21.607 L 4.020 21.300 4.008 12.200 C 3.999 5.557,4.009 3.014,4.042 2.780 C 4.067 2.604,4.130 2.326,4.182 2.162 C 4.234 1.998,4.271 1.858,4.264 1.851 C 4.257 1.844,4.145 1.917,4.016 2.013 M17.495 2.297 C 16.738 2.676,16.229 3.329,16.063 4.134 C 16.012 4.378,16.000 4.737,16.000 5.995 L 16.000 7.553 16.290 7.575 C 16.450 7.587,16.745 7.606,16.947 7.618 L 17.314 7.639 17.330 5.569 C 17.348 3.217,17.348 3.215,17.700 2.502 C 17.797 2.305,17.871 2.138,17.864 2.131 C 17.857 2.124,17.691 2.198,17.495 2.297 M15.480 2.966 C 15.001 3.199,14.522 3.677,14.285 4.160 C 14.033 4.674,14.000 4.922,14.000 6.304 L 14.000 7.480 14.174 7.480 C 14.269 7.480,14.565 7.492,14.830 7.506 L 15.313 7.532 15.330 5.856 C 15.349 3.952,15.363 3.853,15.690 3.200 C 15.904 2.772,15.893 2.800,15.853 2.800 C 15.835 2.801,15.667 2.875,15.480 2.966 M2.038 3.326 C 1.376 3.820,0.946 4.468,0.760 5.251 C 0.680 5.589,0.679 5.681,0.689 12.447 L 0.700 19.300 0.829 19.680 C 0.991 20.158,1.278 20.627,1.619 20.971 C 1.867 21.222,2.228 21.505,2.260 21.473 C 2.268 21.466,2.240 21.358,2.198 21.234 C 1.994 20.629,2.000 20.903,2.000 12.340 C 2.000 3.786,1.993 4.095,2.197 3.438 C 2.241 3.298,2.272 3.179,2.267 3.173 C 2.261 3.168,2.158 3.237,2.038 3.326 M14.000 17.782 C 14.000 19.242,14.011 19.618,14.063 19.866 C 14.230 20.677,14.745 21.334,15.502 21.704 C 15.701 21.801,15.875 21.880,15.889 21.880 C 15.903 21.880,15.844 21.758,15.759 21.610 C 15.558 21.261,15.410 20.796,15.360 20.364 C 15.338 20.175,15.321 19.116,15.320 18.010 L 15.320 16.000 14.660 16.000 L 14.000 16.000 14.000 17.782 M16.009 18.250 C 16.021 20.303,16.029 20.519,16.096 20.720 C 16.293 21.312,16.616 21.775,17.068 22.115 C 17.315 22.300,17.818 22.556,17.857 22.516 C 17.866 22.507,17.788 22.327,17.684 22.115 C 17.340 21.416,17.344 21.457,17.329 18.550 L 17.316 16.000 16.656 16.000 L 15.996 16.000 16.009 18.250 " stroke="none" fill="black" fill-rule="evenodd"></path></svg>