<svg role="img" xmlns="http://www.w3.org/2000/svg" viewBox="0 0 24 24"><path d="M10.253 3.390 L 9.007 6.780 10.234 6.801 C 11.386 6.821,11.474 6.828,11.686 6.912 C 12.466 7.224,12.783 7.970,12.524 8.884 C 12.478 9.047,11.779 11.007,10.970 13.240 L 9.500 17.300 8.282 17.311 C 7.613 17.316,7.053 17.307,7.038 17.291 C 7.023 17.274,7.656 15.469,8.444 13.280 C 9.233 11.091,9.950 9.098,10.038 8.850 L 10.198 8.400 9.249 8.400 L 8.300 8.400 6.700 12.850 L 5.100 17.300 3.860 17.300 C 2.779 17.300,2.622 17.292,2.633 17.240 C 2.640 17.207,3.511 14.850,4.568 12.002 C 6.314 7.301,8.809 0.436,8.782 0.409 C 8.760 0.386,7.805 0.737,7.328 0.942 C 4.388 2.209,1.998 4.663,0.842 7.600 C -0.591 11.243,-0.164 15.391,1.973 18.592 C 2.908 19.992,3.985 21.066,5.400 22.007 C 6.037 22.431,7.247 23.040,7.960 23.295 C 8.486 23.483,9.268 23.705,9.298 23.676 C 9.307 23.666,9.990 21.787,10.815 19.499 C 11.641 17.212,13.008 13.423,13.854 11.080 L 15.392 6.820 17.806 6.808 C 20.389 6.796,20.529 6.804,20.913 6.992 C 21.190 7.127,21.489 7.455,21.604 7.750 C 21.711 8.022,21.731 8.599,21.644 8.860 C 21.351 9.727,18.849 16.417,18.774 16.533 C 18.518 16.928,18.077 17.218,17.635 17.282 C 17.495 17.302,16.640 17.319,15.736 17.319 L 14.092 17.320 12.850 20.650 L 11.607 23.980 11.974 23.993 C 13.130 24.033,14.755 23.755,16.034 23.296 C 16.635 23.081,17.835 22.499,18.340 22.178 C 19.306 21.563,20.368 20.650,21.074 19.825 C 22.656 17.980,23.625 15.784,23.927 13.360 C 23.995 12.814,23.995 11.186,23.927 10.640 C 23.474 7.007,21.475 3.832,18.400 1.862 C 17.844 1.506,16.667 0.930,16.021 0.699 C 14.756 0.246,13.350 0.002,12.000 0.000 L 11.500 0.000 10.253 3.390 M17.355 8.430 C 17.236 8.737,14.747 15.470,14.730 15.531 C 14.711 15.597,14.768 15.601,15.659 15.591 L 16.607 15.580 17.924 12.020 C 18.648 10.062,19.251 8.428,19.263 8.390 C 19.284 8.325,19.222 8.320,18.342 8.320 L 17.398 8.320 17.355 8.430 " stroke="none" fill="black" fill-rule="evenodd"></path></svg>