<svg role="img" viewBox="0 0 24 24" xmlns="http://www.w3.org/2000/svg"><path d="M7.180 0.503 C 4.628 0.774,2.535 0.997,2.530 0.998 C 2.524 0.999,2.524 4.908,2.530 9.685 L 2.540 18.371 7.271 21.186 L 12.002 24.001 16.731 21.188 L 21.460 18.374 21.470 9.689 L 21.480 1.004 21.350 0.982 C 21.104 0.941,12.020 -0.000,11.920 0.005 C 11.865 0.008,9.732 0.232,7.180 0.503 M16.000 1.662 C 18.233 1.894,20.101 2.092,20.150 2.103 L 20.240 2.122 20.240 5.365 C 20.240 8.109,20.231 8.605,20.185 8.587 C 20.154 8.576,18.305 7.490,16.075 6.175 C 13.845 4.859,11.992 3.783,11.958 3.783 C 11.925 3.783,10.077 4.867,7.852 6.191 C 5.628 7.516,3.797 8.600,3.784 8.600 C 3.771 8.600,3.760 7.142,3.760 5.361 L 3.760 2.122 3.850 2.103 C 3.900 2.093,5.731 1.897,7.920 1.667 C 10.109 1.437,11.909 1.247,11.920 1.244 C 11.931 1.242,13.767 1.429,16.000 1.662 M16.035 7.046 C 18.271 8.348,20.124 9.434,20.153 9.460 C 20.195 9.499,19.881 9.700,18.593 10.460 C 17.706 10.984,16.962 11.412,16.940 11.413 C 16.918 11.413,15.806 10.762,14.470 9.967 C 13.133 9.171,12.021 8.520,12.000 8.520 C 11.976 8.520,11.960 8.686,11.960 8.930 L 11.960 9.340 13.930 10.510 C 15.014 11.154,15.969 11.722,16.054 11.774 L 16.209 11.867 15.894 12.051 C 15.721 12.153,15.552 12.246,15.517 12.259 C 15.478 12.274,14.814 11.901,13.741 11.261 C 12.799 10.700,12.012 10.240,11.994 10.240 C 11.975 10.240,11.960 10.427,11.960 10.656 L 11.960 11.072 12.470 11.373 C 12.751 11.538,13.373 11.908,13.854 12.193 L 14.728 12.713 14.398 12.935 C 14.148 13.102,14.050 13.147,13.999 13.120 C 13.962 13.100,13.504 12.831,12.982 12.522 C 12.459 12.213,12.015 11.960,11.996 11.960 C 11.976 11.960,11.960 12.146,11.960 12.374 L 11.960 12.788 12.638 13.184 C 13.010 13.402,13.301 13.595,13.282 13.613 C 13.264 13.632,12.955 13.824,12.595 14.040 C 12.012 14.391,11.931 14.429,11.860 14.384 C 11.816 14.356,9.984 13.266,7.789 11.961 C 5.593 10.657,3.805 9.582,3.814 9.572 C 3.839 9.547,11.937 4.681,11.955 4.680 C 11.963 4.680,13.799 5.745,16.035 7.046 M20.239 14.050 L 20.238 17.660 16.120 20.108 L 12.002 22.556 8.591 20.526 C 6.715 19.410,4.861 18.309,4.471 18.079 L 3.762 17.660 3.761 14.110 C 3.760 12.158,3.770 10.560,3.781 10.560 C 3.793 10.560,5.638 11.653,7.881 12.988 L 11.960 15.417 11.960 15.851 C 11.960 16.089,11.947 16.277,11.930 16.268 C 11.826 16.210,6.523 13.056,6.450 13.009 L 6.360 12.951 6.360 13.390 L 6.360 13.829 9.180 15.520 L 12.000 17.211 12.000 17.671 C 12.000 18.033,11.989 18.121,11.950 18.090 C 11.922 18.067,11.567 17.852,11.160 17.610 C 10.060 16.958,6.640 14.924,6.490 14.832 L 6.360 14.753 6.360 15.187 L 6.361 15.620 9.177 17.315 C 10.726 18.247,12.008 19.001,12.026 18.990 C 12.045 18.980,13.331 18.212,14.885 17.284 L 17.710 15.597 17.691 13.768 L 17.672 11.940 18.926 11.193 C 19.616 10.782,20.194 10.445,20.210 10.443 C 20.227 10.441,20.240 12.064,20.239 14.050 " stroke="none" fill="black" fill-rule="evenodd"></path></svg>