<svg role="img" xmlns="http://www.w3.org/2000/svg" viewBox="0 0 24 24"><path d="M3.010 0.062 C 2.895 0.093,2.725 0.157,2.633 0.204 C 2.401 0.322,2.074 0.642,1.948 0.873 C 1.705 1.318,1.720 0.715,1.720 10.298 C 1.721 17.593,1.730 19.094,1.776 19.266 C 1.930 19.847,2.371 20.311,2.934 20.487 C 3.151 20.555,3.382 20.560,6.274 20.561 L 9.380 20.563 10.675 22.261 C 11.387 23.196,11.983 23.960,12.000 23.960 C 12.017 23.960,12.613 23.196,13.325 22.261 L 14.620 20.563 17.726 20.561 C 20.690 20.560,20.844 20.556,21.083 20.482 C 21.604 20.320,22.045 19.880,22.201 19.366 C 22.280 19.102,22.281 19.019,22.271 10.200 L 22.260 1.300 22.132 1.030 C 21.896 0.532,21.428 0.149,20.928 0.044 C 20.776 0.013,18.227 0.001,11.968 0.003 C 4.562 0.005,3.188 0.014,3.010 0.062 M7.720 6.430 L 7.720 9.419 7.884 9.169 C 8.349 8.457,8.988 7.980,9.727 7.793 C 10.005 7.723,10.133 7.713,10.500 7.732 C 12.146 7.817,13.207 8.611,13.610 10.060 C 13.698 10.378,13.699 10.406,13.711 13.770 L 13.723 17.160 12.441 17.160 L 11.160 17.160 11.159 14.450 C 11.159 11.576,11.151 11.442,10.965 11.022 C 10.851 10.765,10.555 10.465,10.311 10.360 C 10.002 10.227,9.704 10.213,9.369 10.314 C 8.492 10.581,7.921 11.407,7.761 12.644 C 7.740 12.807,7.722 13.889,7.721 15.050 L 7.720 17.160 6.440 17.160 L 5.160 17.160 5.160 10.300 L 5.160 3.440 6.440 3.440 L 7.720 3.440 7.720 6.430 M18.413 13.780 C 18.737 13.864,18.942 13.978,19.187 14.210 C 20.115 15.088,19.747 16.661,18.523 17.042 C 17.509 17.358,16.474 16.705,16.310 15.645 C 16.229 15.121,16.451 14.529,16.871 14.152 C 17.297 13.770,17.856 13.635,18.413 13.780 " stroke="none" fill="black" fill-rule="evenodd"></path></svg>