<svg role="img" viewBox="0 0 24 24" xmlns="http://www.w3.org/2000/svg"><path d="M11.280 5.867 C 8.833 5.944,6.424 6.419,4.522 7.201 C 1.324 8.516,-0.331 10.521,0.063 12.606 C 0.418 14.484,2.471 16.181,5.616 17.196 C 7.596 17.835,9.628 18.131,12.020 18.129 C 13.684 18.128,14.946 18.006,16.464 17.699 C 19.505 17.083,21.997 15.792,23.199 14.209 C 23.518 13.790,23.829 13.126,23.926 12.656 C 24.073 11.946,23.987 11.273,23.661 10.575 C 23.249 9.695,22.593 8.989,21.528 8.279 C 19.731 7.080,17.306 6.297,14.417 5.982 C 13.833 5.919,12.225 5.835,11.840 5.849 C 11.719 5.853,11.467 5.861,11.280 5.867 M13.862 6.901 C 15.174 7.007,16.317 7.197,17.470 7.501 C 18.274 7.712,18.395 7.781,18.318 7.987 C 18.276 8.097,17.805 8.462,17.252 8.811 C 15.978 9.617,13.469 10.659,11.780 11.085 C 11.329 11.198,11.191 11.216,10.740 11.218 C 10.275 11.220,10.198 11.210,10.008 11.124 C 9.589 10.935,9.408 10.578,9.451 10.024 C 9.502 9.373,10.065 8.041,10.527 7.480 C 10.713 7.254,11.139 6.973,11.400 6.904 C 11.700 6.824,12.901 6.823,13.862 6.901 M8.078 7.297 C 8.143 7.375,8.082 7.475,7.617 8.060 C 6.422 9.561,5.190 11.705,3.983 14.387 C 3.812 14.765,3.639 15.104,3.598 15.142 C 3.483 15.246,3.321 15.193,2.927 14.923 C 1.923 14.235,1.270 13.429,1.061 12.622 C 0.983 12.316,0.982 11.687,1.060 11.378 C 1.485 9.703,3.730 8.188,6.920 7.424 C 7.689 7.239,7.635 7.250,7.845 7.245 C 7.962 7.242,8.048 7.261,8.078 7.297 M21.040 9.057 C 21.849 9.604,22.410 10.193,22.719 10.818 C 22.917 11.221,22.999 11.565,22.999 12.000 C 22.999 12.437,22.917 12.780,22.718 13.180 C 22.001 14.619,19.976 15.847,17.140 16.563 C 16.386 16.754,16.003 16.800,15.928 16.710 C 15.857 16.624,15.890 16.566,16.287 16.067 C 17.510 14.534,18.793 12.321,19.941 9.768 C 20.141 9.321,20.336 8.921,20.372 8.878 C 20.488 8.743,20.634 8.782,21.040 9.057 M13.923 12.824 C 14.208 12.908,14.486 13.184,14.554 13.451 C 14.656 13.859,14.566 14.378,14.262 15.120 C 13.916 15.963,13.665 16.383,13.315 16.697 C 12.850 17.115,12.574 17.177,11.340 17.145 C 9.630 17.101,8.108 16.893,6.613 16.500 C 5.496 16.207,5.462 16.135,6.176 15.595 C 7.151 14.857,8.676 14.109,10.680 13.387 C 12.212 12.835,13.311 12.644,13.923 12.824 " stroke="none" fill="black" fill-rule="evenodd"></path></svg>