<svg role="img" xmlns="http://www.w3.org/2000/svg" viewBox="0 0 24 24"><path d="M20.891 0.137 C 19.722 0.516,19.026 1.676,19.257 2.860 C 19.353 3.355,19.553 3.721,19.936 4.102 C 20.426 4.588,20.934 4.801,21.606 4.799 C 22.285 4.798,22.825 4.576,23.304 4.099 C 23.760 3.645,24.000 3.066,24.000 2.420 C 24.000 1.338,23.255 0.372,22.214 0.103 C 21.839 0.007,21.248 0.022,20.891 0.137 M11.327 2.442 C 7.927 2.701,4.905 4.741,3.422 7.780 C 2.980 8.685,2.706 9.559,2.533 10.620 C 2.432 11.237,2.432 12.713,2.533 13.360 C 2.767 14.855,3.233 16.072,4.044 17.303 L 4.327 17.733 5.618 16.442 L 6.908 15.152 6.695 14.731 C 6.466 14.281,6.253 13.670,6.134 13.120 C 6.030 12.640,6.030 11.367,6.135 10.880 C 6.545 8.972,7.675 7.485,9.356 6.642 C 10.301 6.167,11.531 5.934,12.540 6.037 C 13.374 6.122,13.920 6.277,14.676 6.645 L 15.172 6.887 16.446 5.614 C 17.147 4.913,17.720 4.328,17.720 4.312 C 17.720 4.254,16.851 3.711,16.363 3.464 C 15.529 3.042,14.774 2.779,13.900 2.605 C 13.110 2.447,12.098 2.383,11.327 2.442 M18.416 7.570 L 17.133 8.860 17.356 9.300 C 17.768 10.112,17.952 10.829,17.987 11.760 C 18.022 12.682,17.911 13.370,17.597 14.180 C 16.644 16.638,14.099 18.217,11.497 17.964 C 10.668 17.884,9.987 17.682,9.226 17.290 L 8.872 17.108 7.596 18.384 C 6.894 19.085,6.320 19.673,6.320 19.688 C 6.320 19.743,7.181 20.283,7.650 20.523 C 9.066 21.247,10.452 21.574,12.080 21.570 C 13.597 21.567,14.855 21.269,16.260 20.582 C 17.810 19.824,19.018 18.759,20.005 17.282 C 20.778 16.124,21.280 14.824,21.506 13.390 C 21.607 12.756,21.607 11.282,21.507 10.640 C 21.271 9.132,20.777 7.857,19.953 6.630 C 19.824 6.438,19.714 6.280,19.709 6.280 C 19.704 6.280,19.122 6.861,18.416 7.570 M1.800 19.262 C 0.683 19.573,-0.061 20.597,0.012 21.725 C 0.094 22.998,1.123 23.967,2.390 23.968 C 2.818 23.968,3.064 23.909,3.476 23.709 C 4.117 23.397,4.590 22.775,4.745 22.040 C 4.984 20.901,4.292 19.711,3.160 19.316 C 2.822 19.199,2.128 19.171,1.800 19.262 " stroke="none" fill="black" fill-rule="evenodd"></path></svg>