<svg role="img" xmlns="http://www.w3.org/2000/svg" viewBox="0 0 24 24"><path d="M0.000 12.021 L 0.000 15.201 1.010 15.191 L 2.020 15.180 2.030 12.010 L 2.040 8.840 1.020 8.840 L 0.000 8.840 0.000 12.021 M2.890 12.010 L 2.900 15.180 3.900 15.180 L 4.900 15.180 4.911 14.310 L 4.922 13.440 5.781 13.440 L 6.640 13.440 6.640 12.440 L 6.640 11.440 5.780 11.440 L 4.920 11.440 4.920 11.140 L 4.920 10.840 6.220 10.840 L 7.520 10.840 7.520 9.840 L 7.520 8.840 5.200 8.840 L 2.880 8.840 2.890 12.010 M8.080 9.839 L 8.080 10.838 8.810 10.849 L 9.540 10.860 9.550 13.030 L 9.561 15.200 10.560 15.200 L 11.560 15.200 11.560 13.020 L 11.560 10.840 12.280 10.840 L 13.000 10.840 13.000 9.840 L 13.000 8.840 10.540 8.840 L 8.080 8.840 8.080 9.839 M13.600 9.840 L 13.600 10.840 14.320 10.840 L 15.040 10.840 15.040 13.021 L 15.040 15.201 16.050 15.191 L 17.060 15.180 17.070 13.010 L 17.081 10.840 17.800 10.840 L 18.520 10.840 18.520 9.840 L 18.520 8.840 16.060 8.840 L 13.600 8.840 13.600 9.840 M19.080 9.840 L 19.080 10.840 19.800 10.840 L 20.519 10.840 20.530 13.010 L 20.540 15.180 21.540 15.180 L 22.540 15.180 22.550 13.010 L 22.561 10.840 23.280 10.840 L 24.000 10.840 24.000 9.840 L 24.000 8.840 21.540 8.840 L 19.080 8.840 19.080 9.840 " stroke="none" fill="black" fill-rule="evenodd"></path></svg>