<svg role="img" viewBox="0 0 24 24" xmlns="http://www.w3.org/2000/svg"><path d="M1.232 0.077 C 0.742 0.234,0.370 0.561,0.147 1.031 L 0.020 1.300 0.008 11.860 C -0.001 19.840,0.007 22.474,0.043 22.640 C 0.182 23.294,0.706 23.824,1.347 23.961 C 1.477 23.988,5.011 23.998,12.120 23.991 L 22.700 23.980 22.970 23.852 C 23.290 23.701,23.625 23.398,23.772 23.127 C 24.016 22.680,24.000 23.450,24.000 12.000 C 24.000 0.550,24.016 1.320,23.772 0.873 C 23.625 0.602,23.290 0.299,22.970 0.148 L 22.700 0.020 12.080 0.012 C 1.891 0.004,1.451 0.007,1.232 0.077 M18.720 9.443 L 18.720 10.647 18.904 10.485 C 19.172 10.249,19.461 10.151,19.900 10.146 C 20.527 10.140,20.918 10.332,21.125 10.749 C 21.220 10.940,21.220 10.943,21.233 12.640 C 21.246 14.497,21.221 14.865,21.058 15.146 C 20.791 15.605,20.209 15.810,19.587 15.664 C 19.312 15.599,19.063 15.458,18.881 15.262 L 18.782 15.156 18.721 15.388 L 18.660 15.620 17.810 15.631 L 16.960 15.642 16.960 11.941 L 16.960 8.240 17.840 8.240 L 18.720 8.240 18.720 9.443 M4.800 11.960 L 4.800 15.640 3.840 15.640 L 2.880 15.640 2.880 11.960 L 2.880 8.280 3.840 8.280 L 4.800 8.280 4.800 11.960 M7.973 8.690 C 8.007 8.915,8.110 9.631,8.200 10.280 C 8.291 10.929,8.378 11.493,8.393 11.533 C 8.409 11.573,8.507 10.933,8.614 10.093 C 8.719 9.261,8.816 8.512,8.828 8.430 L 8.850 8.280 10.085 8.280 L 11.320 8.280 11.320 11.960 L 11.320 15.640 10.500 15.640 L 9.680 15.640 9.677 13.210 C 9.675 11.873,9.666 10.798,9.658 10.820 C 9.649 10.842,9.506 11.868,9.341 13.100 C 9.176 14.332,9.030 15.408,9.017 15.490 L 8.993 15.640 8.419 15.640 C 8.103 15.640,7.836 15.626,7.826 15.609 C 7.815 15.592,7.657 14.535,7.473 13.259 L 7.140 10.940 7.120 13.280 L 7.100 15.620 6.270 15.631 L 5.440 15.642 5.440 11.961 L 5.440 8.280 6.675 8.280 L 7.910 8.280 7.973 8.690 M15.111 8.374 C 15.782 8.549,16.127 8.904,16.248 9.544 C 16.287 9.750,16.300 10.383,16.300 12.040 C 16.300 14.417,16.285 14.634,16.101 14.999 C 15.991 15.216,15.793 15.380,15.513 15.486 C 15.229 15.594,14.555 15.639,13.190 15.639 L 12.000 15.640 12.000 11.957 L 12.000 8.273 13.430 8.291 C 14.584 8.305,14.909 8.321,15.111 8.374 M13.880 11.920 L 13.880 14.320 14.022 14.320 C 14.270 14.320,14.387 14.229,14.437 13.999 C 14.498 13.713,14.496 9.938,14.435 9.762 C 14.384 9.618,14.209 9.520,14.001 9.520 L 13.880 9.520 13.880 11.920 M18.900 11.280 C 18.823 11.365,18.820 11.426,18.820 12.920 C 18.820 14.390,18.824 14.476,18.896 14.556 C 18.993 14.663,19.199 14.666,19.326 14.564 L 19.420 14.487 19.434 12.952 C 19.446 11.508,19.443 11.412,19.373 11.326 C 19.327 11.269,19.239 11.227,19.139 11.214 C 19.009 11.196,18.965 11.208,18.900 11.280 " stroke="none" fill="black" fill-rule="evenodd"></path></svg>