<svg role="img" viewBox="0 0 24 24" xmlns="http://www.w3.org/2000/svg"><path d="M6.329 0.710 L 6.340 1.419 6.860 1.468 C 8.120 1.586,8.741 1.809,8.989 2.231 C 9.232 2.647,9.216 2.022,9.231 11.740 C 9.240 17.672,9.230 20.740,9.203 20.981 C 9.150 21.439,9.071 21.669,8.896 21.874 C 8.621 22.195,8.051 22.381,7.040 22.479 C 6.787 22.504,6.521 22.533,6.450 22.544 L 6.320 22.564 6.320 23.282 L 6.320 24.000 12.020 24.000 L 17.720 24.000 17.720 23.282 L 17.720 22.565 17.550 22.543 C 17.456 22.532,17.182 22.502,16.940 22.478 C 15.663 22.349,15.091 22.082,14.901 21.525 C 14.866 21.423,14.819 21.169,14.797 20.960 C 14.771 20.711,14.761 17.522,14.769 11.720 C 14.784 2.024,14.768 2.647,15.011 2.231 C 15.259 1.809,15.880 1.586,17.140 1.468 L 17.660 1.419 17.671 0.710 L 17.682 0.000 12.000 0.000 L 6.318 0.000 6.329 0.710 " stroke="none" fill="black" fill-rule="evenodd"></path></svg>