<svg role="img" viewBox="0 0 24 24" xmlns="http://www.w3.org/2000/svg"><path d="M15.892 0.045 C 15.584 0.090,15.137 0.239,14.905 0.375 C 14.084 0.856,13.709 1.821,13.774 3.280 C 13.832 4.553,14.197 6.001,14.739 7.100 C 15.074 7.780,15.376 8.120,15.645 8.120 C 15.811 8.120,16.221 7.955,16.541 7.760 C 16.989 7.486,17.462 7.101,18.034 6.542 C 19.609 5.003,20.411 3.449,20.185 2.370 C 19.874 0.883,17.816 -0.231,15.892 0.045 M20.300 6.300 C 19.356 6.567,17.998 7.686,17.273 8.795 C 17.020 9.182,16.941 9.437,17.018 9.621 C 17.147 9.931,17.976 10.351,18.958 10.605 C 20.151 10.913,21.249 10.916,21.858 10.613 C 22.582 10.252,22.884 9.401,22.685 8.286 C 22.530 7.419,22.053 6.689,21.446 6.390 C 21.218 6.278,21.135 6.259,20.841 6.252 C 20.642 6.247,20.417 6.267,20.300 6.300 M10.811 7.582 C 9.103 8.041,6.161 11.920,3.545 17.160 C 2.108 20.037,1.276 22.291,1.264 23.342 C 1.259 23.765,1.314 23.885,1.546 23.962 C 2.578 24.303,7.359 22.329,11.460 19.870 C 14.908 17.802,17.159 15.868,17.623 14.575 C 17.727 14.285,17.746 13.581,17.660 13.157 C 17.394 11.840,16.353 10.188,15.162 9.193 C 14.185 8.377,13.040 7.781,12.072 7.583 C 11.695 7.506,11.094 7.505,10.811 7.582 " stroke="none" fill="black" fill-rule="evenodd"></path></svg>