<svg xmlns="http://www.w3.org/2000/svg" role="img" viewBox="0 0 24 24"><path d="M19.320 0.203 C 17.850 0.297,15.808 0.870,14.049 1.683 C 13.710 1.839,13.707 1.840,13.204 1.840 C 10.368 1.840,7.534 2.989,5.601 4.921 C 4.269 6.252,3.245 7.977,2.741 9.736 C 2.685 9.932,2.644 10.098,2.651 10.104 C 2.657 10.111,2.797 9.960,2.961 9.770 C 3.414 9.246,4.352 8.291,4.868 7.831 C 5.809 6.992,6.857 6.230,7.680 5.789 L 8.020 5.606 7.038 6.593 C 6.026 7.611,5.323 8.418,4.542 9.460 C 1.717 13.228,-0.114 17.701,0.014 20.520 C 0.074 21.842,0.451 22.632,1.295 23.209 C 1.910 23.629,2.558 23.803,3.507 23.802 C 4.786 23.800,6.146 23.421,7.833 22.594 L 8.566 22.235 8.933 22.393 C 11.246 23.384,14.415 23.471,16.954 22.613 C 18.075 22.233,19.292 21.573,20.180 20.862 C 21.456 19.840,22.606 18.258,23.314 16.550 L 23.476 16.160 20.548 16.161 L 17.620 16.163 17.460 16.429 C 17.113 17.006,16.260 17.734,15.557 18.053 C 13.620 18.932,11.597 18.631,10.110 17.242 C 9.230 16.420,8.640 15.165,8.640 14.116 L 8.640 13.840 16.273 13.840 L 23.906 13.840 23.959 13.056 C 24.002 12.428,24.003 12.153,23.965 11.683 C 23.858 10.349,23.524 9.009,23.017 7.880 C 22.914 7.649,22.829 7.424,22.829 7.380 C 22.829 7.336,22.923 7.050,23.037 6.745 C 23.151 6.440,23.305 5.954,23.379 5.665 C 23.902 3.624,23.641 2.047,22.616 1.055 C 21.946 0.407,20.792 0.108,19.320 0.203 M21.435 1.604 C 22.288 1.799,22.830 2.315,23.036 3.127 C 23.201 3.778,23.176 4.461,22.958 5.308 C 22.852 5.717,22.513 6.656,22.443 6.731 C 22.427 6.748,22.319 6.615,22.202 6.436 C 21.206 4.907,19.417 3.432,17.596 2.640 C 17.353 2.534,17.147 2.440,17.138 2.431 C 17.112 2.405,17.892 2.084,18.387 1.916 C 19.581 1.513,20.586 1.410,21.435 1.604 M14.323 6.625 C 16.282 6.961,17.762 8.530,18.041 10.565 C 18.065 10.743,18.075 10.914,18.064 10.945 C 18.046 10.991,17.317 11.000,13.375 11.000 L 8.708 11.000 8.732 10.710 C 8.785 10.044,9.132 9.188,9.598 8.569 C 10.345 7.577,11.556 6.830,12.720 6.641 C 12.885 6.615,13.047 6.588,13.080 6.581 C 13.271 6.544,14.000 6.569,14.323 6.625 M3.240 16.500 C 3.652 17.548,4.336 18.691,5.074 19.568 C 5.720 20.334,6.753 21.227,7.519 21.682 L 7.809 21.854 7.574 21.974 C 5.637 22.964,3.972 23.231,2.950 22.715 C 2.452 22.464,2.023 21.891,1.859 21.260 C 1.619 20.335,1.843 18.916,2.467 17.400 C 2.712 16.807,3.052 16.116,3.084 16.149 C 3.100 16.166,3.171 16.324,3.240 16.500 " stroke="none" fill="black" fill-rule="evenodd"></path></svg>