<svg role="img" xmlns="http://www.w3.org/2000/svg" viewBox="0 0 24 24"><path d="M10.977 0.041 C 10.777 0.060,10.525 0.091,10.417 0.109 L 10.220 0.142 10.210 1.776 L 10.199 3.411 10.350 3.388 C 10.432 3.376,10.644 3.343,10.820 3.315 C 11.300 3.239,12.760 3.249,13.277 3.333 C 13.506 3.370,13.718 3.400,13.747 3.400 C 13.823 3.400,13.826 0.167,13.750 0.140 C 13.475 0.043,11.633 -0.023,10.977 0.041 M8.754 0.460 C 8.021 0.674,7.555 0.858,6.780 1.240 C 5.589 1.827,4.735 2.433,3.765 3.379 C 1.779 5.318,0.598 7.701,0.217 10.540 C 0.133 11.168,0.120 12.696,0.195 13.300 C 0.418 15.114,0.929 16.652,1.804 18.146 C 2.597 19.498,3.826 20.846,5.105 21.767 C 7.662 23.606,10.807 24.344,13.922 23.838 C 17.637 23.235,20.879 20.829,22.601 17.398 C 23.229 16.147,23.618 14.822,23.805 13.300 C 23.880 12.691,23.868 11.166,23.783 10.540 C 23.596 9.152,23.241 7.938,22.684 6.780 C 22.039 5.441,21.291 4.406,20.194 3.338 C 18.903 2.082,17.464 1.202,15.740 0.614 C 15.351 0.481,14.771 0.320,14.683 0.320 C 14.653 0.320,14.640 0.813,14.640 1.972 L 14.640 3.624 15.090 3.798 C 17.007 4.536,18.558 5.837,19.592 7.574 C 20.647 9.344,21.040 11.574,20.655 13.600 C 20.015 16.967,17.468 19.657,14.123 20.499 C 12.318 20.953,10.335 20.796,8.578 20.060 C 6.078 19.013,4.132 16.764,3.479 14.170 C 2.718 11.146,3.584 8.007,5.781 5.820 C 6.694 4.911,7.891 4.151,9.030 3.758 L 9.400 3.630 9.400 1.975 L 9.400 0.320 9.310 0.322 C 9.261 0.323,9.010 0.385,8.754 0.460 M11.340 4.164 C 11.098 4.185,10.747 4.233,10.560 4.271 L 10.220 4.340 10.210 11.928 L 10.200 19.517 10.350 19.555 C 10.813 19.673,11.139 19.700,12.060 19.694 C 12.808 19.689,13.104 19.671,13.400 19.614 L 13.780 19.540 13.780 11.943 L 13.780 4.346 13.660 4.313 C 13.166 4.180,12.027 4.107,11.340 4.164 " stroke="none" fill="black" fill-rule="evenodd"></path></svg>