<svg role="img" viewBox="0 0 24 24" xmlns="http://www.w3.org/2000/svg"><path d="M0.670 0.056 C 0.448 0.137,0.256 0.299,0.131 0.511 L 0.020 0.700 0.008 6.520 C -0.001 10.557,0.009 12.518,0.040 12.920 C 0.263 15.796,1.480 18.440,3.520 20.480 C 6.775 23.736,11.548 24.836,15.919 23.339 C 20.059 21.921,23.121 18.293,23.836 13.960 C 24.880 7.628,20.757 1.587,14.487 0.263 C 13.302 0.013,13.679 0.025,6.960 0.013 C 1.867 0.004,0.794 0.011,0.670 0.056 M13.300 3.678 C 14.249 3.819,15.008 4.061,15.860 4.492 C 18.327 5.743,20.015 8.155,20.358 10.919 C 20.419 11.407,20.409 12.549,20.339 13.040 C 19.826 16.690,17.045 19.535,13.399 20.140 C 12.847 20.231,11.870 20.260,11.300 20.203 C 7.304 19.798,4.218 16.712,3.796 12.700 C 3.735 12.123,3.772 11.107,3.875 10.520 C 4.503 6.933,7.329 4.188,10.933 3.662 C 11.510 3.578,12.682 3.586,13.300 3.678 M11.620 5.867 C 10.576 5.955,9.504 6.336,8.620 6.934 C 8.115 7.275,7.365 8.033,7.028 8.543 C 6.539 9.282,6.207 10.116,6.061 10.975 C 5.973 11.490,5.981 12.440,6.078 13.006 C 6.522 15.598,8.623 17.631,11.240 18.001 C 11.625 18.056,12.533 18.055,12.920 18.000 C 14.270 17.809,15.400 17.242,16.383 16.262 C 17.091 15.556,17.561 14.806,17.860 13.906 C 18.579 11.741,18.060 9.399,16.500 7.766 C 15.798 7.031,15.023 6.525,14.102 6.202 C 13.316 5.926,12.394 5.802,11.620 5.867 M12.824 8.960 C 14.742 9.443,15.720 11.566,14.842 13.340 C 14.437 14.159,13.691 14.746,12.780 14.963 C 12.482 15.034,12.341 15.045,11.960 15.029 C 11.429 15.005,11.109 14.919,10.620 14.668 C 10.170 14.437,9.604 13.870,9.372 13.420 C 9.086 12.865,9.020 12.585,9.021 11.940 C 9.022 11.412,9.030 11.358,9.154 11.000 C 9.518 9.944,10.371 9.167,11.415 8.940 C 11.797 8.857,12.451 8.866,12.824 8.960 " stroke="none" fill="black" fill-rule="evenodd"></path></svg>