<svg role="img" viewBox="0 0 24 24" xmlns="http://www.w3.org/2000/svg"><path d="M12.160 3.940 L 12.160 7.880 16.040 7.880 L 19.920 7.880 19.920 3.940 L 19.920 0.000 16.040 0.000 L 12.160 0.000 12.160 3.940 M11.140 8.204 C 10.017 8.321,8.826 8.732,7.837 9.344 C 4.384 11.480,3.102 15.896,4.876 19.537 C 6.013 21.869,8.182 23.473,10.785 23.906 C 11.372 24.003,12.649 24.004,13.220 23.906 C 15.003 23.602,16.464 22.835,17.701 21.555 C 19.007 20.202,19.754 18.520,19.904 16.590 L 19.931 16.240 15.906 16.240 L 11.880 16.240 11.880 12.200 L 11.880 8.160 11.670 8.165 C 11.555 8.168,11.316 8.186,11.140 8.204 M12.160 12.040 L 12.160 15.920 16.040 15.920 L 19.920 15.920 19.920 12.040 L 19.920 8.160 16.040 8.160 L 12.160 8.160 12.160 12.040 " stroke="none" fill="black" fill-rule="evenodd"></path></svg>