<svg role="img" viewBox="0 0 24 24" xmlns="http://www.w3.org/2000/svg"><path d="M0.334 0.440 C 0.136 0.520,-0.039 0.878,0.015 1.094 C 0.037 1.181,0.536 1.582,0.787 1.714 C 1.062 1.859,1.391 1.651,1.429 1.307 C 1.455 1.076,1.305 0.732,1.122 0.602 C 0.889 0.436,0.528 0.361,0.334 0.440 M14.160 0.760 C 14.070 0.850,14.056 1.051,14.122 1.290 C 14.213 1.616,14.538 1.595,14.715 1.253 C 14.786 1.115,14.769 0.902,14.677 0.785 C 14.570 0.649,14.285 0.635,14.160 0.760 M5.360 0.868 C 5.059 0.979,5.105 1.341,5.439 1.493 C 5.538 1.539,5.651 1.590,5.689 1.606 C 5.736 1.627,5.796 1.604,5.879 1.535 C 5.976 1.453,6.000 1.402,6.000 1.274 C 6.000 1.186,5.981 1.078,5.957 1.034 C 5.880 0.891,5.549 0.799,5.360 0.868 M22.568 0.943 C 22.294 1.080,22.188 1.233,22.167 1.525 C 22.153 1.730,22.162 1.765,22.254 1.857 C 22.332 1.936,22.397 1.960,22.528 1.960 C 22.888 1.960,23.125 1.819,23.284 1.512 C 23.376 1.333,23.379 1.234,23.300 1.080 C 23.165 0.820,22.912 0.772,22.568 0.943 M1.977 2.097 C 1.816 2.167,1.680 2.342,1.680 2.480 C 1.680 2.641,1.786 2.753,2.415 3.254 C 3.380 4.023,3.833 4.425,4.581 5.176 C 5.629 6.228,6.018 6.733,7.194 8.573 C 7.539 9.111,7.909 9.532,8.254 9.776 C 8.982 10.292,10.070 10.636,11.432 10.781 C 12.068 10.849,13.651 10.859,14.300 10.800 C 16.201 10.627,17.789 10.155,18.350 9.597 C 18.594 9.354,18.690 9.118,18.916 8.203 C 19.182 7.130,19.327 6.821,19.775 6.380 C 20.140 6.020,20.442 5.841,20.857 5.736 C 21.222 5.645,21.378 5.510,21.378 5.286 C 21.378 4.906,20.894 4.605,20.606 4.807 C 20.561 4.839,20.349 5.095,20.136 5.376 C 19.440 6.294,19.356 6.359,18.200 6.884 C 17.903 7.019,17.489 7.207,17.280 7.303 C 16.539 7.641,15.807 7.785,15.356 7.681 C 15.149 7.633,14.914 7.514,14.442 7.217 C 14.082 6.991,13.891 7.025,13.262 7.427 C 11.620 8.477,10.475 8.674,9.249 8.118 C 8.675 7.857,8.373 7.647,8.013 7.256 C 7.253 6.429,6.566 5.487,6.215 4.790 C 6.016 4.393,5.967 4.369,5.730 4.550 C 5.604 4.647,5.551 4.660,5.303 4.658 C 5.087 4.657,4.977 4.635,4.840 4.564 C 4.538 4.408,4.079 4.043,3.680 3.641 C 3.266 3.225,3.062 2.943,2.924 2.595 C 2.746 2.147,2.345 1.936,1.977 2.097 M6.249 2.102 C 6.071 2.227,5.979 2.531,6.046 2.779 C 6.100 2.982,6.295 3.166,6.640 3.340 C 6.957 3.500,7.161 3.719,7.289 4.037 C 7.361 4.216,7.379 4.339,7.379 4.664 C 7.380 5.049,7.374 5.077,7.252 5.273 L 7.123 5.480 7.360 5.834 C 7.582 6.165,8.071 6.680,8.164 6.680 C 8.187 6.680,8.369 6.572,8.569 6.440 C 9.611 5.754,10.689 5.671,12.120 6.166 C 12.803 6.402,12.892 6.421,13.074 6.367 C 13.159 6.341,13.428 6.187,13.670 6.025 C 14.294 5.607,14.481 5.575,15.307 5.741 C 15.788 5.838,16.229 5.981,16.810 6.227 C 17.522 6.529,17.653 6.531,18.218 6.244 C 18.797 5.950,19.098 5.705,19.613 5.108 C 20.328 4.278,20.633 4.019,21.425 3.566 C 21.995 3.239,22.143 2.897,21.844 2.598 C 21.781 2.535,21.664 2.473,21.576 2.457 C 21.446 2.432,21.384 2.447,21.203 2.545 C 20.969 2.673,20.883 2.781,20.540 3.384 C 20.279 3.843,19.767 4.380,19.141 4.851 C 18.605 5.255,18.333 5.399,18.108 5.400 C 17.773 5.400,17.644 5.236,17.514 4.643 C 17.413 4.179,17.374 4.146,17.143 4.335 C 16.559 4.814,15.673 4.881,15.245 4.478 C 14.926 4.176,14.702 3.532,14.602 2.631 C 14.557 2.224,14.513 2.120,14.383 2.120 C 14.247 2.120,14.205 2.193,14.101 2.610 C 13.985 3.081,13.815 3.421,13.599 3.616 C 13.301 3.885,13.259 3.894,12.060 3.924 C 11.156 3.947,10.934 3.965,10.700 4.032 C 9.637 4.336,9.630 4.337,9.200 4.336 C 8.857 4.336,8.741 4.320,8.565 4.247 C 7.988 4.007,7.465 3.479,6.901 2.569 C 6.585 2.060,6.449 1.962,6.249 2.102 M4.466 3.018 C 4.350 3.125,4.324 3.330,4.411 3.443 C 4.535 3.605,4.830 3.651,4.996 3.535 C 5.077 3.478,5.086 3.445,5.069 3.286 C 5.031 2.950,4.699 2.802,4.466 3.018 M22.213 4.139 C 21.978 4.241,21.887 4.559,22.050 4.708 C 22.277 4.915,22.473 4.933,22.643 4.763 C 22.837 4.569,22.763 4.247,22.499 4.137 C 22.339 4.070,22.370 4.070,22.213 4.139 M4.769 7.261 C 3.917 7.544,3.299 7.898,2.885 8.341 C 2.603 8.643,2.502 8.821,2.449 9.110 C 2.373 9.529,2.507 9.928,2.850 10.304 C 3.044 10.516,3.546 10.907,3.580 10.873 C 3.589 10.864,3.551 10.761,3.495 10.645 C 3.439 10.528,3.365 10.295,3.331 10.127 C 3.227 9.617,3.355 9.059,3.691 8.551 C 3.928 8.193,4.444 7.696,4.883 7.403 C 5.090 7.265,5.268 7.144,5.277 7.136 C 5.323 7.092,5.140 7.137,4.769 7.261 M20.552 8.403 C 20.682 8.655,20.700 8.725,20.699 8.975 C 20.699 9.352,20.568 9.636,20.232 9.985 C 18.715 11.565,14.075 12.333,10.002 11.678 C 8.008 11.357,6.350 10.670,5.704 9.897 C 5.432 9.571,5.340 9.341,5.341 8.980 C 5.341 8.749,5.361 8.623,5.413 8.527 L 5.485 8.395 5.398 8.441 C 5.350 8.467,5.169 8.623,4.995 8.789 C 4.770 9.004,4.643 9.165,4.553 9.348 C 4.254 9.955,4.469 10.619,5.143 11.175 C 7.208 12.877,12.809 13.579,17.300 12.697 C 19.628 12.241,21.300 11.401,21.765 10.456 C 21.883 10.215,21.900 10.144,21.898 9.881 C 21.895 9.626,21.876 9.543,21.772 9.340 C 21.561 8.931,21.160 8.550,20.592 8.223 L 20.405 8.115 20.552 8.403 M22.974 9.281 C 23.043 9.519,23.047 9.945,22.983 10.215 C 22.705 11.398,21.362 12.466,19.218 13.210 C 18.693 13.392,17.795 13.635,17.320 13.723 C 16.886 13.803,16.921 13.830,17.503 13.861 C 20.518 14.024,23.296 12.972,23.896 11.442 C 24.169 10.746,23.857 9.904,23.106 9.309 C 22.948 9.184,22.946 9.184,22.974 9.281 M3.319 17.130 C 3.318 18.983,3.300 20.689,3.280 20.919 C 3.224 21.539,3.028 21.884,2.486 22.325 L 2.311 22.466 2.638 22.843 C 2.818 23.050,2.981 23.226,3.001 23.233 C 3.070 23.257,3.591 22.955,3.853 22.738 C 4.270 22.395,4.550 21.973,4.705 21.458 C 4.771 21.238,4.777 20.931,4.790 17.490 L 4.803 13.760 4.062 13.760 L 3.320 13.760 3.319 17.130 M5.600 17.595 L 5.600 21.440 6.340 21.440 L 7.080 21.440 7.080 19.740 L 7.080 18.040 8.020 18.040 L 8.960 18.040 8.960 17.400 L 8.960 16.760 8.020 16.760 L 7.080 16.760 7.080 15.880 L 7.080 15.000 8.236 15.000 C 9.189 15.000,9.395 14.990,9.413 14.944 C 9.425 14.913,9.447 14.764,9.462 14.612 L 9.489 14.335 8.794 14.264 C 8.112 14.195,6.770 13.982,6.220 13.858 C 6.066 13.823,5.864 13.784,5.770 13.772 L 5.600 13.750 5.600 17.595 M22.400 15.563 C 21.984 15.919,21.512 15.996,20.840 15.815 C 20.460 15.712,20.360 15.702,19.780 15.703 C 19.194 15.704,19.115 15.713,18.849 15.809 C 18.190 16.044,17.762 16.478,17.602 17.074 C 17.537 17.315,17.546 17.940,17.618 18.182 C 17.651 18.293,17.734 18.468,17.802 18.570 C 17.935 18.772,18.321 19.056,18.520 19.100 C 18.684 19.136,18.671 19.171,18.470 19.233 C 18.184 19.320,17.883 19.544,17.798 19.732 C 17.667 20.020,17.719 20.478,17.906 20.688 C 18.096 20.902,18.511 20.985,19.660 21.038 C 20.526 21.077,20.745 21.130,20.890 21.334 C 21.029 21.528,21.018 21.896,20.868 22.093 C 20.806 22.174,20.686 22.276,20.601 22.319 C 20.391 22.426,19.917 22.495,19.601 22.463 C 19.009 22.405,18.724 22.119,18.774 21.636 L 18.799 21.400 18.161 21.400 L 17.522 21.400 17.456 21.627 C 17.323 22.086,17.492 22.657,17.863 22.998 C 18.090 23.208,18.527 23.417,18.920 23.505 C 19.393 23.610,20.398 23.601,20.855 23.487 C 21.939 23.218,22.483 22.559,22.429 21.580 C 22.399 21.028,22.199 20.627,21.812 20.343 C 21.447 20.075,20.886 19.965,19.875 19.961 C 19.536 19.960,19.439 19.947,19.397 19.896 C 19.313 19.795,19.424 19.647,19.700 19.494 C 19.911 19.377,19.976 19.361,20.240 19.360 C 21.009 19.358,21.642 18.991,21.949 18.369 C 22.090 18.084,22.100 18.041,22.100 17.700 C 22.100 17.362,22.089 17.314,21.960 17.057 L 21.820 16.780 22.160 16.780 C 22.449 16.780,22.533 16.764,22.722 16.671 C 22.844 16.611,22.986 16.517,23.038 16.462 L 23.131 16.363 22.843 15.902 C 22.684 15.648,22.551 15.441,22.547 15.442 C 22.543 15.443,22.477 15.497,22.400 15.563 M10.000 15.809 C 9.681 15.899,9.415 15.976,9.409 15.980 C 9.403 15.985,9.425 16.103,9.458 16.244 C 9.565 16.709,9.600 17.508,9.600 19.486 L 9.600 21.440 10.300 21.440 L 11.000 21.440 11.000 19.423 L 11.000 17.406 11.170 17.260 C 11.443 17.025,11.549 16.983,11.860 16.986 C 12.014 16.987,12.173 16.996,12.214 17.004 C 12.279 17.018,12.313 16.938,12.464 16.422 C 12.561 16.093,12.640 15.802,12.640 15.774 C 12.640 15.694,12.325 15.629,12.033 15.650 C 11.705 15.673,11.487 15.791,11.131 16.138 C 10.879 16.385,10.840 16.390,10.840 16.178 C 10.840 16.037,10.682 15.640,10.627 15.643 C 10.601 15.645,10.319 15.719,10.000 15.809 M14.363 15.699 C 13.465 15.868,12.798 16.561,12.513 17.620 C 12.388 18.085,12.388 19.155,12.513 19.620 C 12.831 20.801,13.597 21.477,14.692 21.545 C 15.416 21.590,15.986 21.383,16.461 20.904 C 16.959 20.400,17.207 19.776,17.263 18.884 C 17.364 17.295,16.730 16.124,15.573 15.762 C 15.234 15.656,14.730 15.629,14.363 15.699 M15.198 16.839 C 15.554 17.021,15.680 17.391,15.710 18.341 C 15.748 19.609,15.573 20.242,15.132 20.426 C 14.850 20.544,14.474 20.447,14.269 20.203 C 14.015 19.901,13.895 18.886,14.001 17.940 C 14.074 17.294,14.198 17.018,14.498 16.835 C 14.663 16.734,14.996 16.736,15.198 16.839 M20.182 16.835 C 20.594 17.022,20.757 17.557,20.542 18.011 C 20.349 18.416,19.576 18.531,19.196 18.211 C 19.027 18.068,18.960 17.894,18.960 17.594 C 18.960 17.191,19.150 16.897,19.472 16.800 C 19.666 16.741,20.012 16.758,20.182 16.835 " stroke="none" fill="black" fill-rule="evenodd"></path></svg>