<svg role="img" xmlns="http://www.w3.org/2000/svg" viewBox="0 0 24 24"><path d="M13.931 1.010 C 13.543 1.551,13.400 1.789,13.239 2.168 C 12.590 3.695,12.864 5.518,13.970 7.022 C 14.082 7.175,14.373 7.498,14.617 7.741 C 15.468 8.588,16.635 9.232,17.660 9.420 C 18.230 9.524,19.213 9.544,19.738 9.461 C 21.226 9.227,22.327 8.438,23.140 7.021 L 23.254 6.823 22.999 7.095 C 22.127 8.027,20.892 8.388,19.292 8.178 C 17.848 7.989,16.658 7.433,15.671 6.485 C 13.999 4.881,13.376 2.542,14.160 0.814 C 14.223 0.674,14.270 0.560,14.265 0.560 C 14.259 0.560,14.109 0.763,13.931 1.010 M8.611 2.612 C 7.909 3.605,7.657 4.029,7.442 4.580 C 7.108 5.435,6.982 6.148,6.985 7.160 C 6.991 8.849,7.455 10.296,8.493 11.851 C 9.262 13.004,10.481 14.136,11.720 14.848 C 12.399 15.238,13.577 15.732,14.126 15.857 C 15.007 16.058,16.706 16.118,17.700 15.983 C 19.750 15.706,21.459 14.798,22.674 13.340 C 23.178 12.735,23.644 11.967,23.883 11.348 L 23.963 11.140 23.851 11.280 C 22.708 12.714,21.270 13.566,19.420 13.904 C 18.949 13.991,17.575 14.025,17.051 13.963 C 13.282 13.521,9.967 10.847,8.842 7.340 C 8.556 6.449,8.463 5.757,8.492 4.741 C 8.521 3.705,8.698 2.922,9.097 2.059 C 9.173 1.895,9.230 1.760,9.223 1.760 C 9.217 1.760,8.941 2.143,8.611 2.612 M2.339 4.848 C 1.431 6.000,1.229 6.298,0.897 6.976 C 0.492 7.803,0.224 8.710,0.075 9.760 C 0.003 10.266,0.014 11.641,0.095 12.237 C 0.483 15.089,1.899 17.803,4.067 19.848 C 5.639 21.331,7.304 22.331,9.316 23.000 C 10.059 23.247,10.190 23.277,11.094 23.405 C 11.828 23.509,13.610 23.552,14.348 23.483 C 15.836 23.343,17.065 23.004,18.340 22.381 C 20.061 21.541,21.487 20.272,22.569 18.620 C 22.871 18.159,23.384 17.211,23.350 17.177 C 23.341 17.168,23.240 17.275,23.126 17.416 C 22.835 17.775,22.242 18.333,21.790 18.672 C 20.075 19.961,17.958 20.606,15.440 20.605 C 13.215 20.604,11.492 20.200,9.520 19.215 C 6.897 17.905,4.688 15.728,3.426 13.212 C 1.924 10.217,1.757 6.859,2.977 4.219 C 3.056 4.047,3.116 3.902,3.109 3.896 C 3.103 3.890,2.757 4.318,2.339 4.848 " stroke="none" fill="black" fill-rule="evenodd"></path></svg>