<svg role="img" xmlns="http://www.w3.org/2000/svg" viewBox="0 0 24 24"><path d="M11.160 0.025 C 8.159 0.304,5.526 1.563,3.418 3.725 C 1.498 5.695,0.360 8.148,0.082 10.914 C -0.009 11.816,0.050 13.177,0.221 14.168 C 0.545 16.034,1.383 17.890,2.584 19.400 C 2.975 19.892,3.988 20.884,4.513 21.290 C 5.833 22.309,7.241 23.040,8.760 23.493 C 9.143 23.608,9.147 23.612,8.519 23.258 C 6.396 22.061,4.911 19.991,4.282 17.354 C 4.006 16.200,3.871 15.042,3.868 13.820 C 3.863 11.677,4.330 9.958,5.321 8.470 C 6.292 7.012,7.813 5.974,9.375 5.702 C 10.088 5.578,11.121 5.637,11.800 5.841 C 12.625 6.090,13.797 7.010,14.450 7.923 C 15.545 9.452,15.940 11.554,15.518 13.600 C 15.181 15.230,14.201 16.683,12.812 17.612 C 12.610 17.747,12.451 17.865,12.460 17.874 C 12.523 17.937,13.020 17.999,13.466 17.999 C 14.509 18.001,15.443 17.709,16.380 17.089 C 16.848 16.780,16.991 16.663,17.391 16.269 C 18.610 15.069,19.378 13.506,19.668 11.640 C 19.767 11.004,19.766 9.135,19.666 8.380 C 19.317 5.734,18.416 3.732,16.893 2.216 C 16.235 1.562,15.452 0.990,14.785 0.678 C 14.369 0.483,13.492 0.188,13.060 0.099 C 12.746 0.033,11.564 -0.012,11.160 0.025 M15.740 0.829 C 16.342 1.226,16.760 1.563,17.207 2.009 C 18.762 3.563,19.729 5.684,20.058 8.260 C 20.367 10.690,20.110 12.685,19.262 14.420 C 18.263 16.466,16.519 17.909,14.519 18.345 C 14.262 18.401,14.021 18.418,13.520 18.416 C 12.942 18.414,12.813 18.401,12.480 18.311 C 11.774 18.120,11.158 17.779,10.448 17.182 C 9.379 16.285,8.614 14.913,8.340 13.400 C 8.249 12.898,8.215 11.645,8.278 11.129 C 8.529 9.093,9.491 7.480,11.105 6.390 C 11.295 6.261,11.422 6.151,11.393 6.141 C 11.081 6.030,10.040 6.009,9.509 6.102 C 7.782 6.404,6.220 7.609,5.285 9.363 C 4.852 10.176,4.513 11.256,4.380 12.247 C 4.289 12.927,4.260 14.128,4.316 14.900 C 4.522 17.722,5.376 19.919,6.880 21.494 C 8.121 22.794,9.753 23.656,11.500 23.935 C 12.064 24.025,13.220 23.943,14.261 23.738 C 16.619 23.274,18.861 22.045,20.580 20.274 C 21.531 19.293,22.142 18.433,22.736 17.240 C 23.523 15.657,23.896 14.152,23.948 12.356 C 24.045 8.964,22.884 5.988,20.564 3.679 C 19.263 2.384,17.734 1.409,16.000 0.768 C 15.219 0.479,15.213 0.481,15.740 0.829 " stroke="none" fill="black" fill-rule="evenodd"></path></svg>