<svg role="img" viewBox="0 0 24 24" xmlns="http://www.w3.org/2000/svg"><path d="M11.052 0.941 C 8.811 1.333,7.033 3.058,6.540 5.320 C 6.452 5.727,6.418 6.690,6.477 7.133 C 6.689 8.726,7.576 10.164,8.889 11.042 C 9.332 11.338,9.582 11.466,10.082 11.653 C 10.739 11.898,11.196 11.975,12.000 11.975 C 12.782 11.975,13.215 11.905,13.868 11.675 C 15.823 10.985,17.246 9.216,17.524 7.129 C 17.583 6.687,17.550 5.764,17.461 5.340 C 16.999 3.135,15.359 1.480,13.140 0.976 C 12.743 0.886,11.487 0.865,11.052 0.941 M4.860 12.042 C 2.500 12.361,0.615 14.111,0.114 16.450 C -0.016 17.055,-0.016 18.094,0.113 18.675 C 0.377 19.859,0.883 20.771,1.725 21.580 C 2.348 22.179,3.033 22.590,3.848 22.857 C 4.865 23.189,6.065 23.212,7.109 22.921 C 8.665 22.487,10.028 21.282,10.682 19.765 C 10.989 19.053,11.120 18.395,11.120 17.557 C 11.120 16.906,11.044 16.412,10.855 15.840 C 10.582 15.016,10.181 14.351,9.580 13.725 C 8.785 12.898,7.906 12.402,6.760 12.135 C 6.281 12.023,5.341 11.977,4.860 12.042 M17.840 12.024 C 17.519 12.064,16.887 12.214,16.565 12.327 C 14.702 12.979,13.272 14.681,12.943 16.637 C 12.863 17.112,12.862 17.986,12.939 18.460 C 13.248 20.341,14.486 21.928,16.235 22.682 C 16.947 22.989,17.605 23.120,18.443 23.120 C 19.980 23.120,21.263 22.584,22.361 21.482 C 23.179 20.662,23.631 19.830,23.886 18.675 C 24.005 18.133,24.016 17.092,23.907 16.549 C 23.682 15.423,23.175 14.464,22.380 13.659 C 21.595 12.864,20.654 12.348,19.579 12.121 C 19.190 12.039,18.176 11.983,17.840 12.024 " stroke="none" fill="black" fill-rule="evenodd"></path></svg>