<svg role="img" viewBox="0 0 24 24" xmlns="http://www.w3.org/2000/svg"><path d="M11.548 0.062 C 11.342 0.128,10.014 0.999,9.200 1.601 C 7.773 2.658,6.595 3.689,5.239 5.066 C 4.010 6.315,3.280 7.161,2.282 8.496 C 1.340 9.755,0.115 11.670,0.059 11.967 C 0.009 12.240,0.180 12.563,0.449 12.704 C 0.546 12.755,1.625 12.909,2.385 12.980 C 2.555 12.996,2.722 13.039,2.798 13.084 C 3.027 13.224,3.040 13.306,3.040 14.669 C 3.041 16.520,3.133 18.448,3.322 20.560 C 3.446 21.947,3.639 23.521,3.698 23.636 C 3.764 23.764,3.859 23.850,4.035 23.939 C 4.160 24.002,4.277 24.004,5.595 23.964 C 6.379 23.939,7.149 23.920,7.307 23.920 C 7.676 23.920,7.739 23.868,7.703 23.594 C 7.656 23.238,7.567 22.028,7.495 20.760 C 7.414 19.331,7.461 19.486,7.009 19.165 C 6.457 18.774,6.098 18.062,5.991 17.150 C 5.942 16.729,5.982 14.607,6.100 11.480 C 6.184 9.252,6.184 9.250,6.321 9.113 C 6.445 8.989,6.603 8.967,6.781 9.048 C 6.984 9.140,7.002 9.238,6.961 10.046 C 6.941 10.450,6.894 11.666,6.857 12.749 C 6.793 14.608,6.793 14.729,6.857 14.898 C 6.960 15.167,7.116 15.280,7.385 15.280 C 7.675 15.280,7.829 15.196,7.922 14.986 C 7.987 14.838,7.999 14.671,8.019 13.659 C 8.052 11.934,8.204 9.350,8.284 9.153 C 8.344 9.005,8.572 8.900,8.734 8.947 C 8.910 8.997,9.050 9.217,9.023 9.399 C 8.960 9.820,8.842 12.863,8.841 14.092 C 8.840 14.758,8.849 14.861,8.918 14.995 C 9.025 15.206,9.175 15.295,9.427 15.298 C 9.681 15.300,9.822 15.209,9.950 14.959 C 10.034 14.795,10.040 14.731,10.040 14.042 C 10.041 13.075,10.170 10.371,10.263 9.405 C 10.300 9.014,10.488 8.883,10.835 9.004 C 11.029 9.072,11.086 9.221,11.060 9.590 C 11.029 10.029,10.921 13.782,10.880 15.800 C 10.843 17.666,10.835 17.734,10.581 18.237 C 10.401 18.595,10.131 18.945,9.795 19.257 L 9.513 19.517 9.579 20.609 C 9.662 21.988,9.791 23.650,9.822 23.731 C 9.835 23.765,9.885 23.801,9.933 23.811 C 10.112 23.849,14.908 23.843,15.008 23.804 C 15.064 23.783,15.120 23.724,15.133 23.673 C 15.183 23.472,15.440 20.428,15.440 20.041 C 15.440 19.788,15.461 19.797,14.610 19.687 C 14.204 19.634,13.874 19.568,13.730 19.511 C 13.531 19.432,13.488 19.395,13.412 19.240 C 13.272 18.952,13.225 18.366,13.253 17.240 C 13.290 15.770,13.473 14.558,13.861 13.217 C 14.301 11.698,14.934 10.329,15.823 8.976 C 16.199 8.405,16.356 8.231,16.589 8.134 C 17.024 7.951,17.425 8.256,17.516 8.840 C 17.669 9.810,17.777 12.429,17.741 14.280 C 17.682 17.235,17.575 19.276,17.273 23.170 C 17.231 23.714,17.232 23.809,17.282 23.857 C 17.329 23.903,17.586 23.916,18.607 23.927 L 19.875 23.940 20.015 23.805 C 20.326 23.504,20.452 22.938,20.619 21.080 C 20.781 19.285,20.959 15.592,20.960 14.009 C 20.960 13.338,20.997 13.176,21.177 13.058 C 21.253 13.009,21.568 12.959,22.370 12.872 C 23.646 12.733,23.761 12.698,23.889 12.408 C 24.049 12.048,23.938 11.761,23.232 10.700 C 22.695 9.894,21.703 8.486,21.315 7.980 C 21.045 7.628,20.734 7.080,20.646 6.800 C 20.622 6.723,20.574 6.417,20.540 6.120 C 20.405 4.939,19.935 1.644,19.881 1.503 C 19.827 1.360,19.640 1.162,19.485 1.083 C 19.320 0.999,18.916 0.941,18.080 0.882 C 17.761 0.859,17.397 0.831,17.271 0.821 C 16.960 0.795,16.828 0.828,16.658 0.975 C 16.477 1.131,16.443 1.284,16.407 2.100 L 16.380 2.700 16.277 2.712 C 16.198 2.721,16.076 2.646,15.757 2.389 C 14.767 1.593,12.958 0.328,12.522 0.127 C 12.249 0.001,11.826 -0.027,11.548 0.062 " stroke="none" fill="black" fill-rule="evenodd"></path></svg>