<svg xmlns="http://www.w3.org/2000/svg" role="img" viewBox="0 0 24 24"><path d="M17.251 0.033 C 17.196 0.067,17.172 -0.061,17.700 2.380 C 17.933 3.458,18.239 4.880,18.379 5.540 C 18.520 6.200,18.853 7.757,19.121 9.000 C 19.388 10.243,19.659 11.512,19.724 11.820 C 19.788 12.128,19.922 12.740,20.021 13.180 C 20.120 13.620,20.453 15.166,20.761 16.615 C 21.272 19.012,21.374 19.440,21.423 19.391 C 21.431 19.382,21.502 18.926,21.579 18.377 C 21.714 17.414,21.833 16.592,22.298 13.400 C 22.520 11.874,23.407 5.753,23.758 3.320 C 23.865 2.583,23.965 1.844,23.980 1.677 L 24.008 1.373 23.294 1.229 C 22.413 1.051,18.176 0.181,17.808 0.103 C 17.393 0.015,17.300 0.003,17.251 0.033 M3.440 1.281 C 3.099 1.366,2.253 1.573,1.560 1.740 C 0.867 1.907,0.233 2.062,0.150 2.083 L 0.000 2.123 0.000 11.602 L 0.000 21.080 0.310 21.080 C 0.481 21.081,1.429 21.107,2.417 21.140 C 3.406 21.172,4.225 21.188,4.237 21.176 C 4.250 21.163,4.253 19.674,4.245 17.867 L 4.230 14.580 5.105 13.777 C 6.297 12.683,6.705 12.320,6.747 12.320 C 6.767 12.320,6.907 12.729,7.059 13.230 C 7.546 14.839,7.708 15.365,7.937 16.100 C 8.061 16.496,8.422 17.675,8.739 18.720 C 9.057 19.765,9.360 20.746,9.412 20.900 L 9.507 21.180 10.784 21.192 C 11.486 21.199,12.336 21.193,12.673 21.178 L 13.286 21.151 13.261 21.046 C 13.240 20.956,12.865 19.665,11.980 16.640 C 11.887 16.321,11.707 15.709,11.581 15.280 C 10.951 13.144,9.989 9.857,9.926 9.627 L 9.885 9.474 10.191 9.147 C 10.545 8.769,10.773 8.531,12.802 6.420 C 14.977 4.157,15.008 4.124,14.991 4.072 C 14.969 4.008,14.697 3.904,12.340 3.060 C 12.076 2.965,11.765 2.850,11.649 2.804 C 11.532 2.758,11.412 2.720,11.380 2.720 C 11.330 2.720,5.116 8.281,4.551 8.832 C 4.425 8.955,4.310 9.043,4.294 9.028 C 4.279 9.012,4.258 7.227,4.248 5.060 L 4.229 1.120 4.145 1.123 C 4.098 1.125,3.781 1.196,3.440 1.281 M19.620 19.809 C 19.559 19.941,18.987 21.302,18.736 21.909 C 18.661 22.090,18.600 22.265,18.600 22.297 C 18.600 22.330,18.739 22.462,18.910 22.591 C 19.303 22.889,20.421 23.659,20.752 23.860 L 21.003 24.013 21.152 23.943 C 21.233 23.905,21.687 23.644,22.160 23.363 C 22.633 23.083,23.106 22.804,23.210 22.745 C 23.314 22.685,23.400 22.620,23.400 22.599 C 23.400 22.579,23.334 22.386,23.254 22.171 C 23.173 21.956,22.951 21.312,22.760 20.740 L 22.413 19.700 21.046 19.689 L 19.679 19.679 19.620 19.809 " stroke="none" fill="black" fill-rule="evenodd"></path></svg>