<svg role="img" viewBox="0 0 24 24" xmlns="http://www.w3.org/2000/svg"><path d="M10.940 0.046 C 7.230 0.366,3.811 2.469,1.813 5.660 C -0.667 9.618,-0.589 14.737,2.010 18.640 C 4.807 22.841,9.937 24.848,14.831 23.656 C 20.930 22.171,24.857 16.233,23.836 10.040 C 23.123 5.717,20.081 2.110,15.929 0.666 C 14.354 0.118,12.609 -0.099,10.940 0.046 M13.440 0.879 C 15.449 1.175,17.161 1.871,18.691 3.012 C 21.546 5.141,23.200 8.438,23.200 12.000 C 23.200 15.002,22.026 17.829,19.903 19.940 C 18.367 21.467,16.465 22.502,14.360 22.953 C 13.024 23.240,11.508 23.277,10.160 23.056 C 7.328 22.592,4.741 21.013,3.019 18.700 C 1.870 17.156,1.182 15.485,0.894 13.540 C 0.804 12.933,0.792 11.181,0.873 10.600 C 1.369 7.082,3.275 4.172,6.260 2.378 C 7.569 1.591,9.144 1.049,10.600 0.883 C 10.809 0.859,11.034 0.833,11.100 0.823 C 11.329 0.792,13.142 0.835,13.440 0.879 M10.800 2.742 C 10.569 2.774,10.360 2.808,10.336 2.817 C 10.265 2.843,10.237 3.188,10.282 3.471 C 10.342 3.846,10.495 4.141,10.777 4.423 C 11.316 4.962,12.071 5.094,12.758 4.770 C 13.047 4.634,13.435 4.246,13.572 3.955 C 13.701 3.681,13.773 3.245,13.730 3.000 L 13.698 2.820 13.399 2.768 C 12.933 2.688,11.306 2.671,10.800 2.742 M6.835 4.234 C 6.128 4.707,5.363 5.393,4.813 6.050 C 4.215 6.763,3.606 7.810,3.258 8.720 C 3.050 9.265,2.817 10.214,2.739 10.837 C 2.644 11.581,2.673 12.890,2.799 13.600 C 3.528 17.705,6.854 20.824,10.991 21.281 C 11.567 21.344,12.962 21.312,13.480 21.223 C 15.464 20.882,17.203 19.989,18.596 18.596 C 19.979 17.213,20.843 15.541,21.210 13.540 C 21.286 13.126,21.298 12.917,21.299 12.020 C 21.299 11.106,21.288 10.918,21.207 10.468 C 20.916 8.853,20.279 7.430,19.289 6.185 C 18.705 5.451,17.799 4.634,17.025 4.143 C 16.804 4.004,16.791 4.000,16.817 4.087 C 16.833 4.138,16.855 4.434,16.868 4.745 C 16.902 5.595,16.769 6.273,16.419 7.031 C 16.010 7.916,15.216 8.764,14.361 9.231 L 14.092 9.377 14.033 10.399 L 13.974 11.420 14.716 12.170 L 15.459 12.920 14.720 13.660 L 13.981 14.400 14.470 14.890 L 14.960 15.379 14.466 15.880 L 13.973 16.380 14.033 17.313 L 14.093 18.247 13.047 19.293 L 12.000 20.340 10.960 19.300 L 9.920 18.261 9.919 13.820 L 9.918 9.380 9.630 9.220 C 8.340 8.502,7.434 7.231,7.182 5.785 C 7.112 5.385,7.101 4.620,7.159 4.262 C 7.181 4.132,7.194 4.020,7.188 4.015 C 7.183 4.010,7.024 4.108,6.835 4.234 M10.600 14.040 L 10.600 17.520 10.960 17.520 L 11.320 17.520 11.320 14.040 L 11.320 10.560 10.960 10.560 L 10.600 10.560 10.600 14.040 " stroke="none" fill="black" fill-rule="evenodd"></path></svg>