<svg role="img" viewBox="0 0 24 24" xmlns="http://www.w3.org/2000/svg"><path d="M21.340 0.478 C 20.471 0.665,19.802 1.304,19.579 2.160 C 19.515 2.405,19.513 2.650,19.571 3.286 C 19.579 3.376,19.437 3.526,18.585 4.336 C 17.914 4.974,17.576 5.270,17.545 5.245 C 16.218 4.171,14.725 3.521,13.020 3.275 C 12.487 3.198,11.201 3.208,10.640 3.294 C 10.062 3.382,9.462 3.528,8.943 3.706 C 8.503 3.856,7.410 4.382,7.223 4.533 L 7.106 4.628 7.590 5.124 L 8.075 5.620 8.388 5.454 C 9.041 5.107,9.696 4.880,10.531 4.712 C 10.915 4.634,11.107 4.621,11.860 4.621 C 12.803 4.620,13.026 4.646,13.799 4.844 C 14.650 5.062,15.475 5.450,16.239 5.992 C 16.674 6.300,17.447 7.033,17.740 7.416 C 17.850 7.560,17.954 7.678,17.971 7.679 C 17.989 7.679,18.670 7.045,19.487 6.270 C 20.915 4.913,20.976 4.860,21.115 4.869 C 21.195 4.874,21.429 4.890,21.636 4.904 C 22.095 4.936,22.351 4.886,22.760 4.687 C 23.550 4.302,24.063 3.397,23.988 2.521 C 23.909 1.615,23.287 0.823,22.443 0.556 C 22.152 0.463,21.591 0.424,21.340 0.478 M3.434 2.294 C 3.036 2.441,2.804 2.644,2.608 3.016 C 2.513 3.196,2.500 3.265,2.500 3.600 C 2.500 3.926,2.515 4.011,2.604 4.200 C 2.823 4.665,3.260 4.958,3.784 4.992 L 4.073 5.010 4.644 5.609 C 5.056 6.043,5.204 6.223,5.177 6.260 C 5.157 6.289,5.010 6.482,4.852 6.690 C 3.891 7.950,3.291 9.420,3.078 11.038 C 3.021 11.477,3.021 12.680,3.079 13.140 C 3.185 13.985,3.413 14.821,3.748 15.598 C 3.926 16.010,4.281 16.680,4.321 16.680 C 4.332 16.680,4.562 16.459,4.832 16.188 L 5.323 15.696 5.124 15.278 C 3.927 12.756,4.238 9.793,5.936 7.540 C 6.221 7.162,6.791 6.563,7.100 6.316 C 7.221 6.220,7.320 6.126,7.320 6.108 C 7.320 6.090,6.856 5.590,6.290 4.998 L 5.260 3.920 5.237 3.588 C 5.196 3.008,4.924 2.589,4.446 2.367 C 4.176 2.241,3.674 2.205,3.434 2.294 M11.458 5.484 C 10.565 5.547,9.781 5.764,8.940 6.182 C 8.262 6.518,7.762 6.878,7.220 7.420 C 5.649 8.991,4.978 11.203,5.417 13.369 C 5.890 15.707,7.588 17.626,9.833 18.358 C 10.947 18.721,12.253 18.781,13.380 18.519 C 15.703 17.980,17.563 16.235,18.238 13.961 C 18.434 13.300,18.495 12.852,18.495 12.080 C 18.495 11.078,18.357 10.376,17.984 9.496 C 16.888 6.903,14.257 5.286,11.458 5.484 M18.954 7.975 L 18.448 8.460 18.608 8.777 C 19.115 9.781,19.360 10.858,19.360 12.080 C 19.360 12.988,19.253 13.666,18.978 14.502 C 18.829 14.953,18.412 15.797,18.129 16.220 C 17.881 16.591,17.195 17.415,17.026 17.546 C 16.973 17.587,16.820 17.714,16.685 17.829 L 16.439 18.037 17.449 19.106 L 18.460 20.174 18.484 20.518 C 18.513 20.936,18.607 21.166,18.858 21.434 C 19.528 22.150,20.717 21.947,21.134 21.045 C 21.263 20.766,21.256 20.177,21.121 19.900 C 20.895 19.438,20.427 19.130,19.920 19.108 C 19.648 19.097,19.687 19.127,19.033 18.432 L 18.555 17.925 18.794 17.632 C 19.672 16.559,20.323 15.166,20.595 13.780 C 20.925 12.099,20.748 10.300,20.098 8.709 C 19.923 8.282,19.547 7.541,19.488 7.506 C 19.473 7.497,19.232 7.708,18.954 7.975 M12.639 8.384 C 13.826 8.653,14.692 9.756,14.691 11.000 C 14.691 11.959,14.235 12.772,13.400 13.302 C 13.301 13.365,13.215 13.419,13.210 13.422 C 13.204 13.424,13.314 13.961,13.453 14.614 C 13.592 15.266,13.697 15.809,13.686 15.820 C 13.654 15.853,10.326 15.843,10.309 15.810 C 10.300 15.793,10.406 15.250,10.546 14.603 C 10.685 13.955,10.795 13.424,10.789 13.422 C 10.784 13.420,10.649 13.331,10.488 13.224 C 9.663 12.673,9.192 11.649,9.323 10.690 C 9.412 10.040,9.652 9.551,10.101 9.101 C 10.789 8.414,11.670 8.165,12.639 8.384 M4.396 17.837 L 3.012 19.191 2.797 19.136 C 2.518 19.063,1.959 19.065,1.680 19.139 C 0.647 19.414,-0.078 20.432,0.012 21.479 C 0.108 22.581,0.972 23.453,2.061 23.546 C 3.139 23.638,4.151 22.916,4.419 21.862 C 4.490 21.584,4.499 21.049,4.436 20.824 L 4.393 20.668 4.906 20.151 C 5.189 19.867,5.595 19.473,5.808 19.275 L 6.196 18.915 6.568 19.194 C 8.040 20.297,9.729 20.888,11.583 20.949 C 13.255 21.004,14.867 20.609,16.290 19.794 C 16.483 19.684,16.640 19.580,16.640 19.563 C 16.640 19.546,16.429 19.311,16.170 19.040 L 15.700 18.549 15.282 18.759 C 14.160 19.322,13.130 19.567,11.880 19.568 C 10.603 19.569,9.545 19.310,8.402 18.717 C 7.542 18.271,6.773 17.639,6.121 16.844 C 5.957 16.644,5.813 16.480,5.801 16.481 C 5.790 16.482,5.157 17.092,4.396 17.837 " stroke="none" fill="black" fill-rule="evenodd"></path></svg>