<svg role="img" viewBox="0 0 24 24" xmlns="http://www.w3.org/2000/svg"><path d="M11.460 0.046 C 11.350 0.066,11.143 0.120,11.000 0.166 C 10.623 0.287,2.273 4.954,1.934 5.232 C 1.484 5.603,1.107 6.205,0.957 6.791 C 0.883 7.081,0.880 7.283,0.880 12.000 C 0.880 16.717,0.883 16.919,0.957 17.209 C 1.107 17.795,1.485 18.397,1.934 18.768 C 2.235 19.015,10.534 23.675,10.909 23.807 C 11.604 24.051,12.284 24.060,13.000 23.834 C 13.377 23.715,21.719 19.054,22.064 18.770 C 22.516 18.397,22.893 17.796,23.043 17.209 C 23.117 16.919,23.120 16.717,23.120 12.000 C 23.120 7.283,23.117 7.081,23.043 6.791 C 22.893 6.204,22.516 5.603,22.063 5.230 C 21.758 4.978,13.480 0.330,13.097 0.195 C 12.583 0.015,11.944 -0.044,11.460 0.046 M12.540 4.980 C 13.267 5.132,13.950 5.660,14.273 6.321 C 14.487 6.757,14.560 7.054,14.560 7.482 C 14.560 8.476,14.025 9.344,13.137 9.792 C 12.778 9.972,12.437 10.050,12.000 10.050 C 11.549 10.050,11.207 9.969,10.839 9.776 C 9.958 9.315,9.440 8.466,9.440 7.486 C 9.440 6.790,9.695 6.184,10.200 5.676 C 10.819 5.055,11.677 4.799,12.540 4.980 M4.800 9.823 C 8.153 10.405,10.729 13.067,11.359 16.600 C 11.421 16.947,11.515 17.983,11.520 18.370 C 11.520 18.387,11.724 18.400,11.974 18.400 L 12.428 18.400 12.453 17.790 C 12.506 16.487,12.773 15.424,13.339 14.260 C 13.820 13.272,14.282 12.635,15.052 11.895 C 16.283 10.713,17.705 10.022,19.408 9.780 C 19.635 9.748,19.967 9.721,20.148 9.721 L 20.475 9.720 20.507 9.910 C 20.525 10.014,20.538 10.433,20.536 10.840 C 20.534 11.409,20.514 11.686,20.449 12.040 C 19.812 15.514,17.246 18.183,13.859 18.894 C 13.100 19.053,12.632 19.092,11.744 19.070 C 10.836 19.047,10.199 18.947,9.391 18.702 C 6.718 17.892,4.558 15.691,3.774 12.980 C 3.537 12.157,3.472 11.692,3.450 10.644 L 3.430 9.707 3.925 9.732 C 4.197 9.745,4.591 9.786,4.800 9.823 " stroke="none" fill="black" fill-rule="evenodd"></path></svg>