<svg role="img" viewBox="0 0 24 24" xmlns="http://www.w3.org/2000/svg"><path d="M11.700 0.134 C 11.397 0.282,7.719 3.978,7.596 4.257 L 7.510 4.455 7.517 9.074 C 7.525 14.090,7.518 13.928,7.740 13.984 C 7.800 13.999,7.886 13.989,7.937 13.962 C 7.987 13.935,9.955 11.984,12.310 9.626 C 15.232 6.702,16.619 5.287,16.676 5.172 C 16.787 4.950,16.787 4.650,16.676 4.428 C 16.574 4.225,12.609 0.242,12.408 0.142 C 12.176 0.026,11.926 0.023,11.700 0.134 M18.898 7.379 C 18.640 7.508,14.691 11.456,14.583 11.694 C 14.495 11.886,14.495 12.193,14.582 12.368 C 14.675 12.554,18.702 16.585,18.900 16.690 C 19.132 16.813,19.416 16.806,19.642 16.671 C 19.889 16.525,23.848 12.542,23.934 12.354 C 24.042 12.116,24.021 11.849,23.876 11.618 C 23.808 11.509,22.858 10.525,21.766 9.432 C 19.672 7.335,19.611 7.283,19.258 7.281 C 19.164 7.280,19.012 7.322,18.898 7.379 M2.152 9.603 C 1.055 10.712,0.123 11.687,0.079 11.768 C -0.014 11.942,-0.021 12.111,0.055 12.293 C 0.087 12.371,0.920 13.240,2.105 14.434 C 4.214 16.557,4.207 16.551,4.374 16.367 C 4.514 16.212,4.523 15.916,4.511 11.874 C 4.501 8.155,4.495 7.892,4.429 7.770 C 4.390 7.699,4.342 7.640,4.322 7.640 C 4.303 7.640,4.255 7.628,4.216 7.613 C 4.161 7.592,3.708 8.029,2.152 9.603 M11.860 14.487 C 11.617 14.576,11.341 14.834,9.454 16.727 C 8.132 18.055,7.500 18.716,7.437 18.840 C 7.326 19.060,7.319 19.322,7.419 19.540 C 7.520 19.760,11.512 23.758,11.748 23.876 C 11.960 23.981,12.207 23.983,12.417 23.881 C 12.525 23.829,13.282 23.098,14.663 21.711 C 16.865 19.502,16.842 19.528,16.839 19.175 C 16.837 18.876,16.731 18.755,14.668 16.687 C 13.564 15.580,12.587 14.631,12.497 14.577 C 12.305 14.463,12.029 14.424,11.860 14.487 " stroke="none" fill="black" fill-rule="evenodd"></path></svg>