<svg role="img" viewBox="0 0 24 24" xmlns="http://www.w3.org/2000/svg"><path d="M6.191 8.770 L 6.010 9.260 8.369 9.270 C 10.593 9.280,10.727 9.285,10.702 9.350 C 10.593 9.635,8.750 14.302,8.744 14.309 C 8.731 14.323,7.191 12.289,7.194 12.261 C 7.196 12.247,7.795 11.738,8.526 11.128 L 9.856 10.020 8.728 10.009 L 7.601 9.999 6.230 11.096 C 5.477 11.699,4.856 12.189,4.852 12.185 C 4.847 12.180,5.047 11.691,5.297 11.098 L 5.750 10.020 4.107 10.010 C 3.204 10.004,2.452 10.013,2.436 10.030 C 2.421 10.046,1.903 11.248,1.287 12.700 C 0.671 14.152,0.130 15.426,0.085 15.530 L 0.002 15.721 1.685 15.710 L 3.368 15.700 3.773 14.710 C 3.995 14.165,4.189 13.720,4.203 13.720 C 4.217 13.720,4.567 14.170,4.982 14.720 L 5.735 15.720 9.361 15.720 L 12.987 15.720 14.082 14.702 C 14.685 14.142,15.182 13.689,15.188 13.695 C 15.194 13.700,15.118 14.154,15.019 14.702 C 14.921 15.251,14.840 15.705,14.840 15.710 C 14.840 15.716,15.483 15.719,16.270 15.718 L 17.700 15.715 18.840 14.703 C 19.467 14.146,19.984 13.693,19.989 13.697 C 19.996 13.703,19.756 15.280,19.700 15.590 L 19.676 15.721 21.207 15.710 L 22.739 15.700 23.368 12.860 C 23.714 11.298,23.998 10.015,23.999 10.010 C 23.999 10.005,23.307 10.000,22.459 10.000 L 20.918 10.000 19.749 11.030 C 18.397 12.220,18.431 12.192,18.457 12.116 C 18.468 12.085,18.568 11.637,18.680 11.120 C 18.792 10.603,18.894 10.139,18.906 10.090 L 18.929 10.000 17.455 10.000 L 15.980 10.000 14.386 11.590 C 13.415 12.559,12.804 13.141,12.822 13.080 C 12.838 13.025,13.134 12.152,13.480 11.140 L 14.108 9.300 16.568 9.290 L 19.027 9.279 19.114 8.870 C 19.163 8.644,19.213 8.420,19.226 8.370 L 19.249 8.280 12.811 8.280 L 6.372 8.280 6.191 8.770 " stroke="none" fill="black" fill-rule="evenodd"></path></svg>