<svg role="img" xmlns="http://www.w3.org/2000/svg" viewBox="0 0 24 24"><path d="M8.836 4.573 C 8.721 4.634,8.619 4.733,8.540 4.860 L 8.420 5.054 8.409 8.730 C 8.401 11.351,8.411 12.453,8.443 12.572 C 8.531 12.898,8.899 13.159,9.270 13.160 C 9.361 13.160,10.500 12.610,13.119 11.300 C 16.662 9.528,16.844 9.432,16.948 9.275 C 17.162 8.952,17.110 8.467,16.834 8.214 C 16.782 8.166,15.097 7.307,13.089 6.304 C 9.647 4.584,9.426 4.480,9.226 4.480 C 9.080 4.480,8.957 4.509,8.836 4.573 M11.720 8.020 L 11.720 8.480 12.180 8.480 L 12.640 8.480 12.640 8.800 L 12.640 9.120 12.180 9.120 L 11.720 9.120 11.720 9.580 L 11.720 10.040 11.400 10.040 L 11.080 10.040 11.080 9.580 L 11.080 9.120 10.618 9.120 L 10.157 9.120 10.168 8.810 L 10.180 8.500 10.630 8.489 L 11.080 8.477 11.080 8.045 C 11.080 7.808,11.092 7.601,11.107 7.587 C 11.121 7.572,11.265 7.560,11.427 7.560 L 11.720 7.560 11.720 8.020 M0.000 15.274 L 0.000 15.476 0.190 15.488 L 0.380 15.500 0.400 17.386 C 0.419 19.169,0.424 19.276,0.496 19.356 C 0.570 19.438,0.605 19.440,1.686 19.440 C 3.027 19.440,2.960 19.465,2.960 18.960 L 2.960 18.640 2.760 18.640 L 2.560 18.640 2.560 18.836 C 2.560 18.977,2.542 19.038,2.497 19.056 C 2.462 19.069,2.095 19.080,1.682 19.080 C 1.108 19.080,0.919 19.067,0.886 19.027 C 0.856 18.991,0.839 18.384,0.831 17.109 C 0.821 15.380,0.815 15.238,0.749 15.171 C 0.694 15.117,0.597 15.097,0.339 15.086 L 0.000 15.072 0.000 15.274 M6.360 15.256 C 6.360 15.433,6.365 15.440,6.477 15.440 C 6.738 15.440,6.720 15.291,6.720 17.464 L 6.720 19.440 6.940 19.440 L 7.160 19.440 7.160 19.213 L 7.160 18.987 7.313 19.152 C 7.397 19.243,7.570 19.366,7.697 19.424 C 7.902 19.518,7.965 19.528,8.254 19.512 C 8.642 19.490,8.890 19.380,9.148 19.113 C 9.728 18.514,9.732 17.285,9.155 16.660 C 8.948 16.434,8.773 16.340,8.455 16.283 C 8.023 16.204,7.606 16.332,7.331 16.627 L 7.160 16.811 7.160 16.050 C 7.160 15.098,7.165 15.108,6.684 15.086 L 6.360 15.072 6.360 15.256 M9.200 15.280 C 9.200 15.466,9.207 15.480,9.300 15.480 C 9.354 15.480,9.420 15.513,9.445 15.553 C 9.470 15.593,9.809 16.479,10.198 17.523 L 10.906 19.420 11.149 19.432 L 11.392 19.444 11.494 19.172 C 11.551 19.022,11.869 18.171,12.201 17.280 C 12.533 16.389,12.831 15.620,12.864 15.570 C 12.919 15.485,12.948 15.480,13.401 15.480 L 13.880 15.480 13.880 17.280 L 13.880 19.080 13.680 19.080 L 13.480 19.080 13.480 19.260 L 13.480 19.440 14.100 19.440 L 14.720 19.440 14.720 19.260 L 14.720 19.080 14.520 19.080 L 14.320 19.080 14.320 17.280 L 14.320 15.480 14.520 15.480 L 14.720 15.480 14.720 15.280 L 14.720 15.080 13.743 15.080 C 13.205 15.080,12.720 15.097,12.665 15.118 C 12.609 15.139,12.535 15.201,12.500 15.254 C 12.432 15.359,11.629 17.516,11.340 18.373 C 11.245 18.656,11.158 18.895,11.148 18.905 C 11.138 18.915,11.109 18.840,11.084 18.738 C 11.037 18.552,9.934 15.518,9.837 15.307 C 9.769 15.160,9.609 15.080,9.382 15.080 L 9.200 15.080 9.200 15.280 M15.120 15.278 L 15.120 15.480 15.320 15.480 L 15.520 15.480 15.520 17.355 C 15.520 19.191,15.522 19.231,15.603 19.335 L 15.686 19.440 16.843 19.440 C 18.233 19.440,18.160 19.467,18.160 18.960 L 18.160 18.640 17.960 18.640 L 17.760 18.640 17.760 18.836 C 17.760 18.977,17.742 19.038,17.697 19.056 C 17.571 19.104,16.059 19.083,16.008 19.032 C 15.974 18.998,15.960 18.759,15.960 18.212 L 15.960 17.440 16.780 17.440 L 17.600 17.440 17.600 17.260 L 17.600 17.080 16.780 17.080 L 15.960 17.080 15.960 16.280 L 15.960 15.480 16.756 15.480 C 17.641 15.480,17.600 15.466,17.600 15.763 L 17.600 15.920 17.804 15.920 L 18.008 15.920 17.994 15.581 C 17.973 15.065,18.088 15.102,16.479 15.088 L 15.120 15.077 15.120 15.278 M18.320 15.280 C 18.320 15.474,18.324 15.480,18.435 15.480 C 18.498 15.480,18.569 15.502,18.591 15.530 C 18.614 15.558,18.842 16.390,19.098 17.380 C 19.355 18.370,19.583 19.238,19.605 19.310 C 19.646 19.439,19.649 19.440,19.902 19.440 L 20.157 19.440 20.257 19.110 C 20.566 18.083,21.085 16.302,21.143 16.066 L 21.211 15.793 21.399 16.526 C 21.501 16.930,21.718 17.750,21.879 18.350 L 22.173 19.440 22.436 19.440 L 22.700 19.440 23.197 17.530 C 23.470 16.479,23.709 15.588,23.728 15.550 C 23.749 15.507,23.808 15.480,23.881 15.480 C 23.997 15.480,24.000 15.476,24.000 15.275 L 24.000 15.070 23.758 15.088 C 23.349 15.117,23.378 15.052,22.878 17.044 C 22.638 17.999,22.440 18.816,22.438 18.860 C 22.432 18.970,22.457 19.061,21.941 17.060 C 21.685 16.070,21.467 15.228,21.455 15.190 C 21.439 15.135,21.390 15.120,21.220 15.120 L 21.005 15.120 20.905 15.450 C 20.850 15.632,20.614 16.455,20.380 17.280 C 19.896 18.985,19.912 18.937,19.889 18.800 C 19.850 18.566,19.035 15.345,18.996 15.273 C 18.938 15.165,18.721 15.080,18.501 15.080 L 18.320 15.080 18.320 15.280 M4.325 16.284 C 4.030 16.334,3.780 16.452,3.697 16.579 C 3.659 16.637,3.619 16.774,3.609 16.882 L 3.590 17.080 3.815 17.080 L 4.040 17.080 4.040 16.925 C 4.040 16.788,4.056 16.762,4.170 16.708 C 4.528 16.540,5.036 16.594,5.236 16.821 C 5.362 16.966,5.439 17.178,5.440 17.385 L 5.440 17.509 5.010 17.537 C 3.870 17.611,3.358 17.943,3.361 18.609 C 3.363 19.185,3.830 19.554,4.501 19.511 C 4.905 19.485,5.158 19.332,5.400 18.966 C 5.457 18.879,5.460 18.884,5.466 19.086 C 5.475 19.385,5.553 19.440,5.967 19.440 L 6.285 19.440 6.272 19.270 C 6.260 19.100,6.260 19.100,6.080 19.080 L 5.900 19.060 5.874 18.080 C 5.860 17.541,5.831 17.045,5.809 16.978 C 5.663 16.521,5.373 16.317,4.800 16.269 C 4.657 16.257,4.443 16.264,4.325 16.284 M8.583 16.752 C 8.790 16.858,8.893 16.974,9.015 17.236 C 9.300 17.853,9.117 18.714,8.638 19.010 C 8.138 19.318,7.522 19.110,7.278 18.549 C 7.151 18.259,7.126 17.763,7.220 17.416 C 7.306 17.098,7.555 16.798,7.811 16.704 C 8.028 16.624,8.376 16.645,8.583 16.752 M5.430 18.115 C 5.376 18.714,4.966 19.160,4.472 19.160 C 4.065 19.160,3.800 18.921,3.800 18.554 C 3.800 18.388,3.820 18.338,3.943 18.202 C 4.155 17.967,4.412 17.894,5.056 17.885 L 5.451 17.880 5.430 18.115 " stroke="none" fill="black" fill-rule="evenodd"></path></svg>