<svg role="img" viewBox="0 0 24 24" xmlns="http://www.w3.org/2000/svg"><path d="M23.104 6.202 C 22.968 6.242,22.777 6.415,22.696 6.568 C 22.649 6.659,22.640 7.495,22.640 12.000 C 22.640 17.800,22.625 17.420,22.866 17.646 C 23.138 17.901,23.539 17.879,23.808 17.596 C 23.890 17.510,23.967 17.383,23.980 17.310 C 23.992 17.239,23.998 14.803,23.991 11.897 L 23.980 6.614 23.865 6.463 C 23.678 6.217,23.386 6.117,23.104 6.202 M1.616 10.339 C 0.638 10.552,-0.068 11.504,0.014 12.500 C 0.083 13.338,0.632 14.033,1.440 14.305 C 1.771 14.417,2.420 14.405,2.740 14.281 C 3.459 14.003,3.957 13.405,4.083 12.668 C 4.262 11.620,3.538 10.561,2.491 10.339 C 2.163 10.269,1.938 10.269,1.616 10.339 M9.280 10.305 C 8.475 10.461,7.851 11.023,7.624 11.797 C 7.546 12.061,7.542 12.587,7.614 12.860 C 7.854 13.758,8.690 14.402,9.612 14.399 C 10.335 14.397,11.057 13.962,11.395 13.325 C 11.575 12.986,11.639 12.726,11.640 12.337 C 11.641 11.450,11.099 10.691,10.257 10.398 C 10.025 10.318,9.482 10.266,9.280 10.305 M16.691 10.341 C 15.660 10.564,14.940 11.630,15.117 12.668 C 15.297 13.716,16.257 14.472,17.300 14.386 C 17.830 14.342,18.266 14.132,18.627 13.749 C 18.870 13.490,18.979 13.315,19.082 13.014 C 19.479 11.861,18.761 10.591,17.570 10.339 C 17.241 10.269,17.018 10.269,16.691 10.341 " stroke="none" fill="black" fill-rule="evenodd"></path></svg>