<svg role="img" viewBox="0 0 24 24" xmlns="http://www.w3.org/2000/svg"><path d="M2.298 3.024 C 2.360 3.132,2.516 3.369,2.645 3.550 L 2.879 3.880 2.607 3.880 C 2.339 3.880,1.904 3.942,1.814 3.994 C 1.764 4.022,2.152 4.345,2.677 4.713 C 2.972 4.921,2.976 4.925,2.820 4.893 C 2.732 4.875,2.453 4.860,2.200 4.860 C 1.823 4.860,1.691 4.877,1.470 4.953 C 1.322 5.004,1.192 5.061,1.181 5.079 C 1.159 5.114,1.542 5.351,2.085 5.638 L 2.429 5.820 2.065 5.807 C 1.830 5.798,1.604 5.816,1.430 5.856 C 1.124 5.927,0.572 6.189,0.625 6.239 C 0.671 6.282,1.574 6.640,1.636 6.640 C 1.663 6.640,1.674 6.658,1.660 6.680 C 1.646 6.702,1.577 6.720,1.505 6.720 C 1.336 6.720,0.992 6.823,0.740 6.949 C 0.516 7.061,0.120 7.345,0.120 7.394 C 0.120 7.412,0.382 7.478,0.701 7.542 L 1.282 7.658 1.091 7.723 C 0.986 7.759,0.809 7.835,0.698 7.891 C 0.474 8.004,0.080 8.302,0.080 8.357 C 0.080 8.376,0.264 8.426,0.489 8.466 L 0.897 8.541 0.699 8.669 C 0.589 8.739,0.386 8.912,0.247 9.052 L -0.006 9.308 0.207 9.334 C 0.324 9.348,0.546 9.360,0.700 9.360 L 0.980 9.361 0.740 9.514 C 0.469 9.688,0.022 10.138,0.060 10.200 C 0.075 10.224,0.327 10.240,0.691 10.240 L 1.298 10.240 1.044 10.390 C 0.804 10.532,0.240 11.079,0.240 11.170 C 0.240 11.211,1.234 11.186,1.620 11.136 C 1.776 11.115,1.775 11.117,1.551 11.212 C 1.425 11.266,1.232 11.368,1.121 11.439 C 0.918 11.570,0.400 12.095,0.400 12.170 C 0.400 12.198,0.617 12.201,1.049 12.182 L 1.698 12.153 1.456 12.331 C 1.323 12.429,1.149 12.589,1.069 12.686 C 0.896 12.898,0.640 13.315,0.640 13.387 C 0.640 13.446,0.692 13.439,1.353 13.279 L 1.806 13.170 1.580 13.395 C 1.364 13.609,1.078 14.037,1.021 14.230 C 0.988 14.343,1.004 14.343,1.469 14.224 L 1.838 14.129 1.716 14.306 C 1.649 14.403,1.552 14.578,1.500 14.696 C 1.408 14.905,1.332 15.200,1.371 15.200 C 1.401 15.200,2.077 14.924,2.173 14.873 C 2.256 14.829,2.257 14.830,2.190 14.924 C 1.966 15.241,1.720 15.791,1.720 15.976 C 1.720 16.037,2.144 15.871,2.682 15.599 L 2.933 15.472 2.812 15.626 C 2.745 15.711,2.635 15.889,2.568 16.023 C 2.445 16.268,2.298 16.752,2.336 16.789 C 2.359 16.812,3.157 16.427,3.478 16.238 L 3.696 16.109 3.485 16.345 C 3.367 16.476,3.207 16.722,3.122 16.900 C 2.969 17.221,2.857 17.590,2.899 17.632 C 2.941 17.674,4.102 17.070,4.526 16.787 L 4.631 16.716 4.532 16.988 C 4.406 17.333,4.347 18.074,4.450 18.015 C 4.607 17.926,5.334 17.292,5.645 16.973 L 5.990 16.620 6.012 16.969 C 6.043 17.449,6.078 17.499,6.218 17.260 C 6.356 17.024,6.840 16.511,7.079 16.347 L 7.260 16.223 7.151 16.353 C 7.022 16.507,6.951 16.744,6.968 16.960 L 6.980 17.115 7.870 16.254 L 8.760 15.393 8.601 15.726 C 8.513 15.910,8.400 16.222,8.348 16.420 L 8.255 16.780 7.818 17.008 C 6.913 17.481,5.810 17.908,4.430 18.322 C 4.039 18.440,3.733 18.547,3.750 18.561 C 3.766 18.574,3.911 18.636,4.072 18.697 C 4.388 18.818,4.600 18.969,4.600 19.073 C 4.600 19.109,4.452 19.289,4.270 19.473 C 4.030 19.717,3.967 19.800,4.040 19.778 C 4.339 19.688,4.554 19.641,4.671 19.640 C 4.819 19.640,5.080 19.737,5.080 19.792 C 5.080 19.891,4.872 20.108,4.640 20.251 C 4.497 20.338,4.416 20.398,4.460 20.382 C 4.674 20.308,4.923 20.272,5.054 20.296 C 5.189 20.322,5.200 20.334,5.200 20.464 C 5.200 20.624,5.123 20.791,4.945 21.019 L 4.820 21.178 5.060 21.005 C 5.920 20.383,7.011 19.773,8.140 19.281 C 8.404 19.166,9.313 18.842,10.160 18.561 C 11.870 17.994,12.450 17.775,13.100 17.450 C 13.753 17.124,14.180 16.830,14.560 16.445 C 15.095 15.902,15.116 15.855,15.524 14.230 C 15.718 13.455,15.878 12.791,15.879 12.756 C 15.880 12.716,15.821 12.675,15.722 12.645 C 15.624 12.616,15.513 12.537,15.427 12.437 C 15.312 12.303,15.272 12.280,15.187 12.302 C 15.045 12.337,14.817 12.254,14.721 12.132 C 14.676 12.076,14.622 11.960,14.599 11.875 C 14.560 11.732,14.546 11.720,14.416 11.720 C 14.142 11.720,13.969 11.563,13.903 11.256 C 13.879 11.145,13.889 11.126,13.995 11.082 C 14.150 11.018,14.225 10.930,14.258 10.774 C 14.277 10.683,14.319 10.633,14.408 10.597 C 14.475 10.569,14.582 10.502,14.645 10.449 C 14.780 10.336,14.796 10.171,14.695 9.920 L 14.631 9.758 14.815 9.596 C 15.014 9.421,15.038 9.348,14.934 9.233 C 14.870 9.163,14.877 9.160,15.084 9.160 C 15.537 9.159,15.762 9.034,15.836 8.741 C 15.916 8.421,16.205 8.278,16.481 8.421 C 16.596 8.480,16.720 8.662,16.720 8.772 C 16.720 8.832,16.882 8.920,16.992 8.920 C 17.029 8.920,17.184 8.890,17.337 8.853 C 17.559 8.799,17.648 8.753,17.787 8.620 C 17.882 8.528,17.960 8.432,17.960 8.405 C 17.960 8.322,17.430 7.824,17.180 7.673 C 16.468 7.242,15.617 7.261,14.831 7.724 C 14.103 8.153,13.446 8.943,13.079 9.831 C 13.009 10.001,12.924 10.171,12.890 10.209 C 12.621 10.514,11.848 10.531,11.441 10.241 C 11.376 10.194,11.237 9.991,11.120 9.770 C 9.916 7.505,7.153 5.083,4.060 3.582 C 3.539 3.329,2.523 2.910,2.303 2.856 L 2.185 2.828 2.298 3.024 M3.763 4.218 C 4.518 4.561,5.552 5.198,6.670 6.009 C 7.256 6.434,7.480 6.626,7.480 6.705 C 7.480 6.797,7.422 6.769,7.176 6.553 C 6.455 5.922,4.871 4.878,3.640 4.224 C 3.409 4.102,3.234 4.001,3.251 4.001 C 3.268 4.000,3.499 4.098,3.763 4.218 M4.203 5.420 C 4.804 5.689,5.564 6.118,6.180 6.535 C 7.092 7.153,7.733 7.720,7.517 7.720 C 7.494 7.720,7.337 7.589,7.167 7.428 C 6.529 6.822,5.801 6.361,4.285 5.602 C 3.666 5.293,3.160 5.031,3.160 5.021 C 3.160 4.988,3.709 5.198,4.203 5.420 M3.087 5.964 C 4.114 6.218,5.292 6.810,6.453 7.655 C 7.044 8.086,7.520 8.499,7.520 8.583 C 7.520 8.674,7.466 8.651,7.318 8.496 C 7.108 8.276,6.673 7.930,6.120 7.542 C 5.509 7.113,4.672 6.697,3.460 6.220 C 2.976 6.029,2.571 5.864,2.560 5.853 C 2.538 5.832,2.618 5.849,3.087 5.964 M2.290 6.746 C 2.263 6.758,2.218 6.758,2.190 6.746 C 2.163 6.735,2.185 6.726,2.240 6.726 C 2.295 6.726,2.317 6.735,2.290 6.746 M3.225 6.980 C 4.098 7.268,4.976 7.716,5.980 8.384 C 6.717 8.874,7.306 9.387,7.225 9.468 C 7.212 9.481,7.118 9.421,7.016 9.336 C 6.456 8.866,6.207 8.678,5.692 8.335 C 4.794 7.737,3.771 7.237,2.740 6.893 C 2.447 6.796,2.388 6.766,2.520 6.783 C 2.619 6.796,2.936 6.885,3.225 6.980 M2.380 7.780 C 3.126 7.931,4.245 8.367,5.140 8.855 C 5.911 9.275,6.759 9.895,6.885 10.129 C 6.973 10.294,6.871 10.240,6.575 9.963 C 5.642 9.092,3.700 8.160,2.080 7.807 C 1.528 7.686,1.514 7.681,1.800 7.699 C 1.943 7.708,2.204 7.744,2.380 7.780 M2.580 8.635 C 3.603 8.889,4.640 9.359,5.647 10.024 C 6.013 10.267,6.680 10.847,6.680 10.924 C 6.680 10.995,6.572 10.958,6.477 10.855 C 6.311 10.675,5.758 10.243,5.361 9.982 C 4.165 9.197,2.960 8.748,1.440 8.522 C 1.207 8.488,1.228 8.485,1.640 8.500 C 1.973 8.511,2.232 8.549,2.580 8.635 M17.852 8.683 C 17.732 8.798,17.592 8.892,17.519 8.906 C 17.450 8.920,17.384 8.955,17.373 8.985 C 17.335 9.084,17.524 9.396,17.724 9.563 L 17.922 9.729 18.171 9.684 C 19.143 9.509,20.789 9.423,22.560 9.455 L 23.820 9.477 21.040 9.001 C 19.511 8.740,18.215 8.517,18.160 8.506 C 18.080 8.490,18.016 8.527,17.852 8.683 M15.764 9.085 C 15.670 9.161,15.493 9.219,15.232 9.260 C 15.132 9.275,15.090 9.300,15.104 9.335 C 15.115 9.364,15.041 9.479,14.940 9.592 C 14.758 9.794,14.757 9.797,14.818 9.916 C 14.852 9.982,14.880 10.079,14.880 10.132 C 14.880 10.251,14.691 10.517,14.508 10.657 C 14.433 10.714,14.320 10.842,14.258 10.940 C 14.195 11.039,14.110 11.130,14.069 11.144 C 14.010 11.162,13.999 11.191,14.019 11.274 C 14.084 11.536,14.248 11.653,14.493 11.613 C 14.624 11.592,14.633 11.598,14.661 11.725 C 14.711 11.958,14.833 12.157,14.943 12.184 C 14.999 12.198,15.120 12.201,15.213 12.191 C 15.369 12.173,15.385 12.181,15.442 12.296 C 15.482 12.376,15.580 12.460,15.722 12.533 L 15.940 12.645 16.214 12.353 C 16.831 11.694,17.441 10.789,17.704 10.143 L 17.843 9.802 17.589 9.551 C 17.431 9.394,17.320 9.247,17.296 9.160 L 17.257 9.020 16.958 9.034 C 16.739 9.044,16.639 9.067,16.580 9.121 C 16.376 9.308,16.084 9.299,15.929 9.102 C 15.858 9.012,15.855 9.011,15.764 9.085 M2.646 9.476 C 3.757 9.700,5.203 10.403,5.990 11.100 C 6.168 11.258,6.257 11.400,6.178 11.400 C 6.166 11.400,6.009 11.280,5.828 11.133 C 4.631 10.158,3.420 9.666,1.618 9.422 L 1.180 9.363 1.720 9.380 C 2.021 9.390,2.431 9.433,2.646 9.476 M2.340 10.204 C 3.193 10.307,4.314 10.701,4.949 11.119 C 5.329 11.370,5.462 11.492,5.423 11.555 C 5.409 11.577,5.271 11.498,5.109 11.376 C 4.789 11.134,4.000 10.728,3.604 10.602 C 3.209 10.476,2.450 10.326,1.935 10.271 C 1.637 10.239,1.503 10.212,1.565 10.195 C 1.712 10.153,1.947 10.156,2.340 10.204 M2.826 11.141 C 3.466 11.193,4.156 11.436,4.588 11.762 C 4.704 11.850,4.800 11.949,4.800 11.981 C 4.800 12.065,4.780 12.058,4.548 11.884 C 4.044 11.508,3.292 11.252,2.469 11.177 C 2.299 11.162,2.160 11.133,2.160 11.113 C 2.160 11.093,2.246 11.086,2.350 11.097 C 2.454 11.109,2.669 11.128,2.826 11.141 M3.620 12.080 C 3.950 12.185,4.280 12.345,4.280 12.401 C 4.280 12.463,4.215 12.448,3.914 12.320 C 3.354 12.082,2.849 12.007,2.262 12.076 C 2.066 12.099,1.898 12.111,1.889 12.103 C 1.881 12.094,1.988 12.059,2.127 12.024 C 2.494 11.934,3.247 11.962,3.620 12.080 M3.854 12.835 C 4.118 12.909,4.239 12.975,4.192 13.021 C 4.180 13.033,4.019 13.002,3.835 12.952 C 3.326 12.813,2.783 12.827,2.280 12.992 C 1.966 13.095,1.917 13.103,2.000 13.039 C 2.124 12.942,2.480 12.803,2.720 12.758 C 2.981 12.709,3.537 12.747,3.854 12.835 M4.970 13.426 C 5.267 13.475,5.109 13.508,4.470 13.532 C 3.506 13.567,2.897 13.688,2.127 13.996 C 2.010 14.043,1.924 14.066,1.936 14.047 C 1.970 13.992,2.438 13.774,2.720 13.682 C 3.306 13.491,4.524 13.352,4.970 13.426 M5.499 13.959 C 5.531 14.011,5.417 14.031,4.940 14.057 C 4.311 14.092,3.478 14.310,2.711 14.640 C 2.518 14.723,2.371 14.775,2.382 14.756 C 2.420 14.695,2.892 14.449,3.170 14.345 C 3.488 14.226,4.319 14.014,4.660 13.964 C 4.997 13.916,5.471 13.913,5.499 13.959 M6.019 14.359 C 6.032 14.380,6.002 14.407,5.952 14.418 C 5.901 14.430,5.644 14.486,5.380 14.544 C 4.717 14.688,3.939 14.950,3.440 15.196 C 3.074 15.377,3.038 15.388,3.160 15.284 C 3.489 15.002,4.379 14.661,5.360 14.439 C 5.924 14.312,5.985 14.304,6.019 14.359 M6.360 14.874 C 6.360 14.892,6.140 14.963,5.870 15.030 C 5.235 15.190,4.775 15.386,4.294 15.703 C 4.029 15.878,3.942 15.921,4.020 15.840 C 4.325 15.521,5.025 15.150,5.646 14.977 C 5.852 14.920,6.038 14.867,6.060 14.860 C 6.144 14.831,6.360 14.842,6.360 14.874 M6.960 15.316 C 6.960 15.336,6.824 15.382,6.657 15.419 C 6.186 15.524,5.652 15.815,5.142 16.246 C 4.859 16.485,4.736 16.570,4.795 16.487 C 5.035 16.149,5.577 15.716,5.980 15.539 C 6.393 15.357,6.960 15.228,6.960 15.316 M7.320 15.717 C 7.320 15.737,7.253 15.775,7.170 15.802 C 6.892 15.891,6.493 16.122,6.258 16.332 C 6.040 16.526,6.029 16.531,6.102 16.405 C 6.205 16.227,6.434 16.044,6.800 15.844 C 7.081 15.691,7.320 15.633,7.320 15.717 " stroke="none" fill="black" fill-rule="evenodd"></path></svg>