<svg role="img" viewBox="0 0 24 24" xmlns="http://www.w3.org/2000/svg"><path d="M22.280 3.797 C 21.267 4.107,20.975 5.362,21.748 6.085 C 22.026 6.345,22.330 6.453,22.720 6.430 C 23.241 6.399,23.622 6.149,23.848 5.689 C 23.966 5.449,23.980 5.386,23.979 5.081 C 23.978 4.770,23.966 4.717,23.842 4.487 C 23.585 4.011,23.167 3.757,22.648 3.763 C 22.501 3.765,22.335 3.781,22.280 3.797 M0.000 9.740 L 0.000 15.480 1.000 15.480 L 2.000 15.480 2.000 9.740 L 2.000 4.000 1.000 4.000 L 0.000 4.000 0.000 9.740 M6.528 7.163 C 5.894 7.245,5.180 7.516,4.635 7.881 C 4.016 8.296,3.402 9.074,3.122 9.800 C 2.771 10.712,2.744 11.873,3.055 12.784 C 3.566 14.287,4.877 15.389,6.450 15.641 C 6.886 15.711,7.808 15.672,8.207 15.566 C 9.372 15.258,10.297 14.565,10.874 13.568 C 11.712 12.120,11.599 10.187,10.599 8.844 C 9.665 7.588,8.130 6.955,6.528 7.163 M15.840 7.178 C 13.611 7.546,12.091 9.415,12.212 11.640 C 12.273 12.764,12.660 13.654,13.420 14.421 C 14.220 15.229,15.120 15.621,16.285 15.669 C 16.950 15.696,17.354 15.643,17.920 15.455 C 19.295 14.999,20.273 13.961,20.669 12.535 C 20.770 12.172,20.779 12.084,20.777 11.440 C 20.775 10.845,20.762 10.692,20.687 10.420 C 20.595 10.088,20.380 9.597,20.240 9.401 C 20.196 9.339,20.160 9.272,20.160 9.253 C 20.160 9.234,20.295 9.167,20.460 9.104 L 20.760 8.989 20.760 8.176 L 20.760 7.362 19.290 7.348 C 17.907 7.335,17.802 7.329,17.520 7.245 C 17.131 7.129,16.331 7.097,15.840 7.178 M21.667 7.387 C 21.652 7.401,21.640 9.228,21.640 11.447 L 21.640 15.480 22.640 15.480 L 23.640 15.480 23.640 11.420 L 23.640 7.360 22.667 7.360 C 22.131 7.360,21.681 7.372,21.667 7.387 M7.734 9.143 C 8.519 9.346,9.175 9.999,9.379 10.782 C 9.450 11.056,9.459 11.624,9.396 11.928 C 9.372 12.045,9.280 12.293,9.191 12.480 C 8.650 13.616,7.259 14.074,6.092 13.499 C 5.539 13.227,5.129 12.746,4.935 12.143 C 4.804 11.732,4.786 11.113,4.896 10.740 C 5.122 9.970,5.756 9.350,6.532 9.141 C 6.818 9.064,7.432 9.065,7.734 9.143 M17.140 9.142 C 17.551 9.249,17.877 9.436,18.184 9.741 C 19.428 10.979,18.906 13.090,17.218 13.645 C 16.861 13.763,16.260 13.772,15.900 13.664 C 15.106 13.428,14.508 12.799,14.301 11.982 C 14.222 11.672,14.223 11.097,14.303 10.786 C 14.500 10.023,15.136 9.373,15.898 9.155 C 16.210 9.066,16.823 9.059,17.140 9.142 M12.215 16.323 C 12.359 18.048,13.420 19.439,15.015 19.997 C 16.633 20.563,18.455 20.151,19.643 18.952 C 20.327 18.261,20.763 17.310,20.827 16.370 L 20.852 16.000 19.868 16.000 L 18.884 16.000 18.859 16.150 C 18.786 16.595,18.739 16.753,18.590 17.052 C 18.310 17.615,17.799 18.040,17.180 18.224 C 16.856 18.321,16.225 18.321,15.900 18.225 C 15.318 18.052,14.738 17.580,14.492 17.079 C 14.340 16.769,14.240 16.409,14.240 16.172 L 14.240 16.000 13.214 16.000 L 12.188 16.000 12.215 16.323 " stroke="none" fill="black" fill-rule="evenodd"></path></svg>