<svg role="img" viewBox="0 0 24 24" xmlns="http://www.w3.org/2000/svg"><path d="M1.812 7.787 C 1.827 16.287,1.811 15.695,2.054 16.607 C 2.817 19.474,5.245 21.947,8.549 23.224 C 9.725 23.679,11.314 24.000,12.390 24.000 L 12.600 24.000 12.600 15.422 C 12.600 6.098,12.607 6.418,12.379 5.541 C 12.054 4.288,11.377 3.133,10.400 2.159 C 9.361 1.125,8.111 0.440,6.704 0.133 L 6.220 0.027 4.009 0.011 L 1.798 -0.006 1.812 7.787 M15.000 18.600 L 15.000 24.000 18.600 24.000 L 22.200 24.000 22.200 18.600 L 22.200 13.200 18.600 13.200 L 15.000 13.200 15.000 18.600 " stroke="none" fill="black" fill-rule="evenodd"></path></svg>