<svg role="img" viewBox="0 0 24 24" xmlns="http://www.w3.org/2000/svg"><path d="M10.940 0.046 C 9.331 0.185,7.566 0.726,6.178 1.506 C 2.658 3.483,0.380 7.015,0.041 11.020 C -0.002 11.529,-0.015 12.440,0.021 12.440 C 0.033 12.440,0.398 12.191,0.831 11.887 C 6.459 7.941,10.639 5.399,11.800 5.216 C 11.937 5.194,12.033 5.140,12.200 4.992 C 12.584 4.650,13.658 4.176,14.400 4.020 C 14.542 3.990,14.665 3.972,14.673 3.980 C 14.681 3.987,14.476 4.256,14.218 4.578 L 13.750 5.162 13.717 5.482 C 13.659 6.065,13.568 6.388,13.414 6.564 C 13.364 6.621,13.384 6.648,13.589 6.802 C 15.318 8.102,16.861 11.407,17.956 16.160 C 18.309 17.693,18.748 20.053,18.922 21.350 C 18.951 21.565,18.990 21.720,19.016 21.719 C 19.106 21.718,19.995 20.965,20.480 20.480 C 24.709 16.251,25.180 9.566,21.584 4.785 C 19.301 1.748,15.709 -0.028,11.920 0.006 C 11.601 0.009,11.160 0.027,10.940 0.046 M11.080 10.950 C 10.703 11.149,10.069 11.782,9.349 12.682 C 8.848 13.306,8.208 14.177,5.781 17.537 L 3.587 20.575 3.823 20.789 C 4.256 21.181,4.895 21.682,5.341 21.980 C 9.129 24.506,14.026 24.672,17.970 22.408 C 18.184 22.285,18.360 22.163,18.360 22.137 C 18.360 22.052,17.761 20.321,17.396 19.351 C 16.770 17.690,16.277 16.549,15.637 15.280 C 14.303 12.635,13.052 11.179,11.878 10.902 C 11.498 10.813,11.321 10.823,11.080 10.950 M3.860 12.058 C 3.107 12.233,1.057 12.909,0.205 13.264 L 0.071 13.320 0.098 13.550 C 0.185 14.290,0.477 15.445,0.788 16.280 C 0.979 16.795,1.469 17.811,1.517 17.794 C 1.554 17.781,2.758 16.030,3.892 14.340 C 4.729 13.093,5.040 12.514,5.040 12.204 C 5.040 12.086,5.019 12.032,4.963 12.001 C 4.832 11.932,4.284 11.960,3.860 12.058 M6.691 13.026 C 6.163 13.286,4.827 14.759,2.604 17.534 L 1.871 18.449 2.103 18.786 C 2.404 19.224,2.850 19.778,2.898 19.773 C 2.933 19.770,3.821 18.341,5.279 15.940 C 6.401 14.093,6.920 13.169,6.920 13.021 C 6.920 12.944,6.854 12.945,6.691 13.026 " stroke="none" fill="black" fill-rule="evenodd"></path></svg>