<svg role="img" viewBox="0 0 24 24" xmlns="http://www.w3.org/2000/svg"><path d="M10.940 0.046 C 9.378 0.181,7.657 0.700,6.300 1.445 C 3.341 3.070,1.205 5.803,0.380 9.020 C -0.675 13.136,0.513 17.466,3.525 20.475 C 8.080 25.026,15.360 25.186,20.100 20.840 C 22.222 18.894,23.570 16.259,23.927 13.360 C 23.994 12.816,23.994 11.184,23.927 10.640 C 23.661 8.475,22.868 6.504,21.573 4.787 C 19.075 1.472,15.073 -0.312,10.940 0.046 M17.932 6.336 C 18.126 6.468,18.160 6.587,18.160 7.143 L 18.160 7.649 18.005 7.805 L 17.849 7.960 12.021 7.960 C 5.595 7.960,6.059 7.978,5.905 7.718 C 5.817 7.568,5.811 6.692,5.898 6.524 C 5.964 6.397,6.100 6.296,6.243 6.269 C 6.296 6.259,8.923 6.252,12.080 6.255 C 17.647 6.260,17.823 6.262,17.932 6.336 M18.023 9.689 L 18.160 9.839 18.160 10.349 C 18.160 10.933,18.107 11.079,17.860 11.182 C 17.653 11.269,6.347 11.269,6.140 11.182 C 5.893 11.079,5.840 10.933,5.840 10.353 C 5.840 9.862,5.843 9.842,5.947 9.719 C 6.005 9.650,6.091 9.577,6.137 9.559 C 6.183 9.540,8.845 9.528,12.053 9.532 L 17.886 9.540 18.023 9.689 M17.860 12.818 C 18.107 12.921,18.160 13.067,18.160 13.651 L 18.160 14.161 18.023 14.311 L 17.886 14.460 12.000 14.460 L 6.114 14.460 5.977 14.311 L 5.840 14.161 5.840 13.651 C 5.840 13.072,5.892 12.923,6.131 12.819 C 6.327 12.734,17.656 12.732,17.860 12.818 M18.005 16.195 L 18.160 16.351 18.160 16.857 C 18.160 17.413,18.126 17.532,17.932 17.664 C 17.823 17.738,17.650 17.740,12.000 17.740 C 6.350 17.740,6.177 17.738,6.068 17.664 C 5.874 17.532,5.840 17.413,5.840 16.857 L 5.840 16.351 5.995 16.195 L 6.151 16.040 12.000 16.040 L 17.849 16.040 18.005 16.195 " stroke="none" fill="black" fill-rule="evenodd"></path></svg>