<svg role="img" viewBox="0 0 24 24" xmlns="http://www.w3.org/2000/svg"><path d="M10.927 0.058 C 9.633 0.304,8.047 1.222,6.360 2.702 C 5.785 3.207,4.627 4.395,4.123 4.998 C 2.774 6.614,1.762 8.292,1.309 9.667 C 0.925 10.832,0.902 11.690,1.237 12.353 C 1.393 12.662,1.518 12.804,1.995 13.208 C 2.207 13.387,2.402 13.554,2.430 13.578 C 2.469 13.613,2.458 13.706,2.374 14.021 C 2.231 14.558,2.222 15.408,2.353 15.891 C 2.602 16.810,3.279 17.664,4.154 18.165 C 4.563 18.399,5.159 18.596,5.550 18.626 L 5.869 18.651 6.064 19.052 C 7.170 21.315,9.342 23.021,11.953 23.675 C 12.878 23.907,13.464 23.975,14.580 23.977 C 15.623 23.978,15.965 23.948,16.807 23.779 C 19.361 23.266,21.448 21.815,22.632 19.728 C 22.946 19.174,23.135 18.730,23.299 18.160 C 23.569 17.223,23.632 16.443,23.480 15.948 C 23.375 15.611,23.106 15.297,22.865 15.233 L 22.700 15.189 22.518 14.640 L 22.336 14.091 22.446 13.895 C 22.857 13.167,22.708 12.278,22.080 11.712 C 21.783 11.445,21.130 11.128,20.489 10.941 L 19.972 10.790 19.943 9.870 C 19.927 9.365,19.890 8.786,19.860 8.585 C 19.738 7.776,19.404 6.994,18.977 6.522 L 18.830 6.360 19.025 6.137 C 20.080 4.931,20.602 3.847,20.604 2.860 C 20.606 1.904,20.136 1.258,19.209 0.943 C 18.755 0.789,18.390 0.747,17.691 0.770 C 16.728 0.802,15.939 0.994,14.734 1.493 L 14.209 1.710 13.614 1.114 C 12.945 0.442,12.730 0.277,12.335 0.134 C 11.989 0.008,11.365 -0.026,10.927 0.058 M12.056 0.924 C 12.170 0.956,12.325 1.076,12.631 1.374 C 12.860 1.597,13.119 1.864,13.205 1.967 L 13.362 2.154 12.911 2.425 C 11.281 3.406,9.689 4.625,8.559 5.757 C 7.824 6.494,7.476 6.903,6.911 7.700 C 6.203 8.699,5.467 10.052,5.014 11.187 C 4.827 11.657,4.815 11.675,4.685 11.700 C 4.103 11.810,3.386 12.260,2.974 12.772 L 2.851 12.924 2.428 12.512 C 2.040 12.135,1.998 12.080,1.935 11.860 C 1.769 11.288,1.884 10.480,2.267 9.526 C 3.502 6.453,6.739 2.910,9.633 1.462 C 10.602 0.977,11.517 0.774,12.056 0.924 M14.761 4.379 C 14.642 4.499,14.553 4.605,14.562 4.614 C 14.572 4.622,14.760 4.661,14.980 4.700 C 15.492 4.790,16.100 4.970,16.470 5.141 C 16.776 5.282,16.862 5.391,16.630 5.344 C 15.930 5.202,15.703 5.183,14.740 5.181 C 13.605 5.180,13.290 5.220,12.351 5.484 C 11.426 5.745,10.534 6.137,9.846 6.586 C 9.662 6.706,9.502 6.795,9.491 6.784 C 9.417 6.711,10.571 5.586,11.219 5.100 C 11.726 4.719,12.437 4.274,12.488 4.305 C 12.505 4.316,12.482 4.398,12.436 4.488 C 12.338 4.680,12.233 4.966,12.253 4.987 C 12.261 4.994,12.473 4.903,12.724 4.785 C 13.475 4.429,14.340 4.170,14.799 4.163 L 14.977 4.160 14.761 4.379 M18.353 7.464 C 18.565 7.569,18.745 7.779,18.859 8.050 C 18.978 8.336,19.046 8.857,19.102 9.909 C 19.161 11.034,19.174 11.146,19.264 11.325 C 19.332 11.460,19.460 11.518,20.140 11.720 C 21.421 12.101,21.892 12.485,21.829 13.095 C 21.765 13.719,21.104 14.352,19.949 14.899 C 18.466 15.600,16.598 15.895,14.861 15.701 C 14.327 15.642,14.115 15.658,13.886 15.777 C 13.705 15.871,13.474 16.130,13.365 16.360 C 13.272 16.554,13.260 16.630,13.260 17.000 C 13.260 17.373,13.272 17.446,13.368 17.651 C 13.709 18.378,14.872 18.880,16.219 18.880 C 17.847 18.880,19.572 18.364,20.728 17.532 C 21.067 17.288,21.643 16.714,21.572 16.691 C 21.549 16.683,21.370 16.774,21.175 16.893 C 20.150 17.517,18.996 17.966,17.804 18.204 C 17.221 18.320,16.096 18.351,15.540 18.266 C 14.555 18.116,13.951 17.767,13.857 17.295 L 13.832 17.170 14.186 17.265 C 14.938 17.466,16.062 17.543,16.720 17.438 C 17.083 17.380,17.603 17.237,17.581 17.201 C 17.571 17.185,17.179 17.161,16.711 17.149 C 15.874 17.128,15.173 17.053,14.700 16.936 C 14.214 16.816,13.880 16.707,13.880 16.670 C 13.880 16.589,14.017 16.407,14.127 16.342 C 14.269 16.259,14.507 16.253,15.114 16.321 C 15.681 16.384,17.009 16.351,17.600 16.260 C 19.045 16.037,20.335 15.560,21.367 14.868 L 21.754 14.609 21.852 14.874 C 21.906 15.021,21.991 15.307,22.040 15.510 C 22.118 15.832,22.140 15.880,22.215 15.881 C 22.262 15.881,22.374 15.915,22.464 15.956 C 22.751 16.086,22.819 16.401,22.698 17.038 C 22.247 19.416,19.941 21.296,17.100 21.603 C 15.407 21.786,13.665 21.213,12.643 20.138 C 12.302 19.779,12.162 19.575,11.939 19.111 C 11.404 18.002,11.388 16.568,11.897 15.391 C 12.079 14.970,12.249 14.694,12.550 14.330 C 12.921 13.883,12.924 13.896,12.207 13.064 C 11.248 11.950,11.026 10.766,11.567 9.642 C 11.777 9.205,12.243 8.725,12.646 8.528 C 13.144 8.286,13.350 8.258,14.155 8.323 C 15.199 8.407,15.755 8.398,16.104 8.290 C 16.388 8.201,16.802 7.953,17.180 7.643 C 17.540 7.348,17.984 7.280,18.353 7.464 M17.801 9.571 C 17.634 9.656,17.594 9.783,17.614 10.160 C 17.632 10.509,17.779 11.057,17.901 11.230 C 17.956 11.308,18.000 11.320,18.224 11.320 C 18.536 11.320,18.541 11.313,18.537 10.840 C 18.534 10.354,18.397 9.882,18.201 9.676 C 18.044 9.511,17.962 9.490,17.801 9.571 M13.840 11.135 C 13.440 11.252,13.000 11.576,13.000 11.754 C 13.000 11.870,13.101 11.865,13.500 11.732 C 13.766 11.643,13.894 11.625,14.260 11.623 C 14.681 11.620,14.716 11.627,15.072 11.773 C 15.469 11.936,15.588 11.947,15.568 11.819 C 15.537 11.624,15.158 11.290,14.840 11.177 C 14.596 11.091,14.066 11.069,13.840 11.135 M18.183 11.981 C 18.015 12.161,18.011 12.452,18.172 12.630 C 18.415 12.898,18.769 12.531,18.641 12.144 C 18.555 11.883,18.343 11.807,18.183 11.981 M14.362 12.132 C 14.287 12.156,14.144 12.254,14.045 12.349 C 13.884 12.502,13.871 12.528,13.924 12.581 C 13.977 12.634,14.011 12.631,14.222 12.553 C 14.417 12.481,14.549 12.464,14.947 12.462 C 15.215 12.461,15.446 12.447,15.460 12.433 C 15.513 12.380,15.397 12.246,15.228 12.164 C 15.034 12.070,14.606 12.054,14.362 12.132 M16.980 12.472 C 16.680 12.534,16.693 12.901,17.000 13.060 C 17.238 13.183,17.560 13.090,17.560 12.898 C 17.560 12.660,17.233 12.420,16.980 12.472 M5.848 12.524 C 6.440 12.648,7.050 13.138,7.334 13.720 C 7.596 14.259,7.654 14.557,7.656 15.400 C 7.658 16.101,7.652 16.157,7.549 16.463 C 7.277 17.276,6.768 17.703,6.018 17.750 C 5.159 17.804,4.339 17.405,3.708 16.626 C 3.302 16.126,3.146 15.675,3.146 15.000 C 3.145 14.464,3.211 14.162,3.426 13.723 C 3.844 12.869,4.928 12.332,5.848 12.524 M5.013 13.472 C 4.900 13.512,4.743 13.594,4.664 13.654 C 4.367 13.881,4.143 14.339,4.141 14.727 C 4.139 15.174,4.361 15.166,4.526 14.713 C 4.717 14.187,5.172 13.984,5.588 14.238 C 5.890 14.423,5.949 14.672,5.813 15.194 C 5.741 15.467,5.718 15.640,5.733 15.785 C 5.794 16.395,6.353 16.716,6.759 16.375 C 6.869 16.282,6.923 16.127,6.850 16.115 C 6.834 16.112,6.784 16.106,6.739 16.101 C 6.538 16.078,6.200 15.813,6.200 15.678 C 6.200 15.638,6.256 15.465,6.325 15.293 C 6.510 14.833,6.548 14.554,6.466 14.273 C 6.280 13.638,5.599 13.262,5.013 13.472 " stroke="none" fill="black" fill-rule="evenodd"></path></svg>