<svg role="img" viewBox="0 0 24 24" xmlns="http://www.w3.org/2000/svg"><path d="M10.940 0.046 C 9.417 0.177,7.804 0.652,6.441 1.368 C 1.495 3.970,-1.004 9.582,0.380 14.980 C 1.740 20.280,6.532 24.000,12.000 23.999 C 17.650 23.998,22.560 20.031,23.736 14.516 C 23.927 13.623,23.978 13.092,23.978 12.020 C 23.978 10.948,23.927 10.419,23.735 9.520 C 22.470 3.575,16.996 -0.478,10.940 0.046 M13.208 1.739 C 16.508 2.125,19.369 4.042,21.037 6.985 C 21.597 7.973,22.033 9.256,22.227 10.480 C 22.330 11.133,22.331 12.864,22.228 13.513 C 21.813 16.132,20.507 18.406,18.476 20.046 C 17.053 21.195,15.374 21.934,13.520 22.227 C 12.874 22.329,11.135 22.331,10.498 22.230 C 7.637 21.776,5.172 20.251,3.532 17.920 C 2.554 16.530,1.939 14.914,1.739 13.208 C 1.663 12.558,1.663 11.442,1.739 10.792 C 2.292 6.067,6.030 2.312,10.748 1.741 C 11.350 1.668,12.592 1.667,13.208 1.739 M8.114 4.182 C 7.513 4.292,7.015 4.551,6.548 4.995 C 5.986 5.531,5.677 6.068,5.542 6.740 C 5.485 7.026,5.479 7.642,5.489 12.560 L 5.500 18.060 5.615 18.309 C 5.750 18.601,6.033 18.886,6.311 19.010 C 6.429 19.062,6.617 19.100,6.812 19.112 C 7.388 19.146,7.855 18.944,8.145 18.536 C 8.415 18.156,8.400 18.510,8.400 12.513 L 8.400 7.080 9.479 7.080 L 10.559 7.080 10.569 12.571 L 10.580 18.062 10.711 18.329 C 10.966 18.845,11.369 19.080,12.000 19.080 C 12.632 19.080,13.067 18.824,13.304 18.312 L 13.420 18.060 13.431 12.570 L 13.441 7.080 14.520 7.080 L 15.599 7.080 15.609 12.570 L 15.620 18.060 15.726 18.286 C 15.861 18.574,16.106 18.819,16.394 18.954 C 16.598 19.050,16.666 19.060,17.080 19.060 C 17.483 19.059,17.564 19.047,17.732 18.964 C 17.990 18.837,18.250 18.569,18.387 18.290 L 18.500 18.060 18.500 12.440 L 18.500 6.820 18.408 6.500 C 18.156 5.628,17.513 4.859,16.700 4.458 C 16.015 4.120,16.327 4.142,12.140 4.134 C 9.100 4.127,8.364 4.136,8.114 4.182 " stroke="none" fill="black" fill-rule="evenodd"></path></svg>