<svg role="img" viewBox="0 0 24 24" xmlns="http://www.w3.org/2000/svg"><path d="M6.340 4.661 C 3.746 5.075,1.596 6.736,0.597 9.098 C 0.179 10.087,0.022 10.882,0.022 12.000 C 0.022 13.118,0.179 13.913,0.597 14.902 C 1.542 17.135,3.524 18.750,5.958 19.270 C 6.423 19.369,6.530 19.377,7.420 19.377 C 8.310 19.377,8.417 19.369,8.882 19.270 C 9.718 19.092,10.539 18.775,11.207 18.373 L 11.513 18.188 11.077 17.770 C 9.405 16.168,8.529 14.016,8.612 11.720 C 8.688 9.637,9.497 7.807,11.003 6.315 L 11.512 5.811 11.206 5.627 C 10.544 5.229,9.717 4.908,8.903 4.735 C 8.490 4.647,8.295 4.630,7.560 4.618 C 6.943 4.607,6.598 4.619,6.340 4.661 M15.740 4.627 C 14.705 4.759,13.627 5.125,12.795 5.626 L 12.490 5.810 13.016 6.335 C 14.513 7.830,15.312 9.644,15.388 11.720 C 15.471 14.016,14.594 16.163,12.910 17.785 L 12.489 18.190 12.795 18.374 C 13.472 18.781,14.354 19.116,15.204 19.287 C 15.602 19.368,15.778 19.379,16.580 19.379 C 17.537 19.379,17.793 19.349,18.520 19.157 C 20.674 18.586,22.528 16.971,23.403 14.902 C 23.642 14.335,23.807 13.770,23.906 13.174 C 24.005 12.576,24.005 11.424,23.906 10.826 C 23.505 8.418,21.999 6.395,19.820 5.341 C 18.705 4.801,17.784 4.595,16.535 4.606 C 16.164 4.609,15.806 4.619,15.740 4.627 M11.648 6.475 C 9.948 7.974,9.004 10.310,9.194 12.550 C 9.339 14.249,9.951 15.684,11.075 16.955 C 11.372 17.291,11.936 17.800,12.011 17.800 C 12.096 17.800,12.815 17.102,13.130 16.711 C 13.535 16.212,13.840 15.734,14.100 15.191 C 15.421 12.442,14.916 9.194,12.816 6.922 C 12.551 6.636,12.058 6.200,11.999 6.200 C 11.978 6.200,11.820 6.324,11.648 6.475 " stroke="none" fill="black" fill-rule="evenodd"></path></svg>