<svg role="img" xmlns="http://www.w3.org/2000/svg" viewBox="0 0 24 24"><path d="M0.000 3.600 L 0.000 7.200 1.200 7.200 L 2.400 7.200 2.400 12.000 L 2.400 16.800 1.200 16.800 L 0.000 16.800 0.000 20.400 L 0.000 24.000 3.600 24.000 L 7.200 24.000 7.200 22.800 L 7.200 21.600 12.000 21.600 L 16.800 21.600 16.800 22.800 L 16.800 24.000 20.400 24.000 L 24.000 24.000 24.000 20.400 L 24.000 16.800 22.800 16.800 L 21.600 16.800 21.600 12.000 L 21.600 7.200 22.800 7.200 L 24.000 7.200 24.000 3.600 L 24.000 0.000 20.400 0.000 L 16.800 0.000 16.800 1.200 L 16.800 2.400 12.000 2.400 L 7.200 2.400 7.200 1.200 L 7.200 0.000 3.600 0.000 L 0.000 0.000 0.000 3.600 M4.800 3.600 L 4.800 4.800 3.600 4.800 L 2.400 4.800 2.400 3.600 L 2.400 2.400 3.600 2.400 L 4.800 2.400 4.800 3.600 M21.600 3.600 L 21.600 4.800 20.400 4.800 L 19.200 4.800 19.200 3.600 L 19.200 2.400 20.400 2.400 L 21.600 2.400 21.600 3.600 M16.800 6.000 L 16.800 7.200 18.000 7.200 L 19.200 7.200 19.200 12.000 L 19.200 16.800 18.000 16.800 L 16.800 16.800 16.800 18.000 L 16.800 19.200 12.000 19.200 L 7.200 19.200 7.200 18.000 L 7.200 16.800 6.000 16.800 L 4.800 16.800 4.800 12.000 L 4.800 7.200 6.000 7.200 L 7.200 7.200 7.200 6.000 L 7.200 4.800 12.000 4.800 L 16.800 4.800 16.800 6.000 M4.800 20.400 L 4.800 21.600 3.600 21.600 L 2.400 21.600 2.400 20.400 L 2.400 19.200 3.600 19.200 L 4.800 19.200 4.800 20.400 M21.600 20.400 L 21.600 21.600 20.400 21.600 L 19.200 21.600 19.200 20.400 L 19.200 19.200 20.400 19.200 L 21.600 19.200 21.600 20.400 " stroke="none" fill="black" fill-rule="evenodd"></path></svg>