<svg role="img" viewBox="0 0 24 24" xmlns="http://www.w3.org/2000/svg"><path d="M0.000 12.000 L 0.000 24.000 1.140 24.000 L 2.280 24.000 2.280 23.720 L 2.280 23.440 1.460 23.440 L 0.640 23.440 0.640 12.000 L 0.640 0.560 1.460 0.560 L 2.280 0.560 2.280 0.280 L 2.280 0.000 1.140 0.000 L 0.000 0.000 0.000 12.000 M21.720 0.280 L 21.720 0.560 22.540 0.560 L 23.360 0.560 23.360 12.000 L 23.360 23.440 22.540 23.440 L 21.720 23.440 21.720 23.720 L 21.720 24.000 22.860 24.000 L 24.000 24.000 24.000 12.000 L 24.000 0.000 22.860 0.000 L 21.720 0.000 21.720 0.280 M9.959 7.600 C 9.178 7.676,8.412 8.090,7.911 8.707 L 7.700 8.968 7.689 8.383 L 7.678 7.799 6.569 7.809 L 5.460 7.820 5.450 12.090 L 5.440 16.360 6.618 16.360 L 7.796 16.360 7.809 13.610 C 7.822 10.898,7.823 10.856,7.910 10.598 C 8.078 10.099,8.464 9.683,8.900 9.530 C 9.039 9.481,9.221 9.460,9.500 9.460 C 9.858 9.460,9.924 9.472,10.129 9.573 C 10.560 9.784,10.742 10.132,10.802 10.859 C 10.822 11.102,10.839 12.438,10.839 13.830 L 10.840 16.360 11.997 16.360 L 13.154 16.360 13.172 13.690 C 13.192 10.936,13.200 10.788,13.366 10.345 C 13.480 10.038,13.805 9.684,14.090 9.555 C 14.272 9.473,14.361 9.460,14.760 9.460 C 15.155 9.460,15.248 9.473,15.420 9.552 C 15.782 9.718,15.991 9.987,16.113 10.440 C 16.161 10.621,16.175 11.166,16.189 13.510 L 16.207 16.360 17.363 16.360 L 18.520 16.360 18.519 13.230 C 18.519 10.282,18.514 10.078,18.441 9.720 C 18.225 8.672,17.571 7.983,16.540 7.717 C 15.888 7.550,15.020 7.550,14.479 7.717 C 13.991 7.869,13.371 8.309,13.011 8.759 L 12.820 8.998 12.714 8.787 C 12.575 8.513,12.274 8.181,12.012 8.013 C 11.746 7.843,11.176 7.652,10.840 7.621 C 10.319 7.572,10.255 7.571,9.959 7.600 " stroke="none" fill="black" fill-rule="evenodd"></path></svg>