<svg role="img" viewBox="0 0 24 24" xmlns="http://www.w3.org/2000/svg"><path d="M11.200 0.027 C 8.317 0.228,5.559 1.482,3.519 3.519 C 1.641 5.395,0.475 7.771,0.094 10.500 C -0.008 11.227,-0.008 12.773,0.094 13.500 C 0.478 16.248,1.653 18.627,3.561 20.522 C 5.399 22.347,7.675 23.473,10.360 23.885 C 11.148 24.006,12.717 24.016,13.500 23.906 C 16.215 23.525,18.573 22.374,20.441 20.520 C 24.245 16.745,25.088 10.911,22.509 6.220 C 21.986 5.269,21.250 4.291,20.460 3.500 C 20.017 3.055,19.151 2.320,19.071 2.320 C 19.052 2.320,19.045 2.378,19.056 2.450 C 19.068 2.522,19.098 3.084,19.125 3.700 L 19.173 4.820 19.453 5.160 C 20.347 6.244,21.028 7.667,21.299 9.013 C 21.677 10.900,21.427 12.749,20.559 14.480 C 19.066 17.456,15.834 19.321,12.400 19.186 C 8.043 19.016,4.468 15.981,3.675 11.780 C 3.569 11.221,3.529 9.960,3.597 9.356 C 3.949 6.254,6.020 3.594,8.991 2.425 C 9.405 2.262,10.051 2.070,10.428 1.998 L 10.675 1.951 11.068 1.486 C 11.283 1.230,11.655 0.792,11.892 0.511 L 12.325 0.000 11.852 0.007 C 11.593 0.011,11.299 0.020,11.200 0.027 M15.491 1.134 C 15.390 1.188,15.185 1.422,14.647 2.100 C 14.437 2.364,13.759 3.201,13.139 3.960 C 11.265 6.257,9.987 7.861,9.847 8.094 C 9.662 8.399,9.456 8.887,9.353 9.264 C 9.237 9.685,9.227 10.567,9.334 10.960 C 9.441 11.351,9.728 11.910,9.967 12.189 C 10.487 12.796,11.284 13.243,12.133 13.404 C 12.535 13.481,13.210 13.462,13.580 13.364 C 14.943 13.005,15.875 11.839,16.078 10.236 C 16.113 9.960,16.046 6.415,15.978 4.960 C 15.965 4.663,15.940 3.724,15.925 2.874 C 15.894 1.216,15.899 1.253,15.682 1.141 C 15.601 1.099,15.559 1.098,15.491 1.134 " stroke="none" fill="black" fill-rule="evenodd"></path></svg>