<svg role="img" xmlns="http://www.w3.org/2000/svg" viewBox="0 0 24 24"><path d="M6.750 0.642 C 6.668 0.686,6.571 0.767,6.535 0.822 C 6.451 0.951,6.451 1.187,6.535 1.351 C 6.717 1.703,7.308 1.671,7.462 1.300 C 7.537 1.122,7.535 1.024,7.453 0.851 C 7.323 0.578,7.035 0.492,6.750 0.642 M13.040 1.283 C 12.582 1.491,12.347 1.984,12.480 2.459 C 12.543 2.685,12.803 2.987,13.018 3.085 C 13.379 3.249,13.927 3.133,14.173 2.841 C 14.619 2.311,14.409 1.485,13.770 1.257 C 13.549 1.178,13.248 1.189,13.040 1.283 M9.580 3.502 C 8.777 3.652,8.054 3.972,7.400 4.464 C 6.940 4.811,6.608 5.161,6.279 5.650 C 6.070 5.961,5.760 6.545,5.760 6.629 C 5.760 6.647,5.594 6.701,5.390 6.749 C 4.249 7.020,3.388 7.815,2.993 8.960 C 2.867 9.327,2.862 9.362,2.861 9.980 C 2.860 10.698,2.914 10.950,3.188 11.511 L 3.330 11.802 3.109 12.033 C 2.719 12.442,2.437 12.961,2.269 13.577 C 2.152 14.003,2.143 14.920,2.251 15.320 C 2.634 16.738,3.646 17.701,5.085 18.016 C 5.182 18.037,5.191 18.059,5.218 18.324 C 5.444 20.625,7.638 22.220,9.918 21.740 C 10.420 21.635,11.056 21.350,11.360 21.093 L 11.485 20.988 11.593 21.074 C 12.103 21.479,12.656 21.683,13.326 21.710 C 13.917 21.735,14.269 21.661,14.771 21.410 C 15.401 21.095,15.883 20.546,16.164 19.823 L 16.274 19.540 16.707 19.515 C 17.364 19.477,17.886 19.333,18.437 19.037 C 19.760 18.326,20.598 16.997,20.668 15.496 C 20.706 14.704,20.570 14.055,20.222 13.359 L 20.052 13.018 20.238 12.811 C 20.958 12.006,21.110 10.960,20.642 10.020 C 20.555 9.844,20.409 9.614,20.318 9.509 C 20.108 9.267,19.711 8.983,19.412 8.862 L 19.180 8.768 19.154 8.274 C 19.104 7.340,18.881 6.653,18.392 5.928 C 17.648 4.825,16.494 4.144,15.116 3.994 C 14.607 3.939,14.015 3.992,13.514 4.137 L 13.193 4.230 12.820 4.034 C 12.409 3.818,12.043 3.680,11.547 3.555 C 11.106 3.444,10.043 3.415,9.580 3.502 M4.592 4.280 C 4.209 4.395,3.975 4.812,4.078 5.194 C 4.255 5.850,5.183 5.954,5.475 5.350 C 5.674 4.940,5.517 4.509,5.100 4.316 C 4.931 4.237,4.770 4.226,4.592 4.280 M20.598 6.657 C 20.338 6.724,20.182 6.849,20.063 7.088 C 19.928 7.360,19.930 7.566,20.070 7.843 C 20.220 8.139,20.476 8.299,20.796 8.297 C 21.320 8.294,21.675 7.902,21.631 7.374 C 21.589 6.867,21.099 6.527,20.598 6.657 M12.986 7.699 C 13.133 7.743,13.267 7.833,13.493 8.039 C 13.662 8.193,13.846 8.330,13.903 8.344 C 13.976 8.363,14.094 8.329,14.313 8.226 C 14.983 7.913,15.896 8.019,16.338 8.461 C 16.527 8.650,16.661 8.935,16.723 9.279 C 16.812 9.778,16.667 10.260,15.912 11.978 C 15.418 13.100,15.276 13.447,15.134 13.880 C 14.910 14.562,14.867 15.020,15.000 15.312 C 15.101 15.534,15.347 15.650,15.903 15.737 C 16.691 15.859,16.880 15.993,16.880 16.428 C 16.879 16.944,16.389 17.161,15.420 17.073 C 14.592 16.998,14.061 16.791,13.660 16.385 C 13.230 15.950,13.004 15.354,13.058 14.800 C 13.093 14.455,13.250 14.071,13.971 12.580 C 14.862 10.737,14.923 10.577,14.838 10.333 C 14.732 10.027,14.328 10.065,14.068 10.407 C 14.012 10.480,13.454 11.548,12.829 12.780 C 11.823 14.764,11.668 15.046,11.476 15.246 C 11.229 15.506,11.039 15.579,10.680 15.552 C 10.208 15.516,10.000 15.314,10.000 14.890 C 10.000 14.662,10.051 14.514,10.595 13.150 C 11.324 11.322,11.334 11.292,11.311 11.009 C 11.295 10.816,11.273 10.769,11.147 10.653 C 11.047 10.562,10.962 10.520,10.877 10.520 C 10.697 10.520,10.482 10.634,10.395 10.777 C 10.353 10.845,9.984 11.746,9.574 12.780 C 8.248 16.126,8.246 16.130,7.864 16.389 C 7.623 16.553,7.452 16.599,7.094 16.600 C 6.421 16.600,5.871 16.279,5.571 15.711 C 5.469 15.516,5.460 15.466,5.462 15.060 L 5.464 14.620 5.875 13.280 C 6.591 10.945,7.059 9.596,7.366 8.988 C 7.675 8.377,8.426 7.920,9.122 7.920 C 9.440 7.920,9.562 7.960,10.231 8.283 C 10.952 8.630,11.016 8.623,11.600 8.120 C 11.780 7.965,11.979 7.812,12.042 7.779 C 12.312 7.639,12.679 7.608,12.986 7.699 M23.216 9.856 C 23.102 9.970,23.080 10.021,23.080 10.171 C 23.080 10.588,23.560 10.789,23.855 10.495 C 24.149 10.200,23.948 9.720,23.531 9.720 C 23.381 9.720,23.330 9.742,23.216 9.856 M0.578 10.615 C -0.000 10.884,-0.175 11.618,0.217 12.133 C 0.273 12.207,0.414 12.319,0.530 12.383 C 1.020 12.654,1.648 12.448,1.904 11.933 C 2.012 11.715,2.006 11.275,1.892 11.060 C 1.640 10.583,1.064 10.388,0.578 10.615 M22.107 12.658 C 21.720 12.796,21.571 13.185,21.771 13.538 C 22.079 14.082,22.920 13.867,22.920 13.243 C 22.920 12.992,22.810 12.802,22.599 12.691 C 22.403 12.587,22.322 12.582,22.107 12.658 M3.750 18.880 C 3.602 19.028,3.591 19.054,3.612 19.205 C 3.692 19.803,4.520 19.742,4.520 19.138 C 4.520 18.920,4.309 18.720,4.079 18.720 C 3.936 18.720,3.887 18.744,3.750 18.880 M17.560 20.277 C 17.327 20.324,17.126 20.441,16.966 20.623 C 16.630 21.005,16.630 21.596,16.967 21.979 C 17.419 22.492,18.214 22.454,18.589 21.903 C 18.837 21.539,18.858 21.170,18.652 20.792 C 18.521 20.551,18.307 20.383,18.026 20.300 C 17.811 20.236,17.776 20.234,17.560 20.277 M11.138 22.216 C 10.763 22.380,10.645 22.890,10.910 23.204 C 11.198 23.546,11.740 23.503,11.955 23.120 C 12.256 22.584,11.701 21.971,11.138 22.216 " stroke="none" fill="black" fill-rule="evenodd"></path></svg>