<svg role="img" viewBox="0 0 24 24" xmlns="http://www.w3.org/2000/svg"><path d="M6.602 5.401 C 5.333 5.578,4.230 6.454,3.803 7.625 C 3.635 8.086,3.587 8.464,3.610 9.128 C 3.626 9.597,3.648 9.757,3.733 10.020 C 3.950 10.693,4.071 12.134,3.960 12.722 C 3.873 13.180,3.599 13.594,3.271 13.764 C 3.033 13.886,2.650 13.959,2.234 13.959 C 1.605 13.960,1.169 14.139,0.619 14.622 C 0.158 15.027,-0.036 15.585,0.014 16.360 C 0.061 17.080,0.247 17.530,0.673 17.954 C 1.135 18.415,1.672 18.640,2.310 18.640 C 2.958 18.640,3.482 18.409,3.927 17.928 C 4.357 17.463,4.542 16.927,4.510 16.240 C 4.492 15.858,4.473 15.775,4.297 15.320 C 4.111 14.839,4.104 14.804,4.102 14.400 C 4.100 14.007,4.108 13.962,4.230 13.706 C 4.570 12.988,5.436 12.519,6.643 12.398 C 8.190 12.243,9.587 12.850,9.885 13.805 C 10.021 14.242,9.970 14.651,9.716 15.180 C 9.521 15.586,9.440 15.902,9.441 16.258 C 9.442 16.892,9.662 17.420,10.120 17.882 C 10.450 18.216,10.668 18.354,11.120 18.511 C 11.388 18.605,11.479 18.616,11.980 18.616 C 12.482 18.616,12.572 18.605,12.844 18.510 C 13.281 18.358,13.590 18.162,13.883 17.852 C 14.300 17.409,14.520 16.867,14.520 16.280 C 14.520 15.910,14.442 15.592,14.259 15.212 C 13.791 14.244,13.988 13.431,14.819 12.899 C 15.827 12.254,17.573 12.200,18.740 12.777 C 19.796 13.300,20.116 14.115,19.698 15.220 C 19.495 15.757,19.441 16.000,19.441 16.382 C 19.439 17.016,19.654 17.540,20.097 17.984 C 20.544 18.434,21.029 18.640,21.639 18.640 C 22.267 18.640,22.777 18.441,23.236 18.015 C 23.708 17.579,23.920 17.028,23.920 16.242 C 23.920 15.543,23.733 15.015,23.339 14.602 C 22.932 14.175,22.391 13.960,21.722 13.959 C 21.327 13.959,20.925 13.886,20.716 13.778 C 20.373 13.601,20.130 13.255,20.020 12.791 C 19.907 12.310,19.970 11.026,20.139 10.360 C 20.170 10.239,20.232 9.996,20.277 9.820 C 20.377 9.431,20.391 8.532,20.303 8.119 C 20.129 7.299,19.630 6.521,18.983 6.062 C 17.380 4.925,15.316 5.238,14.149 6.796 C 13.991 7.007,13.636 7.407,13.361 7.685 C 12.722 8.328,12.559 8.416,11.999 8.419 C 11.647 8.420,11.598 8.410,11.339 8.284 C 11.109 8.173,10.970 8.057,10.548 7.629 C 10.266 7.343,9.961 6.999,9.870 6.865 C 9.542 6.378,9.001 5.922,8.462 5.678 C 7.930 5.437,7.165 5.323,6.602 5.401 M12.542 9.261 C 13.376 9.473,14.046 10.131,14.257 10.946 C 14.337 11.258,14.338 11.834,14.259 12.138 C 14.113 12.697,13.615 13.346,13.130 13.611 C 12.474 13.968,11.451 13.961,10.812 13.596 C 10.311 13.309,9.849 12.700,9.703 12.134 C 9.622 11.820,9.622 11.261,9.703 10.949 C 9.915 10.132,10.562 9.489,11.400 9.264 C 11.689 9.187,12.243 9.185,12.542 9.261 " stroke="none" fill="black" fill-rule="evenodd"></path></svg>