<svg role="img" viewBox="0 0 24 24" xmlns="http://www.w3.org/2000/svg"><path d="M10.940 0.046 C 7.599 0.334,4.453 2.086,2.425 4.787 C 1.145 6.491,0.394 8.338,0.094 10.520 C -0.002 11.214,-0.002 12.786,0.094 13.480 C 0.394 15.663,1.147 17.514,2.426 19.213 C 5.289 23.018,10.116 24.764,14.760 23.677 C 17.468 23.042,19.903 21.450,21.585 19.215 C 22.838 17.548,23.611 15.665,23.907 13.557 C 24.005 12.859,24.005 11.141,23.907 10.443 C 23.449 7.183,21.801 4.369,19.200 2.405 C 16.856 0.635,13.898 -0.210,10.940 0.046 M11.558 1.750 C 11.556 1.811,11.227 3.894,10.826 6.379 L 10.098 10.898 6.479 13.847 C 4.488 15.469,2.849 16.797,2.836 16.798 C 2.801 16.801,2.474 16.083,2.307 15.636 C 1.840 14.388,1.663 13.380,1.665 11.980 C 1.667 10.728,1.800 9.878,2.167 8.760 C 2.890 6.565,4.362 4.645,6.313 3.354 C 7.720 2.423,9.364 1.842,11.040 1.683 C 11.594 1.631,11.560 1.626,11.558 1.750 M13.280 1.723 C 15.124 1.936,16.967 2.715,18.480 3.920 C 20.343 5.404,21.690 7.611,22.156 9.940 C 22.309 10.707,22.340 11.048,22.340 12.000 C 22.340 12.952,22.309 13.292,22.156 14.060 C 21.996 14.862,21.669 15.826,21.327 16.505 L 21.175 16.807 19.536 15.474 C 18.635 14.740,17.003 13.412,15.910 12.523 C 14.427 11.316,13.918 10.880,13.902 10.803 C 13.863 10.621,12.440 1.748,12.440 1.691 C 12.440 1.633,12.526 1.636,13.280 1.723 M16.370 15.865 C 18.774 16.780,20.744 17.533,20.750 17.538 C 20.767 17.552,20.351 18.140,20.080 18.486 C 19.748 18.908,18.959 19.702,18.520 20.054 C 15.712 22.307,11.982 22.955,8.601 21.779 C 6.530 21.057,4.703 19.667,3.491 17.890 C 3.367 17.709,3.276 17.551,3.288 17.539 C 3.302 17.525,11.759 14.283,11.990 14.203 C 11.996 14.202,13.967 14.949,16.370 15.865 " stroke="none" fill="black" fill-rule="evenodd"></path></svg>