<svg role="img" viewBox="0 0 24 24" xmlns="http://www.w3.org/2000/svg"><path d="M10.900 0.044 C 8.431 0.247,6.104 1.151,4.240 2.632 C 3.773 3.004,2.870 3.903,2.504 4.360 C 1.575 5.524,0.805 7.035,0.425 8.440 C 0.164 9.402,0.044 10.246,0.012 11.340 C -0.037 13.017,0.207 14.461,0.788 15.940 C 1.376 17.435,2.136 18.597,3.323 19.819 C 3.797 20.307,3.962 20.503,4.012 20.640 C 4.062 20.780,4.086 21.094,4.119 22.040 C 4.160 23.231,4.163 23.265,4.265 23.473 C 4.437 23.826,4.805 24.029,5.200 23.991 C 5.316 23.979,5.842 23.769,6.680 23.400 C 7.635 22.980,8.034 22.823,8.185 22.809 C 8.324 22.797,8.532 22.824,8.825 22.895 C 9.814 23.130,10.590 23.235,11.600 23.267 C 14.155 23.349,16.641 22.696,18.706 21.400 C 19.635 20.817,20.836 19.749,21.496 18.920 C 22.606 17.526,23.398 15.830,23.757 14.076 C 23.932 13.222,23.975 12.741,23.975 11.640 C 23.975 10.539,23.932 10.058,23.757 9.204 C 23.397 7.448,22.601 5.743,21.495 4.360 C 21.114 3.883,20.216 2.991,19.734 2.610 C 17.315 0.700,14.142 -0.222,10.900 0.044 M18.957 8.139 C 19.020 8.171,19.119 8.255,19.179 8.326 C 19.271 8.435,19.285 8.484,19.273 8.657 C 19.261 8.847,19.143 9.046,17.440 11.756 C 16.152 13.806,15.559 14.714,15.412 14.863 C 14.903 15.379,14.086 15.527,13.420 15.224 C 13.310 15.174,12.565 14.643,11.765 14.043 C 10.965 13.444,10.254 12.919,10.185 12.877 C 10.042 12.789,9.686 12.772,9.547 12.847 C 9.499 12.872,8.587 13.553,7.520 14.361 C 6.453 15.168,5.541 15.849,5.493 15.874 C 5.287 15.982,5.013 15.901,4.825 15.678 C 4.744 15.583,4.720 15.510,4.720 15.366 C 4.720 15.187,4.807 15.040,6.495 12.354 C 7.471 10.801,8.325 9.448,8.394 9.348 C 8.749 8.833,9.506 8.516,10.114 8.629 C 10.244 8.653,10.446 8.715,10.565 8.765 C 10.690 8.819,11.411 9.330,12.284 9.984 C 13.111 10.604,13.825 11.131,13.871 11.155 C 13.980 11.214,14.341 11.213,14.453 11.154 C 14.501 11.128,15.417 10.444,16.488 9.633 C 17.559 8.822,18.477 8.142,18.528 8.122 C 18.666 8.067,18.830 8.073,18.957 8.139 " stroke="none" fill="black" fill-rule="evenodd"></path></svg>