<svg role="img" viewBox="0 0 24 24" xmlns="http://www.w3.org/2000/svg"><path d="M0.746 1.020 C 1.056 1.350,5.641 6.210,10.935 11.820 C 19.742 21.152,20.579 22.028,20.770 22.109 C 21.161 22.274,21.533 22.198,21.795 21.899 C 22.038 21.622,22.115 21.282,22.006 20.957 C 21.969 20.845,21.379 20.271,19.229 18.256 C 14.148 13.492,0.501 0.709,0.342 0.564 C 0.255 0.485,0.437 0.690,0.746 1.020 M7.469 3.330 C 7.885 3.776,11.353 7.515,15.177 11.640 C 20.023 16.868,22.180 19.168,22.296 19.231 C 22.508 19.347,22.822 19.385,23.020 19.320 C 23.207 19.258,23.462 19.032,23.560 18.841 C 23.677 18.611,23.695 18.431,23.624 18.187 C 23.561 17.972,23.535 17.944,22.130 16.653 C 10.554 6.008,6.755 2.520,6.736 2.520 C 6.724 2.520,7.054 2.885,7.469 3.330 M12.301 4.364 C 12.652 4.791,22.975 15.874,23.056 15.911 C 23.109 15.935,23.217 15.967,23.295 15.982 C 23.585 16.036,23.933 15.758,23.986 15.429 C 24.037 15.116,24.034 15.112,22.027 13.270 C 19.045 10.529,13.146 5.107,12.641 4.643 C 12.389 4.410,12.236 4.285,12.301 4.364 M20.205 9.401 C 21.729 11.048,22.646 12.010,22.708 12.026 C 22.917 12.078,23.159 11.852,23.094 11.666 C 23.066 11.587,17.876 6.800,17.818 6.800 C 17.808 6.800,18.882 7.970,20.205 9.401 M2.302 7.084 C 2.433 7.229,5.930 11.002,10.073 15.468 C 15.311 21.114,17.651 23.609,17.752 23.658 C 17.976 23.765,18.287 23.783,18.497 23.703 C 18.693 23.628,18.937 23.385,19.024 23.177 C 19.110 22.970,19.095 22.646,18.990 22.449 C 18.926 22.329,17.884 21.348,15.359 19.030 C 13.412 17.243,10.703 14.754,9.339 13.501 C 7.145 11.483,2.647 7.353,2.222 6.964 C 2.126 6.876,2.157 6.923,2.302 7.084 M3.765 12.140 C 3.867 12.250,6.284 14.860,9.137 17.940 C 12.781 21.874,14.373 23.567,14.490 23.630 C 14.790 23.792,15.122 23.716,15.303 23.443 C 15.533 23.095,15.461 22.833,15.025 22.440 C 14.866 22.297,12.289 19.932,9.298 17.184 C 3.255 11.632,3.506 11.860,3.765 12.140 M6.424 17.482 C 6.593 17.681,10.972 22.424,11.084 22.530 C 11.309 22.741,11.640 22.629,11.640 22.341 C 11.640 22.229,11.424 22.020,9.270 20.053 C 6.387 17.420,6.319 17.359,6.424 17.482 " stroke="none" fill="black" fill-rule="evenodd"></path></svg>