<svg role="img" xmlns="http://www.w3.org/2000/svg" viewBox="0 0 24 24"><path d="M6.578 1.595 C 6.375 1.688,6.109 1.987,6.047 2.192 C 6.014 2.303,6.000 2.891,6.000 4.174 L 6.000 5.998 3.350 6.009 L 0.700 6.020 0.511 6.131 C 0.298 6.256,0.136 6.449,0.057 6.670 C -0.022 6.892,-0.022 17.108,0.057 17.330 C 0.136 17.551,0.298 17.744,0.511 17.869 L 0.700 17.980 3.350 17.991 L 6.000 18.002 6.000 19.826 C 6.000 21.120,6.014 21.697,6.048 21.809 C 6.115 22.035,6.402 22.339,6.631 22.427 C 6.812 22.497,7.182 22.500,15.000 22.500 C 21.826 22.500,23.206 22.491,23.335 22.445 C 23.552 22.368,23.796 22.136,23.906 21.900 L 23.999 21.700 24.000 12.025 C 24.000 4.724,23.988 2.311,23.953 2.192 C 23.891 1.987,23.625 1.688,23.422 1.595 C 23.267 1.525,22.926 1.522,15.000 1.522 C 7.074 1.522,6.733 1.525,6.578 1.595 M22.480 4.500 L 22.480 6.000 15.000 6.000 L 7.520 6.000 7.520 4.500 L 7.520 3.000 15.000 3.000 L 22.480 3.000 22.480 4.500 M22.480 9.380 L 22.480 11.240 17.240 11.240 L 12.000 11.240 12.000 9.380 L 12.000 7.520 17.240 7.520 L 22.480 7.520 22.480 9.380 M3.078 8.290 C 3.103 8.405,3.312 9.435,3.542 10.577 C 3.773 11.720,3.968 12.661,3.977 12.670 C 3.985 12.678,4.011 12.626,4.034 12.553 C 4.057 12.480,4.366 11.484,4.721 10.340 C 5.076 9.196,5.379 8.246,5.396 8.229 C 5.412 8.212,5.730 8.203,6.101 8.209 L 6.777 8.220 7.420 10.400 C 7.773 11.599,8.072 12.606,8.084 12.638 C 8.096 12.669,8.299 11.724,8.535 10.538 C 8.772 9.351,8.983 8.313,9.004 8.230 L 9.043 8.080 9.866 8.080 L 10.689 8.080 10.667 8.170 C 10.655 8.220,10.311 9.943,9.902 12.000 C 9.493 14.057,9.149 15.781,9.138 15.831 L 9.118 15.922 8.292 15.911 L 7.466 15.900 6.763 13.593 C 6.376 12.325,6.051 11.278,6.040 11.266 C 6.029 11.255,5.686 12.293,5.278 13.573 L 4.536 15.900 3.709 15.911 L 2.882 15.922 2.860 15.831 C 2.849 15.781,2.505 14.057,2.097 12.000 C 1.689 9.943,1.346 8.220,1.333 8.170 L 1.311 8.080 2.172 8.080 L 3.033 8.080 3.078 8.290 M22.480 14.640 L 22.480 16.520 17.240 16.520 L 12.000 16.520 12.000 14.640 L 12.000 12.760 17.240 12.760 L 22.480 12.760 22.480 14.640 M22.480 19.500 L 22.480 21.000 15.000 21.000 L 7.520 21.000 7.520 19.500 L 7.520 18.000 15.000 18.000 L 22.480 18.000 22.480 19.500 " stroke="none" fill="black" fill-rule="evenodd"></path></svg>