<svg role="img" xmlns="http://www.w3.org/2000/svg" viewBox="0 0 24 24"><path d="M11.440 4.346 C 11.385 4.354,11.205 4.379,11.040 4.403 C 10.275 4.511,9.296 4.845,8.590 5.237 C 7.727 5.717,6.796 6.521,6.229 7.278 C 6.071 7.488,5.940 7.664,5.938 7.670 C 5.936 7.675,5.746 7.698,5.517 7.721 C 3.967 7.874,2.840 8.394,1.797 9.437 C 0.926 10.308,0.374 11.323,0.112 12.532 C -0.014 13.117,-0.014 14.275,0.113 14.868 C 0.455 16.461,1.437 17.874,2.824 18.768 C 3.318 19.086,4.114 19.413,4.780 19.572 C 5.140 19.657,5.141 19.657,12.280 19.671 C 17.599 19.682,19.512 19.673,19.780 19.638 C 21.758 19.379,23.393 17.880,23.882 15.878 C 24.006 15.369,24.018 14.356,23.905 13.840 C 23.532 12.129,22.288 10.728,20.662 10.184 C 20.346 10.078,19.766 9.960,19.564 9.960 C 19.465 9.960,19.451 9.935,19.346 9.590 C 18.514 6.835,16.057 4.763,13.166 4.378 C 12.786 4.328,11.702 4.307,11.440 4.346 M13.220 5.904 C 13.418 5.937,13.789 6.034,14.044 6.119 C 15.482 6.597,16.637 7.529,17.395 8.824 C 17.564 9.112,17.880 9.841,17.880 9.943 C 17.880 9.973,17.831 10.010,17.770 10.024 C 17.322 10.126,17.094 10.214,15.187 11.017 C 14.575 11.275,14.049 11.477,14.018 11.465 C 13.987 11.453,12.850 10.779,11.491 9.966 C 10.132 9.154,8.876 8.417,8.700 8.329 C 8.440 8.199,8.000 8.028,7.687 7.936 C 7.611 7.914,7.901 7.584,8.281 7.259 C 9.651 6.089,11.430 5.601,13.220 5.904 M6.745 9.262 C 7.185 9.339,7.707 9.511,8.112 9.714 C 8.281 9.799,9.301 10.396,10.378 11.040 C 11.918 11.962,12.320 12.218,12.258 12.242 C 12.215 12.258,10.956 12.789,9.460 13.421 C 7.964 14.052,5.768 14.980,4.580 15.482 L 2.420 16.394 2.332 16.287 C 2.021 15.906,1.658 15.018,1.559 14.393 C 1.487 13.943,1.529 12.987,1.638 12.586 C 2.093 10.916,3.429 9.631,5.080 9.278 C 5.512 9.186,6.266 9.178,6.745 9.262 M19.280 11.440 C 20.568 11.587,21.599 12.241,22.116 13.240 C 22.374 13.737,22.447 14.026,22.470 14.646 C 22.486 15.074,22.475 15.259,22.420 15.506 C 22.355 15.802,22.172 16.320,22.134 16.320 C 22.067 16.320,15.685 12.459,15.710 12.434 C 15.753 12.391,16.650 11.987,17.122 11.798 C 17.691 11.571,18.330 11.421,18.800 11.405 C 18.877 11.403,19.093 11.418,19.280 11.440 M19.453 16.472 L 21.167 17.495 21.073 17.568 C 20.885 17.716,20.251 18.004,19.920 18.091 L 19.580 18.180 12.560 18.180 C 5.023 18.180,5.348 18.189,4.666 17.973 C 4.362 17.877,3.696 17.579,3.663 17.525 C 3.655 17.511,5.963 16.526,8.791 15.336 L 13.933 13.173 15.836 14.311 C 16.883 14.936,18.511 15.909,19.453 16.472 " stroke="none" fill="black" fill-rule="evenodd"></path></svg>