<svg role="img" xmlns="http://www.w3.org/2000/svg" viewBox="0 0 24 24"><path d="M12.220 0.909 C 11.760 0.972,11.127 1.234,10.705 1.535 C 9.753 2.214,9.180 3.410,9.256 4.560 C 9.281 4.944,9.374 5.372,9.494 5.655 C 9.530 5.740,9.560 5.826,9.560 5.845 C 9.560 5.865,7.661 5.880,5.165 5.880 L 0.769 5.880 0.555 5.992 C 0.316 6.117,0.105 6.363,0.042 6.591 C -0.016 6.797,-0.016 16.963,0.042 17.169 C 0.104 17.392,0.316 17.643,0.539 17.758 L 0.738 17.860 3.764 17.871 L 6.789 17.881 6.858 18.231 C 7.334 20.637,9.153 22.497,11.529 23.005 C 12.073 23.122,13.015 23.148,13.591 23.064 C 15.446 22.790,16.984 21.759,17.942 20.148 C 18.090 19.900,18.360 19.309,18.490 18.951 C 18.495 18.936,18.652 18.984,18.838 19.059 C 19.338 19.261,19.820 19.336,20.435 19.308 C 20.996 19.283,21.354 19.199,21.822 18.983 C 22.707 18.574,23.434 17.789,23.758 16.892 C 23.996 16.236,24.000 16.165,24.000 12.862 C 24.000 9.405,24.015 9.570,23.666 9.221 C 23.296 8.851,23.822 8.880,17.533 8.880 L 12.000 8.880 12.000 8.340 L 12.000 7.799 12.170 7.830 C 12.263 7.846,12.556 7.859,12.820 7.857 C 13.406 7.854,13.712 7.783,14.260 7.523 C 15.146 7.103,15.759 6.403,16.083 5.440 C 16.300 4.799,16.295 3.916,16.072 3.264 C 15.663 2.067,14.639 1.172,13.409 0.937 C 13.136 0.884,12.503 0.869,12.220 0.909 M13.370 2.480 C 14.044 2.690,14.605 3.350,14.725 4.076 C 14.858 4.883,14.423 5.748,13.690 6.131 C 13.335 6.317,13.145 6.364,12.748 6.364 C 11.626 6.364,10.760 5.500,10.760 4.380 C 10.760 3.593,11.189 2.915,11.900 2.575 C 12.368 2.352,12.856 2.320,13.370 2.480 M20.040 2.942 C 19.330 3.094,18.604 3.666,18.284 4.327 C 18.093 4.722,18.001 5.101,18.001 5.500 C 18.001 6.687,18.827 7.745,19.984 8.041 C 21.389 8.400,22.866 7.497,23.184 6.084 C 23.271 5.698,23.243 5.042,23.125 4.709 C 22.884 4.026,22.396 3.458,21.800 3.165 C 21.243 2.892,20.635 2.815,20.040 2.942 M21.108 4.489 C 21.307 4.581,21.580 4.865,21.670 5.072 C 21.764 5.290,21.756 5.736,21.653 5.960 C 21.550 6.185,21.323 6.412,21.084 6.528 C 20.856 6.639,20.420 6.647,20.189 6.545 C 19.964 6.445,19.719 6.205,19.614 5.980 C 19.491 5.715,19.486 5.300,19.603 5.040 C 19.859 4.473,20.537 4.225,21.108 4.489 M9.200 8.879 L 9.200 9.799 8.070 9.809 L 6.940 9.820 6.930 12.810 L 6.919 15.800 6.000 15.800 L 5.081 15.800 5.070 12.810 L 5.060 9.820 3.930 9.809 L 2.800 9.799 2.800 8.879 L 2.800 7.960 6.000 7.960 L 9.200 7.960 9.200 8.879 M17.231 14.110 L 17.219 17.860 17.111 18.251 C 16.520 20.406,14.500 21.820,12.325 21.602 C 10.448 21.415,8.921 20.116,8.402 18.266 C 8.357 18.106,8.320 17.954,8.320 17.929 C 8.320 17.895,8.715 17.880,9.791 17.871 L 11.262 17.860 11.461 17.758 C 11.684 17.643,11.896 17.392,11.958 17.169 C 11.985 17.072,12.000 15.861,12.000 13.690 L 12.000 10.360 14.621 10.360 L 17.243 10.360 17.231 14.110 M22.480 13.150 C 22.479 15.469,22.469 15.977,22.421 16.160 C 22.220 16.912,21.625 17.517,20.860 17.744 C 20.575 17.829,19.949 17.839,19.685 17.764 C 19.413 17.687,19.104 17.528,18.924 17.374 L 18.760 17.234 18.760 13.797 L 18.760 10.360 20.620 10.360 L 22.480 10.360 22.480 13.150 " stroke="none" fill="black" fill-rule="evenodd"></path></svg>