<svg role="img" xmlns="http://www.w3.org/2000/svg" viewBox="0 0 24 24"><path d="M6.617 1.577 C 6.415 1.665,6.193 1.886,6.094 2.100 L 6.001 2.300 6.000 4.150 L 6.000 6.000 3.430 6.000 C 1.707 6.000,0.809 6.015,0.704 6.044 C 0.482 6.105,0.142 6.438,0.063 6.670 C 0.007 6.834,0.000 7.435,0.000 12.002 C 0.000 17.787,-0.024 17.351,0.309 17.689 C 0.627 18.012,0.509 18.000,3.427 18.000 L 6.000 18.000 6.000 19.850 L 6.001 21.700 6.094 21.900 C 6.196 22.119,6.414 22.333,6.637 22.435 C 6.768 22.494,7.498 22.500,15.000 22.500 C 22.502 22.500,23.232 22.494,23.363 22.435 C 23.586 22.333,23.804 22.119,23.906 21.900 L 23.999 21.700 23.999 12.000 L 23.999 2.300 23.906 2.100 C 23.804 1.882,23.581 1.662,23.374 1.575 C 23.181 1.494,6.803 1.496,6.617 1.577 M22.480 5.260 L 22.480 7.520 20.240 7.520 L 18.000 7.520 18.000 14.260 L 18.000 21.000 12.760 21.000 L 7.520 21.000 7.520 19.500 L 7.520 18.000 9.333 18.000 C 11.403 18.000,11.382 18.003,11.691 17.689 C 12.024 17.351,12.000 17.787,12.000 12.000 C 12.000 6.213,12.024 6.649,11.691 6.311 C 11.382 5.997,11.403 6.000,9.333 6.000 L 7.520 6.000 7.520 4.500 L 7.520 3.000 15.000 3.000 L 22.480 3.000 22.480 5.260 M6.073 10.582 L 7.420 13.064 7.430 10.572 L 7.441 8.080 8.300 8.080 L 9.160 8.080 9.160 12.000 L 9.160 15.920 8.270 15.919 L 7.380 15.918 5.980 13.477 L 4.580 11.035 4.570 13.478 L 4.559 15.920 3.700 15.920 L 2.840 15.920 2.840 11.999 L 2.840 8.079 3.783 8.089 L 4.726 8.100 6.073 10.582 M22.480 10.500 L 22.480 12.000 21.000 12.000 L 19.520 12.000 19.520 10.500 L 19.520 9.000 21.000 9.000 L 22.480 9.000 22.480 10.500 M22.480 15.020 L 22.480 16.520 21.000 16.520 L 19.520 16.520 19.520 15.020 L 19.520 13.520 21.000 13.520 L 22.480 13.520 22.480 15.020 M22.480 19.500 L 22.480 21.000 21.000 21.000 L 19.520 21.000 19.520 19.500 L 19.520 18.000 21.000 18.000 L 22.480 18.000 22.480 19.500 " stroke="none" fill="black" fill-rule="evenodd"></path></svg>