<svg role="img" xmlns="http://www.w3.org/2000/svg" viewBox="0 0 24 24"><path d="M0.000 12.000 L 0.000 16.480 1.100 16.480 L 2.200 16.480 2.200 13.120 L 2.200 9.760 2.820 9.760 L 3.440 9.760 3.440 13.120 L 3.440 16.480 4.440 16.480 L 5.440 16.480 5.440 13.119 L 5.440 9.758 6.070 9.769 L 6.700 9.780 6.710 13.130 L 6.720 16.480 7.801 16.480 L 8.881 16.480 8.871 12.390 L 8.860 8.300 8.752 8.094 C 8.622 7.849,8.379 7.630,8.166 7.566 C 8.053 7.533,6.929 7.520,4.005 7.520 L 0.000 7.520 0.000 12.000 M9.960 12.000 L 9.960 16.480 11.060 16.480 L 12.160 16.480 12.160 12.000 L 12.160 7.520 11.060 7.520 L 9.960 7.520 9.960 12.000 M13.209 8.529 L 13.220 9.540 15.890 9.550 L 18.560 9.561 18.560 11.920 L 18.560 14.280 17.000 14.280 L 15.440 14.280 15.440 12.540 L 15.440 10.800 14.320 10.800 L 13.200 10.800 13.200 13.640 L 13.200 16.480 16.573 16.480 C 20.339 16.480,20.252 16.486,20.508 16.214 C 20.766 15.941,20.760 16.040,20.760 12.100 C 20.760 8.177,20.767 8.299,20.515 7.932 C 20.450 7.838,20.313 7.712,20.209 7.651 L 20.020 7.540 16.609 7.529 L 13.199 7.518 13.209 8.529 M21.760 12.000 L 21.760 16.480 22.880 16.480 L 24.000 16.480 24.000 12.000 L 24.000 7.520 22.880 7.520 L 21.760 7.520 21.760 12.000 " stroke="none" fill="black" fill-rule="evenodd"></path></svg>