<svg role="img" xmlns="http://www.w3.org/2000/svg" viewBox="0 0 24 24"><path d="M7.119 2.161 C 5.965 3.350,5.016 4.353,5.010 4.391 C 4.977 4.625,4.597 11.090,4.609 11.220 C 4.621 11.353,4.893 11.786,6.204 13.761 L 7.785 16.142 8.128 17.241 L 8.471 18.340 9.746 18.361 L 11.020 18.381 9.830 18.401 L 8.640 18.420 10.298 21.139 C 11.210 22.635,11.973 23.864,11.993 23.871 C 12.013 23.878,12.780 22.651,13.698 21.145 C 14.625 19.623,15.396 18.400,15.433 18.390 C 15.482 18.377,15.597 18.068,15.857 17.256 L 16.213 16.140 17.811 13.743 L 19.410 11.346 19.223 8.083 C 19.120 6.288,19.024 4.710,19.008 4.576 L 18.980 4.332 16.888 2.166 L 14.796 0.000 12.007 0.000 L 9.218 0.000 7.119 2.161 M14.439 0.294 C 14.256 0.472,9.528 4.838,9.368 4.976 L 9.280 5.052 9.280 2.586 L 9.280 0.120 11.949 0.120 L 14.619 0.120 14.439 0.294 M15.639 4.190 C 16.118 6.363,16.507 8.144,16.503 8.149 C 16.498 8.155,10.515 5.683,9.387 5.209 C 9.326 5.183,9.624 4.891,11.043 3.579 C 11.995 2.699,13.216 1.571,13.757 1.071 C 14.297 0.571,14.746 0.179,14.753 0.201 C 14.761 0.223,15.159 2.018,15.639 4.190 M9.147 5.106 C 9.135 5.118,5.327 4.375,5.208 4.337 C 5.178 4.328,6.018 3.431,7.148 2.264 L 9.140 0.208 9.150 2.650 C 9.156 3.994,9.155 5.099,9.147 5.106 M16.996 2.411 C 18.034 3.484,18.876 4.375,18.867 4.391 C 18.858 4.407,18.350 5.246,17.737 6.257 C 16.772 7.850,16.620 8.080,16.593 7.997 C 16.576 7.943,16.191 6.217,15.739 4.160 C 15.286 2.103,14.905 0.375,14.893 0.320 C 14.866 0.198,14.598 -0.068,16.996 2.411 M7.100 4.822 C 8.156 5.032,9.043 5.212,9.071 5.221 C 9.102 5.231,8.249 6.401,6.915 8.180 C 5.702 9.798,4.705 11.117,4.701 11.111 C 4.697 11.105,4.779 9.696,4.884 7.980 C 4.989 6.264,5.076 4.766,5.078 4.650 C 5.079 4.510,5.097 4.440,5.130 4.440 C 5.157 4.440,6.044 4.612,7.100 4.822 M19.098 7.720 C 19.197 9.403,19.286 10.857,19.294 10.952 C 19.303 11.046,19.296 11.118,19.278 11.112 C 19.224 11.092,16.680 8.279,16.680 8.239 C 16.680 8.166,18.900 4.544,18.909 4.602 C 18.914 4.634,18.999 6.037,19.098 7.720 M10.221 8.891 C 10.766 10.800,11.200 12.373,11.186 12.387 C 11.166 12.407,7.467 11.770,5.053 11.332 L 4.726 11.272 6.953 8.301 C 8.178 6.667,9.191 5.350,9.205 5.375 C 9.219 5.400,9.676 6.982,10.221 8.891 M12.864 6.764 C 14.776 7.558,16.374 8.221,16.415 8.236 C 16.475 8.260,15.984 8.671,13.978 10.283 C 12.596 11.392,11.436 12.322,11.398 12.349 C 11.337 12.393,11.243 12.091,10.339 8.929 C 9.794 7.021,9.340 5.429,9.329 5.390 C 9.319 5.351,9.328 5.320,9.350 5.320 C 9.371 5.320,10.953 5.970,12.864 6.764 M16.323 12.255 C 16.213 14.298,16.118 15.976,16.110 15.983 C 16.103 15.990,16.044 15.954,15.979 15.903 C 15.913 15.852,14.861 15.068,13.640 14.161 C 12.419 13.254,11.414 12.506,11.407 12.500 C 11.400 12.493,12.543 11.566,13.947 10.439 C 15.900 8.872,16.503 8.408,16.511 8.465 C 16.517 8.506,16.432 10.212,16.323 12.255 M17.976 9.856 C 18.693 10.646,19.280 11.303,19.280 11.316 C 19.280 11.329,18.596 12.366,17.760 13.620 C 16.924 14.874,16.240 15.873,16.240 15.840 C 16.240 15.677,16.603 8.866,16.623 8.647 C 16.636 8.508,16.652 8.400,16.659 8.407 C 16.666 8.414,17.258 9.066,17.976 9.856 M8.007 11.961 C 9.750 12.270,11.179 12.527,11.183 12.531 C 11.194 12.545,7.884 15.979,7.850 15.989 C 7.834 15.994,7.131 14.963,6.290 13.699 C 5.448 12.434,4.777 11.400,4.799 11.400 C 4.820 11.400,6.264 11.653,8.007 11.961 M13.681 14.323 C 14.956 15.271,16.000 16.059,16.000 16.075 C 16.000 16.105,8.674 18.247,8.651 18.224 C 8.640 18.213,11.010 13.210,11.235 12.770 C 11.283 12.677,11.331 12.600,11.342 12.600 C 11.353 12.600,12.405 13.375,13.681 14.323 M11.047 12.910 C 11.028 12.948,10.457 14.147,9.779 15.572 C 9.047 17.111,8.535 18.144,8.518 18.112 C 8.503 18.084,8.359 17.637,8.200 17.120 C 8.040 16.603,7.903 16.168,7.895 16.154 C 7.881 16.129,11.026 12.840,11.064 12.840 C 11.074 12.840,11.067 12.872,11.047 12.910 M16.080 16.210 C 16.079 16.245,15.446 18.248,15.431 18.262 C 15.421 18.272,13.962 18.276,12.188 18.270 L 8.962 18.260 12.471 17.235 C 15.732 16.282,16.080 16.183,16.080 16.210 M8.520 20.517 C 8.520 22.465,8.524 22.567,8.590 22.515 C 8.714 22.418,9.895 21.429,10.046 21.296 L 10.193 21.167 9.392 19.853 C 8.952 19.131,8.576 18.523,8.556 18.502 C 8.535 18.479,8.520 19.293,8.520 20.517 M14.633 19.815 L 13.806 21.169 14.633 21.866 L 15.460 22.562 15.471 21.541 C 15.477 20.979,15.477 20.057,15.471 19.490 L 15.460 18.460 14.633 19.815 M9.460 21.923 C 9.042 22.275,8.676 22.587,8.647 22.616 C 8.603 22.660,8.867 22.779,10.219 23.319 C 11.112 23.677,11.852 23.962,11.861 23.952 C 11.881 23.932,10.272 21.279,10.241 21.281 C 10.229 21.282,9.878 21.571,9.460 21.923 M12.929 22.607 C 12.485 23.337,12.129 23.942,12.139 23.952 C 12.167 23.980,15.402 22.675,15.382 22.643 C 15.358 22.605,13.805 21.303,13.767 21.290 C 13.751 21.284,13.374 21.877,12.929 22.607 " stroke="none" fill="black" fill-rule="evenodd"></path></svg>