<svg role="img" viewBox="0 0 24 24" xmlns="http://www.w3.org/2000/svg"><path d="M9.542 10.031 C 8.805 10.039,8.536 10.054,8.513 10.091 C 8.488 10.129,8.481 10.129,8.481 10.089 C 8.480 10.049,8.343 10.040,7.870 10.049 L 7.260 10.060 7.220 10.356 C 7.174 10.696,7.148 10.690,6.991 10.300 L 6.895 10.060 6.301 10.049 C 5.852 10.041,5.698 10.050,5.674 10.089 C 5.648 10.129,5.641 10.129,5.641 10.090 C 5.640 10.020,4.478 10.018,4.408 10.088 C 4.371 10.125,4.360 10.125,4.360 10.088 C 4.360 10.053,4.200 10.040,3.762 10.040 L 3.163 10.040 3.124 10.190 C 3.102 10.273,3.073 10.389,3.058 10.448 C 3.036 10.541,3.009 10.557,2.868 10.568 C 2.730 10.578,2.699 10.596,2.680 10.680 C 2.659 10.771,2.633 10.747,2.385 10.410 L 2.114 10.040 1.539 10.040 L 0.965 10.040 0.718 10.810 C 0.583 11.233,0.365 11.904,0.235 12.300 L -0.001 13.020 0.509 13.509 L 1.020 13.997 1.585 13.999 L 2.151 14.000 2.234 13.695 C 2.327 13.352,2.342 13.326,2.409 13.393 C 2.435 13.419,2.520 13.440,2.599 13.440 C 2.727 13.440,2.768 13.470,2.980 13.720 L 3.217 14.000 3.781 14.000 C 4.133 14.000,4.360 13.984,4.387 13.957 C 4.419 13.925,4.438 13.925,4.458 13.957 C 4.498 14.022,5.626 14.016,5.657 13.950 C 5.675 13.910,5.685 13.910,5.703 13.950 C 5.720 13.987,5.885 14.000,6.320 14.000 L 6.914 14.000 6.943 13.770 C 6.992 13.366,7.011 13.359,7.158 13.695 L 7.291 14.000 7.885 14.000 C 8.321 14.000,8.480 13.987,8.480 13.952 C 8.480 13.915,8.491 13.915,8.528 13.952 C 8.599 14.023,11.025 14.021,11.054 13.950 C 11.070 13.910,11.074 13.910,11.077 13.950 C 11.079 13.989,11.356 14.000,12.317 14.000 C 13.462 14.000,13.556 13.995,13.572 13.930 C 13.590 13.863,13.591 13.863,13.595 13.930 C 13.600 13.993,13.657 14.000,14.198 14.000 C 14.725 14.000,14.801 13.992,14.837 13.930 C 14.876 13.863,14.878 13.863,14.879 13.930 C 14.880 13.994,14.936 14.000,15.480 14.000 C 15.920 14.000,16.080 13.987,16.080 13.952 C 16.080 13.915,16.091 13.915,16.128 13.952 C 16.196 14.020,17.360 14.020,17.360 13.952 C 17.360 13.915,17.371 13.915,17.408 13.952 C 17.441 13.985,17.636 14.000,18.026 14.000 C 18.527 14.000,18.601 13.991,18.637 13.930 C 18.676 13.863,18.678 13.863,18.679 13.930 C 18.680 13.993,18.735 14.000,19.275 14.000 L 19.869 14.000 20.215 13.504 C 20.439 13.183,20.552 12.985,20.536 12.944 C 20.516 12.891,20.545 12.880,20.706 12.879 L 20.900 12.877 21.140 12.535 C 21.272 12.347,21.391 12.186,21.405 12.177 C 21.419 12.168,21.534 12.575,21.660 13.081 L 21.890 14.000 22.455 14.000 L 23.021 14.000 23.512 13.508 L 24.002 13.016 23.743 12.160 L 23.483 11.303 23.723 11.014 L 23.962 10.724 23.854 10.362 L 23.746 10.000 22.527 10.000 C 21.414 10.000,21.304 10.006,21.256 10.070 C 21.205 10.137,21.202 10.137,21.201 10.070 C 21.200 10.005,21.114 10.000,19.963 10.000 C 19.013 10.000,18.721 10.012,18.703 10.050 C 18.685 10.090,18.675 10.090,18.657 10.050 C 18.639 10.012,18.347 10.000,17.400 10.000 C 16.258 10.000,16.164 10.005,16.148 10.070 C 16.130 10.137,16.129 10.137,16.125 10.070 C 16.120 10.005,16.033 10.000,14.888 10.000 C 13.983 10.000,13.643 10.013,13.608 10.048 C 13.571 10.085,13.560 10.085,13.560 10.047 C 13.560 9.999,12.787 9.996,9.542 10.031 M18.502 10.210 C 18.512 10.238,18.625 10.863,18.752 11.600 L 18.984 12.940 18.505 12.951 C 18.191 12.959,18.017 12.948,17.999 12.919 C 17.984 12.895,17.950 12.696,17.922 12.478 L 17.871 12.080 17.682 12.080 L 17.493 12.080 17.545 12.450 C 17.574 12.653,17.598 12.852,17.599 12.890 C 17.600 12.953,17.550 12.960,17.107 12.960 L 16.614 12.960 16.484 11.750 C 16.413 11.085,16.344 10.464,16.332 10.371 L 16.309 10.203 16.765 10.190 C 18.017 10.155,18.483 10.160,18.502 10.210 M21.076 10.250 C 21.095 10.300,21.123 10.417,21.139 10.510 L 21.167 10.680 20.525 10.680 C 20.029 10.680,19.886 10.691,19.899 10.730 C 19.908 10.758,19.936 10.883,19.960 11.010 L 20.006 11.240 20.661 11.240 L 21.317 11.240 21.358 11.392 C 21.380 11.476,21.410 11.602,21.424 11.672 L 21.450 11.800 20.784 11.800 L 20.118 11.800 20.139 11.890 C 20.183 12.077,20.360 12.920,20.360 12.939 C 20.360 12.951,20.135 12.960,19.860 12.960 C 19.585 12.960,19.360 12.947,19.360 12.930 C 19.360 12.913,19.252 12.315,19.120 11.600 C 18.989 10.885,18.881 10.268,18.880 10.230 C 18.880 10.165,18.958 10.160,19.961 10.160 L 21.042 10.160 21.076 10.250 M23.683 10.380 C 23.791 10.687,23.796 10.680,23.460 10.680 C 23.244 10.680,23.160 10.694,23.160 10.731 C 23.160 10.802,23.289 11.263,23.545 12.100 C 23.666 12.496,23.774 12.852,23.785 12.890 C 23.804 12.954,23.763 12.960,23.307 12.960 C 22.867 12.960,22.807 12.952,22.790 12.890 C 22.780 12.852,22.640 12.338,22.480 11.750 L 22.188 10.680 21.873 10.680 C 21.521 10.680,21.512 10.672,21.455 10.317 L 21.430 10.159 22.521 10.169 L 23.613 10.180 23.683 10.380 M1.921 10.438 C 1.881 10.568,1.859 10.685,1.871 10.698 C 1.883 10.710,1.952 10.720,2.024 10.720 L 2.154 10.720 2.080 10.980 L 2.006 11.240 2.363 11.240 C 2.595 11.240,2.720 11.225,2.720 11.196 C 2.720 11.172,2.748 11.055,2.783 10.936 C 2.845 10.722,2.847 10.720,3.001 10.720 C 3.169 10.720,3.160 10.735,3.262 10.310 L 3.289 10.200 3.744 10.200 C 3.995 10.200,4.200 10.213,4.199 10.230 C 4.199 10.247,4.057 10.863,3.885 11.600 L 3.572 12.940 3.086 12.951 C 2.711 12.960,2.600 12.951,2.601 12.911 C 2.601 12.883,2.662 12.622,2.736 12.330 L 2.871 11.800 2.694 11.800 C 2.588 11.800,2.511 11.820,2.501 11.850 C 2.493 11.877,2.457 12.003,2.422 12.130 L 2.358 12.360 2.039 12.360 C 1.863 12.360,1.720 12.355,1.720 12.350 C 1.720 12.345,1.756 12.223,1.800 12.080 C 1.844 11.937,1.880 11.816,1.880 11.810 C 1.880 11.805,1.800 11.800,1.702 11.800 L 1.523 11.800 1.399 12.210 C 1.331 12.435,1.252 12.692,1.224 12.780 L 1.173 12.940 0.688 12.951 L 0.203 12.962 0.241 12.851 C 0.336 12.566,1.080 10.231,1.080 10.216 C 1.080 10.207,1.285 10.200,1.536 10.200 L 1.993 10.200 1.921 10.438 M5.452 10.330 C 5.437 10.402,5.316 11.018,5.182 11.700 L 4.939 12.940 4.449 12.951 C 4.180 12.957,3.960 12.947,3.960 12.929 C 3.960 12.902,4.461 10.625,4.540 10.290 C 4.561 10.203,4.578 10.200,5.020 10.200 L 5.478 10.200 5.452 10.330 M6.716 10.370 C 6.654 10.691,6.663 10.720,6.825 10.720 L 6.969 10.720 6.941 10.980 L 6.914 11.240 7.091 11.240 L 7.269 11.240 7.295 11.017 C 7.310 10.894,7.341 10.660,7.366 10.497 L 7.410 10.200 7.865 10.200 C 8.145 10.200,8.320 10.216,8.320 10.240 C 8.320 10.308,8.043 12.691,8.019 12.830 L 7.996 12.960 7.512 12.960 L 7.029 12.960 7.054 12.730 C 7.068 12.603,7.091 12.405,7.105 12.290 L 7.131 12.080 6.972 12.080 L 6.813 12.080 6.850 11.837 C 6.898 11.517,6.878 11.472,6.690 11.488 L 6.540 11.500 6.422 12.230 L 6.304 12.960 5.812 12.960 C 5.541 12.960,5.320 12.951,5.320 12.940 C 5.320 12.901,5.804 10.299,5.821 10.250 C 5.833 10.214,5.964 10.200,6.293 10.200 L 6.749 10.200 6.716 10.370 M10.866 10.350 C 10.852 10.433,10.841 10.540,10.840 10.590 C 10.840 10.680,10.837 10.680,10.200 10.680 C 9.617 10.680,9.560 10.686,9.560 10.750 C 9.559 10.788,9.548 10.915,9.534 11.030 L 9.509 11.240 10.148 11.240 C 10.499 11.240,10.794 11.247,10.803 11.257 C 10.813 11.266,10.814 11.392,10.807 11.537 L 10.793 11.800 10.141 11.800 C 9.397 11.800,9.442 11.775,9.441 12.190 L 9.440 12.400 10.100 12.400 L 10.760 12.400 10.760 12.680 L 10.760 12.960 9.580 12.960 C 8.483 12.960,8.400 12.955,8.400 12.890 C 8.400 12.811,8.626 10.634,8.662 10.370 L 8.685 10.200 9.788 10.200 L 10.890 10.200 10.866 10.350 M13.415 10.386 C 13.429 10.488,13.440 10.596,13.440 10.626 C 13.440 10.669,13.314 10.680,12.806 10.680 L 12.172 10.680 12.146 11.286 C 12.132 11.620,12.120 12.007,12.120 12.146 L 12.120 12.400 12.800 12.400 L 13.480 12.400 13.480 12.680 L 13.480 12.960 12.295 12.960 L 11.110 12.960 11.134 12.610 C 11.148 12.418,11.169 11.819,11.182 11.280 C 11.195 10.741,11.213 10.277,11.222 10.250 C 11.234 10.212,11.488 10.200,12.313 10.200 L 13.389 10.200 13.415 10.386 M15.973 10.350 C 15.986 10.433,16.008 10.658,16.023 10.850 L 16.051 11.200 15.912 11.200 C 15.738 11.200,15.732 11.207,15.752 11.379 C 15.768 11.513,15.776 11.520,15.924 11.520 C 16.107 11.520,16.098 11.495,16.159 12.180 C 16.183 12.444,16.212 12.728,16.225 12.810 L 16.247 12.960 15.749 12.960 L 15.250 12.960 15.227 12.690 C 15.214 12.542,15.191 12.280,15.177 12.110 L 15.151 11.800 14.972 11.800 L 14.793 11.800 14.822 12.380 L 14.851 12.960 14.369 12.960 L 13.886 12.960 13.864 12.710 C 13.852 12.572,13.832 12.118,13.821 11.700 C 13.809 11.282,13.788 10.773,13.775 10.570 L 13.750 10.200 14.850 10.200 L 15.950 10.200 15.973 10.350 M17.667 10.626 C 17.653 10.641,17.652 10.723,17.666 10.809 L 17.691 10.965 17.516 10.953 C 17.344 10.940,17.340 10.936,17.328 10.790 L 17.315 10.640 17.093 10.640 L 16.870 10.640 16.895 10.765 C 16.909 10.834,16.920 10.906,16.920 10.925 C 16.920 10.944,17.010 10.960,17.120 10.960 C 17.291 10.960,17.320 10.971,17.320 11.037 C 17.320 11.087,17.288 11.119,17.230 11.127 C 17.143 11.140,17.141 11.149,17.173 11.390 C 17.206 11.632,17.211 11.640,17.323 11.640 C 17.413 11.640,17.440 11.622,17.440 11.560 C 17.440 11.494,17.467 11.480,17.597 11.480 C 17.719 11.480,17.760 11.498,17.780 11.560 C 17.814 11.668,18.056 11.678,18.025 11.570 C 18.014 11.532,17.992 11.415,17.978 11.310 C 17.954 11.144,17.939 11.120,17.855 11.120 C 17.787 11.120,17.760 11.098,17.760 11.040 C 17.760 10.972,17.787 10.960,17.940 10.960 C 18.133 10.960,18.140 10.949,18.095 10.725 C 18.071 10.606,18.061 10.600,17.882 10.600 C 17.778 10.600,17.682 10.612,17.667 10.626 M14.720 10.810 C 14.721 10.882,14.732 11.008,14.746 11.090 C 14.770 11.237,14.774 11.240,14.951 11.240 L 15.131 11.240 15.105 11.054 C 15.091 10.952,15.080 10.826,15.080 10.774 C 15.080 10.689,15.062 10.680,14.900 10.680 C 14.723 10.680,14.720 10.683,14.720 10.810 M13.520 12.020 L 13.520 12.240 12.920 12.240 L 12.320 12.240 12.320 12.047 C 12.320 11.940,12.332 11.841,12.347 11.827 C 12.361 11.812,12.631 11.800,12.947 11.800 L 13.520 11.800 13.520 12.020 " stroke="none" fill="black" fill-rule="evenodd"></path></svg>