<svg role="img" viewBox="0 0 24 24" xmlns="http://www.w3.org/2000/svg"><path d="M4.086 1.251 L 1.960 2.500 1.960 4.761 L 1.960 7.023 2.790 7.509 C 3.246 7.777,3.654 8.021,3.695 8.051 C 3.763 8.101,3.613 8.199,2.045 9.123 L 0.320 10.140 0.322 13.640 L 0.323 17.140 2.671 18.518 C 3.963 19.276,5.776 20.344,6.700 20.890 C 7.624 21.436,8.407 21.898,8.440 21.915 C 8.473 21.933,9.286 22.409,10.247 22.974 L 11.995 24.001 15.287 22.015 C 19.220 19.643,19.419 19.524,21.810 18.120 L 23.680 17.022 23.680 13.638 L 23.680 10.255 22.850 9.768 C 22.393 9.500,21.669 9.076,21.240 8.825 L 20.460 8.368 20.449 7.266 L 20.439 6.164 20.069 5.948 C 19.866 5.829,19.627 5.690,19.537 5.639 L 19.374 5.547 18.807 5.942 L 18.240 6.337 18.240 6.707 L 18.240 7.077 17.763 6.798 C 17.147 6.439,17.160 6.443,17.160 6.591 C 17.160 6.656,17.130 6.735,17.094 6.765 C 17.034 6.815,17.030 6.804,17.053 6.640 C 17.116 6.180,17.168 5.478,17.146 5.388 C 17.125 5.306,16.743 5.067,15.054 4.077 C 13.917 3.411,12.946 2.859,12.896 2.849 C 12.831 2.837,12.428 3.047,11.503 3.577 C 10.786 3.987,10.173 4.333,10.140 4.345 C 10.088 4.366,10.080 4.240,10.080 3.349 L 10.080 2.328 8.170 1.178 C 7.120 0.545,6.249 0.022,6.236 0.015 C 6.223 0.008,5.255 0.564,4.086 1.251 M7.920 1.671 L 9.500 2.627 9.509 4.783 L 9.519 6.940 8.053 7.800 C 7.247 8.273,6.504 8.709,6.402 8.769 L 6.215 8.878 4.918 8.116 C 4.204 7.696,3.373 7.208,3.070 7.030 L 2.520 6.707 2.520 4.758 L 2.520 2.809 3.210 2.407 C 3.590 2.186,4.420 1.699,5.057 1.325 C 5.917 0.819,6.230 0.653,6.277 0.680 C 6.311 0.700,7.051 1.146,7.920 1.671 M14.613 4.460 C 15.552 5.010,16.320 5.469,16.320 5.481 C 16.320 5.493,15.358 6.066,14.182 6.755 C 13.007 7.444,12.017 8.039,11.982 8.077 C 11.899 8.169,11.903 8.373,11.990 8.449 C 12.028 8.482,12.753 8.920,13.600 9.422 C 14.447 9.923,15.163 10.355,15.192 10.380 C 15.233 10.417,14.487 10.863,11.727 12.454 L 8.210 14.481 7.675 14.165 C 7.381 13.991,5.808 13.063,4.180 12.102 C 2.552 11.140,1.207 10.341,1.191 10.326 C 1.169 10.304,3.240 9.053,4.184 8.518 L 4.348 8.425 4.673 8.616 L 4.999 8.807 5.009 9.913 L 5.020 11.019 5.460 11.288 C 5.702 11.436,5.973 11.597,6.063 11.645 L 6.226 11.732 6.813 11.381 L 7.400 11.029 7.400 9.925 L 7.401 8.820 8.289 8.300 C 8.778 8.014,9.376 7.662,9.619 7.519 L 10.060 7.258 10.080 6.141 L 10.100 5.024 11.440 4.232 C 12.177 3.796,12.809 3.444,12.843 3.450 C 12.878 3.455,13.675 3.910,14.613 4.460 M16.640 6.191 L 16.640 6.423 14.883 7.454 L 13.126 8.485 12.973 8.404 C 12.697 8.258,12.698 8.260,12.907 8.140 C 13.274 7.929,16.380 6.109,16.500 6.035 C 16.566 5.995,16.625 5.961,16.630 5.961 C 16.636 5.960,16.640 6.064,16.640 6.191 M19.640 6.333 L 19.860 6.465 19.870 8.642 L 19.880 10.820 19.628 10.956 L 19.375 11.092 19.087 10.924 L 18.800 10.756 18.800 8.686 L 18.800 6.616 19.090 6.411 C 19.250 6.298,19.389 6.204,19.400 6.203 C 19.411 6.201,19.519 6.260,19.640 6.333 M17.547 7.313 L 18.220 7.705 18.230 9.389 L 18.241 11.072 18.802 11.398 C 19.151 11.601,19.389 11.716,19.432 11.702 C 19.469 11.689,19.707 11.557,19.960 11.408 L 20.420 11.137 20.440 10.074 L 20.460 9.012 21.790 9.793 L 23.120 10.573 23.120 10.840 L 23.120 11.107 22.090 11.728 C 21.523 12.070,20.727 12.543,20.320 12.779 C 19.913 13.016,19.543 13.232,19.498 13.260 C 19.425 13.306,19.251 13.214,17.758 12.343 L 16.100 11.375 16.080 10.829 C 16.065 10.416,16.045 10.268,16.000 10.225 C 15.967 10.193,15.436 9.868,14.820 9.503 C 14.204 9.137,13.702 8.826,13.705 8.811 C 13.708 8.792,16.762 6.969,16.867 6.923 C 16.871 6.921,17.177 7.097,17.547 7.313 M5.835 9.295 C 6.239 9.537,6.193 9.534,6.523 9.338 C 6.686 9.241,6.834 9.161,6.850 9.160 C 6.867 9.160,6.880 9.507,6.880 9.932 L 6.880 10.704 6.571 10.882 C 6.401 10.980,6.248 11.066,6.232 11.073 C 6.216 11.080,6.058 10.999,5.881 10.893 L 5.560 10.701 5.560 9.930 C 5.560 9.507,5.571 9.160,5.585 9.160 C 5.598 9.160,5.711 9.221,5.835 9.295 M4.540 12.957 C 7.375 14.633,8.161 15.081,8.240 15.065 C 8.296 15.055,8.602 14.895,8.920 14.710 C 9.239 14.525,9.815 14.193,10.200 13.971 C 10.585 13.750,11.413 13.272,12.040 12.911 C 14.835 11.299,15.424 10.962,15.492 10.937 C 15.557 10.912,15.563 10.932,15.552 11.139 L 15.540 11.367 11.740 13.556 L 7.940 15.745 7.930 16.462 L 7.920 17.180 8.350 17.425 L 8.780 17.670 8.800 18.235 L 8.820 18.801 10.415 19.736 L 12.010 20.671 13.875 19.546 C 14.901 18.926,16.428 18.006,17.269 17.500 L 18.797 16.580 18.799 15.992 L 18.800 15.404 19.340 15.076 L 19.880 14.747 19.880 14.215 L 19.880 13.684 20.470 13.337 C 21.145 12.940,22.895 11.895,23.030 11.809 L 23.120 11.751 23.119 12.265 L 23.117 12.780 22.049 13.404 L 20.980 14.028 20.968 14.313 L 20.957 14.598 20.419 14.929 L 19.881 15.260 19.879 15.820 L 19.877 16.380 19.340 16.700 L 18.802 17.020 18.799 18.140 L 18.797 19.260 15.428 21.287 C 13.576 22.401,12.040 23.319,12.015 23.327 C 11.990 23.334,11.158 22.863,10.165 22.280 L 8.360 21.220 8.360 20.675 L 8.360 20.131 7.901 19.855 L 7.442 19.580 7.441 19.020 L 7.439 18.460 6.881 18.140 L 6.324 17.820 6.312 16.701 L 6.300 15.582 4.700 14.632 C 3.820 14.110,3.087 13.682,3.070 13.682 C 3.054 13.681,3.040 13.922,3.040 14.218 L 3.040 14.756 2.554 14.454 C 2.286 14.288,2.043 14.143,2.014 14.132 C 1.970 14.115,1.959 14.411,1.950 15.777 L 1.940 17.441 1.400 17.126 L 0.860 16.810 0.850 13.801 C 0.842 11.398,0.850 10.795,0.890 10.811 C 0.917 10.821,2.560 11.787,4.540 12.957 M17.633 12.916 L 19.360 13.932 19.360 14.164 C 19.360 14.430,19.389 14.402,18.630 14.861 L 18.240 15.097 18.240 15.681 L 18.240 16.264 15.130 18.142 C 13.420 19.175,12.006 20.015,11.988 20.009 C 11.970 20.003,11.372 19.656,10.659 19.236 L 9.362 18.474 9.351 17.914 L 9.340 17.353 8.910 17.107 L 8.480 16.861 8.480 16.470 L 8.480 16.078 8.650 15.977 C 10.079 15.124,15.829 11.853,15.862 11.873 C 15.886 11.888,16.684 12.357,17.633 12.916 M23.110 15.049 L 23.100 16.658 21.230 17.785 L 19.360 18.912 19.360 18.125 L 19.360 17.338 19.900 17.006 L 20.440 16.673 20.440 16.120 L 20.440 15.567 20.980 15.234 L 21.520 14.902 21.522 14.621 L 21.523 14.340 22.292 13.892 C 22.714 13.645,23.074 13.443,23.090 13.442 C 23.107 13.441,23.116 14.164,23.110 15.049 M4.813 15.340 L 5.757 15.900 5.769 17.017 L 5.780 18.134 6.340 18.462 L 6.900 18.790 6.911 19.351 L 6.922 19.912 7.381 20.185 L 7.840 20.458 7.840 20.673 C 7.840 20.846,7.828 20.884,7.782 20.866 C 7.720 20.842,6.394 20.067,5.160 19.332 C 4.753 19.089,3.997 18.639,3.480 18.332 L 2.540 17.773 2.529 16.426 L 2.519 15.080 3.040 15.400 C 3.326 15.576,3.570 15.720,3.580 15.720 C 3.591 15.720,3.600 15.477,3.600 15.179 L 3.600 14.638 3.734 14.709 C 3.807 14.748,4.293 15.032,4.813 15.340 " stroke="none" fill="black" fill-rule="evenodd"></path></svg>