<svg role="img" viewBox="0 0 24 24" xmlns="http://www.w3.org/2000/svg"><path d="M2.160 1.399 C 1.578 1.480,1.141 1.696,0.738 2.102 C 0.009 2.836,-0.166 3.948,0.292 4.927 C 0.391 5.138,1.132 6.161,2.950 8.596 L 5.470 11.971 4.901 12.736 C -0.060 19.396,0.193 19.034,0.061 19.660 C -0.262 21.186,0.861 22.603,2.400 22.611 C 3.040 22.614,3.616 22.399,4.066 21.988 C 4.200 21.865,5.590 20.032,7.768 17.105 C 9.685 14.528,11.289 12.362,11.330 12.291 C 11.432 12.119,11.430 11.837,11.325 11.659 C 11.280 11.583,9.694 9.437,7.800 6.890 C 5.593 3.923,4.271 2.179,4.118 2.035 C 3.606 1.551,2.843 1.303,2.160 1.399 M21.082 1.419 C 20.673 1.496,20.195 1.740,19.889 2.028 C 19.726 2.182,18.479 3.826,16.194 6.900 C 14.296 9.452,12.711 11.602,12.672 11.678 C 12.558 11.897,12.578 12.119,12.731 12.346 C 12.803 12.453,14.405 14.622,16.292 17.167 C 18.441 20.067,19.801 21.866,19.936 21.989 C 20.369 22.385,20.955 22.610,21.560 22.613 C 21.951 22.615,22.239 22.555,22.580 22.400 C 23.505 21.981,24.060 21.040,23.988 20.015 C 23.961 19.638,23.812 19.154,23.633 18.863 C 23.566 18.754,22.402 17.174,21.046 15.352 C 19.690 13.529,18.575 12.015,18.569 11.987 C 18.562 11.958,19.685 10.424,21.064 8.578 C 22.874 6.153,23.609 5.138,23.708 4.927 C 24.047 4.202,24.042 3.394,23.693 2.688 C 23.236 1.763,22.126 1.224,21.082 1.419 " stroke="none" fill="black" fill-rule="evenodd"></path></svg>