<svg role="img" viewBox="0 0 24 24" xmlns="http://www.w3.org/2000/svg"><path d="M10.940 0.046 C 9.421 0.177,7.800 0.651,6.455 1.358 C 1.848 3.778,-0.679 8.837,0.164 13.951 C 0.242 14.421,0.454 15.321,0.567 15.660 L 0.620 15.820 2.410 15.830 L 4.200 15.841 4.200 10.790 L 4.200 5.740 8.100 9.640 L 12.000 13.540 15.900 9.640 L 19.800 5.740 19.800 10.790 L 19.800 15.841 21.590 15.830 L 23.380 15.820 23.506 15.398 C 24.004 13.742,24.126 11.757,23.837 10.040 C 22.854 4.204,17.806 -0.046,11.920 0.006 C 11.601 0.009,11.160 0.027,10.940 0.046 M6.800 15.070 L 6.800 18.239 4.281 18.250 L 1.762 18.260 2.038 18.669 C 4.364 22.110,8.272 24.124,12.360 23.987 C 12.745 23.974,13.274 23.935,13.535 23.901 C 16.774 23.470,19.656 21.783,21.600 19.180 C 21.787 18.930,22.008 18.616,22.090 18.482 L 22.240 18.240 19.720 18.240 L 17.200 18.240 17.198 15.070 L 17.196 11.900 14.620 14.500 L 12.044 17.100 11.452 16.520 C 11.126 16.201,9.947 15.031,8.830 13.920 L 6.800 11.900 6.800 15.070 " stroke="none" fill="black" fill-rule="evenodd"></path></svg>