<svg role="img" viewBox="0 0 24 24" xmlns="http://www.w3.org/2000/svg"><path d="M15.240 0.347 C 14.553 0.805,13.790 1.524,13.312 2.164 C 12.604 3.111,12.040 4.337,11.785 5.480 L 11.692 5.900 11.456 5.930 C 10.801 6.013,10.070 6.203,9.613 6.409 L 9.420 6.496 9.640 6.548 C 9.901 6.610,10.737 6.618,11.160 6.562 C 11.628 6.500,12.575 6.511,13.003 6.584 C 13.832 6.724,14.684 7.081,15.380 7.579 C 15.978 8.007,16.608 8.676,16.958 9.253 L 17.050 9.406 16.715 9.227 C 15.997 8.843,15.075 8.646,14.470 8.746 L 14.319 8.771 14.584 8.925 C 16.413 9.994,17.245 12.375,16.534 14.508 C 16.021 16.048,14.849 17.141,13.293 17.533 C 11.914 17.880,10.425 17.693,9.300 17.032 C 8.003 16.270,7.087 15.002,6.884 13.687 L 6.838 13.395 6.981 13.123 C 7.332 12.455,8.047 11.920,8.931 11.664 C 9.358 11.540,10.016 11.440,10.403 11.440 C 10.770 11.440,10.931 11.366,11.345 11.007 C 11.650 10.743,12.040 10.282,12.040 10.186 C 12.040 10.158,11.847 10.040,11.610 9.924 C 10.942 9.594,10.172 9.170,9.812 8.933 C 9.632 8.815,9.245 8.489,8.952 8.209 C 8.659 7.929,8.362 7.658,8.291 7.608 C 8.144 7.503,8.105 7.393,8.015 6.820 C 7.941 6.351,7.962 5.419,8.056 5.000 C 8.088 4.858,8.108 4.735,8.101 4.728 C 8.077 4.703,7.580 4.969,7.240 5.190 C 6.744 5.510,6.403 5.792,5.836 6.349 L 5.333 6.844 5.229 6.612 C 5.172 6.484,5.097 6.227,5.061 6.040 C 4.982 5.621,4.911 4.501,4.945 4.190 C 4.959 4.064,4.956 3.960,4.939 3.960 C 4.869 3.960,4.522 4.187,4.196 4.445 C 3.748 4.800,2.972 5.605,2.594 6.106 C 1.688 7.309,1.069 8.673,0.779 10.100 C 0.234 12.790,0.557 15.234,1.771 17.613 C 2.339 18.726,2.960 19.569,3.916 20.522 C 5.435 22.037,7.109 22.990,9.184 23.522 C 11.497 24.114,13.935 23.966,16.194 23.095 C 20.088 21.594,22.965 17.907,23.420 13.833 C 23.489 13.215,23.499 11.839,23.439 11.234 C 23.213 8.962,22.400 7.042,21.134 5.790 C 20.838 5.498,20.444 5.183,20.412 5.214 C 20.404 5.222,20.491 5.434,20.604 5.684 C 20.939 6.424,21.208 7.203,21.375 7.920 C 21.544 8.645,21.534 8.648,21.207 7.980 C 20.586 6.711,20.084 6.009,18.520 4.221 C 17.663 3.241,17.344 2.858,16.955 2.340 C 16.353 1.540,15.819 0.679,15.698 0.314 C 15.662 0.207,15.621 0.120,15.606 0.120 C 15.592 0.120,15.426 0.222,15.240 0.347 " stroke="none" fill="black" fill-rule="evenodd"></path></svg>