<svg role="img" viewBox="0 0 24 24" xmlns="http://www.w3.org/2000/svg"><path d="M5.351 1.884 L 3.491 3.771 4.546 5.375 C 5.126 6.258,8.116 10.809,11.191 15.488 L 16.780 23.997 18.630 22.149 C 19.648 21.132,20.480 20.287,20.480 20.272 C 20.480 20.250,7.279 0.078,7.220 0.008 C 7.215 0.002,6.373 0.846,5.351 1.884 M16.680 6.677 L 16.680 13.334 18.806 16.537 C 19.975 18.299,20.952 19.763,20.977 19.790 C 21.014 19.830,21.117 19.738,21.454 19.370 L 21.884 18.900 21.872 12.050 L 21.860 5.200 19.270 2.610 L 16.680 0.020 16.680 6.677 M2.529 4.731 L 2.120 5.141 2.120 12.021 L 2.120 18.900 4.660 21.440 L 7.200 23.980 7.199 17.280 L 7.199 10.580 5.103 7.461 C 3.951 5.746,2.992 4.337,2.973 4.331 C 2.954 4.325,2.755 4.505,2.529 4.731 M4.841 7.884 L 6.759 10.740 6.760 16.820 L 6.760 22.900 4.660 20.800 L 2.560 18.700 2.560 12.022 L 2.560 5.343 2.728 5.172 C 2.820 5.078,2.901 5.008,2.909 5.015 C 2.916 5.023,3.786 6.314,4.841 7.884 " stroke="none" fill="black" fill-rule="evenodd"></path></svg>