<svg role="img" viewBox="0 0 24 24" xmlns="http://www.w3.org/2000/svg"><path d="M13.940 0.057 C 13.918 0.066,13.848 0.085,13.784 0.099 L 13.668 0.125 13.852 0.312 C 13.953 0.416,14.084 0.605,14.142 0.732 C 14.235 0.936,14.246 1.005,14.233 1.292 C 14.221 1.565,14.193 1.680,14.064 1.977 C 13.878 2.405,13.854 2.724,13.980 3.080 L 14.059 3.300 14.082 3.020 C 14.134 2.396,14.343 2.091,15.100 1.532 C 15.254 1.418,15.404 1.286,15.433 1.239 C 15.600 0.964,15.195 0.393,14.668 0.159 C 14.498 0.084,14.036 0.019,13.940 0.057 M16.104 0.429 C 16.091 0.442,16.080 0.527,16.079 0.617 C 16.078 0.823,15.931 1.185,15.760 1.400 C 15.688 1.491,15.473 1.670,15.282 1.799 C 14.621 2.243,14.386 2.620,14.385 3.240 C 14.385 3.469,14.406 3.629,14.450 3.730 C 14.486 3.813,14.512 3.880,14.508 3.880 C 14.504 3.880,14.176 3.753,13.780 3.599 C 12.775 3.206,11.825 2.981,10.740 2.876 C 10.054 2.810,8.642 2.852,7.980 2.958 C 7.019 3.112,6.678 3.214,5.980 3.556 C 5.206 3.936,4.913 4.153,4.200 4.875 C 3.639 5.444,3.198 5.777,2.740 5.979 C 2.413 6.123,1.757 6.315,1.432 6.361 C 0.701 6.465,0.148 7.029,0.030 7.793 C -0.032 8.198,0.023 8.353,0.338 8.663 C 0.475 8.797,0.665 8.951,0.760 9.004 C 0.902 9.083,0.942 9.132,0.985 9.280 C 1.114 9.725,1.511 10.163,1.918 10.307 L 2.117 10.378 2.129 10.756 C 2.136 11.006,2.156 11.139,2.188 11.149 C 2.230 11.163,2.315 11.060,2.672 10.566 C 2.737 10.475,2.739 10.492,2.728 10.981 C 2.720 11.303,2.731 11.507,2.758 11.534 C 2.818 11.594,3.037 11.371,3.306 10.976 L 3.526 10.653 3.773 10.608 C 4.692 10.440,5.846 10.442,6.646 10.614 C 9.065 11.135,10.959 12.741,11.876 15.050 C 12.015 15.400,12.223 16.161,12.261 16.460 C 12.275 16.570,12.295 16.696,12.305 16.740 C 12.314 16.784,12.287 16.756,12.244 16.678 C 12.139 16.486,11.832 16.210,11.622 16.117 C 11.527 16.075,11.364 16.036,11.259 16.030 L 11.069 16.020 10.905 16.340 C 10.692 16.754,10.538 16.970,10.269 17.233 L 10.050 17.447 10.053 17.073 C 10.054 16.868,10.040 16.592,10.022 16.460 L 9.990 16.220 9.901 16.480 C 9.783 16.825,9.595 17.203,9.389 17.510 C 9.223 17.756,9.218 17.760,9.038 17.760 C 8.831 17.760,8.496 17.670,8.264 17.552 C 8.048 17.442,7.726 17.131,7.657 16.967 C 7.568 16.754,7.585 16.432,7.700 16.160 C 7.821 15.872,7.827 15.685,7.720 15.549 C 7.514 15.288,6.852 15.217,6.429 15.411 C 6.027 15.595,5.685 16.015,5.561 16.478 C 5.494 16.724,5.503 17.253,5.578 17.583 C 5.613 17.735,5.735 18.048,5.849 18.279 C 6.013 18.612,6.114 18.757,6.343 18.989 C 6.624 19.275,6.628 19.282,6.525 19.305 C 6.033 19.415,5.840 19.476,5.840 19.522 C 5.840 19.594,6.671 19.957,7.160 20.098 C 8.273 20.421,9.163 20.444,10.231 20.178 C 12.416 19.633,14.110 17.837,14.566 15.580 L 14.615 15.340 14.671 15.600 C 14.706 15.763,14.728 16.127,14.730 16.580 C 14.733 17.212,14.721 17.359,14.630 17.780 C 14.317 19.238,13.554 20.457,12.409 21.330 C 12.206 21.485,12.045 21.619,12.053 21.626 C 12.061 21.634,12.273 21.605,12.524 21.561 C 13.272 21.431,14.048 21.215,14.715 20.953 C 14.877 20.889,15.017 20.844,15.026 20.853 C 15.035 20.862,14.958 20.975,14.854 21.105 C 13.952 22.226,12.938 23.059,11.598 23.777 L 11.260 23.958 11.480 23.935 C 13.531 23.726,15.318 22.985,16.880 21.697 C 17.601 21.102,18.483 20.089,18.963 19.302 C 19.078 19.114,19.177 18.960,19.182 18.960 C 19.187 18.960,19.156 19.127,19.113 19.330 C 18.911 20.280,18.385 21.559,17.842 22.423 C 17.708 22.636,17.605 22.818,17.613 22.826 C 17.657 22.870,18.577 22.110,19.043 21.643 C 20.097 20.587,20.862 19.377,21.359 17.979 C 21.501 17.581,21.760 16.592,21.760 16.451 C 21.760 16.401,21.776 16.360,21.795 16.360 C 21.877 16.360,21.973 17.240,21.996 18.200 L 22.020 19.180 22.246 18.840 C 23.141 17.493,23.701 16.012,23.926 14.400 C 24.013 13.778,23.992 12.299,23.887 11.620 C 23.628 9.937,23.032 8.313,22.117 6.790 C 21.762 6.200,21.268 5.518,20.868 5.067 L 20.621 4.788 20.576 5.124 C 20.438 6.145,19.956 7.055,19.207 7.708 C 18.122 8.654,16.788 8.989,15.360 8.675 L 15.140 8.627 15.485 8.558 C 16.015 8.451,16.268 8.370,16.663 8.180 C 19.205 6.955,19.836 3.606,17.907 1.573 C 17.645 1.296,17.124 0.905,16.701 0.667 C 16.439 0.519,16.135 0.398,16.104 0.429 " stroke="none" fill="black" fill-rule="evenodd"></path></svg>