<svg role="img" xmlns="http://www.w3.org/2000/svg" viewBox="0 0 24 24"><path d="M9.615 2.301 C 8.342 3.549,7.229 4.640,7.142 4.724 C 7.055 4.808,6.994 4.887,7.006 4.899 C 7.036 4.929,10.211 6.280,10.251 6.280 C 10.269 6.280,10.332 6.244,10.392 6.200 C 10.574 6.067,10.994 5.984,11.259 6.030 L 11.487 6.069 11.696 5.744 C 12.679 4.218,13.962 2.201,13.979 2.156 C 13.993 2.121,13.617 1.717,12.965 1.065 L 11.930 0.030 9.615 2.301 M13.331 4.534 C 12.496 5.814,12.103 6.452,12.105 6.520 C 12.109 6.609,12.207 6.925,12.278 7.077 C 12.293 7.109,13.081 7.464,14.029 7.866 L 15.753 8.597 15.926 8.509 C 16.022 8.460,16.105 8.418,16.111 8.415 C 16.125 8.410,16.679 5.003,16.679 4.920 C 16.680 4.865,16.074 4.209,14.994 3.094 L 14.562 2.648 13.331 4.534 M5.137 6.720 C 4.413 7.424,3.822 8.024,3.825 8.055 C 3.827 8.085,4.475 9.056,5.265 10.213 L 6.700 12.316 7.040 12.316 L 7.380 12.317 8.720 10.230 C 9.457 9.081,10.065 8.121,10.072 8.096 C 10.079 8.070,10.039 7.983,9.984 7.903 C 9.855 7.712,9.799 7.537,9.767 7.218 L 9.740 6.958 8.102 6.199 C 7.201 5.782,6.462 5.440,6.459 5.440 C 6.457 5.440,5.862 6.016,5.137 6.720 M17.383 5.604 C 17.373 5.635,17.262 6.297,17.136 7.075 L 16.908 8.490 17.004 8.563 C 17.255 8.754,17.186 8.771,18.408 8.229 C 19.030 7.952,19.540 7.711,19.540 7.693 C 19.540 7.675,19.059 7.185,18.471 6.604 C 17.792 5.933,17.395 5.568,17.383 5.604 M11.998 8.024 C 11.788 8.242,11.509 8.367,11.169 8.396 L 10.877 8.420 9.543 10.480 C 8.810 11.613,8.214 12.545,8.219 12.551 C 8.225 12.557,9.842 11.864,11.814 11.011 C 15.274 9.514,15.398 9.456,15.399 9.354 C 15.400 9.253,15.358 9.229,14.690 8.946 C 14.300 8.780,13.575 8.473,13.081 8.262 C 12.586 8.052,12.171 7.880,12.159 7.880 C 12.146 7.880,12.074 7.945,11.998 8.024 M18.990 8.798 C 18.313 9.078,17.751 9.315,17.741 9.325 C 17.731 9.335,19.095 9.926,20.772 10.637 C 22.448 11.349,23.838 11.940,23.860 11.951 C 23.882 11.962,23.072 11.140,22.060 10.125 C 21.048 9.110,20.220 8.282,20.220 8.285 C 20.220 8.287,19.666 8.518,18.990 8.798 M1.632 10.210 C 0.742 11.073,0.017 11.785,0.022 11.792 C 0.026 11.798,1.324 12.090,2.905 12.441 L 5.780 13.078 5.872 12.969 C 5.923 12.909,5.980 12.831,6.001 12.795 C 6.029 12.745,5.729 12.269,4.669 10.686 C 3.916 9.562,3.289 8.642,3.275 8.641 C 3.261 8.640,2.521 9.347,1.632 10.210 M17.171 10.236 C 17.076 10.322,16.923 10.411,16.821 10.440 C 16.721 10.468,16.640 10.511,16.639 10.535 C 16.639 10.560,16.497 11.442,16.324 12.496 L 16.011 14.412 16.127 14.598 C 16.190 14.701,16.264 14.873,16.291 14.980 L 16.340 15.176 18.100 15.547 C 19.068 15.751,19.882 15.914,19.910 15.909 C 19.937 15.904,20.708 15.163,21.624 14.263 L 23.288 12.626 23.154 12.558 C 23.002 12.481,17.376 10.079,17.354 10.082 C 17.346 10.083,17.264 10.152,17.171 10.236 M12.030 11.814 C 10.078 12.653,8.452 13.358,8.416 13.381 C 8.358 13.417,8.359 13.429,8.426 13.508 C 8.490 13.583,8.899 13.677,11.419 14.194 C 14.251 14.776,14.339 14.791,14.391 14.716 C 14.515 14.539,14.714 14.395,14.920 14.332 C 15.041 14.294,15.145 14.261,15.151 14.258 C 15.156 14.255,15.304 13.382,15.478 12.317 C 15.802 10.344,15.808 10.274,15.645 10.284 C 15.609 10.286,13.983 10.975,12.030 11.814 M1.644 13.863 L 2.747 14.967 4.139 14.375 C 4.904 14.050,5.514 13.778,5.495 13.772 C 5.394 13.740,0.660 12.760,0.605 12.760 C 0.569 12.760,1.037 13.257,1.644 13.863 M8.285 14.374 C 8.250 14.416,8.822 15.270,10.904 18.284 C 12.369 20.405,13.589 22.163,13.616 22.190 C 13.653 22.230,13.695 22.208,13.815 22.085 L 13.967 21.929 14.423 19.135 C 14.673 17.598,14.878 16.313,14.878 16.280 C 14.878 16.247,14.798 16.172,14.701 16.113 C 14.552 16.023,14.336 15.740,14.270 15.548 C 14.264 15.531,13.818 15.427,13.279 15.317 C 12.217 15.099,11.422 14.936,9.605 14.562 C 8.958 14.429,8.407 14.320,8.380 14.320 C 8.352 14.320,8.310 14.344,8.285 14.374 M4.648 14.936 C 4.003 15.204,3.449 15.440,3.417 15.461 C 3.369 15.492,3.478 15.621,3.957 16.098 C 4.287 16.427,4.565 16.688,4.575 16.678 C 4.584 16.668,4.899 16.184,5.274 15.601 C 5.784 14.809,5.944 14.529,5.913 14.491 C 5.889 14.463,5.859 14.442,5.845 14.444 C 5.831 14.447,5.293 14.668,4.648 14.936 M7.480 15.023 C 7.317 15.084,6.953 15.095,6.775 15.044 L 6.651 15.009 5.879 16.132 L 5.106 17.256 8.483 20.605 L 11.860 23.955 12.456 23.361 L 13.052 22.768 11.331 20.274 C 10.385 18.902,9.175 17.150,8.644 16.380 C 8.112 15.610,7.664 14.978,7.649 14.975 C 7.633 14.972,7.557 14.994,7.480 15.023 M16.120 15.957 C 16.120 15.978,16.030 16.053,15.919 16.125 C 15.808 16.196,15.709 16.292,15.699 16.337 C 15.645 16.573,14.964 20.898,14.978 20.912 C 14.988 20.921,15.979 19.950,17.180 18.755 C 18.974 16.971,19.353 16.576,19.293 16.552 C 19.197 16.512,16.295 15.920,16.196 15.920 C 16.154 15.920,16.120 15.937,16.120 15.957 " stroke="none" fill="black" fill-rule="evenodd"></path></svg>