<svg role="img" xmlns="http://www.w3.org/2000/svg" viewBox="0 0 24 24"><path d="M10.780 0.043 C 5.774 0.557,1.571 4.192,0.346 9.069 C 0.072 10.156,0.020 10.628,0.020 12.000 C 0.020 13.307,0.050 13.620,0.266 14.596 C 1.136 18.529,3.923 21.755,7.728 23.234 C 8.467 23.522,9.308 23.740,10.301 23.902 C 10.927 24.005,12.632 24.027,13.340 23.941 C 14.743 23.772,15.961 23.425,17.155 22.856 C 17.524 22.680,17.683 22.585,17.668 22.547 C 17.657 22.518,17.173 21.856,16.593 21.077 C 14.253 17.935,13.615 17.044,12.114 14.820 C 11.254 13.544,10.205 11.996,9.785 11.380 L 9.020 10.260 8.995 10.740 C 8.982 11.004,8.968 12.567,8.965 14.214 C 8.960 17.437,8.963 17.384,8.755 17.514 C 8.660 17.573,7.986 17.625,7.827 17.585 C 7.766 17.570,7.672 17.484,7.599 17.379 L 7.475 17.198 7.504 12.505 C 7.524 9.210,7.545 7.795,7.576 7.754 C 7.702 7.588,7.806 7.560,8.304 7.560 C 8.736 7.560,8.801 7.569,8.896 7.644 C 9.011 7.735,9.305 8.175,14.796 16.490 C 16.826 19.565,18.503 22.080,18.522 22.080 C 18.657 22.080,19.733 21.222,20.355 20.620 C 22.296 18.739,23.469 16.446,23.907 13.680 C 23.966 13.309,23.980 12.984,23.980 12.000 C 23.980 10.915,23.970 10.716,23.887 10.200 C 23.480 7.667,22.374 5.453,20.603 3.627 C 18.606 1.568,15.885 0.268,13.100 0.042 C 12.514 -0.006,11.252 -0.005,10.780 0.043 M16.183 7.298 C 16.235 7.332,16.299 7.400,16.325 7.450 C 16.389 7.568,16.416 11.399,16.372 14.075 L 16.340 16.009 15.610 14.890 L 14.880 13.771 14.883 10.815 C 14.885 9.190,14.899 7.765,14.916 7.648 C 14.952 7.397,15.050 7.282,15.267 7.236 C 15.499 7.187,16.073 7.226,16.183 7.298 " stroke="none" fill="black" fill-rule="evenodd"></path></svg>