<svg role="img" xmlns="http://www.w3.org/2000/svg" viewBox="0 0 24 24"><path d="M2.640 0.079 C 1.646 0.101,1.518 0.112,1.306 0.190 C 0.636 0.438,0.207 0.949,0.073 1.660 C -0.001 2.051,-0.005 21.884,0.069 22.275 C 0.208 23.011,0.737 23.588,1.455 23.786 C 1.701 23.854,3.867 23.916,6.080 23.918 L 7.540 23.919 7.400 23.813 C 7.323 23.755,7.132 23.578,6.977 23.420 C 6.038 22.467,5.594 20.939,5.402 18.000 C 5.301 16.465,5.277 15.682,5.254 13.160 C 5.231 10.590,5.299 1.247,5.342 1.204 C 5.354 1.193,7.523 3.343,10.162 5.982 L 14.961 10.781 14.950 12.270 L 14.940 13.760 11.128 9.975 C 9.032 7.893,7.308 6.198,7.298 6.208 C 7.261 6.245,7.282 14.327,7.321 15.180 C 7.540 19.955,8.078 21.959,9.414 22.975 C 9.985 23.410,10.675 23.694,11.540 23.852 C 12.018 23.940,12.043 23.940,17.140 23.939 C 21.892 23.939,22.278 23.934,22.515 23.869 C 23.062 23.719,23.513 23.367,23.745 22.909 C 23.989 22.428,23.975 23.112,23.977 12.020 C 23.979 2.476,23.976 1.885,23.909 1.644 C 23.719 0.953,23.208 0.436,22.545 0.263 C 22.277 0.193,20.756 0.136,18.160 0.098 L 16.460 0.074 16.600 0.183 C 16.677 0.243,16.868 0.422,17.023 0.580 C 17.962 1.533,18.406 3.061,18.598 6.000 C 18.699 7.531,18.722 8.318,18.746 10.860 C 18.769 13.444,18.701 22.753,18.658 22.796 C 18.646 22.807,16.477 20.657,13.838 18.018 L 9.040 13.220 9.040 11.720 L 9.040 10.221 12.848 14.020 L 16.656 17.820 16.690 17.180 C 16.736 16.302,16.698 8.885,16.644 8.160 C 16.434 5.348,16.270 4.191,15.932 3.140 C 15.670 2.326,15.312 1.712,14.835 1.258 C 14.157 0.613,13.331 0.269,12.045 0.098 C 11.700 0.052,10.882 0.043,7.680 0.049 C 5.513 0.052,3.245 0.066,2.640 0.079 " stroke="none" fill="black" fill-rule="evenodd"></path></svg>