<svg role="img" viewBox="0 0 24 24" xmlns="http://www.w3.org/2000/svg"><path d="M9.260 0.025 C 7.385 0.176,5.702 0.575,4.129 1.241 C 3.516 1.500,3.420 1.600,3.420 1.984 C 3.420 2.264,3.488 2.392,3.720 2.550 C 3.923 2.689,4.121 2.668,4.624 2.457 C 7.386 1.299,10.461 1.019,13.409 1.657 C 15.398 2.087,17.316 2.962,18.940 4.180 C 19.922 4.916,20.773 5.731,21.447 6.580 C 22.019 7.300,22.110 7.394,22.281 7.440 C 22.574 7.519,22.928 7.351,23.040 7.081 C 23.069 7.010,23.082 6.868,23.072 6.741 C 23.055 6.543,23.026 6.486,22.757 6.132 C 20.213 2.779,16.385 0.616,12.080 0.101 C 11.563 0.039,9.706 -0.011,9.260 0.025 M9.280 2.521 C 8.577 2.576,7.763 2.710,7.100 2.880 C 6.037 3.152,4.945 3.564,4.801 3.748 C 4.527 4.097,4.631 4.589,5.016 4.764 C 5.251 4.871,5.354 4.859,5.784 4.680 C 6.670 4.312,7.812 4.010,8.840 3.872 C 9.427 3.794,11.148 3.807,11.737 3.894 C 13.174 4.107,14.323 4.469,15.539 5.092 C 16.932 5.806,18.188 6.835,19.178 8.075 C 19.615 8.622,19.731 8.703,20.033 8.669 C 20.440 8.623,20.713 8.170,20.559 7.797 C 20.426 7.477,19.461 6.370,18.793 5.772 C 16.777 3.967,14.295 2.862,11.580 2.561 C 11.046 2.502,9.804 2.481,9.280 2.521 M8.780 6.303 C 7.484 6.479,6.153 6.950,5.120 7.600 C 4.933 7.717,4.682 7.873,4.562 7.947 L 4.345 8.080 3.050 8.080 C 2.238 8.080,1.690 8.096,1.580 8.124 C 1.368 8.178,1.105 8.393,0.999 8.603 C 0.921 8.754,0.920 8.878,0.920 16.048 L 0.921 23.340 1.040 23.548 C 1.123 23.693,1.218 23.791,1.350 23.868 L 1.540 23.980 3.210 23.992 C 4.276 23.999,4.935 23.988,5.033 23.962 C 5.269 23.898,5.498 23.711,5.605 23.494 L 5.700 23.300 5.722 18.800 C 5.743 14.414,5.746 14.293,5.826 14.020 C 6.049 13.259,6.352 12.735,6.880 12.198 C 7.310 11.761,7.608 11.547,8.135 11.297 C 9.595 10.607,11.330 10.795,12.629 11.786 C 13.356 12.341,13.857 13.093,14.129 14.037 C 14.216 14.338,14.216 14.368,14.238 18.840 L 14.260 23.340 14.346 23.500 C 14.457 23.706,14.576 23.815,14.800 23.917 C 14.972 23.994,15.056 23.998,16.620 23.999 C 17.656 23.999,18.316 23.984,18.413 23.957 C 18.608 23.903,18.872 23.666,18.965 23.460 C 19.034 23.308,19.038 23.071,19.039 18.900 C 19.039 16.264,19.023 14.356,19.000 14.140 C 18.645 10.908,16.541 8.163,13.456 6.904 C 12.707 6.599,11.954 6.406,11.082 6.297 C 10.514 6.226,9.321 6.229,8.780 6.303 " stroke="none" fill="black" fill-rule="evenodd"></path></svg>