<svg xmlns="http://www.w3.org/2000/svg" role="img" viewBox="0 0 24 24"><path d="M8.960 5.140 C 8.960 5.961,8.949 6.200,8.910 6.200 C 8.883 6.200,8.622 6.235,8.330 6.278 C 6.172 6.596,3.841 7.655,1.561 9.356 C 1.104 9.696,0.147 10.490,0.048 10.610 C 0.004 10.663,0.032 10.753,0.223 11.186 C 0.637 12.126,1.157 13.006,1.802 13.860 C 3.343 15.903,5.249 17.237,7.430 17.803 C 7.776 17.893,8.786 18.077,8.950 18.080 C 8.955 18.080,8.960 18.494,8.960 19.000 L 8.960 19.920 16.480 19.920 L 24.000 19.920 24.000 12.000 L 24.000 4.080 16.480 4.080 L 8.960 4.080 8.960 5.140 M10.460 6.202 C 12.681 6.393,14.903 7.399,16.883 9.110 C 17.313 9.481,18.055 10.227,18.256 10.491 L 18.369 10.640 18.256 10.790 C 18.070 11.037,16.771 12.321,16.318 12.706 C 15.601 13.316,14.737 13.941,14.012 14.375 C 13.558 14.647,12.616 15.079,12.128 15.239 C 11.310 15.508,10.920 15.573,10.120 15.577 C 9.735 15.579,9.316 15.565,9.190 15.547 L 8.960 15.514 8.960 14.956 L 8.960 14.398 8.850 14.356 C 7.778 13.950,6.804 12.874,6.303 11.543 L 6.205 11.285 6.493 11.012 C 6.922 10.606,7.410 10.305,7.900 10.145 C 8.149 10.064,8.611 10.006,8.810 10.030 L 8.960 10.049 8.960 12.219 L 8.960 14.390 9.130 14.436 C 9.643 14.574,10.300 14.601,10.810 14.503 C 11.686 14.336,12.656 13.836,13.640 13.046 C 14.136 12.647,15.050 11.732,15.496 11.187 C 15.812 10.803,15.846 10.745,15.809 10.664 C 15.786 10.614,15.564 10.361,15.316 10.103 C 14.197 8.939,12.999 8.144,11.716 7.715 C 10.974 7.467,10.569 7.398,9.710 7.372 L 8.960 7.350 8.960 8.065 L 8.960 8.780 9.650 8.782 C 10.424 8.784,10.767 8.839,11.388 9.060 C 11.874 9.233,12.360 9.502,12.834 9.860 C 13.232 10.160,13.737 10.652,13.713 10.717 C 13.698 10.759,11.752 12.399,11.717 12.400 C 11.704 12.400,11.547 12.160,11.368 11.866 C 10.581 10.573,10.169 10.244,9.110 10.062 L 8.960 10.036 8.960 9.414 L 8.960 8.791 8.770 8.818 C 7.643 8.980,6.487 9.417,5.549 10.036 C 5.103 10.331,4.618 10.711,4.404 10.934 L 4.269 11.076 4.360 11.328 C 4.513 11.752,4.898 12.520,5.149 12.900 C 6.039 14.250,7.174 15.082,8.624 15.445 L 8.960 15.530 8.960 16.179 L 8.960 16.829 9.146 16.855 C 9.483 16.901,10.612 16.881,11.139 16.819 C 13.759 16.513,16.120 15.325,19.040 12.846 L 19.459 12.489 19.620 12.599 C 19.708 12.660,20.221 12.957,20.760 13.259 C 21.778 13.831,22.160 14.072,22.157 14.140 C 22.155 14.189,22.049 14.272,21.560 14.610 C 19.434 16.077,15.595 17.436,12.160 17.937 C 10.994 18.107,9.889 18.166,9.206 18.094 L 8.960 18.069 8.960 17.456 L 8.960 16.844 8.810 16.818 C 7.787 16.642,7.145 16.409,6.304 15.912 C 5.099 15.199,4.005 14.012,3.188 12.531 C 2.979 12.152,2.648 11.437,2.539 11.131 C 2.448 10.873,2.452 10.863,2.892 10.369 C 4.299 8.793,6.322 7.709,8.360 7.441 C 8.547 7.417,8.758 7.387,8.830 7.376 L 8.960 7.356 8.960 6.780 L 8.960 6.205 9.130 6.189 C 9.485 6.157,9.997 6.162,10.460 6.202 " stroke="none" fill="black" fill-rule="evenodd"></path></svg>