<svg role="img" viewBox="0 0 24 24" xmlns="http://www.w3.org/2000/svg"><path d="M18.000 1.880 L 18.000 3.760 16.120 3.760 L 14.240 3.760 14.240 4.880 L 14.240 6.000 16.120 6.000 L 18.000 6.000 18.000 7.880 L 18.000 9.760 19.120 9.760 L 20.240 9.760 20.240 7.880 L 20.240 6.000 22.120 6.000 L 24.000 6.000 24.000 4.880 L 24.000 3.760 22.120 3.760 L 20.240 3.760 20.240 1.880 L 20.240 0.000 19.120 0.000 L 18.000 0.000 18.000 1.880 M0.000 13.880 L 0.000 24.000 10.140 24.000 L 20.280 24.000 20.280 18.220 L 20.280 12.440 19.140 12.440 L 18.000 12.440 18.000 17.100 L 18.000 21.760 10.130 21.750 L 2.260 21.740 2.250 13.870 L 2.240 6.000 6.900 6.000 L 11.560 6.000 11.560 4.880 L 11.560 3.760 5.780 3.760 L 0.000 3.760 0.000 13.880 M9.531 9.224 C 9.447 9.837,9.138 10.328,8.700 10.542 C 8.385 10.696,8.107 10.760,7.630 10.787 L 7.200 10.812 7.200 11.626 L 7.200 12.440 8.260 12.440 L 9.320 12.440 9.320 15.580 L 9.320 18.720 10.440 18.720 L 11.560 18.720 11.560 13.800 L 11.560 8.880 10.569 8.880 L 9.578 8.880 9.531 9.224 " stroke="none" fill="black" fill-rule="evenodd"></path></svg>