<svg role="img" viewBox="0 0 24 24" xmlns="http://www.w3.org/2000/svg"><path d="M11.380 0.028 C 10.542 0.104,9.496 0.448,8.760 0.889 C 7.401 1.704,6.415 2.926,5.925 4.402 C 5.701 5.077,5.637 5.493,5.612 6.430 L 5.589 7.280 6.875 7.280 L 8.160 7.280 8.160 6.750 C 8.160 6.459,8.186 6.047,8.218 5.837 C 8.455 4.263,9.640 3.005,11.215 2.653 C 11.622 2.562,12.414 2.564,12.820 2.656 C 13.510 2.812,14.117 3.135,14.630 3.618 C 15.239 4.191,15.584 4.794,15.786 5.640 C 15.837 5.851,15.852 6.280,15.868 7.912 L 15.888 9.925 15.446 9.701 C 14.747 9.348,14.170 9.149,13.404 8.996 C 12.864 8.888,11.699 8.848,11.133 8.918 C 8.880 9.195,6.909 10.410,5.681 12.280 C 4.812 13.604,4.403 15.059,4.452 16.660 C 4.483 17.677,4.648 18.453,5.021 19.345 C 5.983 21.643,8.037 23.340,10.460 23.841 C 14.627 24.702,18.662 21.980,19.444 17.780 C 19.561 17.151,19.588 16.125,19.504 15.492 C 19.381 14.558,19.115 13.720,18.680 12.891 L 18.445 12.442 18.429 9.051 C 18.411 5.369,18.417 5.467,18.177 4.627 C 17.567 2.484,15.777 0.756,13.591 0.198 C 12.950 0.034,12.063 -0.034,11.380 0.028 M13.000 11.537 C 14.217 11.800,15.272 12.475,16.008 13.459 C 16.317 13.873,16.691 14.638,16.817 15.114 C 17.436 17.449,16.344 19.864,14.197 20.910 C 13.447 21.276,12.830 21.415,11.980 21.413 C 7.992 21.402,5.642 16.956,7.868 13.632 C 8.628 12.497,9.896 11.705,11.315 11.480 C 11.647 11.428,12.652 11.461,13.000 11.537 M11.759 14.359 C 10.912 14.468,10.199 15.095,9.978 15.925 C 9.905 16.201,9.905 16.719,9.978 16.995 C 10.223 17.914,11.063 18.560,12.013 18.560 C 12.592 18.560,13.020 18.398,13.434 18.020 C 14.334 17.201,14.372 15.818,13.517 14.963 C 13.062 14.508,12.391 14.278,11.759 14.359 " stroke="none" fill="black" fill-rule="evenodd"></path></svg>