<svg role="img" viewBox="0 0 24 24" xmlns="http://www.w3.org/2000/svg"><path d="M10.000 0.041 C 7.763 0.352,5.915 1.791,5.102 3.855 L 4.978 4.171 4.599 4.278 C 2.386 4.906,0.764 6.663,0.275 8.960 C 0.146 9.565,0.146 10.675,0.275 11.280 C 0.495 12.309,0.960 13.276,1.604 14.045 L 1.725 14.190 1.643 14.465 C 1.434 15.167,1.372 16.230,1.496 17.001 C 1.904 19.536,3.831 21.518,6.381 22.026 C 6.829 22.115,8.034 22.127,8.467 22.047 L 8.755 21.994 8.903 22.159 C 9.459 22.773,10.469 23.403,11.368 23.696 C 12.048 23.918,12.479 23.980,13.300 23.977 C 14.074 23.974,14.522 23.906,15.160 23.696 C 15.613 23.547,16.376 23.159,16.779 22.874 C 17.223 22.560,17.864 21.923,18.172 21.490 C 18.433 21.125,18.789 20.464,18.922 20.100 C 18.970 19.968,19.030 19.841,19.055 19.818 C 19.080 19.794,19.226 19.743,19.380 19.705 C 21.444 19.182,23.131 17.452,23.654 15.320 C 24.110 13.461,23.655 11.463,22.443 10.006 L 22.289 9.820 22.402 9.373 C 22.821 7.725,22.509 6.013,21.516 4.518 C 21.172 4.000,20.426 3.258,19.898 2.909 C 19.222 2.461,18.516 2.165,17.725 1.998 C 17.173 1.882,16.225 1.853,15.681 1.936 L 15.263 2.001 15.001 1.747 C 14.136 0.908,13.119 0.368,11.940 0.121 C 11.483 0.025,10.427 -0.019,10.000 0.041 M11.920 1.737 C 12.129 1.795,12.480 1.930,12.700 2.037 C 13.138 2.250,13.629 2.588,13.575 2.639 C 13.556 2.656,12.442 3.304,11.100 4.078 C 9.758 4.852,8.618 5.525,8.566 5.573 C 8.514 5.621,8.438 5.727,8.396 5.808 C 8.323 5.951,8.320 6.094,8.320 9.398 C 8.320 11.291,8.308 12.840,8.294 12.840 C 8.279 12.840,7.823 12.584,7.280 12.272 L 6.293 11.704 6.267 8.799 C 6.250 6.913,6.255 5.779,6.281 5.570 C 6.526 3.617,7.914 2.098,9.840 1.675 C 10.359 1.561,11.396 1.592,11.920 1.737 M17.001 3.481 C 18.600 3.676,19.898 4.610,20.585 6.060 C 20.858 6.637,20.966 7.103,20.987 7.800 C 20.997 8.119,20.990 8.457,20.972 8.551 L 20.940 8.723 20.300 8.348 C 19.948 8.142,18.814 7.480,17.780 6.877 L 15.900 5.780 15.640 5.780 L 15.380 5.780 12.460 7.467 C 10.854 8.396,9.508 9.167,9.470 9.182 C 9.404 9.207,9.400 9.137,9.400 8.054 L 9.401 6.900 10.730 6.121 C 14.887 3.688,14.750 3.762,15.393 3.596 C 15.954 3.452,16.460 3.415,17.001 3.481 M4.810 11.988 C 4.848 12.058,4.938 12.159,5.010 12.212 C 5.081 12.265,6.431 13.051,8.009 13.960 C 9.587 14.868,10.869 15.625,10.859 15.641 C 10.849 15.658,10.401 15.925,9.864 16.236 L 8.888 16.800 8.094 16.347 C 7.657 16.098,6.544 15.465,5.620 14.941 C 3.692 13.847,3.492 13.717,3.066 13.288 C 2.672 12.892,2.442 12.566,2.197 12.060 C 1.903 11.452,1.798 11.019,1.771 10.310 C 1.747 9.652,1.789 9.291,1.949 8.780 C 2.318 7.604,3.266 6.546,4.386 6.059 L 4.700 5.922 4.720 8.891 C 4.738 11.620,4.746 11.870,4.810 11.988 M17.590 8.606 C 18.948 9.379,20.141 10.066,20.240 10.132 C 21.184 10.766,21.848 11.694,22.120 12.760 C 22.440 14.014,22.219 15.298,21.496 16.390 C 21.069 17.033,20.351 17.650,19.666 17.960 C 19.521 18.026,19.392 18.080,19.381 18.080 C 19.369 18.080,19.360 16.805,19.360 15.247 C 19.360 12.110,19.361 12.130,19.111 11.895 C 19.039 11.827,18.566 11.532,18.060 11.239 C 17.554 10.947,16.717 10.461,16.200 10.161 C 15.683 9.861,14.780 9.337,14.193 8.998 C 13.606 8.658,13.140 8.366,13.156 8.349 C 13.181 8.324,15.080 7.209,15.110 7.202 C 15.115 7.201,16.231 7.833,17.590 8.606 M13.306 9.745 L 14.600 10.490 14.600 11.997 L 14.600 13.505 13.310 14.250 L 12.020 14.996 11.795 14.868 C 11.671 14.798,11.082 14.461,10.486 14.120 L 9.402 13.500 9.401 11.999 L 9.400 10.497 9.870 10.229 C 10.129 10.081,10.709 9.746,11.160 9.484 C 11.611 9.222,11.987 9.006,11.996 9.004 C 12.005 9.002,12.594 9.335,13.306 9.745 M16.746 11.737 L 17.707 12.294 17.735 15.217 C 17.764 18.329,17.756 18.524,17.578 19.150 C 16.899 21.528,14.395 22.934,12.048 22.256 C 11.478 22.091,10.856 21.780,10.533 21.500 L 10.395 21.380 12.508 20.164 C 15.548 18.414,15.436 18.483,15.555 18.303 L 15.660 18.146 15.671 14.650 C 15.679 11.833,15.691 11.157,15.733 11.167 C 15.761 11.174,16.217 11.431,16.746 11.737 M14.600 15.953 L 14.600 17.106 12.130 18.551 C 10.772 19.345,9.525 20.059,9.360 20.136 C 7.875 20.833,6.091 20.630,4.754 19.613 C 3.872 18.942,3.256 17.917,3.065 16.803 C 2.976 16.284,2.987 15.320,3.082 15.320 C 3.098 15.320,4.239 15.970,5.617 16.765 C 8.254 18.286,8.303 18.310,8.596 18.207 C 8.707 18.169,10.195 17.319,13.380 15.474 C 14.018 15.105,14.553 14.802,14.570 14.801 C 14.587 14.801,14.600 15.319,14.600 15.953 " stroke="none" fill="black" fill-rule="evenodd"></path></svg>