<svg role="img" viewBox="0 0 24 24" xmlns="http://www.w3.org/2000/svg"><path d="M10.300 6.068 C 8.569 6.160,6.797 6.645,5.209 7.461 C 3.268 8.459,1.925 9.564,1.034 10.894 C 0.295 11.999,0.020 12.831,0.023 13.960 C 0.025 14.717,0.100 15.048,0.418 15.700 C 1.242 17.387,3.136 18.271,4.998 17.836 C 6.000 17.603,6.726 16.929,7.067 15.918 C 7.125 15.745,7.140 15.579,7.139 15.120 C 7.137 14.568,7.131 14.524,7.011 14.209 C 6.699 13.390,6.104 12.809,5.304 12.540 C 4.455 12.255,3.538 12.431,2.983 12.986 C 2.039 13.929,2.441 15.457,3.718 15.783 C 3.936 15.838,4.021 15.842,4.254 15.803 C 4.945 15.689,5.255 15.357,5.058 14.941 C 4.950 14.714,4.789 14.630,4.520 14.660 C 3.859 14.735,3.935 14.744,3.759 14.569 C 3.617 14.427,3.600 14.388,3.600 14.215 C 3.600 13.965,3.706 13.790,3.928 13.672 C 4.070 13.596,4.162 13.581,4.460 13.580 C 4.767 13.580,4.854 13.596,5.048 13.687 C 5.642 13.965,6.018 14.680,5.915 15.333 C 5.843 15.785,5.551 16.205,5.172 16.400 C 4.609 16.689,3.602 16.665,2.973 16.347 C 2.121 15.915,1.563 15.003,1.561 14.036 C 1.558 12.953,2.421 11.886,3.531 11.602 C 4.146 11.445,4.910 11.462,5.517 11.647 C 6.193 11.853,6.925 12.325,7.503 12.927 C 8.100 13.549,8.418 14.126,8.640 14.992 L 8.684 15.164 9.422 15.529 C 9.827 15.730,10.167 15.886,10.177 15.876 C 10.187 15.866,10.175 15.664,10.151 15.426 C 10.067 14.593,10.211 13.916,10.550 13.553 C 10.921 13.157,11.302 13.021,12.040 13.023 C 12.494 13.024,12.572 13.036,12.890 13.148 C 13.559 13.383,13.944 13.680,14.731 14.569 C 15.028 14.905,15.323 15.228,15.386 15.287 C 15.497 15.392,17.301 16.254,17.362 16.231 C 17.379 16.225,17.303 16.085,17.194 15.920 C 16.752 15.255,16.484 14.556,16.451 13.978 C 16.404 13.175,16.696 12.781,17.375 12.733 C 17.538 12.721,18.002 12.748,18.461 12.796 C 19.356 12.890,19.896 12.900,20.543 12.837 C 21.082 12.785,21.835 12.637,22.260 12.500 C 22.717 12.353,23.530 11.947,23.647 11.808 C 23.770 11.661,23.945 11.129,23.888 11.072 C 23.861 11.045,23.790 11.066,23.674 11.134 C 23.186 11.418,22.375 11.648,21.860 11.648 C 21.261 11.647,20.439 11.386,19.238 10.815 L 18.777 10.595 18.590 10.149 C 18.487 9.904,18.409 9.697,18.417 9.690 C 18.425 9.682,18.620 9.793,18.851 9.935 C 19.082 10.078,19.481 10.303,19.738 10.435 C 21.232 11.205,22.254 11.316,23.245 10.817 C 23.580 10.649,24.000 10.374,24.000 10.323 C 24.000 10.142,23.569 8.900,23.339 8.420 C 23.026 7.766,22.651 7.498,21.523 7.123 C 20.678 6.842,18.546 6.360,17.940 6.313 L 17.780 6.300 17.769 6.694 C 17.760 6.994,17.745 7.083,17.706 7.068 C 17.285 6.906,15.861 6.539,15.046 6.382 C 13.698 6.121,11.736 5.992,10.300 6.068 M21.822 7.741 C 22.275 7.858,22.633 8.185,22.804 8.638 C 22.911 8.922,22.894 9.402,22.767 9.690 C 22.651 9.952,22.367 10.243,22.091 10.383 C 21.883 10.488,21.822 10.500,21.480 10.498 C 21.024 10.496,20.824 10.421,20.516 10.132 C 19.585 9.261,20.177 7.731,21.462 7.684 C 21.528 7.682,21.690 7.708,21.822 7.741 M21.049 8.207 C 20.693 8.379,20.444 8.835,20.501 9.211 C 20.639 10.135,21.831 10.398,22.305 9.609 C 22.457 9.355,22.494 9.150,22.436 8.881 C 22.309 8.286,21.598 7.941,21.049 8.207 M21.901 8.658 C 22.199 8.782,22.161 9.073,21.837 9.161 C 21.644 9.213,21.482 9.185,21.342 9.074 C 21.216 8.975,21.211 8.840,21.330 8.732 C 21.489 8.587,21.675 8.563,21.901 8.658 " stroke="none" fill="black" fill-rule="evenodd"></path></svg>