<svg role="img" xmlns="http://www.w3.org/2000/svg" viewBox="0 0 24 24"><path d="M0.000 12.000 L 0.000 24.000 12.000 24.000 L 24.000 24.000 24.000 12.000 L 24.000 0.000 12.000 0.000 L 0.000 0.000 0.000 12.000 M20.560 12.000 L 20.560 20.440 12.000 20.440 L 3.440 20.440 3.440 12.000 L 3.440 3.560 12.000 3.560 L 20.560 3.560 20.560 12.000 M5.160 12.000 L 5.160 18.720 9.420 18.720 L 13.680 18.720 13.680 17.000 L 13.680 15.280 11.140 15.280 L 8.600 15.280 8.600 12.000 L 8.600 8.720 11.140 8.720 L 13.680 8.720 13.680 7.000 L 13.680 5.280 9.420 5.280 L 5.160 5.280 5.160 12.000 M15.400 7.000 L 15.400 8.720 17.120 8.720 L 18.841 8.720 18.830 7.010 L 18.820 5.300 17.110 5.290 L 15.400 5.279 15.400 7.000 M15.400 14.580 L 15.400 18.721 17.110 18.710 L 18.820 18.700 18.820 14.580 L 18.820 10.460 17.110 10.450 L 15.400 10.439 15.400 14.580 " stroke="none" fill="black" fill-rule="evenodd"></path></svg>