<svg role="img" viewBox="0 0 24 24" xmlns="http://www.w3.org/2000/svg"><path d="M10.940 0.043 C 5.464 0.556,1.059 4.646,0.163 10.050 C -0.606 14.688,1.426 19.368,5.341 21.980 C 9.248 24.586,14.334 24.673,18.312 22.203 C 18.987 21.784,19.906 21.080,19.851 21.024 C 19.838 21.011,19.857 21.000,19.894 21.000 C 19.990 21.000,20.915 20.061,21.333 19.540 C 22.204 18.453,22.886 17.229,23.321 15.974 C 24.693 12.019,23.953 7.735,21.333 4.460 C 20.903 3.923,19.909 2.923,19.810 2.930 C 19.772 2.932,19.614 2.883,19.460 2.821 C 18.811 2.557,18.067 2.386,17.264 2.315 C 15.940 2.197,14.330 2.534,13.283 3.148 L 13.105 3.252 13.402 3.341 C 15.577 3.988,17.341 6.164,18.055 9.080 C 18.321 10.167,18.376 10.668,18.376 12.000 C 18.376 13.331,18.321 13.834,18.056 14.915 C 17.339 17.843,15.583 20.010,13.402 20.659 L 13.105 20.748 13.283 20.852 C 14.338 21.470,15.933 21.803,17.271 21.685 C 18.107 21.611,18.953 21.404,19.660 21.101 C 19.898 20.999,19.786 21.086,19.384 21.315 C 18.632 21.743,17.615 22.106,16.666 22.285 C 16.033 22.404,14.802 22.432,14.120 22.343 C 11.759 22.034,9.729 20.845,8.084 18.806 C 7.582 18.185,7.265 17.689,6.916 16.980 C 5.232 13.558,5.485 8.988,7.525 5.945 C 8.140 5.029,9.118 3.984,9.929 3.378 C 11.097 2.506,12.338 1.965,13.780 1.698 C 14.324 1.598,15.653 1.575,16.266 1.656 C 17.405 1.806,18.572 2.207,19.600 2.804 C 19.923 2.991,19.766 2.833,19.222 2.423 C 17.560 1.171,15.648 0.388,13.555 0.100 C 13.004 0.024,11.491 -0.009,10.940 0.043 " stroke="none" fill="black" fill-rule="evenodd"></path></svg>