<svg role="img" xmlns="http://www.w3.org/2000/svg" viewBox="0 0 24 24"><path d="M10.940 0.046 C 6.260 0.450,2.189 3.634,0.659 8.086 C -1.484 14.319,1.792 21.115,7.997 23.309 C 12.365 24.853,17.202 23.757,20.480 20.480 C 24.710 16.252,25.180 9.567,21.584 4.785 C 19.301 1.748,15.709 -0.028,11.920 0.006 C 11.601 0.009,11.160 0.027,10.940 0.046 M12.550 6.120 C 14.424 6.318,16.030 7.315,17.030 8.900 C 17.659 9.898,17.997 11.298,17.888 12.450 C 17.740 14.003,17.154 15.227,16.054 16.280 C 13.951 18.294,10.702 18.454,8.380 16.659 C 6.166 14.946,5.461 11.873,6.710 9.380 C 7.187 8.428,7.962 7.570,8.864 6.992 C 9.906 6.324,11.318 5.991,12.550 6.120 " stroke="none" fill="black" fill-rule="evenodd"></path></svg>