<svg role="img" viewBox="0 0 24 24" xmlns="http://www.w3.org/2000/svg"><path d="M15.771 0.041 C 13.689 0.178,11.821 0.625,10.456 1.312 C 9.672 1.706,8.783 2.423,8.317 3.036 C 8.025 3.420,7.660 4.181,7.539 4.660 C 7.483 4.880,7.416 5.281,7.390 5.551 L 7.342 6.043 7.054 6.222 C 6.101 6.817,4.783 8.019,4.105 8.912 C 2.789 10.647,1.986 12.622,1.743 14.720 C 1.605 15.906,1.701 16.984,2.045 18.100 C 2.701 20.237,4.239 22.062,6.239 23.077 C 10.020 24.996,14.613 23.808,16.970 20.300 C 17.956 18.832,18.450 17.106,18.388 15.340 C 18.315 13.241,17.467 11.262,16.007 9.780 C 15.288 9.050,14.609 8.561,13.700 8.120 C 12.588 7.580,11.692 7.339,10.493 7.258 L 10.085 7.230 9.813 7.420 C 9.029 7.966,7.985 8.943,7.395 9.680 C 6.868 10.340,6.302 11.207,5.970 11.860 L 5.869 12.060 6.251 11.695 C 7.010 10.970,7.879 10.507,8.923 10.273 C 9.461 10.153,10.541 10.141,11.080 10.250 C 13.335 10.706,15.029 12.418,15.462 14.680 C 15.568 15.234,15.561 16.165,15.446 16.708 C 15.199 17.871,14.675 18.817,13.827 19.627 C 12.782 20.627,11.506 21.134,10.040 21.133 C 9.095 21.132,8.399 20.967,7.540 20.539 C 5.937 19.741,4.652 17.970,4.277 16.040 C 3.853 13.855,4.657 11.217,6.411 9.039 C 8.828 6.038,13.157 3.583,18.580 2.137 C 18.624 2.126,18.138 2.383,17.500 2.710 C 15.443 3.764,13.765 4.739,11.888 5.971 C 11.485 6.236,11.170 6.465,11.188 6.482 C 11.244 6.536,11.925 6.762,12.395 6.884 C 14.819 7.511,16.634 7.049,18.300 5.380 C 18.799 4.880,19.098 4.523,20.128 3.195 C 21.021 2.044,21.537 1.451,22.019 1.020 L 22.331 0.740 21.916 0.609 C 21.208 0.385,20.249 0.212,19.091 0.098 C 18.331 0.024,16.503 -0.008,15.771 0.041 " stroke="none" fill="black" fill-rule="evenodd"></path></svg>