<svg role="img" viewBox="0 0 24 24" xmlns="http://www.w3.org/2000/svg"><path d="M10.960 0.041 C 9.762 0.155,8.610 0.427,7.575 0.840 C 2.845 2.731,-0.151 7.302,0.013 12.380 C 0.098 15.021,0.967 17.405,2.602 19.480 C 3.008 19.995,3.968 20.959,4.480 21.365 C 6.238 22.758,8.186 23.589,10.440 23.905 C 11.140 24.004,12.819 24.004,13.520 23.907 C 14.927 23.711,16.081 23.365,17.269 22.783 C 19.725 21.579,21.612 19.683,22.803 17.220 C 25.163 12.343,23.953 6.466,19.860 2.925 C 18.075 1.381,15.944 0.425,13.560 0.100 C 13.010 0.025,11.492 -0.009,10.960 0.041 M13.152 1.562 C 14.881 1.750,16.618 2.408,18.040 3.414 C 18.799 3.951,19.588 4.684,20.134 5.361 C 20.827 6.221,21.516 7.433,21.873 8.420 C 22.059 8.934,22.293 9.851,22.385 10.420 C 22.470 10.955,22.504 12.503,22.443 13.091 C 22.233 15.098,21.429 17.033,20.142 18.628 C 19.277 19.700,18.101 20.647,16.821 21.302 C 16.239 21.601,15.497 21.910,15.458 21.871 C 15.445 21.859,14.933 19.983,14.318 17.703 L 13.201 13.557 13.411 13.347 C 14.178 12.579,14.190 11.388,13.439 10.585 C 12.676 9.770,11.381 9.746,10.609 10.532 C 9.818 11.338,9.798 12.546,10.563 13.333 L 10.795 13.571 9.680 17.710 C 9.067 19.986,8.555 21.859,8.542 21.871 C 8.510 21.903,7.811 21.623,7.340 21.389 C 4.122 19.794,1.952 16.699,1.563 13.152 C 1.508 12.653,1.508 11.350,1.562 10.848 C 1.781 8.830,2.618 6.866,3.933 5.280 C 5.615 3.252,8.183 1.860,10.780 1.567 C 11.236 1.515,12.693 1.512,13.152 1.562 M5.389 6.603 C 5.015 6.801,4.347 7.996,3.965 9.150 C 3.647 10.110,3.522 10.919,3.522 12.000 C 3.522 13.079,3.647 13.890,3.963 14.845 C 4.351 16.016,5.018 17.205,5.397 17.399 C 5.724 17.565,6.103 17.479,6.337 17.186 C 6.447 17.049,6.460 17.004,6.460 16.766 C 6.460 16.509,6.452 16.489,6.228 16.150 C 5.341 14.815,4.867 12.883,5.037 11.300 C 5.170 10.064,5.602 8.802,6.215 7.863 C 6.467 7.475,6.532 7.286,6.483 7.073 C 6.380 6.619,5.817 6.377,5.389 6.603 M17.890 6.604 C 17.594 6.751,17.443 7.068,17.524 7.372 C 17.546 7.456,17.646 7.645,17.746 7.792 C 18.333 8.659,18.824 10.047,18.958 11.220 C 19.142 12.828,18.681 14.763,17.785 16.137 C 17.664 16.324,17.544 16.550,17.520 16.639 C 17.369 17.201,18.015 17.662,18.588 17.402 C 18.970 17.229,19.640 16.044,20.039 14.839 C 20.348 13.903,20.484 13.039,20.484 12.000 C 20.484 10.966,20.345 10.073,20.039 9.156 C 19.637 7.954,18.987 6.798,18.603 6.601 C 18.393 6.494,18.109 6.496,17.890 6.604 M7.972 8.558 C 7.780 8.645,7.530 8.943,7.212 9.464 C 6.436 10.737,6.296 12.383,6.845 13.787 C 7.102 14.447,7.655 15.283,7.926 15.423 C 8.228 15.579,8.693 15.443,8.878 15.143 C 8.985 14.970,9.025 14.656,8.963 14.468 C 8.937 14.389,8.817 14.193,8.697 14.032 C 8.429 13.674,8.234 13.282,8.113 12.860 C 7.994 12.440,7.985 11.602,8.095 11.200 C 8.199 10.824,8.405 10.401,8.663 10.033 C 8.786 9.856,8.913 9.651,8.944 9.577 C 9.065 9.287,8.975 8.897,8.735 8.673 C 8.515 8.467,8.258 8.428,7.972 8.558 M15.439 8.570 C 15.228 8.676,15.101 8.852,15.046 9.111 C 14.982 9.413,15.040 9.594,15.346 10.048 C 15.499 10.275,15.680 10.595,15.749 10.760 C 16.186 11.810,16.022 13.094,15.337 13.980 C 14.985 14.436,14.917 14.739,15.090 15.081 C 15.264 15.425,15.742 15.595,16.066 15.427 C 16.302 15.305,16.668 14.822,16.950 14.260 C 17.327 13.506,17.480 12.856,17.480 12.000 C 17.480 10.959,17.195 10.018,16.627 9.180 C 16.176 8.516,15.863 8.355,15.439 8.570 M12.452 16.630 C 12.689 17.549,12.882 18.318,12.882 18.341 C 12.881 18.363,12.682 18.579,12.440 18.820 L 12.000 19.259 11.560 18.820 C 11.318 18.579,11.119 18.363,11.118 18.341 C 11.116 18.270,11.979 14.961,12.000 14.961 C 12.011 14.961,12.214 15.712,12.452 16.630 M11.430 19.836 C 11.436 19.850,11.207 20.094,10.921 20.379 L 10.402 20.897 10.581 20.218 C 10.680 19.845,10.781 19.463,10.806 19.368 L 10.850 19.196 11.135 19.504 C 11.292 19.673,11.425 19.823,11.430 19.836 M13.375 20.021 C 13.495 20.460,13.590 20.823,13.585 20.828 C 13.580 20.833,13.343 20.604,13.059 20.319 L 12.542 19.800 12.839 19.501 C 13.002 19.337,13.140 19.207,13.146 19.212 C 13.151 19.218,13.254 19.582,13.375 20.021 M12.998 21.298 C 13.536 21.837,13.967 22.286,13.956 22.297 C 13.945 22.308,13.766 22.349,13.558 22.388 C 13.003 22.492,11.215 22.490,10.540 22.385 C 10.276 22.344,10.052 22.303,10.042 22.294 C 10.023 22.276,11.964 20.320,12.000 20.320 C 12.011 20.320,12.461 20.760,12.998 21.298 " stroke="none" fill="black" fill-rule="evenodd"></path></svg>