<svg role="img" xmlns="http://www.w3.org/2000/svg" viewBox="0 0 24 24"><path d="M1.150 0.043 C 0.735 0.142,0.325 0.486,0.132 0.900 L 0.020 1.140 0.020 12.000 L 0.020 22.860 0.132 23.100 C 0.279 23.415,0.587 23.724,0.896 23.867 L 1.140 23.980 12.000 23.980 L 22.860 23.980 23.120 23.856 C 23.449 23.698,23.696 23.452,23.855 23.120 L 23.980 22.860 23.980 12.000 L 23.980 1.140 23.855 0.880 C 23.696 0.548,23.449 0.302,23.120 0.144 L 22.860 0.020 12.080 0.014 C 5.902 0.010,1.236 0.023,1.150 0.043 M14.500 6.871 C 15.577 7.174,16.482 7.920,16.961 8.900 C 17.225 9.440,17.321 9.824,17.347 10.440 C 17.372 11.019,17.296 11.478,17.084 12.024 C 16.655 13.134,15.540 14.093,14.410 14.325 L 14.160 14.376 14.160 15.808 L 14.160 17.240 11.200 17.240 L 8.240 17.240 8.240 11.999 L 8.240 6.757 11.210 6.769 C 14.149 6.781,14.183 6.783,14.500 6.871 M9.760 11.998 L 9.760 15.760 11.199 15.760 L 12.639 15.760 12.649 14.350 L 12.660 12.940 13.380 12.917 C 13.990 12.898,14.134 12.881,14.322 12.807 C 14.620 12.690,14.985 12.468,15.175 12.287 C 15.380 12.093,15.646 11.679,15.760 11.380 C 15.873 11.080,15.915 10.422,15.842 10.086 C 15.672 9.306,15.039 8.620,14.240 8.350 C 13.988 8.265,13.918 8.262,11.870 8.249 L 9.760 8.235 9.760 11.998 " stroke="none" fill="black" fill-rule="evenodd"></path></svg>