<svg role="img" viewBox="0 0 24 24" xmlns="http://www.w3.org/2000/svg"><path d="M1.762 0.044 C 1.181 0.158,0.541 0.672,0.264 1.247 C -0.018 1.836,0.001 1.041,0.001 12.080 C 0.001 23.133,-0.019 22.304,0.264 22.843 C 0.546 23.378,1.123 23.817,1.710 23.941 C 2.116 24.027,21.884 24.027,22.290 23.941 C 23.086 23.773,23.773 23.086,23.941 22.290 C 24.029 21.877,24.028 2.316,23.941 1.858 C 23.770 0.964,23.038 0.198,22.205 0.041 C 21.935 -0.010,2.022 -0.007,1.762 0.044 M12.494 3.632 C 12.823 3.811,13.008 4.131,13.008 4.523 C 13.008 4.816,12.901 5.057,12.682 5.254 C 12.457 5.456,12.294 5.520,12.000 5.520 C 11.706 5.520,11.543 5.456,11.318 5.254 C 10.928 4.902,10.879 4.330,11.202 3.878 C 11.296 3.746,11.582 3.565,11.773 3.516 C 11.972 3.466,12.281 3.515,12.494 3.632 M8.663 4.579 C 8.843 4.654,9.072 4.869,9.171 5.056 C 9.293 5.286,9.294 5.753,9.173 5.980 C 8.989 6.324,8.659 6.518,8.255 6.519 C 8.120 6.520,7.945 6.493,7.866 6.460 C 7.343 6.241,7.096 5.610,7.334 5.100 C 7.482 4.784,7.721 4.598,8.100 4.506 C 8.212 4.478,8.517 4.518,8.663 4.579 M16.146 4.580 C 16.350 4.665,16.584 4.906,16.680 5.129 C 16.751 5.294,16.766 5.387,16.750 5.580 C 16.703 6.172,16.263 6.551,15.666 6.513 C 14.732 6.454,14.390 5.270,15.141 4.696 C 15.412 4.490,15.817 4.443,16.146 4.580 M5.947 7.333 C 6.465 7.601,6.670 8.204,6.416 8.712 C 6.076 9.396,5.166 9.469,4.694 8.850 C 4.292 8.323,4.540 7.536,5.182 7.297 C 5.376 7.225,5.774 7.244,5.947 7.333 M18.900 7.334 C 19.273 7.508,19.492 7.849,19.494 8.262 C 19.498 9.035,18.685 9.509,17.997 9.134 C 17.634 8.937,17.453 8.584,17.492 8.150 C 17.553 7.465,18.279 7.045,18.900 7.334 M11.540 7.454 C 11.915 7.628,12.120 7.956,12.120 8.380 C 12.120 9.433,10.727 9.774,10.225 8.844 C 10.086 8.586,10.068 8.240,10.179 7.970 C 10.261 7.771,10.575 7.472,10.767 7.411 C 11.005 7.335,11.322 7.352,11.540 7.454 M15.090 8.297 C 15.460 8.429,15.713 8.758,15.749 9.156 C 15.788 9.584,15.602 9.938,15.230 10.143 C 15.054 10.241,14.975 10.259,14.740 10.259 C 14.329 10.257,14.015 10.061,13.816 9.680 C 13.707 9.473,13.715 9.032,13.831 8.812 C 14.079 8.343,14.609 8.125,15.090 8.297 M8.780 10.179 C 9.220 10.358,9.491 10.918,9.363 11.388 C 9.200 11.992,8.450 12.311,7.902 12.009 C 7.534 11.807,7.330 11.424,7.372 11.015 C 7.442 10.333,8.139 9.919,8.780 10.179 M12.420 11.078 C 12.943 11.302,13.161 11.948,12.893 12.475 C 12.539 13.169,11.536 13.201,11.136 12.530 C 10.619 11.666,11.491 10.681,12.420 11.078 M4.947 11.083 C 5.162 11.188,5.411 11.466,5.473 11.672 C 5.584 12.044,5.507 12.397,5.253 12.680 C 4.936 13.032,4.450 13.118,4.036 12.895 C 3.099 12.390,3.448 11.000,4.512 11.000 C 4.697 11.000,4.826 11.025,4.947 11.083 M19.869 11.061 C 20.105 11.160,20.254 11.295,20.379 11.525 C 20.746 12.199,20.257 13.008,19.482 13.008 C 19.174 13.008,18.952 12.907,18.741 12.672 C 18.492 12.396,18.416 12.052,18.521 11.675 C 18.574 11.482,18.857 11.166,19.058 11.075 C 19.259 10.984,19.667 10.977,19.869 11.061 M16.031 11.942 C 16.227 12.024,16.471 12.261,16.564 12.460 C 16.664 12.675,16.664 13.085,16.564 13.300 C 16.471 13.499,16.227 13.736,16.031 13.818 C 15.617 13.991,15.057 13.830,14.813 13.469 C 14.345 12.774,14.802 11.880,15.626 11.880 C 15.767 11.880,15.949 11.908,16.031 11.942 M9.563 13.784 C 10.004 13.915,10.327 14.413,10.265 14.866 C 10.170 15.559,9.425 15.964,8.809 15.657 C 7.965 15.236,8.086 14.035,9.000 13.757 C 9.163 13.708,9.332 13.716,9.563 13.784 M13.183 14.659 C 13.601 14.784,13.888 15.182,13.888 15.638 C 13.888 15.941,13.776 16.184,13.539 16.393 C 13.119 16.762,12.479 16.712,12.109 16.280 C 11.919 16.057,11.868 15.894,11.887 15.562 C 11.925 14.888,12.533 14.465,13.183 14.659 M5.823 14.779 C 6.246 14.905,6.519 15.283,6.520 15.745 C 6.520 16.163,6.313 16.492,5.940 16.666 C 5.547 16.849,5.136 16.774,4.813 16.461 C 4.650 16.302,4.593 16.211,4.539 16.025 C 4.422 15.619,4.563 15.194,4.898 14.939 C 5.179 14.724,5.471 14.674,5.823 14.779 M18.845 14.781 C 19.695 15.071,19.760 16.247,18.949 16.666 C 18.882 16.700,18.722 16.738,18.594 16.750 C 17.923 16.811,17.383 16.198,17.521 15.533 C 17.645 14.937,18.267 14.584,18.845 14.781 M8.712 17.584 C 8.967 17.711,9.143 17.916,9.221 18.177 C 9.296 18.429,9.295 18.580,9.218 18.808 C 8.985 19.492,8.120 19.724,7.588 19.245 C 7.161 18.860,7.127 18.197,7.512 17.785 C 7.799 17.479,8.325 17.390,8.712 17.584 M16.086 17.526 C 16.446 17.634,16.759 18.065,16.760 18.455 C 16.760 18.747,16.684 18.946,16.491 19.161 C 15.901 19.818,14.823 19.462,14.732 18.580 C 14.656 17.852,15.356 17.308,16.086 17.526 M12.420 18.556 C 12.623 18.650,12.857 18.893,12.942 19.098 C 12.978 19.185,13.008 19.357,13.008 19.480 C 13.008 19.877,12.823 20.190,12.475 20.379 C 11.800 20.747,10.992 20.257,10.992 19.480 C 10.992 19.203,11.079 18.987,11.272 18.785 C 11.480 18.568,11.686 18.482,12.000 18.482 C 12.169 18.482,12.316 18.508,12.420 18.556 " stroke="none" fill="black" fill-rule="evenodd"></path></svg>