<svg role="img" viewBox="0 0 24 24" xmlns="http://www.w3.org/2000/svg"><path d="M4.367 0.384 C 4.583 3.154,5.867 5.359,7.948 6.535 C 8.646 6.929,9.669 7.276,10.337 7.344 L 10.600 7.371 10.600 7.263 C 10.600 6.819,10.154 5.947,9.504 5.120 C 8.912 4.367,7.702 3.090,6.660 2.119 C 6.440 1.914,6.332 1.806,6.420 1.879 C 7.464 2.743,10.243 5.454,10.891 6.240 C 11.243 6.668,11.523 7.051,11.651 7.282 L 11.722 7.411 12.028 7.383 C 12.451 7.345,13.019 7.223,13.454 7.078 C 15.479 6.400,16.720 4.801,16.720 2.869 L 16.720 2.468 16.170 2.491 C 13.954 2.585,12.396 4.057,11.826 6.598 C 11.734 7.011,11.682 7.042,11.681 6.685 C 11.680 6.436,11.559 5.704,11.435 5.200 C 11.116 3.900,10.561 2.855,9.730 1.995 C 8.542 0.766,6.966 0.125,4.858 0.016 L 4.336 -0.011 4.367 0.384 M11.540 7.725 C 10.951 7.798,10.297 8.059,9.800 8.420 C 9.657 8.524,8.448 9.701,7.114 11.035 C 5.047 13.101,4.656 13.510,4.471 13.800 C 4.018 14.511,3.871 15.003,3.866 15.820 C 3.863 16.435,3.908 16.683,4.122 17.238 C 4.374 17.893,4.464 17.995,7.074 20.613 C 8.408 21.951,9.617 23.135,9.760 23.245 C 10.097 23.502,10.652 23.772,11.080 23.886 C 11.527 24.005,12.437 24.015,12.840 23.906 C 13.435 23.745,13.862 23.538,14.300 23.199 C 14.410 23.114,15.607 21.932,16.961 20.572 C 19.690 17.830,19.670 17.854,19.943 17.050 C 20.331 15.909,20.169 14.748,19.477 13.712 C 19.268 13.398,14.575 8.692,14.200 8.420 C 13.680 8.043,13.067 7.803,12.420 7.724 C 12.018 7.675,11.941 7.675,11.540 7.725 M15.146 11.490 C 15.135 11.518,15.126 11.495,15.126 11.440 C 15.126 11.385,15.135 11.363,15.146 11.390 C 15.158 11.418,15.158 11.463,15.146 11.490 M15.104 11.730 C 15.056 12.045,14.843 12.664,14.537 13.384 C 13.830 15.043,13.717 15.676,13.959 16.620 C 14.271 17.835,15.137 18.686,16.320 18.938 C 16.507 18.978,16.543 18.995,16.448 18.997 C 16.066 19.006,15.497 18.827,14.312 18.325 C 12.930 17.741,12.355 17.614,11.615 17.733 C 10.582 17.899,9.790 18.391,9.307 19.167 C 9.115 19.476,8.944 19.930,8.885 20.287 C 8.860 20.438,8.848 20.463,8.845 20.374 C 8.830 19.970,9.035 19.303,9.536 18.125 C 10.133 16.724,10.248 16.155,10.098 15.360 C 9.816 13.874,8.826 12.901,7.413 12.719 C 7.146 12.685,7.148 12.684,7.500 12.701 C 8.075 12.730,8.658 12.910,9.816 13.417 C 10.872 13.879,11.486 14.030,12.132 13.987 C 13.320 13.908,14.337 13.276,14.816 12.319 C 14.911 12.129,15.013 11.881,15.042 11.767 C 15.106 11.516,15.140 11.496,15.104 11.730 " stroke="none" fill="black" fill-rule="evenodd"></path></svg>