<svg role="img" viewBox="0 0 24 24" xmlns="http://www.w3.org/2000/svg"><path d="M11.125 9.861 C 10.353 10.077,9.720 10.725,9.541 11.484 C 9.307 12.477,9.784 13.507,10.686 13.958 C 11.084 14.158,11.367 14.215,11.820 14.190 C 12.657 14.142,13.273 13.709,13.813 12.788 C 13.874 12.685,13.936 12.600,13.952 12.600 C 13.967 12.600,14.030 12.679,14.091 12.775 C 14.250 13.027,14.567 13.309,14.831 13.433 C 15.034 13.528,15.108 13.540,15.481 13.540 C 15.876 13.540,15.918 13.532,16.168 13.409 C 16.482 13.254,16.762 12.966,16.916 12.640 C 17.007 12.447,17.020 12.369,17.020 12.000 C 17.020 11.628,17.008 11.554,16.913 11.351 C 16.763 11.032,16.482 10.746,16.165 10.590 C 15.916 10.467,15.877 10.460,15.461 10.460 C 15.044 10.460,15.007 10.467,14.780 10.587 C 14.426 10.774,14.233 11.001,13.550 12.040 C 12.889 13.045,12.702 13.258,12.327 13.434 C 12.126 13.528,12.051 13.540,11.680 13.540 C 11.311 13.540,11.233 13.527,11.040 13.436 C 10.714 13.282,10.425 13.002,10.271 12.688 C 10.148 12.438,10.140 12.396,10.140 12.001 C 10.140 11.628,10.152 11.554,10.247 11.351 C 10.397 11.032,10.678 10.746,10.995 10.590 C 11.241 10.468,11.285 10.460,11.679 10.460 C 12.052 10.460,12.126 10.472,12.329 10.567 C 12.593 10.691,12.910 10.973,13.069 11.225 C 13.130 11.321,13.189 11.400,13.200 11.399 C 13.229 11.398,13.560 10.888,13.560 10.844 C 13.560 10.824,13.480 10.709,13.383 10.590 C 13.169 10.327,12.747 10.032,12.420 9.916 C 12.102 9.803,11.432 9.775,11.125 9.861 M0.209 10.502 C 0.006 10.644,-0.000 10.695,-0.000 12.178 L 0.000 13.560 0.161 13.560 C 0.486 13.560,0.640 13.349,0.640 12.905 L 0.640 12.647 1.490 12.633 C 2.279 12.620,2.352 12.613,2.509 12.529 C 2.893 12.325,3.107 12.022,3.148 11.625 C 3.193 11.188,2.922 10.732,2.500 10.534 C 2.307 10.444,2.264 10.441,1.299 10.440 C 0.456 10.440,0.284 10.450,0.209 10.502 M3.936 10.576 L 3.800 10.712 3.800 12.136 L 3.800 13.560 3.957 13.560 C 4.156 13.560,4.342 13.412,4.399 13.207 C 4.423 13.121,4.440 12.520,4.440 11.750 L 4.440 10.440 4.256 10.440 C 4.100 10.440,4.051 10.461,3.936 10.576 M5.226 10.522 C 5.050 10.661,5.035 10.801,5.048 12.240 L 5.060 13.580 5.218 13.567 C 5.423 13.551,5.507 13.503,5.602 13.347 C 5.673 13.231,5.680 13.141,5.680 12.317 C 5.680 11.820,5.692 11.401,5.707 11.386 C 5.722 11.371,5.962 11.584,6.241 11.859 C 6.728 12.341,6.753 12.360,6.915 12.360 C 7.154 12.360,7.249 12.298,7.699 11.843 C 7.919 11.621,8.112 11.440,8.129 11.440 C 8.146 11.440,8.160 11.617,8.160 11.834 C 8.160 12.050,8.172 12.527,8.186 12.894 L 8.213 13.560 8.377 13.560 C 8.468 13.560,8.582 13.532,8.631 13.498 C 8.831 13.357,8.840 13.294,8.840 11.958 L 8.840 10.712 8.704 10.576 C 8.588 10.460,8.541 10.440,8.379 10.440 L 8.191 10.440 7.597 11.026 L 7.003 11.611 6.492 11.155 C 5.649 10.405,5.698 10.440,5.504 10.440 C 5.390 10.440,5.295 10.468,5.226 10.522 M17.871 10.519 C 17.685 10.665,17.678 10.731,17.689 12.200 L 17.700 13.580 17.858 13.567 C 18.192 13.540,18.320 13.365,18.320 12.930 L 18.320 12.640 18.950 12.641 L 19.580 12.642 19.795 13.026 C 20.093 13.559,20.094 13.560,20.480 13.560 C 20.656 13.560,20.800 13.549,20.800 13.535 C 20.800 13.521,20.671 13.283,20.513 13.007 C 20.299 12.634,20.240 12.500,20.283 12.487 C 20.314 12.477,20.425 12.383,20.528 12.277 C 21.057 11.735,20.882 10.861,20.181 10.534 C 19.987 10.444,19.944 10.441,18.975 10.440 C 18.037 10.440,17.964 10.445,17.871 10.519 M21.631 10.557 L 21.500 10.673 21.500 12.000 L 21.500 13.327 21.631 13.443 L 21.761 13.560 22.732 13.560 C 23.546 13.560,23.717 13.550,23.791 13.498 C 23.909 13.415,24.000 13.234,24.000 13.083 L 24.000 12.961 23.070 12.951 L 22.140 12.940 22.128 12.632 L 22.117 12.325 22.918 12.312 L 23.719 12.300 23.844 12.175 C 23.936 12.082,23.974 12.002,23.990 11.865 L 24.010 11.680 23.064 11.680 L 22.117 11.680 22.128 11.370 L 22.140 11.060 22.920 11.040 C 23.447 11.026,23.729 11.003,23.790 10.969 C 23.904 10.903,24.000 10.718,24.000 10.562 L 24.000 10.440 22.881 10.440 L 21.761 10.440 21.631 10.557 M2.215 11.095 C 2.493 11.212,2.600 11.512,2.452 11.763 C 2.328 11.973,2.206 12.000,1.384 12.000 L 0.640 12.000 0.640 11.547 C 0.640 11.297,0.652 11.081,0.667 11.067 C 0.681 11.052,1.006 11.040,1.388 11.040 C 1.888 11.040,2.120 11.055,2.215 11.095 M15.743 11.099 C 16.163 11.224,16.400 11.552,16.400 12.006 C 16.400 12.469,16.118 12.821,15.668 12.922 C 15.488 12.962,15.418 12.959,15.230 12.904 C 15.106 12.869,14.949 12.792,14.880 12.734 C 14.748 12.623,14.360 12.075,14.360 12.000 C 14.360 11.937,14.733 11.397,14.854 11.284 C 14.960 11.186,15.316 11.044,15.463 11.041 C 15.508 11.041,15.634 11.066,15.743 11.099 M19.895 11.095 C 20.169 11.210,20.275 11.498,20.139 11.761 C 20.028 11.977,19.924 12.000,19.077 12.000 L 18.310 12.000 18.333 11.810 C 18.346 11.705,18.369 11.490,18.383 11.330 L 18.410 11.040 19.086 11.040 C 19.571 11.040,19.800 11.056,19.895 11.095 " stroke="none" fill="black" fill-rule="evenodd"></path></svg>