<svg role="img" viewBox="0 0 24 24" xmlns="http://www.w3.org/2000/svg"><path d="M3.799 3.865 C 1.743 5.969,0.054 7.705,0.047 7.723 C 0.041 7.741,0.194 7.746,0.387 7.735 C 2.287 7.624,3.424 7.572,3.446 7.594 C 3.536 7.685,9.530 15.101,9.543 15.136 C 9.551 15.160,9.399 16.071,9.205 17.160 C 9.010 18.249,8.854 19.144,8.858 19.149 C 8.868 19.162,10.317 17.696,11.962 16.010 C 12.719 15.234,13.350 14.604,13.365 14.610 C 13.381 14.615,15.694 16.654,18.506 19.140 C 21.318 21.626,23.691 23.723,23.779 23.800 C 23.988 23.982,24.253 24.282,19.044 18.440 C 16.622 15.724,14.640 13.490,14.640 13.477 C 14.640 13.463,15.681 12.347,16.953 10.996 C 18.226 9.645,19.255 8.535,19.240 8.529 C 19.226 8.523,18.219 8.761,17.004 9.059 L 14.794 9.599 13.727 8.615 C 13.140 8.074,11.522 6.584,10.132 5.305 L 7.603 2.980 7.602 1.510 C 7.601 0.702,7.586 0.040,7.569 0.040 C 7.553 0.040,5.856 1.761,3.799 3.865 " stroke="none" fill="black" fill-rule="evenodd"></path></svg>