<svg role="img" viewBox="0 0 24 24" xmlns="http://www.w3.org/2000/svg"><path d="M1.720 11.999 L 1.720 24.000 5.480 24.000 L 9.240 24.000 9.240 16.860 L 9.240 9.720 7.790 9.720 C 6.490 9.720,6.326 9.713,6.200 9.650 C 6.018 9.558,5.963 9.407,6.047 9.229 C 6.082 9.157,7.110 7.929,8.333 6.499 C 10.277 4.227,10.583 3.886,10.765 3.790 C 11.029 3.651,11.178 3.651,11.435 3.790 C 11.608 3.884,11.970 4.287,13.880 6.517 C 16.193 9.218,16.268 9.317,16.161 9.517 C 16.060 9.707,15.948 9.720,14.381 9.720 L 12.920 9.720 12.920 13.066 L 12.920 16.412 13.790 16.388 C 15.511 16.341,16.703 16.093,17.871 15.539 C 18.432 15.273,18.720 15.100,19.182 14.756 C 20.932 13.452,22.012 11.349,22.239 8.800 C 22.466 6.245,21.694 3.923,20.082 2.320 C 18.850 1.094,17.238 0.361,15.140 0.075 C 14.872 0.039,13.117 0.023,8.250 0.012 L 1.720 -0.003 1.720 11.999 " stroke="none" fill="black" fill-rule="evenodd"></path></svg>