<svg role="img" viewBox="0 0 24 24" xmlns="http://www.w3.org/2000/svg"><path d="M4.160 0.061 C 3.134 0.222,2.213 0.696,1.455 1.455 C 0.683 2.227,0.217 3.142,0.058 4.200 C -0.028 4.767,-0.028 19.233,0.058 19.800 C 0.217 20.858,0.683 21.773,1.455 22.545 C 2.170 23.260,2.950 23.683,3.960 23.905 C 4.285 23.977,4.632 23.980,12.000 23.980 C 19.368 23.980,19.715 23.977,20.040 23.905 C 21.050 23.683,21.830 23.260,22.545 22.545 C 23.260 21.830,23.683 21.050,23.905 20.040 C 23.977 19.715,23.980 19.368,23.980 12.000 C 23.980 4.632,23.977 4.285,23.905 3.960 C 23.683 2.950,23.260 2.170,22.545 1.455 C 21.773 0.683,20.858 0.217,19.800 0.058 C 19.257 -0.024,4.684 -0.021,4.160 0.061 M13.792 4.602 C 17.069 4.958,19.432 6.857,20.108 9.680 C 20.191 10.026,20.212 10.235,20.229 10.862 C 20.247 11.528,20.238 11.679,20.164 12.069 C 19.942 13.230,19.444 14.186,18.622 15.034 C 17.470 16.222,15.961 16.947,14.060 17.225 C 13.420 17.318,12.096 17.320,11.399 17.228 C 10.497 17.108,9.447 16.868,8.662 16.602 C 8.466 16.535,8.299 16.480,8.292 16.480 C 8.286 16.480,8.280 17.088,8.280 17.830 L 8.281 19.180 8.557 19.292 C 8.984 19.464,9.141 19.684,8.984 19.890 C 8.935 19.955,8.809 19.960,7.347 19.960 L 5.762 19.960 5.701 19.842 C 5.594 19.634,5.720 19.466,6.100 19.310 C 6.188 19.274,6.301 19.233,6.350 19.220 L 6.440 19.195 6.440 13.432 C 6.440 7.951,6.437 7.673,6.370 7.724 C 6.046 7.972,5.583 8.388,5.334 8.657 C 4.956 9.063,4.544 9.666,4.585 9.756 C 4.600 9.791,4.621 9.956,4.631 10.123 C 4.646 10.398,4.639 10.436,4.554 10.530 C 4.344 10.762,4.342 10.760,3.747 9.817 L 3.201 8.953 3.298 8.826 C 3.490 8.575,4.432 7.755,5.100 7.258 C 7.069 5.793,9.249 4.891,11.480 4.620 C 12.005 4.556,13.276 4.546,13.792 4.602 M11.920 5.543 C 11.865 5.552,11.658 5.580,11.460 5.605 C 10.490 5.726,9.214 6.161,8.509 6.613 L 8.280 6.759 8.280 11.082 L 8.280 15.405 8.530 15.518 C 9.957 16.162,12.463 16.422,13.940 16.080 C 15.953 15.613,17.404 14.163,17.864 12.160 C 17.961 11.738,17.982 10.624,17.903 10.089 C 17.561 7.768,16.002 6.091,13.761 5.635 C 13.397 5.560,12.172 5.499,11.920 5.543 " stroke="none" fill="black" fill-rule="evenodd"></path></svg>