<svg role="img" xmlns="http://www.w3.org/2000/svg" viewBox="0 0 24 24"><path d="M8.997 0.055 C 8.897 0.082,8.735 0.151,8.637 0.209 C 8.536 0.269,6.682 2.097,4.336 4.447 C -0.231 9.024,0.055 8.703,0.012 9.296 C -0.021 9.760,0.118 10.237,0.425 10.709 C 0.517 10.850,1.491 11.859,2.928 13.302 L 5.280 15.663 5.280 18.112 L 5.280 20.560 7.727 20.560 L 10.175 20.560 11.617 21.992 C 12.436 22.804,13.161 23.489,13.293 23.576 C 13.961 24.013,14.711 24.114,15.260 23.842 C 15.470 23.738,16.017 23.205,19.644 19.572 C 24.233 14.974,23.945 15.297,23.988 14.704 C 24.021 14.240,23.883 13.765,23.576 13.291 C 23.423 13.055,11.760 1.332,11.083 0.734 C 10.897 0.570,10.635 0.374,10.499 0.298 C 10.040 0.041,9.420 -0.059,8.997 0.055 M10.188 3.379 C 10.804 3.574,10.740 3.514,15.664 8.447 C 19.145 11.934,20.263 13.077,20.371 13.260 C 20.450 13.393,20.562 13.644,20.621 13.820 C 20.715 14.099,20.727 14.188,20.713 14.521 C 20.686 15.194,20.828 15.022,17.925 17.928 C 14.978 20.878,15.201 20.700,14.460 20.700 C 14.203 20.700,13.960 20.679,13.875 20.649 L 13.730 20.597 13.886 20.236 C 14.225 19.449,14.416 18.468,14.327 17.964 C 14.239 17.462,14.016 17.218,13.676 17.250 C 13.190 17.295,12.610 17.791,12.050 18.640 C 11.926 18.827,11.819 18.988,11.811 18.998 C 11.804 19.008,11.667 18.886,11.508 18.728 L 11.219 18.441 9.319 18.430 L 7.420 18.420 7.410 16.521 L 7.399 14.621 5.585 12.801 C 3.617 10.826,3.539 10.733,3.358 10.127 C 3.288 9.891,3.274 9.764,3.287 9.467 C 3.317 8.798,3.187 8.958,5.972 6.167 C 7.319 4.818,8.509 3.649,8.617 3.569 C 9.033 3.261,9.599 3.193,10.188 3.379 M5.747 8.576 C 5.420 8.713,5.213 8.866,5.038 9.100 C 4.308 10.074,4.826 11.437,6.019 11.681 C 7.088 11.899,8.105 10.925,7.928 9.853 C 7.839 9.317,7.493 8.847,7.020 8.620 C 6.815 8.521,6.722 8.502,6.380 8.491 C 6.027 8.479,5.952 8.489,5.747 8.576 " stroke="none" fill="black" fill-rule="evenodd"></path></svg>