<svg role="img" xmlns="http://www.w3.org/2000/svg" viewBox="0 0 24 24"><path d="M11.420 0.025 C 11.354 0.033,11.111 0.058,10.880 0.082 C 8.838 0.291,6.793 1.034,5.180 2.154 C 4.322 2.749,3.266 3.726,2.664 4.480 C 1.693 5.696,0.849 7.333,0.446 8.780 C -0.718 12.958,0.452 17.412,3.520 20.480 C 8.207 25.167,15.803 25.168,20.480 20.481 C 23.877 17.077,24.921 12.014,23.140 7.580 C 22.348 5.606,20.999 3.830,19.285 2.504 C 18.103 1.590,16.583 0.837,15.160 0.463 C 13.953 0.146,12.188 -0.061,11.420 0.025 M14.962 3.040 C 16.506 3.567,18.246 4.825,19.431 6.269 C 20.239 7.254,21.160 9.123,21.160 9.777 C 21.160 9.999,20.982 10.281,20.783 10.376 C 20.521 10.500,20.384 10.501,20.138 10.381 C 19.863 10.246,19.723 10.063,19.598 9.675 C 19.407 9.079,18.742 7.863,18.252 7.211 C 17.970 6.836,17.328 6.182,16.920 5.855 C 16.109 5.205,15.513 4.862,14.392 4.401 C 13.772 4.146,13.503 3.831,13.600 3.478 C 13.646 3.313,13.846 3.060,14.017 2.953 C 14.184 2.847,14.475 2.874,14.962 3.040 M11.053 4.431 C 11.502 4.641,11.804 4.977,11.961 5.443 C 12.085 5.808,12.062 6.321,11.907 6.657 C 11.687 7.136,11.418 7.365,10.779 7.620 C 9.227 8.238,8.409 8.930,7.860 10.089 C 7.032 11.838,7.390 13.914,8.758 15.282 C 9.463 15.987,10.381 16.451,11.377 16.605 C 11.807 16.672,12.708 16.628,13.120 16.519 C 13.916 16.310,14.621 15.901,15.221 15.301 C 15.697 14.825,15.993 14.371,16.301 13.643 C 16.590 12.962,16.697 12.775,16.955 12.507 C 17.719 11.710,19.169 11.969,19.652 12.989 C 19.774 13.247,19.780 13.283,19.778 13.720 C 19.775 14.141,19.763 14.217,19.627 14.620 C 19.082 16.235,17.895 17.751,16.382 18.765 C 15.954 19.052,15.046 19.503,14.540 19.680 C 13.742 19.960,12.842 20.067,11.620 20.027 C 10.500 19.990,9.986 19.897,9.226 19.595 C 8.051 19.126,7.208 18.577,6.358 17.723 C 5.101 16.461,4.304 14.859,4.058 13.096 C 3.978 12.526,3.997 11.290,4.093 10.779 C 4.357 9.372,4.936 8.095,5.789 7.040 C 6.118 6.633,6.828 5.947,7.229 5.650 C 8.040 5.050,9.124 4.516,9.893 4.340 C 10.285 4.250,10.743 4.286,11.053 4.431 M14.246 5.322 C 14.581 5.435,15.233 5.766,15.636 6.027 C 16.822 6.798,17.775 7.875,18.436 9.191 C 18.739 9.796,18.821 10.154,18.717 10.427 C 18.583 10.782,18.084 10.987,17.762 10.821 C 17.572 10.723,17.382 10.462,17.099 9.912 C 16.349 8.455,15.485 7.577,14.120 6.884 C 13.478 6.558,13.336 6.457,13.242 6.265 C 13.143 6.060,13.136 5.813,13.226 5.679 C 13.512 5.251,13.769 5.161,14.246 5.322 M14.028 7.857 C 15.003 8.371,16.249 9.791,16.346 10.496 C 16.393 10.843,16.057 11.259,15.690 11.308 C 15.379 11.349,15.166 11.176,14.716 10.515 C 14.348 9.973,13.831 9.471,13.341 9.178 C 12.853 8.887,12.760 8.768,12.760 8.432 C 12.760 8.301,12.787 8.145,12.820 8.080 C 12.884 7.956,13.079 7.791,13.241 7.722 C 13.416 7.648,13.736 7.703,14.028 7.857 " stroke="none" fill="black" fill-rule="evenodd"></path></svg>