<svg role="img" viewBox="0 0 24 24" xmlns="http://www.w3.org/2000/svg"><path d="M11.060 0.047 C 9.408 0.213,7.667 0.934,6.347 1.999 C 4.911 3.157,3.818 4.833,3.338 6.611 C 3.105 7.479,3.061 7.856,3.062 9.020 C 3.062 10.240,3.104 10.577,3.404 11.800 C 4.069 14.514,5.708 17.851,8.050 21.260 C 8.554 21.994,9.705 23.552,9.955 23.840 L 10.077 23.980 10.078 18.593 L 10.080 13.207 9.777 13.044 C 8.204 12.195,7.224 10.454,7.336 8.706 C 7.485 6.372,9.233 4.556,11.559 4.318 C 12.435 4.228,13.302 4.399,14.126 4.825 C 16.072 5.830,17.040 8.031,16.479 10.174 C 16.123 11.532,15.028 12.770,13.747 13.262 L 13.441 13.380 13.440 15.590 C 13.440 17.111,13.453 17.800,13.482 17.800 C 13.564 17.800,14.106 17.671,14.520 17.553 C 16.429 17.007,18.161 15.766,19.354 14.090 C 20.164 12.951,20.710 11.542,20.898 10.108 C 20.968 9.572,20.979 8.515,20.919 7.980 C 20.647 5.540,19.353 3.262,17.420 1.822 C 16.839 1.389,16.526 1.198,15.908 0.897 C 14.444 0.184,12.712 -0.119,11.060 0.047 " stroke="none" fill="black" fill-rule="evenodd"></path></svg>