<svg role="img" viewBox="0 0 24 24" xmlns="http://www.w3.org/2000/svg"><path d="M10.940 0.046 C 6.260 0.450,2.190 3.633,0.659 8.086 C -0.838 12.440,0.267 17.227,3.520 20.480 C 7.055 24.015,12.385 24.988,16.948 22.932 C 19.904 21.601,22.263 19.025,23.321 15.974 C 25.051 10.986,23.392 5.559,19.166 2.378 C 16.850 0.635,13.877 -0.208,10.940 0.046 M13.148 2.741 C 14.906 2.970,16.533 3.666,17.900 4.772 C 18.615 5.351,19.409 6.257,19.941 7.100 C 20.748 8.380,21.320 10.273,21.320 11.662 L 21.320 12.000 20.160 12.000 L 19.000 12.000 19.000 11.810 C 18.999 11.282,18.840 10.391,18.639 9.790 C 18.035 7.978,16.733 6.512,14.989 5.680 C 11.522 4.028,7.361 5.503,5.698 8.973 C 4.030 12.454,5.478 16.613,8.940 18.285 C 9.494 18.552,10.003 18.730,10.530 18.840 C 10.947 18.927,11.526 18.999,11.810 19.000 L 12.000 19.000 12.000 20.160 L 12.000 21.320 11.662 21.320 C 10.335 21.320,8.535 20.796,7.266 20.040 C 6.382 19.513,5.382 18.655,4.772 17.900 C 2.727 15.369,2.132 12.003,3.188 8.942 C 3.534 7.939,4.152 6.839,4.813 6.050 C 5.094 5.714,5.767 5.046,6.120 4.754 C 7.378 3.709,9.086 2.978,10.820 2.743 C 11.379 2.667,12.569 2.666,13.148 2.741 M13.128 6.519 C 14.189 6.742,15.070 7.207,15.849 7.954 C 16.068 8.165,16.361 8.488,16.499 8.673 C 17.117 9.496,17.504 10.550,17.584 11.630 L 17.611 12.000 16.591 12.000 L 15.572 12.000 15.545 11.682 C 15.444 10.471,14.688 9.368,13.572 8.806 C 13.435 8.737,13.165 8.632,12.972 8.573 C 12.655 8.477,12.559 8.466,12.000 8.466 C 11.441 8.466,11.345 8.477,11.028 8.573 C 10.381 8.771,9.894 9.069,9.438 9.546 C 9.001 10.002,8.761 10.414,8.573 11.028 C 8.477 11.345,8.466 11.441,8.466 12.000 C 8.466 12.559,8.477 12.655,8.573 12.972 C 8.761 13.586,9.001 13.998,9.438 14.454 C 10.044 15.088,10.839 15.475,11.682 15.545 L 12.000 15.572 12.000 16.591 L 12.000 17.611 11.635 17.584 C 10.281 17.482,9.112 16.964,8.148 16.042 C 7.284 15.215,6.766 14.285,6.513 13.108 C 6.384 12.509,6.385 11.469,6.514 10.885 C 6.759 9.779,7.204 8.933,7.951 8.154 C 8.371 7.717,8.737 7.426,9.220 7.146 C 9.817 6.801,10.588 6.539,11.288 6.444 C 11.727 6.385,12.672 6.423,13.128 6.519 " stroke="none" fill="black" fill-rule="evenodd"></path></svg>