<svg role="img" viewBox="0 0 24 24" xmlns="http://www.w3.org/2000/svg"><path d="M11.200 0.023 C 11.123 0.032,10.862 0.059,10.620 0.083 C 8.536 0.291,6.570 1.144,5.189 2.438 C 2.923 4.562,2.049 8.034,2.804 11.920 C 3.161 13.758,3.874 15.773,4.781 17.507 C 7.067 21.880,10.133 24.406,12.590 23.940 C 13.422 23.782,14.294 23.333,15.220 22.588 C 15.644 22.246,16.614 21.247,17.046 20.708 C 19.889 17.155,21.667 12.258,21.442 8.599 C 21.339 6.925,20.964 5.540,20.288 4.340 C 18.955 1.974,16.648 0.516,13.577 0.100 C 13.128 0.039,11.514 -0.013,11.200 0.023 M7.154 12.581 C 8.044 12.750,8.914 13.222,9.569 13.890 C 10.432 14.769,10.896 15.920,10.889 17.160 C 10.886 17.576,10.835 18.058,10.788 18.105 C 10.734 18.160,10.090 18.206,9.640 18.189 C 8.457 18.142,7.448 17.707,6.600 16.880 C 5.984 16.278,5.560 15.562,5.335 14.740 C 5.236 14.376,5.226 14.275,5.223 13.620 C 5.220 12.803,5.245 12.617,5.364 12.579 C 5.700 12.472,6.588 12.473,7.154 12.581 M18.533 12.558 C 18.617 12.577,18.694 12.601,18.703 12.610 C 18.767 12.674,18.806 13.180,18.789 13.720 C 18.773 14.221,18.748 14.417,18.662 14.740 C 18.453 15.525,18.028 16.257,17.443 16.843 C 16.559 17.726,15.413 18.201,14.165 18.200 C 13.809 18.199,13.250 18.144,13.211 18.105 C 13.165 18.058,13.114 17.573,13.111 17.160 C 13.104 15.916,13.573 14.758,14.438 13.885 C 15.129 13.187,16.065 12.697,16.960 12.565 C 17.125 12.540,17.305 12.512,17.360 12.503 C 17.507 12.477,18.356 12.517,18.533 12.558 " stroke="none" fill="black" fill-rule="evenodd"></path></svg>