<svg role="img" xmlns="http://www.w3.org/2000/svg" viewBox="0 0 24 24"><path d="M11.280 4.703 C 11.225 4.713,11.045 4.739,10.880 4.763 C 10.098 4.874,9.121 5.210,8.409 5.613 C 7.549 6.100,7.384 6.251,3.867 9.757 C 2.045 11.574,0.476 13.164,0.380 13.290 C -0.310 14.202,-0.003 15.523,1.014 16.019 C 1.551 16.281,2.103 16.285,2.639 16.032 C 2.865 15.925,3.033 15.777,3.909 14.908 C 4.553 14.268,4.924 13.927,4.935 13.963 C 4.946 13.994,4.994 14.146,5.042 14.300 C 5.371 15.336,6.040 16.410,6.859 17.215 C 7.952 18.289,9.291 18.966,10.880 19.247 C 11.343 19.329,12.759 19.316,13.260 19.224 C 14.080 19.075,14.933 18.765,15.650 18.355 C 16.455 17.893,16.659 17.707,20.133 14.243 C 21.955 12.426,23.524 10.836,23.620 10.710 C 24.310 9.798,24.003 8.477,22.986 7.981 C 22.449 7.719,21.897 7.715,21.361 7.968 C 21.135 8.075,20.967 8.223,20.091 9.092 C 19.447 9.732,19.076 10.073,19.065 10.037 C 19.054 10.006,19.006 9.854,18.958 9.700 C 18.730 8.981,18.296 8.168,17.796 7.520 C 16.693 6.093,15.056 5.100,13.280 4.780 C 12.919 4.715,11.523 4.661,11.280 4.703 M12.761 8.418 C 14.152 8.705,15.269 9.824,15.586 11.250 C 15.670 11.631,15.670 12.369,15.586 12.750 C 15.175 14.601,13.443 15.857,11.600 15.639 C 10.027 15.454,8.750 14.293,8.410 12.741 C 8.375 12.579,8.349 12.265,8.349 12.000 C 8.349 11.735,8.375 11.421,8.410 11.259 C 8.689 9.984,9.605 8.954,10.830 8.537 C 11.464 8.321,12.099 8.282,12.761 8.418 " stroke="none" fill="black" fill-rule="evenodd"></path></svg>