<svg role="img" viewBox="0 0 24 24" xmlns="http://www.w3.org/2000/svg"><path d="M11.570 0.102 C 11.255 0.187,11.049 0.306,10.790 0.553 C 9.945 1.359,10.159 2.794,11.203 3.321 C 11.333 3.387,11.440 3.462,11.440 3.488 C 11.440 3.560,10.882 5.847,10.839 5.950 L 10.802 6.040 6.431 6.040 C 1.605 6.041,1.877 6.027,1.337 6.300 C 0.664 6.641,0.165 7.316,0.038 8.057 C 0.011 8.220,0.001 10.551,0.008 15.140 L 0.020 21.980 0.109 22.240 C 0.366 22.992,0.970 23.596,1.719 23.851 L 1.980 23.940 11.870 23.950 C 22.844 23.962,22.054 23.981,22.640 23.694 C 23.057 23.490,23.530 23.017,23.734 22.600 C 24.018 22.021,24.003 22.478,23.991 14.849 L 23.980 7.980 23.892 7.749 C 23.582 6.936,23.073 6.420,22.300 6.134 C 22.111 6.064,21.853 6.059,17.621 6.040 L 13.141 6.020 12.834 4.740 C 12.665 4.036,12.530 3.458,12.534 3.455 C 12.537 3.452,12.655 3.392,12.796 3.321 C 13.447 2.995,13.821 2.271,13.717 1.537 C 13.573 0.524,12.548 -0.161,11.570 0.102 M20.445 7.921 C 20.724 7.973,21.175 8.191,21.387 8.376 C 21.624 8.582,21.866 8.963,21.970 9.295 L 22.060 9.580 22.060 14.940 C 22.060 20.018,22.056 20.313,21.987 20.540 C 21.790 21.187,21.240 21.732,20.611 21.905 C 20.350 21.977,20.021 21.980,11.980 21.980 C 3.995 21.980,3.609 21.977,3.380 21.907 C 3.065 21.811,2.827 21.670,2.571 21.428 C 2.314 21.185,2.155 20.940,2.033 20.600 L 1.940 20.340 1.940 14.960 L 1.940 9.580 2.030 9.295 C 2.242 8.621,2.788 8.108,3.471 7.942 C 3.662 7.896,5.059 7.886,11.965 7.883 C 17.403 7.881,20.303 7.894,20.445 7.921 M6.600 10.227 C 5.535 10.394,4.617 10.859,3.918 11.585 C 3.260 12.268,2.870 13.010,2.695 13.908 C 2.613 14.328,2.604 15.179,2.677 15.558 C 2.988 17.175,4.046 18.448,5.571 19.041 C 6.902 19.558,8.465 19.388,9.685 18.593 C 11.363 17.499,12.135 15.419,11.577 13.493 C 11.092 11.819,9.682 10.560,7.963 10.265 C 7.622 10.206,6.864 10.185,6.600 10.227 M16.140 10.261 C 14.482 10.566,13.130 11.731,12.601 13.312 C 11.609 16.271,13.802 19.326,16.920 19.328 C 17.710 19.329,18.326 19.183,19.007 18.834 C 19.898 18.377,20.565 17.703,21.018 16.800 C 22.321 14.204,20.883 11.073,18.047 10.333 C 17.553 10.204,16.637 10.169,16.140 10.261 M7.957 11.339 C 9.033 11.566,9.964 12.306,10.423 13.298 C 10.661 13.814,10.731 14.144,10.731 14.760 C 10.731 15.402,10.654 15.743,10.386 16.300 C 9.946 17.212,9.113 17.893,8.100 18.166 C 7.645 18.289,6.834 18.288,6.380 18.165 C 5.720 17.986,5.193 17.672,4.713 17.169 C 4.341 16.780,4.081 16.348,3.911 15.840 C 3.789 15.476,3.784 15.432,3.782 14.800 C 3.780 14.043,3.822 13.829,4.082 13.283 C 4.544 12.315,5.354 11.642,6.378 11.378 C 6.817 11.264,7.519 11.247,7.957 11.339 M17.900 11.378 C 18.270 11.479,18.912 11.814,19.212 12.060 C 19.729 12.487,20.168 13.158,20.364 13.820 C 20.484 14.225,20.512 14.998,20.422 15.443 C 20.192 16.585,19.401 17.556,18.342 17.997 C 17.872 18.192,17.557 18.253,17.000 18.256 C 16.633 18.258,16.420 18.239,16.200 18.183 C 14.888 17.850,13.942 16.922,13.589 15.620 C 13.467 15.172,13.470 14.361,13.595 13.900 C 13.943 12.610,14.960 11.633,16.260 11.336 C 16.582 11.263,17.570 11.288,17.900 11.378 M6.720 12.993 C 6.187 13.132,5.771 13.480,5.529 13.989 C 5.401 14.259,5.381 14.343,5.367 14.663 C 5.355 14.927,5.370 15.094,5.419 15.264 C 5.648 16.063,6.356 16.600,7.179 16.600 C 8.562 16.600,9.446 15.154,8.819 13.917 C 8.667 13.619,8.299 13.263,7.992 13.120 C 7.551 12.913,7.169 12.875,6.720 12.993 M16.564 12.963 C 15.627 13.147,14.954 14.118,15.114 15.054 C 15.269 15.958,16.026 16.600,16.937 16.600 C 18.575 16.600,19.376 14.623,18.212 13.455 C 17.796 13.037,17.158 12.847,16.564 12.963 M10.000 20.522 L 10.000 21.603 10.350 21.592 L 10.700 21.580 10.711 20.510 L 10.721 19.440 10.361 19.440 L 10.000 19.440 10.000 20.522 M11.080 20.522 L 11.080 21.603 11.430 21.592 L 11.780 21.580 11.791 20.510 L 11.801 19.440 11.441 19.440 L 11.080 19.440 11.080 20.522 M12.160 20.522 L 12.160 21.603 12.510 21.592 L 12.860 21.580 12.871 20.510 L 12.881 19.440 12.521 19.440 L 12.160 19.440 12.160 20.522 M13.240 20.520 L 13.240 21.600 13.580 21.600 L 13.920 21.600 13.920 20.520 L 13.920 19.440 13.580 19.440 L 13.240 19.440 13.240 20.520 M9.488 19.550 C 9.292 19.656,9.097 19.863,8.999 20.070 C 8.928 20.222,8.915 20.311,8.926 20.561 C 8.938 20.817,8.960 20.898,9.061 21.063 C 9.168 21.237,9.505 21.520,9.605 21.520 C 9.624 21.520,9.640 21.067,9.640 20.500 C 9.640 19.939,9.635 19.480,9.629 19.480 C 9.624 19.480,9.560 19.512,9.488 19.550 M14.320 20.521 L 14.320 21.561 14.470 21.499 C 14.877 21.330,15.120 20.964,15.120 20.520 C 15.120 20.201,15.052 20.018,14.852 19.796 C 14.716 19.646,14.459 19.480,14.362 19.480 C 14.334 19.480,14.320 19.827,14.320 20.521 " stroke="none" fill="black" fill-rule="evenodd"></path></svg>