<svg role="img" viewBox="0 0 24 24" xmlns="http://www.w3.org/2000/svg"><path d="M10.900 0.045 C 10.368 0.096,9.406 0.264,8.860 0.402 C 5.975 1.130,3.443 2.932,1.781 5.440 C 0.881 6.797,0.360 8.141,0.113 9.740 C 0.043 10.196,0.026 10.486,0.023 11.300 C 0.020 12.338,0.058 12.812,0.206 13.560 C 0.359 14.334,0.799 15.757,1.023 16.204 C 1.291 16.738,1.849 16.866,2.502 16.543 C 2.858 16.367,3.306 15.965,3.265 15.858 C 3.220 15.740,3.048 14.849,2.953 14.240 C 2.874 13.729,2.863 13.507,2.862 12.380 C 2.860 10.949,2.895 10.614,3.142 9.651 C 4.209 5.488,8.427 2.579,12.783 3.003 C 15.163 3.234,17.511 4.500,19.012 6.360 C 19.863 7.416,20.560 8.870,20.815 10.127 C 21.183 11.931,21.006 13.744,20.295 15.473 C 19.473 17.471,17.932 19.110,15.980 20.060 C 14.460 20.800,13.091 21.074,11.320 20.994 C 10.135 20.940,9.663 20.731,9.502 20.193 C 9.427 19.943,9.403 12.097,9.476 11.669 C 9.646 10.668,10.353 9.882,11.300 9.640 C 12.647 9.295,13.929 10.039,14.265 11.360 C 14.557 12.506,13.939 13.797,12.840 14.335 C 12.326 14.586,11.939 14.679,11.289 14.708 C 10.996 14.721,10.748 14.747,10.737 14.764 C 10.692 14.837,10.520 15.835,10.520 16.024 C 10.520 16.411,10.753 16.625,11.321 16.758 C 12.412 17.014,13.430 16.945,14.417 16.549 C 15.616 16.068,16.618 15.089,17.045 13.982 C 17.667 12.369,17.428 10.472,16.410 8.942 C 15.646 7.794,14.397 6.976,12.913 6.654 C 12.409 6.545,11.441 6.553,10.848 6.672 C 8.640 7.116,7.033 8.722,6.509 11.009 C 6.426 11.372,6.424 11.467,6.410 15.600 C 6.400 18.551,6.409 19.938,6.440 20.212 C 6.606 21.658,7.332 22.745,8.552 23.373 C 10.150 24.196,13.164 24.214,15.620 23.415 C 18.419 22.504,20.796 20.635,22.251 18.200 C 23.837 15.545,24.365 12.447,23.737 9.472 C 23.534 8.513,23.307 7.860,22.844 6.900 C 22.516 6.220,21.959 5.271,21.651 4.865 C 21.118 4.162,20.236 3.253,19.553 2.702 C 18.772 2.071,17.628 1.390,16.640 0.967 C 14.888 0.217,12.732 -0.129,10.900 0.045 " stroke="none" fill="black" fill-rule="evenodd"></path></svg>