<svg role="img" xmlns="http://www.w3.org/2000/svg" viewBox="0 0 24 24"><path d="M10.940 0.046 C 6.260 0.450,2.189 3.634,0.659 8.086 C -0.838 12.440,0.267 17.227,3.520 20.480 C 6.777 23.737,11.546 24.836,15.924 23.337 C 19.350 22.165,22.136 19.391,23.321 15.974 C 25.054 10.977,23.385 5.534,19.148 2.367 C 16.816 0.623,13.875 -0.208,10.940 0.046 M12.080 1.412 C 12.080 1.419,12.041 1.505,11.993 1.602 C 11.929 1.733,11.901 1.877,11.888 2.143 C 11.867 2.602,11.932 2.850,12.366 3.959 C 13.102 5.834,13.103 5.840,13.283 7.660 C 13.393 8.782,13.419 8.890,13.455 8.400 C 13.636 6.006,13.987 4.589,14.620 3.700 C 14.804 3.442,15.000 3.240,15.000 3.308 C 15.000 3.331,14.971 3.429,14.936 3.525 C 14.848 3.767,14.817 4.486,14.878 4.869 C 14.943 5.278,15.162 5.946,15.353 6.320 C 15.437 6.485,15.659 6.917,15.846 7.280 C 16.200 7.967,16.391 8.490,16.501 9.080 C 16.589 9.551,16.622 10.536,16.564 10.971 C 16.464 11.713,16.172 12.456,15.745 13.051 C 15.596 13.259,15.544 13.360,15.585 13.360 C 15.619 13.360,15.937 13.297,16.293 13.221 C 17.265 13.012,19.374 12.600,19.389 12.616 C 19.421 12.648,19.216 13.172,18.998 13.620 C 18.716 14.197,18.392 14.693,17.957 15.213 L 17.635 15.600 12.001 15.600 L 6.367 15.600 6.089 15.250 C 5.458 14.454,5.014 13.717,4.742 13.012 C 4.664 12.809,4.600 12.633,4.600 12.621 C 4.600 12.608,4.641 12.608,4.690 12.619 C 6.263 12.972,8.165 13.369,8.186 13.347 C 8.196 13.338,8.107 13.196,7.990 13.032 C 7.396 12.204,7.120 11.354,7.120 10.352 C 7.120 9.546,7.236 8.991,7.645 7.829 C 8.056 6.661,8.276 5.983,8.343 5.675 C 8.424 5.301,8.427 4.647,8.350 4.370 C 8.318 4.255,8.308 4.160,8.327 4.160 C 8.424 4.160,8.688 4.336,8.819 4.489 C 9.240 4.977,9.637 6.279,9.640 7.180 C 9.642 7.528,9.687 7.570,9.819 7.346 C 10.264 6.586,10.563 5.371,10.639 4.020 C 10.678 3.327,10.730 3.046,10.897 2.631 C 11.108 2.109,11.496 1.621,11.817 1.476 C 11.966 1.408,12.080 1.381,12.080 1.412 M17.640 17.700 L 17.640 18.720 12.000 18.720 L 6.360 18.720 6.360 17.700 L 6.360 16.680 12.000 16.680 L 17.640 16.680 17.640 17.700 M15.389 19.911 C 15.313 20.820,14.582 21.711,13.560 22.142 C 12.997 22.380,12.772 22.420,12.000 22.420 C 11.228 22.420,11.003 22.380,10.440 22.142 C 9.411 21.708,8.693 20.831,8.612 19.910 L 8.588 19.640 12.000 19.640 L 15.412 19.640 15.389 19.911 " stroke="none" fill="black" fill-rule="evenodd"></path></svg>