<svg role="img" viewBox="0 0 24 24" xmlns="http://www.w3.org/2000/svg"><path d="M5.650 1.602 C 5.334 1.658,5.015 1.776,4.672 1.963 C 3.935 2.365,3.934 2.547,4.663 3.380 C 5.022 3.790,8.543 7.706,9.717 9.000 C 11.217 10.655,11.887 11.360,11.958 11.360 C 12.111 11.360,17.759 5.248,19.752 2.926 C 20.084 2.539,20.085 2.560,19.712 2.222 C 19.242 1.797,18.835 1.660,17.840 1.592 C 16.994 1.534,16.594 1.591,16.092 1.839 C 15.454 2.155,14.946 2.627,13.422 4.320 C 12.275 5.594,12.045 5.840,12.000 5.840 C 11.982 5.840,11.906 5.771,11.833 5.686 C 11.261 5.027,9.744 3.392,9.256 2.911 C 8.316 1.982,8.114 1.840,7.491 1.674 C 7.136 1.580,6.021 1.536,5.650 1.602 M1.833 4.220 C 1.275 4.326,0.471 4.695,0.170 4.983 C 0.077 5.073,0.000 5.174,0.000 5.209 C -0.000 5.305,0.296 5.686,1.074 6.590 C 1.818 7.454,2.207 7.892,4.040 9.924 C 4.645 10.595,5.308 11.339,5.513 11.576 C 5.885 12.007,5.886 12.009,5.810 12.094 C 5.769 12.141,5.593 12.342,5.420 12.540 C 5.246 12.738,4.420 13.663,3.584 14.595 C 1.953 16.412,1.207 17.270,0.621 18.000 C 0.136 18.606,0.027 18.775,0.058 18.874 C 0.104 19.017,0.443 19.287,0.774 19.442 C 1.453 19.760,2.207 19.909,2.908 19.864 C 3.993 19.794,4.529 19.482,5.861 18.144 C 7.192 16.806,11.400 12.141,11.400 12.002 C 11.400 11.901,8.664 8.842,6.836 6.901 C 4.927 4.873,4.455 4.491,3.599 4.280 C 3.147 4.168,2.263 4.138,1.833 4.220 M20.660 4.199 C 20.180 4.268,19.765 4.454,19.340 4.792 C 18.977 5.080,17.454 6.606,16.537 7.600 C 14.501 9.808,12.639 11.915,12.641 12.011 C 12.642 12.096,13.564 13.146,15.719 15.520 C 18.790 18.900,19.491 19.530,20.457 19.778 C 20.805 19.868,21.480 19.898,21.891 19.844 C 22.615 19.747,23.402 19.444,23.768 19.122 C 24.066 18.860,24.064 18.835,23.712 18.372 C 23.213 17.715,22.501 16.892,20.638 14.820 C 18.952 12.945,18.155 12.034,18.169 11.996 C 18.186 11.949,19.303 10.683,20.744 9.080 C 23.285 6.251,24.037 5.341,23.981 5.162 C 23.912 4.947,23.374 4.615,22.779 4.421 C 22.151 4.216,21.221 4.118,20.660 4.199 M11.373 13.230 C 9.896 14.794,5.177 20.038,4.242 21.154 C 3.968 21.482,3.968 21.489,4.242 21.737 C 4.825 22.263,5.420 22.441,6.599 22.439 C 7.202 22.438,7.552 22.371,7.935 22.181 C 8.569 21.866,9.110 21.358,10.766 19.520 C 11.351 18.871,11.873 18.300,11.927 18.251 L 12.024 18.161 12.245 18.391 C 12.367 18.517,12.890 19.088,13.408 19.660 C 14.921 21.333,15.527 21.894,16.141 22.187 C 16.596 22.404,16.910 22.452,17.700 22.426 C 18.746 22.392,19.146 22.270,19.688 21.823 C 20.079 21.500,20.080 21.493,19.832 21.192 C 18.580 19.679,12.098 12.640,11.956 12.640 C 11.942 12.640,11.680 12.905,11.373 13.230 " stroke="none" fill="black" fill-rule="evenodd"></path></svg>