<svg role="img" viewBox="0 0 24 24" xmlns="http://www.w3.org/2000/svg"><path d="M0.000 12.000 L 0.000 24.000 12.000 24.000 L 24.000 24.000 24.000 12.000 L 24.000 0.000 12.000 0.000 L 0.000 0.000 0.000 12.000 M17.401 3.116 C 18.326 3.301,19.033 3.647,19.733 4.258 C 19.904 4.407,20.038 4.544,20.032 4.563 C 20.025 4.581,19.717 4.948,19.347 5.378 L 18.674 6.159 18.407 5.944 C 17.621 5.312,16.977 5.065,16.120 5.067 C 15.613 5.068,15.304 5.140,14.840 5.366 C 14.561 5.501,14.435 5.596,14.138 5.896 C 13.836 6.200,13.746 6.323,13.589 6.640 C 13.343 7.139,13.241 7.577,13.240 8.127 C 13.239 10.061,14.614 11.368,16.469 11.197 C 17.155 11.134,17.761 10.863,18.387 10.341 C 18.559 10.197,18.708 10.080,18.720 10.080 C 18.731 10.080,19.045 10.385,19.417 10.757 L 20.093 11.434 20.027 11.535 C 19.990 11.591,19.805 11.773,19.615 11.939 C 18.672 12.763,17.821 13.107,16.489 13.202 C 15.343 13.284,14.252 13.053,13.386 12.545 C 12.202 11.852,11.359 10.654,11.051 9.228 C 10.996 8.976,10.980 8.720,10.981 8.120 C 10.983 7.410,10.992 7.302,11.090 6.913 C 11.637 4.734,13.264 3.305,15.520 3.024 C 15.845 2.984,17.030 3.042,17.401 3.116 M7.300 3.269 C 8.820 3.614,9.775 4.571,10.002 5.975 C 10.073 6.416,10.031 7.299,9.922 7.680 C 9.607 8.772,8.793 9.564,7.600 9.938 C 7.036 10.115,6.607 10.160,5.450 10.160 L 4.400 10.160 4.400 11.640 L 4.400 13.120 3.320 13.120 L 2.240 13.120 2.240 8.137 L 2.240 3.154 4.590 3.171 C 6.779 3.186,6.965 3.192,7.300 3.269 M4.400 6.640 L 4.400 8.160 5.412 8.160 C 6.498 8.160,6.700 8.134,7.071 7.944 C 7.627 7.659,7.930 6.981,7.804 6.303 C 7.692 5.699,7.324 5.334,6.671 5.180 C 6.485 5.136,6.160 5.121,5.410 5.121 L 4.400 5.120 4.400 6.640 M11.280 20.260 L 11.280 21.000 6.780 21.000 L 2.280 21.000 2.280 20.260 L 2.280 19.520 6.780 19.520 L 11.280 19.520 11.280 20.260 " stroke="none" fill="black" fill-rule="evenodd"></path></svg>