<svg role="img" xmlns="http://www.w3.org/2000/svg" viewBox="0 0 24 24"><path d="M6.800 2.999 L 1.620 5.994 1.620 12.000 L 1.620 18.006 3.560 19.127 C 4.627 19.744,5.522 20.257,5.550 20.268 C 5.590 20.284,5.600 19.074,5.600 14.293 L 5.600 8.298 8.801 6.449 L 12.002 4.600 15.201 6.448 L 18.400 8.295 18.400 12.000 L 18.400 15.705 15.202 17.552 L 12.003 19.399 10.583 18.579 C 9.802 18.128,9.135 17.748,9.101 17.735 C 9.046 17.714,9.040 17.952,9.050 20.005 L 9.060 22.300 10.530 23.151 L 12.001 24.002 17.190 21.006 L 22.380 18.009 22.380 12.000 L 22.380 5.991 17.220 3.011 C 14.382 1.372,12.042 0.025,12.020 0.018 C 11.998 0.011,9.649 1.352,6.800 2.999 M10.510 9.451 L 9.041 10.300 9.041 12.000 L 9.041 13.700 10.521 14.554 L 12.001 15.407 13.481 14.555 L 14.960 13.702 14.960 12.000 L 14.960 10.298 13.487 9.449 C 12.677 8.982,12.006 8.600,11.997 8.601 C 11.988 8.602,11.319 8.984,10.510 9.451 " stroke="none" fill="black" fill-rule="evenodd"></path></svg>