<svg xmlns="http://www.w3.org/2000/svg" role="img" viewBox="0 0 24 24"><path d="M3.120 7.796 C 1.173 8.227,-0.092 9.879,0.012 11.857 C 0.063 12.825,0.430 13.684,1.096 14.390 C 1.527 14.847,2.053 15.178,2.660 15.374 C 3.132 15.526,3.442 15.571,4.000 15.569 C 4.402 15.567,4.579 15.546,4.900 15.463 C 5.288 15.363,5.851 15.123,6.080 14.960 C 6.142 14.916,6.217 14.880,6.247 14.880 C 6.277 14.880,6.552 15.132,6.860 15.440 L 7.418 15.999 7.670 15.751 L 7.921 15.502 7.376 14.956 L 6.831 14.410 7.056 14.115 C 7.350 13.731,7.618 13.180,7.749 12.691 C 7.842 12.343,7.854 12.227,7.854 11.640 C 7.854 11.092,7.839 10.928,7.769 10.673 C 7.571 9.951,7.231 9.351,6.742 8.857 C 6.257 8.369,5.615 8.002,4.956 7.838 C 4.463 7.715,3.577 7.695,3.120 7.796 M9.910 8.137 C 9.716 8.206,9.662 8.253,9.584 8.418 C 9.498 8.599,9.504 8.793,9.600 8.950 C 9.904 9.450,10.649 9.257,10.657 8.677 C 10.663 8.282,10.278 8.004,9.910 8.137 M12.653 8.124 C 12.275 8.234,12.123 8.710,12.366 9.019 C 12.786 9.553,13.621 9.042,13.326 8.432 C 13.199 8.170,12.924 8.044,12.653 8.124 M4.760 8.526 C 5.847 8.802,6.692 9.608,7.040 10.700 C 7.177 11.130,7.197 11.903,7.083 12.380 C 6.806 13.542,5.951 14.443,4.818 14.767 C 4.361 14.898,3.519 14.898,3.063 14.767 C 2.121 14.497,1.440 13.919,1.018 13.030 C 0.781 12.530,0.708 12.151,0.731 11.544 C 0.754 10.929,0.815 10.672,1.058 10.180 C 1.278 9.734,1.559 9.390,1.933 9.106 C 2.760 8.478,3.764 8.272,4.760 8.526 M15.200 10.970 C 15.200 12.340,15.218 13.611,15.239 13.796 C 15.303 14.350,15.570 14.820,16.000 15.137 C 16.579 15.563,17.428 15.635,18.055 15.311 L 18.231 15.220 18.083 14.960 C 17.998 14.812,17.909 14.704,17.877 14.708 C 17.846 14.713,17.712 14.755,17.580 14.802 C 16.975 15.020,16.286 14.722,16.005 14.123 L 15.900 13.900 15.900 12.280 L 15.900 10.660 17.090 10.649 L 18.280 10.639 18.280 10.320 L 18.280 10.001 17.090 9.991 L 15.900 9.980 15.889 9.230 L 15.878 8.480 15.539 8.480 L 15.200 8.480 15.200 10.970 M20.927 9.878 C 19.987 10.109,19.206 10.825,18.897 11.740 C 18.751 12.173,18.715 12.899,18.819 13.330 C 19.109 14.531,20.031 15.359,21.261 15.522 C 22.035 15.625,22.727 15.428,23.160 14.980 L 23.300 14.835 23.320 15.127 L 23.340 15.420 23.670 15.432 L 24.000 15.443 24.000 12.722 L 24.000 10.000 23.660 10.000 L 23.320 10.000 23.320 10.244 L 23.320 10.487 23.130 10.330 C 22.841 10.091,22.604 9.968,22.260 9.880 C 21.867 9.780,21.331 9.779,20.927 9.878 M9.770 12.710 L 9.780 15.420 10.110 15.432 L 10.440 15.443 10.440 12.722 L 10.440 10.000 10.100 10.000 L 9.759 10.000 9.770 12.710 M12.490 12.710 L 12.500 15.420 12.830 15.432 L 13.160 15.443 13.160 12.722 L 13.160 10.000 12.820 10.000 L 12.479 10.000 12.490 12.710 M22.198 10.539 C 22.530 10.627,22.875 10.813,23.130 11.041 L 23.360 11.246 23.360 12.680 L 23.360 14.114 23.151 14.297 C 22.738 14.658,22.172 14.879,21.660 14.879 C 20.403 14.878,19.437 13.935,19.430 12.701 C 19.424 11.644,20.038 10.820,21.040 10.538 C 21.289 10.468,21.933 10.468,22.198 10.539 " stroke="none" fill="black" fill-rule="evenodd"></path></svg>