<svg role="img" viewBox="0 0 24 24" xmlns="http://www.w3.org/2000/svg"><path d="M1.670 4.830 L 0.000 6.500 0.000 13.670 L 0.000 20.840 10.330 20.840 L 20.660 20.840 22.330 19.170 L 24.000 17.500 24.000 10.330 L 24.000 3.160 13.670 3.160 L 3.340 3.160 1.670 4.830 M10.047 6.342 C 11.486 6.589,12.302 7.300,12.777 8.725 C 13.067 9.593,13.182 10.625,13.148 12.040 C 13.109 13.635,12.908 14.577,12.440 15.364 C 12.283 15.630,11.808 16.158,11.609 16.289 L 11.518 16.349 12.139 17.354 C 12.480 17.907,12.759 18.373,12.759 18.390 C 12.757 18.422,11.240 19.133,11.218 19.111 C 11.211 19.104,10.908 18.613,10.546 18.019 C 9.965 17.067,9.877 16.941,9.794 16.950 C 9.742 16.955,9.439 16.970,9.120 16.984 C 7.605 17.049,6.409 16.641,5.727 15.826 C 5.469 15.517,5.142 14.819,5.003 14.280 C 4.818 13.563,4.757 13.063,4.732 12.060 C 4.670 9.571,5.137 7.936,6.157 7.070 C 6.637 6.662,7.445 6.362,8.278 6.282 C 8.759 6.236,9.594 6.264,10.047 6.342 M16.920 7.940 L 16.920 9.040 17.960 9.040 L 19.000 9.040 19.000 9.760 L 19.000 10.480 17.960 10.480 L 16.920 10.480 16.921 12.410 C 16.922 14.845,16.953 15.089,17.289 15.253 C 17.414 15.314,17.534 15.325,18.029 15.323 C 18.354 15.321,18.704 15.309,18.806 15.295 L 18.991 15.271 19.018 15.785 C 19.032 16.068,19.047 16.372,19.052 16.460 L 19.060 16.620 18.660 16.691 C 18.066 16.796,17.132 16.823,16.770 16.746 C 15.958 16.573,15.595 16.210,15.392 15.371 C 15.313 15.042,15.306 14.880,15.284 12.740 L 15.260 10.460 14.690 10.449 L 14.120 10.438 14.120 9.739 L 14.120 9.040 14.700 9.040 L 15.280 9.040 15.280 7.940 L 15.280 6.840 16.100 6.840 L 16.920 6.840 16.920 7.940 M8.496 7.760 C 7.469 7.904,6.934 8.424,6.662 9.542 C 6.507 10.180,6.463 10.662,6.464 11.720 C 6.468 13.877,6.810 14.870,7.695 15.283 C 8.098 15.472,8.456 15.530,9.080 15.509 C 9.884 15.480,10.320 15.323,10.692 14.924 C 11.005 14.590,11.174 14.163,11.306 13.378 C 11.414 12.740,11.413 10.566,11.305 9.980 C 11.219 9.509,11.070 9.018,10.931 8.743 C 10.708 8.301,10.234 7.942,9.716 7.823 C 9.383 7.746,8.805 7.716,8.496 7.760 " stroke="none" fill="black" fill-rule="evenodd"></path></svg>