<svg role="img" viewBox="0 0 24 24" xmlns="http://www.w3.org/2000/svg"><path d="M11.414 0.079 C 11.257 0.121,11.050 0.194,10.954 0.242 C 10.681 0.381,2.479 5.118,2.297 5.243 C 1.850 5.548,1.456 6.149,1.340 6.700 C 1.252 7.119,1.252 16.881,1.340 17.300 C 1.456 17.851,1.850 18.452,2.297 18.757 C 2.479 18.882,10.680 23.619,10.953 23.757 C 11.210 23.887,11.696 24.000,12.000 24.000 C 12.313 24.000,12.791 23.886,13.067 23.747 C 13.361 23.598,21.513 18.889,21.702 18.759 C 22.151 18.450,22.544 17.851,22.660 17.300 C 22.748 16.881,22.748 7.119,22.660 6.700 C 22.544 6.150,22.151 5.550,21.703 5.242 C 21.512 5.111,13.368 0.406,13.073 0.256 C 12.584 0.009,11.944 -0.059,11.414 0.079 M15.440 6.008 C 17.277 7.066,18.803 7.954,18.832 7.980 C 18.873 8.017,18.168 8.441,15.452 10.008 L 12.020 11.989 12.000 15.975 L 11.980 19.962 11.140 19.476 C 10.678 19.209,9.904 18.763,9.420 18.484 C 8.936 18.204,7.762 17.527,6.810 16.978 L 5.081 15.980 5.081 12.000 L 5.081 8.020 6.810 7.022 C 7.762 6.473,8.936 5.796,9.420 5.516 C 9.904 5.237,10.678 4.791,11.140 4.524 C 11.630 4.241,12.004 4.048,12.040 4.062 C 12.073 4.074,13.603 4.950,15.440 6.008 " stroke="none" fill="black" fill-rule="evenodd"></path></svg>