<svg role="img" viewBox="0 0 24 24" xmlns="http://www.w3.org/2000/svg"><path d="M11.645 1.001 C 7.861 1.297,4.471 3.541,2.734 6.900 C 2.063 8.197,1.688 9.453,1.535 10.913 C 1.478 11.461,1.468 12.762,1.521 12.815 C 1.533 12.826,1.884 12.711,2.301 12.558 C 2.719 12.405,3.071 12.280,3.085 12.280 C 3.099 12.280,3.132 12.456,3.158 12.670 C 3.184 12.885,3.250 13.281,3.305 13.551 C 3.359 13.820,3.395 14.055,3.385 14.072 C 3.374 14.090,2.609 14.380,1.684 14.719 C 0.007 15.332,0.002 15.334,0.026 15.437 C 0.095 15.738,0.397 16.602,0.586 17.038 C 0.928 17.832,1.629 19.040,1.747 19.040 C 1.775 19.040,2.186 18.899,2.659 18.726 L 3.521 18.411 3.890 18.876 C 7.320 23.189,13.479 24.297,18.177 21.445 C 21.089 19.677,22.962 16.793,23.424 13.360 C 23.488 12.889,23.528 11.234,23.477 11.183 C 23.465 11.172,23.063 11.306,22.582 11.480 C 22.101 11.655,21.693 11.788,21.674 11.776 C 21.655 11.765,21.640 11.686,21.640 11.601 C 21.640 11.336,21.446 10.283,21.301 9.760 C 21.143 9.190,20.999 8.785,20.763 8.242 C 20.673 8.035,20.613 7.853,20.630 7.839 C 20.646 7.825,21.371 7.556,22.240 7.241 C 23.109 6.926,23.862 6.653,23.913 6.634 L 24.007 6.599 23.799 6.210 C 23.646 5.921,23.152 5.118,23.064 5.012 C 23.060 5.007,22.698 5.135,22.260 5.295 L 21.463 5.585 21.197 5.243 C 19.590 3.167,17.281 1.729,14.705 1.201 C 13.779 1.011,12.549 0.931,11.645 1.001 M13.672 4.936 C 15.084 5.196,16.240 5.758,17.294 6.696 L 17.620 6.986 18.409 6.698 L 19.198 6.411 19.392 6.615 C 19.726 6.968,20.370 7.891,20.314 7.937 C 20.306 7.943,19.542 8.225,18.615 8.562 L 16.930 9.175 17.125 9.574 C 17.560 10.463,17.791 11.434,17.829 12.532 C 17.849 13.127,17.859 13.201,17.916 13.179 C 18.202 13.066,19.614 12.561,19.621 12.570 C 19.626 12.575,19.615 12.706,19.596 12.860 C 19.463 13.951,19.054 15.057,18.443 15.970 C 16.663 18.632,13.344 19.790,10.300 18.812 C 9.304 18.492,8.376 17.948,7.638 17.253 L 7.375 17.005 6.483 17.329 C 5.803 17.577,5.576 17.644,5.526 17.613 C 5.434 17.556,4.951 16.955,4.732 16.627 C 4.473 16.239,4.152 15.605,3.988 15.160 C 3.798 14.643,3.651 14.052,3.701 14.005 C 3.722 13.985,4.487 13.698,5.400 13.367 C 6.947 12.806,7.060 12.759,7.056 12.673 C 7.054 12.622,7.032 12.405,7.006 12.192 C 6.981 11.978,6.960 11.595,6.960 11.342 C 6.960 11.088,6.951 10.880,6.941 10.880 C 6.924 10.880,5.606 11.352,5.431 11.420 C 5.370 11.445,5.365 11.424,5.385 11.234 C 5.547 9.695,6.244 8.189,7.309 7.078 C 8.541 5.793,9.849 5.145,11.780 4.864 C 12.036 4.827,13.353 4.877,13.672 4.936 " stroke="none" fill="black" fill-rule="evenodd"></path></svg>