<svg role="img" viewBox="0 0 24 24" xmlns="http://www.w3.org/2000/svg"><path d="M11.746 1.267 C 11.624 1.637,10.990 3.587,10.338 5.600 C 9.686 7.613,9.146 9.267,9.137 9.276 C 9.128 9.285,7.080 9.303,4.586 9.316 L 0.051 9.340 3.633 11.940 C 5.603 13.370,7.255 14.576,7.305 14.620 L 7.395 14.700 5.977 19.039 C 5.197 21.425,4.564 23.389,4.570 23.403 C 4.577 23.421,8.416 20.664,11.925 18.118 L 12.030 18.041 15.705 20.718 C 17.726 22.190,19.384 23.382,19.389 23.367 C 19.395 23.352,18.763 21.396,17.986 19.020 L 16.573 14.700 16.877 14.479 C 17.044 14.357,18.708 13.151,20.574 11.799 L 23.969 9.340 19.424 9.316 C 16.925 9.303,14.872 9.285,14.863 9.276 C 14.854 9.267,14.204 7.316,13.418 4.940 C 12.633 2.564,11.985 0.614,11.979 0.607 C 11.973 0.601,11.868 0.898,11.746 1.267 " stroke="none" fill="black" fill-rule="evenodd"></path></svg>