<svg role="img" viewBox="0 0 24 24" xmlns="http://www.w3.org/2000/svg"><path d="M6.640 4.533 C 6.564 4.557,6.427 4.651,6.337 4.741 C 5.819 5.259,6.179 6.120,6.914 6.120 C 7.174 6.120,7.342 6.050,7.515 5.868 C 7.890 5.474,7.762 4.807,7.267 4.577 C 7.046 4.474,6.865 4.461,6.640 4.533 M2.103 7.382 C 1.002 7.659,0.258 8.569,0.058 9.880 C -0.030 10.457,-0.028 15.871,0.061 16.041 C 0.194 16.299,0.586 16.363,0.809 16.163 L 0.940 16.047 0.963 13.013 C 0.982 10.338,0.993 9.950,1.053 9.727 C 1.315 8.747,2.021 8.218,2.972 8.291 C 3.343 8.319,3.640 8.433,4.048 8.703 C 4.397 8.934,4.521 8.963,4.720 8.860 C 4.887 8.774,4.960 8.647,4.960 8.443 C 4.960 8.277,4.943 8.247,4.730 8.041 C 4.473 7.793,4.081 7.573,3.660 7.439 C 3.292 7.323,2.458 7.292,2.103 7.382 M12.043 7.363 C 11.305 7.508,10.549 7.988,10.105 8.593 C 9.904 8.867,9.689 9.316,9.590 9.670 C 9.505 9.973,9.503 10.046,9.489 12.929 C 9.477 15.632,9.481 15.891,9.543 16.021 C 9.694 16.340,10.191 16.376,10.389 16.084 C 10.455 15.988,10.461 15.760,10.480 12.960 C 10.502 9.670,10.486 9.902,10.732 9.415 C 11.256 8.381,12.674 7.977,13.713 8.566 C 14.012 8.736,14.389 9.122,14.549 9.424 C 14.804 9.905,14.800 9.844,14.800 13.010 C 14.800 16.158,14.795 16.093,15.035 16.217 C 15.272 16.340,15.590 16.270,15.722 16.065 C 15.767 15.994,15.775 15.483,15.766 13.040 C 15.760 11.247,15.740 10.006,15.714 9.860 C 15.506 8.653,14.504 7.637,13.272 7.383 C 12.944 7.316,12.336 7.306,12.043 7.363 M20.180 7.384 C 19.062 7.632,18.221 8.420,17.836 9.580 C 17.746 9.852,17.743 9.907,17.729 11.574 C 17.717 13.047,17.724 13.335,17.780 13.614 C 18.025 14.821,18.907 15.738,20.120 16.045 C 20.603 16.167,21.358 16.140,21.820 15.983 C 22.201 15.854,22.498 15.695,22.810 15.453 L 23.040 15.275 23.039 15.907 C 23.038 16.661,22.982 16.970,22.774 17.365 C 22.496 17.896,22.062 18.258,21.480 18.446 C 21.284 18.510,21.122 18.530,20.820 18.528 C 20.170 18.525,19.624 18.346,19.240 18.011 C 18.731 17.568,18.524 17.508,18.296 17.736 C 18.182 17.850,18.160 17.900,18.161 18.046 C 18.163 18.256,18.211 18.348,18.442 18.587 C 18.901 19.060,19.644 19.386,20.491 19.485 C 22.034 19.664,23.454 18.715,23.890 17.212 L 23.980 16.900 23.980 13.420 C 23.980 9.494,23.999 9.758,23.660 9.060 C 23.279 8.276,22.621 7.721,21.740 7.440 C 21.367 7.322,20.587 7.293,20.180 7.384 M6.653 7.558 C 6.582 7.601,6.506 7.671,6.483 7.715 C 6.453 7.770,6.440 9.076,6.440 11.901 L 6.440 16.008 6.576 16.144 C 6.687 16.255,6.743 16.280,6.878 16.280 C 6.969 16.280,7.097 16.253,7.161 16.219 C 7.413 16.089,7.400 16.320,7.400 11.880 C 7.400 7.440,7.413 7.671,7.161 7.541 C 7.001 7.458,6.806 7.465,6.653 7.558 M21.325 8.338 C 22.045 8.490,22.675 9.062,22.928 9.792 C 23.018 10.055,23.020 10.090,23.020 11.700 C 23.020 13.282,23.017 13.350,22.931 13.622 C 22.703 14.348,22.085 14.927,21.356 15.099 C 20.187 15.374,19.034 14.665,18.738 13.490 C 18.685 13.277,18.677 12.990,18.688 11.610 L 18.701 9.980 18.804 9.714 C 19.202 8.685,20.254 8.111,21.325 8.338 " stroke="none" fill="black" fill-rule="evenodd"></path></svg>