<svg role="img" viewBox="0 0 24 24" xmlns="http://www.w3.org/2000/svg"><path d="M9.700 2.605 C 8.446 3.485,7.415 4.219,7.409 4.236 C 7.403 4.253,7.776 5.389,8.237 6.762 C 8.699 8.134,9.072 9.262,9.065 9.268 C 9.059 9.274,8.056 8.579,6.837 7.724 C 5.618 6.869,4.602 6.183,4.580 6.199 C 4.558 6.216,3.517 6.944,2.267 7.819 C 0.470 9.075,0.000 9.422,0.021 9.474 C 0.036 9.510,0.354 10.449,0.728 11.560 C 1.103 12.671,1.490 13.819,1.588 14.110 L 1.767 14.640 4.530 14.640 L 7.292 14.640 5.116 16.162 C 3.919 16.999,2.915 17.709,2.884 17.739 C 2.837 17.786,2.957 18.176,3.704 20.397 L 4.580 23.000 7.438 22.990 L 10.295 22.980 11.134 20.490 C 11.596 19.121,11.985 18.000,12.000 18.000 C 12.014 18.000,12.404 19.121,12.865 20.490 L 13.703 22.980 16.562 22.990 L 19.420 23.000 20.294 20.403 C 20.775 18.974,21.156 17.786,21.142 17.763 C 21.128 17.740,20.132 17.032,18.929 16.191 L 16.742 14.660 19.486 14.650 L 22.231 14.639 22.735 13.150 C 23.850 9.861,23.993 9.420,23.957 9.382 C 23.937 9.361,22.899 8.629,21.651 7.756 L 19.383 6.168 19.141 6.340 C 18.069 7.102,14.943 9.276,14.934 9.267 C 14.927 9.261,15.300 8.133,15.762 6.761 C 16.224 5.389,16.597 4.253,16.591 4.236 C 16.581 4.207,12.012 0.997,11.990 1.003 C 11.985 1.004,10.954 1.725,9.700 2.605 M14.800 9.490 C 14.800 9.496,15.178 10.622,15.640 11.993 C 16.102 13.364,16.480 14.510,16.480 14.540 C 16.480 14.604,12.088 17.697,12.000 17.696 C 11.909 17.694,7.520 14.603,7.520 14.540 C 7.520 14.510,7.898 13.364,8.360 11.993 C 8.822 10.622,9.200 9.496,9.200 9.490 C 9.200 9.485,10.460 9.480,12.000 9.480 C 13.540 9.480,14.800 9.485,14.800 9.490 " stroke="none" fill="black" fill-rule="evenodd"></path></svg>