<svg role="img" viewBox="0 0 24 24" xmlns="http://www.w3.org/2000/svg"><path d="M10.940 0.046 C 6.260 0.450,2.189 3.634,0.659 8.086 C -1.484 14.319,1.792 21.115,7.997 23.309 C 12.365 24.853,17.202 23.757,20.480 20.480 C 24.710 16.252,25.180 9.563,21.584 4.785 C 19.296 1.746,15.709 -0.028,11.920 0.006 C 11.601 0.009,11.160 0.027,10.940 0.046 M16.596 3.016 C 17.681 3.217,18.434 3.580,18.971 4.159 C 19.237 4.446,19.488 4.889,19.490 5.074 C 19.491 5.132,19.506 5.322,19.525 5.495 C 19.714 7.248,18.328 9.350,16.318 10.361 C 14.985 11.031,12.936 11.357,11.660 11.102 C 10.973 10.964,10.219 10.464,9.982 9.990 C 9.866 9.756,9.854 9.632,9.939 9.560 C 9.989 9.519,10.037 9.546,10.223 9.716 C 10.347 9.829,10.524 9.966,10.618 10.021 C 11.059 10.280,11.819 10.430,12.440 10.383 C 14.602 10.216,16.637 9.136,17.679 7.601 C 18.344 6.622,18.428 5.609,17.892 5.036 C 17.409 4.519,16.260 4.249,14.993 4.355 C 13.280 4.498,11.474 5.151,9.522 6.334 C 7.284 7.690,6.160 9.062,6.160 10.438 C 6.160 11.463,6.639 12.120,8.363 13.460 C 8.996 13.952,9.694 14.540,9.892 14.750 L 10.004 14.868 10.263 14.796 C 10.935 14.610,12.397 14.588,13.020 14.755 C 13.684 14.933,14.311 15.317,14.684 15.775 C 15.235 16.450,15.394 17.307,15.086 17.934 C 14.880 18.352,14.329 18.800,14.020 18.800 C 13.863 18.800,13.891 18.659,14.072 18.545 C 14.319 18.389,14.625 18.024,14.702 17.795 C 14.896 17.209,14.552 16.455,13.889 16.014 C 13.588 15.814,13.059 15.618,12.594 15.534 C 12.136 15.451,11.135 15.449,10.780 15.530 C 10.504 15.593,10.511 15.569,10.637 16.060 C 10.901 17.082,10.687 18.358,10.102 19.260 C 9.862 19.630,9.193 20.267,8.808 20.493 C 8.004 20.965,7.119 21.138,6.306 20.982 C 5.930 20.911,5.819 20.853,5.605 20.621 C 5.277 20.265,5.137 19.813,5.170 19.220 C 5.194 18.798,5.355 18.312,5.587 17.960 C 6.050 17.258,7.252 16.322,8.615 15.599 C 9.012 15.389,9.075 15.342,9.034 15.292 C 8.980 15.228,8.255 14.699,7.620 14.261 C 5.698 12.935,4.782 11.951,4.456 10.860 C 4.211 10.042,4.606 8.868,5.511 7.727 C 5.850 7.299,6.731 6.448,7.220 6.076 C 8.565 5.053,10.184 4.192,11.993 3.536 C 12.825 3.234,13.579 3.063,14.600 2.944 C 14.914 2.907,16.274 2.956,16.596 3.016 M9.260 16.191 C 7.884 16.958,7.051 17.756,6.711 18.631 C 6.567 19.002,6.544 19.387,6.654 19.593 C 6.888 20.031,7.821 19.861,8.588 19.240 C 9.085 18.838,9.522 18.138,9.656 17.532 C 9.755 17.084,9.724 16.146,9.606 16.036 C 9.592 16.023,9.436 16.092,9.260 16.191 " stroke="none" fill="black" fill-rule="evenodd"></path></svg>