<svg role="img" viewBox="0 0 24 24" xmlns="http://www.w3.org/2000/svg"><path d="M10.940 0.046 C 9.378 0.181,7.657 0.700,6.300 1.445 C 3.340 3.071,1.206 5.802,0.380 9.020 C -0.876 13.918,1.067 19.056,5.258 21.915 C 5.685 22.207,5.740 22.234,5.776 22.171 C 5.798 22.132,6.603 20.615,7.566 18.800 L 9.316 15.500 6.122 15.490 L 2.929 15.480 2.830 15.210 C 2.700 14.858,2.500 14.074,2.423 13.620 C 1.964 10.894,2.700 8.087,4.444 5.920 C 4.839 5.429,5.678 4.617,6.161 4.258 C 7.820 3.026,9.598 2.391,11.658 2.294 C 12.123 2.272,13.309 2.335,13.358 2.385 C 13.368 2.395,13.134 2.645,12.839 2.941 L 12.301 3.480 11.920 3.480 C 10.719 3.480,9.373 3.803,8.243 4.363 C 5.623 5.662,3.875 8.144,3.537 11.046 C 3.427 11.988,3.507 13.218,3.734 14.100 L 3.785 14.300 7.513 14.310 C 9.563 14.316,11.240 14.326,11.240 14.333 C 11.240 14.339,10.572 15.604,9.756 17.142 C 8.940 18.681,8.245 19.994,8.211 20.060 C 8.177 20.126,9.343 18.974,10.802 17.500 C 12.262 16.026,13.951 14.320,14.557 13.710 L 15.658 12.600 10.539 12.600 L 5.420 12.600 11.178 6.842 C 14.345 3.675,16.928 1.075,16.917 1.064 C 16.863 1.010,16.176 0.743,15.688 0.585 C 14.162 0.094,12.528 -0.092,10.940 0.046 M16.470 5.132 L 14.684 8.500 17.879 8.510 L 21.074 8.520 21.216 8.950 C 21.973 11.235,21.857 13.671,20.885 15.914 C 20.424 16.976,19.719 18.002,18.861 18.861 C 16.878 20.843,14.118 21.883,11.356 21.688 C 10.980 21.661,10.653 21.628,10.631 21.615 C 10.609 21.601,10.829 21.352,11.119 21.061 L 11.647 20.532 12.273 20.507 C 13.005 20.478,13.522 20.405,14.140 20.243 C 17.125 19.463,19.466 17.122,20.242 14.142 C 20.450 13.344,20.495 12.976,20.496 12.040 C 20.498 11.160,20.450 10.696,20.288 10.000 L 20.218 9.700 16.489 9.690 C 14.438 9.684,12.760 9.674,12.760 9.667 C 12.760 9.661,13.428 8.396,14.244 6.858 C 15.060 5.319,15.755 4.007,15.789 3.941 C 15.823 3.876,14.139 5.523,12.046 7.601 C 9.953 9.680,8.240 11.393,8.240 11.410 C 8.240 11.426,10.536 11.444,13.343 11.450 L 18.446 11.460 12.773 17.176 C 9.653 20.319,7.095 22.905,7.088 22.922 C 7.071 22.964,8.000 23.324,8.562 23.494 C 10.265 24.009,12.208 24.132,13.960 23.837 C 20.479 22.739,24.899 16.584,23.839 10.080 C 23.308 6.830,21.454 3.921,18.740 2.084 C 18.520 1.935,18.321 1.802,18.298 1.789 C 18.272 1.775,17.529 3.134,16.470 5.132 " stroke="none" fill="black" fill-rule="evenodd"></path></svg>