<svg role="img" viewBox="0 0 24 24" xmlns="http://www.w3.org/2000/svg"><path d="M15.044 5.563 C 13.342 5.755,11.708 6.518,10.307 7.774 C 9.078 8.876,8.351 10.324,8.055 12.260 C 7.952 12.935,7.950 14.583,8.053 15.240 C 8.205 16.222,8.444 16.982,8.735 17.411 C 8.930 17.700,9.183 17.857,9.740 18.036 C 10.632 18.324,11.561 18.451,12.780 18.454 C 14.018 18.457,14.937 18.324,15.923 18.001 C 16.956 17.662,17.755 17.169,18.510 16.409 L 19.000 15.915 19.000 16.087 C 19.000 16.280,19.107 16.489,19.244 16.562 C 19.528 16.714,20.012 16.497,20.570 15.966 L 20.720 15.824 20.721 16.162 C 20.721 16.348,20.737 16.525,20.756 16.555 C 20.786 16.602,20.844 16.599,21.126 16.535 L 21.460 16.460 21.470 16.260 C 21.490 15.874,21.565 15.386,21.623 15.274 C 21.655 15.213,21.845 14.990,22.045 14.781 C 22.347 14.466,22.430 14.400,22.529 14.400 C 22.643 14.400,22.648 14.407,22.624 14.531 C 22.611 14.604,22.545 14.805,22.478 14.979 C 22.211 15.671,22.145 16.072,22.255 16.333 C 22.436 16.767,23.028 16.673,23.690 16.104 L 24.000 15.838 24.000 15.636 L 24.000 15.434 23.795 15.658 C 23.556 15.920,23.278 16.098,23.165 16.062 C 23.011 16.013,23.029 15.865,23.279 15.126 C 23.654 14.017,23.614 13.800,23.034 13.800 C 22.774 13.800,22.617 13.898,22.156 14.348 C 21.658 14.833,21.670 14.842,21.900 14.140 C 21.973 13.920,22.027 13.735,22.022 13.730 C 22.017 13.724,21.844 13.754,21.638 13.796 C 21.397 13.846,21.246 13.898,21.213 13.942 C 21.087 14.115,20.760 15.126,20.760 15.344 C 20.760 15.466,20.286 15.886,20.201 15.840 C 20.039 15.754,19.840 15.511,19.840 15.401 C 19.840 15.313,20.196 14.252,20.381 13.790 C 20.396 13.752,20.393 13.720,20.374 13.720 C 20.355 13.720,20.233 13.932,20.102 14.190 C 19.864 14.661,19.353 15.458,19.123 15.720 L 18.999 15.860 19.023 15.740 C 19.036 15.674,19.135 15.441,19.242 15.221 C 19.349 15.002,19.433 14.821,19.428 14.818 C 19.424 14.816,19.312 14.847,19.180 14.888 C 18.960 14.957,18.927 14.983,18.780 15.205 C 18.578 15.510,17.741 16.323,17.467 16.480 C 17.317 16.567,17.207 16.599,17.068 16.600 C 16.768 16.600,16.676 16.475,16.572 15.929 L 16.540 15.758 16.299 16.049 C 15.893 16.539,15.463 16.717,15.117 16.539 C 14.966 16.460,14.769 16.190,14.736 16.015 C 14.723 15.941,14.704 15.880,14.695 15.880 C 14.686 15.880,14.542 15.989,14.375 16.122 C 13.870 16.523,13.732 16.579,13.254 16.580 C 12.865 16.580,12.839 16.575,12.674 16.459 C 12.481 16.323,12.325 16.116,12.292 15.950 C 12.280 15.889,12.262 15.840,12.251 15.840 C 12.241 15.840,12.090 15.954,11.916 16.094 C 11.485 16.439,11.209 16.573,10.892 16.593 C 10.582 16.613,10.439 16.559,10.263 16.353 C 10.067 16.124,10.025 15.922,10.051 15.348 C 10.085 14.613,10.363 13.638,10.841 12.583 L 11.041 12.140 11.458 11.987 C 11.919 11.817,12.033 11.812,12.111 11.960 C 12.193 12.114,12.150 12.871,12.040 13.200 C 11.877 13.691,11.521 14.275,11.084 14.772 L 10.880 15.005 10.880 15.360 C 10.880 15.555,10.897 15.760,10.918 15.816 C 11.069 16.213,11.456 16.164,11.970 15.683 C 12.202 15.466,12.227 15.427,12.274 15.196 C 12.344 14.858,12.512 14.539,12.766 14.261 C 13.025 13.978,13.205 13.861,13.518 13.774 C 14.318 13.552,14.796 14.271,14.217 14.828 C 14.040 14.999,13.526 15.271,13.206 15.364 C 13.043 15.412,13.034 15.422,13.057 15.533 C 13.139 15.943,13.505 16.148,13.934 16.023 C 14.235 15.936,14.698 15.512,14.734 15.291 C 14.803 14.872,15.199 14.313,15.629 14.028 C 16.202 13.649,16.719 13.621,16.911 13.958 C 16.949 14.025,16.994 14.080,17.011 14.080 C 17.029 14.080,17.186 13.999,17.360 13.900 C 17.670 13.724,17.840 13.676,17.840 13.764 C 17.840 13.788,17.760 14.072,17.663 14.394 C 17.565 14.716,17.457 15.091,17.423 15.226 C 17.284 15.768,17.371 16.048,17.647 15.952 C 17.799 15.898,18.181 15.545,18.446 15.212 L 18.652 14.953 18.548 14.866 C 18.337 14.693,18.326 14.444,18.514 14.097 C 18.690 13.773,18.983 13.637,19.191 13.782 C 19.298 13.857,19.308 14.045,19.219 14.337 C 19.187 14.445,19.168 14.541,19.177 14.550 C 19.187 14.560,19.250 14.555,19.317 14.541 C 19.473 14.506,19.851 14.164,19.985 13.935 C 20.058 13.811,20.124 13.751,20.214 13.728 C 20.323 13.699,20.355 13.658,20.453 13.418 C 20.628 12.988,20.823 12.231,20.901 11.684 C 20.956 11.297,20.966 11.049,20.947 10.544 C 20.913 9.642,20.765 9.015,20.418 8.312 C 19.714 6.880,18.390 5.901,16.780 5.621 C 16.325 5.542,15.481 5.514,15.044 5.563 M2.428 10.861 C 0.537 11.219,-0.410 12.980,0.185 15.032 C 0.319 15.494,0.513 15.902,0.817 16.357 C 1.534 17.433,2.351 17.985,3.604 18.241 C 4.914 18.508,6.668 18.259,7.055 17.751 C 7.318 17.405,7.495 16.514,7.493 15.540 C 7.491 14.266,7.204 13.299,6.602 12.543 C 6.125 11.943,5.213 11.321,4.406 11.044 C 3.775 10.828,2.985 10.755,2.428 10.861 M15.560 11.260 C 15.560 11.333,15.539 11.360,15.480 11.360 C 15.421 11.360,15.400 11.333,15.400 11.260 C 15.400 11.187,15.421 11.160,15.480 11.160 C 15.539 11.160,15.560 11.187,15.560 11.260 M16.000 11.589 L 16.000 12.017 16.231 11.789 C 16.385 11.636,16.495 11.560,16.560 11.560 C 16.650 11.560,16.644 11.573,16.470 11.750 L 16.283 11.940 16.482 12.251 C 16.701 12.595,16.715 12.640,16.604 12.640 C 16.552 12.640,16.471 12.549,16.354 12.360 C 16.259 12.206,16.171 12.080,16.157 12.080 C 16.083 12.080,16.004 12.245,15.993 12.420 C 15.983 12.572,15.963 12.622,15.910 12.633 C 15.845 12.645,15.840 12.589,15.840 11.903 C 15.840 11.187,15.843 11.160,15.920 11.160 C 15.995 11.160,16.000 11.187,16.000 11.589 M17.000 11.260 C 17.000 11.333,16.979 11.360,16.920 11.360 C 16.861 11.360,16.840 11.333,16.840 11.260 C 16.840 11.187,16.861 11.160,16.920 11.160 C 16.979 11.160,17.000 11.187,17.000 11.260 M17.480 11.417 C 17.480 11.529,17.497 11.557,17.570 11.567 C 17.620 11.574,17.660 11.607,17.660 11.640 C 17.660 11.673,17.620 11.706,17.570 11.713 C 17.492 11.724,17.480 11.750,17.478 11.913 L 17.476 12.100 17.403 11.920 C 17.363 11.821,17.301 11.734,17.265 11.727 C 17.183 11.711,17.179 11.560,17.260 11.560 C 17.302 11.560,17.320 11.518,17.320 11.420 C 17.320 11.307,17.335 11.280,17.400 11.280 C 17.464 11.280,17.480 11.307,17.480 11.417 M14.026 11.619 C 14.138 11.697,14.173 11.837,14.090 11.869 C 14.049 11.885,14.004 11.862,13.968 11.807 C 13.893 11.694,13.756 11.696,13.647 11.812 C 13.580 11.884,13.571 11.915,13.608 11.952 C 13.635 11.979,13.683 12.000,13.715 12.000 C 13.817 12.000,14.119 12.164,14.161 12.241 C 14.208 12.329,14.059 12.528,13.875 12.623 C 13.662 12.733,13.360 12.592,13.360 12.383 C 13.360 12.347,13.394 12.320,13.440 12.320 C 13.484 12.320,13.520 12.338,13.520 12.359 C 13.520 12.408,13.715 12.539,13.744 12.510 C 13.756 12.498,13.753 12.422,13.738 12.341 C 13.719 12.242,13.679 12.180,13.618 12.152 C 13.531 12.112,13.480 12.024,13.421 11.812 C 13.380 11.669,13.523 11.560,13.751 11.560 C 13.856 11.560,13.980 11.586,14.026 11.619 M14.927 11.739 L 15.034 11.916 14.847 11.943 C 14.594 11.980,14.520 12.025,14.520 12.141 C 14.520 12.252,14.437 12.273,14.361 12.182 C 14.269 12.071,14.353 11.889,14.573 11.720 C 14.687 11.633,14.789 11.562,14.800 11.562 C 14.811 11.562,14.868 11.642,14.927 11.739 M15.560 12.100 C 15.560 12.613,15.556 12.640,15.480 12.640 C 15.404 12.640,15.400 12.613,15.400 12.100 C 15.400 11.587,15.404 11.560,15.480 11.560 C 15.556 11.560,15.560 11.587,15.560 12.100 M17.000 12.103 C 17.000 12.598,16.994 12.645,16.930 12.632 C 16.868 12.621,16.859 12.557,16.849 12.090 C 16.838 11.580,16.841 11.560,16.919 11.560 C 16.996 11.560,17.000 11.584,17.000 12.103 M11.626 12.396 C 11.568 12.504,11.473 12.715,11.416 12.866 C 11.314 13.135,11.000 14.320,11.000 14.435 C 11.000 14.516,11.335 14.078,11.504 13.775 C 11.805 13.237,11.981 12.559,11.885 12.310 C 11.822 12.149,11.747 12.175,11.626 12.396 M13.364 14.117 C 13.186 14.282,13.034 14.639,13.009 14.946 L 12.989 15.204 13.164 15.135 C 13.582 14.970,13.787 14.745,13.827 14.407 C 13.872 14.021,13.629 13.869,13.364 14.117 M16.211 14.079 C 15.842 14.304,15.431 15.348,15.559 15.737 C 15.597 15.851,15.631 15.882,15.740 15.903 C 16.136 15.977,16.509 15.557,16.698 14.822 C 16.807 14.401,16.774 14.150,16.597 14.058 C 16.447 13.981,16.365 13.985,16.211 14.079 " stroke="none" fill="black" fill-rule="evenodd"></path></svg>