<svg role="img" viewBox="0 0 24 24" xmlns="http://www.w3.org/2000/svg"><path d="M13.600 0.024 C 13.014 0.097,12.359 0.286,11.818 0.538 C 11.483 0.695,11.424 0.709,11.014 0.732 C 9.907 0.795,9.066 1.020,8.117 1.506 C 6.353 2.409,5.080 4.075,4.517 6.217 C 4.177 7.512,3.989 9.644,4.118 10.755 C 4.150 11.030,4.144 11.068,4.042 11.295 C 3.883 11.652,3.725 12.145,3.636 12.569 C 3.532 13.061,3.465 14.812,3.462 17.100 C 3.460 19.050,3.479 19.234,3.765 20.100 C 4.414 22.061,6.018 23.477,8.080 23.907 C 8.593 24.015,9.645 24.005,10.188 23.888 C 10.963 23.720,11.543 23.475,12.189 23.043 L 12.553 22.799 12.987 22.757 C 14.688 22.592,16.256 21.940,17.560 20.858 C 17.964 20.523,18.649 19.810,18.931 19.432 C 19.672 18.440,20.162 17.349,20.421 16.114 C 20.502 15.729,20.530 15.457,20.548 14.880 C 20.591 13.478,20.370 12.372,19.814 11.200 L 19.596 10.740 19.637 10.080 C 19.723 8.718,19.772 7.342,19.776 6.160 C 19.779 5.109,19.770 4.893,19.706 4.600 C 19.447 3.418,18.859 2.364,18.005 1.551 C 16.975 0.571,15.742 0.057,14.340 0.022 C 14.010 0.014,13.677 0.015,13.600 0.024 M15.020 2.800 C 16.037 3.119,16.818 3.928,17.107 4.960 C 17.200 5.290,17.198 6.394,17.103 8.660 C 17.029 10.404,17.000 10.725,16.880 11.080 L 16.797 11.326 16.997 11.597 C 18.016 12.971,18.246 14.935,17.581 16.588 C 17.010 18.005,15.769 19.228,14.341 19.780 C 13.567 20.080,12.667 20.227,11.926 20.177 L 11.540 20.150 11.180 20.509 C 10.877 20.811,10.759 20.898,10.440 21.054 C 9.915 21.311,9.638 21.376,9.080 21.376 C 8.539 21.375,8.249 21.309,7.780 21.078 C 6.978 20.685,6.393 19.958,6.155 19.060 C 6.077 18.765,6.069 18.630,6.065 17.360 C 6.059 15.757,6.107 13.803,6.163 13.334 C 6.229 12.785,6.463 12.210,6.783 11.815 C 6.904 11.666,6.913 11.637,6.878 11.515 C 6.743 11.046,6.702 10.638,6.703 9.760 C 6.704 8.812,6.782 8.051,6.966 7.204 C 7.420 5.107,8.758 3.744,10.640 3.458 C 11.045 3.397,11.607 3.387,11.947 3.435 C 12.141 3.463,12.164 3.457,12.327 3.332 C 12.708 3.039,13.112 2.847,13.580 2.737 C 13.931 2.655,14.660 2.687,15.020 2.800 M13.940 5.057 C 13.791 5.123,13.619 5.304,13.563 5.453 C 13.539 5.515,13.520 5.850,13.520 6.203 C 13.520 6.553,13.509 6.840,13.496 6.840 C 13.484 6.840,13.353 6.731,13.206 6.598 C 12.442 5.902,11.784 5.649,11.009 5.752 C 10.325 5.844,9.831 6.207,9.530 6.842 C 9.266 7.397,9.137 8.008,9.036 9.189 C 8.874 11.068,9.564 12.310,10.941 12.619 C 11.094 12.654,11.490 12.735,11.820 12.799 C 13.360 13.100,14.043 13.515,14.228 14.262 C 14.349 14.752,14.174 15.264,13.737 15.703 C 13.461 15.980,13.051 16.207,12.691 16.282 C 12.396 16.343,11.761 16.310,11.509 16.220 C 11.252 16.128,10.795 15.825,10.496 15.549 C 10.069 15.153,9.894 14.715,9.844 13.911 C 9.816 13.471,9.798 13.383,9.716 13.263 C 9.512 12.965,9.075 12.864,8.797 13.051 C 8.550 13.217,8.490 13.354,8.465 13.810 C 8.416 14.671,8.380 16.222,8.384 17.265 C 8.388 18.303,8.392 18.358,8.478 18.536 C 8.723 19.041,9.436 19.044,9.680 18.541 C 9.763 18.369,9.765 18.330,9.738 17.640 C 9.722 17.244,9.719 16.920,9.732 16.920 C 9.745 16.920,9.863 16.983,9.995 17.060 C 10.653 17.446,11.577 17.720,12.214 17.720 C 13.613 17.718,14.919 16.854,15.430 15.591 C 15.766 14.762,15.673 13.774,15.192 13.055 C 14.647 12.241,13.611 11.710,12.000 11.419 C 11.184 11.272,10.988 11.212,10.802 11.052 C 10.600 10.880,10.492 10.674,10.418 10.326 C 10.341 9.962,10.346 9.610,10.441 8.838 C 10.610 7.453,10.781 7.120,11.318 7.120 C 11.649 7.120,11.908 7.264,12.326 7.680 C 12.962 8.314,13.215 8.859,13.322 9.821 C 13.372 10.268,13.463 10.478,13.658 10.599 C 14.054 10.841,14.566 10.645,14.675 10.208 C 14.695 10.127,14.724 9.727,14.737 9.320 C 14.751 8.913,14.790 7.910,14.822 7.091 C 14.876 5.744,14.876 5.588,14.820 5.453 C 14.736 5.252,14.651 5.163,14.460 5.075 C 14.271 4.989,14.106 4.983,13.940 5.057 " stroke="none" fill="black" fill-rule="evenodd"></path></svg>