<svg role="img" viewBox="0 0 24 24" xmlns="http://www.w3.org/2000/svg"><path d="M9.400 0.043 C 7.036 0.129,4.639 0.324,2.280 0.623 C 1.675 0.700,1.095 0.774,0.990 0.787 C 0.886 0.800,0.800 0.815,0.800 0.820 C 0.800 0.825,0.764 1.097,0.719 1.425 C 0.226 5.053,0.022 8.120,0.022 11.900 C 0.022 14.719,0.092 16.326,0.323 18.840 C 0.446 20.183,0.770 22.908,0.810 22.942 C 0.824 22.954,2.990 23.259,4.040 23.397 C 9.262 24.084,12.829 24.165,17.400 23.699 C 19.265 23.508,23.113 23.019,23.165 22.966 C 23.198 22.932,23.451 20.969,23.577 19.760 C 24.194 13.874,24.131 8.286,23.379 2.340 C 23.164 0.638,23.209 0.827,23.005 0.792 C 22.209 0.656,19.239 0.335,17.740 0.222 C 15.031 0.018,11.941 -0.048,9.400 0.043 M13.524 4.981 C 14.749 5.119,16.291 5.523,17.047 5.904 L 17.235 5.999 17.080 6.469 C 16.994 6.728,16.779 7.393,16.602 7.947 L 16.279 8.954 15.829 8.742 C 14.696 8.208,13.462 7.899,12.280 7.853 C 10.857 7.798,10.122 8.169,10.122 8.940 C 10.122 9.400,10.328 9.652,10.872 9.855 C 11.020 9.910,11.851 10.163,12.720 10.417 C 15.096 11.113,15.583 11.319,16.390 11.972 C 17.357 12.754,17.775 14.049,17.497 15.406 C 17.149 17.108,15.782 18.387,13.766 18.898 C 13.047 19.081,12.603 19.133,11.800 19.130 C 10.713 19.126,9.848 19.016,8.740 18.743 C 7.805 18.512,6.480 18.021,6.480 17.904 C 6.479 17.801,7.260 14.840,7.288 14.840 C 7.305 14.840,7.440 14.915,7.589 15.007 C 9.377 16.107,11.977 16.523,13.267 15.915 C 14.008 15.566,14.189 14.643,13.611 14.162 C 13.336 13.933,12.988 13.807,11.517 13.400 C 10.716 13.179,9.862 12.933,9.620 12.854 C 8.145 12.371,7.210 11.613,6.789 10.558 C 6.602 10.090,6.547 9.699,6.571 9.003 C 6.594 8.345,6.652 8.057,6.865 7.545 C 7.104 6.975,7.698 6.271,8.260 5.892 C 9.500 5.058,11.356 4.736,13.524 4.981 " stroke="none" fill="black" fill-rule="evenodd"></path></svg>