<svg role="img" viewBox="0 0 24 24" xmlns="http://www.w3.org/2000/svg"><path d="M0.000 12.000 L 0.000 21.000 12.000 21.000 L 24.000 21.000 24.000 12.000 L 24.000 3.000 12.000 3.000 L 0.000 3.000 0.000 12.000 M13.278 4.418 C 13.372 4.530,13.285 4.621,12.934 4.779 C 11.581 5.389,10.496 6.518,9.602 8.248 C 9.451 8.541,9.053 9.392,8.719 10.140 C 7.609 12.621,7.065 13.723,6.496 14.644 C 5.274 16.619,4.115 17.329,1.950 17.427 L 1.400 17.452 1.400 10.906 L 1.400 4.360 7.315 4.360 C 12.437 4.360,13.237 4.368,13.278 4.418 M22.640 13.100 L 22.640 19.640 16.705 19.640 C 11.565 19.640,10.763 19.632,10.722 19.582 C 10.627 19.468,10.716 19.380,11.110 19.200 C 12.220 18.693,13.233 17.735,14.014 16.454 C 14.326 15.941,14.632 15.315,15.320 13.780 C 16.442 11.279,16.964 10.224,17.536 9.308 C 18.588 7.619,19.677 6.837,21.251 6.642 C 21.757 6.579,21.832 6.573,22.250 6.566 L 22.640 6.560 22.640 13.100 " stroke="none" fill="black" fill-rule="evenodd"></path></svg>