<svg xmlns="http://www.w3.org/2000/svg" role="img" viewBox="0 0 24 24"><path d="M5.988 5.992 L -0.004 11.985 5.998 17.982 L 12.000 23.980 18.002 17.982 L 24.004 11.985 18.012 5.992 C 14.717 2.697,12.011 -0.000,12.000 -0.000 C 11.989 0.000,9.283 2.697,5.988 5.992 M14.220 5.400 C 15.430 6.610,16.408 7.600,16.394 7.600 C 16.380 7.600,16.143 7.546,15.868 7.480 C 15.326 7.351,14.398 7.193,13.700 7.111 C 13.010 7.031,10.842 7.044,10.120 7.133 C 9.448 7.216,8.636 7.360,8.047 7.501 C 7.820 7.556,7.622 7.600,7.607 7.600 C 7.592 7.600,8.570 6.610,9.780 5.400 C 10.990 4.190,11.989 3.200,12.000 3.200 C 12.011 3.200,13.010 4.190,14.220 5.400 M12.900 9.321 C 15.639 9.502,18.213 10.394,20.385 11.914 L 20.691 12.129 19.146 13.674 L 17.600 15.219 17.370 15.088 C 15.870 14.234,14.455 13.778,12.880 13.641 C 10.729 13.453,8.658 13.933,6.631 15.089 L 6.402 15.220 4.856 13.675 L 3.311 12.130 3.685 11.870 C 4.473 11.322,5.520 10.755,6.432 10.382 C 8.453 9.555,10.749 9.179,12.900 9.321 M13.112 15.940 C 13.657 16.018,14.170 16.140,14.660 16.308 C 15.068 16.449,15.920 16.833,15.920 16.876 C 15.920 16.890,15.038 17.782,13.960 18.860 L 12.000 20.820 10.040 18.860 C 8.962 17.782,8.080 16.890,8.080 16.876 C 8.080 16.833,8.932 16.449,9.340 16.308 C 9.812 16.146,10.350 16.016,10.856 15.942 C 11.360 15.868,12.600 15.867,13.112 15.940 " stroke="none" fill="black" fill-rule="evenodd"></path></svg>