<svg role="img" viewBox="0 0 24 24" xmlns="http://www.w3.org/2000/svg"><path d="M11.360 0.024 C 10.266 0.118,9.868 0.180,9.040 0.384 C 7.011 0.885,5.077 1.980,3.559 3.486 C 0.576 6.445,-0.642 10.713,0.332 14.800 L 0.422 15.180 3.681 15.189 L 6.940 15.198 8.140 13.924 C 8.800 13.224,9.351 12.657,9.365 12.665 C 9.379 12.673,10.008 13.444,10.762 14.380 C 11.516 15.315,12.146 16.080,12.163 16.080 C 12.179 16.080,12.843 15.306,13.638 14.360 C 14.433 13.414,15.097 12.641,15.112 12.642 C 15.127 12.644,15.563 13.229,16.080 13.942 L 17.020 15.240 18.350 15.240 C 19.082 15.240,19.680 15.250,19.680 15.263 C 19.680 15.276,19.571 15.501,19.437 15.763 C 18.525 17.552,17.017 19.062,15.287 19.920 C 13.760 20.678,12.156 20.893,10.519 20.560 C 8.622 20.173,6.719 18.916,5.438 17.204 L 5.105 16.760 3.053 16.760 C 1.924 16.760,1.000 16.769,1.000 16.781 C 1.000 16.842,1.563 17.911,1.787 18.275 C 2.752 19.839,4.216 21.294,5.781 22.244 C 7.245 23.132,8.870 23.692,10.602 23.905 C 11.249 23.985,12.676 23.995,13.260 23.925 C 14.861 23.731,16.078 23.367,17.449 22.671 C 20.970 20.884,23.377 17.477,23.901 13.535 C 23.935 13.274,23.975 12.738,23.988 12.344 L 24.013 11.629 21.339 11.644 L 18.664 11.660 16.962 9.431 C 16.026 8.205,15.250 7.202,15.237 7.201 C 15.225 7.201,14.532 8.001,13.698 8.980 C 12.864 9.959,12.173 10.760,12.161 10.759 C 12.149 10.759,11.510 9.959,10.740 8.981 C 9.970 8.004,9.329 7.203,9.316 7.202 C 9.303 7.201,8.503 8.208,7.538 9.440 L 5.784 11.680 4.712 11.680 L 3.640 11.680 3.640 11.529 C 3.640 11.446,3.659 11.225,3.682 11.039 C 3.911 9.183,4.711 7.506,5.997 6.186 C 7.495 4.647,9.387 3.772,11.500 3.641 C 14.879 3.432,18.062 5.290,19.539 8.333 C 19.775 8.818,20.015 9.453,20.120 9.870 L 20.163 10.040 22.002 10.040 C 23.196 10.040,23.840 10.026,23.840 10.000 C 23.840 9.978,23.797 9.757,23.744 9.508 C 23.088 6.410,21.206 3.689,18.497 1.921 C 17.948 1.563,16.803 0.988,16.200 0.767 C 15.312 0.442,14.397 0.219,13.472 0.101 C 13.007 0.041,11.705 -0.006,11.360 0.024 " stroke="none" fill="black" fill-rule="evenodd"></path></svg>