<svg role="img" viewBox="0 0 24 24" xmlns="http://www.w3.org/2000/svg"><path d="M10.960 0.042 C 6.859 0.405,3.260 2.819,1.335 6.500 C -0.766 10.517,-0.352 15.535,2.378 19.167 C 3.542 20.715,4.976 21.906,6.700 22.758 C 10.540 24.654,15.065 24.360,18.650 21.982 C 19.114 21.675,19.120 21.669,19.120 21.517 C 19.120 21.340,19.061 21.285,18.517 20.959 C 17.772 20.512,17.025 20.179,14.940 19.360 C 12.812 18.524,12.017 18.177,11.042 17.658 C 8.578 16.347,7.134 14.722,6.622 12.685 C 6.480 12.117,6.438 11.847,6.401 11.247 C 6.317 9.907,6.552 8.704,7.105 7.640 C 8.370 5.205,11.105 3.710,15.047 3.298 C 16.273 3.170,18.356 3.183,19.495 3.324 C 19.668 3.346,19.818 3.355,19.828 3.345 C 19.857 3.316,19.249 2.723,18.855 2.395 C 17.359 1.150,15.571 0.382,13.515 0.100 C 12.960 0.024,11.532 -0.008,10.960 0.042 M16.100 7.881 C 14.123 8.102,13.026 9.009,13.027 10.420 C 13.028 11.139,13.224 11.583,13.799 12.166 C 14.577 12.954,15.494 13.419,18.480 14.541 C 20.535 15.312,21.410 15.679,22.379 16.174 C 22.914 16.447,23.039 16.482,23.150 16.391 C 23.220 16.334,23.572 15.229,23.694 14.680 C 23.956 13.508,24.052 12.339,23.974 11.247 L 23.948 10.882 23.404 10.448 C 21.524 8.945,19.992 8.202,18.240 7.941 C 17.729 7.865,16.537 7.832,16.100 7.881 " stroke="none" fill="black" fill-rule="evenodd"></path></svg>