<svg role="img" viewBox="0 0 24 24" xmlns="http://www.w3.org/2000/svg"><path d="M8.080 0.044 C 5.647 0.320,3.494 1.957,2.588 4.222 C 2.492 4.463,2.372 4.813,2.322 5.000 C 2.106 5.803,2.109 5.750,2.092 9.250 L 2.076 12.520 4.697 12.520 L 7.318 12.520 7.329 9.470 L 7.340 6.420 7.437 6.180 C 7.558 5.878,7.889 5.539,8.220 5.377 L 8.460 5.260 11.310 5.249 L 14.160 5.237 14.160 2.619 L 14.160 0.000 11.270 0.005 C 9.681 0.008,8.245 0.026,8.080 0.044 M16.680 14.432 C 16.680 17.724,16.684 17.676,16.409 18.079 C 16.215 18.363,15.923 18.582,15.606 18.681 C 15.363 18.757,15.232 18.760,12.596 18.760 L 9.840 18.760 9.840 21.382 L 9.840 24.005 12.910 23.989 C 16.205 23.971,16.168 23.974,16.960 23.754 C 19.102 23.161,20.854 21.494,21.555 19.380 C 21.904 18.329,21.920 18.119,21.920 14.502 L 21.920 11.480 19.300 11.480 L 16.680 11.480 16.680 14.432 " stroke="none" fill="black" fill-rule="evenodd"></path></svg>