<svg role="img" viewBox="0 0 24 24" xmlns="http://www.w3.org/2000/svg"><path d="M0.880 10.183 C 0.343 10.325,0.026 10.699,0.022 11.196 C 0.018 11.728,0.256 11.986,1.087 12.346 C 1.422 12.492,1.563 12.577,1.683 12.708 C 1.769 12.801,1.840 12.898,1.840 12.922 C 1.840 12.946,1.789 13.017,1.727 13.079 C 1.542 13.264,1.100 13.285,0.460 13.140 C 0.328 13.110,0.188 13.073,0.150 13.058 C 0.087 13.034,0.080 13.065,0.080 13.391 C 0.080 13.663,0.094 13.757,0.136 13.773 C 0.307 13.839,0.901 13.887,1.331 13.871 C 1.911 13.849,2.172 13.766,2.462 13.510 C 2.712 13.290,2.798 13.094,2.799 12.743 C 2.800 12.409,2.703 12.178,2.486 11.998 C 2.406 11.932,2.049 11.735,1.693 11.561 C 1.322 11.380,1.027 11.210,1.003 11.165 C 0.945 11.057,1.007 10.903,1.146 10.812 C 1.338 10.687,2.049 10.734,2.450 10.900 C 2.513 10.926,2.520 10.897,2.520 10.585 C 2.520 10.195,2.561 10.235,2.080 10.161 C 1.713 10.104,1.139 10.115,0.880 10.183 M22.040 10.182 C 21.491 10.334,21.200 10.691,21.200 11.209 C 21.200 11.759,21.444 12.006,22.379 12.404 C 22.707 12.544,23.000 12.786,23.000 12.917 C 23.000 13.011,22.859 13.153,22.729 13.190 C 22.454 13.267,21.827 13.207,21.310 13.055 C 21.247 13.037,21.240 13.071,21.240 13.394 L 21.240 13.754 21.430 13.799 C 21.719 13.869,22.664 13.897,22.920 13.844 C 23.600 13.703,23.975 13.303,23.975 12.720 C 23.974 12.408,23.876 12.190,23.651 12.001 C 23.568 11.931,23.203 11.727,22.840 11.547 L 22.180 11.220 22.180 11.064 C 22.180 10.940,22.203 10.892,22.293 10.824 C 22.389 10.753,22.459 10.741,22.753 10.744 C 23.055 10.747,23.214 10.776,23.630 10.902 C 23.718 10.929,23.720 10.923,23.720 10.588 L 23.720 10.247 23.510 10.199 C 23.165 10.120,22.297 10.110,22.040 10.182 M3.400 11.980 L 3.400 13.800 3.900 13.800 L 4.400 13.800 4.400 11.980 L 4.400 10.160 3.900 10.160 L 3.400 10.160 3.400 11.980 M5.360 11.980 L 5.360 13.800 6.680 13.800 L 8.000 13.800 8.000 13.460 L 8.000 13.120 7.159 13.120 L 6.317 13.120 6.329 12.690 L 6.340 12.260 7.050 12.249 L 7.760 12.238 7.760 11.939 L 7.760 11.640 7.040 11.640 L 6.320 11.640 6.320 11.240 L 6.320 10.840 7.140 10.840 L 7.960 10.840 7.960 10.500 L 7.960 10.160 6.660 10.160 L 5.360 10.160 5.360 11.980 M8.680 12.002 L 8.680 13.843 9.030 13.832 L 9.380 13.820 9.400 12.565 L 9.420 11.310 9.923 12.565 L 10.426 13.820 10.757 13.820 L 11.088 13.820 11.600 12.567 C 11.882 11.878,12.123 11.304,12.136 11.291 C 12.149 11.277,12.160 11.837,12.160 12.533 L 12.160 13.800 12.640 13.800 L 13.120 13.800 13.120 11.980 L 13.120 10.160 12.488 10.160 L 11.856 10.160 11.451 11.170 C 11.228 11.726,11.015 12.252,10.978 12.340 L 10.911 12.499 10.801 12.220 C 10.741 12.066,10.534 11.540,10.342 11.050 L 9.992 10.160 9.336 10.160 L 8.680 10.160 8.680 12.002 M14.040 11.979 L 14.040 13.800 15.380 13.800 L 16.720 13.800 16.720 13.460 L 16.720 13.120 15.880 13.120 L 15.040 13.120 15.040 12.680 L 15.040 12.240 15.740 12.240 L 16.440 12.240 16.440 11.940 L 16.440 11.640 15.740 11.640 L 15.040 11.640 15.040 11.241 L 15.040 10.842 15.850 10.831 L 16.660 10.820 16.660 10.500 L 16.660 10.180 15.350 10.169 L 14.040 10.159 14.040 11.979 M17.387 10.187 C 17.372 10.201,17.360 11.018,17.360 12.001 L 17.360 13.788 17.630 13.814 C 17.779 13.828,17.941 13.840,17.990 13.840 L 18.080 13.840 18.080 12.613 C 18.080 11.939,18.093 11.399,18.110 11.414 C 18.127 11.430,18.419 11.977,18.760 12.631 L 19.380 13.820 19.950 13.831 L 20.520 13.842 20.520 12.001 L 20.520 10.160 20.161 10.160 L 19.801 10.160 19.791 11.357 L 19.780 12.554 19.167 11.357 L 18.554 10.160 17.984 10.160 C 17.670 10.160,17.401 10.172,17.387 10.187 " stroke="none" fill="black" fill-rule="evenodd"></path></svg>