<svg role="img" viewBox="0 0 24 24" xmlns="http://www.w3.org/2000/svg"><path d="M10.900 0.044 C 10.283 0.094,10.306 0.082,10.338 0.352 C 10.381 0.715,10.389 0.731,10.534 0.705 C 10.850 0.647,12.101 0.605,12.580 0.635 C 12.866 0.653,13.103 0.666,13.108 0.663 C 13.112 0.661,13.127 0.522,13.142 0.356 L 13.170 0.053 12.799 0.026 C 12.329 -0.007,11.419 0.001,10.900 0.044 M14.242 0.502 C 14.215 0.670,14.199 0.810,14.207 0.815 C 14.214 0.820,14.382 0.857,14.580 0.896 C 15.136 1.007,16.036 1.294,16.728 1.579 C 16.783 1.602,16.820 1.554,16.918 1.338 C 16.985 1.190,17.040 1.063,17.040 1.056 C 17.040 1.030,16.642 0.868,16.200 0.715 C 15.662 0.529,15.187 0.394,14.740 0.300 C 14.564 0.263,14.391 0.225,14.356 0.216 C 14.303 0.201,14.282 0.256,14.242 0.502 M8.800 0.404 C 8.151 0.570,6.789 1.068,6.527 1.234 C 6.452 1.283,6.713 1.812,6.800 1.786 C 6.833 1.775,7.047 1.684,7.275 1.583 C 7.687 1.402,8.705 1.056,9.110 0.961 C 9.333 0.909,9.340 0.898,9.284 0.680 C 9.264 0.603,9.237 0.490,9.223 0.430 C 9.195 0.303,9.195 0.303,8.800 0.404 M17.907 1.809 C 17.830 1.947,17.774 2.071,17.784 2.086 C 17.793 2.100,17.904 2.171,18.030 2.242 C 18.439 2.472,19.175 2.988,19.587 3.335 L 19.989 3.673 20.194 3.439 L 20.400 3.205 20.010 2.879 C 19.796 2.699,19.449 2.429,19.240 2.279 C 18.874 2.017,18.135 1.560,18.076 1.560 C 18.060 1.560,17.984 1.672,17.907 1.809 M5.057 2.073 C 4.429 2.494,4.018 2.822,3.507 3.312 L 3.234 3.573 3.455 3.794 L 3.676 4.015 4.008 3.696 C 4.398 3.322,4.963 2.877,5.440 2.567 C 5.627 2.446,5.785 2.343,5.791 2.339 C 5.807 2.328,5.517 1.843,5.483 1.822 C 5.469 1.813,5.277 1.926,5.057 2.073 M11.020 2.645 C 8.781 2.860,6.602 3.869,5.079 5.397 C 3.770 6.711,2.967 8.253,2.654 10.060 C 2.555 10.631,2.556 12.080,2.656 12.740 C 2.981 14.894,3.902 16.562,5.527 17.941 L 5.715 18.100 5.835 19.680 L 5.955 21.260 6.064 21.353 C 6.140 21.419,6.204 21.441,6.277 21.427 C 6.333 21.415,6.650 21.250,6.980 21.059 C 7.310 20.868,7.969 20.488,8.443 20.214 L 9.307 19.717 9.503 19.761 C 10.463 19.978,12.157 20.063,13.175 19.945 C 16.086 19.606,18.652 18.059,20.139 15.745 C 21.701 13.314,21.882 10.282,20.618 7.724 C 18.924 4.296,15.071 2.257,11.020 2.645 M20.945 4.235 L 20.729 4.431 21.007 4.765 C 21.340 5.166,21.844 5.902,22.078 6.330 C 22.171 6.500,22.264 6.640,22.285 6.640 C 22.343 6.640,22.800 6.402,22.800 6.372 C 22.800 6.313,22.348 5.554,22.073 5.153 C 21.766 4.706,21.241 4.044,21.190 4.041 C 21.174 4.041,21.064 4.128,20.945 4.235 M2.144 4.838 C 1.981 5.056,1.748 5.396,1.627 5.593 C 1.407 5.948,0.944 6.838,0.968 6.860 C 0.974 6.866,1.102 6.926,1.251 6.993 L 1.521 7.116 1.642 6.850 C 1.816 6.465,2.319 5.638,2.641 5.206 C 2.795 5.001,2.919 4.821,2.917 4.806 C 2.913 4.766,2.522 4.440,2.478 4.440 C 2.457 4.440,2.306 4.619,2.144 4.838 M23.020 7.547 C 22.888 7.602,22.766 7.660,22.750 7.676 C 22.733 7.691,22.775 7.865,22.842 8.062 C 23.008 8.547,23.183 9.288,23.255 9.814 C 23.288 10.053,23.324 10.258,23.335 10.269 C 23.346 10.280,23.482 10.276,23.638 10.260 C 23.885 10.235,23.920 10.222,23.920 10.151 C 23.920 9.986,23.791 9.206,23.700 8.817 C 23.601 8.397,23.331 7.520,23.286 7.473 C 23.272 7.458,23.152 7.491,23.020 7.547 M0.408 8.368 C 0.187 9.178,-0.017 10.514,0.053 10.695 C 0.072 10.746,0.135 10.760,0.354 10.760 L 0.631 10.760 0.657 10.490 C 0.734 9.689,0.876 8.954,1.101 8.177 C 1.123 8.105,1.097 8.087,0.893 8.030 C 0.765 7.994,0.631 7.954,0.596 7.940 C 0.543 7.920,0.509 7.995,0.408 8.368 M23.341 11.770 C 23.302 12.365,23.213 12.951,23.078 13.516 C 23.012 13.789,22.963 14.016,22.969 14.022 C 22.990 14.041,23.532 14.201,23.540 14.191 C 23.544 14.185,23.577 14.072,23.613 13.940 C 23.796 13.270,23.960 12.176,23.960 11.630 L 23.960 11.360 23.664 11.360 L 23.369 11.360 23.341 11.770 M0.056 12.410 C 0.089 13.037,0.170 13.696,0.287 14.291 C 0.356 14.645,0.383 14.718,0.436 14.703 C 0.471 14.693,0.604 14.655,0.730 14.619 C 0.857 14.584,0.960 14.542,0.959 14.527 C 0.959 14.512,0.925 14.333,0.882 14.129 C 0.807 13.762,0.706 12.908,0.658 12.230 L 0.633 11.880 0.330 11.880 L 0.028 11.880 0.056 12.410 M22.422 15.422 C 22.227 15.856,21.765 16.649,21.468 17.062 L 21.239 17.379 21.329 17.449 C 21.579 17.643,21.719 17.725,21.759 17.701 C 21.868 17.633,22.552 16.525,22.843 15.945 L 23.166 15.300 22.933 15.192 C 22.805 15.133,22.672 15.083,22.638 15.082 C 22.599 15.081,22.521 15.203,22.422 15.422 M0.972 15.695 C 0.858 15.743,0.753 15.793,0.740 15.807 C 0.699 15.848,0.959 16.461,1.211 16.914 C 1.506 17.445,2.100 18.280,2.183 18.280 C 2.199 18.280,2.305 18.192,2.418 18.085 L 2.625 17.890 2.466 17.695 C 2.077 17.215,1.576 16.350,1.352 15.770 C 1.316 15.677,1.262 15.602,1.233 15.603 C 1.204 15.605,1.087 15.646,0.972 15.695 M20.069 18.660 C 19.709 19.008,19.212 19.409,18.581 19.861 L 18.468 19.943 18.622 20.181 C 18.707 20.313,18.782 20.428,18.789 20.437 C 18.807 20.463,19.328 20.098,19.754 19.760 C 20.165 19.434,20.960 18.694,20.960 18.638 C 20.960 18.591,20.589 18.242,20.540 18.243 C 20.518 18.243,20.306 18.431,20.069 18.660 M3.164 18.896 L 2.951 19.112 3.267 19.379 L 3.584 19.647 3.857 20.473 C 4.007 20.928,4.141 21.313,4.155 21.328 C 4.185 21.362,4.720 21.205,4.720 21.162 C 4.720 21.146,4.585 20.717,4.419 20.208 L 4.119 19.284 3.828 19.046 C 3.668 18.916,3.513 18.780,3.484 18.744 C 3.454 18.709,3.418 18.680,3.404 18.680 C 3.389 18.680,3.281 18.777,3.164 18.896 M17.200 20.647 C 16.762 20.864,15.942 21.182,15.449 21.326 C 15.213 21.395,15.017 21.454,15.012 21.457 C 14.996 21.468,15.133 21.982,15.161 22.013 C 15.228 22.089,16.582 21.619,17.389 21.240 L 17.838 21.029 17.729 20.834 C 17.526 20.472,17.542 20.478,17.200 20.647 M8.430 21.953 C 7.886 22.191,7.430 22.397,7.418 22.409 C 7.400 22.426,7.607 22.890,7.658 22.950 C 7.663 22.955,8.080 22.781,8.585 22.561 L 9.504 22.163 9.772 22.207 C 9.920 22.232,10.051 22.242,10.063 22.230 C 10.086 22.207,10.196 21.773,10.199 21.695 C 10.199 21.671,10.064 21.630,9.890 21.602 C 9.720 21.576,9.544 21.546,9.500 21.537 C 9.455 21.527,8.989 21.708,8.430 21.953 M13.400 21.747 C 13.182 21.780,12.646 21.807,12.140 21.812 C 11.609 21.817,11.248 21.836,11.231 21.860 C 11.214 21.882,11.201 22.011,11.201 22.148 L 11.200 22.395 11.389 22.423 C 11.798 22.485,13.931 22.363,14.021 22.273 C 14.029 22.265,14.015 22.128,13.991 21.969 C 13.939 21.638,13.996 21.659,13.400 21.747 M4.813 22.335 C 4.677 22.382,4.554 22.432,4.540 22.446 C 4.526 22.460,4.616 22.788,4.739 23.175 C 4.968 23.892,5.030 24.000,5.214 24.000 C 5.294 24.000,6.591 23.449,6.615 23.405 C 6.622 23.391,6.573 23.260,6.504 23.114 L 6.380 22.848 5.900 23.062 L 5.420 23.277 5.259 22.780 C 5.170 22.507,5.089 22.276,5.079 22.267 C 5.068 22.258,4.949 22.289,4.813 22.335 " stroke="none" fill="black" fill-rule="evenodd"></path></svg>