<svg role="img" viewBox="0 0 24 24" xmlns="http://www.w3.org/2000/svg"><path d="M8.190 0.954 C 1.331 1.851,0.960 1.904,0.960 1.979 C 0.960 2.022,1.428 4.866,2.001 8.299 L 3.041 14.540 4.544 19.260 C 5.371 21.856,6.051 23.984,6.056 23.989 C 6.064 23.998,21.409 19.638,21.430 19.621 C 21.465 19.594,23.038 5.931,23.012 5.889 C 22.951 5.790,15.540 0.000,15.480 0.004 C 15.447 0.006,12.167 0.434,8.190 0.954 M18.160 3.824 C 19.799 5.112,21.154 6.179,21.170 6.195 C 21.193 6.217,16.306 7.121,15.897 7.170 C 15.835 7.178,15.412 6.762,14.177 5.480 C 12.805 4.056,12.524 3.781,12.440 3.789 C 12.385 3.794,10.360 4.086,7.940 4.439 C 5.520 4.791,3.502 5.080,3.455 5.080 C 3.382 5.080,3.315 4.949,2.979 4.150 C 2.764 3.639,2.581 3.193,2.572 3.160 C 2.559 3.109,3.511 2.975,8.708 2.294 C 12.092 1.851,14.932 1.487,15.020 1.485 C 15.173 1.481,15.314 1.587,18.160 3.824 M14.219 9.405 C 15.068 10.464,15.756 11.337,15.748 11.345 C 15.741 11.353,14.681 11.584,13.393 11.858 C 12.106 12.132,10.978 12.373,10.888 12.394 L 10.723 12.431 10.155 11.454 C 9.843 10.917,9.566 10.449,9.541 10.414 C 9.498 10.356,9.268 10.394,7.212 10.795 C 5.957 11.040,4.912 11.240,4.890 11.240 C 4.851 11.240,4.040 9.129,4.040 9.029 C 4.040 8.995,5.339 8.750,8.250 8.234 C 10.566 7.824,12.508 7.486,12.568 7.484 C 12.663 7.480,12.850 7.698,14.219 9.405 M10.431 15.598 C 10.745 16.212,10.988 16.722,10.971 16.731 C 10.954 16.741,9.908 17.006,8.646 17.320 C 7.143 17.695,6.343 17.877,6.326 17.850 C 6.281 17.777,5.508 15.478,5.524 15.467 C 5.544 15.453,9.764 14.487,9.820 14.484 C 9.842 14.482,10.117 14.984,10.431 15.598 " stroke="none" fill="black" fill-rule="evenodd"></path></svg>