<svg role="img" xmlns="http://www.w3.org/2000/svg" viewBox="0 0 24 24"><path d="M11.454 1.484 C 10.950 1.529,10.172 1.691,9.662 1.858 C 8.016 2.398,6.995 3.339,6.572 4.708 C 6.468 5.044,6.463 5.098,6.465 5.880 C 6.467 6.632,6.476 6.732,6.571 7.088 C 6.628 7.302,6.761 7.644,6.866 7.848 C 7.202 8.503,8.003 9.222,8.825 9.607 C 9.981 10.149,11.556 10.396,13.880 10.400 C 14.715 10.401,15.399 10.455,15.927 10.562 C 17.095 10.798,17.581 11.306,17.630 12.343 C 17.663 13.018,17.474 13.486,16.977 13.957 C 16.265 14.634,15.106 14.962,13.620 14.908 C 12.005 14.849,10.610 14.392,9.627 13.600 C 9.235 13.284,8.988 12.964,8.621 12.296 C 8.284 11.683,8.092 11.470,7.797 11.383 C 7.268 11.226,6.776 11.405,6.522 11.849 L 6.401 12.060 6.400 14.084 L 6.400 16.107 6.525 16.357 C 6.744 16.795,7.025 17.000,7.451 17.032 C 7.767 17.056,8.119 16.937,8.724 16.601 L 9.210 16.331 9.535 16.405 C 11.627 16.879,12.802 17.040,14.180 17.040 C 16.335 17.040,18.007 16.449,19.164 15.279 C 19.936 14.497,20.298 13.654,20.348 12.516 C 20.409 11.103,20.042 10.027,19.235 9.257 C 18.266 8.334,16.880 7.909,14.360 7.764 C 13.975 7.741,13.435 7.713,13.160 7.700 C 10.707 7.586,9.830 7.381,9.303 6.798 C 9.070 6.540,8.988 6.318,8.968 5.896 C 8.940 5.307,9.121 4.841,9.537 4.425 C 10.184 3.777,11.022 3.505,12.360 3.509 C 13.505 3.512,14.217 3.663,15.060 4.079 C 15.653 4.372,15.932 4.595,17.009 5.633 C 17.913 6.503,18.068 6.611,18.418 6.611 C 18.832 6.611,19.255 6.270,19.361 5.852 C 19.392 5.729,19.416 5.172,19.428 4.309 C 19.455 2.416,19.406 2.124,19.001 1.745 C 18.594 1.364,18.201 1.398,17.205 1.898 L 16.749 2.126 15.885 1.905 C 15.409 1.783,14.813 1.646,14.560 1.601 C 13.737 1.456,12.355 1.403,11.454 1.484 M0.000 18.500 L 0.000 23.000 12.000 23.000 L 24.000 23.000 24.000 22.500 L 24.000 22.000 12.500 22.000 L 1.000 22.000 1.000 18.000 L 1.000 14.000 0.500 14.000 L 0.000 14.000 0.000 18.500 " stroke="none" fill="black" fill-rule="evenodd"></path></svg>