<svg role="img" viewBox="0 0 24 24" xmlns="http://www.w3.org/2000/svg"><path d="M10.260 0.025 C 8.768 0.103,7.154 0.387,6.020 0.773 C 4.545 1.275,3.141 2.146,2.450 2.988 C 1.342 4.337,0.567 6.182,0.243 8.241 C 0.082 9.270,0.035 9.908,0.012 11.440 C -0.028 14.113,0.144 15.829,0.618 17.473 C 1.128 19.243,2.079 20.839,3.104 21.641 C 4.726 22.912,6.656 23.609,9.360 23.902 C 10.147 23.987,12.699 24.024,13.720 23.964 C 15.529 23.859,16.999 23.588,18.233 23.135 C 19.183 22.786,20.313 22.147,21.009 21.566 C 21.873 20.845,22.871 19.141,23.333 17.600 C 23.849 15.876,24.028 14.203,23.987 11.480 C 23.954 9.236,23.797 7.963,23.376 6.511 C 22.883 4.812,21.908 3.149,20.980 2.420 C 19.284 1.089,17.409 0.398,14.680 0.097 C 14.258 0.051,13.616 0.030,12.320 0.022 C 11.341 0.016,10.414 0.017,10.260 0.025 M12.571 3.583 C 13.379 3.792,14.028 4.455,14.202 5.246 C 14.278 5.598,14.233 6.199,14.105 6.535 C 13.862 7.170,13.350 7.657,12.730 7.842 L 12.560 7.893 12.560 8.686 L 12.560 9.478 12.670 9.503 C 13.146 9.610,13.465 9.745,13.831 9.994 C 14.358 10.352,14.828 11.047,14.985 11.700 C 15.086 12.118,15.077 12.779,14.967 13.172 C 14.590 14.511,13.407 15.400,12.000 15.400 C 10.593 15.400,9.409 14.511,9.033 13.172 C 8.967 12.935,8.945 12.746,8.943 12.383 L 8.940 11.907 8.200 11.672 L 7.460 11.437 7.362 11.568 C 6.892 12.201,6.241 12.535,5.480 12.535 C 4.859 12.535,4.364 12.342,3.919 11.924 C 3.471 11.504,3.240 10.973,3.240 10.364 C 3.240 9.727,3.439 9.241,3.880 8.800 C 4.326 8.354,4.841 8.148,5.500 8.151 C 6.727 8.158,7.718 9.121,7.720 10.308 L 7.720 10.596 8.190 10.743 C 9.095 11.027,9.257 11.076,9.260 11.068 C 9.262 11.064,9.329 10.959,9.409 10.834 C 9.811 10.214,10.522 9.739,11.350 9.539 L 11.640 9.469 11.640 8.680 L 11.640 7.890 11.450 7.839 C 11.141 7.757,10.739 7.527,10.471 7.280 C 9.616 6.493,9.515 5.217,10.238 4.346 C 10.542 3.980,10.926 3.728,11.380 3.596 C 11.688 3.506,12.251 3.500,12.571 3.583 M11.533 4.474 C 11.131 4.613,10.818 4.953,10.698 5.379 C 10.529 5.981,10.833 6.614,11.433 6.909 C 11.629 7.005,11.707 7.020,12.000 7.018 C 12.287 7.017,12.375 7.000,12.567 6.907 C 12.857 6.767,13.105 6.519,13.235 6.240 C 13.315 6.067,13.337 5.955,13.338 5.716 C 13.340 5.446,13.324 5.382,13.200 5.138 C 12.886 4.523,12.192 4.246,11.533 4.474 M19.060 8.207 C 19.810 8.363,20.503 9.029,20.699 9.782 C 20.786 10.116,20.778 10.653,20.681 10.966 C 20.461 11.679,19.879 12.245,19.140 12.464 C 18.818 12.560,18.222 12.560,17.900 12.464 C 17.415 12.320,16.955 11.994,16.638 11.569 L 16.540 11.438 16.232 11.534 L 15.924 11.630 15.785 11.216 C 15.709 10.988,15.658 10.794,15.673 10.786 C 15.688 10.778,15.828 10.733,15.985 10.686 L 16.270 10.601 16.290 10.230 C 16.314 9.766,16.403 9.501,16.660 9.120 C 17.180 8.351,18.089 8.005,19.060 8.207 M5.080 9.077 C 4.730 9.184,4.382 9.493,4.228 9.833 C 4.105 10.107,4.108 10.586,4.236 10.870 C 4.362 11.151,4.725 11.488,5.008 11.585 C 5.744 11.839,6.544 11.440,6.766 10.708 C 6.842 10.458,6.848 10.391,6.811 10.173 C 6.691 9.477,6.167 9.035,5.468 9.043 C 5.310 9.045,5.135 9.061,5.080 9.077 M18.000 9.126 C 17.694 9.247,17.358 9.589,17.257 9.880 C 17.153 10.183,17.159 10.601,17.270 10.849 C 17.575 11.529,18.396 11.845,19.069 11.542 C 19.360 11.411,19.643 11.131,19.771 10.849 C 19.904 10.555,19.894 10.091,19.749 9.794 C 19.625 9.542,19.376 9.291,19.114 9.155 C 18.856 9.022,18.302 9.007,18.000 9.126 M11.484 10.543 C 11.143 10.635,10.824 10.828,10.560 11.103 C 9.564 12.140,10.005 13.798,11.400 14.265 C 11.552 14.315,11.738 14.338,12.000 14.338 C 12.262 14.338,12.448 14.315,12.600 14.265 C 13.994 13.799,14.434 12.139,13.440 11.103 C 12.930 10.572,12.177 10.357,11.484 10.543 M9.659 15.564 C 9.847 15.698,10.000 15.816,10.000 15.827 C 10.000 15.837,9.918 15.960,9.818 16.100 L 9.637 16.355 9.781 16.543 C 10.088 16.947,10.214 17.332,10.210 17.860 C 10.207 18.298,10.107 18.644,9.885 18.987 C 9.469 19.631,8.855 19.986,8.080 20.029 C 7.637 20.053,7.334 19.990,6.923 19.789 C 6.588 19.625,6.144 19.191,5.969 18.856 C 5.306 17.588,6.018 16.061,7.443 15.696 C 7.775 15.611,8.364 15.638,8.685 15.752 L 8.911 15.833 9.095 15.576 C 9.197 15.435,9.288 15.320,9.299 15.320 C 9.309 15.320,9.472 15.430,9.659 15.564 M14.902 15.576 L 15.090 15.832 15.315 15.752 C 15.633 15.639,16.185 15.614,16.537 15.697 C 17.554 15.936,18.280 16.827,18.280 17.836 C 18.280 18.425,18.058 18.946,17.622 19.380 C 16.214 20.780,13.788 19.805,13.788 17.840 C 13.788 17.337,13.944 16.871,14.235 16.506 L 14.358 16.352 14.174 16.093 C 14.067 15.944,14.004 15.820,14.025 15.800 C 14.088 15.738,14.659 15.326,14.687 15.323 C 14.702 15.321,14.798 15.435,14.902 15.576 M7.580 16.574 C 7.337 16.654,7.195 16.738,7.031 16.897 C 6.559 17.356,6.486 18.020,6.848 18.562 C 7.418 19.416,8.736 19.329,9.189 18.406 C 9.284 18.213,9.300 18.131,9.300 17.840 C 9.300 17.548,9.284 17.467,9.188 17.271 C 9.061 17.014,8.809 16.771,8.529 16.638 C 8.297 16.527,7.818 16.495,7.580 16.574 M15.592 16.589 C 14.990 16.815,14.642 17.341,14.691 17.947 C 14.728 18.419,15.014 18.820,15.471 19.045 C 15.626 19.122,15.725 19.139,16.020 19.139 C 16.325 19.140,16.413 19.124,16.600 19.036 C 17.627 18.552,17.627 17.119,16.601 16.647 C 16.311 16.513,15.862 16.488,15.592 16.589 " stroke="none" fill="black" fill-rule="evenodd"></path></svg>