<svg role="img" viewBox="0 0 24 24" xmlns="http://www.w3.org/2000/svg"><path d="M17.720 0.024 C 17.230 0.111,14.930 0.662,14.969 0.683 C 14.997 0.697,15.101 0.722,15.200 0.737 C 15.578 0.794,16.566 1.055,17.185 1.261 C 17.728 1.441,18.887 1.917,19.074 2.035 C 19.116 2.062,18.969 2.498,18.379 4.085 C 17.967 5.193,17.624 6.107,17.616 6.116 C 17.608 6.124,17.507 6.058,17.391 5.969 C 16.605 5.365,15.601 4.969,14.356 4.773 C 14.007 4.718,13.675 4.701,12.940 4.702 C 12.077 4.704,11.948 4.713,11.664 4.792 C 10.877 5.011,10.423 5.390,10.195 6.020 C 10.124 6.215,10.107 6.353,10.104 6.760 C 10.100 7.241,10.105 7.270,10.225 7.524 C 10.621 8.360,11.626 8.974,14.537 10.158 C 16.091 10.790,16.894 11.202,17.700 11.781 C 18.121 12.084,18.975 12.927,19.259 13.322 C 19.739 13.989,20.113 14.864,20.289 15.731 C 20.369 16.127,20.380 16.295,20.379 17.160 C 20.377 18.022,20.367 18.189,20.288 18.550 C 20.109 19.371,19.790 20.136,19.382 20.722 C 19.284 20.862,19.210 20.983,19.216 20.990 C 19.237 21.010,22.162 20.325,22.428 20.237 C 23.372 19.925,24.056 18.891,23.987 17.880 C 23.974 17.687,23.309 14.743,22.120 9.620 C 20.035 0.631,20.204 1.247,19.687 0.729 C 19.398 0.441,19.022 0.215,18.644 0.104 C 18.421 0.039,17.894 -0.007,17.720 0.024 M4.260 3.102 C 1.679 3.698,1.605 3.717,1.340 3.849 C 0.477 4.279,-0.045 5.156,0.011 6.080 C 0.023 6.281,0.637 9.006,1.876 14.360 C 3.567 21.670,3.735 22.367,3.878 22.660 C 4.165 23.246,4.627 23.647,5.269 23.866 C 5.525 23.954,5.651 23.973,5.980 23.972 C 6.322 23.972,6.507 23.942,7.260 23.764 C 7.744 23.650,8.167 23.547,8.200 23.535 C 8.233 23.524,7.999 23.428,7.680 23.322 C 7.361 23.216,6.884 23.035,6.620 22.920 C 5.985 22.642,4.720 22.008,4.720 21.967 C 4.720 21.935,6.477 17.990,6.546 17.866 C 6.578 17.809,6.600 17.815,6.721 17.915 C 6.967 18.117,7.649 18.547,8.053 18.754 C 8.857 19.167,9.717 19.443,10.644 19.586 C 11.192 19.670,12.430 19.682,12.880 19.608 C 13.828 19.452,14.475 19.056,14.759 18.460 C 14.923 18.116,14.975 17.792,14.949 17.288 C 14.911 16.556,14.690 16.053,14.180 15.535 C 13.612 14.957,12.555 14.353,10.767 13.583 C 8.739 12.711,7.607 12.025,6.607 11.063 C 5.910 10.392,5.518 9.862,5.158 9.107 C 4.791 8.337,4.634 7.587,4.635 6.615 C 4.637 5.144,5.050 3.975,5.926 2.957 C 6.057 2.804,6.140 2.681,6.112 2.683 C 6.083 2.685,5.250 2.873,4.260 3.102 " stroke="none" fill="black" fill-rule="evenodd"></path></svg>