<svg role="img" viewBox="0 0 24 24" xmlns="http://www.w3.org/2000/svg"><path d="M11.300 2.465 C 9.113 2.693,7.221 3.636,5.600 5.305 C 4.766 6.164,4.188 6.985,3.660 8.060 C 3.239 8.916,2.948 9.776,2.737 10.790 C 2.719 10.877,2.704 10.880,2.243 10.880 L 1.767 10.880 0.931 11.950 C 0.471 12.538,0.081 13.043,0.065 13.070 C 0.041 13.111,1.082 13.119,5.350 13.110 L 10.666 13.100 10.807 12.993 C 10.884 12.934,11.367 12.318,11.879 11.624 C 12.391 10.930,12.857 10.330,12.915 10.291 C 13.014 10.224,13.241 10.221,17.170 10.236 C 20.703 10.249,21.320 10.243,21.320 10.196 C 21.320 10.165,21.276 9.959,21.223 9.739 C 20.301 5.933,17.258 3.139,13.380 2.538 C 12.996 2.478,11.631 2.430,11.300 2.465 M13.407 5.077 C 14.291 5.268,15.133 5.627,15.907 6.142 C 16.402 6.472,17.098 7.112,17.487 7.596 L 17.732 7.900 14.955 7.920 L 12.178 7.940 11.911 8.071 C 11.762 8.145,11.560 8.289,11.452 8.399 C 11.346 8.507,10.937 9.061,10.542 9.630 C 10.147 10.199,9.783 10.696,9.734 10.733 C 9.564 10.861,9.246 10.880,7.275 10.880 C 5.341 10.880,5.320 10.879,5.320 10.799 C 5.320 10.630,5.655 9.719,5.900 9.220 C 7.009 6.964,8.899 5.426,11.060 5.022 C 11.539 4.933,12.886 4.964,13.407 5.077 M13.267 10.924 C 13.147 10.988,12.903 11.288,12.154 12.292 C 11.604 13.030,11.140 13.614,11.068 13.660 C 10.943 13.738,10.858 13.740,6.793 13.760 L 2.646 13.780 2.799 14.380 C 3.798 18.286,7.097 21.123,11.097 21.517 C 13.337 21.737,15.491 21.084,17.400 19.607 C 17.858 19.252,18.656 18.470,19.059 17.980 C 20.106 16.708,20.840 15.272,21.235 13.724 L 21.384 13.140 21.808 13.129 L 22.232 13.117 23.096 12.000 C 23.571 11.386,23.960 10.874,23.960 10.862 C 23.960 10.850,21.588 10.841,18.690 10.842 C 13.480 10.844,13.418 10.844,13.267 10.924 M18.769 13.143 C 18.802 13.175,18.625 13.730,18.436 14.186 C 17.812 15.695,16.677 17.093,15.360 17.978 C 14.920 18.273,14.161 18.641,13.680 18.793 C 13.031 18.997,12.577 19.053,11.748 19.029 C 10.936 19.005,10.511 18.932,9.800 18.695 C 8.506 18.264,7.291 17.400,6.458 16.317 L 6.278 16.084 9.049 16.072 L 11.820 16.060 12.051 15.952 C 12.427 15.776,12.684 15.486,13.458 14.371 C 13.853 13.801,14.217 13.304,14.268 13.265 C 14.319 13.227,14.437 13.181,14.530 13.162 C 14.718 13.125,18.733 13.107,18.769 13.143 " stroke="none" fill="black" fill-rule="evenodd"></path></svg>