<svg role="img" viewBox="0 0 24 24" xmlns="http://www.w3.org/2000/svg"><path d="M11.480 0.025 C 8.828 0.164,6.616 0.985,4.560 2.594 C 4.099 2.955,2.996 4.052,2.623 4.520 C 1.932 5.389,1.194 6.660,0.809 7.648 C 0.071 9.540,-0.175 11.828,0.144 13.840 C 0.525 16.239,1.686 18.581,3.365 20.339 C 4.635 21.669,6.343 22.755,8.100 23.353 C 11.136 24.385,14.617 24.140,17.442 22.697 C 19.716 21.535,21.534 19.703,22.696 17.404 C 23.330 16.148,23.693 14.989,23.905 13.540 C 23.993 12.940,24.006 11.271,23.928 10.640 C 23.464 6.905,21.335 3.604,18.172 1.716 C 16.678 0.824,15.112 0.296,13.400 0.105 C 12.823 0.041,11.906 0.003,11.480 0.025 M13.437 1.838 C 15.699 2.221,17.733 3.265,19.335 4.866 C 20.896 6.425,21.818 8.241,22.118 10.350 C 22.352 11.993,22.321 13.017,21.994 14.360 C 21.388 16.853,19.732 19.180,17.520 20.646 C 16.702 21.188,15.542 21.702,14.603 21.939 C 13.154 22.304,11.119 22.346,9.800 22.038 C 7.864 21.586,6.171 20.643,4.742 19.220 C 3.155 17.642,2.143 15.645,1.857 13.534 C 1.806 13.158,1.786 12.724,1.784 11.920 C 1.780 10.934,1.790 10.767,1.873 10.307 C 2.449 7.121,4.435 4.381,7.240 2.905 C 8.278 2.359,9.645 1.923,10.770 1.780 C 11.422 1.697,12.782 1.727,13.437 1.838 M16.180 5.549 C 15.004 6.490,14.084 7.243,11.900 9.055 C 10.734 10.023,9.621 10.946,9.426 11.107 L 9.073 11.400 10.886 11.399 L 12.700 11.398 14.540 8.615 C 16.733 5.298,16.927 4.999,16.889 5.003 C 16.873 5.004,16.554 5.250,16.180 5.549 M10.966 13.095 C 10.789 13.368,9.855 14.785,8.890 16.245 C 6.951 19.179,7.067 19.000,7.096 19.000 C 7.160 19.000,9.289 17.277,11.640 15.323 C 12.553 14.564,13.651 13.657,14.080 13.307 C 14.509 12.957,14.877 12.655,14.898 12.635 C 14.920 12.615,14.175 12.600,13.112 12.600 L 11.288 12.600 10.966 13.095 " stroke="none" fill="black" fill-rule="evenodd"></path></svg>