<svg role="img" xmlns="http://www.w3.org/2000/svg" viewBox="0 0 24 24"><path d="M15.474 0.771 L 15.247 1.133 15.774 1.480 C 17.000 2.287,17.962 3.077,19.082 4.198 C 20.178 5.294,20.883 6.144,21.669 7.320 C 22.134 8.016,22.608 8.830,22.927 9.480 C 23.066 9.764,23.198 9.998,23.220 9.999 C 23.252 10.001,23.945 9.730,23.993 9.696 C 24.022 9.677,23.433 8.500,23.123 7.959 C 21.503 5.128,19.052 2.554,16.260 0.751 C 15.649 0.356,15.735 0.354,15.474 0.771 M8.341 1.350 C 8.261 1.609,8.188 1.847,8.178 1.880 C 8.165 1.926,8.278 1.977,8.651 2.093 C 13.879 3.732,18.337 7.525,20.740 12.380 C 20.947 12.798,21.215 13.387,21.336 13.688 C 21.586 14.312,21.993 15.546,22.103 16.014 C 22.144 16.187,22.197 16.337,22.223 16.347 C 22.273 16.366,23.190 16.143,23.232 16.102 C 23.298 16.035,22.835 14.533,22.428 13.500 C 22.077 12.605,21.323 11.097,20.824 10.290 C 18.115 5.906,13.982 2.637,9.184 1.084 C 8.838 0.972,8.539 0.880,8.521 0.880 C 8.503 0.880,8.422 1.091,8.341 1.350 M0.000 3.274 L 0.000 3.948 0.790 3.973 C 4.141 4.080,7.475 5.078,10.391 6.849 C 12.964 8.412,15.132 10.511,16.774 13.028 C 18.141 15.123,19.139 17.597,19.579 19.979 C 19.777 21.049,19.919 22.413,19.920 23.250 L 19.920 23.600 20.580 23.600 L 21.240 23.600 21.240 23.088 C 21.240 22.060,21.090 20.712,20.838 19.467 C 19.203 11.401,12.810 4.937,4.674 3.122 C 3.335 2.823,1.452 2.602,0.230 2.600 L 0.000 2.600 0.000 3.274 " stroke="none" fill="black" fill-rule="evenodd"></path></svg>