<svg role="img" viewBox="0 0 24 24" xmlns="http://www.w3.org/2000/svg"><path d="M22.680 7.507 C 22.603 7.514,22.162 7.558,21.700 7.603 C 13.952 8.358,6.997 10.879,2.140 14.693 C 1.458 15.229,0.084 16.456,0.047 16.562 C 0.038 16.586,0.548 16.600,1.400 16.600 L 2.767 16.600 3.293 16.105 C 6.147 13.420,9.482 11.382,13.560 9.832 C 16.366 8.766,19.592 7.960,22.640 7.564 C 23.124 7.501,23.153 7.460,22.680 7.507 M1.800 11.980 C 2.685 12.629,3.425 13.160,3.444 13.160 C 3.462 13.160,3.663 13.038,3.889 12.889 C 4.115 12.740,4.439 12.538,4.610 12.439 C 4.780 12.341,4.919 12.248,4.920 12.234 C 4.920 12.219,4.476 11.891,3.933 11.504 L 2.947 10.800 1.569 10.800 L 0.191 10.800 1.800 11.980 M6.820 13.858 C 6.754 13.906,6.457 14.123,6.160 14.339 C 5.863 14.555,5.606 14.745,5.588 14.760 C 5.570 14.776,6.114 15.196,6.795 15.694 L 8.035 16.600 9.406 16.600 C 10.751 16.600,10.776 16.599,10.699 16.525 C 10.630 16.459,7.085 13.854,6.980 13.792 C 6.958 13.779,6.886 13.809,6.820 13.858 " stroke="none" fill="black" fill-rule="evenodd"></path></svg>