<svg role="img" xmlns="http://www.w3.org/2000/svg" viewBox="0 0 24 24"><path d="M13.133 0.041 C 11.832 0.172,10.352 1.143,9.808 2.223 C 9.605 2.624,9.540 2.918,9.541 3.420 C 9.542 3.973,9.623 4.321,9.879 4.867 C 10.189 5.529,10.516 5.956,11.422 6.880 C 12.254 7.728,12.467 8.063,12.561 8.668 C 12.640 9.177,12.466 9.712,12.094 10.100 C 11.581 10.635,10.747 10.912,9.972 10.803 C 9.153 10.689,8.565 10.311,8.284 9.720 C 8.198 9.539,8.180 9.442,8.180 9.174 C 8.180 8.866,8.188 8.837,8.320 8.648 C 8.509 8.378,8.786 8.158,9.207 7.943 C 9.400 7.844,9.545 7.756,9.529 7.746 C 9.513 7.737,9.356 7.696,9.180 7.655 C 8.690 7.541,7.901 7.558,7.392 7.692 C 6.198 8.007,5.412 8.720,5.044 9.821 C 4.787 10.589,4.797 10.283,4.800 17.438 C 4.801 21.012,4.807 23.940,4.813 23.946 C 4.818 23.951,5.076 23.655,5.387 23.288 C 6.394 22.095,8.804 19.436,9.385 18.876 C 9.904 18.376,10.372 18.072,10.861 17.919 C 10.965 17.886,11.465 17.859,12.300 17.840 C 13.656 17.809,13.930 17.777,14.760 17.546 C 16.538 17.052,18.114 15.854,19.286 14.105 C 20.727 11.955,21.097 9.464,20.333 7.060 C 20.168 6.542,19.811 5.789,19.517 5.340 C 19.139 4.763,18.279 3.988,17.920 3.900 L 17.820 3.876 17.833 4.259 C 17.848 4.708,17.779 4.970,17.589 5.186 C 17.244 5.580,16.675 5.599,15.932 5.243 C 15.489 5.030,15.168 4.807,14.787 4.444 C 14.117 3.806,13.833 3.163,13.976 2.604 C 14.135 1.983,14.666 1.467,15.353 1.265 C 15.636 1.182,16.200 1.145,16.508 1.190 C 16.645 1.210,16.747 1.211,16.735 1.192 C 16.691 1.121,16.122 0.762,15.779 0.590 C 14.889 0.142,13.987 -0.044,13.133 0.041 " stroke="none" fill="black" fill-rule="evenodd"></path></svg>