<svg role="img" viewBox="0 0 24 24" xmlns="http://www.w3.org/2000/svg"><path d="M21.220 0.304 C 19.483 4.492,17.804 7.941,16.130 10.760 C 12.236 17.315,8.038 21.401,3.380 23.168 C 2.783 23.394,1.829 23.675,1.289 23.783 C 1.043 23.833,0.943 23.867,0.993 23.885 C 1.169 23.950,2.823 24.011,3.780 23.987 C 7.760 23.887,11.553 22.923,15.300 21.059 C 17.801 19.815,19.976 18.326,21.574 16.762 C 22.695 15.665,22.901 15.279,23.107 13.891 C 23.193 13.309,23.205 11.251,23.127 10.360 C 22.931 8.118,22.632 6.118,22.078 3.340 C 21.845 2.175,21.426 0.277,21.364 0.111 C 21.339 0.043,21.314 0.076,21.220 0.304 M16.982 6.350 C 16.127 8.615,14.804 11.104,13.292 13.288 C 12.272 14.761,11.258 15.986,10.102 17.140 C 8.664 18.575,7.218 19.621,5.891 20.187 C 5.654 20.288,5.451 20.380,5.440 20.391 C 5.405 20.425,7.040 20.366,7.508 20.316 L 7.957 20.268 8.553 19.757 C 11.144 17.533,13.651 14.344,16.023 10.255 C 16.689 9.105,17.520 7.552,17.520 7.457 C 17.520 7.374,17.209 5.875,17.187 5.854 C 17.180 5.847,17.088 6.070,16.982 6.350 " stroke="none" fill="black" fill-rule="evenodd"></path></svg>