<svg role="img" viewBox="0 0 24 24" xmlns="http://www.w3.org/2000/svg"><path d="M7.200 11.100 L 7.200 13.760 7.660 13.760 L 8.120 13.760 8.120 11.100 L 8.120 8.440 7.660 8.440 L 7.200 8.440 7.200 11.100 M17.000 11.100 L 17.000 13.760 17.479 13.760 L 17.959 13.760 17.969 12.813 L 17.980 11.866 18.677 12.833 C 19.061 13.365,19.394 13.800,19.417 13.800 C 19.441 13.801,19.645 13.735,19.871 13.655 C 20.240 13.524,20.276 13.502,20.226 13.444 C 20.196 13.409,19.870 13.005,19.501 12.548 C 18.834 11.718,18.832 11.715,18.906 11.628 C 18.947 11.580,19.221 11.283,19.516 10.969 C 19.810 10.655,20.044 10.392,20.036 10.384 C 20.027 10.376,19.868 10.305,19.682 10.224 L 19.343 10.079 19.257 10.169 C 19.210 10.219,18.923 10.548,18.619 10.900 C 18.315 11.252,18.042 11.546,18.013 11.553 C 17.970 11.564,17.960 11.283,17.960 10.003 L 17.960 8.440 17.480 8.440 L 17.000 8.440 17.000 11.100 M1.074 10.095 C 0.264 10.269,-0.058 11.087,0.453 11.669 C 0.521 11.747,0.749 11.941,0.959 12.100 C 1.168 12.260,1.390 12.444,1.452 12.509 C 1.750 12.826,1.535 13.280,1.086 13.280 C 0.918 13.280,0.656 13.178,0.469 13.041 L 0.306 12.922 0.156 13.171 L 0.005 13.420 0.092 13.490 C 0.247 13.614,0.574 13.758,0.795 13.799 C 1.802 13.989,2.630 13.450,2.548 12.659 C 2.510 12.288,2.402 12.153,1.675 11.576 C 1.398 11.356,1.192 11.162,1.179 11.109 C 1.144 10.970,1.246 10.710,1.360 10.649 C 1.494 10.578,1.826 10.611,2.030 10.715 L 2.190 10.797 2.317 10.592 C 2.387 10.480,2.435 10.366,2.425 10.338 C 2.384 10.233,1.694 10.034,1.400 10.044 C 1.345 10.045,1.198 10.069,1.074 10.095 M4.780 10.096 C 4.507 10.164,4.342 10.256,4.114 10.470 L 3.920 10.651 3.920 10.385 L 3.920 10.120 3.460 10.120 L 3.000 10.120 3.000 12.840 L 3.000 15.560 3.460 15.560 L 3.920 15.560 3.920 14.412 L 3.920 13.263 4.110 13.447 C 4.364 13.694,4.590 13.800,4.914 13.828 C 5.421 13.870,5.865 13.693,6.238 13.299 C 6.930 12.567,6.941 11.179,6.261 10.499 C 5.879 10.117,5.315 9.964,4.780 10.096 M14.725 10.081 C 14.477 10.133,14.236 10.258,14.024 10.445 L 13.840 10.607 13.840 10.363 L 13.840 10.120 13.360 10.120 L 12.880 10.120 12.880 11.940 L 12.880 13.760 13.358 13.760 L 13.836 13.760 13.848 12.510 L 13.860 11.260 13.961 11.081 C 14.101 10.830,14.328 10.710,14.661 10.710 C 14.956 10.710,15.134 10.798,15.260 11.007 C 15.334 11.131,15.341 11.231,15.360 12.440 L 15.380 13.740 15.852 13.751 L 16.325 13.763 16.312 12.331 L 16.300 10.900 16.187 10.671 C 15.996 10.280,15.679 10.092,15.160 10.060 C 15.017 10.051,14.821 10.060,14.725 10.081 M8.769 11.530 C 8.783 12.738,8.795 12.966,8.854 13.122 C 8.953 13.387,9.130 13.579,9.391 13.707 C 9.596 13.808,9.662 13.820,10.020 13.820 C 10.371 13.820,10.448 13.806,10.651 13.711 C 10.778 13.652,10.962 13.538,11.059 13.459 L 11.236 13.314 11.248 13.527 L 11.260 13.740 11.730 13.751 L 12.200 13.763 12.200 11.941 L 12.200 10.120 11.745 10.120 L 11.289 10.120 11.269 11.310 C 11.247 12.635,11.231 12.729,10.994 12.966 C 10.735 13.225,10.215 13.260,9.972 13.033 C 9.743 12.819,9.741 12.807,9.727 11.410 L 9.715 10.120 9.234 10.120 L 8.754 10.120 8.769 11.530 M21.120 10.513 L 21.120 10.827 22.230 11.368 L 23.340 11.909 22.230 12.463 L 21.120 13.017 21.120 13.326 L 21.120 13.635 22.560 12.930 L 24.000 12.225 24.000 11.922 L 24.000 11.619 22.580 10.910 C 21.799 10.519,21.151 10.200,21.140 10.200 C 21.129 10.200,21.120 10.341,21.120 10.513 M5.039 10.643 C 5.305 10.704,5.471 10.853,5.614 11.156 C 5.730 11.402,5.739 11.451,5.739 11.860 C 5.739 12.714,5.444 13.221,4.918 13.271 C 4.515 13.310,4.163 13.059,4.011 12.624 C 3.911 12.336,3.911 11.582,4.013 11.291 C 4.119 10.987,4.370 10.726,4.620 10.659 C 4.867 10.593,4.827 10.594,5.039 10.643 " stroke="none" fill="black" fill-rule="evenodd"></path></svg>