<svg role="img" xmlns="http://www.w3.org/2000/svg" viewBox="0 0 24 24"><path d="M2.741 7.423 C 1.741 7.610,0.836 8.176,0.487 8.834 C 0.165 9.439,0.153 10.286,0.457 10.940 C 0.777 11.631,1.601 12.145,3.374 12.758 C 4.363 13.101,4.852 13.389,4.985 13.707 C 5.056 13.875,5.056 14.325,4.985 14.493 C 4.915 14.662,4.608 14.931,4.413 14.995 C 4.180 15.071,3.607 15.096,3.303 15.043 C 2.526 14.908,2.142 14.544,2.089 13.892 L 2.069 13.640 1.029 13.640 L -0.012 13.640 0.015 13.983 C 0.068 14.681,0.377 15.291,0.898 15.730 C 1.248 16.024,1.937 16.367,2.460 16.508 C 2.840 16.611,2.906 16.616,3.780 16.616 C 4.654 16.616,4.720 16.611,5.098 16.508 C 5.709 16.343,6.122 16.120,6.482 15.761 C 6.970 15.274,7.158 14.812,7.159 14.096 C 7.160 13.429,6.943 12.842,6.541 12.423 C 6.111 11.976,5.409 11.595,4.320 11.220 C 3.556 10.957,2.900 10.675,2.679 10.515 C 2.015 10.034,2.358 9.134,3.272 8.958 C 3.849 8.846,4.427 8.990,4.738 9.322 C 4.947 9.545,5.019 9.691,5.061 9.971 L 5.089 10.161 6.095 10.151 L 7.100 10.140 7.096 9.837 C 7.080 8.776,6.194 7.823,4.900 7.475 C 4.476 7.360,3.234 7.331,2.741 7.423 M8.490 11.987 L 8.500 16.580 9.570 16.591 L 10.640 16.601 10.640 15.021 L 10.640 13.440 11.390 13.439 C 12.254 13.439,12.769 13.393,13.213 13.279 C 14.313 12.995,15.147 12.208,15.401 11.216 C 15.510 10.789,15.510 10.051,15.401 9.624 C 15.273 9.123,15.076 8.790,14.662 8.379 C 14.285 8.003,13.966 7.801,13.490 7.636 C 12.904 7.432,12.869 7.429,10.610 7.411 L 8.480 7.394 8.490 11.987 M18.107 7.430 C 18.069 7.493,14.960 16.504,14.960 16.551 C 14.960 16.588,15.192 16.600,15.936 16.600 C 16.828 16.600,16.914 16.594,16.939 16.530 C 17.000 16.372,20.133 7.534,20.150 7.470 C 20.168 7.405,20.101 7.400,19.147 7.400 C 18.585 7.400,18.117 7.413,18.107 7.430 M21.788 7.810 C 21.710 8.035,20.997 10.097,20.203 12.391 C 19.409 14.685,18.760 16.571,18.760 16.581 C 18.760 16.620,20.715 16.600,20.739 16.561 C 20.759 16.529,23.417 9.060,23.861 7.790 L 23.997 7.400 22.964 7.400 L 21.930 7.400 21.788 7.810 M12.663 9.200 C 13.134 9.441,13.362 9.844,13.358 10.435 C 13.355 11.132,12.982 11.613,12.342 11.748 C 12.199 11.778,11.803 11.799,11.370 11.799 L 10.640 11.800 10.640 10.417 L 10.640 9.033 11.514 9.047 L 12.388 9.060 12.663 9.200 " stroke="none" fill="black" fill-rule="evenodd"></path></svg>