<svg role="img" viewBox="0 0 24 24" xmlns="http://www.w3.org/2000/svg"><path d="M12.500 4.041 C 8.381 4.339,4.616 5.690,0.865 8.214 C 0.136 8.704,0.000 8.836,0.000 9.051 C -0.000 9.206,2.327 14.473,2.454 14.604 C 2.631 14.788,2.740 14.781,3.473 14.538 C 5.589 13.834,7.590 13.383,9.420 13.197 C 10.474 13.089,12.004 13.152,12.760 13.334 L 12.980 13.387 12.780 13.416 C 10.829 13.699,8.991 14.375,7.469 15.370 C 6.552 15.970,6.369 16.151,6.412 16.416 C 6.423 16.484,6.615 16.952,6.838 17.456 C 7.062 17.959,7.388 18.706,7.564 19.116 C 8.034 20.212,8.081 20.229,8.658 19.537 C 9.084 19.027,9.595 18.658,10.460 18.238 C 12.035 17.473,13.768 16.940,15.531 16.681 C 16.467 16.543,17.113 16.508,18.313 16.532 L 19.446 16.554 19.565 16.447 C 19.671 16.352,19.747 16.142,20.222 14.627 C 20.518 13.685,20.760 12.853,20.760 12.779 C 20.760 12.543,20.680 12.444,20.281 12.180 C 17.134 10.106,12.458 9.213,7.620 9.763 C 7.246 9.805,6.913 9.839,6.880 9.837 C 6.806 9.833,7.366 9.567,7.881 9.360 C 10.557 8.289,13.811 7.956,16.840 8.445 C 18.549 8.721,20.346 9.284,21.960 10.050 C 22.492 10.302,22.684 10.339,22.862 10.222 C 22.915 10.188,22.984 10.110,23.015 10.050 C 23.102 9.881,24.000 6.982,24.000 6.870 C 24.000 6.659,23.841 6.515,23.300 6.233 C 21.489 5.292,19.093 4.539,16.900 4.222 C 15.647 4.042,13.634 3.958,12.500 4.041 " stroke="none" fill="black" fill-rule="evenodd"></path></svg>