<svg role="img" viewBox="0 0 24 24" xmlns="http://www.w3.org/2000/svg"><path d="M10.940 0.046 C 6.260 0.450,2.189 3.634,0.659 8.086 C -0.838 12.440,0.267 17.227,3.520 20.480 C 6.777 23.737,11.546 24.836,15.924 23.337 C 19.350 22.165,22.136 19.391,23.321 15.974 C 25.279 10.329,22.855 4.165,17.580 1.376 C 15.589 0.323,13.221 -0.152,10.940 0.046 M15.600 5.494 L 15.600 6.229 15.190 6.251 C 13.832 6.324,12.573 6.902,11.558 7.918 C 10.863 8.612,10.410 9.348,10.128 10.240 C 9.999 10.651,9.880 11.272,9.880 11.542 C 9.880 11.634,9.869 11.766,9.855 11.835 L 9.830 11.960 9.109 11.960 L 8.388 11.960 8.412 11.503 C 8.536 9.202,9.869 7.011,11.883 5.798 C 12.933 5.165,14.197 4.787,15.330 4.765 L 15.600 4.760 15.600 5.494 M15.600 12.239 C 15.600 12.609,15.498 13.321,15.381 13.774 C 15.243 14.303,15.102 14.680,14.854 15.180 C 13.705 17.494,11.425 19.009,8.830 19.182 L 8.400 19.211 8.400 18.465 L 8.400 17.720 8.645 17.720 C 9.269 17.720,10.288 17.458,10.943 17.128 C 12.214 16.489,13.223 15.395,13.733 14.100 C 13.971 13.495,14.049 13.133,14.143 12.190 L 14.166 11.960 14.883 11.960 L 15.600 11.960 15.600 12.239 " stroke="none" fill="black" fill-rule="evenodd"></path></svg>