<svg role="img" viewBox="0 0 24 24" xmlns="http://www.w3.org/2000/svg"><path d="M10.560 0.067 C 8.955 0.157,8.039 0.303,7.060 0.627 C 4.160 1.587,1.713 3.961,0.743 6.757 C 0.360 7.861,0.263 8.468,0.262 9.780 C 0.262 10.702,0.273 10.877,0.356 11.320 C 0.674 13.022,1.367 14.481,2.460 15.753 C 3.104 16.500,3.695 16.988,4.875 17.743 C 5.147 17.918,5.378 18.082,5.389 18.109 C 5.399 18.136,5.334 18.295,5.244 18.462 C 4.685 19.498,3.602 20.327,2.192 20.799 L 1.746 20.948 2.166 21.173 C 3.711 22.002,5.287 22.654,6.820 23.099 C 10.345 24.122,13.868 24.282,16.360 23.533 C 18.013 23.037,19.442 22.201,20.692 21.000 C 21.665 20.065,22.325 19.174,22.839 18.100 C 23.509 16.700,23.791 15.343,23.750 13.711 C 23.712 12.211,23.398 10.974,22.719 9.641 C 21.684 7.611,19.900 5.983,17.747 5.104 C 17.568 5.031,17.569 5.017,17.787 4.581 C 18.261 3.631,19.320 2.755,20.618 2.239 L 20.857 2.144 20.558 2.008 C 18.517 1.076,16.193 0.433,13.960 0.182 C 12.900 0.063,11.486 0.015,10.560 0.067 M15.695 7.077 C 16.647 7.270,17.706 7.723,18.480 8.270 C 18.968 8.615,19.746 9.393,20.090 9.880 C 20.800 10.888,21.273 12.158,21.398 13.394 C 21.636 15.748,20.676 18.143,18.898 19.634 C 17.590 20.731,16.008 21.431,14.320 21.661 C 13.269 21.804,11.278 21.782,10.246 21.617 C 9.017 21.419,7.536 21.008,6.567 20.594 L 6.394 20.520 6.720 20.150 C 7.130 19.684,7.499 19.135,7.747 18.621 L 7.940 18.221 7.940 17.781 C 7.940 17.348,7.937 17.333,7.764 16.940 C 7.267 15.806,7.087 14.889,7.134 13.720 C 7.173 12.724,7.376 11.901,7.805 11.001 C 8.824 8.864,10.830 7.394,13.240 7.018 C 13.782 6.933,15.148 6.966,15.695 7.077 " stroke="none" fill="black" fill-rule="evenodd"></path></svg>