<svg role="img" viewBox="0 0 24 24" xmlns="http://www.w3.org/2000/svg"><path d="M11.135 1.881 C 8.638 2.124,6.475 3.150,4.756 4.906 C 3.217 6.479,2.302 8.316,1.952 10.537 C 1.885 10.961,1.868 11.273,1.862 12.180 C 1.855 13.142,1.844 13.328,1.782 13.500 C 1.586 14.048,1.273 14.357,0.530 14.734 L 0.000 15.003 0.000 16.044 L 0.000 17.085 1.070 16.537 C 2.163 15.978,3.274 15.411,5.260 14.400 C 5.876 14.086,6.830 13.600,7.380 13.319 C 7.930 13.039,9.325 12.328,10.480 11.740 C 11.635 11.152,12.994 10.459,13.500 10.201 C 14.006 9.942,15.059 9.405,15.840 9.008 C 16.621 8.610,17.827 7.996,18.520 7.642 C 19.213 7.289,20.729 6.518,21.889 5.930 L 23.999 4.860 23.999 3.830 C 24.000 3.264,23.989 2.800,23.976 2.800 C 23.963 2.800,22.419 3.582,20.546 4.538 C 18.673 5.493,14.134 7.806,10.460 9.677 L 3.780 13.079 3.751 12.929 C 3.693 12.636,3.711 11.318,3.779 10.860 C 4.325 7.155,7.150 4.330,10.860 3.779 C 11.455 3.690,12.519 3.689,13.133 3.776 C 14.032 3.904,14.908 4.174,15.680 4.560 L 16.060 4.751 16.760 4.398 C 17.145 4.204,17.574 3.984,17.713 3.909 L 17.965 3.772 17.533 3.493 C 16.268 2.676,14.943 2.176,13.460 1.957 C 12.858 1.867,11.670 1.828,11.135 1.881 M21.500 8.194 C 20.136 8.891,18.300 9.827,17.420 10.275 C 12.117 12.975,6.707 15.730,5.480 16.357 C 4.699 16.755,3.147 17.544,2.031 18.111 L 0.002 19.140 0.001 20.170 C 0.000 20.737,0.012 21.200,0.026 21.200 C 0.040 21.200,0.576 20.932,1.216 20.604 C 1.856 20.277,3.289 19.546,4.400 18.980 C 5.511 18.414,6.942 17.685,7.580 17.360 C 11.159 15.534,17.039 12.540,18.460 11.819 C 19.362 11.362,20.123 10.970,20.151 10.948 C 20.179 10.926,20.211 10.918,20.223 10.929 C 20.288 10.994,20.325 12.005,20.283 12.552 C 20.124 14.625,19.302 16.427,17.864 17.863 C 17.161 18.564,16.560 18.999,15.697 19.431 C 14.517 20.022,13.350 20.292,11.980 20.291 C 10.588 20.291,9.329 19.988,8.180 19.377 L 7.941 19.249 7.240 19.602 C 6.855 19.796,6.426 20.016,6.287 20.091 L 6.034 20.229 6.447 20.497 C 6.990 20.849,7.989 21.345,8.576 21.554 C 11.627 22.636,14.969 22.225,17.641 20.438 C 18.693 19.735,19.733 18.696,20.432 17.650 C 21.641 15.842,22.227 13.747,22.142 11.540 C 22.121 10.985,22.128 10.816,22.179 10.623 C 22.342 10.012,22.655 9.680,23.443 9.280 L 24.000 8.997 24.000 7.959 C 24.000 7.387,23.996 6.922,23.990 6.923 C 23.984 6.925,22.864 7.497,21.500 8.194 " stroke="none" fill="black" fill-rule="evenodd"></path></svg>