<svg role="img" viewBox="0 0 24 24" xmlns="http://www.w3.org/2000/svg"><path d="M15.348 0.070 C 15.339 0.087,15.119 0.667,14.859 1.360 C 14.599 2.053,14.376 2.632,14.363 2.648 C 14.350 2.663,14.160 2.704,13.940 2.739 C 13.257 2.847,12.333 3.111,11.719 3.374 L 11.577 3.434 10.499 2.540 C 9.906 2.049,9.415 1.652,9.408 1.659 C 9.401 1.666,9.487 2.264,9.598 2.989 C 9.709 3.714,9.800 4.344,9.800 4.389 C 9.800 4.442,9.703 4.549,9.525 4.693 C 9.006 5.112,8.395 5.768,8.018 6.309 C 7.953 6.402,7.873 6.478,7.840 6.478 C 7.807 6.478,7.159 6.372,6.400 6.243 C 5.641 6.113,5.016 6.011,5.011 6.016 C 5.006 6.020,5.426 6.534,5.943 7.158 C 6.460 7.782,6.892 8.307,6.903 8.326 C 6.915 8.344,6.862 8.553,6.786 8.790 C 6.620 9.306,6.461 10.003,6.394 10.515 L 6.344 10.890 6.182 10.957 C 6.093 10.994,5.440 11.239,4.730 11.500 C 4.020 11.761,3.440 11.986,3.440 12.000 C 3.440 12.014,4.083 12.264,4.870 12.557 C 5.657 12.849,6.304 13.092,6.309 13.096 C 6.314 13.101,6.347 13.311,6.381 13.562 C 6.460 14.138,6.613 14.831,6.766 15.311 C 6.831 15.514,6.871 15.703,6.854 15.730 C 6.837 15.757,6.421 16.264,5.927 16.858 C 5.434 17.451,5.048 17.943,5.069 17.950 C 5.090 17.957,5.708 17.872,6.441 17.760 C 7.175 17.649,7.788 17.563,7.803 17.569 C 7.819 17.575,7.945 17.733,8.083 17.920 C 8.412 18.366,9.112 19.079,9.515 19.380 C 9.692 19.512,9.836 19.638,9.836 19.660 C 9.835 19.682,9.731 20.294,9.605 21.020 C 9.478 21.746,9.379 22.346,9.384 22.354 C 9.390 22.362,9.892 21.968,10.500 21.478 L 11.605 20.588 12.090 20.740 C 12.651 20.915,13.539 21.102,13.998 21.142 L 14.315 21.170 14.372 21.315 C 14.404 21.395,14.633 22.009,14.881 22.680 C 15.129 23.351,15.344 23.914,15.359 23.931 C 15.374 23.949,15.618 23.340,15.900 22.579 C 16.183 21.819,16.429 21.187,16.448 21.175 C 16.466 21.164,16.720 21.121,17.011 21.080 C 17.931 20.950,18.519 20.814,19.262 20.558 C 19.791 20.376,20.520 20.048,20.520 19.992 C 20.520 19.954,19.891 17.151,19.856 17.033 C 19.839 16.974,19.793 16.985,19.498 17.121 C 18.326 17.660,17.022 17.961,15.868 17.959 C 13.222 17.955,11.339 16.620,10.519 14.167 C 10.281 13.456,10.194 12.883,10.190 12.020 C 10.183 10.250,10.654 8.771,11.591 7.626 C 12.288 6.775,13.309 6.187,14.569 5.914 C 15.107 5.797,16.369 5.768,17.013 5.858 C 17.927 5.985,18.736 6.236,19.337 6.579 C 19.511 6.679,19.665 6.760,19.679 6.760 C 19.706 6.760,20.604 3.735,20.601 3.654 C 20.599 3.593,19.884 3.283,19.340 3.109 C 18.556 2.857,17.584 2.673,16.737 2.616 L 16.334 2.590 15.861 1.315 C 15.601 0.614,15.383 0.040,15.376 0.040 C 15.370 0.040,15.357 0.053,15.348 0.070 " stroke="none" fill="black" fill-rule="evenodd"></path></svg>