<svg role="img" viewBox="0 0 24 24" xmlns="http://www.w3.org/2000/svg"><path d="M0.000 6.404 C 0.000 8.920,0.010 9.564,0.050 9.549 C 0.077 9.538,0.334 9.435,0.620 9.320 C 5.525 7.351,13.849 5.066,21.760 3.517 C 22.431 3.386,22.998 3.271,23.020 3.262 C 23.042 3.254,17.872 3.245,11.530 3.243 L 0.000 3.240 0.000 6.404 M23.640 4.686 C 23.519 4.707,22.817 4.823,22.080 4.944 C 16.189 5.914,10.513 7.482,7.603 8.945 C 6.856 9.320,6.443 9.610,6.274 9.875 C 6.127 10.108,6.128 10.241,6.282 10.416 C 6.581 10.757,7.549 10.868,9.261 10.759 C 10.547 10.677,13.004 10.455,15.480 10.196 C 18.705 9.860,19.330 9.796,20.360 9.702 C 21.473 9.599,22.693 9.499,23.300 9.460 C 23.498 9.448,23.737 9.428,23.830 9.416 L 24.000 9.395 24.000 7.018 C 24.000 4.778,23.996 4.640,23.930 4.645 C 23.892 4.647,23.761 4.666,23.640 4.686 M15.700 12.684 C 14.144 12.768,11.970 12.955,9.220 13.242 C 5.516 13.629,3.118 13.855,1.420 13.979 C 0.958 14.013,0.449 14.051,0.290 14.064 L -0.000 14.087 0.000 16.648 L 0.000 19.209 0.190 19.182 C 6.936 18.216,14.067 16.433,17.368 14.887 C 18.839 14.199,19.464 13.560,19.095 13.121 C 18.746 12.706,17.728 12.575,15.700 12.684 M23.740 14.545 C 22.689 14.974,20.175 15.840,18.340 16.405 C 12.982 18.055,5.518 19.829,0.760 20.584 C 0.375 20.645,0.043 20.709,0.022 20.727 C 0.001 20.745,5.388 20.760,11.992 20.760 L 24.000 20.760 24.000 17.600 C 24.000 15.862,23.996 14.442,23.990 14.444 C 23.984 14.445,23.872 14.491,23.740 14.545 M1.168 15.570 C 1.287 15.664,1.293 15.790,1.184 15.899 C 1.063 16.021,0.986 16.026,0.880 15.920 C 0.674 15.714,0.940 15.391,1.168 15.570 M2.023 15.620 C 2.113 15.756,2.070 15.898,1.921 15.960 C 1.757 16.028,1.600 15.931,1.600 15.762 C 1.600 15.523,1.895 15.424,2.023 15.620 M1.233 17.172 C 1.279 17.269,1.277 17.298,1.222 17.382 C 1.105 17.560,0.800 17.480,0.800 17.270 C 0.800 17.033,1.131 16.958,1.233 17.172 M2.007 17.106 C 2.219 17.298,1.941 17.579,1.677 17.439 C 1.575 17.384,1.570 17.141,1.670 17.083 C 1.775 17.022,1.925 17.032,2.007 17.106 " stroke="none" fill="black" fill-rule="evenodd"></path></svg>