<svg role="img" viewBox="0 0 24 24" xmlns="http://www.w3.org/2000/svg"><path d="M14.180 0.026 C 13.131 0.109,12.066 0.416,11.220 0.878 C 10.881 1.064,5.177 4.687,4.851 4.924 C 4.458 5.209,3.679 6.025,3.404 6.438 C 2.117 8.373,1.929 10.728,2.887 12.907 L 3.049 13.275 2.903 13.515 C 2.215 14.648,1.891 16.168,2.043 17.552 C 2.227 19.231,2.961 20.701,4.225 21.920 C 5.073 22.739,5.970 23.276,7.086 23.633 C 8.933 24.225,11.007 24.044,12.700 23.145 C 13.130 22.916,18.777 19.324,19.161 19.035 C 19.572 18.725,20.207 18.056,20.505 17.619 C 21.033 16.845,21.400 15.928,21.561 14.980 C 21.638 14.526,21.646 14.364,21.628 13.700 C 21.599 12.661,21.438 11.947,21.038 11.089 L 20.884 10.757 21.027 10.513 C 22.138 8.618,22.233 6.210,21.277 4.203 C 20.418 2.400,18.848 1.011,16.960 0.384 C 16.081 0.092,15.040 -0.042,14.180 0.026 M15.500 2.765 C 17.180 3.044,18.593 4.337,19.027 5.992 C 19.111 6.312,19.130 6.478,19.134 6.940 C 19.137 7.271,19.117 7.598,19.086 7.740 C 19.036 7.969,18.882 8.529,18.863 8.550 C 18.858 8.555,18.648 8.422,18.397 8.254 C 17.858 7.893,17.135 7.530,16.585 7.344 L 16.190 7.211 16.183 6.935 C 16.174 6.562,16.072 6.284,15.855 6.043 C 15.511 5.660,14.950 5.505,14.475 5.661 C 14.215 5.747,8.664 9.290,8.412 9.531 C 7.815 10.104,7.998 11.111,8.773 11.507 C 9.057 11.653,9.531 11.682,9.820 11.572 C 9.930 11.530,10.550 11.157,11.197 10.744 C 12.504 9.911,12.686 9.810,13.144 9.665 C 13.619 9.513,13.928 9.469,14.480 9.471 C 15.449 9.476,16.336 9.774,17.108 10.356 C 19.000 11.781,19.428 14.383,18.062 16.157 C 17.672 16.664,17.436 16.832,14.394 18.766 C 12.781 19.792,11.343 20.696,11.200 20.774 C 11.057 20.852,10.751 20.979,10.520 21.056 C 9.372 21.439,8.058 21.297,6.992 20.675 C 5.973 20.081,5.221 19.101,4.911 17.967 C 4.789 17.517,4.789 16.492,4.911 15.976 C 4.959 15.775,5.016 15.564,5.038 15.505 L 5.078 15.399 5.549 15.715 C 6.136 16.109,6.641 16.365,7.260 16.583 L 7.740 16.752 7.735 16.886 C 7.701 17.718,8.286 18.375,9.058 18.372 C 9.219 18.372,9.415 18.343,9.514 18.306 C 9.659 18.252,14.330 15.303,15.261 14.678 C 15.569 14.472,15.724 14.281,15.825 13.984 C 15.962 13.580,15.816 13.058,15.474 12.739 C 15.229 12.510,14.977 12.395,14.660 12.370 C 14.242 12.336,14.081 12.410,12.797 13.226 C 11.536 14.027,11.249 14.180,10.702 14.338 C 9.671 14.637,8.574 14.541,7.580 14.064 C 6.311 13.455,5.451 12.363,5.153 10.980 C 5.124 10.842,5.103 10.503,5.105 10.180 C 5.109 9.711,5.126 9.555,5.215 9.220 C 5.419 8.448,5.890 7.700,6.468 7.232 C 6.716 7.031,7.385 6.598,11.420 4.026 C 12.740 3.184,13.110 2.988,13.671 2.834 C 14.207 2.687,14.879 2.662,15.500 2.765 " stroke="none" fill="black" fill-rule="evenodd"></path></svg>