<svg role="img" viewBox="0 0 24 24" xmlns="http://www.w3.org/2000/svg"><path d="M11.380 0.060 C 9.770 0.364,8.520 1.790,8.520 3.324 L 8.520 3.560 8.210 3.298 C 7.846 2.991,7.315 2.715,6.860 2.595 C 6.404 2.476,5.670 2.475,5.188 2.593 C 3.884 2.913,2.913 3.884,2.593 5.188 C 2.475 5.672,2.476 6.405,2.596 6.860 C 2.718 7.322,2.950 7.776,3.253 8.148 L 3.518 8.473 3.369 8.495 C 3.287 8.506,3.113 8.528,2.981 8.542 C 2.119 8.636,1.166 9.225,0.652 9.982 C -0.296 11.380,-0.202 13.039,0.898 14.331 C 1.476 15.010,2.469 15.480,3.324 15.480 L 3.560 15.480 3.298 15.790 C 2.991 16.154,2.714 16.686,2.596 17.140 C 2.477 17.598,2.476 18.333,2.593 18.812 C 2.913 20.116,3.884 21.087,5.188 21.407 C 5.667 21.524,6.402 21.523,6.860 21.404 C 7.314 21.286,7.846 21.009,8.210 20.702 L 8.520 20.440 8.520 20.676 C 8.520 22.055,9.538 23.372,10.960 23.833 C 13.057 24.513,15.327 22.992,15.468 20.815 L 15.491 20.449 15.796 20.706 C 16.154 21.009,16.689 21.287,17.140 21.404 C 17.594 21.522,18.330 21.523,18.812 21.406 C 20.111 21.090,21.088 20.114,21.407 18.812 C 21.524 18.334,21.523 17.598,21.404 17.140 C 21.290 16.698,21.009 16.158,20.705 15.796 L 20.449 15.491 20.815 15.468 C 22.194 15.379,23.386 14.421,23.833 13.040 C 24.513 10.943,22.993 8.673,20.815 8.532 L 20.449 8.509 20.706 8.204 C 21.009 7.846,21.287 7.311,21.404 6.860 C 21.522 6.406,21.523 5.670,21.406 5.188 C 21.090 3.885,20.118 2.913,18.812 2.593 C 18.330 2.475,17.596 2.476,17.140 2.595 C 16.688 2.714,16.153 2.991,15.796 3.294 L 15.491 3.551 15.468 3.185 C 15.339 1.186,13.374 -0.317,11.380 0.060 M12.621 1.720 C 12.741 1.762,12.939 1.862,13.060 1.942 C 13.964 2.542,14.166 3.851,13.485 4.696 L 13.360 4.851 13.360 6.795 L 13.360 8.740 14.727 7.373 L 16.094 6.006 16.126 5.733 C 16.196 5.142,16.606 4.579,17.167 4.303 C 18.104 3.841,19.234 4.227,19.697 5.167 C 20.159 6.104,19.773 7.234,18.833 7.697 C 18.636 7.794,18.450 7.852,18.267 7.874 L 17.994 7.906 16.627 9.273 L 15.260 10.640 17.215 10.640 L 19.169 10.640 19.313 10.514 C 19.808 10.079,20.656 9.985,21.298 10.295 C 21.985 10.625,22.371 11.238,22.371 12.000 C 22.371 13.168,21.395 14.016,20.214 13.874 C 19.909 13.837,19.524 13.671,19.313 13.486 L 19.169 13.360 17.215 13.360 L 15.260 13.360 16.627 14.727 L 17.994 16.094 18.267 16.126 C 18.858 16.196,19.421 16.606,19.697 17.167 C 20.159 18.104,19.773 19.234,18.833 19.697 C 17.896 20.159,16.766 19.773,16.303 18.833 C 16.206 18.636,16.148 18.450,16.126 18.267 L 16.094 17.994 14.727 16.627 L 13.360 15.260 13.360 17.205 L 13.360 19.149 13.485 19.304 C 14.162 20.143,13.962 21.460,13.068 22.053 C 12.422 22.482,11.578 22.482,10.932 22.053 C 10.038 21.460,9.838 20.143,10.515 19.304 L 10.640 19.149 10.640 17.205 L 10.640 15.260 9.273 16.627 L 7.906 17.994 7.874 18.267 C 7.852 18.450,7.794 18.636,7.697 18.833 C 7.234 19.773,6.104 20.159,5.167 19.697 C 4.227 19.234,3.841 18.104,4.303 17.167 C 4.579 16.606,5.142 16.196,5.733 16.126 L 6.006 16.094 7.373 14.727 L 8.740 13.360 6.795 13.360 L 4.851 13.360 4.696 13.485 C 3.959 14.079,2.830 14.009,2.166 13.329 C 1.893 13.049,1.732 12.732,1.649 12.313 C 1.593 12.031,1.593 11.969,1.649 11.687 C 1.732 11.268,1.893 10.951,2.166 10.671 C 2.830 9.991,3.959 9.921,4.696 10.515 L 4.851 10.640 6.795 10.640 L 8.740 10.640 7.373 9.273 L 6.006 7.906 5.740 7.874 C 5.371 7.830,4.937 7.615,4.662 7.341 C 3.747 6.426,4.005 4.876,5.167 4.303 C 6.104 3.841,7.234 4.227,7.697 5.167 C 7.794 5.364,7.852 5.550,7.874 5.733 L 7.906 6.006 9.273 7.373 L 10.640 8.740 10.640 6.795 L 10.640 4.851 10.515 4.696 C 10.065 4.138,9.982 3.359,10.301 2.686 C 10.705 1.832,11.719 1.410,12.621 1.720 " stroke="none" fill="black" fill-rule="evenodd"></path></svg>