<svg role="img" viewBox="0 0 24 24" xmlns="http://www.w3.org/2000/svg"><path d="M14.863 1.465 C 15.635 2.614,16.042 3.321,16.419 4.172 C 17.013 5.513,17.382 6.886,17.519 8.274 C 17.572 8.811,17.571 9.908,17.518 10.463 C 17.443 11.227,17.128 12.632,16.999 12.774 C 16.900 12.883,13.525 10.498,11.640 8.985 C 9.600 7.349,8.210 6.124,6.143 4.143 C 5.682 3.701,5.321 3.367,5.340 3.400 C 5.438 3.572,6.373 4.885,6.926 5.629 C 8.059 7.153,9.242 8.633,10.357 9.920 C 10.840 10.478,11.114 10.783,11.861 11.593 C 12.091 11.843,12.092 11.844,11.937 11.755 C 11.851 11.706,11.447 11.447,11.040 11.180 C 8.663 9.622,5.166 6.957,3.144 5.162 C 2.883 4.930,2.605 4.686,2.527 4.621 L 2.384 4.501 2.474 4.661 C 2.617 4.914,3.001 5.437,3.573 6.154 C 3.866 6.520,4.355 7.135,4.661 7.520 C 7.588 11.199,10.409 14.129,13.070 16.252 L 13.679 16.739 13.530 16.831 C 12.950 17.192,11.813 17.632,10.983 17.819 C 10.104 18.016,9.693 18.057,8.620 18.059 C 7.040 18.061,5.914 17.872,4.336 17.341 C 2.900 16.858,1.740 16.264,0.370 15.312 C 0.188 15.185,0.040 15.092,0.040 15.105 C 0.040 15.156,0.643 15.999,0.988 16.431 C 2.535 18.367,4.395 19.896,6.465 20.933 C 8.093 21.748,9.669 22.244,11.400 22.487 C 11.907 22.558,13.851 22.559,14.340 22.488 C 15.524 22.317,16.608 21.994,17.454 21.561 C 17.627 21.472,17.785 21.400,17.806 21.400 C 17.826 21.400,17.954 21.328,18.090 21.240 C 18.618 20.896,19.582 20.608,20.320 20.572 C 21.713 20.505,22.735 21.083,23.494 22.368 C 23.589 22.529,23.691 22.660,23.721 22.660 C 23.808 22.660,23.912 22.441,23.957 22.160 C 24.088 21.352,23.900 20.051,23.496 18.970 C 23.207 18.198,22.681 17.252,22.170 16.587 L 21.990 16.353 22.073 16.067 C 22.300 15.277,22.381 14.587,22.376 13.460 C 22.372 12.373,22.304 11.800,22.063 10.818 C 21.336 7.859,19.517 5.027,16.979 2.906 C 16.305 2.342,15.320 1.635,14.883 1.401 L 14.785 1.349 14.863 1.465 " stroke="none" fill="black" fill-rule="evenodd"></path></svg>