<svg xmlns="http://www.w3.org/2000/svg" role="img" viewBox="0 0 24 24"><path d="M5.003 1.115 C 3.006 2.120,2.780 2.244,2.715 2.365 C 2.647 2.493,2.643 2.773,2.643 7.580 C 2.643 11.491,2.654 12.680,2.691 12.746 C 2.718 12.793,3.775 13.691,5.040 14.741 C 6.305 15.791,7.372 16.680,7.411 16.717 C 7.479 16.781,7.480 16.851,7.426 18.142 C 7.395 18.889,7.384 19.537,7.401 19.583 C 7.438 19.680,12.768 23.914,12.931 23.976 C 13.034 24.015,13.370 23.855,17.125 21.979 C 19.370 20.858,21.233 19.904,21.264 19.861 C 21.295 19.818,21.319 19.719,21.318 19.641 C 21.317 19.503,21.255 19.450,18.720 17.380 L 16.124 15.260 16.122 8.793 L 16.120 2.326 16.015 2.243 C 15.957 2.197,15.867 2.160,15.815 2.160 C 15.712 2.160,12.153 3.923,12.170 3.966 C 12.175 3.980,12.326 4.109,12.503 4.252 L 12.827 4.512 12.853 7.906 C 12.888 12.348,12.887 14.561,12.850 14.558 C 12.833 14.556,11.659 13.597,10.240 12.425 L 7.660 10.296 7.640 5.244 L 7.620 0.193 7.508 0.097 C 7.446 0.043,7.356 0.000,7.308 0.000 C 7.259 0.000,6.222 0.502,5.003 1.115 M6.899 5.882 L 6.928 10.260 6.583 10.430 C 6.394 10.523,6.232 10.600,6.224 10.600 C 6.216 10.600,6.198 9.417,6.185 7.970 C 6.171 6.523,6.149 4.428,6.135 3.313 L 6.111 1.286 6.465 1.107 L 6.820 0.929 6.845 1.216 C 6.858 1.374,6.882 3.474,6.899 5.882 M5.448 2.810 C 5.458 3.454,5.463 3.985,5.459 3.991 C 5.455 3.997,5.114 3.731,4.701 3.401 C 4.288 3.070,3.943 2.800,3.935 2.800 C 3.927 2.800,3.920 3.043,3.920 3.340 L 3.920 3.879 4.700 4.499 L 5.480 5.120 5.480 5.701 L 5.480 6.282 4.770 5.715 C 4.380 5.403,4.029 5.121,3.990 5.088 C 3.924 5.031,3.920 5.058,3.921 5.584 L 3.922 6.140 4.721 6.772 L 5.520 7.405 5.516 7.792 C 5.513 8.006,5.500 8.285,5.486 8.414 L 5.460 8.649 4.705 8.044 C 4.290 7.712,3.943 7.440,3.935 7.440 C 3.927 7.440,3.920 7.682,3.920 7.978 L 3.920 8.516 4.718 9.148 L 5.516 9.780 5.518 10.370 C 5.519 10.722,5.504 10.960,5.482 10.960 C 5.460 10.960,5.082 10.681,4.641 10.340 C 4.200 9.999,3.831 9.720,3.820 9.720 C 3.809 9.720,3.800 9.962,3.800 10.258 L 3.800 10.795 4.220 11.084 C 4.451 11.242,4.640 11.378,4.640 11.386 C 4.640 11.393,4.334 11.553,3.960 11.740 L 3.280 12.080 3.280 7.390 L 3.280 2.699 4.330 2.172 C 4.907 1.882,5.391 1.644,5.405 1.642 C 5.419 1.641,5.439 2.167,5.448 2.810 M8.600 4.730 L 8.600 5.505 8.710 5.606 C 8.771 5.661,8.991 5.839,9.200 6.000 C 9.409 6.162,9.656 6.356,9.750 6.432 L 9.920 6.570 9.920 5.770 L 9.920 4.971 9.310 4.494 C 8.975 4.231,8.678 4.002,8.650 3.986 C 8.611 3.962,8.600 4.121,8.600 4.730 M11.010 8.050 L 11.020 10.260 11.220 10.273 C 11.571 10.296,11.794 10.102,11.947 9.640 C 12.048 9.335,12.049 8.435,11.948 7.967 C 11.847 7.499,11.661 6.960,11.461 6.554 C 11.299 6.228,11.059 5.840,11.018 5.840 C 11.008 5.840,11.004 6.835,11.010 8.050 M8.600 7.610 L 8.600 8.386 9.108 8.783 C 9.388 9.001,9.685 9.231,9.768 9.293 L 9.920 9.407 9.920 8.613 L 9.919 7.820 9.303 7.341 C 8.964 7.078,8.667 6.856,8.643 6.848 C 8.613 6.838,8.600 7.073,8.600 7.610 M17.507 8.882 C 17.241 8.958,17.122 9.199,17.121 9.664 C 17.119 10.239,17.339 10.877,17.749 11.484 C 17.956 11.791,18.278 12.116,18.711 12.457 L 18.960 12.652 18.960 12.956 C 18.960 13.181,18.980 13.292,19.034 13.381 C 19.134 13.544,21.157 15.215,21.259 15.218 C 21.339 15.220,21.340 15.197,21.352 13.200 C 21.360 11.817,21.350 11.132,21.320 11.028 C 21.281 10.896,21.133 10.758,20.191 9.976 C 19.584 9.472,19.079 9.082,19.043 9.089 C 18.994 9.098,18.977 9.164,18.968 9.391 L 18.956 9.681 18.568 9.365 C 18.033 8.929,17.767 8.808,17.507 8.882 M18.177 9.781 C 18.241 9.815,18.443 9.963,18.627 10.111 L 18.960 10.380 18.960 11.171 L 18.960 11.962 18.646 11.702 C 18.213 11.345,18.054 11.158,17.897 10.825 C 17.688 10.384,17.666 9.974,17.841 9.799 C 17.936 9.704,18.020 9.700,18.177 9.781 M9.938 13.016 C 11.380 14.201,12.560 15.178,12.560 15.186 C 12.560 15.218,8.948 17.003,8.904 16.992 C 8.878 16.985,7.674 16.008,6.229 14.820 L 3.601 12.660 5.410 11.752 C 6.406 11.252,7.241 10.847,7.268 10.852 C 7.294 10.856,8.496 11.830,9.938 13.016 " stroke="none" fill="black" fill-rule="evenodd"></path></svg>