<svg role="img" viewBox="0 0 24 24" xmlns="http://www.w3.org/2000/svg"><path d="M11.060 0.060 C 9.962 0.236,8.824 0.688,7.860 1.331 C 6.110 2.498,4.864 4.358,4.410 6.480 C 4.311 6.945,4.303 7.050,4.302 7.980 C 4.301 8.784,4.316 9.058,4.375 9.380 C 4.523 10.180,4.744 10.817,4.955 11.051 C 5.447 11.597,6.293 11.377,6.505 10.649 C 6.567 10.437,6.566 10.433,6.427 10.008 C 5.895 8.387,6.000 6.783,6.737 5.260 C 6.998 4.721,7.215 4.386,7.578 3.962 C 9.518 1.695,12.873 1.140,15.461 2.660 C 16.538 3.293,17.336 4.154,17.860 5.251 C 18.296 6.162,18.439 6.768,18.468 7.820 C 18.486 8.470,18.477 8.650,18.407 9.063 C 18.294 9.720,18.127 10.219,17.807 10.853 C 17.481 11.496,17.267 11.803,16.809 12.284 C 15.866 13.275,14.617 13.922,13.220 14.141 C 12.701 14.223,11.744 14.204,11.220 14.102 C 10.875 14.034,10.282 13.857,10.120 13.773 C 10.065 13.744,9.934 13.720,9.829 13.720 C 9.466 13.720,9.141 13.927,8.976 14.265 C 8.886 14.449,8.874 14.512,8.897 14.687 C 8.965 15.200,9.203 15.410,9.999 15.661 C 11.958 16.280,13.904 16.144,15.710 15.263 C 16.628 14.815,17.346 14.295,18.028 13.585 C 19.190 12.376,19.893 11.042,20.197 9.469 C 20.382 8.510,20.341 7.039,20.105 6.115 C 19.328 3.083,16.948 0.791,13.880 0.117 C 13.372 0.006,11.621 -0.030,11.060 0.060 M11.884 5.124 C 11.288 5.215,10.783 5.464,10.334 5.890 C 9.544 6.641,9.257 7.554,9.466 8.649 L 9.533 8.998 8.876 9.669 C 7.533 11.040,6.574 12.398,5.721 14.140 C 5.277 15.045,5.043 15.616,4.738 16.540 C 4.123 18.403,3.717 20.812,3.705 22.683 L 3.700 23.346 3.821 23.542 C 4.042 23.899,4.468 24.071,4.866 23.964 C 5.058 23.912,5.340 23.657,5.422 23.462 C 5.456 23.379,5.500 22.945,5.540 22.295 C 5.640 20.674,5.802 19.559,6.124 18.271 C 6.854 15.360,8.314 12.726,10.275 10.783 L 10.636 10.426 11.042 10.617 C 11.552 10.857,11.948 10.936,12.480 10.903 C 12.955 10.874,13.175 10.815,13.580 10.609 C 14.569 10.107,15.201 9.097,15.199 8.024 C 15.198 7.527,15.114 7.170,14.892 6.721 C 14.542 6.012,13.826 5.419,13.053 5.198 C 12.728 5.105,12.220 5.073,11.884 5.124 " stroke="none" fill="black" fill-rule="evenodd"></path></svg>