<svg xmlns="http://www.w3.org/2000/svg" role="img" viewBox="0 0 24 24"><path d="M11.105 0.044 C 10.250 0.134,9.475 0.359,8.700 0.741 C 7.040 1.559,5.791 3.112,5.098 5.220 C 4.663 6.545,4.480 7.757,4.480 9.318 L 4.480 10.097 3.802 11.798 C 2.797 14.320,2.284 15.928,2.036 17.340 C 1.913 18.037,1.900 19.198,2.012 19.486 C 2.052 19.589,2.112 19.684,2.146 19.697 C 2.390 19.790,3.052 19.073,3.914 17.782 L 4.260 17.264 4.288 17.582 C 4.376 18.585,4.753 19.627,5.354 20.526 C 5.669 20.997,6.139 21.550,6.438 21.802 C 6.549 21.896,6.640 21.983,6.640 21.997 C 6.640 22.010,6.456 22.083,6.230 22.159 C 5.415 22.435,4.694 22.862,4.539 23.163 C 4.443 23.348,4.462 23.580,4.582 23.674 C 4.709 23.774,5.083 23.861,5.680 23.928 C 6.620 24.034,10.254 23.981,11.650 23.840 C 11.852 23.820,12.148 23.820,12.350 23.840 C 13.746 23.981,17.380 24.034,18.320 23.928 C 18.923 23.860,19.291 23.774,19.423 23.671 C 19.520 23.594,19.527 23.568,19.510 23.366 C 19.493 23.156,19.480 23.133,19.262 22.930 C 19.006 22.692,18.315 22.336,17.720 22.136 C 17.533 22.073,17.372 22.016,17.362 22.009 C 17.352 22.003,17.440 21.914,17.557 21.811 C 17.877 21.531,18.334 20.992,18.645 20.527 C 19.250 19.622,19.631 18.574,19.713 17.590 L 19.740 17.260 20.015 17.680 C 20.669 18.680,21.421 19.574,21.696 19.678 C 21.846 19.736,21.907 19.696,21.988 19.486 C 22.100 19.197,22.087 18.036,21.964 17.340 C 21.715 15.925,21.203 14.319,20.198 11.798 L 19.520 10.097 19.520 9.318 C 19.520 7.757,19.337 6.545,18.902 5.220 C 18.437 3.807,17.785 2.732,16.840 1.828 C 15.759 0.791,14.444 0.204,12.846 0.042 C 12.373 -0.006,11.568 -0.005,11.105 0.044 M10.436 3.124 C 10.987 3.400,11.320 4.084,11.320 4.940 C 11.320 5.583,11.155 6.078,10.821 6.434 C 10.369 6.918,9.751 6.920,9.278 6.437 C 8.478 5.620,8.556 3.790,9.417 3.203 C 9.772 2.961,10.064 2.938,10.436 3.124 M14.420 3.102 C 14.917 3.340,15.231 3.946,15.268 4.740 C 15.292 5.256,15.228 5.591,15.030 5.993 C 14.606 6.855,13.760 7.056,13.178 6.434 C 12.839 6.071,12.680 5.591,12.680 4.926 C 12.680 4.083,13.016 3.400,13.567 3.121 C 13.781 3.013,13.854 2.996,14.040 3.009 C 14.161 3.018,14.332 3.060,14.420 3.102 M10.280 4.325 C 10.012 4.432,9.866 4.682,9.864 5.040 C 9.859 5.910,10.755 6.092,10.963 5.264 C 11.057 4.891,10.877 4.462,10.573 4.335 C 10.423 4.272,10.414 4.271,10.280 4.325 M13.758 4.596 C 13.518 4.645,13.247 4.800,13.100 4.971 C 12.953 5.143,12.929 5.233,13.008 5.312 C 13.084 5.388,13.171 5.369,13.329 5.239 C 13.634 4.987,13.972 4.934,14.319 5.083 C 14.425 5.129,14.554 5.161,14.606 5.153 C 14.714 5.138,14.817 4.956,14.781 4.844 C 14.729 4.678,14.099 4.526,13.758 4.596 M14.149 7.516 C 15.464 7.696,16.355 7.972,16.543 8.259 C 16.630 8.392,16.582 8.461,16.257 8.663 C 15.714 9.002,14.574 9.448,13.772 9.635 C 12.695 9.887,11.576 9.909,10.540 9.699 C 9.570 9.502,8.434 9.081,7.747 8.663 C 7.484 8.503,7.460 8.477,7.460 8.356 C 7.460 8.247,7.488 8.204,7.621 8.110 C 7.953 7.877,8.948 7.623,10.000 7.503 C 10.829 7.408,10.816 7.408,12.220 7.421 C 13.285 7.431,13.658 7.449,14.149 7.516 M7.230 13.660 C 7.268 13.673,7.282 14.079,7.290 15.429 L 7.300 17.180 7.620 17.227 C 8.335 17.333,9.321 17.376,9.934 17.329 C 10.258 17.304,10.540 17.272,10.561 17.259 C 10.585 17.244,10.600 16.626,10.600 15.646 L 10.600 14.057 11.597 14.073 C 13.396 14.103,15.097 13.954,17.153 13.586 C 17.526 13.519,17.691 13.504,17.701 13.535 C 17.733 13.635,17.801 14.299,17.844 14.920 C 17.897 15.682,17.867 16.871,17.777 17.558 C 17.407 20.399,15.841 22.247,13.327 22.811 C 12.990 22.886,12.819 22.898,12.000 22.898 C 10.983 22.898,10.714 22.861,9.980 22.620 C 7.927 21.948,6.554 20.099,6.223 17.560 C 6.134 16.873,6.104 15.719,6.156 14.940 C 6.198 14.307,6.266 13.639,6.299 13.535 C 6.310 13.503,6.437 13.512,6.747 13.567 C 6.985 13.609,7.202 13.651,7.230 13.660 " stroke="none" fill="black" fill-rule="evenodd"></path></svg>