<svg role="img" viewBox="0 0 24 24" xmlns="http://www.w3.org/2000/svg"><path d="M10.840 0.026 C 7.634 0.192,4.864 0.694,2.020 1.625 C 1.353 1.843,0.206 2.255,0.072 2.325 C -0.011 2.369,0.005 2.414,0.389 3.194 C 0.620 3.663,0.661 3.725,0.736 3.706 C 0.782 3.694,1.130 3.559,1.508 3.406 C 3.938 2.419,6.475 1.825,9.420 1.552 C 10.189 1.481,13.809 1.481,14.600 1.552 C 17.463 1.811,20.042 2.417,22.551 3.423 C 22.959 3.586,23.306 3.720,23.323 3.720 C 23.351 3.720,23.919 2.594,23.975 2.428 C 24.003 2.344,23.918 2.303,23.066 1.994 C 19.905 0.848,16.794 0.218,13.420 0.040 C 12.733 0.004,11.405 -0.003,10.840 0.026 M13.261 3.822 C 12.586 4.646,12.019 5.320,12.000 5.320 C 11.981 5.320,11.420 4.652,10.753 3.836 L 9.540 2.351 9.040 2.375 C 6.879 2.480,3.904 3.183,1.740 4.099 C 1.498 4.201,1.250 4.304,1.190 4.327 C 1.129 4.349,1.080 4.386,1.080 4.408 C 1.080 4.479,1.462 4.930,1.786 5.242 C 2.332 5.767,2.864 6.134,3.678 6.547 C 3.952 6.686,4.197 6.800,4.222 6.800 C 4.248 6.800,4.298 6.681,4.334 6.535 C 4.425 6.165,4.545 5.945,4.770 5.734 C 5.247 5.288,6.077 5.099,7.760 5.052 L 8.620 5.028 10.299 14.454 C 11.223 19.638,11.988 23.880,12.000 23.880 C 12.012 23.880,12.767 19.673,13.678 14.530 C 14.589 9.388,15.342 5.149,15.352 5.110 C 15.367 5.048,15.426 5.040,15.855 5.040 C 16.482 5.041,17.404 5.106,17.860 5.183 C 19.045 5.381,19.508 5.761,19.699 6.690 C 19.711 6.750,19.741 6.800,19.765 6.800 C 19.840 6.800,20.604 6.417,20.950 6.205 C 21.434 5.909,21.848 5.593,22.228 5.228 C 22.542 4.926,22.920 4.474,22.920 4.400 C 22.920 4.362,21.974 3.960,21.338 3.727 C 19.474 3.046,16.867 2.483,15.099 2.380 C 14.879 2.367,14.652 2.349,14.593 2.340 C 14.495 2.325,14.385 2.448,13.261 3.822 " stroke="none" fill="black" fill-rule="evenodd"></path></svg>