<svg role="img" viewBox="0 0 24 24" xmlns="http://www.w3.org/2000/svg"><path d="M0.900 0.056 C 0.519 0.176,0.229 0.439,0.096 0.782 C 0.022 0.975,0.020 1.258,0.020 12.020 L 0.020 23.060 0.131 23.286 C 0.259 23.547,0.490 23.772,0.755 23.895 L 0.940 23.980 12.000 23.980 L 23.060 23.980 23.286 23.869 C 23.547 23.741,23.772 23.510,23.895 23.245 L 23.980 23.060 23.980 12.000 L 23.980 0.940 23.895 0.755 C 23.772 0.490,23.547 0.259,23.286 0.131 L 23.060 0.020 21.545 0.008 L 20.030 -0.004 20.155 0.122 C 20.689 0.655,21.063 2.304,21.297 5.160 C 21.473 7.296,21.562 9.999,21.640 15.560 C 21.686 18.829,21.706 19.217,21.881 20.278 C 21.989 20.934,22.257 22.341,22.301 22.483 C 22.335 22.591,20.442 23.474,19.431 23.822 L 19.162 23.914 19.121 23.767 C 18.910 23.011,18.627 21.533,18.562 20.855 C 18.540 20.616,18.484 18.053,18.438 15.160 L 18.356 9.900 18.156 7.560 C 18.047 6.273,17.952 5.202,17.945 5.181 C 17.931 5.130,17.195 6.243,16.730 7.020 C 15.611 8.889,14.601 11.073,14.083 12.744 L 13.957 13.149 13.348 13.512 C 12.598 13.961,12.212 14.141,11.529 14.362 L 10.998 14.533 10.609 14.270 C 10.132 13.946,9.446 13.398,8.139 12.297 C 7.025 11.358,6.134 10.640,6.083 10.640 C 6.064 10.640,6.092 10.780,6.146 10.950 C 6.543 12.219,7.219 14.701,7.520 15.996 C 7.868 17.489,8.186 19.214,8.260 20.000 L 8.284 20.260 7.738 20.654 C 6.706 21.398,5.930 21.834,5.614 21.846 C 5.332 21.857,5.022 21.612,4.985 21.349 C 4.975 21.278,4.938 20.806,4.902 20.300 C 4.791 18.715,4.572 17.213,4.216 15.600 C 4.004 14.638,3.508 12.678,3.259 11.822 C 2.775 10.155,1.764 7.441,0.704 4.963 C 0.493 4.470,0.325 4.063,0.330 4.058 C 0.336 4.054,0.493 3.955,0.680 3.838 C 1.301 3.450,1.986 3.163,3.108 2.819 C 3.134 2.811,5.059 4.649,7.384 6.903 L 11.613 11.002 11.951 10.431 C 14.696 5.792,16.363 2.719,17.066 1.002 C 17.101 0.917,17.269 0.850,18.443 0.455 L 19.780 0.006 10.420 0.006 C 2.983 0.005,1.027 0.016,0.900 0.056 " stroke="none" fill="black" fill-rule="evenodd"></path></svg>