<svg role="img" viewBox="0 0 24 24" xmlns="http://www.w3.org/2000/svg"><path d="M0.900 0.056 C 0.530 0.173,0.268 0.401,0.112 0.740 L 0.020 0.940 0.009 4.431 L -0.002 7.922 0.427 7.431 C 1.045 6.724,2.804 4.978,3.469 4.410 C 6.250 2.040,8.894 0.632,11.380 0.197 C 11.992 0.090,13.026 0.051,13.484 0.118 C 14.903 0.325,16.052 1.172,16.281 2.180 C 16.343 2.457,16.336 2.987,16.266 3.183 C 15.989 3.962,15.293 4.758,14.115 5.640 C 13.555 6.060,12.903 6.458,12.342 6.723 C 11.738 7.007,11.674 7.019,11.060 6.953 L 10.540 6.897 10.548 6.788 C 10.559 6.629,10.778 6.289,11.412 5.446 C 12.865 3.513,13.008 3.076,12.400 2.427 C 12.153 2.162,11.863 1.983,11.484 1.860 C 11.132 1.746,10.636 1.790,10.160 1.978 C 8.641 2.579,6.379 4.244,4.579 6.085 C 3.440 7.250,2.839 8.150,2.840 8.687 C 2.842 9.483,3.952 10.059,6.020 10.336 C 7.048 10.474,7.593 10.496,9.640 10.478 C 12.649 10.451,14.905 10.465,15.585 10.515 C 17.152 10.629,19.085 11.212,20.716 12.063 C 22.481 12.984,23.573 14.111,23.861 15.310 C 23.957 15.709,23.927 16.500,23.800 16.900 C 23.185 18.846,20.745 20.589,16.573 22.062 C 14.111 22.931,10.475 23.757,8.404 23.918 C 7.595 23.981,6.262 23.878,5.001 23.656 C 2.556 23.226,0.829 22.362,0.290 21.300 C -0.008 20.713,0.010 19.839,0.340 18.854 C 0.979 16.942,2.564 15.619,4.138 15.686 C 4.415 15.698,4.492 15.717,4.633 15.810 C 4.724 15.871,4.847 15.992,4.905 16.080 L 5.010 16.239 4.642 16.624 C 3.637 17.676,3.371 18.211,3.409 19.109 C 3.425 19.480,3.440 19.545,3.572 19.811 C 3.997 20.672,5.118 21.298,7.121 21.794 C 8.372 22.103,9.150 22.184,10.559 22.148 C 12.138 22.109,13.390 21.895,14.860 21.415 C 16.401 20.912,17.711 20.277,18.590 19.607 C 19.010 19.288,19.623 18.635,19.820 18.299 C 20.201 17.648,20.335 17.180,20.336 16.500 C 20.337 16.095,20.323 15.985,20.247 15.794 C 19.908 14.942,18.940 14.088,17.706 13.551 C 16.949 13.223,15.353 12.726,14.447 12.538 C 13.158 12.270,12.520 12.237,8.780 12.247 C 6.607 12.252,5.408 12.239,4.940 12.206 C 2.535 12.033,1.230 11.740,0.270 11.160 L 0.020 11.009 0.010 16.954 C -0.001 23.482,-0.014 23.123,0.239 23.472 C 0.306 23.564,0.436 23.694,0.528 23.761 C 0.884 24.019,0.018 24.002,12.081 23.990 L 23.060 23.980 23.286 23.869 C 23.547 23.741,23.772 23.510,23.895 23.245 L 23.980 23.060 23.980 12.000 L 23.980 0.940 23.895 0.755 C 23.772 0.490,23.547 0.259,23.286 0.131 L 23.060 0.020 12.060 0.013 C 3.268 0.007,1.028 0.015,0.900 0.056 " stroke="none" fill="black" fill-rule="evenodd"></path></svg>