<svg role="img" viewBox="0 0 24 24" xmlns="http://www.w3.org/2000/svg"><path d="M0.900 0.056 C 0.531 0.173,0.268 0.401,0.112 0.740 L 0.020 0.940 0.011 3.460 L 0.001 5.980 0.091 5.768 C 0.267 5.351,0.675 4.844,1.499 4.018 C 3.094 2.420,4.006 1.710,5.380 0.995 C 6.205 0.566,7.067 0.248,7.859 0.082 L 8.220 0.006 4.640 0.006 C 1.864 0.005,1.024 0.017,0.900 0.056 M9.849 0.116 C 10.599 0.387,11.114 0.934,11.184 1.532 C 11.220 1.837,11.095 2.237,10.867 2.545 C 10.395 3.185,9.230 4.052,8.426 4.364 C 8.104 4.488,8.096 4.489,7.745 4.446 C 7.549 4.422,7.382 4.395,7.372 4.385 C 7.333 4.347,7.510 4.072,7.980 3.440 C 8.749 2.406,8.888 2.128,8.800 1.802 C 8.661 1.285,7.905 0.986,7.238 1.184 C 5.849 1.597,2.937 4.062,2.455 5.233 C 2.300 5.609,2.337 5.812,2.607 6.066 C 2.884 6.328,3.480 6.541,4.254 6.656 C 5.051 6.775,5.973 6.806,7.573 6.767 C 9.237 6.728,10.695 6.765,11.260 6.861 C 12.634 7.096,14.066 7.662,14.965 8.325 C 15.383 8.633,15.768 9.065,15.946 9.424 L 16.100 9.736 16.099 10.258 C 16.099 10.782,16.055 10.980,15.822 11.528 C 15.797 11.586,15.820 11.595,15.995 11.594 C 16.241 11.592,16.524 11.715,16.860 11.971 C 17.123 12.170,17.345 12.388,17.315 12.418 C 17.290 12.443,15.526 12.880,15.450 12.880 C 15.418 12.880,15.338 12.835,15.273 12.780 C 15.207 12.725,15.117 12.680,15.072 12.680 C 14.741 12.680,12.892 14.343,12.131 15.325 C 11.154 16.584,10.652 17.738,10.539 18.982 C 10.382 20.720,11.911 22.267,14.321 22.806 C 14.696 22.890,14.839 22.900,15.680 22.900 C 16.394 22.899,16.726 22.882,17.060 22.827 C 19.677 22.399,21.253 21.222,21.747 19.328 C 21.823 19.034,21.853 18.799,21.869 18.360 C 21.894 17.676,21.850 17.445,21.594 16.920 C 21.458 16.642,21.362 16.514,21.064 16.217 C 20.772 15.926,20.628 15.818,20.337 15.669 C 19.753 15.371,19.449 15.300,18.740 15.300 C 18.154 15.300,18.131 15.303,17.734 15.443 C 16.676 15.817,15.986 16.468,15.899 17.176 C 15.824 17.793,16.183 18.610,16.621 18.818 C 16.755 18.881,16.777 18.880,17.131 18.783 C 17.334 18.728,17.667 18.630,17.870 18.566 L 18.240 18.449 18.365 18.606 L 18.489 18.762 18.340 18.903 C 18.150 19.082,17.433 19.431,16.840 19.633 C 15.458 20.103,14.797 20.089,14.243 19.577 C 13.624 19.004,13.384 17.691,13.754 16.901 C 14.110 16.139,15.289 15.375,16.920 14.849 C 19.326 14.072,21.129 14.136,22.525 15.047 C 23.095 15.420,23.551 15.924,23.845 16.509 L 24.001 16.820 23.990 8.880 L 23.980 0.940 23.895 0.755 C 23.772 0.490,23.547 0.259,23.286 0.131 L 23.060 0.020 16.300 0.012 L 9.540 0.004 9.849 0.116 M0.010 14.741 L 0.020 23.060 0.105 23.245 C 0.228 23.510,0.453 23.741,0.714 23.869 L 0.940 23.980 7.100 23.987 L 13.260 23.995 12.820 23.895 C 11.485 23.591,10.277 23.011,9.548 22.323 C 9.015 21.821,8.685 21.289,8.515 20.655 C 8.395 20.209,8.395 19.380,8.514 18.814 C 8.782 17.545,9.576 16.019,10.601 14.804 C 10.758 14.618,10.823 14.516,10.775 14.529 C 10.734 14.541,10.448 14.624,10.140 14.714 C 8.572 15.172,6.791 15.535,5.860 15.586 C 5.045 15.632,3.672 15.455,2.720 15.181 C 2.141 15.015,1.430 14.681,1.140 14.438 C 0.874 14.216,0.662 13.928,0.578 13.674 C 0.459 13.316,0.539 12.625,0.767 12.040 C 1.107 11.168,1.842 10.466,2.626 10.263 C 3.144 10.130,3.542 10.201,3.676 10.452 C 3.730 10.554,3.724 10.567,3.496 10.821 C 3.107 11.255,2.995 11.407,2.865 11.680 C 2.750 11.920,2.740 11.972,2.740 12.360 C 2.740 12.861,2.792 12.997,3.101 13.301 C 3.533 13.726,4.315 14.017,5.828 14.317 C 7.140 14.576,8.571 14.463,10.066 13.982 C 12.570 13.175,13.763 12.126,13.777 10.720 C 13.780 10.416,13.766 10.351,13.651 10.108 C 13.280 9.323,12.372 8.785,10.501 8.240 C 9.439 7.931,9.182 7.909,6.720 7.915 C 2.881 7.926,1.944 7.839,0.936 7.379 C 0.580 7.217,0.244 6.915,0.101 6.627 L -0.001 6.423 0.010 14.741 M23.887 19.700 C 23.755 20.000,23.327 20.517,22.904 20.887 C 22.488 21.251,21.490 21.928,20.900 22.247 C 19.562 22.969,17.621 23.565,15.280 23.972 C 15.225 23.981,16.918 23.992,19.043 23.995 C 23.283 24.001,23.130 24.009,23.473 23.760 C 23.565 23.694,23.694 23.564,23.761 23.472 C 23.994 23.151,24.002 23.070,23.990 21.193 L 23.980 19.490 23.887 19.700 " stroke="none" fill="black" fill-rule="evenodd"></path></svg>