<svg role="img" viewBox="0 0 24 24" xmlns="http://www.w3.org/2000/svg"><path d="M10.940 0.046 C 6.260 0.450,2.189 3.634,0.659 8.086 C -1.484 14.319,1.792 21.115,7.997 23.309 C 12.365 24.853,17.202 23.757,20.480 20.480 C 24.710 16.252,25.180 9.567,21.584 4.785 C 19.301 1.748,15.709 -0.028,11.920 0.006 C 11.601 0.009,11.160 0.027,10.940 0.046 M17.871 7.730 L 17.860 9.060 12.020 9.060 L 6.180 9.060 6.169 7.730 L 6.159 6.400 12.020 6.400 L 17.881 6.400 17.871 7.730 M13.427 13.670 C 13.415 15.949,13.393 17.229,13.364 17.400 C 13.253 18.047,12.934 18.959,12.597 19.593 C 12.380 19.999,12.048 20.520,12.006 20.520 C 11.976 20.519,11.795 20.208,11.378 19.440 C 11.052 18.838,10.857 18.316,10.703 17.631 L 10.600 17.170 10.600 14.316 L 10.600 11.462 10.930 11.138 C 11.542 10.537,12.305 10.214,13.133 10.204 L 13.446 10.200 13.427 13.670 " stroke="none" fill="black" fill-rule="evenodd"></path></svg>