<svg role="img" xmlns="http://www.w3.org/2000/svg" viewBox="0 0 24 24"><path d="M5.176 0.994 C 4.351 1.528,3.621 2.134,2.930 2.858 C 2.682 3.117,2.480 3.346,2.480 3.366 C 2.480 3.386,2.773 3.724,3.130 4.118 L 3.780 4.833 3.956 4.626 C 4.337 4.180,5.164 3.401,5.627 3.053 C 6.091 2.704,6.749 2.289,7.200 2.060 C 7.314 2.002,7.402 1.949,7.394 1.942 C 7.381 1.930,5.680 0.851,5.576 0.789 C 5.552 0.775,5.372 0.867,5.176 0.994 M17.675 1.346 C 17.183 1.622,16.737 1.875,16.685 1.908 C 16.592 1.967,16.595 1.971,16.965 2.168 C 17.440 2.422,18.043 2.815,18.480 3.155 C 18.935 3.509,19.703 4.259,20.051 4.689 C 20.302 4.999,20.340 5.030,20.383 4.969 C 20.410 4.931,20.676 4.559,20.974 4.143 L 21.516 3.386 21.322 3.163 C 20.745 2.498,19.780 1.657,18.979 1.119 L 18.570 0.845 17.675 1.346 M11.220 1.625 C 10.113 1.740,9.127 1.980,8.240 2.351 C 8.053 2.429,7.894 2.497,7.887 2.503 C 7.879 2.509,8.005 2.740,8.166 3.017 C 8.387 3.397,8.474 3.515,8.520 3.495 C 10.467 2.646,12.637 2.533,14.628 3.178 C 14.875 3.258,15.179 3.368,15.303 3.423 C 15.428 3.478,15.534 3.518,15.539 3.512 C 15.588 3.449,16.120 2.507,16.112 2.499 C 16.105 2.492,15.947 2.425,15.760 2.349 C 15.023 2.048,14.203 1.822,13.400 1.699 C 12.997 1.638,11.565 1.589,11.220 1.625 M11.400 3.530 C 11.400 3.536,11.274 5.053,11.121 6.902 C 10.905 9.495,10.850 10.314,10.877 10.482 C 10.952 10.932,11.156 11.248,11.535 11.498 C 11.747 11.637,18.367 15.210,18.377 15.191 C 18.381 15.185,18.459 15.078,18.551 14.953 L 18.719 14.725 15.729 12.458 C 14.085 11.210,12.718 10.170,12.691 10.145 C 12.660 10.116,12.539 9.031,12.343 7.020 C 12.178 5.326,12.032 3.846,12.019 3.730 L 11.994 3.520 11.697 3.520 C 11.534 3.520,11.400 3.524,11.400 3.530 M13.013 3.865 C 13.111 4.016,13.219 4.207,13.253 4.289 C 13.297 4.395,13.346 4.444,13.427 4.463 C 15.255 4.878,16.737 5.869,17.726 7.338 C 18.877 9.046,19.167 11.176,18.517 13.137 L 18.390 13.520 18.547 13.730 C 18.633 13.845,18.745 14.008,18.795 14.090 C 18.845 14.172,18.895 14.240,18.905 14.240 C 18.985 14.240,19.378 13.103,19.505 12.503 C 19.645 11.841,19.680 10.712,19.582 10.040 C 19.426 8.968,19.076 8.008,18.510 7.100 C 17.780 5.930,16.586 4.878,15.305 4.278 C 14.679 3.985,13.692 3.694,13.068 3.618 L 12.835 3.590 13.013 3.865 M10.100 3.780 C 7.212 4.536,5.100 6.726,4.491 9.598 C 4.394 10.054,4.384 10.182,4.382 11.000 C 4.380 12.008,4.426 12.362,4.661 13.140 C 5.030 14.359,5.611 15.329,6.520 16.242 C 6.966 16.690,7.548 17.176,7.676 17.208 C 7.717 17.218,8.022 16.528,7.991 16.498 C 7.985 16.492,7.872 16.404,7.740 16.302 C 7.432 16.065,6.848 15.489,6.602 15.180 C 5.216 13.443,4.788 11.176,5.444 9.060 C 5.853 7.743,6.717 6.538,7.868 5.681 C 8.359 5.315,9.204 4.869,9.725 4.699 L 10.071 4.586 10.158 4.377 C 10.205 4.262,10.306 4.065,10.382 3.939 C 10.458 3.813,10.520 3.703,10.520 3.695 C 10.520 3.672,10.489 3.678,10.100 3.780 M4.100 5.650 C 3.185 6.964,2.625 8.421,2.441 9.960 C 2.376 10.503,2.386 11.653,2.460 12.220 C 2.804 14.856,4.326 17.304,6.545 18.792 C 6.858 19.002,7.206 19.207,7.222 19.191 C 7.229 19.185,7.280 18.954,7.337 18.680 C 7.393 18.405,7.450 18.142,7.463 18.096 C 7.482 18.028,7.447 17.987,7.273 17.876 C 6.653 17.479,5.698 16.584,5.231 15.960 C 3.495 13.642,3.093 10.730,4.137 8.040 C 4.314 7.583,4.646 6.946,4.914 6.549 L 5.110 6.258 4.753 5.859 C 4.557 5.640,4.375 5.438,4.348 5.411 C 4.310 5.373,4.257 5.424,4.100 5.650 M19.290 5.803 L 18.890 6.249 19.102 6.567 C 19.706 7.469,20.154 8.627,20.346 9.785 C 20.457 10.453,20.447 11.693,20.325 12.380 C 20.103 13.630,19.635 14.741,18.880 15.809 C 18.365 16.537,17.325 17.514,16.572 17.978 C 16.567 17.981,16.598 18.117,16.640 18.282 C 16.683 18.446,16.738 18.710,16.764 18.870 C 16.790 19.030,16.818 19.160,16.827 19.160 C 16.921 19.160,17.699 18.638,18.160 18.265 C 19.679 17.039,20.863 15.182,21.338 13.283 C 21.551 12.429,21.579 12.169,21.579 11.020 C 21.579 9.871,21.551 9.611,21.338 8.757 C 21.067 7.673,20.522 6.497,19.888 5.627 L 19.690 5.356 19.290 5.803 M13.642 5.471 C 13.643 5.509,13.665 5.654,13.692 5.794 L 13.740 6.049 13.980 6.139 C 15.130 6.571,16.197 7.517,16.757 8.601 C 16.853 8.788,16.934 8.944,16.937 8.948 C 16.943 8.957,17.373 8.853,17.472 8.819 C 17.546 8.793,17.187 8.114,16.854 7.650 C 16.527 7.193,15.851 6.535,15.399 6.233 C 14.982 5.955,14.453 5.689,13.990 5.526 C 13.681 5.417,13.640 5.410,13.642 5.471 M9.504 5.725 C 8.305 6.260,7.235 7.285,6.646 8.466 L 6.484 8.791 6.740 8.856 C 6.881 8.891,7.014 8.920,7.036 8.920 C 7.058 8.920,7.153 8.772,7.247 8.591 C 7.479 8.144,7.825 7.684,8.222 7.294 C 8.552 6.971,9.227 6.487,9.548 6.344 C 9.670 6.290,9.721 6.241,9.735 6.165 C 9.766 5.999,9.807 5.600,9.793 5.601 C 9.786 5.602,9.656 5.658,9.504 5.725 M6.426 9.994 L 6.113 10.309 6.253 10.587 C 6.330 10.739,6.417 10.883,6.447 10.905 C 6.500 10.946,8.087 11.520,8.145 11.520 C 8.168 11.520,8.914 11.048,9.078 10.930 C 9.088 10.923,9.029 10.711,8.946 10.459 C 8.822 10.083,8.779 9.997,8.707 9.981 C 8.604 9.958,6.811 9.680,6.768 9.680 C 6.751 9.680,6.598 9.821,6.426 9.994 M16.247 9.841 C 15.734 9.924,15.310 9.998,15.304 10.006 C 15.285 10.032,14.999 10.860,15.000 10.889 C 15.000 10.919,15.799 11.467,15.897 11.505 C 15.928 11.516,16.338 11.388,16.809 11.220 L 17.665 10.914 17.815 10.611 L 17.966 10.307 17.654 9.994 C 17.455 9.794,17.312 9.682,17.261 9.685 C 17.216 9.687,16.760 9.758,16.247 9.841 M6.121 11.950 C 6.121 11.989,6.148 12.137,6.182 12.280 C 6.465 13.500,7.138 14.622,8.054 15.402 C 8.233 15.555,8.392 15.680,8.407 15.680 C 8.422 15.680,8.500 15.571,8.581 15.439 L 8.727 15.197 8.614 15.112 C 8.551 15.065,8.335 14.863,8.134 14.662 C 7.515 14.044,7.025 13.190,6.803 12.342 C 6.757 12.168,6.720 11.992,6.720 11.952 C 6.720 11.889,6.683 11.880,6.420 11.880 C 6.161 11.880,6.120 11.890,6.121 11.950 M17.248 12.145 C 17.220 12.291,17.203 12.413,17.209 12.417 C 17.215 12.420,17.322 12.508,17.447 12.612 C 17.572 12.716,17.683 12.788,17.692 12.771 C 17.725 12.715,17.880 12.048,17.880 11.963 C 17.880 11.887,17.857 11.880,17.589 11.880 L 17.298 11.880 17.248 12.145 M1.397 12.380 C 1.275 12.534,0.908 12.999,0.583 13.413 L -0.010 14.166 0.196 14.793 C 1.094 17.528,2.897 19.816,5.367 21.358 C 5.767 21.608,6.979 22.239,7.060 22.240 C 7.086 22.240,7.100 21.862,7.099 21.182 L 7.099 20.125 6.579 19.812 C 5.066 18.901,3.866 17.703,2.993 16.231 C 2.286 15.038,1.885 13.884,1.667 12.420 L 1.620 12.100 1.397 12.380 M22.266 12.630 C 21.804 15.628,20.034 18.224,17.351 19.839 L 16.905 20.107 16.923 20.543 C 16.932 20.784,16.934 21.255,16.927 21.590 C 16.917 22.078,16.925 22.200,16.968 22.200 C 17.057 22.200,18.153 21.632,18.593 21.357 C 20.725 20.030,22.426 18.060,23.393 15.800 C 23.566 15.395,23.908 14.406,23.974 14.117 C 23.995 14.027,23.905 13.909,23.256 13.177 C 22.848 12.717,22.475 12.300,22.427 12.250 L 22.339 12.160 22.266 12.630 M15.545 14.974 L 15.310 15.186 15.461 15.413 C 15.543 15.538,15.624 15.640,15.640 15.640 C 15.672 15.640,16.236 15.163,16.310 15.072 C 16.354 15.019,16.326 14.995,16.110 14.901 C 15.973 14.841,15.842 14.785,15.820 14.777 C 15.798 14.769,15.674 14.858,15.545 14.974 M16.980 15.652 C 16.804 15.835,16.522 16.097,16.354 16.235 L 16.048 16.485 16.188 16.832 C 16.265 17.024,16.334 17.186,16.341 17.194 C 16.370 17.224,16.996 16.722,17.346 16.388 C 17.694 16.055,18.189 15.492,18.155 15.466 C 18.147 15.459,17.987 15.433,17.800 15.408 C 17.613 15.383,17.424 15.352,17.380 15.340 C 17.319 15.324,17.226 15.396,16.980 15.652 M9.402 16.664 C 9.244 17.051,9.122 17.375,9.130 17.384 C 9.139 17.393,9.689 17.609,10.351 17.865 L 11.557 18.331 11.496 18.475 C 11.420 18.659,11.185 18.904,10.986 19.006 C 10.901 19.050,10.725 19.098,10.594 19.113 L 10.356 19.140 10.121 19.460 C 9.992 19.636,9.899 19.792,9.913 19.808 C 9.928 19.823,10.062 19.855,10.210 19.879 C 10.742 19.963,11.363 19.768,11.791 19.381 L 12.002 19.191 12.192 19.368 C 12.572 19.724,12.990 19.892,13.498 19.892 C 13.817 19.892,14.177 19.823,14.153 19.766 C 14.146 19.749,14.041 19.598,13.920 19.430 L 13.700 19.124 13.476 19.122 C 13.062 19.118,12.601 18.805,12.474 18.441 C 12.450 18.372,12.437 18.311,12.445 18.305 C 12.453 18.299,13.005 18.090,13.670 17.842 C 14.335 17.593,14.880 17.382,14.880 17.372 C 14.880 17.325,14.308 15.960,14.288 15.960 C 14.276 15.960,13.764 16.160,13.151 16.404 C 12.455 16.682,12.003 16.841,11.948 16.829 C 11.900 16.818,11.377 16.618,10.788 16.384 C 10.198 16.151,9.710 15.960,9.702 15.960 C 9.695 15.960,9.560 16.277,9.402 16.664 M15.060 20.849 C 14.604 20.993,13.665 21.183,13.121 21.241 C 12.582 21.299,11.377 21.299,10.839 21.241 C 10.315 21.185,9.540 21.031,9.030 20.883 C 8.816 20.820,8.640 20.776,8.640 20.784 C 8.640 20.792,8.704 20.992,8.783 21.227 C 8.965 21.771,9.210 22.296,9.474 22.707 C 9.709 23.073,9.621 23.035,10.480 23.143 C 11.561 23.279,12.873 23.256,13.948 23.080 C 14.477 22.994,14.434 23.025,14.740 22.511 C 15.015 22.050,15.480 20.877,15.432 20.764 C 15.425 20.748,15.258 20.786,15.060 20.849 " stroke="none" fill="black" fill-rule="evenodd"></path></svg>