<svg role="img" viewBox="0 0 24 24" xmlns="http://www.w3.org/2000/svg"><path d="M10.880 4.265 C 6.362 4.597,2.681 6.345,0.949 8.980 C 0.365 9.868,0.060 10.780,0.013 11.780 C -0.128 14.723,2.344 17.468,6.380 18.851 C 8.860 19.701,11.697 19.965,14.428 19.600 C 17.764 19.155,20.700 17.783,22.389 15.880 C 24.290 13.739,24.517 11.165,23.004 8.914 C 21.999 7.418,20.363 6.209,18.180 5.348 C 16.927 4.854,15.536 4.520,13.980 4.340 C 13.441 4.278,11.384 4.228,10.880 4.265 M14.160 5.377 C 16.268 5.640,17.863 6.207,18.556 6.939 C 19.076 7.489,19.047 8.034,18.469 8.587 C 18.022 9.016,17.258 9.386,16.251 9.662 C 15.661 9.823,14.899 9.976,14.823 9.947 C 14.795 9.936,14.759 9.831,14.744 9.713 C 14.697 9.342,14.401 8.205,14.242 7.780 C 13.801 6.607,13.234 5.819,12.607 5.511 C 12.370 5.394,12.305 5.380,12.001 5.380 C 11.608 5.381,11.403 5.456,11.054 5.725 C 10.329 6.284,9.677 7.627,9.343 9.251 C 9.286 9.525,9.240 9.788,9.240 9.836 C 9.240 9.884,9.214 9.932,9.182 9.945 C 9.102 9.975,8.356 9.828,7.749 9.662 C 5.778 9.122,4.761 8.206,5.159 7.331 C 5.249 7.132,5.539 6.811,5.797 6.624 C 6.621 6.029,8.316 5.525,10.040 5.363 C 10.293 5.339,10.563 5.313,10.640 5.304 C 10.717 5.296,11.419 5.293,12.200 5.299 C 13.232 5.307,13.767 5.329,14.160 5.377 M12.346 7.243 C 12.744 7.435,13.158 8.056,13.417 8.848 C 13.546 9.242,13.739 10.074,13.709 10.105 C 13.701 10.113,13.313 10.137,12.847 10.160 C 12.101 10.195,10.344 10.157,10.291 10.105 C 10.259 10.072,10.453 9.235,10.583 8.845 C 10.848 8.048,11.254 7.440,11.651 7.244 C 11.866 7.137,12.127 7.137,12.346 7.243 M3.090 8.232 C 3.060 8.435,3.156 8.814,3.323 9.154 C 3.883 10.290,5.833 11.317,8.317 11.782 C 8.616 11.838,8.898 11.891,8.944 11.901 C 9.024 11.918,9.028 11.949,9.052 12.669 C 9.066 13.082,9.096 13.609,9.120 13.840 C 9.260 15.234,9.617 16.599,10.080 17.520 C 10.333 18.024,10.500 18.267,10.816 18.594 L 11.100 18.887 10.960 18.865 C 10.883 18.853,10.685 18.833,10.520 18.820 C 9.638 18.750,8.229 18.435,7.293 18.098 C 6.679 17.877,5.638 17.375,5.140 17.059 C 3.316 15.903,2.175 14.402,1.813 12.680 C 1.714 12.206,1.715 11.190,1.816 10.722 C 1.969 10.012,2.237 9.363,2.622 8.770 C 2.829 8.453,3.072 8.120,3.096 8.120 C 3.102 8.120,3.099 8.171,3.090 8.232 M21.285 8.632 C 21.630 9.149,21.794 9.471,21.973 9.984 C 22.201 10.640,22.257 10.978,22.258 11.700 C 22.258 12.410,22.202 12.763,21.993 13.380 C 21.203 15.700,18.790 17.607,15.586 18.441 C 14.926 18.613,14.009 18.779,13.500 18.818 C 13.324 18.832,13.117 18.853,13.040 18.865 L 12.900 18.887 13.184 18.594 C 13.621 18.142,13.965 17.544,14.260 16.720 C 14.671 15.576,14.895 14.253,14.948 12.669 C 14.972 11.949,14.976 11.918,15.056 11.901 C 15.102 11.891,15.347 11.845,15.600 11.799 C 18.118 11.341,20.111 10.302,20.677 9.154 C 20.850 8.802,20.943 8.423,20.903 8.227 C 20.883 8.125,20.888 8.117,20.942 8.162 C 20.976 8.190,21.131 8.402,21.285 8.632 M11.560 12.104 C 12.219 12.117,12.979 12.110,13.280 12.088 C 13.577 12.066,13.828 12.055,13.837 12.064 C 13.871 12.097,13.759 13.230,13.678 13.680 C 13.140 16.669,11.605 17.362,10.684 15.032 C 10.408 14.334,10.160 12.987,10.160 12.185 C 10.160 12.037,10.165 12.032,10.270 12.056 C 10.330 12.069,10.911 12.091,11.560 12.104 " stroke="none" fill="black" fill-rule="evenodd"></path></svg>