<svg role="img" xmlns="http://www.w3.org/2000/svg" viewBox="0 0 24 24"><path d="M11.700 0.183 C 10.280 0.375,9.000 0.856,7.780 1.657 C 6.676 2.381,5.559 3.537,4.775 4.769 C 4.462 5.260,4.030 6.120,3.838 6.630 L 3.700 6.998 3.298 7.160 C 2.896 7.322,2.319 7.637,2.108 7.809 C 1.965 7.926,1.890 8.309,1.855 9.100 C 1.818 9.952,1.961 10.807,2.280 11.634 C 2.434 12.034,2.501 12.119,2.756 12.238 C 2.979 12.343,3.000 12.376,2.882 12.439 C 2.782 12.492,1.984 13.358,1.626 13.801 C 1.384 14.100,0.375 15.587,0.120 16.020 L 0.026 16.180 0.123 16.095 C 1.404 14.967,1.849 14.615,2.760 14.012 C 3.332 13.633,3.774 13.360,3.815 13.360 C 3.829 13.360,3.840 13.400,3.840 13.450 C 3.839 13.521,3.776 13.573,3.536 13.699 C 2.882 14.042,2.790 14.223,2.871 14.994 C 2.993 16.169,3.410 17.500,3.727 17.733 C 3.817 17.799,3.894 17.810,4.207 17.806 C 4.412 17.803,4.697 17.775,4.840 17.744 C 4.983 17.713,5.111 17.699,5.124 17.714 C 5.137 17.728,5.207 17.906,5.279 18.110 C 5.451 18.595,5.850 19.405,6.152 19.880 C 6.296 20.107,6.374 20.265,6.345 20.271 C 6.318 20.278,5.982 20.136,5.598 19.958 C 4.620 19.502,3.751 19.116,3.736 19.130 C 3.716 19.151,5.111 21.222,5.494 21.740 C 6.254 22.768,6.870 23.230,7.797 23.466 C 8.278 23.588,8.940 23.599,9.793 23.497 L 10.383 23.427 10.901 23.575 C 11.778 23.826,12.030 23.859,13.060 23.860 C 13.863 23.860,14.038 23.848,14.440 23.768 C 15.122 23.630,15.828 23.382,16.480 23.050 C 17.053 22.757,17.076 22.750,18.303 22.442 C 20.251 21.955,20.374 21.867,21.098 20.460 C 21.335 19.998,21.708 19.284,21.925 18.873 C 22.142 18.462,22.320 18.118,22.320 18.108 C 22.320 18.084,21.355 18.503,20.770 18.781 C 20.523 18.898,20.320 18.987,20.320 18.977 C 20.320 18.967,20.398 18.775,20.494 18.550 C 20.590 18.324,20.716 17.996,20.774 17.819 L 20.880 17.498 21.497 17.499 C 22.207 17.500,22.269 17.477,22.432 17.152 C 22.750 16.519,23.103 14.582,22.999 14.037 C 22.935 13.697,22.857 13.611,22.390 13.360 C 22.100 13.204,21.979 13.084,22.159 13.131 C 22.228 13.149,22.250 13.114,22.322 12.866 C 22.367 12.709,22.411 12.560,22.419 12.536 C 22.427 12.511,22.624 12.415,22.857 12.321 C 23.338 12.128,23.356 12.109,23.570 11.600 C 23.975 10.637,24.105 9.257,23.889 8.200 L 23.820 7.860 23.448 7.613 C 23.237 7.473,22.872 7.283,22.603 7.173 L 22.131 6.980 22.020 6.680 C 21.851 6.222,21.483 5.466,21.204 5.005 C 19.561 2.291,17.012 0.557,14.108 0.181 C 13.526 0.106,12.260 0.106,11.700 0.183 M14.046 0.624 C 15.985 0.874,17.780 1.758,19.234 3.177 C 20.226 4.145,20.961 5.216,21.498 6.475 C 21.637 6.800,21.638 6.809,21.551 6.784 C 21.266 6.703,20.335 6.480,20.282 6.480 C 20.248 6.480,20.535 6.607,20.920 6.762 C 22.232 7.289,23.344 7.900,23.447 8.150 C 23.511 8.303,23.511 9.662,23.447 10.040 C 23.372 10.488,23.216 11.082,23.080 11.435 C 22.967 11.727,22.947 11.753,22.792 11.814 C 22.701 11.850,22.619 11.873,22.612 11.865 C 22.604 11.857,22.653 11.648,22.720 11.400 C 22.787 11.152,22.837 10.944,22.831 10.937 C 22.816 10.923,22.022 10.742,21.700 10.681 C 21.291 10.602,21.291 10.600,21.657 10.476 C 22.061 10.341,22.283 10.233,22.363 10.135 C 22.414 10.072,22.412 10.068,22.340 10.095 C 22.297 10.111,22.090 10.151,21.880 10.182 C 21.122 10.297,19.566 10.246,17.500 10.040 C 15.307 9.821,13.276 9.738,11.643 9.800 C 10.285 9.851,9.819 9.885,7.920 10.068 C 6.575 10.198,6.290 10.214,5.160 10.217 C 3.958 10.220,3.818 10.210,3.340 10.095 L 3.260 10.076 3.340 10.141 C 3.491 10.264,3.878 10.440,4.208 10.535 L 4.538 10.631 4.299 10.677 C 4.168 10.703,3.850 10.771,3.594 10.828 L 3.129 10.931 3.262 11.435 C 3.335 11.712,3.388 11.945,3.380 11.953 C 3.373 11.961,3.258 11.919,3.127 11.860 C 2.899 11.757,2.882 11.740,2.767 11.482 C 2.626 11.167,2.466 10.593,2.394 10.140 C 2.325 9.711,2.324 8.253,2.393 8.130 C 2.552 7.845,3.863 7.147,5.160 6.657 C 5.413 6.561,5.584 6.482,5.540 6.482 C 5.472 6.481,4.578 6.695,4.288 6.783 L 4.197 6.810 4.262 6.635 C 4.298 6.539,4.468 6.172,4.641 5.820 C 5.100 4.880,5.585 4.186,6.299 3.445 C 7.785 1.901,9.740 0.917,11.901 0.622 C 12.460 0.547,13.453 0.547,14.046 0.624 M9.761 2.408 C 9.306 3.484,9.040 4.769,9.040 5.891 L 9.040 6.242 8.927 6.159 L 8.814 6.075 7.737 6.383 C 7.145 6.552,6.638 6.699,6.610 6.710 C 6.501 6.751,6.570 5.672,6.724 4.923 C 6.820 4.451,7.061 3.729,7.273 3.270 C 7.362 3.078,7.428 2.920,7.419 2.920 C 7.381 2.920,7.057 3.513,6.914 3.843 C 6.610 4.549,6.385 5.525,6.335 6.361 L 6.308 6.793 6.137 6.837 C 6.034 6.863,5.957 6.908,5.945 6.950 C 5.824 7.358,5.700 8.566,5.735 8.987 L 5.758 9.274 5.449 9.379 C 5.184 9.469,4.716 9.690,4.940 9.620 C 5.287 9.511,6.329 9.316,6.960 9.242 C 9.298 8.968,14.085 8.912,17.420 9.121 C 18.539 9.191,19.979 9.386,20.656 9.559 C 20.812 9.599,20.946 9.626,20.953 9.619 C 20.974 9.600,20.651 9.464,20.348 9.363 L 20.077 9.273 20.103 8.826 C 20.126 8.427,20.082 7.620,20.014 7.194 C 19.991 7.050,19.969 7.025,19.760 6.920 L 19.532 6.805 19.503 6.393 C 19.443 5.514,19.208 4.498,18.911 3.834 C 18.747 3.469,18.543 3.092,18.437 2.960 C 18.393 2.905,18.420 2.977,18.496 3.120 C 18.800 3.687,19.063 4.527,19.180 5.308 C 19.244 5.733,19.305 6.720,19.268 6.720 C 19.255 6.720,18.746 6.575,18.136 6.397 L 17.028 6.074 16.920 6.153 L 16.812 6.233 16.787 5.687 C 16.730 4.433,16.471 3.304,15.999 2.249 C 15.927 2.089,15.863 1.963,15.857 1.970 C 15.851 1.976,15.881 2.107,15.924 2.261 C 16.225 3.333,16.375 4.568,16.352 5.796 L 16.336 6.652 16.201 6.765 C 16.077 6.869,16.058 6.914,15.974 7.335 C 15.892 7.738,15.695 8.371,15.608 8.509 C 15.583 8.547,15.419 8.548,14.858 8.514 C 14.146 8.472,10.699 8.494,10.395 8.544 L 10.251 8.568 10.130 8.274 C 9.999 7.957,9.902 7.562,9.860 7.180 C 9.836 6.964,9.817 6.926,9.670 6.796 L 9.506 6.652 9.472 6.116 C 9.400 5.010,9.610 3.230,9.941 2.131 C 10.040 1.803,9.975 1.902,9.761 2.408 M10.427 2.387 C 10.412 2.401,10.400 2.860,10.400 3.407 L 10.400 4.400 11.140 4.400 L 11.880 4.400 11.880 4.100 L 11.880 3.800 12.040 3.800 L 12.200 3.800 12.200 5.178 L 12.200 6.556 11.950 6.568 L 11.700 6.580 11.700 7.340 L 11.700 8.100 12.970 8.111 L 14.240 8.121 14.240 7.341 L 14.240 6.560 13.979 6.560 L 13.719 6.560 13.729 5.190 L 13.740 3.820 13.900 3.820 L 14.060 3.820 14.072 4.110 L 14.084 4.400 14.802 4.400 L 15.520 4.400 15.520 3.380 L 15.520 2.360 12.987 2.360 C 11.593 2.360,10.441 2.372,10.427 2.387 M8.600 6.890 C 8.601 7.357,8.648 7.829,8.744 8.314 C 8.794 8.565,8.799 8.656,8.764 8.678 C 8.738 8.694,8.542 8.729,8.329 8.757 C 7.937 8.807,6.790 9.023,6.334 9.132 L 6.089 9.191 6.065 9.045 C 6.012 8.728,6.065 7.491,6.143 7.235 C 6.157 7.189,6.495 7.075,7.351 6.828 C 8.005 6.640,8.553 6.484,8.570 6.483 C 8.586 6.481,8.600 6.665,8.600 6.890 M18.506 6.841 L 19.673 7.174 19.698 7.297 C 19.712 7.365,19.734 7.811,19.746 8.290 C 19.773 9.291,19.818 9.207,19.327 9.083 C 18.888 8.972,18.040 8.812,17.620 8.761 C 17.422 8.737,17.205 8.709,17.138 8.698 L 17.016 8.679 17.087 8.330 C 17.178 7.884,17.255 7.028,17.232 6.715 C 17.217 6.511,17.224 6.477,17.277 6.491 C 17.312 6.501,17.865 6.658,18.506 6.841 M9.293 6.920 C 9.485 7.077,9.518 7.123,9.541 7.280 C 9.604 7.703,9.693 8.077,9.787 8.313 C 9.842 8.452,9.881 8.572,9.874 8.579 C 9.866 8.587,9.697 8.605,9.498 8.621 L 9.135 8.649 9.069 8.295 C 8.972 7.782,8.920 7.308,8.920 6.946 C 8.920 6.586,8.885 6.588,9.293 6.920 M16.919 6.890 C 16.917 7.250,16.855 7.842,16.774 8.275 L 16.704 8.649 16.342 8.621 C 16.143 8.605,15.973 8.586,15.965 8.578 C 15.956 8.570,15.988 8.468,16.034 8.351 C 16.145 8.074,16.234 7.715,16.274 7.382 C 16.303 7.140,16.320 7.102,16.443 7.007 C 16.518 6.948,16.643 6.842,16.720 6.771 C 16.797 6.700,16.873 6.642,16.890 6.641 C 16.907 6.640,16.920 6.753,16.919 6.890 M15.166 10.852 C 15.035 11.013,14.805 11.273,14.654 11.430 L 14.380 11.715 12.605 11.732 C 10.614 11.751,10.709 11.777,11.591 11.457 C 12.202 11.235,13.006 10.999,13.626 10.858 C 14.148 10.740,15.116 10.569,15.293 10.564 C 15.404 10.560,15.402 10.563,15.166 10.852 M20.180 10.879 C 20.870 10.986,22.212 11.244,22.249 11.276 C 22.280 11.304,21.971 12.517,21.918 12.575 C 21.900 12.595,21.557 12.547,21.133 12.465 C 20.183 12.282,19.315 12.147,18.409 12.040 C 17.301 11.909,17.367 11.943,17.824 11.737 C 18.267 11.538,18.990 11.134,19.297 10.915 C 19.414 10.830,19.534 10.775,19.580 10.784 C 19.624 10.792,19.894 10.835,20.180 10.879 M9.517 11.015 C 9.508 11.024,9.365 11.137,9.200 11.268 C 9.035 11.399,8.792 11.605,8.660 11.727 L 8.420 11.948 7.960 11.997 C 7.459 12.050,6.109 12.231,5.980 12.263 C 5.800 12.307,6.259 12.092,6.840 11.860 C 7.550 11.576,8.241 11.342,8.960 11.143 C 9.449 11.008,9.550 10.984,9.517 11.015 M4.136 11.380 L 3.783 11.640 3.733 11.470 C 3.705 11.377,3.696 11.289,3.711 11.273 C 3.740 11.245,4.276 11.131,4.414 11.124 C 4.455 11.122,4.330 11.237,4.136 11.380 M13.840 12.175 C 13.840 12.211,13.385 12.527,12.960 12.787 C 12.624 12.992,12.445 13.076,12.300 13.097 C 12.190 13.113,11.992 13.153,11.860 13.185 L 11.619 13.245 11.203 14.486 C 10.974 15.169,10.766 15.748,10.740 15.774 C 10.715 15.799,9.812 16.017,8.735 16.257 L 6.776 16.694 6.158 16.261 C 5.818 16.023,5.536 15.825,5.531 15.821 C 5.516 15.811,5.157 12.869,5.169 12.857 C 5.210 12.816,7.875 12.435,7.914 12.464 C 7.921 12.470,7.795 12.660,7.632 12.887 C 7.086 13.652,6.956 13.840,6.976 13.840 C 6.987 13.840,7.280 13.653,7.628 13.425 C 8.307 12.980,8.691 12.755,9.262 12.469 L 9.624 12.287 10.462 12.242 C 11.688 12.177,13.840 12.134,13.840 12.175 M17.511 12.400 C 18.663 12.518,20.695 12.802,20.746 12.853 C 20.751 12.858,20.675 13.418,20.577 14.097 C 20.480 14.777,20.400 15.339,20.400 15.345 C 20.400 15.355,20.029 15.620,19.378 16.075 L 19.136 16.245 17.158 16.019 C 16.071 15.896,15.173 15.787,15.164 15.778 C 15.155 15.769,14.983 15.218,14.781 14.554 L 14.415 13.346 14.157 13.249 C 14.016 13.196,13.783 13.130,13.640 13.102 L 13.380 13.051 13.540 13.023 C 14.540 12.847,15.833 12.532,16.240 12.366 C 16.389 12.305,16.641 12.312,17.511 12.400 M5.013 14.430 C 5.117 15.261,5.201 15.952,5.201 15.968 C 5.200 15.990,6.470 16.894,6.669 17.014 C 6.697 17.031,7.673 16.833,8.839 16.576 L 10.959 16.108 11.380 14.817 L 11.801 13.526 11.990 13.484 C 12.468 13.376,12.957 13.344,13.353 13.393 C 13.567 13.420,13.830 13.464,13.936 13.491 L 14.130 13.540 14.501 14.774 C 14.705 15.453,14.896 16.032,14.926 16.060 C 15.005 16.136,19.152 16.603,19.260 16.548 C 19.304 16.525,19.632 16.302,19.990 16.051 C 20.421 15.748,20.646 15.565,20.658 15.507 C 20.669 15.459,20.768 14.863,20.879 14.183 C 20.990 13.503,21.088 12.939,21.097 12.930 C 21.116 12.911,21.724 13.031,21.752 13.059 C 21.770 13.077,21.377 15.877,21.354 15.899 C 21.346 15.905,20.908 16.212,20.380 16.581 L 19.420 17.250 16.900 16.963 C 15.514 16.805,14.368 16.663,14.354 16.648 C 14.339 16.632,14.161 16.069,13.958 15.395 L 13.590 14.170 13.445 14.101 C 13.265 14.015,12.955 13.981,12.672 14.017 L 12.456 14.044 12.018 15.329 L 11.580 16.615 9.100 17.166 C 7.736 17.470,6.600 17.718,6.576 17.719 C 6.486 17.721,4.580 16.357,4.550 16.269 C 4.523 16.189,4.160 13.324,4.160 13.192 C 4.160 13.104,4.520 12.949,4.783 12.924 C 4.810 12.922,4.896 13.486,5.013 14.430 M16.333 13.043 C 16.031 13.236,15.830 13.753,15.828 14.339 C 15.825 15.174,16.109 15.336,17.302 15.180 C 17.600 15.142,17.924 15.119,18.023 15.130 C 18.147 15.144,18.199 15.136,18.189 15.105 C 18.160 15.019,17.908 14.880,17.779 14.880 L 17.651 14.880 17.670 14.607 C 17.705 14.120,17.540 13.600,17.249 13.276 C 17.146 13.162,17.004 13.044,16.932 13.014 C 16.743 12.935,16.482 12.947,16.333 13.043 M8.735 13.290 C 8.513 13.438,8.311 13.743,8.214 14.076 C 8.151 14.293,8.153 14.895,8.217 15.046 C 8.239 15.097,8.218 15.119,8.125 15.139 C 8.058 15.154,7.927 15.238,7.832 15.326 C 7.728 15.423,7.691 15.476,7.740 15.460 C 7.948 15.391,8.315 15.360,8.920 15.360 C 9.672 15.360,9.807 15.323,9.933 15.080 C 10.036 14.881,10.008 14.156,9.886 13.838 C 9.640 13.201,9.189 12.986,8.735 13.290 M16.777 13.543 C 16.873 13.638,16.858 13.863,16.751 13.938 C 16.625 14.026,16.532 14.015,16.414 13.898 C 16.244 13.728,16.357 13.480,16.605 13.480 C 16.665 13.480,16.743 13.508,16.777 13.543 M9.382 13.738 C 9.498 13.855,9.506 13.959,9.408 14.081 C 9.266 14.255,8.959 14.147,8.961 13.924 C 8.961 13.801,8.992 13.749,9.100 13.688 C 9.219 13.620,9.273 13.630,9.382 13.738 M22.249 13.806 C 22.547 13.984,22.560 14.009,22.559 14.378 C 22.558 15.031,22.367 15.996,22.111 16.646 L 21.980 16.980 21.800 16.993 C 21.591 17.008,21.158 16.968,21.093 16.928 C 21.061 16.908,21.061 16.841,21.094 16.684 C 21.134 16.489,21.159 16.454,21.359 16.305 C 21.481 16.214,21.589 16.128,21.601 16.113 C 21.612 16.097,21.711 15.544,21.820 14.882 C 21.928 14.221,22.022 13.680,22.028 13.680 C 22.034 13.680,22.134 13.737,22.249 13.806 M4.062 15.204 C 4.140 15.851,4.211 16.416,4.222 16.460 C 4.232 16.504,4.386 16.639,4.563 16.760 C 4.859 16.961,4.960 17.078,4.960 17.217 C 4.960 17.278,4.514 17.360,4.183 17.360 C 3.967 17.360,3.960 17.356,3.886 17.210 C 3.679 16.803,3.386 15.639,3.327 14.988 C 3.274 14.416,3.290 14.373,3.619 14.171 C 3.771 14.078,3.901 14.007,3.908 14.015 C 3.915 14.022,3.985 14.557,4.062 15.204 M13.187 14.343 C 13.302 14.366,13.309 14.382,13.598 15.353 C 14.098 17.027,14.073 16.957,14.171 16.980 C 14.220 16.991,15.438 17.136,16.877 17.300 C 19.347 17.582,19.501 17.596,19.597 17.534 C 19.654 17.498,19.898 17.330,20.140 17.161 C 20.720 16.754,20.681 16.771,20.635 16.950 C 20.512 17.418,20.232 18.163,19.951 18.770 L 19.788 19.120 19.444 19.120 C 19.255 19.120,18.713 19.081,18.240 19.033 L 17.380 18.946 16.602 18.323 C 16.174 17.980,15.770 17.668,15.703 17.630 C 15.526 17.528,15.283 17.544,14.715 17.694 L 14.211 17.827 14.345 17.650 C 14.468 17.490,14.552 17.298,14.515 17.262 C 14.507 17.254,14.385 17.318,14.243 17.404 C 13.413 17.907,12.536 17.955,11.770 17.538 L 11.519 17.401 11.581 17.549 C 11.615 17.631,11.669 17.726,11.702 17.762 C 11.734 17.797,11.760 17.834,11.760 17.843 C 11.760 17.852,11.507 17.854,11.197 17.847 C 10.650 17.834,10.627 17.837,10.408 17.944 C 10.045 18.122,9.365 18.820,8.960 19.432 C 8.912 19.504,8.698 19.584,7.907 19.824 C 7.361 19.990,6.891 20.118,6.863 20.107 C 6.777 20.074,6.361 19.411,6.055 18.820 C 5.781 18.291,5.422 17.445,5.456 17.410 C 5.465 17.401,5.692 17.549,5.961 17.737 C 6.229 17.926,6.469 18.080,6.494 18.081 C 6.588 18.082,11.782 16.907,11.823 16.875 C 11.847 16.856,12.035 16.284,12.241 15.603 C 12.648 14.253,12.603 14.338,12.925 14.325 C 13.005 14.322,13.123 14.331,13.187 14.343 M13.970 22.004 C 13.923 22.047,13.348 22.094,13.365 22.053 C 13.373 22.034,13.424 21.914,13.478 21.788 L 13.576 21.558 13.787 21.767 C 13.904 21.882,13.986 21.989,13.970 22.004 M14.471 22.446 C 14.794 22.694,15.082 22.832,15.402 22.893 C 15.533 22.918,15.640 22.949,15.640 22.962 C 15.640 22.995,15.085 23.181,14.700 23.277 C 13.599 23.551,12.606 23.581,11.651 23.372 L 11.353 23.306 11.737 23.214 C 12.272 23.085,12.679 22.877,12.993 22.570 L 13.250 22.320 13.495 22.317 C 13.630 22.315,13.821 22.300,13.920 22.282 C 14.019 22.264,14.123 22.248,14.151 22.245 C 14.180 22.242,14.324 22.333,14.471 22.446 " stroke="none" fill="black" fill-rule="evenodd"></path></svg>