<svg role="img" viewBox="0 0 24 24" xmlns="http://www.w3.org/2000/svg"><path d="M6.340 2.535 C 2.106 4.907,1.804 5.083,1.560 5.325 C 1.272 5.612,1.083 5.905,0.925 6.310 L 0.820 6.580 0.809 11.680 C 0.800 15.314,0.810 16.857,0.842 17.049 C 0.923 17.536,1.319 18.226,1.693 18.532 C 1.897 18.699,10.766 23.699,11.094 23.832 C 11.444 23.973,11.961 24.027,12.384 23.966 C 12.573 23.939,12.812 23.885,12.914 23.846 C 13.139 23.760,21.747 18.909,22.130 18.653 C 22.444 18.442,22.733 18.098,22.937 17.692 C 23.216 17.136,23.203 17.446,23.191 11.731 L 23.180 6.580 23.087 6.320 C 22.825 5.583,22.447 5.173,21.578 4.681 C 20.432 4.032,20.403 4.020,19.986 4.020 C 19.684 4.020,19.578 4.038,19.380 4.121 C 18.844 4.348,18.289 4.827,17.897 5.402 C 17.608 5.825,16.242 8.214,16.129 8.493 C 15.843 9.198,15.849 10.053,16.144 10.799 C 16.352 11.323,16.948 12.111,17.914 13.140 C 18.320 13.572,18.475 13.768,18.590 13.998 C 18.732 14.280,18.740 14.316,18.740 14.678 C 18.740 15.023,18.728 15.085,18.614 15.325 C 18.308 15.972,17.741 16.312,17.036 16.272 C 16.465 16.238,15.976 15.906,15.713 15.373 C 15.590 15.122,15.582 15.077,15.558 14.524 C 15.530 13.878,15.478 13.691,15.216 13.296 C 15.013 12.991,14.828 12.840,14.657 12.840 C 14.233 12.840,13.611 13.444,13.277 14.180 C 13.097 14.577,12.690 16.052,12.620 16.560 C 12.598 16.714,12.617 16.787,12.743 17.059 C 12.989 17.591,12.978 18.174,12.712 18.696 C 12.605 18.906,12.263 19.263,12.049 19.388 C 11.487 19.718,10.753 19.718,10.191 19.388 C 9.977 19.263,9.635 18.906,9.529 18.697 C 9.254 18.157,9.254 17.523,9.529 16.983 C 9.643 16.758,9.986 16.409,10.225 16.274 C 10.487 16.126,10.551 15.993,10.896 14.880 C 11.143 14.084,12.009 10.996,11.991 10.977 C 11.982 10.969,11.779 11.369,11.539 11.866 L 11.103 12.769 11.044 12.643 C 10.909 12.358,10.705 12.429,9.946 13.027 C 9.297 13.538,9.066 13.791,8.773 14.317 C 8.668 14.505,8.496 14.744,8.391 14.847 C 7.766 15.461,6.777 15.461,6.162 14.846 C 5.567 14.251,5.550 13.282,6.124 12.660 C 6.331 12.435,6.560 12.296,6.891 12.194 C 7.464 12.017,8.953 11.134,9.763 10.491 C 9.926 10.362,10.474 9.943,10.980 9.562 C 11.815 8.932,12.092 8.712,11.980 8.769 C 11.958 8.780,11.553 8.997,11.080 9.250 L 10.220 9.710 9.840 9.735 C 9.388 9.765,8.820 9.854,8.533 9.940 C 8.394 9.981,8.267 10.059,8.146 10.176 C 8.047 10.272,7.861 10.403,7.733 10.466 C 7.524 10.568,7.459 10.580,7.100 10.580 C 6.619 10.580,6.416 10.499,6.096 10.181 C 5.833 9.919,5.708 9.611,5.706 9.220 C 5.702 8.532,6.134 7.982,6.810 7.815 C 7.062 7.753,7.118 7.753,7.670 7.817 C 7.994 7.855,8.575 7.896,8.960 7.908 C 10.286 7.949,11.114 7.735,12.020 7.118 C 12.833 6.565,13.113 6.224,13.954 4.760 C 14.912 3.090,14.993 2.912,15.080 2.282 C 15.156 1.725,15.002 1.150,14.708 0.893 C 14.637 0.831,14.271 0.605,13.894 0.390 L 13.209 0.000 12.034 0.001 L 10.860 0.003 6.340 2.535 " stroke="none" fill="black" fill-rule="evenodd"></path></svg>