<svg role="img" viewBox="0 0 24 24" xmlns="http://www.w3.org/2000/svg"><path d="M2.400 0.062 C 1.428 0.272,0.610 0.944,0.235 1.839 C -0.015 2.437,0.000 1.810,0.000 12.000 C 0.000 22.190,-0.015 21.563,0.235 22.161 C 0.525 22.853,1.147 23.475,1.839 23.765 C 2.437 24.015,1.810 24.000,12.000 24.000 C 20.331 24.000,21.315 23.993,21.591 23.936 C 22.704 23.707,23.559 22.905,23.909 21.764 C 23.974 21.555,23.979 20.905,23.990 12.140 C 24.001 3.649,23.996 2.709,23.938 2.420 C 23.700 1.230,22.781 0.307,21.592 0.063 C 21.316 0.007,20.310 0.000,11.972 0.003 C 4.147 0.006,2.618 0.015,2.400 0.062 M9.584 3.253 C 9.890 3.394,10.162 3.668,10.308 3.980 L 10.420 4.220 10.420 11.380 L 10.420 18.540 10.315 18.760 C 10.090 19.232,9.693 19.524,9.176 19.599 C 8.814 19.651,4.746 19.651,4.384 19.599 C 3.867 19.524,3.470 19.232,3.245 18.760 L 3.140 18.540 3.140 11.380 L 3.140 4.220 3.252 3.980 C 3.437 3.584,3.749 3.314,4.180 3.175 C 4.304 3.136,4.897 3.126,6.840 3.132 L 9.340 3.140 9.584 3.253 M20.024 3.253 C 20.330 3.394,20.602 3.668,20.748 3.980 L 20.860 4.220 20.860 8.380 L 20.860 12.540 20.755 12.760 C 20.530 13.232,20.133 13.524,19.616 13.599 C 19.254 13.651,15.186 13.651,14.824 13.599 C 14.307 13.524,13.910 13.232,13.685 12.760 L 13.580 12.540 13.580 8.380 L 13.580 4.220 13.692 3.980 C 13.877 3.584,14.189 3.314,14.620 3.175 C 14.744 3.136,15.337 3.126,17.280 3.132 L 19.780 3.140 20.024 3.253 " stroke="none" fill="black" fill-rule="evenodd"></path></svg>