<svg role="img" xmlns="http://www.w3.org/2000/svg" viewBox="0 0 24 24"><path d="M10.940 0.046 C 6.242 0.452,2.169 3.651,0.644 8.132 C -0.377 11.134,-0.171 14.409,1.219 17.257 C 1.412 17.652,1.838 18.404,1.920 18.493 C 1.936 18.511,1.908 18.383,1.858 18.209 C 1.710 17.697,1.666 17.288,1.692 16.643 C 1.744 15.350,2.183 14.014,3.101 12.355 C 3.199 12.176,3.280 12.023,3.280 12.015 C 3.280 12.007,2.965 12.000,2.580 12.000 C 2.195 12.000,1.880 11.989,1.880 11.976 C 1.880 11.963,1.953 11.787,2.042 11.584 L 2.204 11.216 2.692 11.065 C 4.292 10.571,5.592 9.853,6.851 8.769 L 7.282 8.398 7.794 8.409 L 8.306 8.420 7.675 9.760 C 7.328 10.497,7.043 11.114,7.042 11.130 C 7.041 11.147,7.499 11.160,8.060 11.160 C 8.621 11.160,9.080 11.166,9.080 11.174 C 9.080 11.182,8.999 11.362,8.900 11.574 L 8.719 11.960 7.685 11.960 L 6.650 11.960 6.399 12.510 C 6.040 13.297,5.656 14.268,5.499 14.787 C 5.099 16.107,5.253 17.369,5.885 17.937 C 6.171 18.194,6.584 18.386,7.060 18.485 C 7.404 18.557,7.552 18.565,8.120 18.547 C 8.827 18.524,9.247 18.453,9.929 18.243 C 11.697 17.699,13.603 16.633,15.360 15.207 C 15.946 14.732,17.265 13.399,17.746 12.797 C 18.962 11.273,19.729 9.735,19.967 8.342 C 20.072 7.724,20.055 6.869,19.927 6.392 C 19.374 4.327,17.153 3.400,14.153 3.983 C 13.076 4.192,11.836 4.629,10.689 5.201 C 10.352 5.369,10.091 5.493,10.109 5.477 C 10.250 5.340,11.890 4.492,12.571 4.203 C 15.103 3.129,17.502 2.785,19.300 3.239 C 19.797 3.364,20.244 3.539,20.575 3.739 C 20.743 3.840,20.790 3.855,20.760 3.800 C 20.702 3.692,19.921 2.971,19.480 2.619 C 17.085 0.706,14.012 -0.220,10.940 0.046 M22.256 5.870 C 22.392 6.312,22.417 6.532,22.417 7.280 C 22.416 7.968,22.403 8.116,22.312 8.540 C 21.713 11.301,19.659 14.284,16.618 16.808 C 13.223 19.625,8.973 21.324,5.926 21.080 C 5.006 21.007,4.360 20.834,3.684 20.479 L 3.300 20.278 3.695 20.660 C 5.896 22.790,8.904 23.999,12.000 23.999 C 17.130 24.000,21.702 20.727,23.354 15.872 C 24.444 12.669,24.127 9.101,22.494 6.190 C 22.287 5.820,22.208 5.715,22.256 5.870 " stroke="none" fill="black" fill-rule="evenodd"></path></svg>