<svg role="img" viewBox="0 0 24 24" xmlns="http://www.w3.org/2000/svg"><path d="M10.578 5.000 L 9.181 9.280 4.601 9.290 L 0.020 9.300 3.729 11.975 C 5.770 13.446,7.432 14.661,7.424 14.675 C 7.379 14.751,4.637 23.210,4.652 23.225 C 4.662 23.236,6.198 22.142,8.065 20.795 C 9.932 19.449,12.666 17.480,14.140 16.420 C 17.623 13.914,23.843 9.409,23.919 9.336 C 23.969 9.288,23.341 9.280,19.398 9.280 L 14.819 9.280 13.422 5.000 C 12.654 2.646,12.014 0.720,12.000 0.720 C 11.986 0.720,11.346 2.646,10.578 5.000 M14.636 17.295 C 13.236 17.650,12.088 17.958,12.084 17.980 C 12.075 18.028,19.335 23.332,19.350 23.288 C 19.363 23.250,17.243 16.709,17.207 16.675 C 17.192 16.661,16.035 16.940,14.636 17.295 " stroke="none" fill="black" fill-rule="evenodd"></path></svg>