<svg role="img" viewBox="0 0 24 24" xmlns="http://www.w3.org/2000/svg"><path d="M21.391 2.462 C 20.796 2.607,20.232 3.066,19.979 3.615 C 19.700 4.218,19.701 4.842,19.980 5.424 C 20.615 6.743,22.329 7.039,23.360 6.009 C 24.222 5.147,24.206 3.820,23.324 2.990 C 22.791 2.489,22.081 2.295,21.391 2.462 M0.682 7.812 C 0.471 7.880,0.224 8.145,0.117 8.420 C 0.035 8.631,0.024 8.730,0.022 9.240 C 0.020 9.934,0.078 10.153,0.335 10.420 C 0.458 10.549,0.559 10.610,0.736 10.661 C 0.955 10.724,1.029 10.725,1.815 10.667 C 2.279 10.633,2.665 10.612,2.673 10.620 C 2.681 10.628,2.731 10.874,2.785 11.167 C 3.808 16.739,6.428 20.456,9.982 21.380 C 11.933 21.886,13.998 21.494,15.895 20.255 C 17.997 18.882,19.667 16.609,20.742 13.654 C 21.217 12.349,21.279 11.641,20.948 11.287 C 20.764 11.089,20.206 10.880,19.864 10.880 C 19.605 10.880,19.381 11.016,19.184 11.294 C 19.089 11.429,18.765 12.026,18.466 12.620 C 17.625 14.289,17.046 15.147,16.140 16.063 C 15.072 17.143,14.073 17.721,12.820 17.983 C 12.340 18.084,11.494 18.074,10.960 17.962 C 8.450 17.437,6.373 14.980,5.546 11.560 C 5.433 11.091,5.307 10.438,5.327 10.423 C 5.334 10.418,5.778 10.382,6.314 10.344 C 6.850 10.305,7.377 10.247,7.485 10.215 C 7.915 10.087,8.117 9.733,8.063 9.203 C 7.991 8.497,7.808 8.079,7.490 7.892 L 7.300 7.780 4.060 7.774 C 1.781 7.769,0.779 7.780,0.682 7.812 " stroke="none" fill="black" fill-rule="evenodd"></path></svg>