<svg role="img" viewBox="0 0 24 24" xmlns="http://www.w3.org/2000/svg"><path d="M11.460 0.061 C 10.510 0.214,9.430 0.646,8.390 1.287 C 8.176 1.419,7.992 1.541,7.981 1.558 C 7.971 1.574,8.165 1.539,8.413 1.478 C 10.531 0.962,12.163 1.125,12.973 1.935 C 13.222 2.184,13.454 2.608,13.546 2.985 C 13.644 3.382,13.635 4.143,13.525 4.665 C 13.367 5.420,13.002 6.397,12.510 7.380 C 12.302 7.794,11.738 8.824,11.672 8.908 C 11.645 8.942,11.516 8.861,11.207 8.616 C 8.603 6.546,5.941 5.513,3.843 5.758 C 2.762 5.884,1.920 6.233,1.292 6.816 C 0.659 7.405,0.281 8.146,0.091 9.175 C -0.005 9.692,-0.003 11.013,0.094 11.640 C 0.169 12.125,0.281 12.659,0.371 12.960 L 0.425 13.140 0.454 12.700 C 0.575 10.837,1.107 9.325,1.888 8.619 C 2.920 7.687,4.452 8.009,6.220 9.530 C 6.864 10.084,8.400 11.678,8.400 11.793 C 8.400 11.810,8.197 11.962,7.950 12.131 C 5.793 13.600,4.128 15.465,3.400 17.228 C 3.054 18.067,2.920 18.728,2.921 19.593 C 2.922 20.922,3.418 21.922,4.472 22.719 C 4.813 22.978,5.666 23.398,6.171 23.557 C 6.893 23.785,7.681 23.928,8.480 23.979 L 8.860 24.002 8.600 23.900 C 8.088 23.699,7.212 23.241,6.737 22.926 C 4.842 21.673,4.420 20.226,5.522 18.763 C 6.127 17.961,7.136 17.230,8.760 16.417 C 9.389 16.103,10.052 15.799,10.070 15.816 C 10.077 15.823,10.144 16.052,10.219 16.324 C 11.146 19.692,12.842 22.228,14.850 23.248 C 15.246 23.450,15.790 23.644,16.180 23.724 C 16.561 23.802,17.284 23.782,17.660 23.684 C 18.968 23.340,20.134 22.211,21.029 20.420 C 21.245 19.988,21.537 19.283,21.510 19.257 C 21.502 19.248,21.325 19.441,21.117 19.686 C 20.078 20.912,18.972 21.702,18.021 21.899 C 17.649 21.975,17.450 21.975,17.124 21.898 C 15.809 21.588,14.921 19.983,14.503 17.159 C 14.431 16.672,14.321 15.707,14.320 15.560 L 14.320 15.460 15.490 15.457 C 17.340 15.453,18.563 15.272,19.941 14.798 C 22.287 13.992,23.864 12.301,23.987 10.460 C 24.090 8.907,23.087 7.092,21.275 5.550 C 21.152 5.446,21.042 5.360,21.030 5.360 C 21.018 5.360,21.125 5.554,21.268 5.790 C 21.411 6.026,21.623 6.418,21.739 6.660 C 22.861 8.993,22.673 10.609,21.193 11.337 C 20.726 11.567,20.336 11.666,19.654 11.728 C 18.761 11.808,17.560 11.693,16.043 11.380 C 15.659 11.301,15.332 11.227,15.315 11.217 C 15.298 11.206,15.347 11.024,15.424 10.812 C 16.166 8.763,16.524 6.662,16.404 5.070 C 16.279 3.398,15.763 2.070,14.881 1.145 C 14.374 0.614,13.837 0.290,13.180 0.117 C 12.758 0.007,11.957 -0.020,11.460 0.061 M10.100 2.519 C 9.902 2.536,9.599 2.574,9.427 2.601 L 9.114 2.652 9.498 2.843 C 10.185 3.184,10.689 3.626,11.085 4.232 C 11.288 4.542,11.501 5.045,11.544 5.316 C 11.558 5.406,11.584 5.480,11.600 5.480 C 11.679 5.480,12.118 4.163,12.149 3.832 C 12.201 3.286,11.800 2.698,11.282 2.562 C 11.063 2.504,10.498 2.483,10.100 2.519 M20.344 7.020 C 20.222 7.918,20.040 8.451,19.667 9.000 C 19.472 9.288,19.010 9.744,18.726 9.929 L 18.464 10.100 18.702 10.132 C 18.833 10.149,19.228 10.158,19.580 10.151 C 20.136 10.141,20.245 10.128,20.409 10.052 C 20.673 9.931,20.937 9.646,21.041 9.369 C 21.212 8.916,21.071 8.255,20.595 7.280 L 20.371 6.820 20.344 7.020 M2.920 9.710 C 2.634 9.811,2.319 10.156,2.188 10.511 C 2.059 10.863,1.904 11.471,1.841 11.880 C 1.815 12.045,1.785 12.211,1.775 12.248 C 1.765 12.285,1.941 12.131,2.168 11.906 C 2.974 11.104,3.843 10.731,4.826 10.766 L 5.209 10.780 4.975 10.566 C 4.625 10.247,3.953 9.768,3.760 9.700 C 3.543 9.624,3.152 9.628,2.920 9.710 M16.343 18.307 C 16.517 19.069,16.728 19.715,16.876 19.938 C 17.109 20.289,17.572 20.511,17.984 20.468 C 18.268 20.439,18.480 20.338,18.863 20.048 C 19.210 19.786,19.975 19.081,19.945 19.051 C 19.935 19.041,19.822 19.055,19.693 19.081 C 19.060 19.213,18.323 19.195,17.784 19.036 C 17.402 18.923,16.875 18.647,16.568 18.398 C 16.325 18.200,16.318 18.197,16.343 18.307 M7.620 18.938 C 6.686 19.566,6.483 19.809,6.449 20.334 C 6.415 20.876,6.582 21.187,7.129 21.601 C 7.440 21.837,8.220 22.312,8.414 22.384 C 8.473 22.406,8.453 22.348,8.323 22.110 C 7.714 21.001,7.637 19.832,8.100 18.710 C 8.116 18.672,8.113 18.640,8.094 18.641 C 8.075 18.641,7.862 18.775,7.620 18.938 " stroke="none" fill="black" fill-rule="evenodd"></path></svg>