<svg role="img" viewBox="0 0 24 24" xmlns="http://www.w3.org/2000/svg"><path d="M0.000 12.000 L 0.000 24.000 12.000 24.000 L 24.000 24.000 24.000 12.000 L 24.000 0.000 12.000 0.000 L 0.000 0.000 0.000 12.000 M19.086 11.004 C 19.722 11.102,20.307 11.389,20.736 11.814 C 21.013 12.087,21.400 12.583,21.400 12.664 C 21.400 12.693,21.028 12.964,20.574 13.265 L 19.748 13.814 19.644 13.692 C 19.587 13.625,19.463 13.479,19.370 13.368 C 19.032 12.965,18.421 12.787,17.898 12.939 C 17.398 13.084,17.123 13.553,17.238 14.065 C 17.349 14.563,17.597 14.746,19.020 15.379 C 20.775 16.160,21.503 16.739,21.848 17.628 C 22.080 18.224,22.145 18.995,22.019 19.632 C 21.939 20.035,21.663 20.596,21.399 20.891 C 21.023 21.311,20.416 21.675,19.787 21.857 C 18.900 22.114,17.631 22.088,16.740 21.794 C 16.077 21.576,15.305 21.091,14.947 20.668 C 14.635 20.300,14.344 19.835,14.385 19.770 C 14.417 19.718,15.142 19.283,15.895 18.861 L 16.145 18.721 16.335 18.979 C 16.595 19.333,17.007 19.701,17.297 19.837 C 17.641 19.998,17.925 20.058,18.340 20.057 C 19.006 20.055,19.559 19.794,19.755 19.390 C 19.880 19.131,19.872 18.760,19.735 18.485 C 19.553 18.119,19.288 17.957,17.743 17.261 C 16.400 16.656,15.820 16.214,15.379 15.462 C 14.998 14.812,14.902 13.689,15.161 12.916 C 15.467 12.004,16.236 11.322,17.258 11.058 C 17.556 10.981,17.725 10.964,18.212 10.962 C 18.538 10.961,18.931 10.980,19.086 11.004 M13.674 11.101 C 13.686 11.113,13.704 11.554,13.713 12.081 L 13.730 13.040 12.165 13.040 L 10.600 13.040 10.590 17.470 L 10.580 21.900 9.490 21.911 L 8.400 21.921 8.400 17.481 L 8.400 13.041 6.830 13.030 L 5.260 13.020 5.246 12.860 C 5.239 12.772,5.245 12.336,5.261 11.891 L 5.289 11.082 5.754 11.067 C 6.427 11.044,13.648 11.075,13.674 11.101 " stroke="none" fill="black" fill-rule="evenodd"></path></svg>