<svg role="img" viewBox="0 0 24 24" xmlns="http://www.w3.org/2000/svg"><path d="M15.302 0.044 C 14.369 0.180,14.003 0.571,13.922 1.519 C 13.740 3.635,15.024 7.588,16.742 10.200 C 17.158 10.834,17.392 11.127,17.852 11.594 C 18.448 12.199,18.978 12.505,19.509 12.550 C 19.859 12.579,20.118 12.447,20.542 12.022 C 21.435 11.128,22.381 9.363,23.042 7.360 C 23.555 5.802,23.879 3.936,23.832 2.802 C 23.815 2.396,23.803 2.342,23.666 2.065 C 23.091 0.901,21.082 0.219,17.700 0.041 C 16.807 -0.007,15.639 -0.005,15.302 0.044 M9.820 0.428 C 7.804 0.701,5.431 1.307,3.780 1.970 C 1.979 2.693,0.789 3.518,0.452 4.276 C 0.237 4.760,0.182 5.111,0.183 6.000 C 0.184 6.859,0.227 7.271,0.424 8.300 C 1.171 12.193,3.530 17.537,5.917 20.740 C 6.471 21.483,6.842 21.912,7.406 22.463 C 8.177 23.217,8.759 23.616,9.436 23.855 C 9.740 23.962,9.831 23.976,10.220 23.976 C 10.593 23.976,10.707 23.959,10.971 23.868 C 11.408 23.716,11.770 23.526,12.283 23.180 C 12.965 22.719,13.272 22.454,14.182 21.543 C 15.097 20.628,15.594 20.052,16.432 18.940 C 17.014 18.168,18.065 16.612,18.029 16.576 C 18.017 16.564,17.938 16.574,17.854 16.598 C 17.599 16.670,17.001 16.695,16.762 16.644 C 15.947 16.469,14.927 15.519,13.881 13.960 C 12.075 11.269,10.232 6.795,9.670 3.740 C 9.553 3.103,9.541 1.801,9.648 1.413 C 9.748 1.053,9.867 0.824,10.069 0.599 L 10.247 0.400 10.094 0.406 C 10.009 0.409,9.886 0.419,9.820 0.428 " stroke="none" fill="black" fill-rule="evenodd"></path></svg>