<svg role="img" viewBox="0 0 24 24" xmlns="http://www.w3.org/2000/svg"><path d="M1.320 0.660 L 1.320 1.320 2.000 1.320 L 2.680 1.320 2.680 0.660 L 2.680 0.000 2.000 0.000 L 1.320 0.000 1.320 0.660 M21.660 0.041 C 18.465 0.205,16.751 1.090,16.202 2.860 C 15.997 3.522,16.000 3.400,16.000 10.684 C 16.000 17.461,15.990 18.046,15.858 18.876 C 15.825 19.082,15.804 19.257,15.810 19.264 C 15.841 19.294,16.575 19.106,17.067 18.941 C 18.194 18.565,19.121 17.996,19.924 17.189 C 20.554 16.556,21.063 15.818,21.503 14.900 C 21.823 14.232,21.962 13.854,22.357 12.572 L 22.680 11.524 22.670 5.772 L 22.660 0.020 22.460 0.015 C 22.350 0.013,21.990 0.024,21.660 0.041 M5.347 1.347 C 5.332 1.361,5.320 1.658,5.320 2.007 L 5.320 2.640 6.000 2.640 L 6.680 2.640 6.680 1.980 L 6.680 1.320 6.027 1.320 C 5.667 1.320,5.361 1.332,5.347 1.347 M4.009 3.330 L 4.020 3.980 4.670 3.991 L 5.320 4.002 5.320 3.341 L 5.320 2.680 4.659 2.680 L 3.998 2.680 4.009 3.330 M6.680 3.980 L 6.680 4.640 7.340 4.640 L 8.000 4.640 8.000 3.980 L 8.000 3.320 7.340 3.320 L 6.680 3.320 6.680 3.980 M1.337 3.695 C 1.325 3.725,1.323 6.366,1.331 9.565 C 1.348 15.903,1.342 15.713,1.581 16.773 C 1.810 17.788,2.275 18.886,2.827 19.720 C 4.559 22.333,7.589 23.842,11.380 23.981 C 11.877 23.999,11.967 23.994,11.905 23.952 C 11.176 23.454,10.710 23.067,10.211 22.545 C 8.938 21.213,8.195 19.615,8.041 17.878 C 8.017 17.600,8.001 15.502,8.000 12.530 L 8.000 7.640 7.340 7.640 L 6.680 7.640 6.680 10.101 L 6.680 12.562 6.010 12.551 L 5.340 12.540 5.330 11.070 L 5.319 9.600 4.660 9.600 L 4.000 9.600 4.000 10.260 L 4.000 10.920 3.340 10.920 L 2.680 10.920 2.680 7.280 L 2.680 3.640 2.019 3.640 C 1.497 3.640,1.353 3.652,1.337 3.695 M5.360 5.661 L 5.360 6.322 6.010 6.311 L 6.660 6.300 6.671 5.650 L 6.682 5.000 6.021 5.000 L 5.360 5.000 5.360 5.661 M4.000 7.620 L 4.000 8.280 4.660 8.280 L 5.320 8.280 5.320 7.620 L 5.320 6.960 4.660 6.960 L 4.000 6.960 4.000 7.620 M22.463 14.010 C 21.424 16.911,19.506 18.813,16.846 19.578 C 15.779 19.886,14.987 19.981,13.540 19.977 C 12.599 19.974,12.330 19.960,11.860 19.887 C 10.660 19.700,10.134 19.522,8.790 18.848 C 8.728 18.817,8.766 18.994,8.918 19.445 C 9.256 20.452,9.798 21.335,10.580 22.155 C 11.212 22.819,11.809 23.277,12.639 23.737 L 13.059 23.970 13.659 23.904 C 17.825 23.443,20.872 21.262,22.102 17.860 C 22.293 17.330,22.500 16.457,22.577 15.846 C 22.637 15.374,22.714 13.480,22.673 13.480 C 22.662 13.480,22.568 13.718,22.463 14.010 " stroke="none" fill="black" fill-rule="evenodd"></path></svg>