<svg role="img" viewBox="0 0 24 24" xmlns="http://www.w3.org/2000/svg"><path d="M10.920 0.361 C 8.753 0.567,6.699 1.311,4.984 2.512 C 3.770 3.363,2.534 4.659,1.766 5.885 C -0.832 10.037,-0.536 15.338,2.506 19.160 C 2.918 19.677,3.804 20.564,4.340 20.995 C 5.978 22.313,7.903 23.170,10.000 23.516 C 13.070 24.021,16.240 23.343,18.800 21.631 C 19.740 21.003,20.814 20.013,21.511 19.132 C 24.830 14.937,24.822 9.020,21.494 4.840 C 21.104 4.350,20.249 3.487,19.749 3.076 C 17.974 1.620,15.943 0.744,13.585 0.418 C 13.053 0.345,11.455 0.311,10.920 0.361 M6.590 7.437 C 7.036 7.499,7.428 7.573,7.460 7.600 C 7.540 7.666,7.536 7.808,7.442 8.207 C 7.203 9.222,7.076 10.527,7.070 12.049 C 7.065 13.155,7.118 13.656,7.302 14.239 C 7.521 14.932,8.032 15.457,8.726 15.702 C 9.272 15.895,11.477 16.025,13.123 15.961 C 14.171 15.920,14.555 15.880,15.060 15.757 C 15.966 15.537,16.513 14.988,16.732 14.080 C 16.878 13.472,16.900 13.157,16.900 11.660 L 16.900 10.180 16.749 9.260 C 16.667 8.754,16.572 8.241,16.540 8.120 C 16.465 7.839,16.464 7.663,16.539 7.601 C 16.612 7.541,18.260 7.306,18.387 7.338 C 18.512 7.370,18.546 7.448,18.658 7.968 C 18.943 9.293,19.057 10.459,19.056 12.060 C 19.056 13.726,18.948 14.512,18.594 15.426 C 18.403 15.921,18.194 16.251,17.845 16.613 C 17.134 17.350,16.173 17.721,14.400 17.943 C 13.707 18.029,11.220 18.066,10.353 18.002 C 8.214 17.845,7.055 17.479,6.247 16.705 C 5.734 16.214,5.422 15.640,5.201 14.784 C 4.987 13.951,4.942 13.449,4.945 11.940 C 4.948 10.446,4.976 10.077,5.184 8.840 C 5.356 7.808,5.450 7.477,5.594 7.388 C 5.726 7.306,5.634 7.302,6.590 7.437 " stroke="none" fill="black" fill-rule="evenodd"></path></svg>