<svg role="img" viewBox="0 0 24 24" xmlns="http://www.w3.org/2000/svg"><path d="M18.300 4.881 C 17.860 4.973,17.470 5.121,17.100 5.337 C 16.738 5.549,16.114 6.166,15.846 6.578 L 15.640 6.896 15.640 6.028 L 15.640 5.160 14.160 5.160 L 12.680 5.160 12.680 12.140 L 12.680 19.120 14.220 19.120 L 15.760 19.120 15.759 17.570 C 15.758 16.052,15.708 14.473,15.656 14.305 C 15.641 14.258,15.737 14.364,15.868 14.540 C 16.472 15.349,17.260 15.865,18.200 16.067 C 18.468 16.125,18.705 16.139,19.320 16.136 C 20.030 16.133,20.136 16.123,20.500 16.027 C 22.771 15.423,24.098 13.183,23.987 10.140 C 23.916 8.174,23.281 6.682,22.120 5.749 C 21.736 5.441,21.125 5.123,20.680 5.000 C 19.922 4.791,18.960 4.743,18.300 4.881 M0.000 8.230 C 0.000 10.036,0.017 11.446,0.042 11.720 C 0.156 12.955,0.506 13.926,1.109 14.678 C 1.984 15.768,3.562 16.298,5.720 16.228 C 7.628 16.166,8.962 15.619,9.730 14.584 C 10.175 13.983,10.463 13.267,10.648 12.300 C 10.729 11.879,10.733 11.712,10.749 8.530 L 10.765 5.200 9.244 5.200 L 7.723 5.200 7.711 8.390 C 7.698 11.519,7.697 11.586,7.612 11.886 C 7.388 12.678,6.978 13.102,6.240 13.304 C 5.873 13.405,4.887 13.405,4.520 13.304 C 3.790 13.104,3.410 12.711,3.188 11.926 C 3.103 11.626,3.102 11.560,3.089 8.410 L 3.077 5.200 1.538 5.200 L 0.000 5.200 0.000 8.230 M18.953 7.524 C 19.735 7.722,20.341 8.304,20.615 9.120 C 20.757 9.546,20.799 9.860,20.800 10.506 C 20.800 11.555,20.589 12.215,20.071 12.783 C 19.667 13.226,19.202 13.446,18.506 13.525 C 17.605 13.627,16.714 13.314,16.176 12.705 C 15.965 12.466,15.713 11.967,15.621 11.607 C 15.459 10.972,15.469 9.903,15.642 9.280 C 15.780 8.784,15.945 8.493,16.279 8.160 C 16.588 7.851,16.883 7.667,17.270 7.542 C 17.734 7.391,18.399 7.384,18.953 7.524 M4.621 17.522 C 3.241 17.636,2.122 18.068,1.400 18.766 C 1.301 18.862,1.178 18.998,1.127 19.070 L 1.035 19.200 5.424 19.200 L 9.814 19.200 9.718 19.090 C 9.198 18.495,8.727 18.165,8.022 17.902 C 7.160 17.579,5.786 17.426,4.621 17.522 " stroke="none" fill="black" fill-rule="evenodd"></path></svg>