<svg xmlns="http://www.w3.org/2000/svg" viewBox="0 0 24 24" role="img"><path d="M11.271 1.419 C 10.635 1.524,9.916 1.810,9.381 2.173 C 9.068 2.385,8.523 2.911,8.276 3.239 C 8.168 3.382,7.999 3.655,7.901 3.844 C 7.131 5.326,7.192 6.995,8.069 8.453 L 8.209 8.686 7.803 9.093 C 7.286 9.612,6.983 10.019,6.685 10.599 C 6.411 11.133,6.241 11.609,6.115 12.200 C 5.985 12.806,5.985 13.915,6.115 14.520 C 6.242 15.112,6.406 15.581,6.665 16.087 C 7.521 17.759,9.024 18.887,10.901 19.267 C 11.399 19.367,12.590 19.367,13.100 19.266 C 15.530 18.785,17.360 16.971,17.885 14.520 C 18.015 13.915,18.015 12.806,17.885 12.200 C 17.759 11.608,17.589 11.132,17.315 10.600 C 17.019 10.026,16.653 9.533,16.170 9.057 L 15.796 8.688 15.999 8.334 C 16.435 7.574,16.610 6.921,16.616 6.040 C 16.620 5.411,16.560 5.031,16.372 4.480 C 15.861 2.983,14.565 1.829,13.000 1.476 C 12.539 1.372,11.722 1.345,11.271 1.419 M0.040 3.587 C 0.040 3.603,0.522 4.457,1.110 5.487 L 2.180 7.359 2.944 7.359 L 3.708 7.360 4.680 9.210 C 5.214 10.228,5.688 11.121,5.732 11.195 L 5.812 11.329 5.923 11.027 C 6.190 10.292,6.750 9.402,7.286 8.856 L 7.527 8.611 7.348 8.236 C 7.010 7.523,6.882 6.993,6.851 6.180 C 6.836 5.756,6.847 5.535,6.896 5.272 L 6.962 4.923 6.621 4.242 L 6.280 3.560 3.160 3.560 C 1.444 3.560,0.040 3.572,0.040 3.587 M17.567 3.830 C 17.481 3.979,17.320 4.259,17.209 4.453 L 17.009 4.807 17.072 5.053 C 17.155 5.378,17.163 6.542,17.085 6.940 C 17.005 7.345,16.791 7.981,16.621 8.319 L 16.473 8.611 16.714 8.856 C 17.250 9.401,17.810 10.292,18.077 11.024 C 18.157 11.246,18.197 11.311,18.226 11.272 C 18.248 11.244,18.723 10.352,19.280 9.290 L 20.294 7.360 21.059 7.360 L 21.823 7.360 22.909 5.460 L 23.994 3.560 20.859 3.560 L 17.724 3.560 17.567 3.830 M12.515 4.298 C 13.403 4.535,14.040 5.359,14.040 6.273 C 14.040 7.459,12.980 8.423,11.809 8.303 C 10.760 8.196,9.960 7.317,9.960 6.273 C 9.960 5.368,10.593 4.541,11.468 4.300 C 11.726 4.229,12.251 4.228,12.515 4.298 M12.459 11.100 C 13.170 11.251,13.778 11.726,14.078 12.366 C 14.164 12.550,14.256 12.825,14.282 12.977 C 14.407 13.691,14.166 14.455,13.653 14.977 C 12.540 16.111,10.731 15.814,10.008 14.379 C 9.677 13.724,9.690 12.974,10.043 12.274 C 10.319 11.728,10.969 11.239,11.600 11.102 C 11.940 11.029,12.120 11.029,12.459 11.100 M10.400 19.699 C 10.400 19.742,11.977 22.600,12.000 22.600 C 12.029 22.600,13.611 19.717,13.592 19.699 C 13.583 19.690,13.406 19.720,13.198 19.765 C 12.603 19.893,11.667 19.911,11.060 19.805 C 10.796 19.759,10.540 19.710,10.490 19.696 C 10.441 19.682,10.400 19.684,10.400 19.699 " stroke="none" fill="black" fill-rule="evenodd"></path></svg>