<svg role="img" viewBox="0 0 24 24" xmlns="http://www.w3.org/2000/svg"><path d="M10.940 0.046 C 6.250 0.451,2.164 3.667,0.643 8.147 C -0.199 10.629,-0.199 13.371,0.643 15.853 C 2.060 20.028,5.700 23.120,10.040 23.836 C 13.424 24.394,16.836 23.498,19.541 21.341 C 20.048 20.937,20.926 20.058,21.340 19.541 C 22.753 17.776,23.601 15.775,23.926 13.440 C 23.997 12.931,23.997 11.069,23.926 10.560 C 23.602 8.232,22.755 6.230,21.351 4.470 C 20.939 3.954,20.063 3.078,19.541 2.660 C 17.105 0.710,14.038 -0.222,10.940 0.046 M12.893 2.084 C 13.678 2.154,13.729 2.175,13.265 2.235 C 12.433 2.344,11.514 2.623,10.780 2.990 C 10.334 3.213,9.556 3.722,9.444 3.864 C 9.279 4.074,9.415 4.086,10.275 3.941 C 11.345 3.761,12.063 3.723,12.900 3.801 C 15.749 4.069,18.117 5.690,19.135 8.068 C 19.488 8.893,19.640 9.613,19.669 10.600 C 19.738 12.930,19.006 14.596,17.469 15.605 C 17.100 15.848,16.568 16.120,16.464 16.120 C 16.375 16.120,15.889 15.856,15.660 15.683 C 14.867 15.085,14.267 14.099,13.983 12.926 C 13.789 12.125,13.749 11.132,13.897 10.789 C 13.990 10.572,14.231 10.322,14.440 10.226 C 14.591 10.157,14.701 10.143,15.117 10.142 C 15.657 10.140,15.702 10.120,15.581 9.936 C 15.484 9.788,15.193 9.618,14.834 9.498 C 14.661 9.441,14.520 9.378,14.520 9.359 C 14.520 9.296,14.811 9.260,15.323 9.260 C 15.804 9.260,15.836 9.265,16.063 9.381 C 16.254 9.478,16.323 9.542,16.420 9.710 C 16.486 9.824,16.551 9.918,16.564 9.919 C 16.610 9.921,16.837 9.378,16.898 9.120 C 16.974 8.794,16.975 8.665,16.901 8.417 C 16.788 8.037,16.387 7.753,15.848 7.672 C 15.700 7.650,15.542 7.625,15.495 7.616 C 15.431 7.605,15.398 7.553,15.363 7.414 C 15.305 7.185,15.115 6.985,14.898 6.924 C 14.811 6.900,14.478 6.880,14.157 6.880 C 13.511 6.880,13.235 6.825,13.086 6.666 C 12.938 6.508,12.936 6.336,13.080 5.936 C 13.259 5.436,13.270 5.360,13.164 5.360 C 12.956 5.360,12.582 5.697,11.873 6.523 C 11.616 6.821,11.311 7.137,11.193 7.225 C 11.076 7.313,10.836 7.491,10.660 7.621 C 10.083 8.046,9.412 8.746,9.499 8.832 C 9.515 8.847,9.565 8.860,9.610 8.860 C 9.656 8.860,9.699 8.878,9.707 8.901 C 9.714 8.924,9.575 9.113,9.396 9.321 C 8.719 10.110,8.129 10.998,8.091 11.283 L 8.068 11.449 8.234 11.421 C 8.325 11.406,8.400 11.409,8.400 11.428 C 8.400 11.447,8.300 11.696,8.178 11.981 C 7.629 13.266,7.341 14.146,7.367 14.460 C 7.384 14.670,7.469 14.684,7.734 14.519 C 7.847 14.448,7.994 14.388,8.060 14.385 C 8.173 14.380,8.180 14.389,8.176 14.525 C 8.174 14.608,8.118 14.764,8.046 14.890 L 7.919 15.111 6.810 15.141 C 5.092 15.188,4.635 15.091,4.069 14.565 C 3.863 14.374,3.812 14.249,3.703 13.674 C 3.492 12.557,3.529 11.234,3.804 10.090 L 3.893 9.720 5.942 9.720 L 7.991 9.720 9.015 7.907 C 9.579 6.910,10.040 6.082,10.040 6.067 C 10.040 6.052,8.855 6.040,7.406 6.040 L 4.772 6.040 4.590 6.271 C 4.053 6.955,3.477 8.003,3.167 8.860 C 2.576 10.496,2.454 12.323,2.821 14.062 C 2.846 14.180,2.841 14.185,2.630 14.252 C 2.511 14.289,2.395 14.320,2.372 14.320 C 2.325 14.320,2.227 13.885,2.133 13.260 C 2.043 12.656,2.043 11.222,2.133 10.628 C 2.470 8.401,3.418 6.506,4.967 4.962 C 5.722 4.210,6.528 3.626,7.478 3.143 C 8.710 2.516,9.793 2.213,11.320 2.066 C 11.651 2.035,12.443 2.043,12.893 2.084 M6.519 6.730 C 6.540 6.780,6.640 7.225,6.743 7.720 C 6.845 8.215,6.933 8.625,6.939 8.632 C 6.945 8.638,7.202 8.197,7.510 7.652 L 8.070 6.660 8.464 6.660 C 8.795 6.660,8.861 6.670,8.871 6.724 C 8.891 6.828,7.513 9.171,7.398 9.229 C 7.336 9.260,7.120 9.279,6.814 9.279 C 6.411 9.280,6.314 9.268,6.243 9.210 C 6.172 9.152,6.110 8.932,5.897 7.965 C 5.754 7.320,5.648 6.757,5.661 6.715 C 5.683 6.648,5.728 6.640,6.084 6.640 C 6.459 6.640,6.484 6.645,6.519 6.730 M14.281 7.362 C 14.445 7.408,14.624 7.473,14.677 7.508 L 14.774 7.571 14.637 7.687 C 14.428 7.863,14.282 7.930,14.160 7.906 C 14.099 7.894,13.890 7.810,13.695 7.719 L 13.340 7.554 13.497 7.417 C 13.686 7.251,13.838 7.241,14.281 7.362 M5.436 17.680 C 5.994 18.038,6.682 18.232,6.360 17.940 C 6.151 17.751,6.318 17.769,6.941 18.004 C 7.288 18.135,7.630 18.228,8.185 18.341 C 8.253 18.356,8.279 18.407,8.319 18.609 C 8.400 19.023,8.624 19.753,8.819 20.237 C 8.919 20.487,8.997 20.695,8.991 20.700 C 8.985 20.704,8.843 20.810,8.675 20.935 L 8.369 21.163 8.167 21.083 C 7.510 20.824,6.580 20.284,5.923 19.780 C 5.261 19.273,4.362 18.367,4.055 17.897 C 3.993 17.803,3.993 17.794,4.064 17.739 C 4.106 17.708,4.275 17.627,4.440 17.560 C 4.862 17.389,5.010 17.407,5.436 17.680 " stroke="none" fill="black" fill-rule="evenodd"></path></svg>