<svg role="img" viewBox="0 0 24 24" xmlns="http://www.w3.org/2000/svg"><path d="M3.229 9.858 C 2.882 9.930,2.591 9.996,2.582 10.004 C 2.574 10.013,2.593 10.119,2.626 10.240 C 2.713 10.563,2.677 11.097,2.539 11.500 C 2.406 11.893,1.961 12.779,1.921 12.733 C 1.905 12.715,1.815 12.061,1.721 11.280 C 1.627 10.499,1.539 9.849,1.525 9.836 C 1.501 9.812,0.044 9.943,0.016 9.971 C 0.004 9.983,0.648 13.875,0.701 14.110 C 0.722 14.200,0.722 14.200,1.578 14.200 L 2.435 14.200 2.614 13.968 C 3.233 13.163,3.874 11.995,4.063 11.328 C 4.155 11.003,4.167 10.902,4.152 10.528 C 4.138 10.179,4.117 10.065,4.039 9.910 C 3.987 9.806,3.925 9.722,3.902 9.724 C 3.879 9.726,3.576 9.787,3.229 9.858 M11.130 9.781 C 10.993 9.810,10.746 9.905,10.582 9.991 L 10.284 10.147 10.272 9.984 L 10.260 9.820 9.612 9.809 L 8.964 9.798 8.941 9.929 C 8.913 10.091,8.280 14.168,8.280 14.187 C 8.280 14.195,8.617 14.197,9.030 14.191 L 9.780 14.180 10.021 12.641 L 10.262 11.102 10.441 11.033 C 10.688 10.938,10.890 10.941,10.979 11.039 C 11.067 11.136,11.068 11.130,10.799 12.847 C 10.689 13.545,10.600 14.134,10.600 14.157 C 10.600 14.186,10.844 14.200,11.339 14.200 C 12.073 14.200,12.079 14.199,12.099 14.110 C 12.110 14.060,12.221 13.381,12.345 12.600 C 12.620 10.871,12.642 10.446,12.472 10.156 C 12.341 9.933,12.234 9.858,11.933 9.780 C 11.657 9.708,11.463 9.708,11.130 9.781 M15.748 9.763 C 15.527 9.809,15.168 9.960,14.999 10.081 L 14.882 10.164 14.863 10.072 C 14.852 10.021,14.838 9.944,14.831 9.900 C 14.819 9.824,14.788 9.820,14.179 9.820 L 13.540 9.820 13.253 11.620 C 13.096 12.610,12.941 13.587,12.910 13.790 L 12.852 14.160 13.603 14.160 L 14.354 14.160 14.375 14.050 C 14.387 13.990,14.488 13.337,14.600 12.600 C 14.711 11.863,14.810 11.222,14.820 11.176 C 14.833 11.117,14.898 11.073,15.044 11.026 C 15.281 10.950,15.413 10.943,15.523 11.001 C 15.642 11.065,15.621 11.339,15.384 12.820 C 15.268 13.546,15.180 14.153,15.189 14.170 C 15.211 14.212,16.630 14.208,16.656 14.166 C 16.668 14.147,16.777 13.486,16.900 12.696 C 17.022 11.906,17.131 11.221,17.141 11.174 C 17.162 11.076,17.447 10.960,17.665 10.960 C 17.812 10.960,17.920 11.076,17.920 11.233 C 17.920 11.285,17.821 11.955,17.700 12.720 C 17.579 13.485,17.480 14.132,17.480 14.156 C 17.480 14.186,17.707 14.200,18.219 14.200 C 18.953 14.200,18.959 14.199,18.979 14.110 C 18.991 14.060,19.110 13.318,19.244 12.460 C 19.518 10.701,19.529 10.459,19.345 10.144 C 19.217 9.927,19.104 9.853,18.774 9.771 C 18.360 9.669,17.933 9.740,17.429 9.993 L 17.039 10.190 16.958 10.078 C 16.774 9.819,16.202 9.670,15.748 9.763 M21.840 9.763 C 20.957 9.896,20.317 10.462,20.010 11.380 C 19.912 11.675,19.904 11.752,19.902 12.380 C 19.901 13.001,19.909 13.080,19.994 13.291 C 20.174 13.739,20.506 14.064,20.913 14.190 C 21.211 14.282,21.970 14.283,22.265 14.191 C 23.181 13.906,23.754 13.203,23.940 12.134 C 24.093 11.258,23.933 10.517,23.507 10.133 C 23.133 9.795,22.524 9.660,21.840 9.763 M6.148 9.820 C 5.561 9.981,5.017 10.448,4.725 11.040 C 4.436 11.626,4.332 12.374,4.458 12.966 C 4.592 13.600,4.928 13.980,5.513 14.161 C 5.981 14.306,6.885 14.255,7.450 14.052 C 7.555 14.015,7.640 13.965,7.640 13.942 C 7.641 13.919,7.677 13.668,7.720 13.384 C 7.833 12.658,7.847 12.704,7.548 12.839 C 7.286 12.958,6.780 13.080,6.550 13.080 C 6.230 13.080,5.920 12.793,5.920 12.496 L 5.920 12.371 6.230 12.348 C 7.159 12.279,7.939 11.821,8.105 11.248 C 8.284 10.634,7.982 10.055,7.368 9.832 C 7.137 9.748,6.435 9.741,6.148 9.820 M6.847 10.826 C 6.964 10.932,6.943 11.163,6.805 11.295 C 6.683 11.412,6.273 11.560,6.071 11.560 C 5.953 11.560,5.950 11.556,5.974 11.411 C 6.004 11.226,6.178 10.971,6.357 10.851 C 6.516 10.744,6.743 10.732,6.847 10.826 M22.323 10.983 C 22.411 11.077,22.421 11.126,22.433 11.513 C 22.448 11.998,22.379 12.405,22.224 12.742 C 22.083 13.050,21.816 13.196,21.602 13.081 C 21.320 12.930,21.336 11.817,21.629 11.244 C 21.807 10.898,22.129 10.777,22.323 10.983 " stroke="none" fill="black" fill-rule="evenodd"></path></svg>