<svg role="img" viewBox="0 0 24 24" xmlns="http://www.w3.org/2000/svg"><path d="M11.800 0.053 C 11.204 0.364,1.793 5.838,1.717 5.919 L 1.613 6.026 1.586 11.934 C 1.564 16.882,1.568 17.863,1.614 17.971 C 1.663 18.086,2.218 18.418,6.744 21.039 C 11.616 23.859,11.828 23.977,12.020 23.978 C 12.213 23.978,12.406 23.869,17.220 21.065 C 19.970 19.463,22.265 18.109,22.320 18.056 L 22.420 17.958 22.420 12.000 L 22.420 6.042 22.320 5.945 C 22.234 5.863,12.703 0.316,12.246 0.083 C 12.058 -0.013,11.941 -0.021,11.800 0.053 M11.560 6.241 L 11.560 11.242 11.470 11.185 C 11.421 11.153,9.490 10.035,7.180 8.700 C 4.870 7.366,2.965 6.260,2.948 6.242 C 2.920 6.215,11.449 1.245,11.530 1.241 C 11.547 1.241,11.560 3.490,11.560 6.241 M16.767 3.711 C 19.114 5.069,21.040 6.196,21.047 6.215 C 21.054 6.235,19.413 7.203,17.400 8.368 C 15.387 9.532,13.447 10.654,13.090 10.861 L 12.440 11.237 12.440 6.238 C 12.440 3.489,12.454 1.240,12.470 1.241 C 12.487 1.241,14.420 2.353,16.767 3.711 M6.793 9.500 C 9.151 10.864,11.080 11.990,11.080 12.001 C 11.080 12.020,2.567 16.960,2.476 16.993 C 2.455 17.001,2.440 14.958,2.440 12.000 C 2.440 9.246,2.455 6.999,2.473 7.007 C 2.492 7.014,4.436 8.136,6.793 9.500 M21.546 16.988 C 21.527 17.007,13.023 12.078,12.952 12.008 C 12.937 11.992,14.863 10.859,17.232 9.490 L 21.540 6.999 21.550 11.986 C 21.556 14.729,21.554 16.980,21.546 16.988 M11.560 17.801 L 11.560 22.802 11.470 22.744 C 11.421 22.713,9.490 21.595,7.180 20.260 C 4.870 18.925,2.965 17.819,2.948 17.802 C 2.919 17.775,11.452 12.803,11.530 12.801 C 11.547 12.800,11.560 15.050,11.560 17.801 M16.000 14.830 C 20.828 17.624,21.083 17.774,21.050 17.802 C 21.001 17.844,12.612 22.718,12.543 22.744 C 12.486 22.766,12.480 22.303,12.480 17.780 L 12.480 12.792 12.650 12.891 C 12.743 12.945,14.251 13.818,16.000 14.830 " stroke="none" fill="black" fill-rule="evenodd"></path></svg>