<svg role="img" viewBox="0 0 24 24" xmlns="http://www.w3.org/2000/svg"><path d="M11.489 0.670 C 12.463 2.374,13.414 4.392,14.124 6.260 C 14.416 7.026,14.442 7.034,14.337 6.325 C 13.979 3.895,13.040 1.861,11.633 0.470 C 11.394 0.233,11.183 0.040,11.164 0.040 C 11.145 0.040,11.291 0.323,11.489 0.670 M20.879 0.918 C 20.465 1.624,19.942 2.180,19.309 2.590 C 18.933 2.833,18.615 2.971,18.052 3.137 C 17.003 3.444,16.296 3.769,15.785 4.177 C 15.372 4.507,14.923 5.239,14.777 5.820 C 14.610 6.488,14.727 7.397,15.076 8.142 L 15.238 8.487 15.369 8.459 C 15.733 8.382,16.635 8.050,17.098 7.824 C 17.992 7.387,18.669 6.890,19.402 6.135 C 19.958 5.562,20.146 5.311,20.756 4.320 C 20.805 4.240,20.743 4.526,20.660 4.760 C 20.260 5.891,18.522 7.489,16.180 8.879 C 15.982 8.997,15.811 9.101,15.800 9.110 C 15.770 9.136,16.141 9.453,16.471 9.683 C 17.253 10.229,18.117 10.429,18.952 10.256 C 20.040 10.032,20.990 9.175,21.684 7.793 C 22.331 6.503,22.479 4.509,22.054 2.820 C 21.886 2.151,21.539 1.295,21.231 0.789 L 21.091 0.557 20.879 0.918 M9.263 6.723 C 8.302 6.815,7.256 7.109,6.431 7.519 C 5.574 7.946,4.935 8.424,4.180 9.205 C 2.793 10.638,2.007 12.282,1.753 14.280 C 1.682 14.839,1.694 16.084,1.777 16.658 C 1.981 18.090,2.536 19.465,3.357 20.575 C 5.035 22.847,7.308 23.998,10.120 23.999 C 12.533 24.001,14.576 23.156,16.141 21.510 C 17.442 20.142,18.213 18.598,18.511 16.760 C 18.619 16.100,18.606 14.544,18.487 13.877 C 18.382 13.283,18.254 12.791,18.081 12.314 L 17.955 11.968 17.588 12.161 C 17.141 12.396,16.723 12.563,16.292 12.681 L 15.968 12.770 16.030 12.915 C 16.137 13.169,16.321 13.848,16.383 14.220 C 16.469 14.740,16.498 15.627,16.445 16.115 C 16.266 17.738,15.633 19.092,14.543 20.183 C 13.448 21.278,12.180 21.844,10.521 21.978 C 10.351 21.992,10.239 21.987,10.261 21.968 C 10.282 21.949,10.486 21.792,10.713 21.620 C 11.486 21.034,12.466 20.024,13.129 19.131 C 13.952 18.021,14.631 16.663,14.998 15.393 C 15.275 14.435,15.396 13.639,15.427 12.559 C 15.476 10.889,15.194 9.214,14.569 7.472 L 14.458 7.165 14.474 8.352 C 14.531 12.786,13.728 16.670,12.265 19.029 C 11.455 20.336,10.381 21.322,9.245 21.803 C 9.046 21.888,9.009 21.891,8.760 21.848 C 8.080 21.732,7.037 21.260,6.389 20.775 C 5.529 20.133,4.836 19.246,4.375 18.197 C 3.686 16.632,3.617 14.750,4.187 13.104 C 4.838 11.226,6.518 9.567,8.320 9.026 C 8.987 8.826,9.321 8.782,10.160 8.783 C 11.016 8.785,11.415 8.845,12.104 9.077 C 12.335 9.154,12.450 9.177,12.459 9.146 C 12.466 9.121,12.493 8.965,12.518 8.800 C 12.572 8.443,12.787 7.783,12.960 7.439 C 13.029 7.303,13.080 7.187,13.073 7.181 C 13.043 7.157,12.514 6.997,12.220 6.924 C 11.430 6.729,10.131 6.640,9.263 6.723 " stroke="none" fill="black" fill-rule="evenodd"></path></svg>