<svg role="img" viewBox="0 0 24 24" xmlns="http://www.w3.org/2000/svg"><path d="M11.340 0.680 L 10.701 1.320 10.420 1.040 L 10.138 0.760 6.093 0.760 L 2.049 0.760 1.724 1.115 L 1.400 1.471 1.400 2.406 L 1.400 3.342 1.711 3.651 L 2.022 3.960 2.371 3.960 L 2.720 3.960 2.720 6.630 L 2.720 9.300 1.370 10.650 L 0.020 12.000 1.370 13.350 L 2.720 14.700 2.720 17.943 L 2.720 21.185 3.193 21.452 L 3.665 21.720 4.809 21.720 L 5.954 21.720 6.887 20.760 L 7.820 19.801 9.910 21.890 L 12.000 23.980 13.250 22.730 L 14.500 21.480 14.760 21.479 C 14.903 21.479,15.065 21.456,15.120 21.428 C 15.243 21.366,15.401 20.969,15.390 20.749 C 15.383 20.604,15.409 20.571,16.080 19.900 C 16.463 19.517,16.783 19.210,16.791 19.218 C 16.800 19.226,16.668 19.677,16.499 20.221 C 16.165 21.291,16.159 21.356,16.382 21.441 C 16.518 21.492,18.244 21.492,18.380 21.440 C 18.455 21.411,18.518 21.327,18.602 21.141 C 18.667 20.998,18.720 20.849,18.720 20.810 C 18.720 20.689,18.603 20.560,18.495 20.560 C 18.366 20.560,18.348 20.638,18.833 19.120 L 19.224 17.900 19.832 17.889 C 20.166 17.883,20.440 17.893,20.440 17.912 C 20.440 17.931,20.215 18.659,19.940 19.530 C 19.665 20.400,19.440 21.157,19.440 21.210 C 19.440 21.264,19.478 21.342,19.524 21.384 C 19.601 21.454,19.691 21.461,20.637 21.472 C 21.282 21.479,21.706 21.468,21.775 21.442 C 21.886 21.400,22.056 21.088,22.107 20.834 C 22.142 20.659,22.031 20.520,21.856 20.520 C 21.740 20.520,21.718 20.507,21.735 20.450 C 21.747 20.412,22.000 19.586,22.298 18.616 C 22.596 17.645,22.840 16.803,22.840 16.743 C 22.840 16.673,22.756 16.525,22.598 16.318 L 22.356 16.000 21.501 16.000 L 20.645 16.000 20.415 16.260 L 20.186 16.520 19.880 16.520 C 19.711 16.520,19.561 16.507,19.545 16.492 C 19.530 16.476,20.521 15.459,21.748 14.232 L 23.980 12.000 21.830 9.850 C 20.647 8.667,19.680 7.686,19.680 7.669 C 19.680 7.653,20.642 6.654,21.819 5.450 L 23.958 3.260 23.959 2.359 L 23.960 1.458 23.629 1.129 L 23.298 0.800 19.215 0.800 L 15.131 0.800 14.785 1.110 L 14.440 1.420 14.440 1.940 L 14.440 2.460 13.230 1.250 C 12.564 0.584,12.010 0.040,11.999 0.040 C 11.988 0.040,11.692 0.328,11.340 0.680 M9.907 1.767 C 9.996 1.850,10.000 1.880,10.000 2.418 C 10.000 3.192,10.028 3.160,9.338 3.160 L 8.800 3.160 8.800 7.485 L 8.800 11.811 9.270 11.357 C 9.529 11.107,11.501 9.165,13.654 7.041 L 17.567 3.180 16.526 3.169 L 15.485 3.159 15.402 3.054 C 15.328 2.959,15.320 2.894,15.320 2.388 C 15.320 1.921,15.331 1.814,15.386 1.753 C 15.449 1.683,15.620 1.680,19.200 1.680 C 22.803 1.680,22.950 1.683,23.015 1.754 C 23.072 1.818,23.081 1.908,23.071 2.370 L 23.060 2.910 18.025 8.075 L 12.990 13.240 12.755 13.240 C 12.530 13.240,12.511 13.249,12.274 13.450 C 12.037 13.652,12.021 13.677,11.864 14.111 L 11.700 14.562 8.641 17.701 L 5.582 20.840 4.749 20.840 C 3.993 20.840,3.902 20.833,3.758 20.759 L 3.600 20.678 3.600 11.879 L 3.600 3.080 2.988 3.080 C 2.565 3.080,2.361 3.065,2.328 3.032 C 2.295 2.999,2.280 2.802,2.280 2.405 C 2.280 1.923,2.291 1.814,2.346 1.753 C 2.409 1.683,2.579 1.680,6.114 1.680 L 9.815 1.680 9.907 1.767 M13.614 13.713 C 13.676 13.782,13.672 13.815,13.554 14.223 C 13.460 14.548,13.397 14.693,13.306 14.790 L 13.184 14.920 12.699 14.920 C 12.243 14.920,12.209 14.914,12.127 14.827 L 12.039 14.734 12.185 14.317 C 12.301 13.985,12.360 13.874,12.475 13.771 L 12.620 13.641 13.084 13.641 C 13.483 13.640,13.557 13.650,13.614 13.713 M12.734 16.730 C 12.460 17.517,11.320 20.850,11.320 20.865 C 11.320 20.873,11.457 20.880,11.624 20.880 L 11.929 20.880 11.901 20.990 C 11.886 21.050,11.869 21.105,11.863 21.111 C 11.857 21.117,11.402 21.117,10.851 21.111 L 9.850 21.100 10.624 18.900 C 11.049 17.690,11.397 16.687,11.398 16.670 C 11.399 16.654,11.288 16.640,11.152 16.640 L 10.904 16.640 11.060 16.480 L 11.216 16.320 12.047 16.320 L 12.877 16.320 12.734 16.730 M16.200 16.620 L 16.458 16.880 16.919 16.880 L 17.380 16.880 17.612 16.620 L 17.845 16.360 18.392 16.360 L 18.940 16.360 19.172 16.620 L 19.405 16.880 19.879 16.880 L 20.353 16.880 20.591 16.620 L 20.829 16.360 21.500 16.360 C 22.238 16.360,22.163 16.336,22.377 16.640 L 22.475 16.780 21.845 18.820 L 21.214 20.860 21.447 20.872 C 21.678 20.884,21.719 20.916,21.647 21.031 C 21.622 21.070,21.411 21.079,20.731 21.071 L 19.848 21.060 20.404 19.300 C 20.710 18.332,20.960 17.535,20.960 17.529 C 20.960 17.523,20.506 17.523,19.952 17.529 L 18.943 17.540 18.414 19.200 C 18.123 20.113,17.884 20.873,17.883 20.890 C 17.881 20.907,17.970 20.920,18.080 20.920 C 18.190 20.920,18.280 20.928,18.280 20.937 C 18.280 20.946,18.269 20.982,18.256 21.017 C 18.235 21.072,18.124 21.080,17.431 21.080 L 16.631 21.080 16.655 20.986 C 16.682 20.880,17.671 17.709,17.706 17.619 C 17.725 17.568,17.583 17.560,16.674 17.560 L 15.620 17.561 15.097 19.210 L 14.574 20.860 14.791 20.872 C 14.965 20.882,15.002 20.896,14.983 20.945 C 14.971 20.979,14.960 21.023,14.960 21.043 C 14.960 21.064,14.603 21.080,14.120 21.080 C 13.658 21.080,13.280 21.074,13.280 21.068 C 13.280 21.061,13.613 20.076,14.020 18.880 C 14.427 17.684,14.760 16.690,14.760 16.672 C 14.760 16.655,14.634 16.640,14.480 16.640 C 14.326 16.640,14.200 16.634,14.200 16.626 C 14.200 16.618,14.220 16.555,14.244 16.486 L 14.288 16.360 15.115 16.360 L 15.942 16.360 16.200 16.620 " stroke="none" fill="black" fill-rule="evenodd"></path></svg>