<svg role="img" xmlns="http://www.w3.org/2000/svg" viewBox="0 0 24 24"><path d="M10.940 0.046 C 6.260 0.450,2.189 3.633,0.659 8.086 C -1.484 14.319,1.792 21.115,7.997 23.309 C 12.365 24.853,17.202 23.757,20.480 20.480 C 24.710 16.252,25.180 9.567,21.584 4.785 C 19.098 1.479,15.075 -0.312,10.940 0.046 M16.992 1.187 C 17.075 1.220,17.062 1.229,16.872 1.277 C 16.544 1.359,16.024 1.578,15.686 1.777 C 14.454 2.500,13.562 3.753,13.302 5.122 C 13.225 5.527,13.218 6.156,13.290 6.178 C 14.837 6.647,15.487 6.943,16.302 7.550 C 16.693 7.841,17.284 8.455,17.529 8.824 C 17.918 9.410,18.206 10.108,18.368 10.852 C 18.445 11.208,18.457 11.382,18.458 12.220 C 18.460 13.082,18.451 13.222,18.367 13.595 C 18.083 14.862,17.520 15.885,16.603 16.803 C 15.311 18.094,13.738 18.698,11.845 18.628 C 10.666 18.585,9.567 18.218,8.538 17.527 C 5.641 15.577,4.618 11.740,6.023 8.091 C 6.396 7.123,7.012 6.059,7.673 5.240 C 9.434 3.061,12.457 1.465,15.400 1.161 C 15.808 1.119,16.863 1.136,16.992 1.187 " stroke="none" fill="black" fill-rule="evenodd"></path></svg>