<svg role="img" xmlns="http://www.w3.org/2000/svg" viewBox="0 0 24 24"><path d="M10.960 0.044 C 8.607 0.250,6.327 1.164,4.480 2.641 C 3.942 3.072,3.072 3.942,2.641 4.480 C -0.068 7.865,-0.747 12.454,0.864 16.473 C 1.474 17.993,2.345 19.307,3.519 20.481 C 4.482 21.445,5.470 22.155,6.660 22.740 C 8.294 23.543,9.824 23.927,11.640 23.987 C 14.488 24.082,17.276 23.151,19.530 21.350 C 20.056 20.930,20.930 20.056,21.350 19.530 C 22.317 18.320,23.105 16.807,23.524 15.353 C 23.672 14.842,23.859 13.918,23.927 13.360 C 23.994 12.816,23.994 11.184,23.927 10.640 C 23.646 8.356,22.760 6.231,21.359 4.480 C 20.923 3.935,20.051 3.063,19.520 2.640 C 17.344 0.908,14.671 -0.019,11.920 0.006 C 11.601 0.009,11.169 0.026,10.960 0.044 M13.320 1.505 C 13.872 1.575,14.526 1.717,15.053 1.882 L 15.441 2.003 15.384 2.111 C 15.354 2.171,14.649 3.687,13.819 5.480 C 12.989 7.273,12.257 8.853,12.192 8.990 C 12.110 9.164,12.052 9.240,12.000 9.240 C 11.948 9.240,11.890 9.164,11.808 8.990 C 11.743 8.853,11.011 7.273,10.181 5.480 C 9.351 3.687,8.646 2.171,8.615 2.111 L 8.559 2.003 8.950 1.882 C 10.354 1.450,11.865 1.320,13.320 1.505 M8.841 6.923 C 10.023 9.468,10.806 11.107,10.856 11.143 C 10.922 11.189,11.143 11.200,12.014 11.200 L 13.089 11.200 13.188 11.090 C 13.243 11.030,14.131 9.137,15.163 6.884 C 16.194 4.632,17.047 2.779,17.058 2.768 C 17.093 2.733,17.709 3.126,18.214 3.505 C 19.230 4.269,20.145 5.232,20.815 6.243 L 20.962 6.466 18.266 11.682 C 16.783 14.551,15.541 16.916,15.506 16.938 C 15.458 16.968,15.429 16.960,15.389 16.906 C 15.361 16.867,14.870 15.798,14.298 14.532 C 13.600 12.984,13.229 12.206,13.165 12.155 C 13.077 12.086,12.985 12.080,12.000 12.080 C 11.015 12.080,10.923 12.086,10.835 12.155 C 10.771 12.206,10.393 12.999,9.680 14.580 C 9.097 15.873,8.596 16.939,8.567 16.951 C 8.538 16.962,8.490 16.946,8.461 16.915 C 8.431 16.885,7.190 14.521,5.702 11.662 L 2.996 6.464 3.256 6.082 C 3.931 5.089,4.796 4.197,5.830 3.432 C 6.076 3.250,6.844 2.761,6.884 2.760 C 6.898 2.760,7.778 4.633,8.841 6.923 M5.120 14.480 C 6.775 17.703,8.176 20.427,8.233 20.533 C 8.336 20.727,8.486 20.840,8.637 20.840 C 8.855 20.840,8.917 20.718,10.424 17.360 C 11.228 15.567,11.912 14.074,11.943 14.041 C 11.993 13.990,12.007 13.990,12.057 14.041 C 12.088 14.074,12.781 15.567,13.596 17.360 C 15.120 20.710,15.188 20.840,15.403 20.840 C 15.634 20.840,15.693 20.757,16.286 19.608 C 20.880 10.695,21.984 8.570,22.008 8.593 C 22.057 8.640,22.312 9.572,22.394 10.004 C 22.532 10.723,22.575 11.196,22.574 11.980 C 22.571 13.964,22.012 15.888,20.947 17.580 C 20.126 18.882,18.810 20.199,17.540 20.988 C 14.551 22.844,10.911 23.100,7.757 21.677 C 4.452 20.186,2.143 17.150,1.570 13.542 C 1.469 12.902,1.470 11.078,1.572 10.471 C 1.706 9.677,2.017 8.518,2.078 8.585 C 2.095 8.604,3.464 11.257,5.120 14.480 " stroke="none" fill="black" fill-rule="evenodd"></path></svg>