<svg role="img" viewBox="0 0 24 24" xmlns="http://www.w3.org/2000/svg"><path d="M15.500 0.042 C 14.314 0.228,13.302 0.792,12.491 1.718 C 12.100 2.163,11.836 2.567,11.426 3.342 C 11.241 3.693,9.503 6.894,7.564 10.456 C 5.626 14.018,4.047 16.940,4.056 16.949 C 4.065 16.958,4.517 16.882,5.060 16.780 C 5.604 16.678,6.057 16.604,6.068 16.615 C 6.079 16.626,5.231 18.285,4.183 20.303 C 3.135 22.320,2.283 23.976,2.289 23.982 C 2.303 23.997,4.923 23.530,4.944 23.509 C 4.952 23.501,5.415 22.191,5.973 20.597 L 6.987 17.700 7.664 17.672 C 9.089 17.614,10.216 17.488,11.344 17.259 C 16.115 16.292,18.880 13.815,19.278 10.152 C 19.365 9.348,19.311 8.012,19.174 7.580 C 19.000 7.035,18.566 6.403,18.129 6.060 C 17.309 5.416,16.118 5.186,14.800 5.417 C 14.635 5.446,14.496 5.466,14.490 5.462 C 14.485 5.458,14.446 5.311,14.403 5.137 C 14.116 3.976,14.229 3.151,14.778 2.380 C 15.149 1.861,15.678 1.492,16.280 1.332 C 16.752 1.206,17.733 1.253,18.171 1.422 C 18.238 1.448,18.242 1.413,18.231 0.896 L 18.220 0.342 18.020 0.268 C 17.582 0.104,17.159 0.038,16.440 0.021 C 16.055 0.012,15.632 0.021,15.500 0.042 M18.378 2.580 C 18.099 2.723,18.032 3.097,18.243 3.337 C 18.455 3.579,18.765 3.568,18.981 3.312 C 19.302 2.930,18.825 2.351,18.378 2.580 M19.494 4.291 C 19.165 4.692,18.882 5.043,18.865 5.070 C 18.842 5.110,19.135 5.120,20.282 5.120 L 21.730 5.120 21.095 4.508 C 20.746 4.171,20.377 3.821,20.276 3.729 L 20.092 3.561 19.494 4.291 M16.660 8.650 C 16.363 12.058,14.526 14.181,10.900 15.308 C 10.404 15.462,9.398 15.722,9.315 15.717 C 9.285 15.715,9.458 15.661,9.700 15.597 C 10.305 15.436,11.173 15.148,11.699 14.933 C 14.432 13.819,15.951 11.961,16.298 9.308 C 16.332 9.048,16.360 8.729,16.360 8.598 L 16.360 8.360 16.522 8.360 L 16.685 8.360 16.660 8.650 M9.229 15.744 C 9.216 15.757,9.181 15.759,9.152 15.747 C 9.121 15.735,9.130 15.725,9.177 15.723 C 9.219 15.721,9.242 15.731,9.229 15.744 M9.069 15.784 C 9.056 15.797,9.021 15.799,8.992 15.787 C 8.961 15.775,8.970 15.765,9.017 15.763 C 9.059 15.761,9.082 15.771,9.069 15.784 " stroke="none" fill="black" fill-rule="evenodd"></path></svg>