<svg role="img" xmlns="http://www.w3.org/2000/svg" viewBox="0 0 24 24"><path d="M12.320 1.646 C 10.377 1.845,8.490 2.557,6.934 3.677 C 4.804 5.210,3.482 7.554,3.143 10.400 C 3.110 10.675,3.055 11.206,3.020 11.580 C 2.914 12.713,2.736 13.462,2.481 13.846 C 2.282 14.146,2.116 14.211,1.376 14.277 C 0.893 14.320,0.662 14.420,0.405 14.699 C 0.061 15.073,-0.075 15.600,0.056 16.051 C 0.176 16.465,0.927 17.345,1.726 18.008 C 2.516 18.664,3.611 19.307,4.600 19.696 L 4.980 19.846 4.980 20.253 C 4.980 20.599,4.997 20.705,5.091 20.960 C 5.283 21.481,5.745 21.989,6.223 22.204 C 6.842 22.483,7.578 22.462,8.180 22.148 C 8.529 21.966,8.948 21.528,9.107 21.179 C 9.177 21.026,9.245 20.866,9.258 20.824 C 9.280 20.754,9.310 20.751,9.691 20.779 C 10.811 20.863,13.396 20.863,13.983 20.780 L 14.186 20.752 14.258 20.946 C 14.513 21.629,15.097 22.158,15.800 22.341 C 16.173 22.438,16.728 22.405,17.095 22.265 C 18.136 21.867,18.723 20.753,18.455 19.684 C 18.399 19.463,18.398 19.418,18.445 19.390 C 19.221 18.935,19.662 18.650,20.100 18.321 C 21.935 16.944,23.235 15.073,23.739 13.084 C 23.930 12.329,23.975 11.952,23.977 11.060 C 23.979 10.140,23.927 9.707,23.720 8.900 C 23.337 7.413,22.478 5.961,21.259 4.741 C 19.532 3.015,17.283 1.956,14.720 1.662 C 14.135 1.595,12.895 1.586,12.320 1.646 M14.802 3.221 C 17.336 3.571,19.560 4.837,20.975 6.736 C 21.884 7.955,22.329 9.095,22.448 10.510 C 22.593 12.233,22.087 13.874,20.947 15.379 C 20.612 15.821,19.940 16.505,19.460 16.892 C 18.962 17.294,18.229 17.777,17.716 18.040 L 17.325 18.241 17.012 18.135 C 16.115 17.829,15.135 18.143,14.557 18.921 L 14.358 19.188 13.929 19.244 C 13.042 19.360,9.497 19.296,9.134 19.158 C 9.085 19.139,9.017 19.072,8.985 19.009 C 8.952 18.946,8.826 18.793,8.705 18.670 C 8.001 17.955,6.891 17.816,6.028 18.337 L 5.796 18.477 5.488 18.362 C 4.148 17.862,3.041 17.167,2.148 16.264 C 1.670 15.780,1.637 15.730,1.789 15.701 C 2.638 15.541,3.055 15.346,3.502 14.901 C 3.851 14.552,4.009 14.294,4.178 13.791 C 4.378 13.193,4.431 12.849,4.620 10.900 C 4.867 8.356,5.895 6.372,7.660 5.033 C 9.044 3.983,10.786 3.327,12.628 3.161 C 13.154 3.113,14.238 3.144,14.802 3.221 M10.260 7.795 C 9.693 7.943,9.322 8.402,9.289 8.997 C 9.260 9.525,9.502 9.965,9.966 10.221 C 10.156 10.327,10.217 10.340,10.520 10.340 C 10.798 10.339,10.893 10.322,11.040 10.245 C 11.287 10.117,11.507 9.898,11.630 9.660 C 11.781 9.369,11.801 8.909,11.678 8.582 C 11.572 8.301,11.287 7.994,11.023 7.877 C 10.825 7.789,10.440 7.748,10.260 7.795 M15.718 7.812 C 15.330 7.922,15.023 8.208,14.876 8.597 C 14.759 8.908,14.782 9.375,14.930 9.660 C 15.329 10.433,16.295 10.591,16.903 9.983 C 17.530 9.355,17.346 8.263,16.549 7.888 C 16.311 7.777,15.958 7.744,15.718 7.812 M9.296 11.876 C 9.001 12.056,8.880 12.354,8.958 12.710 C 9.186 13.754,10.013 14.747,11.094 15.275 C 11.843 15.641,12.542 15.783,13.415 15.748 C 14.010 15.723,14.386 15.658,14.880 15.494 C 16.168 15.066,17.215 14.069,17.557 12.946 C 17.688 12.514,17.660 12.291,17.447 12.066 C 17.290 11.900,17.150 11.840,16.919 11.840 C 16.571 11.840,16.315 12.043,16.214 12.399 C 16.010 13.117,15.413 13.725,14.593 14.053 C 13.784 14.377,12.864 14.402,12.074 14.122 C 11.629 13.965,11.344 13.782,10.980 13.420 C 10.653 13.094,10.442 12.750,10.380 12.440 C 10.334 12.207,10.171 11.967,10.000 11.880 C 9.795 11.775,9.464 11.773,9.296 11.876 " stroke="none" fill="black" fill-rule="evenodd"></path></svg>