<svg role="img" xmlns="http://www.w3.org/2000/svg" viewBox="0 0 24 24"><path d="M6.660 2.762 C 3.976 4.276,1.730 5.545,1.668 5.581 L 1.556 5.647 3.328 6.667 L 5.100 7.687 5.240 7.610 C 5.317 7.567,6.770 6.772,8.470 5.842 L 11.560 4.152 11.560 2.076 C 11.560 0.934,11.556 0.002,11.550 0.004 C 11.545 0.006,9.344 1.247,6.660 2.762 M12.440 2.077 L 12.440 4.149 15.647 5.905 C 17.410 6.870,18.874 7.660,18.899 7.660 C 18.978 7.660,22.434 5.662,22.406 5.632 C 22.379 5.603,22.122 5.458,16.480 2.280 C 14.555 1.196,12.858 0.240,12.710 0.156 L 12.440 0.004 12.440 2.077 M9.008 6.519 C 7.373 7.417,6.034 8.166,6.033 8.184 C 6.031 8.213,11.948 11.639,12.002 11.640 C 12.057 11.640,17.971 8.216,17.969 8.184 C 17.967 8.154,12.138 4.936,12.020 4.899 C 11.998 4.892,10.642 5.621,9.008 6.519 M1.120 12.144 C 1.120 16.723,1.130 17.885,1.170 17.869 C 1.198 17.858,2.003 17.398,2.960 16.847 L 4.700 15.845 4.710 12.146 L 4.720 8.448 2.939 7.424 C 1.958 6.861,1.148 6.400,1.138 6.400 C 1.128 6.400,1.120 8.985,1.120 12.144 M21.050 7.428 L 19.280 8.449 19.280 12.141 L 19.280 15.832 21.060 16.856 C 22.040 17.419,22.850 17.880,22.860 17.880 C 22.871 17.880,22.880 15.297,22.880 12.140 C 22.880 8.983,22.867 6.402,22.850 6.403 C 22.834 6.405,22.023 6.866,21.050 7.428 M5.570 12.205 L 5.580 15.459 6.460 15.941 C 8.391 17.000,11.307 18.593,11.430 18.656 L 11.560 18.722 11.560 15.551 L 11.559 12.380 10.850 11.974 C 10.459 11.750,9.132 10.987,7.900 10.279 C 6.668 9.570,5.637 8.981,5.610 8.971 C 5.570 8.955,5.562 9.607,5.570 12.205 M15.411 10.672 L 12.442 12.380 12.441 15.550 C 12.440 17.293,12.446 18.720,12.454 18.720 C 12.461 18.720,13.186 18.327,14.064 17.846 C 14.942 17.366,16.245 16.653,16.960 16.262 C 17.675 15.871,18.300 15.526,18.350 15.495 L 18.440 15.438 18.440 12.199 C 18.440 10.418,18.427 8.961,18.410 8.962 C 18.393 8.963,17.044 9.733,15.411 10.672 M3.700 17.400 C 2.754 17.947,1.940 18.418,1.892 18.448 C 1.810 18.497,1.917 18.564,3.452 19.427 C 4.358 19.937,6.553 21.173,8.330 22.174 L 11.560 23.993 11.559 21.847 L 11.558 19.700 8.559 18.060 C 6.909 17.158,5.528 16.417,5.490 16.413 C 5.451 16.409,4.646 16.854,3.700 17.400 M15.452 18.052 L 12.443 19.700 12.442 21.849 L 12.440 23.997 12.570 23.922 C 12.642 23.881,14.833 22.646,17.440 21.179 C 20.047 19.712,22.184 18.508,22.189 18.503 C 22.208 18.487,18.586 16.420,18.525 16.412 C 18.489 16.408,17.106 17.146,15.452 18.052 " stroke="none" fill="black" fill-rule="evenodd"></path></svg>