<svg role="img" viewBox="0 0 24 24" xmlns="http://www.w3.org/2000/svg"><path d="M0.000 12.000 L 0.000 24.000 12.000 24.000 L 24.000 24.000 24.000 12.000 L 24.000 0.000 12.000 0.000 L 0.000 0.000 0.000 12.000 M18.955 2.979 C 19.855 3.137,20.601 3.454,21.317 3.981 L 21.560 4.160 21.014 4.980 C 20.713 5.431,20.454 5.800,20.437 5.800 C 20.420 5.800,20.265 5.712,20.091 5.605 C 19.178 5.038,18.465 4.807,17.766 4.851 C 17.325 4.879,17.074 4.969,16.859 5.175 C 16.653 5.373,16.580 5.597,16.619 5.909 C 16.677 6.367,17.041 6.623,18.060 6.919 C 19.673 7.389,20.151 7.574,20.704 7.942 C 21.424 8.421,21.761 9.015,21.826 9.920 C 21.871 10.544,21.721 11.244,21.435 11.752 C 21.364 11.878,21.160 12.126,20.980 12.305 C 20.707 12.577,20.585 12.664,20.237 12.836 C 19.144 13.374,17.857 13.413,16.400 12.953 C 15.683 12.726,14.730 12.204,14.241 11.770 L 14.064 11.613 14.142 11.510 C 14.380 11.195,15.304 10.084,15.330 10.082 C 15.346 10.081,15.515 10.195,15.705 10.336 C 16.768 11.122,18.071 11.460,18.974 11.185 C 19.502 11.024,19.762 10.589,19.639 10.075 C 19.536 9.646,19.114 9.403,17.880 9.062 C 17.583 8.980,17.168 8.863,16.957 8.801 C 15.496 8.372,14.809 7.805,14.536 6.800 C 14.436 6.432,14.435 5.482,14.534 5.120 C 14.879 3.868,15.906 3.084,17.440 2.904 C 17.693 2.874,18.620 2.920,18.955 2.979 M4.800 5.977 C 5.207 7.548,5.549 8.825,5.560 8.814 C 5.571 8.804,5.960 7.523,6.425 5.968 L 7.269 3.140 8.115 3.129 C 8.580 3.123,8.960 3.129,8.960 3.141 C 8.960 3.186,10.569 8.742,10.596 8.791 C 10.612 8.820,10.958 7.560,11.364 5.991 L 12.104 3.140 13.276 3.129 C 14.209 3.121,14.445 3.129,14.431 3.169 C 14.420 3.197,13.784 5.429,13.016 8.130 L 11.620 13.039 10.672 13.040 L 9.723 13.040 9.667 12.850 C 9.636 12.745,9.282 11.472,8.879 10.020 C 8.476 8.568,8.135 7.367,8.122 7.351 C 8.109 7.335,7.728 8.604,7.277 10.171 L 6.456 13.020 5.531 13.031 C 4.675 13.041,4.604 13.036,4.585 12.971 C 4.471 12.581,1.839 3.312,1.818 3.230 L 1.791 3.120 2.926 3.120 L 4.060 3.120 4.800 5.977 M11.280 20.260 L 11.280 21.000 6.780 21.000 L 2.280 21.000 2.280 20.260 L 2.280 19.520 6.780 19.520 L 11.280 19.520 11.280 20.260 " stroke="none" fill="black" fill-rule="evenodd"></path></svg>