<svg role="img" viewBox="0 0 24 24" xmlns="http://www.w3.org/2000/svg"><path d="M8.020 2.063 C 7.954 2.072,7.729 2.099,7.520 2.123 C 5.820 2.314,4.082 3.021,2.800 4.042 C 1.331 5.212,0.409 6.702,0.090 8.420 C -0.017 8.994,-0.005 10.099,0.114 10.657 C 0.341 11.724,0.753 12.624,1.412 13.499 C 1.844 14.071,2.768 14.939,3.354 15.321 L 3.447 15.381 3.023 16.637 C 2.790 17.327,2.607 17.900,2.616 17.909 C 2.625 17.918,3.278 17.581,4.066 17.158 L 5.500 16.390 6.160 16.554 C 6.962 16.752,7.458 16.830,8.231 16.880 C 9.236 16.945,9.189 16.962,9.079 16.578 C 8.861 15.823,8.800 14.700,8.934 13.911 C 9.365 11.372,11.595 9.216,14.523 8.506 C 15.286 8.322,15.764 8.266,16.610 8.263 C 17.111 8.261,17.400 8.245,17.400 8.220 C 17.400 8.139,17.206 7.478,17.103 7.208 C 16.813 6.450,16.274 5.589,15.682 4.940 C 14.312 3.438,12.450 2.487,10.200 2.141 C 9.802 2.079,8.288 2.026,8.020 2.063 M6.221 5.754 C 6.523 5.897,6.808 6.204,6.902 6.487 C 7.002 6.788,6.966 7.172,6.812 7.447 C 6.580 7.860,6.114 8.105,5.625 8.072 C 5.337 8.053,5.148 7.970,4.906 7.757 C 4.640 7.523,4.544 7.293,4.542 6.880 C 4.540 6.586,4.555 6.509,4.653 6.310 C 4.944 5.718,5.630 5.474,6.221 5.754 M12.300 5.770 C 12.539 5.893,12.758 6.114,12.884 6.360 C 13.016 6.617,13.017 7.101,12.886 7.369 C 12.605 7.945,11.812 8.245,11.260 7.985 C 10.814 7.775,10.561 7.380,10.560 6.890 C 10.560 6.451,10.714 6.113,11.030 5.865 C 11.341 5.621,11.924 5.577,12.300 5.770 M15.520 8.785 C 14.606 8.909,13.798 9.159,12.940 9.582 C 11.125 10.479,9.906 11.933,9.453 13.742 C 9.354 14.137,9.343 14.250,9.342 14.900 C 9.341 15.687,9.386 15.986,9.602 16.627 C 10.438 19.100,12.999 20.888,16.037 21.118 C 16.916 21.185,17.931 21.087,18.950 20.837 L 19.440 20.717 19.753 20.855 C 19.926 20.930,20.407 21.181,20.823 21.411 C 21.240 21.641,21.638 21.859,21.708 21.895 L 21.836 21.960 21.774 21.750 C 21.740 21.634,21.588 21.162,21.437 20.700 L 21.161 19.860 21.270 19.780 C 23.130 18.414,24.080 16.640,23.988 14.700 C 23.939 13.656,23.628 12.734,23.015 11.810 C 22.674 11.295,21.819 10.453,21.264 10.084 C 20.210 9.384,19.023 8.944,17.748 8.781 C 17.165 8.706,16.089 8.708,15.520 8.785 M14.667 11.980 C 14.915 12.053,15.204 12.299,15.317 12.533 C 15.557 13.030,15.275 13.680,14.750 13.838 C 14.178 14.011,13.653 13.747,13.495 13.208 C 13.338 12.672,13.627 12.148,14.173 11.978 C 14.392 11.909,14.429 11.909,14.667 11.980 M19.722 12.090 C 19.976 12.242,20.181 12.545,20.224 12.831 C 20.259 13.063,20.158 13.394,19.997 13.577 C 19.634 13.990,18.891 13.997,18.534 13.590 C 18.399 13.436,18.240 13.061,18.240 12.896 C 18.240 12.744,18.430 12.372,18.590 12.213 C 18.781 12.021,18.932 11.963,19.242 11.962 C 19.467 11.960,19.534 11.978,19.722 12.090 " stroke="none" fill="black" fill-rule="evenodd"></path></svg>