<svg role="img" viewBox="0 0 24 24" xmlns="http://www.w3.org/2000/svg"><path d="M3.576 0.063 C 3.180 0.129,2.569 0.343,2.231 0.533 C 1.848 0.748,1.610 0.930,1.267 1.270 C 0.596 1.934,0.163 2.806,0.042 3.740 C 0.007 4.008,-0.001 6.178,0.009 12.220 C 0.024 21.228,-0.000 20.457,0.291 21.232 C 0.517 21.834,0.761 22.201,1.281 22.720 C 1.799 23.237,2.169 23.485,2.759 23.706 C 3.541 24.000,2.751 23.975,11.820 23.990 C 19.177 24.002,20.019 23.997,20.372 23.939 C 21.357 23.777,22.115 23.374,22.805 22.646 C 23.233 22.195,23.510 21.762,23.707 21.239 C 24.002 20.453,23.980 21.201,23.980 12.000 C 23.980 2.799,24.002 3.547,23.707 2.761 C 23.507 2.228,23.233 1.801,22.803 1.351 C 22.115 0.629,21.363 0.229,20.385 0.061 C 20.074 0.008,19.016 0.001,11.965 0.004 C 5.357 0.007,3.841 0.018,3.576 0.063 M17.800 4.218 C 19.301 4.447,20.480 5.469,20.881 6.887 C 20.967 7.193,21.031 7.952,20.985 8.135 L 20.958 8.240 17.803 8.240 L 14.647 8.240 14.763 8.541 C 15.127 9.487,15.900 10.081,16.916 10.195 C 17.758 10.289,18.500 10.024,19.111 9.410 C 19.316 9.204,19.461 9.088,19.491 9.105 C 19.518 9.120,19.734 9.266,19.970 9.429 C 20.325 9.673,20.394 9.737,20.364 9.793 C 20.293 9.925,19.826 10.406,19.598 10.581 C 19.135 10.938,18.543 11.203,17.940 11.324 C 17.521 11.408,16.737 11.391,16.320 11.288 C 15.553 11.100,14.943 10.745,14.396 10.169 C 14.005 9.757,13.777 9.378,13.596 8.840 C 13.483 8.506,13.465 8.395,13.450 7.920 C 13.430 7.307,13.477 7.013,13.675 6.498 C 14.095 5.411,15.170 4.517,16.360 4.265 C 16.919 4.147,17.260 4.136,17.800 4.218 M4.489 6.670 L 4.500 9.060 4.612 9.288 C 4.754 9.576,5.053 9.849,5.352 9.962 C 5.655 10.076,6.095 10.058,6.382 9.919 C 6.632 9.798,6.877 9.553,7.002 9.299 L 7.100 9.100 7.120 6.700 L 7.140 4.300 7.740 4.300 L 8.340 4.300 8.360 6.700 C 8.380 9.057,8.382 9.103,8.467 9.288 C 8.827 10.068,9.886 10.288,10.534 9.717 C 10.647 9.617,10.767 9.454,10.849 9.289 L 10.980 9.022 10.991 6.651 L 11.003 4.280 11.603 4.280 L 12.203 4.280 12.192 6.750 L 12.180 9.220 12.073 9.513 C 11.837 10.159,11.412 10.660,10.855 10.949 C 10.441 11.165,10.120 11.244,9.667 11.243 C 9.039 11.242,8.495 11.040,7.993 10.622 L 7.726 10.399 7.475 10.618 C 7.189 10.868,6.771 11.091,6.420 11.181 C 6.139 11.253,5.543 11.264,5.267 11.202 C 4.334 10.991,3.598 10.271,3.359 9.336 C 3.285 9.046,3.280 8.885,3.280 6.654 L 3.280 4.280 3.879 4.280 L 4.477 4.280 4.489 6.670 M16.751 5.361 C 15.977 5.492,15.309 5.960,14.888 6.666 L 14.677 7.020 17.185 7.030 C 18.564 7.036,19.701 7.032,19.712 7.022 C 19.763 6.971,19.353 6.353,19.097 6.096 C 18.513 5.506,17.595 5.219,16.751 5.361 M18.110 12.657 C 18.792 12.826,19.399 13.159,19.894 13.635 C 20.373 14.097,20.670 14.583,20.866 15.228 C 20.961 15.539,20.973 15.647,20.974 16.160 C 20.974 16.636,20.959 16.798,20.886 17.060 C 20.571 18.207,19.616 19.199,18.462 19.579 C 17.853 19.780,17.027 19.829,16.420 19.701 C 15.494 19.505,14.616 18.945,14.099 18.221 C 13.885 17.921,13.625 17.385,13.536 17.060 C 13.437 16.697,13.416 15.882,13.496 15.487 C 13.783 14.073,14.914 12.965,16.402 12.642 C 16.711 12.575,16.878 12.564,17.320 12.578 C 17.617 12.587,17.973 12.623,18.110 12.657 M6.480 12.784 C 6.834 12.889,7.187 13.080,7.475 13.321 L 7.744 13.547 7.942 13.371 C 8.562 12.821,9.369 12.587,10.124 12.737 C 10.905 12.893,11.577 13.397,11.914 14.081 C 12.196 14.652,12.199 14.684,12.199 17.310 L 12.200 19.640 11.602 19.640 L 11.003 19.640 10.991 17.290 C 10.977 14.563,10.997 14.711,10.583 14.296 C 10.292 14.005,10.044 13.904,9.632 13.909 C 9.162 13.915,8.736 14.178,8.498 14.608 L 8.380 14.820 8.369 17.230 L 8.358 19.640 7.739 19.640 L 7.120 19.640 7.120 17.302 C 7.120 15.048,7.117 14.955,7.039 14.746 C 6.772 14.032,5.920 13.701,5.220 14.040 C 4.987 14.153,4.725 14.425,4.604 14.680 L 4.500 14.900 4.489 17.270 L 4.477 19.640 3.877 19.640 L 3.277 19.640 3.288 17.170 L 3.300 14.700 3.415 14.401 C 3.746 13.542,4.459 12.914,5.300 12.740 C 5.637 12.670,6.166 12.690,6.480 12.784 M16.900 13.742 C 16.856 13.752,16.721 13.781,16.600 13.805 C 16.074 13.910,15.466 14.296,15.132 14.738 C 14.392 15.715,14.484 16.962,15.359 17.843 C 15.899 18.385,16.543 18.627,17.354 18.591 C 18.055 18.560,18.581 18.331,19.078 17.838 C 19.541 17.378,19.775 16.814,19.775 16.160 C 19.775 15.496,19.571 15.013,19.080 14.517 C 18.590 14.022,18.034 13.772,17.350 13.741 C 17.146 13.731,16.944 13.732,16.900 13.742 " stroke="none" fill="black" fill-rule="evenodd"></path></svg>