<svg role="img" xmlns="http://www.w3.org/2000/svg" viewBox="0 0 24 24"><path d="M11.900 0.024 C 10.797 0.135,10.187 0.245,9.385 0.480 C 7.807 0.941,6.288 1.760,5.040 2.821 C 4.565 3.225,3.713 4.108,3.363 4.560 C 1.901 6.444,1.058 8.573,0.837 10.934 C 0.770 11.651,0.810 13.062,0.916 13.760 C 1.190 15.546,1.848 17.244,2.841 18.720 C 3.619 19.877,4.773 21.055,5.904 21.848 C 8.138 23.412,10.936 24.180,13.620 23.963 C 14.152 23.920,15.017 23.797,15.210 23.737 C 15.275 23.716,15.280 23.620,15.280 22.457 C 15.280 21.766,15.269 21.200,15.256 21.200 C 15.242 21.200,15.121 21.229,14.986 21.264 C 14.129 21.486,12.632 21.587,11.717 21.483 C 9.411 21.220,7.337 20.173,5.784 18.486 C 4.444 17.030,3.639 15.347,3.333 13.360 C 3.235 12.719,3.235 11.282,3.333 10.640 C 3.550 9.225,4.044 7.917,4.790 6.780 C 6.254 4.548,8.509 3.063,11.140 2.595 C 11.823 2.474,13.162 2.445,13.800 2.537 C 15.601 2.799,17.110 3.550,18.383 4.819 C 19.071 5.504,19.511 6.125,19.946 7.020 C 20.984 9.158,21.030 11.633,20.072 13.820 C 19.906 14.199,19.483 14.960,19.439 14.960 C 19.424 14.960,18.895 13.678,18.262 12.110 C 17.630 10.543,17.037 9.127,16.946 8.964 C 16.726 8.574,16.433 8.281,16.094 8.114 C 15.826 7.982,15.814 7.980,15.281 7.980 C 14.803 7.980,14.717 7.991,14.544 8.071 C 14.107 8.272,13.805 8.585,13.548 9.100 C 13.471 9.254,12.935 10.556,12.357 11.994 L 11.306 14.608 10.882 13.534 C 10.649 12.943,10.072 11.475,9.599 10.271 L 8.740 8.082 7.390 8.081 C 6.647 8.080,6.040 8.089,6.040 8.101 C 6.040 8.127,9.283 16.156,9.449 16.540 C 9.612 16.919,9.889 17.330,10.096 17.499 C 10.586 17.900,11.321 18.017,11.980 17.798 C 12.446 17.643,12.811 17.279,13.083 16.700 C 13.165 16.524,13.685 15.255,14.239 13.880 C 14.792 12.505,15.257 11.368,15.272 11.353 C 15.288 11.338,15.748 12.436,16.295 13.793 C 17.473 16.712,17.594 16.974,17.923 17.334 C 18.357 17.807,18.969 17.999,19.623 17.866 C 20.294 17.729,20.797 17.341,21.347 16.534 C 22.588 14.712,23.200 12.733,23.200 10.540 C 23.200 9.174,22.964 7.913,22.477 6.676 C 21.095 3.166,17.982 0.680,14.260 0.115 C 13.762 0.039,12.308 -0.017,11.900 0.024 " stroke="none" fill="black" fill-rule="evenodd"></path></svg>