<svg role="img" xmlns="http://www.w3.org/2000/svg" viewBox="0 0 24 24"><path d="M11.638 0.059 C 11.554 0.104,11.264 0.731,10.002 3.597 C 9.159 5.513,8.454 7.080,8.436 7.080 C 8.391 7.080,8.395 7.097,7.501 3.564 C 7.070 1.862,6.699 0.436,6.678 0.396 C 6.575 0.204,6.541 0.200,5.196 0.200 C 3.977 0.200,3.927 0.203,3.825 0.283 C 3.740 0.350,3.721 0.398,3.723 0.533 C 3.725 0.625,4.566 3.659,5.593 7.276 C 7.676 14.614,7.467 13.991,7.868 14.030 C 8.160 14.058,8.334 13.969,8.452 13.733 C 8.505 13.627,9.319 11.808,10.261 9.690 C 11.203 7.572,11.986 5.840,12.002 5.840 C 12.017 5.840,12.834 7.635,13.817 9.830 C 14.800 12.025,15.646 13.861,15.696 13.912 C 15.888 14.108,16.461 14.055,16.561 13.832 C 16.662 13.606,20.280 0.651,20.280 0.517 C 20.280 0.401,20.255 0.346,20.175 0.283 C 20.073 0.203,20.023 0.200,18.797 0.200 L 17.524 0.200 17.416 0.293 C 17.316 0.379,17.240 0.655,16.461 3.721 C 15.995 5.555,15.596 7.061,15.575 7.068 C 15.554 7.075,14.853 5.528,14.018 3.631 C 13.183 1.733,12.460 0.140,12.412 0.090 C 12.336 0.013,12.283 0.000,12.032 0.002 C 11.862 0.003,11.697 0.026,11.638 0.059 M10.842 11.252 C 10.194 12.708,9.592 14.053,9.505 14.240 C 9.293 14.689,8.999 14.992,8.649 15.120 C 8.436 15.198,8.404 15.222,8.420 15.295 C 8.431 15.342,8.747 17.297,9.123 19.640 C 9.832 24.063,9.819 24.000,10.006 24.000 C 10.097 24.000,10.120 23.967,11.102 22.470 C 11.560 21.772,11.946 21.200,11.961 21.200 C 11.975 21.200,12.352 21.804,12.800 22.543 C 13.247 23.282,13.653 23.913,13.703 23.946 C 13.847 24.040,13.946 23.961,13.996 23.710 C 14.019 23.595,14.372 21.664,14.779 19.420 C 15.187 17.176,15.529 15.302,15.540 15.255 C 15.556 15.185,15.527 15.158,15.369 15.098 C 15.248 15.052,15.093 14.939,14.939 14.783 L 14.697 14.540 13.383 11.600 C 12.660 9.983,12.058 8.647,12.044 8.632 C 12.031 8.617,11.490 9.796,10.842 11.252 " stroke="none" fill="black" fill-rule="evenodd"></path></svg>