<svg role="img" viewBox="0 0 24 24" xmlns="http://www.w3.org/2000/svg"><path d="M0.027 5.147 C 0.012 5.161,-0.000 5.632,0.000 6.193 L 0.000 7.212 0.534 7.185 L 1.068 7.159 1.138 7.483 C 1.177 7.661,1.321 8.143,1.459 8.553 C 1.645 9.106,4.740 17.979,5.009 18.731 L 5.048 18.841 6.394 18.831 L 7.740 18.820 8.552 16.400 C 9.588 13.314,10.173 11.330,10.399 10.142 C 10.445 9.901,10.487 9.699,10.493 9.693 C 10.500 9.687,10.610 10.064,10.739 10.531 C 11.126 11.933,11.395 12.801,12.392 15.880 L 13.345 18.820 14.786 18.830 L 16.226 18.841 17.798 14.270 C 19.439 9.498,19.659 8.894,19.927 8.400 C 20.407 7.517,21.003 6.972,21.570 6.895 L 21.760 6.870 21.760 5.995 L 21.760 5.119 19.190 5.130 L 16.620 5.140 16.609 6.176 L 16.599 7.212 17.009 7.186 C 17.235 7.171,17.590 7.148,17.797 7.133 C 18.112 7.111,18.170 7.116,18.149 7.164 C 18.136 7.195,18.053 7.385,17.964 7.586 C 17.725 8.132,17.577 8.578,16.881 10.860 C 15.981 13.806,15.887 14.127,15.781 14.613 C 15.729 14.851,15.680 15.053,15.671 15.062 C 15.663 15.071,15.508 14.534,15.327 13.869 C 15.146 13.204,14.507 10.968,13.907 8.900 L 12.816 5.140 11.340 5.140 L 9.864 5.140 9.053 7.920 C 7.740 12.417,7.643 12.765,7.394 13.855 C 7.181 14.790,7.120 15.022,7.120 14.892 C 7.120 14.869,7.083 14.637,7.038 14.375 C 6.916 13.674,6.668 12.683,6.086 10.579 C 5.505 8.477,5.458 8.266,5.497 7.885 C 5.553 7.331,5.815 7.008,6.284 6.916 L 6.520 6.870 6.520 5.995 L 6.520 5.120 3.287 5.120 C 1.508 5.120,0.041 5.132,0.027 5.147 M21.251 14.455 C 20.486 14.650,19.851 15.268,19.623 16.040 C 19.546 16.300,19.535 16.862,19.602 17.144 C 19.749 17.761,20.208 18.340,20.760 18.606 C 21.147 18.793,21.373 18.845,21.796 18.843 C 22.965 18.840,23.914 17.938,23.987 16.760 C 24.049 15.771,23.473 14.892,22.531 14.534 C 22.200 14.409,21.582 14.370,21.251 14.455 " stroke="none" fill="black" fill-rule="evenodd"></path></svg>