<svg role="img" viewBox="0 0 24 24" xmlns="http://www.w3.org/2000/svg"><path d="M2.938 2.610 C 3.344 3.408,4.792 6.264,6.156 8.959 L 8.637 13.857 8.694 13.719 C 8.725 13.642,9.521 11.600,10.462 9.180 C 11.403 6.760,12.184 4.768,12.197 4.753 C 12.210 4.739,13.011 6.760,13.978 9.244 C 14.945 11.729,15.748 13.780,15.761 13.801 C 15.774 13.823,17.228 10.993,18.991 7.513 C 20.755 4.032,22.194 1.181,22.189 1.177 C 22.184 1.172,20.750 3.048,19.002 5.346 L 15.824 9.523 15.720 9.291 C 15.663 9.164,14.852 7.320,13.918 5.193 C 12.984 3.066,12.209 1.338,12.195 1.353 C 12.182 1.368,11.373 3.198,10.399 5.420 C 9.424 7.642,8.616 9.472,8.603 9.486 C 8.591 9.501,7.150 7.633,5.403 5.336 C 3.656 3.039,2.220 1.160,2.214 1.160 C 2.207 1.160,2.533 1.813,2.938 2.610 M19.823 9.586 C 17.581 14.172,15.726 17.951,15.701 17.985 C 15.666 18.034,15.308 17.190,13.938 13.824 C 12.993 11.501,12.210 9.601,12.197 9.601 C 12.185 9.600,11.402 11.499,10.457 13.820 C 9.513 16.141,8.731 18.040,8.720 18.039 C 8.709 18.039,6.856 14.268,4.603 9.660 C 2.350 5.051,0.502 1.285,0.495 1.291 C 0.489 1.297,1.210 3.318,2.096 5.781 C 3.227 8.922,4.182 11.485,5.295 14.359 C 6.167 16.614,6.874 18.478,6.865 18.501 C 6.856 18.524,6.600 18.613,6.295 18.698 C 3.848 19.383,1.553 20.443,0.352 21.442 C 0.183 21.583,0.049 21.703,0.055 21.709 C 0.061 21.715,0.393 21.611,0.792 21.479 C 1.687 21.183,3.071 20.783,4.023 20.545 C 5.210 20.247,7.377 19.799,7.414 19.843 C 7.422 19.853,7.684 20.526,7.997 21.339 C 8.310 22.152,8.580 22.843,8.597 22.873 C 8.617 22.909,8.830 22.471,9.199 21.634 C 10.284 19.178,10.147 19.449,10.314 19.423 C 10.714 19.359,12.059 19.276,13.040 19.255 L 14.140 19.231 14.935 21.045 C 15.372 22.043,15.743 22.874,15.758 22.892 C 15.774 22.909,16.100 22.114,16.482 21.125 L 17.176 19.327 17.378 19.345 C 19.260 19.504,20.571 19.691,21.571 19.942 C 21.721 19.980,21.849 20.004,21.857 19.995 C 21.905 19.942,23.168 17.194,23.151 17.178 C 23.096 17.123,21.549 17.069,19.907 17.065 C 18.097 17.060,18.075 17.059,18.092 16.980 C 18.101 16.936,18.699 15.379,19.419 13.520 C 20.261 11.346,21.298 8.557,22.325 5.704 C 23.203 3.264,23.916 1.263,23.911 1.258 C 23.905 1.252,22.065 5.000,19.823 9.586 M12.758 16.120 C 13.045 16.769,13.273 17.319,13.264 17.342 C 13.256 17.366,13.035 17.407,12.774 17.434 C 12.513 17.461,12.003 17.526,11.640 17.578 C 11.277 17.630,10.975 17.668,10.970 17.663 C 10.964 17.657,11.234 17.030,11.570 16.268 C 11.905 15.507,12.192 14.896,12.208 14.912 C 12.223 14.927,12.471 15.471,12.758 16.120 " stroke="none" fill="black" fill-rule="evenodd"></path></svg>