<svg role="img" xmlns="http://www.w3.org/2000/svg" viewBox="0 0 24 24"><path d="M15.380 0.900 C 14.814 0.981,13.932 1.248,13.458 1.482 C 13.237 1.591,13.029 1.680,12.996 1.680 C 12.920 1.680,12.840 1.759,12.840 1.834 C 12.840 1.880,12.884 1.886,13.070 1.864 L 13.300 1.837 13.110 1.958 C 12.961 2.052,12.920 2.101,12.920 2.184 C 12.920 2.287,12.926 2.290,13.090 2.263 C 13.183 2.249,13.395 2.220,13.560 2.200 C 13.725 2.181,14.085 2.125,14.360 2.078 C 15.387 1.899,16.056 2.087,16.702 2.737 C 17.253 3.291,17.542 4.069,17.589 5.122 C 17.607 5.547,17.597 5.689,17.522 6.042 C 17.222 7.451,16.220 10.585,14.339 16.000 C 12.857 20.267,12.487 21.386,12.435 21.760 C 12.346 22.395,12.473 22.694,12.928 22.916 C 13.475 23.184,14.270 23.290,14.620 23.143 C 14.809 23.064,15.018 22.872,15.076 22.725 C 15.098 22.667,15.155 22.404,15.202 22.140 C 15.427 20.867,16.043 17.880,16.525 15.720 C 17.836 9.841,18.959 6.158,19.784 5.035 C 19.880 4.904,20.016 4.794,20.240 4.667 C 20.652 4.434,20.807 4.385,21.043 4.413 C 21.321 4.446,21.465 4.532,21.780 4.857 C 22.018 5.102,22.103 5.161,22.343 5.249 C 22.745 5.397,22.975 5.425,23.100 5.344 C 23.224 5.262,23.510 4.671,23.674 4.156 C 23.816 3.710,23.891 3.185,23.854 2.906 C 23.830 2.725,23.816 2.705,23.664 2.637 C 23.574 2.596,23.334 2.524,23.132 2.477 L 22.764 2.391 22.572 2.486 C 22.419 2.561,22.316 2.580,22.060 2.580 C 21.773 2.580,21.715 2.566,21.493 2.446 C 21.357 2.372,21.120 2.199,20.966 2.060 C 20.490 1.631,20.148 1.431,19.500 1.202 C 18.927 1.000,18.669 0.954,17.860 0.915 C 16.375 0.844,15.798 0.840,15.380 0.900 M15.560 3.880 C 15.329 3.919,11.738 4.478,7.580 5.122 C 3.422 5.766,0.016 6.296,0.010 6.300 C -0.004 6.309,2.592 22.965,2.610 22.983 C 2.618 22.992,2.948 22.945,3.342 22.881 C 3.990 22.775,6.885 22.304,9.860 21.821 C 11.329 21.583,11.200 21.615,11.200 21.481 C 11.200 21.045,12.056 18.485,13.494 14.620 C 13.658 14.180,13.788 13.816,13.784 13.812 C 13.780 13.807,12.824 13.956,11.658 14.141 C 10.493 14.327,9.510 14.480,9.473 14.480 C 9.418 14.480,9.457 14.329,9.704 13.589 L 10.001 12.698 11.470 12.465 C 12.279 12.337,12.976 12.224,13.020 12.215 C 13.083 12.201,13.185 12.305,13.497 12.699 C 13.715 12.975,13.897 13.196,13.903 13.190 C 13.935 13.156,14.080 12.650,14.080 12.571 C 14.080 12.503,13.441 11.687,11.943 9.841 C 10.767 8.392,9.777 7.152,9.743 7.086 C 9.663 6.932,9.662 6.631,9.740 6.480 C 9.840 6.288,10.216 6.008,10.418 5.978 C 10.773 5.925,10.708 5.862,12.816 8.303 C 13.891 9.547,14.784 10.551,14.801 10.533 C 14.850 10.480,15.695 7.889,15.934 7.060 C 16.054 6.642,16.180 6.147,16.214 5.960 C 16.373 5.076,16.376 5.041,16.330 4.685 C 16.269 4.209,16.137 3.799,16.048 3.805 C 16.011 3.807,15.791 3.841,15.560 3.880 M20.647 5.862 C 20.268 6.315,19.801 7.629,19.063 10.320 C 18.860 11.061,18.817 11.268,18.857 11.300 C 18.885 11.322,18.966 11.655,19.037 12.040 C 19.108 12.425,19.175 12.777,19.185 12.822 C 19.204 12.899,19.178 12.908,18.818 12.950 C 18.605 12.975,18.423 13.004,18.412 13.015 C 18.401 13.025,18.351 13.229,18.301 13.467 C 18.223 13.834,18.082 14.365,18.015 14.538 C 18.005 14.564,18.098 14.654,18.222 14.739 C 18.911 15.214,19.168 16.053,18.936 17.076 C 18.806 17.650,18.600 17.890,18.600 17.466 C 18.600 17.196,18.575 17.173,18.019 16.939 C 17.777 16.838,17.560 16.746,17.535 16.735 C 17.510 16.724,17.482 16.757,17.471 16.808 C 17.460 16.858,17.359 17.296,17.246 17.780 C 17.035 18.688,16.597 20.771,16.615 20.788 C 16.625 20.798,22.564 19.861,22.770 19.817 C 22.835 19.803,22.880 19.767,22.880 19.729 C 22.880 19.627,20.844 5.954,20.809 5.822 L 20.778 5.705 20.647 5.862 M10.076 8.661 C 10.419 8.770,10.519 8.854,10.602 9.107 C 10.628 9.186,10.639 9.327,10.626 9.421 C 10.613 9.516,9.927 11.395,9.101 13.597 L 7.600 17.601 6.714 18.781 C 6.227 19.431,5.823 19.956,5.816 19.950 C 5.810 19.943,5.848 19.277,5.902 18.470 L 5.999 17.003 7.524 12.931 C 8.399 10.596,9.086 8.819,9.135 8.765 C 9.337 8.540,9.600 8.511,10.076 8.661 M6.756 13.310 C 6.612 13.689,6.108 14.982,6.100 14.991 C 6.087 15.007,4.446 15.280,4.363 15.280 C 4.306 15.280,4.282 15.168,4.202 14.499 C 4.150 14.070,4.115 13.713,4.124 13.705 C 4.137 13.695,6.651 13.218,6.769 13.203 C 6.785 13.202,6.779 13.250,6.756 13.310 " stroke="none" fill="black" fill-rule="evenodd"></path></svg>