<svg role="img" xmlns="http://www.w3.org/2000/svg" viewBox="0 0 24 24"><path d="M0.060 5.840 C 0.279 6.082,1.539 6.759,2.700 7.257 C 3.983 7.808,4.834 8.271,5.925 9.007 C 7.006 9.738,7.960 10.567,8.027 10.834 C 8.041 10.889,8.028 10.969,7.998 11.016 C 7.596 11.649,7.437 11.995,7.296 12.551 C 7.141 13.162,7.101 13.749,7.159 14.543 C 7.199 15.086,7.200 15.246,7.160 15.319 C 7.133 15.370,6.953 15.579,6.760 15.785 C 6.300 16.273,6.144 16.590,6.300 16.720 C 6.381 16.787,6.556 16.749,7.017 16.561 C 7.228 16.475,7.442 16.399,7.491 16.392 C 7.571 16.381,7.580 16.397,7.577 16.540 C 7.576 16.629,7.497 16.951,7.402 17.257 C 7.218 17.854,7.174 18.208,7.282 18.230 C 7.367 18.247,7.724 17.969,8.598 17.205 C 9.004 16.850,9.358 16.560,9.385 16.560 C 9.412 16.560,9.656 16.613,9.927 16.678 C 10.994 16.935,11.988 17.019,13.540 16.986 C 14.567 16.964,14.949 16.935,16.040 16.798 L 16.420 16.750 16.820 16.939 C 17.771 17.387,18.914 17.840,19.247 17.901 C 19.377 17.925,19.401 17.915,19.465 17.818 C 19.562 17.670,19.546 17.432,19.425 17.225 C 19.370 17.132,19.187 16.904,19.018 16.718 C 18.634 16.296,18.510 16.112,18.527 15.993 C 18.538 15.912,18.560 15.901,18.700 15.907 C 18.788 15.911,19.211 16.024,19.640 16.159 C 20.539 16.442,20.774 16.486,20.815 16.379 C 20.885 16.196,20.640 15.792,20.098 15.200 C 19.695 14.760,19.582 14.549,19.611 14.294 C 19.648 13.959,19.724 13.904,21.049 13.248 C 23.115 12.225,23.863 11.635,23.856 11.033 C 23.852 10.602,23.405 10.026,22.824 9.700 C 22.176 9.338,21.229 9.062,19.880 8.840 C 19.451 8.769,19.089 8.700,19.075 8.686 C 19.061 8.672,19.029 8.345,19.005 7.960 C 18.943 6.975,18.796 6.503,18.491 6.314 C 18.319 6.208,17.973 6.225,17.808 6.348 C 17.583 6.515,17.540 6.653,17.544 7.180 C 17.547 7.576,17.568 7.730,17.660 8.060 C 17.820 8.631,17.826 8.703,17.722 8.759 C 17.674 8.785,17.583 8.794,17.517 8.779 C 17.409 8.756,17.367 8.689,17.064 8.067 C 16.593 7.098,16.330 6.830,15.993 6.973 C 15.555 7.160,15.444 7.718,15.663 8.647 L 15.769 9.100 15.633 9.244 C 15.553 9.328,15.443 9.525,15.366 9.724 C 15.187 10.180,15.087 10.303,14.832 10.379 C 14.401 10.507,13.647 10.438,11.769 10.099 C 9.896 9.760,9.810 9.762,9.005 10.144 C 8.755 10.263,8.533 10.360,8.512 10.360 C 8.491 10.360,8.290 10.189,8.064 9.979 C 7.148 9.127,6.004 8.305,5.036 7.803 C 4.411 7.478,3.992 7.311,3.220 7.078 C 2.543 6.874,1.879 6.609,0.832 6.125 C 0.399 5.924,0.031 5.760,0.016 5.760 C 0.000 5.760,0.020 5.796,0.060 5.840 M22.808 7.751 C 22.669 8.227,22.558 9.169,22.635 9.217 C 22.661 9.233,22.695 9.206,22.716 9.151 C 22.768 9.015,22.874 8.350,22.904 7.976 C 22.933 7.622,22.881 7.502,22.808 7.751 M23.743 8.027 C 23.367 8.506,23.008 9.264,23.109 9.365 C 23.176 9.432,23.364 9.147,23.704 8.463 C 23.867 8.135,24.000 7.851,24.000 7.833 C 24.000 7.748,23.906 7.819,23.743 8.027 M19.812 9.641 C 19.957 9.755,20.019 9.962,19.960 10.139 C 19.828 10.541,19.357 10.528,19.235 10.120 C 19.121 9.740,19.518 9.410,19.812 9.641 M18.794 10.051 C 18.879 10.390,19.141 10.655,19.434 10.700 C 19.515 10.713,19.652 10.736,19.740 10.753 L 19.900 10.782 19.711 10.895 C 19.331 11.120,18.966 11.008,18.743 10.598 C 18.656 10.439,18.626 10.329,18.624 10.163 C 18.620 9.802,18.715 9.739,18.794 10.051 M20.955 11.734 C 20.989 11.775,20.983 11.803,20.930 11.849 C 20.706 12.047,19.280 12.601,19.280 12.490 C 19.280 12.399,20.244 11.852,20.600 11.742 C 20.832 11.669,20.900 11.668,20.955 11.734 M21.112 12.311 C 21.133 12.517,20.749 12.885,20.190 13.199 C 20.064 13.270,19.960 13.311,19.960 13.291 C 19.960 13.225,20.189 12.906,20.417 12.654 C 20.645 12.401,20.983 12.148,21.058 12.172 C 21.081 12.180,21.106 12.243,21.112 12.311 " stroke="none" fill="black" fill-rule="evenodd"></path></svg>