<svg role="img" viewBox="0 0 24 24" xmlns="http://www.w3.org/2000/svg"><path d="M16.584 6.670 C 15.334 9.481,14.301 11.803,14.291 11.830 C 14.275 11.870,14.789 11.879,16.838 11.870 L 19.404 11.860 21.645 6.840 C 22.877 4.079,23.910 1.762,23.941 1.690 L 23.996 1.560 21.427 1.560 L 18.859 1.560 16.584 6.670 M0.013 6.750 C 0.072 6.847,5.131 18.228,5.132 18.265 C 5.133 18.290,4.725 19.229,4.227 20.350 C 3.728 21.472,3.320 22.401,3.320 22.415 C 3.320 22.429,4.335 22.440,5.576 22.440 C 7.343 22.440,7.836 22.429,7.852 22.390 C 7.863 22.363,9.387 18.866,11.240 14.620 C 13.093 10.374,14.624 6.860,14.643 6.810 L 14.678 6.720 12.429 6.721 L 10.180 6.722 8.800 10.044 C 8.041 11.872,7.409 13.374,7.396 13.383 C 7.382 13.391,6.753 11.895,5.998 10.059 L 4.626 6.720 2.311 6.720 C 1.037 6.720,0.003 6.734,0.013 6.750 M14.880 12.960 C 14.489 13.056,14.247 13.162,13.915 13.383 C 12.799 14.125,12.409 15.535,12.991 16.720 C 13.165 17.074,13.645 17.581,14.007 17.793 C 14.536 18.103,15.251 18.245,15.878 18.165 C 16.599 18.072,17.164 17.803,17.643 17.323 C 18.172 16.795,18.418 16.213,18.415 15.500 C 18.413 14.759,18.191 14.229,17.662 13.695 C 17.393 13.424,17.278 13.341,16.960 13.189 C 16.751 13.089,16.450 12.978,16.292 12.943 C 15.904 12.858,15.263 12.865,14.880 12.960 " stroke="none" fill="black" fill-rule="evenodd"></path></svg>