<svg role="img" xmlns="http://www.w3.org/2000/svg" viewBox="0 0 24 24"><path d="M9.535 3.641 C 5.680 3.711,3.384 3.881,2.480 4.165 C 1.952 4.330,1.404 4.713,1.065 5.154 C 0.878 5.396,0.645 5.829,0.566 6.080 C 0.438 6.483,0.174 8.481,0.073 9.800 C 0.008 10.656,0.008 13.344,0.073 14.200 C 0.197 15.832,0.457 17.643,0.630 18.080 C 0.998 19.014,1.805 19.701,2.792 19.923 C 4.200 20.238,9.233 20.432,14.052 20.356 C 17.958 20.294,20.471 20.130,21.398 19.877 C 22.257 19.643,23.027 18.963,23.376 18.131 C 23.539 17.741,23.770 16.204,23.906 14.600 C 23.993 13.571,24.006 10.635,23.928 9.660 C 23.791 7.959,23.547 6.276,23.378 5.874 C 23.021 5.028,22.262 4.357,21.398 4.124 C 20.589 3.906,18.801 3.762,15.920 3.683 C 13.721 3.622,11.425 3.607,9.535 3.641 M12.770 10.220 C 14.457 11.188,15.838 11.991,15.838 12.004 C 15.839 12.018,14.495 12.800,12.850 13.743 C 11.205 14.685,9.802 15.490,9.730 15.532 L 9.600 15.608 9.600 12.021 C 9.600 9.103,9.610 8.437,9.652 8.447 C 9.680 8.454,11.084 9.252,12.770 10.220 " stroke="none" fill="black" fill-rule="evenodd"></path></svg>