<svg role="img" viewBox="0 0 24 24" xmlns="http://www.w3.org/2000/svg"><path d="M6.220 5.025 C 6.154 5.035,5.905 5.079,5.667 5.123 C 3.947 5.443,2.359 6.467,1.298 7.940 C 0.989 8.370,0.529 9.277,0.359 9.790 C -0.357 11.963,0.028 14.350,1.390 16.184 C 1.536 16.380,1.855 16.738,2.099 16.980 C 3.417 18.286,5.156 19.000,7.020 19.000 C 9.548 19.000,11.833 17.675,13.108 15.470 L 13.287 15.160 15.040 15.160 C 17.021 15.160,17.217 15.141,17.720 14.894 C 17.934 14.789,18.101 14.666,18.302 14.464 C 18.630 14.134,18.773 13.903,18.925 13.460 L 19.034 13.140 19.037 14.150 L 19.040 15.160 19.700 15.160 L 20.360 15.160 20.360 13.920 L 20.360 12.680 21.940 12.680 L 23.520 12.680 23.520 12.140 L 23.520 11.600 21.935 11.600 L 20.350 11.600 20.377 11.190 C 20.415 10.628,20.458 10.492,20.654 10.295 C 20.934 10.016,21.038 10.000,22.627 10.000 L 24.000 10.000 24.000 9.440 L 24.000 8.880 22.410 8.881 C 20.696 8.881,20.484 8.901,20.058 9.096 C 19.804 9.212,19.482 9.501,19.346 9.734 C 19.204 9.976,19.085 10.398,19.055 10.766 L 19.028 11.088 18.954 10.794 C 18.834 10.316,18.626 9.939,18.304 9.616 C 17.984 9.295,17.679 9.121,17.206 8.989 C 16.919 8.909,16.788 8.903,15.100 8.889 L 13.300 8.873 13.102 8.519 C 12.530 7.495,11.551 6.515,10.490 5.905 C 9.881 5.555,9.053 5.252,8.280 5.098 C 7.952 5.032,6.519 4.981,6.220 5.025 M12.300 8.992 C 12.814 9.184,13.193 9.570,13.343 10.054 C 13.429 10.329,13.461 10.964,13.404 11.240 C 13.271 11.881,12.876 12.334,12.282 12.527 C 12.059 12.599,11.877 12.616,11.060 12.642 C 10.532 12.658,10.035 12.691,9.955 12.716 C 9.534 12.847,9.366 13.111,9.331 13.698 L 9.308 14.080 11.294 14.080 L 13.280 14.080 13.280 14.620 L 13.280 15.160 10.640 15.160 L 8.000 15.160 8.001 14.150 C 8.001 13.038,8.032 12.813,8.235 12.409 C 8.365 12.153,8.663 11.851,8.913 11.724 C 9.262 11.546,9.494 11.511,10.543 11.484 C 11.506 11.459,11.554 11.454,11.738 11.359 C 11.985 11.232,12.080 11.062,12.080 10.748 C 12.080 10.494,12.044 10.398,11.887 10.229 C 11.687 10.015,11.546 10.000,9.713 10.000 L 8.040 10.000 8.040 9.438 L 8.040 8.876 10.050 8.889 C 12.018 8.902,12.065 8.904,12.300 8.992 M16.734 10.060 C 17.163 10.172,17.442 10.457,17.585 10.929 C 17.648 11.141,17.660 11.312,17.660 12.020 C 17.660 12.781,17.651 12.887,17.570 13.147 C 17.384 13.736,17.067 13.975,16.379 14.043 C 16.159 14.065,15.683 14.078,15.320 14.071 L 14.660 14.060 14.650 12.030 L 14.639 10.000 15.571 10.000 C 16.271 10.000,16.561 10.015,16.734 10.060 " stroke="none" fill="black" fill-rule="evenodd"></path></svg>