<svg role="img" xmlns="http://www.w3.org/2000/svg" viewBox="0 0 24 24"><path d="M10.923 0.042 C 8.719 0.254,6.581 1.075,4.862 2.371 C 4.198 2.872,3.322 3.680,3.443 3.680 C 3.476 3.680,3.971 3.627,4.542 3.563 C 7.052 3.279,8.940 3.160,11.380 3.132 C 13.817 3.105,15.625 3.188,16.780 3.381 C 17.902 3.569,18.757 3.986,19.379 4.646 C 19.861 5.159,20.201 5.944,20.200 6.543 L 20.199 6.780 14.224 12.940 L 8.248 19.100 8.454 19.127 C 8.567 19.141,8.975 19.172,9.360 19.196 C 12.617 19.396,16.824 19.184,21.158 18.601 C 22.156 18.467,22.013 18.559,22.457 17.760 C 23.227 16.374,23.695 14.886,23.884 13.220 C 23.944 12.701,23.944 11.292,23.885 10.780 C 23.558 7.937,22.371 5.446,20.415 3.496 C 18.544 1.631,16.165 0.456,13.540 0.100 C 12.974 0.023,11.467 -0.011,10.923 0.042 M9.840 4.345 C 8.495 4.404,6.891 4.516,5.580 4.642 C 4.727 4.725,2.548 4.981,2.353 5.023 C 2.275 5.039,2.189 5.131,2.029 5.372 C 0.986 6.947,0.335 8.780,0.117 10.760 C 0.056 11.309,0.056 12.707,0.116 13.240 C 0.500 16.653,2.164 19.594,4.862 21.629 C 9.041 24.780,14.919 24.780,19.098 21.629 C 19.891 21.031,21.091 19.875,20.948 19.847 C 20.910 19.840,20.586 19.871,20.229 19.916 C 17.497 20.262,14.700 20.440,12.022 20.440 C 9.768 20.440,8.121 20.347,7.059 20.160 C 5.214 19.836,4.040 18.826,3.781 17.341 C 3.748 17.148,3.720 16.951,3.720 16.903 C 3.720 16.843,5.505 14.977,9.694 10.658 C 15.256 4.924,15.660 4.498,15.564 4.473 C 15.285 4.401,13.987 4.351,12.160 4.342 C 11.049 4.336,10.005 4.337,9.840 4.345 " stroke="none" fill="black" fill-rule="evenodd"></path></svg>