<svg role="img" viewBox="0 0 24 24" xmlns="http://www.w3.org/2000/svg"><path d="M10.940 0.046 C 6.260 0.450,2.189 3.634,0.659 8.086 C -1.484 14.319,1.792 21.115,7.997 23.309 C 12.365 24.853,17.202 23.757,20.480 20.480 C 24.710 16.252,25.180 9.567,21.584 4.785 C 19.301 1.748,15.709 -0.028,11.920 0.006 C 11.601 0.009,11.160 0.027,10.940 0.046 M16.185 6.540 C 16.302 6.826,16.526 7.378,16.683 7.766 L 16.969 8.472 13.444 12.216 L 9.918 15.960 12.952 15.960 L 15.987 15.960 16.463 16.944 C 16.725 17.485,16.946 17.944,16.953 17.964 C 16.961 17.985,15.134 18.000,12.501 18.000 L 8.036 18.000 7.944 17.790 C 7.681 17.191,7.034 15.558,7.046 15.525 C 7.054 15.504,8.633 13.816,10.556 11.774 L 14.052 8.060 11.035 8.050 L 8.018 8.040 7.539 7.054 C 7.275 6.513,7.054 6.054,7.047 6.034 C 7.039 6.015,8.977 6.004,11.503 6.010 L 15.973 6.020 16.185 6.540 " stroke="none" fill="black" fill-rule="evenodd"></path></svg>