<svg xmlns="http://www.w3.org/2000/svg" viewBox="0 0 512 512"><path d="M244.480 1.203 C 233.306 3.780,224.285 8.746,216.560 16.576 C 207.416 25.842,202.353 36.206,200.555 49.334 C 196.996 75.325,213.803 101.370,239.360 109.467 C 244.277 111.025,247.295 111.356,256.427 111.339 C 266.260 111.321,268.231 111.061,273.779 109.053 C 282.813 105.783,288.845 101.940,295.678 95.103 C 307.824 82.947,313.693 65.820,311.419 49.162 C 308.401 27.060,294.260 9.943,273.149 2.839 C 265.142 0.144,252.258 -0.591,244.480 1.203 M60.108 124.458 C 51.354 152.313,48.427 161.741,48.323 162.418 C 48.181 163.337,78.334 175.445,100.267 183.276 C 114.635 188.407,183.765 212.347,192.651 215.271 C 194.571 215.902,195.313 216.605,195.041 217.533 C 193.431 223.029,144.288 495.341,144.816 495.840 C 145.554 496.536,199.941 512.024,200.319 511.646 C 200.552 511.412,245.760 337.235,245.760 336.570 C 245.760 336.374,250.368 336.213,256.000 336.213 C 261.632 336.213,266.240 336.384,266.240 336.593 C 266.240 337.351,311.462 511.427,311.728 511.693 C 312.127 512.091,366.382 496.571,367.182 495.830 C 367.698 495.352,318.657 223.509,316.989 217.600 C 316.707 216.599,324.397 213.746,352.234 204.526 C 389.293 192.252,420.235 181.227,447.132 170.713 C 455.807 167.323,463.149 164.397,463.449 164.212 C 463.749 164.026,461.591 156.091,458.653 146.577 C 455.715 137.064,452.114 125.389,450.650 120.632 L 447.988 111.985 438.821 114.472 C 356.900 136.694,313.379 143.637,256.000 143.637 C 199.104 143.637,156.362 136.851,74.898 114.885 L 64.036 111.956 60.108 124.458 " stroke="none" fill="black" fill-rule="evenodd"></path></svg>