<svg xmlns="http://www.w3.org/2000/svg" width="512" height="512" viewBox="0 0 512 512"><path d="M135.689 48.427 C 135.694 48.779,152.324 85.739,172.645 130.560 L 209.592 212.053 197.169 212.567 C 190.337 212.849,168.441 213.233,148.511 213.420 L 112.275 213.760 90.484 187.107 L 68.693 160.454 42.396 160.440 C 17.751 160.428,16.126 160.520,16.532 161.920 C 17.711 165.980,36.940 254.894,36.878 256.000 C 36.839 256.704,32.173 278.232,26.510 303.840 C 20.847 329.447,16.213 350.855,16.213 351.413 C 16.213 352.173,22.601 352.427,41.747 352.427 L 67.280 352.427 90.173 324.621 L 113.067 296.815 128.000 297.305 C 136.213 297.574,156.373 298.007,172.800 298.266 C 189.227 298.524,204.244 298.928,206.172 299.162 L 209.677 299.588 173.021 380.407 C 152.860 424.858,136.164 461.903,135.920 462.731 C 135.500 464.151,137.231 464.222,166.932 464.011 L 198.389 463.787 264.717 383.147 L 331.045 302.507 351.763 302.933 C 395.341 303.831,430.770 303.400,439.477 301.866 C 467.288 296.966,484.482 287.060,492.168 271.506 C 495.254 265.263,495.359 264.750,495.333 256.044 C 495.311 248.804,494.938 246.121,493.429 242.347 C 487.207 226.787,469.237 215.848,441.173 210.537 C 432.112 208.823,428.744 208.682,397.227 208.696 C 378.453 208.705,355.963 209.002,347.249 209.358 L 331.404 210.004 264.649 128.895 L 197.893 47.787 166.786 47.787 C 149.678 47.787,135.684 48.075,135.689 48.427 " stroke="none" fill="black" fill-rule="evenodd"></path></svg>