<svg xmlns="http://www.w3.org/2000/svg" width="512" height="512" viewBox="0 0 512 512"><path d="M137.813 65.195 C 132.115 67.706,127.984 73.940,128.019 79.973 C 128.064 87.762,133.652 94.087,141.820 95.598 C 144.878 96.163,185.580 96.383,259.065 96.232 C 367.036 96.009,371.758 95.935,374.837 94.405 C 384.386 89.659,386.873 77.522,379.884 69.776 C 378.159 67.864,375.511 65.782,374.001 65.150 C 369.972 63.463,141.643 63.507,137.813 65.195 M107.093 112.829 C 100.247 115.256,96.427 120.690,96.427 128.000 C 96.427 135.470,100.281 140.803,107.434 143.229 C 111.595 144.641,400.405 144.641,404.566 143.229 C 411.719 140.803,415.573 135.470,415.573 128.000 C 415.573 120.530,411.719 115.197,404.566 112.771 C 400.609 111.428,110.883 111.485,107.093 112.829 M80.213 162.038 C 63.786 167.355,52.484 179.623,49.073 195.840 C 48.007 200.906,47.815 217.240,47.808 303.360 C 47.802 369.762,48.107 406.804,48.689 410.388 C 50.780 423.278,60.114 436.316,71.553 442.327 C 83.050 448.369,70.185 447.975,256.000 447.975 C 439.145 447.975,428.585 448.255,439.317 443.107 C 442.254 441.698,446.603 438.372,450.367 434.654 C 457.504 427.607,461.835 419.489,463.311 410.388 C 463.893 406.804,464.198 369.762,464.192 303.360 C 464.183 191.491,464.348 195.205,458.889 184.320 C 455.366 177.297,446.710 168.538,440.035 165.243 C 429.713 160.147,441.230 160.444,255.573 160.483 C 94.312 160.516,84.648 160.602,80.213 162.038 " stroke="none" fill="black" fill-rule="evenodd"></path></svg>