<svg xmlns="http://www.w3.org/2000/svg" width="512" height="512" viewBox="0 0 512 512"><path d="M243.200 48.291 C 189.307 52.936,145.591 72.806,109.198 109.198 C 75.814 142.582,55.864 183.304,49.403 231.253 C 47.996 241.696,47.996 270.304,49.403 280.747 C 55.866 328.705,75.852 369.495,109.198 402.781 C 142.761 436.282,182.341 455.687,231.253 462.621 C 235.243 463.187,246.379 463.649,256.000 463.649 C 284.931 463.649,308.731 459.018,334.933 448.289 C 361.056 437.593,386.578 420.224,405.701 400.129 C 437.387 366.832,455.931 327.939,462.621 280.747 C 463.187 276.757,463.649 265.621,463.649 256.000 C 463.649 227.171,459.011 203.251,448.395 177.325 C 432.022 137.342,403.062 103.108,365.227 79.011 C 343.385 65.100,312.181 53.926,283.992 49.922 C 275.151 48.666,250.352 47.675,243.200 48.291 M277.726 152.533 C 277.192 162.001,272.213 295.715,272.213 300.595 L 272.213 303.787 256.000 303.787 L 239.787 303.787 239.787 300.595 C 239.787 295.715,234.808 162.001,234.274 152.533 L 233.805 144.213 256.000 144.213 L 278.195 144.213 277.726 152.533 M275.627 347.733 L 275.627 367.787 256.000 367.787 L 236.373 367.787 236.373 347.733 L 236.373 327.680 256.000 327.680 L 275.627 327.680 275.627 347.733 " stroke="none" fill="black" fill-rule="evenodd"></path></svg>