<svg xmlns="http://www.w3.org/2000/svg" width="512" height="512" viewBox="0 0 512 512"><path d="M312.107 33.451 C 308.469 33.938,305.493 34.597,305.493 34.916 C 305.493 35.553,476.623 205.653,477.264 205.653 C 477.484 205.653,478.143 201.194,478.730 195.743 C 480.236 181.766,479.391 145.579,477.114 126.512 C 474.337 103.265,469.892 76.168,465.017 52.780 C 464.098 48.370,463.785 47.912,461.340 47.396 C 438.239 42.523,409.299 37.778,385.280 34.925 C 367.528 32.817,323.469 31.929,312.107 33.451 M252.160 46.468 C 216.630 56.810,186.351 70.869,157.867 90.249 C 110.239 122.654,76.716 167.443,53.607 229.547 C 50.132 238.886,42.667 263.402,42.667 265.476 C 42.667 266.530,99.829 323.879,210.042 433.399 L 244.724 467.863 251.855 465.941 C 307.657 450.901,355.051 424.868,390.080 390.013 C 412.506 367.699,428.193 345.886,442.871 316.605 C 452.335 297.724,462.550 270.860,467.658 251.415 L 469.647 243.844 368.907 143.255 C 305.030 79.474,267.580 42.680,266.564 42.704 C 265.682 42.725,259.200 44.418,252.160 46.468 M340.687 193.073 C 331.656 202.113,324.267 209.918,324.267 210.416 C 324.267 210.915,329.067 215.838,334.933 221.356 C 340.800 226.873,345.600 231.832,345.600 232.375 C 345.600 233.582,325.062 254.293,323.865 254.293 C 323.395 254.293,318.107 249.401,312.114 243.422 L 301.218 232.550 289.924 243.844 L 278.630 255.138 289.707 266.240 L 300.784 277.342 289.489 288.636 L 278.195 299.930 267.097 288.857 L 256.000 277.785 244.906 288.854 L 233.812 299.923 244.906 311.040 L 256.000 322.157 244.686 333.448 L 233.371 344.739 222.074 333.442 L 210.777 322.145 193.912 338.995 L 177.047 355.845 165.973 344.747 L 154.900 333.649 171.742 316.792 L 188.583 299.935 177.282 288.634 L 165.981 277.333 177.280 266.035 L 188.579 254.736 199.901 266.035 L 211.224 277.334 222.293 266.240 L 233.362 255.147 222.494 244.255 C 216.517 238.264,211.627 232.990,211.627 232.534 C 211.627 231.434,232.263 210.773,233.362 210.773 C 233.832 210.773,239.119 215.666,245.112 221.645 L 256.008 232.517 267.311 221.151 L 278.613 209.786 267.305 198.963 L 255.997 188.140 267.317 176.843 L 278.637 165.546 289.644 176.577 L 300.650 187.608 317.777 171.019 L 334.903 154.431 346.005 165.533 L 357.108 176.636 340.687 193.073 M33.265 314.263 C 31.749 327.863,32.617 364.531,34.926 384.414 C 37.572 407.200,42.061 434.839,47.428 461.385 C 47.976 464.092,48.018 464.112,58.977 466.700 C 75.406 470.581,97.911 474.969,112.714 477.178 C 124.221 478.895,129.124 479.141,151.893 479.144 C 171.959 479.146,180.950 478.783,191.147 477.561 C 198.421 476.689,204.884 475.696,205.508 475.355 C 206.287 474.930,179.798 448.056,121.067 389.688 C 74.000 342.912,35.231 304.640,34.914 304.640 C 34.597 304.640,33.855 308.970,33.265 314.263 " stroke="none" fill="black" fill-rule="evenodd"></path></svg>