<svg xmlns="http://www.w3.org/2000/svg" width="512" height="512" viewBox="0 0 512 512"><path d="M348.587 32.542 C 332.823 33.070,307.838 35.429,305.727 36.590 C 305.065 36.954,335.922 68.404,389.899 122.379 C 457.423 189.901,475.217 207.260,475.596 205.984 C 475.860 205.098,476.758 198.805,477.592 192.000 C 479.786 174.113,479.808 124.165,477.628 110.080 C 472.322 75.795,462.673 56.688,446.136 47.722 C 424.291 35.878,393.255 31.048,348.587 32.542 M253.867 47.778 C 207.109 61.707,168.479 81.741,136.960 108.409 C 128.420 115.634,111.251 133.195,104.456 141.653 C 80.508 171.467,62.270 206.959,49.207 249.173 C 47.101 255.979,45.136 262.891,44.839 264.533 L 44.300 267.520 144.552 367.734 L 244.803 467.947 253.602 465.516 C 295.004 454.073,332.008 436.319,363.455 412.810 C 377.399 402.386,400.098 380.105,410.193 366.933 C 434.854 334.755,453.830 295.882,465.516 253.602 L 467.947 244.803 367.735 144.588 C 312.618 89.470,266.946 44.396,266.241 44.423 C 265.537 44.451,259.968 45.961,253.867 47.778 M340.309 164.190 C 342.932 165.561,346.640 169.348,348.056 172.104 C 349.462 174.841,349.222 182.287,347.626 185.429 C 346.863 186.931,341.021 193.444,334.643 199.903 L 323.046 211.646 329.594 218.250 C 338.564 227.295,340.451 232.412,337.461 239.570 C 334.923 245.644,329.600 249.173,322.978 249.173 C 317.615 249.173,314.664 247.483,307.184 240.129 L 300.769 233.820 289.732 244.881 L 278.696 255.942 284.714 262.158 C 291.872 269.550,293.842 273.014,293.861 278.245 C 293.891 286.743,287.162 293.745,278.890 293.824 C 272.978 293.881,269.885 292.197,262.158 284.714 L 255.942 278.696 244.901 289.713 L 233.859 300.730 240.632 307.670 C 248.019 315.237,249.173 317.320,249.173 323.076 C 249.173 329.601,245.611 334.937,239.570 337.461 C 232.412 340.451,227.295 338.564,218.250 329.594 L 211.646 323.046 199.903 334.643 C 193.444 341.021,186.931 346.863,185.429 347.626 C 182.287 349.222,174.841 349.462,172.104 348.056 C 169.348 346.640,165.561 342.932,164.190 340.309 C 162.570 337.207,162.667 329.931,164.374 326.571 C 165.137 325.069,170.979 318.556,177.357 312.097 L 188.954 300.354 182.406 293.750 C 173.209 284.475,171.423 279.254,174.859 271.688 C 177.234 266.457,181.702 263.428,187.680 262.996 C 194.081 262.533,196.696 263.887,204.816 271.871 L 211.231 278.180 222.268 267.119 L 233.304 256.058 227.286 249.842 C 219.830 242.143,218.119 239.014,218.175 233.180 C 218.254 224.796,224.829 218.253,233.254 218.174 C 239.007 218.120,242.172 219.858,249.842 227.286 L 256.058 233.304 267.085 222.301 L 278.113 211.298 270.951 203.869 C 263.222 195.851,262.226 193.652,263.043 186.405 C 263.584 181.602,267.059 176.961,271.688 174.859 C 279.257 171.422,284.475 173.208,293.764 182.420 L 300.382 188.981 311.684 177.765 C 317.901 171.596,324.331 165.748,325.973 164.771 C 329.519 162.660,336.815 162.365,340.309 164.190 M36.397 306.016 C 35.197 310.001,33.115 333.002,32.584 348.160 C 31.001 393.273,36.224 426.564,48.047 446.720 C 57.753 463.267,75.702 472.202,110.080 477.599 C 124.382 479.844,174.065 479.821,192.427 477.561 C 199.467 476.695,205.697 475.727,206.273 475.410 C 206.935 475.046,176.078 443.596,122.101 389.621 C 54.438 321.961,36.783 304.738,36.397 306.016 " stroke="none" fill="black" fill-rule="evenodd"></path></svg>