<svg xmlns="http://www.w3.org/2000/svg" width="512" height="512" viewBox="0 0 512 512"><path d="M238.790 48.708 C 199.901 51.925,162.269 66.422,129.782 90.701 C 119.266 98.560,98.560 119.266,90.701 129.782 C 69.069 158.727,55.338 191.226,50.352 225.280 C 42.149 281.314,56.217 336.040,90.695 382.218 C 98.476 392.640,119.191 413.346,129.707 421.213 C 160.300 444.101,192.921 457.398,231.253 462.606 C 242.659 464.156,272.000 463.930,283.567 462.204 C 353.989 451.696,412.003 409.894,442.434 347.733 C 457.257 317.454,463.599 289.966,463.599 256.000 C 463.599 222.419,457.247 194.557,442.880 165.120 C 431.962 142.752,420.990 127.453,402.774 109.202 C 384.698 91.090,369.338 80.067,346.880 69.089 C 313.251 52.649,276.017 45.629,238.790 48.708 M307.647 198.716 L 358.596 249.380 347.630 260.370 C 341.599 266.414,336.393 271.360,336.061 271.360 C 335.729 271.360,321.230 257.301,303.840 240.117 L 272.223 208.874 272.005 283.424 L 271.787 357.973 256.000 357.973 L 240.213 357.973 239.995 283.418 L 239.777 208.863 208.177 240.112 C 190.797 257.298,176.297 271.360,175.956 271.360 C 175.615 271.360,170.404 266.418,164.377 260.377 L 153.418 249.394 204.496 198.541 C 232.588 170.572,255.826 147.770,256.135 147.871 C 256.444 147.971,279.624 170.852,307.647 198.716 " stroke="none" fill="black" fill-rule="evenodd"></path></svg>