<svg xmlns="http://www.w3.org/2000/svg" width="512" height="512" viewBox="0 0 512 512"><path d="M88.307 175.559 C 57.841 219.082,32.914 255.281,32.914 256.002 C 32.914 256.722,57.977 293.113,88.608 336.869 L 144.303 416.427 296.151 416.427 L 448.000 416.427 448.000 256.427 L 448.000 96.427 295.850 96.427 L 143.700 96.427 88.307 175.559 M304.210 202.244 L 336.624 169.821 347.943 181.116 L 359.261 192.411 326.832 224.848 L 294.403 257.285 326.833 289.716 L 359.264 322.147 347.944 333.443 L 336.624 344.739 304.210 312.316 L 271.795 279.893 239.151 312.529 L 206.507 345.165 195.204 333.863 L 183.902 322.560 216.537 289.916 L 249.173 257.272 216.750 224.857 L 184.327 192.442 195.622 181.124 L 206.917 169.806 239.356 202.236 L 271.795 234.667 304.210 202.244 " stroke="none" fill="black" fill-rule="evenodd"></path></svg>