<svg xmlns="http://www.w3.org/2000/svg" viewBox="0 0 512 512"><path d="M235.993 33.804 C 192.701 41.619,158.035 74.463,147.099 118.024 C 145.299 125.196,144.818 129.637,144.352 143.360 L 143.787 160.000 107.520 160.427 L 71.253 160.853 66.392 163.132 C 57.267 167.409,50.668 176.105,48.673 186.482 C 47.959 190.198,47.767 222.235,47.963 305.067 L 48.231 418.560 50.096 425.129 C 57.702 451.923,77.482 471.232,104.631 478.365 C 110.160 479.818,118.641 479.926,248.320 480.206 C 387.250 480.505,400.044 480.288,410.880 477.448 C 422.638 474.366,434.871 467.024,443.786 457.698 C 453.016 448.041,457.416 440.581,461.429 427.782 L 463.786 420.267 464.046 305.920 C 464.235 222.485,464.041 190.197,463.327 186.482 C 461.332 176.105,454.733 167.409,445.608 163.132 L 440.747 160.853 404.480 160.427 L 368.213 160.000 367.648 143.360 C 367.181 129.587,366.704 125.206,364.879 117.934 C 359.365 95.961,348.874 78.041,332.295 62.276 C 316.976 47.707,296.431 37.423,275.302 33.746 C 265.818 32.095,245.290 32.125,235.993 33.804 M276.028 66.559 C 305.257 74.423,327.847 98.078,334.282 127.559 C 335.106 131.335,335.625 138.431,335.688 146.773 L 335.787 160.000 256.000 160.000 L 176.213 160.000 176.320 146.347 C 176.471 126.955,179.858 114.574,188.732 100.981 C 201.075 82.073,219.753 69.507,241.920 65.199 C 250.460 63.540,267.304 64.211,276.028 66.559 M431.589 305.280 L 431.360 418.560 428.616 424.352 C 425.209 431.547,418.028 439.229,411.417 442.752 C 400.961 448.325,410.589 448.000,256.000 448.000 C 131.825 448.000,114.969 447.847,110.473 446.676 C 97.221 443.225,86.007 432.446,81.928 419.238 C 80.248 413.799,80.213 411.447,80.213 302.843 L 80.213 192.000 256.015 192.000 L 431.817 192.000 431.589 305.280 " stroke="none" fill="black" fill-rule="evenodd"></path></svg>