<svg id="icons" xmlns="http://www.w3.org/2000/svg" viewBox="0 0 512 512"><path d="M229.973 33.420 C 181.245 38.921,133.069 62.379,97.555 97.898 C 71.320 124.136,51.231 157.965,41.018 193.099 C 37.824 204.089,34.493 220.688,33.327 231.433 C 32.168 242.102,32.168 269.898,33.327 280.567 C 37.063 314.976,49.811 350.123,69.002 378.924 C 78.836 393.682,85.770 402.225,97.384 413.895 C 131.050 447.722,174.939 470.027,222.720 477.593 C 236.691 479.805,275.239 479.817,289.140 477.613 C 387.119 462.080,462.080 387.119,477.613 289.140 C 479.805 275.314,479.805 236.686,477.613 222.860 C 462.665 128.572,392.295 54.878,299.520 36.356 C 293.653 35.185,285.124 33.821,280.567 33.327 C 270.782 32.264,239.708 32.322,229.973 33.420 M274.412 64.907 C 340.766 71.364,398.969 111.809,428.446 171.947 C 454.451 225.001,454.440 286.657,428.414 340.098 C 422.571 352.097,411.711 369.254,405.598 376.145 L 402.347 379.809 267.234 244.658 L 132.122 109.507 136.260 106.042 C 144.438 99.196,159.945 89.409,171.809 83.608 C 203.633 68.046,239.497 61.509,274.412 64.907 M376.145 405.598 C 369.254 411.711,352.097 422.571,340.098 428.414 C 271.826 461.662,191.486 451.921,133.120 403.320 C 84.529 362.858,58.800 300.346,64.907 237.588 C 68.385 201.851,83.236 164.703,104.751 137.930 L 109.457 132.072 244.633 267.210 L 379.809 402.347 376.145 405.598 " stroke="none" fill="black" fill-rule="evenodd"></path></svg>