<svg xmlns="http://www.w3.org/2000/svg" width="512" height="512" viewBox="0 0 512 512"><path d="M353.107 17.861 C 350.431 18.717,346.399 20.478,344.147 21.775 C 339.960 24.187,264.533 98.523,264.533 100.238 C 264.533 101.388,410.607 247.467,411.757 247.467 C 413.335 247.467,487.017 172.904,489.759 168.533 C 498.006 155.384,497.733 138.121,489.071 124.952 C 486.980 121.772,467.719 101.966,437.219 71.632 C 386.358 21.048,385.264 20.092,375.168 17.404 C 369.047 15.774,358.982 15.983,353.107 17.861 M183.893 180.907 L 125.870 238.935 199.468 312.534 L 273.067 386.132 331.094 328.105 L 389.121 270.077 315.518 196.478 L 241.916 122.879 183.893 180.907 M262.435 193.604 C 274.396 199.037,275.121 216.030,263.642 221.886 C 256.966 225.292,247.271 223.317,243.302 217.743 C 233.763 204.347,247.615 186.872,262.435 193.604 M212.566 240.771 C 219.719 243.197,223.573 248.530,223.573 256.000 C 223.573 273.175,200.712 278.084,193.604 262.435 C 189.771 253.997,193.992 244.171,202.799 241.031 C 206.886 239.574,208.881 239.521,212.566 240.771 M308.240 240.678 C 314.668 242.463,319.963 249.383,319.963 256.000 C 319.963 265.917,309.862 273.912,300.463 271.435 C 292.703 269.390,288.427 263.907,288.427 256.000 C 288.427 248.690,292.247 243.256,299.093 240.829 C 302.446 239.640,304.390 239.608,308.240 240.678 M63.012 301.857 C 21.086 343.900,20.166 344.980,17.375 355.413 C 16.026 360.456,15.908 369.267,17.118 374.518 C 19.529 384.974,19.336 384.752,71.580 437.188 C 98.622 464.330,122.335 487.646,124.276 489.002 C 132.540 494.776,145.549 497.253,155.404 494.929 C 166.607 492.287,167.379 491.639,210.142 448.979 L 250.044 409.173 176.424 335.564 L 102.804 261.954 63.012 301.857 M263.642 290.114 C 267.636 292.152,270.111 295.439,271.435 300.463 C 274.697 312.840,261.377 323.762,249.565 318.396 C 240.217 314.150,237.256 302.747,243.298 294.262 C 247.281 288.669,256.946 286.698,263.642 290.114 " stroke="none" fill="black" fill-rule="evenodd"></path></svg>