<svg xmlns="http://www.w3.org/2000/svg" width="512" height="512" viewBox="0 0 512 512"><path d="M25.173 17.634 C 21.408 19.624,19.637 21.383,17.823 24.939 C 16.239 28.041,16.206 33.422,16.420 250.237 L 16.640 472.356 19.413 477.989 C 22.701 484.668,28.057 489.911,34.837 493.090 L 39.680 495.360 261.781 495.580 C 478.578 495.794,483.959 495.761,487.061 494.177 C 492.661 491.319,495.787 486.243,495.787 480.008 C 495.787 473.662,492.576 468.594,486.656 465.596 C 484.159 464.332,465.214 464.213,265.856 464.213 L 47.787 464.213 47.787 246.153 C 47.787 33.860,47.744 28.008,46.171 24.926 C 44.322 21.304,42.534 19.560,38.656 17.596 C 35.208 15.851,28.513 15.870,25.173 17.634 M392.777 97.643 C 381.371 101.276,371.607 111.845,368.675 123.733 C 367.995 126.488,367.796 166.770,367.970 266.285 L 368.213 404.996 371.393 411.428 C 375.280 419.293,380.956 424.865,388.929 428.642 L 394.667 431.360 423.724 431.360 L 452.782 431.360 459.284 428.146 C 469.093 423.299,475.090 416.053,478.228 405.259 C 479.466 400.999,479.577 387.133,479.373 261.925 L 479.147 123.307 476.415 117.539 C 472.772 109.850,466.251 103.070,459.156 99.598 L 453.547 96.853 424.960 96.676 C 402.996 96.539,395.540 96.763,392.777 97.643 M249.600 161.623 C 235.668 166.041,226.365 177.295,224.451 192.047 C 223.351 200.517,223.350 391.670,224.449 400.213 C 226.292 414.532,235.827 425.975,249.463 430.231 C 253.817 431.590,257.639 431.785,279.756 431.777 C 307.244 431.766,310.700 431.339,318.020 427.049 C 326.573 422.036,333.154 412.832,335.253 402.945 C 335.935 399.736,336.210 368.641,336.201 295.851 C 336.190 206.832,336.016 192.549,334.884 187.745 C 332.720 178.566,327.313 170.874,319.573 165.962 C 311.158 160.622,309.701 160.421,279.955 160.484 C 260.698 160.525,252.040 160.850,249.600 161.623 M105.376 209.726 C 95.099 213.333,87.909 219.750,83.340 229.393 L 80.640 235.093 80.640 320.044 L 80.640 404.995 83.819 411.428 C 87.706 419.293,93.383 424.865,101.356 428.642 L 107.093 431.360 136.151 431.360 L 165.209 431.360 171.657 428.173 C 181.431 423.343,187.961 415.366,190.676 404.941 C 191.827 400.520,192.000 389.418,192.000 320.000 C 192.000 250.582,191.827 239.480,190.676 235.059 C 187.962 224.637,181.431 216.658,171.660 211.827 L 165.214 208.640 137.434 208.432 C 112.766 208.248,109.174 208.393,105.376 209.726 " stroke="none" fill="black" fill-rule="evenodd"></path></svg>