<svg xmlns="http://www.w3.org/2000/svg" width="512" height="512" viewBox="0 0 512 512"><path d="M74.240 143.787 L 74.240 175.787 45.227 175.787 L 16.213 175.787 16.213 256.000 L 16.213 336.213 45.227 336.213 L 74.240 336.213 74.240 368.213 L 74.240 400.213 112.213 400.213 L 150.187 400.213 150.187 339.200 L 150.187 278.187 256.000 278.187 L 361.813 278.187 361.813 339.200 L 361.813 400.213 399.787 400.213 L 437.760 400.213 437.760 368.213 L 437.760 336.213 466.773 336.213 L 495.787 336.213 495.787 256.000 L 495.787 175.787 466.773 175.787 L 437.760 175.787 437.760 143.787 L 437.760 111.787 399.787 111.787 L 361.813 111.787 361.813 172.800 L 361.813 233.813 256.000 233.813 L 150.187 233.813 150.187 172.800 L 150.187 111.787 112.213 111.787 L 74.240 111.787 74.240 143.787 " stroke="none" fill="black" fill-rule="evenodd"></path></svg>