<svg xmlns="http://www.w3.org/2000/svg" width="512" height="512" viewBox="0 0 512 512"><path d="M17.067 256.000 L 17.067 384.000 96.853 384.000 L 176.640 384.000 176.640 380.799 C 176.640 379.038,178.176 372.223,180.053 365.653 C 181.931 359.084,183.467 353.423,183.467 353.073 C 183.467 352.723,153.227 352.339,116.267 352.219 L 49.067 352.000 48.850 256.213 L 48.633 160.427 133.401 160.427 L 218.170 160.427 229.192 145.361 C 235.254 137.075,240.520 129.779,240.896 129.148 C 241.466 128.189,223.138 128.000,129.322 128.000 L 17.067 128.000 17.067 256.000 M254.720 144.390 C 248.149 153.385,224.273 186.113,201.661 217.119 L 160.549 273.493 193.341 273.717 C 211.377 273.840,226.133 274.257,226.133 274.645 C 226.133 275.033,219.411 299.316,211.195 328.608 C 202.979 357.900,196.439 382.347,196.662 382.933 C 197.663 385.571,200.271 383.232,208.081 372.693 C 224.995 349.870,306.347 238.079,306.347 237.659 C 306.347 237.421,291.521 237.227,273.401 237.227 L 240.455 237.227 241.034 234.880 C 241.352 233.589,248.113 209.360,256.059 181.037 C 264.004 152.715,270.291 129.195,270.029 128.771 C 268.557 126.389,265.855 129.147,254.720 144.390 M290.131 130.773 C 290.130 132.299,288.594 139.027,286.718 145.726 C 284.842 152.424,283.307 158.472,283.307 159.166 C 283.307 160.267,291.765 160.427,350.297 160.427 L 417.287 160.427 417.070 256.213 L 416.853 352.000 332.256 352.217 L 247.659 352.435 236.683 367.525 C 230.646 375.825,225.579 382.927,225.422 383.308 C 225.266 383.688,275.474 384.000,336.996 384.000 L 448.853 384.000 448.853 256.000 L 448.853 128.000 369.493 128.000 L 290.133 128.000 290.131 130.773 M70.827 256.000 L 70.827 329.387 130.499 329.387 L 190.172 329.387 191.458 324.907 C 194.757 313.411,199.680 295.486,199.680 294.972 C 199.680 294.657,182.016 294.400,160.427 294.400 C 138.837 294.400,121.173 294.221,121.173 294.002 C 121.173 293.783,139.221 268.826,161.280 238.543 C 183.339 208.260,201.387 183.287,201.387 183.048 C 201.387 182.809,172.011 182.613,136.107 182.613 L 70.827 182.613 70.827 256.000 M276.063 183.680 C 274.935 186.984,267.093 215.757,267.093 216.590 C 267.093 217.328,277.197 217.640,306.396 217.805 L 345.698 218.027 305.560 273.067 C 283.484 303.339,265.413 328.395,265.404 328.747 C 265.394 329.099,294.571 329.387,330.240 329.387 L 395.093 329.387 395.093 256.000 L 395.093 182.613 335.760 182.613 C 289.056 182.613,276.349 182.840,276.063 183.680 M465.067 256.427 L 465.067 309.760 480.853 309.760 L 496.640 309.760 496.640 256.427 L 496.640 203.093 480.853 203.093 L 465.067 203.093 465.067 256.427 " stroke="none" fill="black" fill-rule="evenodd"></path></svg>