<svg xmlns="http://www.w3.org/2000/svg" width="512" height="512" viewBox="0 0 512 512"><path d="M122.211 81.936 C 107.670 85.745,93.439 96.942,86.763 109.824 C 80.249 122.393,80.213 122.770,80.213 179.623 L 80.213 230.121 72.380 234.740 C 57.314 243.626,44.267 258.555,37.966 274.118 C 32.134 288.524,32.216 287.445,31.807 355.070 C 31.541 398.976,31.710 417.177,32.405 419.758 C 33.528 423.929,38.150 429.416,41.821 430.936 C 46.042 432.685,53.910 431.672,57.524 428.915 C 62.402 425.195,64.000 421.158,64.000 412.555 C 64.000 405.566,64.123 405.079,66.494 402.708 L 68.989 400.213 256.000 400.213 L 443.011 400.213 445.506 402.708 C 447.877 405.079,448.000 405.566,448.000 412.555 C 448.000 421.158,449.598 425.195,454.476 428.915 C 458.090 431.672,465.958 432.685,470.179 430.936 C 473.850 429.416,478.472 423.929,479.595 419.758 C 480.290 417.177,480.459 398.976,480.193 355.070 C 479.787 287.920,479.838 288.627,474.332 274.773 C 467.394 257.321,452.172 240.668,435.413 232.198 L 431.787 230.365 431.787 179.746 C 431.787 132.159,431.686 128.732,430.104 122.547 C 427.494 112.342,423.088 104.724,415.187 96.753 C 407.373 88.870,399.898 84.567,389.313 81.860 C 383.089 80.268,378.622 80.215,255.650 80.260 C 133.283 80.306,128.189 80.369,122.211 81.936 M385.015 113.642 C 389.577 115.711,395.560 121.553,397.824 126.150 C 399.736 130.031,399.793 130.876,400.052 158.933 C 400.213 176.484,400.004 187.733,399.516 187.733 C 399.076 187.733,398.226 187.143,397.628 186.422 C 396.000 184.461,386.773 179.556,381.440 177.816 C 377.223 176.441,372.213 176.255,332.052 175.987 C 303.216 175.795,285.283 176.011,281.511 176.596 C 273.802 177.792,267.412 180.254,261.132 184.447 L 256.000 187.875 250.868 184.447 C 244.588 180.254,238.198 177.792,230.489 176.596 C 226.724 176.012,208.733 175.791,179.948 175.977 C 136.259 176.258,135.124 176.308,129.522 178.184 C 126.370 179.240,121.231 181.821,118.103 183.919 C 114.974 186.017,112.273 187.733,112.100 187.733 C 111.299 187.733,111.874 134.503,112.719 130.565 C 114.338 123.014,121.948 115.027,129.462 112.993 C 132.732 112.108,158.316 111.920,257.707 112.050 C 371.763 112.200,382.123 112.330,385.015 113.642 M231.074 209.829 C 235.815 212.249,239.787 217.717,239.787 221.824 C 239.787 223.570,239.670 223.573,183.787 223.573 L 127.787 223.573 128.339 220.814 C 129.205 216.483,132.644 212.041,136.677 210.044 C 140.311 208.246,141.111 208.215,184.141 208.214 C 225.405 208.213,228.089 208.306,231.074 209.829 M375.254 210.023 C 379.329 211.996,382.785 216.432,383.661 220.814 L 384.213 223.573 328.213 223.573 C 272.418 223.573,272.213 223.567,272.213 221.833 C 272.213 219.601,274.980 214.167,277.029 212.373 C 281.786 208.210,280.882 208.284,327.624 208.247 C 370.642 208.214,371.589 208.249,375.254 210.023 M411.660 257.688 C 420.936 260.060,426.117 263.096,433.511 270.489 C 440.904 277.883,443.940 283.064,446.312 292.340 C 447.858 298.383,448.000 301.860,448.000 333.577 L 448.000 368.213 255.952 368.213 L 63.904 368.213 64.177 331.093 L 64.451 293.973 66.657 288.274 C 69.716 280.375,73.464 274.839,79.673 269.050 C 86.132 263.028,91.782 259.882,100.003 257.728 C 106.030 256.149,111.277 256.092,255.650 256.047 C 401.798 256.001,405.204 256.037,411.660 257.688 " stroke="none" fill="black" fill-rule="evenodd"></path></svg>