<svg xmlns="http://www.w3.org/2000/svg" width="512" height="512" viewBox="0 0 512 512"><path d="M314.065 72.612 C 304.735 74.441,295.489 81.635,291.172 90.425 C 289.096 94.652,288.853 96.085,288.853 104.107 C 288.853 112.674,288.980 113.301,291.747 118.402 C 295.116 124.616,300.074 129.478,306.483 132.853 C 310.640 135.043,311.826 135.253,320.000 135.253 C 328.209 135.253,329.373 135.044,333.880 132.762 C 339.738 129.795,346.677 122.745,349.274 117.121 C 350.843 113.725,351.147 111.543,351.147 103.680 C 351.147 95.060,350.953 93.925,348.770 89.783 C 343.860 80.464,335.777 74.471,325.603 72.608 C 319.924 71.567,319.395 71.567,314.065 72.612 M266.740 128.890 C 265.372 129.299,262.751 131.090,260.915 132.870 C 254.223 139.358,178.766 222.823,177.548 225.085 C 176.859 226.366,176.283 229.597,176.268 232.267 C 176.223 240.564,177.406 241.637,210.347 263.196 L 239.360 282.184 239.787 323.633 L 240.213 365.082 242.773 368.705 C 249.458 378.166,262.544 378.165,269.227 368.704 L 271.787 365.080 271.787 317.153 L 271.787 269.227 269.717 265.898 C 268.078 263.261,262.398 259.114,242.411 245.960 C 228.530 236.825,217.039 229.229,216.875 229.079 C 216.711 228.930,228.231 215.945,242.475 200.225 C 261.840 178.853,268.610 171.897,269.312 172.648 C 269.828 173.201,276.500 184.981,284.138 198.827 C 291.776 212.672,299.034 225.104,300.266 226.454 C 305.283 231.949,306.132 232.069,340.053 232.069 C 368.118 232.069,371.068 231.933,374.187 230.494 C 378.318 228.587,380.917 225.886,382.679 221.669 C 385.786 214.233,382.534 205.653,375.040 201.519 C 372.852 200.312,368.758 200.068,346.848 199.838 L 321.215 199.570 303.521 167.715 C 293.790 150.195,285.002 134.812,283.994 133.530 C 280.437 129.008,273.018 127.013,266.740 128.890 M107.805 273.426 C 75.369 279.579,48.733 302.010,37.583 332.562 C 33.994 342.396,32.427 351.936,32.427 363.947 C 32.427 375.957,33.994 385.498,37.583 395.331 C 47.897 423.593,70.968 444.720,100.451 452.902 C 108.052 455.011,110.138 455.220,123.733 455.236 C 136.755 455.251,139.650 454.994,146.347 453.229 C 172.887 446.235,194.134 429.066,206.109 404.937 C 229.191 358.427,209.650 302.717,162.503 280.624 C 150.774 275.127,140.826 272.913,126.293 272.564 C 118.219 272.370,111.795 272.670,107.805 273.426 M375.467 272.791 C 337.641 278.909,308.662 304.779,298.883 341.158 C 296.895 348.551,296.657 350.997,296.657 363.947 C 296.657 376.973,296.889 379.324,298.937 386.987 C 308.214 421.697,336.180 447.706,371.414 454.390 C 379.258 455.878,394.709 456.070,402.773 454.780 C 440.635 448.722,471.220 418.822,478.341 380.904 C 480.282 370.568,479.650 350.572,477.084 341.171 C 467.456 305.895,439.016 279.646,403.728 273.466 C 397.233 272.328,380.759 271.935,375.467 272.791 M138.667 305.918 C 145.737 307.712,156.597 313.201,161.707 317.565 C 176.284 330.014,183.699 345.627,183.735 363.947 C 183.789 391.257,165.735 414.777,139.093 422.105 C 130.398 424.497,114.994 424.146,106.524 421.363 C 96.433 418.047,89.136 413.519,81.472 405.816 C 73.906 398.211,69.755 391.251,66.425 380.587 C 64.755 375.239,64.437 372.432,64.489 363.520 C 64.543 354.371,64.873 351.882,66.814 346.027 C 74.036 324.234,92.766 308.180,115.089 304.646 C 121.249 303.671,132.118 304.257,138.667 305.918 M403.142 306.015 C 415.372 309.184,428.378 317.929,435.757 327.945 C 444.372 339.637,447.523 349.254,447.553 363.947 C 447.576 375.641,445.892 382.538,440.468 392.960 C 436.392 400.791,425.783 411.589,417.849 415.984 C 407.660 421.627,400.447 423.504,388.693 423.572 C 373.283 423.661,362.612 420.068,350.772 410.804 C 336.450 399.598,328.249 382.536,328.249 363.947 C 328.249 341.423,340.253 321.522,360.107 311.131 C 373.818 303.955,388.468 302.213,403.142 306.015 " stroke="none" fill="black" fill-rule="evenodd"></path></svg>