<svg xmlns="http://www.w3.org/2000/svg" width="512" height="512" viewBox="0 0 512 512"><path d="M310.536 65.562 C 296.953 70.067,288.490 81.635,288.447 95.755 C 288.342 129.687,332.834 140.156,348.747 109.944 C 350.956 105.748,351.147 104.642,351.147 96.000 C 351.147 87.477,350.930 86.172,348.790 81.814 C 345.890 75.909,339.415 69.710,333.153 66.843 C 326.735 63.905,317.167 63.363,310.536 65.562 M251.977 116.388 C 250.000 117.034,246.675 118.562,244.589 119.784 C 242.421 121.055,224.960 138.081,203.812 159.546 C 160.945 203.055,161.131 202.814,160.568 215.688 C 160.238 223.228,160.358 223.909,162.926 229.126 C 164.606 232.540,166.990 235.734,169.216 237.557 C 171.187 239.171,182.784 246.330,194.987 253.467 C 207.189 260.603,222.261 269.492,228.480 273.220 L 239.787 279.998 239.791 316.426 C 239.794 339.212,240.131 354.060,240.691 356.077 C 241.184 357.849,242.807 360.691,244.300 362.390 C 250.722 369.705,261.278 369.705,267.700 362.390 C 269.193 360.691,270.816 357.849,271.309 356.077 C 272.536 351.659,272.530 266.135,271.303 261.715 C 270.807 259.929,269.351 257.293,268.067 255.857 C 266.783 254.420,257.111 247.045,246.573 239.469 C 231.066 228.320,227.365 225.277,227.158 223.506 C 226.945 221.679,230.462 217.518,248.431 198.339 C 260.272 185.700,270.475 175.049,271.104 174.668 C 273.831 173.018,275.714 175.551,287.282 196.437 C 300.421 220.161,302.028 222.107,309.671 223.557 C 315.599 224.681,364.454 224.691,370.368 223.569 C 386.622 220.487,388.818 199.695,373.562 193.321 C 370.961 192.234,366.110 192.000,346.159 192.000 C 327.789 192.000,321.709 191.742,321.062 190.933 C 320.592 190.347,312.581 175.885,303.260 158.797 C 284.941 125.213,282.880 122.324,274.217 118.086 C 268.444 115.262,257.897 114.456,251.977 116.388 M113.495 264.642 C 99.747 266.233,84.628 271.787,72.791 279.596 C 65.670 284.294,53.748 296.051,48.695 303.361 C 43.186 311.330,38.252 321.692,35.288 331.520 C 33.133 338.666,32.968 340.327,32.913 355.413 C 32.861 369.713,33.081 372.450,34.776 378.605 C 45.648 418.075,78.856 445.450,118.613 447.716 C 159.549 450.049,197.210 424.911,210.717 386.237 C 230.297 330.173,192.300 270.647,133.051 264.567 C 123.456 263.583,122.621 263.586,113.495 264.642 M377.611 264.624 C 362.633 266.201,345.381 273.076,333.007 282.401 C 308.222 301.077,294.893 329.467,296.358 360.462 C 297.507 384.772,307.093 405.546,324.994 422.517 C 341.918 438.561,360.998 446.658,384.427 447.736 C 420.172 449.381,453.809 429.532,470.024 397.227 C 476.869 383.589,479.573 372.027,479.573 356.397 C 479.573 329.846,470.377 308.039,451.559 289.968 C 442.900 281.652,437.184 277.711,426.409 272.625 C 417.399 268.373,408.167 265.827,397.206 264.571 C 388.683 263.595,387.356 263.599,377.611 264.624 M136.792 297.490 C 175.699 306.255,195.256 348.754,176.798 384.427 C 172.098 393.511,160.492 404.762,151.040 409.398 C 141.739 413.960,134.806 415.545,124.083 415.561 C 97.468 415.600,75.536 399.775,67.026 374.393 C 56.002 341.511,77.078 304.891,111.360 297.366 C 118.501 295.799,129.521 295.852,136.792 297.490 M398.990 297.031 C 422.385 301.303,442.184 321.046,446.817 344.725 C 451.097 366.596,442.253 390.065,424.783 403.197 C 413.232 411.880,402.195 415.582,387.917 415.561 C 377.194 415.545,370.261 413.960,360.960 409.398 C 351.508 404.762,339.902 393.511,335.202 384.427 C 319.000 353.114,331.594 316.005,363.376 301.407 C 373.789 296.624,387.519 294.937,398.990 297.031 " stroke="none" fill="black" fill-rule="evenodd"></path></svg>