<svg xmlns="http://www.w3.org/2000/svg" width="512" height="512" viewBox="0 0 512 512"><path d="M206.793 25.107 C 188.958 29.433,177.199 44.177,176.019 63.692 L 175.547 71.490 154.974 71.920 C 131.309 72.414,127.572 73.085,115.272 79.052 C 108.425 82.373,106.091 84.103,99.485 90.755 C 90.701 99.599,87.155 105.098,83.315 115.830 L 80.640 123.307 80.387 171.253 L 80.134 219.199 66.734 224.483 C 59.364 227.389,51.839 230.520,50.012 231.442 C 44.490 234.229,38.590 240.428,35.647 246.537 C 33.323 251.361,32.890 253.312,32.602 260.267 C 32.198 269.998,29.536 262.227,59.790 339.627 C 81.534 395.256,82.438 397.360,86.196 401.137 C 92.882 407.857,99.856 409.149,115.263 406.521 C 134.463 403.247,151.409 395.627,169.135 382.297 L 176.913 376.449 180.830 379.705 C 195.572 391.961,217.873 402.552,236.800 406.288 C 244.649 407.837,267.351 407.837,275.200 406.288 C 293.935 402.590,313.568 393.349,329.978 380.504 L 335.262 376.368 339.834 380.092 C 346.060 385.163,357.515 392.524,365.090 396.320 C 381.636 404.612,405.854 409.754,415.603 407.046 C 420.668 405.639,426.366 401.457,428.741 397.404 C 429.964 395.317,441.781 366.199,455.001 332.698 L 479.037 271.787 479.067 262.400 C 479.105 250.877,477.284 245.501,471.025 238.652 C 466.125 233.292,461.349 230.658,444.413 223.980 L 431.865 219.032 431.613 171.169 L 431.360 123.307 428.685 115.830 C 424.847 105.102,421.294 99.590,412.587 90.854 C 406.695 84.943,403.274 82.304,397.898 79.521 C 385.963 73.343,380.708 72.365,356.907 71.895 L 336.213 71.487 336.213 66.580 C 336.213 45.863,323.041 28.816,303.958 24.836 C 297.286 23.445,212.674 23.681,206.793 25.107 M381.254 107.009 C 388.067 110.155,395.004 117.427,397.791 124.344 C 399.743 129.191,399.784 129.912,400.041 164.243 C 400.185 183.472,400.086 200.069,399.822 201.125 C 398.624 205.897,399.712 206.248,331.794 179.171 C 288.523 161.919,265.638 153.219,261.761 152.546 C 257.489 151.804,254.591 151.788,250.537 152.482 C 247.005 153.088,222.247 162.507,180.526 179.120 C 112.200 206.326,113.388 205.944,112.178 201.125 C 111.914 200.069,111.815 183.472,111.959 164.243 C 112.216 129.974,112.260 129.183,114.197 124.376 C 116.538 118.570,123.382 110.735,128.344 108.183 C 136.379 104.051,131.380 104.199,257.280 104.371 L 375.893 104.533 381.254 107.009 M157.174 424.337 C 141.095 439.723,124.304 452.630,107.520 462.508 C 102.592 465.408,98.080 468.395,97.493 469.147 C 95.803 471.311,96.195 475.929,98.243 477.977 C 99.817 479.551,100.701 479.725,104.857 479.280 C 114.865 478.209,132.779 471.600,153.501 461.332 C 160.721 457.754,167.176 454.827,167.844 454.827 C 168.512 454.827,173.740 456.893,179.463 459.419 C 208.670 472.311,239.311 477.809,269.013 475.486 C 291.564 473.723,311.629 468.648,332.537 459.419 C 338.260 456.893,343.444 454.826,344.057 454.825 C 344.671 454.825,352.277 458.245,360.960 462.425 C 382.908 472.993,401.470 479.573,409.334 479.573 C 412.864 479.573,415.573 477.010,415.573 473.670 C 415.573 469.557,414.787 468.593,408.434 464.921 C 392.474 455.695,374.796 442.351,356.907 426.027 C 344.106 414.345,343.254 414.139,332.875 420.221 C 299.621 439.709,263.547 446.200,228.236 439.050 C 210.772 435.514,194.341 429.170,178.787 419.957 C 174.269 417.281,171.934 416.427,169.134 416.427 C 165.639 416.427,164.998 416.851,157.174 424.337 " stroke="none" fill="black" fill-rule="evenodd"></path></svg>