<svg xmlns="http://www.w3.org/2000/svg" width="512" height="512" viewBox="0 0 512 512"><path d="M111.787 23.893 L 111.787 47.787 263.680 47.787 L 415.573 47.787 415.573 231.673 L 415.573 415.559 439.893 431.787 L 464.213 448.015 464.213 224.007 L 464.213 0.000 288.000 0.000 L 111.787 0.000 111.787 23.893 M47.787 296.155 C 47.787 506.340,47.829 512.067,49.370 510.982 C 50.241 510.368,87.911 482.603,133.081 449.280 C 178.250 415.957,215.650 388.731,216.190 388.777 C 216.991 388.845,261.793 421.737,375.680 505.868 L 384.000 512.014 384.000 296.114 L 384.000 80.213 215.893 80.213 L 47.787 80.213 47.787 296.155 " stroke="none" fill="black" fill-rule="evenodd"></path></svg>