<svg xmlns="http://www.w3.org/2000/svg" width="512" height="512" viewBox="0 0 512 512"><path d="M86.613 48.725 C 66.181 51.641,48.442 64.661,38.846 83.787 C 31.456 98.515,32.000 84.844,32.000 256.000 C 32.000 398.712,32.089 407.844,33.532 413.991 C 37.565 431.170,49.595 447.266,64.853 455.900 C 70.679 459.197,80.071 462.277,87.406 463.298 C 96.603 464.577,415.397 464.577,424.594 463.298 C 446.360 460.270,463.870 447.400,473.679 427.218 C 480.472 413.242,480.000 426.024,480.000 256.000 C 480.000 85.976,480.472 98.758,473.679 84.782 C 463.870 64.600,446.360 51.730,424.594 48.702 C 416.557 47.585,94.454 47.607,86.613 48.725 M429.412 83.035 C 436.127 86.332,441.594 91.912,444.855 98.795 C 447.565 104.516,447.574 104.582,447.867 120.588 C 448.192 138.280,447.702 140.881,443.656 142.974 C 440.035 144.846,71.965 144.846,68.344 142.974 C 64.318 140.892,63.836 138.326,64.146 120.620 C 64.401 105.989,64.604 104.147,66.387 100.267 C 70.716 90.841,76.734 85.063,85.523 81.891 C 89.900 80.312,94.718 80.271,257.280 80.453 L 424.533 80.640 429.412 83.035 " stroke="none" fill="black" fill-rule="evenodd"></path></svg>