<svg xmlns="http://www.w3.org/2000/svg" width="512" height="512" viewBox="0 0 512 512"><path d="M237.760 33.753 C 193.066 42.633,160.427 81.681,160.427 126.270 L 160.427 135.484 152.830 141.118 C 143.431 148.090,134.096 158.032,127.970 167.595 C 125.405 171.598,123.037 174.887,122.707 174.904 C 122.377 174.920,121.322 173.159,120.363 170.991 C 115.289 159.520,113.000 146.105,111.981 121.862 L 111.310 105.910 108.714 102.662 C 105.317 98.411,101.276 96.429,96.000 96.429 C 90.709 96.429,86.679 98.413,83.261 102.700 L 80.640 105.987 80.728 124.887 C 80.799 140.023,81.186 145.984,82.670 154.819 C 86.419 177.134,94.219 194.083,107.345 208.437 L 112.213 213.760 111.958 242.987 L 111.702 272.213 78.251 272.232 C 47.426 272.249,44.524 272.376,41.288 273.846 C 36.215 276.150,33.071 280.663,32.603 286.315 C 32.102 292.348,32.743 294.582,36.052 298.351 C 40.837 303.801,40.729 303.787,78.053 303.787 L 111.787 303.787 111.787 313.936 C 111.787 332.853,114.347 349.949,119.511 365.524 L 122.200 373.633 114.647 381.189 C 94.805 401.039,84.443 421.444,81.031 447.388 C 80.489 451.510,80.179 458.291,80.343 462.457 C 80.616 469.412,80.854 470.299,83.261 473.309 C 86.643 477.539,90.714 479.570,95.814 479.572 C 101.273 479.574,104.957 477.902,108.221 473.942 C 111.183 470.349,111.275 469.959,112.550 455.680 C 113.983 439.634,117.077 430.295,124.664 419.119 C 127.421 415.057,131.605 409.621,133.961 407.040 C 137.819 402.813,138.337 402.501,139.170 403.897 C 141.348 407.547,152.868 420.663,157.922 425.247 C 213.844 475.972,295.013 476.940,351.367 427.554 C 358.270 421.505,370.110 408.454,372.830 403.897 C 373.663 402.501,374.181 402.813,378.039 407.040 C 385.049 414.720,392.049 425.768,394.846 433.566 C 397.873 442.007,399.107 448.465,400.093 461.042 C 400.750 469.420,401.042 470.528,403.348 473.415 C 406.684 477.592,410.752 479.571,416.000 479.571 C 421.285 479.571,425.318 477.589,428.736 473.311 C 431.072 470.389,431.387 469.304,431.662 463.258 C 431.831 459.530,431.531 452.758,430.994 448.209 C 427.931 422.236,417.525 401.482,397.370 381.155 L 389.828 373.548 392.503 365.482 C 397.653 349.950,400.213 332.834,400.213 313.936 L 400.213 303.787 433.947 303.787 C 471.271 303.787,471.163 303.801,475.948 298.351 C 479.257 294.582,479.898 292.348,479.397 286.315 C 478.929 280.663,475.785 276.150,470.712 273.846 C 467.476 272.376,464.574 272.249,433.729 272.232 L 400.258 272.213 400.023 243.840 L 399.787 215.467 405.347 209.363 C 423.301 189.654,431.167 163.919,431.299 124.459 L 431.360 105.985 428.739 102.699 C 425.321 98.413,421.290 96.429,416.000 96.429 C 410.719 96.429,406.682 98.411,403.274 102.676 C 400.951 105.583,400.641 106.652,400.425 112.489 C 399.750 130.803,398.274 148.072,396.743 155.584 C 395.059 163.849,391.219 174.933,390.041 174.933 C 389.708 174.933,388.790 173.579,388.001 171.923 C 382.734 160.880,370.075 146.578,358.272 138.337 L 351.790 133.812 351.344 122.586 C 350.716 106.772,347.085 94.054,339.369 80.640 C 325.140 55.906,301.457 38.981,273.706 33.717 C 265.280 32.118,245.888 32.138,237.760 33.753 M268.623 65.348 C 292.453 70.234,311.819 88.450,317.825 111.628 C 318.552 114.432,319.147 117.483,319.147 118.409 C 319.147 120.069,319.074 120.071,313.569 118.544 C 283.089 110.092,236.437 109.899,203.733 118.088 L 192.853 120.813 192.853 118.769 C 192.853 117.646,193.448 114.432,194.175 111.628 C 202.554 79.290,235.805 58.620,268.623 65.348 M282.872 145.509 C 332.820 151.352,361.177 172.801,366.899 209.067 C 367.433 212.453,367.775 237.048,367.777 272.213 C 367.780 336.186,367.614 338.668,362.252 354.697 C 351.880 385.705,329.578 410.029,299.750 422.867 C 292.868 425.829,280.964 429.481,275.413 430.334 L 272.213 430.826 272.209 310.773 C 272.205 225.815,271.928 189.728,271.262 187.326 C 270.001 182.786,265.006 177.916,260.313 176.653 C 251.768 174.351,242.990 179.222,240.678 187.546 C 240.091 189.660,239.795 230.834,239.791 310.805 L 239.787 430.891 237.013 430.394 C 196.293 423.101,162.978 394.247,149.804 354.864 C 144.384 338.662,144.221 336.251,144.217 272.502 C 144.213 209.983,144.308 208.504,149.141 196.059 C 159.797 168.615,190.583 149.919,232.960 145.154 C 243.906 143.924,270.963 144.116,282.872 145.509 " stroke="none" fill="black" fill-rule="evenodd"></path></svg>