<svg xmlns="http://www.w3.org/2000/svg" width="512" height="512" viewBox="0 0 512 512"><path d="M236.373 17.144 C 174.676 25.085,123.131 67.435,104.180 125.755 C 98.497 143.245,97.129 151.633,96.650 171.947 C 96.320 185.957,96.538 192.008,97.650 199.680 C 102.023 229.842,111.900 254.516,128.738 277.333 C 131.336 280.853,142.724 292.949,154.045 304.213 C 175.162 325.224,183.146 334.709,187.636 344.116 C 191.563 352.345,191.957 355.474,191.979 378.667 L 192.000 400.213 215.899 400.213 L 239.797 400.213 239.579 334.446 L 239.360 268.679 217.841 256.580 C 206.005 249.925,196.309 244.189,196.294 243.834 C 196.242 242.614,213.457 218.453,214.378 218.453 C 214.884 218.453,224.467 223.290,235.673 229.201 L 256.049 239.949 276.661 228.788 C 287.997 222.650,297.334 217.718,297.409 217.827 C 297.484 217.937,301.637 223.485,306.639 230.157 C 311.641 236.828,315.733 242.599,315.733 242.982 C 315.733 243.364,305.941 249.411,293.973 256.418 L 272.213 269.160 272.213 334.687 L 272.213 400.213 296.046 400.213 L 319.880 400.213 320.153 376.533 L 320.427 352.853 323.921 345.600 C 329.345 334.339,336.657 325.480,358.431 303.787 C 369.501 292.757,380.941 280.534,383.853 276.623 C 400.866 253.772,410.971 228.000,414.680 197.996 C 415.982 187.455,415.782 162.305,414.318 152.591 C 409.055 117.675,393.829 87.390,369.113 62.674 C 344.089 37.649,312.542 22.071,277.622 17.493 C 267.227 16.130,245.664 15.948,236.373 17.144 M192.000 431.787 L 192.000 448.000 256.000 448.000 L 320.000 448.000 320.000 431.787 L 320.000 415.573 256.000 415.573 L 192.000 415.573 192.000 431.787 M208.213 480.000 L 208.213 495.787 256.000 495.787 L 303.787 495.787 303.787 480.000 L 303.787 464.213 256.000 464.213 L 208.213 464.213 208.213 480.000 " stroke="none" fill="black" fill-rule="evenodd"></path></svg>