<svg xmlns="http://www.w3.org/2000/svg" viewBox="0 0 512 512"><path d="M111.787 48.213 L 111.787 64.000 81.707 64.037 C 58.629 64.066,50.871 64.344,48.382 65.232 C 43.670 66.913,38.837 70.509,36.468 74.096 C 32.148 80.636,32.000 81.959,32.000 113.920 L 32.000 143.787 256.000 143.787 L 480.000 143.787 480.000 113.920 C 480.000 81.959,479.852 80.636,475.532 74.096 C 473.163 70.509,468.330 66.913,463.618 65.232 C 461.129 64.344,453.371 64.066,430.293 64.037 L 400.213 64.000 400.213 48.213 L 400.213 32.427 376.320 32.427 L 352.427 32.427 352.427 48.213 L 352.427 64.000 256.000 64.000 L 159.573 64.000 159.573 48.213 L 159.573 32.427 135.680 32.427 L 111.787 32.427 111.787 48.213 M31.766 326.613 L 32.000 461.227 34.381 466.075 C 37.078 471.568,41.213 475.576,46.890 478.203 L 50.773 480.000 256.000 480.000 L 461.227 480.000 466.075 477.619 C 471.568 474.922,475.576 470.787,478.203 465.110 L 480.000 461.227 480.234 326.613 L 480.467 192.000 256.000 192.000 L 31.533 192.000 31.766 326.613 " stroke="none" fill="black" fill-rule="evenodd"></path></svg>