<svg xmlns="http://www.w3.org/2000/svg" width="512" height="512" viewBox="0 0 512 512"><path d="M197.120 82.155 C 182.888 87.025,178.310 91.715,161.300 118.846 C 148.603 139.099,146.022 142.400,141.850 143.724 C 140.012 144.308,139.947 144.134,139.947 138.697 C 139.947 130.024,137.370 125.068,131.234 121.936 C 128.465 120.523,126.089 120.320,112.303 120.320 C 95.529 120.320,93.215 120.733,89.310 124.428 C 85.631 127.909,84.379 131.004,83.857 137.913 L 83.380 144.213 78.563 144.213 C 67.165 144.213,55.474 149.343,46.473 158.293 C 39.869 164.859,35.865 171.609,33.506 180.150 C 32.106 185.218,32.000 192.785,32.000 288.000 C 32.000 383.215,32.106 390.782,33.506 395.850 C 35.833 404.274,39.891 411.137,46.481 417.792 C 53.038 424.415,61.441 429.120,69.802 430.851 C 76.194 432.174,435.806 432.174,442.198 430.851 C 458.903 427.392,473.731 413.094,478.494 395.850 C 479.894 390.782,480.000 383.215,480.000 288.000 C 480.000 192.785,479.894 185.218,478.494 180.150 C 476.167 171.726,472.109 164.863,465.519 158.208 C 458.962 151.585,450.559 146.880,442.198 145.149 C 439.374 144.565,425.348 144.213,404.837 144.213 C 369.152 144.213,368.596 144.148,364.264 139.412 C 363.030 138.063,356.345 127.936,349.409 116.907 C 335.782 95.239,331.454 90.130,322.884 85.592 C 312.506 80.098,313.931 80.211,255.632 80.235 C 203.147 80.257,202.616 80.275,197.120 82.155 M276.410 178.292 C 307.784 185.163,334.258 207.862,345.399 237.447 C 350.483 250.946,351.808 259.408,351.310 275.200 C 350.956 286.401,350.479 290.293,348.650 296.869 C 333.708 350.598,277.497 380.522,224.967 362.713 C 201.641 354.804,181.473 337.263,170.463 315.307 C 163.236 300.894,160.427 288.784,160.427 272.040 C 160.427 237.215,177.319 207.495,207.383 189.426 C 227.701 177.215,252.918 173.147,276.410 178.292 M240.640 209.978 C 217.709 215.966,200.174 233.256,193.967 256.000 C 191.629 264.569,191.863 280.947,194.444 289.280 C 198.032 300.868,202.636 308.517,211.166 317.059 C 217.685 323.589,220.136 325.399,226.987 328.749 C 238.211 334.237,244.120 335.645,256.000 335.664 C 274.193 335.692,287.727 330.062,300.834 317.013 C 309.367 308.518,313.955 300.909,317.556 289.280 C 320.137 280.945,320.355 264.577,317.998 256.000 C 310.125 227.344,284.993 208.100,255.650 208.260 C 249.986 208.291,244.850 208.879,240.640 209.978 " stroke="none" fill="black" fill-rule="evenodd"></path></svg>