<svg xmlns="http://www.w3.org/2000/svg" width="512" height="512" viewBox="0 0 512 512"><path d="M193.280 81.000 C 185.016 83.048,182.096 86.457,163.228 116.083 C 150.120 136.666,147.201 140.725,144.358 142.323 C 142.508 143.363,140.759 144.213,140.470 144.213 C 140.182 144.213,139.947 140.019,139.947 134.892 C 139.947 126.109,139.819 125.419,137.737 122.945 L 135.528 120.320 112.508 120.320 C 97.650 120.320,88.877 120.647,87.765 121.242 C 84.876 122.788,83.627 127.268,83.627 136.079 L 83.627 144.213 67.123 144.213 L 50.619 144.213 45.344 146.849 C 39.420 149.810,34.810 155.033,33.066 160.763 C 31.511 165.874,31.511 410.126,33.066 415.237 C 34.831 421.033,39.446 426.235,45.437 429.180 L 50.773 431.803 256.853 431.582 C 460.200 431.363,462.979 431.338,466.347 429.673 C 471.432 427.158,476.646 421.351,478.442 416.202 C 479.923 411.955,480.000 405.597,480.000 288.000 C 480.000 148.284,480.528 159.073,473.322 151.673 C 466.169 144.327,469.017 144.699,416.000 144.181 C 390.187 143.929,368.984 143.641,368.883 143.541 C 368.782 143.442,367.374 142.197,365.755 140.775 C 364.136 139.353,356.653 128.505,349.127 116.668 C 332.847 91.064,328.776 85.788,323.010 82.823 L 318.767 80.640 257.304 80.503 C 223.499 80.428,194.688 80.652,193.280 81.000 M276.410 178.292 C 313.949 186.513,342.016 215.162,350.032 253.440 C 352.505 265.247,351.870 285.443,348.668 296.869 C 336.829 339.105,299.350 367.787,256.000 367.787 C 219.720 367.787,186.617 347.430,170.359 315.121 C 163.360 301.212,160.360 288.166,160.396 271.787 C 160.435 253.769,164.842 237.439,173.527 223.124 C 189.278 197.165,214.750 180.484,244.480 176.661 C 252.699 175.604,267.616 176.366,276.410 178.292 M240.640 209.978 C 217.709 215.966,200.174 233.256,193.967 256.000 C 191.629 264.569,191.863 280.947,194.444 289.280 C 198.032 300.868,202.636 308.517,211.166 317.059 C 217.685 323.589,220.136 325.399,226.987 328.749 C 238.211 334.237,244.120 335.645,256.000 335.664 C 274.193 335.692,287.727 330.062,300.834 317.013 C 309.367 308.518,313.955 300.909,317.556 289.280 C 320.137 280.945,320.355 264.577,317.998 256.000 C 310.125 227.344,284.993 208.100,255.650 208.260 C 249.986 208.291,244.850 208.879,240.640 209.978 " stroke="none" fill="black" fill-rule="evenodd"></path></svg>