<svg xmlns="http://www.w3.org/2000/svg" width="512" height="512" viewBox="0 0 512 512"><path d="M89.504 81.498 C 62.658 86.847,40.922 107.956,33.896 135.501 L 32.000 142.933 32.000 256.000 L 32.000 369.067 33.896 376.499 C 41.001 404.352,62.157 424.773,89.777 430.438 C 95.636 431.639,113.809 431.787,256.000 431.787 C 428.791 431.787,420.787 431.987,433.415 427.350 C 441.683 424.313,451.418 418.018,458.225 411.307 C 468.522 401.154,475.023 389.421,478.455 374.796 C 479.905 368.618,480.000 361.283,480.000 255.573 L 480.000 142.933 478.127 135.597 C 477.097 131.563,475.300 126.103,474.133 123.465 C 464.572 101.846,444.588 85.825,421.685 81.418 C 412.717 79.693,98.184 79.768,89.504 81.498 M420.693 113.899 C 431.482 117.773,441.421 127.424,445.475 137.963 C 446.897 141.659,447.494 145.394,447.801 152.533 L 448.215 162.133 256.107 162.133 L 64.000 162.133 64.000 154.633 C 64.000 141.358,67.583 132.158,76.077 123.626 C 81.361 118.317,89.088 114.113,96.009 112.783 C 98.647 112.276,160.324 112.012,258.133 112.089 C 413.018 112.211,416.089 112.245,420.693 113.899 M447.809 295.467 L 447.573 369.067 445.568 374.037 C 441.146 384.999,431.781 393.962,420.693 397.845 L 415.147 399.787 256.000 399.787 C 102.267 399.787,96.694 399.732,92.160 398.177 C 78.590 393.522,68.769 383.176,65.308 369.890 C 64.183 365.572,64.000 354.853,64.000 293.367 L 64.000 221.867 256.023 221.867 L 448.046 221.867 447.809 295.467 M122.330 270.540 C 113.370 272.314,104.731 279.104,100.820 287.447 C 98.600 292.180,98.560 292.587,98.560 310.187 L 98.560 328.107 100.963 332.800 C 104.113 338.952,109.099 343.970,115.067 346.994 L 119.893 349.440 151.893 349.440 L 183.893 349.440 188.749 347.056 C 195.076 343.949,201.546 336.888,203.947 330.470 C 205.633 325.964,205.753 324.259,205.501 308.499 L 205.227 291.413 202.300 286.015 C 197.709 277.549,190.530 272.332,180.974 270.519 C 175.604 269.501,127.494 269.518,122.330 270.540 " stroke="none" fill="black" fill-rule="evenodd"></path></svg>