<svg xmlns="http://www.w3.org/2000/svg" width="512" height="512" viewBox="0 0 512 512"><path d="M243.627 48.295 C 200.707 51.540,163.787 65.309,129.707 90.781 C 119.276 98.577,98.579 119.277,90.713 129.782 C 68.255 159.772,54.418 193.768,49.413 231.253 C 48.019 241.696,48.019 270.304,49.413 280.747 C 59.554 356.698,107.829 420.063,177.067 448.304 C 203.509 459.089,227.771 463.751,256.853 463.634 C 290.198 463.499,318.398 456.932,347.733 442.471 C 410.837 411.362,453.091 351.864,462.587 280.747 C 463.981 270.304,463.981 241.696,462.587 231.253 C 453.091 160.136,410.837 100.638,347.733 69.529 C 327.592 59.600,306.356 53.073,283.994 49.939 C 275.010 48.680,251.306 47.715,243.627 48.295 M275.447 81.114 C 347.484 88.943,408.291 141.727,426.231 212.001 C 448.394 298.823,402.945 387.270,319.249 420.197 C 293.994 430.132,262.077 434.038,234.686 430.544 C 145.853 419.214,80.213 345.046,80.213 256.000 C 80.213 167.651,145.919 92.766,233.311 81.514 C 244.096 80.125,264.562 79.931,275.447 81.114 M248.510 181.120 C 245.901 182.554,235.399 194.591,207.002 228.693 C 186.093 253.803,168.335 275.691,167.539 277.333 C 164.060 284.514,167.060 293.730,174.210 297.823 L 177.920 299.947 256.000 299.947 L 334.080 299.947 337.790 297.823 C 344.857 293.777,347.896 284.440,344.458 277.333 C 343.664 275.691,325.907 253.803,304.998 228.693 C 264.172 179.665,263.711 179.200,256.000 179.200 C 253.457 179.200,250.731 179.899,248.510 181.120 " stroke="none" fill="black" fill-rule="evenodd"></path></svg>