<svg xmlns="http://www.w3.org/2000/svg" width="512" height="512" viewBox="0 0 512 512"><path d="M238.790 48.708 C 199.901 51.925,162.269 66.422,129.782 90.701 C 119.266 98.560,98.560 119.266,90.701 129.782 C 69.069 158.727,55.338 191.226,50.352 225.280 C 42.149 281.314,56.217 336.040,90.695 382.218 C 98.476 392.640,119.191 413.346,129.707 421.213 C 160.300 444.101,192.921 457.398,231.253 462.606 C 242.659 464.156,272.000 463.930,283.567 462.204 C 353.989 451.696,412.003 409.894,442.434 347.733 C 457.257 317.454,463.599 289.966,463.599 256.000 C 463.599 222.419,457.247 194.557,442.880 165.120 C 431.962 142.752,420.990 127.453,402.774 109.202 C 384.698 91.090,369.338 80.067,346.880 69.089 C 313.251 52.649,276.017 45.629,238.790 48.708 M263.490 181.120 C 266.099 182.554,276.601 194.591,304.998 228.693 C 325.907 253.803,343.664 275.691,344.458 277.333 C 347.896 284.440,344.857 293.777,337.790 297.823 L 334.080 299.947 256.000 299.947 L 177.920 299.947 174.210 297.823 C 167.060 293.730,164.060 284.514,167.539 277.333 C 168.335 275.691,186.093 253.803,207.002 228.693 C 247.828 179.665,248.289 179.200,256.000 179.200 C 258.543 179.200,261.269 179.899,263.490 181.120 " stroke="none" fill="black" fill-rule="evenodd"></path></svg>