<svg xmlns="http://www.w3.org/2000/svg" width="512" height="512" viewBox="0 0 512 512"><path d="M37.973 65.757 C 31.295 67.923,25.498 72.281,21.714 77.981 C 16.467 85.883,16.213 87.702,16.213 117.469 L 16.213 144.213 25.112 144.213 C 36.563 144.213,45.644 142.927,53.242 140.227 C 68.959 134.644,80.925 124.161,88.750 109.121 C 93.625 99.750,95.374 92.051,96.082 76.838 L 96.680 64.000 69.887 64.048 C 45.742 64.091,42.587 64.260,37.973 65.757 M127.733 79.147 C 127.222 94.699,126.261 100.749,122.615 111.360 C 112.343 141.250,86.793 164.767,55.703 172.949 C 48.689 174.795,44.880 175.212,31.787 175.570 L 16.213 175.995 16.213 207.891 L 16.213 239.787 25.813 239.789 C 45.572 239.794,59.211 242.764,74.667 250.427 C 85.842 255.968,93.083 261.287,101.461 270.106 C 119.711 289.319,127.982 311.454,127.995 341.120 L 128.000 352.427 256.000 352.427 L 384.000 352.427 384.003 340.693 C 384.010 316.759,388.683 300.366,400.608 282.443 C 409.561 268.987,422.572 257.587,437.429 250.181 C 451.330 243.252,462.237 240.744,481.493 240.051 L 495.787 239.537 495.787 207.766 L 495.787 175.995 480.213 175.570 C 461.216 175.051,452.491 173.075,438.187 166.050 C 411.175 152.785,392.947 129.637,386.048 99.840 C 385.320 96.693,384.549 87.741,384.267 79.147 L 383.770 64.000 256.000 64.000 L 128.230 64.000 127.733 79.147 M415.918 76.838 C 416.284 84.708,417.136 92.100,418.118 95.940 C 421.077 107.509,429.259 120.912,437.581 127.822 C 451.894 139.707,465.450 144.213,486.888 144.213 L 495.787 144.213 495.787 117.469 C 495.787 87.702,495.533 85.883,490.286 77.981 C 486.432 72.176,480.656 67.897,473.723 65.711 C 468.782 64.152,465.948 64.000,441.810 64.000 L 415.320 64.000 415.918 76.838 M276.410 114.292 C 307.784 121.163,334.258 143.862,345.399 173.447 C 350.483 186.946,351.808 195.408,351.310 211.200 C 350.956 222.401,350.479 226.293,348.650 232.869 C 333.708 286.598,277.497 316.522,224.967 298.713 C 201.641 290.804,181.473 273.263,170.463 251.307 C 163.236 236.894,160.427 224.784,160.427 208.040 C 160.427 173.215,177.319 143.495,207.383 125.426 C 227.701 113.215,252.918 109.147,276.410 114.292 M240.640 145.978 C 217.709 151.966,200.174 169.256,193.967 192.000 C 191.629 200.569,191.863 216.947,194.444 225.280 C 198.032 236.868,202.636 244.517,211.166 253.059 C 217.685 259.589,220.136 261.399,226.987 264.749 C 238.211 270.237,244.120 271.645,256.000 271.664 C 274.193 271.692,287.727 266.062,300.834 253.013 C 309.367 244.518,313.955 236.909,317.556 225.280 C 320.137 216.945,320.355 200.577,317.998 192.000 C 310.125 163.344,284.993 144.100,255.650 144.260 C 249.986 144.291,244.850 144.879,240.640 145.978 M16.383 300.061 L 16.640 328.107 18.927 332.986 C 21.935 339.403,27.840 345.602,33.660 348.452 C 40.423 351.763,48.542 352.531,73.813 352.248 L 96.000 352.000 96.266 346.880 C 96.712 338.279,94.971 323.440,92.659 316.151 C 89.554 306.360,85.079 299.264,76.789 290.987 C 68.441 282.650,62.806 279.060,52.276 275.370 C 45.337 272.938,43.770 272.723,30.463 272.382 L 16.126 272.014 16.383 300.061 M466.347 273.466 C 444.766 278.173,425.973 295.238,419.341 316.151 C 417.029 323.440,415.288 338.279,415.734 346.880 L 416.000 352.000 438.187 352.248 C 463.458 352.531,471.577 351.763,478.340 348.452 C 484.160 345.602,490.065 339.403,493.073 332.986 L 495.360 328.107 495.617 300.160 L 495.873 272.213 483.670 272.281 C 476.958 272.318,469.163 272.852,466.347 273.466 M58.586 369.031 C 47.547 372.967,44.471 386.858,52.795 395.182 C 54.520 396.908,57.459 398.743,59.326 399.262 C 64.145 400.599,447.855 400.599,452.674 399.262 C 457.214 398.001,462.084 393.006,463.347 388.313 C 465.649 379.768,460.778 370.990,452.454 368.678 C 450.312 368.083,386.300 367.807,255.573 367.829 C 93.726 367.856,61.327 368.054,58.586 369.031 M88.284 418.016 C 84.491 420.329,81.216 424.579,80.569 428.026 C 79.136 435.663,82.570 443.097,88.960 446.190 L 92.699 448.000 256.000 448.000 L 419.301 448.000 423.040 446.190 C 428.724 443.438,431.360 438.874,431.360 431.783 C 431.360 426.850,431.040 425.687,428.914 422.901 C 427.569 421.137,425.265 418.961,423.794 418.064 C 421.186 416.473,417.059 416.433,256.000 416.433 C 96.670 416.433,90.789 416.489,88.284 418.016 " stroke="none" fill="black" fill-rule="evenodd"></path></svg>