<svg xmlns="http://www.w3.org/2000/svg" width="512" height="512" viewBox="0 0 512 512"><path d="M227.016 33.765 C 133.277 45.796,57.200 114.014,37.229 203.947 C 30.816 232.826,30.650 267.130,36.783 296.073 C 42.048 320.922,53.772 349.247,66.931 368.915 L 71.968 376.442 60.013 428.008 C 53.438 456.369,48.441 479.573,48.909 479.573 C 49.376 479.573,75.139 473.271,106.160 465.568 L 162.560 451.562 181.333 457.841 C 227.614 473.319,266.850 476.190,308.053 467.111 C 339.776 460.121,372.777 444.226,398.507 423.543 C 431.664 396.889,458.128 357.269,470.679 315.491 C 477.495 292.799,479.924 273.519,479.350 246.660 C 478.780 220.025,475.475 201.483,467.296 179.028 C 455.651 147.061,439.417 121.774,414.794 97.254 C 379.266 61.875,334.649 40.358,283.050 33.722 C 270.569 32.117,239.673 32.140,227.016 33.765 " stroke="none" fill="black" fill-rule="evenodd"></path></svg>