<svg xmlns="http://www.w3.org/2000/svg" width="512" height="512" viewBox="0 0 512 512"><path d="M47.787 256.000 L 47.787 464.213 256.000 464.213 L 464.213 464.213 464.213 256.000 L 464.213 47.787 256.000 47.787 L 47.787 47.787 47.787 256.000 M363.307 164.660 C 369.056 169.492,373.760 173.778,373.760 174.185 C 373.760 174.844,224.394 353.354,219.752 358.243 L 217.876 360.219 180.404 318.567 C 159.795 295.659,141.695 275.533,140.180 273.844 L 137.428 270.772 148.967 260.399 C 155.314 254.694,160.804 250.027,161.166 250.027 C 161.529 250.027,174.260 263.859,189.457 280.765 C 215.608 309.857,217.165 311.423,218.517 309.992 C 219.303 309.160,240.229 284.288,265.020 254.720 C 354.754 147.694,349.870 153.348,351.442 154.680 C 352.218 155.337,357.557 159.828,363.307 164.660 " stroke="none" fill="black" fill-rule="evenodd"></path></svg>