<svg xmlns="http://www.w3.org/2000/svg" width="512" height="512" viewBox="0 0 512 512"><path d="M102.513 48.766 C 74.929 52.759,52.600 75.487,48.712 103.528 C 47.418 112.864,47.418 399.136,48.712 408.472 C 52.711 437.313,75.180 459.553,104.147 463.340 C 109.247 464.007,155.098 464.203,260.693 464.009 C 398.270 463.756,410.446 463.619,415.354 462.278 C 441.198 455.216,459.684 434.465,463.288 408.472 C 464.582 399.136,464.582 112.864,463.288 103.528 C 459.684 77.535,441.199 56.785,415.354 49.721 C 410.436 48.377,398.434 48.254,258.987 48.122 C 170.492 48.038,105.697 48.305,102.513 48.766 M413.989 83.413 C 420.668 86.701,425.911 92.057,429.090 98.837 L 431.360 103.680 431.360 256.000 L 431.360 408.320 429.133 413.013 C 425.829 419.975,420.659 425.303,414.053 428.555 L 408.356 431.360 256.018 431.360 L 103.680 431.360 98.987 429.133 C 92.025 425.829,86.697 420.659,83.445 414.053 L 80.640 408.356 80.640 256.018 L 80.640 103.680 82.860 98.948 C 86.760 90.632,93.240 84.765,101.803 81.797 C 106.021 80.335,113.686 80.269,257.298 80.450 L 408.356 80.640 413.989 83.413 M345.090 161.644 C 341.894 163.035,341.577 163.403,273.959 244.053 C 244.250 279.488,219.300 309.161,218.514 309.994 C 217.160 311.428,215.840 310.123,193.662 285.435 C 167.876 256.730,166.356 255.459,158.685 256.196 C 147.982 257.225,141.004 269.032,145.500 278.506 C 147.420 282.552,205.966 347.424,209.697 349.639 C 213.637 351.979,220.480 352.207,224.806 350.144 C 227.006 349.095,246.038 327.006,296.260 267.216 C 333.910 222.392,365.431 184.347,366.307 182.672 C 368.746 178.005,368.018 170.797,364.686 166.626 C 363.274 164.859,360.802 162.742,359.193 161.921 C 355.718 160.150,348.834 160.014,345.090 161.644 " stroke="none" fill="black" fill-rule="evenodd"></path></svg>