<svg xmlns="http://www.w3.org/2000/svg" width="512" height="512" viewBox="0 0 512 512"><path d="M243.627 48.295 C 200.707 51.540,163.787 65.309,129.707 90.781 C 119.276 98.577,98.579 119.277,90.713 129.782 C 68.255 159.772,54.418 193.768,49.413 231.253 C 48.019 241.696,48.019 270.304,49.413 280.747 C 59.554 356.698,107.829 420.063,177.067 448.304 C 203.509 459.089,227.771 463.751,256.853 463.634 C 290.198 463.499,318.398 456.932,347.733 442.471 C 410.837 411.362,453.091 351.864,462.587 280.747 C 463.981 270.304,463.981 241.696,462.587 231.253 C 453.091 160.136,410.837 100.638,347.733 69.529 C 327.592 59.600,306.356 53.073,283.994 49.939 C 275.010 48.680,251.306 47.715,243.627 48.295 M275.447 81.114 C 347.484 88.943,408.291 141.727,426.231 212.001 C 448.394 298.823,402.945 387.270,319.249 420.197 C 293.994 430.132,262.077 434.038,234.686 430.544 C 145.853 419.214,80.213 345.046,80.213 256.000 C 80.213 167.651,145.919 92.766,233.311 81.514 C 244.096 80.125,264.562 79.931,275.447 81.114 M345.090 161.644 C 341.894 163.035,341.577 163.403,273.959 244.053 C 244.250 279.488,219.300 309.161,218.514 309.994 C 217.160 311.428,215.840 310.123,193.662 285.435 C 167.876 256.730,166.356 255.459,158.685 256.196 C 147.982 257.225,141.004 269.032,145.500 278.506 C 147.420 282.552,205.966 347.424,209.697 349.639 C 213.637 351.979,220.480 352.207,224.806 350.144 C 227.006 349.095,246.038 327.006,296.260 267.216 C 333.910 222.392,365.431 184.347,366.307 182.672 C 368.746 178.005,368.018 170.797,364.686 166.626 C 363.274 164.859,360.802 162.742,359.193 161.921 C 355.718 160.150,348.834 160.014,345.090 161.644 " stroke="none" fill="black" fill-rule="evenodd"></path></svg>