<svg xmlns="http://www.w3.org/2000/svg" width="512" height="512" viewBox="0 0 512 512"><path d="M243.627 48.295 C 200.707 51.540,163.787 65.309,129.707 90.781 C 119.276 98.577,98.579 119.277,90.713 129.782 C 68.255 159.772,54.418 193.768,49.413 231.253 C 48.019 241.696,48.019 270.304,49.413 280.747 C 59.554 356.698,107.829 420.063,177.067 448.304 C 203.509 459.089,227.771 463.751,256.853 463.634 C 290.198 463.499,318.398 456.932,347.733 442.471 C 410.837 411.362,453.091 351.864,462.587 280.747 C 463.981 270.304,463.981 241.696,462.587 231.253 C 453.091 160.136,410.837 100.638,347.733 69.529 C 327.592 59.600,306.356 53.073,283.994 49.939 C 275.010 48.680,251.306 47.715,243.627 48.295 M275.447 81.114 C 347.484 88.943,408.291 141.727,426.231 212.001 C 448.394 298.823,402.945 387.270,319.249 420.197 C 293.994 430.132,262.077 434.038,234.686 430.544 C 145.853 419.214,80.213 345.046,80.213 256.000 C 80.213 167.651,145.919 92.766,233.311 81.514 C 244.096 80.125,264.562 79.931,275.447 81.114 M289.280 145.564 C 285.689 147.107,190.501 241.702,186.785 247.420 C 184.811 250.458,184.320 252.168,184.320 256.000 C 184.320 259.832,184.811 261.542,186.785 264.580 C 190.745 270.673,285.720 364.919,289.466 366.471 C 293.380 368.094,298.680 368.161,302.334 366.634 C 305.981 365.110,310.302 360.087,311.415 356.077 C 312.522 352.093,312.521 351.928,311.391 347.733 C 310.606 344.819,304.031 337.868,266.393 300.160 L 222.316 256.000 266.393 211.840 C 304.031 174.132,310.606 167.181,311.391 164.267 C 312.521 160.072,312.522 159.907,311.415 155.923 C 310.302 151.913,305.981 146.890,302.334 145.366 C 298.740 143.865,293.032 143.951,289.280 145.564 " stroke="none" fill="black" fill-rule="evenodd"></path></svg>