<svg xmlns="http://www.w3.org/2000/svg" width="512" height="512" viewBox="0 0 512 512"><path d="M243.200 48.291 C 189.307 52.936,145.591 72.806,109.198 109.198 C 75.814 142.582,55.864 183.304,49.403 231.253 C 47.996 241.696,47.996 270.304,49.403 280.747 C 55.866 328.705,75.852 369.495,109.198 402.781 C 142.761 436.282,182.341 455.687,231.253 462.621 C 235.243 463.187,246.379 463.649,256.000 463.649 C 284.931 463.649,308.731 459.018,334.933 448.289 C 361.056 437.593,386.578 420.224,405.701 400.129 C 437.387 366.832,455.931 327.939,462.621 280.747 C 463.187 276.757,463.649 265.621,463.649 256.000 C 463.649 227.171,459.011 203.251,448.395 177.325 C 432.022 137.342,403.062 103.108,365.227 79.011 C 343.385 65.100,312.181 53.926,283.992 49.922 C 275.151 48.666,250.352 47.675,243.200 48.291 M198.558 177.543 C 199.879 178.039,213.344 190.799,228.480 205.898 L 256.000 233.351 283.520 205.898 C 298.656 190.799,312.121 178.039,313.442 177.543 C 316.530 176.382,322.627 176.385,325.704 177.548 C 328.973 178.783,332.764 182.465,334.185 185.786 C 335.584 189.054,335.715 195.211,334.457 198.558 C 333.961 199.879,321.198 213.347,306.095 228.486 L 278.636 256.013 306.114 283.526 C 324.565 302.001,334.023 312.082,334.903 314.213 C 338.904 323.900,332.555 334.828,322.250 335.989 C 314.587 336.853,313.969 336.376,283.947 306.479 L 256.000 278.648 228.480 306.102 C 213.344 321.201,199.879 333.961,198.558 334.457 C 195.470 335.618,189.373 335.615,186.296 334.452 C 183.027 333.217,179.236 329.535,177.815 326.214 C 176.416 322.946,176.285 316.789,177.543 313.442 C 178.039 312.121,190.799 298.656,205.898 283.520 L 233.351 256.000 205.898 228.480 C 190.799 213.344,178.039 199.879,177.543 198.558 C 176.382 195.470,176.385 189.373,177.548 186.296 C 178.747 183.122,182.420 179.269,185.600 177.849 C 188.702 176.465,195.275 176.309,198.558 177.543 " stroke="none" fill="black" fill-rule="evenodd"></path></svg>