<svg xmlns="http://www.w3.org/2000/svg" width="512" height="512" viewBox="0 0 512 512"><path d="M238.933 80.801 C 230.897 81.647,216.301 84.923,207.091 87.947 C 164.314 101.994,130.023 134.164,111.495 177.630 C 107.212 187.679,102.359 202.624,100.179 212.480 C 98.332 220.830,94.308 225.246,86.592 227.392 C 56.008 235.894,35.857 247.893,20.817 266.559 C 14.147 274.838,6.079 290.825,3.538 300.800 C -4.074 330.683,1.093 363.892,17.000 387.315 C 31.781 409.082,56.737 423.876,88.747 429.848 C 96.309 431.258,106.848 431.360,245.760 431.360 L 394.667 431.360 404.338 429.401 C 471.161 415.862,514.398 363.220,511.715 298.667 C 509.248 239.326,472.167 196.124,410.222 180.421 C 396.601 176.969,396.580 176.951,389.667 163.580 C 365.807 117.429,326.118 88.452,277.258 81.507 C 269.200 80.362,246.989 79.953,238.933 80.801 " stroke="none" fill="black" fill-rule="evenodd"></path></svg>