<svg xmlns="http://www.w3.org/2000/svg" width="512" height="512" viewBox="0 0 512 512"><path d="M57.600 49.849 C 54.420 51.269,50.747 55.122,49.548 58.296 C 48.248 61.735,48.428 67.989,49.917 71.124 C 50.619 72.603,138.651 161.242,245.543 268.100 C 424.123 446.621,440.199 462.466,443.656 463.369 C 455.664 466.507,466.509 455.662,463.368 443.656 C 462.463 440.199,446.579 424.084,268.099 245.543 C 161.243 138.650,72.605 50.618,71.125 49.916 C 67.819 48.348,61.040 48.314,57.600 49.849 M235.645 65.375 C 214.731 68.215,196.839 74.517,178.592 85.469 C 170.357 90.412,168.107 92.926,168.107 97.179 C 168.107 100.139,173.971 106.125,315.949 248.104 C 458.301 390.456,463.907 395.947,466.896 395.947 C 470.996 395.947,477.786 390.944,486.827 381.263 C 500.457 366.667,508.603 348.256,511.109 326.380 C 514.195 299.440,508.719 275.668,494.765 255.427 C 486.646 243.649,469.769 229.322,455.738 222.295 C 448.632 218.737,437.261 214.528,429.227 212.483 C 420.784 210.334,417.163 208.336,414.841 204.544 C 413.921 203.042,411.833 196.629,410.200 190.293 C 392.076 119.965,339.839 72.266,272.887 64.910 C 261.907 63.704,246.540 63.896,235.645 65.375 M85.333 169.395 C 40.138 185.620,10.787 218.973,1.985 264.107 C -0.323 275.942,-0.075 301.268,2.465 313.173 C 7.948 338.868,18.380 358.162,36.628 376.357 C 55.708 395.382,79.259 407.759,106.351 413.000 C 122.311 416.088,139.339 416.510,237.378 416.249 C 330.365 416.002,330.984 415.989,333.324 414.241 C 336.386 411.955,337.537 408.528,336.270 405.470 C 335.738 404.185,282.032 349.869,216.924 284.767 C 111.535 179.388,98.265 166.405,95.993 166.443 C 94.589 166.466,89.792 167.795,85.333 169.395 " stroke="none" fill="black" fill-rule="evenodd"></path></svg>