<svg xmlns="http://www.w3.org/2000/svg" width="512" height="512" viewBox="0 0 512 512"><path d="M234.240 33.356 C 195.379 38.633,160.477 58.737,136.646 89.573 C 129.705 98.554,123.185 109.171,119.058 118.215 L 116.319 124.216 104.818 126.493 C 83.031 130.806,63.417 138.513,47.423 149.044 C 36.245 156.405,21.838 170.873,15.547 181.055 C 4.319 199.228,-0.904 220.665,0.302 243.627 C 3.349 301.658,47.240 342.611,115.200 350.834 C 121.064 351.543,136.543 351.932,160.000 351.959 C 195.465 352.000,195.877 351.980,199.395 350.099 C 211.113 343.834,210.549 327.107,198.435 321.604 C 195.279 320.170,192.127 320.035,161.280 320.012 C 119.354 319.980,109.038 318.952,91.038 313.012 C 64.210 304.160,44.761 286.874,36.739 264.756 C 33.048 254.579,32.142 247.703,32.654 233.740 C 33.272 216.851,36.471 206.595,44.705 195.092 C 59.571 174.324,87.173 160.560,123.415 155.842 C 128.637 155.162,134.063 154.009,135.473 153.280 C 139.183 151.362,142.142 147.473,143.814 142.320 C 146.045 135.443,152.144 123.182,156.880 116.053 C 174.346 89.764,200.552 72.445,232.641 65.983 C 244.182 63.659,269.554 63.907,281.600 66.462 C 330.363 76.802,365.737 110.915,379.271 160.650 C 380.450 164.986,382.175 173.485,383.102 179.536 C 385.779 196.997,388.420 199.585,405.333 201.320 C 432.500 204.106,452.401 211.800,465.103 224.427 C 475.819 235.080,479.573 244.541,479.573 260.893 C 479.573 278.010,475.739 288.016,465.084 298.704 C 457.845 305.966,451.062 309.920,438.986 313.917 C 423.205 319.140,419.942 319.406,365.227 319.940 C 310.127 320.477,312.601 320.217,307.751 325.981 C 301.322 333.622,303.677 345.326,312.605 350.099 L 316.160 352.000 363.520 351.935 C 415.683 351.863,422.450 351.391,441.433 346.496 C 461.589 341.299,475.552 333.592,488.533 320.500 C 501.446 307.476,507.930 294.456,510.720 275.947 C 517.711 229.565,493.939 193.170,446.226 177.207 C 438.727 174.698,433.135 173.401,415.900 170.176 C 414.432 169.901,413.901 168.837,413.065 164.492 C 408.973 143.231,398.789 118.541,386.750 100.693 C 363.900 66.819,329.792 44.022,288.913 35.299 C 279.944 33.386,276.132 33.066,259.413 32.824 C 248.853 32.670,237.525 32.910,234.240 33.356 M249.584 209.403 C 246.074 210.932,241.776 216.016,240.691 219.923 C 240.090 222.089,239.795 256.336,239.791 324.260 L 239.787 425.373 220.373 405.998 C 200.625 386.288,197.626 383.980,191.814 384.019 C 185.347 384.062,178.438 389.421,176.678 395.760 C 175.572 399.741,175.577 400.687,176.725 404.907 C 177.509 407.788,182.924 413.613,211.493 442.306 C 230.105 460.998,246.758 477.030,248.499 477.932 C 250.406 478.921,253.389 479.573,256.000 479.573 C 258.611 479.573,261.594 478.921,263.501 477.932 C 265.242 477.030,281.895 460.998,300.507 442.306 C 329.076 413.613,334.491 407.788,335.275 404.907 C 336.423 400.687,336.428 399.741,335.322 395.760 C 333.562 389.421,326.653 384.062,320.186 384.019 C 314.374 383.980,311.375 386.288,291.627 405.998 L 272.213 425.373 272.209 324.260 C 272.205 256.336,271.910 222.089,271.309 219.923 C 270.195 215.913,265.875 210.890,262.227 209.366 C 258.764 207.919,252.951 207.936,249.584 209.403 " stroke="none" fill="black" fill-rule="evenodd"></path></svg>