<svg xmlns="http://www.w3.org/2000/svg" width="512" height="512" viewBox="0 0 512 512"><path d="M234.667 33.294 C 186.973 39.793,146.431 67.743,123.287 110.080 C 115.781 123.810,115.266 124.213,101.547 127.119 C 50.375 137.958,14.779 167.504,3.895 208.176 C -4.318 238.866,1.046 272.948,18.029 297.971 C 34.466 322.190,63.182 340.509,96.000 347.713 C 113.348 351.520,117.560 351.745,179.840 352.187 L 239.787 352.611 239.787 388.975 L 239.787 425.339 219.947 405.596 C 202.683 388.417,199.619 385.724,196.349 384.858 C 189.613 383.075,181.557 386.303,178.625 391.961 C 176.437 396.182,175.907 399.800,176.828 404.236 C 177.637 408.136,179.199 409.851,211.504 442.306 C 230.110 460.998,246.758 477.030,248.499 477.932 C 250.406 478.921,253.389 479.573,256.000 479.573 C 258.611 479.573,261.594 478.921,263.501 477.932 C 265.242 477.030,281.890 460.998,300.496 442.306 C 332.801 409.851,334.363 408.136,335.172 404.236 C 336.093 399.800,335.563 396.182,333.375 391.961 C 330.443 386.303,322.387 383.075,315.651 384.858 C 312.381 385.724,309.317 388.417,292.053 405.596 L 272.213 425.339 272.213 388.968 L 272.213 352.598 342.400 352.188 C 400.675 351.848,414.176 351.546,421.950 350.413 C 438.926 347.938,454.164 343.443,466.184 337.364 C 482.121 329.303,497.406 313.844,503.855 299.261 C 515.095 273.846,514.588 243.730,502.539 221.164 C 489.865 197.425,466.569 181.599,431.851 173.143 C 422.711 170.917,419.815 169.843,417.525 167.833 C 413.752 164.520,413.505 163.990,410.000 151.722 C 404.354 131.956,398.054 117.860,388.033 102.570 C 365.188 67.717,330.401 44.112,288.913 35.312 C 279.997 33.421,276.035 33.088,259.413 32.833 C 248.853 32.671,237.717 32.878,234.667 33.294 M262.227 209.366 C 265.875 210.890,270.195 215.913,271.309 219.923 C 271.897 222.041,272.205 245.313,272.209 287.787 L 272.213 352.427 256.000 352.427 L 239.787 352.427 239.791 287.787 C 239.795 245.313,240.103 222.041,240.691 219.923 C 241.776 216.016,246.074 210.932,249.584 209.403 C 252.951 207.936,258.764 207.919,262.227 209.366 " stroke="none" fill="black" fill-rule="evenodd"></path></svg>