<svg xmlns="http://www.w3.org/2000/svg" width="512" height="512" viewBox="0 0 512 512"><path d="M153.533 123.995 C 151.853 124.624,149.592 125.760,148.508 126.519 C 147.424 127.278,117.085 153.665,81.088 185.155 C 34.539 225.876,15.044 243.448,13.579 246.005 C 10.629 251.155,10.629 260.845,13.579 265.995 C 16.033 270.279,144.481 383.200,150.596 386.449 C 155.690 389.155,160.931 389.657,166.118 387.934 C 180.940 383.011,185.721 364.875,175.110 353.826 C 173.370 352.014,147.851 329.439,118.400 303.659 C 88.949 277.880,64.853 256.434,64.853 256.003 C 64.853 255.572,89.333 233.808,119.253 207.639 C 149.173 181.470,174.698 158.916,175.975 157.520 C 177.253 156.123,178.885 153.257,179.602 151.151 C 183.169 140.683,178.781 130.092,168.719 124.889 C 165.167 123.052,157.289 122.588,153.533 123.995 M345.282 124.081 C 340.204 125.971,336.028 129.753,333.372 134.869 C 331.265 138.925,331.004 140.230,331.323 145.073 C 331.755 151.620,333.156 154.655,337.851 159.206 C 339.754 161.050,365.292 183.488,394.601 209.067 C 423.910 234.645,447.890 255.765,447.890 256.000 C 447.890 256.235,425.208 276.203,397.485 300.373 C 334.914 354.928,334.185 355.605,332.447 360.705 C 330.527 366.338,330.754 371.715,333.125 376.807 C 338.152 387.604,352.040 392.227,361.870 386.375 C 363.670 385.304,394.634 358.648,430.678 327.141 C 478.753 285.117,496.782 268.861,498.347 266.127 C 501.402 260.788,501.410 251.224,498.362 245.901 C 496.819 243.206,478.453 226.639,430.721 184.888 C 394.684 153.366,363.674 126.675,361.811 125.574 C 357.541 123.053,349.899 122.362,345.282 124.081 " stroke="none" fill="black" fill-rule="evenodd"></path></svg>