<svg xmlns="http://www.w3.org/2000/svg" width="512" height="512" viewBox="0 0 512 512"><path d="M196.267 48.355 C 176.336 50.322,156.071 57.433,133.247 70.468 C 108.767 84.449,88.018 101.982,71.724 122.453 C 64.806 131.144,63.086 135.068,62.510 143.469 C 62.257 147.164,61.959 150.187,61.849 150.187 C 61.739 150.187,60.270 149.611,58.585 148.907 C 54.334 147.130,48.145 147.301,44.003 149.308 C 41.852 150.349,32.829 158.718,20.267 171.322 C 1.686 189.963,-0.001 191.900,-0.010 194.601 C -0.020 197.353,2.180 199.717,33.483 230.580 C 64.380 261.042,67.216 263.616,69.933 263.646 C 72.651 263.677,74.456 262.114,93.286 243.413 C 104.511 232.267,114.801 221.439,116.154 219.353 C 120.396 212.809,119.207 207.169,111.961 199.461 C 108.902 196.207,110.346 194.975,117.163 195.026 C 125.575 195.088,129.783 197.669,145.925 212.666 C 153.645 219.838,163.362 228.971,167.518 232.960 L 175.074 240.213 173.729 242.773 C 170.948 248.066,172.082 251.969,178.410 258.894 L 182.903 263.809 215.599 231.121 L 248.295 198.433 244.254 194.296 C 242.032 192.021,239.176 189.614,237.909 188.946 C 234.800 187.310,229.528 187.415,227.031 189.163 C 225.022 190.571,224.930 190.526,221.262 186.390 C 206.225 169.432,199.475 160.414,195.548 152.037 C 193.650 147.990,193.280 146.016,193.280 139.947 C 193.280 133.546,193.603 132.011,196.029 126.889 C 199.559 119.436,207.165 111.680,213.838 108.729 C 229.023 102.014,249.301 101.539,263.370 107.570 L 266.949 109.104 271.875 101.272 C 274.584 96.964,277.312 92.631,277.938 91.643 C 278.957 90.033,278.715 89.308,275.599 84.641 C 270.714 77.326,260.889 67.046,254.885 62.969 C 238.550 51.876,216.440 46.364,196.267 48.355 M372.907 48.352 C 349.677 50.624,332.584 56.266,316.696 66.904 C 289.800 84.913,272.815 116.107,270.654 151.467 C 269.500 170.334,271.818 189.150,277.268 205.174 L 279.749 212.470 189.292 302.288 C 139.540 351.688,98.293 393.144,97.631 394.411 C 96.968 395.678,96.427 398.545,96.427 400.781 L 96.427 404.848 124.800 433.340 C 141.563 450.174,154.352 462.343,156.055 463.080 C 157.918 463.886,160.180 464.141,162.455 463.802 C 165.781 463.305,170.964 458.275,257.395 371.644 L 348.817 280.011 356.692 282.543 C 369.563 286.682,382.507 288.586,398.080 288.631 C 419.091 288.692,435.367 285.287,452.047 277.341 C 483.689 262.268,502.751 236.867,510.007 200.107 C 511.890 190.564,512.126 164.161,510.415 154.453 C 507.880 140.076,502.814 123.033,498.691 115.018 L 497.062 111.850 456.459 151.858 L 415.856 191.867 391.822 167.822 L 367.789 143.778 407.894 103.679 C 429.952 81.625,448.000 63.348,448.000 63.065 C 448.000 62.397,439.057 58.626,431.077 55.929 C 413.643 50.036,388.788 46.798,372.907 48.352 M329.559 344.674 C 310.222 364.346,294.400 380.687,294.400 380.987 C 294.400 381.286,311.156 399.271,331.636 420.952 C 356.263 447.023,370.112 461.051,372.532 462.375 C 379.206 466.027,378.433 466.606,413.743 431.489 C 431.650 413.679,446.140 398.583,446.809 397.041 C 448.390 393.396,448.311 390.940,446.507 387.652 C 445.153 385.185,366.418 308.907,365.225 308.907 C 364.946 308.907,348.897 325.002,329.559 344.674 " stroke="none" fill="black" fill-rule="evenodd"></path></svg>