<svg xmlns="http://www.w3.org/2000/svg" width="512" height="512" viewBox="0 0 512 512"><path d="M74.567 64.925 C 70.311 66.159,65.098 72.454,64.383 77.221 C 63.079 85.916,61.054 83.522,117.606 140.160 L 169.368 192.000 131.033 192.000 C 93.713 192.000,92.600 192.048,88.960 193.810 C 83.255 196.572,80.640 201.121,80.640 208.285 C 80.640 213.411,80.921 214.381,83.255 217.307 C 84.693 219.111,87.381 221.355,89.228 222.293 C 92.490 223.951,94.275 224.000,151.467 224.000 C 183.851 224.000,211.396 223.706,212.678 223.348 C 215.657 222.514,220.680 218.114,222.550 214.700 C 223.875 212.281,224.000 206.917,224.000 152.320 C 224.000 94.275,223.952 92.492,222.293 89.228 C 221.355 87.381,219.111 84.693,217.307 83.255 C 214.381 80.921,213.411 80.640,208.285 80.640 C 201.121 80.640,196.572 83.255,193.810 88.960 C 192.048 92.600,192.000 93.713,192.000 131.040 L 192.000 169.381 140.587 118.000 C 104.831 82.267,88.207 66.221,86.001 65.310 C 82.513 63.870,78.653 63.740,74.567 64.925 M425.813 65.345 C 423.904 66.162,404.277 85.161,371.413 118.002 L 320.000 169.381 320.000 131.040 C 320.000 93.713,319.952 92.600,318.190 88.960 C 315.428 83.255,310.879 80.640,303.715 80.640 C 298.589 80.640,297.619 80.921,294.693 83.255 C 292.889 84.693,290.645 87.381,289.707 89.228 C 288.048 92.492,288.000 94.275,288.000 152.320 C 288.000 206.917,288.125 212.281,289.450 214.700 C 291.320 218.114,296.343 222.514,299.322 223.348 C 300.604 223.706,328.149 224.000,360.533 224.000 C 417.725 224.000,419.510 223.951,422.772 222.293 C 424.619 221.355,427.307 219.111,428.745 217.307 C 431.079 214.381,431.360 213.411,431.360 208.285 C 431.360 201.121,428.745 196.572,423.040 193.810 C 419.400 192.048,418.287 192.000,380.967 192.000 L 342.632 192.000 394.394 140.160 C 450.946 83.522,448.921 85.916,447.617 77.221 C 447.163 74.195,446.167 72.285,443.571 69.470 C 438.663 64.145,432.152 62.632,425.813 65.345 M88.807 289.921 C 87.198 290.742,84.702 292.889,83.261 294.693 C 80.920 297.622,80.640 298.585,80.640 303.715 C 80.640 310.879,83.255 315.428,88.960 318.190 C 92.600 319.952,93.713 320.000,131.033 320.000 L 169.368 320.000 117.606 371.840 C 60.957 428.576,63.076 426.064,64.400 434.893 C 64.905 438.262,65.752 439.756,68.998 443.002 C 72.244 446.248,73.738 447.095,77.107 447.600 C 85.936 448.924,83.424 451.043,140.160 394.394 L 192.000 342.632 192.000 380.967 C 192.000 418.287,192.048 419.400,193.810 423.040 C 196.572 428.745,201.121 431.360,208.285 431.360 C 213.411 431.360,214.381 431.079,217.307 428.745 C 219.111 427.307,221.355 424.619,222.293 422.772 C 223.951 419.510,224.000 417.725,224.000 360.533 C 224.000 328.149,223.706 300.604,223.348 299.322 C 222.526 296.388,218.094 291.286,214.956 289.663 C 212.934 288.618,203.238 288.427,152.149 288.428 C 96.317 288.429,91.511 288.543,88.807 289.921 M296.497 290.016 C 293.158 292.052,289.457 296.460,288.640 299.372 C 288.288 300.627,288.000 328.149,288.000 360.533 C 288.000 417.725,288.049 419.510,289.707 422.772 C 290.645 424.619,292.889 427.307,294.693 428.745 C 297.619 431.079,298.589 431.360,303.715 431.360 C 310.879 431.360,315.428 428.745,318.190 423.040 C 319.952 419.400,320.000 418.287,320.000 380.967 L 320.000 342.632 371.840 394.394 C 428.576 451.043,426.064 448.924,434.893 447.600 C 438.262 447.095,439.756 446.248,443.002 443.002 C 446.248 439.756,447.095 438.262,447.600 434.893 C 448.924 426.064,451.043 428.576,394.394 371.840 L 342.632 320.000 380.967 320.000 C 418.287 320.000,419.400 319.952,423.040 318.190 C 428.745 315.428,431.360 310.879,431.360 303.715 C 431.360 298.585,431.080 297.622,428.739 294.693 C 423.433 288.053,427.580 288.429,359.680 288.431 C 302.170 288.433,298.961 288.513,296.497 290.016 " stroke="none" fill="black" fill-rule="evenodd"></path></svg>