<svg xmlns="http://www.w3.org/2000/svg" width="512" height="512" viewBox="0 0 512 512"><path d="M68.467 68.492 C 62.725 74.248,58.027 79.335,58.027 79.797 C 58.027 80.258,83.082 105.692,113.704 136.318 L 169.382 192.000 124.798 192.000 L 80.213 192.000 80.213 208.218 L 80.213 224.436 152.107 224.218 L 224.000 224.000 224.218 152.107 L 224.436 80.213 208.218 80.213 L 192.000 80.213 192.000 124.798 L 192.000 169.382 136.318 113.704 C 105.692 83.082,80.246 58.027,79.771 58.027 C 79.296 58.027,74.209 62.736,68.467 68.492 M375.679 113.706 L 320.000 169.385 320.000 124.799 L 320.000 80.213 303.782 80.213 L 287.564 80.213 287.782 152.107 L 288.000 224.000 359.893 224.218 L 431.787 224.436 431.787 208.218 L 431.787 192.000 387.202 192.000 L 342.618 192.000 398.296 136.318 C 428.918 105.692,453.973 80.246,453.973 79.771 C 453.973 78.659,433.315 58.027,432.200 58.027 C 431.737 58.027,406.303 83.082,375.679 113.706 M80.213 303.782 L 80.213 320.000 124.798 320.000 L 169.382 320.000 113.704 375.682 C 83.082 406.308,58.027 431.754,58.027 432.229 C 58.027 433.339,78.684 453.973,79.797 453.973 C 80.258 453.973,105.692 428.918,136.318 398.296 L 192.000 342.618 192.000 387.202 L 192.000 431.787 208.218 431.787 L 224.436 431.787 224.218 359.893 L 224.000 288.000 152.107 287.782 L 80.213 287.564 80.213 303.782 M288.142 288.142 C 287.829 288.455,287.573 320.903,287.573 360.249 L 287.573 431.787 303.787 431.787 L 320.000 431.787 320.000 387.202 L 320.000 342.618 375.682 398.296 C 406.308 428.918,431.754 453.973,432.229 453.973 C 433.339 453.973,453.973 433.316,453.973 432.203 C 453.973 431.742,428.918 406.308,398.296 375.682 L 342.618 320.000 387.202 320.000 L 431.787 320.000 431.787 303.787 L 431.787 287.573 360.249 287.573 C 320.903 287.573,288.455 287.829,288.142 288.142 " stroke="none" fill="black" fill-rule="evenodd"></path></svg>