<svg xmlns="http://www.w3.org/2000/svg" width="512" height="512" viewBox="0 0 512 512"><path d="M86.613 34.221 C 61.003 40.488,40.640 61.076,33.948 87.467 L 32.000 95.147 32.002 216.320 L 32.003 337.493 34.262 345.667 C 40.240 367.301,53.646 383.442,73.563 392.987 L 79.787 395.970 80.225 270.732 L 80.663 145.493 82.614 139.093 C 91.188 110.962,110.823 91.348,139.151 82.618 L 145.493 80.663 270.732 80.225 L 395.970 79.787 392.987 73.563 C 383.405 53.568,366.776 39.802,345.770 34.474 L 337.701 32.427 215.571 32.488 C 97.328 32.548,93.223 32.603,86.613 34.221 M173.653 112.725 C 141.988 117.401,116.765 143.122,112.648 174.933 C 111.992 180.002,111.796 217.920,111.996 300.800 C 112.280 418.091,112.303 419.480,114.061 425.387 C 118.630 440.737,124.333 450.392,134.501 459.992 C 147.547 472.309,160.902 478.078,180.009 479.650 C 186.934 480.221,230.838 480.424,304.213 480.226 L 417.707 479.919 424.960 478.017 C 451.139 471.154,471.154 451.139,478.017 424.960 L 479.919 417.707 480.226 304.213 C 480.547 185.275,480.289 174.226,476.940 163.369 C 473.153 151.095,466.447 140.458,456.699 131.262 C 447.889 122.950,439.183 118.168,425.387 114.061 C 419.468 112.299,418.318 112.281,299.093 112.126 C 232.680 112.040,176.479 112.308,173.653 112.725 " stroke="none" fill="black" fill-rule="evenodd"></path></svg>