<svg xmlns="http://www.w3.org/2000/svg" width="512" height="512" viewBox="0 0 512 512"><path d="M229.973 33.420 C 181.245 38.921,133.069 62.379,97.555 97.898 C 71.320 124.136,51.231 157.965,41.018 193.099 C 37.824 204.089,34.493 220.688,33.327 231.433 C 32.168 242.102,32.168 269.898,33.327 280.567 C 37.063 314.976,49.811 350.123,69.002 378.924 C 78.836 393.682,85.770 402.225,97.384 413.895 C 131.050 447.722,174.939 470.027,222.720 477.593 C 236.691 479.805,275.239 479.817,289.140 477.613 C 387.119 462.080,462.080 387.119,477.613 289.140 C 479.805 275.314,479.805 236.686,477.613 222.860 C 462.665 128.572,392.295 54.878,299.520 36.356 C 293.653 35.185,285.124 33.821,280.567 33.327 C 270.782 32.264,239.708 32.322,229.973 33.420 M274.412 64.907 C 340.766 71.364,398.969 111.809,428.446 171.947 C 474.991 266.905,435.360 381.897,340.053 428.422 C 244.764 474.938,130.349 435.520,83.554 340.053 C 37.052 245.182,76.641 130.143,171.809 83.608 C 203.633 68.046,239.497 61.509,274.412 64.907 M238.080 145.422 C 226.131 147.547,217.517 150.390,206.666 155.791 C 189.317 164.425,175.379 176.202,164.663 191.280 C 159.037 199.198,150.809 216.074,148.504 224.427 C 142.805 245.071,142.805 266.929,148.504 287.573 C 150.809 295.926,159.037 312.802,164.663 320.720 C 180.898 343.565,205.777 359.741,234.076 365.851 C 243.873 367.966,268.127 367.966,277.924 365.851 C 312.067 358.479,339.907 337.388,355.341 307.200 C 364.631 289.029,368.227 272.757,367.502 252.160 C 366.845 233.466,363.667 221.090,355.340 204.800 C 340.090 174.964,312.318 153.688,279.040 146.346 C 270.373 144.433,246.647 143.898,238.080 145.422 M272.942 177.886 C 297.483 183.079,319.597 201.285,329.429 224.391 C 337.867 244.220,337.867 267.780,329.429 287.609 C 321.743 305.673,305.673 321.743,287.609 329.429 C 267.780 337.867,244.220 337.867,224.391 329.429 C 205.686 321.470,189.423 304.780,181.820 285.742 C 177.766 275.591,176.382 268.023,176.382 256.000 C 176.382 233.569,183.880 215.400,199.640 199.640 C 212.961 186.319,227.183 179.444,247.893 176.314 C 252.400 175.632,266.465 176.515,272.942 177.886 M244.649 226.059 C 236.304 229.418,229.183 236.674,225.993 245.068 C 223.442 251.784,223.988 263.199,227.172 269.682 C 230.133 275.710,236.290 281.867,242.318 284.828 C 246.545 286.904,247.979 287.147,256.000 287.147 C 264.021 287.147,265.455 286.904,269.682 284.828 C 275.710 281.867,281.867 275.710,284.828 269.682 C 286.904 265.455,287.147 264.021,287.147 256.000 C 287.147 247.979,286.904 246.545,284.828 242.318 C 281.869 236.294,275.706 230.128,269.710 227.195 C 263.366 224.091,250.938 223.528,244.649 226.059 " stroke="none" fill="black" fill-rule="evenodd"></path></svg>