<svg id="icons" xmlns="http://www.w3.org/2000/svg" viewBox="0 0 512 512"><path d="M128.096 34.172 C 105.316 40.137,88.414 57.115,81.833 80.640 C 80.049 87.020,80.049 424.980,81.833 431.360 C 85.327 443.851,91.645 454.386,100.610 462.670 C 111.595 472.821,123.542 478.080,139.042 479.589 C 149.728 480.629,362.272 480.629,372.958 479.589 C 388.519 478.074,400.711 472.701,411.485 462.609 C 421.395 453.325,427.733 442.097,430.428 429.048 C 431.627 423.245,431.787 410.291,431.787 318.892 C 431.787 217.793,431.745 215.152,430.064 208.579 C 429.117 204.875,427.110 199.726,425.604 197.136 C 423.615 193.715,402.201 171.740,347.326 116.809 C 266.576 35.974,268.282 37.524,256.224 34.075 C 250.772 32.516,247.302 32.429,192.429 32.474 C 137.879 32.518,134.022 32.620,128.096 34.172 M239.986 124.373 C 240.289 191.146,240.054 188.211,245.946 198.827 C 251.637 209.081,261.292 217.417,271.699 221.061 C 280.177 224.030,288.594 224.413,345.404 224.420 L 400.248 224.427 400.017 323.627 L 399.787 422.827 397.806 427.730 C 395.042 434.576,388.634 441.319,381.604 444.779 L 375.929 447.573 256.000 447.573 L 136.071 447.573 130.396 444.779 C 123.366 441.319,116.958 434.576,114.194 427.730 L 112.213 422.827 112.213 256.000 L 112.213 89.173 114.179 84.308 C 117.745 75.483,126.566 67.608,135.620 65.167 C 138.489 64.393,152.759 64.100,189.616 64.058 L 239.712 64.000 239.986 124.373 M330.954 191.794 C 285.307 192.012,284.683 191.992,280.975 190.197 C 278.708 189.100,276.313 187.009,274.930 184.920 L 272.640 181.459 272.412 134.036 L 272.183 86.613 324.681 139.093 L 377.179 191.573 330.954 191.794 M249.600 240.330 C 229.628 243.385,212.923 258.246,209.156 276.309 C 208.638 278.796,208.213 285.955,208.213 292.217 L 208.213 303.604 203.224 304.483 C 189.525 306.896,179.150 317.006,176.606 330.420 C 175.444 336.546,175.557 384.539,176.746 390.145 C 179.704 404.087,190.322 413.788,204.647 415.636 C 212.069 416.593,299.931 416.593,307.353 415.636 C 321.678 413.788,332.296 404.087,335.254 390.145 C 336.443 384.539,336.556 336.546,335.394 330.420 C 334.156 323.891,331.202 318.336,326.433 313.567 C 321.481 308.615,315.883 305.735,308.776 304.483 L 303.787 303.604 303.787 292.217 C 303.787 285.955,303.364 278.796,302.847 276.309 C 299.628 260.825,286.189 246.908,269.745 242.026 C 264.905 240.589,253.941 239.666,249.600 240.330 M263.501 273.837 C 270.695 277.526,272.213 281.147,272.213 294.608 L 272.213 303.787 256.000 303.787 L 239.787 303.787 239.787 293.946 C 239.787 280.980,241.296 277.559,248.747 273.631 C 252.331 271.742,259.613 271.843,263.501 273.837 " stroke="none" fill="black" fill-rule="evenodd"></path></svg>