<svg xmlns="http://www.w3.org/2000/svg" width="512" height="512" viewBox="0 0 512 512"><path d="M128.096 34.172 C 106.899 39.723,90.513 55.070,83.036 76.373 L 80.640 83.200 80.640 256.000 L 80.640 428.800 83.036 435.627 C 86.605 445.795,91.520 453.510,99.346 461.227 C 111.148 472.863,122.747 478.079,140.364 479.670 C 146.240 480.200,192.280 480.402,263.253 480.210 C 369.528 479.921,377.127 479.803,382.720 478.353 C 404.583 472.686,421.416 457.133,428.964 435.627 L 431.360 428.800 431.594 327.792 C 431.762 255.225,431.563 226.465,430.888 225.652 C 430.124 224.732,415.950 224.461,355.134 224.206 C 289.919 223.933,279.773 223.719,276.053 222.544 C 261.875 218.065,252.592 210.751,245.954 198.827 C 239.948 188.039,240.273 192.894,239.985 109.703 C 239.803 57.325,239.445 34.323,238.798 33.543 C 238.052 32.645,227.763 32.436,186.136 32.474 C 137.810 32.518,133.984 32.629,128.096 34.172 M272.213 111.944 C 272.213 179.057,272.226 179.540,274.023 183.254 C 275.114 185.506,277.210 187.904,279.294 189.283 L 282.755 191.573 350.892 191.802 C 413.033 192.010,419.075 191.908,419.559 190.648 C 419.949 189.633,400.876 170.052,347.647 116.820 C 306.749 75.920,274.553 44.373,273.709 44.373 C 272.296 44.373,272.213 48.127,272.213 111.944 M345.308 275.261 C 349.589 278.682,351.571 282.714,351.571 288.000 C 351.571 293.286,349.589 297.318,345.307 300.739 L 342.028 303.360 256.068 303.360 L 170.107 303.360 166.901 300.914 C 162.109 297.259,160.434 293.961,160.430 288.171 C 160.428 285.449,160.968 282.185,161.630 280.918 C 163.176 277.960,167.083 274.257,169.813 273.163 C 171.198 272.609,201.807 272.367,256.988 272.474 L 342.029 272.640 345.308 275.261 M342.956 353.663 C 346.066 355.271,350.548 360.406,351.237 363.148 C 351.535 364.335,351.607 367.372,351.397 369.898 C 350.929 375.551,347.785 380.064,342.712 382.367 C 339.359 383.890,335.438 383.963,256.000 383.963 C 176.562 383.963,172.641 383.890,169.288 382.367 C 164.215 380.064,161.071 375.551,160.603 369.898 C 160.393 367.372,160.460 364.357,160.751 363.199 C 161.432 360.484,165.184 356.037,168.497 354.016 C 170.980 352.502,174.799 352.433,255.829 352.430 C 328.157 352.427,340.915 352.608,342.956 353.663 " stroke="none" fill="black" fill-rule="evenodd"></path></svg>