<svg xmlns="http://www.w3.org/2000/svg" width="512" height="512" viewBox="0 0 512 512"><path d="M229.973 33.372 C 180.365 39.322,133.076 62.323,97.707 97.705 C 65.958 129.465,45.162 168.370,36.356 212.480 C 33.308 227.749,32.427 237.506,32.427 256.000 C 32.427 274.494,33.308 284.251,36.356 299.520 C 50.106 368.394,94.392 425.972,157.440 456.948 C 178.275 467.185,199.631 473.930,222.860 477.613 C 236.686 479.805,275.314 479.805,289.140 477.613 C 337.480 469.950,380.200 448.327,414.272 414.279 C 425.852 402.707,433.074 393.817,443.013 378.902 C 456.639 358.451,467.016 334.957,473.049 310.900 C 478.303 289.947,479.147 282.350,479.147 256.000 C 479.147 229.650,478.303 222.053,473.049 201.100 C 469.019 185.031,464.552 172.916,456.948 157.440 C 434.489 111.727,397.908 75.522,352.234 53.802 C 333.058 44.683,314.900 38.958,292.267 34.896 C 283.835 33.382,278.033 33.013,259.413 32.806 C 246.976 32.667,233.728 32.922,229.973 33.372 M281.432 73.814 C 293.360 75.510,304.015 78.082,315.733 82.095 C 325.814 85.547,343.893 93.662,343.893 94.735 C 343.893 95.066,342.334 98.664,340.429 102.729 C 338.378 107.106,337.169 110.765,337.465 111.698 C 337.984 113.333,349.915 121.173,351.884 121.173 C 352.499 121.173,356.140 118.444,359.975 115.109 L 366.947 109.044 372.914 113.926 C 376.195 116.610,378.880 118.922,378.880 119.063 C 378.880 119.204,376.426 121.273,373.426 123.660 L 367.971 128.000 359.073 128.000 L 350.176 128.000 342.768 135.570 C 338.693 139.734,335.360 143.627,335.360 144.222 C 335.360 144.817,338.607 148.611,342.576 152.652 L 349.792 160.000 381.755 160.243 L 413.718 160.486 420.178 173.469 C 423.730 180.611,426.877 187.509,427.171 188.800 L 427.705 191.147 422.017 191.147 C 416.378 191.147,416.218 191.081,403.440 183.467 L 390.551 175.787 371.530 175.787 L 352.510 175.787 328.656 191.643 C 312.585 202.326,304.641 208.103,304.306 209.349 C 304.033 210.367,303.805 220.853,303.798 232.652 C 303.788 251.861,303.943 254.286,305.280 255.844 C 306.101 256.801,319.829 264.529,335.787 273.017 C 351.744 281.505,365.472 289.255,366.293 290.239 C 367.572 291.772,367.787 293.901,367.787 305.067 C 367.787 316.252,367.999 318.351,369.280 319.843 C 370.101 320.799,376.149 324.519,382.720 328.109 C 389.291 331.700,395.147 335.257,395.733 336.015 C 396.512 337.021,396.800 342.444,396.800 356.131 L 396.800 374.868 387.627 384.206 C 371.729 400.389,356.175 411.663,336.640 421.163 C 310.771 433.744,285.223 439.695,256.853 439.749 C 239.304 439.782,231.901 438.964,232.430 437.048 C 232.647 436.266,234.439 428.068,236.413 418.830 L 240.003 402.033 263.798 385.196 L 287.593 368.360 287.370 335.860 L 287.147 303.360 255.656 279.680 L 224.166 256.000 208.377 256.000 L 192.588 256.000 184.233 247.893 L 175.879 239.787 147.844 239.787 C 127.176 239.787,119.539 239.518,118.784 238.763 C 116.734 236.713,117.790 234.157,122.691 229.307 L 127.623 224.427 144.238 224.422 C 153.376 224.419,162.293 224.017,164.052 223.529 C 168.128 222.397,168.912 220.859,173.168 205.650 C 175.030 199.001,177.033 192.981,177.621 192.273 C 178.209 191.564,184.706 187.972,192.060 184.290 C 199.413 180.608,206.056 176.969,206.821 176.203 C 207.897 175.128,208.213 173.110,208.213 167.333 L 208.213 159.854 216.107 148.480 L 224.000 137.107 235.093 132.953 C 241.195 130.669,246.667 128.162,247.253 127.383 C 248.551 125.660,248.682 114.911,247.434 112.579 C 246.533 110.896,226.935 97.328,224.486 96.692 C 223.749 96.500,216.686 99.627,208.790 103.639 C 200.895 107.651,193.574 110.933,192.522 110.933 C 191.440 110.933,187.482 108.430,183.411 105.171 C 173.896 97.553,173.711 96.351,181.225 90.989 C 184.267 88.819,187.349 86.450,188.073 85.725 C 188.798 85.000,191.993 83.463,195.172 82.310 C 200.259 80.465,202.361 80.213,212.701 80.213 L 224.449 80.213 236.256 86.128 L 248.062 92.042 257.791 86.499 C 263.142 83.450,267.861 80.621,268.277 80.211 C 268.718 79.778,268.667 78.017,268.155 76.000 L 267.275 72.533 269.957 72.549 C 271.433 72.558,276.597 73.127,281.432 73.814 M85.667 245.061 L 96.000 264.031 115.627 275.796 C 126.421 282.267,135.523 288.236,135.853 289.061 C 136.183 289.885,138.016 302.272,139.926 316.587 C 141.837 330.901,143.574 343.411,143.786 344.387 C 144.035 345.532,149.777 350.013,159.976 357.023 C 171.513 364.954,175.922 368.457,176.310 370.000 C 179.105 381.138,188.099 426.306,187.565 426.526 C 186.280 427.055,164.337 415.807,156.160 410.428 C 144.226 402.576,138.898 398.286,128.111 387.845 C 111.918 372.170,100.563 356.578,90.823 336.640 C 78.228 310.862,72.373 285.626,72.312 256.853 C 72.282 243.240,73.828 224.584,74.897 225.652 C 75.138 225.893,79.985 234.627,85.667 245.061 " stroke="none" fill="black" fill-rule="evenodd"></path></svg>