<svg xmlns="http://www.w3.org/2000/svg" width="512" height="512" viewBox="0 0 512 512"><path d="M203.285 81.512 C 191.390 84.095,178.211 92.776,171.234 102.622 C 166.202 109.724,164.238 113.777,161.969 121.751 C 160.198 127.969,160.066 130.182,160.034 154.027 C 160.003 177.358,160.141 179.911,161.595 182.837 C 166.315 192.334,178.484 194.873,186.138 187.958 C 188.003 186.273,189.989 184.093,190.551 183.114 C 191.256 181.887,191.706 173.244,192.000 155.307 L 192.427 129.280 195.074 124.587 C 196.530 122.005,199.331 118.655,201.298 117.142 C 208.610 111.518,202.653 111.787,320.000 111.787 C 437.347 111.787,431.390 111.518,438.702 117.142 C 440.669 118.655,443.470 122.005,444.926 124.587 L 447.573 129.280 447.573 256.000 L 447.573 382.720 445.694 386.233 C 442.665 391.894,439.708 394.849,434.521 397.396 L 429.653 399.787 320.000 399.787 L 210.347 399.787 205.479 397.396 C 200.292 394.849,197.335 391.894,194.306 386.233 C 192.518 382.891,192.406 381.450,192.000 356.693 C 191.706 338.756,191.256 330.113,190.551 328.886 C 189.989 327.907,188.003 325.727,186.138 324.042 C 178.484 317.127,166.315 319.666,161.595 329.163 C 160.141 332.089,160.003 334.642,160.034 357.973 C 160.066 381.949,160.191 384.005,162.002 390.370 C 167.846 410.914,183.912 426.334,203.881 430.567 C 212.207 432.332,427.793 432.332,436.119 430.567 C 456.072 426.338,472.058 411.006,478.032 390.370 L 480.000 383.573 480.000 256.000 L 480.000 128.427 478.032 121.630 C 472.034 100.912,456.142 85.690,436.053 81.422 C 427.916 79.693,211.275 79.777,203.285 81.512 M264.962 161.771 C 261.114 163.777,259.335 165.619,257.605 169.387 C 255.796 173.326,255.622 176.525,256.956 181.328 C 257.743 184.163,262.500 189.360,285.272 212.261 L 312.643 239.787 179.489 239.787 C 81.189 239.787,45.575 240.044,43.434 240.771 C 36.281 243.197,32.427 248.530,32.427 256.000 C 32.427 263.470,36.281 268.803,43.434 271.229 C 45.575 271.956,81.189 272.213,179.489 272.213 L 312.643 272.213 285.272 299.739 C 256.563 328.611,255.984 329.342,256.023 336.640 C 256.045 340.610,258.904 345.978,262.426 348.665 C 265.044 350.661,266.649 351.159,271.266 351.407 C 276.388 351.681,277.260 351.472,280.747 349.125 C 287.070 344.871,364.934 266.309,366.464 262.641 C 368.151 258.595,368.151 253.405,366.464 249.359 C 364.934 245.690,287.026 167.085,280.814 162.943 C 277.759 160.906,276.134 160.428,272.280 160.432 C 269.634 160.435,266.384 161.029,264.962 161.771 " stroke="none" fill="black" fill-rule="evenodd"></path></svg>