<svg xmlns="http://www.w3.org/2000/svg" viewBox="0 0 512 512"><path d="M201.220 33.747 C 179.066 39.120,161.243 55.817,153.899 78.080 C 151.964 83.945,151.590 86.801,151.242 98.347 L 150.836 111.787 117.445 111.816 C 82.000 111.848,75.776 112.363,66.577 116.027 C 54.836 120.704,43.568 130.935,38.079 141.904 C 32.086 153.880,32.179 152.916,31.784 207.147 L 31.429 256.000 56.069 256.000 C 75.504 256.000,81.782 256.278,85.794 257.316 C 100.270 261.062,111.831 274.195,114.413 289.824 C 117.754 310.055,103.100 331.667,83.524 335.379 C 81.106 335.838,68.395 336.213,55.278 336.213 L 31.428 336.213 31.801 384.640 C 32.215 438.436,32.082 437.089,38.215 449.707 C 42.570 458.666,53.334 469.430,62.293 473.785 C 74.909 479.917,73.571 479.785,127.294 480.199 L 175.655 480.571 175.934 454.259 L 176.213 427.947 178.952 422.165 C 183.783 411.965,194.997 403.545,207.094 401.033 C 213.402 399.724,225.254 400.409,231.253 402.430 C 242.113 406.088,251.218 414.937,254.307 424.837 C 255.834 429.729,256.000 432.721,256.000 455.415 L 256.000 480.571 304.853 480.199 C 359.624 479.783,357.993 479.952,370.730 473.341 C 379.798 468.633,388.271 460.150,393.104 450.940 C 399.589 438.581,399.608 438.430,399.989 397.440 L 400.328 360.960 411.151 360.945 C 422.937 360.929,430.490 359.681,438.583 356.412 C 456.322 349.247,470.683 333.772,476.732 315.307 C 479.764 306.050,480.503 289.614,478.297 280.481 C 472.888 258.084,455.895 240.220,433.067 232.929 C 428.295 231.406,424.401 230.939,413.710 230.610 L 400.326 230.199 400.048 193.393 L 399.770 156.587 397.369 149.760 C 391.306 132.515,379.037 120.177,362.423 114.615 L 355.413 112.269 318.607 111.972 L 281.801 111.674 281.416 98.290 C 281.079 86.561,280.743 84.063,278.702 78.080 C 271.230 56.176,253.742 39.558,232.428 34.106 C 224.573 32.097,208.774 31.916,201.220 33.747 " stroke="none" fill="black" fill-rule="evenodd"></path></svg>