<svg xmlns="http://www.w3.org/2000/svg" viewBox="0 0 512 512"><path d="M201.387 33.748 C 194.584 35.286,183.425 40.529,177.257 45.086 C 168.160 51.807,160.016 62.454,155.588 73.417 C 152.320 81.508,151.071 89.063,151.055 100.842 L 151.040 111.658 114.560 111.973 L 78.080 112.288 71.253 114.575 C 61.460 117.857,54.462 122.335,47.394 129.841 C 40.474 137.191,35.949 145.374,33.546 154.880 C 32.210 160.167,32.035 165.460,32.018 200.960 C 31.998 244.608,32.015 244.778,36.836 249.918 C 41.976 255.398,44.459 255.960,63.607 255.981 C 76.198 255.995,82.049 256.347,85.794 257.316 C 100.270 261.062,111.831 274.195,114.413 289.824 C 117.754 310.055,103.100 331.667,83.524 335.379 C 81.106 335.838,71.595 336.224,62.390 336.237 C 46.691 336.260,45.415 336.382,41.813 338.205 C 36.000 341.148,32.723 346.548,31.988 354.395 C 31.665 357.841,31.583 376.759,31.805 396.437 C 32.260 436.728,32.431 438.082,38.586 450.036 C 43.909 460.375,52.559 468.760,63.147 473.843 C 75.882 479.958,76.281 480.000,121.621 480.000 L 161.750 480.000 165.987 477.820 C 168.552 476.501,171.238 474.199,172.792 471.989 L 175.360 468.338 175.886 450.702 C 176.327 435.952,176.699 432.275,178.164 428.227 C 187.048 403.675,213.194 393.320,236.954 404.945 C 243.191 407.996,250.014 414.853,253.049 421.120 C 255.526 426.233,255.530 426.268,255.978 446.720 C 256.470 469.167,256.605 469.798,262.054 475.126 C 267.008 479.969,267.315 480.000,311.040 480.000 C 341.656 480.000,352.358 479.727,356.267 478.846 C 376.082 474.379,391.337 460.367,397.747 440.747 C 399.634 434.971,399.709 433.553,400.020 397.867 L 400.341 360.960 411.157 360.945 C 422.937 360.929,430.492 359.680,438.583 356.412 C 456.380 349.224,470.714 333.771,476.714 315.307 C 478.485 309.859,479.015 306.239,479.340 297.387 C 479.841 283.723,478.609 277.681,472.987 266.240 C 469.586 259.319,467.811 256.942,460.849 249.990 C 454.549 243.699,451.140 241.049,445.867 238.342 C 434.192 232.348,428.908 231.078,413.717 230.611 L 400.341 230.199 399.989 193.820 C 399.600 153.539,399.614 153.659,393.706 141.699 C 389.304 132.786,379.131 122.591,370.347 118.289 C 358.278 112.379,358.458 112.400,318.080 112.010 L 281.600 111.658 281.594 100.842 C 281.587 87.659,279.647 78.568,274.735 68.693 C 266.753 52.645,253.156 40.953,235.520 34.969 C 228.267 32.509,209.791 31.847,201.387 33.748 M225.929 65.577 C 235.684 68.613,243.718 76.185,247.567 85.972 C 249.322 90.434,249.541 92.754,249.975 111.503 L 250.453 132.126 253.051 135.823 C 254.480 137.856,257.360 140.480,259.451 141.653 L 263.253 143.787 307.627 144.213 C 348.787 144.609,352.216 144.755,354.987 146.229 C 359.156 148.447,363.340 152.563,365.515 156.587 C 367.322 159.929,367.369 160.922,367.787 204.373 L 368.213 248.747 370.347 252.549 C 371.520 254.640,374.144 257.520,376.178 258.949 L 379.877 261.547 400.498 262.065 C 411.840 262.350,422.276 262.969,423.688 263.440 C 441.990 269.545,451.705 287.016,446.439 304.354 C 442.558 317.132,433.374 325.777,420.865 328.428 C 418.378 328.955,408.669 329.387,399.291 329.387 C 385.830 329.387,381.573 329.665,379.078 330.707 C 375.033 332.397,372.356 334.916,370.050 339.200 C 368.254 342.539,368.204 343.594,367.787 387.413 L 367.360 432.213 365.014 436.204 C 363.724 438.399,361.249 441.364,359.515 442.793 C 353.469 447.777,351.724 448.000,318.692 448.000 L 288.675 448.000 288.074 436.422 C 287.732 429.814,286.773 422.105,285.842 418.463 C 279.816 394.902,261.163 377.227,234.947 370.236 C 225.891 367.821,208.700 367.629,200.107 369.847 C 193.105 371.653,181.841 376.715,176.231 380.574 C 156.557 394.110,144.213 417.295,144.213 440.711 L 144.213 448.000 114.502 448.000 C 79.244 448.000,78.226 447.831,71.198 440.802 C 64.172 433.777,64.000 432.744,64.000 397.602 L 64.000 367.994 77.013 367.576 C 91.195 367.121,97.081 365.785,107.093 360.749 C 126.483 350.995,140.828 331.940,145.500 309.731 C 151.386 281.745,138.369 251.120,113.847 235.266 C 101.296 227.151,91.708 224.458,75.307 224.439 L 64.000 224.427 64.000 194.165 C 64.000 159.437,64.260 157.850,71.032 151.318 C 78.328 144.280,75.196 144.692,125.013 144.213 C 168.396 143.796,169.463 143.746,172.800 141.950 C 177.084 139.644,179.603 136.967,181.293 132.922 C 182.335 130.427,182.613 126.170,182.613 112.709 C 182.613 103.331,183.045 93.622,183.573 91.135 C 187.710 71.635,207.338 59.791,225.929 65.577 " stroke="none" fill="black" fill-rule="evenodd"></path></svg>