<svg xmlns="http://www.w3.org/2000/svg" width="512" height="512" viewBox="0 0 512 512"><path d="M116.460 64.833 C 104.861 66.565,92.258 72.267,84.246 79.408 C 78.154 84.838,71.725 94.419,68.417 102.997 C 66.665 107.539,60.441 135.139,48.922 189.448 L 32.000 269.227 32.000 330.240 C 32.000 399.453,31.890 398.139,38.849 412.000 C 45.639 425.526,54.801 434.744,67.781 441.110 C 82.188 448.176,64.632 447.573,256.000 447.573 C 447.236 447.573,429.677 448.170,444.160 441.179 C 457.117 434.925,466.996 424.799,473.720 410.880 C 480.036 397.808,479.963 398.745,479.983 330.240 L 480.000 269.227 463.154 189.808 C 453.888 146.127,445.554 108.197,444.632 105.519 C 437.845 85.792,424.132 72.715,403.627 66.415 L 397.227 64.448 258.987 64.321 C 182.955 64.250,118.818 64.481,116.460 64.833 M397.433 98.134 C 400.104 99.073,403.647 100.928,405.305 102.257 C 408.845 105.094,413.525 112.490,414.844 117.333 C 415.355 119.211,422.187 151.179,430.025 188.373 L 444.277 256.000 380.487 256.000 C 337.492 256.000,315.915 256.296,314.296 256.908 C 311.271 258.050,307.451 261.631,305.705 264.960 C 304.966 266.368,304.067 270.987,303.706 275.225 C 302.921 284.446,300.606 291.130,295.518 298.856 C 290.716 306.149,285.508 310.646,276.907 314.927 C 251.543 327.552,220.778 315.027,210.827 288.025 C 209.795 285.223,208.655 279.463,208.294 275.225 C 207.933 270.987,207.034 266.368,206.295 264.960 C 204.549 261.631,200.729 258.050,197.704 256.908 C 196.085 256.296,174.508 256.000,131.513 256.000 L 67.723 256.000 82.018 188.125 C 89.880 150.793,96.927 118.401,97.677 116.142 C 100.704 107.029,106.622 100.853,115.205 97.850 C 118.629 96.652,133.697 96.504,255.808 96.467 C 390.453 96.427,392.651 96.453,397.433 98.134 M178.998 293.547 C 181.890 305.008,190.395 319.420,199.703 328.631 C 215.319 344.085,233.696 351.573,256.000 351.573 C 278.348 351.573,297.235 343.852,312.418 328.510 C 321.844 318.985,330.138 304.896,333.002 293.547 L 334.186 288.853 391.093 288.634 L 448.000 288.415 448.000 338.186 C 448.000 381.142,447.814 388.592,446.645 392.592 C 443.794 402.340,436.667 410.067,426.882 414.018 L 421.973 416.000 256.000 416.000 L 90.027 416.000 85.118 414.018 C 75.333 410.067,68.206 402.340,65.355 392.592 C 64.186 388.592,64.000 381.142,64.000 338.186 L 64.000 288.415 120.907 288.634 L 177.814 288.853 178.998 293.547 " stroke="none" fill="black" fill-rule="evenodd"></path></svg>