<svg xmlns="http://www.w3.org/2000/svg" width="512" height="512" viewBox="0 0 512 512"><path d="M63.650 66.347 C 63.383 67.637,56.056 111.407,47.369 163.612 L 31.573 258.531 31.573 353.266 L 31.573 448.000 256.000 448.000 L 480.427 448.000 480.427 353.266 L 480.427 258.531 464.631 163.612 C 455.944 111.407,448.617 67.637,448.350 66.347 L 447.864 64.000 256.000 64.000 L 64.136 64.000 63.650 66.347 M414.222 108.160 C 414.492 109.451,419.331 142.187,424.976 180.907 C 430.621 219.627,435.453 252.363,435.714 253.653 L 436.189 256.000 378.267 256.000 L 320.345 256.000 319.391 263.559 C 315.903 291.194,295.720 313.096,268.623 318.652 C 234.293 325.690,200.435 303.187,193.348 268.623 C 192.607 265.005,192.000 260.685,192.000 259.023 L 192.000 256.000 133.906 256.000 L 75.811 256.000 76.286 253.653 C 76.547 252.363,81.379 219.627,87.024 180.907 C 92.669 142.187,97.508 109.451,97.778 108.160 L 98.269 105.813 256.000 105.813 L 413.731 105.813 414.222 108.160 " stroke="none" fill="black" fill-rule="evenodd"></path></svg>