<svg xmlns="http://www.w3.org/2000/svg" viewBox="0 0 512 512"><path d="M217.173 81.818 C 215.296 82.680,213.103 84.126,212.299 85.031 C 210.176 87.422,208.217 92.533,208.188 95.759 C 208.173 97.300,210.751 107.700,213.915 118.872 C 218.078 133.573,219.435 139.553,218.825 140.519 C 218.362 141.253,213.385 143.831,207.765 146.247 C 184.673 156.175,163.944 169.272,135.361 191.995 C 128.849 197.172,122.581 201.643,121.431 201.932 C 118.718 202.613,116.402 201.503,109.878 196.397 C 84.935 176.875,44.308 161.141,18.286 160.925 C 10.077 160.857,9.546 160.964,6.459 163.314 C 2.728 166.156,0.046 171.418,0.019 175.950 C -0.002 179.422,4.437 194.751,9.114 207.360 C 13.224 218.441,21.590 235.127,27.977 244.985 C 34.800 255.515,34.807 256.359,28.144 266.473 C 18.065 281.772,8.798 302.450,2.880 322.848 C -0.626 334.931,-0.642 339.417,2.803 344.622 C 5.438 348.604,11.064 351.573,15.971 351.573 C 21.757 351.573,38.169 348.443,49.488 345.180 C 72.958 338.414,91.017 329.485,109.639 315.438 C 119.954 307.658,119.936 307.656,133.120 318.269 C 160.903 340.634,184.329 355.667,205.577 364.767 C 217.647 369.936,218.821 370.587,219.149 372.293 C 219.304 373.096,216.907 382.577,213.822 393.362 C 210.737 404.146,208.213 414.531,208.213 416.439 C 208.213 424.765,215.321 431.788,223.744 431.786 C 225.762 431.785,231.253 430.853,235.947 429.716 C 259.860 423.918,287.616 410.261,314.027 391.296 L 324.693 383.637 335.360 382.558 C 347.586 381.322,361.830 379.150,365.826 377.914 C 367.329 377.448,368.776 376.383,369.042 375.546 C 369.343 374.596,366.051 367.153,360.289 355.758 C 347.159 329.791,340.467 308.558,336.916 281.600 C 335.539 271.150,335.539 240.850,336.916 230.400 C 340.937 199.874,351.350 169.559,366.081 145.491 C 369.592 139.755,370.302 136.560,368.412 134.992 C 366.968 133.793,354.148 131.593,337.783 129.734 L 324.418 128.217 319.436 124.409 C 294.050 105.012,261.085 88.379,235.947 82.284 C 225.781 79.820,221.744 79.720,217.173 81.818 M396.608 156.734 C 380.894 182.829,372.548 205.877,369.008 232.960 C 367.098 247.573,367.700 274.640,370.234 288.056 C 374.514 310.716,379.760 324.658,394.061 351.383 C 399.678 361.881,401.971 365.397,403.450 365.778 C 405.763 366.375,410.362 364.743,421.973 359.205 C 454.607 343.639,483.871 318.060,499.801 291.180 C 507.009 279.017,512.000 264.623,512.000 256.000 C 512.000 246.382,505.419 229.344,496.612 216.159 C 490.259 206.649,484.338 199.598,474.736 190.113 C 464.765 180.264,457.540 174.389,445.440 166.294 C 435.336 159.534,410.726 146.972,406.187 146.258 L 403.200 145.788 396.608 156.734 M423.193 225.921 C 433.801 231.330,434.663 246.694,424.727 253.269 C 419.803 256.528,412.215 256.534,407.298 253.283 C 397.593 246.867,398.081 232.237,408.206 226.064 C 411.672 223.950,419.187 223.879,423.193 225.921 " stroke="none" fill="black" fill-rule="evenodd"></path></svg>