<svg xmlns="http://www.w3.org/2000/svg" width="512" height="512" viewBox="0 0 512 512"><path d="M308.828 18.188 C 305.644 19.860,287.997 41.257,193.933 157.495 C 132.809 233.027,82.174 296.128,81.410 297.718 C 78.079 304.652,81.792 314.720,88.960 318.190 C 92.654 319.978,93.374 320.000,148.817 320.000 L 204.936 320.000 204.431 322.347 C 201.668 335.205,176.645 475.709,176.659 478.287 C 176.697 485.276,182.205 492.686,189.036 494.941 C 193.403 496.382,200.474 495.637,204.184 493.343 C 206.182 492.109,245.578 444.064,316.790 356.016 C 377.033 281.530,427.456 219.081,428.841 217.240 C 431.043 214.315,431.360 213.178,431.360 208.217 C 431.360 201.126,428.724 196.562,423.040 193.810 C 419.346 192.022,418.626 192.000,363.158 192.000 L 307.015 192.000 307.474 190.080 C 309.581 181.260,335.356 36.952,335.341 34.055 C 335.275 20.824,320.568 12.023,308.828 18.188 " stroke="none" fill="black" fill-rule="evenodd"></path></svg>