<svg xmlns="http://www.w3.org/2000/svg" width="512" height="512" viewBox="0 0 512 512"><path d="M308.479 37.547 L 287.154 58.886 370.136 141.868 L 453.118 224.851 474.452 203.517 L 495.786 182.183 412.796 99.196 L 329.805 16.209 308.479 37.547 M267.679 84.150 C 267.427 85.035,263.308 104.192,258.525 126.720 L 249.828 167.680 132.808 284.800 L 15.789 401.920 62.934 449.066 L 110.080 496.211 227.200 379.172 L 344.320 262.134 384.853 253.476 C 407.147 248.715,426.251 244.550,427.308 244.222 C 429.009 243.694,419.978 234.375,348.683 163.083 C 285.292 99.695,268.039 82.882,267.679 84.150 M233.542 269.528 C 245.392 275.622,248.330 291.390,239.341 300.647 C 235.262 304.846,231.928 306.447,226.177 306.969 C 213.971 308.076,203.776 297.737,205.036 285.529 C 205.612 279.952,207.222 276.672,211.350 272.662 C 217.019 267.156,226.364 265.837,233.542 269.528 " stroke="none" fill="black" fill-rule="evenodd"></path></svg>