<svg xmlns="http://www.w3.org/2000/svg" width="512" height="512" viewBox="0 0 512 512"><path d="M92.587 65.263 C 76.270 68.855,62.144 79.473,54.762 93.695 C 49.353 104.117,48.522 108.271,48.025 127.360 L 47.587 144.213 255.900 144.213 C 453.727 144.213,464.213 144.138,464.207 142.720 C 464.184 137.375,462.063 129.282,459.093 123.204 C 453.443 111.642,443.867 103.952,428.800 98.877 L 422.827 96.866 334.933 96.433 L 247.040 96.000 242.942 94.108 C 240.688 93.068,232.264 87.735,224.223 82.257 C 207.775 71.054,200.206 67.124,191.549 65.290 C 183.356 63.554,100.450 63.532,92.587 65.263 M55.680 176.726 C 33.637 180.431,16.229 201.016,16.209 223.402 C 16.203 230.337,32.205 394.989,33.683 403.200 C 36.543 419.085,48.373 434.583,63.147 441.798 C 76.748 448.440,63.064 448.000,256.000 448.000 C 448.936 448.000,435.252 448.440,448.853 441.798 C 463.629 434.581,475.462 419.079,478.314 403.200 C 479.925 394.226,495.795 230.841,495.790 223.270 C 495.778 203.349,482.954 185.706,463.258 178.513 L 456.960 176.213 258.560 176.094 C 147.288 176.026,58.193 176.304,55.680 176.726 " stroke="none" fill="black" fill-rule="evenodd"></path></svg>