<svg xmlns="http://www.w3.org/2000/svg" width="512" height="512" viewBox="0 0 512 512"><path d="M92.505 65.267 C 75.246 69.022,60.987 80.289,53.650 95.968 C 48.453 107.074,48.402 107.512,48.012 144.644 L 47.654 178.781 42.540 181.184 C 35.336 184.568,25.767 193.874,21.877 201.277 C 18.282 208.118,16.246 215.989,16.220 223.147 C 16.194 230.082,32.157 394.649,33.671 403.054 C 37.151 422.377,52.072 438.885,72.107 445.578 L 78.080 447.573 253.013 447.810 C 449.163 448.074,435.151 448.504,448.853 441.803 C 463.666 434.558,475.444 419.075,478.329 403.054 C 479.843 394.649,495.806 230.082,495.780 223.147 C 495.754 215.989,493.718 208.118,490.123 201.277 C 486.242 193.891,476.662 184.568,469.494 181.200 L 464.413 178.812 464.001 160.446 C 463.541 139.952,462.580 135.162,456.848 124.809 C 451.555 115.250,440.700 105.172,431.312 101.102 C 421.025 96.642,426.726 96.914,333.653 96.441 C 247.799 96.004,247.006 95.984,243.148 94.199 C 241.008 93.209,232.197 87.682,223.568 81.917 C 205.983 70.167,200.057 67.092,191.499 65.279 C 183.338 63.550,100.442 63.540,92.505 65.267 M189.013 98.017 C 190.891 98.871,199.531 104.298,208.213 110.076 C 216.896 115.855,226.322 121.644,229.159 122.941 C 240.305 128.036,239.600 128.000,329.196 128.000 C 419.905 128.000,416.290 127.784,423.083 133.599 C 425.061 135.292,427.732 138.468,429.019 140.658 C 431.304 144.545,431.367 145.010,431.641 160.213 L 431.922 175.787 256.068 175.787 L 80.213 175.787 80.213 145.203 L 80.213 114.619 82.824 109.394 C 85.511 104.018,89.674 99.981,94.851 97.733 C 97.225 96.703,105.123 96.491,141.653 96.479 C 182.351 96.465,185.852 96.579,189.013 98.017 M454.227 209.366 C 457.862 210.885,462.195 215.910,463.290 219.875 C 463.986 222.395,462.584 239.175,456.496 301.179 C 452.276 344.149,448.463 383.422,448.021 388.452 C 446.761 402.805,442.757 409.546,432.744 414.176 L 428.800 416.000 256.000 416.000 L 83.200 416.000 79.256 414.176 C 77.086 413.173,73.772 410.962,71.891 409.262 C 66.568 404.454,64.989 399.701,63.563 384.205 C 62.883 376.818,59.064 337.544,55.075 296.930 C 49.305 238.171,48.003 222.434,48.705 219.893 C 49.775 216.016,54.081 210.929,57.584 209.403 C 61.465 207.712,450.182 207.676,454.227 209.366 " stroke="none" fill="black" fill-rule="evenodd"></path></svg>