<svg xmlns="http://www.w3.org/2000/svg" width="512" height="512" viewBox="0 0 512 512"><path d="M243.627 48.295 C 200.513 51.554,164.059 65.146,129.707 90.769 C 119.275 98.549,98.552 119.277,90.701 129.782 C 68.137 159.974,54.434 193.652,49.413 231.253 C 48.019 241.696,48.019 270.304,49.413 280.747 C 54.433 318.342,68.118 351.979,90.695 382.218 C 98.476 392.640,119.191 413.346,129.707 421.213 C 160.488 444.242,192.017 457.046,231.680 462.624 C 242.514 464.148,272.048 463.904,283.567 462.196 C 320.637 456.698,352.507 443.488,382.218 421.305 C 392.650 413.516,413.335 392.818,421.281 382.218 C 443.726 352.275,457.581 318.238,462.587 280.747 C 463.981 270.304,463.981 241.696,462.587 231.253 C 457.581 193.762,443.726 159.725,421.281 129.782 C 413.344 119.193,392.642 98.474,382.293 90.763 C 352.131 68.287,320.126 54.938,284.587 50.011 C 275.085 48.693,251.455 47.704,243.627 48.295 M279.118 81.657 C 279.661 82.200,275.772 85.263,267.976 90.434 L 256.000 98.377 244.041 90.445 C 237.464 86.083,232.303 82.292,232.573 82.022 C 234.348 80.247,277.371 79.910,279.118 81.657 M215.352 109.653 L 239.744 125.867 239.765 146.882 L 239.787 167.898 208.526 194.119 L 177.265 220.339 171.619 218.032 C 168.514 216.763,160.055 213.171,152.822 210.049 L 139.671 204.373 129.595 175.787 C 124.053 160.064,119.507 146.585,119.493 145.833 C 119.454 143.824,135.303 127.453,144.424 120.081 C 148.767 116.570,155.392 111.642,159.147 109.129 C 166.924 103.923,188.365 92.821,189.924 93.193 C 190.494 93.329,201.936 100.736,215.352 109.653 M332.593 97.643 C 351.593 106.967,365.706 117.166,381.227 132.789 C 387.445 139.048,392.533 144.780,392.533 145.526 C 392.533 147.574,372.826 203.380,371.727 204.444 C 369.869 206.243,335.307 220.228,334.270 219.600 C 333.696 219.253,319.499 207.471,302.720 193.417 L 272.213 167.866 272.237 146.866 L 272.260 125.867 296.770 109.498 C 310.251 100.495,321.703 93.103,322.220 93.071 C 322.738 93.039,327.405 95.096,332.593 97.643 M103.147 196.872 L 108.260 211.556 96.157 221.983 C 89.500 227.718,83.398 232.962,82.598 233.637 C 81.256 234.767,81.180 234.605,81.626 231.565 C 82.667 224.476,86.181 209.151,88.304 202.440 C 91.510 192.310,96.530 180.668,97.340 181.487 C 97.721 181.872,100.334 188.795,103.147 196.872 M419.806 191.747 C 423.703 201.506,427.831 216.587,429.520 227.244 L 430.711 234.755 428.902 233.151 C 427.907 232.268,421.831 227.050,415.400 221.555 L 403.707 211.564 408.785 197.009 C 411.579 189.004,414.110 182.057,414.410 181.571 C 415.125 180.414,415.751 181.594,419.806 191.747 M284.269 219.733 C 299.381 232.405,312.321 243.197,313.024 243.716 C 314.133 244.534,313.435 248.132,307.724 271.022 C 304.106 285.523,300.765 298.827,300.300 300.587 L 299.454 303.787 256.000 303.787 L 212.546 303.787 211.700 300.587 C 211.235 298.827,207.911 285.591,204.314 271.175 L 197.775 244.964 200.570 242.588 C 225.380 221.508,255.711 196.381,256.183 196.518 C 256.518 196.614,269.157 207.061,284.269 219.733 M148.230 242.920 C 157.808 246.991,165.959 250.927,166.344 251.667 C 166.729 252.408,170.591 267.605,174.927 285.440 L 182.809 317.867 173.449 333.842 C 168.302 342.629,163.602 350.405,163.007 351.122 C 162.078 352.241,158.176 352.427,135.581 352.427 L 109.237 352.427 106.584 348.800 C 102.514 343.237,92.583 322.336,89.232 312.279 C 86.168 303.086,82.279 286.433,81.774 280.345 L 81.493 276.957 105.387 256.294 C 118.528 244.929,129.625 235.606,130.048 235.575 C 130.470 235.545,138.652 238.850,148.230 242.920 M403.514 253.572 C 415.075 263.501,425.917 272.932,427.607 274.529 L 430.681 277.433 429.505 284.850 C 427.905 294.946,423.808 310.062,420.122 319.467 C 416.407 328.948,408.758 344.151,405.302 348.921 L 402.763 352.427 376.419 352.427 C 353.824 352.427,349.922 352.241,348.993 351.122 C 347.056 348.788,329.386 318.097,329.414 317.114 C 329.480 314.808,345.428 251.564,346.118 250.874 C 346.944 250.048,380.523 235.613,381.754 235.555 C 382.161 235.536,391.953 243.644,403.514 253.572 M312.410 352.427 C 317.506 361.109,321.683 368.780,321.691 369.474 C 321.700 370.167,316.811 383.173,310.827 398.375 C 301.824 421.247,299.606 426.147,297.973 426.768 C 296.888 427.181,291.704 428.317,286.453 429.293 C 266.727 432.960,235.759 432.257,218.128 427.743 L 212.255 426.240 201.284 398.507 C 195.250 383.253,190.308 370.220,190.303 369.543 C 190.298 368.866,191.774 365.794,193.583 362.716 C 195.392 359.638,199.633 352.413,203.007 346.659 L 209.140 336.199 256.142 336.419 L 303.143 336.640 312.410 352.427 M166.294 396.952 C 169.157 404.076,171.409 409.983,171.297 410.079 C 170.297 410.938,147.536 394.950,139.093 387.458 L 135.253 384.051 148.171 384.025 L 161.088 384.000 166.294 396.952 M375.945 384.770 C 374.275 387.472,354.286 402.274,343.660 408.677 L 340.440 410.617 342.064 406.482 C 342.957 404.207,345.299 398.219,347.269 393.173 L 350.849 384.000 363.635 384.000 C 371.014 384.000,376.220 384.325,375.945 384.770 " stroke="none" fill="black" fill-rule="evenodd"></path></svg>