<svg xmlns="http://www.w3.org/2000/svg" width="512" height="512" viewBox="0 0 512 512"><path d="M143.360 81.159 C 130.091 83.269,118.978 87.011,109.051 92.713 C 74.999 112.273,50.049 156.021,31.928 227.947 C 16.882 287.667,12.416 339.261,19.306 373.760 C 21.226 383.374,25.713 395.835,29.939 403.290 C 44.798 429.507,75.852 438.960,103.939 425.817 C 116.840 419.780,130.954 407.735,145.927 389.982 C 159.031 374.445,165.026 369.466,177.883 363.441 C 191.744 356.946,208.579 353.776,236.619 352.382 C 271.564 350.645,306.107 353.503,324.088 359.619 C 339.762 364.950,350.028 372.389,363.283 388.021 C 390.527 420.150,412.062 432.919,436.706 431.553 C 462.689 430.114,482.775 412.118,491.082 382.836 C 498.723 355.902,497.097 314.638,486.271 260.693 C 471.631 187.744,451.822 139.503,425.033 111.559 C 414.704 100.785,407.991 95.736,396.373 90.006 C 383.653 83.732,372.850 81.117,357.120 80.504 C 342.953 79.951,335.029 81.053,316.435 86.162 C 287.702 94.056,278.126 95.542,256.000 95.542 C 233.876 95.542,224.308 94.057,195.565 86.163 C 188.676 84.271,179.584 82.160,175.360 81.471 C 167.051 80.118,150.901 79.960,143.360 81.159 M184.839 116.569 C 221.738 126.213,229.888 127.474,255.573 127.512 C 280.699 127.550,292.868 125.801,320.674 118.156 C 345.918 111.216,355.659 110.481,370.860 114.369 C 381.958 117.207,390.108 122.107,399.870 131.809 C 420.162 151.979,434.971 184.095,448.034 236.263 C 459.683 282.787,465.601 327.913,463.457 353.863 C 460.886 384.974,451.094 399.766,433.097 399.726 C 426.509 399.711,420.961 397.675,413.254 392.442 C 407.360 388.441,395.258 376.462,386.391 365.852 C 357.657 331.473,325.115 320.016,256.160 320.003 C 204.012 319.994,173.220 326.633,148.712 343.171 C 140.395 348.783,132.886 355.941,122.436 368.218 C 103.123 390.908,90.732 399.708,78.080 399.717 C 65.908 399.726,58.155 392.478,52.986 376.260 C 43.863 347.630,47.748 294.992,63.522 233.525 C 81.247 164.451,105.110 125.434,135.651 115.590 C 150.793 110.710,163.382 110.961,184.839 116.569 M152.807 161.921 C 151.198 162.742,148.702 164.888,147.261 166.690 L 144.640 169.967 144.382 189.045 L 144.123 208.123 125.045 208.382 L 105.967 208.640 102.690 211.261 C 98.411 214.683,96.429 218.715,96.429 224.000 C 96.429 229.285,98.411 233.317,102.690 236.739 L 105.967 239.360 125.045 239.618 L 144.123 239.877 144.382 258.955 L 144.640 278.033 147.261 281.310 C 150.683 285.589,154.715 287.571,160.000 287.571 C 165.285 287.571,169.317 285.589,172.739 281.310 L 175.360 278.033 175.618 258.955 L 175.877 239.877 194.955 239.618 L 214.033 239.360 217.310 236.739 C 221.589 233.317,223.571 229.285,223.571 224.000 C 223.571 218.715,221.589 214.683,217.310 211.261 L 214.033 208.640 194.955 208.382 L 175.877 208.123 175.618 189.045 L 175.360 169.967 172.739 166.690 C 169.317 162.411,165.285 160.429,160.000 160.429 C 157.622 160.429,154.438 161.090,152.807 161.921 M327.021 162.233 C 319.199 166.104,314.644 175.546,316.531 183.977 C 318.654 193.466,326.379 199.698,335.972 199.661 C 342.172 199.638,346.777 197.594,350.877 193.047 C 359.610 183.361,356.528 168.223,344.567 162.059 C 340.122 159.767,331.836 159.849,327.021 162.233 M285.661 205.161 C 277.163 208.194,272.213 215.128,272.213 224.000 C 272.213 240.860,291.897 250.069,304.634 239.167 C 309.560 234.951,311.757 230.273,311.757 224.000 C 311.757 210.359,298.305 200.648,285.661 205.161 M373.545 205.164 C 368.441 206.985,364.681 210.400,362.204 215.464 C 354.565 231.078,369.754 248.355,386.291 242.863 C 394.190 240.239,399.717 232.471,399.712 224.000 C 399.705 210.340,386.227 200.638,373.545 205.164 M326.827 250.328 C 324.715 251.406,321.768 253.883,320.279 255.831 C 310.281 268.913,319.321 287.573,335.657 287.573 C 349.710 287.573,358.742 275.445,354.925 261.700 C 353.768 257.534,348.709 251.911,344.320 249.912 C 339.389 247.666,331.683 247.849,326.827 250.328 " stroke="none" fill="black" fill-rule="evenodd"></path></svg>