<svg xmlns="http://www.w3.org/2000/svg" width="512" height="512" viewBox="0 0 512 512"><path d="M261.003 52.907 C 237.238 76.139,217.793 95.531,217.793 96.000 C 217.793 96.469,237.238 115.861,261.003 139.093 L 304.213 181.333 304.439 154.613 L 304.664 127.892 325.772 128.159 C 346.498 128.422,346.965 128.467,351.573 130.656 C 357.223 133.340,362.040 138.016,365.098 143.787 L 367.360 148.053 367.586 254.356 L 367.813 360.658 363.196 363.838 C 357.413 367.821,350.098 375.439,346.241 381.495 C 332.906 402.432,332.889 430.473,346.198 450.560 C 358.610 469.293,377.907 479.698,400.166 479.660 C 432.641 479.605,458.918 456.465,463.379 423.993 C 465.406 409.240,461.943 394.460,453.314 381.031 C 448.964 374.259,441.674 366.780,435.810 363.070 L 431.824 360.548 431.592 250.887 L 431.360 141.227 429.056 132.883 C 426.338 123.037,420.732 110.973,415.315 103.312 C 406.597 90.984,391.700 78.477,378.724 72.594 C 363.365 65.630,353.342 64.000,325.874 64.000 L 304.664 64.000 304.439 37.333 L 304.213 10.667 261.003 52.907 M96.907 34.124 C 74.613 40.131,56.952 57.805,51.098 79.969 C 48.700 89.045,48.706 102.856,51.111 112.031 C 54.606 125.365,62.625 137.484,73.813 146.345 L 79.787 151.076 80.215 260.924 L 80.644 370.773 82.930 379.056 C 91.155 408.853,112.675 432.331,141.030 442.441 C 153.868 447.018,161.993 448.000,187.030 448.000 L 209.067 448.000 209.107 475.520 L 209.148 503.040 231.311 480.427 C 243.501 467.989,262.648 448.392,273.860 436.878 L 294.246 415.942 251.870 372.573 L 209.493 329.205 209.268 356.655 L 209.043 384.105 187.081 383.839 C 165.432 383.577,165.053 383.542,160.427 381.344 C 154.777 378.660,149.960 373.984,146.902 368.213 L 144.640 363.947 144.414 257.974 L 144.187 152.002 148.865 148.897 C 151.438 147.189,156.366 142.791,159.817 139.123 C 178.062 119.728,181.919 91.243,169.642 66.560 C 166.710 60.663,164.513 57.785,157.897 51.169 C 151.282 44.554,148.403 42.357,142.507 39.424 C 138.517 37.440,132.216 35.054,128.503 34.122 C 119.565 31.877,105.243 31.878,96.907 34.124 M126.222 67.023 C 132.556 69.866,139.134 76.559,142.326 83.411 C 144.274 87.591,144.613 89.460,144.613 96.000 C 144.613 102.529,144.272 104.412,142.340 108.559 C 139.170 115.362,133.176 121.472,126.401 124.807 C 121.321 127.308,120.045 127.573,113.085 127.569 C 106.252 127.565,104.763 127.268,99.840 124.928 C 92.793 121.579,87.491 116.279,84.134 109.227 C 81.788 104.300,81.493 102.822,81.493 96.000 C 81.493 89.178,81.788 87.700,84.134 82.773 C 88.370 73.875,96.370 67.203,105.597 64.872 C 111.121 63.477,120.498 64.455,126.222 67.023 M409.723 385.711 C 423.058 389.917,431.787 401.899,431.787 416.000 C 431.787 430.061,423.268 441.701,409.600 446.316 C 394.228 451.507,376.215 442.997,370.262 427.730 C 367.621 420.960,367.615 411.055,370.247 404.308 C 376.279 388.844,393.675 380.649,409.723 385.711 " stroke="none" fill="black" fill-rule="evenodd"></path></svg>