<svg xmlns="http://www.w3.org/2000/svg" width="512" height="512" viewBox="0 0 512 512"><path d="M116.053 169.041 C 95.914 170.860,77.283 175.211,64.949 180.975 C 58.544 183.968,57.090 184.320,51.137 184.320 C 43.565 184.320,40.704 185.167,37.257 188.428 C 33.718 191.776,32.427 194.780,32.427 199.665 C 32.427 207.709,36.565 213.246,44.079 215.256 C 48.584 216.461,48.385 215.759,49.003 232.533 C 51.287 294.481,69.000 327.433,106.240 339.015 C 118.211 342.738,124.568 343.469,144.640 343.432 C 160.870 343.402,164.627 343.135,172.373 341.461 C 197.915 335.941,214.101 323.711,225.061 301.653 C 232.406 286.870,235.441 273.429,238.936 240.213 C 239.479 235.051,240.287 229.404,240.731 227.665 C 242.354 221.312,249.356 215.931,256.000 215.931 C 262.644 215.931,269.646 221.312,271.269 227.665 C 271.713 229.404,272.521 235.051,273.064 240.213 C 275.866 266.842,278.432 280.532,282.796 292.125 C 296.895 329.584,324.568 345.264,373.739 343.657 C 388.781 343.166,397.891 341.749,407.905 338.343 C 443.586 326.207,460.759 293.224,462.997 232.533 C 463.574 216.880,463.750 215.893,465.970 215.893 C 468.315 215.893,473.616 213.087,475.890 210.643 C 478.475 207.864,479.573 204.565,479.573 199.582 C 479.573 194.777,478.268 191.763,474.743 188.428 C 471.284 185.155,468.433 184.320,460.716 184.320 C 455.068 184.320,453.168 183.941,449.495 182.080 C 429.410 171.901,399.469 167.355,359.253 168.377 C 348.224 168.658,334.784 169.491,329.387 170.228 C 309.404 172.959,291.810 178.352,282.121 184.716 L 276.443 188.445 271.555 186.607 C 264.433 183.929,247.530 183.944,240.368 186.634 L 235.402 188.499 231.198 185.479 C 222.256 179.055,202.984 172.992,182.613 170.195 C 170.774 168.570,129.243 167.849,116.053 169.041 " stroke="none" fill="black" fill-rule="evenodd"></path></svg>