<svg xmlns="http://www.w3.org/2000/svg" width="512" height="512" viewBox="0 0 512 512"><path d="M246.187 32.090 C 210.399 34.710,185.754 41.139,156.587 55.466 C 129.055 68.989,101.286 91.062,82.485 114.367 C 68.389 131.839,54.102 156.527,46.553 176.459 C 40.339 192.865,35.191 214.263,33.327 231.433 C 32.168 242.102,32.168 269.898,33.327 280.567 C 37.841 322.139,55.450 364.135,82.331 397.440 C 105.653 426.334,138.887 450.477,174.810 464.622 C 231.684 487.015,296.559 484.701,352.000 458.303 C 412.323 429.581,456.872 375.238,473.132 310.544 C 478.294 290.002,479.147 282.271,479.147 256.000 C 479.147 229.643,478.299 222.019,473.048 201.126 C 455.558 131.531,404.876 73.930,337.920 47.547 C 320.159 40.549,298.444 35.198,280.320 33.354 C 270.159 32.320,252.157 31.653,246.187 32.090 M239.519 143.913 C 239.070 144.361,219.625 141.908,212.053 140.448 C 201.032 138.323,185.034 133.750,184.592 132.598 C 183.966 130.967,192.442 115.070,199.782 104.107 C 210.341 88.336,223.037 75.943,235.093 69.637 L 239.360 67.406 239.582 105.516 C 239.704 126.477,239.676 143.755,239.519 143.913 M282.742 73.059 C 291.629 78.765,303.959 91.699,312.004 103.754 C 319.622 115.169,328.036 130.961,327.393 132.636 C 326.575 134.768,298.046 141.534,284.160 142.889 C 281.109 143.187,277.173 143.641,275.413 143.897 L 272.213 144.363 272.213 105.909 L 272.213 67.456 274.422 68.295 C 275.638 68.757,279.382 70.901,282.742 73.059 M174.641 83.840 C 170.942 89.083,161.472 105.349,158.182 112.108 C 156.141 116.302,154.295 119.910,154.080 120.125 C 153.654 120.551,143.684 115.313,137.126 111.218 L 133.025 108.657 136.699 105.662 C 146.272 97.860,172.057 81.988,175.251 81.933 C 175.660 81.926,175.385 82.784,174.641 83.840 M346.173 86.592 C 355.921 91.751,365.388 97.883,373.586 104.347 C 378.460 108.189,378.817 108.682,377.426 109.643 C 374.356 111.766,359.173 120.320,358.476 120.320 C 358.082 120.320,356.149 116.960,354.182 112.853 C 351.009 106.233,341.047 89.046,337.363 83.840 C 336.616 82.784,336.307 81.920,336.676 81.920 C 337.044 81.920,341.318 84.022,346.173 86.592 M121.173 138.919 C 125.163 141.445,131.499 145.059,135.253 146.949 C 139.008 148.839,142.218 150.510,142.386 150.663 C 142.554 150.816,141.309 156.051,139.620 162.297 C 133.741 184.030,129.627 208.772,128.323 230.238 L 127.743 239.787 96.199 239.787 L 64.655 239.787 65.237 234.027 C 68.519 201.592,83.728 164.610,104.860 137.677 C 109.633 131.593,109.662 131.573,111.787 132.946 C 112.960 133.704,117.184 136.392,121.173 138.919 M407.328 138.027 C 427.799 163.505,443.493 201.709,446.763 234.027 L 447.345 239.787 415.673 239.787 L 384.000 239.787 384.000 235.496 C 384.000 233.136,383.408 225.552,382.684 218.642 C 380.443 197.248,377.550 181.433,372.378 162.297 C 370.690 156.051,369.446 150.830,369.614 150.695 C 369.782 150.561,373.530 148.567,377.943 146.265 C 382.355 143.963,389.267 139.904,393.303 137.245 C 397.338 134.586,401.103 132.378,401.670 132.338 C 402.236 132.299,404.782 134.859,407.328 138.027 M204.800 171.533 C 211.605 172.901,222.261 174.500,228.480 175.086 L 239.787 176.152 239.787 207.969 L 239.787 239.787 199.628 239.787 L 159.470 239.787 159.998 233.600 C 162.186 207.973,165.046 190.987,170.751 169.728 L 172.491 163.242 182.459 166.144 C 187.941 167.740,197.995 170.165,204.800 171.533 M343.052 176.686 C 347.170 192.999,350.157 211.991,352.002 233.600 L 352.530 239.787 312.372 239.787 L 272.213 239.787 272.213 207.787 L 272.213 175.787 275.875 175.787 C 286.236 175.787,312.265 171.116,329.617 166.143 C 340.839 162.928,339.267 161.694,343.052 176.686 M128.323 281.762 C 129.627 303.228,133.741 327.970,139.620 349.703 C 141.309 355.949,142.554 361.175,142.386 361.317 C 142.218 361.458,138.624 363.347,134.400 365.515 C 130.176 367.682,122.906 371.921,118.243 374.934 L 109.767 380.412 105.535 375.166 C 84.478 349.061,68.541 310.622,65.237 277.973 L 64.655 272.213 96.199 272.213 L 127.743 272.213 128.323 281.762 M239.787 304.031 L 239.787 335.848 228.480 336.914 C 215.081 338.178,196.298 341.827,182.459 345.856 L 172.491 348.758 170.751 342.272 C 165.046 321.013,162.186 304.027,159.998 278.400 L 159.470 272.213 199.628 272.213 L 239.787 272.213 239.787 304.031 M352.002 278.400 C 349.796 304.232,346.180 324.886,340.005 346.932 C 339.518 348.668,339.390 348.655,329.896 345.926 C 312.524 340.933,286.276 336.213,275.875 336.213 L 272.213 336.213 272.213 304.213 L 272.213 272.213 312.372 272.213 L 352.530 272.213 352.002 278.400 M446.763 277.973 C 444.844 296.933,437.758 320.911,428.386 340.156 C 422.538 352.163,411.835 369.024,405.429 376.320 C 402.511 379.645,401.848 380.023,400.496 379.141 C 393.835 374.797,380.073 366.648,375.742 364.485 C 372.843 363.036,370.237 361.474,369.952 361.012 C 369.667 360.550,370.398 356.843,371.578 352.774 C 377.735 331.534,384.000 293.071,384.000 276.504 L 384.000 272.213 415.673 272.213 L 447.345 272.213 446.763 277.973 M239.787 406.160 C 239.787 449.568,240.607 445.640,232.533 440.911 C 220.942 434.123,209.931 423.020,199.790 407.893 C 192.451 396.946,183.965 381.037,184.592 379.402 C 185.591 376.797,223.498 368.601,237.867 367.883 L 239.787 367.787 239.787 406.160 M283.870 369.065 C 301.960 371.305,326.537 377.132,327.402 379.386 C 328.434 382.075,313.222 407.866,303.812 419.382 C 295.221 429.896,282.031 440.812,274.422 443.705 L 272.213 444.544 272.213 406.166 C 272.213 385.057,272.513 367.787,272.879 367.787 C 273.245 367.787,278.191 368.362,283.870 369.065 M158.062 399.625 C 161.872 407.505,171.163 423.497,174.220 427.437 C 175.095 428.565,175.633 429.665,175.415 429.882 C 174.134 431.164,146.678 414.471,136.727 406.361 L 133.080 403.389 135.020 402.021 C 137.530 400.252,153.011 391.680,153.697 391.680 C 153.985 391.680,155.950 395.255,158.062 399.625 M367.188 396.254 C 380.437 403.758,379.851 402.714,373.586 407.653 C 370.631 409.983,365.241 413.880,361.607 416.313 C 354.689 420.945,337.207 430.505,336.659 429.957 C 336.484 429.782,337.867 427.338,339.733 424.526 C 344.175 417.833,351.810 404.283,355.096 397.261 C 356.532 394.191,358.023 391.680,358.409 391.680 C 358.795 391.680,362.745 393.738,367.188 396.254 " stroke="none" fill="black" fill-rule="evenodd"></path></svg>