<svg xmlns="http://www.w3.org/2000/svg" width="512" height="512" viewBox="0 0 512 512"><path d="M239.787 168.036 C 239.787 312.194,239.710 320.000,238.293 320.001 C 233.557 320.004,211.993 322.993,201.348 325.122 C 150.822 335.226,106.524 359.918,79.914 392.810 C 65.516 410.608,56.341 428.736,50.688 450.560 C 48.381 459.464,46.989 481.591,48.151 490.890 L 48.763 495.787 255.989 495.787 L 463.214 495.787 463.836 489.173 C 464.677 480.217,463.707 460.697,462.071 453.642 C 458.403 437.823,450.592 419.440,441.828 406.001 C 420.743 373.665,385.011 347.830,341.333 333.344 C 321.204 326.667,300.829 322.477,278.394 320.399 L 272.202 319.826 272.421 260.919 L 272.640 202.012 359.669 157.360 C 407.534 132.802,446.786 112.405,446.894 112.034 C 447.043 111.521,245.201 17.876,240.737 16.388 C 240.041 16.156,239.787 56.756,239.787 168.036 M272.007 368.000 L 272.228 415.573 256.007 415.573 L 239.787 415.573 239.787 368.356 C 239.787 342.386,240.051 320.873,240.374 320.550 C 240.697 320.227,247.897 320.067,256.374 320.195 L 271.787 320.427 272.007 368.000 " stroke="none" fill="black" fill-rule="evenodd"></path></svg>