<svg xmlns="http://www.w3.org/2000/svg" width="512" height="512" viewBox="0 0 512 512"><path d="M57.600 33.614 C 43.634 38.080,34.365 49.297,32.451 64.047 C 31.367 72.398,31.366 199.790,32.449 208.213 C 34.317 222.726,44.232 234.409,58.105 238.442 C 62.350 239.676,70.839 239.798,137.926 239.592 L 212.996 239.360 219.429 236.181 C 227.293 232.294,232.865 226.617,236.642 218.644 L 239.360 212.907 239.592 137.881 C 239.844 56.129,239.956 58.294,235.037 49.901 C 231.851 44.464,225.365 38.549,219.334 35.580 L 213.797 32.853 137.405 32.688 C 77.344 32.558,60.284 32.756,57.600 33.614 M297.204 33.655 C 289.415 36.110,281.065 42.799,276.903 49.920 C 272.057 58.210,272.157 56.262,272.408 137.881 L 272.640 212.907 275.358 218.644 C 279.135 226.617,284.707 232.294,292.571 236.181 L 299.004 239.360 374.142 239.592 C 447.563 239.818,449.410 239.784,454.985 238.090 C 468.087 234.111,477.727 222.386,479.551 208.213 C 480.634 199.790,480.633 72.398,479.549 64.047 C 477.886 51.232,470.538 40.902,459.299 35.578 L 453.547 32.853 377.173 32.688 C 315.705 32.555,300.098 32.744,297.204 33.655 M56.900 273.883 C 43.713 278.121,34.265 289.676,32.449 303.787 C 31.366 312.210,31.367 439.602,32.451 447.953 C 34.678 465.116,46.884 477.322,64.047 479.549 C 72.367 480.629,199.805 480.635,208.118 479.556 C 216.294 478.494,222.452 475.610,228.250 470.127 C 233.714 464.959,236.529 460.477,238.442 453.895 C 239.676 449.650,239.798 441.161,239.592 374.074 L 239.360 299.004 236.181 292.571 C 232.294 284.707,226.617 279.135,218.644 275.358 L 212.907 272.640 137.387 272.463 C 65.674 272.295,61.616 272.367,56.900 273.883 M297.376 273.748 C 287.155 277.283,279.915 283.737,275.340 293.393 L 272.640 299.093 272.408 374.119 C 272.203 440.795,272.329 449.675,273.542 453.906 C 277.505 467.724,289.247 477.680,303.787 479.551 C 312.210 480.634,439.602 480.633,447.953 479.549 C 465.116 477.322,477.322 465.116,479.549 447.953 C 480.629 439.633,480.635 312.195,479.556 303.882 C 477.697 289.565,468.248 277.996,455.095 273.933 C 449.691 272.264,447.348 272.214,375.590 272.241 C 307.701 272.267,301.303 272.390,297.376 273.748 " stroke="none" fill="black" fill-rule="evenodd"></path></svg>