<svg xmlns="http://www.w3.org/2000/svg" width="512" height="512" viewBox="0 0 512 512"><path d="M236.800 34.161 C 226.476 36.332,218.028 39.390,207.787 44.662 C 200.464 48.433,197.977 50.327,190.257 58.021 C 177.891 70.345,176.213 72.995,176.213 80.203 C 176.213 87.352,178.538 91.214,184.701 94.308 C 189.979 96.957,191.824 96.953,200.201 94.272 C 213.357 90.063,227.407 90.554,242.347 95.747 C 264.634 103.494,275.707 117.665,277.836 141.164 C 278.397 147.348,278.384 147.401,274.330 155.249 C 272.092 159.582,267.384 167.224,263.868 172.230 C 260.351 177.237,256.950 182.569,256.310 184.079 C 254.781 187.687,254.836 192.157,256.458 196.081 C 258.075 199.994,293.370 235.733,297.993 238.139 C 301.926 240.186,308.854 240.299,312.576 238.376 C 314.078 237.601,319.723 233.063,325.120 228.293 C 339.545 215.544,344.248 211.903,350.117 208.940 C 356.212 205.863,364.021 204.842,368.967 206.474 L 372.100 207.508 369.405 210.578 C 367.922 212.267,366.000 215.210,365.133 217.118 C 362.959 221.904,362.991 230.477,365.200 235.037 C 367.484 239.751,404.460 276.473,409.600 279.132 C 415.398 282.131,423.234 281.903,429.020 278.567 C 434.251 275.551,491.461 219.280,493.702 214.946 C 494.521 213.363,495.371 209.553,495.590 206.481 C 496.281 196.831,495.095 195.082,472.918 173.041 C 460.873 161.069,452.094 153.038,449.707 151.805 C 444.552 149.145,436.259 149.020,431.240 151.528 L 427.706 153.294 427.364 145.127 C 427.093 138.672,426.567 135.974,424.851 132.256 C 421.987 126.050,410.589 111.961,398.933 100.220 C 366.820 67.871,317.801 40.395,280.970 34.099 C 267.818 31.850,247.657 31.879,236.800 34.161 M223.900 208.120 C 218.715 209.454,213.059 212.794,207.896 217.570 C 205.020 220.231,162.686 259.300,113.821 304.391 C 64.956 349.482,23.975 387.685,22.753 389.287 C 18.066 395.433,16.641 399.988,16.641 408.833 C 16.640 421.793,17.784 423.489,45.271 451.266 C 69.917 476.172,72.476 478.113,82.369 479.394 C 93.923 480.890,102.575 477.357,112.835 466.953 C 116.404 463.334,156.239 420.821,201.358 372.480 C 294.544 272.638,288.853 279.603,288.853 265.405 C 288.853 252.623,287.636 250.635,267.257 230.144 C 247.482 210.260,244.188 208.093,233.118 207.680 C 229.511 207.546,225.363 207.744,223.900 208.120 " stroke="none" fill="black" fill-rule="evenodd"></path></svg>