<svg xmlns="http://www.w3.org/2000/svg" width="512" height="512" viewBox="0 0 512 512"><path d="M262.229 1.537 C 253.110 4.795,246.404 11.586,243.143 20.864 C 241.547 25.404,241.493 28.938,241.493 128.865 L 241.493 232.173 234.027 231.927 L 226.560 231.680 226.133 151.448 L 225.707 71.216 222.913 65.541 C 212.330 44.047,185.263 42.206,172.490 62.112 C 167.004 70.660,167.253 64.369,167.253 194.352 L 167.253 312.398 161.600 312.146 L 155.947 311.893 140.709 274.773 C 118.825 221.464,118.851 221.524,114.975 217.120 C 98.920 198.881,71.406 206.238,65.205 230.428 C 62.496 240.993,61.940 239.110,95.981 334.507 C 133.343 439.212,130.664 431.954,135.775 442.285 C 146.790 464.546,165.762 484.736,185.173 494.855 C 203.770 504.549,233.813 510.607,268.800 511.718 C 371.287 514.973,433.860 465.326,446.438 370.773 C 447.337 364.013,447.573 337.060,447.573 241.067 L 447.573 119.893 444.835 114.112 C 441.284 106.615,435.174 100.597,428.597 98.116 C 421.498 95.438,411.794 95.979,405.503 99.403 C 399.801 102.507,394.725 107.993,391.817 114.197 L 389.547 119.040 389.312 183.019 C 389.183 218.207,388.766 247.309,388.385 247.690 C 388.003 248.071,384.563 248.122,380.740 247.803 L 373.788 247.224 373.561 151.132 L 373.333 55.040 371.063 50.197 C 367.933 43.519,362.630 38.056,356.213 34.897 C 351.252 32.454,350.276 32.271,343.735 32.559 C 338.503 32.789,335.576 33.393,332.587 34.858 C 327.550 37.328,321.554 43.067,319.209 47.664 C 314.806 56.295,314.880 54.609,314.880 146.526 L 314.880 232.107 307.627 232.107 L 300.373 232.107 300.352 130.347 C 300.339 64.881,300.024 27.252,299.469 24.845 C 297.239 15.171,290.042 6.018,281.799 2.371 C 276.181 -0.114,267.844 -0.469,262.229 1.537 " stroke="none" fill="black" fill-rule="evenodd"></path></svg>