<svg xmlns="http://www.w3.org/2000/svg" width="512" height="512" viewBox="0 0 512 512"><path d="M268.122 1.616 C 261.903 3.764,257.742 7.376,254.720 13.250 L 252.160 18.225 251.733 126.085 L 251.307 233.945 248.119 236.866 C 245.471 239.292,244.278 239.787,241.067 239.787 C 237.856 239.787,236.662 239.292,234.014 236.866 L 230.827 233.945 230.400 150.466 L 229.973 66.987 227.583 62.119 C 218.331 43.279,188.561 43.651,179.531 62.720 L 177.510 66.987 177.502 187.136 C 177.493 315.164,177.618 311.107,173.615 312.643 C 170.688 313.766,167.110 313.157,165.451 311.253 C 164.530 310.197,154.096 289.584,142.262 265.446 C 118.347 216.663,117.659 215.585,107.328 210.765 C 100.206 207.442,94.053 206.778,87.009 208.574 C 70.268 212.842,61.306 227.933,64.811 245.952 C 65.649 250.259,124.787 397.741,138.643 430.080 C 159.625 479.049,189.288 502.372,240.304 510.014 C 254.981 512.212,301.756 512.241,315.307 510.060 C 352.707 504.040,384.491 487.352,406.189 462.343 C 428.175 437.001,441.539 404.772,446.459 365.227 C 447.329 358.232,447.573 329.593,447.573 234.667 L 447.573 113.067 445.726 109.653 C 443.239 105.060,438.166 100.310,433.493 98.199 C 428.729 96.046,419.297 95.843,413.639 97.771 C 408.200 99.624,402.579 104.817,400.119 110.261 L 398.080 114.773 397.653 182.311 C 397.236 248.315,397.188 249.892,395.522 251.732 C 390.510 257.269,383.463 257.268,378.451 251.731 C 376.773 249.878,376.740 248.305,376.320 150.737 C 375.896 52.215,375.883 51.604,374.097 47.743 C 371.437 41.995,367.465 37.945,361.624 35.027 C 352.162 30.299,340.123 31.757,332.385 38.568 C 330.227 40.467,327.614 43.606,326.578 45.544 L 324.693 49.067 324.267 140.800 C 323.856 229.107,323.779 232.623,322.220 234.924 C 317.829 241.403,307.430 241.165,303.628 234.499 C 302.725 232.915,302.424 211.637,302.080 125.013 L 301.653 17.493 299.006 12.800 C 292.945 2.054,280.208 -2.558,268.122 1.616 " stroke="none" fill="black" fill-rule="evenodd"></path></svg>