<svg xmlns="http://www.w3.org/2000/svg" width="512" height="512" viewBox="0 0 512 512"><path d="M235.093 32.977 C 205.713 36.106,172.684 47.254,146.115 63.009 C 105.778 86.929,74.243 120.766,54.135 161.707 C 43.271 183.824,36.853 205.081,33.650 229.547 C 31.881 243.064,32.354 276.773,34.489 289.280 C 40.700 325.680,53.178 361.909,71.780 397.563 C 94.677 441.447,115.332 468.519,132.267 476.841 C 142.484 481.861,158.663 479.962,186.165 470.514 C 199.643 465.884,224.898 455.491,234.714 450.536 L 239.870 447.933 234.068 437.018 C 203.383 379.285,128.258 240.658,127.652 240.650 C 127.227 240.645,114.997 247.578,100.476 256.059 C 85.954 264.539,73.888 271.292,73.662 271.066 C 73.435 270.840,73.038 265.533,72.780 259.274 C 71.754 234.445,76.704 207.151,86.330 184.560 C 100.654 150.946,125.903 120.859,157.013 100.333 C 229.929 52.226,322.841 62.371,385.350 125.265 C 416.975 157.085,434.674 194.513,438.698 238.080 C 439.556 247.373,439.296 270.109,438.320 271.085 C 438.134 271.270,426.352 264.637,412.137 256.343 C 397.922 248.049,385.680 241.112,384.933 240.928 C 383.898 240.672,370.409 265.069,328.374 343.229 C 298.015 399.680,273.055 446.411,272.907 447.077 C 272.431 449.236,306.437 464.077,329.738 471.879 C 354.032 480.014,370.042 481.603,379.733 476.841 C 392.719 470.460,408.786 452.026,424.952 424.960 C 455.345 374.076,473.901 323.535,478.760 278.404 C 480.307 264.039,479.407 233.677,477.036 220.270 C 470.563 183.653,454.867 149.079,431.274 119.467 C 423.251 109.396,402.259 88.618,392.533 81.120 C 360.564 56.474,328.821 42.152,290.133 34.917 C 282.125 33.420,276.475 33.039,259.413 32.848 C 247.915 32.719,236.971 32.777,235.093 32.977 " stroke="none" fill="black" fill-rule="evenodd"></path></svg>