<svg xmlns="http://www.w3.org/2000/svg" width="512" height="512" viewBox="0 0 512 512"><path d="M243.200 48.291 C 189.307 52.936,145.591 72.806,109.198 109.198 C 75.814 142.582,55.864 183.304,49.403 231.253 C 47.996 241.696,47.996 270.304,49.403 280.747 C 55.866 328.705,75.852 369.495,109.198 402.781 C 142.761 436.282,182.341 455.687,231.253 462.621 C 235.243 463.187,246.379 463.649,256.000 463.649 C 284.931 463.649,308.731 459.018,334.933 448.289 C 361.056 437.593,386.578 420.224,405.701 400.129 C 437.387 366.832,455.931 327.939,462.621 280.747 C 463.187 276.757,463.649 265.621,463.649 256.000 C 463.649 227.171,459.011 203.251,448.395 177.325 C 432.022 137.342,403.062 103.108,365.227 79.011 C 343.385 65.100,312.181 53.926,283.992 49.922 C 275.151 48.666,250.352 47.675,243.200 48.291 M166.131 161.322 C 169.364 162.526,348.822 341.779,350.379 345.359 C 352.017 349.126,351.875 355.669,350.079 359.193 C 346.231 366.739,336.832 369.898,329.225 366.202 C 326.598 364.925,299.900 338.743,235.798 274.580 C 153.539 192.243,145.966 184.429,145.051 180.943 C 141.671 168.071,153.841 156.743,166.131 161.322 M219.678 169.390 C 228.417 171.241,238.249 176.490,246.838 183.888 C 250.928 187.411,255.051 190.293,256.000 190.293 C 256.949 190.293,261.072 187.411,265.162 183.888 C 273.751 176.490,283.583 171.241,292.322 169.390 C 318.119 163.925,343.439 176.764,354.582 200.960 C 358.738 209.985,359.687 214.964,359.622 227.413 C 359.531 244.783,355.757 259.319,346.973 276.140 C 341.472 286.672,333.263 298.405,330.860 299.167 C 328.868 299.800,329.603 300.507,254.507 225.714 C 219.262 190.612,202.240 173.088,202.240 171.907 C 202.240 170.943,202.701 169.694,203.264 169.131 C 204.653 167.742,212.481 167.865,219.678 169.390 M219.666 281.426 C 265.135 326.715,280.747 342.765,280.747 344.224 C 280.747 345.733,278.835 347.529,272.432 352.036 C 255.879 363.689,254.996 363.528,228.693 344.059 C 178.507 306.912,154.869 272.048,152.194 231.228 C 151.570 221.697,152.238 219.893,156.233 220.330 C 158.062 220.529,172.188 234.135,219.666 281.426 " stroke="none" fill="black" fill-rule="evenodd"></path></svg>