<svg xmlns="http://www.w3.org/2000/svg" width="512" height="512" viewBox="0 0 512 512"><path d="M229.973 33.372 C 126.605 45.769,44.509 128.455,33.327 231.433 C 32.168 242.102,32.168 269.898,33.327 280.567 C 41.551 356.303,88.558 423.106,157.440 456.948 C 178.275 467.185,199.631 473.930,222.860 477.613 C 236.686 479.805,275.314 479.805,289.140 477.613 C 362.836 465.930,424.418 420.772,456.948 354.560 C 464.552 339.084,469.019 326.969,473.049 310.900 C 478.303 289.947,479.147 282.350,479.147 256.000 C 479.147 229.650,478.303 222.053,473.049 201.100 C 459.493 147.040,425.874 99.778,378.818 68.629 C 360.271 56.352,334.000 44.716,312.566 39.283 C 291.881 34.040,283.996 33.080,259.413 32.806 C 246.976 32.667,233.728 32.922,229.973 33.372 M196.275 124.581 C 197.678 147.253,198.817 166.609,198.805 167.595 C 198.790 168.787,197.304 170.385,194.361 172.373 C 188.669 176.219,176.219 188.669,172.373 194.361 C 170.583 197.011,168.747 198.791,167.789 198.805 C 165.475 198.837,96.278 194.689,89.028 194.084 L 82.908 193.574 83.802 190.867 C 84.293 189.378,87.074 183.168,89.983 177.067 C 99.505 157.090,108.700 143.957,124.510 127.750 C 139.234 112.656,153.808 101.721,170.953 92.902 C 179.553 88.479,192.998 82.634,193.475 83.111 C 193.612 83.247,194.872 101.909,196.275 124.581 M336.640 90.878 C 356.289 100.393,372.047 111.851,387.871 128.127 C 401.466 142.111,411.637 156.140,419.640 171.947 C 423.694 179.952,429.319 193.046,428.889 193.475 C 428.633 193.732,347.594 198.844,344.405 198.805 C 343.213 198.790,341.615 197.304,339.627 194.361 C 335.781 188.669,323.331 176.219,317.639 172.373 C 315.207 170.731,313.207 168.805,313.195 168.095 C 313.183 167.384,314.325 147.998,315.733 125.013 C 317.141 102.029,318.293 83.125,318.293 83.005 C 318.293 82.449,326.547 85.990,336.640 90.878 M268.623 193.348 C 312.220 202.287,333.767 251.956,310.336 289.504 C 288.357 324.726,240.123 330.358,210.883 301.117 C 182.358 272.592,186.899 225.737,220.398 202.939 C 234.225 193.529,252.132 189.968,268.623 193.348 M172.373 317.672 C 176.152 323.308,188.579 335.713,194.366 339.627 C 197.702 341.883,198.785 343.135,198.792 344.747 C 198.808 348.626,193.777 428.587,193.499 428.865 C 192.953 429.412,178.918 423.252,170.209 418.643 C 153.739 409.926,142.204 401.486,128.111 387.845 C 116.961 377.051,110.541 369.352,102.138 356.693 C 96.288 347.882,86.580 329.160,84.127 321.962 C 82.907 318.380,82.921 318.292,84.745 318.228 C 85.773 318.192,103.317 317.091,123.733 315.782 C 174.375 312.534,168.783 312.317,172.373 317.672 M386.923 315.729 C 409.873 317.135,428.760 318.395,428.894 318.529 C 429.367 319.003,423.502 332.485,419.098 341.047 C 404.748 368.946,380.122 395.536,353.041 412.369 C 346.116 416.674,326.374 426.469,321.149 428.193 L 318.458 429.080 317.936 422.540 C 317.649 418.943,316.427 399.522,315.220 379.382 C 313.221 346.017,313.147 342.696,314.386 342.002 C 321.153 338.216,337.017 322.527,341.165 315.520 C 341.929 314.229,343.149 313.173,343.876 313.173 C 344.602 313.173,363.974 314.324,386.923 315.729 " stroke="none" fill="black" fill-rule="evenodd"></path></svg>