<svg xmlns="http://www.w3.org/2000/svg" width="512" height="512" viewBox="0 0 512 512"><path d="M128.414 151.591 C 58.490 217.131,1.152 271.083,0.996 271.484 C 0.839 271.885,14.951 272.213,32.356 272.213 L 64.000 272.213 64.000 376.325 L 64.000 480.436 135.893 480.218 L 207.787 480.000 208.004 400.000 L 208.222 320.000 256.000 320.000 L 303.778 320.000 303.996 400.000 L 304.213 480.000 376.107 480.218 L 448.000 480.436 448.000 376.325 L 448.000 272.213 479.573 272.213 C 496.939 272.213,511.147 271.975,511.147 271.683 C 511.147 271.391,489.837 249.554,463.792 223.156 L 416.438 175.160 416.219 111.687 L 416.000 48.213 376.107 47.992 L 336.213 47.770 336.213 76.792 C 336.213 92.754,336.012 105.813,335.766 105.813 C 335.519 105.813,317.579 89.301,295.899 69.120 C 274.219 48.939,256.271 32.427,256.014 32.427 C 255.758 32.427,198.338 86.051,128.414 151.591 " stroke="none" fill="black" fill-rule="evenodd"></path></svg>