<svg xmlns="http://www.w3.org/2000/svg" width="512" height="512" viewBox="0 0 512 512"><path d="M245.603 33.577 C 243.874 34.221,240.934 35.665,239.070 36.787 C 237.206 37.909,192.157 80.479,138.960 131.388 C 20.783 244.485,18.841 246.376,17.385 249.786 C 15.894 253.281,15.885 258.683,17.366 262.227 C 19.885 268.257,28.435 273.024,34.418 271.736 C 39.375 270.669,42.166 268.629,52.907 258.226 L 63.573 247.893 64.000 351.573 C 64.399 448.420,64.527 455.506,65.947 459.093 C 69.388 467.784,76.062 474.353,85.210 478.052 L 90.027 480.000 142.933 480.000 L 195.840 480.000 199.395 478.099 C 203.271 476.027,205.702 473.068,207.229 468.566 C 207.941 466.468,208.213 446.194,208.213 395.327 L 208.213 324.989 210.708 322.494 L 213.202 320.000 256.000 320.000 L 298.798 320.000 301.292 322.494 L 303.787 324.989 303.787 395.327 C 303.787 446.194,304.059 466.468,304.771 468.566 C 306.298 473.068,308.729 476.027,312.605 478.099 L 316.160 480.000 369.067 480.000 L 421.973 480.000 426.790 478.052 C 436.746 474.027,443.236 467.189,446.289 457.510 C 447.961 452.209,448.000 449.792,448.000 350.203 C 448.000 294.168,448.295 248.320,448.655 248.320 C 449.015 248.320,453.527 252.571,458.681 257.766 C 471.476 270.661,476.440 273.353,483.780 271.376 C 490.707 269.511,495.787 263.041,495.787 256.083 C 495.787 248.614,498.373 251.501,451.234 206.350 L 416.495 173.076 416.248 116.618 L 416.000 60.160 414.099 56.605 C 412.027 52.729,409.068 50.298,404.566 48.771 C 400.790 47.490,352.494 47.422,347.923 48.691 C 344.534 49.633,339.423 53.601,337.674 56.650 C 336.991 57.841,336.495 64.797,336.213 77.119 L 335.787 95.785 306.083 67.306 C 270.766 33.445,270.150 33.007,257.280 32.647 C 251.606 32.488,247.693 32.800,245.603 33.577 M322.261 127.147 C 358.283 161.643,394.012 195.819,401.659 203.093 L 415.563 216.320 415.568 332.160 L 415.573 448.000 375.893 448.000 L 336.213 448.000 336.199 386.773 C 336.187 337.476,335.950 324.444,334.984 319.888 C 331.992 305.769,321.645 294.262,308.213 290.113 C 303.055 288.520,300.153 288.427,255.617 288.427 C 210.669 288.427,208.250 288.506,203.509 290.137 C 193.734 293.500,184.855 301.126,180.340 310.036 C 175.937 318.726,175.817 320.739,175.801 386.773 L 175.787 448.000 136.107 448.000 L 96.427 448.000 96.454 332.160 L 96.481 216.320 176.027 140.189 C 219.777 98.317,255.842 64.141,256.170 64.242 C 256.499 64.344,286.239 92.651,322.261 127.147 M384.000 111.085 L 384.000 141.956 376.533 134.765 C 372.427 130.809,368.785 127.189,368.440 126.720 C 368.095 126.251,367.807 115.595,367.800 103.040 L 367.787 80.213 375.893 80.213 L 384.000 80.213 384.000 111.085 " stroke="none" fill="black" fill-rule="evenodd"></path></svg>