<svg xmlns="http://www.w3.org/2000/svg" width="512" height="512" viewBox="0 0 512 512"><path d="M95.573 87.992 L 95.573 143.558 104.775 153.059 C 151.181 200.977,203.520 255.540,203.520 256.000 C 203.520 256.460,151.158 311.047,104.769 358.947 L 95.561 368.455 95.780 424.227 L 96.000 480.000 256.000 480.000 L 416.000 480.000 416.220 424.227 L 416.439 368.455 407.231 358.947 C 360.842 311.047,308.480 256.460,308.480 256.000 C 308.480 255.540,360.819 200.977,407.225 153.059 L 416.427 143.558 416.427 87.992 L 416.427 32.427 256.000 32.427 L 95.573 32.427 95.573 87.992 M312.103 184.110 L 272.213 224.007 272.213 280.145 L 272.213 336.284 317.325 383.822 L 362.437 431.360 309.285 431.580 C 280.051 431.701,231.936 431.701,202.362 431.580 L 148.592 431.360 194.189 383.814 L 239.787 336.267 239.787 280.137 L 239.787 224.007 199.897 184.110 L 160.007 144.213 256.000 144.213 L 351.993 144.213 312.103 184.110 " stroke="none" fill="black" fill-rule="evenodd"></path></svg>