<svg xmlns="http://www.w3.org/2000/svg" width="512" height="512" viewBox="0 0 512 512"><path d="M231.609 48.631 C 161.576 54.531,99.541 96.929,68.657 160.000 C 54.413 189.089,48.419 215.090,48.397 247.893 C 48.374 280.414,54.682 307.765,68.753 336.160 C 79.303 357.448,90.767 373.399,107.447 389.999 C 160.661 442.955,239.462 461.400,311.040 437.654 C 411.321 404.386,468.272 298.674,441.084 196.267 C 428.226 147.833,396.067 104.529,353.137 77.840 C 329.874 63.377,301.310 53.304,272.880 49.537 C 263.314 48.270,241.566 47.792,231.609 48.631 M266.667 81.104 C 342.930 89.810,403.116 148.303,414.249 224.536 C 415.938 236.103,415.955 259.495,414.283 271.260 C 411.659 289.719,407.250 304.085,398.932 321.280 C 374.529 371.724,326.976 406.364,271.260 414.283 C 259.495 415.955,236.103 415.938,224.536 414.249 C 152.406 403.715,96.012 349.462,82.682 277.781 C 80.164 264.239,79.591 240.958,81.433 226.987 C 85.419 196.744,96.029 170.763,114.364 146.347 C 136.988 116.218,171.838 93.575,209.493 84.537 C 226.145 80.541,249.467 79.141,266.667 81.104 M242.472 130.584 C 234.825 132.170,227.660 138.135,224.103 145.877 C 221.585 151.357,221.639 161.107,224.218 166.400 C 227.017 172.145,230.551 175.982,235.643 178.802 C 239.765 181.085,240.967 181.333,247.893 181.325 C 254.578 181.319,256.142 181.019,259.958 179.013 C 275.022 171.094,278.456 151.262,266.944 138.666 C 260.635 131.762,251.436 128.724,242.472 130.584 M213.760 205.560 C 199.742 212.029,201.399 231.356,216.320 235.431 C 218.197 235.944,223.481 236.366,228.061 236.369 L 236.389 236.373 236.168 280.107 L 235.947 323.840 219.307 324.267 C 200.409 324.751,198.774 325.218,194.770 331.268 C 192.853 334.165,192.427 335.762,192.427 340.053 C 192.427 346.681,195.204 351.347,200.746 354.030 C 204.419 355.808,205.326 355.840,251.947 355.840 C 283.406 355.840,300.219 355.534,301.811 354.932 C 304.715 353.835,308.663 350.221,310.141 347.307 C 313.159 341.357,312.291 334.770,307.817 329.675 C 303.454 324.706,301.501 324.267,283.761 324.267 L 267.947 324.267 267.947 270.479 C 267.947 211.433,268.125 213.544,262.715 208.541 C 258.187 204.353,255.768 203.945,235.606 203.965 C 219.512 203.982,216.740 204.184,213.760 205.560 " stroke="none" fill="black" fill-rule="evenodd"></path></svg>