<svg xmlns="http://www.w3.org/2000/svg" viewBox="0 0 512 512"><path d="M229.973 33.420 C 181.245 38.921,133.069 62.379,97.555 97.898 C 71.320 124.136,51.231 157.965,41.018 193.099 C 37.824 204.089,34.493 220.688,33.327 231.433 C 32.168 242.102,32.168 269.898,33.327 280.567 C 37.063 314.976,49.811 350.123,69.002 378.924 C 78.836 393.682,85.770 402.225,97.384 413.895 C 131.050 447.722,174.939 470.027,222.720 477.593 C 236.691 479.805,275.239 479.817,289.140 477.613 C 387.119 462.080,462.080 387.119,477.613 289.140 C 479.805 275.314,479.805 236.686,477.613 222.860 C 462.665 128.572,392.295 54.878,299.520 36.356 C 293.653 35.185,285.124 33.821,280.567 33.327 C 270.782 32.264,239.708 32.322,229.973 33.420 M256.000 119.794 L 256.000 175.588 261.760 176.188 C 282.326 178.330,298.246 185.630,312.002 199.226 C 327.863 214.901,335.637 233.574,335.637 256.000 C 335.637 278.174,327.927 296.907,312.417 312.417 C 298.777 326.057,282.006 333.793,261.760 335.783 L 256.000 336.349 256.000 392.175 L 256.000 448.000 251.397 448.000 C 248.865 448.000,242.817 447.609,237.957 447.131 C 171.061 440.550,113.118 400.367,83.554 340.053 C 37.052 245.182,76.641 130.143,171.809 83.608 C 196.089 71.735,224.716 64.581,249.813 64.115 L 256.000 64.000 256.000 119.794 M247.893 176.371 C 228.449 178.871,212.922 186.358,199.640 199.640 C 183.880 215.400,176.382 233.569,176.382 256.000 C 176.382 278.179,183.820 296.414,199.226 312.002 C 213.054 325.994,229.728 333.767,250.240 335.783 L 256.000 336.349 256.000 256.068 L 256.000 175.787 253.227 175.915 C 251.701 175.985,249.301 176.190,247.893 176.371 " stroke="none" fill="black" fill-rule="evenodd"></path></svg>