<svg xmlns="http://www.w3.org/2000/svg" width="512" height="512" viewBox="0 0 512 512"><path d="M82.708 18.708 L 80.213 21.202 80.213 64.000 L 80.213 106.798 82.708 109.292 L 85.202 111.787 128.000 111.787 L 170.798 111.787 173.292 109.292 L 175.787 106.798 175.787 64.000 L 175.787 21.202 173.292 18.708 L 170.798 16.213 128.000 16.213 L 85.202 16.213 82.708 18.708 M210.708 18.708 L 208.213 21.202 208.213 64.000 L 208.213 106.798 210.708 109.292 L 213.202 111.787 256.000 111.787 L 298.798 111.787 301.292 109.292 L 303.787 106.798 303.787 64.000 L 303.787 21.202 301.292 18.708 L 298.798 16.213 256.000 16.213 L 213.202 16.213 210.708 18.708 M338.708 18.708 L 336.213 21.202 336.213 64.000 L 336.213 106.798 338.708 109.292 L 341.202 111.787 384.000 111.787 L 426.798 111.787 429.292 109.292 L 431.787 106.798 431.787 64.000 L 431.787 21.202 429.292 18.708 L 426.798 16.213 384.000 16.213 L 341.202 16.213 338.708 18.708 M82.708 146.708 L 80.213 149.202 80.213 192.000 L 80.213 234.798 82.708 237.292 L 85.202 239.787 128.000 239.787 L 170.798 239.787 173.292 237.292 L 175.787 234.798 175.787 192.000 L 175.787 149.202 173.292 146.708 L 170.798 144.213 128.000 144.213 L 85.202 144.213 82.708 146.708 M210.708 146.708 L 208.213 149.202 208.213 192.000 L 208.213 234.798 210.708 237.292 L 213.202 239.787 256.000 239.787 L 298.798 239.787 301.292 237.292 L 303.787 234.798 303.787 192.000 L 303.787 149.202 301.292 146.708 L 298.798 144.213 256.000 144.213 L 213.202 144.213 210.708 146.708 M338.708 146.708 L 336.213 149.202 336.213 192.000 L 336.213 234.798 338.708 237.292 L 341.202 239.787 384.000 239.787 L 426.798 239.787 429.292 237.292 L 431.787 234.798 431.787 192.000 L 431.787 149.202 429.292 146.708 L 426.798 144.213 384.000 144.213 L 341.202 144.213 338.708 146.708 M82.708 274.708 L 80.213 277.202 80.213 320.000 L 80.213 362.798 82.708 365.292 L 85.202 367.787 128.000 367.787 L 170.798 367.787 173.292 365.292 L 175.787 362.798 175.787 320.000 L 175.787 277.202 173.292 274.708 L 170.798 272.213 128.000 272.213 L 85.202 272.213 82.708 274.708 M210.708 274.708 L 208.213 277.202 208.213 320.000 L 208.213 362.798 210.708 365.292 L 213.202 367.787 256.000 367.787 L 298.798 367.787 301.292 365.292 L 303.787 362.798 303.787 320.000 L 303.787 277.202 301.292 274.708 L 298.798 272.213 256.000 272.213 L 213.202 272.213 210.708 274.708 M338.708 274.708 L 336.213 277.202 336.213 320.000 L 336.213 362.798 338.708 365.292 L 341.202 367.787 384.000 367.787 L 426.798 367.787 429.292 365.292 L 431.787 362.798 431.787 320.000 L 431.787 277.202 429.292 274.708 L 426.798 272.213 384.000 272.213 L 341.202 272.213 338.708 274.708 M210.708 402.708 L 208.213 405.202 208.213 448.000 L 208.213 490.798 210.708 493.292 L 213.202 495.787 256.000 495.787 L 298.798 495.787 301.292 493.292 L 303.787 490.798 303.787 448.000 L 303.787 405.202 301.292 402.708 L 298.798 400.213 256.000 400.213 L 213.202 400.213 210.708 402.708 " stroke="none" fill="black" fill-rule="evenodd"></path></svg>