<svg xmlns="http://www.w3.org/2000/svg" width="512" height="512" viewBox="0 0 512 512"><path d="M68.267 81.561 C 56.044 84.777,43.372 94.707,37.738 105.483 C 31.602 117.220,32.000 107.320,32.000 248.320 C 32.000 368.909,32.076 375.286,33.569 380.124 C 35.383 386.004,38.623 392.669,41.508 396.454 C 42.614 397.906,43.520 399.346,43.520 399.654 C 43.520 399.962,36.537 400.213,28.003 400.213 C 13.934 400.213,12.136 400.382,8.746 402.023 C 3.204 404.706,0.427 409.372,0.427 416.000 C 0.427 422.628,3.204 427.294,8.746 429.977 L 12.486 431.787 256.056 431.768 C 493.489 431.750,499.717 431.708,503.197 430.128 C 508.590 427.680,511.573 422.648,511.573 416.000 C 511.573 411.677,511.151 410.117,509.170 407.124 C 505.137 401.029,502.312 400.254,484.053 400.232 C 475.488 400.222,468.480 399.962,468.480 399.654 C 468.480 399.346,469.386 397.906,470.492 396.454 C 473.377 392.669,476.617 386.004,478.431 380.124 C 479.924 375.286,480.000 368.909,480.000 248.320 C 480.000 128.003,479.921 121.320,478.435 116.053 C 473.636 99.049,460.189 85.813,443.341 81.512 C 435.849 79.599,75.543 79.646,68.267 81.561 " stroke="none" fill="black" fill-rule="evenodd"></path></svg>