<svg xmlns="http://www.w3.org/2000/svg" width="512" height="512" viewBox="0 0 512 512"><path d="M232.107 60.953 L 232.107 89.479 227.200 90.437 C 197.208 96.289,172.952 107.396,150.138 125.722 C 118.991 150.742,98.590 185.418,90.437 227.200 L 89.479 232.107 60.526 232.107 L 31.573 232.107 31.573 256.000 L 31.573 279.893 60.526 279.893 L 89.479 279.893 90.437 284.800 C 97.462 320.801,112.717 350.018,137.349 374.651 C 161.982 399.283,191.199 414.538,227.200 421.563 L 232.107 422.521 232.107 451.474 L 232.107 480.427 256.000 480.427 L 279.893 480.427 279.893 451.474 L 279.893 422.521 284.800 421.563 C 340.357 410.722,383.697 377.734,407.587 328.107 C 412.809 317.259,418.193 301.423,420.208 290.987 C 420.979 286.997,421.794 282.869,422.021 281.813 L 422.433 279.893 451.430 279.893 L 480.427 279.893 480.427 256.000 L 480.427 232.107 451.474 232.107 L 422.521 232.107 421.563 227.200 C 415.512 196.192,403.541 170.717,384.126 147.533 C 359.183 117.747,325.485 98.376,284.800 90.437 L 279.893 89.479 279.893 60.953 L 279.893 32.427 256.000 32.427 L 232.107 32.427 232.107 60.953 M276.850 137.926 C 287.477 139.702,299.231 143.632,309.760 148.931 C 332.349 160.299,350.941 178.626,362.262 200.682 C 377.185 229.756,379.926 262.964,369.904 293.249 C 362.233 316.430,347.138 337.500,327.813 352.004 C 313.512 362.737,293.866 371.175,276.053 374.237 C 264.957 376.144,246.353 376.149,235.667 374.248 C 198.500 367.633,165.976 343.582,149.198 310.305 C 143.963 299.922,139.650 287.166,137.760 276.480 C 135.855 265.706,135.855 246.294,137.760 235.520 C 140.601 219.455,147.966 201.450,157.306 187.733 C 162.912 179.502,179.502 162.912,187.733 157.306 C 214.058 139.380,245.121 132.625,276.850 137.926 " stroke="none" fill="black" fill-rule="evenodd"></path></svg>