<svg xmlns="http://www.w3.org/2000/svg" width="512" height="512" viewBox="0 0 512 512"><path d="M31.785 256.213 L 32.000 480.000 256.000 480.000 L 480.000 480.000 480.215 256.213 L 480.430 32.427 256.000 32.427 L 31.570 32.427 31.785 256.213 M213.622 144.427 C 214.271 145.483,224.744 167.351,236.895 193.023 C 249.045 218.695,259.258 239.428,259.590 239.096 C 259.923 238.765,269.967 216.993,281.911 190.714 L 303.628 142.933 329.830 142.708 C 354.565 142.494,356.000 142.566,355.465 143.988 C 355.153 144.816,338.406 176.433,318.249 214.248 L 281.600 283.003 281.600 324.968 L 281.600 366.933 258.133 366.933 L 234.667 366.933 234.667 324.578 L 234.667 282.222 196.693 213.181 C 175.808 175.208,158.720 143.772,158.720 143.323 C 158.720 142.821,169.054 142.507,185.580 142.507 L 212.441 142.507 213.622 144.427 " stroke="none" fill="black" fill-rule="evenodd"></path></svg>