<svg id="icons" xmlns="http://www.w3.org/2000/svg" viewBox="0 0 512 512"><path d="M145.811 17.650 C 144.578 18.415,142.972 20.053,142.242 21.289 C 141.383 22.743,132.610 76.844,117.390 174.542 C 104.452 257.594,93.696 326.274,93.488 327.163 C 93.279 328.052,93.417 328.436,93.795 328.016 C 94.936 326.747,210.988 119.257,211.362 117.817 C 211.630 116.785,165.474 28.879,160.388 20.736 C 157.700 16.431,150.300 14.864,145.811 17.650 M250.453 85.201 C 248.418 86.448,231.737 115.584,168.994 227.491 C 125.599 304.888,89.351 369.557,88.442 371.200 C 87.532 372.843,135.285 325.746,194.559 266.542 L 302.329 158.897 283.574 123.182 C 263.340 84.649,262.627 83.623,256.087 83.630 C 254.397 83.632,251.861 84.339,250.453 85.201 M361.859 122.240 C 343.085 139.706,80.293 399.779,80.872 400.321 C 82.242 401.608,237.979 491.088,242.347 493.098 C 248.815 496.075,258.825 496.614,265.387 494.337 C 269.339 492.966,429.119 402.320,431.217 400.258 C 432.042 399.448,385.378 122.041,383.975 119.421 C 382.491 116.647,377.967 114.353,373.972 114.350 C 370.575 114.347,369.804 114.849,361.859 122.240 " stroke="none" fill="black" fill-rule="evenodd"></path></svg>