<svg version="1.1" xmlns="http://www.w3.org/2000/svg" xmlns:xlink="http://www.w3.org/1999/xlink" x="0px" y="0px" viewBox="0 0 512 512" style="enable-background:new 0 0 512 512;" xml:space="preserve"><path d="M28.160 256.000 L 28.160 483.840 256.000 483.840 L 483.840 483.840 483.840 256.000 L 483.840 28.160 256.000 28.160 L 28.160 28.160 28.160 256.000 M227.384 205.931 C 250.734 257.156,261.780 280.507,262.284 279.709 C 262.689 279.066,276.321 245.341,292.577 204.764 L 322.133 130.987 364.373 130.987 L 406.613 130.987 406.872 133.646 C 407.080 135.781,406.576 136.764,404.312 138.634 C 402.762 139.916,396.597 145.793,390.613 151.695 L 379.733 162.425 379.733 252.530 L 379.733 342.634 392.960 355.840 C 403.647 366.510,406.187 369.499,406.187 371.403 L 406.187 373.760 346.027 373.760 L 285.867 373.760 285.867 371.420 C 285.867 369.517,288.419 366.610,299.544 355.847 L 313.221 342.613 313.197 271.431 C 313.184 232.281,313.006 200.416,312.802 200.621 C 312.597 200.825,297.394 239.189,279.016 285.873 C 260.639 332.557,245.230 371.449,244.775 372.299 C 244.108 373.545,243.088 373.796,239.528 373.589 L 235.108 373.333 195.421 286.741 L 155.733 200.148 155.514 260.941 C 155.332 311.678,155.494 322.191,156.496 324.494 C 157.157 326.012,165.415 336.586,174.849 347.992 C 188.578 364.592,192.000 369.232,192.000 371.245 L 192.000 373.760 146.347 373.760 L 100.693 373.760 100.693 370.965 C 100.693 368.591,103.277 365.031,117.844 347.331 C 127.278 335.870,135.358 325.541,135.800 324.377 C 136.284 323.106,136.584 292.919,136.552 248.864 C 136.503 180.769,136.392 175.307,135.023 173.242 C 134.211 172.018,126.923 163.091,118.827 153.405 C 104.803 136.626,102.619 133.186,104.683 131.121 C 105.000 130.804,125.051 130.644,149.241 130.766 L 193.222 130.987 227.384 205.931 " stroke="none" fill="black" fill-rule="evenodd"></path></svg>