<svg xmlns="http://www.w3.org/2000/svg" width="512" height="512" viewBox="0 0 512 512"><path d="M159.147 64.891 C 112.331 65.839,74.504 67.417,66.271 68.765 C 36.444 73.647,12.599 97.880,5.463 130.560 C 2.935 142.140,0.007 209.450,0.007 256.000 C 0.007 308.076,2.984 371.886,5.958 383.573 C 12.169 407.977,26.757 426.850,47.157 436.875 C 61.052 443.704,63.318 443.951,134.827 446.458 C 175.667 447.889,338.894 447.903,378.027 446.479 C 432.270 444.505,444.169 443.770,451.240 441.962 C 477.603 435.220,498.311 413.312,505.626 384.427 C 507.383 377.490,508.020 371.743,509.033 353.707 C 512.000 300.898,512.712 249.164,511.125 201.813 C 510.059 170.020,507.992 135.650,506.841 130.560 C 499.164 96.637,473.905 72.018,442.916 68.254 C 415.895 64.972,251.354 63.022,159.147 64.891 M280.605 207.219 C 338.174 246.198,351.501 255.568,350.579 256.417 C 349.622 257.299,216.740 347.425,209.707 351.962 L 207.360 353.476 207.360 255.621 C 207.360 177.558,207.576 157.898,208.427 158.418 C 209.013 158.776,241.494 180.736,280.605 207.219 " stroke="none" fill="black" fill-rule="evenodd"></path></svg>