<svg xmlns="http://www.w3.org/2000/svg" viewBox="0 0 512 512"><path d="M224.427 16.724 C 221.845 16.895,213.589 17.439,206.080 17.932 C 166.601 20.526,130.704 27.092,108.069 35.861 C 95.566 40.705,85.368 47.627,74.238 58.824 C 50.901 82.302,37.796 111.962,33.305 151.467 C 32.153 161.593,32.145 256.609,33.294 278.620 C 35.736 325.422,40.970 358.439,50.474 386.987 C 66.324 434.594,94.160 465.628,133.447 479.491 C 148.376 484.759,172.843 490.088,197.450 493.432 C 215.923 495.942,258.940 496.165,275.627 493.837 C 299.682 490.481,319.261 485.528,334.983 478.821 C 339.893 476.726,340.907 475.953,340.907 474.307 C 340.907 469.595,339.446 437.310,339.223 437.079 C 339.087 436.940,335.187 437.784,330.555 438.955 C 308.621 444.502,286.855 447.130,262.827 447.131 C 226.784 447.133,202.938 443.032,187.985 434.261 C 176.283 427.396,166.872 414.870,163.037 401.053 C 161.353 394.983,158.847 375.909,159.631 375.124 C 159.834 374.921,164.609 375.696,170.240 376.846 C 228.916 388.830,278.470 390.519,343.220 382.744 C 373.683 379.086,390.832 374.226,413.614 362.794 C 439.936 349.585,462.438 328.106,468.376 310.524 C 470.701 303.640,473.058 289.765,475.246 270.080 C 478.431 241.423,479.119 226.620,479.115 186.880 L 479.112 148.053 476.764 136.248 C 473.507 119.867,469.356 107.422,462.486 93.440 C 451.214 70.501,433.393 50.828,414.608 40.587 C 395.112 29.957,356.969 21.857,307.627 17.866 C 296.710 16.983,233.593 16.117,224.427 16.724 M197.698 98.197 C 206.597 99.419,215.866 102.579,223.124 106.867 C 232.398 112.346,239.430 120.140,247.967 134.402 C 252.040 141.206,255.676 146.773,256.046 146.773 C 256.417 146.773,259.317 142.301,262.491 136.834 C 270.366 123.274,274.859 117.538,282.133 111.757 C 293.438 102.773,305.643 98.446,322.133 97.574 C 359.894 95.579,387.473 117.132,397.029 156.106 C 398.763 163.180,398.830 165.719,399.130 235.733 L 399.440 308.053 374.710 308.053 L 349.979 308.053 349.640 241.707 C 349.284 171.772,349.296 171.995,345.357 162.791 C 343.317 158.023,336.753 151.496,331.702 149.212 C 327.789 147.442,325.967 147.200,316.567 147.200 C 306.208 147.200,305.707 147.286,300.176 150.009 C 291.354 154.353,286.390 161.094,282.761 173.653 C 281.475 178.106,281.239 184.029,280.955 219.093 L 280.628 259.413 256.006 259.413 L 231.385 259.413 231.044 219.093 C 230.748 184.156,230.506 178.090,229.231 173.653 C 225.628 161.118,220.649 154.355,211.824 150.009 C 206.293 147.286,205.792 147.200,195.433 147.200 C 185.710 147.200,184.323 147.399,180.053 149.411 C 171.920 153.243,166.849 159.924,163.972 170.596 C 162.896 174.591,162.635 186.071,162.359 241.707 L 162.029 308.053 137.335 308.053 L 112.640 308.053 112.645 239.573 C 112.649 183.524,112.879 169.575,113.911 162.728 C 118.399 132.952,134.553 111.200,159.014 101.992 C 170.391 97.710,184.251 96.350,197.698 98.197 " stroke="none" fill="black" fill-rule="evenodd"></path></svg>