<svg xmlns="http://www.w3.org/2000/svg" width="512" height="512" viewBox="0 0 512 512"><path d="M228.693 33.724 C 178.990 40.344,134.997 62.009,99.765 97.214 C 92.918 104.056,84.883 112.725,81.909 116.480 C 68.299 133.663,54.394 158.531,47.077 178.773 C 43.110 189.748,38.127 209.309,36.208 221.440 C 34.123 234.619,33.650 264.185,35.298 278.362 C 38.491 305.833,45.872 330.542,58.014 354.408 C 60.837 359.956,63.147 365.019,63.147 365.658 C 63.147 366.298,56.208 392.036,47.727 422.854 C 39.247 453.671,32.492 479.069,32.716 479.294 C 32.940 479.518,59.399 472.847,91.514 464.469 L 149.904 449.236 158.365 453.306 C 211.835 479.029,271.410 483.037,327.253 464.668 C 403.588 439.559,461.602 373.371,476.120 294.827 C 478.810 280.275,479.559 271.413,479.566 254.046 C 479.574 235.806,478.687 226.014,475.644 210.773 C 467.013 167.540,446.391 129.003,415.102 97.632 C 397.457 79.942,379.141 66.758,356.630 55.544 C 336.106 45.321,316.376 38.886,293.167 34.847 C 279.777 32.517,242.614 31.869,228.693 33.724 M279.040 70.896 C 307.083 74.123,335.910 84.671,359.180 100.218 C 402.751 129.328,430.607 172.314,439.948 224.853 C 441.823 235.401,442.511 261.007,441.244 273.140 C 436.430 319.260,413.607 362.952,378.618 393.032 C 318.034 445.115,234.217 453.227,164.243 413.780 L 155.687 408.956 121.346 417.936 C 102.458 422.875,86.769 426.680,86.481 426.392 C 86.193 426.105,90.068 410.886,95.092 392.573 L 104.227 359.277 99.164 350.944 C 65.705 295.871,62.493 229.836,90.522 173.291 C 100.385 153.394,110.277 139.610,125.804 124.127 C 141.740 108.238,155.375 98.489,175.360 88.700 C 208.035 72.694,242.797 66.725,279.040 70.896 M174.933 151.844 C 169.291 152.983,164.862 156.058,159.200 162.767 C 148.347 175.626,144.066 187.188,143.954 203.947 C 143.825 223.186,150.471 239.893,167.952 264.273 C 192.760 298.872,222.529 326.162,251.733 341.077 C 268.287 349.532,294.272 358.650,306.056 360.140 C 320.090 361.914,333.633 359.624,344.420 353.653 C 358.366 345.933,364.742 338.753,367.865 327.253 C 369.730 320.383,370.467 309.815,369.282 306.922 C 368.606 305.271,329.792 285.918,320.165 282.432 C 313.014 279.842,311.872 280.464,302.867 291.840 C 291.514 306.184,287.839 309.760,284.451 309.760 C 278.654 309.760,256.390 298.489,243.530 289.044 C 226.663 276.655,201.387 245.808,201.387 237.611 C 201.387 235.451,202.675 233.467,207.793 227.747 C 211.510 223.593,215.494 218.012,217.282 214.455 C 220.942 207.176,221.877 211.043,208.893 179.759 C 197.274 151.761,197.376 151.893,187.311 151.893 C 183.396 151.893,179.682 151.747,179.056 151.567 C 178.431 151.388,176.576 151.512,174.933 151.844 " stroke="none" fill="black" fill-rule="evenodd"></path></svg>