<svg xmlns="http://www.w3.org/2000/svg" width="512" height="512" viewBox="0 0 512 512"><path d="M58.788 33.660 C 49.131 36.332,39.342 44.255,35.399 52.589 C 34.208 55.105,32.872 59.950,32.430 63.355 C 31.334 71.796,31.353 436.939,32.451 445.393 C 34.721 462.890,49.040 477.399,66.220 479.612 C 74.255 480.648,439.807 480.607,447.791 479.570 C 462.094 477.712,472.668 468.741,478.015 453.927 L 480.000 448.427 480.234 259.840 C 480.384 138.971,480.164 68.518,479.621 63.636 C 478.135 50.290,472.304 41.658,461.002 36.072 L 454.489 32.853 258.604 32.713 C 102.129 32.600,61.929 32.791,58.788 33.660 M149.505 107.626 C 163.247 110.542,172.591 120.791,175.043 135.638 C 177.561 150.885,169.953 166.071,156.850 171.951 C 135.874 181.365,113.443 171.585,107.991 150.647 C 104.744 138.180,108.039 124.876,116.458 116.458 C 124.553 108.362,137.131 105.001,149.505 107.626 M348.977 203.074 C 379.358 209.343,399.176 233.283,404.089 269.653 C 405.042 276.703,405.304 292.124,405.317 341.973 L 405.333 405.333 373.375 405.333 L 341.417 405.333 341.128 344.107 C 340.867 288.879,340.693 282.384,339.349 277.813 C 336.958 269.686,334.888 265.721,330.696 261.240 C 325.496 255.681,319.874 253.268,310.962 252.772 C 295.958 251.936,284.221 258.940,277.206 272.916 L 274.347 278.613 274.107 341.973 L 273.868 405.333 241.464 405.333 L 209.060 405.333 209.276 305.707 L 209.493 206.080 241.493 206.080 L 273.493 206.080 273.729 219.584 L 273.964 233.088 277.629 228.117 C 285.192 217.862,296.651 209.004,307.346 205.146 C 318.426 201.150,335.525 200.299,348.977 203.074 M170.667 305.493 L 170.667 405.333 138.667 405.333 L 106.667 405.333 106.667 305.493 L 106.667 205.653 138.667 205.653 L 170.667 205.653 170.667 305.493 " stroke="none" fill="black" fill-rule="evenodd"></path></svg>