<svg xmlns="http://www.w3.org/2000/svg" width="512" height="512" viewBox="0 0 512 512"><path d="M244.769 33.724 C 242.581 34.422,204.565 56.716,160.289 83.264 C 75.728 133.967,73.571 135.403,68.798 144.173 C 63.838 153.286,64.000 149.500,64.000 256.000 C 64.000 363.889,63.776 359.195,69.369 368.500 C 73.811 375.889,78.555 379.513,102.827 394.061 C 126.248 408.098,137.943 413.736,147.573 415.631 C 154.122 416.919,173.008 416.192,178.420 414.444 C 195.508 408.922,206.614 396.756,211.273 378.453 C 212.677 372.940,212.818 365.209,213.105 278.004 C 213.325 211.108,213.142 182.512,212.478 180.046 C 210.877 174.102,208.429 173.233,193.280 173.233 C 182.022 173.233,180.146 173.437,177.707 174.924 C 176.181 175.854,174.844 176.717,174.735 176.841 C 174.625 176.965,174.337 219.691,174.095 271.787 C 173.671 362.754,173.589 366.636,172.027 369.783 C 171.132 371.585,168.882 374.064,167.026 375.292 C 164.199 377.163,162.734 377.514,157.986 377.460 C 154.870 377.424,150.597 376.754,148.492 375.971 C 146.386 375.188,135.346 368.943,123.959 362.093 L 103.253 349.639 103.253 257.255 L 103.253 164.871 107.307 162.314 C 109.536 160.908,119.808 154.587,130.133 148.268 C 140.459 141.948,172.827 122.131,202.063 104.229 C 231.298 86.327,255.579 71.680,256.019 71.680 C 256.459 71.680,290.907 92.549,332.570 118.055 L 408.320 164.430 408.320 257.228 L 408.320 350.025 333.227 394.846 C 291.925 419.497,257.488 439.851,256.700 440.077 C 255.852 440.320,246.992 435.577,234.993 428.457 C 223.843 421.840,213.829 416.427,212.741 416.427 C 211.652 416.427,206.444 418.707,201.167 421.493 C 195.891 424.280,189.369 427.378,186.674 428.378 C 178.820 431.294,177.238 435.143,181.973 439.812 C 185.954 443.738,239.321 476.257,244.863 478.133 C 251.044 480.227,260.995 480.219,267.137 478.116 C 269.695 477.241,308.125 454.754,352.539 428.146 C 423.349 385.724,433.821 379.188,437.598 375.055 C 442.193 370.027,445.690 363.545,447.095 357.451 C 447.650 355.045,447.966 318.764,447.979 255.966 C 448.002 149.343,448.173 153.306,443.144 144.065 C 438.340 135.238,435.568 133.392,352.437 83.646 C 309.029 57.670,271.781 35.635,269.663 34.679 C 264.601 32.393,250.615 31.856,244.769 33.724 M286.112 166.423 C 261.246 169.567,243.463 179.544,234.440 195.413 C 230.368 202.575,228.530 210.304,228.455 220.587 C 228.341 236.123,231.897 245.810,240.992 254.736 C 251.699 265.244,268.485 270.897,299.354 274.391 C 327.651 277.594,342.139 281.370,347.274 286.882 C 348.645 288.353,349.013 289.894,349.013 294.162 C 349.013 310.938,336.362 317.931,306.347 317.744 C 277.682 317.566,265.466 311.672,261.501 296.107 C 258.356 283.758,257.668 283.307,241.962 283.307 C 230.556 283.307,227.094 284.184,225.305 287.526 C 223.893 290.164,224.291 300.423,226.075 307.399 C 234.153 338.984,264.845 355.505,312.320 353.825 C 320.064 353.550,329.269 352.743,332.776 352.030 C 368.239 344.819,387.717 323.632,387.717 292.267 C 387.717 277.174,384.204 267.185,376.020 259.004 C 365.604 248.593,349.460 243.088,313.600 237.718 C 280.211 232.718,269.554 229.878,267.122 225.333 C 265.640 222.564,266.087 215.971,267.986 212.596 C 272.202 205.106,282.008 202.233,303.283 202.255 C 330.204 202.282,339.894 206.633,344.311 220.678 C 346.578 227.886,348.395 228.686,362.496 228.690 C 378.217 228.695,380.587 227.329,380.587 218.262 C 380.587 212.234,378.655 204.967,374.985 197.186 C 372.750 192.448,370.446 189.328,365.839 184.801 C 356.779 175.900,345.232 170.652,328.107 167.653 C 318.918 166.044,294.716 165.335,286.112 166.423 " stroke="none" fill="black" fill-rule="evenodd"></path></svg>