<svg xmlns="http://www.w3.org/2000/svg" width="512" height="512" viewBox="0 0 512 512"><path d="M16.213 48.259 C 16.213 49.062,255.537 463.357,256.000 463.357 C 256.459 463.357,495.787 49.042,495.787 48.248 C 495.787 47.986,476.310 47.871,452.506 47.992 L 409.225 48.213 332.826 180.663 C 290.806 253.510,256.235 313.112,256.000 313.113 C 255.765 313.113,221.192 253.511,179.171 180.663 L 102.768 48.213 59.491 47.992 C 35.688 47.871,16.213 47.991,16.213 48.259 M122.617 50.552 C 123.510 52.082,153.774 104.501,189.871 167.040 C 225.968 229.579,255.726 280.747,256.000 280.747 C 256.274 280.747,286.032 229.579,322.129 167.040 C 358.226 104.501,388.490 52.082,389.383 50.552 L 391.005 47.770 351.167 47.992 L 311.329 48.213 283.878 95.779 C 268.780 121.940,256.235 143.344,256.000 143.344 C 255.765 143.344,243.220 121.940,228.122 95.779 L 200.671 48.213 160.833 47.992 L 120.995 47.770 122.617 50.552 " stroke="none" fill="black" fill-rule="evenodd"></path></svg>