<svg xmlns="http://www.w3.org/2000/svg" width="512" height="512" viewBox="0 0 512 512"><path d="M245.760 32.119 C 190.097 35.025,138.801 57.556,98.302 96.887 C 91.509 103.485,91.176 103.976,92.196 105.906 C 94.359 109.999,167.484 235.967,168.077 236.621 C 168.413 236.992,169.372 234.688,170.207 231.501 C 172.125 224.185,177.891 211.768,182.654 204.695 C 187.354 197.715,198.569 186.501,205.549 181.800 C 212.783 176.928,224.970 171.242,233.387 168.810 L 240.213 166.838 350.507 166.601 C 423.335 166.444,460.800 166.073,460.800 165.509 C 460.800 164.390,454.687 152.208,450.328 144.640 C 414.598 82.611,351.138 40.977,280.747 33.385 C 271.140 32.349,253.548 31.712,245.760 32.119 M68.988 132.946 C 51.015 160.451,39.683 189.930,34.412 222.893 C 32.196 236.748,32.189 275.438,34.401 288.853 C 42.598 338.587,64.021 380.670,98.626 415.018 C 126.226 442.413,161.597 462.690,198.527 472.288 C 205.159 474.012,207.066 474.238,207.829 473.388 C 209.287 471.767,284.377 341.262,284.033 340.948 C 283.868 340.798,280.085 341.640,275.627 342.820 C 269.011 344.571,265.401 344.980,256.000 345.048 C 240.373 345.161,230.049 342.813,216.320 336.022 C 203.922 329.889,191.835 319.627,183.883 308.480 C 181.874 305.664,156.929 263.040,128.450 213.760 C 99.971 164.480,76.410 123.890,76.092 123.559 C 75.774 123.229,72.577 127.453,68.988 132.946 M244.480 189.794 C 223.759 193.855,206.400 206.291,197.102 223.736 C 176.670 262.071,195.986 308.149,237.653 320.465 C 247.500 323.375,261.518 323.750,271.360 321.367 C 298.544 314.784,318.730 292.292,322.606 264.270 C 325.649 242.268,315.992 218.174,298.432 203.955 C 283.575 191.924,262.217 186.318,244.480 189.794 M314.880 188.993 C 314.880 189.217,316.833 191.425,319.221 193.900 C 335.539 210.818,344.060 229.717,345.323 251.794 C 346.146 266.170,342.867 282.017,336.422 294.806 C 335.245 297.142,311.088 339.337,282.740 388.574 C 254.391 437.810,231.434 478.331,231.724 478.621 C 232.014 478.910,242.682 479.142,255.432 479.136 C 280.305 479.125,289.098 478.248,307.200 473.973 C 378.896 457.040,437.487 406.132,464.623 337.190 C 469.959 323.634,475.186 304.307,477.581 289.280 C 479.814 275.266,479.823 236.753,477.596 222.893 C 476.038 213.200,471.936 195.302,470.270 190.933 L 469.376 188.587 392.128 188.587 C 349.642 188.587,314.880 188.770,314.880 188.993 " stroke="none" fill="black" fill-rule="evenodd"></path></svg>