<svg xmlns="http://www.w3.org/2000/svg" width="512" height="512" viewBox="0 0 512 512"><path d="M74.723 81.580 C 55.004 86.350,39.199 102.193,33.522 122.880 C 32.093 128.088,32.000 136.224,32.000 256.000 C 32.000 375.776,32.093 383.912,33.522 389.120 C 39.256 410.014,55.071 425.735,75.106 430.457 C 83.244 432.375,428.475 432.442,436.594 430.527 C 456.927 425.732,472.842 410.005,478.498 389.120 C 479.900 383.941,480.000 375.110,480.000 256.000 C 480.000 136.890,479.900 128.059,478.498 122.880 C 472.842 101.995,456.927 86.268,436.594 81.473 C 428.774 79.629,82.367 79.731,74.723 81.580 M118.629 145.501 C 119.999 146.210,151.487 170.406,188.601 199.270 L 256.083 251.751 323.137 199.541 C 360.017 170.826,391.567 146.630,393.249 145.773 C 398.447 143.123,406.249 144.251,410.726 148.299 C 415.921 152.997,417.101 163.219,413.099 168.840 C 411.114 171.628,267.553 283.849,262.881 286.265 C 259.630 287.946,252.370 287.946,249.119 286.265 C 245.255 284.267,101.153 171.946,99.092 169.326 C 91.234 159.336,98.763 144.244,111.616 144.221 C 114.103 144.217,117.259 144.793,118.629 145.501 " stroke="none" fill="black" fill-rule="evenodd"></path></svg>