<svg xmlns="http://www.w3.org/2000/svg" width="512" height="512" viewBox="0 0 512 512"><path d="M244.480 1.203 C 233.306 3.780,224.285 8.746,216.560 16.576 C 207.416 25.842,202.353 36.206,200.555 49.334 C 197.024 75.123,213.723 101.237,238.933 109.350 C 246.676 111.842,260.454 112.410,268.373 110.564 C 296.332 104.048,315.287 76.923,311.402 48.989 C 308.342 26.990,294.193 9.920,273.149 2.839 C 265.142 0.144,252.258 -0.591,244.480 1.203 M194.987 129.396 C 174.122 133.905,156.684 148.522,148.759 168.143 C 144.215 179.392,144.161 180.349,144.410 245.640 L 144.640 306.055 147.223 310.232 C 155.488 323.600,174.457 322.711,182.003 308.602 C 183.884 305.084,183.895 304.802,184.320 250.592 L 184.747 196.118 187.141 194.059 C 190.252 191.384,193.756 191.434,197.043 194.199 L 199.657 196.399 199.882 345.453 C 200.134 512.539,199.487 497.033,206.521 504.664 C 216.909 515.933,235.045 513.715,242.988 500.204 L 245.333 496.213 245.760 419.840 C 246.088 361.161,246.433 343.037,247.248 341.613 C 250.137 336.566,256.289 334.775,261.058 337.593 C 266.062 340.549,265.777 336.041,266.240 419.413 L 266.667 496.213 269.012 500.204 C 276.915 513.647,295.093 515.931,305.378 504.773 C 312.536 497.007,311.840 512.995,312.320 345.313 L 312.747 196.119 315.141 194.059 C 318.245 191.389,321.756 191.434,325.024 194.184 L 327.620 196.368 327.863 250.291 C 328.139 311.273,327.826 308.446,334.981 314.744 C 341.298 320.304,348.858 321.446,356.327 317.968 C 361.430 315.592,365.523 310.970,366.889 306.043 C 367.597 303.489,367.797 285.437,367.608 241.067 L 367.347 179.627 365.349 173.653 C 359.388 155.828,347.497 142.022,331.545 134.406 C 318.755 128.299,321.562 128.532,258.133 128.307 C 209.751 128.136,200.042 128.303,194.987 129.396 " stroke="none" fill="black" fill-rule="evenodd"></path></svg>