<svg xmlns="http://www.w3.org/2000/svg" width="512" height="512" viewBox="0 0 512 512"><path d="M163.506 33.725 C 146.556 38.379,132.835 52.849,129.226 69.875 C 128.568 72.980,128.023 80.202,128.015 85.924 L 128.000 96.328 97.493 96.610 L 66.987 96.891 60.160 99.197 C 39.433 106.198,23.931 122.842,17.833 144.640 C 16.052 151.008,16.052 424.992,17.833 431.360 C 21.327 443.851,27.645 454.386,36.610 462.670 C 47.595 472.821,59.542 478.080,75.042 479.589 C 85.864 480.642,426.136 480.642,436.958 479.589 C 452.519 478.074,464.711 472.701,475.485 462.609 C 485.395 453.325,491.733 442.097,494.428 429.048 C 495.637 423.195,495.786 407.613,495.781 287.396 C 495.775 156.948,495.718 152.086,494.130 145.493 C 491.025 132.609,485.088 122.388,475.485 113.391 C 468.411 106.765,460.904 102.259,451.840 99.197 L 445.013 96.891 414.507 96.610 L 384.000 96.328 383.985 85.924 C 383.967 73.240,382.563 66.191,378.409 57.928 C 372.581 46.336,359.762 36.205,347.307 33.349 C 344.792 32.772,313.126 32.488,255.573 32.524 C 184.782 32.568,166.868 32.802,163.506 33.725 M342.712 65.633 C 344.644 66.510,347.332 68.678,348.686 70.451 C 351.071 73.575,351.155 74.023,351.426 85.050 L 351.706 96.427 256.000 96.427 L 160.294 96.427 160.574 85.050 C 160.845 74.023,160.929 73.575,163.314 70.451 C 164.668 68.678,167.356 66.510,169.288 65.633 C 172.641 64.110,176.562 64.037,256.000 64.037 C 335.438 64.037,339.359 64.110,342.712 65.633 M445.605 131.221 C 452.634 134.681,459.042 141.424,461.806 148.270 L 463.787 153.173 463.787 288.000 L 463.787 422.827 461.806 427.730 C 459.042 434.576,452.634 441.319,445.604 444.779 L 439.929 447.573 256.000 447.573 L 72.071 447.573 66.396 444.779 C 59.366 441.319,52.958 434.576,50.194 427.730 L 48.213 422.827 48.213 288.000 L 48.213 153.173 50.179 148.308 C 53.744 139.486,62.555 131.617,71.620 129.162 C 74.672 128.335,115.143 128.140,257.725 128.266 L 439.930 128.427 445.605 131.221 M249.565 193.604 C 245.356 195.516,241.856 199.515,240.678 203.760 C 240.142 205.687,239.794 219.745,239.791 239.546 L 239.787 272.158 204.878 272.399 L 169.970 272.640 166.692 275.261 C 162.411 278.682,160.429 282.714,160.429 288.000 C 160.429 293.286,162.411 297.318,166.692 300.739 L 169.970 303.360 204.878 303.601 L 239.787 303.842 239.791 336.454 C 239.794 356.255,240.142 370.313,240.678 372.240 C 242.463 378.668,249.383 383.963,256.000 383.963 C 262.617 383.963,269.537 378.668,271.322 372.240 C 271.858 370.313,272.206 356.255,272.209 336.454 L 272.213 303.842 307.122 303.601 L 342.030 303.360 345.308 300.739 C 349.589 297.318,351.571 293.286,351.571 288.000 C 351.571 282.714,349.589 278.682,345.308 275.261 L 342.030 272.640 307.122 272.399 L 272.213 272.158 272.209 239.546 C 272.206 219.745,271.858 205.687,271.322 203.760 C 269.537 197.332,262.617 192.037,256.000 192.037 C 254.357 192.037,251.461 192.742,249.565 193.604 " stroke="none" fill="black" fill-rule="evenodd"></path></svg>