<svg xmlns="http://www.w3.org/2000/svg" width="512" height="512" viewBox="0 0 512 512"><path d="M407.636 33.659 C 402.363 35.540,398.290 38.860,391.593 46.735 C 376.313 64.707,352.320 87.740,333.782 102.234 C 308.047 122.357,285.004 134.822,261.973 141.079 L 252.160 143.745 161.707 144.192 L 71.253 144.640 66.549 146.953 C 54.915 152.673,47.787 164.700,47.787 178.608 C 47.787 183.276,47.539 183.912,44.283 187.602 C 36.416 196.520,32.427 208.767,32.427 224.000 C 32.427 239.233,36.416 251.480,44.283 260.398 C 47.539 264.088,47.787 264.724,47.787 269.392 C 47.787 283.303,54.345 294.486,66.133 300.673 L 71.253 303.360 99.627 303.616 L 128.000 303.872 128.000 381.328 C 128.000 468.988,127.687 464.629,134.495 471.907 C 136.620 474.178,140.268 476.858,142.751 477.972 C 147.052 479.901,148.086 479.978,173.777 480.270 C 188.394 480.436,203.430 480.200,207.190 479.745 C 223.134 477.817,233.644 468.189,236.455 452.937 C 237.866 445.279,236.342 439.134,227.739 417.804 C 217.096 391.413,213.010 378.614,210.273 363.093 C 208.321 352.027,208.354 351.895,213.231 351.318 C 222.617 350.206,231.935 343.223,236.561 333.833 C 239.267 328.339,239.370 327.742,239.655 315.890 L 239.950 303.630 246.055 304.202 C 268.683 306.324,293.727 317.048,320.863 336.236 C 340.087 349.829,363.425 370.705,380.692 389.754 C 403.204 414.589,404.587 415.573,416.973 415.573 C 429.120 415.573,439.200 409.515,444.587 398.977 L 447.573 393.134 447.807 327.645 L 448.041 262.156 451.181 261.567 C 458.326 260.226,467.796 253.749,472.773 246.799 C 481.949 233.985,481.949 214.015,472.773 201.201 C 467.796 194.251,458.326 187.774,451.181 186.433 L 448.041 185.844 447.807 120.355 L 447.573 54.866 444.587 49.023 C 439.196 38.478,429.069 32.391,417.035 32.464 C 413.650 32.485,409.420 33.022,407.636 33.659 M415.571 224.213 L 415.569 380.160 408.208 372.053 C 404.159 367.595,395.424 358.620,388.797 352.110 C 350.299 314.293,313.952 290.064,277.973 278.235 L 272.213 276.341 272.213 224.001 L 272.213 171.661 280.533 168.912 C 317.576 156.674,358.863 127.694,399.700 85.267 C 405.754 78.977,411.706 72.579,412.927 71.049 C 414.148 69.519,415.243 68.267,415.360 68.267 C 415.477 68.267,415.572 138.443,415.571 224.213 M95.573 224.000 L 95.573 272.213 87.893 272.213 L 80.213 272.213 80.213 224.000 L 80.213 175.787 87.893 175.787 L 95.573 175.787 95.573 224.000 M239.787 224.000 L 239.787 272.213 183.893 272.213 L 128.000 272.213 128.000 224.000 L 128.000 175.787 183.893 175.787 L 239.787 175.787 239.787 224.000 M208.032 312.107 L 208.277 320.000 198.645 320.019 C 191.152 320.033,188.248 320.385,185.565 321.604 C 181.221 323.577,177.816 327.581,176.581 332.166 C 174.812 338.737,177.236 363.669,181.330 381.013 C 184.395 393.994,187.164 402.220,195.838 424.107 C 200.209 435.136,204.040 445.024,204.350 446.080 L 204.915 448.000 182.671 448.000 L 160.427 448.000 160.427 375.880 L 160.427 303.760 184.107 303.987 L 207.787 304.213 208.032 312.107 " stroke="none" fill="black" fill-rule="evenodd"></path></svg>