<svg xmlns="http://www.w3.org/2000/svg" width="512" height="512" viewBox="0 0 512 512"><path d="M411.990 32.450 C 404.931 33.640,399.873 37.158,391.844 46.458 C 358.177 85.463,316.526 119.035,284.587 132.914 C 279.893 134.953,275.189 137.583,274.133 138.758 L 272.213 140.895 272.213 221.948 C 272.213 299.800,272.277 303.126,273.829 306.167 C 276.084 310.585,277.176 311.371,289.707 317.599 C 301.863 323.640,308.559 327.670,320.853 336.342 C 340.597 350.269,363.330 370.566,380.739 389.809 C 403.698 415.188,405.068 416.115,418.578 415.406 C 430.743 414.767,440.225 408.596,445.573 397.838 L 447.573 393.813 448.000 328.566 L 448.427 263.318 450.560 262.317 C 451.733 261.766,454.805 260.355,457.387 259.181 C 471.585 252.724,479.573 240.057,479.573 224.000 C 479.573 214.629,477.288 207.323,472.267 200.644 C 468.373 195.463,461.069 189.848,455.619 187.845 C 454.010 187.253,451.733 186.300,450.560 185.726 L 448.427 184.682 448.000 119.861 L 447.573 55.040 445.325 50.244 C 442.322 43.839,437.982 39.209,432.016 36.041 C 428.002 33.911,418.533 31.248,416.483 31.674 C 416.217 31.729,414.196 32.078,411.990 32.450 M69.247 145.918 C 60.808 148.953,53.510 156.161,50.288 164.641 C 49.388 167.010,48.315 171.954,47.904 175.628 C 47.112 182.712,46.369 184.667,42.657 189.440 C 36.132 197.829,33.207 206.867,32.650 220.364 C 31.961 237.035,34.154 245.563,42.290 257.859 C 44.834 261.703,47.076 266.026,47.273 267.464 C 49.472 283.533,51.234 288.147,57.609 294.521 C 59.756 296.669,63.705 299.521,66.383 300.860 C 70.709 303.022,72.352 303.331,81.082 303.624 C 92.456 304.007,94.239 303.240,95.595 297.387 C 96.639 292.880,96.639 155.120,95.595 150.613 C 94.315 145.090,92.498 144.208,82.465 144.244 C 76.138 144.267,72.586 144.716,69.247 145.918 M130.494 146.708 L 128.000 149.202 128.000 304.542 C 128.000 457.544,128.026 459.951,129.699 464.422 C 131.755 469.919,137.004 475.317,142.933 478.032 C 147.037 479.911,148.214 479.997,173.777 480.279 C 188.394 480.440,203.479 480.194,207.299 479.732 C 219.957 478.201,228.938 471.913,234.042 461.005 C 236.335 456.105,236.700 454.373,236.688 448.460 C 236.670 440.159,233.880 431.123,223.003 404.142 C 219.049 394.335,214.885 383.107,213.751 379.192 C 211.487 371.380,209.074 358.633,209.069 354.466 C 209.067 351.919,209.239 351.791,213.296 351.310 C 222.823 350.182,232.514 342.714,237.073 332.986 L 239.360 328.107 239.589 238.670 L 239.817 149.233 237.308 146.723 L 234.798 144.213 183.893 144.213 L 132.989 144.213 130.494 146.708 " stroke="none" fill="black" fill-rule="evenodd"></path></svg>