<svg xmlns="http://www.w3.org/2000/svg" width="512" height="512" viewBox="0 0 512 512"><path d="M244.580 48.756 C 241.350 49.171,235.206 50.680,230.927 52.110 C 204.513 60.934,186.084 80.756,178.148 108.878 C 176.253 115.596,176.244 115.930,176.229 182.187 C 176.215 242.001,176.362 249.412,177.678 255.314 C 179.910 265.318,183.817 274.564,189.359 282.959 C 198.016 296.073,208.953 305.667,222.781 312.278 C 265.253 332.582,316.063 310.505,331.681 264.960 C 335.912 252.621,336.203 247.376,336.203 183.467 C 336.203 119.557,335.912 114.312,331.681 101.973 C 319.112 65.319,283.770 43.726,244.580 48.756 M267.859 81.525 C 284.628 85.478,298.522 99.372,302.475 116.141 C 304.392 124.273,304.392 242.660,302.475 250.792 C 299.354 264.029,289.293 276.742,277.243 282.675 C 269.334 286.569,265.144 287.529,256.000 287.542 C 242.326 287.563,233.396 283.759,223.071 273.515 C 218.195 268.678,215.382 265.038,213.489 261.120 C 208.110 249.983,208.213 251.497,208.213 183.756 C 208.213 142.343,208.521 120.627,209.149 117.589 C 212.637 100.743,227.429 85.524,244.286 81.439 C 250.447 79.946,261.329 79.986,267.859 81.525 M121.565 193.604 C 117.356 195.516,113.856 199.515,112.678 203.760 C 111.544 207.840,111.526 241.200,112.650 252.710 C 117.396 301.299,144.833 342.889,187.885 366.753 C 201.205 374.136,218.500 379.803,236.587 382.710 L 239.787 383.224 239.787 407.505 L 239.787 431.787 215.253 431.791 C 199.987 431.794,189.438 432.152,187.326 432.738 C 182.786 433.999,177.916 438.994,176.653 443.687 C 174.351 452.232,179.222 461.010,187.546 463.322 C 191.903 464.532,320.097 464.532,324.454 463.322 C 332.778 461.010,337.649 452.232,335.347 443.687 C 334.084 438.994,329.214 433.999,324.674 432.738 C 322.562 432.152,312.013 431.794,296.747 431.791 L 272.213 431.787 272.213 407.505 L 272.213 383.224 275.413 382.697 C 285.826 380.983,293.270 379.223,301.013 376.643 C 351.279 359.897,388.424 316.896,397.796 264.602 C 399.955 252.555,401.099 210.351,399.433 204.199 C 397.611 197.468,390.845 192.063,384.186 192.019 C 380.734 191.996,375.731 194.018,373.051 196.521 C 368.367 200.894,368.257 201.577,367.727 229.547 C 367.344 249.730,366.898 257.106,365.739 262.400 C 355.835 307.635,319.875 342.479,275.021 350.301 C 265.464 351.967,246.599 351.935,236.800 350.236 C 215.742 346.584,195.741 336.496,179.418 321.293 C 169.789 312.325,162.187 301.974,155.791 289.121 C 146.390 270.231,144.223 258.845,144.212 228.267 C 144.207 216.237,143.819 205.549,143.322 203.760 C 141.537 197.332,134.617 192.037,128.000 192.037 C 126.357 192.037,123.461 192.742,121.565 193.604 " stroke="none" fill="black" fill-rule="evenodd"></path></svg>