<svg xmlns="http://www.w3.org/2000/svg" width="512" height="512" viewBox="0 0 512 512"><path d="M210.126 54.834 L 164.684 100.281 176.212 111.786 L 187.740 123.290 213.763 97.277 L 239.787 71.264 239.787 155.525 L 239.787 239.787 155.525 239.787 L 71.264 239.787 97.072 213.968 C 111.266 199.768,122.880 187.762,122.880 187.289 C 122.880 186.816,117.885 181.445,111.781 175.354 L 100.682 164.280 54.823 210.139 L 8.964 255.998 54.612 301.652 C 79.719 326.762,100.454 347.252,100.690 347.184 C 100.927 347.117,106.103 341.926,112.193 335.649 L 123.266 324.237 97.265 298.225 L 71.264 272.213 155.525 272.213 L 239.787 272.213 239.787 356.475 L 239.787 440.736 213.968 414.928 C 199.768 400.734,187.762 389.120,187.289 389.120 C 186.816 389.120,181.445 394.115,175.354 400.219 L 164.280 411.318 210.140 457.178 L 256.000 503.038 301.860 457.178 L 347.720 411.318 336.646 400.219 C 330.555 394.115,325.184 389.120,324.711 389.120 C 324.238 389.120,312.232 400.734,298.032 414.928 L 272.213 440.736 272.213 356.475 L 272.213 272.213 356.475 272.213 L 440.736 272.213 414.735 298.225 L 388.734 324.237 399.807 335.649 C 405.897 341.926,411.073 347.117,411.310 347.184 C 411.546 347.252,432.281 326.762,457.388 301.652 L 503.036 255.998 457.177 210.139 L 411.318 164.280 400.219 175.354 C 394.115 181.445,389.120 186.816,389.120 187.289 C 389.120 187.762,400.734 199.768,414.928 213.968 L 440.736 239.787 356.475 239.787 L 272.213 239.787 272.213 155.525 L 272.213 71.264 298.237 97.277 L 324.260 123.290 335.788 111.786 L 347.316 100.281 301.874 54.834 C 276.881 29.838,256.238 9.387,256.000 9.387 C 255.762 9.387,235.119 29.838,210.126 54.834 " stroke="none" fill="black" fill-rule="evenodd"></path></svg>