<svg xmlns="http://www.w3.org/2000/svg" width="512" height="512" viewBox="0 0 512 512"><path d="M362.240 36.661 C 353.323 38.926,318.955 47.389,285.867 55.468 C 245.938 65.217,225.348 70.611,224.640 71.508 C 223.796 72.577,223.573 102.344,223.573 213.832 C 223.573 325.823,223.354 354.888,222.507 355.213 C 221.920 355.437,209.070 360.096,193.951 365.566 C 162.478 376.952,157.249 379.164,149.245 384.485 C 134.339 394.395,128.480 406.782,128.486 428.373 C 128.490 438.718,128.728 440.575,130.821 446.573 C 135.816 460.884,145.458 471.264,158.787 476.681 C 173.307 482.581,199.273 479.999,218.916 470.702 C 228.346 466.238,243.913 455.915,248.809 450.877 C 256.168 443.305,255.544 456.452,255.804 303.547 L 256.036 168.054 257.938 167.270 C 258.984 166.838,287.104 159.322,320.427 150.566 C 353.749 141.811,381.688 134.288,382.513 133.850 C 383.923 133.101,384.000 130.012,383.793 82.953 L 383.573 32.853 381.013 32.698 C 379.605 32.613,371.157 34.396,362.240 36.661 " stroke="none" fill="black" fill-rule="evenodd"></path></svg>