<svg xmlns="http://www.w3.org/2000/svg" width="512" height="512" viewBox="0 0 512 512"><path d="M242.347 48.326 C 191.452 52.106,145.063 73.308,109.185 109.185 C 76.591 141.780,56.430 182.229,49.832 228.267 C 48.041 240.765,47.809 267.961,49.388 280.320 C 57.111 340.773,89.217 393.514,139.093 427.685 C 166.418 446.405,197.907 458.285,231.680 462.616 C 243.557 464.140,272.051 463.910,283.567 462.199 C 330.638 455.203,370.172 435.514,402.796 402.821 C 435.574 369.971,455.219 330.534,462.199 283.567 C 463.910 272.051,464.140 243.557,462.616 231.680 C 456.558 184.437,436.047 142.432,402.808 109.192 C 369.586 75.970,327.122 55.204,280.747 49.498 C 272.613 48.498,249.525 47.793,242.347 48.326 M348.672 163.328 C 354.181 168.837,355.990 163.899,311.385 265.093 C 289.282 315.238,270.290 358.191,269.180 360.542 C 268.014 363.013,266.102 365.444,264.650 366.302 C 261.554 368.131,256.739 368.213,253.412 366.492 C 248.234 363.814,248.320 364.709,248.320 313.642 C 248.320 268.231,248.278 267.052,246.613 265.387 C 244.948 263.722,243.769 263.680,198.358 263.680 C 147.291 263.680,148.186 263.766,145.508 258.588 C 144.796 257.211,144.213 254.524,144.213 252.617 C 144.213 246.327,146.538 244.834,177.493 231.246 C 228.061 209.050,276.526 187.663,307.200 174.009 C 341.955 158.539,343.488 158.144,348.672 163.328 " stroke="none" fill="black" fill-rule="evenodd"></path></svg>