<svg xmlns="http://www.w3.org/2000/svg" width="512" height="512" viewBox="0 0 512 512"><path d="M243.627 48.295 C 200.707 51.540,163.787 65.309,129.707 90.781 C 119.276 98.577,98.579 119.277,90.713 129.782 C 68.255 159.772,54.418 193.768,49.413 231.253 C 48.019 241.696,48.019 270.304,49.413 280.747 C 59.554 356.698,107.829 420.063,177.067 448.304 C 203.509 459.089,227.771 463.751,256.853 463.634 C 290.198 463.499,318.398 456.932,347.733 442.471 C 410.837 411.362,453.091 351.864,462.587 280.747 C 463.981 270.304,463.981 241.696,462.587 231.253 C 453.091 160.136,410.837 100.638,347.733 69.529 C 327.592 59.600,306.356 53.073,283.994 49.939 C 275.010 48.680,251.306 47.715,243.627 48.295 M275.447 81.114 C 347.484 88.943,408.291 141.727,426.231 212.001 C 448.394 298.823,402.945 387.270,319.249 420.197 C 293.994 430.132,262.077 434.038,234.686 430.544 C 145.853 419.214,80.213 345.046,80.213 256.000 C 80.213 167.651,145.919 92.766,233.311 81.514 C 244.096 80.125,264.562 79.931,275.447 81.114 M243.200 202.246 C 167.962 235.521,148.432 244.478,146.560 246.574 C 142.440 251.185,143.900 259.590,149.305 262.386 C 151.453 263.496,158.419 263.680,198.358 263.680 C 243.769 263.680,244.948 263.722,246.613 265.387 C 248.278 267.052,248.320 268.231,248.320 313.642 C 248.320 364.709,248.234 363.814,253.412 366.492 C 256.739 368.213,261.554 368.131,264.650 366.302 C 266.100 365.445,268.018 363.009,269.184 360.542 C 270.296 358.191,289.289 315.238,311.390 265.092 C 355.988 163.900,354.180 168.836,348.672 163.328 C 343.050 157.706,348.252 155.787,243.200 202.246 " stroke="none" fill="black" fill-rule="evenodd"></path></svg>