<svg xmlns="http://www.w3.org/2000/svg" width="512" height="512" viewBox="0 0 512 512"><path d="M35.828 35.652 C 32.966 38.513,32.539 39.498,32.039 44.398 C 31.729 47.435,31.614 135.936,31.784 241.067 C 32.029 392.686,32.318 433.096,33.184 436.480 C 33.784 438.827,36.010 444.361,38.130 448.778 C 43.561 460.092,51.885 468.421,63.222 473.886 C 67.639 476.015,73.749 478.262,76.800 478.878 C 84.184 480.372,431.032 480.556,431.529 479.067 C 431.700 478.554,429.099 477.122,425.749 475.885 C 409.349 469.830,395.245 456.016,388.556 439.457 C 383.789 427.655,384.000 437.273,384.000 231.521 C 384.000 55.921,383.893 41.419,382.575 38.642 C 381.791 36.990,379.967 34.917,378.522 34.036 C 375.974 32.482,370.748 32.433,207.473 32.430 L 39.053 32.427 35.828 35.652 M192.000 160.000 L 192.000 208.213 144.213 208.213 L 96.427 208.213 96.427 160.000 L 96.427 111.787 144.213 111.787 L 192.000 111.787 192.000 160.000 M320.000 128.000 L 320.000 144.213 272.213 144.213 L 224.427 144.213 224.427 128.000 L 224.427 111.787 272.213 111.787 L 320.000 111.787 320.000 128.000 M416.175 112.323 C 415.251 113.246,415.496 412.442,416.427 419.603 C 419.183 440.819,439.897 453.168,459.947 445.549 C 470.700 441.463,478.152 431.218,479.679 418.421 C 480.153 414.443,480.380 352.732,480.238 266.089 C 480.000 120.504,479.999 120.444,478.241 118.088 C 477.273 116.792,475.421 114.940,474.126 113.973 C 471.879 112.294,470.511 112.202,444.274 111.967 C 429.151 111.832,416.506 111.992,416.175 112.323 M320.000 192.000 L 320.000 208.213 272.213 208.213 L 224.427 208.213 224.427 192.000 L 224.427 175.787 272.213 175.787 L 320.000 175.787 320.000 192.000 M320.000 256.000 L 320.000 272.213 208.213 272.213 L 96.427 272.213 96.427 256.000 L 96.427 239.787 208.213 239.787 L 320.000 239.787 320.000 256.000 M320.000 320.000 L 320.000 336.213 208.213 336.213 L 96.427 336.213 96.427 320.000 L 96.427 303.787 208.213 303.787 L 320.000 303.787 320.000 320.000 M320.000 384.000 L 320.000 400.213 208.213 400.213 L 96.427 400.213 96.427 384.000 L 96.427 367.787 208.213 367.787 L 320.000 367.787 320.000 384.000 " stroke="none" fill="black" fill-rule="evenodd"></path></svg>