<svg xmlns="http://www.w3.org/2000/svg" width="512" height="512" viewBox="0 0 512 512"><path d="M215.631 34.347 C 215.385 35.403,213.564 46.092,211.586 58.101 L 207.988 79.935 199.781 82.223 C 189.236 85.163,172.901 93.164,164.232 99.634 C 141.027 116.954,124.827 143.646,117.433 176.740 C 112.991 196.621,112.484 203.233,112.029 247.233 L 111.603 288.385 87.801 320.123 L 64.000 351.860 64.000 376.037 L 64.000 400.213 256.000 400.213 L 448.000 400.213 448.000 376.037 L 448.000 351.860 424.204 320.129 L 400.407 288.398 399.969 247.239 C 399.511 204.162,398.994 197.024,394.974 178.386 C 391.100 160.421,383.057 140.959,373.622 126.720 C 367.790 117.920,353.024 103.047,344.399 97.287 C 335.216 91.153,322.082 85.014,312.209 82.239 L 304.012 79.935 300.414 58.101 C 298.436 46.092,296.615 35.403,296.369 34.347 L 295.922 32.427 256.000 32.427 L 216.078 32.427 215.631 34.347 M184.847 436.267 C 194.759 455.893,213.152 470.871,235.093 477.183 C 240.983 478.877,243.852 479.147,256.000 479.147 C 268.177 479.147,271.001 478.880,276.891 477.175 C 299.048 470.761,317.189 455.996,327.153 436.267 L 329.415 431.787 256.000 431.787 L 182.585 431.787 184.847 436.267 " stroke="none" fill="black" fill-rule="evenodd"></path></svg>