<svg xmlns="http://www.w3.org/2000/svg" width="512" height="512" viewBox="0 0 512 512"><path d="M169.387 81.553 C 165.502 83.569,162.294 86.981,161.086 90.381 C 160.221 92.817,160.000 126.630,160.000 256.427 C 160.000 417.725,160.018 419.448,161.707 422.772 C 162.645 424.619,164.888 427.307,166.689 428.745 C 169.948 431.346,170.030 431.362,182.049 431.643 C 189.169 431.810,195.409 431.544,197.240 430.997 C 201.105 429.841,206.097 424.439,207.298 420.114 C 208.559 415.576,208.569 96.460,207.309 91.923 C 206.195 87.913,201.875 82.890,198.227 81.366 C 194.109 79.645,172.796 79.783,169.387 81.553 M313.584 81.372 C 310.055 82.952,305.771 88.034,304.691 91.923 C 303.431 96.460,303.441 415.576,304.702 420.114 C 305.903 424.439,310.895 429.841,314.760 430.997 C 316.591 431.544,322.831 431.810,329.951 431.643 C 341.970 431.362,342.052 431.346,345.311 428.745 C 347.112 427.307,349.355 424.619,350.293 422.772 C 351.982 419.448,352.000 417.725,352.000 256.000 C 352.000 94.275,351.982 92.552,350.293 89.228 C 349.355 87.381,347.112 84.693,345.310 83.255 L 342.034 80.640 329.097 80.429 C 319.681 80.276,315.459 80.532,313.584 81.372 " stroke="none" fill="black" fill-rule="evenodd"></path></svg>