<svg xmlns="http://www.w3.org/2000/svg" width="512" height="512" viewBox="0 0 512 512"><path d="M176.640 48.655 C 157.167 52.040,139.948 68.976,132.408 92.160 C 119.523 131.783,136.297 176.599,168.721 189.182 C 176.808 192.321,189.731 192.505,198.136 189.601 C 217.034 183.071,231.612 164.920,237.851 140.149 C 238.925 135.887,239.305 130.649,239.321 119.893 C 239.346 103.939,238.132 97.350,232.903 85.063 C 222.197 59.903,198.848 44.794,176.640 48.655 M320.000 48.688 C 312.536 49.961,301.966 55.652,295.186 62.048 C 285.381 71.298,278.723 82.912,274.570 98.008 C 272.149 106.810,271.901 131.290,274.142 140.149 C 280.405 164.898,295.016 183.088,313.864 189.601 C 321.848 192.359,334.237 192.350,342.349 189.578 C 362.738 182.613,379.375 159.424,383.076 132.810 C 388.287 95.344,369.510 58.581,340.733 49.909 C 335.268 48.262,325.776 47.703,320.000 48.688 M60.812 145.529 C 29.394 153.990,9.907 194.277,17.967 234.106 C 21.150 249.831,27.564 262.184,37.973 272.636 C 49.400 284.110,59.089 288.054,74.174 287.373 C 85.157 286.877,91.419 284.618,100.253 277.962 C 111.774 269.283,120.735 255.077,125.140 238.507 C 127.130 231.020,127.414 228.299,127.456 216.320 C 127.495 204.994,127.183 201.390,125.629 195.179 C 119.262 169.734,102.979 150.681,83.197 145.528 C 77.006 143.916,66.801 143.916,60.812 145.529 M428.599 145.529 C 408.691 150.890,392.769 169.610,386.371 195.179 C 384.817 201.390,384.505 204.994,384.544 216.320 C 384.586 228.299,384.870 231.020,386.860 238.507 C 391.265 255.077,400.226 269.283,411.747 277.962 C 420.581 284.618,426.843 286.877,437.826 287.373 C 452.911 288.054,462.600 284.110,474.027 272.636 C 484.436 262.184,490.850 249.831,494.033 234.106 C 502.129 194.098,482.499 153.737,450.948 145.519 C 444.789 143.915,434.576 143.919,428.599 145.529 M241.920 192.953 C 226.369 195.215,212.609 202.760,200.466 215.685 C 191.716 224.998,185.318 234.248,170.815 258.553 C 153.241 288.003,149.600 291.645,116.473 312.909 C 88.876 330.623,79.551 339.552,71.952 355.538 C 65.997 368.065,64.589 374.548,64.562 389.547 C 64.544 400.143,64.863 403.522,66.417 409.173 C 73.622 435.381,93.043 455.408,117.809 462.169 C 121.705 463.232,126.415 463.666,133.973 463.657 C 148.460 463.641,157.162 462.301,199.621 453.554 C 226.919 447.929,239.363 446.322,255.743 446.307 C 275.494 446.288,284.063 447.541,331.093 457.330 C 353.602 462.015,365.359 463.604,378.027 463.674 C 390.763 463.744,396.390 462.471,407.467 457.015 C 421.750 449.979,431.911 439.672,439.486 424.533 C 445.981 411.552,447.474 404.979,447.432 389.547 C 447.401 378.235,447.133 375.854,445.123 369.067 C 438.585 346.985,427.783 333.788,403.200 317.851 C 371.980 297.610,370.869 296.800,361.813 287.659 C 353.616 279.383,352.098 277.306,343.986 263.253 C 318.851 219.717,303.494 202.920,282.453 195.953 C 271.274 192.251,255.018 191.048,241.920 192.953 " stroke="none" fill="black" fill-rule="evenodd"></path></svg>