<svg xmlns="http://www.w3.org/2000/svg" width="512" height="512" viewBox="0 0 512 512"><path d="M424.127 49.155 C 416.709 51.148,412.558 54.137,399.665 66.767 C 385.358 80.781,383.038 83.855,382.494 89.516 C 381.798 96.759,383.213 99.125,396.121 112.302 C 410.169 126.643,413.239 128.962,418.903 129.506 C 426.507 130.236,428.428 129.009,443.799 113.597 C 458.947 98.407,461.570 94.617,463.454 85.191 C 465.354 75.685,461.869 65.010,454.433 57.558 C 449.530 52.644,444.417 49.903,437.827 48.653 C 431.966 47.541,429.842 47.619,424.127 49.155 M358.787 110.136 C 356.943 110.672,315.236 151.850,215.427 251.677 L 74.667 392.461 61.708 417.457 C 54.581 431.205,48.506 443.850,48.209 445.557 C 46.439 455.732,56.403 465.668,66.483 463.778 C 68.168 463.462,80.491 457.617,93.867 450.788 L 118.187 438.373 257.660 299.187 C 334.371 222.634,398.192 158.723,399.484 157.163 C 402.393 153.652,403.389 147.945,401.945 143.062 C 401.115 140.255,398.127 136.711,387.542 125.981 C 371.306 109.521,367.713 107.542,358.787 110.136 " stroke="none" fill="black" fill-rule="evenodd"></path></svg>