<svg xmlns="http://www.w3.org/2000/svg" width="512" height="512" viewBox="0 0 512 512"><path d="M243.200 48.291 C 189.307 52.936,145.591 72.806,109.198 109.198 C 75.814 142.582,55.864 183.304,49.403 231.253 C 47.996 241.696,47.996 270.304,49.403 280.747 C 55.866 328.705,75.852 369.495,109.198 402.781 C 142.761 436.282,182.341 455.687,231.253 462.621 C 235.243 463.187,246.379 463.649,256.000 463.649 C 265.621 463.649,276.757 463.187,280.747 462.621 C 314.691 457.809,342.801 447.502,369.187 430.191 C 383.273 420.949,391.318 414.386,403.226 402.422 C 436.292 369.200,455.726 329.388,462.621 280.747 C 463.187 276.757,463.649 265.621,463.649 256.000 C 463.649 227.171,459.011 203.251,448.395 177.325 C 432.022 137.342,403.062 103.108,365.227 79.011 C 343.385 65.100,312.181 53.926,283.992 49.922 C 275.151 48.666,250.352 47.675,243.200 48.291 M269.880 145.428 C 295.887 150.404,315.576 169.064,322.172 194.987 C 324.388 203.694,324.239 219.159,321.845 228.955 C 315.330 255.620,297.741 276.437,274.608 284.862 C 268.931 286.929,267.267 287.132,256.000 287.132 C 244.733 287.132,243.069 286.929,237.392 284.862 C 195.236 269.509,174.901 214.388,197.312 176.213 C 204.178 164.517,218.282 152.828,230.905 148.373 C 242.810 144.170,257.504 143.060,269.880 145.428 M273.740 320.895 C 302.938 324.050,327.966 332.749,349.738 347.313 C 363.651 356.619,382.805 376.491,380.874 379.615 C 379.152 382.400,363.748 395.343,355.318 401.086 C 333.904 415.676,311.349 424.777,284.160 429.796 C 271.674 432.101,239.408 431.896,226.133 429.427 C 200.402 424.640,177.179 415.132,156.459 400.899 C 147.848 394.984,132.823 382.361,131.126 379.615 C 129.985 377.769,136.260 369.824,146.715 359.874 C 169.291 338.390,202.525 324.486,240.640 320.579 C 247.434 319.883,266.011 320.060,273.740 320.895 " stroke="none" fill="black" fill-rule="evenodd"></path></svg>