<svg xmlns="http://www.w3.org/2000/svg" width="512" height="512" viewBox="0 0 512 512"><path d="M162.444 1.274 C 138.808 6.415,119.403 25.489,113.389 49.493 C 111.635 56.495,111.635 455.505,113.389 462.507 C 119.453 486.712,138.897 505.689,162.830 510.762 C 171.282 512.553,340.718 512.553,349.170 510.762 C 373.174 505.674,392.306 486.973,398.598 462.446 C 400.375 455.520,400.375 56.480,398.598 49.554 C 392.306 25.027,373.174 6.326,349.170 1.238 C 341.011 -0.491,170.409 -0.458,162.444 1.274 M191.721 33.692 C 192.714 34.388,194.686 37.010,196.101 39.518 C 199.453 45.457,206.208 51.463,212.308 53.927 C 217.139 55.880,217.444 55.893,256.000 55.893 C 294.556 55.893,294.861 55.880,299.692 53.927 C 305.806 51.457,312.549 45.454,315.921 39.479 C 319.847 32.523,320.656 32.203,333.442 32.554 C 343.765 32.837,344.671 33.006,350.055 35.658 C 356.656 38.909,361.823 44.235,365.131 51.200 L 367.360 55.893 367.360 256.000 L 367.360 456.107 365.131 460.800 C 361.822 467.767,356.657 473.091,350.053 476.342 L 344.356 479.147 256.000 479.147 L 167.644 479.147 161.947 476.342 C 155.341 473.090,150.171 467.761,146.867 460.800 L 144.640 456.107 144.640 256.000 L 144.640 55.893 146.576 51.695 C 150.556 43.065,157.148 37.006,165.815 34.011 C 171.665 31.990,188.985 31.777,191.721 33.692 M171.093 48.829 C 166.893 50.318,163.915 52.837,161.901 56.605 L 160.000 60.160 160.000 256.000 L 160.000 451.840 161.901 455.395 C 163.973 459.271,166.932 461.702,171.434 463.229 C 175.569 464.632,336.431 464.632,340.566 463.229 C 345.068 461.702,348.027 459.271,350.099 455.395 L 352.000 451.840 352.000 256.000 L 352.000 60.160 350.099 56.605 C 347.960 52.604,344.996 50.226,340.211 48.674 C 334.363 46.776,331.516 48.011,323.744 55.818 C 316.086 63.511,308.519 68.131,299.902 70.376 C 292.510 72.301,219.490 72.301,212.098 70.376 C 203.555 68.151,195.749 63.427,188.648 56.187 C 180.503 47.882,177.416 46.588,171.093 48.829 " stroke="none" fill="black" fill-rule="evenodd"></path></svg>