<svg xmlns="http://www.w3.org/2000/svg" width="512" height="512" viewBox="0 0 512 512"><path d="M232.871 81.511 C 204.878 85.276,175.817 96.792,153.811 112.842 C 150.393 115.335,148.975 115.923,147.838 115.319 C 143.837 113.194,111.302 102.975,97.707 99.573 C 74.721 93.822,66.162 92.624,48.213 92.650 C 33.864 92.670,32.402 92.822,25.986 94.959 C 14.119 98.910,6.121 105.734,2.409 115.074 C -0.365 122.053,-0.340 133.860,2.466 142.080 C 6.498 153.891,12.798 164.446,24.622 179.200 C 32.921 189.556,55.217 211.871,69.671 224.287 L 80.889 233.923 80.442 249.441 C 80.173 258.772,80.395 268.703,80.998 274.347 C 88.812 347.377,141.231 408.135,212.053 426.248 C 240.999 433.651,271.024 433.618,300.673 426.150 C 320.175 421.238,345.864 409.111,359.289 398.478 L 362.392 396.021 370.423 399.011 C 390.293 406.408,420.942 414.805,439.079 417.821 C 452.043 419.977,475.228 420.018,482.987 417.898 C 505.051 411.871,515.301 395.922,510.806 374.613 C 506.117 352.387,479.688 319.346,438.921 284.742 L 431.122 278.123 431.569 262.155 C 432.101 243.126,430.611 229.115,426.235 212.001 C 418.163 180.430,401.306 151.648,377.636 129.019 C 351.605 104.134,321.271 88.898,284.587 82.283 C 273.845 80.347,244.761 79.912,232.871 81.511 M281.157 114.344 C 340.022 124.407,387.035 171.497,397.809 231.184 C 400.308 245.032,400.308 266.968,397.809 280.816 C 394.401 299.696,387.004 318.362,376.532 334.507 C 371.743 341.890,363.169 352.623,358.594 356.959 L 356.064 359.358 345.630 354.999 C 275.993 325.905,190.705 277.046,129.897 231.412 C 122.727 226.031,116.699 221.368,116.503 221.050 C 115.813 219.934,122.793 200.672,126.758 192.749 C 149.410 147.486,191.165 118.450,241.920 112.669 C 251.624 111.564,269.311 112.319,281.157 114.344 M68.267 125.968 C 79.950 127.866,94.965 131.546,109.653 136.113 C 116.693 138.302,122.577 140.216,122.728 140.366 C 122.879 140.516,121.039 143.075,118.638 146.053 C 108.709 158.368,98.379 176.161,92.114 191.741 L 89.301 198.736 85.397 195.465 C 76.907 188.351,61.734 173.300,54.010 164.330 C 40.870 149.072,32.429 135.293,32.427 129.101 C 32.427 126.661,32.776 126.265,35.627 125.480 C 37.387 124.995,39.979 124.439,41.387 124.243 C 45.587 123.661,59.595 124.560,68.267 125.968 M125.139 267.644 C 159.499 292.272,202.199 318.785,244.480 341.744 C 261.173 350.808,300.522 370.266,314.453 376.345 C 320.085 378.803,324.993 381.081,325.359 381.408 C 325.724 381.735,321.884 383.953,316.825 386.337 C 272.041 407.438,219.537 403.748,177.493 376.544 C 144.573 355.244,120.746 319.335,114.453 281.541 C 112.760 271.375,111.443 258.560,112.090 258.560 C 112.297 258.560,118.169 262.648,125.139 267.644 M442.499 331.520 C 461.072 349.937,471.399 362.884,477.059 374.848 C 478.441 377.770,479.572 381.378,479.573 382.867 C 479.573 385.232,479.169 385.713,476.373 386.669 C 471.836 388.221,455.371 387.982,444.270 386.202 C 433.217 384.431,412.828 379.351,399.301 374.998 C 393.936 373.271,389.413 371.737,389.249 371.588 C 389.086 371.439,391.058 368.698,393.631 365.498 C 403.890 352.740,413.681 335.825,419.835 320.224 L 422.608 313.194 426.099 315.957 C 428.019 317.477,435.399 324.480,442.499 331.520 " stroke="none" fill="black" fill-rule="evenodd"></path></svg>