<svg xmlns="http://www.w3.org/2000/svg" width="512" height="512" viewBox="0 0 512 512"><path d="M243.200 48.291 C 189.307 52.936,145.591 72.806,109.198 109.198 C 75.814 142.582,55.864 183.304,49.403 231.253 C 47.996 241.696,47.996 270.304,49.403 280.747 C 55.866 328.705,75.852 369.495,109.198 402.781 C 142.761 436.282,182.341 455.687,231.253 462.621 C 235.243 463.187,246.379 463.649,256.000 463.649 C 284.931 463.649,308.731 459.018,334.933 448.289 C 361.056 437.593,386.578 420.224,405.701 400.129 C 437.387 366.832,455.931 327.939,462.621 280.747 C 463.187 276.757,463.649 265.621,463.649 256.000 C 463.649 227.171,459.011 203.251,448.395 177.325 C 432.022 137.342,403.062 103.108,365.227 79.011 C 343.385 65.100,312.181 53.926,283.992 49.922 C 275.151 48.666,250.352 47.675,243.200 48.291 M254.293 236.397 C 257.344 234.546,284.032 218.426,313.600 200.574 L 367.360 168.117 367.581 212.059 C 367.703 236.226,367.703 275.754,367.581 299.897 L 367.360 343.794 354.987 336.283 C 348.181 332.152,321.493 316.040,295.680 300.479 L 248.747 272.185 248.320 307.662 L 247.893 343.139 179.886 299.783 C 142.482 275.937,111.878 256.235,111.878 256.000 C 111.878 255.765,124.433 247.523,139.779 237.684 C 155.124 227.845,185.728 208.169,207.787 193.959 L 247.893 168.123 248.320 203.943 L 248.747 239.763 254.293 236.397 " stroke="none" fill="black" fill-rule="evenodd"></path></svg>