<svg xmlns="http://www.w3.org/2000/svg" width="512" height="512" viewBox="0 0 512 512"><path d="M143.999 160.215 L -0.001 304.216 87.893 392.107 L 175.787 479.997 320.000 335.786 L 464.213 191.575 464.213 103.894 L 464.213 16.213 376.106 16.213 L 287.998 16.213 143.999 160.215 M479.573 136.319 L 479.573 208.638 348.376 339.838 L 217.178 471.037 229.623 483.483 L 242.069 495.928 377.027 359.964 L 511.985 224.000 511.993 144.000 L 512.000 64.000 495.787 64.000 L 479.573 64.000 479.573 136.319 M381.473 83.024 C 393.976 89.009,401.828 103.656,399.529 116.706 C 398.265 123.882,395.400 129.466,390.433 134.433 C 385.466 139.400,379.882 142.265,372.706 143.529 C 359.674 145.825,345.146 138.050,338.963 125.473 C 336.905 121.285,336.640 119.775,336.640 112.213 C 336.640 104.804,336.932 103.057,338.860 98.948 C 342.746 90.662,349.168 84.833,357.803 81.753 C 364.365 79.412,375.135 79.991,381.473 83.024 " stroke="none" fill="black" fill-rule="evenodd"></path></svg>