<svg xmlns="http://www.w3.org/2000/svg" width="512" height="512" viewBox="0 0 512 512"><path d="M159.573 176.214 L 15.788 320.000 103.895 408.107 L 192.003 496.213 336.215 351.995 L 480.427 207.776 480.427 120.101 L 480.427 32.427 391.892 32.427 L 303.358 32.427 159.573 176.214 M397.710 99.195 C 403.706 102.128,409.869 108.294,412.828 114.318 C 414.904 118.545,415.147 119.979,415.147 128.000 C 415.147 136.021,414.904 137.455,412.828 141.682 C 409.867 147.710,403.710 153.867,397.682 156.828 C 393.455 158.904,392.021 159.147,384.000 159.147 C 375.979 159.147,374.545 158.904,370.318 156.828 C 364.300 153.872,358.129 147.707,355.205 141.730 C 352.023 135.227,351.452 123.705,353.983 117.074 C 357.194 108.663,364.307 101.417,372.649 98.059 C 378.938 95.528,391.366 96.091,397.710 99.195 " stroke="none" fill="black" fill-rule="evenodd"></path></svg>