<svg xmlns="http://www.w3.org/2000/svg" width="512" height="512" viewBox="0 0 512 512"><path d="M53.193 33.996 C 44.634 36.972,36.473 45.301,33.517 54.079 C 32.176 58.059,32.019 64.989,31.771 130.987 C 31.601 176.168,31.822 206.170,32.357 210.547 C 33.877 222.993,40.223 232.015,51.014 237.073 L 55.893 239.360 136.125 239.360 L 216.356 239.360 222.053 236.555 C 228.659 233.303,233.829 227.975,237.133 221.013 L 239.360 216.320 239.360 136.107 L 239.360 55.893 237.073 51.014 C 234.052 44.568,228.186 38.430,222.104 35.350 L 217.173 32.853 137.387 32.659 C 62.549 32.477,57.327 32.560,53.193 33.996 M293.614 33.829 C 285.383 36.710,278.779 42.800,274.889 51.098 L 272.640 55.893 272.640 136.107 L 272.640 216.320 274.910 221.163 C 278.089 227.943,283.332 233.299,290.011 236.587 L 295.644 239.360 375.875 239.360 L 456.107 239.360 460.949 237.090 C 471.623 232.086,478.141 222.849,479.636 210.607 C 480.180 206.154,480.400 176.557,480.229 130.987 C 479.981 64.989,479.824 58.059,478.483 54.079 C 475.525 45.295,467.354 36.959,458.807 34.005 C 454.701 32.586,449.046 32.483,375.893 32.495 C 307.253 32.507,296.913 32.674,293.614 33.829 M208.213 136.107 L 208.213 208.213 136.107 208.213 L 64.000 208.213 64.000 136.107 L 64.000 64.000 136.107 64.000 L 208.213 64.000 208.213 136.107 M448.000 136.107 L 448.000 208.213 375.893 208.213 L 303.787 208.213 303.787 136.107 L 303.787 64.000 375.893 64.000 L 448.000 64.000 448.000 136.107 M99.210 97.732 C 98.185 98.450,96.950 100.466,96.465 102.212 C 95.355 106.207,95.303 164.632,96.405 169.387 C 97.941 176.018,96.513 175.787,135.840 175.787 L 170.798 175.787 173.292 173.292 L 175.787 170.798 175.787 135.707 L 175.787 100.616 173.692 98.521 L 171.598 96.427 136.335 96.427 C 106.070 96.427,100.809 96.612,99.210 97.732 M338.308 98.521 L 336.213 100.616 336.213 135.707 L 336.213 170.798 338.708 173.292 L 341.202 175.787 376.160 175.787 C 415.487 175.787,414.059 176.018,415.595 169.387 C 416.697 164.632,416.645 106.207,415.535 102.212 C 413.886 96.274,414.938 96.427,375.665 96.427 L 340.402 96.427 338.308 98.521 M54.857 273.442 C 42.113 277.457,34.066 287.459,32.363 301.403 C 31.820 305.843,31.600 335.507,31.771 381.013 C 32.019 447.011,32.176 453.941,33.517 457.921 C 36.521 466.840,45.159 475.479,54.079 478.484 C 58.060 479.824,65.019 479.982,131.413 480.237 C 178.507 480.418,206.726 480.204,211.009 479.634 C 223.089 478.026,232.113 471.570,237.073 460.986 L 239.360 456.107 239.360 375.875 L 239.360 295.644 236.587 290.011 C 233.299 283.332,227.943 278.089,221.163 274.910 L 216.320 272.640 137.387 272.475 C 73.802 272.342,57.754 272.530,54.857 273.442 M274.708 274.708 L 272.213 277.202 272.213 303.958 C 272.213 333.126,272.232 333.247,277.138 335.279 C 278.873 335.998,286.952 336.215,305.314 336.037 L 331.057 335.787 333.422 333.422 L 335.787 331.057 336.037 305.314 C 336.215 286.952,335.998 278.873,335.279 277.138 C 333.247 272.232,333.126 272.213,303.958 272.213 L 277.202 272.213 274.708 274.708 M435.840 273.135 C 432.307 275.193,431.787 278.139,431.787 296.107 C 431.787 314.776,432.254 317.066,436.456 318.981 C 437.963 319.667,444.526 320.000,456.560 320.000 L 474.426 320.000 477.213 317.510 L 480.000 315.021 480.301 300.359 C 480.676 282.118,480.100 276.929,477.403 274.232 C 475.399 272.228,475.243 272.214,456.359 272.239 C 445.031 272.255,436.729 272.617,435.840 273.135 M208.213 375.893 L 208.213 448.000 136.107 448.000 L 64.000 448.000 64.000 375.893 L 64.000 303.787 136.107 303.787 L 208.213 303.787 208.213 375.893 M98.597 338.232 C 95.701 341.128,95.422 345.164,95.730 379.773 C 96.033 413.863,96.025 413.817,102.179 415.526 C 106.463 416.716,165.722 416.724,170.002 415.535 C 175.934 413.888,175.787 414.895,175.787 376.064 L 175.787 341.202 173.292 338.708 L 170.798 336.213 135.707 336.213 L 100.616 336.213 98.597 338.232 M338.708 338.708 L 336.213 341.202 336.213 376.064 C 336.213 414.895,336.066 413.888,341.998 415.535 C 346.278 416.724,405.537 416.716,409.821 415.526 C 415.975 413.817,415.967 413.863,416.270 379.773 C 416.578 345.164,416.299 341.128,413.403 338.232 L 411.384 336.213 376.293 336.213 L 341.202 336.213 338.708 338.708 M419.210 417.732 C 418.185 418.450,416.950 420.466,416.465 422.212 C 415.296 426.419,415.304 469.609,416.474 473.821 C 418.167 479.920,418.574 480.000,448.000 480.000 C 477.426 480.000,477.833 479.920,479.526 473.821 C 480.696 469.609,480.704 426.419,479.535 422.212 C 477.922 416.403,478.049 416.427,448.000 416.427 C 425.215 416.427,420.786 416.627,419.210 417.732 M276.288 433.117 C 275.009 433.811,273.569 435.114,273.088 436.013 C 272.566 436.988,272.213 445.261,272.213 456.516 C 272.213 475.238,272.229 475.400,274.240 477.410 C 276.994 480.165,280.993 480.621,299.423 480.285 L 315.023 480.000 317.512 477.213 L 320.000 474.426 320.000 456.560 C 320.000 437.209,319.601 435.067,315.610 433.003 C 312.158 431.218,279.613 431.312,276.288 433.117 " stroke="none" fill="black" fill-rule="evenodd"></path></svg>