<svg xmlns="http://www.w3.org/2000/svg" width="512" height="512" viewBox="0 0 512 512"><path d="M70.387 81.354 C 67.018 82.884,60.340 90.234,51.166 102.511 C -16.865 193.550,-16.926 318.579,51.018 409.237 C 65.954 429.166,69.962 432.415,78.585 431.586 C 87.319 430.747,93.639 423.240,92.817 414.681 C 92.367 410.001,91.436 408.481,81.789 396.682 C 67.376 379.052,53.245 354.059,45.374 332.275 C 41.175 320.657,36.527 302.401,34.426 289.280 C 32.173 275.203,32.173 236.797,34.426 222.720 C 40.793 182.954,57.112 145.803,81.344 115.907 C 91.584 103.274,92.366 102.006,92.817 97.319 C 93.354 91.730,90.661 86.059,86.006 82.979 C 81.965 80.305,74.426 79.521,70.387 81.354 M427.664 82.044 C 422.165 84.766,419.413 89.422,419.413 96.004 C 419.413 101.985,419.643 102.395,430.237 115.346 C 447.796 136.812,462.370 164.461,470.575 191.873 C 476.827 212.759,479.573 232.333,479.573 256.000 C 479.573 279.667,476.827 299.241,470.575 320.127 C 462.370 347.539,447.796 375.188,430.237 396.654 C 420.565 408.478,419.633 409.997,419.183 414.681 C 418.361 423.240,424.681 430.747,433.415 431.586 C 441.976 432.409,445.973 429.206,460.551 409.836 C 473.283 392.920,482.583 376.865,491.079 357.133 C 523.459 281.928,517.721 195.068,475.721 124.674 C 464.290 105.515,447.015 83.701,441.425 81.365 C 437.399 79.683,431.884 79.955,427.664 82.044 M126.720 126.777 C 118.272 131.155,100.268 155.577,90.497 175.911 C 77.937 202.049,72.371 226.644,72.371 256.000 C 72.371 285.726,78.039 310.464,90.875 336.755 C 99.375 354.167,115.042 376.283,123.938 383.428 C 130.540 388.730,141.697 386.913,146.427 379.765 C 149.122 375.693,149.947 369.199,148.277 365.214 C 147.592 363.578,144.765 359.621,141.996 356.421 C 130.546 343.191,120.648 326.979,114.430 311.273 C 111.478 303.815,107.340 288.584,105.674 279.040 C 104.190 270.537,104.199 241.385,105.688 232.960 C 111.026 202.779,122.722 177.851,141.996 155.579 C 144.765 152.379,147.592 148.422,148.277 146.786 C 149.947 142.801,149.122 136.307,146.427 132.235 C 142.530 126.346,132.769 123.643,126.720 126.777 M371.344 127.223 C 366.720 129.572,363.620 134.161,362.974 139.612 C 362.319 145.141,363.715 148.311,370.004 155.579 C 381.454 168.809,391.352 185.021,397.570 200.727 C 400.522 208.185,404.660 223.416,406.326 232.960 C 407.803 241.423,407.801 270.601,406.322 279.040 C 401.105 308.807,389.132 334.318,370.004 356.421 C 367.235 359.621,364.408 363.578,363.723 365.214 C 362.053 369.199,362.878 375.693,365.573 379.765 C 370.303 386.913,381.460 388.730,388.062 383.428 C 396.958 376.283,412.625 354.167,421.125 336.755 C 433.961 310.464,439.629 285.726,439.629 256.000 C 439.629 226.274,433.961 201.536,421.125 175.245 C 412.615 157.813,396.958 135.718,388.040 128.555 C 383.661 125.037,376.733 124.485,371.344 127.223 M176.261 178.574 C 168.996 182.690,155.089 204.746,149.875 220.423 C 145.634 233.172,144.640 239.929,144.640 256.000 C 144.640 272.071,145.634 278.828,149.875 291.577 C 155.089 307.254,168.996 329.310,176.261 333.426 C 186.846 339.421,200.086 331.725,200.023 319.613 C 199.998 314.667,198.958 312.567,192.401 304.213 C 186.345 296.498,181.346 286.202,178.610 275.804 C 175.487 263.939,175.487 248.061,178.610 236.196 C 181.346 225.798,186.345 215.502,192.401 207.787 C 198.958 199.433,199.998 197.333,200.023 192.387 C 200.086 180.275,186.846 172.579,176.261 178.574 M319.555 178.713 C 314.895 181.507,311.944 186.886,312.020 192.449 C 312.088 197.408,313.167 199.592,319.599 207.787 C 325.642 215.484,330.643 225.776,333.406 236.196 C 336.535 247.997,336.528 263.861,333.388 275.804 C 330.655 286.199,325.657 296.496,319.599 304.213 C 313.160 312.416,312.088 314.590,312.016 319.590 C 311.841 331.684,325.130 339.435,335.739 333.426 C 343.004 329.310,356.911 307.254,362.125 291.577 C 366.366 278.828,367.360 272.071,367.360 256.000 C 367.360 239.929,366.366 233.172,362.125 220.423 C 356.911 204.746,343.004 182.690,335.739 178.574 C 331.009 175.895,324.158 175.954,319.555 178.713 M246.037 225.607 C 240.891 227.285,237.166 229.802,232.595 234.689 C 226.282 241.438,224.859 245.358,224.856 256.000 C 224.854 264.024,225.096 265.453,227.172 269.682 C 230.133 275.710,236.290 281.867,242.318 284.828 C 246.545 286.904,247.979 287.147,256.000 287.147 C 264.085 287.147,265.435 286.913,269.823 284.758 C 275.923 281.763,281.783 275.881,284.812 269.714 C 286.906 265.450,287.147 264.036,287.147 256.000 C 287.147 245.200,285.706 241.368,278.968 234.243 C 272.505 227.411,266.999 224.977,257.328 224.681 C 252.491 224.533,248.267 224.880,246.037 225.607 " stroke="none" fill="black" fill-rule="evenodd"></path></svg>