<svg xmlns="http://www.w3.org/2000/svg" width="512" height="512" viewBox="0 0 512 512"><path d="M109.653 145.510 C 86.206 149.796,65.513 160.558,49.036 177.036 C 27.767 198.305,16.220 226.090,16.220 256.000 C 16.220 304.718,47.839 347.500,94.987 362.577 C 112.180 368.075,105.586 367.875,259.840 367.575 C 388.251 367.326,400.279 367.184,405.760 365.848 C 426.289 360.847,443.818 352.062,457.466 339.936 C 482.304 317.866,495.780 288.344,495.780 256.000 C 495.780 207.364,464.220 164.171,417.909 149.425 C 404.777 145.244,395.049 143.974,380.160 144.498 C 361.766 145.145,351.276 147.748,334.778 155.760 C 303.999 170.708,282.441 198.350,274.238 233.387 C 271.954 243.142,271.954 268.858,274.238 278.613 C 278.805 298.120,286.542 313.882,298.748 328.550 C 301.265 331.574,302.880 334.268,302.606 334.983 C 301.888 336.853,210.103 336.831,209.385 334.960 C 209.097 334.207,210.943 331.225,214.009 327.493 C 225.950 312.958,233.819 296.599,237.851 277.924 C 239.966 268.127,239.966 243.873,237.851 234.076 C 233.097 212.059,222.821 192.954,207.381 177.427 C 202.911 172.932,196.373 167.232,192.853 164.761 C 180.884 156.358,165.284 149.487,151.040 146.345 C 141.992 144.350,118.583 143.877,109.653 145.510 " stroke="none" fill="black" fill-rule="evenodd"></path></svg>