<svg xmlns="http://www.w3.org/2000/svg" width="512" height="512" viewBox="0 0 512 512"><path d="M243.200 48.291 C 189.307 52.936,145.591 72.806,109.198 109.198 C 75.814 142.582,55.864 183.304,49.403 231.253 C 47.996 241.696,47.996 270.304,49.403 280.747 C 55.866 328.705,75.852 369.495,109.198 402.781 C 142.761 436.282,182.341 455.687,231.253 462.621 C 235.243 463.187,246.379 463.649,256.000 463.649 C 284.931 463.649,308.731 459.018,334.933 448.289 C 361.056 437.593,386.578 420.224,405.701 400.129 C 437.387 366.832,455.931 327.939,462.621 280.747 C 463.187 276.757,463.649 265.621,463.649 256.000 C 463.649 227.171,459.011 203.251,448.395 177.325 C 432.022 137.342,403.062 103.108,365.227 79.011 C 343.385 65.100,312.181 53.926,283.992 49.922 C 275.151 48.666,250.352 47.675,243.200 48.291 M278.774 139.024 C 302.275 143.854,322.997 154.983,339.544 171.661 L 346.880 179.055 361.608 164.409 L 376.336 149.763 376.114 194.135 L 375.893 238.507 331.520 238.728 L 287.147 238.949 305.280 220.800 C 315.253 210.819,323.413 202.244,323.413 201.745 C 323.413 200.405,312.708 189.781,307.428 185.880 C 292.279 174.689,274.618 168.950,255.396 168.971 C 221.368 169.009,192.552 186.836,177.481 217.173 C 171.159 229.899,168.972 238.396,168.365 252.587 C 166.503 296.158,196.458 333.722,239.520 341.819 C 250.734 343.927,268.330 343.164,278.613 340.123 C 293.712 335.658,304.756 329.235,316.038 318.358 C 327.086 307.706,333.623 297.041,339.616 279.893 C 341.175 275.435,342.750 271.446,343.118 271.030 C 343.827 270.226,371.761 279.583,372.572 280.895 C 373.280 282.040,366.399 300.579,362.021 309.320 C 342.433 348.435,304.437 373.044,260.311 375.195 C 220.198 377.150,180.120 357.130,157.287 323.731 C 147.580 309.533,141.499 294.996,138.093 277.851 C 135.831 266.465,135.694 247.878,137.783 235.947 C 145.863 189.806,179.949 152.508,224.853 140.670 C 241.798 136.204,262.041 135.586,278.774 139.024 " stroke="none" fill="black" fill-rule="evenodd"></path></svg>