<svg xmlns="http://www.w3.org/2000/svg" width="512" height="512" viewBox="0 0 512 512"><path d="M110.475 187.385 C 101.921 190.422,96.413 198.581,96.445 208.168 C 96.469 215.129,98.344 219.478,103.214 223.870 C 110.616 230.544,96.381 229.973,255.573 229.973 C 416.770 229.973,402.630 230.609,409.598 223.050 C 414.206 218.051,415.573 214.602,415.573 207.982 C 415.573 198.387,409.949 190.320,401.176 187.330 C 397.801 186.180,380.634 186.035,255.635 186.094 C 134.884 186.151,113.410 186.342,110.475 187.385 M114.136 282.474 C 109.477 283.268,105.695 285.404,101.803 289.437 C 98.020 293.358,96.427 297.680,96.427 304.018 C 96.427 313.613,102.051 321.680,110.824 324.670 C 114.196 325.818,131.447 325.973,256.000 325.973 C 380.553 325.973,397.804 325.818,401.176 324.670 C 409.949 321.680,415.573 313.613,415.573 304.018 C 415.573 301.045,415.035 297.323,414.376 295.747 C 412.584 291.458,407.106 285.822,402.773 283.810 L 398.933 282.027 258.560 281.905 C 181.355 281.838,116.364 282.094,114.136 282.474 " stroke="none" fill="black" fill-rule="evenodd"></path></svg>