<svg xmlns="http://www.w3.org/2000/svg" width="512" height="512" viewBox="0 0 512 512"><path d="M98.560 154.427 C 93.463 155.365,90.900 156.614,87.187 159.969 C 82.256 164.424,79.910 170.482,80.410 177.468 C 80.629 180.540,81.450 184.292,82.233 185.807 C 84.180 189.572,88.665 193.907,92.669 195.894 C 95.928 197.511,99.458 197.547,256.000 197.547 C 412.542 197.547,416.072 197.511,419.331 195.894 C 423.335 193.907,427.820 189.572,429.767 185.807 C 430.550 184.292,431.371 180.540,431.590 177.468 C 431.913 172.966,431.619 171.021,430.080 167.442 C 427.988 162.579,423.377 157.894,418.366 155.539 C 415.324 154.110,406.538 154.020,258.560 153.912 C 172.437 153.849,100.437 154.081,98.560 154.427 M94.720 235.481 C 89.090 237.415,82.815 243.676,81.241 248.929 C 78.713 257.367,80.517 264.824,86.595 271.066 C 94.148 278.822,79.031 278.187,256.000 278.187 C 432.969 278.187,417.852 278.822,425.405 271.066 C 430.004 266.344,431.787 262.134,431.787 256.000 C 431.787 249.866,430.004 245.656,425.405 240.934 C 417.849 233.176,433.023 233.810,255.632 233.841 C 104.733 233.868,99.254 233.924,94.720 235.481 M95.107 315.155 C 90.495 316.938,86.479 319.913,84.152 323.271 C 76.182 334.772,80.653 350.347,93.685 356.482 C 96.666 357.885,106.283 357.973,256.000 357.973 C 406.566 357.973,415.320 357.892,418.366 356.461 C 423.377 354.106,427.988 349.421,430.080 344.558 C 431.619 340.979,431.913 339.034,431.590 334.532 C 431.371 331.460,430.550 327.708,429.767 326.193 C 427.820 322.428,423.335 318.093,419.331 316.106 C 416.076 314.491,412.390 314.450,256.853 314.301 C 136.451 314.187,97.074 314.394,95.107 315.155 " stroke="none" fill="black" fill-rule="evenodd"></path></svg>