<svg xmlns="http://www.w3.org/2000/svg" width="512" height="512" viewBox="0 0 512 512"><path d="M308.478 109.229 L 297.408 120.324 313.175 136.109 L 328.943 151.893 188.365 151.893 L 47.787 151.893 47.787 215.893 L 47.787 279.893 64.000 279.893 L 80.213 279.893 80.213 232.107 L 80.213 184.320 204.578 184.320 L 328.943 184.320 313.171 200.109 L 297.399 215.898 308.701 227.200 L 320.003 238.501 355.199 203.305 L 390.395 168.109 355.415 133.121 C 336.176 113.878,320.235 98.133,319.992 98.133 C 319.748 98.133,314.567 103.126,308.478 109.229 M431.787 279.893 L 431.787 327.680 307.422 327.680 L 183.057 327.680 198.829 311.891 L 214.601 296.102 203.299 284.800 L 191.997 273.499 156.800 308.696 L 121.603 343.893 156.800 379.091 L 191.997 414.288 203.299 402.986 L 214.601 391.685 198.829 375.896 L 183.057 360.107 323.635 360.107 L 464.213 360.107 464.213 296.107 L 464.213 232.107 448.000 232.107 L 431.787 232.107 431.787 279.893 " stroke="none" fill="black" fill-rule="evenodd"></path></svg>