<svg xmlns="http://www.w3.org/2000/svg" width="512" height="512" viewBox="0 0 512 512"><path d="M287.573 96.000 L 287.573 111.787 332.586 111.787 L 377.598 111.787 244.906 244.481 L 112.213 377.176 111.992 332.375 L 111.772 287.573 95.992 287.573 L 80.213 287.573 80.213 359.680 L 80.213 431.787 152.320 431.787 L 224.427 431.787 224.427 416.008 L 224.427 400.228 179.625 400.008 L 134.824 399.787 267.519 267.094 L 400.213 134.402 400.213 179.414 L 400.213 224.427 416.000 224.427 L 431.787 224.427 431.787 152.320 L 431.787 80.213 359.680 80.213 L 287.573 80.213 287.573 96.000 " stroke="none" fill="black" fill-rule="evenodd"></path></svg>