<svg xmlns="http://www.w3.org/2000/svg" width="512" height="512" viewBox="0 0 512 512"><path d="M392.938 17.867 C 388.175 20.291,306.924 101.916,302.098 109.123 C 292.905 122.855,288.886 136.233,287.956 156.201 L 287.341 169.387 280.987 176.064 C 274.058 183.345,272.213 186.697,272.213 192.000 C 272.213 196.743,273.937 200.476,277.622 203.711 C 283.559 208.923,290.415 209.240,297.385 204.624 C 303.604 200.505,313.922 188.860,316.871 182.634 C 319.415 177.262,319.504 176.658,320.062 160.874 C 321.064 132.551,318.788 136.001,371.318 83.200 C 394.664 59.733,414.172 39.452,414.669 38.131 C 416.036 34.499,415.752 28.089,414.079 24.807 C 413.258 23.198,411.141 20.726,409.374 19.314 C 405.085 15.888,398.044 15.268,392.938 17.867 M52.053 32.691 C 48.518 33.807,42.290 39.948,37.418 47.123 C 10.576 86.650,22.310 152.095,65.994 206.507 C 72.912 215.124,164.522 307.119,171.520 312.476 C 177.932 317.386,186.802 321.834,194.133 323.817 C 202.054 325.959,215.116 326.399,222.720 324.778 C 234.162 322.341,236.827 323.115,246.362 331.649 C 256.692 340.895,257.029 341.524,257.861 353.126 C 259.247 372.453,261.882 377.706,279.456 396.182 C 286.699 403.797,309.633 427.182,330.419 448.149 C 367.913 485.968,368.271 486.299,375.467 489.765 C 396.906 500.093,420.204 496.580,436.496 480.565 C 453.585 463.766,457.456 439.673,446.585 417.781 C 443.731 412.035,434.187 402.330,255.284 223.273 C 123.827 91.702,65.956 34.329,63.573 33.211 C 59.774 31.430,56.512 31.283,52.053 32.691 M433.067 57.643 C 428.838 59.811,347.371 141.572,345.532 145.493 C 341.689 153.686,345.595 163.136,354.331 166.786 C 358.058 168.343,360.180 168.422,364.800 167.177 C 367.709 166.393,374.435 160.055,410.301 124.302 C 433.449 101.227,453.129 80.922,454.034 79.181 C 455.848 75.692,456.182 69.707,454.772 65.976 C 453.537 62.707,449.855 58.916,446.534 57.495 C 442.895 55.938,436.250 56.011,433.067 57.643 M239.464 252.800 C 409.302 422.750,418.816 432.428,419.843 436.289 C 421.113 441.061,420.562 448.396,418.656 452.080 C 416.678 455.906,412.222 460.015,408.051 461.860 C 403.001 464.094,395.258 464.005,390.407 461.657 C 387.747 460.369,373.515 446.432,339.774 412.071 C 313.961 385.784,292.232 362.992,291.488 361.422 C 290.629 359.614,290.133 356.252,290.133 352.241 C 290.133 343.092,288.736 336.758,284.903 328.533 C 281.903 322.097,280.452 320.233,272.011 311.982 C 252.213 292.629,242.011 289.255,215.680 293.351 C 209.293 294.345,202.657 293.395,196.514 290.608 C 192.154 288.630,185.800 282.580,142.440 239.117 C 106.157 202.748,91.601 187.580,86.789 181.122 C 61.037 146.569,49.732 106.791,57.647 78.583 C 58.449 75.725,59.344 73.387,59.637 73.387 C 59.930 73.387,140.852 154.123,239.464 252.800 M473.600 97.379 C 472.427 97.844,452.267 117.323,428.800 140.666 C 384.407 184.825,383.586 185.536,372.303 189.566 C 368.283 191.001,364.328 191.441,351.126 191.922 C 335.360 192.495,334.732 192.588,329.366 195.129 C 323.140 198.078,311.495 208.396,307.376 214.615 C 302.760 221.585,303.077 228.441,308.289 234.378 C 311.524 238.063,315.257 239.787,320.000 239.787 C 325.325 239.787,328.664 237.935,336.030 230.897 L 342.803 224.427 348.255 224.419 C 357.952 224.406,372.319 222.785,378.880 220.963 C 388.164 218.384,397.960 213.501,405.760 207.564 C 409.515 204.706,430.877 184.002,453.232 161.557 C 497.160 117.451,496.392 118.387,495.581 109.947 C 495.110 105.040,491.773 100.257,487.193 97.921 C 483.993 96.290,477.052 96.013,473.600 97.379 M119.420 314.779 C 117.334 316.131,95.439 337.539,70.766 362.352 C 30.014 403.334,25.615 408.029,22.742 413.610 C 14.251 430.103,14.103 448.499,22.323 465.594 C 26.274 473.810,38.190 485.726,46.406 489.677 C 63.495 497.894,81.870 497.749,98.390 489.266 C 104.029 486.371,108.970 481.689,158.529 432.283 C 194.632 396.292,213.084 377.304,214.209 374.984 C 218.111 366.945,214.213 356.358,206.238 353.337 C 202.821 352.042,195.735 352.211,193.024 353.652 C 191.757 354.325,167.296 378.352,138.667 407.043 C 100.118 445.676,85.506 459.790,82.347 461.445 C 76.568 464.472,67.968 464.621,62.150 461.796 C 57.519 459.548,51.663 453.533,49.706 449.015 C 47.862 444.757,47.949 434.947,49.870 430.507 C 50.921 428.077,64.457 413.940,96.853 381.440 C 135.696 342.472,142.495 335.287,143.282 332.373 C 144.624 327.405,144.459 325.948,141.998 321.009 C 137.696 312.376,127.478 309.556,119.420 314.779 " stroke="none" fill="black" fill-rule="evenodd"></path></svg>