<svg xmlns="http://www.w3.org/2000/svg" width="512" height="512" viewBox="0 0 512 512"><path d="M410.880 34.142 C 346.460 43.981,267.349 81.336,214.430 126.902 C 203.766 136.085,187.506 152.861,177.874 164.621 L 169.622 174.695 156.704 175.175 C 141.295 175.748,131.543 177.383,119.467 181.418 C 81.840 193.989,53.176 227.032,38.854 274.347 C 32.454 295.491,30.935 308.525,34.067 315.424 C 36.408 320.579,41.631 325.957,46.507 328.232 C 52.424 330.994,57.716 330.843,93.440 326.890 C 109.867 325.073,123.449 323.722,123.623 323.887 C 123.797 324.052,124.276 325.995,124.689 328.203 C 126.456 337.663,128.639 340.594,149.531 361.562 C 170.613 382.719,174.236 385.463,183.619 387.375 C 188.422 388.354,188.461 388.386,188.074 391.088 C 187.860 392.587,186.190 407.637,184.364 424.533 C 180.836 457.172,180.826 459.964,184.217 466.534 C 186.466 470.891,191.603 475.694,196.267 477.801 C 203.549 481.091,216.132 479.657,237.987 473.048 C 264.017 465.175,285.550 453.037,302.098 436.907 C 312.025 427.231,319.114 417.379,325.100 404.941 C 332.809 388.925,335.861 375.741,336.796 354.417 L 337.326 342.327 347.220 334.363 C 359.385 324.572,379.381 304.781,389.597 292.422 C 432.518 240.493,465.763 170.215,477.157 107.325 C 478.737 98.603,479.062 93.645,479.100 77.653 C 479.153 55.986,478.201 48.959,474.461 43.390 C 468.799 34.959,459.574 32.373,435.627 32.501 C 426.230 32.551,417.513 33.129,410.880 34.142 M340.303 125.891 C 344.200 126.663,350.183 128.797,354.987 131.128 C 370.271 138.544,382.329 153.658,386.189 170.240 C 387.204 174.601,387.480 178.863,387.211 186.027 C 386.601 202.245,381.891 212.823,369.920 224.858 C 358.324 236.517,345.341 241.900,328.960 241.841 C 311.119 241.776,298.183 236.102,285.695 222.864 C 275.676 212.244,270.272 198.440,270.272 183.467 C 270.272 146.228,303.809 118.656,340.303 125.891 M321.707 157.761 C 309.659 161.722,302.542 171.268,302.542 183.467 C 302.542 194.548,308.218 203.197,318.528 207.823 C 323.030 209.844,324.455 210.079,330.181 209.747 C 335.295 209.451,337.686 208.836,341.243 206.900 C 360.060 196.659,360.060 170.275,341.243 160.033 C 337.590 158.045,335.451 157.514,330.273 157.312 C 326.735 157.173,322.880 157.375,321.707 157.761 M98.133 338.232 C 82.789 342.854,71.080 351.868,64.175 364.373 C 56.536 378.207,51.071 403.603,48.615 436.680 C 47.539 451.173,48.169 454.557,52.806 459.194 C 57.472 463.860,60.778 464.459,75.740 463.352 C 116.126 460.365,142.097 453.526,156.057 442.203 C 160.517 438.585,166.478 430.698,169.964 423.802 C 172.969 417.856,175.787 407.389,175.787 402.168 C 175.787 392.823,168.295 386.021,158.787 386.732 C 154.432 387.058,152.959 387.801,141.492 395.456 C 127.152 405.030,124.271 405.930,117.523 402.945 C 112.088 400.541,108.861 395.564,108.861 389.586 C 108.861 385.536,109.567 383.914,116.836 371.277 C 125.327 356.514,126.531 352.772,124.638 347.035 C 121.338 337.036,112.191 333.998,98.133 338.232 " stroke="none" fill="black" fill-rule="evenodd"></path></svg>