<svg xmlns="http://www.w3.org/2000/svg" width="512" height="512" viewBox="0 0 512 512"><path d="M111.496 46.974 C 81.996 51.925,58.066 73.307,48.929 102.879 L 46.572 110.507 46.274 151.253 L 45.975 192.000 67.788 192.000 L 89.600 192.000 89.628 158.933 C 89.643 140.747,89.995 123.233,90.410 120.013 C 92.430 104.338,104.397 92.425,120.167 90.391 C 123.302 89.987,140.747 89.643,158.933 89.628 L 192.000 89.600 192.000 67.840 L 192.000 46.080 153.813 46.180 C 132.811 46.236,113.768 46.593,111.496 46.974 M320.000 67.788 L 320.000 89.600 353.067 89.628 C 371.253 89.643,388.767 89.995,391.987 90.410 C 407.662 92.430,419.575 104.397,421.609 120.167 C 422.013 123.302,422.357 140.747,422.372 158.933 L 422.400 192.000 444.212 192.000 L 466.025 192.000 465.726 151.253 L 465.428 110.507 463.108 103.007 C 454.732 75.927,436.072 57.268,408.987 48.890 L 401.493 46.572 360.747 46.274 L 320.000 45.975 320.000 67.788 M46.274 360.747 L 46.572 401.493 48.890 408.987 C 57.268 436.072,75.927 454.732,103.007 463.108 L 110.507 465.428 151.253 465.726 L 192.000 466.025 192.000 444.212 L 192.000 422.400 158.933 422.372 C 140.747 422.357,123.302 422.013,120.167 421.609 C 104.397 419.575,92.430 407.662,90.410 391.987 C 89.995 388.767,89.643 371.253,89.628 353.067 L 89.600 320.000 67.788 320.000 L 45.975 320.000 46.274 360.747 M422.372 353.067 C 422.357 371.253,422.005 388.767,421.590 391.987 C 419.570 407.662,407.603 419.575,391.833 421.609 C 388.698 422.013,371.253 422.357,353.067 422.372 L 320.000 422.400 320.000 444.206 L 320.000 466.012 360.320 465.719 C 398.872 465.439,400.939 465.343,407.467 463.531 C 415.081 461.417,426.401 456.266,432.204 452.273 C 446.819 442.218,458.537 425.458,463.531 407.467 C 465.343 400.939,465.439 398.872,465.719 360.320 L 466.012 320.000 444.206 320.000 L 422.400 320.000 422.372 353.067 " stroke="none" fill="black" fill-rule="evenodd"></path></svg>