<svg xmlns="http://www.w3.org/2000/svg" width="512" height="512" viewBox="0 0 512 512"><path d="M219.733 33.344 C 152.094 38.724,95.514 58.226,67.872 85.688 C 59.778 93.730,53.992 102.624,50.616 112.213 L 48.213 119.040 47.984 252.546 C 47.733 399.221,47.588 394.662,52.849 405.905 C 70.952 444.589,135.755 472.422,222.501 478.770 C 238.562 479.945,288.353 479.403,301.653 477.908 C 347.591 472.744,380.400 464.272,409.173 450.144 C 424.664 442.538,433.230 436.920,442.201 428.481 C 449.981 421.162,455.370 413.984,459.151 405.905 C 464.412 394.662,464.267 399.221,464.016 252.546 L 463.787 119.040 461.384 112.213 C 451.456 84.009,420.067 61.628,369.843 46.941 C 347.857 40.512,318.340 35.406,291.029 33.308 C 277.954 32.304,232.527 32.327,219.733 33.344 M283.307 64.864 C 346.930 69.217,398.881 85.676,422.015 108.810 C 435.098 121.894,435.098 134.106,422.015 147.190 C 400.726 168.479,352.571 184.852,295.253 190.290 C 289.856 190.802,276.608 191.450,265.813 191.730 C 190.577 193.683,118.124 175.329,89.985 147.190 C 74.715 131.920,77.293 117.316,97.983 101.892 C 123.766 82.670,172.280 68.734,226.560 64.955 C 241.336 63.927,268.965 63.882,283.307 64.864 M103.680 194.578 C 134.028 209.284,175.196 219.149,220.971 222.686 C 235.727 223.827,276.215 223.830,291.029 222.692 C 345.463 218.510,393.492 205.193,424.320 185.735 L 431.787 181.022 431.787 199.184 C 431.787 218.582,431.445 220.740,427.438 226.637 C 413.859 246.619,373.819 264.342,323.657 272.573 C 300.706 276.339,283.386 277.634,256.000 277.634 C 228.497 277.634,210.646 276.291,188.160 272.530 C 137.369 264.034,98.153 246.642,84.512 226.564 C 80.560 220.747,80.213 218.536,80.213 199.184 L 80.213 181.022 87.680 185.733 C 91.787 188.324,98.987 192.304,103.680 194.578 M101.414 279.400 C 129.125 293.317,166.094 302.983,209.920 307.769 C 227.629 309.703,279.907 309.960,297.813 308.202 C 342.277 303.836,378.598 294.750,407.467 280.772 C 414.037 277.591,422.101 273.231,425.387 271.084 L 431.360 267.180 431.590 285.583 C 431.816 303.600,431.776 304.083,429.705 308.606 C 425.653 317.458,414.727 327.028,399.325 335.217 C 331.444 371.309,199.004 373.637,122.755 340.080 C 102.306 331.080,87.324 319.450,82.311 308.683 C 80.307 304.379,80.230 303.526,80.222 285.647 L 80.213 267.082 86.924 271.287 C 90.615 273.601,97.136 277.251,101.414 279.400 M89.799 359.115 C 129.328 383.305,196.277 397.245,265.387 395.675 C 297.035 394.956,317.227 392.815,344.320 387.308 C 376.120 380.843,408.491 368.668,426.962 356.225 L 431.360 353.263 431.591 370.863 C 431.816 388.029,431.770 388.577,429.706 393.085 C 425.482 402.312,413.464 412.434,396.869 420.741 C 324.618 456.912,188.322 457.006,115.627 420.936 C 98.934 412.654,86.606 402.388,82.336 393.216 C 80.310 388.865,80.230 388.018,80.222 370.889 L 80.213 353.084 82.133 354.341 C 83.189 355.033,86.639 357.181,89.799 359.115 " stroke="none" fill="black" fill-rule="evenodd"></path></svg>