<svg xmlns="http://www.w3.org/2000/svg" width="512" height="512" viewBox="0 0 512 512"><path d="M177.067 33.631 C 175.659 34.257,173.671 35.682,172.649 36.798 C 171.627 37.914,136.137 100.842,93.783 176.639 C 11.313 324.228,14.557 317.942,17.015 325.391 C 18.282 329.230,23.650 334.122,27.886 335.298 C 30.067 335.904,55.214 336.205,103.802 336.209 C 183.406 336.214,177.493 335.825,177.493 341.056 C 177.493 344.774,180.880 360.003,183.605 368.537 C 201.248 423.795,246.644 464.409,304.622 476.807 C 314.492 478.918,316.867 479.094,335.787 479.119 C 353.871 479.143,357.405 478.916,365.995 477.176 C 399.414 470.408,428.166 454.645,451.432 430.336 C 473.695 407.076,487.980 378.885,493.720 346.880 C 495.856 334.967,496.268 311.437,494.553 299.184 C 489.690 264.421,475.178 234.292,451.413 209.619 C 433.503 191.024,415.262 178.902,392.262 170.311 C 373.368 163.254,356.519 160.259,335.787 160.272 C 315.621 160.285,295.493 163.917,279.040 170.510 C 275.520 171.921,272.392 172.821,272.090 172.511 C 271.787 172.200,254.939 142.187,234.650 105.813 C 214.361 69.440,196.753 38.590,195.520 37.257 C 194.288 35.925,192.243 34.293,190.976 33.630 C 188.093 32.124,180.456 32.125,177.067 33.631 M246.500 192.569 C 280.355 253.191,308.053 303.015,308.053 303.289 C 308.053 303.563,252.149 303.787,183.822 303.787 C 114.314 303.787,59.716 303.462,59.876 303.049 C 61.369 299.175,183.966 81.243,184.386 81.715 C 184.695 82.063,212.646 131.947,246.500 192.569 M361.387 194.580 C 378.239 198.132,394.112 204.837,408.080 214.304 C 419.112 221.780,435.024 237.831,442.288 248.810 C 465.541 283.953,470.298 327.141,455.228 366.288 C 441.959 400.759,413.250 428.445,378.081 440.687 C 362.632 446.064,354.128 447.440,336.213 447.460 C 318.842 447.479,309.944 446.114,295.054 441.143 C 258.194 428.839,227.802 398.691,215.081 361.813 C 213.251 356.511,209.091 339.515,209.074 337.280 C 209.068 336.436,222.491 336.213,273.366 336.213 C 340.173 336.213,340.678 336.188,345.833 332.598 C 351.403 328.718,353.271 318.993,349.766 312.124 C 348.773 310.176,334.566 284.616,318.196 255.325 C 301.825 226.035,288.637 201.737,288.888 201.331 C 290.059 199.436,310.721 194.038,322.560 192.533 C 329.904 191.600,353.037 192.819,361.387 194.580 " stroke="none" fill="black" fill-rule="evenodd"></path></svg>