<svg xmlns="http://www.w3.org/2000/svg" width="512" height="512" viewBox="0 0 512 512"><path d="M376.747 48.685 C 351.225 51.449,330.286 69.224,322.479 94.750 C 320.373 101.636,319.735 115.606,321.131 124.257 L 321.835 128.621 247.915 170.201 L 173.995 211.781 169.984 208.044 C 164.206 202.661,156.804 198.450,147.580 195.299 C 140.251 192.795,138.552 192.540,128.853 192.486 C 113.990 192.403,103.396 195.463,92.182 203.078 C 54.504 228.665,54.887 284.728,92.909 309.324 C 104.671 316.933,114.065 319.596,128.853 319.514 C 138.552 319.460,140.251 319.205,147.580 316.701 C 156.804 313.550,164.206 309.339,169.984 303.956 L 173.995 300.219 247.915 341.799 L 321.835 383.379 321.131 387.743 C 319.736 396.387,320.374 410.363,322.478 417.280 C 329.365 439.914,346.932 456.781,369.297 462.232 C 377.908 464.331,392.093 464.111,400.592 461.747 C 412.010 458.571,420.058 453.818,428.873 445.048 C 435.430 438.523,437.239 436.083,440.605 429.227 C 446.193 417.843,447.533 412.139,447.518 399.787 C 447.504 387.806,446.148 381.840,441.105 371.556 C 433.345 355.735,419.854 344.327,402.347 338.785 C 393.197 335.888,378.848 335.459,369.472 337.802 C 360.150 340.132,350.034 345.153,343.040 350.921 L 337.493 355.496 263.855 314.068 L 190.216 272.640 190.895 268.373 C 191.768 262.880,191.768 249.115,190.894 243.627 L 190.214 239.360 263.854 197.937 L 337.493 156.514 343.719 161.444 C 350.740 167.003,359.578 171.525,367.787 173.758 C 376.450 176.116,392.804 175.914,401.067 173.349 C 419.213 167.714,434.268 154.923,441.598 138.912 C 447.346 126.355,448.919 109.359,445.540 96.311 C 437.597 65.638,408.189 45.278,376.747 48.685 " stroke="none" fill="black" fill-rule="evenodd"></path></svg>