<svg xmlns="http://www.w3.org/2000/svg" width="512" height="512" viewBox="0 0 512 512"><path d="M374.619 48.738 C 360.824 50.831,349.061 56.927,338.750 67.327 C 330.691 75.457,325.951 83.415,322.435 94.720 C 320.724 100.220,320.469 102.680,320.617 112.213 C 320.711 118.315,320.899 124.567,321.034 126.107 L 321.280 128.907 247.915 170.189 L 174.551 211.471 172.395 209.803 C 171.210 208.886,168.320 206.618,165.973 204.764 C 160.579 200.501,151.378 195.963,144.213 194.032 C 137.174 192.134,120.203 191.912,113.494 193.630 C 89.538 199.766,71.720 217.587,65.639 241.494 C 64.093 247.568,64.085 264.399,65.624 270.446 C 69.743 286.626,79.715 300.776,93.013 309.311 C 103.161 315.824,112.062 318.829,123.733 319.682 C 140.415 320.901,156.804 315.397,169.975 304.154 L 174.385 300.390 177.859 302.395 C 179.770 303.498,212.946 322.171,251.584 343.891 L 321.834 383.382 321.131 387.745 C 319.736 396.387,320.374 410.364,322.478 417.280 C 325.976 428.776,330.611 436.491,339.166 445.059 C 345.662 451.565,348.160 453.415,354.987 456.771 C 365.673 462.025,372.660 463.643,384.427 463.588 C 402.546 463.504,415.851 457.939,428.834 445.013 C 437.367 436.518,441.955 428.909,445.556 417.280 C 448.141 408.933,448.355 392.568,445.992 384.000 C 439.967 362.155,423.737 345.451,401.920 338.638 C 396.537 336.957,393.690 336.640,384.000 336.640 C 374.310 336.640,371.463 336.957,366.080 338.638 C 357.570 341.296,349.564 345.576,342.931 351.013 L 337.493 355.471 263.860 314.055 L 190.226 272.640 190.900 267.947 C 191.270 265.365,191.573 259.989,191.573 256.000 C 191.573 252.011,191.270 246.635,190.900 244.053 L 190.226 239.360 263.860 197.925 L 337.493 156.490 342.985 160.996 C 349.665 166.477,357.548 170.698,366.080 173.362 C 371.463 175.043,374.310 175.360,384.000 175.360 C 393.690 175.360,396.537 175.043,401.920 173.362 C 419.686 167.814,433.862 155.731,441.596 139.545 C 446.245 129.815,447.521 123.848,447.530 111.787 C 447.540 99.416,445.934 92.905,440.061 81.493 C 435.180 72.008,423.911 60.768,414.170 55.668 C 402.398 49.506,387.160 46.836,374.619 48.738 M396.986 82.978 C 403.395 85.915,409.554 91.782,412.647 97.896 C 414.931 102.412,415.141 103.580,415.144 111.787 C 415.146 119.717,414.885 121.305,412.868 125.608 C 406.910 138.319,392.097 146.028,378.695 143.392 C 368.046 141.297,359.953 135.207,355.344 125.820 C 353.072 121.192,352.853 119.960,352.853 111.787 C 352.853 103.640,353.071 102.401,355.258 98.133 C 359.357 90.130,366.317 84.189,374.857 81.402 C 380.591 79.530,391.096 80.279,396.986 82.978 M141.682 227.172 C 147.703 230.129,153.531 235.958,156.679 242.169 C 158.935 246.621,159.147 247.810,159.147 256.000 C 159.147 264.190,158.935 265.379,156.679 269.831 C 153.531 276.042,147.703 281.871,141.682 284.828 C 137.455 286.904,136.021 287.147,128.000 287.147 C 119.979 287.147,118.545 286.904,114.318 284.828 C 108.290 281.867,102.133 275.710,99.172 269.682 C 95.988 263.199,95.442 251.784,97.993 245.068 C 101.185 236.668,108.319 229.403,116.649 226.069 C 123.009 223.523,135.359 224.067,141.682 227.172 M397.398 371.169 C 403.988 374.235,409.893 380.046,412.868 386.392 C 414.889 390.703,415.145 392.268,415.132 400.213 C 415.119 407.883,414.827 409.761,413.106 413.252 C 409.929 419.695,404.224 425.412,397.829 428.561 C 392.610 431.130,391.475 431.360,384.018 431.360 C 376.989 431.360,375.235 431.052,371.014 429.073 C 364.567 426.051,358.429 420.184,355.353 414.104 C 353.069 409.588,352.859 408.420,352.856 400.213 C 352.854 392.037,353.071 390.809,355.344 386.180 C 363.125 370.334,381.503 363.774,397.398 371.169 " stroke="none" fill="black" fill-rule="evenodd"></path></svg>