<svg xmlns="http://www.w3.org/2000/svg" width="512" height="512" viewBox="0 0 512 512"><path d="M183.893 34.052 C 181.077 34.879,174.933 36.919,170.240 38.585 C 165.547 40.252,130.815 52.439,93.059 65.669 C 55.303 78.898,23.368 90.466,22.092 91.374 C 19.114 93.495,16.213 99.492,16.213 103.530 C 16.213 108.102,33.144 196.945,34.519 199.586 C 35.851 202.146,38.798 204.985,41.651 206.457 C 43.245 207.280,90.558 213.288,95.721 213.324 C 96.507 213.329,98.331 214.327,99.775 215.543 L 102.400 217.752 102.395 227.703 C 102.393 233.175,101.052 284.693,99.415 342.187 C 96.002 462.073,95.927 467.598,97.663 470.956 C 99.286 474.094,104.388 478.526,107.322 479.348 C 110.369 480.200,401.631 480.200,404.678 479.348 C 407.612 478.526,412.714 474.094,414.337 470.956 C 416.075 467.594,415.998 461.936,412.589 342.613 C 410.953 285.355,409.612 233.837,409.608 228.129 L 409.600 217.752 412.225 215.543 C 413.669 214.327,415.497 213.333,416.287 213.333 C 421.345 213.333,468.652 207.335,470.297 206.485 C 473.200 204.985,476.141 202.161,477.481 199.586 C 478.856 196.945,495.787 108.102,495.787 103.530 C 495.787 99.506,492.885 93.487,489.953 91.430 C 488.703 90.552,484.416 88.651,480.427 87.205 C 473.337 84.635,366.267 47.132,339.200 37.737 C 321.907 31.735,316.105 31.198,303.360 34.416 C 287.498 38.422,276.807 39.590,256.000 39.590 C 235.321 39.590,224.578 38.428,208.912 34.499 C 199.166 32.054,191.182 31.911,183.893 34.052 M228.267 70.378 C 250.084 72.934,281.834 71.725,302.293 67.559 C 306.400 66.722,309.760 66.182,309.760 66.359 C 309.760 67.669,303.735 74.914,299.212 79.044 C 292.292 85.361,285.856 89.244,277.270 92.283 C 255.313 100.053,230.946 95.288,213.581 79.829 C 208.916 75.676,202.240 67.891,202.240 66.605 C 202.240 66.244,205.600 66.653,209.707 67.514 C 213.813 68.374,222.165 69.663,228.267 70.378 M171.947 78.294 C 183.512 100.444,206.519 118.182,232.815 125.222 C 240.204 127.201,242.628 127.432,256.000 127.432 C 269.372 127.432,271.796 127.201,279.185 125.222 C 295.566 120.836,309.962 112.934,321.639 101.919 C 328.649 95.306,336.321 85.466,340.058 78.295 C 341.463 75.598,342.997 73.395,343.467 73.401 C 344.402 73.413,460.875 114.137,461.360 114.622 C 461.730 114.993,450.108 176.523,449.565 177.066 C 449.349 177.282,440.557 178.426,430.027 179.609 C 409.774 181.884,404.030 183.133,397.381 186.710 C 392.036 189.585,383.920 198.307,381.159 204.143 C 376.769 213.423,376.788 211.256,380.089 326.420 C 381.771 385.097,383.147 436.457,383.147 440.553 L 383.147 448.000 256.000 448.000 L 128.853 448.000 128.852 440.533 C 128.851 436.427,130.227 385.067,131.910 326.400 C 135.223 210.862,135.247 213.334,130.724 204.034 C 125.965 194.252,114.960 185.170,104.960 182.774 C 102.848 182.267,92.500 180.860,81.964 179.646 C 71.428 178.432,62.626 177.257,62.404 177.035 C 61.910 176.541,50.254 115.008,50.590 114.672 C 50.722 114.540,68.289 108.313,89.628 100.833 C 110.967 93.353,137.259 84.137,148.053 80.352 C 158.848 76.567,168.064 73.453,168.533 73.431 C 169.003 73.409,170.539 75.597,171.947 78.294 " stroke="none" fill="black" fill-rule="evenodd"></path></svg>