<svg xmlns="http://www.w3.org/2000/svg" width="512" height="512" viewBox="0 0 512 512"><path d="M241.920 48.299 C 183.806 52.817,135.116 73.576,93.288 111.669 C 60.095 141.898,34.936 183.849,23.895 227.376 C 18.256 249.606,16.208 265.759,16.222 287.877 C 16.249 327.514,24.873 362.976,43.064 398.243 C 53.396 418.274,70.041 441.559,81.836 452.479 C 93.550 463.324,108.798 466.645,123.559 461.567 C 130.555 459.160,133.535 457.020,144.213 446.740 C 149.611 441.544,156.331 435.531,159.147 433.377 C 179.418 417.873,201.879 407.694,226.987 402.632 C 235.516 400.913,239.312 400.654,256.000 400.654 C 272.688 400.654,276.484 400.913,285.013 402.632 C 310.121 407.694,332.582 417.873,352.853 433.377 C 355.669 435.531,362.389 441.544,367.787 446.740 C 378.465 457.020,381.445 459.160,388.441 461.567 C 403.202 466.645,418.450 463.324,430.164 452.479 C 433.030 449.825,438.624 443.604,442.596 438.654 C 486.177 384.339,504.196 314.745,492.320 246.613 C 475.437 149.755,400.530 72.576,304.330 52.919 C 286.483 49.272,257.245 47.108,241.920 48.299 M280.269 81.504 C 304.018 84.282,325.966 90.799,347.733 101.538 C 369.330 112.192,385.543 123.725,402.327 140.373 C 432.717 170.518,452.692 208.144,460.379 249.723 C 468.834 295.460,462.139 341.061,440.821 382.920 C 434.340 395.647,426.493 407.738,417.588 418.718 C 408.795 429.560,406.111 431.787,401.837 431.787 C 398.618 431.787,397.765 431.177,388.412 422.183 C 358.189 393.120,323.808 376.121,282.453 369.794 C 268.998 367.735,242.974 367.737,229.547 369.799 C 187.952 376.184,153.933 393.003,123.588 422.183 C 114.235 431.177,113.382 431.787,110.163 431.787 C 105.889 431.787,103.205 429.560,94.412 418.718 C 61.739 378.430,44.747 325.074,48.521 274.611 C 53.204 211.991,82.515 158.010,131.791 121.255 C 160.810 99.609,195.193 85.861,231.253 81.486 C 243.829 79.960,267.143 79.968,280.269 81.504 M250.453 113.068 C 246.189 114.576,241.901 119.139,240.707 123.439 C 239.530 127.677,239.518 159.851,240.691 164.077 C 241.805 168.087,246.125 173.110,249.773 174.634 C 253.301 176.108,258.699 176.108,262.227 174.634 C 265.875 173.110,270.195 168.087,271.309 164.077 C 272.505 159.767,272.468 127.673,271.262 123.326 C 269.557 117.185,262.078 111.704,255.573 111.829 C 254.635 111.847,252.331 112.405,250.453 113.068 M139.093 159.318 C 134.199 161.088,131.754 162.883,129.592 166.292 C 126.771 170.740,126.329 176.444,128.417 181.441 C 129.801 184.754,150.894 206.698,156.286 210.434 C 160.168 213.124,166.426 214.020,170.938 212.531 C 177.245 210.450,182.630 201.390,181.283 195.129 C 180.195 190.073,178.101 187.314,166.124 175.148 C 151.648 160.444,145.665 156.941,139.093 159.318 M362.176 160.797 C 357.424 163.204,334.911 185.333,332.602 189.867 C 329.332 196.288,330.083 202.617,334.743 207.925 C 339.605 213.463,346.954 214.896,353.714 211.623 C 358.264 209.420,381.847 185.597,383.578 181.454 C 389.397 167.528,375.455 154.071,362.176 160.797 M313.161 217.493 C 302.444 223.259,234.609 266.798,232.209 269.452 C 220.185 282.744,222.612 304.130,237.290 314.223 C 249.074 322.326,264.847 321.218,274.570 311.605 C 276.886 309.316,283.512 299.773,290.079 289.270 C 296.386 279.185,307.426 261.575,314.613 250.137 C 328.556 227.946,329.181 226.390,326.343 220.904 C 325.035 218.373,320.741 215.893,317.668 215.893 C 316.825 215.893,314.796 216.613,313.161 217.493 M89.173 273.634 C 83.362 276.705,80.213 281.756,80.213 288.008 C 80.213 294.238,83.340 299.320,88.926 302.171 C 91.762 303.618,94.144 303.787,111.780 303.787 C 133.725 303.787,135.215 303.499,139.700 298.390 C 142.050 295.715,144.204 290.745,144.204 288.000 C 144.204 282.888,139.100 275.402,134.227 273.366 C 129.925 271.569,92.663 271.790,89.173 273.634 M377.584 273.403 C 372.845 275.468,367.796 282.997,367.796 288.000 C 367.796 290.745,369.950 295.715,372.300 298.390 C 376.785 303.499,378.274 303.787,400.228 303.787 C 420.852 303.787,422.533 303.525,426.971 299.630 C 429.643 297.285,431.787 292.108,431.787 288.000 C 431.787 283.892,429.643 278.715,426.971 276.370 C 422.519 272.463,420.881 272.212,400.042 272.247 C 385.548 272.271,379.462 272.584,377.584 273.403 " stroke="none" fill="black" fill-rule="evenodd"></path></svg>