<svg xmlns="http://www.w3.org/2000/svg" width="512" height="512" viewBox="0 0 512 512"><path d="M227.700 117.973 L 199.838 202.667 108.239 203.093 L 16.640 203.520 19.627 205.761 C 21.269 206.993,53.717 229.794,91.733 256.428 C 129.749 283.062,162.046 305.743,163.504 306.830 L 166.154 308.806 137.244 393.491 C 121.343 440.067,108.439 478.427,108.567 478.734 C 108.695 479.042,141.934 455.569,182.431 426.572 L 256.062 373.850 329.631 426.563 C 370.094 455.556,403.306 479.027,403.434 478.722 C 403.563 478.416,390.656 440.179,374.752 393.750 C 358.847 347.321,346.141 308.949,346.516 308.480 C 346.891 308.011,380.417 284.395,421.017 256.000 C 461.617 227.605,494.858 204.087,494.885 203.737 C 494.911 203.387,453.810 203.003,403.548 202.884 L 312.162 202.667 284.300 117.973 C 268.976 71.392,256.241 33.280,256.000 33.280 C 255.759 33.280,243.024 71.392,227.700 117.973 " stroke="none" fill="black" fill-rule="evenodd"></path></svg>