<svg xmlns="http://www.w3.org/2000/svg" width="512" height="512" viewBox="0 0 512 512"><path d="M248.175 34.156 C 242.211 37.307,245.047 29.655,211.580 132.900 L 192.427 191.987 110.563 191.993 C 28.891 192.000,28.690 192.004,24.960 193.810 C 19.255 196.572,16.640 201.121,16.640 208.285 C 16.640 213.397,16.922 214.376,19.205 217.198 C 20.792 219.158,46.680 237.443,87.045 265.113 C 122.946 289.722,152.417 310.127,152.536 310.456 C 152.654 310.785,141.422 344.593,127.576 385.584 C 101.582 462.536,100.763 465.406,103.358 470.456 C 104.773 473.212,108.481 476.999,111.104 478.370 C 114.329 480.054,121.882 479.899,125.219 478.080 C 128.047 476.539,131.840 473.811,209.437 417.516 C 234.812 399.107,255.765 384.041,256.000 384.036 C 256.235 384.030,285.611 405.184,321.280 431.044 C 356.949 456.903,387.022 478.402,388.109 478.817 C 391.123 479.971,398.313 479.719,400.896 478.370 C 403.519 476.999,407.227 473.212,408.642 470.456 C 411.233 465.413,410.415 462.548,384.290 385.214 L 358.981 310.293 361.007 308.960 C 362.122 308.227,391.628 288.024,426.576 264.066 C 466.719 236.546,491.083 219.312,492.739 217.267 C 495.084 214.369,495.360 213.424,495.360 208.285 C 495.360 201.121,492.745 196.572,487.040 193.810 C 483.310 192.004,483.110 192.000,401.437 191.994 L 319.573 191.989 294.989 116.321 C 281.467 74.703,269.627 39.561,268.677 38.227 C 264.729 32.683,254.725 30.696,248.175 34.156 M295.297 217.662 C 296.291 219.057,298.703 221.054,300.659 222.099 L 304.213 224.000 365.695 224.427 L 427.176 224.853 379.812 257.280 C 353.762 275.115,331.127 290.853,329.511 292.253 C 325.944 295.345,324.264 299.105,324.275 303.973 C 324.281 306.469,330.359 325.584,343.463 364.315 C 354.011 395.493,362.551 421.064,362.441 421.139 C 362.330 421.213,339.830 405.014,312.439 385.139 C 273.241 356.697,261.932 348.890,259.319 348.473 L 256.000 347.942 256.035 224.104 L 256.070 100.267 274.780 157.696 C 285.071 189.282,294.304 216.266,295.297 217.662 " stroke="none" fill="black" fill-rule="evenodd"></path></svg>