<svg xmlns="http://www.w3.org/2000/svg" width="512" height="512" viewBox="0 0 512 512"><path d="M251.772 26.566 C 242.830 28.240,235.363 36.311,234.225 45.532 C 233.928 47.945,233.809 61.632,233.962 75.947 C 234.278 105.576,234.321 105.773,241.834 112.386 C 250.595 120.098,262.528 119.687,271.073 111.378 C 278.064 104.581,278.348 102.881,278.027 69.784 L 277.760 42.240 275.200 37.612 C 270.469 29.061,261.368 24.770,251.772 26.566 M101.181 88.762 C 95.570 90.953,90.834 95.738,88.741 101.331 C 86.682 106.834,86.610 110.023,88.409 116.112 C 89.680 120.413,91.171 122.151,109.103 140.230 C 119.731 150.946,130.059 160.678,132.053 161.857 C 143.341 168.532,159.287 162.610,163.404 150.214 C 165.395 144.222,164.779 136.994,161.857 132.053 C 160.678 130.059,150.946 119.731,140.230 109.103 C 122.151 91.171,120.413 89.680,116.112 88.409 C 110.131 86.642,106.383 86.731,101.181 88.762 M395.520 88.463 C 391.719 89.626,389.125 91.879,371.770 109.097 C 361.054 119.728,351.322 130.059,350.143 132.053 C 347.221 136.994,346.605 144.222,348.596 150.214 C 352.713 162.610,368.659 168.532,379.947 161.857 C 381.941 160.678,392.269 150.946,402.897 140.230 C 420.829 122.151,422.320 120.413,423.591 116.112 C 425.301 110.324,425.305 108.138,423.616 102.450 C 421.111 94.017,411.518 86.930,402.835 87.099 C 401.158 87.132,397.867 87.746,395.520 88.463 M247.467 154.577 C 213.418 156.889,181.518 178.131,165.637 209.067 C 157.554 224.813,154.389 238.018,154.389 256.000 C 154.389 273.836,157.797 287.910,165.890 303.495 C 180.031 330.728,207.634 350.928,238.080 356.323 C 247.373 357.970,264.615 357.972,273.920 356.326 C 315.287 349.011,349.040 315.294,356.313 274.023 C 357.970 264.617,357.975 247.401,356.323 238.080 C 350.861 207.255,330.689 179.885,302.933 165.637 C 285.054 156.459,268.466 153.151,247.467 154.577 M43.403 234.390 C 42.165 234.594,39.107 235.988,36.607 237.487 C 22.821 245.754,22.759 266.208,36.495 274.446 C 38.934 275.908,42.376 277.344,44.145 277.636 C 45.913 277.929,58.714 278.172,72.592 278.177 C 102.910 278.189,104.775 277.847,111.378 271.066 C 117.436 264.846,119.260 257.364,116.756 249.009 C 115.486 244.768,110.070 238.571,105.496 236.124 C 102.080 234.297,101.117 234.237,73.813 234.129 C 58.325 234.068,44.641 234.185,43.403 234.390 M410.880 234.585 C 404.189 236.282,397.096 242.824,395.244 249.009 C 392.741 257.362,394.564 264.843,400.622 271.073 C 407.419 278.064,409.119 278.348,442.216 278.027 L 469.760 277.760 474.343 275.222 C 481.784 271.101,485.717 264.453,485.717 256.000 C 485.717 247.547,481.784 240.899,474.343 236.778 L 469.760 234.240 441.600 234.088 C 426.112 234.004,412.288 234.228,410.880 234.585 M133.973 349.082 C 129.400 351.151,93.306 386.547,89.882 392.320 C 85.284 400.074,86.620 411.443,92.889 417.903 C 97.762 422.924,101.727 424.533,109.227 424.533 C 114.640 424.533,116.219 424.181,119.467 422.250 C 125.408 418.717,160.809 382.688,162.918 378.027 C 166.653 369.774,164.846 360.202,158.322 353.678 C 151.798 347.154,142.226 345.347,133.973 349.082 M363.514 348.104 C 351.315 351.815,344.671 364.423,348.596 376.417 C 349.955 380.569,351.964 382.895,369.397 400.497 C 380.010 411.212,390.325 420.945,392.320 422.124 C 403.627 428.811,419.571 422.825,423.719 410.337 C 425.660 404.493,425.015 397.209,422.124 392.320 C 420.945 390.325,411.212 380.014,400.497 369.405 C 383.675 352.752,380.439 349.926,376.808 348.712 C 372.408 347.242,367.142 347.001,363.514 348.104 M248.504 395.312 C 244.701 396.531,238.423 402.207,236.124 406.504 C 234.284 409.945,234.240 410.720,234.240 439.893 L 234.240 469.760 236.778 474.343 C 240.899 481.784,247.547 485.717,256.000 485.717 C 264.453 485.717,271.101 481.784,275.222 474.343 L 277.760 469.760 278.027 442.216 C 278.348 409.119,278.064 407.419,271.073 400.622 C 268.384 398.007,265.298 395.929,263.154 395.289 C 258.996 394.047,252.419 394.058,248.504 395.312 " stroke="none" fill="black" fill-rule="evenodd"></path></svg>