<svg xmlns="http://www.w3.org/2000/svg" width="512" height="512" viewBox="0 0 512 512"><path d="M153.173 81.634 C 149.411 83.622,147.638 85.383,145.829 88.926 C 144.263 91.995,144.213 96.449,144.213 234.835 L 144.213 377.578 100.480 333.901 C 76.427 309.878,55.666 289.819,54.344 289.325 C 51.184 288.143,43.894 288.177,41.544 289.384 C 38.788 290.800,35.001 294.508,33.630 297.131 C 32.214 299.843,32.049 306.930,33.324 310.344 C 34.506 313.511,148.807 427.996,152.926 430.139 C 156.995 432.257,163.005 432.257,167.074 430.139 C 171.193 427.996,285.494 313.511,286.676 310.344 C 287.951 306.930,287.786 299.843,286.370 297.131 C 284.999 294.508,281.212 290.800,278.456 289.384 C 276.106 288.177,268.816 288.143,265.656 289.325 C 264.334 289.819,243.573 309.878,219.520 333.901 L 175.787 377.578 175.787 234.835 C 175.787 96.449,175.737 91.995,174.171 88.926 C 172.322 85.304,170.534 83.560,166.656 81.596 C 163.208 79.851,156.513 79.870,153.173 81.634 M344.747 81.900 C 340.673 84.097,226.450 198.638,225.324 201.656 C 224.049 205.070,224.214 212.157,225.630 214.869 C 227.001 217.492,230.788 221.200,233.544 222.616 C 235.894 223.823,243.184 223.857,246.344 222.675 C 247.666 222.181,268.427 202.122,292.480 178.099 L 336.213 134.422 336.213 277.165 C 336.213 415.551,336.263 420.005,337.829 423.074 C 340.682 428.663,345.762 431.787,352.000 431.787 C 358.238 431.787,363.318 428.663,366.171 423.074 C 367.737 420.005,367.787 415.551,367.787 277.165 L 367.787 134.422 411.520 178.099 C 435.573 202.122,456.334 222.181,457.656 222.675 C 461.067 223.951,468.155 223.787,470.869 222.370 C 473.492 220.999,477.200 217.212,478.616 214.456 C 479.823 212.107,479.857 204.818,478.676 201.656 C 477.494 198.489,363.193 84.004,359.074 81.861 C 355.029 79.756,348.688 79.774,344.747 81.900 " stroke="none" fill="black" fill-rule="evenodd"></path></svg>