<svg xmlns="http://www.w3.org/2000/svg" width="512" height="512" viewBox="0 0 512 512"><path d="M146.954 80.323 C 145.410 80.768,142.722 82.576,140.980 84.341 C 138.079 87.280,134.885 95.378,102.876 180.948 C 83.660 232.317,65.746 280.107,63.067 287.147 C 36.460 357.067,16.213 412.576,16.213 415.604 C 16.213 427.322,28.835 435.004,39.253 429.627 C 44.690 426.821,45.564 424.894,65.555 371.602 L 85.073 319.573 151.976 319.573 L 218.880 319.573 236.529 366.507 C 246.237 392.320,255.026 415.744,256.063 418.560 C 257.164 421.554,259.238 424.975,261.057 426.798 C 270.850 436.612,287.573 429.704,287.573 415.845 C 287.573 412.274,277.636 385.074,227.090 250.297 C 193.825 161.596,166.212 88.288,165.729 87.391 C 163.479 83.215,156.765 79.287,152.134 79.437 C 150.828 79.479,148.497 79.878,146.954 80.323 M206.495 286.933 C 206.501 287.285,181.931 287.573,151.893 287.573 C 121.856 287.573,97.280 287.444,97.280 287.285 C 97.280 287.036,148.367 150.672,151.040 143.787 C 151.974 141.382,153.685 145.626,179.258 213.760 C 194.232 253.653,206.488 286.581,206.495 286.933 M382.671 177.022 C 375.273 178.442,362.520 182.657,356.491 185.675 C 338.477 194.693,322.640 210.358,313.983 227.723 C 311.145 233.416,310.302 236.074,310.278 239.400 C 310.189 251.998,323.932 259.476,334.665 252.670 C 337.639 250.783,339.132 249.003,340.926 245.203 C 349.345 227.360,364.177 214.865,383.024 209.735 C 392.341 207.199,409.045 207.229,418.510 209.800 C 446.620 217.434,462.227 238.069,463.936 269.862 L 464.476 279.893 457.304 279.898 C 440.841 279.908,400.472 282.717,382.780 285.085 C 366.485 287.265,350.160 292.667,337.537 300.056 C 329.455 304.787,317.522 316.398,313.239 323.699 C 303.274 340.683,301.348 363.213,308.125 383.532 C 311.493 393.630,316.238 401.503,323.676 409.333 C 340.606 427.156,363.614 434.607,393.279 431.875 C 420.881 429.332,443.229 420.714,459.005 406.530 C 461.304 404.464,463.416 402.773,463.699 402.773 C 463.982 402.773,464.213 406.434,464.213 410.907 C 464.213 420.354,465.226 423.424,469.610 427.273 C 472.285 429.623,477.255 431.777,480.000 431.777 C 485.112 431.777,492.598 426.674,494.634 421.801 C 496.466 417.416,496.314 264.369,494.467 253.765 C 489.777 226.836,476.376 205.603,455.160 191.487 C 446.966 186.035,432.754 179.986,423.253 177.907 C 414.524 175.997,390.718 175.478,382.671 177.022 M463.586 312.107 C 463.766 312.459,463.629 317.355,463.282 322.987 C 461.245 356.075,447.906 379.645,424.533 391.458 C 414.125 396.719,397.409 400.213,382.650 400.213 C 366.485 400.213,356.986 397.042,348.281 388.739 C 339.355 380.225,335.812 370.676,336.366 356.626 C 336.647 349.499,337.043 347.731,339.458 342.826 C 345.894 329.754,361.933 320.764,385.280 317.145 C 398.972 315.023,431.164 312.621,459.683 311.595 C 461.650 311.525,463.406 311.755,463.586 312.107 " stroke="none" fill="black" fill-rule="evenodd"></path></svg>