<svg xmlns="http://www.w3.org/2000/svg" viewBox="0 0 512 512"><path d="M308.480 17.848 C 306.195 18.918,292.177 32.377,266.062 58.576 C 228.134 96.626,226.973 97.889,224.017 104.302 L 220.978 110.898 214.382 113.933 C 207.807 116.958,207.496 117.257,113.619 211.017 C 48.623 275.932,18.955 306.124,17.851 308.480 C 15.891 312.661,15.742 319.767,17.524 324.081 C 19.112 327.925,66.297 375.639,70.827 377.981 C 78.669 382.036,84.449 381.307,93.799 375.085 C 101.839 369.735,106.941 368.269,115.592 368.824 C 130.594 369.787,142.211 381.379,143.172 396.344 C 143.731 405.065,142.278 410.142,136.915 418.201 C 130.695 427.548,129.966 433.317,134.014 441.173 C 134.860 442.816,146.813 455.358,160.576 469.044 C 187.464 495.781,187.482 495.795,196.267 495.763 C 198.379 495.755,201.643 495.029,203.520 494.149 C 205.876 493.045,236.068 463.377,300.983 398.381 C 394.743 304.504,395.042 304.193,398.067 297.618 L 401.102 291.022 407.698 287.983 C 414.111 285.027,415.374 283.866,453.424 245.938 C 479.623 219.823,493.082 205.805,494.152 203.520 C 496.236 199.067,496.239 191.772,494.159 187.307 C 493.117 185.070,483.787 175.183,467.085 158.616 C 442.480 134.212,441.444 133.303,437.090 132.284 C 430.204 130.673,426.051 131.691,418.201 136.915 C 410.174 142.257,405.055 143.731,396.451 143.179 C 372.499 141.642,360.448 113.745,375.108 93.774 C 380.383 86.588,381.627 81.068,379.584 73.912 C 378.746 70.979,374.421 66.199,353.344 44.915 C 336.768 28.177,326.935 18.885,324.693 17.841 C 320.228 15.761,312.933 15.764,308.480 17.848 M245.422 114.380 C 248.607 115.591,262.604 129.390,264.613 133.299 C 268.045 139.978,266.134 148.094,259.950 153.098 C 255.753 156.496,248.514 157.170,243.560 154.625 C 239.510 152.545,225.699 138.601,224.460 135.342 C 223.194 132.010,223.365 124.901,224.777 122.198 C 226.084 119.695,229.815 115.987,232.533 114.487 C 234.709 113.287,242.379 113.223,245.422 114.380 M289.796 158.754 C 293.239 160.063,307.167 173.966,308.997 177.920 C 312.803 186.147,308.900 195.567,300.176 199.213 C 292.658 202.354,287.316 200.145,277.154 189.693 C 269.042 181.350,267.794 179.117,267.827 173.003 C 267.873 164.574,274.594 157.867,282.995 157.867 C 285.452 157.867,288.512 158.266,289.796 158.754 M332.272 202.316 C 336.173 203.399,350.616 216.846,352.784 221.414 C 354.458 224.942,354.535 232.276,352.930 235.349 C 350.010 240.937,344.740 244.053,338.207 244.053 C 332.519 244.053,329.613 242.273,321.057 233.549 C 315.028 227.401,313.129 224.872,312.339 221.935 C 310.109 213.657,314.323 205.463,322.266 202.631 C 326.300 201.193,328.031 201.138,332.272 202.316 M378.474 247.107 C 380.035 247.848,384.943 252.196,389.381 256.770 C 396.285 263.884,397.575 265.667,398.309 269.107 C 400.552 279.624,393.206 288.882,382.737 288.731 C 376.716 288.644,374.496 287.241,365.166 277.625 C 358.564 270.821,356.813 268.472,356.034 265.377 C 353.468 255.184,360.674 245.786,371.071 245.768 C 373.581 245.764,376.913 246.366,378.474 247.107 " stroke="none" fill="black" fill-rule="evenodd"></path></svg>