<svg xmlns="http://www.w3.org/2000/svg" width="512" height="512" viewBox="0 0 512 512"><path d="M199.253 17.407 C 193.291 19.293,190.008 21.374,184.511 26.753 L 179.156 31.994 162.751 32.510 C 148.181 32.968,145.583 33.275,139.520 35.264 C 135.765 36.495,130.197 38.953,127.147 40.725 C 120.347 44.675,108.951 55.924,105.075 62.513 C 100.538 70.225,97.319 80.688,96.421 90.644 C 95.413 101.828,95.373 346.596,96.378 354.394 C 97.400 362.326,100.726 368.671,107.437 375.492 C 123.313 391.628,156.860 406.547,209.920 421.070 C 238.595 428.918,253.212 432.042,258.560 431.466 C 263.668 430.915,292.525 423.969,307.076 419.788 C 358.987 404.872,388.953 391.246,404.563 375.463 C 411.581 368.366,414.627 362.363,415.694 353.522 C 416.173 349.551,416.384 294.553,416.218 216.747 C 415.954 93.764,415.853 86.309,414.379 81.067 C 408.945 61.746,396.241 46.284,379.226 38.278 C 369.415 33.663,363.376 32.458,349.867 32.419 C 334.633 32.375,332.760 31.871,326.913 26.236 C 316.076 15.793,319.004 16.202,255.632 16.270 C 215.425 16.314,201.844 16.588,199.253 17.407 M331.544 129.019 C 335.980 131.041,336.213 132.589,336.213 160.000 C 336.213 187.411,335.980 188.959,331.544 190.981 C 328.321 192.449,183.679 192.449,180.456 190.981 C 176.011 188.955,175.784 187.434,175.817 159.829 C 175.849 132.663,176.016 131.480,180.147 129.191 C 182.983 127.619,328.110 127.455,331.544 129.019 M271.360 241.950 C 274.411 242.663,280.555 245.039,285.013 247.230 C 291.817 250.574,294.366 252.457,300.873 258.941 C 307.422 265.468,309.243 267.925,312.605 274.773 C 314.794 279.232,317.248 285.376,318.058 288.427 C 320.090 296.081,320.052 312.464,317.984 320.000 C 313.185 337.493,300.638 353.072,284.989 360.972 C 275.230 365.899,268.598 367.360,256.000 367.360 C 246.310 367.360,243.463 367.043,238.080 365.362 C 216.208 358.532,200.013 341.860,194.016 320.000 C 191.948 312.464,191.910 296.081,193.942 288.427 C 200.595 263.373,222.105 244.125,247.431 240.566 C 253.605 239.698,264.396 240.322,271.360 241.950 M246.857 273.451 C 238.379 276.101,231.587 281.954,227.287 290.316 C 223.965 296.777,223.448 308.018,226.144 315.173 C 231.508 329.411,246.876 338.230,261.358 335.381 C 271.912 333.305,280.105 327.086,284.751 317.626 C 286.915 313.219,287.147 311.878,287.147 303.787 C 287.147 295.993,286.873 294.271,285.047 290.560 C 282.608 285.603,277.339 279.607,273.067 276.927 C 265.871 272.413,254.854 270.952,246.857 273.451 M167.253 418.864 C 161.218 422.908,114.592 470.243,113.081 473.860 C 110.543 479.935,112.288 487.766,117.186 492.276 C 121.358 496.117,130.164 497.150,135.116 494.379 C 135.901 493.940,139.776 490.621,143.729 487.003 L 150.915 480.427 256.086 480.427 L 361.257 480.427 367.432 486.414 C 374.924 493.678,380.020 496.213,385.596 495.449 C 397.307 493.844,403.338 480.725,396.850 470.973 C 392.848 464.959,346.474 419.265,342.825 417.740 C 330.685 412.667,318.451 421.895,320.368 434.678 C 320.804 437.589,321.938 439.745,324.788 443.083 L 328.621 447.573 292.310 447.796 C 272.340 447.918,239.594 447.918,219.543 447.796 L 183.085 447.573 186.258 444.061 C 192.034 437.669,193.320 431.790,190.367 425.288 C 187.841 419.724,183.501 416.956,176.734 416.593 C 171.619 416.319,170.736 416.531,167.253 418.864 " stroke="none" fill="black" fill-rule="evenodd"></path></svg>