<svg xmlns="http://www.w3.org/2000/svg" width="512" height="512" viewBox="0 0 512 512"><path d="M248.175 34.156 C 241.914 37.464,239.787 42.791,239.787 55.167 L 239.787 64.000 169.115 64.000 C 91.529 64.000,93.624 63.871,85.333 69.161 C 79.381 72.959,19.112 133.770,17.532 137.573 C 16.002 141.253,15.825 146.481,17.114 149.918 C 17.609 151.239,32.831 167.164,50.939 185.306 C 86.853 221.288,87.689 221.958,98.708 223.551 C 102.144 224.047,132.271 224.400,172.160 224.410 L 239.787 224.427 239.787 240.191 L 239.787 255.956 164.053 256.191 L 88.320 256.427 83.111 258.834 C 76.521 261.880,69.949 268.480,66.815 275.200 L 64.427 280.320 64.183 333.970 C 63.967 381.320,64.101 388.184,65.319 392.423 C 68.951 405.066,78.837 413.664,91.917 415.556 C 95.327 416.049,126.902 416.400,168.747 416.410 L 239.787 416.427 239.787 441.046 C 239.787 466.399,240.081 469.064,243.402 473.833 C 248.667 481.391,263.333 481.391,268.598 473.833 C 271.919 469.064,272.213 466.399,272.213 441.046 L 272.213 416.427 339.840 416.410 C 379.729 416.400,409.856 416.047,413.292 415.551 C 424.311 413.958,425.147 413.288,461.061 377.306 C 479.169 359.164,494.391 343.239,494.886 341.918 C 496.175 338.481,495.998 333.253,494.468 329.573 C 492.888 325.770,432.619 264.959,426.667 261.161 C 418.376 255.871,420.471 256.000,342.885 256.000 L 272.213 256.000 272.213 240.248 L 272.213 224.497 347.093 224.248 L 421.973 224.000 426.790 222.052 C 436.820 217.997,443.278 211.151,446.325 201.346 C 448.006 195.938,448.054 194.030,447.817 142.039 L 447.573 88.320 444.906 82.773 C 441.505 75.698,436.249 70.437,429.227 67.079 L 423.680 64.427 347.947 64.191 L 272.213 63.956 272.213 55.145 C 272.213 42.665,270.063 37.390,263.642 34.114 C 259.332 31.915,252.382 31.934,248.175 34.156 " stroke="none" fill="black" fill-rule="evenodd"></path></svg>