<svg xmlns="http://www.w3.org/2000/svg" width="512" height="512" viewBox="0 0 512 512"><path d="M56.747 48.989 C 47.121 51.374,39.095 57.852,35.186 66.389 C 30.474 76.682,30.545 100.472,35.315 109.886 C 38.198 115.575,41.729 119.546,46.744 122.737 C 55.677 128.422,39.646 128.037,257.736 127.794 L 455.253 127.573 459.947 125.670 C 466.762 122.905,472.980 117.095,476.266 110.421 C 481.481 99.827,481.762 77.199,476.814 66.389 C 472.778 57.574,464.167 50.873,454.145 48.746 C 447.308 47.295,62.633 47.531,56.747 48.989 M68.653 162.685 C 67.438 163.995,66.560 165.974,66.560 167.401 C 66.560 174.179,93.240 425.175,94.391 429.227 C 99.142 445.949,113.621 459.284,130.987 462.930 C 139.939 464.809,372.061 464.809,381.013 462.930 C 398.381 459.283,412.877 445.931,417.603 429.227 C 419.213 423.534,445.790 168.763,445.072 165.902 C 444.794 164.794,443.730 163.109,442.709 162.157 C 440.855 160.430,440.514 160.427,255.798 160.427 L 70.745 160.427 68.653 162.685 M206.238 225.331 C 207.559 225.828,219.296 236.859,232.320 249.844 L 256.000 273.453 279.680 249.844 C 292.704 236.859,304.441 225.828,305.762 225.331 C 311.427 223.199,319.768 225.043,323.594 229.274 C 325.778 231.689,327.680 236.781,327.680 240.213 C 327.680 246.443,325.651 249.006,301.842 272.853 L 278.625 296.107 302.259 319.787 C 315.625 333.179,326.312 344.579,326.857 346.027 C 328.104 349.337,328.058 356.078,326.772 358.578 C 325.309 361.418,321.630 365.196,318.976 366.583 C 315.892 368.194,308.615 368.110,305.238 366.424 C 303.736 365.674,292.049 354.643,279.268 341.910 L 256.028 318.760 232.334 342.309 C 206.888 367.601,205.797 368.410,198.283 367.563 C 187.961 366.399,181.160 354.407,185.683 345.344 C 186.433 343.842,197.470 332.149,210.211 319.360 L 233.375 296.107 210.158 272.853 C 194.790 257.460,186.499 248.528,185.631 246.427 C 181.244 235.811,188.522 224.558,199.838 224.461 C 202.037 224.442,204.917 224.834,206.238 225.331 " stroke="none" fill="black" fill-rule="evenodd"></path></svg>