<svg xmlns="http://www.w3.org/2000/svg" width="512" height="512" viewBox="0 0 512 512"><path d="M202.657 34.423 C 189.304 39.389,179.924 50.168,177.016 63.888 C 176.281 67.355,175.811 74.751,175.801 82.981 L 175.787 96.416 125.905 96.363 C 70.869 96.304,72.508 96.154,67.853 101.687 C 62.645 107.876,62.884 116.515,68.429 122.530 C 72.742 127.210,75.488 127.989,87.680 127.995 L 97.280 128.000 97.280 130.629 C 97.280 141.807,116.241 435.977,117.297 441.173 C 120.967 459.245,134.325 473.615,151.990 478.494 C 157.052 479.893,164.454 480.000,256.000 480.000 C 347.546 480.000,354.948 479.893,360.010 478.494 C 377.676 473.614,391.143 459.070,394.704 441.025 C 395.695 436.003,414.720 140.977,414.720 130.629 L 414.720 128.000 424.320 127.995 C 436.512 127.989,439.258 127.210,443.571 122.530 C 449.116 116.515,449.355 107.876,444.147 101.687 C 439.492 96.154,441.131 96.304,386.095 96.363 L 336.213 96.416 336.199 82.981 C 336.176 62.328,333.695 53.947,324.832 44.575 C 319.687 39.136,315.064 36.250,307.947 34.034 C 303.140 32.538,299.483 32.430,255.284 32.471 C 208.272 32.515,207.734 32.535,202.657 34.423 M301.292 66.494 L 303.787 68.989 303.787 82.708 L 303.787 96.427 256.000 96.427 L 208.213 96.427 208.213 82.708 L 208.213 68.989 210.708 66.494 L 213.202 64.000 256.000 64.000 L 298.798 64.000 301.292 66.494 M382.780 132.480 C 382.511 134.944,378.236 202.816,373.279 283.307 C 368.321 363.797,363.884 431.646,363.417 434.081 C 362.290 439.957,359.638 443.743,355.012 446.080 L 351.212 448.000 256.218 448.000 C 172.664 448.000,160.847 447.842,158.084 446.687 C 153.980 444.973,152.091 443.196,149.985 439.071 C 148.394 435.953,147.537 424.107,139.053 288.031 C 133.990 206.819,129.629 137.589,129.361 134.187 L 128.875 128.000 256.072 128.000 L 383.269 128.000 382.780 132.480 M177.024 161.627 C 173.645 163.099,170.109 167.349,168.896 171.397 C 168.150 173.888,168.816 199.942,171.855 287.199 C 174.013 349.122,176.177 401.474,176.665 403.537 C 178.479 411.198,184.053 415.573,192.000 415.573 C 199.409 415.573,204.808 411.711,207.177 404.717 C 208.413 401.066,200.362 174.114,198.858 170.240 C 197.656 167.141,194.109 163.267,190.976 161.630 C 188.096 160.126,180.474 160.124,177.024 161.627 M248.175 162.156 C 244.700 163.992,242.256 167.054,240.771 171.434 C 239.362 175.586,239.362 400.414,240.771 404.566 C 243.197 411.719,248.530 415.573,256.000 415.573 C 263.470 415.573,268.803 411.719,271.229 404.566 C 272.638 400.414,272.638 175.586,271.229 171.434 C 269.715 166.969,267.269 163.964,263.642 162.114 C 259.332 159.915,252.382 159.934,248.175 162.156 M320.427 162.023 C 316.993 164.156,314.353 167.135,313.144 170.240 C 311.639 174.109,303.585 401.060,304.823 404.717 C 307.192 411.711,312.591 415.573,320.000 415.573 C 327.947 415.573,333.521 411.198,335.335 403.537 C 335.823 401.474,337.987 349.122,340.145 287.199 C 343.184 199.942,343.850 173.888,343.104 171.397 C 341.861 167.248,338.312 163.063,334.787 161.591 C 330.724 159.893,323.506 160.110,320.427 162.023 " stroke="none" fill="black" fill-rule="evenodd"></path></svg>