<svg xmlns="http://www.w3.org/2000/svg" width="512" height="512" viewBox="0 0 512 512"><path d="M39.638 48.984 C 38.206 49.609,36.030 51.315,34.801 52.776 C 31.723 56.434,31.374 60.936,31.715 92.587 C 31.980 117.219,32.118 119.239,33.707 121.930 C 34.645 123.520,36.751 125.536,38.387 126.410 C 41.265 127.949,48.250 128.000,256.000 128.000 C 463.750 128.000,470.735 127.949,473.613 126.410 C 475.249 125.536,477.355 123.520,478.293 121.930 C 479.916 119.181,480.000 117.508,480.000 87.743 C 480.000 57.463,479.943 56.368,478.241 54.089 C 477.273 52.793,475.421 50.940,474.125 49.973 L 471.768 48.213 257.004 48.031 C 79.754 47.880,41.785 48.047,39.638 48.984 M64.393 164.053 C 64.667 166.048,71.418 229.888,79.394 305.920 C 88.170 389.577,94.414 445.734,95.208 448.146 C 97.000 453.593,102.212 459.267,107.701 461.748 L 112.213 463.787 256.000 463.787 L 399.787 463.787 404.671 461.388 C 410.447 458.552,415.015 453.548,416.810 448.093 C 417.581 445.750,423.967 388.266,432.606 305.920 C 440.582 229.888,447.333 166.048,447.607 164.053 L 448.105 160.427 256.000 160.427 L 63.895 160.427 64.393 164.053 M228.049 242.982 L 256.000 270.924 284.161 242.773 L 312.321 214.622 324.903 227.204 L 337.485 239.785 309.334 267.946 L 281.183 296.107 309.124 324.058 L 337.066 352.008 324.484 364.590 L 311.902 377.172 283.951 349.231 L 256.000 321.290 228.049 349.231 L 200.098 377.172 187.516 364.590 L 174.934 352.008 202.876 324.058 L 230.817 296.107 202.670 267.950 L 174.523 239.793 186.877 227.416 C 193.672 220.609,199.426 215.040,199.664 215.040 C 199.902 215.040,212.675 227.614,228.049 242.982 " stroke="none" fill="black" fill-rule="evenodd"></path></svg>