<svg xmlns="http://www.w3.org/2000/svg" width="512" height="512" viewBox="0 0 512 512"><path d="M250.520 49.054 C 248.679 49.710,246.132 51.325,244.859 52.643 C 243.130 54.433,44.412 419.980,34.245 440.073 C 29.511 449.427,33.674 459.919,43.434 463.229 C 45.593 463.962,99.926 464.213,256.000 464.213 C 412.074 464.213,466.407 463.962,468.566 463.229 C 478.326 459.919,482.489 449.427,477.755 440.073 C 476.755 438.097,429.489 350.656,372.719 245.760 C 302.767 116.507,268.589 54.166,266.671 52.329 C 263.942 49.715,259.124 47.761,255.573 47.829 C 254.635 47.847,252.361 48.398,250.520 49.054 M346.605 264.771 L 436.784 431.360 346.392 431.577 C 296.676 431.697,215.324 431.697,165.608 431.577 L 75.216 431.360 165.395 264.771 C 214.993 173.147,255.765 98.182,256.000 98.182 C 256.235 98.182,297.007 173.147,346.605 264.771 " stroke="none" fill="black" fill-rule="evenodd"></path></svg>