<svg xmlns="http://www.w3.org/2000/svg" width="512" height="512" viewBox="0 0 512 512"><path d="M51.495 81.838 C 34.523 86.695,21.946 99.521,17.530 116.475 C 16.376 120.908,16.215 135.116,16.226 231.646 C 16.240 353.797,15.945 347.221,21.926 358.604 C 27.460 369.135,37.991 377.798,50.347 381.983 C 54.873 383.517,62.208 383.573,256.000 383.573 C 450.148 383.573,457.119 383.519,461.653 381.976 C 474.340 377.657,484.407 369.387,490.050 358.648 C 496.059 347.214,495.760 353.845,495.774 231.646 C 495.788 110.268,496.093 117.433,490.427 105.843 C 486.768 98.359,477.641 89.232,470.157 85.573 C 458.333 79.793,475.095 80.207,255.607 80.274 C 68.390 80.331,56.439 80.423,51.495 81.838 M455.951 114.238 C 457.742 115.352,460.238 117.820,461.497 119.723 L 463.787 123.182 463.787 231.618 L 463.787 340.053 461.663 343.764 C 460.354 346.049,458.060 348.343,455.689 349.737 L 451.840 352.000 255.933 352.000 L 60.026 352.000 55.904 349.440 C 53.338 347.847,51.107 345.591,49.997 343.467 C 48.219 340.064,48.213 339.719,47.990 233.514 C 47.837 160.206,48.050 125.923,48.675 123.603 C 49.777 119.510,55.169 113.873,59.060 112.746 C 60.808 112.240,135.553 111.986,257.280 112.073 L 452.693 112.213 455.951 114.238 M121.584 401.403 C 116.845 403.468,111.796 410.997,111.796 416.000 C 111.796 421.112,116.900 428.598,121.773 430.634 C 125.873 432.347,386.127 432.347,390.227 430.634 C 395.100 428.598,400.204 421.112,400.204 416.000 C 400.204 410.888,395.100 403.402,390.227 401.366 C 386.192 399.680,125.456 399.715,121.584 401.403 " stroke="none" fill="black" fill-rule="evenodd"></path></svg>