<svg xmlns="http://www.w3.org/2000/svg" width="512" height="512" viewBox="0 0 512 512"><path d="M239.787 40.375 L 239.787 48.323 228.480 49.786 C 187.786 55.052,153.360 69.023,120.380 93.656 C 109.082 102.094,88.393 122.347,80.065 133.120 C 54.467 166.237,39.030 203.253,33.804 244.053 C 32.161 256.878,31.003 293.547,32.240 293.547 C 32.735 293.547,36.723 290.239,41.103 286.196 C 50.669 277.367,54.512 274.637,62.571 270.945 C 70.681 267.229,79.310 265.383,88.488 265.401 C 98.452 265.421,106.410 267.206,115.090 271.369 C 123.708 275.501,127.030 277.971,136.706 287.441 L 144.131 294.709 153.772 285.378 C 161.609 277.794,164.771 275.366,170.667 272.412 C 184.068 265.695,198.436 263.734,212.638 266.683 C 219.461 268.100,230.454 273.030,236.160 277.233 L 239.787 279.904 239.787 357.709 C 239.787 435.252,239.781 435.527,237.977 439.254 C 235.294 444.796,230.628 447.573,224.000 447.573 C 219.738 447.573,218.107 447.144,215.294 445.283 C 209.755 441.617,208.213 437.413,208.213 425.971 L 208.213 416.427 191.882 416.427 L 175.551 416.427 176.019 428.587 C 176.531 441.911,177.735 447.239,181.946 454.827 C 185.847 461.855,190.509 467.010,196.915 471.378 C 205.307 477.099,211.103 478.943,222.098 479.390 C 230.220 479.720,232.111 479.507,238.354 477.560 C 253.412 472.866,265.016 461.165,270.209 445.440 C 271.655 441.062,271.776 435.342,272.015 360.304 L 272.271 279.862 275.869 277.212 C 281.547 273.029,292.551 268.097,299.362 266.683 C 313.564 263.734,327.932 265.695,341.333 272.412 C 347.226 275.365,350.392 277.794,358.208 285.359 L 367.830 294.672 375.702 286.966 C 387.761 275.162,397.714 269.399,410.631 266.740 C 426.564 263.461,442.908 266.333,457.033 274.894 C 459.627 276.466,465.629 281.306,470.371 285.649 C 475.112 289.993,479.315 293.547,479.709 293.547 C 481.489 293.547,479.527 250.961,477.053 235.900 C 470.860 198.203,454.601 161.769,430.423 131.413 C 427.246 127.424,419.629 119.162,413.496 113.054 C 377.372 77.070,328.997 54.237,277.973 49.086 L 272.213 48.504 272.213 40.465 L 272.213 32.427 256.000 32.427 L 239.787 32.427 239.787 40.375 " stroke="none" fill="black" fill-rule="evenodd"></path></svg>