<svg id="icons" xmlns="http://www.w3.org/2000/svg" viewBox="0 0 512 512"><path d="M133.547 136.529 C 97.976 139.913,66.349 158.121,45.854 187.013 C 36.993 199.505,29.735 216.313,26.365 232.144 C 23.866 243.885,23.629 266.201,25.883 277.564 C 34.677 321.892,65.367 356.664,107.653 370.209 C 123.980 375.439,128.054 375.815,168.960 375.856 L 206.080 375.893 210.965 373.495 C 229.023 364.627,229.023 339.373,210.965 330.505 L 206.080 328.107 168.107 327.603 C 125.397 327.036,125.776 327.085,112.213 320.376 C 93.505 311.122,79.481 293.854,74.139 273.493 C 71.620 263.893,71.629 248.036,74.161 238.507 C 79.902 216.891,94.604 199.377,114.628 190.297 C 126.248 185.028,126.904 184.954,167.253 184.332 C 195.520 183.896,205.187 183.477,207.787 182.574 C 213.112 180.723,220.566 172.804,222.217 167.243 C 225.038 157.746,223.146 150.457,216.031 143.402 C 213.304 140.699,209.713 138.088,207.787 137.409 C 205.117 136.467,197.403 136.169,172.373 136.042 C 154.773 135.952,137.301 136.171,133.547 136.529 M306.471 136.975 C 301.072 138.482,298.136 140.434,293.997 145.270 C 290.842 148.956,288.427 155.343,288.427 160.000 C 288.427 161.472,289.037 164.731,289.783 167.243 C 291.434 172.804,298.888 180.723,304.213 182.574 C 306.813 183.477,316.480 183.896,344.747 184.332 C 386.458 184.975,386.241 184.946,399.829 191.615 C 413.907 198.524,425.325 209.919,432.278 224.000 C 437.830 235.243,439.622 243.054,439.622 256.000 C 439.622 268.932,437.834 276.736,432.290 288.001 C 425.434 301.933,413.952 313.369,399.787 320.376 C 386.224 327.085,386.603 327.036,343.893 327.603 L 305.920 328.107 301.035 330.505 C 282.977 339.373,282.977 364.627,301.035 373.495 L 305.920 375.893 343.040 375.856 C 374.829 375.824,381.316 375.602,388.210 374.309 C 415.927 369.112,440.257 355.460,458.072 335.106 C 472.300 318.851,482.254 298.251,486.172 276.957 C 488.088 266.544,488.088 245.456,486.172 235.043 C 477.028 185.339,438.874 147.266,388.693 137.770 C 377.650 135.680,313.337 135.058,306.471 136.975 " stroke="none" fill="black" fill-rule="evenodd"></path></svg>