<svg xmlns="http://www.w3.org/2000/svg" width="512" height="512" viewBox="0 0 512 512"><path d="M290.746 96.464 C 288.970 96.905,286.415 97.835,285.067 98.532 C 283.719 99.229,261.784 116.879,236.323 137.753 L 190.030 175.706 151.975 175.960 L 113.920 176.213 109.653 178.484 C 104.217 181.377,100.448 185.322,97.964 190.720 L 96.000 194.987 96.000 256.000 L 96.000 317.013 97.964 321.280 C 100.448 326.678,104.217 330.623,109.653 333.516 L 113.920 335.787 151.990 336.040 L 190.060 336.294 236.470 374.362 C 262.311 395.558,284.582 413.196,286.720 414.159 C 291.523 416.320,300.252 416.458,304.929 414.447 C 310.102 412.221,314.332 408.395,317.057 403.476 L 319.573 398.933 319.797 257.552 L 320.020 116.170 318.205 111.320 C 314.124 100.412,301.772 93.729,290.746 96.464 M375.875 178.713 C 371.234 181.496,368.386 186.706,368.431 192.333 C 368.457 195.619,369.325 198.505,371.955 204.048 C 380.207 221.443,383.483 236.048,383.514 255.573 C 383.544 274.914,380.018 290.738,371.817 308.053 C 366.103 320.121,367.294 327.919,375.701 333.483 C 378.431 335.289,380.156 335.758,384.076 335.758 C 391.715 335.758,395.303 332.849,400.351 322.560 C 405.018 313.047,410.662 296.460,413.126 285.013 C 414.416 279.024,414.988 272.450,415.316 259.840 C 415.704 244.914,415.528 241.406,413.910 231.875 C 411.093 215.288,403.208 192.355,397.197 183.270 C 392.854 176.706,382.806 174.558,375.875 178.713 " stroke="none" fill="black" fill-rule="evenodd"></path></svg>