<svg xmlns="http://www.w3.org/2000/svg" width="512" height="512" viewBox="0 0 512 512"><path d="M258.850 96.350 C 257.367 96.726,254.772 97.761,253.084 98.650 C 251.397 99.539,229.416 117.163,204.239 137.813 L 158.462 175.360 120.404 175.787 C 83.722 176.198,82.203 176.280,78.373 178.050 C 72.937 180.563,67.845 186.054,65.744 191.670 C 64.049 196.201,64.000 197.997,64.000 256.000 C 64.000 314.003,64.049 315.799,65.744 320.330 C 67.845 325.946,72.937 331.437,78.373 333.950 C 82.203 335.720,83.722 335.802,120.401 336.213 L 158.455 336.640 204.207 374.187 C 229.370 394.837,251.797 412.671,254.046 413.816 C 257.152 415.399,259.465 415.895,263.680 415.884 C 273.731 415.858,281.836 410.557,286.176 401.171 L 288.000 397.227 288.000 256.000 L 288.000 114.773 286.176 110.829 C 282.235 102.306,274.938 97.037,265.779 96.100 C 263.451 95.862,260.333 95.974,258.850 96.350 M394.567 128.925 C 390.357 130.146,385.097 136.456,384.397 141.125 C 383.581 146.571,384.123 148.146,391.371 161.385 C 409.509 194.516,415.573 218.310,415.573 256.349 C 415.573 293.364,409.220 317.668,390.622 351.793 C 387.359 357.780,384.496 364.123,384.259 365.889 C 383.553 371.153,385.289 375.718,389.461 379.563 C 395.999 385.590,405.261 385.332,411.307 378.956 C 415.144 374.909,429.593 346.549,434.605 333.227 C 444.630 306.581,448.770 279.456,447.696 247.467 C 446.660 216.623,441.331 192.691,429.588 166.138 C 425.292 156.424,415.653 138.489,412.368 134.094 C 408.580 129.027,401.402 126.943,394.567 128.925 M255.792 315.431 L 255.573 374.861 215.893 342.304 C 194.069 324.398,174.293 308.796,171.947 307.632 C 165.029 304.203,160.214 303.787,127.457 303.787 L 96.427 303.787 96.427 256.000 L 96.427 208.213 127.457 208.213 C 160.202 208.213,165.022 207.797,171.947 204.373 C 174.293 203.212,194.069 187.613,215.893 169.707 L 255.573 137.152 255.792 196.576 C 255.913 229.259,255.913 282.744,255.792 315.431 M346.997 177.037 C 342.958 178.477,338.957 182.120,337.388 185.786 C 335.346 190.559,335.939 195.008,339.738 203.407 C 344.759 214.507,347.912 224.251,349.979 235.057 C 352.525 248.364,351.938 270.228,348.690 283.088 C 346.464 291.901,342.524 302.814,338.443 311.467 C 334.651 319.507,335.755 326.560,341.610 331.700 C 344.285 334.050,349.255 336.204,352.000 336.204 C 354.747 336.204,359.718 334.048,362.413 331.687 C 366.038 328.512,370.467 319.463,375.405 305.140 C 387.406 270.337,386.710 235.054,373.350 200.868 C 366.576 183.537,363.073 178.634,356.077 176.691 C 351.998 175.559,351.041 175.595,346.997 177.037 " stroke="none" fill="black" fill-rule="evenodd"></path></svg>