<svg xmlns="http://www.w3.org/2000/svg" width="512" height="512" viewBox="0 0 512 512"><path d="M354.133 48.325 C 352.960 48.554,292.288 58.909,219.307 71.335 C 146.325 83.761,84.309 94.498,81.493 95.195 C 74.464 96.935,63.808 102.186,57.269 107.132 C 46.783 115.063,38.038 128.511,33.921 143.037 L 32.015 149.760 32.008 270.507 C 31.999 401.612,31.772 395.124,36.810 407.830 C 43.166 423.863,56.153 436.855,72.295 443.330 C 84.496 448.223,75.714 448.000,255.889 448.000 C 435.139 448.000,427.721 448.184,439.457 443.444 C 459.603 435.307,473.967 418.144,478.851 396.373 C 480.544 388.830,480.544 187.170,478.851 179.627 C 477.260 172.533,473.375 163.033,469.745 157.359 C 461.540 144.533,447.002 133.923,432.640 130.281 L 427.947 129.090 427.418 116.812 C 426.779 101.957,425.229 95.006,420.303 84.907 C 413.560 71.081,403.442 61.106,389.466 54.505 C 385.666 52.710,380.098 50.663,377.092 49.955 C 371.299 48.590,357.710 47.626,354.133 48.325 M375.653 83.389 C 382.910 86.785,388.498 92.365,391.956 99.669 C 394.498 105.037,394.682 106.077,394.962 116.680 L 395.260 127.973 240.083 128.200 C 147.901 128.335,84.244 128.745,83.273 129.212 C 82.212 129.722,81.824 129.699,82.166 129.146 C 83.290 127.327,94.416 125.079,144.640 116.521 C 248.167 98.880,292.839 91.223,323.840 85.802 C 361.338 79.246,366.305 79.015,375.653 83.389 M429.835 163.198 C 435.653 166.265,439.581 169.782,442.731 174.744 C 448.258 183.450,448.000 177.896,448.000 288.000 C 448.000 398.104,448.258 392.550,442.731 401.256 C 437.606 409.328,429.619 414.272,419.603 415.573 C 411.375 416.642,100.625 416.642,92.397 415.573 C 82.384 414.273,74.403 409.333,69.263 401.256 C 63.690 392.498,63.942 398.254,64.196 285.803 L 64.427 183.893 66.669 179.200 C 70.702 170.757,77.336 164.738,86.054 161.612 C 88.593 160.701,120.422 160.526,257.280 160.673 L 425.387 160.853 429.835 163.198 M357.973 257.701 C 344.803 262.117,336.213 274.078,336.213 288.000 C 336.213 302.061,344.732 313.701,358.400 318.316 C 370.044 322.248,382.927 318.748,391.553 309.310 C 397.328 302.991,399.651 296.879,399.651 288.000 C 399.651 279.121,397.328 273.009,391.553 266.690 C 382.982 257.312,369.721 253.762,357.973 257.701 " stroke="none" fill="black" fill-rule="evenodd"></path></svg>