<svg xmlns="http://www.w3.org/2000/svg" width="512" height="512" viewBox="0 0 512 512"><path d="M174.419 18.257 C 166.362 22.009,161.904 28.074,160.384 37.348 C 159.944 40.039,159.581 54.755,159.578 70.051 L 159.573 97.862 155.093 98.869 C 143.515 101.471,129.731 109.498,119.676 119.494 C 105.500 133.586,98.186 149.682,96.424 170.667 C 95.352 183.442,95.352 328.558,96.424 341.333 C 98.186 362.318,105.500 378.414,119.676 392.506 C 129.731 402.502,143.515 410.529,155.093 413.131 L 159.573 414.138 159.578 441.949 C 159.581 457.245,159.944 471.961,160.384 474.652 C 161.904 483.926,166.362 489.991,174.419 493.743 L 178.773 495.770 256.077 495.778 L 333.381 495.787 338.599 493.179 C 342.281 491.339,344.671 489.391,346.716 486.566 C 351.870 479.441,351.876 479.395,352.230 445.348 L 352.554 414.110 356.971 413.117 C 368.560 410.512,382.583 402.307,392.506 392.324 C 406.650 378.097,413.820 362.248,415.576 341.333 C 416.648 328.558,416.648 183.442,415.576 170.667 C 413.822 149.783,406.506 133.616,392.445 119.555 C 382.586 109.696,368.463 101.466,356.971 98.883 L 352.554 97.890 352.229 66.652 C 351.876 32.673,351.861 32.562,346.766 25.351 C 344.882 22.684,342.511 20.776,338.737 18.890 L 333.381 16.213 256.077 16.222 L 178.773 16.230 174.419 18.257 M320.000 72.107 L 320.000 96.427 256.000 96.427 L 192.000 96.427 192.000 72.107 L 192.000 47.787 256.000 47.787 L 320.000 47.787 320.000 72.107 M351.337 130.423 C 365.545 135.734,376.760 147.109,381.601 161.117 L 383.573 166.827 383.573 256.000 L 383.573 345.173 381.601 350.883 C 376.671 365.148,365.148 376.671,350.883 381.601 L 345.173 383.573 256.000 383.573 L 166.827 383.573 161.117 381.601 C 146.758 376.639,135.361 365.242,130.399 350.883 L 128.427 345.173 128.427 256.000 L 128.427 166.827 130.399 161.117 C 132.675 154.530,137.469 146.748,142.108 142.108 C 148.456 135.761,159.356 130.088,168.107 128.578 C 169.280 128.375,209.792 128.261,258.133 128.324 L 346.027 128.438 351.337 130.423 M320.000 440.320 L 320.000 464.213 256.000 464.213 L 192.000 464.213 192.000 440.320 L 192.000 416.427 256.000 416.427 L 320.000 416.427 320.000 440.320 " stroke="none" fill="black" fill-rule="evenodd"></path></svg>