<svg xmlns="http://www.w3.org/2000/svg" width="512" height="512" viewBox="0 0 512 512"><path d="M237.227 93.512 C 189.939 97.547,153.681 107.692,115.405 127.596 C 87.148 142.291,52.155 168.149,49.455 176.330 C 47.867 181.142,48.794 187.935,51.528 191.520 C 55.917 197.273,63.800 199.506,70.235 196.817 C 71.757 196.181,75.681 193.368,78.955 190.565 C 111.164 162.989,150.680 142.771,192.000 132.724 C 213.709 127.446,231.335 125.440,256.000 125.440 C 275.134 125.440,285.621 126.243,301.653 128.937 C 347.814 136.694,393.150 157.394,428.373 186.797 C 439.652 196.211,441.573 197.369,446.622 197.787 C 452.173 198.248,457.033 196.029,460.537 191.434 C 462.654 188.659,462.933 187.572,462.933 182.102 C 462.933 177.166,462.573 175.424,461.153 173.503 C 456.347 166.997,430.984 147.550,413.695 137.114 C 376.376 114.587,336.833 100.992,291.413 95.072 C 282.419 93.899,245.231 92.829,237.227 93.512 M236.800 180.145 C 193.849 184.140,153.739 200.262,120.607 226.848 C 108.515 236.551,104.665 240.532,103.449 244.591 C 101.942 249.619,102.131 251.716,104.519 256.472 C 107.230 261.874,111.356 264.713,117.200 265.198 C 123.025 265.681,126.112 264.267,133.547 257.713 C 159.796 234.571,189.006 220.672,226.212 213.617 C 237.761 211.427,274.215 211.428,285.867 213.619 C 321.494 220.316,351.169 234.149,375.937 255.603 C 385.335 263.744,388.265 265.387,393.387 265.387 C 398.108 265.387,401.860 263.666,405.043 260.040 C 409.855 254.560,410.649 248.748,407.496 242.102 C 405.380 237.644,388.467 223.544,373.678 213.909 C 334.381 188.309,283.630 175.789,236.800 180.145 M241.493 266.356 C 228.105 267.728,209.501 273.222,197.062 279.479 C 185.781 285.153,170.029 296.663,166.387 301.893 C 164.051 305.247,163.244 311.770,164.642 316.004 C 166.724 322.312,175.783 327.697,182.045 326.349 C 185.925 325.514,188.275 324.147,194.773 318.944 C 206.713 309.382,221.752 302.510,237.604 299.370 C 248.731 297.166,269.062 297.589,279.040 300.231 C 294.068 304.212,304.526 309.310,317.019 318.746 C 325.891 325.447,330.259 327.318,334.791 326.359 C 342.170 324.798,347.290 319.369,347.960 312.394 C 348.516 306.606,346.935 302.608,342.318 298.131 C 337.662 293.616,322.862 283.492,315.447 279.749 C 292.966 268.401,267.160 263.727,241.493 266.356 M244.649 354.059 C 236.304 357.418,229.183 364.674,225.993 373.068 C 223.442 379.784,223.988 391.199,227.172 397.682 C 230.133 403.710,236.290 409.867,242.318 412.828 C 246.545 414.904,247.979 415.147,256.000 415.147 C 264.021 415.147,265.455 414.904,269.682 412.828 C 275.710 409.867,281.867 403.710,284.828 397.682 C 286.904 393.455,287.147 392.021,287.147 384.000 C 287.147 375.979,286.904 374.545,284.828 370.318 C 281.869 364.294,275.706 358.128,269.710 355.195 C 263.366 352.091,250.938 351.528,244.649 354.059 " stroke="none" fill="black" fill-rule="evenodd"></path></svg>