<svg xmlns="http://www.w3.org/2000/svg" width="512" height="512" viewBox="0 0 512 512"><path d="M244.480 1.265 C 224.302 5.714,208.607 19.767,202.602 38.760 C 198.091 53.032,199.166 67.211,205.809 81.019 C 212.706 95.355,227.607 106.970,243.693 110.549 C 252.785 112.572,265.276 111.912,273.779 108.960 C 290.183 103.265,303.095 90.239,309.042 73.387 C 310.728 68.609,310.998 66.184,310.989 55.893 C 310.980 44.843,310.798 43.468,308.553 37.565 C 298.368 10.780,271.181 -4.623,244.480 1.265 M186.880 128.927 C 184.768 129.334,179.922 131.206,176.110 133.087 C 168.342 136.921,160.866 144.074,156.868 151.501 C 155.615 153.829,146.065 184.122,135.647 218.820 C 119.004 274.250,116.764 282.399,117.186 285.962 C 118.073 293.458,122.765 299.828,129.466 302.636 C 133.016 304.124,140.930 304.112,144.516 302.613 C 148.611 300.902,153.094 296.663,154.736 292.949 C 155.524 291.166,162.485 268.616,170.204 242.837 C 179.086 213.178,184.821 195.386,185.824 194.383 C 186.696 193.512,188.773 192.577,190.441 192.307 C 194.681 191.619,199.012 195.380,198.965 199.709 C 198.948 201.336,188.925 235.988,176.693 276.715 C 164.461 317.442,154.455 351.234,154.458 351.808 C 154.472 354.755,156.554 359.643,158.967 362.390 C 163.334 367.365,165.246 367.787,183.412 367.787 L 199.626 367.787 199.867 429.440 L 200.107 491.093 202.772 496.640 C 207.714 506.926,214.236 511.507,224.000 511.548 C 228.997 511.569,230.621 511.192,233.937 509.243 C 238.824 506.370,241.952 502.752,244.830 496.640 L 247.040 491.947 247.467 430.080 L 247.893 368.213 255.760 367.968 L 263.626 367.723 263.867 429.408 L 264.107 491.093 266.772 496.640 C 271.714 506.926,278.236 511.507,288.000 511.548 C 292.997 511.569,294.621 511.192,297.937 509.243 C 302.824 506.370,305.952 502.752,308.830 496.640 L 311.040 491.947 311.467 430.080 L 311.893 368.213 329.387 367.787 C 343.443 367.444,347.383 367.084,349.442 365.954 C 354.341 363.265,357.547 357.928,357.547 352.459 C 357.547 350.391,348.596 319.163,335.360 275.053 C 323.157 234.386,313.173 200.266,313.173 199.232 C 313.173 196.375,316.310 192.983,319.507 192.383 C 323.171 191.695,327.130 193.695,328.383 196.866 C 328.901 198.179,334.546 216.725,340.927 238.080 C 358.765 297.778,357.220 293.231,361.091 297.430 C 370.267 307.385,386.550 305.438,392.709 293.649 C 397.008 285.419,397.180 286.231,376.675 217.933 C 364.964 178.928,357.273 154.722,355.555 151.467 C 352.087 144.895,344.043 136.864,337.414 133.355 C 327.233 127.966,328.021 128.017,256.000 128.106 C 220.096 128.151,188.992 128.520,186.880 128.927 " stroke="none" fill="black" fill-rule="evenodd"></path></svg>