<svg xmlns="http://www.w3.org/2000/svg" width="24" height="24" viewBox="0 0 24 24" fill="none" stroke="currentColor" stroke-width="2" stroke-linecap="round" stroke-linejoin="round"><path d="M11.580 4.096 C 11.419 4.173,10.672 4.901,7.755 7.826 C 4.441 11.148,4.124 11.477,4.065 11.657 C 3.937 12.047,4.021 12.423,4.299 12.701 C 4.577 12.979,4.953 13.064,5.343 12.935 C 5.522 12.876,5.788 12.623,8.270 10.146 L 11.000 7.421 11.000 13.284 C 11.000 19.869,10.977 19.379,11.299 19.701 C 11.690 20.092,12.310 20.092,12.701 19.701 C 13.023 19.379,13.000 19.869,13.000 13.284 L 13.000 7.421 15.730 10.146 C 18.212 12.623,18.478 12.876,18.657 12.935 C 19.047 13.064,19.423 12.979,19.701 12.701 C 19.979 12.423,20.063 12.047,19.935 11.657 C 19.876 11.477,19.559 11.148,16.245 7.826 C 13.328 4.901,12.581 4.173,12.420 4.096 C 12.151 3.968,11.849 3.968,11.580 4.096 " stroke="none" fill="black" fill-rule="evenodd"></path></svg>