<svg xmlns="http://www.w3.org/2000/svg" width="24" height="24" viewBox="0 0 24 24" fill="none" stroke="currentColor" stroke-width="2" stroke-linecap="round" stroke-linejoin="round"><path d="M11.160 1.025 C 9.301 1.200,7.615 1.759,6.148 2.687 C 4.822 3.527,3.527 4.822,2.687 6.148 C 1.869 7.442,1.330 8.925,1.093 10.540 C 1.041 10.896,1.023 11.273,1.023 12.000 C 1.023 12.727,1.041 13.104,1.093 13.460 C 1.459 15.949,2.477 17.997,4.219 19.742 C 4.905 20.431,5.272 20.733,6.000 21.211 C 7.357 22.102,8.852 22.660,10.540 22.906 C 11.211 23.004,12.789 23.004,13.460 22.906 C 15.405 22.623,17.091 21.926,18.637 20.770 C 19.170 20.370,20.252 19.310,20.646 18.800 C 21.874 17.211,22.614 15.461,22.906 13.460 C 22.958 13.105,22.976 12.724,22.976 12.000 C 22.976 11.276,22.958 10.895,22.906 10.540 C 22.614 8.540,21.878 6.798,20.647 5.200 C 20.259 4.697,19.173 3.633,18.637 3.231 C 17.124 2.097,15.456 1.398,13.600 1.118 C 13.075 1.039,11.609 0.983,11.160 1.025 M12.863 3.043 C 15.975 3.345,18.701 5.239,20.083 8.060 C 22.266 12.512,20.412 17.891,15.940 20.083 C 11.490 22.265,6.104 20.409,3.917 15.940 C 2.386 12.813,2.802 9.097,4.987 6.369 C 6.873 4.015,9.866 2.751,12.863 3.043 M11.580 7.096 C 11.422 7.172,10.939 7.635,9.255 9.326 C 7.338 11.252,7.124 11.479,7.065 11.657 C 6.936 12.047,7.021 12.423,7.299 12.701 C 7.577 12.979,7.954 13.064,8.343 12.934 C 8.517 12.877,8.685 12.724,9.770 11.646 L 11.000 10.423 11.000 13.284 C 11.000 16.511,10.990 16.392,11.299 16.701 C 11.690 17.092,12.310 17.092,12.701 16.701 C 13.010 16.392,13.000 16.511,13.000 13.284 L 13.000 10.423 14.230 11.646 C 15.315 12.724,15.483 12.877,15.657 12.934 C 16.046 13.064,16.423 12.979,16.701 12.701 C 16.979 12.423,17.064 12.047,16.935 11.657 C 16.876 11.479,16.662 11.252,14.745 9.326 C 12.431 7.001,12.430 7.001,12.000 7.001 C 11.851 7.001,11.716 7.031,11.580 7.096 " stroke="none" fill="black" fill-rule="evenodd"></path></svg>