<svg xmlns="http://www.w3.org/2000/svg" width="24" height="24" viewBox="0 0 24 24" fill="none" stroke="currentColor" stroke-width="2" stroke-linecap="round" stroke-linejoin="round"><path d="M5.643 3.068 C 5.546 3.103,5.392 3.206,5.300 3.298 C 4.973 3.624,5.000 2.855,5.000 12.000 C 5.000 21.146,4.973 20.376,5.300 20.702 C 5.622 21.024,5.247 21.004,10.784 20.989 C 15.331 20.977,15.722 20.971,16.000 20.905 C 16.981 20.672,17.749 20.267,18.429 19.624 C 18.877 19.201,19.199 18.759,19.483 18.180 C 20.277 16.560,20.147 14.732,19.128 13.180 C 18.874 12.794,18.173 12.101,17.772 11.841 L 17.443 11.629 17.694 11.358 C 18.568 10.414,19.058 9.054,18.989 7.764 C 18.919 6.474,18.437 5.393,17.522 4.478 C 16.796 3.752,16.053 3.345,15.000 3.095 C 14.723 3.029,14.355 3.023,10.260 3.014 C 6.303 3.006,5.801 3.012,5.643 3.068 M14.592 5.063 C 16.213 5.396,17.267 6.981,16.937 8.592 C 16.694 9.774,15.774 10.694,14.592 10.937 C 14.324 10.992,13.804 11.000,10.642 11.000 L 7.000 11.000 7.000 8.000 L 7.000 5.000 10.642 5.000 C 13.804 5.000,14.324 5.008,14.592 5.063 M15.592 13.063 C 17.213 13.396,18.267 14.981,17.937 16.592 C 17.694 17.774,16.774 18.694,15.592 18.937 C 15.322 18.992,14.760 19.000,11.142 19.000 L 7.000 19.000 7.000 16.000 L 7.000 13.000 11.142 13.000 C 14.760 13.000,15.322 13.008,15.592 13.063 " stroke="none" fill="black" fill-rule="evenodd"></path></svg>