<svg xmlns="http://www.w3.org/2000/svg" width="24" height="24" viewBox="0 0 24 24" fill="none" stroke="currentColor" stroke-width="2" stroke-linecap="round" stroke-linejoin="round"><path d="M1.643 2.068 C 1.546 2.103,1.392 2.206,1.300 2.298 C 0.974 2.624,1.000 1.915,1.000 10.500 C 1.000 19.083,0.974 18.376,1.299 18.701 C 1.613 19.016,1.393 19.000,5.525 19.000 C 8.051 19.000,9.262 19.014,9.408 19.044 C 10.315 19.233,10.999 20.078,11.000 21.012 C 11.001 21.554,11.451 21.998,12.000 21.998 C 12.549 21.998,12.999 21.554,13.000 21.012 C 13.001 20.078,13.685 19.233,14.592 19.044 C 14.738 19.014,15.949 19.000,18.475 19.000 C 22.607 19.000,22.387 19.016,22.701 18.701 C 23.026 18.376,23.000 19.083,23.000 10.500 C 23.000 1.914,23.026 2.624,22.700 2.298 C 22.383 1.981,22.572 1.995,18.715 2.011 C 15.620 2.023,15.272 2.031,15.000 2.095 C 13.941 2.345,13.200 2.755,12.450 3.505 L 12.000 3.956 11.550 3.505 C 10.797 2.751,10.064 2.346,9.000 2.095 C 8.727 2.031,8.388 2.024,5.260 2.015 C 2.208 2.006,1.800 2.012,1.643 2.068 M8.592 4.063 C 9.774 4.306,10.694 5.226,10.937 6.408 C 10.993 6.680,11.000 7.352,11.000 12.122 C 11.000 15.094,10.987 17.520,10.970 17.511 C 10.514 17.278,10.113 17.140,9.659 17.061 C 9.366 17.010,8.800 17.000,6.155 17.000 L 3.000 17.000 3.000 10.500 L 3.000 4.000 5.642 4.000 C 7.893 4.000,8.329 4.009,8.592 4.063 M21.000 10.500 L 21.000 17.000 17.845 17.000 C 15.200 17.000,14.634 17.010,14.341 17.061 C 13.887 17.140,13.486 17.278,13.030 17.511 C 13.013 17.520,13.000 15.094,13.000 12.122 C 13.000 6.202,12.992 6.422,13.235 5.839 C 13.527 5.143,14.129 4.540,14.831 4.241 C 15.375 4.010,15.417 4.007,18.330 4.003 L 21.000 4.000 21.000 10.500 " stroke="none" fill="black" fill-rule="evenodd"></path></svg>