<svg xmlns="http://www.w3.org/2000/svg" width="24" height="24" viewBox="0 0 24 24" fill="none" stroke="currentColor" stroke-width="2" stroke-linecap="round" stroke-linejoin="round"><path d="M5.936 1.044 C 4.679 1.254,3.560 2.214,3.180 3.409 C 3.126 3.578,3.064 3.830,3.041 3.969 C 2.985 4.315,2.985 19.685,3.041 20.031 C 3.225 21.160,3.943 22.129,4.988 22.654 C 5.102 22.712,5.354 22.809,5.548 22.870 L 5.900 22.980 13.017 22.991 C 21.017 23.003,20.375 23.027,20.700 22.702 C 21.028 22.374,21.000 23.388,21.000 12.000 C 21.000 0.615,21.028 1.626,20.701 1.299 C 20.377 0.975,21.007 0.999,13.143 1.005 C 9.291 1.007,6.048 1.025,5.936 1.044 M19.000 9.500 L 19.000 16.000 12.610 16.000 C 8.441 16.000,6.132 16.015,5.968 16.042 C 5.747 16.077,5.279 16.212,5.069 16.299 C 5.002 16.328,4.999 16.042,5.009 10.234 L 5.020 4.140 5.132 3.900 C 5.320 3.498,5.670 3.193,6.100 3.056 C 6.226 3.016,7.602 3.005,12.630 3.003 L 19.000 3.000 19.000 9.500 M19.000 19.500 L 19.000 21.001 12.570 20.990 L 6.140 20.980 5.900 20.868 C 5.585 20.721,5.276 20.413,5.133 20.104 C 5.035 19.894,5.020 19.811,5.020 19.500 C 5.020 19.190,5.035 19.107,5.132 18.900 C 5.320 18.498,5.670 18.193,6.100 18.056 C 6.226 18.016,7.602 18.005,12.630 18.003 L 19.000 18.000 19.000 19.500 " stroke="none" fill="black" fill-rule="evenodd"></path></svg>