<svg xmlns="http://www.w3.org/2000/svg" width="24" height="24" viewBox="0 0 24 24" fill="none" stroke="currentColor" stroke-width="2" stroke-linecap="round" stroke-linejoin="round"><path d="M8.060 1.044 C 5.721 1.298,3.475 2.517,2.007 4.329 C 1.229 5.289,0.587 6.567,0.275 7.775 C 0.042 8.681,-0.057 9.944,0.036 10.843 C 0.271 13.119,1.324 15.213,2.974 16.687 C 3.197 16.887,3.470 17.092,3.580 17.144 C 4.062 17.373,4.639 17.177,4.892 16.700 C 4.954 16.582,4.977 16.466,4.978 16.260 C 4.980 15.912,4.897 15.728,4.624 15.480 C 4.102 15.006,3.851 14.756,3.622 14.480 C 2.626 13.281,2.073 11.837,2.013 10.280 C 1.977 9.348,2.074 8.655,2.364 7.782 C 2.827 6.386,3.723 5.174,4.940 4.298 C 5.371 3.988,6.277 3.528,6.793 3.358 C 8.583 2.768,10.532 2.921,12.201 3.783 C 13.878 4.649,15.095 6.108,15.682 7.957 C 15.870 8.547,15.990 8.729,16.297 8.892 C 16.448 8.972,16.540 8.980,17.540 9.004 C 18.781 9.035,19.036 9.080,19.665 9.377 C 20.312 9.684,20.769 10.047,21.161 10.568 C 21.721 11.311,21.977 12.073,21.977 13.000 C 21.977 13.275,21.954 13.608,21.926 13.740 C 21.661 14.987,20.909 15.990,19.820 16.546 C 19.210 16.858,19.022 17.101,19.022 17.580 C 19.022 17.909,19.112 18.114,19.345 18.319 C 19.552 18.501,19.716 18.560,20.012 18.560 C 20.231 18.560,20.316 18.536,20.631 18.382 C 21.238 18.087,21.695 17.754,22.222 17.225 C 23.122 16.321,23.641 15.349,23.887 14.109 C 24.013 13.475,24.013 12.525,23.887 11.891 C 23.641 10.651,23.122 9.679,22.222 8.775 C 21.681 8.232,21.218 7.899,20.583 7.596 C 19.772 7.211,19.083 7.046,18.106 7.006 L 17.471 6.980 17.376 6.726 C 16.986 5.687,16.300 4.626,15.462 3.766 C 14.917 3.205,14.537 2.885,13.958 2.498 C 12.906 1.796,11.607 1.296,10.320 1.100 C 9.808 1.022,8.551 0.991,8.060 1.044 M7.643 15.066 C 7.288 15.197,7.000 15.615,7.000 16.000 C 7.000 16.729,7.814 17.222,8.465 16.887 C 9.176 16.522,9.173 15.477,8.461 15.111 C 8.250 15.002,7.873 14.982,7.643 15.066 M15.643 15.066 C 15.288 15.197,15.000 15.615,15.000 16.000 C 15.000 16.729,15.814 17.222,16.465 16.887 C 17.176 16.522,17.173 15.477,16.461 15.111 C 16.250 15.002,15.873 14.982,15.643 15.066 M11.643 17.066 C 11.288 17.197,11.000 17.615,11.000 18.000 C 11.000 18.729,11.814 19.222,12.465 18.887 C 13.176 18.522,13.173 17.477,12.461 17.111 C 12.250 17.002,11.873 16.982,11.643 17.066 M7.643 19.066 C 7.288 19.197,7.000 19.615,7.000 20.000 C 7.000 20.729,7.814 21.222,8.465 20.887 C 9.176 20.522,9.173 19.477,8.461 19.111 C 8.250 19.002,7.873 18.982,7.643 19.066 M15.643 19.066 C 15.288 19.197,15.000 19.615,15.000 20.000 C 15.000 20.729,15.814 21.222,16.465 20.887 C 17.176 20.522,17.173 19.477,16.461 19.111 C 16.250 19.002,15.873 18.982,15.643 19.066 M11.643 21.066 C 11.288 21.197,11.000 21.615,11.000 22.000 C 11.000 22.729,11.814 23.222,12.465 22.887 C 13.176 22.522,13.173 21.477,12.461 21.111 C 12.250 21.002,11.873 20.982,11.643 21.066 " stroke="none" fill="black" fill-rule="evenodd"></path></svg>