<svg xmlns="http://www.w3.org/2000/svg" width="24" height="24" viewBox="0 0 24 24" fill="none" stroke="currentColor" stroke-width="2" stroke-linecap="round" stroke-linejoin="round"><path d="M11.160 1.025 C 9.301 1.200,7.615 1.759,6.148 2.687 C 4.822 3.527,3.527 4.822,2.687 6.148 C 1.869 7.442,1.330 8.925,1.093 10.540 C 1.041 10.896,1.023 11.273,1.023 12.000 C 1.023 12.727,1.041 13.104,1.093 13.460 C 1.459 15.949,2.477 17.997,4.219 19.742 C 4.905 20.431,5.272 20.733,6.000 21.211 C 7.357 22.102,8.852 22.660,10.540 22.906 C 11.211 23.004,12.789 23.004,13.460 22.906 C 15.405 22.623,17.091 21.926,18.637 20.770 C 19.170 20.370,20.252 19.310,20.646 18.800 C 21.874 17.211,22.614 15.461,22.906 13.460 C 22.958 13.105,22.976 12.724,22.976 12.000 C 22.976 11.276,22.958 10.895,22.906 10.540 C 22.614 8.540,21.878 6.798,20.647 5.200 C 20.259 4.697,19.173 3.633,18.637 3.231 C 17.124 2.097,15.456 1.398,13.600 1.118 C 13.075 1.039,11.609 0.983,11.160 1.025 M11.114 6.450 C 11.410 7.051,12.222 7.180,12.701 6.701 C 12.993 6.409,13.000 6.359,13.000 4.600 L 13.000 3.054 13.270 3.089 C 14.119 3.200,15.090 3.501,15.940 3.917 C 17.425 4.645,18.642 5.722,19.560 7.120 C 20.223 8.131,20.757 9.564,20.914 10.750 L 20.947 11.000 19.401 11.000 C 17.641 11.000,17.591 11.007,17.299 11.299 C 16.908 11.690,16.908 12.310,17.299 12.701 C 17.591 12.993,17.641 13.000,19.401 13.000 L 20.947 13.000 20.914 13.250 C 20.757 14.436,20.223 15.869,19.560 16.880 C 18.860 17.947,17.947 18.860,16.880 19.560 C 15.869 20.223,14.436 20.757,13.250 20.914 L 13.000 20.947 13.000 19.401 C 13.000 17.641,12.993 17.591,12.701 17.299 C 12.310 16.908,11.690 16.908,11.299 17.299 C 11.007 17.591,11.000 17.641,11.000 19.401 L 11.000 20.947 10.750 20.914 C 9.892 20.801,8.891 20.490,8.042 20.072 C 6.230 19.182,4.800 17.749,3.918 15.940 C 3.499 15.080,3.199 14.117,3.089 13.270 L 3.054 13.000 4.600 13.000 C 6.359 13.000,6.409 12.993,6.701 12.701 C 7.092 12.310,7.092 11.690,6.701 11.299 C 6.409 11.007,6.359 11.000,4.600 11.000 L 3.054 11.000 3.089 10.730 C 3.285 9.229,3.986 7.619,4.987 6.369 C 6.380 4.630,8.481 3.417,10.635 3.105 L 10.980 3.056 11.000 4.658 C 11.020 6.237,11.021 6.263,11.114 6.450 " stroke="none" fill="black" fill-rule="evenodd"></path></svg>