<svg xmlns="http://www.w3.org/2000/svg" width="24" height="24" viewBox="0 0 24 24" fill="none" stroke="currentColor" stroke-width="2" stroke-linecap="round" stroke-linejoin="round"><path d="M7.860 2.061 C 6.309 2.264,4.840 2.863,3.560 3.813 C 3.072 4.176,2.176 5.072,1.813 5.560 C 0.005 7.995,-0.484 11.069,0.484 13.914 C 0.925 15.209,1.991 16.883,2.557 17.170 C 3.047 17.418,3.633 17.230,3.892 16.740 C 3.954 16.622,3.977 16.506,3.978 16.300 C 3.980 15.961,3.930 15.850,3.594 15.440 C 2.766 14.433,2.253 13.256,2.057 11.920 C 1.968 11.305,1.995 10.284,2.118 9.665 C 2.338 8.558,2.834 7.482,3.522 6.620 C 3.748 6.336,4.329 5.759,4.642 5.507 C 5.477 4.835,6.556 4.341,7.687 4.112 C 8.081 4.032,8.255 4.020,9.020 4.022 C 9.775 4.024,9.959 4.037,10.320 4.114 C 11.258 4.315,12.127 4.673,12.846 5.155 C 14.221 6.076,15.157 7.320,15.664 8.901 C 15.873 9.552,15.984 9.726,16.297 9.892 C 16.448 9.972,16.539 9.980,17.540 10.004 C 18.525 10.027,18.654 10.038,19.008 10.132 C 20.427 10.507,21.490 11.578,21.889 13.033 C 21.957 13.282,21.974 13.460,21.976 13.980 C 21.979 14.561,21.969 14.657,21.868 15.017 C 21.649 15.806,21.177 16.555,20.600 17.030 C 19.974 17.546,19.899 17.660,19.902 18.100 C 19.903 18.411,19.987 18.619,20.186 18.808 C 20.464 19.071,20.932 19.154,21.271 19.001 C 21.655 18.826,22.359 18.185,22.775 17.631 C 23.351 16.863,23.752 15.947,23.925 15.000 C 24.015 14.508,23.994 13.313,23.887 12.812 C 23.429 10.679,21.909 8.972,19.871 8.304 C 19.298 8.115,18.823 8.036,18.089 8.005 L 17.478 7.980 17.304 7.553 C 16.075 4.536,13.224 2.399,9.952 2.042 C 9.437 1.986,8.359 1.996,7.860 2.061 M11.643 11.069 C 11.546 11.103,11.392 11.206,11.300 11.298 C 10.986 11.612,11.000 11.429,11.000 15.216 L 11.000 18.577 9.770 17.354 C 8.685 16.276,8.517 16.123,8.343 16.066 C 7.954 15.936,7.577 16.021,7.299 16.299 C 7.021 16.577,6.936 16.953,7.065 17.343 C 7.124 17.521,7.338 17.748,9.255 19.674 C 11.569 21.999,11.570 21.999,12.000 21.999 C 12.430 21.999,12.431 21.999,14.745 19.674 C 16.662 17.748,16.876 17.521,16.935 17.343 C 17.064 16.953,16.979 16.577,16.701 16.299 C 16.423 16.021,16.046 15.936,15.657 16.066 C 15.483 16.123,15.315 16.276,14.230 17.354 L 13.000 18.577 13.000 15.216 C 13.000 11.430,13.014 11.612,12.701 11.299 C 12.424 11.021,12.024 10.934,11.643 11.069 " stroke="none" fill="black" fill-rule="evenodd"></path></svg>