<svg xmlns="http://www.w3.org/2000/svg" width="24" height="24" viewBox="0 0 24 24" fill="none" stroke="currentColor" stroke-width="2" stroke-linecap="round" stroke-linejoin="round"><path d="M11.280 3.023 C 11.203 3.032,10.969 3.059,10.760 3.083 C 9.304 3.251,7.819 3.782,6.396 4.643 C 4.219 5.960,2.112 8.168,0.541 10.780 C 0.098 11.518,0.020 11.699,0.020 12.000 C 0.020 12.301,0.098 12.482,0.541 13.220 C 1.434 14.704,2.349 15.874,3.578 17.102 C 4.582 18.105,5.375 18.740,6.396 19.357 C 7.810 20.213,9.177 20.704,10.760 20.925 C 11.324 21.004,12.782 20.993,13.380 20.906 C 15.419 20.607,17.290 19.756,19.120 18.295 C 19.728 17.810,21.015 16.545,21.517 15.940 C 22.442 14.824,23.420 13.393,23.852 12.521 C 23.957 12.309,23.980 12.214,23.980 12.000 C 23.980 11.786,23.957 11.691,23.852 11.479 C 23.419 10.606,22.440 9.172,21.516 8.060 C 21.009 7.449,19.724 6.186,19.120 5.704 C 17.291 4.246,15.397 3.384,13.400 3.099 C 12.966 3.038,11.585 2.988,11.280 3.023 M12.920 5.058 C 15.718 5.396,18.340 7.136,20.652 10.189 C 20.931 10.558,21.593 11.542,21.782 11.870 C 21.872 12.025,21.899 11.966,21.334 12.831 C 19.687 15.353,17.532 17.326,15.404 18.262 C 12.949 19.341,10.340 19.225,7.920 17.930 C 6.326 17.077,4.737 15.644,3.343 13.804 C 3.052 13.420,2.321 12.333,2.203 12.108 C 2.133 11.975,2.127 11.986,2.650 11.190 C 4.151 8.904,6.023 7.085,7.920 6.070 C 9.527 5.210,11.264 4.858,12.920 5.058 M11.310 8.063 C 10.478 8.214,9.777 8.581,9.179 9.179 C 8.367 9.990,7.955 11.053,8.014 12.180 C 8.110 14.013,9.346 15.487,11.140 15.905 C 11.604 16.014,12.459 16.007,12.920 15.891 C 14.409 15.516,15.516 14.409,15.891 12.920 C 16.007 12.459,16.014 11.604,15.905 11.140 C 15.415 9.038,13.395 7.686,11.310 8.063 M12.408 10.044 C 13.310 10.232,14.000 11.080,14.000 12.000 C 14.000 13.080,13.080 14.000,12.000 14.000 C 10.920 14.000,10.000 13.080,10.000 12.000 C 10.000 11.102,10.657 10.269,11.534 10.057 C 11.797 9.993,12.138 9.988,12.408 10.044 " stroke="none" fill="black" fill-rule="evenodd"></path></svg>