<svg xmlns="http://www.w3.org/2000/svg" width="24" height="24" viewBox="0 0 24 24" fill="none" stroke="currentColor" stroke-width="2" stroke-linecap="round" stroke-linejoin="round"><path d="M5.310 2.063 C 4.478 2.214,3.777 2.581,3.179 3.179 C 2.367 3.990,1.955 5.053,2.014 6.180 C 2.105 7.934,3.208 9.324,4.930 9.856 C 4.996 9.876,5.000 10.181,5.000 15.512 C 5.000 21.841,4.978 21.380,5.299 21.701 C 5.690 22.092,6.310 22.092,6.701 21.701 C 7.022 21.380,7.000 21.841,7.000 15.512 C 7.000 10.181,7.004 9.876,7.070 9.856 C 8.521 9.402,9.531 8.351,9.891 6.920 C 10.007 6.459,10.014 5.604,9.905 5.140 C 9.415 3.038,7.395 1.686,5.310 2.063 M6.408 4.044 C 7.310 4.232,8.000 5.080,8.000 6.000 C 8.000 7.080,7.080 8.000,6.000 8.000 C 4.920 8.000,4.000 7.080,4.000 6.000 C 4.000 5.102,4.657 4.269,5.534 4.057 C 5.797 3.993,6.138 3.988,6.408 4.044 M12.643 5.069 C 12.291 5.193,12.000 5.614,12.000 6.000 C 12.000 6.242,12.119 6.521,12.299 6.701 C 12.593 6.995,12.629 7.000,14.500 7.000 C 16.371 7.000,16.407 7.005,16.701 7.299 C 17.012 7.610,17.000 7.457,17.000 10.988 C 17.000 13.938,16.996 14.124,16.930 14.144 C 15.456 14.600,14.436 15.677,14.095 17.140 C 13.992 17.581,13.992 18.419,14.095 18.860 C 14.454 20.399,15.601 21.546,17.140 21.905 C 17.604 22.014,18.459 22.007,18.920 21.891 C 20.409 21.516,21.516 20.409,21.891 18.920 C 22.007 18.459,22.014 17.604,21.905 17.140 C 21.584 15.762,20.617 14.679,19.300 14.221 L 19.020 14.124 18.998 10.792 C 18.975 7.204,18.986 7.400,18.763 6.845 C 18.396 5.930,17.476 5.204,16.476 5.042 C 16.326 5.018,15.519 5.002,14.520 5.003 C 13.088 5.006,12.792 5.016,12.643 5.069 M18.408 16.044 C 19.310 16.232,20.000 17.080,20.000 18.000 C 20.000 19.080,19.080 20.000,18.000 20.000 C 16.920 20.000,16.000 19.080,16.000 18.000 C 16.000 17.102,16.657 16.269,17.534 16.057 C 17.797 15.993,18.138 15.988,18.408 16.044 " stroke="none" fill="black" fill-rule="evenodd"></path></svg>