<svg xmlns="http://www.w3.org/2000/svg" width="24" height="24" viewBox="0 0 24 24" fill="none" stroke="currentColor" stroke-width="2" stroke-linecap="round" stroke-linejoin="round"><path d="M4.620 2.025 C 4.212 2.105,4.087 2.139,3.870 2.227 C 2.989 2.585,2.321 3.364,2.076 4.320 C 1.993 4.647,1.992 19.351,2.076 19.677 C 2.359 20.780,3.114 21.553,4.260 21.912 C 4.430 21.966,4.814 21.977,6.793 21.990 C 9.442 22.006,9.391 22.011,9.700 21.702 C 10.092 21.310,10.093 20.691,9.701 20.299 C 9.399 19.997,9.427 20.000,7.000 20.000 C 4.573 20.000,4.601 20.003,4.299 19.701 C 3.975 19.377,4.000 20.026,4.002 11.983 C 4.003 6.104,4.013 4.793,4.057 4.670 C 4.136 4.449,4.298 4.256,4.511 4.131 L 4.700 4.020 6.980 4.000 L 9.260 3.980 9.450 3.886 C 10.051 3.590,10.180 2.778,9.701 2.299 C 9.397 1.995,9.438 1.999,6.923 2.005 C 5.700 2.007,4.664 2.016,4.620 2.025 M15.643 6.069 C 15.291 6.193,15.000 6.614,15.000 7.000 C 15.000 7.080,15.029 7.234,15.065 7.343 C 15.124 7.520,15.309 7.719,16.854 9.270 L 18.578 11.000 13.716 11.000 C 8.251 11.000,8.618 10.980,8.299 11.299 C 7.908 11.690,7.908 12.310,8.299 12.701 C 8.618 13.020,8.251 13.000,13.716 13.000 L 18.578 13.000 16.854 14.730 C 15.309 16.281,15.124 16.480,15.065 16.657 C 14.936 17.046,15.021 17.423,15.299 17.701 C 15.577 17.979,15.953 18.064,16.343 17.935 C 16.522 17.876,16.783 17.628,19.174 15.245 C 22.038 12.391,21.999 12.436,21.999 12.000 C 21.999 11.564,22.038 11.609,19.174 8.755 C 16.783 6.372,16.522 6.124,16.343 6.065 C 16.101 5.985,15.876 5.986,15.643 6.069 " stroke="none" fill="black" fill-rule="evenodd"></path></svg>