<svg xmlns="http://www.w3.org/2000/svg" width="24" height="24" viewBox="0 0 24 24" fill="none" stroke="currentColor" stroke-width="2" stroke-linecap="round" stroke-linejoin="round"><path d="M11.534 3.057 C 10.657 3.269,10.000 4.102,10.000 5.000 C 10.000 6.080,10.920 7.000,12.000 7.000 C 13.080 7.000,14.000 6.080,14.000 5.000 C 14.000 3.904,13.066 2.987,11.968 3.003 C 11.843 3.005,11.647 3.029,11.534 3.057 M11.534 10.057 C 10.657 10.269,10.000 11.102,10.000 12.000 C 10.000 13.080,10.920 14.000,12.000 14.000 C 13.080 14.000,14.000 13.080,14.000 12.000 C 14.000 10.904,13.066 9.987,11.968 10.003 C 11.843 10.005,11.647 10.029,11.534 10.057 M11.534 17.057 C 10.657 17.269,10.000 18.102,10.000 19.000 C 10.000 20.080,10.920 21.000,12.000 21.000 C 12.920 21.000,13.768 20.310,13.956 19.408 C 14.095 18.743,13.895 18.088,13.404 17.596 C 12.901 17.094,12.207 16.894,11.534 17.057 " stroke="none" fill="black" fill-rule="evenodd"></path></svg>