<svg xmlns="http://www.w3.org/2000/svg" width="24" height="24" viewBox="0 0 24 24" fill="none" stroke="currentColor" stroke-width="2" stroke-linecap="round" stroke-linejoin="round"><path d="M3.620 2.025 C 3.212 2.105,3.087 2.139,2.870 2.227 C 2.155 2.518,1.532 3.133,1.243 3.833 C 1.012 4.394,1.020 4.229,1.020 8.260 C 1.020 11.636,1.027 12.024,1.092 12.460 C 1.468 14.969,2.477 16.997,4.219 18.742 C 4.905 19.431,5.272 19.733,6.000 20.211 C 7.357 21.102,8.852 21.660,10.540 21.906 C 11.211 22.004,12.789 22.004,13.460 21.906 C 15.405 21.623,17.091 20.926,18.637 19.770 C 19.170 19.370,20.252 18.310,20.646 17.800 C 21.873 16.212,22.605 14.484,22.908 12.460 C 22.973 12.024,22.980 11.636,22.980 8.260 C 22.980 5.212,22.970 4.501,22.924 4.323 C 22.617 3.126,21.660 2.233,20.480 2.043 C 20.234 2.003,3.820 1.986,3.620 2.025 M20.340 4.066 C 20.455 4.105,20.603 4.201,20.701 4.299 C 21.013 4.611,21.000 4.439,21.000 8.140 C 21.000 10.160,20.984 11.594,20.957 11.863 C 20.655 14.973,18.758 17.702,15.940 19.083 C 13.446 20.306,10.544 20.302,8.042 19.072 C 5.213 17.682,3.318 14.927,3.039 11.800 C 3.010 11.467,2.999 10.196,3.007 8.000 L 3.020 4.700 3.131 4.511 C 3.256 4.298,3.449 4.136,3.670 4.057 C 3.793 4.013,5.268 4.003,11.983 4.002 C 19.479 4.000,20.162 4.005,20.340 4.066 M7.643 9.069 C 7.291 9.193,7.000 9.614,7.000 10.000 C 7.000 10.080,7.029 10.234,7.065 10.343 C 7.124 10.521,7.336 10.747,9.255 12.671 C 10.766 14.187,11.431 14.827,11.556 14.888 C 11.800 15.006,12.065 15.024,12.326 14.940 C 12.527 14.875,12.668 14.742,14.671 12.745 C 16.187 11.234,16.827 10.569,16.888 10.444 C 17.077 10.052,17.004 9.602,16.702 9.300 C 16.423 9.021,16.047 8.936,15.657 9.065 C 15.480 9.124,15.281 9.309,13.730 10.854 L 12.000 12.578 10.270 10.854 C 8.719 9.309,8.520 9.124,8.343 9.065 C 8.101 8.985,7.876 8.986,7.643 9.069 " stroke="none" fill="black" fill-rule="evenodd"></path></svg>