<svg xmlns="http://www.w3.org/2000/svg" width="24" height="24" viewBox="0 0 24 24" fill="none" stroke="currentColor" stroke-width="2" stroke-linecap="round" stroke-linejoin="round"><path d="M4.620 2.025 C 4.212 2.105,4.087 2.139,3.870 2.227 C 2.989 2.585,2.321 3.364,2.076 4.320 C 1.993 4.647,1.992 19.351,2.076 19.677 C 2.357 20.776,3.117 21.553,4.260 21.915 C 4.439 21.971,5.243 21.979,11.820 21.990 C 16.818 21.998,19.268 21.989,19.453 21.960 C 20.467 21.804,21.358 21.109,21.759 20.160 C 21.993 19.606,21.977 20.054,21.990 13.703 C 22.001 8.392,21.996 7.848,21.936 7.663 C 21.876 7.475,21.676 7.264,19.206 4.795 C 16.779 2.369,16.522 2.124,16.343 2.065 C 16.165 2.006,15.599 2.000,10.423 2.005 C 7.275 2.007,4.664 2.016,4.620 2.025 M6.000 6.073 C 6.000 8.419,5.998 8.400,6.299 8.701 C 6.616 9.018,6.337 9.000,11.000 9.000 C 15.663 9.000,15.384 9.018,15.701 8.701 C 16.092 8.310,16.092 7.690,15.701 7.299 C 15.387 6.985,15.595 7.000,11.573 7.000 L 8.000 7.000 8.000 5.500 L 8.000 4.000 11.790 4.000 L 15.580 4.000 17.790 6.210 L 20.000 8.420 20.000 13.783 C 20.000 19.809,20.022 19.380,19.701 19.701 C 19.454 19.948,19.259 20.000,18.573 20.000 L 18.000 20.000 18.000 16.427 C 18.000 12.405,18.015 12.613,17.701 12.299 C 17.381 11.979,17.783 12.000,12.000 12.000 C 6.217 12.000,6.619 11.979,6.299 12.299 C 5.985 12.613,6.000 12.405,6.000 16.427 L 6.000 20.000 5.427 20.000 C 4.740 20.000,4.546 19.949,4.298 19.700 C 3.974 19.376,3.998 20.028,4.010 11.918 L 4.020 4.700 4.131 4.511 C 4.256 4.298,4.449 4.136,4.670 4.057 C 4.768 4.022,5.023 4.003,5.410 4.002 L 6.000 4.000 6.000 6.073 M16.000 17.000 L 16.000 20.000 12.000 20.000 L 8.000 20.000 8.000 17.000 L 8.000 14.000 12.000 14.000 L 16.000 14.000 16.000 17.000 " stroke="none" fill="black" fill-rule="evenodd"></path></svg>