<svg xmlns="http://www.w3.org/2000/svg" width="24" height="24" viewBox="0 0 24 24" fill="none" stroke="currentColor" stroke-width="2" stroke-linecap="round" stroke-linejoin="round"><path d="M10.100 2.045 C 7.050 2.333,4.288 4.262,2.917 7.060 C 1.232 10.497,1.926 14.644,4.641 17.359 C 5.989 18.707,7.652 19.555,9.600 19.889 C 10.274 20.004,11.633 20.012,12.320 19.905 C 12.859 19.821,13.514 19.657,14.020 19.480 C 14.769 19.218,15.895 18.607,16.434 18.170 L 16.607 18.029 18.534 19.949 C 20.267 21.678,20.480 21.876,20.657 21.935 C 21.046 22.064,21.423 21.979,21.701 21.701 C 21.979 21.423,22.064 21.046,21.935 20.657 C 21.876 20.480,21.678 20.267,19.949 18.534 L 18.029 16.607 18.170 16.434 C 18.617 15.882,19.215 14.773,19.492 13.980 C 19.661 13.494,19.810 12.889,19.906 12.300 C 20.006 11.686,20.006 10.314,19.906 9.700 C 19.742 8.692,19.507 7.940,19.080 7.060 C 17.440 3.678,13.877 1.688,10.100 2.045 M11.740 4.042 C 14.189 4.322,16.250 5.779,17.302 7.973 C 18.688 10.865,17.948 14.305,15.500 16.353 C 13.102 18.360,9.718 18.547,7.120 16.817 C 3.951 14.707,3.054 10.423,5.110 7.220 C 6.530 5.008,9.160 3.747,11.740 4.042 " stroke="none" fill="black" fill-rule="evenodd"></path></svg>