<svg xmlns="http://www.w3.org/2000/svg" width="24" height="24" viewBox="0 0 24 24" fill="none" stroke="currentColor" stroke-width="2" stroke-linecap="round" stroke-linejoin="round"><path d="M3.643 2.069 C 3.546 2.103,3.392 2.206,3.300 2.298 C 2.984 2.613,3.000 2.395,3.000 6.500 C 3.000 10.604,2.985 10.387,3.299 10.701 C 3.690 11.092,4.310 11.092,4.701 10.701 C 5.015 10.387,5.000 10.604,5.000 6.500 C 5.000 2.396,5.015 2.613,4.701 2.299 C 4.424 2.021,4.024 1.934,3.643 2.069 M11.643 2.069 C 11.546 2.103,11.392 2.206,11.300 2.298 C 10.998 2.600,11.000 2.580,11.000 4.927 L 11.000 7.000 9.927 7.000 C 8.692 7.000,8.577 7.021,8.299 7.299 C 7.908 7.690,7.908 8.310,8.299 8.701 C 8.610 9.013,8.456 9.000,12.000 9.000 C 15.544 9.000,15.390 9.013,15.701 8.701 C 16.092 8.310,16.092 7.690,15.701 7.299 C 15.423 7.021,15.308 7.000,14.073 7.000 L 13.000 7.000 13.000 4.927 C 13.000 2.581,13.002 2.600,12.701 2.299 C 12.424 2.021,12.024 1.934,11.643 2.069 M19.643 2.069 C 19.546 2.103,19.392 2.206,19.300 2.298 C 18.980 2.618,19.000 2.276,19.000 7.500 C 19.000 12.723,18.980 12.383,19.299 12.701 C 19.690 13.092,20.310 13.092,20.701 12.701 C 21.020 12.383,21.000 12.723,21.000 7.500 C 21.000 2.277,21.020 2.617,20.701 2.299 C 20.424 2.021,20.024 1.934,19.643 2.069 M11.643 11.069 C 11.546 11.103,11.392 11.206,11.300 11.298 C 10.980 11.618,11.000 11.276,11.000 16.500 C 11.000 21.723,10.980 21.383,11.299 21.701 C 11.690 22.092,12.310 22.092,12.701 21.701 C 13.020 21.383,13.000 21.723,13.000 16.500 C 13.000 11.277,13.020 11.617,12.701 11.299 C 12.424 11.021,12.024 10.934,11.643 11.069 M0.643 13.069 C 0.291 13.193,-0.000 13.614,0.000 14.000 C 0.000 14.396,0.291 14.808,0.660 14.934 C 0.822 14.989,1.033 15.000,1.927 15.000 L 3.000 15.000 3.000 18.073 C 3.000 21.536,2.988 21.390,3.299 21.701 C 3.690 22.092,4.310 22.092,4.701 21.701 C 5.012 21.390,5.000 21.536,5.000 18.073 L 5.000 15.000 6.073 15.000 C 7.308 15.000,7.423 14.979,7.701 14.701 C 8.092 14.310,8.092 13.690,7.701 13.299 C 7.389 12.987,7.547 13.000,3.983 13.003 C 1.226 13.006,0.797 13.014,0.643 13.069 M16.643 15.069 C 16.291 15.193,16.000 15.614,16.000 16.000 C 16.000 16.396,16.291 16.808,16.660 16.934 C 16.822 16.989,17.033 17.000,17.927 17.000 L 19.000 17.000 19.000 19.073 C 19.000 21.419,18.998 21.400,19.299 21.701 C 19.690 22.092,20.310 22.092,20.701 21.701 C 21.002 21.400,21.000 21.419,21.000 19.073 L 21.000 17.000 22.073 17.000 C 23.308 17.000,23.423 16.979,23.701 16.701 C 24.092 16.310,24.092 15.690,23.701 15.299 C 23.389 14.987,23.547 15.000,19.983 15.003 C 17.226 15.006,16.797 15.014,16.643 15.069 " stroke="none" fill="black" fill-rule="evenodd"></path></svg>