<svg xmlns="http://www.w3.org/2000/svg" width="24" height="24" viewBox="0 0 24 24" fill="none" stroke="currentColor" stroke-width="2" stroke-linecap="round" stroke-linejoin="round"><path d="M3.643 4.069 C 3.291 4.193,3.000 4.614,3.000 5.000 C 3.000 5.080,3.029 5.234,3.065 5.343 C 3.124 5.522,3.377 5.788,5.854 8.270 L 8.579 11.000 5.854 13.730 C 3.377 16.212,3.124 16.478,3.065 16.657 C 2.936 17.047,3.021 17.423,3.300 17.702 C 3.602 18.005,4.053 18.078,4.444 17.887 C 4.571 17.826,5.492 16.929,7.745 14.671 C 10.710 11.701,10.874 11.529,10.940 11.326 C 11.024 11.065,11.006 10.800,10.887 10.556 C 10.826 10.429,9.929 9.509,7.671 7.255 C 4.816 4.405,4.523 4.124,4.343 4.065 C 4.101 3.985,3.876 3.987,3.643 4.069 M11.643 18.069 C 11.291 18.193,11.000 18.614,11.000 19.000 C 11.000 19.242,11.119 19.521,11.299 19.701 C 11.616 20.018,11.337 20.000,16.000 20.000 C 20.663 20.000,20.384 20.018,20.701 19.701 C 21.092 19.310,21.092 18.690,20.701 18.299 C 20.384 17.982,20.666 18.000,15.983 18.003 C 12.320 18.006,11.799 18.014,11.643 18.069 " stroke="none" fill="black" fill-rule="evenodd"></path></svg>