<svg xmlns="http://www.w3.org/2000/svg" width="24" height="24" viewBox="0 0 24 24" fill="none" stroke="currentColor" stroke-width="2" stroke-linecap="round" stroke-linejoin="round"><path d="M9.620 1.025 C 9.212 1.105,9.087 1.139,8.870 1.227 C 8.164 1.514,7.528 2.137,7.250 2.815 C 7.057 3.284,7.033 3.431,7.011 4.230 L 6.991 5.000 4.922 5.000 C 2.581 5.000,2.600 4.998,2.299 5.299 C 1.908 5.690,1.908 6.310,2.299 6.701 C 2.546 6.948,2.741 7.000,3.426 7.000 L 3.998 7.000 4.010 13.770 C 4.021 19.853,4.028 20.560,4.086 20.740 C 4.450 21.875,5.136 22.561,6.260 22.915 C 6.437 22.970,7.078 22.979,11.820 22.990 C 15.434 22.998,17.269 22.989,17.453 22.960 C 18.467 22.804,19.358 22.109,19.759 21.160 C 19.994 20.603,19.977 21.145,19.990 13.770 L 20.002 7.000 20.574 7.000 C 21.259 7.000,21.454 6.948,21.701 6.701 C 22.092 6.310,22.092 5.690,21.701 5.299 C 21.400 4.998,21.419 5.000,19.078 5.000 L 17.009 5.000 16.989 4.230 C 16.975 3.723,16.948 3.392,16.909 3.260 C 16.555 2.064,15.641 1.230,14.480 1.043 C 14.236 1.003,9.812 0.987,9.620 1.025 M14.340 3.066 C 14.593 3.153,14.847 3.407,14.934 3.660 C 14.983 3.805,15.000 3.999,15.000 4.427 L 15.000 5.000 11.997 5.000 L 8.993 5.000 9.007 4.350 C 9.020 3.723,9.024 3.693,9.131 3.511 C 9.256 3.298,9.449 3.136,9.670 3.057 C 9.788 3.015,10.281 3.003,11.983 3.002 C 13.894 3.000,14.168 3.008,14.340 3.066 M18.000 13.573 C 18.000 20.954,18.024 20.378,17.701 20.701 C 17.381 21.021,17.783 21.000,12.000 21.000 C 6.217 21.000,6.619 21.021,6.299 20.701 C 5.976 20.378,6.000 20.954,6.000 13.573 L 6.000 7.000 12.000 7.000 L 18.000 7.000 18.000 13.573 " stroke="none" fill="black" fill-rule="evenodd"></path></svg>