<svg xmlns="http://www.w3.org/2000/svg" width="24" height="24" viewBox="0 0 24 24" fill="none" stroke="currentColor" stroke-width="2" stroke-linecap="round" stroke-linejoin="round"><path d="M10.960 1.044 C 7.898 1.311,5.057 2.744,2.976 5.071 C 1.373 6.865,0.309 9.245,0.035 11.650 C -0.009 12.037,-0.007 12.103,0.056 12.305 C 0.105 12.458,0.181 12.583,0.296 12.698 C 0.619 13.021,0.221 13.000,5.926 13.000 L 10.997 13.000 11.010 16.310 C 11.023 19.552,11.025 19.627,11.109 19.940 C 11.522 21.470,12.628 22.552,14.140 22.905 C 14.604 23.014,15.459 23.007,15.920 22.891 C 17.401 22.518,18.527 21.396,18.883 19.940 C 19.004 19.446,19.027 18.941,18.940 18.681 C 18.811 18.292,18.407 18.000,18.000 18.000 C 17.461 18.000,17.000 18.472,17.000 19.025 C 17.000 20.079,16.067 21.000,15.000 21.000 C 14.080 21.000,13.232 20.310,13.044 19.408 C 13.014 19.264,13.000 18.205,13.000 16.098 L 13.000 13.000 18.073 13.000 C 23.779 13.000,23.381 13.021,23.704 12.698 C 23.819 12.583,23.895 12.458,23.944 12.305 C 24.007 12.103,24.009 12.037,23.965 11.650 C 23.810 10.288,23.400 8.921,22.770 7.660 C 20.565 3.253,15.861 0.617,10.960 1.044 M13.042 3.058 C 14.971 3.263,16.798 4.017,18.300 5.227 C 19.896 6.514,21.104 8.331,21.658 10.278 C 21.730 10.532,21.800 10.798,21.814 10.870 L 21.838 11.000 12.000 11.000 L 2.162 11.000 2.186 10.870 C 2.238 10.597,2.480 9.799,2.621 9.438 C 2.974 8.536,3.601 7.449,4.179 6.737 C 4.508 6.332,5.244 5.597,5.659 5.260 C 7.189 4.018,9.077 3.243,11.060 3.043 C 11.584 2.990,12.463 2.997,13.042 3.058 " stroke="none" fill="black" fill-rule="evenodd"></path></svg>