<svg xmlns="http://www.w3.org/2000/svg" width="24" height="24" viewBox="0 0 24 24" fill="none" stroke="currentColor" stroke-width="2" stroke-linecap="round" stroke-linejoin="round"><path d="M11.360 1.025 C 8.699 1.360,6.672 3.218,6.111 5.836 C 6.036 6.185,6.027 6.393,6.011 8.105 L 5.994 9.991 5.227 10.011 C 4.722 10.025,4.392 10.052,4.260 10.091 C 3.135 10.424,2.359 11.216,2.076 12.320 C 1.993 12.644,1.993 20.353,2.076 20.677 C 2.357 21.776,3.117 22.553,4.260 22.915 C 4.439 22.971,5.243 22.979,11.820 22.990 C 16.818 22.998,19.268 22.989,19.453 22.960 C 20.643 22.777,21.620 21.876,21.924 20.680 C 22.007 20.355,22.007 12.645,21.924 12.323 C 21.617 11.126,20.660 10.233,19.480 10.043 C 19.307 10.015,17.334 10.001,13.607 10.000 L 7.995 10.000 8.009 8.190 L 8.024 6.380 8.131 5.985 C 8.517 4.561,9.577 3.511,11.033 3.111 C 11.478 2.988,12.522 2.988,12.967 3.111 C 14.427 3.512,15.487 4.565,15.865 5.989 C 15.988 6.451,16.030 6.539,16.207 6.706 C 16.429 6.915,16.589 6.978,16.900 6.978 C 17.109 6.978,17.221 6.956,17.343 6.892 C 17.552 6.781,17.777 6.532,17.840 6.339 C 18.006 5.838,17.609 4.602,16.980 3.660 C 16.108 2.355,14.767 1.451,13.208 1.118 C 12.829 1.037,11.713 0.981,11.360 1.025 M19.340 12.066 C 19.455 12.105,19.603 12.201,19.701 12.299 C 20.015 12.613,20.000 12.396,20.000 16.500 C 20.000 20.604,20.015 20.387,19.701 20.701 C 19.377 21.025,20.023 21.000,12.000 21.000 C 3.975 21.000,4.623 21.025,4.298 20.700 C 3.982 20.384,3.997 20.609,4.009 16.417 L 4.020 12.700 4.131 12.511 C 4.256 12.298,4.449 12.136,4.670 12.057 C 4.793 12.013,6.104 12.003,11.983 12.002 C 18.548 12.000,19.162 12.006,19.340 12.066 " stroke="none" fill="black" fill-rule="evenodd"></path></svg>