<svg xmlns="http://www.w3.org/2000/svg" width="24" height="24" viewBox="0 0 24 24" fill="none" stroke="currentColor" stroke-width="2" stroke-linecap="round" stroke-linejoin="round"><path d="M11.260 2.056 C 9.597 2.335,8.259 3.313,7.523 4.785 C 7.164 5.504,7.021 6.135,7.021 7.000 C 7.021 7.446,7.041 7.715,7.093 7.960 C 7.313 8.995,7.741 9.786,8.478 10.521 C 9.222 11.262,10.007 11.687,11.040 11.907 C 11.511 12.007,12.489 12.007,12.960 11.907 C 13.929 11.701,14.732 11.284,15.424 10.630 C 15.877 10.201,16.198 9.761,16.483 9.180 C 17.277 7.560,17.147 5.732,16.128 4.180 C 15.880 3.803,15.173 3.103,14.780 2.845 C 14.219 2.478,13.639 2.237,12.980 2.099 C 12.554 2.009,11.670 1.988,11.260 2.056 M12.592 4.063 C 14.213 4.396,15.267 5.981,14.937 7.592 C 14.604 9.213,13.017 10.268,11.408 9.936 C 10.226 9.693,9.305 8.773,9.063 7.592 C 8.636 5.507,10.507 3.636,12.592 4.063 M7.260 14.058 C 5.385 14.361,3.851 15.645,3.266 17.401 C 3.046 18.060,3.030 18.203,3.011 19.709 C 2.990 21.329,3.001 21.403,3.298 21.700 C 3.690 22.092,4.309 22.093,4.701 21.701 C 4.984 21.418,5.000 21.323,5.000 19.931 C 5.000 18.981,5.014 18.650,5.063 18.408 C 5.306 17.225,6.224 16.308,7.408 16.064 C 7.679 16.008,8.243 16.000,12.000 16.000 C 16.687 16.000,16.587 15.995,17.161 16.235 C 17.853 16.525,18.475 17.147,18.765 17.839 C 18.969 18.329,19.000 18.601,19.000 19.931 C 19.000 21.323,19.016 21.418,19.299 21.701 C 19.691 22.093,20.310 22.092,20.702 21.700 C 20.999 21.403,21.010 21.329,20.989 19.709 C 20.974 18.570,20.958 18.242,20.902 18.000 C 20.668 16.974,20.249 16.209,19.521 15.477 C 18.798 14.752,18.058 14.346,17.000 14.095 C 16.723 14.029,16.353 14.023,12.140 14.015 C 8.571 14.008,7.510 14.018,7.260 14.058 " stroke="none" fill="black" fill-rule="evenodd"></path></svg>