<svg xmlns="http://www.w3.org/2000/svg" width="24" height="24" viewBox="0 0 24 24" fill="none" stroke="currentColor" stroke-width="2" stroke-linecap="round" stroke-linejoin="round"><path d="M18.760 3.979 C 18.247 4.145,17.965 4.709,18.127 5.248 C 18.158 5.351,18.310 5.558,18.571 5.853 C 19.053 6.395,19.358 6.795,19.652 7.270 C 21.439 10.159,21.439 13.841,19.652 16.730 C 19.357 17.206,19.053 17.605,18.570 18.149 C 18.127 18.648,18.057 18.798,18.088 19.178 C 18.123 19.601,18.447 19.956,18.880 20.046 C 19.065 20.085,19.138 20.081,19.337 20.023 C 19.531 19.966,19.625 19.905,19.853 19.687 C 20.782 18.795,21.807 17.196,22.295 15.876 C 23.643 12.229,23.009 8.186,20.614 5.164 C 20.191 4.631,19.682 4.118,19.490 4.032 C 19.259 3.929,18.978 3.909,18.760 3.979 M10.647 4.072 C 10.540 4.114,9.553 4.877,8.061 6.070 L 5.650 8.000 3.752 8.000 C 1.601 8.000,1.597 8.000,1.299 8.299 C 0.987 8.610,1.000 8.456,1.000 12.000 C 1.000 15.544,0.987 15.390,1.299 15.701 C 1.597 16.000,1.601 16.000,3.752 16.000 L 5.650 16.000 8.035 17.909 C 9.347 18.959,10.489 19.853,10.574 19.895 C 10.940 20.078,11.403 19.999,11.700 19.702 C 12.025 19.377,12.000 20.025,12.000 12.000 C 12.000 3.977,12.025 4.623,11.701 4.299 C 11.421 4.019,11.009 3.931,10.647 4.072 M10.000 12.000 L 10.000 16.921 8.251 15.521 C 7.023 14.538,6.449 14.103,6.324 14.061 C 6.177 14.010,5.874 14.000,4.573 14.000 L 3.000 14.000 3.000 12.000 L 3.000 10.000 4.573 10.000 C 5.874 10.000,6.177 9.990,6.324 9.939 C 6.449 9.897,7.015 9.466,8.241 8.482 C 9.197 7.714,9.985 7.085,9.990 7.083 C 9.995 7.081,10.000 9.294,10.000 12.000 M15.087 7.584 C 14.745 7.754,14.559 8.067,14.561 8.469 C 14.562 8.769,14.652 8.961,14.941 9.283 C 15.399 9.793,15.703 10.353,15.889 11.033 C 15.957 11.282,15.974 11.460,15.976 11.980 C 15.979 12.558,15.968 12.658,15.871 13.008 C 15.687 13.668,15.391 14.207,14.922 14.732 C 14.628 15.062,14.560 15.214,14.561 15.535 C 14.563 16.104,14.975 16.518,15.540 16.518 C 15.869 16.518,16.068 16.418,16.367 16.102 C 17.120 15.307,17.637 14.311,17.889 13.170 C 18.006 12.641,18.015 11.443,17.906 10.901 C 17.689 9.818,17.218 8.857,16.496 8.020 C 16.150 7.619,15.904 7.480,15.541 7.480 C 15.357 7.480,15.243 7.506,15.087 7.584 " stroke="none" fill="black" fill-rule="evenodd"></path></svg>