<svg xmlns="http://www.w3.org/2000/svg" width="24" height="24" viewBox="0 0 24 24" fill="none" stroke="currentColor" stroke-width="2" stroke-linecap="round" stroke-linejoin="round"><path d="M10.511 3.039 C 9.939 3.143,9.365 3.435,8.977 3.819 C 8.755 4.039,8.682 4.141,8.642 4.289 C 8.481 4.877,8.818 5.445,9.400 5.566 C 9.708 5.630,9.986 5.545,10.306 5.288 C 10.444 5.177,10.628 5.071,10.735 5.041 C 11.566 4.809,12.280 5.674,11.890 6.443 C 11.767 6.684,11.524 6.893,11.289 6.958 C 11.190 6.986,9.572 7.000,6.497 7.000 C 1.278 7.000,1.617 6.980,1.299 7.299 C 0.907 7.691,0.908 8.310,1.300 8.702 C 1.621 9.023,1.257 9.004,6.704 8.990 C 11.214 8.978,11.556 8.972,11.780 8.906 C 12.810 8.598,13.570 7.853,13.886 6.840 C 13.965 6.588,13.980 6.454,13.980 6.000 C 13.980 5.409,13.912 5.099,13.681 4.641 C 13.311 3.909,12.578 3.315,11.780 3.100 C 11.498 3.024,10.781 2.989,10.511 3.039 M18.894 6.059 C 18.163 6.192,17.486 6.545,17.032 7.031 C 16.572 7.523,16.655 8.231,17.213 8.576 C 17.586 8.807,18.038 8.760,18.405 8.452 C 18.523 8.353,18.737 8.215,18.880 8.146 C 19.113 8.033,19.177 8.020,19.500 8.021 C 19.804 8.022,19.895 8.038,20.089 8.128 C 20.687 8.406,21.050 9.024,20.985 9.655 C 20.934 10.158,20.575 10.645,20.089 10.873 L 19.860 10.980 10.800 11.000 L 1.740 11.020 1.550 11.114 C 0.948 11.410,0.820 12.222,1.300 12.702 C 1.627 13.029,0.745 13.002,10.962 12.991 L 20.060 12.980 20.378 12.890 C 21.637 12.532,22.548 11.612,22.886 10.356 C 23.013 9.883,23.014 9.122,22.887 8.647 C 22.409 6.858,20.677 5.736,18.894 6.059 M1.643 15.068 C 1.546 15.103,1.392 15.206,1.300 15.298 C 0.820 15.778,0.948 16.590,1.550 16.886 L 1.740 16.980 8.020 17.000 L 14.300 17.020 14.460 17.106 C 15.328 17.575,15.092 18.872,14.119 18.988 C 13.834 19.021,13.587 18.937,13.306 18.712 C 12.986 18.455,12.708 18.370,12.400 18.434 C 11.818 18.555,11.481 19.123,11.642 19.711 C 11.715 19.980,12.149 20.404,12.580 20.627 C 13.113 20.903,13.419 20.978,14.000 20.978 C 14.582 20.978,14.854 20.917,15.341 20.678 C 16.089 20.311,16.624 19.674,16.886 18.839 C 16.965 18.587,16.980 18.455,16.980 18.000 C 16.980 17.546,16.965 17.412,16.886 17.160 C 16.570 16.147,15.811 15.403,14.780 15.094 C 14.554 15.026,14.171 15.022,8.180 15.014 C 2.488 15.006,1.801 15.012,1.643 15.068 " stroke="none" fill="black" fill-rule="evenodd"></path></svg>