<svg xmlns="http://www.w3.org/2000/svg" width="24" height="24" viewBox="0 0 24 24" fill="none" stroke="currentColor" stroke-width="2" stroke-linecap="round" stroke-linejoin="round"><path d="M2.643 5.069 C 2.291 5.193,2.000 5.614,2.000 6.000 C 2.000 6.242,2.119 6.521,2.299 6.701 C 2.625 7.027,1.736 7.000,12.000 7.000 C 22.264 7.000,21.375 7.027,21.701 6.701 C 22.092 6.310,22.092 5.690,21.701 5.299 C 21.375 4.972,22.268 5.000,11.983 5.003 C 3.791 5.006,2.801 5.013,2.643 5.069 M6.643 9.069 C 6.291 9.193,6.000 9.614,6.000 10.000 C 6.000 10.242,6.119 10.521,6.299 10.701 C 6.623 11.025,5.977 11.000,14.000 11.000 C 22.023 11.000,21.377 11.025,21.701 10.701 C 22.092 10.310,22.092 9.690,21.701 9.299 C 21.377 8.975,22.026 9.000,13.983 9.003 C 7.602 9.006,6.801 9.013,6.643 9.069 M2.643 13.069 C 2.291 13.193,2.000 13.614,2.000 14.000 C 2.000 14.242,2.119 14.521,2.299 14.701 C 2.625 15.027,1.736 15.000,12.000 15.000 C 22.264 15.000,21.375 15.027,21.701 14.701 C 22.092 14.310,22.092 13.690,21.701 13.299 C 21.375 12.972,22.268 13.000,11.983 13.003 C 3.791 13.006,2.801 13.013,2.643 13.069 M6.643 17.069 C 6.291 17.193,6.000 17.614,6.000 18.000 C 6.000 18.242,6.119 18.521,6.299 18.701 C 6.623 19.025,5.977 19.000,14.000 19.000 C 22.023 19.000,21.377 19.025,21.701 18.701 C 22.092 18.310,22.092 17.690,21.701 17.299 C 21.377 16.975,22.026 17.000,13.983 17.003 C 7.602 17.006,6.801 17.013,6.643 17.069 " stroke="none" fill="black" fill-rule="evenodd"></path></svg>