<svg xmlns="http://www.w3.org/2000/svg" width="24" height="24" viewBox="0 0 24 24" fill="none" stroke="currentColor" stroke-width="2" stroke-linecap="round" stroke-linejoin="round"><path d="M11.160 1.025 C 8.423 1.284,6.155 2.330,4.276 4.199 C 3.596 4.877,3.307 5.220,2.880 5.858 C 1.947 7.250,1.375 8.725,1.112 10.420 C 0.996 11.171,0.986 12.730,1.093 13.460 C 1.383 15.430,2.055 17.054,3.236 18.640 C 3.632 19.173,4.693 20.256,5.200 20.647 C 6.758 21.846,8.392 22.552,10.380 22.885 C 11.085 23.003,12.728 23.014,13.460 22.907 C 15.412 22.620,17.094 21.925,18.637 20.769 C 19.144 20.389,20.194 19.369,20.596 18.867 C 20.938 18.438,21.467 17.627,21.735 17.119 C 22.317 16.016,22.714 14.776,22.906 13.460 C 23.004 12.787,23.004 11.210,22.906 10.540 C 22.610 8.525,21.881 6.803,20.647 5.200 C 20.259 4.697,19.173 3.633,18.637 3.231 C 17.151 2.118,15.590 1.452,13.723 1.136 C 13.256 1.057,12.962 1.035,12.240 1.023 C 11.745 1.015,11.259 1.016,11.160 1.025 M11.327 3.170 C 11.238 3.316,8.476 8.097,7.688 9.469 C 7.521 9.760,7.381 9.994,7.376 9.989 C 7.371 9.984,6.871 9.119,6.264 8.067 L 5.160 6.155 5.390 5.897 C 6.488 4.667,8.253 3.632,9.915 3.243 C 10.394 3.131,10.921 3.049,11.193 3.044 L 11.407 3.040 11.327 3.170 M14.140 3.257 C 16.200 3.759,18.087 5.041,19.337 6.790 L 19.488 7.000 15.464 7.000 C 13.251 7.000,11.440 6.993,11.440 6.984 C 11.440 6.968,13.411 3.544,13.567 3.290 C 13.611 3.219,13.668 3.160,13.693 3.160 C 13.719 3.160,13.920 3.204,14.140 3.257 M5.960 11.540 C 7.001 13.344,7.879 14.861,7.911 14.910 L 7.970 15.001 5.737 14.990 L 3.504 14.980 3.392 14.629 C 3.155 13.887,3.000 12.844,3.000 12.000 C 3.000 10.783,3.295 9.395,3.777 8.342 L 3.923 8.024 3.995 8.142 C 4.034 8.207,4.918 9.736,5.960 11.540 M14.580 10.462 C 15.042 11.266,15.420 11.957,15.420 12.000 C 15.420 12.043,15.042 12.734,14.580 13.538 L 13.740 14.998 12.000 14.998 L 10.260 14.998 9.420 13.538 C 8.958 12.734,8.580 12.043,8.580 12.001 C 8.580 11.959,8.958 11.267,9.420 10.463 L 10.260 9.002 12.000 9.002 L 13.740 9.002 14.580 10.462 M20.610 9.380 C 21.146 11.097,21.122 13.063,20.544 14.811 C 20.376 15.321,20.095 15.990,20.064 15.956 C 20.051 15.942,18.835 13.841,17.752 11.960 C 16.823 10.347,16.143 9.173,16.089 9.090 L 16.030 8.999 18.264 9.010 L 20.497 9.020 20.610 9.380 M17.736 15.933 L 18.840 17.845 18.610 18.103 C 18.184 18.580,17.571 19.098,16.920 19.530 C 15.794 20.278,14.188 20.850,12.943 20.945 L 12.585 20.973 12.669 20.836 C 12.772 20.666,15.231 16.410,16.392 14.391 C 16.515 14.177,16.619 14.006,16.624 14.011 C 16.629 14.016,17.129 14.881,17.736 15.933 M12.560 17.016 C 12.560 17.042,10.398 20.777,10.361 20.815 C 10.312 20.864,9.793 20.743,9.160 20.534 C 7.391 19.952,5.761 18.747,4.663 17.210 L 4.512 17.000 8.536 17.000 C 10.749 17.000,12.560 17.007,12.560 17.016 " stroke="none" fill="black" fill-rule="evenodd"></path></svg>