<svg xmlns="http://www.w3.org/2000/svg" width="24" height="24" viewBox="0 0 24 24" fill="none" stroke="currentColor" stroke-width="2" stroke-linecap="round" stroke-linejoin="round"><path d="M11.643 4.069 C 11.291 4.193,11.000 4.614,11.000 5.000 C 11.000 5.080,11.029 5.234,11.065 5.343 C 11.124 5.522,11.377 5.788,13.854 8.270 L 16.579 11.000 10.716 11.000 C 4.131 11.000,4.621 10.977,4.299 11.299 C 3.908 11.690,3.908 12.310,4.299 12.701 C 4.621 13.023,4.131 13.000,10.716 13.000 L 16.579 13.000 13.854 15.730 C 11.377 18.212,11.124 18.478,11.065 18.657 C 10.936 19.047,11.021 19.423,11.299 19.701 C 11.577 19.979,11.953 20.063,12.343 19.935 C 12.523 19.876,12.852 19.559,16.174 16.245 C 20.119 12.310,19.999 12.443,19.999 12.000 C 19.999 11.557,20.119 11.690,16.174 7.755 C 12.852 4.441,12.523 4.124,12.343 4.065 C 12.101 3.985,11.876 3.987,11.643 4.069 " stroke="none" fill="black" fill-rule="evenodd"></path></svg>