<svg xmlns="http://www.w3.org/2000/svg" width="24" height="24" viewBox="0 0 24 24" fill="none" stroke="currentColor" stroke-width="2" stroke-linecap="round" stroke-linejoin="round"><path d="M6.580 6.095 C 6.340 6.209,6.193 6.358,6.083 6.600 C 6.003 6.778,6.002 6.835,6.001 11.963 C 6.000 17.787,5.979 17.381,6.299 17.701 C 6.690 18.092,7.310 18.092,7.701 17.701 C 8.016 17.386,8.000 17.629,8.000 13.283 L 8.000 9.421 12.230 13.646 C 16.109 17.520,16.476 17.876,16.657 17.935 C 17.047 18.063,17.423 17.979,17.701 17.701 C 17.979 17.423,18.063 17.047,17.935 16.657 C 17.876 16.476,17.520 16.109,13.646 12.230 L 9.421 8.000 13.283 8.000 C 17.629 8.000,17.386 8.016,17.701 7.701 C 18.092 7.310,18.092 6.690,17.701 6.299 C 17.381 5.979,17.787 6.000,11.963 6.000 L 6.780 6.001 6.580 6.095 " stroke="none" fill="black" fill-rule="evenodd"></path></svg>