<svg xmlns="http://www.w3.org/2000/svg" width="24" height="24" viewBox="0 0 24 24" fill="none" stroke="currentColor" stroke-width="2" stroke-linecap="round" stroke-linejoin="round"><path d="M2.620 5.025 C 2.212 5.105,2.087 5.139,1.870 5.227 C 0.989 5.585,0.321 6.364,0.076 7.320 C -0.007 7.645,-0.008 16.353,0.076 16.677 C 0.357 17.776,1.117 18.553,2.260 18.915 C 2.439 18.971,3.243 18.979,9.820 18.990 C 14.818 18.998,17.268 18.989,17.453 18.960 C 18.643 18.777,19.620 17.876,19.924 16.680 C 20.007 16.354,20.007 7.646,19.924 7.323 C 19.617 6.126,18.660 5.233,17.480 5.043 C 17.234 5.003,2.819 4.986,2.620 5.025 M17.340 7.066 C 17.455 7.105,17.603 7.201,17.701 7.299 C 18.018 7.616,18.000 7.337,18.000 12.000 C 18.000 16.663,18.018 16.384,17.701 16.701 C 17.377 17.025,18.023 17.000,10.000 17.000 C 1.975 17.000,2.623 17.025,2.298 16.700 C 1.980 16.382,1.997 16.669,2.009 11.918 L 2.020 7.700 2.131 7.511 C 2.256 7.298,2.449 7.136,2.670 7.057 C 2.793 7.013,4.104 7.003,9.983 7.002 C 16.548 7.000,17.162 7.006,17.340 7.066 M22.643 10.069 C 22.407 10.152,22.149 10.416,22.066 10.660 C 21.968 10.948,21.968 13.052,22.066 13.340 C 22.192 13.709,22.604 14.000,23.000 14.000 C 23.396 14.000,23.808 13.709,23.934 13.340 C 24.032 13.052,24.032 10.948,23.934 10.660 C 23.761 10.152,23.172 9.882,22.643 10.069 " stroke="none" fill="black" fill-rule="evenodd"></path></svg>