<svg xmlns="http://www.w3.org/2000/svg" width="24" height="24" viewBox="0 0 24 24" fill="none" stroke="currentColor" stroke-width="2" stroke-linecap="round" stroke-linejoin="round"><path d="M0.643 0.069 C 0.291 0.193,-0.000 0.614,0.000 1.000 C 0.000 1.080,0.029 1.234,0.065 1.343 C 0.124 1.522,0.365 1.776,2.639 4.060 L 5.148 6.580 5.095 6.860 C 5.066 7.014,5.023 7.653,5.001 8.280 C 4.902 11.065,4.545 12.796,3.737 14.409 C 3.400 15.083,3.081 15.527,2.579 16.026 C 2.223 16.379,2.117 16.511,2.065 16.663 C 1.936 17.043,2.021 17.423,2.299 17.701 C 2.623 18.025,2.011 18.000,9.717 18.000 L 16.579 18.000 19.519 20.935 C 22.198 23.608,22.478 23.876,22.657 23.935 C 23.047 24.064,23.423 23.979,23.702 23.700 C 24.005 23.397,24.078 22.947,23.887 22.556 C 23.824 22.426,20.869 19.449,12.671 11.255 C 2.368 0.957,1.525 0.125,1.343 0.065 C 1.101 -0.015,0.876 -0.013,0.643 0.069 M11.018 1.062 C 10.107 1.195,9.183 1.521,8.420 1.979 C 8.008 2.226,7.891 2.335,7.775 2.580 C 7.481 3.204,7.888 3.917,8.579 3.988 C 8.845 4.016,8.994 3.966,9.451 3.696 C 10.620 3.005,12.070 2.814,13.351 3.184 C 14.223 3.435,14.826 3.790,15.485 4.440 C 16.561 5.501,16.999 6.620,17.000 8.305 C 17.001 9.780,17.184 11.281,17.540 12.750 C 17.616 13.064,17.713 13.388,17.756 13.470 C 18.107 14.153,19.125 14.167,19.487 13.494 C 19.664 13.166,19.663 13.048,19.486 12.295 C 19.156 10.893,19.050 10.032,19.001 8.360 C 18.962 7.059,18.917 6.706,18.694 5.960 C 18.533 5.424,18.140 4.585,17.838 4.135 C 16.699 2.439,14.963 1.344,12.960 1.061 C 12.452 0.989,11.513 0.989,11.018 1.062 M10.800 12.220 L 14.580 16.000 9.872 16.000 L 5.164 16.000 5.422 15.507 C 6.368 13.695,6.840 11.708,6.982 8.950 C 6.996 8.670,7.011 8.440,7.014 8.440 C 7.017 8.440,8.721 10.141,10.800 12.220 M10.000 20.035 C 9.557 20.179,9.283 20.549,9.281 21.004 C 9.280 21.349,9.453 21.660,9.897 22.104 C 10.204 22.413,10.318 22.497,10.640 22.654 C 11.164 22.910,11.442 22.976,12.000 22.976 C 12.558 22.976,12.836 22.910,13.360 22.654 C 13.682 22.497,13.796 22.413,14.103 22.104 C 14.689 21.518,14.848 21.067,14.637 20.600 C 14.461 20.212,14.170 20.024,13.740 20.022 C 13.319 20.019,13.125 20.136,12.789 20.598 C 12.412 21.114,11.588 21.114,11.211 20.598 C 11.008 20.319,10.866 20.181,10.696 20.100 C 10.525 20.018,10.158 19.984,10.000 20.035 " stroke="none" fill="black" fill-rule="evenodd"></path></svg>