<svg xmlns="http://www.w3.org/2000/svg" width="24" height="24" viewBox="0 0 24 24" fill="none" stroke="currentColor" stroke-width="2" stroke-linecap="round" stroke-linejoin="round"><path d="M7.643 1.069 C 7.546 1.103,7.392 1.206,7.300 1.298 C 7.052 1.546,7.000 1.741,7.000 2.424 L 7.000 2.993 5.730 3.011 C 4.743 3.024,4.415 3.042,4.260 3.089 C 3.122 3.437,2.359 4.216,2.076 5.320 C 1.993 5.647,1.992 20.351,2.076 20.677 C 2.357 21.776,3.117 22.553,4.260 22.915 C 4.439 22.971,5.243 22.979,11.820 22.990 C 16.818 22.998,19.268 22.989,19.453 22.960 C 20.643 22.777,21.620 21.876,21.924 20.680 C 22.007 20.352,22.008 5.648,21.924 5.323 C 21.617 4.126,20.660 3.233,19.480 3.043 C 19.337 3.020,18.721 3.000,18.110 3.000 L 17.000 3.000 17.000 2.427 C 17.000 1.741,16.948 1.546,16.701 1.299 C 16.310 0.908,15.690 0.908,15.299 1.299 C 15.052 1.546,15.000 1.741,15.000 2.427 L 15.000 3.000 12.000 3.000 L 9.000 3.000 9.000 2.427 C 9.000 1.741,8.948 1.546,8.701 1.299 C 8.424 1.021,8.024 0.934,7.643 1.069 M7.000 5.573 C 7.000 6.259,7.052 6.454,7.299 6.701 C 7.690 7.092,8.310 7.092,8.701 6.701 C 8.948 6.454,9.000 6.259,9.000 5.573 L 9.000 5.000 12.000 5.000 L 15.000 5.000 15.000 5.573 C 15.000 6.259,15.052 6.454,15.299 6.701 C 15.690 7.092,16.310 7.092,16.701 6.701 C 16.948 6.454,17.000 6.259,17.000 5.573 L 17.000 5.000 18.073 5.000 C 19.308 5.000,19.423 5.021,19.701 5.299 C 19.994 5.591,20.000 5.638,20.000 7.427 L 20.000 9.000 11.998 9.000 L 3.997 9.000 4.008 7.350 L 4.020 5.700 4.131 5.511 C 4.192 5.408,4.304 5.275,4.381 5.217 C 4.643 5.017,4.738 5.004,5.910 5.002 L 7.000 5.000 7.000 5.573 M20.000 15.573 C 20.000 20.714,20.019 20.383,19.701 20.701 C 19.377 21.025,20.023 21.000,12.000 21.000 C 3.977 21.000,4.623 21.025,4.299 20.701 C 3.981 20.383,4.000 20.714,4.000 15.573 L 4.000 11.000 12.000 11.000 L 20.000 11.000 20.000 15.573 " stroke="none" fill="black" fill-rule="evenodd"></path></svg>