<svg xmlns="http://www.w3.org/2000/svg" width="24" height="24" viewBox="0 0 24 24" fill="none" stroke="currentColor" stroke-width="2" stroke-linecap="round" stroke-linejoin="round"><path d="M5.643 8.069 C 5.291 8.193,5.000 8.614,5.000 9.000 C 5.000 9.080,5.029 9.234,5.065 9.343 C 5.124 9.523,5.405 9.816,8.255 12.671 C 10.509 14.929,11.429 15.826,11.556 15.887 C 11.800 16.006,12.065 16.024,12.326 15.940 C 12.529 15.874,12.701 15.710,15.671 12.745 C 17.929 10.492,18.826 9.571,18.887 9.444 C 19.078 9.053,19.005 8.602,18.702 8.300 C 18.423 8.021,18.047 7.936,17.657 8.065 C 17.478 8.124,17.212 8.377,14.730 10.854 L 12.000 13.579 9.270 10.854 C 6.788 8.377,6.522 8.124,6.343 8.065 C 6.101 7.985,5.876 7.986,5.643 8.069 " stroke="none" fill="black" fill-rule="evenodd"></path></svg>