<svg xmlns="http://www.w3.org/2000/svg" width="24" height="24" viewBox="0 0 24 24" fill="none" stroke="currentColor" stroke-width="2" stroke-linecap="round" stroke-linejoin="round"><path d="M5.643 6.069 C 5.291 6.193,5.000 6.614,5.000 7.000 C 5.000 7.080,5.029 7.234,5.065 7.343 C 5.124 7.521,5.343 7.753,7.354 9.770 L 9.578 12.000 7.354 14.230 C 5.343 16.247,5.124 16.479,5.065 16.657 C 4.936 17.047,5.021 17.423,5.300 17.702 C 5.602 18.005,6.053 18.078,6.444 17.887 C 6.570 17.826,7.363 17.058,9.245 15.171 C 11.726 12.685,11.874 12.528,11.940 12.326 C 12.024 12.065,12.006 11.800,11.887 11.556 C 11.826 11.430,11.058 10.637,9.171 8.755 C 6.781 6.371,6.522 6.124,6.343 6.065 C 6.101 5.985,5.876 5.986,5.643 6.069 M12.643 6.069 C 12.291 6.193,12.000 6.614,12.000 7.000 C 12.000 7.080,12.029 7.234,12.065 7.343 C 12.124 7.521,12.343 7.753,14.354 9.770 L 16.578 12.000 14.354 14.230 C 12.343 16.247,12.124 16.479,12.065 16.657 C 11.936 17.047,12.021 17.423,12.300 17.702 C 12.602 18.005,13.053 18.078,13.444 17.887 C 13.570 17.826,14.363 17.058,16.245 15.171 C 18.726 12.685,18.874 12.528,18.940 12.326 C 19.024 12.065,19.006 11.800,18.887 11.556 C 18.826 11.430,18.058 10.637,16.171 8.755 C 13.781 6.371,13.522 6.124,13.343 6.065 C 13.101 5.985,12.876 5.986,12.643 6.069 " stroke="none" fill="black" fill-rule="evenodd"></path></svg>