<svg xmlns="http://www.w3.org/2000/svg" width="24" height="24" viewBox="0 0 24 24" fill="none" stroke="currentColor" stroke-width="2" stroke-linecap="round" stroke-linejoin="round"><path d="M11.640 5.068 C 11.485 5.121,11.095 5.494,8.829 7.755 C 6.942 9.637,6.174 10.430,6.113 10.556 C 5.922 10.947,5.995 11.398,6.298 11.700 C 6.577 11.979,6.953 12.064,7.343 11.935 C 7.521 11.876,7.753 11.657,9.770 9.646 L 12.000 7.422 14.230 9.646 C 16.247 11.657,16.479 11.876,16.657 11.935 C 17.047 12.064,17.423 11.979,17.702 11.700 C 18.005 11.398,18.078 10.947,17.887 10.556 C 17.826 10.430,17.058 9.637,15.171 7.755 C 12.781 5.371,12.522 5.124,12.343 5.065 C 12.102 4.986,11.878 4.986,11.640 5.068 M11.640 12.068 C 11.485 12.121,11.095 12.494,8.829 14.755 C 6.942 16.637,6.174 17.430,6.113 17.556 C 5.922 17.947,5.995 18.398,6.298 18.700 C 6.577 18.979,6.953 19.064,7.343 18.935 C 7.521 18.876,7.753 18.657,9.770 16.646 L 12.000 14.422 14.230 16.646 C 16.247 18.657,16.479 18.876,16.657 18.935 C 17.047 19.064,17.423 18.979,17.702 18.700 C 18.005 18.398,18.078 17.947,17.887 17.556 C 17.826 17.430,17.058 16.637,15.171 14.755 C 12.781 12.371,12.522 12.124,12.343 12.065 C 12.102 11.986,11.878 11.986,11.640 12.068 " stroke="none" fill="black" fill-rule="evenodd"></path></svg>