<svg xmlns="http://www.w3.org/2000/svg" width="24" height="24" viewBox="0 0 24 24" fill="none" stroke="currentColor" stroke-width="2" stroke-linecap="round" stroke-linejoin="round"><path d="M0.643 0.069 C 0.291 0.193,-0.000 0.614,0.000 1.000 C 0.000 1.080,0.029 1.234,0.065 1.343 C 0.124 1.519,0.304 1.714,1.775 3.191 L 3.420 4.842 3.280 4.951 C 1.786 6.110,0.687 7.811,0.134 9.820 L 0.024 10.220 0.010 11.901 L -0.004 13.582 0.154 14.201 C 0.455 15.382,0.945 16.417,1.652 17.368 C 3.162 19.399,5.497 20.712,8.040 20.960 C 8.361 20.991,10.048 21.001,13.620 20.992 C 18.375 20.980,18.764 20.974,19.076 20.907 L 19.412 20.835 20.936 22.352 C 22.295 23.705,22.481 23.876,22.657 23.935 C 23.047 24.064,23.423 23.979,23.702 23.700 C 24.005 23.397,24.078 22.947,23.887 22.556 C 23.824 22.426,20.869 19.449,12.671 11.255 C 2.368 0.957,1.525 0.125,1.343 0.065 C 1.101 -0.015,0.876 -0.013,0.643 0.069 M9.380 3.049 C 9.147 3.132,8.938 3.310,8.820 3.526 C 8.521 4.076,8.803 4.770,9.400 4.951 C 9.477 4.974,9.657 5.005,9.800 5.019 C 10.204 5.058,10.942 5.233,11.360 5.388 C 12.440 5.789,13.251 6.323,14.054 7.161 C 14.848 7.989,15.380 8.927,15.741 10.134 C 15.860 10.529,16.017 10.743,16.297 10.892 C 16.448 10.972,16.539 10.980,17.540 11.004 C 18.522 11.027,18.655 11.038,19.005 11.131 C 20.704 11.581,21.897 13.041,21.988 14.783 C 22.018 15.352,21.957 15.773,21.757 16.371 C 21.579 16.903,21.575 16.942,21.664 17.243 C 21.805 17.716,22.319 18.026,22.797 17.927 C 23.237 17.835,23.434 17.620,23.661 16.987 C 23.913 16.281,23.977 15.881,23.977 15.000 C 23.977 14.344,23.962 14.155,23.888 13.812 C 23.363 11.396,21.537 9.587,19.144 9.113 C 18.914 9.068,18.467 9.022,18.107 9.007 L 17.473 8.980 17.342 8.640 C 16.329 6.018,13.984 3.958,11.216 3.257 C 10.679 3.122,9.914 2.998,9.649 3.003 C 9.567 3.005,9.446 3.026,9.380 3.049 M11.220 12.640 L 17.580 19.000 13.000 18.999 C 8.140 18.998,8.028 18.995,7.235 18.805 C 4.921 18.254,2.976 16.472,2.248 14.240 C 1.981 13.421,1.881 12.815,1.881 12.000 C 1.881 9.846,2.839 7.866,4.540 6.506 C 4.694 6.382,4.829 6.281,4.840 6.281 C 4.851 6.280,7.722 9.142,11.220 12.640 " stroke="none" fill="black" fill-rule="evenodd"></path></svg>