<svg xmlns="http://www.w3.org/2000/svg" width="24" height="24" viewBox="0 0 24 24" fill="none" stroke="currentColor" stroke-width="2" stroke-linecap="round" stroke-linejoin="round"><path d="M8.580 3.096 C 8.420 3.172,7.850 3.724,5.755 5.826 C 3.372 8.217,3.124 8.478,3.065 8.657 C 2.936 9.047,3.021 9.423,3.299 9.701 C 3.577 9.979,3.954 10.064,4.343 9.935 C 4.520 9.876,4.719 9.691,6.269 8.147 L 7.998 6.424 8.011 11.562 C 8.023 16.324,8.029 16.722,8.095 17.000 C 8.344 18.050,8.755 18.800,9.478 19.522 C 10.201 20.245,10.953 20.657,12.000 20.905 C 12.274 20.970,12.636 20.977,16.215 20.989 C 20.632 21.005,20.381 21.021,20.700 20.702 C 21.092 20.310,21.093 19.691,20.701 19.299 C 20.386 18.984,20.612 19.000,16.431 19.000 C 12.356 19.000,12.405 19.003,11.831 18.759 C 11.133 18.462,10.525 17.853,10.235 17.161 C 9.993 16.581,10.000 16.751,10.000 11.353 L 10.000 6.422 11.730 8.146 C 13.281 9.691,13.480 9.876,13.657 9.935 C 14.046 10.064,14.423 9.979,14.701 9.701 C 14.979 9.423,15.064 9.047,14.935 8.657 C 14.876 8.478,14.628 8.217,12.245 5.826 C 9.391 2.962,9.436 3.001,9.000 3.001 C 8.851 3.001,8.716 3.031,8.580 3.096 " stroke="none" fill="black" fill-rule="evenodd"></path></svg>