<svg xmlns="http://www.w3.org/2000/svg" width="24" height="24" viewBox="0 0 24 24" fill="none" stroke="currentColor" stroke-width="2" stroke-linecap="round" stroke-linejoin="round"><path d="M10.740 1.027 C 8.461 1.137,6.374 1.518,4.859 2.100 C 3.214 2.733,2.259 3.578,2.045 4.592 C 1.982 4.888,1.981 19.104,2.044 19.408 C 2.068 19.525,2.159 19.771,2.248 19.956 C 2.594 20.681,3.502 21.374,4.760 21.872 C 6.039 22.378,7.836 22.746,9.920 22.928 C 10.798 23.005,13.397 22.992,14.320 22.906 C 17.989 22.566,20.547 21.651,21.530 20.326 C 21.722 20.066,21.894 19.695,21.955 19.408 C 22.019 19.107,22.019 4.893,21.955 4.592 C 21.891 4.290,21.714 3.919,21.504 3.646 C 20.416 2.231,17.438 1.264,13.480 1.041 C 12.847 1.005,11.349 0.997,10.740 1.027 M14.060 3.079 C 16.486 3.297,18.547 3.837,19.530 4.513 C 19.717 4.642,20.000 4.935,20.000 5.000 C 20.000 5.064,19.719 5.357,19.540 5.480 C 18.533 6.173,16.530 6.694,13.980 6.928 C 13.140 7.005,10.679 6.993,9.799 6.907 C 7.680 6.701,6.079 6.320,4.934 5.750 C 4.577 5.573,4.205 5.298,4.066 5.110 L 3.984 5.000 4.066 4.890 C 4.639 4.114,6.846 3.398,9.520 3.120 C 10.669 3.000,12.952 2.980,14.060 3.079 M4.857 7.900 C 8.294 9.228,14.233 9.367,18.220 8.213 C 18.736 8.063,19.461 7.792,19.794 7.623 L 20.000 7.519 20.000 9.780 L 20.000 12.042 19.834 12.222 C 18.900 13.235,15.533 13.999,12.000 13.999 C 8.474 13.999,5.098 13.233,4.166 12.222 L 4.000 12.042 4.000 9.780 L 4.000 7.519 4.207 7.624 C 4.321 7.681,4.613 7.806,4.857 7.900 M4.778 14.879 C 6.038 15.378,7.848 15.747,9.920 15.928 C 10.798 16.005,13.397 15.992,14.320 15.906 C 16.455 15.708,18.185 15.325,19.515 14.755 C 19.765 14.648,19.977 14.560,19.985 14.560 C 19.993 14.560,20.000 15.568,20.000 16.801 L 20.000 19.042 19.834 19.222 C 18.900 20.235,15.533 20.999,12.000 20.999 C 8.474 20.999,5.098 20.233,4.166 19.222 L 4.000 19.042 4.000 16.784 L 4.000 14.527 4.248 14.647 C 4.385 14.713,4.623 14.818,4.778 14.879 " stroke="none" fill="black" fill-rule="evenodd"></path></svg>