<svg xmlns="http://www.w3.org/2000/svg" width="24" height="24" viewBox="0 0 24 24" fill="none" stroke="currentColor" stroke-width="2" stroke-linecap="round" stroke-linejoin="round"><path d="M7.655 3.065 C 7.564 3.097,7.425 3.181,7.346 3.252 C 7.268 3.322,5.612 5.202,3.665 7.429 C 0.595 10.942,0.118 11.506,0.059 11.684 C -0.023 11.929,-0.006 12.205,0.105 12.429 C 0.148 12.516,1.800 14.434,3.775 16.691 C 6.813 20.163,7.395 20.810,7.553 20.888 L 7.740 20.980 14.460 20.991 C 18.960 20.998,21.270 20.988,21.452 20.960 C 22.647 20.777,23.618 19.882,23.924 18.680 C 24.007 18.353,24.008 5.647,23.924 5.323 C 23.617 4.126,22.660 3.234,21.476 3.042 C 21.306 3.015,18.975 3.002,14.520 3.003 C 8.740 3.006,7.797 3.014,7.655 3.065 M21.340 5.066 C 21.455 5.105,21.603 5.201,21.701 5.299 C 22.023 5.621,22.000 5.097,22.000 12.000 C 22.000 18.903,22.023 18.379,21.701 18.701 C 21.378 19.024,21.927 19.000,14.800 19.000 L 8.455 19.000 5.419 15.530 C 3.749 13.622,2.383 12.033,2.383 12.000 C 2.383 11.967,3.749 10.378,5.419 8.470 L 8.455 5.000 14.800 5.000 C 20.602 5.000,21.162 5.006,21.340 5.066 M11.643 8.069 C 11.291 8.193,11.000 8.614,11.000 9.000 C 11.000 9.080,11.030 9.234,11.066 9.343 C 11.123 9.517,11.276 9.685,12.354 10.770 L 13.577 12.000 12.354 13.230 C 11.276 14.315,11.123 14.483,11.066 14.657 C 10.936 15.046,11.021 15.423,11.299 15.701 C 11.577 15.979,11.954 16.064,12.343 15.934 C 12.517 15.877,12.685 15.724,13.770 14.646 L 15.000 13.423 16.230 14.646 C 17.315 15.724,17.483 15.877,17.657 15.934 C 18.046 16.064,18.423 15.979,18.701 15.701 C 18.979 15.423,19.064 15.046,18.934 14.657 C 18.877 14.483,18.724 14.315,17.646 13.230 L 16.423 12.000 17.646 10.770 C 18.724 9.685,18.877 9.517,18.934 9.343 C 19.064 8.954,18.979 8.577,18.701 8.299 C 18.423 8.021,18.046 7.936,17.657 8.066 C 17.483 8.123,17.315 8.276,16.230 9.354 L 15.000 10.577 13.770 9.354 C 12.685 8.276,12.517 8.123,12.343 8.066 C 12.102 7.985,11.877 7.986,11.643 8.069 " stroke="none" fill="black" fill-rule="evenodd"></path></svg>