<svg xmlns="http://www.w3.org/2000/svg" width="24" height="24" viewBox="0 0 24 24" fill="none" stroke="currentColor" stroke-width="2" stroke-linecap="round" stroke-linejoin="round"><path d="M11.643 2.069 C 11.546 2.103,11.392 2.206,11.300 2.298 C 10.980 2.618,11.000 2.250,11.000 7.716 L 11.000 12.578 9.270 10.854 C 7.719 9.309,7.520 9.124,7.343 9.065 C 6.954 8.936,6.577 9.021,6.299 9.299 C 6.021 9.577,5.936 9.953,6.065 10.343 C 6.124 10.522,6.372 10.783,8.755 13.174 C 11.609 16.038,11.564 15.999,12.000 15.999 C 12.436 15.999,12.391 16.038,15.245 13.174 C 17.628 10.783,17.876 10.522,17.935 10.343 C 18.064 9.953,17.979 9.577,17.701 9.299 C 17.423 9.021,17.046 8.936,16.657 9.065 C 16.480 9.124,16.281 9.309,14.730 10.854 L 13.000 12.578 13.000 7.716 C 13.000 2.251,13.020 2.618,12.701 2.299 C 12.424 2.021,12.024 1.934,11.643 2.069 M2.643 14.069 C 2.402 14.154,2.147 14.418,2.063 14.670 C 2.002 14.853,1.997 15.101,2.010 17.207 C 2.023 19.186,2.034 19.570,2.088 19.740 C 2.440 20.864,3.134 21.559,4.260 21.915 C 4.439 21.971,5.243 21.979,11.820 21.990 C 16.818 21.998,19.268 21.989,19.453 21.960 C 20.467 21.804,21.358 21.109,21.759 20.160 C 21.980 19.636,21.974 19.712,21.990 17.207 C 22.006 14.558,22.011 14.609,21.702 14.300 C 21.310 13.908,20.691 13.907,20.299 14.299 C 19.997 14.601,20.000 14.573,20.000 17.000 C 20.000 19.427,20.003 19.399,19.701 19.701 C 19.377 20.025,20.023 20.000,12.000 20.000 C 3.977 20.000,4.623 20.025,4.299 19.701 C 3.997 19.399,4.000 19.427,4.000 17.000 C 4.000 14.573,4.003 14.601,3.701 14.299 C 3.424 14.021,3.024 13.934,2.643 14.069 " stroke="none" fill="black" fill-rule="evenodd"></path></svg>