<svg width="24" height="24" viewBox="0 0 24 24" xmlns="http://www.w3.org/2000/svg" fill="none" stroke="currentColor" stroke-width="2" stroke-linecap="round" stroke-linejoin="round"><path d="M19.560 0.905 C 19.059 1.002,18.590 1.190,18.200 1.451 C 17.909 1.645,8.211 11.353,8.121 11.540 C 8.025 11.739,7.000 15.829,7.000 16.012 C 7.000 16.521,7.479 17.000,7.988 17.000 C 8.171 17.000,12.261 15.975,12.460 15.879 C 12.647 15.789,22.355 6.091,22.549 5.800 C 22.744 5.508,22.913 5.145,23.009 4.812 C 23.137 4.366,23.136 3.631,23.007 3.182 C 22.697 2.103,21.850 1.264,20.780 0.978 C 20.543 0.915,19.754 0.867,19.560 0.905 M20.359 2.943 C 20.655 3.031,20.969 3.345,21.057 3.641 C 21.137 3.910,21.137 4.088,21.057 4.363 C 20.995 4.575,20.883 4.691,16.236 9.341 L 11.479 14.102 10.458 14.356 C 9.896 14.496,9.426 14.599,9.413 14.587 C 9.401 14.574,9.504 14.104,9.644 13.542 L 9.898 12.521 14.659 7.767 C 19.091 3.340,19.434 3.008,19.620 2.949 C 19.879 2.866,20.094 2.865,20.359 2.943 M3.620 3.025 C 3.212 3.105,3.087 3.139,2.870 3.227 C 1.989 3.585,1.321 4.364,1.076 5.320 C 0.993 5.647,0.992 20.351,1.076 20.677 C 1.357 21.773,2.119 22.554,3.260 22.915 C 3.439 22.971,4.243 22.979,10.820 22.990 C 15.818 22.998,18.268 22.989,18.453 22.960 C 19.467 22.804,20.358 22.109,20.759 21.160 C 20.988 20.617,20.976 20.858,20.990 16.704 C 21.004 12.377,21.020 12.618,20.702 12.300 C 20.310 11.908,19.691 11.907,19.299 12.299 C 18.985 12.613,19.000 12.396,19.000 16.500 C 19.000 20.604,19.015 20.387,18.701 20.701 C 18.377 21.025,19.023 21.000,11.000 21.000 C 2.977 21.000,3.623 21.025,3.299 20.701 C 2.975 20.377,3.000 21.026,3.002 12.983 C 3.003 7.104,3.013 5.793,3.057 5.670 C 3.136 5.449,3.298 5.256,3.511 5.131 L 3.700 5.020 7.480 5.000 L 11.260 4.980 11.450 4.886 C 12.051 4.590,12.180 3.778,11.701 3.299 C 11.386 2.984,11.614 2.999,7.423 3.005 C 5.375 3.007,3.664 3.016,3.620 3.025 " stroke="none" fill="black" fill-rule="evenodd"></path></svg>