<svg xmlns="http://www.w3.org/2000/svg" width="24" height="24" viewBox="0 0 24 24" fill="none" stroke="currentColor" stroke-width="2" stroke-linecap="round" stroke-linejoin="round"><path d="M5.620 1.025 C 5.212 1.105,5.087 1.139,4.870 1.227 C 3.989 1.585,3.321 2.364,3.076 3.320 C 2.993 3.647,2.992 20.350,3.076 20.677 C 3.357 21.773,4.120 22.555,5.260 22.915 C 5.438 22.971,6.160 22.979,11.820 22.990 C 16.126 22.998,18.268 22.989,18.453 22.960 C 19.467 22.804,20.358 22.109,20.759 21.160 C 20.993 20.605,20.977 21.105,20.990 14.180 C 21.001 8.353,20.997 7.805,20.936 7.640 C 20.881 7.488,20.377 6.966,17.646 4.230 L 14.421 1.000 10.060 1.005 C 7.662 1.007,5.664 1.016,5.620 1.025 M13.000 5.573 C 13.000 8.477,12.992 8.394,13.299 8.701 C 13.606 9.008,13.523 9.000,16.427 9.000 L 19.000 9.000 19.000 14.573 C 19.000 20.834,19.022 20.380,18.701 20.701 C 18.379 21.023,18.903 21.000,12.000 21.000 C 5.095 21.000,5.621 21.024,5.298 20.700 C 4.973 20.375,4.998 21.149,5.010 11.919 L 5.020 3.700 5.131 3.511 C 5.256 3.298,5.449 3.136,5.670 3.057 C 5.791 3.014,6.516 3.003,9.410 3.002 L 13.000 3.000 13.000 5.573 M16.300 5.720 L 17.580 7.000 16.290 7.000 L 15.000 7.000 15.000 5.720 C 15.000 5.016,15.005 4.440,15.010 4.440 C 15.016 4.440,15.596 5.016,16.300 5.720 M8.643 14.069 C 8.291 14.193,8.000 14.614,8.000 15.000 C 8.000 15.242,8.119 15.521,8.299 15.701 C 8.610 16.013,8.456 16.000,12.000 16.000 C 15.544 16.000,15.390 16.013,15.701 15.701 C 16.092 15.310,16.092 14.690,15.701 14.299 C 15.389 13.987,15.547 14.000,11.983 14.003 C 9.226 14.006,8.797 14.014,8.643 14.069 " stroke="none" fill="black" fill-rule="evenodd"></path></svg>