<svg xmlns="http://www.w3.org/2000/svg" width="24" height="24" viewBox="0 0 24 24" fill="none" stroke="currentColor" stroke-width="2" stroke-linecap="round" stroke-linejoin="round"><path d="M11.495 1.041 C 11.020 1.127,10.625 1.334,6.982 3.415 C 3.479 5.415,3.242 5.557,2.951 5.835 C 2.618 6.151,2.382 6.489,2.228 6.869 C 2.012 7.400,2.020 7.199,2.020 12.040 L 2.020 16.540 2.152 16.920 C 2.328 17.425,2.571 17.804,2.949 18.164 C 3.243 18.443,3.472 18.581,6.994 20.592 C 11.277 23.038,11.142 22.973,11.960 22.977 C 12.486 22.980,12.720 22.940,13.126 22.774 C 13.353 22.682,20.138 18.828,20.624 18.515 C 20.931 18.318,21.380 17.854,21.571 17.538 C 21.651 17.405,21.776 17.126,21.848 16.918 L 21.980 16.540 21.980 12.000 L 21.980 7.460 21.848 7.080 C 21.775 6.871,21.637 6.574,21.541 6.420 C 21.344 6.105,20.959 5.706,20.660 5.507 C 20.550 5.434,18.847 4.454,16.877 3.329 C 12.846 1.028,12.883 1.046,12.125 1.019 C 11.891 1.011,11.608 1.020,11.495 1.041 M12.305 3.056 C 12.390 3.086,14.071 4.032,16.040 5.156 C 18.581 6.608,19.657 7.243,19.748 7.344 C 20.012 7.641,20.000 7.422,20.000 12.000 C 20.000 16.578,20.012 16.359,19.748 16.656 C 19.657 16.757,18.581 17.392,16.040 18.844 C 14.071 19.968,12.390 20.914,12.305 20.944 C 12.108 21.015,11.892 21.015,11.695 20.944 C 11.610 20.914,9.929 19.968,7.960 18.844 C 5.419 17.392,4.343 16.757,4.252 16.656 C 3.988 16.359,4.000 16.578,4.000 12.000 C 4.000 7.422,3.988 7.641,4.252 7.344 C 4.343 7.243,5.419 6.608,7.960 5.156 C 9.929 4.031,11.603 3.088,11.680 3.058 C 11.866 2.988,12.114 2.987,12.305 3.056 " stroke="none" fill="black" fill-rule="evenodd"></path></svg>