<svg xmlns="http://www.w3.org/2000/svg" width="24" height="24" viewBox="0 0 24 24" fill="none" stroke="currentColor" stroke-width="2" stroke-linecap="round" stroke-linejoin="round"><path d="M4.620 2.025 C 4.212 2.105,4.087 2.139,3.870 2.227 C 2.989 2.585,2.321 3.364,2.076 4.320 C 1.993 4.647,1.992 19.351,2.076 19.677 C 2.357 20.776,3.117 21.553,4.260 21.915 C 4.439 21.971,5.243 21.979,11.820 21.990 C 16.818 21.998,19.268 21.989,19.453 21.960 C 20.643 21.777,21.620 20.876,21.924 19.680 C 22.007 19.352,22.008 4.648,21.924 4.323 C 21.617 3.126,20.660 2.233,19.480 2.043 C 19.234 2.003,4.819 1.986,4.620 2.025 M19.340 4.066 C 19.455 4.105,19.603 4.201,19.701 4.299 C 20.016 4.614,20.000 4.371,20.000 8.716 L 20.000 12.578 18.270 10.854 C 16.719 9.309,16.520 9.124,16.343 9.065 C 16.094 8.983,15.907 8.983,15.657 9.065 C 15.476 9.124,15.027 9.562,10.050 14.534 L 4.641 19.939 4.496 19.861 C 4.417 19.818,4.300 19.720,4.236 19.643 C 3.983 19.336,3.998 19.846,4.010 11.918 L 4.020 4.700 4.131 4.511 C 4.256 4.298,4.449 4.136,4.670 4.057 C 4.793 4.013,6.104 4.003,11.983 4.002 C 18.548 4.000,19.162 4.006,19.340 4.066 M7.960 6.062 C 7.033 6.261,6.255 7.046,6.060 7.980 C 5.691 9.744,7.256 11.309,9.020 10.940 C 10.351 10.662,11.221 9.321,10.940 7.980 C 10.660 6.639,9.312 5.772,7.960 6.062 M8.724 8.062 C 8.977 8.193,9.068 8.508,8.922 8.748 C 8.722 9.076,8.278 9.076,8.078 8.748 C 7.935 8.513,8.009 8.226,8.252 8.078 C 8.406 7.984,8.563 7.979,8.724 8.062 M18.010 13.430 L 20.000 15.420 20.000 17.283 C 20.000 19.395,19.999 19.403,19.701 19.701 C 19.379 20.023,19.869 20.000,13.283 20.000 L 7.420 20.000 11.700 15.720 C 14.054 13.366,15.989 11.440,16.000 11.440 C 16.011 11.440,16.915 12.335,18.010 13.430 " stroke="none" fill="black" fill-rule="evenodd"></path></svg>