<svg xmlns="http://www.w3.org/2000/svg" width="24" height="24" viewBox="0 0 24 24" fill="none" stroke="currentColor" stroke-width="2" stroke-linecap="round" stroke-linejoin="round"><path d="M6.420 1.026 C 5.594 1.129,4.919 1.332,4.244 1.681 C 2.599 2.532,1.439 4.100,1.095 5.940 C 1.024 6.319,1.020 6.641,1.020 12.000 C 1.020 17.359,1.024 17.681,1.095 18.060 C 1.438 19.897,2.596 21.463,4.241 22.316 C 4.762 22.587,5.227 22.753,5.840 22.888 L 6.260 22.980 12.000 22.980 L 17.740 22.980 18.160 22.888 C 20.016 22.479,21.476 21.380,22.316 19.759 C 22.587 19.238,22.753 18.773,22.888 18.160 L 22.980 17.740 22.980 12.000 L 22.980 6.260 22.888 5.840 C 22.348 3.389,20.608 1.646,18.164 1.109 C 17.784 1.025,17.719 1.024,12.160 1.018 C 9.069 1.014,6.486 1.018,6.420 1.026 M18.002 3.126 C 19.472 3.532,20.562 4.664,20.906 6.140 C 20.976 6.444,20.980 6.740,20.980 12.000 C 20.980 17.260,20.976 17.556,20.906 17.860 C 20.558 19.356,19.457 20.481,17.940 20.891 C 17.620 20.978,17.614 20.978,12.163 20.990 C 7.401 21.000,6.661 20.994,6.351 20.941 C 5.489 20.792,4.798 20.435,4.179 19.820 C 3.665 19.309,3.325 18.723,3.126 18.002 L 3.020 17.620 3.020 12.000 L 3.020 6.380 3.126 5.998 C 3.325 5.277,3.665 4.691,4.179 4.180 C 4.797 3.566,5.466 3.217,6.329 3.059 C 6.563 3.017,7.694 3.008,12.120 3.013 L 17.620 3.020 18.002 3.126 M17.044 5.625 C 16.680 5.807,16.499 6.141,16.527 6.580 C 16.548 6.907,16.704 7.169,16.977 7.338 C 17.246 7.505,17.654 7.530,17.933 7.399 C 18.173 7.286,18.385 7.040,18.461 6.784 C 18.535 6.536,18.535 6.464,18.461 6.216 C 18.285 5.625,17.610 5.343,17.044 5.625 M11.341 7.002 C 10.704 7.102,10.045 7.339,9.483 7.670 C 8.181 8.436,7.268 9.840,7.082 11.359 C 7.024 11.830,7.030 12.179,7.103 12.674 C 7.431 14.883,9.136 16.577,11.360 16.903 C 12.372 17.051,13.376 16.877,14.338 16.387 C 15.681 15.703,16.662 14.386,16.965 12.860 C 17.047 12.445,17.036 11.386,16.946 10.968 C 16.722 9.936,16.255 9.094,15.498 8.363 C 14.810 7.697,14.064 7.293,13.120 7.075 C 12.726 6.984,11.719 6.943,11.341 7.002 M12.820 9.058 C 13.628 9.276,14.348 9.868,14.719 10.620 C 14.922 11.031,14.999 11.327,15.028 11.801 C 15.109 13.152,14.281 14.354,12.960 14.805 C 12.612 14.924,12.538 14.935,12.080 14.936 C 11.478 14.937,11.218 14.877,10.680 14.613 C 10.360 14.456,10.243 14.370,9.937 14.063 C 9.630 13.757,9.544 13.640,9.387 13.320 C 9.120 12.776,9.060 12.520,9.063 11.920 C 9.065 11.464,9.077 11.386,9.195 11.040 C 9.553 9.992,10.361 9.259,11.420 9.024 C 11.765 8.947,12.471 8.964,12.820 9.058 " stroke="none" fill="black" fill-rule="evenodd"></path></svg>