<svg xmlns="http://www.w3.org/2000/svg" width="24" height="24" viewBox="0 0 24 24" fill="none" stroke="currentColor" stroke-width="2" stroke-linecap="round" stroke-linejoin="round"><path d="M11.680 1.055 C 11.603 1.085,9.263 2.248,6.480 3.639 C 2.385 5.687,1.392 6.198,1.275 6.321 C 0.908 6.705,0.918 7.324,1.298 7.697 C 1.433 7.829,2.427 8.341,6.593 10.420 L 11.722 12.980 12.000 12.980 L 12.278 12.980 17.407 10.420 C 21.573 8.341,22.567 7.829,22.702 7.697 C 23.092 7.314,23.092 6.686,22.702 6.303 C 22.567 6.171,21.574 5.660,17.413 3.583 C 12.595 1.178,12.276 1.025,12.055 1.014 C 11.923 1.007,11.759 1.025,11.680 1.055 M15.860 5.050 C 17.983 6.111,19.720 6.989,19.720 7.000 C 19.720 7.011,17.983 7.889,15.860 8.950 L 12.000 10.880 8.140 8.950 C 6.017 7.889,4.280 7.011,4.280 7.000 C 4.280 6.985,11.936 3.134,11.990 3.122 C 11.995 3.121,13.737 3.988,15.860 5.050 M1.643 11.067 C 1.289 11.196,1.000 11.615,1.000 12.000 C 1.000 12.243,1.119 12.521,1.298 12.697 C 1.433 12.829,2.427 13.341,6.593 15.420 L 11.722 17.980 12.000 17.980 L 12.278 17.980 17.407 15.420 C 21.573 13.341,22.567 12.829,22.702 12.697 C 22.881 12.521,23.000 12.243,23.000 12.000 C 23.000 11.594,22.707 11.189,22.322 11.061 C 21.893 10.918,22.154 10.804,16.851 13.455 L 12.000 15.880 7.145 13.453 C 2.573 11.167,2.276 11.025,2.055 11.014 C 1.910 11.007,1.752 11.027,1.643 11.067 M1.643 16.067 C 1.289 16.196,1.000 16.615,1.000 17.000 C 1.000 17.243,1.119 17.521,1.298 17.697 C 1.433 17.829,2.427 18.341,6.593 20.420 L 11.722 22.980 12.000 22.980 L 12.278 22.980 17.407 20.420 C 21.573 18.341,22.567 17.829,22.702 17.697 C 22.881 17.521,23.000 17.243,23.000 17.000 C 23.000 16.594,22.707 16.189,22.322 16.061 C 21.893 15.918,22.154 15.804,16.851 18.455 L 12.000 20.880 7.145 18.453 C 2.573 16.167,2.276 16.025,2.055 16.014 C 1.910 16.007,1.752 16.027,1.643 16.067 " stroke="none" fill="black" fill-rule="evenodd"></path></svg>