<svg xmlns="http://www.w3.org/2000/svg" width="24" height="24" viewBox="0 0 24 24" fill="none" stroke="currentColor" stroke-width="2" stroke-linecap="round" stroke-linejoin="round"><path d="M5.420 6.026 C 4.615 6.123,3.919 6.333,3.244 6.681 C 1.599 7.532,0.457 9.075,0.093 10.940 C -0.004 11.439,-0.004 12.561,0.093 13.060 C 0.208 13.651,0.389 14.176,0.662 14.713 C 1.494 16.354,2.959 17.471,4.820 17.884 C 5.196 17.967,5.337 17.974,7.171 17.989 C 9.394 18.008,9.394 18.008,9.700 17.702 C 10.092 17.310,10.093 16.691,9.701 16.299 C 9.405 16.003,9.380 16.000,7.418 16.000 C 6.051 16.000,5.618 15.987,5.341 15.939 C 4.486 15.790,3.795 15.433,3.179 14.820 C 2.662 14.306,2.320 13.714,2.129 13.002 C 2.040 12.670,2.026 12.539,2.026 12.000 C 2.026 11.461,2.040 11.330,2.129 10.998 C 2.320 10.286,2.662 9.694,3.180 9.179 C 3.705 8.657,4.286 8.321,4.998 8.128 C 5.378 8.025,5.392 8.024,7.320 8.002 C 9.252 7.980,9.261 7.980,9.450 7.886 C 10.051 7.590,10.180 6.778,9.701 6.299 C 9.403 6.001,9.390 5.999,7.343 6.006 C 6.351 6.009,5.486 6.018,5.420 6.026 M14.643 6.067 C 14.546 6.102,14.392 6.206,14.300 6.298 C 13.820 6.778,13.948 7.590,14.550 7.886 C 14.739 7.980,14.748 7.980,16.680 8.002 C 18.608 8.024,18.622 8.025,19.002 8.128 C 20.446 8.519,21.521 9.618,21.891 11.080 C 22.013 11.563,22.013 12.437,21.891 12.920 C 21.517 14.401,20.428 15.497,18.940 15.889 C 18.643 15.968,18.483 15.975,16.680 15.997 C 14.749 16.020,14.739 16.020,14.550 16.114 C 13.948 16.410,13.820 17.222,14.300 17.702 C 14.606 18.008,14.606 18.008,16.829 17.989 C 18.663 17.974,18.804 17.967,19.180 17.884 C 21.018 17.476,22.481 16.371,23.316 14.759 C 23.589 14.234,23.756 13.765,23.885 13.160 C 23.960 12.810,23.975 12.616,23.975 12.000 C 23.975 11.384,23.960 11.190,23.885 10.840 C 23.364 8.407,21.592 6.632,19.164 6.111 C 18.811 6.035,18.621 6.027,16.800 6.016 C 15.066 6.005,14.798 6.011,14.643 6.067 M7.643 11.069 C 7.291 11.193,7.000 11.614,7.000 12.000 C 7.000 12.242,7.119 12.521,7.299 12.701 C 7.616 13.018,7.337 13.000,12.000 13.000 C 16.663 13.000,16.384 13.018,16.701 12.701 C 17.092 12.310,17.092 11.690,16.701 11.299 C 16.384 10.982,16.666 11.000,11.983 11.003 C 8.320 11.006,7.799 11.014,7.643 11.069 " stroke="none" fill="black" fill-rule="evenodd"></path></svg>