<svg xmlns="http://www.w3.org/2000/svg" width="24" height="24" viewBox="0 0 24 24" fill="none" stroke="currentColor" stroke-width="2" stroke-linecap="round" stroke-linejoin="round"><path d="M0.643 0.067 C 0.406 0.153,0.149 0.418,0.066 0.660 C -0.017 0.905,-0.018 1.092,0.065 1.343 C 0.124 1.523,0.461 1.872,4.063 5.480 L 7.995 9.420 8.012 11.020 C 8.029 12.710,8.038 12.804,8.241 13.350 C 8.779 14.797,10.039 15.789,11.568 15.969 C 12.281 16.052,13.115 15.904,13.763 15.578 L 14.027 15.446 14.753 16.173 C 15.153 16.573,15.480 16.913,15.480 16.929 C 15.480 16.979,14.730 17.405,14.355 17.566 C 13.999 17.720,13.503 17.869,13.040 17.963 C 12.742 18.023,11.614 18.043,11.220 17.995 C 11.044 17.974,10.697 17.903,10.448 17.837 C 8.356 17.286,6.733 15.641,6.185 13.517 C 6.035 12.937,6.000 12.481,6.000 11.109 C 6.000 9.673,5.985 9.583,5.701 9.299 C 5.310 8.908,4.690 8.908,4.299 9.299 C 4.014 9.584,4.000 9.669,4.000 11.143 C 4.000 12.915,4.069 13.495,4.402 14.537 C 4.582 15.098,5.014 15.992,5.341 16.480 C 6.535 18.262,8.405 19.506,10.480 19.899 C 10.667 19.935,10.861 19.972,10.910 19.983 L 11.000 20.002 11.000 21.001 L 11.000 22.000 9.427 22.000 C 7.638 22.000,7.591 22.006,7.299 22.299 C 6.908 22.690,6.908 23.310,7.299 23.701 C 7.616 24.018,7.337 24.000,12.000 24.000 C 16.663 24.000,16.384 24.018,16.701 23.701 C 17.092 23.310,17.092 22.690,16.701 22.299 C 16.409 22.006,16.362 22.000,14.572 22.000 L 12.999 22.000 13.009 20.993 L 13.020 19.987 13.440 19.916 C 14.516 19.733,15.713 19.229,16.621 18.578 L 16.933 18.354 19.696 21.112 C 22.210 23.620,22.478 23.876,22.657 23.935 C 23.047 24.064,23.423 23.979,23.702 23.700 C 24.005 23.398,24.078 22.947,23.887 22.556 C 23.767 22.308,1.726 0.264,1.457 0.122 C 1.224 -0.000,0.889 -0.023,0.643 0.067 M11.276 0.062 C 9.825 0.325,8.549 1.479,8.163 2.879 C 7.973 3.567,8.121 4.026,8.620 4.292 C 8.844 4.412,9.276 4.411,9.503 4.292 C 9.751 4.161,9.947 3.919,10.021 3.652 C 10.169 3.121,10.326 2.838,10.632 2.551 C 10.885 2.315,11.154 2.162,11.474 2.073 C 12.477 1.795,13.512 2.340,13.892 3.346 C 13.979 3.578,13.980 3.606,14.000 6.600 C 14.020 9.613,14.020 9.620,14.108 9.784 C 14.210 9.974,14.438 10.187,14.626 10.265 C 14.802 10.339,15.207 10.335,15.391 10.258 C 15.579 10.180,15.782 9.987,15.894 9.780 L 15.980 9.620 15.980 6.500 L 15.979 3.380 15.872 2.988 C 15.452 1.466,14.218 0.331,12.682 0.057 C 12.300 -0.012,11.669 -0.009,11.276 0.062 M18.659 9.064 C 18.429 9.145,18.222 9.330,18.114 9.550 C 18.022 9.736,18.020 9.772,17.997 11.220 C 17.983 12.164,17.956 12.803,17.922 12.983 C 17.877 13.234,17.879 13.294,17.939 13.503 C 18.083 13.997,18.588 14.308,19.080 14.206 C 19.357 14.149,19.586 13.990,19.731 13.754 C 19.925 13.441,19.964 13.082,19.988 11.393 C 20.006 10.033,20.002 9.866,19.939 9.677 C 19.767 9.160,19.179 8.879,18.659 9.064 M12.465 13.948 C 12.448 13.966,12.241 13.978,12.007 13.976 C 11.517 13.972,11.262 13.898,10.901 13.659 C 10.293 13.255,10.000 12.657,10.000 11.822 L 10.000 11.420 11.248 12.668 C 11.935 13.355,12.482 13.931,12.465 13.948 " stroke="none" fill="black" fill-rule="evenodd"></path></svg>