<svg xmlns="http://www.w3.org/2000/svg" width="24" height="24" viewBox="0 0 24 24" fill="none" stroke="currentColor" stroke-width="2" stroke-linecap="round" stroke-linejoin="round"><path d="M2.643 2.069 C 2.258 2.205,1.969 2.664,2.009 3.076 C 2.021 3.205,3.128 5.910,5.603 11.860 C 9.167 20.427,9.181 20.458,9.380 20.660 C 9.601 20.884,9.786 20.960,10.110 20.960 C 10.359 20.960,10.682 20.801,10.845 20.600 C 10.930 20.494,11.169 19.838,11.800 17.980 C 12.264 16.616,12.726 15.260,12.828 14.967 L 13.013 14.434 15.736 17.152 C 18.213 19.623,18.478 19.876,18.657 19.935 C 19.047 20.064,19.423 19.979,19.701 19.701 C 19.979 19.423,20.064 19.047,19.935 18.657 C 19.876 18.478,19.623 18.213,17.151 15.735 L 14.431 13.010 14.966 12.829 C 15.546 12.632,19.566 11.265,20.122 11.075 C 20.530 10.936,20.717 10.792,20.856 10.512 C 21.053 10.117,20.981 9.697,20.661 9.380 C 20.460 9.181,20.433 9.169,12.360 5.810 C 7.905 3.956,4.017 2.340,3.720 2.220 C 3.132 1.981,2.960 1.957,2.643 2.069 M10.998 7.416 C 14.346 8.811,17.092 9.959,17.101 9.968 C 17.110 9.976,16.012 10.358,14.663 10.816 C 13.313 11.274,12.133 11.694,12.041 11.749 C 11.948 11.804,11.823 11.927,11.763 12.022 C 11.700 12.121,11.297 13.246,10.818 14.657 C 10.276 16.255,9.971 17.099,9.950 17.061 C 9.912 16.993,4.880 4.919,4.880 4.896 C 4.880 4.887,4.887 4.880,4.896 4.880 C 4.904 4.880,7.650 6.021,10.998 7.416 " stroke="none" fill="black" fill-rule="evenodd"></path></svg>