<svg xmlns="http://www.w3.org/2000/svg" width="24" height="24" viewBox="0 0 24 24" fill="none" stroke="currentColor" stroke-width="2" stroke-linecap="round" stroke-linejoin="round"><path d="M14.934 0.460 C 14.501 0.537,13.928 0.724,13.560 0.910 C 12.831 1.277,12.928 1.187,7.617 6.497 C 2.056 12.059,2.282 11.813,1.760 12.860 C 1.342 13.699,1.142 14.377,1.042 15.288 C 0.723 18.214,2.352 21.079,5.049 22.338 C 6.523 23.026,8.187 23.176,9.789 22.764 C 10.279 22.637,10.726 22.463,11.239 22.196 C 12.195 21.700,12.035 21.849,17.353 16.542 C 20.306 13.595,22.278 11.599,22.326 11.505 C 22.571 11.033,22.386 10.438,21.914 10.180 C 21.634 10.028,21.273 10.019,21.000 10.157 C 20.871 10.222,19.433 11.632,15.960 15.098 C 12.043 19.007,11.039 19.988,10.788 20.153 C 10.233 20.518,9.637 20.763,8.960 20.906 C 8.549 20.993,7.518 21.003,7.120 20.924 C 5.071 20.520,3.526 18.994,3.092 16.948 C 2.994 16.486,2.995 15.500,3.093 15.040 C 3.253 14.294,3.531 13.651,3.940 13.084 C 4.268 12.628,13.941 2.984,14.250 2.804 C 14.376 2.731,14.637 2.614,14.830 2.545 C 15.164 2.426,15.208 2.420,15.780 2.421 C 16.349 2.422,16.398 2.428,16.730 2.546 C 17.232 2.724,17.491 2.891,17.902 3.300 C 18.209 3.606,18.291 3.717,18.449 4.040 C 18.691 4.537,18.768 4.869,18.767 5.399 C 18.764 6.093,18.557 6.702,18.143 7.233 C 17.844 7.617,8.596 16.821,8.437 16.892 C 7.785 17.187,7.074 16.782,7.011 16.080 C 6.966 15.590,6.661 15.929,11.542 11.040 C 15.845 6.729,15.955 6.615,16.017 6.403 C 16.095 6.134,16.095 6.066,16.021 5.816 C 15.946 5.563,15.734 5.314,15.502 5.205 C 15.262 5.092,14.887 5.091,14.640 5.203 C 14.500 5.266,13.497 6.246,10.127 9.612 C 7.745 11.992,5.713 14.048,5.613 14.180 C 4.967 15.032,4.822 16.175,5.236 17.163 C 5.715 18.306,6.944 19.072,8.160 18.986 C 8.623 18.953,8.912 18.873,9.359 18.654 L 9.737 18.468 14.483 13.753 C 17.093 11.159,19.327 8.925,19.447 8.789 C 20.340 7.775,20.767 6.677,20.765 5.400 C 20.763 4.346,20.500 3.460,19.939 2.617 C 19.247 1.577,18.225 0.861,16.963 0.532 C 16.476 0.405,15.452 0.369,14.934 0.460 " stroke="none" fill="black" fill-rule="evenodd"></path></svg>