<svg xmlns="http://www.w3.org/2000/svg" width="24" height="24" viewBox="0 0 24 24" fill="none" stroke="currentColor" stroke-width="2" stroke-linecap="round" stroke-linejoin="round"><path d="M5.643 1.069 C 5.546 1.103,5.392 1.206,5.300 1.298 C 4.988 1.610,5.000 1.464,5.000 4.922 L 5.000 7.991 4.230 8.011 C 3.723 8.025,3.392 8.052,3.260 8.091 C 2.135 8.424,1.359 9.216,1.076 10.320 C 0.994 10.642,0.993 16.355,1.076 16.677 C 1.359 17.782,2.137 18.576,3.260 18.909 C 3.392 18.948,3.723 18.975,4.230 18.989 L 5.000 19.009 5.000 20.578 C 5.000 22.362,5.007 22.409,5.299 22.701 C 5.621 23.023,5.097 23.000,12.000 23.000 C 18.903 23.000,18.379 23.023,18.701 22.701 C 18.994 22.409,19.000 22.362,19.000 20.573 L 19.000 19.000 19.610 19.000 C 20.283 18.999,20.605 18.960,20.974 18.832 C 21.931 18.501,22.668 17.688,22.924 16.680 C 23.006 16.357,23.007 10.643,22.924 10.323 C 22.617 9.126,21.660 8.233,20.480 8.043 C 20.337 8.020,19.945 8.000,19.610 8.000 L 19.000 8.000 19.000 4.927 C 19.000 1.464,19.012 1.610,18.701 1.299 C 18.378 0.976,18.906 1.000,11.983 1.003 C 6.508 1.006,5.800 1.013,5.643 1.069 M17.000 5.500 L 17.000 8.000 12.000 8.000 L 7.000 8.000 7.000 5.500 L 7.000 3.000 12.000 3.000 L 17.000 3.000 17.000 5.500 M20.340 10.066 C 20.593 10.153,20.847 10.407,20.934 10.660 C 20.993 10.833,21.000 11.142,21.000 13.500 C 21.000 16.486,21.009 16.394,20.701 16.701 C 20.454 16.948,20.259 17.000,19.573 17.000 L 19.000 17.000 19.000 15.427 C 19.000 13.638,18.994 13.591,18.701 13.299 C 18.379 12.977,18.903 13.000,12.000 13.000 C 5.097 13.000,5.621 12.977,5.299 13.299 C 5.006 13.591,5.000 13.638,5.000 15.427 L 5.000 17.000 4.427 17.000 C 3.740 17.000,3.546 16.949,3.298 16.700 C 2.988 16.390,2.996 16.490,3.009 13.416 L 3.020 10.700 3.131 10.511 C 3.256 10.298,3.449 10.136,3.670 10.057 C 3.793 10.013,5.268 10.003,11.983 10.002 C 19.479 10.000,20.162 10.005,20.340 10.066 M17.000 18.000 L 17.000 21.000 12.000 21.000 L 7.000 21.000 7.000 18.000 L 7.000 15.000 12.000 15.000 L 17.000 15.000 17.000 18.000 " stroke="none" fill="black" fill-rule="evenodd"></path></svg>