<svg xmlns="http://www.w3.org/2000/svg" width="24" height="24" viewBox="0 0 24 24" fill="none" stroke="currentColor" stroke-width="2" stroke-linecap="round" stroke-linejoin="round"><path d="M10.960 2.057 C 8.779 2.311,6.872 3.168,5.280 4.611 C 5.071 4.801,4.252 5.566,3.460 6.313 L 2.020 7.670 2.000 5.705 C 1.980 3.745,1.980 3.740,1.886 3.550 C 1.590 2.949,0.778 2.820,0.299 3.299 C -0.013 3.611,-0.000 3.451,0.001 7.037 C 0.002 10.153,0.003 10.224,0.083 10.400 C 0.193 10.642,0.340 10.791,0.580 10.905 L 0.780 10.999 3.963 11.000 C 7.549 11.000,7.389 11.013,7.701 10.701 C 8.180 10.222,8.051 9.410,7.450 9.114 C 7.261 9.021,7.250 9.020,5.404 9.000 L 3.548 8.980 5.204 7.422 C 6.121 6.560,7.042 5.730,7.268 5.562 C 8.269 4.820,9.492 4.309,10.785 4.094 C 11.373 3.996,12.650 3.996,13.218 4.094 C 14.628 4.337,15.817 4.847,16.900 5.674 C 17.239 5.934,17.925 6.606,18.211 6.960 C 18.712 7.580,19.148 8.330,19.463 9.111 C 19.642 9.554,19.728 9.688,19.910 9.808 C 20.134 9.957,20.344 10.013,20.581 9.988 C 20.957 9.950,21.240 9.745,21.397 9.400 C 21.566 9.026,21.488 8.672,21.023 7.700 C 19.689 4.912,17.171 2.909,14.160 2.241 C 13.207 2.029,11.862 1.952,10.960 2.057 M16.643 13.069 C 16.291 13.193,16.000 13.614,16.000 14.000 C 16.000 14.242,16.119 14.521,16.299 14.701 C 16.596 14.998,16.612 15.000,18.657 15.001 L 20.460 15.002 20.140 15.311 C 18.944 16.465,17.081 18.178,16.780 18.401 C 15.710 19.191,14.564 19.676,13.220 19.906 C 12.663 20.002,11.334 20.001,10.782 19.906 C 9.309 19.652,8.054 19.095,6.960 18.211 C 6.606 17.925,5.934 17.239,5.674 16.900 C 5.224 16.311,4.826 15.607,4.537 14.889 C 4.358 14.446,4.272 14.312,4.090 14.192 C 3.662 13.909,3.123 13.957,2.792 14.306 C 2.510 14.605,2.452 15.006,2.624 15.488 C 3.031 16.632,3.857 17.946,4.767 18.900 C 6.358 20.565,8.382 21.585,10.780 21.927 C 11.311 22.003,12.748 21.992,13.340 21.907 C 14.958 21.675,16.528 21.052,17.808 20.132 C 18.288 19.788,18.818 19.314,20.480 17.747 L 21.980 16.332 22.000 18.296 C 22.020 20.255,22.020 20.260,22.114 20.450 C 22.410 21.051,23.222 21.180,23.701 20.701 C 24.013 20.389,24.000 20.549,24.000 16.963 L 23.999 13.780 23.905 13.580 C 23.791 13.340,23.642 13.193,23.400 13.083 C 23.224 13.003,23.156 13.002,20.020 13.004 C 17.228 13.006,16.798 13.014,16.643 13.069 " stroke="none" fill="black" fill-rule="evenodd"></path></svg>