<svg xmlns="http://www.w3.org/2000/svg" width="24" height="24" viewBox="0 0 24 24" fill="none" stroke="currentColor" stroke-width="2" stroke-linecap="round" stroke-linejoin="round"><path d="M0.643 0.069 C 0.291 0.193,-0.000 0.614,0.000 1.000 C 0.000 1.080,0.029 1.234,0.065 1.343 C 0.124 1.518,0.295 1.705,1.621 3.040 L 3.112 4.540 3.054 4.700 C 3.005 4.836,2.999 5.465,3.011 8.880 C 3.026 12.782,3.028 12.913,3.111 13.340 C 3.431 14.995,4.134 16.437,5.374 17.980 C 5.762 18.462,6.743 19.470,7.320 19.978 C 8.457 20.980,10.163 22.164,11.395 22.806 C 11.694 22.961,11.759 22.980,12.001 22.980 C 12.243 22.980,12.309 22.961,12.606 22.807 C 14.079 22.043,15.692 20.882,17.112 19.564 L 17.646 19.068 20.053 21.469 C 22.234 23.645,22.478 23.876,22.657 23.935 C 23.047 24.064,23.423 23.979,23.702 23.700 C 24.005 23.397,24.078 22.947,23.887 22.556 C 23.824 22.426,20.869 19.449,12.671 11.255 C 2.368 0.957,1.525 0.125,1.343 0.065 C 1.101 -0.015,0.876 -0.013,0.643 0.069 M11.620 1.073 C 8.657 2.179,8.350 2.301,8.197 2.432 C 7.955 2.639,7.862 2.846,7.862 3.180 C 7.862 3.509,7.952 3.714,8.185 3.919 C 8.390 4.099,8.555 4.160,8.837 4.160 C 9.047 4.160,9.259 4.092,10.539 3.614 L 12.001 3.068 15.501 4.379 L 19.000 5.690 19.000 8.996 C 19.000 11.018,18.984 12.434,18.959 12.641 C 18.936 12.827,18.863 13.203,18.796 13.476 C 18.659 14.036,18.664 14.181,18.833 14.494 C 19.130 15.046,19.903 15.162,20.374 14.725 C 20.531 14.579,20.625 14.381,20.739 13.956 C 20.983 13.043,20.980 13.113,20.980 8.739 L 20.980 4.738 20.880 4.543 C 20.825 4.436,20.714 4.296,20.635 4.231 C 20.530 4.147,19.352 3.686,16.395 2.575 C 11.941 0.900,12.017 0.924,11.620 1.073 M15.850 18.001 C 15.077 18.746,14.160 19.480,13.220 20.106 C 12.638 20.493,12.064 20.840,12.006 20.840 C 11.885 20.840,10.617 20.022,9.840 19.444 C 7.205 17.481,5.615 15.366,5.110 13.151 C 5.028 12.793,5.024 12.669,5.011 9.600 L 4.997 6.420 10.609 12.032 L 16.220 17.644 15.850 18.001 " stroke="none" fill="black" fill-rule="evenodd"></path></svg>