<svg xmlns="http://www.w3.org/2000/svg" width="24" height="24" viewBox="0 0 24 24" fill="none" stroke="currentColor" stroke-width="2" stroke-linecap="round" stroke-linejoin="round"><path d="M4.620 2.025 C 4.212 2.105,4.087 2.139,3.870 2.227 C 2.989 2.585,2.321 3.364,2.076 4.320 C 1.993 4.647,1.992 19.351,2.076 19.677 C 2.357 20.776,3.117 21.553,4.260 21.915 C 4.439 21.971,5.243 21.979,11.820 21.990 C 16.818 21.998,19.268 21.989,19.453 21.960 C 20.643 21.777,21.620 20.876,21.924 19.680 C 22.007 19.352,22.008 4.648,21.924 4.323 C 21.617 3.126,20.660 2.233,19.480 2.043 C 19.234 2.003,4.819 1.986,4.620 2.025 M8.000 12.000 L 8.000 20.000 6.427 20.000 C 4.637 20.000,4.592 19.994,4.298 19.700 C 3.974 19.376,3.998 20.028,4.010 11.918 L 4.020 4.700 4.131 4.511 C 4.192 4.408,4.304 4.275,4.381 4.217 C 4.654 4.009,4.700 4.004,6.410 4.002 L 8.000 4.000 8.000 12.000 M19.340 4.066 C 19.455 4.105,19.603 4.201,19.701 4.299 C 20.025 4.623,20.000 3.977,20.000 12.000 C 20.000 20.023,20.025 19.377,19.701 19.701 C 19.383 20.019,19.714 20.000,14.573 20.000 L 10.000 20.000 10.000 12.000 L 10.000 4.000 14.573 4.000 C 18.724 4.000,19.164 4.006,19.340 4.066 " stroke="none" fill="black" fill-rule="evenodd"></path></svg>