<svg xmlns="http://www.w3.org/2000/svg" width="24" height="24" viewBox="0 0 24 24" fill="none" stroke="currentColor" stroke-width="2" stroke-linecap="round" stroke-linejoin="round"><path d="M16.643 5.069 C 16.291 5.193,16.000 5.614,16.000 6.000 C 16.000 6.242,16.119 6.521,16.299 6.701 C 16.597 6.999,16.605 7.000,18.717 7.000 L 20.580 7.000 17.040 10.540 L 13.500 14.080 11.300 11.882 C 9.620 10.203,9.057 9.664,8.920 9.603 C 8.659 9.486,8.311 9.492,8.058 9.619 C 7.905 9.696,6.989 10.590,3.995 13.589 C 0.456 17.133,0.124 17.477,0.065 17.657 C -0.063 18.047,0.021 18.423,0.299 18.701 C 0.577 18.979,0.953 19.063,1.343 18.935 C 1.523 18.876,1.839 18.571,5.020 15.395 L 8.501 11.920 10.680 14.101 C 12.330 15.752,12.908 16.306,13.058 16.381 C 13.311 16.508,13.659 16.514,13.920 16.398 C 14.060 16.335,14.977 15.440,18.050 12.368 L 22.000 8.420 22.000 10.283 C 22.000 12.395,22.001 12.403,22.299 12.701 C 22.690 13.092,23.310 13.092,23.701 12.701 C 24.013 12.389,24.000 12.549,24.000 8.963 L 23.999 5.780 23.905 5.580 C 23.791 5.340,23.642 5.193,23.400 5.083 C 23.224 5.003,23.156 5.002,20.020 5.004 C 17.228 5.006,16.798 5.014,16.643 5.069 " stroke="none" fill="black" fill-rule="evenodd"></path></svg>