<svg xmlns="http://www.w3.org/2000/svg" width="24" height="24" viewBox="0 0 24 24" fill="none" stroke="currentColor" stroke-width="2" stroke-linecap="round" stroke-linejoin="round"><path d="M3.643 3.069 C 3.407 3.152,3.149 3.416,3.066 3.660 C 3.009 3.828,3.000 4.073,3.000 5.500 C 3.000 7.371,3.005 7.407,3.299 7.701 C 3.690 8.092,4.310 8.092,4.701 7.701 C 4.979 7.423,5.000 7.308,5.000 6.073 L 5.000 5.000 8.000 5.000 L 11.000 5.000 11.000 12.000 L 11.000 19.000 9.927 19.000 C 8.692 19.000,8.577 19.021,8.299 19.299 C 7.908 19.690,7.908 20.310,8.299 20.701 C 8.610 21.013,8.456 21.000,12.000 21.000 C 15.544 21.000,15.390 21.013,15.701 20.701 C 16.092 20.310,16.092 19.690,15.701 19.299 C 15.423 19.021,15.308 19.000,14.073 19.000 L 13.000 19.000 13.000 12.000 L 13.000 5.000 16.000 5.000 L 19.000 5.000 19.000 6.073 C 19.000 7.308,19.021 7.423,19.299 7.701 C 19.690 8.092,20.310 8.092,20.701 7.701 C 20.995 7.407,21.000 7.371,21.000 5.500 C 21.000 3.629,20.995 3.593,20.701 3.299 C 20.376 2.973,21.147 3.000,11.983 3.003 C 4.697 3.006,3.801 3.013,3.643 3.069 " stroke="none" fill="black" fill-rule="evenodd"></path></svg>