<svg xmlns="http://www.w3.org/2000/svg" width="24" height="24" viewBox="0 0 24 24" fill="none" stroke="currentColor" stroke-width="2" stroke-linecap="round" stroke-linejoin="round"><path d="M8.842 3.043 C 6.127 3.112,4.175 3.259,3.286 3.463 C 1.965 3.765,0.880 4.810,0.522 6.124 C 0.346 6.772,0.117 8.684,0.036 10.180 C -0.100 12.718,0.204 16.648,0.620 17.700 C 1.022 18.720,1.854 19.520,2.888 19.880 C 3.553 20.112,4.611 20.233,7.100 20.363 C 8.385 20.430,13.818 20.456,15.520 20.404 C 18.322 20.318,20.023 20.181,20.802 19.979 C 21.609 19.770,22.417 19.215,22.905 18.534 C 23.129 18.221,23.414 17.616,23.494 17.280 C 23.590 16.876,23.750 15.779,23.838 14.920 C 24.047 12.872,24.054 10.697,23.858 8.680 C 23.773 7.800,23.572 6.432,23.478 6.084 C 23.144 4.860,22.172 3.858,20.957 3.487 C 19.753 3.120,14.042 2.911,8.842 3.043 M16.520 5.079 C 18.938 5.173,20.223 5.304,20.619 5.498 C 21.107 5.736,21.462 6.199,21.577 6.744 C 21.652 7.102,21.780 8.027,21.857 8.761 C 22.059 10.708,22.036 13.239,21.798 15.200 C 21.676 16.209,21.552 16.865,21.437 17.106 C 21.285 17.425,20.944 17.765,20.623 17.919 C 20.232 18.105,19.376 18.220,17.640 18.318 C 14.747 18.483,9.253 18.483,6.360 18.318 C 3.954 18.182,3.369 18.056,2.886 17.572 C 2.548 17.233,2.459 17.019,2.341 16.260 C 2.084 14.602,2.020 13.699,2.022 11.740 C 2.023 9.813,2.087 8.917,2.341 7.260 C 2.423 6.728,2.463 6.572,2.580 6.334 C 2.744 6.000,3.042 5.704,3.378 5.539 C 3.883 5.292,5.666 5.130,8.861 5.040 C 10.335 4.999,15.079 5.023,16.520 5.079 M9.480 7.517 C 9.184 7.607,8.973 7.794,8.843 8.080 C 8.763 8.257,8.762 8.324,8.762 11.760 C 8.762 15.064,8.766 15.269,8.835 15.421 C 9.000 15.785,9.339 15.998,9.755 15.999 C 10.059 16.000,10.058 16.001,11.440 15.212 C 11.979 14.905,13.236 14.189,14.234 13.622 C 15.232 13.054,16.107 12.538,16.180 12.475 C 16.578 12.125,16.585 11.413,16.194 11.043 C 16.050 10.906,10.323 7.629,10.065 7.536 C 9.899 7.476,9.643 7.468,9.480 7.517 M12.750 11.336 C 13.130 11.553,13.440 11.741,13.439 11.755 C 13.438 11.775,10.911 13.225,10.793 13.273 C 10.775 13.281,10.760 12.593,10.760 11.746 L 10.760 10.205 11.410 10.574 C 11.768 10.777,12.370 11.120,12.750 11.336 " stroke="none" fill="black" fill-rule="evenodd"></path></svg>