<svg width="1em" height="1em" viewBox="0 0 16 16" class="bi bi-alarm" fill="currentColor" xmlns="http://www.w3.org/2000/svg"><path d="M5.799 0.050 C 5.420 0.222,5.403 0.747,5.769 0.940 C 5.871 0.993,5.926 0.999,6.433 1.008 L 6.987 1.019 6.987 1.546 L 6.987 2.074 6.860 2.092 C 6.630 2.125,6.152 2.242,5.857 2.338 C 3.540 3.087,1.759 5.003,1.200 7.347 C 1.048 7.985,1.027 8.189,1.027 9.000 C 1.027 9.598,1.036 9.805,1.075 10.040 C 1.284 11.299,1.733 12.335,2.501 13.333 C 2.597 13.458,2.852 13.736,3.067 13.951 L 3.458 14.343 3.019 14.778 C 2.778 15.017,2.564 15.252,2.544 15.299 C 2.413 15.600,2.618 15.956,2.943 15.993 C 3.167 16.018,3.228 15.977,3.776 15.435 L 4.285 14.931 4.457 15.036 C 5.174 15.472,6.137 15.806,7.053 15.937 C 7.563 16.010,8.516 16.004,9.027 15.925 C 9.933 15.784,10.763 15.492,11.533 15.044 L 11.720 14.935 12.214 15.426 C 12.521 15.732,12.745 15.933,12.806 15.959 C 13.126 16.093,13.493 15.855,13.493 15.514 C 13.493 15.443,13.477 15.346,13.456 15.299 C 13.436 15.252,13.221 15.017,12.979 14.777 L 12.540 14.341 12.847 14.044 C 13.824 13.098,14.483 11.955,14.797 10.660 C 14.951 10.028,14.973 9.816,14.973 9.000 C 14.973 8.184,14.951 7.972,14.797 7.340 C 14.380 5.620,13.320 4.122,11.827 3.140 C 11.073 2.645,10.055 2.242,9.207 2.104 L 9.013 2.072 9.013 1.545 L 9.013 1.019 9.567 1.008 C 10.074 0.999,10.129 0.993,10.231 0.940 C 10.597 0.747,10.580 0.222,10.201 0.050 C 10.099 0.004,9.974 0.001,8.000 0.001 C 6.026 0.001,5.901 0.004,5.799 0.050 M2.000 1.054 C 0.422 1.378,-0.441 3.097,0.241 4.556 C 0.299 4.678,0.398 4.852,0.463 4.942 C 0.589 5.118,0.816 5.360,0.856 5.360 C 0.868 5.360,0.911 5.297,0.950 5.221 C 1.269 4.590,1.861 3.814,2.463 3.235 C 2.966 2.751,3.517 2.341,4.101 2.016 L 4.374 1.863 4.318 1.792 C 4.228 1.677,3.975 1.472,3.781 1.356 C 3.554 1.219,3.270 1.110,3.008 1.056 C 2.759 1.004,2.246 1.004,2.000 1.054 M13.093 1.032 C 12.649 1.107,12.170 1.338,11.840 1.636 C 11.592 1.861,11.589 1.840,11.900 2.015 C 12.895 2.576,13.764 3.345,14.445 4.267 C 14.647 4.539,14.936 4.996,15.050 5.221 C 15.089 5.297,15.133 5.360,15.148 5.360 C 15.187 5.360,15.403 5.129,15.537 4.942 C 15.601 4.852,15.701 4.678,15.758 4.556 C 16.445 3.087,15.569 1.363,13.978 1.052 C 13.798 1.016,13.257 1.004,13.093 1.032 M8.973 3.077 C 10.314 3.323,11.437 3.919,12.341 4.865 C 13.196 5.760,13.741 6.877,13.938 8.138 C 14.003 8.556,14.003 9.444,13.938 9.862 C 13.837 10.510,13.650 11.102,13.371 11.663 C 12.475 13.460,10.768 14.680,8.773 14.948 C 8.203 15.025,7.299 14.988,6.744 14.866 C 5.588 14.611,4.615 14.079,3.771 13.240 C 2.836 12.311,2.269 11.191,2.062 9.861 C 1.997 9.444,1.997 8.556,2.062 8.139 C 2.259 6.875,2.802 5.761,3.659 4.865 C 4.623 3.856,5.836 3.245,7.280 3.041 C 7.560 3.002,8.693 3.026,8.973 3.077 M7.800 4.544 C 7.690 4.592,7.556 4.751,7.522 4.873 C 7.503 4.939,7.494 5.650,7.493 6.940 L 7.493 8.906 6.747 10.400 C 5.953 11.989,5.952 11.993,6.036 12.195 C 6.082 12.305,6.234 12.438,6.360 12.480 C 6.488 12.522,6.653 12.495,6.780 12.412 C 6.898 12.334,6.863 12.402,7.810 10.432 L 8.507 8.984 8.507 6.979 C 8.506 5.662,8.497 4.939,8.478 4.873 C 8.444 4.747,8.309 4.590,8.195 4.543 C 8.086 4.497,7.905 4.498,7.800 4.544 " stroke="none" fill="black" fill-rule="evenodd"></path></svg>