<svg width="1em" height="1em" viewBox="0 0 16 16" class="bi bi-archive" fill="currentColor" xmlns="http://www.w3.org/2000/svg"><path d="M0.707 1.041 C 0.423 1.125,0.144 1.405,0.055 1.696 C 0.003 1.862,-0.000 1.939,-0.000 2.998 C -0.000 4.236,0.006 4.289,0.165 4.539 C 0.316 4.778,0.585 4.953,0.842 4.979 L 0.984 4.994 0.994 8.917 C 1.003 12.810,1.004 12.842,1.060 13.071 C 1.294 14.024,1.951 14.712,2.848 14.941 L 3.080 15.000 8.000 15.000 L 12.920 15.000 13.152 14.941 C 14.047 14.713,14.707 14.022,14.940 13.071 C 14.996 12.842,14.997 12.810,15.006 8.913 L 15.016 4.987 15.107 4.987 C 15.228 4.987,15.462 4.897,15.597 4.799 C 15.750 4.688,15.884 4.496,15.947 4.297 C 15.997 4.139,16.000 4.054,16.000 3.002 C 16.000 1.764,15.994 1.711,15.835 1.461 C 15.737 1.306,15.614 1.196,15.432 1.100 L 15.293 1.027 8.040 1.022 C 3.917 1.020,0.752 1.028,0.707 1.041 M14.987 3.000 L 14.987 4.000 8.000 4.000 L 1.013 4.000 1.013 3.000 L 1.013 2.000 8.000 2.000 L 14.987 2.000 14.987 3.000 M14.000 8.833 C 13.999 13.061,14.007 12.851,13.825 13.220 C 13.648 13.581,13.321 13.857,12.962 13.951 C 12.800 13.994,12.437 13.997,8.021 13.998 C 4.640 14.000,3.215 13.991,3.115 13.971 C 2.592 13.862,2.159 13.406,2.040 12.840 C 2.007 12.681,2.001 12.090,2.000 8.833 L 2.000 5.013 8.000 5.013 L 14.000 5.013 14.000 8.833 M5.755 7.067 C 5.402 7.254,5.428 7.782,5.799 7.950 C 5.901 7.996,6.026 7.999,8.000 7.999 C 9.974 7.999,10.099 7.996,10.201 7.950 C 10.575 7.780,10.598 7.249,10.239 7.066 C 10.138 7.015,10.076 7.013,7.994 7.015 C 5.929 7.016,5.850 7.018,5.755 7.067 " stroke="none" fill="black" fill-rule="evenodd"></path></svg>