<svg width="1em" height="1em" viewBox="0 0 16 16" class="bi bi-arrow-down-circle-fill" fill="currentColor" xmlns="http://www.w3.org/2000/svg"><path d="M7.293 0.030 C 4.174 0.300,1.460 2.423,0.439 5.390 C -0.989 9.546,1.195 14.077,5.331 15.539 C 8.244 16.569,11.468 15.838,13.653 13.653 C 16.473 10.834,16.787 6.378,14.390 3.190 C 12.867 1.166,10.473 -0.019,7.947 0.004 C 7.734 0.006,7.440 0.018,7.293 0.030 M8.195 4.543 C 8.309 4.590,8.444 4.747,8.478 4.873 C 8.497 4.939,8.506 5.781,8.507 7.373 L 8.507 9.772 9.593 8.688 C 10.712 7.571,10.801 7.495,11.001 7.494 C 11.122 7.493,11.337 7.612,11.411 7.720 C 11.488 7.835,11.512 8.034,11.467 8.177 C 11.440 8.260,11.132 8.582,9.910 9.808 C 9.072 10.648,8.341 11.366,8.286 11.405 C 8.166 11.488,7.971 11.514,7.823 11.467 C 7.740 11.440,7.418 11.132,6.192 9.910 C 5.352 9.072,4.632 8.340,4.592 8.282 C 4.531 8.194,4.520 8.150,4.520 8.000 C 4.520 7.855,4.532 7.805,4.587 7.724 C 4.663 7.612,4.875 7.493,4.999 7.494 C 5.199 7.495,5.288 7.571,6.407 8.688 L 7.493 9.772 7.493 7.373 C 7.494 5.781,7.503 4.939,7.522 4.873 C 7.556 4.751,7.690 4.592,7.800 4.544 C 7.905 4.498,8.086 4.497,8.195 4.543 " stroke="none" fill="black" fill-rule="evenodd"></path></svg>