<svg width="1em" height="1em" viewBox="0 0 16 16" class="bi bi-arrow-down-square" fill="currentColor" xmlns="http://www.w3.org/2000/svg"><path d="M1.600 0.042 C 0.952 0.181,0.407 0.629,0.157 1.226 C -0.010 1.625,0.000 1.207,0.000 8.000 C 0.000 14.793,-0.010 14.375,0.157 14.774 C 0.350 15.235,0.765 15.650,1.226 15.843 C 1.625 16.010,1.207 16.000,8.000 16.000 C 13.536 16.000,14.211 15.996,14.394 15.958 C 15.184 15.796,15.796 15.184,15.958 14.394 C 15.996 14.211,16.000 13.536,16.000 8.000 C 16.000 2.464,15.996 1.789,15.958 1.606 C 15.796 0.816,15.184 0.204,14.394 0.042 C 14.210 0.004,13.540 0.000,7.981 0.002 C 2.765 0.004,1.746 0.010,1.600 0.042 M14.428 1.099 C 14.616 1.192,14.808 1.384,14.901 1.572 L 14.973 1.720 14.980 7.946 C 14.986 13.403,14.982 14.188,14.947 14.309 C 14.867 14.586,14.586 14.864,14.296 14.954 C 14.156 14.997,13.759 15.000,8.000 15.000 C 2.241 15.000,1.844 14.997,1.704 14.954 C 1.422 14.866,1.158 14.612,1.063 14.338 C 1.018 14.207,1.015 13.880,1.014 7.994 C 1.013 1.932,1.015 1.784,1.065 1.652 C 1.162 1.395,1.389 1.166,1.645 1.066 C 1.769 1.017,1.962 1.016,8.027 1.021 L 14.280 1.027 14.428 1.099 M7.800 4.544 C 7.690 4.592,7.556 4.751,7.522 4.873 C 7.503 4.939,7.494 5.781,7.493 7.373 L 7.493 9.772 6.407 8.688 C 5.288 7.571,5.199 7.495,4.999 7.494 C 4.878 7.493,4.663 7.612,4.589 7.720 C 4.512 7.835,4.488 8.034,4.533 8.177 C 4.560 8.260,4.868 8.582,6.090 9.808 C 6.928 10.648,7.659 11.367,7.715 11.405 C 7.856 11.503,8.063 11.519,8.218 11.444 C 8.299 11.405,8.794 10.926,9.883 9.834 C 11.127 8.587,11.440 8.260,11.467 8.177 C 11.512 8.034,11.488 7.835,11.411 7.720 C 11.337 7.612,11.122 7.493,11.001 7.494 C 10.801 7.495,10.712 7.571,9.593 8.688 L 8.507 9.772 8.507 7.373 C 8.506 5.781,8.497 4.939,8.478 4.873 C 8.444 4.747,8.309 4.590,8.195 4.543 C 8.086 4.497,7.905 4.498,7.800 4.544 " stroke="none" fill="black" fill-rule="evenodd"></path></svg>