<svg width="1em" height="1em" viewBox="0 0 16 16" class="bi bi-arrow-up-right-circle" fill="currentColor" xmlns="http://www.w3.org/2000/svg"><path d="M7.293 0.030 C 4.174 0.300,1.460 2.423,0.439 5.390 C -0.989 9.546,1.195 14.077,5.331 15.539 C 8.244 16.569,11.468 15.838,13.653 13.653 C 16.473 10.834,16.787 6.378,14.390 3.190 C 12.867 1.166,10.473 -0.019,7.947 0.004 C 7.734 0.006,7.440 0.018,7.293 0.030 M8.768 1.041 C 10.349 1.213,11.838 1.934,12.973 3.079 C 13.491 3.601,13.952 4.250,14.280 4.919 C 14.518 5.405,14.657 5.783,14.783 6.284 C 14.947 6.939,14.973 7.177,14.973 8.000 C 14.973 8.823,14.947 9.061,14.783 9.716 C 14.657 10.218,14.517 10.596,14.280 11.080 C 13.369 12.933,11.704 14.284,9.716 14.783 C 9.061 14.947,8.823 14.973,8.000 14.973 C 7.177 14.973,6.938 14.947,6.287 14.783 C 4.507 14.336,2.953 13.185,2.008 11.613 C 1.484 10.744,1.149 9.755,1.041 8.768 C 1.005 8.434,1.005 7.566,1.041 7.232 C 1.237 5.430,2.177 3.705,3.581 2.572 C 4.606 1.745,5.923 1.187,7.187 1.044 C 7.491 1.010,8.462 1.008,8.768 1.041 M6.280 5.055 C 6.160 5.118,6.104 5.176,6.050 5.293 C 5.995 5.414,5.986 5.560,6.028 5.672 C 6.070 5.784,6.239 5.944,6.346 5.974 C 6.402 5.989,7.015 6.000,7.866 6.000 L 9.293 6.000 7.181 8.113 C 5.914 9.381,5.057 10.259,5.039 10.307 C 4.997 10.417,5.002 10.622,5.049 10.712 C 5.094 10.797,5.211 10.912,5.301 10.958 C 5.379 10.999,5.590 11.000,5.693 10.961 C 5.741 10.943,6.619 10.086,7.887 8.819 L 10.000 6.707 10.000 8.154 C 10.000 9.762,9.994 9.703,10.181 9.871 C 10.423 10.090,10.802 10.012,10.950 9.714 C 10.997 9.619,11.000 9.505,11.008 7.667 C 11.013 6.596,11.009 5.634,11.000 5.529 C 10.979 5.302,10.898 5.155,10.745 5.069 C 10.647 5.014,10.628 5.013,8.503 5.013 C 6.612 5.014,6.351 5.019,6.280 5.055 " stroke="none" fill="black" fill-rule="evenodd"></path></svg>