<svg width="1em" height="1em" viewBox="0 0 16 16" class="bi bi-arrow-up-circle-fill" fill="currentColor" xmlns="http://www.w3.org/2000/svg"><path d="M7.293 0.030 C 4.174 0.300,1.460 2.423,0.439 5.390 C -0.989 9.546,1.195 14.077,5.331 15.539 C 8.244 16.569,11.468 15.838,13.653 13.653 C 16.473 10.834,16.787 6.378,14.390 3.190 C 12.867 1.166,10.473 -0.019,7.947 0.004 C 7.734 0.006,7.440 0.018,7.293 0.030 M8.285 4.594 C 8.341 4.633,9.072 5.352,9.910 6.192 C 11.132 7.418,11.440 7.740,11.467 7.823 C 11.512 7.966,11.488 8.165,11.411 8.280 C 11.337 8.388,11.122 8.507,11.001 8.506 C 10.801 8.505,10.712 8.429,9.593 7.312 L 8.507 6.228 8.507 8.627 C 8.506 10.219,8.497 11.061,8.478 11.127 C 8.444 11.253,8.309 11.410,8.195 11.457 C 8.084 11.503,7.916 11.503,7.805 11.457 C 7.691 11.410,7.556 11.253,7.522 11.127 C 7.503 11.061,7.494 10.219,7.493 8.627 L 7.493 6.228 6.407 7.312 C 5.288 8.429,5.199 8.505,4.999 8.506 C 4.875 8.507,4.663 8.388,4.587 8.276 C 4.532 8.195,4.520 8.145,4.520 8.000 C 4.520 7.850,4.531 7.806,4.593 7.718 C 4.717 7.539,7.685 4.593,7.787 4.548 C 7.928 4.484,8.157 4.506,8.285 4.594 " stroke="none" fill="black" fill-rule="evenodd"></path></svg>