<svg width="1em" height="1em" viewBox="0 0 16 16" class="bi bi-arrow-down-left-circle" fill="currentColor" xmlns="http://www.w3.org/2000/svg"><path d="M7.293 0.030 C 4.174 0.300,1.460 2.423,0.439 5.390 C -0.989 9.546,1.195 14.077,5.331 15.539 C 8.244 16.569,11.468 15.838,13.653 13.653 C 16.473 10.834,16.787 6.378,14.390 3.190 C 12.867 1.166,10.473 -0.019,7.947 0.004 C 7.734 0.006,7.440 0.018,7.293 0.030 M8.768 1.041 C 10.349 1.213,11.838 1.934,12.973 3.079 C 13.491 3.601,13.952 4.250,14.280 4.919 C 14.518 5.405,14.657 5.783,14.783 6.284 C 14.947 6.939,14.973 7.177,14.973 8.000 C 14.973 8.823,14.947 9.061,14.783 9.716 C 14.657 10.218,14.517 10.596,14.280 11.080 C 13.369 12.933,11.704 14.284,9.716 14.783 C 9.061 14.947,8.823 14.973,8.000 14.973 C 7.177 14.973,6.938 14.947,6.287 14.783 C 4.507 14.336,2.953 13.185,2.008 11.613 C 1.484 10.744,1.149 9.755,1.041 8.768 C 1.005 8.434,1.005 7.566,1.041 7.232 C 1.237 5.430,2.177 3.705,3.581 2.572 C 4.606 1.745,5.923 1.187,7.187 1.044 C 7.491 1.010,8.462 1.008,8.768 1.041 M10.373 5.021 C 10.259 5.043,10.151 5.146,8.127 7.168 L 6.000 9.293 6.000 7.866 C 6.000 7.015,5.989 6.402,5.974 6.346 C 5.944 6.239,5.784 6.070,5.672 6.028 C 5.485 5.958,5.233 6.032,5.110 6.193 C 5.070 6.246,5.028 6.349,5.012 6.435 C 4.994 6.532,4.987 7.293,4.992 8.605 C 4.999 10.448,5.004 10.634,5.045 10.709 C 5.104 10.816,5.261 10.954,5.354 10.980 C 5.451 11.007,9.505 11.006,9.634 10.979 C 9.767 10.951,9.932 10.791,9.974 10.649 C 10.025 10.477,9.989 10.310,9.871 10.181 C 9.703 9.994,9.762 10.000,8.155 10.000 L 6.707 10.000 8.832 7.873 C 10.854 5.849,10.957 5.741,10.979 5.627 C 11.055 5.237,10.763 4.945,10.373 5.021 " stroke="none" fill="black" fill-rule="evenodd"></path></svg>