<svg width="1em" height="1em" viewBox="0 0 16 16" class="bi bi-bag-plus" fill="currentColor" xmlns="http://www.w3.org/2000/svg"><path d="M7.440 0.544 C 6.887 0.643,6.316 0.888,5.890 1.211 C 5.087 1.819,4.575 2.765,4.514 3.753 L 4.499 4.000 2.743 4.000 L 0.987 4.000 0.987 8.953 C 0.988 11.868,0.998 14.014,1.013 14.167 C 1.062 14.668,1.252 15.073,1.599 15.413 C 1.904 15.713,2.225 15.884,2.630 15.961 C 2.932 16.019,13.068 16.019,13.370 15.961 C 13.775 15.884,14.096 15.713,14.401 15.413 C 14.748 15.073,14.938 14.668,14.987 14.167 C 15.002 14.014,15.012 11.868,15.013 8.953 L 15.013 4.000 13.257 4.000 L 11.501 4.000 11.484 3.740 C 11.453 3.267,11.336 2.853,11.104 2.400 C 10.628 1.468,9.760 0.803,8.720 0.573 C 8.449 0.514,7.708 0.497,7.440 0.544 M8.529 1.559 C 9.296 1.721,9.987 2.290,10.295 3.012 C 10.386 3.226,10.468 3.559,10.493 3.820 L 10.511 4.000 7.999 4.000 L 5.487 4.000 5.506 3.820 C 5.574 3.169,5.803 2.675,6.239 2.239 C 6.655 1.822,7.099 1.608,7.747 1.510 C 7.888 1.489,8.327 1.516,8.529 1.559 M14.000 9.571 C 14.000 14.057,13.999 14.130,13.947 14.297 C 13.851 14.600,13.648 14.813,13.337 14.939 L 13.187 15.000 8.160 15.008 C 4.954 15.012,3.054 15.006,2.915 14.989 C 2.575 14.948,2.331 14.801,2.165 14.539 C 1.989 14.263,2.000 14.591,2.000 9.568 L 2.000 5.013 8.000 5.013 L 14.000 5.013 14.000 9.571 M7.827 7.533 C 7.693 7.581,7.559 7.723,7.522 7.857 C 7.505 7.919,7.494 8.266,7.493 8.727 L 7.493 9.493 6.727 9.493 C 6.282 9.494,5.918 9.505,5.861 9.521 C 5.601 9.593,5.448 9.868,5.520 10.135 C 5.560 10.281,5.712 10.438,5.854 10.477 C 5.920 10.495,6.250 10.506,6.727 10.507 L 7.493 10.507 7.493 11.273 C 7.494 11.750,7.505 12.080,7.523 12.146 C 7.562 12.288,7.719 12.440,7.865 12.480 C 8.132 12.552,8.407 12.399,8.479 12.139 C 8.495 12.082,8.506 11.718,8.507 11.273 L 8.507 10.507 9.273 10.507 C 9.750 10.506,10.080 10.495,10.146 10.477 C 10.288 10.438,10.440 10.281,10.480 10.135 C 10.552 9.868,10.399 9.593,10.139 9.521 C 10.082 9.505,9.718 9.494,9.273 9.493 L 8.507 9.493 8.507 8.727 C 8.506 8.250,8.495 7.920,8.477 7.854 C 8.424 7.662,8.190 7.491,7.987 7.495 C 7.957 7.495,7.885 7.513,7.827 7.533 " stroke="none" fill="black" fill-rule="evenodd"></path></svg>