<svg width="1em" height="1em" viewBox="0 0 16 16" class="bi bi-basket2-fill" fill="currentColor" xmlns="http://www.w3.org/2000/svg"><path d="M4.276 1.056 C 4.230 1.079,4.165 1.127,4.131 1.163 C 4.094 1.202,3.690 2.177,3.117 3.607 L 2.165 5.987 1.247 6.000 C 0.331 6.013,0.329 6.013,0.236 6.078 C 0.184 6.113,0.113 6.184,0.078 6.236 C 0.015 6.327,0.013 6.345,0.005 6.931 C 0.001 7.262,0.004 7.573,0.013 7.622 C 0.036 7.743,0.220 7.939,0.343 7.973 C 0.396 7.988,0.587 8.000,0.766 8.000 C 1.082 8.000,1.093 8.002,1.107 8.060 C 1.115 8.093,1.439 9.601,1.827 11.411 C 2.480 14.464,2.537 14.710,2.608 14.798 C 2.649 14.850,2.731 14.917,2.788 14.947 C 2.892 14.999,2.946 15.000,8.000 15.000 C 13.054 15.000,13.108 14.999,13.212 14.947 C 13.269 14.917,13.351 14.850,13.392 14.798 C 13.463 14.710,13.520 14.464,14.173 11.411 C 14.561 9.601,14.885 8.093,14.893 8.060 C 14.907 8.002,14.918 8.000,15.234 8.000 C 15.413 8.000,15.602 7.988,15.654 7.974 C 15.772 7.941,15.939 7.773,15.974 7.652 C 16.008 7.533,16.008 6.467,15.974 6.348 C 15.947 6.256,15.819 6.102,15.720 6.044 C 15.683 6.023,15.379 6.009,14.751 6.000 L 13.835 5.987 12.883 3.607 C 12.305 2.164,11.906 1.202,11.869 1.162 C 11.777 1.064,11.649 1.013,11.495 1.013 C 11.340 1.013,11.245 1.054,11.143 1.164 C 11.039 1.277,11.013 1.342,11.013 1.492 C 11.013 1.607,11.140 1.943,11.870 3.767 C 12.341 4.944,12.733 5.928,12.740 5.953 C 12.752 5.998,12.514 6.000,8.000 6.000 C 3.486 6.000,3.248 5.998,3.260 5.953 C 3.267 5.928,3.659 4.944,4.130 3.767 C 5.043 1.487,5.047 1.473,4.949 1.285 C 4.906 1.203,4.788 1.087,4.702 1.043 C 4.618 1.000,4.374 1.008,4.276 1.056 M5.432 9.102 C 5.613 9.195,5.736 9.305,5.835 9.461 C 5.994 9.711,6.000 9.764,6.000 11.002 C 6.000 12.054,5.997 12.139,5.947 12.297 C 5.850 12.602,5.642 12.820,5.337 12.935 C 5.120 13.017,4.765 13.000,4.568 12.898 C 4.301 12.761,4.124 12.549,4.042 12.268 C 3.979 12.053,3.979 9.947,4.042 9.732 C 4.121 9.461,4.302 9.238,4.541 9.116 C 4.721 9.024,4.772 9.015,5.040 9.022 C 5.254 9.029,5.315 9.041,5.432 9.102 M8.428 9.100 C 8.616 9.192,8.808 9.384,8.901 9.572 L 8.973 9.720 8.973 11.000 L 8.973 12.280 8.901 12.428 C 8.808 12.616,8.616 12.808,8.428 12.901 C 8.295 12.966,8.251 12.973,8.000 12.973 C 7.749 12.973,7.705 12.966,7.572 12.901 C 7.384 12.808,7.192 12.616,7.099 12.428 L 7.027 12.280 7.019 11.036 C 7.012 9.855,7.014 9.786,7.064 9.655 C 7.162 9.396,7.386 9.169,7.645 9.064 C 7.842 8.985,8.230 9.003,8.428 9.100 M11.432 9.102 C 11.613 9.195,11.736 9.305,11.835 9.461 C 11.994 9.711,12.000 9.764,12.000 11.002 C 12.000 12.054,11.997 12.139,11.947 12.297 C 11.850 12.602,11.642 12.820,11.337 12.935 C 11.120 13.017,10.765 13.000,10.568 12.898 C 10.387 12.806,10.264 12.696,10.165 12.539 C 10.006 12.289,10.000 12.236,10.000 11.000 C 10.000 10.052,10.007 9.854,10.042 9.732 C 10.121 9.461,10.302 9.238,10.541 9.116 C 10.721 9.024,10.772 9.015,11.040 9.022 C 11.254 9.029,11.315 9.041,11.432 9.102 " stroke="none" fill="black" fill-rule="evenodd"></path></svg>