<svg width="1em" height="1em" viewBox="0 0 16 16" class="bi bi-battery" fill="currentColor" xmlns="http://www.w3.org/2000/svg"><path d="M1.600 4.042 C 0.952 4.181,0.407 4.629,0.157 5.226 C 0.000 5.601,0.000 5.608,0.000 8.000 C 0.000 10.392,0.000 10.399,0.157 10.774 C 0.350 11.235,0.765 11.650,1.226 11.843 C 1.622 12.009,1.308 12.000,7.000 12.000 C 11.625 12.000,12.211 11.995,12.394 11.958 C 13.184 11.796,13.796 11.184,13.958 10.394 C 14.021 10.086,14.021 5.914,13.958 5.606 C 13.796 4.816,13.184 4.204,12.394 4.042 C 12.211 4.005,11.629 4.000,6.981 4.002 C 2.622 4.004,1.745 4.010,1.600 4.042 M12.428 5.099 C 12.616 5.192,12.808 5.384,12.901 5.572 L 12.973 5.720 12.973 8.000 L 12.973 10.280 12.901 10.428 C 12.810 10.612,12.617 10.808,12.441 10.894 C 12.367 10.930,12.223 10.971,12.120 10.986 C 11.865 11.022,2.135 11.022,1.880 10.986 C 1.777 10.971,1.633 10.930,1.559 10.894 C 1.383 10.808,1.190 10.612,1.099 10.428 L 1.027 10.280 1.019 8.035 C 1.012 5.866,1.014 5.786,1.064 5.654 C 1.162 5.395,1.389 5.166,1.645 5.066 C 1.769 5.017,1.940 5.016,7.027 5.021 L 12.280 5.027 12.428 5.099 M14.507 8.000 L 14.507 9.501 14.681 9.483 C 15.498 9.399,16.100 8.610,15.979 7.783 C 15.942 7.526,15.794 7.200,15.627 7.008 C 15.407 6.755,15.003 6.545,14.675 6.515 L 14.507 6.499 14.507 8.000 " stroke="none" fill="black" fill-rule="evenodd"></path></svg>