<svg width="1em" height="1em" viewBox="0 0 16 16" class="bi bi-bell" fill="currentColor" xmlns="http://www.w3.org/2000/svg"><path d="M7.731 0.035 C 7.333 0.148,7.045 0.498,7.019 0.900 L 7.006 1.093 6.896 1.121 C 6.636 1.187,6.399 1.261,6.200 1.338 C 4.673 1.930,3.549 3.208,3.148 4.807 C 3.056 5.171,3.021 5.487,2.986 6.245 C 2.946 7.129,2.837 8.059,2.663 9.013 C 2.434 10.266,2.160 11.196,1.801 11.933 C 1.588 12.372,1.367 12.693,1.145 12.887 L 1.001 13.013 8.000 13.013 L 14.999 13.013 14.855 12.887 C 14.428 12.514,13.995 11.647,13.684 10.547 C 13.343 9.340,13.080 7.657,13.014 6.260 C 12.979 5.513,12.966 5.372,12.903 5.040 C 12.660 3.769,11.878 2.586,10.802 1.863 C 10.272 1.506,9.807 1.304,9.104 1.122 L 8.994 1.093 8.981 0.898 C 8.959 0.554,8.736 0.238,8.410 0.088 C 8.233 0.007,7.916 -0.018,7.731 0.035 M8.486 2.016 C 9.158 2.156,9.358 2.220,9.773 2.426 C 10.555 2.814,11.149 3.396,11.543 4.160 C 11.860 4.774,11.965 5.219,12.002 6.093 C 12.088 8.129,12.482 10.295,13.036 11.780 L 13.119 12.000 8.000 12.000 L 2.881 12.000 2.964 11.780 C 3.511 10.329,3.913 8.119,3.998 6.093 C 4.025 5.456,4.076 5.127,4.214 4.715 C 4.599 3.560,5.546 2.614,6.713 2.215 C 6.923 2.144,7.838 1.932,7.979 1.923 C 8.005 1.921,8.233 1.963,8.486 2.016 M6.000 14.094 C 6.000 14.247,6.078 14.586,6.157 14.774 C 6.350 15.235,6.765 15.650,7.226 15.843 C 8.387 16.328,9.705 15.630,9.958 14.394 C 9.981 14.281,10.000 14.146,10.000 14.094 L 10.000 14.000 8.000 14.000 L 6.000 14.000 6.000 14.094 " stroke="none" fill="black" fill-rule="evenodd"></path></svg>