<svg width="1em" height="1em" viewBox="0 0 16 16" class="bi bi-bezier" fill="currentColor" xmlns="http://www.w3.org/2000/svg"><path d="M7.080 3.063 C 6.527 3.222,6.105 3.710,6.021 4.287 L 5.989 4.507 3.931 4.507 L 1.873 4.507 1.833 4.447 C 1.750 4.319,1.579 4.177,1.413 4.097 C 1.259 4.022,1.214 4.013,1.000 4.013 C 0.786 4.013,0.741 4.022,0.587 4.096 C 0.367 4.201,0.203 4.366,0.097 4.587 C 0.022 4.741,0.013 4.786,0.013 5.000 C 0.013 5.207,0.024 5.262,0.089 5.403 C 0.184 5.609,0.390 5.814,0.600 5.912 C 0.738 5.976,0.793 5.986,1.000 5.986 C 1.323 5.985,1.508 5.904,1.733 5.663 L 1.892 5.493 3.206 5.500 L 4.520 5.507 4.347 5.624 C 3.622 6.115,2.951 6.812,2.491 7.553 C 2.292 7.874,2.026 8.413,1.906 8.740 L 1.805 9.013 1.540 9.013 C 1.074 9.013,0.760 9.137,0.450 9.440 C 0.245 9.641,0.096 9.910,0.038 10.184 C -0.014 10.429,-0.014 11.571,0.038 11.816 C 0.156 12.371,0.603 12.823,1.173 12.964 C 1.373 13.013,2.618 13.014,2.826 12.966 C 3.380 12.836,3.845 12.366,3.961 11.820 C 4.014 11.571,4.014 10.431,3.962 10.184 C 3.858 9.696,3.482 9.262,3.014 9.091 L 2.858 9.035 2.915 8.897 C 3.419 7.674,4.413 6.625,5.613 6.051 C 5.992 5.870,6.053 5.849,6.053 5.900 C 6.053 5.920,6.102 6.037,6.161 6.160 C 6.354 6.558,6.726 6.853,7.173 6.964 C 7.373 7.013,8.618 7.014,8.826 6.966 C 9.258 6.864,9.637 6.563,9.836 6.164 C 9.897 6.041,9.947 5.923,9.947 5.902 C 9.947 5.849,10.004 5.868,10.387 6.051 C 11.544 6.604,12.483 7.568,13.015 8.747 C 13.084 8.901,13.136 9.036,13.129 9.047 C 13.122 9.058,13.095 9.067,13.069 9.067 C 13.042 9.067,12.933 9.110,12.826 9.164 C 12.438 9.358,12.128 9.759,12.038 10.184 C 11.986 10.429,11.986 11.571,12.038 11.816 C 12.156 12.371,12.603 12.823,13.173 12.964 C 13.373 13.013,14.618 13.014,14.826 12.966 C 15.380 12.836,15.845 12.366,15.961 11.820 C 16.014 11.571,16.014 10.431,15.962 10.184 C 15.849 9.653,15.410 9.189,14.892 9.054 C 14.801 9.030,14.622 9.013,14.465 9.013 L 14.195 9.013 14.094 8.740 C 13.970 8.406,13.683 7.829,13.482 7.510 C 13.043 6.814,12.407 6.153,11.707 5.665 L 11.481 5.507 12.800 5.500 C 14.035 5.493,14.122 5.496,14.154 5.540 C 14.254 5.679,14.433 5.830,14.587 5.904 C 14.741 5.977,14.786 5.986,15.000 5.986 C 15.206 5.986,15.263 5.975,15.400 5.912 C 15.610 5.814,15.816 5.609,15.911 5.403 C 15.976 5.262,15.987 5.207,15.987 5.000 C 15.987 4.786,15.978 4.741,15.903 4.587 C 15.797 4.366,15.633 4.201,15.413 4.096 C 15.259 4.022,15.214 4.013,15.000 4.013 C 14.786 4.013,14.741 4.022,14.587 4.097 C 14.421 4.177,14.250 4.319,14.167 4.447 L 14.127 4.507 12.069 4.507 L 10.011 4.507 9.979 4.287 C 9.894 3.702,9.451 3.200,8.892 3.054 C 8.653 2.992,7.305 2.999,7.080 3.063 M8.710 4.051 C 8.770 4.078,8.854 4.146,8.896 4.202 L 8.973 4.303 8.973 5.000 L 8.973 5.697 8.896 5.798 C 8.756 5.982,8.682 5.999,8.000 5.999 C 7.318 5.999,7.244 5.982,7.104 5.798 L 7.027 5.697 7.027 5.000 L 7.027 4.303 7.104 4.202 C 7.244 4.018,7.318 4.001,8.000 4.001 C 8.529 4.001,8.613 4.007,8.710 4.051 M2.710 10.051 C 2.770 10.078,2.854 10.146,2.896 10.202 L 2.973 10.303 2.973 11.000 L 2.973 11.697 2.896 11.798 C 2.756 11.982,2.682 11.999,2.000 11.999 C 1.318 11.999,1.244 11.982,1.104 11.798 L 1.027 11.697 1.027 11.000 L 1.027 10.303 1.104 10.202 C 1.244 10.018,1.318 10.001,2.000 10.001 C 2.529 10.001,2.613 10.007,2.710 10.051 M14.710 10.051 C 14.770 10.078,14.854 10.146,14.896 10.202 L 14.973 10.303 14.973 11.000 L 14.973 11.697 14.896 11.798 C 14.756 11.982,14.682 11.999,14.000 11.999 C 13.318 11.999,13.244 11.982,13.104 11.798 L 13.027 11.697 13.027 11.000 L 13.027 10.303 13.104 10.202 C 13.244 10.018,13.318 10.001,14.000 10.001 C 14.529 10.001,14.613 10.007,14.710 10.051 " stroke="none" fill="black" fill-rule="evenodd"></path></svg>