<svg width="1em" height="1em" viewBox="0 0 16 16" class="bi bi-bicycle" fill="currentColor" xmlns="http://www.w3.org/2000/svg"><path d="M4.307 4.037 C 4.047 4.152,3.933 4.450,4.051 4.710 C 4.150 4.928,4.353 5.013,4.777 5.013 L 4.987 5.013 4.987 5.445 L 4.987 5.877 4.570 6.545 C 4.341 6.913,4.152 7.215,4.150 7.217 C 4.148 7.219,4.043 7.187,3.917 7.146 C 3.581 7.036,3.310 7.004,2.857 7.021 C 2.268 7.043,1.828 7.184,1.333 7.508 C 1.089 7.668,0.689 8.060,0.534 8.290 C -0.175 9.347,-0.174 10.664,0.536 11.710 C 0.599 11.804,0.753 11.983,0.879 12.109 C 1.259 12.492,1.707 12.754,2.230 12.900 C 2.475 12.968,2.529 12.973,3.000 12.973 C 3.472 12.973,3.525 12.968,3.773 12.899 C 4.602 12.669,5.294 12.105,5.676 11.346 C 5.789 11.120,5.910 10.780,5.937 10.610 L 5.953 10.509 7.054 10.501 L 8.155 10.493 8.269 10.413 C 8.364 10.346,8.547 10.069,9.428 8.659 C 10.004 7.737,10.485 6.983,10.498 6.981 C 10.510 6.979,10.629 7.151,10.762 7.362 L 11.005 7.747 10.826 7.937 C 9.957 8.858,9.755 10.209,10.319 11.337 C 10.471 11.641,10.625 11.854,10.879 12.109 C 11.259 12.492,11.707 12.754,12.230 12.900 C 12.475 12.968,12.529 12.973,13.000 12.973 C 13.472 12.973,13.525 12.968,13.773 12.899 C 15.611 12.390,16.526 10.353,15.678 8.656 C 15.250 7.799,14.395 7.174,13.467 7.038 C 13.122 6.988,12.525 7.019,12.218 7.104 C 12.082 7.142,11.945 7.187,11.915 7.203 C 11.871 7.226,11.854 7.225,11.838 7.196 C 11.826 7.176,11.644 6.884,11.432 6.547 L 11.048 5.933 11.200 5.480 L 11.351 5.027 11.736 5.011 C 12.056 4.998,12.138 4.986,12.231 4.938 C 12.597 4.750,12.579 4.222,12.201 4.050 C 12.107 4.007,12.018 4.001,11.495 4.001 C 10.942 4.000,10.888 4.004,10.782 4.056 C 10.719 4.086,10.641 4.147,10.610 4.191 C 10.578 4.236,10.460 4.544,10.347 4.876 L 10.141 5.480 8.071 5.487 L 6.000 5.494 6.000 5.240 L 6.000 4.987 6.068 4.987 C 6.165 4.987,6.333 4.894,6.397 4.804 C 6.586 4.539,6.493 4.183,6.201 4.050 C 6.104 4.006,6.012 4.001,5.240 4.002 C 4.591 4.002,4.367 4.011,4.307 4.037 M9.573 6.523 C 9.573 6.547,8.015 9.039,8.000 9.039 C 7.985 9.039,6.427 6.547,6.427 6.523 C 6.427 6.514,7.135 6.507,8.000 6.507 C 8.865 6.507,9.573 6.514,9.573 6.523 M6.187 8.040 C 6.543 8.612,6.893 9.173,6.964 9.287 L 7.094 9.493 6.527 9.493 L 5.960 9.493 5.911 9.287 C 5.788 8.770,5.462 8.201,5.086 7.844 L 4.992 7.755 5.153 7.497 C 5.471 6.991,5.497 6.953,5.518 6.977 C 5.529 6.989,5.830 7.468,6.187 8.040 M3.375 8.039 C 3.488 8.061,3.585 8.083,3.590 8.088 C 3.595 8.093,3.357 8.484,3.062 8.957 C 2.483 9.883,2.457 9.943,2.532 10.168 C 2.571 10.288,2.739 10.441,2.871 10.478 C 2.935 10.496,3.345 10.506,3.955 10.507 L 4.937 10.507 4.919 10.567 C 4.618 11.550,3.629 12.153,2.630 11.961 C 2.225 11.884,1.904 11.713,1.599 11.413 C 1.367 11.186,1.211 10.939,1.102 10.627 C 1.033 10.428,1.027 10.384,1.027 10.000 C 1.027 9.616,1.033 9.572,1.102 9.373 C 1.211 9.061,1.367 8.814,1.599 8.587 C 2.085 8.109,2.718 7.914,3.375 8.039 M13.370 8.039 C 13.775 8.116,14.096 8.287,14.401 8.587 C 14.633 8.814,14.789 9.061,14.898 9.373 C 14.967 9.572,14.973 9.616,14.973 10.000 C 14.973 10.384,14.967 10.428,14.898 10.627 C 14.857 10.744,14.774 10.924,14.714 11.027 C 14.585 11.248,14.260 11.576,14.046 11.703 C 13.382 12.095,12.618 12.095,11.954 11.703 C 11.740 11.576,11.415 11.248,11.286 11.027 C 11.102 10.713,11.033 10.467,11.019 10.078 C 11.006 9.695,11.055 9.438,11.199 9.136 C 11.281 8.963,11.504 8.640,11.540 8.640 C 11.551 8.640,11.793 9.012,12.077 9.467 C 12.360 9.921,12.633 10.329,12.683 10.372 C 12.838 10.509,13.043 10.533,13.229 10.438 C 13.337 10.383,13.462 10.225,13.482 10.119 C 13.522 9.907,13.492 9.844,12.936 8.954 C 12.642 8.483,12.405 8.093,12.410 8.087 C 12.416 8.082,12.502 8.061,12.603 8.041 C 12.848 7.993,13.125 7.992,13.370 8.039 M4.554 8.740 C 4.684 8.905,4.795 9.100,4.866 9.289 C 4.903 9.388,4.933 9.474,4.933 9.481 C 4.933 9.488,4.704 9.493,4.424 9.493 C 4.145 9.493,3.920 9.483,3.924 9.471 C 3.950 9.407,4.442 8.640,4.457 8.640 C 4.467 8.640,4.511 8.685,4.554 8.740 " stroke="none" fill="black" fill-rule="evenodd"></path></svg>