<svg width="1em" height="1em" viewBox="0 0 16 16" class="bi bi-book-fill" fill="currentColor" xmlns="http://www.w3.org/2000/svg"><path d="M10.838 1.017 C 9.741 1.081,8.768 1.461,8.128 2.075 L 8.004 2.194 7.835 2.040 C 7.484 1.719,6.954 1.417,6.455 1.254 C 5.924 1.080,5.440 1.013,4.721 1.013 C 3.494 1.013,2.211 1.290,0.735 1.874 C 0.234 2.072,0.101 2.155,0.036 2.312 C 0.006 2.384,-0.000 3.331,-0.000 7.847 L -0.000 13.295 0.060 13.414 C 0.188 13.667,0.466 13.762,0.760 13.653 C 1.847 13.249,2.721 13.013,3.583 12.891 C 3.978 12.835,5.026 12.811,5.384 12.850 C 6.382 12.959,7.265 13.319,7.829 13.846 L 8.000 14.006 8.167 13.850 C 8.647 13.402,9.393 13.057,10.213 12.904 C 10.513 12.848,10.624 12.841,11.307 12.841 C 12.121 12.840,12.373 12.864,13.059 13.003 C 13.705 13.133,14.389 13.337,15.240 13.653 C 15.509 13.753,15.754 13.685,15.907 13.469 L 15.987 13.355 15.994 7.898 C 16.000 4.140,15.994 2.410,15.974 2.343 C 15.925 2.171,15.789 2.081,15.266 1.875 C 13.625 1.226,12.145 0.940,10.838 1.017 " stroke="none" fill="black" fill-rule="evenodd"></path></svg>