<svg width="1em" height="1em" viewBox="0 0 16 16" class="bi bi-border-style" fill="currentColor" xmlns="http://www.w3.org/2000/svg"><path d="M1.266 3.063 C 1.161 3.127,1.046 3.264,1.020 3.355 C 1.009 3.395,1.000 3.697,1.000 4.027 C 1.000 4.541,1.006 4.638,1.045 4.709 C 1.104 4.816,1.261 4.954,1.354 4.980 C 1.394 4.991,4.397 5.000,8.027 5.000 L 14.627 5.000 14.734 4.939 C 14.870 4.860,14.963 4.724,14.990 4.565 C 15.016 4.403,15.016 3.597,14.990 3.435 C 14.964 3.279,14.870 3.139,14.743 3.068 L 14.646 3.013 7.996 3.013 C 1.566 3.014,1.344 3.015,1.266 3.063 M1.266 7.063 C 1.161 7.127,1.046 7.264,1.020 7.355 C 1.009 7.395,1.000 7.697,1.000 8.027 C 1.000 8.541,1.006 8.638,1.045 8.709 C 1.104 8.816,1.261 8.954,1.354 8.980 C 1.394 8.991,2.597 9.000,4.027 9.000 L 6.627 9.000 6.734 8.939 C 6.870 8.860,6.963 8.724,6.990 8.565 C 7.001 8.496,7.010 8.242,7.010 8.000 C 7.010 7.758,7.001 7.504,6.990 7.435 C 6.964 7.279,6.870 7.139,6.743 7.068 C 6.647 7.014,6.620 7.013,3.996 7.013 C 1.463 7.014,1.343 7.016,1.266 7.063 M9.266 7.063 C 9.161 7.127,9.046 7.264,9.020 7.355 C 9.009 7.395,9.000 7.697,9.000 8.027 C 9.000 8.541,9.006 8.638,9.045 8.709 C 9.104 8.816,9.261 8.954,9.354 8.980 C 9.394 8.991,10.597 9.000,12.027 9.000 L 14.627 9.000 14.734 8.939 C 14.870 8.860,14.963 8.724,14.990 8.565 C 15.016 8.403,15.016 7.597,14.990 7.435 C 14.964 7.279,14.870 7.139,14.743 7.068 C 14.647 7.014,14.620 7.013,11.996 7.013 C 9.463 7.014,9.343 7.016,9.266 7.063 M1.266 11.063 C 1.161 11.127,1.046 11.264,1.020 11.355 C 1.009 11.395,1.000 11.697,1.000 12.027 C 1.000 12.541,1.006 12.638,1.045 12.709 C 1.104 12.816,1.261 12.954,1.354 12.980 C 1.394 12.991,1.697 13.000,2.027 13.000 C 2.604 13.000,2.631 12.998,2.734 12.939 C 2.870 12.860,2.963 12.724,2.990 12.565 C 3.001 12.496,3.010 12.242,3.010 12.000 C 3.010 11.758,3.001 11.504,2.990 11.435 C 2.964 11.279,2.870 11.139,2.743 11.068 C 2.653 11.017,2.602 11.013,1.996 11.013 C 1.411 11.014,1.339 11.018,1.266 11.063 M5.266 11.063 C 5.161 11.127,5.046 11.264,5.020 11.355 C 5.009 11.395,5.000 11.697,5.000 12.027 C 5.000 12.541,5.006 12.638,5.045 12.709 C 5.104 12.816,5.261 12.954,5.354 12.980 C 5.394 12.991,5.697 13.000,6.027 13.000 C 6.604 13.000,6.631 12.998,6.734 12.939 C 6.870 12.860,6.963 12.724,6.990 12.565 C 7.001 12.496,7.010 12.242,7.010 12.000 C 7.010 11.758,7.001 11.504,6.990 11.435 C 6.964 11.279,6.870 11.139,6.743 11.068 C 6.653 11.017,6.602 11.013,5.996 11.013 C 5.411 11.014,5.339 11.018,5.266 11.063 M9.266 11.063 C 9.161 11.127,9.046 11.264,9.020 11.355 C 9.009 11.395,9.000 11.697,9.000 12.027 C 9.000 12.541,9.006 12.638,9.045 12.709 C 9.104 12.816,9.261 12.954,9.354 12.980 C 9.394 12.991,9.697 13.000,10.027 13.000 C 10.604 13.000,10.631 12.998,10.734 12.939 C 10.870 12.860,10.963 12.724,10.990 12.565 C 11.001 12.496,11.010 12.242,11.010 12.000 C 11.010 11.758,11.001 11.504,10.990 11.435 C 10.964 11.279,10.870 11.139,10.743 11.068 C 10.653 11.017,10.602 11.013,9.996 11.013 C 9.411 11.014,9.339 11.018,9.266 11.063 M13.266 11.063 C 13.161 11.127,13.046 11.264,13.020 11.355 C 13.009 11.395,13.000 11.697,13.000 12.027 C 13.000 12.541,13.006 12.638,13.045 12.709 C 13.104 12.816,13.261 12.954,13.354 12.980 C 13.394 12.991,13.697 13.000,14.027 13.000 C 14.604 13.000,14.631 12.998,14.734 12.939 C 14.870 12.860,14.963 12.724,14.990 12.565 C 15.001 12.496,15.010 12.242,15.010 12.000 C 15.010 11.758,15.001 11.504,14.990 11.435 C 14.964 11.279,14.870 11.139,14.743 11.068 C 14.653 11.017,14.602 11.013,13.996 11.013 C 13.411 11.014,13.339 11.018,13.266 11.063 " stroke="none" fill="black" fill-rule="evenodd"></path></svg>