<svg width="1em" height="1em" viewBox="0 0 16 16" class="bi bi-box-arrow-in-up" fill="currentColor" xmlns="http://www.w3.org/2000/svg"><path d="M2.535 1.080 C 2.071 1.230,1.702 1.612,1.555 2.093 C 1.509 2.245,1.507 2.465,1.507 6.507 C 1.507 10.607,1.508 10.765,1.557 10.907 C 1.693 11.302,1.950 11.627,2.271 11.809 C 2.571 11.979,2.729 12.000,3.718 11.999 C 4.713 11.999,4.748 11.993,4.896 11.799 C 4.958 11.717,4.974 11.667,4.981 11.523 C 4.989 11.368,4.982 11.334,4.918 11.237 C 4.779 11.026,4.793 11.028,3.787 11.013 C 2.781 10.998,2.765 10.995,2.602 10.791 L 2.520 10.688 2.520 6.509 L 2.520 2.329 2.592 2.221 C 2.635 2.156,2.710 2.091,2.780 2.057 L 2.897 2.000 8.000 2.000 L 13.103 2.000 13.220 2.057 C 13.290 2.091,13.365 2.156,13.408 2.221 L 13.480 2.329 13.480 6.509 L 13.480 10.688 13.398 10.791 C 13.235 10.995,13.219 10.998,12.213 11.013 C 11.584 11.023,11.303 11.036,11.264 11.059 C 11.179 11.107,11.043 11.272,11.024 11.348 C 10.989 11.487,11.027 11.698,11.106 11.801 C 11.252 11.993,11.289 11.999,12.282 11.999 C 13.256 12.000,13.418 11.980,13.715 11.821 C 13.940 11.700,14.223 11.402,14.333 11.170 C 14.518 10.781,14.509 11.040,14.501 6.406 C 14.494 2.438,14.491 2.219,14.444 2.080 C 14.291 1.619,13.944 1.251,13.507 1.087 L 13.347 1.027 8.040 1.021 L 2.733 1.015 2.535 1.080 M7.800 4.051 C 7.668 4.113,4.576 7.203,4.535 7.315 C 4.422 7.618,4.627 7.957,4.943 7.993 C 5.187 8.020,5.184 8.022,6.380 6.831 L 7.493 5.721 7.493 10.137 C 7.493 13.401,7.501 14.576,7.524 14.643 C 7.600 14.866,7.767 14.987,8.000 14.987 C 8.233 14.987,8.400 14.866,8.476 14.643 C 8.499 14.576,8.507 13.401,8.507 10.136 L 8.507 5.721 9.607 6.819 C 10.354 7.566,10.738 7.931,10.806 7.959 C 11.207 8.125,11.617 7.724,11.465 7.315 C 11.424 7.203,8.332 4.113,8.200 4.051 C 8.141 4.024,8.051 4.001,8.000 4.001 C 7.949 4.001,7.859 4.024,7.800 4.051 " stroke="none" fill="black" fill-rule="evenodd"></path></svg>