<svg width="1em" height="1em" viewBox="0 0 16 16" class="bi bi-bucket-fill" fill="currentColor" xmlns="http://www.w3.org/2000/svg"><path d="M7.277 0.547 C 4.989 0.855,3.114 2.581,2.629 4.828 C 2.592 4.996,2.555 5.213,2.545 5.311 L 2.526 5.488 2.190 5.498 C 1.934 5.506,1.832 5.520,1.766 5.555 C 1.653 5.616,1.529 5.789,1.507 5.915 C 1.495 5.992,1.707 6.989,2.425 10.220 C 2.939 12.532,3.385 14.487,3.415 14.565 C 3.539 14.878,3.820 15.183,4.121 15.332 C 4.466 15.502,4.263 15.493,8.000 15.493 C 10.981 15.493,11.422 15.488,11.560 15.452 C 11.993 15.340,12.336 15.061,12.529 14.664 C 12.633 14.452,12.689 14.217,13.574 10.228 C 14.293 6.992,14.505 5.992,14.493 5.915 C 14.471 5.789,14.347 5.616,14.234 5.555 C 14.168 5.520,14.066 5.506,13.811 5.498 L 13.475 5.488 13.442 5.231 C 13.290 4.054,12.687 2.879,11.801 2.032 C 10.988 1.254,10.040 0.778,8.893 0.571 C 8.558 0.511,7.649 0.497,7.277 0.547 M8.786 1.573 C 9.810 1.748,10.768 2.305,11.452 3.120 C 11.947 3.710,12.319 4.516,12.433 5.247 L 12.472 5.493 8.000 5.493 L 3.527 5.493 3.565 5.260 C 3.825 3.635,5.016 2.244,6.586 1.733 C 7.319 1.495,8.026 1.443,8.786 1.573 " stroke="none" fill="black" fill-rule="evenodd"></path></svg>