<svg width="1em" height="1em" viewBox="0 0 16 16" class="bi bi-calendar3-event" fill="currentColor" xmlns="http://www.w3.org/2000/svg"><path d="M1.600 0.042 C 0.952 0.181,0.407 0.629,0.157 1.226 C -0.010 1.625,0.000 1.207,0.000 8.000 C 0.000 14.793,-0.010 14.375,0.157 14.774 C 0.350 15.235,0.765 15.650,1.226 15.843 C 1.625 16.010,1.207 16.000,8.000 16.000 C 13.536 16.000,14.211 15.996,14.394 15.958 C 15.184 15.796,15.796 15.184,15.958 14.394 C 15.996 14.211,16.000 13.536,16.000 8.000 C 16.000 2.464,15.996 1.789,15.958 1.606 C 15.796 0.816,15.184 0.204,14.394 0.042 C 14.210 0.004,13.540 0.000,7.981 0.002 C 2.765 0.004,1.746 0.010,1.600 0.042 M14.458 3.098 C 14.655 3.190,14.834 3.357,14.919 3.527 L 14.987 3.664 14.987 9.000 L 14.987 14.336 14.919 14.473 C 14.781 14.749,14.488 14.940,14.130 14.986 C 13.864 15.021,2.136 15.021,1.870 14.986 C 1.512 14.940,1.219 14.749,1.081 14.473 L 1.013 14.336 1.014 9.001 C 1.014 3.839,1.016 3.663,1.065 3.556 C 1.166 3.334,1.403 3.133,1.661 3.052 C 1.753 3.023,2.910 3.018,8.040 3.022 L 14.307 3.027 14.458 3.098 M11.645 5.064 C 11.384 5.169,11.162 5.396,11.062 5.658 C 10.983 5.868,11.000 6.225,11.099 6.428 C 11.192 6.616,11.384 6.808,11.572 6.901 C 11.705 6.966,11.749 6.973,12.000 6.973 C 12.251 6.973,12.295 6.966,12.428 6.901 C 12.616 6.808,12.808 6.616,12.901 6.428 C 12.966 6.295,12.973 6.251,12.973 6.000 C 12.973 5.749,12.966 5.705,12.901 5.572 C 12.808 5.384,12.616 5.192,12.428 5.100 C 12.230 5.003,11.842 4.985,11.645 5.064 " stroke="none" fill="black" fill-rule="evenodd"></path></svg>