<svg width="1em" height="1em" viewBox="0 0 16 16" class="bi bi-calendar-range-fill" fill="currentColor" xmlns="http://www.w3.org/2000/svg"><path d="M3.290 0.051 C 3.070 0.151,2.987 0.353,2.987 0.788 L 2.987 1.009 2.287 1.019 C 1.601 1.027,1.582 1.029,1.373 1.102 C 1.062 1.211,0.814 1.367,0.587 1.599 C 0.374 1.815,0.249 2.004,0.142 2.267 C 0.029 2.548,0.000 2.781,0.000 3.416 L 0.000 4.000 8.000 4.000 L 16.000 4.000 16.000 3.416 C 16.000 2.781,15.971 2.548,15.858 2.267 C 15.751 2.004,15.626 1.815,15.413 1.599 C 15.186 1.367,14.938 1.211,14.627 1.102 C 14.418 1.029,14.399 1.027,13.713 1.019 L 13.013 1.009 13.013 0.788 C 13.013 0.346,12.930 0.149,12.699 0.047 C 12.472 -0.053,12.224 0.022,12.078 0.236 C 12.019 0.320,12.013 0.361,12.005 0.671 L 11.996 1.013 7.998 1.013 L 4.000 1.013 4.000 0.727 C 4.000 0.372,3.974 0.278,3.847 0.154 C 3.679 -0.009,3.497 -0.043,3.290 0.051 M0.000 7.506 L 0.000 9.999 2.620 10.006 L 5.240 10.013 5.413 10.096 C 5.633 10.201,5.797 10.366,5.903 10.587 C 5.977 10.741,5.986 10.786,5.986 11.000 C 5.986 11.214,5.977 11.259,5.903 11.413 C 5.797 11.634,5.633 11.799,5.413 11.904 L 5.240 11.987 2.620 11.994 L -0.000 12.001 -0.000 13.095 C -0.000 14.290,0.013 14.430,0.157 14.774 C 0.350 15.235,0.765 15.650,1.226 15.843 C 1.625 16.010,1.207 16.000,8.000 16.000 C 13.536 16.000,14.211 15.996,14.394 15.958 C 15.184 15.796,15.796 15.184,15.958 14.394 C 15.995 14.215,16.000 13.855,16.000 11.601 L 16.000 9.013 13.033 9.013 C 11.202 9.012,9.995 9.002,9.880 8.986 C 9.777 8.971,9.633 8.930,9.559 8.894 C 9.383 8.808,9.190 8.612,9.099 8.428 C 9.034 8.295,9.027 8.251,9.027 8.000 C 9.027 7.749,9.034 7.705,9.099 7.572 C 9.192 7.384,9.384 7.192,9.572 7.099 L 9.720 7.027 12.860 7.020 L 16.000 7.013 16.000 6.013 L 16.000 5.013 8.000 5.013 L 0.000 5.013 0.000 7.506 " stroke="none" fill="black" fill-rule="evenodd"></path></svg>