<svg width="1em" height="1em" viewBox="0 0 16 16" class="bi bi-calendar-date" fill="currentColor" xmlns="http://www.w3.org/2000/svg"><path d="M3.290 0.051 C 3.070 0.151,2.987 0.353,2.987 0.788 L 2.987 1.009 2.287 1.019 C 1.601 1.027,1.582 1.029,1.373 1.102 C 1.062 1.211,0.814 1.367,0.587 1.599 C 0.374 1.815,0.249 2.004,0.142 2.267 C -0.006 2.635,0.000 2.358,0.000 8.510 C 0.000 14.742,-0.009 14.377,0.157 14.774 C 0.350 15.235,0.765 15.650,1.226 15.843 C 1.625 16.010,1.207 16.000,8.000 16.000 C 13.536 16.000,14.211 15.996,14.394 15.958 C 15.184 15.796,15.796 15.184,15.958 14.394 C 15.995 14.211,16.000 13.582,16.000 8.510 C 16.000 2.358,16.006 2.635,15.858 2.267 C 15.751 2.004,15.626 1.815,15.413 1.599 C 15.186 1.367,14.938 1.211,14.627 1.102 C 14.418 1.029,14.399 1.027,13.713 1.019 L 13.013 1.009 13.013 0.788 C 13.013 0.346,12.930 0.149,12.699 0.047 C 12.472 -0.053,12.224 0.022,12.078 0.236 C 12.019 0.320,12.013 0.361,12.005 0.671 L 11.996 1.013 7.998 1.013 L 4.000 1.013 4.000 0.727 C 4.000 0.372,3.974 0.278,3.847 0.154 C 3.679 -0.009,3.497 -0.043,3.290 0.051 M14.980 9.140 L 14.973 14.280 14.901 14.428 C 14.810 14.612,14.617 14.808,14.441 14.894 C 14.367 14.930,14.223 14.971,14.120 14.986 C 13.864 15.022,2.136 15.022,1.880 14.986 C 1.777 14.971,1.633 14.930,1.559 14.894 C 1.383 14.808,1.190 14.612,1.099 14.428 L 1.027 14.280 1.020 9.140 L 1.013 4.000 8.000 4.000 L 14.987 4.000 14.980 9.140 M9.160 6.266 C 8.423 6.352,7.834 6.860,7.651 7.565 C 7.592 7.795,7.579 8.234,7.624 8.467 C 7.779 9.271,8.428 9.814,9.240 9.819 C 9.387 9.820,9.579 9.806,9.667 9.788 C 10.048 9.709,10.420 9.455,10.590 9.160 L 10.666 9.027 10.666 9.187 C 10.667 9.276,10.654 9.450,10.639 9.574 C 10.541 10.370,10.259 10.893,9.815 11.104 C 9.656 11.179,9.616 11.187,9.373 11.187 C 9.074 11.187,8.911 11.143,8.709 11.009 C 8.554 10.907,8.388 10.677,8.344 10.505 L 8.310 10.373 7.983 10.373 C 7.804 10.373,7.650 10.383,7.643 10.395 C 7.615 10.440,7.711 10.760,7.807 10.944 C 8.082 11.469,8.661 11.788,9.339 11.786 C 10.062 11.785,10.640 11.414,10.980 10.733 C 11.089 10.516,11.211 10.122,11.270 9.800 C 11.338 9.427,11.338 8.393,11.271 8.031 C 11.066 6.936,10.552 6.375,9.654 6.267 C 9.411 6.238,9.400 6.238,9.160 6.266 M5.503 6.529 C 5.326 6.629,5.029 6.810,4.844 6.932 L 4.507 7.153 4.507 7.498 C 4.507 7.767,4.514 7.839,4.540 7.823 C 4.558 7.812,4.687 7.729,4.827 7.640 C 5.120 7.450,5.719 7.093,5.743 7.093 C 5.753 7.093,5.760 8.125,5.760 9.387 L 5.760 11.680 6.107 11.680 L 6.453 11.680 6.453 9.013 L 6.453 6.347 6.139 6.347 L 5.825 6.347 5.503 6.529 M9.627 6.854 C 9.862 6.891,10.159 7.039,10.281 7.181 C 10.606 7.558,10.679 8.171,10.452 8.617 C 10.421 8.676,10.346 8.779,10.285 8.846 C 9.985 9.171,9.575 9.306,9.153 9.217 C 8.713 9.124,8.419 8.846,8.303 8.413 C 8.255 8.233,8.257 7.860,8.308 7.666 C 8.433 7.186,8.860 6.860,9.400 6.830 C 9.429 6.828,9.531 6.839,9.627 6.854 " stroke="none" fill="black" fill-rule="evenodd"></path></svg>