<svg width="1em" height="1em" viewBox="0 0 16 16" class="bi bi-calendar4-week" fill="currentColor" xmlns="http://www.w3.org/2000/svg"><path d="M3.290 0.051 C 3.072 0.150,2.987 0.354,2.987 0.774 L 2.987 0.981 2.340 0.994 C 1.595 1.010,1.476 1.031,1.100 1.217 C 0.807 1.361,0.517 1.616,0.335 1.891 C 0.186 2.116,0.117 2.275,0.052 2.547 C 0.002 2.754,0.000 2.932,0.000 8.474 C -0.000 14.745,-0.009 14.376,0.157 14.774 C 0.350 15.235,0.765 15.650,1.226 15.843 C 1.625 16.010,1.207 16.000,8.000 16.000 C 13.536 16.000,14.211 15.996,14.394 15.958 C 15.184 15.796,15.796 15.184,15.958 14.394 C 15.996 14.211,16.000 13.579,16.000 8.474 C 16.000 2.923,15.998 2.754,15.948 2.547 C 15.799 1.926,15.392 1.434,14.810 1.170 C 14.502 1.030,14.361 1.009,13.660 0.994 L 13.013 0.981 13.013 0.774 C 13.013 0.347,12.927 0.148,12.699 0.047 C 12.472 -0.053,12.224 0.022,12.078 0.236 C 12.020 0.320,12.012 0.362,12.004 0.658 L 11.996 0.987 7.998 0.987 L 4.000 0.987 4.000 0.713 C 4.000 0.373,3.974 0.277,3.847 0.154 C 3.679 -0.009,3.497 -0.043,3.290 0.051 M14.405 2.098 C 14.625 2.202,14.793 2.365,14.895 2.575 L 14.973 2.733 14.982 3.367 L 14.990 4.000 8.000 4.000 L 1.010 4.000 1.018 3.367 L 1.027 2.733 1.105 2.575 C 1.236 2.307,1.498 2.096,1.780 2.029 C 1.837 2.015,4.522 2.007,8.053 2.009 L 14.227 2.013 14.405 2.098 M14.980 9.647 L 14.973 14.280 14.901 14.428 C 14.810 14.612,14.617 14.808,14.441 14.894 C 14.367 14.930,14.223 14.971,14.120 14.986 C 13.864 15.022,2.136 15.022,1.880 14.986 C 1.777 14.971,1.633 14.930,1.559 14.894 C 1.383 14.808,1.190 14.612,1.099 14.428 L 1.027 14.280 1.020 9.647 L 1.013 5.013 8.000 5.013 L 14.987 5.013 14.980 9.647 M8.280 7.055 C 8.159 7.119,8.104 7.176,8.050 7.293 C 8.007 7.387,8.001 7.474,8.001 8.000 C 8.001 8.676,8.019 8.757,8.193 8.890 C 8.320 8.986,8.496 9.013,9.000 9.013 C 9.504 9.013,9.680 8.986,9.807 8.890 C 9.981 8.757,9.999 8.676,9.999 8.000 C 9.999 7.318,9.982 7.244,9.798 7.104 L 9.698 7.027 9.029 7.019 C 8.459 7.013,8.348 7.019,8.280 7.055 M11.266 7.063 C 11.161 7.127,11.046 7.264,11.020 7.355 C 11.009 7.395,11.000 7.697,11.000 8.027 C 11.000 8.541,11.006 8.638,11.045 8.709 C 11.104 8.816,11.261 8.954,11.354 8.980 C 11.394 8.991,11.697 9.000,12.027 9.000 C 12.604 9.000,12.631 8.998,12.734 8.939 C 12.870 8.860,12.963 8.724,12.990 8.565 C 13.001 8.496,13.010 8.242,13.010 8.000 C 13.010 7.758,13.001 7.504,12.990 7.435 C 12.964 7.279,12.870 7.139,12.743 7.068 C 12.653 7.017,12.602 7.013,11.996 7.013 C 11.411 7.014,11.339 7.018,11.266 7.063 M3.290 10.051 C 3.146 10.116,3.047 10.251,3.013 10.426 C 2.999 10.504,2.987 10.762,2.987 11.000 C 2.987 11.504,3.014 11.680,3.110 11.807 C 3.243 11.981,3.324 11.999,4.000 11.999 C 4.676 11.999,4.757 11.981,4.890 11.807 C 4.986 11.680,5.013 11.504,5.013 11.000 C 5.013 10.496,4.986 10.320,4.890 10.193 C 4.757 10.019,4.676 10.001,4.000 10.001 C 3.471 10.001,3.387 10.007,3.290 10.051 M6.307 10.037 C 6.201 10.084,6.081 10.206,6.036 10.312 C 5.991 10.420,5.984 11.555,6.028 11.672 C 6.070 11.784,6.239 11.944,6.346 11.974 C 6.468 12.008,7.532 12.008,7.654 11.974 C 7.772 11.941,7.939 11.773,7.974 11.652 C 8.008 11.533,8.008 10.469,7.974 10.346 C 7.944 10.239,7.784 10.070,7.672 10.028 C 7.557 9.985,6.408 9.993,6.307 10.037 " stroke="none" fill="black" fill-rule="evenodd"></path></svg>