<svg width="1em" height="1em" viewBox="0 0 16 16" class="bi bi-calendar3-week-fill" fill="currentColor" xmlns="http://www.w3.org/2000/svg"><path d="M1.600 0.042 C 0.952 0.181,0.407 0.629,0.157 1.226 C 0.078 1.414,0.000 1.753,0.000 1.906 L 0.000 2.000 8.000 2.000 L 16.000 2.000 16.000 1.906 C 16.000 1.753,15.922 1.414,15.843 1.226 C 15.649 0.762,15.238 0.351,14.774 0.157 C 14.375 -0.010,14.797 -0.000,7.981 0.002 C 2.765 0.004,1.746 0.010,1.600 0.042 M-0.000 8.601 C -0.000 14.732,-0.009 14.377,0.157 14.774 C 0.350 15.235,0.765 15.650,1.226 15.843 C 1.625 16.010,1.207 16.000,8.000 16.000 C 13.536 16.000,14.211 15.996,14.394 15.958 C 15.184 15.796,15.796 15.184,15.958 14.394 C 15.995 14.211,16.000 13.590,16.000 8.601 L 16.000 3.013 8.000 3.013 L 0.000 3.013 -0.000 8.601 M10.428 5.100 C 10.616 5.192,10.808 5.384,10.901 5.572 C 10.966 5.705,10.973 5.749,10.973 6.000 C 10.973 6.251,10.966 6.295,10.901 6.428 C 10.808 6.616,10.616 6.808,10.428 6.901 C 10.295 6.966,10.251 6.973,10.000 6.973 C 9.749 6.973,9.705 6.966,9.572 6.901 C 9.384 6.809,9.192 6.616,9.100 6.429 C 9.001 6.226,8.983 5.866,9.062 5.659 C 9.162 5.396,9.385 5.169,9.645 5.064 C 9.842 4.985,10.230 5.003,10.428 5.100 M13.432 5.102 C 13.699 5.239,13.876 5.451,13.958 5.732 C 14.014 5.925,14.011 6.093,13.947 6.297 C 13.850 6.602,13.642 6.820,13.337 6.935 C 13.120 7.017,12.765 7.000,12.568 6.898 C 12.301 6.761,12.124 6.549,12.042 6.268 C 11.912 5.823,12.126 5.328,12.541 5.116 C 12.721 5.024,12.772 5.015,13.040 5.022 C 13.254 5.029,13.315 5.041,13.432 5.102 M3.421 8.101 C 3.633 8.201,3.798 8.367,3.903 8.587 C 3.977 8.741,3.986 8.786,3.986 9.000 C 3.986 9.214,3.977 9.259,3.903 9.413 C 3.797 9.634,3.633 9.799,3.413 9.904 C 3.259 9.977,3.214 9.986,3.000 9.986 C 2.794 9.986,2.737 9.975,2.600 9.912 C 2.390 9.814,2.184 9.609,2.089 9.403 C 2.025 9.263,2.015 9.206,2.014 9.000 C 2.014 8.793,2.024 8.738,2.088 8.600 C 2.216 8.326,2.485 8.098,2.767 8.027 C 2.947 7.982,3.238 8.014,3.421 8.101 M6.297 8.053 C 6.723 8.188,6.987 8.550,6.987 9.000 C 6.987 9.450,6.723 9.812,6.297 9.947 C 6.093 10.011,5.925 10.014,5.732 9.958 C 5.452 9.876,5.242 9.701,5.100 9.432 C 5.033 9.305,5.027 9.268,5.027 9.000 C 5.027 8.733,5.033 8.694,5.099 8.570 C 5.239 8.304,5.434 8.137,5.704 8.051 C 5.902 7.987,6.091 7.988,6.297 8.053 " stroke="none" fill="black" fill-rule="evenodd"></path></svg>