<svg width="1em" height="1em" viewBox="0 0 16 16" class="bi bi-calendar-minus" fill="currentColor" xmlns="http://www.w3.org/2000/svg"><path d="M3.290 0.051 C 3.070 0.151,2.987 0.353,2.987 0.788 L 2.987 1.009 2.287 1.019 C 1.601 1.027,1.582 1.029,1.373 1.102 C 1.062 1.211,0.814 1.367,0.587 1.599 C 0.374 1.815,0.249 2.004,0.142 2.267 C -0.006 2.635,0.000 2.358,0.000 8.510 C 0.000 14.742,-0.009 14.377,0.157 14.774 C 0.350 15.235,0.765 15.650,1.226 15.843 C 1.625 16.010,1.207 16.000,8.000 16.000 C 13.536 16.000,14.211 15.996,14.394 15.958 C 15.184 15.796,15.796 15.184,15.958 14.394 C 15.995 14.211,16.000 13.582,16.000 8.510 C 16.000 2.358,16.006 2.635,15.858 2.267 C 15.751 2.004,15.626 1.815,15.413 1.599 C 15.186 1.367,14.938 1.211,14.627 1.102 C 14.418 1.029,14.399 1.027,13.713 1.019 L 13.013 1.009 13.013 0.788 C 13.013 0.346,12.930 0.149,12.699 0.047 C 12.472 -0.053,12.224 0.022,12.078 0.236 C 12.019 0.320,12.013 0.361,12.005 0.671 L 11.996 1.013 7.998 1.013 L 4.000 1.013 4.000 0.727 C 4.000 0.372,3.974 0.278,3.847 0.154 C 3.679 -0.009,3.497 -0.043,3.290 0.051 M14.980 9.140 L 14.973 14.280 14.901 14.428 C 14.810 14.612,14.617 14.808,14.441 14.894 C 14.367 14.930,14.223 14.971,14.120 14.986 C 13.864 15.022,2.136 15.022,1.880 14.986 C 1.777 14.971,1.633 14.930,1.559 14.894 C 1.383 14.808,1.190 14.612,1.099 14.428 L 1.027 14.280 1.020 9.140 L 1.013 4.000 8.000 4.000 L 14.987 4.000 14.980 9.140 M5.755 9.067 C 5.402 9.254,5.428 9.782,5.799 9.950 C 5.901 9.996,6.026 9.999,8.000 9.999 C 9.974 9.999,10.099 9.996,10.201 9.950 C 10.575 9.780,10.598 9.249,10.239 9.066 C 10.138 9.015,10.076 9.013,7.994 9.015 C 5.929 9.016,5.850 9.018,5.755 9.067 " stroke="none" fill="black" fill-rule="evenodd"></path></svg>