<svg width="1em" height="1em" viewBox="0 0 16 16" class="bi bi-camera" fill="currentColor" xmlns="http://www.w3.org/2000/svg"><path d="M6.573 2.016 C 6.544 2.022,6.454 2.040,6.373 2.057 C 5.939 2.144,5.673 2.326,4.970 3.021 C 4.399 3.584,4.210 3.735,3.941 3.843 C 3.613 3.975,3.575 3.979,2.587 4.000 C 1.821 4.016,1.610 4.028,1.484 4.065 C 0.741 4.279,0.194 4.863,0.042 5.606 C 0.005 5.786,-0.000 6.198,-0.000 9.000 C 0.000 12.491,-0.004 12.388,0.157 12.774 C 0.350 13.235,0.765 13.650,1.226 13.843 C 1.625 14.010,1.207 14.000,8.000 14.000 C 13.536 14.000,14.211 13.996,14.394 13.958 C 15.184 13.796,15.796 13.184,15.958 12.394 C 15.995 12.214,16.000 11.802,16.000 9.000 C 16.000 6.198,15.995 5.786,15.958 5.606 C 15.806 4.863,15.259 4.279,14.516 4.065 C 14.390 4.028,14.179 4.016,13.413 4.000 C 12.425 3.979,12.387 3.975,12.058 3.843 C 11.793 3.737,11.614 3.593,11.040 3.028 C 10.466 2.463,10.253 2.290,9.987 2.173 C 9.632 2.015,9.656 2.017,8.080 2.011 C 7.281 2.007,6.603 2.010,6.573 2.016 M9.580 3.085 C 9.669 3.126,9.881 3.314,10.300 3.721 C 10.626 4.039,10.977 4.359,11.080 4.432 C 11.430 4.681,11.861 4.866,12.291 4.951 C 12.432 4.979,12.766 4.996,13.387 5.009 L 14.280 5.027 14.428 5.099 C 14.616 5.192,14.808 5.384,14.901 5.572 L 14.973 5.720 14.973 9.000 L 14.973 12.280 14.901 12.428 C 14.810 12.612,14.617 12.808,14.441 12.894 C 14.367 12.930,14.223 12.971,14.120 12.986 C 13.864 13.022,2.136 13.022,1.880 12.986 C 1.777 12.971,1.633 12.930,1.559 12.894 C 1.383 12.808,1.190 12.612,1.099 12.428 L 1.027 12.280 1.027 9.000 L 1.027 5.720 1.099 5.572 C 1.192 5.384,1.384 5.192,1.572 5.099 L 1.720 5.027 2.600 5.010 C 3.084 5.001,3.558 4.979,3.653 4.962 C 4.105 4.880,4.553 4.692,4.929 4.427 C 5.036 4.351,5.378 4.040,5.689 3.737 C 5.999 3.433,6.289 3.162,6.333 3.134 C 6.516 3.019,6.559 3.016,8.040 3.021 C 9.432 3.027,9.455 3.028,9.580 3.085 M7.375 5.056 C 6.022 5.301,4.936 6.329,4.597 7.688 C 4.505 8.058,4.482 8.668,4.545 9.053 C 4.746 10.279,5.571 11.297,6.738 11.762 C 7.769 12.173,8.997 12.036,9.942 11.405 C 10.744 10.869,11.298 10.008,11.455 9.053 C 11.518 8.668,11.495 8.058,11.403 7.688 C 11.230 6.997,10.906 6.442,10.384 5.946 C 9.905 5.491,9.263 5.169,8.603 5.055 C 8.307 5.003,7.665 5.004,7.375 5.056 M2.307 6.037 C 1.957 6.191,1.898 6.665,2.200 6.895 C 2.279 6.956,2.334 6.973,2.468 6.982 C 2.674 6.995,2.808 6.930,2.918 6.764 C 2.982 6.666,2.989 6.633,2.981 6.477 C 2.974 6.333,2.958 6.283,2.896 6.201 C 2.762 6.026,2.499 5.953,2.307 6.037 M8.613 6.079 C 9.532 6.318,10.239 7.053,10.447 7.986 C 10.510 8.270,10.503 8.782,10.431 9.077 C 10.229 9.900,9.612 10.586,8.827 10.858 C 8.323 11.033,7.677 11.033,7.173 10.858 C 6.390 10.586,5.769 9.898,5.570 9.080 C 5.495 8.776,5.489 8.241,5.555 7.967 C 5.800 6.962,6.559 6.231,7.560 6.038 C 7.830 5.985,8.329 6.005,8.613 6.079 " stroke="none" fill="black" fill-rule="evenodd"></path></svg>