<svg width="1em" height="1em" viewBox="0 0 16 16" class="bi bi-camera2" fill="currentColor" xmlns="http://www.w3.org/2000/svg"><path d="M2.767 2.028 C 2.385 2.121,2.060 2.484,2.012 2.872 L 1.994 3.013 1.701 3.013 C 1.177 3.013,0.850 3.147,0.493 3.505 C 0.248 3.751,0.104 4.007,0.040 4.310 C -0.018 4.584,-0.018 11.416,0.040 11.690 C 0.163 12.273,0.639 12.768,1.253 12.952 C 1.383 12.991,1.649 12.997,3.552 13.006 L 5.704 13.017 5.925 13.150 C 6.566 13.537,7.308 13.803,8.120 13.937 C 8.529 14.004,9.467 14.004,9.880 13.938 C 10.680 13.808,11.434 13.538,12.073 13.152 L 12.293 13.019 13.446 13.006 C 14.397 12.996,14.626 12.986,14.747 12.951 C 15.298 12.790,15.731 12.383,15.913 11.854 L 15.987 11.640 15.987 8.000 L 15.987 4.360 15.924 4.173 C 15.890 4.071,15.825 3.921,15.780 3.840 C 15.658 3.624,15.331 3.310,15.107 3.194 C 14.766 3.018,14.722 3.013,13.469 3.013 L 12.346 3.013 12.050 2.836 C 11.407 2.449,10.692 2.195,9.880 2.062 C 9.466 1.995,8.530 1.995,8.120 2.063 C 7.293 2.200,6.564 2.463,5.899 2.865 L 5.652 3.015 5.326 3.007 L 5.000 3.000 4.981 2.845 C 4.941 2.524,4.686 2.199,4.379 2.075 C 4.236 2.018,4.186 2.014,3.547 2.009 C 3.173 2.006,2.822 2.015,2.767 2.028 M10.005 3.102 C 11.347 3.395,12.447 4.145,13.184 5.271 C 14.137 6.729,14.260 8.586,13.506 10.156 C 12.905 11.408,11.795 12.370,10.491 12.770 C 9.921 12.945,9.730 12.971,9.013 12.972 C 8.267 12.973,8.018 12.937,7.428 12.742 C 5.175 11.995,3.760 9.770,4.040 7.413 C 4.283 5.357,5.767 3.663,7.767 3.157 C 8.251 3.034,8.449 3.015,9.093 3.025 C 9.615 3.033,9.734 3.043,10.005 3.102 M1.657 4.027 C 1.803 4.068,1.965 4.256,1.988 4.413 C 2.036 4.735,1.820 4.987,1.495 4.987 C 1.331 4.987,1.237 4.943,1.124 4.814 C 1.023 4.699,1.003 4.628,1.019 4.441 C 1.045 4.127,1.336 3.938,1.657 4.027 M8.600 4.019 C 8.062 4.068,7.402 4.290,6.920 4.586 C 5.872 5.228,5.146 6.370,5.028 7.560 L 5.012 7.720 5.065 7.526 C 5.138 7.259,5.325 6.908,5.535 6.646 C 6.219 5.791,7.586 5.096,8.733 5.018 L 9.000 5.000 9.007 4.500 L 9.015 4.000 8.861 4.004 C 8.776 4.007,8.659 4.013,8.600 4.019 " stroke="none" fill="black" fill-rule="evenodd"></path></svg>