<svg width="1em" height="1em" viewBox="0 0 16 16" class="bi bi-camera-reels-fill" fill="currentColor" xmlns="http://www.w3.org/2000/svg"><path d="M2.573 0.030 C 0.960 0.262,-0.195 1.792,0.029 3.402 C 0.212 4.718,1.265 5.782,2.573 5.970 C 2.730 5.993,2.731 5.994,2.613 5.997 C 1.904 6.019,1.249 6.545,1.049 7.253 C 1.003 7.418,1.000 7.614,1.000 11.000 C 1.000 14.386,1.003 14.582,1.049 14.747 C 1.131 15.037,1.271 15.273,1.492 15.495 C 1.715 15.719,1.893 15.831,2.173 15.924 L 2.360 15.987 6.000 15.987 L 9.640 15.987 9.854 15.913 C 10.281 15.767,10.635 15.455,10.824 15.060 C 10.956 14.784,10.985 14.640,11.008 14.172 L 11.027 13.798 12.413 14.604 C 13.176 15.048,13.853 15.429,13.918 15.452 C 14.304 15.587,14.765 15.386,14.936 15.007 L 15.000 14.867 15.000 11.000 L 15.000 7.133 14.936 6.993 C 14.772 6.629,14.325 6.423,13.946 6.537 C 13.890 6.553,13.211 6.935,12.436 7.385 L 11.027 8.202 11.008 7.828 C 10.985 7.358,10.956 7.217,10.821 6.933 C 10.568 6.401,9.977 6.015,9.387 5.997 C 9.269 5.994,9.270 5.993,9.427 5.970 C 10.577 5.805,11.552 4.954,11.877 3.834 C 12.386 2.079,11.216 0.281,9.402 0.029 C 7.941 -0.175,6.535 0.745,6.120 2.176 C 6.082 2.307,6.044 2.482,6.035 2.567 C 6.026 2.651,6.010 2.720,6.000 2.720 C 5.990 2.720,5.974 2.651,5.965 2.567 C 5.926 2.197,5.733 1.699,5.481 1.321 C 4.860 0.387,3.692 -0.132,2.573 0.030 M6.035 3.433 C 6.057 3.641,6.169 4.019,6.281 4.261 C 6.697 5.161,7.593 5.829,8.573 5.970 C 8.669 5.984,7.642 5.993,6.000 5.993 C 4.358 5.993,3.331 5.984,3.427 5.970 C 4.582 5.804,5.552 4.955,5.880 3.824 C 5.918 3.693,5.956 3.518,5.965 3.433 C 5.974 3.349,5.990 3.280,6.000 3.280 C 6.010 3.280,6.026 3.349,6.035 3.433 " stroke="none" fill="black" fill-rule="evenodd"></path></svg>