<svg width="1em" height="1em" viewBox="0 0 16 16" class="bi bi-camera-reels" fill="currentColor" xmlns="http://www.w3.org/2000/svg"><path d="M2.573 0.030 C 1.265 0.218,0.212 1.281,0.029 2.598 C -0.175 4.059,0.751 5.472,2.177 5.880 C 2.307 5.917,2.485 5.957,2.573 5.968 L 2.733 5.989 2.514 6.007 C 1.595 6.082,0.865 6.675,0.583 7.574 L 0.520 7.773 0.520 11.000 L 0.520 14.227 0.583 14.426 C 0.821 15.184,1.373 15.723,2.133 15.938 C 2.298 15.984,2.495 15.987,6.000 15.987 C 9.505 15.987,9.702 15.984,9.867 15.938 C 10.650 15.716,11.251 15.108,11.434 14.352 C 11.459 14.247,11.488 14.160,11.497 14.160 C 11.507 14.160,11.980 14.430,12.550 14.760 C 13.119 15.090,13.651 15.386,13.732 15.417 C 13.914 15.487,14.254 15.511,14.460 15.468 C 14.925 15.372,15.334 14.984,15.456 14.524 C 15.510 14.321,15.510 7.679,15.456 7.476 C 15.334 7.016,14.925 6.628,14.460 6.532 C 14.237 6.486,13.912 6.511,13.720 6.590 C 13.631 6.626,13.100 6.922,12.538 7.248 C 11.977 7.573,11.509 7.840,11.499 7.840 C 11.488 7.840,11.459 7.753,11.434 7.648 C 11.217 6.748,10.429 6.084,9.486 6.007 L 9.267 5.989 9.427 5.968 C 9.515 5.957,9.694 5.917,9.825 5.879 C 11.250 5.472,12.175 4.059,11.971 2.598 C 11.786 1.266,10.734 0.214,9.402 0.029 C 7.941 -0.175,6.535 0.745,6.120 2.176 C 6.082 2.307,6.044 2.482,6.035 2.567 C 6.026 2.651,6.010 2.720,6.000 2.720 C 5.990 2.720,5.974 2.651,5.965 2.567 C 5.926 2.197,5.733 1.699,5.481 1.321 C 4.860 0.387,3.692 -0.132,2.573 0.030 M3.464 1.054 C 4.169 1.221,4.768 1.820,4.944 2.535 C 5.000 2.766,5.000 3.234,4.944 3.465 C 4.766 4.189,4.177 4.773,3.448 4.947 C 3.166 5.015,2.643 4.992,2.387 4.901 C 1.835 4.705,1.430 4.348,1.196 3.851 C 1.058 3.558,1.014 3.351,1.014 3.000 C 1.014 2.637,1.060 2.432,1.212 2.120 C 1.477 1.577,1.978 1.181,2.573 1.043 C 2.747 1.003,3.275 1.010,3.464 1.054 M9.464 1.054 C 10.169 1.221,10.768 1.820,10.944 2.535 C 11.000 2.766,11.000 3.234,10.944 3.465 C 10.766 4.189,10.177 4.773,9.448 4.947 C 9.166 5.015,8.643 4.992,8.387 4.901 C 7.835 4.705,7.430 4.348,7.196 3.851 C 7.058 3.558,7.014 3.351,7.014 3.000 C 7.014 2.637,7.060 2.432,7.212 2.120 C 7.477 1.577,7.978 1.181,8.573 1.043 C 8.747 1.003,9.275 1.010,9.464 1.054 M6.035 3.433 C 6.057 3.641,6.169 4.019,6.281 4.261 C 6.697 5.161,7.593 5.829,8.573 5.970 C 8.669 5.984,7.642 5.993,6.000 5.993 C 4.358 5.993,3.331 5.984,3.427 5.970 C 4.582 5.804,5.552 4.955,5.880 3.824 C 5.918 3.693,5.956 3.518,5.965 3.433 C 5.974 3.349,5.990 3.280,6.000 3.280 C 6.010 3.280,6.026 3.349,6.035 3.433 M9.846 7.127 C 10.181 7.293,10.410 7.595,10.478 7.961 C 10.518 8.178,10.518 13.823,10.478 14.042 C 10.387 14.536,9.975 14.920,9.465 14.986 C 9.201 15.020,2.801 15.020,2.533 14.986 C 2.018 14.920,1.615 14.542,1.522 14.039 C 1.482 13.823,1.482 8.177,1.522 7.961 C 1.600 7.538,1.916 7.184,2.333 7.051 C 2.418 7.024,3.184 7.018,6.041 7.022 L 9.643 7.027 9.846 7.127 M14.365 7.561 C 14.512 7.657,14.507 7.519,14.507 11.006 C 14.507 14.019,14.504 14.233,14.460 14.320 C 14.404 14.432,14.259 14.514,14.147 14.497 C 14.103 14.490,13.491 14.150,12.787 13.741 L 11.507 12.997 11.507 11.000 L 11.507 9.003 12.307 8.538 C 14.172 7.456,14.112 7.488,14.209 7.503 C 14.259 7.511,14.329 7.537,14.365 7.561 " stroke="none" fill="black" fill-rule="evenodd"></path></svg>