<svg width="1em" height="1em" viewBox="0 0 16 16" class="bi bi-card-heading" fill="currentColor" xmlns="http://www.w3.org/2000/svg"><path d="M1.253 2.018 C 1.093 2.045,0.845 2.144,0.702 2.238 C 0.406 2.431,0.188 2.709,0.075 3.035 L 0.013 3.213 0.013 8.000 L 0.013 12.787 0.075 12.965 C 0.232 13.419,0.606 13.787,1.052 13.928 L 1.240 13.987 8.000 13.987 L 14.760 13.987 14.948 13.928 C 15.402 13.785,15.785 13.402,15.928 12.948 L 15.987 12.760 15.987 8.000 L 15.987 3.240 15.928 3.052 C 15.786 2.603,15.416 2.227,14.962 2.073 L 14.787 2.013 8.053 2.010 C 4.350 2.008,1.290 2.012,1.253 2.018 M14.702 3.043 C 14.788 3.087,14.906 3.203,14.949 3.285 C 15.006 3.395,15.005 12.606,14.948 12.717 C 14.897 12.815,14.738 12.954,14.646 12.980 C 14.551 13.006,1.449 13.006,1.354 12.980 C 1.262 12.954,1.103 12.815,1.052 12.717 C 0.995 12.606,0.994 3.395,1.051 3.285 C 1.092 3.207,1.208 3.091,1.293 3.044 C 1.370 3.002,14.619 3.001,14.702 3.043 M3.266 5.063 C 3.161 5.127,3.046 5.264,3.020 5.355 C 3.009 5.395,3.000 5.697,3.000 6.027 C 3.000 6.541,3.006 6.638,3.045 6.709 C 3.104 6.816,3.261 6.954,3.354 6.980 C 3.394 6.991,5.497 7.000,8.027 7.000 L 12.627 7.000 12.734 6.939 C 12.870 6.860,12.963 6.724,12.990 6.565 C 13.016 6.403,13.016 5.597,12.990 5.435 C 12.964 5.279,12.870 5.139,12.743 5.068 C 12.646 5.013,12.637 5.013,7.996 5.013 C 3.514 5.014,3.344 5.015,3.266 5.063 M3.290 8.051 C 3.132 8.123,3.033 8.264,3.019 8.441 C 3.003 8.628,3.023 8.699,3.124 8.814 C 3.303 9.018,2.836 9.000,8.000 9.000 L 12.627 9.000 12.736 8.938 C 12.796 8.903,12.877 8.825,12.918 8.764 C 12.982 8.666,12.989 8.633,12.981 8.477 C 12.970 8.266,12.884 8.130,12.710 8.051 C 12.604 8.003,12.436 8.001,8.000 8.001 C 3.564 8.001,3.396 8.003,3.290 8.051 M3.290 10.051 C 3.132 10.123,3.033 10.264,3.019 10.441 C 3.003 10.628,3.023 10.699,3.124 10.814 C 3.301 11.016,3.018 11.000,6.453 11.000 C 8.147 11.000,9.578 10.990,9.634 10.979 C 9.767 10.951,9.932 10.791,9.974 10.649 C 10.045 10.409,9.916 10.131,9.688 10.036 C 9.617 10.006,9.042 10.000,6.501 10.001 C 3.530 10.001,3.395 10.003,3.290 10.051 " stroke="none" fill="black" fill-rule="evenodd"></path></svg>