<svg width="1em" height="1em" viewBox="0 0 16 16" class="bi bi-caret-right" fill="currentColor" xmlns="http://www.w3.org/2000/svg"><path d="M5.682 2.256 C 5.413 2.353,5.166 2.589,5.061 2.848 L 5.000 3.000 4.992 7.827 C 4.987 10.939,4.994 12.732,5.012 12.874 C 5.026 12.996,5.062 13.149,5.091 13.214 C 5.165 13.381,5.384 13.603,5.566 13.695 C 5.707 13.767,5.743 13.773,6.000 13.773 C 6.259 13.773,6.291 13.767,6.434 13.693 C 6.615 13.599,12.171 8.751,12.296 8.578 C 12.392 8.446,12.480 8.170,12.480 8.000 C 12.480 7.830,12.392 7.554,12.296 7.422 C 12.173 7.252,6.617 2.401,6.439 2.308 C 6.309 2.240,6.254 2.228,6.044 2.221 C 5.870 2.215,5.766 2.225,5.682 2.256 M8.740 5.601 C 10.232 6.907,11.453 7.986,11.453 8.000 C 11.453 8.024,6.041 12.773,6.013 12.773 C 6.006 12.773,6.000 10.625,6.000 8.000 C 6.000 5.375,6.006 3.227,6.013 3.227 C 6.021 3.227,7.248 4.295,8.740 5.601 " stroke="none" fill="black" fill-rule="evenodd"></path></svg>