<svg width="1em" height="1em" viewBox="0 0 16 16" class="bi bi-caret-down-fill" fill="currentColor" xmlns="http://www.w3.org/2000/svg"><path d="M2.953 4.029 C 2.692 4.090,2.421 4.319,2.298 4.580 C 2.236 4.714,2.227 4.766,2.227 5.000 C 2.227 5.231,2.236 5.286,2.296 5.413 C 2.347 5.523,2.963 6.244,4.732 8.267 C 7.313 11.217,7.290 11.191,7.424 11.293 C 7.762 11.551,8.306 11.530,8.629 11.246 C 8.700 11.184,9.855 9.879,11.196 8.347 C 13.032 6.249,13.652 5.524,13.704 5.413 C 13.801 5.205,13.814 4.875,13.734 4.660 C 13.621 4.360,13.376 4.132,13.068 4.042 C 12.938 4.004,12.424 4.000,7.988 4.003 C 5.221 4.004,3.009 4.016,2.953 4.029 " stroke="none" fill="black" fill-rule="evenodd"></path></svg>