<svg width="1em" height="1em" viewBox="0 0 16 16" class="bi bi-caret-up-square" fill="currentColor" xmlns="http://www.w3.org/2000/svg"><path d="M1.600 0.042 C 0.952 0.181,0.407 0.629,0.157 1.226 C -0.010 1.625,0.000 1.207,0.000 8.000 C 0.000 14.793,-0.010 14.375,0.157 14.774 C 0.350 15.235,0.765 15.650,1.226 15.843 C 1.625 16.010,1.207 16.000,8.000 16.000 C 13.536 16.000,14.211 15.996,14.394 15.958 C 15.184 15.796,15.796 15.184,15.958 14.394 C 15.996 14.211,16.000 13.536,16.000 8.000 C 16.000 2.464,15.996 1.789,15.958 1.606 C 15.796 0.816,15.184 0.204,14.394 0.042 C 14.210 0.004,13.540 0.000,7.981 0.002 C 2.765 0.004,1.746 0.010,1.600 0.042 M14.428 1.099 C 14.616 1.192,14.808 1.384,14.901 1.572 L 14.973 1.720 14.980 7.946 C 14.986 13.403,14.982 14.188,14.947 14.309 C 14.867 14.586,14.586 14.864,14.296 14.954 C 14.156 14.997,13.759 15.000,8.000 15.000 C 2.241 15.000,1.844 14.997,1.704 14.954 C 1.422 14.866,1.158 14.612,1.063 14.338 C 1.018 14.207,1.015 13.880,1.014 7.994 C 1.013 1.932,1.015 1.784,1.065 1.652 C 1.162 1.395,1.389 1.166,1.645 1.066 C 1.769 1.017,1.962 1.016,8.027 1.021 L 14.280 1.027 14.428 1.099 M7.829 5.532 C 7.771 5.553,7.691 5.604,7.651 5.645 C 7.419 5.881,3.588 10.214,3.553 10.280 C 3.530 10.324,3.510 10.420,3.509 10.493 C 3.506 10.678,3.585 10.820,3.747 10.920 L 3.876 11.000 7.998 11.000 L 12.120 11.000 12.231 10.941 C 12.513 10.790,12.583 10.428,12.379 10.181 C 11.983 9.702,8.283 5.577,8.227 5.552 C 8.109 5.498,7.942 5.489,7.829 5.532 " stroke="none" fill="black" fill-rule="evenodd"></path></svg>