<svg width="1em" height="1em" viewBox="0 0 16 16" class="bi bi-cast" fill="currentColor" xmlns="http://www.w3.org/2000/svg"><path d="M1.253 2.018 C 1.093 2.045,0.845 2.144,0.702 2.238 C 0.406 2.431,0.188 2.709,0.075 3.035 L 0.013 3.213 0.013 7.000 L 0.013 10.787 0.075 10.965 C 0.229 11.411,0.596 11.778,1.038 11.927 C 1.207 11.983,1.257 11.986,2.398 11.994 L 3.584 12.003 4.072 11.515 L 4.561 11.027 2.967 11.013 C 1.548 11.001,1.365 10.995,1.293 10.956 C 1.203 10.906,1.088 10.789,1.043 10.702 C 1.001 10.619,1.001 3.381,1.043 3.298 C 1.087 3.212,1.203 3.094,1.285 3.051 C 1.347 3.019,2.334 3.013,8.000 3.013 C 12.859 3.013,14.659 3.021,14.702 3.043 C 14.788 3.087,14.906 3.203,14.949 3.285 C 14.981 3.346,14.987 3.916,14.987 7.000 C 14.987 10.969,14.997 10.708,14.836 10.857 C 14.675 11.005,14.746 10.999,13.033 11.013 L 11.439 11.027 11.928 11.515 L 12.416 12.003 13.602 11.994 C 14.743 11.986,14.793 11.983,14.962 11.927 C 15.412 11.775,15.787 11.395,15.928 10.948 L 15.987 10.760 15.987 7.000 L 15.987 3.240 15.928 3.052 C 15.786 2.603,15.416 2.227,14.962 2.073 L 14.787 2.013 8.053 2.010 C 4.350 2.008,1.290 2.012,1.253 2.018 M7.828 9.240 C 7.744 9.270,7.311 9.689,5.743 11.259 C 3.582 13.422,3.678 13.313,3.718 13.585 C 3.741 13.735,3.858 13.880,4.013 13.950 C 4.115 13.997,4.304 13.999,7.989 13.999 C 10.804 14.000,11.883 13.992,11.949 13.970 C 12.229 13.876,12.367 13.559,12.242 13.293 C 12.208 13.220,11.569 12.565,10.223 11.222 C 8.528 9.531,8.238 9.254,8.147 9.229 C 8.010 9.192,7.957 9.194,7.828 9.240 " stroke="none" fill="black" fill-rule="evenodd"></path></svg>