<svg width="1em" height="1em" viewBox="0 0 16 16" class="bi bi-chat-square-quote" fill="currentColor" xmlns="http://www.w3.org/2000/svg"><path d="M1.600 0.042 C 0.952 0.181,0.407 0.629,0.157 1.226 C -0.007 1.618,0.000 1.409,-0.000 6.000 C -0.000 10.591,-0.007 10.382,0.157 10.774 C 0.343 11.218,0.749 11.634,1.186 11.827 C 1.540 11.984,1.513 11.982,3.187 11.998 C 4.728 12.013,4.734 12.014,4.867 12.075 C 5.145 12.203,5.183 12.246,6.245 13.660 C 7.001 14.667,7.315 15.065,7.407 15.133 C 7.557 15.244,7.822 15.333,8.000 15.333 C 8.201 15.333,8.462 15.240,8.616 15.112 C 8.706 15.038,9.099 14.538,9.783 13.627 C 10.722 12.375,10.826 12.246,10.960 12.166 C 11.240 11.999,11.229 12.000,12.779 12.000 C 14.318 12.000,14.417 11.992,14.774 11.843 C 15.235 11.650,15.650 11.235,15.843 10.774 C 16.007 10.382,16.000 10.591,16.000 6.000 C 16.000 2.286,15.995 1.788,15.958 1.606 C 15.796 0.816,15.184 0.204,14.394 0.042 C 14.210 0.004,13.540 0.000,7.981 0.002 C 2.765 0.004,1.746 0.010,1.600 0.042 M14.428 1.099 C 14.616 1.192,14.808 1.384,14.901 1.572 L 14.973 1.720 14.980 5.945 C 14.988 10.635,15.000 10.321,14.809 10.578 C 14.755 10.651,14.652 10.755,14.579 10.809 C 14.324 10.997,14.349 10.995,12.627 11.013 C 10.901 11.031,10.986 11.022,10.584 11.230 C 10.178 11.441,10.115 11.511,9.020 12.972 C 8.467 13.712,8.007 14.317,8.000 14.317 C 7.993 14.317,7.533 13.712,6.980 12.972 C 5.885 11.511,5.822 11.441,5.416 11.230 C 5.014 11.022,5.099 11.031,3.373 11.013 C 1.652 10.995,1.676 10.997,1.423 10.810 C 1.256 10.687,1.123 10.512,1.063 10.338 C 1.018 10.208,1.015 9.960,1.014 5.994 C 1.013 1.906,1.015 1.783,1.065 1.652 C 1.162 1.395,1.389 1.166,1.645 1.066 C 1.769 1.017,1.962 1.016,8.027 1.021 L 14.280 1.027 14.428 1.099 M5.280 4.040 C 4.801 4.157,4.404 4.476,4.185 4.920 C 3.940 5.415,3.942 5.922,4.190 6.425 C 4.578 7.213,5.562 7.551,6.368 7.173 C 6.463 7.129,6.545 7.096,6.549 7.100 C 6.554 7.105,6.500 7.228,6.429 7.374 C 6.286 7.670,6.115 7.921,5.869 8.198 C 5.687 8.403,5.668 8.450,5.686 8.643 C 5.707 8.859,5.863 8.991,6.101 8.991 C 6.250 8.991,6.342 8.930,6.551 8.690 C 6.956 8.226,7.278 7.637,7.419 7.101 C 7.497 6.807,7.502 6.757,7.502 6.320 C 7.502 5.903,7.495 5.826,7.434 5.597 C 7.306 5.122,7.056 4.673,6.780 4.428 C 6.596 4.263,6.277 4.094,6.050 4.041 C 5.843 3.992,5.479 3.992,5.280 4.040 M9.280 4.040 C 8.801 4.157,8.404 4.476,8.185 4.920 C 7.940 5.415,7.942 5.922,8.190 6.425 C 8.578 7.213,9.562 7.551,10.368 7.173 C 10.463 7.129,10.545 7.096,10.549 7.100 C 10.554 7.105,10.500 7.228,10.429 7.374 C 10.286 7.670,10.115 7.921,9.869 8.198 C 9.687 8.403,9.668 8.450,9.686 8.643 C 9.707 8.859,9.863 8.991,10.101 8.991 C 10.250 8.991,10.342 8.930,10.551 8.690 C 10.956 8.226,11.278 7.637,11.419 7.101 C 11.497 6.807,11.502 6.757,11.502 6.320 C 11.502 5.903,11.495 5.826,11.434 5.597 C 11.306 5.122,11.056 4.673,10.780 4.428 C 10.596 4.263,10.277 4.094,10.050 4.041 C 9.843 3.992,9.479 3.992,9.280 4.040 " stroke="none" fill="black" fill-rule="evenodd"></path></svg>