<svg width="1em" height="1em" viewBox="0 0 16 16" class="bi bi-chat-left-dots-fill" fill="currentColor" xmlns="http://www.w3.org/2000/svg"><path d="M1.600 0.042 C 0.952 0.181,0.407 0.629,0.157 1.226 C -0.010 1.626,-0.000 1.170,0.001 8.352 C 0.001 14.683,0.003 14.897,0.051 15.003 C 0.128 15.172,0.265 15.262,0.466 15.275 C 0.579 15.282,0.656 15.273,0.708 15.246 C 0.749 15.225,1.462 14.528,2.291 13.698 C 3.709 12.280,3.811 12.184,3.987 12.101 L 4.173 12.013 9.267 11.999 C 14.050 11.986,14.369 11.982,14.516 11.938 C 15.272 11.708,15.806 11.136,15.958 10.394 C 15.995 10.212,16.000 9.714,16.000 6.000 C 16.000 2.286,15.995 1.788,15.958 1.606 C 15.796 0.816,15.184 0.204,14.394 0.042 C 14.210 0.004,13.540 0.000,7.981 0.002 C 2.765 0.004,1.746 0.010,1.600 0.042 M4.428 5.100 C 4.616 5.192,4.808 5.384,4.901 5.572 C 4.966 5.705,4.973 5.749,4.973 6.000 C 4.973 6.251,4.966 6.295,4.901 6.428 C 4.808 6.616,4.616 6.808,4.428 6.901 C 4.295 6.966,4.251 6.973,4.000 6.973 C 3.749 6.973,3.705 6.966,3.572 6.901 C 3.384 6.809,3.192 6.616,3.100 6.429 C 3.001 6.226,2.983 5.866,3.062 5.659 C 3.162 5.396,3.385 5.169,3.645 5.064 C 3.842 4.985,4.230 5.003,4.428 5.100 M8.428 5.100 C 8.616 5.192,8.808 5.384,8.901 5.572 C 8.966 5.705,8.973 5.749,8.973 6.000 C 8.973 6.251,8.966 6.295,8.901 6.428 C 8.808 6.616,8.616 6.808,8.428 6.901 C 8.295 6.966,8.251 6.973,8.000 6.973 C 7.749 6.973,7.705 6.966,7.572 6.901 C 7.384 6.809,7.192 6.616,7.100 6.429 C 7.001 6.226,6.983 5.866,7.062 5.659 C 7.162 5.396,7.385 5.169,7.645 5.064 C 7.842 4.985,8.230 5.003,8.428 5.100 M12.428 5.100 C 12.616 5.192,12.808 5.384,12.901 5.572 C 12.966 5.705,12.973 5.749,12.973 6.000 C 12.973 6.251,12.966 6.295,12.901 6.428 C 12.808 6.616,12.616 6.808,12.428 6.901 C 12.295 6.966,12.251 6.973,12.000 6.973 C 11.749 6.973,11.705 6.966,11.572 6.901 C 11.384 6.809,11.192 6.616,11.100 6.429 C 11.001 6.226,10.983 5.866,11.062 5.659 C 11.162 5.396,11.385 5.169,11.645 5.064 C 11.842 4.985,12.230 5.003,12.428 5.100 " stroke="none" fill="black" fill-rule="evenodd"></path></svg>