<svg width="1em" height="1em" viewBox="0 0 16 16" class="bi bi-check" fill="currentColor" xmlns="http://www.w3.org/2000/svg"><path d="M11.291 4.783 C 11.231 4.802,11.143 4.841,11.095 4.869 C 11.040 4.901,10.363 5.742,9.245 7.167 L 7.481 9.413 6.387 8.321 C 5.183 7.119,5.151 7.094,4.851 7.094 C 4.418 7.093,4.097 7.408,4.095 7.840 C 4.092 8.165,4.077 8.147,5.659 9.723 C 7.235 11.294,7.170 11.241,7.520 11.239 C 7.715 11.237,7.905 11.157,8.031 11.022 C 8.203 10.840,12.138 5.897,12.179 5.813 C 12.244 5.678,12.255 5.419,12.202 5.260 C 12.082 4.897,11.643 4.667,11.291 4.783 " stroke="none" fill="black" fill-rule="evenodd"></path></svg>