<svg width="1em" height="1em" viewBox="0 0 16 16" class="bi bi-chevron-right" fill="currentColor" xmlns="http://www.w3.org/2000/svg"><path d="M4.785 1.560 C 4.622 1.642,4.529 1.772,4.513 1.944 C 4.487 2.215,4.336 2.050,7.423 5.140 L 10.279 8.000 7.423 10.860 C 4.336 13.950,4.487 13.785,4.513 14.056 C 4.529 14.228,4.622 14.358,4.785 14.440 C 4.951 14.524,5.048 14.524,5.215 14.441 C 5.393 14.351,11.389 8.359,11.452 8.208 C 11.505 8.081,11.505 7.919,11.452 7.792 C 11.389 7.641,5.393 1.649,5.215 1.559 C 5.048 1.476,4.951 1.476,4.785 1.560 " stroke="none" fill="black" fill-rule="evenodd"></path></svg>