<svg width="1em" height="1em" viewBox="0 0 16 16" class="bi bi-chevron-bar-expand" fill="currentColor" xmlns="http://www.w3.org/2000/svg"><path d="M7.907 1.013 C 7.863 1.023,7.791 1.050,7.747 1.074 C 7.703 1.097,6.741 2.044,5.609 3.178 C 3.837 4.953,3.547 5.255,3.522 5.347 C 3.487 5.479,3.487 5.508,3.521 5.633 C 3.599 5.912,3.916 6.069,4.181 5.959 C 4.250 5.930,4.839 5.359,6.140 4.059 L 8.000 2.200 9.860 4.059 C 11.161 5.359,11.750 5.930,11.819 5.959 C 12.084 6.069,12.401 5.912,12.479 5.633 C 12.514 5.507,12.513 5.484,12.476 5.350 C 12.449 5.255,12.168 4.963,10.389 3.178 C 9.258 2.044,8.291 1.095,8.240 1.069 C 8.121 1.008,8.008 0.989,7.907 1.013 M1.347 7.526 C 1.133 7.602,1.013 7.772,1.013 8.000 C 1.013 8.233,1.134 8.400,1.357 8.476 C 1.488 8.520,14.512 8.520,14.643 8.476 C 14.866 8.400,14.987 8.233,14.987 8.000 C 14.987 7.767,14.866 7.600,14.643 7.524 C 14.519 7.482,1.465 7.484,1.347 7.526 M3.799 10.050 C 3.628 10.128,3.494 10.328,3.494 10.507 C 3.494 10.704,3.480 10.688,5.609 12.822 C 6.852 14.067,7.708 14.905,7.772 14.938 C 7.833 14.970,7.928 14.993,8.000 14.993 C 8.072 14.993,8.167 14.970,8.228 14.938 C 8.292 14.905,9.145 14.069,10.389 12.822 C 12.168 11.037,12.449 10.745,12.476 10.650 C 12.513 10.516,12.514 10.493,12.479 10.367 C 12.401 10.088,12.084 9.931,11.819 10.041 C 11.750 10.070,11.161 10.641,9.860 11.941 L 8.000 13.800 6.140 11.941 C 4.839 10.641,4.250 10.070,4.181 10.041 C 4.051 9.987,3.931 9.990,3.799 10.050 " stroke="none" fill="black" fill-rule="evenodd"></path></svg>