<svg width="1em" height="1em" viewBox="0 0 16 16" class="bi bi-chevron-bar-contract" fill="currentColor" xmlns="http://www.w3.org/2000/svg"><path d="M3.907 1.013 C 3.612 1.081,3.445 1.345,3.520 1.629 C 3.548 1.736,3.741 1.938,5.622 3.823 C 7.040 5.244,7.727 5.915,7.800 5.949 C 7.935 6.012,8.065 6.012,8.200 5.949 C 8.273 5.915,8.960 5.244,10.378 3.823 C 12.271 1.925,12.452 1.736,12.481 1.627 C 12.519 1.487,12.486 1.321,12.397 1.196 C 12.276 1.026,11.978 0.956,11.785 1.053 C 11.734 1.078,10.862 1.928,9.847 2.942 L 8.000 4.787 6.153 2.942 C 5.138 1.928,4.271 1.081,4.227 1.060 C 4.119 1.007,4.003 0.990,3.907 1.013 M1.347 7.526 C 1.133 7.602,1.013 7.772,1.013 8.000 C 1.013 8.233,1.134 8.400,1.357 8.476 C 1.488 8.520,14.512 8.520,14.643 8.476 C 14.866 8.400,14.987 8.233,14.987 8.000 C 14.987 7.767,14.866 7.600,14.643 7.524 C 14.519 7.482,1.465 7.484,1.347 7.526 M7.800 10.051 C 7.727 10.085,7.040 10.756,5.622 12.177 C 3.741 14.062,3.548 14.264,3.520 14.371 C 3.413 14.777,3.843 15.133,4.215 14.947 C 4.266 14.922,5.138 14.072,6.153 13.058 L 8.000 11.213 9.847 13.058 C 10.862 14.072,11.732 14.921,11.779 14.944 C 11.897 15.003,12.112 14.998,12.239 14.934 C 12.435 14.834,12.540 14.593,12.481 14.373 C 12.452 14.264,12.271 14.075,10.378 12.177 C 8.960 10.756,8.273 10.085,8.200 10.051 C 8.141 10.024,8.051 10.001,8.000 10.001 C 7.949 10.001,7.859 10.024,7.800 10.051 " stroke="none" fill="black" fill-rule="evenodd"></path></svg>