<svg width="1em" height="1em" viewBox="0 0 16 16" class="bi bi-chevron-double-down" fill="currentColor" xmlns="http://www.w3.org/2000/svg"><path d="M1.800 2.545 C 1.634 2.619,1.495 2.827,1.494 3.001 C 1.492 3.213,1.507 3.229,4.659 6.379 C 6.802 8.521,7.722 9.423,7.792 9.452 C 7.928 9.508,8.095 9.504,8.225 9.441 C 8.299 9.405,9.309 8.411,11.377 6.341 C 14.036 3.678,14.426 3.277,14.467 3.167 C 14.617 2.761,14.201 2.379,13.792 2.548 C 13.723 2.577,12.855 3.427,10.847 5.434 L 8.000 8.280 5.153 5.434 C 3.142 3.424,2.278 2.577,2.208 2.548 C 2.087 2.498,1.908 2.496,1.800 2.545 M1.800 6.545 C 1.634 6.619,1.495 6.827,1.494 7.001 C 1.492 7.213,1.507 7.229,4.659 10.379 C 6.802 12.521,7.722 13.423,7.792 13.452 C 7.928 13.508,8.095 13.504,8.225 13.441 C 8.299 13.405,9.309 12.411,11.377 10.341 C 14.036 7.678,14.426 7.277,14.467 7.167 C 14.617 6.761,14.201 6.379,13.792 6.548 C 13.723 6.577,12.855 7.427,10.847 9.434 L 8.000 12.280 5.153 9.434 C 3.142 7.424,2.278 6.577,2.208 6.548 C 2.087 6.498,1.908 6.496,1.800 6.545 " stroke="none" fill="black" fill-rule="evenodd"></path></svg>