<svg width="1em" height="1em" viewBox="0 0 16 16" class="bi bi-cloud-slash" fill="currentColor" xmlns="http://www.w3.org/2000/svg"><path d="M1.986 2.000 L 1.640 2.347 7.640 8.347 L 13.640 14.346 13.993 13.993 L 14.347 13.640 8.354 7.647 C 5.057 4.350,2.354 1.653,2.346 1.653 C 2.339 1.653,2.177 1.809,1.986 2.000 M7.360 2.039 C 6.751 2.118,6.201 2.277,5.680 2.523 C 5.328 2.690,4.960 2.905,4.960 2.944 C 4.960 2.959,5.117 3.125,5.308 3.313 L 5.657 3.656 5.942 3.511 C 6.315 3.321,6.660 3.195,7.053 3.105 C 7.324 3.043,7.451 3.030,7.880 3.020 C 8.311 3.009,8.436 3.016,8.717 3.064 C 10.356 3.343,11.672 4.531,12.066 6.087 C 12.151 6.423,12.187 6.746,12.187 7.177 L 12.187 7.540 12.647 7.553 C 13.042 7.565,13.140 7.577,13.341 7.637 C 13.903 7.805,14.342 8.130,14.649 8.604 C 14.884 8.966,14.986 9.321,14.986 9.776 C 14.987 10.568,14.577 11.270,13.869 11.687 L 13.751 11.756 14.119 12.120 L 14.486 12.484 14.636 12.382 C 14.719 12.326,14.880 12.190,14.995 12.081 C 15.881 11.238,16.214 9.976,15.852 8.827 C 15.501 7.712,14.518 6.841,13.353 6.612 C 13.206 6.583,13.170 6.566,13.162 6.522 C 13.157 6.491,13.127 6.321,13.097 6.143 C 12.905 5.028,12.248 3.925,11.333 3.183 C 10.617 2.602,9.815 2.240,8.886 2.078 C 8.478 2.007,7.747 1.988,7.360 2.039 M3.044 5.313 C 3.013 5.420,2.978 5.554,2.966 5.612 L 2.945 5.718 2.706 5.788 C 2.381 5.883,2.097 6.005,1.834 6.164 C 0.727 6.829,0.068 7.911,0.009 9.160 C -0.020 9.777,0.096 10.330,0.374 10.898 C 0.727 11.622,1.298 12.201,2.025 12.571 C 2.534 12.830,2.962 12.946,3.560 12.987 C 3.979 13.016,10.987 13.022,10.987 12.993 C 10.987 12.982,10.768 12.754,10.500 12.486 L 10.013 12.000 6.783 12.000 C 4.009 12.000,3.520 11.994,3.317 11.959 C 2.717 11.856,2.196 11.590,1.785 11.176 C 1.458 10.848,1.235 10.474,1.104 10.034 C 1.017 9.745,0.986 9.173,1.040 8.869 C 1.222 7.845,2.025 6.994,3.057 6.732 C 3.195 6.697,3.438 6.654,3.597 6.637 L 3.885 6.605 3.902 6.256 L 3.919 5.907 3.527 5.513 C 3.311 5.297,3.127 5.120,3.118 5.120 C 3.109 5.120,3.076 5.207,3.044 5.313 " stroke="none" fill="black" fill-rule="evenodd"></path></svg>