<svg width="1em" height="1em" viewBox="0 0 16 16" class="bi bi-cloud-upload" fill="currentColor" xmlns="http://www.w3.org/2000/svg"><path d="M7.441 0.031 C 5.958 0.186,4.535 0.980,3.664 2.141 C 3.336 2.578,3.118 3.017,3.000 3.480 L 2.939 3.720 2.703 3.789 C 1.579 4.118,0.681 4.928,0.256 5.994 C -0.035 6.722,-0.073 7.564,0.149 8.340 C 0.298 8.864,0.692 9.516,1.098 9.911 C 1.502 10.305,2.161 10.692,2.680 10.840 C 3.195 10.987,3.315 10.996,4.773 10.998 C 6.116 11.000,6.120 11.000,6.231 10.941 C 6.597 10.745,6.580 10.222,6.201 10.050 C 6.101 10.005,5.998 10.001,4.823 10.001 C 3.471 10.000,3.287 9.987,2.907 9.862 C 2.474 9.719,2.094 9.487,1.785 9.176 C 1.458 8.848,1.235 8.474,1.104 8.034 C 1.017 7.745,0.986 7.173,1.040 6.869 C 1.222 5.845,2.025 4.994,3.057 4.732 C 3.195 4.697,3.438 4.654,3.597 4.637 L 3.885 4.605 3.902 4.261 C 3.923 3.822,3.970 3.631,4.147 3.265 C 4.656 2.211,5.795 1.376,7.113 1.092 C 7.304 1.051,7.509 1.032,7.880 1.021 C 8.318 1.009,8.432 1.015,8.717 1.064 C 10.356 1.344,11.672 2.532,12.066 4.087 C 12.151 4.423,12.187 4.746,12.187 5.177 L 12.187 5.540 12.647 5.553 C 13.042 5.565,13.140 5.577,13.341 5.637 C 14.164 5.883,14.759 6.503,14.946 7.307 C 14.999 7.537,14.998 8.005,14.944 8.248 C 14.787 8.952,14.244 9.568,13.537 9.842 C 13.157 9.990,13.018 10.000,11.390 10.001 C 10.009 10.001,9.899 10.005,9.799 10.050 C 9.420 10.222,9.403 10.745,9.769 10.941 L 9.880 11.000 11.440 10.999 C 13.140 10.999,13.215 10.993,13.710 10.838 C 15.419 10.301,16.379 8.503,15.852 6.827 C 15.501 5.712,14.518 4.841,13.353 4.612 C 13.206 4.583,13.170 4.566,13.162 4.522 C 13.157 4.491,13.127 4.321,13.097 4.143 C 12.936 3.208,12.433 2.250,11.735 1.548 C 10.618 0.426,9.031 -0.135,7.441 0.031 M7.800 4.051 C 7.668 4.113,4.576 7.203,4.535 7.315 C 4.422 7.618,4.627 7.957,4.943 7.993 C 5.187 8.020,5.184 8.022,6.380 6.831 L 7.493 5.721 7.493 10.137 C 7.493 13.401,7.501 14.576,7.524 14.643 C 7.600 14.866,7.767 14.987,8.000 14.987 C 8.233 14.987,8.400 14.866,8.476 14.643 C 8.499 14.576,8.507 13.401,8.507 10.136 L 8.507 5.721 9.607 6.819 C 10.354 7.566,10.738 7.931,10.806 7.959 C 11.207 8.125,11.617 7.724,11.465 7.315 C 11.424 7.203,8.332 4.113,8.200 4.051 C 8.141 4.024,8.051 4.001,8.000 4.001 C 7.949 4.001,7.859 4.024,7.800 4.051 " stroke="none" fill="black" fill-rule="evenodd"></path></svg>