<svg width="1em" height="1em" viewBox="0 0 16 16" class="bi bi-cloud-plus-fill" fill="currentColor" xmlns="http://www.w3.org/2000/svg"><path d="M7.441 2.031 C 5.956 2.186,4.515 2.992,3.655 4.151 C 3.331 4.587,3.117 5.022,3.000 5.480 L 2.939 5.720 2.703 5.789 C 2.052 5.979,1.489 6.321,1.023 6.807 C 0.546 7.304,0.246 7.859,0.087 8.541 C 0.025 8.802,0.016 8.900,0.015 9.307 C 0.014 9.701,0.023 9.816,0.076 10.051 C 0.414 11.566,1.591 12.669,3.173 12.954 C 3.406 12.996,3.810 13.000,8.213 13.000 C 13.516 13.000,13.167 13.011,13.739 12.828 C 15.429 12.286,16.376 10.493,15.852 8.827 C 15.501 7.712,14.518 6.841,13.353 6.612 C 13.206 6.583,13.170 6.566,13.162 6.522 C 13.157 6.491,13.127 6.321,13.097 6.143 C 12.931 5.181,12.423 4.230,11.686 3.501 C 10.585 2.412,9.010 1.867,7.441 2.031 M8.146 5.523 C 8.282 5.561,8.439 5.718,8.477 5.854 C 8.495 5.920,8.506 6.250,8.507 6.727 L 8.507 7.493 9.273 7.493 C 9.718 7.494,10.082 7.505,10.139 7.521 C 10.399 7.593,10.552 7.868,10.480 8.135 C 10.440 8.281,10.288 8.438,10.146 8.477 C 10.080 8.495,9.750 8.506,9.273 8.507 L 8.507 8.507 8.507 9.273 C 8.506 9.718,8.495 10.082,8.479 10.139 C 8.407 10.399,8.132 10.552,7.865 10.480 C 7.719 10.440,7.562 10.288,7.523 10.146 C 7.505 10.080,7.494 9.750,7.493 9.273 L 7.493 8.507 6.727 8.507 C 6.250 8.506,5.920 8.495,5.854 8.477 C 5.712 8.438,5.560 8.281,5.520 8.135 C 5.448 7.868,5.601 7.593,5.861 7.521 C 5.918 7.505,6.282 7.494,6.727 7.493 L 7.493 7.493 7.493 6.727 C 7.494 6.266,7.505 5.919,7.522 5.857 C 7.559 5.723,7.693 5.581,7.827 5.533 C 7.958 5.487,8.010 5.485,8.146 5.523 " stroke="none" fill="black" fill-rule="evenodd"></path></svg>