<svg width="1em" height="1em" viewBox="0 0 16 16" class="bi bi-cloud-minus" fill="currentColor" xmlns="http://www.w3.org/2000/svg"><path d="M7.441 2.031 C 5.958 2.186,4.535 2.980,3.664 4.141 C 3.336 4.578,3.118 5.017,3.000 5.480 L 2.939 5.720 2.703 5.789 C 1.579 6.118,0.681 6.928,0.256 7.994 C -0.035 8.722,-0.073 9.564,0.149 10.340 C 0.298 10.864,0.692 11.516,1.098 11.911 C 1.640 12.440,2.379 12.811,3.173 12.954 C 3.406 12.996,3.810 13.000,8.213 13.000 C 13.516 13.000,13.167 13.011,13.739 12.828 C 15.429 12.286,16.376 10.492,15.852 8.827 C 15.501 7.712,14.518 6.841,13.353 6.612 C 13.206 6.583,13.170 6.566,13.162 6.522 C 13.157 6.491,13.127 6.321,13.097 6.143 C 12.936 5.208,12.433 4.250,11.735 3.548 C 10.618 2.426,9.031 1.865,7.441 2.031 M8.736 3.067 C 10.356 3.344,11.674 4.539,12.066 6.087 C 12.151 6.423,12.187 6.746,12.187 7.177 L 12.187 7.540 12.647 7.553 C 13.042 7.565,13.140 7.577,13.341 7.637 C 14.164 7.883,14.759 8.503,14.946 9.307 C 14.999 9.537,14.998 10.005,14.944 10.248 C 14.787 10.952,14.244 11.568,13.537 11.842 C 13.114 12.006,13.323 12.000,8.213 12.000 C 4.157 12.000,3.523 11.995,3.317 11.959 C 2.717 11.856,2.196 11.590,1.785 11.176 C 1.458 10.848,1.235 10.474,1.104 10.034 C 1.017 9.745,0.986 9.173,1.040 8.869 C 1.222 7.845,2.025 6.994,3.057 6.732 C 3.195 6.697,3.439 6.654,3.600 6.636 L 3.893 6.605 3.894 6.416 C 3.894 6.118,3.940 5.788,4.011 5.580 C 4.432 4.342,5.812 3.290,7.323 3.055 C 7.695 2.998,8.361 3.003,8.736 3.067 M5.831 7.532 C 5.486 7.655,5.390 8.089,5.650 8.349 C 5.704 8.403,5.796 8.461,5.854 8.477 C 5.927 8.497,6.593 8.506,8.000 8.506 C 9.407 8.506,10.073 8.497,10.146 8.477 C 10.288 8.438,10.440 8.281,10.480 8.135 C 10.552 7.868,10.399 7.593,10.139 7.521 C 10.075 7.503,9.320 7.494,7.987 7.495 C 6.317 7.495,5.914 7.503,5.831 7.532 " stroke="none" fill="black" fill-rule="evenodd"></path></svg>