<svg width="1em" height="1em" viewBox="0 0 16 16" class="bi bi-code" fill="currentColor" xmlns="http://www.w3.org/2000/svg"><path d="M5.293 4.050 C 5.223 4.084,4.576 4.714,3.369 5.924 C 1.491 7.807,1.494 7.804,1.494 8.000 C 1.494 8.196,1.490 8.192,3.382 10.087 C 4.853 11.560,5.236 11.929,5.326 11.964 C 5.713 12.112,6.100 11.741,5.974 11.343 C 5.947 11.260,5.628 10.927,4.324 9.620 L 2.707 8.000 4.324 6.380 C 6.062 4.639,6.021 4.686,5.993 4.437 C 5.956 4.111,5.588 3.907,5.293 4.050 M10.307 4.037 C 10.056 4.148,9.937 4.437,10.041 4.688 C 10.069 4.756,10.571 5.276,11.687 6.393 L 13.293 8.000 11.676 9.620 C 10.372 10.926,10.053 11.260,10.026 11.343 C 9.900 11.741,10.287 12.112,10.674 11.964 C 10.764 11.929,11.147 11.560,12.618 10.087 C 14.510 8.192,14.506 8.196,14.506 8.000 C 14.506 7.804,14.509 7.807,12.631 5.924 C 11.392 4.681,10.779 4.085,10.707 4.051 C 10.582 3.993,10.420 3.987,10.307 4.037 " stroke="none" fill="black" fill-rule="evenodd"></path></svg>