<svg width="1em" height="1em" viewBox="0 0 16 16" class="bi bi-columns" fill="currentColor" xmlns="http://www.w3.org/2000/svg"><path d="M0.707 1.041 C 0.423 1.125,0.144 1.405,0.055 1.696 C 0.000 1.871,-0.000 1.902,0.000 7.998 C 0.000 14.757,-0.013 14.260,0.165 14.539 C 0.327 14.796,0.573 14.945,0.900 14.988 C 1.037 15.006,3.487 15.013,8.147 15.008 L 15.187 15.000 15.337 14.939 C 15.648 14.813,15.851 14.600,15.947 14.297 C 15.999 14.130,16.000 14.058,16.000 8.002 C 16.000 1.243,16.013 1.740,15.835 1.461 C 15.737 1.306,15.614 1.196,15.432 1.100 L 15.293 1.027 8.040 1.022 C 3.917 1.020,0.752 1.028,0.707 1.041 M7.493 3.493 L 7.493 4.987 4.253 4.987 L 1.013 4.987 1.013 3.493 L 1.013 2.000 4.253 2.000 L 7.493 2.000 7.493 3.493 M14.987 6.000 L 14.987 10.000 11.747 10.000 L 8.507 10.000 8.507 6.000 L 8.507 2.000 11.747 2.000 L 14.987 2.000 14.987 6.000 M7.493 10.000 L 7.493 14.000 4.253 14.000 L 1.013 14.000 1.013 10.000 L 1.013 6.000 4.253 6.000 L 7.493 6.000 7.493 10.000 M14.987 12.507 L 14.987 14.000 11.747 14.000 L 8.507 14.000 8.507 12.507 L 8.507 11.013 11.747 11.013 L 14.987 11.013 14.987 12.507 " stroke="none" fill="black" fill-rule="evenodd"></path></svg>