<svg width="1em" height="1em" viewBox="0 0 16 16" class="bi bi-dash-circle-fill" fill="currentColor" xmlns="http://www.w3.org/2000/svg"><path d="M7.293 0.030 C 4.174 0.300,1.460 2.423,0.439 5.390 C -0.989 9.546,1.195 14.077,5.331 15.539 C 8.244 16.569,11.468 15.838,13.653 13.653 C 16.473 10.834,16.787 6.378,14.390 3.190 C 12.867 1.166,10.473 -0.019,7.947 0.004 C 7.734 0.006,7.440 0.018,7.293 0.030 M12.139 7.521 C 12.399 7.593,12.552 7.868,12.480 8.135 C 12.440 8.281,12.288 8.438,12.146 8.477 C 11.996 8.519,4.004 8.519,3.854 8.477 C 3.495 8.377,3.385 7.890,3.662 7.631 C 3.813 7.490,3.625 7.496,7.987 7.495 C 10.696 7.494,12.073 7.503,12.139 7.521 " stroke="none" fill="black" fill-rule="evenodd"></path></svg>