<svg width="1em" height="1em" viewBox="0 0 16 16" class="bi bi-dice-3" fill="currentColor" xmlns="http://www.w3.org/2000/svg"><path d="M2.573 0.030 C 1.256 0.219,0.200 1.294,0.027 2.619 C 0.007 2.773,0.000 4.455,0.006 8.147 L 0.013 13.453 0.084 13.709 C 0.398 14.844,1.156 15.602,2.291 15.916 L 2.547 15.987 7.853 15.994 C 11.545 16.000,13.227 15.993,13.381 15.973 C 14.721 15.798,15.785 14.742,15.971 13.402 C 16.011 13.114,16.011 2.886,15.971 2.598 C 15.786 1.266,14.734 0.214,13.402 0.029 C 13.150 -0.006,2.817 -0.006,2.573 0.030 M13.464 1.054 C 14.029 1.187,14.555 1.618,14.802 2.147 C 15.001 2.576,14.987 2.108,14.987 8.000 C 14.987 13.892,15.001 13.424,14.802 13.853 C 14.556 14.380,14.071 14.779,13.467 14.950 C 13.302 14.996,13.048 14.999,8.240 15.007 C 5.043 15.012,3.074 15.006,2.880 14.989 C 2.113 14.923,1.508 14.514,1.196 13.851 C 1.000 13.434,1.014 13.879,1.014 8.000 C 1.014 2.079,0.998 2.559,1.212 2.120 C 1.477 1.577,1.978 1.181,2.573 1.043 C 2.636 1.029,4.850 1.018,7.987 1.016 C 12.631 1.014,13.315 1.019,13.464 1.054 M3.627 2.549 C 3.106 2.686,2.681 3.115,2.547 3.639 C 2.347 4.425,2.844 5.250,3.639 5.453 C 4.425 5.653,5.250 5.156,5.453 4.361 C 5.653 3.574,5.158 2.751,4.361 2.547 C 4.164 2.497,3.821 2.498,3.627 2.549 M7.627 6.549 C 7.106 6.686,6.681 7.115,6.547 7.639 C 6.347 8.425,6.844 9.250,7.639 9.453 C 8.425 9.653,9.250 9.156,9.453 8.361 C 9.653 7.574,9.158 6.751,8.361 6.547 C 8.164 6.497,7.821 6.498,7.627 6.549 M11.627 10.549 C 11.106 10.686,10.681 11.115,10.547 11.639 C 10.347 12.425,10.844 13.250,11.639 13.453 C 12.425 13.653,13.250 13.156,13.453 12.361 C 13.653 11.574,13.158 10.751,12.361 10.547 C 12.164 10.497,11.821 10.498,11.627 10.549 " stroke="none" fill="black" fill-rule="evenodd"></path></svg>