<svg width="1em" height="1em" viewBox="0 0 16 16" class="bi bi-display-fill" fill="currentColor" xmlns="http://www.w3.org/2000/svg"><path d="M1.537 2.043 C 0.742 2.186,0.212 2.757,0.042 3.652 C -0.021 3.981,-0.021 10.084,0.041 10.441 C 0.159 11.118,0.567 11.601,1.221 11.839 C 1.658 11.999,1.675 12.000,3.936 12.000 L 6.000 12.000 6.000 12.157 C 6.000 12.555,5.922 13.051,5.813 13.341 L 5.756 13.493 5.365 13.493 C 4.918 13.494,4.811 13.516,4.675 13.634 C 4.447 13.835,4.447 14.165,4.675 14.366 C 4.728 14.412,4.817 14.463,4.873 14.478 C 5.013 14.517,10.987 14.517,11.127 14.478 C 11.183 14.463,11.272 14.412,11.325 14.366 C 11.553 14.165,11.553 13.835,11.325 13.634 C 11.189 13.516,11.082 13.494,10.635 13.493 L 10.244 13.493 10.187 13.341 C 10.078 13.051,10.000 12.555,10.000 12.158 L 10.000 12.002 12.207 11.993 C 14.683 11.983,14.555 11.993,14.983 11.781 C 15.486 11.533,15.829 11.028,15.958 10.348 C 16.021 10.019,16.021 3.916,15.959 3.559 C 15.841 2.882,15.433 2.399,14.779 2.161 C 14.311 1.990,14.745 2.000,7.937 2.002 C 2.711 2.004,1.714 2.011,1.537 2.043 " stroke="none" fill="black" fill-rule="evenodd"></path></svg>