<svg width="1em" height="1em" viewBox="0 0 16 16" class="bi bi-droplet-half" fill="currentColor" xmlns="http://www.w3.org/2000/svg"><path d="M7.435 0.568 C 4.539 3.600,2.759 6.337,2.176 8.654 C 1.735 10.406,2.162 12.304,3.325 13.754 C 5.075 15.938,8.140 16.622,10.638 15.385 C 12.210 14.606,13.368 13.193,13.803 11.521 C 13.973 10.866,14.042 10.008,13.964 9.507 C 13.796 8.423,13.292 7.574,11.866 5.973 C 10.604 4.557,10.302 4.201,9.859 3.604 C 9.045 2.507,8.451 1.385,8.068 0.220 C 8.028 0.099,7.992 0.000,7.987 0.000 C 7.982 0.000,7.734 0.255,7.435 0.568 M7.786 2.159 C 8.114 2.814,8.576 3.553,9.067 4.213 C 9.529 4.833,9.868 5.235,11.008 6.516 C 12.452 8.137,12.927 8.917,12.979 9.755 L 12.995 10.003 12.931 9.989 C 12.612 9.917,11.635 9.858,11.133 9.880 C 9.939 9.932,9.043 10.106,8.053 10.480 C 7.269 10.776,6.555 10.885,5.790 10.828 C 4.932 10.763,4.120 10.543,3.296 10.153 L 3.006 10.015 3.021 9.707 C 3.094 8.189,4.242 5.922,6.131 3.561 C 6.634 2.932,7.576 1.840,7.615 1.840 C 7.621 1.840,7.698 1.984,7.786 2.159 M6.426 4.886 C 6.038 5.335,5.536 6.042,5.163 6.667 C 4.935 7.048,4.549 7.758,4.563 7.771 C 4.587 7.793,5.446 8.216,5.452 8.208 C 5.455 8.204,5.534 8.056,5.627 7.880 C 6.018 7.137,6.535 6.345,7.006 5.762 C 7.164 5.567,7.305 5.391,7.320 5.371 C 7.340 5.342,7.267 5.255,7.013 5.000 C 6.831 4.817,6.666 4.667,6.648 4.667 C 6.631 4.667,6.531 4.766,6.426 4.886 " stroke="none" fill="black" fill-rule="evenodd"></path></svg>