<svg width="1em" height="1em" viewBox="0 0 16 16" class="bi bi-earbuds" fill="currentColor" xmlns="http://www.w3.org/2000/svg"><path d="M3.493 2.043 C 3.128 2.092,2.607 2.219,2.351 2.322 C 0.661 2.999,-0.331 4.935,0.108 6.704 C 0.137 6.819,0.736 8.652,1.441 10.776 L 2.721 14.638 2.868 14.792 C 2.991 14.920,3.038 14.951,3.154 14.978 C 3.286 15.008,3.311 15.004,3.640 14.902 C 4.052 14.774,4.178 14.707,4.279 14.561 C 4.431 14.341,4.446 14.401,3.752 12.360 C 3.065 10.339,2.469 8.542,2.441 8.407 C 2.419 8.306,2.423 8.305,2.653 8.357 C 2.856 8.403,3.464 8.412,3.775 8.373 C 4.654 8.265,5.410 7.972,5.971 7.524 C 6.126 7.400,7.160 6.295,7.138 6.277 C 7.136 6.275,6.845 6.295,6.493 6.323 C 6.141 6.351,5.817 6.366,5.773 6.357 C 5.332 6.266,4.830 5.467,4.627 4.533 C 4.561 4.229,4.544 3.603,4.597 3.379 C 4.670 3.070,4.710 3.018,5.216 2.586 C 5.473 2.366,5.673 2.187,5.661 2.187 C 5.649 2.187,5.339 2.145,4.973 2.093 C 4.242 1.991,3.953 1.981,3.493 2.043 M11.011 2.091 C 10.680 2.140,10.396 2.184,10.381 2.190 C 10.365 2.195,10.550 2.372,10.791 2.582 C 11.250 2.982,11.307 3.048,11.377 3.267 C 11.442 3.467,11.455 4.013,11.404 4.336 C 11.262 5.229,10.807 6.089,10.360 6.308 L 10.216 6.378 9.542 6.324 C 9.172 6.294,8.865 6.272,8.862 6.276 C 8.841 6.297,9.864 7.392,10.021 7.518 C 10.904 8.221,12.248 8.538,13.473 8.330 C 13.554 8.316,13.573 8.321,13.573 8.356 C 13.573 8.415,13.021 10.085,12.261 12.320 C 11.703 13.963,11.624 14.216,11.634 14.326 C 11.648 14.479,11.752 14.641,11.890 14.722 C 11.979 14.775,12.738 15.013,12.818 15.013 C 12.897 15.013,13.214 14.780,13.257 14.691 C 13.344 14.510,15.870 6.819,15.926 6.566 C 16.008 6.192,16.008 5.488,15.925 5.102 C 15.761 4.342,15.399 3.669,14.865 3.135 C 14.593 2.862,14.270 2.624,13.959 2.467 C 13.843 2.408,13.736 2.347,13.721 2.331 C 13.685 2.293,12.876 2.092,12.600 2.053 C 12.483 2.036,12.213 2.018,12.000 2.013 C 11.667 2.004,11.529 2.015,11.011 2.091 " stroke="none" fill="black" fill-rule="evenodd"></path></svg>