<svg width="1em" height="1em" viewBox="0 0 16 16" class="bi bi-egg-fill" fill="currentColor" xmlns="http://www.w3.org/2000/svg"><path d="M7.564 0.041 C 7.082 0.132,6.578 0.366,6.092 0.724 C 5.738 0.985,5.090 1.630,4.776 2.035 C 3.372 3.846,2.347 6.424,2.067 8.853 C 2.005 9.389,1.987 10.088,2.024 10.506 C 2.262 13.177,4.198 15.347,6.818 15.879 C 8.776 16.277,10.819 15.659,12.239 14.239 C 13.008 13.471,13.572 12.474,13.822 11.440 C 13.957 10.882,13.985 10.620,13.985 9.933 C 13.985 9.270,13.964 9.003,13.852 8.280 C 13.457 5.721,12.179 2.961,10.668 1.403 C 9.787 0.493,8.948 0.043,8.080 0.012 C 7.877 0.005,7.703 0.014,7.564 0.041 " stroke="none" fill="black" fill-rule="evenodd"></path></svg>