<svg width="1em" height="1em" viewBox="0 0 16 16" class="bi bi-emoji-frown" fill="currentColor" xmlns="http://www.w3.org/2000/svg"><path d="M7.293 0.030 C 4.174 0.300,1.460 2.423,0.439 5.390 C -0.989 9.546,1.195 14.077,5.331 15.539 C 8.244 16.569,11.468 15.838,13.653 13.653 C 16.473 10.834,16.787 6.378,14.390 3.190 C 12.867 1.166,10.473 -0.019,7.947 0.004 C 7.734 0.006,7.440 0.018,7.293 0.030 M8.768 1.041 C 10.349 1.213,11.838 1.934,12.973 3.079 C 13.491 3.601,13.952 4.250,14.280 4.919 C 14.518 5.405,14.657 5.783,14.783 6.284 C 14.947 6.939,14.973 7.177,14.973 8.000 C 14.973 8.823,14.947 9.061,14.783 9.716 C 14.657 10.218,14.517 10.596,14.280 11.080 C 13.369 12.933,11.704 14.284,9.716 14.783 C 9.061 14.947,8.823 14.973,8.000 14.973 C 7.177 14.973,6.938 14.947,6.287 14.783 C 4.507 14.336,2.953 13.185,2.008 11.613 C 1.484 10.744,1.149 9.755,1.041 8.768 C 1.005 8.434,1.005 7.566,1.041 7.232 C 1.237 5.430,2.177 3.705,3.581 2.572 C 4.606 1.745,5.923 1.187,7.187 1.044 C 7.491 1.010,8.462 1.008,8.768 1.041 M5.686 5.082 C 5.409 5.220,5.174 5.562,5.067 5.984 C 4.994 6.271,4.993 6.740,5.065 7.019 C 5.213 7.597,5.597 8.000,6.000 8.000 C 6.308 8.000,6.619 7.759,6.800 7.382 C 6.936 7.099,6.986 6.862,6.986 6.491 C 6.987 5.845,6.720 5.284,6.314 5.082 C 6.122 4.986,5.878 4.986,5.686 5.082 M9.686 5.082 C 9.409 5.220,9.174 5.562,9.067 5.984 C 8.994 6.271,8.993 6.740,9.065 7.019 C 9.213 7.597,9.597 8.000,10.000 8.000 C 10.308 8.000,10.619 7.759,10.800 7.382 C 10.936 7.099,10.986 6.862,10.986 6.491 C 10.987 5.845,10.720 5.284,10.314 5.082 C 10.122 4.986,9.878 4.986,9.686 5.082 M7.547 9.524 C 6.148 9.667,4.887 10.465,4.145 11.677 C 4.057 11.822,4.041 11.870,4.041 11.997 C 4.041 12.326,4.347 12.566,4.659 12.482 C 4.816 12.440,4.881 12.378,5.082 12.074 C 5.590 11.308,6.394 10.765,7.315 10.567 C 7.622 10.502,8.380 10.501,8.685 10.567 C 9.155 10.669,9.610 10.863,9.999 11.128 C 10.296 11.331,10.704 11.751,10.918 12.074 C 11.113 12.368,11.198 12.447,11.363 12.484 C 11.706 12.561,12.036 12.225,11.946 11.890 C 11.863 11.582,11.318 10.899,10.856 10.523 C 9.922 9.764,8.727 9.403,7.547 9.524 " stroke="none" fill="black" fill-rule="evenodd"></path></svg>