<svg width="1em" height="1em" viewBox="0 0 16 16" class="bi bi-emoji-smile-upside-down" fill="currentColor" xmlns="http://www.w3.org/2000/svg"><path d="M7.293 0.030 C 4.174 0.300,1.460 2.423,0.439 5.390 C -0.989 9.546,1.195 14.077,5.331 15.539 C 8.244 16.569,11.468 15.838,13.653 13.653 C 16.473 10.834,16.787 6.378,14.390 3.190 C 12.867 1.166,10.473 -0.019,7.947 0.004 C 7.734 0.006,7.440 0.018,7.293 0.030 M8.768 1.041 C 10.349 1.213,11.838 1.934,12.973 3.079 C 13.491 3.601,13.952 4.250,14.280 4.919 C 14.518 5.405,14.657 5.783,14.783 6.284 C 14.947 6.939,14.973 7.177,14.973 8.000 C 14.973 8.823,14.947 9.061,14.783 9.716 C 14.657 10.218,14.517 10.596,14.280 11.080 C 13.369 12.933,11.704 14.284,9.716 14.783 C 9.061 14.947,8.823 14.973,8.000 14.973 C 7.177 14.973,6.938 14.947,6.287 14.783 C 4.507 14.336,2.953 13.185,2.008 11.613 C 1.484 10.744,1.149 9.755,1.041 8.768 C 1.005 8.434,1.005 7.566,1.041 7.232 C 1.237 5.430,2.177 3.705,3.581 2.572 C 4.606 1.745,5.923 1.187,7.187 1.044 C 7.491 1.010,8.462 1.008,8.768 1.041 M7.547 3.524 C 6.148 3.667,4.887 4.465,4.145 5.677 C 4.057 5.822,4.041 5.870,4.041 5.997 C 4.041 6.326,4.347 6.566,4.659 6.482 C 4.816 6.440,4.881 6.378,5.082 6.074 C 5.590 5.308,6.394 4.765,7.315 4.567 C 7.622 4.502,8.380 4.501,8.685 4.567 C 9.155 4.669,9.610 4.863,9.999 5.128 C 10.296 5.331,10.704 5.751,10.918 6.074 C 11.113 6.368,11.198 6.447,11.363 6.484 C 11.706 6.561,12.036 6.225,11.946 5.890 C 11.863 5.582,11.318 4.899,10.856 4.523 C 9.922 3.764,8.727 3.403,7.547 3.524 M5.739 8.057 C 5.445 8.170,5.179 8.535,5.065 8.981 C 4.993 9.260,4.994 9.729,5.067 10.016 C 5.174 10.438,5.409 10.780,5.686 10.918 C 5.878 11.014,6.122 11.014,6.314 10.918 C 6.720 10.716,6.987 10.155,6.986 9.509 C 6.986 9.138,6.936 8.901,6.800 8.618 C 6.560 8.117,6.149 7.900,5.739 8.057 M9.739 8.057 C 9.445 8.170,9.179 8.535,9.065 8.981 C 8.993 9.260,8.994 9.729,9.067 10.016 C 9.174 10.438,9.409 10.780,9.686 10.918 C 9.878 11.014,10.122 11.014,10.314 10.918 C 10.720 10.716,10.987 10.155,10.986 9.509 C 10.986 9.138,10.936 8.901,10.800 8.618 C 10.560 8.117,10.149 7.900,9.739 8.057 " stroke="none" fill="black" fill-rule="evenodd"></path></svg>