<svg width="1em" height="1em" viewBox="0 0 16 16" class="bi bi-exclamation-octagon" fill="currentColor" xmlns="http://www.w3.org/2000/svg"><path d="M4.680 0.053 C 4.526 0.129,0.096 4.566,0.041 4.699 C 0.005 4.787,0.000 5.179,0.000 8.004 C 0.000 11.143,0.001 11.212,0.053 11.318 C 0.128 11.473,4.563 15.903,4.699 15.959 C 4.787 15.995,5.179 16.000,8.004 16.000 C 11.143 16.000,11.212 15.999,11.318 15.947 C 11.473 15.872,15.903 11.437,15.959 11.301 C 15.995 11.213,16.000 10.821,16.000 8.000 C 16.000 5.179,15.995 4.787,15.959 4.699 C 15.903 4.563,11.473 0.128,11.318 0.053 C 11.212 0.001,11.143 0.000,7.998 0.000 C 4.849 0.000,4.785 0.001,4.680 0.053 M12.953 3.047 L 14.987 5.080 14.987 8.000 L 14.987 10.920 12.940 12.967 L 10.893 15.013 8.000 15.013 L 5.107 15.013 3.060 12.967 L 1.013 10.920 1.013 8.000 L 1.013 5.080 3.047 3.047 L 5.080 1.013 8.000 1.013 L 10.920 1.013 12.953 3.047 M7.760 4.023 C 7.399 4.142,7.135 4.456,7.103 4.807 C 7.096 4.885,7.173 5.755,7.276 6.779 C 7.446 8.459,7.467 8.621,7.524 8.725 C 7.629 8.914,7.876 9.038,8.076 9.000 C 8.194 8.978,8.346 8.902,8.403 8.836 C 8.528 8.695,8.535 8.649,8.724 6.776 C 8.828 5.754,8.904 4.885,8.897 4.807 C 8.870 4.512,8.675 4.233,8.394 4.090 C 8.283 4.033,8.209 4.016,8.040 4.010 C 7.923 4.005,7.797 4.011,7.760 4.023 M7.693 10.053 C 7.273 10.194,7.013 10.555,7.013 11.000 C 7.013 11.456,7.278 11.814,7.716 11.950 C 8.165 12.090,8.653 11.889,8.874 11.474 C 9.220 10.825,8.787 10.049,8.057 10.010 C 7.902 10.002,7.815 10.012,7.693 10.053 " stroke="none" fill="black" fill-rule="evenodd"></path></svg>