<svg width="1em" height="1em" viewBox="0 0 16 16" class="bi bi-file-zip-fill" fill="currentColor" xmlns="http://www.w3.org/2000/svg"><path d="M3.507 1.066 C 2.744 1.268,2.185 1.863,2.039 2.630 C 1.981 2.932,1.981 13.068,2.039 13.370 C 2.116 13.775,2.287 14.096,2.587 14.401 C 2.927 14.748,3.332 14.938,3.833 14.987 C 4.178 15.020,11.822 15.020,12.167 14.987 C 12.668 14.938,13.073 14.748,13.413 14.401 C 13.713 14.096,13.884 13.775,13.961 13.370 C 14.019 13.068,14.019 2.932,13.961 2.630 C 13.884 2.225,13.713 1.904,13.413 1.599 C 13.186 1.367,12.939 1.211,12.627 1.102 L 12.413 1.027 10.207 1.019 L 8.000 1.012 8.000 1.506 L 8.000 2.000 8.493 2.000 L 8.987 2.000 8.987 2.507 L 8.987 3.013 8.493 3.013 L 8.000 3.013 8.000 3.507 L 8.000 4.000 8.493 4.000 L 8.987 4.000 8.987 4.507 L 8.987 5.013 8.493 5.013 L 8.000 5.013 8.000 5.507 L 8.000 6.000 8.493 6.000 L 8.987 6.000 8.987 6.507 L 8.987 7.014 8.247 7.007 L 7.507 7.000 7.499 6.500 L 7.492 6.000 6.999 6.000 L 6.507 6.000 6.507 5.507 L 6.507 5.013 7.000 5.013 L 7.493 5.013 7.493 4.507 L 7.493 4.000 7.000 4.000 L 6.507 4.000 6.507 3.507 L 6.507 3.013 7.000 3.013 L 7.493 3.013 7.493 2.507 L 7.493 2.000 7.000 2.000 L 6.507 2.000 6.507 1.507 L 6.507 1.013 5.100 1.015 C 3.818 1.016,3.677 1.021,3.507 1.066 M8.734 7.535 C 9.031 7.612,9.264 7.800,9.403 8.075 C 9.480 8.226,9.480 8.228,9.494 8.867 L 9.509 9.507 9.717 10.320 C 9.910 11.074,9.924 11.149,9.914 11.347 C 9.900 11.604,9.803 11.818,9.622 11.990 C 9.504 12.103,8.630 12.696,8.438 12.794 C 8.259 12.885,8.027 12.919,7.834 12.881 C 7.743 12.863,7.620 12.824,7.562 12.794 C 7.361 12.692,6.440 12.059,6.342 11.956 C 6.179 11.786,6.098 11.593,6.086 11.347 C 6.076 11.150,6.091 11.072,6.283 10.320 L 6.491 9.507 6.506 8.867 C 6.520 8.239,6.522 8.224,6.592 8.080 C 6.722 7.815,6.969 7.613,7.254 7.536 C 7.468 7.479,8.515 7.478,8.734 7.535 M7.493 9.052 L 7.493 9.598 7.292 10.392 C 7.181 10.829,7.084 11.207,7.077 11.232 C 7.067 11.267,7.173 11.350,7.532 11.590 L 8.000 11.902 8.468 11.590 C 8.828 11.350,8.933 11.267,8.923 11.232 C 8.915 11.207,8.819 10.830,8.708 10.394 L 8.507 9.602 8.507 9.054 L 8.507 8.507 8.000 8.507 L 7.493 8.507 7.493 9.052 " stroke="none" fill="black" fill-rule="evenodd"></path></svg>