<svg width="1em" height="1em" viewBox="0 0 16 16" class="bi bi-file-text" fill="currentColor" xmlns="http://www.w3.org/2000/svg"><path d="M3.507 1.066 C 2.743 1.269,2.185 1.863,2.039 2.630 C 1.981 2.932,1.981 13.068,2.039 13.370 C 2.116 13.775,2.287 14.096,2.587 14.401 C 2.927 14.748,3.332 14.938,3.833 14.987 C 4.178 15.020,11.822 15.020,12.167 14.987 C 12.668 14.938,13.073 14.748,13.413 14.401 C 13.713 14.096,13.884 13.775,13.961 13.370 C 14.019 13.068,14.019 2.932,13.961 2.630 C 13.884 2.225,13.713 1.904,13.413 1.599 C 13.186 1.367,12.939 1.211,12.627 1.102 L 12.413 1.027 8.053 1.021 C 3.877 1.016,3.685 1.018,3.507 1.066 M12.297 2.053 C 12.600 2.149,12.821 2.359,12.932 2.657 C 12.986 2.801,12.987 2.840,12.987 8.000 C 12.987 13.160,12.986 13.199,12.932 13.343 C 12.821 13.641,12.600 13.851,12.297 13.947 C 12.131 13.999,12.057 14.000,8.002 14.000 C 3.454 14.000,3.736 14.010,3.461 13.835 C 3.306 13.737,3.196 13.614,3.100 13.432 L 3.027 13.293 3.027 8.000 L 3.027 2.707 3.099 2.570 C 3.239 2.304,3.434 2.137,3.704 2.051 C 3.845 2.006,4.092 2.003,7.991 2.001 C 12.059 2.000,12.131 2.001,12.297 2.053 M4.778 4.057 C 4.566 4.162,4.455 4.441,4.532 4.675 C 4.579 4.817,4.740 4.949,4.911 4.985 C 5.012 5.006,5.937 5.012,8.080 5.007 C 11.046 5.000,11.109 4.999,11.212 4.947 C 11.269 4.917,11.353 4.847,11.398 4.791 C 11.471 4.699,11.480 4.669,11.480 4.509 C 11.480 4.285,11.398 4.143,11.220 4.057 L 11.103 4.000 7.998 4.000 L 4.893 4.000 4.778 4.057 M4.778 6.057 C 4.566 6.162,4.455 6.441,4.532 6.675 C 4.579 6.817,4.740 6.949,4.911 6.985 C 5.012 7.006,5.937 7.012,8.080 7.007 C 11.046 7.000,11.109 6.999,11.212 6.947 C 11.269 6.917,11.353 6.847,11.398 6.791 C 11.471 6.699,11.480 6.669,11.480 6.509 C 11.480 6.285,11.398 6.143,11.220 6.057 L 11.103 6.000 7.998 6.000 L 4.893 6.000 4.778 6.057 M4.778 8.057 C 4.566 8.162,4.455 8.441,4.532 8.675 C 4.579 8.817,4.740 8.949,4.911 8.985 C 5.012 9.006,5.937 9.012,8.080 9.007 C 11.046 9.000,11.109 8.999,11.212 8.947 C 11.269 8.917,11.353 8.847,11.398 8.791 C 11.471 8.699,11.480 8.669,11.480 8.509 C 11.480 8.285,11.398 8.143,11.220 8.057 L 11.103 8.000 7.998 8.000 L 4.893 8.000 4.778 8.057 M4.778 10.057 C 4.566 10.162,4.455 10.441,4.532 10.675 C 4.579 10.819,4.740 10.949,4.914 10.985 C 5.016 11.007,5.522 11.013,6.590 11.008 C 8.114 11.000,8.120 11.000,8.231 10.941 C 8.597 10.745,8.580 10.222,8.201 10.050 C 8.100 10.004,7.988 10.001,6.493 10.001 C 4.911 10.000,4.892 10.001,4.778 10.057 " stroke="none" fill="black" fill-rule="evenodd"></path></svg>