<svg width="1em" height="1em" viewBox="0 0 16 16" class="bi bi-file-plus" fill="currentColor" xmlns="http://www.w3.org/2000/svg"><path d="M3.507 1.066 C 2.743 1.269,2.185 1.863,2.039 2.630 C 1.981 2.932,1.981 13.068,2.039 13.370 C 2.116 13.775,2.287 14.096,2.587 14.401 C 2.927 14.748,3.332 14.938,3.833 14.987 C 4.178 15.020,11.822 15.020,12.167 14.987 C 12.668 14.938,13.073 14.748,13.413 14.401 C 13.713 14.096,13.884 13.775,13.961 13.370 C 14.019 13.068,14.019 2.932,13.961 2.630 C 13.884 2.225,13.713 1.904,13.413 1.599 C 13.186 1.367,12.939 1.211,12.627 1.102 L 12.413 1.027 8.053 1.021 C 3.877 1.016,3.685 1.018,3.507 1.066 M12.297 2.053 C 12.600 2.149,12.821 2.359,12.932 2.657 C 12.986 2.801,12.987 2.840,12.987 8.000 C 12.987 13.160,12.986 13.199,12.932 13.343 C 12.821 13.641,12.600 13.851,12.297 13.947 C 12.131 13.999,12.057 14.000,8.002 14.000 C 3.454 14.000,3.736 14.010,3.461 13.835 C 3.306 13.737,3.196 13.614,3.100 13.432 L 3.027 13.293 3.027 8.000 L 3.027 2.707 3.099 2.570 C 3.239 2.304,3.434 2.137,3.704 2.051 C 3.845 2.006,4.092 2.003,7.991 2.001 C 12.059 2.000,12.131 2.001,12.297 2.053 M7.827 5.533 C 7.693 5.581,7.559 5.723,7.522 5.857 C 7.505 5.919,7.494 6.266,7.493 6.727 L 7.493 7.493 6.727 7.493 C 6.282 7.494,5.918 7.505,5.861 7.521 C 5.601 7.593,5.448 7.868,5.520 8.135 C 5.560 8.281,5.712 8.438,5.854 8.477 C 5.920 8.495,6.250 8.506,6.727 8.507 L 7.493 8.507 7.493 9.273 C 7.494 9.750,7.505 10.080,7.523 10.146 C 7.562 10.288,7.719 10.440,7.865 10.480 C 8.132 10.552,8.407 10.399,8.479 10.139 C 8.495 10.082,8.506 9.718,8.507 9.273 L 8.507 8.507 9.273 8.507 C 9.750 8.506,10.080 8.495,10.146 8.477 C 10.288 8.438,10.440 8.281,10.480 8.135 C 10.552 7.868,10.399 7.593,10.139 7.521 C 10.082 7.505,9.718 7.494,9.273 7.493 L 8.507 7.493 8.507 6.727 C 8.506 6.250,8.495 5.920,8.477 5.854 C 8.424 5.662,8.190 5.491,7.987 5.495 C 7.957 5.495,7.885 5.513,7.827 5.533 " stroke="none" fill="black" fill-rule="evenodd"></path></svg>