<svg width="1em" height="1em" viewBox="0 0 16 16" class="bi bi-file-earmark-spreadsheet-fill" fill="currentColor" xmlns="http://www.w3.org/2000/svg"><path d="M3.507 1.066 C 2.743 1.268,2.185 1.863,2.039 2.630 C 1.981 2.932,1.981 13.068,2.039 13.370 C 2.116 13.775,2.287 14.096,2.587 14.401 C 2.927 14.748,3.332 14.938,3.833 14.987 C 4.178 15.020,11.822 15.020,12.167 14.987 C 12.668 14.938,13.073 14.748,13.413 14.401 C 13.626 14.185,13.751 13.996,13.858 13.733 C 14.003 13.372,14.000 13.478,14.000 9.376 C 14.000 5.204,14.009 5.440,13.839 5.173 C 13.797 5.107,12.883 4.176,11.808 3.104 C 10.093 1.394,9.835 1.147,9.707 1.091 L 9.560 1.027 6.627 1.021 C 3.842 1.016,3.684 1.018,3.507 1.066 M11.434 5.994 C 9.723 6.001,9.721 6.001,9.461 5.836 C 9.306 5.737,9.196 5.614,9.100 5.432 L 9.027 5.293 9.019 3.653 L 9.012 2.013 11.000 4.000 L 12.987 5.987 11.434 5.994 M12.987 8.507 L 12.987 9.013 11.493 9.013 L 10.000 9.013 10.000 10.013 L 10.000 11.013 11.493 11.013 L 12.987 11.013 12.987 11.507 L 12.987 12.000 11.493 12.000 L 10.000 12.000 10.000 13.000 L 10.000 14.000 9.507 14.000 L 9.013 14.000 9.013 13.000 L 9.013 12.000 7.507 12.000 L 6.000 12.000 6.000 13.000 L 6.000 14.000 5.507 14.000 L 5.013 14.000 5.013 13.000 L 5.013 12.000 4.013 12.000 L 3.013 12.000 3.013 11.507 L 3.013 11.014 4.007 11.007 L 5.000 11.000 5.007 10.007 L 5.014 9.013 4.014 9.013 L 3.013 9.013 3.013 8.507 L 3.013 8.000 8.000 8.000 L 12.987 8.000 12.987 8.507 M6.000 10.014 L 6.000 11.014 7.500 11.007 L 9.000 11.000 9.007 10.007 L 9.014 9.013 7.507 9.013 L 6.000 9.013 6.000 10.014 " stroke="none" fill="black" fill-rule="evenodd"></path></svg>