<svg width="1em" height="1em" viewBox="0 0 16 16" class="bi bi-file-check-fill" fill="currentColor" xmlns="http://www.w3.org/2000/svg"><path d="M3.507 1.066 C 2.743 1.269,2.185 1.863,2.039 2.630 C 1.981 2.932,1.981 13.068,2.039 13.370 C 2.116 13.775,2.287 14.096,2.587 14.401 C 2.927 14.748,3.332 14.938,3.833 14.987 C 4.178 15.020,11.822 15.020,12.167 14.987 C 12.668 14.938,13.073 14.748,13.413 14.401 C 13.713 14.096,13.884 13.775,13.961 13.370 C 14.019 13.068,14.019 2.932,13.961 2.630 C 13.884 2.225,13.713 1.904,13.413 1.599 C 13.186 1.367,12.939 1.211,12.627 1.102 L 12.413 1.027 8.053 1.021 C 3.877 1.016,3.685 1.018,3.507 1.066 M10.710 6.051 C 10.987 6.177,11.078 6.534,10.899 6.792 C 10.860 6.848,10.147 7.574,9.314 8.405 C 8.270 9.448,7.769 9.930,7.701 9.959 C 7.569 10.013,7.424 10.010,7.293 9.949 C 7.224 9.916,6.903 9.614,6.369 9.076 C 5.650 8.353,5.547 8.239,5.520 8.137 C 5.420 7.756,5.756 7.420,6.137 7.520 C 6.238 7.547,6.336 7.634,6.873 8.168 L 7.493 8.785 8.847 7.434 C 9.697 6.585,10.235 6.068,10.293 6.042 C 10.420 5.988,10.578 5.991,10.710 6.051 " stroke="none" fill="black" fill-rule="evenodd"></path></svg>