<svg width="1em" height="1em" viewBox="0 0 16 16" class="bi bi-file-text-fill" fill="currentColor" xmlns="http://www.w3.org/2000/svg"><path d="M3.507 1.066 C 2.743 1.269,2.185 1.863,2.039 2.630 C 1.981 2.932,1.981 13.068,2.039 13.370 C 2.116 13.775,2.287 14.096,2.587 14.401 C 2.927 14.748,3.332 14.938,3.833 14.987 C 4.178 15.020,11.822 15.020,12.167 14.987 C 12.668 14.938,13.073 14.748,13.413 14.401 C 13.713 14.096,13.884 13.775,13.961 13.370 C 14.019 13.068,14.019 2.932,13.961 2.630 C 13.884 2.225,13.713 1.904,13.413 1.599 C 13.186 1.367,12.939 1.211,12.627 1.102 L 12.413 1.027 8.053 1.021 C 3.877 1.016,3.685 1.018,3.507 1.066 M11.220 4.057 C 11.398 4.143,11.480 4.285,11.480 4.509 C 11.480 4.669,11.471 4.699,11.398 4.791 C 11.353 4.847,11.269 4.917,11.212 4.947 C 11.108 4.999,11.054 5.000,8.000 5.000 C 4.946 5.000,4.892 4.999,4.788 4.947 C 4.731 4.917,4.647 4.847,4.602 4.791 C 4.529 4.699,4.520 4.669,4.520 4.509 C 4.520 4.287,4.601 4.145,4.778 4.057 L 4.893 4.000 7.998 4.000 L 11.103 4.000 11.220 4.057 M11.220 6.057 C 11.398 6.143,11.480 6.285,11.480 6.509 C 11.480 6.669,11.471 6.699,11.398 6.791 C 11.353 6.847,11.269 6.917,11.212 6.947 C 11.108 6.999,11.054 7.000,8.000 7.000 C 4.946 7.000,4.892 6.999,4.788 6.947 C 4.731 6.917,4.647 6.847,4.602 6.791 C 4.529 6.699,4.520 6.669,4.520 6.509 C 4.520 6.287,4.601 6.145,4.778 6.057 L 4.893 6.000 7.998 6.000 L 11.103 6.000 11.220 6.057 M11.220 8.057 C 11.398 8.143,11.480 8.285,11.480 8.509 C 11.480 8.669,11.471 8.699,11.398 8.791 C 11.353 8.847,11.269 8.917,11.212 8.947 C 11.108 8.999,11.054 9.000,8.000 9.000 C 4.946 9.000,4.892 8.999,4.788 8.947 C 4.731 8.917,4.647 8.847,4.602 8.791 C 4.529 8.699,4.520 8.669,4.520 8.509 C 4.520 8.287,4.601 8.145,4.778 8.057 L 4.893 8.000 7.998 8.000 L 11.103 8.000 11.220 8.057 M8.201 10.050 C 8.580 10.222,8.597 10.745,8.231 10.941 L 8.120 11.000 6.507 11.000 C 4.946 11.000,4.890 10.998,4.788 10.947 C 4.731 10.917,4.647 10.847,4.602 10.791 C 4.529 10.699,4.520 10.669,4.520 10.509 C 4.520 10.287,4.601 10.145,4.778 10.057 C 4.892 10.001,4.911 10.000,6.493 10.001 C 7.988 10.001,8.100 10.004,8.201 10.050 " stroke="none" fill="black" fill-rule="evenodd"></path></svg>