<svg width="1em" height="1em" viewBox="0 0 16 16" class="bi bi-file-person-fill" fill="currentColor" xmlns="http://www.w3.org/2000/svg"><path d="M3.507 1.066 C 2.743 1.269,2.185 1.863,2.039 2.630 C 1.981 2.932,1.981 13.068,2.039 13.370 C 2.116 13.775,2.287 14.096,2.587 14.401 C 2.927 14.748,3.332 14.938,3.833 14.987 C 4.178 15.020,11.822 15.020,12.167 14.987 C 12.668 14.938,13.073 14.748,13.413 14.401 C 13.713 14.096,13.884 13.775,13.961 13.370 C 14.019 13.068,14.019 2.932,13.961 2.630 C 13.884 2.225,13.713 1.904,13.413 1.599 C 13.186 1.367,12.939 1.211,12.627 1.102 L 12.413 1.027 8.053 1.021 C 3.877 1.016,3.685 1.018,3.507 1.066 M8.460 4.040 C 9.090 4.134,9.645 4.417,10.109 4.879 C 10.492 5.259,10.754 5.707,10.900 6.230 C 10.968 6.475,10.973 6.529,10.973 7.000 C 10.973 7.471,10.968 7.525,10.900 7.770 C 10.385 9.616,8.351 10.529,6.654 9.676 C 5.895 9.294,5.331 8.602,5.101 7.773 C 5.032 7.525,5.027 7.472,5.027 7.000 C 5.027 6.528,5.032 6.475,5.101 6.227 C 5.513 4.740,6.941 3.811,8.460 4.040 M9.087 11.054 C 10.707 11.221,11.922 11.717,12.833 12.582 L 12.987 12.728 12.987 12.963 C 12.987 13.453,12.738 13.808,12.297 13.947 C 12.131 13.999,12.057 14.000,8.002 14.000 C 3.454 14.000,3.736 14.010,3.461 13.835 C 3.305 13.736,3.195 13.613,3.101 13.432 C 3.040 13.313,3.028 13.253,3.019 13.011 L 3.008 12.729 3.223 12.534 C 4.141 11.700,5.319 11.223,6.867 11.056 C 7.355 11.004,8.591 11.003,9.087 11.054 " stroke="none" fill="black" fill-rule="evenodd"></path></svg>