<svg width="1em" height="1em" viewBox="0 0 16 16" class="bi bi-file-earmark-plus-fill" fill="currentColor" xmlns="http://www.w3.org/2000/svg"><path d="M3.507 1.066 C 2.743 1.268,2.185 1.863,2.039 2.630 C 1.981 2.932,1.981 13.068,2.039 13.370 C 2.116 13.775,2.287 14.096,2.587 14.401 C 2.927 14.748,3.332 14.938,3.833 14.987 C 4.178 15.020,11.822 15.020,12.167 14.987 C 12.668 14.938,13.073 14.748,13.413 14.401 C 13.626 14.185,13.751 13.996,13.858 13.733 C 14.003 13.372,14.000 13.478,14.000 9.376 C 14.000 5.204,14.009 5.440,13.839 5.173 C 13.797 5.107,12.883 4.176,11.808 3.104 C 10.093 1.394,9.835 1.147,9.707 1.091 L 9.560 1.027 6.627 1.021 C 3.842 1.016,3.684 1.018,3.507 1.066 M11.434 5.994 C 9.723 6.001,9.721 6.001,9.461 5.836 C 9.306 5.737,9.196 5.614,9.100 5.432 L 9.027 5.293 9.019 3.653 L 9.012 2.013 11.000 4.000 L 12.987 5.987 11.434 5.994 M8.195 6.543 C 8.309 6.590,8.444 6.747,8.478 6.873 C 8.495 6.932,8.506 7.287,8.507 7.740 L 8.507 8.507 9.308 8.507 C 10.196 8.507,10.221 8.511,10.366 8.675 C 10.439 8.759,10.506 8.914,10.506 9.000 C 10.506 9.086,10.439 9.241,10.366 9.325 C 10.221 9.489,10.196 9.493,9.308 9.493 L 8.507 9.493 8.507 10.260 C 8.506 10.713,8.495 11.068,8.478 11.127 C 8.444 11.253,8.309 11.410,8.195 11.457 C 8.084 11.503,7.916 11.503,7.805 11.457 C 7.691 11.410,7.556 11.253,7.522 11.127 C 7.505 11.068,7.494 10.713,7.493 10.260 L 7.493 9.493 6.692 9.493 C 5.804 9.493,5.779 9.489,5.634 9.325 C 5.561 9.241,5.494 9.086,5.494 9.000 C 5.494 8.914,5.561 8.759,5.634 8.675 C 5.779 8.511,5.804 8.507,6.692 8.507 L 7.493 8.507 7.493 7.740 C 7.494 7.287,7.505 6.932,7.522 6.873 C 7.556 6.751,7.690 6.592,7.800 6.544 C 7.905 6.498,8.086 6.497,8.195 6.543 " stroke="none" fill="black" fill-rule="evenodd"></path></svg>