<svg width="1em" height="1em" viewBox="0 0 16 16" class="bi bi-file-diff" fill="currentColor" xmlns="http://www.w3.org/2000/svg"><path d="M3.507 1.066 C 2.743 1.269,2.185 1.863,2.039 2.630 C 1.981 2.932,1.981 13.068,2.039 13.370 C 2.116 13.775,2.287 14.096,2.587 14.401 C 2.927 14.748,3.332 14.938,3.833 14.987 C 4.178 15.020,11.822 15.020,12.167 14.987 C 12.668 14.938,13.073 14.748,13.413 14.401 C 13.713 14.096,13.884 13.775,13.961 13.370 C 14.019 13.068,14.019 2.932,13.961 2.630 C 13.884 2.225,13.713 1.904,13.413 1.599 C 13.186 1.367,12.939 1.211,12.627 1.102 L 12.413 1.027 8.053 1.021 C 3.877 1.016,3.685 1.018,3.507 1.066 M12.297 2.053 C 12.600 2.149,12.821 2.359,12.932 2.657 C 12.986 2.801,12.987 2.840,12.987 8.000 C 12.987 13.160,12.986 13.199,12.932 13.343 C 12.821 13.641,12.600 13.851,12.297 13.947 C 12.131 13.999,12.057 14.000,8.002 14.000 C 3.454 14.000,3.736 14.010,3.461 13.835 C 3.306 13.737,3.196 13.614,3.100 13.432 L 3.027 13.293 3.027 8.000 L 3.027 2.707 3.099 2.570 C 3.239 2.304,3.434 2.137,3.704 2.051 C 3.845 2.006,4.092 2.003,7.991 2.001 C 12.059 2.000,12.131 2.001,12.297 2.053 M7.799 4.050 C 7.667 4.110,7.558 4.235,7.521 4.367 C 7.505 4.425,7.494 4.788,7.493 5.233 L 7.493 6.000 6.700 6.001 C 5.988 6.001,5.896 6.006,5.799 6.050 C 5.420 6.222,5.403 6.745,5.769 6.941 C 5.876 6.998,5.912 7.000,6.687 7.009 L 7.493 7.017 7.493 7.785 C 7.493 8.294,7.504 8.583,7.524 8.643 C 7.600 8.866,7.767 8.987,8.000 8.987 C 8.233 8.987,8.400 8.866,8.476 8.643 C 8.496 8.583,8.507 8.294,8.507 7.785 L 8.507 7.017 9.313 7.009 C 10.088 7.000,10.124 6.998,10.231 6.941 C 10.597 6.745,10.580 6.222,10.201 6.050 C 10.104 6.006,10.012 6.001,9.300 6.001 L 8.507 6.000 8.507 5.233 C 8.506 4.788,8.495 4.425,8.479 4.367 C 8.423 4.167,8.207 4.001,8.000 4.001 C 7.949 4.001,7.858 4.023,7.799 4.050 M5.799 10.050 C 5.420 10.222,5.403 10.745,5.769 10.941 L 5.880 11.000 8.000 11.000 L 10.120 11.000 10.231 10.941 C 10.597 10.745,10.580 10.222,10.201 10.050 C 10.099 10.004,9.974 10.001,8.000 10.001 C 6.026 10.001,5.901 10.004,5.799 10.050 " stroke="none" fill="black" fill-rule="evenodd"></path></svg>