<svg width="1em" height="1em" viewBox="0 0 16 16" class="bi bi-filter-square" fill="currentColor" xmlns="http://www.w3.org/2000/svg"><path d="M1.600 0.042 C 0.952 0.181,0.407 0.629,0.157 1.226 C -0.010 1.625,0.000 1.207,0.000 8.000 C 0.000 14.793,-0.010 14.375,0.157 14.774 C 0.350 15.235,0.765 15.650,1.226 15.843 C 1.625 16.010,1.207 16.000,8.000 16.000 C 13.536 16.000,14.211 15.996,14.394 15.958 C 15.184 15.796,15.796 15.184,15.958 14.394 C 15.996 14.211,16.000 13.536,16.000 8.000 C 16.000 2.464,15.996 1.789,15.958 1.606 C 15.796 0.816,15.184 0.204,14.394 0.042 C 14.210 0.004,13.540 0.000,7.981 0.002 C 2.765 0.004,1.746 0.010,1.600 0.042 M14.428 1.099 C 14.616 1.192,14.808 1.384,14.901 1.572 L 14.973 1.720 14.980 7.946 C 14.986 13.403,14.982 14.188,14.947 14.309 C 14.867 14.586,14.586 14.864,14.296 14.954 C 14.156 14.997,13.759 15.000,8.000 15.000 C 2.241 15.000,1.844 14.997,1.704 14.954 C 1.422 14.866,1.158 14.612,1.063 14.338 C 1.018 14.207,1.015 13.880,1.014 7.994 C 1.013 1.932,1.015 1.784,1.065 1.652 C 1.162 1.395,1.389 1.166,1.645 1.066 C 1.769 1.017,1.962 1.016,8.027 1.021 L 14.280 1.027 14.428 1.099 M2.280 5.055 C 2.160 5.118,2.104 5.176,2.050 5.293 C 1.995 5.414,1.986 5.560,2.028 5.672 C 2.070 5.784,2.239 5.944,2.346 5.974 C 2.477 6.010,13.525 6.009,13.657 5.973 C 13.803 5.932,13.965 5.744,13.988 5.587 C 14.022 5.362,13.915 5.148,13.723 5.057 C 13.640 5.017,13.135 5.013,7.996 5.013 C 2.937 5.014,2.352 5.018,2.280 5.055 M4.307 8.037 C 4.129 8.116,3.999 8.311,4.001 8.499 C 4.002 8.743,4.177 8.940,4.432 8.987 C 4.527 9.005,5.799 9.012,8.096 9.007 C 11.470 9.000,11.617 8.998,11.714 8.950 C 12.012 8.802,12.090 8.423,11.871 8.181 C 11.817 8.121,11.735 8.056,11.688 8.036 C 11.562 7.983,4.426 7.985,4.307 8.037 M6.280 11.055 C 6.160 11.118,6.104 11.176,6.050 11.293 C 5.995 11.414,5.986 11.560,6.028 11.672 C 6.070 11.784,6.239 11.944,6.346 11.974 C 6.475 12.009,9.528 12.009,9.657 11.973 C 9.803 11.932,9.965 11.744,9.988 11.587 C 10.022 11.362,9.915 11.148,9.723 11.057 C 9.642 11.018,9.449 11.013,7.996 11.013 C 6.565 11.014,6.350 11.019,6.280 11.055 " stroke="none" fill="black" fill-rule="evenodd"></path></svg>