<svg width="1em" height="1em" viewBox="0 0 16 16" class="bi bi-filter-circle" fill="currentColor" xmlns="http://www.w3.org/2000/svg"><path d="M7.293 0.030 C 4.174 0.300,1.460 2.423,0.439 5.390 C -0.989 9.546,1.195 14.077,5.331 15.539 C 8.244 16.569,11.468 15.838,13.653 13.653 C 16.473 10.834,16.787 6.378,14.390 3.190 C 12.867 1.166,10.473 -0.019,7.947 0.004 C 7.734 0.006,7.440 0.018,7.293 0.030 M8.768 1.041 C 10.349 1.213,11.838 1.934,12.973 3.079 C 13.491 3.601,13.952 4.250,14.280 4.919 C 14.518 5.405,14.657 5.783,14.783 6.284 C 14.947 6.939,14.973 7.177,14.973 8.000 C 14.973 8.823,14.947 9.061,14.783 9.716 C 14.657 10.218,14.517 10.596,14.280 11.080 C 13.369 12.933,11.704 14.284,9.716 14.783 C 9.061 14.947,8.823 14.973,8.000 14.973 C 7.177 14.973,6.938 14.947,6.287 14.783 C 4.507 14.336,2.953 13.185,2.008 11.613 C 1.484 10.744,1.149 9.755,1.041 8.768 C 1.005 8.434,1.005 7.566,1.041 7.232 C 1.237 5.430,2.177 3.705,3.581 2.572 C 4.606 1.745,5.923 1.187,7.187 1.044 C 7.491 1.010,8.462 1.008,8.768 1.041 M3.266 5.063 C 3.162 5.126,3.045 5.265,3.023 5.350 C 3.014 5.386,3.012 5.480,3.019 5.559 C 3.033 5.736,3.132 5.877,3.290 5.949 C 3.396 5.997,3.564 5.999,8.000 5.999 C 12.436 5.999,12.604 5.997,12.710 5.949 C 12.884 5.870,12.970 5.734,12.981 5.523 C 12.989 5.367,12.982 5.334,12.918 5.236 C 12.877 5.175,12.800 5.100,12.745 5.069 L 12.646 5.013 7.996 5.013 C 3.514 5.014,3.344 5.015,3.266 5.063 M5.290 8.051 C 5.132 8.123,5.033 8.264,5.019 8.441 C 5.003 8.628,5.023 8.699,5.124 8.814 C 5.300 9.015,5.071 9.000,8.000 9.000 L 10.627 9.000 10.736 8.938 C 10.796 8.903,10.877 8.825,10.918 8.764 C 10.982 8.666,10.989 8.633,10.981 8.477 C 10.970 8.266,10.884 8.130,10.710 8.051 C 10.605 8.003,10.482 8.001,8.000 8.001 C 5.518 8.001,5.395 8.003,5.290 8.051 M7.266 11.063 C 7.162 11.126,7.045 11.265,7.023 11.350 C 6.989 11.487,7.028 11.699,7.106 11.801 C 7.244 11.982,7.320 11.999,8.000 11.999 C 8.681 11.999,8.756 11.982,8.896 11.799 C 8.958 11.717,8.974 11.667,8.981 11.523 C 8.989 11.367,8.982 11.334,8.918 11.236 C 8.778 11.023,8.737 11.013,7.996 11.013 C 7.411 11.014,7.339 11.018,7.266 11.063 " stroke="none" fill="black" fill-rule="evenodd"></path></svg>