<svg width="1em" height="1em" viewBox="0 0 16 16" class="bi bi-filter-square-fill" fill="currentColor" xmlns="http://www.w3.org/2000/svg"><path d="M1.600 0.042 C 0.952 0.181,0.407 0.629,0.157 1.226 C -0.010 1.625,0.000 1.207,0.000 8.000 C 0.000 14.793,-0.010 14.375,0.157 14.774 C 0.350 15.235,0.765 15.650,1.226 15.843 C 1.625 16.010,1.207 16.000,8.000 16.000 C 13.536 16.000,14.211 15.996,14.394 15.958 C 15.184 15.796,15.796 15.184,15.958 14.394 C 15.996 14.211,16.000 13.536,16.000 8.000 C 16.000 2.464,15.996 1.789,15.958 1.606 C 15.796 0.816,15.184 0.204,14.394 0.042 C 14.210 0.004,13.540 0.000,7.981 0.002 C 2.765 0.004,1.746 0.010,1.600 0.042 M13.723 5.057 C 13.915 5.148,14.022 5.362,13.988 5.587 C 13.965 5.744,13.803 5.932,13.657 5.973 C 13.525 6.009,2.477 6.010,2.346 5.974 C 2.239 5.944,2.070 5.784,2.028 5.672 C 1.967 5.508,2.026 5.252,2.150 5.142 C 2.304 5.005,1.914 5.014,7.996 5.013 C 13.135 5.013,13.640 5.017,13.723 5.057 M11.657 8.027 C 11.803 8.068,11.965 8.256,11.988 8.413 C 12.022 8.642,11.916 8.849,11.714 8.950 C 11.617 8.998,11.470 9.000,8.096 9.007 C 5.799 9.012,4.527 9.005,4.432 8.987 C 4.015 8.910,3.857 8.442,4.150 8.150 C 4.306 7.994,4.085 8.002,7.973 8.001 C 10.310 8.001,11.594 8.010,11.657 8.027 M9.723 11.057 C 9.915 11.148,10.022 11.362,9.988 11.587 C 9.965 11.744,9.803 11.932,9.657 11.973 C 9.528 12.009,6.475 12.009,6.346 11.974 C 6.239 11.944,6.070 11.784,6.028 11.672 C 5.967 11.508,6.026 11.252,6.150 11.142 C 6.298 11.010,6.249 11.014,7.996 11.013 C 9.449 11.013,9.642 11.018,9.723 11.057 " stroke="none" fill="black" fill-rule="evenodd"></path></svg>