<svg width="1em" height="1em" viewBox="0 0 16 16" class="bi bi-folder2-open" fill="currentColor" xmlns="http://www.w3.org/2000/svg"><path d="M2.171 2.040 C 1.652 2.153,1.204 2.579,1.052 3.107 C 1.011 3.247,1.004 3.440,0.994 4.707 L 0.982 6.147 0.849 6.227 C 0.450 6.467,0.178 6.913,0.144 7.387 C 0.123 7.667,0.768 12.831,0.867 13.180 C 1.120 14.076,1.849 14.753,2.773 14.951 C 2.988 14.997,3.261 15.000,8.000 15.000 C 12.739 15.000,13.012 14.997,13.227 14.951 C 14.151 14.753,14.880 14.076,15.133 13.180 C 15.182 13.008,15.288 12.243,15.535 10.267 C 15.898 7.371,15.899 7.355,15.785 7.021 C 15.677 6.704,15.390 6.347,15.133 6.210 L 15.021 6.151 15.004 5.709 C 14.995 5.457,14.971 5.204,14.948 5.121 C 14.812 4.618,14.428 4.223,13.907 4.051 C 13.822 4.023,13.268 4.012,11.267 4.001 L 8.733 3.987 8.553 3.914 C 8.235 3.787,8.012 3.619,7.558 3.163 C 7.114 2.719,6.852 2.509,6.507 2.324 C 6.252 2.187,5.885 2.065,5.618 2.029 C 5.298 1.985,2.380 1.994,2.171 2.040 M5.725 3.079 C 6.125 3.206,6.426 3.422,6.909 3.930 C 7.442 4.490,7.905 4.786,8.487 4.939 C 8.702 4.995,8.754 4.997,11.202 5.012 L 13.698 5.027 13.798 5.104 C 13.957 5.225,13.999 5.348,13.999 5.700 L 14.000 6.000 8.000 6.000 L 2.000 6.000 2.001 4.700 C 2.001 3.496,2.005 3.392,2.050 3.293 C 2.104 3.176,2.160 3.118,2.280 3.055 C 2.350 3.019,2.559 3.014,3.939 3.013 L 5.517 3.013 5.725 3.079 M14.568 7.043 C 14.655 7.087,14.773 7.203,14.816 7.285 C 14.836 7.325,14.853 7.418,14.853 7.493 C 14.853 7.695,14.219 12.760,14.176 12.907 C 14.061 13.292,13.744 13.678,13.411 13.835 C 13.043 14.010,13.384 13.999,8.000 13.999 C 2.609 13.999,2.952 14.010,2.588 13.833 C 2.250 13.669,1.916 13.263,1.816 12.892 C 1.776 12.742,1.147 7.675,1.147 7.500 C 1.147 7.422,1.164 7.325,1.184 7.285 C 1.225 7.207,1.342 7.091,1.427 7.044 C 1.503 7.002,14.486 7.001,14.568 7.043 " stroke="none" fill="black" fill-rule="evenodd"></path></svg>