<svg width="1em" height="1em" viewBox="0 0 16 16" class="bi bi-fonts" fill="currentColor" xmlns="http://www.w3.org/2000/svg"><path d="M3.707 4.213 C 3.687 4.873,3.673 5.422,3.676 5.433 C 3.678 5.444,3.784 5.453,3.911 5.453 L 4.143 5.453 4.203 5.173 C 4.416 4.179,4.791 3.831,5.800 3.693 C 6.059 3.658,6.876 3.602,7.154 3.601 L 7.254 3.600 7.247 7.713 L 7.240 11.827 7.166 11.952 C 7.045 12.158,6.740 12.273,6.153 12.334 L 5.973 12.353 5.973 12.617 L 5.973 12.880 8.007 12.873 L 10.040 12.867 10.048 12.610 L 10.055 12.353 9.853 12.334 C 9.278 12.280,8.943 12.153,8.827 11.947 L 8.760 11.827 8.753 7.713 L 8.746 3.600 8.833 3.600 C 9.048 3.600,9.954 3.657,10.147 3.682 C 10.736 3.758,11.101 3.904,11.346 4.162 C 11.582 4.409,11.703 4.706,11.855 5.407 C 11.867 5.463,11.880 5.467,12.107 5.467 L 12.347 5.467 12.333 5.167 C 12.311 4.725,12.267 3.375,12.267 3.181 L 12.267 3.013 8.004 3.013 L 3.742 3.013 3.707 4.213 " stroke="none" fill="black" fill-rule="evenodd"></path></svg>