<svg width="1em" height="1em" viewBox="0 0 16 16" class="bi bi-funnel-fill" fill="currentColor" xmlns="http://www.w3.org/2000/svg"><path d="M1.755 1.067 C 1.702 1.096,1.634 1.152,1.605 1.193 C 1.496 1.346,1.490 1.432,1.498 2.560 C 1.506 3.512,1.512 3.649,1.551 3.720 C 1.576 3.764,2.587 4.901,3.798 6.247 L 6.000 8.694 6.001 11.647 C 6.001 14.473,6.003 14.605,6.051 14.710 C 6.126 14.874,6.265 14.968,6.454 14.982 C 6.598 14.992,6.718 14.956,8.151 14.480 C 9.242 14.117,9.721 13.946,9.787 13.896 C 9.838 13.856,9.907 13.771,9.940 13.706 L 10.000 13.589 10.000 11.140 L 10.000 8.692 12.202 6.246 C 13.413 4.901,14.424 3.764,14.448 3.720 C 14.488 3.649,14.494 3.513,14.502 2.560 C 14.510 1.432,14.504 1.346,14.395 1.193 C 14.366 1.152,14.296 1.095,14.239 1.066 C 14.137 1.014,14.061 1.013,7.994 1.015 C 1.971 1.016,1.851 1.017,1.755 1.067 " stroke="none" fill="black" fill-rule="evenodd"></path></svg>