<svg width="1em" height="1em" viewBox="0 0 16 16" class="bi bi-gift-fill" fill="currentColor" xmlns="http://www.w3.org/2000/svg"><path d="M5.009 0.051 C 4.074 0.255,3.412 0.858,3.105 1.787 C 3.034 1.998,3.029 2.046,3.023 2.507 L 3.017 3.000 1.862 3.013 L 0.707 3.027 0.538 3.118 C 0.334 3.228,0.155 3.425,0.073 3.627 C 0.016 3.766,0.013 3.810,0.013 4.507 L 0.013 5.240 0.088 5.400 C 0.186 5.610,0.391 5.816,0.597 5.911 L 0.760 5.987 8.000 5.987 L 15.240 5.987 15.413 5.904 C 15.633 5.799,15.797 5.634,15.903 5.413 L 15.987 5.240 15.995 4.567 C 16.003 4.002,15.997 3.870,15.960 3.740 C 15.877 3.453,15.704 3.243,15.432 3.100 L 15.293 3.027 14.138 3.013 L 12.983 3.000 12.977 2.507 C 12.971 2.046,12.966 1.998,12.895 1.787 C 12.621 0.958,12.044 0.370,11.267 0.126 C 10.215 -0.204,9.099 0.165,8.465 1.054 C 8.245 1.363,8.027 1.915,8.027 2.164 C 8.027 2.206,8.015 2.240,8.000 2.240 C 7.985 2.240,7.973 2.206,7.973 2.164 C 7.973 2.026,7.867 1.670,7.759 1.442 C 7.433 0.761,6.838 0.265,6.120 0.078 C 5.808 -0.003,5.311 -0.015,5.009 0.051 M5.895 1.056 C 6.282 1.170,6.635 1.451,6.809 1.782 C 6.959 2.070,6.987 2.202,6.987 2.632 L 6.987 3.013 5.533 3.013 L 4.079 3.013 4.051 2.940 C 4.004 2.818,3.991 2.452,4.026 2.247 C 4.118 1.696,4.545 1.217,5.080 1.063 C 5.291 1.003,5.701 0.999,5.895 1.056 M10.892 1.054 C 11.652 1.252,12.131 2.057,11.964 2.853 L 11.933 3.000 10.473 3.007 L 9.013 3.014 9.013 2.632 C 9.013 2.202,9.041 2.070,9.191 1.782 C 9.362 1.456,9.695 1.186,10.079 1.063 C 10.268 1.003,10.678 0.998,10.892 1.054 M0.994 10.873 C 1.002 14.493,1.005 14.743,1.050 14.893 C 1.211 15.432,1.654 15.849,2.184 15.962 C 2.327 15.992,2.794 15.999,4.687 16.000 L 7.013 16.000 7.013 11.507 L 7.013 7.013 3.999 7.013 L 0.985 7.013 0.994 10.873 M8.987 11.507 L 8.987 16.000 11.313 16.000 C 13.899 15.999,13.847 16.002,14.194 15.823 C 14.444 15.693,14.709 15.429,14.824 15.196 C 15.011 14.817,14.997 15.147,15.007 10.873 L 15.015 7.013 12.001 7.013 L 8.987 7.013 8.987 11.507 " stroke="none" fill="black" fill-rule="evenodd"></path></svg>