<svg width="1em" height="1em" viewBox="0 0 16 16" class="bi bi-grid-3x3" fill="currentColor" xmlns="http://www.w3.org/2000/svg"><path d="M1.253 0.018 C 1.093 0.045,0.845 0.144,0.702 0.238 C 0.406 0.431,0.188 0.709,0.075 1.035 L 0.013 1.213 0.013 8.000 L 0.013 14.787 0.075 14.965 C 0.232 15.419,0.606 15.787,1.052 15.928 L 1.240 15.987 8.000 15.987 L 14.760 15.987 14.948 15.928 C 15.402 15.785,15.785 15.402,15.928 14.948 L 15.987 14.760 15.987 8.000 L 15.987 1.240 15.928 1.052 C 15.786 0.603,15.416 0.227,14.962 0.073 L 14.787 0.013 8.053 0.010 C 4.350 0.008,1.290 0.012,1.253 0.018 M4.987 3.013 L 4.987 5.013 3.000 5.013 L 1.013 5.013 1.013 3.185 C 1.013 1.664,1.020 1.345,1.051 1.285 C 1.092 1.207,1.208 1.091,1.293 1.044 C 1.331 1.024,1.891 1.015,3.167 1.014 L 4.987 1.013 4.987 3.013 M10.000 3.013 L 10.000 5.013 8.000 5.013 L 6.000 5.013 6.000 3.013 L 6.000 1.013 8.000 1.013 L 10.000 1.013 10.000 3.013 M14.715 1.051 C 14.797 1.094,14.913 1.212,14.957 1.298 C 14.978 1.340,14.987 1.886,14.987 3.185 L 14.987 5.013 13.000 5.013 L 11.013 5.013 11.013 3.013 L 11.013 1.013 12.828 1.013 C 14.338 1.013,14.655 1.020,14.715 1.051 M4.987 8.000 L 4.987 10.000 3.000 10.000 L 1.013 10.000 1.013 8.000 L 1.013 6.000 3.000 6.000 L 4.987 6.000 4.987 8.000 M10.000 8.000 L 10.000 10.000 8.000 10.000 L 6.000 10.000 6.000 8.000 L 6.000 6.000 8.000 6.000 L 10.000 6.000 10.000 8.000 M14.987 8.000 L 14.987 10.000 13.000 10.000 L 11.013 10.000 11.013 8.000 L 11.013 6.000 13.000 6.000 L 14.987 6.000 14.987 8.000 M4.987 13.014 L 4.987 15.015 3.180 15.008 C 1.233 14.999,1.326 15.006,1.164 14.857 C 1.007 14.711,1.013 14.801,1.013 12.828 L 1.013 11.013 3.000 11.013 L 4.987 11.013 4.987 13.014 M10.000 13.013 L 10.000 15.013 8.000 15.013 L 6.000 15.013 6.000 13.013 L 6.000 11.013 8.000 11.013 L 10.000 11.013 10.000 13.013 M14.987 12.828 C 14.987 14.118,14.978 14.660,14.957 14.702 C 14.912 14.789,14.797 14.906,14.707 14.956 C 14.635 14.996,14.445 15.001,12.820 15.008 L 11.013 15.015 11.013 13.014 L 11.013 11.013 13.000 11.013 L 14.987 11.013 14.987 12.828 " stroke="none" fill="black" fill-rule="evenodd"></path></svg>