<svg width="1em" height="1em" viewBox="0 0 16 16" class="bi bi-grid-3x3-gap-fill" fill="currentColor" xmlns="http://www.w3.org/2000/svg"><path d="M1.645 1.066 C 1.390 1.166,1.169 1.389,1.058 1.659 C 1.001 1.797,1.000 1.829,1.000 3.000 C 1.000 4.171,1.001 4.203,1.058 4.341 C 1.177 4.631,1.427 4.868,1.704 4.954 C 1.836 4.995,1.987 5.000,3.000 5.000 C 4.013 5.000,4.164 4.995,4.296 4.954 C 4.590 4.863,4.863 4.590,4.954 4.296 C 4.995 4.164,5.000 4.013,5.000 3.000 C 5.000 1.987,4.995 1.836,4.954 1.704 C 4.866 1.422,4.612 1.158,4.338 1.063 C 4.213 1.020,4.083 1.015,2.987 1.015 C 1.864 1.016,1.764 1.020,1.645 1.066 M6.707 1.041 C 6.422 1.126,6.144 1.405,6.055 1.696 C 6.003 1.862,6.000 1.939,6.000 2.998 C 6.000 4.236,6.006 4.289,6.165 4.539 C 6.328 4.796,6.572 4.945,6.904 4.989 C 7.033 5.007,7.511 5.014,8.150 5.008 C 9.149 4.998,9.192 4.996,9.337 4.938 C 9.647 4.815,9.851 4.600,9.947 4.297 C 9.997 4.139,10.000 4.054,10.000 3.002 C 10.000 1.764,9.994 1.711,9.835 1.461 C 9.737 1.306,9.614 1.196,9.432 1.100 L 9.293 1.027 8.040 1.022 C 7.351 1.019,6.751 1.028,6.707 1.041 M11.645 1.066 C 11.390 1.166,11.169 1.389,11.058 1.659 C 11.001 1.797,11.000 1.829,11.000 3.000 C 11.000 4.171,11.001 4.203,11.058 4.341 C 11.177 4.631,11.427 4.868,11.704 4.954 C 11.836 4.995,11.987 5.000,13.000 5.000 C 14.013 5.000,14.164 4.995,14.296 4.954 C 14.590 4.863,14.863 4.590,14.954 4.296 C 14.995 4.164,15.000 4.013,15.000 3.000 C 15.000 1.987,14.995 1.836,14.954 1.704 C 14.866 1.422,14.612 1.158,14.338 1.063 C 14.213 1.020,14.083 1.015,12.987 1.015 C 11.864 1.016,11.764 1.020,11.645 1.066 M1.704 6.050 C 1.319 6.175,1.066 6.481,1.013 6.887 C 0.981 7.138,0.981 8.862,1.013 9.113 C 1.054 9.426,1.209 9.675,1.461 9.835 C 1.711 9.994,1.764 10.000,3.002 10.000 C 4.056 10.000,4.139 9.997,4.302 9.946 C 4.600 9.854,4.812 9.649,4.940 9.330 C 4.995 9.194,4.998 9.136,5.008 8.170 C 5.020 6.984,5.002 6.767,4.876 6.530 C 4.770 6.331,4.578 6.155,4.379 6.075 C 4.229 6.014,4.210 6.013,3.040 6.008 C 1.958 6.002,1.840 6.006,1.704 6.050 M6.767 6.028 C 6.488 6.096,6.216 6.325,6.088 6.600 L 6.013 6.760 6.013 8.000 L 6.013 9.240 6.089 9.403 C 6.184 9.609,6.390 9.814,6.600 9.912 L 6.760 9.987 8.000 9.987 L 9.240 9.987 9.413 9.904 C 9.633 9.799,9.797 9.634,9.903 9.413 L 9.987 9.240 9.987 8.000 L 9.987 6.760 9.903 6.587 C 9.797 6.366,9.633 6.201,9.413 6.096 L 9.240 6.013 8.053 6.009 C 7.401 6.006,6.822 6.015,6.767 6.028 M11.704 6.050 C 11.319 6.175,11.066 6.481,11.013 6.887 C 10.981 7.138,10.981 8.862,11.013 9.113 C 11.054 9.426,11.209 9.675,11.461 9.835 C 11.711 9.994,11.764 10.000,13.002 10.000 C 14.056 10.000,14.139 9.997,14.302 9.946 C 14.600 9.854,14.812 9.649,14.940 9.330 C 14.995 9.194,14.998 9.136,15.008 8.170 C 15.020 6.984,15.002 6.767,14.876 6.530 C 14.770 6.331,14.578 6.155,14.379 6.075 C 14.229 6.014,14.210 6.013,13.040 6.008 C 11.958 6.002,11.840 6.006,11.704 6.050 M1.645 11.066 C 1.390 11.166,1.169 11.389,1.058 11.659 C 1.001 11.797,1.000 11.829,1.000 13.000 C 1.000 14.171,1.001 14.203,1.058 14.341 C 1.177 14.631,1.427 14.868,1.704 14.954 C 1.836 14.995,1.987 15.000,3.000 15.000 C 4.013 15.000,4.164 14.995,4.296 14.954 C 4.590 14.863,4.863 14.590,4.954 14.296 C 4.995 14.164,5.000 14.013,5.000 13.000 C 5.000 11.987,4.995 11.836,4.954 11.704 C 4.866 11.422,4.612 11.158,4.338 11.063 C 4.213 11.020,4.083 11.015,2.987 11.015 C 1.864 11.016,1.764 11.020,1.645 11.066 M6.707 11.041 C 6.422 11.126,6.144 11.405,6.055 11.696 C 6.003 11.862,6.000 11.939,6.000 12.998 C 6.000 14.236,6.006 14.289,6.165 14.539 C 6.328 14.796,6.572 14.945,6.904 14.989 C 7.033 15.007,7.511 15.014,8.150 15.008 C 9.149 14.998,9.192 14.996,9.337 14.938 C 9.647 14.815,9.851 14.600,9.947 14.297 C 9.997 14.139,10.000 14.054,10.000 13.002 C 10.000 11.764,9.994 11.711,9.835 11.461 C 9.737 11.306,9.614 11.196,9.432 11.100 L 9.293 11.027 8.040 11.022 C 7.351 11.019,6.751 11.028,6.707 11.041 M11.645 11.066 C 11.390 11.166,11.169 11.389,11.058 11.659 C 11.001 11.797,11.000 11.829,11.000 13.000 C 11.000 14.171,11.001 14.203,11.058 14.341 C 11.177 14.631,11.427 14.868,11.704 14.954 C 11.836 14.995,11.987 15.000,13.000 15.000 C 14.013 15.000,14.164 14.995,14.296 14.954 C 14.590 14.863,14.863 14.590,14.954 14.296 C 14.995 14.164,15.000 14.013,15.000 13.000 C 15.000 11.987,14.995 11.836,14.954 11.704 C 14.866 11.422,14.612 11.158,14.338 11.063 C 14.213 11.020,14.083 11.015,12.987 11.015 C 11.864 11.016,11.764 11.020,11.645 11.066 " stroke="none" fill="black" fill-rule="evenodd"></path></svg>