<svg width="1em" height="1em" viewBox="0 0 16 16" class="bi bi-grip-horizontal" fill="currentColor" xmlns="http://www.w3.org/2000/svg"><path d="M5.645 1.064 C 5.384 1.169,5.162 1.396,5.062 1.658 C 4.983 1.868,5.000 2.225,5.099 2.428 C 5.192 2.616,5.384 2.808,5.572 2.901 C 5.705 2.966,5.749 2.973,6.000 2.973 C 6.251 2.973,6.295 2.966,6.428 2.901 C 6.616 2.808,6.808 2.616,6.901 2.428 C 6.966 2.295,6.973 2.251,6.973 2.000 C 6.973 1.749,6.966 1.705,6.901 1.572 C 6.808 1.384,6.616 1.192,6.428 1.100 C 6.230 1.003,5.842 0.985,5.645 1.064 M8.707 1.040 C 8.663 1.054,8.561 1.104,8.481 1.152 C 8.104 1.380,7.919 1.848,8.042 2.268 C 8.124 2.549,8.301 2.761,8.568 2.898 C 8.765 3.000,9.120 3.017,9.337 2.935 C 9.642 2.820,9.850 2.602,9.947 2.297 C 10.011 2.093,10.014 1.925,9.958 1.732 C 9.876 1.451,9.699 1.239,9.432 1.102 C 9.315 1.041,9.254 1.029,9.040 1.023 C 8.901 1.019,8.751 1.026,8.707 1.040 M5.704 4.049 C 5.432 4.139,5.238 4.305,5.099 4.570 C 5.033 4.694,5.027 4.733,5.027 5.000 C 5.027 5.268,5.033 5.305,5.100 5.432 C 5.196 5.614,5.306 5.737,5.461 5.836 C 5.964 6.155,6.626 5.975,6.886 5.446 C 6.968 5.278,6.973 5.250,6.973 4.987 C 6.973 4.718,6.970 4.700,6.882 4.538 C 6.706 4.214,6.413 4.030,6.040 4.010 C 5.907 4.003,5.810 4.014,5.704 4.049 M8.767 4.027 C 8.485 4.098,8.216 4.326,8.088 4.600 C 8.024 4.738,8.014 4.793,8.014 5.000 C 8.015 5.206,8.025 5.263,8.089 5.403 C 8.184 5.609,8.390 5.814,8.600 5.912 C 8.737 5.975,8.794 5.986,9.000 5.986 C 9.214 5.986,9.259 5.977,9.413 5.904 C 9.633 5.799,9.797 5.634,9.903 5.413 C 9.977 5.259,9.986 5.214,9.986 5.000 C 9.986 4.786,9.977 4.741,9.903 4.587 C 9.738 4.243,9.429 4.032,9.061 4.012 C 8.954 4.007,8.822 4.013,8.767 4.027 M5.645 7.064 C 5.384 7.169,5.162 7.396,5.062 7.658 C 4.983 7.868,5.000 8.225,5.099 8.428 C 5.192 8.616,5.384 8.808,5.572 8.901 C 5.705 8.966,5.749 8.973,6.000 8.973 C 6.251 8.973,6.295 8.966,6.428 8.901 C 6.616 8.808,6.808 8.616,6.901 8.428 C 6.966 8.295,6.973 8.251,6.973 8.000 C 6.973 7.749,6.966 7.705,6.901 7.572 C 6.808 7.384,6.616 7.192,6.428 7.100 C 6.230 7.003,5.842 6.985,5.645 7.064 M8.707 7.040 C 8.663 7.054,8.561 7.104,8.481 7.152 C 8.104 7.380,7.919 7.848,8.042 8.268 C 8.124 8.549,8.301 8.761,8.568 8.898 C 8.765 9.000,9.120 9.017,9.337 8.935 C 9.642 8.820,9.850 8.602,9.947 8.297 C 10.011 8.093,10.014 7.925,9.958 7.732 C 9.876 7.451,9.699 7.239,9.432 7.102 C 9.315 7.041,9.254 7.029,9.040 7.023 C 8.901 7.019,8.751 7.026,8.707 7.040 M5.704 10.049 C 5.432 10.139,5.238 10.305,5.099 10.570 C 5.033 10.694,5.027 10.733,5.027 11.000 C 5.027 11.268,5.033 11.305,5.100 11.432 C 5.196 11.614,5.306 11.737,5.461 11.836 C 5.964 12.155,6.626 11.975,6.886 11.446 C 6.968 11.278,6.973 11.250,6.973 10.987 C 6.973 10.718,6.970 10.700,6.882 10.538 C 6.706 10.214,6.413 10.030,6.040 10.010 C 5.907 10.003,5.810 10.014,5.704 10.049 M8.767 10.027 C 8.485 10.098,8.216 10.326,8.088 10.600 C 8.024 10.738,8.014 10.793,8.014 11.000 C 8.015 11.206,8.025 11.263,8.089 11.403 C 8.184 11.609,8.390 11.814,8.600 11.912 C 8.737 11.975,8.794 11.986,9.000 11.986 C 9.214 11.986,9.259 11.977,9.413 11.904 C 9.633 11.799,9.797 11.634,9.903 11.413 C 9.977 11.259,9.986 11.214,9.986 11.000 C 9.986 10.786,9.977 10.741,9.903 10.587 C 9.738 10.243,9.429 10.032,9.061 10.012 C 8.954 10.007,8.822 10.013,8.767 10.027 M5.645 13.064 C 5.384 13.169,5.162 13.396,5.062 13.658 C 4.983 13.868,5.000 14.225,5.099 14.428 C 5.192 14.616,5.384 14.808,5.572 14.901 C 5.705 14.966,5.749 14.973,6.000 14.973 C 6.251 14.973,6.295 14.966,6.428 14.901 C 6.616 14.808,6.808 14.616,6.901 14.428 C 6.966 14.295,6.973 14.251,6.973 14.000 C 6.973 13.749,6.966 13.705,6.901 13.572 C 6.808 13.384,6.616 13.192,6.428 13.100 C 6.230 13.003,5.842 12.985,5.645 13.064 M8.707 13.040 C 8.663 13.054,8.561 13.104,8.481 13.152 C 8.104 13.380,7.919 13.848,8.042 14.268 C 8.124 14.549,8.301 14.761,8.568 14.898 C 8.765 15.000,9.120 15.017,9.337 14.935 C 9.642 14.820,9.850 14.602,9.947 14.297 C 10.011 14.093,10.014 13.925,9.958 13.732 C 9.876 13.451,9.699 13.239,9.432 13.102 C 9.315 13.041,9.254 13.029,9.040 13.023 C 8.901 13.019,8.751 13.026,8.707 13.040 " stroke="none" fill="black" fill-rule="evenodd"></path></svg>