<svg width="1em" height="1em" viewBox="0 0 16 16" class="bi bi-hdd-rack-fill" fill="currentColor" xmlns="http://www.w3.org/2000/svg"><path d="M1.600 2.042 C 0.952 2.181,0.407 2.629,0.157 3.226 C 0.025 3.541,0.000 3.744,0.000 4.490 C 0.000 5.379,0.046 5.622,0.297 6.046 C 0.424 6.260,0.752 6.585,0.973 6.714 C 1.366 6.944,1.718 7.011,2.540 7.013 L 2.987 7.013 2.987 8.011 L 2.987 9.009 2.287 9.019 C 1.601 9.027,1.582 9.029,1.373 9.102 C 1.062 9.211,0.814 9.367,0.587 9.599 C 0.287 9.904,0.116 10.225,0.039 10.630 C -0.018 10.924,-0.015 12.115,0.042 12.394 C 0.204 13.183,0.817 13.796,1.606 13.958 C 1.789 13.996,2.464 14.000,8.000 14.000 C 13.536 14.000,14.211 13.996,14.394 13.958 C 15.184 13.796,15.796 13.184,15.958 12.394 C 16.015 12.115,16.018 10.924,15.961 10.630 C 15.884 10.225,15.713 9.904,15.413 9.599 C 15.186 9.367,14.938 9.211,14.627 9.102 C 14.418 9.029,14.399 9.027,13.713 9.019 L 13.013 9.009 13.013 8.011 L 13.013 7.013 13.460 7.013 C 14.282 7.011,14.634 6.944,15.027 6.714 C 15.248 6.585,15.576 6.260,15.703 6.046 C 15.829 5.832,15.917 5.603,15.961 5.370 C 16.018 5.076,16.015 3.885,15.958 3.606 C 15.796 2.816,15.184 2.204,14.394 2.042 C 14.210 2.004,13.540 2.000,7.981 2.002 C 2.765 2.004,1.746 2.010,1.600 2.042 M2.710 4.051 C 2.875 4.126,2.968 4.265,2.982 4.456 C 2.996 4.649,2.959 4.744,2.824 4.866 C 2.702 4.976,2.632 4.997,2.441 4.981 C 2.264 4.967,2.123 4.868,2.051 4.710 C 1.857 4.283,2.283 3.857,2.710 4.051 M4.710 4.051 C 4.875 4.126,4.968 4.265,4.982 4.456 C 4.996 4.649,4.959 4.744,4.824 4.866 C 4.702 4.976,4.632 4.997,4.441 4.981 C 4.264 4.967,4.123 4.868,4.051 4.710 C 3.857 4.283,4.283 3.857,4.710 4.051 M12.000 8.013 L 12.000 9.013 8.000 9.013 L 4.000 9.013 4.000 8.013 L 4.000 7.013 8.000 7.013 L 12.000 7.013 12.000 8.013 M2.715 11.051 C 2.797 11.094,2.913 11.212,2.957 11.298 C 3.001 11.384,2.993 11.618,2.943 11.723 C 2.807 12.011,2.419 12.086,2.181 11.871 C 1.998 11.707,1.953 11.506,2.050 11.293 C 2.136 11.107,2.286 11.014,2.501 11.013 C 2.579 11.013,2.675 11.030,2.715 11.051 M4.715 11.051 C 4.797 11.094,4.913 11.212,4.957 11.298 C 5.001 11.384,4.993 11.618,4.943 11.723 C 4.807 12.011,4.419 12.086,4.181 11.871 C 3.998 11.707,3.953 11.506,4.050 11.293 C 4.136 11.107,4.286 11.014,4.501 11.013 C 4.579 11.013,4.675 11.030,4.715 11.051 " stroke="none" fill="black" fill-rule="evenodd"></path></svg>