<svg width="1em" height="1em" viewBox="0 0 16 16" class="bi bi-hdd-fill" fill="currentColor" xmlns="http://www.w3.org/2000/svg"><path d="M3.707 3.051 C 3.401 3.136,3.096 3.339,2.917 3.575 C 2.826 3.696,1.000 7.008,0.946 7.153 C 0.929 7.195,0.940 7.195,1.080 7.147 C 1.485 7.007,1.166 7.013,8.000 7.013 C 14.834 7.013,14.515 7.007,14.920 7.147 C 15.060 7.195,15.071 7.195,15.054 7.153 C 15.035 7.101,13.412 4.117,13.245 3.827 C 13.186 3.724,13.092 3.584,13.036 3.516 C 12.908 3.362,12.624 3.166,12.413 3.087 L 12.253 3.027 8.040 3.022 C 4.732 3.019,3.801 3.025,3.707 3.051 M1.600 8.042 C 1.338 8.098,1.133 8.183,0.923 8.321 C 0.457 8.627,0.151 9.072,0.042 9.606 C -0.015 9.885,-0.018 11.076,0.039 11.370 C 0.116 11.775,0.287 12.096,0.587 12.401 C 0.927 12.748,1.332 12.938,1.833 12.987 C 2.181 13.021,13.819 13.021,14.167 12.987 C 14.668 12.938,15.073 12.748,15.413 12.401 C 15.713 12.096,15.884 11.775,15.961 11.370 C 16.018 11.076,16.015 9.885,15.958 9.606 C 15.796 8.816,15.184 8.204,14.394 8.042 C 14.210 8.004,13.540 8.000,7.981 8.002 C 2.765 8.004,1.746 8.010,1.600 8.042 M2.710 10.051 C 2.875 10.126,2.968 10.265,2.982 10.456 C 2.996 10.649,2.959 10.744,2.824 10.866 C 2.702 10.976,2.632 10.997,2.441 10.981 C 2.264 10.967,2.123 10.868,2.051 10.710 C 1.857 10.283,2.283 9.857,2.710 10.051 M4.710 10.051 C 4.875 10.126,4.968 10.265,4.982 10.456 C 4.996 10.649,4.959 10.744,4.824 10.866 C 4.702 10.976,4.632 10.997,4.441 10.981 C 4.264 10.967,4.123 10.868,4.051 10.710 C 3.857 10.283,4.283 9.857,4.710 10.051 " stroke="none" fill="black" fill-rule="evenodd"></path></svg>