<svg width="1em" height="1em" viewBox="0 0 16 16" class="bi bi-hdd" fill="currentColor" xmlns="http://www.w3.org/2000/svg"><path d="M3.707 3.051 C 3.401 3.136,3.096 3.339,2.917 3.575 C 2.808 3.718,0.444 8.031,0.240 8.459 C 0.029 8.900,0.018 8.976,0.006 10.125 C -0.002 10.953,0.004 11.184,0.036 11.357 C 0.115 11.772,0.283 12.093,0.587 12.401 C 0.927 12.748,1.332 12.938,1.833 12.987 C 2.181 13.021,13.819 13.021,14.167 12.987 C 14.668 12.938,15.073 12.748,15.413 12.401 C 15.717 12.093,15.885 11.772,15.964 11.357 C 15.996 11.184,16.002 10.953,15.994 10.125 C 15.982 8.967,15.972 8.899,15.751 8.440 C 15.647 8.224,13.279 3.868,13.177 3.707 C 13.013 3.444,12.711 3.199,12.413 3.087 L 12.253 3.027 8.040 3.022 C 4.732 3.019,3.801 3.025,3.707 3.051 M12.125 4.056 C 12.188 4.086,12.263 4.144,12.292 4.184 C 12.320 4.225,12.772 5.043,13.295 6.002 C 13.818 6.962,14.280 7.807,14.321 7.880 L 14.396 8.013 8.000 8.013 L 1.604 8.013 1.679 7.880 C 1.720 7.807,2.189 6.949,2.720 5.973 C 3.251 4.998,3.704 4.180,3.726 4.155 C 3.748 4.130,3.816 4.085,3.876 4.055 C 3.986 4.000,4.008 4.000,7.998 4.000 L 12.010 4.000 12.125 4.056 M14.428 9.099 C 14.616 9.192,14.808 9.384,14.901 9.572 L 14.973 9.720 14.982 10.455 C 14.989 11.146,14.986 11.199,14.934 11.339 C 14.821 11.641,14.602 11.851,14.297 11.947 C 14.130 11.999,14.058 12.000,8.002 12.000 C 1.243 12.000,1.740 12.013,1.461 11.835 C 1.306 11.737,1.196 11.614,1.100 11.432 L 1.027 11.293 1.019 10.544 C 1.011 9.851,1.014 9.785,1.063 9.656 C 1.162 9.395,1.388 9.167,1.645 9.066 C 1.769 9.017,1.962 9.016,8.027 9.021 L 14.280 9.027 14.428 9.099 M2.307 10.037 C 1.957 10.191,1.898 10.665,2.200 10.895 C 2.279 10.956,2.334 10.973,2.468 10.982 C 2.674 10.995,2.808 10.930,2.918 10.764 C 2.982 10.666,2.989 10.633,2.981 10.477 C 2.974 10.333,2.958 10.283,2.896 10.201 C 2.762 10.026,2.499 9.953,2.307 10.037 M4.307 10.037 C 3.957 10.191,3.898 10.665,4.200 10.895 C 4.279 10.956,4.334 10.973,4.468 10.982 C 4.674 10.995,4.808 10.930,4.918 10.764 C 4.982 10.666,4.989 10.633,4.981 10.477 C 4.974 10.333,4.958 10.283,4.896 10.201 C 4.762 10.026,4.499 9.953,4.307 10.037 " stroke="none" fill="black" fill-rule="evenodd"></path></svg>