<svg width="1em" height="1em" viewBox="0 0 16 16" class="bi bi-heart-half" fill="currentColor" xmlns="http://www.w3.org/2000/svg"><path d="M4.373 0.015 C 4.337 0.022,4.217 0.040,4.107 0.056 C 3.004 0.214,1.864 0.831,1.146 1.659 C 0.156 2.802,-0.202 4.262,0.110 5.890 C 0.584 8.363,2.712 11.115,6.147 13.697 C 6.843 14.220,7.943 14.987,7.999 14.987 C 8.055 14.987,9.323 14.100,9.920 13.643 C 10.985 12.827,11.643 12.255,12.509 11.389 C 13.374 10.523,13.837 9.984,14.385 9.200 C 15.570 7.509,16.135 5.745,15.972 4.246 C 15.769 2.380,14.543 0.877,12.722 0.262 C 11.093 -0.288,9.345 0.054,8.170 1.154 L 8.000 1.312 7.785 1.109 C 7.254 0.610,6.502 0.235,5.715 0.078 C 5.498 0.035,5.305 0.019,4.933 0.012 C 4.662 0.008,4.410 0.009,4.373 0.015 M12.027 1.102 C 13.185 1.377,14.102 2.077,14.600 3.068 C 14.736 3.338,14.817 3.558,14.902 3.892 C 14.969 4.157,14.973 4.209,14.972 4.787 C 14.972 5.350,14.966 5.427,14.900 5.734 C 14.631 6.994,13.893 8.346,12.732 9.707 C 12.365 10.137,11.213 11.282,10.720 11.707 C 9.945 12.375,8.666 13.360,8.073 13.745 L 8.000 13.793 8.000 8.266 L 8.000 2.740 8.433 2.301 C 9.047 1.679,9.297 1.493,9.813 1.273 C 10.286 1.072,10.632 1.013,11.267 1.026 C 11.662 1.034,11.796 1.047,12.027 1.102 " stroke="none" fill="black" fill-rule="evenodd"></path></svg>