<svg width="1em" height="1em" viewBox="0 0 16 16" class="bi bi-heart-fill" fill="currentColor" xmlns="http://www.w3.org/2000/svg"><path d="M4.302 0.029 C 3.656 0.104,2.942 0.341,2.367 0.670 C 0.818 1.557,-0.062 3.163,0.009 4.973 C 0.060 6.292,0.574 7.669,1.550 9.107 C 2.081 9.888,2.568 10.462,3.466 11.362 C 4.397 12.295,5.073 12.881,6.187 13.719 C 6.860 14.225,7.872 14.933,7.986 14.977 C 8.075 15.011,9.918 13.677,10.880 12.883 C 11.791 12.130,13.017 10.930,13.627 10.192 C 15.011 8.518,15.779 6.940,15.960 5.398 C 16.078 4.389,15.928 3.501,15.494 2.627 C 14.895 1.422,13.783 0.537,12.400 0.163 C 11.960 0.044,11.716 0.016,11.147 0.016 C 10.658 0.017,10.564 0.024,10.264 0.088 C 9.470 0.255,8.751 0.616,8.206 1.120 L 8.000 1.312 7.795 1.121 C 7.420 0.771,6.878 0.446,6.347 0.255 C 5.755 0.042,4.955 -0.047,4.302 0.029 " stroke="none" fill="black" fill-rule="evenodd"></path></svg>