<svg width="1em" height="1em" viewBox="0 0 16 16" class="bi bi-house" fill="currentColor" xmlns="http://www.w3.org/2000/svg"><path d="M7.773 1.238 C 7.700 1.256,7.586 1.298,7.520 1.331 C 7.371 1.407,0.637 8.120,0.558 8.272 C 0.501 8.381,0.491 8.568,0.535 8.685 C 0.570 8.778,0.682 8.899,0.782 8.951 C 0.873 8.998,1.119 9.003,1.205 8.959 C 1.239 8.942,1.432 8.764,1.633 8.564 L 2.000 8.201 2.000 10.920 C 2.001 13.151,2.008 13.672,2.038 13.816 C 2.156 14.371,2.603 14.823,3.173 14.964 C 3.384 15.016,12.605 15.018,12.826 14.966 C 13.380 14.835,13.845 14.366,13.961 13.820 C 13.993 13.671,13.999 13.177,14.000 10.920 L 14.000 8.201 14.367 8.564 C 14.568 8.764,14.761 8.942,14.795 8.959 C 14.881 9.003,15.127 8.998,15.218 8.951 C 15.486 8.811,15.576 8.485,15.416 8.239 C 15.374 8.173,14.816 7.598,14.176 6.960 L 13.013 5.800 13.013 4.184 C 13.013 3.212,13.003 2.511,12.987 2.426 C 12.953 2.251,12.854 2.116,12.710 2.051 C 12.613 2.007,12.529 2.001,12.000 2.001 C 11.324 2.001,11.243 2.019,11.110 2.193 C 11.008 2.327,10.987 2.497,10.987 3.170 L 10.987 3.772 9.793 2.582 C 8.535 1.327,8.496 1.294,8.192 1.230 C 8.020 1.193,7.946 1.195,7.773 1.238 M10.500 4.700 L 12.987 7.187 12.980 10.442 L 12.973 13.697 12.896 13.798 C 12.854 13.854,12.770 13.922,12.710 13.949 C 12.604 13.997,12.436 13.999,8.000 13.999 C 3.564 13.999,3.396 13.997,3.290 13.949 C 3.230 13.922,3.146 13.854,3.104 13.798 L 3.027 13.697 3.020 10.442 L 3.013 7.187 5.500 4.700 C 6.867 3.332,7.993 2.213,8.000 2.213 C 8.007 2.213,9.133 3.332,10.500 4.700 " stroke="none" fill="black" fill-rule="evenodd"></path></svg>