<svg width="1em" height="1em" viewBox="0 0 16 16" class="bi bi-intersect" fill="currentColor" xmlns="http://www.w3.org/2000/svg"><path d="M1.600 0.042 C 0.952 0.181,0.407 0.629,0.157 1.226 C -0.007 1.618,0.000 1.409,-0.000 6.000 C -0.000 10.591,-0.007 10.382,0.157 10.774 C 0.350 11.235,0.765 11.650,1.226 11.843 C 1.570 11.987,1.710 12.000,2.906 12.000 L 4.000 12.000 4.000 13.094 C 4.000 14.290,4.013 14.430,4.157 14.774 C 4.350 15.235,4.765 15.650,5.226 15.843 C 5.618 16.007,5.409 16.000,10.000 16.000 C 14.591 16.000,14.382 16.007,14.774 15.843 C 15.238 15.649,15.649 15.238,15.843 14.774 C 16.007 14.382,16.000 14.591,16.000 10.000 C 16.000 5.409,16.007 5.618,15.843 5.226 C 15.649 4.762,15.238 4.351,14.774 4.157 C 14.430 4.013,14.290 4.000,13.094 4.000 L 12.000 4.000 12.000 2.906 C 12.000 2.012,11.992 1.773,11.958 1.606 C 11.796 0.816,11.184 0.204,10.394 0.042 C 10.212 0.005,9.717 0.000,5.981 0.002 C 2.480 0.004,1.744 0.011,1.600 0.042 M10.428 1.099 C 10.616 1.192,10.808 1.384,10.901 1.572 L 10.973 1.720 10.981 2.860 L 10.989 4.000 8.400 4.000 C 6.145 4.000,5.785 4.005,5.606 4.042 C 4.816 4.204,4.204 4.816,4.042 5.606 C 4.005 5.785,4.000 6.146,4.000 8.414 L 4.000 11.018 2.913 11.007 C 1.986 10.998,1.807 10.990,1.690 10.951 C 1.417 10.862,1.155 10.606,1.063 10.338 C 1.018 10.208,1.015 9.960,1.014 5.994 C 1.013 1.906,1.015 1.783,1.065 1.652 C 1.162 1.395,1.389 1.166,1.645 1.066 C 1.769 1.017,1.918 1.016,6.027 1.021 L 10.280 1.027 10.428 1.099 M14.428 5.099 C 14.616 5.192,14.808 5.384,14.901 5.572 L 14.973 5.720 14.973 10.000 L 14.973 14.280 14.901 14.428 C 14.810 14.612,14.617 14.808,14.441 14.894 C 14.367 14.930,14.223 14.971,14.120 14.986 C 14.002 15.002,12.479 15.012,10.000 15.012 C 7.521 15.012,5.998 15.002,5.880 14.986 C 5.777 14.971,5.633 14.930,5.559 14.894 C 5.383 14.808,5.190 14.612,5.099 14.428 L 5.027 14.280 5.019 13.140 L 5.011 12.000 7.600 12.000 C 9.855 12.000,10.215 11.995,10.394 11.958 C 11.184 11.796,11.796 11.184,11.958 10.394 C 11.995 10.215,12.000 9.855,12.000 7.600 L 12.000 5.011 13.140 5.019 L 14.280 5.027 14.428 5.099 " stroke="none" fill="black" fill-rule="evenodd"></path></svg>