<svg width="1em" height="1em" viewBox="0 0 16 16" class="bi bi-journal-album" fill="currentColor" xmlns="http://www.w3.org/2000/svg"><path d="M3.507 1.066 C 2.874 1.234,2.386 1.663,2.142 2.267 C 2.072 2.441,2.000 2.774,2.000 2.923 L 2.000 3.015 2.500 3.007 L 3.000 3.000 3.019 2.848 C 3.053 2.577,3.221 2.317,3.461 2.165 C 3.736 1.990,3.454 2.000,8.002 2.000 C 12.057 2.000,12.131 2.001,12.297 2.053 C 12.600 2.149,12.821 2.359,12.932 2.657 C 12.986 2.801,12.987 2.840,12.987 8.000 C 12.987 13.160,12.986 13.199,12.932 13.343 C 12.821 13.641,12.600 13.851,12.297 13.947 C 12.131 13.999,12.057 14.000,8.002 14.000 C 3.454 14.000,3.736 14.010,3.461 13.835 C 3.221 13.683,3.047 13.415,3.021 13.156 L 3.006 13.013 2.499 13.013 L 1.993 13.013 2.010 13.182 C 2.110 14.158,2.850 14.891,3.833 14.987 C 4.178 15.020,11.822 15.020,12.167 14.987 C 12.668 14.938,13.073 14.748,13.413 14.401 C 13.713 14.096,13.884 13.775,13.961 13.370 C 14.019 13.068,14.019 2.932,13.961 2.630 C 13.884 2.225,13.713 1.904,13.413 1.599 C 13.186 1.367,12.939 1.211,12.627 1.102 L 12.413 1.027 8.053 1.021 C 3.877 1.016,3.685 1.018,3.507 1.066 M2.307 4.037 C 2.201 4.084,2.081 4.206,2.036 4.312 C 2.013 4.368,2.000 4.506,2.000 4.706 L 2.000 5.013 1.679 5.013 C 1.319 5.013,1.259 5.032,1.124 5.186 C 1.023 5.301,1.003 5.372,1.019 5.559 C 1.033 5.736,1.132 5.877,1.290 5.949 C 1.392 5.995,1.483 5.999,2.480 5.999 C 3.127 6.000,3.599 5.989,3.657 5.973 C 3.803 5.932,3.965 5.744,3.988 5.587 C 4.022 5.362,3.915 5.148,3.723 5.057 C 3.655 5.024,3.552 5.013,3.323 5.013 L 3.013 5.013 3.013 4.790 C 3.013 4.492,2.974 4.304,2.890 4.193 C 2.762 4.026,2.495 3.954,2.307 4.037 M5.290 4.051 C 5.146 4.116,5.047 4.251,5.013 4.426 C 4.977 4.618,4.977 9.382,5.013 9.574 C 5.047 9.749,5.146 9.884,5.290 9.949 C 5.395 9.997,5.518 9.999,8.000 9.999 C 10.482 9.999,10.605 9.997,10.710 9.949 C 10.854 9.884,10.953 9.749,10.987 9.574 C 11.023 9.382,11.023 4.618,10.987 4.426 C 10.953 4.251,10.854 4.116,10.710 4.051 C 10.605 4.003,10.482 4.001,8.000 4.001 C 5.518 4.001,5.395 4.003,5.290 4.051 M2.280 7.055 C 2.058 7.171,2.001 7.301,2.001 7.700 L 2.000 8.000 1.700 8.001 C 1.465 8.001,1.376 8.012,1.290 8.051 C 1.132 8.123,1.033 8.264,1.019 8.441 C 1.003 8.628,1.023 8.699,1.124 8.814 C 1.293 9.006,1.251 9.000,2.453 9.000 C 3.047 9.000,3.578 8.990,3.634 8.979 C 3.767 8.951,3.932 8.791,3.974 8.649 C 4.025 8.477,3.989 8.310,3.871 8.181 C 3.732 8.026,3.650 8.000,3.308 8.000 L 3.013 8.000 3.012 7.780 C 3.009 7.356,2.942 7.180,2.743 7.068 C 2.625 7.001,2.396 6.995,2.280 7.055 M2.307 10.037 C 2.201 10.084,2.081 10.206,2.036 10.312 C 2.013 10.368,2.000 10.506,2.000 10.706 L 2.000 11.013 1.679 11.013 C 1.319 11.013,1.259 11.032,1.124 11.186 C 1.023 11.301,1.003 11.372,1.019 11.559 C 1.033 11.736,1.132 11.877,1.290 11.949 C 1.392 11.995,1.483 11.999,2.480 11.999 C 3.127 12.000,3.599 11.989,3.657 11.973 C 3.803 11.932,3.965 11.744,3.988 11.587 C 4.022 11.362,3.915 11.148,3.723 11.057 C 3.655 11.024,3.552 11.013,3.323 11.013 L 3.013 11.013 3.013 10.790 C 3.013 10.492,2.974 10.304,2.890 10.193 C 2.762 10.026,2.495 9.954,2.307 10.037 M6.273 11.058 C 6.084 11.151,5.979 11.364,6.012 11.587 C 6.035 11.744,6.197 11.932,6.343 11.973 C 6.403 11.989,7.031 12.000,8.000 12.000 C 8.969 12.000,9.597 11.989,9.657 11.973 C 9.803 11.932,9.965 11.744,9.988 11.587 C 10.022 11.362,9.915 11.148,9.723 11.057 C 9.642 11.018,9.449 11.013,7.996 11.014 C 6.544 11.014,6.350 11.019,6.273 11.058 " stroke="none" fill="black" fill-rule="evenodd"></path></svg>