<svg width="1em" height="1em" viewBox="0 0 16 16" class="bi bi-kanban-fill" fill="currentColor" xmlns="http://www.w3.org/2000/svg"><path d="M2.107 0.039 C 1.349 0.191,0.756 0.763,0.560 1.531 C 0.507 1.739,0.507 1.813,0.507 8.000 C 0.507 14.187,0.507 14.261,0.560 14.469 C 0.745 15.193,1.277 15.736,2.000 15.938 C 2.165 15.984,2.452 15.987,8.000 15.987 C 14.551 15.987,13.937 16.006,14.389 15.785 C 14.888 15.540,15.242 15.118,15.417 14.559 L 15.480 14.360 15.480 8.000 L 15.480 1.640 15.418 1.440 C 15.204 0.757,14.714 0.276,14.013 0.063 C 13.861 0.017,13.580 0.014,8.067 0.010 C 3.401 0.006,2.246 0.011,2.107 0.039 M4.804 2.053 C 4.897 2.083,5.031 2.149,5.101 2.201 C 5.260 2.318,5.427 2.572,5.467 2.755 C 5.488 2.854,5.494 3.941,5.488 6.573 L 5.480 10.253 5.409 10.406 C 5.259 10.726,4.975 10.935,4.622 10.986 C 4.386 11.020,3.613 11.020,3.376 10.986 C 3.031 10.936,2.739 10.720,2.591 10.405 L 2.520 10.253 2.512 6.573 C 2.506 3.941,2.512 2.854,2.533 2.755 C 2.572 2.573,2.742 2.314,2.894 2.206 C 2.960 2.159,3.090 2.093,3.181 2.061 C 3.335 2.006,3.394 2.001,3.991 2.001 C 4.562 2.000,4.653 2.006,4.804 2.053 M8.804 2.053 C 8.897 2.083,9.031 2.149,9.101 2.201 C 9.260 2.318,9.427 2.572,9.467 2.755 C 9.488 2.852,9.494 3.402,9.488 4.573 L 9.480 6.253 9.409 6.406 C 9.259 6.726,8.975 6.935,8.622 6.986 C 8.386 7.020,7.613 7.020,7.376 6.986 C 7.031 6.936,6.739 6.720,6.591 6.405 L 6.520 6.253 6.512 4.573 C 6.506 3.402,6.512 2.852,6.533 2.755 C 6.573 2.573,6.743 2.314,6.894 2.206 C 6.960 2.159,7.090 2.093,7.181 2.061 C 7.335 2.006,7.394 2.001,7.991 2.001 C 8.562 2.000,8.653 2.006,8.804 2.053 M12.804 2.053 C 13.112 2.151,13.363 2.403,13.455 2.708 C 13.512 2.897,13.513 13.100,13.456 13.290 C 13.365 13.590,13.117 13.841,12.808 13.944 C 12.658 13.995,12.579 14.000,12.000 14.000 C 11.421 14.000,11.342 13.995,11.192 13.944 C 10.883 13.841,10.635 13.590,10.544 13.290 C 10.512 13.184,10.507 12.364,10.507 8.000 C 10.507 2.297,10.494 2.715,10.680 2.435 C 10.795 2.262,10.957 2.141,11.181 2.061 C 11.335 2.006,11.394 2.001,11.991 2.001 C 12.562 2.000,12.653 2.006,12.804 2.053 " stroke="none" fill="black" fill-rule="evenodd"></path></svg>