<svg width="1em" height="1em" viewBox="0 0 16 16" class="bi bi-key-fill" fill="currentColor" xmlns="http://www.w3.org/2000/svg"><path d="M2.920 4.547 C 1.975 4.720,1.125 5.266,0.615 6.028 C 0.337 6.445,0.181 6.806,0.076 7.280 C -0.012 7.681,-0.012 8.319,0.076 8.720 C 0.222 9.381,0.540 9.974,0.997 10.439 C 1.491 10.942,2.104 11.279,2.800 11.430 C 3.119 11.499,3.868 11.500,4.187 11.431 C 5.210 11.212,6.077 10.577,6.565 9.688 L 6.671 9.493 7.343 9.493 L 8.014 9.493 8.507 9.000 L 8.999 8.507 9.500 9.006 L 10.000 9.506 10.500 9.006 L 11.000 8.507 11.500 9.007 L 12.000 9.506 12.500 9.007 L 13.000 8.507 13.500 9.007 L 14.000 9.506 14.753 8.753 L 15.506 8.000 14.760 7.253 L 14.014 6.507 10.343 6.507 L 6.671 6.507 6.565 6.312 C 6.409 6.029,6.172 5.723,5.917 5.478 C 5.451 5.031,4.958 4.760,4.309 4.596 C 3.966 4.509,3.262 4.485,2.920 4.547 M2.941 7.106 C 3.130 7.200,3.314 7.392,3.409 7.594 C 3.470 7.726,3.480 7.781,3.480 8.000 C 3.480 8.219,3.470 8.274,3.409 8.406 C 3.314 8.607,3.131 8.799,2.941 8.895 C 2.800 8.967,2.763 8.973,2.507 8.973 C 2.259 8.973,2.209 8.965,2.075 8.902 C 1.677 8.716,1.437 8.253,1.519 7.834 C 1.591 7.466,1.792 7.217,2.131 7.074 C 2.260 7.020,2.315 7.013,2.533 7.021 C 2.748 7.028,2.810 7.042,2.941 7.106 " stroke="none" fill="black" fill-rule="evenodd"></path></svg>