<svg width="1em" height="1em" viewBox="0 0 16 16" class="bi bi-list-stars" fill="currentColor" xmlns="http://www.w3.org/2000/svg"><path d="M2.372 2.038 C 2.330 2.062,2.216 2.231,2.067 2.491 L 1.830 2.907 1.572 2.907 C 1.246 2.907,1.164 2.923,1.080 3.007 C 1.030 3.058,1.013 3.102,1.013 3.189 C 1.013 3.297,1.032 3.325,1.333 3.678 C 1.509 3.884,1.653 4.069,1.653 4.090 C 1.653 4.110,1.617 4.244,1.573 4.387 C 1.470 4.723,1.470 4.807,1.574 4.911 C 1.644 4.982,1.669 4.990,1.767 4.980 C 1.829 4.973,2.056 4.889,2.272 4.793 L 2.664 4.618 2.899 4.802 C 3.095 4.956,3.150 4.986,3.235 4.986 C 3.364 4.987,3.429 4.952,3.479 4.855 C 3.514 4.787,3.514 4.731,3.480 4.369 C 3.418 3.730,3.400 3.799,3.686 3.570 C 3.978 3.337,4.021 3.273,3.985 3.132 C 3.940 2.951,3.866 2.922,3.422 2.907 C 2.955 2.891,2.978 2.908,2.839 2.458 C 2.782 2.275,2.718 2.122,2.683 2.086 C 2.609 2.010,2.462 1.987,2.372 2.038 M5.266 3.063 C 5.162 3.126,5.045 3.265,5.023 3.350 C 5.014 3.386,5.012 3.480,5.019 3.559 C 5.033 3.736,5.132 3.877,5.290 3.949 C 5.396 3.997,5.564 3.999,10.000 3.999 C 14.436 3.999,14.604 3.997,14.710 3.949 C 14.884 3.870,14.970 3.734,14.981 3.523 C 14.989 3.367,14.982 3.334,14.918 3.236 C 14.877 3.175,14.800 3.100,14.745 3.069 L 14.646 3.013 9.996 3.013 C 5.514 3.014,5.344 3.015,5.266 3.063 M2.372 6.038 C 2.330 6.062,2.216 6.231,2.067 6.491 L 1.830 6.907 1.572 6.907 C 1.246 6.907,1.164 6.923,1.080 7.007 C 1.030 7.058,1.013 7.102,1.013 7.189 C 1.013 7.297,1.032 7.325,1.333 7.678 C 1.509 7.884,1.653 8.069,1.653 8.090 C 1.653 8.110,1.617 8.244,1.573 8.387 C 1.470 8.723,1.470 8.807,1.574 8.911 C 1.644 8.982,1.669 8.990,1.767 8.980 C 1.829 8.973,2.056 8.889,2.272 8.793 L 2.664 8.618 2.899 8.802 C 3.095 8.956,3.150 8.986,3.235 8.986 C 3.364 8.987,3.429 8.952,3.479 8.855 C 3.514 8.787,3.514 8.731,3.480 8.369 C 3.418 7.730,3.400 7.799,3.686 7.570 C 3.978 7.337,4.021 7.273,3.985 7.132 C 3.940 6.951,3.866 6.922,3.422 6.907 C 2.955 6.891,2.978 6.908,2.839 6.458 C 2.782 6.275,2.718 6.122,2.683 6.086 C 2.609 6.010,2.462 5.987,2.372 6.038 M5.266 7.063 C 5.162 7.126,5.045 7.265,5.023 7.350 C 5.014 7.386,5.012 7.480,5.019 7.559 C 5.033 7.736,5.132 7.877,5.290 7.949 C 5.396 7.997,5.564 7.999,10.000 7.999 C 14.436 7.999,14.604 7.997,14.710 7.949 C 14.884 7.870,14.970 7.734,14.981 7.523 C 14.989 7.367,14.982 7.334,14.918 7.236 C 14.877 7.175,14.800 7.100,14.745 7.069 L 14.646 7.013 9.996 7.013 C 5.514 7.014,5.344 7.015,5.266 7.063 M2.372 10.038 C 2.330 10.062,2.216 10.231,2.067 10.491 L 1.830 10.907 1.572 10.907 C 1.246 10.907,1.164 10.923,1.080 11.007 C 1.030 11.058,1.013 11.102,1.013 11.189 C 1.013 11.297,1.032 11.325,1.333 11.678 C 1.509 11.884,1.653 12.069,1.653 12.090 C 1.653 12.110,1.617 12.244,1.573 12.387 C 1.470 12.723,1.470 12.807,1.574 12.911 C 1.644 12.982,1.669 12.990,1.767 12.980 C 1.829 12.973,2.056 12.889,2.272 12.793 L 2.664 12.618 2.899 12.802 C 3.095 12.956,3.150 12.986,3.235 12.986 C 3.364 12.987,3.429 12.952,3.479 12.855 C 3.514 12.787,3.514 12.731,3.480 12.369 C 3.418 11.730,3.400 11.799,3.686 11.570 C 3.978 11.337,4.021 11.273,3.985 11.132 C 3.940 10.951,3.866 10.922,3.422 10.907 C 2.955 10.891,2.978 10.908,2.839 10.458 C 2.782 10.275,2.718 10.122,2.683 10.086 C 2.609 10.010,2.462 9.987,2.372 10.038 M5.266 11.063 C 5.162 11.126,5.045 11.265,5.023 11.350 C 5.014 11.386,5.012 11.480,5.019 11.559 C 5.033 11.736,5.132 11.877,5.290 11.949 C 5.396 11.997,5.564 11.999,10.000 11.999 C 14.436 11.999,14.604 11.997,14.710 11.949 C 14.884 11.870,14.970 11.734,14.981 11.523 C 14.989 11.367,14.982 11.334,14.918 11.236 C 14.877 11.175,14.800 11.100,14.745 11.069 L 14.646 11.013 9.996 11.013 C 5.514 11.014,5.344 11.015,5.266 11.063 " stroke="none" fill="black" fill-rule="evenodd"></path></svg>