<svg width="1em" height="1em" viewBox="0 0 16 16" class="bi bi-list-ol" fill="currentColor" xmlns="http://www.w3.org/2000/svg"><path d="M1.607 2.561 L 1.307 2.775 1.307 3.055 C 1.307 3.279,1.314 3.332,1.341 3.315 C 1.361 3.303,1.491 3.212,1.632 3.113 C 1.773 3.014,1.895 2.933,1.904 2.933 C 1.912 2.933,1.923 3.398,1.926 3.967 L 1.933 5.000 2.247 5.008 L 2.560 5.015 2.560 3.681 L 2.560 2.347 2.233 2.347 L 1.907 2.348 1.607 2.561 M5.266 3.063 C 5.162 3.126,5.045 3.265,5.023 3.350 C 5.014 3.386,5.012 3.480,5.019 3.559 C 5.033 3.736,5.132 3.877,5.290 3.949 C 5.396 3.997,5.564 3.999,10.000 3.999 C 14.436 3.999,14.604 3.997,14.710 3.949 C 14.884 3.870,14.970 3.734,14.981 3.523 C 14.989 3.367,14.982 3.334,14.918 3.236 C 14.877 3.175,14.800 3.100,14.745 3.069 L 14.646 3.013 9.996 3.013 C 5.514 3.014,5.344 3.015,5.266 3.063 M1.753 6.321 C 1.409 6.407,1.139 6.712,1.115 7.040 L 1.107 7.160 1.407 7.168 C 1.697 7.175,1.707 7.173,1.707 7.118 C 1.707 7.025,1.782 6.894,1.865 6.845 C 1.907 6.820,1.992 6.800,2.053 6.800 C 2.354 6.800,2.484 7.080,2.312 7.360 C 2.280 7.411,2.006 7.711,1.701 8.026 L 1.148 8.600 1.147 8.807 L 1.147 9.014 2.100 9.007 L 3.053 9.000 3.053 8.747 L 3.053 8.493 2.530 8.480 L 2.007 8.467 2.427 8.019 C 2.900 7.513,2.987 7.381,3.007 7.131 C 3.026 6.899,2.978 6.745,2.837 6.590 C 2.662 6.395,2.457 6.313,2.120 6.303 C 1.973 6.299,1.808 6.307,1.753 6.321 M5.266 7.063 C 5.162 7.126,5.045 7.265,5.023 7.350 C 5.014 7.386,5.012 7.480,5.019 7.559 C 5.033 7.736,5.132 7.877,5.290 7.949 C 5.396 7.997,5.564 7.999,10.000 7.999 C 14.436 7.999,14.604 7.997,14.710 7.949 C 14.884 7.870,14.970 7.734,14.981 7.523 C 14.989 7.367,14.982 7.334,14.918 7.236 C 14.877 7.175,14.800 7.100,14.745 7.069 L 14.646 7.013 9.996 7.013 C 5.514 7.014,5.344 7.015,5.266 7.063 M1.653 10.334 C 1.342 10.420,1.096 10.673,1.051 10.953 L 1.033 11.067 1.325 11.067 L 1.617 11.067 1.655 10.980 C 1.676 10.933,1.735 10.866,1.787 10.831 C 1.865 10.779,1.905 10.770,2.035 10.779 C 2.164 10.788,2.203 10.804,2.272 10.873 C 2.335 10.937,2.354 10.978,2.354 11.059 C 2.354 11.288,2.222 11.386,1.913 11.387 L 1.707 11.387 1.707 11.627 L 1.707 11.867 1.913 11.867 C 2.176 11.868,2.319 11.927,2.382 12.061 C 2.438 12.179,2.438 12.247,2.382 12.366 C 2.306 12.526,2.025 12.609,1.822 12.532 C 1.727 12.496,1.628 12.405,1.598 12.327 C 1.576 12.270,1.560 12.267,1.294 12.267 C 1.018 12.267,1.013 12.268,1.013 12.329 C 1.013 12.453,1.101 12.643,1.209 12.754 C 1.417 12.967,1.697 13.055,2.105 13.033 C 2.531 13.011,2.821 12.860,2.973 12.583 C 3.075 12.397,3.083 12.130,2.992 11.956 C 2.919 11.814,2.764 11.686,2.620 11.646 C 2.558 11.629,2.507 11.609,2.507 11.600 C 2.507 11.591,2.549 11.569,2.600 11.550 C 2.833 11.466,2.971 11.258,2.972 10.987 C 2.974 10.698,2.816 10.490,2.502 10.368 C 2.313 10.294,1.863 10.276,1.653 10.334 M5.266 11.063 C 5.162 11.126,5.045 11.265,5.023 11.350 C 5.014 11.386,5.012 11.480,5.019 11.559 C 5.033 11.736,5.132 11.877,5.290 11.949 C 5.396 11.997,5.564 11.999,10.000 11.999 C 14.436 11.999,14.604 11.997,14.710 11.949 C 14.884 11.870,14.970 11.734,14.981 11.523 C 14.989 11.367,14.982 11.334,14.918 11.236 C 14.877 11.175,14.800 11.100,14.745 11.069 L 14.646 11.013 9.996 11.013 C 5.514 11.014,5.344 11.015,5.266 11.063 " stroke="none" fill="black" fill-rule="evenodd"></path></svg>