<svg width="1em" height="1em" viewBox="0 0 16 16" class="bi bi-menu-app-fill" fill="currentColor" xmlns="http://www.w3.org/2000/svg"><path d="M1.253 0.018 C 0.981 0.064,0.646 0.239,0.443 0.443 C 0.300 0.586,0.149 0.823,0.077 1.021 C 0.017 1.183,0.015 1.213,0.006 2.385 C -0.000 3.203,0.007 3.641,0.027 3.765 C 0.102 4.209,0.430 4.645,0.831 4.835 C 1.175 4.998,1.198 5.000,2.533 5.000 L 3.747 5.000 3.955 4.926 C 4.453 4.750,4.794 4.393,4.951 3.880 C 4.995 3.735,5.000 3.609,5.000 2.520 C 5.000 1.198,4.998 1.175,4.834 0.829 C 4.711 0.569,4.436 0.291,4.179 0.165 C 3.860 0.009,3.767 0.001,2.480 0.004 C 1.842 0.006,1.290 0.012,1.253 0.018 M1.600 6.042 C 0.952 6.181,0.407 6.629,0.157 7.226 C -0.002 7.607,0.000 7.560,0.000 10.490 C -0.000 13.382,-0.000 13.380,0.142 13.733 C 0.249 13.996,0.374 14.185,0.587 14.401 C 0.927 14.748,1.332 14.938,1.833 14.987 C 2.181 15.021,13.819 15.021,14.167 14.987 C 14.668 14.938,15.073 14.748,15.413 14.401 C 15.626 14.185,15.751 13.996,15.858 13.733 C 16.000 13.380,16.000 13.382,16.000 10.490 C 16.000 8.153,15.995 7.785,15.958 7.606 C 15.796 6.816,15.184 6.204,14.394 6.042 C 14.210 6.004,13.540 6.000,7.981 6.002 C 2.765 6.004,1.746 6.010,1.600 6.042 M14.428 7.099 C 14.616 7.192,14.808 7.384,14.901 7.572 L 14.973 7.720 14.981 8.860 L 14.989 10.000 8.001 10.000 L 1.013 10.000 1.013 8.894 C 1.013 7.866,1.017 7.778,1.065 7.652 C 1.162 7.395,1.389 7.166,1.645 7.066 C 1.769 7.017,1.962 7.016,8.027 7.021 L 14.280 7.027 14.428 7.099 M2.307 8.037 C 2.129 8.116,1.999 8.311,2.001 8.499 C 2.002 8.742,2.177 8.940,2.431 8.987 C 2.527 9.005,4.136 9.012,7.095 9.007 C 11.447 9.000,11.617 8.998,11.714 8.950 C 12.012 8.802,12.090 8.423,11.871 8.181 C 11.817 8.121,11.735 8.056,11.688 8.036 C 11.561 7.983,2.427 7.985,2.307 8.037 M14.987 12.106 C 14.987 13.139,14.984 13.206,14.932 13.343 C 14.821 13.641,14.600 13.851,14.297 13.947 C 14.130 13.999,14.058 14.000,8.002 14.000 C 1.243 14.000,1.740 14.013,1.461 13.835 C 1.306 13.737,1.196 13.614,1.100 13.432 L 1.027 13.293 1.019 12.153 L 1.011 11.013 7.999 11.013 L 14.987 11.013 14.987 12.106 M2.307 12.037 C 2.129 12.116,1.999 12.311,2.001 12.499 C 2.002 12.743,2.177 12.940,2.432 12.988 C 2.528 13.005,3.634 13.012,5.603 13.007 L 8.627 13.000 8.736 12.938 C 8.796 12.903,8.877 12.825,8.918 12.764 C 8.982 12.666,8.989 12.633,8.981 12.477 C 8.970 12.266,8.884 12.130,8.710 12.051 C 8.605 12.003,8.471 12.001,5.493 12.002 C 2.976 12.002,2.371 12.009,2.307 12.037 " stroke="none" fill="black" fill-rule="evenodd"></path></svg>