<svg width="1em" height="1em" viewBox="0 0 16 16" class="bi bi-mic" fill="currentColor" xmlns="http://www.w3.org/2000/svg"><path d="M7.520 0.041 C 6.569 0.191,5.733 0.814,5.306 1.690 C 5.138 2.036,5.046 2.384,5.014 2.803 C 4.980 3.229,4.980 7.780,5.013 8.200 C 5.027 8.376,5.062 8.612,5.091 8.725 C 5.369 9.808,6.178 10.617,7.275 10.911 C 7.538 10.982,8.179 11.008,8.475 10.961 C 9.365 10.818,10.149 10.273,10.605 9.480 C 10.829 9.091,10.948 8.691,10.987 8.200 C 11.020 7.780,11.020 3.229,10.986 2.803 C 10.927 2.037,10.650 1.426,10.121 0.890 C 9.438 0.199,8.486 -0.112,7.520 0.041 M8.627 1.104 C 8.936 1.209,9.184 1.366,9.413 1.599 C 9.626 1.815,9.751 2.004,9.858 2.267 C 10.000 2.620,10.000 2.619,10.000 5.489 C 10.000 7.216,9.990 8.207,9.972 8.320 C 9.864 8.986,9.394 9.584,8.774 9.843 C 7.614 10.328,6.295 9.628,6.042 8.394 C 6.005 8.215,6.000 7.847,6.000 5.510 C 6.000 2.618,6.000 2.620,6.142 2.267 C 6.386 1.664,6.869 1.238,7.507 1.064 C 7.795 0.986,8.337 1.005,8.627 1.104 M3.307 6.537 C 3.219 6.571,3.099 6.687,3.046 6.787 C 2.989 6.896,2.972 7.548,3.010 8.187 C 3.060 9.015,3.194 9.537,3.535 10.227 C 3.911 10.988,4.416 11.577,5.142 12.100 C 5.451 12.323,6.037 12.615,6.436 12.744 C 6.757 12.848,7.263 12.960,7.415 12.960 L 7.493 12.960 7.493 13.986 L 7.493 15.012 5.898 15.019 L 4.302 15.027 4.202 15.104 C 4.032 15.233,3.956 15.481,4.028 15.672 C 4.070 15.784,4.239 15.944,4.346 15.974 C 4.477 16.010,11.526 16.009,11.657 15.973 C 11.803 15.932,11.965 15.744,11.988 15.587 C 12.022 15.362,11.915 15.148,11.723 15.057 C 11.642 15.018,11.454 15.013,10.069 15.013 L 8.507 15.013 8.507 13.987 L 8.507 12.960 8.590 12.960 C 8.749 12.960,9.323 12.828,9.641 12.719 C 10.621 12.382,11.461 11.746,12.099 10.859 C 12.315 10.560,12.637 9.908,12.756 9.533 C 12.946 8.933,13.030 8.191,13.008 7.307 C 12.997 6.837,12.968 6.743,12.794 6.604 C 12.583 6.436,12.239 6.496,12.085 6.728 L 12.013 6.836 11.998 7.665 C 11.984 8.380,11.974 8.532,11.923 8.773 C 11.838 9.175,11.727 9.488,11.544 9.839 C 10.984 10.921,10.000 11.661,8.773 11.923 C 8.369 12.010,7.631 12.010,7.227 11.923 C 5.602 11.575,4.403 10.374,4.074 8.763 C 4.028 8.539,4.016 8.353,4.003 7.665 L 3.987 6.836 3.912 6.723 C 3.791 6.540,3.512 6.455,3.307 6.537 " stroke="none" fill="black" fill-rule="evenodd"></path></svg>