<svg width="1em" height="1em" viewBox="0 0 16 16" class="bi bi-music-player" fill="currentColor" xmlns="http://www.w3.org/2000/svg"><path d="M3.600 0.042 C 2.952 0.181,2.407 0.629,2.157 1.226 C 1.990 1.625,2.000 1.207,2.000 8.000 C 2.000 14.793,1.990 14.375,2.157 14.774 C 2.350 15.235,2.765 15.650,3.226 15.843 C 3.618 16.007,3.409 16.000,8.000 16.000 C 11.714 16.000,12.212 15.995,12.394 15.958 C 13.184 15.796,13.796 15.184,13.958 14.394 C 13.996 14.211,14.000 13.536,14.000 8.000 C 14.000 2.464,13.996 1.789,13.958 1.606 C 13.796 0.816,13.184 0.204,12.394 0.042 C 12.212 0.005,11.717 0.000,7.981 0.002 C 4.480 0.004,3.744 0.011,3.600 0.042 M12.428 1.099 C 12.616 1.192,12.808 1.384,12.901 1.572 L 12.973 1.720 12.980 7.946 C 12.986 13.403,12.982 14.188,12.947 14.309 C 12.867 14.586,12.586 14.864,12.296 14.954 C 12.157 14.997,11.861 15.000,8.000 15.000 C 4.139 15.000,3.843 14.997,3.704 14.954 C 3.422 14.866,3.158 14.612,3.063 14.338 C 3.018 14.207,3.015 13.880,3.014 7.994 C 3.013 1.932,3.015 1.784,3.065 1.652 C 3.162 1.395,3.389 1.166,3.645 1.066 C 3.769 1.017,3.918 1.016,8.027 1.021 L 12.280 1.027 12.428 1.099 M4.767 2.029 C 4.489 2.095,4.217 2.324,4.088 2.600 L 4.013 2.760 4.006 4.437 C 3.997 6.286,3.996 6.275,4.164 6.539 C 4.328 6.796,4.573 6.945,4.900 6.989 C 5.034 7.006,6.176 7.013,8.147 7.008 L 11.187 7.000 11.337 6.939 C 11.651 6.812,11.852 6.598,11.948 6.292 C 12.000 6.123,12.002 6.063,11.994 4.439 L 11.987 2.760 11.903 2.587 C 11.797 2.366,11.633 2.201,11.413 2.096 L 11.240 2.013 8.053 2.009 C 6.254 2.007,4.823 2.015,4.767 2.029 M10.987 4.507 L 10.987 6.000 8.000 6.000 L 5.013 6.000 5.013 4.507 L 5.013 3.013 8.000 3.013 L 10.987 3.013 10.987 4.507 M7.520 8.041 C 6.371 8.223,5.418 9.084,5.101 10.227 C 5.032 10.475,5.027 10.528,5.027 11.000 C 5.027 11.472,5.032 11.525,5.101 11.773 C 5.420 12.927,6.379 13.784,7.547 13.961 C 9.061 14.191,10.484 13.261,10.900 11.770 C 10.968 11.525,10.973 11.471,10.973 11.000 C 10.973 10.529,10.968 10.475,10.900 10.230 C 10.754 9.707,10.505 9.279,10.121 8.890 C 9.438 8.199,8.486 7.888,7.520 8.041 M8.627 9.104 C 8.744 9.144,8.924 9.226,9.027 9.286 C 9.248 9.415,9.576 9.740,9.703 9.954 C 10.095 10.618,10.095 11.382,9.703 12.046 C 9.576 12.260,9.248 12.585,9.027 12.714 C 8.924 12.774,8.744 12.857,8.627 12.898 C 8.428 12.967,8.384 12.973,8.000 12.973 C 7.616 12.973,7.572 12.967,7.373 12.898 C 7.061 12.789,6.814 12.633,6.587 12.401 C 6.287 12.096,6.116 11.775,6.039 11.370 C 5.891 10.597,6.230 9.779,6.877 9.349 C 7.266 9.090,7.555 9.010,8.053 9.022 C 8.362 9.029,8.444 9.041,8.627 9.104 M7.704 10.049 C 7.432 10.139,7.238 10.305,7.099 10.570 C 7.033 10.694,7.027 10.733,7.027 11.000 C 7.027 11.268,7.033 11.305,7.100 11.432 C 7.196 11.614,7.306 11.737,7.461 11.836 C 7.964 12.155,8.626 11.975,8.886 11.446 C 8.968 11.278,8.973 11.250,8.973 10.987 C 8.973 10.718,8.970 10.700,8.882 10.538 C 8.706 10.214,8.413 10.030,8.040 10.010 C 7.907 10.003,7.810 10.014,7.704 10.049 " stroke="none" fill="black" fill-rule="evenodd"></path></svg>