<svg width="1em" height="1em" viewBox="0 0 16 16" class="bi bi-patch-question" fill="currentColor" xmlns="http://www.w3.org/2000/svg"><path d="M7.589 0.030 C 7.204 0.086,6.729 0.269,6.381 0.496 C 6.296 0.552,6.022 0.798,5.773 1.044 L 5.319 1.491 4.640 1.502 C 4.014 1.511,3.940 1.518,3.702 1.581 C 2.972 1.775,2.375 2.196,1.978 2.799 C 1.791 3.083,1.676 3.345,1.580 3.705 C 1.516 3.942,1.511 4.008,1.504 4.637 L 1.496 5.314 1.047 5.770 C 0.800 6.021,0.552 6.296,0.496 6.381 C 0.337 6.625,0.164 7.015,0.088 7.299 C 0.026 7.530,0.018 7.610,0.018 8.000 C 0.018 8.390,0.026 8.470,0.088 8.701 C 0.164 8.985,0.337 9.375,0.496 9.619 C 0.552 9.704,0.798 9.978,1.044 10.227 L 1.491 10.681 1.502 11.360 C 1.511 11.984,1.518 12.061,1.580 12.295 C 1.675 12.654,1.791 12.916,1.978 13.201 C 2.344 13.756,2.904 14.176,3.540 14.374 C 3.868 14.475,4.187 14.509,4.767 14.503 L 5.308 14.497 5.754 14.938 C 6.236 15.414,6.404 15.542,6.789 15.725 C 7.701 16.156,8.770 16.068,9.634 15.490 C 9.725 15.429,9.999 15.182,10.243 14.941 L 10.686 14.503 11.230 14.505 C 11.588 14.506,11.862 14.494,12.033 14.468 C 13.145 14.298,14.042 13.529,14.374 12.460 C 14.475 12.132,14.509 11.813,14.503 11.233 L 14.497 10.692 14.938 10.246 C 15.180 10.001,15.430 9.723,15.493 9.630 C 15.660 9.379,15.833 8.997,15.912 8.701 C 15.974 8.470,15.982 8.390,15.982 8.000 C 15.982 7.610,15.974 7.530,15.912 7.299 C 15.833 7.003,15.660 6.621,15.493 6.370 C 15.430 6.277,15.182 6.001,14.941 5.757 L 14.503 5.314 14.505 4.770 C 14.507 4.188,14.472 3.857,14.374 3.540 C 14.177 2.905,13.755 2.342,13.204 1.980 C 12.916 1.791,12.656 1.676,12.295 1.580 C 12.058 1.516,11.992 1.511,11.363 1.504 L 10.686 1.496 10.230 1.047 C 9.979 0.800,9.701 0.550,9.613 0.493 C 9.009 0.098,8.274 -0.070,7.589 0.030 M8.619 1.105 C 8.951 1.222,9.118 1.349,9.720 1.948 L 10.280 2.504 11.147 2.513 C 11.969 2.523,12.022 2.526,12.186 2.584 C 12.796 2.800,13.203 3.206,13.416 3.813 C 13.474 3.977,13.478 4.033,13.487 4.857 L 13.497 5.727 14.032 6.257 C 14.625 6.845,14.779 7.046,14.898 7.393 C 14.968 7.597,14.973 7.643,14.972 8.013 C 14.972 8.398,14.968 8.422,14.886 8.637 C 14.840 8.759,14.763 8.921,14.716 8.997 C 14.669 9.072,14.375 9.391,14.064 9.707 L 13.497 10.280 13.487 11.147 C 13.477 11.969,13.474 12.022,13.416 12.186 C 13.200 12.796,12.794 13.203,12.187 13.416 C 12.023 13.474,11.967 13.478,11.143 13.487 L 10.273 13.497 9.743 14.032 C 9.155 14.625,8.954 14.779,8.607 14.898 C 8.405 14.967,8.355 14.973,8.000 14.973 C 7.646 14.973,7.595 14.967,7.395 14.898 C 7.051 14.780,6.889 14.658,6.280 14.052 L 5.720 13.496 4.853 13.487 C 4.032 13.477,3.978 13.474,3.813 13.416 C 3.206 13.203,2.800 12.796,2.584 12.186 C 2.526 12.022,2.522 11.969,2.513 11.142 L 2.503 10.271 1.968 9.742 C 1.374 9.155,1.222 8.956,1.102 8.607 C 1.032 8.402,1.027 8.358,1.028 7.987 C 1.029 7.624,1.036 7.569,1.099 7.391 C 1.223 7.047,1.316 6.924,1.925 6.307 L 2.503 5.720 2.513 4.853 C 2.523 4.033,2.526 3.977,2.584 3.813 C 2.797 3.206,3.204 2.800,3.814 2.584 C 3.978 2.526,4.032 2.522,4.857 2.513 L 5.727 2.503 6.257 1.969 C 6.916 1.305,7.084 1.185,7.520 1.062 C 7.791 0.986,8.342 1.008,8.619 1.105 M7.879 3.521 C 7.047 3.630,6.420 4.090,6.137 4.800 C 5.901 5.392,5.984 5.948,6.328 6.078 C 6.370 6.094,6.472 6.107,6.555 6.107 C 6.844 6.107,6.978 5.976,7.128 5.547 C 7.231 5.255,7.308 5.125,7.471 4.968 C 7.764 4.685,8.255 4.616,8.650 4.801 C 8.848 4.894,8.977 5.026,9.086 5.246 C 9.180 5.436,9.187 5.468,9.196 5.735 C 9.206 6.035,9.171 6.223,9.064 6.432 C 8.986 6.585,8.712 6.863,8.429 7.074 C 7.837 7.518,7.610 7.831,7.505 8.349 C 7.451 8.616,7.463 9.080,7.529 9.230 C 7.670 9.552,8.009 9.689,8.293 9.539 C 8.461 9.450,8.556 9.268,8.604 8.939 C 8.686 8.374,8.799 8.205,9.394 7.755 C 10.025 7.278,10.286 6.917,10.432 6.326 C 10.512 5.999,10.512 5.468,10.432 5.141 C 10.326 4.711,10.137 4.378,9.836 4.091 C 9.364 3.641,8.620 3.424,7.879 3.521 M7.693 10.053 C 7.273 10.194,7.013 10.555,7.013 11.000 C 7.013 11.456,7.278 11.814,7.716 11.950 C 8.165 12.090,8.653 11.889,8.874 11.474 C 9.220 10.825,8.787 10.049,8.057 10.010 C 7.902 10.002,7.815 10.012,7.693 10.053 " stroke="none" fill="black" fill-rule="evenodd"></path></svg>