<svg width="1em" height="1em" viewBox="0 0 16 16" class="bi bi-percent" fill="currentColor" xmlns="http://www.w3.org/2000/svg"><path d="M4.049 2.042 C 3.563 2.130,3.078 2.388,2.722 2.749 C 1.890 3.593,1.767 4.920,2.430 5.898 C 2.749 6.368,3.202 6.701,3.787 6.896 C 4.000 6.966,4.041 6.971,4.480 6.972 C 4.888 6.973,4.973 6.966,5.154 6.913 C 6.023 6.661,6.661 6.023,6.913 5.154 C 6.966 4.973,6.973 4.888,6.972 4.480 C 6.971 4.041,6.966 4.000,6.896 3.787 C 6.701 3.202,6.368 2.749,5.898 2.430 C 5.365 2.069,4.687 1.926,4.049 2.042 M12.795 2.409 C 12.741 2.429,12.651 2.483,12.595 2.528 C 12.382 2.699,2.483 12.631,2.437 12.720 C 2.372 12.844,2.370 13.153,2.433 13.271 C 2.491 13.378,2.622 13.509,2.729 13.567 C 2.847 13.630,3.156 13.628,3.280 13.563 C 3.402 13.500,13.500 3.402,13.563 3.280 C 13.628 3.156,13.630 2.847,13.567 2.729 C 13.509 2.622,13.377 2.490,13.273 2.436 C 13.160 2.378,12.915 2.364,12.795 2.409 M4.889 3.056 C 5.566 3.230,6.052 3.916,5.992 4.612 C 5.928 5.353,5.353 5.928,4.612 5.992 C 3.916 6.052,3.230 5.566,3.056 4.889 C 3.001 4.677,3.001 4.292,3.056 4.105 C 3.203 3.606,3.578 3.224,4.079 3.063 C 4.270 3.002,4.668 2.998,4.889 3.056 M10.987 9.053 C 10.015 9.270,9.295 9.982,9.063 10.955 C 9.016 11.153,9.009 11.245,9.020 11.587 C 9.034 12.032,9.089 12.259,9.273 12.627 C 9.712 13.505,10.668 14.053,11.651 13.991 C 12.910 13.913,13.913 12.910,13.991 11.651 C 14.043 10.834,13.660 9.999,13.006 9.505 C 12.809 9.355,12.433 9.168,12.173 9.090 C 11.927 9.016,11.248 8.995,10.987 9.053 M11.816 10.038 C 12.355 10.152,12.804 10.583,12.947 11.121 C 13.000 11.317,12.998 11.713,12.944 11.895 C 12.794 12.401,12.398 12.796,11.895 12.944 C 11.713 12.998,11.317 12.999,11.121 12.947 C 10.422 12.761,9.948 12.090,10.009 11.374 C 10.059 10.789,10.474 10.261,11.022 10.083 C 11.303 9.992,11.535 9.979,11.816 10.038 " stroke="none" fill="black" fill-rule="evenodd"></path></svg>