<svg width="1em" height="1em" viewBox="0 0 16 16" class="bi bi-person-square" fill="currentColor" xmlns="http://www.w3.org/2000/svg"><path d="M1.600 0.042 C 0.952 0.181,0.407 0.629,0.157 1.226 C -0.010 1.625,0.000 1.207,0.000 8.000 C 0.000 14.793,-0.010 14.375,0.157 14.774 C 0.350 15.235,0.765 15.650,1.226 15.843 C 1.625 16.010,1.207 16.000,8.000 16.000 C 13.536 16.000,14.211 15.996,14.394 15.958 C 15.184 15.796,15.796 15.184,15.958 14.394 C 15.996 14.211,16.000 13.536,16.000 8.000 C 16.000 2.464,15.996 1.789,15.958 1.606 C 15.796 0.816,15.184 0.204,14.394 0.042 C 14.210 0.004,13.540 0.000,7.981 0.002 C 2.765 0.004,1.746 0.010,1.600 0.042 M14.428 1.099 C 14.616 1.192,14.808 1.384,14.901 1.572 L 14.973 1.720 14.973 8.000 L 14.973 14.280 14.901 14.428 C 14.756 14.722,14.450 14.948,14.152 14.978 L 14.005 14.994 13.993 14.317 C 13.980 13.619,13.963 13.498,13.831 13.129 C 13.355 11.806,12.180 10.792,10.591 10.335 C 9.776 10.100,9.087 10.015,8.000 10.015 C 6.923 10.015,6.326 10.086,5.509 10.310 C 3.829 10.771,2.587 11.837,2.147 13.196 C 2.031 13.553,2.021 13.634,2.008 14.317 L 1.995 14.994 1.848 14.978 C 1.550 14.948,1.244 14.722,1.099 14.428 L 1.027 14.280 1.020 8.034 C 1.013 1.917,1.014 1.786,1.064 1.653 C 1.162 1.395,1.389 1.166,1.645 1.066 C 1.769 1.017,1.962 1.016,8.027 1.021 L 14.280 1.027 14.428 1.099 M7.430 3.055 C 6.197 3.300,5.236 4.293,5.039 5.525 C 4.992 5.822,5.018 6.462,5.089 6.725 C 5.383 7.822,6.178 8.617,7.275 8.911 C 7.538 8.982,8.179 9.008,8.475 8.961 C 9.504 8.796,10.403 8.076,10.785 7.112 C 10.948 6.699,10.971 6.563,10.971 6.000 C 10.971 5.437,10.948 5.301,10.785 4.888 C 10.412 3.947,9.557 3.244,8.553 3.054 C 8.290 3.004,7.684 3.004,7.430 3.055 " stroke="none" fill="black" fill-rule="evenodd"></path></svg>