<svg width="1em" height="1em" viewBox="0 0 16 16" class="bi bi-pie-chart" fill="currentColor" xmlns="http://www.w3.org/2000/svg"><path d="M7.293 0.030 C 4.174 0.300,1.460 2.423,0.439 5.390 C -0.989 9.546,1.195 14.077,5.331 15.539 C 8.244 16.569,11.468 15.838,13.653 13.653 C 16.473 10.834,16.787 6.378,14.390 3.190 C 12.867 1.166,10.473 -0.019,7.947 0.004 C 7.734 0.006,7.440 0.018,7.293 0.030 M7.493 4.407 L 7.493 7.800 5.098 10.195 C 2.857 12.437,2.700 12.587,2.665 12.539 C 2.644 12.511,2.523 12.351,2.397 12.184 C 1.649 11.192,1.175 9.997,1.041 8.768 C 1.005 8.434,1.005 7.566,1.041 7.232 C 1.188 5.887,1.745 4.578,2.622 3.520 C 3.491 2.473,4.751 1.650,6.067 1.272 C 6.464 1.158,7.077 1.044,7.447 1.017 C 7.491 1.014,7.493 1.191,7.493 4.407 M8.987 1.071 C 10.468 1.271,11.890 1.987,12.973 3.079 C 13.491 3.601,13.952 4.250,14.280 4.919 C 14.667 5.710,14.841 6.325,14.975 7.380 L 14.990 7.493 11.748 7.493 L 8.507 7.493 8.507 4.252 L 8.507 1.011 8.647 1.028 C 8.724 1.036,8.877 1.056,8.987 1.071 M14.975 8.620 C 14.841 9.676,14.667 10.292,14.280 11.080 C 13.369 12.933,11.704 14.284,9.716 14.783 C 9.061 14.947,8.823 14.973,8.000 14.973 C 7.424 14.973,7.202 14.963,6.964 14.925 C 6.562 14.862,5.981 14.714,5.616 14.582 C 4.974 14.351,4.163 13.894,3.606 13.449 L 3.412 13.294 5.806 10.901 L 8.200 8.507 11.595 8.507 L 14.990 8.507 14.975 8.620 " stroke="none" fill="black" fill-rule="evenodd"></path></svg>