<svg width="1em" height="1em" viewBox="0 0 16 16" class="bi bi-plus-square" fill="currentColor" xmlns="http://www.w3.org/2000/svg"><path d="M1.600 0.042 C 0.952 0.181,0.407 0.629,0.157 1.226 C -0.010 1.625,0.000 1.207,0.000 8.000 C 0.000 14.793,-0.010 14.375,0.157 14.774 C 0.350 15.235,0.765 15.650,1.226 15.843 C 1.625 16.010,1.207 16.000,8.000 16.000 C 13.536 16.000,14.211 15.996,14.394 15.958 C 15.184 15.796,15.796 15.184,15.958 14.394 C 15.996 14.211,16.000 13.536,16.000 8.000 C 16.000 2.464,15.996 1.789,15.958 1.606 C 15.796 0.816,15.184 0.204,14.394 0.042 C 14.210 0.004,13.540 0.000,7.981 0.002 C 2.765 0.004,1.746 0.010,1.600 0.042 M14.428 1.099 C 14.616 1.192,14.808 1.384,14.901 1.572 L 14.973 1.720 14.980 7.946 C 14.986 13.403,14.982 14.188,14.947 14.309 C 14.867 14.586,14.586 14.864,14.296 14.954 C 14.156 14.997,13.759 15.000,8.000 15.000 C 2.241 15.000,1.844 14.997,1.704 14.954 C 1.422 14.866,1.158 14.612,1.063 14.338 C 1.018 14.207,1.015 13.880,1.014 7.994 C 1.013 1.932,1.015 1.784,1.065 1.652 C 1.162 1.395,1.389 1.166,1.645 1.066 C 1.769 1.017,1.962 1.016,8.027 1.021 L 14.280 1.027 14.428 1.099 M7.827 3.533 C 7.693 3.581,7.559 3.723,7.522 3.857 C 7.503 3.925,7.494 4.557,7.493 5.727 L 7.493 7.493 5.727 7.493 C 4.594 7.494,3.924 7.504,3.861 7.521 C 3.601 7.593,3.448 7.868,3.520 8.135 C 3.560 8.281,3.712 8.438,3.854 8.477 C 3.926 8.497,4.520 8.506,5.727 8.507 L 7.493 8.507 7.493 10.273 C 7.494 11.480,7.503 12.074,7.523 12.146 C 7.562 12.288,7.719 12.440,7.865 12.480 C 8.132 12.552,8.407 12.399,8.479 12.139 C 8.496 12.076,8.506 11.406,8.507 10.273 L 8.507 8.507 10.273 8.507 C 11.480 8.506,12.074 8.497,12.146 8.477 C 12.288 8.438,12.440 8.281,12.480 8.135 C 12.552 7.868,12.399 7.593,12.139 7.521 C 12.076 7.504,11.406 7.494,10.273 7.493 L 8.507 7.493 8.507 5.727 C 8.506 4.520,8.497 3.926,8.477 3.854 C 8.424 3.662,8.190 3.491,7.987 3.495 C 7.957 3.495,7.885 3.513,7.827 3.533 " stroke="none" fill="black" fill-rule="evenodd"></path></svg>