<svg width="1em" height="1em" viewBox="0 0 16 16" class="bi bi-question-circle" fill="currentColor" xmlns="http://www.w3.org/2000/svg"><path d="M7.293 0.030 C 4.174 0.300,1.460 2.423,0.439 5.390 C -0.989 9.546,1.195 14.077,5.331 15.539 C 8.244 16.569,11.468 15.838,13.653 13.653 C 16.473 10.834,16.787 6.378,14.390 3.190 C 12.867 1.166,10.473 -0.019,7.947 0.004 C 7.734 0.006,7.440 0.018,7.293 0.030 M8.768 1.041 C 10.349 1.213,11.838 1.934,12.973 3.079 C 13.491 3.601,13.952 4.250,14.280 4.919 C 14.518 5.405,14.657 5.783,14.783 6.284 C 14.947 6.939,14.973 7.177,14.973 8.000 C 14.973 8.823,14.947 9.061,14.783 9.716 C 14.657 10.218,14.517 10.596,14.280 11.080 C 13.369 12.933,11.704 14.284,9.716 14.783 C 9.061 14.947,8.823 14.973,8.000 14.973 C 7.177 14.973,6.938 14.947,6.287 14.783 C 4.507 14.336,2.953 13.185,2.008 11.613 C 1.484 10.744,1.149 9.755,1.041 8.768 C 1.005 8.434,1.005 7.566,1.041 7.232 C 1.237 5.430,2.177 3.705,3.581 2.572 C 4.606 1.745,5.923 1.187,7.187 1.044 C 7.491 1.010,8.462 1.008,8.768 1.041 M7.693 3.511 C 7.473 3.530,7.073 3.609,6.880 3.673 C 5.987 3.969,5.436 4.596,5.293 5.480 C 5.271 5.612,5.253 5.789,5.253 5.873 L 5.253 6.027 5.905 6.027 L 6.558 6.027 6.570 5.940 C 6.616 5.616,6.649 5.487,6.720 5.342 C 6.942 4.892,7.358 4.657,7.933 4.657 C 8.671 4.658,9.148 5.019,9.226 5.635 C 9.253 5.847,9.230 6.076,9.163 6.260 C 9.070 6.518,8.835 6.765,8.293 7.175 C 7.680 7.639,7.368 8.011,7.207 8.475 C 7.143 8.661,7.135 8.725,7.125 9.153 L 7.115 9.627 7.771 9.627 L 8.427 9.627 8.427 9.348 C 8.427 9.026,8.460 8.839,8.550 8.658 C 8.674 8.407,8.813 8.274,9.567 7.692 C 10.367 7.074,10.665 6.545,10.666 5.742 C 10.667 5.124,10.481 4.647,10.085 4.251 C 9.548 3.713,8.639 3.432,7.693 3.511 M7.507 10.651 C 7.055 10.794,6.824 11.098,6.823 11.552 C 6.823 11.719,6.836 11.788,6.895 11.920 C 7.227 12.658,8.426 12.660,8.769 11.924 C 8.864 11.719,8.868 11.386,8.778 11.188 C 8.652 10.910,8.439 10.730,8.148 10.654 C 7.958 10.605,7.655 10.604,7.507 10.651 " stroke="none" fill="black" fill-rule="evenodd"></path></svg>