<svg width="1em" height="1em" viewBox="0 0 16 16" class="bi bi-receipt-cutoff" fill="currentColor" xmlns="http://www.w3.org/2000/svg"><path d="M1.800 0.544 C 1.650 0.611,1.572 0.738,1.279 1.383 L 0.987 2.028 0.987 8.518 L 0.987 15.009 0.644 15.018 C 0.315 15.026,0.299 15.029,0.202 15.104 C 0.032 15.233,-0.044 15.481,0.028 15.672 C 0.070 15.784,0.239 15.944,0.346 15.974 C 0.475 16.009,15.525 16.009,15.654 15.974 C 15.772 15.941,15.939 15.773,15.974 15.652 C 16.034 15.442,15.967 15.232,15.798 15.104 C 15.702 15.030,15.683 15.026,15.349 15.013 L 15.000 15.000 14.973 8.387 L 14.947 1.773 14.676 1.238 C 14.331 0.558,14.240 0.471,13.916 0.514 C 13.771 0.534,13.665 0.614,13.308 0.972 L 13.002 1.278 12.650 0.932 C 12.285 0.573,12.183 0.507,12.000 0.507 C 11.817 0.507,11.715 0.573,11.351 0.931 L 11.000 1.276 10.649 0.931 C 10.286 0.573,10.184 0.507,10.000 0.507 C 9.816 0.507,9.714 0.573,9.351 0.931 L 9.000 1.276 8.649 0.931 C 8.285 0.573,8.183 0.507,8.000 0.507 C 7.817 0.507,7.715 0.573,7.351 0.931 L 7.000 1.276 6.649 0.931 C 6.286 0.573,6.184 0.507,6.000 0.507 C 5.817 0.507,5.715 0.573,5.351 0.931 L 5.000 1.276 4.649 0.931 C 4.286 0.573,4.184 0.507,4.000 0.507 C 3.817 0.507,3.715 0.573,3.351 0.931 L 3.000 1.276 2.649 0.931 C 2.456 0.741,2.256 0.568,2.203 0.546 C 2.087 0.498,1.907 0.497,1.800 0.544 M4.346 2.065 C 4.941 2.654,5.059 2.653,5.659 2.060 L 6.000 1.723 6.341 2.060 C 6.942 2.655,7.058 2.655,7.659 2.060 L 8.000 1.723 8.341 2.060 C 8.942 2.655,9.058 2.655,9.659 2.060 L 10.000 1.723 10.341 2.060 C 10.942 2.655,11.058 2.655,11.659 2.060 L 12.000 1.723 12.341 2.061 C 12.724 2.439,12.863 2.525,13.046 2.495 C 13.214 2.469,13.298 2.411,13.592 2.126 C 13.743 1.979,13.871 1.863,13.877 1.869 C 13.882 1.875,13.912 1.931,13.943 1.992 L 14.000 2.105 14.000 8.559 L 14.000 15.013 8.000 15.013 L 2.000 15.013 2.000 8.559 L 2.000 2.105 2.057 1.992 C 2.088 1.931,2.118 1.875,2.124 1.869 C 2.129 1.862,2.258 1.979,2.409 2.128 C 2.935 2.645,3.086 2.636,3.666 2.054 C 3.842 1.878,3.991 1.733,3.998 1.733 C 4.005 1.733,4.162 1.883,4.346 2.065 M3.290 4.051 C 3.132 4.123,3.033 4.264,3.019 4.441 C 3.003 4.628,3.023 4.699,3.124 4.814 C 3.301 5.016,3.018 5.000,6.453 5.000 C 8.147 5.000,9.578 4.990,9.634 4.979 C 9.767 4.951,9.932 4.791,9.974 4.649 C 10.045 4.409,9.916 4.131,9.688 4.036 C 9.617 4.006,9.042 4.000,6.501 4.001 C 3.530 4.001,3.395 4.003,3.290 4.051 M11.290 4.051 C 11.132 4.123,11.033 4.264,11.019 4.441 C 11.003 4.628,11.023 4.699,11.124 4.814 C 11.284 4.996,11.302 5.000,12.000 5.000 C 12.608 5.000,12.630 4.998,12.736 4.938 C 12.796 4.903,12.877 4.825,12.918 4.764 C 12.982 4.666,12.989 4.633,12.981 4.477 C 12.974 4.333,12.958 4.283,12.896 4.201 C 12.756 4.018,12.681 4.001,12.000 4.001 C 11.471 4.001,11.387 4.007,11.290 4.051 M3.290 6.051 C 3.132 6.123,3.033 6.264,3.019 6.441 C 3.003 6.628,3.023 6.699,3.124 6.814 C 3.301 7.016,3.018 7.000,6.453 7.000 C 8.147 7.000,9.578 6.990,9.634 6.979 C 9.767 6.951,9.932 6.791,9.974 6.649 C 10.045 6.409,9.916 6.131,9.688 6.036 C 9.617 6.006,9.042 6.000,6.501 6.001 C 3.530 6.001,3.395 6.003,3.290 6.051 M11.290 6.051 C 11.132 6.123,11.033 6.264,11.019 6.441 C 11.003 6.628,11.023 6.699,11.124 6.814 C 11.284 6.996,11.302 7.000,12.000 7.000 C 12.608 7.000,12.630 6.998,12.736 6.938 C 12.796 6.903,12.877 6.825,12.918 6.764 C 12.982 6.666,12.989 6.633,12.981 6.477 C 12.974 6.333,12.958 6.283,12.896 6.201 C 12.756 6.018,12.681 6.001,12.000 6.001 C 11.471 6.001,11.387 6.007,11.290 6.051 M3.290 8.051 C 3.132 8.123,3.033 8.264,3.019 8.441 C 3.003 8.628,3.023 8.699,3.124 8.814 C 3.301 9.016,3.018 9.000,6.453 9.000 C 8.147 9.000,9.578 8.990,9.634 8.979 C 9.767 8.951,9.932 8.791,9.974 8.649 C 10.045 8.409,9.916 8.131,9.688 8.036 C 9.617 8.006,9.042 8.000,6.501 8.001 C 3.530 8.001,3.395 8.003,3.290 8.051 M11.290 8.051 C 11.132 8.123,11.033 8.264,11.019 8.441 C 11.003 8.628,11.023 8.699,11.124 8.814 C 11.284 8.996,11.302 9.000,12.000 9.000 C 12.608 9.000,12.630 8.998,12.736 8.938 C 12.796 8.903,12.877 8.825,12.918 8.764 C 12.982 8.666,12.989 8.633,12.981 8.477 C 12.974 8.333,12.958 8.283,12.896 8.201 C 12.756 8.018,12.681 8.001,12.000 8.001 C 11.471 8.001,11.387 8.007,11.290 8.051 M3.290 10.051 C 3.132 10.123,3.033 10.264,3.019 10.441 C 3.003 10.628,3.023 10.699,3.124 10.814 C 3.301 11.016,3.018 11.000,6.453 11.000 C 8.147 11.000,9.578 10.990,9.634 10.979 C 9.767 10.951,9.932 10.791,9.974 10.649 C 10.045 10.409,9.916 10.131,9.688 10.036 C 9.617 10.006,9.042 10.000,6.501 10.001 C 3.530 10.001,3.395 10.003,3.290 10.051 M11.290 10.051 C 11.132 10.123,11.033 10.264,11.019 10.441 C 11.003 10.628,11.023 10.699,11.124 10.814 C 11.284 10.996,11.302 11.000,12.000 11.000 C 12.608 11.000,12.630 10.998,12.736 10.938 C 12.796 10.903,12.877 10.825,12.918 10.764 C 12.982 10.666,12.989 10.633,12.981 10.477 C 12.974 10.333,12.958 10.283,12.896 10.201 C 12.756 10.018,12.681 10.001,12.000 10.001 C 11.471 10.001,11.387 10.007,11.290 10.051 M3.290 12.051 C 3.132 12.123,3.033 12.264,3.019 12.441 C 3.003 12.628,3.023 12.699,3.124 12.814 C 3.301 13.016,3.018 13.000,6.453 13.000 C 8.147 13.000,9.578 12.990,9.634 12.979 C 9.767 12.951,9.932 12.791,9.974 12.649 C 10.045 12.409,9.916 12.131,9.688 12.036 C 9.617 12.006,9.042 12.000,6.501 12.001 C 3.530 12.001,3.395 12.003,3.290 12.051 M11.290 12.051 C 11.132 12.123,11.033 12.264,11.019 12.441 C 11.003 12.628,11.023 12.699,11.124 12.814 C 11.284 12.996,11.302 13.000,12.000 13.000 C 12.608 13.000,12.630 12.998,12.736 12.938 C 12.796 12.903,12.877 12.825,12.918 12.764 C 12.982 12.666,12.989 12.633,12.981 12.477 C 12.974 12.333,12.958 12.283,12.896 12.201 C 12.756 12.018,12.681 12.001,12.000 12.001 C 11.471 12.001,11.387 12.007,11.290 12.051 " stroke="none" fill="black" fill-rule="evenodd"></path></svg>