<svg width="1em" height="1em" viewBox="0 0 16 16" class="bi bi-rss" fill="currentColor" xmlns="http://www.w3.org/2000/svg"><path d="M1.600 0.042 C 0.952 0.181,0.407 0.629,0.157 1.226 C -0.010 1.625,0.000 1.207,0.000 8.000 C 0.000 14.793,-0.010 14.375,0.157 14.774 C 0.350 15.235,0.765 15.650,1.226 15.843 C 1.625 16.010,1.207 16.000,8.000 16.000 C 13.536 16.000,14.211 15.996,14.394 15.958 C 15.184 15.796,15.796 15.184,15.958 14.394 C 15.996 14.211,16.000 13.536,16.000 8.000 C 16.000 2.464,15.996 1.789,15.958 1.606 C 15.796 0.816,15.184 0.204,14.394 0.042 C 14.210 0.004,13.540 0.000,7.981 0.002 C 2.765 0.004,1.746 0.010,1.600 0.042 M14.428 1.099 C 14.616 1.192,14.808 1.384,14.901 1.572 L 14.973 1.720 14.980 7.946 C 14.986 13.403,14.982 14.188,14.947 14.309 C 14.867 14.586,14.586 14.864,14.296 14.954 C 14.156 14.997,13.759 15.000,8.000 15.000 C 2.241 15.000,1.844 14.997,1.704 14.954 C 1.422 14.866,1.158 14.612,1.063 14.338 C 1.018 14.207,1.015 13.880,1.014 7.994 C 1.013 1.932,1.015 1.784,1.065 1.652 C 1.162 1.395,1.389 1.166,1.645 1.066 C 1.769 1.017,1.962 1.016,8.027 1.021 L 14.280 1.027 14.428 1.099 M3.208 2.543 C 2.793 2.680,2.535 3.018,2.512 3.453 C 2.494 3.799,2.624 4.081,2.897 4.290 C 3.108 4.452,3.240 4.484,3.794 4.510 C 5.563 4.590,7.121 5.167,8.488 6.246 C 8.833 6.518,9.473 7.159,9.753 7.512 C 10.481 8.430,10.990 9.466,11.269 10.600 C 11.394 11.109,11.463 11.611,11.490 12.206 C 11.509 12.609,11.524 12.734,11.568 12.848 C 11.663 13.095,11.817 13.263,12.067 13.395 C 12.216 13.474,12.245 13.480,12.494 13.480 C 12.742 13.480,12.774 13.474,12.937 13.393 C 13.146 13.290,13.310 13.123,13.409 12.911 C 13.470 12.779,13.480 12.718,13.489 12.427 C 13.512 11.681,13.369 10.652,13.120 9.773 C 12.109 6.194,9.138 3.436,5.507 2.706 C 4.868 2.578,4.467 2.532,3.853 2.518 C 3.443 2.509,3.294 2.515,3.208 2.543 M3.208 6.543 C 2.793 6.680,2.535 7.018,2.512 7.453 C 2.494 7.799,2.624 8.081,2.897 8.290 C 3.088 8.437,3.251 8.483,3.667 8.508 C 4.114 8.536,4.395 8.587,4.759 8.706 C 5.940 9.092,6.892 10.042,7.289 11.229 C 7.412 11.596,7.464 11.880,7.492 12.333 C 7.508 12.600,7.530 12.747,7.569 12.848 C 7.663 13.094,7.816 13.262,8.067 13.395 C 8.216 13.474,8.245 13.480,8.494 13.480 C 8.742 13.480,8.774 13.474,8.937 13.393 C 9.146 13.290,9.310 13.122,9.408 12.911 C 9.466 12.787,9.480 12.711,9.489 12.485 C 9.526 11.542,9.197 10.340,8.658 9.442 C 7.737 7.911,6.253 6.890,4.507 6.588 C 4.079 6.513,3.371 6.489,3.208 6.543 M3.627 10.549 C 3.106 10.686,2.681 11.115,2.547 11.639 C 2.347 12.425,2.844 13.250,3.639 13.453 C 4.425 13.653,5.250 13.156,5.453 12.361 C 5.653 11.574,5.158 10.751,4.361 10.547 C 4.164 10.497,3.821 10.498,3.627 10.549 " stroke="none" fill="black" fill-rule="evenodd"></path></svg>