<svg width="1em" height="1em" viewBox="0 0 16 16" class="bi bi-share" fill="currentColor" xmlns="http://www.w3.org/2000/svg"><path d="M13.009 0.051 C 12.073 0.255,11.405 0.865,11.106 1.787 C 11.044 1.979,11.031 2.071,11.021 2.400 C 11.012 2.675,11.020 2.839,11.047 2.969 L 11.085 3.151 7.777 4.805 L 4.469 6.459 4.361 6.331 C 4.092 6.012,3.579 5.701,3.126 5.582 C 2.801 5.496,2.258 5.484,1.967 5.555 C 1.502 5.669,1.098 5.889,0.764 6.210 C 0.431 6.531,0.201 6.924,0.076 7.387 C -0.012 7.712,-0.012 8.287,0.075 8.612 C 0.240 9.221,0.606 9.733,1.122 10.079 C 1.547 10.363,1.973 10.489,2.507 10.489 C 3.198 10.488,3.804 10.234,4.286 9.742 L 4.478 9.546 7.782 11.198 L 11.087 12.850 11.048 13.018 C 11.018 13.143,11.011 13.291,11.020 13.587 C 11.034 14.032,11.089 14.259,11.273 14.627 C 11.712 15.505,12.668 16.053,13.651 15.991 C 14.910 15.913,15.913 14.910,15.991 13.651 C 16.043 12.834,15.660 12.000,15.006 11.505 C 14.805 11.352,14.375 11.144,14.120 11.076 C 13.831 10.999,13.128 11.005,12.846 11.087 C 12.401 11.216,12.055 11.420,11.728 11.746 L 11.525 11.949 8.227 10.301 L 4.929 8.653 4.951 8.520 C 4.980 8.348,4.980 7.652,4.951 7.480 L 4.929 7.347 8.227 5.699 L 11.525 4.051 11.728 4.254 C 12.055 4.580,12.401 4.784,12.846 4.913 C 13.127 4.994,13.831 5.000,14.120 4.924 C 14.368 4.858,14.802 4.648,15.007 4.494 C 15.658 4.005,16.043 3.166,15.991 2.349 C 15.924 1.271,15.166 0.351,14.120 0.078 C 13.808 -0.003,13.311 -0.015,13.009 0.051 M13.895 1.056 C 14.401 1.205,14.795 1.599,14.944 2.105 C 14.998 2.287,14.999 2.683,14.947 2.879 C 14.763 3.570,14.088 4.052,13.388 3.992 C 12.653 3.928,12.071 3.352,12.009 2.626 C 11.949 1.926,12.409 1.256,13.080 1.063 C 13.291 1.003,13.701 0.999,13.895 1.056 M2.865 6.547 C 3.608 6.741,4.089 7.462,3.979 8.217 C 3.856 9.065,3.028 9.639,2.181 9.464 C 1.664 9.357,1.189 8.902,1.054 8.386 C 1.002 8.185,1.002 7.815,1.054 7.614 C 1.185 7.112,1.637 6.667,2.141 6.545 C 2.335 6.498,2.679 6.499,2.865 6.547 M13.816 12.038 C 14.355 12.152,14.804 12.583,14.947 13.121 C 15.000 13.317,14.998 13.713,14.944 13.895 C 14.794 14.401,14.398 14.796,13.895 14.944 C 13.713 14.998,13.317 14.999,13.121 14.947 C 12.422 14.761,11.948 14.090,12.009 13.374 C 12.059 12.789,12.474 12.261,13.022 12.083 C 13.303 11.992,13.535 11.979,13.816 12.038 " stroke="none" fill="black" fill-rule="evenodd"></path></svg>