<svg width="1em" height="1em" viewBox="0 0 16 16" class="bi bi-shield-fill-check" fill="currentColor" xmlns="http://www.w3.org/2000/svg"><path d="M7.311 0.561 C 6.352 0.706,4.813 1.099,2.960 1.670 C 2.226 1.896,2.041 1.984,1.815 2.213 C 1.541 2.492,1.441 2.748,1.375 3.333 C 1.243 4.511,1.247 5.584,1.388 6.659 C 1.797 9.796,3.431 12.614,5.926 14.488 C 6.491 14.912,7.112 15.265,7.560 15.417 C 7.835 15.510,8.178 15.506,8.467 15.407 C 9.387 15.090,10.725 14.099,11.689 13.018 C 12.825 11.745,13.623 10.358,14.144 8.755 C 14.675 7.119,14.841 5.252,14.625 3.333 C 14.578 2.914,14.534 2.740,14.418 2.522 C 14.311 2.320,14.054 2.063,13.851 1.955 C 13.477 1.756,10.610 0.938,9.440 0.696 C 8.495 0.501,7.940 0.466,7.311 0.561 M10.710 6.051 C 10.987 6.177,11.078 6.534,10.899 6.792 C 10.860 6.848,10.147 7.574,9.314 8.405 C 8.270 9.448,7.769 9.930,7.701 9.959 C 7.569 10.013,7.424 10.010,7.293 9.949 C 7.224 9.916,6.903 9.614,6.369 9.076 C 5.650 8.353,5.547 8.239,5.520 8.137 C 5.420 7.756,5.756 7.420,6.137 7.520 C 6.238 7.547,6.336 7.634,6.873 8.168 L 7.493 8.785 8.847 7.434 C 9.697 6.585,10.235 6.068,10.293 6.042 C 10.420 5.988,10.578 5.991,10.710 6.051 " stroke="none" fill="black" fill-rule="evenodd"></path></svg>