<svg width="1em" height="1em" viewBox="0 0 16 16" class="bi bi-shield-shaded" fill="currentColor" xmlns="http://www.w3.org/2000/svg"><path d="M7.311 0.561 C 6.850 0.631,6.504 0.702,5.827 0.866 C 4.474 1.195,2.431 1.803,2.137 1.966 C 1.818 2.142,1.556 2.473,1.457 2.827 C 1.409 2.995,1.347 3.517,1.308 4.080 C 1.017 8.226,2.731 12.089,5.926 14.488 C 6.480 14.904,7.114 15.264,7.560 15.416 C 7.834 15.510,8.177 15.506,8.467 15.407 C 9.387 15.090,10.725 14.099,11.689 13.018 C 12.825 11.745,13.623 10.358,14.144 8.755 C 14.675 7.119,14.841 5.252,14.625 3.333 C 14.603 3.135,14.566 2.907,14.543 2.827 C 14.444 2.474,14.182 2.142,13.863 1.965 C 13.499 1.763,10.660 0.949,9.440 0.696 C 8.495 0.501,7.940 0.466,7.311 0.561 M8.762 1.587 C 9.462 1.705,10.377 1.929,11.600 2.283 C 12.550 2.558,13.313 2.800,13.405 2.857 C 13.540 2.940,13.592 3.086,13.640 3.520 C 13.880 5.725,13.581 7.759,12.744 9.609 C 11.901 11.474,10.372 13.227,8.790 14.145 C 8.352 14.399,8.128 14.488,7.961 14.474 C 7.681 14.451,6.878 13.983,6.240 13.471 C 4.835 12.343,3.712 10.807,3.032 9.080 C 2.368 7.397,2.137 5.469,2.362 3.493 C 2.408 3.088,2.463 2.938,2.595 2.857 C 2.801 2.730,5.197 2.036,6.329 1.775 C 7.607 1.480,7.965 1.452,8.762 1.587 M8.000 7.869 C 8.000 12.507,8.006 13.493,8.035 13.493 C 8.118 13.493,8.377 13.399,8.600 13.287 C 8.901 13.136,9.283 12.885,9.634 12.608 C 9.985 12.331,10.724 11.589,11.023 11.213 C 11.903 10.109,12.518 8.797,12.797 7.425 C 12.952 6.666,12.972 6.444,12.973 5.453 C 12.973 4.484,12.942 4.072,12.849 3.821 C 12.785 3.649,12.606 3.447,12.436 3.354 C 12.208 3.230,10.272 2.668,9.376 2.465 C 8.932 2.365,8.423 2.278,8.167 2.258 L 8.000 2.245 8.000 7.869 " stroke="none" fill="black" fill-rule="evenodd"></path></svg>