<svg width="1em" height="1em" viewBox="0 0 16 16" class="bi bi-shield-lock-fill" fill="currentColor" xmlns="http://www.w3.org/2000/svg"><path d="M7.311 0.561 C 7.130 0.589,6.854 0.636,6.698 0.667 C 5.528 0.898,2.515 1.756,2.137 1.966 C 1.818 2.142,1.556 2.473,1.457 2.827 C 1.409 2.995,1.347 3.517,1.308 4.080 C 1.017 8.226,2.731 12.089,5.926 14.488 C 6.480 14.904,7.114 15.264,7.560 15.416 C 7.834 15.510,8.177 15.506,8.467 15.407 C 9.387 15.090,10.725 14.099,11.689 13.018 C 13.383 11.119,14.378 8.872,14.654 6.320 C 14.713 5.779,14.734 4.698,14.696 4.147 C 14.655 3.535,14.593 3.004,14.543 2.827 C 14.444 2.474,14.164 2.121,13.851 1.955 C 13.477 1.756,10.610 0.938,9.440 0.696 C 8.495 0.501,7.940 0.466,7.311 0.561 M8.386 5.054 C 8.894 5.187,9.319 5.621,9.453 6.146 C 9.616 6.784,9.290 7.518,8.711 7.814 C 8.539 7.902,8.530 7.911,8.543 7.987 C 8.550 8.031,8.636 8.523,8.733 9.080 C 8.858 9.790,8.906 10.125,8.894 10.200 C 8.873 10.332,8.794 10.451,8.671 10.536 C 8.581 10.598,8.557 10.600,8.042 10.609 C 7.711 10.614,7.470 10.606,7.410 10.588 C 7.289 10.553,7.134 10.385,7.092 10.245 C 7.063 10.151,7.081 10.023,7.250 9.063 C 7.355 8.471,7.440 7.966,7.440 7.941 C 7.440 7.913,7.377 7.863,7.273 7.808 C 6.942 7.633,6.648 7.250,6.547 6.865 C 6.500 6.682,6.495 6.381,6.536 6.181 C 6.642 5.671,7.095 5.192,7.603 5.055 C 7.795 5.004,8.190 5.003,8.386 5.054 " stroke="none" fill="black" fill-rule="evenodd"></path></svg>