<svg width="1em" height="1em" viewBox="0 0 16 16" class="bi bi-shield-check" fill="currentColor" xmlns="http://www.w3.org/2000/svg"><path d="M7.311 0.561 C 6.850 0.631,6.504 0.702,5.827 0.866 C 4.474 1.195,2.431 1.803,2.137 1.966 C 1.818 2.142,1.556 2.473,1.457 2.827 C 1.409 2.995,1.347 3.517,1.308 4.080 C 1.017 8.226,2.731 12.089,5.926 14.488 C 6.480 14.904,7.114 15.264,7.560 15.416 C 7.834 15.510,8.177 15.506,8.467 15.407 C 9.387 15.090,10.725 14.099,11.689 13.018 C 12.825 11.745,13.623 10.358,14.144 8.755 C 14.675 7.119,14.841 5.252,14.625 3.333 C 14.603 3.135,14.566 2.907,14.543 2.827 C 14.444 2.474,14.182 2.142,13.863 1.965 C 13.499 1.763,10.660 0.949,9.440 0.696 C 8.495 0.501,7.940 0.466,7.311 0.561 M8.762 1.587 C 9.462 1.705,10.377 1.929,11.600 2.283 C 12.550 2.558,13.313 2.800,13.405 2.857 C 13.540 2.940,13.592 3.086,13.640 3.520 C 13.880 5.725,13.581 7.759,12.744 9.609 C 11.901 11.474,10.372 13.227,8.790 14.145 C 8.352 14.399,8.128 14.488,7.961 14.474 C 7.681 14.451,6.878 13.983,6.240 13.471 C 4.835 12.343,3.712 10.807,3.032 9.080 C 2.368 7.397,2.137 5.469,2.362 3.493 C 2.408 3.088,2.463 2.938,2.595 2.857 C 2.801 2.730,5.197 2.036,6.329 1.775 C 7.607 1.480,7.965 1.452,8.762 1.587 M10.293 6.042 C 10.235 6.068,9.697 6.585,8.847 7.434 L 7.493 8.785 6.873 8.168 C 6.336 7.634,6.238 7.547,6.137 7.520 C 5.756 7.420,5.420 7.756,5.520 8.137 C 5.547 8.239,5.650 8.353,6.369 9.076 C 6.903 9.614,7.224 9.916,7.293 9.949 C 7.424 10.010,7.569 10.013,7.701 9.959 C 7.769 9.930,8.270 9.448,9.314 8.405 C 10.147 7.574,10.860 6.848,10.899 6.792 C 10.983 6.671,11.011 6.531,10.980 6.387 C 10.916 6.090,10.577 5.920,10.293 6.042 " stroke="none" fill="black" fill-rule="evenodd"></path></svg>