<svg width="1em" height="1em" viewBox="0 0 16 16" class="bi bi-sort-numeric-down-alt" fill="currentColor" xmlns="http://www.w3.org/2000/svg"><path d="M10.924 1.615 C 10.194 1.778,9.687 2.253,9.517 2.933 C 9.463 3.147,9.471 3.702,9.531 3.920 C 9.609 4.207,9.767 4.479,9.968 4.672 C 10.299 4.991,10.605 5.118,11.093 5.139 C 11.456 5.155,11.682 5.112,11.929 4.980 C 12.117 4.880,12.315 4.688,12.388 4.535 C 12.417 4.476,12.457 4.427,12.477 4.427 C 12.508 4.427,12.512 4.480,12.499 4.727 C 12.462 5.470,12.212 5.985,11.792 6.182 C 11.659 6.244,11.607 6.253,11.373 6.253 C 11.151 6.253,11.084 6.243,10.967 6.190 C 10.824 6.125,10.613 5.926,10.613 5.854 C 10.613 5.819,10.542 5.813,10.104 5.813 L 9.595 5.813 9.613 5.927 C 9.623 5.989,9.672 6.128,9.722 6.236 C 9.849 6.508,10.073 6.729,10.373 6.875 C 10.679 7.025,10.859 7.068,11.253 7.085 C 12.456 7.138,13.185 6.507,13.431 5.200 C 13.500 4.835,13.500 3.690,13.432 3.353 C 13.324 2.818,13.138 2.423,12.853 2.123 C 12.642 1.901,12.417 1.759,12.120 1.662 C 11.937 1.602,11.851 1.591,11.507 1.584 C 11.217 1.577,11.056 1.586,10.924 1.615 M3.799 2.050 C 3.667 2.110,3.558 2.235,3.521 2.367 C 3.503 2.434,3.494 4.080,3.493 7.373 L 3.493 12.280 2.900 11.689 C 2.574 11.364,2.266 11.078,2.215 11.053 C 2.005 10.947,1.714 11.029,1.580 11.231 C 1.522 11.319,1.508 11.372,1.508 11.491 C 1.509 11.573,1.527 11.673,1.549 11.714 C 1.612 11.831,3.710 13.921,3.806 13.963 C 3.916 14.010,4.085 14.010,4.194 13.963 C 4.243 13.942,4.752 13.451,5.365 12.836 C 6.333 11.863,6.452 11.734,6.480 11.629 C 6.587 11.223,6.157 10.867,5.785 11.053 C 5.734 11.078,5.426 11.364,5.100 11.689 L 4.507 12.280 4.507 7.373 C 4.506 4.080,4.497 2.434,4.479 2.367 C 4.423 2.167,4.207 2.001,4.000 2.001 C 3.949 2.001,3.858 2.023,3.799 2.050 M11.587 2.402 C 11.902 2.461,12.124 2.631,12.259 2.920 C 12.327 3.066,12.333 3.107,12.333 3.387 C 12.333 3.663,12.326 3.708,12.263 3.844 C 12.086 4.221,11.695 4.415,11.255 4.345 C 10.600 4.240,10.291 3.522,10.616 2.859 C 10.752 2.580,11.028 2.408,11.388 2.377 C 11.411 2.375,11.501 2.386,11.587 2.402 M10.781 9.102 C 10.455 9.339,10.175 9.546,10.160 9.562 C 10.142 9.580,10.135 9.760,10.139 10.062 L 10.147 10.533 10.744 10.107 C 11.073 9.872,11.352 9.680,11.364 9.680 C 11.377 9.680,11.387 10.652,11.387 11.840 L 11.387 14.000 11.907 14.000 L 12.427 14.000 12.427 11.333 L 12.427 8.667 11.900 8.669 L 11.373 8.672 10.781 9.102 " stroke="none" fill="black" fill-rule="evenodd"></path></svg>