<svg width="1em" height="1em" viewBox="0 0 16 16" class="bi bi-sort-alpha-up" fill="currentColor" xmlns="http://www.w3.org/2000/svg"><path d="M9.498 4.315 C 9.011 5.764,8.613 6.965,8.613 6.982 C 8.613 7.007,8.742 7.013,9.139 7.007 L 9.664 7.000 9.819 6.493 C 9.904 6.215,9.998 5.906,10.028 5.807 L 10.082 5.627 10.973 5.627 L 11.864 5.627 11.919 5.808 C 11.948 5.908,12.042 6.217,12.127 6.495 L 12.281 7.000 12.834 7.007 C 13.285 7.013,13.387 7.008,13.387 6.978 C 13.387 6.949,12.603 4.593,11.781 2.153 L 11.622 1.680 11.002 1.680 L 10.382 1.680 9.498 4.315 M3.800 2.038 C 3.707 2.080,1.608 4.176,1.549 4.286 C 1.527 4.327,1.509 4.427,1.508 4.509 C 1.507 4.786,1.713 4.987,2.000 4.987 C 2.075 4.987,2.174 4.967,2.221 4.944 C 2.268 4.921,2.574 4.636,2.900 4.311 L 3.493 3.720 3.493 8.627 C 3.494 11.920,3.503 13.566,3.521 13.633 C 3.577 13.833,3.793 13.999,4.000 13.999 C 4.207 13.999,4.423 13.833,4.479 13.633 C 4.497 13.566,4.506 11.920,4.507 8.627 L 4.507 3.720 5.100 4.311 C 5.426 4.636,5.734 4.922,5.785 4.947 C 5.995 5.053,6.286 4.971,6.420 4.769 C 6.478 4.681,6.492 4.628,6.492 4.509 C 6.491 4.427,6.473 4.327,6.451 4.286 C 6.388 4.169,4.290 2.079,4.194 2.037 C 4.086 1.991,3.905 1.991,3.800 2.038 M11.318 3.740 C 11.492 4.316,11.639 4.802,11.646 4.820 C 11.656 4.846,11.514 4.853,10.990 4.853 C 10.442 4.853,10.320 4.847,10.320 4.817 C 10.320 4.779,10.929 2.749,10.951 2.713 C 10.958 2.702,10.972 2.693,10.983 2.693 C 10.994 2.693,11.145 3.164,11.318 3.740 M9.099 9.100 L 9.107 9.533 10.353 9.540 C 11.097 9.544,11.600 9.557,11.600 9.572 C 11.600 9.586,11.024 10.428,10.320 11.443 L 9.040 13.290 9.040 13.645 L 9.040 14.000 11.000 14.000 L 12.960 14.000 12.960 13.560 L 12.960 13.120 11.638 13.120 C 10.570 13.120,10.318 13.113,10.325 13.086 C 10.329 13.067,10.906 12.221,11.607 11.207 L 12.880 9.363 12.880 9.015 L 12.880 8.667 10.986 8.667 L 9.092 8.667 9.099 9.100 " stroke="none" fill="black" fill-rule="evenodd"></path></svg>