<svg width="1em" height="1em" viewBox="0 0 16 16" class="bi bi-spellcheck" fill="currentColor" xmlns="http://www.w3.org/2000/svg"><path d="M5.387 7.494 L 5.387 11.014 6.020 11.007 L 6.653 11.000 6.661 10.607 C 6.665 10.390,6.679 10.213,6.692 10.213 C 6.704 10.213,6.753 10.281,6.800 10.364 C 7.062 10.829,7.646 11.094,8.333 11.059 C 9.265 11.012,9.886 10.452,10.098 9.466 C 10.139 9.274,10.147 9.113,10.147 8.400 C 10.147 7.528,10.138 7.433,10.022 7.067 C 9.813 6.410,9.355 5.961,8.744 5.814 C 8.288 5.705,7.709 5.763,7.350 5.954 C 7.118 6.078,6.902 6.288,6.810 6.479 C 6.768 6.567,6.718 6.639,6.700 6.640 C 6.674 6.640,6.667 6.356,6.667 5.307 L 6.667 3.973 6.027 3.973 L 5.387 3.973 5.387 7.494 M2.307 5.764 C 1.455 5.872,0.895 6.309,0.734 6.989 C 0.712 7.083,0.694 7.187,0.694 7.221 L 0.693 7.281 1.298 7.274 L 1.902 7.267 1.932 7.177 C 1.980 7.034,2.129 6.879,2.291 6.803 C 2.425 6.740,2.471 6.733,2.747 6.734 C 3.084 6.734,3.240 6.780,3.396 6.928 C 3.553 7.078,3.584 7.179,3.595 7.580 L 3.605 7.947 2.916 7.947 C 2.537 7.947,2.119 7.960,1.987 7.976 C 1.041 8.092,0.509 8.639,0.507 9.499 C 0.507 9.803,0.543 9.967,0.669 10.231 C 0.808 10.524,1.013 10.729,1.312 10.874 C 1.598 11.014,1.844 11.067,2.208 11.067 C 2.794 11.067,3.225 10.878,3.500 10.501 C 3.561 10.416,3.627 10.347,3.646 10.347 C 3.672 10.347,3.680 10.428,3.680 10.680 L 3.680 11.013 4.280 11.013 L 4.880 11.013 4.880 9.146 C 4.880 7.068,4.878 7.039,4.705 6.670 C 4.578 6.399,4.303 6.125,4.027 5.992 C 3.566 5.772,2.920 5.686,2.307 5.764 M12.393 5.774 C 11.837 5.879,11.323 6.198,11.040 6.613 C 10.698 7.117,10.592 7.630,10.622 8.626 C 10.645 9.398,10.750 9.796,11.038 10.205 C 11.155 10.372,11.471 10.695,11.515 10.692 C 11.535 10.691,12.220 9.833,12.234 9.792 C 12.238 9.779,12.200 9.705,12.148 9.629 C 11.969 9.362,11.939 9.212,11.926 8.512 C 11.919 8.115,11.926 7.828,11.945 7.716 C 12.041 7.170,12.342 6.839,12.803 6.773 C 13.110 6.729,13.404 6.806,13.607 6.985 C 13.713 7.078,13.828 7.281,13.854 7.420 L 13.873 7.520 14.470 7.520 C 15.158 7.520,15.095 7.556,15.026 7.206 C 14.968 6.914,14.806 6.596,14.606 6.383 C 14.334 6.092,14.053 5.929,13.613 5.808 C 13.359 5.737,12.685 5.719,12.393 5.774 M8.031 6.810 C 8.425 6.902,8.668 7.176,8.792 7.667 C 8.860 7.937,8.860 8.922,8.792 9.173 C 8.620 9.806,8.208 10.109,7.631 10.027 C 7.278 9.977,6.993 9.771,6.832 9.449 C 6.699 9.183,6.680 9.055,6.680 8.413 C 6.680 7.778,6.703 7.628,6.842 7.341 C 7.050 6.913,7.539 6.694,8.031 6.810 M3.600 9.089 C 3.600 9.447,3.598 9.463,3.519 9.621 C 3.389 9.881,3.160 10.043,2.831 10.108 C 2.413 10.190,2.008 10.033,1.856 9.729 C 1.724 9.464,1.775 9.133,1.977 8.941 C 2.167 8.760,2.331 8.727,3.060 8.723 L 3.600 8.720 3.600 9.089 M13.749 9.295 C 13.692 9.316,13.604 9.365,13.553 9.403 C 13.503 9.442,12.670 10.463,11.701 11.673 L 9.941 13.873 8.937 12.873 C 8.277 12.214,7.892 11.851,7.813 11.810 C 7.644 11.722,7.317 11.721,7.154 11.807 C 6.889 11.948,6.742 12.185,6.740 12.475 C 6.738 12.810,6.707 12.771,8.208 14.272 C 9.707 15.771,9.670 15.741,10.004 15.741 C 10.146 15.741,10.215 15.726,10.334 15.667 C 10.480 15.596,10.551 15.511,12.574 12.983 C 14.143 11.021,14.673 10.341,14.704 10.248 C 14.800 9.968,14.734 9.691,14.522 9.478 C 14.312 9.269,14.014 9.198,13.749 9.295 " stroke="none" fill="black" fill-rule="evenodd"></path></svg>