<svg width="1em" height="1em" viewBox="0 0 16 16" class="bi bi-sticky" fill="currentColor" xmlns="http://www.w3.org/2000/svg"><path d="M2.079 1.063 C 1.575 1.225,1.208 1.601,1.049 2.120 C 1.002 2.273,1.000 2.522,1.000 8.000 C 1.000 13.478,1.002 13.727,1.049 13.880 C 1.213 14.413,1.587 14.787,2.120 14.951 C 2.272 14.997,2.450 15.000,5.533 15.000 C 8.560 15.000,8.799 14.997,8.957 14.953 C 9.361 14.841,9.236 14.955,12.095 12.095 C 14.955 9.236,14.841 9.361,14.953 8.957 C 14.997 8.799,15.000 8.560,15.000 5.533 C 15.000 2.450,14.997 2.272,14.951 2.120 C 14.793 1.606,14.449 1.243,13.964 1.081 L 13.764 1.013 7.995 1.015 C 2.553 1.016,2.218 1.019,2.079 1.063 M13.654 2.026 C 13.772 2.059,13.939 2.227,13.974 2.348 C 13.990 2.406,14.000 3.473,14.000 5.219 L 14.000 7.998 11.593 8.006 L 9.187 8.014 9.021 8.076 C 8.585 8.238,8.238 8.585,8.076 9.021 L 8.014 9.187 8.006 11.593 L 7.998 14.000 5.219 14.000 C 3.482 14.000,2.405 13.990,2.346 13.974 C 2.239 13.944,2.070 13.784,2.028 13.672 C 2.009 13.620,2.000 11.875,2.000 7.997 C 2.000 1.907,1.990 2.309,2.150 2.150 C 2.307 1.992,1.913 2.002,7.973 2.001 C 11.551 2.001,13.594 2.010,13.654 2.026 M11.400 11.387 L 9.027 13.760 9.019 11.580 C 9.015 10.381,9.018 9.374,9.026 9.342 C 9.045 9.265,9.165 9.124,9.266 9.063 C 9.343 9.016,9.451 9.014,11.560 9.013 L 13.773 9.013 11.400 11.387 " stroke="none" fill="black" fill-rule="evenodd"></path></svg>