<svg width="1em" height="1em" viewBox="0 0 16 16" class="bi bi-stickies" fill="currentColor" xmlns="http://www.w3.org/2000/svg"><path d="M1.253 0.018 C 1.093 0.045,0.845 0.144,0.702 0.238 C 0.406 0.431,0.188 0.709,0.075 1.035 L 0.013 1.213 0.013 7.227 L 0.013 13.240 0.088 13.400 C 0.233 13.712,0.545 13.945,0.873 13.988 L 1.013 14.007 1.013 7.682 C 1.013 3.058,1.021 1.341,1.043 1.298 C 1.060 1.266,1.105 1.206,1.143 1.164 C 1.294 1.002,0.784 1.013,7.682 1.013 L 14.007 1.013 13.989 0.873 C 13.947 0.546,13.723 0.244,13.413 0.096 L 13.240 0.013 7.280 0.010 C 4.002 0.008,1.290 0.012,1.253 0.018 M3.253 2.018 C 3.093 2.045,2.845 2.144,2.702 2.238 C 2.406 2.431,2.188 2.709,2.075 3.035 L 2.013 3.213 2.013 9.000 L 2.013 14.787 2.075 14.965 C 2.229 15.411,2.595 15.776,3.038 15.927 L 3.213 15.987 6.459 15.994 C 10.030 16.002,9.900 16.007,10.260 15.839 C 10.430 15.759,10.588 15.607,13.096 13.097 C 15.574 10.617,15.757 10.428,15.837 10.261 C 16.007 9.905,16.002 10.036,15.994 6.459 L 15.987 3.213 15.927 3.038 C 15.775 2.592,15.408 2.225,14.962 2.073 L 14.787 2.013 9.053 2.010 C 5.900 2.008,3.290 2.012,3.253 2.018 M14.702 3.043 C 14.788 3.087,14.906 3.203,14.949 3.285 C 14.981 3.346,14.987 3.803,14.987 6.185 L 14.987 9.013 12.618 9.013 C 9.995 9.013,10.140 9.004,9.785 9.190 C 9.456 9.362,9.183 9.702,9.050 10.107 C 9.006 10.243,9.001 10.424,8.993 12.634 L 8.984 15.015 6.179 15.007 C 3.623 15.001,3.366 14.996,3.293 14.956 C 3.203 14.906,3.088 14.789,3.043 14.702 C 3.021 14.659,3.013 13.120,3.013 9.000 C 3.013 4.195,3.019 3.347,3.051 3.285 C 3.092 3.207,3.208 3.091,3.293 3.044 C 3.370 3.002,14.619 3.001,14.702 3.043 M12.400 12.387 L 10.013 14.773 10.006 12.607 C 10.000 11.191,10.007 10.407,10.025 10.346 C 10.057 10.236,10.192 10.087,10.307 10.037 C 10.371 10.009,10.829 10.002,12.587 10.001 L 14.787 10.000 12.400 12.387 " stroke="none" fill="black" fill-rule="evenodd"></path></svg>