<svg width="1em" height="1em" viewBox="0 0 16 16" class="bi bi-sticky-fill" fill="currentColor" xmlns="http://www.w3.org/2000/svg"><path d="M2.079 1.063 C 1.575 1.225,1.208 1.601,1.049 2.120 C 1.002 2.273,1.000 2.522,1.000 8.000 C 1.000 13.478,1.002 13.727,1.049 13.880 C 1.212 14.411,1.589 14.788,2.120 14.951 C 2.272 14.997,2.450 15.000,5.533 15.000 C 8.560 15.000,8.799 14.997,8.957 14.953 C 9.361 14.841,9.236 14.955,12.095 12.095 C 14.955 9.236,14.841 9.361,14.953 8.957 C 14.997 8.799,15.000 8.560,15.000 5.533 C 15.000 2.450,14.997 2.272,14.951 2.120 C 14.793 1.606,14.449 1.243,13.964 1.081 L 13.764 1.013 7.995 1.015 C 2.553 1.016,2.218 1.019,2.079 1.063 M11.760 8.708 C 12.970 8.820,13.981 8.919,14.007 8.929 C 14.044 8.943,13.505 9.496,11.460 11.540 L 8.866 14.133 8.752 14.133 C 8.666 14.133,8.621 14.117,8.572 14.067 L 8.506 14.001 8.513 11.621 L 8.520 9.240 8.589 9.092 C 8.750 8.750,9.098 8.511,9.440 8.507 C 9.506 8.507,10.550 8.597,11.760 8.708 " stroke="none" fill="black" fill-rule="evenodd"></path></svg>