<svg width="1em" height="1em" viewBox="0 0 16 16" class="bi bi-stop" fill="currentColor" xmlns="http://www.w3.org/2000/svg"><path d="M4.693 3.535 C 4.115 3.659,3.656 4.124,3.533 4.707 C 3.475 4.986,3.475 11.014,3.533 11.293 C 3.648 11.841,4.052 12.276,4.600 12.444 C 4.752 12.491,4.931 12.493,8.000 12.493 L 11.240 12.493 11.427 12.434 C 11.922 12.278,12.290 11.904,12.444 11.400 C 12.491 11.248,12.493 11.069,12.493 8.000 C 12.493 4.931,12.491 4.752,12.444 4.600 C 12.276 4.050,11.843 3.649,11.293 3.533 C 11.022 3.477,4.958 3.478,4.693 3.535 M11.208 4.550 C 11.329 4.611,11.385 4.666,11.443 4.779 C 11.492 4.874,11.493 4.989,11.493 8.000 C 11.493 11.011,11.492 11.126,11.443 11.221 C 11.385 11.334,11.329 11.389,11.208 11.450 C 11.131 11.489,10.826 11.493,8.000 11.493 C 5.174 11.493,4.869 11.489,4.792 11.450 C 4.671 11.389,4.615 11.334,4.557 11.221 C 4.508 11.126,4.507 11.011,4.507 8.000 C 4.507 4.989,4.508 4.874,4.557 4.779 C 4.614 4.668,4.669 4.613,4.787 4.551 C 4.858 4.513,5.192 4.509,7.995 4.508 C 10.827 4.507,11.131 4.511,11.208 4.550 " stroke="none" fill="black" fill-rule="evenodd"></path></svg>