<svg width="1em" height="1em" viewBox="0 0 16 16" class="bi bi-stoplights" fill="currentColor" xmlns="http://www.w3.org/2000/svg"><path d="M5.600 0.042 C 4.952 0.181,4.407 0.629,4.157 1.226 C 4.079 1.414,4.000 1.753,4.000 1.905 L 4.000 1.999 3.001 2.006 L 2.001 2.013 2.091 2.220 C 2.291 2.679,2.719 3.215,3.142 3.534 C 3.356 3.696,3.799 3.943,3.940 3.979 L 4.000 3.995 4.000 4.997 L 4.000 5.999 3.001 6.006 L 2.001 6.013 2.091 6.220 C 2.291 6.679,2.719 7.215,3.142 7.534 C 3.356 7.696,3.799 7.943,3.940 7.979 L 4.000 7.995 4.000 8.997 L 4.000 9.999 3.001 10.006 L 2.001 10.013 2.091 10.220 C 2.291 10.679,2.719 11.215,3.142 11.534 C 3.356 11.696,3.799 11.943,3.940 11.979 C 4.000 11.995,4.000 11.996,4.000 12.582 C 4.000 13.219,4.029 13.452,4.142 13.733 C 4.249 13.996,4.374 14.185,4.587 14.401 C 4.927 14.748,5.332 14.938,5.833 14.987 C 6.172 15.020,9.828 15.020,10.167 14.987 C 10.668 14.938,11.073 14.748,11.413 14.401 C 11.626 14.185,11.751 13.996,11.858 13.733 C 11.971 13.452,12.000 13.219,12.000 12.582 C 12.000 11.996,12.000 11.995,12.060 11.979 C 12.198 11.944,12.656 11.692,12.852 11.544 C 13.265 11.233,13.712 10.674,13.909 10.220 L 13.999 10.013 12.999 10.006 L 12.000 9.999 12.000 8.997 L 12.000 7.995 12.060 7.979 C 12.198 7.944,12.656 7.692,12.852 7.544 C 13.265 7.233,13.712 6.674,13.909 6.220 L 13.999 6.013 12.999 6.006 L 12.000 5.999 12.000 4.997 L 12.000 3.995 12.060 3.979 C 12.198 3.944,12.656 3.692,12.852 3.544 C 13.265 3.233,13.712 2.674,13.909 2.220 L 13.999 2.013 12.999 2.006 L 12.000 1.999 12.000 1.905 C 12.000 1.753,11.921 1.414,11.843 1.226 C 11.649 0.762,11.238 0.351,10.774 0.157 C 10.398 -0.000,10.396 -0.000,7.981 0.002 C 6.195 0.004,5.740 0.011,5.600 0.042 M10.428 1.099 C 10.616 1.192,10.808 1.384,10.901 1.572 L 10.973 1.720 10.980 7.458 C 10.987 13.179,10.987 13.197,10.933 13.342 C 10.821 13.641,10.600 13.851,10.297 13.947 C 10.133 13.998,10.055 14.000,8.002 14.000 C 5.663 14.000,5.727 14.004,5.461 13.835 C 5.306 13.737,5.196 13.614,5.100 13.432 L 5.027 13.293 5.020 7.541 C 5.013 1.910,5.014 1.786,5.064 1.653 C 5.162 1.395,5.389 1.166,5.645 1.066 C 5.768 1.017,5.873 1.015,8.027 1.021 L 10.280 1.027 10.428 1.099 M7.693 2.031 C 7.461 2.075,7.142 2.248,6.955 2.433 C 6.359 3.022,6.354 3.963,6.944 4.547 C 7.254 4.855,7.572 4.987,8.000 4.987 C 8.430 4.987,8.753 4.853,9.056 4.550 C 9.349 4.256,9.494 3.908,9.493 3.499 C 9.491 2.554,8.633 1.854,7.693 2.031 M7.693 6.031 C 7.461 6.075,7.142 6.248,6.955 6.433 C 6.359 7.022,6.354 7.963,6.944 8.547 C 7.254 8.855,7.572 8.987,8.000 8.987 C 8.430 8.987,8.753 8.853,9.056 8.550 C 9.349 8.256,9.494 7.908,9.493 7.499 C 9.491 6.554,8.633 5.854,7.693 6.031 M7.693 10.031 C 7.461 10.075,7.142 10.248,6.955 10.433 C 6.359 11.022,6.354 11.963,6.944 12.547 C 7.254 12.855,7.572 12.987,8.000 12.987 C 8.430 12.987,8.753 12.853,9.056 12.550 C 9.349 12.256,9.494 11.908,9.493 11.499 C 9.491 10.554,8.633 9.854,7.693 10.031 " stroke="none" fill="black" fill-rule="evenodd"></path></svg>