<svg width="1em" height="1em" viewBox="0 0 16 16" class="bi bi-subtract" fill="currentColor" xmlns="http://www.w3.org/2000/svg"><path d="M1.600 0.042 C 0.952 0.181,0.407 0.629,0.157 1.226 C -0.007 1.618,0.000 1.409,-0.000 6.000 C -0.000 10.591,-0.007 10.382,0.157 10.774 C 0.350 11.235,0.765 11.650,1.226 11.843 C 1.570 11.987,1.710 12.000,2.906 12.000 L 4.000 12.000 4.000 13.094 C 4.000 14.290,4.013 14.430,4.157 14.774 C 4.350 15.235,4.765 15.650,5.226 15.843 C 5.618 16.007,5.409 16.000,10.000 16.000 C 14.591 16.000,14.382 16.007,14.774 15.843 C 15.238 15.649,15.649 15.238,15.843 14.774 C 16.007 14.382,16.000 14.591,16.000 10.000 C 16.000 5.409,16.007 5.618,15.843 5.226 C 15.649 4.762,15.238 4.351,14.774 4.157 C 14.430 4.013,14.290 4.000,13.094 4.000 L 12.000 4.000 12.000 2.906 C 12.000 2.012,11.992 1.773,11.958 1.606 C 11.796 0.816,11.184 0.204,10.394 0.042 C 10.212 0.005,9.717 0.000,5.981 0.002 C 2.480 0.004,1.744 0.011,1.600 0.042 M10.428 1.099 C 10.616 1.192,10.808 1.384,10.901 1.572 L 10.973 1.720 10.980 5.945 C 10.986 9.634,10.982 10.188,10.947 10.308 C 10.867 10.586,10.586 10.864,10.296 10.954 C 10.157 10.997,9.861 11.000,6.000 11.000 C 2.139 11.000,1.843 10.997,1.704 10.954 C 1.422 10.866,1.158 10.612,1.063 10.338 C 1.018 10.208,1.015 9.960,1.014 5.994 C 1.013 1.906,1.015 1.783,1.065 1.652 C 1.162 1.395,1.389 1.166,1.645 1.066 C 1.769 1.017,1.918 1.016,6.027 1.021 L 10.280 1.027 10.428 1.099 " stroke="none" fill="black" fill-rule="evenodd"></path></svg>