<svg width="1em" height="1em" viewBox="0 0 16 16" class="bi bi-suit-spade-fill" fill="currentColor" xmlns="http://www.w3.org/2000/svg"><path d="M7.906 0.152 C 7.769 0.388,7.302 1.077,7.041 1.427 C 6.228 2.519,5.273 3.527,3.680 4.976 C 2.446 6.097,2.140 6.409,1.728 6.960 C 1.460 7.318,1.197 7.840,1.103 8.200 C 1.007 8.565,0.985 9.208,1.054 9.593 C 1.299 10.966,2.299 12.047,3.638 12.387 C 4.839 12.691,6.068 12.357,6.955 11.484 L 7.176 11.267 7.058 11.520 C 6.885 11.894,6.576 12.506,6.392 12.840 C 6.249 13.101,6.114 13.327,5.649 14.091 C 5.541 14.267,5.520 14.323,5.520 14.432 C 5.520 14.652,5.636 14.850,5.827 14.956 C 5.899 14.996,6.102 15.001,7.904 15.008 C 9.303 15.013,9.945 15.006,10.046 14.985 C 10.296 14.933,10.478 14.713,10.479 14.459 C 10.480 14.306,10.446 14.232,10.181 13.812 C 9.764 13.153,9.247 12.195,8.916 11.469 L 8.826 11.271 9.073 11.510 C 9.459 11.883,9.917 12.162,10.402 12.321 C 10.792 12.448,11.062 12.489,11.507 12.489 C 11.957 12.488,12.276 12.434,12.685 12.290 C 13.853 11.878,14.732 10.828,14.946 9.590 C 15.005 9.247,14.999 8.697,14.934 8.375 C 14.800 7.718,14.454 7.111,13.809 6.400 C 13.492 6.051,13.304 5.871,12.173 4.836 C 11.255 3.995,10.409 3.160,9.934 2.627 C 9.356 1.980,8.678 1.081,8.240 0.385 C 8.121 0.195,8.014 0.036,8.002 0.032 C 7.990 0.028,7.946 0.082,7.906 0.152 " stroke="none" fill="black" fill-rule="evenodd"></path></svg>