<svg width="1em" height="1em" viewBox="0 0 16 16" class="bi bi-sunglasses" fill="currentColor" xmlns="http://www.w3.org/2000/svg"><path d="M2.699 5.017 C 2.306 5.074,1.884 5.290,1.587 5.587 C 1.168 6.005,0.987 6.498,0.987 7.215 L 0.987 7.493 0.727 7.493 C 0.584 7.494,0.422 7.506,0.367 7.521 C 0.167 7.577,0.001 7.793,0.001 8.000 C 0.001 8.207,0.167 8.423,0.367 8.479 C 0.422 8.494,0.584 8.506,0.727 8.507 L 0.987 8.507 0.987 8.785 C 0.987 9.156,1.028 9.432,1.122 9.689 C 1.320 10.233,1.768 10.680,2.312 10.879 C 2.638 10.998,2.897 11.021,3.691 11.005 C 4.426 10.990,4.591 10.969,4.970 10.842 C 5.861 10.543,6.615 9.762,6.876 8.867 C 6.952 8.605,6.983 8.409,7.008 8.037 C 7.026 7.770,7.042 7.689,7.101 7.569 C 7.192 7.384,7.385 7.191,7.572 7.099 C 7.705 7.034,7.749 7.027,8.000 7.027 C 8.251 7.027,8.295 7.034,8.428 7.099 C 8.614 7.191,8.808 7.384,8.897 7.566 C 8.954 7.682,8.970 7.766,8.990 8.047 C 9.017 8.421,9.044 8.587,9.125 8.867 C 9.383 9.759,10.139 10.543,11.030 10.842 C 11.143 10.880,11.321 10.929,11.425 10.951 C 11.682 11.006,12.918 11.031,13.239 10.988 C 13.764 10.918,14.247 10.650,14.556 10.256 C 14.888 9.832,15.013 9.430,15.013 8.785 L 15.013 8.507 15.273 8.507 C 15.416 8.506,15.578 8.494,15.633 8.479 C 15.833 8.423,15.999 8.207,15.999 8.000 C 15.999 7.793,15.833 7.577,15.633 7.521 C 15.578 7.506,15.416 7.494,15.273 7.493 L 15.013 7.493 15.013 7.215 C 15.013 6.497,14.832 6.006,14.413 5.587 C 14.105 5.278,13.698 5.074,13.271 5.016 C 12.997 4.978,11.003 4.977,10.730 5.015 C 10.311 5.074,9.902 5.275,9.599 5.573 C 9.430 5.740,9.251 5.993,9.171 6.179 C 9.141 6.249,9.114 6.309,9.110 6.312 C 9.106 6.316,9.011 6.272,8.897 6.215 C 8.599 6.066,8.367 6.013,8.000 6.013 C 7.633 6.013,7.401 6.066,7.103 6.215 C 6.989 6.272,6.895 6.316,6.892 6.313 C 6.889 6.309,6.850 6.227,6.804 6.129 C 6.643 5.789,6.316 5.441,5.973 5.247 C 5.792 5.144,5.498 5.047,5.269 5.015 C 5.020 4.981,2.943 4.982,2.699 5.017 M4.102 6.063 C 4.175 6.128,4.199 6.252,4.159 6.349 C 4.133 6.412,4.058 6.463,3.763 6.614 C 3.151 6.928,2.928 7.151,2.614 7.763 C 2.463 8.058,2.412 8.133,2.349 8.159 C 2.252 8.199,2.128 8.175,2.063 8.102 C 2.018 8.052,2.013 7.994,2.014 7.417 C 2.014 6.822,2.017 6.778,2.075 6.635 C 2.146 6.458,2.332 6.240,2.490 6.147 C 2.704 6.022,2.845 6.002,3.471 6.008 C 3.991 6.013,4.053 6.018,4.102 6.063 " stroke="none" fill="black" fill-rule="evenodd"></path></svg>