<svg width="1em" height="1em" viewBox="0 0 16 16" class="bi bi-tag-fill" fill="currentColor" xmlns="http://www.w3.org/2000/svg"><path d="M1.645 1.066 C 1.389 1.166,1.168 1.389,1.058 1.659 C 1.000 1.800,1.000 1.808,0.992 4.133 C 0.983 6.615,0.990 6.790,1.106 7.028 C 1.159 7.136,1.889 7.879,4.799 10.788 C 8.908 14.895,8.551 14.573,9.000 14.572 C 9.445 14.572,9.230 14.757,12.004 11.979 C 14.763 9.215,14.570 9.439,14.572 9.000 C 14.573 8.783,14.565 8.742,14.485 8.573 C 14.401 8.394,14.256 8.245,10.792 4.783 C 7.577 1.571,7.169 1.172,7.027 1.103 L 6.867 1.027 4.320 1.021 C 1.880 1.016,1.768 1.017,1.645 1.066 M4.892 3.054 C 5.565 3.229,6.052 3.919,5.992 4.612 C 5.928 5.353,5.353 5.928,4.611 5.992 C 4.366 6.013,4.105 5.961,3.843 5.838 C 3.462 5.660,3.160 5.296,3.056 4.889 C 3.001 4.677,3.001 4.292,3.056 4.105 C 3.202 3.608,3.580 3.223,4.079 3.063 C 4.268 3.003,4.678 2.998,4.892 3.054 " stroke="none" fill="black" fill-rule="evenodd"></path></svg>