<svg width="1em" height="1em" viewBox="0 0 16 16" class="bi bi-tags-fill" fill="currentColor" xmlns="http://www.w3.org/2000/svg"><path d="M2.707 1.041 C 2.423 1.125,2.144 1.405,2.055 1.696 C 2.001 1.868,2.000 1.929,2.000 4.291 C 2.000 6.948,1.995 6.860,2.161 7.120 C 2.256 7.268,9.364 14.371,9.493 14.447 C 9.752 14.599,10.078 14.621,10.387 14.506 C 10.541 14.449,10.636 14.358,12.968 12.030 C 15.746 9.257,15.560 9.474,15.560 9.001 C 15.560 8.528,15.910 8.919,11.816 4.819 C 8.519 1.517,8.185 1.190,8.027 1.112 L 7.854 1.027 5.321 1.022 C 3.913 1.020,2.751 1.028,2.707 1.041 M0.767 2.029 C 0.490 2.094,0.217 2.324,0.088 2.600 L 0.013 2.760 0.013 5.293 L 0.013 7.827 0.093 7.994 C 0.166 8.147,0.492 8.480,3.800 11.788 C 6.846 14.834,7.450 15.427,7.573 15.488 C 7.705 15.552,7.749 15.560,8.000 15.560 C 8.321 15.560,8.447 15.518,8.638 15.345 L 8.750 15.244 4.952 11.442 C 1.888 8.374,1.142 7.614,1.091 7.507 L 1.027 7.373 1.020 4.687 L 1.012 2.000 0.940 2.003 C 0.899 2.004,0.822 2.016,0.767 2.029 M5.895 3.056 C 6.401 3.205,6.795 3.599,6.944 4.105 C 6.998 4.287,6.999 4.683,6.947 4.879 C 6.763 5.570,6.088 6.052,5.388 5.992 C 4.653 5.928,4.071 5.352,4.009 4.626 C 3.950 3.929,4.412 3.254,5.079 3.063 C 5.291 3.003,5.701 2.999,5.895 3.056 " stroke="none" fill="black" fill-rule="evenodd"></path></svg>