<svg width="1em" height="1em" viewBox="0 0 16 16" class="bi bi-telephone-outbound" fill="currentColor" xmlns="http://www.w3.org/2000/svg"><path d="M11.290 0.051 C 11.132 0.123,11.033 0.264,11.019 0.441 C 11.003 0.628,11.023 0.699,11.124 0.814 C 11.295 1.009,11.211 0.999,12.825 1.008 L 14.277 1.016 12.168 3.128 C 10.456 4.843,10.053 5.259,10.026 5.343 C 9.904 5.731,10.269 6.096,10.657 5.974 C 10.741 5.947,11.157 5.544,12.872 3.832 L 14.984 1.723 14.992 3.175 C 15.001 4.789,14.991 4.705,15.186 4.876 C 15.301 4.977,15.372 4.997,15.559 4.981 C 15.736 4.967,15.877 4.868,15.949 4.710 C 15.996 4.606,15.999 4.494,15.999 2.520 C 16.000 1.239,15.990 0.404,15.974 0.346 C 15.944 0.239,15.784 0.070,15.672 0.028 C 15.621 0.009,14.912 0.000,13.498 0.001 C 11.507 0.001,11.394 0.004,11.290 0.051 M3.033 0.548 C 2.873 0.587,2.616 0.704,2.471 0.805 C 2.333 0.900,1.286 1.944,1.117 2.154 C 0.714 2.657,0.508 3.218,0.507 3.817 C 0.506 4.282,0.605 4.629,1.025 5.634 C 2.674 9.580,5.869 12.902,9.748 14.701 C 10.203 14.912,10.968 15.227,11.317 15.346 C 12.203 15.648,13.096 15.485,13.846 14.883 C 14.120 14.663,15.145 13.615,15.251 13.447 C 15.464 13.107,15.549 12.599,15.456 12.207 C 15.403 11.980,15.266 11.706,15.116 11.526 C 14.948 11.325,12.655 9.544,12.413 9.427 C 12.166 9.308,11.834 9.241,11.593 9.264 C 11.492 9.273,10.903 9.408,10.285 9.563 C 9.072 9.867,9.021 9.874,8.808 9.763 C 8.751 9.733,8.172 9.175,7.488 8.488 C 6.211 7.209,6.162 7.151,6.161 6.926 C 6.160 6.871,6.286 6.323,6.440 5.708 C 6.593 5.093,6.727 4.508,6.736 4.407 C 6.759 4.165,6.692 3.833,6.572 3.587 C 6.459 3.354,4.803 1.215,4.536 0.957 C 4.337 0.763,4.073 0.616,3.801 0.547 C 3.606 0.498,3.240 0.498,3.033 0.548 M3.698 1.570 C 3.754 1.599,3.843 1.668,3.896 1.724 C 4.078 1.918,5.654 3.969,5.694 4.063 C 5.715 4.116,5.733 4.212,5.733 4.278 C 5.733 4.345,5.607 4.904,5.453 5.521 C 5.203 6.525,5.173 6.669,5.173 6.881 C 5.173 7.192,5.209 7.352,5.339 7.627 C 5.446 7.853,5.447 7.854,6.796 9.204 C 8.079 10.486,8.157 10.559,8.347 10.651 C 8.623 10.785,8.798 10.826,9.098 10.826 C 9.337 10.827,9.438 10.806,10.479 10.547 C 11.096 10.393,11.655 10.267,11.722 10.267 C 11.788 10.267,11.884 10.285,11.937 10.306 C 12.031 10.346,14.082 11.922,14.276 12.104 C 14.494 12.309,14.556 12.604,14.433 12.854 C 14.354 13.016,13.278 14.085,13.042 14.237 C 12.731 14.437,12.300 14.535,11.965 14.481 C 11.477 14.403,9.961 13.740,8.973 13.173 C 5.609 11.241,3.048 8.224,1.684 4.585 C 1.514 4.129,1.476 3.916,1.516 3.642 C 1.593 3.126,1.690 2.978,2.453 2.209 C 3.014 1.643,3.094 1.573,3.213 1.536 C 3.375 1.485,3.560 1.498,3.698 1.570 " stroke="none" fill="black" fill-rule="evenodd"></path></svg>