<svg width="1em" height="1em" viewBox="0 0 16 16" class="bi bi-telephone-inbound" fill="currentColor" xmlns="http://www.w3.org/2000/svg"><path d="M15.307 0.041 C 15.248 0.066,14.429 0.866,13.115 2.179 L 11.016 4.277 11.008 2.825 C 10.999 1.211,11.009 1.295,10.814 1.124 C 10.699 1.023,10.628 1.003,10.441 1.019 C 10.264 1.033,10.123 1.132,10.051 1.290 C 10.004 1.394,10.001 1.506,10.001 3.480 C 10.000 4.761,10.010 5.596,10.026 5.654 C 10.059 5.772,10.227 5.939,10.348 5.974 C 10.405 5.990,11.231 6.000,12.520 5.999 C 14.494 5.999,14.606 5.996,14.710 5.949 C 14.884 5.870,14.970 5.734,14.981 5.523 C 14.989 5.367,14.982 5.334,14.918 5.236 C 14.877 5.175,14.800 5.100,14.745 5.069 C 14.648 5.014,14.618 5.013,13.190 5.013 C 12.389 5.013,11.733 5.004,11.733 4.993 C 11.733 4.982,12.675 4.031,13.827 2.880 C 16.084 0.623,16.022 0.693,15.993 0.440 C 15.957 0.121,15.598 -0.089,15.307 0.041 M3.033 0.548 C 2.873 0.587,2.616 0.704,2.471 0.805 C 2.333 0.900,1.286 1.944,1.117 2.154 C 0.714 2.657,0.508 3.218,0.507 3.817 C 0.506 4.282,0.605 4.629,1.025 5.634 C 2.674 9.580,5.869 12.902,9.748 14.701 C 10.203 14.912,10.968 15.227,11.317 15.346 C 12.203 15.648,13.096 15.485,13.846 14.883 C 14.120 14.663,15.145 13.615,15.251 13.447 C 15.464 13.107,15.549 12.599,15.456 12.207 C 15.403 11.980,15.266 11.706,15.116 11.526 C 14.948 11.325,12.655 9.544,12.413 9.427 C 12.166 9.308,11.834 9.241,11.593 9.264 C 11.492 9.273,10.903 9.408,10.285 9.563 C 9.072 9.867,9.021 9.874,8.808 9.763 C 8.751 9.733,8.172 9.175,7.488 8.488 C 6.211 7.209,6.162 7.151,6.161 6.926 C 6.160 6.871,6.286 6.323,6.440 5.708 C 6.593 5.093,6.727 4.508,6.736 4.407 C 6.759 4.165,6.692 3.833,6.572 3.587 C 6.459 3.354,4.803 1.215,4.536 0.957 C 4.337 0.763,4.073 0.616,3.801 0.547 C 3.606 0.498,3.240 0.498,3.033 0.548 M3.698 1.570 C 3.754 1.599,3.843 1.668,3.896 1.724 C 4.078 1.918,5.654 3.969,5.694 4.063 C 5.715 4.116,5.733 4.212,5.733 4.278 C 5.733 4.345,5.607 4.904,5.453 5.521 C 5.203 6.525,5.173 6.669,5.173 6.881 C 5.173 7.192,5.209 7.352,5.339 7.627 C 5.446 7.853,5.447 7.854,6.796 9.204 C 8.079 10.486,8.157 10.559,8.347 10.651 C 8.623 10.785,8.798 10.826,9.098 10.826 C 9.337 10.827,9.438 10.806,10.479 10.547 C 11.096 10.393,11.655 10.267,11.722 10.267 C 11.788 10.267,11.884 10.285,11.937 10.306 C 12.031 10.346,14.082 11.922,14.276 12.104 C 14.494 12.309,14.556 12.604,14.433 12.854 C 14.354 13.016,13.278 14.085,13.042 14.237 C 12.731 14.437,12.300 14.535,11.965 14.481 C 11.477 14.403,9.961 13.740,8.973 13.173 C 5.609 11.241,3.048 8.224,1.684 4.585 C 1.514 4.129,1.476 3.916,1.516 3.642 C 1.593 3.126,1.690 2.978,2.453 2.209 C 3.014 1.643,3.094 1.573,3.213 1.536 C 3.375 1.485,3.560 1.498,3.698 1.570 " stroke="none" fill="black" fill-rule="evenodd"></path></svg>