<svg width="1em" height="1em" viewBox="0 0 16 16" class="bi bi-terminal" fill="currentColor" xmlns="http://www.w3.org/2000/svg"><path d="M1.507 1.066 C 0.743 1.268,0.185 1.863,0.039 2.630 C -0.019 2.932,-0.019 13.068,0.039 13.370 C 0.116 13.775,0.287 14.096,0.587 14.401 C 0.927 14.748,1.332 14.938,1.833 14.987 C 2.181 15.021,13.819 15.021,14.167 14.987 C 14.668 14.938,15.073 14.748,15.413 14.401 C 15.713 14.096,15.884 13.775,15.961 13.370 C 16.019 13.068,16.019 2.932,15.961 2.630 C 15.884 2.225,15.713 1.904,15.413 1.599 C 15.186 1.367,14.939 1.211,14.627 1.102 L 14.413 1.027 8.053 1.021 C 1.929 1.016,1.686 1.018,1.507 1.066 M14.297 2.053 C 14.600 2.149,14.821 2.359,14.932 2.657 C 14.986 2.801,14.987 2.840,14.987 8.000 C 14.987 13.160,14.986 13.199,14.932 13.343 C 14.821 13.641,14.600 13.851,14.297 13.947 C 14.130 13.999,14.058 14.000,8.002 14.000 C 1.243 14.000,1.740 14.013,1.461 13.835 C 1.306 13.737,1.196 13.614,1.100 13.432 L 1.027 13.293 1.027 8.000 L 1.027 2.707 1.099 2.570 C 1.239 2.304,1.434 2.137,1.704 2.051 C 1.846 2.005,2.170 2.003,7.991 2.001 C 14.060 2.000,14.130 2.001,14.297 2.053 M3.290 4.051 C 3.034 4.167,2.931 4.488,3.066 4.747 C 3.085 4.784,3.479 5.194,3.943 5.660 L 4.785 6.507 3.927 7.367 C 3.440 7.855,3.057 8.261,3.039 8.307 C 2.997 8.417,3.002 8.622,3.049 8.712 C 3.094 8.797,3.211 8.912,3.301 8.958 C 3.379 8.999,3.590 9.000,3.693 8.961 C 3.740 8.943,4.225 8.479,4.847 7.859 C 6.007 6.700,6.021 6.684,5.993 6.440 C 5.986 6.372,5.950 6.275,5.911 6.219 C 5.873 6.165,5.382 5.662,4.821 5.101 C 4.134 4.416,3.767 4.069,3.701 4.041 C 3.570 3.987,3.425 3.990,3.290 4.051 M6.271 8.564 C 6.099 8.649,6.013 8.794,6.013 9.000 C 6.013 9.207,6.100 9.353,6.273 9.437 C 6.388 9.493,6.413 9.493,8.002 9.493 C 9.527 9.492,9.619 9.489,9.725 9.442 C 9.893 9.365,9.987 9.208,9.987 9.000 C 9.987 8.793,9.900 8.647,9.727 8.563 C 9.612 8.508,9.586 8.507,7.998 8.507 C 6.404 8.507,6.385 8.507,6.271 8.564 " stroke="none" fill="black" fill-rule="evenodd"></path></svg>