<svg width="1em" height="1em" viewBox="0 0 16 16" class="bi bi-textarea-resize" fill="currentColor" xmlns="http://www.w3.org/2000/svg"><path d="M2.760 1.511 C 1.689 1.638,0.893 2.317,0.576 3.373 C 0.520 3.559,0.520 3.577,0.513 7.907 C 0.507 11.586,0.512 12.284,0.544 12.453 C 0.688 13.209,1.194 13.888,1.867 14.226 C 2.104 14.346,2.432 14.446,2.697 14.479 C 3.005 14.518,14.996 14.517,15.304 14.479 C 15.426 14.463,15.630 14.418,15.756 14.378 L 15.987 14.304 15.994 13.709 L 16.001 13.115 15.901 13.194 C 15.845 13.237,15.737 13.305,15.660 13.344 C 15.343 13.503,15.754 13.495,8.928 13.487 C 1.937 13.479,2.594 13.499,2.246 13.287 C 1.918 13.088,1.686 12.800,1.571 12.449 L 1.507 12.253 1.507 8.000 L 1.507 3.747 1.571 3.551 C 1.686 3.200,1.918 2.912,2.246 2.713 C 2.594 2.501,1.937 2.521,8.928 2.513 C 15.754 2.505,15.343 2.497,15.660 2.656 C 15.737 2.695,15.845 2.763,15.901 2.806 L 16.001 2.885 15.994 2.291 L 15.987 1.696 15.756 1.622 C 15.630 1.582,15.426 1.537,15.304 1.521 C 15.098 1.495,2.974 1.485,2.760 1.511 M14.293 8.042 C 14.177 8.092,11.172 11.084,11.077 11.244 C 11.010 11.358,10.988 11.530,11.026 11.655 C 11.108 11.922,11.435 12.069,11.701 11.959 C 11.769 11.930,12.270 11.448,13.314 10.405 C 14.147 9.574,14.860 8.848,14.899 8.792 C 14.983 8.671,15.011 8.531,14.980 8.387 C 14.916 8.090,14.577 7.920,14.293 8.042 M14.267 10.559 C 14.215 10.586,14.034 10.751,13.863 10.926 C 13.498 11.298,13.454 11.390,13.521 11.633 C 13.599 11.912,13.916 12.069,14.181 11.959 C 14.290 11.914,14.886 11.340,14.950 11.218 C 15.002 11.121,15.002 10.880,14.951 10.782 C 14.899 10.682,14.778 10.570,14.685 10.535 C 14.571 10.492,14.371 10.503,14.267 10.559 " stroke="none" fill="black" fill-rule="evenodd"></path></svg>