<svg width="1em" height="1em" viewBox="0 0 16 16" class="bi bi-thermometer-half" fill="currentColor" xmlns="http://www.w3.org/2000/svg"><path d="M7.600 0.042 C 6.952 0.181,6.407 0.629,6.157 1.226 C 5.994 1.617,6.000 1.437,6.000 5.717 L 6.000 9.624 5.847 9.742 C 5.379 10.105,4.967 10.654,4.747 11.211 C 4.529 11.764,4.451 12.469,4.545 13.042 C 4.883 15.098,6.881 16.401,8.893 15.879 C 10.224 15.534,11.228 14.422,11.455 13.042 C 11.519 12.653,11.497 12.066,11.403 11.691 C 11.288 11.230,11.116 10.848,10.857 10.480 C 10.709 10.270,10.341 9.883,10.144 9.731 L 10.000 9.620 10.000 5.716 C 10.000 2.261,9.995 1.787,9.958 1.606 C 9.737 0.526,8.662 -0.187,7.600 0.042 M8.428 1.100 C 8.616 1.192,8.808 1.384,8.901 1.572 L 8.973 1.720 8.987 5.867 C 8.994 8.278,9.010 10.036,9.024 10.067 C 9.082 10.194,9.166 10.279,9.344 10.393 C 9.700 10.621,10.054 11.016,10.247 11.400 C 10.422 11.749,10.526 12.275,10.495 12.655 C 10.413 13.673,9.761 14.534,8.827 14.858 C 8.323 15.033,7.677 15.033,7.173 14.858 C 6.138 14.499,5.439 13.465,5.503 12.387 C 5.532 11.897,5.692 11.426,5.957 11.058 C 6.116 10.835,6.426 10.540,6.656 10.393 C 6.881 10.249,6.951 10.160,6.987 9.972 C 7.004 9.884,7.013 8.352,7.013 5.810 C 7.013 1.905,7.015 1.783,7.065 1.652 C 7.162 1.396,7.387 1.168,7.645 1.064 C 7.842 0.985,8.230 1.003,8.428 1.100 M7.868 1.878 L 7.750 1.999 7.969 6.420 C 8.090 8.851,8.188 10.879,8.188 10.927 L 8.187 11.013 7.979 11.013 C 7.573 11.013,7.249 11.151,6.944 11.453 C 6.649 11.745,6.507 12.089,6.507 12.511 C 6.507 13.238,7.060 13.874,7.783 13.979 C 8.811 14.129,9.676 13.204,9.464 12.181 C 9.356 11.659,8.906 11.190,8.383 11.053 C 8.300 11.032,8.230 11.011,8.227 11.007 C 8.225 11.003,8.177 9.092,8.122 6.760 C 8.067 4.428,8.014 2.348,8.005 2.139 L 7.987 1.757 7.868 1.878 " stroke="none" fill="black" fill-rule="evenodd"></path></svg>