<svg width="1em" height="1em" viewBox="0 0 16 16" class="bi bi-three-dots" fill="currentColor" xmlns="http://www.w3.org/2000/svg"><path d="M2.634 6.548 C 2.147 6.666,1.731 7.059,1.571 7.551 C 1.483 7.824,1.483 8.176,1.571 8.449 C 1.964 9.661,3.573 9.867,4.267 8.795 C 4.570 8.328,4.570 7.672,4.267 7.205 C 3.914 6.658,3.261 6.396,2.634 6.548 M7.627 6.549 C 7.106 6.686,6.681 7.115,6.547 7.639 C 6.347 8.425,6.844 9.250,7.639 9.453 C 8.425 9.653,9.250 9.156,9.453 8.361 C 9.653 7.574,9.158 6.751,8.361 6.547 C 8.164 6.497,7.821 6.498,7.627 6.549 M12.634 6.548 C 12.147 6.666,11.731 7.059,11.571 7.551 C 11.483 7.824,11.483 8.176,11.571 8.449 C 11.964 9.661,13.573 9.867,14.267 8.795 C 14.570 8.328,14.570 7.672,14.267 7.205 C 13.914 6.658,13.261 6.396,12.634 6.548 " stroke="none" fill="black" fill-rule="evenodd"></path></svg>