<svg width="1em" height="1em" viewBox="0 0 16 16" class="bi bi-toggles2" fill="currentColor" xmlns="http://www.w3.org/2000/svg"><path d="M9.613 0.018 C 8.376 0.166,7.344 0.785,6.676 1.780 L 6.528 2.000 5.170 2.000 C 4.036 2.000,3.777 2.007,3.606 2.042 C 2.816 2.204,2.204 2.816,2.042 3.606 C 1.822 4.679,2.525 5.736,3.606 5.958 C 3.777 5.993,4.036 6.000,5.170 6.000 L 6.528 6.000 6.676 6.220 C 7.279 7.118,8.203 7.725,9.293 7.938 C 9.660 8.010,10.402 8.003,10.773 7.923 C 11.176 7.837,11.488 7.726,11.841 7.544 C 12.918 6.987,13.662 5.997,13.923 4.773 C 14.003 4.402,14.010 3.660,13.938 3.293 C 13.634 1.739,12.519 0.532,11.021 0.133 C 10.622 0.026,9.979 -0.026,9.613 0.018 M6.107 3.047 C 6.107 3.065,6.087 3.176,6.062 3.293 C 6.000 3.591,6.000 4.409,6.062 4.707 C 6.087 4.824,6.107 4.941,6.107 4.967 C 6.107 5.010,6.041 5.013,5.087 5.013 C 3.989 5.012,3.767 4.995,3.559 4.894 C 3.384 4.808,3.190 4.612,3.100 4.429 C 3.001 4.226,2.983 3.866,3.062 3.659 C 3.163 3.395,3.387 3.167,3.645 3.066 C 3.763 3.020,3.864 3.016,4.940 3.015 C 5.856 3.014,6.107 3.020,6.107 3.047 M5.613 8.018 C 5.077 8.082,4.612 8.222,4.163 8.454 C 3.067 9.021,2.304 10.051,2.062 11.293 C 1.997 11.626,1.997 12.374,2.062 12.707 C 2.139 13.101,2.259 13.451,2.441 13.809 C 3.007 14.924,4.036 15.692,5.293 15.938 C 5.660 16.010,6.402 16.003,6.773 15.923 C 7.848 15.694,8.729 15.105,9.324 14.220 L 9.472 14.000 10.830 14.000 C 11.964 14.000,12.223 13.993,12.394 13.958 C 13.184 13.796,13.796 13.184,13.958 12.394 C 14.178 11.320,13.476 10.264,12.394 10.042 C 12.223 10.007,11.964 10.000,10.830 10.000 L 9.472 10.000 9.324 9.780 C 8.570 8.657,7.307 7.988,5.973 8.005 C 5.819 8.006,5.657 8.012,5.613 8.018 M6.725 9.088 C 7.826 9.386,8.604 10.163,8.913 11.275 C 8.963 11.452,8.971 11.550,8.971 12.000 C 8.971 12.563,8.948 12.699,8.785 13.112 C 8.493 13.849,7.866 14.482,7.137 14.773 C 6.702 14.948,6.570 14.971,6.000 14.971 C 5.550 14.971,5.452 14.963,5.275 14.913 C 4.164 14.604,3.383 13.822,3.089 12.725 C 3.018 12.462,2.992 11.822,3.039 11.525 C 3.236 10.293,4.186 9.310,5.430 9.053 C 5.709 8.996,6.457 9.016,6.725 9.088 " stroke="none" fill="black" fill-rule="evenodd"></path></svg>