<svg width="1em" height="1em" viewBox="0 0 16 16" class="bi bi-toggles" fill="currentColor" xmlns="http://www.w3.org/2000/svg"><path d="M4.044 0.030 C 3.150 0.146,2.302 0.632,1.748 1.345 C 1.437 1.745,1.238 2.149,1.099 2.664 C 1.035 2.900,1.030 2.963,1.029 3.480 C 1.027 3.984,1.034 4.066,1.091 4.293 C 1.314 5.183,1.806 5.896,2.547 6.399 C 3.061 6.749,3.622 6.938,4.287 6.987 C 4.729 7.019,11.270 7.019,11.712 6.987 C 12.234 6.949,12.645 6.839,13.073 6.623 C 13.998 6.158,14.647 5.334,14.908 4.293 C 14.990 3.968,15.010 3.280,14.948 2.917 C 14.865 2.429,14.690 1.986,14.413 1.571 C 13.978 0.918,13.345 0.430,12.614 0.186 C 12.076 0.005,12.384 0.017,8.107 0.011 C 5.939 0.008,4.146 0.017,4.044 0.030 M5.169 1.091 C 6.027 1.342,6.663 1.981,6.913 2.846 C 6.966 3.027,6.973 3.112,6.972 3.520 C 6.971 3.957,6.966 4.001,6.896 4.213 C 6.748 4.664,6.494 5.064,6.173 5.352 C 5.424 6.025,4.353 6.184,3.444 5.759 C 2.287 5.217,1.725 3.893,2.139 2.681 C 2.388 1.952,2.984 1.371,3.735 1.123 C 4.024 1.028,4.128 1.016,4.560 1.025 C 4.884 1.032,5.015 1.046,5.169 1.091 M12.213 1.103 C 13.193 1.434,13.830 2.182,13.975 3.171 C 14.153 4.393,13.354 5.580,12.120 5.926 C 11.907 5.986,11.903 5.986,9.430 5.994 L 6.954 6.002 7.106 5.834 C 7.509 5.391,7.803 4.798,7.938 4.160 C 8.005 3.843,8.004 3.141,7.936 2.828 C 7.796 2.178,7.544 1.683,7.065 1.113 L 6.980 1.012 9.483 1.019 L 11.987 1.027 12.213 1.103 M3.880 9.055 C 2.456 9.308,1.299 10.469,1.056 11.891 C 1.002 12.210,1.000 12.798,1.053 13.101 C 1.271 14.349,2.185 15.414,3.381 15.812 C 3.938 15.998,3.639 15.987,8.000 15.987 C 12.365 15.987,12.061 15.998,12.624 15.811 C 13.825 15.411,14.734 14.343,14.948 13.083 C 15.014 12.694,14.990 12.032,14.897 11.667 C 14.786 11.233,14.636 10.895,14.399 10.547 C 13.901 9.814,13.224 9.339,12.333 9.099 L 12.067 9.028 8.080 9.023 C 4.741 9.018,4.059 9.024,3.880 9.055 M12.120 10.078 C 12.534 10.186,12.957 10.429,13.264 10.736 C 14.202 11.675,14.241 13.182,13.352 14.173 C 13.064 14.494,12.664 14.748,12.213 14.896 C 12.001 14.966,11.957 14.971,11.520 14.972 C 11.112 14.973,11.027 14.966,10.846 14.913 C 9.977 14.661,9.339 14.023,9.087 13.154 C 9.034 12.973,9.027 12.888,9.028 12.480 C 9.029 12.041,9.034 12.000,9.104 11.787 C 9.411 10.864,10.080 10.254,11.006 10.051 C 11.311 9.985,11.807 9.997,12.120 10.078 " stroke="none" fill="black" fill-rule="evenodd"></path></svg>