<svg width="1em" height="1em" viewBox="0 0 16 16" class="bi bi-trash2-fill" fill="currentColor" xmlns="http://www.w3.org/2000/svg"><path d="M6.893 1.030 C 4.628 1.201,2.927 1.706,2.286 2.398 C 2.084 2.616,2.014 2.769,2.015 2.987 C 2.017 3.206,3.714 13.362,3.790 13.604 C 3.987 14.231,4.490 14.716,5.160 14.925 L 5.400 15.000 7.987 15.000 C 10.909 15.000,10.718 15.013,11.187 14.785 C 11.670 14.551,12.051 14.111,12.210 13.604 C 12.286 13.362,13.983 3.206,13.985 2.987 C 13.986 2.769,13.916 2.616,13.714 2.398 C 13.226 1.871,12.050 1.424,10.533 1.189 C 9.670 1.056,9.363 1.035,8.160 1.027 C 7.537 1.023,6.967 1.025,6.893 1.030 M9.493 2.066 C 10.893 2.202,12.161 2.525,12.732 2.891 L 12.891 2.993 12.812 3.056 C 12.641 3.193,12.127 3.412,11.664 3.545 C 9.697 4.110,6.768 4.150,4.701 3.641 C 4.078 3.487,3.453 3.247,3.192 3.061 L 3.112 3.004 3.185 2.946 C 3.305 2.850,3.680 2.676,4.017 2.559 C 4.795 2.290,5.842 2.103,6.993 2.027 C 7.512 1.993,8.976 2.016,9.493 2.066 " stroke="none" fill="black" fill-rule="evenodd"></path></svg>