<svg width="1em" height="1em" viewBox="0 0 16 16" class="bi bi-type-h2" fill="currentColor" xmlns="http://www.w3.org/2000/svg"><path d="M12.053 3.496 C 11.523 3.538,11.018 3.708,10.603 3.984 C 10.357 4.147,10.022 4.483,9.875 4.712 C 9.636 5.086,9.478 5.570,9.448 6.020 L 9.432 6.267 10.049 6.267 L 10.667 6.267 10.667 6.124 C 10.667 5.931,10.754 5.605,10.858 5.405 C 10.909 5.308,11.028 5.156,11.146 5.037 C 11.474 4.706,11.848 4.561,12.373 4.561 C 12.707 4.561,12.951 4.615,13.222 4.749 C 14.040 5.152,14.283 6.133,13.802 7.088 C 13.678 7.336,13.465 7.647,13.243 7.906 C 13.168 7.994,12.287 8.999,11.286 10.139 L 9.465 12.213 9.473 12.607 L 9.480 13.000 12.487 13.007 L 15.493 13.014 15.493 12.453 L 15.493 11.893 13.371 11.893 C 11.551 11.893,11.251 11.888,11.258 11.855 C 11.263 11.835,11.939 11.047,12.760 10.105 C 14.641 7.949,14.771 7.784,15.043 7.216 C 15.403 6.462,15.410 5.614,15.063 4.920 C 14.564 3.922,13.431 3.386,12.053 3.496 M0.507 8.347 L 0.507 13.014 1.127 13.007 L 1.747 13.000 1.753 10.860 L 1.760 8.720 4.067 8.720 L 6.373 8.720 6.380 10.860 L 6.387 13.000 7.007 13.007 L 7.627 13.014 7.627 8.347 L 7.627 3.680 7.000 3.680 L 6.373 3.680 6.373 5.653 L 6.373 7.627 4.067 7.627 L 1.760 7.627 1.760 5.653 L 1.760 3.680 1.133 3.680 L 0.507 3.680 0.507 8.347 " stroke="none" fill="black" fill-rule="evenodd"></path></svg>