<svg width="1em" height="1em" viewBox="0 0 16 16" class="bi bi-ui-checks" fill="currentColor" xmlns="http://www.w3.org/2000/svg"><path d="M1.507 1.065 C 0.741 1.270,0.185 1.863,0.039 2.630 C -0.017 2.921,-0.017 5.079,0.039 5.370 C 0.116 5.775,0.287 6.096,0.587 6.401 C 0.927 6.748,1.332 6.938,1.833 6.987 C 2.170 7.019,3.830 7.019,4.167 6.987 C 4.668 6.938,5.073 6.748,5.413 6.401 C 5.713 6.096,5.884 5.775,5.961 5.370 C 6.017 5.079,6.017 2.921,5.961 2.630 C 5.884 2.225,5.713 1.904,5.413 1.599 C 5.186 1.367,4.939 1.211,4.627 1.102 L 4.413 1.027 3.053 1.021 C 1.797 1.016,1.679 1.019,1.507 1.065 M7.290 2.051 C 7.146 2.116,7.047 2.251,7.013 2.426 C 6.999 2.504,6.987 2.762,6.987 3.000 C 6.987 3.238,6.999 3.496,7.013 3.574 C 7.047 3.749,7.146 3.884,7.290 3.949 C 7.396 3.997,7.541 3.999,11.000 3.999 C 14.459 3.999,14.604 3.997,14.710 3.949 C 14.854 3.884,14.953 3.749,14.987 3.574 C 15.021 3.391,15.021 2.609,14.987 2.426 C 14.953 2.251,14.854 2.116,14.710 2.051 C 14.604 2.003,14.459 2.001,11.000 2.001 C 7.541 2.001,7.396 2.003,7.290 2.051 M4.685 2.535 C 4.778 2.570,4.899 2.682,4.951 2.782 C 5.002 2.880,5.002 3.121,4.950 3.218 C 4.890 3.331,2.772 5.433,2.685 5.465 C 2.568 5.509,2.381 5.498,2.272 5.442 C 2.147 5.377,1.114 4.338,1.053 4.215 C 0.911 3.933,1.100 3.563,1.416 3.506 C 1.625 3.468,1.718 3.523,2.121 3.922 L 2.495 4.292 3.334 3.451 C 3.796 2.988,4.215 2.587,4.267 2.559 C 4.371 2.503,4.570 2.492,4.685 2.535 M7.266 5.063 C 7.162 5.126,7.045 5.265,7.023 5.350 C 7.014 5.386,7.012 5.480,7.019 5.559 C 7.033 5.736,7.132 5.877,7.290 5.949 C 7.395 5.997,7.518 5.999,10.000 5.999 C 12.482 5.999,12.605 5.997,12.710 5.949 C 12.884 5.870,12.970 5.734,12.981 5.523 C 12.989 5.367,12.982 5.334,12.918 5.236 C 12.877 5.175,12.800 5.100,12.745 5.069 C 12.646 5.014,12.636 5.013,9.996 5.013 C 7.463 5.014,7.343 5.016,7.266 5.063 M1.507 9.065 C 0.741 9.270,0.185 9.863,0.039 10.630 C -0.017 10.921,-0.017 13.079,0.039 13.370 C 0.116 13.775,0.287 14.096,0.587 14.401 C 0.927 14.748,1.332 14.938,1.833 14.987 C 2.170 15.019,3.830 15.019,4.167 14.987 C 4.668 14.938,5.073 14.748,5.413 14.401 C 5.713 14.096,5.884 13.775,5.961 13.370 C 6.017 13.079,6.017 10.921,5.961 10.630 C 5.884 10.225,5.713 9.904,5.413 9.599 C 5.186 9.367,4.939 9.211,4.627 9.102 L 4.413 9.027 3.053 9.021 C 1.797 9.016,1.679 9.019,1.507 9.065 M7.290 10.051 C 7.146 10.116,7.047 10.251,7.013 10.426 C 6.999 10.504,6.987 10.762,6.987 11.000 C 6.987 11.238,6.999 11.496,7.013 11.574 C 7.047 11.749,7.146 11.884,7.290 11.949 C 7.396 11.997,7.541 11.999,11.000 11.999 C 14.459 11.999,14.604 11.997,14.710 11.949 C 14.854 11.884,14.953 11.749,14.987 11.574 C 15.021 11.391,15.021 10.609,14.987 10.426 C 14.953 10.251,14.854 10.116,14.710 10.051 C 14.604 10.003,14.459 10.001,11.000 10.001 C 7.541 10.001,7.396 10.003,7.290 10.051 M4.685 10.535 C 4.778 10.570,4.899 10.682,4.951 10.782 C 5.002 10.880,5.002 11.121,4.950 11.218 C 4.890 11.331,2.772 13.433,2.685 13.465 C 2.568 13.509,2.381 13.498,2.272 13.442 C 2.147 13.377,1.114 12.338,1.053 12.215 C 0.911 11.933,1.100 11.563,1.416 11.506 C 1.625 11.468,1.718 11.523,2.121 11.922 L 2.495 12.292 3.334 11.451 C 3.796 10.988,4.215 10.587,4.267 10.559 C 4.371 10.503,4.570 10.492,4.685 10.535 M7.266 13.063 C 7.162 13.126,7.045 13.265,7.023 13.350 C 7.014 13.386,7.012 13.480,7.019 13.559 C 7.033 13.736,7.132 13.877,7.290 13.949 C 7.395 13.997,7.518 13.999,10.000 13.999 C 12.482 13.999,12.605 13.997,12.710 13.949 C 12.884 13.870,12.970 13.734,12.981 13.523 C 12.989 13.367,12.982 13.334,12.918 13.236 C 12.877 13.175,12.800 13.100,12.745 13.069 C 12.646 13.014,12.636 13.013,9.996 13.013 C 7.463 13.014,7.343 13.016,7.266 13.063 " stroke="none" fill="black" fill-rule="evenodd"></path></svg>