<svg width="1em" height="1em" viewBox="0 0 16 16" class="bi bi-upc-scan" fill="currentColor" xmlns="http://www.w3.org/2000/svg"><path d="M1.253 0.018 C 0.981 0.064,0.646 0.239,0.443 0.443 C 0.300 0.586,0.150 0.823,0.076 1.021 L 0.015 1.187 0.006 2.887 C -0.002 4.517,-0.000 4.592,0.049 4.703 C 0.127 4.878,0.262 4.969,0.468 4.982 C 0.604 4.991,0.655 4.982,0.738 4.935 C 0.870 4.861,0.963 4.723,0.990 4.565 C 1.001 4.496,1.011 3.746,1.012 2.899 C 1.013 1.607,1.020 1.345,1.052 1.283 C 1.101 1.188,1.262 1.045,1.340 1.027 C 1.373 1.020,2.126 1.010,3.013 1.007 L 4.627 1.000 4.736 0.938 C 4.796 0.903,4.877 0.825,4.918 0.764 C 4.982 0.666,4.989 0.633,4.981 0.477 C 4.970 0.266,4.884 0.130,4.710 0.051 C 4.606 0.004,4.509 0.001,2.960 0.004 C 2.058 0.006,1.290 0.012,1.253 0.018 M11.290 0.051 C 11.131 0.123,11.033 0.264,11.019 0.441 C 11.003 0.628,11.023 0.699,11.124 0.814 C 11.296 1.010,11.189 0.999,13.027 1.013 C 14.252 1.023,14.695 1.035,14.736 1.059 C 14.818 1.106,14.957 1.271,14.973 1.340 C 14.980 1.373,14.989 2.126,14.993 3.013 C 15.001 4.808,14.990 4.704,15.186 4.876 C 15.301 4.977,15.372 4.997,15.559 4.981 C 15.738 4.966,15.878 4.867,15.951 4.704 C 16.000 4.593,16.002 4.515,15.994 2.901 C 15.986 1.236,15.986 1.211,15.927 1.038 C 15.776 0.592,15.408 0.224,14.962 0.073 C 14.789 0.014,14.766 0.014,13.093 0.007 C 11.482 0.000,11.395 0.003,11.290 0.051 M3.290 4.051 C 3.144 4.117,3.046 4.252,3.013 4.432 C 2.995 4.527,2.988 5.799,2.993 8.096 C 3.000 11.470,3.002 11.617,3.050 11.714 C 3.151 11.916,3.358 12.022,3.587 11.988 C 3.744 11.965,3.932 11.803,3.973 11.657 C 4.009 11.526,4.010 4.477,3.974 4.346 C 3.944 4.239,3.784 4.070,3.672 4.028 C 3.560 3.986,3.414 3.995,3.290 4.051 M5.290 4.051 C 5.144 4.117,5.046 4.252,5.013 4.432 C 4.995 4.527,4.988 5.799,4.993 8.096 C 5.000 11.470,5.002 11.617,5.050 11.714 C 5.151 11.916,5.358 12.022,5.587 11.988 C 5.744 11.965,5.932 11.803,5.973 11.657 C 6.009 11.526,6.010 4.477,5.974 4.346 C 5.944 4.239,5.784 4.070,5.672 4.028 C 5.560 3.986,5.414 3.995,5.290 4.051 M7.290 4.051 C 7.144 4.117,7.046 4.252,7.013 4.432 C 6.995 4.527,6.988 5.799,6.993 8.096 C 7.000 11.470,7.002 11.617,7.050 11.714 C 7.151 11.916,7.358 12.022,7.587 11.988 C 7.744 11.965,7.932 11.803,7.973 11.657 C 8.009 11.526,8.010 4.477,7.974 4.346 C 7.944 4.239,7.784 4.070,7.672 4.028 C 7.560 3.986,7.414 3.995,7.290 4.051 M9.290 4.051 C 9.146 4.116,9.047 4.251,9.013 4.426 C 8.977 4.619,8.977 11.381,9.013 11.574 C 9.047 11.749,9.146 11.884,9.290 11.949 C 9.387 11.993,9.471 11.999,10.000 11.999 C 10.529 11.999,10.613 11.993,10.710 11.949 C 10.854 11.884,10.953 11.749,10.987 11.574 C 11.023 11.381,11.023 4.619,10.987 4.426 C 10.953 4.251,10.854 4.116,10.710 4.051 C 10.613 4.007,10.529 4.001,10.000 4.001 C 9.471 4.001,9.387 4.007,9.290 4.051 M12.307 4.037 C 12.201 4.084,12.081 4.206,12.036 4.312 C 11.983 4.439,11.982 11.559,12.036 11.688 C 12.056 11.735,12.121 11.817,12.181 11.871 C 12.423 12.090,12.802 12.012,12.950 11.714 C 12.998 11.617,13.000 11.470,13.007 8.096 C 13.012 5.799,13.005 4.527,12.987 4.432 C 12.972 4.349,12.930 4.246,12.890 4.193 C 12.762 4.026,12.495 3.954,12.307 4.037 M0.280 11.055 C 0.157 11.119,0.085 11.197,0.040 11.317 C 0.003 11.414,-0.001 11.633,0.006 13.120 C 0.015 14.813,0.015 14.813,0.076 14.979 C 0.240 15.422,0.603 15.779,1.038 15.927 C 1.211 15.986,1.236 15.986,2.901 15.994 C 4.515 16.002,4.593 16.000,4.704 15.951 C 4.883 15.872,4.970 15.737,4.981 15.523 C 4.989 15.368,4.982 15.334,4.918 15.237 C 4.772 15.015,4.889 15.028,3.027 15.013 C 1.249 14.999,1.325 15.005,1.164 14.857 C 1.008 14.712,1.013 14.775,1.012 13.101 C 1.011 12.254,1.001 11.504,0.990 11.435 C 0.947 11.177,0.758 11.013,0.503 11.013 C 0.424 11.014,0.324 11.032,0.280 11.055 M15.293 11.043 C 15.205 11.094,15.091 11.208,15.044 11.293 C 15.005 11.365,14.999 11.541,14.993 12.987 C 14.989 13.874,14.980 14.627,14.973 14.660 C 14.955 14.739,14.812 14.898,14.709 14.955 C 14.635 14.996,14.463 15.001,12.973 15.013 C 11.748 15.023,11.305 15.035,11.264 15.059 C 11.179 15.107,11.043 15.272,11.024 15.348 C 11.015 15.385,11.012 15.480,11.019 15.559 C 11.034 15.738,11.133 15.878,11.296 15.951 C 11.407 16.000,11.485 16.002,13.099 15.994 C 14.764 15.986,14.789 15.986,14.962 15.927 C 15.405 15.777,15.777 15.405,15.927 14.962 C 15.986 14.789,15.986 14.764,15.994 13.099 C 16.002 11.485,16.000 11.407,15.951 11.296 C 15.923 11.233,15.855 11.146,15.799 11.104 C 15.717 11.041,15.669 11.027,15.523 11.020 C 15.423 11.015,15.324 11.025,15.293 11.043 " stroke="none" fill="black" fill-rule="evenodd"></path></svg>