<svg width="1em" height="1em" viewBox="0 0 16 16" class="bi bi-wallet" fill="currentColor" xmlns="http://www.w3.org/2000/svg"><path d="M2.610 2.040 C 2.224 2.117,1.896 2.294,1.599 2.587 C 1.240 2.939,1.060 3.335,1.011 3.875 C 0.993 4.067,0.987 5.718,0.993 8.493 C 1.002 12.522,1.006 12.827,1.050 13.013 C 1.289 14.019,2.015 14.736,3.013 14.951 C 3.229 14.998,3.503 15.000,8.480 15.000 C 13.492 15.000,13.727 14.998,13.880 14.951 C 14.404 14.790,14.770 14.428,14.950 13.893 C 14.997 13.754,15.000 13.551,15.008 9.733 C 15.013 7.526,15.009 5.634,15.000 5.529 C 14.979 5.299,14.897 5.155,14.736 5.064 C 14.639 5.009,14.597 5.004,14.314 5.009 L 14.000 5.014 14.000 4.017 L 14.000 3.021 14.316 3.008 C 14.684 2.992,14.797 2.947,14.918 2.764 C 14.982 2.666,14.989 2.633,14.981 2.477 C 14.970 2.266,14.884 2.130,14.710 2.051 C 14.604 2.003,14.408 2.001,8.693 2.003 C 3.906 2.005,2.753 2.012,2.610 2.040 M12.987 4.013 L 12.987 5.013 8.033 5.013 C 5.108 5.012,3.001 5.001,2.887 4.987 C 2.472 4.933,2.159 4.666,2.042 4.268 C 1.892 3.755,2.200 3.197,2.720 3.038 C 2.757 3.027,5.082 3.017,7.887 3.016 L 12.987 3.013 12.987 4.013 M2.493 5.939 C 2.644 5.984,2.967 5.987,8.327 5.994 L 14.000 6.001 14.000 9.780 C 14.000 12.244,13.990 13.594,13.973 13.657 C 13.933 13.799,13.743 13.965,13.596 13.986 C 13.532 13.995,11.170 13.999,8.347 13.995 L 3.213 13.987 3.038 13.927 C 2.603 13.779,2.242 13.424,2.076 12.979 L 2.013 12.813 2.006 9.274 L 1.999 5.736 2.166 5.813 C 2.258 5.856,2.405 5.913,2.493 5.939 " stroke="none" fill="black" fill-rule="evenodd"></path></svg>