<svg width="1em" height="1em" viewBox="0 0 16 16" class="bi bi-watch" fill="currentColor" xmlns="http://www.w3.org/2000/svg"><path d="M5.307 0.041 C 4.837 0.142,4.401 0.481,4.190 0.908 C 4.012 1.268,4.001 1.366,4.000 2.515 L 4.000 3.523 3.765 3.755 C 2.795 4.712,2.162 6.050,2.028 7.425 C 1.857 9.190,2.491 10.962,3.750 12.234 L 4.000 12.486 4.000 13.490 C 4.001 14.632,4.013 14.732,4.188 15.088 C 4.399 15.516,4.848 15.862,5.320 15.960 C 5.598 16.018,10.403 16.018,10.680 15.960 C 11.157 15.860,11.588 15.528,11.808 15.093 C 11.987 14.736,11.999 14.638,12.000 13.488 L 12.000 12.483 12.247 12.234 C 12.826 11.649,13.284 10.952,13.583 10.198 C 13.684 9.944,13.843 9.401,13.894 9.140 L 13.924 8.987 14.030 8.987 C 14.232 8.987,14.404 8.854,14.476 8.643 C 14.518 8.520,14.518 7.480,14.476 7.357 C 14.404 7.146,14.232 7.013,14.030 7.013 L 13.924 7.013 13.894 6.860 C 13.843 6.599,13.684 6.056,13.583 5.802 C 13.285 5.051,12.822 4.344,12.250 3.766 L 12.000 3.514 12.000 2.510 C 11.999 1.362,11.987 1.264,11.808 0.907 C 11.588 0.472,11.157 0.140,10.680 0.040 C 10.410 -0.016,5.570 -0.015,5.307 0.041 M8.717 3.055 C 10.726 3.350,12.352 4.822,12.852 6.797 C 13.033 7.513,13.033 8.487,12.852 9.203 C 12.760 9.566,12.613 9.953,12.436 10.294 C 11.693 11.729,10.316 12.710,8.717 12.945 C 8.347 12.999,7.653 12.999,7.283 12.945 C 5.092 12.623,3.377 10.908,3.055 8.717 C 3.001 8.347,3.001 7.653,3.055 7.283 C 3.137 6.723,3.300 6.216,3.563 5.707 C 4.295 4.285,5.672 3.299,7.267 3.055 C 7.603 3.004,8.366 3.004,8.717 3.055 M7.800 4.544 C 7.690 4.592,7.556 4.751,7.522 4.873 C 7.504 4.936,7.494 5.436,7.493 6.233 L 7.493 7.493 6.727 7.493 C 6.250 7.494,5.920 7.505,5.854 7.523 C 5.712 7.562,5.560 7.719,5.520 7.865 C 5.448 8.132,5.601 8.407,5.861 8.479 C 6.000 8.517,8.006 8.516,8.146 8.477 C 8.282 8.439,8.439 8.282,8.477 8.146 C 8.517 8.003,8.518 5.015,8.478 4.873 C 8.444 4.747,8.309 4.590,8.195 4.543 C 8.086 4.497,7.905 4.498,7.800 4.544 " stroke="none" fill="black" fill-rule="evenodd"></path></svg>