<svg width="1em" height="1em" viewBox="0 0 16 16" class="bi bi-wrench" fill="currentColor" xmlns="http://www.w3.org/2000/svg"><path d="M2.693 0.014 C 2.671 0.019,2.560 0.037,2.447 0.055 C 2.333 0.073,2.240 0.095,2.240 0.104 C 2.240 0.113,2.718 0.600,3.303 1.187 L 4.365 2.253 4.185 3.115 C 4.086 3.589,3.999 3.983,3.991 3.991 C 3.984 3.999,3.590 4.086,3.115 4.185 L 2.253 4.366 1.183 3.300 C 0.595 2.714,0.106 2.246,0.096 2.262 C 0.065 2.312,0.000 2.810,0.000 3.000 C 0.000 3.561,0.186 4.167,0.510 4.667 C 0.647 4.879,1.104 5.338,1.315 5.476 C 1.875 5.845,2.508 6.023,3.133 5.989 C 3.295 5.981,3.505 5.957,3.600 5.936 L 3.773 5.898 4.147 6.264 C 6.351 8.421,10.107 12.146,10.107 12.174 C 10.107 12.194,10.086 12.292,10.061 12.392 C 9.991 12.674,9.998 13.354,10.074 13.659 C 10.198 14.155,10.397 14.554,10.704 14.922 C 11.567 15.956,13.019 16.283,14.251 15.722 C 14.890 15.431,15.478 14.826,15.751 14.181 C 15.802 14.060,15.875 13.834,15.914 13.680 C 15.973 13.441,15.983 13.342,15.983 13.000 C 15.983 12.657,15.973 12.560,15.913 12.320 C 15.758 11.699,15.504 11.259,15.050 10.826 C 14.573 10.371,14.017 10.110,13.349 10.026 C 13.051 9.988,12.635 10.005,12.387 10.066 C 12.299 10.087,12.207 10.105,12.182 10.106 C 12.148 10.106,8.789 6.724,6.224 4.107 L 5.898 3.773 5.935 3.600 C 6.144 2.632,5.815 1.564,5.091 0.860 C 4.513 0.298,3.755 -0.007,2.965 0.003 C 2.837 0.005,2.715 0.010,2.693 0.014 M13.253 11.133 C 13.482 11.248,13.503 11.253,13.726 11.254 C 13.855 11.254,13.973 11.263,13.989 11.274 C 14.005 11.285,14.079 11.389,14.154 11.507 C 14.271 11.690,14.317 11.737,14.480 11.836 C 14.753 12.004,14.747 11.994,14.747 12.269 C 14.747 12.500,14.751 12.516,14.870 12.753 L 14.993 12.998 14.870 13.246 C 14.751 13.485,14.747 13.503,14.747 13.732 C 14.747 14.005,14.753 13.996,14.480 14.164 C 14.317 14.263,14.271 14.310,14.154 14.493 C 14.079 14.611,14.005 14.715,13.989 14.726 C 13.973 14.737,13.855 14.746,13.727 14.746 C 13.504 14.747,13.483 14.752,13.246 14.870 L 12.998 14.993 12.753 14.870 C 12.516 14.751,12.500 14.747,12.269 14.747 C 12.106 14.747,12.019 14.735,11.995 14.711 C 11.976 14.692,11.906 14.589,11.840 14.483 C 11.737 14.318,11.689 14.271,11.507 14.154 C 11.389 14.079,11.285 14.005,11.274 13.989 C 11.263 13.973,11.254 13.855,11.254 13.726 C 11.253 13.502,11.248 13.482,11.130 13.247 L 11.007 13.002 11.130 12.754 C 11.248 12.517,11.253 12.496,11.254 12.273 C 11.254 12.145,11.263 12.027,11.274 12.011 C 11.285 11.995,11.389 11.921,11.507 11.846 C 11.689 11.729,11.737 11.682,11.840 11.517 C 11.906 11.411,11.976 11.308,11.995 11.289 C 12.019 11.265,12.108 11.253,12.275 11.252 C 12.511 11.251,12.528 11.246,12.747 11.133 C 12.871 11.069,12.983 11.015,12.994 11.015 C 13.005 11.014,13.122 11.067,13.253 11.133 " stroke="none" fill="black" fill-rule="evenodd"></path></svg>