<svg xmlns="http://www.w3.org/2000/svg" width="512" height="512" viewBox="0 0 512 512"><path d="M243.627 48.295 C 200.707 51.540,163.787 65.309,129.707 90.781 C 119.276 98.577,98.579 119.277,90.713 129.782 C 68.255 159.772,54.418 193.768,49.413 231.253 C 48.019 241.696,48.019 270.304,49.413 280.747 C 59.554 356.698,107.829 420.063,177.067 448.304 C 203.509 459.089,227.771 463.751,256.853 463.634 C 290.198 463.499,318.398 456.932,347.733 442.471 C 410.837 411.362,453.091 351.864,462.587 280.747 C 463.981 270.304,463.981 241.696,462.587 231.253 C 453.091 160.136,410.837 100.638,347.733 69.529 C 327.592 59.600,306.356 53.073,283.994 49.939 C 275.010 48.680,251.306 47.715,243.627 48.295 M275.447 81.114 C 347.484 88.943,408.291 141.727,426.231 212.001 C 448.394 298.823,402.945 387.270,319.249 420.197 C 293.994 430.132,262.077 434.038,234.686 430.544 C 145.853 419.214,80.213 345.046,80.213 256.000 C 80.213 167.651,145.919 92.766,233.311 81.514 C 244.096 80.125,264.562 79.931,275.447 81.114 M248.175 162.156 C 244.700 163.992,242.256 167.054,240.771 171.434 C 240.095 173.425,239.787 184.595,239.787 207.061 L 239.787 239.787 207.061 239.787 C 173.258 239.787,171.082 239.979,166.167 243.402 C 158.609 248.667,158.609 263.333,166.167 268.598 C 171.082 272.021,173.258 272.213,207.061 272.213 L 239.787 272.213 239.787 304.939 C 239.787 338.742,239.979 340.918,243.402 345.833 C 248.667 353.391,263.333 353.391,268.598 345.833 C 272.021 340.918,272.213 338.742,272.213 304.939 L 272.213 272.213 304.939 272.213 C 338.742 272.213,340.918 272.021,345.833 268.598 C 353.391 263.333,353.391 248.667,345.833 243.402 C 340.918 239.979,338.742 239.787,304.939 239.787 L 272.213 239.787 272.213 207.061 C 272.213 173.258,272.021 171.082,268.598 166.167 C 264.784 160.693,254.696 158.711,248.175 162.156 " stroke="none" fill="black" fill-rule="evenodd"></path></svg>