<svg xmlns="http://www.w3.org/2000/svg" width="512" height="512" viewBox="0 0 512 512"><path d="M248.175 98.156 C 244.700 99.992,242.256 103.054,240.771 107.434 C 240.062 109.524,239.787 128.432,239.787 175.061 L 239.787 239.787 175.061 239.787 C 107.808 239.787,107.324 239.811,102.167 243.402 C 94.609 248.667,94.609 263.333,102.167 268.598 C 107.324 272.189,107.808 272.213,175.061 272.213 L 239.787 272.213 239.787 336.939 C 239.787 404.192,239.811 404.676,243.402 409.833 C 248.667 417.391,263.333 417.391,268.598 409.833 C 272.189 404.676,272.213 404.192,272.213 336.939 L 272.213 272.213 336.939 272.213 C 383.568 272.213,402.476 271.938,404.566 271.229 C 411.719 268.803,415.573 263.470,415.573 256.000 C 415.573 248.530,411.719 243.197,404.566 240.771 C 402.476 240.062,383.568 239.787,336.939 239.787 L 272.213 239.787 272.213 175.061 C 272.213 107.808,272.189 107.324,268.598 102.167 C 264.784 96.693,254.696 94.711,248.175 98.156 " stroke="none" fill="black" fill-rule="evenodd"></path></svg>