<svg xmlns="http://www.w3.org/2000/svg" width="512" height="512" viewBox="0 0 512 512"><path d="M216.747 48.161 C 216.747 48.495,280.569 111.955,327.893 158.678 L 345.600 176.160 345.600 111.973 L 345.600 47.787 281.173 47.787 C 245.739 47.787,216.747 47.955,216.747 48.161 M130.548 96.249 L 80.616 133.547 124.427 133.768 C 148.522 133.889,187.888 133.889,211.905 133.768 L 255.573 133.547 218.959 96.427 C 198.821 76.011,181.925 59.227,181.412 59.129 C 180.899 59.031,158.011 75.735,130.548 96.249 M378.027 167.512 C 378.027 215.711,378.259 255.147,378.544 255.147 C 378.828 255.147,394.092 240.492,412.464 222.581 C 430.835 204.670,447.712 188.228,449.968 186.043 L 454.069 182.070 418.820 134.769 C 399.432 108.753,382.323 85.759,380.798 83.672 L 378.027 79.877 378.027 167.512 M47.787 230.185 L 47.787 293.969 111.360 230.400 C 146.325 195.437,174.933 166.734,174.933 166.615 C 174.933 166.497,146.325 166.400,111.360 166.400 L 47.787 166.400 47.787 230.185 M194.342 194.351 L 166.400 222.303 166.400 256.000 L 166.400 289.697 194.342 317.649 L 222.284 345.600 256.000 345.600 L 289.716 345.600 317.658 317.649 L 345.600 289.697 345.600 255.990 L 345.600 222.284 317.649 194.342 L 289.697 166.400 255.990 166.400 L 222.284 166.400 194.342 194.351 M399.360 280.320 L 335.791 343.893 400.002 343.893 L 464.213 343.893 464.213 280.320 C 464.213 245.355,463.924 216.747,463.571 216.747 C 463.218 216.747,434.323 245.355,399.360 280.320 M96.000 293.031 C 75.349 313.164,58.563 330.005,58.697 330.457 C 58.832 330.908,75.728 353.802,96.244 381.331 L 133.547 431.385 133.768 387.574 C 133.889 363.478,133.889 324.112,133.768 300.095 L 133.547 256.427 96.000 293.031 M166.400 400.640 L 166.400 464.213 230.185 464.213 L 293.969 464.213 230.400 400.640 C 195.437 365.675,166.734 337.067,166.615 337.067 C 166.497 337.067,166.400 365.675,166.400 400.640 M256.853 378.544 C 256.853 378.828,271.508 394.092,289.419 412.464 C 307.330 430.835,323.777 447.717,325.968 449.979 L 329.951 454.091 380.656 416.356 C 408.543 395.602,431.520 378.487,431.716 378.324 C 431.911 378.160,392.647 378.027,344.462 378.027 C 296.277 378.027,256.853 378.259,256.853 378.544 " stroke="none" fill="black" fill-rule="evenodd"></path></svg>