<svg xmlns="http://www.w3.org/2000/svg" width="512" height="512" viewBox="0 0 512 512"><path d="M95.548 48.640 C 84.064 50.453,72.976 56.178,64.592 64.622 C 57.990 71.272,53.503 78.613,50.639 87.449 C 47.565 96.933,47.401 110.153,50.241 119.467 C 56.244 139.154,72.516 154.379,92.160 158.689 C 97.955 159.960,111.618 159.741,117.367 158.285 C 137.236 153.251,153.251 137.236,158.285 117.367 C 159.741 111.618,159.960 97.955,158.689 92.160 C 154.446 72.820,139.134 56.245,120.180 50.473 C 113.479 48.432,102.187 47.592,95.548 48.640 M247.797 48.589 C 235.851 50.477,225.695 55.760,216.674 64.781 C 205.467 75.988,200.269 88.492,200.327 104.107 C 200.408 126.066,212.012 144.539,231.680 154.021 C 240.823 158.428,245.838 159.573,256.000 159.573 C 266.224 159.573,271.165 158.431,280.671 153.869 C 294.955 147.014,306.158 133.315,310.201 117.760 C 313.508 105.038,311.364 88.461,304.917 76.913 C 300.908 69.730,291.635 60.085,284.893 56.083 C 274.459 49.891,259.142 46.797,247.797 48.589 M399.690 48.589 C 377.402 52.110,358.807 69.197,353.666 90.880 C 352.071 97.604,352.096 110.978,353.715 117.367 C 357.641 132.866,368.656 146.763,382.322 153.463 C 392.898 158.648,398.613 159.850,410.431 159.375 C 422.063 158.908,428.320 157.062,437.448 151.403 C 448.896 144.306,457.719 132.715,461.759 119.467 C 464.599 110.153,464.435 96.933,461.361 87.449 C 455.649 69.824,442.178 56.295,424.877 50.807 C 417.653 48.515,406.419 47.526,399.690 48.589 M114.883 82.596 C 123.190 86.870,128.706 97.019,127.751 106.272 C 125.759 125.572,102.897 134.680,88.423 121.939 C 83.133 117.283,80.911 112.759,80.397 105.597 C 79.679 95.591,84.988 86.641,94.293 82.172 C 97.912 80.435,99.532 80.174,104.960 80.454 C 109.284 80.677,112.503 81.372,114.883 82.596 M266.240 82.302 C 271.215 84.818,276.347 90.425,278.195 95.364 C 281.709 104.757,279.741 113.757,272.616 120.882 C 263.068 130.430,248.924 130.422,239.364 120.862 C 233.787 115.285,231.698 109.705,232.314 102.031 C 232.805 95.910,234.498 92.154,238.814 87.610 C 241.913 84.347,245.120 82.287,249.168 80.960 C 252.632 79.824,262.943 80.635,266.240 82.302 M417.707 82.226 C 422.977 84.691,428.464 90.532,430.489 95.834 C 432.662 101.525,431.963 110.306,428.925 115.491 C 417.039 135.772,386.646 129.500,384.249 106.272 C 383.116 95.298,390.484 84.228,401.061 81.011 C 405.663 79.611,413.310 80.169,417.707 82.226 M97.280 200.508 C 84.246 202.232,74.251 207.204,64.781 216.674 C 53.419 228.036,48.303 240.247,48.303 256.000 C 48.303 271.753,53.419 283.964,64.781 295.326 C 71.695 302.241,79.278 306.999,87.040 309.294 C 114.255 317.342,142.043 305.324,154.039 280.320 C 158.431 271.164,159.573 266.144,159.573 256.000 C 159.573 245.856,158.431 240.836,154.039 231.680 C 143.723 210.178,120.519 197.434,97.280 200.508 M248.721 200.547 C 235.942 202.273,225.965 207.368,216.301 217.104 C 205.349 228.137,200.323 240.371,200.323 256.000 C 200.323 271.901,205.329 283.896,216.716 295.284 C 228.108 306.675,240.029 311.639,256.000 311.639 C 271.971 311.639,283.892 306.675,295.284 295.284 C 306.675 283.892,311.639 271.971,311.639 256.000 C 311.639 246.349,309.988 239.256,305.680 230.400 C 301.323 221.442,290.558 210.677,281.600 206.320 C 271.031 201.179,259.297 199.119,248.721 200.547 M403.627 200.228 C 383.272 202.211,366.672 213.649,357.979 231.680 C 353.572 240.823,352.427 245.838,352.427 256.000 C 352.427 266.224,353.569 271.165,358.131 280.671 C 361.274 287.220,363.190 289.901,368.513 295.202 C 379.625 306.268,392.420 311.618,407.893 311.670 C 423.581 311.722,435.571 306.797,446.804 295.688 C 458.584 284.037,463.697 272.024,463.697 256.000 C 463.697 239.976,458.584 227.963,446.804 216.312 C 436.665 206.285,425.791 201.322,411.733 200.306 C 408.917 200.103,405.269 200.068,403.627 200.228 M112.267 233.537 C 118.277 235.585,124.878 242.382,126.649 248.349 C 129.489 257.910,127.588 265.910,120.882 272.616 C 109.068 284.430,90.204 281.318,82.234 266.240 C 80.010 262.034,80.011 249.964,82.235 245.760 C 85.358 239.856,91.400 234.691,97.274 232.904 C 101.013 231.767,107.929 232.059,112.267 233.537 M264.161 233.537 C 269.800 235.458,276.542 242.200,278.463 247.839 C 281.599 257.043,279.560 265.832,272.696 272.696 C 262.993 282.398,249.007 282.398,239.304 272.696 C 229.594 262.986,229.601 249.008,239.320 239.288 C 246.146 232.463,254.995 230.414,264.161 233.537 M416.636 233.805 C 421.531 235.637,427.091 240.699,429.766 245.760 C 430.945 247.989,431.345 250.588,431.345 256.000 C 431.345 264.325,430.255 267.083,424.682 272.861 C 415.548 282.330,400.723 282.221,391.118 272.616 C 381.572 263.070,381.579 248.923,391.134 239.368 C 398.223 232.279,407.277 230.304,416.636 233.805 M90.880 353.656 C 71.232 358.648,56.184 373.045,50.241 392.533 C 47.401 401.847,47.565 415.067,50.639 424.551 C 56.366 442.221,69.745 455.592,87.467 461.358 C 93.047 463.173,96.007 463.591,103.680 463.645 C 119.778 463.758,131.869 458.764,143.455 447.219 C 148.763 441.931,150.662 439.264,153.837 432.640 C 158.460 422.995,159.573 418.137,159.573 407.604 C 159.573 397.952,158.072 391.742,153.459 382.322 C 146.769 368.660,132.869 357.642,117.367 353.715 C 111.223 352.158,96.899 352.126,90.880 353.656 M242.496 353.671 C 230.697 356.527,217.725 365.466,210.440 375.762 C 198.130 393.161,196.822 416.620,207.126 435.200 C 211.114 442.391,221.534 452.803,228.693 456.750 C 245.605 466.073,265.568 466.202,282.880 457.099 C 289.719 453.503,300.945 442.332,304.886 435.200 C 311.374 423.457,313.513 406.980,310.201 394.240 C 305.179 374.918,288.375 358.172,269.556 353.736 C 262.963 352.182,248.790 352.148,242.496 353.671 M394.389 353.623 C 391.890 354.255,386.527 356.415,382.472 358.425 C 371.802 363.712,363.374 372.299,358.131 383.222 C 356.011 387.639,353.861 393.288,353.352 395.775 C 352.060 402.090,352.220 415.022,353.666 421.120 C 358.212 440.296,373.061 455.821,392.533 461.759 C 401.853 464.601,415.075 464.435,424.533 461.358 C 442.322 455.571,455.613 442.287,461.361 424.551 C 464.435 415.067,464.599 401.847,461.759 392.533 C 456.460 375.156,443.213 361.128,426.502 355.196 C 421.308 353.352,418.486 352.941,409.600 352.729 C 402.672 352.564,397.341 352.878,394.389 353.623 M114.372 386.541 C 119.547 389.137,122.634 392.165,125.167 397.131 C 131.034 408.632,126.881 422.250,115.465 428.940 C 109.884 432.211,101.015 432.707,94.930 430.089 C 89.505 427.755,83.600 421.636,81.521 416.192 C 79.538 410.999,80.044 402.143,82.610 397.117 C 85.001 392.434,91.501 386.831,96.349 385.274 C 101.653 383.570,109.559 384.126,114.372 386.541 M263.651 385.351 C 269.618 387.122,276.415 393.723,278.463 399.733 C 282.423 411.354,277.311 423.914,266.240 429.766 C 262.035 431.989,249.965 431.989,245.760 429.766 C 230.675 421.792,227.570 402.932,239.395 391.107 C 246.083 384.419,254.105 382.516,263.651 385.351 M415.242 385.261 C 420.414 386.797,425.881 391.319,429.019 396.658 C 431.078 400.160,431.359 401.514,431.353 407.893 C 431.344 416.069,430.251 418.943,425.079 424.392 C 419.890 429.859,416.237 431.338,407.893 431.350 C 401.511 431.359,400.162 431.079,396.658 429.019 C 377.814 417.942,380.997 391.160,401.914 384.797 C 405.414 383.733,410.719 383.917,415.242 385.261 " stroke="none" fill="black" fill-rule="evenodd"></path></svg>