<svg xmlns="http://www.w3.org/2000/svg" width="512" height="512" viewBox="0 0 512 512"><path d="M238.790 48.708 C 199.901 51.925,162.269 66.422,129.782 90.701 C 119.266 98.560,98.560 119.266,90.701 129.782 C 69.069 158.727,55.338 191.226,50.352 225.280 C 42.149 281.314,56.217 336.040,90.695 382.218 C 98.476 392.640,119.191 413.346,129.707 421.213 C 160.300 444.101,192.921 457.398,231.253 462.606 C 242.659 464.156,272.000 463.930,283.567 462.204 C 353.989 451.696,412.003 409.894,442.434 347.733 C 457.257 317.454,463.599 289.966,463.599 256.000 C 463.599 222.419,457.247 194.557,442.880 165.120 C 431.962 142.752,420.990 127.453,402.774 109.202 C 384.698 91.090,369.338 80.067,346.880 69.089 C 313.251 52.649,276.017 45.629,238.790 48.708 M271.614 163.093 C 273.117 164.208,292.828 183.744,315.416 206.507 C 354.609 246.002,356.524 248.079,357.339 251.947 C 357.909 254.651,357.909 257.349,357.339 260.053 C 356.524 263.921,354.607 266.000,315.422 305.493 C 292.838 328.256,272.821 347.969,270.940 349.300 C 267.859 351.480,266.962 351.689,261.879 351.412 C 257.268 351.160,255.655 350.659,253.040 348.665 C 249.517 345.978,246.659 340.610,246.637 336.640 C 246.597 329.311,247.146 328.619,275.891 299.733 L 303.278 272.213 235.820 272.213 C 187.127 272.213,167.554 271.940,165.461 271.229 C 158.447 268.851,154.256 263.154,154.256 256.000 C 154.256 248.846,158.447 243.149,165.461 240.771 C 167.554 240.060,187.127 239.787,235.820 239.787 L 303.278 239.787 275.891 212.267 C 247.146 183.381,246.597 182.689,246.637 175.360 C 246.702 163.385,261.928 155.907,271.614 163.093 " stroke="none" fill="black" fill-rule="evenodd"></path></svg>