<svg xmlns="http://www.w3.org/2000/svg" width="512" height="512" viewBox="0 0 512 512"><path d="M236.654 49.512 C 189.777 54.058,146.407 73.773,112.132 106.119 C 77.521 138.780,53.837 186.515,48.686 233.993 C 46.543 253.741,47.910 279.986,52.166 300.800 C 56.539 322.188,69.067 352.027,81.545 370.773 C 140.071 458.697,252.791 489.523,346.880 443.336 C 391.343 421.509,427.027 384.185,446.240 339.407 C 486.060 246.607,454.589 140.095,370.680 83.676 C 345.130 66.496,315.468 55.216,284.160 50.773 C 272.460 49.112,247.582 48.452,236.654 49.512 M287.109 131.851 C 345.201 140.606,380.555 181.641,380.582 240.342 C 380.595 271.128,370.320 296.600,352.476 310.014 C 332.696 324.883,310.169 324.444,294.162 308.877 L 288.997 303.855 283.811 307.753 C 277.312 312.638,270.968 315.860,262.797 318.426 C 254.311 321.091,237.652 321.298,230.400 318.828 C 221.975 315.959,214.129 311.297,208.664 305.912 C 187.654 285.210,185.180 248.286,203.070 222.407 C 221.972 195.064,256.368 185.333,289.267 198.020 C 297.364 201.142,306.533 207.441,311.340 213.183 L 314.923 217.461 311.831 241.637 C 307.987 271.691,307.846 277.850,310.855 284.421 C 313.521 290.245,316.984 292.689,322.560 292.682 C 334.051 292.666,344.873 281.023,350.070 263.082 C 351.779 257.185,351.998 254.530,351.999 239.787 C 352.000 225.064,351.773 222.317,350.033 215.950 C 343.831 193.249,330.327 176.995,309.596 167.280 C 290.228 158.204,263.675 155.863,241.050 161.236 C 205.889 169.587,175.449 197.759,163.363 233.134 C 159.414 244.692,158.310 252.139,158.391 266.667 C 158.457 278.478,158.765 281.438,160.668 288.602 C 164.869 304.412,172.315 317.512,183.402 328.598 C 202.395 347.592,227.002 355.876,257.115 353.417 C 269.289 352.422,279.047 350.432,289.280 346.858 C 300.336 342.996,307.242 344.312,311.424 351.077 C 315.200 357.188,312.723 366.703,306.459 370.140 C 300.090 373.635,283.891 378.188,270.743 380.177 C 259.506 381.878,236.283 381.883,225.748 380.188 C 201.892 376.349,180.216 365.236,163.431 348.237 C 146.111 330.697,136.657 312.483,131.719 287.147 C 129.481 275.661,129.674 255.071,132.137 242.555 C 137.723 214.166,150.019 191.186,170.615 170.642 C 191.985 149.326,216.224 136.659,244.907 131.816 C 253.984 130.283,276.834 130.302,287.109 131.851 M252.344 220.995 C 245.519 222.230,237.567 226.518,231.757 232.097 C 222.354 241.127,218.839 250.173,219.489 263.674 C 219.947 273.193,222.155 279.080,227.470 284.964 C 232.875 290.947,236.268 292.269,246.187 292.255 C 253.628 292.245,255.344 291.953,259.599 289.968 C 268.320 285.901,275.277 278.055,279.111 267.965 C 280.600 264.047,285.013 235.321,285.013 229.548 C 285.013 227.487,284.424 226.721,281.813 225.391 C 273.991 221.407,260.876 219.451,252.344 220.995 " stroke="none" fill="black" fill-rule="evenodd"></path></svg>