<svg xmlns="http://www.w3.org/2000/svg" width="512" height="512" viewBox="0 0 512 512"><path d="M251.733 63.195 C 213.082 67.456,176.276 82.579,144.213 107.373 C 134.230 115.093,114.370 135.194,106.551 145.493 C 56.167 211.854,49.345 297.626,89.226 363.315 C 112.195 401.149,150.018 428.938,194.087 440.357 C 211.444 444.855,220.908 445.869,244.907 445.806 C 269.293 445.741,281.134 444.511,297.177 440.374 C 306.685 437.922,322.205 432.484,327.484 429.755 C 331.837 427.504,334.748 422.941,335.184 417.685 C 335.682 411.678,335.043 409.417,331.808 405.732 C 325.879 398.980,320.452 398.547,306.713 403.734 C 286.127 411.504,271.434 413.870,243.807 413.862 C 219.995 413.855,204.755 411.402,187.426 404.789 C 142.808 387.763,111.208 352.190,99.965 306.334 C 96.225 291.081,95.265 281.345,95.817 264.248 C 96.633 238.909,101.306 220.102,112.598 196.693 C 139.047 141.868,190.530 104.226,250.921 95.556 C 260.367 94.200,286.356 94.446,298.240 96.003 C 365.111 104.766,407.319 144.568,416.056 207.103 C 417.981 220.883,417.380 245.815,414.813 258.637 C 409.063 287.364,396.653 306.089,377.392 315.103 C 365.927 320.467,353.326 318.919,345.347 311.165 C 338.734 304.738,334.550 292.978,334.525 280.747 C 334.518 277.696,336.432 253.585,338.777 227.167 C 341.121 200.749,343.040 177.216,343.040 174.873 C 343.040 169.347,341.478 165.746,337.605 162.346 C 333.826 159.028,331.604 158.396,325.499 158.902 C 317.045 159.603,312.213 165.596,311.011 176.875 L 310.485 181.803 306.202 177.952 C 296.824 169.520,283.040 162.674,270.100 160.021 C 261.213 158.199,245.641 158.202,236.780 160.028 C 203.396 166.907,174.677 194.879,164.362 230.561 C 149.109 283.326,172.236 333.674,218.027 347.392 C 225.686 349.687,244.266 350.531,254.424 349.046 C 273.410 346.270,293.887 335.854,307.139 322.230 L 310.917 318.346 314.195 323.362 C 326.648 342.421,348.724 352.884,370.396 349.998 C 405.129 345.374,433.665 315.974,444.157 274.004 C 454.194 233.850,449.773 186.661,432.695 151.680 C 409.444 104.050,365.327 73.667,306.611 64.846 C 293.030 62.805,263.364 61.913,251.733 63.195 M265.740 191.981 C 274.958 194.339,280.163 197.393,287.591 204.800 C 300.420 217.594,305.958 234.561,303.776 254.386 C 299.692 291.504,276.309 316.060,243.200 318.003 C 218.817 319.433,200.115 304.901,193.706 279.543 C 191.777 271.913,191.391 257.191,192.897 248.690 C 199.789 209.778,233.305 183.686,265.740 191.981 " stroke="none" fill="black" fill-rule="evenodd"></path></svg>