<svg xmlns="http://www.w3.org/2000/svg" width="512" height="512" viewBox="0 0 512 512"><path d="M374.187 17.523 C 359.780 20.189,346.155 25.688,333.753 33.841 C 327.824 37.739,318.748 46.293,286.899 78.004 C 254.233 110.529,247.442 117.688,247.646 119.381 C 248.066 122.857,250.143 123.433,256.319 121.788 C 266.125 119.175,274.681 120.276,285.867 125.590 C 293.112 129.033,293.170 129.086,338.042 173.958 C 382.914 218.830,382.967 218.888,386.410 226.133 C 391.724 237.319,392.825 245.875,390.212 255.681 C 388.581 261.802,389.136 263.894,392.523 264.395 C 394.108 264.629,401.485 257.686,431.966 227.275 C 453.699 205.592,471.773 186.818,474.962 182.613 C 488.404 164.890,495.787 142.643,495.787 119.855 C 495.787 71.886,463.651 30.849,416.853 19.057 C 405.917 16.301,384.879 15.545,374.187 17.523 M257.280 154.147 C 252.995 156.376,158.774 250.821,156.945 254.720 C 154.974 258.921,154.859 264.573,156.669 268.202 C 158.548 271.969,239.457 353.001,243.379 355.044 C 247.192 357.030,252.359 357.162,256.667 355.384 C 260.603 353.759,355.126 259.723,357.604 254.967 C 359.633 251.072,359.770 244.151,357.891 240.384 C 356.012 236.618,275.956 156.439,272.034 154.396 C 268.168 152.382,260.908 152.259,257.280 154.147 M262.435 193.604 C 274.396 199.037,275.121 216.030,263.642 221.886 C 256.966 225.292,247.271 223.317,243.302 217.743 C 233.763 204.347,247.615 186.872,262.435 193.604 M85.722 280.960 C 40.723 326.052,38.081 329.083,30.489 344.320 C 26.852 351.618,22.756 364.305,21.259 372.907 C 19.828 381.127,19.828 398.819,21.259 407.040 C 27.045 440.281,47.930 468.254,78.193 483.299 C 106.076 497.160,139.919 497.526,167.904 484.269 C 183.399 476.929,185.530 475.095,229.760 431.031 C 258.920 401.980,271.360 389.038,271.360 387.751 C 271.360 384.140,269.296 383.542,262.719 385.248 C 251.537 388.149,237.555 385.489,227.516 378.552 C 225.113 376.891,203.537 355.838,179.569 331.766 C 129.751 281.733,130.483 282.649,129.889 269.653 C 129.642 264.248,130.038 260.335,131.443 254.293 C 134.077 242.966,134.318 240.804,133.110 239.348 C 132.531 238.651,131.260 238.080,130.285 238.080 C 129.082 238.080,114.768 251.853,85.722 280.960 M212.566 240.771 C 219.719 243.197,223.573 248.530,223.573 256.000 C 223.573 273.175,200.712 278.084,193.604 262.435 C 189.771 253.997,193.992 244.171,202.799 241.031 C 206.886 239.574,208.881 239.521,212.566 240.771 M308.240 240.678 C 314.668 242.463,319.963 249.383,319.963 256.000 C 319.963 265.917,309.862 273.912,300.463 271.435 C 292.703 269.390,288.427 263.907,288.427 256.000 C 288.427 248.690,292.247 243.256,299.093 240.829 C 302.446 239.640,304.390 239.608,308.240 240.678 M263.642 290.114 C 267.636 292.152,270.111 295.439,271.435 300.463 C 274.697 312.840,261.377 323.762,249.565 318.396 C 240.217 314.150,237.256 302.747,243.298 294.262 C 247.281 288.669,256.946 286.698,263.642 290.114 " stroke="none" fill="black" fill-rule="evenodd"></path></svg>