<svg xmlns="http://www.w3.org/2000/svg" width="512" height="512" viewBox="0 0 512 512"><path d="M80.309 97.775 C 64.678 101.979,52.615 115.160,49.066 131.915 C 47.186 140.790,47.195 372.094,49.076 381.013 C 52.329 396.440,62.607 408.482,77.296 414.076 L 82.347 416.000 253.440 416.000 C 395.703 416.000,425.324 415.802,429.227 414.828 C 446.255 410.574,459.367 397.085,462.927 380.160 C 464.811 371.205,464.811 140.795,462.927 131.840 C 459.466 115.383,446.764 101.911,430.669 97.626 C 423.885 95.820,87.047 95.963,80.309 97.775 M198.227 145.366 C 201.875 146.890,206.195 151.913,207.309 155.923 C 208.552 160.401,208.552 351.599,207.309 356.077 C 206.195 360.087,201.875 365.110,198.227 366.634 C 194.699 368.108,189.301 368.108,185.773 366.634 C 182.125 365.110,177.805 360.087,176.691 356.077 C 175.448 351.599,175.448 160.401,176.691 155.923 C 177.776 152.016,182.074 146.932,185.584 145.403 C 188.951 143.936,194.764 143.919,198.227 145.366 M326.227 145.366 C 329.875 146.890,334.195 151.913,335.309 155.923 C 336.552 160.401,336.552 351.599,335.309 356.077 C 334.195 360.087,329.875 365.110,326.227 366.634 C 322.699 368.108,317.301 368.108,313.773 366.634 C 310.125 365.110,305.805 360.087,304.691 356.077 C 303.448 351.599,303.448 160.401,304.691 155.923 C 305.776 152.016,310.074 146.932,313.584 145.403 C 316.951 143.936,322.764 143.919,326.227 145.366 M263.642 162.114 C 267.269 163.964,269.715 166.969,271.229 171.434 C 272.632 175.569,272.632 336.431,271.229 340.566 C 268.803 347.719,263.470 351.573,256.000 351.573 C 248.530 351.573,243.197 347.719,240.771 340.566 C 239.368 336.431,239.368 175.569,240.771 171.434 C 242.256 167.054,244.700 163.992,248.175 162.156 C 252.382 159.934,259.332 159.915,263.642 162.114 M132.674 176.738 C 137.024 177.946,142.054 182.976,143.262 187.326 C 144.528 191.888,144.585 319.908,143.322 324.454 C 141.010 332.778,132.232 337.649,123.687 335.347 C 118.994 334.084,113.999 329.214,112.738 324.674 C 111.446 320.020,111.417 192.085,112.707 187.439 C 113.901 183.139,118.189 178.576,122.453 177.068 C 126.645 175.587,128.329 175.532,132.674 176.738 M388.674 176.738 C 393.024 177.946,398.054 182.976,399.262 187.326 C 400.528 191.888,400.585 319.908,399.322 324.454 C 397.010 332.778,388.232 337.649,379.687 335.347 C 374.994 334.084,369.999 329.214,368.738 324.674 C 367.446 320.020,367.417 192.085,368.707 187.439 C 369.901 183.139,374.189 178.576,378.453 177.068 C 382.645 175.587,384.329 175.532,388.674 176.738 " stroke="none" fill="black" fill-rule="evenodd"></path></svg>