<svg xmlns="http://www.w3.org/2000/svg" width="512" height="512" viewBox="0 0 512 512"><path d="M243.627 48.295 C 201.103 51.510,163.460 65.531,129.782 90.701 C 119.266 98.560,98.560 119.266,90.701 129.782 C 68.137 159.974,54.434 193.652,49.413 231.253 C 48.019 241.696,48.019 270.304,49.413 280.747 C 54.433 318.342,68.118 351.979,90.695 382.218 C 98.476 392.640,119.191 413.346,129.707 421.213 C 160.488 444.242,192.017 457.046,231.680 462.624 C 242.514 464.148,272.048 463.904,283.567 462.196 C 320.637 456.698,352.507 443.488,382.218 421.305 C 392.650 413.516,413.335 392.818,421.281 382.218 C 443.726 352.275,457.581 318.238,462.587 280.747 C 463.981 270.304,463.981 241.696,462.587 231.253 C 457.581 193.762,443.726 159.725,421.281 129.782 C 413.335 119.182,392.650 98.484,382.218 90.695 C 352.803 68.733,319.418 54.819,284.587 50.006 C 275.076 48.692,251.440 47.705,243.627 48.295 M241.498 83.840 C 241.504 86.779,243.769 102.716,244.517 105.074 C 244.831 106.066,244.273 106.633,242.586 107.036 C 234.169 109.050,225.853 112.133,223.503 114.110 C 220.207 116.883,217.637 122.221,217.637 126.293 C 217.637 130.809,220.449 136.114,224.332 138.927 C 229.575 142.725,232.959 142.903,243.518 139.938 C 253.531 137.127,254.293 137.005,254.293 138.223 C 254.293 139.833,262.070 156.797,265.843 163.418 C 267.937 167.093,269.555 170.160,269.439 170.232 C 264.366 173.389,253.873 181.660,252.507 183.578 C 248.760 188.840,249.310 197.832,253.682 202.812 C 256.993 206.583,260.657 208.213,265.820 208.213 C 270.332 208.213,273.687 206.635,281.960 200.622 L 287.866 196.329 294.586 203.511 C 298.282 207.462,304.538 213.718,308.489 217.414 L 315.671 224.134 311.378 230.040 C 305.365 238.313,303.787 241.668,303.787 246.180 C 303.787 251.343,305.417 255.007,309.188 258.318 C 312.635 261.344,316.558 262.391,322.109 261.765 C 327.280 261.182,330.259 258.755,336.488 250.048 L 341.885 242.503 349.499 246.646 C 353.687 248.924,360.955 252.422,365.650 254.418 C 370.345 256.414,374.331 258.146,374.507 258.268 C 374.683 258.390,373.614 262.871,372.131 268.225 C 369.880 276.351,369.566 278.548,370.231 281.507 C 371.836 288.653,378.709 294.363,385.707 294.363 C 389.779 294.363,395.117 291.793,397.890 288.497 C 399.867 286.147,402.950 277.831,404.964 269.414 C 405.366 267.734,405.938 267.167,406.926 267.472 C 409.247 268.189,425.622 270.507,428.368 270.507 C 430.694 270.507,430.933 270.765,430.930 273.280 C 430.924 278.060,428.431 291.868,425.749 301.973 C 411.597 355.306,372.057 399.301,319.560 420.127 C 306.754 425.208,282.492 430.933,273.771 430.933 C 270.780 430.933,270.506 430.737,270.502 428.587 C 270.496 426.004,268.323 410.969,267.455 407.512 C 267.088 406.048,267.258 405.333,267.973 405.333 C 271.104 405.333,286.137 399.876,288.513 397.876 C 291.513 395.352,294.355 389.867,294.377 386.560 C 294.425 379.121,288.902 371.986,281.947 370.502 C 278.457 369.758,276.647 369.950,269.699 371.801 C 265.215 372.996,260.779 374.142,259.840 374.348 C 258.390 374.667,257.636 373.529,254.825 366.775 C 253.006 362.403,249.451 355.021,246.926 350.370 C 244.401 345.719,242.434 341.840,242.554 341.751 C 242.675 341.661,245.952 339.379,249.836 336.680 C 259.265 330.129,261.394 327.250,261.777 320.538 C 262.130 314.365,260.530 310.770,255.684 306.848 C 253.225 304.858,251.503 304.244,247.590 303.961 C 241.839 303.545,240.314 304.183,230.577 311.082 L 224.032 315.719 216.516 307.658 C 212.382 303.224,206.136 296.984,202.635 293.790 L 196.271 287.983 200.913 281.430 C 207.817 271.685,208.455 270.162,208.039 264.410 C 207.422 255.880,201.067 250.031,192.413 250.028 C 186.150 250.026,182.941 252.140,176.778 260.332 C 173.803 264.285,171.094 268.010,170.758 268.609 C 170.307 269.413,167.925 268.492,161.660 265.091 C 156.992 262.556,149.597 258.994,145.225 257.175 C 138.471 254.364,137.333 253.610,137.652 252.160 C 137.858 251.221,139.004 246.785,140.199 242.301 C 142.042 235.383,142.240 233.534,141.506 230.093 C 139.992 222.993,133.010 217.574,125.440 217.623 C 122.133 217.645,116.648 220.487,114.124 223.487 C 112.150 225.832,106.667 240.880,106.667 243.951 C 106.667 244.538,105.887 244.760,104.747 244.497 C 100.407 243.496,86.413 241.500,83.715 241.497 L 80.816 241.493 81.352 235.152 C 82.764 218.450,89.398 196.146,98.236 178.391 C 122.446 129.751,166.470 95.326,218.880 84.053 C 228.870 81.904,232.088 81.421,237.867 81.203 C 241.416 81.070,241.493 81.125,241.498 83.840 M293.547 84.163 C 364.391 99.701,418.789 157.433,429.729 228.691 C 430.525 233.878,431.012 238.285,430.812 238.486 C 430.389 238.909,415.751 236.835,415.188 236.272 C 414.980 236.064,415.750 232.662,416.898 228.711 C 418.047 224.760,418.987 219.640,418.987 217.333 C 418.987 206.784,409.235 199.704,398.811 202.686 C 392.487 204.495,389.802 207.949,386.566 218.435 C 385.114 223.138,383.498 226.987,382.973 226.987 C 381.477 226.987,360.960 216.826,360.960 216.084 C 360.960 215.720,363.058 212.407,365.623 208.722 C 370.941 201.081,372.445 197.302,371.784 193.231 C 370.402 184.716,364.182 179.200,355.961 179.200 C 349.239 179.200,345.410 181.782,339.627 190.215 C 337.045 193.979,334.556 197.073,334.094 197.090 C 332.972 197.130,314.868 179.042,314.922 177.935 C 314.945 177.457,318.043 174.955,321.805 172.373 C 330.226 166.596,332.800 162.772,332.800 156.039 C 332.800 147.818,327.284 141.598,318.769 140.216 C 314.698 139.555,310.919 141.059,303.278 146.377 C 299.593 148.942,296.254 151.040,295.857 151.040 C 295.096 151.040,285.013 130.524,285.013 128.976 C 285.013 128.479,288.862 126.886,293.565 125.434 C 304.051 122.198,307.505 119.513,309.314 113.189 C 312.296 102.765,305.216 93.013,294.667 93.013 C 292.360 93.013,287.238 93.954,283.286 95.103 C 278.277 96.559,275.924 96.907,275.518 96.252 C 275.199 95.734,274.693 93.162,274.394 90.536 C 274.096 87.909,273.632 84.650,273.365 83.292 L 272.878 80.825 278.306 81.418 C 281.291 81.744,288.149 82.979,293.547 84.163 M92.086 274.842 C 94.626 275.270,96.814 275.729,96.947 275.863 C 97.081 275.996,96.225 279.358,95.044 283.333 C 93.864 287.308,92.880 292.312,92.858 294.454 C 92.697 309.666,112.231 315.937,121.423 303.624 C 122.323 302.419,124.135 297.835,125.449 293.437 C 127.552 286.405,128.060 285.465,129.658 285.649 C 131.388 285.848,147.601 293.341,150.089 295.092 C 151.038 295.759,150.252 297.447,146.118 303.628 C 140.553 311.948,139.470 314.994,140.348 319.853 C 141.742 327.560,148.183 332.800,156.264 332.800 C 162.737 332.800,166.657 330.120,172.373 321.785 C 174.955 318.021,177.431 314.927,177.877 314.910 C 178.936 314.871,197.129 333.064,197.090 334.123 C 197.073 334.569,193.979 337.045,190.215 339.627 C 181.880 345.343,179.200 349.263,179.200 355.736 C 179.200 363.670,184.293 370.068,191.853 371.631 C 196.585 372.609,200.177 371.363,208.307 365.925 C 214.495 361.787,216.239 360.969,216.874 361.911 C 218.807 364.777,226.132 380.524,226.335 382.251 C 226.537 383.966,225.750 384.402,218.563 386.551 C 214.165 387.865,209.581 389.677,208.376 390.577 C 196.063 399.769,202.334 419.303,217.546 419.142 C 219.688 419.120,224.692 418.136,228.667 416.956 C 232.642 415.775,236.004 414.919,236.137 415.053 C 236.392 415.307,237.614 422.216,238.394 427.812 L 238.852 431.091 233.559 430.519 C 226.082 429.711,210.462 426.177,201.631 423.295 C 142.314 403.944,97.147 354.053,84.131 293.506 C 82.975 288.131,81.765 281.350,81.442 278.436 L 80.854 273.140 84.161 273.601 C 85.979 273.855,89.545 274.413,92.086 274.842 " stroke="none" fill="black" fill-rule="evenodd"></path></svg>