<svg xmlns="http://www.w3.org/2000/svg" width="512" height="512" viewBox="0 0 512 512"><path d="M122.022 81.815 C 101.856 87.261,86.173 103.331,81.531 123.307 C 80.332 128.467,80.177 134.786,80.391 169.721 C 80.619 206.717,80.764 210.239,82.093 211.077 C 83.164 211.753,85.519 211.574,91.053 210.398 C 95.182 209.520,102.864 208.622,108.124 208.402 C 119.188 207.939,119.503 207.743,121.094 200.328 C 122.592 193.351,127.689 186.092,134.096 181.814 C 142.466 176.224,142.556 176.213,180.480 176.213 C 214.266 176.213,214.663 176.234,219.550 178.206 C 228.961 182.004,237.699 192.401,239.390 201.813 C 240.512 208.058,240.917 208.215,255.919 208.200 C 263.238 208.193,269.727 207.870,270.339 207.482 C 270.951 207.093,272.039 204.528,272.756 201.781 C 273.473 199.034,274.964 195.002,276.069 192.821 C 278.790 187.453,286.455 180.626,292.483 178.202 C 297.247 176.286,298.289 176.222,328.960 175.949 C 367.244 175.609,371.025 176.147,380.367 183.260 C 384.611 186.490,389.708 194.746,390.906 200.328 C 392.497 207.743,392.812 207.939,403.876 208.402 C 409.136 208.622,416.818 209.520,420.947 210.398 C 426.484 211.575,428.835 211.753,429.907 211.077 C 431.244 210.232,431.360 206.729,431.360 167.160 L 431.360 124.160 428.713 117.304 C 423.057 102.650,413.092 91.629,399.879 85.413 C 388.197 79.918,396.347 80.208,255.519 80.265 C 136.250 80.313,127.197 80.418,122.022 81.815 M95.160 225.836 C 71.397 230.954,49.735 248.311,39.544 270.397 C 32.038 286.665,31.396 294.500,31.738 365.653 C 31.991 418.482,32.056 420.361,33.707 423.163 C 34.645 424.756,36.850 427.220,38.605 428.639 C 45.300 434.049,56.305 432.228,61.150 424.907 C 63.254 421.727,63.597 420.265,63.985 412.810 C 64.401 404.830,64.568 404.208,66.821 402.272 L 69.215 400.213 256.113 400.213 L 443.011 400.213 445.506 402.708 C 447.860 405.062,448.000 405.598,448.000 412.252 C 448.000 425.179,453.267 431.360,464.285 431.360 C 469.411 431.360,470.381 431.079,473.307 428.745 C 475.111 427.307,477.355 424.619,478.293 422.772 C 479.938 419.535,480.009 417.450,480.260 365.227 C 480.533 308.092,479.952 293.109,477.060 282.771 C 469.557 255.949,449.106 235.384,421.398 226.798 L 415.147 224.861 258.133 224.707 C 121.175 224.572,100.359 224.716,95.160 225.836 " stroke="none" fill="black" fill-rule="evenodd"></path></svg>