<svg xmlns="http://www.w3.org/2000/svg" width="512" height="512" viewBox="0 0 512 512"><path d="M247.893 29.781 C 246.016 30.652,243.251 32.660,241.750 34.242 C 236.059 40.240,236.373 34.790,236.373 127.546 C 236.373 173.790,236.058 211.627,235.673 211.627 C 235.287 211.627,216.846 196.101,194.693 177.126 C 168.468 154.664,153.330 142.268,151.311 141.602 C 138.089 137.238,124.662 146.610,124.605 160.241 C 124.585 165.246,126.257 170.021,129.107 173.099 C 130.141 174.215,152.011 193.160,177.707 215.200 C 203.403 237.239,224.427 255.599,224.427 256.000 C 224.427 256.401,203.403 274.763,177.707 296.806 C 152.011 318.849,129.951 337.981,128.685 339.322 C 119.966 348.558,123.280 364.551,135.098 370.272 C 139.588 372.445,146.219 372.603,151.095 370.652 C 153.303 369.768,169.459 356.512,194.776 334.812 C 216.873 315.871,235.272 300.373,235.663 300.373 C 236.054 300.373,236.382 338.293,236.392 384.640 C 236.410 464.909,236.486 469.069,237.995 472.320 C 241.151 479.124,248.259 483.844,255.333 483.835 C 264.361 483.823,261.216 486.573,324.968 422.966 C 360.712 387.305,384.832 362.596,385.913 360.533 C 388.341 355.904,388.350 348.133,385.932 343.446 C 383.653 339.025,383.762 339.123,331.732 294.500 C 307.445 273.670,287.573 256.324,287.573 255.953 C 287.573 255.583,307.637 238.109,332.160 217.123 C 382.971 173.639,383.513 173.150,385.922 168.533 C 388.353 163.876,388.348 156.107,385.911 151.467 C 384.830 149.408,360.639 124.625,324.966 89.029 C 261.039 25.241,264.376 28.150,255.147 28.183 C 253.035 28.191,249.771 28.910,247.893 29.781 M307.619 127.993 L 338.323 158.705 336.201 160.770 C 331.629 165.222,277.005 211.627,276.337 211.627 C 275.946 211.627,275.627 185.899,275.627 154.453 C 275.627 123.008,275.917 97.280,276.271 97.280 C 276.626 97.280,290.732 111.101,307.619 127.993 M305.563 324.769 C 321.248 338.186,335.035 350.094,336.201 351.230 L 338.323 353.295 307.619 384.007 C 290.732 400.899,276.626 414.720,276.271 414.720 C 275.917 414.720,275.627 388.992,275.627 357.547 C 275.627 326.101,275.946 300.373,276.337 300.373 C 276.727 300.373,289.879 311.351,305.563 324.769 " stroke="none" fill="black" fill-rule="evenodd"></path></svg>