<svg xmlns="http://www.w3.org/2000/svg" width="512" height="512" viewBox="0 0 512 512"><path d="M236.800 1.205 C 228.492 3.134,222.441 5.758,216.206 10.137 C 205.938 17.349,198.694 27.046,194.824 38.760 C 192.882 44.638,192.541 47.162,192.504 55.893 C 192.457 67.254,193.931 73.355,199.100 83.200 C 202.929 90.490,213.849 101.172,221.610 105.218 C 249.488 119.752,283.641 109.084,297.638 81.471 C 303.711 69.489,305.358 55.058,302.104 42.333 C 297.333 23.679,282.548 8.111,264.198 2.420 C 257.236 0.261,243.494 -0.348,236.800 1.205 M257.707 34.200 C 262.713 36.464,266.712 40.360,269.463 45.653 C 272.470 51.441,272.612 60.050,269.796 65.850 C 267.548 70.481,261.533 76.337,257.015 78.294 C 251.869 80.522,242.792 80.133,237.653 77.463 C 228.811 72.868,224.476 65.774,224.445 55.848 C 224.415 46.020,229.497 38.107,238.451 34.040 C 243.320 31.828,252.632 31.906,257.707 34.200 M78.302 129.323 C 57.671 134.349,44.239 155.804,49.001 176.125 C 52.735 192.060,65.450 204.483,80.970 207.361 C 83.692 207.866,105.721 208.213,134.999 208.213 C 167.061 208.213,185.005 208.520,186.063 209.086 C 186.960 209.566,188.102 210.721,188.601 211.653 C 190.299 214.826,191.142 231.028,190.277 243.862 C 189.196 259.913,187.386 271.060,168.570 377.573 C 159.415 429.398,152.755 469.316,152.768 472.293 C 152.869 497.345,176.240 516.235,200.705 511.040 C 213.438 508.336,225.677 497.723,229.916 485.709 C 230.615 483.727,236.004 454.559,241.890 420.892 C 252.760 358.727,254.963 347.307,256.088 347.307 C 257.149 347.307,258.920 356.602,270.074 420.693 C 280.618 481.275,280.911 482.704,284.205 489.513 C 291.714 505.031,308.399 513.967,325.054 511.389 C 344.774 508.336,359.253 491.891,359.253 472.544 C 359.253 468.523,354.157 437.695,343.922 379.804 C 320.953 249.883,322.448 259.574,321.997 237.653 C 321.560 216.378,322.290 211.173,325.973 209.315 C 327.616 208.486,339.422 208.236,377.270 208.226 C 406.310 208.218,428.315 207.864,431.030 207.361 C 446.550 204.483,459.265 192.060,462.999 176.125 C 467.295 157.791,456.395 137.838,438.037 130.432 L 433.067 128.427 258.133 128.278 C 110.820 128.153,82.427 128.318,78.302 129.323 M429.692 162.521 C 432.635 165.464,432.584 170.490,429.579 173.495 L 427.372 175.702 375.179 175.958 C 323.006 176.213,322.985 176.214,317.440 178.200 C 303.061 183.349,294.579 193.062,291.351 208.074 C 289.499 216.687,288.917 235.952,290.085 250.027 C 291.351 265.291,293.862 280.521,312.713 387.248 C 320.945 433.856,327.680 472.515,327.680 473.156 C 327.680 473.798,326.686 475.504,325.471 476.948 C 322.661 480.287,317.862 480.594,314.463 477.653 C 312.342 475.818,311.815 473.277,302.477 419.840 C 290.608 351.928,289.645 346.761,287.453 339.200 C 282.955 323.691,274.649 312.410,265.486 309.366 C 259.312 307.316,249.382 307.858,244.185 310.531 C 235.393 315.052,228.517 325.712,224.041 341.760 C 222.863 345.984,216.935 377.794,210.868 412.448 C 198.541 482.856,199.443 479.573,192.427 479.573 C 188.785 479.573,186.110 477.658,184.871 474.164 C 184.565 473.300,191.410 432.404,200.081 383.284 C 223.038 253.233,223.379 250.839,222.465 226.133 C 221.750 206.798,219.088 197.673,211.728 189.324 C 207.361 184.372,201.241 180.405,194.345 178.060 C 189.176 176.301,187.424 176.237,136.821 175.974 L 84.628 175.702 82.421 173.495 C 79.416 170.490,79.365 165.464,82.308 162.521 L 84.402 160.427 256.000 160.427 L 427.598 160.427 429.692 162.521 " stroke="none" fill="black" fill-rule="evenodd"></path></svg>