<svg xmlns="http://www.w3.org/2000/svg" width="512" height="512" viewBox="0 0 512 512"><path d="M260.347 17.256 C 256.284 18.636,252.296 22.916,250.980 27.308 C 250.368 29.353,249.503 34.894,249.059 39.620 C 247.965 51.274,246.409 56.921,241.489 67.082 C 233.409 83.772,224.321 94.089,179.545 137.408 C 170.583 146.079,160.384 156.652,156.881 160.904 C 140.050 181.332,131.426 199.494,128.946 219.733 C 124.781 253.724,135.119 283.837,159.045 307.409 C 170.633 318.826,179.246 323.413,189.092 323.413 C 197.963 323.413,208.910 318.363,213.652 312.083 C 214.794 310.571,217.682 305.924,220.069 301.758 C 232.313 280.394,248.741 266.991,291.413 243.550 C 326.880 224.067,336.269 217.629,351.606 202.280 C 368.616 185.256,377.700 168.741,382.008 147.008 C 384.109 136.411,384.109 114.756,382.009 104.960 C 372.759 61.809,338.761 29.554,291.063 18.674 C 282.187 16.649,264.531 15.834,260.347 17.256 M174.671 48.780 C 164.211 49.828,162.137 52.507,160.691 66.839 C 159.423 79.411,158.059 82.436,147.090 97.022 C 137.302 110.036,133.694 116.102,130.743 124.504 C 128.730 130.234,128.464 132.275,128.449 142.080 C 128.432 152.996,130.598 166.869,132.220 166.235 C 132.589 166.091,135.912 161.941,139.605 157.013 C 146.242 148.157,160.927 132.978,193.286 101.525 C 202.207 92.854,212.009 82.618,215.068 78.778 C 220.807 71.576,226.987 61.844,226.987 60.010 C 226.987 58.709,218.167 54.485,210.676 52.197 C 200.762 49.170,185.368 47.709,174.671 48.780 M363.768 213.164 C 347.468 229.484,335.602 237.515,293.547 260.698 C 257.623 280.500,241.642 294.110,232.207 312.936 C 227.852 321.627,228.711 324.943,236.175 328.244 C 249.294 334.046,268.077 336.923,283.026 335.421 C 327.727 330.929,363.463 303.565,377.830 262.827 C 382.197 250.442,383.492 242.502,383.535 227.840 C 383.588 209.675,381.943 205.653,374.459 205.653 C 371.586 205.653,370.527 206.397,363.768 213.164 M40.826 338.675 C 31.121 344.830,29.424 360.816,37.677 368.330 C 41.075 371.424,46.653 373.760,50.644 373.760 C 53.045 373.760,67.136 369.885,89.292 363.131 C 127.890 351.365,128.000 351.313,128.000 344.633 C 128.000 341.979,127.435 340.638,125.506 338.708 L 123.011 336.213 83.859 336.213 L 44.707 336.213 40.826 338.675 M386.494 338.708 C 383.147 342.055,383.092 346.264,386.347 349.903 C 388.449 352.253,392.241 353.627,422.827 363.123 C 445.963 370.305,458.269 373.726,461.023 373.740 C 468.131 373.775,476.396 368.352,478.777 362.090 C 480.128 358.536,479.679 349.749,477.956 346.027 C 476.116 342.054,472.480 338.411,469.064 337.121 C 467.496 336.528,453.191 336.213,427.825 336.213 L 388.989 336.213 386.494 338.708 M182.846 352.538 C 180.025 353.044,170.768 359.075,140.376 380.210 C 118.282 395.574,100.251 408.709,98.589 410.650 C 93.137 417.020,91.430 427.681,94.443 436.541 C 96.460 442.472,103.819 449.691,110.332 452.128 C 120.953 456.102,132.961 453.856,140.741 446.441 C 144.557 442.804,196.442 375.656,198.708 371.421 C 200.078 368.862,199.916 362.184,198.413 359.278 C 195.837 354.297,189.162 351.407,182.846 352.538 M250.464 352.543 C 248.593 352.980,245.803 354.189,244.264 355.229 C 237.983 359.474,237.964 359.537,227.329 410.944 C 216.068 465.381,215.964 466.459,220.983 476.654 C 228.284 491.485,247.615 499.211,265.660 494.511 C 272.525 492.723,276.936 490.286,282.032 485.466 C 288.273 479.563,291.194 473.232,291.638 464.640 C 291.956 458.505,291.028 453.144,282.477 411.733 C 277.244 386.389,272.341 364.189,271.581 362.400 C 268.476 355.088,258.837 350.589,250.464 352.543 M322.897 352.460 C 315.389 354.030,310.428 362.838,312.960 370.101 C 313.625 372.008,356.959 429.852,368.892 444.760 C 376.821 454.666,391.798 457.471,404.231 451.378 C 413.900 446.639,418.994 438.018,418.978 426.421 C 418.968 418.991,416.612 413.303,411.622 408.663 C 408.414 405.679,341.637 358.828,335.072 354.956 C 331.164 352.650,326.530 351.700,322.897 352.460 " stroke="none" fill="black" fill-rule="evenodd"></path></svg>