<svg xmlns="http://www.w3.org/2000/svg" width="512" height="512" viewBox="0 0 512 512"><path d="M236.373 17.144 C 189.204 23.215,147.523 49.293,121.722 88.874 C 111.494 104.565,103.057 125.379,98.945 145.067 C 96.295 157.751,95.631 185.751,97.650 199.680 C 100.595 219.995,105.201 235.234,113.512 252.160 C 123.164 271.817,131.744 282.875,153.368 303.524 C 175.164 324.337,185.689 337.637,189.979 349.791 C 191.776 354.880,191.967 356.912,192.001 371.200 C 192.032 384.642,192.270 387.499,193.604 390.435 C 199.104 402.543,216.007 403.113,222.024 391.395 C 225.765 384.107,224.950 353.171,220.689 340.736 C 214.429 322.467,205.112 309.889,177.514 282.453 C 160.991 266.027,155.337 259.820,151.131 253.492 C 135.442 229.882,128.498 206.351,128.450 176.640 C 128.423 159.651,129.817 150.169,134.416 136.048 C 158.483 62.151,243.426 26.751,313.348 61.478 C 349.462 79.414,374.422 112.763,381.978 153.173 C 384.109 164.574,384.096 189.603,381.952 201.387 C 377.916 223.568,370.223 241.633,357.947 257.758 C 355.289 261.250,344.758 272.363,334.546 282.453 C 305.929 310.728,296.315 324.075,290.462 343.647 C 288.365 350.662,288.213 352.332,288.110 369.493 C 288.005 386.943,288.093 388.014,289.901 391.395 C 294.674 400.323,306.378 402.678,314.019 396.249 C 319.177 391.908,319.528 390.413,319.998 370.773 L 320.427 352.853 323.921 345.600 C 329.375 334.277,336.684 325.418,358.419 303.787 C 369.889 292.372,380.983 280.482,384.172 276.186 C 398.816 256.460,408.265 234.435,413.126 208.696 C 415.732 194.896,416.313 167.559,414.300 153.390 C 408.543 112.872,388.088 76.650,356.761 51.502 C 333.050 32.467,305.509 20.911,274.796 17.108 C 266.461 16.077,244.507 16.097,236.373 17.144 M210.347 225.974 C 204.647 229.622,202.240 233.877,202.240 240.303 C 202.240 245.512,204.796 250.108,209.675 253.672 C 215.801 258.148,229.572 265.681,234.996 267.525 L 239.787 269.153 239.791 327.217 C 239.795 366.947,240.094 386.352,240.738 388.674 C 241.999 393.214,246.994 398.084,251.687 399.347 C 260.232 401.649,269.010 396.778,271.322 388.454 C 271.888 386.415,272.207 364.519,272.214 327.253 L 272.224 269.227 277.936 267.093 C 281.077 265.920,286.931 263.090,290.944 260.805 C 305.936 252.268,309.760 248.085,309.760 240.220 C 309.760 235.045,308.128 231.392,304.325 228.052 C 300.571 224.756,298.318 224.103,292.404 224.593 C 288.742 224.897,286.405 225.919,279.556 230.214 C 268.123 237.383,263.007 239.320,255.573 239.293 C 248.607 239.269,242.903 236.968,231.200 229.461 C 224.720 225.304,223.567 224.864,218.490 224.612 C 214.108 224.395,212.356 224.689,210.347 225.974 M200.723 417.844 C 194.673 420.826,191.313 427.648,192.383 434.779 C 193.135 439.798,198.313 445.833,202.976 447.128 C 207.179 448.296,304.821 448.296,309.024 447.128 C 313.687 445.833,318.865 439.798,319.617 434.779 C 320.698 427.574,317.272 420.721,311.134 417.809 C 308.547 416.581,302.380 416.429,255.871 416.446 C 209.424 416.463,203.205 416.621,200.723 417.844 M217.173 465.634 C 211.362 468.705,208.213 473.756,208.213 480.008 C 208.213 486.238,211.340 491.320,216.926 494.171 C 219.884 495.681,222.448 495.787,256.000 495.787 C 289.552 495.787,292.116 495.681,295.074 494.171 C 300.663 491.318,303.787 486.238,303.787 480.000 C 303.787 473.762,300.663 468.682,295.074 465.829 C 292.112 464.317,289.587 464.216,255.821 464.247 C 224.572 464.277,219.390 464.463,217.173 465.634 " stroke="none" fill="black" fill-rule="evenodd"></path></svg>