<svg xmlns="http://www.w3.org/2000/svg" width="512" height="512" viewBox="0 0 512 512"><path d="M99.471 33.734 C 82.215 38.469,67.770 54.209,64.919 71.383 C 64.212 75.643,64.013 122.214,64.188 243.200 L 64.427 409.173 66.334 414.782 C 68.332 420.655,73.205 428.736,77.348 433.042 C 79.762 435.553,79.791 435.707,80.213 448.402 C 80.596 459.903,80.859 461.656,82.763 465.383 C 85.456 470.658,91.847 476.433,97.072 478.314 C 100.045 479.385,104.973 479.886,115.627 480.200 C 137.710 480.851,145.530 479.130,152.359 472.114 C 156.871 467.478,158.685 463.341,159.774 455.198 L 160.737 448.000 256.000 448.000 L 351.263 448.000 352.226 455.198 C 353.329 463.445,355.155 467.536,359.810 472.190 C 366.844 479.225,374.272 480.852,396.373 480.200 C 407.027 479.886,411.955 479.385,414.928 478.314 C 420.153 476.433,426.544 470.658,429.237 465.383 C 431.157 461.625,431.387 460.042,431.640 448.866 L 431.919 436.505 436.056 431.454 C 441.657 424.615,444.307 419.501,446.312 411.660 C 447.965 405.195,448.000 401.686,447.985 240.290 C 447.973 100.603,447.784 74.642,446.748 69.754 C 443.158 52.810,429.148 38.217,412.121 33.686 C 405.405 31.898,105.992 31.945,99.471 33.734 M406.712 65.633 C 411.785 67.936,414.929 72.449,415.397 78.102 C 415.895 84.108,415.257 86.369,412.021 90.055 C 406.765 96.041,419.989 95.573,256.000 95.573 C 92.011 95.573,105.235 96.041,99.979 90.055 C 96.743 86.369,96.105 84.108,96.603 78.102 C 97.071 72.449,100.215 67.936,105.288 65.633 C 108.675 64.094,114.055 64.037,256.000 64.037 C 397.945 64.037,403.325 64.094,406.712 65.633 M239.787 207.787 L 239.787 287.573 173.611 287.573 C 117.494 287.573,107.072 287.385,105.044 286.337 C 102.044 284.786,97.454 279.621,96.839 277.104 C 96.583 276.057,96.481 244.258,96.613 206.440 L 96.853 137.680 99.314 134.454 C 100.668 132.679,103.356 130.510,105.288 129.633 C 108.619 128.120,112.172 128.037,174.293 128.019 L 239.787 128.000 239.787 207.787 M406.712 129.633 C 408.644 130.510,411.332 132.679,412.686 134.454 L 415.147 137.680 415.387 206.440 C 415.519 244.258,415.417 276.057,415.161 277.104 C 414.546 279.621,409.956 284.786,406.956 286.337 C 404.928 287.385,394.506 287.573,338.389 287.573 L 272.213 287.573 272.213 207.787 L 272.213 128.000 337.707 128.019 C 399.828 128.037,403.381 128.120,406.712 129.633 M406.712 321.633 C 408.644 322.510,411.332 324.679,412.686 326.453 L 415.147 329.679 415.393 366.439 C 415.528 386.658,415.426 404.057,415.167 405.104 C 414.533 407.665,409.963 412.763,406.700 414.550 C 404.238 415.899,393.700 416.000,256.000 416.000 C 118.300 416.000,107.762 415.899,105.300 414.550 C 102.037 412.763,97.467 407.665,96.833 405.104 C 96.574 404.057,96.472 386.658,96.607 366.439 L 96.853 329.679 99.314 326.453 C 100.668 324.679,103.356 322.510,105.288 321.633 C 108.675 320.094,114.055 320.037,256.000 320.037 C 397.945 320.037,403.325 320.094,406.712 321.633 M133.242 337.870 C 122.519 341.844,114.902 351.023,112.546 362.809 C 110.646 372.317,114.134 383.000,121.567 390.433 C 137.197 406.063,162.077 401.891,172.652 381.867 C 175.168 377.104,175.356 376.150,175.358 368.195 C 175.360 360.270,175.157 359.232,172.587 354.011 C 169.285 347.303,163.906 342.053,157.163 338.956 C 150.523 335.906,139.849 335.421,133.242 337.870 M358.644 337.402 C 349.799 340.287,342.850 346.437,338.889 354.884 C 336.929 359.064,336.640 360.777,336.640 368.213 C 336.640 375.932,336.876 377.212,339.107 381.617 C 349.250 401.638,374.833 406.033,390.433 390.433 C 403.039 377.827,403.021 358.108,390.391 345.479 C 384.343 339.431,378.252 336.812,369.493 336.493 C 364.954 336.328,360.895 336.668,358.644 337.402 " stroke="none" fill="black" fill-rule="evenodd"></path></svg>