<svg xmlns="http://www.w3.org/2000/svg" width="512" height="512" viewBox="0 0 512 512"><path d="M111.787 48.213 L 111.787 64.000 85.915 64.000 C 57.409 64.000,54.407 64.404,46.744 69.269 C 38.353 74.596,33.675 82.404,32.362 93.270 C 31.822 97.743,31.604 164.143,31.759 277.333 L 32.000 454.400 33.855 458.926 C 37.653 468.189,45.651 475.771,54.525 478.519 C 59.005 479.907,71.708 480.000,256.000 480.000 C 440.292 480.000,452.995 479.907,457.475 478.519 C 466.615 475.689,475.360 467.123,478.505 457.921 C 479.907 453.818,480.015 442.607,480.241 276.907 C 480.396 162.633,480.179 97.765,479.626 93.180 C 478.118 80.686,470.868 70.732,460.119 66.396 C 455.448 64.512,454.154 64.423,427.733 64.173 L 400.213 63.912 400.213 48.170 L 400.213 32.427 380.160 32.427 L 360.107 32.427 360.107 48.213 L 360.107 64.000 256.000 64.000 L 151.893 64.000 151.893 48.213 L 151.893 32.427 131.840 32.427 L 111.787 32.427 111.787 48.213 M436.053 305.920 L 436.053 436.053 256.000 436.053 L 75.947 436.053 75.947 305.920 L 75.947 175.787 256.000 175.787 L 436.053 175.787 436.053 305.920 M273.237 209.237 C 271.780 210.695,271.780 253.518,273.237 254.976 C 273.980 255.718,280.183 256.000,295.790 256.000 C 314.223 256.000,317.511 255.807,318.659 254.659 C 319.807 253.511,320.000 250.223,320.000 231.790 C 320.000 216.183,319.718 209.980,318.976 209.237 C 317.518 207.780,274.695 207.780,273.237 209.237 M353.171 209.624 C 352.248 210.737,352.000 215.502,352.000 232.107 C 352.000 248.712,352.248 253.477,353.171 254.589 C 354.204 255.833,356.886 256.000,375.866 256.000 C 395.633 256.000,397.504 255.873,398.801 254.439 C 400.033 253.078,400.213 250.244,400.213 232.197 C 400.213 219.572,399.869 210.871,399.330 209.864 C 398.492 208.297,397.323 208.213,376.394 208.213 C 356.923 208.213,354.205 208.378,353.171 209.624 M112.670 290.077 C 112.130 291.086,111.787 299.857,111.787 312.642 C 111.787 333.287,111.811 333.574,113.683 334.885 C 116.369 336.766,155.790 336.869,158.344 335.002 C 159.906 333.859,160.000 332.592,160.000 312.602 C 160.000 300.948,159.724 290.741,159.387 289.920 C 158.825 288.551,156.894 288.427,136.163 288.427 C 114.683 288.427,113.509 288.509,112.670 290.077 M193.024 289.451 C 192.282 290.193,192.000 296.381,192.000 311.932 C 192.000 331.635,192.128 333.504,193.561 334.801 C 194.922 336.033,197.756 336.213,215.803 336.213 C 228.428 336.213,237.129 335.869,238.136 335.330 C 239.702 334.492,239.787 333.324,239.787 312.461 C 239.787 296.498,239.506 290.194,238.763 289.451 C 237.305 287.993,194.482 287.993,193.024 289.451 M273.237 289.451 C 272.494 290.194,272.213 296.498,272.213 312.461 C 272.213 333.324,272.298 334.492,273.864 335.330 C 274.872 335.870,283.618 336.213,296.345 336.213 C 315.442 336.213,317.293 336.083,318.588 334.653 C 319.822 333.288,320.000 330.414,320.000 311.783 C 320.000 296.348,319.718 290.192,318.976 289.451 C 317.518 287.993,274.695 287.993,273.237 289.451 M352.613 289.920 C 352.276 290.741,352.000 300.948,352.000 312.602 C 352.000 332.592,352.094 333.859,353.656 335.002 C 354.979 335.970,359.488 336.213,376.056 336.213 C 395.662 336.213,396.894 336.120,398.507 334.507 C 400.119 332.895,400.213 331.662,400.213 312.264 C 400.213 299.740,399.869 291.084,399.330 290.077 C 398.491 288.509,397.317 288.427,375.837 288.427 C 355.106 288.427,353.175 288.551,352.613 289.920 M113.199 369.347 C 111.966 370.710,111.787 373.557,111.787 391.797 C 111.787 408.492,112.030 413.020,112.998 414.344 C 114.142 415.908,115.414 416.000,135.995 416.000 C 152.728 416.000,158.039 415.743,158.891 414.891 C 159.743 414.039,160.000 408.734,160.000 391.996 C 160.000 371.415,159.908 370.143,158.344 368.998 C 157.019 368.029,152.476 367.787,135.649 367.787 C 116.352 367.787,114.494 367.916,113.199 369.347 M193.412 369.347 C 192.177 370.712,192.000 373.591,192.000 392.283 C 192.000 411.112,192.168 413.797,193.409 414.829 C 194.497 415.733,199.485 416.059,215.252 416.257 C 232.704 416.476,235.986 416.318,237.736 415.171 L 239.787 413.827 239.787 391.690 C 239.787 370.678,239.703 369.509,238.136 368.670 C 237.128 368.130,228.382 367.787,215.655 367.787 C 196.558 367.787,194.707 367.917,193.412 369.347 M273.707 368.708 C 272.345 369.501,272.213 371.532,272.213 391.703 L 272.213 413.827 274.264 415.171 C 276.014 416.318,279.296 416.476,296.748 416.257 C 312.515 416.059,317.503 415.733,318.591 414.829 C 319.833 413.797,320.000 411.101,320.000 392.134 C 320.000 372.367,319.873 370.496,318.439 369.199 C 317.075 367.964,314.257 367.790,296.039 367.813 C 283.479 367.828,274.607 368.184,273.707 368.708 " stroke="none" fill="black" fill-rule="evenodd"></path></svg>