<svg xmlns="http://www.w3.org/2000/svg" width="512" height="512" viewBox="0 0 512 512"><path d="M120.175 34.156 C 113.914 37.464,111.787 42.791,111.787 55.167 L 111.787 64.000 101.195 64.000 C 79.025 64.000,64.859 69.315,51.157 82.773 C 39.684 94.043,33.904 106.709,32.348 123.991 C 31.795 130.124,31.593 185.812,31.782 279.467 C 32.112 442.653,31.569 428.965,38.278 443.226 C 44.399 456.237,54.904 466.867,67.840 473.138 C 83.321 480.643,65.680 480.000,256.000 480.000 C 417.604 480.000,424.779 479.935,430.507 478.413 C 454.278 472.095,471.629 454.888,478.383 430.933 C 479.866 425.672,479.961 417.868,480.230 279.467 C 480.411 185.910,480.204 130.118,479.652 123.991 C 478.096 106.709,472.316 94.043,460.843 82.773 C 447.161 69.334,432.970 64.000,410.895 64.000 L 400.393 64.000 400.090 53.973 C 399.817 44.962,399.558 43.557,397.524 40.097 C 393.280 32.879,383.949 30.241,376.358 34.114 C 369.933 37.392,367.787 42.664,367.787 55.167 L 367.787 64.000 256.090 64.000 L 144.393 64.000 144.077 53.973 C 143.801 45.215,143.494 43.477,141.650 40.236 C 137.517 32.974,127.684 30.190,120.175 34.156 M426.972 98.161 C 436.521 101.734,443.232 108.796,446.289 118.490 C 447.735 123.074,448.000 126.274,448.000 139.170 L 448.000 154.426 445.510 157.213 L 443.020 160.000 256.000 160.000 L 68.980 160.000 66.490 157.213 L 64.000 154.426 64.000 139.170 C 64.000 126.274,64.265 123.074,65.711 118.490 C 68.720 108.948,74.818 102.371,84.250 98.492 L 89.173 96.467 255.755 96.447 C 421.159 96.427,422.369 96.439,426.972 98.161 M307.441 211.046 C 318.881 217.751,323.040 231.357,317.167 242.869 C 308.504 259.851,284.868 260.200,275.075 243.491 C 272.037 238.306,271.338 229.525,273.511 223.834 C 275.524 218.564,280.995 212.717,286.293 210.172 C 292.249 207.312,301.739 207.704,307.441 211.046 M384.175 209.540 C 397.204 213.979,403.555 229.915,397.350 242.597 C 390.397 256.808,371.869 260.354,360.258 249.696 C 354.961 244.834,352.436 239.128,352.472 232.107 C 352.526 221.952,356.620 215.209,365.394 210.824 C 371.448 207.799,377.793 207.365,384.175 209.540 M145.549 290.040 C 154.503 294.107,159.585 302.020,159.555 311.848 C 159.524 321.774,155.189 328.868,146.347 333.463 C 141.208 336.133,132.131 336.522,126.985 334.294 C 122.467 332.337,116.452 326.481,114.204 321.850 C 111.388 316.050,111.530 307.441,114.537 301.653 C 117.288 296.360,121.287 292.464,126.293 290.200 C 131.368 287.906,140.680 287.828,145.549 290.040 M224.576 289.621 C 229.784 291.482,234.358 295.755,237.176 301.394 C 247.388 321.832,225.944 343.400,205.403 333.350 C 187.475 324.579,187.879 298.952,206.080 290.439 C 210.994 288.140,219.390 287.769,224.576 289.621 M305.920 290.439 C 324.121 298.952,324.525 324.579,306.597 333.350 C 285.997 343.429,264.613 321.828,274.871 301.300 C 277.665 295.710,282.956 290.898,288.000 289.361 C 293.093 287.809,301.360 288.306,305.920 290.439 M385.707 290.200 C 390.713 292.464,394.712 296.360,397.463 301.653 C 400.470 307.441,400.612 316.050,397.796 321.850 C 395.548 326.481,389.533 332.337,385.015 334.294 C 379.869 336.522,370.792 336.133,365.653 333.463 C 356.811 328.868,352.476 321.774,352.445 311.848 C 352.415 302.020,357.497 294.107,366.451 290.040 C 371.320 287.828,380.632 287.906,385.707 290.200 M146.616 370.711 C 155.146 375.071,159.536 382.340,159.536 392.107 C 159.536 398.883,157.935 403.252,153.674 408.105 C 145.295 417.649,128.914 418.242,119.604 409.338 C 108.526 398.744,110.063 380.859,122.796 372.206 C 129.931 367.357,138.948 366.792,146.616 370.711 M226.700 370.804 C 238.557 376.606,243.170 390.610,237.176 402.606 C 232.842 411.279,225.648 415.591,215.573 415.555 C 205.984 415.520,197.030 409.326,193.699 400.422 C 186.033 379.933,206.963 361.148,226.700 370.804 M306.947 370.837 C 320.799 377.565,324.221 396.277,313.696 407.742 C 308.812 413.062,303.123 415.572,296.107 415.500 C 286.077 415.398,279.127 411.217,274.890 402.737 C 269.615 392.180,272.238 380.091,281.303 373.176 C 288.764 367.486,298.265 366.619,306.947 370.837 " stroke="none" fill="black" fill-rule="evenodd"></path></svg>