<svg xmlns="http://www.w3.org/2000/svg" width="512" height="512" viewBox="0 0 512 512"><path d="M105.387 35.735 C 77.370 47.619,55.153 63.486,44.440 79.262 C 35.700 92.132,32.466 102.695,32.441 118.450 C 32.399 146.116,42.127 174.827,65.837 217.019 C 96.111 270.889,119.165 301.012,165.120 346.745 C 210.488 391.893,250.943 421.787,309.607 453.513 C 357.412 479.366,393.236 485.918,420.123 473.727 C 442.108 463.759,462.590 438.854,476.508 405.168 C 480.646 395.153,480.775 388.385,476.974 380.778 C 472.331 371.487,457.320 356.890,438.818 343.675 C 418.006 328.811,380.359 307.243,366.990 302.527 C 351.644 297.112,341.200 299.878,321.707 314.518 C 316.309 318.572,309.896 322.827,307.454 323.975 C 303.472 325.846,302.637 325.960,299.347 325.079 C 285.409 321.346,263.342 307.762,243.577 290.746 C 221.970 272.146,202.385 247.267,191.031 224.000 C 187.193 216.134,186.035 212.870,186.036 209.920 C 186.037 205.138,186.913 203.462,195.453 191.895 C 214.075 166.671,214.905 157.574,201.210 128.763 C 194.798 115.275,187.579 102.848,176.090 85.520 C 163.799 66.984,155.174 56.241,144.225 45.831 C 133.200 35.348,127.698 32.416,119.117 32.452 C 114.050 32.473,111.819 33.006,105.387 35.735 " stroke="none" fill="black" fill-rule="evenodd"></path></svg>