<svg xmlns="http://www.w3.org/2000/svg" width="512" height="512" viewBox="0 0 512 512"><path d="M197.120 82.155 C 182.888 87.025,178.310 91.715,161.300 118.846 C 148.603 139.099,146.022 142.400,141.850 143.724 C 140.012 144.308,139.947 144.134,139.947 138.697 C 139.947 130.024,137.370 125.068,131.234 121.936 C 128.465 120.523,126.089 120.320,112.303 120.320 C 95.529 120.320,93.215 120.733,89.310 124.428 C 85.631 127.909,84.379 131.004,83.857 137.913 L 83.380 144.213 78.563 144.213 C 67.165 144.213,55.474 149.343,46.473 158.293 C 39.869 164.859,35.865 171.609,33.506 180.150 C 32.106 185.218,32.000 192.785,32.000 288.000 C 32.000 383.215,32.106 390.782,33.506 395.850 C 35.833 404.274,39.891 411.137,46.481 417.792 C 53.038 424.415,61.441 429.120,69.802 430.851 C 76.194 432.174,435.806 432.174,442.198 430.851 C 458.903 427.392,473.731 413.094,478.494 395.850 C 479.894 390.782,480.000 383.215,480.000 288.000 C 480.000 192.785,479.894 185.218,478.494 180.150 C 476.167 171.726,472.109 164.863,465.519 158.208 C 458.962 151.585,450.559 146.880,442.198 145.149 C 439.374 144.565,425.348 144.213,404.837 144.213 C 369.152 144.213,368.596 144.148,364.264 139.412 C 363.030 138.063,356.345 127.936,349.409 116.907 C 335.782 95.239,331.454 90.130,322.884 85.592 C 312.506 80.098,313.931 80.211,255.632 80.235 C 203.147 80.257,202.616 80.275,197.120 82.155 M272.640 177.533 C 286.470 180.032,302.047 186.720,312.747 194.753 C 332.145 209.317,344.665 229.258,350.213 254.426 C 350.672 256.508,350.981 256.656,354.030 256.247 C 362.530 255.107,371.975 263.038,372.030 271.360 C 372.070 277.548,370.394 280.096,358.121 292.497 C 342.594 308.186,338.202 310.345,329.813 306.418 C 325.698 304.491,302.564 281.394,301.269 277.918 C 299.150 272.232,300.995 263.907,305.220 260.086 C 307.419 258.097,312.630 256.000,315.372 256.000 C 317.391 256.000,317.569 255.757,317.087 253.653 C 316.072 249.224,308.988 235.944,305.202 231.373 C 297.505 222.081,286.680 214.796,274.916 210.991 C 265.325 207.889,251.362 207.396,241.300 209.803 C 233.049 211.778,223.682 216.111,217.173 220.966 C 210.893 225.650,209.176 226.377,204.395 226.377 C 192.438 226.377,185.032 214.388,190.286 203.536 C 193.316 197.276,208.776 187.102,223.277 181.824 C 229.777 179.459,240.074 177.076,247.040 176.325 C 252.092 175.781,266.777 176.474,272.640 177.533 M182.332 237.282 C 185.527 238.497,207.923 260.707,209.992 264.713 C 211.795 268.204,212.125 274.197,210.719 277.918 C 208.708 283.241,202.768 287.573,197.482 287.573 C 194.406 287.573,194.357 287.625,194.873 290.347 C 196.011 296.344,202.933 308.526,208.822 314.894 C 231.371 339.278,267.972 342.885,294.169 323.306 C 299.751 319.134,301.954 318.293,307.298 318.293 C 316.150 318.293,322.589 324.894,322.541 333.922 C 322.510 339.871,320.045 343.919,313.503 348.767 C 279.116 374.253,232.829 374.175,198.400 348.574 C 180.389 335.181,166.807 314.006,162.075 291.940 L 161.139 287.573 156.482 287.573 C 147.977 287.573,141.592 282.300,140.316 274.221 C 139.291 267.738,140.890 265.110,153.924 251.846 C 160.551 245.103,167.125 238.865,168.533 237.983 C 171.421 236.175,178.476 235.816,182.332 237.282 " stroke="none" fill="black" fill-rule="evenodd"></path></svg>