<svg xmlns="http://www.w3.org/2000/svg" width="512" height="512" viewBox="0 0 512 512"><path d="M224.853 96.956 C 182.113 100.238,150.890 106.715,131.840 116.251 C 114.674 124.845,100.600 140.816,88.213 165.760 L 83.234 175.787 72.977 175.791 C 60.477 175.797,57.173 176.641,52.896 180.917 C 46.998 186.816,46.462 194.392,51.414 201.868 C 54.660 206.770,54.372 207.349,46.470 211.821 C 37.639 216.817,32.143 221.249,29.120 225.813 C 21.866 236.765,17.428 264.450,16.484 304.640 C 15.814 333.145,18.113 355.170,24.330 379.817 C 27.349 391.786,29.627 395.541,35.500 398.230 C 38.797 399.739,40.107 400.816,40.107 402.017 C 40.107 404.638,43.181 410.016,46.068 412.445 C 47.510 413.659,50.119 414.955,51.865 415.326 C 56.017 416.207,112.112 416.202,116.273 415.320 C 120.832 414.353,125.944 409.224,127.263 404.292 L 128.319 400.344 133.493 399.788 C 136.338 399.482,144.235 397.943,151.040 396.369 C 176.448 390.491,218.482 387.701,269.227 388.523 C 314.624 389.259,341.636 391.586,364.508 396.728 C 370.770 398.137,377.641 399.509,379.777 399.778 C 383.515 400.249,383.698 400.406,384.653 403.978 C 385.858 408.484,388.955 412.336,392.866 414.191 C 395.389 415.389,400.054 415.573,427.807 415.573 C 448.422 415.573,460.692 415.249,462.238 414.663 C 466.814 412.929,470.687 407.977,471.853 402.370 C 472.262 400.402,473.034 399.646,475.297 398.997 C 476.901 398.537,479.591 396.782,481.276 395.097 C 484.658 391.715,486.782 385.704,489.767 371.069 C 494.878 346.010,496.139 331.380,495.526 304.213 C 494.633 264.570,490.140 236.774,482.845 225.760 C 479.893 221.304,473.477 216.174,464.760 211.299 C 461.749 209.615,459.044 207.610,458.750 206.843 C 458.431 206.011,459.226 203.922,460.720 201.666 C 465.536 194.395,464.941 186.754,459.104 180.917 C 454.827 176.641,451.523 175.797,439.023 175.791 L 428.766 175.787 423.787 165.760 C 411.385 140.786,397.338 124.857,380.104 116.221 C 364.191 108.248,338.777 102.214,305.493 98.506 C 293.740 97.197,236.139 96.090,224.853 96.956 M283.307 128.870 C 319.646 131.096,350.312 137.107,366.170 145.112 C 373.071 148.596,380.447 155.674,386.131 164.267 C 392.561 173.988,401.067 191.367,401.067 194.784 C 401.067 198.115,399.113 201.199,396.331 202.256 C 395.127 202.714,380.082 202.534,358.657 201.806 C 259.677 198.444,253.930 198.444,154.453 201.829 C 134.037 202.524,117.075 203.092,116.759 203.093 C 116.443 203.093,115.003 202.099,113.559 200.884 C 109.450 197.427,109.902 194.040,116.144 181.534 C 126.831 160.118,135.384 150.048,147.830 144.229 C 173.467 132.242,231.307 125.685,283.307 128.870 M78.080 241.622 C 104.741 248.109,128.024 258.502,127.987 263.899 C 127.967 266.845,126.838 268.007,123.217 268.807 C 117.164 270.144,95.375 271.590,79.787 271.689 C 62.241 271.801,57.496 270.773,52.502 265.779 C 48.161 261.437,46.388 250.758,48.980 244.557 C 50.532 240.840,51.332 240.419,57.990 239.814 C 65.152 239.162,69.628 239.565,78.080 241.622 M461.592 241.432 C 465.081 244.921,464.625 259.161,460.855 264.456 C 458.453 267.829,452.704 270.455,445.320 271.551 C 434.983 273.085,387.933 270.149,385.094 267.792 C 384.492 267.293,384.000 265.782,384.000 264.434 C 384.000 262.534,384.814 261.392,387.627 259.347 C 400.374 250.080,433.339 239.968,451.200 239.846 C 458.749 239.795,460.172 240.012,461.592 241.432 M296.107 306.374 C 337.714 311.702,358.536 317.700,365.306 326.307 C 367.724 329.380,368.378 335.161,366.678 338.419 C 363.546 344.418,355.391 349.261,345.965 350.719 C 341.964 351.337,311.785 351.551,252.587 351.378 C 154.846 351.094,161.188 351.497,151.936 344.978 C 136.807 334.317,144.076 322.028,169.927 314.561 C 182.573 310.908,212.634 306.323,235.093 304.620 C 250.224 303.474,280.181 304.334,296.107 306.374 " stroke="none" fill="black" fill-rule="evenodd"></path></svg>