<svg xmlns="http://www.w3.org/2000/svg" width="512" height="512" viewBox="0 0 512 512"><path d="M41.371 81.400 C 38.190 82.789,33.528 87.982,32.652 91.109 C 32.294 92.391,32.000 108.800,32.000 127.573 L 32.000 161.707 256.000 161.707 L 480.000 161.707 480.000 127.147 C 480.000 94.275,479.917 92.423,478.293 89.228 C 477.355 87.381,475.111 84.693,473.307 83.255 L 470.028 80.640 256.987 80.457 C 82.221 80.308,43.484 80.477,41.371 81.400 M31.950 222.970 C 31.716 223.579,31.632 268.220,31.762 322.172 C 31.996 418.512,32.031 420.318,33.707 423.163 C 34.645 424.756,36.889 427.252,38.693 428.710 L 41.972 431.360 256.000 431.360 L 470.028 431.360 473.307 428.745 C 475.111 427.307,477.355 424.619,478.293 422.772 C 479.971 419.471,480.000 417.725,480.000 320.853 L 480.000 222.293 256.187 222.078 C 73.427 221.903,32.296 222.066,31.950 222.970 M200.919 270.861 C 202.509 271.525,204.224 272.844,204.731 273.792 C 206.113 276.373,205.952 344.714,204.560 346.527 C 202.043 349.805,201.059 349.867,151.457 349.867 L 103.122 349.867 100.628 347.372 L 98.133 344.878 98.133 310.196 C 98.133 287.019,98.439 274.944,99.054 273.794 C 101.179 269.823,102.472 269.722,151.707 269.687 C 189.776 269.659,198.543 269.868,200.919 270.861 " stroke="none" fill="black" fill-rule="evenodd"></path></svg>