<svg xmlns="http://www.w3.org/2000/svg" width="512" height="512" viewBox="0 0 512 512"><path d="M109.903 151.377 C 98.645 154.425,91.255 165.187,92.466 176.772 C 92.754 179.527,93.732 183.216,94.640 184.971 C 95.547 186.725,128.766 226.050,168.459 272.361 C 236.381 351.608,240.913 356.701,245.482 358.937 C 252.282 362.264,259.721 362.262,266.527 358.932 C 271.106 356.692,275.598 351.645,343.575 272.357 C 386.744 222.004,416.485 186.616,417.564 184.320 C 420.039 179.050,420.046 170.019,417.579 164.617 C 415.303 159.634,410.422 154.743,405.410 152.425 L 401.493 150.613 257.707 150.451 C 143.469 150.323,113.094 150.513,109.903 151.377 " stroke="none" fill="black" fill-rule="evenodd"></path></svg>