<svg xmlns="http://www.w3.org/2000/svg" width="512" height="512" viewBox="0 0 512 512"><path d="M16.213 104.107 L 16.213 144.213 25.112 144.213 C 36.563 144.213,45.644 142.927,53.242 140.227 C 68.959 134.644,80.925 124.161,88.750 109.121 C 93.625 99.750,95.374 92.051,96.082 76.838 L 96.680 64.000 56.447 64.000 L 16.213 64.000 16.213 104.107 M127.733 79.147 C 127.222 94.699,126.261 100.749,122.615 111.360 C 112.343 141.250,86.793 164.767,55.703 172.949 C 48.689 174.795,44.880 175.212,31.787 175.570 L 16.213 175.995 16.213 207.891 L 16.213 239.787 25.813 239.789 C 45.572 239.794,59.211 242.764,74.667 250.427 C 85.842 255.968,93.083 261.287,101.461 270.106 C 119.711 289.319,127.982 311.454,127.995 341.120 L 128.000 352.427 256.000 352.427 L 384.000 352.427 384.003 340.693 C 384.010 316.759,388.683 300.366,400.608 282.443 C 409.561 268.987,422.572 257.587,437.429 250.181 C 451.330 243.252,462.237 240.744,481.493 240.051 L 495.787 239.537 495.787 207.766 L 495.787 175.995 480.213 175.570 C 461.216 175.051,452.491 173.075,438.187 166.050 C 411.175 152.785,392.947 129.637,386.048 99.840 C 385.320 96.693,384.549 87.741,384.267 79.147 L 383.770 64.000 256.000 64.000 L 128.230 64.000 127.733 79.147 M415.918 76.838 C 416.284 84.708,417.136 92.100,418.118 95.940 C 421.077 107.509,429.259 120.912,437.581 127.822 C 451.894 139.707,465.450 144.213,486.888 144.213 L 495.787 144.213 495.787 104.107 L 495.787 64.000 455.553 64.000 L 415.320 64.000 415.918 76.838 M276.410 114.292 C 307.784 121.163,334.258 143.862,345.399 173.447 C 350.483 186.946,351.808 195.408,351.310 211.200 C 350.956 222.401,350.479 226.293,348.650 232.869 C 333.708 286.598,277.497 316.522,224.967 298.713 C 201.641 290.804,181.473 273.263,170.463 251.307 C 163.236 236.894,160.427 224.784,160.427 208.040 C 160.427 173.215,177.319 143.495,207.383 125.426 C 227.701 113.215,252.918 109.147,276.410 114.292 M240.640 145.978 C 217.709 151.966,200.174 169.256,193.967 192.000 C 191.629 200.569,191.863 216.947,194.444 225.280 C 198.032 236.868,202.636 244.517,211.166 253.059 C 217.685 259.589,220.136 261.399,226.987 264.749 C 238.211 270.237,244.120 271.645,256.000 271.664 C 274.193 271.692,287.727 266.062,300.834 253.013 C 309.367 244.518,313.955 236.909,317.556 225.280 C 320.137 216.945,320.355 200.577,317.998 192.000 C 310.125 163.344,284.993 144.100,255.650 144.260 C 249.986 144.291,244.850 144.879,240.640 145.978 M16.213 312.230 L 16.213 352.444 56.107 352.222 L 96.000 352.000 96.266 346.880 C 96.712 338.279,94.971 323.440,92.659 316.151 C 89.554 306.360,85.079 299.264,76.789 290.987 C 68.441 282.650,62.806 279.060,52.276 275.370 C 45.341 272.939,43.765 272.723,30.507 272.383 L 16.213 272.016 16.213 312.230 M466.347 273.466 C 444.766 278.173,425.973 295.238,419.341 316.151 C 417.029 323.440,415.288 338.279,415.734 346.880 L 416.000 352.000 455.893 352.222 L 495.787 352.444 495.787 312.328 L 495.787 272.213 483.627 272.281 C 476.939 272.318,469.163 272.852,466.347 273.466 M47.787 384.000 L 47.787 400.213 256.000 400.213 L 464.213 400.213 464.213 384.000 L 464.213 367.787 256.000 367.787 L 47.787 367.787 47.787 384.000 M80.213 431.787 L 80.213 448.000 256.000 448.000 L 431.787 448.000 431.787 431.787 L 431.787 415.573 256.000 415.573 L 80.213 415.573 80.213 431.787 " stroke="none" fill="black" fill-rule="evenodd"></path></svg>