<svg xmlns="http://www.w3.org/2000/svg" width="512" height="512" viewBox="0 0 512 512"><path d="M94.293 48.724 C 68.967 52.420,47.370 69.121,37.614 92.556 C 31.883 106.324,32.177 100.496,31.802 207.787 C 31.445 310.061,31.748 321.683,35.060 332.418 C 41.850 354.428,59.154 372.493,80.444 379.798 C 90.369 383.203,96.496 383.986,113.280 383.994 L 128.000 384.000 128.019 417.493 C 128.036 448.142,128.171 451.280,129.604 454.435 C 133.393 462.776,143.221 466.319,151.125 462.192 C 152.346 461.555,174.117 443.714,199.507 422.544 L 245.671 384.054 332.969 383.795 L 420.267 383.537 426.518 381.614 C 439.972 377.476,448.028 372.815,457.698 363.572 C 466.778 354.893,473.228 344.450,476.940 332.418 C 480.246 321.699,480.554 310.023,480.222 207.787 C 479.908 110.830,479.900 110.483,478.032 103.409 C 470.975 76.682,452.266 57.755,425.387 50.149 L 418.560 48.217 258.987 48.097 C 171.221 48.031,97.109 48.314,94.293 48.724 M417.182 81.118 C 427.175 83.421,437.980 91.630,442.715 100.514 C 448.249 110.895,448.000 105.477,448.000 215.604 C 448.000 285.960,447.717 316.991,447.048 320.171 C 445.631 326.900,442.160 333.394,436.992 338.986 C 431.931 344.461,427.687 347.263,420.124 350.120 L 415.147 352.000 325.120 352.427 C 240.628 352.827,234.921 352.947,232.291 354.384 C 230.749 355.225,214.045 368.775,195.171 384.494 L 160.853 413.073 160.414 388.510 C 159.947 362.375,159.904 362.107,155.416 357.257 C 151.074 352.566,150.281 352.427,127.829 352.420 C 101.265 352.412,94.763 351.680,86.676 347.791 C 75.945 342.629,67.386 331.749,64.951 320.171 C 64.283 316.995,64.000 285.884,64.000 215.604 C 64.000 106.677,63.810 111.190,68.806 101.319 C 73.280 92.477,84.797 83.423,94.463 81.148 C 99.135 80.049,412.417 80.019,417.182 81.118 M148.248 186.386 C 126.536 195.314,121.134 223.818,138.240 239.198 C 158.265 257.202,189.510 245.138,191.739 218.543 C 192.630 207.919,187.461 196.375,179.101 190.320 C 170.438 184.044,157.847 182.439,148.248 186.386 M245.827 185.673 C 240.433 187.631,236.485 190.322,232.244 194.930 C 226.251 201.442,224.859 205.393,224.856 215.893 C 224.854 223.996,225.083 225.322,227.258 229.751 C 239.027 253.717,272.978 253.706,284.751 229.732 C 286.915 225.325,287.146 223.988,287.144 215.893 C 287.141 205.136,285.695 201.250,279.101 194.278 C 272.730 187.541,266.834 184.921,257.280 184.579 C 251.785 184.382,248.527 184.694,245.827 185.673 M340.248 186.386 C 318.536 195.314,313.134 223.818,330.240 239.198 C 350.265 257.202,381.510 245.138,383.739 218.543 C 384.630 207.919,379.461 196.375,371.101 190.320 C 362.438 184.044,349.847 182.439,340.248 186.386 " stroke="none" fill="black" fill-rule="evenodd"></path></svg>