<svg xmlns="http://www.w3.org/2000/svg" width="512" height="512" viewBox="0 0 512 512"><path d="M243.627 48.295 C 200.707 51.540,163.787 65.309,129.707 90.781 C 119.276 98.577,98.579 119.277,90.713 129.782 C 68.255 159.772,54.418 193.768,49.413 231.253 C 48.019 241.696,48.019 270.304,49.413 280.747 C 59.554 356.698,107.829 420.063,177.067 448.304 C 203.509 459.089,227.771 463.751,256.853 463.634 C 290.198 463.499,318.398 456.932,347.733 442.471 C 410.837 411.362,453.091 351.864,462.587 280.747 C 463.981 270.304,463.981 241.696,462.587 231.253 C 453.091 160.136,410.837 100.638,347.733 69.529 C 327.592 59.600,306.356 53.073,283.994 49.939 C 275.010 48.680,251.306 47.715,243.627 48.295 M275.447 81.114 C 347.484 88.943,408.291 141.727,426.231 212.001 C 448.394 298.823,402.945 387.270,319.249 420.197 C 293.994 430.132,262.077 434.038,234.686 430.544 C 145.853 419.214,80.213 345.046,80.213 256.000 C 80.213 167.651,145.919 92.766,233.311 81.514 C 244.096 80.125,264.562 79.931,275.447 81.114 M209.477 145.403 C 205.967 146.932,201.670 152.016,200.585 155.923 C 199.478 159.907,199.479 160.072,200.609 164.267 C 201.394 167.181,207.969 174.132,245.607 211.840 L 289.684 256.000 245.607 300.160 C 207.969 337.868,201.394 344.819,200.609 347.733 C 199.479 351.928,199.478 352.093,200.585 356.077 C 201.698 360.087,206.019 365.110,209.666 366.634 C 213.320 368.161,218.620 368.094,222.534 366.471 C 226.280 364.919,321.255 270.673,325.215 264.580 C 327.189 261.542,327.680 259.832,327.680 256.000 C 327.680 252.168,327.189 250.458,325.215 247.420 C 321.255 241.327,226.280 147.081,222.534 145.529 C 218.691 143.935,212.972 143.880,209.477 145.403 " stroke="none" fill="black" fill-rule="evenodd"></path></svg>