<svg xmlns="http://www.w3.org/2000/svg" width="512" height="512" viewBox="0 0 512 512"><path d="M138.567 128.925 C 134.311 130.159,129.098 136.454,128.383 141.221 C 127.079 149.916,125.054 147.522,181.606 204.160 L 233.368 256.000 181.606 307.840 C 124.957 364.576,127.076 362.064,128.400 370.893 C 128.905 374.262,129.752 375.756,132.998 379.002 C 136.244 382.248,137.738 383.095,141.107 383.600 C 149.936 384.924,147.424 387.043,204.160 330.394 L 256.000 278.632 307.840 330.394 C 364.576 387.043,362.064 384.924,370.893 383.600 C 374.262 383.095,375.756 382.248,379.002 379.002 C 382.248 375.756,383.095 374.262,383.600 370.893 C 384.924 362.064,387.043 364.576,330.394 307.840 L 278.632 256.000 330.394 204.160 C 387.043 147.424,384.924 149.936,383.600 141.107 C 383.095 137.738,382.248 136.244,379.002 132.998 C 375.756 129.752,374.262 128.905,370.893 128.400 C 362.064 127.076,364.576 124.956,307.837 181.610 L 255.993 233.375 204.583 181.997 C 168.830 146.266,152.207 130.221,150.001 129.310 C 146.513 127.870,142.653 127.740,138.567 128.925 " stroke="none" fill="black" fill-rule="evenodd"></path></svg>