<svg xmlns="http://www.w3.org/2000/svg" width="512" height="512" viewBox="0 0 512 512"><path d="M134.872 121.794 C 129.722 123.613,123.546 129.929,121.743 135.222 C 119.788 140.958,119.932 148.812,122.080 153.600 C 123.398 156.538,135.370 169.016,173.045 206.720 L 222.288 256.000 173.045 305.280 C 135.370 342.984,123.398 355.462,122.080 358.400 C 118.287 366.855,120.446 378.234,127.106 384.894 C 133.766 391.554,145.145 393.713,153.600 389.920 C 156.538 388.602,169.016 376.630,206.720 338.955 L 256.000 289.712 305.280 338.955 C 342.984 376.630,355.462 388.602,358.400 389.920 C 363.152 392.052,371.032 392.215,376.655 390.299 C 382.028 388.469,388.469 382.028,390.299 376.655 C 392.215 371.032,392.052 363.152,389.920 358.400 C 388.602 355.462,376.631 342.984,338.958 305.284 L 289.719 256.007 339.317 206.297 C 394.572 150.916,392.196 153.807,391.524 142.765 C 391.323 139.461,390.462 135.489,389.525 133.547 C 387.182 128.689,381.290 123.280,376.601 121.682 C 371.027 119.783,363.136 119.956,358.400 122.080 C 355.462 123.398,342.984 135.370,305.280 173.045 L 256.000 222.288 206.720 173.045 C 169.016 135.370,156.538 123.398,153.600 122.080 C 148.910 119.976,140.390 119.846,134.872 121.794 " stroke="none" fill="black" fill-rule="evenodd"></path></svg>