<svg xmlns="http://www.w3.org/2000/svg" width="512" height="512" viewBox="0 0 512 512"><path d="M234.187 81.471 C 185.358 88.949,145.680 118.043,122.437 163.413 C 115.528 176.900,115.464 176.952,101.690 180.444 C 47.705 194.128,12.238 229.117,2.404 278.389 C -0.127 291.074,-0.320 315.450,2.018 327.222 C 12.528 380.148,50.912 417.432,107.197 429.388 L 116.480 431.360 261.120 431.615 C 363.458 431.796,408.256 431.592,414.293 430.919 C 448.414 427.112,475.447 413.272,492.448 390.906 C 498.560 382.865,505.609 368.129,508.163 358.054 C 517.835 319.896,509.000 283.740,483.870 258.647 C 469.230 244.028,451.040 234.291,425.408 227.354 C 417.703 225.269,413.674 220.857,411.821 212.480 C 396.913 145.081,349.990 96.367,287.206 83.109 C 278.586 81.288,274.054 80.881,259.413 80.610 C 247.269 80.385,239.555 80.649,234.187 81.471 M325.819 194.783 C 333.089 199.595,334.991 210.438,329.772 217.325 C 328.412 219.119,303.009 249.435,273.320 284.695 C 234.801 330.440,218.503 349.200,216.421 350.188 C 211.707 352.425,204.942 352.009,200.774 349.227 C 196.805 346.577,151.155 296.220,149.138 292.267 C 145.982 286.080,146.589 279.712,150.814 274.691 C 153.511 271.486,158.881 268.845,162.756 268.819 C 169.261 268.775,171.773 270.783,188.766 289.614 C 197.706 299.521,205.875 308.522,206.918 309.615 L 208.816 311.604 257.719 253.530 C 295.954 208.123,307.383 195.068,310.111 193.680 C 314.824 191.281,321.204 191.729,325.819 194.783 " stroke="none" fill="black" fill-rule="evenodd"></path></svg>