<svg xmlns="http://www.w3.org/2000/svg" width="512" height="512" viewBox="0 0 512 512"><path d="M234.187 81.471 C 183.300 89.264,141.109 121.517,119.739 168.960 C 116.670 175.773,115.710 177.162,113.724 177.663 C 112.424 177.990,107.712 179.103,103.253 180.136 C 91.564 182.842,79.426 187.204,68.869 192.493 C 32.645 210.640,10.114 239.759,2.404 278.389 C -0.127 291.074,-0.320 315.450,2.018 327.222 C 12.528 380.148,50.912 417.432,107.197 429.388 L 116.480 431.360 261.120 431.615 C 363.458 431.796,408.256 431.592,414.293 430.919 C 448.414 427.112,475.447 413.272,492.448 390.906 C 510.990 366.512,517.057 328.025,507.258 296.956 C 496.306 262.231,465.874 236.652,424.533 227.422 C 418.901 226.165,414.264 225.072,414.229 224.995 C 414.193 224.917,413.324 220.580,412.297 215.358 C 411.270 210.135,409.060 201.534,407.385 196.244 C 388.408 136.316,344.810 95.273,287.206 83.109 C 278.586 81.288,274.054 80.881,259.413 80.610 C 247.269 80.385,239.555 80.649,234.187 81.471 M327.629 196.009 C 339.204 205.753,339.452 206.033,338.063 207.776 C 337.280 208.758,308.077 243.471,273.166 284.917 L 209.692 360.273 207.355 357.843 C 206.070 356.507,190.510 339.308,172.777 319.624 L 140.536 283.835 145.609 279.091 C 148.399 276.482,153.649 271.701,157.276 268.468 C 163.821 262.634,163.884 262.602,165.652 264.202 C 166.632 265.088,176.676 276.077,187.971 288.622 C 201.549 303.700,208.821 311.168,209.428 310.658 C 209.933 310.233,233.771 282.029,262.400 247.982 C 291.029 213.935,314.750 186.066,315.113 186.052 C 315.476 186.038,321.108 190.519,327.629 196.009 " stroke="none" fill="black" fill-rule="evenodd"></path></svg>