<svg xmlns="http://www.w3.org/2000/svg" width="512" height="512" viewBox="0 0 512 512"><path d="M289.542 71.374 C 288.460 74.195,182.057 429.669,182.225 429.904 C 182.465 430.241,218.433 440.945,220.556 441.311 C 222.083 441.574,227.008 425.663,276.074 261.973 C 310.474 147.208,329.589 82.156,329.011 81.818 C 328.205 81.346,309.899 75.787,295.422 71.617 C 290.652 70.243,289.987 70.216,289.542 71.374 M81.560 184.598 C 37.480 223.179,1.268 255.183,1.090 255.718 C 0.911 256.254,35.633 287.160,78.249 324.398 C 120.865 361.636,157.126 393.354,158.827 394.882 L 161.921 397.660 175.797 381.803 C 187.404 368.538,189.478 365.767,188.489 364.851 C 187.839 364.248,159.755 339.676,126.080 310.246 C 92.405 280.815,64.853 256.405,64.853 256.000 C 64.853 255.595,92.405 231.185,126.080 201.754 C 159.755 172.324,187.839 147.752,188.489 147.149 C 189.478 146.233,187.404 143.463,175.800 130.200 C 168.170 121.481,161.878 114.370,161.817 114.399 C 161.756 114.428,125.641 146.017,81.560 184.598 M336.235 130.161 C 328.593 138.895,322.677 146.339,323.090 146.704 C 323.502 147.069,351.584 171.650,385.493 201.330 C 419.403 231.010,447.147 255.611,447.147 256.000 C 447.147 256.389,419.403 280.990,385.493 310.670 C 351.584 340.350,323.502 364.931,323.090 365.296 C 322.677 365.661,328.593 373.105,336.235 381.839 L 350.131 397.720 352.345 395.676 C 353.563 394.552,389.982 362.663,433.276 324.812 L 511.991 255.991 433.276 187.181 C 389.982 149.336,353.563 117.451,352.345 116.326 L 350.131 114.280 336.235 130.161 " stroke="none" fill="black" fill-rule="evenodd"></path></svg>