<svg xmlns="http://www.w3.org/2000/svg" width="512" height="512" viewBox="0 0 512 512"><path d="M184.175 34.156 C 180.700 35.992,178.256 39.054,176.771 43.434 C 175.490 47.210,175.422 95.506,176.691 100.077 C 177.805 104.087,182.125 109.110,185.773 110.634 C 189.301 112.108,194.699 112.108,198.227 110.634 C 201.875 109.110,206.195 104.087,207.309 100.077 C 208.578 95.506,208.510 47.210,207.229 43.434 C 205.715 38.969,203.269 35.964,199.642 34.114 C 195.332 31.915,188.382 31.934,184.175 34.156 M82.917 76.071 C 78.402 78.306,75.035 83.139,74.464 88.203 C 73.635 95.555,74.741 97.135,95.037 117.613 C 105.422 128.092,115.345 137.404,117.086 138.306 C 122.694 141.212,131.832 139.666,135.861 135.129 C 139.984 130.486,141.074 122.418,138.299 117.086 C 135.893 112.463,100.154 77.169,96.241 75.551 C 91.847 73.735,87.276 73.913,82.917 76.071 M287.573 75.587 C 283.818 77.196,247.972 112.722,245.701 117.086 C 242.926 122.418,244.016 130.486,248.139 135.129 C 252.168 139.666,261.306 141.212,266.914 138.306 C 268.655 137.404,278.578 128.092,288.963 117.613 C 309.259 97.135,310.365 95.555,309.536 88.203 C 308.372 77.879,297.200 71.462,287.573 75.587 M191.147 146.082 C 187.063 147.631,184.037 150.257,167.853 166.302 C 147.185 186.791,144.955 189.917,144.379 199.211 C 144.142 203.027,144.548 205.709,145.937 209.493 C 147.763 214.472,151.406 218.209,277.641 344.621 C 421.429 488.610,411.692 479.571,423.008 479.573 C 426.316 479.573,430.166 478.887,433.248 477.749 C 437.705 476.102,440.027 474.084,457.055 457.055 C 474.084 440.027,476.102 437.705,477.749 433.248 C 478.887 430.166,479.573 426.316,479.573 423.008 C 479.571 411.695,488.604 421.425,344.620 277.639 C 219.683 152.874,214.421 147.741,209.675 146.012 C 203.476 143.754,197.222 143.778,191.147 146.082 M43.093 176.829 C 36.247 179.256,32.427 184.690,32.427 192.000 C 32.427 199.470,36.281 204.803,43.434 207.229 C 47.210 208.510,95.506 208.578,100.077 207.309 C 104.087 206.195,109.110 201.875,110.634 198.227 C 112.108 194.699,112.108 189.301,110.634 185.773 C 109.110 182.125,104.087 177.805,100.077 176.691 C 95.751 175.490,46.535 175.609,43.093 176.829 M434.562 434.559 L 423.694 445.451 329.185 350.945 L 234.677 256.440 245.545 245.548 L 256.413 234.656 350.921 329.161 L 445.430 423.667 434.562 434.559 M117.333 245.455 C 113.132 247.643,77.682 283.295,75.877 287.147 C 71.305 296.904,77.601 308.341,88.203 309.536 C 95.555 310.365,97.135 309.259,117.613 288.963 C 128.092 278.578,137.404 268.655,138.306 266.914 C 141.212 261.306,139.666 252.168,135.129 248.139 C 130.699 244.205,122.196 242.922,117.333 245.455 " stroke="none" fill="black" fill-rule="evenodd"></path></svg>