<svg xmlns="http://www.w3.org/2000/svg" width="512" height="512" viewBox="0 0 512 512"><path d="M184.175 34.156 C 180.700 35.992,178.256 39.054,176.771 43.434 C 175.490 47.210,175.422 95.506,176.691 100.077 C 177.805 104.087,182.125 109.110,185.773 110.634 C 189.301 112.108,194.699 112.108,198.227 110.634 C 201.875 109.110,206.195 104.087,207.309 100.077 C 208.578 95.506,208.510 47.210,207.229 43.434 C 205.715 38.969,203.269 35.964,199.642 34.114 C 195.332 31.915,188.382 31.934,184.175 34.156 M84.807 75.165 C 80.551 76.399,75.338 82.694,74.623 87.461 C 73.425 95.447,74.303 96.745,95.012 117.613 C 105.411 128.092,115.345 137.404,117.086 138.306 C 122.642 141.185,130.182 140.134,135.131 135.790 C 139.797 131.695,141.296 122.844,138.299 117.086 C 135.893 112.463,100.154 77.169,96.241 75.551 C 92.754 74.110,88.894 73.980,84.807 75.165 M287.128 75.940 C 282.396 78.283,247.121 113.774,245.378 117.946 C 241.081 128.235,248.686 139.947,259.665 139.947 C 261.966 139.947,265.090 139.358,266.606 138.638 C 268.123 137.919,278.226 128.415,289.058 117.518 C 310.332 96.117,310.581 95.755,309.511 87.778 C 308.122 77.423,296.525 71.289,287.128 75.940 M193.130 145.442 C 187.046 147.344,184.430 149.535,165.879 168.265 C 149.569 184.734,147.685 186.937,145.955 191.573 C 143.558 197.995,143.861 205.880,146.725 211.627 C 148.920 216.032,209.470 277.333,211.626 277.333 C 213.312 277.333,277.333 213.293,277.333 211.607 C 277.333 210.897,263.221 196.255,245.973 179.071 C 216.828 150.032,214.265 147.698,209.675 146.020 C 204.123 143.989,198.413 143.790,193.130 145.442 M43.093 176.829 C 36.247 179.256,32.427 184.690,32.427 192.000 C 32.427 199.470,36.281 204.803,43.434 207.229 C 47.210 208.510,95.506 208.578,100.077 207.309 C 104.087 206.195,109.110 201.875,110.634 198.227 C 112.108 194.699,112.108 189.301,110.634 185.773 C 109.110 182.125,104.087 177.805,100.077 176.691 C 95.751 175.490,46.535 175.609,43.093 176.829 M267.746 267.746 C 250.022 285.470,235.520 300.538,235.520 301.229 C 235.520 301.921,274.400 341.380,321.920 388.916 C 385.125 452.141,409.351 475.851,412.160 477.232 C 414.816 478.538,418.022 479.217,422.558 479.434 C 433.441 479.956,435.755 478.477,456.789 457.551 C 478.164 436.286,479.960 433.520,479.439 422.663 C 479.217 418.023,478.547 414.834,477.232 412.160 C 475.851 409.351,452.141 385.125,388.916 321.920 C 341.380 274.400,301.921 235.520,301.229 235.520 C 300.538 235.520,285.470 250.022,267.746 267.746 M117.283 245.769 C 115.196 246.802,106.343 255.023,94.999 266.462 C 74.774 286.856,73.639 288.477,74.464 295.797 C 75.659 306.402,87.749 312.979,97.101 308.112 C 101.723 305.706,137.018 269.967,138.635 266.054 C 144.130 252.760,130.096 239.427,117.283 245.769 " stroke="none" fill="black" fill-rule="evenodd"></path></svg>