<svg xmlns="http://www.w3.org/2000/svg" width="512" height="512" viewBox="0 0 512 512"><path d="M106.023 70.190 L 68.266 107.954 102.842 142.510 C 121.859 161.516,137.315 177.518,137.189 178.069 C 137.063 178.621,113.536 201.590,84.907 229.113 C 56.277 256.636,32.751 279.437,32.625 279.781 C 32.366 280.495,207.087 463.360,208.029 463.360 C 208.563 463.360,254.853 418.655,337.575 338.251 L 360.697 315.777 387.068 310.196 C 401.573 307.127,413.998 304.411,414.679 304.161 C 415.502 303.860,370.255 258.043,280.280 168.067 C 205.679 93.465,144.448 32.427,144.211 32.427 C 143.974 32.427,126.789 49.420,106.023 70.190 M164.181 111.550 C 174.788 122.450,183.467 131.674,183.467 132.048 C 183.467 132.423,180.001 136.177,175.764 140.391 L 168.062 148.053 149.524 128.934 C 139.329 118.418,130.458 109.067,129.811 108.154 C 128.730 106.627,129.246 105.879,136.197 98.895 C 140.357 94.717,144.016 91.396,144.328 91.516 C 144.640 91.635,153.574 100.651,164.181 111.550 M409.068 325.712 C 389.051 342.610,371.386 364.063,361.882 383.015 C 355.179 396.383,353.138 403.868,352.655 416.853 C 352.183 429.574,353.234 435.132,357.980 445.013 C 372.641 475.531,412.898 488.607,445.013 473.283 C 461.503 465.414,474.361 450.019,478.245 433.493 C 480.789 422.664,479.669 407.182,475.467 395.093 C 471.547 383.817,461.483 366.691,452.400 355.840 C 440.881 342.079,426.171 327.430,418.103 321.685 L 415.790 320.038 409.068 325.712 " stroke="none" fill="black" fill-rule="evenodd"></path></svg>