<svg xmlns="http://www.w3.org/2000/svg" width="512" height="512" viewBox="0 0 512 512"><path d="M243.200 48.291 C 189.307 52.936,145.591 72.806,109.198 109.198 C 75.814 142.582,55.864 183.304,49.403 231.253 C 47.996 241.696,47.996 270.304,49.403 280.747 C 55.866 328.705,75.852 369.495,109.198 402.781 C 142.761 436.282,182.341 455.687,231.253 462.621 C 235.243 463.187,246.379 463.649,256.000 463.649 C 284.931 463.649,308.731 459.018,334.933 448.289 C 361.056 437.593,386.578 420.224,405.701 400.129 C 437.387 366.832,455.931 327.939,462.621 280.747 C 463.187 276.757,463.649 265.621,463.649 256.000 C 463.649 227.171,459.011 203.251,448.395 177.325 C 432.022 137.342,403.062 103.108,365.227 79.011 C 343.385 65.100,312.181 53.926,283.992 49.922 C 275.151 48.666,250.352 47.675,243.200 48.291 M357.144 151.206 C 359.419 152.243,361.813 155.854,361.813 158.248 C 361.813 160.218,314.342 278.577,310.970 285.013 C 305.129 296.164,295.659 305.471,284.160 311.360 C 280.640 313.163,251.027 325.307,218.354 338.347 C 155.621 363.384,156.574 363.080,152.747 359.253 C 148.920 355.426,148.616 356.379,173.653 293.646 C 186.693 260.973,198.837 231.360,200.640 227.840 C 206.428 216.539,215.686 207.027,226.525 201.245 C 232.595 198.006,351.324 150.283,353.453 150.226 C 354.252 150.204,355.913 150.645,357.144 151.206 M247.490 233.589 C 242.228 235.446,235.375 242.445,233.537 247.839 C 230.401 257.043,232.440 265.832,239.304 272.696 C 249.007 282.398,262.993 282.398,272.696 272.696 C 282.398 262.993,282.398 249.007,272.696 239.304 C 265.865 232.474,256.601 230.373,247.490 233.589 " stroke="none" fill="black" fill-rule="evenodd"></path></svg>