<svg xmlns="http://www.w3.org/2000/svg" width="512" height="512" viewBox="0 0 512 512"><path d="M196.693 48.359 C 155.877 51.767,100.886 83.456,70.336 121.173 C 62.657 130.654,60.746 133.809,59.612 138.875 C 58.255 144.941,55.209 147.619,49.641 147.645 C 47.448 147.656,43.983 148.422,41.941 149.349 C 37.317 151.447,5.899 181.407,2.829 186.645 C 1.489 188.932,0.522 192.165,0.237 195.311 C -0.605 204.597,0.569 206.164,29.745 234.667 C 48.151 252.649,56.663 260.385,59.543 261.749 C 64.314 264.009,71.920 264.316,76.430 262.431 C 80.330 260.802,112.892 229.596,115.710 224.788 C 118.580 219.890,119.235 213.267,117.347 208.213 C 114.110 199.545,114.877 198.459,122.534 200.873 C 130.620 203.422,142.730 212.498,162.472 230.805 C 170.195 237.967,171.521 239.583,171.530 241.838 C 171.546 245.870,173.615 252.781,176.264 257.648 L 178.647 262.027 181.697 259.154 C 183.374 257.574,198.331 243.663,214.933 228.241 L 245.119 200.201 242.666 198.235 C 239.230 195.481,233.647 192.972,228.435 191.838 C 225.996 191.308,223.353 190.263,222.562 189.517 C 221.771 188.771,215.367 180.184,208.331 170.436 C 193.728 150.203,192.447 147.444,193.024 137.473 C 193.332 132.163,193.930 129.953,196.227 125.643 C 202.982 112.970,218.476 104.521,236.831 103.502 C 244.314 103.087,246.537 103.318,254.435 105.334 C 265.118 108.060,268.519 107.605,273.921 102.724 C 279.859 97.359,280.704 88.693,275.967 81.727 C 271.798 75.597,260.136 64.436,254.464 61.147 C 237.099 51.079,217.108 46.654,196.693 48.359 M379.106 48.667 C 351.516 51.567,324.502 65.473,307.550 85.502 C 293.824 101.719,286.386 122.066,285.307 146.347 C 284.696 160.100,285.798 171.972,288.895 185.028 C 291.156 194.557,291.411 197.599,290.215 200.746 C 289.790 201.863,273.758 217.360,254.588 235.185 C 235.418 253.009,195.040 290.553,164.860 318.615 C 134.679 346.678,108.804 371.237,107.359 373.192 C 103.571 378.318,98.471 389.575,97.243 395.520 C 95.825 402.387,96.050 414.826,97.706 421.120 C 102.078 437.742,113.007 450.943,128.427 458.228 C 137.611 462.567,143.041 463.768,153.173 463.702 C 168.299 463.604,180.930 458.530,191.811 448.179 C 195.121 445.030,234.157 403.579,278.556 356.066 C 331.828 299.059,360.020 269.493,361.452 269.134 C 364.082 268.474,368.101 268.976,379.297 271.366 C 383.985 272.366,392.433 273.446,398.070 273.766 C 443.010 276.313,476.317 260.143,496.184 226.133 C 506.139 209.092,512.009 186.922,511.995 166.422 C 511.983 149.308,506.725 128.888,500.597 122.157 C 496.102 117.220,487.926 115.533,481.501 118.218 C 479.436 119.080,468.699 129.151,450.115 147.658 C 421.930 175.724,421.859 175.787,418.251 175.787 C 416.262 175.787,413.598 175.242,412.331 174.575 C 411.064 173.909,404.406 167.669,397.537 160.709 C 384.409 147.407,383.230 145.518,384.448 139.733 C 384.904 137.571,391.194 130.756,413.000 108.800 C 443.208 78.385,443.463 78.050,442.680 69.895 C 441.812 60.864,435.182 55.822,418.670 51.633 C 405.046 48.177,392.626 47.246,379.106 48.667 M330.617 347.063 C 312.810 366.115,298.240 382.190,298.240 382.785 C 298.240 383.380,304.806 390.905,312.832 399.507 C 320.858 408.109,334.869 423.403,343.969 433.493 C 353.068 443.584,362.091 453.409,364.020 455.327 C 368.317 459.602,373.666 462.275,380.440 463.535 C 387.150 464.783,395.389 462.889,401.493 458.697 C 403.840 457.085,414.101 447.370,424.295 437.108 C 446.307 414.949,447.607 412.933,447.521 401.067 C 447.438 389.680,444.564 384.489,432.825 374.529 C 423.852 366.915,397.182 343.100,378.453 325.977 C 370.944 319.111,364.394 313.253,363.897 312.958 C 363.400 312.663,348.424 328.010,330.617 347.063 " stroke="none" fill="black" fill-rule="evenodd"></path></svg>