<svg xmlns="http://www.w3.org/2000/svg" width="512" height="512" viewBox="0 0 512 512"><path d="M229.973 33.372 C 126.614 45.768,44.508 128.464,33.327 231.433 C 32.168 242.102,32.168 269.898,33.327 280.567 C 41.549 356.288,88.572 423.113,157.440 456.948 C 178.275 467.185,199.631 473.930,222.860 477.613 C 236.686 479.805,275.314 479.805,289.140 477.613 C 362.848 465.928,424.413 420.783,456.948 354.560 C 464.552 339.084,469.019 326.969,473.049 310.900 C 478.303 289.947,479.147 282.350,479.147 256.000 C 479.147 229.650,478.303 222.053,473.049 201.100 C 467.016 177.043,456.639 153.549,443.013 133.098 C 433.028 118.113,425.805 109.212,414.295 97.707 C 386.132 69.554,349.897 48.745,312.559 39.281 C 291.881 34.041,283.994 33.080,259.413 32.806 C 246.976 32.667,233.728 32.922,229.973 33.372 M256.000 256.000 L 256.000 436.053 252.373 436.053 C 245.001 436.051,229.674 434.227,219.512 432.142 C 170.036 421.991,128.058 392.120,101.577 348.222 C 52.973 267.651,76.000 161.403,153.600 108.183 C 183.006 88.015,216.144 77.061,250.667 76.096 L 256.000 75.947 256.000 256.000 " stroke="none" fill="black" fill-rule="evenodd"></path></svg>