<svg xmlns="http://www.w3.org/2000/svg" width="512" height="512" viewBox="0 0 512 512"><path d="M48.213 34.886 C 41.864 37.935,37.499 42.412,34.391 49.067 L 32.000 54.187 32.000 217.173 C 32.000 374.996,32.051 380.293,33.614 384.344 C 35.698 389.747,40.167 394.646,45.599 397.481 C 49.707 399.625,50.667 399.753,65.057 400.058 L 80.194 400.379 80.417 252.011 L 80.640 103.644 83.445 97.947 C 86.697 91.341,92.026 86.171,98.987 82.867 L 103.680 80.640 252.029 80.417 L 400.379 80.194 400.058 65.057 C 399.753 50.674,399.625 49.707,397.491 45.653 C 394.697 40.344,390.697 36.457,385.707 34.200 C 381.888 32.474,380.952 32.464,217.600 32.446 L 53.333 32.428 48.213 34.886 M122.453 113.063 C 118.131 114.598,113.863 119.192,112.681 123.582 C 112.041 125.960,111.833 177.297,111.990 294.530 L 112.213 462.080 114.494 466.401 C 117.368 471.846,122.267 476.308,127.656 478.386 C 131.708 479.949,137.037 480.000,296.533 480.000 L 461.227 480.000 466.075 477.619 C 471.568 474.922,475.576 470.787,478.203 465.110 L 480.000 461.227 480.000 296.533 C 480.000 137.037,479.949 131.708,478.386 127.656 C 476.308 122.267,471.846 117.368,466.401 114.494 L 462.080 112.213 293.973 112.032 C 150.551 111.877,125.365 112.029,122.453 113.063 " stroke="none" fill="black" fill-rule="evenodd"></path></svg>