<svg xmlns="http://www.w3.org/2000/svg" width="512" height="512" viewBox="0 0 512 512"><path d="M240.213 34.063 C 236.928 34.963,232.704 36.350,230.827 37.146 C 228.949 37.942,191.974 59.182,148.660 84.346 C 66.856 131.872,66.701 131.973,70.076 135.267 C 70.724 135.899,112.494 160.670,162.900 190.313 C 234.671 232.521,255.029 244.132,256.767 243.852 C 258.939 243.502,439.603 137.561,441.924 135.277 C 443.391 133.833,442.640 130.472,440.565 129.193 C 439.726 128.676,404.098 107.958,361.391 83.153 C 303.058 49.272,281.936 37.419,276.484 35.506 C 270.059 33.251,267.905 32.928,257.707 32.693 C 248.396 32.478,245.041 32.741,240.213 34.063 M49.173 164.576 C 47.840 166.049,47.753 172.857,47.984 257.802 C 48.262 359.723,47.827 352.119,54.055 363.933 C 60.071 375.347,59.502 374.959,148.907 428.539 C 193.963 455.540,232.017 478.242,233.473 478.986 C 235.837 480.195,236.315 480.202,237.953 479.054 L 239.787 477.770 239.787 375.050 L 239.787 272.330 237.440 270.694 C 231.760 266.735,53.023 162.987,51.882 162.987 C 51.183 162.987,49.964 163.702,49.173 164.576 M366.832 217.013 C 316.323 246.687,274.371 271.485,273.605 272.121 C 272.332 273.177,272.213 282.019,272.213 375.400 C 272.213 453.693,272.452 477.764,273.237 478.549 C 273.801 479.113,275.111 479.573,276.149 479.573 C 277.187 479.573,315.606 457.041,361.525 429.502 C 452.613 374.872,451.937 375.332,457.945 363.933 C 464.173 352.119,463.738 359.723,464.016 257.802 C 464.247 172.857,464.160 166.049,462.827 164.576 C 462.036 163.702,460.776 163.003,460.028 163.024 C 459.279 163.044,417.341 187.340,366.832 217.013 " stroke="none" fill="black" fill-rule="evenodd"></path></svg>