<svg xmlns="http://www.w3.org/2000/svg" width="512" height="512" viewBox="0 0 512 512"><path d="M240.061 34.079 C 236.692 34.988,231.584 36.899,228.710 38.325 C 225.836 39.751,188.374 61.353,145.462 86.330 C 88.390 119.550,66.287 132.844,63.144 135.841 C 57.400 141.320,52.753 148.703,50.262 156.307 L 48.213 162.560 48.213 256.000 L 48.213 349.440 50.262 355.693 C 51.388 359.132,53.731 364.124,55.467 366.786 C 62.292 377.250,62.536 377.410,145.604 425.748 C 188.541 450.733,225.857 472.259,228.529 473.584 C 238.894 478.722,251.669 480.916,263.028 479.508 C 275.869 477.916,281.229 475.402,320.427 452.575 C 340.608 440.823,376.778 419.765,400.806 405.779 C 447.218 378.763,450.105 376.744,456.555 366.786 C 458.279 364.124,460.612 359.132,461.738 355.693 L 463.787 349.440 463.787 256.000 L 463.787 162.560 461.738 156.307 C 460.612 152.868,458.279 147.876,456.555 145.214 C 450.217 135.429,446.876 133.049,406.367 109.468 C 385.382 97.253,349.205 76.190,325.973 62.662 C 275.942 33.528,274.945 33.091,257.707 32.693 C 248.382 32.478,245.019 32.742,240.061 34.079 M264.592 65.367 C 267.471 66.216,296.787 82.768,341.981 109.062 C 398.754 142.092,414.499 151.610,413.661 152.391 C 412.053 153.890,256.998 244.907,256.053 244.907 C 255.125 244.907,99.977 153.893,98.353 152.397 C 97.537 151.644,102.834 148.195,121.393 137.397 C 134.648 129.684,167.189 110.723,193.707 95.261 C 220.224 79.799,244.032 66.461,246.613 65.620 C 252.518 63.697,258.638 63.611,264.592 65.367 M161.280 226.793 L 239.360 272.764 239.577 357.915 C 239.756 427.803,239.595 442.989,238.678 442.637 C 238.063 442.401,210.702 426.581,177.874 407.480 C 145.046 388.380,111.151 368.659,102.551 363.656 C 93.951 358.653,85.929 353.600,84.725 352.427 C 80.038 347.862,80.213 351.376,80.213 261.971 C 80.213 183.333,80.289 179.183,81.707 179.981 C 82.528 180.444,118.336 201.510,161.280 226.793 M430.990 346.484 C 430.512 348.143,429.004 350.639,427.638 352.030 C 425.491 354.218,274.374 442.880,272.792 442.880 C 272.469 442.880,272.303 404.618,272.423 357.854 L 272.640 272.827 352.000 226.133 L 431.360 179.439 431.610 261.453 C 431.774 315.322,431.561 344.502,430.990 346.484 " stroke="none" fill="black" fill-rule="evenodd"></path></svg>