<svg xmlns="http://www.w3.org/2000/svg" width="512" height="512" viewBox="0 0 512 512"><path d="M89.504 81.445 C 62.528 87.073,40.518 108.381,34.121 135.061 C 31.809 144.706,31.829 159.151,34.169 168.960 C 39.025 189.319,53.144 206.958,72.065 216.302 C 82.568 221.489,91.730 223.563,104.107 223.555 C 119.112 223.545,131.167 220.107,142.779 212.527 L 149.001 208.465 169.638 216.815 L 190.275 225.164 193.400 219.462 C 199.212 208.858,199.984 207.799,207.668 199.901 C 211.887 195.564,215.098 191.774,214.803 191.478 C 214.508 191.183,205.519 185.639,194.827 179.159 L 175.388 167.376 175.367 153.448 C 175.342 137.003,174.406 132.693,168.074 119.893 C 159.091 101.735,143.082 88.357,123.575 82.709 C 115.532 80.380,97.768 79.721,89.504 81.445 M111.030 112.639 C 117.923 113.917,127.061 118.771,132.145 123.855 C 140.134 131.845,145.027 144.983,143.857 155.307 C 141.599 175.222,126.416 190.275,107.093 191.755 C 80.029 193.826,58.500 168.248,65.308 142.110 C 70.578 121.875,90.744 108.877,111.030 112.639 M408.747 139.479 C 387.564 142.519,335.746 156.021,302.080 167.274 C 262.690 180.439,231.807 195.602,219.678 207.731 C 209.946 217.463,205.273 227.691,200.549 249.600 C 196.310 269.261,193.781 274.821,185.687 282.282 C 180.062 287.467,168.706 294.664,158.331 299.620 L 149.392 303.890 144.146 300.328 C 132.083 292.135,119.633 288.439,104.107 288.439 C 91.814 288.439,82.651 290.502,72.107 295.644 C 53.347 304.793,39.023 322.687,34.169 343.040 C 31.829 352.849,31.809 367.294,34.121 376.939 C 40.657 404.201,62.381 424.895,90.403 430.553 C 99.786 432.447,114.576 431.866,123.700 429.244 C 137.081 425.399,149.840 417.024,159.479 405.760 C 164.528 399.861,171.619 386.104,173.776 378.027 C 175.403 371.935,175.906 353.673,174.659 345.956 L 173.959 341.618 186.179 334.762 C 192.901 330.991,217.984 316.859,241.920 303.358 C 265.856 289.856,295.808 272.962,308.480 265.814 C 321.152 258.666,357.248 238.318,388.693 220.595 C 470.647 174.406,479.111 169.625,479.456 169.323 C 480.204 168.668,473.104 152.533,470.881 149.836 C 468.097 146.460,460.296 142.367,452.693 140.294 C 445.666 138.379,419.764 137.898,408.747 139.479 M408.297 172.666 C 407.371 173.296,386.453 185.164,361.813 199.038 C 337.173 212.913,313.946 225.999,310.197 228.119 L 303.381 231.973 302.032 227.133 C 300.340 221.065,297.715 215.882,293.417 210.125 L 290.066 205.637 292.446 204.698 C 315.033 195.789,359.503 182.797,395.947 174.461 C 410.276 171.183,410.528 171.146,408.297 172.666 M263.642 226.114 C 267.636 228.152,270.111 231.439,271.435 236.463 C 274.697 248.840,261.377 259.762,249.565 254.396 C 238.016 249.150,236.769 233.587,247.359 226.872 C 252.152 223.832,258.582 223.533,263.642 226.114 M302.305 283.943 C 279.666 296.969,261.147 307.819,261.153 308.053 C 261.167 308.660,299.951 326.908,315.929 333.825 C 331.702 340.653,350.159 347.092,365.653 351.174 C 401.096 360.509,433.707 361.845,451.430 354.687 C 455.671 352.973,480.360 336.491,480.408 335.341 C 480.418 335.096,467.467 327.757,451.627 319.032 C 435.787 310.307,405.592 293.659,384.528 282.035 C 363.464 270.412,345.608 260.757,344.848 260.581 C 344.088 260.404,324.944 270.917,302.305 283.943 M370.628 310.930 C 384.126 318.379,395.047 324.598,394.895 324.749 C 394.414 325.230,375.537 320.924,366.153 318.193 C 357.148 315.571,335.891 307.946,332.065 305.963 C 330.121 304.956,330.287 304.781,336.758 301.006 C 340.448 298.854,344.056 297.160,344.776 297.240 C 345.496 297.321,357.130 303.481,370.628 310.930 M118.037 322.550 C 132.039 327.866,142.097 341.166,143.857 356.693 C 145.566 371.773,136.008 388.508,121.664 395.552 C 105.405 403.537,87.799 400.472,75.136 387.451 C 54.165 365.888,64.498 329.567,93.956 321.296 C 100.337 319.504,111.553 320.088,118.037 322.550 " stroke="none" fill="black" fill-rule="evenodd"></path></svg>