<svg xmlns="http://www.w3.org/2000/svg" width="512" height="512" viewBox="0 0 512 512"><path d="M55.680 48.726 C 37.534 51.776,21.754 66.635,17.500 84.677 C 15.603 92.724,15.603 355.276,17.500 363.323 C 21.198 379.010,32.786 391.654,48.842 397.521 L 55.040 399.787 126.567 400.032 L 198.095 400.278 197.645 402.592 C 197.398 403.865,196.590 410.091,195.848 416.427 C 195.107 422.763,194.315 428.811,194.088 429.867 L 193.674 431.787 168.304 431.791 C 153.485 431.794,141.613 432.163,139.760 432.678 C 133.332 434.463,128.037 441.383,128.037 448.000 C 128.037 454.617,133.332 461.537,139.760 463.322 C 144.157 464.544,367.843 464.544,372.240 463.322 C 378.668 461.537,383.963 454.617,383.963 448.000 C 383.963 441.383,378.668 434.463,372.240 432.678 C 370.387 432.163,358.515 431.794,343.696 431.791 L 318.326 431.787 317.912 429.867 C 317.685 428.811,316.893 422.763,316.152 416.427 C 315.410 410.091,314.602 403.865,314.355 402.592 L 313.905 400.278 385.433 400.032 L 456.960 399.787 463.158 397.521 C 479.214 391.654,490.802 379.010,494.500 363.323 C 496.397 355.276,496.397 92.724,494.500 84.677 C 490.802 68.990,479.214 56.346,463.158 50.479 L 456.960 48.213 258.560 48.094 C 147.288 48.026,58.193 48.304,55.680 48.726 M454.227 81.366 C 457.875 82.890,462.195 87.913,463.309 91.923 C 463.911 94.091,464.205 129.305,464.209 199.467 L 464.213 303.787 256.000 303.787 L 47.787 303.787 47.791 199.467 C 47.795 129.305,48.089 94.091,48.691 91.923 C 49.776 88.016,54.074 82.932,57.584 81.403 C 61.465 79.712,450.182 79.676,454.227 81.366 M262.227 337.366 C 267.100 339.402,272.204 346.888,272.204 352.000 C 272.204 354.745,270.050 359.715,267.700 362.390 C 261.278 369.705,250.722 369.705,244.300 362.390 C 241.950 359.715,239.796 354.745,239.796 352.000 C 239.796 346.997,244.845 339.468,249.584 337.403 C 252.951 335.936,258.764 335.919,262.227 337.366 " stroke="none" fill="black" fill-rule="evenodd"></path></svg>