<svg xmlns="http://www.w3.org/2000/svg" width="512" height="512" viewBox="0 0 512 512"><path d="M205.653 17.949 C 184.049 23.593,167.701 39.827,161.993 61.308 C 160.541 66.770,160.182 71.429,159.801 89.740 L 159.346 111.641 128.953 111.999 C 94.990 112.400,93.659 112.585,81.493 118.583 C 69.337 124.577,60.584 133.328,54.579 145.493 C 47.683 159.462,48.213 146.237,48.213 304.213 C 48.213 436.467,48.305 445.350,49.730 450.560 C 54.575 468.285,65.881 482.236,81.608 489.896 C 94.367 496.111,88.895 495.854,202.921 495.593 L 305.067 495.360 310.613 493.362 C 320.874 489.666,326.078 486.331,334.102 478.312 C 342.846 469.573,346.944 462.510,349.958 450.987 C 351.464 445.226,351.814 440.740,352.199 422.251 L 352.655 400.343 383.474 400.003 C 418.032 399.622,419.016 399.485,431.731 393.259 C 437.399 390.484,440.392 388.263,445.811 382.814 C 456.464 372.102,461.671 361.538,463.422 347.087 C 463.955 342.691,464.183 306.297,464.031 250.027 L 463.787 160.000 461.902 155.009 C 460.865 152.265,458.786 148.100,457.281 145.755 C 454.184 140.928,343.896 28.579,337.508 23.743 C 335.229 22.018,331.222 19.714,328.602 18.623 L 323.840 16.640 267.947 16.459 C 214.862 16.287,211.732 16.362,205.653 17.949 M296.119 96.213 C 296.133 149.368,296.263 150.993,301.257 160.347 C 306.688 170.520,314.880 177.493,326.313 181.676 L 332.373 183.893 382.080 184.157 L 431.787 184.420 431.787 264.978 C 431.787 343.887,431.751 345.631,430.052 350.174 C 427.838 356.089,422.542 362.108,416.959 365.054 L 412.587 367.360 382.507 367.614 L 352.427 367.868 352.412 315.134 C 352.395 256.867,352.270 255.210,347.102 244.907 C 344.666 240.051,338.159 233.091,294.838 189.013 C 222.225 115.132,227.256 120.053,221.235 117.016 C 214.327 113.532,206.859 111.815,198.549 111.799 L 191.871 111.787 192.149 90.240 C 192.426 68.735,192.431 68.685,194.726 64.335 C 197.893 58.331,200.883 54.980,205.470 52.292 C 212.706 48.052,214.384 47.906,256.640 47.844 L 296.107 47.787 296.119 96.213 M418.946 151.253 C 418.968 151.605,400.645 151.893,378.227 151.893 C 331.844 151.893,333.215 152.087,329.600 145.036 C 327.686 141.302,327.680 141.172,327.706 99.873 L 327.732 58.453 373.319 104.533 C 398.391 129.877,418.923 150.901,418.946 151.253 M184.320 193.101 C 184.320 246.728,184.357 247.188,189.496 256.830 C 194.249 265.746,203.564 273.689,213.793 277.548 C 218.829 279.447,219.390 279.469,269.457 279.712 L 320.033 279.957 319.803 361.632 L 319.573 443.307 317.714 447.332 C 315.102 452.986,308.819 459.389,303.542 461.775 L 299.093 463.787 200.021 463.787 L 100.948 463.787 95.093 460.800 C 90.867 458.644,88.360 456.651,86.083 453.634 C 79.740 445.232,80.165 456.582,80.415 302.507 L 80.640 164.267 82.974 159.840 C 86.679 152.814,93.308 147.266,100.693 145.011 C 101.867 144.653,121.163 144.327,143.573 144.287 L 184.320 144.213 184.320 193.101 M261.973 201.239 C 286.613 226.267,306.906 247.113,307.068 247.563 C 307.255 248.082,292.214 248.293,266.108 248.138 C 226.751 247.905,224.725 247.816,222.062 246.205 C 220.527 245.277,218.511 242.948,217.582 241.029 C 215.971 237.701,215.893 235.650,215.893 196.353 C 215.893 173.699,216.181 155.292,216.533 155.449 C 216.885 155.605,237.333 176.211,261.973 201.239 " stroke="none" fill="black" fill-rule="evenodd"></path></svg>