<svg xmlns="http://www.w3.org/2000/svg" width="512" height="512" viewBox="0 0 512 512"><path d="M248.175 34.156 C 244.458 36.120,242.050 39.273,240.699 43.947 C 239.985 46.417,239.781 62.914,239.963 103.680 L 240.213 160.000 256.000 160.000 L 271.787 160.000 272.037 103.680 C 272.299 44.898,272.211 43.201,268.632 38.167 C 264.732 32.682,254.692 30.714,248.175 34.156 M122.027 161.792 C 106.304 165.988,92.848 177.046,85.759 191.597 C 79.875 203.673,80.158 196.750,80.411 322.332 L 80.640 435.627 82.926 441.886 C 86.151 450.713,90.005 456.789,96.501 463.285 C 106.196 472.980,117.030 478.117,130.854 479.574 C 141.273 480.672,370.727 480.672,381.146 479.574 C 394.993 478.115,406.017 472.893,415.543 463.279 C 422.020 456.743,425.871 450.654,429.074 441.886 L 431.360 435.627 431.360 320.000 L 431.360 204.373 429.074 198.114 C 425.871 189.346,422.020 183.257,415.543 176.721 C 409.381 170.502,403.154 166.479,394.446 163.091 L 388.693 160.853 330.453 160.612 L 272.213 160.370 272.213 236.528 L 272.213 312.686 298.880 286.152 C 313.547 271.559,326.891 258.925,328.533 258.076 C 338.006 253.180,350.355 259.831,351.368 270.374 C 352.177 278.800,352.928 277.886,309.013 321.950 C 286.661 344.378,266.926 363.731,265.158 364.957 C 261.320 367.618,255.079 368.447,250.339 366.925 C 247.712 366.081,238.737 357.590,206.263 325.226 C 183.836 302.874,164.482 283.140,163.256 281.371 C 160.636 277.593,159.757 271.282,161.229 266.822 C 162.531 262.876,167.936 258.048,172.396 256.847 C 176.191 255.825,179.804 256.294,183.893 258.339 C 185.301 259.043,198.453 271.559,213.120 286.152 L 239.787 312.686 239.787 236.556 L 239.787 160.427 183.253 160.483 C 136.381 160.529,125.918 160.753,122.027 161.792 " stroke="none" fill="black" fill-rule="evenodd"></path></svg>