<svg xmlns="http://www.w3.org/2000/svg" width="512" height="512" viewBox="0 0 512 512"><path d="M248.175 34.156 C 241.914 37.464,239.787 42.791,239.787 55.167 L 239.787 64.000 157.653 64.015 C 90.487 64.027,74.491 64.248,69.875 65.226 C 52.712 68.864,38.477 82.434,33.565 99.840 C 32.084 105.090,32.000 111.301,32.000 215.893 C 32.000 318.854,32.103 326.772,33.506 331.850 C 37.170 345.114,47.158 357.330,58.880 362.883 C 68.374 367.380,71.670 367.787,98.660 367.787 L 122.995 367.787 122.420 369.599 C 122.103 370.596,116.126 391.428,109.136 415.892 C 96.080 461.584,95.143 466.083,97.663 470.956 C 99.271 474.066,104.406 478.548,107.148 479.237 C 108.335 479.535,111.372 479.607,113.898 479.397 C 119.043 478.971,123.710 476.064,125.828 471.967 C 126.510 470.649,132.867 449.260,139.954 424.438 C 147.042 399.616,153.604 376.715,154.536 373.547 L 156.232 367.787 198.009 367.787 L 239.787 367.787 239.791 392.320 C 239.794 406.806,240.163 418.173,240.691 420.077 C 241.805 424.087,246.125 429.110,249.773 430.634 C 253.301 432.108,258.699 432.108,262.227 430.634 C 265.875 429.110,270.195 424.087,271.309 420.077 C 271.837 418.173,272.206 406.806,272.209 392.320 L 272.213 367.787 313.991 367.787 L 355.768 367.787 357.464 373.547 C 358.396 376.715,364.958 399.616,372.046 424.438 C 379.133 449.260,385.490 470.649,386.172 471.967 C 388.290 476.064,392.957 478.971,398.102 479.397 C 400.628 479.607,403.665 479.535,404.852 479.237 C 407.594 478.548,412.729 474.066,414.337 470.956 C 416.857 466.083,415.920 461.584,402.864 415.892 C 395.874 391.428,389.897 370.596,389.580 369.599 L 389.005 367.787 413.340 367.787 C 427.681 367.787,439.533 367.402,442.198 366.851 C 458.903 363.392,473.731 349.094,478.494 331.850 C 479.897 326.773,480.000 318.873,480.000 216.320 C 480.000 126.408,479.787 105.380,478.840 101.547 C 474.319 83.252,459.940 69.001,442.211 65.244 C 437.484 64.242,422.094 64.027,354.347 64.015 L 272.213 64.000 272.213 55.167 C 272.213 42.664,270.067 37.392,263.642 34.114 C 259.332 31.915,252.382 31.934,248.175 34.156 M441.546 99.314 C 443.321 100.668,445.490 103.356,446.367 105.288 C 447.898 108.658,447.963 113.120,447.963 215.893 C 447.963 317.971,447.889 323.148,446.396 326.435 C 444.484 330.644,440.485 334.144,436.240 335.322 C 431.823 336.549,80.177 336.549,75.760 335.322 C 71.515 334.144,67.516 330.644,65.604 326.435 C 64.111 323.148,64.037 317.971,64.037 215.893 C 64.037 113.779,64.110 108.641,65.605 105.387 C 67.334 101.621,69.111 99.780,72.962 97.768 C 75.265 96.564,93.625 96.452,256.920 96.642 L 438.320 96.853 441.546 99.314 " stroke="none" fill="black" fill-rule="evenodd"></path></svg>