<svg xmlns="http://www.w3.org/2000/svg" width="512" height="512" viewBox="0 0 512 512"><path d="M75.622 65.034 C 70.994 66.285,66.216 71.316,64.974 76.246 C 64.061 79.873,64.131 81.421,65.443 86.613 C 66.156 89.436,421.411 444.498,425.387 446.362 C 427.264 447.242,430.144 447.963,431.787 447.963 C 439.053 447.963,446.584 441.668,447.625 434.724 C 448.970 425.755,462.704 440.231,268.521 245.935 C 170.819 148.176,89.728 67.480,88.320 66.612 C 84.991 64.560,79.776 63.912,75.622 65.034 M227.840 97.740 C 216.097 99.359,203.927 101.910,192.853 105.073 C 183.178 107.836,179.911 109.166,179.473 110.515 C 179.320 110.989,184.542 116.714,191.077 123.237 L 202.960 135.097 213.053 132.874 C 229.707 129.207,237.377 128.428,256.427 128.470 C 276.140 128.513,286.001 129.658,303.395 133.921 C 350.794 145.539,397.593 175.358,434.723 217.600 C 447.007 231.575,463.360 253.527,463.360 256.042 C 463.360 257.471,451.365 274.735,444.034 283.857 C 433.668 296.755,422.314 308.824,410.519 319.481 C 404.382 325.027,399.360 330.010,399.360 330.555 C 399.360 331.980,420.325 352.696,421.384 352.317 C 423.509 351.556,443.927 332.367,452.183 323.372 C 468.965 305.085,486.416 282.066,492.094 270.724 C 495.921 263.080,496.804 254.817,494.604 247.250 C 490.959 234.712,463.819 199.835,439.397 176.308 C 395.758 134.266,346.237 108.305,291.757 98.909 C 277.808 96.503,241.612 95.841,227.840 97.740 M82.773 168.392 C 65.111 184.093,46.296 204.959,29.556 227.413 C 17.799 243.184,16.640 245.792,16.640 256.471 C 16.640 264.477,16.827 265.416,19.438 270.551 C 22.560 276.690,33.382 292.121,44.364 306.094 C 53.681 317.948,82.195 346.545,94.293 356.170 C 137.029 390.165,182.734 409.626,231.940 414.778 C 244.537 416.097,278.192 415.347,289.615 413.492 C 308.481 410.429,331.751 404.277,332.573 402.134 C 333.024 400.959,312.924 379.813,309.606 377.972 C 308.649 377.442,305.811 377.730,301.073 378.838 C 243.709 392.259,182.307 379.225,129.280 342.371 C 100.553 322.405,69.158 289.608,50.226 259.784 L 47.972 256.233 55.441 246.269 C 71.528 224.805,88.817 205.696,104.986 191.508 C 109.665 187.403,113.493 183.414,113.493 182.645 C 113.493 181.488,93.198 160.427,92.084 160.427 C 91.891 160.427,87.701 164.011,82.773 168.392 M238.574 161.586 C 235.771 162.127,233.349 163.081,233.135 163.732 C 232.708 165.025,346.190 279.040,347.904 279.040 C 349.765 279.040,350.885 272.832,351.340 259.993 C 351.839 245.915,350.943 238.233,347.543 227.413 C 336.953 193.718,308.378 168.294,273.706 161.717 C 265.724 160.203,246.133 160.130,238.574 161.586 M162.088 236.160 C 160.574 241.107,160.041 263.583,161.257 271.207 C 169.830 324.959,220.911 360.274,275.481 350.177 C 277.044 349.888,278.540 349.085,278.806 348.392 C 279.132 347.542,260.774 328.617,222.207 290.047 C 190.812 258.649,164.662 232.960,164.096 232.960 C 163.530 232.960,162.626 234.400,162.088 236.160 " stroke="none" fill="black" fill-rule="evenodd"></path></svg>