<svg xmlns="http://www.w3.org/2000/svg" width="512" height="512" viewBox="0 0 512 512"><path d="M74.879 74.881 L 64.011 85.773 245.132 266.892 L 426.253 448.012 437.121 437.119 L 447.989 426.227 266.868 245.108 L 85.747 63.988 74.879 74.881 M228.267 97.763 C 215.161 99.546,200.093 102.918,188.100 106.752 L 177.220 110.230 203.706 136.716 L 230.192 163.202 237.763 161.813 C 247.356 160.052,264.686 160.006,273.706 161.717 C 312.447 169.066,342.934 199.553,350.283 238.294 C 351.994 247.313,351.948 264.644,350.188 274.235 L 348.799 281.804 383.675 316.689 C 402.858 335.875,418.938 351.577,419.409 351.582 C 420.854 351.597,442.831 328.742,452.240 317.440 C 466.968 299.748,480.442 281.109,491.887 262.595 L 495.986 255.964 491.033 248.089 C 462.224 202.280,426.394 162.797,392.960 140.015 C 358.734 116.694,321.890 102.528,282.869 97.688 C 270.193 96.115,240.076 96.157,228.267 97.763 M80.106 175.604 C 60.474 195.761,39.600 221.514,21.389 248.044 L 16.014 255.875 19.259 261.271 C 35.193 287.766,57.318 316.504,78.507 338.230 C 94.351 354.476,104.212 362.892,119.040 372.824 C 151.034 394.253,182.101 406.813,218.880 413.186 C 228.719 414.891,232.868 415.108,255.573 415.108 C 278.284 415.108,282.416 414.891,292.184 413.189 C 308.449 410.355,334.507 403.436,334.507 401.952 C 334.507 401.694,322.648 389.629,308.154 375.141 L 281.802 348.799 274.234 350.188 C 264.536 351.968,247.317 351.995,238.089 350.244 C 199.623 342.947,169.037 312.296,161.717 273.706 C 160.006 264.687,160.052 247.356,161.812 237.765 L 163.201 230.196 129.178 196.165 C 110.465 177.447,94.720 162.133,94.190 162.133 C 93.659 162.133,87.321 168.195,80.106 175.604 M288.849 221.809 C 305.273 238.268,319.005 251.733,319.366 251.733 C 320.141 251.733,319.438 246.375,317.788 239.702 C 312.524 218.412,293.622 199.509,272.292 194.203 C 269.668 193.550,265.600 192.762,263.253 192.451 L 258.987 191.885 288.849 221.809 M192.000 260.729 C 192.000 263.954,194.909 275.655,196.870 280.318 C 203.079 295.081,216.109 308.331,230.748 314.768 C 235.517 316.865,242.509 318.723,248.747 319.549 L 253.013 320.115 222.725 289.764 C 206.066 273.071,192.338 259.413,192.218 259.413 C 192.098 259.413,192.000 260.006,192.000 260.729 " stroke="none" fill="black" fill-rule="evenodd"></path></svg>