<svg xmlns="http://www.w3.org/2000/svg" width="512" height="512" viewBox="0 0 512 512"><path d="M228.267 97.759 C 187.149 103.331,147.259 119.958,113.482 145.603 C 84.620 167.516,50.579 205.376,21.374 248.044 L 16.014 255.875 19.259 261.271 C 35.193 287.766,57.318 316.504,78.507 338.230 C 94.351 354.476,104.212 362.892,119.040 372.824 C 145.932 390.836,170.887 402.035,199.845 409.086 C 222.152 414.518,228.024 415.149,256.000 415.123 C 278.185 415.101,282.490 414.870,292.267 413.177 C 328.170 406.960,359.397 394.573,390.400 374.249 C 424.954 351.596,462.203 310.616,491.887 262.595 L 495.986 255.964 491.033 248.089 C 467.528 210.714,435.581 173.264,408.727 151.606 C 373.015 122.803,327.323 103.190,283.212 97.729 C 270.189 96.117,240.264 96.133,228.267 97.759 M279.209 162.827 C 314.414 172.336,339.752 197.681,349.162 232.801 C 351.416 241.215,352.258 261.721,350.738 271.207 C 347.609 290.738,337.917 309.485,323.590 323.717 C 309.075 338.137,290.699 347.616,271.207 350.738 C 261.721 352.258,241.215 351.416,232.801 349.162 C 197.681 339.751,172.248 314.322,162.841 279.209 C 160.587 270.798,159.742 250.293,161.257 240.793 C 167.550 201.339,197.924 169.939,237.760 161.706 C 246.701 159.858,270.613 160.505,279.209 162.827 M243.200 193.331 C 222.472 197.798,205.011 212.131,197.023 231.237 C 181.501 268.360,203.876 310.553,243.377 318.652 C 287.847 327.769,327.769 287.847,318.652 243.377 C 311.568 208.828,277.169 186.011,243.200 193.331 " stroke="none" fill="black" fill-rule="evenodd"></path></svg>