<svg xmlns="http://www.w3.org/2000/svg" width="512" height="512" viewBox="0 0 512 512"><path d="M75.622 65.034 C 70.994 66.285,66.216 71.316,64.974 76.246 C 64.061 79.873,64.131 81.421,65.443 86.613 C 66.156 89.436,421.411 444.498,425.387 446.362 C 427.264 447.242,430.144 447.963,431.787 447.963 C 439.053 447.963,446.584 441.668,447.625 434.724 C 448.970 425.755,462.704 440.231,268.521 245.935 C 170.819 148.176,89.728 67.480,88.320 66.612 C 84.991 64.560,79.776 63.912,75.622 65.034 M229.973 97.372 C 213.818 99.311,185.443 106.239,182.407 108.987 C 181.582 109.734,180.907 110.941,180.907 111.671 C 180.907 112.963,227.736 160.633,230.515 162.170 C 231.394 162.656,234.383 162.469,238.589 161.664 C 247.314 159.995,264.779 159.999,273.484 161.672 C 312.856 169.240,341.745 197.957,350.351 238.080 C 352.171 246.565,352.184 264.455,350.378 273.493 C 349.628 277.248,349.014 280.501,349.013 280.723 C 349.013 280.944,364.847 296.976,384.199 316.349 C 408.574 340.750,419.945 351.573,421.207 351.573 C 424.636 351.573,449.145 327.797,464.749 309.333 C 477.123 294.691,492.218 272.456,494.479 265.542 C 496.754 258.581,496.049 249.399,492.698 242.347 C 483.115 222.183,444.539 178.345,417.377 156.753 C 377.820 125.308,335.182 105.851,289.707 98.495 C 279.525 96.848,240.461 96.113,229.973 97.372 M82.287 168.812 C 65.316 183.897,45.745 205.653,29.570 227.413 C 18.800 241.903,16.880 245.812,16.392 254.248 C 15.852 263.577,17.452 268.225,25.194 279.812 C 39.143 300.689,53.870 318.359,72.202 336.213 C 118.943 381.735,172.480 408.253,230.580 414.660 C 241.022 415.811,269.345 415.833,279.467 414.698 C 295.955 412.848,322.022 407.315,328.237 404.345 C 333.668 401.750,333.091 400.947,307.063 374.855 C 293.762 361.522,282.252 350.263,281.485 349.836 C 280.601 349.343,277.679 349.519,273.516 350.316 C 264.860 351.972,247.007 351.936,238.089 350.244 C 199.800 342.981,169.003 312.117,161.717 273.706 C 160.065 264.996,160.048 247.036,161.684 238.484 C 162.477 234.338,162.656 231.395,162.168 230.515 C 160.619 227.724,93.353 161.280,92.076 161.280 C 91.352 161.280,86.948 164.669,82.287 168.812 M263.680 194.352 C 263.680 196.304,315.706 248.320,317.658 248.320 C 319.483 248.320,319.566 246.090,317.960 240.213 C 312.097 218.761,296.758 202.430,275.927 195.464 C 266.876 192.437,263.680 192.147,263.680 194.352 M193.187 264.894 C 192.350 267.075,195.331 276.736,199.395 285.013 C 207.609 301.745,226.006 315.671,243.886 318.692 C 251.674 320.007,250.171 318.022,222.209 290.049 C 207.712 275.546,195.356 263.680,194.752 263.680 C 194.147 263.680,193.443 264.226,193.187 264.894 " stroke="none" fill="black" fill-rule="evenodd"></path></svg>