<svg xmlns="http://www.w3.org/2000/svg" width="512" height="512" viewBox="0 0 512 512"><path d="M402.727 24.684 C 389.325 29.293,377.164 33.683,375.701 34.439 C 370.726 37.012,369.656 39.747,362.373 68.511 L 355.413 96.000 287.779 96.147 C 224.150 96.285,219.958 96.386,217.007 97.854 C 209.164 101.753,206.054 111.055,209.922 119.044 C 212.349 124.058,217.034 127.261,222.741 127.809 C 225.286 128.054,226.987 128.634,226.987 129.256 C 226.987 129.828,228.137 140.051,229.543 151.975 C 230.949 163.898,232.101 174.095,232.103 174.635 C 232.106 175.357,220.751 175.728,189.227 176.034 C 150.241 176.413,145.461 176.616,136.599 178.262 C 125.575 180.310,109.524 185.426,101.433 189.471 C 71.008 204.682,52.428 231.094,48.642 264.517 C 48.141 268.937,47.648 272.617,47.546 272.695 C 47.444 272.773,45.400 273.477,43.004 274.259 C 18.319 282.320,8.391 312.848,23.343 334.713 L 26.995 340.053 24.223 344.663 C 22.698 347.198,20.368 352.574,19.045 356.610 C 16.840 363.337,16.644 364.976,16.691 376.320 C 16.737 387.364,16.987 389.427,19.016 395.520 C 25.349 414.534,40.049 428.408,56.757 431.138 C 60.037 431.674,62.811 432.162,62.922 432.223 C 63.033 432.283,64.044 435.959,65.168 440.390 C 68.983 455.427,75.920 467.636,86.112 477.251 C 93.531 484.250,101.389 488.930,111.787 492.543 L 119.893 495.360 260.605 495.591 C 384.872 495.794,401.926 495.668,406.525 494.510 C 425.304 489.781,439.333 474.599,442.445 455.641 C 443.096 451.673,451.221 376.372,460.500 288.305 L 477.371 128.183 481.438 127.792 C 486.956 127.262,491.684 123.990,494.078 119.044 C 497.955 111.034,494.835 101.751,486.947 97.832 C 483.954 96.344,480.932 96.256,436.442 96.360 C 391.628 96.465,389.121 96.391,389.142 94.956 C 389.165 93.313,397.295 60.631,397.783 60.218 C 397.946 60.080,403.072 58.325,409.173 56.318 C 434.315 48.049,439.494 45.967,442.418 42.957 C 452.161 32.925,444.884 16.091,430.877 16.259 C 428.404 16.288,418.651 19.207,402.727 24.684 M444.934 130.773 C 444.715 132.299,437.067 204.587,427.938 291.413 C 418.810 378.240,410.908 450.807,410.378 452.672 C 409.142 457.031,404.106 462.057,399.767 463.262 C 397.542 463.879,384.117 464.205,360.783 464.209 L 325.194 464.213 329.001 456.320 C 331.096 451.979,333.724 444.795,334.842 440.357 L 336.875 432.288 342.822 431.286 C 356.967 428.903,370.157 418.569,377.036 404.480 C 382.181 393.943,383.530 388.005,383.530 375.893 C 383.530 363.573,382.151 357.639,376.820 347.017 L 373.034 339.474 376.075 335.497 C 392.071 314.576,382.668 283.911,357.340 274.402 L 352.000 272.397 351.352 265.265 C 347.564 223.552,318.091 191.545,273.246 180.440 C 268.823 179.345,265.099 178.330,264.971 178.184 C 264.651 177.821,259.407 132.306,259.410 129.920 L 259.413 128.000 352.373 128.000 L 445.333 128.000 444.934 130.773 M261.973 210.549 C 280.534 215.098,292.161 221.134,302.519 231.598 C 312.392 241.571,317.710 252.824,319.594 267.733 L 320.160 272.213 200.077 272.213 L 79.993 272.213 80.569 267.123 C 84.072 236.163,107.050 215.473,144.640 209.431 C 149.779 208.605,164.233 208.388,203.093 208.553 C 252.108 208.760,255.087 208.861,261.973 210.549 M349.371 306.282 C 352.466 309.189,352.466 314.597,349.372 317.505 L 347.170 319.573 259.985 320.000 L 172.800 320.427 168.960 322.453 C 166.848 323.568,160.427 329.105,154.692 334.758 L 144.263 345.037 133.518 334.580 C 118.100 319.576,121.296 320.518,84.053 319.998 C 67.157 319.762,52.647 319.236,51.808 318.828 C 49.956 317.927,47.787 313.933,47.787 311.424 C 47.787 310.415,49.096 308.280,50.695 306.681 L 53.604 303.772 200.387 303.993 L 347.169 304.213 349.371 306.282 M119.008 365.946 C 130.351 377.060,133.546 379.718,136.956 380.880 C 147.778 384.568,152.546 382.279,169.376 365.317 L 182.165 352.427 260.512 352.427 C 344.920 352.427,341.101 352.229,345.290 356.826 C 350.983 363.072,353.274 376.008,350.423 385.813 C 348.852 391.218,343.989 397.344,339.919 399.044 C 337.590 400.018,314.163 400.213,199.977 400.213 C 63.155 400.213,62.824 400.209,59.194 398.452 C 55.135 396.487,50.956 390.942,49.306 385.330 C 48.746 383.425,48.306 378.987,48.330 375.467 C 48.386 366.910,50.834 360.594,55.906 355.920 L 59.695 352.427 82.452 352.427 L 105.209 352.427 119.008 365.946 M303.322 434.560 C 302.139 440.028,297.346 448.413,292.693 453.156 C 286.956 459.005,280.322 462.276,272.005 463.356 C 268.591 463.800,235.568 464.166,198.400 464.172 C 124.972 464.185,123.798 464.117,115.098 459.382 C 107.132 455.047,98.533 443.401,96.767 434.560 L 96.213 431.787 200.068 431.787 L 303.922 431.787 303.322 434.560 " stroke="none" fill="black" fill-rule="evenodd"></path></svg>