<svg xmlns="http://www.w3.org/2000/svg" width="512" height="512" viewBox="0 0 512 512"><path d="M31.573 256.000 L 31.573 431.787 256.000 431.787 L 480.427 431.787 480.427 256.000 L 480.427 80.213 256.000 80.213 L 31.573 80.213 31.573 256.000 M111.787 135.680 L 111.787 159.573 87.893 159.573 L 64.000 159.573 64.000 135.680 L 64.000 111.787 87.893 111.787 L 111.787 111.787 111.787 135.680 M448.000 135.680 L 448.000 159.573 424.107 159.573 L 400.213 159.573 400.213 135.680 L 400.213 111.787 424.107 111.787 L 448.000 111.787 448.000 135.680 M111.787 215.893 L 111.787 239.787 87.893 239.787 L 64.000 239.787 64.000 215.893 L 64.000 192.000 87.893 192.000 L 111.787 192.000 111.787 215.893 M448.000 215.893 L 448.000 239.787 424.107 239.787 L 400.213 239.787 400.213 215.893 L 400.213 192.000 424.107 192.000 L 448.000 192.000 448.000 215.893 M367.787 256.000 L 367.787 272.213 256.000 272.213 L 144.213 272.213 144.213 256.000 L 144.213 239.787 256.000 239.787 L 367.787 239.787 367.787 256.000 M111.787 296.107 L 111.787 320.000 87.893 320.000 L 64.000 320.000 64.000 296.107 L 64.000 272.213 87.893 272.213 L 111.787 272.213 111.787 296.107 M448.000 296.107 L 448.000 320.000 424.107 320.000 L 400.213 320.000 400.213 296.107 L 400.213 272.213 424.107 272.213 L 448.000 272.213 448.000 296.107 M111.787 376.320 L 111.787 400.213 87.893 400.213 L 64.000 400.213 64.000 376.320 L 64.000 352.427 87.893 352.427 L 111.787 352.427 111.787 376.320 M448.000 376.320 L 448.000 400.213 424.107 400.213 L 400.213 400.213 400.213 376.320 L 400.213 352.427 424.107 352.427 L 448.000 352.427 448.000 376.320 " stroke="none" fill="black" fill-rule="evenodd"></path></svg>