<svg xmlns="http://www.w3.org/2000/svg" width="512" height="512" viewBox="0 0 512 512"><path d="M226.365 17.488 C 189.852 21.661,154.835 32.304,124.134 48.560 C 113.386 54.251,110.933 56.914,110.933 62.889 C 110.933 67.622,112.801 71.283,116.308 73.421 C 120.968 76.263,123.542 75.622,139.744 67.584 C 175.502 49.844,208.801 41.503,248.406 40.365 C 294.954 39.028,331.806 47.298,374.958 68.766 C 389.424 75.963,392.410 76.523,396.765 72.858 C 400.662 69.580,402.187 66.108,401.686 61.660 C 401.085 56.328,398.118 53.617,386.480 47.763 C 355.351 32.107,325.958 22.787,293.547 18.297 C 279.738 16.384,240.190 15.908,226.365 17.488 M239.787 75.088 C 174.493 79.333,115.627 107.008,73.087 153.459 C 64.228 163.132,50.623 180.890,48.886 185.046 C 45.266 193.711,54.139 203.672,62.888 200.764 C 65.296 199.964,66.458 198.646,78.933 182.561 C 87.002 172.158,102.489 156.370,112.647 148.193 C 149.029 118.906,195.033 101.529,242.581 99.113 C 285.325 96.942,324.639 104.997,360.960 123.368 C 391.814 138.974,416.302 159.790,438.007 188.859 C 441.798 193.937,445.962 198.641,447.261 199.312 C 452.240 201.887,458.918 199.932,462.186 194.944 C 463.034 193.650,463.691 190.947,463.726 188.612 C 463.779 185.071,463.229 183.727,459.520 178.333 C 445.394 157.791,423.174 135.414,401.493 119.896 C 356.656 87.805,297.275 71.351,239.787 75.088 M243.200 131.959 C 225.738 133.233,203.737 137.956,188.160 143.773 C 171.402 150.032,151.802 160.932,136.960 172.244 C 129.813 177.692,112.624 194.582,106.433 202.240 C 84.756 229.055,71.893 259.321,67.269 294.400 C 65.879 304.944,65.908 336.602,67.319 348.587 C 70.133 372.492,76.621 400.001,82.965 414.927 C 88.690 428.398,107.690 422.250,104.323 408.017 C 103.807 405.837,101.816 399.061,99.899 392.960 C 88.695 357.304,85.786 316.290,92.223 284.705 C 104.250 225.685,151.980 176.901,212.907 161.356 C 225.507 158.141,235.002 156.859,249.630 156.396 C 271.629 155.701,289.395 158.215,309.298 164.839 C 368.716 184.614,412.199 236.051,421.080 297.070 C 422.795 308.855,422.802 324.926,421.093 331.485 C 416.997 347.210,403.367 360.498,386.942 364.776 C 380.459 366.464,369.009 366.442,362.363 364.727 C 347.333 360.850,334.294 349.102,329.323 334.957 C 328.234 331.859,327.231 325.863,326.709 319.338 C 324.911 296.836,318.637 282.659,304.477 269.102 C 288.605 253.906,266.111 246.716,244.907 250.061 C 214.781 254.814,191.185 277.444,185.529 307.005 C 182.395 323.386,185.743 353.798,193.180 376.502 C 201.881 403.062,215.398 425.202,235.455 445.743 C 258.382 469.223,280.740 482.965,312.544 493.125 C 317.125 494.589,322.117 495.785,323.637 495.783 C 331.851 495.774,336.952 486.265,333.099 478.145 C 331.201 474.146,329.958 473.468,316.310 468.990 C 289.994 460.357,270.139 447.862,250.746 427.733 C 224.328 400.310,209.692 366.142,207.648 327.124 C 206.695 308.930,210.426 298.045,221.327 287.219 C 240.406 268.269,271.211 268.424,290.058 287.565 C 298.928 296.574,302.374 305.400,303.742 322.607 C 305.350 342.849,311.835 357.121,325.297 370.044 C 339.972 384.131,357.538 390.695,377.977 389.727 C 389.941 389.161,397.873 387.047,407.949 381.740 C 423.084 373.768,435.084 360.411,441.072 344.870 C 444.547 335.851,445.549 329.377,445.497 316.296 C 445.241 252.826,409.740 192.154,353.154 158.481 C 331.476 145.581,305.206 136.621,279.040 133.203 C 271.506 132.219,249.912 131.469,243.200 131.959 M246.613 190.834 C 245.440 191.003,241.024 191.573,236.800 192.101 C 211.140 195.303,183.620 208.992,164.236 228.195 C 146.465 245.800,135.211 265.234,129.368 288.404 C 125.968 301.888,125.168 310.795,125.725 328.960 C 126.768 362.991,133.767 392.359,147.244 419.254 C 153.922 432.582,163.635 448.646,170.906 458.387 C 178.840 469.017,194.853 486.936,198.292 489.034 C 205.910 493.678,215.893 487.852,215.893 478.762 C 215.893 474.784,213.978 471.727,206.341 463.512 C 183.701 439.163,167.467 412.500,158.346 384.686 C 151.518 363.865,148.925 346.741,148.940 322.560 C 148.952 302.981,149.949 297.056,155.787 281.886 C 174.312 233.743,229.058 205.310,280.320 217.210 C 311.857 224.531,338.759 245.461,352.662 273.493 C 359.549 287.380,362.383 297.788,363.447 313.102 C 363.876 319.268,364.652 324.038,365.492 325.662 C 369.495 333.402,381.421 333.436,385.412 325.719 C 387.690 321.314,386.825 304.716,383.592 290.775 C 373.671 247.996,340.278 211.470,298.363 197.551 C 281.494 191.949,259.057 189.036,246.613 190.834 M248.482 309.782 C 244.035 312.493,242.888 316.319,243.498 326.400 C 245.426 358.253,258.354 387.503,280.368 409.818 C 300.628 430.356,323.577 441.790,352.000 445.509 C 366.302 447.380,394.990 445.514,401.318 442.301 C 409.229 438.284,408.810 424.844,400.653 420.954 C 398.001 419.689,396.787 419.648,389.767 420.585 C 356.517 425.022,330.511 419.610,309.260 403.830 C 283.617 384.789,268.570 357.009,266.558 324.990 C 266.253 320.133,265.462 315.087,264.800 313.776 C 262.090 308.405,253.992 306.423,248.482 309.782 " stroke="none" fill="black" fill-rule="evenodd"></path></svg>