<svg xmlns="http://www.w3.org/2000/svg" width="512" height="512" viewBox="0 0 512 512"><path d="M125.593 33.691 C 98.227 36.956,77.601 44.017,69.909 52.756 C 63.515 60.020,63.998 42.510,64.019 266.182 C 64.037 460.667,64.089 467.314,65.633 470.712 C 67.936 475.785,72.449 478.929,78.102 479.397 C 84.108 479.895,86.369 479.257,90.055 476.021 C 96.442 470.413,95.972 476.915,96.243 390.310 L 96.486 312.567 102.643 310.700 C 117.781 306.111,147.476 303.133,167.680 304.176 C 191.484 305.406,211.977 308.964,263.680 320.844 C 313.374 332.262,326.016 334.574,345.600 335.828 C 371.734 337.501,416.475 329.437,436.171 319.504 C 441.129 317.004,445.791 311.637,447.077 306.951 C 447.804 304.299,447.998 273.653,447.818 189.727 L 447.573 76.093 444.978 72.401 C 441.986 68.144,437.162 65.137,432.094 64.369 C 429.162 63.925,425.966 64.716,413.320 69.013 C 395.379 75.109,381.365 78.094,364.473 79.416 C 344.313 80.993,330.297 78.382,296.107 66.678 C 226.415 42.822,215.915 39.618,193.280 35.302 C 182.492 33.245,179.099 33.000,158.293 32.781 C 142.820 32.618,132.081 32.917,125.593 33.691 M186.027 66.531 C 206.362 70.310,220.788 74.582,265.434 90.043 C 314.463 107.023,328.913 110.774,348.287 111.552 C 366.608 112.287,391.108 109.294,409.171 104.113 C 412.454 103.171,415.238 102.400,415.357 102.400 C 415.476 102.400,415.573 145.393,415.573 197.941 L 415.573 293.482 408.533 295.666 C 392.214 300.727,371.587 303.787,353.784 303.787 C 335.609 303.787,320.232 301.193,273.444 290.238 C 232.645 280.684,215.204 277.229,190.293 273.767 C 177.675 272.013,134.607 272.301,121.600 274.226 C 112.116 275.630,102.974 277.388,98.347 278.696 L 96.427 279.239 96.427 175.955 L 96.427 72.670 100.480 71.328 C 109.169 68.449,124.306 65.834,139.947 64.510 C 150.465 63.620,176.508 64.762,186.027 66.531 " stroke="none" fill="black" fill-rule="evenodd"></path></svg>