<svg xmlns="http://www.w3.org/2000/svg" width="512" height="512" viewBox="0 0 512 512"><path d="M194.390 42.027 C 196.862 53.681,197.880 78.265,196.363 89.668 C 194.039 107.131,188.691 123.594,179.134 142.701 C 172.206 156.552,166.421 166.185,147.478 195.413 C 117.977 240.932,107.282 261.638,100.759 285.867 C 94.743 308.211,94.881 336.058,101.124 359.835 C 111.196 398.188,134.874 431.344,167.947 453.405 C 186.875 466.031,210.173 474.921,233.070 478.253 C 244.898 479.975,267.153 479.970,278.930 478.244 C 331.179 470.584,376.307 437.675,399.394 390.400 C 405.615 377.661,409.827 365.500,412.825 351.623 C 415.061 341.272,415.140 340.019,415.123 314.880 C 415.110 294.932,414.748 286.063,413.574 276.907 C 405.444 213.502,383.580 160.694,346.095 113.920 C 316.888 77.476,272.007 48.099,228.803 37.148 C 217.526 34.289,205.557 32.434,198.364 32.430 L 192.354 32.427 194.390 42.027 M254.265 270.262 C 267.618 280.946,281.053 298.368,290.468 317.209 C 298.808 333.901,302.799 348.365,303.537 364.579 C 305.416 405.887,287.097 431.787,256.000 431.787 C 233.312 431.787,217.479 418.241,210.617 392.960 C 208.998 386.996,208.764 383.923,208.761 368.640 C 208.758 352.531,208.931 350.505,210.947 343.040 C 214.025 331.643,218.494 320.054,225.920 304.213 C 236.609 281.415,238.748 275.558,240.188 265.150 L 240.752 261.073 244.161 262.990 C 246.036 264.044,250.583 267.316,254.265 270.262 " stroke="none" fill="black" fill-rule="evenodd"></path></svg>