<svg xmlns="http://www.w3.org/2000/svg" width="512" height="512" viewBox="0 0 512 512"><path d="M199.743 160.351 L 80.207 303.787 151.890 303.787 C 219.597 303.787,223.572 303.869,223.557 305.280 C 223.548 306.101,216.461 349.191,207.809 401.034 C 199.156 452.878,192.156 495.353,192.252 495.424 C 192.348 495.495,246.284 430.902,312.109 351.883 L 431.791 208.213 360.109 208.213 C 292.403 208.213,288.428 208.131,288.443 206.720 C 288.452 205.899,295.514 162.987,304.136 111.360 C 312.758 59.733,319.693 17.363,319.546 17.204 C 319.400 17.045,265.488 81.461,199.743 160.351 " stroke="none" fill="black" fill-rule="evenodd"></path></svg>