<svg xmlns="http://www.w3.org/2000/svg" width="512" height="512" viewBox="0 0 512 512"><path d="M143.259 81.126 C 99.496 87.557,69.436 118.479,46.259 180.907 C 32.512 217.935,20.309 273.249,16.985 313.600 C 15.601 330.404,16.414 356.932,18.710 369.910 C 25.995 411.075,48.449 433.173,81.378 431.584 C 102.824 430.549,122.047 418.153,145.903 389.973 C 159.121 374.360,165.038 369.460,178.023 363.375 C 191.579 357.023,208.251 353.886,236.373 352.397 C 270.523 350.589,303.357 353.107,322.026 358.963 C 338.571 364.154,349.159 371.591,363.123 387.830 C 381.874 409.636,396.665 421.830,411.091 427.378 C 420.556 431.018,427.051 432.084,436.706 431.580 C 453.652 430.696,469.352 422.090,479.201 408.288 C 490.528 392.415,495.790 371.224,495.784 341.503 C 495.779 318.461,492.829 293.405,486.269 260.693 C 461.272 136.051,420.014 80.197,352.955 80.216 C 341.208 80.219,333.333 81.572,313.173 87.052 C 285.976 94.443,281.043 95.140,256.000 95.130 C 230.861 95.119,227.968 94.717,200.187 87.367 C 190.376 84.771,179.240 82.100,175.441 81.431 C 168.050 80.131,151.125 79.970,143.259 81.126 M167.794 162.064 C 169.265 162.961,171.569 165.136,172.914 166.899 L 175.360 170.102 175.618 189.113 L 175.877 208.123 194.955 208.382 L 214.033 208.640 217.310 211.261 C 221.589 214.683,223.571 218.715,223.571 224.000 C 223.571 229.285,221.589 233.317,217.310 236.739 L 214.033 239.360 194.955 239.618 L 175.877 239.877 175.618 258.955 L 175.360 278.033 172.739 281.310 C 169.317 285.589,165.285 287.571,160.000 287.571 C 154.715 287.571,150.683 285.589,147.261 281.310 L 144.640 278.033 144.382 258.955 L 144.123 239.877 125.113 239.618 L 106.102 239.360 102.899 236.914 C 98.108 233.258,96.434 229.959,96.430 224.171 C 96.426 218.697,97.623 215.760,101.257 212.321 C 105.227 208.565,107.374 208.213,126.349 208.213 L 144.213 208.213 144.213 190.349 C 144.213 179.766,144.584 171.505,145.124 170.082 C 146.239 167.138,148.922 164.133,152.320 162.023 C 155.854 159.828,164.164 159.850,167.794 162.064 M344.567 162.059 C 356.528 168.223,359.610 183.361,350.877 193.047 C 346.777 197.594,342.172 199.638,335.972 199.661 C 326.379 199.698,318.654 193.466,316.531 183.977 C 314.644 175.546,319.199 166.104,327.021 162.233 C 331.836 159.849,340.122 159.767,344.567 162.059 M297.934 204.937 C 305.875 207.316,311.757 215.428,311.757 224.000 C 311.757 230.273,309.560 234.951,304.634 239.167 C 291.897 250.069,272.213 240.860,272.213 224.000 C 272.213 210.448,284.913 201.036,297.934 204.937 M386.663 205.263 C 397.478 209.079,403.057 222.730,397.858 232.655 C 390.496 246.706,371.378 247.648,363.166 234.365 C 353.343 218.478,369.035 199.043,386.663 205.263 M344.320 249.912 C 356.875 255.630,359.752 272.714,349.758 282.197 C 341.565 289.969,327.836 289.346,320.823 280.883 C 310.008 267.833,318.959 248.380,335.787 248.363 C 338.932 248.360,342.223 248.957,344.320 249.912 " stroke="none" fill="black" fill-rule="evenodd"></path></svg>