<svg xmlns="http://www.w3.org/2000/svg" width="512" height="512" viewBox="0 0 512 512"><path d="M244.997 53.050 L 201.141 95.980 231.771 126.081 C 248.617 142.636,268.448 161.981,275.840 169.070 L 289.280 181.958 289.280 154.924 L 289.280 127.890 309.995 128.158 L 330.711 128.427 336.426 131.242 C 342.999 134.480,347.419 139.273,349.931 145.882 C 351.520 150.064,351.573 153.639,351.573 255.572 L 351.573 360.939 347.947 363.208 C 342.806 366.424,332.888 376.816,329.511 382.525 C 316.951 403.757,316.951 428.172,329.511 449.496 C 333.478 456.231,344.004 466.609,351.147 470.827 C 371.239 482.693,396.622 482.704,416.853 470.857 C 423.934 466.710,434.447 456.324,438.489 449.482 C 442.540 442.625,445.338 435.308,446.768 427.838 C 451.359 403.838,441.470 378.811,421.706 364.419 L 416.516 360.640 416.197 252.640 C 415.851 135.141,416.106 141.529,411.161 126.720 C 402.156 99.757,379.731 77.494,352.680 68.664 C 341.357 64.967,332.560 64.007,309.985 64.003 L 289.304 64.000 289.079 37.060 L 288.853 10.121 244.997 53.050 M121.038 32.558 C 106.802 33.925,93.210 40.532,82.773 51.157 C 67.523 66.683,61.242 86.980,65.232 107.838 C 68.249 123.607,77.963 138.991,90.354 147.627 L 94.640 150.613 94.680 255.645 L 94.720 360.676 89.982 363.940 C 73.908 375.010,63.147 395.888,63.147 416.000 C 63.147 439.770,77.342 462.713,98.712 473.482 C 115.359 481.871,138.672 481.741,155.554 473.165 C 175.095 463.237,187.286 445.875,190.414 423.515 C 193.501 401.443,182.184 375.975,163.943 363.947 L 158.767 360.533 158.744 256.394 L 158.720 152.255 164.197 148.654 C 184.545 135.277,195.472 108.752,190.768 84.162 C 184.471 51.251,154.828 29.313,121.038 32.558 M137.510 65.711 C 151.136 70.008,159.573 81.592,159.573 96.000 C 159.573 110.408,151.136 121.992,137.510 126.289 C 130.970 128.352,125.608 128.458,119.408 126.645 C 110.455 124.027,103.732 118.434,99.198 109.835 C 97.052 105.764,96.853 104.590,96.853 96.000 C 96.853 87.454,97.059 86.223,99.153 82.255 C 103.644 73.742,109.883 68.387,118.536 65.618 C 124.858 63.596,130.898 63.625,137.510 65.711 M136.657 385.693 C 156.946 392.025,165.170 416.020,153.220 434.019 C 147.024 443.351,135.775 448.685,124.317 447.724 C 106.001 446.189,92.352 428.836,95.482 411.065 C 98.948 391.391,117.764 379.796,136.657 385.693 M393.510 385.711 C 407.136 390.008,415.573 401.592,415.573 416.000 C 415.573 430.408,407.136 441.992,393.510 446.289 C 386.970 448.352,381.608 448.458,375.408 446.645 C 366.455 444.027,359.732 438.434,355.198 429.835 C 353.052 425.764,352.853 424.590,352.853 416.000 C 352.853 407.454,353.059 406.223,355.153 402.255 C 359.644 393.742,365.883 388.387,374.536 385.618 C 380.858 383.596,386.898 383.625,393.510 385.711 " stroke="none" fill="black" fill-rule="evenodd"></path></svg>