<svg xmlns="http://www.w3.org/2000/svg" width="512" height="512" viewBox="0 0 512 512"><path d="M114.347 33.703 C 111.296 34.382,105.344 36.652,101.120 38.746 C 80.908 48.768,68.592 66.038,65.593 88.560 C 62.837 109.259,71.576 131.361,87.817 144.770 C 93.339 149.328,103.543 155.088,109.440 156.975 L 112.640 157.999 112.640 256.000 L 112.640 354.001 109.440 355.025 C 103.543 356.912,93.339 362.672,87.817 367.230 C 71.514 380.690,62.727 403.074,65.622 423.771 C 68.760 446.202,81.024 463.297,101.120 473.249 C 111.444 478.362,118.839 479.829,131.840 479.344 C 149.579 478.681,161.285 473.543,174.198 460.752 C 180.603 454.407,182.134 452.282,185.884 444.538 C 195.280 425.133,195.280 406.867,185.884 387.462 C 182.134 379.718,180.603 377.593,174.198 371.248 C 166.241 363.367,158.931 358.608,150.439 355.782 L 145.067 353.994 145.067 292.086 L 145.067 230.177 154.241 239.035 C 192.187 275.672,248.255 297.894,316.587 303.381 L 322.987 303.895 324.562 308.748 C 329.583 324.220,341.394 337.461,357.120 345.249 C 367.444 350.362,374.839 351.829,387.840 351.344 C 405.579 350.681,417.285 345.543,430.198 332.752 C 436.603 326.407,438.134 324.282,441.884 316.538 C 451.280 297.133,451.280 278.867,441.884 259.462 C 438.134 251.718,436.603 249.593,430.198 243.248 C 417.285 230.457,405.579 225.319,387.840 224.656 C 374.839 224.171,367.444 225.638,357.120 230.751 C 341.568 238.453,330.047 251.265,324.630 266.880 C 323.100 271.292,323.024 271.360,319.618 271.359 C 308.105 271.356,276.252 266.025,260.440 261.455 C 230.758 252.877,203.675 239.390,185.119 223.944 C 168.333 209.971,156.411 193.557,150.453 176.213 C 148.027 169.154,145.685 158.670,146.378 157.977 C 146.647 157.709,149.144 156.664,151.927 155.657 C 160.101 152.697,166.323 148.531,174.187 140.752 C 180.609 134.399,182.129 132.292,185.884 124.538 C 195.280 105.133,195.280 86.867,185.884 67.462 C 182.134 59.718,180.603 57.593,174.198 51.248 C 165.829 42.958,158.777 38.501,148.907 35.264 C 140.376 32.466,123.356 31.697,114.347 33.703 M142.964 67.365 C 148.972 70.322,154.942 76.305,157.822 82.254 C 169.803 107.003,145.786 134.756,119.658 126.355 C 90.124 116.858,89.646 75.919,118.950 65.766 C 126.529 63.140,135.611 63.745,142.964 67.365 M398.964 259.365 C 404.972 262.322,410.942 268.305,413.822 274.254 C 425.803 299.003,401.786 326.756,375.658 318.355 C 346.124 308.858,345.646 267.919,374.950 257.766 C 382.529 255.140,391.611 255.745,398.964 259.365 M142.964 387.365 C 148.972 390.322,154.942 396.305,157.822 402.254 C 169.803 427.003,145.786 454.756,119.658 446.355 C 90.124 436.858,89.646 395.919,118.950 385.766 C 126.529 383.140,135.611 383.745,142.964 387.365 " stroke="none" fill="black" fill-rule="evenodd"></path></svg>