<svg xmlns="http://www.w3.org/2000/svg" width="512" height="512" viewBox="0 0 512 512"><path d="M122.371 32.531 C 87.591 35.697,60.970 68.714,65.538 103.021 C 66.808 112.566,69.850 121.563,74.388 129.202 C 78.376 135.914,87.151 145.099,93.225 148.919 L 97.277 151.467 97.277 256.000 L 97.277 360.533 93.225 363.081 C 87.151 366.901,78.376 376.086,74.388 382.798 C 67.082 395.096,63.692 410.758,65.552 423.623 C 68.804 446.117,80.904 463.215,100.578 473.117 C 109.826 477.772,118.073 479.649,129.280 479.650 C 147.862 479.653,163.259 472.895,175.984 459.151 C 182.189 452.448,187.798 442.540,190.428 433.634 C 192.893 425.287,193.412 412.476,191.645 403.592 C 188.605 388.307,178.343 372.428,166.018 363.940 L 161.280 360.676 161.280 313.885 C 161.280 288.150,161.499 267.093,161.767 267.093 C 162.035 267.093,164.627 268.779,167.527 270.838 C 205.690 297.943,258.514 315.185,315.733 319.216 C 323.477 319.761,329.932 320.518,330.078 320.897 C 330.223 321.277,332.239 324.092,334.556 327.154 C 342.458 337.592,356.092 346.548,369.172 349.894 C 377.424 352.004,390.979 352.136,399.618 350.190 C 423.402 344.832,442.529 325.203,447.500 301.049 C 452.091 278.738,444.788 256.221,427.983 240.881 C 420.971 234.480,414.791 230.818,405.556 227.591 C 395.858 224.203,381.071 223.388,370.788 225.676 C 362.791 227.455,351.162 233.178,344.341 238.692 C 339.829 242.340,330.927 252.658,330.068 255.237 C 329.628 256.556,308.761 254.800,292.700 252.093 C 268.124 247.950,247.327 241.457,227.413 231.708 C 198.452 217.529,179.988 201.109,169.810 180.480 C 165.699 172.146,162.802 163.084,161.748 155.255 L 161.224 151.362 165.990 148.080 C 182.092 136.990,192.853 116.127,192.853 96.000 C 192.853 75.782,182.477 55.635,166.082 44.019 C 158.880 38.916,154.881 37.027,146.162 34.609 C 137.771 32.282,131.310 31.718,122.371 32.531 M142.964 67.365 C 148.972 70.322,154.942 76.305,157.822 82.254 C 169.776 106.948,146.052 134.500,119.785 126.428 C 90.193 117.333,89.624 75.926,118.950 65.766 C 126.529 63.140,135.611 63.745,142.964 67.365 M398.964 259.365 C 404.972 262.322,410.942 268.305,413.822 274.254 C 425.776 298.948,402.052 326.500,375.785 318.428 C 346.193 309.333,345.624 267.926,374.950 257.766 C 382.529 255.140,391.611 255.745,398.964 259.365 M142.964 387.365 C 155.524 393.548,162.950 407.859,160.494 421.145 C 156.090 444.970,128.738 455.830,109.662 441.328 C 93.054 428.703,93.085 403.352,109.725 390.598 C 119.090 383.419,132.332 382.131,142.964 387.365 " stroke="none" fill="black" fill-rule="evenodd"></path></svg>