<svg xmlns="http://www.w3.org/2000/svg" width="512" height="512" viewBox="0 0 512 512"><path d="M153.017 32.501 C 131.471 34.591,111.721 48.704,102.369 68.693 C 97.894 78.257,96.334 85.364,96.356 96.074 C 96.379 107.173,97.962 114.025,102.871 124.269 C 107.051 132.992,116.303 143.748,123.813 148.615 L 128.000 151.327 128.000 256.000 L 128.000 360.673 123.947 363.301 C 111.773 371.197,101.521 386.056,97.781 401.225 C 95.909 408.820,95.905 422.905,97.774 430.581 C 102.319 449.254,114.958 465.055,131.840 473.170 C 141.929 478.019,149.206 479.716,159.911 479.714 C 170.839 479.712,178.401 477.970,188.160 473.207 C 205.529 464.729,218.180 448.636,222.320 429.753 C 224.325 420.609,223.699 404.750,221.019 396.800 C 216.628 383.775,206.815 370.531,196.297 363.434 C 193.597 361.612,192.077 360.000,192.212 359.099 C 192.330 358.309,227.088 327.493,269.452 290.619 L 346.477 223.573 353.878 223.573 C 381.671 223.573,407.336 202.855,414.199 174.879 C 416.011 167.494,416.011 152.506,414.199 145.121 C 409.666 126.644,396.355 110.337,379.226 102.278 C 369.895 97.889,363.221 96.454,352.055 96.439 C 341.027 96.424,334.313 97.875,324.693 102.352 C 307.716 110.252,294.330 126.660,289.801 145.121 C 287.768 153.407,287.963 167.856,290.214 175.844 C 291.197 179.333,292.061 183.008,292.134 184.013 C 292.237 185.427,282.244 194.560,247.893 224.451 C 223.488 245.687,200.928 265.353,197.760 268.153 L 192.000 273.242 192.000 212.285 L 192.000 151.327 196.187 148.615 C 202.078 144.797,212.440 133.498,215.758 127.271 C 221.014 117.410,222.843 110.668,223.341 99.313 C 223.880 87.034,222.435 79.010,217.912 69.160 C 211.733 55.706,201.637 45.406,188.160 38.806 C 176.700 33.193,165.884 31.253,153.017 32.501 M173.477 67.230 C 180.245 70.427,185.534 75.757,188.902 82.773 C 191.279 87.725,191.564 89.145,191.556 96.000 C 191.548 102.593,191.210 104.405,189.172 108.800 C 186.049 115.534,179.484 122.123,172.889 125.145 C 168.420 127.192,166.589 127.532,160.000 127.539 C 153.386 127.545,151.609 127.217,147.200 125.172 C 140.466 122.049,133.877 115.484,130.855 108.889 C 128.808 104.420,128.468 102.589,128.461 96.000 C 128.455 89.385,128.783 87.610,130.829 83.200 C 134.902 74.422,143.511 67.150,152.530 64.872 C 158.314 63.411,167.609 64.457,173.477 67.230 M365.477 131.230 C 372.245 134.427,377.534 139.757,380.902 146.773 C 383.275 151.717,383.565 153.155,383.565 160.000 C 383.565 166.845,383.275 168.283,380.902 173.227 C 377.506 180.302,372.249 185.564,365.227 188.917 C 360.286 191.275,358.840 191.564,352.000 191.556 C 345.407 191.548,343.595 191.210,339.200 189.172 C 332.466 186.049,325.877 179.484,322.855 172.889 C 320.808 168.420,320.468 166.589,320.461 160.000 C 320.455 153.385,320.783 151.610,322.829 147.200 C 326.902 138.422,335.511 131.150,344.530 128.872 C 350.314 127.411,359.609 128.457,365.477 131.230 M173.477 387.230 C 180.245 390.427,185.534 395.757,188.902 402.773 C 191.275 407.717,191.565 409.155,191.565 416.000 C 191.565 422.845,191.275 424.283,188.902 429.227 C 185.506 436.302,180.249 441.564,173.227 444.917 C 168.286 447.275,166.840 447.564,160.000 447.556 C 153.407 447.548,151.595 447.210,147.200 445.172 C 140.466 442.049,133.877 435.484,130.855 428.889 C 128.808 424.420,128.468 422.589,128.461 416.000 C 128.455 409.385,128.783 407.610,130.829 403.200 C 134.902 394.422,143.511 387.150,152.530 384.872 C 158.314 383.411,167.609 384.457,173.477 387.230 " stroke="none" fill="black" fill-rule="evenodd"></path></svg>