<svg xmlns="http://www.w3.org/2000/svg" width="512" height="512" viewBox="0 0 512 512"><path d="M236.800 34.161 C 226.467 36.334,218.020 39.393,207.787 44.668 C 200.948 48.193,197.774 50.519,191.805 56.377 C 185.548 62.517,183.821 64.838,181.014 70.883 C 179.175 74.841,177.296 79.895,176.836 82.114 L 176.002 86.148 183.788 90.990 L 191.573 95.832 196.267 94.805 C 198.848 94.240,203.456 93.228,206.507 92.557 C 217.641 90.106,230.438 91.387,243.849 96.295 C 265.092 104.068,275.748 118.122,277.832 141.112 C 278.366 147.013,278.261 147.522,275.272 153.457 C 271.369 161.207,265.738 170.063,259.442 178.351 C 253.344 186.379,252.587 187.806,252.587 191.269 C 252.587 193.791,254.943 196.426,276.670 218.202 C 301.412 243.000,303.871 244.953,308.255 243.286 C 309.440 242.835,315.159 238.109,320.965 232.783 C 338.120 217.044,345.148 211.277,350.429 208.603 C 354.745 206.418,356.351 206.080,362.411 206.080 C 371.081 206.080,372.377 206.995,369.145 210.836 C 365.170 215.560,363.257 220.220,363.216 225.280 C 363.142 234.395,363.428 234.786,389.433 260.998 C 402.832 274.503,414.665 285.726,416.213 286.396 C 418.598 287.428,419.376 287.427,421.760 286.393 C 423.353 285.702,441.023 268.653,463.269 246.344 L 502.006 207.497 501.480 204.258 C 501.017 201.408,498.165 198.228,477.733 177.786 C 451.522 151.562,449.156 149.790,440.320 149.773 C 436.402 149.766,433.736 150.281,431.240 151.528 L 427.706 153.294 427.364 145.127 C 426.926 134.676,425.090 130.565,415.521 118.602 C 395.596 93.693,368.316 71.548,337.036 54.889 C 315.880 43.621,298.093 37.026,280.970 34.099 C 267.818 31.850,247.657 31.879,236.800 34.161 M226.794 199.932 C 225.515 200.497,176.275 246.434,117.372 302.014 C 35.084 379.659,10.054 403.739,9.320 405.963 C 7.127 412.608,6.850 412.256,43.596 449.613 C 63.967 470.322,79.137 485.065,81.295 486.252 C 85.898 488.782,90.375 488.344,94.371 484.974 C 95.945 483.646,141.967 435.180,196.642 377.272 C 266.874 302.886,296.334 271.125,297.016 269.057 C 299.254 262.274,299.241 262.257,267.672 230.524 C 251.403 214.170,237.292 200.681,235.761 200.017 C 232.451 198.582,229.901 198.558,226.794 199.932 " stroke="none" fill="black" fill-rule="evenodd"></path></svg>