<svg xmlns="http://www.w3.org/2000/svg" width="512" height="512" viewBox="0 0 512 512"><path d="M229.973 33.420 C 181.245 38.921,133.069 62.379,97.555 97.898 C 71.320 124.136,51.231 157.965,41.018 193.099 C 37.824 204.089,34.493 220.688,33.327 231.433 C 32.168 242.102,32.168 269.898,33.327 280.567 C 37.063 314.976,49.811 350.123,69.002 378.924 C 78.836 393.682,85.770 402.225,97.384 413.895 C 131.050 447.722,174.939 470.027,222.720 477.593 C 236.691 479.805,275.239 479.817,289.140 477.613 C 387.119 462.080,462.080 387.119,477.613 289.140 C 479.805 275.314,479.805 236.686,477.613 222.860 C 462.665 128.572,392.295 54.878,299.520 36.356 C 293.653 35.185,285.124 33.821,280.567 33.327 C 270.782 32.264,239.708 32.322,229.973 33.420 M274.412 64.907 C 340.766 71.364,398.969 111.809,428.446 171.947 C 474.991 266.905,435.360 381.897,340.053 428.422 C 244.764 474.938,130.349 435.520,83.554 340.053 C 37.052 245.182,76.641 130.143,171.809 83.608 C 203.633 68.046,239.497 61.509,274.412 64.907 M173.394 210.824 C 164.620 215.209,160.526 221.952,160.472 232.107 C 160.436 239.128,162.961 244.834,168.258 249.696 C 183.371 263.570,207.570 252.836,207.740 232.183 C 207.888 214.235,189.479 202.787,173.394 210.824 M319.476 209.550 C 310.551 212.825,304.178 222.305,304.260 232.183 C 304.430 252.836,328.629 263.570,343.742 249.696 C 351.013 243.022,353.489 232.914,350.211 223.292 C 348.614 218.606,343.209 212.716,338.347 210.363 C 333.902 208.212,324.254 207.796,319.476 209.550 M164.998 304.627 C 162.355 305.702,160.427 308.859,160.427 312.111 C 160.427 316.119,164.876 327.145,169.799 335.337 C 184.355 359.555,207.345 375.864,235.520 381.961 C 245.597 384.141,266.403 384.141,276.480 381.961 C 310.451 374.610,337.765 351.527,349.554 320.205 C 352.162 313.278,352.151 309.673,349.514 306.608 L 347.455 304.213 257.141 304.048 C 207.300 303.957,166.007 304.216,164.998 304.627 " stroke="none" fill="black" fill-rule="evenodd"></path></svg>