<svg xmlns="http://www.w3.org/2000/svg" width="512" height="512" viewBox="0 0 512 512"><path d="M235.093 32.977 C 227.567 33.778,211.512 36.892,202.240 39.349 C 136.511 56.764,78.797 106.105,50.750 168.860 C 42.154 188.092,35.488 212.357,33.326 232.286 C 31.986 244.638,32.215 266.592,33.800 277.605 C 37.701 304.721,58.810 370.805,72.573 398.989 C 93.002 440.826,130.281 473.293,164.167 478.759 C 173.802 480.313,187.572 479.430,195.225 476.767 C 203.484 473.894,221.203 463.817,225.772 459.397 C 235.276 450.200,237.706 435.548,231.810 422.980 C 230.669 420.549,210.147 384.192,186.205 342.187 C 155.457 288.242,141.564 264.649,138.897 261.849 C 130.361 252.887,117.418 249.811,105.622 253.942 C 99.752 255.998,82.260 266.941,76.500 272.161 C 70.536 277.566,69.500 278.023,67.190 276.267 C 65.004 274.605,63.678 261.839,64.287 248.320 C 65.812 214.458,76.268 182.863,95.568 153.803 C 135.484 93.699,206.025 58.217,272.336 64.889 C 351.021 72.806,422.387 133.984,442.017 210.347 C 446.177 226.528,447.501 237.006,447.516 253.867 C 447.531 271.392,446.660 276.141,443.272 276.992 C 441.526 277.430,440.211 276.629,435.612 272.327 C 429.961 267.040,412.818 256.264,406.068 253.754 C 403.839 252.926,399.556 252.346,395.389 252.308 C 389.011 252.251,387.896 252.510,381.983 255.433 C 377.892 257.455,374.398 259.935,372.428 262.217 C 369.505 265.603,284.610 413.553,280.218 422.917 C 274.373 435.377,276.586 449.813,285.746 458.973 C 289.899 463.126,308.982 474.053,316.889 476.806 C 324.423 479.429,338.264 480.303,347.833 478.759 C 381.783 473.282,418.959 440.906,439.427 398.989 C 449.551 378.258,467.116 327.185,473.994 298.482 C 478.241 280.755,479.573 270.172,479.573 254.151 C 479.573 232.099,476.580 212.632,470.047 192.196 C 458.494 156.059,440.476 126.993,412.259 98.975 C 378.399 65.353,338.402 44.186,291.910 35.284 C 281.719 33.333,277.796 33.038,259.413 32.839 C 247.915 32.715,236.971 32.777,235.093 32.977 " stroke="none" fill="black" fill-rule="evenodd"></path></svg>