<svg xmlns="http://www.w3.org/2000/svg" width="512" height="512" viewBox="0 0 512 512"><path d="M243.200 48.291 C 189.307 52.936,145.591 72.806,109.198 109.198 C 75.814 142.582,55.864 183.304,49.403 231.253 C 47.996 241.696,47.996 270.304,49.403 280.747 C 55.866 328.705,75.852 369.495,109.198 402.781 C 142.761 436.282,182.341 455.687,231.253 462.621 C 235.243 463.187,246.379 463.649,256.000 463.649 C 284.931 463.649,308.731 459.018,334.933 448.289 C 361.056 437.593,386.578 420.224,405.701 400.129 C 437.387 366.832,455.931 327.939,462.621 280.747 C 463.187 276.757,463.649 265.621,463.649 256.000 C 463.649 227.171,459.011 203.251,448.395 177.325 C 432.022 137.342,403.062 103.108,365.227 79.011 C 343.385 65.100,312.181 53.926,283.992 49.922 C 275.151 48.666,250.352 47.675,243.200 48.291 M219.678 169.390 C 228.417 171.241,238.249 176.490,246.838 183.888 C 250.928 187.411,255.004 190.293,255.897 190.293 C 256.789 190.293,260.921 187.400,265.080 183.864 C 278.689 172.290,291.450 167.584,307.200 168.330 C 321.183 168.993,332.735 174.177,342.965 184.380 C 349.666 191.062,354.214 198.495,357.290 207.787 C 359.280 213.799,359.551 215.987,359.565 226.133 C 359.591 244.659,356.260 257.992,347.194 275.645 C 335.033 299.326,316.028 319.573,282.208 344.878 C 257.934 363.039,255.785 363.500,241.708 353.571 C 180.672 310.519,154.712 274.839,152.177 230.520 C 150.751 205.599,162.796 184.057,184.189 173.271 C 193.696 168.478,207.993 166.915,219.678 169.390 " stroke="none" fill="black" fill-rule="evenodd"></path></svg>