<svg xmlns="http://www.w3.org/2000/svg" width="512" height="512" viewBox="0 0 512 512"><path d="M147.627 64.526 C 105.041 69.728,69.057 98.711,54.717 139.359 C 49.730 153.494,48.330 162.438,48.345 180.053 C 48.362 199.165,50.068 213.006,54.608 230.864 C 69.454 289.265,108.381 342.358,176.640 397.309 C 197.964 414.476,233.918 440.411,242.698 444.960 C 247.332 447.361,248.407 447.569,255.924 447.519 C 266.233 447.450,268.245 446.580,284.843 435.022 C 329.207 404.128,366.432 372.978,390.685 346.455 C 432.483 300.744,455.591 255.514,462.185 206.507 C 464.371 190.257,464.195 166.697,461.804 155.573 C 456.858 132.559,446.362 112.716,430.966 97.276 C 421.505 87.788,413.827 82.118,402.773 76.456 C 387.337 68.550,374.752 65.170,357.547 64.312 C 322.864 62.582,288.738 77.985,262.768 107.093 C 259.418 110.848,256.365 113.920,255.983 113.920 C 255.602 113.920,252.760 111.040,249.669 107.520 C 230.804 86.038,205.847 71.048,180.695 66.092 C 173.857 64.745,153.664 63.789,147.627 64.526 M368.672 97.713 C 397.687 103.817,421.101 126.688,429.380 157.013 C 431.140 163.461,431.358 166.115,431.340 180.907 C 431.325 192.767,430.885 200.159,429.806 206.640 C 420.562 262.189,386.803 312.794,323.766 365.593 C 307.995 378.803,264.664 410.995,257.469 414.847 C 256.017 415.624,255.963 410.808,256.221 304.043 C 256.488 193.517,256.509 192.349,258.317 184.510 C 260.941 173.134,263.295 166.382,268.352 155.733 C 282.301 126.359,310.453 102.755,337.979 97.355 C 344.347 96.106,362.012 96.312,368.672 97.713 " stroke="none" fill="black" fill-rule="evenodd"></path></svg>