<svg xmlns="http://www.w3.org/2000/svg" width="512" height="512" viewBox="0 0 512 512"><path d="M147.627 64.582 C 106.227 68.865,69.023 98.808,54.717 139.359 C 49.730 153.494,48.330 162.438,48.345 180.053 C 48.421 266.448,97.967 341.163,208.586 421.694 C 244.973 448.184,251.033 450.827,265.247 446.402 C 275.409 443.240,323.183 408.516,353.191 382.481 C 410.158 333.058,444.792 282.386,457.722 229.547 C 462.031 211.935,463.615 198.704,463.646 180.053 C 463.676 162.437,462.283 153.533,457.283 139.359 C 442.910 98.618,407.098 69.688,364.961 64.779 C 329.658 60.666,295.629 73.827,266.940 102.691 C 260.888 108.780,257.276 111.787,256.013 111.787 C 254.750 111.787,251.042 108.697,244.784 102.429 C 233.327 90.954,223.423 83.461,211.508 77.254 C 191.635 66.901,168.868 62.385,147.627 64.582 " stroke="none" fill="black" fill-rule="evenodd"></path></svg>