<svg xmlns="http://www.w3.org/2000/svg" width="512" height="512" viewBox="0 0 512 512"><path d="M229.973 33.420 C 181.245 38.921,133.069 62.379,97.555 97.898 C 71.320 124.136,51.231 157.965,41.018 193.099 C 37.824 204.089,34.493 220.688,33.327 231.433 C 32.168 242.102,32.168 269.898,33.327 280.567 C 37.063 314.976,49.811 350.123,69.002 378.924 C 78.836 393.682,85.770 402.225,97.384 413.895 C 131.050 447.722,174.939 470.027,222.720 477.593 C 236.691 479.805,275.239 479.817,289.140 477.613 C 387.119 462.080,462.080 387.119,477.613 289.140 C 479.805 275.314,479.805 236.686,477.613 222.860 C 462.665 128.572,392.295 54.878,299.520 36.356 C 293.653 35.185,285.124 33.821,280.567 33.327 C 270.782 32.264,239.708 32.322,229.973 33.420 M274.728 64.961 C 280.150 65.490,285.173 66.162,285.889 66.455 C 287.045 66.927,286.868 72.337,284.305 114.773 C 282.718 141.056,281.310 162.679,281.175 162.824 C 281.041 162.969,277.775 162.489,273.918 161.757 C 264.802 160.028,247.198 160.028,238.082 161.757 C 234.225 162.489,230.959 162.969,230.825 162.824 C 230.690 162.679,229.281 141.056,227.693 114.773 C 224.806 67.006,224.806 66.986,226.536 66.372 C 232.438 64.274,259.545 63.481,274.728 64.961 M196.409 126.731 L 199.538 177.920 194.702 182.179 C 188.572 187.579,186.502 189.658,181.755 195.182 L 177.920 199.644 167.253 198.858 C 161.387 198.427,138.539 197.030,116.480 195.756 C 94.421 194.481,76.009 193.116,75.565 192.721 C 73.791 191.149,85.944 165.353,94.937 151.600 C 116.122 119.202,145.939 94.294,182.070 78.811 C 186.828 76.773,191.296 75.203,192.000 75.324 C 193.080 75.508,193.769 83.549,196.409 126.731 M328.368 78.158 C 376.367 97.990,414.027 135.674,433.890 183.748 C 435.602 187.893,436.854 191.733,436.671 192.282 C 436.438 192.981,421.040 194.218,385.210 196.416 L 334.080 199.551 330.254 195.136 C 325.434 189.572,322.428 186.566,316.864 181.746 L 312.449 177.920 315.689 126.720 C 317.470 98.560,318.977 75.424,319.037 75.307 C 319.357 74.683,321.662 75.387,328.368 78.158 M268.623 193.348 C 312.864 202.419,334.120 252.971,309.555 290.697 C 287.256 324.941,239.726 329.961,210.883 301.117 C 182.150 272.385,187.051 224.744,221.013 202.635 C 235.453 193.235,252.167 189.975,268.623 193.348 M117.333 227.928 C 142.208 229.396,162.679 230.703,162.824 230.833 C 162.969 230.963,162.489 234.225,161.757 238.082 C 160.028 247.198,160.028 264.802,161.757 273.918 C 162.489 277.775,162.969 281.041,162.824 281.175 C 162.679 281.310,141.056 282.718,114.773 284.305 C 72.337 286.868,66.927 287.045,66.455 285.889 C 65.507 283.570,64.000 265.117,64.000 255.832 C 64.000 247.426,65.168 231.954,66.180 226.948 C 66.555 225.094,67.020 224.812,69.363 225.018 C 70.872 225.151,92.459 226.461,117.333 227.928 M447.039 237.272 C 447.567 242.694,448.000 251.122,448.000 256.000 C 448.000 265.152,446.485 283.597,445.545 285.880 C 445.075 287.024,439.519 286.842,397.227 284.293 C 370.944 282.709,349.321 281.304,349.176 281.172 C 349.031 281.039,349.511 277.775,350.243 273.918 C 351.972 264.802,351.972 247.198,350.243 238.082 C 349.511 234.225,349.031 230.961,349.176 230.828 C 349.321 230.696,370.944 229.291,397.227 227.707 C 439.519 225.158,445.075 224.976,445.545 226.120 C 445.838 226.831,446.510 231.850,447.039 237.272 M182.715 317.846 C 185.240 320.885,190.121 325.772,193.561 328.706 C 199.730 333.968,199.809 334.088,199.363 337.474 C 199.115 339.362,197.655 362.359,196.120 388.579 C 194.163 422.011,193.030 436.366,192.328 436.636 C 190.969 437.157,176.505 430.983,165.547 425.204 C 137.873 410.609,112.603 387.417,94.937 360.400 C 85.943 346.645,73.792 320.853,75.565 319.277 C 76.009 318.882,94.613 317.497,116.907 316.199 C 139.200 314.901,161.280 313.552,165.973 313.201 C 170.667 312.850,175.320 312.508,176.315 312.441 C 177.575 312.357,179.515 313.996,182.715 317.846 M388.267 315.821 C 414.315 317.326,435.971 318.861,436.393 319.234 C 437.383 320.109,432.896 331.465,426.870 343.334 C 408.884 378.758,378.758 408.884,343.334 426.870 C 331.465 432.896,320.109 437.383,319.234 436.393 C 318.861 435.971,317.326 414.315,315.821 388.267 C 314.317 362.219,312.881 339.352,312.632 337.451 C 312.186 334.058,312.278 333.912,317.775 329.345 C 320.853 326.786,325.772 321.879,328.706 318.439 C 333.967 312.271,334.088 312.191,337.474 312.635 C 339.362 312.883,362.219 314.317,388.267 315.821 M238.368 350.293 C 247.145 351.973,264.931 351.948,273.918 350.243 C 277.775 349.511,281.041 349.031,281.175 349.176 C 281.310 349.321,282.718 370.944,284.305 397.227 C 286.868 439.663,287.045 445.073,285.889 445.545 C 283.588 446.486,265.148 448.000,256.000 448.000 C 246.852 448.000,228.412 446.486,226.111 445.545 C 224.955 445.073,225.116 440.053,227.552 400.640 C 229.060 376.235,230.318 354.635,230.347 352.640 C 230.376 350.645,230.688 349.013,231.040 349.013 C 231.392 349.014,234.690 349.590,238.368 350.293 " stroke="none" fill="black" fill-rule="evenodd"></path></svg>