<svg xmlns="http://www.w3.org/2000/svg" width="512" height="512" viewBox="0 0 512 512"><path d="M227.870 32.862 C 158.039 42.210,98.328 81.229,62.847 140.696 C 46.530 168.044,35.637 200.947,32.352 232.808 C 30.899 246.893,31.785 277.534,34.023 290.607 C 42.292 338.918,63.488 380.093,97.697 414.303 C 140.692 457.297,196.207 480.427,256.406 480.427 C 317.732 480.427,373.000 457.445,415.751 414.168 C 431.077 398.652,440.844 385.872,451.321 367.621 C 481.273 315.444,488.693 250.625,471.328 192.853 C 464.751 170.974,455.679 151.628,443.316 133.120 C 433.624 118.611,426.418 109.812,414.303 97.697 C 380.134 63.528,339.090 42.358,290.928 34.061 C 277.141 31.686,241.691 31.012,227.870 32.862 M192.198 77.440 C 193.270 78.656,194.063 88.034,196.478 128.000 C 198.108 154.987,199.297 177.451,199.119 177.920 C 198.942 178.389,196.396 180.878,193.462 183.450 C 190.527 186.022,186.022 190.527,183.450 193.462 C 180.878 196.396,178.387 198.948,177.914 199.132 C 177.442 199.316,165.730 198.769,151.888 197.917 C 138.045 197.064,120.192 195.963,112.213 195.470 C 104.235 194.976,93.397 194.324,88.130 194.020 C 75.982 193.318,75.038 192.616,77.259 185.930 C 79.611 178.849,89.623 159.698,95.782 150.501 C 117.205 118.507,148.094 92.833,181.933 78.894 C 190.160 75.506,190.457 75.464,192.198 77.440 M328.388 78.190 C 362.335 91.572,394.480 118.036,416.218 150.501 C 422.391 159.720,432.391 178.854,434.754 185.970 C 437.340 193.753,440.570 193.082,384.000 196.502 C 357.013 198.133,334.476 199.225,333.916 198.928 C 333.357 198.631,330.861 196.046,328.370 193.184 C 325.878 190.321,321.536 185.974,318.720 183.522 C 315.904 181.071,313.365 178.615,313.077 178.066 C 312.789 177.516,313.892 154.987,315.527 128.000 C 317.940 88.192,318.748 78.652,319.809 77.440 C 321.493 75.519,321.644 75.532,328.388 78.190 M271.787 193.998 C 288.190 198.641,301.645 208.551,310.205 222.293 C 312.251 225.579,315.174 231.915,316.699 236.373 C 319.262 243.864,319.475 245.323,319.497 255.573 C 319.522 267.278,318.422 272.951,314.364 282.027 C 309.613 292.652,300.749 302.998,290.888 309.427 C 280.982 315.886,271.739 318.902,259.396 319.705 C 241.390 320.877,225.407 314.837,211.768 301.705 C 192.477 283.133,186.924 256.591,197.049 231.352 C 201.245 220.893,210.260 209.907,220.285 203.038 C 227.693 197.962,233.300 195.751,247.040 192.485 C 250.226 191.728,267.498 192.784,271.787 193.998 M182.484 317.568 C 185.136 320.454,189.021 324.390,191.116 326.315 C 200.186 334.646,199.791 334.055,199.281 338.528 C 199.025 340.775,197.627 362.965,196.175 387.840 C 193.123 440.108,193.727 437.331,185.970 434.754 C 178.937 432.418,160.021 422.524,150.613 416.259 C 128.663 401.644,110.550 383.554,95.782 361.499 C 89.609 352.280,79.609 333.146,77.246 326.030 C 74.662 318.252,71.588 318.907,126.720 315.498 C 153.003 313.872,175.216 312.493,176.084 312.431 C 177.012 312.366,179.645 314.479,182.484 317.568 M387.840 315.825 C 440.108 318.877,437.331 318.273,434.754 326.030 C 432.388 333.154,422.388 352.286,416.214 361.499 C 401.592 383.322,383.330 401.616,361.813 415.998 C 352.424 422.274,336.819 430.531,327.854 433.967 C 318.011 437.740,318.949 441.335,315.825 387.840 C 314.373 362.965,312.984 340.846,312.740 338.685 L 312.295 334.758 323.526 323.526 L 334.758 312.295 338.685 312.740 C 340.846 312.984,362.965 314.373,387.840 315.825 " stroke="none" fill="black" fill-rule="evenodd"></path></svg>