<svg xmlns="http://www.w3.org/2000/svg" width="512" height="512" viewBox="0 0 512 512"><path d="M237.736 17.584 C 201.650 24.101,170.773 50.110,158.319 84.480 C 157.044 88.000,155.112 95.035,154.025 100.113 C 152.939 105.191,151.396 110.068,150.596 110.952 C 149.797 111.836,147.041 112.995,144.472 113.528 C 114.431 119.765,91.443 141.399,82.729 171.637 C 80.458 179.516,79.605 195.817,80.996 204.746 C 84.149 224.980,95.382 244.325,110.756 255.997 C 117.209 260.896,129.833 267.364,135.823 268.839 C 138.014 269.379,140.702 270.773,141.796 271.937 C 143.756 274.021,143.794 274.411,144.252 297.667 C 144.684 319.581,144.855 321.609,146.625 325.857 C 150.716 335.677,158.612 344.038,167.916 348.402 C 172.841 350.712,174.834 351.141,181.995 351.433 C 188.872 351.714,191.344 351.448,196.075 349.917 C 203.590 347.487,210.210 342.932,215.128 336.808 C 222.956 327.060,224.410 319.533,224.420 288.716 L 224.427 268.952 227.158 266.653 C 230.148 264.138,229.743 264.139,242.773 266.599 C 260.156 269.880,277.104 266.438,291.170 256.772 C 298.465 251.759,300.820 251.822,308.053 257.227 C 322.989 268.386,342.902 273.690,361.226 271.390 C 394.455 267.217,421.008 244.007,429.594 211.627 C 431.589 204.105,432.293 187.715,430.973 179.533 C 425.860 147.833,401.830 121.807,370.773 114.330 C 366.549 113.314,362.392 111.805,361.535 110.979 C 360.564 110.042,359.228 105.976,357.988 100.178 C 353.217 77.870,344.633 61.922,329.068 46.449 C 313.102 30.577,295.274 21.315,273.314 17.486 C 264.256 15.906,246.760 15.955,237.736 17.584 M290.560 293.188 C 284.110 295.871,273.813 298.526,267.158 299.221 C 264.341 299.516,260.891 300.453,259.491 301.304 C 256.642 303.037,256.336 304.207,255.660 315.937 C 255.066 326.269,253.136 333.501,248.316 343.467 C 240.205 360.237,227.926 371.603,210.033 378.901 C 202.984 381.776,199.680 384.629,199.680 387.841 C 199.680 389.534,237.980 479.686,241.833 487.062 C 247.075 497.097,260.259 498.865,267.589 490.517 C 271.216 486.386,344.749 314.875,344.748 310.549 C 344.746 305.863,342.115 303.989,332.889 302.098 C 323.482 300.171,315.752 297.676,307.307 293.843 C 299.844 290.456,297.363 290.359,290.560 293.188 " stroke="none" fill="black" fill-rule="evenodd"></path></svg>