<svg xmlns="http://www.w3.org/2000/svg" width="512" height="512" viewBox="0 0 512 512"><path d="M83.200 65.411 C 57.913 70.794,38.936 89.833,33.149 115.627 C 31.450 123.197,31.450 388.803,33.149 396.373 C 39.001 422.458,58.072 441.388,83.804 446.654 C 89.661 447.853,108.505 448.000,255.889 448.000 C 435.139 448.000,427.721 448.184,439.457 443.444 C 459.603 435.307,473.967 418.144,478.851 396.373 C 480.550 388.803,480.550 123.197,478.851 115.627 C 472.987 89.492,453.376 70.119,427.838 65.232 C 418.024 63.355,92.066 63.523,83.200 65.411 M429.835 99.198 C 435.649 102.263,439.577 105.779,442.737 110.744 C 448.286 119.464,448.029 113.451,447.790 228.818 L 447.573 333.442 424.107 313.820 C 411.200 303.029,398.422 292.740,395.710 290.957 C 381.935 281.897,363.357 280.994,347.982 288.636 C 343.756 290.737,339.383 294.486,327.437 306.252 L 312.261 321.199 267.704 276.794 C 243.197 252.371,221.611 231.224,219.733 229.799 C 208.514 221.287,192.203 217.979,178.739 221.484 C 167.975 224.287,164.458 227.026,114.702 271.360 C 88.628 294.592,66.546 314.132,65.630 314.782 C 63.981 315.953,63.967 315.004,64.196 217.929 L 64.427 119.893 66.669 115.200 C 70.702 106.757,77.336 100.738,86.054 97.612 C 88.593 96.701,120.422 96.526,257.280 96.673 L 425.387 96.853 429.835 99.198 M325.476 129.211 C 308.565 133.067,294.031 147.042,289.779 163.537 C 288.026 170.335,288.031 182.663,289.789 188.645 C 294.548 204.838,307.162 217.452,323.355 222.211 C 328.648 223.767,341.418 224.001,347.307 222.651 C 354.788 220.936,363.370 216.053,369.430 210.065 C 391.511 188.244,387.707 152.483,361.503 135.546 C 351.682 129.199,336.918 126.602,325.476 129.211 M342.869 161.630 C 345.492 163.001,349.200 166.788,350.616 169.544 C 352.018 172.273,351.784 179.779,350.191 183.134 C 345.818 192.352,333.404 194.767,325.776 187.884 C 319.939 182.617,318.486 176.178,321.605 169.387 C 324.347 163.415,329.144 160.440,336.042 160.432 C 338.530 160.429,341.602 160.968,342.869 161.630 M197.592 253.847 C 200.779 255.443,212.581 266.734,245.760 299.933 L 289.707 343.905 253.419 380.166 L 217.132 416.427 157.846 416.400 C 125.239 416.386,95.787 416.014,92.397 415.573 C 79.040 413.838,69.010 405.272,65.328 392.455 C 64.260 388.736,64.009 384.506,64.192 373.268 L 64.427 358.852 123.165 306.636 C 157.202 276.377,183.219 253.873,185.032 253.120 C 189.528 251.254,192.791 251.442,197.592 253.847 M377.173 317.061 C 378.347 317.665,394.763 331.057,413.653 346.821 L 448.000 375.483 448.000 381.720 C 448.000 400.035,436.845 413.334,419.603 415.573 C 416.183 416.018,379.828 416.386,337.923 416.400 L 262.406 416.427 311.469 367.308 C 338.455 340.292,361.301 317.762,362.240 317.240 C 366.548 314.843,372.726 314.769,377.173 317.061 " stroke="none" fill="black" fill-rule="evenodd"></path></svg>