<svg xmlns="http://www.w3.org/2000/svg" width="512" height="512" viewBox="0 0 512 512"><path d="M49.730 33.716 C 25.651 38.948,6.352 59.017,1.322 84.053 C 0.090 90.187,-0.023 104.706,0.210 226.987 C 0.500 379.571,-0.093 365.829,6.825 380.160 C 13.062 393.079,22.544 402.447,36.267 409.246 C 45.727 413.933,52.435 415.388,67.936 416.116 L 79.978 416.681 80.499 423.594 C 81.745 440.108,90.308 455.885,103.899 466.707 C 110.468 471.938,118.093 475.648,127.349 478.118 L 134.400 480.000 295.680 480.000 C 478.253 480.000,462.817 480.595,478.133 472.970 C 484.503 469.799,487.349 467.692,493.312 461.734 C 501.788 453.265,506.598 445.316,509.608 434.808 L 511.573 427.947 511.573 295.680 L 511.573 163.413 509.575 157.013 C 501.477 131.078,481.496 115.002,453.860 112.186 L 448.199 111.609 447.757 98.258 C 447.258 83.182,446.183 78.213,441.175 67.840 C 433.169 51.255,417.728 38.722,399.586 34.082 C 393.283 32.470,388.694 32.428,224.077 32.495 C 85.421 32.550,54.086 32.770,49.730 33.716 M392.592 65.355 C 402.352 68.209,410.287 75.534,413.805 84.937 C 415.259 88.825,415.573 91.624,415.573 100.706 L 415.573 111.748 273.707 111.991 L 131.840 112.234 125.578 114.168 C 104.727 120.606,90.179 134.528,83.036 154.880 L 80.640 161.707 80.408 272.853 L 80.176 384.000 70.110 384.000 C 63.427 384.000,58.485 383.544,55.408 382.645 C 45.648 379.791,37.713 372.466,34.195 363.063 C 32.434 358.354,32.427 357.816,32.427 224.000 C 32.427 91.037,32.444 89.617,34.161 85.028 C 37.683 75.615,44.743 68.820,54.187 65.757 C 59.185 64.135,63.207 64.095,223.632 64.048 C 371.334 64.005,388.426 64.137,392.592 65.355 M462.633 146.900 C 468.505 149.653,473.601 154.595,476.771 160.611 L 479.147 165.120 479.374 266.453 C 479.498 322.187,479.394 367.787,479.141 367.787 C 478.888 367.787,469.062 359.819,457.305 350.080 C 433.283 330.181,428.790 326.911,421.772 324.216 C 414.284 321.342,400.566 320.905,392.823 323.296 C 383.263 326.247,378.080 329.874,363.494 343.819 L 349.737 356.972 335.082 342.524 C 327.021 334.578,306.987 314.816,290.560 298.609 C 258.167 266.648,256.205 265.107,244.392 262.330 C 240.228 261.352,236.136 261.066,230.400 261.354 C 221.420 261.805,215.655 263.592,208.474 268.151 C 206.063 269.681,183.533 289.077,158.407 311.253 C 133.282 333.429,112.505 351.573,112.237 351.573 C 111.969 351.573,111.854 310.197,111.981 259.627 L 112.213 167.680 114.069 163.153 C 117.499 154.787,124.115 148.578,132.987 145.399 C 135.524 144.490,166.156 144.315,296.960 144.461 L 457.813 144.640 462.633 146.900 M361.627 174.552 C 349.439 177.507,336.655 187.716,331.230 198.827 C 328.349 204.729,326.003 214.110,326.003 219.733 C 326.003 231.344,331.216 243.424,339.985 252.133 C 347.056 259.155,352.366 262.226,361.460 264.552 C 369.807 266.687,376.006 266.687,384.354 264.552 C 393.546 262.201,398.812 259.153,405.850 252.112 C 414.637 243.320,419.810 231.321,419.810 219.733 C 419.810 217.856,419.244 213.632,418.551 210.347 C 413.132 184.650,387.210 168.350,361.627 174.552 M376.507 205.691 C 388.958 209.149,391.409 224.625,380.653 231.873 C 376.643 234.576,369.174 234.586,365.218 231.893 C 360.831 228.907,359.015 225.856,358.592 220.762 C 358.011 213.754,361.504 208.484,368.346 206.045 C 372.375 204.608,372.577 204.599,376.507 205.691 M239.057 294.209 C 240.889 295.076,259.636 312.944,284.700 337.713 L 327.233 379.746 293.114 413.873 L 258.995 448.000 199.086 448.000 C 159.203 448.000,137.733 447.690,134.856 447.073 C 128.901 445.796,121.195 440.441,117.459 434.984 C 112.868 428.277,111.696 422.379,111.977 407.381 L 112.213 394.720 168.107 345.332 C 198.848 318.170,225.536 295.222,227.413 294.338 C 231.649 292.343,235.033 292.306,239.057 294.209 M411.471 354.796 C 413.203 355.605,429.234 368.363,447.094 383.147 L 479.568 410.027 479.571 417.035 C 479.575 427.004,477.394 432.408,470.639 439.168 C 466.210 443.601,464.493 444.695,459.594 446.208 C 453.885 447.972,452.609 448.000,379.003 447.969 L 304.213 447.939 350.574 401.820 C 376.193 376.334,398.146 355.174,399.641 354.524 C 403.312 352.927,407.683 353.027,411.471 354.796 " stroke="none" fill="black" fill-rule="evenodd"></path></svg>