<svg xmlns="http://www.w3.org/2000/svg" width="512" height="512" viewBox="0 0 512 512"><path d="M111.360 145.541 C 87.985 149.490,67.240 159.965,50.281 176.381 C 27.972 197.975,16.220 225.446,16.220 256.000 C 16.220 286.554,27.972 314.025,50.281 335.619 C 67.632 352.415,88.086 362.586,112.630 366.625 C 122.485 368.246,142.969 367.741,152.747 365.635 C 180.747 359.604,208.191 343.520,230.929 319.815 C 238.602 311.816,240.210 308.494,239.581 301.947 C 239.110 297.040,235.773 292.257,231.193 289.921 C 227.929 288.257,221.495 287.961,217.944 289.312 C 216.664 289.798,210.948 294.694,205.242 300.192 C 193.343 311.656,184.594 318.188,172.879 324.355 C 155.424 333.545,138.893 337.172,122.248 335.467 C 86.796 331.834,58.410 307.685,50.203 274.177 C 47.634 263.692,47.641 248.282,50.218 237.758 C 58.325 204.651,86.415 180.520,121.433 176.580 C 164.559 171.727,209.083 204.349,243.212 265.806 C 266.675 308.058,298.213 340.119,332.204 356.276 C 376.432 377.299,426.991 369.235,461.719 335.619 C 475.278 322.495,484.421 308.144,490.157 290.987 C 508.059 237.435,482.754 179.488,430.718 154.878 C 414.196 147.064,397.834 143.815,378.453 144.500 C 356.313 145.283,338.734 150.627,317.275 163.099 C 302.076 171.933,277.597 193.365,273.839 201.127 C 270.104 208.843,273.219 218.209,280.807 222.079 C 284.079 223.747,290.507 224.038,294.081 222.679 C 295.375 222.187,300.872 217.475,306.297 212.207 C 318.645 200.217,329.472 192.404,342.613 186.002 C 359.747 177.655,374.440 174.765,390.540 176.577 C 425.628 180.525,453.666 204.623,461.797 237.823 C 464.358 248.279,464.358 263.721,461.797 274.177 C 456.229 296.911,440.527 316.500,419.413 327.053 C 368.084 352.707,310.887 322.002,268.788 246.194 C 237.441 189.746,192.957 152.887,147.225 145.470 C 137.830 143.946,120.596 143.980,111.360 145.541 " stroke="none" fill="black" fill-rule="evenodd"></path></svg>