<svg xmlns="http://www.w3.org/2000/svg" width="512" height="512" viewBox="0 0 512 512"><path d="M118.656 136.607 C 76.435 140.673,39.840 165.367,20.954 202.535 C 4.258 235.395,3.912 274.620,20.028 307.627 C 44.695 358.145,101.250 385.122,156.988 372.957 C 177.751 368.426,197.677 358.666,217.177 343.475 C 224.153 338.041,235.938 325.684,235.275 324.497 C 232.453 319.445,211.919 285.966,211.086 285.060 C 210.116 284.005,208.186 285.559,197.776 295.770 C 184.640 308.657,177.804 313.676,165.393 319.548 C 151.794 325.981,145.953 327.255,130.133 327.237 C 114.056 327.218,109.706 326.275,96.853 320.021 C 78.011 310.853,63.717 293.774,58.269 273.920 C 56.130 266.126,56.130 245.874,58.269 238.080 C 63.717 218.225,78.015 201.143,96.853 191.981 C 108.150 186.487,113.522 185.138,126.356 184.575 C 138.751 184.031,147.123 185.355,157.741 189.538 C 185.397 200.434,213.965 229.384,235.115 267.947 C 254.917 304.053,283.103 335.718,312.190 354.534 C 324.609 362.568,342.114 369.942,356.693 373.280 C 375.959 377.692,400.371 376.373,420.495 369.834 C 430.512 366.579,446.703 358.202,454.966 351.999 C 515.154 306.823,520.651 222.244,466.796 169.997 C 451.109 154.779,429.159 143.173,407.671 138.736 C 391.651 135.429,372.201 135.405,356.660 138.674 C 335.494 143.126,311.920 154.765,292.836 170.184 C 286.525 175.283,276.141 186.454,276.730 187.511 C 279.533 192.537,300.085 226.037,300.925 226.951 C 301.909 228.020,303.661 226.630,313.382 217.066 C 319.603 210.944,327.219 204.157,330.307 201.984 C 338.150 196.463,351.448 189.955,360.533 187.192 C 367.490 185.076,369.499 184.852,381.867 184.812 C 397.940 184.760,402.193 185.676,415.147 191.979 C 429.975 199.194,441.498 210.565,448.459 224.853 C 453.601 235.407,454.960 240.969,455.444 253.440 C 455.790 262.362,455.559 265.363,454.034 271.787 C 450.429 286.978,441.712 300.905,429.430 311.098 C 423.118 316.335,409.507 323.382,401.493 325.562 C 393.505 327.734,376.384 328.193,367.849 326.464 C 335.253 319.859,301.877 289.621,276.885 244.053 C 257.842 209.330,231.134 178.692,203.701 160.099 C 183.643 146.505,162.314 138.572,140.373 136.548 C 130.059 135.596,129.130 135.598,118.656 136.607 " stroke="none" fill="black" fill-rule="evenodd"></path></svg>