<svg xmlns="http://www.w3.org/2000/svg" width="512" height="512" viewBox="0 0 512 512"><path d="M49.799 48.564 C 43.371 50.185,38.123 55.445,35.499 62.898 C 30.060 78.344,31.798 129.167,39.317 174.507 C 55.207 270.324,86.593 347.452,129.140 395.240 C 159.740 429.609,202.307 452.975,248.747 460.894 C 263.679 463.441,288.082 464.007,302.685 462.146 C 340.287 457.353,370.438 442.729,392.547 418.560 C 396.096 414.681,403.241 405.546,404.028 403.884 C 404.072 403.790,407.797 404.651,412.306 405.796 C 427.138 409.562,454.263 414.770,461.797 415.298 C 468.760 415.787,469.424 415.682,473.105 413.525 C 481.662 408.510,483.495 397.060,476.938 389.591 C 473.683 385.884,469.797 384.490,456.533 382.274 C 446.548 380.605,432.828 377.820,422.703 375.408 L 418.312 374.361 419.961 369.581 C 429.040 343.265,430.169 308.723,422.890 280.003 C 416.531 254.914,403.272 228.613,386.497 207.814 C 360.787 175.938,323.318 149.429,284.160 135.414 C 265.159 128.613,247.693 124.637,202.667 116.863 C 160.410 109.568,139.789 103.604,117.830 92.330 C 101.184 83.783,88.456 74.523,73.181 59.847 C 68.366 55.221,63.219 50.818,61.743 50.063 C 58.354 48.328,53.268 47.690,49.799 48.564 M71.880 101.008 C 104.227 125.932,135.870 137.782,199.680 148.870 C 254.840 158.455,271.087 162.888,295.657 175.057 C 345.641 199.813,382.893 244.989,393.097 293.224 C 395.149 302.923,395.422 306.066,395.420 320.000 C 395.418 333.013,395.090 337.304,393.555 344.423 C 391.078 355.908,388.412 364.371,387.114 364.869 C 385.830 365.362,367.015 358.988,352.427 353.119 C 339.708 348.003,312.189 334.774,299.093 327.482 C 263.336 307.570,225.690 279.767,190.362 247.178 C 181.352 238.866,178.477 237.218,173.041 237.245 C 162.147 237.301,154.489 247.899,157.892 258.209 C 159.105 261.885,162.339 265.218,179.627 280.607 C 235.586 330.420,294.090 366.119,357.994 389.445 C 364.577 391.848,370.091 394.143,370.250 394.546 C 370.648 395.559,362.376 403.946,356.693 408.291 C 324.865 432.627,275.081 438.277,228.253 422.868 C 186.867 409.250,155.100 383.223,129.256 341.760 C 98.312 292.114,74.120 212.094,66.179 133.120 C 64.683 118.239,63.542 95.573,64.290 95.573 C 64.585 95.573,68.000 98.019,71.880 101.008 " stroke="none" fill="black" fill-rule="evenodd"></path></svg>