<svg xmlns="http://www.w3.org/2000/svg" width="512" height="512" viewBox="0 0 512 512"><path d="M239.086 17.499 C 219.158 21.110,200.509 31.279,186.345 46.258 C 173.894 59.427,165.987 74.439,161.944 92.587 C 160.383 99.592,160.196 104.294,159.809 146.133 L 159.384 192.000 124.450 192.000 C 86.703 192.000,87.199 191.944,82.773 196.681 L 80.640 198.964 80.388 342.895 C 80.152 477.508,80.231 487.008,81.600 489.620 C 82.405 491.157,84.292 493.173,85.793 494.100 C 88.486 495.765,90.678 495.787,256.000 495.787 C 422.426 495.787,423.496 495.776,426.262 494.067 C 432.244 490.369,431.826 502.274,431.581 342.751 L 431.360 198.964 429.227 196.681 C 424.575 191.703,432.129 192.000,310.182 192.000 L 197.878 192.000 198.174 146.133 C 198.505 94.754,198.215 97.362,205.068 84.053 C 210.137 74.210,219.817 64.655,229.557 59.879 C 239.088 55.207,246.045 53.530,256.000 53.506 C 278.132 53.453,297.916 65.686,307.475 85.333 C 311.248 93.089,314.027 103.207,314.027 109.191 L 314.027 111.787 332.924 111.787 L 351.822 111.787 351.316 103.467 C 351.026 98.691,349.869 91.706,348.600 87.070 C 338.719 50.985,309.004 23.858,272.353 17.467 C 263.622 15.945,247.581 15.960,239.086 17.499 " stroke="none" fill="black" fill-rule="evenodd"></path></svg>