<svg xmlns="http://www.w3.org/2000/svg" width="512" height="512" viewBox="0 0 512 512"><path d="M89.738 81.937 C 70.420 87.029,55.446 102.057,49.782 122.041 C 48.291 127.300,48.213 133.929,48.213 256.000 C 48.213 378.071,48.291 384.700,49.782 389.959 C 55.496 410.119,70.531 425.094,90.075 430.092 C 96.471 431.728,99.703 431.787,183.893 431.787 C 267.881 431.787,271.329 431.725,277.667 430.104 C 293.222 426.126,306.908 415.124,313.789 401.067 C 319.233 389.946,320.001 384.542,319.995 357.369 C 319.993 344.318,319.611 332.716,319.128 330.976 C 317.833 326.313,311.798 321.135,306.779 320.383 C 299.455 319.285,292.803 322.686,289.606 329.163 C 288.204 332.005,287.972 335.308,287.584 357.973 C 287.171 382.143,287.044 383.764,285.301 386.987 C 282.978 391.284,278.863 395.185,273.920 397.775 L 270.080 399.787 184.320 399.787 L 98.560 399.787 93.675 397.388 C 90.989 396.069,87.458 393.432,85.828 391.529 C 79.830 384.521,80.213 393.769,80.213 256.000 C 80.213 118.231,79.830 127.479,85.828 120.471 C 87.458 118.568,90.989 115.931,93.675 114.612 L 98.560 112.213 177.915 111.983 C 231.045 111.828,258.699 112.049,261.597 112.650 C 267.893 113.958,275.820 117.970,280.344 122.140 C 287.212 128.470,287.092 127.920,287.582 155.307 C 287.966 176.737,288.206 180.008,289.604 182.837 C 292.806 189.316,299.456 192.715,306.779 191.617 C 311.798 190.865,317.833 185.687,319.128 181.024 C 320.300 176.804,320.253 132.725,319.070 126.975 C 315.775 110.958,302.041 95.134,284.084 86.664 C 270.531 80.271,277.294 80.680,181.760 80.473 C 99.376 80.294,95.754 80.352,89.738 81.937 M361.387 161.420 C 358.668 162.920,354.938 166.629,353.630 169.131 C 352.211 171.848,352.049 178.938,353.329 182.344 C 353.826 183.666,366.586 197.131,381.685 212.267 L 409.138 239.787 291.736 239.787 C 205.332 239.787,173.569 240.046,171.434 240.771 C 164.281 243.197,160.427 248.530,160.427 256.000 C 160.427 263.470,164.281 268.803,171.434 271.229 C 173.569 271.954,205.332 272.213,291.736 272.213 L 409.138 272.213 381.685 299.733 C 366.586 314.869,353.826 328.334,353.329 329.656 C 352.049 333.062,352.211 340.152,353.630 342.869 C 355.001 345.492,358.788 349.200,361.544 350.616 C 364.204 351.982,371.747 351.799,374.925 350.291 C 376.412 349.585,396.694 329.905,419.996 306.557 C 463.531 262.937,464.204 262.168,464.204 256.000 C 464.204 249.832,463.531 249.063,419.996 205.443 C 396.694 182.095,376.412 162.415,374.925 161.709 C 371.787 160.220,363.868 160.051,361.387 161.420 " stroke="none" fill="black" fill-rule="evenodd"></path></svg>