<svg xmlns="http://www.w3.org/2000/svg" width="512" height="512" viewBox="0 0 512 512"><path d="M237.005 17.513 C 209.175 22.759,191.452 38.204,184.151 63.573 C 182.315 69.954,182.197 71.765,182.345 91.307 C 182.432 102.805,182.908 117.781,183.403 124.587 C 184.760 143.244,184.562 169.105,183.012 175.680 C 180.827 184.951,175.049 194.727,165.046 206.080 C 138.860 235.799,136.647 239.196,128.355 262.400 C 123.286 276.586,120.347 282.357,111.012 296.461 C 99.651 313.626,97.088 321.944,98.898 335.782 C 99.857 343.112,99.811 343.740,98.013 347.759 C 96.571 350.984,96.000 354.287,95.631 361.546 C 95.171 370.622,95.024 371.220,92.662 373.683 C 89.222 377.271,84.305 378.673,70.234 380.078 C 57.149 381.385,54.197 382.438,51.681 386.697 C 49.087 391.089,49.670 397.397,54.153 413.440 C 57.242 424.495,57.043 427.354,52.569 436.177 C 43.115 454.823,48.049 464.632,69.621 470.077 C 73.335 471.014,84.437 473.196,94.293 474.926 C 115.445 478.639,128.293 482.024,145.611 488.446 C 163.431 495.056,167.893 496.082,176.648 495.584 C 187.957 494.941,196.638 490.734,211.979 478.463 C 215.370 475.750,219.541 473.260,221.792 472.605 C 224.835 471.720,233.304 471.522,259.840 471.716 C 293.112 471.960,306.464 472.726,310.105 474.602 C 311.088 475.109,315.194 478.729,319.228 482.646 C 330.419 493.515,337.988 496.320,354.117 495.575 C 368.749 494.900,375.100 491.855,392.960 476.959 C 405.360 466.617,413.286 461.500,429.227 453.546 C 458.219 439.080,465.607 432.738,463.774 423.890 C 462.451 417.508,457.031 412.604,441.500 403.738 C 434.944 399.995,430.595 395.680,428.625 390.965 C 427.578 388.461,427.546 386.843,428.418 380.696 C 429.797 370.984,429.798 361.056,428.421 358.400 C 426.842 355.354,422.280 350.720,420.861 350.720 C 420.099 350.720,419.853 350.210,420.191 349.330 C 424.161 338.984,422.641 321.853,415.053 291.413 C 406.410 256.741,398.654 242.698,366.505 203.520 C 352.104 185.970,348.742 181.343,344.257 172.896 C 337.372 159.930,336.118 152.462,333.642 109.653 C 331.868 78.993,330.629 70.312,326.458 59.327 C 322.564 49.070,318.438 42.641,311.021 35.273 C 305.287 29.577,302.546 27.597,296.004 24.422 C 283.865 18.533,276.353 16.960,258.560 16.582 C 247.858 16.354,241.750 16.618,237.005 17.513 M279.817 84.963 C 289.596 87.867,294.848 96.753,294.680 110.111 C 294.582 117.972,291.958 126.544,289.108 128.316 C 286.602 129.875,286.425 128.251,288.424 122.034 C 289.869 117.542,290.221 114.998,289.811 112.009 C 287.982 98.668,272.458 92.830,262.369 101.688 C 256.305 107.013,253.786 121.920,257.920 128.021 C 260.430 131.725,268.140 135.609,279.704 138.994 C 294.676 143.376,295.789 144.963,292.749 157.576 C 289.450 171.259,291.129 179.467,299.729 191.715 C 305.888 200.487,308.345 205.466,313.242 219.104 C 316.107 227.086,318.621 232.353,321.770 236.974 C 330.362 249.582,334.951 262.772,337.494 282.165 C 338.934 293.153,339.177 313.638,337.954 321.100 C 337.103 326.297,337.376 328.142,339.093 328.801 C 339.665 329.020,345.104 327.929,351.179 326.376 C 359.467 324.256,362.521 323.103,363.415 321.757 C 365.908 318.003,366.907 310.317,366.915 294.827 C 366.923 280.857,366.516 275.734,364.721 267.192 C 364.256 264.980,364.380 264.393,365.248 264.683 C 366.642 265.147,369.887 274.563,371.815 283.733 C 373.649 292.463,373.834 312.503,372.140 319.108 C 371.030 323.434,371.056 323.826,372.507 324.655 C 373.365 325.145,375.438 326.827,377.114 328.392 L 380.160 331.237 377.173 330.688 C 367.145 328.844,364.882 328.684,360.012 329.468 C 348.959 331.248,341.645 337.242,340.032 345.843 C 339.519 348.574,339.117 349.013,337.127 349.013 C 335.856 349.013,332.869 349.592,330.490 350.298 C 325.367 351.820,320.584 356.585,319.208 361.540 C 317.804 366.597,318.176 379.209,320.035 389.547 C 323.309 407.755,324.395 417.537,323.824 423.680 C 323.251 429.849,318.837 442.880,317.320 442.880 C 316.854 442.880,316.704 442.149,316.987 441.256 C 319.034 434.806,319.650 423.822,318.248 418.773 C 316.908 413.946,314.233 414.383,307.274 420.567 C 294.363 432.039,285.321 437.699,272.640 442.249 C 262.981 445.714,253.036 447.465,242.773 447.508 C 231.746 447.554,225.995 446.101,219.251 441.563 C 215.534 439.061,214.557 438.730,213.631 439.657 C 212.753 440.535,212.712 441.516,213.443 444.162 C 214.469 447.878,213.967 454.608,212.454 457.435 C 211.125 459.919,210.795 459.303,209.846 452.571 C 209.241 448.282,207.652 443.885,203.894 436.104 C 199.270 426.530,198.911 425.407,200.242 424.662 C 201.054 424.208,203.350 422.332,205.345 420.493 C 212.147 414.223,213.464 403.761,208.649 394.257 C 204.071 385.224,197.385 379.478,163.413 355.384 C 153.557 348.394,143.880 341.189,141.909 339.374 C 137.444 335.264,134.931 330.174,133.939 323.233 C 133.246 318.384,133.697 308.345,134.568 309.217 C 134.763 309.412,135.705 312.888,136.660 316.940 C 138.908 326.476,142.170 331.404,148.493 334.814 C 153.934 337.749,156.998 337.519,158.574 334.059 C 159.244 332.590,159.554 326.016,159.511 314.198 C 159.444 295.428,160.002 290.139,163.461 276.772 C 167.481 261.233,171.805 252.829,184.994 234.921 C 198.893 216.048,201.072 209.774,200.124 191.360 C 199.755 184.172,199.846 180.053,200.376 180.053 C 200.835 180.053,202.982 182.897,205.148 186.372 C 210.744 195.351,216.040 200.915,221.555 203.614 C 225.969 205.773,226.610 205.866,231.210 205.010 C 241.713 203.057,256.446 195.388,271.055 184.269 C 280.165 177.334,285.013 172.262,285.013 169.665 C 285.013 167.303,282.670 164.693,280.550 164.693 C 279.648 164.693,271.164 168.098,261.695 172.259 C 246.179 179.078,235.080 183.230,228.473 184.690 C 227.103 184.992,225.141 184.701,223.779 183.993 C 221.057 182.576,217.099 178.563,217.766 177.896 C 218.018 177.644,219.999 177.913,222.168 178.493 C 225.667 179.429,226.859 179.331,232.736 177.621 C 238.553 175.928,251.669 170.859,269.653 163.354 C 272.704 162.080,277.682 160.329,280.715 159.461 C 283.748 158.593,286.891 157.208,287.701 156.382 C 291.845 152.152,289.308 145.920,283.442 145.920 C 281.009 145.920,279.324 146.717,276.063 149.412 C 270.941 153.644,267.922 155.225,257.521 159.122 C 238.859 166.112,228.059 168.317,221.366 166.502 C 213.920 164.482,199.568 153.012,198.334 148.095 C 197.642 145.336,199.102 143.564,205.866 138.958 C 208.564 137.121,214.287 132.522,218.585 128.738 L 226.398 121.858 232.879 122.158 C 237.855 122.388,240.507 123.020,244.299 124.881 C 250.667 128.005,252.128 127.534,251.168 122.665 C 250.775 120.671,250.453 115.392,250.453 110.933 C 250.453 98.975,253.777 91.975,261.646 87.364 C 268.205 83.519,272.877 82.902,279.817 84.963 M216.163 89.704 C 222.073 92.741,225.997 100.694,224.782 107.173 L 224.189 110.332 222.600 107.006 C 220.609 102.841,217.611 100.159,213.759 99.095 C 210.158 98.101,205.685 99.154,203.567 101.495 C 201.540 103.735,199.763 108.979,199.717 112.853 C 199.697 114.613,199.342 116.053,198.928 116.053 C 198.015 116.053,196.267 109.430,196.267 105.969 C 196.267 102.791,198.292 97.014,200.488 93.930 C 203.680 89.448,211.539 87.329,216.163 89.704 M126.579 353.661 C 134.136 356.768,137.997 359.840,144.336 367.787 C 149.704 374.516,182.528 428.259,188.403 439.938 C 194.505 452.069,195.425 464.083,190.788 471.091 C 187.242 476.449,182.449 478.308,172.373 478.233 C 163.392 478.167,158.752 477.112,137.196 470.239 C 118.667 464.331,109.895 462.212,87.444 458.217 C 76.771 456.319,67.322 454.381,66.446 453.912 C 64.250 452.737,64.402 451.488,67.987 441.203 C 72.304 428.821,72.784 420.201,69.710 410.251 C 64.786 394.308,64.874 394.161,79.879 393.389 C 88.981 392.920,91.543 392.482,94.720 390.848 C 105.720 385.192,107.826 381.637,109.569 365.780 C 110.283 359.280,111.313 353.424,111.858 352.767 C 113.429 350.874,120.905 351.328,126.579 353.661 M412.637 363.878 C 414.775 365.442,414.649 369.990,412.200 379.577 C 410.692 385.484,410.531 387.445,411.238 391.275 C 413.090 401.291,417.758 406.655,433.862 417.276 C 440.888 421.909,444.587 424.869,444.587 425.858 C 444.587 428.581,439.297 431.946,421.120 440.785 C 403.336 449.433,398.373 452.544,380.185 466.439 C 367.830 475.878,363.179 478.071,354.560 478.523 C 348.336 478.849,347.326 478.666,343.123 476.453 C 339.966 474.789,337.585 472.681,335.565 469.759 C 332.912 465.920,332.662 465.067,333.064 461.227 C 333.310 458.880,334.672 452.849,336.090 447.825 C 341.568 428.420,341.694 417.412,336.742 390.990 C 332.312 367.359,332.619 364.370,339.474 364.377 C 342.377 364.379,342.729 364.660,344.147 368.110 C 346.536 373.920,351.008 378.495,357.351 381.617 C 362.922 384.360,363.323 384.427,374.213 384.427 L 385.369 384.427 391.871 381.213 C 398.787 377.795,404.860 372.026,407.979 365.911 C 409.816 362.312,410.241 362.126,412.637 363.878 " stroke="none" fill="black" fill-rule="evenodd"></path></svg>