<svg xmlns="http://www.w3.org/2000/svg" width="512" height="512" viewBox="0 0 512 512"><path d="M342.145 43.133 C 329.747 45.379,313.410 52.245,298.585 61.439 C 287.112 68.555,279.023 74.843,259.805 91.584 L 256.058 94.849 248.989 88.577 C 228.510 70.408,209.866 58.044,191.168 50.234 C 169.259 41.082,149.129 40.247,135.693 47.932 C 126.586 53.142,118.759 63.606,114.262 76.584 C 107.625 95.735,107.496 130.215,113.942 161.707 C 115.095 167.339,116.255 172.722,116.520 173.669 C 116.949 175.202,116.033 175.706,108.208 178.242 C 50.129 197.060,16.213 225.650,16.213 255.791 C 16.213 271.653,26.725 288.624,45.653 303.320 C 61.585 315.690,80.339 325.312,104.906 333.721 C 110.333 335.579,115.223 337.260,115.773 337.457 C 116.520 337.724,116.460 339.011,115.535 342.551 C 114.855 345.156,113.309 352.956,112.099 359.884 C 109.424 375.210,108.353 404.029,110.027 415.700 C 114.765 448.751,128.963 466.661,152.521 469.303 C 178.496 472.216,211.876 457.021,247.717 425.969 L 256.927 417.989 262.534 422.968 C 293.166 450.163,318.685 464.732,343.114 468.973 C 355.822 471.179,367.187 469.434,376.800 463.801 C 382.182 460.646,390.234 451.357,393.662 444.346 C 401.073 429.194,403.155 417.948,403.178 392.960 C 403.196 373.582,402.619 367.642,398.846 348.387 C 397.721 342.646,396.800 337.589,396.800 337.151 C 396.800 336.713,400.544 335.108,405.120 333.586 C 439.058 322.295,467.576 305.477,482.204 288.126 C 497.627 269.833,499.895 251.127,488.950 232.484 C 487.313 229.695,482.133 223.573,477.440 218.880 C 461.558 202.998,440.412 191.089,408.992 180.329 C 398.422 176.709,395.120 175.242,395.472 174.324 C 396.256 172.282,399.185 157.105,400.626 147.627 C 402.541 135.025,403.215 111.679,401.988 100.424 C 399.727 79.671,393.747 64.398,384.026 54.547 C 373.169 43.545,359.875 39.922,342.145 43.133 M360.856 63.621 C 363.352 64.363,366.758 66.241,368.564 67.873 C 379.998 78.203,384.807 105.831,380.959 139.093 C 379.784 149.244,376.064 169.501,375.218 170.346 C 375.048 170.516,371.465 169.904,367.256 168.985 C 356.032 166.536,335.714 163.242,322.643 161.753 C 316.352 161.036,311.141 160.349,311.061 160.225 C 306.298 152.803,287.167 128.691,273.332 112.673 L 270.611 109.523 279.206 101.908 C 311.566 73.239,343.236 58.389,360.856 63.621 M170.656 64.851 C 178.056 66.740,189.074 71.238,196.263 75.305 C 208.670 82.324,225.998 95.082,236.873 105.204 L 241.796 109.786 234.693 117.826 C 225.450 128.290,216.008 139.987,208.226 150.613 C 204.789 155.307,201.748 159.412,201.469 159.735 C 201.189 160.059,194.432 161.122,186.453 162.097 C 171.861 163.880,151.402 167.250,142.296 169.372 C 139.541 170.014,137.188 170.182,136.925 169.757 C 136.037 168.319,132.321 148.875,131.016 138.836 C 129.345 125.986,129.332 105.180,130.987 94.973 C 133.780 77.753,140.458 66.865,149.985 63.996 C 154.240 62.715,163.848 63.112,170.656 64.851 M264.649 133.973 C 270.094 140.322,282.524 155.801,283.493 157.440 C 283.825 158.002,274.443 158.293,256.033 158.293 L 228.069 158.293 231.994 153.173 C 237.712 145.716,248.847 132.404,252.878 128.207 C 256.889 124.032,255.567 123.385,264.649 133.973 M293.620 179.727 L 300.094 180.280 308.287 193.180 C 317.799 208.156,329.069 227.659,337.706 244.088 L 343.780 255.643 336.312 270.115 C 327.285 287.608,320.884 298.801,309.173 317.580 L 300.304 331.799 292.872 332.496 C 283.466 333.378,223.944 333.366,217.363 332.481 L 212.432 331.818 206.629 323.136 C 195.560 306.574,181.550 282.284,172.666 264.252 L 168.533 255.864 175.360 242.589 C 183.919 225.945,196.014 205.078,205.301 190.933 C 211.961 180.788,212.633 180.047,215.235 179.956 C 216.771 179.903,223.019 179.554,229.120 179.181 C 240.980 178.457,282.894 178.812,293.620 179.727 M181.544 190.001 C 176.569 197.811,164.696 218.447,161.404 225.005 C 159.949 227.904,158.439 230.473,158.048 230.714 C 156.974 231.379,141.823 191.546,142.785 190.584 C 144.144 189.225,184.574 182.468,185.005 183.528 C 185.147 183.877,183.589 186.790,181.544 190.001 M358.330 188.161 C 364.159 189.335,369.094 190.463,369.298 190.667 C 370.060 191.429,355.581 231.253,354.542 231.253 C 354.363 231.253,352.790 228.661,351.047 225.493 C 344.996 214.499,334.156 195.809,330.501 190.071 C 328.480 186.898,326.827 183.978,326.827 183.581 C 326.827 182.735,343.245 185.121,358.330 188.161 M124.519 201.600 C 127.793 211.860,136.034 233.555,141.081 245.202 L 145.830 256.163 139.585 270.802 C 133.151 285.885,122.880 313.806,122.880 316.215 C 122.880 318.034,120.235 317.439,106.667 312.570 C 92.753 307.577,75.848 299.328,65.707 292.584 C 55.332 285.684,43.083 273.517,39.734 266.782 C 34.865 256.994,35.963 248.879,43.516 238.826 C 52.134 227.355,70.762 214.916,93.867 205.206 C 98.685 203.180,120.763 195.542,122.072 195.447 C 122.332 195.429,123.433 198.197,124.519 201.600 M403.308 200.030 C 445.588 214.512,475.303 237.285,475.306 255.208 C 475.309 270.333,458.249 287.214,427.947 302.071 C 416.807 307.533,396.412 315.511,392.436 315.962 C 390.924 316.133,390.176 314.715,386.915 305.493 C 382.387 292.691,375.985 276.749,370.464 264.533 L 366.415 255.573 370.982 245.387 C 375.590 235.105,385.116 210.233,387.916 201.173 C 388.980 197.727,389.862 196.267,390.877 196.267 C 391.672 196.267,397.266 197.960,403.308 200.030 M249.173 213.052 C 244.788 213.749,236.653 217.066,232.331 219.920 C 209.438 235.037,206.733 268.353,226.897 286.861 C 248.471 306.663,282.329 300.098,294.875 273.681 C 302.777 257.041,298.986 237.225,285.485 224.596 C 275.370 215.134,262.271 210.969,249.173 213.052 M364.544 304.110 C 367.340 311.563,369.694 318.641,369.774 319.839 C 369.913 321.909,369.557 322.094,362.667 323.528 C 355.593 325.000,328.924 329.387,327.046 329.387 C 326.528 329.387,329.685 323.458,334.062 316.212 C 338.439 308.966,344.841 297.795,348.290 291.388 L 354.560 279.740 357.009 285.150 C 358.356 288.125,361.747 296.658,364.544 304.110 M164.936 293.594 C 170.570 303.889,180.409 320.559,184.677 327.040 L 186.223 329.387 183.778 329.382 C 176.864 329.367,143.307 323.415,142.808 322.114 C 142.061 320.169,156.958 280.340,158.024 281.430 C 158.345 281.758,161.455 287.232,164.936 293.594 M379.227 355.074 C 383.333 377.327,384.224 396.813,381.855 412.587 C 379.713 426.850,376.116 436.096,370.219 442.493 C 365.686 447.411,360.656 449.305,352.427 449.194 C 332.736 448.928,305.477 434.008,275.665 407.180 L 271.011 402.992 276.599 396.696 C 284.061 388.290,297.673 371.056,305.188 360.500 L 311.283 351.939 329.935 349.596 C 340.193 348.307,354.731 346.017,362.240 344.506 C 371.850 342.573,376.075 342.039,376.505 342.701 C 376.842 343.218,378.067 348.786,379.227 355.074 M167.737 348.108 C 174.276 349.065,184.505 350.306,190.467 350.865 L 201.308 351.880 205.972 358.395 C 212.677 367.761,226.382 384.773,235.136 394.598 L 242.678 403.063 238.032 407.230 C 216.864 426.219,195.665 439.727,177.493 445.807 C 168.054 448.965,154.696 449.830,148.993 447.652 C 138.220 443.537,131.328 428.883,129.838 406.920 C 128.693 390.047,130.692 368.471,135.262 348.379 L 136.605 342.472 146.226 344.419 C 151.518 345.490,161.198 347.150,167.737 348.108 M277.936 362.667 C 269.192 374.055,257.786 387.413,256.806 387.413 C 255.449 387.413,228.692 355.744,228.694 354.139 C 228.694 353.901,241.321 353.707,256.754 353.707 L 284.814 353.707 277.936 362.667 " stroke="none" fill="black" fill-rule="evenodd"></path></svg>