<svg xmlns="http://www.w3.org/2000/svg" width="512" height="512" viewBox="0 0 512 512"><path d="M83.627 82.802 C 67.435 84.109,47.659 85.606,39.680 86.130 C 16.920 87.622,11.837 88.951,6.282 94.859 C 2.481 98.902,0.733 102.801,0.228 108.360 C -0.376 115.023,1.299 120.250,10.213 139.520 C 16.999 154.189,98.577 326.756,103.981 337.874 C 107.067 344.221,113.468 350.397,120.267 353.587 C 125.004 355.809,127.115 356.264,133.973 356.542 C 142.023 356.869,142.403 356.790,188.050 345.262 C 213.333 338.877,234.321 333.653,234.690 333.653 C 235.058 333.653,243.835 348.437,254.194 366.505 C 279.396 410.467,282.799 415.895,289.280 422.473 C 298.314 431.643,307.632 433.835,321.759 430.116 C 331.768 427.481,366.856 415.504,433.920 391.832 C 488.026 372.733,490.335 371.817,495.702 367.300 C 502.293 361.754,504.168 351.353,499.939 343.788 C 498.770 341.695,487.769 326.751,475.493 310.578 C 463.217 294.406,453.215 280.789,453.265 280.320 C 453.315 279.851,463.056 276.901,474.913 273.764 C 486.769 270.628,498.389 267.089,500.735 265.900 C 510.963 260.718,514.691 250.237,509.653 240.831 C 508.363 238.421,501.547 229.588,494.507 221.201 C 487.467 212.814,474.131 196.765,464.871 185.536 C 455.611 174.307,446.366 163.879,444.327 162.361 C 439.162 158.520,434.007 156.799,427.520 156.751 C 421.889 156.710,359.825 166.268,350.111 168.673 C 338.697 171.499,332.310 178.544,332.445 188.160 C 332.492 191.540,333.114 194.440,334.275 196.693 C 335.242 198.571,343.913 211.051,353.542 224.427 C 363.172 237.803,370.972 248.827,370.875 248.926 C 370.447 249.362,260.706 274.776,260.129 274.573 C 259.774 274.449,234.985 234.219,205.042 185.173 C 175.099 136.128,149.321 94.154,147.759 91.898 C 144.239 86.816,139.279 83.148,133.679 81.485 C 127.807 79.741,118.512 79.986,83.627 82.802 M160.124 206.318 C 186.474 250.774,207.924 287.265,207.790 287.409 C 207.429 287.797,149.985 301.227,148.685 301.227 C 147.468 301.227,61.959 130.610,62.770 129.799 C 63.259 129.310,102.130 125.743,108.800 125.575 L 112.213 125.490 160.124 206.318 M434.100 216.706 C 440.335 224.427,445.149 230.998,444.798 231.307 C 444.447 231.616,438.672 233.225,431.966 234.882 L 419.771 237.895 408.072 222.518 C 401.638 214.060,396.457 206.902,396.559 206.610 C 396.833 205.826,416.372 202.413,419.809 202.549 C 422.558 202.658,423.554 203.645,434.100 216.706 M418.993 312.645 C 427.907 324.557,435.200 334.655,435.200 335.086 C 435.200 335.516,409.230 344.426,377.488 354.885 C 329.924 370.558,319.591 373.702,318.725 372.764 C 318.148 372.139,310.728 360.013,302.237 345.820 L 286.800 320.013 289.107 319.440 C 290.375 319.126,315.797 312.624,345.600 304.992 C 375.403 297.360,400.462 291.087,401.287 291.051 C 402.287 291.008,408.189 298.207,418.993 312.645 " stroke="none" fill="black" fill-rule="evenodd"></path></svg>