<svg xmlns="http://www.w3.org/2000/svg" width="512" height="512" viewBox="0 0 512 512"><path d="M230.827 33.373 C 196.634 37.557,161.887 49.888,136.107 66.989 C 131.335 70.154,130.648 70.857,132.693 70.484 C 139.616 69.221,153.934 68.951,161.783 69.936 C 189.032 73.355,215.125 85.112,245.789 107.787 L 255.959 115.308 262.593 110.282 C 290.291 89.296,315.425 76.716,339.965 71.555 C 349.158 69.621,366.906 68.960,376.747 70.183 L 381.867 70.820 374.613 66.096 C 365.789 60.347,344.421 49.737,334.450 46.152 C 317.228 39.960,300.115 35.804,283.332 33.737 C 271.759 32.312,241.230 32.101,230.827 33.373 M99.114 96.285 C 61.763 132.923,38.595 181.207,33.203 233.651 C 31.724 248.036,32.644 279.326,34.925 292.267 C 40.894 326.114,53.306 356.767,71.983 383.787 C 74.335 387.189,76.515 389.973,76.826 389.973 C 77.138 389.973,77.633 385.845,77.928 380.800 C 79.772 349.172,93.506 305.676,112.246 272.109 C 130.130 240.073,161.801 198.893,193.538 166.410 L 204.704 154.981 193.016 143.411 C 179.401 129.931,163.361 116.793,148.907 107.279 C 138.559 100.468,117.458 89.585,111.583 88.028 L 108.393 87.183 99.114 96.285 M398.933 88.752 C 375.565 96.810,343.727 118.797,317.533 144.967 L 306.956 155.534 311.558 159.582 C 322.217 168.959,350.628 201.393,365.778 221.479 C 389.090 252.387,402.115 273.866,412.845 299.093 C 424.924 327.495,432.718 357.950,434.247 382.720 L 434.773 391.253 442.181 380.160 C 462.591 349.593,475.076 315.182,478.785 279.269 C 480.083 266.707,479.359 233.666,477.538 222.293 C 471.970 187.528,458.517 154.439,438.333 125.867 C 430.451 114.709,417.366 99.792,408.904 92.319 L 403.200 87.280 398.933 88.752 M242.720 208.455 C 218.289 226.707,201.586 241.342,179.581 263.777 C 143.424 300.640,114.803 341.832,98.122 381.013 C 93.859 391.026,89.600 403.030,89.600 405.031 C 89.600 405.805,93.650 410.402,98.600 415.245 C 132.490 448.404,172.847 468.880,220.670 477.182 C 230.268 478.848,234.744 479.096,255.573 479.116 C 274.616 479.135,281.424 478.826,289.107 477.593 C 337.225 469.873,379.948 448.381,413.736 414.897 C 423.932 404.792,423.578 406.441,418.489 392.789 C 397.501 336.480,351.814 276.307,292.267 226.542 C 285.528 220.910,261.867 202.925,257.686 200.258 C 255.557 198.899,255.386 198.992,242.720 208.455 " stroke="none" fill="black" fill-rule="evenodd"></path></svg>