<svg xmlns="http://www.w3.org/2000/svg" width="512" height="512" viewBox="0 0 512 512"><path d="M229.973 33.372 C 161.602 41.572,99.986 81.305,64.251 140.237 C 47.833 167.312,36.736 200.037,33.327 231.433 C 32.168 242.102,32.168 269.898,33.327 280.567 C 43.715 376.232,115.291 455.101,209.980 475.218 C 238.354 481.247,274.696 481.122,303.300 474.898 C 348.950 464.964,391.051 440.766,421.359 407.040 C 453.243 371.561,472.525 329.622,478.263 283.272 C 479.975 269.447,479.975 242.553,478.263 228.728 C 469.053 154.336,423.860 90.000,357.120 56.271 C 336.241 45.719,316.717 39.284,292.267 34.896 C 283.835 33.382,278.033 33.013,259.413 32.806 C 246.976 32.667,233.728 32.922,229.973 33.372 M239.019 121.316 C 244.080 123.053,245.688 124.779,251.859 135.092 L 257.889 145.171 262.950 136.372 C 265.734 131.533,269.310 126.348,270.897 124.851 C 281.690 114.670,298.678 124.295,296.079 139.119 C 295.773 140.864,279.524 169.456,257.429 207.125 C 236.462 242.872,219.307 272.315,219.307 272.554 C 219.307 272.793,233.419 273.102,250.667 273.241 C 281.564 273.490,282.093 273.523,286.500 275.515 C 295.193 279.445,301.525 289.405,301.057 298.412 L 300.800 303.360 215.531 303.577 C 130.422 303.795,130.256 303.792,126.559 302.002 C 117.623 297.676,115.675 284.302,123.012 277.653 C 127.517 273.571,127.923 273.515,156.025 273.067 L 182.771 272.640 211.243 224.176 L 239.716 175.713 229.784 158.896 C 221.312 144.551,219.798 141.436,219.482 137.696 C 218.812 129.767,222.267 124.055,229.237 121.570 C 233.348 120.104,235.340 120.053,239.019 121.316 M307.096 229.133 L 333.020 273.067 357.016 273.085 C 378.451 273.102,381.382 273.271,384.462 274.671 C 390.711 277.509,395.059 285.043,393.737 290.741 C 392.612 295.588,389.246 300.160,385.449 301.998 C 382.123 303.609,380.242 303.787,366.573 303.787 C 353.370 303.787,351.455 303.955,351.886 305.078 C 352.159 305.788,356.868 313.948,362.351 323.211 C 371.221 338.195,372.363 340.579,372.706 344.814 C 373.470 354.270,366.975 361.358,357.547 361.358 C 350.432 361.358,347.190 358.884,341.249 348.919 C 316.400 307.241,271.559 229.943,270.268 226.560 C 266.853 217.609,267.440 205.959,271.767 196.813 C 273.783 192.552,279.399 185.159,280.600 185.186 C 280.915 185.193,292.839 204.969,307.096 229.133 M179.200 310.759 C 183.505 312.612,187.297 315.886,189.072 319.284 C 190.213 321.467,189.878 322.196,180.495 337.968 C 168.442 358.229,167.069 359.784,159.858 361.336 C 150.489 363.353,140.320 353.150,142.122 343.542 C 142.420 341.954,146.774 333.800,151.798 325.421 C 159.841 312.009,161.286 310.065,163.880 309.168 C 167.562 307.895,174.132 308.578,179.200 310.759 " stroke="none" fill="black" fill-rule="evenodd"></path></svg>