<svg xmlns="http://www.w3.org/2000/svg" width="512" height="512" viewBox="0 0 512 512"><path d="M234.240 32.954 C 232.832 33.157,227.519 33.907,222.433 34.621 C 176.685 41.049,132.063 63.642,97.928 97.662 C 63.825 131.650,42.043 174.568,34.387 222.860 C 32.195 236.686,32.195 275.314,34.387 289.140 C 42.023 337.305,63.003 378.862,97.081 413.326 C 131.271 447.902,173.752 469.683,222.293 477.526 C 233.763 479.379,266.821 480.096,279.332 478.762 C 322.035 474.212,363.038 457.242,396.373 430.325 C 406.738 421.955,422.782 405.871,430.900 395.711 C 455.331 365.137,471.353 328.527,477.650 288.888 C 479.783 275.460,479.783 236.540,477.650 223.112 C 475.794 211.426,472.016 195.844,468.453 185.173 C 465.576 176.557,459.372 161.329,458.256 160.143 C 457.888 159.752,455.734 161.413,453.469 163.835 C 447.477 170.241,439.184 176.164,431.099 179.812 C 425.896 182.160,424.128 183.355,424.449 184.305 C 424.690 185.017,426.807 191.168,429.154 197.973 C 436.157 218.284,438.616 233.477,438.609 256.404 C 438.601 286.144,432.277 312.637,418.942 338.793 C 392.558 390.543,344.718 425.791,286.293 436.526 C 274.503 438.692,245.421 439.155,232.533 437.382 C 171.847 429.032,120.567 392.750,92.984 338.648 C 84.532 322.070,79.076 305.722,75.369 285.867 C 73.198 274.243,73.196 237.781,75.364 226.133 C 82.713 186.667,99.955 153.426,127.026 126.538 C 154.204 99.542,186.867 82.645,225.707 75.488 C 235.962 73.598,264.870 72.857,276.567 74.184 C 293.856 76.146,314.530 81.717,329.016 88.318 C 332.622 89.962,336.017 91.307,336.559 91.307 C 337.102 91.307,338.937 88.496,340.636 85.061 C 343.429 79.417,353.437 65.758,354.843 65.672 C 355.157 65.652,357.097 64.114,359.155 62.254 L 362.897 58.871 353.182 54.257 C 333.677 44.993,314.346 38.848,292.267 34.892 C 283.821 33.379,278.065 33.016,259.413 32.822 C 246.976 32.692,235.648 32.752,234.240 32.954 M391.912 71.142 C 376.221 75.146,362.840 87.707,358.199 102.791 C 355.675 110.992,355.672 121.966,358.193 130.133 C 362.543 144.232,373.762 155.650,388.104 160.575 C 396.547 163.475,409.390 163.347,417.891 160.280 C 425.436 157.557,434.136 151.482,438.628 145.799 C 458.577 120.563,448.252 83.713,418.146 72.703 C 411.264 70.186,398.611 69.433,391.912 71.142 M244.483 154.601 C 212.612 158.231,184.343 176.678,168.016 204.501 C 140.878 250.744,154.315 310.252,198.698 340.392 C 239.395 368.029,294.055 362.640,328.629 327.583 C 358.556 297.237,366.465 250.978,348.246 212.838 C 332.453 179.778,302.575 158.596,265.981 154.515 C 256.746 153.485,254.184 153.496,244.483 154.601 " stroke="none" fill="black" fill-rule="evenodd"></path></svg>