<svg xmlns="http://www.w3.org/2000/svg" width="512" height="512" viewBox="0 0 512 512"><path d="M354.133 49.972 C 287.723 59.514,233.099 67.342,232.747 67.367 C 232.395 67.393,232.107 108.311,232.107 158.296 L 232.107 249.179 356.053 248.963 L 480.000 248.747 480.217 140.587 L 480.433 32.427 477.657 32.525 C 476.129 32.579,420.544 40.430,354.133 49.972 M122.027 83.106 L 32.000 96.054 32.000 172.400 L 32.000 248.747 123.947 248.964 L 215.893 249.181 215.893 159.577 L 215.893 69.973 213.973 70.066 C 212.917 70.116,171.541 75.984,122.027 83.106 M31.573 340.053 C 31.573 381.120,31.669 414.748,31.787 414.782 C 31.904 414.816,73.376 420.879,123.947 428.255 L 215.893 441.666 215.893 353.526 L 215.893 265.387 123.733 265.387 L 31.573 265.387 31.573 340.053 M232.316 354.724 L 232.533 444.061 354.560 461.795 C 421.675 471.549,477.451 479.539,478.507 479.551 L 480.427 479.573 480.427 372.480 L 480.427 265.387 356.263 265.387 L 232.099 265.387 232.316 354.724 " stroke="none" fill="black" fill-rule="evenodd"></path></svg>