<svg xmlns="http://www.w3.org/2000/svg" width="512" height="512" viewBox="0 0 512 512"><path d="M31.785 256.213 L 32.000 480.000 256.000 480.000 L 480.000 480.000 480.215 256.213 L 480.430 32.427 256.000 32.427 L 31.570 32.427 31.785 256.213 M384.000 237.285 C 397.373 239.452,408.498 244.844,416.872 253.217 C 421.450 257.796,428.375 267.023,428.372 268.540 C 428.371 268.918,425.526 271.038,422.049 273.253 C 418.573 275.467,411.305 280.151,405.898 283.662 L 396.067 290.044 393.495 286.035 C 388.136 277.686,381.387 273.209,373.009 272.450 C 358.945 271.175,349.989 277.218,349.171 288.536 C 348.256 301.174,354.565 307.070,381.013 318.294 C 411.142 331.080,426.798 342.449,434.487 357.125 C 438.473 364.731,440.272 371.760,440.892 382.142 C 443.046 418.245,418.329 441.723,376.320 443.479 C 347.121 444.699,323.389 436.388,307.056 419.223 C 302.233 414.154,295.245 404.202,295.263 402.428 C 295.268 401.914,302.822 397.125,312.049 391.785 C 327.863 382.634,328.890 382.169,329.961 383.679 C 337.513 394.328,344.519 400.392,353.088 403.698 C 359.771 406.276,375.657 406.997,382.424 405.029 C 388.542 403.251,393.754 399.392,396.010 394.969 C 397.492 392.064,397.768 390.266,397.513 385.198 C 397.249 379.973,396.792 378.403,394.637 375.307 C 391.143 370.290,383.424 365.417,369.140 359.211 C 349.110 350.510,338.712 345.066,330.948 339.216 C 318.403 329.764,311.022 317.847,308.398 302.809 C 302.775 270.586,320.477 244.695,352.853 237.787 C 359.918 236.280,376.177 236.017,384.000 237.285 M272.213 311.702 C 272.213 355.395,271.871 386.456,271.341 390.849 C 268.655 413.120,258.237 429.443,241.493 437.616 C 231.499 442.494,225.818 443.828,212.807 444.351 C 200.371 444.852,193.440 443.987,183.358 440.679 C 168.430 435.780,155.100 424.336,147.982 410.307 L 145.959 406.320 161.086 397.147 C 169.406 392.101,177.030 387.451,178.027 386.812 C 179.744 385.712,180.052 385.988,183.770 391.954 C 190.849 403.311,196.458 407.030,206.507 407.030 C 213.695 407.030,217.593 405.605,221.500 401.549 C 228.046 394.754,227.840 397.600,227.840 313.757 L 227.840 239.787 250.027 239.787 L 272.213 239.787 272.213 311.702 " stroke="none" fill="black" fill-rule="evenodd"></path></svg>