<svg xmlns="http://www.w3.org/2000/svg" width="512" height="512" viewBox="0 0 512 512"><path d="M229.973 33.372 C 180.326 39.326,133.174 62.269,97.721 97.721 C 61.788 133.654,38.750 181.492,33.327 231.433 C 32.168 242.102,32.168 269.898,33.327 280.567 C 38.750 330.508,61.788 378.346,97.721 414.279 C 115.027 431.585,135.487 446.211,157.418 456.956 C 178.335 467.203,199.665 473.936,222.860 477.613 C 236.686 479.805,275.314 479.805,289.140 477.613 C 328.931 471.305,366.059 454.942,396.721 430.201 C 406.943 421.953,422.019 406.994,429.523 397.653 C 444.399 379.138,459.031 353.397,466.630 332.373 C 470.593 321.409,475.593 301.853,477.538 289.707 C 479.378 278.214,480.089 245.116,478.762 232.668 C 470.490 155.043,422.515 87.223,352.234 53.802 C 333.058 44.683,314.900 38.958,292.267 34.896 C 283.835 33.382,278.033 33.013,259.413 32.806 C 246.976 32.667,233.728 32.922,229.973 33.372 M282.286 71.247 C 302.008 74.067,319.830 79.615,338.347 88.697 C 349.942 94.384,364.711 103.633,371.583 109.511 L 374.952 112.393 372.242 115.815 C 370.752 117.697,365.176 123.416,359.851 128.525 C 343.452 144.257,324.603 157.152,300.800 168.920 C 283.847 177.302,283.120 177.509,281.692 174.345 C 279.637 169.794,265.937 147.167,258.281 135.680 C 245.098 115.901,229.686 96.171,216.713 82.466 L 209.874 75.241 216.036 73.839 C 222.281 72.419,236.682 70.301,244.480 69.657 C 251.881 69.045,273.142 69.939,282.286 71.247 M190.571 110.388 C 202.033 123.750,212.496 137.570,222.736 152.874 C 231.969 166.673,246.157 190.181,245.593 190.744 C 244.903 191.435,223.597 197.028,211.887 199.593 C 179.898 206.600,151.221 209.825,114.773 210.514 C 100.224 210.789,85.382 210.739,81.791 210.402 L 75.262 209.790 76.957 203.668 C 79.462 194.625,85.761 179.030,90.618 169.849 C 107.591 137.763,133.753 110.697,164.267 93.654 L 171.093 89.841 176.491 95.054 C 179.459 97.921,185.795 104.821,190.571 110.388 M411.327 152.949 C 428.129 178.305,438.844 207.998,441.645 236.969 L 442.238 243.111 404.799 242.607 C 378.416 242.252,360.934 242.444,345.600 243.257 C 333.632 243.892,321.775 244.427,319.251 244.446 L 314.662 244.480 308.341 229.547 C 304.864 221.333,301.476 213.363,300.811 211.835 L 299.603 209.057 310.868 203.679 C 346.463 186.684,377.130 163.671,393.377 141.763 L 398.043 135.472 401.366 139.203 C 403.194 141.255,407.676 147.441,411.327 152.949 M268.706 236.515 C 272.075 244.102,274.531 250.565,274.162 250.877 C 273.794 251.189,271.026 252.106,268.010 252.914 C 261.649 254.619,249.479 259.678,238.507 265.178 C 187.300 290.846,146.673 326.931,121.959 368.695 L 115.829 379.054 113.811 376.620 C 86.143 343.265,71.820 306.477,69.463 262.718 C 69.143 256.792,69.122 250.987,69.416 249.817 L 69.950 247.691 102.601 247.214 C 136.608 246.717,149.401 245.803,177.493 241.859 C 202.742 238.315,238.014 230.587,256.427 224.565 C 259.243 223.644,261.779 222.852,262.063 222.805 C 262.347 222.758,265.336 228.928,268.706 236.515 M435.945 276.161 L 441.382 276.700 440.821 281.480 C 438.871 298.068,432.016 320.570,423.769 337.450 C 409.595 366.463,387.574 392.106,361.805 409.606 L 356.895 412.940 355.878 404.657 C 351.524 369.201,341.272 323.380,329.540 286.933 L 326.176 276.480 329.274 276.371 C 330.979 276.312,336.597 275.968,341.760 275.607 C 352.224 274.875,427.436 275.318,435.945 276.161 M292.511 298.453 C 302.105 327.613,307.822 349.275,313.625 378.453 C 317.062 395.734,321.695 424.650,321.703 428.875 C 321.706 430.375,320.393 431.085,313.387 433.367 C 303.860 436.471,289.598 439.754,279.040 441.273 C 268.181 442.835,242.185 442.610,230.064 440.849 C 200.053 436.487,172.038 425.184,146.953 407.315 L 141.585 403.492 145.301 396.519 C 160.680 367.664,187.749 337.717,218.027 316.065 C 237.201 302.353,260.081 289.969,275.627 284.889 C 287.693 280.946,286.412 279.916,292.511 298.453 " stroke="none" fill="black" fill-rule="evenodd"></path></svg>