<svg xmlns="http://www.w3.org/2000/svg" width="512" height="512" viewBox="0 0 512 512"><path d="M83.657 34.077 C 83.171 34.985,82.773 36.318,82.773 37.039 C 82.773 38.651,284.178 231.396,285.516 231.064 C 286.043 230.934,299.729 218.155,315.930 202.667 C 337.749 181.808,345.138 174.258,344.427 173.547 C 343.899 173.019,288.171 142.159,220.587 104.969 C 153.003 67.779,95.740 36.242,93.336 34.888 C 88.219 32.006,84.913 31.729,83.657 34.077 M49.128 56.808 C 47.916 58.019,47.787 77.273,47.787 256.000 C 47.787 434.727,47.916 453.981,49.128 455.192 C 49.865 455.930,51.346 456.533,52.417 456.533 C 53.852 456.533,81.396 430.178,156.890 356.565 C 213.278 301.583,259.413 256.327,259.413 255.996 C 259.413 255.665,213.283 210.411,156.900 155.431 C 81.083 81.498,53.877 55.467,52.428 55.467 C 51.350 55.467,49.865 56.070,49.128 56.808 M344.132 223.688 C 325.931 241.116,311.040 255.656,311.040 256.000 C 311.040 256.819,377.070 320.000,377.926 320.000 C 378.287 320.000,395.065 310.943,415.211 299.874 C 439.817 286.354,453.009 278.614,455.401 276.294 C 466.514 265.515,466.514 246.477,455.401 235.709 C 453.018 233.401,439.731 225.600,415.240 212.130 C 395.109 201.058,378.321 192.000,377.931 192.000 C 377.542 192.000,362.332 206.259,344.132 223.688 M183.623 377.215 C 128.156 430.273,82.773 474.266,82.773 474.978 C 82.773 477.539,84.535 479.573,86.753 479.573 C 87.970 479.573,90.932 478.467,93.336 477.114 C 95.740 475.762,153.003 444.225,220.587 407.032 C 288.171 369.840,343.903 338.978,344.436 338.451 C 345.157 337.739,337.776 330.207,315.694 309.120 C 299.353 293.515,285.643 280.747,285.228 280.747 C 284.812 280.747,239.090 324.157,183.623 377.215 " stroke="none" fill="black" fill-rule="evenodd"></path></svg>