<svg xmlns="http://www.w3.org/2000/svg" width="512" height="512" viewBox="0 0 512 512"><path d="M183.264 64.213 L 183.040 96.000 139.293 96.221 L 95.546 96.442 95.773 120.114 L 96.000 143.787 116.907 144.234 C 139.932 144.727,141.965 145.135,146.139 150.096 C 147.389 151.581,148.715 154.226,149.086 155.972 C 149.457 157.718,149.760 203.307,149.760 257.280 C 149.760 349.227,149.665 355.661,148.245 359.338 C 147.412 361.497,145.750 364.185,144.552 365.311 C 142.420 367.316,141.970 367.369,123.503 367.787 L 104.632 368.213 100.570 390.400 C 98.335 402.603,96.489 413.451,96.467 414.507 L 96.427 416.427 139.510 416.427 L 182.593 416.427 182.816 448.213 L 183.040 480.000 203.520 480.000 L 224.000 480.000 224.224 448.213 L 224.447 416.427 240.224 416.427 L 256.000 416.427 256.000 448.442 L 256.000 480.458 275.840 480.229 L 295.680 480.000 295.904 447.875 L 296.127 415.749 303.157 415.179 C 349.515 411.421,376.931 400.347,397.014 377.266 C 409.431 362.996,414.959 343.083,414.926 312.747 C 414.897 285.376,411.225 274.544,397.279 260.693 C 387.666 251.145,376.150 244.536,362.382 240.664 L 357.405 239.264 362.668 236.015 C 368.948 232.139,378.052 223.804,381.533 218.744 C 392.761 202.426,395.308 180.612,389.051 154.359 C 381.887 124.300,354.777 103.878,313.819 97.684 C 309.246 96.992,303.997 96.427,302.155 96.427 C 295.636 96.427,296.107 98.958,296.107 63.909 L 296.107 32.427 276.053 32.427 L 256.000 32.427 256.000 64.427 L 256.000 96.427 240.213 96.427 L 224.427 96.427 224.427 64.427 L 224.427 32.427 203.957 32.427 L 183.487 32.427 183.264 64.213 M256.000 187.307 L 256.000 224.427 240.213 224.427 L 224.427 224.427 224.427 187.307 L 224.427 150.187 240.213 150.187 L 256.000 150.187 256.000 187.307 M300.547 156.580 C 302.268 157.750,305.450 161.011,307.617 163.828 C 318.916 178.512,319.202 194.834,308.405 208.808 C 304.927 213.309,298.336 219.232,296.747 219.285 C 296.395 219.297,296.107 204.715,296.107 186.880 C 296.107 169.045,296.402 154.453,296.762 154.453 C 297.122 154.453,298.826 155.410,300.547 156.580 M256.000 317.013 L 256.000 361.813 240.213 361.813 L 224.427 361.813 224.427 317.013 L 224.427 272.213 240.213 272.213 L 256.000 272.213 256.000 317.013 M306.205 276.540 C 324.018 283.672,330.893 291.335,334.250 307.800 C 335.894 315.861,334.865 324.708,331.474 331.672 C 329.116 336.513,321.403 344.189,314.472 348.593 C 309.911 351.491,299.699 355.840,297.454 355.840 C 296.245 355.840,296.107 351.636,296.107 314.880 C 296.107 267.512,294.919 272.021,306.205 276.540 " stroke="none" fill="black" fill-rule="evenodd"></path></svg>