<svg xmlns="http://www.w3.org/2000/svg" width="512" height="512" viewBox="0 0 512 512"><path d="M226.398 86.390 C 228.411 89.798,274.550 168.427,328.929 261.120 C 383.307 353.813,428.234 430.138,428.767 430.730 C 429.521 431.569,437.009 431.758,462.682 431.584 L 495.628 431.360 392.631 256.000 L 289.634 80.640 256.186 80.417 L 222.737 80.194 226.398 86.390 M200.686 117.481 C 198.809 120.685,191.334 133.426,184.075 145.793 L 170.876 168.280 179.728 183.340 C 184.596 191.623,219.397 250.906,257.063 315.080 L 325.547 431.760 358.705 431.773 C 385.918 431.784,391.785 431.584,391.428 430.654 C 391.052 429.675,204.977 112.686,204.337 111.934 C 204.206 111.780,202.563 114.276,200.686 117.481 M84.349 315.572 L 16.378 431.360 84.562 431.578 C 122.064 431.699,183.386 431.699,220.835 431.578 L 288.923 431.360 273.049 404.362 C 264.318 389.513,256.519 376.363,255.718 375.140 L 254.261 372.917 187.266 372.698 L 120.271 372.480 152.379 317.867 C 170.038 287.829,185.073 262.055,185.789 260.589 L 187.092 257.926 170.668 229.869 C 161.635 214.439,153.812 201.357,153.282 200.799 C 152.557 200.034,135.601 228.264,84.349 315.572 " stroke="none" fill="black" fill-rule="evenodd"></path></svg>