<svg xmlns="http://www.w3.org/2000/svg" width="512" height="512" viewBox="0 0 512 512"><path d="M249.387 67.477 C 246.923 67.904,242.699 69.175,240.000 70.301 C 232.528 73.422,61.562 158.081,57.173 160.835 C 50.180 165.222,42.314 174.083,38.493 181.877 C 31.546 196.050,32.000 187.831,32.000 299.520 C 32.000 392.263,32.103 399.334,33.528 404.907 C 36.158 415.189,40.541 422.864,48.194 430.590 C 55.643 438.109,62.368 442.325,72.107 445.578 L 78.080 447.573 253.013 447.810 C 448.884 448.074,434.999 448.495,448.853 441.867 C 458.589 437.210,469.130 426.812,473.779 417.280 C 480.429 403.642,480.000 411.738,480.000 299.947 C 480.000 187.984,480.432 195.986,473.649 182.187 C 469.944 174.648,463.880 167.326,457.403 162.572 C 452.572 159.026,275.958 71.547,268.800 69.155 C 262.812 67.154,255.102 66.488,249.387 67.477 M343.149 140.849 C 389.788 163.874,428.253 183.016,428.628 183.387 C 429.285 184.037,308.084 276.480,306.575 276.480 C 306.167 276.480,299.133 271.271,290.943 264.904 C 270.950 249.359,265.326 246.621,253.440 246.644 C 241.195 246.668,236.114 249.098,216.747 264.189 C 208.533 270.589,201.383 275.994,200.858 276.201 C 200.163 276.475,85.365 190.827,79.858 185.927 C 79.428 185.544,104.964 172.460,136.605 156.851 C 168.245 141.242,207.381 121.860,223.573 113.780 C 242.007 104.582,254.011 99.070,255.682 99.038 C 257.550 99.002,283.806 111.553,343.149 140.849 M448.000 303.328 C 448.000 394.276,447.970 395.963,446.266 400.517 C 444.134 406.215,438.211 412.042,432.189 414.364 C 428.058 415.957,423.428 416.000,255.573 416.000 L 83.200 416.000 78.695 413.964 C 76.009 412.750,72.674 410.242,70.435 407.752 C 63.565 400.111,63.965 406.725,64.209 304.934 L 64.427 214.385 118.918 255.551 C 148.889 278.193,173.465 296.942,173.532 297.216 C 173.599 297.489,156.565 311.002,135.680 327.243 C 94.110 359.570,93.447 360.214,93.562 368.186 C 93.662 375.060,97.029 379.996,103.451 382.679 C 107.848 384.516,111.709 384.329,116.122 382.066 C 118.984 380.598,240.630 286.878,248.601 280.000 C 249.460 279.258,251.573 278.652,253.296 278.652 C 256.139 278.652,262.515 283.390,322.135 329.797 C 358.273 357.926,389.184 381.655,390.827 382.527 C 397.468 386.053,407.698 382.540,411.290 375.500 C 413.287 371.584,413.535 365.566,411.864 361.573 C 410.278 357.784,408.719 356.478,368.381 325.142 C 341.074 303.929,332.980 297.225,333.864 296.555 C 334.499 296.074,355.351 280.282,380.203 261.462 C 405.054 242.642,430.187 223.558,436.053 219.053 C 441.920 214.547,447.008 210.841,447.360 210.817 C 447.712 210.793,448.000 252.423,448.000 303.328 " stroke="none" fill="black" fill-rule="evenodd"></path></svg>