<svg xmlns="http://www.w3.org/2000/svg" width="512" height="512" viewBox="0 0 512 512"><path d="M41.371 81.400 C 38.190 82.789,33.528 87.982,32.652 91.109 C 32.294 92.391,32.000 166.976,32.000 256.853 C 32.000 418.732,32.016 420.294,33.707 423.163 C 34.645 424.756,36.889 427.252,38.693 428.710 L 41.972 431.360 256.000 431.360 L 470.028 431.360 473.307 428.745 C 475.111 427.307,477.355 424.619,478.293 422.772 C 479.982 419.448,480.000 417.725,480.000 256.000 C 480.000 94.275,479.982 92.552,478.293 89.228 C 477.355 87.381,475.111 84.693,473.307 83.255 L 470.028 80.640 256.987 80.457 C 82.221 80.308,43.484 80.477,41.371 81.400 M183.107 194.991 L 256.061 251.743 329.015 194.991 C 369.139 163.778,402.277 138.240,402.655 138.240 C 403.403 138.240,404.920 140.081,415.420 153.739 L 422.415 162.837 344.193 223.712 C 301.171 257.193,264.784 285.243,263.332 286.044 C 259.857 287.964,252.143 287.964,248.668 286.044 C 247.216 285.243,210.832 257.196,167.814 223.718 C 97.902 169.310,89.713 162.692,90.667 161.370 C 95.777 154.287,108.755 138.240,109.373 138.240 C 109.802 138.240,142.982 163.778,183.107 194.991 " stroke="none" fill="black" fill-rule="evenodd"></path></svg>