<svg xmlns="http://www.w3.org/2000/svg" width="512" height="512" viewBox="0 0 512 512"><path d="M86.187 34.038 C 77.930 36.710,72.261 40.193,66.044 46.414 C 60.057 52.404,59.757 52.928,42.010 88.366 C 32.125 108.103,23.364 126.535,22.540 129.326 C 20.495 136.253,20.587 148.990,22.729 155.307 L 24.320 160.000 162.987 160.202 C 271.785 160.361,302.097 160.177,303.711 159.349 C 305.039 158.668,318.742 137.715,342.349 100.267 C 362.468 68.352,379.697 40.795,380.635 39.028 C 381.955 36.542,382.135 35.433,381.434 34.121 C 380.534 32.441,379.331 32.427,235.703 32.473 C 99.238 32.516,90.609 32.606,86.187 34.038 M420.924 35.561 C 418.927 38.416,341.484 161.530,316.613 201.387 C 307.094 216.640,298.961 229.555,298.538 230.087 C 297.977 230.793,296.033 230.519,291.344 229.072 C 270.917 222.770,242.710 222.736,221.125 228.988 L 213.998 231.052 210.466 225.427 C 208.523 222.333,203.078 213.643,198.366 206.115 L 189.799 192.427 119.932 192.208 C 55.830 192.008,49.936 192.107,48.499 193.407 C 47.638 194.187,46.933 195.276,46.933 195.827 C 46.933 196.378,65.733 226.099,88.710 261.872 L 130.486 326.915 129.482 331.777 C 128.916 334.521,128.491 343.520,128.508 352.427 C 128.542 370.325,129.919 378.797,135.313 394.294 C 154.306 448.859,208.427 484.215,265.801 479.539 C 326.700 474.575,374.803 428.852,382.822 368.309 C 384.283 357.279,384.053 340.943,382.308 331.824 L 381.387 327.008 433.838 245.409 C 463.614 199.086,487.059 161.750,488.072 159.044 C 491.801 149.077,492.036 136.221,488.664 126.665 C 487.999 124.778,479.524 107.404,469.831 88.055 C 453.276 55.010,451.865 52.513,446.570 46.899 C 442.198 42.265,439.378 40.165,434.012 37.550 C 424.261 32.797,422.991 32.604,420.924 35.561 M271.814 290.140 C 289.990 294.789,304.813 306.858,313.205 323.840 C 318.164 333.877,319.530 339.959,319.530 352.000 C 319.530 364.041,318.164 370.123,313.205 380.160 C 304.731 397.309,289.919 409.275,271.355 413.970 C 261.131 416.555,245.657 415.996,236.033 412.693 C 217.913 406.475,203.648 393.014,196.546 375.431 C 191.817 363.724,190.858 348.207,194.096 335.787 C 199.768 314.024,217.933 295.919,239.853 290.179 C 248.701 287.862,262.840 287.845,271.814 290.140 M246.536 321.567 C 237.808 324.453,231.627 329.775,227.153 338.255 C 225.059 342.223,224.853 343.454,224.853 352.000 C 224.853 360.590,225.052 361.764,227.198 365.835 C 230.263 371.649,233.779 375.577,238.744 378.737 C 254.833 388.976,276.018 383.184,284.337 366.273 C 286.974 360.911,287.147 360.009,287.147 351.587 C 287.147 342.988,287.025 342.388,284.226 337.227 C 278.605 326.859,269.211 320.963,257.280 320.314 C 253.030 320.083,249.930 320.444,246.536 321.567 " stroke="none" fill="black" fill-rule="evenodd"></path></svg>