<svg xmlns="http://www.w3.org/2000/svg" width="512" height="512" viewBox="0 0 512 512"><path d="M81.920 128.794 C 77.975 130.006,72.977 132.945,70.707 135.389 C 59.990 146.924,62.831 164.891,76.658 173.019 L 80.640 175.360 256.000 175.360 L 431.360 175.360 435.342 173.019 C 446.889 166.231,451.062 152.687,445.167 141.131 C 442.657 136.210,439.612 133.202,434.347 130.441 L 430.507 128.427 257.280 128.282 C 162.005 128.203,83.093 128.433,81.920 128.794 M79.383 233.589 C 73.747 235.578,67.052 242.620,65.351 248.349 C 62.511 257.910,64.412 265.910,71.118 272.616 C 79.114 280.612,60.858 279.893,256.000 279.893 C 451.142 279.893,432.886 280.612,440.882 272.616 C 450.421 263.077,450.421 248.923,440.882 239.384 C 432.882 231.384,451.208 232.098,255.635 232.174 C 100.833 232.235,82.810 232.379,79.383 233.589 M79.998 337.427 C 66.502 342.261,60.301 358.067,66.859 370.920 C 69.344 375.792,72.402 378.805,77.653 381.559 L 81.493 383.573 256.000 383.573 L 430.507 383.573 434.347 381.559 C 439.612 378.798,442.657 375.790,445.167 370.869 C 451.062 359.313,446.889 345.769,435.342 338.981 L 431.360 336.640 257.280 336.460 C 113.338 336.311,82.646 336.478,79.998 337.427 " stroke="none" fill="black" fill-rule="evenodd"></path></svg>