<svg xmlns="http://www.w3.org/2000/svg" width="512" height="512" viewBox="0 0 512 512"><path d="M72.677 146.044 C 67.180 148.765,64.427 153.422,64.427 160.000 C 64.427 166.628,67.204 171.294,72.746 173.977 L 76.486 175.787 256.000 175.787 L 435.514 175.787 439.254 173.977 C 444.796 171.294,447.573 166.628,447.573 160.000 C 447.573 153.372,444.796 148.706,439.254 146.023 L 435.514 144.213 255.944 144.214 L 76.373 144.215 72.677 146.044 M74.799 241.031 C 68.663 243.219,64.037 249.653,64.037 256.000 C 64.037 262.617,69.332 269.537,75.760 271.322 C 80.177 272.549,431.823 272.549,436.240 271.322 C 442.668 269.537,447.963 262.617,447.963 256.000 C 447.963 249.383,442.668 242.463,436.240 240.678 C 434.102 240.084,375.147 239.807,255.573 239.829 C 107.459 239.856,77.537 240.055,74.799 241.031 M72.677 338.044 C 67.180 340.765,64.427 345.422,64.427 352.000 C 64.427 358.628,67.204 363.294,72.746 365.977 L 76.486 367.787 256.000 367.787 L 435.514 367.787 439.254 365.977 C 444.796 363.294,447.573 358.628,447.573 352.000 C 447.573 345.372,444.796 340.706,439.254 338.023 L 435.514 336.213 255.944 336.214 L 76.373 336.215 72.677 338.044 " stroke="none" fill="black" fill-rule="evenodd"></path></svg>