<svg xmlns="http://www.w3.org/2000/svg" width="512" height="512" viewBox="0 0 512 512"><path d="M243.200 49.029 C 225.846 51.883,210.260 60.132,198.208 72.840 C 188.284 83.304,182.314 94.039,178.166 108.878 C 176.312 115.511,176.275 116.697,175.984 178.347 C 175.686 241.562,175.937 248.814,178.802 259.812 C 184.394 281.280,200.580 301.190,220.746 311.407 C 250.853 326.659,287.502 320.837,311.541 296.984 C 324.626 284.000,332.182 269.129,334.966 250.880 C 335.956 244.394,336.204 231.001,336.208 183.871 C 336.211 148.131,335.864 122.183,335.325 117.884 C 330.423 78.791,299.113 50.038,259.492 48.245 C 253.827 47.989,247.746 48.281,243.200 49.029 M111.787 217.936 C 111.787 245.850,112.518 256.778,115.266 269.947 C 122.781 305.947,145.600 339.372,176.640 359.846 C 195.229 372.107,213.154 378.943,236.587 382.710 L 239.787 383.224 239.787 407.505 L 239.787 431.787 207.787 431.787 L 175.787 431.787 175.787 448.000 L 175.787 464.213 256.000 464.213 L 336.213 464.213 336.213 448.000 L 336.213 431.787 304.213 431.787 L 272.213 431.787 272.213 407.505 L 272.213 383.224 275.413 382.697 C 285.826 380.983,293.270 379.223,301.013 376.643 C 351.094 359.959,388.106 317.265,397.779 265.022 C 399.272 256.955,399.592 250.924,399.963 223.787 L 400.398 192.000 384.155 192.000 L 367.913 192.000 367.554 224.213 C 367.258 250.784,366.937 257.548,365.719 262.827 C 355.248 308.228,319.704 342.509,275.021 350.301 C 265.464 351.967,246.599 351.935,236.800 350.236 C 215.742 346.584,195.741 336.496,179.418 321.293 C 169.789 312.325,162.187 301.974,155.791 289.121 C 145.827 269.101,144.221 259.620,144.217 220.800 L 144.213 192.000 128.000 192.000 L 111.787 192.000 111.787 217.936 " stroke="none" fill="black" fill-rule="evenodd"></path></svg>