<svg xmlns="http://www.w3.org/2000/svg" width="512" height="512" viewBox="0 0 512 512"><path d="M243.200 48.291 C 189.307 52.936,145.591 72.806,109.198 109.198 C 75.814 142.582,55.864 183.304,49.403 231.253 C 47.996 241.696,47.996 270.304,49.403 280.747 C 55.866 328.705,75.852 369.495,109.198 402.781 C 142.761 436.282,182.341 455.687,231.253 462.621 C 235.243 463.187,246.379 463.649,256.000 463.649 C 284.931 463.649,308.731 459.018,334.933 448.289 C 361.056 437.593,386.578 420.224,405.701 400.129 C 437.387 366.832,455.931 327.939,462.621 280.747 C 463.187 276.757,463.649 265.621,463.649 256.000 C 463.649 227.171,459.011 203.251,448.395 177.325 C 432.022 137.342,403.062 103.108,365.227 79.011 C 343.385 65.100,312.181 53.926,283.992 49.922 C 275.151 48.666,250.352 47.675,243.200 48.291 M267.897 237.227 L 367.792 346.027 362.456 351.029 C 359.521 353.780,354.199 358.667,350.630 361.888 L 344.139 367.746 244.390 259.032 C 189.527 199.240,144.640 149.883,144.640 149.351 C 144.640 148.252,166.511 127.994,167.414 128.256 C 167.737 128.350,212.954 177.387,267.897 237.227 M271.462 130.768 C 274.569 131.900,278.932 133.895,281.159 135.200 C 287.128 138.698,294.542 146.675,298.078 153.404 C 303.551 163.820,303.760 165.816,303.774 207.893 C 303.786 243.899,303.493 251.249,302.065 250.700 C 300.568 250.124,214.187 154.342,214.187 153.258 C 214.187 151.305,220.695 143.206,225.457 139.233 C 231.646 134.071,240.053 130.136,248.320 128.533 C 253.467 127.535,265.886 128.734,271.462 130.768 M192.013 230.187 C 192.027 254.423,192.655 259.101,197.068 267.844 C 202.085 277.782,211.815 287.998,222.298 294.335 C 232.002 300.200,247.694 304.294,258.053 303.662 L 263.014 303.360 274.974 316.437 C 282.232 324.373,286.626 329.822,286.151 330.297 C 285.720 330.728,282.504 331.807,279.004 332.695 L 272.640 334.309 272.398 343.368 L 272.156 352.427 287.971 352.427 L 303.787 352.427 303.787 368.213 L 303.787 384.000 256.000 384.000 L 208.213 384.000 208.213 368.213 L 208.213 352.427 224.000 352.427 L 239.787 352.427 239.787 343.440 C 239.787 336.996,239.485 334.359,238.720 334.122 C 238.133 333.939,234.005 332.785,229.547 331.557 C 202.207 324.026,176.709 302.550,166.430 278.394 C 161.112 265.896,160.439 260.825,160.433 233.173 L 160.427 208.213 176.213 208.213 L 192.000 208.213 192.013 230.187 M351.573 233.277 C 351.573 257.180,351.475 258.729,349.446 266.726 C 347.418 274.720,341.557 288.177,339.280 290.067 C 338.476 290.734,335.514 287.975,327.398 279.000 C 321.452 272.425,316.587 266.528,316.587 265.896 C 316.587 265.265,317.237 263.068,318.031 261.014 C 319.236 257.901,319.531 253.200,319.806 232.747 L 320.137 208.213 335.855 208.213 L 351.573 208.213 351.573 233.277 M226.986 263.680 C 236.534 274.240,245.282 283.905,246.426 285.157 L 248.505 287.434 244.786 286.602 C 230.008 283.299,215.600 270.194,210.850 255.736 C 208.804 249.510,207.600 242.359,208.810 243.627 C 209.258 244.096,217.437 253.120,226.986 263.680 " stroke="none" fill="black" fill-rule="evenodd"></path></svg>