<svg xmlns="http://www.w3.org/2000/svg" width="512" height="512" viewBox="0 0 512 512"><path d="M442.880 48.914 C 437.448 50.991,57.656 225.415,54.887 227.103 C 52.057 228.829,47.783 236.185,47.791 239.314 C 47.808 245.350,51.672 251.487,57.247 254.331 C 60.436 255.958,62.908 256.000,154.888 256.000 C 257.944 256.000,253.278 255.777,255.183 260.790 C 255.685 262.109,256.007 299.207,256.019 356.962 C 256.037 446.338,256.115 451.157,257.604 454.435 C 262.954 466.213,278.987 467.229,285.422 456.199 C 286.546 454.271,327.101 366.293,375.543 260.693 C 457.323 82.418,463.624 68.358,463.688 63.996 C 463.741 60.466,463.259 58.491,461.747 56.045 C 457.770 49.610,449.366 46.433,442.880 48.914 " stroke="none" fill="black" fill-rule="evenodd"></path></svg>