<svg xmlns="http://www.w3.org/2000/svg" width="512" height="512" viewBox="0 0 512 512"><path d="M59.530 34.079 C 47.120 38.059,37.523 48.012,33.560 61.013 C 32.070 65.905,32.000 74.259,32.000 248.320 C 32.000 396.558,32.211 431.461,33.132 435.627 C 33.755 438.443,36.002 444.361,38.125 448.778 C 43.564 460.094,51.891 468.424,63.222 473.886 C 67.639 476.015,73.749 478.262,76.800 478.878 C 84.221 480.379,431.033 480.555,431.532 479.058 C 431.704 478.541,429.432 477.253,426.483 476.197 C 407.230 469.304,392.096 452.878,385.959 432.213 C 384.527 427.393,384.413 416.460,384.006 245.333 L 383.573 63.573 381.743 58.737 C 377.926 48.655,370.820 40.865,361.004 36.002 L 354.649 32.853 209.538 32.681 C 70.705 32.516,64.215 32.576,59.530 34.079 M180.240 112.678 C 184.485 113.856,188.484 117.356,190.396 121.565 C 191.834 124.731,191.963 127.878,191.963 160.000 C 191.963 192.122,191.834 195.269,190.396 198.435 C 188.484 202.644,184.485 206.144,180.240 207.322 C 175.654 208.596,111.221 208.514,107.434 207.229 C 102.969 205.715,99.964 203.269,98.114 199.642 C 96.511 196.501,96.427 194.512,96.427 160.000 C 96.427 125.488,96.511 123.499,98.114 120.358 C 99.911 116.835,102.928 114.306,107.093 112.829 C 110.538 111.608,175.900 111.472,180.240 112.678 M312.461 114.785 C 316.726 117.750,320.009 123.504,319.981 127.967 C 319.939 134.755,314.624 141.591,308.002 143.374 C 305.785 143.971,292.748 144.200,270.281 144.036 L 235.947 143.787 232.236 141.663 C 220.424 134.900,222.148 117.493,235.093 112.811 C 236.808 112.191,249.388 111.939,273.208 112.049 L 308.762 112.213 312.461 114.785 M416.240 263.467 C 416.108 346.891,416.271 417.525,416.601 420.432 C 418.436 436.559,433.843 449.144,450.072 447.771 C 466.282 446.400,477.680 435.103,479.685 418.421 C 480.165 414.422,480.390 358.212,480.244 278.613 L 480.000 145.493 478.170 140.162 C 473.294 125.956,462.294 116.022,448.112 113.016 C 444.694 112.291,437.312 111.810,429.467 111.801 L 416.481 111.787 416.240 263.467 M312.461 178.785 C 316.726 181.750,320.009 187.504,319.981 191.967 C 319.939 198.755,314.624 205.591,308.002 207.374 C 305.785 207.971,292.748 208.200,270.281 208.036 L 235.947 207.787 232.236 205.663 C 220.424 198.900,222.148 181.493,235.093 176.811 C 236.808 176.191,249.388 175.939,273.208 176.049 L 308.762 176.213 312.461 178.785 M312.460 242.785 C 316.726 245.750,320.009 251.503,319.981 255.967 C 319.939 262.719,314.625 269.590,308.085 271.352 C 305.858 271.951,272.685 272.167,206.363 272.014 L 107.947 271.787 104.236 269.663 C 92.426 262.901,94.155 245.445,107.093 240.822 C 108.869 240.187,140.165 239.954,209.207 240.060 L 308.760 240.213 312.460 242.785 M312.460 306.785 C 316.726 309.750,320.009 315.503,319.981 319.967 C 319.939 326.719,314.625 333.590,308.085 335.352 C 305.858 335.951,272.685 336.167,206.363 336.014 L 107.947 335.787 104.236 333.663 C 92.426 326.901,94.155 309.445,107.093 304.822 C 108.869 304.187,140.165 303.954,209.207 304.060 L 308.760 304.213 312.460 306.785 M312.460 370.785 C 316.726 373.750,320.009 379.503,319.981 383.967 C 319.939 390.719,314.625 397.590,308.085 399.352 C 305.858 399.951,272.685 400.167,206.363 400.014 L 107.947 399.787 104.236 397.663 C 92.426 390.901,94.155 373.445,107.093 368.822 C 108.869 368.187,140.165 367.954,209.207 368.060 L 308.760 368.213 312.460 370.785 " stroke="none" fill="black" fill-rule="evenodd"></path></svg>