<svg xmlns="http://www.w3.org/2000/svg" width="512" height="512" viewBox="0 0 512 512"><path d="M243.200 48.291 C 189.307 52.936,145.591 72.806,109.198 109.198 C 75.814 142.582,55.864 183.304,49.403 231.253 C 47.996 241.696,47.996 270.304,49.403 280.747 C 55.866 328.705,75.852 369.495,109.198 402.781 C 142.761 436.282,182.341 455.687,231.253 462.621 C 235.243 463.187,246.379 463.649,256.000 463.649 C 284.931 463.649,308.731 459.018,334.933 448.289 C 361.056 437.593,386.578 420.224,405.701 400.129 C 437.387 366.832,455.931 327.939,462.621 280.747 C 463.187 276.757,463.649 265.621,463.649 256.000 C 463.649 227.171,459.011 203.251,448.395 177.325 C 432.022 137.342,403.062 103.108,365.227 79.011 C 343.385 65.100,312.181 53.926,283.992 49.922 C 275.151 48.666,250.352 47.675,243.200 48.291 M266.839 130.532 C 272.762 133.080,279.291 140.078,282.599 147.424 C 284.023 150.586,285.796 153.858,286.540 154.696 C 287.283 155.533,291.755 158.106,296.479 160.412 C 315.819 169.856,326.997 182.519,333.026 201.813 C 335.785 210.643,336.868 219.573,337.476 238.507 C 338.074 257.136,339.753 269.277,343.135 279.420 C 346.307 288.937,349.699 294.558,358.973 305.668 C 366.783 315.025,367.787 316.803,367.787 321.280 C 367.787 327.419,363.152 333.817,357.585 335.364 C 353.243 336.570,157.067 336.514,153.869 335.306 C 148.163 333.150,144.213 327.153,144.213 320.644 C 144.213 316.438,144.689 315.646,153.676 304.908 C 162.204 294.719,165.748 288.772,168.865 279.420 C 172.247 269.277,173.926 257.136,174.524 238.507 C 175.132 219.573,176.215 210.643,178.974 201.813 C 181.830 192.672,184.896 186.793,190.620 179.478 C 196.598 171.838,204.477 165.805,215.521 160.412 C 220.245 158.106,224.717 155.533,225.460 154.696 C 226.204 153.858,227.971 150.599,229.387 147.453 C 232.127 141.370,238.472 133.851,242.746 131.622 C 250.512 127.573,259.061 127.186,266.839 130.532 M295.151 354.308 C 296.725 358.562,292.984 367.541,287.248 373.277 C 278.297 382.228,260.079 386.191,243.768 382.735 C 229.089 379.624,220.251 372.212,217.184 360.437 C 214.933 351.796,211.872 352.427,256.058 352.427 L 294.455 352.427 295.151 354.308 " stroke="none" fill="black" fill-rule="evenodd"></path></svg>