<svg xmlns="http://www.w3.org/2000/svg" width="512" height="512" viewBox="0 0 512 512"><path d="M324.499 81.388 C 311.918 84.582,299.365 94.559,293.503 106.024 L 290.560 111.780 176.640 111.788 C 96.165 111.794,61.724 112.073,59.326 112.738 C 54.786 113.999,49.916 118.994,48.653 123.687 C 46.351 132.232,51.222 141.010,59.546 143.322 C 61.656 143.908,100.919 144.206,176.640 144.212 L 290.560 144.220 293.503 149.976 C 299.773 162.239,313.241 172.395,326.672 174.990 C 333.963 176.399,345.513 175.574,352.000 173.183 C 363.643 168.890,374.646 158.960,379.056 148.766 L 381.013 144.242 415.147 144.223 C 437.373 144.211,450.464 143.875,452.674 143.262 C 457.214 142.001,462.084 137.006,463.347 132.313 C 465.649 123.768,460.778 114.990,452.454 112.678 C 450.530 112.143,435.836 111.775,415.147 111.743 L 381.013 111.691 378.264 105.979 C 374.679 98.528,369.938 93.146,362.856 88.482 C 354.013 82.659,348.439 80.885,337.920 80.545 C 332.329 80.364,327.283 80.681,324.499 81.388 M340.566 112.771 C 347.719 115.197,351.573 120.530,351.573 128.000 C 351.573 145.175,328.712 150.084,321.604 134.435 C 317.771 125.997,321.992 116.171,330.799 113.031 C 334.886 111.574,336.881 111.521,340.566 112.771 M163.413 209.809 C 150.471 213.534,139.096 222.709,133.882 233.628 L 130.987 239.691 96.853 239.743 C 76.164 239.775,61.470 240.143,59.546 240.678 C 51.222 242.990,46.351 251.768,48.653 260.313 C 49.916 265.006,54.786 270.001,59.326 271.262 C 61.526 271.872,74.730 272.222,96.853 272.257 L 130.987 272.309 133.882 278.372 C 141.014 293.308,158.286 303.735,175.958 303.774 C 183.799 303.791,189.578 302.456,197.120 298.883 C 205.334 294.991,214.261 286.261,218.497 277.976 L 221.440 272.220 335.360 272.212 C 411.081 272.206,450.344 271.908,452.454 271.322 C 460.778 269.010,465.649 260.232,463.347 251.687 C 462.084 246.994,457.214 241.999,452.674 240.738 C 450.276 240.073,415.835 239.794,335.360 239.788 L 221.440 239.780 218.497 234.024 C 214.261 225.739,205.334 217.009,197.120 213.117 C 193.600 211.450,188.685 209.664,186.198 209.149 C 179.690 207.802,169.343 208.102,163.413 209.809 M180.240 240.678 C 186.668 242.463,191.963 249.383,191.963 256.000 C 191.963 265.917,181.862 273.912,172.463 271.435 C 164.703 269.390,160.427 263.907,160.427 256.000 C 160.427 248.690,164.247 243.256,171.093 240.829 C 174.446 239.640,176.390 239.608,180.240 240.678 M324.499 337.388 C 311.918 340.582,299.365 350.559,293.503 362.024 L 290.560 367.780 176.640 367.788 C 96.165 367.794,61.724 368.073,59.326 368.738 C 54.786 369.999,49.916 374.994,48.653 379.687 C 46.351 388.232,51.222 397.010,59.546 399.322 C 61.656 399.908,100.919 400.206,176.640 400.212 L 290.560 400.220 293.503 405.976 C 299.773 418.239,313.241 428.395,326.672 430.990 C 333.963 432.399,345.513 431.574,352.000 429.183 C 363.643 424.890,374.646 414.960,379.056 404.766 L 381.013 400.242 415.147 400.223 C 437.373 400.211,450.464 399.875,452.674 399.262 C 457.214 398.001,462.084 393.006,463.347 388.313 C 465.649 379.768,460.778 370.990,452.454 368.678 C 450.530 368.143,435.836 367.775,415.147 367.743 L 381.013 367.691 378.264 361.979 C 374.679 354.528,369.938 349.146,362.856 344.482 C 354.013 338.659,348.439 336.885,337.920 336.545 C 332.329 336.364,327.283 336.681,324.499 337.388 M340.566 368.771 C 347.719 371.197,351.573 376.530,351.573 384.000 C 351.573 401.175,328.712 406.084,321.604 390.435 C 317.771 381.997,321.992 372.171,330.799 369.031 C 334.886 367.574,336.881 367.521,340.566 368.771 " stroke="none" fill="black" fill-rule="evenodd"></path></svg>