<svg xmlns="http://www.w3.org/2000/svg" width="512" height="512" viewBox="0 0 512 512"><path d="M243.200 48.291 C 189.307 52.936,145.591 72.806,109.198 109.198 C 75.814 142.582,55.864 183.304,49.403 231.253 C 47.996 241.696,47.996 270.304,49.403 280.747 C 55.866 328.705,75.852 369.495,109.198 402.781 C 142.761 436.282,182.341 455.687,231.253 462.621 C 235.243 463.187,246.379 463.649,256.000 463.649 C 284.931 463.649,308.731 459.018,334.933 448.289 C 361.056 437.593,386.578 420.224,405.701 400.129 C 437.387 366.832,455.931 327.939,462.621 280.747 C 463.187 276.757,463.649 265.621,463.649 256.000 C 463.649 227.171,459.011 203.251,448.395 177.325 C 432.022 137.342,403.062 103.108,365.227 79.011 C 343.385 65.100,312.181 53.926,283.992 49.922 C 275.151 48.666,250.352 47.675,243.200 48.291 M212.566 176.771 C 217.031 178.285,220.036 180.731,221.886 184.358 C 223.525 187.571,223.573 189.610,223.573 256.000 C 223.573 322.390,223.525 324.429,221.886 327.642 C 216.030 339.121,199.037 338.396,193.604 326.435 C 192.127 323.183,192.037 319.167,192.037 256.000 C 192.037 192.676,192.124 188.827,193.613 185.600 C 195.586 181.325,198.574 178.538,202.799 177.031 C 206.886 175.574,208.881 175.521,212.566 176.771 M308.240 176.678 C 312.485 177.856,316.484 181.356,318.396 185.565 C 319.873 188.817,319.963 192.833,319.963 256.000 C 319.963 319.167,319.873 323.183,318.396 326.435 C 312.963 338.396,295.970 339.121,290.114 327.642 C 288.475 324.429,288.427 322.390,288.427 256.000 C 288.427 189.610,288.475 187.571,290.114 184.358 C 291.911 180.835,294.928 178.306,299.093 176.829 C 302.446 175.640,304.390 175.608,308.240 176.678 " stroke="none" fill="black" fill-rule="evenodd"></path></svg>