<svg xmlns="http://www.w3.org/2000/svg" width="512" height="512" viewBox="0 0 512 512"><path d="M174.080 48.620 C 145.069 54.144,126.247 86.437,128.311 127.147 C 129.706 154.666,139.634 178.951,156.216 195.407 C 166.983 206.092,176.713 210.742,189.769 211.441 C 204.203 212.213,214.087 208.306,224.898 197.554 C 230.670 191.813,232.479 189.286,236.205 181.760 C 238.645 176.832,241.671 168.960,242.930 164.267 C 245.030 156.439,245.224 154.357,245.273 139.093 C 245.333 120.952,244.472 114.980,239.807 101.180 C 231.329 76.100,215.107 57.199,196.528 50.755 C 189.995 48.489,179.842 47.523,174.080 48.620 M321.280 49.054 C 299.987 53.762,281.634 73.251,272.193 101.180 C 267.528 114.980,266.667 120.952,266.727 139.093 C 266.776 154.357,266.970 156.439,269.070 164.267 C 270.329 168.960,273.358 176.828,275.801 181.751 C 279.403 189.010,281.460 191.935,286.682 197.218 C 297.309 207.972,307.895 212.208,322.231 211.441 C 335.287 210.742,345.017 206.092,355.784 195.407 C 368.966 182.326,377.525 165.183,381.999 142.902 C 384.120 132.340,384.114 110.752,381.988 100.693 C 380.087 91.705,375.831 80.216,371.982 73.685 C 370.379 70.964,366.184 65.821,362.661 62.257 C 355.337 54.850,348.582 51.054,339.200 49.076 C 332.013 47.560,328.060 47.555,321.280 49.054 M188.269 81.973 C 197.594 86.487,206.990 100.941,211.326 117.443 C 214.157 128.216,214.588 146.381,212.225 155.307 C 208.767 168.365,201.556 178.451,194.765 179.724 C 184.409 181.667,171.051 168.207,164.738 149.465 C 161.635 140.254,160.346 132.204,160.339 121.986 C 160.331 110.502,161.935 101.736,165.392 94.374 C 171.350 81.687,179.053 77.511,188.269 81.973 M336.129 81.450 C 342.182 84.580,347.992 94.682,350.373 106.217 C 352.307 115.589,351.658 134.218,349.067 143.679 C 343.020 165.766,328.780 181.890,317.235 179.724 C 310.515 178.464,303.123 168.251,299.870 155.733 C 297.419 146.305,297.796 128.397,300.674 117.443 C 303.779 105.626,308.678 95.939,314.926 89.260 C 322.709 80.940,329.971 78.265,336.129 81.450 M53.923 153.564 C 41.982 156.802,32.709 163.728,26.124 174.325 C 18.676 186.311,15.728 199.376,16.455 217.173 C 17.974 254.372,41.339 292.517,71.102 306.392 C 87.558 314.063,105.732 313.461,119.102 304.803 C 143.116 289.250,150.567 252.779,137.352 215.467 C 126.692 185.370,104.953 161.994,80.640 154.483 C 71.977 151.807,61.702 151.453,53.923 153.564 M435.640 153.309 C 410.404 158.716,385.910 183.679,374.649 215.467 C 363.495 246.952,366.951 278.622,383.524 296.794 C 392.705 306.861,403.543 311.610,417.280 311.586 C 434.482 311.555,449.206 304.565,464.296 289.267 C 485.144 268.131,496.800 238.082,495.539 208.723 C 494.733 189.963,489.356 176.163,478.686 165.467 C 467.364 154.118,452.051 149.793,435.640 153.309 M76.569 187.308 C 87.177 192.614,97.319 204.185,104.154 218.779 C 112.696 237.016,114.226 258.116,107.909 270.580 C 101.239 283.744,86.596 282.682,71.586 267.947 C 49.929 246.686,41.188 207.994,53.976 189.996 C 58.662 183.400,66.819 182.430,76.569 187.308 M453.118 185.599 C 463.776 191.111,466.984 213.388,460.236 235.030 C 451.698 262.410,428.201 284.193,412.718 279.083 C 408.600 277.724,404.208 272.418,402.242 266.426 C 399.809 259.014,400.008 241.702,402.631 232.549 C 408.450 212.246,421.417 194.319,435.309 187.368 C 442.143 183.949,448.674 183.301,453.118 185.599 M239.360 225.658 C 215.223 231.278,201.188 244.944,174.459 288.853 C 163.294 307.194,155.496 314.280,128.000 331.067 C 121.664 334.935,113.984 339.946,110.933 342.202 C 103.502 347.698,94.041 357.654,90.228 363.993 C 79.967 381.047,78.187 405.305,85.817 424.083 C 93.462 442.896,108.369 456.314,127.745 461.820 C 132.849 463.270,136.588 463.703,143.787 463.677 C 158.479 463.624,169.877 461.012,206.274 449.356 C 232.864 440.840,241.121 439.144,256.000 439.144 C 271.011 439.144,279.095 440.827,307.546 449.874 C 340.312 460.292,350.479 462.784,364.373 463.801 C 390.688 465.728,416.110 449.364,426.042 424.107 C 429.985 414.079,430.449 411.383,430.439 398.507 C 430.431 386.972,430.252 385.603,427.808 378.311 C 421.299 358.891,411.419 348.019,386.133 332.451 C 357.908 315.073,348.860 307.417,340.521 293.858 C 310.869 245.643,300.091 234.156,277.760 226.966 C 270.116 224.505,247.604 223.738,239.360 225.658 M271.762 258.865 C 281.427 263.290,291.320 274.996,307.203 300.800 C 317.829 318.064,321.709 323.390,328.884 330.556 C 336.926 338.589,345.490 344.937,362.154 355.216 C 379.599 365.977,385.248 370.013,389.848 375.003 C 396.943 382.700,400.319 394.008,398.551 404.157 C 396.587 415.436,390.483 424.194,381.317 428.886 C 377.781 430.695,375.202 431.306,369.920 431.584 C 360.545 432.077,350.731 429.917,324.479 421.583 C 286.338 409.475,274.914 407.054,255.871 407.045 C 237.843 407.037,226.950 409.304,191.724 420.396 C 160.497 430.228,156.478 431.165,145.067 431.270 C 135.862 431.354,134.970 431.211,130.683 428.953 C 111.336 418.765,106.798 391.422,121.786 375.340 C 127.094 369.644,131.517 366.445,148.053 356.337 C 164.439 346.322,175.052 338.488,182.870 330.639 C 190.526 322.952,194.197 317.961,204.205 301.634 C 223.198 270.649,233.617 259.471,245.950 256.850 C 247.957 256.423,253.504 256.206,258.274 256.368 C 265.383 256.609,267.818 257.060,271.762 258.865 " stroke="none" fill="black" fill-rule="evenodd"></path></svg>