<svg xmlns="http://www.w3.org/2000/svg" width="512" height="512" viewBox="0 0 512 512"><path d="M322.987 80.825 C 316.658 81.706,306.197 84.882,299.845 87.852 C 263.499 104.846,246.611 143.528,256.802 186.440 C 261.117 204.609,269.603 219.526,283.264 232.960 C 295.784 245.271,309.679 252.621,325.120 255.097 C 366.088 261.669,405.842 229.995,416.094 182.613 C 418.462 171.670,418.287 151.467,415.734 141.227 C 407.982 110.122,383.161 86.965,351.675 81.463 C 345.123 80.318,329.179 79.964,322.987 80.825 M136.900 112.623 C 98.615 118.046,73.428 151.910,78.495 191.147 C 82.726 223.904,104.613 250.790,133.120 258.247 C 140.448 260.163,153.952 260.151,161.135 258.222 C 185.828 251.590,205.910 230.103,213.459 202.240 C 215.109 196.154,215.428 192.859,215.443 181.760 C 215.459 170.527,215.172 167.530,213.535 161.878 C 206.539 137.708,188.969 120.446,165.172 114.360 C 157.347 112.359,144.386 111.562,136.900 112.623 M135.253 279.050 C 107.683 281.020,83.179 289.055,62.444 302.925 C 47.145 313.158,34.518 327.046,26.271 342.712 C 17.116 360.103,14.290 373.798,17.889 383.335 C 20.105 389.209,25.222 394.743,31.147 397.675 L 35.413 399.787 95.697 399.787 C 164.583 399.787,158.490 400.538,160.936 391.743 C 166.132 373.056,173.901 356.121,183.244 343.115 C 190.673 332.773,202.598 320.311,212.306 312.747 C 221.854 305.307,223.289 302.722,220.848 297.366 C 219.711 294.869,208.469 289.012,198.827 285.892 C 188.614 282.588,172.964 279.925,158.642 279.053 C 150.941 278.585,144.448 278.255,144.213 278.321 C 143.979 278.386,139.947 278.714,135.253 279.050 M314.880 288.971 C 269.520 294.574,235.199 310.364,208.985 337.687 C 192.925 354.427,180.592 377.222,176.590 397.560 C 173.928 411.090,181.690 425.351,194.280 430.062 C 198.918 431.797,199.740 431.806,337.339 431.583 L 475.733 431.360 479.775 429.352 C 485.240 426.636,490.470 421.246,493.146 415.573 C 495.050 411.537,495.358 409.745,495.344 402.773 C 495.329 395.683,494.935 393.528,492.198 385.584 C 484.854 364.271,474.510 348.125,458.057 332.293 C 435.875 310.948,405.889 296.796,369.493 290.497 C 361.650 289.139,322.395 288.042,314.880 288.971 " stroke="none" fill="black" fill-rule="evenodd"></path></svg>