<svg xmlns="http://www.w3.org/2000/svg" width="512" height="512" viewBox="0 0 512 512"><path d="M235.947 33.798 C 210.887 38.272,187.289 52.619,172.307 72.490 C 163.957 83.565,156.437 100.814,153.503 115.627 C 151.561 125.434,151.988 151.210,154.264 161.501 C 164.560 208.049,196.286 243.697,236.273 253.649 C 246.677 256.239,265.302 256.247,275.627 253.667 C 315.671 243.660,347.964 207.404,357.603 161.632 C 360.098 149.785,360.684 131.103,358.923 119.611 C 352.126 75.281,319.118 41.389,275.298 33.748 C 265.834 32.097,245.329 32.124,235.947 33.798 M275.200 66.391 C 292.212 71.002,306.493 80.863,315.844 94.454 C 325.149 107.978,329.775 127.946,327.676 145.524 C 324.256 174.174,310.297 198.624,289.045 213.193 C 267.742 227.796,241.845 227.135,220.587 211.445 C 200.366 196.521,187.201 172.615,184.284 145.524 C 179.971 105.464,203.569 72.571,241.920 65.189 C 250.025 63.628,267.314 64.253,275.200 66.391 M226.391 289.768 C 158.623 297.980,101.812 331.484,70.662 381.608 C 60.122 398.570,51.802 420.802,48.624 440.502 C 45.415 460.398,57.414 477.155,76.647 479.636 C 79.782 480.040,160.491 480.371,256.000 480.371 C 351.509 480.371,432.218 480.040,435.353 479.636 C 450.424 477.692,460.978 467.342,463.518 452.014 C 464.278 447.427,464.184 444.936,463.009 438.451 C 458.551 413.851,447.495 388.618,432.232 368.209 C 425.539 359.259,410.172 343.490,401.067 336.228 C 369.349 310.931,329.198 294.942,284.165 289.674 C 270.878 288.119,239.572 288.170,226.391 289.768 M286.720 322.146 C 315.289 326.541,341.260 335.488,362.242 348.161 C 391.348 365.742,413.153 390.645,424.215 418.938 C 427.789 428.080,431.787 442.355,431.787 445.976 L 431.787 448.000 256.000 448.000 L 80.213 448.000 80.213 445.976 C 80.213 442.355,84.211 428.080,87.785 418.938 C 94.708 401.232,105.503 385.235,120.063 371.107 C 149.888 342.165,188.667 325.721,239.360 320.516 C 246.842 319.748,278.131 320.825,286.720 322.146 " stroke="none" fill="black" fill-rule="evenodd"></path></svg>