<svg xmlns="http://www.w3.org/2000/svg" width="512" height="512" viewBox="0 0 512 512"><path d="M240.640 17.496 C 216.972 22.283,195.405 38.583,184.755 59.733 C 168.985 91.050,175.199 128.577,200.219 153.124 C 209.669 162.394,226.144 171.557,237.440 173.823 L 239.787 174.293 239.787 316.577 C 239.787 402.707,240.106 460.545,240.596 463.128 C 241.838 469.677,252.652 494.839,254.473 495.417 C 258.015 496.541,259.066 495.045,265.454 479.775 L 271.787 464.640 272.014 319.442 L 272.242 174.243 276.647 173.187 C 297.544 168.174,317.273 152.122,327.466 131.840 C 349.191 88.614,327.150 35.390,281.173 20.052 C 269.749 16.241,252.288 15.139,240.640 17.496 M267.304 49.293 L 269.648 49.927 265.673 52.910 C 263.426 54.597,260.611 57.839,259.195 60.370 C 248.422 79.636,267.389 101.475,288.614 94.243 C 292.545 92.903,297.993 88.433,300.513 84.480 L 301.873 82.347 302.825 85.760 C 303.349 87.637,303.779 92.190,303.782 95.877 C 303.801 122.598,282.694 143.741,256.000 143.741 C 229.366 143.741,208.213 122.608,208.213 96.000 C 208.213 72.887,225.034 52.719,247.680 48.680 C 252.334 47.850,263.231 48.190,267.304 49.293 " stroke="none" fill="black" fill-rule="evenodd"></path></svg>