<svg xmlns="http://www.w3.org/2000/svg" width="512" height="512" viewBox="0 0 512 512"><path d="M218.453 33.366 C 168.288 37.297,116.448 48.819,73.283 65.631 C 47.749 75.577,41.937 89.466,53.680 112.483 C 55.907 116.848,60.651 120.129,65.735 120.820 C 70.075 121.410,70.819 121.157,92.160 111.830 C 139.649 91.076,187.093 81.491,247.467 80.452 C 316.465 79.266,368.238 89.264,425.924 114.914 C 437.169 119.915,439.724 120.742,443.838 120.718 C 452.502 120.668,456.646 116.462,461.648 102.640 C 465.169 92.914,463.148 84.233,455.598 76.653 C 450.958 71.994,445.311 68.996,431.787 64.010 C 387.401 47.646,338.243 36.988,290.176 33.306 C 276.950 32.293,231.668 32.331,218.453 33.366 M231.803 112.716 C 191.167 115.040,148.542 123.788,111.057 137.497 C 97.859 142.324,93.833 144.391,91.517 147.528 C 89.103 150.798,87.633 155.935,88.169 159.232 C 88.426 160.820,93.514 172.778,99.476 185.806 C 195.050 394.679,226.213 461.492,230.871 467.515 C 237.167 475.658,245.326 479.573,256.000 479.573 C 266.684 479.573,275.111 475.475,281.335 467.250 C 282.777 465.345,315.190 396.203,353.364 313.600 L 422.770 163.413 422.798 157.374 C 422.824 151.998,422.554 150.976,420.348 148.084 C 417.356 144.161,410.961 141.063,393.328 134.995 C 342.415 117.474,285.608 109.638,231.803 112.716 M205.682 163.172 C 211.710 166.133,217.867 172.290,220.828 178.318 C 222.904 182.545,223.147 183.979,223.147 192.000 C 223.147 200.021,222.904 201.455,220.828 205.682 C 217.867 211.710,211.710 217.867,205.682 220.828 C 201.455 222.904,200.021 223.147,192.000 223.147 C 183.979 223.147,182.545 222.904,178.318 220.828 C 172.290 217.867,166.133 211.710,163.172 205.682 C 159.988 199.199,159.442 187.784,161.993 181.068 C 165.185 172.668,172.319 165.403,180.649 162.069 C 187.009 159.523,199.359 160.067,205.682 163.172 M333.398 179.169 C 339.988 182.235,345.893 188.046,348.868 194.392 C 350.885 198.695,351.146 200.283,351.144 208.213 C 351.141 216.420,350.931 217.588,348.647 222.104 C 345.571 228.184,339.433 234.051,332.986 237.073 C 328.767 239.051,327.010 239.360,320.000 239.360 C 312.990 239.360,311.233 239.051,307.014 237.073 C 300.567 234.051,294.429 228.184,291.353 222.104 C 289.069 217.588,288.859 216.420,288.856 208.213 C 288.854 200.283,289.115 198.695,291.132 194.392 C 295.133 185.855,304.301 178.566,313.476 176.626 C 319.326 175.389,327.521 176.435,333.398 179.169 M269.682 291.172 C 275.710 294.133,281.867 300.290,284.828 306.318 C 286.904 310.545,287.147 311.979,287.147 320.000 C 287.147 328.021,286.904 329.455,284.828 333.682 C 281.867 339.710,275.710 345.867,269.682 348.828 C 265.455 350.904,264.021 351.147,256.000 351.147 C 247.979 351.147,246.545 350.904,242.318 348.828 C 236.290 345.867,230.133 339.710,227.172 333.682 C 223.988 327.199,223.442 315.784,225.993 309.068 C 229.185 300.668,236.319 293.403,244.649 290.069 C 251.009 287.523,263.359 288.067,269.682 291.172 " stroke="none" fill="black" fill-rule="evenodd"></path></svg>