<svg xmlns="http://www.w3.org/2000/svg" width="512" height="512" viewBox="0 0 512 512"><path d="M243.200 48.291 C 189.307 52.936,145.591 72.806,109.198 109.198 C 75.814 142.582,55.864 183.304,49.403 231.253 C 47.996 241.696,47.996 270.304,49.403 280.747 C 55.866 328.705,75.852 369.495,109.198 402.781 C 142.761 436.282,182.341 455.687,231.253 462.621 C 235.243 463.187,246.379 463.649,256.000 463.649 C 284.931 463.649,308.731 459.018,334.933 448.289 C 361.056 437.593,386.578 420.224,405.701 400.129 C 437.387 366.832,455.931 327.939,462.621 280.747 C 463.187 276.757,463.649 265.621,463.649 256.000 C 463.649 227.171,459.011 203.251,448.395 177.325 C 432.022 137.342,403.062 103.108,365.227 79.011 C 343.385 65.100,312.181 53.926,283.992 49.922 C 275.151 48.666,250.352 47.675,243.200 48.291 M210.939 208.134 L 263.253 239.750 263.680 211.669 C 264.085 185.003,264.195 183.467,265.868 181.181 C 266.837 179.857,269.119 178.035,270.938 177.132 C 273.986 175.619,274.518 175.590,277.709 176.756 C 282.013 178.329,392.941 245.210,396.140 248.162 C 397.420 249.342,398.890 251.589,399.406 253.154 C 400.605 256.786,399.356 260.872,396.140 263.838 C 392.941 266.790,282.013 333.671,277.709 335.244 C 274.518 336.410,273.986 336.381,270.938 334.868 C 269.119 333.965,266.837 332.143,265.868 330.819 C 264.195 328.533,264.085 326.997,263.680 300.331 L 263.253 272.250 211.627 303.508 C 183.232 320.701,158.656 335.142,157.013 335.601 C 153.006 336.719,148.247 334.712,145.942 330.931 C 144.250 328.157,144.220 326.821,144.220 256.000 C 144.220 185.205,144.251 183.842,145.940 181.072 C 148.001 177.692,152.161 175.634,155.899 176.145 C 157.509 176.365,180.029 189.453,210.939 208.134 " stroke="none" fill="black" fill-rule="evenodd"></path></svg>