<svg xmlns="http://www.w3.org/2000/svg" width="512" height="512" viewBox="0 0 512 512"><path d="M95.573 256.000 L 95.573 448.000 119.467 448.000 L 143.360 448.000 143.360 366.507 C 143.360 321.685,143.585 285.013,143.859 285.013 C 144.134 285.013,205.157 321.493,279.467 366.080 C 353.776 410.667,414.991 447.147,415.501 447.147 C 416.164 447.147,416.427 392.863,416.427 256.000 C 416.427 119.137,416.164 64.853,415.501 64.853 C 414.991 64.853,353.776 101.333,279.467 145.920 C 205.157 190.507,144.134 226.987,143.859 226.987 C 143.585 226.987,143.360 190.315,143.360 145.493 L 143.360 64.000 119.467 64.000 L 95.573 64.000 95.573 256.000 " stroke="none" fill="black" fill-rule="evenodd"></path></svg>