<svg xmlns="http://www.w3.org/2000/svg" width="512" height="512" viewBox="0 0 512 512"><path d="M105.288 65.633 C 100.619 67.753,97.466 72.069,96.409 77.786 C 95.845 80.837,95.627 143.135,95.775 259.031 C 95.992 429.556,96.055 435.737,97.595 438.837 C 100.818 445.322,107.459 448.715,114.779 447.617 C 119.798 446.865,125.833 441.687,127.128 437.024 C 127.676 435.052,127.992 408.787,127.995 365.013 C 127.998 327.115,128.212 296.107,128.471 296.107 C 128.730 296.107,175.674 324.078,232.791 358.266 C 368.965 439.774,363.308 436.444,368.213 437.979 C 374.844 440.052,379.750 440.345,385.990 439.040 C 399.987 436.111,411.205 424.992,414.830 410.453 C 416.570 403.475,416.570 108.525,414.830 101.547 C 410.066 82.440,392.070 69.677,373.969 72.568 C 370.813 73.072,366.116 74.561,363.529 75.877 C 360.943 77.193,307.096 109.235,243.870 147.081 C 180.644 184.928,128.708 215.893,128.457 215.893 C 128.205 215.893,127.998 184.885,127.995 146.987 C 127.992 104.520,127.669 76.923,127.152 75.063 C 126.692 73.404,124.848 70.615,123.055 68.864 C 117.938 63.868,111.680 62.729,105.288 65.633 M381.099 104.760 C 381.615 105.105,382.479 106.225,383.019 107.251 C 384.445 109.959,384.426 401.757,383.000 404.887 C 382.451 406.094,381.146 407.295,380.102 407.558 C 378.654 407.921,362.209 398.454,310.915 367.731 C 273.906 345.564,217.825 312.028,186.289 293.207 C 154.754 274.386,128.712 258.315,128.419 257.493 C 128.125 256.672,128.125 255.328,128.418 254.507 C 128.711 253.685,154.561 237.729,185.862 219.049 C 217.163 200.369,273.109 166.886,310.187 144.643 C 347.264 122.400,378.176 104.186,378.880 104.167 C 379.584 104.148,380.583 104.415,381.099 104.760 " stroke="none" fill="black" fill-rule="evenodd"></path></svg>