<svg xmlns="http://www.w3.org/2000/svg" width="512" height="512" viewBox="0 0 512 512"><path d="M249.874 48.936 C 245.322 50.208,240.764 53.403,238.037 57.233 C 233.726 63.289,233.813 61.153,233.813 159.981 C 233.813 261.423,233.614 257.416,238.995 263.923 C 249.910 277.120,272.071 272.776,276.931 256.485 C 278.819 250.158,278.814 69.835,276.926 63.478 C 273.625 52.361,261.306 45.739,249.874 48.936 M132.292 90.548 C 127.058 91.555,121.316 95.731,110.383 106.484 C 76.501 139.806,55.432 182.773,49.408 230.827 C 48.029 241.832,47.999 269.477,49.356 279.893 C 57.316 341.007,88.689 392.880,138.550 427.366 C 165.003 445.663,194.627 457.147,228.433 462.209 C 239.687 463.895,270.130 464.137,280.747 462.626 C 307.298 458.846,331.639 451.219,352.427 440.166 C 438.577 394.360,481.769 296.212,456.990 202.560 C 447.510 166.730,428.674 134.224,402.119 107.867 C 387.862 93.717,381.480 89.600,373.805 89.600 C 361.331 89.600,350.229 101.963,351.881 114.014 C 352.823 120.893,355.544 125.043,363.718 132.069 C 377.719 144.104,391.568 161.660,400.953 179.272 C 418.525 212.247,424.069 251.777,416.400 289.413 C 409.257 324.463,389.275 357.827,361.387 381.268 C 286.018 444.619,172.943 427.930,118.879 345.476 C 87.723 297.958,83.527 236.751,107.865 184.802 C 117.311 164.640,129.563 148.502,149.891 129.446 C 156.852 122.920,158.301 119.866,158.265 111.787 C 158.244 106.918,157.797 104.551,156.396 101.893 C 151.848 93.265,142.075 88.665,132.292 90.548 " stroke="none" fill="black" fill-rule="evenodd"></path></svg>