<svg xmlns="http://www.w3.org/2000/svg" width="512" height="512" viewBox="0 0 512 512"><path d="M159.904 48.625 C 147.838 50.432,137.786 55.724,128.423 65.196 C 117.738 76.006,113.057 86.788,112.074 102.849 L 111.542 111.542 102.849 112.074 C 86.581 113.070,75.469 118.021,64.423 129.196 C 56.930 136.777,53.337 142.731,50.211 152.747 L 48.213 159.147 48.213 247.467 C 48.213 344.007,47.997 339.608,53.311 351.147 C 62.619 371.358,82.481 383.934,105.173 383.985 L 111.787 384.000 111.801 405.120 C 111.818 428.947,112.608 434.685,117.004 442.933 C 120.201 448.931,127.948 456.467,134.148 459.608 C 143.346 464.269,141.061 464.184,256.000 464.184 C 372.759 464.184,368.894 464.347,378.933 458.996 C 384.931 455.799,392.467 448.052,395.608 441.852 C 399.403 434.365,400.182 428.145,400.199 405.241 L 400.213 384.242 409.387 383.771 C 431.970 382.613,449.557 370.975,458.689 351.147 C 464.003 339.608,463.787 344.007,463.787 247.467 L 463.787 159.147 461.797 152.747 C 458.988 143.711,454.693 136.442,447.995 129.391 C 437.696 118.550,425.419 113.070,409.209 112.078 L 400.458 111.542 399.926 102.849 C 398.980 87.390,394.187 76.121,383.995 65.391 C 377.291 58.334,370.150 53.813,360.533 50.538 L 353.707 48.213 258.987 48.092 C 206.891 48.026,162.303 48.265,159.904 48.625 M354.133 82.227 C 358.340 84.463,363.350 89.427,365.452 93.440 C 366.734 95.890,367.346 98.962,367.617 104.320 L 367.995 111.787 256.000 111.787 L 144.005 111.787 144.380 104.320 C 144.801 95.950,146.064 92.724,150.921 87.610 C 154.053 84.312,157.342 82.213,161.274 81.003 C 162.451 80.641,205.653 80.411,257.280 80.493 C 346.998 80.633,351.279 80.710,354.133 82.227 M418.560 146.488 C 422.608 148.679,427.561 153.706,429.773 157.867 C 431.285 160.713,431.371 164.898,431.589 247.032 L 431.819 333.211 429.148 338.637 C 424.934 347.195,418.547 351.001,406.578 352.085 L 400.213 352.662 400.213 307.474 C 400.213 278.704,399.877 260.447,399.288 257.223 C 396.648 242.766,386.308 230.882,372.294 226.200 C 367.030 224.441,366.101 224.427,256.000 224.427 C 145.899 224.427,144.970 224.441,139.706 226.200 C 125.692 230.882,115.352 242.766,112.712 257.223 C 112.123 260.447,111.787 278.704,111.787 307.474 L 111.787 352.662 105.422 352.085 C 93.453 351.001,87.066 347.195,82.852 338.637 L 80.181 333.211 80.411 247.032 C 80.629 164.898,80.715 160.713,82.227 157.867 C 85.370 151.954,91.390 146.809,97.274 145.006 C 98.451 144.646,170.453 144.416,257.280 144.495 L 415.147 144.640 418.560 146.488 M382.293 162.200 C 377.287 164.464,373.288 168.360,370.537 173.653 C 367.530 179.441,367.388 188.050,370.204 193.850 C 372.452 198.481,378.467 204.337,382.985 206.294 C 388.131 208.522,397.208 208.133,402.347 205.463 C 411.189 200.868,415.524 193.774,415.555 183.848 C 415.585 174.020,410.503 166.107,401.549 162.040 C 396.680 159.828,387.368 159.906,382.293 162.200 M365.292 258.494 L 367.787 260.989 367.787 343.893 L 367.787 426.798 365.292 429.292 L 362.798 431.787 256.000 431.787 L 149.202 431.787 146.708 429.292 L 144.213 426.798 144.213 343.893 L 144.213 260.989 146.708 258.494 L 149.202 256.000 256.000 256.000 L 362.798 256.000 365.292 258.494 " stroke="none" fill="black" fill-rule="evenodd"></path></svg>