<svg xmlns="http://www.w3.org/2000/svg" width="512" height="512" viewBox="0 0 512 512"><path d="M117.333 48.589 C 116.395 48.976,114.859 50.145,113.920 51.188 C 112.309 52.977,112.213 54.284,112.213 74.542 L 112.213 96.000 256.000 96.000 L 399.787 96.000 399.787 74.472 L 399.787 52.943 397.421 50.578 L 395.055 48.213 257.047 48.050 C 181.143 47.960,118.272 48.203,117.333 48.589 M97.707 112.313 C 96.768 112.502,93.888 113.070,91.307 113.574 C 76.640 116.442,61.203 128.628,54.115 142.933 C 47.828 155.621,48.295 146.109,48.004 267.504 C 47.808 349.284,47.993 377.317,48.738 379.117 C 50.691 383.833,51.870 384.000,83.132 384.000 L 111.735 384.000 111.974 421.528 L 112.213 459.056 114.579 461.421 L 116.945 463.787 256.000 463.787 L 395.055 463.787 397.421 461.421 L 399.787 459.056 400.026 421.528 L 400.265 384.000 428.868 384.000 C 460.130 384.000,461.309 383.833,463.262 379.117 C 464.007 377.317,464.192 349.284,463.996 267.504 C 463.705 146.083,464.173 155.592,457.872 142.933 C 452.480 132.101,443.882 123.502,433.067 118.125 C 420.201 111.728,435.840 112.267,258.560 112.110 C 171.029 112.033,98.645 112.124,97.707 112.313 M402.568 162.617 C 417.498 170.057,420.457 190.108,408.281 201.332 C 403.112 206.096,399.218 207.607,392.107 207.607 C 384.988 207.607,381.102 206.096,375.911 201.312 C 363.514 189.885,366.610 169.689,381.867 162.464 C 388.004 159.557,396.555 159.621,402.568 162.617 M358.210 265.008 L 360.107 266.337 360.107 343.661 C 360.107 414.415,359.987 421.118,358.694 422.546 C 357.341 424.041,353.041 424.107,256.148 424.107 C 163.240 424.107,154.887 423.992,153.454 422.694 C 151.964 421.346,151.893 417.780,151.893 343.809 L 151.893 266.337 153.790 265.008 C 155.480 263.824,166.589 263.680,256.000 263.680 C 345.411 263.680,356.520 263.824,358.210 265.008 " stroke="none" fill="black" fill-rule="evenodd"></path></svg>