<svg xmlns="http://www.w3.org/2000/svg" width="512" height="512" viewBox="0 0 512 512"><path d="M122.027 33.785 C 106.279 38.011,92.847 49.050,85.764 63.586 C 79.952 75.515,80.239 68.844,80.239 192.000 C 80.239 315.156,79.952 308.485,85.764 320.414 C 92.903 335.065,105.838 345.644,122.453 350.419 C 127.010 351.729,133.744 351.926,183.680 352.218 L 239.787 352.546 239.787 409.106 C 239.787 467.815,239.837 468.714,243.402 473.833 C 248.667 481.391,263.333 481.391,268.598 473.833 C 272.163 468.714,272.213 467.815,272.213 409.106 L 272.213 352.546 328.320 352.218 C 378.379 351.926,384.979 351.731,389.547 350.412 C 406.272 345.581,419.139 335.062,426.253 320.403 C 432.124 308.305,431.842 315.222,431.589 189.668 L 431.360 76.373 429.074 70.114 C 425.871 61.346,422.020 55.257,415.543 48.721 C 409.381 42.502,403.154 38.479,394.446 35.091 L 388.693 32.853 257.707 32.689 C 144.550 32.548,126.081 32.697,122.027 33.785 M265.104 147.006 C 266.902 148.252,286.661 167.622,309.013 190.050 C 352.928 234.114,352.177 233.200,351.368 241.626 C 350.909 246.406,347.705 251.071,342.984 253.836 C 339.332 255.976,332.582 256.017,328.533 253.924 C 326.891 253.075,313.547 240.441,298.880 225.848 L 272.213 199.314 272.213 275.871 L 272.213 352.427 256.000 352.427 L 239.787 352.427 239.787 275.871 L 239.787 199.314 213.120 225.848 C 198.453 240.441,185.301 252.957,183.893 253.661 C 179.804 255.706,176.191 256.175,172.396 255.153 C 167.936 253.952,162.531 249.124,161.229 245.178 C 159.756 240.715,160.636 234.406,163.260 230.629 C 167.143 225.037,245.957 146.966,249.173 145.525 C 253.692 143.500,261.033 144.182,265.104 147.006 " stroke="none" fill="black" fill-rule="evenodd"></path></svg>