<svg xmlns="http://www.w3.org/2000/svg" width="512" height="512" viewBox="0 0 512 512"><path d="M32.142 32.142 C 31.829 32.455,31.573 79.303,31.573 136.249 L 31.573 239.787 135.680 239.787 L 239.787 239.787 239.787 135.680 L 239.787 31.573 136.249 31.573 C 79.303 31.573,32.455 31.829,32.142 32.142 M272.213 135.677 L 272.213 239.787 376.323 239.787 L 480.433 239.787 480.217 135.893 L 480.000 32.000 376.107 31.783 L 272.213 31.567 272.213 135.677 M196.059 135.893 L 195.840 195.840 135.893 196.059 L 75.947 196.278 75.947 136.112 L 75.947 75.947 136.112 75.947 L 196.278 75.947 196.059 135.893 M436.053 136.112 L 436.053 196.278 376.107 196.059 L 316.160 195.840 315.941 135.893 L 315.722 75.947 375.888 75.947 L 436.053 75.947 436.053 136.112 M96.142 96.142 C 95.829 96.455,95.573 114.503,95.573 136.249 L 95.573 175.787 135.680 175.787 L 175.787 175.787 175.787 135.680 L 175.787 95.573 136.249 95.573 C 114.503 95.573,96.455 95.829,96.142 96.142 M336.213 135.672 L 336.213 175.787 376.328 175.787 L 416.444 175.787 416.222 135.893 L 416.000 96.000 376.107 95.778 L 336.213 95.556 336.213 135.672 M31.783 376.107 L 32.000 480.000 135.893 480.217 L 239.787 480.433 239.787 376.323 L 239.787 272.213 135.677 272.213 L 31.567 272.213 31.783 376.107 M272.213 304.213 L 272.213 336.213 304.213 336.213 L 336.213 336.213 336.213 376.328 L 336.213 416.444 376.107 416.222 L 416.000 416.000 416.222 376.107 L 416.444 336.213 376.328 336.213 L 336.213 336.213 336.213 304.213 L 336.213 272.213 304.213 272.213 L 272.213 272.213 272.213 304.213 M431.787 296.107 L 431.787 320.000 456.107 320.000 L 480.427 320.000 480.427 296.107 L 480.427 272.213 456.107 272.213 L 431.787 272.213 431.787 296.107 M196.059 376.107 L 196.278 436.053 136.112 436.053 L 75.947 436.053 75.947 375.888 L 75.947 315.722 135.893 315.941 L 195.840 316.160 196.059 376.107 M95.778 376.107 L 96.000 416.000 135.893 416.222 L 175.787 416.444 175.787 376.328 L 175.787 336.213 135.672 336.213 L 95.556 336.213 95.778 376.107 M415.966 416.633 C 415.738 417.228,415.652 431.728,415.776 448.857 L 416.000 480.000 448.000 480.000 L 480.000 480.000 480.000 448.000 L 480.000 416.000 448.191 415.776 C 423.144 415.600,416.293 415.782,415.966 416.633 M272.213 456.107 L 272.213 480.427 296.107 480.427 L 320.000 480.427 320.000 456.107 L 320.000 431.787 296.107 431.787 L 272.213 431.787 272.213 456.107 " stroke="none" fill="black" fill-rule="evenodd"></path></svg>