<svg xmlns="http://www.w3.org/2000/svg" width="512" height="512" viewBox="0 0 512 512"><path d="M128.096 34.164 C 105.290 40.163,88.413 57.118,81.833 80.640 C 80.049 87.020,80.049 424.980,81.833 431.360 C 85.327 443.851,91.645 454.386,100.610 462.670 C 111.595 472.821,123.542 478.080,139.042 479.589 C 149.728 480.629,362.272 480.629,372.958 479.589 C 388.519 478.074,400.711 472.701,411.485 462.609 C 421.395 453.325,427.733 442.097,430.428 429.048 C 431.644 423.164,431.786 404.877,431.781 255.396 C 431.775 93.348,431.725 88.115,430.130 81.493 C 427.025 68.609,421.088 58.388,411.485 49.391 C 404.428 42.781,396.929 38.273,387.840 35.178 L 381.013 32.853 257.707 32.680 C 138.033 32.511,134.214 32.555,128.096 34.164 M381.605 67.221 C 388.634 70.681,395.042 77.424,397.806 84.270 L 399.787 89.173 399.787 256.000 L 399.787 422.827 397.806 427.730 C 395.042 434.576,388.634 441.319,381.604 444.779 L 375.929 447.573 256.000 447.573 L 136.071 447.573 130.396 444.779 C 123.366 441.319,116.958 434.576,114.194 427.730 L 112.213 422.827 112.213 256.000 L 112.213 89.173 114.179 84.308 C 117.743 75.487,126.550 67.622,135.620 65.159 C 138.651 64.336,165.852 64.137,257.725 64.263 L 375.930 64.427 381.605 67.221 M171.093 112.829 C 164.247 115.256,160.427 120.690,160.427 128.000 C 160.427 135.470,164.281 140.803,171.434 143.229 C 175.569 144.632,336.431 144.632,340.566 143.229 C 347.719 140.803,351.573 135.470,351.573 128.000 C 351.573 120.530,347.719 115.197,340.566 112.771 C 336.635 111.437,174.862 111.493,171.093 112.829 M169.288 193.633 C 164.215 195.936,161.071 200.449,160.603 206.102 C 160.105 212.108,160.743 214.369,163.979 218.055 C 169.615 224.474,162.276 224.000,256.000 224.000 C 349.724 224.000,342.385 224.474,348.021 218.055 C 351.257 214.369,351.895 212.108,351.397 206.102 C 350.929 200.449,347.785 195.936,342.712 193.633 C 339.359 192.110,335.438 192.037,256.000 192.037 C 176.562 192.037,172.641 192.110,169.288 193.633 M169.387 273.555 C 163.255 276.744,160.426 281.365,160.428 288.186 C 160.430 293.286,162.461 297.357,166.692 300.739 L 169.970 303.360 213.625 303.612 C 237.635 303.751,258.536 303.636,260.072 303.357 C 263.220 302.784,268.316 298.678,270.021 295.340 C 273.115 289.280,272.273 282.818,267.711 277.622 C 262.858 272.095,263.994 272.213,215.707 272.219 C 177.727 272.223,171.608 272.400,169.387 273.555 " stroke="none" fill="black" fill-rule="evenodd"></path></svg>