<svg xmlns="http://www.w3.org/2000/svg" width="512" height="512" viewBox="0 0 512 512"><path d="M244.476 46.937 L 233.403 58.034 263.615 88.255 L 293.826 118.475 267.020 118.362 C 237.601 118.239,230.411 118.936,212.007 123.699 C 112.610 149.423,56.391 254.237,89.781 351.573 C 107.282 402.593,148.784 443.666,200.064 460.719 C 244.204 475.397,290.818 472.426,332.618 452.269 C 375.255 431.709,408.158 394.267,422.789 349.658 C 429.334 329.701,431.787 313.834,431.787 291.447 L 431.787 278.187 416.127 278.187 L 400.467 278.187 399.957 293.760 C 399.053 321.391,394.076 341.319,382.963 361.813 C 357.359 409.029,309.329 437.760,256.000 437.760 C 207.507 437.760,163.417 414.201,136.398 373.854 C 119.947 349.287,112.311 323.963,112.311 293.973 C 112.311 278.807,113.250 271.349,116.983 256.860 C 128.843 210.827,165.545 172.045,211.409 157.081 C 228.900 151.373,235.462 150.612,267.093 150.622 C 282.816 150.627,296.429 150.932,297.344 151.301 C 298.764 151.872,294.193 156.787,266.201 184.785 L 233.395 217.600 244.698 228.903 L 256.001 240.207 307.201 189.013 L 358.400 137.819 307.416 86.829 C 279.375 58.785,256.233 35.840,255.990 35.840 C 255.747 35.840,250.566 40.834,244.476 46.937 " stroke="none" fill="black" fill-rule="evenodd"></path></svg>