<svg xmlns="http://www.w3.org/2000/svg" width="512" height="512" viewBox="0 0 512 512"><path d="M243.627 48.295 C 200.707 51.540,163.787 65.309,129.707 90.781 C 119.276 98.577,98.579 119.277,90.713 129.782 C 68.255 159.772,54.418 193.768,49.413 231.253 C 48.019 241.696,48.019 270.304,49.413 280.747 C 59.554 356.698,107.829 420.063,177.067 448.304 C 203.509 459.089,227.771 463.751,256.853 463.634 C 290.198 463.499,318.398 456.932,347.733 442.471 C 410.837 411.362,453.091 351.864,462.587 280.747 C 463.981 270.304,463.981 241.696,462.587 231.253 C 453.091 160.136,410.837 100.638,347.733 69.529 C 327.592 59.600,306.356 53.073,283.994 49.939 C 275.010 48.680,251.306 47.715,243.627 48.295 M275.447 81.114 C 347.484 88.943,408.291 141.727,426.231 212.001 C 448.394 298.823,402.945 387.270,319.249 420.197 C 293.994 430.132,262.077 434.038,234.686 430.544 C 145.853 419.214,80.213 345.046,80.213 256.000 C 80.213 167.651,145.919 92.766,233.311 81.514 C 244.096 80.125,264.562 79.931,275.447 81.114 M241.493 137.400 C 200.304 143.142,166.627 167.001,148.321 203.410 C 132.511 234.854,132.237 274.689,147.609 306.960 C 158.948 330.763,177.763 350.155,200.985 361.972 C 211.764 367.457,220.249 370.451,232.445 373.071 C 244.773 375.720,266.404 375.713,278.774 373.056 C 310.774 366.183,336.951 348.577,354.941 321.826 C 356.949 318.841,360.756 311.929,363.402 306.466 C 367.875 297.232,368.213 296.104,368.213 290.426 C 368.213 284.900,367.967 284.015,365.632 281.129 C 361.656 276.217,358.084 274.616,351.889 274.969 C 344.534 275.389,341.180 278.087,337.395 286.630 C 326.629 310.929,313.152 325.284,291.679 335.325 C 278.934 341.284,272.265 342.602,255.147 342.547 C 242.624 342.507,239.149 342.205,233.622 340.677 C 194.734 329.925,168.107 295.509,168.107 256.000 C 168.107 214.750,197.421 178.877,237.979 170.495 C 249.831 168.045,267.739 168.653,278.613 171.873 C 287.998 174.653,297.012 178.822,304.733 183.955 C 310.629 187.875,323.413 200.006,323.413 201.681 C 323.413 202.183,318.037 208.016,311.467 214.643 C 300.155 226.051,299.521 226.870,299.539 230.039 C 299.559 233.584,301.268 236.394,304.371 237.980 C 305.644 238.631,316.187 238.932,337.651 238.930 C 367.285 238.927,369.221 238.833,371.794 237.264 C 376.217 234.567,376.449 232.481,376.157 198.116 L 375.893 167.112 373.107 164.623 C 371.113 162.842,369.438 162.133,367.223 162.133 C 364.445 162.133,363.224 163.021,355.387 170.733 L 346.649 179.332 343.351 175.386 C 339.073 170.266,328.210 160.991,320.996 156.299 C 308.169 147.956,293.902 142.122,278.797 139.044 C 268.925 137.032,250.089 136.202,241.493 137.400 " stroke="none" fill="black" fill-rule="evenodd"></path></svg>