<svg xmlns="http://www.w3.org/2000/svg" width="512" height="512" viewBox="0 0 512 512"><path d="M88.807 97.921 C 87.198 98.742,84.702 100.889,83.261 102.693 C 80.920 105.622,80.640 106.585,80.640 111.715 C 80.640 118.879,83.255 123.428,88.960 126.190 L 92.699 128.000 256.000 128.000 L 419.301 128.000 423.040 126.190 C 428.745 123.428,431.360 118.879,431.360 111.715 C 431.360 106.585,431.080 105.622,428.739 102.693 C 427.298 100.889,424.802 98.742,423.193 97.921 C 420.437 96.516,410.704 96.429,256.000 96.429 C 101.296 96.429,91.563 96.516,88.807 97.921 M88.890 193.831 C 83.231 196.632,80.640 201.171,80.640 208.285 C 80.640 213.411,80.921 214.381,83.255 217.307 C 84.693 219.111,87.381 221.355,89.228 222.293 C 92.552 223.982,94.275 224.000,256.000 224.000 C 417.725 224.000,419.448 223.982,422.772 222.293 C 424.619 221.355,427.307 219.111,428.745 217.307 C 431.079 214.381,431.360 213.411,431.360 208.285 C 431.360 201.121,428.745 196.572,423.040 193.810 L 419.301 192.000 255.944 192.001 L 92.587 192.001 88.890 193.831 M88.807 289.921 C 87.198 290.742,84.702 292.889,83.261 294.693 C 80.920 297.622,80.640 298.585,80.640 303.715 C 80.640 310.879,83.255 315.428,88.960 318.190 L 92.699 320.000 256.000 320.000 L 419.301 320.000 423.040 318.190 C 428.745 315.428,431.360 310.879,431.360 303.715 C 431.360 298.585,431.080 297.622,428.739 294.693 C 427.298 292.889,424.802 290.742,423.193 289.921 C 420.437 288.516,410.704 288.429,256.000 288.429 C 101.296 288.429,91.563 288.516,88.807 289.921 M88.890 385.831 C 83.231 388.632,80.640 393.171,80.640 400.285 C 80.640 405.411,80.921 406.381,83.255 409.307 C 84.693 411.111,87.381 413.355,89.228 414.293 C 92.552 415.982,94.275 416.000,256.000 416.000 C 417.725 416.000,419.448 415.982,422.772 414.293 C 424.619 413.355,427.307 411.111,428.745 409.307 C 431.079 406.381,431.360 405.411,431.360 400.285 C 431.360 393.121,428.745 388.572,423.040 385.810 L 419.301 384.000 255.944 384.001 L 92.587 384.001 88.890 385.831 " stroke="none" fill="black" fill-rule="evenodd"></path></svg>