<svg xmlns="http://www.w3.org/2000/svg" width="512" height="512" viewBox="0 0 512 512"><path d="M98.560 90.427 C 93.463 91.365,90.900 92.614,87.187 95.969 C 82.256 100.424,79.910 106.482,80.410 113.468 C 80.629 116.540,81.450 120.292,82.233 121.807 C 84.180 125.572,88.665 129.907,92.669 131.894 C 95.928 133.511,99.458 133.547,256.000 133.547 C 412.542 133.547,416.072 133.511,419.331 131.894 C 423.335 129.907,427.820 125.572,429.767 121.807 C 430.550 120.292,431.371 116.540,431.590 113.468 C 431.913 108.966,431.619 107.021,430.080 103.442 C 427.988 98.579,423.377 93.894,418.366 91.539 C 415.324 90.110,406.538 90.020,258.560 89.912 C 172.437 89.849,100.437 90.081,98.560 90.427 M95.107 187.155 C 90.495 188.938,86.479 191.913,84.152 195.271 C 76.182 206.772,80.653 222.347,93.685 228.482 C 96.666 229.885,106.283 229.973,256.000 229.973 C 406.566 229.973,415.320 229.892,418.366 228.461 C 423.377 226.106,427.988 221.421,430.080 216.558 C 431.619 212.979,431.913 211.034,431.590 206.532 C 431.371 203.460,430.550 199.708,429.767 198.193 C 427.820 194.428,423.335 190.093,419.331 188.106 C 416.076 186.491,412.390 186.450,256.853 186.301 C 136.451 186.187,97.074 186.394,95.107 187.155 M98.560 282.427 C 93.463 283.365,90.900 284.614,87.187 287.969 C 82.256 292.424,79.910 298.482,80.410 305.468 C 80.629 308.540,81.450 312.292,82.233 313.807 C 84.180 317.572,88.665 321.907,92.669 323.894 C 95.928 325.511,99.458 325.547,256.000 325.547 C 412.542 325.547,416.072 325.511,419.331 323.894 C 423.335 321.907,427.820 317.572,429.767 313.807 C 430.550 312.292,431.371 308.540,431.590 305.468 C 431.913 300.966,431.619 299.021,430.080 295.442 C 427.988 290.579,423.377 285.894,418.366 283.539 C 415.324 282.110,406.538 282.020,258.560 281.912 C 172.437 281.849,100.437 282.081,98.560 282.427 M95.107 379.155 C 90.495 380.938,86.479 383.913,84.152 387.271 C 76.182 398.772,80.653 414.347,93.685 420.482 C 96.666 421.885,106.283 421.973,256.000 421.973 C 406.566 421.973,415.320 421.892,418.366 420.461 C 423.377 418.106,427.988 413.421,430.080 408.558 C 431.619 404.979,431.913 403.034,431.590 398.532 C 431.371 395.460,430.550 391.708,429.767 390.193 C 427.820 386.428,423.335 382.093,419.331 380.106 C 416.076 378.491,412.390 378.450,256.853 378.301 C 136.451 378.187,97.074 378.394,95.107 379.155 " stroke="none" fill="black" fill-rule="evenodd"></path></svg>