<svg xmlns="http://www.w3.org/2000/svg" width="512" height="512" viewBox="0 0 512 512"><path d="M297.387 81.555 C 291.255 84.744,288.426 89.365,288.428 96.186 C 288.430 101.286,290.461 105.357,294.692 108.739 L 297.970 111.360 337.759 111.598 L 377.548 111.837 244.881 244.507 L 112.213 377.177 111.787 337.573 L 111.360 297.970 108.739 294.692 C 105.318 290.411,101.286 288.429,96.000 288.429 C 90.714 288.429,86.682 290.411,83.261 294.692 L 80.640 297.971 80.410 358.907 C 80.189 417.484,80.243 419.967,81.813 423.041 C 83.681 426.702,85.458 428.436,89.376 430.420 C 91.874 431.685,98.002 431.798,153.084 431.590 L 214.029 431.360 217.308 428.739 C 221.589 425.318,223.571 421.286,223.571 416.000 C 223.571 410.714,221.589 406.682,217.308 403.261 L 214.030 400.640 174.427 400.213 L 134.823 399.787 267.493 267.119 L 400.163 134.452 400.402 174.241 L 400.640 214.030 403.261 217.308 C 406.682 221.589,410.714 223.571,416.000 223.571 C 421.286 223.571,425.318 221.589,428.739 217.308 L 431.360 214.029 431.590 153.084 C 431.798 98.002,431.685 91.874,430.420 89.376 C 428.439 85.465,426.703 83.681,423.074 81.829 C 420.056 80.289,417.107 80.214,359.927 80.219 C 307.251 80.223,299.635 80.386,297.387 81.555 " stroke="none" fill="black" fill-rule="evenodd"></path></svg>