<svg xmlns="http://www.w3.org/2000/svg" width="512" height="512" viewBox="0 0 512 512"><path d="M41.387 145.555 C 37.603 147.523,34.924 150.244,33.519 153.546 C 31.702 157.815,31.251 170.017,32.336 185.600 C 33.825 207.012,37.295 219.931,46.201 237.227 C 52.643 249.735,59.886 259.396,70.639 269.821 C 86.880 285.567,105.256 295.559,128.853 301.475 C 136.091 303.289,136.420 303.294,280.688 303.559 L 425.268 303.825 405.602 323.646 C 384.472 344.942,383.394 346.463,384.224 353.823 C 385.348 363.795,396.404 370.452,405.918 366.886 C 409.132 365.681,476.854 298.165,478.382 294.641 C 479.908 291.123,479.908 284.877,478.382 281.359 C 476.854 277.835,409.132 210.319,405.918 209.114 C 396.404 205.548,385.348 212.205,384.224 222.177 C 383.394 229.538,384.471 231.057,405.621 252.373 L 425.306 272.213 288.364 272.213 C 198.684 272.213,148.926 271.907,144.191 271.325 C 123.313 268.761,105.097 259.618,90.425 244.341 C 81.952 235.519,78.066 229.888,72.841 218.859 C 66.255 204.955,64.753 197.304,64.119 174.442 C 63.578 154.924,63.553 154.720,61.283 151.292 C 57.190 145.112,47.572 142.338,41.387 145.555 " stroke="none" fill="black" fill-rule="evenodd"></path></svg>