<svg xmlns="http://www.w3.org/2000/svg" width="512" height="512" viewBox="0 0 512 512"><path d="M243.200 48.291 C 189.307 52.936,145.591 72.806,109.198 109.198 C 75.814 142.582,55.864 183.304,49.403 231.253 C 47.996 241.696,47.996 270.304,49.403 280.747 C 55.866 328.705,75.852 369.495,109.198 402.781 C 142.761 436.282,182.341 455.687,231.253 462.621 C 235.243 463.187,246.379 463.649,256.000 463.649 C 284.931 463.649,308.731 459.018,334.933 448.289 C 361.056 437.593,386.578 420.224,405.701 400.129 C 437.387 366.832,455.931 327.939,462.621 280.747 C 463.187 276.757,463.649 265.621,463.649 256.000 C 463.649 227.171,459.011 203.251,448.395 177.325 C 432.022 137.342,403.062 103.108,365.227 79.011 C 343.385 65.100,312.181 53.926,283.992 49.922 C 275.151 48.666,250.352 47.675,243.200 48.291 M232.107 160.000 L 232.107 175.787 209.280 175.805 C 188.518 175.822,186.123 175.974,182.798 177.483 C 180.007 178.750,178.750 180.007,177.483 182.798 C 175.974 186.123,175.822 188.518,175.805 209.280 L 175.787 232.107 160.000 232.107 L 144.213 232.107 144.213 207.113 C 144.213 179.433,144.644 176.202,149.573 166.906 C 154.758 157.127,165.699 148.530,176.736 145.562 C 180.238 144.620,187.381 144.312,206.720 144.269 L 232.107 144.213 232.107 160.000 M334.898 145.520 C 350.209 149.508,362.492 161.791,366.480 177.102 C 367.509 181.054,367.787 187.422,367.787 207.113 L 367.787 232.107 352.000 232.107 L 336.213 232.107 336.195 209.280 C 336.178 188.518,336.026 186.123,334.517 182.798 C 333.250 180.007,331.993 178.750,329.202 177.483 C 325.877 175.974,323.482 175.822,302.720 175.805 L 279.893 175.787 279.893 160.000 L 279.893 144.213 304.887 144.213 C 324.578 144.213,330.946 144.491,334.898 145.520 M175.805 302.720 C 175.822 323.482,175.974 325.877,177.483 329.202 C 178.750 331.993,180.007 333.250,182.798 334.517 C 186.123 336.026,188.518 336.178,209.280 336.195 L 232.107 336.213 232.107 352.000 L 232.107 367.787 207.113 367.787 C 187.422 367.787,181.054 367.509,177.102 366.480 C 161.860 362.510,149.490 350.140,145.520 334.898 C 144.491 330.946,144.213 324.578,144.213 304.887 L 144.213 279.893 160.000 279.893 L 175.787 279.893 175.805 302.720 M367.787 304.887 C 367.787 324.578,367.509 330.946,366.480 334.898 C 362.492 350.209,350.209 362.492,334.898 366.480 C 330.946 367.509,324.578 367.787,304.887 367.787 L 279.893 367.787 279.893 352.000 L 279.893 336.213 302.720 336.195 C 323.482 336.178,325.877 336.026,329.202 334.517 C 331.993 333.250,333.250 331.993,334.517 329.202 C 336.026 325.877,336.178 323.482,336.195 302.720 L 336.213 279.893 352.000 279.893 L 367.787 279.893 367.787 304.887 " stroke="none" fill="black" fill-rule="evenodd"></path></svg>