<svg xmlns="http://www.w3.org/2000/svg" width="512" height="512" viewBox="0 0 512 512"><path d="M251.733 48.542 C 249.839 49.159,32.952 172.720,24.249 178.139 C 19.566 181.055,16.899 185.167,16.413 190.220 C 15.880 195.772,17.365 199.838,21.172 203.250 C 22.908 204.807,75.399 235.254,137.818 270.912 C 250.294 335.165,251.349 335.743,256.000 335.744 C 260.647 335.745,261.677 335.183,361.205 278.300 C 418.697 245.441,462.244 221.058,462.951 221.329 C 464.014 221.737,464.218 232.383,464.413 297.631 L 464.640 373.459 466.696 376.460 C 470.179 381.542,473.978 383.573,480.000 383.573 C 486.628 383.573,491.294 380.796,493.977 375.254 C 495.787 371.515,495.787 371.512,495.787 280.023 C 495.787 179.680,496.081 185.282,490.563 180.467 C 488.958 179.066,436.722 148.831,374.483 113.277 C 256.412 45.831,257.800 46.563,251.733 48.542 M99.039 286.507 C 98.025 287.328,96.840 289.536,96.405 291.413 C 95.326 296.068,95.349 364.664,96.431 370.368 C 96.902 372.855,98.237 376.134,99.398 377.655 C 100.989 379.741,119.909 390.652,176.407 422.066 C 249.633 462.780,251.412 463.711,256.000 463.731 C 260.614 463.751,261.961 463.046,335.360 422.263 C 391.246 391.210,410.613 380.051,412.357 377.899 C 413.737 376.196,415.041 373.154,415.557 370.435 C 416.650 364.667,416.684 296.113,415.595 291.413 C 414.636 287.276,412.068 285.013,408.329 285.013 C 406.214 285.013,388.170 294.947,333.544 326.187 L 261.547 367.360 256.000 367.353 L 250.453 367.345 178.518 326.179 C 102.864 282.885,103.263 283.085,99.039 286.507 " stroke="none" fill="black" fill-rule="evenodd"></path></svg>