<svg xmlns="http://www.w3.org/2000/svg" width="512" height="512" viewBox="0 0 512 512"><path d="M207.360 48.651 C 165.005 53.064,128.624 70.159,99.383 99.387 C 72.685 126.074,55.513 160.111,49.863 197.547 C 47.773 211.391,47.773 234.049,49.863 247.893 C 61.403 324.353,121.045 383.997,197.547 395.582 C 210.691 397.573,234.677 397.614,247.627 395.667 C 273.220 391.821,297.625 382.519,318.395 368.695 L 327.253 362.799 375.467 410.910 C 428.661 463.993,427.129 462.716,437.738 462.800 C 451.770 462.911,462.911 451.770,462.800 437.738 C 462.716 427.125,464.001 428.666,410.872 375.467 L 362.722 327.253 367.174 320.789 C 381.565 299.897,391.641 273.947,395.645 247.467 C 397.670 234.080,397.639 211.204,395.577 197.547 C 384.021 120.980,324.204 61.146,248.015 49.944 C 236.585 48.264,217.045 47.642,207.360 48.651 M250.027 100.975 C 274.541 106.791,292.939 117.045,310.667 134.773 C 328.528 152.635,339.379 172.405,344.884 197.120 C 346.602 204.831,346.880 208.399,346.880 222.720 C 346.880 237.041,346.602 240.609,344.884 248.320 C 339.380 273.030,328.532 292.797,310.667 310.672 C 292.462 328.886,272.537 339.654,246.613 345.288 C 235.602 347.682,209.137 347.511,197.817 344.973 C 172.262 339.244,152.936 328.712,134.783 310.623 C 116.647 292.550,105.813 272.522,100.158 246.613 C 97.676 235.242,97.880 209.117,100.543 197.222 C 106.179 172.050,116.712 152.835,134.773 134.773 C 155.076 114.470,177.929 103.169,207.787 98.667 C 209.195 98.454,217.259 98.408,225.707 98.565 C 238.430 98.800,242.605 99.214,250.027 100.975 " stroke="none" fill="black" fill-rule="evenodd"></path></svg>