<svg xmlns="http://www.w3.org/2000/svg" width="512" height="512" viewBox="0 0 512 512"><path d="M208.897 26.453 C 203.688 27.362,196.835 31.128,193.521 34.902 C 188.363 40.777,187.255 44.834,183.484 71.662 C 181.539 85.497,179.875 96.875,179.787 96.946 C 179.699 97.017,177.517 98.135,174.938 99.431 C 172.359 100.727,167.241 103.653,163.564 105.933 C 159.887 108.214,156.384 110.080,155.781 110.080 C 155.178 110.080,144.815 106.070,132.753 101.169 C 120.691 96.268,108.829 91.844,106.392 91.338 C 97.909 89.577,87.805 92.924,82.143 99.371 C 78.424 103.606,34.481 179.281,33.251 183.568 C 31.959 188.073,32.274 196.290,33.916 200.894 C 36.075 206.951,40.003 210.776,60.959 227.226 L 79.677 241.920 79.704 256.137 L 79.731 270.354 59.395 286.340 C 34.421 305.973,32.442 308.569,32.432 321.707 C 32.429 326.067,32.953 328.348,34.883 332.373 C 39.977 342.995,78.481 408.493,81.935 412.412 C 87.439 418.655,92.762 421.065,101.120 421.095 C 107.857 421.120,108.263 420.993,132.030 411.454 L 156.113 401.788 163.638 406.442 C 167.776 409.002,173.163 412.110,175.608 413.349 C 178.053 414.588,180.053 415.711,180.053 415.844 C 180.053 415.977,181.599 427.202,183.489 440.790 C 186.510 462.513,187.233 466.128,189.480 470.754 C 192.438 476.844,196.389 480.627,203.054 483.754 L 207.787 485.973 252.160 486.237 C 282.473 486.417,298.290 486.194,302.078 485.535 C 308.692 484.384,314.875 481.203,318.479 477.098 C 323.637 471.223,324.745 467.166,328.516 440.338 C 330.461 426.503,332.125 415.125,332.213 415.054 C 332.301 414.983,334.483 413.865,337.062 412.569 C 339.641 411.273,344.759 408.347,348.436 406.067 C 352.113 403.786,355.614 401.920,356.216 401.920 C 356.818 401.920,367.249 405.950,379.396 410.875 C 391.543 415.800,403.509 420.205,405.986 420.663 C 414.599 422.255,424.258 419.004,429.857 412.629 C 433.576 408.394,477.519 332.719,478.749 328.432 C 480.041 323.927,479.726 315.710,478.084 311.106 C 475.923 305.043,471.989 301.216,451.013 284.768 L 432.265 270.068 432.201 255.909 L 432.138 241.751 452.525 225.734 C 478.034 205.694,480.250 202.655,479.376 188.906 C 478.918 181.700,479.696 183.224,452.435 136.107 C 442.116 118.272,432.050 101.839,430.066 99.588 C 424.561 93.344,419.238 90.935,410.880 90.905 C 404.143 90.880,403.737 91.007,379.970 100.546 L 355.887 110.212 348.362 105.558 C 344.224 102.998,338.837 99.890,336.392 98.651 C 333.947 97.412,331.947 96.289,331.947 96.156 C 331.947 96.023,330.391 84.798,328.490 71.210 C 324.781 44.705,323.712 40.862,318.347 34.752 C 316.829 33.023,313.037 30.353,309.920 28.818 L 304.253 26.027 258.580 25.890 C 233.460 25.815,211.102 26.068,208.897 26.453 M294.413 58.667 C 294.420 59.019,295.915 69.706,297.734 82.416 C 301.538 109.003,302.619 112.234,310.059 119.271 C 312.564 121.639,317.457 125.007,320.933 126.755 C 324.409 128.502,330.152 131.789,333.695 134.058 C 344.322 140.865,347.541 142.021,355.840 142.009 C 363.075 141.998,363.152 141.975,385.644 132.875 C 398.047 127.857,408.271 123.843,408.362 123.955 C 408.454 124.068,417.047 138.910,427.457 156.938 C 442.697 183.331,446.167 189.912,445.272 190.727 C 444.660 191.283,436.250 197.924,426.583 205.485 C 416.916 213.046,407.918 220.658,406.589 222.402 C 405.259 224.145,403.290 227.713,402.213 230.332 C 400.427 234.673,400.250 236.450,400.206 250.453 C 400.179 258.901,399.824 268.396,399.417 271.553 C 398.587 277.995,399.322 282.544,401.720 285.801 C 402.611 287.010,412.908 295.551,424.603 304.779 C 436.531 314.192,445.744 322.053,445.587 322.685 C 445.006 325.025,408.510 387.413,407.722 387.413 C 407.269 387.413,397.234 383.519,385.422 378.759 C 367.058 371.358,363.072 370.045,357.906 369.696 C 349.889 369.154,344.496 370.802,335.235 376.624 C 331.177 379.175,324.649 382.925,320.728 384.957 C 316.752 387.019,311.784 390.459,309.494 392.739 C 302.732 399.467,301.574 403.071,297.765 429.242 C 295.914 441.955,294.400 452.721,294.400 453.165 C 294.400 454.131,217.607 454.299,217.587 453.333 C 217.580 452.981,216.085 442.294,214.266 429.584 C 210.462 403.000,209.381 399.766,201.945 392.733 C 199.442 390.366,194.958 387.200,191.980 385.697 C 189.002 384.193,183.189 380.875,179.063 378.323 C 167.087 370.914,164.508 369.978,156.160 370.003 C 148.941 370.026,148.801 370.069,126.349 379.131 C 113.942 384.138,103.719 388.146,103.631 388.038 C 101.807 385.788,65.797 322.185,66.148 321.834 C 66.424 321.558,74.952 314.792,85.099 306.799 C 111.816 285.754,111.787 285.810,111.787 256.000 C 111.787 233.968,111.181 230.613,105.952 223.653 C 103.918 220.946,95.774 213.873,84.190 204.752 C 74.009 196.735,65.820 189.914,65.992 189.594 C 72.905 176.759,103.709 124.587,104.374 124.587 C 104.893 124.587,114.898 128.461,126.606 133.196 C 144.642 140.490,148.827 141.876,153.990 142.266 C 162.100 142.880,167.499 141.236,177.031 135.252 C 181.189 132.641,187.698 128.895,191.496 126.926 C 195.293 124.958,200.248 121.509,202.506 119.261 C 209.268 112.533,210.426 108.929,214.235 82.758 C 216.086 70.045,217.600 59.279,217.600 58.835 C 217.600 57.869,294.393 57.701,294.413 58.667 M245.973 176.643 C 213.159 181.239,186.932 204.430,178.623 236.196 C 175.820 246.915,175.482 262.313,177.824 272.640 C 181.400 288.408,188.275 300.871,199.702 312.298 C 208.334 320.929,215.145 325.491,226.133 330.001 C 246.778 338.474,271.417 337.584,291.164 327.650 C 312.544 316.895,327.365 298.698,333.390 275.804 C 336.510 263.948,336.512 248.060,333.396 236.218 C 329.673 222.073,322.748 210.034,312.357 199.643 C 301.969 189.255,289.759 182.229,276.056 178.753 C 267.006 176.457,253.876 175.536,245.973 176.643 M267.525 209.530 C 276.295 211.815,283.239 215.805,289.717 222.283 C 308.649 241.215,308.646 270.772,289.709 289.709 C 280.300 299.117,269.119 303.787,256.000 303.787 C 234.100 303.787,214.932 288.848,209.509 267.554 C 203.154 242.602,218.891 216.182,244.053 209.561 C 250.299 207.917,261.276 207.903,267.525 209.530 " stroke="none" fill="black" fill-rule="evenodd"></path></svg>