<svg xmlns="http://www.w3.org/2000/svg" width="512" height="512" viewBox="0 0 512 512"><path d="M207.504 26.430 C 203.955 27.291,199.973 31.026,198.914 34.487 C 198.471 35.935,196.275 50.439,194.032 66.719 L 189.955 96.317 179.671 101.507 C 174.015 104.362,165.185 109.514,160.051 112.956 L 150.714 119.215 121.379 107.394 C 104.415 100.559,90.861 95.573,89.241 95.573 C 83.354 95.573,81.708 97.700,64.142 128.014 C 30.799 185.555,32.427 182.531,32.427 186.930 C 32.427 189.624,32.980 191.620,34.132 193.085 C 35.070 194.277,46.686 203.731,59.946 214.094 L 84.053 232.934 83.980 256.200 L 83.907 279.466 59.660 298.417 C 46.324 308.840,34.743 318.440,33.924 319.751 C 33.105 321.062,32.434 323.801,32.431 325.844 C 32.427 329.152,34.976 333.964,55.933 370.217 C 70.008 394.564,80.617 411.993,82.374 413.653 C 87.273 418.284,88.779 417.945,121.696 404.788 L 150.816 393.150 161.318 400.169 C 167.093 404.030,175.898 409.157,180.884 411.564 L 189.949 415.940 194.285 446.989 C 198.894 479.989,198.963 480.248,204.275 484.214 C 206.592 485.943,207.470 485.973,256.000 485.973 C 304.530 485.973,305.408 485.943,307.725 484.214 C 312.955 480.309,313.034 480.015,317.716 446.892 L 322.133 415.638 332.373 410.521 C 338.005 407.707,346.800 402.562,351.918 399.089 L 361.223 392.773 390.745 404.659 C 422.555 417.466,424.069 417.836,429.153 414.058 C 430.381 413.145,438.688 399.781,447.887 383.916 C 481.223 326.427,479.573 329.497,479.573 324.942 C 479.573 319.423,478.895 318.758,451.040 296.999 L 428.053 279.043 428.000 255.884 L 427.947 232.725 452.729 213.306 C 467.204 201.963,477.940 192.945,478.542 191.623 C 481.295 185.581,481.093 185.134,456.071 141.811 C 441.915 117.301,431.401 100.017,429.631 98.347 C 424.725 93.718,423.217 94.057,390.370 107.185 L 361.316 118.798 351.538 112.257 C 346.160 108.659,337.320 103.529,331.894 100.858 L 322.029 96.000 317.936 66.133 C 313.521 33.921,312.654 30.615,307.858 27.715 C 305.174 26.092,303.247 26.021,257.707 25.884 C 231.659 25.805,209.068 26.051,207.504 26.430 M276.015 178.742 C 291.360 182.635,307.127 192.634,317.414 204.997 C 324.062 212.986,331.316 227.460,333.780 237.653 C 337.562 253.294,335.897 272.412,329.429 287.609 C 321.743 305.673,305.673 321.743,287.609 329.429 C 267.780 337.867,244.220 337.867,224.391 329.429 C 205.686 321.470,189.423 304.780,181.820 285.742 C 177.766 275.591,176.382 268.023,176.382 256.000 C 176.382 233.569,183.880 215.400,199.640 199.640 C 212.959 186.321,227.231 179.422,247.893 176.316 C 253.439 175.482,268.175 176.753,276.015 178.742 " stroke="none" fill="black" fill-rule="evenodd"></path></svg>