<svg xmlns="http://www.w3.org/2000/svg" width="512" height="512" viewBox="0 0 512 512"><path d="M176.701 33.921 C 175.091 34.742,172.742 36.757,171.479 38.400 C 170.217 40.043,134.861 102.827,92.912 177.920 L 16.640 314.453 16.640 320.063 C 16.640 326.739,18.839 330.687,24.305 333.821 L 27.733 335.787 183.893 335.787 C 336.393 335.787,340.131 335.748,343.368 334.141 C 348.218 331.735,351.573 326.040,351.573 320.217 C 351.573 317.677,350.955 314.436,350.181 312.918 C 343.544 299.897,197.220 39.107,195.514 37.257 C 194.285 35.925,192.243 34.293,190.976 33.630 C 187.773 31.957,180.252 32.110,176.701 33.921 M318.293 160.839 C 317.589 161.006,314.037 161.613,310.400 162.186 C 306.763 162.759,303.787 163.397,303.787 163.604 C 303.787 163.811,320.746 194.327,341.473 231.417 C 362.201 268.507,380.122 301.403,381.300 304.520 C 384.122 311.992,384.453 326.346,381.972 333.653 C 377.651 346.378,369.434 356.411,358.748 362.008 C 347.223 368.045,351.501 367.787,263.017 367.787 L 183.352 367.787 183.921 369.707 C 184.234 370.763,185.846 375.083,187.504 379.307 C 203.609 420.338,236.165 452.461,278.837 469.424 C 288.066 473.093,305.946 477.497,316.659 478.740 C 329.894 480.276,354.604 479.441,366.460 477.058 C 412.184 467.867,451.493 439.730,474.573 399.672 C 489.694 373.427,496.606 345.341,495.543 314.466 C 494.608 287.326,487.401 262.048,474.205 239.626 C 450.688 199.667,412.078 172.181,366.460 162.924 C 358.839 161.377,353.665 160.983,338.347 160.781 C 328.021 160.645,318.997 160.671,318.293 160.839 " stroke="none" fill="black" fill-rule="evenodd"></path></svg>