<svg xmlns="http://www.w3.org/2000/svg" width="512" height="512" viewBox="0 0 512 512"><path d="M248.320 34.112 C 243.617 36.646,163.315 117.571,161.743 121.359 C 157.769 130.938,163.814 142.040,173.605 143.144 C 182.375 144.132,181.426 144.843,211.840 114.515 L 239.787 86.648 239.787 131.217 L 239.787 175.787 186.240 175.816 C 129.333 175.848,125.076 176.100,115.217 180.027 C 103.277 184.783,91.960 195.177,86.208 206.670 C 79.843 219.386,80.131 213.246,80.400 330.667 L 80.640 435.627 82.926 441.886 C 86.151 450.713,90.005 456.789,96.501 463.285 C 106.196 472.980,117.030 478.117,130.854 479.574 C 141.273 480.672,370.727 480.672,381.146 479.574 C 394.993 478.115,406.017 472.893,415.543 463.279 C 422.020 456.743,425.871 450.654,429.074 441.886 L 431.360 435.627 431.600 330.667 C 431.870 212.916,432.173 219.212,425.630 206.451 C 419.668 194.823,408.695 184.772,396.783 180.027 C 386.924 176.100,382.667 175.848,325.760 175.816 L 272.213 175.787 272.213 131.217 L 272.213 86.648 300.160 114.515 C 330.574 144.843,329.625 144.132,338.395 143.144 C 348.111 142.049,354.201 130.865,350.257 121.359 C 348.622 117.418,268.223 36.528,263.501 34.073 C 259.381 31.931,252.333 31.949,248.320 34.112 M272.209 248.960 C 272.205 296.662,271.897 323.238,271.322 325.307 C 269.537 331.735,262.617 337.029,256.000 337.029 C 249.383 337.029,242.463 331.735,240.678 325.307 C 240.103 323.238,239.795 296.662,239.791 248.960 L 239.787 175.787 256.000 175.787 L 272.213 175.787 272.209 248.960 " stroke="none" fill="black" fill-rule="evenodd"></path></svg>