<svg xmlns="http://www.w3.org/2000/svg" width="512" height="512" viewBox="0 0 512 512"><path d="M392.962 97.771 C 391.555 98.505,389.677 99.750,388.788 100.539 C 386.574 102.505,384.040 108.258,384.023 111.360 C 383.989 117.703,385.530 120.119,397.389 132.310 L 408.968 144.213 381.154 144.213 C 357.248 144.213,352.168 144.443,344.990 145.845 C 324.428 149.863,306.811 159.566,292.758 174.614 C 285.424 182.467,273.352 200.278,272.582 204.380 C 270.649 214.684,277.662 223.569,287.731 223.572 C 295.730 223.575,298.035 221.803,306.607 209.067 C 316.793 193.931,325.570 186.223,338.701 180.879 C 349.202 176.605,356.522 175.787,384.222 175.787 L 408.968 175.787 397.389 187.690 C 385.530 199.881,383.989 202.297,384.023 208.640 C 384.045 212.610,386.904 217.978,390.426 220.665 C 393.044 222.661,394.649 223.159,399.266 223.407 C 404.385 223.681,405.262 223.470,408.747 221.131 C 414.000 217.604,460.214 170.967,462.135 167.253 C 463.023 165.538,463.681 162.450,463.681 160.000 C 463.681 157.550,463.023 154.462,462.135 152.747 C 460.213 149.033,413.975 102.371,408.814 98.937 C 405.762 96.907,404.130 96.428,400.280 96.432 C 397.634 96.435,394.384 97.029,392.962 97.771 M57.584 145.403 C 52.845 147.468,47.796 154.997,47.796 160.000 C 47.796 162.745,49.950 167.715,52.300 170.390 C 57.156 175.921,55.805 175.787,106.527 175.787 C 157.378 175.787,162.101 176.152,173.723 180.991 C 181.270 184.132,190.179 190.270,195.537 196.017 C 197.717 198.355,207.859 212.808,218.075 228.134 L 236.650 256.000 218.075 283.866 C 207.859 299.192,197.717 313.645,195.537 315.983 C 190.179 321.730,181.270 327.868,173.723 331.009 C 162.101 335.848,157.378 336.213,106.527 336.213 C 55.805 336.213,57.156 336.079,52.300 341.610 C 49.950 344.285,47.796 349.255,47.796 352.000 C 47.796 357.112,52.900 364.598,57.773 366.634 C 62.062 368.426,154.672 368.297,165.222 366.484 C 185.465 363.006,202.654 354.021,217.204 339.314 C 223.353 333.098,228.007 326.899,240.192 308.693 C 248.595 296.139,255.709 285.867,256.000 285.867 C 256.291 285.867,263.405 296.139,271.808 308.693 C 283.993 326.899,288.647 333.098,294.796 339.314 C 309.346 354.021,326.535 363.006,346.778 366.484 C 352.496 367.467,361.063 367.787,381.662 367.787 L 408.968 367.787 397.389 379.690 C 385.530 391.881,383.989 394.297,384.023 400.640 C 384.045 404.610,386.904 409.978,390.426 412.665 C 393.044 414.661,394.649 415.159,399.266 415.407 C 404.385 415.681,405.262 415.470,408.747 413.131 C 414.000 409.604,460.214 362.967,462.135 359.253 C 464.138 355.384,464.138 348.616,462.135 344.747 C 460.214 341.033,414.000 294.396,408.747 290.869 C 405.262 288.530,404.385 288.319,399.266 288.593 C 394.649 288.841,393.044 289.339,390.426 291.335 C 386.904 294.022,384.045 299.390,384.023 303.360 C 383.989 309.703,385.530 312.119,397.389 324.310 L 408.968 336.213 384.222 336.213 C 356.522 336.213,349.202 335.395,338.701 331.121 C 330.849 327.926,322.373 322.199,316.848 316.356 C 314.528 313.901,293.025 282.517,269.065 246.613 C 239.634 202.510,223.652 179.339,219.799 175.184 C 205.422 159.682,187.821 149.898,167.010 145.841 C 159.371 144.352,154.461 144.216,109.410 144.247 C 70.639 144.273,59.612 144.519,57.584 145.403 " stroke="none" fill="black" fill-rule="evenodd"></path></svg>