<svg xmlns="http://www.w3.org/2000/svg" width="512" height="512" viewBox="0 0 512 512"><path d="M231.004 17.460 C 160.804 26.355,100.396 69.456,69.500 132.693 C 62.037 147.968,58.128 158.350,54.688 172.033 C 48.150 198.043,47.787 204.725,47.787 299.125 L 47.787 378.695 88.934 395.214 L 130.081 411.733 138.385 453.120 C 142.953 475.883,146.709 494.795,146.732 495.147 C 146.755 495.499,156.949 495.787,169.387 495.787 L 192.000 495.787 192.000 463.787 L 192.000 431.787 207.787 431.787 L 223.573 431.787 223.573 463.787 L 223.573 495.787 231.680 495.787 L 239.787 495.787 239.787 463.787 L 239.787 431.787 256.000 431.787 L 272.213 431.787 272.213 463.787 L 272.213 495.787 280.320 495.787 L 288.427 495.787 288.427 463.787 L 288.427 431.787 304.213 431.787 L 320.000 431.787 320.000 463.787 L 320.000 495.787 342.613 495.787 C 355.051 495.787,365.245 495.499,365.268 495.147 C 365.291 494.795,369.047 475.883,373.615 453.120 L 381.919 411.733 423.114 395.195 L 464.309 378.657 463.995 291.942 C 463.692 208.094,463.621 204.851,461.846 193.870 C 452.067 133.363,419.305 82.549,368.640 49.304 C 358.231 42.474,339.432 33.042,327.376 28.602 C 316.853 24.726,299.301 20.199,287.573 18.335 C 275.332 16.390,243.354 15.895,231.004 17.460 M180.225 225.352 C 182.712 225.861,188.361 228.011,192.778 230.131 C 199.329 233.275,202.025 235.202,207.412 240.588 C 212.798 245.975,214.725 248.671,217.869 255.222 C 222.462 264.793,223.578 269.679,223.561 280.149 C 223.534 296.637,217.719 309.972,205.706 321.095 C 195.250 330.774,182.880 335.641,168.533 335.717 C 158.320 335.772,152.883 334.563,143.787 330.217 C 132.137 324.651,123.414 315.923,117.796 304.213 C 113.455 295.163,112.238 289.723,112.264 279.467 C 112.303 263.897,117.560 251.709,129.196 240.212 C 136.656 232.841,143.462 228.789,152.930 226.082 C 159.160 224.301,173.245 223.924,180.225 225.352 M362.502 227.196 C 379.213 233.128,392.460 247.156,397.759 264.533 C 399.314 269.633,399.697 272.840,399.645 280.320 C 399.535 296.017,394.542 308.013,383.441 319.253 C 376.741 326.037,369.732 330.359,360.533 333.377 C 351.131 336.462,337.927 336.619,328.533 333.757 C 311.152 328.462,297.088 315.176,291.212 298.502 C 289.558 293.809,288.915 289.996,288.611 283.087 C 288.091 271.275,289.281 265.249,294.114 255.222 C 299.383 244.292,307.819 235.703,318.472 230.425 C 328.809 225.302,332.971 224.429,345.600 224.729 C 354.486 224.941,357.308 225.352,362.502 227.196 M279.995 359.153 C 286.510 380.453,291.840 398.405,291.840 399.047 C 291.840 400.015,285.739 400.213,256.000 400.213 C 226.069 400.213,220.160 400.019,220.160 399.034 C 220.160 398.148,241.548 327.112,243.642 321.043 C 243.928 320.212,246.887 320.009,256.084 320.190 L 268.150 320.427 279.995 359.153 " stroke="none" fill="black" fill-rule="evenodd"></path></svg>