<svg xmlns="http://www.w3.org/2000/svg" width="512" height="512" viewBox="0 0 512 512"><path d="M233.813 43.520 C 233.813 61.083,233.510 70.827,232.963 70.827 C 231.278 70.827,221.331 67.121,216.320 64.626 C 213.504 63.224,206.879 59.437,201.598 56.212 C 196.317 52.986,191.650 50.347,191.227 50.347 C 190.675 50.347,170.792 82.417,168.448 87.088 C 168.113 87.757,190.179 100.823,198.680 104.990 C 206.672 108.907,217.436 112.594,227.200 114.759 L 233.813 116.225 233.813 166.997 L 233.813 217.769 231.040 216.143 C 229.515 215.248,210.027 204.010,187.733 191.168 C 165.440 178.326,146.921 167.586,146.580 167.300 C 146.239 167.015,146.891 164.031,148.028 160.670 C 152.643 147.031,154.453 133.200,154.453 111.596 L 154.453 95.573 147.763 95.573 C 144.084 95.573,134.100 95.826,125.577 96.135 L 110.080 96.696 110.080 113.664 C 110.080 125.841,109.697 132.489,108.724 137.209 C 107.978 140.827,107.243 143.914,107.090 144.069 C 106.938 144.225,95.001 137.553,80.565 129.244 C 56.748 115.535,54.219 114.272,53.245 115.603 C 51.019 118.647,32.190 151.940,32.514 152.258 C 32.701 152.441,44.373 159.220,58.453 167.322 C 72.533 175.424,84.217 182.183,84.418 182.342 C 85.050 182.843,79.985 187.732,74.718 191.706 C 71.931 193.809,64.155 198.616,57.438 202.389 C 50.722 206.161,45.227 209.410,45.227 209.608 C 45.227 210.498,65.948 247.467,66.447 247.467 C 67.620 247.467,91.994 233.442,98.111 229.247 C 101.635 226.831,108.938 220.513,114.339 215.207 C 123.910 205.806,124.217 205.589,126.415 206.674 C 131.160 209.016,211.565 255.595,211.562 256.000 C 211.558 256.395,128.915 304.233,125.629 305.741 C 124.485 306.267,121.990 304.288,114.339 296.781 C 108.938 291.482,101.635 285.169,98.111 282.753 C 91.994 278.558,67.620 264.533,66.447 264.533 C 65.948 264.533,45.227 301.502,45.227 302.392 C 45.227 302.590,50.722 305.839,57.438 309.611 C 64.155 313.384,71.931 318.191,74.718 320.294 C 79.994 324.274,85.048 329.155,84.418 329.662 C 84.217 329.824,72.443 336.644,58.253 344.818 C 44.063 352.992,32.447 359.930,32.440 360.235 C 32.423 360.933,52.741 396.107,53.748 397.123 C 54.172 397.551,65.697 391.399,80.653 382.761 C 95.042 374.450,106.940 367.777,107.092 367.932 C 107.244 368.087,107.978 371.173,108.724 374.791 C 109.697 379.511,110.080 386.159,110.080 398.336 L 110.080 415.304 125.577 415.865 C 134.100 416.174,144.084 416.427,147.763 416.427 L 154.453 416.427 154.453 400.257 C 154.453 378.125,152.076 361.384,147.127 348.673 C 146.415 346.843,146.140 345.084,146.516 344.764 C 146.892 344.443,165.440 333.674,187.733 320.832 C 210.027 307.990,229.515 296.752,231.040 295.857 L 233.813 294.231 233.813 344.930 L 233.813 395.629 223.298 398.236 C 217.515 399.670,208.971 402.456,204.312 404.428 C 196.075 407.913,167.974 423.965,168.449 424.914 C 170.782 429.567,190.675 461.653,191.227 461.653 C 191.650 461.653,196.317 459.014,201.598 455.788 C 206.879 452.563,213.504 448.776,216.320 447.374 C 221.331 444.879,231.278 441.173,232.963 441.173 C 233.510 441.173,233.813 450.917,233.813 468.480 L 233.813 495.787 256.000 495.787 L 278.187 495.787 278.187 468.480 C 278.187 450.288,278.480 441.173,279.067 441.173 C 280.851 441.173,290.541 444.767,295.594 447.303 C 298.457 448.740,305.329 452.616,310.865 455.917 C 316.632 459.356,321.228 461.589,321.628 461.146 C 322.355 460.341,341.169 429.332,342.892 426.098 C 343.825 424.347,343.124 423.810,329.592 415.904 C 313.078 406.256,301.530 401.288,287.880 397.959 L 278.187 395.595 278.187 344.947 C 278.187 317.091,278.475 294.462,278.827 294.660 C 288.704 300.225,365.005 344.324,365.484 344.745 C 365.860 345.076,365.585 346.843,364.873 348.673 C 359.924 361.384,357.547 378.125,357.547 400.257 L 357.547 416.427 364.237 416.427 C 367.916 416.427,377.900 416.174,386.423 415.865 L 401.920 415.304 401.920 398.336 C 401.920 386.159,402.303 379.511,403.276 374.791 C 404.022 371.173,404.775 368.069,404.949 367.892 C 405.123 367.715,417.034 374.374,431.418 382.691 C 445.801 391.007,457.882 397.488,458.265 397.092 C 459.273 396.049,479.576 360.926,479.561 360.250 C 479.555 359.936,474.275 356.632,467.828 352.907 C 443.528 338.866,431.296 331.746,429.353 330.510 L 427.347 329.234 429.780 326.682 C 433.986 322.271,442.909 316.135,454.400 309.752 C 460.501 306.363,465.815 303.294,466.207 302.932 C 466.797 302.388,448.382 267.481,446.231 265.065 C 445.198 263.905,420.709 277.854,411.022 285.120 C 406.250 288.699,399.170 294.939,395.287 298.987 C 391.405 303.035,388.010 306.347,387.742 306.347 C 386.662 306.347,301.227 256.629,301.227 256.000 C 301.227 255.371,386.662 205.653,387.742 205.653 C 388.010 205.653,391.405 208.965,395.287 213.013 C 404.699 222.825,416.963 231.876,432.435 240.427 C 439.441 244.299,445.385 247.467,445.644 247.467 C 446.657 247.467,466.892 209.701,466.214 209.075 C 465.818 208.709,460.501 205.637,454.400 202.248 C 442.904 195.862,433.986 189.729,429.774 185.311 L 427.334 182.752 430.627 180.711 C 432.438 179.588,444.192 172.746,456.747 165.506 C 469.301 158.266,479.573 152.104,479.573 151.814 C 479.573 151.170,459.218 115.909,458.280 114.929 C 457.913 114.545,446.221 120.802,432.298 128.833 C 418.375 136.864,406.464 143.634,405.830 143.878 C 403.652 144.713,401.916 130.996,401.918 112.969 L 401.920 96.657 380.500 96.031 C 366.279 95.615,358.788 95.697,358.212 96.274 C 357.649 96.837,357.489 103.992,357.758 116.624 C 358.202 137.536,359.671 147.958,363.961 160.639 C 365.104 164.018,365.761 167.023,365.420 167.319 C 364.985 167.696,287.624 212.384,278.827 217.340 C 278.475 217.538,278.187 194.909,278.187 167.053 L 278.187 116.405 287.880 114.041 C 301.530 110.712,313.078 105.744,329.592 96.096 C 343.124 88.190,343.825 87.653,342.892 85.902 C 341.169 82.668,322.355 51.659,321.628 50.854 C 321.228 50.411,316.632 52.644,310.865 56.083 C 305.329 59.384,298.457 63.260,295.594 64.697 C 290.541 67.233,280.851 70.827,279.067 70.827 C 278.480 70.827,278.187 61.712,278.187 43.520 L 278.187 16.213 256.000 16.213 L 233.813 16.213 233.813 43.520 " stroke="none" fill="black" fill-rule="evenodd"></path></svg>