<svg xmlns="http://www.w3.org/2000/svg" width="512" height="512" viewBox="0 0 512 512"><path d="M237.653 48.734 C 177.721 53.246,120.005 81.549,79.492 126.293 C 44.290 165.172,23.515 211.449,17.434 264.533 C 15.561 280.881,16.145 310.185,18.671 326.646 C 25.089 368.467,40.962 405.746,66.879 439.870 C 74.062 449.328,83.234 458.790,87.848 461.502 C 91.339 463.555,92.557 463.784,99.840 463.757 C 110.340 463.718,112.631 462.517,122.314 451.968 C 149.499 422.352,186.146 405.691,234.481 400.971 C 247.525 399.697,277.369 400.431,290.133 402.340 C 311.402 405.519,331.922 411.966,349.038 420.846 C 363.741 428.474,373.535 435.809,386.560 448.943 C 392.896 455.332,399.357 461.215,400.917 462.015 C 404.817 464.015,414.290 464.691,419.820 463.365 C 423.475 462.488,425.410 461.247,430.272 456.661 C 445.050 442.720,463.704 415.007,474.416 391.078 C 483.166 371.531,489.980 348.390,493.370 326.703 C 495.017 316.166,495.285 311.112,495.285 290.560 C 495.285 270.130,495.013 264.935,493.407 254.720 C 482.393 184.638,444.466 125.273,386.133 86.807 C 373.574 78.525,348.695 66.203,334.959 61.461 C 303.191 50.493,270.711 46.245,237.653 48.734 M272.213 143.787 L 272.213 175.787 256.000 175.787 L 239.787 175.787 239.787 143.787 L 239.787 111.787 256.000 111.787 L 272.213 111.787 272.213 143.787 M165.974 174.934 L 188.150 197.122 176.630 208.642 L 165.110 220.162 142.511 197.551 L 119.912 174.940 130.984 163.843 C 137.073 157.740,142.448 152.747,142.927 152.747 C 143.407 152.747,153.778 162.731,165.974 174.934 M381.016 163.843 L 392.088 174.940 369.489 197.551 L 346.890 220.162 335.370 208.642 L 323.850 197.122 346.026 174.934 C 358.222 162.731,368.593 152.747,369.073 152.747 C 369.552 152.747,374.927 157.740,381.016 163.843 M298.694 267.022 C 279.240 305.878,277.035 309.891,273.558 312.739 C 256.870 326.414,231.601 318.643,225.597 297.989 C 223.734 291.582,224.366 283.299,227.179 277.253 C 231.501 267.963,231.496 267.966,276.907 245.368 C 299.904 233.924,319.012 224.530,319.370 224.493 C 319.727 224.457,310.423 243.594,298.694 267.022 M144.213 288.000 L 144.213 303.787 112.213 303.787 L 80.213 303.787 80.213 288.000 L 80.213 272.213 112.213 272.213 L 144.213 272.213 144.213 288.000 M431.787 288.000 L 431.787 303.787 399.787 303.787 L 367.787 303.787 367.787 288.000 L 367.787 272.213 399.787 272.213 L 431.787 272.213 431.787 288.000 " stroke="none" fill="black" fill-rule="evenodd"></path></svg>