<svg xmlns="http://www.w3.org/2000/svg" width="512" height="512" viewBox="0 0 512 512"><path d="M248.175 34.156 C 242.210 37.307,245.007 29.760,211.578 132.904 L 192.427 191.996 110.563 191.998 C 28.887 192.000,28.690 192.004,24.960 193.810 C 15.418 198.429,13.301 212.471,21.085 219.510 C 21.988 220.326,51.884 240.985,87.523 265.419 C 123.161 289.853,152.421 310.129,152.545 310.478 C 152.669 310.826,141.437 344.644,127.585 385.628 C 101.593 462.534,100.769 465.418,103.358 470.456 C 104.791 473.247,108.493 477.005,111.200 478.419 C 114.354 480.066,121.279 480.071,124.572 478.428 C 127.212 477.112,145.282 464.136,216.747 412.240 C 238.101 396.733,255.765 384.042,256.000 384.038 C 256.235 384.034,280.811 401.726,310.613 423.354 C 393.890 483.789,386.864 478.961,392.162 479.400 C 398.161 479.898,400.400 479.254,404.165 475.948 C 407.909 472.660,409.595 468.972,409.614 464.027 C 409.625 461.464,402.077 438.005,384.330 385.438 L 359.030 310.503 361.057 309.065 C 362.171 308.274,391.652 288.043,426.569 264.107 C 466.083 237.019,491.029 219.382,492.636 217.395 C 498.069 210.680,496.157 199.648,488.706 194.717 L 485.245 192.427 402.409 192.195 L 319.573 191.964 299.994 131.609 C 271.916 45.055,270.483 40.787,268.627 38.167 C 264.740 32.684,254.693 30.713,248.175 34.156 " stroke="none" fill="black" fill-rule="evenodd"></path></svg>