<svg xmlns="http://www.w3.org/2000/svg" width="512" height="512" viewBox="0 0 512 512"><path d="M159.573 256.000 L 159.573 495.787 199.680 495.787 L 239.787 495.787 239.787 256.000 L 239.787 16.213 199.680 16.213 L 159.573 16.213 159.573 256.000 M384.000 295.672 L 384.000 495.787 424.108 495.787 L 464.217 495.787 464.002 295.893 L 463.787 96.000 423.893 95.778 L 384.000 95.556 384.000 295.672 M272.213 352.000 L 272.213 495.787 312.320 495.787 L 352.427 495.787 352.427 352.000 L 352.427 208.213 312.320 208.213 L 272.213 208.213 272.213 352.000 M47.787 399.787 L 47.787 495.787 87.893 495.787 L 128.000 495.787 128.000 399.787 L 128.000 303.787 87.893 303.787 L 47.787 303.787 47.787 399.787 " stroke="none" fill="black" fill-rule="evenodd"></path></svg>