<svg xmlns="http://www.w3.org/2000/svg" width="512" height="512" viewBox="0 0 512 512"><path d="M243.627 48.295 C 200.707 51.540,163.787 65.309,129.707 90.781 C 119.276 98.577,98.579 119.277,90.713 129.782 C 68.255 159.772,54.418 193.768,49.413 231.253 C 48.019 241.696,48.019 270.304,49.413 280.747 C 59.554 356.698,107.829 420.063,177.067 448.304 C 203.509 459.089,227.771 463.751,256.853 463.634 C 290.198 463.499,318.398 456.932,347.733 442.471 C 410.837 411.362,453.091 351.864,462.587 280.747 C 463.981 270.304,463.981 241.696,462.587 231.253 C 453.091 160.136,410.837 100.638,347.733 69.529 C 327.592 59.600,306.356 53.073,283.994 49.939 C 275.010 48.680,251.306 47.715,243.627 48.295 M275.447 81.114 C 347.484 88.943,408.291 141.727,426.231 212.001 C 448.394 298.823,402.945 387.270,319.249 420.197 C 293.994 430.132,262.077 434.038,234.686 430.544 C 145.853 419.214,80.213 345.046,80.213 256.000 C 80.213 167.651,145.919 92.766,233.311 81.514 C 244.096 80.125,264.562 79.931,275.447 81.114 M196.040 176.701 C 188.004 178.630,180.758 184.911,177.840 192.477 C 176.296 196.479,176.213 199.715,176.213 256.000 C 176.213 312.411,176.293 315.514,177.850 319.549 C 179.999 325.123,185.850 331.269,191.391 333.775 L 195.840 335.787 256.000 335.787 L 316.160 335.787 320.609 333.775 C 326.150 331.269,332.001 325.123,334.150 319.549 C 335.707 315.514,335.787 312.411,335.787 256.000 C 335.787 199.589,335.707 196.486,334.150 192.451 C 332.001 186.877,326.150 180.731,320.609 178.225 L 316.160 176.213 257.707 176.072 C 225.264 175.993,197.823 176.273,196.040 176.701 " stroke="none" fill="black" fill-rule="evenodd"></path></svg>