<svg xmlns="http://www.w3.org/2000/svg" width="512" height="512" viewBox="0 0 512 512"><path d="M243.627 61.569 C 196.703 63.921,151.451 84.288,117.327 118.412 C 106.652 129.086,101.064 136.254,99.823 140.864 C 98.026 147.537,102.120 155.806,108.701 158.794 C 116.859 162.499,122.008 160.442,132.038 149.471 C 144.833 135.476,153.302 128.087,166.400 119.494 C 192.031 102.677,224.418 93.013,255.147 93.013 C 334.024 93.013,401.063 148.673,415.995 226.560 C 417.266 233.187,419.418 258.604,418.845 260.209 C 418.688 260.648,413.884 256.638,408.169 251.300 C 400.162 243.819,396.950 241.370,394.167 240.620 C 387.360 238.787,380.088 241.797,376.226 248.045 C 373.629 252.248,373.474 259.415,375.894 263.475 C 378.202 267.349,425.294 312.239,429.068 314.163 C 432.820 316.076,438.444 316.184,442.657 314.423 C 446.014 313.021,488.884 271.037,492.949 265.172 C 495.577 261.380,496.458 255.074,494.985 250.609 C 492.903 244.302,483.843 238.916,477.582 240.264 C 472.707 241.313,469.932 243.320,460.185 252.844 L 450.560 262.249 450.560 254.153 C 450.560 182.620,408.435 114.919,343.467 82.038 C 312.597 66.414,280.058 59.743,243.627 61.569 M69.152 197.615 C 65.962 198.999,22.849 241.347,19.051 246.828 C 16.423 250.620,15.542 256.926,17.015 261.391 C 19.097 267.698,28.157 273.084,34.418 271.736 C 39.247 270.697,42.019 268.717,51.251 259.714 L 60.337 250.853 60.926 262.600 C 62.848 300.947,73.300 333.484,93.517 364.057 C 124.135 410.358,175.142 442.045,230.657 449.253 C 243.314 450.896,268.770 450.932,280.747 449.323 C 326.175 443.222,367.307 422.259,398.484 389.317 C 409.208 377.986,412.646 372.294,411.940 367.035 C 410.746 358.132,404.512 352.423,395.993 352.431 C 389.819 352.437,386.821 354.333,379.136 363.093 C 364.230 380.083,347.157 392.970,326.586 402.757 C 291.175 419.605,252.839 423.287,214.372 413.534 C 174.193 403.347,137.813 375.964,115.615 339.200 C 101.448 315.735,92.297 282.793,93.174 258.410 L 93.440 251.007 103.831 260.707 C 111.834 268.178,115.052 270.631,117.833 271.380 C 124.640 273.213,131.912 270.203,135.774 263.955 C 138.477 259.581,138.551 252.536,135.938 248.316 C 133.363 244.157,87.657 200.534,83.415 198.187 C 79.346 195.935,73.560 195.703,69.152 197.615 " stroke="none" fill="black" fill-rule="evenodd"></path></svg>