<svg xmlns="http://www.w3.org/2000/svg" width="512" height="512" viewBox="0 0 512 512"><path d="M258.247 35.108 C 256.078 46.671,255.486 66.484,256.862 81.493 C 264.907 169.271,331.913 240.162,419.764 253.842 C 436.416 256.435,463.710 256.399,476.873 253.767 L 479.573 253.227 479.573 246.268 C 479.573 237.779,477.560 221.001,475.218 209.980 C 461.224 144.112,418.535 88.031,358.827 57.076 C 330.530 42.405,300.206 34.045,270.412 32.699 L 258.797 32.175 258.247 35.108 M216.320 35.510 C 131.410 50.725,61.438 115.198,39.683 198.264 C 36.856 209.057,33.705 225.136,34.300 225.731 C 34.458 225.889,37.653 225.626,41.400 225.147 C 51.192 223.895,88.053 224.764,98.133 226.484 C 147.499 234.909,188.248 255.657,222.295 289.705 C 256.314 323.723,277.098 364.542,285.516 413.867 C 287.236 423.947,288.105 460.808,286.853 470.600 C 286.374 474.347,286.155 477.586,286.365 477.796 C 286.946 478.377,308.315 473.980,317.013 471.489 C 345.519 463.326,374.297 448.346,397.609 429.533 C 424.434 407.887,448.598 375.692,461.962 343.794 C 468.891 327.256,475.416 304.512,477.414 289.929 L 477.968 285.885 473.864 286.516 C 471.607 286.863,459.392 287.142,446.720 287.135 C 422.247 287.123,414.933 286.380,396.373 282.020 C 314.535 262.795,249.205 197.465,229.980 115.627 C 225.620 97.067,224.877 89.753,224.865 65.280 C 224.858 52.608,225.134 40.416,225.477 38.187 C 226.201 33.481,226.748 33.641,216.320 35.510 M46.145 256.834 C 42.660 257.232,38.148 257.807,36.118 258.111 L 32.427 258.665 32.434 265.652 C 32.454 286.065,38.514 315.058,47.538 337.916 C 68.097 389.991,107.069 432.201,157.440 456.948 C 184.821 470.401,213.556 477.998,242.002 479.305 L 253.178 479.818 253.724 477.088 C 255.301 469.202,256.186 453.174,255.706 441.173 C 254.564 412.588,248.542 388.826,235.918 363.093 C 217.544 325.641,186.389 294.469,148.937 276.066 C 130.221 266.869,112.256 261.196,92.160 258.137 C 81.682 256.541,55.259 255.793,46.145 256.834 " stroke="none" fill="black" fill-rule="evenodd"></path></svg>