<svg xmlns="http://www.w3.org/2000/svg" width="512" height="512" viewBox="0 0 512 512"><path d="M264.962 33.771 C 261.099 35.785,259.683 37.329,256.488 43.013 C 254.880 45.873,246.399 58.773,237.641 71.680 C 185.559 148.437,172.942 168.750,148.017 215.977 C 142.964 225.552,138.216 234.100,137.468 234.971 C 133.920 239.100,131.336 239.560,109.227 240.007 C 90.389 240.388,87.508 240.643,80.112 242.590 C 64.225 246.773,50.971 254.531,39.883 266.137 C 32.108 274.274,29.142 278.553,24.298 288.619 C 17.137 303.498,16.778 305.885,16.417 340.931 C 16.130 368.814,16.256 372.428,17.761 379.758 C 22.126 401.010,34.278 419.865,51.555 432.194 C 58.879 437.420,71.444 443.264,80.250 445.540 C 86.868 447.250,90.264 447.447,121.198 447.915 L 154.930 448.427 160.878 452.014 C 180.058 463.581,207.716 472.809,237.227 477.489 C 248.852 479.333,291.512 480.270,295.153 478.762 C 299.852 476.815,301.146 470.601,297.825 465.936 C 294.950 461.898,291.311 453.218,289.703 446.559 C 288.546 441.770,288.310 438.030,288.627 429.493 C 288.980 419.973,289.379 417.604,291.716 411.162 C 293.192 407.093,294.400 402.218,294.400 400.330 C 294.400 398.442,293.154 393.323,291.632 388.955 C 288.972 381.324,288.863 380.496,288.858 367.787 C 288.854 355.023,288.950 354.288,291.627 346.779 C 293.152 342.499,294.400 337.553,294.400 335.787 C 294.400 334.021,293.156 329.074,291.635 324.795 C 288.988 317.346,288.869 316.466,288.862 304.213 C 288.854 291.960,288.972 291.074,291.627 283.471 C 295.084 273.572,295.092 270.260,291.686 260.661 C 289.298 253.929,288.929 251.676,288.605 241.842 C 288.177 228.850,289.769 220.728,294.837 210.045 C 298.226 202.900,298.601 198.569,296.412 191.875 C 294.402 185.730,295.287 175.439,298.969 162.133 C 301.778 151.982,304.542 144.276,316.565 113.073 C 323.076 96.173,324.238 91.332,324.254 81.033 C 324.276 66.665,320.175 56.318,310.702 46.845 C 304.216 40.359,297.314 36.515,287.773 34.075 C 279.758 32.025,268.595 31.877,264.962 33.771 M384.853 198.006 C 356.459 200.262,331.285 202.347,328.912 202.641 C 319.481 203.808,309.835 210.644,306.269 218.686 C 303.261 225.472,303.384 235.965,306.548 242.406 C 309.342 248.096,313.872 251.646,321.757 254.328 C 327.081 256.138,329.065 256.224,384.993 257.096 C 438.510 257.929,443.009 257.889,446.518 256.549 C 458.251 252.068,465.950 236.694,463.487 222.663 C 461.015 208.583,450.251 195.889,439.467 194.336 C 437.824 194.099,413.248 195.751,384.853 198.006 M398.080 273.051 C 320.610 276.445,319.421 276.558,313.190 281.159 C 305.887 286.551,302.585 296.884,304.586 308.080 C 306.356 317.984,311.855 324.301,320.891 326.811 C 323.745 327.604,455.198 333.646,469.704 333.651 C 477.747 333.654,482.156 331.884,486.735 326.815 C 503.615 308.131,495.561 273.478,473.600 270.305 C 471.957 270.067,437.973 271.303,398.080 273.051 M387.840 346.482 C 317.326 348.741,319.644 348.489,312.390 354.698 C 305.589 360.519,302.575 371.067,304.551 382.125 C 306.403 392.490,311.789 398.471,321.601 401.059 C 323.654 401.600,355.096 403.517,391.470 405.317 C 466.797 409.045,462.957 409.195,469.903 402.248 C 472.008 400.144,474.918 395.882,476.371 392.777 C 478.640 387.927,479.067 385.901,479.401 378.395 C 479.722 371.171,479.479 368.647,477.994 363.816 C 475.641 356.160,471.074 350.216,465.179 347.136 C 460.719 344.806,460.285 344.750,447.689 344.863 C 440.585 344.927,413.653 345.655,387.840 346.482 M365.227 417.742 C 324.603 419.180,322.795 419.324,317.617 421.552 C 312.454 423.773,307.058 429.266,305.399 433.992 C 304.742 435.862,304.250 440.433,304.282 444.370 C 304.333 450.638,304.660 452.037,307.270 457.170 C 310.426 463.377,315.322 467.546,321.555 469.334 C 325.433 470.446,414.893 479.559,422.019 479.567 C 434.432 479.582,444.713 469.195,447.317 454.008 C 449.809 439.475,443.077 424.346,431.564 418.609 C 427.307 416.487,426.744 416.430,411.352 416.548 C 402.645 416.616,381.888 417.153,365.227 417.742 " stroke="none" fill="black" fill-rule="evenodd"></path></svg>