<svg xmlns="http://www.w3.org/2000/svg" width="512" height="512" viewBox="0 0 512 512"><path d="M238.790 48.645 C 199.019 52.236,162.288 66.407,129.782 90.701 C 119.266 98.560,98.560 119.266,90.701 129.782 C 68.591 159.366,54.956 192.208,49.814 228.267 C 48.028 240.789,47.805 268.972,49.398 280.747 C 55.866 328.531,75.803 369.369,108.780 402.377 C 142.575 436.204,182.042 455.620,231.253 462.626 C 241.870 464.137,272.313 463.895,283.567 462.209 C 307.190 458.672,327.615 452.389,347.733 442.471 C 410.055 411.747,451.663 353.992,462.209 283.567 C 463.895 272.313,464.137 241.870,462.626 231.253 C 455.655 182.290,436.259 142.715,402.796 109.179 C 385.612 91.958,368.215 79.497,346.880 69.128 C 326.925 59.430,306.055 53.056,283.992 49.922 C 272.827 48.336,249.509 47.678,238.790 48.645 M270.885 113.683 C 272.061 115.362,272.213 123.625,272.213 185.790 L 272.213 256.000 318.976 256.000 C 354.209 256.000,365.991 256.252,366.763 257.024 C 367.475 257.737,367.787 262.272,367.787 271.938 C 367.787 285.583,367.751 285.850,365.777 287.144 C 364.006 288.305,356.585 288.433,302.988 288.230 C 243.948 288.007,242.174 287.953,240.998 286.344 C 239.971 284.939,239.787 271.758,239.787 199.797 C 239.787 122.004,239.905 114.777,241.199 113.347 C 242.453 111.961,244.115 111.787,256.084 111.787 C 269.039 111.787,269.608 111.860,270.885 113.683 " stroke="none" fill="black" fill-rule="evenodd"></path></svg>