<svg xmlns="http://www.w3.org/2000/svg" width="512" height="512" viewBox="0 0 512 512"><path d="M120.175 34.156 C 113.914 37.464,111.787 42.791,111.787 55.167 L 111.787 64.000 101.084 64.000 C 80.073 64.000,65.860 69.059,52.430 81.320 C 43.241 89.708,36.122 102.375,33.149 115.627 C 32.210 119.813,32.000 148.300,32.000 271.787 C 32.000 442.533,31.463 429.077,38.882 444.160 C 47.168 461.004,61.704 472.813,80.640 478.083 L 87.467 479.983 249.173 480.250 C 358.329 480.431,413.958 480.224,420.351 479.615 C 434.819 478.236,445.528 474.134,455.452 466.170 C 466.568 457.248,474.376 445.099,478.095 430.933 L 480.000 423.680 480.000 272.213 C 480.000 107.679,480.266 116.973,475.190 104.170 C 467.217 84.058,449.322 69.343,427.838 65.232 C 424.295 64.555,416.630 64.000,410.805 64.000 L 400.213 64.000 400.213 55.167 C 400.213 46.005,399.403 42.195,396.598 38.167 C 391.333 30.609,376.667 30.609,371.402 38.167 C 368.597 42.195,367.787 46.005,367.787 55.167 L 367.787 64.000 256.000 64.000 L 144.213 64.000 144.213 55.167 C 144.213 42.664,142.067 37.392,135.642 34.114 C 131.332 31.915,124.382 31.934,120.175 34.156 M423.578 177.076 C 433.255 179.597,440.991 186.072,445.301 195.261 L 447.573 200.107 447.573 311.893 L 447.573 423.680 444.906 429.227 C 441.505 436.302,436.249 441.563,429.227 444.921 L 423.680 447.573 256.000 447.573 L 88.320 447.573 83.111 445.166 C 76.521 442.120,69.949 435.520,66.815 428.800 L 64.427 423.680 64.427 311.893 L 64.427 200.107 66.675 195.311 C 70.834 186.441,78.849 179.591,87.921 177.153 C 95.074 175.230,416.210 175.157,423.578 177.076 M116.907 208.996 C 109.327 211.365,102.212 217.338,98.954 224.067 C 97.940 226.162,96.777 230.460,96.370 233.618 C 95.345 241.567,95.415 303.739,96.458 310.950 C 97.967 321.395,103.645 328.968,113.391 333.538 L 118.187 335.787 160.000 335.787 L 201.813 335.787 207.145 333.324 C 216.355 329.071,222.049 321.277,223.555 310.864 C 224.588 303.718,224.649 241.516,223.630 233.618 C 222.315 223.414,217.030 215.758,208.029 211.016 L 203.520 208.640 161.280 208.485 C 138.048 208.399,118.080 208.629,116.907 208.996 " stroke="none" fill="black" fill-rule="evenodd"></path></svg>