<svg xmlns="http://www.w3.org/2000/svg" width="512" height="512" viewBox="0 0 512 512"><path d="M120.175 34.156 C 113.914 37.464,111.787 42.791,111.787 55.167 L 111.787 64.000 101.195 64.000 C 79.025 64.000,64.859 69.315,51.157 82.773 C 39.684 94.043,33.904 106.709,32.348 123.991 C 31.795 130.124,31.593 185.812,31.782 279.467 C 32.112 442.653,31.569 428.965,38.278 443.226 C 44.399 456.237,54.904 466.867,67.840 473.138 C 83.321 480.643,65.680 480.000,256.000 480.000 C 417.604 480.000,424.779 479.935,430.507 478.413 C 454.278 472.095,471.629 454.888,478.383 430.933 C 479.866 425.672,479.961 417.868,480.230 279.467 C 480.411 185.910,480.204 130.118,479.652 123.991 C 478.096 106.709,472.316 94.043,460.843 82.773 C 447.161 69.334,432.970 64.000,410.895 64.000 L 400.393 64.000 400.090 53.973 C 399.817 44.962,399.558 43.557,397.524 40.097 C 393.280 32.879,383.949 30.241,376.358 34.114 C 369.933 37.392,367.787 42.664,367.787 55.167 L 367.787 64.000 256.090 64.000 L 144.393 64.000 144.077 53.973 C 143.801 45.215,143.494 43.477,141.650 40.236 C 137.517 32.974,127.684 30.190,120.175 34.156 M426.972 98.161 C 436.580 101.756,443.274 108.835,446.313 118.615 C 447.842 123.534,448.011 126.094,447.805 141.204 L 447.573 158.244 445.440 159.323 C 442.303 160.909,69.697 160.909,66.560 159.323 L 64.427 158.244 64.195 141.204 C 63.989 126.094,64.158 123.534,65.687 118.615 C 68.679 108.987,74.761 102.394,84.250 98.492 L 89.173 96.467 255.755 96.447 C 421.159 96.427,422.369 96.439,426.972 98.161 M208.029 211.016 C 213.578 213.939,218.565 218.965,221.174 224.262 L 223.147 228.267 223.147 272.213 L 223.147 316.160 220.640 320.686 C 217.514 326.328,212.824 330.624,206.609 333.538 L 201.813 335.787 160.000 335.787 L 118.187 335.787 113.391 333.538 C 107.176 330.624,102.486 326.328,99.360 320.686 L 96.853 316.160 96.853 272.213 L 96.853 228.267 98.827 224.260 C 102.170 217.473,109.451 211.326,116.907 208.996 C 118.080 208.629,138.048 208.399,161.280 208.485 L 203.520 208.640 208.029 211.016 " stroke="none" fill="black" fill-rule="evenodd"></path></svg>