<svg xmlns="http://www.w3.org/2000/svg" width="512" height="512" viewBox="0 0 512 512"><path d="M197.247 17.905 C 191.709 19.912,186.464 23.817,182.677 28.750 L 179.854 32.427 169.074 32.433 C 161.303 32.437,156.333 32.908,151.274 34.121 C 125.154 40.384,105.047 60.352,97.991 87.040 L 96.073 94.293 95.779 220.587 C 95.583 304.415,95.781 349.111,96.367 353.516 C 97.546 362.380,100.687 368.588,107.520 375.556 C 124.785 393.164,162.694 409.042,226.987 425.594 C 255.834 433.021,256.123 433.022,283.926 425.931 C 348.011 409.584,387.152 393.229,404.480 375.556 C 411.313 368.588,414.454 362.380,415.633 353.516 C 416.219 349.111,416.417 304.415,416.221 220.587 L 415.927 94.293 414.021 87.040 C 408.548 66.207,394.466 48.701,375.893 39.644 C 365.074 34.368,356.262 32.440,342.928 32.433 L 332.149 32.427 329.878 29.449 C 326.273 24.722,322.596 21.634,317.491 19.046 L 312.747 16.640 257.280 16.445 C 204.256 16.259,201.612 16.323,197.247 17.905 M304.533 51.554 C 305.729 56.304,309.123 60.379,313.565 62.396 C 316.508 63.733,319.333 63.965,332.834 63.981 C 350.009 64.002,354.977 64.797,362.849 68.785 C 372.320 73.585,380.885 85.055,383.128 95.945 C 383.729 98.861,383.946 141.190,383.796 226.096 L 383.573 351.925 378.453 356.051 C 365.944 366.132,336.551 378.187,298.037 389.032 C 281.269 393.754,258.419 399.360,255.942 399.360 C 253.508 399.360,228.357 393.111,211.627 388.349 C 174.189 377.693,145.864 365.977,133.547 356.051 L 128.427 351.925 128.204 226.096 C 128.049 138.817,128.262 98.902,128.899 95.813 C 131.063 85.310,139.521 73.983,148.971 68.931 C 156.582 64.862,161.830 64.002,179.166 63.981 C 192.667 63.965,195.492 63.733,198.435 62.396 C 202.877 60.379,206.271 56.304,207.467 51.554 L 208.416 47.787 256.000 47.787 L 303.584 47.787 304.533 51.554 M165.614 97.821 C 157.367 100.726,150.777 106.806,146.889 115.098 L 144.640 119.893 144.640 160.000 L 144.640 200.107 146.910 204.949 C 151.637 215.033,160.977 221.944,172.041 223.543 C 179.893 224.678,332.060 224.685,339.906 223.551 C 351.203 221.917,360.273 215.227,365.073 204.986 L 367.360 200.107 367.360 160.000 L 367.360 119.893 365.073 115.014 C 362.052 108.568,356.186 102.430,350.104 99.350 L 345.173 96.853 257.280 96.673 C 179.595 96.513,168.948 96.646,165.614 97.821 M336.213 160.000 L 336.213 192.000 256.000 192.000 L 175.787 192.000 175.787 160.000 L 175.787 128.000 256.000 128.000 L 336.213 128.000 336.213 160.000 M246.619 240.738 C 232.824 242.831,221.061 248.927,210.750 259.327 C 202.684 267.464,197.937 275.437,194.444 286.720 C 191.859 295.067,191.645 311.432,194.008 320.000 C 200.033 341.845,216.263 358.549,238.080 365.362 C 243.463 367.043,246.310 367.360,256.000 367.360 C 265.690 367.360,268.537 367.043,273.920 365.362 C 291.686 359.814,305.862 347.731,313.596 331.545 C 318.245 321.815,319.521 315.848,319.530 303.787 C 319.540 291.416,317.934 284.905,312.061 273.493 C 307.180 264.008,295.911 252.768,286.170 247.668 C 274.398 241.506,259.160 238.836,246.619 240.738 M268.986 274.978 C 275.395 277.915,281.554 283.782,284.647 289.896 C 286.931 294.412,287.141 295.580,287.144 303.787 C 287.146 311.717,286.885 313.305,284.868 317.608 C 280.564 326.791,271.940 333.299,261.305 335.392 C 247.903 338.028,233.090 330.319,227.132 317.608 C 225.116 313.307,224.853 311.714,224.853 303.787 C 224.853 295.640,225.071 294.401,227.258 290.133 C 231.357 282.130,238.317 276.189,246.857 273.402 C 252.591 271.530,263.096 272.279,268.986 274.978 M167.186 418.937 C 162.300 422.188,115.809 468.964,114.128 472.320 C 110.886 478.793,111.638 485.081,116.289 490.378 C 119.524 494.063,123.257 495.787,128.000 495.787 C 133.325 495.787,136.664 493.935,144.030 486.897 L 150.803 480.427 256.000 480.427 L 361.197 480.427 367.970 486.897 C 375.336 493.935,378.675 495.787,384.000 495.787 C 388.743 495.787,392.476 494.063,395.711 490.378 C 400.362 485.081,401.114 478.793,397.872 472.320 C 396.191 468.964,349.700 422.188,344.814 418.937 C 338.274 414.585,328.780 415.831,323.853 421.687 C 318.540 428.002,318.888 436.045,324.790 443.289 L 328.627 448.000 256.000 448.000 L 183.373 448.000 187.210 443.289 C 191.600 437.900,192.866 432.923,191.234 427.474 C 189.130 420.451,183.431 416.427,175.591 416.427 C 171.889 416.427,170.202 416.931,167.186 418.937 " stroke="none" fill="black" fill-rule="evenodd"></path></svg>