<svg xmlns="http://www.w3.org/2000/svg" width="512" height="512" viewBox="0 0 512 512"><path d="M43.053 32.751 C 38.231 33.894,33.653 38.965,32.439 44.508 C 31.730 47.746,31.521 61.058,31.720 90.453 C 31.997 131.351,32.022 131.882,33.901 135.395 C 40.166 147.113,56.893 146.549,62.396 134.435 C 63.785 131.377,63.965 128.478,63.981 108.802 L 64.000 86.618 84.689 107.306 L 105.378 127.995 86.000 147.411 C 63.526 169.930,62.056 172.276,64.969 180.993 C 66.920 186.830,73.923 191.940,80.027 191.981 C 85.839 192.020,88.838 189.712,108.587 170.002 L 128.001 150.626 135.858 158.483 L 143.714 166.339 141.921 168.290 C 138.840 171.640,130.941 184.391,126.715 192.836 C 121.480 203.295,116.439 218.732,114.191 231.184 C 111.692 245.032,111.692 266.968,114.191 280.816 C 121.306 320.231,144.303 355.004,177.493 376.532 C 220.409 404.368,274.760 407.526,320.085 384.818 C 328.911 380.396,339.988 373.483,343.709 370.074 L 345.658 368.288 361.400 384.013 L 377.142 399.738 357.981 419.016 C 345.921 431.150,338.337 439.450,337.516 441.413 C 334.749 448.035,336.326 455.061,341.622 459.711 C 346.922 464.364,353.222 465.116,359.680 461.866 C 361.088 461.157,370.789 452.097,381.239 441.732 L 400.238 422.886 427.745 450.327 C 442.875 465.420,456.334 478.174,457.656 478.671 C 461.062 479.951,468.152 479.789,470.869 478.370 C 473.492 476.999,477.200 473.212,478.616 470.456 C 479.825 468.102,479.856 460.811,478.671 457.656 C 478.174 456.334,465.420 442.875,450.327 427.745 L 422.886 400.238 441.732 381.239 C 452.097 370.789,461.157 361.088,461.866 359.680 C 465.116 353.222,464.364 346.922,459.711 341.622 C 455.061 336.326,448.035 334.749,441.413 337.516 C 439.450 338.337,431.150 345.921,419.016 357.981 L 399.738 377.142 384.013 361.400 L 368.288 345.658 370.080 343.709 C 376.925 336.265,387.876 315.514,392.679 300.887 C 397.823 285.223,399.593 273.733,399.593 256.000 C 399.593 238.267,397.823 226.777,392.679 211.113 C 387.875 196.482,376.924 175.734,370.077 168.287 L 368.281 166.335 408.141 126.475 L 448.000 86.616 448.019 108.801 C 448.035 128.478,448.215 131.377,449.604 134.435 C 455.107 146.549,471.834 147.113,478.099 135.395 C 479.979 131.879,480.003 131.385,480.260 90.027 C 480.536 45.672,480.334 42.820,476.571 37.880 C 472.184 32.121,473.122 32.219,423.870 32.374 C 381.897 32.506,379.321 32.602,376.273 34.157 C 367.655 38.554,365.435 50.513,371.827 58.109 C 376.424 63.573,378.495 63.960,403.199 63.981 L 425.384 64.000 385.525 103.859 L 345.665 143.719 343.713 141.930 C 336.140 134.992,316.145 124.385,301.252 119.406 C 285.929 114.283,273.803 112.407,256.000 112.407 C 238.267 112.407,226.777 114.177,211.113 119.321 C 196.485 124.124,175.735 135.075,168.290 141.921 L 166.339 143.714 158.491 135.866 L 150.643 128.018 170.390 108.169 C 192.073 86.374,192.825 85.273,191.600 77.107 C 191.095 73.738,190.248 72.244,187.002 68.998 C 183.756 65.752,182.262 64.905,178.893 64.400 C 170.727 63.175,169.626 63.927,147.829 85.612 L 127.978 105.360 107.298 84.680 L 86.618 64.000 108.802 63.981 C 133.505 63.960,135.576 63.573,140.173 58.109 C 146.559 50.520,144.345 38.554,135.742 34.165 C 132.726 32.626,129.939 32.512,89.377 32.264 C 65.641 32.119,44.796 32.338,43.053 32.751 M279.040 146.346 C 323.014 156.048,356.257 189.643,365.851 234.076 C 367.966 243.873,367.966 268.127,365.851 277.924 C 357.268 317.674,329.070 349.641,291.577 362.123 C 278.837 366.364,272.074 367.360,256.000 367.360 C 235.094 367.360,223.220 364.635,205.653 355.807 C 194.346 350.123,186.087 344.080,176.628 334.566 C 160.824 318.670,150.944 300.368,146.193 278.187 C 144.010 267.993,144.010 244.007,146.193 233.813 C 150.946 211.623,160.837 193.304,176.628 177.447 C 194.213 159.789,213.200 149.897,238.080 145.432 C 246.633 143.897,270.339 144.426,279.040 146.346 " stroke="none" fill="black" fill-rule="evenodd"></path></svg>