<svg xmlns="http://www.w3.org/2000/svg" width="512" height="512" viewBox="0 0 512 512"><path d="M18.708 82.708 L 16.213 85.202 16.213 232.107 L 16.213 379.011 18.708 381.506 L 21.202 384.000 256.000 384.000 L 490.798 384.000 493.292 381.506 L 495.787 379.011 495.787 232.107 L 495.787 85.202 493.292 82.708 L 490.798 80.213 256.000 80.213 L 21.202 80.213 18.708 82.708 M112.670 401.864 C 112.177 402.786,111.787 409.025,111.787 416.000 C 111.787 422.975,112.177 429.214,112.670 430.136 C 113.538 431.758,116.041 431.787,256.000 431.787 C 395.959 431.787,398.462 431.758,399.330 430.136 C 400.485 427.978,400.485 404.022,399.330 401.864 C 398.462 400.242,395.959 400.213,256.000 400.213 C 116.041 400.213,113.538 400.242,112.670 401.864 " stroke="none" fill="black" fill-rule="evenodd"></path></svg>