<svg xmlns="http://www.w3.org/2000/svg" width="512" height="512" viewBox="0 0 512 512"><path d="M52.483 81.530 C 36.496 85.930,25.152 96.098,18.940 111.595 L 16.640 117.333 16.411 229.347 C 16.158 353.613,15.886 347.110,21.792 358.348 C 27.141 368.527,37.302 377.244,48.877 381.583 L 54.187 383.573 253.013 383.811 C 473.887 384.075,457.920 384.473,470.086 378.387 C 477.682 374.587,486.022 366.315,490.120 358.515 C 496.048 347.235,495.760 353.680,495.774 231.803 C 495.788 112.153,495.997 117.682,491.055 107.249 C 486.079 96.746,476.104 87.621,464.535 82.989 L 458.667 80.640 257.707 80.498 C 89.498 80.380,56.052 80.548,52.483 81.530 M121.584 401.403 C 116.845 403.468,111.796 410.997,111.796 416.000 C 111.796 421.112,116.900 428.598,121.773 430.634 C 125.873 432.347,386.127 432.347,390.227 430.634 C 395.100 428.598,400.204 421.112,400.204 416.000 C 400.204 410.888,395.100 403.402,390.227 401.366 C 386.192 399.680,125.456 399.715,121.584 401.403 " stroke="none" fill="black" fill-rule="evenodd"></path></svg>