<svg xmlns="http://www.w3.org/2000/svg" width="512" height="512" viewBox="0 0 512 512"><path d="M74.072 112.694 C 71.398 113.094,66.214 114.422,62.552 115.647 C 41.215 122.781,25.659 138.958,18.638 161.317 L 16.640 167.680 16.640 256.000 L 16.640 344.320 18.639 350.720 C 26.065 374.490,43.742 391.538,67.546 397.887 L 74.667 399.787 176.213 399.787 C 291.532 399.787,282.181 400.350,298.400 392.423 C 315.783 383.926,328.501 368.185,334.160 348.160 C 335.623 342.986,335.747 337.104,336.013 260.693 C 336.209 204.300,336.004 176.513,335.355 171.520 C 331.743 143.708,313.581 122.761,285.606 114.142 L 279.467 112.250 179.200 112.109 C 124.053 112.031,76.746 112.295,74.072 112.694 M453.547 129.523 C 449.224 131.109,366.647 188.710,361.123 193.993 C 357.054 197.885,353.274 206.118,352.383 213.027 C 351.402 220.640,351.402 291.360,352.383 298.973 C 353.274 305.882,357.054 314.115,361.123 318.008 C 366.315 322.975,449.206 380.827,453.547 382.514 C 460.209 385.102,471.460 384.333,478.325 380.821 C 484.552 377.636,490.029 371.906,493.090 365.376 L 495.360 360.533 495.360 256.000 L 495.360 151.467 493.090 146.624 C 490.045 140.129,484.970 134.816,478.508 131.358 C 473.789 128.833,472.288 128.472,465.493 128.231 C 459.641 128.023,456.798 128.331,453.547 129.523 " stroke="none" fill="black" fill-rule="evenodd"></path></svg>