<svg xmlns="http://www.w3.org/2000/svg" width="512" height="512" viewBox="0 0 512 512"><path d="M354.560 48.332 C 353.152 48.551,295.936 58.275,227.413 69.941 C 158.891 81.606,98.012 91.947,92.126 92.919 C 79.909 94.939,74.255 96.707,65.490 101.246 C 57.844 105.206,46.251 116.521,41.574 124.587 C 36.990 132.494,33.332 144.560,32.405 154.834 C 31.979 159.553,31.618 214.406,31.602 276.729 C 31.571 400.906,31.397 396.328,36.615 408.807 C 42.841 423.698,55.875 436.724,70.810 442.982 C 83.589 448.336,73.303 448.072,258.560 447.811 L 427.093 447.573 435.200 444.749 C 451.841 438.953,465.025 427.580,472.315 412.734 C 479.673 397.749,479.147 407.356,479.147 288.000 C 479.147 168.644,479.673 178.251,472.315 163.266 C 463.522 145.359,445.575 132.119,425.729 128.899 C 422.123 128.314,375.549 128.011,288.657 128.006 C 169.549 128.001,156.721 127.869,153.606 126.623 C 144.699 123.059,143.431 110.780,151.457 105.819 C 154.238 104.100,154.991 104.092,290.459 104.312 L 426.664 104.533 426.138 101.547 C 423.688 87.618,414.764 72.665,403.115 62.964 C 396.977 57.853,384.694 51.713,377.112 49.966 C 371.085 48.577,358.734 47.682,354.560 48.332 M381.886 259.359 C 393.159 264.909,399.651 275.375,399.651 288.000 C 399.651 300.607,393.157 311.092,381.923 316.623 C 357.212 328.788,329.477 305.109,337.441 278.646 C 342.994 260.193,364.565 250.832,381.886 259.359 " stroke="none" fill="black" fill-rule="evenodd"></path></svg>