<svg xmlns="http://www.w3.org/2000/svg" width="512" height="512" viewBox="0 0 512 512"><path d="M175.787 56.287 L 175.787 96.361 147.413 96.607 L 119.040 96.853 114.318 99.172 C 108.366 102.095,102.137 108.277,99.300 114.076 C 97.978 116.778,96.792 121.192,96.312 125.198 C 95.842 129.120,95.618 184.611,95.763 260.693 C 95.994 380.665,96.113 389.848,97.500 393.921 C 100.559 402.902,109.255 411.568,118.079 414.428 C 121.653 415.586,127.330 415.914,149.120 416.218 L 175.787 416.590 175.787 456.188 L 175.787 495.787 256.000 495.787 L 336.213 495.787 336.213 456.188 L 336.213 416.590 362.880 416.218 C 384.670 415.914,390.347 415.586,393.921 414.428 C 402.745 411.568,411.441 402.902,414.500 393.921 C 415.887 389.849,416.007 380.650,416.246 260.693 C 416.419 173.869,416.209 129.613,415.604 125.013 C 415.095 121.153,413.793 116.321,412.607 113.892 C 409.858 108.265,403.572 102.065,397.682 99.172 L 392.960 96.853 364.587 96.597 L 336.213 96.341 336.213 56.277 L 336.213 16.213 256.000 16.213 L 175.787 16.213 175.787 56.287 M378.425 122.425 C 382.750 124.569,387.431 129.250,389.575 133.575 C 391.220 136.892,391.253 139.345,391.253 256.000 C 391.253 372.655,391.220 375.108,389.575 378.425 C 387.431 382.750,382.750 387.431,378.425 389.575 C 375.115 391.216,372.423 391.258,256.853 391.477 L 138.667 391.701 133.249 389.035 C 127.636 386.274,123.571 381.800,121.452 376.050 C 120.010 372.140,120.010 139.860,121.452 135.950 C 123.548 130.263,127.616 125.765,133.174 122.988 L 138.548 120.302 256.794 120.525 C 372.425 120.742,375.115 120.784,378.425 122.425 M141.227 136.482 C 140.288 136.869,138.752 138.039,137.813 139.082 C 136.124 140.959,136.107 142.180,136.107 256.070 L 136.107 371.161 138.473 373.527 L 140.839 375.893 256.000 375.893 L 371.161 375.893 373.527 373.527 L 375.893 371.161 375.893 256.000 L 375.893 140.839 373.527 138.473 L 371.161 136.107 257.047 135.943 C 194.285 135.852,142.165 136.095,141.227 136.482 " stroke="none" fill="black" fill-rule="evenodd"></path></svg>