<svg xmlns="http://www.w3.org/2000/svg" width="512" height="512" viewBox="0 0 512 512"><path d="M249.300 58.240 C 246.218 60.443,232.462 77.012,217.240 96.853 C 159.020 172.743,123.484 240.942,114.472 294.083 C 110.928 314.976,111.303 334.803,115.649 356.395 C 126.865 412.121,163.811 449.072,219.605 460.363 C 256.878 467.906,297.605 463.412,328.228 448.377 C 366.791 429.444,390.703 394.713,398.127 346.851 C 400.363 332.433,400.192 308.889,397.750 294.969 C 389.038 245.317,359.663 185.760,310.348 117.760 C 290.353 90.188,265.108 58.951,261.488 57.302 C 257.898 55.666,252.297 56.097,249.300 58.240 M350.547 317.976 C 355.931 321.445,357.144 329.149,354.501 343.082 C 347.340 380.833,316.622 408.437,278.054 411.779 C 270.361 412.446,266.697 411.488,263.273 407.914 C 258.662 403.101,259.601 393.833,265.064 390.254 C 266.389 389.385,270.989 388.359,276.623 387.675 C 293.174 385.667,304.008 380.596,314.453 369.969 C 324.602 359.645,330.590 346.713,331.617 332.906 C 331.883 329.328,332.481 325.148,332.946 323.617 C 333.806 320.789,337.809 317.120,340.907 316.320 C 343.392 315.679,348.286 316.519,350.547 317.976 " stroke="none" fill="black" fill-rule="evenodd"></path></svg>