<svg xmlns="http://www.w3.org/2000/svg" width="24" height="24" viewBox="0 0 24 24" fill="none" stroke="currentColor" stroke-width="2" stroke-linecap="round" stroke-linejoin="round"><path d="M11.640 4.068 C 11.484 4.121,10.978 4.610,7.826 7.755 C 3.881 11.690,4.001 11.557,4.001 12.000 C 4.001 12.443,3.881 12.310,7.826 16.245 C 11.148 19.559,11.477 19.876,11.657 19.935 C 12.047 20.063,12.423 19.979,12.701 19.701 C 12.979 19.423,13.064 19.047,12.935 18.657 C 12.876 18.478,12.623 18.212,10.146 15.730 L 7.421 13.000 13.284 13.000 C 19.869 13.000,19.379 13.023,19.701 12.701 C 20.092 12.310,20.092 11.690,19.701 11.299 C 19.379 10.977,19.869 11.000,13.284 11.000 L 7.421 11.000 10.146 8.270 C 12.623 5.788,12.876 5.522,12.935 5.343 C 13.064 4.953,12.979 4.577,12.701 4.299 C 12.424 4.022,12.028 3.935,11.640 4.068 " stroke="none" fill="black" fill-rule="evenodd"></path></svg>