<svg xmlns="http://www.w3.org/2000/svg" width="24" height="24" viewBox="0 0 24 24" fill="none" stroke="currentColor" stroke-width="2" stroke-linecap="round" stroke-linejoin="round"><path d="M2.620 5.025 C 2.212 5.105,2.087 5.139,1.870 5.227 C 0.989 5.585,0.321 6.364,0.076 7.320 C -0.007 7.645,-0.008 16.353,0.076 16.677 C 0.359 17.782,1.122 18.562,2.260 18.911 C 2.417 18.959,2.747 18.976,3.790 18.989 C 5.321 19.009,5.406 18.996,5.700 18.702 C 6.092 18.310,6.093 17.691,5.701 17.299 C 5.421 17.018,5.316 17.000,4.000 17.000 C 2.684 17.000,2.579 16.982,2.299 16.701 C 1.982 16.384,2.000 16.666,2.002 11.983 C 2.003 8.610,2.014 7.792,2.057 7.670 C 2.136 7.449,2.298 7.256,2.511 7.131 L 2.700 7.020 4.580 7.000 C 5.614 6.989,6.496 6.963,6.540 6.943 C 6.765 6.840,6.952 6.671,7.060 6.474 C 7.359 5.925,7.087 5.252,6.484 5.046 C 6.388 5.014,5.813 5.001,4.524 5.005 C 3.521 5.007,2.664 5.016,2.620 5.025 M10.668 5.061 C 10.585 5.092,10.462 5.156,10.395 5.204 C 10.250 5.307,6.141 11.450,6.056 11.690 C 5.897 12.143,6.115 12.672,6.550 12.886 L 6.740 12.980 8.930 13.000 L 11.120 13.020 9.616 15.275 C 8.789 16.516,8.087 17.602,8.056 17.690 C 7.789 18.448,8.556 19.209,9.318 18.941 C 9.410 18.908,9.540 18.843,9.606 18.796 C 9.750 18.693,13.859 12.548,13.944 12.310 C 14.103 11.857,13.885 11.328,13.450 11.114 L 13.260 11.020 11.070 11.000 L 8.880 10.980 10.384 8.725 C 11.211 7.484,11.913 6.398,11.944 6.310 C 12.212 5.548,11.429 4.782,10.668 5.061 M14.643 5.069 C 14.291 5.193,14.000 5.614,14.000 6.000 C 14.000 6.396,14.291 6.808,14.660 6.934 C 14.823 6.989,15.038 7.000,16.000 7.000 C 17.316 7.000,17.421 7.018,17.701 7.299 C 18.018 7.616,18.000 7.337,18.000 12.000 C 18.000 16.663,18.018 16.384,17.701 16.701 C 17.405 16.997,17.382 17.000,15.399 17.000 C 14.180 17.000,13.611 17.014,13.516 17.046 C 12.913 17.252,12.641 17.925,12.940 18.474 C 13.061 18.696,13.270 18.870,13.516 18.954 C 13.692 19.014,17.108 19.018,17.474 18.958 C 18.660 18.766,19.621 17.872,19.924 16.680 C 20.007 16.354,20.007 7.646,19.924 7.323 C 19.617 6.126,18.660 5.234,17.476 5.042 C 17.335 5.019,16.680 5.002,16.020 5.003 C 15.041 5.006,14.788 5.018,14.643 5.069 M22.643 10.069 C 22.407 10.152,22.149 10.416,22.066 10.660 C 21.968 10.948,21.968 13.052,22.066 13.340 C 22.192 13.709,22.604 14.000,23.000 14.000 C 23.396 14.000,23.808 13.709,23.934 13.340 C 24.032 13.052,24.032 10.948,23.934 10.660 C 23.761 10.152,23.172 9.882,22.643 10.069 " stroke="none" fill="black" fill-rule="evenodd"></path></svg>