<svg xmlns="http://www.w3.org/2000/svg" width="24" height="24" viewBox="0 0 24 24" fill="none" stroke="currentColor" stroke-width="2" stroke-linecap="round" stroke-linejoin="round"><path d="M0.643 0.069 C 0.291 0.193,-0.000 0.614,0.000 1.000 C 0.000 1.080,0.029 1.234,0.065 1.343 C 0.124 1.520,0.309 1.719,1.849 3.264 L 3.566 4.989 3.013 5.012 C 2.709 5.025,2.370 5.061,2.260 5.093 C 1.148 5.413,0.359 6.218,0.076 7.323 C -0.007 7.646,-0.007 19.354,0.076 19.677 C 0.317 20.616,1.003 21.426,1.845 21.763 C 2.424 21.996,1.640 21.977,11.519 21.990 L 20.578 22.001 21.519 22.935 C 22.334 23.744,22.486 23.877,22.657 23.934 C 23.046 24.064,23.422 23.980,23.702 23.700 C 24.005 23.397,24.078 22.947,23.887 22.556 C 23.824 22.426,20.869 19.449,12.671 11.255 C 2.368 0.957,1.525 0.125,1.343 0.065 C 1.101 -0.015,0.876 -0.013,0.643 0.069 M8.643 2.069 C 8.291 2.193,8.000 2.614,8.000 3.000 C 8.000 3.242,8.119 3.521,8.299 3.701 C 8.608 4.010,8.496 4.000,11.661 4.000 L 14.467 4.000 15.364 5.346 C 15.857 6.086,16.315 6.733,16.383 6.785 C 16.663 6.999,16.680 7.000,18.998 7.000 C 21.354 7.000,21.356 7.000,21.649 7.241 C 21.728 7.306,21.835 7.445,21.886 7.550 L 21.980 7.740 22.000 12.680 L 22.020 17.620 22.108 17.784 C 22.210 17.974,22.438 18.187,22.626 18.265 C 22.802 18.339,23.207 18.335,23.391 18.258 C 23.579 18.180,23.782 17.987,23.894 17.780 L 23.980 17.620 23.980 12.580 C 23.980 8.403,23.970 7.503,23.924 7.323 C 23.617 6.126,22.660 5.234,21.476 5.042 C 21.326 5.018,20.458 5.000,19.376 5.000 L 17.533 5.000 16.636 3.654 C 16.143 2.914,15.685 2.267,15.617 2.215 C 15.328 1.995,15.412 2.000,11.985 2.003 C 9.226 2.006,8.797 2.014,8.643 2.069 M6.916 8.336 L 8.251 9.672 7.985 10.026 C 7.524 10.638,7.187 11.419,7.054 12.180 C 6.959 12.727,6.997 13.732,7.133 14.250 C 7.372 15.162,7.809 15.907,8.497 16.580 C 9.164 17.231,9.859 17.628,10.760 17.872 C 11.108 17.966,11.208 17.975,11.960 17.977 C 12.727 17.979,12.806 17.973,13.180 17.872 C 13.896 17.680,14.419 17.429,15.002 16.996 L 15.332 16.752 16.956 18.376 L 18.580 20.000 10.717 20.000 C 1.888 20.000,2.624 20.026,2.298 19.700 C 1.976 19.378,1.998 19.848,2.009 13.418 L 2.020 7.700 2.131 7.511 C 2.192 7.408,2.304 7.275,2.381 7.217 C 2.650 7.011,2.716 7.004,4.200 7.002 L 5.580 7.000 6.916 8.336 M11.800 13.220 L 13.900 15.321 13.780 15.421 C 13.597 15.574,12.972 15.865,12.669 15.939 C 12.324 16.022,11.653 16.023,11.292 15.940 C 11.142 15.906,10.858 15.798,10.659 15.700 C 10.042 15.395,9.595 14.948,9.298 14.340 C 9.075 13.882,8.998 13.544,8.997 13.019 C 8.996 12.535,9.068 12.194,9.262 11.770 C 9.388 11.495,9.627 11.120,9.677 11.120 C 9.690 11.120,10.645 12.065,11.800 13.220 " stroke="none" fill="black" fill-rule="evenodd"></path></svg>