<svg xmlns="http://www.w3.org/2000/svg" width="24" height="24" viewBox="0 0 24 24" fill="none" stroke="currentColor" stroke-width="2" stroke-linecap="round" stroke-linejoin="round"><path d="M8.664 2.063 C 8.578 2.094,8.452 2.163,8.384 2.215 C 8.316 2.266,7.857 2.913,7.365 3.652 L 6.471 4.995 4.465 5.010 C 2.326 5.026,2.380 5.022,1.845 5.237 C 1.000 5.575,0.317 6.381,0.076 7.323 C -0.007 7.646,-0.007 19.354,0.076 19.677 C 0.358 20.776,1.116 21.552,2.260 21.915 C 2.440 21.972,3.409 21.980,11.820 21.990 C 18.202 21.998,21.267 21.989,21.453 21.960 C 22.642 21.778,23.620 20.876,23.924 19.680 C 24.007 19.353,24.007 7.647,23.924 7.323 C 23.617 6.126,22.660 5.233,21.480 5.043 C 21.326 5.018,20.470 5.000,19.376 5.000 L 17.533 5.000 16.636 3.654 C 16.143 2.914,15.685 2.267,15.617 2.215 C 15.328 1.995,15.412 2.000,11.985 2.003 C 9.343 2.005,8.794 2.015,8.664 2.063 M15.364 5.346 C 15.857 6.086,16.315 6.733,16.383 6.785 C 16.663 6.999,16.680 7.000,18.998 7.000 C 21.428 7.000,21.399 6.997,21.701 7.299 C 22.022 7.620,22.000 7.157,22.000 13.500 C 22.000 19.843,22.022 19.380,21.701 19.701 C 21.375 20.027,22.264 20.000,12.000 20.000 C 1.736 20.000,2.625 20.027,2.299 19.701 C 1.978 19.380,2.000 19.845,2.002 13.483 C 2.003 8.857,2.013 7.793,2.057 7.670 C 2.136 7.449,2.298 7.256,2.511 7.131 L 2.700 7.020 4.980 7.000 C 7.398 6.979,7.359 6.982,7.620 6.783 C 7.686 6.732,8.143 6.086,8.636 5.346 L 9.533 4.000 12.000 4.000 L 14.467 4.000 15.364 5.346 M11.260 8.056 C 9.597 8.335,8.259 9.313,7.523 10.785 C 7.164 11.504,7.021 12.135,7.021 13.000 C 7.021 13.446,7.041 13.715,7.093 13.960 C 7.313 14.995,7.741 15.786,8.478 16.521 C 9.222 17.262,10.007 17.687,11.040 17.907 C 11.511 18.007,12.489 18.007,12.960 17.907 C 13.929 17.701,14.732 17.284,15.424 16.630 C 15.877 16.201,16.198 15.761,16.483 15.180 C 17.277 13.560,17.147 11.732,16.128 10.180 C 15.880 9.803,15.173 9.103,14.780 8.845 C 14.219 8.478,13.639 8.237,12.980 8.099 C 12.554 8.009,11.670 7.988,11.260 8.056 M12.592 10.063 C 14.213 10.396,15.267 11.981,14.937 13.592 C 14.604 15.213,13.017 16.268,11.408 15.936 C 9.556 15.555,8.508 13.579,9.235 11.839 C 9.781 10.535,11.208 9.780,12.592 10.063 " stroke="none" fill="black" fill-rule="evenodd"></path></svg>