<svg xmlns="http://www.w3.org/2000/svg" width="24" height="24" viewBox="0 0 24 24" fill="none" stroke="currentColor" stroke-width="2" stroke-linecap="round" stroke-linejoin="round"><path d="M8.534 1.057 C 8.181 1.142,7.876 1.318,7.596 1.597 C 7.280 1.913,7.099 2.263,7.031 2.693 L 6.983 2.991 6.222 3.011 C 5.721 3.025,5.391 3.052,5.260 3.091 C 4.135 3.424,3.359 4.216,3.076 5.320 C 2.993 5.647,2.992 20.351,3.076 20.677 C 3.357 21.776,4.118 22.554,5.260 22.915 C 5.438 22.971,6.160 22.979,11.820 22.990 C 16.126 22.998,18.268 22.989,18.453 22.960 C 19.643 22.777,20.620 21.876,20.924 20.680 C 21.007 20.352,21.008 5.648,20.924 5.323 C 20.617 4.126,19.660 3.234,18.476 3.042 C 18.335 3.019,17.950 3.000,17.619 3.000 L 17.018 3.000 16.970 2.698 C 16.841 1.884,16.204 1.210,15.408 1.044 C 15.090 0.978,8.812 0.989,8.534 1.057 M15.000 4.000 L 15.000 5.000 12.000 5.000 L 9.000 5.000 9.000 4.000 L 9.000 3.000 12.000 3.000 L 15.000 3.000 15.000 4.000 M7.030 5.302 C 7.159 6.116,7.796 6.790,8.592 6.956 C 8.887 7.017,15.113 7.017,15.408 6.956 C 16.204 6.790,16.841 6.116,16.970 5.302 L 17.018 5.000 17.582 5.000 C 18.258 5.000,18.455 5.052,18.701 5.299 C 19.025 5.623,19.000 4.977,19.000 13.000 C 19.000 21.023,19.025 20.377,18.701 20.701 C 18.379 21.023,18.903 21.000,12.000 21.000 C 5.095 21.000,5.621 21.024,5.298 20.700 C 4.974 20.376,4.998 21.028,5.010 12.918 L 5.020 5.700 5.131 5.511 C 5.256 5.298,5.449 5.136,5.670 5.057 C 5.768 5.022,6.021 5.003,6.401 5.002 L 6.982 5.000 7.030 5.302 " stroke="none" fill="black" fill-rule="evenodd"></path></svg>