<svg xmlns="http://www.w3.org/2000/svg" width="24" height="24" viewBox="0 0 24 24" fill="none" stroke="currentColor" stroke-width="2" stroke-linecap="round" stroke-linejoin="round"><path d="M8.260 3.024 C 7.005 3.153,5.884 3.481,4.850 4.020 C 3.969 4.480,3.314 4.963,2.600 5.680 C 0.123 8.168,-0.665 11.898,0.587 15.200 C 1.803 18.408,4.802 20.671,8.220 20.961 C 8.576 20.991,10.323 21.000,13.760 20.991 L 18.780 20.977 19.180 20.886 C 21.034 20.466,22.480 19.372,23.316 17.759 C 23.589 17.234,23.756 16.765,23.885 16.160 C 23.960 15.810,23.975 15.616,23.975 15.000 C 23.975 14.384,23.960 14.190,23.885 13.840 C 23.756 13.236,23.589 12.767,23.316 12.239 C 22.738 11.120,21.846 10.236,20.713 9.662 C 19.864 9.230,19.130 9.047,18.087 9.005 L 17.473 8.980 17.352 8.666 C 16.952 7.628,16.218 6.509,15.395 5.684 C 14.016 4.300,12.355 3.442,10.420 3.116 C 9.957 3.038,8.663 2.983,8.260 3.024 M10.140 5.094 C 11.658 5.373,12.892 6.011,13.943 7.058 C 14.765 7.877,15.324 8.818,15.702 10.018 C 15.866 10.541,15.998 10.733,16.297 10.892 C 16.448 10.972,16.539 10.980,17.540 11.004 C 18.520 11.027,18.655 11.038,19.002 11.130 C 20.438 11.510,21.521 12.617,21.891 14.080 C 21.959 14.350,21.977 14.539,21.977 15.000 C 21.977 15.461,21.959 15.650,21.891 15.920 C 21.510 17.428,20.365 18.556,18.860 18.906 C 18.557 18.976,18.269 18.980,13.380 18.980 L 8.220 18.980 7.753 18.890 C 7.088 18.762,6.505 18.562,5.860 18.240 C 3.916 17.270,2.593 15.539,2.131 13.362 C 2.035 12.910,2.024 12.776,2.023 12.020 C 2.023 11.118,2.065 10.779,2.263 10.091 C 3.052 7.359,5.369 5.388,8.200 5.042 C 8.610 4.991,9.749 5.022,10.140 5.094 " stroke="none" fill="black" fill-rule="evenodd"></path></svg>