<svg xmlns="http://www.w3.org/2000/svg" width="24" height="24" viewBox="0 0 24 24" fill="none" stroke="currentColor" stroke-width="2" stroke-linecap="round" stroke-linejoin="round"><path d="M8.320 0.026 C 6.063 0.237,4.125 1.136,2.600 2.678 C 0.186 5.120,-0.620 8.688,0.501 11.965 C 0.694 12.528,1.173 13.492,1.506 13.987 C 1.875 14.535,2.380 15.138,2.797 15.526 C 3.408 16.097,4.411 16.803,4.810 16.944 C 5.571 17.212,6.329 16.443,6.059 15.678 C 5.964 15.408,5.826 15.261,5.459 15.040 C 3.960 14.134,2.896 12.820,2.364 11.218 C 2.074 10.345,1.977 9.652,2.013 8.720 C 2.112 6.158,3.568 3.902,5.860 2.760 C 6.997 2.194,8.068 1.960,9.280 2.014 C 11.563 2.115,13.557 3.240,14.823 5.141 C 15.193 5.696,15.464 6.268,15.682 6.957 C 15.870 7.547,15.990 7.729,16.297 7.892 C 16.448 7.972,16.539 7.980,17.540 8.004 C 18.530 8.027,18.653 8.038,19.015 8.133 C 20.429 8.507,21.488 9.576,21.889 11.033 C 21.959 11.288,21.974 11.452,21.974 12.000 C 21.974 12.548,21.959 12.712,21.889 12.967 C 21.766 13.414,21.585 13.826,21.363 14.163 C 20.791 15.031,20.005 15.596,18.982 15.874 C 18.529 15.997,18.340 16.110,18.170 16.360 C 17.978 16.642,17.956 17.038,18.115 17.350 C 18.218 17.551,18.469 17.777,18.661 17.840 C 19.041 17.966,19.908 17.758,20.710 17.349 C 22.346 16.514,23.490 15.016,23.888 13.188 C 24.016 12.601,24.015 11.407,23.887 10.812 C 23.366 8.394,21.543 6.588,19.144 6.113 C 18.914 6.068,18.467 6.022,18.107 6.007 L 17.473 5.980 17.352 5.665 C 17.176 5.208,16.807 4.505,16.507 4.053 C 15.147 2.005,13.041 0.604,10.660 0.163 C 9.895 0.021,8.956 -0.034,8.320 0.026 M12.668 10.061 C 12.585 10.092,12.462 10.156,12.395 10.204 C 12.250 10.307,8.141 16.450,8.056 16.690 C 7.897 17.143,8.115 17.672,8.550 17.886 L 8.740 17.980 10.930 18.000 L 13.120 18.020 11.616 20.275 C 10.789 21.516,10.087 22.602,10.056 22.690 C 9.789 23.448,10.556 24.209,11.318 23.941 C 11.410 23.908,11.540 23.843,11.606 23.796 C 11.750 23.693,15.859 17.548,15.944 17.310 C 16.103 16.857,15.885 16.328,15.450 16.114 L 15.260 16.020 13.070 16.000 L 10.880 15.980 12.384 13.725 C 13.211 12.484,13.913 11.398,13.944 11.310 C 14.212 10.548,13.429 9.782,12.668 10.061 " stroke="none" fill="black" fill-rule="evenodd"></path></svg>