<svg xmlns="http://www.w3.org/2000/svg" width="24" height="24" viewBox="0 0 24 24" fill="none" stroke="currentColor" stroke-width="2" stroke-linecap="round" stroke-linejoin="round"><path d="M8.060 0.044 C 5.721 0.298,3.475 1.517,2.007 3.329 C 1.229 4.289,0.587 5.567,0.275 6.775 C 0.042 7.681,-0.057 8.944,0.036 9.843 C 0.271 12.119,1.324 14.213,2.974 15.687 C 3.197 15.887,3.470 16.092,3.580 16.144 C 4.062 16.373,4.639 16.177,4.892 15.700 C 4.954 15.582,4.977 15.466,4.978 15.260 C 4.980 14.912,4.897 14.728,4.624 14.480 C 4.102 14.006,3.851 13.756,3.622 13.480 C 2.626 12.281,2.073 10.837,2.013 9.280 C 1.977 8.348,2.074 7.655,2.364 6.782 C 2.827 5.386,3.723 4.174,4.940 3.298 C 5.371 2.988,6.277 2.528,6.793 2.358 C 8.583 1.768,10.532 1.921,12.201 2.783 C 13.878 3.649,15.095 5.108,15.682 6.957 C 15.870 7.547,15.990 7.729,16.297 7.892 C 16.448 7.972,16.540 7.980,17.540 8.004 C 18.781 8.035,19.036 8.080,19.665 8.377 C 20.312 8.684,20.769 9.047,21.161 9.568 C 21.721 10.311,21.977 11.073,21.977 12.000 C 21.977 12.275,21.954 12.608,21.926 12.740 C 21.661 13.987,20.909 14.990,19.820 15.546 C 19.210 15.858,19.022 16.101,19.022 16.580 C 19.022 16.909,19.112 17.114,19.345 17.319 C 19.552 17.501,19.716 17.560,20.012 17.560 C 20.231 17.560,20.316 17.536,20.631 17.382 C 21.238 17.087,21.695 16.754,22.222 16.225 C 23.122 15.321,23.641 14.349,23.887 13.109 C 24.013 12.475,24.013 11.525,23.887 10.891 C 23.641 9.651,23.122 8.679,22.222 7.775 C 21.681 7.232,21.218 6.899,20.583 6.596 C 19.772 6.211,19.083 6.046,18.106 6.006 L 17.471 5.980 17.376 5.726 C 16.986 4.687,16.300 3.626,15.462 2.766 C 14.917 2.205,14.537 1.885,13.958 1.498 C 12.906 0.796,11.607 0.296,10.320 0.100 C 9.808 0.022,8.551 -0.009,8.060 0.044 M7.643 12.069 C 7.407 12.152,7.149 12.416,7.066 12.660 C 6.968 12.948,6.968 15.052,7.066 15.340 C 7.192 15.709,7.604 16.000,8.000 16.000 C 8.396 16.000,8.808 15.709,8.934 15.340 C 9.032 15.052,9.032 12.948,8.934 12.660 C 8.761 12.152,8.172 11.882,7.643 12.069 M15.643 12.069 C 15.407 12.152,15.149 12.416,15.066 12.660 C 14.968 12.948,14.968 15.052,15.066 15.340 C 15.192 15.709,15.604 16.000,16.000 16.000 C 16.396 16.000,16.808 15.709,16.934 15.340 C 17.032 15.052,17.032 12.948,16.934 12.660 C 16.761 12.152,16.172 11.882,15.643 12.069 M11.643 14.069 C 11.407 14.152,11.149 14.416,11.066 14.660 C 10.968 14.948,10.968 17.052,11.066 17.340 C 11.192 17.709,11.604 18.000,12.000 18.000 C 12.396 18.000,12.808 17.709,12.934 17.340 C 13.032 17.052,13.032 14.948,12.934 14.660 C 12.761 14.152,12.172 13.882,11.643 14.069 M7.643 18.069 C 7.407 18.152,7.149 18.416,7.066 18.660 C 6.968 18.948,6.968 21.052,7.066 21.340 C 7.192 21.709,7.604 22.000,8.000 22.000 C 8.396 22.000,8.808 21.709,8.934 21.340 C 9.032 21.052,9.032 18.948,8.934 18.660 C 8.761 18.152,8.172 17.882,7.643 18.069 M15.643 18.069 C 15.407 18.152,15.149 18.416,15.066 18.660 C 14.968 18.948,14.968 21.052,15.066 21.340 C 15.192 21.709,15.604 22.000,16.000 22.000 C 16.396 22.000,16.808 21.709,16.934 21.340 C 17.032 21.052,17.032 18.948,16.934 18.660 C 16.761 18.152,16.172 17.882,15.643 18.069 M11.643 20.069 C 11.407 20.152,11.149 20.416,11.066 20.660 C 10.968 20.948,10.968 23.052,11.066 23.340 C 11.192 23.709,11.604 24.000,12.000 24.000 C 12.396 24.000,12.808 23.709,12.934 23.340 C 13.032 23.052,13.032 20.948,12.934 20.660 C 12.761 20.152,12.172 19.882,11.643 20.069 " stroke="none" fill="black" fill-rule="evenodd"></path></svg>