<svg xmlns="http://www.w3.org/2000/svg" width="24" height="24" viewBox="0 0 24 24" fill="none" stroke="currentColor" stroke-width="2" stroke-linecap="round" stroke-linejoin="round"><path d="M11.563 1.110 C 11.232 1.283,1.404 7.686,1.274 7.814 C 1.001 8.083,1.020 7.773,1.020 12.000 C 1.020 16.227,1.001 15.917,1.274 16.186 C 1.404 16.314,11.232 22.717,11.563 22.890 C 11.721 22.972,11.832 23.000,12.000 23.000 C 12.168 23.000,12.280 22.972,12.438 22.890 C 12.767 22.719,22.596 16.315,22.727 16.186 C 22.999 15.917,22.980 16.226,22.980 12.000 C 22.980 7.774,22.999 8.083,22.727 7.814 C 22.596 7.685,12.767 1.281,12.438 1.110 C 12.280 1.028,12.168 1.000,12.000 1.000 C 11.832 1.000,11.721 1.028,11.563 1.110 M11.000 5.910 L 11.000 7.981 9.030 9.359 C 7.947 10.117,7.034 10.737,7.000 10.736 C 6.934 10.735,3.838 8.584,3.833 8.535 C 3.831 8.513,10.913 3.871,10.990 3.844 C 10.995 3.842,11.000 4.772,11.000 5.910 M17.060 6.478 C 18.732 7.563,20.122 8.472,20.149 8.496 C 20.187 8.531,19.832 8.798,18.630 9.639 C 17.767 10.243,17.034 10.737,17.000 10.737 C 16.967 10.737,16.054 10.116,14.971 9.358 L 13.001 7.980 13.001 5.911 L 13.000 3.842 13.510 4.173 C 13.790 4.356,15.388 5.393,17.060 6.478 M13.634 10.860 C 14.516 11.476,15.237 11.989,15.237 12.000 C 15.237 12.011,14.509 12.528,13.620 13.149 L 12.003 14.278 10.384 13.149 C 9.493 12.528,8.764 12.011,8.764 12.000 C 8.764 11.971,11.975 9.726,12.005 9.734 C 12.019 9.737,12.752 10.244,13.634 10.860 M4.234 11.280 C 4.786 11.665,5.237 11.989,5.237 12.000 C 5.237 12.018,3.401 13.311,3.115 13.494 L 3.000 13.568 3.000 12.000 L 3.000 10.432 3.115 10.506 C 3.179 10.547,3.682 10.895,4.234 11.280 M20.991 12.781 L 20.980 13.562 19.872 12.791 C 19.263 12.367,18.764 12.011,18.764 12.000 C 18.764 11.989,19.263 11.633,19.872 11.209 L 20.980 10.438 20.991 11.219 C 20.997 11.649,20.997 12.351,20.991 12.781 M9.042 14.649 L 11.000 16.019 11.000 18.088 L 11.000 20.157 10.030 19.526 C 9.496 19.179,7.899 18.142,6.480 17.221 C 5.061 16.301,3.878 15.528,3.851 15.503 C 3.813 15.469,4.177 15.196,5.391 14.349 C 6.265 13.739,7.003 13.248,7.032 13.259 C 7.061 13.270,7.965 13.896,9.042 14.649 M18.641 14.369 C 19.835 15.204,20.187 15.469,20.149 15.504 C 20.122 15.528,18.732 16.437,17.060 17.522 C 15.388 18.607,13.790 19.644,13.510 19.827 L 13.000 20.158 13.001 18.089 L 13.001 16.020 14.990 14.629 C 16.084 13.865,17.003 13.248,17.031 13.259 C 17.060 13.270,17.785 13.769,18.641 14.369 " stroke="none" fill="black" fill-rule="evenodd"></path></svg>