<svg xmlns="http://www.w3.org/2000/svg" width="24" height="24" viewBox="0 0 24 24" fill="none" stroke="currentColor" stroke-width="2" stroke-linecap="round" stroke-linejoin="round"><path d="M11.495 1.041 C 11.063 1.119,10.653 1.319,9.025 2.249 C 8.100 2.777,7.271 3.235,7.184 3.266 C 7.097 3.296,6.934 3.391,6.823 3.475 C 6.711 3.559,5.864 4.057,4.940 4.582 L 3.260 5.537 2.868 5.928 C 2.465 6.329,2.323 6.557,2.144 7.091 C 2.004 7.509,1.997 7.767,2.009 12.180 L 2.020 16.540 2.152 16.920 C 2.328 17.425,2.571 17.804,2.949 18.164 C 3.230 18.430,3.429 18.555,4.941 19.416 C 5.864 19.942,6.711 20.441,6.823 20.525 C 6.934 20.609,7.098 20.704,7.186 20.735 C 7.275 20.766,8.045 21.191,8.898 21.679 C 9.750 22.166,10.550 22.617,10.674 22.680 C 10.936 22.812,11.821 23.080,11.997 23.080 C 12.141 23.080,12.764 22.910,13.108 22.778 C 13.244 22.725,14.111 22.250,15.033 21.723 C 15.956 21.195,16.759 20.752,16.819 20.737 C 16.879 20.722,17.007 20.649,17.103 20.575 C 17.200 20.502,17.977 20.043,18.830 19.557 C 20.740 18.467,20.803 18.426,21.146 18.069 C 21.492 17.710,21.678 17.405,21.848 16.918 L 21.980 16.540 21.980 12.020 L 21.980 7.500 21.886 7.200 C 21.686 6.562,21.563 6.355,21.111 5.891 C 20.804 5.576,20.709 5.516,18.830 4.443 C 17.977 3.957,17.200 3.498,17.103 3.425 C 17.007 3.351,16.879 3.278,16.819 3.263 C 16.760 3.248,15.942 2.797,15.003 2.260 C 13.024 1.129,12.827 1.044,12.125 1.019 C 11.891 1.011,11.608 1.020,11.495 1.041 M12.346 3.072 C 12.554 3.157,14.399 4.211,14.400 4.245 C 14.400 4.270,12.099 5.611,12.021 5.631 C 11.976 5.642,9.626 4.296,9.610 4.249 C 9.599 4.215,11.410 3.171,11.654 3.072 C 11.866 2.986,12.134 2.986,12.346 3.072 M9.511 6.526 C 10.583 7.146,11.532 7.685,11.620 7.725 C 11.849 7.829,12.173 7.821,12.420 7.705 C 12.530 7.653,13.482 7.113,14.535 6.503 L 16.450 5.396 17.706 6.112 L 18.962 6.828 15.511 8.824 C 13.613 9.922,12.032 10.819,11.997 10.818 C 11.963 10.816,10.523 9.999,8.797 9.001 C 7.072 8.003,5.520 7.106,5.349 7.008 L 5.039 6.828 6.289 6.114 C 6.977 5.722,7.545 5.400,7.551 5.400 C 7.557 5.400,8.439 5.907,9.511 6.526 M7.537 10.580 L 10.998 12.580 10.999 16.570 C 11.000 18.765,10.993 20.560,10.984 20.560 C 10.976 20.560,10.422 20.247,9.754 19.865 L 8.540 19.171 8.520 16.775 C 8.500 14.438,8.498 14.376,8.415 14.200 C 8.368 14.101,8.269 13.963,8.195 13.893 C 8.121 13.823,7.556 13.474,6.940 13.119 C 6.324 12.763,5.410 12.236,4.910 11.947 L 4.000 11.422 4.000 9.988 C 4.000 9.110,4.015 8.559,4.038 8.567 C 4.058 8.574,5.633 9.480,7.537 10.580 M20.000 9.992 L 20.000 11.423 17.991 12.582 C 16.886 13.219,15.911 13.803,15.825 13.880 C 15.738 13.957,15.630 14.101,15.584 14.200 C 15.503 14.375,15.499 14.452,15.480 16.775 L 15.460 19.171 14.246 19.865 C 13.578 20.247,13.024 20.560,13.016 20.560 C 13.007 20.560,13.001 18.765,13.001 16.570 L 13.003 12.580 13.511 12.289 C 13.791 12.129,15.352 11.226,16.980 10.282 C 18.608 9.338,19.953 8.565,19.970 8.563 C 19.987 8.561,20.000 9.204,20.000 9.992 M5.260 14.459 L 6.460 15.155 6.471 16.575 L 6.481 17.996 5.431 17.397 C 4.756 17.013,4.334 16.747,4.252 16.655 C 4.017 16.391,4.000 16.277,4.000 14.953 C 4.000 14.297,4.014 13.761,4.030 13.761 C 4.046 13.762,4.600 14.076,5.260 14.459 M20.000 14.953 C 20.000 16.277,19.983 16.391,19.748 16.655 C 19.666 16.747,19.244 17.013,18.570 17.397 L 17.520 17.995 17.520 16.582 L 17.520 15.168 18.730 14.466 C 19.395 14.080,19.953 13.763,19.970 13.762 C 19.987 13.761,20.000 14.297,20.000 14.953 " stroke="none" fill="black" fill-rule="evenodd"></path></svg>