<svg viewBox="0 0 24 24" width="24" height="24" xmlns="http://www.w3.org/2000/svg" fill="none" stroke="currentColor" stroke-width="2" stroke-linecap="round" stroke-linejoin="round"><path d="M5.643 0.069 C 5.407 0.152,5.149 0.416,5.066 0.660 C 5.009 0.828,5.000 1.073,5.000 2.500 C 5.000 4.371,5.005 4.407,5.299 4.701 C 5.690 5.092,6.310 5.092,6.701 4.701 C 6.995 4.407,7.000 4.371,7.000 2.500 C 7.000 0.629,6.995 0.593,6.701 0.299 C 6.424 0.021,6.024 -0.066,5.643 0.069 M9.643 0.069 C 9.407 0.152,9.149 0.416,9.066 0.660 C 9.009 0.828,9.000 1.073,9.000 2.500 C 9.000 4.371,9.005 4.407,9.299 4.701 C 9.479 4.881,9.758 5.000,10.000 5.000 C 10.242 5.000,10.521 4.881,10.701 4.701 C 10.995 4.407,11.000 4.371,11.000 2.500 C 11.000 0.629,10.995 0.593,10.701 0.299 C 10.424 0.021,10.024 -0.066,9.643 0.069 M13.643 0.069 C 13.407 0.152,13.149 0.416,13.066 0.660 C 13.009 0.828,13.000 1.073,13.000 2.500 C 13.000 4.371,13.005 4.407,13.299 4.701 C 13.479 4.881,13.758 5.000,14.000 5.000 C 14.242 5.000,14.521 4.881,14.701 4.701 C 14.995 4.407,15.000 4.371,15.000 2.500 C 15.000 0.629,14.995 0.593,14.701 0.299 C 14.424 0.021,14.024 -0.066,13.643 0.069 M1.643 7.068 C 1.403 7.154,1.147 7.418,1.064 7.668 C 1.003 7.851,0.999 8.284,1.011 12.784 C 1.023 17.331,1.029 17.722,1.095 18.000 C 1.344 19.050,1.756 19.801,2.478 20.521 C 3.221 21.262,4.004 21.685,5.040 21.907 C 5.358 21.975,5.683 21.980,10.000 21.980 C 14.317 21.980,14.642 21.975,14.960 21.907 C 16.207 21.640,17.269 20.969,18.006 19.984 C 18.293 19.599,18.684 18.819,18.800 18.400 C 18.895 18.055,18.999 17.416,19.000 17.176 L 19.000 17.012 19.344 16.985 C 20.524 16.895,21.577 16.430,22.429 15.624 C 22.877 15.201,23.199 14.759,23.483 14.180 C 24.277 12.560,24.147 10.732,23.128 9.180 C 22.890 8.818,22.180 8.109,21.815 7.868 C 21.259 7.502,20.690 7.259,20.000 7.094 C 19.717 7.027,19.203 7.022,10.760 7.014 C 2.728 7.006,1.802 7.012,1.643 7.068 M17.000 13.142 C 17.000 17.673,17.004 17.588,16.765 18.161 C 16.475 18.853,15.853 19.475,15.161 19.765 C 14.587 20.005,14.687 20.000,10.000 20.000 C 5.299 20.000,5.411 20.005,4.831 19.759 C 4.133 19.462,3.525 18.853,3.235 18.161 C 2.996 17.588,3.000 17.673,3.000 13.142 L 3.000 9.000 10.000 9.000 L 17.000 9.000 17.000 13.142 M19.592 9.063 C 21.443 9.443,22.492 11.421,21.765 13.161 C 21.475 13.853,20.853 14.475,20.161 14.765 C 19.879 14.882,19.370 15.000,19.142 15.000 L 19.000 15.000 19.000 12.000 L 19.000 9.000 19.142 9.000 C 19.220 9.000,19.422 9.028,19.592 9.063 " stroke="none" fill="black" fill-rule="evenodd"></path></svg>