<svg width="24" height="24" viewBox="0 0 24 24" xmlns="http://www.w3.org/2000/svg" fill="none" stroke="currentColor" stroke-width="2" stroke-linecap="round" stroke-linejoin="round"><path d="M4.620 2.025 C 4.212 2.105,4.087 2.139,3.870 2.227 C 2.989 2.585,2.321 3.364,2.076 4.320 C 1.993 4.647,1.992 19.351,2.076 19.677 C 2.317 20.619,3.000 21.425,3.845 21.763 C 4.421 21.995,3.806 21.977,11.820 21.990 C 16.790 21.998,19.268 21.989,19.452 21.961 C 20.648 21.777,21.618 20.882,21.924 19.680 C 22.007 19.352,22.008 4.648,21.924 4.323 C 21.617 3.126,20.660 2.234,19.476 2.042 C 19.234 2.003,4.817 1.986,4.620 2.025 M11.000 12.000 L 11.000 20.000 7.927 20.000 C 4.463 20.000,4.610 20.012,4.298 19.700 C 3.974 19.376,3.998 20.028,4.010 11.918 L 4.020 4.700 4.131 4.511 C 4.256 4.298,4.449 4.136,4.670 4.057 C 4.790 4.014,5.433 4.003,7.910 4.002 L 11.000 4.000 11.000 12.000 M19.340 4.066 C 19.455 4.105,19.603 4.201,19.701 4.299 C 20.025 4.623,20.000 3.977,20.000 12.000 C 20.000 20.023,20.025 19.377,19.701 19.701 C 19.390 20.012,19.536 20.000,16.073 20.000 L 13.000 20.000 13.000 12.000 L 13.000 4.000 16.073 4.000 C 18.828 4.000,19.166 4.007,19.340 4.066 " stroke="none" fill="black" fill-rule="evenodd"></path></svg>