<svg xmlns="http://www.w3.org/2000/svg" width="24" height="24" viewBox="0 0 24 24" fill="none" stroke="currentColor" stroke-width="2" stroke-linecap="round" stroke-linejoin="round"><path d="M11.160 1.025 C 9.301 1.200,7.615 1.759,6.148 2.687 C 4.822 3.527,3.527 4.822,2.687 6.148 C 1.869 7.442,1.330 8.925,1.093 10.540 C 1.041 10.896,1.023 11.273,1.023 12.000 C 1.023 12.727,1.041 13.104,1.093 13.460 C 1.459 15.949,2.477 17.997,4.219 19.742 C 4.905 20.431,5.272 20.733,6.000 21.211 C 7.357 22.102,8.852 22.660,10.540 22.906 C 11.211 23.004,12.789 23.004,13.460 22.906 C 15.405 22.623,17.091 21.926,18.637 20.770 C 19.170 20.370,20.252 19.310,20.646 18.800 C 21.874 17.211,22.614 15.461,22.906 13.460 C 22.958 13.105,22.976 12.724,22.976 12.000 C 22.976 11.276,22.958 10.895,22.906 10.540 C 22.614 8.540,21.878 6.798,20.647 5.200 C 20.259 4.697,19.173 3.633,18.637 3.231 C 17.124 2.097,15.456 1.398,13.600 1.118 C 13.075 1.039,11.609 0.983,11.160 1.025 M12.863 3.043 C 15.975 3.345,18.701 5.239,20.083 8.060 C 22.266 12.512,20.412 17.891,15.940 20.083 C 11.490 22.265,6.104 20.409,3.917 15.940 C 2.386 12.813,2.802 9.097,4.987 6.369 C 6.873 4.015,9.866 2.751,12.863 3.043 M12.763 7.859 C 10.841 8.500,9.402 9.001,9.313 9.060 C 9.229 9.115,9.115 9.229,9.060 9.313 C 8.918 9.528,6.760 16.010,6.760 16.223 C 6.760 16.775,7.225 17.240,7.777 17.240 C 7.990 17.240,14.472 15.082,14.687 14.940 C 14.771 14.885,14.885 14.771,14.940 14.687 C 15.082 14.472,17.240 7.990,17.240 7.777 C 17.240 7.225,16.775 6.760,16.223 6.760 C 16.116 6.760,14.917 7.141,12.763 7.859 M14.630 9.410 C 14.620 9.438,14.328 10.315,13.981 11.360 C 13.634 12.405,13.330 13.280,13.305 13.305 C 13.260 13.350,9.396 14.649,9.373 14.627 C 9.358 14.611,10.626 10.799,10.671 10.722 C 10.698 10.677,14.473 9.376,14.614 9.363 C 14.633 9.361,14.640 9.383,14.630 9.410 " stroke="none" fill="black" fill-rule="evenodd"></path></svg>