<svg xmlns="http://www.w3.org/2000/svg" width="24" height="24" viewBox="0 0 24 24" fill="none" stroke="currentColor" stroke-width="2" stroke-linecap="round" stroke-linejoin="round"><path d="M14.580 3.096 C 14.420 3.172,13.850 3.724,11.755 5.826 C 9.372 8.217,9.124 8.478,9.065 8.657 C 8.936 9.047,9.021 9.423,9.299 9.701 C 9.577 9.979,9.954 10.064,10.343 9.935 C 10.520 9.876,10.719 9.691,12.270 8.146 L 14.000 6.422 14.000 11.353 C 14.000 16.751,14.007 16.581,13.765 17.161 C 13.475 17.853,12.853 18.475,12.161 18.765 C 11.593 19.002,11.631 19.000,7.569 19.000 C 3.388 19.000,3.614 18.984,3.299 19.299 C 2.907 19.691,2.908 20.310,3.300 20.702 C 3.619 21.021,3.368 21.005,7.785 20.989 C 12.068 20.974,11.843 20.986,12.595 20.736 C 13.516 20.428,14.413 19.777,15.006 18.984 C 15.293 18.599,15.684 17.819,15.800 17.400 C 16.000 16.676,16.000 16.682,16.000 11.381 L 16.000 6.422 17.730 8.146 C 19.281 9.691,19.480 9.876,19.657 9.935 C 20.046 10.064,20.423 9.979,20.701 9.701 C 20.979 9.423,21.064 9.047,20.935 8.657 C 20.876 8.478,20.628 8.217,18.245 5.826 C 15.391 2.962,15.436 3.001,15.000 3.001 C 14.851 3.001,14.716 3.031,14.580 3.096 " stroke="none" fill="black" fill-rule="evenodd"></path></svg>