<svg xmlns="http://www.w3.org/2000/svg" width="24" height="24" viewBox="0 0 24 24" fill="none" stroke="currentColor" stroke-width="2" stroke-linecap="round" stroke-linejoin="round"><path d="M3.643 3.068 C 3.290 3.194,3.000 3.614,3.000 4.000 C 3.000 4.242,3.119 4.521,3.299 4.701 C 3.614 5.016,3.388 5.000,7.569 5.000 C 11.631 5.000,11.593 4.998,12.161 5.235 C 12.853 5.525,13.475 6.147,13.765 6.839 C 14.007 7.419,14.000 7.249,14.000 12.647 L 14.000 17.578 12.270 15.854 C 10.719 14.309,10.520 14.124,10.343 14.065 C 9.954 13.936,9.577 14.021,9.299 14.299 C 9.021 14.577,8.936 14.953,9.065 15.343 C 9.124 15.522,9.372 15.783,11.755 18.174 C 14.609 21.038,14.564 20.999,15.000 20.999 C 15.436 20.999,15.391 21.038,18.245 18.174 C 20.628 15.783,20.876 15.522,20.935 15.343 C 21.064 14.953,20.979 14.577,20.701 14.299 C 20.423 14.021,20.046 13.936,19.657 14.065 C 19.480 14.124,19.281 14.309,17.731 15.853 L 16.002 17.576 15.989 12.438 C 15.977 7.676,15.971 7.278,15.905 7.000 C 15.656 5.950,15.245 5.200,14.522 4.478 C 13.796 3.752,13.052 3.344,12.000 3.095 C 11.725 3.030,11.372 3.023,7.760 3.015 C 4.256 3.006,3.800 3.012,3.643 3.068 " stroke="none" fill="black" fill-rule="evenodd"></path></svg>