<svg xmlns="http://www.w3.org/2000/svg" width="24" height="24" viewBox="0 0 24 24" fill="none" stroke="currentColor" stroke-width="2" stroke-linecap="round" stroke-linejoin="round"><path d="M8.640 3.068 C 8.485 3.121,8.093 3.496,5.826 5.755 C 2.962 8.609,3.001 8.564,3.001 9.000 C 3.001 9.436,2.962 9.391,5.826 12.245 C 8.217 14.628,8.478 14.876,8.657 14.935 C 9.047 15.064,9.423 14.979,9.701 14.701 C 9.979 14.423,10.064 14.046,9.935 13.657 C 9.876 13.480,9.691 13.281,8.146 11.730 L 6.422 10.000 11.353 10.000 C 16.751 10.000,16.581 9.993,17.161 10.235 C 17.853 10.525,18.475 11.147,18.765 11.839 C 19.002 12.407,19.000 12.369,19.000 16.431 C 19.000 20.612,18.984 20.386,19.299 20.701 C 19.691 21.093,20.310 21.092,20.702 20.700 C 21.021 20.381,21.005 20.632,20.989 16.215 C 20.977 12.636,20.970 12.274,20.905 12.000 C 20.658 10.955,20.247 10.207,19.521 9.478 C 18.798 8.753,18.055 8.346,17.000 8.095 C 16.722 8.029,16.324 8.023,11.562 8.011 L 6.424 7.998 8.147 6.269 C 9.691 4.719,9.876 4.520,9.935 4.343 C 10.064 3.954,9.979 3.577,9.701 3.299 C 9.424 3.021,9.028 2.935,8.640 3.068 " stroke="none" fill="black" fill-rule="evenodd"></path></svg>