<svg xmlns="http://www.w3.org/2000/svg" width="24" height="24" viewBox="0 0 24 24" fill="none" stroke="currentColor" stroke-width="2" stroke-linecap="round" stroke-linejoin="round"><path d="M11.160 1.025 C 9.301 1.200,7.615 1.759,6.148 2.687 C 4.822 3.527,3.527 4.822,2.687 6.148 C 1.869 7.442,1.330 8.925,1.093 10.540 C 1.041 10.896,1.023 11.273,1.023 12.000 C 1.023 12.727,1.041 13.104,1.093 13.460 C 1.459 15.949,2.477 17.997,4.219 19.742 C 4.905 20.431,5.272 20.733,6.000 21.211 C 7.357 22.102,8.852 22.660,10.540 22.906 C 11.211 23.004,12.789 23.004,13.460 22.906 C 15.405 22.623,17.091 21.926,18.637 20.770 C 19.170 20.370,20.252 19.310,20.646 18.800 C 21.874 17.211,22.614 15.461,22.906 13.460 C 22.958 13.105,22.976 12.724,22.976 12.000 C 22.976 11.276,22.958 10.895,22.906 10.540 C 22.614 8.540,21.878 6.798,20.647 5.200 C 20.259 4.697,19.173 3.633,18.637 3.231 C 17.124 2.097,15.456 1.398,13.600 1.118 C 13.075 1.039,11.609 0.983,11.160 1.025 M12.863 3.043 C 14.531 3.205,16.246 3.887,17.513 4.891 L 17.766 5.092 17.513 5.349 C 16.952 5.921,15.934 6.714,15.180 7.168 C 14.520 7.564,13.415 8.120,13.285 8.120 C 13.267 8.120,13.084 7.827,12.878 7.470 C 12.242 6.362,11.425 5.086,10.445 3.674 C 10.201 3.323,10.136 3.202,10.180 3.185 C 10.244 3.161,11.003 3.050,11.260 3.027 C 11.630 2.995,12.456 3.003,12.863 3.043 M8.279 4.070 C 8.890 4.932,9.717 6.152,10.130 6.800 C 10.655 7.622,11.320 8.738,11.320 8.795 C 11.320 8.840,9.978 9.169,9.262 9.300 C 7.887 9.552,6.172 9.749,4.580 9.839 C 4.184 9.861,3.720 9.888,3.550 9.898 L 3.239 9.918 3.264 9.809 C 3.349 9.433,3.683 8.537,3.917 8.060 C 4.619 6.625,5.614 5.478,6.960 4.551 C 7.287 4.325,8.056 3.882,8.122 3.881 C 8.135 3.880,8.205 3.966,8.279 4.070 M19.497 7.030 C 20.112 7.954,20.603 9.136,20.817 10.209 C 20.909 10.668,21.021 11.592,20.989 11.624 C 20.981 11.632,20.919 11.623,20.850 11.603 C 20.659 11.548,19.560 11.368,18.980 11.297 C 18.176 11.198,16.338 11.176,15.504 11.256 C 15.132 11.292,14.817 11.311,14.805 11.299 C 14.779 11.272,14.243 10.091,14.212 9.990 C 14.196 9.937,14.229 9.904,14.345 9.856 C 14.698 9.709,15.731 9.172,16.159 8.912 C 17.082 8.352,17.995 7.657,18.740 6.946 C 18.960 6.736,19.150 6.563,19.162 6.562 C 19.175 6.561,19.325 6.771,19.497 7.030 M12.553 11.183 C 12.689 11.481,12.800 11.741,12.800 11.760 C 12.800 11.778,12.706 11.824,12.590 11.862 C 12.194 11.990,11.506 12.284,11.001 12.541 C 9.101 13.507,7.219 15.130,5.580 17.216 C 5.426 17.412,5.259 17.619,5.210 17.676 L 5.119 17.780 4.978 17.620 C 4.699 17.305,4.187 16.494,3.917 15.942 C 3.352 14.784,3.000 13.341,3.000 12.177 L 3.000 11.928 3.510 11.903 C 6.075 11.775,7.814 11.595,9.560 11.277 C 10.214 11.158,11.419 10.876,11.920 10.725 C 12.063 10.681,12.208 10.645,12.243 10.643 C 12.285 10.641,12.384 10.813,12.553 11.183 M18.300 13.242 C 19.088 13.310,20.757 13.583,20.830 13.657 C 20.864 13.691,20.714 14.293,20.535 14.840 C 20.113 16.128,19.341 17.377,18.361 18.357 C 17.936 18.782,17.358 19.256,17.320 19.212 C 17.305 19.194,17.207 18.838,17.101 18.420 C 16.801 17.226,16.279 15.432,15.915 14.340 C 15.731 13.790,15.575 13.318,15.568 13.292 C 15.551 13.231,15.770 13.217,16.920 13.208 C 17.415 13.204,18.036 13.219,18.300 13.242 M13.956 14.780 C 14.382 16.054,14.813 17.538,15.220 19.133 L 15.515 20.285 15.337 20.361 C 15.003 20.504,14.260 20.723,13.780 20.819 C 11.819 21.211,9.836 20.954,8.047 20.075 C 7.532 19.822,6.682 19.300,6.619 19.198 C 6.606 19.177,6.789 18.912,7.027 18.610 C 8.648 16.552,10.261 15.152,12.017 14.278 C 12.661 13.957,13.516 13.624,13.568 13.674 C 13.583 13.688,13.757 14.186,13.956 14.780 " stroke="none" fill="black" fill-rule="evenodd"></path></svg>