<svg xmlns="http://www.w3.org/2000/svg" width="24" height="24" viewBox="0 0 24 24" fill="none" stroke="currentColor" stroke-width="2" stroke-linecap="round" stroke-linejoin="round"><path d="M14.643 2.069 C 14.291 2.193,14.000 2.614,14.000 3.000 C 14.000 3.242,14.119 3.521,14.299 3.701 C 14.597 3.999,14.605 4.000,16.717 4.000 L 18.579 4.000 13.854 8.730 C 9.515 13.074,9.124 13.476,9.065 13.657 C 8.937 14.047,9.021 14.423,9.299 14.701 C 9.577 14.979,9.953 15.063,10.343 14.935 C 10.524 14.876,10.926 14.485,15.270 10.146 L 20.000 5.421 20.000 7.283 C 20.000 9.395,20.001 9.403,20.299 9.701 C 20.690 10.092,21.310 10.092,21.701 9.701 C 22.013 9.389,22.000 9.549,22.000 5.963 L 21.999 2.780 21.905 2.580 C 21.791 2.340,21.642 2.193,21.400 2.083 C 21.224 2.003,21.156 2.002,18.020 2.004 C 15.228 2.006,14.798 2.014,14.643 2.069 M4.620 5.025 C 4.212 5.105,4.087 5.139,3.870 5.227 C 2.989 5.585,2.321 6.364,2.076 7.320 C 1.993 7.646,1.992 19.352,2.076 19.677 C 2.357 20.776,3.118 21.555,4.260 21.915 C 4.438 21.971,5.119 21.979,10.320 21.990 C 14.280 21.998,16.269 21.989,16.453 21.960 C 17.467 21.804,18.358 21.109,18.759 20.160 C 18.986 19.621,18.975 19.809,18.990 16.205 C 19.005 12.438,19.018 12.616,18.702 12.300 C 18.310 11.908,17.691 11.907,17.299 12.299 C 16.987 12.610,17.000 12.456,17.000 16.000 C 17.000 19.544,17.013 19.390,16.701 19.701 C 16.380 20.022,16.843 20.000,10.500 20.000 C 4.157 20.000,4.620 20.022,4.299 19.701 C 3.978 19.380,4.000 19.845,4.002 13.483 C 4.003 8.857,4.013 7.793,4.057 7.670 C 4.136 7.449,4.298 7.256,4.511 7.131 L 4.700 7.020 7.980 7.000 L 11.260 6.980 11.450 6.886 C 12.051 6.590,12.180 5.778,11.701 5.299 C 11.389 4.986,11.555 4.999,7.923 5.005 C 6.150 5.007,4.664 5.016,4.620 5.025 " stroke="none" fill="black" fill-rule="evenodd"></path></svg>