<svg xmlns="http://www.w3.org/2000/svg" width="24" height="24" viewBox="0 0 24 24" fill="none" stroke="currentColor" stroke-width="2" stroke-linecap="round" stroke-linejoin="round"><path d="M6.936 1.044 C 5.679 1.254,4.560 2.214,4.180 3.409 C 3.911 4.256,3.951 5.098,4.299 5.930 C 4.327 5.996,4.254 6.000,3.091 6.000 C 1.675 6.000,1.583 6.015,1.299 6.299 C 0.991 6.606,1.000 6.514,1.000 9.500 C 1.000 12.486,0.991 12.394,1.299 12.701 C 1.546 12.948,1.741 13.000,2.427 13.000 L 3.000 13.000 3.000 17.573 C 3.000 22.714,2.981 22.383,3.299 22.701 C 3.624 23.026,2.856 23.000,12.000 23.000 C 21.144 23.000,20.376 23.026,20.701 22.701 C 21.019 22.383,21.000 22.714,21.000 17.573 L 21.000 13.000 21.573 13.000 C 22.259 13.000,22.454 12.948,22.701 12.701 C 23.009 12.394,23.000 12.486,23.000 9.500 C 23.000 6.514,23.009 6.606,22.701 6.299 C 22.417 6.015,22.325 6.000,20.909 6.000 C 19.746 6.000,19.673 5.996,19.701 5.930 C 19.917 5.414,20.018 4.839,19.987 4.300 C 19.893 2.645,18.654 1.296,16.988 1.035 C 16.616 0.977,15.916 1.015,15.495 1.118 C 14.870 1.269,14.213 1.592,13.704 1.997 C 13.170 2.422,12.532 3.187,12.161 3.850 C 12.090 3.976,12.019 4.080,12.002 4.080 C 11.985 4.080,11.888 3.938,11.787 3.764 C 11.365 3.037,10.676 2.257,10.080 1.833 C 9.177 1.189,7.933 0.877,6.936 1.044 M8.015 3.060 C 8.945 3.257,9.787 4.094,10.418 5.450 C 10.512 5.654,10.602 5.861,10.618 5.912 L 10.646 6.003 8.893 5.992 L 7.140 5.980 6.900 5.868 C 6.585 5.721,6.276 5.413,6.133 5.104 C 6.035 4.894,6.020 4.811,6.020 4.500 C 6.020 4.190,6.035 4.107,6.132 3.900 C 6.464 3.188,7.158 2.878,8.015 3.060 M17.100 3.134 C 17.414 3.278,17.723 3.585,17.867 3.896 C 17.965 4.106,17.980 4.189,17.980 4.500 C 17.980 4.810,17.965 4.893,17.868 5.100 C 17.721 5.415,17.413 5.724,17.104 5.867 L 16.860 5.980 15.107 5.992 L 13.354 6.003 13.381 5.912 C 13.434 5.732,13.875 4.856,14.041 4.600 C 14.577 3.774,15.275 3.215,15.967 3.059 C 16.355 2.971,16.809 3.001,17.100 3.134 M11.000 9.500 L 11.000 11.000 7.000 11.000 L 3.000 11.000 3.000 9.500 L 3.000 8.000 7.000 8.000 L 11.000 8.000 11.000 9.500 M21.000 9.500 L 21.000 11.000 17.000 11.000 L 13.000 11.000 13.000 9.500 L 13.000 8.000 17.000 8.000 L 21.000 8.000 21.000 9.500 M11.000 17.000 L 11.000 21.000 8.000 21.000 L 5.000 21.000 5.000 17.000 L 5.000 13.000 8.000 13.000 L 11.000 13.000 11.000 17.000 M19.000 17.000 L 19.000 21.000 16.000 21.000 L 13.000 21.000 13.000 17.000 L 13.000 13.000 16.000 13.000 L 19.000 13.000 19.000 17.000 " stroke="none" fill="black" fill-rule="evenodd"></path></svg>