<svg xmlns="http://www.w3.org/2000/svg" width="24" height="24" viewBox="0 0 24 24" fill="none" stroke="currentColor" stroke-width="2" stroke-linecap="round" stroke-linejoin="round"><path d="M5.643 2.069 C 5.546 2.103,5.392 2.206,5.300 2.298 C 4.978 2.620,5.000 2.157,5.000 8.488 C 5.000 13.819,4.996 14.124,4.930 14.144 C 3.456 14.600,2.436 15.677,2.095 17.140 C 1.992 17.581,1.992 18.419,2.095 18.860 C 2.454 20.399,3.601 21.546,5.140 21.905 C 5.604 22.014,6.459 22.007,6.920 21.891 C 7.930 21.636,8.787 21.034,9.336 20.191 C 9.558 19.851,9.758 19.426,9.841 19.118 C 9.881 18.969,9.886 18.965,10.111 18.939 C 14.037 18.478,17.322 15.788,18.520 12.053 C 18.706 11.476,18.960 10.245,18.960 9.926 C 18.960 9.903,19.030 9.864,19.115 9.841 C 20.432 9.487,21.538 8.323,21.891 6.920 C 22.007 6.459,22.014 5.604,21.905 5.140 C 21.219 2.200,17.753 1.023,15.429 2.940 C 14.946 3.338,14.525 3.921,14.287 4.523 C 14.087 5.027,14.020 5.399,14.020 6.000 C 14.020 6.386,14.041 6.631,14.095 6.860 C 14.409 8.207,15.304 9.236,16.600 9.742 L 16.940 9.874 16.928 10.027 C 16.854 10.972,16.316 12.432,15.691 13.380 C 14.704 14.878,13.178 16.049,11.500 16.595 C 11.035 16.747,10.341 16.904,10.027 16.928 L 9.874 16.940 9.738 16.589 C 9.301 15.462,8.426 14.613,7.300 14.221 L 7.020 14.124 7.000 8.432 L 6.980 2.740 6.886 2.550 C 6.665 2.101,6.134 1.895,5.643 2.069 M18.408 4.044 C 19.310 4.232,20.000 5.080,20.000 6.000 C 20.000 7.080,19.080 8.000,18.000 8.000 C 16.920 8.000,16.000 7.080,16.000 6.000 C 16.000 5.102,16.657 4.269,17.534 4.057 C 17.797 3.993,18.138 3.988,18.408 4.044 M6.408 16.044 C 7.310 16.232,8.000 17.080,8.000 18.000 C 8.000 19.080,7.080 20.000,6.000 20.000 C 4.920 20.000,4.000 19.080,4.000 18.000 C 4.000 17.102,4.657 16.269,5.534 16.057 C 5.797 15.993,6.138 15.988,6.408 16.044 " stroke="none" fill="black" fill-rule="evenodd"></path></svg>