<svg width="24" height="24" viewBox="0 0 24 24" xmlns="http://www.w3.org/2000/svg" fill="none" stroke="currentColor" stroke-width="2" stroke-linecap="round" stroke-linejoin="round"><path d="M20.640 1.068 C 20.483 1.121,19.872 1.716,15.894 5.690 L 11.327 10.252 11.072 10.090 C 10.415 9.675,9.654 9.370,8.840 9.194 C 8.477 9.115,8.304 9.103,7.560 9.103 C 6.819 9.103,6.643 9.115,6.290 9.192 C 3.672 9.762,1.762 11.672,1.192 14.290 C 1.115 14.643,1.103 14.819,1.103 15.560 C 1.103 16.305,1.115 16.476,1.194 16.840 C 1.633 18.868,2.832 20.432,4.646 21.343 C 6.115 22.081,7.964 22.217,9.531 21.704 C 11.726 20.985,13.390 19.142,13.880 16.887 C 14.044 16.132,14.061 15.101,13.920 14.360 C 13.757 13.496,13.386 12.593,12.894 11.860 L 12.760 11.661 14.129 10.291 L 15.499 8.921 16.699 10.118 C 18.016 11.431,18.077 11.478,18.502 11.479 C 18.939 11.481,18.957 11.466,21.005 9.411 C 22.681 7.729,22.876 7.520,22.935 7.343 C 23.017 7.093,23.017 6.906,22.934 6.657 C 22.877 6.483,22.725 6.315,21.646 5.230 L 20.424 4.001 21.146 3.270 C 21.912 2.495,22.000 2.364,22.000 2.000 C 22.000 1.315,21.308 0.840,20.640 1.068 M19.800 6.220 L 20.579 7.000 19.540 8.040 L 18.501 9.080 17.710 8.290 L 16.920 7.501 17.950 6.470 C 18.516 5.904,18.989 5.440,19.000 5.440 C 19.011 5.440,19.371 5.791,19.800 6.220 M8.700 11.215 C 10.656 11.728,11.996 13.454,12.012 15.480 C 12.014 15.755,11.992 16.115,11.963 16.280 C 11.465 19.102,8.517 20.751,5.853 19.697 C 4.565 19.188,3.567 18.050,3.215 16.691 C 3.089 16.207,3.046 15.415,3.117 14.916 C 3.355 13.259,4.554 11.828,6.147 11.302 C 6.688 11.123,6.997 11.081,7.680 11.096 C 8.191 11.107,8.370 11.128,8.700 11.215 " stroke="none" fill="black" fill-rule="evenodd"></path></svg>