<svg xmlns="http://www.w3.org/2000/svg" width="24" height="24" viewBox="0 0 24 24" fill="none" stroke="currentColor" stroke-width="2" stroke-linecap="round" stroke-linejoin="round"><path d="M11.420 1.024 C 10.503 1.155,9.922 1.331,9.244 1.681 C 7.631 2.515,6.502 4.012,6.111 5.836 C 6.036 6.185,6.027 6.393,6.011 8.105 L 5.994 9.991 5.227 10.011 C 4.722 10.025,4.392 10.052,4.260 10.091 C 3.135 10.424,2.359 11.216,2.076 12.320 C 1.993 12.644,1.993 20.353,2.076 20.677 C 2.357 21.776,3.117 22.553,4.260 22.915 C 4.439 22.971,5.243 22.979,11.820 22.990 C 16.818 22.998,19.268 22.989,19.453 22.960 C 20.643 22.777,21.620 21.876,21.924 20.680 C 22.007 20.355,22.007 12.645,21.924 12.323 C 21.617 11.126,20.660 10.233,19.480 10.043 C 19.337 10.020,18.947 10.000,18.613 10.000 L 18.006 10.000 17.989 8.110 C 17.974 6.341,17.967 6.194,17.884 5.820 C 17.344 3.387,15.550 1.598,13.164 1.116 C 12.794 1.041,11.701 0.983,11.420 1.024 M13.002 3.132 C 14.420 3.499,15.502 4.597,15.890 6.060 C 15.969 6.358,15.975 6.502,15.990 8.190 L 16.005 10.000 12.000 10.000 L 7.995 10.000 8.009 8.190 C 8.024 6.388,8.024 6.378,8.128 5.998 C 8.437 4.859,9.181 3.948,10.240 3.410 C 11.037 3.006,12.099 2.899,13.002 3.132 M19.340 12.066 C 19.455 12.105,19.603 12.201,19.701 12.299 C 20.015 12.613,20.000 12.396,20.000 16.500 C 20.000 20.604,20.015 20.387,19.701 20.701 C 19.377 21.025,20.023 21.000,12.000 21.000 C 3.975 21.000,4.623 21.025,4.298 20.700 C 3.982 20.384,3.997 20.609,4.009 16.417 L 4.020 12.700 4.131 12.511 C 4.256 12.298,4.449 12.136,4.670 12.057 C 4.793 12.013,6.104 12.003,11.983 12.002 C 18.548 12.000,19.162 12.006,19.340 12.066 " stroke="none" fill="black" fill-rule="evenodd"></path></svg>