<svg xmlns="http://www.w3.org/2000/svg" width="24" height="24" viewBox="0 0 24 24" fill="none" stroke="currentColor" stroke-width="2" stroke-linecap="round" stroke-linejoin="round"><path d="M14.643 2.069 C 14.291 2.193,14.000 2.614,14.000 3.000 C 14.000 3.242,14.119 3.521,14.299 3.701 C 14.597 3.999,14.605 4.000,16.716 4.000 L 18.579 4.000 15.854 6.730 C 13.377 9.212,13.124 9.478,13.065 9.657 C 12.936 10.047,13.021 10.423,13.299 10.701 C 13.577 10.979,13.953 11.064,14.343 10.935 C 14.522 10.876,14.788 10.623,17.270 8.146 L 20.000 5.421 20.000 7.284 C 20.000 9.395,20.001 9.403,20.299 9.701 C 20.690 10.092,21.310 10.092,21.701 9.701 C 22.013 9.389,22.000 9.549,22.000 5.963 L 21.999 2.780 21.905 2.580 C 21.791 2.340,21.642 2.193,21.400 2.083 C 21.224 2.003,21.156 2.002,18.020 2.004 C 15.228 2.006,14.798 2.014,14.643 2.069 M9.640 13.068 C 9.485 13.121,9.083 13.505,6.730 15.854 L 4.000 18.579 4.000 16.716 C 4.000 14.605,3.999 14.597,3.701 14.299 C 3.310 13.908,2.690 13.908,2.299 14.299 C 1.987 14.611,2.000 14.451,2.001 18.037 C 2.002 21.153,2.003 21.224,2.083 21.400 C 2.193 21.642,2.340 21.791,2.580 21.905 L 2.780 21.999 5.963 22.000 C 9.549 22.000,9.389 22.013,9.701 21.701 C 10.092 21.310,10.092 20.690,9.701 20.299 C 9.403 20.001,9.395 20.000,7.284 20.000 L 5.421 20.000 8.146 17.270 C 10.623 14.788,10.876 14.522,10.935 14.343 C 11.064 13.953,10.979 13.577,10.701 13.299 C 10.424 13.021,10.028 12.935,9.640 13.068 " stroke="none" fill="black" fill-rule="evenodd"></path></svg>