<svg xmlns="http://www.w3.org/2000/svg" width="24" height="24" viewBox="0 0 24 24" fill="none" stroke="currentColor" stroke-width="2" stroke-linecap="round" stroke-linejoin="round"><path d="M7.643 2.069 C 7.407 2.152,7.149 2.416,7.066 2.660 C 7.009 2.828,7.000 3.073,7.000 4.500 C 7.000 6.371,6.995 6.407,6.701 6.701 C 6.407 6.995,6.371 7.000,4.500 7.000 C 2.629 7.000,2.593 7.005,2.299 7.299 C 2.119 7.479,2.000 7.758,2.000 8.000 C 2.000 8.242,2.119 8.521,2.299 8.701 C 2.594 8.996,2.625 9.000,4.537 9.000 C 5.501 9.000,6.329 8.982,6.474 8.958 C 7.642 8.769,8.543 7.949,8.913 6.740 C 8.963 6.576,8.977 6.206,8.990 4.708 C 9.007 2.618,9.006 2.603,8.702 2.300 C 8.423 2.021,8.024 1.934,7.643 2.069 M15.643 2.069 C 15.401 2.154,15.147 2.418,15.063 2.672 C 15.002 2.855,14.996 3.065,15.010 4.708 C 15.023 6.221,15.037 6.575,15.088 6.740 C 15.439 7.867,16.133 8.561,17.260 8.912 C 17.425 8.963,17.779 8.977,19.292 8.990 C 21.382 9.007,21.397 9.006,21.700 8.702 C 22.092 8.310,22.093 7.691,21.701 7.299 C 21.407 7.005,21.371 7.000,19.500 7.000 C 17.629 7.000,17.593 6.995,17.299 6.701 C 17.005 6.407,17.000 6.371,17.000 4.500 C 17.000 2.629,16.995 2.593,16.701 2.299 C 16.424 2.021,16.024 1.934,15.643 2.069 M2.643 15.069 C 2.291 15.193,2.000 15.614,2.000 16.000 C 2.000 16.242,2.119 16.521,2.299 16.701 C 2.593 16.995,2.629 17.000,4.500 17.000 C 6.371 17.000,6.407 17.005,6.701 17.299 C 6.995 17.593,7.000 17.629,7.000 19.500 C 7.000 21.371,7.005 21.407,7.299 21.701 C 7.691 22.093,8.310 22.092,8.702 21.700 C 9.006 21.397,9.007 21.382,8.990 19.292 C 8.973 17.343,8.976 17.375,8.763 16.845 C 8.396 15.930,7.476 15.204,6.476 15.042 C 6.326 15.018,5.519 15.002,4.520 15.003 C 3.088 15.006,2.792 15.016,2.643 15.069 M17.620 15.025 C 17.212 15.105,17.087 15.139,16.870 15.227 C 16.164 15.514,15.528 16.137,15.250 16.815 C 15.023 17.368,15.027 17.327,15.010 19.292 C 14.993 21.382,14.994 21.397,15.298 21.700 C 15.690 22.092,16.309 22.093,16.701 21.701 C 16.995 21.407,17.000 21.372,17.002 19.483 C 17.004 17.694,17.008 17.655,17.217 17.381 C 17.275 17.304,17.408 17.192,17.511 17.131 L 17.700 17.020 19.480 17.000 C 21.246 16.980,21.262 16.979,21.450 16.886 C 22.051 16.590,22.180 15.778,21.701 15.299 C 21.405 15.003,21.380 14.999,19.423 15.005 C 18.475 15.007,17.664 15.016,17.620 15.025 " stroke="none" fill="black" fill-rule="evenodd"></path></svg>