<svg xmlns="http://www.w3.org/2000/svg" width="24" height="24" viewBox="0 0 24 24" fill="none" stroke="currentColor" stroke-width="2" stroke-linecap="round" stroke-linejoin="round"><path d="M11.580 1.096 C 11.423 1.170,11.028 1.545,9.755 2.826 C 8.304 4.286,8.124 4.481,8.065 4.657 C 7.936 5.046,8.021 5.423,8.299 5.701 C 8.578 5.980,8.955 6.064,9.343 5.934 C 9.510 5.878,9.652 5.757,10.270 5.146 L 11.000 4.425 11.000 7.712 L 11.000 11.000 7.712 11.000 L 4.425 11.000 5.146 10.270 C 5.757 9.652,5.878 9.510,5.934 9.343 C 6.064 8.955,5.980 8.578,5.701 8.299 C 5.423 8.021,5.046 7.936,4.657 8.065 C 4.481 8.124,4.286 8.304,2.826 9.755 C 1.041 11.530,1.001 11.579,1.001 12.000 C 1.001 12.421,1.041 12.470,2.826 14.245 C 4.286 15.696,4.481 15.876,4.657 15.935 C 5.046 16.064,5.423 15.979,5.701 15.701 C 5.980 15.422,6.064 15.045,5.934 14.657 C 5.878 14.490,5.757 14.348,5.146 13.730 L 4.425 13.000 7.712 13.000 L 11.000 13.000 11.000 16.288 L 11.000 19.575 10.270 18.854 C 9.652 18.243,9.510 18.122,9.343 18.066 C 8.955 17.936,8.578 18.020,8.299 18.299 C 8.021 18.577,7.936 18.954,8.065 19.343 C 8.124 19.519,8.304 19.714,9.755 21.174 C 11.530 22.959,11.579 22.999,12.000 22.999 C 12.421 22.999,12.470 22.959,14.245 21.174 C 15.696 19.714,15.876 19.519,15.935 19.343 C 16.064 18.954,15.979 18.577,15.701 18.299 C 15.422 18.020,15.045 17.936,14.657 18.066 C 14.490 18.122,14.348 18.243,13.730 18.854 L 13.000 19.575 13.000 16.288 L 13.000 13.000 16.288 13.000 L 19.575 13.000 18.854 13.730 C 18.243 14.348,18.122 14.490,18.066 14.657 C 17.936 15.045,18.020 15.422,18.299 15.701 C 18.577 15.979,18.954 16.064,19.343 15.935 C 19.519 15.876,19.714 15.696,21.174 14.245 C 22.959 12.470,22.999 12.421,22.999 12.000 C 22.999 11.579,22.959 11.530,21.174 9.755 C 19.714 8.304,19.519 8.124,19.343 8.065 C 18.954 7.936,18.577 8.021,18.299 8.299 C 18.020 8.578,17.936 8.955,18.066 9.343 C 18.122 9.510,18.243 9.652,18.854 10.270 L 19.575 11.000 16.288 11.000 L 13.000 11.000 13.000 7.712 L 13.000 4.425 13.730 5.146 C 14.348 5.757,14.490 5.878,14.657 5.934 C 15.045 6.064,15.422 5.980,15.701 5.701 C 15.979 5.423,16.064 5.046,15.935 4.657 C 15.876 4.481,15.696 4.286,14.245 2.826 C 12.972 1.545,12.577 1.170,12.420 1.096 C 12.151 0.968,11.849 0.968,11.580 1.096 " stroke="none" fill="black" fill-rule="evenodd"></path></svg>