<svg width="24" height="24" viewBox="0 0 24 24" xmlns="http://www.w3.org/2000/svg" fill="none" stroke="currentColor" stroke-width="2" stroke-linecap="round" stroke-linejoin="round"><path d="M14.769 3.021 C 10.145 3.795,8.676 4.054,8.539 4.120 C 8.441 4.168,8.306 4.272,8.241 4.351 C 7.987 4.659,8.000 4.378,8.000 9.690 C 8.000 12.350,7.987 14.520,7.970 14.511 C 7.227 14.131,6.554 13.975,5.820 14.014 C 3.986 14.110,2.514 15.345,2.095 17.140 C 1.992 17.581,1.992 18.419,2.095 18.860 C 2.454 20.399,3.601 21.546,5.140 21.905 C 5.604 22.014,6.459 22.007,6.920 21.891 C 8.399 21.518,9.485 20.440,9.892 18.940 L 9.978 18.620 9.990 12.230 C 9.996 8.716,10.011 5.840,10.021 5.840 C 10.032 5.840,12.255 5.471,14.960 5.020 C 17.665 4.569,19.906 4.200,19.939 4.200 C 19.993 4.200,20.000 4.671,20.000 8.363 C 20.000 10.653,19.987 12.520,19.970 12.511 C 19.227 12.131,18.554 11.975,17.820 12.014 C 15.986 12.110,14.514 13.345,14.095 15.140 C 13.992 15.581,13.992 16.419,14.095 16.860 C 14.454 18.399,15.601 19.546,17.140 19.905 C 17.604 20.014,18.459 20.007,18.920 19.891 C 20.399 19.518,21.485 18.441,21.892 16.940 L 21.978 16.620 21.990 9.743 C 22.001 3.435,21.996 2.849,21.935 2.666 C 21.808 2.284,21.391 1.994,20.983 2.004 C 20.893 2.006,18.097 2.464,14.769 3.021 M18.408 14.044 C 19.310 14.232,20.000 15.080,20.000 16.000 C 20.000 17.080,19.080 18.000,18.000 18.000 C 16.920 18.000,16.000 17.080,16.000 16.000 C 16.000 15.102,16.657 14.269,17.534 14.057 C 17.797 13.993,18.138 13.988,18.408 14.044 M6.408 16.044 C 7.310 16.232,8.000 17.080,8.000 18.000 C 8.000 19.080,7.080 20.000,6.000 20.000 C 4.920 20.000,4.000 19.080,4.000 18.000 C 4.000 17.102,4.657 16.269,5.534 16.057 C 5.797 15.993,6.138 15.988,6.408 16.044 " stroke="none" fill="black" fill-rule="evenodd"></path></svg>