<svg xmlns="http://www.w3.org/2000/svg" width="24" height="24" viewBox="0 0 24 24" fill="none" stroke="currentColor" stroke-width="2" stroke-linecap="round" stroke-linejoin="round"><path d="M21.640 1.075 C 21.145 1.272,2.480 10.142,2.360 10.238 C 1.857 10.636,1.911 11.501,2.460 11.840 C 2.561 11.902,3.791 12.227,6.391 12.878 L 10.176 13.824 11.122 17.609 C 11.773 20.209,12.098 21.439,12.160 21.540 C 12.499 22.089,13.364 22.143,13.762 21.640 C 13.862 21.513,22.752 2.801,22.926 2.350 C 23.234 1.552,22.434 0.759,21.640 1.075 M16.675 10.902 C 14.913 14.619,13.437 17.739,13.395 17.836 C 13.353 17.932,13.308 18.001,13.295 17.988 C 13.282 17.976,12.970 16.757,12.600 15.280 C 11.876 12.390,11.874 12.383,11.562 12.177 C 11.440 12.096,10.808 11.923,8.720 11.400 C 7.243 11.030,6.025 10.718,6.013 10.706 C 6.001 10.694,6.052 10.659,6.126 10.627 C 6.200 10.595,9.319 9.118,13.058 7.346 C 16.798 5.574,19.862 4.128,19.867 4.134 C 19.873 4.140,18.437 7.186,16.675 10.902 " stroke="none" fill="black" fill-rule="evenodd"></path></svg>