<svg xmlns="http://www.w3.org/2000/svg" width="24" height="24" viewBox="0 0 24 24" fill="none" stroke="currentColor" stroke-width="2" stroke-linecap="round" stroke-linejoin="round"><path d="M4.314 4.150 C 2.583 5.882,1.134 7.363,1.094 7.440 C 1.023 7.574,1.020 7.780,1.020 12.000 L 1.020 16.420 1.107 16.580 C 1.217 16.781,7.247 22.804,7.440 22.906 C 7.574 22.977,7.780 22.980,12.000 22.980 C 16.220 22.980,16.426 22.977,16.560 22.906 C 16.753 22.804,22.783 16.781,22.893 16.580 L 22.980 16.420 22.980 12.000 C 22.980 7.780,22.977 7.574,22.906 7.440 C 22.804 7.247,16.781 1.217,16.580 1.107 L 16.420 1.020 11.940 1.010 L 7.460 0.999 4.314 4.150 M18.370 5.630 L 21.000 8.260 21.000 12.000 L 21.000 15.740 18.370 18.370 L 15.740 21.000 12.000 21.000 L 8.260 21.000 5.630 18.370 L 3.000 15.740 3.000 12.000 L 3.000 8.260 5.630 5.630 L 8.260 3.000 12.000 3.000 L 15.740 3.000 18.370 5.630 " stroke="none" fill="black" fill-rule="evenodd"></path></svg>