<svg xmlns="http://www.w3.org/2000/svg" width="24" height="24" viewBox="0 0 24 24" fill="none" stroke="currentColor" stroke-width="2" stroke-linecap="round" stroke-linejoin="round"><path d="M11.060 2.042 C 6.857 2.478,3.390 5.427,2.339 9.460 C 1.899 11.149,1.889 12.676,2.307 14.400 C 3.134 17.815,5.733 20.547,9.134 21.577 C 10.766 22.072,12.621 22.128,14.300 21.733 C 16.102 21.308,17.727 20.398,19.062 19.062 C 19.900 18.224,20.507 17.373,21.005 16.340 C 21.479 15.356,21.565 14.972,21.397 14.600 C 21.221 14.212,20.930 14.024,20.500 14.022 C 20.007 14.019,19.732 14.227,19.514 14.767 C 19.041 15.941,18.525 16.750,17.723 17.574 C 17.034 18.281,16.348 18.777,15.471 19.200 C 11.545 21.097,6.800 19.478,4.850 15.578 C 4.320 14.518,4.000 13.172,4.000 12.000 C 4.000 10.340,4.579 8.594,5.574 7.252 C 6.831 5.557,8.638 4.460,10.780 4.094 C 11.337 3.998,12.666 3.999,13.218 4.094 C 14.420 4.302,15.456 4.701,16.394 5.319 C 16.937 5.676,17.152 5.864,18.856 7.471 L 20.457 8.980 18.599 9.000 C 16.750 9.020,16.739 9.021,16.550 9.114 C 15.949 9.410,15.820 10.222,16.299 10.701 C 16.611 11.013,16.451 11.000,20.037 11.000 L 23.220 10.999 23.420 10.905 C 23.660 10.791,23.807 10.642,23.917 10.400 C 23.997 10.224,23.998 10.153,23.999 7.037 C 24.000 3.451,24.013 3.611,23.701 3.299 C 23.222 2.820,22.410 2.949,22.114 3.550 C 22.020 3.740,22.020 3.745,22.000 5.703 L 21.980 7.666 20.235 6.022 C 19.275 5.118,18.348 4.268,18.175 4.134 C 16.758 3.039,15.200 2.376,13.400 2.101 C 12.896 2.024,11.561 1.990,11.060 2.042 " stroke="none" fill="black" fill-rule="evenodd"></path></svg>