<svg xmlns="http://www.w3.org/2000/svg" width="24" height="24" viewBox="0 0 24 24" fill="none" stroke="currentColor" stroke-width="2" stroke-linecap="round" stroke-linejoin="round"><path d="M11.647 4.559 C 3.646 7.363,1.484 8.135,1.368 8.229 C 0.905 8.604,0.901 9.397,1.360 9.763 C 1.437 9.824,3.453 10.741,5.840 11.800 C 8.227 12.860,10.201 13.748,10.227 13.773 C 10.252 13.799,11.140 15.773,12.200 18.160 C 13.259 20.547,14.176 22.563,14.237 22.640 C 14.602 23.099,15.396 23.095,15.771 22.633 C 15.949 22.412,22.999 2.270,22.999 1.980 C 23.000 1.445,22.541 0.997,22.000 1.005 C 21.815 1.007,20.152 1.578,11.647 4.559 M14.478 8.101 L 10.777 11.803 7.799 10.480 C 6.161 9.753,4.807 9.143,4.790 9.126 C 4.768 9.104,18.008 4.427,18.160 4.403 C 18.171 4.401,16.514 6.066,14.478 8.101 M19.425 6.330 C 19.330 6.600,18.274 9.614,17.079 13.030 C 15.884 16.446,14.896 19.240,14.883 19.239 C 14.870 19.238,14.260 17.885,13.527 16.232 L 12.194 13.226 15.887 9.533 C 17.918 7.502,19.584 5.840,19.589 5.840 C 19.594 5.840,19.520 6.060,19.425 6.330 " stroke="none" fill="black" fill-rule="evenodd"></path></svg>