<svg xmlns="http://www.w3.org/2000/svg" width="24" height="24" viewBox="0 0 24 24" fill="none" stroke="currentColor" stroke-width="2" stroke-linecap="round" stroke-linejoin="round"><path d="M3.620 1.025 C 3.212 1.105,3.087 1.139,2.870 1.227 C 1.989 1.585,1.321 2.364,1.076 3.320 C 0.994 3.641,0.994 8.357,1.076 8.677 C 1.357 9.776,2.116 10.553,3.260 10.915 C 3.439 10.972,4.326 10.980,11.820 10.990 C 17.509 10.998,20.267 10.989,20.453 10.960 C 21.643 10.778,22.620 9.876,22.924 8.680 C 23.006 8.358,23.006 3.642,22.924 3.323 C 22.617 2.126,21.660 1.233,20.480 1.043 C 20.234 1.003,3.820 0.986,3.620 1.025 M20.340 3.066 C 20.593 3.153,20.847 3.407,20.934 3.660 C 20.992 3.831,21.000 4.108,21.000 6.000 C 21.000 8.427,21.003 8.399,20.701 8.701 C 20.376 9.026,21.144 9.000,12.000 9.000 C 2.854 9.000,3.624 9.027,3.298 8.700 C 2.992 8.394,2.996 8.430,3.009 5.916 L 3.020 3.700 3.131 3.511 C 3.256 3.298,3.449 3.136,3.670 3.057 C 3.793 3.013,5.268 3.003,11.983 3.002 C 19.479 3.000,20.162 3.005,20.340 3.066 M5.643 5.066 C 5.288 5.197,5.000 5.615,5.000 6.000 C 5.000 6.729,5.814 7.222,6.465 6.887 C 7.176 6.522,7.173 5.477,6.461 5.111 C 6.250 5.002,5.873 4.982,5.643 5.066 M3.620 13.025 C 3.212 13.105,3.087 13.139,2.870 13.227 C 1.989 13.585,1.321 14.364,1.076 15.320 C 0.994 15.641,0.994 20.357,1.076 20.677 C 1.357 21.776,2.116 22.553,3.260 22.915 C 3.439 22.972,4.326 22.980,11.820 22.990 C 17.509 22.998,20.267 22.989,20.453 22.960 C 21.643 22.778,22.620 21.876,22.924 20.680 C 23.006 20.358,23.006 15.642,22.924 15.323 C 22.617 14.126,21.660 13.233,20.480 13.043 C 20.234 13.003,3.820 12.986,3.620 13.025 M20.340 15.066 C 20.593 15.153,20.847 15.407,20.934 15.660 C 20.992 15.831,21.000 16.108,21.000 18.000 C 21.000 20.427,21.003 20.399,20.701 20.701 C 20.376 21.026,21.144 21.000,12.000 21.000 C 2.854 21.000,3.624 21.027,3.298 20.700 C 2.992 20.394,2.996 20.430,3.009 17.916 L 3.020 15.700 3.131 15.511 C 3.256 15.298,3.449 15.136,3.670 15.057 C 3.793 15.013,5.268 15.003,11.983 15.002 C 19.479 15.000,20.162 15.005,20.340 15.066 M5.643 17.066 C 5.288 17.197,5.000 17.615,5.000 18.000 C 5.000 18.729,5.814 19.222,6.465 18.887 C 7.176 18.522,7.173 17.477,6.461 17.111 C 6.250 17.002,5.873 16.982,5.643 17.066 " stroke="none" fill="black" fill-rule="evenodd"></path></svg>