<svg xmlns="http://www.w3.org/2000/svg" width="24" height="24" viewBox="0 0 24 24" fill="none" stroke="currentColor" stroke-width="2" stroke-linecap="round" stroke-linejoin="round"><path d="M11.720 1.037 C 11.665 1.057,9.793 1.759,7.560 2.597 C 4.709 3.668,3.459 4.156,3.360 4.235 C 3.283 4.298,3.175 4.436,3.120 4.543 L 3.020 4.738 3.020 8.779 C 3.020 12.769,3.021 12.826,3.108 13.300 C 3.411 14.957,4.119 16.419,5.374 17.980 C 5.762 18.462,6.743 19.470,7.320 19.978 C 8.454 20.978,10.163 22.164,11.388 22.802 C 11.790 23.011,12.042 23.045,12.341 22.931 C 12.853 22.736,14.378 21.781,15.389 21.023 C 16.217 20.402,16.669 20.012,17.433 19.261 C 19.408 17.321,20.500 15.440,20.892 13.300 C 20.979 12.826,20.980 12.769,20.980 8.779 L 20.980 4.738 20.880 4.543 C 20.825 4.436,20.714 4.296,20.635 4.231 C 20.530 4.147,19.352 3.686,16.395 2.575 C 12.144 0.977,12.014 0.934,11.720 1.037 M15.521 4.386 L 19.004 5.692 18.990 9.236 C 18.974 13.191,18.989 12.961,18.679 13.911 C 17.994 16.005,16.021 18.245,13.220 20.106 C 12.634 20.496,12.064 20.840,12.005 20.840 C 11.941 20.840,11.209 20.396,10.661 20.025 C 7.543 17.913,5.667 15.591,5.109 13.151 C 5.027 12.791,5.024 12.678,5.010 9.238 L 4.996 5.696 8.468 4.391 C 10.378 3.673,11.962 3.085,11.989 3.083 C 12.016 3.081,13.605 3.668,15.521 4.386 " stroke="none" fill="black" fill-rule="evenodd"></path></svg>