<svg xmlns="http://www.w3.org/2000/svg" width="24" height="24" viewBox="0 0 24 24" fill="none" stroke="currentColor" stroke-width="2" stroke-linecap="round" stroke-linejoin="round"><path d="M7.960 1.062 C 7.033 1.261,6.255 2.046,6.060 2.980 C 5.829 4.086,6.372 5.227,7.362 5.715 C 7.862 5.961,8.102 5.998,9.203 5.999 C 10.295 6.000,10.429 5.973,10.701 5.701 C 10.973 5.429,11.000 5.295,10.999 4.203 C 10.998 3.102,10.961 2.862,10.715 2.362 C 10.225 1.368,9.071 0.824,7.960 1.062 M13.960 1.062 C 13.033 1.261,12.255 2.046,12.060 2.980 C 11.973 3.393,11.973 8.607,12.060 9.020 C 12.339 10.355,13.675 11.222,15.020 10.940 C 15.963 10.743,16.743 9.963,16.940 9.020 C 17.027 8.607,17.027 3.393,16.940 2.980 C 16.660 1.639,15.312 0.772,13.960 1.062 M8.724 3.062 C 8.925 3.166,9.000 3.336,9.000 3.690 L 9.000 4.000 8.698 4.000 C 8.348 4.000,8.194 3.937,8.078 3.748 C 7.935 3.513,8.009 3.226,8.252 3.078 C 8.406 2.984,8.563 2.979,8.724 3.062 M14.724 3.062 C 14.790 3.096,14.879 3.182,14.922 3.252 C 14.997 3.376,15.000 3.472,15.000 6.000 C 15.000 8.528,14.997 8.624,14.922 8.748 C 14.833 8.893,14.654 9.000,14.500 9.000 C 14.346 9.000,14.167 8.893,14.078 8.748 C 14.003 8.625,14.000 8.528,14.000 6.008 C 14.000 3.125,13.990 3.238,14.252 3.078 C 14.406 2.984,14.563 2.979,14.724 3.062 M19.960 6.062 C 19.033 6.261,18.255 7.046,18.060 7.980 C 17.972 8.403,17.976 10.075,18.066 10.340 C 18.153 10.593,18.407 10.847,18.660 10.934 C 18.925 11.024,20.597 11.028,21.020 10.940 C 21.741 10.789,22.395 10.287,22.715 9.638 C 23.090 8.876,23.090 8.124,22.715 7.362 C 22.225 6.368,21.071 5.824,19.960 6.062 M2.960 7.062 C 2.033 7.261,1.255 8.046,1.060 8.980 C 0.829 10.086,1.372 11.227,2.362 11.715 C 2.941 12.000,2.921 11.999,6.000 11.999 C 9.079 11.999,9.059 12.000,9.638 11.715 C 10.628 11.227,11.171 10.086,10.940 8.980 C 10.743 8.037,9.963 7.257,9.020 7.060 C 8.618 6.976,3.353 6.978,2.960 7.062 M20.724 8.062 C 20.872 8.139,21.000 8.341,21.000 8.500 C 21.000 8.659,20.872 8.861,20.724 8.938 C 20.647 8.978,20.496 9.000,20.302 9.000 L 20.000 9.000 20.000 8.698 C 20.000 8.348,20.063 8.194,20.252 8.078 C 20.406 7.984,20.563 7.979,20.724 8.062 M8.748 9.078 C 9.076 9.278,9.076 9.722,8.748 9.922 C 8.625 9.997,8.528 10.000,6.008 10.000 C 3.125 10.000,3.238 10.010,3.078 9.748 C 2.935 9.513,3.009 9.226,3.252 9.078 C 3.376 9.003,3.472 9.000,6.000 9.000 C 8.528 9.000,8.624 9.003,8.748 9.078 M14.960 12.062 C 14.033 12.261,13.255 13.046,13.060 13.980 C 12.829 15.086,13.372 16.227,14.362 16.715 C 14.941 17.000,14.921 16.999,18.000 16.999 C 21.079 16.999,21.059 17.000,21.638 16.715 C 22.628 16.227,23.171 15.086,22.940 13.980 C 22.743 13.037,21.963 12.257,21.020 12.060 C 20.618 11.976,15.353 11.978,14.960 12.062 M2.960 13.062 C 2.033 13.261,1.255 14.046,1.060 14.980 C 0.690 16.747,2.253 18.310,4.020 17.940 C 4.963 17.743,5.743 16.963,5.940 16.020 C 6.028 15.597,6.024 13.925,5.934 13.660 C 5.847 13.407,5.593 13.153,5.340 13.066 C 5.082 12.978,3.364 12.975,2.960 13.062 M8.960 13.062 C 8.033 13.261,7.255 14.046,7.060 14.980 C 6.973 15.393,6.973 20.607,7.060 21.020 C 7.339 22.355,8.675 23.222,10.020 22.940 C 10.963 22.743,11.743 21.963,11.940 21.020 C 12.027 20.607,12.027 15.393,11.940 14.980 C 11.660 13.639,10.312 12.772,8.960 13.062 M20.748 14.078 C 20.893 14.167,21.000 14.346,21.000 14.500 C 21.000 14.654,20.893 14.833,20.748 14.922 C 20.625 14.997,20.528 15.000,18.008 15.000 C 15.125 15.000,15.238 15.010,15.078 14.748 C 14.935 14.513,15.009 14.226,15.252 14.078 C 15.376 14.003,15.472 14.000,18.000 14.000 C 20.528 14.000,20.624 14.003,20.748 14.078 M4.000 15.310 C 4.000 15.664,3.925 15.834,3.724 15.938 C 3.489 16.059,3.220 15.980,3.078 15.748 C 2.935 15.513,3.009 15.226,3.252 15.078 C 3.350 15.019,3.453 15.000,3.690 15.000 L 4.000 15.000 4.000 15.310 M9.724 15.062 C 9.790 15.096,9.879 15.182,9.922 15.252 C 9.997 15.376,10.000 15.472,10.000 18.000 C 10.000 20.528,9.997 20.624,9.922 20.748 C 9.833 20.893,9.654 21.000,9.500 21.000 C 9.346 21.000,9.167 20.893,9.078 20.748 C 9.003 20.625,9.000 20.528,9.000 18.008 C 9.000 15.125,8.990 15.238,9.252 15.078 C 9.406 14.984,9.563 14.979,9.724 15.062 M13.643 18.069 C 13.407 18.152,13.149 18.416,13.066 18.660 C 12.976 18.925,12.972 20.597,13.060 21.020 C 13.154 21.471,13.404 21.928,13.738 22.262 C 14.713 23.237,16.287 23.237,17.262 22.262 C 18.237 21.287,18.237 19.713,17.262 18.738 C 16.928 18.404,16.471 18.154,16.020 18.060 C 15.613 17.975,13.891 17.981,13.643 18.069 M15.748 20.078 C 15.893 20.167,16.000 20.346,16.000 20.500 C 16.000 20.744,15.748 21.000,15.508 21.000 C 15.347 21.000,15.168 20.896,15.078 20.748 C 15.019 20.650,15.000 20.547,15.000 20.310 L 15.000 20.000 15.310 20.000 C 15.547 20.000,15.650 20.019,15.748 20.078 " stroke="none" fill="black" fill-rule="evenodd"></path></svg>