<svg xmlns="http://www.w3.org/2000/svg" width="24" height="24" viewBox="0 0 24 24" fill="none" stroke="currentColor" stroke-width="2" stroke-linecap="round" stroke-linejoin="round"><path d="M11.160 1.025 C 9.301 1.200,7.615 1.759,6.148 2.687 C 4.822 3.527,3.527 4.822,2.687 6.148 C 1.869 7.442,1.330 8.925,1.093 10.540 C 1.041 10.896,1.023 11.273,1.023 12.000 C 1.023 12.727,1.041 13.104,1.093 13.460 C 1.459 15.949,2.477 17.997,4.219 19.742 C 4.905 20.431,5.272 20.733,6.000 21.211 C 7.357 22.102,8.852 22.660,10.540 22.906 C 11.211 23.004,12.789 23.004,13.460 22.906 C 15.405 22.623,17.091 21.926,18.637 20.770 C 19.170 20.370,20.252 19.310,20.646 18.800 C 21.874 17.211,22.614 15.461,22.906 13.460 C 22.958 13.105,22.976 12.724,22.976 12.000 C 22.976 11.276,22.958 10.895,22.906 10.540 C 22.614 8.540,21.878 6.798,20.647 5.200 C 20.259 4.697,19.173 3.633,18.637 3.231 C 17.124 2.097,15.456 1.398,13.600 1.118 C 13.075 1.039,11.609 0.983,11.160 1.025 M12.863 3.043 C 15.975 3.345,18.701 5.239,20.083 8.060 C 22.266 12.512,20.412 17.891,15.940 20.083 C 11.490 22.265,6.104 20.409,3.917 15.940 C 2.386 12.813,2.802 9.097,4.987 6.369 C 6.873 4.015,9.866 2.751,12.863 3.043 M11.100 5.062 C 8.724 5.383,6.725 6.830,5.698 8.973 C 4.768 10.914,4.768 13.086,5.698 15.027 C 7.088 17.926,10.242 19.489,13.420 18.855 C 14.169 18.706,15.147 18.303,15.811 17.869 C 17.791 16.578,18.999 14.353,18.999 12.000 C 18.999 9.750,17.902 7.627,16.048 6.290 C 15.608 5.973,14.706 5.521,14.160 5.344 C 13.170 5.025,12.106 4.926,11.100 5.062 M12.980 7.099 C 13.996 7.312,14.786 7.741,15.522 8.477 C 16.260 9.216,16.687 10.006,16.907 11.040 C 17.007 11.511,17.007 12.489,16.907 12.960 C 16.687 13.993,16.262 14.778,15.521 15.522 C 14.786 16.259,13.995 16.687,12.960 16.907 C 12.489 17.007,11.511 17.007,11.040 16.907 C 10.007 16.687,9.222 16.262,8.478 15.521 C 7.738 14.783,7.314 13.999,7.093 12.960 C 7.041 12.715,7.021 12.446,7.021 12.000 C 7.021 11.334,7.078 10.964,7.266 10.400 C 7.778 8.861,9.129 7.587,10.680 7.178 C 11.392 6.991,12.314 6.959,12.980 7.099 M11.620 9.025 C 11.212 9.105,11.087 9.139,10.870 9.227 C 9.989 9.585,9.319 10.366,9.077 11.320 C 9.004 11.605,9.004 12.394,9.076 12.677 C 9.269 13.436,9.737 14.099,10.360 14.499 C 10.836 14.804,11.253 14.945,11.800 14.985 C 13.241 15.090,14.561 14.116,14.924 12.680 C 14.996 12.395,14.996 11.605,14.924 11.323 C 14.620 10.129,13.660 9.233,12.480 9.043 C 12.228 9.002,11.783 8.993,11.620 9.025 M12.340 11.066 C 12.709 11.192,13.000 11.604,13.000 12.000 C 13.000 12.527,12.527 13.000,12.000 13.000 C 11.593 13.000,11.189 12.708,11.060 12.321 C 10.794 11.520,11.536 10.792,12.340 11.066 " stroke="none" fill="black" fill-rule="evenodd"></path></svg>