<svg xmlns="http://www.w3.org/2000/svg" width="24" height="24" viewBox="0 0 24 24" fill="none" stroke="currentColor" stroke-width="2" stroke-linecap="round" stroke-linejoin="round"><path d="M10.936 0.044 C 9.679 0.254,8.560 1.214,8.180 2.409 C 8.126 2.578,8.064 2.830,8.041 2.969 C 8.015 3.131,8.000 5.175,8.000 8.725 L 8.000 14.230 7.609 14.625 C 6.829 15.412,6.337 16.340,6.093 17.485 C 5.993 17.953,5.993 19.046,6.093 19.520 C 6.334 20.660,6.832 21.595,7.619 22.381 C 8.405 23.168,9.336 23.664,10.480 23.907 C 10.947 24.007,12.037 24.007,12.528 23.908 C 14.443 23.523,16.037 22.156,16.672 20.355 C 16.907 19.691,16.979 19.254,16.979 18.500 C 16.978 17.772,16.932 17.455,16.733 16.825 C 16.478 16.017,16.009 15.249,15.392 14.626 L 15.002 14.232 14.991 8.566 L 14.980 2.900 14.870 2.548 C 14.448 1.204,13.380 0.260,12.031 0.041 C 11.738 -0.006,11.227 -0.005,10.936 0.044 M12.123 2.147 C 12.448 2.301,12.696 2.548,12.855 2.880 L 12.980 3.140 13.000 9.081 L 13.020 15.022 13.122 15.221 C 13.194 15.361,13.301 15.477,13.482 15.612 C 14.195 16.144,14.619 16.736,14.867 17.548 C 14.962 17.863,14.974 17.963,14.974 18.500 C 14.974 19.037,14.962 19.137,14.867 19.452 C 14.499 20.656,13.656 21.499,12.452 21.867 C 12.137 21.962,12.037 21.974,11.500 21.974 C 10.963 21.974,10.863 21.962,10.548 21.867 C 9.344 21.499,8.501 20.656,8.133 19.452 C 8.038 19.137,8.026 19.037,8.026 18.500 C 8.026 17.963,8.038 17.863,8.133 17.548 C 8.381 16.736,8.772 16.187,9.498 15.631 C 9.693 15.482,9.807 15.359,9.878 15.220 L 9.980 15.022 10.000 9.081 L 10.020 3.140 10.132 2.900 C 10.492 2.127,11.375 1.794,12.123 2.147 " stroke="none" fill="black" fill-rule="evenodd"></path></svg>