<svg viewBox="0 0 24 24" width="24" height="24" xmlns="http://www.w3.org/2000/svg" fill="none" stroke="currentColor" stroke-width="2" stroke-linecap="round" stroke-linejoin="round"><path d="M4.620 2.025 C 4.212 2.105,4.087 2.139,3.870 2.227 C 2.989 2.585,2.321 3.364,2.076 4.320 C 1.993 4.647,1.992 19.351,2.076 19.677 C 2.357 20.776,3.117 21.553,4.260 21.915 C 4.439 21.971,5.243 21.979,11.820 21.990 C 16.818 21.998,19.268 21.989,19.453 21.960 C 20.643 21.777,21.620 20.876,21.924 19.680 C 22.007 19.352,22.008 4.648,21.924 4.323 C 21.617 3.126,20.660 2.233,19.480 2.043 C 19.234 2.003,4.819 1.986,4.620 2.025 M19.340 4.066 C 19.455 4.105,19.603 4.201,19.701 4.299 C 20.025 4.623,20.000 3.977,20.000 12.000 C 20.000 20.023,20.025 19.377,19.701 19.701 C 19.377 20.025,20.023 20.000,12.000 20.000 C 3.975 20.000,4.623 20.025,4.298 19.700 C 3.974 19.376,3.998 20.028,4.010 11.918 L 4.020 4.700 4.131 4.511 C 4.256 4.298,4.449 4.136,4.670 4.057 C 4.793 4.013,6.104 4.003,11.983 4.002 C 18.548 4.000,19.162 4.006,19.340 4.066 M6.643 6.069 C 6.546 6.103,6.392 6.206,6.300 6.298 C 5.980 6.618,6.000 6.276,6.000 11.500 C 6.000 16.723,5.980 16.383,6.299 16.701 C 6.593 16.995,6.629 17.000,8.500 17.000 C 10.371 17.000,10.407 16.995,10.701 16.701 C 11.020 16.383,11.000 16.723,11.000 11.500 C 11.000 6.277,11.020 6.617,10.701 6.299 C 10.406 6.004,10.373 6.000,8.483 6.003 C 7.085 6.006,6.792 6.016,6.643 6.069 M13.643 6.069 C 13.546 6.103,13.392 6.206,13.300 6.298 C 12.991 6.607,13.000 6.513,13.000 9.500 C 13.000 12.486,12.991 12.394,13.299 12.701 C 13.593 12.995,13.629 13.000,15.500 13.000 C 17.371 13.000,17.407 12.995,17.701 12.701 C 18.009 12.394,18.000 12.486,18.000 9.500 C 18.000 6.514,18.009 6.606,17.701 6.299 C 17.406 6.004,17.373 6.000,15.483 6.003 C 14.085 6.006,13.792 6.016,13.643 6.069 M9.000 11.500 L 9.000 15.000 8.500 15.000 L 8.000 15.000 8.000 11.500 L 8.000 8.000 8.500 8.000 L 9.000 8.000 9.000 11.500 M16.000 9.500 L 16.000 11.000 15.500 11.000 L 15.000 11.000 15.000 9.500 L 15.000 8.000 15.500 8.000 L 16.000 8.000 16.000 9.500 " stroke="none" fill="black" fill-rule="evenodd"></path></svg>