<svg xmlns="http://www.w3.org/2000/svg" width="24" height="24" viewBox="0 0 24 24" fill="none" stroke="currentColor" stroke-width="2" stroke-linecap="round" stroke-linejoin="round"><path d="M2.643 1.069 C 2.546 1.103,2.392 1.206,2.300 1.298 C 1.973 1.624,2.000 0.855,2.000 10.000 C 2.000 19.144,1.974 18.376,2.299 18.701 C 2.600 19.002,2.581 19.000,4.927 19.000 L 7.000 19.000 7.000 20.573 C 7.000 22.362,7.006 22.409,7.299 22.701 C 7.577 22.979,7.954 23.064,8.343 22.935 C 8.520 22.876,8.734 22.677,10.481 20.935 L 12.422 19.000 14.784 19.000 C 16.855 19.000,17.170 18.992,17.343 18.935 C 17.521 18.876,17.744 18.666,19.705 16.705 C 21.666 14.744,21.876 14.521,21.935 14.343 C 21.994 14.165,22.000 13.561,22.000 8.000 C 22.000 1.097,22.023 1.621,21.701 1.299 C 21.375 0.972,22.268 1.000,11.983 1.003 C 3.791 1.006,2.801 1.013,2.643 1.069 M20.000 8.290 L 20.000 13.580 18.290 15.290 L 16.580 17.000 14.217 17.000 C 12.134 17.000,11.831 17.008,11.657 17.066 C 11.483 17.123,11.315 17.276,10.230 18.354 L 9.000 19.577 9.000 18.716 C 9.000 17.714,8.969 17.567,8.701 17.299 C 8.400 16.998,8.419 17.000,6.073 17.000 L 4.000 17.000 4.000 10.000 L 4.000 3.000 12.000 3.000 L 20.000 3.000 20.000 8.290 M10.643 6.069 C 10.546 6.103,10.392 6.206,10.300 6.298 C 9.997 6.601,10.000 6.572,10.000 9.000 C 10.000 11.427,9.997 11.399,10.299 11.701 C 10.690 12.092,11.310 12.092,11.701 11.701 C 12.003 11.399,12.000 11.427,12.000 9.000 C 12.000 6.573,12.003 6.601,11.701 6.299 C 11.424 6.021,11.024 5.934,10.643 6.069 M15.643 6.069 C 15.546 6.103,15.392 6.206,15.300 6.298 C 14.997 6.601,15.000 6.572,15.000 9.000 C 15.000 11.427,14.997 11.399,15.299 11.701 C 15.690 12.092,16.310 12.092,16.701 11.701 C 17.003 11.399,17.000 11.427,17.000 9.000 C 17.000 6.573,17.003 6.601,16.701 6.299 C 16.424 6.021,16.024 5.934,15.643 6.069 " stroke="none" fill="black" fill-rule="evenodd"></path></svg>