<svg xmlns="http://www.w3.org/2000/svg" width="24" height="24" viewBox="0 0 24 24" fill="none" stroke="currentColor" stroke-width="2" stroke-linecap="round" stroke-linejoin="round"><path d="M8.260 2.056 C 6.597 2.335,5.259 3.313,4.523 4.785 C 4.164 5.504,4.021 6.135,4.021 7.000 C 4.021 7.446,4.041 7.715,4.093 7.960 C 4.313 8.995,4.741 9.786,5.478 10.521 C 6.222 11.262,7.007 11.687,8.040 11.907 C 8.511 12.007,9.489 12.007,9.960 11.907 C 10.929 11.701,11.732 11.284,12.424 10.630 C 12.877 10.201,13.198 9.761,13.483 9.180 C 14.277 7.560,14.147 5.732,13.128 4.180 C 12.880 3.803,12.173 3.103,11.780 2.845 C 11.219 2.478,10.639 2.237,9.980 2.099 C 9.554 2.009,8.670 1.988,8.260 2.056 M15.773 2.156 C 15.030 2.345,14.756 3.255,15.275 3.814 C 15.408 3.958,15.504 4.007,15.984 4.178 C 16.923 4.514,17.592 5.211,17.887 6.160 C 18.022 6.595,18.022 7.407,17.886 7.839 C 17.563 8.867,16.874 9.549,15.803 9.900 C 15.540 9.987,15.431 10.047,15.300 10.178 C 15.119 10.359,15.000 10.638,15.000 10.880 C 15.000 11.413,15.473 11.880,16.012 11.880 C 16.202 11.880,16.896 11.653,17.247 11.477 C 18.355 10.920,19.282 9.877,19.698 8.720 C 19.895 8.172,19.963 7.812,19.986 7.200 C 20.012 6.529,19.951 6.062,19.761 5.471 C 19.364 4.230,18.459 3.165,17.298 2.572 C 16.635 2.234,16.073 2.081,15.773 2.156 M9.592 4.063 C 11.213 4.396,12.267 5.981,11.937 7.592 C 11.604 9.213,10.017 10.268,8.408 9.936 C 7.226 9.693,6.305 8.773,6.063 7.592 C 5.636 5.507,7.507 3.636,9.592 4.063 M4.260 14.058 C 2.385 14.361,0.851 15.645,0.266 17.401 C 0.046 18.060,0.030 18.203,0.011 19.709 C -0.010 21.329,0.001 21.403,0.298 21.700 C 0.690 22.092,1.309 22.093,1.701 21.701 C 1.984 21.418,2.000 21.323,2.000 19.931 C 2.000 18.981,2.014 18.650,2.063 18.408 C 2.306 17.225,3.224 16.308,4.408 16.064 C 4.679 16.008,5.243 16.000,9.000 16.000 C 13.687 16.000,13.587 15.995,14.161 16.235 C 14.853 16.525,15.475 17.147,15.765 17.839 C 15.969 18.329,16.000 18.601,16.000 19.931 C 16.000 21.323,16.016 21.418,16.299 21.701 C 16.691 22.093,17.310 22.092,17.702 21.700 C 17.999 21.403,18.010 21.329,17.989 19.709 C 17.974 18.570,17.958 18.242,17.902 18.000 C 17.668 16.974,17.249 16.209,16.521 15.477 C 15.798 14.752,15.058 14.346,14.000 14.095 C 13.723 14.029,13.353 14.023,9.140 14.015 C 5.571 14.008,4.510 14.018,4.260 14.058 M19.773 14.156 C 19.030 14.345,18.756 15.255,19.275 15.814 C 19.407 15.957,19.515 16.013,19.951 16.165 C 20.765 16.449,21.464 17.098,21.764 17.847 C 21.965 18.347,21.970 18.393,21.996 19.860 C 22.019 21.222,22.023 21.265,22.114 21.450 C 22.410 22.051,23.222 22.180,23.701 21.701 C 23.985 21.417,24.000 21.326,24.000 19.903 C 23.999 18.180,23.922 17.719,23.482 16.820 C 22.885 15.599,21.874 14.705,20.604 14.275 C 20.227 14.147,19.960 14.109,19.773 14.156 " stroke="none" fill="black" fill-rule="evenodd"></path></svg>