<svg xmlns="http://www.w3.org/2000/svg" width="24" height="24" viewBox="0 0 24 24" fill="none" stroke="currentColor" stroke-width="2" stroke-linecap="round" stroke-linejoin="round"><path d="M10.647 4.072 C 10.540 4.114,9.553 4.877,8.061 6.070 L 5.650 8.000 3.752 8.000 C 1.601 8.000,1.597 8.000,1.299 8.299 C 0.987 8.610,1.000 8.456,1.000 12.000 C 1.000 15.544,0.987 15.390,1.299 15.701 C 1.597 16.000,1.601 16.000,3.752 16.000 L 5.650 16.000 8.035 17.909 C 9.347 18.959,10.489 19.853,10.574 19.895 C 10.940 20.078,11.403 19.999,11.700 19.702 C 12.025 19.377,12.000 20.025,12.000 12.000 C 12.000 3.977,12.025 4.623,11.701 4.299 C 11.421 4.019,11.009 3.931,10.647 4.072 M10.000 12.000 L 10.000 16.921 8.251 15.521 C 7.023 14.538,6.449 14.103,6.324 14.061 C 6.177 14.010,5.874 14.000,4.573 14.000 L 3.000 14.000 3.000 12.000 L 3.000 10.000 4.573 10.000 C 5.874 10.000,6.177 9.990,6.324 9.939 C 6.449 9.897,7.015 9.466,8.241 8.482 C 9.197 7.714,9.985 7.085,9.990 7.083 C 9.995 7.081,10.000 9.294,10.000 12.000 " stroke="none" fill="black" fill-rule="evenodd"></path></svg>