<svg xmlns="http://www.w3.org/2000/svg" width="24" height="24" viewBox="0 0 24 24" fill="none" stroke="currentColor" stroke-width="2" stroke-linecap="round" stroke-linejoin="round"><path d="M4.314 4.150 C 2.583 5.882,1.134 7.363,1.094 7.440 C 1.023 7.574,1.020 7.780,1.020 12.000 L 1.020 16.420 1.107 16.580 C 1.217 16.781,7.247 22.804,7.440 22.906 C 7.574 22.977,7.780 22.980,12.000 22.980 C 16.220 22.980,16.426 22.977,16.560 22.906 C 16.753 22.804,22.783 16.781,22.893 16.580 L 22.980 16.420 22.980 12.000 C 22.980 7.780,22.977 7.574,22.906 7.440 C 22.804 7.247,16.781 1.217,16.580 1.107 L 16.420 1.020 11.940 1.010 L 7.460 0.999 4.314 4.150 M18.370 5.630 L 21.000 8.260 21.000 12.000 L 21.000 15.740 18.370 18.370 L 15.740 21.000 12.000 21.000 L 8.260 21.000 5.630 18.370 L 3.000 15.740 3.000 12.000 L 3.000 8.260 5.630 5.630 L 8.260 3.000 12.000 3.000 L 15.740 3.000 18.370 5.630 M8.643 8.069 C 8.291 8.193,8.000 8.614,8.000 9.000 C 8.000 9.080,8.030 9.234,8.066 9.343 C 8.123 9.517,8.276 9.685,9.354 10.770 L 10.577 12.000 9.354 13.230 C 8.276 14.315,8.123 14.483,8.066 14.657 C 7.936 15.046,8.021 15.423,8.299 15.701 C 8.577 15.979,8.954 16.064,9.343 15.934 C 9.517 15.877,9.685 15.724,10.770 14.646 L 12.000 13.423 13.230 14.646 C 14.315 15.724,14.483 15.877,14.657 15.934 C 15.046 16.064,15.423 15.979,15.701 15.701 C 15.979 15.423,16.064 15.046,15.934 14.657 C 15.877 14.483,15.724 14.315,14.646 13.230 L 13.423 12.000 14.646 10.770 C 15.724 9.685,15.877 9.517,15.934 9.343 C 16.064 8.954,15.979 8.577,15.701 8.299 C 15.423 8.021,15.046 7.936,14.657 8.066 C 14.483 8.123,14.315 8.276,13.230 9.354 L 12.000 10.577 10.770 9.354 C 9.685 8.276,9.517 8.123,9.343 8.066 C 9.102 7.985,8.877 7.986,8.643 8.069 " stroke="none" fill="black" fill-rule="evenodd"></path></svg>