<svg xmlns="http://www.w3.org/2000/svg" viewBox="0 0 512 512"><path d="M244.215 1.305 C 228.102 4.803,213.344 16.344,206.053 31.147 C 202.032 39.311,200.314 46.734,200.307 55.976 C 200.299 65.967,201.520 71.111,206.238 80.971 C 212.506 94.066,223.528 103.742,238.221 109.048 C 243.826 111.071,245.684 111.308,256.000 111.308 C 266.316 111.308,268.174 111.071,273.779 109.048 C 282.804 105.788,288.841 101.945,295.678 95.103 C 304.682 86.092,309.751 75.591,311.377 62.584 C 314.270 39.432,302.059 16.621,281.285 6.368 C 268.962 0.286,256.651 -1.395,244.215 1.305 M266.584 34.537 C 270.822 36.600,275.083 40.856,277.526 45.463 C 279.040 48.318,279.440 50.485,279.452 55.893 C 279.465 61.966,279.174 63.238,276.819 67.413 C 270.558 78.515,257.752 82.874,246.323 77.794 C 240.899 75.384,237.582 72.124,234.716 66.390 C 230.728 58.408,231.242 50.165,236.187 42.803 C 238.743 38.996,243.822 34.926,247.893 33.422 C 251.799 31.980,262.664 32.627,266.584 34.537 M81.067 112.325 C 54.896 117.332,40.717 144.354,51.822 168.061 C 55.151 175.169,63.656 183.136,72.551 187.479 C 76.904 189.605,98.993 197.202,128.000 206.549 C 177.571 222.523,179.397 223.179,184.108 226.705 C 187.841 229.499,189.265 232.536,190.315 239.939 C 192.463 255.088,189.955 268.636,164.039 381.867 C 142.740 474.923,142.798 474.580,146.538 484.837 C 152.051 499.957,165.737 510.403,181.798 511.750 C 196.924 513.018,212.811 503.506,219.862 488.960 C 221.341 485.909,229.739 461.141,238.525 433.920 C 247.310 406.699,254.867 383.467,255.318 382.293 C 256.010 380.492,258.765 388.263,273.019 432.221 C 282.304 460.854,291.148 486.752,292.672 489.770 C 300.342 504.966,317.276 513.914,333.586 511.389 C 353.695 508.276,369.167 489.709,367.554 470.626 C 367.316 467.803,358.658 428.437,348.315 383.147 C 325.884 284.921,322.613 268.929,321.948 254.234 C 321.155 236.702,323.194 232.255,334.574 226.706 C 337.118 225.465,360.512 216.745,386.560 207.328 C 412.608 197.910,437.169 188.639,441.140 186.725 C 462.267 176.539,469.661 155.253,459.463 133.974 C 452.563 119.577,437.306 110.686,422.075 112.187 C 418.800 112.509,410.909 114.445,404.540 116.487 C 362.698 129.904,321.771 138.817,284.587 142.611 C 269.833 144.116,239.424 143.904,223.713 142.186 C 188.525 138.340,145.832 128.920,105.568 116.116 C 95.091 112.784,86.010 111.379,81.067 112.325 M98.890 147.568 C 181.110 173.192,244.240 180.746,305.493 172.292 C 338.292 167.765,374.176 159.612,407.040 149.220 C 414.784 146.772,422.664 144.612,424.551 144.420 C 429.165 143.953,431.237 146.179,431.308 151.680 C 431.357 155.473,431.192 155.761,427.914 157.585 C 426.019 158.639,403.294 167.181,377.415 176.568 C 351.536 185.954,327.935 194.644,324.968 195.878 C 316.381 199.452,307.808 205.213,302.274 211.128 C 293.119 220.915,289.968 230.601,289.897 249.173 C 289.817 269.878,291.284 277.502,316.960 389.832 C 327.080 434.106,335.360 471.467,335.360 472.857 C 335.360 476.610,332.008 479.573,327.762 479.573 C 324.915 479.573,324.009 479.117,322.261 476.800 C 319.267 472.833,282.029 357.631,275.591 332.420 C 272.823 321.578,269.871 311.868,268.977 310.660 C 263.360 303.073,252.489 301.885,245.427 308.085 C 241.767 311.299,241.523 311.957,236.443 332.373 C 233.040 346.047,193.526 470.999,191.389 474.841 C 188.471 480.088,182.784 481.218,178.890 477.324 C 177.652 476.086,176.640 474.151,176.640 473.024 C 176.640 471.896,185.073 434.029,195.380 388.874 C 221.081 276.280,223.428 263.615,222.456 242.773 C 221.628 225.032,217.767 215.107,207.855 205.239 C 198.613 196.038,194.130 194.162,138.291 176.131 C 111.332 167.425,88.100 159.709,86.664 158.985 C 80.066 155.655,78.161 150.348,82.069 146.188 C 84.575 143.520,86.378 143.668,98.890 147.568 " stroke="none" fill="black" fill-rule="evenodd"></path></svg>