<svg xmlns="http://www.w3.org/2000/svg" viewBox="0 0 512 512"><path d="M244.480 1.203 C 233.306 3.780,224.285 8.746,216.560 16.576 C 207.416 25.842,202.353 36.206,200.555 49.334 C 196.996 75.325,213.803 101.370,239.360 109.467 C 244.277 111.025,247.295 111.356,256.427 111.339 C 266.260 111.321,268.231 111.061,273.779 109.053 C 282.813 105.783,288.845 101.940,295.678 95.103 C 307.824 82.947,313.693 65.820,311.419 49.162 C 308.401 27.060,294.260 9.943,273.149 2.839 C 265.142 0.144,252.258 -0.591,244.480 1.203 M69.403 112.605 C 65.459 113.545,59.411 117.311,56.700 120.517 C 51.129 127.105,47.107 139.888,48.189 147.574 C 49.034 153.585,52.516 159.917,57.381 164.292 C 65.570 171.654,75.095 175.388,127.147 191.641 C 153.664 199.921,177.123 207.588,179.277 208.680 C 184.734 211.444,188.221 215.703,189.355 220.988 C 191.015 228.729,190.368 238.696,186.088 271.360 C 182.776 296.633,178.472 322.058,165.614 392.299 C 156.660 441.215,149.333 482.713,149.333 484.517 C 149.333 500.993,165.637 513.513,184.764 511.727 C 199.981 510.306,209.372 499.860,213.401 479.874 C 214.333 475.250,217.745 458.027,220.984 441.600 C 235.361 368.692,247.005 327.598,254.572 323.067 C 261.893 318.682,276.018 366.633,293.511 455.253 C 296.383 469.803,299.327 483.799,300.053 486.355 C 304.415 501.722,313.773 510.470,327.188 511.723 C 346.276 513.505,362.667 501.009,362.667 484.675 C 362.667 482.959,355.167 441.460,346.000 392.457 C 325.234 281.449,319.299 239.875,321.976 224.185 C 322.851 219.059,326.382 215.342,333.817 211.721 C 336.778 210.279,360.704 201.606,386.987 192.446 C 413.269 183.287,438.274 174.073,442.553 171.970 C 459.197 163.788,466.053 152.843,463.428 138.645 C 460.553 123.094,450.221 112.316,438.216 112.345 C 434.663 112.354,428.834 113.579,419.413 116.299 C 377.098 128.513,324.745 139.160,288.771 142.868 C 257.449 146.096,237.467 145.428,198.400 139.846 C 172.590 136.159,122.067 125.064,93.867 116.891 C 74.604 111.309,74.744 111.333,69.403 112.605 " stroke="none" fill="black" fill-rule="evenodd"></path></svg>