<svg xmlns="http://www.w3.org/2000/svg" width="512" height="512" viewBox="0 0 512 512"><path d="M243.200 48.291 C 189.307 52.936,145.591 72.806,109.198 109.198 C 75.814 142.582,55.864 183.304,49.403 231.253 C 47.996 241.696,47.996 270.304,49.403 280.747 C 55.866 328.705,75.852 369.495,109.198 402.781 C 142.761 436.282,182.341 455.687,231.253 462.621 C 235.243 463.187,246.379 463.649,256.000 463.649 C 284.931 463.649,308.731 459.018,334.933 448.289 C 361.056 437.593,386.578 420.224,405.701 400.129 C 437.387 366.832,455.931 327.939,462.621 280.747 C 463.187 276.757,463.649 265.621,463.649 256.000 C 463.649 227.171,459.011 203.251,448.395 177.325 C 432.022 137.342,403.062 103.108,365.227 79.011 C 343.385 65.100,312.181 53.926,283.992 49.922 C 275.151 48.666,250.352 47.675,243.200 48.291 M263.642 162.114 C 267.269 163.964,269.715 166.969,271.229 171.434 C 271.905 173.425,272.213 184.595,272.213 207.061 L 272.213 239.787 304.939 239.787 C 338.742 239.787,340.918 239.979,345.833 243.402 C 353.391 248.667,353.391 263.333,345.833 268.598 C 340.918 272.021,338.742 272.213,304.939 272.213 L 272.213 272.213 272.213 304.939 C 272.213 338.742,272.021 340.918,268.598 345.833 C 263.333 353.391,248.667 353.391,243.402 345.833 C 239.979 340.918,239.787 338.742,239.787 304.939 L 239.787 272.213 207.061 272.213 C 173.258 272.213,171.082 272.021,166.167 268.598 C 158.609 263.333,158.609 248.667,166.167 243.402 C 171.082 239.979,173.258 239.787,207.061 239.787 L 239.787 239.787 239.787 207.061 C 239.787 173.263,239.979 171.082,243.399 166.172 C 247.225 160.679,256.991 158.721,263.642 162.114 " stroke="none" fill="black" fill-rule="evenodd"></path></svg>