<svg xmlns="http://www.w3.org/2000/svg" width="512" height="512" viewBox="0 0 512 512"><path d="M154.986 49.040 C 150.772 50.543,146.229 54.932,144.984 58.705 C 144.451 60.319,144.206 63.418,144.439 65.593 C 144.738 68.382,154.404 90.539,177.250 140.800 L 209.636 212.053 195.912 212.597 C 188.363 212.897,166.539 213.356,147.415 213.618 L 112.643 214.094 93.866 191.299 C 68.498 160.502,68.375 160.427,43.112 160.427 C 27.924 160.427,27.588 160.466,24.243 162.635 C 19.426 165.758,16.844 169.898,16.405 175.202 C 16.097 178.920,17.710 185.620,26.512 217.173 C 32.272 237.824,36.979 255.296,36.970 256.000 C 36.962 256.704,32.288 273.879,26.584 294.166 C 19.836 318.168,16.218 332.476,16.227 335.126 C 16.255 343.280,22.517 350.165,31.198 351.587 C 41.867 353.334,61.548 352.007,67.114 349.165 C 71.523 346.913,76.748 341.208,96.427 317.155 L 113.067 296.817 127.573 297.303 C 135.552 297.570,156.672 298.040,174.507 298.348 C 192.341 298.657,207.526 299.142,208.251 299.428 C 209.313 299.845,203.261 313.838,177.211 371.200 C 154.318 421.608,144.729 443.610,144.433 446.407 C 144.203 448.582,144.465 451.724,145.015 453.391 C 146.282 457.230,151.650 462.122,155.886 463.298 C 157.679 463.796,165.649 464.206,173.597 464.209 C 190.929 464.214,196.082 463.107,201.691 458.170 C 203.723 456.381,233.759 420.514,268.438 378.465 L 331.489 302.013 344.305 302.629 C 351.353 302.968,373.824 303.271,394.240 303.303 C 425.740 303.351,432.589 303.139,439.477 301.898 C 467.490 296.852,484.487 287.048,492.168 271.506 C 495.254 265.263,495.359 264.750,495.333 256.044 C 495.301 245.460,493.603 240.132,488.165 233.558 C 478.563 221.949,464.199 214.909,441.173 210.526 C 432.052 208.790,428.893 208.661,396.373 208.692 C 377.131 208.711,354.653 209.011,346.423 209.360 L 331.458 209.993 267.334 132.090 C 231.438 88.481,201.854 53.282,200.130 52.133 C 194.905 48.648,189.510 47.783,173.254 47.824 C 162.776 47.850,157.302 48.215,154.986 49.040 " stroke="none" fill="black" fill-rule="evenodd"></path></svg>