<svg xmlns="http://www.w3.org/2000/svg" width="512" height="512" viewBox="0 0 512 512"><path d="M100.267 65.202 C 81.557 68.855,64.714 81.766,56.015 99.125 C 50.589 109.953,48.534 118.368,48.445 130.133 C 48.333 144.824,51.623 154.443,60.589 165.649 C 66.164 172.616,70.144 175.007,77.102 175.565 C 86.469 176.317,86.737 176.113,122.895 140.636 C 158.583 105.621,159.573 104.399,159.573 95.378 C 159.573 85.128,153.789 77.900,139.947 70.852 C 128.367 64.956,112.847 62.747,100.267 65.202 M389.771 64.881 C 380.904 66.374,371.773 70.267,363.366 76.139 C 355.601 81.562,352.427 87.168,352.427 95.461 C 352.427 104.373,353.490 105.683,389.108 140.635 C 425.261 176.113,425.529 176.317,434.898 175.565 C 441.856 175.007,445.836 172.616,451.411 165.649 C 460.377 154.443,463.667 144.824,463.555 130.133 C 463.346 102.699,447.460 78.489,423.164 68.583 C 413.417 64.608,400.136 63.136,389.771 64.881 M119.211 96.953 C 120.844 97.391,118.528 99.971,101.408 116.782 C 90.584 127.410,81.331 136.253,80.846 136.433 C 80.259 136.650,80.113 134.135,80.411 128.914 C 80.798 122.120,81.273 120.230,83.957 114.800 C 87.689 107.249,94.323 100.768,100.913 98.235 C 105.346 96.531,115.091 95.849,119.211 96.953 M231.589 97.744 C 168.102 107.011,114.685 149.519,91.683 209.078 C 80.173 238.881,77.196 275.275,83.668 307.063 C 88.730 331.924,100.021 357.220,114.808 376.825 C 117.840 380.844,120.320 384.394,120.320 384.714 C 120.320 385.033,112.037 393.548,101.914 403.634 C 91.791 413.721,82.767 423.398,81.861 425.139 C 76.994 434.491,83.572 446.581,94.177 447.776 C 101.510 448.603,103.099 447.486,123.773 426.978 C 134.355 416.482,143.293 407.893,143.636 407.893 C 143.979 407.893,147.225 410.149,150.850 412.905 C 184.766 438.697,230.296 451.427,273.190 447.111 C 306.365 443.773,336.678 431.625,365.025 410.308 L 368.663 407.572 388.065 426.817 C 408.912 447.497,410.483 448.603,417.823 447.776 C 427.949 446.635,434.496 435.766,430.893 426.082 C 430.401 424.761,421.298 414.958,410.664 404.298 L 391.330 384.916 394.085 381.258 C 410.252 359.799,420.273 339.503,426.285 316.042 C 440.166 261.886,427.732 204.461,392.776 161.280 C 385.948 152.845,369.892 137.323,361.564 131.107 C 337.164 112.894,307.756 101.096,277.356 97.324 C 267.558 96.108,241.135 96.351,231.589 97.744 M410.845 98.194 C 417.677 100.750,424.223 107.070,428.043 114.800 C 430.727 120.230,431.202 122.120,431.589 128.914 C 431.887 134.135,431.741 136.650,431.154 136.433 C 430.669 136.253,421.403 127.398,410.563 116.753 C 396.017 102.471,391.241 97.298,392.333 97.012 C 396.595 95.896,406.372 96.520,410.845 98.194 M274.036 129.242 C 307.500 133.697,333.706 146.671,357.582 170.604 C 380.671 193.747,393.418 218.819,398.614 251.307 C 400.237 261.454,399.982 285.315,398.139 295.680 C 387.505 355.500,342.528 401.509,282.880 413.583 C 271.921 415.801,240.005 415.822,229.547 413.618 C 180.370 403.252,142.177 372.296,123.253 327.463 C 115.686 309.536,112.312 291.938,112.415 270.933 C 112.609 231.306,128.144 195.292,156.791 168.059 C 180.043 145.956,208.425 132.623,240.075 128.934 C 249.791 127.801,264.199 127.932,274.036 129.242 M249.584 145.403 C 246.074 146.932,241.776 152.016,240.691 155.923 C 240.115 157.997,239.794 176.414,239.791 207.573 L 239.787 256.000 206.479 256.000 C 171.307 256.000,169.605 256.169,165.274 260.086 C 160.812 264.120,158.970 273.748,161.663 278.956 C 163.286 282.094,168.388 286.526,171.322 287.348 C 172.604 287.706,193.045 288.000,216.747 288.000 L 259.840 288.000 263.466 286.063 C 265.460 284.998,268.148 282.530,269.439 280.579 L 271.787 277.033 272.046 218.090 C 272.318 156.330,272.252 155.038,268.563 150.048 C 264.828 144.997,255.663 142.754,249.584 145.403 " stroke="none" fill="black" fill-rule="evenodd"></path></svg>