<svg xmlns="http://www.w3.org/2000/svg" width="512" height="512" viewBox="0 0 512 512"><path d="M439.280 129.325 C 425.082 132.767,412.152 144.207,406.931 157.946 C 404.498 164.350,403.634 172.946,404.656 180.594 L 405.527 187.106 369.880 222.760 C 335.478 257.170,334.156 258.381,332.023 257.479 C 329.154 256.266,310.845 256.266,307.976 257.480 C 305.846 258.380,304.789 257.436,279.239 231.821 L 252.714 205.227 253.533 200.533 C 255.192 191.034,252.285 177.799,246.592 168.927 C 241.003 160.217,230.274 152.499,219.733 149.604 C 213.206 147.811,201.168 148.062,194.498 150.130 C 183.411 153.567,173.114 162.145,167.693 172.461 C 163.129 181.147,161.815 187.412,162.430 197.570 L 162.947 206.126 119.183 249.884 L 75.418 293.642 68.109 292.586 C 45.588 289.330,24.276 303.390,17.589 325.915 C 15.877 331.684,15.809 343.577,17.453 349.755 C 21.701 365.717,34.727 378.448,51.200 382.740 C 62.481 385.678,77.040 383.203,86.889 376.672 C 102.443 366.357,109.657 349.927,107.276 330.240 L 106.605 324.693 150.041 281.291 L 193.477 237.889 197.900 238.838 C 203.668 240.075,212.930 240.047,218.438 238.775 L 222.820 237.764 249.231 264.162 C 267.426 282.348,275.483 290.958,275.131 291.840 C 273.807 295.157,273.804 306.178,275.127 311.797 C 283.498 347.370,327.018 359.947,352.554 334.173 C 362.431 324.204,367.604 308.919,365.448 296.076 L 364.522 290.560 400.551 254.459 L 436.579 218.357 443.890 219.414 C 471.121 223.351,495.787 201.730,495.787 173.923 C 495.787 161.435,491.235 150.575,482.232 141.581 C 470.837 130.198,454.688 125.590,439.280 129.325 " stroke="none" fill="black" fill-rule="evenodd"></path></svg>