<svg xmlns="http://www.w3.org/2000/svg" width="512" height="512" viewBox="0 0 512 512"><path d="M446.580 129.214 C 435.309 131.947,425.424 140.036,420.025 150.944 C 417.210 156.630,416.871 158.063,416.570 165.559 C 416.342 171.253,416.632 175.218,417.492 178.151 L 418.747 182.433 376.728 224.446 L 334.708 266.459 330.127 265.339 C 324.275 263.909,315.726 263.909,309.874 265.339 L 305.294 266.458 275.483 236.696 C 247.085 208.343,245.698 206.812,246.202 204.373 C 248.825 191.673,248.138 183.588,243.662 174.507 C 235.436 157.814,217.440 149.100,199.458 153.100 C 177.490 157.988,163.793 180.201,169.422 201.811 L 170.737 206.861 120.937 256.661 L 71.137 306.461 63.944 305.004 C 57.880 303.775,55.763 303.700,50.462 304.524 C 23.512 308.714,8.519 336.928,20.164 361.542 C 24.826 371.396,35.245 379.751,46.542 382.693 C 64.552 387.384,83.570 378.287,91.973 360.960 C 94.743 355.249,95.114 353.676,95.420 346.345 C 95.656 340.712,95.369 336.785,94.508 333.849 L 93.253 329.568 143.299 279.528 L 193.345 229.487 199.286 230.883 C 205.638 232.376,213.128 232.150,219.374 230.279 L 222.833 229.243 252.684 259.048 C 279.162 285.487,282.479 289.094,282.048 290.987 C 279.970 300.122,279.646 304.784,280.685 310.598 C 283.491 326.303,294.874 338.589,310.352 342.620 C 332.514 348.393,355.214 333.547,359.315 310.598 C 360.354 304.784,360.031 300.132,357.952 290.987 C 357.520 289.087,362.040 284.285,399.167 247.196 L 440.867 205.539 448.058 206.996 C 454.120 208.225,456.237 208.300,461.538 207.476 C 484.779 203.863,500.109 181.490,494.882 158.815 C 490.035 137.791,467.687 124.095,446.580 129.214 M461.699 162.608 C 464.703 165.806,464.550 171.011,461.373 173.744 C 457.969 176.672,453.697 176.495,450.494 173.292 C 447.314 170.112,447.217 166.608,450.209 163.052 C 453.184 159.517,458.598 159.308,461.699 162.608 M213.684 186.945 C 214.929 188.424,215.893 190.632,215.893 192.000 C 215.893 193.368,214.929 195.576,213.684 197.055 C 208.228 203.539,197.323 197.190,200.547 189.406 C 201.972 185.966,204.490 184.320,208.327 184.320 C 210.795 184.320,211.953 184.888,213.684 186.945 M325.055 298.316 C 329.558 302.105,328.438 308.817,322.918 311.124 C 314.812 314.511,308.242 303.956,314.945 298.316 C 316.424 297.071,318.632 296.107,320.000 296.107 C 321.368 296.107,323.576 297.071,325.055 298.316 M61.506 338.708 C 64.686 341.888,64.783 345.392,61.791 348.948 C 59.964 351.119,58.956 351.573,55.966 351.573 C 51.120 351.573,48.252 348.666,48.252 343.755 C 48.252 336.722,56.412 333.614,61.506 338.708 " stroke="none" fill="black" fill-rule="evenodd"></path></svg>