<svg xmlns="http://www.w3.org/2000/svg" width="512" height="512" viewBox="0 0 512 512"><path d="M243.627 48.295 C 200.653 51.544,163.831 65.277,129.707 90.781 C 119.203 98.632,98.562 119.300,90.570 129.971 C 68.229 159.799,54.439 193.732,49.409 231.253 C 48.046 241.416,48.043 271.115,49.403 280.747 C 53.099 306.917,58.974 326.311,69.954 348.587 C 95.141 399.683,141.084 438.424,196.267 455.098 C 216.605 461.243,233.927 463.708,256.427 463.659 C 290.190 463.584,317.944 457.143,347.733 442.467 C 410.839 411.377,453.046 351.950,462.591 280.747 C 463.954 270.584,463.957 240.885,462.597 231.253 C 458.901 205.083,453.026 185.688,442.045 163.413 C 411.843 102.143,352.505 59.541,283.994 49.939 C 275.010 48.680,251.306 47.715,243.627 48.295 M275.447 81.114 C 294.588 83.194,314.337 88.925,332.556 97.687 L 343.893 103.138 343.893 139.889 C 343.893 160.102,343.796 176.640,343.677 176.640 C 343.558 176.640,321.768 154.944,295.253 128.427 L 247.046 80.213 257.103 80.213 C 262.635 80.213,270.889 80.619,275.447 81.114 M232.960 111.360 L 257.269 135.680 192.457 135.680 L 127.645 135.680 131.449 131.757 C 145.496 117.274,168.148 102.010,187.733 93.832 C 195.382 90.638,205.576 87.131,207.366 87.078 C 208.073 87.057,219.590 97.984,232.960 111.360 M392.075 144.640 C 401.362 156.067,407.358 165.460,413.864 178.773 C 419.213 189.721,424.960 204.581,424.960 207.467 C 424.960 208.118,414.016 219.590,400.640 232.960 L 376.320 257.269 376.320 192.450 L 376.320 127.632 381.076 132.296 C 383.693 134.861,388.642 140.416,392.075 144.640 M128.851 216.326 L 80.640 264.546 80.371 255.793 C 79.623 231.495,85.841 204.077,97.687 179.444 L 103.138 168.107 140.100 168.107 L 177.061 168.107 128.851 216.326 M316.795 195.195 L 343.893 222.283 343.893 255.990 L 343.893 289.697 316.805 316.795 L 289.717 343.893 256.010 343.893 L 222.303 343.893 195.205 316.805 L 168.107 289.717 168.107 256.010 L 168.107 222.303 195.195 195.205 L 222.283 168.107 255.990 168.107 L 289.697 168.107 316.795 195.195 M430.478 277.760 C 427.927 298.079,421.927 317.732,412.831 335.573 L 408.588 343.893 371.764 343.893 L 334.939 343.893 383.149 295.674 L 431.360 247.455 431.616 257.061 C 431.761 262.510,431.269 271.467,430.478 277.760 M135.680 319.758 L 135.680 384.368 130.924 379.704 C 124.707 373.608,114.912 361.516,108.829 352.427 C 100.640 340.192,87.040 310.458,87.040 304.791 C 87.040 303.713,134.410 255.147,135.461 255.147 C 135.581 255.147,135.680 284.222,135.680 319.758 M254.939 431.616 C 230.394 432.269,199.607 424.843,175.728 412.510 L 168.107 408.574 168.107 371.756 L 168.107 334.939 216.326 383.149 L 264.545 431.360 254.939 431.616 M379.704 381.076 C 367.960 393.053,350.822 405.226,334.080 413.484 C 323.125 418.888,307.635 424.960,304.805 424.960 C 304.004 424.960,292.410 414.016,279.040 400.640 L 254.731 376.320 319.550 376.320 L 384.368 376.320 379.704 381.076 " stroke="none" fill="black" fill-rule="evenodd"></path></svg>