<svg xmlns="http://www.w3.org/2000/svg" width="512" height="512" viewBox="0 0 512 512"><path d="M56.747 48.989 C 47.121 51.374,39.095 57.852,35.186 66.389 C 30.474 76.682,30.545 100.472,35.315 109.886 C 38.198 115.575,41.729 119.546,46.744 122.737 C 55.677 128.422,39.646 128.037,257.736 127.794 L 455.253 127.573 459.947 125.670 C 466.762 122.905,472.980 117.095,476.266 110.421 C 481.481 99.827,481.762 77.199,476.814 66.389 C 472.778 57.574,464.167 50.873,454.145 48.746 C 447.308 47.295,62.633 47.531,56.747 48.989 M64.942 161.600 C 64.219 162.471,64.027 195.793,64.197 290.667 L 64.427 418.560 66.836 425.378 C 73.320 443.727,87.374 457.010,105.813 462.220 C 111.096 463.712,118.239 463.787,256.000 463.787 C 393.761 463.787,400.904 463.712,406.187 462.220 C 424.626 457.010,438.680 443.727,445.164 425.378 L 447.573 418.560 447.803 290.667 C 447.973 195.793,447.781 162.471,447.058 161.600 C 445.599 159.842,66.401 159.842,64.942 161.600 M262.227 209.366 C 265.875 210.890,270.195 215.913,271.309 219.923 C 271.889 222.012,272.205 241.766,272.209 276.046 L 272.213 328.946 291.200 310.050 C 301.643 299.657,311.416 290.540,312.918 289.790 C 316.709 287.897,323.593 288.048,327.642 290.114 C 335.069 293.903,338.005 303.743,334.014 311.467 C 333.407 312.640,317.622 328.850,298.936 347.490 C 264.492 381.846,261.959 384.000,256.000 384.000 C 250.041 384.000,247.508 381.846,213.064 347.490 C 194.378 328.850,178.593 312.640,177.986 311.467 C 173.995 303.743,176.931 293.903,184.358 290.114 C 188.407 288.048,195.291 287.897,199.082 289.790 C 200.584 290.540,210.357 299.657,220.800 310.050 L 239.787 328.946 239.791 276.046 C 239.795 241.766,240.111 222.012,240.691 219.923 C 241.776 216.016,246.074 210.932,249.584 209.403 C 252.951 207.936,258.764 207.919,262.227 209.366 " stroke="none" fill="black" fill-rule="evenodd"></path></svg>