<svg xmlns="http://www.w3.org/2000/svg" width="512" height="512" viewBox="0 0 512 512"><path d="M154.027 161.765 C 96.299 210.880,48.949 251.377,48.805 251.757 C 48.661 252.138,95.893 292.744,153.765 341.992 L 258.987 431.535 259.207 380.346 L 259.427 329.156 270.300 329.747 C 321.173 332.511,355.980 341.960,384.427 360.730 C 402.753 372.822,417.930 387.292,446.324 419.745 L 463.787 439.703 464.047 418.038 C 464.470 382.941,462.525 356.552,457.737 332.422 C 442.860 257.438,399.911 207.892,331.523 186.823 C 315.257 181.811,291.783 177.496,273.920 176.234 C 269.931 175.952,265.038 175.521,263.047 175.276 L 259.427 174.831 259.207 123.648 L 258.987 72.465 154.027 161.765 " stroke="none" fill="black" fill-rule="evenodd"></path></svg>