<svg xmlns="http://www.w3.org/2000/svg" width="512" height="512" viewBox="0 0 512 512"><path d="M243.627 48.295 C 200.707 51.540,163.787 65.309,129.707 90.781 C 119.276 98.577,98.579 119.277,90.713 129.782 C 68.255 159.772,54.418 193.768,49.413 231.253 C 48.019 241.696,48.019 270.304,49.413 280.747 C 59.554 356.698,107.829 420.063,177.067 448.304 C 203.509 459.089,227.771 463.751,256.853 463.634 C 290.198 463.499,318.398 456.932,347.733 442.471 C 410.837 411.362,453.091 351.864,462.587 280.747 C 463.981 270.304,463.981 241.696,462.587 231.253 C 453.091 160.136,410.837 100.638,347.733 69.529 C 327.592 59.600,306.356 53.073,283.994 49.939 C 275.010 48.680,251.306 47.715,243.627 48.295 M275.447 81.114 C 347.484 88.943,408.291 141.727,426.231 212.001 C 448.394 298.823,402.945 387.270,319.249 420.197 C 293.994 430.132,262.077 434.038,234.686 430.544 C 145.853 419.214,80.213 345.046,80.213 256.000 C 80.213 167.651,145.919 92.766,233.311 81.514 C 244.096 80.125,264.562 79.931,275.447 81.114 M253.013 154.429 C 251.605 154.751,249.400 155.570,248.112 156.248 C 244.943 157.918,163.175 239.567,161.541 242.693 C 159.426 246.740,160.348 255.043,163.348 258.977 C 166.024 262.485,171.397 265.342,175.360 265.363 C 182.689 265.403,183.381 264.854,212.267 236.109 L 239.787 208.722 239.787 276.180 C 239.787 324.873,240.060 344.446,240.771 346.539 C 243.149 353.553,248.846 357.744,256.000 357.744 C 263.154 357.744,268.851 353.553,271.229 346.539 C 271.940 344.446,272.213 324.873,272.213 276.180 L 272.213 208.722 299.733 236.109 C 328.619 264.854,329.311 265.403,336.640 265.363 C 340.603 265.342,345.976 262.485,348.652 258.977 C 351.648 255.049,352.573 246.745,350.465 242.693 C 348.669 239.240,266.805 157.759,263.435 156.071 C 259.857 154.279,256.191 153.701,253.013 154.429 " stroke="none" fill="black" fill-rule="evenodd"></path></svg>