<svg xmlns="http://www.w3.org/2000/svg" width="512" height="512" viewBox="0 0 512 512"><path d="M238.790 48.708 C 199.901 51.925,162.269 66.422,129.782 90.701 C 119.266 98.560,98.560 119.266,90.701 129.782 C 69.069 158.727,55.338 191.226,50.352 225.280 C 42.149 281.314,56.217 336.040,90.695 382.218 C 98.476 392.640,119.191 413.346,129.707 421.213 C 160.300 444.101,192.921 457.398,231.253 462.606 C 242.659 464.156,272.000 463.930,283.567 462.204 C 353.989 451.696,412.003 409.894,442.434 347.733 C 457.257 317.454,463.599 289.966,463.599 256.000 C 463.599 222.419,457.247 194.557,442.880 165.120 C 431.962 142.752,420.990 127.453,402.774 109.202 C 384.698 91.090,369.338 80.067,346.880 69.089 C 313.251 52.649,276.017 45.629,238.790 48.708 M259.276 163.576 C 262.519 166.050,265.342 171.514,265.363 175.360 C 265.403 182.689,264.854 183.381,236.109 212.267 L 208.722 239.787 276.180 239.787 C 324.873 239.787,344.446 240.060,346.539 240.771 C 353.553 243.149,357.744 248.846,357.744 256.000 C 357.744 263.154,353.553 268.851,346.539 271.229 C 344.446 271.940,324.873 272.213,276.180 272.213 L 208.722 272.213 236.109 299.733 C 264.854 328.619,265.403 329.311,265.363 336.640 C 265.341 340.610,262.483 345.978,258.960 348.665 C 256.345 350.659,254.732 351.160,250.121 351.412 C 245.038 351.689,244.141 351.480,241.060 349.300 C 239.179 347.969,219.162 328.256,196.578 305.493 C 157.393 266.000,155.476 263.921,154.661 260.053 C 154.091 257.347,154.091 254.653,154.663 251.947 C 155.480 248.079,157.417 245.981,197.010 206.080 C 219.830 183.083,239.607 163.526,240.958 162.622 C 246.138 159.153,254.015 159.563,259.276 163.576 " stroke="none" fill="black" fill-rule="evenodd"></path></svg>