<svg xmlns="http://www.w3.org/2000/svg" width="512" height="512" viewBox="0 0 512 512"><path d="M238.790 48.708 C 199.901 51.925,162.269 66.422,129.782 90.701 C 119.266 98.560,98.560 119.266,90.701 129.782 C 69.069 158.727,55.338 191.226,50.352 225.280 C 42.149 281.314,56.217 336.040,90.695 382.218 C 98.476 392.640,119.191 413.346,129.707 421.213 C 160.300 444.101,192.921 457.398,231.253 462.606 C 242.659 464.156,272.000 463.930,283.567 462.204 C 353.989 451.696,412.003 409.894,442.434 347.733 C 457.257 317.454,463.599 289.966,463.599 256.000 C 463.599 222.419,457.247 194.557,442.880 165.120 C 431.962 142.752,420.990 127.453,402.774 109.202 C 384.698 91.090,369.338 80.067,346.880 69.089 C 313.251 52.649,276.017 45.629,238.790 48.708 M260.640 164.640 L 271.656 175.680 260.471 187.467 C 254.320 193.949,240.234 208.277,229.170 219.307 L 209.053 239.360 283.513 239.787 L 357.973 240.213 357.973 256.000 L 357.973 271.787 283.513 272.213 L 209.053 272.640 229.170 292.693 C 240.234 303.723,254.320 318.051,260.471 324.533 L 271.656 336.320 260.637 347.363 C 254.577 353.437,249.417 358.309,249.170 358.190 C 248.924 358.071,225.918 335.030,198.047 306.989 L 147.373 256.004 198.060 204.879 C 225.938 176.761,248.944 153.720,249.186 153.678 C 249.427 153.635,254.582 158.568,260.640 164.640 " stroke="none" fill="black" fill-rule="evenodd"></path></svg>