<svg xmlns="http://www.w3.org/2000/svg" width="512" height="512" viewBox="0 0 512 512"><path d="M252.587 123.590 L 252.587 174.856 249.813 175.278 C 248.288 175.510,243.392 175.925,238.933 176.200 C 199.010 178.658,158.763 191.383,130.078 210.615 C 83.547 241.812,57.808 290.189,49.860 361.387 C 48.585 372.808,46.977 439.467,47.976 439.467 C 48.212 439.467,56.421 430.347,66.218 419.200 C 88.557 393.782,96.200 385.806,107.746 375.865 C 142.613 345.844,179.562 333.123,241.700 329.747 L 252.573 329.156 252.793 380.385 L 253.013 431.614 291.840 398.549 C 313.195 380.363,360.427 340.162,396.800 309.213 C 433.173 278.264,462.933 252.508,462.933 251.977 C 462.933 251.446,454.641 243.974,444.506 235.372 C 434.371 226.771,387.707 187.093,340.809 147.200 C 293.912 107.307,254.876 74.140,254.064 73.496 C 252.667 72.388,252.587 75.100,252.587 123.590 " stroke="none" fill="black" fill-rule="evenodd"></path></svg>