<svg xmlns="http://www.w3.org/2000/svg" width="512" height="512" viewBox="0 0 512 512"><path d="M243.627 48.295 C 200.707 51.540,163.787 65.309,129.707 90.781 C 119.276 98.577,98.579 119.277,90.713 129.782 C 68.255 159.772,54.418 193.768,49.413 231.253 C 48.019 241.696,48.019 270.304,49.413 280.747 C 59.554 356.698,107.829 420.063,177.067 448.304 C 203.509 459.089,227.771 463.751,256.853 463.634 C 290.198 463.499,318.398 456.932,347.733 442.471 C 410.837 411.362,453.091 351.864,462.587 280.747 C 463.981 270.304,463.981 241.696,462.587 231.253 C 453.091 160.136,410.837 100.638,347.733 69.529 C 327.592 59.600,306.356 53.073,283.994 49.939 C 275.010 48.680,251.306 47.715,243.627 48.295 M275.447 81.114 C 347.484 88.943,408.291 141.727,426.231 212.001 C 448.394 298.823,402.945 387.270,319.249 420.197 C 293.994 430.132,262.077 434.038,234.686 430.544 C 145.853 419.214,80.213 345.046,80.213 256.000 C 80.213 167.651,145.919 92.766,233.311 81.514 C 244.096 80.125,264.562 79.931,275.447 81.114 M241.067 162.702 C 235.754 166.471,157.380 245.824,155.727 249.108 C 153.799 252.938,153.855 259.179,155.851 263.070 C 157.726 266.726,239.056 348.573,242.693 350.465 C 246.745 352.573,255.049 351.648,258.977 348.652 C 262.485 345.976,265.342 340.603,265.363 336.640 C 265.403 329.342,264.824 328.611,236.114 299.739 L 208.744 272.213 276.191 272.213 C 324.875 272.213,344.446 271.940,346.539 271.229 C 353.553 268.851,357.744 263.154,357.744 256.000 C 357.744 248.846,353.553 243.149,346.539 240.771 C 344.446 240.060,324.875 239.787,276.191 239.787 L 208.744 239.787 236.114 212.261 C 264.824 183.389,265.403 182.658,265.363 175.360 C 265.341 171.390,262.483 166.022,258.960 163.335 C 256.345 161.341,254.732 160.840,250.121 160.588 C 245.036 160.311,244.143 160.519,241.067 162.702 " stroke="none" fill="black" fill-rule="evenodd"></path></svg>