<svg xmlns="http://www.w3.org/2000/svg" width="512" height="512" viewBox="0 0 512 512"><path d="M238.790 48.708 C 199.901 51.925,162.269 66.422,129.782 90.701 C 119.266 98.560,98.560 119.266,90.701 129.782 C 69.069 158.727,55.338 191.226,50.352 225.280 C 42.149 281.314,56.217 336.040,90.695 382.218 C 98.476 392.640,119.191 413.346,129.707 421.213 C 160.300 444.101,192.921 457.398,231.253 462.606 C 242.659 464.156,272.000 463.930,283.567 462.204 C 353.989 451.696,412.003 409.894,442.434 347.733 C 457.257 317.454,463.599 289.966,463.599 256.000 C 463.599 222.419,457.247 194.557,442.880 165.120 C 431.962 142.752,420.990 127.453,402.774 109.202 C 384.698 91.090,369.338 80.067,346.880 69.089 C 313.251 52.649,276.017 45.629,238.790 48.708 M260.102 154.584 C 263.831 155.499,266.959 158.395,305.493 196.604 C 328.256 219.174,347.969 239.179,349.300 241.060 C 351.480 244.141,351.689 245.038,351.412 250.121 C 351.160 254.732,350.659 256.345,348.665 258.960 C 345.978 262.483,340.610 265.341,336.640 265.363 C 329.311 265.403,328.619 264.854,299.733 236.109 L 272.213 208.722 272.213 276.180 C 272.213 324.873,271.940 344.446,271.229 346.539 C 268.851 353.553,263.154 357.744,256.000 357.744 C 248.846 357.744,243.149 353.553,240.771 346.539 C 240.060 344.446,239.787 324.873,239.787 276.180 L 239.787 208.722 212.267 236.109 C 183.381 264.854,182.689 265.403,175.360 265.363 C 171.390 265.341,166.022 262.483,163.335 258.960 C 161.329 256.330,160.846 254.760,160.617 250.121 C 160.383 245.378,160.651 244.004,162.303 241.493 C 163.383 239.850,183.083 219.838,206.080 197.023 C 241.931 161.456,248.380 155.415,251.307 154.659 C 255.907 153.469,255.577 153.472,260.102 154.584 " stroke="none" fill="black" fill-rule="evenodd"></path></svg>