<svg xmlns="http://www.w3.org/2000/svg" width="512" height="512" viewBox="0 0 512 512"><path d="M243.627 48.295 C 200.707 51.540,163.787 65.309,129.707 90.781 C 119.276 98.577,98.579 119.277,90.713 129.782 C 68.255 159.772,54.418 193.768,49.413 231.253 C 48.019 241.696,48.019 270.304,49.413 280.747 C 59.554 356.698,107.829 420.063,177.067 448.304 C 203.509 459.089,227.771 463.751,256.853 463.634 C 290.198 463.499,318.398 456.932,347.733 442.471 C 410.837 411.362,453.091 351.864,462.587 280.747 C 463.981 270.304,463.981 241.696,462.587 231.253 C 453.091 160.136,410.837 100.638,347.733 69.529 C 327.592 59.600,306.356 53.073,283.994 49.939 C 275.010 48.680,251.306 47.715,243.627 48.295 M275.447 81.114 C 347.484 88.943,408.291 141.727,426.231 212.001 C 448.394 298.823,402.945 387.270,319.249 420.197 C 293.994 430.132,262.077 434.038,234.686 430.544 C 145.853 419.214,80.213 345.046,80.213 256.000 C 80.213 167.651,145.919 92.766,233.311 81.514 C 244.096 80.125,264.562 79.931,275.447 81.114 M269.303 163.052 L 267.093 165.678 267.093 185.665 L 267.093 205.653 262.064 205.653 C 254.283 205.653,240.195 207.276,231.302 209.197 C 182.558 219.726,153.996 253.418,145.514 310.394 C 143.232 325.726,143.919 329.166,149.640 331.054 C 153.802 332.427,156.414 331.115,163.840 323.916 C 186.681 301.776,211.244 292.973,257.067 290.505 L 267.093 289.965 267.093 310.568 L 267.093 331.171 269.153 333.231 C 271.907 335.985,275.216 336.726,278.216 335.261 C 280.608 334.092,362.876 256.893,366.109 252.783 C 367.068 251.563,367.787 249.340,367.787 247.591 C 367.787 243.939,370.375 246.556,316.782 196.037 L 279.004 160.427 275.258 160.427 C 272.122 160.427,271.152 160.855,269.303 163.052 " stroke="none" fill="black" fill-rule="evenodd"></path></svg>