<svg xmlns="http://www.w3.org/2000/svg" width="512" height="512" viewBox="0 0 512 512"><path d="M238.790 48.708 C 199.901 51.925,162.269 66.422,129.782 90.701 C 119.266 98.560,98.560 119.266,90.701 129.782 C 69.069 158.727,55.338 191.226,50.352 225.280 C 42.149 281.314,56.217 336.040,90.695 382.218 C 98.476 392.640,119.191 413.346,129.707 421.213 C 160.300 444.101,192.921 457.398,231.253 462.606 C 242.659 464.156,272.000 463.930,283.567 462.204 C 353.989 451.696,412.003 409.894,442.434 347.733 C 457.257 317.454,463.599 289.966,463.599 256.000 C 463.599 222.419,457.247 194.557,442.880 165.120 C 431.962 142.752,420.990 127.453,402.774 109.202 C 384.698 91.090,369.338 80.067,346.880 69.089 C 313.251 52.649,276.017 45.629,238.790 48.708 M315.733 200.099 C 339.435 222.661,360.479 242.644,362.498 244.507 L 366.169 247.893 315.991 295.654 L 265.813 343.415 265.588 316.348 L 265.363 289.280 258.335 289.287 C 249.316 289.297,234.468 290.614,225.237 292.224 C 207.418 295.331,189.332 302.795,177.067 312.102 C 170.549 317.048,158.682 328.704,149.910 338.773 L 145.822 343.467 146.326 332.373 C 149.548 261.395,178.221 220.968,233.183 209.910 C 237.988 208.943,245.568 207.956,250.027 207.716 C 254.485 207.476,259.765 207.083,261.760 206.841 L 265.387 206.402 265.387 179.475 L 265.387 152.548 269.013 155.813 C 271.008 157.609,292.032 177.538,315.733 200.099 " stroke="none" fill="black" fill-rule="evenodd"></path></svg>