<svg xmlns="http://www.w3.org/2000/svg" width="512" height="512" viewBox="0 0 512 512"><path d="M238.790 48.708 C 199.901 51.925,162.269 66.422,129.782 90.701 C 119.266 98.560,98.560 119.266,90.701 129.782 C 69.069 158.727,55.338 191.226,50.352 225.280 C 42.149 281.314,56.217 336.040,90.695 382.218 C 98.476 392.640,119.191 413.346,129.707 421.213 C 160.300 444.101,192.921 457.398,231.253 462.606 C 242.659 464.156,272.000 463.930,283.567 462.204 C 353.989 451.696,412.003 409.894,442.434 347.733 C 457.257 317.454,463.599 289.966,463.599 256.000 C 463.599 222.419,457.247 194.557,442.880 165.120 C 431.962 142.752,420.990 127.453,402.774 109.202 C 384.698 91.090,369.338 80.067,346.880 69.089 C 313.251 52.649,276.017 45.629,238.790 48.708 M263.821 156.264 C 267.274 157.990,269.730 161.039,271.229 165.461 C 271.940 167.554,272.213 187.127,272.213 235.820 L 272.213 303.278 299.733 275.891 C 328.619 247.146,329.311 246.597,336.640 246.637 C 340.610 246.659,345.978 249.517,348.665 253.040 C 350.659 255.655,351.160 257.268,351.412 261.879 C 351.689 266.962,351.480 267.859,349.300 270.940 C 347.969 272.821,328.256 292.838,305.493 315.422 C 266.000 354.607,263.921 356.524,260.053 357.339 C 257.354 357.908,254.646 357.909,251.947 357.342 C 248.077 356.529,246.015 354.626,206.507 315.418 C 183.744 292.829,164.031 272.811,162.700 270.933 C 160.520 267.857,160.311 266.963,160.588 261.879 C 160.840 257.268,161.341 255.655,163.335 253.040 C 166.022 249.517,171.390 246.659,175.360 246.637 C 182.689 246.597,183.381 247.146,212.267 275.891 L 239.787 303.278 239.787 235.820 C 239.787 187.127,240.060 167.554,240.771 165.461 C 242.208 161.224,244.673 158.033,247.747 156.431 C 253.500 153.434,258.066 153.386,263.821 156.264 " stroke="none" fill="black" fill-rule="evenodd"></path></svg>