<svg xmlns="http://www.w3.org/2000/svg" width="512" height="512" viewBox="0 0 512 512"><path d="M235.453 72.827 C 233.773 73.438,231.630 74.486,230.689 75.156 C 229.748 75.825,188.817 114.716,139.731 161.579 C 83.913 214.868,50.058 247.792,49.349 249.472 C 47.896 252.916,47.896 259.084,49.349 262.528 C 50.681 265.686,227.009 434.471,232.381 437.730 C 238.372 441.365,246.674 440.202,251.479 435.056 C 255.967 430.250,256.000 429.886,256.000 385.388 L 256.000 344.055 260.907 344.388 C 310.199 347.731,332.924 352.707,359.858 366.058 C 384.668 378.355,403.187 394.378,428.611 425.542 C 438.503 437.668,441.369 439.767,448.058 439.785 C 453.231 439.798,458.053 437.201,461.227 432.691 L 463.787 429.053 463.596 412.287 C 462.978 357.876,451.797 306.912,432.492 270.507 C 422.961 252.534,412.426 238.197,398.580 224.359 C 367.533 193.330,324.063 174.402,273.244 169.785 C 267.749 169.285,261.621 168.680,259.627 168.440 L 256.000 168.002 256.000 126.640 C 256.000 82.112,255.967 81.750,251.479 76.944 C 247.529 72.713,240.633 70.941,235.453 72.827 M225.417 190.720 C 227.231 193.997,231.079 197.638,233.822 198.673 C 235.000 199.118,241.720 199.745,248.755 200.067 C 276.423 201.333,296.679 204.682,316.530 211.272 C 378.573 231.868,414.565 280.323,427.439 360.585 C 428.422 366.715,429.227 372.978,429.227 374.504 L 429.227 377.277 420.480 369.424 C 383.892 336.572,346.714 320.885,290.133 314.425 C 277.115 312.938,240.917 311.758,236.095 312.663 C 234.351 312.990,231.568 314.448,229.911 315.902 C 223.939 321.146,224.047 320.484,223.574 354.807 L 223.147 385.775 155.520 321.227 C 118.325 285.726,87.893 256.369,87.893 255.989 C 87.893 255.609,118.325 226.259,155.520 190.767 L 223.147 126.237 223.574 157.198 C 223.942 183.919,224.194 188.511,225.417 190.720 " stroke="none" fill="black" fill-rule="evenodd"></path></svg>