<svg xmlns="http://www.w3.org/2000/svg" width="512" height="512" viewBox="0 0 512 512"><path d="M241.920 48.656 C 200.478 51.334,161.361 66.413,127.147 92.900 C 117.830 100.112,100.112 117.830,92.900 127.147 C 63.047 165.709,48.433 208.057,48.433 256.000 C 48.433 305.784,64.584 350.650,96.330 389.056 C 145.176 448.151,225.068 475.747,299.947 459.390 C 360.701 446.117,413.014 405.884,441.071 350.852 C 451.384 330.624,458.025 310.050,461.772 286.720 C 464.229 271.420,464.443 243.506,462.220 228.267 C 456.909 191.868,443.326 159.192,421.281 129.782 C 413.344 119.193,392.642 98.474,382.293 90.763 C 347.866 65.109,310.681 51.326,268.561 48.607 C 255.450 47.760,255.783 47.759,241.920 48.656 M284.160 82.317 C 361.461 95.511,420.524 156.422,430.481 233.217 C 440.829 313.027,395.438 390.110,320.632 419.764 C 301.005 427.544,283.922 430.921,261.120 431.527 C 242.065 432.034,229.593 430.773,213.333 426.695 C 145.344 409.643,93.939 353.713,82.330 284.160 C 80.416 272.689,79.762 250.694,80.985 238.893 C 85.246 197.757,102.783 160.775,131.779 131.779 C 159.608 103.950,194.198 86.965,234.240 81.465 C 245.343 79.940,272.998 80.412,284.160 82.317 M250.453 131.085 C 223.979 134.937,200.641 145.509,179.569 163.194 C 156.439 182.606,139.568 211.391,133.408 241.951 C 131.225 252.784,131.210 279.103,133.381 289.173 C 138.640 313.567,148.579 332.203,165.066 348.587 C 182.220 365.633,202.232 375.860,226.975 380.223 C 236.668 381.932,259.963 381.896,271.696 380.154 C 281.444 378.706,299.288 374.071,305.608 371.345 C 315.449 367.099,317.835 354.990,310.158 348.249 C 306.919 345.405,302.281 343.801,299.327 344.504 C 298.260 344.757,293.029 346.264,287.704 347.852 C 257.505 356.859,229.356 355.758,206.868 344.692 C 182.633 332.766,166.083 310.606,160.864 283.093 C 159.257 274.623,159.230 256.977,160.811 248.111 C 167.672 209.632,197.315 175.724,234.767 163.515 C 246.775 159.600,254.399 158.428,267.520 158.480 C 291.806 158.575,312.543 165.246,328.143 177.983 C 338.318 186.291,347.199 201.032,351.305 216.429 C 353.300 223.907,353.557 226.483,353.599 239.360 C 353.638 251.556,353.348 255.053,351.777 261.314 C 348.173 275.674,340.831 286.487,331.681 290.911 C 326.278 293.523,319.376 293.148,316.070 290.063 C 309.009 283.472,308.553 276.341,313.016 242.347 L 316.320 217.173 309.840 210.745 C 297.657 198.658,281.877 192.853,261.201 192.853 C 240.431 192.853,224.693 199.824,210.040 215.515 C 202.937 223.121,197.292 233.629,194.481 244.480 C 192.045 253.884,192.042 269.134,194.474 278.431 C 200.007 299.578,215.859 315.465,235.635 319.685 C 252.173 323.214,272.505 317.982,286.548 306.583 L 290.215 303.605 294.364 307.933 C 304.703 318.716,318.304 322.940,332.971 319.923 C 335.458 319.412,340.716 317.454,344.654 315.574 C 350.338 312.859,353.257 310.721,358.816 305.197 C 367.010 297.055,371.802 289.387,375.951 277.779 C 380.323 265.546,381.743 256.244,381.748 239.787 C 381.755 218.957,378.499 204.182,370.284 187.774 C 355.885 159.010,330.157 140.201,295.341 132.985 C 289.185 131.709,282.902 131.216,270.080 131.000 C 260.693 130.842,251.861 130.880,250.453 131.085 M273.822 222.015 C 278.899 223.263,286.720 226.675,286.720 227.642 C 286.720 231.932,282.085 262.134,280.776 266.371 C 275.945 282.013,264.265 291.513,248.672 292.486 C 241.898 292.909,241.202 292.784,236.000 290.223 C 227.554 286.065,223.060 279.358,220.921 267.717 C 219.508 260.029,220.884 250.796,224.575 243.200 C 229.804 232.439,242.009 223.115,253.544 221.071 C 258.747 220.148,267.978 220.578,273.822 222.015 " stroke="none" fill="black" fill-rule="evenodd"></path></svg>