<svg xmlns="http://www.w3.org/2000/svg" viewBox="0 0 512 512"><path d="M235.993 33.804 C 192.701 41.619,158.035 74.463,147.099 118.024 C 145.299 125.196,144.818 129.637,144.352 143.360 L 143.787 160.000 107.520 160.427 L 71.253 160.853 66.392 163.132 C 57.523 167.289,50.867 175.860,48.746 185.855 C 47.426 192.075,47.391 407.464,48.708 417.005 C 52.277 442.856,69.914 465.302,94.216 474.920 C 107.695 480.254,97.109 479.889,247.893 480.222 C 337.345 480.420,389.017 480.219,395.991 479.647 C 416.397 477.973,430.702 471.338,444.256 457.258 C 452.878 448.302,457.461 440.435,461.430 427.782 L 463.787 420.267 463.787 302.507 L 463.787 184.747 461.078 179.029 C 457.753 172.011,452.052 166.153,445.608 163.132 L 440.747 160.853 404.480 160.427 L 368.213 160.000 367.648 143.360 C 367.017 124.758,365.288 115.702,359.741 101.946 C 349.813 77.325,329.654 55.573,305.640 43.567 C 298.048 39.772,284.236 35.301,275.302 33.746 C 265.818 32.095,245.290 32.125,235.993 33.804 M275.626 66.526 C 294.844 71.523,311.423 83.327,322.514 99.909 C 331.996 114.085,335.538 126.683,335.688 146.773 L 335.787 160.000 256.000 160.000 L 176.213 160.000 176.320 146.347 C 176.392 137.091,176.868 130.842,177.798 126.944 C 185.430 94.968,209.900 71.407,241.920 65.203 C 250.554 63.530,266.517 64.157,275.626 66.526 M166.656 209.596 C 174.556 213.597,175.458 216.127,176.051 235.947 C 176.355 246.149,177.026 254.139,177.859 257.498 C 183.977 282.172,200.448 302.341,222.983 312.752 C 234.072 317.876,242.008 319.497,256.000 319.497 C 269.954 319.497,277.930 317.875,288.901 312.806 C 311.800 302.226,328.695 281.377,334.227 256.874 C 334.944 253.698,335.686 244.527,335.955 235.520 C 336.336 222.786,336.719 219.156,337.936 216.747 C 340.662 211.352,345.834 208.213,352.000 208.213 C 358.315 208.213,363.316 211.332,366.264 217.108 C 367.859 220.233,367.944 221.652,367.542 238.441 C 367.090 257.306,366.216 263.306,362.137 275.542 C 351.221 308.292,324.532 335.011,291.805 345.952 C 279.524 350.057,269.887 351.574,256.102 351.571 C 237.083 351.566,221.525 347.925,205.358 339.693 C 175.946 324.719,155.360 298.678,147.081 265.976 C 145.159 258.385,144.824 254.942,144.446 238.882 C 144.040 221.654,144.122 220.271,145.729 217.122 C 147.635 213.388,149.368 211.645,153.173 209.634 C 156.513 207.870,163.208 207.851,166.656 209.596 " stroke="none" fill="black" fill-rule="evenodd"></path></svg>