<svg xmlns="http://www.w3.org/2000/svg" viewBox="0 0 512 512"><path d="M233.813 32.975 C 218.510 34.388,193.024 40.359,177.742 46.113 C 156.562 54.088,132.355 67.979,114.361 82.485 C 105.085 89.963,89.963 105.085,82.485 114.361 C 67.996 132.333,53.350 157.939,45.720 178.637 C 41.823 189.206,37.328 206.334,34.821 220.160 C 33.097 229.673,32.888 233.548,32.888 256.000 C 32.888 278.452,33.097 282.327,34.821 291.840 C 39.217 316.086,44.924 333.777,55.055 354.560 C 65.645 376.285,80.053 396.482,97.384 413.895 C 131.050 447.722,174.941 470.028,222.720 477.593 C 236.691 479.804,275.239 479.816,289.140 477.613 C 387.094 462.086,462.086 387.094,477.613 289.140 C 478.817 281.545,479.146 274.425,479.146 256.000 C 479.146 229.642,478.299 222.017,473.048 201.126 C 467.039 177.213,456.489 153.323,442.998 133.076 C 433.078 118.190,426.065 109.569,414.306 97.810 C 380.733 64.238,340.455 43.476,292.267 34.905 C 283.894 33.416,277.981 33.042,259.840 32.852 C 247.637 32.725,235.925 32.780,233.813 32.975 M275.447 81.124 C 347.678 89.059,408.185 141.547,426.220 211.914 C 438.654 260.431,429.982 312.257,402.574 353.214 C 399.615 357.637,396.817 361.381,396.356 361.535 C 395.895 361.688,340.230 306.524,272.655 238.948 C 165.247 131.538,149.951 115.930,151.056 114.869 C 154.381 111.677,168.016 103.434,178.773 98.112 C 196.403 89.390,216.657 83.318,235.154 81.208 C 244.841 80.103,265.761 80.060,275.447 81.124 M239.345 273.052 C 346.753 380.462,362.049 396.070,360.944 397.131 C 354.274 403.533,327.178 417.794,312.320 422.723 C 235.937 448.060,153.858 419.706,108.829 352.427 C 102.415 342.844,92.968 323.491,89.232 312.279 C 74.857 269.150,77.677 221.090,96.940 180.907 C 102.938 168.395,114.188 150.187,115.921 150.187 C 116.230 150.187,171.771 205.476,239.345 273.052 " stroke="none" fill="black" fill-rule="evenodd"></path></svg>