<svg xmlns="http://www.w3.org/2000/svg" width="512" height="512" viewBox="0 0 512 512"><path d="M373.416 17.533 C 359.371 20.177,345.127 26.090,332.800 34.394 C 324.389 40.061,45.508 318.222,37.045 329.387 C 23.199 347.652,16.213 368.686,16.213 392.107 C 16.213 409.275,19.269 422.524,26.845 438.199 C 39.843 465.095,65.714 485.766,95.835 493.323 C 105.878 495.843,126.486 496.462,137.353 494.570 C 153.813 491.705,169.466 484.921,182.613 474.955 C 187.398 471.328,238.104 421.146,331.580 327.528 C 442.183 216.758,474.278 184.145,477.774 178.973 C 486.538 166.010,492.757 150.065,494.980 134.859 C 496.573 123.968,495.609 104.755,492.968 94.720 C 483.049 57.042,454.986 28.891,417.547 19.064 C 410.500 17.215,406.875 16.818,394.667 16.565 C 384.290 16.349,378.240 16.624,373.416 17.533 M411.733 50.785 C 450.999 62.147,473.391 104.241,460.432 142.333 C 455.072 158.088,453.029 160.664,417.847 196.024 L 387.099 226.928 384.602 222.477 C 381.087 216.211,295.789 130.913,289.523 127.398 L 285.072 124.901 315.976 94.153 C 332.973 77.241,348.608 62.246,350.720 60.829 C 369.133 48.479,391.206 44.845,411.733 50.785 M271.616 154.116 C 275.168 155.897,353.564 233.923,356.789 238.887 C 359.832 243.572,360.162 250.054,357.607 254.967 C 355.142 259.707,260.610 353.744,256.667 355.378 C 252.364 357.162,247.196 357.032,243.379 355.044 C 239.457 353.001,158.548 271.969,156.669 268.202 C 154.945 264.747,154.926 259.423,156.622 255.333 C 158.161 251.621,253.035 156.144,257.254 154.062 C 260.671 152.375,268.200 152.403,271.616 154.116 M249.565 193.604 C 237.604 199.037,236.879 216.030,248.358 221.886 C 255.034 225.292,264.729 223.317,268.698 217.743 C 278.237 204.347,264.385 186.872,249.565 193.604 M202.799 241.031 C 198.574 242.538,195.586 245.325,193.613 249.600 C 188.200 261.328,199.171 274.694,211.537 271.435 C 219.297 269.390,223.573 263.907,223.573 256.000 C 223.573 248.530,219.719 243.197,212.566 240.771 C 208.881 239.521,206.886 239.574,202.799 241.031 M299.093 240.829 C 292.247 243.256,288.427 248.690,288.427 256.000 C 288.427 273.175,311.288 278.084,318.396 262.435 C 321.324 255.990,319.588 248.437,314.122 243.837 C 309.761 240.168,304.134 239.042,299.093 240.829 M130.814 287.360 C 134.901 293.921,219.733 378.549,225.574 381.891 L 229.708 384.257 199.121 414.900 C 182.298 431.753,166.232 447.289,163.419 449.424 C 149.964 459.635,131.786 465.150,115.670 463.911 C 84.604 461.523,59.603 441.442,50.708 411.733 C 48.730 405.127,48.398 402.443,48.337 392.533 C 48.283 383.928,48.660 379.502,49.826 375.040 C 51.654 368.052,56.685 356.854,60.629 350.999 C 62.627 348.032,126.738 282.453,127.640 282.453 C 127.705 282.453,129.133 284.661,130.814 287.360 M248.175 290.156 C 244.332 292.186,241.865 295.527,240.565 300.463 C 237.303 312.840,250.623 323.762,262.435 318.396 C 271.785 314.149,274.744 302.747,268.698 294.257 C 264.730 288.684,254.741 286.688,248.175 290.156 " stroke="none" fill="black" fill-rule="evenodd"></path></svg>