<svg xmlns="http://www.w3.org/2000/svg" width="512" height="512" viewBox="0 0 512 512"><path d="M16.213 256.000 L 16.213 495.787 256.000 495.787 L 495.787 495.787 495.787 480.000 L 495.787 464.213 271.787 464.213 L 47.787 464.213 47.787 240.213 L 47.787 16.213 32.000 16.213 L 16.213 16.213 16.213 256.000 M367.787 263.680 L 367.787 431.787 423.680 431.787 L 479.573 431.787 479.573 263.680 L 479.573 95.573 423.680 95.573 L 367.787 95.573 367.787 263.680 M224.148 160.136 C 223.832 160.452,223.573 221.703,223.573 296.249 L 223.573 431.787 279.896 431.787 L 336.219 431.787 336.003 295.893 L 335.787 160.000 280.255 159.781 C 249.713 159.660,224.465 159.820,224.148 160.136 M80.213 320.000 L 80.213 431.787 136.107 431.787 L 192.000 431.787 192.000 320.000 L 192.000 208.213 136.107 208.213 L 80.213 208.213 80.213 320.000 " stroke="none" fill="black" fill-rule="evenodd"></path></svg>