<svg xmlns="http://www.w3.org/2000/svg" width="512" height="512" viewBox="0 0 512 512"><path d="M196.435 58.508 C 135.220 77.314,87.398 120.436,63.252 178.602 C 60.006 186.423,55.467 199.693,55.467 201.365 C 55.467 201.773,56.820 202.554,58.475 203.100 C 62.675 204.486,66.524 207.956,68.369 212.018 C 69.653 214.843,69.942 217.705,69.968 227.840 C 69.985 234.645,70.295 240.678,70.656 241.247 C 71.046 241.859,75.296 242.650,81.096 243.189 C 86.477 243.689,94.144 244.663,98.133 245.353 C 102.123 246.043,105.964 246.609,106.670 246.611 C 107.572 246.613,108.713 243.917,110.510 237.537 C 111.916 232.546,113.735 227.358,114.552 226.010 C 119.151 218.420,132.292 218.125,137.539 225.494 C 140.494 229.643,140.477 234.729,137.474 245.034 C 136.018 250.032,134.827 254.311,134.827 254.543 C 134.827 254.775,137.419 255.995,140.587 257.254 C 143.755 258.513,151.796 262.353,158.457 265.787 C 169.481 271.470,170.674 271.905,171.755 270.629 C 172.408 269.858,175.151 266.050,177.851 262.167 C 183.244 254.409,187.047 251.723,192.606 251.747 C 200.327 251.781,207.031 259.277,206.229 266.980 C 205.929 269.858,204.440 272.737,199.690 279.626 L 193.540 288.547 197.250 291.629 C 202.033 295.601,216.392 309.960,220.358 314.734 L 223.426 318.429 232.334 312.297 C 239.232 307.549,242.088 306.077,244.994 305.774 C 252.723 304.969,260.219 311.659,260.253 319.394 C 260.278 325.157,257.675 328.639,248.386 335.271 L 239.844 341.370 245.728 352.658 C 248.964 358.867,252.656 366.635,253.933 369.920 C 255.210 373.205,256.547 376.224,256.904 376.628 C 257.262 377.031,261.572 376.167,266.482 374.708 C 277.056 371.564,280.866 371.419,285.365 373.987 C 293.575 378.676,294.288 391.291,286.663 396.974 C 285.458 397.872,280.466 399.755,275.570 401.158 C 270.673 402.561,266.221 403.857,265.677 404.038 C 264.977 404.271,264.909 405.320,265.443 407.624 C 266.422 411.844,268.544 427.814,269.248 436.267 L 269.799 442.880 280.179 442.899 C 291.931 442.920,295.798 444.079,299.736 448.758 C 301.800 451.211,303.770 456.139,303.782 458.880 C 303.789 460.396,304.874 460.242,314.453 457.362 C 327.205 453.529,333.699 450.961,346.880 444.537 C 397.173 420.026,435.105 376.420,452.802 322.769 C 454.854 316.547,456.533 310.931,456.533 310.289 C 456.533 309.646,455.345 308.882,453.893 308.592 C 450.353 307.884,445.831 303.203,444.679 299.053 C 444.164 297.198,443.741 289.865,443.738 282.757 L 443.733 269.835 435.840 269.256 C 431.499 268.938,424.107 268.117,419.413 267.432 C 414.720 266.746,409.344 265.966,407.467 265.699 L 404.053 265.214 401.546 274.373 C 397.699 288.425,394.298 292.267,385.707 292.267 C 380.109 292.267,377.271 290.721,373.973 285.875 C 371.347 282.017,371.510 277.133,374.613 266.667 C 376.005 261.973,377.150 257.886,377.158 257.584 C 377.167 257.282,374.581 256.005,371.413 254.746 C 368.245 253.487,360.174 249.632,353.478 246.179 L 341.302 239.902 338.064 244.324 C 336.283 246.757,333.582 250.573,332.062 252.806 C 327.435 259.598,320.069 261.999,313.467 258.867 C 307.118 255.853,303.914 247.778,306.558 241.450 C 307.243 239.812,310.191 235.132,313.110 231.051 L 318.418 223.631 315.156 220.876 C 310.935 217.312,294.688 201.065,291.124 196.844 L 288.369 193.582 280.949 198.890 C 271.711 205.497,268.663 206.809,263.822 206.264 C 254.599 205.224,249.174 195.393,253.064 186.768 C 254.269 184.096,256.530 181.947,262.991 177.334 C 267.593 174.049,271.509 171.109,271.694 170.800 C 271.879 170.492,270.273 167.168,268.125 163.413 C 265.977 159.659,262.140 151.787,259.597 145.920 C 257.055 140.053,254.862 135.134,254.725 134.989 C 254.587 134.843,250.441 135.899,245.510 137.335 C 235.329 140.301,231.506 140.552,227.253 138.533 C 218.236 134.255,217.394 120.425,225.804 114.757 C 227.215 113.806,232.474 111.905,237.491 110.531 C 244.115 108.717,246.609 107.671,246.598 106.710 C 246.589 105.982,246.034 102.288,245.363 98.500 C 244.693 94.713,243.686 86.590,243.125 80.450 L 242.105 69.285 231.346 68.964 C 223.240 68.722,219.909 68.279,217.838 67.166 C 214.592 65.421,210.773 60.143,210.773 57.402 C 210.773 54.695,208.200 54.894,196.435 58.508 M301.227 57.900 C 301.227 60.753,298.389 65.233,294.981 67.762 C 292.886 69.316,291.136 69.583,281.446 69.830 L 270.316 70.113 270.923 77.510 C 271.539 85.014,273.567 98.918,274.127 99.478 C 274.296 99.647,278.722 98.581,283.963 97.109 C 292.459 94.724,293.861 94.544,296.888 95.451 C 303.460 97.420,308.092 104.657,306.881 111.064 C 305.522 118.257,301.817 121.128,289.435 124.583 C 282.557 126.502,282.353 126.633,282.881 128.775 C 283.539 131.452,290.250 145.786,293.212 150.844 L 295.345 154.488 300.633 150.613 C 303.541 148.482,307.544 145.754,309.530 144.551 C 320.185 138.096,333.024 146.879,330.739 159.060 C 329.965 163.189,327.760 165.618,319.322 171.640 C 315.236 174.556,311.749 177.051,311.573 177.183 C 311.007 177.608,321.611 188.824,328.257 194.830 L 334.694 200.647 339.737 193.398 C 342.511 189.411,345.937 185.177,347.349 183.989 C 353.815 178.548,364.222 180.868,368.244 188.646 C 369.736 191.532,369.883 198.199,368.512 200.803 C 367.972 201.828,365.294 205.825,362.561 209.684 L 357.592 216.702 361.196 218.812 C 366.223 221.755,380.559 228.463,383.227 229.120 C 385.391 229.653,385.492 229.478,387.782 221.286 C 389.070 216.677,391.016 211.527,392.106 209.840 C 395.875 204.007,404.869 202.060,410.462 205.867 C 417.656 210.763,418.618 215.763,414.849 228.670 C 413.416 233.578,412.337 237.688,412.451 237.802 C 413.020 238.371,428.049 240.576,434.987 241.108 L 442.880 241.713 442.899 235.843 C 442.931 225.618,447.314 219.559,455.331 218.655 C 459.739 218.159,459.720 218.255,457.351 208.782 C 440.243 140.376,392.146 86.681,326.265 62.438 C 317.794 59.321,304.462 55.467,302.151 55.467 C 301.643 55.467,301.227 56.562,301.227 57.900 M70.695 278.898 C 70.416 286.954,70.255 287.599,67.750 290.696 C 64.052 295.268,60.641 297.051,55.518 297.090 C 53.143 297.109,51.200 297.454,51.200 297.859 C 51.200 300.327,57.566 322.732,60.401 330.240 C 71.474 359.567,86.145 382.313,108.332 404.550 C 135.279 431.558,165.274 449.123,200.747 458.668 L 208.213 460.677 208.218 458.818 C 208.234 452.695,212.892 445.397,218.199 443.180 C 220.003 442.426,224.549 442.027,231.326 442.027 L 241.694 442.027 241.115 435.413 C 240.548 428.946,238.233 412.882,237.807 412.456 C 237.688 412.337,233.765 413.368,229.089 414.745 C 218.682 417.812,214.572 417.944,210.707 415.340 C 204.229 410.975,202.071 403.257,205.527 396.814 C 207.840 392.500,210.182 391.130,220.373 388.126 C 225.419 386.639,229.547 385.122,229.547 384.754 C 229.547 383.470,222.757 368.443,219.737 363.043 L 216.692 357.599 209.680 362.564 C 200.490 369.071,199.325 369.637,195.123 369.630 C 184.601 369.615,178.098 359.948,182.125 350.309 C 183.283 347.539,186.979 344.277,196.514 337.614 L 200.601 334.758 194.807 328.418 C 191.621 324.931,186.405 319.666,183.218 316.719 L 177.422 311.360 171.698 319.234 C 164.860 328.640,162.733 330.351,157.218 330.881 C 150.260 331.549,144.318 327.267,142.570 320.323 C 141.314 315.335,142.582 311.938,149.153 302.692 L 154.401 295.308 149.065 292.323 C 142.438 288.618,131.690 283.623,128.759 282.887 C 126.611 282.348,126.505 282.531,124.218 290.714 C 121.477 300.521,119.048 304.688,114.934 306.640 C 108.258 309.808,100.959 307.673,96.660 301.293 C 94.056 297.428,94.188 293.318,97.255 282.911 C 98.632 278.235,99.678 274.326,99.577 274.226 C 99.133 273.782,83.444 271.440,77.522 270.934 L 70.991 270.376 70.695 278.898 " stroke="none" fill="black" fill-rule="evenodd"></path></svg>