<svg xmlns="http://www.w3.org/2000/svg" width="512" height="512" viewBox="0 0 512 512"><path d="M250.586 48.986 C 248.781 49.655,246.477 50.987,245.466 51.947 C 244.454 52.908,223.083 81.148,197.973 114.704 L 152.320 175.714 109.556 175.750 C 84.203 175.772,64.923 176.141,62.200 176.658 C 50.599 178.858,40.956 186.172,35.771 196.703 C 32.971 202.391,32.855 203.011,32.899 212.035 L 32.944 221.440 58.728 311.893 C 72.909 361.643,85.291 404.707,86.243 407.592 C 92.098 425.334,108.922 440.194,127.648 444.161 C 136.488 446.033,375.476 446.033,384.427 444.161 C 395.953 441.749,408.590 433.986,416.341 424.555 C 423.892 415.368,424.345 413.998,452.404 315.651 L 479.038 222.293 479.092 212.462 C 479.145 202.944,479.054 202.442,476.229 196.703 C 471.044 186.172,461.401 178.858,449.800 176.658 C 447.078 176.141,427.786 175.771,402.444 175.748 L 359.680 175.709 313.173 113.681 C 283.057 73.513,265.738 51.123,264.033 50.149 C 260.325 48.033,254.517 47.531,250.586 48.986 M287.952 133.328 C 305.109 156.204,319.147 175.116,319.147 175.354 C 319.147 175.592,290.699 175.787,255.929 175.787 C 220.839 175.787,192.838 175.459,192.996 175.050 C 193.702 173.223,255.629 91.327,256.160 91.518 C 256.489 91.637,270.795 110.451,287.952 133.328 M447.292 210.324 C 448.119 212.140,444.656 225.139,422.455 303.551 C 408.266 353.664,395.793 396.589,394.737 398.939 C 392.266 404.440,388.186 408.474,382.299 411.236 L 377.600 413.440 256.000 413.440 L 134.400 413.440 129.951 411.428 C 124.508 408.967,118.522 402.755,116.656 397.629 C 115.892 395.531,103.700 352.948,89.563 303.000 C 68.192 227.494,64.012 211.853,64.765 210.200 L 65.670 208.213 256.000 208.213 L 446.330 208.213 447.292 210.324 M254.720 252.289 C 241.066 254.467,231.284 259.365,221.781 268.781 C 210.247 280.209,205.084 291.507,204.222 307.200 C 203.641 317.790,205.337 325.818,210.261 335.787 C 216.973 349.374,228.866 359.931,242.899 364.759 C 251.932 367.867,264.942 368.627,274.128 366.583 C 317.891 356.846,334.817 303.329,304.413 270.826 C 296.414 262.275,287.213 256.648,276.834 253.958 C 271.358 252.539,258.997 251.606,254.720 252.289 M270.734 285.504 C 275.613 287.167,281.741 292.453,284.760 297.606 C 286.602 300.749,287.112 302.867,287.415 308.633 C 287.765 315.307,287.613 316.128,285.083 321.268 C 280.428 330.723,272.552 335.648,261.968 335.720 C 256.634 335.757,254.750 335.366,250.692 333.381 C 238.301 327.318,232.672 312.281,238.084 299.701 C 240.414 294.283,247.542 287.439,252.786 285.583 C 257.612 283.875,265.847 283.839,270.734 285.504 " stroke="none" fill="black" fill-rule="evenodd"></path></svg>