<svg xmlns="http://www.w3.org/2000/svg" width="512" height="512" viewBox="0 0 512 512"><path d="M234.240 49.214 C 199.182 53.575,168.403 64.580,141.818 82.261 C 131.753 88.954,121.173 97.018,121.173 97.996 C 121.173 98.308,151.509 128.898,188.586 165.973 L 255.999 233.382 273.137 216.244 L 290.275 199.106 282.219 188.394 C 261.749 161.175,249.279 132.214,243.097 97.537 C 241.769 90.083,241.188 82.423,240.862 68.053 C 240.370 46.311,241.091 48.362,234.240 49.214 M272.597 55.204 C 270.882 73.508,275.193 102.050,282.916 123.516 C 288.718 139.645,301.192 161.899,311.018 173.653 L 313.158 176.213 351.992 137.390 C 373.351 116.037,390.827 98.311,390.827 97.997 C 390.827 97.031,380.365 89.040,370.266 82.293 C 364.980 78.761,354.867 73.029,347.794 69.554 C 324.734 58.228,306.545 53.009,276.339 49.053 L 273.212 48.643 272.597 55.204 M91.881 128.213 C 73.926 151.232,59.620 181.374,53.432 209.223 C 51.534 217.769,48.640 235.983,48.640 239.389 C 48.640 240.440,51.001 240.640,63.385 240.640 C 111.129 240.640,154.140 255.427,191.879 284.816 L 199.011 290.370 216.197 273.185 L 233.382 255.999 165.973 188.586 C 128.898 151.509,98.296 121.173,97.968 121.173 C 97.641 121.173,94.901 124.341,91.881 128.213 M374.610 160.008 L 335.787 198.842 338.347 200.982 C 344.543 206.162,361.342 216.805,370.347 221.255 C 395.280 233.579,419.123 239.169,447.287 239.293 C 455.578 239.330,462.568 239.153,462.822 238.901 C 463.557 238.168,460.918 219.744,458.610 209.493 C 453.550 187.027,442.226 160.472,429.732 141.770 C 422.963 131.640,414.971 121.173,414.003 121.173 C 413.689 121.173,395.963 138.649,374.610 160.008 M295.677 238.936 L 278.623 256.006 346.030 323.416 C 383.103 360.492,413.692 390.827,414.004 390.827 C 414.317 390.827,416.533 388.363,418.929 385.352 C 436.274 363.554,450.221 335.336,457.423 307.464 C 459.572 299.148,463.342 277.153,463.355 272.853 C 463.360 271.488,462.084 271.360,448.470 271.360 C 400.286 271.360,356.736 256.152,318.599 226.009 C 315.716 223.731,313.217 221.867,313.044 221.867 C 312.872 221.867,305.057 229.548,295.677 238.936 M51.437 272.829 C 48.302 273.219,48.327 272.476,50.884 289.280 C 55.964 322.661,71.699 358.493,93.071 385.352 C 95.467 388.363,97.683 390.827,97.997 390.827 C 98.311 390.827,116.037 373.351,137.390 351.992 L 176.213 313.158 173.653 311.018 C 172.245 309.841,166.517 305.781,160.924 301.996 C 137.042 285.834,108.459 275.749,78.933 273.067 C 69.830 272.240,57.052 272.130,51.437 272.829 M238.643 295.970 L 221.729 312.900 229.783 323.609 C 257.388 360.315,271.360 402.324,271.360 448.615 C 271.360 457.345,271.690 463.360,272.170 463.360 C 275.520 463.360,294.857 460.332,302.507 458.609 C 323.362 453.913,348.583 443.520,366.507 432.236 C 374.406 427.263,389.544 416.106,390.508 414.545 C 390.972 413.794,257.204 279.040,255.994 279.040 C 255.754 279.040,247.946 286.658,238.643 295.970 M159.570 375.092 L 120.747 413.971 123.733 416.542 C 128.779 420.886,139.983 428.793,148.053 433.706 C 167.288 445.417,188.711 453.966,211.691 459.102 C 219.165 460.773,238.210 463.514,238.730 462.995 C 239.662 462.062,239.848 443.390,239.015 434.347 C 236.362 405.545,227.378 378.371,212.918 355.413 C 207.860 347.382,199.687 336.213,198.869 336.213 C 198.607 336.213,180.923 353.709,159.570 375.092 " stroke="none" fill="black" fill-rule="evenodd"></path></svg>