<svg xmlns="http://www.w3.org/2000/svg" width="512" height="512" viewBox="0 0 512 512"><path d="M66.353 128.876 C 42.864 132.867,23.006 151.285,17.040 174.612 C 15.432 180.899,15.360 184.372,15.360 256.000 C 15.360 327.628,15.432 331.101,17.040 337.388 C 22.293 357.927,37.526 374.054,58.453 381.232 L 65.280 383.573 230.400 383.573 C 387.926 383.573,395.774 383.501,401.036 382.009 C 418.737 376.990,433.030 364.989,440.843 348.587 C 446.996 335.666,446.720 340.020,446.720 256.000 C 446.720 171.980,446.996 176.334,440.843 163.413 C 433.103 147.164,419.260 135.416,401.493 130.019 C 396.623 128.540,388.416 128.457,233.387 128.326 C 143.744 128.250,68.579 128.497,66.353 128.876 M398.080 162.950 C 403.515 165.621,409.488 171.598,412.187 177.067 L 414.293 181.333 414.293 256.000 L 414.293 330.667 411.367 336.065 C 406.552 344.944,399.036 350.156,388.940 351.616 C 381.476 352.696,80.628 352.638,73.143 351.556 C 62.672 350.042,54.327 343.984,49.673 334.517 L 47.360 329.813 47.360 256.000 L 47.360 182.187 49.673 177.483 C 53.403 169.896,60.649 163.559,68.267 161.221 C 69.440 160.861,143.168 160.631,232.107 160.710 L 393.813 160.853 398.080 162.950 M472.320 204.039 C 469.525 205.659,465.850 209.335,464.564 211.798 C 462.755 215.261,462.785 296.785,464.596 300.289 C 466.205 303.399,471.339 307.882,474.082 308.570 C 478.518 309.684,485.275 308.463,488.565 305.954 C 494.956 301.079,494.896 301.551,494.896 256.000 C 494.896 210.399,494.963 210.926,488.507 206.002 C 485.864 203.986,484.328 203.518,479.668 203.306 C 476.455 203.160,473.292 203.476,472.320 204.039 " stroke="none" fill="black" fill-rule="evenodd"></path></svg>