<svg xmlns="http://www.w3.org/2000/svg" width="512" height="512" viewBox="0 0 512 512"><path d="M107.805 33.690 C 99.136 35.263,91.216 38.010,82.347 42.521 C 71.928 47.820,60.867 58.696,55.731 68.693 C 49.623 80.583,46.794 92.985,48.634 99.816 C 49.802 104.155,54.641 109.684,58.296 110.857 C 59.791 111.337,65.043 112.359,69.968 113.130 C 86.388 115.699,92.259 118.486,94.666 124.856 C 95.293 126.515,95.578 168.726,95.587 261.389 C 95.595 340.140,95.941 399.572,96.424 405.333 C 98.195 426.421,105.434 442.298,119.721 456.429 C 131.234 467.816,144.557 475.018,160.440 478.440 C 167.230 479.903,174.156 480.000,271.787 480.000 C 357.712 480.000,376.937 479.791,381.867 478.803 C 415.931 471.976,440.885 446.762,446.727 413.265 C 447.825 406.969,448.000 384.305,448.000 248.771 C 448.000 95.232,448.039 91.427,449.679 85.014 C 451.377 78.377,455.868 68.324,460.972 59.740 C 466.593 50.285,463.704 39.841,454.076 34.811 L 449.512 32.427 281.716 32.504 C 147.994 32.565,112.678 32.806,107.805 33.690 M422.400 64.454 C 422.400 64.703,421.623 67.213,420.674 70.032 C 416.501 82.417,416.290 84.743,415.827 123.520 L 415.385 160.427 271.785 160.427 L 128.185 160.427 127.767 141.440 C 127.465 127.713,126.975 121.164,125.999 117.799 C 122.060 104.218,114.476 95.165,102.009 89.165 C 97.765 87.123,92.085 84.954,89.387 84.345 C 86.688 83.737,84.480 82.925,84.480 82.543 C 84.480 82.160,86.224 79.983,88.355 77.704 C 94.617 71.009,105.956 65.962,117.760 64.614 C 122.321 64.093,422.400 63.935,422.400 64.454 " stroke="none" fill="black" fill-rule="evenodd"></path></svg>