<svg xmlns="http://www.w3.org/2000/svg" width="512" height="512" viewBox="0 0 512 512"><path d="M89.173 81.634 C 85.624 83.510,83.689 85.324,82.046 88.318 C 80.785 90.616,80.596 97.743,80.213 157.440 L 79.787 224.000 74.240 224.560 C 55.764 226.424,40.028 239.922,33.604 259.413 C 32.162 263.791,32.039 269.744,31.773 347.947 L 31.488 431.787 49.878 431.787 L 68.267 431.787 68.267 416.000 L 68.267 400.213 256.000 400.213 L 443.733 400.213 443.733 416.000 L 443.733 431.787 462.122 431.787 L 480.512 431.787 480.227 347.947 C 479.961 269.744,479.838 263.791,478.396 259.413 C 471.926 239.783,456.367 226.438,437.760 224.560 L 432.213 224.000 431.787 157.440 C 431.404 97.743,431.215 90.616,429.954 88.318 C 428.269 85.247,426.319 83.451,422.656 81.596 C 420.165 80.335,405.469 80.216,255.829 80.247 C 107.738 80.278,91.484 80.414,89.173 81.634 M228.077 176.691 C 232.087 177.805,237.110 182.125,238.634 185.773 C 239.478 187.793,239.787 193.336,239.787 206.479 L 239.787 224.427 180.053 224.427 L 120.320 224.427 120.320 205.820 L 120.320 187.214 122.765 183.359 C 124.927 179.950,127.372 178.155,132.267 176.384 C 134.769 175.479,224.750 175.767,228.077 176.691 M380.673 176.777 C 384.633 178.128,387.479 180.445,389.756 184.171 C 391.586 187.167,391.671 188.136,391.676 205.867 L 391.680 224.427 331.947 224.427 L 272.213 224.427 272.213 206.479 C 272.213 186.836,272.581 184.903,277.132 180.626 C 282.182 175.880,282.357 175.865,332.033 175.824 C 364.586 175.797,378.608 176.072,380.673 176.777 " stroke="none" fill="black" fill-rule="evenodd"></path></svg>