<svg xmlns="http://www.w3.org/2000/svg" width="512" height="512" viewBox="0 0 512 512"><path d="M248.175 34.156 C 244.700 35.992,242.256 39.054,240.771 43.434 C 240.053 45.550,239.787 69.973,239.787 133.688 L 239.787 221.040 198.187 185.376 C 175.307 165.760,155.119 148.599,153.325 147.240 C 143.683 139.938,129.371 146.456,128.196 158.685 C 127.396 167.015,126.572 166.173,181.264 212.928 C 208.701 236.383,231.149 255.765,231.149 256.000 C 231.149 256.235,208.701 275.617,181.264 299.072 C 126.572 345.827,127.396 344.985,128.196 353.315 C 129.371 365.544,143.683 372.062,153.325 364.760 C 155.119 363.401,175.307 346.240,198.187 326.624 L 239.787 290.960 239.787 378.312 C 239.787 469.248,239.762 468.607,243.402 473.833 C 247.190 479.270,257.055 481.280,263.501 477.926 C 268.263 475.449,381.050 362.162,382.686 358.214 C 383.409 356.469,384.000 353.614,384.000 351.870 C 384.000 344.667,383.552 344.223,330.736 299.072 C 303.299 275.617,280.851 256.235,280.851 256.000 C 280.851 255.765,303.299 236.383,330.736 212.928 C 383.552 167.777,384.000 167.333,384.000 160.130 C 384.000 158.386,383.409 155.531,382.686 153.786 C 381.050 149.838,268.263 36.551,263.501 34.074 C 259.347 31.913,252.351 31.951,248.175 34.156 M343.893 158.914 C 343.893 159.259,327.765 173.380,308.053 190.293 L 272.213 221.045 272.213 153.833 L 272.213 86.621 308.053 122.453 C 327.765 142.161,343.893 158.568,343.893 158.914 M343.893 353.086 C 343.893 353.432,327.765 369.839,308.053 389.547 L 272.213 425.379 272.213 358.167 L 272.213 290.955 308.053 321.707 C 327.765 338.620,343.893 352.741,343.893 353.086 " stroke="none" fill="black" fill-rule="evenodd"></path></svg>