<svg xmlns="http://www.w3.org/2000/svg" viewBox="0 0 512 512"><path d="M244.215 1.305 C 228.102 4.803,213.344 16.344,206.053 31.147 C 202.032 39.311,200.314 46.734,200.307 55.976 C 200.299 65.967,201.520 71.111,206.238 80.971 C 212.506 94.066,223.528 103.742,238.221 109.048 C 243.826 111.071,245.684 111.308,256.000 111.308 C 266.316 111.308,268.174 111.071,273.779 109.048 C 282.804 105.788,288.841 101.945,295.678 95.103 C 304.682 86.092,309.751 75.591,311.377 62.584 C 314.270 39.432,302.059 16.621,281.285 6.368 C 268.962 0.286,256.651 -1.395,244.215 1.305 M266.584 34.537 C 270.822 36.600,275.083 40.856,277.526 45.463 C 279.040 48.318,279.440 50.485,279.452 55.893 C 279.465 61.966,279.174 63.238,276.819 67.413 C 270.558 78.515,257.752 82.874,246.323 77.794 C 240.899 75.384,237.582 72.124,234.716 66.390 C 230.728 58.408,231.242 50.165,236.187 42.803 C 238.743 38.996,243.822 34.926,247.893 33.422 C 251.799 31.980,262.664 32.627,266.584 34.537 M78.302 129.323 C 57.671 134.349,44.239 155.804,49.001 176.125 C 52.735 192.060,65.450 204.483,80.970 207.361 C 83.692 207.866,105.721 208.213,134.999 208.213 C 167.061 208.213,185.005 208.520,186.063 209.086 C 186.960 209.566,188.102 210.721,188.601 211.653 C 190.299 214.826,191.142 231.028,190.277 243.862 C 189.196 259.913,187.386 271.060,168.570 377.573 C 159.415 429.398,152.755 469.316,152.768 472.293 C 152.869 497.345,176.240 516.235,200.705 511.040 C 213.438 508.336,225.677 497.723,229.916 485.709 C 230.615 483.727,236.004 454.559,241.890 420.892 C 252.760 358.727,254.963 347.307,256.088 347.307 C 257.149 347.307,258.920 356.602,270.074 420.693 C 280.618 481.275,280.911 482.704,284.205 489.513 C 291.714 505.031,308.399 513.967,325.054 511.389 C 344.774 508.336,359.253 491.891,359.253 472.544 C 359.253 468.523,354.157 437.695,343.922 379.804 C 320.953 249.883,322.448 259.574,321.997 237.653 C 321.560 216.378,322.290 211.173,325.973 209.315 C 327.616 208.486,339.422 208.236,377.270 208.226 C 406.310 208.218,428.315 207.864,431.030 207.361 C 446.550 204.483,459.265 192.060,462.999 176.125 C 467.295 157.791,456.395 137.838,438.037 130.432 L 433.067 128.427 258.133 128.278 C 110.820 128.153,82.427 128.318,78.302 129.323 M429.692 162.521 C 432.635 165.464,432.584 170.490,429.579 173.495 L 427.372 175.702 375.179 175.958 C 323.006 176.213,322.985 176.214,317.440 178.200 C 303.061 183.349,294.579 193.062,291.351 208.074 C 289.499 216.687,288.917 235.952,290.085 250.027 C 291.351 265.291,293.862 280.521,312.713 387.248 C 320.945 433.856,327.680 472.515,327.680 473.156 C 327.680 473.798,326.686 475.504,325.471 476.948 C 322.661 480.287,317.862 480.594,314.463 477.653 C 312.342 475.818,311.815 473.277,302.477 419.840 C 290.608 351.928,289.645 346.761,287.453 339.200 C 282.955 323.691,274.649 312.410,265.486 309.366 C 259.312 307.316,249.382 307.858,244.185 310.531 C 235.393 315.052,228.517 325.712,224.041 341.760 C 222.863 345.984,216.935 377.794,210.868 412.448 C 198.541 482.856,199.443 479.573,192.427 479.573 C 188.785 479.573,186.110 477.658,184.871 474.164 C 184.565 473.300,191.410 432.404,200.081 383.284 C 223.038 253.233,223.379 250.839,222.465 226.133 C 221.750 206.798,219.088 197.673,211.728 189.324 C 207.361 184.372,201.241 180.405,194.345 178.060 C 189.176 176.301,187.424 176.237,136.821 175.974 L 84.628 175.702 82.421 173.495 C 79.416 170.490,79.365 165.464,82.308 162.521 L 84.402 160.427 256.000 160.427 L 427.598 160.427 429.692 162.521 " stroke="none" fill="black" fill-rule="evenodd"></path></svg>