<svg xmlns="http://www.w3.org/2000/svg" width="512" height="512" viewBox="0 0 512 512"><path d="M143.840 34.124 C 125.976 38.938,110.847 51.385,102.864 67.840 C 95.330 83.370,96.000 62.964,96.000 276.907 C 96.000 381.099,96.294 467.396,96.652 468.678 C 97.483 471.647,101.918 476.720,105.140 478.386 C 108.615 480.183,115.424 480.074,119.039 478.162 C 120.678 477.296,152.193 449.756,189.074 416.962 L 256.129 357.337 258.838 359.896 C 264.548 365.290,387.985 474.791,390.675 476.848 C 393.656 479.128,400.614 480.300,404.852 479.237 C 407.636 478.538,412.697 474.084,414.550 470.700 C 415.902 468.232,416.000 455.205,416.000 277.760 C 416.000 62.853,416.671 83.372,409.136 67.840 C 402.890 54.967,393.033 45.110,380.160 38.864 C 366.011 32.000,374.215 32.420,255.519 32.478 C 155.001 32.527,149.467 32.608,143.840 34.124 " stroke="none" fill="black" fill-rule="evenodd"></path></svg>