<svg xmlns="http://www.w3.org/2000/svg" width="512" height="512" viewBox="0 0 512 512"><path d="M41.263 48.618 C 32.102 50.575,23.367 57.553,19.035 66.375 L 16.640 71.253 16.640 223.147 L 16.640 375.040 18.699 380.160 C 21.550 387.251,29.292 394.955,36.267 397.641 C 41.041 399.480,43.146 399.658,67.413 400.275 C 97.050 401.028,110.518 402.009,130.560 404.873 C 173.640 411.030,205.764 423.543,228.844 443.158 C 234.549 448.007,236.847 448.891,238.763 446.976 C 239.552 446.186,239.786 406.691,239.785 274.389 C 239.784 112.757,239.698 102.655,238.292 99.858 C 236.274 95.843,225.993 87.417,215.443 81.133 C 180.568 60.358,132.260 50.026,61.867 48.285 C 52.480 48.053,43.208 48.203,41.263 48.618 M442.027 48.309 C 369.623 51.094,319.708 63.794,286.293 87.931 C 278.363 93.660,274.391 97.589,273.119 100.962 C 272.491 102.627,272.213 155.982,272.213 274.799 C 272.213 443.418,272.240 446.248,273.864 447.117 C 276.467 448.510,276.916 448.300,283.053 442.818 C 314.136 415.051,361.929 402.469,444.587 400.293 C 468.470 399.664,471.017 399.452,475.517 397.717 C 481.980 395.225,489.155 388.616,492.644 381.942 L 495.360 376.747 495.360 224.000 L 495.360 71.253 492.964 66.374 C 489.661 59.647,484.085 54.184,477.264 50.993 C 471.898 48.481,470.972 48.327,460.433 48.183 C 454.299 48.099,446.016 48.156,442.027 48.309 " stroke="none" fill="black" fill-rule="evenodd"></path></svg>