<svg xmlns="http://www.w3.org/2000/svg" width="512" height="512" viewBox="0 0 512 512"><path d="M166.827 0.591 C 161.337 1.353,150.326 5.263,144.470 8.530 C 129.797 16.715,117.935 32.345,113.864 48.860 C 113.142 51.790,112.325 59.991,112.050 67.085 L 111.549 79.983 105.366 80.506 C 97.936 81.134,86.345 84.884,79.591 88.845 C 76.882 90.433,71.199 95.189,66.961 99.413 C 58.247 108.099,53.371 116.298,50.106 127.755 L 48.213 134.400 47.985 315.585 C 47.828 439.520,48.037 497.816,48.647 500.079 C 49.820 504.435,53.297 508.457,57.565 510.396 C 61.954 512.390,66.078 512.384,70.400 510.379 C 72.277 509.508,105.810 481.835,144.917 448.883 C 209.078 394.820,216.160 389.090,217.450 390.201 C 218.237 390.878,250.648 418.158,289.476 450.824 C 341.431 494.532,360.956 510.479,363.418 511.217 C 368.911 512.863,374.165 511.595,378.530 507.571 C 380.766 505.511,382.613 502.881,383.128 501.024 C 383.662 499.104,383.992 479.614,383.995 449.920 C 383.998 423.520,384.193 401.920,384.428 401.920 C 384.664 401.920,397.264 411.842,412.429 423.968 C 427.595 436.094,441.283 446.462,442.849 447.008 C 451.334 449.966,461.001 444.815,463.352 436.082 C 463.962 433.818,464.164 373.032,463.992 243.481 C 463.760 67.980,463.636 53.799,462.282 48.860 C 456.150 26.478,440.366 10.038,417.707 2.432 L 411.733 0.427 290.560 0.331 C 223.915 0.279,168.235 0.396,166.827 0.591 M414.508 35.747 C 420.989 39.261,426.056 44.579,429.090 51.051 L 431.360 55.893 431.582 227.216 L 431.803 398.538 407.947 379.536 L 384.091 360.533 384.039 250.027 C 384.005 177.947,383.679 137.621,383.101 134.058 C 379.184 109.919,362.570 90.837,338.347 82.657 L 332.373 80.640 238.214 80.405 L 144.054 80.170 144.352 68.032 C 144.622 57.059,144.866 55.433,146.894 51.098 C 150.734 42.889,157.541 36.744,166.267 33.610 C 168.796 32.702,192.092 32.524,289.280 32.671 L 409.173 32.853 414.508 35.747 M326.145 112.746 C 336.107 114.860,344.251 121.211,348.751 130.374 L 351.147 135.253 351.367 298.080 C 351.579 455.278,351.533 460.867,350.037 459.786 C 349.184 459.170,320.933 435.435,287.256 407.040 C 253.580 378.645,224.808 354.741,223.320 353.920 C 219.504 351.814,212.011 351.939,208.354 354.168 C 206.789 355.123,177.797 379.238,143.927 407.757 C 110.058 436.277,81.864 459.903,81.273 460.260 C 80.413 460.780,80.244 428.777,80.420 298.508 L 80.640 136.107 83.093 130.797 C 85.661 125.237,92.101 118.305,97.099 115.720 C 104.603 111.840,102.697 111.902,215.211 111.843 C 290.947 111.803,322.926 112.063,326.145 112.746 " stroke="none" fill="black" fill-rule="evenodd"></path></svg>