<svg xmlns="http://www.w3.org/2000/svg" width="512" height="512" viewBox="0 0 512 512"><path d="M40.321 49.053 C 37.857 49.745,34.401 51.052,32.641 51.958 C 27.958 54.366,21.624 61.114,18.963 66.527 L 16.640 71.253 16.640 223.147 L 16.640 375.040 18.620 379.944 C 21.033 385.918,27.416 393.103,32.990 396.121 C 39.037 399.394,44.849 400.094,69.973 400.574 C 127.756 401.677,170.445 409.460,200.960 424.456 C 216.085 431.888,225.257 438.654,237.150 451.151 C 247.216 461.728,250.802 464.213,256.000 464.213 C 261.079 464.213,264.611 461.720,276.316 449.875 C 288.972 437.066,296.073 431.751,309.391 425.118 C 341.251 409.250,381.013 402.016,445.867 400.288 C 468.514 399.685,471.029 399.468,475.517 397.728 C 481.982 395.221,489.161 388.604,492.644 381.942 L 495.360 376.747 495.584 225.707 C 495.834 56.976,496.288 69.952,489.840 61.371 C 485.814 56.012,481.392 52.571,475.444 50.166 C 470.870 48.317,469.640 48.223,452.267 48.399 C 380.266 49.129,326.126 61.484,290.101 85.408 C 281.090 91.392,263.098 108.717,258.942 115.412 C 257.559 117.640,256.235 119.464,256.000 119.464 C 255.765 119.464,254.438 117.640,253.050 115.412 C 248.668 108.376,230.873 91.307,221.440 85.092 C 185.848 61.639,136.658 50.284,61.867 48.257 C 48.324 47.890,43.875 48.055,40.321 49.053 M83.627 81.101 C 140.197 84.637,179.377 94.848,205.443 112.849 C 213.395 118.341,225.573 131.155,230.071 138.763 C 232.001 142.029,234.977 148.191,236.684 152.457 L 239.787 160.212 239.787 284.906 C 239.787 353.488,239.608 409.600,239.389 409.600 C 239.171 409.600,235.811 407.533,231.923 405.008 C 203.836 386.762,165.576 375.672,113.920 370.802 C 100.775 369.562,65.469 367.802,53.547 367.792 L 47.787 367.787 47.787 224.000 L 47.787 80.213 58.667 80.217 C 64.651 80.219,75.883 80.617,83.627 81.101 M464.213 224.000 L 464.213 367.787 458.027 367.801 C 447.814 367.825,413.306 369.414,402.347 370.365 C 348.404 375.046,306.788 386.957,278.804 405.725 C 275.626 407.856,272.843 409.600,272.620 409.600 C 272.396 409.600,272.213 353.488,272.213 284.906 L 272.213 160.212 275.316 152.457 C 279.680 141.549,284.427 133.954,291.840 126.019 C 307.341 109.425,329.612 97.883,360.533 90.418 C 385.917 84.289,418.645 80.633,450.773 80.337 L 464.213 80.213 464.213 224.000 " stroke="none" fill="black" fill-rule="evenodd"></path></svg>