<svg xmlns="http://www.w3.org/2000/svg" width="512" height="512" viewBox="0 0 512 512"><path d="M169.387 48.369 C 159.806 49.693,149.487 55.081,142.080 62.626 C 131.572 73.329,128.000 83.108,128.000 101.173 L 128.000 111.619 98.773 112.003 C 71.741 112.358,69.068 112.529,63.170 114.276 C 42.087 120.521,26.102 135.827,18.981 156.587 L 16.640 163.413 16.640 288.000 L 16.640 412.587 18.981 419.413 C 26.126 440.245,42.458 455.780,63.573 461.831 L 70.400 463.787 256.000 463.787 L 441.600 463.787 448.378 461.824 C 469.938 455.581,485.872 440.378,493.127 419.129 L 495.360 412.587 495.360 288.000 L 495.360 163.413 493.127 156.871 C 485.936 135.810,470.092 120.574,448.830 114.276 C 442.932 112.529,440.259 112.358,413.227 112.003 L 384.000 111.619 384.000 101.173 C 384.000 88.920,382.121 80.150,377.890 72.659 C 374.152 66.041,364.276 56.468,358.107 53.483 C 346.570 47.899,353.735 48.284,258.560 48.143 C 210.923 48.073,170.795 48.175,169.387 48.369 M341.918 81.121 C 344.861 82.233,348.753 85.824,350.370 88.918 C 351.212 90.530,351.573 94.311,351.573 101.504 L 351.573 111.787 256.000 111.787 L 160.427 111.787 160.427 101.504 C 160.427 94.311,160.788 90.530,161.630 88.918 C 163.178 85.955,167.087 82.253,169.813 81.170 C 172.870 79.955,338.706 79.908,341.918 81.121 M442.559 145.885 C 451.142 148.902,458.246 155.862,461.927 164.861 C 463.693 169.179,463.778 170.642,463.782 196.693 L 463.787 224.000 256.000 224.000 L 48.213 224.000 47.987 198.899 C 47.742 171.711,48.267 167.106,52.426 160.021 C 56.441 153.179,63.763 147.476,71.680 145.021 C 72.853 144.658,155.711 144.327,255.808 144.287 C 434.445 144.215,437.890 144.244,442.559 145.885 M176.000 262.669 C 176.815 274.557,182.210 282.743,191.623 286.374 C 195.627 287.918,198.875 288.000,256.000 288.000 C 313.125 288.000,316.373 287.918,320.377 286.374 C 329.790 282.743,335.185 274.557,336.000 262.669 L 336.457 256.000 400.358 256.000 L 464.258 256.000 464.022 331.307 L 463.787 406.613 461.794 411.550 C 459.177 418.034,452.162 425.581,445.720 428.842 L 440.747 431.360 256.000 431.360 L 71.253 431.360 66.133 428.673 C 57.195 423.982,51.586 417.004,49.111 407.501 C 47.964 403.095,47.787 392.617,47.787 329.207 L 47.787 256.000 111.665 256.000 L 175.543 256.000 176.000 262.669 " stroke="none" fill="black" fill-rule="evenodd"></path></svg>