<svg xmlns="http://www.w3.org/2000/svg" width="512" height="512" viewBox="0 0 512 512"><path d="M43.093 48.829 C 38.893 50.318,35.915 52.837,33.901 56.605 L 32.000 60.160 32.000 256.000 L 32.000 451.840 33.901 455.395 C 35.973 459.271,38.932 461.702,43.434 463.229 C 47.605 464.644,464.395 464.644,468.566 463.229 C 473.068 461.702,476.027 459.271,478.099 455.395 L 480.000 451.840 480.000 256.000 L 480.000 60.160 478.099 56.605 C 476.027 52.729,473.068 50.298,468.566 48.771 C 464.599 47.425,46.892 47.482,43.093 48.829 M442.898 149.333 C 443.996 151.069,443.996 424.931,442.898 426.667 C 442.183 427.798,420.484 427.947,256.000 427.947 C 91.516 427.947,69.817 427.798,69.102 426.667 C 68.142 425.149,67.962 151.108,68.920 149.675 C 69.265 149.158,70.123 148.515,70.827 148.246 C 71.531 147.976,155.353 147.822,257.098 147.904 C 420.497 148.036,442.183 148.203,442.898 149.333 " stroke="none" fill="black" fill-rule="evenodd"></path></svg>