<svg xmlns="http://www.w3.org/2000/svg" width="512" height="512" viewBox="0 0 512 512"><path d="M416.427 32.393 C 406.402 33.803,397.663 37.416,389.471 43.537 C 383.905 47.695,171.584 284.028,169.622 288.249 C 167.596 292.607,167.742 297.582,170.027 302.106 C 172.300 306.605,175.849 309.165,182.464 311.074 C 190.073 313.270,197.030 317.387,203.516 323.534 C 210.719 330.360,215.233 337.683,217.209 345.748 C 218.329 350.316,219.410 352.505,221.765 354.975 C 227.321 360.800,236.790 361.658,242.513 356.855 C 244.822 354.917,439.007 153.978,462.122 129.609 C 474.599 116.454,479.738 104.595,479.830 88.747 C 479.890 78.495,478.668 73.271,473.858 63.222 C 465.299 45.339,447.846 33.756,427.093 32.185 C 423.808 31.936,419.008 32.030,416.427 32.393 M125.867 321.207 C 109.978 324.322,97.870 331.133,86.412 343.402 C 75.787 354.779,69.767 369.017,68.246 386.366 C 67.729 392.262,66.765 397.593,65.835 399.696 C 62.906 406.316,56.987 409.956,45.765 412.037 C 42.940 412.561,39.551 413.885,37.992 415.075 C 32.391 419.347,30.524 427.956,33.719 434.773 C 35.885 439.394,52.739 456.036,60.346 461.066 C 95.421 484.256,136.625 486.146,167.043 465.961 C 181.741 456.206,191.597 444.979,198.913 429.653 C 207.925 410.779,210.100 390.859,205.210 371.989 C 199.149 348.600,179.011 328.568,155.417 322.458 C 146.913 320.256,133.595 319.692,125.867 321.207 " stroke="none" fill="black" fill-rule="evenodd"></path></svg>