<svg xmlns="http://www.w3.org/2000/svg" width="512" height="512" viewBox="0 0 512 512"><path d="M294.202 161.770 C 227.431 232.908,172.704 291.374,172.586 291.693 C 172.468 292.012,186.699 306.597,204.212 324.105 L 236.052 355.937 357.599 226.456 C 424.450 155.241,479.290 96.613,479.466 96.170 C 479.792 95.349,417.374 32.427,416.233 32.427 C 415.887 32.427,360.973 90.631,294.202 161.770 M131.211 320.881 C 110.417 324.383,91.639 339.251,82.341 359.576 C 78.623 367.703,76.911 375.050,76.023 386.690 C 75.160 398.011,73.497 402.997,68.031 410.657 C 60.358 421.410,48.775 429.854,36.767 433.448 L 32.147 434.831 37.428 440.968 C 53.881 460.084,77.615 473.646,102.809 478.326 C 113.303 480.276,132.503 479.703,141.895 477.160 C 177.442 467.536,203.419 436.008,207.440 397.611 C 209.127 381.496,206.218 366.963,198.566 353.280 C 194.290 345.633,182.801 333.749,175.587 329.511 C 161.986 321.519,145.948 318.400,131.211 320.881 " stroke="none" fill="black" fill-rule="evenodd"></path></svg>