<svg xmlns="http://www.w3.org/2000/svg" width="512" height="512" viewBox="0 0 512 512"><path d="M236.373 17.144 C 174.676 25.085,123.131 67.435,104.180 125.755 C 98.497 143.245,97.129 151.633,96.650 171.947 C 96.320 185.957,96.538 192.008,97.650 199.680 C 102.023 229.842,111.900 254.516,128.738 277.333 C 131.336 280.853,142.724 292.949,154.045 304.213 C 175.162 325.224,183.146 334.709,187.636 344.116 C 191.400 352.003,191.954 355.551,191.998 372.053 C 192.042 388.760,192.807 391.895,197.878 396.163 C 201.883 399.532,205.552 400.203,219.989 400.209 C 233.784 400.214,237.038 399.489,238.908 395.994 C 239.488 394.910,239.777 373.521,239.760 333.069 C 239.737 283.100,239.521 271.508,238.585 270.275 C 237.954 269.443,232.878 266.493,227.306 263.719 C 206.720 253.470,200.901 247.724,201.610 238.345 C 202.582 225.504,215.640 219.714,227.204 226.995 C 240.644 235.456,250.392 239.787,256.000 239.787 C 260.104 239.787,268.364 236.676,275.914 232.286 C 288.533 224.950,290.284 224.250,294.748 224.756 C 303.295 225.726,308.907 232.109,308.907 240.862 C 308.907 249.439,302.740 255.062,282.549 264.895 C 278.143 267.040,274.027 269.469,273.403 270.291 C 272.483 271.503,272.262 283.423,272.240 333.069 C 272.223 373.521,272.512 394.910,273.092 395.994 C 274.962 399.489,278.216 400.214,292.011 400.209 C 306.375 400.203,310.122 399.528,314.031 396.239 C 319.159 391.924,319.515 390.401,319.992 370.773 L 320.427 352.853 323.921 345.600 C 329.345 334.339,336.657 325.480,358.431 303.787 C 369.501 292.757,380.941 280.534,383.853 276.623 C 400.866 253.772,410.971 228.000,414.680 197.996 C 415.982 187.455,415.782 162.305,414.318 152.591 C 409.055 117.675,393.829 87.390,369.113 62.674 C 344.089 37.649,312.542 22.071,277.622 17.493 C 267.227 16.130,245.664 15.948,236.373 17.144 M200.962 417.771 C 197.114 419.777,195.335 421.619,193.605 425.387 C 191.836 429.239,191.564 433.931,192.904 437.491 C 194.255 441.079,199.641 446.202,203.063 447.152 C 207.184 448.297,304.896 448.275,309.024 447.128 C 313.687 445.833,318.865 439.798,319.617 434.779 C 320.698 427.574,317.272 420.721,311.134 417.809 C 308.548 416.581,302.361 416.427,255.871 416.432 C 210.065 416.437,203.200 416.604,200.962 417.771 M217.173 465.634 C 211.362 468.705,208.213 473.756,208.213 480.008 C 208.213 486.238,211.340 491.320,216.926 494.171 C 219.884 495.681,222.448 495.787,256.000 495.787 C 289.552 495.787,292.116 495.681,295.074 494.171 C 300.663 491.318,303.787 486.238,303.787 480.000 C 303.787 473.762,300.663 468.682,295.074 465.829 C 292.112 464.317,289.587 464.216,255.821 464.247 C 224.572 464.277,219.390 464.463,217.173 465.634 " stroke="none" fill="black" fill-rule="evenodd"></path></svg>