<svg xmlns="http://www.w3.org/2000/svg" width="512" height="512" viewBox="0 0 512 512"><path d="M98.560 34.019 C 90.858 36.233,84.716 39.917,78.353 46.139 C 71.524 52.818,66.398 62.474,64.901 71.480 C 64.214 75.616,64.014 123.862,64.187 243.627 L 64.427 410.027 66.351 415.078 C 68.964 421.941,72.129 427.161,76.527 431.863 L 80.213 435.804 80.213 447.296 C 80.213 460.831,81.261 464.814,86.335 470.579 C 93.809 479.071,100.902 480.862,124.624 480.247 C 138.388 479.891,139.976 479.685,144.324 477.694 C 153.653 473.424,158.936 465.507,160.012 454.187 L 160.600 448.000 256.000 448.000 L 351.400 448.000 351.988 454.187 C 353.064 465.507,358.347 473.424,367.676 477.694 C 372.024 479.685,373.612 479.891,387.376 480.247 C 411.098 480.862,418.191 479.071,425.665 470.579 C 430.739 464.814,431.787 460.831,431.787 447.296 L 431.787 435.804 435.473 431.863 C 439.871 427.161,443.036 421.941,445.649 415.078 L 447.573 410.027 447.813 243.627 C 447.986 123.862,447.786 75.616,447.099 71.480 C 444.207 54.081,429.664 38.191,412.551 33.733 C 408.133 32.583,389.409 32.434,255.607 32.487 C 114.441 32.544,103.317 32.652,98.560 34.019 M406.794 65.794 C 412.061 68.344,414.928 72.446,415.397 78.102 C 415.895 84.108,415.257 86.369,412.021 90.055 C 406.302 96.569,421.058 96.000,257.707 96.000 C 177.216 96.000,109.897 95.690,108.109 95.312 C 104.327 94.511,98.797 89.848,97.277 86.179 C 96.665 84.702,96.374 81.512,96.586 78.592 C 97.029 72.467,100.008 68.030,105.288 65.633 C 108.674 64.095,114.076 64.037,255.944 64.019 L 403.088 64.000 406.794 65.794 M238.763 129.024 C 239.544 129.805,239.787 148.495,239.787 207.938 L 239.787 285.827 237.756 287.158 C 235.953 288.339,228.541 288.461,171.836 288.244 C 113.612 288.022,107.712 287.871,105.300 286.550 C 102.032 284.760,97.464 279.660,96.839 277.104 C 96.583 276.057,96.481 244.258,96.613 206.440 L 96.853 137.680 99.314 134.454 C 100.668 132.679,103.356 130.510,105.288 129.633 C 108.618 128.120,112.148 128.037,173.269 128.019 C 222.296 128.004,237.984 128.245,238.763 129.024 M406.712 129.633 C 408.644 130.510,411.332 132.679,412.686 134.454 L 415.147 137.680 415.387 206.440 C 415.519 244.258,415.417 276.057,415.161 277.104 C 414.536 279.660,409.968 284.760,406.700 286.550 C 404.288 287.871,398.388 288.022,340.164 288.244 C 283.459 288.461,276.047 288.339,274.244 287.158 L 272.213 285.827 272.213 207.938 C 272.213 148.495,272.456 129.805,273.237 129.024 C 274.016 128.245,289.704 128.004,338.731 128.019 C 399.852 128.037,403.382 128.120,406.712 129.633 M157.163 338.956 C 180.536 349.693,182.253 382.524,160.121 395.494 C 150.654 401.042,139.804 401.308,129.675 396.241 C 110.972 386.884,106.239 362.673,120.100 347.257 C 127.584 338.933,134.222 336.063,145.067 336.463 C 150.681 336.671,153.414 337.234,157.163 338.956 M377.661 337.633 C 383.564 339.627,387.325 342.169,391.900 347.257 C 403.107 359.722,402.473 378.393,390.433 390.433 C 374.790 406.075,349.275 401.684,339.097 381.597 C 336.877 377.214,336.640 375.924,336.640 368.213 C 336.640 360.804,336.932 359.056,338.860 354.948 C 345.781 340.191,362.776 332.607,377.661 337.633 " stroke="none" fill="black" fill-rule="evenodd"></path></svg>