<svg xmlns="http://www.w3.org/2000/svg" width="512" height="512" viewBox="0 0 512 512"><path d="M31.573 256.000 L 31.573 495.787 96.000 495.787 L 160.427 495.787 160.427 448.000 L 160.427 400.213 176.213 400.213 L 192.000 400.213 192.000 448.000 L 192.000 495.787 336.216 495.787 L 480.431 495.787 480.216 336.000 L 480.000 176.213 400.000 175.996 L 320.000 175.778 320.000 95.996 L 320.000 16.213 175.787 16.213 L 31.573 16.213 31.573 256.000 M111.787 96.000 L 111.787 111.787 96.000 111.787 L 80.213 111.787 80.213 96.000 L 80.213 80.213 96.000 80.213 L 111.787 80.213 111.787 96.000 M192.000 96.000 L 192.000 111.787 176.213 111.787 L 160.427 111.787 160.427 96.000 L 160.427 80.213 176.213 80.213 L 192.000 80.213 192.000 96.000 M272.213 96.000 L 272.213 111.787 256.000 111.787 L 239.787 111.787 239.787 96.000 L 239.787 80.213 256.000 80.213 L 272.213 80.213 272.213 96.000 M111.787 176.213 L 111.787 192.000 96.000 192.000 L 80.213 192.000 80.213 176.213 L 80.213 160.427 96.000 160.427 L 111.787 160.427 111.787 176.213 M192.000 176.213 L 192.000 192.000 176.213 192.000 L 160.427 192.000 160.427 176.213 L 160.427 160.427 176.213 160.427 L 192.000 160.427 192.000 176.213 M272.213 176.213 L 272.213 192.000 256.000 192.000 L 239.787 192.000 239.787 176.213 L 239.787 160.427 256.000 160.427 L 272.213 160.427 272.213 176.213 M448.000 336.213 L 448.000 464.213 384.000 464.213 L 320.000 464.213 320.000 448.000 L 320.000 431.787 336.213 431.787 L 352.427 431.787 352.427 416.000 L 352.427 400.213 336.213 400.213 L 320.000 400.213 320.000 376.339 L 320.000 352.464 336.000 352.232 L 352.000 352.000 352.232 336.000 L 352.464 320.000 336.232 320.000 L 320.000 320.000 320.000 296.125 L 320.000 272.251 336.000 272.019 L 352.000 271.787 352.000 256.000 L 352.000 240.213 336.000 239.981 L 320.000 239.749 320.000 223.981 L 320.000 208.213 384.000 208.213 L 448.000 208.213 448.000 336.213 M111.787 256.000 L 111.787 272.213 96.000 272.213 L 80.213 272.213 80.213 256.000 L 80.213 239.787 96.000 239.787 L 111.787 239.787 111.787 256.000 M192.000 256.000 L 192.000 272.213 176.213 272.213 L 160.427 272.213 160.427 256.000 L 160.427 239.787 176.213 239.787 L 192.000 239.787 192.000 256.000 M272.213 256.000 L 272.213 272.213 256.000 272.213 L 239.787 272.213 239.787 256.000 L 239.787 239.787 256.000 239.787 L 272.213 239.787 272.213 256.000 M384.000 256.000 L 384.000 272.251 400.000 272.019 L 416.000 271.787 416.000 256.000 L 416.000 240.213 400.000 239.981 L 384.000 239.749 384.000 256.000 M111.787 335.787 L 111.787 351.573 96.000 351.573 L 80.213 351.573 80.213 335.787 L 80.213 320.000 96.000 320.000 L 111.787 320.000 111.787 335.787 M192.000 335.787 L 192.000 351.573 176.213 351.573 L 160.427 351.573 160.427 335.787 L 160.427 320.000 176.213 320.000 L 192.000 320.000 192.000 335.787 M272.213 335.787 L 272.213 351.573 256.000 351.573 L 239.787 351.573 239.787 335.787 L 239.787 320.000 256.000 320.000 L 272.213 320.000 272.213 335.787 M384.000 336.232 L 384.000 352.464 400.000 352.232 L 416.000 352.000 416.232 336.000 L 416.464 320.000 400.232 320.000 L 384.000 320.000 384.000 336.232 M111.787 416.000 L 111.787 431.787 96.000 431.787 L 80.213 431.787 80.213 416.000 L 80.213 400.213 96.000 400.213 L 111.787 400.213 111.787 416.000 M272.213 416.000 L 272.213 431.787 256.000 431.787 L 239.787 431.787 239.787 416.000 L 239.787 400.213 256.000 400.213 L 272.213 400.213 272.213 416.000 M384.000 416.000 L 384.000 431.787 400.213 431.787 L 416.427 431.787 416.427 416.000 L 416.427 400.213 400.213 400.213 L 384.000 400.213 384.000 416.000 " stroke="none" fill="black" fill-rule="evenodd"></path></svg>