<svg xmlns="http://www.w3.org/2000/svg" width="512" height="512" viewBox="0 0 512 512"><path d="M80.232 193.493 C 80.251 321.449,80.271 323.032,81.970 326.776 C 84.397 332.126,115.861 363.620,121.173 366.017 C 124.967 367.728,126.315 367.749,232.107 367.749 C 334.680 367.749,339.344 367.682,342.613 366.164 C 344.793 365.151,352.524 357.987,364.003 346.342 C 378.653 331.481,382.166 327.457,382.989 324.594 C 383.728 322.027,384.000 303.724,384.000 256.541 L 384.000 192.000 401.651 192.000 C 417.517 192.000,419.655 191.829,422.803 190.305 C 424.988 189.247,433.048 181.790,444.248 170.465 C 458.896 155.653,462.378 151.675,463.203 148.808 C 464.509 144.268,464.614 80.410,463.322 75.760 C 462.144 71.515,458.644 67.516,454.435 65.604 C 451.124 64.100,443.614 64.037,265.600 64.019 L 80.213 64.000 80.232 193.493 M431.787 117.161 L 431.787 137.895 420.409 149.161 L 409.032 160.427 396.516 160.427 L 384.000 160.427 384.000 128.427 L 384.000 96.427 407.893 96.427 L 431.787 96.427 431.787 117.161 M47.787 416.000 L 47.787 431.787 232.107 431.787 L 416.427 431.787 416.427 416.000 L 416.427 400.213 232.107 400.213 L 47.787 400.213 47.787 416.000 " stroke="none" fill="black" fill-rule="evenodd"></path></svg>