<svg xmlns="http://www.w3.org/2000/svg" width="512" height="512" viewBox="0 0 512 512"><path d="M104.417 36.156 C 71.391 50.265,49.163 68.215,38.761 89.173 C 33.987 98.791,32.459 106.016,32.445 119.040 C 32.414 146.911,42.736 176.594,67.691 220.395 C 97.939 273.487,119.747 301.593,166.523 347.772 C 210.623 391.309,239.488 413.273,294.362 445.043 C 321.701 460.872,345.787 471.436,367.360 477.057 C 377.363 479.664,396.835 480.301,405.854 478.316 C 433.573 472.217,455.895 450.132,473.930 410.963 C 478.551 400.927,479.111 399.107,479.418 393.124 C 479.730 387.024,479.533 386.003,477.094 381.047 C 473.786 374.328,461.885 361.516,450.560 352.483 C 435.506 340.475,409.425 323.815,387.413 312.145 C 355.955 295.467,346.624 295.804,321.707 314.518 C 316.309 318.572,309.879 322.835,307.416 323.992 C 302.981 326.076,302.892 326.082,298.029 324.672 C 279.346 319.253,246.681 296.297,226.627 274.492 C 205.526 251.548,187.076 222.143,186.202 210.064 C 185.859 205.312,185.943 205.097,190.788 198.398 C 208.586 173.790,211.584 167.316,210.509 155.807 C 208.993 139.576,188.767 101.514,163.535 67.413 C 160.236 62.955,152.715 54.485,146.822 48.591 C 133.590 35.358,128.545 32.417,119.117 32.443 C 113.903 32.458,111.871 32.971,104.417 36.156 M141.368 91.379 C 160.049 117.495,178.389 150.862,178.329 158.624 C 178.319 160.003,176.175 163.784,172.711 168.533 C 158.066 188.613,154.608 195.573,153.835 206.530 C 153.178 215.848,155.623 224.657,162.947 239.360 C 185.142 283.918,227.576 326.359,271.787 348.221 C 289.644 357.051,300.992 359.292,312.573 356.276 C 319.873 354.375,326.000 350.938,339.089 341.403 C 345.599 336.661,351.800 332.561,352.871 332.293 C 356.548 331.370,384.325 345.958,407.001 360.723 C 421.094 369.899,434.717 380.371,441.410 387.173 L 447.194 393.050 441.837 403.686 C 434.648 417.958,429.333 425.740,421.141 433.987 C 410.408 444.792,400.669 448.709,386.987 447.726 C 368.396 446.390,344.183 436.698,309.333 416.646 C 259.042 387.707,230.132 365.707,189.153 325.188 C 145.142 281.673,124.635 255.406,96.873 206.990 C 81.036 179.370,72.007 159.264,67.225 140.969 C 65.035 132.591,64.600 129.273,64.521 120.320 C 64.433 110.343,64.580 109.327,66.793 104.600 C 72.913 91.533,85.783 80.699,108.479 69.511 L 118.187 64.725 126.293 73.182 C 130.752 77.833,137.535 86.022,141.368 91.379 " stroke="none" fill="black" fill-rule="evenodd"></path></svg>