<svg xmlns="http://www.w3.org/2000/svg" width="512" height="512" viewBox="0 0 512 512"><path d="M128.427 35.736 C 96.791 47.807,68.998 63.708,41.048 85.725 C 31.057 93.596,31.208 93.142,34.499 105.426 C 48.881 159.107,89.497 236.323,129.186 285.440 C 153.646 315.710,197.712 359.443,229.055 384.556 C 277.448 423.329,354.009 463.418,406.548 477.494 C 418.862 480.793,418.402 480.945,426.275 470.952 C 446.911 444.755,463.184 416.801,474.455 388.182 C 480.412 373.054,480.556 371.879,476.920 368.077 C 472.532 363.489,454.809 349.414,441.964 340.315 C 412.640 319.545,358.641 287.517,353.091 287.603 C 351.846 287.623,344.132 293.469,331.635 303.863 C 309.133 322.581,312.203 321.562,298.240 314.948 C 278.772 305.727,258.623 291.109,240.565 273.105 C 233.718 266.278,225.305 257.045,221.868 252.587 C 207.588 234.061,192.789 208.481,192.605 202.008 C 192.532 199.409,194.036 197.239,205.228 183.796 C 212.217 175.401,219.395 166.752,221.181 164.575 C 222.966 162.398,224.427 159.742,224.427 158.672 C 224.427 153.622,193.214 100.798,173.528 72.533 C 165.426 60.900,154.424 46.773,147.243 38.782 C 142.799 33.836,141.026 32.433,139.247 32.453 C 137.989 32.468,133.120 33.945,128.427 35.736 " stroke="none" fill="black" fill-rule="evenodd"></path></svg>