<svg xmlns="http://www.w3.org/2000/svg" width="512" height="512" viewBox="0 0 512 512"><path d="M192.189 81.454 C 184.276 83.954,181.260 87.636,161.025 119.494 C 149.887 137.030,147.182 140.736,144.361 142.321 C 142.509 143.362,140.759 144.213,140.470 144.213 C 140.182 144.213,139.947 140.019,139.947 134.892 C 139.947 126.109,139.819 125.419,137.737 122.945 L 135.528 120.320 112.508 120.320 C 97.650 120.320,88.877 120.647,87.765 121.242 C 84.876 122.788,83.627 127.268,83.627 136.079 L 83.627 144.213 67.123 144.213 L 50.619 144.213 45.344 146.849 C 39.420 149.810,34.810 155.033,33.066 160.763 C 31.511 165.874,31.511 410.126,33.066 415.237 C 34.831 421.033,39.446 426.235,45.437 429.180 L 50.773 431.803 256.853 431.582 C 460.200 431.363,462.979 431.338,466.347 429.673 C 471.432 427.158,476.646 421.351,478.442 416.202 C 479.923 411.955,480.000 405.597,480.000 288.000 C 480.000 148.284,480.528 159.073,473.322 151.673 C 466.170 144.328,468.969 144.695,416.427 144.213 C 383.301 143.909,369.429 143.501,368.213 142.793 C 364.827 140.823,361.770 136.592,347.347 113.920 C 332.120 89.983,328.714 85.588,322.987 82.488 C 319.585 80.646,319.369 80.639,257.707 80.470 C 207.726 80.333,195.139 80.522,192.189 81.454 M276.410 178.292 C 311.912 186.067,339.785 213.225,348.364 248.400 L 350.218 256.000 372.442 256.024 L 394.667 256.048 365.431 285.098 L 336.195 314.149 306.799 285.288 L 277.403 256.427 297.818 256.000 L 318.233 255.573 315.472 248.747 C 307.239 228.386,290.141 213.941,268.959 209.452 C 261.356 207.841,249.643 207.898,242.088 209.583 C 235.373 211.081,223.165 216.407,218.781 219.751 C 217.255 220.915,215.581 221.867,215.059 221.867 C 214.538 221.867,209.077 216.944,202.925 210.927 L 191.739 199.988 198.460 195.080 C 211.421 185.614,228.930 178.549,244.053 176.683 C 252.740 175.611,267.524 176.346,276.410 178.292 M233.813 287.782 C 233.813 288.137,224.940 288.427,214.094 288.427 L 194.375 288.427 194.913 290.773 C 195.209 292.064,197.156 296.610,199.241 300.876 C 206.999 316.752,221.723 328.787,239.523 333.802 C 248.854 336.431,263.143 336.432,272.469 333.804 C 279.423 331.845,287.903 327.967,292.267 324.752 C 293.675 323.715,295.293 322.591,295.863 322.255 C 296.507 321.875,301.241 325.672,308.396 332.311 L 319.893 342.978 315.482 346.944 C 306.956 354.609,293.115 361.424,277.838 365.478 C 267.778 368.147,244.342 368.144,233.755 365.472 C 197.845 356.406,170.373 329.266,162.461 295.040 L 160.933 288.427 139.138 288.427 L 117.343 288.427 146.773 258.987 L 176.204 229.547 205.009 258.342 C 220.851 274.179,233.813 287.427,233.813 287.782 " stroke="none" fill="black" fill-rule="evenodd"></path></svg>