<svg xmlns="http://www.w3.org/2000/svg" width="512" height="512" viewBox="0 0 512 512"><path d="M224.427 96.959 C 178.957 100.851,150.943 106.689,131.840 116.251 C 114.674 124.845,100.600 140.816,88.213 165.760 L 83.234 175.787 72.977 175.791 C 60.582 175.797,56.898 176.715,52.795 180.818 C 46.121 187.492,46.543 198.170,53.719 204.208 L 56.300 206.379 49.148 210.278 C 33.685 218.707,28.082 224.604,24.392 236.333 C 16.277 262.129,13.790 319.958,19.294 354.856 C 21.116 366.400,23.638 378.373,25.787 385.670 C 27.888 392.805,32.040 397.916,36.725 399.129 C 38.970 399.711,39.618 400.516,40.909 404.328 C 42.711 409.651,46.034 413.408,50.274 414.914 C 53.770 416.155,110.682 416.506,116.273 415.320 C 120.844 414.351,125.944 409.225,127.270 404.267 L 128.332 400.295 133.073 399.786 C 135.680 399.506,142.805 398.158,148.907 396.790 C 176.769 390.544,201.841 388.682,257.280 388.742 C 311.264 388.801,335.876 390.590,362.667 396.402 C 369.941 397.980,377.641 399.495,379.777 399.769 C 383.561 400.254,383.688 400.369,384.727 404.253 C 386.056 409.225,391.150 414.350,395.727 415.320 C 401.318 416.506,458.230 416.155,461.726 414.914 C 465.966 413.408,469.289 409.651,471.091 404.328 C 472.382 400.516,473.030 399.711,475.275 399.129 C 476.737 398.751,479.370 397.003,481.128 395.246 C 484.788 391.586,486.668 386.044,490.155 368.640 C 494.775 345.583,495.361 339.174,495.345 311.893 C 495.330 285.594,494.513 273.599,491.393 253.867 C 487.292 227.930,482.878 221.194,462.816 210.258 L 455.700 206.379 458.281 204.208 C 465.457 198.170,465.879 187.492,459.205 180.818 C 455.104 176.717,451.421 175.798,439.040 175.788 L 428.800 175.779 423.432 165.157 C 410.703 139.968,397.319 124.841,380.160 116.251 C 364.426 108.375,338.328 102.164,305.493 98.481 C 293.787 97.168,234.903 96.062,224.427 96.959 M282.453 128.872 C 317.772 131.038,348.114 136.742,364.170 144.236 C 372.775 148.251,379.740 154.604,386.130 164.267 C 390.643 171.091,399.755 188.477,399.140 189.091 C 398.961 189.270,393.081 188.859,386.074 188.177 C 350.435 184.709,314.270 183.374,256.000 183.375 C 196.991 183.376,152.279 185.116,120.840 188.635 C 116.667 189.102,113.091 189.322,112.894 189.125 C 112.252 188.483,121.234 171.277,125.870 164.267 C 132.277 154.579,139.227 148.246,147.830 144.255 C 165.458 136.079,193.516 130.983,234.240 128.561 C 244.918 127.926,269.638 128.086,282.453 128.872 M313.600 215.905 C 355.613 217.386,384.971 219.606,410.376 223.224 L 425.231 225.339 433.416 230.270 C 437.917 232.983,444.964 237.072,449.076 239.359 C 457.232 243.894,457.077 243.663,459.100 254.326 C 462.227 270.818,464.689 306.894,463.814 323.413 C 463.177 335.430,462.483 341.279,459.837 356.907 L 457.995 367.787 419.188 367.787 L 380.380 367.787 369.426 365.211 C 349.590 360.546,326.888 358.303,282.168 356.587 C 261.903 355.810,249.941 355.811,230.115 356.589 C 185.387 358.346,162.954 360.593,143.508 365.261 L 132.989 367.787 93.497 367.787 L 54.005 367.787 52.163 356.907 C 47.961 332.085,47.187 318.687,48.577 294.827 C 49.918 271.819,53.142 247.815,55.377 244.199 C 55.684 243.701,60.918 240.456,67.008 236.988 C 73.098 233.520,80.000 229.478,82.347 228.007 C 86.154 225.619,88.219 225.104,101.547 223.221 C 126.308 219.723,157.827 217.276,194.987 215.968 C 222.996 214.981,286.462 214.948,313.600 215.905 M81.583 241.099 C 79.304 243.378,79.878 258.500,82.407 262.830 C 84.453 266.334,88.482 269.238,93.356 270.722 C 99.488 272.589,144.491 271.286,156.242 268.902 C 158.822 268.379,159.175 267.973,159.404 265.272 C 159.648 262.387,159.386 262.052,154.284 258.731 C 138.530 248.476,115.127 241.374,92.903 240.105 C 84.149 239.605,82.974 239.708,81.583 241.099 M414.293 240.339 C 392.239 242.896,371.871 249.517,357.716 258.731 C 352.614 262.052,352.352 262.387,352.596 265.272 C 352.825 267.973,353.178 268.379,355.758 268.902 C 367.509 271.286,412.512 272.589,418.644 270.722 C 423.518 269.238,427.547 266.334,429.593 262.830 C 432.032 258.654,432.699 243.381,430.537 241.219 C 429.144 239.826,422.041 239.441,414.293 240.339 M229.547 289.019 C 182.750 294.023,161.097 299.097,149.546 307.766 C 140.346 314.670,143.179 324.716,156.197 331.359 C 162.128 334.386,163.313 334.666,173.232 335.387 C 187.028 336.389,325.929 336.409,338.773 335.410 C 350.193 334.523,356.443 332.506,361.690 328.014 C 369.397 321.417,369.843 314.338,362.956 307.934 C 355.106 300.635,329.178 294.079,290.987 289.738 C 280.388 288.533,238.656 288.045,229.547 289.019 " stroke="none" fill="black" fill-rule="evenodd"></path></svg>