<svg xmlns="http://www.w3.org/2000/svg" width="512" height="512" viewBox="0 0 512 512"><path d="M250.550 151.096 C 248.726 151.546,245.695 152.774,243.814 153.824 C 239.447 156.262,97.151 321.869,94.431 327.680 C 91.962 332.954,91.957 341.987,94.421 347.383 C 96.697 352.366,101.578 357.257,106.590 359.575 L 110.507 361.387 256.000 361.387 L 401.493 361.387 405.461 359.553 C 417.577 353.952,422.953 339.635,417.465 327.583 C 416.431 325.312,387.364 290.719,343.575 239.643 C 277.512 162.588,271.008 155.263,266.895 153.277 C 261.709 150.774,255.312 149.920,250.550 151.096 " stroke="none" fill="black" fill-rule="evenodd"></path></svg>