<svg xmlns="http://www.w3.org/2000/svg" width="512" height="512" viewBox="0 0 512 512"><path d="M238.790 48.708 C 199.901 51.925,162.269 66.422,129.782 90.701 C 119.266 98.560,98.560 119.266,90.701 129.782 C 69.069 158.727,55.338 191.226,50.352 225.280 C 42.149 281.314,56.217 336.040,90.695 382.218 C 98.476 392.640,119.191 413.346,129.707 421.213 C 160.300 444.101,192.921 457.398,231.253 462.606 C 242.659 464.156,272.000 463.930,283.567 462.204 C 353.989 451.696,412.003 409.894,442.434 347.733 C 457.257 317.454,463.599 289.966,463.599 256.000 C 463.599 222.419,457.247 194.557,442.880 165.120 C 431.962 142.752,420.990 127.453,402.774 109.202 C 384.698 91.090,369.338 80.067,346.880 69.089 C 313.251 52.649,276.017 45.629,238.790 48.708 M235.093 167.764 C 236.501 168.436,258.197 186.093,283.307 207.002 C 332.335 247.828,332.800 248.289,332.800 256.000 C 332.800 263.711,332.335 264.172,283.307 304.998 C 258.197 325.907,236.309 343.664,234.667 344.458 C 227.579 347.886,218.448 344.957,214.316 337.929 L 212.053 334.080 212.053 256.000 L 212.053 177.920 214.154 174.251 C 218.508 166.648,227.150 163.971,235.093 167.764 " stroke="none" fill="black" fill-rule="evenodd"></path></svg>