<svg xmlns="http://www.w3.org/2000/svg" width="512" height="512" viewBox="0 0 512 512"><path d="M41.288 65.633 C 36.215 67.936,33.071 72.449,32.603 78.102 C 32.105 84.108,32.743 86.369,35.979 90.055 C 41.216 96.020,40.932 95.970,71.317 96.275 L 98.686 96.550 121.573 226.408 C 135.783 307.040,145.025 357.399,145.952 359.253 C 147.670 362.690,149.493 364.454,153.344 366.404 C 155.827 367.661,168.062 367.787,287.992 367.787 C 415.753 367.787,420.008 367.736,423.074 366.171 C 428.663 363.318,431.787 358.238,431.787 352.000 C 431.787 345.762,428.663 340.682,423.074 337.829 C 420.011 336.266,415.914 336.213,296.567 336.213 C 228.730 336.213,173.226 335.925,173.226 335.573 C 173.226 335.221,172.074 328.405,170.667 320.427 C 169.259 312.448,168.108 305.445,168.107 304.865 C 168.107 304.032,194.375 303.762,292.480 303.585 C 409.576 303.373,417.015 303.272,419.615 301.851 C 424.211 299.339,428.372 295.199,430.479 291.041 C 431.936 288.165,436.438 267.298,447.154 213.738 C 455.227 173.387,461.883 138.645,461.945 136.533 C 462.220 127.148,456.541 118.194,447.812 114.249 L 443.307 112.213 288.653 111.989 L 134.000 111.764 133.569 109.855 C 133.332 108.806,131.779 100.317,130.118 90.992 C 128.457 81.667,126.757 73.411,126.339 72.645 C 124.822 69.864,119.714 65.658,116.857 64.839 C 115.150 64.350,99.527 64.008,79.366 64.019 C 47.452 64.036,44.531 64.160,41.288 65.633 M428.373 144.443 C 428.373 144.844,403.683 268.283,403.201 270.293 L 402.741 272.213 282.505 272.213 L 162.269 272.213 161.779 269.867 C 160.692 264.669,139.947 146.289,139.947 145.290 C 139.947 144.428,168.670 144.213,284.160 144.213 C 363.477 144.213,428.373 144.317,428.373 144.443 M165.788 385.886 C 158.555 388.550,153.411 392.413,149.746 397.933 C 145.894 403.734,144.213 409.222,144.213 416.000 C 144.213 439.591,168.853 454.995,189.965 444.602 C 196.696 441.288,203.139 434.397,205.738 427.730 C 208.385 420.943,208.385 411.057,205.738 404.270 C 199.712 388.815,181.096 380.249,165.788 385.886 M391.620 385.167 C 382.525 387.619,373.660 395.559,370.247 404.308 C 368.849 407.892,368.349 410.971,368.349 416.000 C 368.349 424.879,370.672 430.991,376.447 437.310 C 396.128 458.844,431.787 445.113,431.787 416.000 C 431.787 395.049,411.818 379.721,391.620 385.167 " stroke="none" fill="black" fill-rule="evenodd"></path></svg>