<svg xmlns="http://www.w3.org/2000/svg" width="512" height="512" viewBox="0 0 512 512"><path d="M37.788 65.943 C 34.870 66.986,30.736 69.084,28.601 70.605 C 23.760 74.054,18.319 82.337,17.066 88.164 C 16.386 91.328,16.190 126.104,16.378 210.347 L 16.640 328.107 18.910 332.949 C 23.637 343.033,32.977 349.944,44.041 351.543 C 52.051 352.701,459.899 352.708,467.906 351.551 C 479.203 349.917,488.273 343.227,493.073 332.986 L 495.360 328.107 495.622 210.347 C 495.810 126.104,495.614 91.328,494.934 88.164 C 492.822 78.338,483.754 68.801,473.484 65.605 C 468.494 64.052,461.468 64.001,255.711 64.023 L 43.093 64.045 37.788 65.943 M93.433 98.347 C 92.109 102.983,86.093 114.366,82.355 119.309 C 78.397 124.541,70.171 131.775,63.916 135.525 C 60.814 137.385,50.160 141.653,48.621 141.653 C 48.099 141.653,47.787 133.194,47.787 119.040 L 47.787 96.427 70.884 96.427 L 93.982 96.427 93.433 98.347 M386.166 100.053 C 386.501 102.048,387.736 106.560,388.910 110.080 C 399.263 141.115,424.676 164.874,455.986 172.788 L 463.787 174.760 464.010 207.968 L 464.233 241.177 457.610 242.735 C 440.579 246.742,423.699 256.439,411.287 269.344 C 403.178 277.776,398.326 284.684,393.387 294.827 C 390.163 301.449,385.707 315.119,385.707 318.389 C 385.707 319.961,382.576 320.000,256.000 320.000 C 129.424 320.000,126.293 319.961,126.293 318.389 C 126.293 315.170,121.891 301.696,118.629 294.930 C 113.801 284.917,108.909 277.879,101.136 269.761 C 87.952 255.994,72.266 246.952,54.164 242.685 L 47.767 241.177 47.990 207.968 L 48.213 174.760 55.893 172.795 C 87.746 164.645,113.011 140.924,123.145 109.653 C 124.362 105.899,125.611 101.387,125.920 99.627 L 126.483 96.427 256.020 96.427 L 385.557 96.427 386.166 100.053 M464.213 119.040 C 464.213 133.194,463.901 141.653,463.379 141.653 C 461.840 141.653,451.186 137.385,448.084 135.525 C 441.829 131.775,433.603 124.541,429.645 119.309 C 425.907 114.366,419.891 102.983,418.567 98.347 L 418.018 96.427 441.116 96.427 L 464.213 96.427 464.213 119.040 M244.480 112.661 C 203.573 117.922,170.301 148.505,162.192 188.301 C 160.068 198.723,159.812 215.943,161.639 225.493 C 168.149 259.517,192.541 287.719,224.967 298.713 C 258.980 310.245,296.052 302.166,321.739 277.625 C 331.028 268.751,336.246 261.676,341.780 250.453 C 348.766 236.286,350.826 227.812,351.322 211.200 C 351.664 199.755,351.456 196.235,350.032 189.440 C 343.015 155.931,320.915 129.930,289.310 118.001 C 276.697 113.239,257.636 110.969,244.480 112.661 M271.010 145.934 C 294.197 151.843,311.673 168.976,317.998 192.000 C 320.355 200.577,320.137 216.945,317.556 225.280 C 313.955 236.909,309.367 244.518,300.834 253.013 C 287.727 266.062,274.193 271.692,256.000 271.664 C 244.120 271.645,238.211 270.237,226.987 264.749 C 220.136 261.399,217.685 259.589,211.166 253.059 C 202.636 244.517,198.032 236.868,194.444 225.280 C 192.819 220.032,192.461 216.960,192.458 208.213 C 192.453 195.829,193.736 190.044,198.799 179.627 C 211.629 153.224,242.712 138.722,271.010 145.934 M55.376 276.497 C 73.239 283.385,87.488 298.973,93.389 318.080 L 93.982 320.000 70.884 320.000 L 47.787 320.000 47.787 296.960 C 47.787 284.288,47.991 273.920,48.241 273.920 C 48.491 273.920,51.702 275.079,55.376 276.497 M464.213 296.960 L 464.213 320.000 441.116 320.000 L 418.018 320.000 418.611 318.080 C 424.544 298.869,438.134 284.041,456.733 276.486 C 460.143 275.101,463.221 273.957,463.573 273.944 C 463.925 273.931,464.213 284.288,464.213 296.960 M58.586 369.031 C 47.547 372.967,44.471 386.858,52.795 395.182 C 54.520 396.908,57.459 398.743,59.326 399.262 C 64.145 400.599,447.855 400.599,452.674 399.262 C 457.214 398.001,462.084 393.006,463.347 388.313 C 465.649 379.768,460.778 370.990,452.454 368.678 C 450.312 368.083,386.300 367.807,255.573 367.829 C 93.726 367.856,61.327 368.054,58.586 369.031 M88.807 417.921 C 87.198 418.742,84.702 420.889,83.261 422.693 C 80.920 425.622,80.640 426.585,80.640 431.715 C 80.640 438.879,83.255 443.428,88.960 446.190 L 92.699 448.000 256.000 448.000 L 419.301 448.000 423.040 446.190 C 428.745 443.428,431.360 438.879,431.360 431.715 C 431.360 426.585,431.080 425.622,428.739 422.693 C 427.298 420.889,424.802 418.742,423.193 417.921 C 420.437 416.516,410.704 416.429,256.000 416.429 C 101.296 416.429,91.563 416.516,88.807 417.921 " stroke="none" fill="black" fill-rule="evenodd"></path></svg>