<svg xmlns="http://www.w3.org/2000/svg" width="512" height="512" viewBox="0 0 512 512"><path d="M414.720 81.985 C 409.566 84.314,404.713 89.104,402.253 94.293 L 400.230 98.560 400.240 256.000 C 400.251 412.446,400.262 413.464,401.985 417.280 C 404.096 421.953,408.847 427.026,413.440 429.512 C 416.763 431.311,417.681 431.360,448.000 431.360 C 478.328 431.360,479.238 431.311,482.605 429.508 C 486.937 427.189,491.121 422.991,493.515 418.560 L 495.360 415.147 495.360 256.000 L 495.360 96.853 493.515 93.440 C 490.880 88.564,486.632 84.529,481.707 82.226 C 477.491 80.254,477.086 80.230,448.000 80.240 C 420.243 80.250,418.341 80.350,414.720 81.985 M287.424 161.621 C 282.216 163.482,277.642 167.755,274.824 173.394 L 272.213 178.619 272.232 296.030 C 272.251 412.222,272.269 413.480,273.985 417.280 C 276.096 421.953,280.847 427.026,285.440 429.512 C 288.763 431.311,289.681 431.360,320.000 431.360 C 350.328 431.360,351.238 431.311,354.605 429.508 C 358.937 427.189,363.121 422.991,365.515 418.560 L 367.360 415.147 367.585 296.960 L 367.811 178.773 365.209 173.488 C 362.399 167.779,357.847 163.504,352.576 161.621 C 350.218 160.779,342.136 160.502,320.000 160.502 C 297.864 160.502,289.782 160.779,287.424 161.621 M159.424 225.621 C 154.216 227.482,149.642 231.755,146.824 237.394 L 144.213 242.619 144.232 328.030 C 144.251 412.050,144.279 413.503,145.985 417.280 C 148.096 421.953,152.847 427.026,157.440 429.512 C 160.763 431.311,161.681 431.360,192.000 431.360 C 222.328 431.360,223.238 431.311,226.605 429.508 C 230.937 427.189,235.121 422.991,237.515 418.560 L 239.360 415.147 239.589 328.968 L 239.819 242.789 237.213 237.496 C 234.398 231.779,229.850 227.505,224.576 225.621 C 222.218 224.779,214.136 224.502,192.000 224.502 C 169.864 224.502,161.782 224.779,159.424 225.621 M31.424 289.621 C 26.216 291.482,21.642 295.755,18.824 301.394 L 16.213 306.619 16.232 360.030 C 16.250 411.877,16.302 413.552,17.985 417.280 C 20.096 421.953,24.847 427.026,29.440 429.512 C 32.763 431.311,33.681 431.360,64.000 431.360 C 94.328 431.360,95.238 431.311,98.605 429.508 C 102.937 427.189,107.121 422.991,109.515 418.560 C 111.343 415.178,111.362 414.652,111.598 360.986 L 111.836 306.824 109.222 301.514 C 106.398 295.778,101.856 291.507,96.576 289.621 C 94.218 288.779,86.136 288.502,64.000 288.502 C 41.864 288.502,33.782 288.779,31.424 289.621 " stroke="none" fill="black" fill-rule="evenodd"></path></svg>