<svg xmlns="http://www.w3.org/2000/svg" width="512" height="512" viewBox="0 0 512 512"><path d="M50.773 48.583 C 43.211 50.445,36.403 56.425,33.614 63.656 C 32.053 67.702,32.000 72.718,32.000 215.893 C 32.000 359.777,32.046 364.066,33.636 368.189 C 35.958 374.211,41.785 380.134,47.483 382.266 C 51.886 383.914,54.009 384.000,90.059 384.000 L 128.000 384.000 128.000 423.680 C 128.000 445.504,128.228 463.360,128.506 463.360 C 128.785 463.360,155.284 445.504,187.393 423.680 L 245.774 384.000 352.829 384.000 C 458.351 384.000,459.949 383.975,464.517 382.266 C 470.215 380.134,476.042 374.211,478.364 368.189 C 479.954 364.066,480.000 359.777,480.000 215.893 C 480.000 72.718,479.947 67.702,478.386 63.656 C 476.308 58.267,471.846 53.368,466.401 50.494 L 462.080 48.213 257.707 48.083 C 145.301 48.011,52.181 48.236,50.773 48.583 M171.063 186.089 C 188.698 192.687,196.773 212.821,188.627 229.888 C 182.646 242.422,168.289 249.873,154.895 247.397 C 131.866 243.140,120.825 218.181,133.300 198.580 C 141.021 186.449,157.477 181.005,171.063 186.089 M269.880 187.292 C 275.722 190.187,282.657 197.210,285.272 202.879 C 286.819 206.234,287.142 208.479,287.144 215.893 C 287.146 223.996,286.917 225.322,284.742 229.751 C 272.990 253.683,239.010 253.683,227.258 229.751 C 225.083 225.322,224.854 223.996,224.856 215.893 C 224.858 208.497,225.182 206.231,226.715 202.908 C 230.221 195.309,238.832 187.908,247.467 185.072 C 248.640 184.687,253.056 184.480,257.280 184.613 C 263.714 184.815,265.759 185.249,269.880 187.292 M363.063 186.089 C 380.698 192.687,388.773 212.821,380.627 229.888 C 374.646 242.422,360.289 249.873,346.895 247.397 C 323.866 243.140,312.825 218.181,325.300 198.580 C 333.021 186.449,349.477 181.005,363.063 186.089 " stroke="none" fill="black" fill-rule="evenodd"></path></svg>