<svg xmlns="http://www.w3.org/2000/svg" width="512" height="512" viewBox="0 0 512 512"><path d="M96.853 48.353 C 71.522 51.600,50.507 66.232,39.452 88.320 C 35.336 96.544,33.299 104.479,32.345 116.009 C 31.776 122.896,31.568 161.598,31.763 224.427 L 32.068 322.133 33.973 328.960 C 37.718 342.383,43.622 352.844,52.675 362.098 C 61.882 371.508,71.428 377.267,84.218 381.127 C 91.064 383.193,93.348 383.431,109.867 383.793 L 128.000 384.191 128.019 417.589 C 128.036 448.145,128.171 451.280,129.604 454.435 C 133.393 462.776,143.221 466.319,151.125 462.192 C 152.346 461.555,174.117 443.714,199.507 422.544 L 245.671 384.054 332.969 383.810 L 420.267 383.566 427.782 381.213 C 440.811 377.133,449.965 371.635,458.860 362.548 C 465.728 355.532,467.912 352.542,471.864 344.747 C 476.478 335.645,478.607 328.014,479.572 317.118 C 480.684 304.553,480.684 127.234,479.572 114.669 C 477.848 95.192,470.508 80.101,456.412 67.050 C 447.394 58.701,437.096 53.182,424.107 49.735 C 418.957 48.369,407.128 48.255,258.987 48.144 C 171.221 48.079,98.261 48.173,96.853 48.353 " stroke="none" fill="black" fill-rule="evenodd"></path></svg>