<svg xmlns="http://www.w3.org/2000/svg" width="512" height="512" viewBox="0 0 512 512"><path d="M227.016 33.765 C 133.277 45.796,57.200 114.014,37.229 203.947 C 30.816 232.826,30.650 267.130,36.783 296.073 C 42.048 320.922,53.772 349.247,66.931 368.915 L 71.968 376.442 60.013 428.008 C 53.438 456.369,48.441 479.573,48.909 479.573 C 49.376 479.573,75.139 473.271,106.160 465.568 L 162.560 451.562 181.333 457.841 C 227.614 473.319,266.850 476.190,308.053 467.111 C 339.776 460.121,372.777 444.226,398.507 423.543 C 431.664 396.889,458.128 357.269,470.679 315.491 C 477.495 292.799,479.924 273.519,479.350 246.660 C 478.780 220.025,475.475 201.483,467.296 179.028 C 455.651 147.061,439.417 121.774,414.794 97.254 C 379.266 61.875,334.649 40.358,283.050 33.722 C 270.569 32.117,239.673 32.140,227.016 33.765 M173.835 227.251 C 182.367 231.648,188.017 238.424,190.645 247.408 C 192.458 253.608,192.352 258.970,190.289 265.510 C 187.212 275.265,180.546 282.243,170.790 285.920 C 163.843 288.538,152.486 287.996,146.165 284.745 C 137.639 280.359,131.983 273.579,129.355 264.592 C 125.184 250.325,132.029 234.498,145.304 227.717 C 151.061 224.775,152.709 224.466,161.280 224.719 C 168.118 224.921,170.083 225.317,173.835 227.251 M269.710 227.195 C 275.706 230.128,281.869 236.294,284.828 242.318 C 286.904 246.545,287.147 247.979,287.147 256.000 C 287.147 264.021,286.904 265.455,284.828 269.682 C 281.867 275.710,275.710 281.867,269.682 284.828 C 265.455 286.904,264.021 287.147,256.000 287.147 C 247.979 287.147,246.545 286.904,242.318 284.828 C 236.300 281.872,230.129 275.707,227.205 269.730 C 224.023 263.227,223.452 251.705,225.983 245.074 C 229.194 236.663,236.307 229.417,244.649 226.059 C 250.938 223.528,263.366 224.091,269.710 227.195 M365.835 227.251 C 374.367 231.648,380.017 238.424,382.645 247.408 C 384.458 253.608,384.352 258.970,382.289 265.510 C 379.212 275.265,372.546 282.243,362.790 285.920 C 355.843 288.538,344.486 287.996,338.165 284.745 C 329.639 280.359,323.983 273.579,321.355 264.592 C 317.184 250.325,324.029 234.498,337.304 227.717 C 343.061 224.775,344.709 224.466,353.280 224.719 C 360.118 224.921,362.083 225.317,365.835 227.251 " stroke="none" fill="black" fill-rule="evenodd"></path></svg>