<svg xmlns="http://www.w3.org/2000/svg" width="512" height="512" viewBox="0 0 512 512"><path d="M363.093 112.814 C 361.685 113.305,359.498 114.522,358.233 115.520 C 353.881 118.950,219.095 274.349,217.514 277.760 C 210.992 291.823,227.202 305.523,240.598 297.270 C 244.230 295.033,380.435 138.561,382.373 134.400 C 384.384 130.082,384.392 125.958,382.396 121.565 C 378.982 114.050,370.534 110.220,363.093 112.814 M459.897 112.596 C 458.696 112.960,456.855 113.718,455.805 114.280 C 454.755 114.842,406.824 169.135,349.292 234.931 C 291.761 300.727,243.395 355.897,241.814 357.530 L 238.938 360.500 195.202 316.847 C 147.672 269.407,149.994 271.328,141.538 272.462 C 131.197 273.849,125.099 285.323,129.683 294.771 C 130.805 297.082,148.106 314.931,181.523 348.252 C 227.719 394.313,231.993 398.347,235.647 399.325 C 239.833 400.445,243.668 400.006,247.706 397.942 C 250.360 396.586,476.124 139.021,478.232 134.945 C 480.107 131.320,479.942 124.388,477.886 120.358 C 474.623 113.963,466.683 110.537,459.897 112.596 M41.387 273.555 C 35.312 276.715,32.427 281.366,32.427 288.000 C 32.427 290.142,32.963 293.130,33.619 294.641 C 34.305 296.220,56.331 318.841,85.459 347.882 C 131.493 393.777,136.456 398.471,139.947 399.400 C 144.426 400.594,149.731 399.555,153.743 396.698 C 159.279 392.756,161.302 382.990,157.927 376.499 C 155.460 371.757,58.370 275.163,54.427 273.528 C 50.363 271.844,44.655 271.855,41.387 273.555 " stroke="none" fill="black" fill-rule="evenodd"></path></svg>