<svg xmlns="http://www.w3.org/2000/svg" width="512" height="512" viewBox="0 0 512 512"><path d="M242.347 48.326 C 191.452 52.106,145.063 73.308,109.185 109.185 C 76.591 141.780,56.430 182.229,49.832 228.267 C 48.041 240.765,47.809 267.961,49.388 280.320 C 57.111 340.773,89.217 393.514,139.093 427.685 C 166.418 446.405,197.907 458.285,231.680 462.616 C 243.557 464.140,272.051 463.910,283.567 462.199 C 330.638 455.203,370.172 435.514,402.796 402.821 C 435.574 369.971,455.219 330.534,462.199 283.567 C 463.910 272.051,464.140 243.557,462.616 231.680 C 456.558 184.437,436.047 142.432,402.808 109.192 C 369.586 75.970,327.122 55.204,280.747 49.498 C 272.613 48.498,249.525 47.793,242.347 48.326 M309.947 176.678 C 316.375 178.463,321.669 185.383,321.669 192.000 C 321.669 193.643,320.954 196.523,320.079 198.400 C 319.205 200.277,306.186 215.872,291.148 233.055 C 268.611 258.808,263.193 264.543,260.313 265.695 C 252.059 268.998,243.486 265.499,239.693 257.280 C 237.726 253.017,237.693 248.822,239.596 244.727 C 240.872 241.980,286.103 189.345,294.440 180.904 C 298.878 176.412,303.981 175.021,309.947 176.678 M372.240 176.678 C 378.668 178.463,383.963 185.383,383.963 192.000 C 383.963 193.643,383.249 196.523,382.378 198.400 C 380.341 202.788,266.496 332.895,263.517 334.240 C 259.613 336.004,255.540 336.385,251.656 335.350 C 248.340 334.467,244.820 331.290,222.030 308.614 C 207.806 294.460,195.439 281.710,194.548 280.281 C 186.640 267.584,200.197 251.582,214.001 257.319 C 216.014 258.155,223.425 264.858,234.287 275.665 C 249.517 290.819,251.708 292.693,254.184 292.693 C 255.714 292.693,257.708 292.296,258.615 291.810 C 259.523 291.325,281.612 266.461,307.703 236.557 C 333.793 206.653,356.281 181.180,357.674 179.949 C 361.874 176.240,366.734 175.148,372.240 176.678 M150.613 257.628 C 152.852 258.671,163.028 268.280,180.188 285.556 C 203.241 308.764,206.468 312.340,207.351 315.656 C 210.539 327.633,199.653 338.525,187.656 335.360 C 184.334 334.483,180.811 331.304,157.561 308.197 C 140.348 291.091,130.675 280.844,129.633 278.613 C 126.591 272.105,127.912 265.579,133.312 260.442 C 138.119 255.868,144.581 254.817,150.613 257.628 " stroke="none" fill="black" fill-rule="evenodd"></path></svg>