<svg xmlns="http://www.w3.org/2000/svg" width="512" height="512" viewBox="0 0 512 512"><path d="M243.627 48.295 C 200.707 51.540,163.787 65.309,129.707 90.781 C 119.276 98.577,98.579 119.277,90.713 129.782 C 68.255 159.772,54.418 193.768,49.413 231.253 C 48.019 241.696,48.019 270.304,49.413 280.747 C 59.554 356.698,107.829 420.063,177.067 448.304 C 203.509 459.089,227.771 463.751,256.853 463.634 C 290.198 463.499,318.398 456.932,347.733 442.471 C 410.837 411.362,453.091 351.864,462.587 280.747 C 463.981 270.304,463.981 241.696,462.587 231.253 C 453.091 160.136,410.837 100.638,347.733 69.529 C 327.592 59.600,306.356 53.073,283.994 49.939 C 275.010 48.680,251.306 47.715,243.627 48.295 M275.447 81.114 C 347.484 88.943,408.291 141.727,426.231 212.001 C 448.394 298.823,402.945 387.270,319.249 420.197 C 293.994 430.132,262.077 434.038,234.686 430.544 C 145.853 419.214,80.213 345.046,80.213 256.000 C 80.213 167.651,145.919 92.766,233.311 81.514 C 244.096 80.125,264.562 79.931,275.447 81.114 M300.414 176.900 C 298.793 177.417,296.105 179.218,294.440 180.904 C 286.103 189.345,240.872 241.980,239.596 244.727 C 235.891 252.701,239.907 262.175,248.518 265.773 C 252.571 267.466,255.943 267.444,260.313 265.695 C 263.193 264.543,268.611 258.808,291.148 233.055 C 306.186 215.872,319.205 200.277,320.079 198.400 C 323.042 192.039,321.303 184.444,315.828 179.837 C 311.390 176.103,306.085 175.092,300.414 176.900 M362.931 176.836 C 361.433 177.317,359.068 178.718,357.674 179.949 C 356.281 181.180,333.739 206.763,307.583 236.800 C 281.426 266.837,258.925 292.560,257.581 293.962 L 255.137 296.510 236.155 277.566 C 223.853 265.289,216.057 258.161,214.001 257.311 C 200.190 251.603,186.698 267.589,194.582 280.320 C 195.454 281.728,207.806 294.460,222.030 308.614 C 244.820 331.290,248.340 334.467,251.656 335.350 C 255.540 336.385,259.613 336.004,263.517 334.240 C 266.496 332.895,380.341 202.788,382.378 198.400 C 385.334 192.033,383.593 184.442,378.122 179.837 C 373.749 176.158,368.355 175.092,362.931 176.836 M138.567 256.925 C 134.311 258.159,129.098 264.454,128.383 269.221 C 127.142 277.496,127.419 277.870,156.021 306.621 C 170.412 321.087,183.339 333.547,184.747 334.311 C 186.215 335.107,189.343 335.712,192.084 335.729 C 202.592 335.794,210.088 325.938,207.351 315.656 C 206.468 312.340,203.241 308.764,180.188 285.556 C 163.028 268.280,152.852 258.671,150.613 257.628 C 146.956 255.924,142.847 255.684,138.567 256.925 " stroke="none" fill="black" fill-rule="evenodd"></path></svg>