<svg xmlns="http://www.w3.org/2000/svg" width="512" height="512" viewBox="0 0 512 512"><path d="M243.200 48.291 C 189.307 52.936,145.591 72.806,109.198 109.198 C 75.814 142.582,55.864 183.304,49.403 231.253 C 47.996 241.696,47.996 270.304,49.403 280.747 C 55.866 328.705,75.852 369.495,109.198 402.781 C 142.761 436.282,182.341 455.687,231.253 462.621 C 235.243 463.187,246.379 463.649,256.000 463.649 C 284.931 463.649,308.731 459.018,334.933 448.289 C 361.056 437.593,386.578 420.224,405.701 400.129 C 437.387 366.832,455.931 327.939,462.621 280.747 C 463.187 276.757,463.649 265.621,463.649 256.000 C 463.649 227.171,459.011 203.251,448.395 177.325 C 432.022 137.342,403.062 103.108,365.227 79.011 C 343.385 65.100,312.181 53.926,283.992 49.922 C 275.151 48.666,250.352 47.675,243.200 48.291 M359.074 162.043 C 362.985 164.038,364.780 165.977,366.474 170.030 C 368.218 174.204,368.133 179.013,366.251 182.705 C 365.406 184.362,333.910 222.392,296.260 267.216 C 246.038 327.006,227.006 349.095,224.806 350.144 C 220.480 352.207,213.637 351.979,209.697 349.639 C 206.241 347.587,147.551 282.860,145.314 278.633 C 143.594 275.384,143.584 268.218,145.295 264.940 C 148.377 259.035,153.501 256.000,160.386 256.000 C 163.656 256.000,165.304 256.569,168.415 258.773 C 170.567 260.299,182.393 272.794,194.693 286.541 C 215.934 310.281,217.129 311.459,218.494 310.008 C 219.285 309.168,244.243 279.488,273.956 244.053 C 341.680 163.288,341.900 163.033,345.090 161.644 C 348.934 159.971,355.374 160.154,359.074 162.043 " stroke="none" fill="black" fill-rule="evenodd"></path></svg>