<svg xmlns="http://www.w3.org/2000/svg" width="512" height="512" viewBox="0 0 512 512"><path d="M238.790 48.708 C 199.901 51.925,162.269 66.422,129.782 90.701 C 119.266 98.560,98.560 119.266,90.701 129.782 C 69.069 158.727,55.338 191.226,50.352 225.280 C 42.149 281.314,56.217 336.040,90.695 382.218 C 98.476 392.640,119.191 413.346,129.707 421.213 C 160.300 444.101,192.921 457.398,231.253 462.606 C 242.659 464.156,272.000 463.930,283.567 462.204 C 353.989 451.696,412.003 409.894,442.434 347.733 C 457.257 317.454,463.599 289.966,463.599 256.000 C 463.599 222.419,457.247 194.557,442.880 165.120 C 431.962 142.752,420.990 127.453,402.774 109.202 C 384.698 91.090,369.338 80.067,346.880 69.089 C 313.251 52.649,276.017 45.629,238.790 48.708 M286.392 145.846 C 290.020 147.493,293.730 151.624,294.833 155.244 C 295.858 158.608,295.419 164.451,293.916 167.448 C 293.146 168.984,273.267 189.534,249.740 213.116 L 206.964 255.992 250.581 299.730 C 297.728 347.005,296.716 345.787,295.901 354.266 C 295.445 359.010,292.244 363.707,287.622 366.415 C 284.200 368.420,277.006 368.557,273.473 366.684 C 269.739 364.704,170.050 264.533,168.999 261.704 C 167.856 258.628,167.856 253.372,168.999 250.296 C 170.328 246.719,269.254 147.840,273.493 145.852 C 277.822 143.822,281.930 143.820,286.392 145.846 " stroke="none" fill="black" fill-rule="evenodd"></path></svg>