<svg xmlns="http://www.w3.org/2000/svg" width="512" height="512" viewBox="0 0 512 512"><path d="M101.941 162.445 C 93.066 166.578,87.080 176.897,88.178 186.168 C 89.307 195.707,87.174 193.355,167.073 273.153 C 218.808 324.823,242.974 348.394,245.333 349.485 C 250.201 351.737,259.048 352.105,264.675 350.289 C 268.995 348.895,273.057 344.993,344.502 273.610 C 424.862 193.321,422.692 195.712,423.822 186.168 C 424.920 176.897,418.934 166.578,410.059 162.445 C 404.390 159.805,395.529 159.693,389.973 162.191 C 387.011 163.522,371.262 178.778,321.067 228.938 L 256.000 293.958 190.933 228.938 C 140.738 178.778,124.989 163.522,122.027 162.191 C 116.471 159.693,107.610 159.805,101.941 162.445 " stroke="none" fill="black" fill-rule="evenodd"></path></svg>