<svg xmlns="http://www.w3.org/2000/svg" width="512" height="512" viewBox="0 0 512 512"><path d="M238.790 48.708 C 199.901 51.925,162.269 66.422,129.782 90.701 C 119.266 98.560,98.560 119.266,90.701 129.782 C 69.069 158.727,55.338 191.226,50.352 225.280 C 42.149 281.314,56.217 336.040,90.695 382.218 C 98.476 392.640,119.191 413.346,129.707 421.213 C 160.300 444.101,192.921 457.398,231.253 462.606 C 242.659 464.156,272.000 463.930,283.567 462.204 C 353.989 451.696,412.003 409.894,442.434 347.733 C 457.257 317.454,463.599 289.966,463.599 256.000 C 463.599 222.419,457.247 194.557,442.880 165.120 C 431.962 142.752,420.990 127.453,402.774 109.202 C 384.698 91.090,369.338 80.067,346.880 69.089 C 313.251 52.649,276.017 45.629,238.790 48.708 M238.507 145.852 C 242.746 147.840,341.672 246.719,343.001 250.296 C 344.146 253.377,344.143 258.633,342.996 261.704 C 341.656 265.290,242.735 364.171,238.507 366.151 C 224.902 372.522,211.407 357.558,218.415 343.873 C 219.011 342.711,238.745 322.464,262.271 298.880 L 305.044 256.000 262.271 213.120 C 238.745 189.536,219.011 169.289,218.415 168.127 C 214.133 159.764,217.426 149.561,225.608 145.846 C 230.070 143.820,234.178 143.822,238.507 145.852 " stroke="none" fill="black" fill-rule="evenodd"></path></svg>