<svg xmlns="http://www.w3.org/2000/svg" width="512" height="512" viewBox="0 0 512 512"><path d="M165.801 17.885 C 161.138 20.729,160.135 23.800,159.734 36.480 L 159.376 47.787 124.701 47.788 C 86.038 47.789,86.085 47.783,82.150 53.673 L 80.213 56.572 80.219 272.126 C 80.224 481.848,80.268 487.746,81.833 490.119 C 82.717 491.461,84.539 493.283,85.881 494.167 C 88.249 495.729,93.174 495.776,255.899 495.781 C 422.431 495.787,423.496 495.776,426.262 494.067 C 432.275 490.350,431.787 510.004,431.787 271.571 L 431.787 56.572 429.850 53.673 C 425.915 47.783,425.962 47.789,387.299 47.788 L 352.624 47.787 352.266 36.480 C 351.865 23.800,350.862 20.729,346.199 17.885 C 343.536 16.262,341.248 16.220,256.000 16.220 C 170.752 16.220,168.464 16.262,165.801 17.885 M336.213 96.000 L 336.213 111.787 256.000 111.787 L 175.787 111.787 175.787 96.000 L 175.787 80.213 256.000 80.213 L 336.213 80.213 336.213 96.000 " stroke="none" fill="black" fill-rule="evenodd"></path></svg>