<svg xmlns="http://www.w3.org/2000/svg" width="512" height="512" viewBox="0 0 512 512"><path d="M190.246 17.822 C 178.679 21.524,169.814 29.090,164.363 39.915 C 162.674 43.269,160.617 46.362,159.793 46.788 C 158.968 47.214,152.725 47.781,145.920 48.047 C 131.439 48.614,126.087 49.841,115.627 54.992 C 99.843 62.765,88.426 76.069,82.632 93.440 L 80.640 99.413 80.414 269.523 C 80.192 436.761,80.217 439.753,81.886 446.778 C 87.373 469.881,105.956 488.547,128.959 494.061 C 135.941 495.735,138.890 495.775,256.000 495.775 C 372.431 495.775,376.096 495.726,382.921 494.090 C 406.092 488.535,424.605 469.976,430.114 446.778 C 431.783 439.753,431.808 436.761,431.586 269.523 L 431.360 99.413 429.368 93.440 C 424.377 78.477,415.313 66.564,402.773 58.488 C 391.308 51.104,382.876 48.705,366.080 48.047 C 359.275 47.781,353.032 47.214,352.207 46.788 C 351.383 46.362,349.326 43.269,347.637 39.915 C 342.096 28.913,332.661 21.026,320.912 17.575 C 316.853 16.383,308.735 16.219,255.632 16.259 C 199.938 16.301,194.600 16.429,190.246 17.822 M325.704 81.121 C 331.516 83.317,335.604 89.461,335.604 96.000 C 335.604 102.539,331.516 108.683,325.704 110.879 C 324.081 111.492,301.477 111.787,256.000 111.787 C 210.523 111.787,187.919 111.492,186.296 110.879 C 180.484 108.683,176.396 102.539,176.396 96.000 C 176.396 89.605,180.429 83.395,186.027 81.170 C 189.074 79.958,322.504 79.912,325.704 81.121 " stroke="none" fill="black" fill-rule="evenodd"></path></svg>