<svg xmlns="http://www.w3.org/2000/svg" width="512" height="512" viewBox="0 0 512 512"><path d="M328.591 36.284 C 316.397 42.219,306.105 49.708,295.215 60.572 C 280.457 75.294,269.794 92.491,263.195 112.213 C 259.618 122.901,258.765 128.127,260.389 129.403 C 261.026 129.904,265.387 131.185,270.080 132.251 C 313.952 142.207,350.775 169.175,375.790 209.669 C 378.459 213.989,381.686 218.242,382.961 219.119 C 384.237 219.996,389.504 222.183,394.667 223.980 C 417.784 232.023,435.681 242.764,453.065 259.027 C 457.306 262.994,460.998 266.240,461.270 266.240 C 463.951 266.240,478.128 254.819,486.364 246.024 C 498.019 233.579,510.649 213.132,511.750 204.928 C 512.720 197.695,507.419 189.764,500.290 187.785 C 495.719 186.515,495.352 186.565,485.928 189.734 C 472.445 194.267,467.313 194.994,449.280 194.922 C 434.575 194.864,432.288 194.649,424.693 192.611 C 406.205 187.651,392.452 179.786,378.857 166.400 C 365.107 152.862,357.336 139.946,352.135 121.987 C 346.454 102.372,347.243 78.686,354.271 57.890 C 357.538 48.221,357.357 43.340,353.555 38.580 C 347.613 31.141,340.501 30.487,328.591 36.284 M207.042 162.147 C 152.087 172.118,109.261 212.660,93.027 270.080 C 91.568 275.243,89.941 280.922,89.412 282.701 C 87.771 288.221,83.372 291.292,72.035 294.831 C 27.332 308.786,2.012 339.201,0.288 381.013 C -1.675 428.614,24.806 463.938,71.322 475.767 C 87.682 479.928,84.957 479.841,211.200 480.205 C 336.134 480.565,353.458 480.215,368.444 477.033 C 408.538 468.520,440.061 443.344,455.015 407.893 C 461.310 392.968,463.698 380.498,463.673 362.667 C 463.645 342.386,460.258 327.532,451.861 310.865 C 443.263 293.799,430.977 280.008,414.741 269.199 C 401.695 260.514,388.622 255.025,367.282 249.274 C 361.001 247.581,358.532 245.116,353.538 235.557 C 336.309 202.573,308.845 178.233,276.480 167.261 C 262.034 162.364,254.033 161.125,234.667 160.785 C 219.138 160.513,214.895 160.722,207.042 162.147 " stroke="none" fill="black" fill-rule="evenodd"></path></svg>