<svg xmlns="http://www.w3.org/2000/svg" width="512" height="512" viewBox="0 0 512 512"><path d="M236.373 81.143 C 208.584 84.717,180.891 96.457,159.147 113.879 C 131.713 135.861,111.047 169.400,101.547 207.360 C 100.196 212.757,98.834 218.979,98.521 221.185 L 97.952 225.197 93.136 226.139 C 30.045 238.487,-5.860 283.671,0.854 342.267 C 6.120 388.213,36.651 419.335,86.334 429.402 L 96.000 431.360 245.333 431.360 L 394.667 431.360 404.338 429.401 C 471.413 415.811,514.822 362.620,511.727 297.813 C 508.821 236.965,469.319 193.210,404.401 178.933 L 395.917 177.067 392.212 168.827 C 373.170 126.479,336.886 95.682,292.882 84.517 C 277.290 80.561,252.437 79.077,236.373 81.143 M277.643 113.923 C 316.852 120.761,350.249 149.069,366.065 188.871 C 368.601 195.253,374.836 202.075,381.182 205.410 C 384.310 207.054,389.589 208.695,395.520 209.866 C 419.933 214.690,439.686 224.567,454.429 239.324 C 466.766 251.674,474.264 265.732,477.890 283.313 C 479.496 291.105,479.681 294.150,479.314 306.773 C 478.958 318.971,478.533 322.570,476.642 329.387 C 468.051 360.345,444.181 384.231,411.524 394.547 C 393.891 400.117,404.295 399.787,246.613 399.787 C 93.499 399.787,97.516 399.892,82.305 395.484 C 55.114 387.604,38.519 370.354,33.629 344.885 C 32.201 337.448,32.052 320.658,33.351 313.543 C 36.173 298.089,46.566 282.583,60.392 273.202 C 71.387 265.742,83.229 260.976,98.987 257.671 C 110.360 255.285,115.981 252.559,121.119 246.937 C 126.093 241.495,128.095 236.540,130.916 222.691 C 140.932 173.526,169.674 136.801,210.954 120.420 C 219.104 117.186,233.272 113.701,242.347 112.697 C 251.449 111.690,268.169 112.271,277.643 113.923 " stroke="none" fill="black" fill-rule="evenodd"></path></svg>