<svg xmlns="http://www.w3.org/2000/svg" width="512" height="512" viewBox="0 0 512 512"><path d="M238.790 48.708 C 199.901 51.925,162.269 66.422,129.782 90.701 C 119.266 98.560,98.560 119.266,90.701 129.782 C 69.069 158.727,55.338 191.226,50.352 225.280 C 42.149 281.314,56.217 336.040,90.695 382.218 C 98.476 392.640,119.191 413.346,129.707 421.213 C 160.300 444.101,192.921 457.398,231.253 462.606 C 242.659 464.156,272.000 463.930,283.567 462.204 C 353.989 451.696,412.003 409.894,442.434 347.733 C 457.257 317.454,463.599 289.966,463.599 256.000 C 463.599 222.419,457.247 194.557,442.880 165.120 C 431.962 142.752,420.990 127.453,402.774 109.202 C 384.698 91.090,369.338 80.067,346.880 69.089 C 313.251 52.649,276.017 45.629,238.790 48.708 M268.938 169.309 C 295.911 174.488,316.385 194.147,324.572 222.729 C 325.717 226.723,326.927 232.185,327.262 234.868 C 327.863 239.676,327.916 239.752,330.976 240.226 C 348.513 242.944,362.062 250.197,368.927 260.540 C 373.708 267.742,375.716 274.706,375.739 284.160 C 375.788 304.605,366.261 317.982,346.733 324.890 L 340.053 327.253 261.120 327.253 L 182.187 327.253 175.360 324.857 C 153.260 317.101,139.525 300.891,136.532 279.033 C 134.805 266.420,137.780 252.567,144.447 242.179 C 152.285 229.966,169.355 219.401,184.952 217.110 C 190.371 216.315,192.853 215.322,192.853 213.949 C 192.853 211.728,199.512 199.164,203.455 193.946 C 218.504 174.030,243.853 164.492,268.938 169.309 " stroke="none" fill="black" fill-rule="evenodd"></path></svg>