<svg xmlns="http://www.w3.org/2000/svg" width="512" height="512" viewBox="0 0 512 512"><path d="M237.653 48.781 C 228.366 49.831,212.880 53.371,204.014 56.471 C 170.787 68.092,140.348 93.983,124.014 124.520 C 115.883 139.721,115.978 139.643,101.055 143.412 C 82.691 148.050,64.915 155.905,50.399 165.798 C 42.100 171.453,24.577 188.976,19.437 196.761 C 11.229 209.191,5.781 222.187,2.444 237.296 C 0.814 244.677,0.478 248.723,0.464 261.120 C 0.446 277.884,1.458 284.305,6.539 299.669 C 19.778 339.703,57.583 370.940,104.441 380.565 C 118.705 383.495,130.549 383.994,185.813 383.997 L 239.787 384.000 239.791 416.640 C 239.794 436.459,240.142 450.527,240.678 452.454 C 242.463 458.881,249.383 464.176,256.000 464.176 C 262.617 464.176,269.537 458.881,271.322 452.454 C 271.857 450.527,272.206 436.477,272.209 416.697 L 272.213 384.114 342.827 383.759 C 410.249 383.420,413.868 383.322,422.914 381.606 C 460.660 374.442,487.896 355.973,501.757 328.141 C 514.968 301.615,515.346 269.580,502.747 244.186 C 493.547 225.644,474.918 208.175,453.486 197.993 C 446.018 194.445,429.411 188.587,426.821 188.587 C 423.813 188.587,416.500 184.214,414.736 181.360 C 413.771 179.798,411.636 173.611,409.991 167.611 C 395.108 113.306,357.934 72.965,307.200 56.064 C 285.813 48.938,260.096 46.246,237.653 48.781 M261.787 177.097 C 263.945 177.988,275.830 189.249,298.936 212.297 C 317.622 230.936,333.407 247.147,334.014 248.320 C 338.005 256.043,335.069 265.884,327.642 269.673 C 323.593 271.738,316.709 271.890,312.918 269.996 C 311.416 269.246,301.643 260.130,291.200 249.737 L 272.213 230.841 272.213 307.420 L 272.213 384.000 256.000 384.000 L 239.787 384.000 239.787 307.420 L 239.787 230.841 220.800 249.737 C 210.357 260.130,200.584 269.246,199.082 269.996 C 192.975 273.046,183.089 270.848,179.360 265.611 C 177.374 262.823,175.530 256.538,176.090 254.465 C 176.305 253.666,176.733 251.861,177.041 250.453 C 177.799 246.992,244.590 179.765,249.600 177.421 C 253.773 175.469,257.599 175.367,261.787 177.097 " stroke="none" fill="black" fill-rule="evenodd"></path></svg>