<svg xmlns="http://www.w3.org/2000/svg" width="512" height="512" viewBox="0 0 512 512"><path d="M239.360 80.776 C 187.309 87.019,144.079 116.407,118.427 162.987 C 110.772 176.887,102.984 198.671,99.703 215.358 C 98.676 220.580,97.794 224.930,97.744 225.023 C 97.693 225.117,93.824 226.021,89.146 227.034 C 53.241 234.802,24.916 254.625,11.173 281.600 C 4.059 295.565,1.053 306.955,0.251 322.987 C -0.918 346.359,5.235 369.991,17.000 387.315 C 31.781 409.082,56.737 423.876,88.747 429.848 C 96.309 431.258,106.848 431.360,245.760 431.360 L 394.667 431.360 404.338 429.401 C 471.161 415.862,514.398 363.220,511.715 298.667 C 510.340 265.581,498.924 238.594,477.047 216.710 C 458.627 198.284,434.418 185.678,404.678 179.026 L 395.916 177.067 392.212 168.827 C 384.444 151.552,374.651 137.488,360.533 123.333 C 337.184 99.923,309.698 86.118,277.258 81.507 C 269.269 80.372,246.407 79.931,239.360 80.776 " stroke="none" fill="black" fill-rule="evenodd"></path></svg>