<svg xmlns="http://www.w3.org/2000/svg" width="512" height="512" viewBox="0 0 512 512"><path d="M342.187 35.698 C 305.841 51.639,273.383 86.652,261.532 122.705 C 260.252 126.598,259.348 129.877,259.523 129.992 C 259.697 130.107,263.296 130.879,267.520 131.709 C 283.372 134.822,304.552 143.163,318.698 151.862 C 342.594 166.558,363.175 187.808,377.195 212.258 L 381.404 219.600 393.156 223.537 C 416.534 231.370,437.232 243.642,453.164 259.117 L 457.901 263.718 465.964 256.977 C 485.906 240.306,500.653 220.483,509.726 198.154 C 510.911 195.239,511.531 192.853,511.104 192.853 C 510.677 192.853,508.880 193.408,507.111 194.085 C 501.020 196.418,491.928 198.766,483.413 200.206 C 472.901 201.984,444.870 202.229,434.773 200.632 C 396.328 194.549,369.351 176.362,354.727 146.665 C 345.898 128.737,342.171 110.620,342.203 85.782 C 342.228 66.846,345.374 47.318,350.300 35.529 C 351.944 31.594,351.525 31.602,342.187 35.698 M207.338 162.097 C 162.235 170.300,124.087 199.681,103.584 242.006 C 98.172 253.177,92.099 271.052,89.987 282.027 C 89.173 286.251,88.267 289.983,87.972 290.320 C 87.677 290.657,82.969 292.061,77.510 293.439 C 30.266 305.371,2.089 337.325,0.288 381.013 C -1.675 428.614,24.806 463.938,71.322 475.767 C 87.682 479.928,84.957 479.841,211.200 480.205 C 336.134 480.565,353.458 480.215,368.444 477.033 C 408.538 468.520,440.061 443.344,455.015 407.893 C 461.310 392.968,463.698 380.498,463.673 362.667 C 463.637 336.279,456.390 313.791,441.626 294.248 C 425.028 272.277,397.253 255.669,366.469 249.306 L 359.151 247.793 355.945 240.590 C 346.645 219.696,329.135 198.208,310.592 184.931 C 302.026 178.798,285.715 170.339,276.480 167.241 C 261.862 162.337,254.004 161.124,234.667 160.785 C 219.302 160.516,214.860 160.729,207.338 162.097 " stroke="none" fill="black" fill-rule="evenodd"></path></svg>