<svg xmlns="http://www.w3.org/2000/svg" width="512" height="512" viewBox="0 0 512 512"><path d="M234.667 33.294 C 212.490 36.316,189.312 45.033,171.391 57.090 C 149.450 71.852,131.869 92.003,120.413 115.517 L 116.160 124.248 104.380 126.580 C 83.064 130.800,62.275 139.023,46.507 149.472 C 37.031 155.751,22.672 170.174,16.647 179.465 C -5.938 214.293,-5.364 263.503,18.029 297.971 C 34.466 322.190,63.182 340.509,96.000 347.713 C 113.348 351.520,117.560 351.745,179.840 352.187 L 239.787 352.611 239.746 386.012 L 239.706 419.413 215.830 395.093 L 191.954 370.773 180.903 382.293 C 174.824 388.629,169.846 394.005,169.839 394.240 C 169.833 394.475,189.216 413.802,212.913 437.189 L 255.999 479.712 299.089 437.189 C 322.788 413.802,342.172 394.475,342.164 394.240 C 342.156 394.005,337.174 388.629,331.093 382.293 L 320.036 370.773 296.163 395.093 L 272.290 419.413 272.252 386.005 L 272.213 352.598 342.400 352.188 C 418.383 351.744,421.141 351.592,440.297 346.801 C 460.610 341.720,474.539 334.341,487.539 321.771 C 500.552 309.189,507.847 294.688,510.754 275.627 C 516.109 240.503,502.986 209.688,474.647 190.849 C 459.782 180.967,441.562 174.452,417.197 170.307 L 414.127 169.785 412.606 162.332 C 411.769 158.234,409.258 149.279,407.026 142.432 C 388.825 86.608,345.499 47.314,288.913 35.312 C 279.997 33.421,276.035 33.088,259.413 32.833 C 248.853 32.671,237.717 32.878,234.667 33.294 M272.213 280.320 L 272.213 352.427 256.000 352.427 L 239.787 352.427 239.787 280.320 L 239.787 208.213 256.000 208.213 L 272.213 208.213 272.213 280.320 " stroke="none" fill="black" fill-rule="evenodd"></path></svg>