<svg xmlns="http://www.w3.org/2000/svg" width="512" height="512" viewBox="0 0 512 512"><path d="M58.453 49.023 C 49.579 52.279,45.456 63.233,49.938 71.651 C 50.572 72.840,138.571 161.242,245.492 268.100 C 423.259 445.762,440.212 462.469,443.616 463.358 C 455.817 466.545,466.545 455.817,463.358 443.616 C 462.469 440.212,445.762 423.259,268.100 245.492 C 161.242 138.571,72.764 50.532,71.481 49.851 C 67.932 47.964,62.314 47.608,58.453 49.023 M241.920 64.552 C 220.983 66.980,203.493 72.066,187.533 80.369 C 178.932 84.844,175.964 87.325,173.977 91.698 C 169.942 100.582,174.954 110.971,184.516 113.546 C 189.283 114.830,191.720 114.206,201.523 109.198 C 212.050 103.821,225.038 99.446,235.520 97.747 C 245.817 96.079,265.989 96.047,276.079 97.683 C 304.252 102.253,330.759 117.109,348.796 138.439 C 367.509 160.567,378.367 185.886,383.166 218.582 C 385.702 235.867,388.025 238.306,403.867 240.328 C 429.529 243.603,446.975 251.329,461.352 265.787 C 467.984 272.456,469.738 274.845,473.020 281.672 C 478.601 293.283,479.869 300.148,479.369 316.019 C 479.020 327.068,478.619 330.021,476.629 336.213 C 473.255 346.712,469.143 353.505,461.132 361.815 C 453.401 369.835,452.114 372.179,452.147 378.187 C 452.194 386.978,458.938 393.387,468.143 393.387 C 473.796 393.387,477.618 390.963,486.057 382.029 C 504.420 362.588,513.283 336.564,511.687 306.773 C 510.231 279.574,501.038 259.297,481.785 240.813 C 466.506 226.145,445.565 215.608,422.447 210.955 L 414.387 209.333 412.480 200.237 C 400.674 143.911,369.422 101.626,323.092 79.291 C 306.516 71.301,291.234 66.994,272.034 64.903 C 264.324 64.063,247.802 63.871,241.920 64.552 M85.760 169.029 C 78.355 171.515,61.130 180.117,54.187 184.797 C 25.834 203.906,8.700 229.930,1.971 264.107 C -0.342 275.850,-0.084 301.180,2.469 313.173 C 7.929 338.817,18.348 358.091,36.635 376.378 C 55.481 395.224,79.076 407.641,106.240 413.007 C 121.713 416.063,140.292 416.536,234.240 416.261 C 329.659 415.983,326.404 416.130,330.963 411.890 C 338.485 404.893,337.569 392.301,329.133 386.717 L 325.673 384.427 222.783 383.958 C 122.467 383.500,119.701 383.444,112.213 381.713 C 74.644 373.026,48.806 351.557,37.276 319.445 C 30.845 301.535,30.643 275.549,36.790 256.737 C 45.172 231.082,65.908 210.745,94.720 199.921 C 102.430 197.024,105.170 195.158,107.227 191.402 C 109.770 186.758,110.191 183.298,108.789 178.575 C 107.401 173.901,104.317 170.526,99.654 168.579 C 95.470 166.831,91.971 166.944,85.760 169.029 " stroke="none" fill="black" fill-rule="evenodd"></path></svg>