<svg xmlns="http://www.w3.org/2000/svg" width="512" height="512" viewBox="0 0 512 512"><path d="M238.126 48.766 C 186.792 54.127,141.958 85.978,119.690 132.907 C 116.631 139.354,115.599 140.800,114.058 140.800 C 110.613 140.800,91.412 145.853,82.976 148.980 C 51.707 160.569,25.591 182.802,12.394 209.067 C 3.698 226.374,0.590 239.860,0.495 260.693 C 0.418 277.462,1.342 283.680,6.053 298.105 C 21.490 345.375,66.051 377.925,122.453 383.132 C 135.379 384.325,192.306 384.261,196.674 383.048 C 201.214 381.788,206.084 376.792,207.347 372.100 C 209.649 363.554,204.778 354.776,196.454 352.464 C 194.519 351.927,180.161 351.581,159.683 351.578 C 115.261 351.572,104.699 350.014,84.796 340.533 C 73.256 335.037,66.758 330.536,57.842 321.863 C 46.366 310.700,38.902 298.283,34.766 283.476 C 32.222 274.367,32.032 249.319,34.438 240.213 C 36.494 232.436,42.515 219.651,47.240 213.033 C 62.730 191.336,91.997 175.695,125.013 171.470 C 137.055 169.929,140.449 167.369,144.182 157.013 C 147.617 147.486,154.580 134.732,161.003 126.205 C 179.148 102.117,205.116 86.500,235.399 81.464 C 248.346 79.311,272.525 80.085,285.013 83.052 C 309.488 88.867,327.493 98.804,344.790 116.043 C 366.113 137.293,378.354 162.986,383.467 197.221 C 384.842 206.424,386.156 209.564,389.981 212.782 C 393.138 215.438,396.336 216.322,407.071 217.506 C 436.827 220.787,463.646 237.328,473.918 258.738 C 478.575 268.443,479.578 273.082,479.559 284.842 C 479.540 295.967,477.946 303.943,474.155 311.869 C 464.195 332.692,443.873 345.839,414.720 350.318 C 408.409 351.287,396.878 351.565,362.667 351.573 C 335.085 351.579,317.538 351.911,315.546 352.464 C 303.948 355.685,300.212 370.386,308.806 378.980 C 314.006 384.180,314.258 384.201,366.461 383.753 C 409.766 383.382,414.202 383.208,423.187 381.532 C 434.225 379.474,450.277 374.354,458.353 370.316 C 493.576 352.707,513.478 319.302,511.719 280.747 C 510.571 255.576,501.855 236.367,483.567 218.701 C 467.572 203.251,445.401 192.055,421.333 187.276 C 415.608 186.139,413.867 185.469,413.867 184.403 C 413.867 183.638,412.538 177.738,410.915 171.292 C 393.591 102.507,340.555 55.582,272.336 48.681 C 262.145 47.650,248.490 47.684,238.126 48.766 M249.600 177.421 C 247.328 178.484,234.722 190.535,211.907 213.456 C 181.101 244.404,177.524 248.282,176.602 251.733 C 174.729 258.746,178.065 266.462,184.358 269.673 C 188.407 271.738,195.291 271.890,199.082 269.996 C 200.584 269.246,210.357 260.130,220.800 249.737 L 239.787 230.841 239.791 340.060 C 239.795 412.558,240.093 450.347,240.678 452.454 C 242.463 458.881,249.383 464.176,256.000 464.176 C 262.617 464.176,269.537 458.881,271.322 452.454 C 271.907 450.347,272.205 412.558,272.209 340.060 L 272.213 230.841 291.200 249.737 C 301.643 260.130,311.416 269.246,312.918 269.996 C 316.709 271.890,323.593 271.738,327.642 269.673 C 333.935 266.462,337.271 258.746,335.398 251.733 C 334.476 248.282,330.899 244.404,300.093 213.456 C 264.993 178.194,262.217 175.824,256.000 175.824 C 254.357 175.824,251.477 176.543,249.600 177.421 " stroke="none" fill="black" fill-rule="evenodd"></path></svg>