<svg xmlns="http://www.w3.org/2000/svg" width="512" height="512" viewBox="0 0 512 512"><path d="M234.187 81.471 C 195.916 87.332,163.380 106.251,139.465 136.551 C 132.609 145.237,128.233 152.119,121.855 164.244 C 115.522 176.281,114.264 177.342,103.064 180.078 C 75.494 186.814,52.359 199.262,34.986 216.708 C 17.588 234.179,7.365 253.533,2.404 278.389 C -0.127 291.074,-0.320 315.450,2.018 327.222 C 12.528 380.148,50.912 417.432,107.197 429.388 L 116.480 431.360 261.120 431.615 C 363.458 431.796,408.256 431.592,414.293 430.919 C 448.414 427.112,475.447 413.272,492.448 390.906 C 514.088 362.437,518.204 316.191,501.987 283.733 C 488.063 255.865,463.332 237.659,425.408 227.359 C 421.582 226.320,419.433 225.089,416.796 222.427 C 413.690 219.292,413.058 217.939,411.352 210.773 C 395.267 143.208,349.647 96.294,287.206 83.109 C 278.586 81.288,274.054 80.881,259.413 80.610 C 247.269 80.385,239.555 80.649,234.187 81.471 " stroke="none" fill="black" fill-rule="evenodd"></path></svg>