<svg xmlns="http://www.w3.org/2000/svg" width="512" height="512" viewBox="0 0 512 512"><path d="M237.653 48.781 C 186.253 54.589,141.949 86.114,119.814 132.632 L 116.189 140.251 108.772 141.752 C 77.349 148.114,51.613 161.563,31.935 181.904 C 16.544 197.814,7.348 215.087,2.444 237.296 C 0.814 244.677,0.478 248.723,0.464 261.120 C 0.446 277.884,1.458 284.305,6.539 299.669 C 19.778 339.703,57.583 370.940,104.441 380.565 C 118.705 383.495,130.549 383.994,185.813 383.997 L 239.787 384.000 239.787 424.107 L 239.787 464.213 256.000 464.213 L 272.213 464.213 272.213 424.164 L 272.213 384.114 342.827 383.759 C 410.249 383.420,413.868 383.322,422.914 381.606 C 473.721 371.963,505.752 341.167,511.239 296.686 C 513.983 274.444,508.991 252.552,496.948 234.014 C 492.657 227.408,477.124 212.110,469.738 207.215 C 456.355 198.346,439.726 191.430,422.673 187.641 L 413.987 185.711 413.040 180.275 C 412.520 177.285,410.752 170.177,409.112 164.479 C 390.486 99.767,338.025 55.353,272.336 48.684 C 262.059 47.640,247.386 47.682,237.653 48.781 M299.520 212.906 L 342.606 255.999 331.304 267.301 L 320.002 278.604 296.108 254.721 L 272.213 230.838 272.213 307.419 L 272.213 384.000 256.000 384.000 L 239.787 384.000 239.787 307.419 L 239.787 230.838 215.892 254.721 L 191.998 278.604 180.696 267.301 L 169.394 255.999 212.480 212.906 C 236.178 189.205,255.762 169.813,256.000 169.813 C 256.238 169.813,275.822 189.205,299.520 212.906 " stroke="none" fill="black" fill-rule="evenodd"></path></svg>