<svg xmlns="http://www.w3.org/2000/svg" width="512" height="512" viewBox="0 0 512 512"><path d="M153.533 123.995 C 151.853 124.624,149.592 125.760,148.508 126.519 C 147.424 127.278,117.085 153.665,81.088 185.155 C 34.539 225.876,15.044 243.448,13.579 246.005 C 10.629 251.155,10.629 260.845,13.579 265.995 C 15.043 268.551,34.600 286.182,81.254 327.008 C 117.343 358.588,148.340 385.304,150.137 386.375 C 159.906 392.203,173.123 387.949,178.560 377.228 C 182.460 369.537,181.257 360.251,175.573 354.174 C 174.058 352.554,151.310 332.425,125.022 309.443 C 98.735 286.461,74.271 265.012,70.658 261.779 L 64.089 255.899 118.444 208.347 C 148.340 182.193,174.044 159.463,175.564 157.837 C 184.904 147.847,181.508 131.502,168.719 124.889 C 165.167 123.052,157.289 122.588,153.533 123.995 M345.282 124.081 C 330.556 129.562,326.434 148.084,337.528 158.925 C 339.573 160.924,365.242 183.488,394.569 209.067 C 423.895 234.645,447.890 255.765,447.890 256.000 C 447.890 256.235,423.895 277.355,394.569 302.933 C 365.242 328.512,339.573 351.076,337.528 353.075 C 330.835 359.615,329.252 368.970,333.440 377.228 C 338.880 387.955,352.060 392.192,361.890 386.375 C 363.701 385.304,394.669 358.639,430.709 327.121 C 478.538 285.292,496.808 268.814,498.357 266.107 C 501.404 260.785,501.404 251.215,498.357 245.893 C 496.808 243.186,478.538 226.708,430.709 184.879 C 394.669 153.361,363.661 126.673,361.803 125.573 C 357.543 123.053,349.900 122.362,345.282 124.081 M156.437 226.459 C 148.515 229.045,141.360 235.658,137.564 243.904 C 134.361 250.861,134.368 261.154,137.581 268.133 C 140.539 274.559,146.688 281.011,152.639 283.934 C 156.911 286.033,158.381 286.293,165.973 286.293 C 176.270 286.293,180.263 284.773,187.201 278.211 C 193.900 271.876,196.641 265.426,196.641 256.000 C 196.641 249.843,196.274 247.944,194.215 243.437 C 191.347 237.161,184.580 230.331,178.561 227.636 C 173.479 225.362,161.717 224.736,156.437 226.459 M245.601 226.883 C 236.274 230.625,230.345 236.565,226.975 245.545 C 224.398 252.412,224.824 262.134,228.003 268.968 C 230.882 275.158,236.820 281.103,243.032 284.015 C 247.242 285.988,248.990 286.293,256.086 286.293 C 263.767 286.293,264.644 286.107,270.122 283.307 C 277.081 279.750,282.203 273.973,284.996 266.533 C 287.604 259.585,287.192 249.902,283.997 243.032 C 281.114 236.834,275.172 230.890,268.968 227.999 C 262.503 224.986,251.622 224.467,245.601 226.883 M336.490 226.459 C 328.581 229.041,321.451 235.560,317.715 243.627 C 315.706 247.964,315.345 249.856,315.351 256.000 C 315.361 265.428,318.106 271.881,324.799 278.211 C 331.737 284.773,335.730 286.293,346.027 286.293 C 353.768 286.293,355.018 286.062,359.490 283.797 C 371.887 277.519,378.914 263.719,376.350 250.688 C 375.014 243.898,372.860 239.723,368.027 234.556 C 362.286 228.418,356.400 225.849,347.376 225.544 C 342.842 225.391,338.696 225.739,336.490 226.459 " stroke="none" fill="black" fill-rule="evenodd"></path></svg>