<svg xmlns="http://www.w3.org/2000/svg" width="512" height="512" viewBox="0 0 512 512"><path d="M153.906 129.186 C 151.478 130.285,24.303 240.993,19.897 245.843 C 14.932 251.307,14.932 260.693,19.897 266.157 C 25.037 271.815,151.665 381.788,154.313 382.895 C 161.475 385.887,170.580 382.271,174.078 375.044 C 176.496 370.050,176.179 363.400,173.333 359.403 C 172.283 357.928,145.718 334.226,114.299 306.731 C 82.880 279.237,57.173 256.408,57.173 256.000 C 57.173 255.592,82.880 232.763,114.299 205.269 C 145.718 177.774,172.283 154.072,173.333 152.597 C 177.913 146.166,175.661 135.320,168.805 130.783 C 164.752 128.101,157.920 127.369,153.906 129.186 M344.890 129.831 C 339.273 132.611,336.640 137.182,336.640 144.151 C 336.640 148.642,337.032 150.310,338.608 152.519 C 339.690 154.037,366.282 177.774,397.701 205.269 C 429.120 232.763,454.827 255.592,454.827 256.000 C 454.827 256.408,429.120 279.237,397.701 306.731 C 366.282 334.226,339.717 357.928,338.667 359.403 C 335.821 363.400,335.504 370.050,337.922 375.044 C 341.420 382.271,350.525 385.887,357.687 382.895 C 360.335 381.788,486.963 271.815,492.103 266.157 C 494.554 263.460,495.787 260.061,495.787 256.000 C 495.787 251.939,494.554 248.540,492.103 245.843 C 487.224 240.472,360.406 130.241,357.904 129.196 C 353.820 127.490,349.161 127.717,344.890 129.831 M249.584 145.403 C 246.074 146.932,241.776 152.016,240.691 155.923 C 240.097 158.063,239.795 185.115,239.791 236.367 L 239.787 313.586 219.947 293.794 C 209.035 282.908,199.026 273.599,197.704 273.107 C 194.388 271.873,189.070 271.989,185.773 273.366 C 182.125 274.890,177.805 279.913,176.691 283.923 C 174.164 293.025,174.926 294.034,213.093 332.115 C 235.379 354.350,247.225 365.569,249.360 366.462 C 253.405 368.152,258.595 368.152,262.640 366.462 C 264.775 365.569,276.621 354.350,298.907 332.115 C 337.074 294.034,337.836 293.025,335.309 283.923 C 334.195 279.913,329.875 274.890,326.227 273.366 C 322.930 271.989,317.612 271.873,314.296 273.107 C 312.974 273.599,302.965 282.908,292.053 293.794 L 272.213 313.586 272.209 236.367 C 272.205 185.115,271.903 158.063,271.309 155.923 C 270.195 151.913,265.875 146.890,262.227 145.366 C 258.764 143.919,252.951 143.936,249.584 145.403 " stroke="none" fill="black" fill-rule="evenodd"></path></svg>