<svg xmlns="http://www.w3.org/2000/svg" width="512" height="512" viewBox="0 0 512 512"><path d="M245.333 48.305 C 211.096 51.850,183.429 64.803,159.956 88.276 C 140.429 107.803,128.615 129.638,122.853 156.851 C 121.828 161.689,121.154 165.812,121.354 166.012 C 121.554 166.212,125.916 165.438,131.046 164.292 C 144.413 161.305,152.979 160.425,168.511 160.442 C 182.093 160.458,194.324 161.724,205.415 164.261 C 219.763 167.545,241.017 175.938,251.830 182.591 L 256.000 185.158 260.166 182.594 C 270.559 176.199,288.956 168.824,303.787 165.107 C 328.415 158.935,358.039 158.784,382.961 164.703 C 386.959 165.652,390.380 166.277,390.565 166.092 C 390.750 165.907,390.094 161.773,389.106 156.905 C 383.791 130.699,371.599 108.016,352.427 88.661 C 326.843 62.833,295.920 49.345,259.848 48.280 C 253.742 48.099,247.211 48.111,245.333 48.305 M154.880 192.534 C 147.690 193.297,133.284 196.324,127.568 198.273 L 121.600 200.307 121.788 204.067 C 122.090 210.130,126.627 226.701,130.617 236.311 C 134.993 246.853,141.585 258.099,148.911 267.520 C 154.679 274.938,168.861 288.902,175.119 293.326 L 179.032 296.092 180.500 289.486 C 183.577 275.644,192.154 254.675,200.255 241.190 C 205.375 232.669,214.621 220.580,221.632 213.241 C 229.012 205.517,229.144 206.260,219.686 202.294 C 211.972 199.059,200.399 195.709,191.158 194.037 C 184.034 192.748,161.614 191.819,154.880 192.534 M325.973 193.227 C 316.461 194.606,306.249 197.127,297.602 200.229 C 292.196 202.169,285.266 205.252,284.246 206.170 C 284.059 206.339,286.750 209.460,290.227 213.105 C 301.989 225.436,311.244 238.944,319.157 255.328 C 324.286 265.950,330.077 282.233,331.917 291.208 L 332.924 296.123 336.859 293.342 C 343.146 288.898,357.318 274.943,363.084 267.520 C 370.274 258.263,376.669 247.373,381.216 236.644 C 385.292 227.028,389.692 211.067,390.130 204.311 L 390.400 200.141 385.707 198.563 C 369.418 193.084,343.145 190.737,325.973 193.227 M85.896 219.738 C 64.421 235.803,46.825 260.714,38.582 286.720 C 33.513 302.711,32.851 307.564,32.878 328.533 C 32.901 346.214,33.079 348.476,35.131 357.120 C 39.380 375.029,45.411 388.897,55.530 404.029 C 72.705 429.715,100.745 450.189,130.282 458.614 C 143.657 462.429,152.929 463.664,168.107 463.654 C 183.247 463.644,192.082 462.446,205.428 458.592 C 212.322 456.602,226.647 451.184,227.639 450.192 C 227.873 449.958,225.271 446.777,221.857 443.123 C 201.693 421.542,187.840 396.041,180.947 367.813 C 178.745 358.796,177.942 353.472,176.112 335.787 L 175.671 331.520 169.052 327.523 C 158.729 321.289,148.876 313.646,139.661 304.723 C 116.758 282.545,101.552 256.703,93.585 226.415 L 90.853 216.030 85.896 219.738 M419.434 222.564 C 414.208 244.756,404.221 265.993,390.068 285.013 C 384.169 292.941,370.220 307.469,362.168 314.069 C 356.966 318.334,339.063 330.557,336.966 331.276 C 336.574 331.410,335.861 336.011,335.381 341.500 C 331.974 380.448,315.890 416.280,289.395 443.948 C 286.360 447.116,284.037 449.865,284.232 450.055 C 284.427 450.246,287.888 451.766,291.922 453.433 C 312.483 461.931,335.272 465.489,355.840 463.413 C 374.843 461.495,387.781 457.771,404.907 449.292 C 442.930 430.464,470.688 393.137,477.860 351.189 C 480.176 337.639,480.193 318.675,477.901 305.270 C 473.665 280.491,461.962 256.037,445.718 238.021 C 439.106 230.688,429.723 222.024,424.506 218.435 L 420.978 216.008 419.434 222.564 M246.305 233.848 C 231.914 248.866,221.466 265.965,215.138 284.855 C 211.891 294.547,208.582 310.474,209.605 311.483 C 210.650 312.514,223.878 316.252,232.748 318.022 C 238.346 319.140,244.269 319.501,256.427 319.468 C 273.776 319.419,282.475 318.182,296.107 313.824 L 302.507 311.778 302.279 307.995 C 301.681 298.082,294.092 275.051,287.519 263.203 C 281.871 253.021,274.212 242.737,265.540 233.687 C 260.660 228.594,256.367 224.427,256.000 224.427 C 255.633 224.427,251.271 228.666,246.305 233.848 M209.067 346.013 C 209.067 346.343,209.834 350.377,210.772 354.979 C 214.328 372.428,222.875 392.131,233.234 406.757 C 239.174 415.143,254.047 430.948,256.000 430.948 C 257.953 430.948,272.826 415.143,278.766 406.757 C 289.168 392.071,297.672 372.431,301.266 354.795 C 302.224 350.092,302.868 346.104,302.697 345.932 C 302.525 345.761,298.274 346.549,293.249 347.685 C 278.204 351.084,269.501 351.829,250.652 351.332 C 234.130 350.896,225.527 349.733,211.413 346.031 C 210.123 345.692,209.067 345.684,209.067 346.013 " stroke="none" fill="black" fill-rule="evenodd"></path></svg>