<svg xmlns="http://www.w3.org/2000/svg" width="512" height="512" viewBox="0 0 512 512"><path d="M123.307 32.114 C 117.908 32.945,111.131 35.258,105.387 38.231 C 97.084 42.528,83.493 56.117,79.187 64.427 C 70.465 81.260,71.228 101.549,81.165 116.974 C 83.374 120.402,93.122 130.919,107.204 145.067 L 129.713 167.680 85.038 212.053 C 37.137 259.631,37.185 259.574,33.688 271.690 C 32.608 275.430,32.335 278.810,32.619 284.917 C 33.049 294.194,34.899 300.285,39.366 307.136 C 42.796 312.397,176.166 440.869,183.080 445.572 C 196.798 454.905,216.595 455.149,230.507 446.157 C 235.335 443.037,244.625 434.177,328.746 352.470 C 353.595 328.335,365.281 317.549,367.374 316.817 C 369.024 316.240,374.778 315.416,380.161 314.986 C 388.320 314.334,390.583 313.832,393.771 311.963 C 400.563 307.983,404.532 300.995,404.646 292.816 C 404.790 282.524,409.383 287.587,314.595 193.558 C 157.280 37.504,161.600 41.705,154.880 38.236 C 151.595 36.539,146.807 34.534,144.240 33.780 C 139.394 32.355,127.757 31.429,123.307 32.114 M136.861 65.005 C 139.779 65.840,144.240 69.845,163.214 88.664 L 186.054 111.317 169.622 127.765 C 160.584 136.812,152.785 144.213,152.291 144.213 C 151.797 144.213,141.731 134.504,129.924 122.638 C 114.627 107.265,107.958 99.967,106.726 97.251 C 104.380 92.078,104.469 85.995,106.969 80.640 C 109.344 75.553,118.694 66.463,122.948 65.106 C 126.925 63.837,132.634 63.795,136.861 65.005 M285.501 209.664 C 347.824 271.530,361.023 285.024,359.647 285.467 C 358.727 285.763,355.499 287.009,352.476 288.235 C 346.119 290.813,350.828 286.434,269.245 365.653 C 239.762 394.283,214.640 418.376,213.420 419.194 C 210.844 420.921,204.418 421.141,201.689 419.596 C 200.683 419.026,169.685 389.587,132.807 354.175 C 89.227 312.330,65.447 288.910,64.877 287.275 C 63.572 283.532,63.811 280.641,65.676 277.581 C 67.482 274.619,208.300 133.922,209.161 134.220 C 209.447 134.319,243.801 168.269,285.501 209.664 M408.997 321.354 C 401.229 324.218,374.929 355.682,363.663 375.591 C 351.365 397.324,348.958 421.626,357.229 440.547 C 364.761 457.777,378.984 470.946,396.373 476.792 C 402.577 478.877,404.368 479.086,416.000 479.086 C 427.632 479.086,429.423 478.877,435.627 476.792 C 445.584 473.445,452.608 468.988,460.831 460.800 C 468.610 453.055,473.284 445.416,477.018 434.347 C 479.709 426.368,480.328 410.524,478.304 401.393 C 474.009 382.011,462.111 362.200,438.757 335.541 C 433.378 329.399,427.580 323.655,425.688 322.592 C 421.305 320.129,413.827 319.574,408.997 321.354 M422.806 366.111 C 438.783 385.307,448.000 403.246,448.000 415.147 C 448.000 427.658,440.073 439.906,428.476 445.311 C 424.419 447.202,422.496 447.546,416.000 447.546 C 409.471 447.546,407.588 447.206,403.441 445.273 C 390.056 439.036,382.153 424.332,384.578 410.175 C 385.901 402.451,390.184 392.910,396.792 382.963 C 402.015 375.103,415.092 358.400,416.023 358.400 C 416.224 358.400,419.277 361.870,422.806 366.111 " stroke="none" fill="black" fill-rule="evenodd"></path></svg>