<svg version="1.1" id="icons" xmlns="http://www.w3.org/2000/svg" xmlns:xlink="http://www.w3.org/1999/xlink" x="0px" y="0px" viewBox="0 0 512 512" style="enable-background:new 0 0 512 512;" xml:space="preserve"><path d="M184.175 34.156 C 180.700 35.992,178.256 39.054,176.771 43.434 C 175.490 47.210,175.422 95.506,176.691 100.077 C 177.805 104.087,182.125 109.110,185.773 110.634 C 189.301 112.108,194.699 112.108,198.227 110.634 C 201.875 109.110,206.195 104.087,207.309 100.077 C 208.578 95.506,208.510 47.210,207.229 43.434 C 205.715 38.969,203.269 35.964,199.642 34.114 C 195.332 31.915,188.382 31.934,184.175 34.156 M84.053 75.435 C 76.018 78.977,72.238 88.225,75.551 96.241 C 77.327 100.537,112.674 136.126,117.333 138.310 C 121.657 140.336,126.619 140.347,130.987 138.342 C 135.047 136.477,136.866 134.574,138.634 130.343 C 140.415 126.080,140.284 120.901,138.299 117.086 C 135.893 112.463,100.154 77.169,96.241 75.551 C 92.392 73.961,87.505 73.914,84.053 75.435 M287.147 75.824 C 282.450 78.097,247.109 113.726,245.365 117.946 C 243.056 123.531,244.215 130.710,248.139 135.129 C 250.330 137.597,255.991 139.909,259.840 139.909 C 266.160 139.909,269.316 137.496,288.963 117.642 C 309.417 96.973,310.447 95.483,309.428 88.042 C 308.396 80.519,302.815 75.267,295.123 74.580 C 291.719 74.276,289.693 74.592,287.147 75.824 M189.675 153.982 C 162.861 160.081,146.574 189.051,155.319 215.093 C 158.620 224.924,161.927 229.015,185.801 252.800 C 208.055 274.972,208.810 275.627,212.094 275.627 C 215.401 275.627,216.137 274.965,245.551 245.542 C 274.933 216.152,275.627 215.380,275.627 212.086 C 275.627 208.817,274.943 208.026,253.227 186.176 C 240.554 173.426,228.630 162.195,225.768 160.313 C 216.066 153.935,201.283 151.342,189.675 153.982 M43.093 176.829 C 36.247 179.256,32.427 184.690,32.427 192.000 C 32.427 199.470,36.281 204.803,43.434 207.229 C 47.210 208.510,95.506 208.578,100.077 207.309 C 104.087 206.195,109.110 201.875,110.634 198.227 C 112.108 194.699,112.108 189.301,110.634 185.773 C 109.110 182.125,104.087 177.805,100.077 176.691 C 95.751 175.490,46.535 175.609,43.093 176.829 M297.387 239.698 C 292.594 242.716,239.080 297.246,238.470 299.733 C 238.154 301.024,238.116 302.944,238.386 304.000 C 238.656 305.056,274.314 341.303,317.625 384.549 C 394.681 461.489,396.511 463.242,402.773 466.173 C 410.346 469.717,416.135 471.045,423.935 471.027 C 436.865 470.999,447.679 466.435,457.045 457.055 C 472.684 441.392,475.543 417.752,464.084 398.846 C 462.302 395.905,434.629 367.636,383.210 316.228 C 297.997 231.034,303.440 235.887,297.387 239.698 M117.333 245.683 C 112.113 248.119,76.467 284.458,75.097 288.741 C 72.065 298.220,78.511 308.444,88.210 309.537 C 95.550 310.364,97.139 309.253,117.642 288.963 C 137.496 269.316,139.909 266.160,139.909 259.840 C 139.909 255.991,137.597 250.330,135.129 248.139 C 130.515 244.042,123.058 243.013,117.333 245.683 " stroke="none" fill="black" fill-rule="evenodd"></path></svg>