<svg xmlns="http://www.w3.org/2000/svg" width="512" height="512" viewBox="0 0 512 512"><path d="M176.374 32.124 C 176.051 32.447,175.787 50.503,175.787 72.249 L 175.787 111.787 192.008 111.787 L 208.230 111.787 208.008 71.893 L 207.787 32.000 192.374 31.768 C 183.897 31.640,176.697 31.800,176.374 32.124 M78.930 79.364 L 67.857 90.461 96.000 118.614 L 124.144 146.767 135.462 135.472 L 146.780 124.177 118.835 96.222 C 103.465 80.846,90.690 68.267,90.446 68.267 C 90.202 68.267,85.019 73.260,78.930 79.364 M265.165 96.222 L 237.220 124.177 248.538 135.472 L 259.856 146.767 288.225 118.388 L 316.594 90.010 305.699 79.138 C 299.706 73.159,294.422 68.267,293.957 68.267 C 293.491 68.267,280.535 80.846,265.165 96.222 M166.825 167.255 L 133.552 200.536 172.589 239.574 L 211.626 278.611 245.117 245.120 L 278.608 211.629 239.788 172.801 C 218.436 151.446,200.772 133.973,200.533 133.973 C 200.294 133.973,185.125 148.950,166.825 167.255 M31.952 176.883 C 31.721 177.486,31.637 184.686,31.766 192.883 L 32.000 207.787 71.893 208.008 L 111.787 208.230 111.787 192.008 L 111.787 175.787 72.080 175.787 C 40.523 175.787,32.287 176.012,31.952 176.883 M267.573 267.894 L 234.354 301.121 282.242 349.601 C 308.580 376.264,348.587 416.511,371.146 439.038 L 412.162 479.995 446.081 446.010 L 480.000 412.025 390.898 323.346 C 341.891 274.572,301.570 234.667,301.294 234.667 C 301.018 234.667,285.843 249.619,267.573 267.894 M96.205 265.181 C 80.839 280.553,68.267 293.517,68.267 293.990 C 68.267 294.464,73.166 299.740,79.155 305.715 L 90.043 316.580 118.412 288.202 L 146.780 259.823 135.462 248.528 L 124.144 237.233 96.205 265.181 " stroke="none" fill="black" fill-rule="evenodd"></path></svg>