<svg xmlns="http://www.w3.org/2000/svg" width="512" height="512" viewBox="0 0 512 512"><path d="M243.627 48.295 C 200.707 51.540,163.787 65.309,129.707 90.781 C 119.276 98.577,98.579 119.277,90.713 129.782 C 68.255 159.772,54.418 193.768,49.413 231.253 C 48.019 241.696,48.019 270.304,49.413 280.747 C 59.554 356.698,107.829 420.063,177.067 448.304 C 203.509 459.089,227.771 463.751,256.853 463.634 C 290.198 463.499,318.398 456.932,347.733 442.471 C 410.837 411.362,453.091 351.864,462.587 280.747 C 463.981 270.304,463.981 241.696,462.587 231.253 C 453.091 160.136,410.837 100.638,347.733 69.529 C 327.592 59.600,306.356 53.073,283.994 49.939 C 275.010 48.680,251.306 47.715,243.627 48.295 M275.447 81.114 C 347.484 88.943,408.291 141.727,426.231 212.001 C 448.394 298.823,402.945 387.270,319.249 420.197 C 293.994 430.132,262.077 434.038,234.686 430.544 C 145.853 419.214,80.213 345.046,80.213 256.000 C 80.213 167.651,145.919 92.766,233.311 81.514 C 244.096 80.125,264.562 79.931,275.447 81.114 M291.840 174.400 C 258.752 187.674,229.754 199.521,227.401 200.726 C 216.248 206.440,206.610 216.207,200.644 227.840 C 198.839 231.360,186.693 260.973,173.653 293.646 C 148.616 356.379,148.920 355.426,152.747 359.253 C 156.574 363.080,155.621 363.384,218.354 338.347 C 251.027 325.307,280.640 313.163,284.160 311.360 C 295.659 305.471,305.129 296.164,310.970 285.013 C 314.342 278.577,361.813 160.218,361.813 158.248 C 361.813 154.402,357.352 150.121,353.453 150.226 C 352.654 150.247,324.928 161.126,291.840 174.400 M264.161 233.537 C 269.800 235.458,276.542 242.200,278.463 247.839 C 281.599 257.043,279.560 265.832,272.696 272.696 C 262.993 282.398,249.007 282.398,239.304 272.696 C 229.594 262.986,229.601 249.008,239.320 239.288 C 246.146 232.463,254.995 230.414,264.161 233.537 " stroke="none" fill="black" fill-rule="evenodd"></path></svg>