<svg xmlns="http://www.w3.org/2000/svg" width="512" height="512" viewBox="0 0 512 512"><path d="M196.267 48.387 C 183.303 49.407,168.523 53.449,152.995 60.221 C 119.446 74.853,89.932 96.796,69.288 122.453 C 61.661 131.934,59.650 135.970,59.092 142.929 L 58.656 148.362 52.811 147.872 C 43.036 147.052,41.321 148.096,21.948 166.655 C 12.411 175.790,4.059 184.542,2.748 186.772 C -0.326 192.000,-0.512 200.792,2.336 206.189 C 5.020 211.275,53.316 258.305,58.964 261.333 C 62.266 263.103,64.523 263.678,68.151 263.672 C 76.352 263.657,79.568 261.442,98.708 242.628 C 115.354 226.267,115.972 225.537,117.396 220.587 C 119.167 214.423,118.240 208.179,114.775 202.942 L 112.616 199.680 116.032 199.680 C 125.319 199.680,138.777 208.736,162.127 230.697 L 171.081 239.119 172.149 245.446 C 173.833 255.414,176.309 259.292,189.526 272.662 L 201.357 284.630 163.688 319.595 C 112.073 367.504,109.093 370.403,105.001 376.683 C 89.275 400.821,94.985 434.315,117.822 451.888 C 123.586 456.323,132.987 460.877,139.947 462.606 C 147.806 464.558,161.348 463.986,169.387 461.364 C 177.543 458.703,185.426 454.180,191.131 448.888 C 193.428 446.757,212.838 426.197,234.266 403.200 C 255.693 380.203,273.675 361.061,274.226 360.663 C 274.892 360.183,277.965 362.761,283.382 368.343 C 299.905 385.372,343.380 432.276,356.715 447.462 C 365.888 457.907,370.282 461.073,378.378 463.071 C 383.141 464.247,385.012 464.326,389.266 463.535 C 398.901 461.743,401.024 460.160,422.568 438.701 C 446.442 414.922,447.590 413.192,447.549 401.067 C 447.528 395.050,447.144 393.013,445.298 389.120 C 442.462 383.142,440.459 380.963,427.947 370.243 C 415.644 359.702,401.046 346.580,368.730 317.013 C 355.392 304.811,343.353 293.863,341.975 292.686 L 339.469 290.545 350.057 279.559 L 360.644 268.572 365.709 269.035 C 368.494 269.290,374.421 270.329,378.880 271.345 C 389.369 273.734,413.702 274.648,425.212 273.086 C 446.759 270.160,465.822 261.030,480.277 246.710 C 498.635 228.524,510.037 201.566,511.717 172.373 C 512.854 152.624,507.199 128.219,499.913 121.427 C 495.252 117.083,487.465 115.725,481.501 118.218 C 479.436 119.080,468.699 129.151,450.115 147.658 C 421.930 175.724,421.859 175.787,418.251 175.787 C 416.262 175.787,413.598 175.237,412.331 174.565 C 409.577 173.105,386.298 149.710,384.945 147.043 C 383.733 144.652,383.734 140.357,384.948 137.971 C 385.469 136.945,398.289 123.627,413.436 108.373 C 443.189 78.411,443.463 78.051,442.679 69.889 C 441.816 60.904,435.050 55.788,418.462 51.581 C 369.780 39.231,316.811 61.527,295.705 103.253 C 291.761 111.050,287.715 124.231,286.164 134.337 C 284.238 146.882,285.049 167.710,287.995 181.333 C 291.144 195.898,291.338 197.624,290.153 200.486 C 288.993 203.285,269.296 222.187,268.019 221.727 C 267.581 221.569,261.295 215.844,254.051 209.004 C 240.313 196.032,236.509 193.508,228.020 191.727 C 223.588 190.798,222.896 190.245,211.733 178.733 C 205.320 172.120,198.178 163.936,195.861 160.546 C 192.132 155.087,191.613 153.775,191.327 149.084 C 191.150 146.170,191.610 140.907,192.349 137.387 C 195.184 123.896,201.855 115.164,213.564 109.617 C 226.976 103.263,240.504 101.700,253.090 105.050 C 263.216 107.746,263.125 107.735,266.997 106.693 C 271.523 105.474,276.928 100.668,278.238 96.698 C 279.763 92.077,278.832 85.940,275.967 81.727 C 271.550 75.233,260.119 64.421,253.808 60.769 C 236.659 50.846,217.478 46.718,196.267 48.387 M195.840 82.599 C 176.867 93.071,164.969 109.745,160.874 131.603 C 159.204 140.511,159.008 154.138,160.463 160.000 C 161.790 165.342,165.242 172.468,169.640 178.944 C 173.016 183.916,185.102 197.838,190.192 202.619 L 192.866 205.132 190.182 207.902 L 187.497 210.672 178.868 202.636 C 167.597 192.137,154.799 181.978,146.591 177.012 C 128.984 166.360,111.131 164.916,95.428 172.874 C 89.446 175.905,85.950 179.344,82.739 185.357 C 80.281 189.958,79.825 191.751,79.531 197.973 C 79.258 203.733,79.533 206.133,80.868 209.628 L 82.550 214.029 75.387 220.585 L 68.224 227.140 57.365 216.890 C 51.393 211.253,44.279 204.371,41.556 201.598 L 36.606 196.556 44.050 189.798 L 51.494 183.040 60.093 182.990 C 66.856 182.950,69.711 182.539,73.454 181.063 C 85.514 176.309,92.265 164.930,90.727 151.947 C 90.244 147.863,90.396 147.431,93.963 142.800 C 114.911 115.602,159.901 87.041,190.554 81.481 C 199.794 79.805,200.596 79.974,195.840 82.599 M378.328 98.347 C 368.423 108.330,359.281 118.316,357.989 120.564 C 350.016 134.439,350.512 153.125,359.197 166.101 C 361.035 168.847,369.191 177.663,377.323 185.692 C 390.349 198.556,392.883 200.663,398.638 203.419 C 407.688 207.753,416.233 208.958,425.062 207.144 C 437.433 204.603,439.664 203.044,460.587 182.311 L 479.573 163.497 479.573 169.912 C 479.573 187.132,472.327 207.073,461.196 220.488 C 454.094 229.047,441.996 236.305,428.800 239.926 C 418.860 242.653,396.683 242.632,384.427 239.884 C 368.361 236.282,364.679 235.960,357.175 237.499 C 346.873 239.612,342.039 242.405,332.627 251.680 C 328.074 256.168,289.388 297.280,246.659 343.040 C 159.633 436.240,164.343 431.787,152.808 431.787 C 143.061 431.787,135.121 426.850,130.321 417.806 C 127.509 412.508,127.642 402.128,130.597 396.351 C 132.368 392.886,145.379 380.379,201.423 328.267 C 239.184 293.155,279.405 255.754,290.802 245.154 C 302.199 234.553,312.676 224.426,314.084 222.647 C 320.130 215.014,324.045 201.475,322.871 192.261 C 322.584 190.005,321.436 184.320,320.320 179.627 C 314.587 155.513,316.160 133.399,324.782 116.886 C 332.453 102.195,346.870 90.570,364.897 84.541 C 374.382 81.368,379.676 80.443,389.094 80.313 L 396.321 80.213 378.328 98.347 M244.053 244.175 C 244.053 245.093,225.891 261.973,224.904 261.973 C 223.731 261.973,203.947 242.201,203.947 241.029 C 203.947 240.524,207.965 236.157,212.876 231.324 L 221.805 222.537 232.929 233.061 C 239.047 238.849,244.053 243.850,244.053 244.175 M345.626 339.289 C 367.144 359.020,393.744 382.981,409.471 396.800 L 414.812 401.493 399.982 416.268 L 385.153 431.043 369.003 413.294 C 350.432 392.884,319.667 359.840,306.141 345.773 L 296.871 336.132 307.255 325.096 C 317.497 314.211,317.665 314.080,319.486 315.536 C 320.502 316.349,332.265 327.037,345.626 339.289 " stroke="none" fill="black" fill-rule="evenodd"></path></svg>