<svg xmlns="http://www.w3.org/2000/svg" width="512" height="512" viewBox="0 0 512 512"><path d="M442.880 42.611 C 437.597 44.224,433.249 47.486,424.115 56.691 L 414.310 66.571 429.870 82.131 L 445.430 97.690 455.697 87.459 C 469.497 73.706,471.993 68.091,468.955 57.639 C 465.800 46.785,453.128 39.483,442.880 42.611 M304.848 176.005 L 208.213 272.643 208.213 288.215 L 208.213 303.787 223.788 303.787 L 239.363 303.787 336.005 207.142 L 432.647 110.497 417.065 94.932 L 401.484 79.367 304.848 176.005 M47.787 288.000 L 47.787 464.213 224.000 464.213 L 400.213 464.213 400.213 326.189 L 400.213 188.164 326.185 262.189 L 252.156 336.213 213.972 336.213 L 175.787 336.213 175.787 298.028 L 175.787 259.844 249.811 185.815 L 323.836 111.787 185.811 111.787 L 47.787 111.787 47.787 288.000 " stroke="none" fill="black" fill-rule="evenodd"></path></svg>