<svg xmlns="http://www.w3.org/2000/svg" width="512" height="512" viewBox="0 0 512 512"><path d="M136.962 33.771 C 133.114 35.777,131.335 37.619,129.605 41.387 C 128.153 44.549,128.036 47.863,128.019 86.400 L 128.000 128.000 86.400 128.019 C 47.615 128.036,44.562 128.145,41.288 129.633 C 36.215 131.936,33.071 136.449,32.603 142.102 C 32.105 148.108,32.743 150.369,35.979 154.055 C 41.408 160.238,39.257 159.971,85.946 160.258 L 127.945 160.515 128.218 246.018 C 128.458 321.333,128.652 332.028,129.848 335.787 C 137.507 359.858,152.337 374.695,176.213 382.173 C 179.941 383.341,191.278 383.544,265.976 383.782 L 351.471 384.055 351.736 426.054 C 352.030 472.741,351.762 470.592,357.945 476.021 C 361.631 479.257,363.892 479.895,369.898 479.397 C 375.551 478.929,380.064 475.785,382.367 470.712 C 383.855 467.438,383.964 464.385,383.981 425.600 L 384.000 384.000 425.600 383.981 C 464.385 383.964,467.438 383.855,470.712 382.367 C 475.785 380.064,478.929 375.551,479.397 369.898 C 479.895 363.892,479.257 361.631,476.021 357.945 C 470.728 351.916,482.905 352.385,331.308 352.376 C 255.862 352.372,191.520 352.032,188.326 351.621 C 177.481 350.225,167.964 343.438,163.172 333.682 L 160.853 328.960 160.427 186.453 C 160.072 67.883,159.803 43.588,158.829 41.813 C 157.136 38.728,153.528 35.020,150.869 33.630 C 147.806 32.030,140.152 32.108,136.962 33.771 M202.567 128.907 C 201.104 129.341,198.349 131.386,196.446 133.451 C 189.099 141.422,191.391 153.548,201.163 158.405 C 204.185 159.906,208.026 160.025,266.667 160.427 L 328.960 160.853 333.682 163.172 C 339.710 166.133,345.867 172.290,348.828 178.318 L 351.147 183.040 351.573 245.333 C 351.975 303.974,352.094 307.815,353.595 310.837 C 356.818 317.322,363.459 320.715,370.779 319.617 C 375.942 318.843,381.864 313.672,383.178 308.790 C 383.776 306.568,383.976 284.774,383.781 242.974 C 383.467 175.711,383.688 179.159,378.951 167.352 C 373.265 153.179,359.908 139.648,345.269 133.233 C 334.159 128.364,336.753 128.530,268.373 128.316 C 231.507 128.200,204.120 128.446,202.567 128.907 " stroke="none" fill="black" fill-rule="evenodd"></path></svg>