<svg xmlns="http://www.w3.org/2000/svg" width="512" height="512" viewBox="0 0 512 512"><path d="M88.582 81.579 C 75.745 84.336,64.589 90.271,54.501 99.709 C 38.762 114.434,30.700 134.190,31.831 155.268 C 32.435 166.541,34.130 173.241,38.892 183.185 C 47.510 201.185,62.493 214.126,82.347 220.716 C 92.157 223.972,108.925 224.530,119.724 221.959 C 128.264 219.926,138.228 215.582,144.213 211.282 L 148.288 208.354 169.074 216.828 C 180.506 221.489,189.959 225.004,190.080 224.640 C 190.201 224.276,192.315 220.441,194.777 216.118 C 197.686 211.011,201.977 205.331,207.033 199.895 L 214.813 191.532 194.417 179.238 L 174.022 166.945 174.669 163.046 C 175.698 156.852,175.208 143.503,173.696 136.535 C 167.695 108.878,144.983 86.780,117.045 81.416 C 109.169 79.903,96.033 79.979,88.582 81.579 M110.563 112.712 C 125.634 115.464,138.157 127.155,142.052 142.110 C 149.418 170.391,124.046 197.015,95.402 191.060 C 75.024 186.823,61.155 166.926,64.088 146.133 C 66.299 130.457,78.724 116.937,94.408 113.140 C 100.653 111.629,104.130 111.536,110.563 112.712 M410.109 139.158 C 388.263 142.160,337.020 155.519,300.800 167.653 C 257.494 182.162,230.244 195.992,217.196 210.085 C 208.088 219.923,204.393 228.989,198.831 255.147 C 196.775 264.814,193.562 272.833,189.722 277.884 C 185.086 283.979,167.253 295.850,154.754 301.161 L 148.655 303.752 143.158 300.066 C 120.135 284.628,88.359 284.508,64.978 299.771 C 48.719 310.385,37.372 326.963,33.651 345.537 C 31.676 355.398,32.308 371.730,34.991 380.160 C 48.834 423.663,96.119 443.943,136.533 423.710 C 162.184 410.868,178.661 380.454,175.037 352.640 C 174.502 348.533,173.860 344.405,173.610 343.467 C 173.217 341.989,176.458 339.903,197.724 327.945 C 211.237 320.347,256.277 294.994,297.813 271.605 C 339.349 248.216,397.243 215.649,426.465 199.233 C 473.267 172.942,479.547 169.177,479.182 167.624 C 478.260 163.711,472.727 152.784,470.224 149.933 C 466.638 145.849,461.488 142.956,453.886 140.755 C 448.688 139.250,444.787 138.877,431.787 138.638 C 423.104 138.479,413.349 138.713,410.109 139.158 M261.704 225.337 C 274.001 229.996,274.445 248.463,262.400 254.293 C 249.581 260.499,235.615 247.494,240.697 234.082 C 243.634 226.331,253.495 222.226,261.704 225.337 M302.080 283.778 C 279.787 296.660,261.442 307.515,261.313 307.900 C 261.040 308.720,304.384 329.320,320.145 335.862 C 376.145 359.105,428.424 365.594,454.691 352.561 C 459.508 350.171,478.226 337.702,479.087 336.310 C 479.532 335.589,346.208 260.796,343.993 260.524 C 343.234 260.431,324.373 270.895,302.080 283.778 M112.902 321.273 C 130.808 325.937,143.315 341.727,143.350 359.714 C 143.389 379.474,129.085 396.197,109.358 399.455 C 88.258 402.940,67.103 387.244,64.088 365.867 C 60.153 337.965,86.074 314.285,112.902 321.273 " stroke="none" fill="black" fill-rule="evenodd"></path></svg>