<svg xmlns="http://www.w3.org/2000/svg" width="512" height="512" viewBox="0 0 512 512"><path d="M26.997 49.037 C 22.958 50.477,18.957 54.120,17.388 57.786 C 15.653 61.843,15.631 386.075,17.366 390.227 C 18.890 393.875,23.913 398.195,27.923 399.309 C 30.072 399.905,59.245 400.205,115.413 400.209 L 199.680 400.213 199.680 416.000 L 199.680 431.787 163.840 431.787 L 128.000 431.787 128.000 448.000 L 128.000 464.213 256.000 464.213 L 384.000 464.213 384.000 448.000 L 384.000 431.787 348.160 431.787 L 312.320 431.787 312.320 416.000 L 312.320 400.213 396.587 400.209 C 452.755 400.205,481.928 399.905,484.077 399.309 C 488.087 398.195,493.110 393.875,494.634 390.227 C 496.350 386.121,496.350 61.879,494.634 57.773 C 493.110 54.125,488.087 49.805,484.077 48.691 C 481.864 48.077,410.251 47.806,255.573 47.829 C 66.492 47.856,29.764 48.050,26.997 49.037 M459.947 192.000 L 459.947 300.373 256.000 300.373 L 52.053 300.373 52.053 192.000 L 52.053 83.627 256.000 83.627 L 459.947 83.627 459.947 192.000 M262.227 337.366 C 267.100 339.402,272.204 346.888,272.204 352.000 C 272.204 354.745,270.050 359.715,267.700 362.390 C 261.278 369.705,250.722 369.705,244.300 362.390 C 241.950 359.715,239.796 354.745,239.796 352.000 C 239.796 346.997,244.845 339.468,249.584 337.403 C 252.951 335.936,258.764 335.919,262.227 337.366 " stroke="none" fill="black" fill-rule="evenodd"></path></svg>