<svg xmlns="http://www.w3.org/2000/svg" width="512" height="512" viewBox="0 0 512 512"><path d="M144.366 17.873 C 116.604 24.692,98.888 48.351,96.410 81.920 C 95.380 95.874,95.369 226.039,96.397 235.810 C 98.333 254.211,111.562 268.299,129.791 271.374 C 149.876 274.762,170.324 261.169,174.882 241.398 C 175.430 239.017,175.753 208.297,175.766 157.069 C 175.787 76.674,175.782 76.477,173.977 72.746 C 168.827 62.108,153.494 61.164,146.930 71.081 L 144.640 74.541 144.213 155.105 L 143.787 235.668 141.392 237.728 C 137.955 240.684,133.705 240.503,130.465 237.263 L 127.941 234.739 128.198 155.556 C 128.438 81.697,128.559 76.058,130.007 71.680 C 133.442 61.292,139.118 54.286,146.977 50.733 C 151.471 48.701,153.472 48.313,159.573 48.292 C 164.375 48.274,168.332 48.782,171.281 49.793 C 177.368 51.880,183.636 57.704,186.859 64.269 C 192.002 74.742,191.970 74.150,191.979 157.013 C 191.984 205.345,191.667 234.530,191.097 238.080 C 187.441 260.872,174.264 278.018,155.205 284.782 C 146.914 287.724,130.513 288.516,121.993 286.385 C 103.014 281.639,88.976 267.437,82.659 246.590 C 80.772 240.363,80.716 239.035,80.257 189.867 C 79.840 145.188,79.628 139.232,78.374 136.960 C 75.480 131.714,69.402 127.981,63.814 128.019 C 57.347 128.062,50.438 133.421,48.678 139.760 C 47.476 144.088,47.498 227.023,48.704 237.839 C 51.959 267.033,66.400 292.027,88.170 306.147 C 98.646 312.943,110.857 317.493,122.526 318.950 L 127.573 319.580 128.042 381.443 C 128.561 449.990,128.297 446.751,134.406 459.545 C 142.132 475.727,156.313 487.814,174.080 493.362 L 180.480 495.360 296.533 495.360 L 412.587 495.360 419.413 493.019 C 440.245 485.874,455.780 469.542,461.831 448.427 L 463.787 441.600 463.787 334.933 L 463.787 228.267 461.792 222.720 C 457.447 210.641,457.648 210.861,379.821 133.001 C 334.354 87.514,304.075 57.865,301.125 55.941 C 298.488 54.221,293.496 51.781,290.032 50.520 L 283.733 48.226 249.141 47.948 L 214.548 47.669 212.050 43.675 C 206.199 34.316,195.201 25.087,184.588 20.631 C 173.816 16.108,156.413 14.915,144.366 17.873 M272.213 139.341 C 272.213 204.443,272.129 203.256,277.560 214.187 C 281.236 221.585,290.415 230.764,297.813 234.440 C 308.745 239.872,307.556 239.787,372.673 239.787 L 431.814 239.787 431.587 340.267 L 431.360 440.747 428.673 445.867 C 423.982 454.805,417.004 460.414,407.501 462.889 C 403.036 464.052,389.460 464.213,296.396 464.213 C 221.148 464.213,189.065 463.935,185.855 463.254 C 175.860 461.133,167.289 454.477,163.132 445.608 L 160.853 440.747 160.635 378.880 L 160.417 317.013 167.035 314.561 C 194.108 304.531,213.786 281.522,221.065 251.383 C 224.013 239.179,224.543 222.311,224.265 149.546 L 224.000 80.213 248.107 80.213 L 272.213 80.213 272.213 139.341 M363.856 208.008 C 333.097 208.159,317.856 207.932,315.457 207.286 C 311.001 206.086,305.968 201.103,304.738 196.674 C 304.106 194.395,303.795 178.419,303.791 148.056 L 303.787 102.832 356.269 155.309 L 408.752 207.787 363.856 208.008 " stroke="none" fill="black" fill-rule="evenodd"></path></svg>