<svg xmlns="http://www.w3.org/2000/svg" viewBox="0 0 512 512"><path d="M85.588 34.099 C 79.743 37.663,80.213 18.247,80.217 256.171 C 80.220 468.199,80.245 471.508,81.885 474.199 C 82.802 475.701,84.816 477.621,86.362 478.465 C 89.041 479.928,97.013 480.000,256.000 480.000 C 414.987 480.000,422.959 479.928,425.638 478.465 C 427.184 477.621,429.198 475.701,430.115 474.199 C 431.746 471.522,431.780 468.950,431.783 347.965 L 431.787 224.463 338.366 224.232 L 244.945 224.000 242.579 221.634 L 240.213 219.268 239.989 125.847 L 239.764 32.427 164.042 32.430 C 90.445 32.433,88.243 32.480,85.588 34.099 M272.213 115.029 C 272.213 172.165,272.456 190.195,273.237 190.976 C 274.018 191.757,291.960 192.000,348.784 192.000 C 416.344 192.000,423.356 191.872,423.831 190.633 C 424.213 189.638,404.099 169.008,349.780 114.686 C 307.663 72.567,274.553 40.107,273.708 40.107 C 272.295 40.107,272.213 44.208,272.213 115.029 M270.685 242.341 C 286.234 247.170,298.480 259.878,302.516 275.373 C 303.344 278.553,303.787 284.351,303.787 292.019 L 303.787 303.787 312.533 303.791 C 317.344 303.794,322.807 304.220,324.674 304.738 C 329.131 305.976,334.085 311.000,335.301 315.515 C 335.965 317.982,336.187 332.110,336.023 361.564 C 335.794 402.770,335.733 404.156,334.003 407.467 C 332.893 409.591,330.662 411.847,328.096 413.440 L 323.974 416.000 256.000 416.000 L 188.026 416.000 183.904 413.440 C 181.338 411.847,179.107 409.591,177.997 407.467 C 176.270 404.162,176.205 402.726,175.945 362.240 C 175.643 315.295,175.827 313.167,180.582 308.549 C 184.346 304.894,188.775 303.787,199.631 303.787 L 208.213 303.787 208.213 292.019 C 208.213 278.950,209.257 273.461,213.246 265.560 C 219.568 253.036,233.071 243.298,247.763 240.668 C 253.824 239.583,264.257 240.345,270.685 242.341 M248.747 273.629 C 244.641 275.790,241.547 279.139,240.639 282.405 C 240.176 284.074,239.794 289.568,239.791 294.613 L 239.787 303.787 256.000 303.787 L 272.213 303.787 272.213 294.608 C 272.213 281.147,270.695 277.526,263.501 273.837 C 259.615 271.844,252.333 271.742,248.747 273.629 " stroke="none" fill="black" fill-rule="evenodd"></path></svg>