<svg xmlns="http://www.w3.org/2000/svg" width="512" height="512" viewBox="0 0 512 512"><path d="M128.096 34.172 C 106.899 39.723,90.513 55.070,83.036 76.373 L 80.640 83.200 80.640 256.000 L 80.640 428.800 83.036 435.627 C 86.605 445.795,91.520 453.510,99.346 461.227 C 111.148 472.863,122.747 478.079,140.364 479.670 C 146.240 480.200,192.280 480.402,263.253 480.210 C 369.528 479.921,377.127 479.803,382.720 478.353 C 404.583 472.686,421.416 457.133,428.964 435.627 L 431.360 428.800 431.594 327.792 C 431.762 255.225,431.563 226.465,430.888 225.652 C 430.124 224.732,415.950 224.461,355.134 224.206 C 289.919 223.933,279.773 223.719,276.053 222.544 C 261.875 218.065,252.592 210.751,245.954 198.827 C 239.948 188.039,240.273 192.894,239.985 109.703 C 239.803 57.325,239.445 34.323,238.798 33.543 C 238.052 32.645,227.763 32.436,186.136 32.474 C 137.810 32.518,133.984 32.629,128.096 34.172 M272.213 111.944 C 272.213 179.057,272.226 179.540,274.023 183.254 C 275.114 185.506,277.210 187.904,279.294 189.283 L 282.755 191.573 350.892 191.802 C 413.033 192.010,419.075 191.908,419.559 190.648 C 419.949 189.633,400.876 170.052,347.647 116.820 C 306.749 75.920,274.553 44.373,273.709 44.373 C 272.296 44.373,272.213 48.127,272.213 111.944 " stroke="none" fill="black" fill-rule="evenodd"></path></svg>