<svg xmlns="http://www.w3.org/2000/svg" width="512" height="512" viewBox="0 0 512 512"><path d="M240.187 32.621 C 239.959 33.218,239.871 62.123,239.993 96.853 L 240.213 160.000 256.000 160.000 L 271.787 160.000 271.787 96.000 L 271.787 32.000 256.194 31.767 C 244.186 31.588,240.506 31.784,240.187 32.621 M85.588 162.099 C 79.785 165.637,80.213 153.032,80.217 320.171 C 80.220 468.723,80.250 471.516,81.885 474.199 C 82.802 475.701,84.816 477.621,86.362 478.465 C 89.041 479.928,97.013 480.000,256.000 480.000 C 414.987 480.000,422.959 479.928,425.638 478.465 C 427.184 477.621,429.198 475.701,430.115 474.199 C 431.750 471.516,431.780 468.723,431.783 320.171 C 431.787 153.032,432.215 165.637,426.412 162.099 C 423.757 160.480,421.555 160.433,347.947 160.430 L 272.213 160.427 272.213 233.596 L 272.213 306.765 303.578 275.409 C 320.828 258.163,335.329 244.053,335.803 244.053 C 336.277 244.053,341.553 248.953,347.528 254.941 L 358.391 265.828 307.195 317.018 L 256.000 368.208 204.805 317.018 L 153.609 265.828 164.472 254.941 C 170.447 248.953,175.723 244.053,176.197 244.053 C 176.671 244.053,191.172 258.163,208.422 275.409 L 239.787 306.765 239.787 233.596 L 239.787 160.427 164.053 160.430 C 90.445 160.433,88.243 160.480,85.588 162.099 " stroke="none" fill="black" fill-rule="evenodd"></path></svg>