<svg xmlns="http://www.w3.org/2000/svg" width="512" height="512" viewBox="0 0 512 512"><path d="M55.711 33.665 C 47.054 36.370,39.077 43.384,35.317 51.596 C 34.132 54.186,32.871 59.191,32.379 63.266 C 31.819 67.898,31.602 124.858,31.758 225.707 L 32.000 381.013 33.964 385.280 C 36.455 390.693,40.231 394.638,45.653 397.491 C 49.707 399.625,50.674 399.753,65.057 400.058 L 80.194 400.379 80.417 252.011 L 80.640 103.644 83.445 97.947 C 86.697 91.341,92.026 86.171,98.987 82.867 L 103.680 80.640 252.029 80.417 L 400.379 80.194 400.058 65.057 C 399.753 50.674,399.625 49.707,397.491 45.653 C 394.697 40.344,390.697 36.457,385.707 34.200 C 381.887 32.474,380.995 32.464,220.587 32.502 C 89.662 32.534,58.630 32.752,55.711 33.665 M130.133 112.743 C 122.186 114.597,114.384 122.738,112.649 130.987 C 112.034 133.908,111.824 186.778,111.982 298.667 L 112.213 462.080 114.494 466.401 C 117.368 471.846,122.267 476.308,127.656 478.386 C 131.708 479.949,137.037 480.000,296.533 480.000 L 461.227 480.000 466.075 477.619 C 471.568 474.922,475.576 470.787,478.203 465.110 L 480.000 461.227 480.000 296.533 C 480.000 137.037,479.949 131.708,478.386 127.656 C 476.308 122.267,471.846 117.368,466.401 114.494 L 462.080 112.213 297.813 112.080 C 198.666 112.000,132.194 112.263,130.133 112.743 M312.115 240.000 L 312.337 279.893 352.008 279.893 L 391.680 279.893 391.680 296.107 L 391.680 312.320 352.000 312.320 L 312.320 312.320 312.320 352.000 L 312.320 391.680 296.107 391.680 L 279.893 391.680 279.893 352.008 L 279.893 312.337 240.000 312.115 L 200.107 311.893 199.875 295.893 L 199.642 279.893 239.768 279.893 L 279.893 279.893 279.893 239.768 L 279.893 199.642 295.893 199.875 L 311.893 200.107 312.115 240.000 " stroke="none" fill="black" fill-rule="evenodd"></path></svg>