<svg xmlns="http://www.w3.org/2000/svg" width="512" height="512" viewBox="0 0 512 512"><path d="M229.973 33.420 C 181.245 38.921,133.069 62.379,97.555 97.898 C 71.320 124.136,51.231 157.965,41.018 193.099 C 37.824 204.089,34.493 220.688,33.327 231.433 C 32.168 242.102,32.168 269.898,33.327 280.567 C 37.054 314.889,49.860 350.196,69.002 378.924 C 78.791 393.614,85.770 402.227,97.146 413.653 C 131.070 447.728,174.829 470.009,222.720 477.593 C 236.691 479.805,275.239 479.817,289.140 477.613 C 387.119 462.080,462.080 387.119,477.613 289.140 C 479.805 275.314,479.805 236.686,477.613 222.860 C 464.971 143.114,412.117 76.783,337.920 47.547 C 320.397 40.642,298.936 35.321,280.567 33.327 C 270.782 32.264,239.708 32.322,229.973 33.420 M274.412 64.907 C 301.820 67.574,330.614 76.995,354.149 90.994 L 361.013 95.077 357.360 96.161 C 349.939 98.364,339.627 108.781,339.627 114.073 C 339.627 119.771,345.061 122.833,355.227 122.861 C 362.839 122.883,366.653 121.599,369.437 118.077 C 371.044 116.045,371.294 114.937,370.903 111.593 C 370.644 109.374,369.517 105.647,368.398 103.311 C 366.030 98.362,365.945 98.330,375.724 106.066 L 383.234 112.007 376.503 118.937 C 372.801 122.748,368.383 128.054,366.686 130.728 C 362.930 136.643,360.960 138.001,353.057 140.120 C 349.681 141.026,346.404 142.193,345.776 142.715 C 339.467 147.951,342.213 161.800,350.523 166.654 C 354.594 169.031,362.316 169.497,367.746 167.693 C 373.144 165.901,376.737 162.869,381.743 155.886 C 386.776 148.864,389.128 146.803,392.790 146.209 C 397.481 145.448,401.359 146.530,404.808 149.562 C 407.535 151.960,408.096 153.129,409.102 158.515 C 409.738 161.922,410.733 165.282,411.314 165.982 C 412.976 167.985,416.641 167.476,420.386 164.722 L 423.829 162.190 428.318 171.486 L 432.808 180.782 430.114 184.697 C 423.567 194.213,417.531 193.721,404.907 182.642 C 392.240 171.526,387.413 170.547,364.525 174.459 C 343.224 178.100,340.578 179.584,330.597 193.494 C 326.977 198.539,321.395 205.441,318.191 208.831 C 312.594 214.755,308.121 222.059,306.837 227.370 C 306.502 228.755,306.237 232.430,306.246 235.538 C 306.291 249.709,316.745 265.417,330.667 272.230 C 341.859 277.709,350.619 278.464,369.831 275.609 C 376.211 274.661,382.489 274.139,383.782 274.449 C 391.249 276.240,394.186 280.770,394.228 290.560 C 394.261 298.550,395.506 305.883,398.574 316.160 C 400.568 322.844,401.397 328.085,402.397 340.345 C 403.099 348.954,404.452 360.029,405.403 364.958 C 407.396 375.288,407.755 374.172,399.421 383.573 C 392.720 391.132,385.646 397.790,375.893 405.714 C 342.771 432.627,299.163 448.000,255.942 448.000 C 247.209 448.000,231.900 446.827,226.657 445.756 L 224.194 445.253 224.683 439.160 C 225.279 431.721,227.593 424.416,232.561 414.293 C 237.933 403.344,245.494 394.280,258.714 382.938 C 271.854 371.665,277.882 365.334,281.467 359.039 C 287.473 348.493,290.144 334.624,288.483 322.607 C 286.159 305.795,280.191 299.395,253.013 284.573 C 239.264 277.074,236.138 274.972,224.427 265.345 C 214.665 257.321,210.900 255.864,198.045 255.139 C 191.612 254.776,185.809 253.971,183.573 253.133 C 181.519 252.363,177.869 251.733,175.461 251.733 C 171.672 251.733,169.842 252.438,161.838 256.975 C 153.815 261.524,152.011 262.217,148.189 262.217 C 136.397 262.217,122.120 247.296,121.833 234.672 C 121.620 225.332,130.068 220.207,145.734 220.173 C 153.410 220.157,156.595 221.432,162.356 226.829 C 167.679 231.817,169.691 232.960,173.151 232.960 C 177.579 232.960,178.736 230.080,177.879 221.187 C 177.486 217.102,177.142 210.870,177.115 207.338 C 177.057 199.605,177.864 198.348,188.242 190.013 C 198.287 181.945,199.974 177.240,197.181 165.078 C 195.579 158.099,196.357 155.737,202.087 150.187 C 208.557 143.921,213.910 141.207,227.509 137.298 C 245.353 132.169,249.770 129.124,248.894 122.557 C 247.975 115.666,234.207 99.728,226.694 96.859 C 220.603 94.533,217.429 95.825,209.748 103.753 C 202.216 111.529,194.205 115.938,186.307 116.654 C 180.440 117.186,177.293 115.957,173.755 111.752 C 170.038 107.334,170.666 105.471,178.347 98.133 C 186.010 90.812,186.602 88.990,183.524 82.209 L 181.911 78.658 186.941 76.777 C 191.815 74.955,192.083 74.942,195.612 76.357 C 198.565 77.542,200.706 77.710,206.933 77.247 C 211.432 76.913,215.497 77.024,216.747 77.517 C 217.920 77.979,221.376 80.520,224.427 83.164 C 232.462 90.129,235.676 91.647,242.483 91.694 C 247.460 91.728,248.616 91.415,251.782 89.173 C 257.656 85.014,258.767 82.133,258.280 72.320 L 257.868 64.000 261.479 64.000 C 263.465 64.000,269.285 64.408,274.412 64.907 M142.419 120.953 C 143.389 123.413,145.102 126.882,146.226 128.662 C 148.237 131.848,155.062 138.846,158.521 141.269 C 165.729 146.318,166.472 160.893,159.995 170.218 C 154.452 178.199,148.915 185.161,147.200 186.305 C 146.261 186.932,142.613 187.945,139.093 188.557 C 135.573 189.169,127.978 190.962,122.215 192.542 C 102.211 198.024,100.205 196.817,91.694 174.169 L 87.719 163.591 89.661 160.089 C 99.013 143.218,116.985 121.925,133.120 108.598 L 139.520 103.312 140.087 109.896 C 140.399 113.517,141.449 118.493,142.419 120.953 M388.396 210.329 C 398.040 219.259,408.250 223.573,419.734 223.573 C 426.354 223.573,436.399 221.349,441.356 218.785 C 442.751 218.064,444.018 217.600,444.172 217.754 C 445.100 218.682,447.271 237.963,447.711 249.173 C 448.590 271.611,445.481 294.069,438.594 315.045 C 434.871 326.381,433.493 328.896,433.493 324.353 C 433.493 322.804,431.923 316.872,430.004 311.169 C 426.787 301.607,426.458 299.770,425.777 287.573 C 424.744 269.080,422.271 261.988,414.125 254.162 C 402.911 243.390,389.240 240.029,367.787 242.773 C 350.387 244.999,340.794 243.822,339.038 239.246 C 337.921 236.334,340.569 231.199,345.706 226.323 C 348.534 223.637,352.777 218.618,355.134 215.169 C 358.432 210.342,360.260 208.525,363.068 207.283 C 367.407 205.364,377.478 204.028,380.851 204.926 C 382.169 205.276,385.564 207.708,388.396 210.329 M73.722 211.413 C 75.040 214.112,79.144 221.355,82.841 227.509 C 86.539 233.663,91.497 242.485,93.861 247.112 C 100.340 259.799,104.460 263.419,119.171 269.351 C 132.578 274.758,137.293 277.929,141.256 284.206 C 145.167 290.402,145.920 295.147,145.920 313.600 C 145.920 338.020,147.558 342.274,160.463 351.361 C 172.330 359.716,176.207 363.126,178.832 367.512 C 182.060 372.906,183.032 377.155,185.162 395.189 C 186.720 408.382,190.082 427.712,191.934 434.133 C 192.450 435.921,192.437 436.907,191.897 436.907 C 191.436 436.907,187.335 435.337,182.783 433.418 C 116.211 405.356,71.599 344.732,64.785 273.067 C 63.714 261.798,64.163 240.536,65.695 229.973 C 67.003 220.953,70.121 206.507,70.760 206.507 C 71.071 206.507,72.403 208.715,73.722 211.413 M193.938 287.108 C 201.421 288.442,202.078 288.799,214.454 298.240 C 219.376 301.995,228.337 307.900,234.368 311.364 C 252.105 321.551,254.443 323.299,256.288 327.755 C 257.820 331.458,257.833 331.927,256.533 336.400 C 254.430 343.634,248.965 350.247,237.513 359.416 C 231.909 363.902,225.668 369.551,223.644 371.969 C 216.788 380.158,215.046 379.693,213.296 369.205 C 210.742 353.894,200.167 339.207,185.364 330.412 C 182.132 328.492,179.033 326.374,178.478 325.705 C 177.423 324.433,176.266 289.540,177.199 287.110 C 177.816 285.501,184.917 285.500,193.938 287.108 " stroke="none" fill="black" fill-rule="evenodd"></path></svg>