<svg xmlns="http://www.w3.org/2000/svg" width="512" height="512" viewBox="0 0 512 512"><path d="M229.261 32.825 C 176.940 39.445,130.842 62.298,94.720 99.524 C 58.982 136.355,37.528 182.388,32.381 233.287 C 30.895 247.983,31.762 277.359,34.083 290.960 C 39.147 320.629,48.764 346.648,63.855 371.511 C 100.562 431.985,162.895 471.826,232.960 479.598 C 244.419 480.869,269.187 480.876,280.747 479.611 C 316.005 475.755,350.700 463.226,379.777 443.851 C 394.453 434.072,403.434 426.800,414.678 415.591 C 457.150 373.249,480.427 317.212,480.427 257.300 C 480.427 196.161,457.541 141.063,414.102 97.624 C 379.425 62.947,336.571 41.283,287.573 33.657 C 275.252 31.740,241.633 31.260,229.261 32.825 M283.307 66.258 C 300.545 68.703,318.042 73.740,334.225 80.916 C 342.483 84.578,356.089 91.986,359.233 94.532 L 361.099 96.043 358.878 96.227 C 352.709 96.737,342.271 105.473,340.410 111.682 C 338.473 118.150,341.647 121.524,351.046 122.988 C 362.557 124.780,371.200 120.672,371.200 113.411 C 371.200 111.560,370.267 107.750,369.126 104.943 C 367.986 102.136,367.208 99.840,367.398 99.840 C 367.720 99.840,380.861 110.209,382.706 111.920 C 383.238 112.412,381.164 114.967,377.058 118.878 C 373.490 122.277,369.197 127.203,367.520 129.826 C 363.344 136.354,360.204 138.776,354.355 139.982 C 347.647 141.364,345.221 142.770,343.582 146.225 C 340.003 153.767,343.949 163.715,351.965 167.356 C 358.327 170.246,368.492 169.052,374.609 164.696 C 375.953 163.739,379.213 159.872,381.855 156.103 C 388.977 145.938,393.636 143.940,401.689 147.596 C 405.824 149.473,408.405 153.140,409.168 158.222 C 410.655 168.122,411.695 169.147,417.607 166.532 C 419.653 165.627,421.591 164.459,421.914 163.937 C 423.170 161.904,424.328 163.299,428.487 171.855 C 433.314 181.782,433.318 181.675,427.799 187.785 C 421.946 194.263,416.892 193.096,404.425 182.386 C 400.440 178.962,395.654 175.437,393.789 174.552 C 388.321 171.957,380.140 171.933,365.309 174.470 C 342.452 178.378,340.086 179.773,329.165 195.767 C 327.270 198.543,322.708 204.056,319.028 208.019 C 310.036 217.701,306.877 224.099,306.479 233.430 C 306.238 239.073,306.566 241.441,308.269 246.338 C 313.392 261.069,325.293 272.173,340.089 276.027 C 346.460 277.686,358.451 277.698,367.787 276.053 C 377.245 274.387,385.087 274.409,388.376 276.110 C 391.887 277.925,394.191 283.261,394.248 289.707 C 394.321 298.004,395.701 306.433,398.530 315.857 C 400.614 322.799,401.446 327.895,402.414 339.627 C 403.091 347.840,404.236 357.824,404.958 361.813 C 405.679 365.803,406.477 370.219,406.732 371.627 C 407.086 373.593,406.631 374.892,404.770 377.227 C 383.206 404.280,350.596 426.824,316.791 438.051 C 291.081 446.590,261.819 449.912,236.800 447.133 C 223.987 445.710,224.427 445.914,224.427 441.373 C 224.427 436.163,226.588 427.764,230.035 419.582 C 235.789 405.922,243.508 396.071,258.638 383.079 C 264.635 377.930,271.896 371.147,274.775 368.006 C 286.042 355.710,291.194 337.219,288.114 320.132 C 285.439 305.293,278.721 298.413,254.088 285.284 C 240.040 277.796,236.179 275.313,229.120 269.221 C 215.837 257.759,212.204 256.127,198.952 255.673 C 191.687 255.424,187.658 254.849,183.973 253.533 C 174.991 250.326,173.030 250.751,157.867 259.189 C 151.450 262.760,148.573 263.223,142.956 261.590 C 139.363 260.545,136.951 259.002,132.711 255.037 C 122.276 245.275,118.840 233.236,124.612 226.661 C 128.012 222.789,133.367 221.007,143.360 220.421 C 153.116 219.849,155.429 220.626,162.133 226.724 C 167.766 231.848,169.730 232.960,173.151 232.960 C 177.389 232.960,178.687 230.051,178.011 222.060 C 176.339 202.269,176.326 202.888,178.478 199.734 C 179.579 198.121,183.673 194.089,187.575 190.774 C 191.477 187.459,195.479 183.453,196.470 181.871 C 198.646 178.396,198.900 172.465,197.191 165.078 C 195.566 158.057,196.339 155.731,202.137 150.187 C 208.727 143.886,213.597 141.409,226.647 137.719 C 239.141 134.187,244.795 131.630,247.382 128.340 C 250.843 123.941,249.417 119.636,241.085 109.322 C 232.584 98.802,225.561 94.633,219.340 96.417 C 217.591 96.919,213.757 99.895,209.472 104.078 C 195.378 117.834,179.239 121.088,173.240 111.382 C 170.357 106.716,170.902 105.305,178.347 98.184 C 185.848 91.008,186.485 89.272,183.893 83.068 C 183.189 81.383,182.613 79.695,182.613 79.317 C 182.613 78.939,184.774 77.821,187.416 76.832 C 192.019 75.110,192.373 75.095,195.936 76.456 C 198.921 77.595,201.159 77.758,207.276 77.279 C 216.198 76.581,217.416 77.024,225.006 83.728 C 233.831 91.521,241.733 93.865,248.976 90.839 C 257.442 87.302,260.356 80.141,258.282 67.969 L 257.577 63.831 265.962 64.409 C 270.573 64.728,278.379 65.560,283.307 66.258 M72.282 209.280 C 72.764 210.336,76.864 217.462,81.395 225.115 C 85.925 232.768,91.401 242.554,93.565 246.861 C 95.728 251.168,98.443 255.932,99.599 257.448 C 102.700 261.513,109.277 265.489,120.371 270.005 C 132.089 274.774,137.692 278.754,141.403 284.943 C 145.266 291.386,145.991 296.162,145.827 314.071 C 145.596 339.272,147.470 343.140,165.808 355.297 C 179.194 364.171,182.338 370.275,184.768 392.107 C 186.360 406.407,187.970 416.524,190.439 427.739 C 191.448 432.318,192.056 436.281,191.792 436.546 C 191.063 437.275,180.822 433.023,169.506 427.293 C 131.828 408.215,102.031 377.960,83.591 340.053 C 74.591 321.554,69.214 304.447,66.021 284.160 C 63.922 270.820,63.900 240.540,65.981 228.267 C 67.871 217.118,70.142 207.360,70.846 207.360 C 71.154 207.360,71.800 208.224,72.282 209.280 " stroke="none" fill="black" fill-rule="evenodd"></path></svg>