<svg xmlns="http://www.w3.org/2000/svg" width="512" height="512" viewBox="0 0 512 512"><path d="M248.175 34.156 C 241.914 37.464,239.787 42.791,239.787 55.167 L 239.787 64.000 157.653 64.015 C 89.677 64.027,74.526 64.240,69.754 65.252 C 56.274 68.108,43.026 78.446,37.281 90.592 C 31.714 102.364,32.000 95.544,32.000 216.320 C 32.000 318.873,32.103 326.773,33.506 331.850 C 37.170 345.114,47.158 357.330,58.880 362.883 C 68.374 367.380,71.670 367.787,98.660 367.787 L 122.995 367.787 122.385 369.707 C 122.049 370.763,115.860 392.350,108.633 417.678 C 95.708 462.971,95.508 463.797,96.498 467.923 C 98.180 474.934,105.163 480.404,112.454 480.422 C 117.113 480.433,123.568 476.296,125.909 471.798 C 126.546 470.572,132.867 449.260,139.954 424.438 C 147.042 399.616,153.604 376.715,154.536 373.547 L 156.232 367.787 198.009 367.787 L 239.787 367.787 239.791 392.320 C 239.794 406.806,240.163 418.173,240.691 420.077 C 241.805 424.087,246.125 429.110,249.773 430.634 C 253.301 432.108,258.699 432.108,262.227 430.634 C 265.875 429.110,270.195 424.087,271.309 420.077 C 271.837 418.173,272.206 406.806,272.209 392.320 L 272.213 367.787 313.991 367.787 L 355.768 367.787 357.464 373.547 C 358.396 376.715,364.958 399.616,372.046 424.438 C 379.133 449.260,385.454 470.572,386.091 471.798 C 388.432 476.296,394.887 480.433,399.546 480.422 C 403.817 480.411,408.422 478.424,411.395 475.308 C 414.671 471.873,416.700 466.078,415.888 462.473 C 415.322 459.965,389.923 370.390,389.341 368.853 C 389.024 368.015,394.165 367.787,413.307 367.787 C 427.672 367.787,439.532 367.402,442.198 366.851 C 458.903 363.392,473.731 349.094,478.494 331.850 C 479.897 326.773,480.000 318.873,480.000 216.320 C 480.000 95.544,480.286 102.364,474.719 90.592 C 468.974 78.446,455.726 68.108,442.246 65.252 C 437.474 64.240,422.323 64.027,354.347 64.015 L 272.213 64.000 272.213 55.167 C 272.213 42.664,270.067 37.392,263.642 34.114 C 259.332 31.915,252.382 31.934,248.175 34.156 M441.546 99.314 C 443.321 100.668,445.490 103.356,446.367 105.288 C 447.898 108.658,447.963 113.120,447.963 215.893 C 447.963 317.971,447.889 323.148,446.396 326.435 C 444.484 330.644,440.485 334.144,436.240 335.322 C 431.823 336.549,80.177 336.549,75.760 335.322 C 71.515 334.144,67.516 330.644,65.604 326.435 C 64.111 323.148,64.037 317.971,64.037 215.893 C 64.037 113.779,64.110 108.641,65.605 105.387 C 67.334 101.621,69.111 99.780,72.962 97.768 C 75.265 96.564,93.625 96.452,256.920 96.642 L 438.320 96.853 441.546 99.314 M87.057 113.281 C 85.424 114.102,83.211 116.085,82.140 117.689 L 80.192 120.604 80.416 216.820 L 80.640 313.036 82.773 315.319 C 87.461 320.335,75.048 320.000,256.000 320.000 C 436.952 320.000,424.539 320.335,429.227 315.319 L 431.360 313.036 431.584 216.820 L 431.808 120.604 429.860 117.689 C 428.789 116.085,426.576 114.102,424.943 113.281 C 422.146 111.876,412.312 111.789,256.000 111.789 C 99.688 111.789,89.854 111.876,87.057 113.281 " stroke="none" fill="black" fill-rule="evenodd"></path></svg>