<svg xmlns="http://www.w3.org/2000/svg" width="512" height="512" viewBox="0 0 512 512"><path d="M237.653 34.483 C 216.914 40.052,196.009 52.937,174.805 73.218 C 124.011 121.801,87.444 196.835,81.006 265.689 C 79.719 279.449,80.410 309.808,82.328 323.840 C 91.417 390.318,122.591 437.577,173.548 462.126 C 200.824 475.267,225.516 480.109,261.402 479.353 C 283.501 478.888,295.006 477.298,312.320 472.314 C 372.720 454.929,414.151 406.933,427.113 339.331 C 431.519 316.350,433.002 283.479,430.599 262.045 C 425.220 214.063,406.843 165.344,377.785 122.027 C 347.805 77.337,310.859 45.318,277.760 35.341 C 271.284 33.389,268.140 32.979,257.707 32.723 C 246.723 32.454,244.471 32.652,237.653 34.483 M272.437 67.437 C 308.357 80.434,351.991 130.172,376.847 186.453 C 387.026 209.502,394.200 233.725,397.768 257.090 C 399.932 271.262,400.361 300.054,398.622 314.453 C 394.860 345.622,385.750 372.347,371.953 392.690 C 364.800 403.237,349.992 418.015,339.771 424.806 C 321.018 437.268,298.875 444.720,273.493 447.113 C 234.803 450.762,197.943 442.420,170.725 423.856 C 161.765 417.745,146.570 402.309,140.047 392.690 C 116.088 357.364,106.491 302.488,115.254 250.934 C 122.785 206.631,144.779 158.501,174.987 120.221 C 183.433 109.517,202.821 90.096,211.637 83.507 C 224.573 73.840,237.928 66.942,247.809 64.824 C 254.261 63.441,264.354 64.512,272.437 67.437 " stroke="none" fill="black" fill-rule="evenodd"></path></svg>