<svg xmlns="http://www.w3.org/2000/svg" width="512" height="512" viewBox="0 0 512 512"><path d="M84.286 209.540 C 68.717 213.314,55.382 225.904,50.284 241.640 C 47.460 250.360,47.460 261.640,50.284 270.360 C 62.846 309.138,114.334 315.759,136.555 281.453 C 146.238 266.504,146.238 245.496,136.555 230.547 C 125.234 213.070,104.350 204.677,84.286 209.540 M244.053 209.561 C 227.380 213.948,213.777 227.685,209.509 244.446 C 203.105 269.591,219.008 296.013,244.446 302.491 C 269.591 308.895,296.013 292.992,302.491 267.554 C 308.910 242.353,293.062 216.024,267.554 209.512 C 261.246 207.901,250.273 207.924,244.053 209.561 M404.286 209.540 C 388.717 213.314,375.382 225.904,370.284 241.640 C 367.460 250.360,367.460 261.640,370.284 270.360 C 382.846 309.138,434.334 315.759,456.555 281.453 C 466.238 266.504,466.238 245.496,456.555 230.547 C 445.234 213.070,424.350 204.677,404.286 209.540 " stroke="none" fill="black" fill-rule="evenodd"></path></svg>