<svg xmlns="http://www.w3.org/2000/svg" width="512" height="512" viewBox="0 0 512 512"><path d="M247.680 48.680 C 229.530 51.917,213.715 66.793,209.525 84.568 C 202.337 115.062,224.862 143.741,256.000 143.741 C 287.082 143.741,309.663 115.058,302.500 84.677 C 298.828 69.100,286.966 56.086,271.559 50.727 C 264.889 48.408,254.299 47.500,247.680 48.680 M244.053 209.561 C 227.380 213.948,213.777 227.685,209.509 244.446 C 203.105 269.591,219.008 296.013,244.446 302.491 C 269.591 308.895,296.013 292.992,302.491 267.554 C 308.910 242.353,293.062 216.024,267.554 209.512 C 261.246 207.901,250.273 207.924,244.053 209.561 M247.680 368.680 C 229.530 371.917,213.715 386.793,209.525 404.568 C 202.337 435.062,224.862 463.741,256.000 463.741 C 287.082 463.741,309.663 435.058,302.500 404.677 C 298.828 389.100,286.966 376.086,271.559 370.727 C 264.889 368.408,254.299 367.500,247.680 368.680 " stroke="none" fill="black" fill-rule="evenodd"></path></svg>