<svg xmlns="http://www.w3.org/2000/svg" width="512" height="512" viewBox="0 0 512 512"><path d="M74.723 81.580 C 55.004 86.350,39.199 102.193,33.522 122.880 C 32.093 128.088,32.000 136.224,32.000 256.000 C 32.000 375.776,32.093 383.912,33.522 389.120 C 38.123 405.887,48.751 419.008,63.586 426.236 C 75.468 432.025,69.701 431.760,183.970 431.774 C 284.280 431.786,287.494 431.737,293.925 430.092 C 315.355 424.611,331.940 406.232,335.280 384.263 C 335.880 380.322,336.213 359.183,336.213 325.170 L 336.213 272.213 380.783 272.213 L 425.352 272.213 397.485 300.160 C 367.157 330.574,367.868 329.625,368.856 338.395 C 369.960 348.186,381.062 354.231,390.641 350.257 C 394.582 348.622,475.472 268.223,477.927 263.501 C 480.085 259.350,480.085 252.650,477.927 248.499 C 475.472 243.777,394.582 163.378,390.641 161.743 C 381.062 157.769,369.960 163.814,368.856 173.605 C 367.868 182.375,367.157 181.426,397.485 211.840 L 425.352 239.787 380.783 239.787 L 336.213 239.787 336.184 186.240 C 336.161 144.938,335.889 131.230,334.995 126.293 C 331.065 104.599,315.073 87.317,293.925 81.908 C 287.487 80.261,284.381 80.215,183.543 80.284 C 96.497 80.344,78.971 80.553,74.723 81.580 M336.213 256.000 L 336.213 272.213 263.040 272.209 C 215.338 272.205,188.762 271.897,186.693 271.322 C 180.265 269.537,174.971 262.617,174.971 256.000 C 174.971 252.284,177.429 246.824,180.287 244.194 C 185.075 239.787,183.613 239.864,262.613 239.824 L 336.213 239.787 336.213 256.000 " stroke="none" fill="black" fill-rule="evenodd"></path></svg>