<svg xmlns="http://www.w3.org/2000/svg" width="512" height="512" viewBox="0 0 512 512"><path d="M75.285 81.512 C 63.390 84.095,50.211 92.776,43.234 102.622 C 38.226 109.690,36.254 113.746,33.935 121.751 L 32.000 128.427 32.000 256.000 L 32.000 383.573 33.968 390.370 C 39.942 411.006,55.928 426.338,75.881 430.567 C 84.406 432.375,283.562 432.325,292.267 430.514 C 307.247 427.396,322.011 416.113,329.122 402.347 C 335.194 390.592,335.553 388.401,335.983 360.477 C 336.239 343.763,336.054 334.523,335.413 332.143 C 333.592 325.382,326.788 320.037,320.000 320.037 C 313.383 320.037,306.463 325.332,304.678 331.760 C 304.174 333.574,303.794 344.644,303.791 357.608 C 303.786 382.988,303.379 385.445,298.172 391.529 C 296.542 393.432,293.011 396.069,290.325 397.388 L 285.440 399.787 183.893 399.787 L 82.347 399.787 77.479 397.396 C 72.292 394.849,69.335 391.894,66.306 386.233 L 64.427 382.720 64.427 256.000 L 64.427 129.280 67.074 124.587 C 68.530 122.005,71.339 118.649,73.317 117.127 C 80.639 111.496,75.415 111.735,185.653 111.986 L 285.440 112.213 290.325 114.612 C 293.011 115.931,296.542 118.568,298.172 120.471 C 303.379 126.555,303.786 129.012,303.791 154.392 C 303.794 167.356,304.174 178.426,304.678 180.240 C 306.463 186.668,313.383 191.963,320.000 191.963 C 326.788 191.963,333.592 186.618,335.413 179.857 C 336.054 177.477,336.239 168.237,335.983 151.523 C 335.553 123.599,335.194 121.408,329.122 109.653 C 322.168 96.192,308.893 85.736,293.880 81.896 C 287.502 80.265,284.138 80.215,183.970 80.281 C 100.128 80.336,79.630 80.568,75.285 81.512 M376.175 162.156 C 370.030 165.403,366.755 173.144,368.604 180.053 C 369.521 183.480,372.633 186.903,397.492 211.840 L 425.352 239.787 307.609 239.791 C 229.249 239.795,188.805 240.091,186.693 240.678 C 180.265 242.463,174.971 249.383,174.971 256.000 C 174.971 262.617,180.265 269.537,186.693 271.322 C 188.805 271.909,229.249 272.205,307.609 272.209 L 425.352 272.213 397.492 300.160 C 372.633 325.097,369.521 328.520,368.604 331.947 C 367.405 336.425,368.442 341.727,371.302 345.743 C 375.242 351.277,385.005 353.301,391.501 349.930 C 393.242 349.027,413.544 329.347,436.616 306.197 C 479.682 262.987,480.417 262.144,480.417 256.000 C 480.417 249.856,479.682 249.013,436.616 205.803 C 413.544 182.653,393.242 162.973,391.501 162.070 C 387.345 159.913,380.346 159.953,376.175 162.156 " stroke="none" fill="black" fill-rule="evenodd"></path></svg>