<svg xmlns="http://www.w3.org/2000/svg" viewBox="0 0 512 512"><path d="M201.220 33.747 C 179.045 39.125,161.091 55.962,153.945 78.080 C 152.265 83.283,151.597 87.600,151.139 96.227 C 150.257 112.858,154.241 111.249,112.405 111.867 C 74.466 112.428,73.079 112.605,62.293 118.256 C 51.529 123.896,43.112 132.425,37.943 142.933 C 32.056 154.900,32.007 155.375,32.003 200.981 L 32.000 241.962 34.180 246.200 C 35.728 249.209,37.564 251.183,40.509 253.006 L 44.659 255.573 64.783 256.068 C 80.765 256.461,85.690 256.861,88.710 258.012 C 106.346 264.735,117.448 283.693,114.385 301.853 C 112.501 313.024,105.708 323.938,97.163 329.525 C 88.221 335.371,87.006 335.617,64.361 336.153 L 43.816 336.640 40.302 338.968 C 38.369 340.248,35.710 343.128,34.394 345.368 L 32.000 349.440 32.015 390.827 C 32.032 437.064,32.023 436.979,38.213 449.707 C 42.570 458.665,53.335 469.430,62.293 473.787 C 75.021 479.977,74.936 479.968,121.173 479.985 L 162.560 480.000 166.632 477.606 C 168.872 476.290,171.752 473.631,173.032 471.698 C 175.326 468.235,175.367 467.926,175.867 450.625 C 176.315 435.103,176.601 432.473,178.335 427.947 C 182.656 416.664,189.764 408.907,200.533 403.722 C 206.692 400.756,207.288 400.640,216.320 400.640 C 223.346 400.640,226.994 401.062,230.827 402.317 C 241.102 405.683,250.653 414.308,254.010 423.253 C 255.148 426.288,255.553 431.314,255.939 447.217 L 256.427 467.342 258.994 471.491 C 260.815 474.434,262.793 476.274,265.796 477.820 L 270.030 480.000 304.773 480.265 C 342.473 480.553,354.121 479.901,362.667 477.024 C 378.806 471.591,391.864 458.313,397.395 441.711 L 399.707 434.773 400.173 400.022 C 400.742 357.689,399.127 361.744,415.773 360.861 C 424.346 360.406,428.750 359.729,433.920 358.071 C 453.797 351.699,470.168 335.345,476.732 315.307 C 479.764 306.050,480.503 289.614,478.297 280.481 C 471.277 251.413,444.769 230.477,414.906 230.415 C 407.810 230.400,402.821 229.089,401.384 226.860 C 400.975 226.226,400.413 210.347,400.135 191.573 C 399.577 153.836,399.533 153.495,393.684 141.654 C 389.306 132.789,379.211 122.694,370.346 118.316 C 358.434 112.432,358.115 112.391,321.707 112.059 C 303.637 111.894,287.994 111.567,286.944 111.332 C 283.278 110.514,282.144 107.240,281.511 95.653 C 280.648 79.846,276.741 69.190,267.301 56.899 C 259.412 46.626,245.289 37.396,232.428 34.106 C 224.573 32.097,208.774 31.916,201.220 33.747 " stroke="none" fill="black" fill-rule="evenodd"></path></svg>