<svg xmlns="http://www.w3.org/2000/svg" width="512" height="512" viewBox="0 0 512 512"><path d="M400.900 33.695 C 390.281 36.385,379.945 42.015,372.456 49.188 C 370.566 50.998,356.791 68.318,341.844 87.675 C 324.180 110.554,313.604 123.530,311.624 124.753 C 309.747 125.913,306.730 126.769,303.756 126.984 C 299.051 127.324,298.826 127.238,294.568 123.456 C 285.868 115.729,276.883 111.962,265.387 111.220 C 251.474 110.322,239.234 114.963,229.017 125.011 C 219.135 134.730,214.705 145.506,214.808 159.573 C 214.915 174.092,219.301 183.356,232.509 196.960 L 239.707 204.373 146.838 297.387 C 53.970 390.400,53.970 390.400,50.455 397.532 C 41.734 415.228,30.580 460.151,32.755 468.818 C 33.450 471.590,37.919 476.721,41.044 478.337 C 44.497 480.122,51.069 479.853,62.592 477.456 C 85.907 472.605,103.895 467.035,115.573 461.050 C 121.153 458.190,128.495 451.079,214.613 365.127 L 307.627 272.293 315.040 279.491 C 328.529 292.587,338.510 297.283,352.790 297.255 C 366.586 297.227,377.432 292.701,386.989 282.983 C 399.223 270.543,403.643 254.399,399.379 237.726 C 397.342 229.761,394.256 223.874,389.120 218.156 C 385.492 214.116,385.285 213.616,385.369 209.091 C 385.536 200.082,385.089 200.528,424.865 169.723 C 463.951 139.453,467.236 136.376,473.282 124.371 C 479.618 111.789,481.454 94.668,477.941 80.932 C 472.346 59.054,455.425 41.400,433.493 34.559 C 426.994 32.532,407.529 32.016,400.900 33.695 M425.083 65.711 C 443.723 71.590,453.039 92.293,444.740 109.394 C 443.304 112.353,441.434 115.557,440.585 116.515 C 439.735 117.474,423.680 130.111,404.907 144.600 C 386.133 159.088,369.305 172.320,367.509 174.004 C 365.714 175.688,362.860 179.300,361.167 182.029 L 358.089 186.990 341.818 170.666 L 325.547 154.341 327.529 152.904 C 336.615 146.315,339.812 142.648,366.348 108.374 C 381.749 88.483,395.573 71.281,397.068 70.147 C 404.965 64.160,415.086 62.557,425.083 65.711 M267.520 143.787 C 269.450 144.186,281.908 156.118,318.138 192.265 C 344.570 218.637,366.768 241.293,367.467 242.613 C 368.991 245.489,369.159 252.028,367.801 255.573 C 364.647 263.803,354.271 267.684,346.083 263.697 C 343.787 262.579,326.698 246.051,295.571 214.844 C 257.884 177.059,248.319 167.024,247.472 164.381 C 244.468 155.002,250.110 144.962,259.273 143.382 C 262.463 142.832,263.041 142.860,267.520 143.787 M194.779 339.854 L 104.533 430.122 99.110 431.808 C 96.127 432.735,92.287 433.492,90.577 433.490 C 84.374 433.484,78.516 427.619,78.510 421.409 C 78.508 419.691,79.259 415.867,80.179 412.912 L 81.852 407.538 172.119 317.267 L 262.387 226.997 273.705 238.292 L 285.024 249.587 194.779 339.854 " stroke="none" fill="black" fill-rule="evenodd"></path></svg>