<svg xmlns="http://www.w3.org/2000/svg" width="512" height="512" viewBox="0 0 512 512"><path d="M400.765 26.013 C 384.408 31.327,370.722 36.000,370.352 36.397 C 369.982 36.795,366.547 50.147,362.719 66.069 C 358.890 81.990,355.561 95.334,355.322 95.722 C 355.082 96.110,321.885 96.427,281.550 96.427 L 208.213 96.427 208.213 112.213 L 208.213 128.000 217.490 128.000 L 226.766 128.000 227.337 133.333 C 227.652 136.267,228.118 139.860,228.373 141.318 L 228.838 143.970 243.486 144.467 C 270.596 145.386,291.780 150.534,313.642 161.514 C 339.038 174.268,360.858 196.243,371.927 220.212 C 375.527 228.008,380.051 241.480,380.984 247.182 C 381.465 250.122,382.182 251.143,385.130 253.090 C 398.750 262.087,409.823 278.506,413.965 295.850 C 415.472 302.159,415.697 305.202,415.372 314.880 C 415.036 324.885,414.640 327.418,412.359 334.145 L 409.732 341.891 411.366 346.846 C 414.751 357.106,415.788 365.696,415.335 379.733 C 414.987 390.517,414.494 394.440,412.665 400.976 C 405.689 425.893,390.195 445.333,368.758 456.066 C 364.513 458.191,362.320 459.814,361.996 461.072 C 360.826 465.605,352.024 481.487,347.014 488.107 L 341.524 495.360 381.626 495.582 C 406.616 495.720,422.932 495.479,424.922 494.944 C 432.150 492.997,437.681 486.947,439.753 478.720 C 440.403 476.139,449.137 396.171,459.163 301.013 L 477.391 128.000 486.589 128.000 L 495.787 128.000 495.787 112.213 L 495.787 96.427 442.453 96.427 C 392.220 96.427,389.121 96.340,389.142 94.933 C 389.166 93.284,397.309 60.601,397.783 60.249 C 397.946 60.128,407.839 56.700,419.766 52.631 C 431.693 48.562,441.552 45.133,441.674 45.010 C 442.242 44.443,432.111 16.232,431.360 16.288 C 430.891 16.323,417.123 20.699,400.765 26.013 M148.109 176.730 C 138.155 177.651,122.449 181.033,113.954 184.084 C 82.007 195.557,58.923 219.779,51.233 249.896 C 49.936 254.977,47.845 268.592,47.794 272.292 C 47.790 272.569,46.155 273.284,44.160 273.880 C 38.134 275.680,34.036 278.158,28.750 283.200 C 19.953 291.589,16.213 300.426,16.213 312.823 L 16.213 320.000 60.615 320.000 L 105.016 320.000 124.205 334.122 L 143.393 348.244 162.720 334.122 L 182.046 320.000 283.023 320.000 L 384.000 320.000 384.000 313.779 C 384.000 295.472,373.637 280.232,357.130 274.263 L 352.000 272.408 351.367 264.914 C 348.152 226.886,322.525 196.533,282.257 183.058 C 263.553 176.799,259.751 176.460,205.227 176.188 C 178.475 176.055,152.772 176.298,148.109 176.730 M16.387 370.560 C 16.711 387.695,16.860 389.069,19.095 395.520 C 22.526 405.428,25.936 410.905,33.222 418.207 C 40.773 425.776,47.924 429.696,56.834 431.151 C 60.071 431.680,62.811 432.162,62.922 432.223 C 63.033 432.283,64.044 435.959,65.168 440.390 C 72.536 469.433,92.712 489.310,120.182 494.584 C 129.501 496.374,270.811 496.353,280.178 494.561 C 301.630 490.456,318.634 477.243,328.606 456.930 C 330.919 452.219,333.725 444.748,334.843 440.327 L 336.875 432.288 342.822 431.286 C 360.380 428.327,374.938 414.216,381.480 393.813 C 383.136 388.650,383.450 385.438,383.795 370.133 L 384.193 352.427 284.043 352.428 L 183.893 352.428 163.880 369.494 C 152.872 378.880,143.656 386.560,143.400 386.559 C 143.143 386.559,133.927 378.879,122.920 369.492 L 102.906 352.427 59.475 352.427 L 16.044 352.427 16.387 370.560 " stroke="none" fill="black" fill-rule="evenodd"></path></svg>