<svg xmlns="http://www.w3.org/2000/svg" width="512" height="512" viewBox="0 0 512 512"><path d="M233.813 17.501 C 170.063 26.246,117.067 70.053,96.895 130.681 C 79.162 183.978,88.510 240.813,122.381 285.634 C 128.885 294.239,142.696 308.440,151.182 315.246 C 173.376 333.047,203.588 346.195,231.253 350.092 L 239.360 351.234 239.586 375.724 L 239.813 400.213 217.159 400.213 C 191.981 400.213,190.835 400.414,186.273 405.610 C 183.924 408.285,181.770 413.255,181.770 416.000 C 181.770 418.745,183.924 423.715,186.273 426.390 C 190.835 431.586,191.983 431.787,217.146 431.787 L 239.787 431.787 239.791 456.320 C 239.794 470.806,240.163 482.173,240.691 484.077 C 241.805 488.087,246.125 493.110,249.773 494.634 C 253.301 496.108,258.699 496.108,262.227 494.634 C 265.875 493.110,270.195 488.087,271.309 484.077 C 271.837 482.173,272.206 470.806,272.209 456.320 L 272.213 431.787 294.854 431.787 C 320.017 431.787,321.165 431.586,325.727 426.390 C 328.076 423.715,330.230 418.745,330.230 416.000 C 330.230 413.255,328.076 408.285,325.727 405.610 C 321.165 400.414,320.019 400.213,294.841 400.213 L 272.187 400.213 272.414 375.724 L 272.640 351.234 280.747 350.078 C 337.759 341.944,387.913 303.151,410.471 249.739 C 431.591 199.729,427.637 143.682,399.714 97.280 C 392.965 86.065,386.670 77.868,377.173 67.932 C 350.561 40.089,315.858 22.505,277.627 17.494 C 265.920 15.959,245.029 15.963,233.813 17.501 M268.800 48.656 C 286.941 50.536,300.403 54.457,317.013 62.697 C 348.410 78.274,373.672 107.289,384.827 140.585 C 390.176 156.551,391.158 163.246,391.176 183.893 C 391.191 200.121,390.941 203.796,389.330 210.994 C 376.945 266.353,336.088 306.641,281.176 317.644 C 267.703 320.343,243.347 320.294,230.400 317.542 C 199.682 311.011,174.675 296.696,154.232 273.940 C 138.555 256.490,127.193 233.545,122.304 209.462 C 119.926 197.750,120.157 168.259,122.716 156.723 C 126.751 138.542,133.260 123.170,143.247 108.234 C 170.752 67.101,220.228 43.623,268.800 48.656 " stroke="none" fill="black" fill-rule="evenodd"></path></svg>