<svg xmlns="http://www.w3.org/2000/svg" width="512" height="512" viewBox="0 0 512 512"><path d="M115.380 64.971 C 103.278 66.725,88.770 74.088,81.170 82.333 C 75.999 87.943,71.240 95.676,68.356 103.156 C 66.675 107.514,60.177 136.246,48.932 189.039 L 32.034 268.373 31.758 323.413 C 31.594 356.099,31.832 382.334,32.345 388.009 C 33.906 405.296,39.686 417.960,51.157 429.227 C 60.927 438.823,71.214 444.290,84.162 446.768 C 93.817 448.615,418.183 448.615,427.838 446.768 C 440.786 444.290,451.073 438.823,460.843 429.227 C 472.316 417.957,478.096 405.291,479.652 388.009 C 480.158 382.390,480.407 355.957,480.256 323.840 L 480.000 269.227 463.071 189.440 C 451.818 136.402,445.300 107.466,443.631 103.130 C 436.522 84.668,422.349 71.823,403.018 66.322 L 396.373 64.431 258.560 64.312 C 179.368 64.244,118.464 64.524,115.380 64.971 M396.607 97.729 C 404.882 100.186,412.361 108.226,414.845 117.333 C 415.357 119.211,422.023 150.315,429.659 186.453 C 441.454 242.277,443.381 252.417,442.468 253.867 C 441.412 255.542,440.228 255.581,378.350 256.000 C 320.915 256.389,315.069 256.557,312.635 257.889 C 307.026 260.960,303.817 266.924,303.779 274.347 C 303.708 288.354,294.594 303.854,281.426 312.366 C 266.455 322.042,245.610 322.096,230.791 312.499 C 217.439 303.851,208.293 288.391,208.221 274.347 C 208.183 266.924,204.974 260.960,199.365 257.889 C 196.931 256.557,191.085 256.389,133.650 256.000 C 71.771 255.581,70.588 255.542,69.535 253.867 C 68.624 252.418,70.634 241.865,82.833 184.036 C 98.928 107.740,98.645 108.693,107.161 102.170 C 115.012 96.155,104.643 96.552,255.632 96.486 C 375.699 96.434,392.754 96.584,396.607 97.729 M137.813 129.195 C 132.115 131.706,127.984 137.940,128.019 143.973 C 128.064 151.762,133.652 158.087,141.820 159.598 C 144.878 160.163,185.580 160.383,259.065 160.232 C 367.036 160.009,371.758 159.935,374.837 158.405 C 384.386 153.659,386.873 141.522,379.884 133.776 C 378.159 131.864,375.511 129.782,374.001 129.150 C 369.972 127.463,141.643 127.507,137.813 129.195 M121.565 193.604 C 109.451 199.107,108.887 215.834,120.605 222.099 L 124.160 224.000 256.000 224.000 L 387.840 224.000 391.395 222.099 C 403.113 215.834,402.549 199.107,390.435 193.604 C 387.137 192.106,381.259 192.037,256.000 192.037 C 130.741 192.037,124.863 192.106,121.565 193.604 " stroke="none" fill="black" fill-rule="evenodd"></path></svg>