<svg xmlns="http://www.w3.org/2000/svg" viewBox="0 0 512 512"><path d="M243.627 48.295 C 200.707 51.540,163.787 65.309,129.707 90.781 C 119.276 98.577,98.579 119.277,90.713 129.782 C 68.255 159.772,54.418 193.768,49.413 231.253 C 48.019 241.696,48.019 270.304,49.413 280.747 C 59.554 356.698,107.829 420.063,177.067 448.304 C 203.509 459.089,227.771 463.751,256.853 463.634 C 290.198 463.499,318.398 456.932,347.733 442.471 C 410.837 411.362,453.091 351.864,462.587 280.747 C 463.981 270.304,463.981 241.696,462.587 231.253 C 453.091 160.136,410.837 100.638,347.733 69.529 C 327.592 59.600,306.356 53.073,283.994 49.939 C 275.010 48.680,251.306 47.715,243.627 48.295 M275.447 81.114 C 347.484 88.943,408.291 141.727,426.231 212.001 C 448.394 298.823,402.945 387.270,319.249 420.197 C 293.994 430.132,262.077 434.038,234.686 430.544 C 145.853 419.214,80.213 345.046,80.213 256.000 C 80.213 167.651,145.919 92.766,233.311 81.514 C 244.096 80.125,264.562 79.931,275.447 81.114 M138.567 192.925 C 137.104 193.350,134.349 195.386,132.446 197.451 C 128.351 201.893,127.133 207.067,128.838 212.778 C 130.188 217.305,135.469 222.417,139.727 223.320 C 143.916 224.208,368.084 224.208,372.273 223.320 C 376.531 222.417,381.812 217.305,383.162 212.778 C 384.864 207.076,383.648 201.892,379.571 197.470 C 377.511 195.234,374.881 193.387,373.024 192.872 C 369.053 191.769,142.376 191.821,138.567 192.925 M169.288 257.633 C 164.215 259.936,161.071 264.449,160.603 270.102 C 160.105 276.108,160.743 278.369,163.979 282.055 C 169.615 288.474,162.276 288.000,256.000 288.000 C 349.724 288.000,342.385 288.474,348.021 282.055 C 351.257 278.369,351.895 276.108,351.397 270.102 C 350.929 264.449,347.785 259.936,342.712 257.633 C 339.359 256.110,335.438 256.037,256.000 256.037 C 176.562 256.037,172.641 256.110,169.288 257.633 M216.890 321.831 C 211.231 324.632,208.640 329.171,208.640 336.285 C 208.640 341.411,208.921 342.381,211.255 345.307 C 212.693 347.111,215.381 349.355,217.228 350.293 C 220.427 351.919,222.275 352.000,256.000 352.000 C 289.725 352.000,291.573 351.919,294.772 350.293 C 296.619 349.355,299.307 347.111,300.745 345.307 C 303.079 342.381,303.360 341.411,303.360 336.285 C 303.360 329.121,300.745 324.572,295.040 321.810 C 291.414 320.055,290.231 320.000,255.944 320.001 C 221.513 320.001,220.490 320.049,216.890 321.831 " stroke="none" fill="black" fill-rule="evenodd"></path></svg>