<svg xmlns="http://www.w3.org/2000/svg" viewBox="0 0 512 512"><path d="M243.200 48.291 C 189.307 52.936,145.591 72.806,109.198 109.198 C 75.814 142.582,55.864 183.304,49.403 231.253 C 47.996 241.696,47.996 270.304,49.403 280.747 C 55.866 328.705,75.852 369.495,109.198 402.781 C 142.761 436.282,182.341 455.687,231.253 462.621 C 235.243 463.187,246.379 463.649,256.000 463.649 C 284.931 463.649,308.731 459.018,334.933 448.289 C 361.056 437.593,386.578 420.224,405.701 400.129 C 437.387 366.832,455.931 327.939,462.621 280.747 C 463.187 276.757,463.649 265.621,463.649 256.000 C 463.649 227.171,459.011 203.251,448.395 177.325 C 432.022 137.342,403.062 103.108,365.227 79.011 C 343.385 65.100,312.181 53.926,283.992 49.922 C 275.151 48.666,250.352 47.675,243.200 48.291 M373.024 192.872 C 377.687 194.167,382.865 200.202,383.617 205.221 C 384.715 212.541,381.322 219.182,374.837 222.405 C 371.758 223.935,367.036 224.009,259.065 224.232 C 185.580 224.383,144.878 224.163,141.820 223.598 C 128.481 221.132,123.430 206.141,132.787 196.788 C 137.783 191.795,130.719 192.069,255.147 192.038 C 329.915 192.020,371.002 192.310,373.024 192.872 M342.712 257.633 C 347.785 259.936,350.929 264.449,351.397 270.102 C 351.895 276.108,351.257 278.369,348.021 282.055 C 342.385 288.474,349.724 288.000,256.000 288.000 C 162.276 288.000,169.615 288.474,163.979 282.055 C 160.743 278.369,160.105 276.108,160.603 270.102 C 161.071 264.449,164.215 259.936,169.288 257.633 C 172.641 256.110,176.562 256.037,256.000 256.037 C 335.438 256.037,339.359 256.110,342.712 257.633 M295.040 321.810 C 300.745 324.572,303.360 329.121,303.360 336.285 C 303.360 341.411,303.079 342.381,300.745 345.307 C 299.307 347.111,296.619 349.355,294.772 350.293 C 291.573 351.919,289.725 352.000,256.000 352.000 C 222.275 352.000,220.427 351.919,217.228 350.293 C 215.381 349.355,212.693 347.111,211.255 345.307 C 208.921 342.381,208.640 341.411,208.640 336.285 C 208.640 329.171,211.231 324.632,216.890 321.831 C 220.490 320.049,221.513 320.001,255.944 320.001 C 290.231 320.000,291.414 320.055,295.040 321.810 " stroke="none" fill="black" fill-rule="evenodd"></path></svg>