<svg xmlns="http://www.w3.org/2000/svg" viewBox="0 0 512 512"><path d="M217.173 81.634 C 211.502 84.631,208.213 89.749,208.213 95.579 C 208.213 97.496,210.920 108.502,214.227 120.035 C 217.535 131.567,220.127 141.065,219.987 141.141 C 219.848 141.217,216.469 142.567,212.480 144.141 C 189.120 153.361,163.966 169.073,133.470 193.493 C 126.290 199.243,120.214 203.947,119.968 203.947 C 119.721 203.947,115.885 201.106,111.443 197.634 C 94.827 184.644,78.121 175.804,57.173 168.917 C 40.526 163.443,28.055 160.891,17.856 160.870 C 10.149 160.854,9.502 160.993,6.448 163.321 C 2.004 166.708,-0.348 172.228,0.258 177.852 C 0.877 183.596,7.690 204.490,12.940 216.747 C 17.913 228.355,24.643 240.498,31.070 249.456 L 35.711 255.924 32.735 259.822 C 21.336 274.750,9.987 298.692,2.995 322.560 C -0.633 334.946,-0.671 339.372,2.803 344.622 C 5.433 348.596,11.062 351.573,15.946 351.573 C 21.605 351.573,38.460 348.349,49.675 345.121 C 73.676 338.213,92.697 328.617,111.755 313.804 L 119.829 307.528 133.168 318.244 C 163.358 342.497,189.492 358.851,212.480 367.874 C 216.469 369.440,219.848 370.783,219.987 370.859 C 220.127 370.935,217.535 380.433,214.227 391.965 C 210.920 403.498,208.213 414.504,208.213 416.421 C 208.213 424.765,215.313 431.788,223.744 431.786 C 225.762 431.785,231.253 430.853,235.947 429.716 C 261.694 423.473,291.740 408.196,320.000 386.976 C 324.676 383.465,324.733 383.449,335.787 382.435 C 391.959 377.286,440.859 356.010,475.363 321.707 C 493.849 303.327,505.713 284.577,510.366 266.384 C 512.435 258.293,512.425 253.669,510.321 245.441 C 505.834 227.897,492.573 207.446,473.834 189.170 C 463.543 179.134,458.056 174.686,446.168 166.743 C 415.118 145.998,373.769 132.325,332.543 129.170 C 325.226 128.610,324.892 128.488,319.525 124.425 C 301.563 110.827,272.392 94.414,254.720 87.962 C 244.162 84.108,228.474 80.206,223.696 80.247 C 221.516 80.266,218.581 80.890,217.173 81.634 M262.838 126.758 C 275.803 133.351,289.652 142.071,302.515 151.742 C 307.645 155.599,313.198 159.083,314.855 159.483 C 316.511 159.883,323.427 160.672,330.224 161.237 C 341.266 162.155,348.146 163.044,353.881 164.296 L 355.763 164.706 353.170 170.460 C 346.226 185.873,339.540 210.523,336.912 230.400 C 335.545 240.742,335.555 271.040,336.929 281.600 C 339.490 301.285,346.209 326.090,353.155 341.506 C 355.448 346.594,355.573 347.273,354.293 347.655 C 351.433 348.508,333.845 350.671,325.523 351.192 C 320.843 351.485,315.743 352.112,314.190 352.585 C 312.637 353.059,307.453 356.362,302.670 359.925 C 288.295 370.636,274.215 379.463,260.775 386.190 C 253.780 389.691,247.931 392.429,247.777 392.275 C 247.624 392.121,249.411 385.301,251.749 377.119 C 254.087 368.937,255.992 361.090,255.981 359.681 C 255.955 356.035,253.268 350.591,250.234 348.039 C 248.645 346.702,242.892 344.331,235.393 341.923 C 207.396 332.933,181.592 317.004,142.507 284.583 C 134.763 278.159,127.191 272.364,125.681 271.705 C 121.927 270.067,116.157 270.200,112.887 272.000 C 111.395 272.821,107.049 276.181,103.230 279.467 C 89.686 291.118,79.997 297.775,67.840 303.782 C 57.452 308.915,40.411 315.469,39.590 314.647 C 39.084 314.141,46.875 297.525,50.884 290.560 C 55.710 282.176,60.376 275.823,66.278 269.601 C 73.127 262.380,74.826 256.829,72.147 250.418 C 71.465 248.787,68.292 244.479,65.095 240.846 C 55.833 230.321,48.311 218.196,42.293 204.093 L 39.261 196.986 42.030 197.580 C 47.399 198.731,62.562 204.828,70.902 209.190 C 79.768 213.827,93.474 223.659,104.612 233.373 C 114.230 241.761,118.762 243.151,125.867 239.889 C 127.744 239.027,137.202 231.830,146.883 223.896 C 186.194 191.682,211.700 176.605,241.245 168.116 C 244.629 167.144,248.619 165.320,250.113 164.063 C 253.254 161.420,255.954 156.016,255.981 152.319 C 255.992 150.910,254.080 143.039,251.733 134.827 C 249.387 126.615,247.467 119.809,247.467 119.702 C 247.467 119.206,252.807 121.657,262.838 126.758 M394.858 175.861 C 418.492 185.243,437.832 198.010,454.400 215.166 C 465.056 226.200,471.373 234.912,476.224 245.265 C 480.213 253.776,480.436 257.324,477.446 264.682 C 466.522 291.567,434.430 320.029,398.383 334.803 C 386.487 339.678,387.888 340.045,383.665 330.946 C 373.188 308.373,367.787 282.878,367.787 256.000 C 367.787 234.812,370.447 217.931,376.864 198.400 C 379.844 189.329,386.814 173.227,387.760 173.227 C 388.014 173.227,391.208 174.412,394.858 175.861 M408.284 226.016 C 404.491 228.329,401.216 232.579,400.569 236.026 C 398.484 247.137,406.687 256.825,417.315 255.804 C 432.707 254.325,437.097 234.175,423.794 226.064 C 420.173 223.855,411.869 223.830,408.284 226.016 " stroke="none" fill="black" fill-rule="evenodd"></path></svg>