<svg xmlns="http://www.w3.org/2000/svg" width="512" height="512" viewBox="0 0 512 512"><path d="M147.627 64.521 C 104.935 69.805,69.060 98.702,54.717 139.359 C 49.603 153.854,48.305 162.360,48.374 180.907 C 48.444 199.460,50.298 214.674,54.406 230.400 L 56.747 239.360 103.464 239.581 L 150.181 239.801 180.688 178.781 C 197.466 145.219,211.390 117.760,211.628 117.760 C 211.867 117.760,222.788 153.520,235.896 197.227 L 259.730 276.693 281.866 232.427 L 304.003 188.161 325.011 230.187 L 346.019 272.213 394.023 272.213 C 420.425 272.213,442.027 272.468,442.027 272.780 C 442.027 273.864,432.516 291.306,428.751 297.126 C 426.666 300.349,424.960 303.167,424.960 303.387 C 424.960 303.607,437.440 303.787,452.693 303.787 L 480.427 303.787 480.427 288.000 L 480.427 272.213 461.562 272.213 C 446.795 272.213,442.797 271.982,443.155 271.147 C 443.407 270.560,445.011 266.816,446.721 262.827 C 458.133 236.200,463.612 209.556,463.654 180.480 C 463.680 162.403,462.324 153.648,457.283 139.359 C 444.933 104.351,416.164 77.334,381.166 67.877 C 349.605 59.349,314.483 65.559,286.349 84.643 C 278.416 90.023,268.724 98.335,262.058 105.473 L 256.028 111.930 249.182 104.697 C 230.245 84.691,208.315 72.023,183.040 66.488 C 175.547 64.847,154.457 63.676,147.627 64.521 M186.927 237.987 L 169.809 272.213 119.891 272.213 C 92.436 272.213,69.973 272.468,69.973 272.780 C 69.973 274.430,80.524 292.955,87.390 303.360 C 106.364 332.115,130.985 358.427,161.756 382.834 C 176.447 394.487,191.300 404.959,224.215 426.870 L 256.003 448.031 288.938 426.145 C 339.238 392.720,359.400 377.126,383.631 352.905 C 398.719 337.823,408.674 326.242,418.520 312.320 L 424.253 304.213 375.010 303.787 L 325.766 303.360 314.882 281.605 L 303.998 259.850 278.244 311.352 C 264.079 339.678,252.362 362.716,252.205 362.547 C 252.049 362.378,241.276 326.720,228.267 283.307 C 215.257 239.893,204.485 204.235,204.329 204.067 C 204.172 203.898,196.341 219.162,186.927 237.987 M31.952 240.883 C 31.721 241.486,31.637 248.686,31.766 256.883 L 32.000 271.787 50.658 272.017 C 65.485 272.200,69.219 272.025,68.845 271.164 C 65.549 263.580,59.615 248.530,58.406 244.693 L 56.862 239.787 44.617 239.787 C 35.431 239.787,32.268 240.061,31.952 240.883 " stroke="none" fill="black" fill-rule="evenodd"></path></svg>