<svg xmlns="http://www.w3.org/2000/svg" width="512" height="512" viewBox="0 0 512 512"><path d="M142.933 65.198 C 118.419 69.320,98.834 79.394,81.476 96.810 C 61.518 116.835,50.001 142.943,48.143 172.373 C 47.153 188.052,50.501 216.767,55.332 234.027 L 56.944 239.787 51.639 239.787 C 42.783 239.787,37.058 242.586,34.114 248.358 C 30.731 254.989,32.693 264.784,38.167 268.598 C 42.388 271.538,46.078 272.213,57.941 272.217 L 69.547 272.221 73.609 280.204 C 99.795 331.672,153.642 385.240,233.650 439.418 C 250.881 451.086,261.507 450.885,279.702 438.546 C 303.360 422.502,335.817 397.833,352.427 383.270 C 380.559 358.606,406.682 330.328,420.495 309.585 L 424.306 303.864 447.169 303.612 L 470.032 303.360 473.309 300.739 C 477.589 297.317,479.571 293.285,479.571 288.000 C 479.571 282.715,477.589 278.683,473.310 275.261 L 470.034 272.640 456.457 272.368 C 448.990 272.218,442.880 271.941,442.880 271.752 C 442.880 271.563,443.871 269.190,445.081 266.478 C 453.615 247.362,459.799 225.035,462.636 203.093 C 463.213 198.635,463.679 188.075,463.671 179.627 C 463.656 162.475,462.200 153.298,457.283 139.359 C 445.779 106.750,419.192 80.228,387.413 69.662 C 375.152 65.585,367.511 64.434,352.853 64.457 C 337.877 64.481,330.282 65.664,317.267 70.000 C 299.197 76.020,284.801 85.413,268.160 102.042 L 256.000 114.193 243.840 102.042 C 223.537 81.754,204.889 71.181,180.480 66.120 C 171.287 64.213,151.656 63.732,142.933 65.198 M181.760 99.379 C 206.076 107.240,224.247 123.097,242.650 152.516 C 248.593 162.016,263.407 162.016,269.350 152.516 C 280.270 135.059,291.398 122.087,302.860 113.453 C 310.149 107.962,321.129 102.322,330.240 99.388 C 339.758 96.324,357.759 95.463,368.010 97.583 C 392.663 102.682,413.053 119.115,424.151 142.832 C 429.413 154.078,431.072 161.568,431.560 176.286 C 432.500 204.638,425.923 233.324,412.228 260.603 L 406.613 271.787 376.320 272.007 L 346.027 272.227 331.283 242.777 C 317.649 215.542,316.273 213.150,312.999 210.983 C 310.018 209.011,308.549 208.640,303.715 208.640 C 294.014 208.640,294.033 208.616,275.574 245.233 L 259.734 276.653 241.201 214.936 C 231.007 180.992,222.111 152.371,221.431 151.333 C 220.751 150.296,218.777 148.365,217.044 147.043 C 214.318 144.965,213.127 144.640,208.217 144.640 C 203.454 144.640,201.972 145.017,198.994 146.988 C 195.651 149.200,194.139 151.947,172.807 194.561 L 150.168 239.787 120.380 239.787 L 90.592 239.787 88.854 234.453 C 82.862 216.071,80.765 202.522,80.697 181.760 C 80.646 166.007,80.837 163.545,82.620 157.013 C 90.812 127.006,113.820 104.331,142.802 97.701 C 146.450 96.866,152.092 96.581,161.280 96.767 C 172.940 97.002,175.366 97.311,181.760 99.379 M223.532 267.489 C 233.377 300.325,242.153 328.165,243.035 329.356 C 248.520 336.766,259.285 338.095,266.263 332.223 C 268.200 330.593,273.693 320.449,286.453 294.934 L 303.982 259.884 313.746 279.295 C 322.489 296.676,323.877 298.950,327.024 301.033 L 330.538 303.360 357.683 303.787 L 384.828 304.213 377.374 313.173 C 353.291 342.122,312.811 376.924,265.215 409.601 L 256.083 415.870 251.135 412.591 C 243.020 407.214,219.612 390.285,208.640 381.860 C 162.857 346.703,127.005 309.086,107.998 276.267 L 105.651 272.213 133.252 272.209 C 149.879 272.206,162.135 271.848,164.077 271.309 C 170.793 269.444,172.383 267.062,188.788 234.299 C 202.188 207.537,204.293 203.798,204.916 205.653 C 205.309 206.827,213.687 234.653,223.532 267.489 " stroke="none" fill="black" fill-rule="evenodd"></path></svg>