<svg xmlns="http://www.w3.org/2000/svg" width="512" height="512" viewBox="0 0 512 512"><path d="M147.627 64.526 C 105.041 69.728,69.057 98.711,54.717 139.359 C 49.614 153.824,48.308 162.362,48.364 180.907 C 48.420 199.441,50.263 214.540,54.406 230.400 L 56.747 239.360 103.454 239.581 L 150.161 239.801 172.804 194.568 C 193.621 152.981,195.715 149.158,198.782 147.128 C 205.180 142.894,213.103 143.321,218.493 148.190 C 222.486 151.798,220.840 146.910,243.268 221.747 L 259.727 276.668 275.570 245.240 C 288.741 219.112,291.947 213.391,294.580 211.317 C 300.981 206.274,311.820 207.688,316.437 214.168 C 317.692 215.931,324.859 229.713,332.363 244.793 L 346.005 272.213 394.016 272.213 C 420.422 272.213,442.027 272.468,442.027 272.780 C 442.027 273.864,432.516 291.306,428.751 297.126 C 426.666 300.349,424.960 303.184,424.960 303.426 C 424.960 303.668,435.101 303.752,447.496 303.613 L 470.032 303.360 473.309 300.739 C 477.589 297.317,479.571 293.285,479.571 288.000 C 479.571 282.715,477.589 278.683,473.310 275.261 L 470.034 272.640 456.389 272.367 C 446.311 272.165,442.857 271.831,443.178 271.087 C 458.335 235.970,463.608 212.637,463.654 180.480 C 463.674 166.943,463.369 162.831,461.807 155.573 C 456.851 132.546,446.360 112.714,430.966 97.276 C 421.505 87.788,413.827 82.118,402.773 76.456 C 387.337 68.550,374.752 65.170,357.547 64.312 C 322.864 62.582,288.738 77.985,262.768 107.093 C 259.418 110.848,256.365 113.920,255.983 113.920 C 255.602 113.920,252.760 111.040,249.669 107.520 C 230.804 86.038,205.847 71.048,180.695 66.092 C 173.857 64.745,153.664 63.789,147.627 64.526 M188.710 234.419 C 172.386 267.059,170.793 269.443,164.077 271.309 C 162.014 271.881,144.489 272.206,115.413 272.209 C 90.421 272.211,69.973 272.468,69.973 272.780 C 69.973 274.581,80.748 293.308,88.306 304.640 C 117.265 348.067,158.408 386.794,225.556 433.829 C 244.121 446.833,245.673 447.532,256.000 447.532 C 266.182 447.532,268.012 446.740,284.776 435.078 C 347.980 391.112,392.814 349.758,419.905 310.435 L 424.192 304.213 377.366 303.787 L 330.540 303.360 327.025 301.033 C 323.877 298.949,322.491 296.681,313.746 279.295 L 303.982 259.884 286.392 295.056 C 270.538 326.756,268.462 330.474,265.356 332.724 C 263.460 334.097,260.431 335.471,258.624 335.776 C 251.427 336.992,243.634 332.510,241.140 325.720 C 240.415 323.747,231.900 295.637,222.216 263.253 C 212.533 230.869,204.483 204.235,204.327 204.067 C 204.172 203.898,197.144 217.557,188.710 234.419 M43.093 240.829 C 36.247 243.256,32.427 248.690,32.427 256.000 C 32.427 263.470,36.281 268.803,43.434 271.229 C 47.589 272.639,69.457 272.568,68.838 271.147 C 65.603 263.716,59.614 248.527,58.406 244.693 L 56.862 239.787 51.257 239.854 C 48.175 239.891,44.501 240.330,43.093 240.829 " stroke="none" fill="black" fill-rule="evenodd"></path></svg>