<svg xmlns="http://www.w3.org/2000/svg" width="512" height="512" viewBox="0 0 512 512"><path d="M133.547 32.937 C 132.139 33.125,127.339 33.689,122.880 34.189 C 118.421 34.690,110.373 36.071,104.994 37.259 C 87.415 41.142,75.928 46.140,68.556 53.112 L 64.000 57.421 64.000 268.940 L 64.000 480.459 82.987 480.230 L 101.973 480.000 102.400 396.426 L 102.827 312.852 107.653 310.912 C 120.708 305.664,149.408 302.838,172.657 304.511 C 196.642 306.237,213.317 309.230,263.680 320.848 C 298.277 328.829,317.666 332.790,331.093 334.620 C 341.191 335.996,366.257 335.983,377.600 334.596 C 400.068 331.847,423.595 325.548,439.970 317.896 L 448.000 314.143 448.000 184.422 L 448.000 54.700 444.800 56.037 C 443.040 56.772,437.376 59.493,432.213 62.083 C 410.031 73.211,382.085 79.565,354.987 79.641 C 335.526 79.695,325.935 77.236,271.360 58.198 C 232.168 44.526,214.293 39.342,190.985 34.888 C 182.885 33.341,177.697 33.008,158.720 32.819 C 146.283 32.695,134.955 32.748,133.547 32.937 " stroke="none" fill="black" fill-rule="evenodd"></path></svg>