<svg xmlns="http://www.w3.org/2000/svg" width="512" height="512" viewBox="0 0 512 512"><path d="M200.723 33.844 C 197.033 35.663,193.993 39.380,192.719 43.630 C 191.842 46.558,191.965 48.512,193.536 56.605 C 197.252 75.754,196.850 89.743,192.040 108.775 C 186.280 131.564,176.654 150.123,145.774 197.973 C 113.428 248.095,102.737 270.765,97.731 299.845 C 96.025 309.758,96.032 331.153,97.747 342.930 C 104.273 387.769,129.820 427.973,167.947 453.405 C 186.875 466.031,210.173 474.921,233.070 478.253 C 244.898 479.975,267.153 479.970,278.930 478.244 C 331.179 470.584,376.307 437.675,399.394 390.400 C 405.615 377.661,409.827 365.500,412.825 351.623 C 415.061 341.272,415.140 340.019,415.123 314.880 C 415.110 294.932,414.748 286.063,413.574 276.907 C 404.398 205.346,376.537 144.622,330.988 96.908 C 293.954 58.114,245.954 32.353,210.875 32.446 C 205.861 32.459,202.630 32.904,200.723 33.844 M255.276 271.039 C 262.601 277.032,268.338 283.260,275.618 293.120 C 293.971 317.980,303.792 344.398,303.783 368.884 C 303.769 408.232,285.876 431.787,256.000 431.787 C 233.312 431.787,217.479 418.241,210.617 392.960 C 208.998 386.996,208.764 383.923,208.761 368.640 C 208.758 352.531,208.931 350.505,210.947 343.040 C 213.941 331.951,218.115 321.081,226.255 303.170 C 230.047 294.827,234.475 283.968,236.094 279.040 C 239.585 268.420,241.277 266.240,246.027 266.240 C 248.872 266.240,250.342 267.003,255.276 271.039 " stroke="none" fill="black" fill-rule="evenodd"></path></svg>