<svg xmlns="http://www.w3.org/2000/svg" width="512" height="512" viewBox="0 0 512 512"><path d="M308.828 18.192 C 305.702 19.836,297.029 30.101,257.498 78.945 C 231.335 111.271,209.692 138.466,209.403 139.377 C 208.978 140.716,223.512 155.678,285.132 217.342 C 327.072 259.312,362.086 294.040,362.942 294.515 C 364.051 295.132,364.963 295.056,366.122 294.250 C 368.615 292.517,428.269 218.484,430.240 214.678 C 433.980 207.452,430.523 197.433,423.040 193.810 C 419.346 192.022,418.626 192.000,363.158 192.000 L 307.015 192.000 307.474 190.080 C 309.456 181.784,335.360 37.021,335.360 34.241 C 335.360 20.822,320.693 11.950,308.828 18.192 M75.622 65.034 C 70.994 66.285,66.216 71.316,64.974 76.246 C 64.061 79.873,64.131 81.421,65.443 86.613 C 66.156 89.436,421.411 444.498,425.387 446.362 C 427.264 447.242,430.144 447.963,431.787 447.963 C 439.053 447.963,446.584 441.668,447.625 434.724 C 448.970 425.755,462.704 440.231,268.521 245.935 C 170.819 148.176,89.728 67.480,88.320 66.612 C 84.991 64.560,79.776 63.912,75.622 65.034 M144.342 219.176 C 139.619 224.247,83.128 294.540,81.655 297.179 C 80.525 299.201,80.194 301.247,80.423 304.776 C 80.828 310.992,83.828 315.706,88.960 318.190 C 92.654 319.978,93.374 320.000,148.817 320.000 L 204.936 320.000 204.431 322.347 C 201.668 335.205,176.645 475.709,176.659 478.287 C 176.697 485.276,182.205 492.686,189.036 494.941 C 193.407 496.383,200.474 495.637,204.191 493.339 C 206.140 492.135,224.392 470.275,253.913 433.789 C 279.566 402.083,301.186 375.033,301.957 373.677 L 303.360 371.213 226.123 293.980 C 183.643 251.501,148.373 216.747,147.746 216.747 C 147.118 216.747,145.587 217.840,144.342 219.176 " stroke="none" fill="black" fill-rule="evenodd"></path></svg>