<svg xmlns="http://www.w3.org/2000/svg" width="512" height="512" viewBox="0 0 512 512"><path d="M319.951 34.332 C 312.030 37.098,305.405 41.313,298.132 48.213 C 292.353 53.697,291.836 54.466,291.838 57.595 C 291.840 60.976,292.465 61.628,371.418 140.582 C 450.372 219.535,451.024 220.160,454.405 220.162 C 457.532 220.164,458.307 219.645,463.787 213.883 C 475.286 201.792,480.019 190.698,479.428 177.226 C 479.137 170.599,478.654 168.463,476.303 163.413 C 473.658 157.732,470.618 154.539,414.041 98.015 C 357.890 41.917,354.226 38.432,348.587 35.760 C 343.282 33.246,341.658 32.898,334.080 32.653 C 326.913 32.421,324.651 32.690,319.951 34.332 M266.418 86.059 C 264.509 87.269,258.459 102.437,255.984 112.213 C 253.193 123.241,252.166 129.844,250.544 147.200 C 249.257 160.974,247.837 165.560,242.293 173.842 C 240.791 176.085,195.296 222.272,141.191 276.480 C 75.190 342.607,41.816 376.633,39.772 379.880 C 30.912 393.959,29.892 412.537,37.086 428.805 C 40.589 436.726,46.042 443.832,57.105 454.895 C 75.757 473.548,87.545 479.573,105.387 479.573 C 114.296 479.573,120.462 478.177,128.631 474.307 C 134.061 471.735,140.290 465.700,234.667 371.576 C 342.880 263.652,339.922 266.381,352.000 263.341 C 354.816 262.632,363.072 261.444,370.347 260.701 C 397.406 257.936,425.692 249.162,426.529 243.274 C 426.772 241.570,414.192 228.611,348.882 163.287 C 296.895 111.288,270.376 85.338,269.233 85.346 C 268.291 85.354,267.024 85.674,266.418 86.059 M233.542 269.528 C 240.428 273.070,244.322 279.398,244.382 287.147 C 244.427 292.982,242.809 296.997,238.732 301.167 C 235.083 304.900,231.903 306.403,226.471 306.964 C 211.085 308.551,200.028 292.365,206.975 278.424 C 211.884 268.573,223.876 264.557,233.542 269.528 " stroke="none" fill="black" fill-rule="evenodd"></path></svg>