<svg xmlns="http://www.w3.org/2000/svg" width="512" height="512" viewBox="0 0 512 512"><path d="M243.264 17.141 C 227.532 20.228,211.633 30.030,202.433 42.315 C 193.258 54.566,189.498 65.403,188.710 81.872 L 188.160 93.344 184.502 88.970 C 180.205 83.830,171.476 77.194,164.267 73.586 C 147.502 65.194,126.188 64.294,109.055 71.256 C 93.012 77.775,78.721 91.700,72.274 107.095 C 68.097 117.070,67.061 122.547,67.108 134.400 C 67.146 143.925,67.480 146.579,69.466 153.173 C 73.277 165.827,79.201 175.356,88.623 183.989 L 93.384 188.351 81.892 188.797 C 73.311 189.129,68.887 189.724,64.427 191.146 C 41.800 198.356,25.804 214.355,18.781 236.800 C 16.381 244.473,15.556 258.928,17.037 267.377 C 21.282 291.592,39.043 312.025,62.978 320.233 C 69.320 322.407,72.072 322.841,81.892 323.213 L 93.384 323.649 88.599 328.011 C 75.063 340.353,67.675 356.013,66.793 374.231 C 65.859 393.547,71.801 409.990,84.697 423.777 C 90.921 430.430,96.042 434.259,103.929 438.157 C 127.910 450.009,155.804 446.920,177.067 430.059 C 179.883 427.826,183.531 424.325,185.173 422.280 L 188.160 418.560 188.702 430.080 C 189.472 446.440,193.063 456.885,202.240 469.459 C 209.720 479.707,223.171 488.954,236.800 493.219 C 244.473 495.619,258.928 496.444,267.377 494.963 C 291.583 490.719,311.922 473.052,320.235 449.049 C 322.425 442.727,322.892 439.858,323.327 430.080 L 323.840 418.560 326.827 422.280 C 333.649 430.777,346.232 438.741,358.827 442.534 C 369.426 445.727,385.282 445.943,395.448 443.034 C 408.329 439.348,418.473 433.216,427.303 423.777 C 440.199 409.990,446.141 393.547,445.207 374.231 C 444.327 356.036,437.000 340.483,423.389 327.914 L 418.560 323.455 427.520 323.419 C 432.448 323.400,439.029 322.843,442.144 322.183 C 468.625 316.570,490.229 294.151,494.955 267.377 C 496.445 258.937,495.625 244.490,493.219 236.800 C 485.615 212.497,466.501 194.861,442.363 189.875 C 438.932 189.166,432.173 188.577,427.343 188.566 L 418.560 188.545 423.366 184.086 C 432.843 175.292,438.733 165.793,442.534 153.173 C 444.520 146.579,444.854 143.925,444.892 134.400 C 444.939 122.545,443.894 117.026,439.733 107.139 C 435.098 96.127,426.658 85.855,416.163 78.454 C 396.576 64.643,369.543 62.714,347.733 73.572 C 340.918 76.965,331.168 84.451,327.117 89.401 L 323.840 93.406 323.289 81.903 C 322.534 66.142,319.314 56.412,311.011 44.800 C 301.017 30.823,286.056 20.944,269.660 17.495 C 263.116 16.118,249.414 15.935,243.264 17.141 M264.077 49.095 C 278.114 52.751,288.217 63.558,291.122 78.024 C 292.733 86.049,290.417 105.474,283.566 141.383 C 280.795 155.907,280.560 158.146,281.486 161.237 C 284.593 171.605,296.903 176.293,305.576 170.410 C 307.098 169.378,311.212 164.309,314.718 159.147 C 346.727 112.013,356.466 101.811,372.219 98.908 C 385.608 96.441,400.219 103.080,407.747 115.052 C 411.944 121.726,413.256 127.114,412.864 136.068 C 412.566 142.886,412.133 144.745,409.681 149.725 C 405.022 159.189,393.249 169.331,361.522 191.214 C 353.469 196.768,345.985 201.946,344.892 202.721 C 337.392 208.033,337.118 220.549,344.361 226.908 C 349.965 231.829,352.227 231.959,370.631 228.425 C 406.040 221.624,425.494 219.320,434.349 220.880 C 453.406 224.237,466.753 242.617,463.509 261.034 C 460.797 276.433,449.400 288.073,434.057 291.118 C 425.920 292.732,405.928 290.355,370.631 283.575 C 356.082 280.781,353.889 280.550,350.777 281.482 C 343.128 283.774,338.013 291.473,339.141 298.995 C 339.878 303.911,342.550 307.813,347.329 310.953 C 357.493 317.630,380.221 333.757,387.849 339.703 C 405.526 353.484,410.920 360.432,413.092 372.219 C 415.559 385.608,408.920 400.219,396.948 407.747 C 390.274 411.944,384.886 413.256,375.932 412.864 C 360.882 412.206,354.354 407.215,335.389 381.867 C 329.420 373.888,320.902 361.985,316.461 355.416 C 311.948 348.740,307.155 342.642,305.597 341.592 C 296.872 335.712,284.595 340.389,281.482 350.777 C 280.550 353.889,280.781 356.082,283.575 370.631 C 290.341 405.857,292.734 425.946,291.122 433.976 C 288.021 449.416,276.468 460.802,261.177 463.487 C 250.517 465.359,238.844 461.527,230.849 453.532 C 225.488 448.171,222.200 441.845,220.880 434.349 C 219.320 425.494,221.624 406.040,228.425 370.631 C 231.219 356.082,231.450 353.889,230.518 350.777 C 227.456 340.559,215.676 335.882,206.718 341.330 C 203.818 343.093,203.010 344.139,192.433 359.813 C 182.276 374.864,166.440 395.670,160.620 401.608 C 157.324 404.971,153.428 407.858,149.725 409.681 C 144.745 412.133,142.886 412.566,136.068 412.864 C 127.114 413.256,121.726 411.944,115.052 407.747 C 103.080 400.219,96.441 385.608,98.908 372.219 C 100.041 366.073,103.598 358.483,107.240 354.443 C 113.671 347.311,129.333 335.213,153.489 318.720 C 162.403 312.634,169.258 307.330,170.387 305.644 C 176.276 296.856,171.634 284.601,161.237 281.486 C 158.146 280.560,155.907 280.795,141.383 283.566 C 105.474 290.417,86.049 292.733,78.024 291.122 C 58.429 287.186,45.136 268.783,48.542 250.302 C 51.447 234.532,62.906 223.196,78.359 220.804 C 87.412 219.403,110.085 222.223,145.671 229.176 C 156.222 231.238,158.244 231.410,161.258 230.507 C 171.635 227.398,176.271 215.130,170.385 206.356 C 169.277 204.703,162.747 199.603,154.737 194.133 C 106.074 160.902,98.224 152.117,99.151 131.930 C 99.620 121.715,102.739 114.845,109.871 108.315 C 125.098 94.375,146.115 95.236,160.704 110.398 C 166.704 116.634,184.295 139.943,195.561 156.587 C 200.013 163.165,204.893 169.377,206.419 170.410 C 215.109 176.294,227.407 171.606,230.518 161.223 C 231.450 158.111,231.219 155.918,228.425 141.369 C 221.624 105.960,219.320 86.506,220.880 77.651 C 223.389 63.404,233.736 52.408,247.858 48.977 C 253.807 47.532,258.198 47.564,264.077 49.095 M245.601 176.648 C 211.516 182.059,186.309 204.940,178.182 237.846 C 174.390 253.201,176.079 272.354,182.571 287.609 C 190.257 305.673,206.327 321.743,224.391 329.429 C 243.839 337.705,267.078 337.861,286.798 329.848 C 304.783 322.541,321.696 305.783,329.429 287.609 C 337.867 267.780,337.867 244.220,329.429 224.391 C 321.961 206.840,306.006 190.616,288.613 182.887 C 276.750 177.615,257.289 174.793,245.601 176.648 M267.554 209.509 C 284.507 213.826,298.174 227.493,302.491 244.446 C 308.895 269.591,292.992 296.013,267.554 302.491 C 242.409 308.895,215.987 292.992,209.509 267.554 C 203.126 242.494,218.769 216.235,244.053 209.564 C 250.263 207.926,261.237 207.900,267.554 209.509 " stroke="none" fill="black" fill-rule="evenodd"></path></svg>