<svg xmlns="http://www.w3.org/2000/svg" width="512" height="512" viewBox="0 0 512 512"><path d="M247.467 16.290 C 224.839 19.203,204.678 33.823,194.915 54.396 C 191.631 61.316,188.602 72.766,188.593 78.293 C 188.586 82.417,186.372 85.333,183.247 85.333 C 182.188 85.333,179.212 83.600,176.634 81.482 C 165.884 72.649,152.241 67.493,137.769 66.793 C 118.953 65.883,102.417 71.671,89.123 83.821 C 62.786 107.891,59.238 148.007,80.985 175.817 C 87.783 184.510,86.532 187.913,76.183 188.875 C 60.776 190.307,45.896 197.909,34.360 210.240 C 9.495 236.820,10.608 278.927,36.846 304.345 C 43.111 310.414,50.194 315.155,57.606 318.241 C 64.288 321.023,74.171 323.413,78.989 323.413 C 82.354 323.413,85.333 325.873,85.333 328.651 C 85.333 329.655,83.245 333.207,80.693 336.545 C 71.951 347.978,67.634 359.705,66.815 374.245 C 65.013 406.226,85.262 434.173,116.658 443.036 C 125.437 445.515,141.737 445.691,150.613 443.404 C 158.811 441.292,169.215 436.177,175.817 431.015 C 178.851 428.642,182.197 426.693,183.253 426.684 C 186.206 426.658,188.584 429.591,188.601 433.280 C 188.639 441.323,192.705 454.075,198.097 463.058 C 201.597 468.887,210.295 478.451,215.721 482.434 C 221.572 486.728,230.856 491.172,238.579 493.373 C 248.167 496.107,263.833 496.107,273.421 493.373 C 298.077 486.345,315.846 467.996,321.719 443.499 C 322.644 439.639,323.404 435.040,323.407 433.280 C 323.414 429.594,325.781 426.667,328.753 426.667 C 329.812 426.667,332.788 428.418,335.366 430.558 C 340.977 435.215,353.329 441.395,360.843 443.304 C 405.044 454.533,447.593 419.901,445.187 374.652 C 444.390 359.682,439.667 347.017,430.720 335.866 C 424.190 327.726,425.320 324.592,435.230 323.364 C 460.810 320.194,482.335 303.577,491.438 279.972 C 496.871 265.886,497.291 248.921,492.554 234.967 C 485.977 215.592,471.965 200.592,453.669 193.339 C 447.057 190.718,438.044 188.624,433.280 188.601 C 429.591 188.584,426.658 186.206,426.684 183.253 C 426.693 182.197,428.642 178.851,431.015 175.817 C 436.015 169.423,441.253 158.982,443.446 151.040 C 444.585 146.912,444.973 142.439,444.964 133.547 C 444.952 122.298,444.789 121.126,442.165 113.493 C 431.814 83.373,405.495 65.281,374.231 66.793 C 359.759 67.493,346.116 72.649,335.366 81.482 C 332.788 83.600,329.812 85.333,328.753 85.333 C 325.632 85.333,323.415 82.417,323.401 78.293 C 323.369 69.142,318.660 55.824,311.803 45.497 C 301.007 29.235,283.765 18.782,263.556 16.248 C 255.736 15.268,255.404 15.269,247.467 16.290 M272.942 177.886 C 297.483 183.079,319.597 201.285,329.429 224.391 C 336.153 240.191,337.639 259.590,333.371 275.855 C 327.378 298.698,312.428 317.051,291.132 327.710 C 271.006 337.783,245.562 338.439,224.391 329.429 C 205.686 321.470,189.423 304.780,181.820 285.742 C 177.766 275.591,176.382 268.023,176.382 256.000 C 176.382 233.569,183.880 215.400,199.640 199.640 C 212.961 186.319,227.183 179.444,247.893 176.314 C 252.400 175.632,266.465 176.515,272.942 177.886 M244.053 209.561 C 227.380 213.948,213.777 227.685,209.509 244.446 C 203.105 269.591,219.008 296.013,244.446 302.491 C 269.591 308.895,296.013 292.992,302.491 267.554 C 308.910 242.353,293.062 216.024,267.554 209.512 C 261.246 207.901,250.273 207.924,244.053 209.561 " stroke="none" fill="black" fill-rule="evenodd"></path></svg>