<svg xmlns="http://www.w3.org/2000/svg" width="512" height="512" viewBox="0 0 512 512"><path d="M59.733 65.327 C 50.067 67.403,40.724 72.695,32.861 80.546 C 24.895 88.500,20.536 96.012,17.896 106.333 C 16.384 112.247,16.213 115.843,16.213 141.855 L 16.213 170.798 18.708 173.292 L 21.202 175.787 256.000 175.787 L 490.798 175.787 493.292 173.292 L 495.787 170.798 495.774 157.719 C 495.760 143.234,494.734 137.228,490.805 128.646 C 484.441 114.743,473.323 104.762,457.406 98.662 C 452.709 96.861,452.307 96.854,334.080 96.428 C 225.528 96.036,215.164 95.878,211.896 94.564 C 209.932 93.775,200.844 88.104,191.700 81.962 C 163.866 63.267,167.149 63.978,109.049 64.068 C 75.018 64.121,64.046 64.401,59.733 65.327 M18.708 210.708 L 16.213 213.202 16.213 306.145 C 16.213 395.854,16.272 399.316,17.896 405.667 C 20.540 416.006,24.893 423.498,32.898 431.491 C 38.429 437.014,41.365 439.174,47.136 441.967 C 60.477 448.424,44.681 447.970,256.000 447.970 C 467.524 447.970,451.821 448.425,465.011 441.923 C 470.615 439.160,473.744 436.842,479.139 431.454 C 487.105 423.500,491.464 415.988,494.104 405.667 C 495.728 399.316,495.787 395.854,495.787 306.145 L 495.787 213.202 493.292 210.708 L 490.798 208.213 256.000 208.213 L 21.202 208.213 18.708 210.708 " stroke="none" fill="black" fill-rule="evenodd"></path></svg>