<svg xmlns="http://www.w3.org/2000/svg" width="512" height="512" viewBox="0 0 512 512"><path d="M243.200 48.291 C 189.307 52.936,145.591 72.806,109.198 109.198 C 75.814 142.582,55.864 183.304,49.403 231.253 C 47.996 241.696,47.996 270.304,49.403 280.747 C 55.864 328.696,75.814 369.418,109.198 402.802 C 142.597 436.200,182.366 455.691,231.253 462.621 C 235.243 463.187,246.379 463.649,256.000 463.649 C 284.931 463.649,308.731 459.018,334.933 448.289 C 361.056 437.593,386.578 420.224,405.701 400.129 C 437.387 366.832,455.931 327.939,462.621 280.747 C 463.187 276.757,463.649 265.621,463.649 256.000 C 463.649 227.171,459.011 203.251,448.395 177.325 C 432.022 137.342,403.062 103.108,365.227 79.011 C 343.385 65.100,312.181 53.926,283.992 49.922 C 275.151 48.666,250.352 47.675,243.200 48.291 M212.919 117.768 L 234.667 132.283 234.667 150.008 L 234.667 167.734 206.799 191.102 C 191.472 203.955,178.479 214.471,177.926 214.471 C 176.455 214.471,147.663 202.137,147.134 201.280 C 146.544 200.324,128.853 150.122,128.853 149.402 C 128.853 148.418,147.021 130.759,152.747 126.178 C 160.792 119.741,171.466 112.941,181.636 107.773 C 186.529 105.287,190.676 103.253,190.852 103.253 C 191.027 103.253,200.958 109.785,212.919 117.768 M326.391 105.747 C 334.302 109.334,346.679 116.772,355.024 122.954 C 362.073 128.176,380.852 145.802,382.362 148.614 C 382.901 149.617,380.520 157.408,374.155 175.470 C 369.223 189.464,364.870 201.231,364.482 201.619 C 362.952 203.149,334.065 214.875,333.156 214.335 C 332.623 214.019,319.845 203.396,304.760 190.730 L 277.333 167.700 277.333 149.992 L 277.333 132.283 298.880 117.823 C 310.731 109.870,320.531 103.338,320.659 103.308 C 320.786 103.278,323.366 104.376,326.391 105.747 M149.112 248.331 C 156.911 251.622,163.456 254.478,163.655 254.677 C 163.854 254.876,167.397 268.541,171.528 285.044 L 179.038 315.048 170.744 329.257 L 162.450 343.467 138.895 343.693 L 115.340 343.920 112.381 339.000 C 103.537 324.292,96.156 304.247,92.722 285.612 L 91.496 278.958 112.521 260.692 C 124.085 250.645,133.858 242.408,134.239 242.386 C 134.620 242.364,141.313 245.040,149.112 248.331 M398.436 259.761 C 409.552 269.340,419.063 277.692,419.572 278.321 C 420.248 279.159,419.960 282.107,418.503 289.280 C 415.192 305.569,407.320 326.372,399.751 338.832 L 396.660 343.920 373.105 343.693 L 349.550 343.467 341.256 329.257 L 332.962 315.048 340.472 285.044 C 344.603 268.541,348.138 254.885,348.327 254.696 C 348.861 254.161,376.653 242.427,377.486 242.384 C 377.892 242.364,387.320 250.183,398.436 259.761 M306.418 352.853 C 310.567 359.893,313.977 366.211,313.994 366.892 C 314.032 368.342,296.425 413.450,294.798 416.070 C 292.529 419.725,267.010 422.514,245.760 421.429 C 234.024 420.830,219.424 418.493,217.916 416.972 C 216.783 415.829,197.973 368.705,197.973 367.010 C 197.973 366.375,198.691 364.657,199.569 363.194 C 200.447 361.731,203.919 355.826,207.286 350.072 L 213.408 339.611 256.141 339.832 L 298.875 340.053 306.418 352.853 " stroke="none" fill="black" fill-rule="evenodd"></path></svg>