<svg xmlns="http://www.w3.org/2000/svg" width="512" height="512" viewBox="0 0 512 512"><path d="M38.400 49.139 C 20.777 53.797,11.287 74.006,18.962 90.534 C 20.529 93.909,44.031 121.826,106.535 194.560 L 191.967 293.973 192.011 355.413 C 192.052 411.776,192.180 417.212,193.558 421.198 C 195.362 426.417,198.104 429.988,202.579 432.945 C 204.463 434.189,224.442 441.337,248.659 449.432 C 286.696 462.145,292.003 463.712,296.755 463.638 C 306.685 463.484,314.745 457.704,318.311 448.181 C 319.946 443.813,320.001 441.292,320.025 368.821 L 320.050 293.973 405.473 194.560 C 467.945 121.856,491.471 93.907,493.038 90.534 C 499.049 77.592,494.685 61.645,482.923 53.568 C 473.838 47.329,491.744 47.780,255.607 47.843 C 72.562 47.891,42.443 48.071,38.400 49.139 M460.800 80.580 C 460.800 80.782,423.115 124.846,377.055 178.500 C 316.605 248.917,292.725 277.316,291.205 280.594 C 290.047 283.091,288.769 287.699,288.364 290.834 C 287.960 293.969,287.617 326.197,287.601 362.453 C 287.586 398.709,287.285 428.373,286.933 428.373 C 286.582 428.373,272.395 423.740,255.407 418.078 L 224.521 407.783 224.253 347.891 L 223.985 288.000 221.982 283.016 C 220.881 280.274,218.210 275.858,216.048 273.202 C 213.885 270.546,176.180 226.517,132.257 175.360 C 88.335 124.203,52.106 81.867,51.749 81.280 C 51.230 80.428,92.292 80.213,255.950 80.213 C 368.617 80.213,460.800 80.379,460.800 80.580 " stroke="none" fill="black" fill-rule="evenodd"></path></svg>