<svg xmlns="http://www.w3.org/2000/svg" width="512" height="512" viewBox="0 0 512 512"><path d="M183.467 34.061 C 159.838 39.336,140.335 54.812,129.992 76.498 C 119.820 97.822,119.572 120.049,129.252 142.720 C 129.852 144.127,128.050 144.213,98.110 144.213 C 75.451 144.213,65.323 144.514,62.819 145.262 C 57.448 146.866,50.837 153.757,49.147 159.515 C 47.205 166.131,47.117 233.820,49.042 240.272 C 50.609 245.522,54.398 250.180,59.583 253.228 L 63.573 255.573 148.693 255.803 L 233.813 256.032 233.813 200.123 L 233.813 144.213 256.000 144.213 L 278.187 144.213 278.187 200.123 L 278.187 256.032 363.307 255.803 L 448.427 255.573 452.417 253.228 C 457.602 250.180,461.391 245.522,462.958 240.272 C 464.883 233.820,464.795 166.131,462.853 159.515 C 461.163 153.757,454.552 146.866,449.181 145.262 C 446.677 144.514,436.549 144.213,413.890 144.213 C 383.940 144.213,382.149 144.127,382.774 142.720 C 391.965 122.036,392.181 99.636,383.391 78.791 C 374.736 58.265,355.768 41.676,333.196 34.891 C 324.569 32.298,305.557 31.678,296.406 33.691 C 282.599 36.730,269.260 43.461,259.839 52.146 L 256.000 55.684 252.161 52.146 C 243.829 44.466,232.306 38.292,219.733 34.771 C 210.833 32.279,193.014 31.930,183.467 34.061 M208.538 77.236 C 218.236 79.762,226.734 86.922,231.094 96.239 C 233.352 101.066,233.381 101.357,233.649 122.667 L 233.920 144.213 215.989 144.213 C 206.126 144.213,196.022 143.788,193.535 143.267 C 183.240 141.113,173.589 133.467,169.114 123.919 C 167.088 119.598,166.827 118.015,166.827 110.080 C 166.827 101.827,167.035 100.682,169.467 95.573 C 176.560 80.676,192.686 73.107,208.538 77.236 M320.461 77.271 C 330.291 79.831,338.025 86.251,342.506 95.573 C 344.972 100.701,345.173 101.797,345.173 110.080 C 345.173 118.015,344.912 119.598,342.886 123.919 C 338.411 133.467,328.760 141.113,318.465 143.267 C 315.978 143.788,305.874 144.213,296.011 144.213 L 278.080 144.213 278.351 122.667 C 278.619 101.395,278.651 101.058,280.891 96.275 C 288.040 81.001,304.475 73.108,320.461 77.271 M80.222 375.680 L 80.230 462.933 82.239 467.247 C 84.507 472.119,89.695 476.991,94.485 478.750 C 97.106 479.712,110.406 479.985,165.760 480.213 L 233.813 480.494 233.813 384.460 L 233.813 288.427 157.013 288.427 L 80.213 288.427 80.222 375.680 M278.187 384.460 L 278.187 480.494 346.240 480.247 L 414.293 480.000 418.560 478.034 C 424.150 475.459,427.282 472.427,429.753 467.200 L 431.770 462.933 431.778 375.680 L 431.787 288.427 354.987 288.427 L 278.187 288.427 278.187 384.460 " stroke="none" fill="black" fill-rule="evenodd"></path></svg>