<svg xmlns="http://www.w3.org/2000/svg" width="512" height="512" viewBox="0 0 512 512"><path d="M111.853 34.132 C 93.758 39.004,79.085 51.052,70.799 67.840 C 66.583 76.384,64.895 82.788,64.277 92.587 C 63.137 110.654,69.598 127.505,82.773 140.828 C 94.131 152.312,107.757 158.598,122.975 159.373 L 131.176 159.790 177.375 212.509 L 223.573 265.228 223.573 313.083 L 223.573 360.939 219.947 363.208 C 214.806 366.424,204.888 376.816,201.511 382.525 C 188.951 403.757,188.951 428.172,201.511 449.496 C 205.478 456.231,216.004 466.609,223.147 470.827 C 243.239 482.693,268.622 482.704,288.853 470.857 C 295.934 466.710,306.447 456.324,310.489 449.482 C 314.540 442.625,317.338 435.308,318.768 427.838 C 323.364 403.814,313.472 378.813,293.662 364.387 L 288.427 360.575 288.427 312.321 L 288.427 264.068 334.033 212.034 L 379.639 160.000 388.433 159.473 C 404.473 158.511,417.892 152.383,429.227 140.843 C 444.477 125.317,450.758 105.020,446.768 84.162 C 444.290 71.214,438.823 60.927,429.227 51.157 C 421.946 43.745,414.036 38.749,404.053 35.258 C 397.711 33.041,396.287 32.871,384.000 32.871 C 371.713 32.871,370.289 33.041,363.947 35.258 C 360.192 36.571,354.432 39.219,351.147 41.143 C 344.066 45.290,333.553 55.676,329.511 62.518 C 319.155 80.049,317.272 100.242,324.258 118.842 L 326.107 123.763 322.700 127.802 C 308.925 144.127,256.197 203.520,255.478 203.520 C 254.984 203.520,238.982 185.706,219.917 163.934 L 185.253 124.348 186.461 122.011 C 187.126 120.726,188.459 116.844,189.423 113.384 C 198.613 80.412,180.610 46.436,148.053 35.313 C 142.209 33.316,139.569 32.940,129.707 32.704 C 120.252 32.476,117.051 32.733,111.853 34.132 M137.510 65.711 C 151.136 70.008,159.573 81.592,159.573 96.000 C 159.573 110.408,151.136 121.992,137.510 126.289 C 130.970 128.352,125.608 128.458,119.408 126.645 C 110.455 124.027,103.732 118.434,99.198 109.835 C 97.052 105.764,96.853 104.590,96.853 96.000 C 96.853 87.454,97.059 86.223,99.153 82.255 C 103.644 73.742,109.883 68.387,118.536 65.618 C 124.858 63.596,130.898 63.625,137.510 65.711 M393.510 65.711 C 407.136 70.008,415.573 81.592,415.573 96.000 C 415.573 110.408,407.136 121.992,393.510 126.289 C 386.970 128.352,381.608 128.458,375.408 126.645 C 366.455 124.027,359.732 118.434,355.198 109.835 C 353.052 105.764,352.853 104.590,352.853 96.000 C 352.853 87.454,353.059 86.223,355.153 82.255 C 359.644 73.742,365.883 68.387,374.536 65.618 C 380.858 63.596,386.898 63.625,393.510 65.711 M265.510 385.711 C 279.136 390.008,287.573 401.592,287.573 416.000 C 287.573 430.408,279.136 441.992,265.510 446.289 C 258.970 448.352,253.608 448.458,247.408 446.645 C 238.455 444.027,231.732 438.434,227.198 429.835 C 225.052 425.764,224.853 424.590,224.853 416.000 C 224.853 407.454,225.059 406.223,227.153 402.255 C 231.644 393.742,237.883 388.387,246.536 385.618 C 252.858 383.596,258.898 383.625,265.510 385.711 " stroke="none" fill="black" fill-rule="evenodd"></path></svg>