<svg xmlns="http://www.w3.org/2000/svg" width="512" height="512" viewBox="0 0 512 512"><path d="M116.480 169.079 C 95.831 170.865,77.462 175.101,64.953 180.963 C 58.536 183.970,57.098 184.320,51.137 184.320 C 43.565 184.320,40.704 185.167,37.257 188.428 C 33.732 191.763,32.427 194.777,32.427 199.582 C 32.427 204.565,33.525 207.864,36.110 210.643 C 38.375 213.078,43.682 215.893,46.007 215.893 C 48.124 215.893,48.392 217.448,49.027 233.455 C 51.152 286.993,65.310 319.209,93.013 333.542 C 106.116 340.321,117.363 342.846,137.813 343.597 C 170.836 344.811,192.967 338.608,209.186 323.593 C 221.567 312.130,230.029 294.986,234.546 272.213 C 236.274 263.497,236.976 258.357,238.973 239.787 C 239.503 234.859,240.297 229.404,240.737 227.665 C 242.346 221.318,249.353 215.931,256.000 215.931 C 262.644 215.931,269.646 221.312,271.269 227.665 C 271.713 229.404,272.521 235.051,273.064 240.213 C 276.540 273.246,279.847 287.559,287.560 302.945 C 298.003 323.777,314.598 336.030,339.734 341.466 C 347.348 343.112,351.214 343.386,367.360 343.423 C 387.466 343.469,393.822 342.738,405.760 339.001 C 443.029 327.338,460.714 294.441,462.997 232.533 C 463.574 216.880,463.750 215.893,465.970 215.893 C 468.315 215.893,473.616 213.087,475.890 210.643 C 478.475 207.864,479.573 204.565,479.573 199.582 C 479.573 194.777,478.268 191.763,474.743 188.428 C 471.284 185.155,468.433 184.320,460.720 184.320 C 454.851 184.320,453.227 183.968,448.806 181.736 C 437.850 176.206,421.811 172.064,401.920 169.630 C 388.201 167.951,343.728 168.251,330.240 170.113 C 309.284 173.007,291.954 178.257,282.189 184.671 L 276.579 188.355 271.623 186.563 C 264.370 183.939,247.450 183.973,240.391 186.626 L 235.448 188.483 230.686 185.147 C 219.127 177.051,196.874 171.175,169.476 168.986 C 156.691 167.964,128.804 168.013,116.480 169.079 M173.227 201.472 C 184.145 202.503,197.246 205.086,203.582 207.456 L 208.288 209.217 207.782 220.022 C 204.894 281.690,195.963 302.462,169.387 309.323 C 156.189 312.730,131.568 312.690,118.255 309.241 C 93.967 302.947,84.299 283.564,81.032 234.620 C 80.517 226.902,80.218 217.914,80.368 214.647 L 80.640 208.708 87.040 206.703 C 106.577 200.582,141.414 198.468,173.227 201.472 M384.114 200.547 C 400.742 201.469,415.195 203.648,424.960 206.704 L 431.360 208.708 431.632 214.647 C 431.782 217.914,431.483 226.902,430.968 234.620 C 427.701 283.564,418.033 302.947,393.745 309.241 C 384.866 311.541,369.588 312.526,358.107 311.538 C 340.163 309.993,331.355 306.773,323.567 298.909 C 311.489 286.714,306.362 265.810,304.218 220.022 L 303.712 209.217 308.418 207.456 C 317.594 204.023,337.358 200.996,355.413 200.258 C 358.699 200.124,363.115 199.946,365.227 199.864 C 367.339 199.781,375.838 200.088,384.114 200.547 " stroke="none" fill="black" fill-rule="evenodd"></path></svg>