<svg xmlns="http://www.w3.org/2000/svg" width="512" height="512" viewBox="0 0 512 512"><path d="M249.584 17.356 C 246.045 18.962,241.769 24.044,240.691 27.923 C 240.083 30.114,239.795 77.399,239.791 175.487 L 239.787 319.827 233.600 320.400 C 143.760 328.719,75.575 373.821,53.732 439.377 C 48.923 453.812,47.273 463.070,48.415 469.212 C 50.411 479.944,56.341 488.036,65.520 492.555 L 71.217 495.360 256.000 495.360 L 440.783 495.360 446.480 492.555 C 455.659 488.036,461.589 479.944,463.585 469.212 C 464.727 463.070,463.077 453.812,458.268 439.377 C 440.246 385.291,390.184 344.365,321.280 327.391 C 308.201 324.169,281.368 320.000,273.706 320.000 C 272.281 320.000,272.213 316.871,272.421 261.034 L 272.640 202.067 356.267 164.126 C 431.999 129.767,440.229 125.840,443.449 122.524 C 446.217 119.674,447.139 117.966,447.612 114.813 C 448.445 109.260,446.831 104.353,443.001 100.788 C 440.676 98.625,417.421 87.678,350.720 57.352 C 255.080 13.867,256.250 14.330,249.584 17.356 M272.008 360.411 C 272.153 386.407,271.916 401.561,271.333 403.728 C 270.839 405.562,269.209 408.459,267.711 410.165 C 261.278 417.491,250.727 417.497,244.300 410.177 C 242.807 408.477,241.184 405.636,240.691 403.863 C 239.690 400.259,239.391 321.534,240.374 320.550 C 240.697 320.227,247.897 320.067,256.374 320.195 L 271.787 320.427 272.008 360.411 " stroke="none" fill="black" fill-rule="evenodd"></path></svg>