<svg xmlns="http://www.w3.org/2000/svg" width="512" height="512" viewBox="0 0 512 512"><path d="M251.307 32.119 C 230.113 34.017,210.709 40.859,196.807 51.336 C 190.418 56.151,178.865 69.379,176.862 74.172 C 173.996 81.031,177.090 90.211,183.452 93.728 C 188.728 96.646,191.341 96.738,199.788 94.308 C 214.736 90.008,227.607 90.527,243.097 96.055 C 253.429 99.743,259.354 103.361,264.986 109.421 C 272.600 117.614,276.910 128.517,277.897 142.080 C 278.335 148.106,278.139 149.529,276.226 154.216 C 273.303 161.378,266.377 171.793,257.342 182.613 C 250.086 191.303,246.671 196.814,246.632 199.893 C 246.616 201.178,245.740 201.387,240.368 201.387 C 233.303 201.387,226.650 203.094,221.013 206.354 C 218.901 207.575,205.644 219.917,191.552 233.780 C 141.523 282.999,97.350 323.622,38.400 374.624 C 31.125 380.918,24.679 386.659,24.075 387.381 C 18.281 394.303,15.875 401.571,16.396 410.575 C 17.059 422.025,18.921 424.647,45.308 451.286 C 71.471 477.700,72.992 478.781,84.892 479.406 C 93.363 479.851,99.455 478.300,105.057 474.274 C 107.204 472.730,116.006 463.403,124.616 453.547 C 171.987 399.318,213.562 354.605,256.072 312.168 C 285.296 282.994,289.432 278.537,291.699 273.768 C 294.749 267.353,296.459 258.763,295.697 253.681 C 295.236 250.607,295.397 249.929,296.693 249.491 C 302.058 247.676,306.213 244.786,314.493 237.112 C 344.348 209.440,356.788 202.454,369.022 206.492 L 372.058 207.494 369.087 211.119 C 367.453 213.113,365.494 216.235,364.733 218.056 C 362.772 222.749,362.946 230.382,365.115 234.861 C 367.381 239.539,404.348 276.444,409.173 278.844 C 416.194 282.337,424.560 281.966,430.549 277.896 C 435.221 274.722,492.153 217.941,493.739 214.875 C 494.537 213.331,495.376 209.484,495.602 206.326 C 496.277 196.891,494.776 194.715,472.148 172.312 C 460.536 160.816,451.380 152.446,449.435 151.551 C 444.108 149.099,438.051 148.883,432.640 150.951 C 430.059 151.938,427.896 152.746,427.835 152.746 C 427.774 152.746,427.564 149.195,427.368 144.853 C 426.912 134.739,424.964 130.385,415.811 119.029 C 405.344 106.042,395.888 96.336,384.069 86.447 C 351.140 58.894,307.120 37.096,276.907 33.382 C 268.397 32.336,255.818 31.716,251.307 32.119 M280.747 66.466 C 301.562 71.223,330.874 86.091,354.784 104.020 C 366.599 112.880,382.307 128.050,390.368 138.387 L 395.457 144.911 395.507 154.589 C 395.551 162.850,395.853 164.925,397.572 168.764 C 400.206 174.649,407.196 181.050,413.656 183.495 C 419.764 185.807,431.071 186.677,435.596 185.183 L 438.828 184.117 449.171 194.459 L 459.513 204.802 439.251 225.064 L 418.989 245.327 409.038 235.376 L 399.087 225.425 401.138 220.873 C 402.860 217.048,403.189 214.956,403.194 207.787 C 403.199 200.073,402.959 198.763,400.699 194.152 C 394.032 180.551,377.559 172.351,359.253 173.521 C 347.076 174.300,333.612 179.971,320.484 189.851 C 313.605 195.028,293.252 212.593,292.247 214.219 C 291.847 214.866,289.761 213.357,286.268 209.895 L 280.903 204.578 286.022 198.135 C 297.187 184.086,304.434 171.551,308.070 160.000 C 310.600 151.962,310.603 139.470,308.077 127.183 C 304.614 110.341,298.711 98.591,287.982 87.186 C 280.425 79.153,271.678 73.271,259.784 68.224 C 255.121 66.246,251.115 64.434,250.880 64.199 C 249.811 63.126,274.247 64.980,280.747 66.466 M252.727 243.798 C 261.726 252.702,263.680 255.075,263.680 257.097 C 263.680 259.191,260.228 262.951,240.593 282.246 C 197.725 324.369,140.717 385.846,89.829 444.827 L 87.072 448.023 68.069 428.731 C 57.618 418.120,48.956 409.143,48.821 408.782 C 48.685 408.420,55.208 402.408,63.315 395.422 C 113.579 352.110,166.828 303.067,212.148 258.347 C 230.756 239.984,238.414 232.960,239.824 232.960 C 241.177 232.960,245.125 236.276,252.727 243.798 " stroke="none" fill="black" fill-rule="evenodd"></path></svg>