<svg xmlns="http://www.w3.org/2000/svg" width="512" height="512" viewBox="0 0 512 512"><path d="M261.476 1.211 C 241.293 5.813,224.481 25.448,224.414 44.497 C 224.394 50.019,223.643 50.791,219.621 49.421 C 214.793 47.775,201.172 47.996,194.987 49.820 C 184.225 52.993,174.847 59.785,168.622 68.915 C 163.727 76.095,161.356 82.765,160.371 92.128 C 159.949 96.135,159.580 130.709,159.551 168.960 L 159.499 238.507 156.699 231.680 C 153.023 222.718,150.053 218.145,144.359 212.673 C 126.382 195.400,95.995 196.053,77.616 214.107 C 65.385 226.122,61.174 243.556,66.049 262.006 C 67.808 268.662,120.599 412.808,124.196 420.773 C 144.660 466.097,177.359 494.022,223.452 505.539 C 256.003 513.673,296.128 514.015,326.133 506.414 C 391.290 489.909,433.945 438.302,444.946 362.667 C 447.666 343.967,447.996 330.118,447.983 235.093 C 447.969 129.300,448.170 133.388,442.409 121.928 C 436.581 110.336,423.762 100.205,411.307 97.349 C 405.754 96.076,392.604 96.230,387.976 97.623 L 384.000 98.820 383.985 87.170 C 383.967 73.190,382.675 66.414,378.409 57.928 C 372.581 46.336,359.762 36.205,347.307 33.349 C 341.448 32.006,328.644 32.232,323.462 33.771 C 320.972 34.511,318.645 34.799,318.290 34.411 C 317.936 34.024,317.195 32.294,316.644 30.568 C 315.337 26.477,310.017 18.368,305.885 14.172 C 301.149 9.361,293.225 4.506,286.782 2.467 C 279.644 0.209,268.335 -0.353,261.476 1.211 M278.456 33.384 C 280.867 34.623,284.886 38.356,286.153 40.533 C 286.887 41.794,287.258 68.678,287.573 143.360 C 287.992 242.548,288.033 244.535,289.707 247.376 C 290.645 248.969,292.850 251.433,294.605 252.852 C 301.323 258.281,312.353 256.369,317.283 248.919 L 319.573 245.459 320.000 160.000 L 320.427 74.541 322.483 71.540 C 328.920 62.148,341.935 61.604,348.679 70.445 L 351.147 73.680 351.573 167.327 L 352.000 260.974 354.571 264.674 C 357.484 268.864,363.258 272.213,367.568 272.213 C 372.893 272.213,379.746 268.123,382.580 263.253 C 383.299 262.017,383.691 244.583,384.000 200.043 L 384.427 138.540 386.483 135.540 C 392.920 126.147,405.936 125.604,412.679 134.446 L 415.147 137.681 415.147 242.280 C 415.147 338.672,415.027 347.650,413.615 356.693 C 402.975 424.883,368.679 465.138,311.040 477.091 C 300.178 479.343,270.083 480.270,255.930 478.788 C 225.584 475.611,202.175 466.424,183.325 450.294 C 173.822 442.163,162.448 426.566,155.515 412.160 C 153.370 407.701,139.348 370.645,124.357 329.813 C 98.887 260.440,97.073 255.126,96.683 248.747 C 96.307 242.606,96.467 241.620,98.273 238.933 C 103.643 230.944,118.524 229.874,123.639 237.110 C 125.173 239.281,160.427 323.487,160.427 324.981 C 160.427 325.386,161.602 327.340,163.039 329.324 C 165.968 333.367,171.194 336.176,175.787 336.176 C 181.728 336.176,189.021 331.186,191.092 325.704 C 191.717 324.050,192.000 287.391,192.000 208.001 L 192.000 92.699 193.810 88.960 C 196.910 82.555,204.337 79.136,212.018 80.577 C 215.170 81.168,220.291 85.047,222.113 88.224 C 222.893 89.584,223.251 109.089,223.573 167.680 C 223.959 237.833,224.136 245.581,225.412 247.893 C 231.858 259.577,248.577 259.701,254.190 248.107 L 256.000 244.368 256.019 144.584 C 256.037 49.585,256.113 44.636,257.605 41.387 C 259.335 37.619,261.114 35.777,264.962 33.771 C 267.937 32.220,275.754 31.996,278.456 33.384 " stroke="none" fill="black" fill-rule="evenodd"></path></svg>