<svg xmlns="http://www.w3.org/2000/svg" width="512" height="512" viewBox="0 0 512 512"><path d="M227.870 32.862 C 157.963 42.221,98.326 81.232,62.734 140.885 C 46.491 168.109,35.636 200.949,32.352 232.808 C 30.899 246.893,31.785 277.534,34.023 290.607 C 42.250 338.669,63.344 379.791,97.280 413.924 C 133.537 450.392,179.274 472.793,230.375 479.111 C 243.883 480.781,268.536 480.808,282.557 479.168 C 385.917 467.077,467.077 385.917,479.168 282.557 C 480.808 268.536,480.781 243.883,479.111 230.375 C 472.855 179.780,450.938 134.594,415.147 98.502 C 380.811 63.879,339.445 42.420,290.928 34.061 C 277.141 31.686,241.691 31.012,227.870 32.862 M192.175 209.540 C 205.204 213.979,211.555 229.915,205.350 242.597 C 196.579 260.525,170.952 260.121,162.439 241.920 C 159.557 235.757,159.634 227.206,162.626 221.201 C 167.866 210.687,180.689 205.626,192.175 209.540 M338.606 210.824 C 361.605 222.317,351.963 257.751,326.375 255.771 C 313.535 254.778,304.365 244.997,304.260 232.183 C 304.112 214.229,322.515 202.784,338.606 210.824 M349.514 306.608 C 352.151 309.673,352.162 313.278,349.554 320.205 C 337.963 350.999,311.069 374.108,278.187 381.527 C 235.975 391.051,192.029 372.323,169.799 335.337 C 164.876 327.145,160.427 316.119,160.427 312.111 C 160.427 308.859,162.355 305.702,164.998 304.627 C 166.007 304.216,207.300 303.957,257.141 304.048 L 347.455 304.213 349.514 306.608 " stroke="none" fill="black" fill-rule="evenodd"></path></svg>