<svg xmlns="http://www.w3.org/2000/svg" width="512" height="512" viewBox="0 0 512 512"><path d="M229.547 33.716 C 144.360 45.415,68.719 108.882,42.424 190.720 C 34.930 214.047,32.066 233.894,32.696 258.133 C 33.187 276.971,35.076 288.565,41.397 311.517 C 48.168 336.101,63.533 380.219,70.357 394.667 C 90.841 438.034,126.772 471.034,161.451 478.329 C 174.288 481.030,191.771 479.318,201.531 474.405 C 210.620 469.829,223.628 461.373,226.548 458.141 C 233.958 449.939,236.725 436.879,233.218 426.658 C 231.190 420.744,144.284 268.015,139.995 262.827 C 137.871 260.257,134.648 257.872,130.252 255.616 C 124.118 252.468,123.220 252.249,116.669 252.308 C 108.053 252.385,105.303 253.368,92.396 260.986 C 81.502 267.415,75.799 271.998,70.762 278.370 C 68.188 281.626,67.440 282.154,67.089 280.963 C 63.793 269.775,63.497 243.658,66.473 226.668 C 79.800 150.580,139.073 87.875,215.467 69.045 C 255.339 59.217,297.628 64.293,336.640 83.588 C 401.617 115.726,444.698 179.627,447.697 248.320 C 448.159 258.896,446.652 276.595,444.901 281.158 C 444.563 282.039,443.490 281.219,441.215 278.341 C 436.216 272.017,430.493 267.406,419.721 261.023 C 406.923 253.439,403.973 252.385,395.331 252.308 C 388.780 252.249,387.882 252.468,381.748 255.616 C 377.358 257.868,374.124 260.261,372.000 262.827 C 368.235 267.373,281.174 420.034,278.806 426.238 C 276.212 433.039,276.944 443.400,280.533 450.686 C 284.089 457.904,288.202 461.620,300.589 468.807 C 315.210 477.290,320.471 478.948,334.080 479.359 C 348.497 479.795,357.629 477.621,372.480 470.217 C 399.683 456.657,423.938 430.556,440.304 397.234 C 450.230 377.024,468.360 322.796,474.844 293.923 C 482.754 258.695,480.857 224.937,468.949 189.013 C 441.857 107.291,366.736 44.988,281.625 33.656 C 270.385 32.160,240.630 32.194,229.547 33.716 M158.295 357.973 C 180.712 397.397,199.971 431.239,201.094 433.178 L 203.136 436.702 194.794 441.447 C 190.207 444.057,184.601 446.652,182.336 447.213 C 167.888 450.798,146.820 441.264,128.427 422.817 C 102.132 396.446,85.428 356.908,87.333 325.547 C 88.156 312.002,91.689 301.939,97.650 296.161 C 102.298 291.657,115.415 284.152,116.582 285.329 C 117.108 285.860,135.879 318.549,158.295 357.973 M403.985 288.835 C 415.513 295.620,419.757 300.961,422.980 312.742 C 424.754 319.230,425.322 333.047,424.171 341.760 C 418.764 382.694,390.769 425.292,358.827 441.189 C 345.652 447.745,336.808 449.381,328.329 446.830 C 326.190 446.186,320.948 443.644,316.681 441.181 L 308.922 436.704 311.688 431.813 C 335.816 389.148,395.586 284.231,395.781 284.200 C 395.924 284.178,399.616 286.264,403.985 288.835 " stroke="none" fill="black" fill-rule="evenodd"></path></svg>