<svg xmlns="http://www.w3.org/2000/svg" width="512" height="512" viewBox="0 0 512 512"><path d="M243.200 48.291 C 189.307 52.936,145.591 72.806,109.198 109.198 C 75.814 142.582,55.864 183.304,49.403 231.253 C 47.996 241.696,47.996 270.304,49.403 280.747 C 55.866 328.705,75.852 369.495,109.198 402.781 C 142.761 436.282,182.341 455.687,231.253 462.621 C 235.243 463.187,246.379 463.649,256.000 463.649 C 284.931 463.649,308.731 459.018,334.933 448.289 C 361.056 437.593,386.578 420.224,405.701 400.129 C 437.387 366.832,455.931 327.939,462.621 280.747 C 463.187 276.757,463.649 265.621,463.649 256.000 C 463.649 227.171,459.011 203.251,448.395 177.325 C 432.022 137.342,403.062 103.108,365.227 79.011 C 343.385 65.100,312.181 53.926,283.992 49.922 C 275.151 48.666,250.352 47.675,243.200 48.291 M219.307 169.315 C 230.511 171.696,240.706 177.585,250.170 187.144 L 255.978 193.009 261.749 187.067 C 285.322 162.795,320.240 161.640,342.980 184.380 C 349.669 191.069,354.217 198.506,357.293 207.787 C 359.302 213.848,359.558 215.952,359.576 226.560 C 359.607 244.849,356.322 257.872,347.194 275.645 C 337.989 293.571,326.395 307.102,302.933 327.302 C 291.413 337.221,279.566 346.729,266.451 356.581 L 255.995 364.436 243.837 355.301 C 210.617 330.341,182.991 304.744,173.041 289.707 C 158.729 268.077,152.493 249.276,152.378 227.413 C 152.313 214.964,153.262 209.985,157.418 200.960 C 166.609 181.003,185.702 168.368,206.933 168.193 C 210.688 168.162,216.256 168.667,219.307 169.315 " stroke="none" fill="black" fill-rule="evenodd"></path></svg>