<svg xmlns="http://www.w3.org/2000/svg" width="512" height="512" viewBox="0 0 512 512"><path d="M46.507 49.023 C 37.370 52.375,33.258 64.063,38.360 72.178 C 41.170 76.647,407.032 444.054,410.757 446.148 C 417.824 450.120,427.993 446.902,431.770 439.500 C 433.781 435.558,434.013 429.562,432.312 425.492 C 431.057 422.488,64.632 53.195,59.991 50.256 C 56.471 48.028,50.668 47.497,46.507 49.023 M157.867 80.784 C 150.564 81.940,141.972 83.852,141.350 84.460 C 140.948 84.852,201.042 145.920,274.891 220.167 L 409.163 355.162 412.429 351.448 C 418.569 344.466,431.553 327.263,437.129 318.720 C 457.439 287.607,469.478 256.287,474.183 222.322 C 476.088 208.572,476.083 183.379,474.173 173.653 C 466.356 133.855,440.212 101.442,404.907 87.779 C 389.709 81.897,383.493 80.790,365.227 80.712 C 349.758 80.646,347.937 80.806,339.353 82.985 C 316.300 88.838,297.502 99.905,279.303 118.338 C 267.783 130.005,268.447 130.028,255.869 117.516 C 230.477 92.257,202.383 79.987,170.730 80.330 C 164.828 80.393,159.040 80.598,157.867 80.784 M68.348 150.909 C 66.854 153.741,63.203 166.381,61.748 173.761 C 59.964 182.804,59.750 206.666,61.339 219.307 C 64.084 241.132,70.517 263.883,79.664 284.118 C 102.310 334.208,145.380 381.976,213.333 432.368 C 229.883 444.640,249.895 458.570,253.867 460.581 C 262.357 464.880,272.682 464.969,281.375 460.817 C 288.973 457.188,337.818 422.148,337.888 420.275 C 337.906 419.811,312.279 393.699,280.939 362.249 C 249.600 330.798,189.114 270.064,146.525 227.283 C 84.020 164.495,68.948 149.770,68.348 150.909 " stroke="none" fill="black" fill-rule="evenodd"></path></svg>