<svg xmlns="http://www.w3.org/2000/svg" width="512" height="512" viewBox="0 0 512 512"><path d="M142.933 65.198 C 101.677 72.135,68.633 99.914,54.717 139.359 C 49.800 153.298,48.344 162.475,48.329 179.627 C 48.314 196.135,49.226 205.318,52.478 221.440 C 67.690 296.852,125.075 365.896,233.650 439.418 C 250.881 451.086,261.507 450.885,279.702 438.546 C 386.758 365.946,444.445 296.313,459.513 221.501 C 462.776 205.300,463.686 196.142,463.671 179.627 C 463.656 162.475,462.200 153.298,457.283 139.359 C 445.779 106.750,419.192 80.228,387.413 69.662 C 375.152 65.585,367.511 64.434,352.853 64.457 C 337.877 64.481,330.282 65.664,317.267 70.000 C 299.197 76.020,284.801 85.413,268.160 102.042 L 256.000 114.193 243.840 102.042 C 223.537 81.754,204.889 71.181,180.480 66.120 C 171.287 64.213,151.656 63.732,142.933 65.198 M181.760 99.379 C 206.076 107.240,224.247 123.097,242.650 152.516 C 248.593 162.016,263.407 162.016,269.350 152.516 C 280.270 135.059,291.398 122.087,302.860 113.453 C 310.149 107.962,321.129 102.322,330.240 99.388 C 339.758 96.324,357.759 95.463,368.010 97.583 C 392.663 102.682,413.053 119.115,424.151 142.832 C 429.413 154.078,431.072 161.568,431.560 176.286 C 433.890 246.581,392.323 313.330,303.724 381.571 C 292.662 390.091,267.290 408.421,259.621 413.434 L 255.989 415.808 251.088 412.560 C 243.015 407.210,219.585 390.264,208.640 381.860 C 139.767 328.972,99.157 276.686,85.807 223.710 C 81.578 206.928,80.757 200.190,80.697 181.760 C 80.646 166.007,80.837 163.545,82.620 157.013 C 90.812 127.006,113.820 104.331,142.802 97.701 C 146.450 96.866,152.092 96.581,161.280 96.767 C 172.940 97.002,175.366 97.311,181.760 99.379 " stroke="none" fill="black" fill-rule="evenodd"></path></svg>