<svg xmlns="http://www.w3.org/2000/svg" width="512" height="512" viewBox="0 0 512 512"><path d="M236.800 64.961 C 171.606 71.161,112.850 112.180,83.554 171.947 C 47.590 245.318,62.397 333.619,120.389 391.611 C 149.265 420.486,184.538 438.505,226.133 445.629 C 240.512 448.092,269.502 448.262,284.160 445.969 C 304.461 442.794,321.629 437.390,340.053 428.376 C 378.988 409.327,409.662 378.656,428.384 340.053 C 437.486 321.286,442.506 305.231,445.994 283.733 C 448.121 270.626,448.121 241.374,445.994 228.267 C 442.506 206.769,437.486 190.714,428.384 171.947 C 393.431 99.876,317.213 57.314,236.800 64.961 M272.490 146.344 C 286.529 148.793,297.441 154.275,307.734 164.052 C 315.676 171.597,320.286 178.585,323.074 187.307 C 329.451 207.256,324.598 229.702,310.570 245.143 C 305.150 251.109,295.555 258.961,285.867 265.361 C 278.294 270.362,270.822 277.748,268.143 282.880 C 266.194 286.613,265.856 288.501,265.438 297.987 C 265.175 303.949,264.546 309.239,264.040 309.744 C 263.445 310.338,258.636 310.577,250.387 310.424 L 237.653 310.187 237.698 297.387 C 237.738 285.827,237.961 283.959,239.995 278.104 C 245.080 263.468,253.307 253.858,271.667 241.109 C 284.729 232.040,291.713 225.313,294.983 218.656 C 297.133 214.277,297.387 212.859,297.386 205.227 C 297.385 197.609,297.139 196.226,295.087 192.335 C 290.791 184.190,279.821 176.310,269.825 174.187 C 264.044 172.959,250.583 172.950,244.735 174.170 C 234.288 176.348,223.325 184.161,218.027 193.204 C 215.468 197.571,213.333 205.615,213.333 210.892 C 213.333 217.175,212.488 217.600,199.990 217.600 C 194.126 217.600,188.585 217.202,187.677 216.717 C 186.228 215.941,186.027 214.871,186.027 207.953 C 186.027 182.344,205.110 157.360,231.118 148.917 C 242.885 145.098,259.438 144.068,272.490 146.344 M267.376 331.309 C 268.685 332.266,268.814 334.125,268.606 349.016 L 268.373 365.653 251.307 365.653 L 234.240 365.653 234.008 349.016 C 233.799 334.125,233.929 332.266,235.237 331.309 C 236.274 330.551,240.949 330.240,251.307 330.240 C 261.664 330.240,266.339 330.551,267.376 331.309 " stroke="none" fill="black" fill-rule="evenodd"></path></svg>