<svg xmlns="http://www.w3.org/2000/svg" width="512" height="512" viewBox="0 0 512 512"><path d="M238.080 65.228 C 208.881 69.457,188.749 79.781,168.401 100.961 C 154.743 115.177,146.589 128.661,142.504 143.787 C 141.023 149.270,140.569 153.929,140.195 167.467 L 139.729 184.320 159.891 184.320 L 180.053 184.320 180.053 171.183 C 180.053 156.046,181.251 150.715,186.639 141.883 C 197.087 124.755,215.233 111.205,233.813 106.656 C 248.882 102.967,273.469 103.541,287.243 107.902 C 302.112 112.611,320.046 127.258,326.212 139.730 C 334.618 156.733,333.603 179.127,323.649 196.267 C 319.231 203.876,305.573 217.248,293.087 226.191 C 267.420 244.575,261.516 249.036,255.400 254.669 C 242.111 266.908,234.020 279.751,230.367 294.400 C 228.947 300.092,228.456 305.372,228.084 318.933 L 227.609 336.213 247.778 336.213 L 267.947 336.213 267.947 323.570 C 267.947 302.240,269.930 296.368,280.680 285.867 C 284.283 282.347,295.082 273.899,304.678 267.093 C 314.273 260.288,325.390 251.995,329.382 248.666 C 355.147 227.173,367.930 205.105,371.277 176.341 C 376.387 132.420,354.046 94.981,310.335 74.215 C 295.986 67.399,283.634 64.916,261.547 64.408 C 251.223 64.170,243.529 64.439,238.080 65.228 M221.653 368.708 C 220.282 369.507,220.160 371.728,220.160 395.818 C 220.160 415.090,220.432 422.331,221.184 423.083 C 222.647 424.546,273.139 424.546,274.603 423.083 C 276.066 421.619,276.066 370.274,274.603 368.811 C 273.280 367.488,223.912 367.393,221.653 368.708 " stroke="none" fill="black" fill-rule="evenodd"></path></svg>