<svg xmlns="http://www.w3.org/2000/svg" width="512" height="512" viewBox="0 0 512 512"><path d="M236.800 64.957 C 171.760 71.108,112.808 112.266,83.554 171.947 C 47.615 245.267,62.430 333.744,120.343 391.657 C 149.095 420.409,184.579 438.512,226.133 445.629 C 240.512 448.092,269.502 448.262,284.160 445.969 C 304.461 442.794,321.629 437.390,340.053 428.376 C 379.115 409.265,409.602 378.780,428.384 340.053 C 437.486 321.285,442.506 305.231,445.994 283.733 C 448.121 270.626,448.121 241.374,445.994 228.267 C 442.506 206.769,437.486 190.715,428.384 171.947 C 393.406 99.823,317.334 57.341,236.800 64.957 M278.930 97.758 C 343.251 107.204,395.274 154.276,411.266 217.501 C 417.063 240.421,417.063 271.579,411.266 294.499 C 408.332 306.098,403.605 318.493,397.954 329.406 C 374.174 375.324,330.119 406.725,278.930 414.242 C 267.108 415.978,244.892 415.978,233.070 414.242 C 181.912 406.729,137.577 375.130,114.016 329.387 C 101.816 305.701,96.427 283.214,96.427 256.000 C 96.427 228.786,101.816 206.299,114.016 182.613 C 137.448 137.122,181.508 105.579,232.533 97.768 C 243.311 96.118,267.724 96.113,278.930 97.758 M240.947 145.419 C 232.515 147.024,229.371 148.126,220.996 152.411 C 204.875 160.658,191.671 177.128,187.243 194.514 C 184.837 203.961,186.470 209.635,192.845 213.973 C 196.515 216.471,203.221 216.590,207.100 214.224 C 210.812 211.961,212.423 209.247,214.358 201.998 C 218.121 187.897,228.094 177.853,242.223 173.935 C 249.400 171.945,264.589 171.814,271.754 173.681 C 282.748 176.544,294.050 186.316,296.629 195.190 C 298.682 202.251,297.940 211.498,294.810 217.856 C 291.690 224.197,283.287 232.197,270.914 240.608 C 260.250 247.857,249.225 258.497,245.060 265.558 C 240.346 273.549,237.928 281.776,237.461 291.410 C 237.075 299.360,237.186 300.151,239.077 302.913 C 243.513 309.394,250.732 311.530,257.441 308.347 C 262.152 306.111,264.341 301.953,265.310 293.394 C 266.762 280.585,271.296 274.291,286.641 263.781 C 308.853 248.568,318.088 238.051,323.074 222.293 C 325.937 213.244,326.657 200.790,324.816 192.163 C 320.372 171.345,302.464 153.286,279.747 146.714 C 271.674 144.378,250.183 143.661,240.947 145.419 M244.662 328.894 C 235.983 331.228,230.386 338.600,230.419 347.654 C 230.460 359.239,238.786 367.787,250.027 367.787 C 255.314 367.787,259.767 366.019,263.571 362.410 C 275.012 351.555,269.674 332.098,254.293 328.596 C 249.630 327.534,249.728 327.531,244.662 328.894 " stroke="none" fill="black" fill-rule="evenodd"></path></svg>