<svg xmlns="http://www.w3.org/2000/svg" width="512" height="512" viewBox="0 0 512 512"><path d="M131.840 34.022 C 114.758 38.939,100.616 53.539,97.232 69.749 C 94.019 85.142,101.031 122.278,111.950 147.704 C 121.255 169.371,131.893 184.292,151.744 203.520 C 183.536 234.315,186.501 237.431,188.910 242.579 C 190.239 245.420,191.425 249.755,191.711 252.823 C 192.929 265.870,187.984 274.844,170.850 290.677 C 137.672 321.337,126.178 335.519,114.221 360.549 C 105.089 379.666,97.672 408.415,96.701 428.455 C 96.245 437.886,96.401 439.927,97.975 445.095 C 102.874 461.186,115.945 473.585,133.120 478.434 C 138.378 479.919,144.763 480.000,256.000 480.000 C 365.410 480.000,373.701 479.898,378.774 478.497 C 396.832 473.508,411.274 458.965,414.770 442.251 C 418.281 425.461,409.599 385.045,396.785 358.524 C 387.224 338.737,377.171 325.184,358.718 307.200 C 327.373 276.652,326.152 275.343,323.219 269.149 C 320.745 263.925,320.427 262.425,320.427 255.982 C 320.427 249.460,320.724 248.097,323.316 242.755 C 325.753 237.732,327.952 235.130,337.359 226.133 C 360.128 204.360,375.276 188.823,380.207 182.188 C 392.356 165.841,401.834 146.647,407.563 126.790 C 413.860 104.960,416.969 80.341,414.765 69.749 C 412.164 57.253,402.233 44.436,390.321 38.202 C 378.559 32.047,387.356 32.420,255.607 32.487 C 145.863 32.544,136.576 32.659,131.840 34.022 M372.139 64.971 C 376.806 66.534,380.663 69.929,382.507 74.098 C 384.102 77.703,384.153 78.570,383.223 86.243 C 380.172 111.417,372.630 134.726,361.843 152.320 C 353.683 165.630,344.386 175.729,316.853 201.195 C 304.944 212.209,299.158 219.405,294.401 229.120 C 289.989 238.129,288.455 245.066,288.439 256.077 C 288.419 270.818,292.483 282.873,301.530 294.908 C 303.680 297.768,314.528 308.903,325.636 319.651 C 351.370 344.550,357.951 352.543,366.326 369.067 C 371.987 380.237,375.253 388.960,378.466 401.493 C 381.177 412.071,384.000 428.141,384.000 432.997 C 384.000 438.440,378.556 444.881,372.139 447.029 C 368.002 448.414,143.998 448.414,139.861 447.029 C 135.432 445.546,131.592 442.308,129.569 438.351 C 127.836 434.959,127.793 434.334,128.732 426.305 C 130.908 407.719,136.298 388.695,143.846 372.967 C 153.142 353.596,161.768 342.883,186.723 319.719 C 204.499 303.219,212.508 293.972,217.134 284.610 C 225.698 267.278,225.865 245.145,217.558 228.571 C 211.875 217.233,204.468 209.038,177.642 184.406 C 151.417 160.326,137.380 135.029,131.058 100.456 C 127.761 82.426,127.533 78.528,129.517 74.042 C 131.285 70.046,135.162 66.553,139.520 65.030 C 143.290 63.712,368.209 63.655,372.139 64.971 M179.458 145.235 C 177.125 146.362,175.857 149.879,176.689 152.912 C 178.324 158.870,194.425 175.513,215.549 193.083 C 229.524 204.707,235.411 210.833,238.096 216.546 C 239.782 220.131,239.817 221.537,239.591 276.722 L 239.360 333.227 237.156 337.920 C 232.063 348.769,223.176 356.811,194.560 376.469 C 176.775 388.686,167.729 395.465,161.846 400.983 C 151.259 410.913,151.999 426.612,163.256 430.876 C 164.902 431.500,194.288 431.787,256.709 431.787 C 343.695 431.787,347.891 431.716,350.706 430.207 C 355.430 427.673,357.023 424.832,357.393 418.281 C 357.653 413.691,357.346 411.715,355.897 408.632 C 351.737 399.781,340.771 390.100,316.160 373.550 C 288.327 354.834,280.226 347.734,275.169 337.624 L 272.213 331.717 272.213 276.043 C 272.213 229.358,272.413 219.891,273.450 217.409 C 275.804 211.774,281.577 205.763,296.701 193.195 C 305.057 186.252,314.721 177.863,318.178 174.552 C 325.587 167.457,334.134 157.251,335.353 154.045 C 336.508 151.007,335.635 147.967,333.016 145.907 C 330.905 144.246,329.418 144.214,256.098 144.271 C 205.224 144.310,180.734 144.618,179.458 145.235 " stroke="none" fill="black" fill-rule="evenodd"></path></svg>