<svg xmlns="http://www.w3.org/2000/svg" width="512" height="512" viewBox="0 0 512 512"><path d="M244.649 98.059 C 236.304 101.418,229.183 108.674,225.993 117.068 C 223.442 123.784,223.988 135.199,227.172 141.682 C 230.133 147.710,236.290 153.867,242.318 156.828 C 246.545 158.904,247.979 159.147,256.000 159.147 C 264.021 159.147,265.455 158.904,269.682 156.828 C 275.710 153.867,281.867 147.710,284.828 141.682 C 286.904 137.455,287.147 136.021,287.147 128.000 C 287.147 119.979,286.904 118.545,284.828 114.318 C 281.869 108.294,275.706 102.128,269.710 99.195 C 263.366 96.091,250.938 95.528,244.649 98.059 M189.607 201.277 C 172.905 207.128,171.296 229.728,187.024 237.565 L 191.482 239.787 215.634 239.787 L 239.787 239.787 239.787 308.053 L 239.787 376.320 211.173 376.320 C 179.625 376.320,178.893 376.424,173.336 381.697 C 163.223 391.291,165.895 407.274,178.762 414.166 L 182.187 416.000 256.000 416.000 L 329.813 416.000 333.238 414.166 C 346.105 407.274,348.777 391.291,338.664 381.697 C 333.197 376.510,331.998 376.320,304.667 376.320 L 279.893 376.320 279.889 296.747 C 279.885 243.281,279.587 216.104,278.978 213.913 C 277.861 209.887,273.049 204.437,268.432 201.965 C 265.045 200.152,264.088 200.102,229.547 199.899 C 196.908 199.707,193.779 199.815,189.607 201.277 " stroke="none" fill="black" fill-rule="evenodd"></path></svg>