<svg xmlns="http://www.w3.org/2000/svg" viewBox="0 0 512 512"><path d="M227.870 32.862 C 157.963 42.221,98.326 81.232,62.734 140.885 C 46.490 168.111,35.815 200.410,32.374 232.743 C 30.890 246.687,31.766 277.422,34.023 290.607 C 42.292 338.918,63.488 380.093,97.697 414.303 C 134.095 450.700,179.339 472.801,230.375 479.111 C 243.883 480.781,268.536 480.808,282.557 479.168 C 385.917 467.077,467.077 385.917,479.168 282.557 C 480.808 268.536,480.781 243.883,479.111 230.375 C 472.855 179.780,450.938 134.594,415.147 98.502 C 380.811 63.879,339.445 42.420,290.928 34.061 C 277.141 31.686,241.691 31.012,227.870 32.862 M284.587 82.373 C 370.101 97.183,431.787 169.943,431.787 256.000 C 431.787 301.075,414.753 343.864,383.646 376.931 C 353.412 409.070,310.143 429.219,266.453 431.503 L 256.000 432.050 256.000 384.200 L 256.000 336.349 250.240 335.783 C 229.728 333.767,213.054 325.994,199.226 312.002 C 183.820 296.414,176.382 278.179,176.382 256.000 C 176.382 233.569,183.880 215.400,199.640 199.640 C 213.591 185.689,229.408 178.358,250.240 176.188 L 256.000 175.588 256.000 127.769 L 256.000 79.950 266.453 80.497 C 272.203 80.797,280.363 81.642,284.587 82.373 M256.000 255.969 L 256.000 336.349 261.760 335.783 C 282.006 333.793,298.272 326.344,312.002 312.774 C 327.863 297.099,335.637 278.426,335.637 256.000 C 335.637 233.574,327.863 214.901,312.002 199.226 C 298.184 185.569,282.418 178.340,261.760 176.188 L 256.000 175.588 256.000 255.969 " stroke="none" fill="black" fill-rule="evenodd"></path></svg>