<svg xmlns="http://www.w3.org/2000/svg" width="512" height="512" viewBox="0 0 512 512"><path d="M128.096 34.164 C 105.290 40.163,88.413 57.118,81.833 80.640 C 80.049 87.020,80.049 424.980,81.833 431.360 C 85.327 443.851,91.645 454.386,100.610 462.670 C 111.595 472.821,123.542 478.080,139.042 479.589 C 149.728 480.629,362.272 480.629,372.958 479.589 C 388.519 478.074,400.711 472.701,411.485 462.609 C 421.395 453.325,427.733 442.097,430.428 429.048 C 431.644 423.164,431.786 404.877,431.781 255.396 C 431.775 93.348,431.725 88.115,430.130 81.493 C 427.025 68.609,421.088 58.388,411.485 49.391 C 404.428 42.781,396.929 38.273,387.840 35.178 L 381.013 32.853 257.707 32.680 C 138.033 32.511,134.214 32.555,128.096 34.164 M290.133 256.022 L 290.133 448.044 213.101 447.809 L 136.069 447.573 130.395 444.779 C 123.366 441.319,116.958 434.575,114.194 427.730 L 112.213 422.827 112.213 256.000 L 112.213 89.173 114.179 84.308 C 117.745 75.483,126.566 67.608,135.620 65.167 C 138.563 64.373,157.989 64.101,214.827 64.058 L 290.133 64.000 290.133 256.022 M381.605 67.221 C 388.634 70.681,395.042 77.425,397.806 84.270 L 399.787 89.173 399.787 256.000 L 399.787 422.827 397.806 427.730 C 395.042 434.575,388.634 441.319,381.605 444.779 C 376.068 447.505,375.613 447.581,362.898 447.878 L 349.867 448.182 349.867 256.000 L 349.867 63.818 362.898 64.122 C 375.613 64.419,376.068 64.495,381.605 67.221 " stroke="none" fill="black" fill-rule="evenodd"></path></svg>