<svg xmlns="http://www.w3.org/2000/svg" width="512" height="512" viewBox="0 0 512 512"><path d="M327.127 48.661 C 312.178 50.236,298.690 54.088,285.440 60.566 C 272.436 66.924,264.217 72.820,253.319 83.607 C 234.719 102.018,223.616 123.448,219.626 148.638 C 217.766 160.378,218.318 190.579,220.546 199.014 L 222.061 204.747 188.902 243.387 C 157.420 280.072,86.343 362.543,64.727 387.467 L 54.689 399.040 56.109 417.220 L 57.528 435.399 63.652 440.901 C 80.377 455.930,94.012 465.138,97.048 463.456 C 97.880 462.995,103.897 457.251,110.419 450.692 L 122.278 438.766 125.855 417.352 C 127.822 405.574,129.686 395.683,129.997 395.371 C 130.309 395.060,140.835 394.059,153.389 393.147 C 165.942 392.234,176.347 391.365,176.511 391.215 C 176.675 391.065,177.625 380.548,178.623 367.845 L 180.437 344.747 184.725 344.631 C 187.084 344.567,198.229 344.279,209.493 343.991 L 229.973 343.467 230.200 318.386 L 230.426 293.305 239.586 293.843 C 244.625 294.138,256.491 294.633,265.955 294.943 L 283.164 295.506 287.600 286.633 C 290.040 281.753,292.149 277.635,292.287 277.482 C 292.426 277.329,295.934 278.352,300.083 279.757 C 314.887 284.768,319.593 285.442,339.627 285.418 C 355.317 285.399,359.170 285.127,366.236 283.538 C 391.690 277.816,411.213 267.240,428.834 249.629 C 442.565 235.906,451.320 222.292,457.283 205.387 C 472.224 163.037,461.515 116.737,429.350 84.611 C 402.885 58.179,364.598 44.714,327.127 48.661 M381.148 107.628 C 399.521 114.446,410.006 133.357,405.827 152.141 C 403.138 164.229,395.617 173.567,384.184 179.015 C 373.611 184.054,360.508 183.776,349.746 178.285 C 344.999 175.863,336.848 167.924,334.328 163.268 C 328.218 151.980,327.726 138.828,333.000 127.816 C 336.672 120.148,341.334 114.830,347.782 110.955 C 357.948 104.845,370.323 103.611,381.148 107.628 " stroke="none" fill="black" fill-rule="evenodd"></path></svg>