<svg xmlns="http://www.w3.org/2000/svg" width="512" height="512" viewBox="0 0 512 512"><path d="M186.453 49.068 C 182.189 50.576,177.901 55.139,176.707 59.439 C 176.204 61.252,175.794 70.261,175.791 79.573 L 175.787 96.427 109.611 96.427 C 36.593 96.427,41.123 96.087,35.979 101.945 C 32.743 105.631,32.105 107.892,32.603 113.898 C 33.071 119.551,36.215 124.064,41.288 126.367 C 44.658 127.898,49.148 127.963,152.164 127.981 L 259.528 128.000 258.945 129.920 C 256.806 136.961,249.720 155.446,244.318 168.075 C 232.599 195.476,216.665 225.078,202.877 245.064 L 197.764 252.475 194.615 248.478 C 182.163 232.669,160.658 200.701,149.735 181.760 C 139.969 164.825,139.401 164.032,135.713 162.150 C 129.011 158.731,119.255 160.660,115.390 166.167 C 111.154 172.205,111.029 177.770,114.956 185.553 C 123.935 203.349,152.167 245.985,171.427 270.833 C 174.294 274.532,176.640 277.841,176.640 278.187 C 176.640 279.285,158.500 298.702,147.103 309.804 C 126.876 329.505,104.749 347.850,84.199 361.956 C 68.406 372.797,67.910 373.209,65.920 377.148 C 63.603 381.733,63.506 385.817,65.604 390.435 C 68.801 397.474,76.440 401.306,83.545 399.433 C 92.477 397.079,126.134 372.196,153.173 347.955 C 164.130 338.132,184.101 318.290,193.925 307.466 L 197.943 303.038 213.532 318.629 C 229.812 334.912,244.265 347.796,248.918 350.176 C 252.680 352.101,259.567 351.965,263.642 349.886 C 269.951 346.668,273.284 338.936,271.375 331.948 C 270.204 327.662,268.148 325.455,252.680 311.886 C 243.036 303.426,219.307 279.346,219.307 278.020 C 219.307 277.640,222.740 272.435,226.937 266.455 C 250.812 232.433,272.258 189.232,288.469 142.507 L 293.354 128.427 317.130 128.000 C 343.586 127.525,344.225 127.394,348.691 121.539 C 350.353 119.359,351.125 117.181,351.397 113.898 C 351.895 107.892,351.257 105.631,348.021 101.945 C 342.813 96.013,347.409 96.361,274.327 96.378 L 208.213 96.394 208.209 79.557 C 208.206 69.907,207.802 61.271,207.262 59.326 C 205.557 53.185,198.078 47.704,191.573 47.829 C 190.635 47.847,188.331 48.405,186.453 49.068 M361.281 209.567 C 359.814 210.291,357.631 211.914,356.428 213.175 C 353.792 215.939,256.867 441.569,256.209 446.475 C 255.257 453.574,260.779 461.415,268.149 463.429 C 272.417 464.596,277.784 463.517,281.747 460.695 C 284.866 458.474,285.905 456.370,299.080 425.600 L 309.950 400.213 368.095 400.231 L 426.240 400.248 438.130 428.177 C 451.213 458.906,452.769 461.414,459.978 463.383 C 466.935 465.284,474.674 461.938,477.886 455.642 C 481.795 447.979,484.144 454.269,431.281 330.811 C 404.720 268.780,382.090 216.633,380.991 214.930 C 377.235 209.109,367.551 206.474,361.281 209.567 M390.286 316.606 L 412.037 367.360 368.444 367.581 C 344.468 367.703,324.691 367.643,324.496 367.447 C 324.211 367.162,366.090 268.447,367.548 265.970 C 367.773 265.587,368.088 265.403,368.247 265.562 C 368.406 265.721,378.324 288.691,390.286 316.606 " stroke="none" fill="black" fill-rule="evenodd"></path></svg>