<svg xmlns="http://www.w3.org/2000/svg" width="512" height="512" viewBox="0 0 512 512"><path d="M185.874 48.936 C 181.322 50.208,176.764 53.403,174.037 57.233 C 170.840 61.724,169.813 66.917,169.813 78.605 L 169.813 89.525 109.440 89.776 C 41.904 90.056,45.792 89.699,38.938 96.255 C 34.300 100.691,32.468 105.088,32.445 111.832 C 32.413 121.609,37.961 129.650,46.824 132.670 C 50.171 133.810,63.200 133.973,150.765 133.973 C 205.828 133.973,250.880 134.273,250.880 134.640 C 250.880 135.447,242.651 156.798,239.132 165.120 C 228.975 189.142,213.105 219.020,200.729 237.421 L 197.442 242.308 192.277 235.287 C 178.864 217.059,164.403 193.954,156.353 177.891 C 150.005 165.223,145.171 161.272,135.193 160.598 C 128.618 160.153,122.478 162.616,118.111 167.450 C 113.919 172.090,112.380 176.086,112.347 182.414 C 112.322 187.323,112.782 188.684,117.967 199.054 C 127.990 219.096,142.017 241.369,159.207 264.535 C 164.184 271.242,168.446 277.224,168.678 277.828 C 169.221 279.246,134.967 313.631,122.027 324.658 C 109.007 335.753,90.476 349.575,81.261 355.066 C 67.747 363.119,64.479 367.595,64.446 378.094 C 64.429 383.819,64.722 385.039,67.005 388.731 C 70.466 394.328,75.653 398.147,81.420 399.345 C 90.047 401.136,94.120 399.505,113.322 386.575 C 136.571 370.918,155.115 355.284,180.356 330.058 L 198.152 312.272 209.943 323.742 C 224.515 337.917,236.424 347.901,241.367 350.087 C 247.134 352.639,256.101 351.956,261.630 348.546 C 269.300 343.815,273.585 333.440,271.346 325.023 C 269.790 319.172,267.479 316.139,259.537 309.525 C 251.050 302.457,231.029 283.171,228.516 279.643 L 226.817 277.259 234.465 265.989 C 258.078 231.196,277.712 191.595,292.723 148.480 L 297.626 134.400 316.706 133.973 C 334.489 133.576,336.061 133.412,339.820 131.560 C 347.259 127.896,351.524 120.778,351.555 111.973 C 351.565 109.024,351.035 105.323,350.376 103.747 C 348.584 99.458,343.106 93.822,338.773 91.810 C 335.010 90.062,333.733 90.022,274.560 89.776 L 214.187 89.525 214.187 78.624 C 214.187 65.765,212.981 60.769,208.657 55.718 C 203.260 49.413,194.013 46.660,185.874 48.936 M358.779 204.266 C 356.406 205.370,353.142 207.831,351.526 209.733 C 349.233 212.431,338.454 237.742,302.507 324.836 C 256.446 436.434,256.427 436.482,256.460 442.453 C 256.500 449.546,258.381 453.777,263.583 458.477 C 267.834 462.318,275.095 464.635,280.540 463.889 C 285.510 463.208,292.345 459.437,295.058 455.879 C 296.246 454.322,301.536 442.600,306.815 429.831 L 316.411 406.613 368.040 406.393 L 419.668 406.174 420.491 408.527 C 420.943 409.821,425.268 420.480,430.102 432.213 C 438.138 451.720,439.241 453.891,442.979 457.565 C 451.813 466.246,465.084 465.995,473.839 456.980 C 478.264 452.423,479.861 447.693,479.374 440.578 C 479.010 435.262,475.185 425.605,433.981 325.973 C 409.234 266.133,387.994 215.348,386.782 213.116 C 381.469 203.336,369.142 199.440,358.779 204.266 M384.715 322.133 L 400.935 361.387 368.442 361.610 C 350.571 361.733,335.779 361.664,335.571 361.455 C 335.262 361.146,366.165 285.348,367.542 283.037 C 367.771 282.653,368.079 282.461,368.226 282.610 C 368.374 282.758,375.794 300.544,384.715 322.133 " stroke="none" fill="black" fill-rule="evenodd"></path></svg>