<svg xmlns="http://www.w3.org/2000/svg" width="512" height="512" viewBox="0 0 512 512"><path d="M49.798 81.990 C 40.498 85.567,33.983 94.070,32.458 104.623 C 31.361 112.210,31.316 383.058,32.410 390.827 C 32.840 393.877,33.448 397.237,33.762 398.293 L 34.332 400.213 17.166 400.213 L 0.000 400.213 0.000 416.000 L 0.000 431.787 256.000 431.787 L 512.000 431.787 512.000 416.000 L 512.000 400.213 494.834 400.213 L 477.668 400.213 478.238 398.293 C 478.552 397.237,479.160 393.877,479.590 390.827 C 480.684 383.058,480.639 112.210,479.542 104.623 C 477.998 93.940,471.454 85.501,461.960 81.948 C 457.344 80.221,456.390 80.214,255.755 80.258 C 57.036 80.302,54.125 80.326,49.798 81.990 " stroke="none" fill="black" fill-rule="evenodd"></path></svg>