<svg xmlns="http://www.w3.org/2000/svg" width="512" height="512" viewBox="0 0 512 512"><path d="M48.263 49.015 C 41.183 51.632,37.017 56.894,34.372 66.560 C 33.063 71.342,32.857 75.812,32.879 98.987 C 32.908 128.965,34.160 143.095,39.796 177.067 C 56.727 279.120,93.443 362.914,140.592 407.101 C 179.302 443.379,228.979 463.360,280.464 463.360 C 323.090 463.360,359.874 449.907,386.319 424.645 C 396.211 415.195,404.397 404.638,402.676 403.549 C 402.026 403.137,401.049 402.794,400.506 402.786 C 398.361 402.758,367.548 393.008,355.444 388.528 C 295.985 366.519,240.039 332.890,187.733 287.718 C 169.514 271.984,160.293 263.077,158.593 259.571 C 153.691 249.463,161.423 237.227,172.710 237.227 C 179.538 237.227,178.916 236.807,199.366 255.222 C 263.425 312.911,332.299 351.247,409.021 371.918 L 418.255 374.405 419.110 372.163 C 427.231 350.874,429.947 319.372,425.851 293.973 C 422.485 273.105,413.127 248.176,401.379 228.782 C 380.108 193.668,341.803 160.335,302.507 142.744 C 278.508 132.001,258.281 126.522,215.040 119.049 C 175.258 112.175,158.897 108.511,142.604 102.827 C 115.261 93.287,94.920 80.624,72.549 59.213 C 68.082 54.937,63.185 50.803,61.668 50.025 C 57.674 47.978,52.187 47.565,48.263 49.015 M416.062 380.291 C 414.787 383.504,411.648 390.077,409.087 394.897 C 405.851 400.987,404.763 403.776,405.522 404.037 C 410.952 405.910,437.121 411.503,453.419 414.275 C 463.852 416.050,465.733 416.157,469.454 415.192 C 474.418 413.904,477.495 411.320,479.667 406.613 C 482.670 400.107,481.345 393.504,476.048 388.581 C 472.491 385.275,470.418 384.634,454.400 381.881 C 447.360 380.672,437.376 378.719,432.213 377.542 C 427.051 376.364,421.826 375.187,420.604 374.925 C 418.529 374.481,418.226 374.839,416.062 380.291 " stroke="none" fill="black" fill-rule="evenodd"></path></svg>