<svg xmlns="http://www.w3.org/2000/svg" width="512" height="512" viewBox="0 0 512 512"><path d="M33.280 32.784 C 33.280 33.919,32.868 43.614,32.364 54.328 C 30.238 99.563,36.108 162.793,47.444 216.747 C 69.090 319.780,109.452 390.270,169.387 429.718 C 209.549 456.152,258.332 467.912,303.530 462.055 C 336.941 457.726,364.927 445.080,386.319 424.645 C 393.601 417.689,404.276 404.845,403.457 404.026 C 403.266 403.835,398.331 402.307,392.489 400.629 C 307.433 376.200,232.165 331.523,160.000 262.630 L 150.613 253.669 154.377 249.501 C 156.446 247.209,161.388 241.976,165.358 237.873 L 172.576 230.413 181.541 238.972 C 245.406 299.948,312.155 341.288,384.427 364.628 C 392.405 367.204,403.273 370.479,408.577 371.904 L 418.221 374.495 419.093 372.207 C 427.241 350.847,429.930 319.721,425.839 294.130 C 421.165 264.895,407.975 235.587,387.558 209.067 C 380.092 199.369,360.752 180.124,350.720 172.409 C 312.885 143.313,283.493 131.310,225.280 121.182 C 162.547 110.268,147.831 106.441,123.307 94.664 C 99.251 83.112,75.273 66.508,46.758 41.657 C 39.856 35.641,34.000 30.720,33.744 30.720 C 33.489 30.720,33.280 31.649,33.280 32.784 M416.062 380.291 C 414.787 383.504,411.648 390.077,409.087 394.897 C 405.851 400.987,404.763 403.776,405.522 404.037 C 414.734 407.214,477.282 419.171,478.294 417.949 C 478.735 417.417,483.114 387.256,482.797 386.939 C 482.609 386.751,473.263 385.052,462.028 383.162 C 450.793 381.273,437.376 378.753,432.213 377.563 C 427.051 376.373,421.826 375.185,420.604 374.924 C 418.529 374.481,418.226 374.840,416.062 380.291 " stroke="none" fill="black" fill-rule="evenodd"></path></svg>