<svg xmlns="http://www.w3.org/2000/svg" width="512" height="512" viewBox="0 0 512 512"><path d="M260.199 34.409 C 252.188 37.733,247.303 42.250,243.428 49.920 C 240.064 56.578,239.787 60.784,239.787 105.093 C 239.787 145.443,239.704 147.775,238.293 147.189 C 231.307 144.286,229.766 144.213,175.864 144.241 C 125.280 144.268,122.205 144.356,117.760 145.920 C 115.179 146.828,112.802 147.583,112.479 147.599 C 112.156 147.614,111.772 137.729,111.626 125.631 L 111.360 103.636 108.587 98.007 C 105.299 91.332,99.940 86.087,93.163 82.910 L 88.320 80.640 64.000 80.640 L 39.680 80.640 34.837 82.910 C 28.057 86.089,22.701 91.332,19.413 98.011 L 16.640 103.644 16.640 279.875 L 16.640 456.107 18.910 460.949 C 23.637 471.033,32.977 477.944,44.041 479.543 C 51.627 480.640,76.371 480.640,83.955 479.544 C 90.604 478.582,97.274 475.572,101.268 471.730 L 103.976 469.125 106.815 471.810 C 110.942 475.714,117.344 478.566,124.160 479.540 C 131.728 480.621,220.359 480.672,227.776 479.600 C 233.892 478.716,242.643 474.784,245.673 471.560 L 247.659 469.446 251.828 472.741 C 254.120 474.553,258.205 476.908,260.905 477.974 C 265.650 479.847,266.915 479.923,298.930 480.246 C 335.602 480.616,342.941 480.075,350.340 476.452 C 356.160 473.602,362.065 467.403,365.073 460.986 L 367.360 456.107 367.801 383.147 C 368.043 343.019,368.331 310.915,368.441 311.805 C 368.550 312.695,371.899 343.607,375.883 380.498 C 379.867 417.390,383.758 450.007,384.531 452.982 C 386.196 459.387,391.240 467.306,396.291 471.445 C 402.499 476.532,409.040 479.009,417.280 479.394 C 426.782 479.838,465.658 475.705,471.610 473.618 C 485.036 468.910,494.627 456.254,495.529 442.052 C 495.832 437.272,491.430 394.123,478.329 273.493 C 468.645 184.320,460.321 109.824,459.830 107.947 C 455.674 92.037,440.886 80.213,425.144 80.213 C 411.861 80.213,374.831 85.056,368.920 87.566 C 368.183 87.880,367.848 83.790,367.640 71.942 C 367.373 56.615,367.257 55.674,365.073 51.014 C 362.052 44.568,356.186 38.430,350.104 35.350 L 345.173 32.853 305.067 32.643 L 264.960 32.434 260.199 34.409 M336.213 256.000 L 336.213 448.000 304.213 448.000 L 272.213 448.000 272.213 256.000 L 272.213 64.000 304.213 64.000 L 336.213 64.000 336.213 256.000 M80.213 279.893 L 80.213 448.000 64.000 448.000 L 47.787 448.000 47.787 279.893 L 47.787 111.787 64.000 111.787 L 80.213 111.787 80.213 279.893 M427.520 113.493 C 428.459 114.432,429.227 115.847,429.227 116.637 C 429.227 118.184,463.005 430.748,463.800 436.559 C 464.158 439.178,463.896 440.505,462.752 441.864 C 461.382 443.492,459.081 443.902,440.154 445.893 C 417.710 448.254,416.014 448.150,415.175 444.349 C 414.945 443.306,406.903 369.900,397.303 281.223 C 385.231 169.716,380.101 119.520,380.669 118.460 C 381.120 117.617,382.342 116.729,383.385 116.487 C 385.034 116.104,420.284 112.138,424.320 111.882 C 425.141 111.829,426.581 112.555,427.520 113.493 M223.573 192.000 L 223.573 208.213 175.787 208.213 L 128.000 208.213 128.000 192.000 L 128.000 175.787 175.787 175.787 L 223.573 175.787 223.573 192.000 M223.573 311.893 L 223.573 384.000 175.787 384.000 L 128.000 384.000 128.000 311.893 L 128.000 239.787 175.787 239.787 L 223.573 239.787 223.573 311.893 M223.573 432.213 L 223.573 448.000 175.787 448.000 L 128.000 448.000 128.000 432.213 L 128.000 416.427 175.787 416.427 L 223.573 416.427 223.573 432.213 " stroke="none" fill="black" fill-rule="evenodd"></path></svg>