<svg xmlns="http://www.w3.org/2000/svg" width="512" height="512" viewBox="0 0 512 512"><path d="M133.547 136.548 C 98.152 139.817,66.352 158.117,45.854 187.013 C 36.993 199.505,29.735 216.313,26.365 232.144 C 23.866 243.885,23.629 266.201,25.883 277.564 C 34.667 321.837,65.413 356.678,107.635 370.203 C 124.154 375.495,126.510 375.693,177.707 376.099 L 224.427 376.469 224.427 352.115 L 224.427 327.761 177.280 327.458 C 124.205 327.118,126.305 327.347,112.213 320.376 C 93.505 311.122,79.481 293.854,74.139 273.493 C 71.620 263.893,71.629 248.036,74.161 238.507 C 80.894 213.158,99.666 193.922,125.044 186.367 C 129.549 185.026,135.476 184.797,176.640 184.373 L 223.147 183.893 223.147 160.000 L 223.147 136.107 181.760 136.012 C 158.997 135.960,137.301 136.201,133.547 136.548 M288.812 136.759 C 288.584 137.353,288.500 148.201,288.626 160.866 L 288.853 183.893 335.360 184.373 C 387.631 184.911,385.736 184.698,399.829 191.615 C 413.907 198.524,425.325 209.919,432.278 224.000 C 437.830 235.243,439.622 243.054,439.622 256.000 C 439.622 268.932,437.834 276.736,432.290 288.001 C 425.434 301.933,413.952 313.369,399.787 320.376 C 385.695 327.347,387.795 327.118,334.720 327.458 L 287.573 327.761 287.573 352.040 L 287.573 376.320 327.893 376.313 C 372.348 376.305,383.545 375.668,396.685 372.404 C 454.159 358.127,493.154 303.463,487.380 245.264 C 481.554 186.529,436.374 141.612,378.027 136.547 C 362.846 135.229,289.332 135.404,288.812 136.759 M145.067 256.000 L 145.067 279.893 256.853 279.893 L 368.640 279.893 368.640 256.000 L 368.640 232.107 256.853 232.107 L 145.067 232.107 145.067 256.000 " stroke="none" fill="black" fill-rule="evenodd"></path></svg>