<svg xmlns="http://www.w3.org/2000/svg" width="512" height="512" viewBox="0 0 512 512"><path d="M73.734 112.666 C 67.941 113.815,62.108 117.026,57.567 121.567 C 41.996 137.139,46.202 162.236,66.133 172.675 C 70.882 175.162,71.874 175.356,79.805 175.358 C 87.749 175.360,88.760 175.161,94.053 172.555 C 100.659 169.303,105.829 163.975,109.133 157.013 C 111.073 152.925,111.360 151.219,111.358 143.787 C 111.356 135.876,111.161 134.880,108.674 130.133 C 101.616 116.660,87.978 109.842,73.734 112.666 M152.890 129.831 C 147.231 132.632,144.640 137.171,144.640 144.285 C 144.640 149.411,144.921 150.381,147.255 153.307 C 148.693 155.111,151.381 157.355,153.228 158.293 C 156.548 159.980,158.275 160.000,304.213 160.000 L 451.840 160.000 455.395 158.099 C 467.113 151.834,466.549 135.107,454.435 129.604 C 451.133 128.104,444.753 128.037,303.787 128.019 L 156.587 128.001 152.890 129.831 M68.199 226.377 C 57.339 230.956,50.926 238.915,48.610 250.688 C 45.972 264.097,53.677 278.908,66.392 284.868 C 70.695 286.885,72.283 287.146,80.213 287.144 C 88.420 287.141,89.588 286.931,94.104 284.647 C 100.184 281.571,106.051 275.433,109.073 268.986 C 111.051 264.767,111.360 263.010,111.360 256.000 C 111.360 248.990,111.051 247.233,109.073 243.014 C 106.037 236.537,100.160 230.406,94.104 227.399 C 89.933 225.328,87.924 224.906,81.067 224.660 C 74.067 224.409,72.310 224.644,68.199 226.377 M154.997 241.037 C 143.352 245.188,140.432 259.642,149.610 267.700 C 151.309 269.193,154.151 270.816,155.923 271.309 C 160.573 272.600,448.017 272.554,452.674 271.262 C 457.214 270.001,462.084 265.006,463.347 260.313 C 465.649 251.768,460.778 242.990,452.454 240.678 C 450.325 240.087,401.349 239.807,303.787 239.829 C 182.460 239.856,157.746 240.057,154.997 241.037 M69.242 337.870 C 58.519 341.844,50.902 351.023,48.546 362.809 C 46.646 372.317,50.134 383.000,57.567 390.433 C 73.197 406.063,98.077 401.891,108.652 381.867 C 111.168 377.104,111.356 376.150,111.358 368.195 C 111.360 360.270,111.157 359.232,108.587 354.011 C 105.285 347.303,99.906 342.053,93.163 338.956 C 86.523 335.906,75.849 335.421,69.242 337.870 M152.807 353.921 C 151.198 354.742,148.702 356.889,147.261 358.693 C 144.920 361.622,144.640 362.585,144.640 367.715 C 144.640 374.879,147.255 379.428,152.960 382.190 L 156.699 384.000 303.843 383.981 C 444.754 383.963,451.133 383.896,454.435 382.396 C 466.396 376.963,467.121 359.970,455.642 354.114 C 452.385 352.452,450.086 352.427,304.034 352.428 C 164.532 352.429,155.560 352.518,152.807 353.921 " stroke="none" fill="black" fill-rule="evenodd"></path></svg>