<svg xmlns="http://www.w3.org/2000/svg" width="512" height="512" viewBox="0 0 512 512"><path d="M237.227 32.972 C 236.053 33.144,232.213 33.695,228.693 34.196 C 219.757 35.467,203.254 39.794,194.133 43.258 C 153.239 58.789,120.222 90.160,105.395 127.573 C 98.308 145.456,96.080 159.134,96.650 181.255 C 97.088 198.258,98.048 205.299,102.373 223.225 C 116.802 283.029,161.006 362.366,224.282 442.027 C 236.387 457.266,255.232 479.573,256.000 479.573 C 256.780 479.573,275.765 457.081,287.693 442.027 C 358.320 352.884,401.668 271.305,413.518 205.227 C 415.358 194.963,416.094 167.822,414.781 158.587 C 410.508 128.520,397.556 103.061,375.093 80.575 C 362.858 68.327,356.513 63.318,343.135 55.349 C 323.949 43.920,301.064 36.257,277.356 33.322 C 270.690 32.497,242.160 32.248,237.227 32.972 M268.623 129.348 C 299.812 135.743,321.748 164.105,319.703 195.396 C 318.894 207.787,315.997 216.761,309.565 226.810 C 303.492 236.298,291.910 246.104,281.269 250.767 C 261.955 259.231,237.897 256.975,220.398 245.059 C 186.894 222.245,182.380 175.072,210.986 146.690 C 226.173 131.622,247.870 125.094,268.623 129.348 " stroke="none" fill="black" fill-rule="evenodd"></path></svg>