<svg xmlns="http://www.w3.org/2000/svg" width="512" height="512" viewBox="0 0 512 512"><path d="M247.853 33.558 C 243.215 35.345,239.221 38.320,236.833 41.765 C 232.547 47.951,232.184 50.174,232.144 70.553 L 232.107 89.479 227.200 90.437 C 197.208 96.289,172.952 107.396,150.138 125.722 C 119.008 150.728,98.581 185.437,90.448 227.145 L 89.502 231.996 69.284 232.265 C 50.209 232.518,48.863 232.642,45.463 234.459 C 40.867 236.915,36.613 241.168,34.506 245.416 C 32.179 250.106,32.179 261.894,34.506 266.584 C 36.613 270.832,40.867 275.085,45.463 277.541 C 48.863 279.358,50.209 279.482,69.284 279.735 L 89.502 280.004 90.448 284.855 C 97.454 320.782,112.732 350.034,137.349 374.651 C 161.966 399.268,191.218 414.546,227.145 421.552 L 231.996 422.498 232.265 442.716 C 232.518 461.791,232.642 463.137,234.459 466.537 C 238.776 474.616,245.358 478.858,254.435 479.411 C 264.721 480.038,272.699 475.607,277.511 466.595 C 279.365 463.123,279.481 461.884,279.735 442.716 L 280.004 422.498 284.855 421.552 C 340.338 410.733,383.708 377.712,407.587 328.107 C 412.809 317.259,418.193 301.423,420.208 290.987 C 420.979 286.997,421.788 282.894,422.007 281.869 C 422.400 280.025,422.626 280.002,442.669 279.736 L 462.933 279.467 467.575 276.907 C 472.327 274.286,476.565 269.355,478.442 264.264 C 478.993 262.769,479.443 259.051,479.443 256.000 C 479.443 252.949,478.993 249.231,478.442 247.736 C 476.565 242.645,472.327 237.714,467.575 235.093 L 462.933 232.533 442.716 232.265 L 422.498 231.996 421.552 227.145 C 415.520 196.211,403.527 170.701,384.126 147.533 C 359.197 117.764,325.467 98.367,284.855 90.448 L 280.004 89.502 279.735 69.284 C 279.481 50.116,279.365 48.877,277.511 45.405 C 274.747 40.228,269.411 35.355,264.777 33.776 C 260.197 32.216,251.625 32.105,247.853 33.558 M276.850 137.926 C 287.477 139.702,299.231 143.632,309.760 148.931 C 332.349 160.299,350.941 178.626,362.262 200.682 C 377.185 229.756,379.926 262.964,369.904 293.249 C 362.233 316.430,347.138 337.500,327.813 352.004 C 313.512 362.737,293.866 371.175,276.053 374.237 C 264.957 376.144,246.353 376.149,235.667 374.248 C 198.500 367.633,165.976 343.582,149.198 310.305 C 143.963 299.922,139.650 287.166,137.760 276.480 C 135.855 265.706,135.855 246.294,137.760 235.520 C 140.601 219.455,147.966 201.450,157.306 187.733 C 162.912 179.502,179.502 162.912,187.733 157.306 C 214.058 139.380,245.121 132.625,276.850 137.926 " stroke="none" fill="black" fill-rule="evenodd"></path></svg>