<svg xmlns="http://www.w3.org/2000/svg" width="512" height="512" viewBox="0 0 512 512"><path d="M239.086 17.499 C 219.158 21.110,200.509 31.279,186.345 46.258 C 173.894 59.427,165.987 74.439,161.944 92.587 C 160.384 99.591,160.196 104.293,159.809 146.034 L 159.386 191.801 146.040 192.243 C 131.243 192.733,126.057 193.820,116.306 198.477 C 100.434 206.057,88.728 219.687,82.658 237.653 L 80.640 243.627 80.399 340.907 C 80.127 450.761,79.860 445.653,86.597 459.520 C 93.337 473.397,102.614 482.672,116.480 489.398 C 130.382 496.142,122.616 495.787,256.000 495.787 C 389.163 495.787,381.405 496.138,395.520 489.472 C 409.055 483.080,418.530 473.578,425.388 459.520 C 432.142 445.674,431.873 450.809,431.601 340.907 L 431.360 243.627 429.356 237.653 C 423.417 219.954,411.999 206.525,396.373 198.864 C 382.430 192.027,390.558 192.514,285.606 192.220 L 191.905 191.957 192.166 146.112 L 192.427 100.267 195.126 92.545 C 199.013 81.428,203.172 74.839,211.543 66.537 C 224.192 53.993,238.034 48.321,256.000 48.321 C 267.741 48.321,275.759 50.274,286.245 55.688 C 295.852 60.649,307.150 71.944,312.056 81.493 C 316.644 90.425,318.990 98.287,319.641 106.915 C 320.429 117.372,321.230 119.663,325.461 123.563 C 332.073 129.658,341.238 129.337,347.480 122.792 C 351.378 118.705,351.948 115.945,351.318 104.210 C 350.685 92.410,347.694 81.541,341.780 69.547 C 325.312 36.152,292.570 16.000,255.248 16.290 C 249.795 16.333,242.522 16.877,239.086 17.499 M381.608 227.132 C 390.734 231.410,397.333 240.107,399.326 250.482 C 400.034 254.166,400.232 280.920,400.045 347.307 C 399.793 436.922,399.747 439.132,398.076 443.030 C 394.118 452.259,387.340 458.904,378.558 462.164 C 374.340 463.730,370.052 463.787,256.000 463.787 C 141.948 463.787,137.660 463.730,133.442 462.164 C 124.429 458.818,117.182 451.571,113.836 442.558 C 112.277 438.359,112.213 434.456,112.213 343.467 L 112.213 248.747 114.507 243.852 C 118.796 234.701,123.601 229.967,132.199 226.421 L 136.960 224.458 256.853 224.656 L 376.747 224.853 381.608 227.132 " stroke="none" fill="black" fill-rule="evenodd"></path></svg>