<svg xmlns="http://www.w3.org/2000/svg" width="512" height="512" viewBox="0 0 512 512"><path d="M89.784 81.926 C 68.758 87.469,52.916 104.705,49.005 126.293 C 47.295 135.738,47.295 376.262,49.005 385.707 C 52.935 407.401,68.927 424.683,90.075 430.092 C 96.471 431.728,99.703 431.787,183.893 431.787 C 267.881 431.787,271.329 431.725,277.667 430.104 C 288.006 427.460,295.498 423.107,303.491 415.102 C 309.012 409.572,311.158 406.656,313.888 400.974 C 319.930 388.395,320.000 387.541,320.000 326.436 L 320.000 272.213 364.569 272.213 L 409.139 272.213 381.279 300.160 C 356.703 324.812,353.303 328.545,352.437 331.829 C 349.225 344.015,359.977 354.769,372.171 351.566 C 375.502 350.691,380.366 346.129,418.405 308.201 C 441.787 284.888,461.434 264.840,462.065 263.651 C 463.936 260.128,464.418 255.669,463.364 251.656 C 462.475 248.274,458.131 243.637,420.414 205.806 C 397.336 182.658,377.029 162.978,375.287 162.073 C 369.953 159.300,361.886 160.390,357.244 164.513 C 352.899 168.371,351.162 177.603,353.790 182.869 C 354.539 184.371,367.305 197.792,382.158 212.693 L 409.163 239.787 364.582 239.787 L 320.000 239.787 319.987 185.387 C 319.977 139.919,319.763 130.090,318.688 125.528 C 314.970 109.754,301.813 95.024,283.896 86.574 C 270.560 80.285,277.168 80.680,181.760 80.473 C 99.583 80.295,95.740 80.356,89.784 81.926 M320.000 256.000 L 320.000 272.213 247.167 272.213 C 194.417 272.213,173.535 271.942,171.434 271.229 C 164.281 268.803,160.427 263.470,160.427 256.000 C 160.427 248.690,164.247 243.256,171.093 240.829 C 172.820 240.217,197.467 239.899,246.827 239.854 L 320.000 239.787 320.000 256.000 " stroke="none" fill="black" fill-rule="evenodd"></path></svg>