<svg xmlns="http://www.w3.org/2000/svg" width="512" height="512" viewBox="0 0 512 512"><path d="M237.227 32.988 C 235.584 33.200,229.854 34.347,224.494 35.536 C 193.369 42.440,166.157 58.881,150.031 80.525 C 140.918 92.756,131.435 115.209,131.223 125.054 C 131.136 129.070,133.187 132.669,136.552 134.410 C 138.843 135.594,181.994 139.947,191.447 139.947 C 198.479 139.947,201.200 137.517,203.872 128.853 C 208.325 114.408,219.387 102.696,233.371 97.621 C 256.917 89.074,280.922 96.796,290.360 115.953 L 293.120 121.556 293.387 143.125 L 293.653 164.693 284.000 164.696 C 261.021 164.703,231.436 168.835,203.520 175.937 C 180.581 181.772,167.178 189.273,151.384 205.115 C 135.427 221.121,125.699 238.369,121.506 258.089 C 117.687 276.052,119.725 296.905,127.030 314.604 C 133.148 329.424,145.015 345.158,155.167 351.907 C 163.734 357.603,176.122 363.248,185.790 365.863 C 193.313 367.898,195.643 368.125,209.493 368.167 C 222.546 368.206,226.176 367.917,233.656 366.242 C 246.393 363.389,254.236 360.640,265.813 354.969 C 277.584 349.204,284.618 344.122,296.172 333.036 L 304.374 325.166 309.102 331.756 C 314.923 339.871,328.546 355.758,334.217 361.046 C 339.100 365.599,343.118 366.785,347.475 364.960 C 349.994 363.905,395.458 326.236,397.000 323.926 C 397.345 323.409,397.633 321.161,397.640 318.929 C 397.652 315.198,396.992 313.899,389.417 302.742 C 380.479 289.579,378.207 285.114,375.297 274.992 C 373.409 268.427,373.389 267.737,372.873 190.293 C 372.494 133.449,372.072 111.169,371.322 108.373 C 366.516 90.461,359.812 77.813,348.997 66.252 C 336.869 53.286,310.618 40.268,285.727 34.875 C 279.414 33.508,273.863 33.092,258.987 32.875 C 248.661 32.725,238.869 32.775,237.227 32.988 M293.385 233.600 L 293.110 258.987 290.300 267.093 C 285.079 282.156,275.651 295.577,264.107 304.384 C 256.572 310.132,253.544 311.040,241.920 311.040 C 232.888 311.040,232.292 310.924,226.133 307.958 C 217.361 303.734,211.931 298.720,208.907 292.050 C 204.303 281.897,202.455 269.457,203.939 258.613 C 205.232 249.174,207.934 242.018,212.758 235.258 C 222.935 220.996,238.635 212.169,257.707 209.987 C 270.274 208.549,271.089 208.495,282.724 208.350 L 293.661 208.213 293.385 233.600 M419.520 369.918 C 410.813 371.719,403.280 374.349,394.488 378.657 C 385.913 382.860,383.494 384.865,384.341 387.072 C 384.788 388.237,385.632 388.406,388.925 387.987 C 391.144 387.705,396.338 387.045,400.468 386.520 C 404.597 385.996,414.599 385.694,422.695 385.850 C 439.291 386.169,441.120 386.742,443.463 392.350 C 444.634 395.151,444.616 396.103,443.281 402.310 C 441.385 411.129,435.944 428.181,432.172 437.123 C 428.891 444.904,428.608 446.727,430.563 447.477 C 433.529 448.615,445.359 436.289,451.886 425.259 C 458.716 413.716,461.966 403.836,463.519 389.896 C 464.505 381.041,464.483 380.775,462.449 376.714 C 459.101 370.030,456.490 369.143,439.467 368.903 C 429.897 368.769,423.507 369.094,419.520 369.918 M49.016 374.145 C 48.182 375.417,47.871 376.947,48.220 378.048 C 49.084 380.769,75.940 407.432,86.284 415.839 C 117.266 441.015,151.119 459.167,189.424 471.142 C 210.402 477.700,230.801 480.021,261.369 479.328 C 287.703 478.731,301.874 476.622,326.827 469.588 C 362.537 459.521,395.686 440.832,420.907 416.547 C 429.113 408.645,429.872 406.754,426.279 403.161 C 423.234 400.116,420.400 400.510,410.491 405.356 C 382.060 419.259,352.044 429.945,321.861 436.907 C 304.991 440.799,294.899 442.112,277.033 442.741 C 246.017 443.832,217.851 441.650,189.867 435.987 C 155.796 429.094,106.117 406.494,65.973 379.626 C 53.835 371.502,51.287 370.679,49.016 374.145 " stroke="none" fill="black" fill-rule="evenodd"></path></svg>