<svg id="Layer_1" data-name="Layer 1" xmlns="http://www.w3.org/2000/svg" viewBox="0 0 512 512"><path d="M233.150 73.008 C 231.275 74.322,231.253 74.582,231.253 95.987 C 231.253 114.532,231.446 117.830,232.594 118.979 C 233.750 120.135,237.263 120.320,258.024 120.320 C 275.621 120.320,282.388 120.044,283.136 119.296 C 283.879 118.553,284.160 112.255,284.160 96.317 C 284.160 77.496,283.969 74.171,282.819 73.021 C 280.820 71.022,236.002 71.011,233.150 73.008 M107.733 130.587 L 105.813 131.358 105.813 153.829 C 105.813 170.168,106.093 176.578,106.837 177.323 C 107.586 178.072,114.454 178.347,132.407 178.347 C 155.802 178.347,156.995 178.269,157.837 176.696 C 158.378 175.685,158.720 166.784,158.720 153.704 C 158.720 132.619,158.697 132.348,156.823 131.035 C 155.218 129.910,151.458 129.715,132.290 129.761 C 119.840 129.791,108.789 130.162,107.733 130.587 M170.857 131.035 C 168.980 132.349,168.960 132.598,168.960 154.331 C 168.960 170.279,169.241 176.579,169.984 177.323 C 171.446 178.784,219.381 178.784,220.843 177.323 C 221.586 176.579,221.867 170.279,221.867 154.331 C 221.867 132.598,221.846 132.349,219.970 131.035 C 218.369 129.914,214.542 129.707,195.413 129.707 C 176.285 129.707,172.457 129.914,170.857 131.035 M233.150 131.035 C 231.275 132.348,231.253 132.608,231.253 154.014 C 231.253 172.559,231.446 175.857,232.594 177.006 C 233.750 178.161,237.263 178.347,258.024 178.347 C 275.621 178.347,282.388 178.071,283.136 177.323 C 283.879 176.579,284.160 170.279,284.160 154.331 C 284.160 132.598,284.140 132.349,282.263 131.035 C 280.663 129.914,276.835 129.707,257.707 129.707 C 238.578 129.707,234.751 129.914,233.150 131.035 M397.259 146.381 C 393.779 150.942,387.644 162.880,384.863 170.501 C 378.720 187.334,378.055 206.112,383.076 221.013 C 384.578 225.472,386.797 230.815,388.007 232.886 C 390.133 236.523,390.154 236.691,388.613 237.818 C 386.224 239.564,374.588 243.047,366.327 244.487 C 360.023 245.587,335.623 245.761,186.982 245.765 C 69.559 245.768,13.910 246.054,11.710 246.665 C 7.257 247.901,2.949 251.937,1.204 256.508 C -0.062 259.821,-0.189 262.309,0.276 274.601 C 2.367 329.818,22.450 380.154,52.620 405.792 C 79.059 428.261,121.476 439.701,178.347 439.701 C 221.653 439.701,258.089 433.166,292.200 419.280 C 355.984 393.316,400.121 346.104,429.781 272.114 L 432.728 264.760 443.137 264.327 C 465.733 263.387,482.779 255.793,497.374 240.165 C 501.848 235.373,504.507 231.521,507.272 225.820 C 512.871 214.278,512.947 215.166,505.961 210.540 C 499.609 206.333,490.265 202.904,481.097 201.417 C 474.830 200.400,455.626 200.355,448.853 201.342 C 446.272 201.718,444.065 201.947,443.949 201.850 C 443.832 201.754,442.964 198.634,442.020 194.918 C 440.133 187.493,435.074 176.258,430.858 170.131 C 426.720 164.116,417.735 154.949,411.430 150.308 C 406.442 146.637,401.018 143.360,399.930 143.360 C 399.728 143.360,398.526 144.719,397.259 146.381 M45.013 188.655 C 43.651 189.449,43.520 191.498,43.520 212.066 C 43.520 233.478,43.603 234.651,45.171 235.490 C 46.194 236.037,55.742 236.373,70.283 236.373 C 90.474 236.373,93.932 236.186,95.086 235.032 C 96.234 233.884,96.427 230.593,96.427 212.125 C 96.427 192.315,96.300 190.443,94.866 189.146 C 93.492 187.902,90.506 187.736,69.906 187.759 C 55.606 187.775,45.926 188.123,45.013 188.655 M107.307 188.655 C 105.944 189.449,105.813 191.498,105.813 212.066 C 105.813 233.478,105.896 234.651,107.464 235.490 C 108.487 236.037,118.035 236.373,132.576 236.373 C 152.767 236.373,156.225 236.186,157.379 235.032 C 158.527 233.884,158.720 230.593,158.720 212.125 C 158.720 192.315,158.593 190.443,157.159 189.146 C 155.786 187.902,152.799 187.736,132.199 187.759 C 117.899 187.775,108.219 188.123,107.307 188.655 M170.301 189.074 C 169.151 190.224,168.960 193.562,168.960 212.511 C 168.960 233.483,169.044 234.652,170.611 235.490 C 173.081 236.812,219.510 236.682,220.843 235.349 C 221.586 234.606,221.867 228.309,221.867 212.370 C 221.867 193.549,221.675 190.224,220.526 189.074 C 219.371 187.919,215.886 187.733,195.413 187.733 C 174.941 187.733,171.456 187.919,170.301 189.074 M232.666 189.294 C 231.430 190.659,231.253 193.540,231.253 212.273 C 231.253 230.607,231.446 233.885,232.594 235.032 C 233.750 236.188,237.263 236.373,258.024 236.373 C 275.621 236.373,282.388 236.097,283.136 235.349 C 283.880 234.605,284.160 228.207,284.160 211.913 C 284.160 190.627,284.077 189.456,282.509 188.617 C 281.487 188.069,271.960 187.733,257.468 187.733 C 235.892 187.733,233.968 187.854,232.666 189.294 M295.741 189.074 C 294.592 190.223,294.400 193.520,294.400 212.053 C 294.400 230.587,294.592 233.884,295.741 235.032 C 296.895 236.186,300.353 236.373,320.544 236.373 C 335.085 236.373,344.633 236.037,345.656 235.490 C 347.223 234.652,347.307 233.483,347.307 212.511 C 347.307 193.562,347.116 190.224,345.966 189.074 C 344.811 187.919,341.326 187.733,320.853 187.733 C 300.381 187.733,296.896 187.919,295.741 189.074 " stroke="none" fill="black" fill-rule="evenodd"></path></svg>