<svg xmlns="http://www.w3.org/2000/svg" viewBox="0 0 512 512"><path d="M85.265 34.142 C 60.014 40.355,41.057 59.640,33.953 86.342 L 32.065 93.440 31.770 247.467 C 31.574 350.105,31.774 405.138,32.371 412.417 C 33.752 429.260,38.777 442.091,48.547 453.724 C 58.482 465.553,72.394 474.252,87.467 478.060 L 95.147 480.000 256.000 480.000 L 416.853 480.000 424.533 478.047 C 455.041 470.291,476.826 445.155,479.481 414.646 C 479.906 409.759,480.005 405.526,479.700 405.241 C 479.396 404.955,460.907 396.925,438.613 387.396 C 386.645 365.183,351.688 349.779,320.232 335.231 L 305.531 328.431 302.739 331.654 C 279.503 358.473,257.345 376.221,230.827 389.253 C 208.434 400.257,188.928 405.250,165.547 405.961 C 130.808 407.017,103.768 397.588,84.762 377.792 C 69.943 362.356,63.088 344.114,64.236 323.174 C 65.753 295.499,82.602 270.191,107.992 257.452 C 114.533 254.170,128.829 249.405,137.181 247.724 C 147.146 245.718,172.019 245.741,186.787 247.770 C 210.346 251.007,237.489 257.315,268.671 266.800 C 278.833 269.891,287.760 272.595,288.510 272.809 C 291.334 273.614,310.441 230.099,314.344 213.973 L 314.913 211.627 226.576 211.627 L 138.240 211.627 138.240 202.667 L 138.240 193.707 183.893 193.707 L 229.547 193.707 229.547 177.920 L 229.547 162.133 174.507 162.133 L 119.467 162.133 119.467 153.173 L 119.467 144.213 174.507 144.213 L 229.547 144.213 229.547 120.254 L 229.547 96.295 232.041 93.801 L 234.535 91.307 258.068 91.307 L 281.600 91.307 281.600 117.760 L 281.600 144.213 336.213 144.213 L 390.827 144.213 390.827 153.173 L 390.827 162.133 336.213 162.133 L 281.600 162.133 281.600 177.920 L 281.600 193.707 325.973 193.707 C 368.570 193.707,370.347 193.770,370.347 195.285 C 370.347 197.519,364.311 217.838,360.044 229.973 C 355.028 244.234,349.305 257.345,340.894 273.840 C 336.935 281.604,333.974 288.205,334.315 288.508 C 335.509 289.571,394.836 311.364,410.453 316.476 C 440.161 326.201,469.604 334.522,477.867 335.527 L 480.000 335.787 480.249 223.147 C 480.516 101.904,480.289 93.295,476.528 82.090 C 468.427 57.960,448.953 39.860,424.960 34.161 C 417.812 32.464,415.350 32.439,254.720 32.494 C 98.650 32.548,91.459 32.618,85.265 34.142 M137.646 275.619 C 128.281 276.943,115.835 280.674,107.618 284.619 C 77.737 298.967,70.821 333.434,93.313 355.916 C 102.039 364.638,114.370 370.971,128.853 374.168 C 138.715 376.345,159.087 376.818,168.960 375.099 C 196.603 370.285,225.212 353.796,249.200 328.851 C 258.609 319.067,266.418 309.566,265.602 308.896 C 265.249 308.607,260.352 306.223,254.720 303.600 C 222.586 288.633,200.427 280.865,178.485 276.873 C 169.823 275.298,145.252 274.543,137.646 275.619 " stroke="none" fill="black" fill-rule="evenodd"></path></svg>