<svg xmlns="http://www.w3.org/2000/svg" width="512" height="512" viewBox="0 0 512 512"><path d="M161.279 66.987 L 126.725 101.550 268.375 243.201 L 410.024 384.853 444.584 350.294 L 479.143 315.735 426.025 262.611 C 396.810 233.394,372.907 209.107,372.907 208.640 C 372.907 208.173,396.998 183.698,426.442 154.251 L 479.978 100.710 477.856 98.726 C 476.688 97.635,461.032 82.190,443.063 64.404 L 410.393 32.065 356.663 85.790 L 302.933 139.515 249.383 85.970 L 195.834 32.425 161.279 66.987 M66.773 161.491 L 32.428 195.836 85.971 249.385 L 139.515 302.933 85.791 356.663 L 32.066 410.392 63.975 442.636 C 81.525 460.370,96.969 476.028,98.296 477.430 L 100.707 479.981 145.287 435.611 C 169.806 411.208,194.189 387.024,199.473 381.869 L 209.079 372.497 262.405 425.819 L 315.732 479.140 350.294 444.586 L 384.856 410.032 243.416 268.589 C 165.624 190.796,101.782 127.147,101.546 127.147 C 101.310 127.147,85.662 142.602,66.773 161.491 " stroke="none" fill="black" fill-rule="evenodd"></path></svg>