<svg xmlns="http://www.w3.org/2000/svg" width="512" height="512" viewBox="0 0 512 512"><path d="M238.507 32.984 C 174.025 39.897,116.876 71.642,80.061 120.998 C 55.248 154.263,38.788 201.051,36.826 243.900 C 34.314 298.770,49.971 351.176,81.146 392.244 C 113.340 434.654,161.023 463.912,215.784 474.859 C 235.107 478.721,240.098 479.147,265.813 479.131 C 287.854 479.117,291.757 478.900,301.511 477.152 C 359.454 466.762,406.739 436.823,437.971 390.748 C 457.724 361.608,470.056 326.463,474.470 286.728 C 475.623 276.347,475.616 243.489,474.458 232.480 C 473.967 227.816,472.971 221.216,472.245 217.813 L 470.924 211.627 366.875 211.627 L 262.827 211.627 262.827 256.000 L 262.827 300.373 324.693 300.373 C 381.206 300.373,386.560 300.493,386.560 301.759 C 386.560 304.743,380.309 321.600,376.580 328.673 C 360.475 359.219,328.103 382.819,291.365 390.799 C 245.742 400.708,193.514 383.693,161.094 348.360 C 144.994 330.812,133.351 307.712,127.875 282.453 C 126.201 274.736,125.931 271.008,125.925 255.573 C 125.919 238.911,126.087 236.934,128.318 227.413 C 134.633 200.464,148.111 175.439,165.979 157.483 C 201.048 122.245,261.539 109.178,306.649 127.097 C 320.116 132.447,331.917 139.206,341.656 147.148 L 346.673 151.238 377.710 120.210 C 394.780 103.145,408.747 88.951,408.747 88.668 C 408.747 88.385,405.208 85.311,400.883 81.837 C 376.021 61.864,345.521 46.447,315.736 38.798 C 297.409 34.091,288.658 33.072,264.533 32.838 C 252.096 32.717,240.384 32.782,238.507 32.984 " stroke="none" fill="black" fill-rule="evenodd"></path></svg>