<svg xmlns="http://www.w3.org/2000/svg" viewBox="0 0 512 512"><path d="M313.861 21.120 C 309.701 25.368,306.279 31.207,288.369 64.620 L 267.681 103.213 261.151 107.500 L 254.621 111.787 179.364 111.787 L 104.107 111.787 104.107 171.947 L 104.107 232.107 145.421 232.107 L 186.735 232.107 190.253 236.104 C 192.188 238.302,193.661 240.541,193.526 241.080 C 193.391 241.619,173.216 279.515,148.693 325.294 L 104.107 408.527 104.107 452.157 L 104.107 495.787 148.720 495.787 L 193.333 495.787 198.129 490.880 C 202.269 486.644,205.751 480.702,223.618 447.383 L 244.312 408.792 250.845 404.503 L 257.379 400.213 332.636 400.213 L 407.893 400.213 407.893 340.053 L 407.893 279.893 366.573 279.893 L 325.253 279.893 321.779 275.840 C 319.868 273.611,318.302 271.547,318.299 271.255 C 318.296 270.963,338.453 233.096,363.093 187.107 L 407.893 103.490 407.893 59.852 L 407.893 16.213 363.280 16.213 L 318.667 16.213 313.861 21.120 " stroke="none" fill="black" fill-rule="evenodd"></path></svg>