<svg id="Layer_1" data-name="Layer 1" xmlns="http://www.w3.org/2000/svg" viewBox="0 0 512 512"><path d="M295.680 145.562 C 286.508 147.168,272.993 151.461,270.207 153.653 L 267.947 155.431 267.947 259.514 L 267.947 363.598 270.041 365.692 L 272.136 367.787 364.625 367.787 C 454.066 367.787,457.336 367.731,463.863 366.092 C 487.405 360.180,505.727 341.055,510.642 317.261 C 517.540 283.864,496.359 250.606,463.217 242.792 C 455.168 240.895,441.172 241.108,433.436 243.246 C 424.088 245.830,424.670 246.014,423.924 240.231 C 419.346 204.741,395.659 171.846,362.813 155.364 C 354.906 151.397,341.213 147.036,331.947 145.534 C 322.054 143.931,304.919 143.944,295.680 145.562 M250.296 160.772 C 247.498 163.179,248.018 152.293,246.215 246.187 C 245.067 305.967,245.086 311.953,246.499 336.978 L 248.012 363.770 250.347 365.778 C 253.439 368.438,256.449 368.325,259.320 365.440 L 261.656 363.093 263.223 335.360 C 264.729 308.710,264.734 304.893,263.355 237.653 C 262.566 199.168,261.726 166.449,261.489 164.944 C 260.995 161.815,257.595 158.720,254.653 158.720 C 253.569 158.720,251.608 159.643,250.296 160.772 M228.838 173.082 C 226.790 175.130,226.527 181.282,225.217 257.707 C 224.440 303.040,224.500 315.008,225.619 337.493 L 226.935 363.947 229.142 365.867 C 232.437 368.734,236.933 368.110,238.855 364.519 C 239.303 363.682,240.318 350.634,241.111 335.524 C 242.460 309.812,242.462 303.820,241.144 242.131 C 239.839 181.049,239.622 176.057,238.183 174.080 C 236.126 171.253,231.193 170.727,228.838 173.082 M165.547 187.733 C 164.608 188.672,163.832 190.496,163.823 191.787 C 163.813 193.077,163.067 219.861,162.165 251.307 C 160.539 307.977,160.539 308.720,162.198 335.787 C 163.119 350.805,164.083 363.766,164.341 364.588 C 165.443 368.106,171.431 368.582,173.192 365.291 C 173.670 364.399,174.889 351.636,175.903 336.928 C 177.739 310.274,177.740 310.023,176.314 260.267 C 174.379 192.801,174.198 189.558,172.241 187.601 C 170.193 185.553,167.678 185.602,165.547 187.733 M186.089 190.835 C 184.593 192.737,184.320 194.283,184.322 200.862 C 184.323 205.140,183.708 230.528,182.955 257.280 C 181.670 302.937,181.678 307.647,183.073 334.080 C 183.891 349.568,184.883 363.109,185.276 364.170 C 186.911 368.577,193.686 368.577,195.302 364.170 C 195.692 363.109,196.713 350.085,197.572 335.229 C 199.095 308.894,199.093 306.763,197.487 250.033 L 195.840 191.848 193.825 190.217 C 191.018 187.945,188.184 188.171,186.089 190.835 M145.081 191.817 C 143.209 193.332,143.190 193.636,141.427 250.057 C 139.710 305.006,139.701 307.558,141.130 331.947 C 143.030 364.373,143.113 365.026,145.569 366.635 C 147.819 368.109,150.661 367.538,151.802 365.382 C 152.220 364.593,153.447 351.659,154.529 336.640 L 156.495 309.333 155.008 264.107 C 152.665 192.848,152.712 193.672,150.901 191.861 C 148.933 189.893,147.471 189.882,145.081 191.817 M207.486 194.434 C 205.650 196.270,205.438 200.614,203.856 268.800 C 203.019 304.899,203.078 313.557,204.319 336.565 C 205.101 351.072,206.114 363.640,206.570 364.492 C 208.479 368.059,212.260 368.646,215.422 365.867 L 217.606 363.947 219.188 336.213 C 220.723 309.299,220.725 306.879,219.228 254.293 C 218.380 224.491,217.666 199.243,217.643 198.187 C 217.541 193.606,210.804 191.116,207.486 194.434 M124.221 201.021 C 123.483 201.758,122.859 202.430,122.834 202.514 C 122.808 202.598,121.911 226.516,120.839 255.666 L 118.890 308.665 120.804 336.306 C 121.857 351.508,122.989 364.622,123.320 365.447 C 124.251 367.769,127.865 368.311,129.704 366.405 C 131.037 365.024,131.554 360.815,133.415 336.213 L 135.577 307.627 133.522 259.413 C 132.392 232.896,131.455 209.376,131.440 207.147 C 131.400 201.092,127.478 197.764,124.221 201.021 M103.805 220.875 C 102.584 222.225,102.098 228.454,100.324 265.569 L 98.263 308.694 100.312 336.294 C 101.439 351.474,102.540 364.361,102.759 364.931 C 102.978 365.502,103.911 366.372,104.833 366.865 C 106.123 367.556,106.913 367.421,108.268 366.281 C 109.884 364.920,110.212 362.504,112.304 336.539 L 114.581 308.278 112.298 265.286 C 110.121 224.313,109.931 222.223,108.246 220.800 C 106.028 218.927,105.561 218.935,103.805 220.875 M63.205 250.383 C 62.147 251.658,58.045 297.760,58.033 308.508 C 58.025 315.672,62.062 364.162,62.760 365.292 C 63.465 366.431,66.207 366.260,67.205 365.013 C 67.674 364.427,69.228 351.482,70.658 336.248 L 73.257 308.549 70.658 279.928 C 69.229 264.186,67.675 250.827,67.205 250.240 C 66.076 248.830,64.445 248.889,63.205 250.383 M42.783 252.800 C 42.400 253.856,41.053 267.200,39.788 282.453 L 37.488 310.187 39.957 336.515 C 42.438 362.972,42.852 364.904,45.797 363.774 C 47.371 363.170,47.394 363.016,50.307 334.111 L 52.884 308.542 50.272 281.631 C 48.836 266.830,47.313 253.856,46.888 252.800 C 46.464 251.744,45.523 250.880,44.797 250.880 C 44.071 250.880,43.165 251.744,42.783 252.800 M83.261 253.928 C 82.523 254.665,81.905 256.489,81.886 257.981 C 81.868 259.473,80.949 271.253,79.845 284.160 L 77.838 307.627 79.991 336.213 C 81.175 351.936,82.524 365.280,82.990 365.867 C 84.137 367.313,86.600 367.212,87.883 365.666 C 88.540 364.874,89.857 353.952,91.390 336.576 L 93.844 308.755 91.377 281.923 C 89.875 265.589,88.503 254.602,87.871 253.839 C 86.526 252.220,84.938 252.250,83.261 253.928 M22.746 261.760 C 22.521 262.581,21.272 273.485,19.970 285.990 L 17.604 308.726 19.968 330.790 C 21.268 342.925,22.517 353.525,22.743 354.347 C 23.411 356.771,26.249 356.174,26.803 353.493 C 27.069 352.203,28.481 341.571,29.941 329.868 L 32.594 308.588 29.898 286.348 C 28.415 274.115,26.849 263.243,26.419 262.187 C 25.489 259.904,23.323 259.653,22.746 261.760 M3.870 280.107 C 3.634 281.163,2.662 287.993,1.709 295.285 L -0.022 308.543 1.698 321.738 C 2.645 328.995,3.617 335.797,3.859 336.853 C 4.300 338.776,6.303 339.458,7.208 337.994 C 7.472 337.565,8.707 330.818,9.951 322.999 L 12.213 308.783 10.233 295.405 C 8.008 280.371,7.418 278.187,5.584 278.187 C 4.877 278.187,4.106 279.051,3.870 280.107 " stroke="none" fill="black" fill-rule="evenodd"></path></svg>