<svg id="Layer_1" data-name="Layer 1" xmlns="http://www.w3.org/2000/svg" viewBox="0 0 512 512"><path d="M105.687 31.907 C 101.745 33.315,98.351 35.977,95.902 39.582 C 94.834 41.153,81.694 80.564,66.254 128.509 C 51.003 175.866,33.416 230.357,27.171 249.600 C 16.675 281.946,15.819 285.070,15.838 290.987 C 15.860 298.033,18.125 304.312,22.521 309.509 C 23.794 311.013,75.703 349.547,137.876 395.139 C 259.901 484.622,253.904 480.598,260.267 477.262 C 266.262 474.118,484.371 313.775,487.910 309.908 C 492.792 304.575,495.200 298.180,495.194 290.560 C 495.190 285.161,493.795 280.278,480.681 239.787 C 472.701 215.147,455.075 160.427,441.513 118.187 L 416.853 41.387 412.587 36.989 C 404.434 28.585,393.028 28.454,384.845 36.670 C 380.506 41.026,384.706 28.916,347.844 143.360 L 331.490 194.133 256.032 194.351 C 214.531 194.471,180.268 194.263,179.893 193.888 C 179.519 193.513,168.654 160.391,155.750 120.283 C 142.845 80.175,131.669 45.713,130.914 43.700 C 127.108 33.560,115.824 28.286,105.687 31.907 M133.915 126.454 C 145.680 162.901,155.307 193.136,155.307 193.641 C 155.307 194.285,142.395 194.560,112.122 194.560 C 77.954 194.560,69.011 194.337,69.292 193.493 C 69.487 192.907,79.202 162.581,90.882 126.103 C 102.561 89.625,112.209 59.871,112.320 59.982 C 112.432 60.094,122.149 90.006,133.915 126.454 M421.525 129.875 C 432.801 164.932,442.027 193.828,442.027 194.088 C 442.027 194.348,422.635 194.560,398.933 194.560 C 367.210 194.560,355.840 194.303,355.840 193.586 C 355.840 193.050,364.469 165.840,375.016 133.119 C 385.563 100.398,395.218 70.404,396.473 66.466 L 398.753 59.307 399.888 62.720 C 400.512 64.597,410.249 94.817,421.525 129.875 M169.465 237.013 C 197.570 324.059,224.305 407.446,224.156 407.595 C 223.963 407.788,78.539 219.810,77.398 217.893 C 76.830 216.940,83.974 216.747,119.819 216.747 L 162.922 216.747 169.465 237.013 M323.852 217.813 C 323.505 218.840,258.596 420.657,256.708 426.581 C 256.053 428.636,255.594 429.133,255.134 428.287 C 254.777 427.631,239.467 380.376,221.112 323.277 C 202.757 266.179,187.505 218.851,187.218 218.104 C 186.745 216.870,192.944 216.747,255.455 216.747 C 310.085 216.747,324.139 216.966,323.852 217.813 M433.806 217.784 C 433.454 218.354,401.830 259.346,363.531 308.877 C 325.233 358.408,292.400 400.939,290.570 403.390 C 288.740 405.842,287.133 407.738,286.999 407.603 C 286.826 407.430,344.218 228.107,347.741 217.813 C 348.027 216.979,357.504 216.747,391.277 216.747 C 424.943 216.747,434.306 216.975,433.806 217.784 M126.012 318.293 C 162.086 364.992,192.747 404.717,194.147 406.571 L 196.693 409.942 192.000 406.495 C 189.419 404.599,154.667 379.132,114.773 349.902 C 74.880 320.671,41.376 295.966,40.320 295.002 C 37.872 292.767,37.903 290.385,40.484 282.456 C 41.631 278.935,45.893 265.734,49.956 253.122 C 57.106 230.927,57.393 230.242,58.883 231.789 C 59.730 232.668,89.938 271.595,126.012 318.293 M455.114 234.453 C 455.778 236.683,460.084 250.144,464.682 264.368 C 471.542 285.589,472.899 290.637,472.244 292.499 C 471.658 294.165,450.666 309.997,393.132 352.164 C 350.059 383.732,315.120 409.039,315.489 408.402 C 317.053 405.705,452.748 230.473,453.300 230.438 C 453.634 230.417,454.450 232.224,455.114 234.453 " stroke="none" fill="black" fill-rule="evenodd"></path></svg>