<svg xmlns="http://www.w3.org/2000/svg" width="512" height="512" viewBox="0 0 512 512"><path d="M223.709 65.297 C 228.732 74.069,294.000 184.130,294.520 184.704 C 294.930 185.158,295.234 171.624,295.210 153.984 L 295.166 122.453 261.446 95.147 C 224.947 65.590,222.991 64.043,223.709 65.297 M339.627 162.148 L 339.627 259.443 318.539 259.215 L 297.451 258.987 261.643 200.327 C 241.949 168.064,225.773 141.760,225.698 141.874 C 225.567 142.073,226.504 202.613,227.231 240.853 L 227.584 259.413 204.672 259.413 L 181.760 259.413 181.718 195.200 L 181.676 130.987 161.992 114.773 C 151.166 105.856,141.916 98.414,141.438 98.237 C 140.959 98.059,141.809 99.718,143.326 101.925 C 162.615 129.959,164.919 178.186,148.589 212.053 C 138.347 233.294,121.758 248.170,100.693 255.000 C 89.016 258.786,88.651 258.814,43.618 259.334 L -0.230 259.840 113.954 353.920 L 228.138 448.000 370.072 448.000 L 512.006 448.000 511.790 326.671 L 511.573 205.342 426.240 135.157 C 379.307 96.555,340.619 64.945,340.267 64.912 C 339.915 64.880,339.627 108.636,339.627 162.148 M44.373 161.707 L 44.373 215.040 58.667 215.025 C 67.773 215.016,75.056 214.566,78.737 213.786 C 94.387 210.470,105.019 199.513,109.814 181.760 C 111.955 173.834,111.951 152.281,109.808 143.144 C 106.582 129.392,98.948 118.643,88.754 113.497 C 80.898 109.532,74.171 108.405,58.240 108.388 L 44.373 108.373 44.373 161.707 " stroke="none" fill="black" fill-rule="evenodd"></path></svg>