<svg xmlns="http://www.w3.org/2000/svg" width="512" height="512" viewBox="0 0 512 512"><path d="M135.253 33.706 C 82.633 42.969,42.258 83.104,33.683 134.674 C 31.519 147.687,32.278 170.410,35.271 182.187 C 37.904 192.549,40.678 200.020,45.327 209.265 L 48.841 216.256 47.457 224.591 C 42.881 252.146,44.189 282.108,51.176 309.760 C 66.133 368.952,107.073 419.152,162.560 446.336 C 185.151 457.404,203.559 463.176,227.963 466.842 C 244.097 469.266,269.184 469.451,286.005 467.269 L 297.663 465.757 304.352 468.770 C 312.670 472.518,321.766 475.503,331.138 477.563 C 341.362 479.809,370.125 479.831,380.587 477.600 C 405.610 472.265,426.509 461.064,443.733 443.757 C 458.520 428.899,468.003 413.650,473.954 395.162 C 478.614 380.683,479.857 371.059,479.340 353.432 C 478.831 336.074,476.951 326.835,470.946 312.191 L 467.438 303.636 469.449 291.551 C 471.198 281.045,471.455 276.680,471.420 258.133 C 471.386 239.898,471.096 235.135,469.419 225.332 C 464.325 195.536,454.035 169.159,437.930 144.611 C 428.536 130.292,422.061 122.376,409.677 110.075 C 376.934 77.550,335.237 56.764,288.853 49.843 C 275.952 47.919,245.439 47.675,231.532 49.386 L 221.997 50.559 212.759 45.861 C 202.489 40.638,193.754 37.434,182.724 34.846 C 172.991 32.562,145.501 31.902,135.253 33.706 M288.853 112.576 C 307.148 115.780,323.374 121.769,336.145 130.031 C 344.097 135.175,355.665 146.357,360.139 153.223 C 368.655 166.294,371.104 182.130,366.201 192.427 C 362.962 199.230,356.133 205.632,349.418 208.160 C 342.701 210.690,330.059 210.409,324.687 207.611 C 319.513 204.916,313.356 197.808,306.361 186.453 C 299.424 175.192,290.461 165.339,284.304 162.203 C 276.274 158.115,268.600 156.786,253.013 156.786 C 240.861 156.786,237.399 157.083,231.680 158.619 C 214.170 163.320,203.673 172.393,202.491 183.846 C 201.807 190.471,203.726 195.003,209.545 200.506 C 218.294 208.781,228.105 212.331,266.240 221.017 C 291.810 226.842,309.830 231.751,321.707 236.127 C 363.843 251.654,382.242 274.708,382.282 312.032 C 382.301 329.892,378.504 343.084,369.447 356.625 C 354.534 378.921,327.924 394.019,292.619 400.218 C 277.641 402.847,249.009 403.498,232.533 401.583 C 200.046 397.807,177.008 388.184,158.862 370.810 C 149.508 361.854,144.191 354.722,139.115 344.320 C 127.376 320.269,131.270 301.493,149.760 292.984 C 154.209 290.936,155.942 290.627,162.987 290.626 C 178.523 290.623,186.430 296.920,195.591 316.591 C 203.292 333.127,211.179 342.471,222.396 348.348 C 231.513 353.125,236.719 354.223,252.587 354.715 C 267.806 355.188,277.199 353.907,287.698 349.929 C 298.453 345.854,307.981 337.879,312.078 329.523 C 314.083 325.432,314.439 323.650,314.405 317.867 C 314.350 308.793,312.094 303.635,305.516 297.544 C 296.524 289.219,285.359 285.100,251.745 277.702 C 198.562 265.998,175.082 256.480,157.801 239.619 C 144.088 226.239,138.101 211.349,138.139 190.720 C 138.192 162.093,153.197 139.384,181.454 125.165 C 194.815 118.442,216.245 112.792,235.520 110.911 C 248.369 109.657,277.356 110.562,288.853 112.576 " stroke="none" fill="black" fill-rule="evenodd"></path></svg>