<svg id="Layer_1" data-name="Layer 1" xmlns="http://www.w3.org/2000/svg" viewBox="0 0 512 512"><path d="M235.520 34.254 C 140.746 42.933,60.918 111.771,38.484 204.167 C 33.573 224.393,32.853 231.182,32.853 257.280 C 32.853 276.407,33.164 283.046,34.410 290.560 C 42.635 340.153,62.974 380.369,97.250 414.809 C 104.072 421.663,112.533 429.534,116.053 432.300 C 145.632 455.545,181.220 471.523,218.240 478.179 L 221.013 478.677 221.013 400.192 L 221.013 321.707 192.427 321.707 L 163.840 321.707 163.840 289.707 L 163.840 257.707 192.351 257.707 L 220.862 257.707 221.260 224.213 C 221.681 188.876,221.904 186.613,226.270 173.227 C 235.470 145.017,258.210 126.566,289.398 122.005 C 301.859 120.183,340.781 122.008,353.920 125.031 L 355.840 125.473 355.840 152.763 L 355.840 180.053 341.120 180.080 C 315.618 180.125,307.406 182.254,299.545 190.855 C 291.919 199.199,291.520 201.132,291.164 231.467 L 290.856 257.707 322.085 257.707 L 353.313 257.707 352.869 259.627 C 352.625 260.683,350.506 274.219,348.160 289.707 C 345.814 305.195,343.695 318.731,343.451 319.787 L 343.007 321.707 316.997 321.707 L 290.987 321.707 290.987 400.230 L 290.987 478.753 292.907 478.341 C 293.963 478.114,298.091 477.297,302.080 476.525 C 327.727 471.563,356.048 459.646,379.932 443.765 C 432.659 408.708,467.006 354.830,477.599 290.560 C 480.001 275.988,479.792 236.538,477.234 221.841 C 473.123 198.213,466.773 178.677,456.414 157.784 C 415.370 75.003,327.452 25.836,235.520 34.254 " stroke="none" fill="black" fill-rule="evenodd"></path></svg>