<svg xmlns="http://www.w3.org/2000/svg" width="512" height="512" viewBox="0 0 512 512"><path d="M286.834 168.536 L 208.910 304.645 258.561 391.895 C 285.870 439.882,308.657 479.427,309.200 479.772 C 310.911 480.861,412.160 480.566,412.160 479.472 C 412.160 478.947,390.178 439.875,363.312 392.645 C 334.333 341.704,314.468 305.906,314.475 304.640 C 314.481 303.392,346.019 247.288,390.505 169.387 C 432.315 96.171,466.977 35.403,467.532 34.347 L 468.540 32.427 416.649 32.427 L 364.758 32.427 286.834 168.536 M65.707 112.514 C 65.707 112.921,78.763 136.402,94.720 164.693 C 110.677 192.985,123.733 216.474,123.733 216.892 C 123.733 217.311,105.898 247.316,84.099 283.570 C 62.301 319.825,44.211 350.149,43.901 350.957 C 43.372 352.337,46.272 352.426,91.429 352.414 C 117.879 352.406,139.942 352.118,140.458 351.774 C 141.533 351.054,221.867 217.862,221.867 216.799 C 221.867 216.413,208.508 192.724,192.181 164.156 L 162.496 112.213 114.101 111.993 C 87.131 111.870,65.707 112.101,65.707 112.514 " stroke="none" fill="black" fill-rule="evenodd"></path></svg>