<svg xmlns="http://www.w3.org/2000/svg" width="512" height="512" viewBox="0 0 512 512"><path d="M229.973 33.372 C 148.159 43.184,77.714 97.519,47.547 174.080 C 40.642 191.603,35.321 213.064,33.327 231.433 C 32.168 242.102,32.168 269.898,33.327 280.567 C 41.549 356.288,88.572 423.113,157.440 456.948 C 178.275 467.185,199.631 473.930,222.860 477.613 C 236.686 479.805,275.314 479.805,289.140 477.613 C 362.866 465.925,424.405 420.799,456.948 354.560 C 464.552 339.084,469.019 326.969,473.049 310.900 C 478.303 289.947,479.147 282.350,479.147 256.000 C 479.147 229.650,478.303 222.053,473.049 201.100 C 459.493 147.040,425.874 99.778,378.818 68.629 C 360.271 56.352,334.000 44.716,312.566 39.283 C 291.881 34.040,283.996 33.080,259.413 32.806 C 246.976 32.667,233.728 32.922,229.973 33.372 M260.557 119.781 C 262.095 120.424,292.177 140.168,327.406 163.657 C 387.671 203.839,391.567 206.587,393.276 210.119 C 395.056 213.796,395.093 214.746,395.093 256.853 C 395.093 298.961,395.056 299.911,393.276 303.588 C 391.567 307.119,387.684 309.859,327.735 349.830 C 292.687 373.199,262.721 392.985,261.144 393.801 C 254.625 397.172,256.206 398.059,188.740 353.184 C 154.629 330.495,125.229 310.794,123.406 309.403 C 116.821 304.381,116.947 305.396,116.925 256.821 C 116.907 213.777,116.910 213.688,118.827 209.887 C 120.625 206.321,124.722 203.422,183.467 164.145 C 217.963 141.081,247.723 121.406,249.600 120.424 C 253.585 118.338,256.670 118.157,260.557 119.781 M197.750 183.520 C 172.518 200.241,151.655 214.140,151.387 214.408 C 150.682 215.113,190.809 241.493,192.587 241.493 C 194.558 241.493,241.332 210.106,242.879 207.745 C 243.856 206.253,244.036 201.035,243.852 179.517 L 243.627 153.119 197.750 183.520 M267.947 179.840 C 267.947 200.307,268.211 207.367,269.013 208.382 C 270.624 210.418,316.742 240.898,318.820 241.300 C 320.881 241.698,361.467 215.157,360.340 214.147 C 359.692 213.566,271.103 154.524,269.013 153.281 C 268.169 152.778,267.947 158.315,267.947 179.840 M254.182 230.247 C 252.150 231.093,214.227 256.349,214.230 256.853 C 214.232 257.088,223.053 263.136,233.834 270.293 C 247.122 279.116,254.185 283.307,255.765 283.307 C 257.347 283.307,264.344 279.150,277.528 270.377 C 288.216 263.266,296.960 257.176,296.960 256.844 C 296.960 256.152,257.063 229.515,256.164 229.607 C 255.839 229.640,254.947 229.928,254.182 230.247 M140.800 256.853 L 140.800 276.676 143.147 275.149 C 156.545 266.429,169.813 257.325,169.813 256.853 C 169.813 256.382,156.545 247.278,143.147 238.558 L 140.800 237.030 140.800 256.853 M355.840 246.611 C 348.096 251.772,341.760 256.381,341.760 256.853 C 341.760 257.325,348.096 261.934,355.840 267.095 L 369.920 276.479 370.160 266.666 C 370.293 261.269,370.293 252.438,370.160 247.040 L 369.920 237.228 355.840 246.611 M171.249 285.396 C 160.540 292.600,151.851 298.821,151.941 299.220 C 152.031 299.620,172.697 313.675,197.866 330.453 L 243.627 360.959 243.852 333.902 C 244.060 309.005,243.958 306.726,242.572 305.353 C 239.277 302.086,194.022 272.216,192.427 272.255 C 191.488 272.278,181.958 278.191,171.249 285.396 M293.290 288.610 C 277.415 299.213,268.591 305.620,268.318 306.743 C 268.086 307.698,268.003 320.289,268.135 334.721 L 268.373 360.962 314.027 330.566 C 339.136 313.848,359.977 299.899,360.340 299.569 C 361.189 298.796,321.355 272.213,319.349 272.213 C 318.518 272.213,306.792 279.592,293.290 288.610 " stroke="none" fill="black" fill-rule="evenodd"></path></svg>