<svg xmlns="http://www.w3.org/2000/svg" viewBox="0 0 512 512"><path d="M90.388 115.134 C 85.515 120.007,85.589 120.188,109.227 161.195 C 120.960 181.550,130.548 198.440,130.532 198.728 C 130.517 199.017,126.036 201.925,120.574 205.190 C 54.244 244.845,9.718 315.163,0.461 394.880 L -0.059 399.360 256.023 399.360 L 512.105 399.360 511.559 395.307 C 508.458 372.282,505.023 357.081,498.881 339.200 C 479.420 282.549,440.687 234.308,391.074 204.931 C 385.800 201.808,381.475 198.989,381.463 198.666 C 381.450 198.343,391.040 181.450,402.773 161.127 C 426.409 120.186,426.483 120.005,421.612 115.134 C 418.256 111.778,414.013 111.721,410.557 114.987 C 409.191 116.277,398.588 133.845,386.994 154.027 C 375.401 174.208,365.838 190.803,365.743 190.904 C 365.648 191.005,360.395 189.019,354.070 186.491 C 325.117 174.919,297.072 169.300,263.680 168.379 C 224.100 167.287,188.924 173.612,154.136 188.077 C 149.973 189.808,146.470 191.111,146.352 190.972 C 146.233 190.833,136.647 174.208,125.048 154.027 C 113.450 133.845,102.835 116.277,101.460 114.987 C 97.982 111.723,93.743 111.779,90.388 115.134 M146.587 286.335 C 150.773 288.079,155.976 293.140,157.950 297.387 C 162.443 307.056,157.839 320.292,148.269 325.214 C 127.970 335.655,107.502 310.157,122.032 292.530 C 127.496 285.902,138.738 283.065,146.587 286.335 M382.780 287.045 C 390.726 290.745,395.939 300.162,394.769 308.700 C 392.246 327.106,369.340 334.045,357.349 320.036 C 353.897 316.004,352.427 311.685,352.427 305.580 C 352.427 300.027,354.196 295.740,358.228 291.525 C 364.664 284.797,374.212 283.055,382.780 287.045 " stroke="none" fill="black" fill-rule="evenodd"></path></svg>