<svg xmlns="http://www.w3.org/2000/svg" viewBox="0 0 512 512"><path d="M85.333 17.564 C 69.187 21.824,55.780 34.627,50.111 51.200 L 48.213 56.747 47.986 225.905 C 47.733 413.448,47.391 401.510,53.367 413.652 C 58.930 424.954,70.451 434.207,84.053 438.297 C 88.881 439.749,97.116 439.851,228.480 440.100 C 305.099 440.245,367.779 440.066,367.770 439.702 C 367.761 439.338,364.936 429.536,361.493 417.920 C 358.050 406.304,355.381 396.800,355.561 396.800 C 355.741 396.800,380.165 419.067,409.837 446.282 L 463.787 495.764 464.018 280.095 C 464.275 39.874,464.686 57.166,458.409 44.373 C 456.290 40.056,453.461 36.144,449.714 32.352 C 443.592 26.156,438.711 23.000,430.182 19.725 L 424.533 17.556 353.707 16.989 C 314.752 16.677,239.488 16.400,186.453 16.374 C 104.802 16.333,89.308 16.515,85.333 17.564 M219.662 130.255 C 219.958 131.027,220.095 131.733,219.967 131.825 C 219.838 131.917,214.936 133.620,209.074 135.610 C 191.800 141.473,170.002 152.591,162.133 159.552 L 159.147 162.194 163.413 160.138 C 177.932 153.139,200.496 145.610,214.613 143.055 C 260.305 134.785,303.684 139.828,341.895 157.852 C 346.770 160.151,350.512 161.634,350.212 161.148 C 349.222 159.546,334.228 150.082,326.577 146.231 C 317.963 141.894,313.636 140.086,301.452 135.733 C 292.812 132.646,292.731 132.592,294.034 130.733 C 295.639 128.441,297.982 128.358,308.970 130.207 C 324.903 132.888,343.356 140.326,357.651 149.830 C 363.714 153.860,363.832 154.011,368.229 163.353 C 385.526 200.102,396.314 242.959,398.197 282.412 L 398.752 294.028 391.652 301.528 C 376.440 317.598,354.878 327.613,332.261 329.114 L 324.469 329.631 316.901 320.460 C 312.739 315.416,309.516 311.041,309.739 310.738 C 309.963 310.435,313.274 309.010,317.098 307.571 C 327.730 303.572,336.623 298.083,344.467 290.680 C 351.493 284.050,353.774 280.824,349.227 283.950 C 337.119 292.274,312.147 301.950,292.646 305.874 C 254.066 313.635,213.839 307.867,176.935 289.280 L 164.003 282.768 167.526 286.945 C 174.174 294.829,188.289 303.937,200.960 308.520 C 203.307 309.368,205.367 310.167,205.539 310.295 C 205.711 310.423,202.287 314.867,197.930 320.170 C 193.574 325.474,189.920 329.935,189.810 330.083 C 189.334 330.730,172.312 328.336,166.091 326.748 C 147.457 321.990,130.792 312.021,120.205 299.300 L 116.053 294.311 116.054 287.316 C 116.058 251.040,129.576 196.371,147.240 161.200 C 150.954 153.804,151.371 153.328,157.688 149.231 C 171.688 140.153,189.797 132.905,205.227 130.202 C 214.881 128.511,218.999 128.527,219.662 130.255 M207.977 218.568 C 200.569 219.665,194.262 224.541,190.039 232.434 C 188.462 235.382,188.160 237.318,188.160 244.480 C 188.160 253.877,189.287 257.118,194.702 263.284 C 201.180 270.663,213.422 273.180,221.867 268.870 C 231.178 264.116,235.624 256.907,236.198 245.629 C 236.536 238.987,236.345 237.744,234.292 233.256 C 229.266 222.266,219.565 216.851,207.977 218.568 M296.400 218.510 C 288.538 220.018,281.516 225.711,278.051 233.387 C 275.331 239.413,275.358 249.530,278.110 255.756 C 280.342 260.804,286.823 267.345,291.645 269.415 C 293.395 270.166,297.323 270.815,300.373 270.857 C 310.124 270.991,317.988 265.772,322.718 256.026 C 325.472 250.351,325.439 239.364,322.650 233.156 C 318.074 222.976,306.573 216.558,296.400 218.510 " stroke="none" fill="black" fill-rule="evenodd"></path></svg>