<svg xmlns="http://www.w3.org/2000/svg" width="512" height="512" viewBox="0 0 512 512"><path d="M205.653 81.487 C 173.499 85.394,136.208 97.582,103.253 114.954 C 62.902 136.226,28.943 163.444,12.603 187.611 C -5.263 214.035,-3.931 237.753,16.804 262.387 C 27.053 274.564,41.070 285.113,73.005 304.680 C 82.367 310.417,91.692 316.252,93.727 317.647 L 97.427 320.183 80.927 328.441 C 53.109 342.362,38.563 352.625,28.592 365.370 C 19.201 377.372,15.697 387.184,16.454 399.360 C 16.981 407.827,18.523 412.612,22.683 418.689 C 28.475 427.150,36.658 430.962,50.347 431.577 C 78.316 432.833,109.209 417.763,124.307 395.497 C 134.127 381.016,137.865 367.598,137.186 349.271 C 136.860 340.452,136.335 336.975,134.462 331.227 C 133.186 327.311,132.266 323.995,132.418 323.857 C 132.881 323.438,153.549 313.173,153.930 313.173 C 154.126 313.173,153.778 314.861,153.157 316.925 C 147.376 336.133,148.439 359.411,155.751 373.760 C 161.672 385.379,166.463 388.668,177.493 388.683 C 183.832 388.692,185.237 388.405,188.633 386.409 C 193.144 383.756,197.844 377.441,204.885 364.572 L 209.678 355.810 210.131 362.865 C 210.804 373.341,213.692 378.855,219.955 381.626 C 226.819 384.662,232.888 382.228,243.334 372.248 C 255.717 360.417,267.289 340.368,282.483 304.421 C 286.403 295.148,289.859 287.852,290.163 288.207 C 290.468 288.563,291.772 291.925,293.062 295.680 C 294.351 299.435,297.100 306.110,299.170 310.514 C 301.240 314.918,302.933 319.111,302.933 319.832 C 302.933 320.553,296.491 327.701,288.617 335.718 C 273.797 350.806,269.493 356.395,267.439 363.220 C 266.355 366.821,266.384 367.523,267.731 370.276 C 269.633 374.164,272.482 375.491,280.154 376.064 C 300.016 377.546,325.758 364.966,333.293 350.096 C 335.966 344.820,336.143 342.220,335.320 320.427 C 334.822 307.238,339.704 295.652,353.558 277.136 L 357.856 271.393 361.077 281.207 C 362.849 286.605,365.682 293.653,367.372 296.870 L 370.445 302.719 365.081 307.733 C 349.043 322.726,343.011 331.877,341.678 343.238 C 340.642 352.066,344.588 359.079,351.661 360.984 C 354.469 361.740,356.387 361.576,362.496 360.059 C 380.767 355.523,396.773 344.433,402.454 332.373 C 404.876 327.231,405.190 317.963,403.200 310.324 C 402.496 307.621,401.920 305.088,401.920 304.695 C 401.920 303.424,420.829 300.262,431.360 299.772 C 461.151 298.388,486.173 308.314,494.545 324.837 C 496.569 328.832,497.067 330.907,497.067 335.360 C 497.067 343.023,494.318 347.563,485.916 353.776 C 482.428 356.356,479.573 359.006,479.573 359.665 C 479.573 361.216,482.875 363.520,485.097 363.519 C 490.514 363.517,503.120 354.772,507.355 348.078 C 515.391 335.374,512.444 317.256,500.124 303.625 C 481.857 283.413,451.248 275.849,416.558 282.975 C 410.837 284.150,398.306 287.556,395.030 288.826 C 394.006 289.224,392.951 287.771,390.582 282.700 C 383.623 267.802,383.049 255.991,388.396 237.742 C 390.105 231.910,390.105 231.837,388.463 229.637 C 386.386 226.855,381.761 225.426,374.613 225.358 C 368.737 225.302,359.549 227.108,356.718 228.876 C 355.584 229.584,354.006 233.188,351.948 239.767 C 350.178 245.428,346.428 254.329,343.112 260.744 C 337.604 271.396,323.750 293.564,321.875 294.722 C 320.622 295.497,317.586 286.954,316.396 279.300 C 315.263 272.011,316.286 262.477,319.220 252.978 C 321.618 245.213,321.239 243.173,317.013 241.094 C 309.704 237.497,292.326 239.073,287.416 243.777 C 284.089 246.965,277.560 260.075,272.193 274.347 C 265.848 291.216,254.245 318.603,248.332 330.667 C 243.764 339.986,237.602 349.779,236.267 349.842 C 235.973 349.855,235.515 348.774,235.248 347.438 C 234.410 343.248,236.863 334.538,242.614 321.280 C 251.207 301.473,252.495 295.326,249.324 289.267 C 247.230 285.268,241.357 282.207,237.123 282.908 L 234.033 283.420 233.644 276.323 C 233.186 267.967,231.159 263.290,226.434 259.686 C 223.802 257.679,222.307 257.249,217.019 256.982 C 203.233 256.286,189.789 263.250,173.552 279.497 C 162.688 290.369,158.660 292.777,134.370 302.921 L 120.136 308.865 115.321 305.182 C 112.673 303.157,103.595 296.772,95.147 290.994 C 74.889 277.140,67.468 271.438,59.626 263.700 C 44.788 249.060,39.550 234.806,43.000 218.453 C 48.115 194.205,71.286 172.192,117.008 148.144 C 154.058 128.657,188.865 116.401,218.005 112.580 C 229.127 111.121,251.083 112.005,260.120 114.274 C 280.219 119.322,289.184 126.336,291.935 139.163 C 294.348 150.415,286.199 168.432,272.343 182.482 C 250.734 204.393,211.775 221.597,177.534 224.350 C 158.262 225.899,143.361 222.292,126.083 211.897 C 116.833 206.332,114.251 210.163,119.947 221.003 C 125.777 232.098,137.706 240.964,151.511 244.463 C 183.820 252.652,238.786 239.172,278.613 213.292 C 295.540 202.293,311.327 183.825,317.513 167.785 C 328.321 139.757,326.000 121.954,309.373 105.361 C 304.080 100.080,300.746 97.608,294.827 94.576 C 281.309 87.653,268.300 83.759,250.996 81.455 C 239.983 79.989,217.856 80.004,205.653 81.487 M214.187 281.284 C 214.187 284.695,209.402 303.604,205.650 315.020 C 199.269 334.436,191.521 349.422,184.325 356.267 C 181.743 358.723,181.585 358.761,180.454 357.221 C 176.605 351.982,176.596 330.844,180.437 317.909 C 185.495 300.876,194.794 287.923,206.154 282.090 C 211.058 279.572,214.187 279.258,214.187 281.284 M377.780 324.701 C 376.833 333.880,370.556 341.635,361.914 344.305 C 359.953 344.911,359.903 344.817,360.493 341.640 C 361.449 336.485,365.182 330.345,370.955 324.434 C 377.133 318.108,378.455 318.160,377.780 324.701 M111.607 346.654 C 112.200 362.584,108.088 373.531,97.081 385.316 C 86.390 396.764,73.610 403.565,62.399 403.772 C 52.320 403.958,48.851 400.422,49.719 390.847 C 50.874 378.111,62.226 363.861,81.920 350.428 C 90.703 344.438,109.342 335.134,110.414 336.206 C 110.873 336.665,111.410 341.367,111.607 346.654 M305.572 348.005 C 302.243 354.532,291.840 363.681,291.840 360.083 C 291.840 358.877,306.665 343.229,307.037 344.043 C 307.181 344.360,306.522 346.143,305.572 348.005 " stroke="none" fill="black" fill-rule="evenodd"></path></svg>