<svg xmlns="http://www.w3.org/2000/svg" width="512" height="512" viewBox="0 0 512 512"><path d="M234.240 32.956 C 219.230 35.085,212.413 36.281,204.800 38.122 C 164.977 47.752,129.137 67.951,99.840 97.278 C 81.024 116.113,68.317 133.929,56.322 158.293 C 45.298 180.684,39.188 199.605,34.828 224.853 C 33.148 234.580,32.908 238.996,32.883 260.693 C 32.864 276.731,33.241 287.993,33.954 292.693 C 40.482 335.702,54.815 370.195,80.051 403.627 C 88.454 414.759,106.966 433.778,117.760 442.368 C 140.721 460.643,177.221 479.573,189.497 479.573 C 193.128 479.573,194.186 479.157,196.919 476.654 L 200.107 473.734 200.362 451.809 L 200.617 429.884 197.375 430.409 C 195.592 430.698,188.362 431.175,181.309 431.469 C 170.080 431.937,167.629 431.787,161.607 430.264 C 150.667 427.498,143.851 423.744,136.475 416.424 C 129.955 409.952,129.465 409.151,121.726 392.301 C 116.240 380.358,108.628 370.662,100.912 365.792 C 96.096 362.751,91.307 357.827,91.307 355.916 C 91.307 352.260,97.757 350.253,104.960 351.666 C 116.694 353.970,127.028 361.845,135.901 375.247 C 145.822 390.232,155.747 397.486,168.876 399.348 C 175.484 400.285,184.397 399.445,192.000 397.167 C 199.217 395.005,201.387 393.643,201.387 391.275 C 201.387 385.308,209.541 367.144,213.248 364.853 C 215.259 363.610,213.973 362.864,208.853 362.305 C 200.867 361.433,184.978 357.731,176.707 354.814 C 137.075 340.835,116.706 310.879,113.559 261.941 C 112.139 239.857,114.632 224.732,122.344 208.640 C 124.368 204.416,127.950 198.420,130.303 195.316 C 132.657 192.212,134.825 189.280,135.121 188.801 C 135.418 188.321,134.878 184.909,133.923 181.218 C 130.328 167.328,131.070 149.624,135.903 133.973 L 137.880 127.573 143.741 127.318 C 154.733 126.839,173.502 133.991,191.895 145.667 L 199.896 150.746 208.108 148.819 C 228.460 144.043,255.508 142.165,275.232 144.160 C 285.658 145.215,305.553 148.750,309.491 150.247 C 311.402 150.973,312.693 150.421,319.708 145.877 C 330.357 138.978,346.967 131.068,355.361 128.898 C 359.086 127.935,364.719 127.147,367.878 127.147 L 373.621 127.147 375.379 132.480 C 380.539 148.128,381.569 166.534,378.069 180.516 L 376.138 188.232 380.932 194.596 C 392.997 210.609,398.507 228.499,398.507 251.654 C 398.507 280.139,392.290 304.118,380.358 321.655 C 376.461 327.383,366.410 337.564,360.400 341.871 C 346.638 351.733,323.909 359.662,301.909 362.275 L 297.045 362.853 300.320 367.240 C 304.397 372.701,306.457 376.789,308.983 384.427 C 310.909 390.248,310.971 391.451,311.426 431.787 C 311.851 469.454,312.029 473.372,313.399 475.388 C 318.209 482.468,328.494 480.673,353.100 468.461 C 375.819 457.185,393.521 444.455,411.793 426.253 C 447.090 391.093,468.215 349.733,477.177 298.240 C 478.893 288.380,479.108 284.300,479.108 261.547 C 479.108 238.851,478.891 234.700,477.193 224.960 C 470.316 185.508,456.648 153.129,433.922 122.453 C 399.304 75.727,349.052 44.760,291.840 34.899 C 283.151 33.401,277.060 33.017,258.987 32.826 C 246.784 32.698,235.648 32.756,234.240 32.956 " stroke="none" fill="black" fill-rule="evenodd"></path></svg>