<svg id="Layer_1" data-name="Layer 1" xmlns="http://www.w3.org/2000/svg" viewBox="0 0 512 512"><path d="M227.797 16.636 C 135.228 27.858,57.279 91.453,27.649 179.927 C 7.948 238.754,12.426 303.624,40.057 359.680 C 52.647 385.222,66.062 404.052,85.714 423.763 C 123.392 461.556,168.141 484.274,221.104 492.500 C 238.752 495.240,272.270 495.263,289.707 492.545 C 351.077 482.982,403.643 452.831,442.415 404.955 C 451.255 394.039,459.947 380.913,459.947 378.480 C 459.947 376.095,456.916 372.422,454.341 371.687 C 453.189 371.358,449.576 372.650,443.929 375.412 C 427.522 383.435,402.317 390.323,381.013 392.604 C 361.102 394.736,331.926 392.400,311.226 387.016 C 277.529 378.251,254.091 365.214,230.964 342.373 C 204.718 316.451,193.236 288.763,194.823 255.222 C 195.602 238.752,198.953 228.837,207.213 218.561 C 231.995 187.733,277.785 186.920,302.651 216.867 C 307.105 222.231,313.395 234.810,314.964 241.493 C 316.417 247.676,316.417 261.204,314.965 267.093 C 312.483 277.165,306.857 287.700,298.796 297.371 C 293.198 304.087,293.961 309.405,301.520 316.373 C 311.854 325.898,334.012 332.551,362.533 334.691 C 424.439 339.335,473.370 308.590,490.485 254.293 C 494.402 241.866,495.369 234.894,495.277 219.733 C 494.956 166.826,472.262 117.427,431.042 79.913 C 392.721 45.036,340.712 22.548,284.786 16.675 C 269.766 15.098,240.652 15.078,227.797 16.636 " stroke="none" fill="black" fill-rule="evenodd"></path></svg>