<svg xmlns="http://www.w3.org/2000/svg" width="512" height="512" viewBox="0 0 512 512"><path d="M239.787 51.200 C 239.787 65.648,239.541 69.974,238.720 69.977 C 235.203 69.990,213.854 73.622,206.784 75.410 C 159.254 87.429,129.630 116.038,121.440 157.830 C 119.635 167.042,119.433 188.967,121.071 197.973 C 126.886 229.948,146.478 254.200,178.633 269.226 C 189.024 274.082,200.474 277.796,222.080 283.318 L 239.787 287.845 239.787 336.776 L 239.787 385.707 237.867 385.694 C 233.483 385.664,221.788 382.054,214.613 378.516 C 198.334 370.490,187.564 357.173,184.934 341.820 L 183.973 336.213 147.807 336.213 L 111.641 336.213 112.215 342.827 C 115.140 376.523,130.143 401.819,157.867 419.799 C 174.836 430.804,200.048 439.222,224.427 442.023 C 228.885 442.536,234.158 443.152,236.143 443.394 L 239.753 443.833 239.983 461.916 L 240.213 480.000 256.000 480.000 L 271.787 480.000 272.017 461.440 L 272.247 442.880 276.283 442.876 C 278.503 442.874,285.321 442.136,291.432 441.237 C 352.563 432.243,389.340 402.143,397.990 354.026 C 403.161 325.258,397.977 296.276,383.947 275.525 C 378.943 268.123,367.913 257.386,359.664 251.886 C 343.567 241.153,326.657 234.795,293.867 227.149 L 272.640 222.198 272.419 176.081 L 272.199 129.963 277.113 130.712 C 300.727 134.313,316.148 148.370,319.303 169.173 L 320.306 175.787 355.993 175.787 L 391.680 175.787 391.680 171.244 C 391.680 168.745,391.060 163.091,390.302 158.680 C 383.220 117.450,353.715 88.150,306.970 75.926 C 298.702 73.764,277.341 69.992,273.280 69.977 C 272.459 69.974,272.213 65.648,272.213 51.200 L 272.213 32.427 256.000 32.427 L 239.787 32.427 239.787 51.200 M239.787 172.779 L 239.787 215.851 237.013 215.320 C 231.873 214.337,219.772 209.792,214.459 206.850 C 201.628 199.745,194.054 188.948,193.106 176.411 C 191.260 152.008,208.648 133.486,236.373 130.321 C 238.016 130.133,239.456 129.918,239.573 129.843 C 239.691 129.768,239.787 149.089,239.787 172.779 M283.361 296.053 C 312.646 302.530,328.615 318.371,328.519 340.850 C 328.495 346.249,326.210 355.762,323.691 360.945 C 317.257 374.182,299.950 383.639,278.953 385.390 L 272.213 385.952 272.213 340.176 L 272.213 294.400 274.133 294.418 C 275.189 294.429,279.342 295.164,283.361 296.053 " stroke="none" fill="black" fill-rule="evenodd"></path></svg>