<svg xmlns="http://www.w3.org/2000/svg" width="512" height="512" viewBox="0 0 512 512"><path d="M329.387 33.643 C 311.319 37.654,292.031 48.437,278.200 62.260 C 258.415 82.033,246.577 110.684,248.724 133.598 L 249.338 140.153 256.177 139.556 C 266.335 138.670,274.949 136.149,285.440 130.992 C 296.653 125.480,303.725 120.267,312.618 110.959 C 323.817 99.238,332.936 83.486,337.359 68.223 C 340.092 58.791,341.638 45.685,340.893 38.267 L 340.307 32.427 337.193 32.514 C 335.481 32.562,331.968 33.070,329.387 33.643 M337.952 137.470 C 326.985 138.463,315.595 141.449,297.667 148.031 C 268.150 158.868,259.453 158.772,225.010 147.226 C 197.924 138.146,196.197 137.803,177.920 137.869 C 165.081 137.915,161.505 138.216,156.134 139.706 C 116.759 150.624,84.019 181.902,71.810 220.263 C 53.814 276.808,67.731 352.039,107.924 415.482 C 131.143 452.134,152.840 472.605,174.507 478.307 C 181.221 480.074,194.556 480.058,201.533 478.274 C 204.503 477.515,212.693 474.452,219.733 471.467 C 226.773 468.483,235.605 465.235,239.360 464.251 C 256.698 459.706,276.677 460.074,292.693 465.234 C 295.744 466.217,302.848 469.033,308.480 471.491 C 325.164 478.774,326.657 479.147,339.200 479.147 C 349.343 479.147,350.873 478.933,357.068 476.654 C 376.329 469.569,394.700 451.341,417.799 416.398 C 428.442 400.297,434.802 388.939,443.243 370.957 L 447.964 360.900 441.438 357.927 C 393.414 336.041,371.257 277.686,392.253 228.384 C 398.875 212.836,412.465 196.769,427.018 187.283 C 431.049 184.655,434.347 182.305,434.347 182.060 C 434.347 180.875,422.950 169.000,417.280 164.278 C 392.673 143.785,366.371 134.896,337.952 137.470 " stroke="none" fill="black" fill-rule="evenodd"></path></svg>