<svg id="Layer_1" data-name="Layer 1" xmlns="http://www.w3.org/2000/svg" viewBox="0 0 512 512"><path d="M58.788 33.660 C 49.131 36.332,39.342 44.255,35.399 52.589 C 34.208 55.105,32.872 59.950,32.430 63.355 C 31.334 71.796,31.353 436.939,32.451 445.393 C 34.721 462.890,49.040 477.399,66.220 479.612 C 74.255 480.648,439.807 480.607,447.791 479.570 C 462.094 477.712,472.668 468.741,478.015 453.927 L 480.000 448.427 480.234 259.840 C 480.384 138.971,480.164 68.518,479.621 63.636 C 478.135 50.290,472.304 41.658,461.002 36.072 L 454.489 32.853 258.604 32.713 C 102.129 32.600,61.929 32.791,58.788 33.660 M369.348 131.627 C 376.339 145.901,378.883 157.777,378.875 176.112 C 378.872 182.738,378.310 191.878,377.625 196.422 C 370.688 242.436,341.103 300.946,288.169 373.333 C 283.021 380.373,278.381 386.415,277.858 386.760 C 276.554 387.619,175.140 387.585,174.609 386.725 C 173.960 385.676,132.785 139.143,133.191 138.744 C 133.387 138.552,148.331 137.002,166.400 135.300 C 184.469 133.598,204.615 131.661,211.168 130.995 C 217.721 130.329,223.193 129.895,223.329 130.031 C 223.464 130.166,228.466 169.701,234.445 217.885 C 240.423 266.070,245.547 305.493,245.832 305.493 C 246.533 305.493,259.092 283.207,264.345 272.640 C 277.186 246.807,286.382 221.047,289.779 201.387 C 290.866 195.097,291.077 190.028,290.722 178.773 C 290.241 163.543,288.654 154.572,284.896 145.838 C 283.894 143.508,283.295 141.380,283.566 141.110 C 284.195 140.480,360.636 124.792,363.643 124.675 C 365.649 124.596,366.284 125.371,369.348 131.627 " stroke="none" fill="black" fill-rule="evenodd"></path></svg>