<svg xmlns="http://www.w3.org/2000/svg" width="512" height="512" viewBox="0 0 512 512"><path d="M299.115 49.085 C 272.707 53.383,249.064 63.926,229.120 80.296 C 225.835 82.993,206.828 101.550,186.883 121.534 L 150.618 157.869 184.521 191.772 L 218.424 225.674 255.772 188.519 C 291.290 153.185,293.419 151.230,299.223 148.614 C 311.530 143.067,322.870 142.227,334.834 145.974 C 354.524 152.141,367.787 170.204,367.787 190.854 C 367.787 199.702,366.092 206.675,362.011 214.613 C 359.281 219.924,354.914 224.634,322.633 257.082 L 286.326 293.577 320.229 327.479 L 354.131 361.381 389.177 326.397 C 408.452 307.156,426.641 288.533,429.596 285.013 C 466.777 240.728,474.402 178.058,448.813 127.067 C 428.863 87.310,392.862 59.750,348.587 50.337 C 337.219 47.921,310.437 47.243,299.115 49.085 M105.168 203.312 L 82.775 225.717 116.699 259.633 L 150.623 293.549 173.227 270.933 L 195.830 248.318 162.132 214.612 C 143.599 196.074,128.238 180.907,127.998 180.907 C 127.758 180.907,117.484 190.989,105.168 203.312 M31.573 319.573 L 31.573 335.360 71.680 335.360 L 111.787 335.360 111.787 319.573 L 111.787 303.787 71.680 303.787 L 31.573 303.787 31.573 319.573 M240.848 338.992 L 218.455 361.397 252.379 395.313 L 286.303 429.229 308.907 406.613 L 331.510 383.998 297.812 350.292 C 279.279 331.754,263.918 316.587,263.678 316.587 C 263.438 316.587,253.164 326.669,240.848 338.992 M95.352 393.182 L 67.406 421.137 78.737 432.444 L 90.068 443.752 117.781 415.985 C 133.023 400.713,145.667 388.024,145.878 387.786 C 146.268 387.349,124.560 365.227,123.741 365.227 C 123.497 365.227,110.722 377.806,95.352 393.182 M175.787 439.467 L 175.787 479.573 192.000 479.573 L 208.213 479.573 208.213 439.467 L 208.213 399.360 192.000 399.360 L 175.787 399.360 175.787 439.467 " stroke="none" fill="black" fill-rule="evenodd"></path></svg>