<svg xmlns="http://www.w3.org/2000/svg" width="512" height="512" viewBox="0 0 512 512"><path d="M314.880 41.537 C 284.440 44.636,257.825 55.563,235.093 74.295 C 226.631 81.268,158.720 149.544,158.720 151.079 C 158.720 152.696,223.638 217.600,225.255 217.600 C 225.917 217.600,242.802 201.357,262.776 181.505 C 301.799 142.721,302.850 141.857,314.886 138.654 C 321.060 137.011,332.533 137.051,339.077 138.739 C 358.403 143.721,372.800 160.932,374.339 180.895 C 375.034 189.910,373.485 197.846,369.340 206.507 C 365.919 213.653,365.341 214.290,330.134 249.651 C 310.480 269.391,294.400 286.090,294.400 286.759 C 294.400 288.366,359.340 353.280,360.948 353.280 C 362.450 353.280,428.830 287.243,436.431 278.187 C 451.759 259.926,462.548 237.663,467.655 213.760 C 469.012 207.410,469.593 200.968,469.928 188.587 C 470.426 170.185,469.141 159.317,464.633 143.787 C 450.320 94.479,408.691 55.715,357.973 44.469 C 344.865 41.562,326.745 40.329,314.880 41.537 M115.446 193.067 C 105.969 202.571,97.813 211.428,97.321 212.749 C 96.041 216.187,96.218 223.265,97.650 225.962 C 99.530 229.501,148.582 277.986,151.309 279.000 C 154.841 280.314,160.975 280.088,164.096 278.529 C 165.598 277.779,174.411 269.623,183.680 260.404 C 196.670 247.485,200.533 243.151,200.533 241.497 C 200.533 238.370,137.942 175.787,134.815 175.787 C 133.172 175.787,128.693 179.783,115.446 193.067 M41.288 305.419 C 37.660 307.066,33.950 311.197,32.847 314.817 C 31.853 318.079,32.244 323.999,33.632 326.681 C 35.282 329.873,40.365 334.307,43.322 335.134 C 44.604 335.493,57.749 335.787,72.533 335.787 C 102.874 335.787,103.501 335.671,108.745 329.094 C 111.079 326.167,111.360 325.197,111.360 320.072 C 111.360 312.908,108.745 308.358,103.040 305.597 C 99.466 303.867,98.096 303.787,72.051 303.805 C 47.281 303.822,44.480 303.969,41.288 305.419 M251.121 328.747 C 241.663 338.251,233.515 347.108,233.015 348.429 C 231.855 351.495,231.848 357.593,233.000 360.691 C 234.014 363.418,282.499 412.470,286.038 414.350 C 288.735 415.782,295.813 415.959,299.251 414.679 C 300.572 414.187,309.429 406.031,318.933 396.554 C 332.253 383.271,336.213 378.831,336.213 377.177 C 336.213 374.033,273.620 311.467,270.475 311.467 C 268.806 311.467,264.433 315.370,251.121 328.747 M117.760 372.951 C 114.694 374.215,77.853 411.124,75.888 414.899 C 74.065 418.402,73.755 423.566,75.148 427.251 C 77.076 432.355,84.447 437.703,89.600 437.737 C 96.183 437.780,97.973 436.452,117.560 417.003 C 129.409 405.238,137.197 396.820,138.253 394.639 C 141.605 387.716,139.636 379.627,133.452 374.910 C 130.980 373.025,129.299 372.500,125.124 372.309 C 122.247 372.178,118.933 372.467,117.760 372.951 M184.175 401.943 C 180.700 403.779,178.256 406.841,176.771 411.221 C 176.112 413.162,175.787 422.773,175.787 440.280 C 175.787 466.432,175.787 466.439,177.905 470.659 C 179.100 473.039,181.345 475.773,183.051 476.928 C 186.647 479.360,193.095 480.189,197.391 478.771 C 201.230 477.504,206.122 472.136,207.298 467.900 C 208.539 463.433,208.505 416.236,207.258 411.733 C 205.949 407.006,203.531 403.885,199.642 401.901 C 195.332 399.702,188.382 399.721,184.175 401.943 " stroke="none" fill="black" fill-rule="evenodd"></path></svg>