<svg xmlns="http://www.w3.org/2000/svg" width="512" height="512" viewBox="0 0 512 512"><path d="M248.320 66.046 C 243.576 68.072,55.684 160.977,43.319 167.410 C 37.822 170.270,36.225 171.586,34.318 174.830 L 32.000 178.773 31.767 304.130 C 31.615 386.352,31.833 431.100,32.402 434.175 C 33.466 439.933,36.606 444.241,41.288 446.367 C 44.688 447.912,51.548 447.963,256.000 447.963 C 460.452 447.963,467.312 447.912,470.712 446.367 C 475.394 444.241,478.534 439.933,479.598 434.175 C 480.167 431.100,480.385 386.352,480.233 304.130 L 480.000 178.773 477.899 175.105 C 476.744 173.087,474.491 170.628,472.894 169.641 C 471.296 168.653,445.170 155.570,414.835 140.567 C 384.500 125.564,338.368 102.740,312.320 89.847 C 286.272 76.954,263.472 65.864,261.653 65.203 C 257.024 63.519,253.749 63.726,248.320 66.046 M342.919 140.768 C 389.908 163.982,428.058 183.270,427.697 183.631 C 426.716 184.612,254.381 269.653,253.375 269.653 C 251.920 269.653,81.827 185.417,81.791 184.678 C 81.746 183.780,255.277 98.029,256.529 98.330 C 257.055 98.457,295.930 117.553,342.919 140.768 " stroke="none" fill="black" fill-rule="evenodd"></path></svg>