<svg xmlns="http://www.w3.org/2000/svg" width="512" height="512" viewBox="0 0 512 512"><path d="M245.820 65.358 C 240.616 66.757,63.516 153.897,56.541 158.490 C 49.890 162.871,41.651 172.233,38.138 179.401 C 31.587 192.770,32.000 184.919,32.000 296.107 C 32.000 375.568,32.227 396.548,33.132 400.640 C 33.755 403.456,35.997 409.365,38.115 413.771 C 46.224 430.640,62.454 442.019,82.056 444.579 C 87.041 445.229,140.555 445.432,260.693 445.255 C 421.210 445.018,432.542 444.906,437.333 443.506 C 454.052 438.621,467.022 428.052,473.924 413.690 C 476.020 409.329,478.245 403.456,478.868 400.640 C 479.773 396.548,480.000 375.568,480.000 296.107 C 480.000 184.919,480.413 192.770,473.862 179.401 C 470.355 172.244,462.126 162.888,455.459 158.476 C 447.861 153.449,271.372 66.729,265.847 65.308 C 259.576 63.695,251.935 63.714,245.820 65.358 M342.975 137.933 C 389.240 160.762,427.449 179.760,427.884 180.153 C 428.331 180.556,421.842 184.172,412.950 188.473 C 404.302 192.657,365.357 211.866,326.405 231.160 C 287.453 250.454,254.615 266.240,253.433 266.240 C 252.250 266.240,219.992 250.768,181.748 231.858 C 143.504 212.948,105.205 194.062,96.640 189.888 C 88.075 185.715,81.067 182.057,81.067 181.760 C 81.067 181.463,84.043 179.824,87.680 178.117 C 91.317 176.410,130.005 157.344,173.653 135.747 C 230.731 107.505,253.834 96.472,255.935 96.453 C 258.100 96.433,280.630 107.171,342.975 137.933 " stroke="none" fill="black" fill-rule="evenodd"></path></svg>