<svg xmlns="http://www.w3.org/2000/svg" width="512" height="512" viewBox="0 0 512 512"><path d="M342.374 18.413 C 334.606 22.284,330.277 29.284,330.277 37.973 C 330.277 46.663,334.606 53.663,342.374 57.534 C 346.521 59.600,347.555 59.733,359.421 59.733 C 366.369 59.733,372.053 60.018,372.053 60.366 C 372.053 60.714,363.963 69.096,354.075 78.992 L 336.097 96.985 327.408 88.339 C 289.158 50.277,235.702 34.446,183.074 45.593 C 150.735 52.442,120.471 70.003,98.408 94.720 C 68.729 127.970,54.179 172.875,58.927 216.567 C 60.941 235.094,65.902 252.186,74.213 269.227 C 82.820 286.875,92.105 299.462,107.354 314.154 C 129.092 335.098,156.104 349.166,185.600 354.905 L 193.280 356.399 193.510 375.320 L 193.739 394.240 177.296 394.259 C 159.393 394.279,157.159 394.745,151.320 399.675 C 141.985 407.555,141.985 424.445,151.320 432.325 C 157.154 437.251,159.402 437.721,177.213 437.741 L 193.573 437.760 193.868 458.453 C 194.106 475.163,194.427 479.734,195.535 482.195 C 203.358 499.581,226.757 500.386,235.740 483.579 C 237.549 480.195,237.668 478.852,237.921 458.880 L 238.188 437.760 254.561 437.752 C 269.910 437.744,271.200 437.619,275.206 435.754 C 283.194 432.034,287.573 425.039,287.573 416.000 C 287.573 406.961,283.194 399.966,275.206 396.246 C 271.198 394.380,269.913 394.256,254.490 394.248 L 238.047 394.240 238.277 375.279 L 238.507 356.318 244.892 355.249 C 273.775 350.415,304.832 334.156,326.726 312.406 C 350.572 288.715,364.931 261.356,371.780 226.560 C 373.686 216.879,373.947 185.664,372.204 175.787 C 370.418 165.660,366.255 150.595,363.038 142.618 L 360.083 135.289 381.641 113.714 L 403.200 92.138 403.697 104.736 C 404.146 116.118,404.411 117.757,406.441 121.727 C 414.803 138.078,437.158 137.765,445.984 121.173 C 447.474 118.374,447.573 115.483,447.573 75.093 L 447.573 32.000 445.089 27.516 C 442.384 22.634,438.362 19.096,433.570 17.383 C 431.241 16.551,420.475 16.279,388.648 16.251 L 346.788 16.213 342.374 18.413 M243.206 89.403 C 271.599 96.734,294.732 112.928,310.514 136.523 C 323.598 156.084,329.684 176.270,329.684 200.107 C 329.684 254.448,292.909 299.592,238.864 311.594 C 226.128 314.422,205.659 314.422,192.923 311.594 C 146.074 301.190,111.746 265.555,103.708 218.982 C 102.008 209.134,102.021 190.380,103.734 180.480 C 110.180 143.232,135.336 111.092,169.976 95.847 C 186.837 88.426,198.908 86.133,218.880 86.559 C 231.577 86.829,234.611 87.184,243.206 89.403 " stroke="none" fill="black" fill-rule="evenodd"></path></svg>