<svg xmlns="http://www.w3.org/2000/svg" width="512" height="512" viewBox="0 0 512 512"><path d="M244.480 1.203 C 233.306 3.780,224.285 8.746,216.560 16.576 C 207.416 25.842,202.353 36.206,200.555 49.334 C 197.024 75.123,213.723 101.237,238.933 109.350 C 246.676 111.842,260.454 112.410,268.373 110.564 C 296.332 104.048,315.287 76.923,311.402 48.989 C 308.342 26.990,294.193 9.920,273.149 2.839 C 265.142 0.144,252.258 -0.591,244.480 1.203 M165.973 129.757 C 159.295 131.923,153.498 136.281,149.714 141.981 C 143.951 150.660,144.213 146.112,144.213 237.362 L 144.213 320.000 168.107 320.000 L 192.000 320.000 192.000 256.000 L 192.000 192.000 195.840 192.000 L 199.680 192.000 199.680 352.000 L 199.680 512.000 225.703 512.000 L 251.726 512.000 251.943 420.053 L 252.160 328.107 256.000 328.107 L 259.840 328.107 260.057 420.053 L 260.274 512.000 286.297 512.000 L 312.320 512.000 312.320 352.000 L 312.320 192.000 316.160 192.000 L 320.000 192.000 320.000 256.000 L 320.000 320.000 343.893 320.000 L 367.787 320.000 367.787 237.362 C 367.787 146.112,368.049 150.660,362.286 141.981 C 358.432 136.176,352.656 131.897,345.723 129.711 C 340.444 128.045,338.063 128.001,255.697 128.048 C 174.264 128.094,170.901 128.158,165.973 129.757 " stroke="none" fill="black" fill-rule="evenodd"></path></svg>