<svg xmlns="http://www.w3.org/2000/svg" width="512" height="512" viewBox="0 0 512 512"><path d="M403.692 81.556 C 361.511 108.988,327.716 130.429,327.057 130.176 C 326.409 129.927,293.991 109.322,255.019 84.388 L 184.159 39.052 175.920 44.648 C 171.388 47.725,137.152 71.344,99.840 97.134 L 32.000 144.026 31.785 311.892 C 31.612 446.084,31.783 479.675,32.638 479.345 C 33.226 479.118,67.304 457.107,108.368 430.430 C 149.431 403.754,183.622 381.928,184.347 381.928 C 185.072 381.928,217.652 402.390,256.746 427.400 C 295.841 452.410,328.274 472.669,328.820 472.419 C 329.366 472.170,363.605 448.582,404.907 420.001 L 480.000 368.037 480.215 200.232 C 480.334 107.939,480.142 32.439,479.789 32.455 C 479.436 32.470,445.192 54.566,403.692 81.556 M256.425 127.236 L 312.320 163.166 312.320 292.001 C 312.320 364.225,311.995 420.711,311.581 420.551 C 311.175 420.395,285.831 404.183,255.261 384.525 L 199.680 348.784 199.680 220.045 C 199.680 149.239,199.871 91.307,200.105 91.307 C 200.339 91.307,225.683 107.475,256.425 127.236 " stroke="none" fill="black" fill-rule="evenodd"></path></svg>