<svg xmlns="http://www.w3.org/2000/svg" width="512" height="512" viewBox="0 0 512 512"><path d="M176.065 32.838 C 172.698 33.449,167.898 34.895,165.398 36.052 C 158.749 39.129,46.379 114.731,41.562 119.368 C 36.434 124.304,33.557 130.136,32.460 137.813 C 31.395 145.269,31.305 432.257,32.364 440.473 C 33.857 452.044,40.246 461.222,50.227 466.133 C 55.409 468.683,56.519 468.904,63.985 468.879 C 70.347 468.858,72.939 468.469,75.947 467.087 C 78.059 466.117,102.059 450.769,129.280 432.982 L 178.773 400.640 184.320 400.640 L 189.867 400.640 246.885 437.934 C 278.329 458.501,305.961 475.997,308.490 476.944 C 311.013 477.888,316.346 479.066,320.341 479.563 C 328.701 480.601,336.570 479.391,344.217 475.890 C 351.132 472.724,465.830 397.067,470.438 392.631 C 475.704 387.563,478.506 381.756,479.544 373.758 C 480.599 365.628,480.667 79.529,479.617 71.373 C 478.124 59.791,471.228 50.182,460.949 45.364 C 456.750 43.395,455.029 43.097,448.000 43.121 C 441.635 43.142,439.068 43.529,436.053 44.921 C 433.941 45.896,409.941 61.244,382.720 79.027 L 333.227 111.360 327.680 111.360 L 322.133 111.360 282.027 85.675 C 259.968 71.548,234.240 55.069,224.853 49.055 C 205.011 36.342,201.101 34.397,192.183 32.807 C 184.355 31.411,183.926 31.412,176.065 32.838 M253.503 105.403 C 281.863 123.574,306.699 139.150,308.693 140.017 L 312.320 141.593 312.320 291.810 C 312.320 374.429,312.163 442.027,311.972 442.027 C 311.780 442.027,287.876 426.561,258.852 407.659 C 229.827 388.758,204.640 372.636,202.880 371.833 L 199.680 370.374 199.680 220.936 C 199.680 97.310,199.875 71.572,200.809 71.931 C 201.431 72.169,225.143 87.231,253.503 105.403 M168.107 221.774 L 168.107 371.015 164.907 372.309 C 163.147 373.021,139.887 387.846,113.218 405.255 C 86.550 422.663,64.566 436.907,64.365 436.907 C 64.164 436.907,64.000 370.495,64.000 289.326 L 64.000 141.746 115.413 107.186 C 143.691 88.178,167.115 72.606,167.467 72.580 C 167.819 72.554,168.107 139.692,168.107 221.774 M448.000 222.635 L 448.000 370.176 397.013 403.689 C 368.971 422.121,345.547 437.567,344.960 438.012 C 344.108 438.660,343.893 408.914,343.893 289.963 L 343.893 141.104 347.947 139.231 C 350.176 138.200,373.312 123.384,399.360 106.305 C 425.408 89.227,447.008 75.217,447.360 75.173 C 447.712 75.129,448.000 141.487,448.000 222.635 " stroke="none" fill="black" fill-rule="evenodd"></path></svg>