<svg xmlns="http://www.w3.org/2000/svg" width="512" height="512" viewBox="0 0 512 512"><path d="M151.893 42.458 C 132.897 54.938,43.544 116.570,41.235 118.787 C 36.595 123.239,33.334 130.458,32.372 138.407 C 31.818 142.979,31.600 198.479,31.757 294.827 L 32.000 444.160 33.992 449.094 C 40.689 465.687,58.358 473.958,74.750 468.174 C 76.664 467.499,97.205 454.553,120.395 439.406 C 170.017 406.996,166.092 409.709,167.223 407.040 C 167.852 405.555,168.059 349.897,167.904 223.810 L 167.680 42.714 165.922 40.956 C 164.956 39.990,162.844 38.986,161.229 38.726 C 158.735 38.325,157.331 38.886,151.893 42.458 M203.733 39.283 C 199.457 41.885,199.680 31.713,199.680 224.412 C 199.680 372.747,199.878 404.155,200.829 406.427 C 201.795 408.737,209.847 414.293,251.491 441.387 C 302.873 474.816,303.520 475.173,308.182 472.678 C 312.516 470.358,312.320 479.150,312.320 287.301 C 312.320 161.185,312.048 107.848,311.395 105.975 C 310.606 103.711,303.257 98.601,261.262 71.113 C 220.226 44.252,211.486 38.859,208.640 38.638 C 206.763 38.493,204.555 38.783,203.733 39.283 M438.613 43.410 C 432.268 45.445,346.219 101.644,344.850 104.647 C 343.428 107.769,343.489 465.806,344.913 468.931 C 346.024 471.368,349.603 473.600,352.404 473.600 C 353.376 473.600,361.171 468.852,369.726 463.050 C 395.212 445.763,463.501 398.896,467.445 395.985 C 471.986 392.633,475.518 387.832,478.052 381.564 L 480.000 376.747 480.000 222.293 L 480.000 67.840 478.018 62.932 C 471.473 46.722,454.503 38.315,438.613 43.410 " stroke="none" fill="black" fill-rule="evenodd"></path></svg>