<svg xmlns="http://www.w3.org/2000/svg" width="512" height="512" viewBox="0 0 512 512"><path d="M232.127 49.155 C 222.998 51.608,215.115 58.084,210.953 66.549 L 208.640 71.253 208.399 119.003 C 208.184 161.637,208.010 166.917,206.773 168.283 C 206.012 169.125,204.880 169.813,204.259 169.813 C 203.638 169.813,186.129 159.966,165.351 147.929 C 144.573 135.893,125.929 125.310,123.920 124.411 C 118.486 121.980,109.794 121.493,103.663 123.275 C 97.779 124.985,90.962 129.296,87.815 133.296 C 83.620 138.627,66.492 169.398,65.138 174.035 C 62.067 184.556,65.892 197.621,74.191 204.958 C 76.482 206.983,95.666 218.624,116.822 230.827 C 138.623 243.401,155.501 253.660,155.781 254.507 C 156.053 255.328,156.053 256.672,155.781 257.493 C 155.501 258.341,138.627 268.572,116.726 281.173 C 73.556 306.011,70.140 308.514,66.623 317.873 C 61.801 330.704,62.974 336.202,75.073 357.473 C 88.190 380.531,90.010 382.743,99.552 387.213 C 103.755 389.182,105.667 389.547,111.787 389.547 C 116.836 389.547,120.190 389.076,122.823 387.998 C 124.904 387.145,143.804 376.489,164.822 364.318 C 185.841 352.146,203.599 342.187,204.285 342.187 C 204.970 342.187,206.135 342.790,206.872 343.528 C 208.059 344.714,208.213 350.231,208.213 391.336 C 208.213 435.291,208.304 438.060,209.885 442.559 C 212.908 451.159,219.903 458.289,228.861 461.901 C 232.926 463.539,235.384 463.757,252.998 464.041 C 265.792 464.248,274.394 464.010,277.744 463.357 C 287.721 461.413,296.167 454.949,300.875 445.653 L 303.360 440.747 303.787 392.288 C 304.238 341.000,304.134 342.241,307.984 342.200 C 308.650 342.193,326.742 352.337,348.188 364.743 C 373.156 379.185,388.971 387.818,392.155 388.744 C 402.814 391.843,414.804 388.296,422.641 379.727 C 427.668 374.230,444.758 344.929,446.828 338.258 C 449.930 328.264,446.351 315.128,438.446 307.493 C 436.144 305.270,420.605 295.756,396.800 281.995 C 375.915 269.922,358.104 259.361,357.221 258.526 C 353.484 254.994,354.495 254.255,395.151 230.827 C 416.327 218.624,435.525 206.983,437.813 204.958 C 446.432 197.331,450.161 183.712,446.543 173.077 C 444.041 165.726,426.845 136.086,422.400 131.465 C 414.547 123.299,401.162 119.900,390.827 123.446 C 388.245 124.332,368.776 135.127,347.561 147.435 C 326.347 159.743,308.454 169.813,307.800 169.813 C 307.146 169.813,305.988 169.125,305.227 168.283 C 303.990 166.917,303.816 161.637,303.601 119.003 L 303.360 71.253 300.903 66.403 C 296.369 57.455,288.515 51.148,279.166 48.948 C 272.206 47.310,238.440 47.458,232.127 49.155 " stroke="none" fill="black" fill-rule="evenodd"></path></svg>