<svg xmlns="http://www.w3.org/2000/svg" width="512" height="512" viewBox="0 0 512 512"><path d="M90.997 48.998 C 82.064 52.287,77.885 61.838,81.526 70.641 C 82.462 72.904,131.086 122.082,251.126 242.171 C 343.684 334.768,421.141 411.694,423.253 413.119 C 426.743 415.473,427.607 415.682,432.734 415.407 C 437.351 415.159,438.956 414.661,441.574 412.665 C 445.096 409.978,447.955 404.610,447.977 400.640 C 448.020 392.693,457.649 402.746,276.198 221.308 C 182.721 127.838,105.032 50.761,103.556 50.026 C 99.530 48.020,94.722 47.627,90.997 48.998 M244.958 48.656 C 228.368 50.979,212.871 58.641,200.256 70.757 C 194.767 76.029,187.733 85.306,187.733 87.274 C 187.733 88.836,208.486 109.227,210.075 109.227 C 211.055 109.227,212.406 107.630,213.866 104.747 C 215.113 102.283,218.864 97.536,222.200 94.199 C 231.844 84.553,242.381 80.213,256.157 80.213 C 260.098 80.213,265.575 80.800,268.329 81.518 C 280.717 84.744,292.345 93.855,298.133 104.868 C 303.736 115.531,303.787 116.049,303.787 162.477 L 303.787 204.276 318.650 219.207 C 331.571 232.187,333.690 233.992,334.863 233.018 C 336.068 232.019,336.213 226.224,336.213 179.286 C 336.213 127.253,335.826 118.062,333.206 108.007 C 325.976 80.249,303.379 57.684,275.809 50.690 C 266.509 48.331,253.435 47.469,244.958 48.656 M121.565 193.604 C 117.356 195.516,113.856 199.515,112.678 203.760 C 111.534 207.877,111.532 240.922,112.674 252.968 C 117.171 300.394,144.248 342.115,185.703 365.492 C 201.190 374.226,216.920 379.549,236.587 382.710 L 239.787 383.224 239.787 407.459 L 239.787 431.694 213.973 431.954 C 190.551 432.189,187.854 432.365,184.861 433.851 C 180.806 435.864,176.965 440.989,176.224 445.376 C 174.945 452.948,180.226 461.338,187.504 463.298 C 190.016 463.975,210.446 464.186,257.446 464.020 C 320.933 463.797,323.984 463.715,327.139 462.149 C 331.194 460.136,335.035 455.011,335.776 450.624 C 337.038 443.152,331.803 434.718,324.674 432.738 C 322.562 432.152,312.013 431.794,296.747 431.791 L 272.213 431.787 272.213 407.505 L 272.213 383.224 275.413 382.697 C 291.161 380.105,303.699 376.431,316.160 370.756 C 323.964 367.202,325.973 365.666,325.973 363.257 C 325.973 361.429,307.951 342.540,305.450 341.746 C 304.663 341.496,301.023 342.491,297.362 343.958 C 284.533 349.095,275.693 350.865,260.447 351.353 C 245.233 351.839,238.023 351.070,225.943 347.675 C 208.929 342.893,192.772 333.731,179.418 321.293 C 163.238 306.224,151.599 285.558,146.245 262.393 C 145.215 257.936,144.729 249.697,144.326 229.831 L 143.787 203.236 141.215 199.538 C 138.250 195.274,132.495 191.991,128.033 192.019 C 126.372 192.029,123.461 192.742,121.565 193.604 M377.565 193.604 C 373.356 195.516,369.856 199.515,368.678 203.760 C 368.182 205.542,367.787 216.284,367.775 228.267 C 367.755 247.321,367.136 257.040,365.537 263.411 C 365.093 265.184,366.660 267.123,376.842 277.399 C 383.376 283.993,389.231 289.219,389.934 289.084 C 392.854 288.522,397.945 268.467,399.415 251.733 C 399.930 245.867,400.225 232.555,400.069 222.151 L 399.787 203.235 397.215 199.538 C 394.250 195.274,388.495 191.991,384.033 192.019 C 382.372 192.029,379.461 192.742,377.565 193.604 M176.811 215.211 C 175.529 216.492,175.432 240.054,176.673 248.747 C 179.400 267.846,186.623 282.561,199.833 295.929 C 218.658 314.979,243.622 323.152,269.328 318.682 C 281.385 316.586,281.460 316.992,266.197 301.672 L 253.013 288.438 246.437 286.770 C 235.993 284.121,230.771 281.159,223.071 273.517 C 215.393 265.897,211.973 259.930,209.169 249.257 L 207.509 242.941 193.151 228.564 C 185.253 220.656,178.577 214.187,178.313 214.187 C 178.050 214.187,177.374 214.647,176.811 215.211 " stroke="none" fill="black" fill-rule="evenodd"></path></svg>