<svg xmlns="http://www.w3.org/2000/svg" width="512" height="512" viewBox="0 0 512 512"><path d="M243.627 48.295 C 200.707 51.540,163.787 65.309,129.707 90.781 C 119.276 98.577,98.579 119.277,90.713 129.782 C 68.255 159.772,54.418 193.768,49.413 231.253 C 48.019 241.696,48.019 270.304,49.413 280.747 C 59.554 356.698,107.829 420.063,177.067 448.304 C 203.509 459.089,227.771 463.751,256.853 463.634 C 290.198 463.499,318.398 456.932,347.733 442.471 C 410.837 411.362,453.091 351.864,462.587 280.747 C 463.981 270.304,463.981 241.696,462.587 231.253 C 453.091 160.136,410.837 100.638,347.733 69.529 C 327.592 59.600,306.356 53.073,283.994 49.939 C 275.010 48.680,251.306 47.715,243.627 48.295 M275.447 81.114 C 347.484 88.943,408.291 141.727,426.231 212.001 C 448.394 298.823,402.945 387.270,319.249 420.197 C 293.994 430.132,262.077 434.038,234.686 430.544 C 145.853 419.214,80.213 345.046,80.213 256.000 C 80.213 167.651,145.919 92.766,233.311 81.514 C 244.096 80.125,264.562 79.931,275.447 81.114 M246.187 128.993 C 233.750 131.330,220.082 141.611,214.040 153.173 C 208.334 164.093,208.213 165.220,208.213 207.655 C 208.213 231.926,208.552 247.311,209.149 250.198 C 210.880 258.559,215.585 266.962,222.208 273.519 C 232.134 283.347,242.294 287.573,256.000 287.573 C 269.768 287.573,280.096 283.299,289.792 273.588 C 296.411 266.959,301.131 258.504,302.851 250.198 C 303.449 247.309,303.782 232.059,303.774 207.958 C 303.760 165.737,303.561 163.850,298.011 153.261 C 288.412 134.949,267.242 125.035,246.187 128.993 M171.251 209.081 C 167.549 210.192,163.395 213.751,161.613 217.338 C 160.164 220.256,160.014 222.498,160.134 239.360 C 160.256 256.455,160.462 258.879,162.435 266.469 C 170.618 297.935,198.328 323.835,233.387 332.785 L 239.360 334.309 239.602 343.368 L 239.844 352.427 229.789 352.428 C 218.244 352.430,215.534 353.346,211.261 358.693 C 208.920 361.622,208.640 362.585,208.640 367.715 C 208.640 374.879,211.255 379.428,216.960 382.190 C 220.585 383.945,221.771 384.000,256.000 384.000 C 290.229 384.000,291.415 383.945,295.040 382.190 C 300.745 379.428,303.360 374.879,303.360 367.715 C 303.360 362.585,303.080 361.622,300.739 358.693 C 296.466 353.346,293.756 352.430,282.211 352.428 L 272.156 352.427 272.398 343.368 L 272.640 334.309 278.613 332.785 C 307.529 325.403,331.413 306.714,343.893 281.703 C 349.506 270.455,351.463 261.201,352.098 242.903 C 352.711 225.273,351.915 218.901,348.548 214.487 C 341.362 205.065,326.604 206.984,321.604 217.991 C 320.267 220.934,320.035 223.760,320.019 237.261 C 319.998 254.810,319.177 259.725,314.809 268.445 C 307.371 283.294,290.809 296.181,272.462 301.396 C 263.077 304.063,248.871 304.048,239.408 301.360 C 221.435 296.255,204.530 283.094,197.230 268.522 C 192.821 259.721,192.002 254.844,191.981 237.261 C 191.965 223.707,191.737 220.951,190.387 218.027 C 186.876 210.419,179.024 206.748,171.251 209.081 " stroke="none" fill="black" fill-rule="evenodd"></path></svg>