<svg xmlns="http://www.w3.org/2000/svg" width="512" height="512" viewBox="0 0 512 512"><path d="M243.200 48.291 C 189.307 52.936,145.591 72.806,109.198 109.198 C 75.814 142.582,55.864 183.304,49.403 231.253 C 47.996 241.696,47.996 270.304,49.403 280.747 C 55.866 328.705,75.852 369.495,109.198 402.781 C 142.761 436.282,182.341 455.687,231.253 462.621 C 235.243 463.187,246.379 463.649,256.000 463.649 C 284.931 463.649,308.731 459.018,334.933 448.289 C 361.056 437.593,386.578 420.224,405.701 400.129 C 437.387 366.832,455.931 327.939,462.621 280.747 C 463.187 276.757,463.649 265.621,463.649 256.000 C 463.649 227.171,459.011 203.251,448.395 177.325 C 432.022 137.342,403.062 103.108,365.227 79.011 C 343.385 65.100,312.181 53.926,283.992 49.922 C 275.151 48.666,250.352 47.675,243.200 48.291 M271.462 130.768 C 279.510 133.702,284.498 136.852,290.087 142.529 C 295.784 148.315,300.656 157.067,302.475 164.781 C 304.376 172.848,304.387 243.902,302.488 251.341 C 298.218 268.068,284.553 282.043,268.338 286.267 C 262.025 287.911,250.179 287.934,244.092 286.314 C 227.168 281.810,213.853 268.344,209.512 251.341 C 207.613 243.902,207.624 172.848,209.525 164.781 C 213.770 146.773,229.362 132.205,248.320 128.533 C 253.469 127.535,265.887 128.735,271.462 130.768 M181.562 209.534 C 185.779 211.296,188.481 213.896,190.387 218.027 C 191.729 220.935,191.967 223.712,191.994 236.800 C 192.038 258.627,194.196 266.120,203.926 278.244 C 214.622 291.572,229.240 300.031,246.599 302.938 C 272.394 307.259,304.735 290.608,315.390 267.520 C 319.213 259.237,319.999 254.102,320.019 237.261 C 320.035 223.760,320.267 220.934,321.604 217.991 C 325.821 208.708,336.868 205.575,345.013 211.351 C 351.250 215.774,351.574 217.137,351.567 238.920 C 351.562 255.140,351.297 259.236,349.865 265.211 C 345.571 283.119,335.653 298.622,320.323 311.386 C 308.008 321.639,293.545 329.069,278.899 332.665 L 272.640 334.202 272.398 343.314 L 272.156 352.427 282.638 352.430 C 294.481 352.433,296.536 353.161,300.914 358.901 C 303.040 361.687,303.360 362.850,303.360 367.783 C 303.360 374.874,300.724 379.438,295.040 382.190 C 291.415 383.945,290.229 384.000,256.000 384.000 C 221.771 384.000,220.585 383.945,216.960 382.190 C 208.009 377.857,205.332 365.273,211.795 357.911 C 216.087 353.024,218.015 352.427,229.504 352.427 L 239.787 352.427 239.787 343.440 C 239.787 336.996,239.485 334.359,238.720 334.122 C 238.133 333.939,234.005 332.785,229.547 331.557 C 201.560 323.848,175.000 300.989,165.646 276.559 C 160.968 264.341,160.308 259.245,160.594 237.550 L 160.853 217.889 163.314 214.665 C 167.690 208.932,175.121 206.842,181.562 209.534 " stroke="none" fill="black" fill-rule="evenodd"></path></svg>