<svg xmlns="http://www.w3.org/2000/svg" width="512" height="512" viewBox="0 0 512 512"><path d="M243.200 48.291 C 189.307 52.936,145.591 72.806,109.198 109.198 C 75.814 142.582,55.864 183.304,49.403 231.253 C 47.996 241.696,47.996 270.304,49.403 280.747 C 55.866 328.705,75.852 369.495,109.198 402.781 C 142.761 436.282,182.341 455.687,231.253 462.621 C 235.243 463.187,246.379 463.649,256.000 463.649 C 265.621 463.649,276.757 463.187,280.747 462.621 C 314.691 457.809,342.801 447.502,369.187 430.191 C 383.273 420.949,391.318 414.386,403.226 402.422 C 436.292 369.200,455.726 329.388,462.621 280.747 C 463.187 276.757,463.649 265.621,463.649 256.000 C 463.649 227.171,459.011 203.251,448.395 177.325 C 432.038 137.382,403.024 103.084,365.227 79.011 C 343.385 65.100,312.181 53.926,283.992 49.922 C 275.151 48.666,250.352 47.675,243.200 48.291 M284.587 82.312 C 303.934 85.816,321.715 91.831,337.686 100.275 C 409.692 138.344,446.123 219.639,426.573 298.627 C 418.903 329.618,403.238 357.185,380.211 380.211 C 353.891 406.531,322.251 422.896,284.587 429.669 C 272.346 431.871,248.402 432.292,234.667 430.548 C 177.098 423.237,127.329 388.863,100.311 337.752 C 73.549 287.128,73.547 225.067,100.305 174.286 C 109.013 157.761,118.535 144.951,132.186 131.398 C 159.724 104.058,194.368 86.914,232.960 81.529 C 244.664 79.896,273.673 80.336,284.587 82.312 M152.890 128.978 C 145.611 132.581,142.222 142.252,145.681 149.551 C 146.517 151.313,191.138 200.800,244.840 259.522 C 316.946 338.368,343.272 366.621,345.506 367.554 C 350.353 369.579,357.671 368.675,361.497 365.578 C 367.574 360.660,369.454 353.075,366.271 346.317 C 365.462 344.599,320.888 295.185,267.217 236.507 C 188.437 150.377,168.990 129.563,166.293 128.483 C 161.702 126.646,157.270 126.810,152.890 128.978 M248.320 128.533 C 235.724 130.975,223.731 138.476,217.153 148.028 C 214.028 152.566,213.897 152.997,215.070 154.924 C 217.628 159.129,300.001 249.053,301.349 249.112 C 302.120 249.146,302.984 248.566,303.269 247.824 C 303.554 247.081,303.781 229.321,303.774 208.357 C 303.760 165.770,303.559 163.835,298.078 153.404 C 290.259 138.525,275.139 129.065,258.133 128.414 C 253.909 128.252,249.493 128.306,248.320 128.533 M169.813 209.170 C 167.055 210.267,163.214 213.928,161.417 217.173 C 160.208 219.357,160.013 222.492,160.091 238.507 C 160.192 259.208,161.310 266.346,166.316 278.260 C 176.411 302.288,202.199 324.024,229.547 331.557 C 234.005 332.785,238.133 333.939,238.720 334.122 C 239.485 334.359,239.787 336.996,239.787 343.440 L 239.787 352.427 229.747 352.427 C 218.303 352.427,215.621 353.347,211.221 358.782 C 208.920 361.626,208.640 362.595,208.640 367.715 C 208.640 374.879,211.255 379.428,216.960 382.190 C 220.585 383.945,221.771 384.000,256.000 384.000 C 290.229 384.000,291.415 383.945,295.040 382.190 C 300.745 379.428,303.360 374.879,303.360 367.715 C 303.360 362.595,303.080 361.626,300.779 358.782 C 296.377 353.344,293.700 352.427,282.224 352.427 L 272.156 352.427 272.398 343.319 L 272.640 334.212 277.580 333.091 C 283.175 331.822,285.867 330.589,285.867 329.293 C 285.867 328.806,280.823 322.867,274.658 316.097 L 263.448 303.787 257.239 303.787 C 245.584 303.787,231.715 300.026,222.233 294.295 C 208.938 286.259,197.675 272.661,193.695 259.840 C 193.074 257.840,192.416 248.624,192.104 237.579 L 191.573 218.731 189.131 215.209 C 185.041 209.309,176.321 206.583,169.813 209.170 M328.829 209.969 C 326.880 210.934,324.192 213.300,322.856 215.228 L 320.427 218.732 319.907 238.006 C 319.509 252.796,319.062 258.149,317.987 261.014 C 317.217 263.068,316.587 265.267,316.587 265.902 C 316.587 267.680,336.908 289.707,338.548 289.707 C 340.733 289.707,346.941 276.640,349.433 266.796 C 351.139 260.057,351.667 255.324,352.098 242.903 C 352.711 225.264,351.915 218.901,348.543 214.480 C 343.968 208.482,335.670 206.583,328.829 209.969 M208.632 247.680 C 211.799 263.528,221.223 276.139,234.919 282.852 C 241.479 286.067,246.613 287.490,246.613 286.091 C 246.613 284.902,210.059 244.907,208.972 244.907 C 208.418 244.907,208.289 245.963,208.632 247.680 " stroke="none" fill="black" fill-rule="evenodd"></path></svg>