<svg xmlns="http://www.w3.org/2000/svg" width="512" height="512" viewBox="0 0 512 512"><path d="M158.652 38.656 C 137.074 49.580,121.125 60.919,103.799 77.653 C 66.003 114.158,43.483 158.217,34.356 213.516 C 33.221 220.386,32.905 227.855,32.899 247.893 C 32.891 276.522,33.812 284.525,39.701 306.990 C 50.307 347.448,72.374 385.160,102.508 414.328 C 131.539 442.427,166.512 462.207,205.010 472.299 C 227.275 478.135,235.530 479.096,263.680 479.123 C 291.314 479.149,298.915 478.385,319.147 473.545 C 361.733 463.358,397.845 443.749,428.264 414.293 C 448.695 394.510,464.672 372.395,475.913 348.342 C 479.415 340.846,479.721 339.671,479.414 334.861 C 479.150 330.703,478.567 328.920,476.652 326.410 C 472.265 320.658,464.894 318.685,457.813 321.368 C 439.499 328.307,425.058 331.966,407.893 334.015 C 367.803 338.801,333.567 334.610,299.996 320.807 C 255.456 302.494,218.250 267.782,197.146 224.853 C 189.931 210.177,185.942 199.487,182.226 184.869 C 177.557 166.502,176.302 155.735,176.346 134.400 C 176.403 106.561,179.716 84.858,187.007 64.554 C 191.877 50.995,192.529 47.798,191.279 43.625 C 189.129 36.448,183.494 32.427,175.590 32.427 C 171.529 32.427,169.439 33.195,158.652 38.656 " stroke="none" fill="black" fill-rule="evenodd"></path></svg>