<svg xmlns="http://www.w3.org/2000/svg" width="512" height="512" viewBox="0 0 512 512"><path d="M162.560 36.588 C 105.233 64.069,61.103 116.209,42.253 178.734 C 38.367 191.623,34.531 210.801,33.226 223.860 C 31.716 238.974,32.617 271.499,34.921 285.013 C 43.455 335.086,66.554 379.395,102.104 413.888 C 137.066 447.810,178.616 468.835,226.987 477.079 C 240.614 479.402,273.102 480.289,288.140 478.749 C 335.751 473.872,381.229 454.792,416.853 424.749 C 441.121 404.283,462.980 376.017,475.871 348.430 C 479.417 340.843,479.721 339.678,479.414 334.861 C 479.150 330.703,478.567 328.920,476.652 326.410 C 472.259 320.650,464.870 318.679,457.813 321.383 C 430.777 331.747,408.469 335.681,376.747 335.682 C 343.491 335.683,316.923 329.583,288.000 315.309 C 228.115 285.752,187.401 229.688,178.003 163.840 C 173.303 130.909,177.385 88.758,187.893 61.715 C 191.750 51.789,192.509 47.732,191.279 43.625 C 189.130 36.453,183.461 32.401,175.658 32.462 C 172.007 32.491,169.386 33.316,162.560 36.588 M147.303 91.912 C 135.143 172.406,157.992 245.795,212.043 299.846 C 256.105 343.907,313.869 367.787,376.391 367.787 C 391.894 367.787,413.105 366.140,423.907 364.097 C 427.302 363.455,430.080 363.184,430.080 363.494 C 430.080 365.078,414.637 382.989,406.513 390.827 C 352.177 443.254,272.869 461.330,200.960 437.678 C 129.603 414.207,77.696 352.215,65.986 276.480 C 64.096 264.260,63.869 233.035,65.586 221.440 C 72.591 174.111,91.424 135.463,122.807 104.009 C 132.863 93.930,147.493 81.502,148.324 82.333 C 148.528 82.536,148.068 86.847,147.303 91.912 " stroke="none" fill="black" fill-rule="evenodd"></path></svg>