<svg xmlns="http://www.w3.org/2000/svg" width="512" height="512" viewBox="0 0 512 512"><path d="M386.560 36.258 C 379.285 38.254,333.806 50.526,285.495 63.529 C 235.798 76.906,195.841 88.092,193.474 89.291 C 184.904 93.634,178.539 102.332,176.716 112.191 C 176.075 115.660,175.787 152.924,175.787 232.291 C 175.787 328.103,175.590 347.821,174.612 350.107 C 172.092 355.997,170.050 357.003,138.166 368.073 C 121.529 373.849,106.004 379.683,103.665 381.038 C 97.279 384.737,89.572 392.939,85.965 399.875 C 81.972 407.550,80.242 414.881,80.226 424.183 C 80.168 457.593,109.198 483.576,142.002 479.476 C 149.477 478.542,174.420 470.112,183.035 465.608 C 190.093 461.918,198.602 453.253,202.420 445.867 C 208.436 434.229,208.213 439.167,208.213 317.442 C 208.213 210.246,208.246 208.082,209.901 204.838 C 213.180 198.410,207.867 200.182,288.000 178.785 C 311.936 172.393,345.874 163.315,363.418 158.611 C 382.040 153.617,396.115 150.258,397.236 150.539 C 398.292 150.804,399.389 151.890,399.673 152.951 C 399.957 154.012,400.195 187.052,400.202 226.374 C 400.214 303.738,400.357 301.207,395.693 306.203 C 392.925 309.167,392.031 309.537,361.387 320.410 C 345.899 325.905,331.115 331.586,328.533 333.033 C 322.292 336.534,313.389 345.671,310.049 352.005 C 305.576 360.487,304.263 366.185,304.351 376.747 C 304.485 392.990,309.903 405.478,321.700 416.735 C 328.899 423.605,337.441 428.340,346.453 430.458 C 353.432 432.098,364.952 432.134,371.627 430.536 C 378.926 428.789,403.981 419.439,408.650 416.719 C 414.359 413.395,423.307 404.001,426.404 398.080 C 432.164 387.071,431.787 399.700,431.787 217.842 C 431.787 30.495,432.555 48.428,424.170 40.043 C 415.339 31.213,407.735 30.447,386.560 36.258 M400.213 91.615 L 400.213 117.524 394.453 118.113 C 391.285 118.437,370.261 123.648,347.733 129.693 C 325.205 135.739,286.421 146.114,261.547 152.749 C 236.672 159.384,214.496 165.341,212.267 165.987 L 208.213 167.161 208.225 142.247 L 208.237 117.333 304.012 91.585 C 356.688 77.424,399.883 65.808,400.000 65.772 C 400.117 65.736,400.213 77.366,400.213 91.615 M398.903 381.187 C 396.717 386.951,393.334 389.161,378.472 394.538 C 371.035 397.229,363.343 399.651,361.378 399.920 C 355.870 400.675,348.751 398.234,344.182 394.022 C 339.065 389.305,336.901 384.834,336.408 377.959 C 335.913 371.071,337.957 365.734,342.382 362.359 C 344.159 361.003,356.205 356.231,372.563 350.403 L 399.787 340.703 400.025 359.151 C 400.222 374.387,400.027 378.225,398.903 381.187 M175.616 409.455 L 175.360 429.791 172.969 432.923 C 170.030 436.773,168.736 437.451,153.920 442.905 C 140.097 447.993,134.411 448.849,128.186 446.782 C 113.296 441.836,106.765 421.448,116.843 411.370 C 119.632 408.581,122.901 407.222,147.238 398.738 C 162.236 393.510,174.814 389.207,175.190 389.176 C 175.565 389.145,175.757 398.271,175.616 409.455 " stroke="none" fill="black" fill-rule="evenodd"></path></svg>