<svg xmlns="http://www.w3.org/2000/svg" width="512" height="512" viewBox="0 0 512 512"><path d="M301.227 46.932 C 270.955 54.865,244.292 62.238,241.976 63.317 C 232.743 67.621,226.052 77.172,224.460 88.320 C 223.923 92.081,223.601 141.150,223.590 220.827 C 223.576 326.345,223.378 347.818,222.398 350.107 C 219.895 355.959,217.846 356.968,187.363 367.360 C 171.464 372.780,156.166 378.435,153.367 379.926 C 147.064 383.286,139.548 390.580,135.491 397.275 C 120.525 421.969,129.275 455.600,154.779 471.411 C 165.143 477.836,170.026 479.133,183.893 479.140 L 195.840 479.147 211.497 473.828 C 229.904 467.575,234.958 464.910,242.092 457.691 C 248.202 451.509,253.622 441.263,255.088 433.123 C 255.708 429.682,256.000 388.191,256.000 303.603 C 256.000 193.198,256.149 178.788,257.321 175.984 C 258.876 172.263,261.513 169.259,264.667 167.618 C 265.915 166.969,288.374 161.014,314.577 154.384 C 341.525 147.566,363.971 141.442,366.252 140.286 C 371.591 137.581,375.608 133.961,378.731 129.043 C 383.743 121.149,384.000 118.943,384.000 83.850 C 384.000 64.062,383.654 50.598,383.090 48.378 C 381.775 43.211,378.157 38.390,373.372 35.432 C 369.801 33.224,368.270 32.829,362.734 32.681 C 356.824 32.524,351.523 33.753,301.227 46.932 M351.374 89.761 L 351.147 112.109 303.559 124.159 L 255.972 136.209 256.199 113.984 L 256.427 91.758 302.933 79.641 C 328.512 72.977,349.926 67.499,350.521 67.469 C 351.372 67.425,351.553 72.153,351.374 89.761 M223.573 408.781 C 223.573 436.293,223.914 435.767,201.193 443.372 C 193.587 445.917,185.981 448.000,184.291 448.000 C 175.515 448.000,166.196 442.008,162.445 433.953 C 158.202 424.839,160.482 413.554,167.506 408.904 C 170.167 407.143,219.883 389.448,222.933 389.177 C 223.285 389.146,223.573 397.967,223.573 408.781 " stroke="none" fill="black" fill-rule="evenodd"></path></svg>