<svg xmlns="http://www.w3.org/2000/svg" width="512" height="512" viewBox="0 0 512 512"><path d="M395.947 33.703 C 393.835 34.361,348.331 46.652,294.827 61.016 C 241.323 75.381,195.819 87.957,193.707 88.964 C 185.506 92.875,178.419 102.408,176.606 111.966 C 176.108 114.593,175.786 161.644,175.785 232.010 C 175.784 340.497,175.691 347.916,174.292 350.659 C 171.487 356.161,168.147 357.768,137.813 368.214 C 121.856 373.709,106.688 379.391,104.107 380.840 C 101.525 382.290,97.097 385.802,94.265 388.645 C 69.598 413.411,78.402 458.220,111.009 473.869 C 115.426 475.989,121.075 478.139,123.562 478.648 C 130.836 480.136,143.024 479.795,149.777 477.915 C 158.685 475.434,180.608 467.108,185.086 464.505 C 191.394 460.838,199.116 452.369,202.591 445.308 C 208.421 433.461,208.182 438.896,208.199 317.619 C 208.213 209.487,208.234 208.104,209.937 204.767 C 210.885 202.909,213.093 200.473,214.844 199.353 C 217.066 197.932,244.710 190.208,306.475 173.752 C 355.121 160.791,395.510 150.187,396.227 150.187 C 396.945 150.187,398.135 150.790,398.872 151.528 C 400.070 152.726,400.213 160.597,400.213 225.368 C 400.213 303.824,400.360 301.204,395.693 306.203 C 392.942 309.149,392.118 309.490,361.387 320.405 C 345.899 325.905,331.307 331.425,328.960 332.670 C 323.108 335.775,313.316 345.781,310.045 352.000 C 305.591 360.466,304.269 366.194,304.333 376.747 C 304.399 387.706,306.688 396.114,312.085 405.227 C 318.967 416.847,333.295 427.366,346.453 430.458 C 353.432 432.098,364.952 432.134,371.627 430.536 C 379.667 428.611,404.405 419.237,409.475 416.194 C 415.516 412.568,423.513 403.777,426.664 397.299 C 432.129 386.064,431.787 398.079,431.787 217.573 C 431.787 32.954,432.383 48.922,425.191 40.922 C 419.614 34.720,415.853 33.025,407.040 32.741 C 402.565 32.596,398.316 32.965,395.947 33.703 " stroke="none" fill="black" fill-rule="evenodd"></path></svg>