<svg xmlns="http://www.w3.org/2000/svg" width="512" height="512" viewBox="0 0 512 512"><path d="M302.843 68.120 C 234.505 87.678,177.962 104.206,177.192 104.849 C 175.908 105.921,175.774 116.362,175.576 231.071 L 175.360 356.124 172.800 356.951 C 151.028 363.979,121.251 374.831,113.813 378.449 C 90.473 389.802,80.186 404.216,80.228 425.510 C 80.260 441.601,84.966 453.759,95.072 463.857 C 101.684 470.464,106.500 473.624,113.940 476.239 C 126.017 480.484,135.439 480.718,149.333 477.119 C 159.871 474.390,171.904 470.043,179.305 466.294 C 186.558 462.619,198.129 454.525,201.563 450.725 C 208.144 443.440,207.692 452.367,208.193 319.684 L 208.640 201.181 303.043 175.126 C 354.964 160.796,398.068 149.310,398.829 149.602 C 400.092 150.086,400.213 157.017,400.213 228.562 C 400.213 290.299,399.986 307.166,399.147 307.811 C 398.560 308.262,386.560 312.598,372.480 317.445 C 343.290 327.496,335.750 330.500,327.788 335.253 C 316.147 342.203,309.648 350.031,306.123 361.351 C 303.761 368.937,303.597 383.245,305.776 391.680 C 310.413 409.631,322.315 423.057,339.258 429.450 C 343.746 431.143,345.869 431.357,357.973 431.331 C 370.140 431.305,372.556 431.048,380.160 428.970 C 396.488 424.509,421.215 410.409,426.851 402.347 C 431.978 395.010,431.756 403.731,431.772 209.707 L 431.787 32.427 429.440 32.494 C 428.149 32.530,371.181 48.562,302.843 68.120 " stroke="none" fill="black" fill-rule="evenodd"></path></svg>