<svg xmlns="http://www.w3.org/2000/svg" width="512" height="512" viewBox="0 0 512 512"><path d="M242.347 33.786 C 223.234 38.863,206.595 54.504,198.909 74.621 L 196.644 80.548 185.270 86.263 C 179.015 89.406,173.357 92.517,172.698 93.176 C 170.632 95.242,169.906 99.299,171.111 102.041 C 171.713 103.412,231.670 163.957,304.349 236.587 C 433.824 365.973,436.559 368.640,439.752 368.640 C 442.217 368.640,443.620 368.032,445.506 366.146 C 448.506 363.145,448.655 360.702,446.303 353.084 C 444.435 347.038,442.548 344.167,432.460 332.026 C 418.224 314.891,410.831 301.580,406.589 285.440 C 402.220 268.824,401.279 260.102,400.231 226.560 C 399.762 211.541,398.778 194.837,398.045 189.440 C 392.343 147.469,374.231 116.338,343.513 95.713 C 340.254 93.524,332.578 89.201,326.455 86.105 L 315.324 80.477 313.182 75.010 C 308.445 62.919,301.294 52.813,291.983 45.050 C 287.039 40.927,276.008 35.425,269.261 33.715 C 262.837 32.088,248.598 32.125,242.347 33.786 M57.600 49.849 C 54.420 51.269,50.747 55.122,49.548 58.296 C 48.248 61.735,48.428 67.989,49.917 71.124 C 50.619 72.603,138.651 161.242,245.543 268.100 C 424.123 446.621,440.199 462.466,443.656 463.369 C 455.664 466.507,466.509 455.662,463.368 443.656 C 462.463 440.199,446.579 424.084,268.099 245.543 C 161.243 138.650,72.605 50.618,71.125 49.916 C 67.819 48.348,61.040 48.314,57.600 49.849 M117.165 192.863 C 113.282 194.427,112.727 197.303,112.201 218.572 C 111.318 254.276,109.396 272.003,104.622 288.455 C 100.390 303.042,93.100 315.705,79.540 332.026 C 69.335 344.308,67.529 347.087,65.577 353.515 C 59.295 374.196,73.234 395.811,95.147 399.372 C 102.701 400.599,312.096 400.500,315.632 399.267 C 319.021 398.086,321.192 394.181,320.503 390.505 C 320.101 388.363,300.532 368.364,222.072 289.915 C 134.814 202.670,123.864 192.006,121.591 192.054 C 120.188 192.084,118.196 192.448,117.165 192.863 M186.514 433.128 C 184.459 435.183,184.868 437.021,188.697 442.961 C 199.474 459.675,215.522 471.505,235.109 477.175 C 240.999 478.880,243.823 479.147,256.000 479.147 C 268.135 479.147,271.010 478.877,276.817 477.195 C 296.131 471.601,312.173 459.988,322.554 444.086 C 327.115 437.100,327.609 435.251,325.486 433.128 C 324.289 431.931,316.812 431.787,256.000 431.787 C 195.188 431.787,187.711 431.931,186.514 433.128 " stroke="none" fill="black" fill-rule="evenodd"></path></svg>