<svg xmlns="http://www.w3.org/2000/svg" width="512" height="512" viewBox="0 0 512 512"><path d="M243.627 48.295 C 200.707 51.540,163.787 65.309,129.707 90.781 C 119.276 98.577,98.579 119.277,90.713 129.782 C 68.255 159.772,54.418 193.768,49.413 231.253 C 48.019 241.696,48.019 270.304,49.413 280.747 C 59.554 356.698,107.829 420.063,177.067 448.304 C 203.509 459.089,227.771 463.751,256.853 463.634 C 290.198 463.499,318.398 456.932,347.733 442.471 C 410.837 411.362,453.091 351.864,462.587 280.747 C 463.981 270.304,463.981 241.696,462.587 231.253 C 453.091 160.136,410.837 100.638,347.733 69.529 C 327.592 59.600,306.356 53.073,283.994 49.939 C 275.010 48.680,251.306 47.715,243.627 48.295 M275.447 81.114 C 347.484 88.943,408.291 141.727,426.231 212.001 C 448.394 298.823,402.945 387.270,319.249 420.197 C 293.994 430.132,262.077 434.038,234.686 430.544 C 145.853 419.214,80.213 345.046,80.213 256.000 C 80.213 167.651,145.919 92.766,233.311 81.514 C 244.096 80.125,264.562 79.931,275.447 81.114 M248.747 129.142 C 246.869 129.764,244.169 130.880,242.746 131.622 C 238.472 133.851,232.127 141.370,229.387 147.453 C 227.971 150.599,226.204 153.858,225.460 154.696 C 224.717 155.533,220.245 158.106,215.521 160.412 C 204.477 165.805,196.598 171.838,190.620 179.478 C 184.893 186.797,181.846 192.642,178.918 201.929 C 176.167 210.656,175.155 219.088,174.527 238.507 C 173.925 257.142,172.245 269.281,168.865 279.420 C 165.760 288.735,162.569 294.093,153.846 304.640 C 144.594 315.826,144.213 316.459,144.213 320.644 C 144.213 327.153,148.163 333.150,153.869 335.306 C 155.516 335.928,187.612 336.213,256.000 336.213 C 324.388 336.213,356.484 335.928,358.131 335.306 C 365.358 332.575,369.681 323.388,367.027 316.405 C 366.609 315.306,362.984 310.474,358.973 305.668 C 349.699 294.558,346.307 288.937,343.135 279.420 C 339.755 269.281,338.075 257.142,337.473 238.507 C 336.845 219.088,335.833 210.656,333.082 201.929 C 330.154 192.642,327.107 186.797,321.380 179.478 C 315.402 171.838,307.523 165.805,296.479 160.412 C 291.755 158.106,287.283 155.533,286.540 154.696 C 285.796 153.858,284.023 150.586,282.599 147.424 C 279.291 140.078,272.762 133.080,266.839 130.532 C 261.468 128.221,253.397 127.601,248.747 129.142 M216.803 354.028 C 215.673 356.140,217.682 364.039,220.475 368.462 C 226.565 378.110,239.989 383.970,256.000 383.970 C 277.665 383.970,294.467 372.510,294.741 357.547 L 294.827 352.853 256.248 352.631 C 219.118 352.418,217.637 352.470,216.803 354.028 " stroke="none" fill="black" fill-rule="evenodd"></path></svg>