<svg xmlns="http://www.w3.org/2000/svg" width="512" height="512" viewBox="0 0 512 512"><path d="M243.627 48.295 C 200.707 51.540,163.787 65.309,129.707 90.781 C 119.276 98.577,98.579 119.277,90.713 129.782 C 68.255 159.772,54.418 193.768,49.413 231.253 C 48.019 241.696,48.019 270.304,49.413 280.747 C 59.554 356.698,107.829 420.063,177.067 448.304 C 203.509 459.089,227.771 463.751,256.853 463.634 C 290.198 463.499,318.398 456.932,347.733 442.471 C 410.837 411.362,453.091 351.864,462.587 280.747 C 463.981 270.304,463.981 241.696,462.587 231.253 C 453.091 160.136,410.837 100.638,347.733 69.529 C 327.592 59.600,306.356 53.073,283.994 49.939 C 275.010 48.680,251.306 47.715,243.627 48.295 M275.447 81.114 C 347.484 88.943,408.291 141.727,426.231 212.001 C 448.394 298.823,402.945 387.270,319.249 420.197 C 293.994 430.132,262.077 434.038,234.686 430.544 C 145.853 419.214,80.213 345.046,80.213 256.000 C 80.213 167.651,145.919 92.766,233.311 81.514 C 244.096 80.125,264.562 79.931,275.447 81.114 M248.747 129.142 C 240.053 132.023,233.585 138.210,229.166 147.870 C 226.057 154.668,224.593 156.318,219.946 158.259 C 216.497 159.701,214.966 161.800,215.787 163.961 C 216.080 164.732,249.103 201.137,289.170 244.861 C 352.734 314.226,362.295 324.327,364.178 324.100 C 365.364 323.957,366.716 323.231,367.182 322.486 C 369.028 319.534,367.007 315.327,359.283 306.049 C 349.651 294.479,346.328 289.000,343.135 279.420 C 339.755 269.281,338.075 257.142,337.473 238.507 C 336.845 219.088,335.833 210.656,333.082 201.929 C 330.154 192.642,327.107 186.797,321.380 179.478 C 315.402 171.838,307.523 165.805,296.479 160.412 C 291.755 158.106,287.283 155.533,286.540 154.696 C 285.796 153.858,284.023 150.586,282.599 147.424 C 279.291 140.078,272.762 133.080,266.839 130.532 C 261.468 128.221,253.397 127.601,248.747 129.142 M154.019 135.518 C 144.892 139.790,141.318 151.058,146.696 158.611 C 147.687 160.003,191.893 209.077,244.932 267.664 C 314.024 343.983,342.391 374.752,344.977 376.180 C 349.615 378.740,356.161 378.317,360.949 375.148 C 366.887 371.219,369.511 361.865,366.473 355.462 C 364.453 351.206,171.162 138.104,167.602 136.209 C 163.208 133.870,158.096 133.610,154.019 135.518 M176.409 222.219 C 175.509 223.119,175.054 227.290,174.617 238.646 C 173.896 257.364,172.193 269.437,168.865 279.420 C 165.748 288.772,162.204 294.719,153.676 304.908 C 144.723 315.606,144.213 316.449,144.213 320.561 C 144.213 325.121,145.420 328.309,148.321 331.412 C 152.950 336.363,150.808 336.213,217.085 336.213 C 271.383 336.213,278.212 336.066,279.406 334.872 C 280.143 334.135,280.747 332.823,280.747 331.957 C 280.747 330.645,188.814 229.075,182.067 222.933 C 179.630 220.715,178.106 220.522,176.409 222.219 M216.798 354.037 C 215.673 356.139,217.689 364.050,220.475 368.462 C 228.230 380.749,248.714 386.870,268.232 382.735 C 282.911 379.624,291.749 372.212,294.816 360.437 C 297.066 351.797,300.120 352.427,256.000 352.427 C 219.299 352.427,217.623 352.495,216.798 354.037 " stroke="none" fill="black" fill-rule="evenodd"></path></svg>