<svg xmlns="http://www.w3.org/2000/svg" width="512" height="512" viewBox="0 0 512 512"><path d="M332.800 17.539 C 314.506 21.464,299.135 29.899,285.153 43.683 C 269.673 58.945,259.635 78.310,256.707 98.559 C 255.716 105.416,255.753 105.929,257.410 108.155 C 258.373 109.448,260.185 110.872,261.438 111.317 C 266.544 113.136,288.379 107.079,300.373 100.517 C 325.022 87.031,342.650 64.484,349.523 37.651 C 353.589 21.780,351.833 16.147,342.865 16.281 C 340.380 16.318,335.851 16.885,332.800 17.539 M150.613 113.056 C 126.561 117.325,108.578 126.611,92.154 143.241 C 82.586 152.930,77.361 160.124,70.786 172.659 C 56.011 200.829,48.461 238.240,48.368 283.733 C 48.333 300.812,48.642 306.253,50.227 316.496 C 61.598 389.974,108.244 469.916,151.467 489.999 C 162.543 495.145,167.523 496.071,181.333 495.552 C 199.235 494.880,211.036 491.824,226.130 483.950 C 250.148 471.422,247.840 472.320,256.000 472.320 C 264.170 472.320,261.739 471.370,286.212 484.124 C 301.261 491.966,312.548 494.867,330.667 495.551 C 344.481 496.072,349.469 495.144,360.518 489.999 C 397.647 472.709,439.185 408.996,456.134 343.340 C 462.862 317.277,464.887 296.742,463.466 269.010 C 461.494 230.556,456.490 204.972,446.318 181.335 C 427.699 138.072,394.027 113.987,349.440 112.041 C 335.568 111.436,323.943 113.179,300.308 119.408 C 272.176 126.821,268.212 127.550,256.000 127.550 C 243.995 127.550,239.223 126.697,215.340 120.286 C 206.781 117.988,196.012 115.308,191.409 114.329 C 180.406 111.990,160.175 111.358,150.613 113.056 M221.768 257.656 C 231.905 262.828,238.657 278.899,239.535 299.947 C 240.257 317.233,237.152 331.637,230.477 341.965 C 225.047 350.365,216.669 353.817,210.091 350.364 C 203.570 346.940,197.501 336.958,194.346 324.466 C 191.680 313.911,191.736 292.925,194.457 282.880 C 198.100 269.428,203.242 261.208,210.151 257.788 C 214.642 255.565,217.603 255.531,221.768 257.656 M301.722 257.619 C 308.291 260.603,313.962 269.674,317.563 282.957 C 320.264 292.921,320.310 313.951,317.654 324.466 C 314.499 336.958,308.430 346.940,301.909 350.364 C 295.887 353.525,287.258 350.449,282.420 343.418 C 275.883 333.917,273.108 323.789,272.498 307.200 C 271.952 292.383,273.748 281.744,278.474 271.792 C 284.868 258.328,292.730 253.535,301.722 257.619 " stroke="none" fill="black" fill-rule="evenodd"></path></svg>