<svg xmlns="http://www.w3.org/2000/svg" width="512" height="512" viewBox="0 0 512 512"><path d="M320.000 64.000 L 320.000 80.213 364.578 80.213 L 409.156 80.213 393.591 95.795 C 385.031 104.365,378.027 111.763,378.027 112.235 C 378.027 113.338,398.686 133.973,399.791 133.973 C 400.248 133.973,407.635 126.969,416.205 118.409 L 431.787 102.844 431.787 147.422 L 431.787 192.000 448.000 192.000 L 464.213 192.000 464.213 119.893 L 464.213 47.787 392.107 47.787 L 320.000 47.787 320.000 64.000 M47.787 288.000 L 47.787 464.213 224.000 464.213 L 400.213 464.213 400.213 299.308 L 400.213 134.403 312.104 222.509 L 223.994 310.616 212.689 299.311 L 201.384 288.006 289.491 199.896 L 377.597 111.787 212.692 111.787 L 47.787 111.787 47.787 288.000 " stroke="none" fill="black" fill-rule="evenodd"></path></svg>