<svg xmlns="http://www.w3.org/2000/svg" width="512" height="512" viewBox="0 0 512 512"><path d="M324.499 81.439 C 312.009 84.466,298.402 95.334,293.176 106.457 L 290.673 111.787 176.696 111.791 C 96.172 111.795,61.724 112.073,59.326 112.738 C 54.786 113.999,49.916 118.994,48.653 123.687 C 46.351 132.232,51.222 141.010,59.546 143.322 C 61.656 143.908,100.919 144.206,176.640 144.212 L 290.560 144.220 293.503 149.976 C 297.739 158.261,306.666 166.991,314.880 170.883 C 322.483 174.484,328.183 175.787,336.345 175.787 C 353.665 175.787,371.068 165.157,378.190 150.229 L 381.013 144.309 415.147 144.257 C 437.270 144.222,450.474 143.872,452.674 143.262 C 457.214 142.001,462.084 137.006,463.347 132.313 C 465.649 123.768,460.778 114.990,452.454 112.678 C 450.530 112.143,435.836 111.775,415.147 111.743 L 381.013 111.691 378.190 105.771 C 372.875 94.631,360.620 84.886,347.689 81.518 C 341.740 79.968,330.724 79.931,324.499 81.439 M163.946 209.560 C 151.258 212.972,139.096 222.708,133.882 233.628 L 130.987 239.691 96.853 239.743 C 76.164 239.775,61.470 240.143,59.546 240.678 C 51.222 242.990,46.351 251.768,48.653 260.313 C 49.916 265.006,54.786 270.001,59.326 271.262 C 61.526 271.872,74.730 272.222,96.853 272.257 L 130.987 272.309 133.882 278.372 C 140.972 293.221,158.274 303.787,175.497 303.787 C 183.816 303.787,189.479 302.502,197.120 298.883 C 205.334 294.991,214.261 286.261,218.497 277.976 L 221.440 272.220 335.360 272.212 C 411.081 272.206,450.344 271.908,452.454 271.322 C 460.778 269.010,465.649 260.232,463.347 251.687 C 462.084 246.994,457.214 241.999,452.674 240.738 C 450.276 240.073,415.835 239.794,335.360 239.788 L 221.440 239.780 218.497 234.024 C 214.261 225.739,205.334 217.009,197.120 213.117 C 193.600 211.450,188.685 209.664,186.198 209.149 C 180.029 207.872,169.497 208.067,163.946 209.560 M324.499 337.439 C 312.009 340.466,298.402 351.334,293.176 362.457 L 290.673 367.787 176.696 367.791 C 96.172 367.795,61.724 368.073,59.326 368.738 C 54.786 369.999,49.916 374.994,48.653 379.687 C 46.351 388.232,51.222 397.010,59.546 399.322 C 61.656 399.908,100.919 400.206,176.640 400.212 L 290.560 400.220 293.503 405.976 C 297.739 414.261,306.666 422.991,314.880 426.883 C 322.483 430.484,328.183 431.787,336.345 431.787 C 353.665 431.787,371.068 421.157,378.190 406.229 L 381.013 400.309 415.147 400.257 C 437.270 400.222,450.474 399.872,452.674 399.262 C 457.214 398.001,462.084 393.006,463.347 388.313 C 465.649 379.768,460.778 370.990,452.454 368.678 C 450.530 368.143,435.836 367.775,415.147 367.743 L 381.013 367.691 378.190 361.771 C 372.875 350.631,360.620 340.886,347.689 337.518 C 341.740 335.968,330.724 335.931,324.499 337.439 " stroke="none" fill="black" fill-rule="evenodd"></path></svg>