<svg xmlns="http://www.w3.org/2000/svg" width="512" height="512" viewBox="0 0 512 512"><path d="M255.147 112.219 L 15.787 208.067 19.627 209.735 C 21.739 210.653,61.820 228.751,108.697 249.952 C 155.574 271.154,194.204 288.580,194.542 288.677 C 194.881 288.774,248.297 241.621,313.245 183.893 C 378.192 126.165,434.794 75.864,439.026 72.114 C 443.258 68.363,445.376 66.829,443.733 68.705 C 442.091 70.581,391.787 127.182,331.947 194.485 C 272.107 261.788,223.230 317.140,223.332 317.490 C 223.434 317.839,241.050 356.851,262.479 404.183 C 283.908 451.514,302.010 491.576,302.706 493.208 L 303.972 496.176 399.879 256.409 C 452.628 124.538,495.787 16.546,495.787 16.428 C 495.787 16.310,495.499 16.249,495.147 16.292 C 494.795 16.336,386.795 59.503,255.147 112.219 " stroke="none" fill="black" fill-rule="evenodd"></path></svg>