<svg xmlns="http://www.w3.org/2000/svg" width="512" height="512" viewBox="0 0 512 512"><path d="M328.962 33.771 C 325.114 35.777,323.335 37.619,321.605 41.387 C 320.231 44.378,320.037 47.176,320.037 64.000 C 320.037 80.930,320.226 83.615,321.633 86.712 C 323.936 91.785,328.449 94.929,334.102 95.397 C 340.108 95.895,342.369 95.257,346.055 92.021 C 351.846 86.936,352.000 86.231,352.000 64.853 C 352.000 54.293,351.706 44.604,351.348 43.322 C 350.526 40.388,346.094 35.286,342.956 33.663 C 339.808 32.035,332.178 32.094,328.962 33.771 M219.612 79.312 C 210.663 81.474,205.350 90.131,207.539 98.987 C 208.360 102.311,210.319 104.683,222.121 116.651 C 229.619 124.255,237.007 131.071,238.539 131.798 C 241.990 133.436,248.328 133.505,251.974 131.945 C 255.295 130.524,258.977 126.733,260.212 123.464 C 261.379 120.376,261.376 114.279,260.207 111.202 C 259.039 108.131,233.502 82.362,230.031 80.754 C 226.366 79.055,222.750 78.554,219.612 79.312 M445.636 79.345 C 441.135 80.409,436.771 83.975,424.261 96.814 C 411.544 109.865,409.622 113.161,410.734 120.015 C 412.545 131.169,425.831 136.871,435.339 130.573 C 440.772 126.975,462.354 104.680,463.834 101.137 C 468.770 89.324,457.998 76.424,445.636 79.345 M327.680 112.380 C 320.582 113.140,310.055 115.437,304.374 117.464 C 284.747 124.471,266.665 138.536,256.029 155.072 L 252.310 160.853 232.182 160.880 C 214.631 160.902,210.944 161.148,203.394 162.798 C 145.716 175.401,103.767 219.181,90.378 280.747 C 89.306 285.675,88.166 290.022,87.845 290.407 C 87.524 290.792,84.043 291.818,80.110 292.686 C 58.697 297.412,40.001 307.267,25.964 321.227 C 9.600 337.501,1.283 356.867,0.288 381.013 C -0.918 410.251,8.554 435.052,27.804 453.059 C 41.620 465.984,58.661 473.818,82.347 478.134 C 92.585 480.000,92.609 480.000,221.440 480.000 C 323.113 480.000,351.913 479.764,357.973 478.883 C 403.562 472.255,438.478 446.723,455.051 407.893 C 468.114 377.289,466.700 339.531,451.377 309.797 C 443.600 294.704,430.739 280.003,417.520 271.096 C 414.602 269.129,412.202 267.283,412.187 266.993 C 412.172 266.703,413.877 263.906,415.975 260.776 C 437.078 229.306,437.042 187.885,415.884 155.058 C 407.249 141.661,389.404 126.556,374.941 120.401 C 359.822 113.968,341.651 110.883,327.680 112.380 M348.298 145.416 C 361.522 147.957,372.751 154.261,382.488 164.612 C 392.152 174.884,397.446 186.212,399.382 200.760 C 401.621 217.587,395.595 237.117,384.136 250.169 L 381.425 253.256 376.526 251.740 C 373.831 250.905,368.803 249.704,365.353 249.070 C 359.171 247.934,359.058 247.867,357.730 244.492 C 353.132 232.813,342.599 216.224,332.435 204.651 C 321.748 192.484,305.458 180.098,291.167 173.275 C 287.783 171.659,285.013 169.934,285.013 169.442 C 285.013 167.874,297.330 156.696,302.332 153.724 C 316.606 145.244,332.475 142.376,348.298 145.416 M254.899 194.477 C 286.869 201.712,313.055 223.458,327.161 254.487 C 332.463 266.150,333.149 267.264,337.491 271.267 C 342.670 276.040,346.475 277.641,359.771 280.640 C 406.022 291.074,431.787 320.578,431.787 363.111 C 431.787 404.332,405.585 435.188,361.387 446.016 C 355.910 447.358,344.806 447.505,227.840 447.790 C 135.078 448.015,98.073 447.831,92.229 447.117 C 65.731 443.876,47.335 432.779,38.523 414.720 C 33.563 404.556,32.147 396.784,32.626 382.360 C 32.958 372.389,33.341 369.881,35.378 364.373 C 43.008 343.740,61.134 329.759,88.049 323.749 C 100.381 320.995,105.689 318.557,110.820 313.289 C 116.201 307.765,118.162 303.389,120.750 291.136 C 132.234 236.745,166.507 201.300,215.467 193.183 C 225.232 191.564,244.878 192.209,254.899 194.477 M458.567 192.925 C 457.104 193.350,454.349 195.386,452.446 197.451 C 448.351 201.893,447.133 207.067,448.838 212.778 C 450.188 217.305,455.469 222.417,459.727 223.320 C 463.893 224.204,496.107 224.204,500.273 223.320 C 504.531 222.417,509.812 217.305,511.162 212.778 C 512.864 207.076,511.648 201.892,507.571 197.470 C 505.511 195.234,502.881 193.387,501.024 192.872 C 497.214 191.813,462.248 191.858,458.567 192.925 " stroke="none" fill="black" fill-rule="evenodd"></path></svg>