<svg xmlns="http://www.w3.org/2000/svg" width="512" height="512" viewBox="0 0 512 512"><path d="M320.000 64.000 L 320.000 96.464 336.000 96.232 L 352.000 96.000 352.000 64.000 L 352.000 32.000 336.000 31.768 L 320.000 31.536 320.000 64.000 M211.833 83.847 L 200.537 95.166 216.962 111.537 L 233.387 127.907 244.480 128.783 L 255.573 129.658 261.760 123.489 L 267.946 117.320 245.537 94.924 L 223.129 72.527 211.833 83.847 M426.244 94.716 L 404.072 116.901 415.144 127.997 C 421.233 134.100,426.608 139.093,427.087 139.093 C 427.567 139.093,437.746 129.301,449.708 117.332 L 471.457 95.571 459.937 84.051 L 448.417 72.531 426.244 94.716 M323.840 112.689 C 309.799 114.584,291.523 121.768,280.435 129.751 L 275.431 133.354 285.175 136.553 C 324.193 149.359,358.007 177.536,378.304 214.156 L 381.288 219.541 392.671 223.275 C 398.931 225.329,409.147 229.559,415.372 232.675 C 421.597 235.791,426.876 238.155,427.103 237.928 C 427.330 237.701,428.352 234.474,429.374 230.758 C 430.967 224.966,431.236 221.743,431.256 208.213 C 431.278 193.710,431.093 191.733,428.981 183.893 C 425.818 172.151,418.016 156.840,410.389 147.410 C 397.021 130.879,377.694 118.944,356.748 114.284 C 348.017 112.341,332.123 111.571,323.840 112.689 M214.187 160.989 C 186.726 164.569,159.345 177.071,138.442 195.572 C 114.843 216.460,97.638 246.936,90.358 280.747 C 89.297 285.675,88.166 290.022,87.845 290.407 C 87.524 290.792,84.043 291.818,80.110 292.686 C 58.946 297.357,39.469 307.606,25.959 321.180 C 9.518 337.698,1.282 356.896,0.288 381.013 C -1.675 428.614,24.806 463.938,71.322 475.767 C 87.682 479.928,84.957 479.841,211.200 480.205 C 336.134 480.565,353.458 480.215,368.444 477.033 C 408.538 468.520,440.061 443.344,455.015 407.893 C 469.977 372.422,465.836 329.380,444.447 298.033 C 428.367 274.465,398.749 255.929,366.628 249.330 L 359.070 247.777 356.716 242.288 C 349.319 225.040,335.588 206.143,321.280 193.522 C 308.221 182.002,290.680 171.868,275.200 166.899 C 260.036 162.032,254.175 161.150,235.093 160.866 C 225.237 160.719,215.829 160.774,214.187 160.989 M448.000 208.213 L 448.000 224.427 480.000 224.427 L 512.000 224.427 512.000 208.213 L 512.000 192.000 480.000 192.000 L 448.000 192.000 448.000 208.213 " stroke="none" fill="black" fill-rule="evenodd"></path></svg>