<svg xmlns="http://www.w3.org/2000/svg" width="512" height="512" viewBox="0 0 512 512"><path d="M243.627 48.295 C 200.707 51.540,163.787 65.309,129.707 90.781 C 119.276 98.577,98.579 119.277,90.713 129.782 C 68.255 159.772,54.418 193.768,49.413 231.253 C 48.019 241.696,48.019 270.304,49.413 280.747 C 59.554 356.698,107.829 420.063,177.067 448.304 C 203.509 459.089,227.771 463.751,256.853 463.634 C 290.198 463.499,318.398 456.932,347.733 442.471 C 410.837 411.362,453.091 351.864,462.587 280.747 C 463.981 270.304,463.981 241.696,462.587 231.253 C 453.091 160.136,410.837 100.638,347.733 69.529 C 327.592 59.600,306.356 53.073,283.994 49.939 C 275.010 48.680,251.306 47.715,243.627 48.295 M275.447 81.114 C 347.484 88.943,408.291 141.727,426.231 212.001 C 448.394 298.823,402.945 387.270,319.249 420.197 C 293.994 430.132,262.077 434.038,234.686 430.544 C 145.853 419.214,80.213 345.046,80.213 256.000 C 80.213 167.651,145.919 92.766,233.311 81.514 C 244.096 80.125,264.562 79.931,275.447 81.114 M202.799 177.031 C 198.574 178.538,195.586 181.325,193.613 185.600 C 192.124 188.827,192.037 192.676,192.037 256.000 C 192.037 319.167,192.127 323.183,193.604 326.435 C 199.107 338.549,215.834 339.113,222.099 327.395 L 224.000 323.840 224.000 256.000 L 224.000 188.160 222.099 184.605 C 220.027 180.729,217.068 178.298,212.566 176.771 C 208.881 175.521,206.886 175.574,202.799 177.031 M299.093 176.829 C 294.893 178.318,291.915 180.837,289.901 184.605 L 288.000 188.160 288.000 256.000 L 288.000 323.840 289.901 327.395 C 296.166 339.113,312.893 338.549,318.396 326.435 C 319.873 323.183,319.963 319.167,319.963 256.000 C 319.963 192.833,319.873 188.817,318.396 185.565 C 314.979 178.041,306.498 174.204,299.093 176.829 " stroke="none" fill="black" fill-rule="evenodd"></path></svg>