<svg xmlns="http://www.w3.org/2000/svg" width="512" height="512" viewBox="0 0 512 512"><path d="M268.198 33.687 C 240.741 38.927,216.720 54.162,202.082 75.622 C 194.084 87.347,187.336 104.364,185.035 118.613 C 183.519 128.000,183.780 147.313,185.560 157.440 C 197.624 226.092,259.215 270.530,315.684 251.324 C 330.377 246.326,346.576 235.620,357.919 223.411 C 391.259 187.523,401.527 133.624,382.907 92.237 C 377.994 81.315,372.224 72.751,363.956 64.105 C 349.827 49.331,335.144 40.705,314.880 35.273 C 307.831 33.383,304.658 33.061,290.560 32.806 C 279.235 32.602,272.493 32.867,268.198 33.687 M307.627 66.519 C 327.365 71.686,343.513 84.744,352.728 102.991 C 361.381 120.125,362.411 145.172,355.331 166.316 C 350.562 180.558,342.946 193.059,332.865 203.190 C 320.080 216.039,306.484 222.624,291.203 223.370 C 286.136 223.617,280.338 223.379,277.413 222.804 C 265.864 220.532,254.212 213.960,243.977 203.947 C 231.774 192.007,223.406 177.385,218.667 159.718 C 216.700 152.386,216.451 149.850,216.435 136.960 C 216.419 124.595,216.694 121.453,218.295 115.676 C 225.710 88.929,246.031 70.586,274.211 65.204 C 282.708 63.582,298.829 64.216,307.627 66.519 M79.769 162.500 C 77.843 163.655,75.410 166.178,74.222 168.252 C 72.144 171.882,72.102 172.330,71.841 193.880 L 71.576 215.813 49.655 216.067 C 30.122 216.292,27.376 216.497,24.457 217.947 C 15.972 222.160,13.515 234.829,19.795 241.982 C 24.875 247.767,25.340 247.863,49.707 248.170 L 71.680 248.447 71.685 268.650 C 71.687 280.114,72.077 290.248,72.585 292.077 C 73.698 296.087,78.019 301.110,81.666 302.634 C 88.457 305.471,97.357 302.797,101.390 296.708 L 103.680 293.250 103.945 270.837 L 104.209 248.424 126.131 248.159 C 147.694 247.898,148.114 247.858,151.764 245.769 C 158.966 241.646,161.768 232.072,157.957 224.606 C 153.901 216.658,151.336 215.977,125.278 215.931 L 104.210 215.893 103.945 193.351 L 103.680 170.809 101.120 167.200 C 97.735 162.427,93.824 160.425,87.907 160.435 C 84.461 160.441,82.281 160.994,79.769 162.500 M264.960 288.961 C 219.980 293.551,176.908 309.818,145.920 333.916 C 118.424 355.299,98.140 382.981,87.648 413.440 C 82.370 428.764,79.961 440.599,80.440 448.853 C 81.405 465.495,91.968 477.219,108.094 479.551 C 116.085 480.706,459.967 480.698,467.961 479.543 C 475.712 478.422,480.294 476.297,485.541 471.390 C 495.402 462.166,497.935 449.775,493.636 431.787 C 487.835 407.510,478.557 387.530,464.021 368.010 C 434.195 327.958,383.508 299.853,324.267 290.520 C 315.652 289.163,273.769 288.062,264.960 288.961 M306.773 320.868 C 377.192 327.366,432.724 363.141,455.257 416.525 C 458.521 424.258,464.204 443.557,464.211 446.933 C 464.213 447.783,428.403 448.000,288.000 448.000 C 159.072 448.000,111.787 447.745,111.787 447.049 C 111.787 444.163,116.672 426.762,119.546 419.413 C 134.373 381.502,166.369 351.520,210.255 334.417 C 229.254 327.013,247.534 322.924,272.213 320.559 C 279.143 319.895,298.065 320.064,306.773 320.868 " stroke="none" fill="black" fill-rule="evenodd"></path></svg>