<svg xmlns="http://www.w3.org/2000/svg" width="512" height="512" viewBox="0 0 512 512"><path d="M243.200 48.291 C 189.307 52.936,145.591 72.806,109.198 109.198 C 75.814 142.582,55.864 183.304,49.403 231.253 C 47.996 241.696,47.996 270.304,49.403 280.747 C 55.866 328.705,75.852 369.495,109.198 402.781 C 142.761 436.282,182.341 455.687,231.253 462.621 C 235.243 463.187,246.379 463.649,256.000 463.649 C 284.931 463.649,308.731 459.018,334.933 448.289 C 361.056 437.593,386.578 420.224,405.701 400.129 C 437.387 366.832,455.931 327.939,462.621 280.747 C 463.187 276.757,463.649 265.621,463.649 256.000 C 463.649 227.171,459.011 203.251,448.395 177.325 C 432.022 137.342,403.062 103.108,365.227 79.011 C 343.385 65.100,312.181 53.926,283.992 49.922 C 275.151 48.666,250.352 47.675,243.200 48.291 M279.893 147.565 C 289.407 150.761,296.289 154.462,303.330 160.168 C 314.687 169.372,323.942 183.834,327.797 198.400 C 330.341 208.016,330.331 223.842,327.775 233.387 C 321.038 258.540,303.015 277.341,278.157 285.146 C 272.586 286.896,270.074 287.147,258.133 287.147 C 243.112 287.147,237.657 286.015,226.268 280.536 C 198.398 267.128,181.996 235.552,186.929 204.800 C 191.559 175.935,214.162 151.963,242.773 145.573 C 247.070 144.613,251.979 144.323,260.267 144.540 C 270.497 144.807,272.694 145.146,279.893 147.565 M290.987 322.088 C 322.192 326.009,346.458 333.545,362.744 344.371 C 373.321 351.403,382.851 363.781,384.514 372.648 C 385.023 375.360,384.715 375.979,380.909 379.882 C 364.836 396.365,341.644 411.452,318.992 420.160 C 299.614 427.609,283.225 430.853,261.547 431.531 C 231.270 432.477,203.277 426.375,176.625 413.017 C 162.004 405.690,142.213 391.287,131.091 379.882 C 127.285 375.979,126.977 375.360,127.486 372.648 C 128.437 367.578,133.094 359.378,138.086 353.987 C 154.399 336.367,187.256 324.845,232.533 320.867 C 244.664 319.801,278.394 320.506,290.987 322.088 " stroke="none" fill="black" fill-rule="evenodd"></path></svg>