<svg xmlns="http://www.w3.org/2000/svg" width="512" height="512" viewBox="0 0 512 512"><path d="M236.307 33.751 C 196.607 40.940,165.449 69.563,155.764 107.741 C 147.233 141.371,154.076 178.386,174.496 209.071 C 180.681 218.364,196.759 234.272,206.060 240.301 C 215.303 246.292,226.344 251.174,236.273 253.660 C 245.087 255.867,264.287 256.245,272.640 254.376 C 291.550 250.146,306.908 241.689,321.640 227.394 C 355.103 194.923,368.454 143.748,354.417 101.758 C 342.497 66.104,312.378 40.214,275.298 33.748 C 265.940 32.116,245.326 32.118,236.307 33.751 M226.391 289.768 C 139.811 300.260,72.535 351.794,52.582 422.907 C 48.684 436.800,47.433 445.681,48.482 452.014 C 51.007 467.251,61.472 477.662,76.184 479.573 C 79.846 480.049,152.802 480.374,256.000 480.374 C 359.198 480.374,432.154 480.049,435.816 479.573 C 450.255 477.698,460.698 467.545,463.428 452.729 C 464.595 446.400,463.975 441.195,460.374 427.082 C 453.052 398.393,439.545 374.301,418.645 352.652 C 401.954 335.363,385.045 323.093,363.093 312.340 C 338.474 300.281,313.313 293.027,284.592 289.708 C 270.853 288.120,239.721 288.152,226.391 289.768 " stroke="none" fill="black" fill-rule="evenodd"></path></svg>