<svg xmlns="http://www.w3.org/2000/svg" width="512" height="512" viewBox="0 0 512 512"><path d="M13.648 112.581 C 7.258 114.534,2.953 118.582,0.971 124.501 C -0.416 128.643,-0.416 383.357,0.971 387.499 C 2.440 391.886,5.670 395.747,9.649 397.875 L 13.227 399.787 256.000 399.787 L 498.773 399.787 502.351 397.875 C 506.330 395.747,509.560 391.886,511.029 387.499 C 512.416 383.357,512.416 128.643,511.029 124.501 C 509.560 120.114,506.330 116.253,502.351 114.125 L 498.773 112.213 257.280 112.070 C 124.459 111.992,14.824 112.221,13.648 112.581 M448.000 256.000 L 448.000 364.373 256.000 364.373 L 64.000 364.373 64.000 256.000 L 64.000 147.627 256.000 147.627 L 448.000 147.627 448.000 256.000 " stroke="none" fill="black" fill-rule="evenodd"></path></svg>