<svg xmlns="http://www.w3.org/2000/svg" width="512" height="512" viewBox="0 0 512 512"><path d="M124.160 1.030 C 120.066 2.461,116.187 5.793,114.125 9.649 L 112.213 13.227 112.213 256.000 L 112.213 498.773 114.125 502.351 C 116.253 506.330,120.114 509.560,124.501 511.029 C 128.643 512.416,383.357 512.416,387.499 511.029 C 391.886 509.560,395.747 506.330,397.875 502.351 L 399.787 498.773 399.787 256.000 L 399.787 13.227 397.875 9.649 C 395.747 5.670,391.886 2.440,387.499 0.971 C 383.564 -0.346,127.934 -0.290,124.160 1.030 M364.373 256.000 L 364.373 448.000 256.000 448.000 L 147.627 448.000 147.627 256.000 L 147.627 64.000 256.000 64.000 L 364.373 64.000 364.373 256.000 " stroke="none" fill="black" fill-rule="evenodd"></path></svg>