<svg xmlns="http://www.w3.org/2000/svg" width="512" height="512" viewBox="0 0 512 512"><path d="M218.880 33.326 C 167.251 37.475,115.874 49.012,72.271 66.248 C 56.869 72.337,42.667 79.013,42.667 80.164 C 42.667 81.218,63.829 123.733,64.353 123.733 C 64.544 123.733,74.238 119.646,85.897 114.651 C 140.647 91.190,186.322 81.521,247.467 80.446 C 289.903 79.700,322.819 82.947,358.400 91.391 C 381.882 96.963,397.651 102.418,428.234 115.549 C 438.718 120.051,447.452 123.733,447.644 123.733 C 448.113 123.733,469.333 81.281,469.333 80.344 C 469.333 78.475,440.079 66.448,416.000 58.418 C 381.001 46.746,344.540 38.906,304.640 34.471 C 290.214 32.867,233.939 32.116,218.880 33.326 M231.486 112.669 C 194.879 114.963,158.360 122.001,123.307 133.519 C 109.461 138.068,86.497 147.375,84.196 149.371 C 83.805 149.710,88.466 160.827,94.553 174.076 C 102.972 192.400,123.564 231.829,180.597 338.835 C 221.834 416.204,255.765 479.506,256.000 479.507 C 256.493 479.509,428.677 151.544,429.044 149.905 C 429.327 148.638,404.717 138.486,388.267 133.082 C 359.657 123.684,327.287 117.043,295.015 113.951 C 277.898 112.312,247.112 111.690,231.486 112.669 M203.398 162.161 C 213.116 165.797,219.702 172.835,222.836 182.932 C 227.407 197.656,221.043 212.781,207.148 220.215 C 202.476 222.715,200.860 223.111,194.133 223.402 C 185.447 223.779,179.650 222.155,173.326 217.574 C 165.998 212.265,160.427 201.220,160.427 192.000 C 160.427 183.102,165.799 172.109,172.731 166.821 C 181.012 160.505,193.785 158.564,203.398 162.161 M326.070 176.653 C 344.893 180.200,356.458 199.172,350.836 217.282 C 348.494 224.827,344.249 230.509,337.878 234.627 C 321.427 245.260,300.018 239.054,291.576 221.205 C 289.148 216.073,288.863 214.656,288.871 207.787 C 288.879 201.270,289.225 199.368,291.154 195.227 C 295.525 185.847,304.504 178.593,314.065 176.719 C 319.385 175.676,320.844 175.668,326.070 176.653 M267.398 290.161 C 277.116 293.797,283.702 300.835,286.836 310.932 C 291.407 325.656,285.043 340.781,271.148 348.215 C 266.476 350.715,264.860 351.111,258.133 351.402 C 249.447 351.779,243.650 350.155,237.326 345.574 C 229.998 340.265,224.427 329.220,224.427 320.000 C 224.427 311.102,229.799 300.109,236.731 294.821 C 245.012 288.505,257.785 286.564,267.398 290.161 " stroke="none" fill="black" fill-rule="evenodd"></path></svg>