<svg xmlns="http://www.w3.org/2000/svg" width="512" height="512" viewBox="0 0 512 512"><path d="M126.959 72.559 C 120.691 73.615,113.935 77.139,108.716 82.075 C 103.140 87.349,100.263 91.932,98.034 99.093 C 96.485 104.071,96.427 109.770,96.427 256.000 C 96.427 402.230,96.485 407.929,98.034 412.907 C 100.263 420.068,103.140 424.651,108.716 429.925 C 119.121 439.766,133.652 442.583,146.442 437.238 C 148.165 436.518,174.961 420.732,205.988 402.157 C 237.014 383.583,293.504 349.776,331.520 327.030 C 406.401 282.229,407.397 281.544,412.417 271.378 C 415.011 266.124,415.147 265.359,415.147 256.000 C 415.147 246.641,415.011 245.876,412.417 240.622 C 410.837 237.423,407.780 233.234,405.163 230.681 C 401.652 227.255,373.540 210.061,279.467 153.803 C 212.821 113.947,155.571 79.733,152.244 77.773 C 148.462 75.545,143.983 73.740,140.297 72.959 C 133.834 71.590,132.883 71.561,126.959 72.559 " stroke="none" fill="black" fill-rule="evenodd"></path></svg>