<svg xmlns="http://www.w3.org/2000/svg" width="512" height="512" viewBox="0 0 512 512"><path d="M40.107 113.091 C 30.279 115.790,21.290 124.408,17.928 134.352 C 16.244 139.335,16.213 141.489,16.213 256.032 C 16.213 369.221,16.262 372.781,17.869 377.452 C 21.185 387.090,28.902 395.149,37.743 398.207 C 44.558 400.564,53.819 400.282,59.733 397.537 C 62.315 396.339,100.523 373.743,144.640 347.323 C 188.757 320.903,229.269 296.653,234.667 293.435 L 244.480 287.584 244.907 331.739 L 245.333 375.893 247.620 380.773 C 255.006 396.531,273.333 404.229,288.008 397.738 C 291.707 396.101,476.345 285.876,482.629 281.552 C 487.331 278.318,490.446 274.542,493.150 268.800 C 495.043 264.779,495.360 262.945,495.360 256.000 C 495.360 248.843,495.079 247.322,492.964 243.014 C 491.646 240.331,488.920 236.439,486.905 234.366 C 484.252 231.636,460.902 217.234,402.260 182.157 C 357.721 155.515,314.329 129.554,305.834 124.466 C 287.391 113.419,284.906 112.396,276.480 112.376 C 264.295 112.348,253.703 119.071,248.142 130.364 L 245.333 136.067 244.907 180.277 L 244.480 224.486 154.453 170.581 C 104.939 140.934,62.507 115.787,60.160 114.699 C 54.516 112.083,46.200 111.416,40.107 113.091 " stroke="none" fill="black" fill-rule="evenodd"></path></svg>