<svg xmlns="http://www.w3.org/2000/svg" width="512" height="512" viewBox="0 0 512 512"><path d="M243.200 48.291 C 189.307 52.936,145.591 72.806,109.198 109.198 C 75.814 142.582,55.864 183.304,49.403 231.253 C 47.996 241.696,47.996 270.304,49.403 280.747 C 55.866 328.705,75.852 369.495,109.198 402.781 C 142.761 436.282,182.341 455.687,231.253 462.621 C 235.243 463.187,246.379 463.649,256.000 463.649 C 284.931 463.649,308.731 459.018,334.933 448.289 C 361.056 437.593,386.578 420.224,405.701 400.129 C 437.387 366.832,455.931 327.939,462.621 280.747 C 463.187 276.757,463.649 265.621,463.649 256.000 C 463.649 227.171,459.011 203.251,448.395 177.325 C 432.022 137.342,403.062 103.108,365.227 79.011 C 343.385 65.100,312.181 53.926,283.992 49.922 C 275.151 48.666,250.352 47.675,243.200 48.291 M336.213 256.000 C 336.213 304.341,336.001 343.893,335.741 343.893 C 335.482 343.893,324.058 337.115,310.355 328.831 C 296.652 320.546,276.224 308.202,264.960 301.398 C 253.696 294.594,236.416 284.142,226.560 278.170 L 208.640 267.313 208.417 301.763 L 208.194 336.213 191.990 336.213 L 175.787 336.213 175.787 256.000 L 175.787 175.787 191.990 175.787 L 208.194 175.787 208.417 210.228 L 208.640 244.669 256.000 215.976 C 282.048 200.195,310.464 182.971,319.147 177.702 C 327.829 172.432,335.221 168.117,335.573 168.114 C 335.925 168.110,336.213 207.659,336.213 256.000 " stroke="none" fill="black" fill-rule="evenodd"></path></svg>