<svg xmlns="http://www.w3.org/2000/svg" width="512" height="512" viewBox="0 0 512 512"><path d="M243.200 48.291 C 189.307 52.936,145.591 72.806,109.198 109.198 C 75.814 142.582,55.864 183.304,49.403 231.253 C 47.996 241.696,47.996 270.304,49.403 280.747 C 55.866 328.705,75.852 369.495,109.198 402.781 C 142.761 436.282,182.341 455.687,231.253 462.621 C 235.243 463.187,246.379 463.649,256.000 463.649 C 284.931 463.649,308.731 459.018,334.933 448.289 C 361.056 437.593,386.578 420.224,405.701 400.129 C 437.387 366.832,455.931 327.939,462.621 280.747 C 463.187 276.757,463.649 265.621,463.649 256.000 C 463.649 227.171,459.011 203.251,448.395 177.325 C 432.022 137.342,403.062 103.108,365.227 79.011 C 343.385 65.100,312.181 53.926,283.992 49.922 C 275.151 48.666,250.352 47.675,243.200 48.291 M208.213 187.181 C 217.835 192.961,243.275 208.305,264.747 221.279 L 303.787 244.868 303.791 217.794 C 303.794 201.804,304.157 189.421,304.678 187.546 C 306.990 179.222,315.768 174.351,324.313 176.653 C 329.006 177.916,334.001 182.786,335.262 187.326 C 336.528 191.888,336.585 319.908,335.322 324.454 C 332.292 335.367,318.480 339.580,309.768 332.249 C 304.269 327.622,304.256 327.544,303.787 296.036 L 303.360 267.378 247.157 301.322 C 216.246 319.992,189.841 335.511,188.479 335.810 C 185.240 336.522,179.043 333.562,177.420 330.529 C 175.555 327.045,175.626 184.826,177.493 181.327 C 179.116 178.288,184.723 175.600,188.160 176.214 C 189.568 176.466,198.592 181.401,208.213 187.181 " stroke="none" fill="black" fill-rule="evenodd"></path></svg>