<svg xmlns="http://www.w3.org/2000/svg" width="512" height="512" viewBox="0 0 512 512"><path d="M243.200 48.291 C 189.307 52.936,145.591 72.806,109.198 109.198 C 75.814 142.582,55.864 183.304,49.403 231.253 C 47.996 241.696,47.996 270.304,49.403 280.747 C 55.866 328.705,75.852 369.495,109.198 402.781 C 142.761 436.282,182.341 455.687,231.253 462.621 C 235.243 463.187,246.379 463.649,256.000 463.649 C 284.931 463.649,308.731 459.018,334.933 448.289 C 361.056 437.593,386.578 420.224,405.701 400.129 C 437.387 366.832,455.931 327.939,462.621 280.747 C 463.187 276.757,463.649 265.621,463.649 256.000 C 463.649 227.171,459.011 203.251,448.395 177.325 C 432.022 137.342,403.062 103.108,365.227 79.011 C 343.385 65.100,312.181 53.926,283.992 49.922 C 275.151 48.666,250.352 47.675,243.200 48.291 M242.930 177.944 C 247.800 181.135,247.858 181.502,248.320 211.819 L 248.747 239.824 262.400 231.566 C 269.909 227.023,293.415 212.800,314.636 199.958 C 335.856 187.117,354.314 176.390,355.655 176.122 C 359.140 175.425,364.037 177.754,366.058 181.069 C 367.750 183.843,367.780 185.179,367.780 256.000 C 367.780 326.821,367.750 328.157,366.058 330.931 C 364.037 334.246,359.140 336.575,355.655 335.878 C 354.314 335.610,335.856 324.883,314.636 312.042 C 293.415 299.200,269.909 284.977,262.400 280.434 L 248.747 272.176 248.320 300.294 C 247.915 326.997,247.805 328.533,246.132 330.819 C 243.710 334.129,238.729 336.492,235.616 335.808 C 234.258 335.509,218.800 326.610,201.266 316.031 C 183.732 305.452,157.867 289.859,143.787 281.380 C 129.707 272.901,117.140 265.003,115.860 263.828 C 110.962 259.332,110.962 252.684,115.860 248.158 C 117.140 246.975,125.867 241.404,135.253 235.778 C 144.640 230.152,169.984 214.874,191.573 201.825 C 213.163 188.777,231.979 177.581,233.387 176.944 C 236.265 175.643,240.018 176.036,242.930 177.944 " stroke="none" fill="black" fill-rule="evenodd"></path></svg>