<svg xmlns="http://www.w3.org/2000/svg" width="512" height="512" viewBox="0 0 512 512"><path d="M243.200 48.291 C 189.307 52.936,145.591 72.806,109.198 109.198 C 75.814 142.582,55.864 183.304,49.403 231.253 C 47.996 241.696,47.996 270.304,49.403 280.747 C 55.866 328.705,75.852 369.495,109.198 402.781 C 142.761 436.282,182.341 455.687,231.253 462.621 C 235.243 463.187,246.379 463.649,256.000 463.649 C 284.931 463.649,308.731 459.018,334.933 448.289 C 361.056 437.593,386.578 420.224,405.701 400.129 C 437.387 366.832,455.931 327.939,462.621 280.747 C 463.187 276.757,463.649 265.621,463.649 256.000 C 463.649 227.171,459.011 203.251,448.395 177.325 C 432.022 137.342,403.062 103.108,365.227 79.011 C 343.385 65.100,312.181 53.926,283.992 49.922 C 275.151 48.666,250.352 47.675,243.200 48.291 M207.360 205.973 L 263.253 239.744 263.680 203.900 L 264.107 168.056 332.126 211.815 C 369.536 235.882,400.144 255.765,400.143 256.000 C 400.142 256.388,266.028 342.237,264.397 342.895 C 264.013 343.049,263.599 327.218,263.476 307.713 L 263.253 272.251 206.507 306.448 C 175.296 325.257,148.512 341.408,146.987 342.339 L 144.213 344.033 144.213 255.989 L 144.213 167.944 147.840 170.073 C 149.835 171.244,176.619 187.399,207.360 205.973 " stroke="none" fill="black" fill-rule="evenodd"></path></svg>