<svg xmlns="http://www.w3.org/2000/svg" width="512" height="512" viewBox="0 0 512 512"><path d="M243.200 48.291 C 189.307 52.936,145.591 72.806,109.198 109.198 C 75.814 142.582,55.864 183.304,49.403 231.253 C 47.996 241.696,47.996 270.304,49.403 280.747 C 55.866 328.705,75.852 369.495,109.198 402.781 C 142.761 436.282,182.341 455.687,231.253 462.621 C 235.243 463.187,246.379 463.649,256.000 463.649 C 284.931 463.649,308.731 459.018,334.933 448.289 C 361.056 437.593,386.578 420.224,405.701 400.129 C 437.387 366.832,455.931 327.939,462.621 280.747 C 463.187 276.757,463.649 265.621,463.649 256.000 C 463.649 227.171,459.011 203.251,448.395 177.325 C 432.022 137.342,403.062 103.108,365.227 79.011 C 343.385 65.100,312.181 53.926,283.992 49.922 C 275.151 48.666,250.352 47.675,243.200 48.291 M196.674 176.738 C 201.024 177.946,206.054 182.976,207.262 187.326 C 207.858 189.474,208.206 200.706,208.209 217.911 L 208.213 245.103 210.486 243.614 C 212.469 242.315,257.610 215.017,306.246 185.705 C 318.819 178.128,322.568 176.252,325.139 176.252 C 329.031 176.252,332.279 177.879,334.288 180.835 C 335.684 182.888,335.802 187.972,336.009 254.720 C 336.217 321.730,336.133 326.591,334.729 329.326 C 332.647 333.381,329.133 335.748,325.196 335.748 C 322.552 335.748,318.949 333.950,306.246 326.291 C 257.924 297.157,212.079 269.430,210.278 268.250 L 208.213 266.897 208.209 294.089 C 208.206 310.160,207.843 322.578,207.322 324.454 C 205.010 332.778,196.232 337.649,187.687 335.347 C 182.994 334.084,177.999 329.214,176.738 324.674 C 175.446 320.020,175.417 192.085,176.707 187.439 C 177.901 183.139,182.189 178.576,186.453 177.068 C 190.645 175.587,192.329 175.532,196.674 176.738 " stroke="none" fill="black" fill-rule="evenodd"></path></svg>