<svg xmlns="http://www.w3.org/2000/svg" width="512" height="512" viewBox="0 0 512 512"><path d="M105.288 65.633 C 100.619 67.753,97.466 72.069,96.409 77.786 C 95.845 80.837,95.627 143.135,95.775 259.031 C 95.992 429.556,96.055 435.737,97.595 438.837 C 100.818 445.322,107.459 448.715,114.779 447.617 C 119.798 446.865,125.833 441.687,127.128 437.024 C 127.676 435.052,127.992 408.787,127.995 365.013 C 127.998 327.115,128.205 296.107,128.455 296.107 C 128.705 296.107,181.601 327.650,246.002 366.202 C 310.402 404.755,364.248 436.785,365.659 437.381 C 370.755 439.530,378.492 440.420,384.155 439.508 C 400.801 436.827,413.573 422.939,415.585 405.333 C 416.700 395.572,416.700 116.428,415.585 106.667 C 413.573 89.061,400.801 75.173,384.155 72.492 C 378.495 71.581,370.764 72.469,365.659 74.617 C 364.248 75.210,310.402 107.241,246.001 145.795 C 181.601 184.349,128.705 215.893,128.455 215.893 C 128.205 215.893,127.998 184.885,127.995 146.987 C 127.992 104.520,127.669 76.923,127.152 75.063 C 126.202 71.641,121.079 66.255,117.491 64.904 C 113.917 63.559,109.239 63.838,105.288 65.633 " stroke="none" fill="black" fill-rule="evenodd"></path></svg>