<svg xmlns="http://www.w3.org/2000/svg" width="512" height="512" viewBox="0 0 512 512"><path d="M180.649 34.098 C 172.454 37.320,165.390 44.452,161.855 53.074 L 160.000 57.600 160.000 267.691 C 160.000 438.935,160.205 477.986,161.109 478.891 C 162.748 480.529,349.252 480.529,350.891 478.891 C 351.793 477.988,352.045 439.602,352.244 272.811 C 352.410 133.826,352.201 65.642,351.596 61.013 C 351.090 57.134,349.799 52.332,348.607 49.892 C 345.858 44.265,339.572 38.065,333.682 35.172 L 328.960 32.853 256.853 32.670 C 187.949 32.495,184.565 32.558,180.649 34.098 M37.973 129.757 C 31.295 131.923,25.498 136.281,21.714 141.981 C 15.815 150.866,16.213 138.826,16.213 308.053 L 16.213 461.381 18.824 466.606 C 21.684 472.328,25.852 476.178,31.710 478.508 C 35.047 479.835,39.744 479.981,79.216 479.990 L 123.019 480.000 125.516 477.206 L 128.012 474.413 127.793 303.266 L 127.573 132.119 125.179 130.059 L 122.785 128.000 82.939 128.048 C 45.857 128.093,42.738 128.211,37.973 129.757 M386.494 194.494 L 384.000 196.989 384.000 335.708 L 384.000 474.426 386.491 477.213 L 388.981 480.000 432.784 479.990 C 472.256 479.981,476.953 479.835,480.290 478.508 C 486.148 476.178,490.316 472.328,493.176 466.606 L 495.787 461.381 495.787 340.053 C 495.787 206.133,496.142 214.801,490.286 205.981 C 486.432 200.176,480.656 195.897,473.723 193.711 C 468.621 192.101,465.958 192.000,428.644 192.000 L 388.989 192.000 386.494 194.494 " stroke="none" fill="black" fill-rule="evenodd"></path></svg>