<svg xmlns="http://www.w3.org/2000/svg" width="512" height="512" viewBox="0 0 512 512"><path d="M250.453 49.068 C 246.189 50.576,241.901 55.139,240.707 59.439 C 239.408 64.119,239.437 255.988,240.738 260.674 C 241.999 265.214,246.994 270.084,251.687 271.347 C 260.232 273.649,269.010 268.778,271.322 260.454 C 272.595 255.873,272.536 63.918,271.262 59.326 C 269.557 53.185,262.078 47.704,255.573 47.829 C 254.635 47.847,252.331 48.405,250.453 49.068 M125.647 94.013 C 120.408 96.878,106.147 110.477,97.484 120.868 C 70.523 153.208,54.777 189.328,49.364 231.253 C 48.005 241.778,48.035 270.383,49.415 280.747 C 59.529 356.663,107.831 420.064,177.067 448.304 C 203.509 459.089,227.771 463.751,256.853 463.634 C 290.198 463.499,318.398 456.932,347.733 442.471 C 410.959 411.301,452.379 352.978,462.586 280.747 C 463.927 271.260,463.966 242.409,462.653 232.107 C 457.661 192.947,443.407 158.565,419.140 127.147 C 412.857 119.013,393.079 98.996,387.660 95.287 C 383.780 92.632,378.946 91.637,374.222 92.524 C 368.243 93.645,361.877 101.629,361.832 108.063 C 361.800 112.580,365.988 118.822,373.333 125.204 C 402.252 150.332,422.371 186.833,429.669 227.413 C 431.871 239.654,432.292 263.598,430.548 277.333 C 422.296 342.317,380.349 396.159,319.249 420.197 C 286.872 432.934,247.726 435.253,212.929 426.496 C 148.399 410.255,98.670 358.900,84.189 293.547 C 70.652 232.453,90.959 168.246,137.344 125.479 C 142.117 121.079,146.630 116.303,147.373 114.866 C 149.248 111.239,149.115 104.070,147.109 100.645 C 142.547 92.858,133.097 89.938,125.647 94.013 " stroke="none" fill="black" fill-rule="evenodd"></path></svg>