<svg xmlns="http://www.w3.org/2000/svg" width="512" height="512" viewBox="0 0 512 512"><path d="M269.562 18.222 C 266.930 19.305,263.666 20.998,262.308 21.986 C 260.951 22.973,203.170 80.542,133.907 149.917 C -2.903 286.947,4.306 279.226,1.314 291.919 C -0.317 298.839,-0.322 305.300,1.298 312.171 C 4.245 324.672,1.754 321.844,71.199 391.520 C 134.409 454.941,135.344 455.832,142.141 459.146 C 155.508 465.665,168.480 465.584,182.057 458.898 C 188.999 455.479,189.282 455.204,315.843 328.643 C 429.289 215.197,442.932 201.273,445.123 196.693 L 447.573 191.573 447.811 123.972 C 448.074 49.221,448.132 50.161,442.669 39.768 C 439.043 32.869,430.944 24.785,424.297 21.429 C 413.693 16.076,415.837 16.211,341.794 16.234 L 274.347 16.254 269.562 18.222 M410.253 50.201 C 415.839 54.185,415.573 50.679,415.573 120.498 L 415.573 183.907 292.480 306.951 C 222.636 376.767,168.347 430.382,166.984 430.891 C 163.619 432.146,159.048 432.006,156.331 430.564 C 155.064 429.891,126.667 401.949,93.227 368.470 L 32.427 307.599 32.427 303.077 C 32.427 300.589,32.850 297.716,33.368 296.691 C 33.886 295.665,89.854 239.236,157.742 171.292 L 281.173 47.758 344.320 47.986 L 407.467 48.213 410.253 50.201 M489.288 65.633 C 484.677 67.726,481.491 72.043,480.431 77.632 C 479.905 80.403,479.573 106.460,479.573 144.971 L 479.573 207.789 348.530 338.774 C 273.902 413.370,216.777 471.123,215.837 472.926 C 212.837 478.682,214.335 487.534,219.003 491.630 C 223.957 495.979,231.498 497.027,237.047 494.139 C 238.858 493.196,297.412 435.212,373.845 358.672 C 492.992 239.359,507.699 224.345,509.525 220.160 L 511.573 215.467 511.829 148.053 C 511.970 110.976,511.844 78.967,511.550 76.923 C 511.159 74.204,510.090 72.202,507.571 69.470 C 502.474 63.939,496.005 62.582,489.288 65.633 M341.760 81.751 C 318.707 89.759,312.673 119.087,330.690 135.553 C 337.009 141.328,343.121 143.651,352.000 143.651 C 360.879 143.651,366.991 141.328,373.310 135.553 C 385.746 124.187,387.374 106.070,377.178 92.511 C 373.482 87.597,367.162 83.189,361.267 81.415 C 355.875 79.792,346.957 79.946,341.760 81.751 " stroke="none" fill="black" fill-rule="evenodd"></path></svg>