<svg xmlns="http://www.w3.org/2000/svg" width="512" height="512" viewBox="0 0 512 512"><path d="M303.787 33.225 C 296.308 35.508,293.036 38.648,168.702 162.856 C 93.050 238.432,42.119 289.948,40.119 292.919 C 34.873 300.711,33.060 306.355,32.623 316.263 C 32.336 322.763,32.600 326.140,33.690 329.916 C 37.228 342.174,35.785 340.554,103.616 408.378 C 171.129 475.886,169.833 474.726,181.702 478.212 C 187.405 479.887,199.372 479.976,205.339 478.387 C 217.403 475.175,210.702 481.469,347.071 345.269 C 452.853 239.620,474.014 218.100,476.351 213.792 L 479.147 208.640 479.380 139.166 C 479.587 77.358,479.461 69.165,478.237 64.926 C 473.853 49.735,462.413 38.255,447.205 33.788 C 443.122 32.589,434.432 32.435,374.245 32.500 C 336.666 32.540,304.960 32.866,303.787 33.225 M441.187 65.582 C 442.822 66.452,445.018 68.660,446.066 70.489 L 447.972 73.813 447.986 136.537 L 448.000 199.261 324.480 322.737 C 254.250 392.941,199.924 446.598,198.558 447.106 C 194.968 448.442,191.449 448.193,187.913 446.353 C 183.987 444.310,67.259 327.452,65.367 323.669 C 63.629 320.198,63.628 316.395,65.361 312.918 C 66.110 311.416,122.078 254.795,189.734 187.093 L 312.744 64.000 375.479 64.000 C 434.930 64.000,438.369 64.083,441.187 65.582 M372.649 98.059 C 364.304 101.418,357.183 108.674,353.993 117.068 C 351.442 123.784,351.988 135.199,355.172 141.682 C 358.133 147.710,364.290 153.867,370.318 156.828 C 374.545 158.904,375.979 159.147,384.000 159.147 C 392.021 159.147,393.455 158.904,397.682 156.828 C 403.710 153.867,409.867 147.710,412.828 141.682 C 414.904 137.455,415.147 136.021,415.147 128.000 C 415.147 119.979,414.904 118.545,412.828 114.318 C 409.869 108.294,403.706 102.128,397.710 99.195 C 391.366 96.091,378.938 95.528,372.649 98.059 " stroke="none" fill="black" fill-rule="evenodd"></path></svg>