<svg xmlns="http://www.w3.org/2000/svg" width="512" height="512" viewBox="0 0 512 512"><path d="M159.366 48.656 C 147.641 50.666,137.479 55.935,128.803 64.504 C 120.635 72.570,115.017 82.873,113.142 93.227 L 112.563 96.427 256.000 96.427 L 399.437 96.427 398.858 93.227 C 396.983 82.873,391.365 72.570,383.197 64.504 C 376.412 57.802,369.614 53.611,360.533 50.530 L 353.707 48.213 258.560 48.088 C 206.229 48.019,161.592 48.275,159.366 48.656 M97.257 112.682 C 85.216 114.476,74.505 120.027,65.161 129.317 C 59.374 135.071,57.574 137.563,54.364 144.271 C 52.245 148.698,49.994 154.432,49.362 157.013 C 48.437 160.792,48.213 178.752,48.213 249.173 C 48.213 347.661,47.786 340.877,54.842 354.462 C 63.902 371.905,81.611 382.780,102.613 383.797 L 111.787 384.242 111.801 405.241 C 111.822 434.894,113.524 441.362,124.081 451.919 C 130.157 457.995,136.125 461.294,144.101 462.984 C 152.601 464.786,359.506 464.763,368.017 462.960 C 376.047 461.258,383.194 457.205,388.752 451.202 C 398.654 440.507,400.178 434.387,400.199 405.241 L 400.213 384.242 409.387 383.797 C 430.445 382.778,448.083 371.934,457.182 354.415 C 464.214 340.877,463.787 347.738,463.787 248.320 C 463.787 150.827,464.063 155.994,458.200 143.787 C 452.673 132.277,444.265 123.692,433.067 118.125 C 420.204 111.730,435.691 112.267,259.840 112.115 C 173.013 112.041,99.851 112.295,97.257 112.682 M402.568 162.617 C 417.498 170.057,420.457 190.108,408.281 201.332 C 403.112 206.096,399.218 207.607,392.107 207.607 C 384.988 207.607,381.102 206.096,375.911 201.312 C 363.514 189.885,366.610 169.689,381.867 162.464 C 388.004 159.557,396.555 159.621,402.568 162.617 M365.727 258.821 L 367.787 261.215 367.787 344.007 L 367.787 426.798 365.292 429.292 L 362.798 431.787 256.000 431.787 L 149.202 431.787 146.708 429.292 L 144.213 426.798 144.213 344.149 C 144.213 254.230,143.974 258.796,148.785 256.841 C 149.797 256.430,198.179 256.171,257.141 256.262 L 363.668 256.427 365.727 258.821 " stroke="none" fill="black" fill-rule="evenodd"></path></svg>