<svg xmlns="http://www.w3.org/2000/svg" width="512" height="512" viewBox="0 0 512 512"><path d="M170.504 48.947 C 160.437 51.739,156.769 56.722,152.392 73.549 C 150.646 80.265,137.013 133.376,122.099 191.573 L 94.981 297.387 63.490 297.813 L 32.000 298.240 32.000 320.000 L 32.000 341.760 72.926 341.982 C 118.700 342.230,119.644 342.134,126.132 336.580 C 128.131 334.869,130.463 332.071,131.315 330.362 C 132.167 328.652,141.423 292.885,151.884 250.880 C 162.345 208.875,171.139 174.240,171.425 173.913 C 171.712 173.587,182.275 234.067,194.899 308.313 C 207.523 382.560,218.312 445.118,218.874 447.331 C 221.077 456.014,228.428 462.577,237.320 463.800 C 245.872 464.976,256.337 459.308,259.670 451.696 C 260.457 449.898,270.897 415.403,282.869 375.040 C 294.842 334.677,304.874 301.077,305.163 300.373 C 305.463 299.644,307.793 305.337,310.577 313.600 C 316.448 331.025,317.224 332.605,321.860 336.574 C 327.755 341.619,331.106 342.183,355.355 342.212 L 376.747 342.237 379.733 347.494 C 388.706 363.286,407.269 373.782,426.163 373.747 C 441.128 373.720,453.116 368.705,463.803 358.001 C 474.828 346.958,479.573 335.524,479.573 320.000 C 479.573 304.476,474.828 293.042,463.803 281.999 C 453.018 271.197,441.143 266.279,425.779 266.253 C 413.675 266.232,402.443 270.134,392.428 277.841 C 387.296 281.790,380.781 289.661,378.192 295.040 L 376.857 297.813 364.286 297.813 L 351.715 297.813 337.878 256.213 C 322.569 210.190,321.867 208.667,314.101 204.609 C 303.120 198.873,288.484 204.045,283.889 215.285 C 283.273 216.793,274.537 246.920,264.477 282.234 C 254.418 317.548,245.995 346.442,245.760 346.444 C 245.525 346.446,234.610 283.377,221.503 206.290 C 208.396 129.204,197.143 64.546,196.496 62.606 C 193.075 52.340,181.051 46.022,170.504 48.947 " stroke="none" fill="black" fill-rule="evenodd"></path></svg>