<svg xmlns="http://www.w3.org/2000/svg" width="512" height="512" viewBox="0 0 512 512"><path d="M85.588 34.099 C 79.785 37.637,80.213 25.032,80.217 192.171 C 80.220 340.723,80.250 343.516,81.885 346.199 C 82.802 347.701,84.816 349.621,86.362 350.465 C 88.999 351.905,93.854 352.015,164.480 352.236 L 239.787 352.471 239.787 278.853 L 239.787 205.235 208.422 236.591 C 191.172 253.837,176.671 267.947,176.197 267.947 C 175.723 267.947,170.447 263.047,164.472 257.059 L 153.609 246.172 204.805 194.982 L 256.000 143.792 307.195 194.982 L 358.391 246.172 347.528 257.059 C 341.553 263.047,336.277 267.947,335.803 267.947 C 335.329 267.947,320.828 253.837,303.578 236.591 L 272.213 205.235 272.213 278.853 L 272.213 352.471 347.520 352.236 C 418.146 352.015,423.001 351.905,425.638 350.465 C 427.184 349.621,429.198 347.701,430.115 346.199 C 431.750 343.516,431.780 340.723,431.783 192.171 C 431.787 25.032,432.215 37.637,426.412 34.099 C 423.727 32.462,420.805 32.433,256.000 32.433 C 91.195 32.433,88.273 32.462,85.588 34.099 M240.187 352.621 C 239.959 353.218,239.871 382.123,239.993 416.853 L 240.213 480.000 256.000 480.000 L 271.787 480.000 271.787 416.000 L 271.787 352.000 256.194 351.767 C 244.186 351.588,240.506 351.784,240.187 352.621 " stroke="none" fill="black" fill-rule="evenodd"></path></svg>