<svg xmlns="http://www.w3.org/2000/svg" width="512" height="512" viewBox="0 0 512 512"><path d="M240.213 16.743 C 210.522 21.147,187.530 30.875,166.815 47.798 C 158.371 54.695,147.338 66.557,140.584 75.998 C 128.995 92.199,117.809 118.462,113.863 138.739 C 113.048 142.923,112.281 146.473,112.158 146.628 C 112.035 146.783,108.733 147.619,104.821 148.486 C 73.726 155.376,48.420 172.759,35.085 196.388 C 31.761 202.278,27.683 213.306,25.849 221.361 C 23.867 230.073,23.906 252.378,25.921 261.799 C 30.159 281.616,37.600 295.406,50.879 308.055 C 65.107 321.607,81.380 329.358,105.813 334.222 C 112.384 335.531,124.958 335.696,239.360 335.984 C 324.670 336.198,368.941 336.005,375.786 335.388 C 407.686 332.514,433.849 320.666,454.854 299.581 C 471.500 282.871,481.514 263.943,486.034 240.640 C 488.131 229.833,488.163 208.502,486.099 197.153 C 478.311 154.316,447.666 121.751,402.522 108.340 C 397.896 106.965,391.623 105.408,388.583 104.878 C 383.188 103.939,383.023 103.832,381.666 100.385 C 377.086 88.759,366.471 71.948,357.237 61.698 C 336.463 38.637,313.264 25.083,283.733 18.755 C 277.142 17.343,271.511 16.863,258.987 16.645 C 250.069 16.490,241.621 16.534,240.213 16.743 M118.790 393.118 L 93.939 430.407 107.210 439.265 C 114.509 444.137,120.585 448.000,120.712 447.848 C 121.776 446.580,169.167 375.066,169.475 374.264 C 169.813 373.384,162.107 367.840,145.848 357.263 L 143.642 355.829 118.790 393.118 M182.747 417.079 L 141.904 478.335 155.106 487.131 C 162.367 491.968,168.601 495.607,168.959 495.217 C 170.382 493.663,250.126 373.578,249.872 373.370 C 249.722 373.248,243.748 369.250,236.595 364.486 L 223.590 355.824 182.747 417.079 M278.677 393.004 C 264.154 414.844,254.319 430.420,254.784 430.845 C 256.182 432.125,278.920 447.109,279.822 447.345 C 280.302 447.471,291.827 430.892,305.433 410.504 L 330.171 373.435 316.991 364.637 C 309.742 359.799,303.709 355.850,303.585 355.863 C 303.461 355.875,292.253 372.589,278.677 393.004 M342.757 416.848 C 320.384 450.407,302.080 478.051,302.080 478.279 C 302.080 478.852,327.483 495.792,328.300 495.763 C 329.031 495.737,409.027 375.914,409.419 374.256 C 409.621 373.405,401.198 367.387,385.637 357.265 L 383.433 355.832 342.757 416.848 " stroke="none" fill="black" fill-rule="evenodd"></path></svg>