<svg xmlns="http://www.w3.org/2000/svg" width="512" height="512" viewBox="0 0 512 512"><path d="M240.213 16.743 C 229.634 18.312,218.000 20.991,210.579 23.566 C 174.480 36.091,145.963 61.357,128.467 96.319 C 122.273 108.695,119.996 115.040,113.958 136.743 C 111.842 144.350,108.789 147.200,99.965 149.801 C 75.767 156.935,64.304 163.107,50.709 176.319 C 37.663 188.997,30.089 202.703,25.868 221.271 C 23.867 230.077,23.896 252.328,25.921 261.799 C 30.159 281.616,37.600 295.406,50.879 308.055 C 65.107 321.607,81.380 329.358,105.813 334.222 C 112.384 335.531,124.958 335.696,239.360 335.984 C 324.670 336.198,368.941 336.005,375.786 335.388 C 407.686 332.514,433.849 320.666,454.854 299.581 C 471.500 282.871,481.514 263.943,486.034 240.640 C 488.131 229.833,488.163 208.502,486.099 197.153 C 477.986 152.530,445.275 119.356,397.028 106.822 C 384.881 103.666,382.923 102.188,378.101 92.542 C 361.665 59.661,332.917 34.151,299.872 23.122 C 285.589 18.355,276.742 16.954,258.987 16.645 C 250.069 16.490,241.621 16.534,240.213 16.743 M138.824 369.023 C 137.032 369.662,134.768 370.893,133.792 371.759 C 132.815 372.625,124.009 385.346,114.222 400.029 L 96.427 426.725 96.427 431.474 C 96.427 434.085,97.049 437.533,97.809 439.134 C 102.033 448.037,114.467 450.735,121.761 444.331 C 124.526 441.903,154.735 397.708,158.171 391.064 C 160.101 387.332,159.967 380.437,157.886 376.358 C 156.036 372.731,153.031 370.285,148.566 368.771 C 144.886 367.522,142.886 367.574,138.824 369.023 M219.012 369.031 C 217.208 369.675,214.758 371.098,213.569 372.194 C 211.441 374.154,148.318 468.139,145.604 473.386 C 142.857 478.698,144.546 487.696,149.029 491.630 C 154.184 496.155,161.909 497.075,167.680 493.853 C 170.623 492.209,175.797 484.907,205.227 440.857 L 239.360 389.766 239.360 384.047 C 239.360 376.859,237.047 373.005,230.872 369.905 C 226.116 367.518,223.747 367.343,219.012 369.031 M299.093 368.918 C 297.685 369.469,295.651 370.423,294.573 371.038 C 291.614 372.726,257.076 425.038,256.344 428.940 C 254.815 437.091,261.149 446.407,269.023 447.587 C 273.641 448.280,276.858 447.680,280.542 445.440 C 282.401 444.309,288.667 435.678,300.452 418.015 C 309.911 403.839,318.178 390.975,318.825 389.428 C 322.208 381.329,316.995 371.109,308.240 368.678 C 304.308 367.586,302.369 367.637,299.093 368.918 M378.610 369.023 C 376.819 369.662,374.557 370.893,373.584 371.759 C 371.779 373.365,308.475 467.783,306.133 472.362 C 302.878 478.727,303.639 485.082,308.289 490.378 C 314.255 497.173,324.063 497.746,330.562 491.679 C 331.913 490.418,347.901 467.077,366.092 439.809 C 391.032 402.426,399.309 389.384,399.749 386.785 C 401.039 379.149,395.877 370.738,388.674 368.738 C 384.354 367.539,382.635 367.588,378.610 369.023 " stroke="none" fill="black" fill-rule="evenodd"></path></svg>