<svg xmlns="http://www.w3.org/2000/svg" width="512" height="512" viewBox="0 0 512 512"><path d="M144.213 160.427 L 144.213 288.427 255.972 288.427 L 367.731 288.427 367.972 360.320 L 368.213 432.213 370.513 438.512 C 377.363 457.268,394.765 472.077,416.853 477.947 C 425.971 480.370,448.047 480.638,456.533 478.428 C 466.206 475.911,472.567 472.245,479.574 465.148 C 486.421 458.214,490.106 452.146,493.357 442.453 L 495.360 436.480 495.584 234.453 C 495.707 123.339,495.507 32.427,495.139 32.427 C 494.772 32.427,484.111 35.903,471.449 40.152 L 448.427 47.877 432.427 39.956 L 416.427 32.036 400.412 40.008 L 384.398 47.979 368.420 40.004 L 352.441 32.029 336.420 40.004 L 320.398 47.979 304.412 40.000 L 288.427 32.021 272.441 40.000 L 256.455 47.979 240.441 40.008 L 224.427 32.036 208.363 40.032 L 192.299 48.028 168.896 40.228 C 156.024 35.937,145.205 32.427,144.853 32.427 C 144.501 32.427,144.213 90.027,144.213 160.427 M431.787 144.217 L 431.787 160.433 320.213 160.217 L 208.640 160.000 208.408 144.000 L 208.176 128.000 319.981 128.000 L 431.787 128.000 431.787 144.217 M431.787 224.000 L 431.787 239.787 352.000 239.787 L 272.213 239.787 272.213 224.000 L 272.213 208.213 352.000 208.213 L 431.787 208.213 431.787 224.000 M16.477 353.920 C 17.014 393.300,18.111 404.425,23.191 421.973 C 29.428 443.518,43.326 460.764,61.867 469.967 C 73.344 475.663,85.513 478.464,103.680 479.589 C 118.864 480.530,366.960 480.716,366.874 479.787 C 366.842 479.435,364.532 477.305,361.741 475.055 C 351.844 467.074,343.074 454.520,338.965 442.453 L 336.640 435.627 336.398 377.813 L 336.157 320.000 176.085 320.000 L 16.014 320.000 16.477 353.920 " stroke="none" fill="black" fill-rule="evenodd"></path></svg>