<svg xmlns="http://www.w3.org/2000/svg" width="512" height="512" viewBox="0 0 512 512"><path d="M250.586 43.058 C 242.645 45.889,238.438 54.066,240.649 62.371 C 241.533 65.689,244.727 69.222,267.712 92.304 L 293.773 118.474 266.993 118.362 C 237.604 118.239,230.407 118.937,212.007 123.699 C 112.610 149.423,56.391 254.237,89.781 351.573 C 107.282 402.593,148.784 443.666,200.064 460.719 C 244.204 475.397,290.818 472.426,332.618 452.269 C 387.051 426.021,424.295 373.231,430.881 312.994 C 432.319 299.836,432.068 290.617,430.171 286.899 C 425.342 277.437,413.138 275.226,405.029 282.343 C 401.706 285.260,400.464 289.433,399.873 299.668 C 398.188 328.867,390.293 352.468,374.517 375.467 C 347.576 414.743,303.785 437.760,256.000 437.760 C 207.507 437.760,163.417 414.201,136.398 373.854 C 119.947 349.287,112.311 323.963,112.311 293.973 C 112.311 278.807,113.250 271.349,116.983 256.860 C 128.843 210.827,165.545 172.045,211.409 157.081 C 228.900 151.373,235.462 150.612,267.093 150.622 C 282.816 150.627,296.424 150.931,297.334 151.297 C 298.744 151.865,294.878 156.090,271.187 179.875 C 255.896 195.226,242.814 208.939,242.115 210.347 C 238.890 216.850,239.644 223.114,244.289 228.405 C 248.680 233.406,255.583 235.196,261.704 232.921 C 264.417 231.913,348.452 148.465,350.349 144.896 C 351.947 141.889,351.916 134.526,350.291 131.101 C 349.585 129.614,329.905 109.333,306.557 86.030 C 270.351 49.895,263.605 43.527,260.693 42.743 C 256.327 41.566,254.621 41.619,250.586 43.058 " stroke="none" fill="black" fill-rule="evenodd"></path></svg>