<svg xmlns="http://www.w3.org/2000/svg" width="512" height="512" viewBox="0 0 512 512"><path d="M223.573 48.618 C 124.621 57.247,46.503 131.806,33.738 229.804 C 32.021 242.988,32.021 269.012,33.738 282.196 C 44.001 360.984,97.231 426.497,172.180 452.585 C 193.612 460.045,214.544 463.533,238.507 463.638 C 266.629 463.762,289.717 459.639,314.880 450.001 C 341.873 439.662,365.351 424.186,387.039 402.436 C 405.129 384.295,415.311 370.221,426.304 348.160 C 430.941 338.856,439.245 318.178,440.745 312.204 C 441.235 310.250,440.654 309.954,426.495 304.919 C 416.171 301.249,411.565 299.969,411.173 300.662 C 410.865 301.207,408.808 306.645,406.603 312.747 C 396.315 341.204,382.938 362.126,362.119 382.322 C 347.945 396.071,335.876 404.667,318.720 413.231 C 294.526 425.309,272.424 430.790,244.907 431.537 C 221.614 432.168,202.898 429.326,181.760 421.946 C 123.491 401.604,79.509 351.036,67.485 290.560 C 49.166 198.426,106.154 108.378,197.358 85.346 C 224.949 78.378,256.631 78.569,284.897 85.873 C 307.800 91.792,331.850 103.995,350.898 119.361 C 357.916 125.023,376.320 143.898,376.320 145.434 C 376.320 145.940,360.192 162.479,340.480 182.187 C 314.675 207.986,304.640 218.552,304.640 219.923 C 304.640 224.611,302.065 224.473,385.220 224.227 C 459.895 224.006,461.821 223.959,463.002 222.344 C 464.027 220.942,464.213 208.937,464.213 144.421 C 464.213 93.480,463.920 67.606,463.330 66.504 C 462.789 65.493,461.547 64.853,460.125 64.853 C 458.213 64.853,452.696 69.963,428.839 93.828 L 399.874 122.802 390.056 112.497 C 378.185 100.039,369.284 92.496,355.542 83.251 C 330.159 66.174,300.664 54.773,270.357 50.325 C 257.233 48.399,235.277 47.598,223.573 48.618 " stroke="none" fill="black" fill-rule="evenodd"></path></svg>