<svg xmlns="http://www.w3.org/2000/svg" width="512" height="512" viewBox="0 0 512 512"><path d="M243.200 48.291 C 189.307 52.936,145.591 72.806,109.198 109.198 C 75.814 142.582,55.864 183.304,49.403 231.253 C 47.996 241.696,47.996 270.304,49.403 280.747 C 55.866 328.705,75.852 369.495,109.198 402.781 C 142.761 436.282,182.341 455.687,231.253 462.621 C 235.243 463.187,246.379 463.649,256.000 463.649 C 284.931 463.649,308.731 459.018,334.933 448.289 C 361.056 437.593,386.578 420.224,405.701 400.129 C 437.387 366.832,455.931 327.939,462.621 280.747 C 463.187 276.757,463.649 265.621,463.649 256.000 C 463.649 227.171,459.011 203.251,448.395 177.325 C 432.022 137.342,403.062 103.108,365.227 79.011 C 343.385 65.100,312.181 53.926,283.992 49.922 C 275.151 48.666,250.352 47.675,243.200 48.291 M340.566 240.771 C 347.719 243.197,351.573 248.530,351.573 256.000 C 351.573 263.470,347.719 268.803,340.566 271.229 C 336.431 272.632,175.569 272.632,171.434 271.229 C 164.281 268.803,160.427 263.470,160.427 256.000 C 160.427 248.690,164.247 243.256,171.093 240.829 C 174.862 239.493,336.635 239.437,340.566 240.771 " stroke="none" fill="black" fill-rule="evenodd"></path></svg>