<svg xmlns="http://www.w3.org/2000/svg" width="512" height="512" viewBox="0 0 512 512"><path d="M88.807 161.921 C 87.198 162.742,84.702 164.889,83.261 166.693 C 80.920 169.622,80.640 170.585,80.640 175.715 C 80.640 182.879,83.255 187.428,88.960 190.190 L 92.699 192.000 256.000 192.000 L 419.301 192.000 423.040 190.190 C 428.745 187.428,431.360 182.879,431.360 175.715 C 431.360 170.585,431.080 169.622,428.739 166.693 C 427.298 164.889,424.802 162.742,423.193 161.921 C 420.437 160.516,410.704 160.429,256.000 160.429 C 101.296 160.429,91.563 160.516,88.807 161.921 M90.997 241.037 C 79.352 245.188,76.432 259.642,85.610 267.700 C 87.309 269.193,90.151 270.816,91.923 271.309 C 96.427 272.559,415.573 272.559,420.077 271.309 C 424.087 270.195,429.110 265.875,430.634 262.227 C 432.108 258.699,432.108 253.301,430.634 249.773 C 429.110 246.125,424.087 241.805,420.077 240.691 C 417.878 240.081,365.593 239.807,255.573 239.829 C 120.841 239.856,93.751 240.055,90.997 241.037 M88.890 321.831 C 83.231 324.632,80.640 329.171,80.640 336.285 C 80.640 341.411,80.921 342.381,83.255 345.307 C 84.693 347.111,87.381 349.355,89.228 350.293 C 92.552 351.982,94.275 352.000,256.000 352.000 C 417.725 352.000,419.448 351.982,422.772 350.293 C 424.619 349.355,427.307 347.111,428.745 345.307 C 431.079 342.381,431.360 341.411,431.360 336.285 C 431.360 329.121,428.745 324.572,423.040 321.810 L 419.301 320.000 255.944 320.001 L 92.587 320.001 88.890 321.831 " stroke="none" fill="black" fill-rule="evenodd"></path></svg>