<svg xmlns="http://www.w3.org/2000/svg" width="512" height="512" viewBox="0 0 512 512"><path d="M44.905 20.149 C 37.587 30.095,31.243 45.122,28.014 60.160 C 25.839 70.291,25.007 93.694,26.391 105.813 C 30.472 141.541,44.457 176.861,65.921 205.653 C 74.001 216.491,177.100 319.740,185.069 324.974 C 188.062 326.940,192.668 329.176,195.303 329.942 C 201.637 331.783,209.285 330.632,221.635 325.978 C 234.688 321.059,234.783 321.076,244.711 330.141 C 258.336 342.582,257.406 340.980,258.017 353.073 C 258.839 369.317,262.444 377.849,273.561 389.856 C 278.947 395.674,382.731 495.132,383.877 495.574 C 384.183 495.692,400.558 479.660,420.267 459.947 L 456.101 424.105 389.539 357.332 C 352.930 320.608,317.799 285.279,311.471 278.824 L 299.965 267.088 321.615 245.425 L 343.266 223.762 357.873 223.363 C 370.566 223.016,373.481 222.662,380.118 220.662 C 389.238 217.915,398.607 213.161,406.187 207.435 C 409.237 205.130,430.656 184.033,453.785 160.553 L 495.836 117.861 484.988 106.664 L 474.140 95.467 432.266 137.334 L 390.392 179.202 381.648 170.459 L 372.905 161.715 414.686 119.898 L 456.468 78.080 444.909 67.062 L 433.350 56.043 391.817 97.569 L 350.285 139.095 341.541 130.352 L 332.798 121.608 374.656 79.744 L 416.515 37.879 405.354 26.997 L 394.193 16.115 352.357 57.337 C 303.594 105.386,302.689 106.384,296.228 119.214 C 290.822 129.950,289.079 137.964,288.637 154.127 L 288.238 168.734 266.574 190.386 L 244.910 212.038 229.761 197.116 C 221.430 188.909,177.120 144.795,131.294 99.086 L 47.974 15.978 44.905 20.149 M69.281 363.341 L 16.108 416.000 56.057 455.893 L 96.005 495.785 167.681 424.106 C 207.102 384.682,239.018 352.427,238.604 352.427 C 238.190 352.427,231.087 353.835,222.819 355.557 C 210.481 358.126,205.951 358.693,197.547 358.720 C 188.569 358.749,186.490 358.468,180.681 356.445 C 167.675 351.915,158.262 345.005,137.730 324.918 C 129.689 317.050,122.961 310.629,122.781 310.648 C 122.601 310.667,98.526 334.379,69.281 363.341 " stroke="none" fill="black" fill-rule="evenodd"></path></svg>