<svg xmlns="http://www.w3.org/2000/svg" width="512" height="512" viewBox="0 0 512 512"><path d="M431.787 33.379 C 395.544 37.515,344.707 54.606,302.080 76.985 C 248.288 105.225,207.910 138.099,177.056 178.773 L 171.230 186.453 158.788 186.180 C 126.513 185.471,104.364 192.363,82.493 209.920 C 69.743 220.155,57.723 235.945,48.995 253.923 C 41.110 270.164,32.453 299.063,32.434 309.205 C 32.428 312.779,32.822 313.740,35.328 316.245 C 37.239 318.156,39.041 319.147,40.607 319.147 C 41.914 319.147,62.353 317.020,86.027 314.420 C 109.701 311.820,129.260 309.882,129.491 310.113 C 129.722 310.344,130.235 315.209,130.633 320.925 C 131.030 326.640,131.803 332.706,132.352 334.405 C 133.078 336.654,138.685 342.871,152.981 357.280 C 176.191 380.672,175.946 380.519,191.322 381.227 C 196.889 381.484,201.617 381.976,201.830 382.320 C 202.043 382.665,200.112 401.904,197.539 425.074 C 194.966 448.243,192.859 468.678,192.857 470.485 C 192.854 473.112,193.459 474.376,195.875 476.792 C 198.838 479.756,198.998 479.804,204.195 479.319 C 211.361 478.650,225.407 475.260,236.800 471.450 C 278.611 457.468,307.593 431.964,319.466 398.706 C 323.929 386.205,325.373 376.543,325.577 357.811 L 325.765 340.582 334.189 334.232 C 357.152 316.924,378.121 295.858,396.653 271.482 C 438.286 216.720,470.736 142.596,478.257 85.076 C 480.517 67.792,479.631 40.286,476.685 36.257 C 474.339 33.049,448.940 31.421,431.787 33.379 M341.333 137.929 C 356.410 142.105,369.787 155.580,374.235 171.072 C 376.172 177.817,376.168 189.991,374.227 196.715 C 369.682 212.459,357.819 224.490,341.333 230.075 C 335.009 232.217,320.558 232.189,314.453 230.022 C 305.316 226.779,300.745 223.948,294.397 217.602 C 279.303 202.512,275.844 182.480,285.028 163.341 C 295.261 142.017,318.397 131.575,341.333 137.929 M100.267 337.823 C 89.312 341.007,79.315 347.102,72.501 354.750 C 62.923 365.502,55.562 389.567,51.286 424.107 C 49.653 437.303,47.545 463.403,48.071 463.929 C 48.599 464.456,74.713 462.345,87.893 460.709 C 126.922 455.866,149.479 448.257,160.530 436.208 C 166.273 429.946,170.178 423.443,172.906 415.599 C 178.345 399.959,175.620 394.715,165.568 401.479 C 157.407 406.971,141.501 410.507,132.273 408.882 C 113.817 405.631,100.922 389.298,102.747 371.485 C 103.656 362.618,109.787 345.230,112.624 343.477 C 113.823 342.735,113.718 338.486,112.469 337.237 C 111.059 335.827,106.358 336.052,100.267 337.823 " stroke="none" fill="black" fill-rule="evenodd"></path></svg>