<svg xmlns="http://www.w3.org/2000/svg" width="512" height="512" viewBox="0 0 512 512"><path d="M169.131 17.640 C 165.447 19.456,162.008 23.588,155.649 33.846 C 147.288 47.331,143.218 55.699,144.450 56.873 C 145.024 57.420,149.224 58.871,153.784 60.099 C 158.345 61.327,168.412 64.435,176.156 67.006 C 183.900 69.576,190.803 71.680,191.497 71.680 C 192.190 71.680,198.250 68.091,204.965 63.705 C 211.680 59.319,220.437 53.854,224.427 51.562 C 232.477 46.935,233.271 46.203,231.954 44.616 C 228.743 40.748,207.212 27.750,195.442 22.575 C 180.463 15.989,174.681 14.905,169.131 17.640 M329.387 48.362 C 301.543 51.179,266.431 63.637,237.395 81.001 C 231.620 84.455,231.183 84.919,231.422 87.338 C 231.648 89.624,232.561 90.455,238.767 94.026 C 248.836 99.820,259.472 107.246,268.373 114.696 C 272.597 118.232,276.528 121.135,277.108 121.149 C 277.688 121.162,283.895 118.885,290.901 116.088 C 308.315 109.135,334.874 99.939,350.293 95.523 C 357.333 93.507,363.573 91.495,364.160 91.051 C 366.311 89.424,365.056 85.700,357.021 69.866 C 348.486 53.047,346.759 50.831,340.566 48.758 C 337.746 47.814,335.567 47.737,329.387 48.362 M89.173 81.818 C 85.113 83.683,83.294 85.586,81.526 89.817 C 78.553 96.932,80.161 102.036,88.321 111.393 C 101.021 125.955,109.381 142.811,113.072 161.301 C 115.003 170.968,115.596 189.089,114.404 201.966 C 113.224 214.719,113.670 216.747,117.658 216.747 C 119.021 216.747,120.757 215.966,121.681 214.937 C 124.565 211.726,141.025 197.570,148.053 192.257 C 163.775 180.372,200.572 158.284,224.853 146.157 C 239.071 139.056,240.640 137.969,240.640 135.222 C 240.640 132.937,238.170 130.977,226.133 123.714 C 198.975 107.325,153.350 91.088,109.973 82.377 C 97.220 79.816,93.737 79.722,89.173 81.818 M402.281 114.748 C 331.381 131.583,269.537 156.201,206.507 192.680 C 176.940 209.791,159.913 222.168,144.169 237.990 C 119.856 262.425,106.355 287.273,99.220 320.719 C 97.063 330.833,96.915 332.904,96.903 353.280 C 96.890 372.810,97.089 375.958,98.842 384.000 C 106.726 420.160,125.429 448.373,154.372 467.766 C 181.289 485.802,210.960 494.488,249.243 495.539 C 284.683 496.513,311.284 491.098,338.765 477.316 C 372.837 460.229,397.323 431.898,408.723 396.373 C 413.375 381.873,414.784 373.174,415.313 355.670 C 416.032 331.866,414.230 320.229,404.038 282.847 C 395.688 252.222,394.175 244.274,393.648 228.267 C 393.303 217.771,393.525 212.739,394.609 206.507 C 398.119 186.334,408.143 165.026,424.131 143.754 C 427.383 139.428,430.435 134.857,430.915 133.595 C 432.129 130.401,432.002 125.048,430.634 121.773 C 428.508 116.685,420.854 111.640,415.573 111.846 C 414.869 111.874,408.888 113.180,402.281 114.748 " stroke="none" fill="black" fill-rule="evenodd"></path></svg>