<svg xmlns="http://www.w3.org/2000/svg" width="512" height="512" viewBox="0 0 512 512"><path d="M169.943 20.992 C 162.203 27.997,142.112 55.356,143.609 56.854 C 143.848 57.092,149.301 58.799,155.728 60.646 C 162.155 62.494,172.901 65.869,179.608 68.146 L 191.803 72.287 205.030 63.635 C 212.305 58.877,221.748 53.076,226.015 50.745 C 230.282 48.414,233.782 46.314,233.793 46.079 C 233.820 45.506,218.958 36.180,209.920 31.100 C 199.231 25.091,179.100 16.213,176.165 16.213 C 175.647 16.213,172.848 18.364,169.943 20.992 M338.347 48.341 C 336.939 48.505,332.139 49.054,327.680 49.561 C 295.932 53.173,261.163 65.784,232.297 84.156 L 226.942 87.565 235.284 92.115 C 248.264 99.195,260.410 107.707,273.493 118.892 L 276.907 121.811 287.573 117.581 C 299.471 112.863,363.476 91.307,365.586 91.307 C 366.327 91.307,366.933 90.871,366.933 90.339 C 366.933 88.703,359.538 73.616,352.244 60.373 C 344.722 46.717,345.619 47.493,338.347 48.341 M82.590 83.413 C 91.087 94.203,101.789 113.192,106.036 125.013 C 110.237 136.710,113.301 155.902,114.073 175.360 C 114.542 187.172,113.193 218.335,112.042 222.293 C 111.769 223.232,116.569 219.137,122.708 213.194 C 134.801 201.487,148.851 190.547,164.547 180.616 C 181.858 169.662,211.471 152.840,228.090 144.518 C 236.910 140.102,243.898 136.120,243.620 135.669 C 242.615 134.043,223.802 122.060,215.040 117.466 C 183.289 100.816,136.584 86.377,98.730 81.509 C 93.191 80.796,86.727 80.213,84.365 80.213 L 80.070 80.213 82.590 83.413 M427.093 112.666 C 365.899 116.375,257.536 158.387,181.760 207.781 C 147.344 230.216,122.926 257.207,109.577 287.573 C 104.979 298.034,102.082 307.303,99.220 320.719 C 97.063 330.833,96.915 332.904,96.903 353.280 C 96.890 372.810,97.089 375.958,98.842 384.000 C 106.726 420.160,125.429 448.373,154.372 467.766 C 181.289 485.802,210.960 494.488,249.243 495.539 C 284.683 496.513,311.284 491.098,338.765 477.316 C 372.837 460.229,397.323 431.898,408.723 396.373 C 413.375 381.873,414.784 373.174,415.313 355.670 C 416.032 331.866,414.230 320.229,404.038 282.847 C 395.688 252.222,394.175 244.274,393.648 228.267 C 393.303 217.771,393.525 212.739,394.609 206.507 C 397.273 191.197,403.971 174.593,414.020 158.390 C 417.236 153.204,436.334 127.139,447.384 112.853 C 448.318 111.645,444.513 111.610,427.093 112.666 " stroke="none" fill="black" fill-rule="evenodd"></path></svg>