<svg xmlns="http://www.w3.org/2000/svg" width="512" height="512" viewBox="0 0 512 512"><path d="M80.640 33.802 C 77.824 34.480,72.064 36.722,67.840 38.783 C 54.837 45.129,45.148 54.822,38.793 67.840 C 31.382 83.024,32.000 65.899,32.000 256.000 C 32.000 444.961,31.456 428.723,38.273 443.215 C 44.399 456.237,54.900 466.865,67.840 473.138 C 83.321 480.643,65.680 480.000,256.000 480.000 C 417.604 480.000,424.779 479.935,430.507 478.413 C 454.475 472.043,472.043 454.475,478.413 430.507 C 479.929 424.800,480.000 418.351,480.000 285.867 C 480.000 155.999,479.904 146.854,478.494 141.750 C 475.077 129.378,474.907 129.178,428.865 83.135 C 393.065 47.335,385.292 39.969,380.944 37.722 C 370.037 32.085,379.975 32.419,225.741 32.498 C 106.781 32.558,84.991 32.754,80.640 33.802 M299.537 113.075 C 300.908 113.784,302.425 115.103,302.908 116.006 C 303.457 117.031,303.787 127.628,303.787 144.223 L 303.787 170.798 301.292 173.292 L 298.798 175.787 208.042 175.787 C 108.830 175.787,114.890 176.100,112.721 170.862 C 112.003 169.128,111.785 161.065,111.963 142.756 C 112.200 118.475,112.306 116.980,113.920 115.188 C 114.859 114.145,116.395 112.978,117.333 112.593 C 118.272 112.209,159.091 111.871,208.042 111.841 C 285.830 111.793,297.359 111.949,299.537 113.075 M276.363 274.713 C 299.577 281.460,317.460 296.136,327.906 317.013 C 334.012 329.217,337.064 346.822,335.448 360.523 C 333.228 379.349,325.434 395.426,312.176 408.529 C 302.124 418.463,291.706 424.625,277.693 428.926 C 270.780 431.047,268.825 431.265,256.427 431.298 C 244.742 431.329,241.812 431.058,236.104 429.414 C 221.217 425.129,209.564 418.392,199.399 408.193 C 182.317 391.057,173.698 366.541,176.606 343.361 C 181.061 307.854,205.229 281.519,240.736 273.480 C 248.821 271.650,268.119 272.318,276.363 274.713 M247.680 304.680 C 229.530 307.917,213.715 322.793,209.525 340.568 C 202.337 371.062,224.862 399.741,256.000 399.741 C 287.082 399.741,309.663 371.058,302.500 340.677 C 298.828 325.100,286.966 312.086,271.559 306.727 C 264.889 304.408,254.299 303.500,247.680 304.680 " stroke="none" fill="black" fill-rule="evenodd"></path></svg>