<svg xmlns="http://www.w3.org/2000/svg" width="512" height="512" viewBox="0 0 512 512"><path d="M128.000 118.665 C 58.304 158.529,1.280 191.530,1.280 192.000 C 1.280 192.833,252.434 336.864,255.314 337.683 C 256.193 337.933,297.293 314.934,359.953 279.128 C 416.709 246.695,463.385 220.160,463.679 220.160 C 463.973 220.160,464.213 257.024,464.213 302.080 L 464.213 384.000 488.110 384.000 L 512.007 384.000 511.790 287.787 L 511.573 191.573 384.427 118.852 C 314.496 78.855,256.704 46.142,256.000 46.157 C 255.296 46.172,197.696 78.800,128.000 118.665 M95.951 280.142 C 95.734 280.709,95.657 302.815,95.778 329.266 L 96.000 377.358 175.780 421.684 C 219.659 446.064,256.139 465.842,256.846 465.636 C 257.554 465.429,293.653 445.504,337.067 421.357 L 416.000 377.453 416.220 328.673 C 416.383 292.738,416.186 279.893,415.473 279.893 C 414.940 279.893,378.864 300.260,335.304 325.152 L 256.103 370.411 176.224 324.761 C 126.262 296.208,96.198 279.497,95.951 280.142 " stroke="none" fill="black" fill-rule="evenodd"></path></svg>