<svg xmlns="http://www.w3.org/2000/svg" width="512" height="512" viewBox="0 0 512 512"><path d="M194.133 48.718 C 137.695 54.543,89.010 88.338,64.389 138.781 C 42.814 182.983,42.659 234.532,63.968 278.783 C 86.738 326.068,129.401 358.468,181.916 368.358 C 193.498 370.539,224.937 370.521,236.800 368.325 C 258.245 364.357,279.114 356.143,297.155 344.570 L 303.944 340.215 365.521 401.787 C 399.388 435.652,427.484 463.360,427.957 463.360 C 429.071 463.360,463.360 429.052,463.360 427.937 C 463.360 427.470,435.712 399.443,401.920 365.653 C 368.128 331.864,340.480 303.982,340.480 303.694 C 340.480 303.406,342.350 300.333,344.635 296.865 C 357.529 277.297,366.483 252.382,369.541 227.564 C 370.849 216.940,370.139 191.748,368.241 181.466 C 358.686 129.709,326.014 86.751,278.916 64.021 C 252.466 51.257,222.299 45.811,194.133 48.718 M225.917 100.317 C 249.948 103.886,271.459 115.128,288.774 133.169 C 303.862 148.888,313.029 166.357,317.524 187.961 C 319.854 199.158,320.051 217.089,317.968 228.267 C 311.335 263.853,289.396 292.851,257.280 308.479 C 241.360 316.227,227.623 319.320,209.067 319.338 C 179.666 319.367,153.957 308.908,132.569 288.218 C 102.080 258.724,91.374 215.085,104.672 174.507 C 107.606 165.555,113.933 153.036,119.531 145.106 C 135.474 122.524,163.373 105.020,190.293 100.711 C 193.813 100.147,197.269 99.573,197.973 99.435 C 201.942 98.658,218.194 99.171,225.917 100.317 " stroke="none" fill="black" fill-rule="evenodd"></path></svg>