<svg xmlns="http://www.w3.org/2000/svg" width="512" height="512" viewBox="0 0 512 512"><path d="M204.800 48.720 C 162.908 52.986,124.341 71.868,95.397 102.282 C 54.350 145.416,38.565 207.399,53.864 265.373 C 68.179 319.623,108.451 363.836,161.450 383.487 C 215.666 403.589,279.106 394.386,324.267 359.868 L 331.520 354.324 385.707 408.351 C 434.473 456.974,440.266 462.476,443.616 463.355 C 455.810 466.553,466.553 455.810,463.355 443.616 C 462.476 440.266,456.974 434.473,408.351 385.707 L 354.324 331.520 359.659 324.536 C 384.176 292.441,396.744 249.562,393.569 208.852 C 390.300 166.950,373.960 130.439,345.217 100.813 C 312.993 67.598,271.760 49.570,224.975 48.238 C 218.337 48.050,209.259 48.266,204.800 48.720 M241.058 81.508 C 294.317 89.535,338.081 126.061,354.891 176.515 C 360.293 192.728,361.318 199.804,361.338 221.013 C 361.354 237.770,361.114 241.317,359.450 248.887 C 353.398 276.426,341.421 299.094,322.667 318.505 C 300.385 341.569,275.323 354.804,243.627 360.248 C 230.152 362.562,205.543 362.107,192.853 359.310 C 163.578 352.858,139.442 339.458,119.438 318.551 C 100.470 298.726,88.666 276.199,82.640 248.320 C 80.964 240.568,80.703 236.887,80.703 221.013 C 80.703 200.489,81.840 192.960,87.507 175.953 C 104.091 126.188,147.680 89.749,200.472 81.519 C 210.539 79.950,230.681 79.944,241.058 81.508 " stroke="none" fill="black" fill-rule="evenodd"></path></svg>