<svg xmlns="http://www.w3.org/2000/svg" width="512" height="512" viewBox="0 0 512 512"><path d="M236.800 64.964 C 167.129 71.619,104.873 118.307,78.215 183.893 C 45.312 264.842,71.351 357.637,141.653 409.977 C 167.037 428.874,195.323 440.636,228.267 445.992 C 241.188 448.092,270.511 448.105,283.727 446.016 C 304.705 442.699,321.430 437.453,340.135 428.320 C 378.249 409.711,409.363 378.728,427.918 340.907 C 437.174 322.040,441.993 307.070,445.634 285.867 C 447.138 277.113,447.466 271.757,447.466 256.000 C 447.466 235.241,446.206 224.705,441.612 207.049 C 427.825 154.067,389.836 107.881,340.053 83.578 C 308.050 67.955,272.529 61.552,236.800 64.964 M255.573 147.118 C 271.884 151.967,284.036 159.437,295.896 171.902 C 306.678 183.233,313.182 195.090,317.601 211.467 C 320.064 220.600,320.265 240.643,317.991 250.453 C 315.902 259.463,312.294 268.717,308.032 275.997 L 304.568 281.913 327.166 304.583 C 339.595 317.052,350.171 328.334,350.669 329.656 C 351.950 333.059,351.790 340.150,350.370 342.869 C 348.999 345.492,345.212 349.200,342.456 350.616 C 340.100 351.826,332.809 351.856,329.656 350.669 C 328.334 350.171,317.037 339.580,304.551 327.134 L 281.848 304.503 277.579 307.130 C 252.180 322.758,219.561 324.033,192.478 310.456 C 183.279 305.844,179.134 302.872,170.955 295.021 C 159.330 283.863,151.962 271.638,147.126 255.488 C 144.070 245.280,143.305 226.992,145.453 215.467 C 151.841 181.193,178.903 153.433,213.333 145.837 C 224.493 143.375,245.085 143.999,255.573 147.118 M225.707 176.267 C 224.768 176.481,221.888 177.070,219.307 177.574 C 216.725 178.079,211.541 179.968,207.787 181.772 C 196.190 187.342,187.318 196.219,181.786 207.787 C 177.438 216.879,176.228 222.317,176.283 232.533 C 176.360 247.045,181.282 259.399,191.218 270.020 C 201.726 281.254,213.576 286.714,228.913 287.389 C 240.725 287.909,246.751 286.719,256.778 281.886 C 268.098 276.429,276.429 268.098,281.886 256.778 C 286.719 246.751,287.909 240.725,287.389 228.913 C 287.085 222.004,286.442 218.191,284.788 213.498 C 279.003 197.083,264.839 183.546,248.119 178.454 C 242.579 176.766,229.225 175.463,225.707 176.267 " stroke="none" fill="black" fill-rule="evenodd"></path></svg>