<svg xmlns="http://www.w3.org/2000/svg" width="512" height="512" viewBox="0 0 512 512"><path d="M34.599 48.749 C 26.872 50.559,19.115 58.102,17.034 65.827 C 16.478 67.893,16.254 91.161,16.405 131.158 L 16.640 193.280 18.911 197.120 C 21.690 201.821,24.944 204.949,29.440 207.240 C 31.840 208.464,67.909 215.459,150.989 230.813 C 215.963 242.822,269.627 253.064,270.242 253.574 C 271.700 254.784,271.676 258.089,270.200 259.313 C 269.563 259.843,216.091 270.057,151.374 282.013 C 67.164 297.569,32.538 304.289,29.597 305.647 C 25.265 307.647,20.756 312.032,18.182 316.749 C 16.734 319.401,16.640 323.469,16.640 383.573 C 16.640 443.174,16.744 447.763,18.149 450.335 C 22.890 459.010,30.423 463.679,39.680 463.681 L 45.653 463.682 262.400 374.263 C 407.836 314.264,480.416 283.913,483.004 282.013 C 497.031 271.719,499.918 251.574,489.417 237.268 C 483.911 229.768,487.875 231.664,411.733 200.109 C 388.267 190.384,297.052 152.557,209.035 116.050 C 121.017 79.543,47.481 49.251,45.621 48.735 C 41.703 47.647,39.288 47.650,34.599 48.749 " stroke="none" fill="black" fill-rule="evenodd"></path></svg>