<svg xmlns="http://www.w3.org/2000/svg" width="512" height="512" viewBox="0 0 512 512"><path d="M16.213 128.306 L 16.213 207.972 24.533 209.245 C 29.109 209.946,100.532 220.656,183.251 233.046 C 265.969 245.436,333.648 255.765,333.648 256.000 C 333.648 256.235,265.969 266.564,183.251 278.954 C 100.532 291.344,29.109 302.054,24.533 302.755 L 16.213 304.028 16.213 383.694 C 16.213 427.510,16.501 463.364,16.853 463.370 C 18.020 463.387,494.933 256.524,494.933 256.000 C 494.933 255.476,18.020 48.613,16.853 48.630 C 16.501 48.636,16.213 84.490,16.213 128.306 " stroke="none" fill="black" fill-rule="evenodd"></path></svg>