<svg xmlns="http://www.w3.org/2000/svg" width="512" height="512" viewBox="0 0 512 512"><path d="M209.008 26.437 C 199.283 28.143,190.780 35.363,187.886 44.373 C 187.358 46.016,185.560 57.057,183.889 68.909 C 182.218 80.762,180.615 91.130,180.326 91.949 C 178.970 95.799,175.159 99.245,167.401 103.638 C 155.525 110.362,155.827 110.394,129.393 99.689 C 108.871 91.378,107.671 91.003,101.547 90.987 C 93.917 90.968,87.619 93.550,82.651 98.736 C 79.507 102.017,35.574 177.118,33.583 182.613 C 32.080 186.764,32.167 196.054,33.753 200.708 C 35.768 206.622,39.459 210.294,58.020 224.848 C 67.404 232.206,75.948 239.441,77.007 240.926 C 78.721 243.329,78.965 244.836,79.216 254.598 C 79.372 260.632,79.270 266.481,78.991 267.596 C 78.108 271.111,73.694 275.245,56.287 288.858 C 39.030 302.354,37.080 304.282,34.138 310.765 C 31.818 315.877,31.833 325.863,34.170 331.013 C 37.811 339.038,79.883 410.730,82.583 413.511 C 84.155 415.128,87.432 417.491,89.867 418.761 C 93.583 420.700,95.389 421.074,101.120 421.095 C 107.818 421.120,108.363 420.953,130.024 412.274 C 155.911 401.902,155.559 401.940,166.635 408.314 C 174.868 413.052,178.837 416.575,180.028 420.205 C 180.501 421.647,182.240 432.235,183.892 443.733 C 185.545 455.232,187.490 466.433,188.214 468.626 C 190.118 474.383,195.327 479.857,202.054 483.169 L 207.751 485.973 255.982 485.973 L 304.213 485.973 309.441 483.558 C 312.316 482.229,316.040 479.733,317.716 478.011 C 323.165 472.414,324.718 467.443,327.629 446.293 C 331.953 414.874,331.501 415.885,344.543 408.436 C 356.586 401.558,356.408 401.540,382.801 412.254 C 401.769 419.953,404.650 420.891,409.600 420.975 C 412.924 421.032,416.915 420.463,419.559 419.556 C 428.311 416.552,429.699 414.655,454.493 371.826 C 467.055 350.127,477.820 331.029,478.416 329.387 C 479.933 325.200,479.829 315.933,478.210 311.182 C 476.251 305.432,471.896 301.130,452.769 286.042 C 441.562 277.203,435.243 271.628,434.209 269.667 C 432.922 267.228,432.640 264.725,432.640 255.758 C 432.640 247.972,432.988 244.158,433.850 242.518 C 435.597 239.190,439.692 235.578,457.132 221.981 C 473.008 209.604,474.942 207.668,477.862 201.235 C 480.182 196.123,480.167 186.137,477.830 180.987 C 474.189 172.962,432.117 101.270,429.417 98.489 C 427.845 96.872,424.568 94.509,422.133 93.239 C 418.417 91.300,416.611 90.926,410.880 90.905 C 404.182 90.880,403.637 91.047,381.976 99.726 C 355.968 110.147,356.673 110.078,344.900 103.341 C 337.449 99.077,332.608 94.788,331.621 91.576 C 331.360 90.724,329.769 80.235,328.085 68.267 C 324.801 44.912,323.581 40.712,318.347 34.752 C 316.829 33.023,313.037 30.353,309.920 28.818 L 304.253 26.027 258.580 25.890 C 233.460 25.815,211.152 26.061,209.008 26.437 M274.844 178.401 C 289.308 181.829,306.750 192.368,315.844 203.175 C 329.398 219.281,335.637 235.932,335.637 256.000 C 335.637 287.099,319.030 313.897,291.218 327.679 C 279.979 333.248,269.746 335.580,256.427 335.608 C 233.614 335.656,215.534 328.254,199.640 312.360 C 183.880 296.600,176.382 278.431,176.382 256.000 C 176.382 233.751,183.772 215.635,199.226 199.998 C 219.228 179.759,247.049 171.813,274.844 178.401 M244.053 209.561 C 227.380 213.948,213.777 227.685,209.509 244.446 C 203.105 269.591,219.008 296.013,244.446 302.491 C 269.591 308.895,296.013 292.992,302.491 267.554 C 308.910 242.353,293.062 216.024,267.554 209.512 C 261.246 207.901,250.273 207.924,244.053 209.561 " stroke="none" fill="black" fill-rule="evenodd"></path></svg>