<svg xmlns="http://www.w3.org/2000/svg" width="512" height="512" viewBox="0 0 512 512"><path d="M204.374 82.773 L 153.180 133.972 164.483 145.275 L 175.786 156.578 207.787 124.587 L 239.787 92.595 239.787 134.191 L 239.787 175.787 164.907 175.788 C 81.392 175.789,86.315 175.439,82.150 181.673 L 80.213 184.572 80.217 328.020 C 80.220 468.787,80.251 471.518,81.885 474.199 C 82.802 475.701,84.816 477.621,86.362 478.465 C 89.041 479.928,97.013 480.000,256.000 480.000 C 414.987 480.000,422.959 479.928,425.638 478.465 C 427.184 477.621,429.198 475.701,430.115 474.199 C 431.749 471.518,431.780 468.787,431.783 328.020 L 431.787 184.572 429.850 181.673 C 425.685 175.439,430.608 175.789,347.093 175.788 L 272.213 175.787 272.213 134.191 L 272.213 92.595 304.213 124.587 L 336.214 156.578 347.517 145.275 L 358.820 133.972 307.626 82.773 C 279.469 54.613,256.238 31.573,256.000 31.573 C 255.762 31.573,232.531 54.613,204.374 82.773 M272.213 256.427 L 272.213 337.067 256.000 337.067 L 239.787 337.067 239.787 256.427 L 239.787 175.787 256.000 175.787 L 272.213 175.787 272.213 256.427 " stroke="none" fill="black" fill-rule="evenodd"></path></svg>