<svg xmlns="http://www.w3.org/2000/svg" width="512" height="512" viewBox="0 0 512 512"><path d="M247.467 33.666 C 245.824 34.281,239.104 37.180,232.533 40.109 C 169.402 68.244,134.058 79.474,67.632 92.503 C 54.376 95.103,42.396 97.817,41.009 98.534 C 37.112 100.550,34.227 104.998,33.186 110.595 C 31.776 118.177,32.700 172.326,34.488 186.880 C 45.227 274.316,79.443 344.864,139.627 403.653 C 171.216 434.510,209.773 461.524,243.025 476.097 C 255.854 481.719,259.729 481.154,280.800 470.586 C 335.757 443.025,390.259 393.547,424.033 340.559 C 453.139 294.895,470.304 245.570,477.512 186.880 C 479.300 172.326,480.224 118.177,478.814 110.595 C 477.762 104.935,474.883 100.547,470.855 98.464 C 469.393 97.708,460.293 95.586,450.632 93.748 C 387.183 81.678,348.911 70.130,295.141 46.831 C 260.839 31.967,262.166 32.453,256.000 32.502 C 252.949 32.527,249.109 33.050,247.467 33.666 " stroke="none" fill="black" fill-rule="evenodd"></path></svg>