<svg xmlns="http://www.w3.org/2000/svg" width="512" height="512" viewBox="0 0 512 512"><path d="M235.947 39.367 C 171.197 68.177,133.600 80.007,65.589 92.968 C 53.557 95.261,42.537 97.745,41.100 98.488 C 37.116 100.548,34.235 104.955,33.186 110.595 C 31.776 118.177,32.700 172.326,34.488 186.880 C 43.334 258.909,67.846 318.526,110.621 372.053 C 121.302 385.418,148.305 412.847,161.280 423.510 C 188.025 445.489,215.239 462.979,240.978 474.732 C 255.856 481.525,257.508 481.439,275.028 472.958 C 331.805 445.474,384.944 399.280,419.568 347.307 C 451.584 299.247,469.969 248.347,477.513 186.880 C 479.300 172.324,480.223 118.174,478.814 110.595 C 477.775 105.005,474.889 100.550,471.006 98.542 C 469.627 97.829,465.711 96.695,462.303 96.021 C 458.895 95.347,449.003 93.417,440.320 91.733 C 377.974 79.641,343.073 68.638,280.924 41.484 C 254.624 29.993,256.786 30.095,235.947 39.367 M342.869 161.630 C 345.492 163.001,349.200 166.788,350.616 169.544 C 352.088 172.410,351.786 180.120,350.080 183.221 C 349.259 184.713,323.090 215.376,291.927 251.359 C 231.888 320.684,232.584 319.968,225.280 319.959 C 219.191 319.951,216.017 317.439,190.233 292.210 C 176.354 278.631,163.942 265.984,162.652 264.107 C 160.564 261.069,160.338 260.072,160.600 255.052 C 160.842 250.429,161.336 248.835,163.335 246.213 C 166.022 242.690,171.390 239.832,175.360 239.810 C 182.349 239.772,183.831 240.864,204.386 261.205 L 224.137 280.749 275.005 221.999 C 308.186 183.677,326.856 162.764,328.697 161.857 C 332.185 160.138,339.780 160.017,342.869 161.630 " stroke="none" fill="black" fill-rule="evenodd"></path></svg>