<svg xmlns="http://www.w3.org/2000/svg" width="512" height="512" viewBox="0 0 512 512"><path d="M236.800 49.234 C 162.759 55.885,96.749 95.050,56.210 156.383 C 11.106 224.621,4.021 311.837,37.505 386.634 C 48.326 410.807,67.372 439.088,81.870 452.510 C 93.549 463.323,108.815 466.639,123.559 461.567 C 130.555 459.160,133.535 457.020,144.213 446.740 C 162.834 428.814,179.380 418.101,200.805 410.098 C 219.358 403.168,235.856 400.213,256.000 400.213 C 286.503 400.213,313.743 408.002,339.831 424.182 C 349.679 430.290,355.839 435.245,367.844 446.714 C 379.729 458.070,384.395 460.937,394.390 463.023 C 404.472 465.128,415.271 463.057,424.248 457.296 C 429.530 453.907,438.367 444.428,447.500 432.356 C 471.646 400.441,487.257 363.030,493.673 321.707 C 495.850 307.683,496.301 277.092,494.553 261.973 C 488.169 206.748,464.891 157.889,426.667 119.485 C 386.391 79.020,335.003 54.732,278.613 49.511 C 269.881 48.702,244.583 48.534,236.800 49.234 M260.674 112.738 C 265.024 113.946,270.054 118.976,271.262 123.326 C 272.468 127.673,272.505 159.767,271.309 164.077 C 270.195 168.087,265.875 173.110,262.227 174.634 C 258.699 176.108,253.301 176.108,249.773 174.634 C 246.125 173.110,241.805 168.087,240.691 164.077 C 239.518 159.851,239.530 127.677,240.707 123.439 C 241.901 119.139,246.189 114.576,250.453 113.068 C 254.645 111.587,256.329 111.532,260.674 112.738 M149.200 160.440 C 153.409 162.350,174.435 182.522,178.302 188.360 C 181.307 192.898,182.108 196.926,180.897 201.422 C 179.710 205.831,174.865 211.235,170.938 212.531 C 166.426 214.020,160.168 213.124,156.286 210.434 C 150.894 206.698,129.801 184.754,128.417 181.441 C 122.700 167.759,135.912 154.409,149.200 160.440 M377.666 161.321 C 383.980 165.223,386.595 174.233,383.538 181.550 C 381.529 186.357,358.136 209.378,352.912 211.689 C 339.710 217.528,326.724 204.110,332.409 190.503 C 334.270 186.050,357.726 162.755,362.677 160.444 C 367.345 158.265,373.284 158.613,377.666 161.321 M322.104 217.106 C 323.718 217.780,325.600 219.467,326.343 220.904 C 329.181 226.390,328.556 227.946,314.613 250.137 C 307.426 261.575,296.386 279.185,290.079 289.270 C 283.512 299.773,276.886 309.316,274.570 311.605 C 264.847 321.218,249.074 322.326,237.290 314.223 C 222.615 304.132,220.182 282.698,232.209 269.468 C 234.617 266.819,302.747 223.069,313.127 217.505 C 316.729 215.575,318.275 215.506,322.104 217.106 M134.227 273.366 C 139.100 275.402,144.204 282.888,144.204 288.000 C 144.204 290.745,142.050 295.715,139.700 298.390 C 135.215 303.499,133.725 303.787,111.780 303.787 C 94.144 303.787,91.762 303.618,88.926 302.171 C 83.340 299.320,80.213 294.238,80.213 288.008 C 80.213 281.756,83.362 276.705,89.173 273.634 C 92.663 271.790,129.925 271.569,134.227 273.366 M422.656 273.596 C 426.534 275.560,428.322 277.304,430.171 280.926 C 433.127 286.718,431.615 295.554,426.971 299.630 C 422.533 303.525,420.852 303.787,400.228 303.787 C 378.274 303.787,376.785 303.499,372.300 298.390 C 369.950 295.715,367.796 290.745,367.796 288.000 C 367.796 285.256,369.950 280.286,372.297 277.612 C 376.770 272.519,377.985 272.284,400.042 272.247 C 416.727 272.219,420.364 272.436,422.656 273.596 " stroke="none" fill="black" fill-rule="evenodd"></path></svg>