<svg xmlns="http://www.w3.org/2000/svg" width="512" height="512" viewBox="0 0 512 512"><path d="M227.700 117.973 L 199.838 202.667 108.239 203.093 L 16.640 203.520 19.627 205.761 C 21.269 206.993,53.717 229.794,91.733 256.428 C 129.749 283.062,162.046 305.743,163.504 306.830 L 166.154 308.806 137.244 393.491 C 121.343 440.067,108.439 478.427,108.567 478.734 C 108.695 479.042,141.932 455.570,182.426 426.575 L 256.053 373.857 329.626 426.565 C 370.092 455.555,403.306 479.025,403.434 478.720 C 403.563 478.416,390.656 440.179,374.752 393.750 C 358.847 347.321,346.139 308.949,346.512 308.480 C 346.885 308.011,380.411 284.395,421.014 256.000 C 461.617 227.605,494.860 204.087,494.886 203.737 C 494.912 203.387,453.810 203.003,403.548 202.884 L 312.162 202.667 284.300 117.973 C 268.976 71.392,256.241 33.280,256.000 33.280 C 255.759 33.280,243.024 71.392,227.700 117.973 M341.530 235.727 L 393.735 235.947 351.243 265.733 C 327.872 282.116,308.581 295.963,308.373 296.505 C 308.165 297.046,315.482 319.336,324.633 346.038 C 333.785 372.739,341.152 394.705,341.006 394.852 C 340.860 394.998,321.674 381.457,298.370 364.761 L 256.000 334.404 256.073 234.829 L 256.146 135.253 272.736 185.380 L 289.326 235.507 341.530 235.727 " stroke="none" fill="black" fill-rule="evenodd"></path></svg>