<svg xmlns="http://www.w3.org/2000/svg" width="512" height="512" viewBox="0 0 512 512"><path d="M174.419 18.230 C 166.337 22.044,161.901 28.087,160.384 37.348 C 159.307 43.928,159.307 468.072,160.384 474.652 C 161.918 484.012,166.408 490.055,174.624 493.817 C 179.108 495.869,179.394 495.889,201.152 495.626 C 221.811 495.376,223.354 495.248,226.560 493.512 C 230.608 491.321,235.561 486.294,237.773 482.133 C 239.309 479.243,239.360 471.917,239.360 256.000 L 239.360 32.853 237.512 29.440 C 235.321 25.392,230.294 20.439,226.133 18.227 C 223.480 16.817,220.674 16.614,200.960 16.408 C 179.060 16.178,178.717 16.202,174.419 18.230 M208.213 256.000 L 208.213 464.213 200.107 464.213 L 192.000 464.213 192.000 256.000 L 192.000 47.787 200.107 47.787 L 208.213 47.787 208.213 256.000 M398.080 98.439 C 395.733 99.537,392.201 102.191,390.230 104.338 C 383.455 111.718,383.958 95.562,384.205 297.845 L 384.427 478.293 386.552 482.455 C 389.256 487.749,394.920 492.748,400.202 494.503 C 403.634 495.643,407.859 495.828,425.521 495.616 C 446.141 495.367,446.833 495.302,450.852 493.249 C 455.712 490.767,459.494 486.718,461.990 481.323 L 463.787 477.440 463.787 296.533 C 463.787 121.134,463.738 115.499,462.173 111.442 C 460.039 105.911,455.390 100.887,450.133 98.434 C 446.014 96.512,445.115 96.443,424.107 96.443 C 403.081 96.443,402.203 96.511,398.080 98.439 M431.787 296.107 L 431.787 464.213 424.107 464.213 L 416.427 464.213 416.427 296.107 L 416.427 128.000 424.107 128.000 L 431.787 128.000 431.787 296.107 M289.274 209.011 C 283.405 210.796,277.372 215.951,274.227 221.867 C 272.700 224.740,272.640 229.678,272.640 352.000 L 272.640 479.147 274.488 482.560 C 276.679 486.608,281.706 491.561,285.867 493.773 C 288.514 495.180,291.366 495.390,310.956 495.627 L 333.059 495.893 338.424 493.252 C 344.271 490.374,348.663 485.376,350.819 479.147 C 352.524 474.218,352.584 231.125,350.881 225.280 C 349.047 218.985,344.739 213.889,338.700 210.871 L 333.381 208.213 312.397 208.287 C 300.856 208.327,290.451 208.653,289.274 209.011 M320.000 352.000 L 320.000 464.213 311.893 464.213 L 303.787 464.213 303.787 352.000 L 303.787 239.787 311.893 239.787 L 320.000 239.787 320.000 352.000 M66.633 304.770 C 59.769 306.372,53.891 311.212,50.210 318.293 L 48.213 322.133 48.213 399.787 C 48.213 476.784,48.228 477.472,49.998 481.280 C 52.688 487.066,55.837 490.292,61.610 493.177 L 66.833 495.787 87.451 495.787 C 110.830 495.787,113.454 495.303,119.641 489.857 C 121.666 488.075,124.279 484.744,125.448 482.455 L 127.573 478.293 127.573 400.213 C 127.573 322.427,127.567 322.119,125.762 318.217 C 123.446 313.209,118.557 308.327,113.570 306.041 C 109.994 304.402,107.946 304.231,90.027 304.069 C 78.866 303.968,68.775 304.270,66.633 304.770 M95.573 400.213 L 95.573 464.213 87.893 464.213 L 80.213 464.213 80.213 400.213 L 80.213 336.213 87.893 336.213 L 95.573 336.213 95.573 400.213 " stroke="none" fill="black" fill-rule="evenodd"></path></svg>