<svg xmlns="http://www.w3.org/2000/svg" width="512" height="512" viewBox="0 0 512 512"><path d="M243.200 48.291 C 189.307 52.936,145.591 72.806,109.198 109.198 C 75.814 142.582,55.864 183.304,49.403 231.253 C 47.996 241.696,47.996 270.304,49.403 280.747 C 55.866 328.705,75.852 369.495,109.198 402.781 C 142.761 436.282,182.341 455.687,231.253 462.621 C 235.243 463.187,246.379 463.649,256.000 463.649 C 284.931 463.649,308.731 459.018,334.933 448.289 C 361.056 437.593,386.578 420.224,405.701 400.129 C 437.387 366.832,455.931 327.939,462.621 280.747 C 463.187 276.757,463.649 265.621,463.649 256.000 C 463.649 227.171,459.011 203.251,448.395 177.325 C 432.022 137.342,403.062 103.108,365.227 79.011 C 343.385 65.100,312.181 53.926,283.992 49.922 C 275.151 48.666,250.352 47.675,243.200 48.291 M320.609 178.225 C 326.150 180.731,332.001 186.877,334.150 192.451 C 335.707 196.486,335.787 199.589,335.787 256.000 C 335.787 312.411,335.707 315.514,334.150 319.549 C 332.001 325.123,326.150 331.269,320.609 333.775 L 316.160 335.787 256.000 335.787 L 195.840 335.787 191.391 333.775 C 185.850 331.269,179.999 325.123,177.850 319.549 C 176.293 315.514,176.213 312.411,176.213 256.000 C 176.213 199.715,176.296 196.479,177.840 192.477 C 180.758 184.911,188.004 178.630,196.040 176.701 C 197.823 176.273,225.264 175.993,257.707 176.072 L 316.160 176.213 320.609 178.225 " stroke="none" fill="black" fill-rule="evenodd"></path></svg>