<svg xmlns="http://www.w3.org/2000/svg" viewBox="0 0 512 512"><path d="M109.653 34.216 C 100.544 36.440,87.069 43.151,80.097 48.938 C 74.676 53.437,68.938 60.169,65.078 66.560 C 62.471 70.876,19.111 170.607,17.537 175.907 C 15.092 184.140,16.264 196.405,20.384 205.679 C 25.840 217.963,40.965 231.254,56.155 237.112 C 66.846 241.234,75.639 242.656,87.021 242.100 C 103.869 241.277,118.286 235.825,131.424 225.305 C 139.749 218.639,142.297 218.367,148.480 223.486 C 157.784 231.189,166.775 236.050,178.094 239.497 C 184.837 241.551,186.944 241.784,198.827 241.797 C 209.848 241.809,213.192 241.498,218.880 239.933 C 228.047 237.412,239.761 231.485,247.019 225.697 C 256.116 218.442,257.616 218.444,266.688 225.731 C 273.726 231.385,285.317 237.239,294.827 239.944 C 304.493 242.694,324.019 242.684,334.080 239.925 C 345.314 236.844,353.955 232.244,366.420 222.706 C 370.461 219.614,372.613 219.516,376.407 222.248 C 393.852 234.811,401.473 238.519,415.168 241.107 C 424.247 242.823,439.431 242.384,447.573 240.170 C 465.850 235.200,484.146 221.071,491.177 206.498 C 495.812 196.890,497.043 184.151,494.200 175.223 C 492.231 169.039,449.530 71.004,446.718 66.210 C 437.854 51.101,421.360 39.145,402.932 34.470 L 394.874 32.427 255.677 32.488 C 120.620 32.548,116.277 32.600,109.653 34.216 M133.973 262.825 C 116.852 271.724,94.389 276.025,75.947 273.934 C 68.582 273.099,56.342 270.612,52.759 269.222 C 51.878 268.880,50.654 269.346,49.559 270.441 C 47.788 272.212,47.787 272.273,47.787 359.083 C 47.787 425.510,47.546 446.193,46.763 446.976 C 46.107 447.631,42.764 448.000,37.473 448.000 C 30.105 448.000,28.719 448.256,24.693 450.359 C 21.304 452.129,19.667 453.672,18.129 456.545 C 13.866 464.507,17.002 474.113,25.228 478.293 C 28.562 479.987,30.275 480.000,256.000 480.000 L 483.413 480.000 486.781 478.233 C 488.634 477.262,491.322 475.018,492.755 473.247 C 495.083 470.371,495.360 469.417,495.360 464.285 C 495.360 459.483,494.985 457.975,493.070 455.081 C 489.511 449.704,485.110 448.000,474.781 448.000 C 469.292 448.000,465.897 447.636,465.237 446.976 C 464.454 446.193,464.213 425.546,464.213 359.246 C 464.213 288.217,464.007 272.257,463.072 270.979 C 461.790 269.226,461.766 269.228,448.000 272.204 C 441.118 273.692,436.269 274.145,427.093 274.157 C 409.188 274.181,396.584 271.327,379.011 263.272 C 369.748 259.026,370.260 259.016,360.533 263.633 C 342.771 272.066,322.833 275.723,304.228 273.960 C 289.501 272.565,279.342 269.699,265.852 263.133 C 261.649 261.087,257.590 259.413,256.830 259.413 C 256.071 259.413,251.948 261.117,247.669 263.200 C 232.008 270.823,217.235 274.202,199.680 274.178 C 182.016 274.154,168.656 271.051,152.209 263.154 C 147.924 261.097,143.508 259.432,142.396 259.456 C 141.283 259.479,137.493 260.995,133.973 262.825 M216.174 304.951 C 217.706 305.591,219.998 307.348,221.267 308.856 L 223.573 311.598 223.573 346.775 C 223.573 372.997,223.313 382.213,222.549 382.976 C 221.779 383.747,210.294 384.000,176.104 384.000 C 135.949 384.000,130.526 383.845,129.341 382.659 C 128.167 381.485,128.000 377.119,128.000 347.645 C 128.000 312.011,128.160 310.407,132.057 306.937 C 133.010 306.089,134.887 305.066,136.228 304.664 C 137.569 304.262,155.479 303.900,176.027 303.860 C 205.781 303.802,213.955 304.024,216.174 304.951 M378.606 305.981 C 379.930 306.953,381.685 309.065,382.505 310.674 C 383.888 313.385,383.997 318.445,383.999 379.459 C 384.000 438.194,383.855 445.463,382.659 446.659 C 381.481 447.837,376.798 448.000,344.113 448.000 C 310.691 448.000,306.749 447.856,305.347 446.588 C 303.861 445.243,303.788 442.065,303.805 379.814 C 303.823 316.922,303.887 314.315,305.483 310.798 C 306.745 308.018,308.018 306.740,310.798 305.462 C 314.251 303.875,316.166 303.794,345.326 303.998 C 375.028 304.205,376.289 304.280,378.606 305.981 " stroke="none" fill="black" fill-rule="evenodd"></path></svg>