<svg xmlns="http://www.w3.org/2000/svg" width="512" height="512" viewBox="0 0 512 512"><path d="M146.347 17.456 C 134.035 20.165,122.162 27.053,113.330 36.610 C 102.848 47.954,97.837 59.673,96.331 76.364 C 95.800 82.258,95.587 134.104,95.761 215.467 L 96.039 345.173 97.880 351.689 C 105.143 377.399,125.736 395.727,151.367 399.292 C 160.507 400.563,351.457 400.568,360.594 399.298 C 386.286 395.724,406.855 377.468,414.087 351.818 L 415.961 345.173 416.239 215.467 C 416.413 134.104,416.200 82.258,415.669 76.364 C 414.056 58.487,408.811 46.990,396.789 34.987 C 388.482 26.691,382.878 23.108,372.276 19.315 L 364.800 16.640 258.133 16.485 C 172.483 16.360,150.458 16.551,146.347 17.456 M309.024 64.872 C 313.687 66.167,318.865 72.202,319.617 77.221 C 320.715 84.541,317.322 91.182,310.837 94.405 C 307.834 95.897,304.493 96.016,259.179 96.253 C 228.194 96.414,209.003 96.186,205.934 95.619 C 197.646 94.087,192.064 87.810,192.019 79.973 C 191.984 73.940,196.115 67.706,201.813 65.195 C 205.038 63.774,303.997 63.475,309.024 64.872 M375.254 146.023 C 377.503 147.112,379.905 149.211,381.283 151.292 L 383.573 154.750 383.833 174.412 C 384.050 190.913,383.870 194.655,382.711 197.690 C 381.043 202.057,376.671 206.092,372.290 207.309 C 367.803 208.555,144.197 208.555,139.710 207.309 C 135.329 206.092,130.957 202.057,129.289 197.690 C 128.130 194.655,127.950 190.913,128.167 174.412 L 128.427 154.750 130.704 151.312 C 132.035 149.302,134.516 147.114,136.677 146.044 L 140.373 144.215 255.944 144.214 L 371.514 144.213 375.254 146.023 M189.608 291.141 C 202.309 297.070,210.029 311.901,207.392 325.305 C 205.299 335.940,198.791 344.564,189.608 348.868 C 185.305 350.885,183.717 351.146,175.787 351.144 C 167.580 351.141,166.412 350.931,161.896 348.647 C 155.816 345.571,149.949 339.433,146.927 332.986 C 144.949 328.767,144.640 327.010,144.640 320.000 C 144.640 313.024,144.954 311.224,146.889 307.098 C 150.732 298.902,157.430 292.845,166.267 289.576 C 168.250 288.843,172.185 288.504,177.067 288.647 C 183.285 288.829,185.672 289.304,189.608 291.141 M350.104 291.399 C 356.160 294.406,362.037 300.537,365.073 307.014 C 367.052 311.235,367.360 312.989,367.360 320.018 C 367.360 327.475,367.130 328.610,364.561 333.829 C 361.412 340.224,355.695 345.929,349.252 349.106 C 345.761 350.827,343.883 351.119,336.213 351.132 C 328.268 351.145,326.703 350.889,322.392 348.868 C 309.677 342.908,301.972 328.097,304.610 314.688 C 306.926 302.915,313.339 294.956,324.199 290.377 C 328.310 288.644,330.067 288.409,337.067 288.660 C 343.924 288.906,345.933 289.328,350.104 291.399 M168.960 417.777 C 164.746 419.589,114.843 469.644,113.105 473.802 C 109.867 481.553,113.244 490.819,120.727 494.710 C 124.097 496.462,131.181 496.392,134.704 494.570 C 136.257 493.767,140.514 490.256,144.165 486.768 L 150.803 480.427 256.030 480.427 L 361.257 480.427 367.432 486.414 C 374.924 493.678,380.020 496.213,385.596 495.449 C 397.307 493.844,403.338 480.725,396.850 470.973 C 392.848 464.959,346.474 419.265,342.825 417.740 C 336.184 414.965,329.159 416.531,324.513 421.823 C 322.164 424.499,320.010 429.469,320.010 432.213 C 320.010 435.046,322.218 439.961,325.169 443.694 L 328.573 448.000 256.000 448.000 L 183.427 448.000 186.831 443.694 C 189.782 439.961,191.990 435.046,191.990 432.213 C 191.990 427.101,186.887 419.616,182.014 417.580 C 178.420 416.078,172.712 416.164,168.960 417.777 " stroke="none" fill="black" fill-rule="evenodd"></path></svg>