<svg xmlns="http://www.w3.org/2000/svg" width="512" height="512" viewBox="0 0 512 512"><path d="M119.893 0.534 C 111.082 2.269,108.321 3.030,103.248 5.122 C 84.863 12.703,70.811 29.279,65.630 49.494 C 63.840 56.476,63.826 455.471,65.615 462.446 C 71.627 485.880,87.841 502.491,112.213 510.183 C 116.010 511.382,131.416 511.559,252.160 511.790 C 344.016 511.966,389.723 511.761,393.669 511.153 C 419.164 507.230,439.784 488.178,446.385 462.446 C 448.162 455.520,448.162 56.480,446.385 49.554 C 439.838 24.032,419.409 4.974,394.240 0.909 C 388.993 0.061,124.131 -0.300,119.893 0.534 M397.682 35.172 C 403.710 38.133,409.867 44.290,412.828 50.318 L 415.147 55.040 415.367 254.264 C 415.560 428.902,415.430 454.029,414.313 457.872 C 411.731 466.755,402.760 475.644,393.475 478.519 C 389.022 479.898,379.501 480.000,255.147 480.000 L 121.600 480.000 117.074 478.145 C 108.325 474.558,101.236 467.465,98.069 459.130 C 96.465 454.910,96.427 450.133,96.427 256.000 C 96.427 61.867,96.465 57.090,98.069 52.870 C 101.194 44.646,108.452 37.315,116.649 34.103 C 120.606 32.553,125.406 32.504,256.853 32.676 L 392.960 32.853 397.682 35.172 " stroke="none" fill="black" fill-rule="evenodd"></path></svg>