<svg xmlns="http://www.w3.org/2000/svg" width="512" height="512" viewBox="0 0 512 512"><path d="M75.520 1.282 C 71.202 2.810,66.122 8.180,64.928 12.479 C 63.606 17.240,63.634 494.860,64.956 499.624 C 66.192 504.076,71.924 509.808,76.376 511.044 C 81.221 512.389,430.779 512.389,435.624 511.044 C 440.076 509.808,445.808 504.076,447.044 499.624 C 448.392 494.769,448.392 17.231,447.044 12.376 C 445.808 7.924,440.076 2.192,435.624 0.956 C 433.174 0.276,382.434 0.019,255.573 0.042 C 105.515 0.070,78.420 0.257,75.520 1.282 M412.160 256.000 L 412.160 448.000 256.000 448.000 L 99.840 448.000 99.840 256.000 L 99.840 64.000 256.000 64.000 L 412.160 64.000 412.160 256.000 " stroke="none" fill="black" fill-rule="evenodd"></path></svg>