<svg xmlns="http://www.w3.org/2000/svg" width="512" height="512" viewBox="0 0 512 512"><path d="M55.893 64.534 C 47.082 66.269,44.321 67.030,39.248 69.122 C 20.863 76.703,6.811 93.279,1.630 113.494 C -0.155 120.454,-0.168 391.494,1.615 398.446 C 7.627 421.880,23.798 438.450,48.213 446.189 C 52.047 447.405,72.721 447.567,252.160 447.793 C 388.299 447.965,453.695 447.760,457.669 447.151 C 483.151 443.242,503.784 424.179,510.385 398.446 C 511.377 394.581,511.573 370.987,511.573 256.000 C 511.573 141.013,511.377 117.419,510.385 113.554 C 503.838 88.032,483.409 68.974,458.240 64.909 C 452.985 64.060,60.158 63.694,55.893 64.534 M461.682 99.172 C 467.710 102.133,473.867 108.290,476.828 114.318 L 479.147 119.040 479.147 256.000 L 479.147 392.960 476.828 397.682 C 473.932 403.578,467.728 409.864,462.108 412.598 C 459.746 413.747,455.125 415.071,451.840 415.540 C 444.311 416.615,68.641 416.694,60.326 415.622 C 49.479 414.224,39.964 407.437,35.172 397.682 L 32.853 392.960 32.632 257.096 C 32.417 124.576,32.452 121.126,34.061 116.891 C 37.194 108.645,44.446 101.316,52.649 98.105 C 56.622 96.549,62.815 96.506,256.853 96.677 L 456.960 96.853 461.682 99.172 " stroke="none" fill="black" fill-rule="evenodd"></path></svg>