<svg xmlns="http://www.w3.org/2000/svg" width="512" height="512" viewBox="0 0 512 512"><path d="M21.588 34.099 C 15.743 37.663,16.213 18.247,16.217 256.171 C 16.220 468.199,16.245 471.508,17.885 474.199 C 18.802 475.701,20.816 477.621,22.362 478.465 C 25.049 479.932,35.402 480.000,256.000 480.000 C 476.598 480.000,486.951 479.932,489.638 478.465 C 491.184 477.621,493.198 475.701,494.115 474.199 C 495.755 471.508,495.780 468.199,495.783 256.171 C 495.787 18.247,496.257 37.663,490.412 34.099 C 487.720 32.457,484.281 32.433,256.000 32.433 C 27.719 32.433,24.280 32.457,21.588 34.099 M148.358 133.374 C 177.623 156.789,201.239 176.242,200.838 176.605 C 197.860 179.286,93.974 261.973,93.582 261.973 C 93.307 261.973,89.164 257.077,84.377 251.093 C 79.590 245.109,75.163 239.612,74.539 238.876 C 73.546 237.706,78.039 233.832,110.664 207.730 C 131.157 191.334,148.497 177.494,149.198 176.974 C 150.237 176.202,143.421 170.385,112.356 145.527 C 91.392 128.751,74.240 114.675,74.240 114.245 C 74.240 112.612,93.314 89.685,94.216 90.234 C 94.728 90.546,119.092 109.958,148.358 133.374 M272.213 240.213 L 272.213 256.000 224.000 256.000 L 175.787 256.000 175.787 240.213 L 175.787 224.427 224.000 224.427 L 272.213 224.427 272.213 240.213 " stroke="none" fill="black" fill-rule="evenodd"></path></svg>