<svg xmlns="http://www.w3.org/2000/svg" width="512" height="512" viewBox="0 0 512 512"><path d="M64.096 34.172 C 42.947 39.710,26.496 55.118,19.036 76.373 L 16.640 83.200 16.640 256.000 L 16.640 428.800 19.036 435.627 C 22.605 445.795,27.520 453.510,35.346 461.227 C 46.804 472.524,58.620 477.990,75.042 479.589 C 85.864 480.642,426.136 480.642,436.958 479.589 C 465.982 476.764,488.332 457.181,494.439 429.227 C 495.712 423.396,495.815 407.718,495.598 253.013 L 495.360 83.200 492.964 76.373 C 485.359 54.705,467.792 38.595,446.552 33.810 C 440.987 32.557,423.022 32.431,255.405 32.474 C 75.299 32.519,70.233 32.564,64.096 34.172 M100.922 96.822 C 102.268 97.106,121.657 112.016,146.001 131.486 C 182.440 160.632,188.956 166.178,190.340 169.226 C 193.063 175.225,192.294 181.577,188.316 185.934 C 185.311 189.227,105.677 252.818,102.400 254.541 C 98.238 256.731,91.635 256.156,87.195 253.217 C 80.287 248.645,78.086 237.836,82.735 231.308 C 83.822 229.781,99.155 216.994,116.809 202.893 C 134.463 188.792,149.236 176.959,149.639 176.599 C 150.042 176.238,135.350 163.925,116.991 149.237 C 81.055 120.487,80.213 119.633,80.213 111.917 C 80.213 109.938,80.732 107.077,81.366 105.559 C 82.711 102.342,87.936 97.484,90.682 96.899 C 95.840 95.800,96.068 95.798,100.922 96.822 M263.642 226.114 C 275.121 231.970,274.396 248.963,262.435 254.396 C 259.269 255.834,256.122 255.963,224.000 255.963 C 191.878 255.963,188.731 255.834,185.565 254.396 C 173.704 249.008,172.873 232.127,184.175 226.156 C 187.129 224.596,189.380 224.500,223.821 224.464 C 258.552 224.429,260.496 224.509,263.642 226.114 " stroke="none" fill="black" fill-rule="evenodd"></path></svg>