<svg xmlns="http://www.w3.org/2000/svg" width="512" height="512" viewBox="0 0 512 512"><path d="M240.640 17.978 C 222.060 22.830,206.837 35.073,198.803 51.627 C 191.935 65.776,192.477 55.298,192.159 180.053 L 191.875 291.413 186.304 295.680 C 174.348 304.836,161.461 321.367,154.451 336.542 C 143.321 360.632,141.183 389.050,148.504 415.573 C 150.809 423.926,159.037 440.802,164.663 448.720 C 180.898 471.565,205.777 487.741,234.076 493.851 C 243.873 495.966,268.127 495.966,277.924 493.851 C 312.067 486.479,339.907 465.388,355.341 435.200 C 368.704 409.063,371.414 379.943,363.142 351.398 C 357.129 330.649,342.039 308.196,325.696 295.680 L 320.125 291.413 319.824 180.053 C 319.488 55.324,320.032 65.837,313.177 51.627 C 305.105 34.894,289.906 22.749,271.010 17.934 C 262.086 15.659,249.451 15.678,240.640 17.978 M272.213 217.472 L 272.213 338.518 277.973 341.417 C 285.605 345.258,294.735 354.356,298.440 361.813 C 308.077 381.209,304.720 402.697,289.709 417.709 C 270.734 436.684,241.339 436.672,222.225 417.682 C 207.316 402.870,203.964 381.424,213.497 361.840 C 217.087 354.465,226.288 345.312,234.027 341.417 L 239.787 338.518 239.787 217.472 L 239.787 96.427 256.000 96.427 L 272.213 96.427 272.213 217.472 " stroke="none" fill="black" fill-rule="evenodd"></path></svg>