<svg xmlns="http://www.w3.org/2000/svg" width="512" height="512" viewBox="0 0 512 512"><path d="M242.658 17.433 C 217.472 23.173,198.498 42.473,193.348 67.591 C 192.163 73.374,191.993 87.278,191.944 182.791 L 191.888 291.413 184.628 297.273 C 149.998 325.223,135.592 374.618,149.441 417.922 C 160.037 451.052,185.558 477.466,218.453 489.351 C 234.528 495.158,255.791 497.230,272.703 494.635 C 327.375 486.248,367.780 439.232,367.780 384.000 C 367.780 350.176,352.381 317.244,327.090 296.982 L 320.139 291.413 319.831 180.053 C 319.544 75.894,319.425 68.362,317.991 63.573 C 311.459 41.755,295.583 25.457,274.347 18.767 C 266.682 16.352,250.408 15.667,242.658 17.433 M269.398 51.169 C 275.988 54.235,281.893 60.046,284.868 66.392 L 287.147 71.253 287.573 186.027 L 288.000 300.800 289.837 304.730 C 292.054 309.473,296.042 313.571,305.277 320.596 C 319.392 331.334,329.947 348.332,334.253 367.262 C 336.475 377.030,336.077 393.516,333.368 403.855 C 325.938 432.213,304.207 453.912,275.730 461.409 C 263.976 464.503,248.024 464.503,236.270 461.409 C 207.886 453.937,185.779 431.950,178.830 404.282 C 176.105 393.433,175.467 384.892,176.637 374.899 C 179.158 353.373,190.455 332.974,206.701 320.614 C 215.959 313.571,219.945 309.476,222.163 304.730 L 224.000 300.800 224.427 186.027 L 224.853 71.253 227.132 66.392 C 231.133 57.855,240.301 50.566,249.476 48.626 C 255.326 47.389,263.521 48.435,269.398 51.169 M248.175 98.156 C 244.700 99.992,242.256 103.054,240.771 107.434 C 240.047 109.567,239.787 140.521,239.787 224.426 L 239.787 338.518 234.027 341.417 C 226.395 345.258,217.265 354.356,213.560 361.813 C 203.923 381.209,207.280 402.697,222.291 417.709 C 241.253 436.671,270.747 436.671,289.709 417.709 C 308.684 398.734,308.672 369.339,289.682 350.225 C 285.654 346.171,281.794 343.256,277.947 341.362 L 272.213 338.539 272.213 224.437 C 272.213 140.524,271.953 109.567,271.229 107.434 C 269.715 102.969,267.269 99.964,263.642 98.114 C 259.332 95.915,252.382 95.934,248.175 98.156 " stroke="none" fill="black" fill-rule="evenodd"></path></svg>