<svg xmlns="http://www.w3.org/2000/svg" width="512" height="512" viewBox="0 0 512 512"><path d="M99.471 33.667 C 74.980 40.777,59.586 66.120,65.235 90.027 C 65.901 92.843,66.704 95.819,67.020 96.640 C 67.410 97.652,67.186 98.133,66.323 98.133 C 65.624 98.133,62.012 99.654,58.297 101.514 C 46.743 107.297,37.659 118.363,33.803 131.355 C 31.092 140.487,32.222 154.358,36.458 163.934 L 38.195 167.860 35.842 169.250 C 34.547 170.014,31.358 172.941,28.754 175.754 C 11.440 194.455,12.185 223.717,30.440 241.972 C 35.385 246.917,46.017 253.440,49.131 253.440 C 51.132 253.440,51.289 255.008,49.787 260.024 C 47.619 267.270,47.779 279.544,50.142 287.147 C 54.867 302.349,66.744 315.188,80.580 320.051 C 87.616 322.524,91.789 322.955,154.880 327.731 C 185.856 330.075,212.462 332.195,214.004 332.441 C 216.713 332.874,216.789 332.994,216.263 336.044 C 214.056 348.826,209.264 363.423,196.739 395.520 C 193.625 403.499,190.325 412.883,189.405 416.374 C 187.348 424.185,187.178 436.977,189.038 444.115 C 194.676 465.762,215.538 480.450,239.221 479.447 C 245.370 479.187,246.728 478.837,249.354 476.833 C 251.022 475.560,253.633 472.296,255.157 469.580 C 256.681 466.863,263.898 455.808,271.196 445.013 C 303.243 397.608,316.021 378.471,323.715 366.359 C 334.161 349.913,352.055 318.656,363.931 296.107 C 368.999 286.485,373.763 277.900,374.519 277.029 C 375.275 276.158,377.318 274.718,379.059 273.829 C 381.873 272.393,384.250 272.213,400.415 272.213 C 410.419 272.213,421.793 271.814,425.689 271.325 C 460.246 266.992,487.485 241.414,494.521 206.690 C 495.682 200.961,495.845 194.571,495.583 165.028 C 495.290 131.985,495.172 129.771,493.359 123.307 C 486.184 97.723,466.547 76.861,441.526 68.238 C 430.846 64.558,424.023 64.000,389.706 64.000 L 357.236 64.000 350.174 59.301 C 329.059 45.250,306.994 37.036,281.173 33.612 C 261.997 31.069,208.189 32.993,194.575 36.708 C 192.486 37.278,189.699 37.154,185.189 36.291 C 177.859 34.889,150.972 33.396,122.880 32.831 C 107.837 32.529,102.769 32.710,99.471 33.667 M146.773 65.668 C 181.917 67.413,185.554 67.971,189.545 72.219 C 192.407 75.264,192.462 83.660,189.647 87.607 C 185.654 93.205,183.317 93.676,154.596 94.674 C 106.399 96.349,105.433 96.267,99.979 90.055 C 96.743 86.369,96.105 84.108,96.603 78.102 C 97.071 72.449,100.215 67.936,105.288 65.633 C 109.567 63.689,106.895 63.687,146.773 65.668 M273.067 64.870 C 296.726 67.321,313.907 73.635,334.533 87.460 C 341.141 91.889,346.684 94.963,349.040 95.506 C 351.316 96.031,367.133 96.397,388.267 96.416 C 416.548 96.441,424.624 96.698,428.367 97.694 C 444.295 101.933,457.205 114.630,462.218 130.987 C 463.622 135.569,463.787 139.468,463.787 168.107 C 463.787 199.580,463.753 200.210,461.738 206.360 C 456.592 222.071,443.591 234.366,427.823 238.434 C 423.778 239.478,418.029 239.790,402.650 239.801 C 379.856 239.818,374.185 240.646,364.625 245.350 C 357.979 248.620,350.611 254.800,347.162 259.998 C 345.974 261.788,340.867 271.125,335.813 280.747 C 316.113 318.251,298.507 347.542,273.239 384.853 C 266.405 394.944,254.143 413.085,245.989 425.168 L 231.163 447.135 228.008 445.517 C 219.943 441.381,217.498 433.935,220.680 423.195 C 221.435 420.646,225.123 410.688,228.876 401.067 C 240.598 371.016,244.669 358.243,247.486 342.677 C 250.498 326.033,249.261 317.571,242.695 309.900 C 238.008 304.424,233.437 302.158,225.159 301.206 C 221.236 300.755,217.362 300.383,216.549 300.380 C 215.309 300.374,215.560 299.486,218.119 294.830 C 222.190 287.424,223.551 281.863,223.563 272.582 C 223.578 261.173,220.141 251.229,213.730 244.133 C 212.104 242.333,210.773 240.569,210.773 240.213 C 210.773 239.858,212.104 238.094,213.730 236.294 C 222.680 226.388,226.190 208.331,221.879 194.375 C 220.217 188.993,214.968 179.873,212.250 177.644 C 211.014 176.629,211.257 176.019,214.638 171.665 C 220.706 163.852,222.914 157.439,223.381 146.276 C 223.687 138.966,223.446 135.680,222.320 131.805 C 220.464 125.420,217.451 119.475,214.188 115.759 C 212.779 114.154,211.627 112.608,211.627 112.322 C 211.627 112.037,213.314 109.339,215.376 106.327 C 221.687 97.108,223.068 92.523,223.110 80.640 C 223.130 75.008,222.871 69.167,222.535 67.659 L 221.922 64.919 229.361 64.635 C 246.469 63.982,265.484 64.084,273.067 64.870 M155.384 129.608 C 179.992 130.174,180.738 130.243,184.723 132.295 C 194.310 137.231,194.601 150.100,185.241 155.233 C 180.418 157.878,172.431 158.341,117.063 159.188 C 79.140 159.769,76.060 159.707,73.118 158.311 C 66.727 155.278,63.285 148.544,64.383 141.221 C 65.095 136.473,70.282 130.191,74.567 128.888 C 77.142 128.104,98.276 128.292,155.384 129.608 M150.613 193.583 C 179.311 194.138,179.673 194.167,183.849 196.272 C 189.815 199.279,191.573 202.025,191.573 208.337 C 191.573 213.238,191.423 213.596,188.043 216.749 C 186.101 218.560,182.996 220.451,181.144 220.949 C 177.692 221.879,112.364 223.532,78.034 223.559 L 59.214 223.573 55.359 221.128 C 47.302 216.019,45.661 205.219,51.827 197.891 C 53.086 196.395,55.668 194.448,57.565 193.565 C 61.307 191.824,59.536 191.824,150.613 193.583 M153.173 258.532 C 181.263 259.291,184.514 259.837,189.032 264.553 C 190.893 266.495,191.505 268.062,191.767 271.554 C 192.238 277.825,190.177 281.334,184.229 284.393 L 179.627 286.759 136.648 288.937 L 93.670 291.116 89.723 289.085 C 81.686 284.949,77.963 273.987,81.861 265.936 C 83.744 262.045,86.295 259.792,90.880 257.969 C 93.509 256.923,93.690 256.924,153.173 258.532 " stroke="none" fill="black" fill-rule="evenodd"></path></svg>