<svg xmlns="http://www.w3.org/2000/svg" width="512" height="512" viewBox="0 0 512 512"><path d="M234.924 17.542 C 185.384 24.766,141.374 56.301,119.807 100.027 C 116.574 106.583,116.540 106.617,112.679 107.115 C 84.892 110.704,65.695 120.030,46.933 139.055 C 32.384 153.809,24.344 167.929,19.216 187.733 C 16.153 199.561,15.339 218.365,17.381 230.089 C 21.282 252.475,30.684 271.141,46.074 287.049 C 61.459 302.953,78.992 312.715,101.547 317.938 C 107.011 319.203,113.881 319.470,148.545 319.768 L 189.142 320.116 182.422 359.952 C 176.502 395.041,175.811 400.233,176.627 403.537 C 177.871 408.574,180.327 411.818,184.605 414.071 C 187.861 415.787,189.645 415.972,205.813 416.271 L 223.467 416.597 223.752 450.005 C 223.965 474.929,224.318 484.064,225.142 485.973 C 228.797 494.441,238.797 498.070,247.228 493.989 C 250.605 492.354,254.694 486.938,292.458 434.079 C 315.292 402.117,334.516 374.414,335.178 372.517 C 337.499 365.859,334.023 357.369,327.642 354.114 C 324.699 352.613,322.590 352.427,308.514 352.427 C 299.813 352.427,292.693 352.228,292.693 351.984 C 292.693 351.741,294.465 344.462,296.630 335.809 L 300.566 320.076 359.137 319.760 C 423.744 319.410,421.293 319.600,436.922 313.730 C 447.790 309.648,457.242 303.653,466.314 295.090 C 509.290 254.524,503.831 185.526,455.039 152.602 C 443.098 144.544,427.471 138.713,415.250 137.755 C 405.418 136.984,405.747 137.172,404.514 131.646 C 401.425 117.808,392.593 97.672,383.994 84.863 C 364.277 55.492,336.206 34.177,303.360 23.635 C 286.358 18.179,273.003 16.165,254.742 16.305 C 248.159 16.355,239.241 16.912,234.924 17.542 M113.067 337.586 C 111.659 338.357,109.787 339.611,108.907 340.373 C 108.027 341.136,101.172 354.048,93.675 369.067 C 80.119 396.219,80.044 396.401,80.395 401.267 C 80.997 409.629,87.399 415.569,95.814 415.572 C 101.096 415.574,104.877 413.946,107.879 410.378 C 109.206 408.801,116.004 396.055,122.986 382.053 C 134.459 359.044,135.680 356.167,135.680 352.151 C 135.680 346.792,133.714 342.774,129.372 339.260 C 126.773 337.156,125.314 336.671,120.928 336.451 C 117.207 336.265,114.863 336.603,113.067 337.586 M392.738 338.014 C 390.739 339.004,388.382 340.827,387.500 342.067 C 386.618 343.306,380.094 355.958,373.002 370.183 C 358.956 398.354,358.546 399.681,361.739 406.712 C 364.043 411.785,368.556 414.929,374.209 415.397 C 385.332 416.320,386.404 415.086,402.443 382.926 C 414.593 358.564,415.573 356.248,415.573 351.910 C 415.573 346.686,414.338 343.722,410.743 340.321 C 405.992 335.826,398.975 334.927,392.738 338.014 M129.280 417.420 C 124.799 419.892,122.159 423.887,113.397 441.453 C 103.244 461.808,102.678 463.972,105.739 470.712 C 108.043 475.785,112.556 478.929,118.209 479.397 C 128.831 480.278,130.844 478.231,142.609 454.582 C 150.244 439.236,151.893 435.245,151.893 432.113 C 151.893 425.849,147.678 419.398,142.238 417.337 C 139.133 416.160,131.474 416.210,129.280 417.420 M408.206 418.064 C 404.084 420.577,401.871 424.061,392.946 442.089 C 383.647 460.875,382.776 464.186,385.509 470.365 C 387.885 475.737,392.320 478.918,398.102 479.397 C 408.724 480.278,410.737 478.231,422.503 454.582 C 432.248 434.994,433.122 432.019,430.879 426.082 C 429.767 423.139,426.176 419.247,423.082 417.630 C 419.668 415.846,411.449 416.086,408.206 418.064 " stroke="none" fill="black" fill-rule="evenodd"></path></svg>