<svg xmlns="http://www.w3.org/2000/svg" width="512" height="512" viewBox="0 0 512 512"><path d="M237.227 17.091 C 226.793 18.533,218.025 20.583,207.787 23.971 C 169.964 36.489,138.503 63.432,120.515 98.711 L 116.480 106.625 112.640 107.121 C 86.606 110.480,66.942 119.629,49.034 136.712 C 27.819 156.950,16.213 184.045,16.213 213.333 C 16.213 254.889,39.722 291.603,78.001 309.826 C 96.958 318.851,105.276 319.989,152.394 319.995 L 189.162 320.000 182.431 359.893 C 176.503 395.035,175.811 400.233,176.627 403.537 C 177.871 408.574,180.327 411.818,184.605 414.071 C 187.861 415.787,189.645 415.972,205.813 416.271 L 223.467 416.597 223.733 450.005 C 223.984 481.430,224.101 483.613,225.707 486.772 C 229.809 494.844,238.965 497.989,247.018 494.090 C 250.670 492.323,253.806 488.182,292.484 434.042 C 318.449 397.699,334.491 374.486,335.263 372.140 C 337.471 365.434,334.072 357.394,327.642 354.114 C 324.699 352.613,322.590 352.427,308.514 352.427 C 299.813 352.427,292.693 352.228,292.693 351.984 C 292.693 351.741,294.464 344.464,296.629 335.814 L 300.564 320.086 359.562 319.805 L 418.560 319.524 427.093 317.181 C 486.667 300.821,513.971 234.182,482.768 181.297 C 477.563 172.474,464.358 158.498,455.856 152.811 C 444.035 144.905,427.300 138.700,415.250 137.755 C 405.418 136.984,405.747 137.172,404.514 131.646 C 398.853 106.284,382.989 78.927,362.561 59.300 C 340.490 38.094,314.921 24.795,284.587 18.744 C 274.044 16.640,247.247 15.705,237.227 17.091 M278.972 50.293 C 303.287 55.006,323.842 66.033,341.811 84.002 C 360.290 102.481,371.163 123.562,375.501 149.322 C 378.298 165.934,381.879 168.773,400.213 168.910 C 413.853 169.012,420.859 170.511,430.931 175.483 C 437.635 178.792,440.302 180.750,446.359 186.809 C 458.337 198.790,463.728 211.840,463.660 228.693 C 463.603 242.756,460.077 253.059,451.322 264.750 C 443.886 274.679,432.261 282.412,419.243 286.087 L 412.587 287.967 270.507 288.215 C 178.463 288.376,124.710 288.155,117.872 287.587 C 98.000 285.937,84.029 279.456,69.973 265.368 C 53.465 248.823,45.922 227.545,48.578 205.013 C 50.620 187.688,57.376 173.877,69.973 161.280 C 84.604 146.650,98.528 140.414,119.519 139.090 C 135.926 138.056,139.460 136.093,143.275 125.899 C 152.849 100.308,172.525 77.383,196.795 63.538 C 209.683 56.187,227.573 50.431,243.090 48.645 C 252.190 47.597,269.063 48.372,278.972 50.293 M267.093 320.865 C 267.093 321.340,264.552 331.890,261.446 344.308 C 254.924 370.386,254.841 372.381,260.042 378.138 C 261.727 380.003,263.907 381.976,264.886 382.522 C 265.866 383.068,271.589 383.720,277.606 383.971 L 288.545 384.427 272.486 406.925 L 256.427 429.424 256.000 412.045 C 255.731 401.094,255.205 394.035,254.577 392.960 C 252.732 389.801,247.805 385.685,244.857 384.839 C 243.248 384.378,234.895 384.000,226.295 384.000 C 211.811 384.000,210.689 383.890,211.081 382.507 C 211.314 381.685,213.668 367.765,216.312 351.573 C 218.956 335.381,221.275 321.653,221.466 321.067 C 221.912 319.696,267.093 319.496,267.093 320.865 M113.067 337.634 C 111.659 338.378,109.787 339.611,108.907 340.373 C 108.027 341.136,101.172 354.048,93.675 369.067 C 80.119 396.219,80.044 396.401,80.395 401.267 C 80.997 409.629,87.399 415.569,95.814 415.572 C 101.096 415.574,104.877 413.946,107.879 410.378 C 109.206 408.801,116.042 395.981,123.070 381.889 L 135.848 356.267 135.517 351.036 C 135.125 344.847,132.417 340.609,127.131 337.912 C 123.110 335.861,116.664 335.733,113.067 337.634 M392.738 337.966 C 390.739 338.982,388.382 340.827,387.500 342.067 C 386.618 343.306,380.094 355.958,373.002 370.183 C 358.976 398.312,358.539 399.723,361.720 406.613 C 364.616 412.890,369.018 415.573,376.418 415.573 C 381.230 415.573,384.253 414.262,387.551 410.743 C 388.800 409.410,395.616 396.682,402.698 382.457 C 414.326 359.100,415.573 356.166,415.572 352.164 C 415.570 346.726,413.639 342.722,409.374 339.314 C 405.012 335.829,398.052 335.265,392.738 337.966 M129.280 417.420 C 124.799 419.892,122.159 423.887,113.397 441.453 C 103.261 461.774,102.672 464.011,105.720 470.613 C 108.616 476.890,113.018 479.573,120.418 479.573 C 129.244 479.573,131.494 477.021,142.860 454.118 C 152.716 434.257,153.311 431.953,150.280 425.387 C 148.458 421.438,145.654 418.631,142.238 417.337 C 139.133 416.160,131.474 416.210,129.280 417.420 M409.131 417.627 C 404.916 419.463,402.257 423.449,393.264 441.418 C 383.636 460.656,382.722 464.064,385.503 470.352 C 387.885 475.736,392.316 478.917,398.102 479.397 C 408.734 480.279,410.727 478.247,422.584 454.435 C 431.742 436.042,431.941 435.519,431.601 430.733 C 431.200 425.093,428.154 420.451,423.193 417.921 C 419.732 416.157,412.838 416.013,409.131 417.627 " stroke="none" fill="black" fill-rule="evenodd"></path></svg>