<svg xmlns="http://www.w3.org/2000/svg" viewBox="0 0 512 512"><path d="M308.480 17.848 C 306.195 18.918,292.177 32.377,266.062 58.576 C 228.021 96.739,226.981 97.871,223.990 104.362 L 220.923 111.018 214.355 113.996 C 207.788 116.973,207.762 116.999,113.619 211.020 C 48.620 275.936,18.956 306.124,17.851 308.480 C 16.971 310.357,16.245 313.621,16.237 315.733 C 16.205 324.518,16.219 324.536,42.956 351.424 C 56.642 365.187,69.184 377.140,70.827 377.986 C 78.683 382.034,84.452 381.305,93.799 375.085 C 101.826 369.743,106.945 368.269,115.549 368.821 C 130.343 369.771,142.199 381.650,143.173 396.498 C 143.720 404.832,142.203 410.401,137.543 417.175 C 133.005 423.771,131.499 427.493,131.459 432.213 C 131.398 439.391,133.967 442.644,160.547 469.044 C 187.463 495.778,187.485 495.795,196.267 495.763 C 198.379 495.755,201.643 495.029,203.520 494.149 C 205.876 493.045,236.068 463.377,300.983 398.381 C 395.012 304.234,395.034 304.212,398.095 297.558 L 401.157 290.902 407.725 287.919 C 414.133 285.009,415.248 283.985,453.424 245.935 C 479.626 219.819,493.082 205.806,494.152 203.520 C 495.030 201.643,495.755 198.379,495.763 196.267 C 495.795 187.466,495.820 187.499,468.646 160.223 C 454.741 146.265,442.134 134.262,440.630 133.548 C 433.317 130.078,427.099 130.876,419.174 136.302 C 410.883 141.978,405.621 143.624,397.227 143.169 C 385.985 142.558,377.397 137.043,372.042 126.996 C 369.817 122.823,369.132 120.385,368.821 115.549 C 368.269 106.945,369.743 101.826,375.085 93.799 C 381.305 84.452,382.034 78.683,377.986 70.827 C 377.140 69.184,365.187 56.642,351.424 42.956 C 324.536 16.219,324.518 16.205,315.733 16.237 C 313.621 16.245,310.357 16.970,308.480 17.848 M330.924 67.671 L 344.816 81.581 342.250 87.084 C 338.122 95.937,336.720 102.554,336.743 113.067 C 336.806 141.751,355.002 165.534,382.883 173.371 C 387.909 174.783,391.854 175.243,398.933 175.240 C 409.466 175.237,416.201 173.813,424.920 169.748 L 430.427 167.180 444.543 181.296 L 458.659 195.412 427.090 226.994 C 409.726 244.364,394.802 258.805,393.925 259.085 C 392.750 259.459,390.841 258.133,386.672 254.045 C 379.293 246.812,376.581 245.474,370.223 245.934 C 366.310 246.217,364.589 246.831,362.130 248.822 C 357.912 252.235,355.840 256.367,355.840 261.362 C 355.840 266.803,357.475 269.808,364.125 276.592 C 368.215 280.763,369.539 282.670,369.164 283.845 C 368.883 284.722,329.675 324.415,282.035 372.051 L 195.415 458.662 181.298 444.545 L 167.180 430.427 169.748 424.920 C 173.878 416.063,175.280 409.447,175.257 398.933 C 175.194 370.309,156.993 346.520,129.102 338.608 C 124.061 337.178,120.184 336.723,113.067 336.726 C 102.554 336.729,95.880 338.149,87.080 342.252 L 81.573 344.820 67.455 330.702 L 53.338 316.585 139.949 229.965 C 187.585 182.325,227.278 143.117,228.155 142.836 C 229.330 142.461,231.237 143.785,235.408 147.875 C 242.192 154.525,245.197 156.160,250.638 156.160 C 255.633 156.160,259.765 154.088,263.178 149.870 C 265.167 147.413,265.783 145.689,266.065 141.787 C 266.524 135.444,264.779 131.920,257.773 125.040 C 254.921 122.239,252.587 119.371,252.587 118.666 C 252.587 117.529,315.460 53.760,316.581 53.760 C 316.829 53.760,323.284 60.020,330.924 67.671 M276.907 158.860 C 274.188 160.360,270.458 164.069,269.150 166.571 C 267.738 169.274,267.567 176.384,268.834 179.716 C 270.143 183.159,284.046 197.087,288.000 198.917 C 296.041 202.637,305.140 199.086,309.000 190.720 C 311.002 186.384,311.001 182.251,308.997 177.920 C 307.167 173.966,293.239 160.063,289.796 158.754 C 286.752 157.597,279.082 157.660,276.907 158.860 M321.280 203.000 C 312.914 206.860,309.363 215.959,313.083 224.000 C 314.913 227.954,328.841 241.857,332.284 243.166 C 335.369 244.339,342.675 244.298,345.016 243.096 C 347.772 241.680,351.559 237.972,352.930 235.349 C 354.342 232.646,354.513 225.536,353.246 222.204 C 351.937 218.761,338.034 204.833,334.080 203.003 C 329.749 200.999,325.616 200.998,321.280 203.000 " stroke="none" fill="black" fill-rule="evenodd"></path></svg>