<svg xmlns="http://www.w3.org/2000/svg" viewBox="0 0 512 512"><path d="M270.381 60.374 L 226.316 104.533 224.466 110.241 L 222.616 115.949 216.908 117.799 L 211.200 119.648 113.708 217.048 L 16.216 314.448 50.932 349.172 L 85.647 383.895 93.062 376.839 C 103.748 366.670,111.985 363.324,121.994 365.087 C 132.075 366.863,139.984 372.784,144.279 381.771 C 147.512 388.537,148.148 394.297,146.410 401.082 C 144.592 408.178,142.648 411.224,134.691 419.444 L 128.054 426.301 162.803 461.043 L 197.552 495.784 294.952 398.292 L 392.352 300.800 394.214 295.054 L 396.076 289.309 401.771 287.562 L 407.467 285.815 451.626 241.684 L 495.786 197.554 461.045 162.805 L 426.304 128.057 419.872 134.292 C 411.804 142.114,407.957 144.637,401.493 146.344 C 388.167 149.863,373.837 143.025,367.721 130.229 C 364.488 123.463,363.852 117.703,365.590 110.918 C 367.408 103.822,369.352 100.776,377.309 92.556 L 383.946 85.699 349.196 50.956 L 314.446 16.214 270.381 60.374 M256.429 128.002 L 272.627 144.218 261.753 155.092 L 250.879 165.966 234.460 149.548 L 218.042 133.130 228.688 122.458 C 234.544 116.589,239.536 111.787,239.782 111.787 C 240.029 111.787,247.520 119.084,256.429 128.002 M299.095 170.669 L 315.294 186.884 304.420 197.759 L 293.545 208.633 277.127 192.215 L 260.709 175.797 271.355 165.125 C 277.210 159.256,282.203 154.453,282.449 154.453 C 282.695 154.453,290.186 161.750,299.095 170.669 M341.557 213.130 L 357.551 229.141 346.659 240.009 L 335.766 250.877 319.574 234.667 L 303.381 218.458 314.024 207.789 C 319.878 201.921,324.869 197.120,325.116 197.120 C 325.362 197.120,332.761 204.325,341.557 213.130 M384.429 256.002 L 400.627 272.218 389.753 283.092 L 378.879 293.966 362.460 277.548 L 346.042 261.130 356.688 250.458 C 362.544 244.589,367.536 239.787,367.782 239.787 C 368.029 239.787,375.520 247.084,384.429 256.002 " stroke="none" fill="black" fill-rule="evenodd"></path></svg>