<svg xmlns="http://www.w3.org/2000/svg" width="512" height="512" viewBox="0 0 512 512"><path d="M254.012 49.172 C 251.350 49.990,248.575 51.754,246.175 54.153 C 239.797 60.531,239.786 60.629,239.791 110.022 C 239.794 137.072,240.125 154.357,240.678 156.347 C 242.463 162.775,249.383 168.069,256.000 168.069 C 262.617 168.069,269.537 162.775,271.322 156.347 C 271.865 154.395,272.206 139.251,272.209 117.002 L 272.213 80.831 277.971 81.421 C 281.138 81.745,287.981 82.911,293.177 84.012 C 357.529 97.642,410.145 148.263,426.264 212.053 C 436.749 253.551,432.359 296.091,413.698 333.814 C 386.655 388.481,334.568 424.713,273.968 431.011 C 261.982 432.257,238.927 431.586,228.267 429.682 C 209.390 426.310,193.989 421.288,178.063 413.313 C 123.804 386.142,88.118 335.073,80.981 274.379 C 79.717 263.632,80.456 237.847,82.326 227.413 C 88.002 195.757,100.127 169.072,119.991 144.526 C 123.459 140.239,126.873 135.355,127.576 133.673 C 131.132 125.161,125.933 115.071,116.711 112.587 C 110.251 110.848,104.485 113.149,98.852 119.714 C 71.645 151.424,55.626 187.559,49.406 231.253 C 48.062 240.695,48.054 271.463,49.393 280.747 C 57.897 339.712,85.933 387.880,131.844 422.401 C 195.019 469.903,280.077 477.154,350.852 441.071 C 390.916 420.646,423.695 386.980,443.395 346.027 C 457.105 317.526,463.511 289.289,463.625 256.853 C 463.714 231.510,460.871 213.570,453.012 189.867 C 426.846 110.954,355.511 55.346,271.876 48.666 C 258.642 47.608,259.147 47.594,254.012 49.172 M156.918 153.984 C 154.242 155.489,152.359 159.619,153.065 162.434 C 153.721 165.044,232.878 278.386,237.069 282.714 C 238.798 284.500,242.703 287.188,245.747 288.688 C 250.857 291.205,251.937 291.413,259.847 291.413 C 267.808 291.413,268.817 291.215,274.109 288.609 C 280.712 285.356,285.884 280.026,289.186 273.067 C 291.148 268.932,291.413 267.307,291.411 259.413 C 291.408 251.252,291.190 250.024,288.968 245.633 C 287.626 242.982,284.747 239.086,282.571 236.975 C 276.162 230.758,165.016 153.533,161.855 153.101 C 160.365 152.897,158.144 153.295,156.918 153.984 " stroke="none" fill="black" fill-rule="evenodd"></path></svg>