<svg xmlns="http://www.w3.org/2000/svg" width="512" height="512" viewBox="0 0 512 512"><path d="M238.790 48.708 C 199.901 51.925,162.269 66.422,129.782 90.701 C 119.266 98.560,98.560 119.266,90.701 129.782 C 69.069 158.727,55.338 191.226,50.352 225.280 C 42.149 281.314,56.217 336.040,90.695 382.218 C 98.476 392.640,119.191 413.346,129.707 421.213 C 160.300 444.101,192.921 457.398,231.253 462.606 C 242.659 464.156,272.000 463.930,283.567 462.204 C 353.989 451.696,412.003 409.894,442.434 347.733 C 457.257 317.454,463.599 289.966,463.599 256.000 C 463.599 222.419,457.247 194.557,442.880 165.120 C 431.962 142.752,420.990 127.453,402.774 109.202 C 384.698 91.090,369.338 80.067,346.880 69.089 C 313.251 52.649,276.017 45.629,238.790 48.708 M260.674 112.738 C 265.024 113.946,270.054 118.976,271.262 123.326 C 271.911 125.664,272.205 146.831,272.209 191.360 L 272.213 256.000 313.757 256.000 C 354.348 256.000,355.387 256.042,359.040 257.810 C 364.745 260.572,367.360 265.121,367.360 272.285 C 367.360 277.411,367.079 278.381,364.745 281.307 C 363.307 283.111,360.619 285.355,358.772 286.293 C 355.523 287.944,353.725 288.000,303.787 288.000 L 252.160 288.000 248.605 286.099 C 244.729 284.027,242.298 281.068,240.771 276.566 C 239.436 272.630,239.376 128.234,240.707 123.439 C 241.901 119.139,246.189 114.576,250.453 113.068 C 254.645 111.587,256.329 111.532,260.674 112.738 " stroke="none" fill="black" fill-rule="evenodd"></path></svg>