<svg xmlns="http://www.w3.org/2000/svg" width="512" height="512" viewBox="0 0 512 512"><path d="M238.790 48.645 C 199.082 52.231,162.237 66.445,129.782 90.701 C 119.266 98.560,98.560 119.266,90.701 129.782 C 69.069 158.727,55.338 191.226,50.352 225.280 C 42.149 281.317,56.233 336.098,90.701 382.218 C 98.560 392.734,119.266 413.440,129.782 421.299 C 159.325 443.378,191.282 456.632,228.433 462.214 C 241.044 464.108,270.956 464.108,283.567 462.214 C 320.848 456.613,352.520 443.479,382.218 421.305 C 392.650 413.516,413.335 392.818,421.281 382.218 C 443.318 352.818,456.629 320.739,462.214 283.567 C 463.163 277.248,463.599 268.573,463.599 256.000 C 463.599 243.427,463.163 234.752,462.214 228.433 C 456.612 191.146,443.459 159.433,421.299 129.782 C 413.440 119.266,392.734 98.560,382.218 90.701 C 356.799 71.704,327.984 58.475,298.971 52.482 C 280.913 48.752,255.531 47.134,238.790 48.645 M284.587 82.312 C 322.724 89.219,353.990 105.458,380.626 132.194 C 413.645 165.336,431.787 209.237,431.787 256.000 C 431.787 303.001,413.585 346.837,380.211 380.211 C 353.891 406.531,322.251 422.896,284.587 429.669 C 272.333 431.873,248.396 432.293,234.686 430.544 C 183.145 423.971,138.441 396.337,109.358 353.074 C 78.771 307.571,71.667 246.601,90.926 194.870 C 99.237 172.549,114.821 147.969,130.050 133.165 L 133.953 129.371 136.310 131.086 C 137.606 132.029,170.239 155.344,208.828 182.896 L 278.989 232.991 269.974 247.269 C 265.016 255.122,260.695 261.827,260.373 262.171 C 260.051 262.514,255.383 259.599,250.000 255.694 C 244.617 251.788,216.625 231.409,187.795 210.406 L 135.376 172.220 133.925 174.144 C 130.998 178.024,119.542 201.204,116.454 209.493 C 103.993 242.948,106.188 284.120,122.264 318.433 C 153.182 384.427,227.581 418.046,297.570 397.648 C 346.951 383.256,386.403 342.462,398.942 292.826 C 416.066 225.044,384.298 155.295,322.133 124.186 C 306.762 116.494,290.595 111.454,275.413 109.622 L 270.507 109.030 270.507 136.435 L 270.507 163.840 256.000 163.840 L 241.493 163.840 241.493 121.913 L 241.493 79.985 259.200 80.453 C 269.759 80.733,280.007 81.483,284.587 82.312 " stroke="none" fill="black" fill-rule="evenodd"></path></svg>