<svg xmlns="http://www.w3.org/2000/svg" width="512" height="512" viewBox="0 0 512 512"><path d="M238.790 48.645 C 199.082 52.231,162.237 66.445,129.782 90.701 C 119.266 98.560,98.560 119.266,90.701 129.782 C 69.069 158.727,55.338 191.226,50.352 225.280 C 42.149 281.317,56.233 336.098,90.701 382.218 C 98.560 392.734,119.266 413.440,129.782 421.299 C 159.325 443.378,191.282 456.632,228.433 462.214 C 241.044 464.108,270.956 464.108,283.567 462.214 C 320.848 456.613,352.520 443.479,382.218 421.305 C 392.650 413.516,413.335 392.818,421.281 382.218 C 443.318 352.818,456.629 320.739,462.214 283.567 C 463.163 277.248,463.599 268.573,463.599 256.000 C 463.599 243.427,463.163 234.752,462.214 228.433 C 456.612 191.146,443.459 159.433,421.299 129.782 C 413.440 119.266,392.734 98.560,382.218 90.701 C 356.799 71.704,327.984 58.475,298.971 52.482 C 280.913 48.752,255.531 47.134,238.790 48.645 M278.322 81.569 C 335.117 88.879,384.820 123.418,411.689 174.248 C 447.537 242.062,434.760 325.662,380.211 380.211 C 353.891 406.531,322.251 422.896,284.587 429.669 C 272.333 431.873,248.396 432.293,234.686 430.544 C 195.030 425.486,160.401 408.614,132.186 380.602 C 109.151 357.733,93.624 330.759,85.757 299.947 C 70.528 240.301,86.884 177.881,129.209 134.124 C 136.411 126.679,138.526 125.440,144.045 125.440 C 151.275 125.440,156.948 130.687,157.653 138.026 C 158.156 143.263,156.187 147.375,150.602 152.747 C 148.406 154.859,144.396 159.275,141.691 162.560 C 105.947 205.973,98.304 267.291,122.264 318.433 C 153.182 384.427,227.581 418.046,297.570 397.648 C 346.951 383.256,386.403 342.462,398.942 292.826 C 416.066 225.044,384.298 155.295,322.133 124.186 C 306.762 116.494,290.595 111.454,275.413 109.622 L 270.507 109.030 270.502 136.648 C 270.499 154.063,270.151 165.513,269.561 167.640 C 268.354 171.986,264.127 176.182,259.584 177.543 C 252.514 179.661,244.397 174.867,242.381 167.382 C 241.705 164.872,241.487 152.549,241.665 126.900 C 241.908 91.791,242.002 89.891,243.627 87.182 C 244.565 85.618,246.869 83.413,248.747 82.283 C 251.687 80.514,253.242 80.228,259.975 80.221 C 264.273 80.217,272.529 80.823,278.322 81.569 M171.124 161.292 C 174.849 162.708,278.295 232.882,282.286 236.700 C 284.306 238.632,287.186 242.701,288.686 245.742 C 291.204 250.847,291.413 251.926,291.413 259.822 C 291.413 267.272,291.126 268.978,289.186 273.067 C 285.883 280.028,280.712 285.356,274.106 288.609 C 268.760 291.241,267.856 291.413,259.431 291.413 C 251.002 291.413,250.141 291.249,245.333 288.715 C 242.517 287.231,238.807 284.543,237.087 282.741 C 235.368 280.940,217.718 255.467,197.866 226.133 C 160.315 170.647,159.602 169.423,162.120 164.718 C 162.879 163.300,166.567 160.910,168.691 160.460 C 168.778 160.442,169.873 160.816,171.124 161.292 " stroke="none" fill="black" fill-rule="evenodd"></path></svg>