<svg xmlns="http://www.w3.org/2000/svg" viewBox="0 0 512 512"><path d="M120.175 34.156 C 113.914 37.464,111.787 42.791,111.787 55.167 L 111.787 64.000 101.084 64.000 C 80.073 64.000,65.860 69.059,52.430 81.320 C 43.241 89.708,36.122 102.375,33.149 115.627 C 32.210 119.813,32.000 148.300,32.000 271.787 C 32.000 442.533,31.463 429.077,38.882 444.160 C 47.168 461.004,61.704 472.813,80.640 478.083 L 87.467 479.983 249.173 480.250 C 358.329 480.431,413.958 480.224,420.351 479.615 C 434.819 478.236,445.528 474.134,455.452 466.170 C 466.568 457.248,474.376 445.099,478.095 430.933 L 480.000 423.680 480.000 272.213 C 480.000 107.679,480.266 116.973,475.190 104.170 C 467.217 84.058,449.322 69.343,427.838 65.232 C 424.295 64.555,416.630 64.000,410.805 64.000 L 400.213 64.000 400.213 55.167 C 400.213 46.005,399.403 42.195,396.598 38.167 C 391.333 30.609,376.667 30.609,371.402 38.167 C 368.597 42.195,367.787 46.005,367.787 55.167 L 367.787 64.000 256.000 64.000 L 144.213 64.000 144.213 55.167 C 144.213 42.664,142.067 37.392,135.642 34.114 C 131.332 31.915,124.382 31.934,120.175 34.156 M429.835 99.198 C 442.935 106.104,448.000 115.844,448.000 134.128 L 448.000 144.213 255.905 144.213 L 63.810 144.213 64.181 132.053 C 64.510 121.260,64.797 119.366,66.731 115.200 C 70.617 106.832,77.298 100.752,86.054 97.612 C 88.593 96.701,120.422 96.526,257.280 96.673 L 425.387 96.853 429.835 99.198 M447.801 299.733 L 447.573 423.680 444.906 429.227 C 441.505 436.302,436.249 441.563,429.227 444.921 L 423.680 447.573 256.000 447.573 L 88.320 447.573 83.111 445.166 C 76.521 442.120,69.949 435.520,66.815 428.800 L 64.427 423.680 64.199 299.733 L 63.972 175.787 256.000 175.787 L 448.028 175.787 447.801 299.733 M114.604 210.008 C 108.957 212.179,102.051 218.369,99.367 223.665 C 98.220 225.928,96.905 230.386,96.444 233.570 C 95.415 240.690,95.350 302.053,96.364 309.912 C 97.711 320.353,103.717 328.681,113.289 333.382 L 118.187 335.787 159.147 335.787 C 189.733 335.787,201.006 335.513,203.659 334.707 C 211.445 332.341,219.826 324.042,222.756 315.797 C 224.222 311.671,224.966 244.258,223.653 234.501 C 222.532 226.170,219.691 220.578,213.964 215.429 C 211.694 213.388,207.730 210.930,205.153 209.966 C 200.662 208.285,198.794 208.215,159.755 208.258 C 121.159 208.300,118.809 208.391,114.604 210.008 M192.000 271.787 L 192.000 303.787 160.000 303.787 L 128.000 303.787 128.000 271.787 L 128.000 239.787 160.000 239.787 L 192.000 239.787 192.000 271.787 " stroke="none" fill="black" fill-rule="evenodd"></path></svg>