<svg xmlns="http://www.w3.org/2000/svg" width="512" height="512" viewBox="0 0 512 512"><path d="M129.707 112.745 C 68.232 118.942,16.447 165.026,3.409 225.140 C -4.169 260.077,1.686 297.806,19.366 327.963 C 43.187 368.595,84.192 394.749,131.290 399.350 C 143.238 400.517,368.762 400.517,380.710 399.350 C 446.316 392.941,498.188 345.163,509.939 280.320 C 512.089 268.454,512.089 243.546,509.939 231.680 C 504.668 202.593,491.926 177.559,471.630 156.414 C 447.317 131.084,416.229 116.120,380.710 112.650 C 369.860 111.590,140.300 111.677,129.707 112.745 M393.885 147.083 C 416.042 152.634,433.109 162.505,448.879 178.890 C 464.204 194.814,474.486 215.049,478.254 236.698 C 479.949 246.434,479.965 265.475,478.288 275.096 C 475.649 290.225,469.448 305.485,460.386 319.147 C 454.951 327.339,439.163 343.144,431.059 348.503 C 418.646 356.712,404.940 362.552,390.827 365.645 C 381.011 367.796,360.658 368.253,350.295 366.554 C 290.867 356.813,249.581 301.904,256.887 242.324 C 262.844 193.737,300.677 154.024,349.096 145.533 C 360.440 143.543,382.854 144.319,393.885 147.083 " stroke="none" fill="black" fill-rule="evenodd"></path></svg>