<svg xmlns="http://www.w3.org/2000/svg" width="512" height="512" viewBox="0 0 512 512"><path d="M233.813 48.213 L 233.813 64.000 161.490 64.000 L 89.167 64.000 49.277 103.897 L 9.387 143.793 49.710 184.110 L 90.033 224.427 161.923 224.427 L 233.813 224.427 233.813 240.213 L 233.813 256.000 148.907 256.000 L 64.000 256.000 64.000 336.213 L 64.000 416.427 148.896 416.427 L 233.793 416.427 234.016 448.213 L 234.240 480.000 256.000 480.000 L 277.760 480.000 277.984 448.213 L 278.207 416.427 350.094 416.427 L 421.980 416.427 462.297 376.103 L 502.613 335.780 462.717 295.890 L 422.820 256.000 350.503 256.000 L 278.187 256.000 278.187 240.213 L 278.187 224.427 363.093 224.427 L 448.000 224.427 448.000 144.213 L 448.000 64.000 363.093 64.000 L 278.187 64.000 278.187 48.213 L 278.187 32.427 256.000 32.427 L 233.813 32.427 233.813 48.213 " stroke="none" fill="black" fill-rule="evenodd"></path></svg>