<svg xmlns="http://www.w3.org/2000/svg" width="512" height="512" viewBox="0 0 512 512"><path d="M248.175 34.156 C 241.914 37.464,239.787 42.791,239.787 55.167 L 239.787 64.000 168.933 64.000 C 99.300 64.000,97.988 64.031,92.781 65.785 C 89.866 66.767,85.750 68.854,83.634 70.424 C 76.471 75.737,18.945 134.174,17.532 137.573 C 15.856 141.605,15.846 147.021,17.508 150.524 C 18.220 152.025,33.676 168.053,51.855 186.142 C 87.660 221.771,87.940 221.993,98.771 223.560 C 102.128 224.045,132.759 224.400,172.160 224.410 L 239.787 224.427 239.787 240.191 L 239.787 255.956 164.053 256.191 L 88.320 256.427 82.773 259.079 C 75.751 262.437,70.495 267.698,67.094 274.773 L 64.427 280.320 64.183 334.039 C 63.946 386.030,63.994 387.938,65.675 393.346 C 68.722 403.151,75.180 409.997,85.210 414.052 L 90.027 416.000 164.907 416.248 L 239.787 416.497 239.787 441.081 C 239.787 466.397,240.081 469.064,243.402 473.833 C 248.667 481.391,263.333 481.391,268.598 473.833 C 271.919 469.064,272.213 466.399,272.213 441.046 L 272.213 416.427 339.840 416.410 C 379.409 416.400,409.866 416.046,413.251 415.556 C 424.305 413.958,425.691 412.849,461.392 377.024 C 479.318 359.037,494.390 343.239,494.886 341.918 C 496.175 338.481,495.998 333.253,494.468 329.573 C 493.026 326.104,435.452 267.679,428.120 262.244 C 425.869 260.575,421.707 258.487,418.871 257.605 C 413.998 256.088,409.821 256.000,342.964 256.000 L 272.213 256.000 272.213 240.248 L 272.213 224.497 347.093 224.248 L 421.973 224.000 426.790 222.052 C 436.820 217.997,443.278 211.151,446.325 201.346 C 448.006 195.938,448.054 194.030,447.817 142.039 L 447.573 88.320 444.906 82.773 C 441.505 75.698,436.249 70.437,429.227 67.079 L 423.680 64.427 347.947 64.191 L 272.213 63.956 272.213 55.145 C 272.213 42.665,270.063 37.390,263.642 34.114 C 259.332 31.915,252.382 31.934,248.175 34.156 M415.573 144.213 L 415.573 192.000 259.206 192.000 L 102.838 192.000 78.726 167.899 L 54.613 143.798 78.288 120.112 L 101.962 96.427 258.768 96.427 L 415.573 96.427 415.573 144.213 M433.701 312.101 L 457.387 335.775 433.286 359.888 L 409.185 384.000 252.806 384.000 L 96.427 384.000 96.427 336.213 L 96.427 288.427 253.221 288.427 L 410.015 288.427 433.701 312.101 " stroke="none" fill="black" fill-rule="evenodd"></path></svg>