<svg xmlns="http://www.w3.org/2000/svg" width="512" height="512" viewBox="0 0 512 512"><path d="M200.702 18.032 C 196.434 20.145,193.036 24.672,192.299 29.227 L 191.782 32.427 156.691 32.427 L 121.600 32.428 116.480 34.862 C 108.759 38.531,102.999 44.203,99.214 51.862 L 96.000 58.364 95.768 204.167 C 95.604 306.958,95.808 350.984,96.461 353.408 C 98.511 361.019,111.443 370.159,140.373 384.441 C 161.076 394.662,173.916 400.316,201.813 411.496 C 220.417 418.952,254.692 431.787,255.999 431.787 C 257.311 431.787,289.047 419.812,309.824 411.478 C 380.504 383.127,414.157 364.103,415.973 351.470 C 416.268 349.415,416.395 282.645,416.255 203.093 L 416.000 58.453 413.357 52.907 C 409.594 45.011,403.932 39.097,396.638 35.449 L 390.597 32.427 355.408 32.427 L 320.218 32.427 319.696 29.160 C 318.950 24.494,314.899 19.308,310.683 17.621 C 307.551 16.368,301.534 16.213,255.769 16.214 C 205.048 16.215,204.325 16.239,200.702 18.032 M363.537 113.075 C 364.908 113.784,366.425 115.103,366.908 116.006 C 367.477 117.069,367.787 132.584,367.787 160.000 C 367.787 187.416,367.477 202.931,366.908 203.994 C 364.557 208.386,369.104 208.213,256.000 208.213 C 142.896 208.213,147.443 208.386,145.092 203.994 C 143.889 201.746,143.885 118.261,145.088 116.013 C 147.406 111.683,142.796 111.858,255.829 111.821 C 348.051 111.791,361.353 111.946,363.537 113.075 M265.017 256.912 C 273.216 258.389,283.500 263.840,289.575 269.929 C 308.491 288.889,308.587 318.909,289.792 337.519 C 279.866 347.347,269.706 351.573,256.000 351.573 C 242.294 351.573,232.134 347.347,222.208 337.519 C 212.767 328.171,208.213 317.151,208.213 303.655 C 208.213 285.784,218.813 268.933,234.944 261.158 C 245.119 256.253,254.222 254.968,265.017 256.912 M329.990 425.154 L 313.954 432.028 321.244 439.478 C 325.253 443.575,328.533 447.168,328.533 447.463 C 328.533 447.759,295.613 448.000,255.377 448.000 L 182.220 448.000 190.165 440.022 L 198.110 432.044 182.071 425.487 L 166.033 418.930 127.604 457.358 L 89.176 495.787 111.806 495.787 L 134.436 495.787 142.080 488.107 L 149.724 480.427 255.540 480.427 L 361.355 480.427 369.081 488.121 L 376.807 495.815 399.472 495.588 L 422.138 495.360 384.082 456.820 L 346.027 418.279 329.990 425.154 " stroke="none" fill="black" fill-rule="evenodd"></path></svg>