<svg xmlns="http://www.w3.org/2000/svg" width="512" height="512" viewBox="0 0 512 512"><path d="M31.780 88.107 L 32.000 143.787 53.973 144.014 L 75.947 144.242 75.947 125.672 L 75.947 107.102 86.394 117.549 L 96.841 127.996 80.423 144.430 L 64.005 160.864 79.570 176.430 L 95.136 191.995 111.554 175.593 L 127.972 159.191 131.732 162.881 L 135.492 166.571 130.811 173.526 C 112.871 200.178,103.435 237.318,106.607 268.800 C 111.322 315.603,134.581 354.721,173.135 380.689 C 194.124 394.825,217.964 403.061,244.633 405.387 C 276.389 408.156,312.211 398.879,338.347 381.115 L 345.173 376.475 356.908 388.121 L 368.643 399.767 352.221 416.206 L 335.798 432.645 351.366 448.213 L 366.933 463.781 383.356 447.358 L 399.778 430.936 424.317 455.464 L 448.856 479.992 464.424 464.424 L 479.992 448.856 455.464 424.317 L 430.936 399.778 447.358 383.356 L 463.781 366.933 448.213 351.366 L 432.645 335.798 416.206 352.221 L 399.767 368.643 388.150 356.908 L 376.532 345.173 381.571 337.493 C 399.290 310.488,408.121 275.988,405.375 244.500 C 403.124 218.693,395.021 194.784,381.620 174.410 L 376.504 166.633 406.279 136.868 L 436.053 107.102 436.053 125.658 L 436.053 144.213 457.813 144.213 L 479.573 144.213 479.573 88.320 L 479.573 32.427 423.680 32.427 L 367.787 32.427 367.787 54.187 L 367.787 75.947 386.342 75.947 L 404.898 75.947 375.134 105.719 L 345.371 135.491 337.005 130.010 C 321.237 119.679,301.025 111.717,281.669 108.212 C 267.585 105.663,244.294 105.686,230.032 108.264 C 210.881 111.725,188.842 120.522,173.526 130.818 L 166.571 135.492 162.881 131.732 L 159.191 127.972 175.593 111.554 L 191.995 95.136 176.430 79.570 L 160.864 64.005 144.430 80.423 L 127.996 96.841 117.549 86.394 L 107.102 75.947 125.658 75.947 L 144.213 75.947 144.213 54.187 L 144.213 32.427 87.887 32.427 L 31.561 32.427 31.780 88.107 M273.960 151.565 C 304.608 156.829,330.983 175.080,347.388 202.375 C 356.176 216.997,360.878 233.395,361.541 251.733 C 362.662 282.770,352.447 308.886,330.667 330.667 C 318.012 343.321,304.784 351.518,288.642 356.708 C 238.836 372.722,184.783 349.939,161.059 302.933 C 153.217 287.395,149.764 270.688,150.478 251.733 C 150.981 238.407,152.463 230.782,156.936 218.526 C 169.394 184.391,201.198 158.000,237.653 151.548 C 247.097 149.877,264.179 149.884,273.960 151.565 " stroke="none" fill="black" fill-rule="evenodd"></path></svg>