<svg xmlns="http://www.w3.org/2000/svg" width="512" height="512" viewBox="0 0 512 512"><path d="M40.127 49.155 C 30.998 51.608,23.115 58.084,18.953 66.549 L 16.640 71.253 16.640 103.680 L 16.640 136.107 18.910 140.949 C 25.380 154.751,36.602 160.364,57.813 160.410 C 62.155 160.419,65.707 160.620,65.707 160.856 C 65.707 166.300,93.458 425.949,94.390 429.227 C 99.147 445.954,113.622 459.284,130.987 462.930 C 139.939 464.809,372.061 464.809,381.013 462.930 C 398.378 459.284,412.853 445.954,417.610 429.227 C 418.542 425.949,446.293 166.300,446.293 160.856 C 446.293 160.620,449.845 160.419,454.187 160.410 C 475.536 160.364,486.575 154.850,493.073 140.986 L 495.360 136.107 495.360 103.680 L 495.360 71.253 492.676 66.133 C 487.918 57.057,480.525 51.151,471.166 48.948 C 467.223 48.020,428.024 47.821,255.573 47.856 C 72.815 47.893,44.179 48.066,40.127 49.155 M464.213 104.107 L 464.213 128.000 256.000 128.000 L 47.787 128.000 47.787 104.107 L 47.787 80.213 256.000 80.213 L 464.213 80.213 464.213 104.107 M413.867 162.070 C 413.867 166.859,387.244 418.982,386.495 421.280 C 385.227 425.174,382.628 428.168,378.833 430.104 C 375.597 431.755,373.287 431.787,256.000 431.787 C 138.713 431.787,136.403 431.755,133.167 430.104 C 129.371 428.167,126.771 425.172,125.508 421.280 C 124.758 418.972,98.133 166.879,98.133 162.094 C 98.133 160.446,99.959 160.427,256.000 160.427 C 411.279 160.427,413.867 160.454,413.867 162.070 M192.427 226.023 C 189.029 228.133,186.346 231.138,185.230 234.082 C 183.900 237.592,184.118 243.734,185.683 246.869 C 186.433 248.371,197.464 260.058,210.197 272.839 L 233.347 296.079 209.333 320.199 C 183.234 346.415,183.562 345.960,184.536 354.608 C 185.642 364.417,197.816 370.889,206.762 366.424 C 208.264 365.674,219.957 354.636,232.747 341.896 L 256.000 318.732 279.253 341.896 C 292.043 354.636,303.736 365.674,305.238 366.424 C 314.184 370.889,326.358 364.417,327.464 354.608 C 328.438 345.960,328.766 346.415,302.667 320.199 L 278.653 296.079 301.803 272.839 C 314.536 260.058,325.567 248.371,326.317 246.869 C 327.881 243.736,328.100 237.595,326.772 234.082 C 325.661 231.139,322.070 227.247,318.976 225.630 C 316.266 224.215,309.181 224.049,305.762 225.320 C 304.441 225.812,292.704 236.849,279.680 249.848 L 256.000 273.482 232.320 249.848 C 219.296 236.849,207.559 225.812,206.238 225.320 C 202.356 223.876,195.306 224.235,192.427 226.023 " stroke="none" fill="black" fill-rule="evenodd"></path></svg>