<svg xmlns="http://www.w3.org/2000/svg" width="512" height="512" viewBox="0 0 512 512"><path d="M36.261 133.126 L 25.186 144.225 108.592 227.631 L 191.998 311.037 240.001 263.039 L 288.005 215.041 356.267 283.307 L 424.529 351.573 380.371 351.573 L 336.213 351.573 336.213 367.787 L 336.213 384.000 408.325 384.000 L 480.436 384.000 480.218 312.107 L 480.000 240.213 464.000 239.981 L 448.000 239.749 448.000 284.353 L 448.000 328.957 368.425 249.385 C 324.659 205.621,288.468 169.813,288.001 169.813 C 287.534 169.813,265.743 191.220,239.576 217.384 L 191.999 264.955 120.531 193.491 C 81.224 154.186,48.674 122.027,48.199 122.027 C 47.724 122.027,42.352 127.021,36.261 133.126 " stroke="none" fill="black" fill-rule="evenodd"></path></svg>