<svg xmlns="http://www.w3.org/2000/svg" viewBox="0 0 512 512"><path d="M68.467 68.492 C 62.725 74.248,58.027 79.336,58.027 79.798 C 58.027 80.260,138.568 161.180,237.007 259.621 L 415.988 438.603 427.306 427.308 L 438.624 416.013 259.633 237.020 C 161.188 138.574,80.251 58.027,79.775 58.027 C 79.298 58.027,74.209 62.736,68.467 68.492 M26.997 113.037 C 22.958 114.477,18.957 118.120,17.388 121.786 C 15.655 125.837,15.634 386.081,17.366 390.227 C 18.890 393.875,23.913 398.195,27.923 399.309 C 32.375 400.545,320.000 400.559,324.449 399.324 C 326.192 398.840,327.875 398.029,328.188 397.522 C 328.513 396.997,267.468 335.309,186.353 254.193 L 43.949 111.787 37.121 111.824 C 33.366 111.845,28.810 112.390,26.997 113.037 M302.508 234.673 L 425.387 357.559 459.849 378.246 C 478.803 389.624,494.643 399.061,495.049 399.218 C 495.462 399.377,495.787 336.361,495.787 255.980 C 495.787 141.507,495.571 112.542,494.720 112.876 C 494.133 113.107,458.391 134.460,415.293 160.328 C 372.195 186.195,336.771 207.360,336.573 207.360 C 336.375 207.360,336.211 189.216,336.209 167.040 C 336.205 140.255,335.888 125.581,335.262 123.326 C 334.054 118.976,329.024 113.946,324.674 112.738 C 322.324 112.086,299.496 111.795,250.454 111.791 L 179.629 111.787 302.508 234.673 " stroke="none" fill="black" fill-rule="evenodd"></path></svg>