<svg xmlns="http://www.w3.org/2000/svg" viewBox="0 0 512 512"><path d="M74.567 64.925 C 70.311 66.159,65.098 72.454,64.383 77.221 C 63.029 86.248,49.907 72.379,235.799 258.404 C 333.248 355.923,407.111 429.192,408.926 430.137 C 414.683 433.136,423.534 431.638,427.630 426.971 C 431.980 422.015,433.028 414.473,430.136 408.926 C 427.611 404.081,89.967 66.945,86.001 65.309 C 82.513 63.870,78.652 63.740,74.567 64.925 M202.799 113.002 C 198.558 114.552,195.579 117.341,193.613 121.600 C 190.086 129.241,193.221 138.105,200.960 142.374 C 203.193 143.606,208.210 143.842,240.213 144.222 C 276.428 144.652,276.973 144.685,282.027 146.701 C 289.160 149.548,298.444 158.828,301.307 165.973 C 303.349 171.069,303.361 171.289,303.786 211.627 L 304.213 252.160 306.476 256.009 C 312.921 266.971,328.455 266.292,334.076 254.804 L 336.333 250.192 336.010 209.789 C 335.707 171.785,335.581 169.000,333.877 162.871 C 327.190 138.808,309.216 120.817,285.187 114.135 C 279.021 112.420,276.364 112.291,242.347 112.055 C 212.837 111.849,205.469 112.026,202.799 113.002 M45.227 125.176 C 36.189 128.382,23.558 145.534,18.639 161.280 L 16.640 167.680 16.640 256.000 L 16.640 344.320 18.638 350.720 C 25.050 371.254,39.768 387.378,59.092 395.036 C 71.534 399.968,67.050 399.787,176.640 399.787 C 273.029 399.787,278.039 399.711,283.733 398.178 C 291.306 396.138,298.500 392.984,301.086 390.570 C 308.482 383.664,306.852 370.409,297.994 365.431 C 293.487 362.898,287.888 362.964,280.320 365.639 L 274.347 367.751 176.503 367.769 C 81.938 367.786,78.480 367.731,73.324 366.126 C 64.056 363.242,56.525 356.926,52.167 348.382 C 47.729 339.684,47.787 340.894,47.787 256.289 C 47.787 201.221,48.075 176.219,48.747 173.055 C 50.143 166.480,54.043 159.311,58.949 154.301 C 65.761 147.343,67.319 142.811,65.269 135.908 C 63.881 131.234,60.797 127.860,56.134 125.912 C 53.038 124.619,47.794 124.265,45.227 125.176 M453.973 129.288 C 450.242 130.517,371.144 185.491,362.506 192.859 C 357.359 197.248,353.400 205.136,352.383 213.027 C 351.402 220.640,351.402 291.360,352.383 298.973 C 353.400 306.864,357.359 314.752,362.506 319.141 C 364.706 321.018,385.323 335.805,408.320 352.001 C 454.804 384.738,454.307 384.465,466.269 383.837 C 472.047 383.534,474.043 383.011,478.508 380.631 C 484.965 377.189,490.042 371.877,493.090 365.376 L 495.360 360.533 495.360 256.000 L 495.360 151.467 493.090 146.624 C 490.045 140.129,484.970 134.816,478.508 131.358 C 473.764 128.820,472.323 128.477,465.493 128.263 C 460.405 128.104,456.518 128.450,453.973 129.288 M464.213 256.000 C 464.213 308.565,464.027 351.573,463.799 351.573 C 463.571 351.573,453.683 344.738,441.826 336.384 C 429.968 328.030,412.107 315.455,402.133 308.441 L 384.000 295.688 384.000 255.994 L 384.000 216.301 401.592 203.937 C 411.267 197.137,429.027 184.595,441.058 176.066 C 453.090 167.536,463.221 160.528,463.573 160.492 C 463.925 160.456,464.213 203.435,464.213 256.000 " stroke="none" fill="black" fill-rule="evenodd"></path></svg>