<svg xmlns="http://www.w3.org/2000/svg" width="512" height="512" viewBox="0 0 512 512"><path d="M57.565 65.604 C 53.356 67.516,49.856 71.515,48.678 75.760 C 47.562 79.777,47.570 80.522,48.772 84.808 C 49.636 87.888,71.639 110.220,227.759 266.472 C 349.898 388.714,406.849 445.154,409.229 446.312 C 421.283 452.177,433.907 441.634,431.410 427.787 C 430.881 424.852,413.321 407.017,252.318 245.886 C 127.785 121.253,72.781 66.754,70.400 65.638 C 66.088 63.616,61.965 63.605,57.565 65.604 M409.173 81.634 C 403.362 84.705,400.213 89.756,400.213 96.008 C 400.213 100.462,400.693 101.508,409.259 115.733 C 430.814 151.529,441.482 182.459,446.454 223.573 C 447.875 235.319,447.883 276.574,446.467 288.853 C 443.382 315.615,437.274 339.635,428.256 360.467 C 423.462 371.541,423.492 371.672,433.014 381.335 C 440.568 389.000,441.284 389.508,444.534 389.508 C 449.461 389.508,451.333 387.210,456.967 374.247 C 469.082 346.372,475.948 318.602,478.789 285.987 C 480.095 270.983,479.325 226.666,477.527 213.394 C 472.881 179.099,464.893 153.118,449.632 122.671 C 443.669 110.775,432.682 91.778,428.650 86.392 C 424.432 80.758,415.131 78.486,409.173 81.634 M224.000 97.469 C 222.592 97.968,220.288 99.167,218.880 100.132 C 214.954 102.824,188.298 124.741,187.120 126.245 C 186.549 126.976,186.069 129.103,186.054 130.973 C 186.027 134.312,186.549 134.894,215.267 163.613 C 243.455 191.800,244.625 192.853,247.759 192.853 C 250.216 192.853,251.621 192.243,253.506 190.359 L 256.000 187.865 256.000 152.541 C 256.000 112.383,255.871 111.375,249.850 104.535 C 244.971 98.993,239.301 96.426,232.107 96.502 C 229.056 96.535,225.408 96.970,224.000 97.469 M364.373 128.598 C 356.364 131.495,352.427 136.595,352.427 144.072 C 352.427 148.194,353.051 149.843,357.976 158.725 C 375.563 190.444,382.469 214.377,383.705 247.893 C 384.530 270.262,382.097 291.885,376.742 309.777 C 373.250 321.441,373.286 321.566,382.980 331.260 C 390.502 338.781,391.661 339.627,394.453 339.627 C 398.844 339.627,401.393 336.932,403.997 329.533 C 412.249 306.089,415.573 284.983,415.573 256.027 C 415.573 220.668,410.472 195.106,397.706 166.502 C 391.869 153.423,382.114 135.782,379.154 132.952 C 375.022 129.001,368.538 127.091,364.373 128.598 M50.773 176.587 C 43.506 178.364,37.217 183.652,33.964 190.720 L 32.000 194.987 32.000 256.000 L 32.000 317.013 33.964 321.280 C 36.448 326.678,40.217 330.623,45.653 333.516 L 49.920 335.787 88.054 336.041 L 126.188 336.295 172.961 374.633 C 206.762 402.339,220.781 413.332,223.512 414.272 C 233.051 417.557,243.298 414.908,249.850 407.465 C 255.641 400.886,256.003 398.622,255.981 369.125 C 255.964 345.844,255.814 343.150,254.363 340.053 C 253.262 337.705,227.903 311.829,173.101 257.135 C 104.241 188.409,92.977 177.505,90.027 176.713 C 86.226 175.692,54.845 175.592,50.773 176.587 M313.565 177.391 C 307.175 180.293,302.972 187.819,304.171 194.210 C 304.459 195.745,306.213 200.242,308.069 204.202 C 315.824 220.750,319.083 234.850,319.744 254.720 L 320.199 268.373 329.315 277.547 C 337.923 286.208,338.625 286.720,341.900 286.720 C 346.851 286.720,349.548 283.809,350.453 277.484 C 350.835 274.820,351.138 264.384,351.127 254.293 C 351.106 233.934,350.400 228.981,345.059 211.699 C 341.396 199.849,335.026 185.068,332.064 181.548 C 327.562 176.198,319.955 174.488,313.565 177.391 " stroke="none" fill="black" fill-rule="evenodd"></path></svg>