<svg xmlns="http://www.w3.org/2000/svg" width="512" height="512" viewBox="0 0 512 512"><path d="M57.565 65.604 C 53.356 67.516,49.856 71.515,48.678 75.760 C 47.562 79.777,47.570 80.522,48.772 84.808 C 49.636 87.888,71.639 110.220,227.759 266.472 C 349.898 388.714,406.849 445.154,409.229 446.312 C 421.283 452.177,433.907 441.634,431.410 427.787 C 430.881 424.852,413.321 407.017,252.318 245.886 C 127.785 121.253,72.781 66.754,70.400 65.638 C 66.088 63.616,61.965 63.605,57.565 65.604 M409.173 81.634 C 403.362 84.705,400.213 89.756,400.213 96.008 C 400.213 100.462,400.693 101.508,409.259 115.733 C 430.814 151.529,441.482 182.459,446.454 223.573 C 447.875 235.319,447.883 276.574,446.467 288.853 C 443.322 316.136,437.175 340.062,427.837 361.362 C 425.785 366.042,424.107 370.464,424.107 371.189 C 424.107 371.914,428.659 377.047,434.222 382.596 C 446.921 395.262,446.867 395.258,452.438 384.000 C 464.636 359.350,473.139 330.690,477.502 299.520 C 479.681 283.954,480.150 239.656,478.323 221.867 C 474.455 184.180,466.258 155.843,449.632 122.671 C 443.669 110.775,432.682 91.778,428.650 86.392 C 424.432 80.758,415.131 78.486,409.173 81.634 M224.000 97.469 C 220.349 98.764,218.201 100.352,200.428 114.901 C 186.426 126.364,183.467 129.206,183.467 131.187 C 183.467 131.456,187.765 136.032,193.019 141.358 C 200.017 148.450,203.130 151.040,204.657 151.040 C 205.999 151.040,209.724 148.602,215.109 144.199 L 223.475 137.358 223.738 154.889 L 224.000 172.421 237.281 185.624 C 244.586 192.885,251.183 198.827,251.940 198.827 C 252.698 198.827,253.922 198.223,254.659 197.486 C 255.839 196.305,256.000 191.419,256.000 156.681 C 256.000 111.943,255.943 111.457,249.850 104.535 C 244.971 98.993,239.301 96.426,232.107 96.502 C 229.056 96.535,225.408 96.970,224.000 97.469 M364.373 128.598 C 356.364 131.495,352.427 136.595,352.427 144.072 C 352.427 148.194,353.051 149.843,357.976 158.725 C 375.563 190.444,382.469 214.377,383.705 247.893 C 384.530 270.262,382.097 291.885,376.742 309.777 C 373.218 321.550,373.148 321.337,384.159 332.497 C 389.410 337.819,394.420 342.400,395.294 342.677 C 398.378 343.656,399.667 341.574,404.583 327.680 C 412.148 306.300,414.798 290.005,415.337 261.547 C 415.943 229.593,413.362 210.144,405.314 186.027 C 399.309 168.031,384.573 138.132,379.154 132.952 C 375.022 129.001,368.538 127.091,364.373 128.598 M50.773 176.587 C 43.506 178.364,37.217 183.652,33.964 190.720 L 32.000 194.987 32.000 256.000 L 32.000 317.013 33.964 321.280 C 36.448 326.678,40.217 330.623,45.653 333.516 L 49.920 335.787 88.053 336.041 L 126.185 336.295 172.959 374.636 C 206.806 402.380,220.778 413.336,223.512 414.275 C 233.058 417.555,243.299 414.907,249.850 407.465 C 255.686 400.834,256.000 398.792,256.000 367.408 L 256.000 340.033 242.550 326.603 C 235.153 319.217,228.480 313.173,227.721 313.173 C 224.226 313.173,224.018 314.779,223.573 345.151 L 223.147 374.309 182.613 341.163 C 151.991 316.122,140.932 307.556,137.387 306.129 C 132.860 304.308,131.472 304.231,98.347 303.961 L 64.000 303.681 64.000 255.947 L 64.000 208.213 89.966 208.213 C 112.433 208.213,116.112 208.033,117.272 206.872 C 118.010 206.135,118.613 204.882,118.613 204.089 C 118.613 203.296,112.561 196.603,105.164 189.217 L 91.714 175.787 72.524 175.874 C 61.969 175.922,52.181 176.243,50.773 176.587 M311.875 178.713 C 309.919 179.886,307.550 182.359,306.363 184.465 C 303.241 190.007,303.644 194.959,307.955 204.048 C 315.774 220.533,319.074 234.703,319.753 254.720 L 320.217 268.373 331.374 279.680 C 343.121 291.583,345.272 292.828,347.605 289.067 C 351.341 283.043,352.654 243.225,349.596 228.693 C 346.334 213.194,338.333 191.032,333.197 183.270 C 328.854 176.706,318.806 174.558,311.875 178.713 " stroke="none" fill="black" fill-rule="evenodd"></path></svg>