<svg xmlns="http://www.w3.org/2000/svg" width="512" height="512" viewBox="0 0 512 512"><path d="M409.173 81.634 C 403.281 84.747,400.213 89.742,400.213 96.221 C 400.213 99.894,401.075 101.808,408.007 113.535 C 431.392 153.099,441.100 180.788,446.437 223.147 C 448.065 236.075,447.807 278.341,446.012 292.620 C 441.130 331.451,430.634 361.016,408.897 397.160 C 401.054 410.201,400.213 412.002,400.213 415.754 C 400.213 427.835,412.573 435.529,423.238 430.088 C 427.237 428.048,429.002 425.805,436.671 413.013 C 459.972 374.151,471.573 341.906,477.503 299.520 C 479.681 283.951,480.149 239.651,478.323 221.867 C 474.470 184.325,466.157 155.529,449.729 122.814 C 443.762 110.931,432.445 91.349,428.680 86.392 C 424.394 80.749,415.127 78.489,409.173 81.634 M224.000 97.469 C 220.045 98.871,219.159 99.566,171.520 138.627 L 126.720 175.360 88.320 175.787 L 49.920 176.213 45.653 178.484 C 40.217 181.377,36.448 185.322,33.964 190.720 L 32.000 194.987 32.000 256.000 L 32.000 317.013 33.964 321.280 C 36.448 326.678,40.217 330.623,45.653 333.516 L 49.920 335.787 88.054 336.041 L 126.188 336.295 172.961 374.633 C 206.762 402.339,220.781 413.332,223.512 414.272 C 228.883 416.121,236.815 415.914,241.493 413.803 C 247.010 411.312,252.291 405.796,254.301 400.422 C 255.972 395.958,256.000 393.570,256.000 256.550 C 256.000 100.303,256.465 111.630,249.756 104.323 C 244.813 98.938,239.147 96.427,232.107 96.502 C 229.056 96.535,225.408 96.970,224.000 97.469 M364.373 128.598 C 356.364 131.495,352.427 136.595,352.427 144.072 C 352.427 148.194,353.051 149.843,357.976 158.725 C 375.563 190.444,382.469 214.377,383.705 247.893 C 385.155 287.213,378.250 315.446,358.010 352.962 C 353.168 361.935,352.427 363.902,352.427 367.766 C 352.427 378.225,360.461 385.164,370.779 383.617 C 377.530 382.605,380.828 378.710,389.779 361.181 C 409.221 323.106,415.573 297.158,415.573 255.815 C 415.573 220.686,410.443 195.043,397.706 166.502 C 391.869 153.423,382.114 135.782,379.154 132.952 C 375.022 129.001,368.538 127.091,364.373 128.598 M311.875 178.713 C 307.234 181.496,304.386 186.706,304.431 192.333 C 304.457 195.619,305.325 198.505,307.955 204.048 C 316.207 221.443,319.483 236.048,319.514 255.573 C 319.544 274.914,316.018 290.738,307.817 308.053 C 302.103 320.121,303.294 327.919,311.701 333.483 C 314.431 335.289,316.156 335.758,320.076 335.758 C 327.717 335.758,331.304 332.849,336.347 322.560 C 341.147 312.768,346.541 296.921,349.165 284.901 C 350.876 277.064,351.095 273.714,351.079 255.573 C 351.065 237.827,350.820 234.009,349.244 226.971 C 345.754 211.373,338.224 190.868,333.197 183.270 C 328.854 176.706,318.806 174.558,311.875 178.713 " stroke="none" fill="black" fill-rule="evenodd"></path></svg>