<svg xmlns="http://www.w3.org/2000/svg" width="512" height="512" viewBox="0 0 512 512"><path d="M334.080 98.467 C 331.608 99.640,310.543 116.306,283.990 138.098 L 238.166 175.704 200.363 175.959 L 162.560 176.213 157.675 178.612 C 154.989 179.931,151.458 182.568,149.828 184.471 C 144.050 191.222,144.213 189.141,144.213 256.000 C 144.213 322.859,144.050 320.778,149.828 327.529 C 151.458 329.432,154.989 332.069,157.675 333.388 L 162.560 335.787 200.363 336.041 L 238.165 336.296 283.989 373.889 C 310.193 395.385,331.640 412.354,334.080 413.519 C 337.130 414.976,339.837 415.559,343.573 415.565 C 353.663 415.581,360.844 411.273,365.176 402.606 L 367.787 397.381 367.787 256.000 L 367.787 114.619 365.176 109.394 C 360.844 100.727,353.663 96.419,343.573 96.435 C 339.855 96.441,337.115 97.027,334.080 98.467 " stroke="none" fill="black" fill-rule="evenodd"></path></svg>