<svg xmlns="http://www.w3.org/2000/svg" width="512" height="512" viewBox="0 0 512 512"><path d="M247.040 17.470 C 228.575 21.514,214.046 34.771,207.725 53.342 C 205.785 59.039,205.401 61.633,205.390 69.120 C 205.367 83.493,209.871 95.164,219.349 105.296 C 226.025 112.433,232.372 116.598,241.456 119.805 C 247.869 122.068,249.877 122.378,258.133 122.381 C 273.529 122.385,284.900 117.762,295.690 107.111 C 316.641 86.430,316.617 53.020,295.635 31.909 C 283.080 19.277,264.286 13.693,247.040 17.470 M267.519 50.436 C 278.126 55.422,282.481 68.499,277.062 79.094 C 272.066 88.863,259.450 93.340,249.567 88.850 C 244.970 86.762,239.425 80.323,238.076 75.506 C 234.169 61.553,243.871 48.710,258.356 48.659 C 262.040 48.646,264.885 49.198,267.519 50.436 M191.579 129.378 C 184.713 131.038,174.045 136.372,167.193 141.572 C 150.768 154.036,129.682 180.958,116.158 206.734 L 111.787 215.065 111.852 255.373 C 111.898 284.405,112.203 296.469,112.939 298.502 C 114.315 302.300,118.954 306.898,122.634 308.113 C 127.439 309.699,133.536 308.705,137.207 305.738 C 144.006 300.243,143.735 302.054,144.213 258.987 L 144.640 220.587 150.105 211.651 C 158.952 197.185,167.120 186.268,176.108 176.895 C 180.744 172.061,184.872 168.107,185.282 168.107 C 185.698 168.107,186.033 190.616,186.040 219.093 C 186.055 275.156,186.587 285.977,189.895 297.424 C 193.894 311.267,197.515 317.021,221.720 347.996 L 244.188 376.747 272.111 433.267 C 287.468 464.354,300.916 490.982,301.995 492.440 C 304.332 495.601,309.883 498.309,314.027 498.309 C 323.062 498.309,331.191 489.253,330.016 480.496 C 329.783 478.758,317.136 452.189,301.757 421.127 L 273.920 364.904 273.899 270.558 C 273.886 211.712,273.561 174.768,273.036 172.373 C 268.394 151.219,250.420 133.492,229.369 129.307 C 220.821 127.608,198.731 127.650,191.579 129.378 M228.299 162.445 C 233.918 165.062,239.443 171.356,241.088 177.015 C 242.173 180.747,242.325 191.537,242.138 251.626 L 241.920 321.875 233.426 310.939 C 218.046 291.138,218.487 293.830,218.468 219.520 L 218.453 160.427 221.227 160.435 C 222.752 160.440,225.935 161.344,228.299 162.445 M297.288 216.673 C 291.876 219.130,288.991 223.528,288.583 229.942 C 288.205 235.875,289.287 238.774,293.257 242.467 C 295.738 244.776,358.732 286.377,363.406 288.794 C 366.585 290.438,372.872 290.527,376.574 288.980 C 380.331 287.411,384.646 282.291,385.343 278.578 C 386.266 273.660,385.271 268.228,382.870 265.081 C 380.773 262.332,313.835 217.605,309.154 215.825 C 305.910 214.592,301.116 214.934,297.288 216.673 M216.747 385.912 C 213.259 387.772,210.272 391.815,184.167 430.011 C 154.338 473.657,153.542 475.056,154.900 481.475 C 157.526 493.887,173.377 498.468,181.901 489.278 C 184.823 486.128,238.012 408.110,239.024 405.491 C 240.320 402.133,239.871 396.659,237.977 392.746 C 234.217 384.981,224.413 381.824,216.747 385.912 " stroke="none" fill="black" fill-rule="evenodd"></path></svg>