<svg xmlns="http://www.w3.org/2000/svg" width="512" height="512" viewBox="0 0 512 512"><path d="M247.203 23.467 C 232.740 27.444,220.325 39.395,215.801 53.698 C 213.730 60.248,213.335 72.487,215.001 78.484 C 219.071 93.132,229.569 104.516,244.040 109.974 C 251.948 112.957,265.008 113.063,273.294 110.212 C 300.036 101.009,311.842 71.258,298.898 45.690 C 296.173 40.308,285.991 30.158,280.256 27.107 C 277.874 25.840,273.666 24.214,270.903 23.495 C 264.860 21.921,252.880 21.907,247.203 23.467 M195.840 127.694 C 192.057 129.662,116.258 205.494,114.076 209.493 C 112.234 212.868,112.211 213.435,111.966 260.053 L 111.719 307.200 127.966 307.200 L 144.213 307.200 144.213 265.167 L 144.213 223.134 165.547 201.813 L 186.880 180.493 186.880 228.425 C 186.880 278.866,187.190 284.271,190.804 296.739 C 194.657 310.037,198.100 315.473,222.137 346.211 L 244.681 375.040 276.061 438.613 C 293.319 473.579,307.521 502.290,307.620 502.415 C 307.914 502.789,336.213 489.093,336.213 488.577 C 336.213 488.316,322.379 460.106,305.471 425.887 L 274.730 363.671 274.762 269.480 C 274.794 178.271,274.741 175.080,273.101 168.668 C 270.468 158.372,266.086 150.806,258.173 142.893 C 250.270 134.990,242.696 130.599,232.440 127.976 C 223.771 125.759,199.912 125.575,195.840 127.694 M292.693 217.464 L 292.693 239.514 333.746 267.067 C 356.325 282.222,375.298 294.667,375.908 294.724 C 377.377 294.860,397.179 267.969,396.245 267.105 C 394.922 265.883,293.556 195.413,293.121 195.413 C 292.886 195.413,292.693 205.336,292.693 217.464 M193.503 431.230 L 153.712 471.632 164.311 484.990 C 170.140 492.336,175.024 498.347,175.162 498.347 C 175.588 498.347,248.729 423.088,249.008 422.363 C 249.340 421.501,234.594 390.827,233.848 390.827 C 233.543 390.827,215.388 409.008,193.503 431.230 " stroke="none" fill="black" fill-rule="evenodd"></path></svg>