<svg xmlns="http://www.w3.org/2000/svg" width="512" height="512" viewBox="0 0 512 512"><path d="M238.507 97.811 C 198.231 100.449,158.816 110.623,123.044 127.612 C 96.768 140.092,73.744 155.616,47.965 178.233 C 34.972 189.633,34.923 189.690,36.503 191.481 C 54.697 212.111,59.481 217.509,61.098 219.229 L 63.031 221.285 70.982 214.073 C 87.263 199.305,98.840 190.202,112.213 181.654 C 184.676 135.337,274.617 126.691,354.987 158.315 C 364.816 162.182,384.036 171.686,393.128 177.173 C 409.156 186.847,422.443 196.833,439.293 211.868 C 448.243 219.854,449.937 221.041,450.813 219.937 C 451.378 219.225,457.408 212.414,464.213 204.802 C 471.019 197.190,476.587 190.507,476.587 189.950 C 476.587 188.763,460.456 174.131,448.912 164.846 C 437.794 155.904,417.321 142.307,404.053 135.053 C 369.566 116.198,331.545 104.251,290.560 99.390 C 279.653 98.097,248.550 97.153,238.507 97.811 M240.957 184.357 C 196.270 187.365,152.529 204.462,117.333 232.679 C 109.428 239.016,90.376 256.406,89.755 257.851 C 89.461 258.536,116.887 288.000,117.820 288.000 C 118.132 288.000,123.526 283.313,129.807 277.585 C 147.600 261.357,158.639 253.483,175.425 245.047 C 191.375 237.032,206.068 232.119,224.853 228.522 C 233.859 226.797,237.665 226.563,256.427 226.578 C 274.805 226.592,279.123 226.855,287.602 228.471 C 325.552 235.708,353.897 250.506,384.427 279.021 L 394.667 288.586 403.871 278.906 C 408.933 273.582,415.372 266.672,418.179 263.549 L 423.284 257.871 412.389 247.721 C 392.118 228.837,375.838 217.348,354.560 206.911 C 326.976 193.381,300.952 186.389,270.507 184.329 C 256.965 183.413,254.952 183.415,240.957 184.357 M243.415 270.566 C 221.373 272.698,198.805 280.833,180.142 293.374 C 172.747 298.344,152.080 315.961,151.319 317.945 C 150.920 318.985,176.922 349.013,178.221 349.013 C 178.539 349.013,183.209 345.128,188.599 340.379 C 203.217 327.502,212.777 321.556,226.210 316.987 C 244.958 310.611,268.868 310.677,287.018 317.156 C 300.812 322.080,309.912 327.846,324.962 341.202 C 329.803 345.498,334.046 349.013,334.390 349.013 C 334.955 349.013,356.437 325.230,360.479 320.132 L 362.131 318.047 357.492 313.884 C 338.896 297.194,328.998 290.127,314.675 283.310 C 299.224 275.956,285.494 272.238,267.520 270.541 C 257.144 269.561,253.774 269.565,243.415 270.566 M243.627 363.924 C 233.636 366.112,222.560 372.364,215.161 379.992 L 211.442 383.826 233.366 408.020 C 245.424 421.326,255.608 432.213,255.997 432.213 C 256.386 432.213,265.616 422.421,276.508 410.453 C 287.401 398.485,297.322 387.607,298.556 386.279 L 300.800 383.864 294.827 378.169 C 281.342 365.311,261.939 359.913,243.627 363.924 " stroke="none" fill="black" fill-rule="evenodd"></path></svg>