<svg xmlns="http://www.w3.org/2000/svg" width="512" height="512" viewBox="0 0 512 512"><path d="M244.480 1.265 C 224.302 5.714,208.607 19.767,202.602 38.760 C 198.091 53.032,199.166 67.211,205.809 81.019 C 212.706 95.355,227.607 106.970,243.693 110.549 C 252.785 112.572,265.276 111.912,273.779 108.960 C 290.183 103.265,303.095 90.239,309.042 73.387 C 310.728 68.609,310.998 66.184,310.989 55.893 C 310.980 44.843,310.798 43.468,308.553 37.565 C 298.368 10.780,271.181 -4.623,244.480 1.265 M187.733 128.572 C 183.542 129.238,175.289 132.548,171.093 135.245 C 165.207 139.029,158.522 146.376,155.487 152.396 C 153.385 156.565,111.760 293.104,111.454 296.832 C 111.390 297.618,118.487 300.131,133.863 304.764 C 146.239 308.494,156.564 311.347,156.807 311.105 C 157.049 310.862,165.398 283.502,175.360 250.304 C 185.321 217.107,193.832 189.825,194.272 189.678 C 194.712 189.531,196.449 189.898,198.131 190.492 L 201.190 191.573 175.312 277.760 C 161.079 325.163,149.212 364.811,148.941 365.867 L 148.447 367.787 174.064 367.787 L 199.680 367.787 199.680 439.893 L 199.680 512.000 225.707 512.000 L 251.733 512.000 251.733 439.893 L 251.733 367.787 255.573 367.787 L 259.413 367.787 259.413 439.893 L 259.413 512.000 285.435 512.000 L 311.457 512.000 311.675 440.107 L 311.893 368.213 337.280 367.987 C 353.497 367.843,362.667 367.453,362.667 366.907 C 362.667 366.438,351.176 327.755,337.132 280.947 C 323.087 234.138,311.340 194.808,311.026 193.547 C 310.498 191.424,310.719 191.184,314.034 190.291 C 316.002 189.761,317.766 189.481,317.953 189.669 C 318.141 189.856,326.396 217.050,336.297 250.098 C 346.199 283.147,354.592 310.496,354.948 310.875 C 355.801 311.782,399.423 298.642,399.929 297.325 C 400.524 295.774,359.422 159.086,356.454 152.747 C 353.111 145.603,344.566 136.906,337.278 133.227 C 326.832 127.954,327.814 128.015,255.573 128.129 C 219.435 128.186,188.907 128.385,187.733 128.572 " stroke="none" fill="black" fill-rule="evenodd"></path></svg>